<svg width="387" height="59" viewBox="0 0 387 59" fill="none" xmlns="http://www.w3.org/2000/svg">
<g clip-path="url(#clip0_2559_7725)">
<mask id="mask0_2559_7725" style="mask-type:luminance" maskUnits="userSpaceOnUse" x="0" y="0" width="387" height="59">
<path d="M386.26 0H0V58.34H386.26V0Z" fill="white"/>
</mask>
<g mask="url(#mask0_2559_7725)">
<path d="M311.22 42.92V48.91C310.73 49.26 309.94 49.38 309.36 49.48C303.52 50.54 295.64 49.78 293.79 43.13C293.67 42.72 293.48 41.75 293.48 41.28V22.66C293.47 22.2 292.97 21.72 292.55 21.71L284.62 21.69L284.59 15.75C284.59 15.46 285.25 15.03 285.56 15.03L293.45 15.01L293.48 5.94C293.48 5.67 293.64 5.16 293.71 5H300.91C301.18 5.44 301.19 5.85 301.19 6.44L301.17 14.53C301.17 15.44 302.39 15.08 302.91 15.07L310.06 15C310.44 15 311.01 15.58 311 15.92L310.95 21.7H302.33C301.71 21.72 301.14 22.26 301.14 22.91L301.16 38.45C301.16 39.5 301.68 41.01 302.32 41.79C303.51 43.23 305.6 43.66 307.37 43.43L311.22 42.92Z" fill="#90BEFB"/>
<path d="M381.26 11.2102V18.6102C379.68 18.9602 378.9 18.3602 376.08 18.7002C373.63 19.0002 371.29 19.7902 369.62 21.5702C367.59 23.7402 366.49 26.4702 366.48 29.4802L366.38 46.3302L358.24 46.2802V12.4402C358.39 12.2102 358.93 11.9102 359.18 11.9102L365.35 11.9302C365.61 11.9302 366.23 12.2502 366.24 12.4702C366.29 13.6802 365.92 16.7802 366.28 18.6402C367.82 16.4902 368.76 14.6902 370.72 13.3702C373.85 11.2602 377.67 10.4302 381.26 11.2102Z" fill="#90BEFB"/>
<path d="M233.03 11.9499V46.2999H225.31C224.69 44.6699 225.54 45.2199 225.12 43.5199C225.07 43.3499 224.38 43.4699 224.27 43.6699C222.61 46.5599 218.47 47.8099 215.24 47.3599C212.33 46.9599 209.58 45.5799 208.21 42.8199C207.52 41.4499 206.7 39.5899 206.7 37.9199L206.68 11.9199L214.79 11.9499L214.84 36.3899C214.84 37.7299 215.55 38.8699 216.39 39.6999C217.65 40.9499 219.46 41.1899 221.07 40.3399C222.77 39.4299 224.07 37.7599 224.34 35.7699C224.42 35.1799 224.85 34.1899 224.85 33.6099L224.89 11.9399H233.03V11.9499Z" fill="#90BEFB"/>
<path d="M26.0799 23.0697C25.8599 23.4197 25.0499 23.2897 24.5499 23.2697L22.4599 23.1897C20.5999 23.1197 18.8199 23.1197 16.9799 23.2297L14.3699 23.3797C14.1399 23.3997 13.5099 23.0597 13.4799 22.8497C13.4599 22.6397 13.4999 22.3097 13.5599 21.9697C13.9599 19.6897 14.8399 17.6397 16.6299 16.1797C18.7099 14.4797 21.4999 14.5997 23.4699 16.4097C25.2799 18.0897 26.7299 22.0397 26.0799 23.0697ZM33.9199 26.2897L33.0399 21.1197C32.7899 19.6497 32.1299 18.1297 31.5099 16.7597C29.6899 12.7597 26.3699 9.61973 21.9399 8.89973C16.5999 8.02973 11.8799 10.2497 8.71991 14.4797C4.28991 20.4097 4.02991 29.7597 6.78991 36.3497C8.41991 40.2497 11.5599 43.4597 15.6699 44.6497C18.4099 45.4397 21.0099 45.3197 23.7099 44.7297C27.4499 43.9097 30.8099 40.7497 32.3599 37.2597C32.6099 36.6797 32.8799 35.9897 32.6899 35.3197L24.6599 35.3497C23.7599 38.1797 21.1699 39.6397 18.3699 38.6097C14.7899 37.2697 13.2899 32.8697 13.3399 29.1297L33.8699 29.1097C33.9499 28.0897 34.0599 27.1297 33.9199 26.2897Z" fill="#90BEFB"/>
<path d="M339.08 24.7397C338.86 25.0997 338.05 24.9597 337.55 24.9397L335.46 24.8597C333.6 24.7897 331.82 24.7897 329.98 24.8997L327.37 25.0497C327.14 25.0697 326.51 24.7397 326.49 24.5197C326.46 24.3097 326.49 23.9797 326.56 23.6497C326.96 21.3597 327.84 19.3097 329.63 17.8497C331.71 16.1497 334.5 16.2697 336.47 18.0897C338.28 19.7597 339.73 23.7097 339.08 24.7397ZM346.92 27.9597L346.04 22.7897C345.79 21.3197 345.13 19.7997 344.51 18.4297C342.7 14.4297 339.37 11.2897 334.94 10.5697C329.6 9.69966 324.88 11.9197 321.72 16.1497C317.29 22.0797 317.03 31.4297 319.79 38.0197C321.42 41.9297 324.56 45.1297 328.67 46.3197C331.41 47.1097 334.01 46.9997 336.71 46.3997C340.45 45.5797 343.81 42.4197 345.36 38.9297C345.61 38.3497 345.88 37.6597 345.69 36.9897L337.67 37.0197C336.76 39.8497 334.17 41.3197 331.37 40.2797C327.79 38.9397 326.29 34.5397 326.34 30.7997L346.87 30.7797C346.95 29.7697 347.06 28.7997 346.92 27.9597Z" fill="#90BEFB"/>
<path d="M169.73 38.1903C169.33 39.5803 168.63 40.6403 167.65 41.6303C165.64 43.6703 162.09 43.6203 159.9 40.9703C158.25 38.9803 157.84 36.3603 157.59 33.7603C157.21 29.8503 157.55 24.2803 160.33 21.1803C161.33 20.0703 163.14 19.3603 164.64 19.6003C167.46 20.0303 169.2 22.2803 169.87 24.9103C171.05 29.5703 171.05 33.5803 169.73 38.1903ZM166.3 13.2203C163.88 12.8103 160.64 13.2203 158.37 14.2603C147.75 19.1403 146.35 36.5003 153.69 44.8003C155.15 46.4603 156.79 47.8103 158.8 48.5603C161.76 49.6903 164.74 50.0303 167.73 49.1403C173.95 47.2703 177.32 42.1803 178.61 36.0603C180.51 26.9903 176.81 15.0103 166.3 13.2203Z" fill="#90BEFB"/>
<path d="M271.88 46.0103C271.51 46.6603 268.71 46.2203 266.61 46.3703C265.58 46.4403 264.69 46.5003 263.73 46.0703L263.66 22.1303C263.66 19.5203 261.85 17.2503 259.24 17.5003C255.87 17.8103 254.25 20.4203 253.45 23.3703L253.39 46.2803L245.27 46.3303V11.9503L252.97 11.9203C254.28 13.0803 252.16 14.4303 253.82 15.5103C254.77 14.4103 255.5 13.3003 256.69 12.5203C260.12 10.3003 264.77 10.3603 268.07 12.8503C270.33 14.5603 271.86 18.9803 271.86 21.2403L271.88 46.0103Z" fill="#90BEFB"/>
<path d="M86.9598 52.93C86.5898 53.58 83.7898 53.15 81.6898 53.29C80.6598 53.36 79.7698 53.43 78.8098 52.99L78.7398 29.06C78.7398 26.45 76.9298 24.18 74.3198 24.42C70.9498 24.74 69.3198 27.35 68.5198 30.29L68.4698 53.2L60.3398 53.26V18.88L68.0498 18.84C69.3598 20 67.2398 21.35 68.8898 22.44C69.8498 21.33 70.5698 20.23 71.7698 19.45C75.1998 17.22 79.8498 17.29 83.1498 19.78C85.4098 21.49 86.9398 25.91 86.9398 28.17L86.9598 52.93Z" fill="#90BEFB"/>
<path d="M135.52 36.3294C134.81 40.6494 132.25 44.5594 128.39 46.3894C121.35 49.7494 113.19 46.5794 110.1 39.2494C109.47 37.7394 108.88 36.0494 108.58 34.3894C108.36 33.1494 108.12 29.2794 108.23 28.1494L108.47 25.4994C108.56 24.4894 108.85 23.5294 109.13 22.5394C110.05 19.3294 111.64 16.4794 114.28 14.2394C119.36 9.9394 127.76 10.0094 132.13 15.2294C133.66 17.0594 134.84 19.3594 135.38 21.7394C135.62 22.7494 134.23 22.5494 133.7 22.5094C128.6 22.0994 127.94 23.4794 127.15 21.0994C126.49 19.1094 124.71 17.5094 122.6 17.7594C118.14 18.2894 117.13 23.4994 116.8 27.0694C116.43 31.1294 116.75 39.4394 121.69 40.8994C124.8 41.8294 126.86 39.0694 127.75 36.2594L135.52 36.3294Z" fill="#90BEFB"/>
<path d="M311.2 53.9102C308.44 53.9102 306.21 51.6602 306.21 48.9002C306.21 46.1402 308.46 43.9002 311.22 43.9102C313.98 43.9102 316.21 46.1502 316.21 48.9202C316.21 51.6702 313.97 53.9102 311.21 53.9102H311.2Z" fill="black"/>
<path d="M304.43 50.3296C303.96 47.6096 305.79 45.0196 308.51 44.5496C308.84 44.4896 309.04 44.4496 309.05 44.4496C311.72 43.7496 314.46 45.3496 315.15 48.0196C315.85 50.6896 314.25 53.4196 311.58 54.1196C310.94 54.2896 310.45 54.3596 310.21 54.3996C309.92 54.4496 309.64 54.4796 309.35 54.4796C306.97 54.4796 304.85 52.7596 304.43 50.3296Z" fill="black"/>
<path d="M288.97 44.4699C288.23 41.8099 289.79 39.0499 292.45 38.3099C295.11 37.5699 297.87 39.1299 298.61 41.7899C299.35 44.4499 297.79 47.1999 295.13 47.9399C294.68 48.0699 294.23 48.1299 293.79 48.1299C291.6 48.1299 289.59 46.6799 288.97 44.4699Z" fill="black"/>
<path d="M288.66 43.0703C288.58 42.5503 288.49 42.1203 288.48 41.2803C288.48 38.5203 290.72 36.2803 293.48 36.2803C296.19 36.2803 298.4 38.4303 298.48 41.1203C298.48 41.1703 298.5 41.2503 298.51 41.3503C298.99 44.0703 297.17 46.6603 294.45 47.1303C294.16 47.1903 293.87 47.2103 293.58 47.2103C291.2 47.2103 289.09 45.5003 288.66 43.0703Z" fill="black"/>
<path d="M288.47 22.6602C288.47 19.9002 290.71 17.6602 293.47 17.6602C296.23 17.6602 298.47 19.8902 298.47 22.6502C298.47 25.4202 296.23 27.6602 293.47 27.6602C290.71 27.6602 288.47 25.4202 288.47 22.6602Z" fill="black"/>
<path d="M290.62 26.3196C288.78 25.5396 287.51 23.6996 287.56 21.5796C287.63 18.8196 289.93 16.6396 292.69 16.7096C294.78 16.8396 295.85 17.6596 296.77 18.5396C298.7 20.5196 298.65 23.6796 296.67 25.6096C295.7 26.5496 294.44 27.0196 293.19 27.0196C292.3 27.0196 291.41 26.7896 290.62 26.3196Z" fill="black"/>
<path d="M284.62 26.6895C281.86 26.6795 279.62 24.4395 279.63 21.6695C279.64 18.9095 281.88 16.6795 284.64 16.6895C287.4 16.6895 289.64 18.9395 289.63 21.6995C289.63 24.4595 287.38 26.6895 284.63 26.6895H284.62Z" fill="black"/>
<path d="M279.59 15.7701C279.58 13.0101 281.8 10.7601 284.57 10.7501C287.33 10.7301 289.58 12.9601 289.59 15.7201C289.6 18.4801 287.38 20.7301 284.62 20.7501H284.59C281.84 20.7501 279.6 18.5301 279.59 15.7701Z" fill="black"/>
<path d="M280.85 18.0903C279.29 15.8103 279.88 12.7003 282.15 11.1403C282.53 10.8803 282.9 10.6803 283.37 10.4803C283.86 10.3003 284.38 10.0603 285.56 10.0303C288.32 10.0303 290.56 12.2703 290.56 15.0303C290.56 17.2303 289.13 19.1103 287.15 19.7703C286.46 20.1003 285.72 20.2703 284.98 20.2703C283.39 20.2703 281.82 19.5003 280.85 18.0903Z" fill="black"/>
<path d="M288.45 15.0198C288.44 12.2598 290.68 10.0098 293.44 10.0098C296.2 10.0098 298.44 12.2298 298.45 14.9998C298.46 17.7598 296.22 19.9998 293.46 20.0098H293.45C290.69 20.0098 288.46 17.7798 288.45 15.0198Z" fill="black"/>
<path d="M293.46 10.9395C290.7 10.9295 288.47 8.67949 288.48 5.91949C288.49 3.15949 290.74 0.929487 293.5 0.939487C296.26 0.939487 298.49 3.18949 298.48 5.94949C298.47 8.70949 296.24 10.9395 293.48 10.9395H293.46Z" fill="black"/>
<path d="M292.29 10.2999C289.62 9.58986 288.02 6.85986 288.72 4.18986C288.85 3.74986 288.9 3.52986 289.12 3.00986C290.22 0.479863 293.17 -0.690137 295.7 0.409863C298.16 1.47986 299.33 4.28986 298.38 6.76986C297.78 8.98986 295.77 10.4599 293.56 10.4599C293.14 10.4599 292.72 10.4099 292.29 10.2999Z" fill="black"/>
<path d="M295.91 5C295.91 2.24 298.15 0 300.91 0C303.67 0 305.91 2.24 305.91 5C305.91 7.76 303.67 10 300.91 10C298.15 10 295.91 7.76 295.91 5Z" fill="black"/>
<path d="M296.19 6.43947V6.26947C295.88 3.58947 297.76 1.12947 300.44 0.749472C303.18 0.349472 305.71 2.24947 306.1 4.97947C306.2 5.68947 306.19 6.13947 306.19 6.43947C306.19 9.19947 303.95 11.4395 301.19 11.4395C298.43 11.4395 296.19 9.19947 296.19 6.43947Z" fill="black"/>
<path d="M301.16 19.5303C298.4 19.5303 296.16 17.2803 296.17 14.5103C296.18 11.7503 298.42 9.52031 301.18 9.53031C303.94 9.53031 306.18 11.7803 306.17 14.5403C306.16 17.3003 303.93 19.5303 301.17 19.5303H301.16Z" fill="black"/>
<path d="M297.91 15.1602C297.86 12.4002 300.05 10.1202 302.82 10.0702C305.58 10.0202 307.86 12.2102 307.91 14.9702C307.96 17.7302 305.77 20.0102 303 20.0702H302.91C300.19 20.0702 297.96 17.8902 297.91 15.1602Z" fill="black"/>
<path d="M305.06 15.0503C305.03 12.2803 307.25 10.0203 310.01 10.0003C312.77 9.9703 315.03 12.1903 315.06 14.9503C315.09 17.7103 312.87 19.9703 310.11 20.0003H310.06C307.32 20.0003 305.09 17.7903 305.06 15.0503Z" fill="black"/>
<path d="M306.47 18.05C305.22 16.13 305.42 13.53 307.09 11.82C309.03 9.85001 312.19 9.82001 314.16 11.75C314.55 12.13 314.89 12.54 315.24 13.13C315.56 13.72 315.97 14.5 316 15.92C316 18.68 313.76 20.92 311 20.92C309 20.92 307.27 19.74 306.47 18.05Z" fill="black"/>
<path d="M310.91 26.6995C308.15 26.6695 305.93 24.4195 305.95 21.6495C305.97 18.8895 308.23 16.6695 310.99 16.6995C313.75 16.7195 315.97 18.9795 315.95 21.7395C315.93 24.4895 313.69 26.6995 310.95 26.6995H310.91Z" fill="black"/>
<path d="M297.33 21.71C297.33 18.95 299.56 16.71 302.32 16.71C305.08 16.71 307.33 18.94 307.33 21.7C307.33 24.46 305.1 26.7 302.33 26.71C299.57 26.71 297.33 24.47 297.33 21.71Z" fill="black"/>
<path d="M296.14 22.9103C296.14 21.1103 296.91 19.5803 297.96 18.5403C299.91 16.5803 303.08 16.5803 305.03 18.5403C306.63 20.1403 306.92 22.5503 305.9 24.4503C305.25 26.4603 303.36 27.9103 301.14 27.9103C298.38 27.9103 296.14 25.6703 296.14 22.9103Z" fill="black"/>
<path d="M296.16 38.4502C296.16 35.6902 298.39 33.4502 301.15 33.4502C303.91 33.4502 306.16 35.6802 306.16 38.4402C306.16 41.2002 303.93 43.4402 301.17 43.4502C298.4 43.4502 296.16 41.2202 296.16 38.4502Z" fill="black"/>
<path d="M298.46 44.9594C296.71 42.8294 297.01 39.6794 299.14 37.9294C301.28 36.1694 304.43 36.4794 306.18 38.6094C307.93 40.7394 307.63 43.8894 305.5 45.6494C304.57 46.4094 303.44 46.7894 302.32 46.7894C300.88 46.7894 299.45 46.1694 298.46 44.9594Z" fill="black"/>
<path d="M302.41 44.0697C302.06 41.3297 303.99 38.8197 306.73 38.4697C309.47 38.1197 311.98 40.0497 312.33 42.7897C312.68 45.5297 310.75 48.0297 308.01 48.3897C307.79 48.4097 307.58 48.4297 307.36 48.4297C304.89 48.4297 302.74 46.5897 302.41 44.0697Z" fill="black"/>
<path d="M306.26 43.5694C305.9 40.8394 307.83 38.3194 310.56 37.9594C313.3 37.5994 315.81 39.5194 316.18 42.2594C316.54 44.9994 314.62 47.5094 311.88 47.8694C311.65 47.8994 311.43 47.9194 311.21 47.9194C308.74 47.9194 306.6 46.0894 306.26 43.5694Z" fill="black"/>
<path d="M376.26 18.6094C376.26 15.8494 378.5 13.6094 381.26 13.6094C384.02 13.6094 386.26 15.8494 386.26 18.6094C386.26 21.3694 384.02 23.6094 381.26 23.6094C378.5 23.6094 376.26 21.3694 376.26 18.6094Z" fill="black"/>
<path d="M371.12 19.2896C370.79 16.5496 372.74 14.0596 375.48 13.7296C378.22 13.3996 380.71 15.3596 381.04 18.0996C381.37 20.8396 379.42 23.3296 376.68 23.6596C376.47 23.6896 376.27 23.6996 376.07 23.6996C373.58 23.6996 371.42 21.8296 371.12 19.2896Z" fill="black"/>
<path d="M366.2 25.2103C364.18 23.3203 364.08 20.1603 365.98 18.1503C367.86 16.1303 371.03 16.0303 373.04 17.9203C375.06 19.8103 375.16 22.9803 373.26 24.9903C372.28 26.0403 370.95 26.5703 369.62 26.5703C368.39 26.5703 367.16 26.1203 366.2 25.2103Z" fill="black"/>
<path d="M366.46 34.4795C363.7 34.4695 361.47 32.2195 361.48 29.4595C361.49 26.6995 363.74 24.4695 366.5 24.4795C369.26 24.4795 371.49 26.7295 371.48 29.4895C371.47 32.2495 369.23 34.4795 366.48 34.4795H366.46Z" fill="black"/>
<path d="M366.35 51.3302C363.59 51.3102 361.36 49.0602 361.38 46.3002C361.4 43.5402 363.65 41.3102 366.41 41.3302C369.17 41.3402 371.4 43.6002 371.38 46.3602C371.36 49.1102 369.13 51.3302 366.38 51.3302H366.35Z" fill="black"/>
<path d="M358.21 51.2794C355.45 51.2594 353.22 49.0094 353.24 46.2494C353.26 43.4894 355.51 41.2594 358.27 41.2794C361.03 41.2794 363.26 43.5494 363.24 46.3094C363.22 49.0594 360.99 51.2794 358.24 51.2794H358.21Z" fill="black"/>
<path d="M353.23 12.4395C353.23 9.67945 355.47 7.43945 358.23 7.43945C360.99 7.43945 363.23 9.66945 363.23 12.4395C363.23 15.1995 360.99 17.4395 358.23 17.4395C355.47 17.4395 353.23 15.1995 353.23 12.4395Z" fill="black"/>
<path d="M354.31 14.5502C352.95 12.1502 353.8 9.10016 356.2 7.74016C356.51 7.57016 356.82 7.41016 357.23 7.26016C357.66 7.12016 358.11 6.93016 359.18 6.91016C361.94 6.91016 364.18 9.15016 364.18 11.9102C364.18 14.1802 362.66 16.1002 360.59 16.7102C359.97 16.9702 359.31 17.0902 358.67 17.0902C356.92 17.0902 355.23 16.1802 354.31 14.5502Z" fill="black"/>
<path d="M365.33 16.9297C362.57 16.9297 360.34 14.6697 360.35 11.9097C360.36 9.14972 362.61 6.91972 365.37 6.92972C368.13 6.93972 370.36 9.17972 370.35 11.9397C370.34 14.6997 368.1 16.9297 365.35 16.9297H365.33Z" fill="black"/>
<path d="M362.57 15.8599C360.83 14.3499 360.33 11.7799 361.48 9.67986C362.82 7.26986 365.86 6.38986 368.28 7.71986C368.64 7.92986 369.01 8.14986 369.52 8.61986C369.94 9.11986 370.96 9.72986 371.23 12.2499C371.36 14.9999 369.22 17.3399 366.46 17.4599C366.39 17.4599 366.31 17.4599 366.23 17.4599C364.79 17.4599 363.48 16.8399 362.57 15.8499V15.8599Z" fill="black"/>
<path d="M361.37 19.5901C360.85 16.8801 362.62 14.2501 365.33 13.7301C368.04 13.2001 370.66 14.9801 371.19 17.6901C371.71 20.4001 369.94 23.0201 367.23 23.5501C366.91 23.6101 366.59 23.6401 366.27 23.6401C363.93 23.6401 361.83 21.9801 361.37 19.5901Z" fill="black"/>
<path d="M366.57 16.1601C365.03 13.8701 365.64 10.7601 367.93 9.22008C370.22 7.68008 373.33 8.28008 374.87 10.5801C376.41 12.8701 375.8 15.9701 373.51 17.5201C372.65 18.0901 371.68 18.3701 370.72 18.3701C369.12 18.3701 367.54 17.5901 366.57 16.1601Z" fill="black"/>
<path d="M380.2 16.0901C377.5 15.5101 375.79 12.8501 376.37 10.1501C376.96 7.45006 379.62 5.73006 382.32 6.32006C385.02 6.91006 386.73 9.57006 386.15 12.2701C385.64 14.6101 383.57 16.2101 381.26 16.2101C380.91 16.2101 380.56 16.1701 380.2 16.0901Z" fill="black"/>
<path d="M228.03 46.2998C228.03 43.5398 230.27 41.2998 233.03 41.2998C235.79 41.2998 238.03 43.5398 238.03 46.2998C238.03 49.0598 235.79 51.2998 233.03 51.2998C230.27 51.2998 228.03 49.0598 228.03 46.2998Z" fill="black"/>
<path d="M220.31 46.3096C220.31 43.5496 222.54 41.3096 225.3 41.3096C228.07 41.3096 230.31 43.5396 230.31 46.2996C230.31 49.0596 228.08 51.2996 225.32 51.3096C222.55 51.3096 220.31 49.0796 220.31 46.3096Z" fill="black"/>
<path d="M220.27 44.7197C219.6 42.0397 221.24 39.3197 223.92 38.6597C226.6 37.9997 229.31 39.6397 229.97 42.3197C230.64 44.9997 229 47.7097 226.32 48.3697C225.92 48.4697 225.51 48.5197 225.12 48.5197C222.87 48.5197 220.83 46.9897 220.27 44.7197Z" fill="black"/>
<path d="M221.85 48.0395C219.43 46.6995 218.56 43.6595 219.9 41.2395C220.9 39.6095 221.74 39.3495 222.27 39.0295C222.82 38.7695 223.24 38.6595 223.66 38.5695C226.36 37.9995 229.01 39.7295 229.57 42.4395C230.07 44.7895 228.82 47.0895 226.71 48.0295C225.97 48.4495 225.12 48.6695 224.27 48.6695C223.45 48.6695 222.61 48.4595 221.85 48.0395Z" fill="black"/>
<path d="M214.55 52.3099C211.82 51.9299 209.91 49.3999 210.29 46.6699C210.67 43.9299 213.19 42.0199 215.93 42.4099C218.66 42.7799 220.57 45.3099 220.19 48.0499C219.84 50.5499 217.7 52.3599 215.25 52.3599C215.02 52.3599 214.79 52.3399 214.55 52.3099Z" fill="black"/>
<path d="M203.73 45.0394C202.5 42.5694 203.51 39.5694 205.98 38.3394C208.46 37.1094 211.46 38.1194 212.69 40.5894C213.92 43.0594 212.91 46.0694 210.43 47.2894C209.72 47.6494 208.96 47.8194 208.21 47.8194C206.37 47.8194 204.61 46.7994 203.73 45.0394Z" fill="black"/>
<path d="M201.7 37.9199C201.7 35.1599 203.94 32.9199 206.7 32.9199C209.46 32.9199 211.7 35.1599 211.7 37.9199C211.7 40.6799 209.46 42.9199 206.7 42.9199C203.94 42.9199 201.7 40.6799 201.7 37.9199Z" fill="black"/>
<path d="M201.68 11.9199C201.68 9.15992 203.91 6.91992 206.68 6.91992C209.44 6.91992 211.68 9.14992 211.68 11.9099C211.68 14.6699 209.45 16.9199 206.68 16.9199C203.92 16.9199 201.68 14.6799 201.68 11.9199Z" fill="black"/>
<path d="M214.77 16.9502C212.01 16.9502 209.78 14.6902 209.79 11.9302C209.8 9.17023 212.05 6.94023 214.81 6.95023C217.57 6.96023 219.8 9.21023 219.79 11.9702C219.78 14.7202 217.54 16.9502 214.79 16.9502H214.77Z" fill="black"/>
<path d="M209.84 36.3997C209.84 33.6397 212.07 31.3896 214.83 31.3896C217.59 31.3896 219.83 33.6197 219.84 36.3797C219.85 39.1397 217.61 41.3796 214.85 41.3896H214.84C212.08 41.3896 209.85 39.1597 209.84 36.3997Z" fill="black"/>
<path d="M212.87 43.2499C210.91 41.3099 210.89 38.1499 212.83 36.1799C214.77 34.2199 217.94 34.1999 219.9 36.1399C221.87 38.0799 221.89 41.2499 219.95 43.2099C218.97 44.1999 217.68 44.6999 216.39 44.6999C215.12 44.6999 213.85 44.2199 212.87 43.2499Z" fill="black"/>
<path d="M216.65 42.6698C215.36 40.2298 216.29 37.1998 218.74 35.9198C221.18 34.6298 224.2 35.5598 225.49 37.9998C226.78 40.4498 225.84 43.4698 223.4 44.7598C222.66 45.1498 221.86 45.3398 221.07 45.3398C219.28 45.3398 217.54 44.3698 216.65 42.6698Z" fill="black"/>
<path d="M223.67 40.7203C220.93 40.3503 219.01 37.8303 219.38 35.1003C219.76 32.3603 222.28 30.4403 225.01 30.8103C227.75 31.1803 229.67 33.7003 229.3 36.4403C228.95 38.9503 226.81 40.7703 224.35 40.7703C224.12 40.7703 223.9 40.7503 223.67 40.7203Z" fill="black"/>
<path d="M219.85 33.6094C219.85 30.8494 222.09 28.6094 224.85 28.6094C227.61 28.6094 229.85 30.8494 229.85 33.6094C229.85 36.3694 227.61 38.6094 224.85 38.6094C222.09 38.6094 219.85 36.3694 219.85 33.6094Z" fill="black"/>
<path d="M224.88 16.9395C222.12 16.9295 219.88 14.6895 219.89 11.9295C219.89 9.16949 222.14 6.92949 224.9 6.93949C227.66 6.93949 229.9 9.17949 229.89 11.9495C229.88 14.6995 227.65 16.9395 224.89 16.9395H224.88Z" fill="black"/>
<path d="M233.02 16.9502C230.26 16.9502 228.03 14.7002 228.03 11.9402C228.03 9.18023 230.28 6.94023 233.04 6.95023C235.8 6.95023 238.03 9.19023 238.03 11.9502C238.03 14.7102 235.79 16.9502 233.03 16.9502H233.02Z" fill="black"/>
<path d="M28.1196 21.9599C27.6596 19.2299 29.4896 16.6499 32.2096 16.1899C34.9296 15.7299 37.5096 17.5599 37.9796 20.2799C38.4396 22.9999 36.6096 25.5799 33.8896 26.0499C33.5996 26.0899 33.3196 26.1199 33.0396 26.1199C30.6496 26.1199 28.5396 24.3899 28.1196 21.9599Z" fill="black"/>
<path d="M26.9497 18.8203C25.8197 16.3003 26.9297 13.3403 29.4497 12.2003C31.9597 11.0603 34.9297 12.1803 36.0597 14.6903C37.1997 17.2103 36.0897 20.1703 33.5697 21.3103C32.8997 21.6203 32.1997 21.7603 31.5097 21.7603C29.6097 21.7603 27.7897 20.6703 26.9497 18.8203Z" fill="black"/>
<path d="M21.1398 13.8302C18.4098 13.3902 16.5598 10.8202 17.0098 8.09023C17.4498 5.37023 20.0198 3.52023 22.7398 3.96023C25.4698 4.41023 27.3198 6.97023 26.8798 9.70023C26.4798 12.1502 24.3598 13.9002 21.9498 13.9002C21.6798 13.9002 21.4098 13.8802 21.1398 13.8302Z" fill="black"/>
<path d="M5.72963 18.4796C3.50963 16.8296 3.05963 13.6996 4.70963 11.4796C6.36963 9.26957 9.49963 8.81957 11.7096 10.4696C13.9196 12.1196 14.3796 15.2596 12.7296 17.4696C11.7396 18.7796 10.2396 19.4796 8.71963 19.4796C7.66963 19.4796 6.62963 19.1496 5.72963 18.4796Z" fill="black"/>
<path d="M2.17984 38.2799C1.10984 35.7299 2.30984 32.7999 4.85984 31.7399C7.39985 30.6699 10.3298 31.8699 11.3998 34.4199C12.4698 36.9599 11.2698 39.8899 8.71985 40.9599C8.08985 41.2199 7.43985 41.3499 6.78984 41.3499C4.83984 41.3499 2.97984 40.1999 2.17984 38.2799Z" fill="black"/>
<path d="M14.2797 49.4494C11.6297 48.6794 10.0997 45.9094 10.8697 43.2594C11.6297 40.6094 14.4097 39.0794 17.0597 39.8394C19.7097 40.6094 21.2397 43.3794 20.4697 46.0394C19.8397 48.2294 17.8397 49.6494 15.6697 49.6494C15.2097 49.6494 14.7397 49.5894 14.2797 49.4494Z" fill="black"/>
<path d="M18.8299 45.8001C18.2299 43.1001 19.9399 40.4301 22.6399 39.8401C25.3399 39.2501 27.9999 40.9601 28.5899 43.6601C29.1799 46.3601 27.4799 49.0201 24.7799 49.6101C24.4199 49.6901 24.0599 49.7301 23.6999 49.7301C21.4099 49.7301 19.3399 48.1301 18.8299 45.8001Z" fill="black"/>
<path d="M30.3296 41.8301C27.8096 40.7101 26.6696 37.7501 27.7896 35.2301C28.9096 32.7001 31.8696 31.5701 34.3896 32.6901C36.9096 33.8101 38.0496 36.7601 36.9296 39.2901C36.0996 41.1501 34.2696 42.2601 32.3596 42.2601C31.6796 42.2601 30.9896 42.1201 30.3296 41.8301Z" fill="black"/>
<path d="M27.8797 36.6797C27.1297 34.0197 28.6697 31.2597 31.3297 30.5097C33.9797 29.7497 36.7497 31.2997 37.4997 33.9597C38.2497 36.6097 36.7097 39.3797 34.0497 40.1297C33.5997 40.2597 33.1397 40.3197 32.6897 40.3197C30.5097 40.3197 28.4997 38.8797 27.8797 36.6797Z" fill="black"/>
<path d="M19.6597 35.3696C19.6497 32.5996 21.8797 30.3596 24.6397 30.3496C27.3997 30.3496 29.6497 32.5696 29.6597 35.3296C29.6697 38.0896 27.4397 40.3396 24.6797 40.3496H24.6597C21.9097 40.3496 19.6697 38.1196 19.6597 35.3696Z" fill="black"/>
<path d="M16.6397 43.3003C14.0497 42.3503 12.7197 39.4703 13.6797 36.8803C14.6297 34.2903 17.5097 32.9603 20.0997 33.9103C22.6897 34.8703 24.0197 37.7403 23.0597 40.3303C22.3197 42.3603 20.4097 43.6103 18.3697 43.6103C17.7997 43.6103 17.2097 43.5103 16.6397 43.3003Z" fill="black"/>
<path d="M13.2797 34.1294C10.5197 34.0894 8.30966 31.8294 8.33966 29.0694C8.36966 26.3094 10.6397 24.0894 13.3997 24.1294C16.1597 24.1594 18.3697 26.4294 18.3397 29.1894C18.3097 31.9294 16.0697 34.1294 13.3397 34.1294H13.2797Z" fill="black"/>
<path d="M28.8696 29.1094C28.8696 26.3494 31.0996 24.1094 33.8696 24.1094C36.6296 24.1094 38.8696 26.3394 38.8696 29.0994C38.8696 31.8594 36.6396 34.1094 33.8696 34.1094C31.1096 34.1094 28.8696 31.8694 28.8696 29.1094Z" fill="black"/>
<path d="M28.9901 27.1002C28.5401 24.3802 30.3801 21.8102 33.1001 21.3602C35.8301 20.9002 38.4001 22.7502 38.8501 25.4702C39.3001 28.2002 37.4601 30.7702 34.7401 31.2202C34.4601 31.2702 34.1801 31.2902 33.9101 31.2902C31.5101 31.2902 29.3901 29.5502 28.9901 27.1002Z" fill="black"/>
<path d="M24.3499 28.2597C21.5899 28.1497 19.4399 25.8297 19.5499 23.0697C19.6599 20.3097 21.9899 18.1597 24.7499 18.2697C27.5099 18.3797 29.6599 20.7097 29.5499 23.4697C29.4399 26.1597 27.2199 28.2697 24.5499 28.2697C24.4899 28.2697 24.4199 28.2697 24.3499 28.2597Z" fill="black"/>
<path d="M22.2699 28.1796C19.5099 28.0796 17.3599 25.7596 17.4599 22.9996C17.5699 20.2396 19.8899 18.0796 22.6499 18.1896C25.4099 18.2996 27.5599 20.6196 27.4599 23.3796C27.3499 26.0696 25.1399 28.1896 22.4699 28.1896C22.3999 28.1896 22.3299 28.1896 22.2699 28.1796Z" fill="black"/>
<path d="M11.99 23.5201C11.83 20.7701 13.93 18.4001 16.68 18.2401C19.44 18.0701 21.81 20.1701 21.97 22.9301C22.13 25.6901 20.03 28.0601 17.28 28.2201C17.17 28.2201 17.07 28.2301 16.98 28.2301C14.35 28.2301 12.15 26.1801 11.99 23.5201Z" fill="black"/>
<path d="M9.37962 23.6594C9.21962 20.9094 11.3296 18.5394 14.0796 18.3894C16.8396 18.2294 19.1996 20.3294 19.3596 23.0894C19.5196 25.8494 17.4096 28.2094 14.6596 28.3694C14.5596 28.3694 14.4596 28.3794 14.3596 28.3794C11.7296 28.3794 9.52962 26.3194 9.37962 23.6594Z" fill="black"/>
<path d="M11.44 27.5798C10.89 27.2198 10.4 27.0598 9.44002 25.8198C9.14002 25.3798 8.71002 24.7198 8.53002 23.5398C8.14002 20.8098 10.05 18.2798 12.79 17.8998C14.43 17.6698 16 18.2598 17.07 19.3698C18.88 20.8698 19.42 23.4998 18.24 25.6398C17.32 27.2798 15.62 28.2098 13.86 28.2098C13.04 28.2098 12.21 27.9998 11.44 27.5798Z" fill="black"/>
<path d="M12.9599 27.3798C10.2099 27.0798 8.22989 24.6098 8.51989 21.8698C8.55989 21.5898 8.58989 21.3398 8.63989 21.0898C9.11989 18.3698 11.7199 16.5598 14.4399 17.0498C17.1499 17.5298 18.9699 20.1198 18.4799 22.8398C18.4699 22.8998 18.4699 22.9498 18.4699 22.9498C18.1899 25.5098 16.0199 27.4098 13.4999 27.4098C13.3199 27.4098 13.1399 27.4098 12.9599 27.3798Z" fill="black"/>
<path d="M12.7596 19.3398C11.0096 17.1998 11.3296 14.0498 13.4696 12.2998C15.6096 10.5598 18.7596 10.8798 20.4996 13.0198C22.2496 15.1498 21.9296 18.2998 19.7896 20.0498C18.8596 20.8098 17.7496 21.1798 16.6296 21.1798C15.1796 21.1798 13.7496 20.5498 12.7596 19.3398Z" fill="black"/>
<path d="M20.0899 20.0894C18.0499 18.2194 17.9199 15.0594 19.7899 13.0294C21.6599 10.9894 24.8199 10.8594 26.8499 12.7194C28.8899 14.5894 29.0199 17.7594 27.1499 19.7894C26.1699 20.8594 24.8199 21.4094 23.4699 21.4094C22.2599 21.4094 21.0499 20.9694 20.0899 20.0894Z" fill="black"/>
<path d="M23.4099 27.2996C21.0799 25.8196 20.3799 22.7296 21.8499 20.3996C23.3199 18.0596 26.4099 17.3596 28.7499 18.8396C31.0799 20.3096 31.7799 23.3996 30.3099 25.7396C29.3599 27.2396 27.7299 28.0696 26.0699 28.0696C25.1599 28.0696 24.2399 27.8196 23.4099 27.2996Z" fill="black"/>
<path d="M24.5601 28.2695C22.0901 28.2695 19.9401 26.4395 19.6101 23.9195C19.2501 21.1795 21.1801 18.6695 23.9201 18.3095L25.4401 18.1095C28.1801 17.7595 30.6901 19.6795 31.0501 22.4195C31.4101 25.1595 29.4801 27.6695 26.7401 28.0295L25.2201 28.2295C25.0001 28.2595 24.7801 28.2695 24.5601 28.2695Z" fill="black"/>
<path d="M341.12 23.6294C340.66 20.8994 342.49 18.3194 345.21 17.8594C347.93 17.3894 350.51 19.2294 350.98 21.9494C351.44 24.6694 349.61 27.2494 346.89 27.7194C346.6 27.7594 346.32 27.7894 346.04 27.7894C343.65 27.7894 341.54 26.0594 341.12 23.6294Z" fill="black"/>
<path d="M339.95 20.4902C338.82 17.9702 339.93 15.0102 342.45 13.8702C344.96 12.7302 347.92 13.8502 349.06 16.3602C350.2 18.8802 349.09 21.8402 346.57 22.9802C345.9 23.2902 345.2 23.4302 344.51 23.4302C342.61 23.4302 340.79 22.3402 339.95 20.4902Z" fill="black"/>
<path d="M334.14 15.5001C331.41 15.0601 329.56 12.4901 330 9.77015C330.45 7.04015 333.02 5.19014 335.74 5.63014C338.47 6.08015 340.32 8.64014 339.88 11.3701C339.48 13.8201 337.35 15.5701 334.95 15.5701C334.68 15.5701 334.41 15.5501 334.14 15.5001Z" fill="black"/>
<path d="M318.73 20.1498C316.52 18.4998 316.06 15.3698 317.71 13.1598C319.37 10.9398 322.5 10.4898 324.71 12.1398C326.92 13.7898 327.38 16.9298 325.73 19.1398C324.74 20.4498 323.24 21.1498 321.71 21.1498C320.67 21.1498 319.63 20.8198 318.73 20.1498Z" fill="black"/>
<path d="M315.18 39.9502C314.11 37.4002 315.31 34.4702 317.86 33.4002C320.41 32.3402 323.33 33.5402 324.4 36.0902C325.47 38.6302 324.27 41.5602 321.72 42.6302C321.09 42.8902 320.44 43.0202 319.79 43.0202C317.84 43.0202 315.98 41.8602 315.18 39.9502Z" fill="black"/>
<path d="M327.28 51.1201C324.63 50.3501 323.1 47.5801 323.87 44.9301C324.64 42.2701 327.41 40.7501 330.06 41.5101C332.71 42.2801 334.24 45.0601 333.47 47.7101C332.84 49.9001 330.84 51.3201 328.67 51.3201C328.21 51.3201 327.74 51.2501 327.28 51.1201Z" fill="black"/>
<path d="M331.83 47.4799C331.23 44.7899 332.93 42.1199 335.63 41.5199C338.32 40.9199 340.99 42.6199 341.59 45.3099C342.19 48.0099 340.49 50.6799 337.79 51.2799C337.43 51.3599 337.06 51.3999 336.71 51.3999C334.41 51.3999 332.35 49.8099 331.83 47.4799Z" fill="black"/>
<path d="M343.33 43.5C340.81 42.38 339.67 39.42 340.79 36.9C341.91 34.37 344.87 33.24 347.39 34.36C349.91 35.48 351.05 38.43 349.93 40.96C349.1 42.82 347.27 43.93 345.36 43.93C344.68 43.93 343.99 43.79 343.33 43.5Z" fill="black"/>
<path d="M340.88 38.3496C340.13 35.6896 341.67 32.9296 344.33 32.1796C346.98 31.4196 349.75 32.9696 350.5 35.6196C351.25 38.2796 349.71 41.0496 347.05 41.7996C346.6 41.9296 346.14 41.9896 345.69 41.9896C343.51 41.9896 341.5 40.5496 340.88 38.3496Z" fill="black"/>
<path d="M332.67 37.0396C332.66 34.2696 334.89 32.0296 337.65 32.0196C340.41 32.0096 342.66 34.2396 342.67 36.9996C342.68 39.7596 340.45 42.0096 337.69 42.0196H337.67C334.92 42.0196 332.68 39.7896 332.67 37.0396Z" fill="black"/>
<path d="M329.63 44.9697C327.04 43.9997 325.72 41.1297 326.68 38.5397C327.64 35.9497 330.52 34.6297 333.11 35.5897C335.7 36.5497 337.02 39.4297 336.06 42.0197C335.31 44.0297 333.4 45.2797 331.37 45.2797C330.79 45.2797 330.2 45.1797 329.63 44.9697Z" fill="black"/>
<path d="M326.28 35.8003C323.52 35.7603 321.31 33.5003 321.34 30.7403C321.37 27.9803 323.64 25.7603 326.4 25.8003C329.16 25.8303 331.37 28.1003 331.34 30.8603C331.31 33.6003 329.08 35.8003 326.34 35.8003H326.28Z" fill="black"/>
<path d="M341.87 30.7803C341.87 28.0203 344.1 25.7803 346.86 25.7803C349.63 25.7803 351.87 28.0103 351.87 30.7703C351.87 33.5303 349.64 35.7803 346.87 35.7803C344.11 35.7803 341.87 33.5403 341.87 30.7803Z" fill="black"/>
<path d="M341.99 28.7795C341.53 26.0595 343.37 23.4795 346.1 23.0295C348.82 22.5695 351.4 24.4095 351.85 27.1395C352.31 29.8595 350.47 32.4295 347.74 32.8895C347.46 32.9395 347.19 32.9595 346.91 32.9595C344.51 32.9595 342.39 31.2195 341.99 28.7795Z" fill="black"/>
<path d="M337.57 29.9496C337.4 29.9496 337.35 29.9296 337.35 29.9296C334.59 29.8196 332.44 27.4896 332.56 24.7296C332.67 21.9696 335 19.8296 337.75 19.9396C338.16 19.9596 338.33 19.9796 338.38 19.9796C341.13 19.9796 343.35 22.2296 343.35 24.9796C343.35 27.7396 341.11 29.9796 338.35 29.9796C338.01 29.9796 337.75 29.9596 337.57 29.9496Z" fill="black"/>
<path d="M335.27 29.8498C332.51 29.7498 330.36 27.4198 330.46 24.6698C330.57 21.9098 332.89 19.7598 335.65 19.8598C338.41 19.9698 340.56 22.2898 340.46 25.0498C340.35 27.7398 338.14 29.8598 335.47 29.8598C335.4 29.8598 335.33 29.8598 335.27 29.8498Z" fill="black"/>
<path d="M324.99 25.2C324.82 22.44 326.92 20.07 329.68 19.91C332.44 19.74 334.81 21.84 334.97 24.6C335.14 27.36 333.03 29.72 330.28 29.89C330.18 29.9 330.08 29.9 329.97 29.9C327.35 29.9 325.15 27.85 324.99 25.2Z" fill="black"/>
<path d="M322.38 25.3303C322.22 22.5803 324.33 20.2103 327.08 20.0603C329.84 19.9003 332.2 22.0003 332.36 24.7603C332.52 27.5203 330.41 29.8803 327.66 30.0403C327.56 30.0503 327.46 30.0503 327.37 30.0503C324.74 30.0503 322.53 27.9903 322.38 25.3303Z" fill="black"/>
<path d="M324.42 29.2401C324.06 29.0401 323.7 28.8201 323.21 28.3701C322.81 27.8801 321.87 27.3401 321.51 24.9601C321.27 22.2101 323.3 19.7801 326.05 19.5401C327.65 19.4001 329.13 20.0201 330.15 21.1101C331.9 22.6301 332.41 25.2201 331.23 27.3301C330.31 28.9601 328.61 29.8801 326.86 29.8801C326.03 29.8801 325.19 29.6701 324.42 29.2401Z" fill="black"/>
<path d="M325.99 29.0595C323.24 28.7695 321.24 26.3195 321.52 23.5695C321.56 23.2395 321.6 22.9795 321.64 22.7495C322.13 20.0395 324.74 18.2295 327.45 18.7295C330.17 19.2195 331.97 21.8195 331.48 24.5395C331.48 24.5395 331.47 24.5995 331.47 24.6095C331.2 27.1695 329.03 29.0795 326.5 29.0795C326.33 29.0795 326.16 29.0795 325.99 29.0595Z" fill="black"/>
<path d="M325.76 21.0097C324.01 18.8697 324.33 15.7197 326.47 13.9697C328.61 12.2297 331.76 12.5497 333.5 14.6897C335.25 16.8297 334.93 19.9797 332.79 21.7197C331.86 22.4797 330.74 22.8497 329.63 22.8497C328.18 22.8497 326.74 22.2197 325.76 21.0097Z" fill="black"/>
<path d="M333.08 21.7597C331.05 19.8897 330.92 16.7197 332.8 14.6897C334.67 12.6697 337.83 12.5397 339.86 14.4097C341.89 16.2897 342.02 19.4497 340.14 21.4797C339.16 22.5497 337.81 23.0897 336.47 23.0897C335.26 23.0897 334.04 22.6497 333.08 21.7597Z" fill="black"/>
<path d="M336.41 28.9696C334.08 27.4896 333.38 24.3996 334.85 22.0696C336.33 19.7296 339.41 19.0296 341.75 20.5096C344.08 21.9796 344.78 25.0696 343.31 27.4096C342.36 28.9096 340.74 29.7396 339.08 29.7396C338.16 29.7396 337.24 29.4896 336.41 28.9696Z" fill="black"/>
<path d="M337.56 29.9394C335.09 29.9394 332.94 28.1094 332.61 25.5894C332.25 22.8494 334.18 20.3394 336.92 19.9794L338.44 19.7794C341.18 19.4294 343.69 21.3494 344.05 24.0894C344.41 26.8294 342.48 29.3394 339.74 29.6994L338.22 29.8994C338 29.9294 337.78 29.9394 337.56 29.9394Z" fill="black"/>
<path d="M153.83 16.3597C152.67 13.8497 153.76 10.8797 156.27 9.71973C158.78 8.55973 161.75 9.64973 162.91 12.1597C164.07 14.6697 162.98 17.6397 160.47 18.7997C159.79 19.1097 159.08 19.2597 158.37 19.2597C156.48 19.2597 154.68 18.1797 153.83 16.3597Z" fill="black"/>
<path d="M149.94 48.1102C148.11 46.0402 148.31 42.8802 150.38 41.0502C152.45 39.2202 155.61 39.4202 157.44 41.4902C159.26 43.5502 159.07 46.7102 157 48.5402C156.05 49.3802 154.87 49.8002 153.69 49.8002C152.31 49.8002 150.93 49.2302 149.94 48.1102Z" fill="black"/>
<path d="M157.05 53.2402C154.47 52.2802 153.15 49.4002 154.12 46.8102C155.08 44.2202 157.96 42.9102 160.55 43.8702C163.14 44.8402 164.45 47.7202 163.49 50.3002C162.74 52.3202 160.83 53.5602 158.8 53.5602C158.22 53.5602 157.63 53.4602 157.05 53.2402Z" fill="black"/>
<path d="M162.94 50.56C162.15 47.92 163.66 45.13 166.3 44.34C168.95 43.56 171.74 45.06 172.52 47.71C173.31 50.36 171.8 53.14 169.16 53.93C168.68 54.07 168.2 54.14 167.73 54.14C165.57 54.14 163.58 52.73 162.94 50.56Z" fill="black"/>
<path d="M177.58 40.9494C174.88 40.3794 173.15 37.7294 173.72 35.0194C174.29 32.3194 176.94 30.5894 179.64 31.1594C182.34 31.7294 184.07 34.3894 183.5 37.0894C183.01 39.4394 180.93 41.0594 178.62 41.0594C178.27 41.0594 177.93 41.0194 177.58 40.9494Z" fill="black"/>
<path d="M165.46 18.1501C162.74 17.6801 160.91 15.1001 161.37 12.3801C161.83 9.6601 164.42 7.8201 167.14 8.2901C169.86 8.7501 171.69 11.3301 171.23 14.0601C170.81 16.4901 168.7 18.2201 166.31 18.2201C166.03 18.2201 165.74 18.2001 165.46 18.1501Z" fill="black"/>
<path d="M164.13 45.1795C162.17 43.2395 162.15 40.0695 164.1 38.1095C166.04 36.1495 169.2 36.1295 171.17 38.0695C173.13 40.0195 173.15 43.1795 171.2 45.1395C170.23 46.1295 168.94 46.6295 167.65 46.6295C166.38 46.6295 165.11 46.1495 164.13 45.1795Z" fill="black"/>
<path d="M156.05 44.1502C154.29 42.0202 154.59 38.8702 156.72 37.1102C158.84 35.3502 162 35.6502 163.75 37.7802C165.51 39.9102 165.21 43.0602 163.08 44.8202C162.15 45.5902 161.02 45.9702 159.9 45.9702C158.46 45.9702 157.03 45.3502 156.05 44.1502Z" fill="black"/>
<path d="M152.62 34.2395C152.36 31.4895 154.37 29.0495 157.12 28.7795C159.87 28.5195 162.31 30.5295 162.58 33.2795C162.84 36.0295 160.83 38.4695 158.08 38.7295C157.92 38.7495 157.76 38.7595 157.59 38.7595C155.05 38.7595 152.87 36.8195 152.62 34.2395Z" fill="black"/>
<path d="M156.99 24.9003C154.94 23.0603 154.76 19.8903 156.61 17.8403C158.45 15.7803 161.61 15.6103 163.67 17.4603C165.72 19.3003 165.9 22.4603 164.05 24.5203C163.06 25.6203 161.7 26.1803 160.33 26.1803C159.14 26.1803 157.95 25.7603 156.99 24.9003Z" fill="black"/>
<path d="M163.85 24.5302C161.12 24.1002 159.27 21.5302 159.7 18.8002C160.14 16.0802 162.71 14.2202 165.43 14.6602C168.16 15.1002 170.02 17.6702 169.58 20.3902C169.18 22.8502 167.06 24.6002 164.65 24.6002C164.38 24.6002 164.11 24.5802 163.85 24.5302Z" fill="black"/>
<path d="M165.03 26.1394C164.34 23.4694 165.96 20.7494 168.64 20.0594C171.31 19.3794 174.03 20.9994 174.71 23.6694C175.4 26.3494 173.78 29.0694 171.1 29.7494C170.69 29.8594 170.28 29.9094 169.87 29.9094C167.64 29.9094 165.6 28.3994 165.03 26.1394Z" fill="black"/>
<path d="M168.35 42.9896C165.7 42.2296 164.16 39.4596 164.92 36.8096C165.68 34.1596 168.45 32.6196 171.11 33.3796C173.76 34.1396 175.3 36.9096 174.54 39.5596C173.91 41.7596 171.91 43.1896 169.73 43.1896C169.28 43.1896 168.81 43.1296 168.35 42.9896Z" fill="black"/>
<path d="M261.62 46.7195C261.43 43.9695 263.5 41.5695 266.26 41.3795C269.01 41.1795 271.4 43.2595 271.6 46.0095C271.79 48.7695 269.72 51.1595 266.97 51.3495C266.84 51.3595 266.72 51.3695 266.6 51.3695C264 51.3695 261.81 49.3595 261.62 46.7195Z" fill="black"/>
<path d="M261.68 50.6296C259.16 49.4996 258.04 46.5396 259.17 44.0196C260.3 41.4996 263.26 40.3796 265.78 41.4996C268.3 42.6396 269.42 45.5996 268.29 48.1096C267.46 49.9696 265.64 51.0696 263.73 51.0696C263.04 51.0696 262.35 50.9296 261.68 50.6296Z" fill="black"/>
<path d="M258.66 22.1399C258.65 19.3799 260.88 17.1299 263.65 17.1299C266.41 17.1199 268.65 19.3499 268.66 22.1099C268.67 24.8699 266.44 27.1199 263.67 27.1299H263.66C260.9 27.1299 258.67 24.8999 258.66 22.1399Z" fill="black"/>
<path d="M254.26 17.9797C254 15.2297 256.01 12.7797 258.76 12.5197C261.51 12.2597 263.95 14.2697 264.22 17.0197C264.48 19.7697 262.47 22.2097 259.72 22.4697C259.55 22.4897 259.39 22.4997 259.23 22.4997C256.69 22.4997 254.51 20.5597 254.26 17.9797Z" fill="black"/>
<path d="M252.14 28.1899C249.48 27.4699 247.9 24.7199 248.62 22.0599C249.35 19.3899 252.09 17.8199 254.76 18.5399C257.42 19.2599 259 22.0099 258.28 24.6799C257.67 26.8999 255.66 28.3699 253.45 28.3699C253.02 28.3699 252.58 28.3099 252.14 28.1899Z" fill="black"/>
<path d="M253.38 51.2803C250.62 51.2803 248.38 49.0303 248.39 46.2603C248.4 43.5003 250.64 41.2703 253.4 41.2803C256.16 41.2803 258.4 43.5303 258.39 46.2903C258.38 49.0503 256.15 51.2803 253.39 51.2803H253.38Z" fill="black"/>
<path d="M240.27 46.3602C240.25 43.6002 242.48 41.3402 245.24 41.3302C248 41.3102 250.25 43.5402 250.27 46.3002C250.29 49.0602 248.06 51.3102 245.3 51.3302H245.27C242.52 51.3302 240.29 49.1102 240.27 46.3602Z" fill="black"/>
<path d="M240.26 11.9502C240.26 9.1902 242.5 6.9502 245.26 6.9502C248.02 6.9502 250.26 9.1902 250.26 11.9502C250.26 14.7102 248.02 16.9502 245.26 16.9502C242.5 16.9502 240.26 14.7102 240.26 11.9502Z" fill="black"/>
<path d="M247.97 11.94C247.96 9.17995 250.19 6.92996 252.95 6.91996C255.71 6.90996 257.96 9.13995 257.97 11.9C257.98 14.66 255.75 16.91 252.99 16.92H252.97C250.22 16.92 247.98 14.69 247.97 11.94Z" fill="black"/>
<path d="M251.1 19.7002C248.78 18.1902 248.12 15.1002 249.63 12.7802C251.13 10.4702 254.23 9.81024 256.54 11.3202C258.86 12.8202 259.52 15.9202 258.01 18.2302C257.05 19.7102 255.45 20.5102 253.81 20.5102C252.88 20.5102 251.94 20.2502 251.1 19.7002Z" fill="black"/>
<path d="M252.51 15.2595C250.99 12.9495 251.64 9.84949 253.95 8.33949C256.26 6.81949 259.36 7.46949 260.87 9.77949C262.39 12.0795 261.74 15.1895 259.43 16.6995C258.59 17.2495 257.64 17.5195 256.69 17.5195C255.07 17.5195 253.47 16.7195 252.51 15.2595Z" fill="black"/>
<path d="M265.06 16.8399C262.85 15.1699 262.42 12.0399 264.08 9.82985C265.74 7.62985 268.88 7.18985 271.08 8.85985C273.29 10.5199 273.72 13.6599 272.06 15.8599C271.08 17.1599 269.58 17.8499 268.07 17.8499C267.02 17.8499 265.96 17.5199 265.06 16.8399Z" fill="black"/>
<path d="M266.87 21.2402C266.87 18.4802 269.11 16.2402 271.87 16.2402C274.63 16.2402 276.87 18.4802 276.87 21.2402C276.87 24.0002 274.63 26.2402 271.87 26.2402C269.11 26.2402 266.87 24.0002 266.87 21.2402Z" fill="black"/>
<path d="M266.88 46.0098C266.88 43.2498 269.11 41.0098 271.88 41.0098C274.64 41.0098 276.88 43.2398 276.88 45.9998C276.88 48.7598 274.64 50.9998 271.88 51.0098C269.12 51.0098 266.88 48.7698 266.88 46.0098Z" fill="black"/>
<path d="M76.6998 53.6201C76.5198 50.8601 78.5998 48.4801 81.3598 48.3001C84.1098 48.1101 86.4998 50.2001 86.6798 52.9501C86.8598 55.7101 84.7798 58.0901 82.0198 58.2801C81.9098 58.2801 81.7998 58.2801 81.6798 58.2801C79.0798 58.2801 76.8798 56.2501 76.6998 53.6101V53.6201Z" fill="black"/>
<path d="M76.7299 57.5295C74.2199 56.3895 73.1099 53.4195 74.2599 50.9095C75.4099 48.3995 78.3798 47.2895 80.8898 48.4395C83.3998 49.5895 84.5098 52.5495 83.3598 55.0695C82.5198 56.8995 80.6998 57.9895 78.8098 57.9895C78.1098 57.9895 77.4099 57.8395 76.7299 57.5295Z" fill="black"/>
<path d="M73.7398 29.0696C73.7298 26.3096 75.9598 24.0596 78.7198 24.0596C81.4898 24.0596 83.7298 26.2796 83.7398 29.0396C83.7498 31.7996 81.5198 34.0496 78.7498 34.0596H78.7398C75.9798 34.0596 73.7498 31.8296 73.7398 29.0696Z" fill="black"/>
<path d="M69.3398 24.8794C69.0898 22.1294 71.1098 19.6894 73.8598 19.4394C76.6098 19.1794 79.0498 21.2094 79.2998 23.9594C79.5498 26.7094 77.5298 29.1394 74.7798 29.3994C74.6198 29.3994 74.4698 29.4194 74.3098 29.4194C71.7598 29.4194 69.5798 27.4694 69.3398 24.8794Z" fill="black"/>
<path d="M67.2099 35.1099C64.5399 34.3799 62.9699 31.6399 63.6999 28.9699C64.4199 26.3099 67.1699 24.7399 69.8299 25.4599C72.4999 26.1899 74.0699 28.9399 73.3399 31.5999C72.7399 33.8299 70.7199 35.2899 68.5199 35.2899C68.0899 35.2899 67.6499 35.2299 67.2099 35.1099Z" fill="black"/>
<path d="M68.4598 58.2002C65.6998 58.2002 63.4598 55.9502 63.4698 53.1902C63.4798 50.4302 65.7198 48.1902 68.4798 48.2002C71.2398 48.2002 73.4798 50.4502 73.4698 53.2102C73.4598 55.9702 71.2298 58.2002 68.4698 58.2002H68.4598Z" fill="black"/>
<path d="M55.34 53.2899C55.32 50.5299 57.54 48.2799 60.3 48.2599C63.06 48.2399 65.32 50.4599 65.34 53.2199C65.36 55.9799 63.14 58.2399 60.38 58.2599H60.34C57.59 58.2599 55.36 56.0399 55.34 53.2899Z" fill="black"/>
<path d="M55.3398 18.8799C55.3398 16.1199 57.5798 13.8799 60.3398 13.8799C63.0998 13.8799 65.3398 16.1199 65.3398 18.8799C65.3398 21.6399 63.0998 23.8799 60.3398 23.8799C57.5798 23.8799 55.3398 21.6399 55.3398 18.8799Z" fill="black"/>
<path d="M63.0498 18.86C63.0398 16.1 65.2598 13.85 68.0198 13.84C70.7898 13.82 73.0398 16.05 73.0498 18.81C73.0598 21.57 70.8398 23.82 68.0798 23.84H68.0498C65.2998 23.84 63.0598 21.61 63.0498 18.86Z" fill="black"/>
<path d="M66.1296 26.6095C63.8296 25.0895 63.1896 21.9895 64.7196 19.6795C66.2396 17.3795 69.3396 16.7395 71.6396 18.2695C73.9496 19.7895 74.5796 22.8895 73.0596 25.1895C72.0996 26.6495 70.5096 27.4395 68.8896 27.4395C67.9396 27.4395 66.9796 27.1695 66.1296 26.6095Z" fill="black"/>
<path d="M67.58 22.1697C66.07 19.8597 66.73 16.7597 69.04 15.2597C71.36 13.7497 74.45 14.4097 75.96 16.7197C77.47 19.0297 76.81 22.1297 74.5 23.6397C73.66 24.1897 72.71 24.4497 71.77 24.4497C70.14 24.4497 68.54 23.6497 67.58 22.1697Z" fill="black"/>
<path d="M80.1401 23.7695C77.9301 22.0995 77.5001 18.9695 79.1601 16.7595C80.8201 14.5595 83.9601 14.1195 86.1601 15.7895C88.3701 17.4495 88.8001 20.5895 87.1401 22.7895C86.1601 24.0895 84.6601 24.7795 83.1501 24.7795C82.1001 24.7795 81.0401 24.4495 80.1401 23.7695Z" fill="black"/>
<path d="M81.9399 28.1699C81.9399 25.4099 84.1799 23.1699 86.9399 23.1699C89.6999 23.1699 91.9399 25.4099 91.9399 28.1699C91.9399 30.9299 89.6999 33.1699 86.9399 33.1699C84.1799 33.1699 81.9399 30.9299 81.9399 28.1699Z" fill="black"/>
<path d="M81.96 52.9297C81.96 50.1697 84.19 47.9297 86.95 47.9297C89.72 47.9297 91.96 50.1597 91.96 52.9197C91.96 55.6797 89.72 57.9297 86.96 57.9297C84.2 57.9297 81.96 55.6897 81.96 52.9297Z" fill="black"/>
<path d="M81.7 58.2896C79.09 58.2896 76.9001 56.2696 76.7201 53.6296C76.5301 50.8796 78.6101 48.4896 81.3701 48.2996L86.6301 47.9396C89.3801 47.7596 91.7701 49.8296 91.9601 52.5896C92.1501 55.3396 90.0701 57.7296 87.3101 57.9196L82.0501 58.2796C81.9301 58.2796 81.82 58.2896 81.7 58.2896Z" fill="black"/>
<path d="M123.87 48.5299C122.69 46.0299 123.75 43.0499 126.25 41.8699C128.74 40.6899 131.72 41.7499 132.91 44.2399C134.09 46.7399 133.03 49.7199 130.53 50.8999C129.84 51.2299 129.11 51.3899 128.39 51.3899C126.52 51.3899 124.73 50.3299 123.87 48.5299Z" fill="black"/>
<path d="M105.49 41.19C104.42 38.65 105.61 35.71 108.16 34.64C110.7 33.57 113.63 34.76 114.71 37.3C115.78 39.85 114.59 42.78 112.04 43.85C111.41 44.12 110.75 44.25 110.1 44.25C108.15 44.25 106.3 43.1 105.49 41.19Z" fill="black"/>
<path d="M103.66 35.28C103.17 32.56 104.97 29.96 107.69 29.47C110.41 28.98 113.01 30.78 113.5 33.5C113.99 36.22 112.19 38.8201 109.47 39.3101C109.17 39.3601 108.87 39.39 108.57 39.39C106.2 39.39 104.1 37.69 103.66 35.28Z" fill="black"/>
<path d="M107.75 33.1198C105 32.8598 102.99 30.4098 103.25 27.6598C103.52 24.9098 105.97 22.8998 108.71 23.1698C111.46 23.4398 113.47 25.8798 113.21 28.6298C112.96 31.2198 110.78 33.1498 108.23 33.1498C108.07 33.1498 107.91 33.1398 107.75 33.1198Z" fill="black"/>
<path d="M108.02 30.4798C105.27 30.2298 103.24 27.7998 103.49 25.0498C103.74 22.2998 106.17 20.2698 108.92 20.5198C111.67 20.7698 113.7 23.1998 113.45 25.9498C113.21 28.5498 111.03 30.4998 108.48 30.4998C108.33 30.4998 108.17 30.4898 108.02 30.4798Z" fill="black"/>
<path d="M107.77 27.3494C105.11 26.5894 103.57 23.8294 104.32 21.1694C105.07 18.5194 107.84 16.9694 110.49 17.7294C113.15 18.4794 114.69 21.2494 113.94 23.8994C113.32 26.0994 111.31 27.5394 109.13 27.5394C108.68 27.5394 108.22 27.4794 107.77 27.3494Z" fill="black"/>
<path d="M110.47 17.4703C108.68 15.3703 108.94 12.2103 111.05 10.4203C113.15 8.6403 116.31 8.9003 118.09 11.0003C119.88 13.1103 119.62 16.2703 117.51 18.0503C116.57 18.8503 115.43 19.2403 114.28 19.2403C112.86 19.2403 111.46 18.6403 110.47 17.4703Z" fill="black"/>
<path d="M128.3 18.4402C126.52 16.3202 126.8 13.1702 128.92 11.3902C131.04 9.62023 134.19 9.90023 135.96 12.0202C137.74 14.1302 137.46 17.2902 135.34 19.0602C134.4 19.8402 133.27 20.2302 132.13 20.2302C130.7 20.2302 129.29 19.6202 128.3 18.4402Z" fill="black"/>
<path d="M130.5 22.8499C129.89 20.1499 131.58 17.4699 134.27 16.8599C136.97 16.2499 139.64 17.9399 140.26 20.6299C140.87 23.3199 139.18 25.9999 136.49 26.6099C136.11 26.6999 135.74 26.7399 135.38 26.7399C133.09 26.7399 131.03 25.1699 130.5 22.8499Z" fill="black"/>
<path d="M133.32 27.4896C130.56 27.2796 128.5 24.8796 128.71 22.1296C128.93 19.3696 131.33 17.3096 134.08 17.5196C136.83 17.7296 138.9 20.1396 138.68 22.8896C138.48 25.5096 136.29 27.5096 133.71 27.5096C133.58 27.5096 133.45 27.5096 133.32 27.4896Z" fill="black"/>
<path d="M122.41 22.6697C121.53 20.0497 122.95 17.2197 125.57 16.3497C128.19 15.4797 131.02 16.8997 131.89 19.5197C132.77 22.1397 131.35 24.9697 128.73 25.8397C128.2 26.0197 127.67 26.0997 127.15 26.0997C125.05 26.0997 123.1 24.7697 122.41 22.6697Z" fill="black"/>
<path d="M117.63 18.3401C117.31 15.6001 119.28 13.1101 122.02 12.7901C124.76 12.4701 127.25 14.4301 127.57 17.1801C127.89 19.9201 125.92 22.4001 123.18 22.7201C122.98 22.7501 122.79 22.7601 122.59 22.7601C120.09 22.7601 117.93 20.8801 117.63 18.3401Z" fill="black"/>
<path d="M116.34 32.0498C113.59 31.7898 111.57 29.3598 111.82 26.6098C112.08 23.8598 114.51 21.8298 117.26 22.0898C120.01 22.3398 122.03 24.7798 121.78 27.5298C121.54 30.1198 119.36 32.0698 116.81 32.0698C116.65 32.0698 116.5 32.0598 116.34 32.0498Z" fill="black"/>
<path d="M120.27 45.6899C117.62 44.9099 116.11 42.1299 116.9 39.4799C117.68 36.8299 120.46 35.3199 123.11 36.0999C125.76 36.8899 127.27 39.6699 126.49 42.3199C125.84 44.4899 123.85 45.8999 121.69 45.8999C121.22 45.8999 120.74 45.8299 120.27 45.6899Z" fill="black"/>
<path d="M126.24 41.0196C123.61 40.1896 122.15 37.3796 122.98 34.7496C123.82 32.1196 126.63 30.6596 129.26 31.4896C131.89 32.3196 133.35 35.1296 132.52 37.7696C131.84 39.8996 129.87 41.2596 127.75 41.2596C127.25 41.2596 126.74 41.1796 126.24 41.0196Z" fill="black"/>
<path d="M135.48 41.3294C132.71 41.2994 130.5 39.0394 130.52 36.2794C130.54 33.5194 132.8 31.2994 135.56 31.3294C138.33 31.3494 140.54 33.6094 140.52 36.3694C140.49 39.1194 138.26 41.3294 135.52 41.3294H135.48Z" fill="black"/>
</g>
</g>
<defs>
<clipPath id="clip0_2559_7725">
<rect width="386.27" height="58.34" fill="white"/>
</clipPath>
</defs>
</svg>
