<svg width="514" height="414" viewBox="0 0 514 414" fill="none" xmlns="http://www.w3.org/2000/svg">
<g clip-path="url(#clip0_2554_4464)">
<mask id="mask0_2554_4464" style="mask-type:luminance" maskUnits="userSpaceOnUse" x="0" y="0" width="514" height="414">
<path d="M513.2 0H0V413.47H513.2V0Z" fill="white"/>
</mask>
<g mask="url(#mask0_2554_4464)">
<path d="M282.28 373.16H281.82C281.13 372.81 280.64 373.03 279.62 372.95C275.04 372.57 270 368.5 270 363.26L270.02 286.02C270.02 280.62 275.57 276.52 280.31 276.43C283.1 276.38 285.16 276.33 287.73 276.46C293.21 276.74 297.57 281.16 297.94 286.69V316.96L285.64 317L285.62 289.04C284.31 288.89 283.57 288.84 282.22 288.91V360.44C283.43 360.62 284.46 360.61 285.63 360.41V332.52H297.93V361.65C298.1 367.17 294.45 371.77 289.04 372.84C286.77 373.29 284.41 372.5 282.27 373.16" fill="#90BEFB"/>
<path d="M485.79 161.35V173.45C485.56 173.68 485.06 173.9 484.7 173.9H477.88V202.45L485.56 202.5V215.59C478.61 215.36 471.87 215.81 464.89 215.26V120.24C464.89 119.02 465.36 119.05 465.56 119.05H485.57V132.13L477.88 132.18V160.77H484.71C485.11 160.77 485.59 161.04 485.8 161.34" fill="#90BEFB"/>
<path d="M505.36 78.0002L505.34 85.2102H512.11C512.47 85.2102 512.96 85.4202 513.2 85.6402V98.0402C513.06 98.1202 512.54 98.3202 512.26 98.3202L505.32 98.3502V105.41L512.7 105.48L513.2 106.13V118.28C512.86 118.52 512.36 118.69 511.84 118.69H493.16C492.68 118.69 492.3 118.31 492.3 117.78V64.9501L512.07 64.9102C512.47 64.9102 512.95 65.0402 513.21 65.1502V77.7902C512.95 77.8602 512.42 77.9702 512.11 77.9702L505.37 77.9902L505.36 78.0002Z" fill="#90BEFB"/>
<path d="M495.81 278.17C495.56 279.17 495.61 279.98 495.84 280.91H502.6C502.82 280.91 503.36 281.13 503.5 281.2V293.66C502.97 293.98 502.29 293.99 501.6 293.99L495.64 294.04L495.75 296.77H502.6C502.81 296.77 503.36 296.99 503.5 297.06V309.46C503.36 309.63 502.9 309.89 502.59 309.89L482.59 309.84V265.05L502.76 265.03C502.97 265.03 503.47 265.29 503.5 265.32V277.73C503.45 277.8 503.02 278.12 502.84 278.12L495.8 278.15L495.81 278.17Z" fill="#90BEFB"/>
<path d="M273 217.22V187.85L285.98 187.82L285.89 219.83C285.87 225.57 280.88 230.04 275.49 230.31C272.77 230.44 270.37 230.45 267.75 230.31C261.75 229.99 257.24 224.91 257.25 218.92L257.38 139.15C257.38 133.92 262.36 129.47 267.17 129.14C270.3 128.92 272.93 128.93 275.95 129.14C281.55 129.51 285.8 134.46 286 140.06L285.98 171.51H273.01L273 142.16C271.99 142.06 271.17 142.06 270.17 142.18V217.19L273 217.23V217.22Z" fill="#90BEFB"/>
<path d="M455.56 202.23L448.22 257.07L447.37 262.02L446.64 267.81L445.74 275.78L438.11 333.07H423.54L415.92 275.9L414.92 267.13L414.1 260.67L413.45 257.34L406.08 202.24L424.83 202.22L425.33 206.52L427.44 223.44L429.83 242.65L430.78 250.63C431.39 247.34 431.6 244.32 432.01 241.09L434.26 223.19L436.57 204.61L436.86 202.22H455.59L455.56 202.23Z" fill="#90BEFB"/>
<path d="M456.15 87.7C455.61 89.03 455.29 90.11 455.01 91.35L453.49 98.08L446.06 127.25L431.48 127.23L423.89 98.02C423.12 94.64 422.55 91.5 421.37 88.24L413.87 59.54L432.6 59.52L438.68 84.58L441.57 72.59L444.64 59.54H463.38L456.18 87.71L456.15 87.7Z" fill="#90BEFB"/>
<path d="M138.8 298.02L138.83 311.08L117.98 311.06V229.79L130.08 229.71C130.55 229.71 130.97 230.08 130.97 230.61V297.96L138.8 298.02Z" fill="#90BEFB"/>
<path d="M139.54 174.7C139.54 176.32 139.42 177.44 139.5 178.9L147.43 179L147.36 191.94L126.58 191.92V115.4L139.41 115.38C139.47 116.04 139.56 116.6 139.56 117.13L139.52 126.8V130.53L139.53 174.71L139.54 174.7Z" fill="#90BEFB"/>
</g>
<path d="M151.03 74.4002L151.04 86.7902L130.66 86.7802L130.67 49.6702L143.06 49.6602L143.07 74.3302L151.03 74.4002Z" fill="#90BEFB"/>
<mask id="mask1_2554_4464" style="mask-type:luminance" maskUnits="userSpaceOnUse" x="0" y="0" width="514" height="414">
<path d="M513.2 0H0V413.47H513.2V0Z" fill="white"/>
</mask>
<g mask="url(#mask1_2554_4464)">
<path d="M69.2601 223.16H66.4201V120.37H69.2601V223.16ZM82.1901 118.06C82.1901 112.36 77.2701 107.66 71.9901 107.35C68.9101 107.17 66.5501 107.14 63.4201 107.37C58.7001 107.73 53.6001 112.13 53.6001 117.36V226.04C53.5901 231.42 58.7201 235.83 63.6301 236.16C66.6201 236.36 68.8101 236.35 71.9401 236.16C77.3801 235.84 82.2001 231.06 82.2001 225.35V118.04L82.1901 118.06Z" fill="#90BEFB"/>
<path d="M44.1499 89.9498H41.4099V46.5998H44.1499V89.9498ZM57.0699 44.2498C57.0599 38.5498 52.0799 33.8098 46.6599 33.5598C43.8799 33.4298 41.5599 33.4198 38.7999 33.5598C33.2199 33.8398 28.3699 38.6998 28.3599 44.4898V92.0798C28.3599 97.7198 32.8899 102.64 38.3899 102.97C41.4099 103.15 44.2799 103.22 47.3599 102.94C53.2799 102.39 57.1699 97.0998 57.1599 91.3798L57.0699 44.2498Z" fill="#90BEFB"/>
<path d="M0 341.26V226.97C0.06 226.94 0.34 226.58 0.38 226.41C1.51 221.31 6.11 217.53 11.36 217.5L17.14 217.46C23.05 217.42 28.79 221.82 28.8 228.15L28.89 270.34C28.6 270.5 28.06 270.73 27.83 270.73L15.9 270.66V230.66C14.83 230.59 14.09 230.58 13.16 230.71V337.44C14.17 337.55 15.05 337.56 15.89 337.38V297.64L28.88 297.62L28.76 340.49C28.74 345.82 23.87 350.23 18.94 350.55C15.81 350.75 13.09 350.73 10.06 350.55C5.3 350.27 1.47 346.4 0.37 341.86C0.33 341.68 0.08 341.33 0.01 341.28" fill="#90BEFB"/>
<path d="M45.6202 400.829C46.7502 401.049 47.7002 401.019 48.9102 400.849V383.599H61.2402L61.2102 401.819C61.6102 408.579 56.1802 413.789 49.5802 413.439C47.1802 413.309 44.8902 413.599 42.4502 413.289C37.1802 412.629 33.1602 407.939 33.1602 402.529V359.769C33.1502 354.109 37.2602 349.149 42.9402 348.759C45.7702 348.559 48.5302 348.599 51.3802 348.759C56.6002 349.049 60.7302 353.419 61.2002 358.579L61.2202 378.469H48.9102L48.8902 361.089L45.6102 361.039V400.829H45.6202Z" fill="#90BEFB"/>
</g>
<path d="M229.39 202.91L229.41 231.46L237.25 231.5L237.23 244.51L216.41 244.49V148.07L237.24 148.04L237.25 161.07L229.39 161.22L229.4 189.74L237.24 189.79L237.26 202.83L229.39 202.91Z" fill="#90BEFB"/>
<mask id="mask2_2554_4464" style="mask-type:luminance" maskUnits="userSpaceOnUse" x="0" y="0" width="514" height="414">
<path d="M513.2 0H0V413.47H513.2V0Z" fill="white"/>
</mask>
<g mask="url(#mask2_2554_4464)">
<path d="M237.36 89.5398L229.47 89.6198V96.6998L236.57 96.7098C236.88 96.7098 237.36 97.1498 237.36 97.5198L237.38 108.98C237.4 109.21 236.99 109.93 236.72 109.93L216.41 109.89V56.2598C217.83 56.0598 218.91 56.2198 220.13 56.2198L237.36 56.2398V69.1798L229.54 69.2498C229.37 71.5898 229.37 73.9598 229.47 76.4498L237.34 76.5098L237.37 89.5298L237.36 89.5398Z" fill="#90BEFB"/>
</g>
<path d="M237.06 355.67L229.21 355.78L229.26 358.48L237.08 358.55L237.09 371.6L216.15 371.61V326.77L237.08 326.78L237.06 339.84L229.19 339.92L229.31 342.62L237.08 342.69L237.06 355.67Z" fill="#90BEFB"/>
<mask id="mask3_2554_4464" style="mask-type:luminance" maskUnits="userSpaceOnUse" x="0" y="0" width="514" height="414">
<path d="M513.2 0H0V413.47H513.2V0Z" fill="white"/>
</mask>
<g mask="url(#mask3_2554_4464)">
<path d="M310.57 108.89L298.43 108.94C298.27 108.94 297.91 108.87 297.78 108.82C297.62 108.75 297.48 108.31 297.48 108V36.5201L291.25 36.4601V23.3901H316.83L316.85 36.4301L310.58 36.5201V108.89H310.57Z" fill="#90BEFB"/>
<path d="M329.44 298.13C329.52 296.72 329.47 295.56 329.47 294.29V279.15V275.45L329.43 261.16L323.36 261.14C323.26 260.24 323.15 259.34 323.16 258.45L323.21 248.05L348.76 248.03L348.79 261.09L342.45 261.19V277.54L342.43 317.25L329.43 317.23V298.12L329.44 298.13Z" fill="#90BEFB"/>
<path d="M324.14 191.33C323.08 191.33 322.12 191.4 320.91 191.15V163.37L314.65 163.26L314.68 150.21H340.23L340.25 163.26L334.01 163.34L333.98 191.23L324.14 191.32V191.33Z" fill="#90BEFB"/>
</g>
<path d="M387.26 234.89H374.17V316.06H387.26V234.89Z" fill="#90BEFB"/>
<path d="M387.26 100.63H374.17V177.24H387.26V100.63Z" fill="#90BEFB"/>
<path d="M399.8 26.02L399.78 37.13L386.93 37.11V0H399.33V24.16C399.65 24.77 399.8 25.36 399.8 26.02Z" fill="#90BEFB"/>
<path d="M190.91 373.66V386.72L169.96 386.69V273.64L182.57 273.6C182.88 273.6 183.06 274.42 183.06 274.86V373.59L190.92 373.67L190.91 373.66Z" fill="#90BEFB"/>
<path d="M192.45 161.37L172.23 161.4C171.87 161.4 171.5 160.93 171.5 160.48L171.52 100.57L184.59 100.61V148.25L192.43 148.31L192.45 161.37Z" fill="#90BEFB"/>
<path d="M212.23 9.79004L212.33 20.17C212.33 21.03 212.26 21.9 212.16 22.78H191.52V1.04004H204.4L204.41 9.76004L212.22 9.79004H212.23Z" fill="#90BEFB"/>
</g>
<defs>
<clipPath id="clip0_2554_4464">
<rect width="513.2" height="413.47" fill="white"/>
</clipPath>
</defs>
</svg>
