<svg width="223" height="75" viewBox="0 0 223 75" fill="none" xmlns="http://www.w3.org/2000/svg">
<g clip-path="url(#clip0_2553_11689)">
<mask id="mask0_2553_11689" style="mask-type:luminance" maskUnits="userSpaceOnUse" x="0" y="0" width="223" height="75">
<path d="M223 0H0V74.07H223V0Z" fill="white"/>
</mask>
<g mask="url(#mask0_2553_11689)">
<path d="M214.97 36.2498C214.74 36.4798 214.38 36.5498 214.01 36.6398H182.51C182.02 36.6398 181.79 36.0798 181.85 35.7198L182.05 34.5698C182.12 34.1698 182.25 33.7498 182.28 33.3398C182.43 31.1698 182.87 31.3298 183.17 29.5598C183.28 28.9198 183.53 28.4098 183.77 27.8198L184.27 26.5898C184.77 25.3798 185.38 24.2298 186.15 23.1898L187.09 21.9298C188.64 19.8398 190.38 18.4698 192.69 17.3198C192.95 17.1898 193.24 16.9898 193.51 16.9098L195.22 16.4198C195.85 16.2398 196.47 15.9598 197.14 15.9298C198.32 15.8898 200.58 15.8598 201.72 15.9898C202.29 16.0598 202.85 16.2098 203.39 16.4198C204.01 16.6598 204.75 16.6798 205.32 16.9798L207.02 17.8698C207.72 18.2298 208.28 18.8398 208.92 19.2998C209.15 19.4598 209.32 19.6798 209.51 19.8898C210.01 20.4498 210.55 20.9898 210.97 21.6098L211.84 22.8598L212.35 23.8998C212.79 24.7798 213.59 26.5298 213.81 27.4398L214.16 28.8798L214.45 29.9998C214.58 30.5198 214.64 31.0298 214.68 31.5698L214.74 32.3598L214.97 33.9898C215.03 34.3898 215.03 34.7598 215.06 35.1998C215.08 35.5598 215.23 35.9698 214.95 36.2498M222.99 37.4498L222.67 34.8498C222.6 34.2398 222.4 33.6398 222.24 33.0398C222 32.1198 221.98 31.1498 221.66 30.2698L220.9 28.1398C220.65 27.4498 220.34 26.8098 220.04 26.1298L219.73 25.4298C219.65 25.2498 219.55 25.0798 219.45 24.9098C218.97 24.0498 218.55 23.1598 217.96 22.3598L217.34 21.5498C217.03 21.1398 216.61 20.7798 216.26 20.3898C215.87 19.9498 215.43 19.5598 214.98 19.1798L213.88 18.2398L213.22 17.7198C212.66 17.2798 212.07 16.9698 211.45 16.6098L210.37 15.9898L209 15.4798L208.13 15.1198C207.46 14.8398 206.73 14.8198 206.01 14.6398C205.14 14.4298 204.28 14.1598 203.36 14.1198L201.88 14.0598H198.05C197.05 14.0398 196.11 14.4198 195.15 14.6198L193.6 14.9498C192.9 15.0998 192.27 15.3598 191.63 15.6298L190.2 16.2398L188.64 17.0098C187.98 17.3298 187.42 17.7998 186.82 18.2298C185.52 19.1698 184.32 20.1598 183.13 21.2298C182.24 22.0398 181.74 22.6198 181.01 23.5698C180.38 24.3898 178.23 27.3498 177.86 28.1098L177.09 29.6798C176.5 30.8898 176.74 30.8798 176.06 32.2398C175.89 32.5698 175.83 32.9598 175.72 33.3198L175.42 34.3498C175.28 34.8198 175.14 35.2798 175.06 35.7698C174.99 36.1798 174.97 36.5998 174.9 37.0198L174.6 38.8898L174.31 40.4498L174.26 43.0098C174.26 43.5998 174.26 44.1398 174.26 44.7298L174.32 47.1898C174.34 47.8598 174.86 49.6398 174.89 50.4198C174.93 51.6398 175.01 52.1698 175.43 53.3098C175.94 54.6798 175.61 54.3098 176.4 56.2398L177.17 58.1198C177.52 58.9698 178.05 59.7098 178.53 60.4898L178.8 60.9298C179.85 62.6098 181.02 64.0998 182.43 65.4898C182.81 65.8698 183.16 66.2598 183.59 66.5898L184.88 67.5598L186.16 68.4698L187.22 69.1898C188.12 69.7998 188.58 69.8698 189.62 70.3798C190.11 70.6198 190.64 70.7498 191.18 70.9198C191.51 71.0198 191.87 71.2798 192.21 71.3598L195.17 72.0698C196.62 72.4098 196.92 72.2498 198.35 72.4098L199.06 72.4898C199.54 72.5498 199.99 72.5098 200.48 72.4898L201.94 72.4398L202.73 72.3798L204.2 72.2398L204.99 72.1798C205.55 72.1398 206.08 72.0698 206.61 71.8998C207.21 71.7098 207.8 71.5698 208.42 71.4498C209.12 71.2998 209.78 71.0598 210.46 70.8598C210.72 70.7898 211.03 70.7598 211.28 70.6598L212.3 70.2698L212.98 70.0198C213.33 69.8898 213.66 69.7598 214 69.6198L215.71 68.9098C216.44 68.5998 217.13 68.2798 217.79 67.8798L219.02 67.1398C219.72 66.7098 220.02 66.1298 219.98 65.3698L219.92 64.3498C219.85 63.2298 220.38 62.4798 220.27 61.4698C220.25 61.3298 219.97 61.1798 219.82 61.2398C219.44 61.3898 219.19 61.6398 218.92 61.9198L217.84 63.0098L216.88 63.9298L216.34 64.4098C215.64 65.0298 214.86 65.5898 214.06 66.0898L212.63 66.9898C211.78 67.5198 210.88 67.9498 209.98 68.3998C209 68.8898 208.03 69.1498 206.99 69.4198C205.65 69.7598 204.37 69.9798 202.99 70.0898C202.33 70.1398 201.67 70.0898 201.02 70.0898C199.42 70.0698 197.98 69.8298 196.48 69.3098C194.53 68.6298 192.7 67.7398 191.19 66.3198L189.34 64.5898C189.11 64.3698 188.88 64.1698 188.68 63.9198L187.93 62.9498C187.61 62.5298 187.27 62.0898 186.99 61.6498L186.11 60.2398C185.77 59.6898 185.43 59.0998 185.15 58.5098L184.41 56.9798C184.17 56.4898 184.03 55.9598 183.82 55.4498L183.3 54.1698L182.86 52.4098C182.68 51.6998 182.39 51.1098 182.34 50.3598C182.32 50.0398 182.26 49.6698 182.2 49.3398L181.85 47.4998C181.77 47.0398 181.66 46.6198 181.67 46.1398C181.67 45.9098 181.63 45.6598 181.62 45.4398L181.56 43.0598C181.53 41.8798 181.42 40.8098 181.64 39.6498C181.89 38.3198 183.48 38.8198 183.8 38.8198H221.39C221.83 38.9398 222.29 38.9898 222.61 38.6698C222.9 38.3698 223.02 37.8498 222.97 37.4498" fill="#90BEFB"/>
<path d="M165.07 64.9501L164.99 67.6201C164.98 68.0901 164.49 68.4501 164.12 68.6701L162.79 69.4601C162.19 69.8201 161.53 70.1401 160.87 70.4101L158.68 71.3301L156.82 72.0501C156.53 72.1601 156.18 72.2501 155.87 72.3401L154.9 72.6201L153.75 72.9501C153.17 73.1201 152.55 73.1801 151.97 73.3701C151.31 73.5801 150.68 73.7001 150 73.7501L149.13 73.8101L147.66 73.9501L146.95 74.0101L145.25 74.0601C145.03 74.0601 144.83 74.0901 144.62 74.0601L143.68 73.9701C143.44 73.9501 143.15 73.8901 142.92 73.8901C142.03 73.8801 141.21 73.8301 140.35 73.6201L137.39 72.9201C137.06 72.8401 136.71 72.6301 136.39 72.5201L135.05 72.0501L133.36 71.3101C132.84 71.0801 132.32 70.7501 131.85 70.4201L130.33 69.3701L129.22 68.5301C128.28 67.8201 127.56 67.1201 126.77 66.2301C126.45 65.8701 126.2 65.5301 125.84 65.2001C125.68 65.0601 125.58 64.8401 125.44 64.6601L124.63 63.6201L123.31 61.5001C122.73 60.5701 122.2 59.6401 121.84 58.6101C121.55 57.7801 121.16 57.2201 121.01 56.5701C120.66 55.0401 120.35 54.6301 120.09 53.2801C119.89 52.2401 120.09 52.1401 119.74 50.5201C119.66 50.1401 119.37 48.6701 119.37 48.3801V36.8001C119.37 36.5401 119.63 35.2001 119.71 34.8601C120.16 32.9301 119.84 32.6101 120.37 30.8401C120.55 30.2201 120.83 29.6401 120.92 29.0001C121 28.4401 121.3 27.9901 121.49 27.4701C122.06 25.9401 122.79 24.5501 123.65 23.1701L124.44 21.9201C125.03 20.9801 126.41 19.3601 127.21 18.5401L128.17 17.5601C128.64 17.0801 129.2 16.7001 129.74 16.3101L131.2 15.2601L132.55 14.3601C132.89 14.1401 133.23 13.9501 133.62 13.8101C134.11 13.6301 134.55 13.4101 135.02 13.1901C135.4 13.0201 135.81 12.9201 136.21 12.8001C136.6 12.6801 137.01 12.4001 137.4 12.3101L140.25 11.6401C140.68 11.5401 141.15 11.4201 141.57 11.4001L142.92 11.3401L143.92 11.2301C144.57 11.1601 145.17 11.1701 145.81 11.2001L147.26 11.2601L148.05 11.3301L149.37 11.4601L150.24 11.5301C150.6 11.5601 150.98 11.5901 151.34 11.7001C152.23 11.9701 153.07 12.1401 153.98 12.3501C154.35 12.4301 154.74 12.5901 155.11 12.6901L155.91 12.9101C156.33 13.0201 156.75 13.1601 157.14 13.3001L158.79 13.9201L160.88 14.7901C161.63 15.1101 161.48 15.1401 162.17 15.4301C163.33 15.9301 162.96 15.9401 164.02 16.4701C165.61 17.2601 164.84 18.3301 165.09 20.2301C165.16 20.7101 165.67 22.1901 165.19 22.4001C164.67 22.6301 163.8 21.5101 163.37 21.0901C162.43 20.1901 161.56 19.2601 160.49 18.5101L159.31 17.6701C158.94 17.4101 158.48 17.2501 158.15 16.9701C157.71 16.6001 157.22 16.4001 156.71 16.1301C155.48 15.4701 154.25 14.7901 152.88 14.4701L151.55 14.1501C151.17 14.0601 150.79 13.9501 150.41 13.8801C149.81 13.7701 147.66 13.5201 147.12 13.5501L146.04 13.6201C144.55 13.7201 143.15 13.8201 141.75 14.3401C141.31 14.5001 140.84 14.6101 140.43 14.8101L138.64 15.6901C138.29 15.8601 136.48 17.1701 136.13 17.5101L134.23 19.3001C133.44 20.0401 132.87 20.9801 132.22 21.8701C131.9 22.3001 130.31 24.9901 130.11 25.4601C129.85 26.0801 129.53 26.6501 129.29 27.2701L128.41 29.5801L127.95 31.4101C127.84 31.8401 127.6 32.1901 127.56 32.6601C127.35 35.0401 126.79 36.1801 126.73 38.6501L126.68 40.8301C126.67 41.3001 126.63 41.7301 126.68 42.2001C126.71 42.4801 126.71 42.7801 126.68 43.0601C126.63 43.5501 126.68 44.0001 126.68 44.5001L126.73 46.6001L126.79 47.8501C126.82 48.4301 126.98 48.9801 127.09 49.5601C127.26 50.4901 127.43 51.3901 127.52 52.3201C127.57 52.8601 127.71 53.2901 127.92 53.7901C128.15 54.3301 128.15 54.9801 128.36 55.5401L129.09 57.4401C129.43 58.3301 130.18 59.9901 130.65 60.7901L131.66 62.5101C132.06 63.1901 133.03 64.5701 133.55 65.1501C133.73 65.3401 133.89 65.6201 134.07 65.7901L135.9 67.4901C136.93 68.4601 138.12 69.2501 139.38 69.9101C140.28 70.3901 141.17 70.7101 142.13 71.0001C143.26 71.3401 143.81 71.5301 145.05 71.5801L146.49 71.6401C146.72 71.6401 146.92 71.6501 147.15 71.6401L148.66 71.5701C149.93 71.5201 151.11 71.2201 152.32 70.8901C152.75 70.7701 153.21 70.7201 153.67 70.5401C154.44 70.2401 155.16 69.9401 155.86 69.5601L157.63 68.6101C158.11 68.3501 158.5 67.9601 159.01 67.7301C159.23 67.6301 159.46 67.4401 159.67 67.3001C160.52 66.7301 161.3 66.1201 162.05 65.4001L162.8 64.6701L164.01 63.4701C164.27 63.2101 164.85 62.5801 165.28 62.8301C165.66 63.0501 165.11 64.6001 165.1 64.9401" fill="#90BEFB"/>
<path d="M104.48 61.84C104.11 62.18 103.7 62.44 103.26 62.72L101.37 63.94C101.02 64.17 100.62 64.41 100.25 64.6L98.3296 65.57C98.0296 65.72 97.6196 65.79 97.3396 65.99C96.8696 66.32 96.4096 66.5 95.8396 66.62C95.5196 66.69 95.2096 66.93 94.8996 67.06C94.3696 67.29 91.7696 67.99 91.0496 68.12H87.2196C85.8196 67.69 84.5096 67.12 83.3596 66.2C82.8996 65.84 82.4396 65.42 82.1496 64.92L81.3796 63.61C81.0596 63.06 80.8796 62.5 80.6696 61.93C80.3896 61.17 80.0996 60.42 80.0696 59.58C80.0296 58.5 80.0296 57.44 80.0696 56.37C80.0896 55.87 80.2196 55.37 80.4196 54.92C80.7196 54.26 80.8896 53.54 81.2496 52.94L82.0896 51.53C82.2096 51.33 82.4996 51.13 82.6096 50.97C83.1296 50.24 83.7496 49.74 84.4696 49.22C85.7296 48.32 87.7396 47.23 89.2296 46.74L91.7896 45.89L93.3696 45.5L95.2696 45.01L96.4996 44.74C96.9396 44.64 97.4296 44.63 97.8996 44.57C98.8296 44.47 99.7096 44.28 100.63 44.12C101.56 43.95 102.47 43.9 103.43 43.79C103.83 43.75 104.32 43.92 104.51 44.26C104.86 44.91 104.76 45.6 104.69 46.29C104.57 47.47 104.91 47.87 104.67 49.02V59.76C104.85 60.49 104.74 61.13 104.46 61.83M113.03 68.26C112.64 68.05 111.81 66.89 111.67 66.61C111.44 66.09 111.13 65.56 111.1 65.01L111.03 63.91L110.99 59.86C110.99 59.27 110.86 58.74 111.02 58.13L110.98 36.84C110.98 34.65 110.88 32.52 110.98 30.36C111.08 28.14 110.79 26.57 110.42 24.4C110.17 22.94 109.89 22.09 109.29 20.77C108.86 19.83 108.42 18.96 107.77 18.15L107 17.2C106.6 16.7 106.07 16.31 105.54 15.94C105.27 15.75 105 15.5 104.73 15.37L103.62 14.81C102.39 14.19 100.7 13.89 99.3096 13.67C99.0196 13.62 98.6696 13.52 98.3796 13.52H95.6596C95.4996 13.52 95.1996 13.55 95.0396 13.59L91.2896 14.44C90.7696 14.56 90.3196 14.81 89.8196 14.99L89.1296 15.23C87.8496 15.67 88.1196 15.75 86.7796 16.35C86.5496 16.45 86.3096 16.68 86.0896 16.82L83.8496 18.16C83.5196 18.35 83.2296 18.6 82.8896 18.76C82.6896 18.85 82.4596 18.97 82.2896 19.1C81.3996 19.8 80.6996 20.17 79.6996 20.89C79.3296 21.16 78.9796 21.46 78.5696 21.69C77.4596 22.31 78.1496 23.62 78.2496 24.5C78.3796 25.7 78.5496 25.99 78.6396 27.07L78.7196 28.01C78.7496 28.3 78.8596 28.65 79.0596 28.87C79.4496 28.73 79.8396 28.44 80.0196 28.05C80.4796 27.08 81.0896 26.25 81.6596 25.34L82.4396 24.08L83.4296 22.66C83.7396 22.21 84.0396 21.78 84.3996 21.37C84.6896 21.03 84.9496 20.68 85.2696 20.37L86.7896 18.94C87.1396 18.61 87.5796 18.35 87.9896 18.11C88.2496 17.96 88.5496 17.87 88.8396 17.77C89.2096 17.64 89.5896 17.29 89.9796 17.22C91.0796 17.02 92.1196 16.9 93.2196 16.79C93.7396 16.74 94.2696 16.81 94.7796 16.86L95.9096 16.97C96.7996 17.06 97.5696 17.25 98.3896 17.62C98.8496 17.83 99.3096 18.02 99.7396 18.3C100.71 18.95 101.47 19.71 102.13 20.67L102.8 21.64C103.15 22.16 103.54 22.72 103.64 23.29C103.89 24.58 104.38 24.7 104.52 26.9L104.6 28.15C104.62 28.46 104.68 28.79 104.68 29.1L104.71 39.74C104.71 40.32 104.9 40.83 104.59 41.38C104.48 41.58 104.26 41.85 104 41.86L102.66 41.94C100.89 42.05 99.6696 42.49 97.5496 42.59C96.7496 42.62 95.9896 42.88 95.2196 43.04L94.0496 43.28C93.7296 43.35 93.3596 43.39 93.0096 43.41C92.2196 43.46 91.5196 43.77 90.7596 43.96C89.9896 44.15 89.2096 44.2 88.4696 44.49C87.8696 44.73 87.2696 44.88 86.6196 45C86.1496 45.08 85.7296 45.33 85.2996 45.53C84.3396 45.98 84.5896 45.59 83.1196 46.4C82.5596 46.71 82.2096 46.7 81.5996 47.05L80.4496 47.72C79.1996 48.45 77.8196 49.46 76.8096 50.51C76.4996 50.83 76.2896 51.18 75.9496 51.47C75.6696 51.72 75.5296 52.15 75.3096 52.45C74.5696 53.47 74.1996 54.67 73.9196 55.9C73.1596 59.22 73.3896 59.62 73.9896 62.9C74.0796 63.41 74.3096 63.85 74.5196 64.33C74.6996 64.77 74.7796 65.29 75.0396 65.67C75.3796 66.17 75.6596 66.66 76.0296 67.1L76.6996 67.9C76.9096 68.15 77.0496 68.37 77.3496 68.53C77.5596 68.64 77.7196 68.82 77.9196 68.97C81.6696 71.69 85.4496 72.09 89.9896 71.46C90.8596 71.34 91.7096 71.09 92.5796 70.87C92.9996 70.77 93.4096 70.49 93.8296 70.35C94.8096 70.03 95.7896 69.47 95.8796 69.44C96.4496 69.27 96.8896 68.97 97.4096 68.7L98.1796 68.3L99.4996 67.43L101.08 66.43L102.14 65.64C102.48 65.38 102.83 65.21 103.15 64.92C103.4 64.68 103.69 64.46 104.04 64.4C105.05 64.23 104.78 66.47 104.73 67.03C104.59 68.44 104.83 68.33 104.64 69.53C104.6 69.78 104.69 70.17 104.85 70.35C104.98 70.51 105.34 70.71 105.6 70.68L108.3 70.39L109.39 70.32L110.33 70.25L112.04 70.2C112.58 70.18 113.07 70.16 113.6 70.2C114.28 70.25 114.9 70.23 115.61 70.22L115.63 69.37C114.61 69.05 114.01 68.78 113.05 68.27" fill="#90BEFB"/>
<path d="M67.5404 17.2698L67.4904 20.5598C67.4904 20.9798 67.1904 21.4998 66.7104 21.4998L63.1504 21.5498L61.9804 21.5998C61.5804 21.6198 61.2004 21.6298 60.8104 21.6598L60.0204 21.7198C58.0604 21.8798 58.4404 22.1098 57.3504 22.3198C55.6304 22.6698 56.0904 22.6698 54.6704 23.2298C53.5704 23.6598 52.4804 24.1798 51.4904 24.8098L49.6204 25.9998C49.2104 26.2598 48.7304 26.6298 48.7304 27.2398V62.3798C48.7304 62.9298 49.3104 66.2298 49.7004 66.7398C50.0404 67.1798 50.4504 67.5398 50.8704 67.9198C51.2804 68.2998 51.8704 68.4298 52.3904 68.6398L53.0504 68.9099C53.9304 69.2699 54.5604 69.2898 55.4204 69.6698C55.4404 69.7298 55.4604 69.7898 55.4704 69.8098C54.9704 70.0798 54.6104 70.1798 54.1004 70.1498L52.8604 70.0898L51.3804 70.0098L50.2104 69.9598C49.7704 69.9398 49.3904 69.9298 48.9604 69.9498L48.3304 69.9698H43.9904C43.7904 69.9698 43.6104 69.9698 43.4104 69.9698L39.7604 70.0198L38.5904 70.0998L37.2704 70.1599C36.8904 70.1799 36.5104 70.1399 36.2604 69.7299C37.6304 69.2199 40.4204 68.4998 41.1904 67.3098L41.8304 66.3098C42.3004 65.5798 42.5004 64.8098 42.5304 63.9198L42.5904 62.2798C42.6104 61.6898 42.6504 61.1498 42.5904 60.5598C42.5004 59.6298 42.6404 59.2798 42.5904 58.2198C42.5504 57.1798 42.5404 56.1498 42.5904 55.1198C42.6104 54.6798 42.6404 54.2898 42.5904 53.8498C42.5404 53.3898 42.5304 52.8598 42.5904 52.3998C42.6504 51.9498 42.5704 51.5698 42.5704 51.1198V37.8298V36.6298V23.9598C42.5704 23.5898 42.6704 23.2798 42.5704 22.9198C42.4004 22.3098 42.5504 21.6798 42.4204 21.0598C42.2904 20.3798 41.5404 19.0398 41.1204 18.4098C40.8404 17.9998 40.3804 17.6098 39.9704 17.3298C39.6804 17.1398 39.3204 17.0198 39.0004 16.8798C38.4804 16.6498 37.9604 16.3398 37.4004 16.2598C36.9604 16.1898 35.7604 16.1098 35.7404 15.4898C35.7204 14.7698 37.3004 15.0398 37.4004 15.0498C38.7604 15.0798 40.0804 15.0898 41.4304 15.0498C41.8104 15.0398 42.1804 14.9598 42.5404 15.0498C42.6704 15.0798 42.9504 14.9998 43.0804 14.9998L45.5004 14.9698C46.2904 14.9698 46.8204 14.8398 47.5804 14.7098C47.9104 14.6498 48.3904 14.7798 48.5604 15.0898C48.8104 15.5198 48.7204 15.9698 48.7104 16.4098L48.6604 22.7498C48.6604 22.8598 48.4304 24.0098 49.1604 24.0998C49.6204 24.1598 50.0504 23.9398 50.3804 23.5898C51.2704 22.6698 52.2104 21.8698 53.2204 21.0698L54.8304 19.7998L56.8704 18.1898L58.1204 17.2598C58.5204 16.9598 58.9704 16.6798 59.4004 16.4298L61.1404 15.4398C61.5204 15.2198 62.0504 15.1398 62.4604 14.9498C63.2104 14.6098 63.9404 14.3598 64.7804 14.3198L65.9904 14.2598C66.4204 14.2398 66.8804 14.1198 67.2704 14.3098C68.1904 14.7598 67.5104 16.0898 67.4904 17.2698" fill="#90BEFB"/>
<path d="M30.12 66.24V67.13C29.74 67.81 30.06 69.28 29.16 69.69C27.6 70.41 25.83 70.82 24.13 71.19C21.14 71.85 18.29 71.93 15.33 71.21C14.53 71.02 13.56 71 12.83 70.7C11.33 70.1 10.01 69.47 8.88 68.29C7.43 66.78 6.44 64.37 6.42 62.29L6.27 46.35C6.26 45.08 6.21 43.94 6.27 42.68C6.43 39.31 6.29 35.95 6.3 32.56V30.86L6.31 19.61C6.31 18.39 6.03 17.29 6.35 16.06L6.22 15C6.16 14.52 6.09 14.01 5.8 13.7C5.28 13.14 1.93 13.49 0.89 13.6C0.53 13.65 0 13.32 0 12.99C0 12.75 0.35 12.39 0.6 12.25L3 10.93C4.68 10 6.19 8.89 7.43 7.43C8.71 5.93 9.85 4.4 10.67 2.57L11.81 0H12.69C12.69 0 13.04 0.44 13.04 0.61V9.86C13.04 10.28 13.53 11.11 13.93 11.11L29.23 11.15C29.92 11.15 30.08 12.43 29.82 12.84C29.49 13.36 28.85 13.89 28.13 13.42H13.79C13.26 13.69 13.03 14.42 13.03 15.05L13.1 61.53C13.1 63.68 14.16 65.69 15.46 67.14C17.36 69.25 20.92 69.26 23.51 68.84C27.29 68.22 29.18 65.27 29.62 65.73L30.11 66.25L30.12 66.24Z" fill="#90BEFB"/>
</g>
</g>
<defs>
<clipPath id="clip0_2553_11689">
<rect width="223" height="74.07" fill="white"/>
</clipPath>
</defs>
</svg>
