<svg width="416" height="189" viewBox="0 0 416 189" fill="none" xmlns="http://www.w3.org/2000/svg">
<g clip-path="url(#clip0_2559_1062)">
<mask id="mask0_2559_1062" style="mask-type:luminance" maskUnits="userSpaceOnUse" x="0" y="0" width="416" height="189">
<path d="M415.87 0H0V188.39H415.87V0Z" fill="white"/>
</mask>
<g mask="url(#mask0_2559_1062)">
<path d="M229.07 143.33L229.03 152.96L229.14 157.2C227.89 157.52 226.54 157.54 225.17 157.27L225.09 144.59L225.03 131.26L224.97 106.97C224.97 103.57 222.72 99.21 219.24 97.61C216.36 96.28 213.02 95.91 209.71 95.91L194.33 95.93C191.64 95.93 189.14 96.4 186.57 97.04C183.95 97.69 181.1 100.32 180.2 103.22C179.83 104.4 179.35 106.01 179.35 107.33V126.48L179.38 130.2V136.93V148.67L179.27 157.54C177.76 157.64 176.78 157.64 175.32 157.48L175.21 145.26L175.08 124.98L174.92 115.89L174.97 97.58L175 92.6L175.02 72.52L175.08 70.28V56.1L175.03 53.62L175.06 43.75L179.16 43.86L179.18 57.35C179.18 58.44 178.59 59.48 179.67 60.5L181.47 57.4C184.3 52.52 187.39 49.09 192.45 46.36C197.5 43.62 203.14 43.45 208.88 44.1C210.53 44.29 212.44 45.1 213.87 45.78C217.48 47.49 221.28 50.87 223.3 54.23L225.16 57.33C225.52 57.93 225.8 58.88 226.1 59.58C227.31 62.43 228.91 68.79 228.94 71.93L229.12 91.39L229.22 108.76L229.08 113.5L229.13 128.04L229.16 132.36L229.06 143.36L229.07 143.33Z" fill="#90BEFB"/>
<path d="M288.28 100.85C286.81 103.14 284 103.89 281.36 103.88H268.49H249.73C247.45 103.88 245.63 102.09 243.96 100.8C242.92 98.3604 242.52 95.6004 243.99 93.1704C244.5 92.3204 246.03 91.3104 247 90.8504C248.81 89.9804 250.82 89.7004 252.87 89.7004L281.7 89.7404C283.91 89.7404 286.71 91.1304 288.06 92.7704C289.84 94.9604 289.72 98.6004 288.29 100.84M293.66 147.9L293.54 135.57L293.66 121.85V117.1L293.56 94.6004L293.45 85.4304L293.42 78.0104C289.28 75.3104 290.26 77.0904 286.24 73.3604C283.58 70.8904 281.59 67.3504 280.88 63.7404C279.29 55.7004 281.77 52.7004 281.2 50.5204C280.74 48.8104 277.33 49.4804 275.1 53.1604C274.7 53.8204 273.87 54.7804 273.64 55.4404L271.11 62.9304L269.86 66.6204L269.12 68.8204C267.93 72.3204 265.67 75.5004 262.71 77.7504C261.06 79.0104 259.02 79.3504 256.98 79.5904C254.44 79.9004 251.59 79.2104 249.57 77.7004C243.87 73.4604 241.78 68.6604 242.73 61.6404C243.67 54.6904 249.57 49.3104 255.25 45.3604C254.41 45.1704 253.78 45.9204 253.07 46.2904C249.96 47.9404 247.34 50.4804 245.36 53.3404C243.11 56.5904 240.79 61.7804 240.11 65.5504L239.49 69.0304C239.22 70.5604 238.72 72.2704 238.71 73.8304V93.4104L238.75 101.67V113.29C238.75 115.46 239.09 125.3 239.55 126.81C240.17 128.83 240.79 130.57 241.24 132.64C241.39 133.31 241.82 134.07 242.09 134.75C245.4 142.98 250.93 148.87 259.86 150.66C268.4 152.37 277.01 149.13 282.63 142.72L284.04 141.11C285.98 138.89 287.26 136.25 288.95 133.57C289.86 134.47 289.34 135.59 289.34 136.63L289.38 153.66C289.38 155.14 288.49 156.98 287.6 158.09C285.68 160.49 283.52 160.85 280.63 161.08L260.96 161.1L248.77 161.24L248.7 178.74L248.6 186.49C248.59 187.08 248.75 187.85 248.85 188.35H278.48C285.92 186.47 290.04 181.6 292.23 174.14C292.46 173.34 292.97 172.27 293.07 171.51C293.36 169.48 293.59 167.48 293.6 165.45L293.66 154.97L293.71 151.43L293.68 147.86L293.66 147.9Z" fill="#90BEFB"/>
<path d="M277.54 47.6497C274.96 49.5097 272.98 51.3997 271.75 54.1997L269.93 58.3197L268.58 61.4997C266.97 65.2797 264.85 69.4497 260.94 71.3297C259.55 71.9997 257.65 72.0497 256.15 71.9797C253.94 71.8697 252.55 70.5097 251.37 68.8697C249.44 66.1797 249.08 63.0397 249.73 59.7697C249.97 58.5697 250.27 57.6097 250.99 56.6097C251.89 55.3597 252.72 54.0697 253.78 52.9697C255.43 51.2697 256.98 49.5097 258.82 48.0797L262.48 45.2197C265.71 42.6997 266.95 43.6197 269.97 44.2597C273.07 44.9097 274.79 45.9297 277.53 47.6497" fill="#90BEFB"/>
<path d="M295.79 68.1495L295.73 77.3295L290.69 75.3595C289.17 74.7595 286.66 72.3295 285.52 71.1095C284.54 70.0495 282.65 66.1295 282.28 64.8195C281.13 60.7295 281.51 56.7395 282.21 52.6395C282.37 51.6995 282.9 50.6195 283.19 49.6895C284.09 46.7595 284.59 45.6295 286.26 43.0295C287.01 41.8595 287.37 40.1095 288.83 39.4395C289.61 39.0895 290.84 39.2695 291.87 39.3695L290.03 42.6095C289.63 43.3195 289.33 44.3195 288.97 45.0895C288.13 46.8795 287.6 48.5795 287.64 50.6495L287.73 54.9295C287.85 60.5395 291.06 65.3195 295.79 68.1495Z" fill="#90BEFB"/>
<path d="M293.35 43.6101L293.33 64.1301C293.29 64.4301 292.39 64.0701 292.25 63.8401C291.45 62.5101 290.17 61.7801 289.46 58.5901C289.1 56.9501 289.4 55.1901 289.35 53.5401C289.29 51.4701 289.28 49.2801 289.35 47.2601L290.01 45.5101C290.29 44.7601 290.46 43.8301 291.04 43.4401C291.62 43.0501 292.68 43.2201 293.34 43.6201" fill="#90BEFB"/>
<path d="M53.75 121.01C53.79 127.2 53.44 133.2 51.42 139.05C49.12 145.74 45.9 151.05 39.53 154.53C33.54 157.8 26.02 158.19 19.34 156.6C13.79 155.28 8.9 151.87 5.72 147.16C5.03 146.15 4.43 145.18 3.83 144.13C2.64 142.05 1.13 136.8 0.57 134.19C-0.21 130.59 0.74 106.67 0 101.6V100.79C0.41 100.26 0.41 99.1603 0 98.6303V82.4603L0.33 69.5303C0.4 66.5803 1.62 62.8703 2.63 59.9603C3.43 57.6603 4.32 56.2203 5.72 54.1503C8.9 49.4503 13.79 46.0303 19.34 44.7103C26.02 43.1103 33.54 43.5103 39.53 46.7803C45.9 50.2503 49.12 55.5703 51.42 62.2603C53.44 68.1003 53.8 74.1103 53.75 80.3003L53.72 85.8903L50.03 85.9203C49.61 80.2003 43.94 78.3103 39.3 78.3203L11.34 78.3903C8.24 78.3903 5.7 79.0903 4.66 82.1203C4.29 83.1703 4.38 84.1703 4.39 85.2803L4.46 91.0703L4.43 96.0603L4.41 108.02L4.36 112.17C4.33 114.92 3.79 118.51 5.39 120.68C6.77 122.54 9.09 122.91 11.33 122.92L39.3 122.99C43.95 123 49.61 121.11 50.03 115.38L53.72 115.41L53.75 121V121.01Z" fill="#90BEFB"/>
<path d="M0 100.79V98.6299C0.41 99.1599 0.41 100.26 0 100.79Z" fill="#90BEFB"/>
<path d="M111.27 143.06L111.24 152.49L111.35 156.93C110.16 157.23 108.91 157.26 107.39 157.04L107.31 144.18L107.25 130.98L107.19 106.69C107.18 103.29 104.94 98.93 101.46 97.33C98.5799 96 95.2299 95.63 91.9299 95.63L76.5499 95.65C73.8599 95.65 71.3599 96.12 68.7799 96.76C66.1599 97.41 63.3099 100.04 62.4099 102.94C62.0499 104.12 61.5599 105.73 61.5599 107.05V126.2L61.5799 129.92V148.17L61.4699 157.25C59.9599 157.36 58.9799 157.36 57.5299 157.2L57.4199 144.98L57.2899 124.7L57.1299 115.61L57.1799 97.3L57.2099 92.32L57.2299 72.24L57.2899 70C57.4199 65.24 57.3799 60.6 57.2799 55.83L57.2199 53.3V0H61.5299L61.4699 47.37L61.3599 57.06C61.3499 58.16 60.8499 59.17 61.8699 60.22L63.6799 57.11C66.5199 52.23 69.5899 48.81 74.6499 46.07C79.6999 43.33 85.3399 43.16 91.0799 43.81C92.7299 44 94.6399 44.81 96.0699 45.49C99.6799 47.2 103.48 50.58 105.5 53.94L107.37 57.04C107.73 57.64 108.01 58.59 108.31 59.29C109.52 62.14 111.13 68.5 111.15 71.64L111.33 91.1L111.43 108.47L111.28 113.21L111.33 127.75L111.36 132.07L111.25 143.07L111.27 143.06Z" fill="#90BEFB"/>
<path d="M163.87 119.61C162.25 121.71 158.04 122.87 155.28 122.93L148.14 123.06L134.8 123.16L126.49 122.95C125.15 122.91 121.65 121.48 121.22 119.79C120.82 118.18 120.83 116.29 121.15 114.63C121.62 112.3 125.88 110.46 128.3 110.16L138.39 108.94C142.07 108.49 145.63 108.29 149.35 107.72L154.9 106.87C158.55 106.31 162.14 105.81 165.85 105.74C166.38 106.38 166.36 107.3 166.34 108.09C166.2 113.12 167.08 115.47 163.88 119.62M170.53 116.08V75.8104C170.53 71.9704 169.47 68.5004 168.64 64.8604C167.35 59.2304 163.42 52.3304 158.88 48.6604C157.89 47.8604 155.4 46.1904 154.06 45.6704C149.65 43.9504 144.3 43.0904 139.67 44.2704C137.21 44.9004 134.71 45.5404 132.62 46.9504L130.49 48.3804C129.97 48.7204 129 49.4104 128.61 49.8404L125.51 53.3004C124.86 54.0304 124.29 55.2004 123.73 56.0604C121.84 58.9804 121.67 59.4904 120.48 62.8204C118.08 69.5404 117.53 75.3804 117.65 82.4804L117.71 85.8904L121.65 85.8704C123.46 77.1204 134.72 78.4304 141.53 78.4904L155.67 78.6204C157 78.6304 158.45 79.1604 159.81 79.3804C163.52 79.9904 166.07 84.1204 165.45 84.6804C165.29 84.8304 164.84 85.0704 164.62 85.1204L161.46 85.7804L154.46 86.8904L146.76 88.3304L138 89.7704C136.53 90.0104 135.12 90.6604 133.74 91.1704C131.07 92.1704 128.63 93.3104 126.43 95.2104C125.31 96.1804 124.13 97.1904 123.12 98.3504C121.34 100.42 118.91 104.77 118.32 107.38L117.23 112.24C116.74 114.41 116.59 116.44 116.61 118.54L116.79 134.48C116.82 137.31 118.84 143.59 120.28 146.36C122.93 151.44 127.94 155.32 133.45 156.75C138.5 158.06 143.35 158.19 148.3 156.89C150.08 156.42 151.59 155.99 153.18 155.06L155.46 153.73C163.12 149.25 164.87 141.96 165.9 141.41C166.05 141.33 166.52 141.7 166.51 141.87L166.49 144.73L166.42 157.46C167.96 157.64 168.94 157.64 170.46 157.49V150.95L170.49 147.95L170.52 139.12L170.5 133.73L170.52 120.29V116.08H170.53Z" fill="#90BEFB"/>
<path d="M415.87 108.6L415.85 131.72C415.85 134.75 413.42 141.52 411.77 144.13C409.07 148.42 405.34 151.96 400.8 154.3C394.28 157.66 382.73 157.45 376.33 153.59C369.8 149.65 366.44 144.63 363.83 137.64C362.04 132.85 361.27 125.28 361.13 120.2L361.04 116.92V113.55C362.56 113.36 363.9 113.37 365.22 113.65C365.43 115.21 365.5 116.65 366.27 117.84C367.24 119.34 368.95 120.66 370.64 121.27C372.42 121.92 374.35 121.94 376.27 121.96L404.33 122.12C406.55 122.13 411.54 121.31 411.79 118.56C411.91 117.28 411.94 115.81 411.71 114.67C411.38 113.09 409.65 112.38 408.41 111.81C406.28 110.84 404.25 110.57 401.98 110.33L391.89 109.28C389.52 109.03 387.27 109 384.92 108.61C379.81 107.76 375.18 107.72 370.83 105.21C363.82 101.17 362.24 93.8203 362.24 86.2203V68.4603C362.25 67.1703 362.45 65.7903 362.82 64.6203L364.49 59.2003C365.11 57.2103 366.42 55.0503 367.65 53.2603C370.83 48.6403 375.65 45.2703 381.1 43.9403C390.64 41.6103 401.14 43.4403 407.69 51.0303C412.94 57.1203 415.59 67.3303 415.61 75.1803L415.64 85.0103L411.95 85.1703C411.53 83.1503 411.15 81.5203 409.72 80.3203C408.64 79.4203 407.58 78.6703 406.27 78.3303C404.56 77.8903 403.04 77.5103 401.31 77.5103L373.1 77.5803C369.93 77.5803 367.32 78.4303 366.49 81.6203C366.14 82.9703 366.26 84.0403 367.04 85.2103C368.49 87.4003 370.37 87.6003 372.42 88.0803C375.43 88.7703 378.3 89.1903 381.41 89.5203L388.7 90.3003L395.13 90.9103C398.25 91.2003 403.72 92.2603 406.33 93.6903C409.17 95.2603 409.76 95.3103 412.07 97.9603C414.14 100.33 415.86 105.75 415.86 108.61" fill="#90BEFB"/>
<path d="M304.06 85.6996C305.23 83.0596 306.63 81.6596 309.41 80.4396C311.36 79.5896 313.23 79.1996 315.37 79.0396C317.1 78.9096 318.76 78.7096 320.52 78.6996L332.12 78.6596C337.92 78.6396 349.77 79.0896 349.51 87.5496L341.27 87.6996H333.99L304.18 87.7796C303.18 87.7796 303.87 86.1796 304.08 85.6996M353.76 118.38L349.75 118.44C348.61 121.36 345.94 123.12 342.72 123.12L316.29 123.09C314.05 123.09 312.04 122.33 310 121.64C304.59 119.8 303.01 114.4 303.9 113.96C304.12 113.85 304.65 113.86 305 113.9H329.67L353.87 113.76L353.83 92.2996L353.81 88.1796L353.69 75.7396C353.68 74.2596 353.55 72.6296 353.22 71.2096L351.98 65.8796C351.6 64.2796 350.93 62.8296 350.33 61.3096C347.95 55.2896 343.56 49.6396 337.77 46.6696C336.63 46.0896 335.59 45.5596 334.33 45.2196C333.23 44.9196 332.03 44.2796 330.87 44.1496C327.68 43.7896 324.3 43.5596 321.23 44.4296C316.7 45.7096 314.37 46.8796 310.74 49.7696C310.16 50.2396 309.51 50.9796 308.95 51.5296C307.86 52.5896 307.01 53.8596 306.1 55.0996C301.2 61.7496 299.31 71.0196 299.25 79.2496L299.18 89.5096L299.23 111.3L299.35 123.38C299.41 128.17 299.8 133.04 301.72 137.46C302.5 139.26 303.11 140.89 303.78 142.72C305.71 147.97 312.21 154.35 317.5 156.08C318.52 156.42 319.62 156.99 320.64 157.23C324.48 158.13 328.47 158.11 332.39 157.32C334.33 156.93 338.67 154.83 340.41 153.56L342.62 151.96C343.36 151.43 344.07 150.53 344.75 149.84C347.59 146.94 350.06 141.88 351.5 138.01C352.92 134.2 353.93 126.56 353.85 122.43L353.77 118.4L353.76 118.38Z" fill="#90BEFB"/>
</g>
</g>
<defs>
<clipPath id="clip0_2559_1062">
<rect width="415.87" height="188.39" fill="white"/>
</clipPath>
</defs>
</svg>
