<svg width="525" height="313" viewBox="0 0 525 313" fill="none" xmlns="http://www.w3.org/2000/svg">
<g clip-path="url(#clip0_2559_5256)">
<mask id="mask0_2559_5256" style="mask-type:luminance" maskUnits="userSpaceOnUse" x="0" y="0" width="525" height="313">
<path d="M524.03 0H0V312.51H524.03V0Z" fill="white"/>
</mask>
<g mask="url(#mask0_2559_5256)">
<path d="M393.87 77.34C393.7 77.49 393.32 77.63 393.39 77.77L393.65 78.4L393.9 78.93C393.94 79.08 393.51 79.18 393.2 79.32L394.06 81.23L393.6 81.55C393.53 81.62 393.63 81.84 393.7 81.98L394.47 83.63L393.84 83.96C393.74 84.04 393.96 84.45 393.88 84.55L393.53 84.89C393.43 84.97 393.6 85.26 393.69 85.46L394 86.13C394.08 86.3 393.35 86.4 393.4 86.58L393.55 87.19C393.59 87.34 393.22 87.51 393.18 87.63C393.14 87.75 393.3 88.12 393.21 88.2L392.66 88.56C392.56 88.64 392.96 89.07 392.88 89.17L392.47 89.6C392.4 89.67 392.58 89.99 392.52 90.08C392.46 90.18 392.27 90.26 391.92 90.46L392.19 91.25L390.98 91.78L391.09 92.45L389.85 93.06L390.09 93.73C390.17 93.9 389.6 94.06 389.43 94.14L388.94 94.4C388.83 94.45 389 94.82 389.07 95.05L383.82 97.5L384.05 98.28L381.45 99.49L381.03 98.8L375.17 101.53L374.85 101.07C374.76 100.94 374.43 101.13 374.24 101.22L373.57 101.53C373.4 101.61 373.3 100.88 373.12 100.93L372.51 101.08C372.37 101.15 372.25 100.83 372.09 100.63L370.82 101.19L370.43 100.49L367.22 101.99L366.86 101.44L365.52 102L365.23 101.38C365.16 101.24 364.8 101.48 364.61 101.57L363.95 101.84C363.84 101.89 363.66 101.5 363.55 101.35L361.5 102.27L361.17 101.64C361.1 101.5 360.74 101.74 360.57 101.82L359.92 102.09C359.78 102.15 359.64 101.78 359.49 101.61L358.22 102.17L357.83 101.47L356.01 102.32L355.53 101.8L354.27 102.39L353.97 101.75C353.9 101.61 353.54 101.85 353.37 101.93L352.69 102.22C352.58 102.27 352.44 101.9 352.29 101.73L350.28 102.67L349.9 102L349.4 102.1C349.28 102.12 349.1 101.83 348.96 101.66L346.39 102.86L346.02 102.22C345.95 102.08 345.59 102.32 345.42 102.39L344.78 102.69C344.63 102.73 344.49 102.35 344.34 102.18L343.08 102.77L342.67 102.04L341.41 102.63L341.06 102.18C340.98 102.08 340.69 102.25 340.38 102.4L339.95 101.69L338.69 102.28L338.39 101.85L337.8 101.89L337.41 101.35C337.36 101.24 337.05 101.45 336.71 101.61L336.06 100.28L336.79 99.87L335.93 98.03C336.1 97.88 336.5 97.73 336.44 97.59L336.15 96.98L335.93 96.44C335.86 96.3 336.29 96.2 336.6 96.06L335.69 94.04L336.2 93.6L335.34 91.76L336.07 91.35L335.83 90.75C335.76 90.61 336.13 90.44 336.31 90.32L335.74 89.02L336.37 88.69C336.51 88.63 336.27 88.26 336.19 88.09L335.89 87.45C335.82 87.31 336.3 87.16 336.3 87.02L336.24 86.54C336.24 86.4 336.51 86.31 336.87 86.14L335.96 84.12L336.47 83.68L335.64 81.82L336.27 81.49C336.41 81.42 336.14 81.07 336.1 80.89L335.8 80.25C335.74 80.11 336.14 79.96 336.31 79.81L335.39 77.76L336.03 77.46C336.16 77.37 335.89 77.02 335.84 76.84L335.54 76.2C335.49 76.09 335.95 75.91 335.95 75.77L335.89 75.28C335.89 75.14 336.16 75.05 336.52 74.88L335.6 72.83L336.13 72.45L335.27 70.61C335.48 70.48 335.98 70.31 335.93 70.13L335.74 69.57C335.69 69.46 336.02 69.3 336.23 69.17L335.63 67.89L336.37 67.51L335.78 66.25L336.2 65.92C336.3 65.84 336.16 65.53 336.12 65.31L337.36 64.7L337.12 64.03C337.05 63.89 337.47 63.76 337.6 63.67C337.77 63.59 337.91 63.9 338.13 64.3L340.03 63.48C340.17 63.62 340.32 64.03 340.46 63.96L341.09 63.7L341.62 63.45C341.76 63.39 341.86 63.82 342 64.12L343.3 63.55L343.71 64.07L345.76 63.15L346.06 63.79C346.13 63.93 346.52 63.68 346.69 63.6L347.34 63.33C347.45 63.28 347.63 63.67 347.74 63.82L349.62 62.97L349.98 63.59C350.05 63.73 350.41 63.49 350.58 63.41L351.23 63.14C351.37 63.07 351.51 63.45 351.63 63.63L352.92 63.03L353.33 63.76L355.31 62.84L355.75 63.35L357.61 62.52L357.91 63.16C358 63.29 358.37 63.05 358.53 62.97L359.17 62.67C359.29 62.65 359.46 63.01 359.58 63.19L360.86 62.59L361.24 63.33L362.52 62.73L362.84 63.2C362.92 63.3 363.21 63.13 363.52 62.98L363.98 63.68L365.24 63.09C365.36 63.27 365.54 63.66 365.65 63.61L366.8 63.08C366.95 63.04 367.1 63.65 367.2 63.64L367.77 63.61L368.19 64.06L370.17 63.13L370.58 63.86L371.84 63.27L372.25 63.72C372.33 63.82 372.72 63.57 372.8 63.67L373.12 64.2C373.17 64.31 373.51 64.08 373.72 64.02L374.36 63.72C374.47 63.67 374.65 64.06 374.77 64.24L376.05 63.64L376.42 64.28C376.5 64.45 376.98 64.09 377.15 64.01L377.67 63.8C377.79 63.78 377.96 64.14 378.08 64.32L379.36 63.72C379.49 63.93 379.66 64.43 379.84 64.38L380.35 64.17C380.48 64.15 380.64 64.58 380.77 64.55H381.38C381.52 64.55 381.58 65.12 381.71 65.1L382.34 64.91C382.48 64.85 382.62 65.29 382.76 65.29L383.24 65.23C383.36 65.21 383.49 65.55 383.6 65.71C383.73 65.99 384.22 65.52 384.32 65.58L384.65 65.93C384.73 66.03 385.06 65.94 385.29 65.91L385.9 67.15C386.14 67.07 386.58 66.8 386.66 66.96L386.96 67.46C387.04 67.56 387.38 67.4 387.58 67.34L388.17 68.6L388.95 68.3L389.82 70.17L390.46 70.01L393.87 77.33V77.34ZM401.17 69.08C400.97 69.17 400.81 69.25 400.78 69.19L398.32 63.91L397.54 64.21L397.11 63.22C397.09 63.16 396.88 63.02 396.81 63.02L396.31 63.12C396.25 63.15 396.19 62.87 396.15 62.79L395.41 61.2L394.63 61.43C394.5 61.22 394.19 60.55 394.07 60.3C394.02 60.19 393.58 60.42 393.5 60.32L393.18 59.99C393.13 59.95 392.91 59.91 392.85 59.94L392.46 60.12C392.4 60.15 392.34 60 392.27 59.87L391.72 58.9C391.34 58.97 391.14 59.04 391.07 58.9L390.82 58.44C390.57 58.49 390.18 58.67 390.06 58.56C389.9 58.43 389.74 58.24 389.6 58.23L389.15 58.27L388.56 57.08C388.21 57.21 387.88 57.43 387.82 57.32L387.53 56.77L386.87 56.81C386.72 56.64 386.63 56.38 386.52 56.43L386.16 56.53C386.02 56.6 385.88 56.66 385.85 56.6L385.67 56.21C385.64 56.15 385.43 56.05 385.36 56.05L384.9 56.09C384.83 56.09 384.78 55.91 384.64 55.67L383.29 56.2C383.09 55.78 382.91 55.53 382.77 55.59C382.52 55.71 382.29 55.81 382.23 55.74C382.16 55.67 382 55.4 381.91 55.41C381.72 55.36 381.37 55.42 381.26 55.34C381.18 55.24 381.07 54.85 380.91 54.89C380.72 54.91 380.37 55.11 380.26 55.02L379.93 54.67C379.85 54.57 379.43 54.84 379.36 54.7L379.02 54.11L377.75 54.67C377.59 54.47 377.46 54.12 377.32 54.19L376.8 54.4C376.51 54.5 376.46 53.67 376.27 53.76L375.89 53.9L375.05 54.29C374.9 54.12 374.73 53.83 374.61 53.85L374.14 53.93L373.7 53.28L372.47 53.85C372.32 53.68 372.2 53.33 372.04 53.37L371.51 53.55C371.34 53.63 371.18 53.13 371.05 52.92L370.16 53.34C370.02 53.4 369.76 53.49 369.72 53.41L369.41 52.97L368.07 53.53C367.93 53.22 367.8 52.8 367.69 52.86L367.16 53.11L366.51 53.38C366.4 53.43 366.23 53.07 366.1 52.86L364.82 53.46L364.45 52.75L363.18 53.31C363.01 53.08 362.74 52.8 362.57 52.88L360.96 53.66L360.53 52.95L358.55 53.87C358.39 53.67 358.22 53.38 358.09 53.4L357.59 53.5L357.22 52.86L353.9 54.41L353.51 53.95C353.39 53.9 353.01 54.12 352.92 53.99L352.58 53.4L351.31 53.96C351.19 53.78 351.04 53.44 350.91 53.47L350.27 53.7L349.89 53.03L348.02 53.9C347.9 53.72 347.72 53.33 347.61 53.38L346.96 53.65C346.79 53.73 346.43 53.97 346.35 53.87L346.01 53.21L344.73 53.81C344.61 53.63 344.43 53.24 344.32 53.29L343.67 53.56C343.5 53.64 343.11 53.89 343.06 53.78L342.76 53.14L341.42 53.69C341.31 53.54 341.13 53.15 341.02 53.2L340.36 53.47C340.19 53.55 339.8 53.8 339.75 53.69L339.45 53.05L337.43 53.96L336.98 53.42L335.15 54.31L334.77 53.57L328.71 56.4L329 57.18L327.74 57.77C327.79 58.02 327.92 58.3 327.82 58.38L327.4 58.71L327.99 59.97L327.26 60.38L328.47 62.98L327.95 63.39L328.86 65.41C328.55 65.55 328.14 65.68 328.19 65.79L328.41 66.33L328.71 66.97C328.76 67.08 328.34 67.28 328.19 67.38L329.05 69.29C328.74 69.43 328.33 69.56 328.39 69.7L328.6 70.21L328.9 70.85C328.95 70.96 328.56 71.14 328.38 71.26L329.32 73.27L328.59 73.68L329.46 75.55C329.28 75.67 328.89 75.85 328.94 75.96L329.24 76.6C329.33 76.79 329.56 77.13 329.42 77.2L328.84 77.57C328.74 77.65 329.16 78.1 329.04 78.22L328.55 78.62L329.11 79.89L328.49 80.24C328.35 80.31 328.62 80.66 328.67 80.84L328.97 81.48C329.02 81.59 328.63 81.77 328.46 81.92L329.3 83.8C329.01 83.97 328.58 84.07 328.64 84.21L328.86 84.75L329.15 85.36C329.22 85.5 328.81 85.65 328.64 85.8L329.23 87.06L328.5 87.47L329.08 88.73C328.91 88.88 328.53 89.02 328.57 89.17L328.87 89.81C328.95 89.98 329.19 90.34 329.05 90.41L328.43 90.77L329.33 92.77C329.16 92.92 328.8 93.09 328.82 93.21L329.12 93.85C329.2 94.02 329.44 94.38 329.31 94.47L328.68 94.8L329.25 96.1C329.07 96.22 328.69 96.36 328.73 96.51L329.03 97.15C329.11 97.32 329.35 97.68 329.22 97.78L328.58 98.08L329.42 99.96L328.94 100.39C328.84 100.47 329.26 100.92 329.13 101.01L328.58 101.37C328.48 101.45 328.65 101.81 328.61 101.94C328.58 102.09 328.17 102.25 328.21 102.4L328.5 103.01C328.58 103.18 328.83 103.57 328.69 103.64L328.05 103.94L328.63 105.27C328.45 105.39 328.11 105.55 328.14 105.67L328.34 106.32C328.23 106.44 327.64 106.58 327.72 106.74L328 107.42C328.08 107.59 328.29 107.9 328.16 107.99L327.71 108.34L328.57 110.18L327.84 110.59L328.78 112.6L328.26 113.01L329.11 114.82L328.38 115.23L328.97 116.49C328.77 116.65 328.45 116.77 328.49 116.92L328.68 117.55C328.68 117.72 327.98 117.81 328.06 117.97L328.37 118.64C328.46 118.84 328.64 119.16 328.52 119.25L328.08 119.55L328.64 120.89C328.33 121.03 327.9 121.13 327.97 121.27L328.19 121.81L328.48 122.42C328.55 122.56 328.14 122.71 327.97 122.86L328.83 124.7L328.13 125.16C328.27 125.47 328.47 125.75 328.35 125.84L327.91 126.14L328.47 127.48C328.16 127.62 327.73 127.72 327.8 127.86L328.05 128.39L328.31 129.02C328.38 129.16 328 129.3 327.8 129.46L328.39 130.72L327.75 131.09C327.79 131.31 327.89 131.6 327.79 131.68L327.41 132.03L328.29 134.07C328.01 134.2 327.56 134.34 327.63 134.48L327.86 134.98L328.13 135.63C328.2 135.77 327.79 135.92 327.64 136.03L328.19 137.37C327.88 137.51 327.47 137.64 327.53 137.78L327.76 138.28L328.03 138.93C328.1 139.07 327.69 139.22 327.54 139.33L328.1 140.67C327.79 140.81 327.38 140.94 327.44 141.08L327.68 141.58L327.95 142.23C328 142.34 327.57 142.51 327.53 142.63C327.5 142.78 327.71 143.16 327.57 143.22L326.98 143.56L327.54 144.83C327.37 144.98 326.99 145.12 327.06 145.26L327.33 145.91C327.41 146.08 327.65 146.44 327.51 146.51L326.89 146.87L327.45 148.14C327.25 148.3 326.93 148.42 326.97 148.57L327.15 149.1C327.23 149.27 326.73 149.43 326.52 149.57L327.09 150.87C326.94 150.98 326.54 151.16 326.6 151.27L326.87 151.93C326.95 152.1 327.19 152.46 327.05 152.53L326.43 152.89L326.99 154.16L326.47 154.57L327.65 157.11L328.33 156.96L328.94 158.2C329.3 158.03 329.53 157.93 329.62 157.99C329.72 158.05 329.89 158.34 329.98 158.33L330.55 158.3C330.69 158.3 330.75 158.89 330.88 158.86L331.51 158.67C331.63 158.65 331.8 159.01 331.93 159.05C332.05 159.1 332.44 158.91 332.52 159.01L332.88 159.63L334.11 159.06L334.56 159.6L336.53 158.65L336.91 159.39L338.24 158.74C338.08 158.4 337.83 158.08 337.97 158.02L338.49 157.74L339.1 157.45C339.24 157.38 339.03 157.01 339.01 156.81L340.27 156.16C340.11 155.82 339.94 155.53 340.04 155.45L340.49 155.1L339.95 153.79C340.28 153.63 340.58 153.53 340.55 153.41L340.49 152.93C340.49 152.79 340.97 152.64 340.9 152.5L340.63 151.85C340.55 151.68 340.31 151.32 340.42 151.27L341.06 150.9L338.89 146.24L339.42 145.85L337.94 142.6C338.27 142.44 338.66 142.33 338.64 142.21L338.39 141.68L338.12 141.03C338.07 140.92 338.43 140.75 338.61 140.63L338.01 139.35L338.75 138.97L337.81 136.96C337.98 136.81 338.38 136.66 338.32 136.52L338.05 135.86C337.97 135.69 337.73 135.33 337.85 135.28L338.48 134.95L337.63 133.07L338.17 132.68L337.23 130.67L337.96 130.26L337.1 128.42L337.65 127.99L336.7 126.02L337.44 125.64L336.57 123.77C336.74 123.62 337.14 123.47 337.08 123.33L336.79 122.72C336.73 122.51 336.5 122.17 336.6 122.09L337.17 121.72C337.31 121.65 336.88 121.17 336.98 121.09L337.46 120.66L336.26 118.02C336.59 117.87 337 117.78 336.93 117.64L336.71 117.1L336.42 116.48C336.38 116.33 336.76 116.19 336.93 116.04L335.72 113.44L336.45 113.03L335.84 111.72L338.49 110.48L338.88 111.18L340.15 110.62C340.3 110.79 340.44 111.17 340.58 111.1L341.23 110.83C341.4 110.75 341.76 110.51 341.83 110.65L342.18 111.27L343.45 110.71C343.6 110.88 343.74 111.26 343.88 111.19L344.53 110.92C344.7 110.84 345.06 110.6 345.13 110.74L345.48 111.36L346.75 110.8C346.9 110.97 347.04 111.35 347.18 111.28L347.84 111.01C347.98 110.94 348.37 110.69 348.44 110.83L348.8 111.45L350.07 110.89C350.22 111.06 350.36 111.43 350.47 111.38L351.15 111.1C351.32 111.02 351.68 110.78 351.75 110.92L352.08 111.55L353.31 110.98L353.79 111.5L355.66 110.63C355.82 110.97 355.92 111.4 356.06 111.33L356.56 111.1L357.21 110.83C357.35 110.76 357.5 111.17 357.64 111.31L358.98 110.75C359.1 111.07 359.22 111.49 359.36 111.42L359.86 111.19L360.51 110.92C360.65 110.85 360.8 111.26 360.94 111.4L362.25 110.86C362.39 111.17 362.52 111.58 362.66 111.52L363.25 111.25C363.53 111.12 363.78 111 363.9 111.05C364.01 111.07 364.22 111.51 364.33 111.46L366.24 110.6L366.64 111.23C366.83 111.21 367.14 111.06 367.22 111.16L367.55 111.58L368.81 110.99L369.22 111.72L371.2 110.8L371.65 111.34L373.45 110.46L373.86 111.19L375.84 110.26L376.29 110.8L378.09 109.92L378.52 110.63C378.86 110.47 379.09 110.33 379.17 110.43L379.53 110.77C379.61 110.87 380.04 110.63 380.1 110.74L380.44 111.33L381.71 110.77C381.83 110.95 382 111.32 382.11 111.26L382.78 111.02L383.39 112.26C383.61 112.22 383.93 112.04 384.03 112.17L384.33 112.67C384.4 112.81 384.86 112.56 385.08 112.46L385.95 114.33L386.62 114.16L387.83 116.76L388.58 116.48L390.23 120.03C390.31 120.2 390.45 120.43 390.34 120.49L389.71 120.82L391.49 124.64C391.45 124.76 391.16 125.03 390.99 125.18L392.54 128.5L391.84 128.89L393.05 131.49L392.49 131.89L393.35 133.73L392.65 134.12L394.49 138.06C394.29 138.22 393.92 138.36 393.98 138.5L394.25 139.15C394.33 139.32 394.57 139.68 394.45 139.73L393.81 140.1L394.73 142.08L394.42 142.29C394.31 142.34 394.23 142.62 394.28 142.73L395.39 145.1C395.04 145.3 394.74 145.37 394.77 145.52L394.85 145.99L394.37 146.42L394.97 147.63L394.24 148.04L395.14 150.03C394.91 150.2 394.63 150.47 394.71 150.64L395.83 152.97L396.47 152.81L397.3 154.6C397.38 154.77 398.03 154.26 398.1 154.43L398.35 154.96L398.68 155.59C398.72 155.67 399 155.54 399.18 155.49C399.51 155.4 399.53 156.17 399.74 156.11L400.24 155.88C400.49 155.76 400.81 155.65 400.96 155.61C401.08 155.58 401.29 156.1 401.4 156.05L403.27 155.18C403.23 154.96 403.05 154.57 403.16 154.52L404.3 153.99C404.52 153.89 403.92 153.45 404.21 153.15L404.54 152.83C404.61 152.76 404.37 152.4 404.46 152.36L405.09 151.96L404.55 150.65C404.89 150.43 405.04 150.25 404.98 150.11L401.96 143.7L402.7 143.32L401.66 141.09C401.59 140.95 401.48 140.7 401.59 140.65L402.01 140.32L400.96 137.99C400.91 137.88 400.83 137.71 400.91 137.67L401.27 137.5C401.33 137.47 401.53 137.25 401.5 137.19L400.86 135.89C400.76 135.67 400.57 135.35 400.7 135.25L401.14 134.95L400.31 133.09L401.01 132.69L400.18 130.9C400.14 130.82 400.12 130.62 400.18 130.6L400.5 130.42C400.55 130.39 400.56 130.12 400.52 130.03L399.75 128.45L400.48 127.97L399.37 125.67C399.29 125.5 399.57 125.23 399.8 125.06L399.24 123.79L399.94 123.4L395.08 112.99L394.74 112.77C394.47 112.93 394.24 113.08 394.2 112.99L393.97 112.49L393.27 111.05L392.63 111.21L391.42 108.61L390.75 108.85C390.5 108.97 390.29 107.64 390 107.67L389.39 107.75L388.88 106.59C389.05 106.44 389.34 106.27 389.32 106.15L389.21 105.62L393.87 103.45L393.57 102.67L396.78 101.17C396.72 100.96 396.55 100.6 396.65 100.52L397.29 100.22C397.48 100.13 397.87 100.01 397.81 99.88L397.61 99.23C397.56 99.12 398.19 99.03 398.2 98.89L398.11 98.25L399.95 97.32C399.81 97.01 399.58 96.67 399.68 96.6L400.21 96.28C400.32 96.23 400.07 95.83 400.17 95.76L400.58 95.33L400.36 94.65L401.6 94.04L401.45 93.5C401.41 93.42 401.65 93.34 401.9 93.22L402.03 92.85C401.91 92.6 401.79 92.42 401.86 92.35L402.23 92.04C402.23 91.8 402.18 91.42 402.32 91.35C402.5 91.23 402.81 91.15 402.78 91.03L402.52 90.47L402.94 90.07L402.92 89.5C402.92 89.34 403.41 89.24 403.47 89.14C403.54 89.01 403.18 88.6 403.27 88.49L403.75 88.06L403.28 87.06C403.24 86.97 403.19 86.8 403.25 86.77L403.64 86.59C404.06 86.39 403.57 86.01 403.77 85.85L404.19 85.52L403.27 83.54L404 83.13L403.43 81.9C403.61 81.71 403.83 81.51 403.87 81.39C403.93 81.29 403.73 80.94 403.81 80.9L404.43 80.61L403.68 78.92C403.61 78.78 403.51 78.56 403.58 78.49L404.04 78.17L402.21 74.23L402.94 73.82L401.47 70.6C401.81 70.37 401.99 70.19 401.94 70.07L401.52 69.18L401.15 69.05L401.17 69.08Z" fill="#90BEFB"/>
<path d="M294.03 111.53L293.52 111.97L294.43 113.99L293.8 114.32C293.66 114.39 293.9 114.75 293.98 114.92L294.25 115.57C294.32 115.71 293.84 115.86 293.87 115.99L293.9 116.49C293.92 116.61 293.66 116.71 293.34 116.89L293.54 117.54L293.17 117.92C293.08 118.03 293.2 118.35 293.21 118.51L292.59 118.93L292.84 119.53C292.91 119.67 292.49 119.8 292.32 119.87L291.68 120.17C291.55 120.26 291.76 120.64 291.72 120.76C291.67 120.88 291.28 121.07 291.31 121.19L291.58 121.85L286.86 124.05L286.45 123.32L284.61 124.18L284.26 123.73C284.18 123.63 283.86 123.82 283.66 123.91L283.02 124.21C282.88 124.27 282.75 123.86 282.61 123.55L281.3 124.09L280.95 123.64C280.87 123.54 280.58 123.71 280.27 123.86L279.83 123.15L278.62 123.75L278.12 123.2L277.2 123.7C277.14 123.72 276.87 123.72 276.84 123.66L276.58 123.17C276.53 123.06 276.14 123.31 276.03 123.22L275.69 122.87C275.57 122.76 275.34 122.93 275 123.06L274.58 122.44L274.11 122.53C273.99 122.55 273.81 122.26 273.69 122.08L272.39 122.65C272.27 122.4 272.09 121.94 271.95 122L271.39 122.19C271.24 122.23 271.11 121.88 270.96 121.71L269.69 122.27L269.35 121.68C269.28 121.54 268.91 121.75 268.78 121.71C268.63 121.68 268.46 121.25 268.35 121.3L267.7 121.57L267.2 121.8C267.06 121.87 266.93 121.45 266.79 121.14L265.48 121.68L265.15 121.26C265.06 121.13 264.78 121.33 264.47 121.47L264.04 120.76L262.78 121.35L262.46 120.89C262.37 120.76 262.06 120.97 261.85 121.04L261.18 121.35C261.04 121.41 260.96 121.01 260.8 120.68L259.53 121.24L259.09 120.73L257.23 121.56C257.1 121.35 256.94 120.88 256.77 120.93L256.21 121.12C256.09 121.14 255.93 120.81 255.81 120.63L254.51 121.2L254.15 120.58C254.07 120.41 253.59 120.77 253.41 120.82L252.9 121.03C252.79 121.08 252.62 120.72 252.5 120.54L251.21 121.14L250.83 120.4L249.54 121C249.39 120.83 249.24 120.43 249.13 120.48L248.49 120.78L247.95 121C247.84 121.05 247.72 120.66 247.57 120.33L246.27 120.9L245.94 120.48L245.35 120.52L244.99 119.97C244.91 119.87 244.56 120.07 244.39 120.15L243.75 120.45C243.61 120.52 243.46 120.11 243.31 119.94L238.68 122.1L238.79 122.63C238.81 122.75 238.51 122.9 238.34 123.05L238.61 123.77L237.35 124.36C237.41 124.64 237.53 124.96 237.47 124.98L236.92 125.34L237.08 125.98C237.13 126.09 236.83 126.24 236.6 126.41L237.17 127.64L236.54 128.04L236.64 128.54C236.66 128.66 236.36 128.81 236.16 128.97L236.75 130.23L236.05 130.62L236.61 131.89C236.44 132.04 236.07 132.18 236.13 132.32L236.39 132.95C236.48 133.14 236.71 133.48 236.58 133.57L236 133.94C235.89 133.99 236.32 134.47 236.22 134.55L235.71 134.99L236.57 136.83L235.87 137.23L236.77 139.23L236.35 139.56C236.22 139.65 236.41 139.97 236.5 140.17L236.8 140.81C236.87 140.95 236.45 141.07 236.14 141.22L236.68 142.53L236.29 142.85C236.19 142.93 236.29 143.22 236.33 143.44L235.7 143.84L236.63 145.82L236.21 146.15C236.11 146.23 236.21 146.52 236.25 146.74L235.62 147.14L237.18 150.49L237.85 150.25C237.96 150.2 238.13 150.56 238.25 150.74L239.55 150.17L239.88 150.8C239.95 150.94 240.3 150.67 240.51 150.61L241.12 150.32C241.26 150.25 241.44 150.65 241.56 150.83L242.84 150.23L243.18 150.89C243.23 151 243.64 150.78 243.78 150.71L244.42 150.41C244.56 150.34 244.71 150.82 244.85 150.82L245.33 150.76C245.47 150.76 245.56 151.03 245.75 151.38L247.8 150.46L248.16 151.01L250.76 149.8L251.16 150.43C251.24 150.53 251.59 150.26 251.66 150.33L252.09 150.81L254.66 149.61L255.07 150.34L257.08 149.4C257.23 149.57 257.37 149.95 257.51 149.88L258.16 149.61L258.66 149.37C258.8 149.3 258.94 149.75 259.07 150.03L260.33 149.51L260.77 150.02L262.61 149.16L263 149.86L265.02 148.95L265.37 149.4C265.42 149.51 265.77 149.31 265.94 149.24L266.61 148.93C266.75 148.86 266.89 149.31 267.02 149.59L268.92 148.78L269.25 149.2C269.34 149.33 269.66 149.14 269.83 149.07L271.9 148.11L272.29 148.81L275.64 147.25L275.96 147.71C276.04 147.81 276.24 147.71 276.46 147.61L278.46 146.65C278.52 146.62 278.8 146.8 278.8 146.86L278.97 147.22C279 147.27 279.18 147.22 279.26 147.19L280.28 146.75C280.49 146.99 280.72 147.19 280.89 147.18C280.99 147.17 281.24 147.05 281.26 147.11L281.43 147.47C281.46 147.53 281.64 147.71 281.7 147.69L282.22 147.48C282.33 147.43 282.53 147.85 282.65 147.89C282.76 147.91 283.12 147.74 283.22 147.86L283.57 148.38C283.66 148.51 284.07 148.15 284.2 148.19C284.32 148.24 284.49 148.53 284.62 148.57C284.73 148.59 285.01 148.53 285.1 148.51C285.2 148.51 285.26 148.71 285.38 148.96L285.75 149.1C286 148.98 286.23 148.81 286.28 148.92L286.54 149.41L286.84 150.05C286.91 150.19 287.28 149.98 287.51 149.94L288.98 153.09L288.44 153.48L289.38 155.49L288.74 155.86C288.57 155.94 288.93 156.42 288.98 156.6L289.21 157.1C289.26 157.21 288.79 157.37 288.79 157.5L288.86 158.01C288.86 158.15 288.59 158.24 288.23 158.41L288.8 159.71L288.34 160.03C288.27 160.1 288.39 160.28 288.51 160.53L288.39 160.93L287.32 161.33L287.45 162.05L280.16 165.45L279.81 165C279.72 164.87 279.41 165.08 279.2 165.15L278.53 165.46C278.42 165.51 278.26 164.87 278.16 164.89L277.61 164.94L277.17 164.5L275.94 165.07L275.55 164.37L274.91 164.6C274.8 164.65 274.63 164.29 274.51 164.11L273.23 164.71C273.07 164.45 272.93 164.07 272.77 164.08C272.54 164.08 272.31 164.19 272.27 164.11L271.94 163.69L270.67 164.25L270.32 163.63C270.25 163.49 269.89 163.73 269.72 163.81L269.08 164.11C268.94 164.18 268.79 163.77 268.64 163.6L267.38 164.19L266.97 163.46L265.71 164.05L265.39 163.59C265.31 163.49 264.99 163.67 264.71 163.8L264.27 163.15L263.77 163.25C263.65 163.28 263.51 163 263.35 162.8L260.75 164.01L260.34 163.28L259.08 163.87L258.76 163.41C258.68 163.31 258.36 163.5 258.16 163.59L257.49 163.9C257.35 163.96 257.25 163.53 257.11 163.23L255.77 163.79L255.45 163.33C255.37 163.23 255.05 163.42 254.85 163.51L254.18 163.82C254.04 163.89 253.88 163.32 253.76 163.13L252.46 163.7L252.16 163.27C252.07 163.14 251.77 163.31 251.47 163.46L251.02 162.79L249.75 163.35C249.63 163.17 249.46 162.8 249.35 162.86L248.7 163.13L248.2 163.37C248.06 163.44 247.94 163.02 247.79 162.71L246.45 163.27C246.34 163.12 246.16 162.73 246.05 162.78L245.4 163.05L244.9 163.29C244.76 163.36 244.62 162.91 244.49 162.63L242.59 163.45L242.15 162.94L240.93 163.54L240.54 162.84L239.93 163.06C239.78 163.1 239.62 162.76 239.49 162.55L236.28 164.05L236.88 165.4L236.17 165.77L237.04 167.64C236.86 167.76 236.47 167.94 236.52 168.05L236.79 168.7C236.88 168.9 237.11 169.23 237 169.29L236.42 169.66C236.29 169.75 236.71 170.21 236.61 170.28L236.24 170.73C236.14 170.81 236.36 171.22 236.25 171.27L235.68 171.64C235.58 171.72 236.01 172.2 235.91 172.28L235.42 172.68L236.63 175.28L235.9 175.69L236.49 176.95C236.32 177.1 235.92 177.25 235.98 177.39L236.27 178.01L236.49 178.55C236.56 178.69 236.1 178.8 235.83 178.96L236.65 180.86L236.23 181.19C236.1 181.28 236.29 181.54 236.45 181.87L235.73 182.3L236.58 184.11L236.06 184.52L237 186.53L236.27 186.94L237.13 188.78L236.67 189.1C236.54 189.19 236.74 189.54 236.82 189.71L237.15 190.34C237.2 190.45 237.59 190.27 237.82 190.23L238.74 192.21L239.41 191.97C239.53 191.95 239.69 192.35 239.83 192.35C239.98 192.38 240.28 192.31 240.41 192.35C240.5 192.41 240.66 192.81 240.75 192.87C240.86 192.96 241.27 192.6 241.35 192.69L241.79 193.06C241.9 193.14 242.3 192.92 242.37 193.06L242.71 193.65L243.98 193.09L244.29 193.53C244.38 193.66 244.66 193.46 245 193.3L245.44 194.02L246.67 193.45L247 193.87C247.08 193.97 247.4 193.85 247.62 193.82L247.99 194.46L249.25 193.87C249.4 194.04 249.55 194.44 249.69 194.38L250.3 194.09L250.84 193.87C250.98 193.8 251.08 194.24 251.22 194.54L252.56 193.98C252.69 194.12 252.85 194.52 252.99 194.46L253.6 194.17L254.14 193.95C254.28 193.88 254.38 194.31 254.52 194.62L256.6 193.69C256.72 193.87 256.9 194.26 257.01 194.21L257.65 193.91L258.19 193.69C258.3 193.64 258.43 194.06 258.57 194.36L259.91 193.8C260.02 193.95 260.2 194.34 260.31 194.29L260.95 193.99L261.47 193.78C261.61 193.71 261.73 194.13 261.88 194.44L263.79 193.58C263.91 193.76 264.06 194.1 264.22 194.06L264.85 193.87C264.97 193.85 265.05 194.45 265.19 194.46C265.34 194.49 265.59 194.37 265.79 194.28L266.43 193.98C266.57 193.91 266.72 194.32 266.87 194.49L268.13 193.9L268.5 194.54C268.55 194.65 268.94 194.4 269.1 194.36L269.74 194.06C269.88 193.99 270.03 194.4 270.18 194.57L271.44 193.98L271.81 194.62C271.86 194.73 272.23 194.49 272.39 194.41L273.05 194.14C273.19 194.08 273.34 194.48 273.48 194.62L274.79 194.08L275.12 194.71C275.17 194.82 275.54 194.58 275.7 194.51L276.36 194.24C276.5 194.17 276.65 194.58 276.79 194.72L278.69 193.9L279.02 194.53C279.07 194.64 279.44 194.4 279.63 194.31L280.29 194.04C280.4 193.99 280.58 194.38 280.7 194.56L282.71 193.62L283.1 194.32L284.37 193.76L284.67 194.2L285.26 194.16L285.6 194.68C285.69 194.81 286.12 194.47 286.25 194.55C286.37 194.6 286.57 194.81 286.65 194.91C286.72 194.98 287.14 194.79 287.22 194.88L287.59 195.39C287.66 195.53 287.99 195.3 288.3 195.16L288.91 196.4L289.56 196.26L290.43 198.13L291.2 197.81L292.15 199.85L291.42 200.26L292.01 201.52L291.59 201.85C291.49 201.93 291.63 202.24 291.66 202.43L291.01 202.87L291.27 203.43C291.29 203.55 290.9 203.74 290.86 203.86C290.82 203.98 291 204.37 290.89 204.43L290.34 204.79C290.21 204.88 290.66 205.32 290.57 205.43L290.05 205.84L290.63 207.1L290.01 207.46C289.9 207.51 290.12 207.92 290.04 208.02L289.69 208.36C289.61 208.47 289.75 208.71 289.92 209.07L288.68 209.68L288.81 210.33L285.52 211.87L285.19 211.45C285.11 211.35 284.8 211.49 284.55 211.54L283.95 210.26L281.94 211.2L282.05 211.87L280.29 212.69L279.88 212.17L277.87 213.11L277.49 212.37L275.62 213.24C275.47 213.07 275.33 212.69 275.18 212.73L274.57 213.02L274.03 213.24C273.89 213.31 273.8 212.9 273.65 212.57L272.32 213.15L272 212.69C271.92 212.59 271.6 212.78 271.4 212.87L270.76 213.17C270.58 213.22 270.43 212.68 270.31 212.5L268.29 213.41L267.96 212.99C267.88 212.89 267.6 213.02 267.35 213.07L266.97 212.4L265 213.35L264.6 212.79L262.76 213.65L262.34 212.96L261.74 213.2C261.59 213.24 261.46 212.89 261.3 212.69L260.04 213.28L259.63 212.55L257.77 213.45L257.4 212.88L254.78 214.1L254.41 213.39L252.39 214.3C252.24 214.13 252.1 213.76 251.96 213.82L251.3 214.09L250.8 214.32C250.66 214.39 250.54 213.9 250.4 213.76C250.32 213.66 249.94 213.87 249.85 213.81L249.43 213.36L248.16 213.92L247.79 213.21L246.53 213.8L246.18 213.35C246.09 213.22 245.81 213.42 245.5 213.57L245.06 212.86L243.8 213.45C243.65 213.28 243.5 212.88 243.36 212.94L242.73 213.2L242.2 213.45C242.06 213.51 241.91 212.91 241.8 212.89L241.28 212.93L240.84 212.49L239.57 213.05L239.24 212.42C239.17 212.28 238.78 212.53 238.64 212.6L237.99 212.87C237.85 212.93 237.71 212.56 237.56 212.39L236.26 212.96L235.93 212.33C235.87 212.19 235.47 212.44 235.33 212.51L234.67 212.78C234.53 212.85 234.39 212.47 234.24 212.3L232.98 212.89L232.55 212.17L231.95 212.42C231.81 212.49 231.67 212.11 231.52 211.94L230.25 212.5L229.89 211.88C229.83 211.74 229.46 211.98 229.29 212.06L228.65 212.36C228.5 212.4 228.36 212.02 228.24 211.84L226.97 212.4L226.55 211.78C226.51 211.7 226.13 211.98 226.07 211.9L225.64 211.42L224.4 211.96L224.05 211.34C224 211.23 223.58 211.49 223.41 211.5C223.29 211.53 223.13 211.12 223.01 211.15L222.39 211.2L221.82 209.97L221.07 210.25L220.73 209.66C220.68 209.55 220.32 209.72 220.09 209.76L219.23 207.92L218.45 208.22L217.85 206.94L218.58 206.53L216.39 201.84C216.57 201.72 216.96 201.54 216.91 201.43L216.61 200.79C216.56 200.61 216.29 200.26 216.43 200.19L217.05 199.83L216.5 198.59L216.94 198.15C217.04 198.07 216.79 197.68 216.89 197.6L217.42 197.29C217.56 197.22 217.33 196.89 217.24 196.69L216.94 196.05C216.92 195.93 217.28 195.76 217.46 195.64L216.86 194.36L217.6 193.98L217.01 192.72L217.46 192.37C217.56 192.29 217.39 192 217.25 191.69L217.89 191.25L217.81 190.78C217.79 190.66 218.05 190.5 218.26 190.37L217.67 189.11L218.4 188.7L217.19 186.1L217.64 185.75C217.74 185.67 217.57 185.37 217.43 185.07L218.14 184.64L217.54 183.43L218.09 183L216.88 180.4L217.54 180.06C217.67 179.97 217.4 179.62 217.35 179.43L217.05 178.79C217 178.68 217.39 178.5 217.57 178.38L216.7 176.51L217.43 176.1L216.51 174.12L216.93 173.79C217.03 173.71 216.9 173.43 216.85 173.18L217.52 172.8L215.68 168.93L216.22 168.48L215.31 166.53L214.67 166.69L214.08 165.43L213.41 165.67C213.3 165.72 213.13 165.29 212.99 165.29L212.5 165.35C212.36 165.35 212.27 165.08 212.12 164.75L211.33 165.02L210.78 163.78L210.1 163.93L208 159.44L208.48 159.01C208.61 158.92 208.16 158.48 208.29 158.39L208.84 158.03C208.95 157.98 208.73 157.57 208.81 157.47L209.16 157.13C209.26 157.05 209.1 156.78 208.95 156.45L210.21 155.8C210.17 155.58 209.98 155.23 210.12 155.16L210.75 154.83L211.25 154.6C211.39 154.53 211.15 154.17 211 153.84L213.61 152.59C213.57 152.37 213.39 152.05 213.52 151.95L214.07 151.59C214.17 151.51 213.8 151.07 213.89 150.99L214.26 150.55C214.33 150.48 214.19 150.18 214.22 150.09C214.22 149.95 214.49 149.86 214.84 149.67L214.27 148.37C214.45 148.25 214.81 148.08 214.75 147.94L214.49 147.31L214.24 146.78C214.22 146.66 214.61 146.54 214.94 146.39L214.02 144.34L214.52 143.87L213.71 142.07L214.34 141.74C214.45 141.69 214.21 141.32 214.13 141.16L213.85 140.48C213.8 140.37 214.19 140.19 214.37 140.07L212.81 136.72L213.54 136.31L212.65 134.48L213.21 134.08L212 131.48L212.73 131.07L207.72 120.39L207.08 120.69C206.94 120.76 206.8 120.31 206.72 120.14L206.41 119.47C206.39 119.35 206.77 119.23 207.11 119.07L205.91 116.43L206.36 116.08C206.46 116 206.29 115.71 206.14 115.4L206.76 114.98L206.68 114.51C206.68 114.37 206.95 114.21 207.13 114.1L206.59 112.79L207.22 112.46C207.33 112.41 206.99 111.96 207.06 111.82C207.1 111.7 207.33 111.52 207.42 111.42C207.52 111.34 207.3 110.93 207.39 110.85L207.94 110.49C208.04 110.41 207.71 109.99 207.78 109.85C207.82 109.73 208.05 109.56 208.14 109.45C208.24 109.37 208.02 108.96 208.11 108.88L208.66 108.52C208.76 108.44 208.55 108.13 208.39 107.8L209.66 107.17L209.55 106.64L209.93 106.22L209.77 105.58C209.73 105.43 210.25 105.29 210.44 105.2L210.93 104.94C211.06 104.85 210.86 104.5 210.82 104.28L216.04 101.85L216.39 102.3C216.47 102.4 216.8 102.24 216.99 102.12L217.66 101.81C217.83 101.73 217.93 102.47 218.11 102.41L218.72 102.26C218.87 102.22 219.02 102.53 219.15 102.74L220.42 102.18L220.76 102.77C220.81 102.88 221.25 102.64 221.33 102.74L221.77 103.11C221.85 103.21 222.29 102.84 222.37 102.93L222.73 103.48C222.81 103.58 223.17 103.41 223.32 103.44C223.44 103.49 223.6 103.89 223.74 103.82L224.35 103.6L224.74 104.3L226 103.71L226.33 104.13C226.41 104.23 226.72 104.09 226.91 104.06L227.31 104.69L227.92 104.47C228.06 104.4 228.2 104.85 228.36 104.84L228.93 104.81C229.07 104.81 229.14 105.4 229.26 105.37L229.88 105.18C230 105.16 230.17 105.52 230.3 105.56C230.42 105.61 230.81 105.42 230.89 105.52L231.23 106.11L232.47 105.56L232.82 106.01C232.9 106.11 233.19 105.94 233.5 105.8L233.92 106.49L235.22 105.92C235.34 106.1 235.48 106.48 235.62 106.41L236.28 106.14L236.78 105.91C236.92 105.84 237.05 106.26 237.19 106.57L238.5 106.03L238.82 106.43C238.91 106.56 239.19 106.43 239.41 106.39L239.81 107.02L241.81 106.12C241.96 106.29 242.1 106.67 242.24 106.6L242.89 106.33L243.39 106.1C243.53 106.03 243.66 106.45 243.77 106.77L245.11 106.21C245.24 106.35 245.4 106.76 245.54 106.69L246.19 106.42L246.69 106.19C246.83 106.12 246.97 106.57 247.1 106.85L249 106.03L249.33 106.45C249.42 106.58 249.74 106.39 249.94 106.3L250.58 106C250.75 105.92 250.91 106.49 251.03 106.67L253.04 105.73L253.42 106.26L255.3 105.41L255.63 106.04C255.69 106.18 256.06 105.94 256.23 105.86L256.88 105.59C257.02 105.52 257.16 105.9 257.31 106.07L259.91 104.86L260.32 105.59L261.6 104.99C261.73 105.2 261.87 105.58 262.01 105.51L262.65 105.21L263.17 105C263.31 104.93 263.44 105.35 263.61 105.65L266.14 104.51C266.25 104.46 266.46 104.97 266.58 104.95C266.73 104.91 267.05 104.8 267.3 104.68L267.81 104.47C267.95 104.41 268.08 104.82 268.22 105.13L270.24 104.22L270.69 104.76L272.24 104C272.32 103.96 272.53 103.9 272.56 103.95L272.75 104.44L273.13 104.53L274.16 104.05L274.47 104.49C274.54 104.56 274.77 104.49 274.9 104.39L276.55 103.62L276.96 104.35L279.53 103.15L279.86 103.57C279.94 103.67 280.29 103.54 280.44 103.5L280.88 104.15L282.15 103.59L282.43 104.04C282.47 104.12 282.68 103.99 282.93 103.87L283.31 103.96L283.5 104.45C283.53 104.51 283.71 104.45 283.79 104.42L284.8 103.95L285.21 104.4C285.32 104.48 285.7 104.27 285.76 104.35C285.85 104.47 286.02 104.98 286.16 104.91L286.82 104.64L287.45 105.91L287.96 105.77L288.39 106.18L289.01 105.99C289.13 105.97 289.25 106.35 289.33 106.52L289.66 107.15C289.73 107.29 290.1 107.08 290.32 107.05L291.24 109.03L292.03 108.76L292.48 109.81C292.56 109.98 292.97 109.92 293.22 109.87L294.07 111.62L294.03 111.53Z" fill="#90BEFB"/>
<path d="M169.95 154.8L169.25 155.26L172.25 161.61C172.33 161.78 172 162.03 171.78 162.2L172.71 164.18L172.08 164.58C172.01 164.65 172.25 165.01 172.18 165.08L171.73 165.5L172.61 167.54L172.01 167.85C171.87 167.92 172.11 168.28 172.18 168.45L172.45 169.1C172.51 169.24 172.14 169.38 171.97 169.53L172.53 170.8L171.83 171.19L172.68 173.08C172.53 173.18 172.13 173.37 172.19 173.48L172.46 174.13C172.55 174.33 172.78 174.66 172.64 174.73L172.07 175.1C171.97 175.18 172.4 175.66 172.3 175.74L171.78 176.15L172.64 177.99L171.91 178.4L172.86 180.37L172.32 180.82L172.91 182.08L172.27 182.38C172.14 182.47 172.38 182.84 172.46 183.01L172.73 183.66C172.78 183.77 172.39 183.95 172.25 184.09L173.08 185.95L172.46 186.3C172.32 186.37 172.56 186.73 172.64 186.9L172.91 187.56C172.98 187.7 172.6 187.84 172.4 188L173.61 190.6C173.37 190.75 172.9 190.9 172.98 191.06L173.17 191.62C173.19 191.74 172.86 191.9 172.68 192.02L173.54 193.93L172.9 194.23C172.76 194.29 173.01 194.69 173.09 194.85L173.36 195.5C173.41 195.61 173.02 195.79 172.87 195.9L173.78 197.92L173.08 198.31L173.67 199.57L173.25 199.9C173.15 199.98 173.27 200.3 173.29 200.49L172.69 200.87L172.91 201.48C172.95 201.63 172.57 201.77 172.43 201.91L173.26 203.77L172.56 204.16L173.77 206.76L173.23 207.22L174.16 209.2L173.52 209.5C173.39 209.59 173.63 209.96 173.71 210.13L173.98 210.78C174.03 210.89 173.6 211.06 173.57 211.21C173.51 211.31 173.75 211.74 173.64 211.79L173.07 212.02C172.96 212.07 172.81 211.67 172.67 211.53L170.05 212.75L170.95 214.68C171.2 214.56 171.62 214.3 171.73 214.45L172.03 214.95C172.08 215.06 172.42 214.91 172.65 214.83L173.25 216.11L173.93 215.83C174.04 215.78 174.31 216.2 174.22 216.31C174.14 216.42 173.88 216.53 173.56 216.72L174.44 218.76L174.05 219.08C173.95 219.16 174.07 219.48 174.1 219.7L173.46 220.07L174.37 222.02L173.85 222.5L174.71 224.34L174.07 224.64C173.93 224.71 174.18 225.1 174.26 225.26L174.53 225.92C174.58 226.03 174.22 226.2 174.04 226.32L174.64 227.61L173.9 227.99L174.83 229.97L174.31 230.38L174.87 231.65L174.25 232.01C174.11 232.07 174.35 232.44 174.43 232.61L174.7 233.26C174.77 233.4 174.39 233.54 174.22 233.69L176.33 238.21L175.6 238.62L176.2 239.9L176.98 239.61L178.2 242.23L177.47 242.64L178.38 244.6L177.88 245.07L178.71 246.93L178.07 247.23C177.93 247.29 178.17 247.66 178.31 247.97L177.05 248.62L177.17 249.11L176.77 249.57L176.92 250.18C176.98 250.32 176.57 250.45 176.39 250.57C176.29 250.65 176.53 251.01 176.44 251.12L176.02 251.52L176.23 252.2L175.67 252.53C175.55 252.62 175.73 252.95 175.76 253.17L174.52 253.78L174.8 254.53L167.54 257.92L167.23 257.25C167.18 257.14 166.7 257.5 166.56 257.42C166.44 257.38 166.26 257.15 166.16 257.06C166.08 256.96 165.67 257.18 165.59 257.09L165.25 256.57C165.16 256.44 164.76 256.69 164.61 256.73C164.48 256.75 164.33 256.35 164.19 256.35L163.6 256.39L163.22 255.79L162.62 256.03C162.5 256.06 162.33 255.62 162.2 255.65H161.62C161.48 255.65 161.39 255.08 161.28 255.13L160.64 255.29C160.53 255.34 160.37 255.01 160.23 254.84L158.96 255.4L158.62 254.81C158.55 254.67 158.18 254.88 158.05 254.84C157.91 254.77 157.74 254.4 157.63 254.45L156.99 254.61C156.88 254.66 156.77 254.07 156.65 254.09H156.07C155.97 254.09 155.83 253.79 155.75 253.76C155.64 253.68 155.4 253.82 155.04 253.99L153.44 250.63L152.8 250.79L150.07 244.93L149.29 245.23L147.1 240.54L146.48 240.73L144.36 236.18L143.58 236.48L140.16 229.14L139.52 229.3L138.04 226.12L137.26 226.42L134.45 220.39L133.81 220.55L131.36 215.3L130.58 215.59L127.55 209.01L126.86 209.13L125.03 205.19L124.25 205.49L121.16 198.87L120.52 199.03L117.78 193.17L117 193.47L114.25 187.51L113.56 187.63L110.2 180.43L109.42 180.73L107.61 176.78L106.94 176.96L103.23 169L102.46 169.32L101.25 166.65L101.93 166.3L101.06 164.29C101.37 164.08 101.48 163.65 101.5 163.41C101.5 163.27 101.87 163.1 101.92 163.01C101.99 162.87 101.88 162.62 101.8 162.39L102.2 161.86C102.2 161.7 102.05 161.39 102.13 161.35L102.69 161.09C102.83 161.02 102.95 161.51 103.02 161.65L103.37 162.26C103.42 162.37 103.8 162.16 103.94 162.23C104.06 162.28 104.23 162.64 104.39 162.6L104.99 162.42C105.14 162.38 105.21 162.96 105.35 162.97L105.92 162.94C106.02 162.93 106.16 163.24 106.26 163.29C106.38 163.33 106.61 163.23 107 163.05L111.04 171.7L111.72 171.62L113.19 174.77L113.98 174.5L117.98 183.07L118.67 183.02L121.74 189.61L122.52 189.31L125.27 195.2L125.9 195.01L129.61 202.97L130.39 202.67L132.23 206.61L132.87 206.45L135.04 211.11L135.82 210.82L138.28 216.1L138.96 216.02L140.8 219.89L141.44 219.59C141.55 219.54 141.73 219.93 141.74 220.1C141.74 220.24 141.4 220.32 141.06 220.45L142.63 223.9L143.41 223.6L144.61 226.17L145.26 226.04L147.37 230.56L148.15 230.26L150.94 236.23L151.59 236.1L153.43 240.04L154.21 239.74L156.32 244.26C156.42 244.25 156.86 244.18 156.85 244.08L156.73 243.46L157.4 243.08L156.81 241.82L157.26 241.47C157.36 241.39 157.19 241.09 157.04 240.79L157.75 240.36L157.18 239.13L157.67 238.66L156.85 236.83L157.48 236.5C157.62 236.43 157.35 236.08 157.3 235.9L157 235.26C156.94 235.12 157.34 234.97 157.52 234.85L156.57 232.81L157.31 232.43L156.42 230.6L156.97 230.17L156.05 228.19L156.78 227.78L155.91 225.91C156.09 225.79 156.48 225.61 156.43 225.5L156.13 224.86L155.91 224.31C155.86 224.2 156.25 224.09 156.58 223.93L155.67 221.91L156.19 221.5L155.35 219.62L155.98 219.29C156.12 219.23 155.85 218.87 155.8 218.69L155.5 218.05C155.43 217.91 155.84 217.76 156.01 217.61L155.42 216.35L156.06 215.98C156.17 215.93 155.93 215.56 155.88 215.38L155.58 214.74C155.52 214.6 155.92 214.45 156.09 214.3L155.5 213.04L156.23 212.63L155.64 211.37C155.81 211.22 156.19 211.08 156.15 210.93L155.85 210.29L155.64 209.78C155.57 209.64 155.96 209.53 156.31 209.4L155.1 206.73C155.27 206.58 155.64 206.44 155.61 206.29L155.32 205.68L155.1 205.14C155.04 205 155.44 204.92 155.77 204.76L155.19 203.43C155.37 203.31 155.74 203.14 155.71 203.02L155.41 202.38L155.19 201.84C155.14 201.73 155.53 201.62 155.86 201.46L154.94 199.41C155.08 199.28 155.47 199.09 155.45 198.97L155.15 198.33C155.07 198.16 154.84 197.8 154.98 197.73L155.6 197.37L155.04 196.1C155.21 195.95 155.58 195.81 155.52 195.67L155.25 195.01L155.02 194.51C154.98 194.36 155.37 194.24 155.69 194.13L155.13 192.79C155.3 192.64 155.67 192.5 155.61 192.36L155.34 191.7L155.11 191.2C155.04 191.06 155.56 190.92 155.67 190.8C155.77 190.72 155.56 190.34 155.66 190.26L156.1 189.82L155.19 187.86L155.81 187.44C155.92 187.39 155.64 187.01 155.71 186.94L156.19 186.51L155.62 185.28L156.35 184.87L155.11 182.29L155.67 181.89L155.08 180.63L155.72 180.26C155.83 180.21 155.59 179.84 155.51 179.67L155.24 179.01C155.17 178.87 155.58 178.72 155.75 178.57L154.54 175.97L155.18 175.6C155.29 175.55 155.05 175.18 154.98 175.02L154.71 174.36C154.64 174.22 155.05 174.07 155.23 173.95L154.63 172.67L155.37 172.29L154.42 170.32L154.94 169.84L153.46 166.66L154.13 166.35C154.24 166.3 154 165.93 153.93 165.77L153.66 165.11C153.6 164.97 154 164.82 154.17 164.67L153.58 163.41L154.28 163.01L153.72 161.74L154.14 161.41C154.27 161.32 154.07 161.04 153.95 160.72L154.64 160.3L154.08 159.03L154.52 158.72L154.48 158.13L155 157.79C155.13 157.7 154.83 157.29 154.87 157.14C154.89 157.03 155.14 156.85 155.23 156.74C155.3 156.67 155.11 156.25 155.2 156.17L155.72 155.83C155.85 155.74 155.63 155.43 155.49 155.12L156.75 154.47L156.64 153.94L157.02 153.52L156.86 152.88C156.84 152.76 157.2 152.66 157.39 152.56L158.02 152.23C158.16 152.16 157.95 151.79 157.89 151.58L161.18 150.04L161.62 150.55L162.86 150.01L163.2 150.6C163.27 150.74 163.66 150.49 163.77 150.57L164.23 150.97C164.31 151.07 164.76 150.65 164.81 150.76L165.17 151.31C165.25 151.41 165.64 151.23 165.74 151.28C165.88 151.35 166.05 151.65 166.18 151.65C166.3 151.7 166.66 151.43 166.79 151.5C166.91 151.55 167.03 151.93 167.14 152.02C167.28 152.09 167.53 151.98 167.78 151.93L168.67 153.76L169.42 153.48L170.02 154.76L169.95 154.8Z" fill="#90BEFB"/>
<path d="M82.36 204.76L84.83 210.07L84.1 210.48L84.96 212.32L84.45 212.76C84.35 212.84 84.77 213.29 84.67 213.37L84.12 213.73C84.02 213.81 84.23 214.19 84.15 214.3L83.77 214.72C83.68 214.83 84.06 215.27 83.96 215.34L83.41 215.7C83.28 215.79 83.47 216.12 83.5 216.34L82.21 217.01C82.38 217.3 82.61 217.64 82.48 217.73L81.98 217.96L81.35 218.29C81.21 218.36 81.41 218.71 81.44 218.93L77.53 220.75C77.38 220.58 77.24 220.2 77.1 220.27L76.45 220.54C76.28 220.62 75.92 220.86 75.85 220.72L75.5 220.11L74.23 220.67C74.08 220.5 73.94 220.13 73.8 220.19L73.14 220.46C72.97 220.54 72.64 220.76 72.54 220.64L72.2 220.12H71.59L71.29 219.7L70.03 220.28L69.64 219.58L68.34 220.15C68.22 219.97 68.08 219.59 67.94 219.65L67.29 219.92C67.12 220 66.76 220.24 66.69 220.1L66.33 219.48L64.31 220.39C64.18 220.25 64.02 219.84 63.88 219.91L63.23 220.18C63.06 220.26 62.7 220.5 62.63 220.36L62.3 219.73L61.07 220.3L60.62 219.76L58.78 220.62L58.38 219.92L57.11 220.48C56.96 220.31 56.84 219.96 56.68 220L56.04 220.23L55.66 219.56L53.82 220.42C53.67 220.25 53.52 219.85 53.38 219.91L52.73 220.18C52.56 220.26 52.2 220.5 52.13 220.36L51.82 219.76L50.58 220.3L50.14 219.79L48.13 220.73L47.75 219.99L46.47 220.59C46.35 220.41 46.17 220.02 46.06 220.07L45.4 220.34C45.2 220.43 44.84 220.67 44.79 220.56L44.49 219.92L43.15 220.48C43.04 220.32 42.86 219.93 42.75 219.98L42.09 220.25C41.89 220.34 41.53 220.58 41.48 220.47L41.18 219.83L39.26 220.66C39.12 220.52 38.97 220.11 38.83 220.18L38.19 220.48C38.01 220.53 37.64 220.77 37.59 220.66L37.26 220.03L35.95 220.57C35.82 220.43 35.66 220.02 35.52 220.09L34.88 220.39C34.7 220.44 34.37 220.69 34.28 220.57L33.93 219.96L31.93 220.86C31.78 220.69 31.61 220.33 31.49 220.35L30.83 220.62C30.66 220.7 30.3 220.87 30.32 220.99L30.47 221.53L28.59 222.44C28.73 222.75 28.96 223.08 28.82 223.15L28.31 223.52C28.21 223.6 28.41 224.02 28.34 224.09C28.24 224.17 28 224.38 27.98 224.49C27.91 224.63 28.24 225.05 28.11 225.14L27.59 225.49C27.49 225.57 27.69 225.99 27.62 226.06C27.52 226.14 27.28 226.35 27.27 226.46C27.2 226.59 27.53 227.02 27.4 227.11L26.88 227.45L26.92 228.04L26.48 228.34L27.02 229.65C26.71 229.79 26.3 229.92 26.36 230.06L26.59 230.56L26.86 231.21C26.92 231.35 26.55 231.49 26.37 231.61L26.94 232.91L26.25 233.33C26.36 233.65 26.56 233.93 26.44 234.02L26 234.33L26.57 235.63L25.86 236L26.73 237.87C26.52 238 26.18 238.16 26.21 238.28L26.43 238.82C26.48 239 25.98 239.17 25.77 239.3L26.61 241.18C26.46 241.29 26.07 241.47 26.12 241.58L26.39 242.24C26.47 242.41 26.71 242.77 26.61 242.85L25.95 243.19L26.52 244.49C26.37 244.6 25.98 244.78 26.03 244.89L26.3 245.55C26.38 245.72 26.63 246.11 26.52 246.16L25.85 246.47L27.45 249.9C27.81 249.73 28.11 249.56 28.19 249.66L28.51 250.12L29.79 249.52L30.17 250.26L31.45 249.66C31.57 249.84 31.74 250.21 31.86 250.18L32.5 249.88C32.67 249.8 33.06 249.55 33.13 249.69L33.43 250.33L35.34 249.47C35.47 249.61 35.63 250.02 35.75 249.99L36.42 249.68C36.59 249.6 36.95 249.36 37.02 249.5L37.35 250.13L38.59 249.59L39.03 250.1L41.67 248.91C41.81 249.22 41.94 249.63 42.05 249.58L42.58 249.33L43.24 249.06C43.35 249.01 43.53 249.4 43.64 249.55L45.73 248.64C45.87 248.95 45.97 249.38 46.11 249.31L46.64 249.06L47.29 248.79C47.4 248.74 47.56 249.14 47.69 249.28L49.03 248.72C49.17 249.03 49.27 249.46 49.41 249.39L49.94 249.14L50.57 248.88C50.71 248.82 50.86 249.22 51 249.36L53.67 248.15C53.83 248.48 53.92 248.92 54.06 248.85L54.59 248.6L55.22 248.34C55.36 248.28 55.5 248.65 55.65 248.82L56.92 248.26L57.31 248.96L59.15 248.1L59.6 248.63L61.54 247.69L61.95 248.42L63.82 247.55L64.19 248.13L68.11 246.27L68.52 247L70.53 246.06L70.96 246.61L72.22 246.03C72.39 246.39 72.48 246.66 72.62 246.66L73.12 246.63C73.25 246.61 73.4 247.01 73.54 247.01C73.68 247.01 74.07 246.69 74.15 246.79L74.51 247.34C74.59 247.44 74.95 247.27 75.08 247.31C75.2 247.35 75.39 247.75 75.5 247.69L76.12 247.5C76.27 247.46 76.33 248.08 76.48 248.05L77.12 247.96L77.98 249.8L78.76 249.5L80.61 253.47L79.88 253.88L81.09 256.48L80.57 256.89L81.13 258.16C80.8 258.32 80.41 258.43 80.47 258.57L80.71 259.24L79.47 259.85C79.51 260.07 79.7 260.42 79.59 260.47L78.93 260.81C78.76 260.89 78.35 261.01 78.41 261.15L78.68 261.8L76.84 262.66L76.93 263.37L73.66 264.89L73.23 264.34L71.39 265.2C71.23 264.86 71.13 264.5 70.98 264.54L70.36 264.73L69.93 264.32L69.47 264.43L69.03 263.78C68.72 263.92 68.46 264.08 68.34 263.97L68.02 263.64C67.94 263.54 67.51 263.78 67.45 263.66L67.1 263.05L65.84 263.64L65.41 263.09L64.19 263.69L63.75 262.97C63.44 263.11 63.15 263.28 63.07 263.19L62.75 262.73L61.42 263.31C61.26 262.98 61.15 262.59 61.04 262.64L60.5 262.86L59.86 263.16C59.73 263.18 59.57 262.82 59.45 262.64L58.12 263.22C57.96 262.88 57.85 262.5 57.74 262.55L57.2 262.77L56.56 263.07C56.45 263.12 56.27 262.73 56.15 262.55L54.31 263.41L53.85 262.71C53.54 262.85 53.25 263.03 53.17 262.93L52.86 262.49L51.52 263.05C51.38 262.74 51.25 262.33 51.14 262.38L50.6 262.6L49.96 262.9C49.85 262.95 49.67 262.56 49.56 262.41L48.22 262.97C48.08 262.66 47.98 262.23 47.84 262.3L47.3 262.52L46.69 262.81C46.55 262.88 46.37 262.48 46.26 262.33L44.34 263.16C44.2 262.85 44.07 262.44 43.96 262.49L43.42 262.71L42.78 263.01C42.67 263.06 42.49 262.67 42.37 262.49L41.09 263.09L40.71 262.35L38.7 263.29C38.54 263.09 38.39 262.92 38.29 262.84C38.19 262.78 37.83 262.95 37.72 262.87C37.61 262.78 37.47 262.27 37.36 262.32L36.81 262.54L36.17 262.84C36.06 262.89 35.88 262.5 35.76 262.32L33.75 263.26L33.38 262.62C33.16 262.66 32.84 262.77 32.76 262.67L32.44 262.28L31.13 262.82C30.99 262.51 30.86 262.1 30.75 262.15L30.22 262.4L29.57 262.67C29.46 262.72 29.29 262.36 29.16 262.15L25.84 263.7C25.9 263.98 26.03 264.26 25.93 264.34L25.51 264.67L26.09 265.93L25.35 266.31L25.95 267.59C25.77 267.71 25.38 267.89 25.43 268L25.7 268.66C25.78 268.83 26.03 269.22 25.92 269.27L25.28 269.57L26.16 271.61L25.75 272.04C25.65 272.12 25.87 272.53 25.78 272.6C25.65 272.69 25.18 272.85 25.2 272.97L25.73 274.11C25.77 274.26 25.36 274.42 25.22 274.55L26.14 276.6C25.83 276.74 25.42 276.87 25.45 277.02L25.98 278.17C26.02 278.32 25.64 278.46 25.46 278.58L26.04 279.9C25.7 280.06 25.32 280.17 25.38 280.31L25.59 280.82L25.89 281.46C25.93 281.61 25.55 281.75 25.37 281.87L26.24 283.74L25.51 284.15L26.1 285.41C25.93 285.56 25.52 285.71 25.59 285.85L25.89 286.49C25.94 286.67 26.21 287.02 26.07 287.09L25.42 287.46L26.34 289.44L25.81 289.83L26.67 291.67C26.88 291.61 27.24 291.44 27.33 291.56L27.62 292.17C27.71 292.37 27.83 292.75 27.97 292.69L28.62 292.49C28.74 292.47 28.85 293.06 28.98 293.04L29.55 293.01C29.69 293.01 29.86 293.45 29.98 293.42L30.61 293.16L31.25 294.46L32.6 293.86C32.77 294.22 32.87 294.51 33 294.49L33.48 294.43C33.62 294.43 33.78 294.87 33.91 294.84L34.51 294.59L34.91 295.22C35.13 295.18 35.41 295.05 35.49 295.15L35.82 295.57L37.87 294.65C38.03 294.98 38.14 295.37 38.25 295.32L38.79 295.1L39.43 294.8C39.55 294.77 39.72 295.14 39.84 295.32L41.71 294.45L42.12 295.18L43.38 294.59C43.53 294.76 43.68 295.16 43.82 295.1L44.46 294.8C44.64 294.75 44.99 294.48 45.06 294.62L45.41 295.24L47.41 294.34L47.84 294.82C47.91 294.89 48.26 294.63 48.33 294.69L48.74 295.35L50 294.76C50.15 294.93 50.29 295.31 50.44 295.27L51.08 294.97C51.22 294.9 51.61 294.65 51.68 294.79L52.03 295.41L53.3 294.85C53.45 295.02 53.59 295.39 53.73 295.33L54.33 295.08L54.77 295.8L57.37 294.59C57.49 294.77 57.66 295.13 57.77 295.08L58.43 294.81C58.6 294.73 58.99 294.48 59.05 294.62L59.35 295.26L60.65 294.69L61.09 295.2L63.6 294.03L63.51 293.39C63.5 293.29 63.93 293.19 63.9 293.07L63.67 292.36L65.75 291.42C65.91 291.75 65.99 292.09 66.15 292.05L66.68 291.94L67.29 293.18L68.03 292.87L68.64 294.18L69.97 293.6C70.09 293.78 70.23 294.16 70.37 294.09L71.03 293.82C71.2 293.74 71.56 293.5 71.65 293.63L71.95 294.27L73.83 293.43L74.27 293.94L75.54 293.38C75.68 293.69 75.78 294.05 75.91 294.03L76.55 293.87C76.66 293.82 76.84 294.28 76.97 294.25C77.09 294.23 77.4 294.15 77.51 294.24C77.63 294.28 77.77 294.8 77.88 294.75L78.52 294.59L78.94 294.97L79.47 294.86L80.08 296.1L80.82 295.79L81.42 297.07C81.66 296.99 81.99 296.84 82.07 296.94L82.37 297.51L83.14 297.26L85.61 302.57L84.91 302.97L85.45 304.21L85.01 304.65L85.05 305.17C85.03 305.28 84.44 305.46 84.49 305.57L84.79 306.21L83.49 306.85L83.68 307.48L81.06 308.7L81.41 309.45L76.77 311.61L76.42 310.86L73.79 312.08L73.38 311.56L72.11 312.12L71.81 311.48C71.75 311.34 71.35 311.59 71.19 311.67L70.55 311.97C70.43 311.99 70.26 311.63 70.14 311.45L68.84 312.02L68.51 311.39C68.42 311.26 68.07 311.53 67.89 311.58L67.25 311.88C67.14 311.93 66.96 311.54 66.84 311.36L65.51 311.94L65.21 311.3C65.16 311.19 64.74 311.45 64.54 311.48C64.43 311.53 64.29 311.09 64.16 311.11L63.54 311.16L62.94 309.94L62.19 310.22L61.23 308.15L58.58 309.39L58.88 310.17L55.64 311.68L55.26 310.94L54 311.53L53.65 311.08C53.57 310.98 53.28 311.15 52.97 311.3L52.53 310.58L51.31 311.18L50.88 310.63L48.28 311.84L47.87 311.11L46.01 312.01L45.65 311.46L44.31 312.02L44.02 311.41C43.96 311.27 43.59 311.51 43.4 311.6L42.77 311.86C42.63 311.93 42.45 311.54 42.33 311.35L40.32 312.29L39.92 311.59L38.04 312.43C37.93 312.28 37.78 311.87 37.64 311.94L36.98 312.21L36.48 312.44C36.34 312.51 36.21 312.09 36.07 311.78L34.76 312.32L34.43 311.9C34.34 311.77 34.06 311.97 33.78 312.1L33.31 311.47L32.84 311.55C32.72 311.57 32.56 311.31 32.42 311.1L31.15 311.66L30.73 310.97L30.13 311.22C30.02 311.27 29.84 310.88 29.7 310.74L27.82 311.58L27.49 310.95C27.42 310.81 27.06 311.05 26.89 311.13L26.24 311.4C26.1 311.47 25.96 311.09 25.81 310.92L24.55 311.51L24.14 310.78L22.13 311.72C21.98 311.55 21.83 311.15 21.69 311.21L21.08 311.5L20.54 311.72C20.43 311.77 20.28 311.3 20.17 311.15C20.06 311.06 19.7 311.3 19.62 311.2L19.18 310.76L17.94 311.3L17.59 310.68C17.52 310.54 17.09 310.91 16.95 310.84C16.86 310.78 16.66 310.57 16.55 310.48C16.47 310.38 16.06 310.61 15.98 310.51L15.62 309.96C15.54 309.86 15.1 310.17 14.98 310.12C14.86 310.08 14.68 309.85 14.58 309.76C14.5 309.66 14.09 309.88 14.01 309.79L13.65 309.24C13.57 309.14 13.25 309.32 12.93 309.51L12.29 308.21C12.07 308.25 11.72 308.44 11.65 308.3L11.34 307.7L11.09 307.17C11 307.04 10.65 307.31 10.34 307.45L9.4 305.51L8.67 305.85L8.32 305.1L9.05 304.76L8.17 302.86L8.9 302.45L7.69 299.85C7.9 299.72 8.21 299.58 8.17 299.42L8.02 298.81C7.97 298.63 8.7 298.52 8.62 298.36L8.31 297.69C8.22 297.49 8.03 297.17 8.13 297.09L8.59 296.77L8.02 295.47C8.38 295.3 8.65 295.21 8.64 295.05L8.58 294.57C8.58 294.43 9.06 294.28 9 294.17L8.7 293.53C8.65 293.35 8.41 292.98 8.51 292.91L9.17 292.57L8.57 291.29C8.75 291.17 9.14 290.99 9.09 290.88L8.79 290.24C8.74 290.06 8.5 289.69 8.6 289.61L9.26 289.27L8.66 287.99C8.87 287.86 9.2 287.7 9.15 287.59L8.96 287.03C8.92 286.88 9.41 286.68 9.59 286.57L9.03 285.3C9.2 285.15 9.6 285 9.54 284.86L9.24 284.22C9.19 284.04 8.95 283.67 9.06 283.62L9.7 283.25L8.49 280.65C8.67 280.53 9.06 280.35 9.01 280.24L8.7 279.57C8.65 279.39 8.38 279.04 8.52 278.97L9.15 278.64L8.31 276.76C8.48 276.61 8.88 276.46 8.82 276.32L8.52 275.68C8.47 275.5 8.2 275.15 8.34 275.08L8.97 274.75L8.4 273.45C8.57 273.3 8.97 273.15 8.91 273.01L8.62 272.4C8.56 272.19 8.3 271.87 8.43 271.77L9.05 271.42L8.15 269.42C8.32 269.27 8.71 269.09 8.66 268.98L8.36 268.34C8.31 268.16 8.04 267.81 8.18 267.74L8.82 267.37L7.96 265.53L8.48 265.12L7.91 263.82C8.22 263.68 8.65 263.58 8.58 263.44L8.36 262.9L8.06 262.26C8.01 262.15 8.41 261.99 8.58 261.85L7.64 259.84L8.37 259.43L7.51 257.59C7.68 257.44 8.08 257.29 8.02 257.15L7.72 256.51C7.64 256.34 7.4 255.98 7.54 255.91L8.17 255.58L7.25 253.53C7.4 253.42 7.82 253.23 7.76 253.09L7.47 252.48C7.38 252.28 7.19 251.96 7.29 251.88L7.83 251.5L7.79 250.91L8.22 250.6L7.28 248.59L8.02 248.21L7.15 246.34C7.32 246.19 7.7 246.05 7.66 245.9L7.36 245.26C7.28 245.09 7.04 244.73 7.18 244.66L7.81 244.33L6.92 242.36L7.42 241.89L6.57 240.08L7.28 239.64C7.12 239.31 6.95 239.01 7.06 238.96L7.51 238.61L6.65 236.77L7.38 236.36L6.44 234.35L6.96 233.94L5.76 231.37L6.49 230.96L0.29 217.67L0.82 217.29L0 215.49L0.71 215.05C0.55 214.71 0.38 214.42 0.49 214.37L0.91 214.04L0.37 212.73C0.73 212.56 1 212.47 1 212.34L0.94 211.85C0.94 211.68 1.38 211.55 1.32 211.43L1.13 210.87C1.06 210.73 1.55 210.54 1.76 210.4L1.18 209.08L2.44 208.49L2.32 207.8L4.15 206.98L3.85 206.2L9.16 203.73L9.57 204.46L11.55 203.53C11.7 203.7 11.87 203.99 11.99 203.97L12.46 203.89L12.9 204.54C13.21 204.4 13.47 204.24 13.55 204.34L13.91 204.68C13.99 204.78 14.42 204.54 14.48 204.66L14.82 205.25L16.09 204.69C16.21 204.87 16.38 205.23 16.52 205.17L17.09 204.94L17.53 205.59C17.68 205.55 18.03 205.42 18.11 205.52L18.44 205.94L19.67 205.37L20.13 206.07C20.44 205.93 20.72 205.73 20.81 205.85L21.12 206.29L22.43 205.75C22.63 206.1 22.72 206.36 22.84 206.34H23.31C23.46 206.29 23.6 206.73 23.75 206.7L24.35 206.52C24.53 206.47 24.63 207.2 24.8 207.12L25.47 206.81C25.66 206.72 25.99 206.53 26.08 206.66L26.39 207.1L28.31 206.27C28.44 206.55 28.58 206.99 28.69 206.94L29.22 206.69L29.88 206.42C29.99 206.37 30.16 206.73 30.29 206.94L32.3 206L32.69 206.7L34.53 205.84L34.98 206.38L36.92 205.44L37.33 206.17L39.17 205.31L39.62 205.85L41.63 204.91C41.77 205.22 41.89 205.68 42.03 205.61L42.53 205.38L43.18 205.11C43.32 205.05 43.47 205.45 43.61 205.59L45.47 204.76L45.87 205.46L47.88 204.52C48.04 204.72 48.17 205 48.31 205L48.81 204.9L49.21 205.53L51.19 204.6C51.34 204.77 51.49 205.17 51.63 205.11L52.29 204.84C52.46 204.76 52.82 204.52 52.87 204.64L53.2 205.27L54.5 204.7L54.92 205.25L56.72 204.38L57.13 205.11L59.14 204.17C59.29 204.34 59.44 204.74 59.58 204.68L60.22 204.38C60.4 204.33 60.75 204.06 60.82 204.2L61.15 204.83L62.45 204.26C62.6 204.43 62.75 204.83 62.89 204.77L63.53 204.47C63.71 204.42 64.06 204.15 64.13 204.29L64.46 204.92L66.29 204.1L66.73 204.61L70.08 203.05L70.49 203.78L73.09 202.57L73.47 203.1L75.31 202.24L75.74 202.96C76.08 202.8 76.31 202.66 76.42 202.74L76.76 203.1C76.84 203.2 77.27 202.96 77.33 203.07L77.67 203.66L78.94 203.1C79.09 203.27 79.23 203.65 79.37 203.58L80.01 203.35L80.62 204.59C80.84 204.55 81.16 204.37 81.26 204.5L81.55 204.98C81.66 205.13 82.09 204.9 82.34 204.78" fill="#90BEFB"/>
<path d="M522.8 7.57L523.65 9.39L523.37 9.59C523.29 9.63 523.15 9.93 523.23 10.03L524.02 11.73C524.05 11.79 523.88 11.87 523.75 11.96L523.43 12.14C523.38 12.17 523.48 12.39 523.49 12.49C523.5 12.65 523.23 12.95 523.1 13.11C523.07 13.19 523.21 13.5 523.25 13.58C523.42 13.94 523 13.7 522.68 14.25C522.65 14.26 522.81 14.6 522.78 14.61L522.38 15C522.32 15.09 522.48 15.43 522.56 15.6C522.69 15.95 521.92 15.83 521.99 16.2C522.03 16.42 522.02 16.77 521.91 16.82L520.7 17.35L520.31 17.53C520.26 17.56 520.35 17.75 520.37 17.88L520.54 18.24C520.55 18.34 520.3 18.45 520.16 18.52L519.35 18.9C519.24 18.95 519.4 19.22 519.5 19.51L517.73 20.37C517.6 20.46 517.46 20.53 517.49 20.58L517.71 21.05C517.8 21.25 517.35 21.45 517.05 21.6L516.55 21.83C516.47 21.87 516.61 22.18 516.63 22.37C516.65 22.49 516.21 22.63 516.23 22.76L516.43 23.48L515.19 24.09L515.28 24.42C515.29 24.52 515.38 24.71 515.33 24.74L514.97 24.91C514.63 25.07 514.06 25.3 514.17 25.52C514.29 25.77 514.43 26.01 514.33 26.09L513.8 26.4C513.73 26.47 513.9 26.9 513.92 27.02L512.66 27.61L512.9 28.28C512.92 28.41 512.53 28.59 512.49 28.71C512.44 28.83 512.66 29.21 512.52 29.27L511.89 29.6C511.75 29.67 511.33 29.79 511.37 29.95L511.61 30.62L510.6 31.09C510.1 31.32 510.68 31.77 510.49 31.88L509.32 32.43C509.21 32.48 509.47 32.9 509.55 33.14L508.99 33.54C508.86 33.63 509.07 34.08 508.97 34.16C508.86 34.28 508.55 34.43 508.6 34.54L508.85 35.14L507.97 35.58C507.81 35.69 507.59 35.79 507.63 35.87L507.75 36.36C507.64 36.55 507.04 36.66 507.12 36.82L507.36 37.32C507.4 37.4 507.21 37.59 507.16 37.62L506.32 37.94C505.96 38.11 506.4 38.55 506.25 38.65L505.9 38.99C505.8 39.07 505.96 39.34 506.09 39.69L505.35 40.07L504.99 40.24C504.66 40.4 505.14 40.85 504.96 40.97L504.61 41.17C504.5 41.22 504.33 41.3 504.37 41.38L504.54 41.74C504.56 41.86 504.64 42.03 504.59 42.06L504.23 42.23L503.46 42.62C503.32 42.69 503.58 43.17 503.46 43.27L503.14 43.52C503.07 43.59 503.14 43.76 503.28 44.03L503.19 44.41L502.15 44.8L502.22 45.38C502.27 45.7 501.52 45.71 501.61 45.9L501.81 46.32C501.9 46.45 501.66 46.66 501.48 46.85C501.39 46.96 501.62 47.43 501.48 47.5L500.73 47.85L500.35 48.06C500.29 48.09 500.37 48.25 500.42 48.36L500.56 48.74C500.59 48.8 500.45 48.86 500.32 48.95L499.97 49.15C499.91 49.18 499.99 49.27 500.07 49.51L499.95 49.91L498.82 50.33L499.1 51.08L498.71 51.4C498.61 51.48 498.71 51.77 498.76 52.02L497.54 52.62C497.63 52.88 497.76 53.3 497.75 53.37L497.22 53.69C497.08 53.76 497.26 54.08 497.31 54.33L496.05 54.92L496.32 55.64L495.93 55.96C495.83 56.04 495.93 56.33 496.01 56.57L494.73 57.17C494.85 57.42 495.08 57.86 494.93 57.96L494.45 58.25C494.31 58.32 494.49 58.64 494.54 58.89L493.3 59.5L493.54 60.17C493.61 60.31 493.18 60.41 493.02 60.51L492.38 60.81C492.24 60.88 492.45 61.25 492.49 61.48L490.65 62.34C490.73 62.57 490.98 63.04 490.82 63.14L490.34 63.43C490.23 63.48 490.45 63.89 490.37 64L490.02 64.34C489.93 64.45 490.08 64.69 490.25 65.05L488.92 65.7L489.81 67.6L489.08 68.01L489.67 69.27L489.21 69.59C489.11 69.67 489.28 69.96 489.44 70.3L488.18 70.95L488.29 71.48C488.33 71.63 488.01 71.75 487.67 71.9L488.59 73.95C488.41 74.07 488.02 74.25 488.07 74.36L488.37 75L488.58 75.52C488.65 75.66 488.26 75.77 487.92 75.93L488.5 77.26C488.32 77.38 487.91 77.53 487.98 77.67L488.28 78.31L488.49 78.83C488.55 78.97 488.14 79.1 487.83 79.24L488.69 81.15C488.54 81.26 488.12 81.45 488.17 81.56L488.47 82.2L488.68 82.72C488.75 82.86 488.33 82.99 488.02 83.13L488.94 85.18C488.8 85.31 488.4 85.47 488.43 85.62L488.72 86.24L488.94 86.78C489.01 86.92 488.6 87.01 488.27 87.16L488.85 88.48C488.68 88.63 488.3 88.77 488.34 88.92L488.63 89.53L488.85 90.07C488.92 90.21 488.51 90.3 488.18 90.45L488.76 91.78C488.59 91.93 488.21 92.07 488.24 92.19L488.54 92.83L488.76 93.37C488.83 93.51 488.42 93.6 488.09 93.75L488.67 95.08C488.49 95.2 488.12 95.37 488.15 95.49L488.45 96.13L488.67 96.67C488.72 96.78 488.33 96.89 488 97.05L489.18 99.66L488.67 100.1L489.53 101.94L488.87 102.28C488.77 102.36 489.1 102.78 489.03 102.92C488.99 103.04 488.77 103.24 488.67 103.32C488.59 103.43 488.81 103.83 488.7 103.89L488.16 104.28C488.05 104.33 488.35 104.77 488.31 104.89C488.26 105.01 488.05 105.21 487.95 105.29C487.85 105.37 488.09 105.8 487.98 105.86L487.45 106.24C487.35 106.32 487.56 106.63 487.71 106.94L486.44 107.57L486.57 108.22L481.33 110.7L480.96 110.12L479.7 110.71L479.34 110.1C479.26 110 478.85 110.22 478.77 110.12L478.33 109.75C478.22 109.67 477.8 110.07 477.72 109.97L477.39 109.41C477.3 109.28 476.9 109.53 476.82 109.44L476.46 109.1C476.38 109 476.11 109.16 475.74 109.3L472.61 102.67L473.25 102.3C473.38 102.21 473.14 101.84 473.06 101.67L472.79 101.02C472.74 100.91 473.1 100.74 473.28 100.62L472.72 99.35L473.42 98.96L472.48 96.95C472.65 96.8 473.05 96.65 472.99 96.51L472.73 95.88L472.48 95.35C472.41 95.21 472.9 95.09 473.04 94.95C473.14 94.87 472.9 94.51 473 94.43L473.44 93.99L472.9 92.75L473.57 92.37L473.34 91.73C473.32 91.61 473.65 91.45 473.83 91.33L473.26 90.03L473.96 89.64L473.1 87.8L473.55 87.45C473.69 87.38 473.49 87.1 473.33 86.77L474.04 86.34L473.47 85.11L473.98 84.67L473.15 82.81L473.79 82.51C473.93 82.44 473.68 82.05 473.6 81.88L473.33 81.23C473.26 81.09 473.64 80.95 473.82 80.83L473.25 79.53L473.88 79.2C474.01 79.11 473.77 78.74 473.69 78.58L473.42 77.93C473.37 77.82 473.73 77.65 473.91 77.53L473.31 76.25L474.05 75.87L473.45 74.58C473.63 74.46 474.02 74.28 473.97 74.17L473.67 73.53L473.46 73.01C473.39 72.87 473.81 72.74 474.12 72.6L473.2 70.55C473.37 70.4 473.77 70.25 473.71 70.11L473.41 69.47L473.2 68.96C473.13 68.82 473.56 68.72 473.9 68.56L468.91 57.87L468.13 58.17L466.92 55.57L466.28 55.73L464.78 52.52L464.01 52.84L462.84 50.26L462.16 50.41L459.7 45.13L458.92 45.43L457.41 42.12L456.72 42.24L453.65 35.65L452.87 35.95L452.03 34.07L451.37 34.27L450.43 32.26L449.65 32.56L448.47 29.95L447.8 30.12L446.59 27.52L445.81 27.81L444.99 25.98L444.31 26.13L442.76 22.81L441.95 23.05L440.78 20.47L441.45 20.02L437.73 12.03L437.07 12.37C436.96 12.42 436.76 12 436.77 11.86C436.77 11.72 437.11 11.63 437.47 11.47L436.26 8.87C436.21 8.76 436.81 8.51 436.75 8.4L436.59 8.06L436.21 7.18L436.88 6.73L436.65 6.16C436.6 6.05 437.03 5.88 437.03 5.74L437 5.24C436.98 5.12 437.27 5.01 437.58 4.87L437.37 4.12L437.74 3.81C437.84 3.73 437.74 3.44 437.66 3.2L438.95 2.6L438.63 1.83L442.59 0L442.96 0.64C443.07 0.79 443.54 0.44 443.68 0.37L444.22 0.15C444.34 0.12 444.49 0.5 444.63 0.67L445.9 0.11L446.26 0.73C446.34 0.83 446.68 0.6 446.98 0.46L447.65 1.75L448.13 1.63L448.56 2.04L449.18 1.85C449.33 1.81 449.45 2.2 449.52 2.37L449.82 3.01C449.91 3.14 450.26 2.94 450.48 2.9L453.9 10.24L454.68 9.94L455.55 11.81L456.18 11.62L457.12 13.63L457.9 13.33L459.38 16.51L460.02 16.35L461.23 18.95L462.02 18.68L464.81 24.66L465.36 24.54C465.46 24.53 465.56 24.75 465.63 24.89L467.57 29.05L468.35 28.76L471.4 35.29L472.08 35.21L473.63 38.53L474.41 38.23L478.39 46.78L479.03 46.62L479.66 47.89L480.3 47.59C480.42 47.57 480.54 47.95 480.69 48.29L483.38 47.07L483.12 46.37C483.04 46.2 483.61 46.04 483.78 45.96L484.27 45.7C484.38 45.65 484.2 45.26 484.18 45.06L485.31 44.5C485.39 44.46 485.31 44.2 485.19 43.95L485.33 43.58L486.35 43.14L486.27 42.53C486.27 42.36 486.72 42.25 486.91 42.16L487.43 41.89C487.57 41.82 487.3 41.47 487.16 41.16L488.42 40.51C488.03 39.23 489.24 40.23 488.49 38.91L489.7 38.31L489.63 37.73C489.61 37.61 489.93 37.49 490.23 37.35L489.96 36.56L491.22 35.98C491.16 35.77 490.98 35.38 491.09 35.33L491.73 35.03C491.93 34.94 492.27 34.81 492.25 34.69C492.25 34.55 492.04 34.17 492.1 34.08C492.23 33.92 492.46 33.61 492.45 33.44C492.45 33.3 492.46 33.03 492.57 32.97L493.62 32.52L493.34 31.77L493.93 31.43C494.04 31.38 493.87 31.01 493.81 30.81L495.08 30.18L494.84 29.51C494.76 29.34 495.34 29.21 495.51 29.13L496 28.87C496.08 28.83 495.95 28.55 495.89 28.34L496.37 27.84L496.14 27.27C495.98 26.94 496.81 27.4 496.64 26.46C496.53 25.93 497.97 25.88 497.82 25.57L497.65 25.21C497.62 25.15 497.62 24.85 497.67 24.83L499.32 24.06C499.4 24.02 499.29 23.7 499.28 23.6C499.23 23.12 499.98 23.21 499.88 22.98L499.7 22.59C499.48 22.12 500.18 22.3 500.07 21.77C500.05 21.65 499.94 21.42 500 21.4L500.5 21.17L501.07 20.94C501.18 20.89 501.14 20.67 500.99 20.33L501.08 19.95L501.54 19.77C501.62 19.73 501.51 19.48 501.39 19.16L502.68 18.49L502.45 17.99C502.38 17.85 502.6 17.72 502.84 17.5L502.78 17.08C502.72 16.6 503.46 16.73 503.38 16.46L503.24 16.08C503.19 15.97 503.11 15.8 503.17 15.78L503.52 15.58L504.34 15.16C504.45 15.11 504.13 14.71 504.2 14.64C504.27 14.57 504.41 14.44 504.55 14.38L505.47 13.95L505.22 13.42C505.17 13.31 505.34 13.16 505.61 12.93V12.7C505.61 12.63 505.52 12.3 505.61 12.26L506.78 11.71L506.48 11L507.74 10.35C507.68 10.14 507.52 9.81 507.63 9.75L508.16 9.36C508.3 9.29 507.89 8.84 507.97 8.73L508.4 8.33L508.35 8.08L508.3 7.76L509.56 7.11L509.27 6.5C509.22 6.39 509.58 6.29 509.68 6.21C510.23 5.92 509.42 5.58 509.95 5.34L514.6 3.21C514.74 3.14 514.91 3 514.94 3.05L515.33 3.38C515.46 3.52 515.98 3.38 516.04 3.52L516.25 3.97C516.39 4.28 516.51 3.44 517.16 4.02C517.28 4.13 517.63 4.14 517.87 4.16C518.03 4.16 518.13 4.72 518.31 4.67C520.54 4.28 517.92 5.16 519.86 4.79L520.34 5.82L520.67 6.01L521.18 5.71L522.16 7.73L522.49 7.64L522.79 7.56L522.8 7.57Z" fill="#90BEFB"/>
</g>
</g>
<defs>
<clipPath id="clip0_2559_5256">
<rect width="524.03" height="312.51" fill="white"/>
</clipPath>
</defs>
</svg>
