<svg width="577" height="548" viewBox="0 0 577 548" fill="none" xmlns="http://www.w3.org/2000/svg">
<g clip-path="url(#clip0_2554_489)">
<path d="M576.63 269.4V291.1C576.63 331.96 576.19 372.99 576.15 414.12V418.89C576.15 424.12 576.34 429.28 576.17 434.5C576.11 436.29 575.74 437.97 576.07 439.8C576.17 440.33 575.96 441.18 575.96 441.78L575.94 468.45C575.94 469.04 575.81 470 575.55 470.36C575.31 470.72 574.34 471.02 573.85 471.02L566.6 471.04C565.36 471.04 564.53 470.04 564.54 468.83L564.62 454.53L564.66 449.18L564.7 443.12L564.87 437.02L564.85 411.01V400.64L565.03 395.28C565.17 390.99 565.34 386.7 565.1 382.44C564.85 377.9 564.66 373.75 565.01 369.2C565.12 367.85 565.1 366.27 565.04 364.85L564.82 359.59C564.46 350.86 565.44 342.34 565.2 333.57C565.07 329.08 565.2 324.82 565.2 320.36L565.22 307.51L565.35 289.49L565.33 281.97L565.39 275.25L565.55 270.03C565.57 269.26 564.55 268.49 563.86 268.5L558.38 268.59C557.46 268.6 556.01 268.46 555.37 269.17C555.24 272.12 555.53 274.66 555.48 277.53L555.35 284.52V290.69C555.35 291.81 555.25 293.1 554.64 294.01C549.69 295.41 544.75 292.19 544.72 295.89L544.67 301.81L544.57 307.51L544.81 317.19C544.82 317.8 544.48 318.81 544.15 319.2C542.77 320.83 533.41 317.4 533.61 321.13C533.81 324.79 533.65 328.12 533.59 331.78L533.46 342.81L533.59 356.82L533.29 365.91V378.44L533.1 388.51L533.07 393.87V403.15V412.39L532.91 431.25L532.89 449.18L533.02 457.38C533.1 462.21 532.62 464.55 532.98 469.15C533.08 470.53 532.26 471.15 530.93 471.18L523.42 471.36C522.39 471.38 521.56 470.54 521.57 469.56L521.64 464.17V451.31L521.84 439.68L521.87 426.02V420.23L522 394.25L522.05 385.3V376.02L522.09 365.68L522.21 344.07L522.3 335.69V320L522.23 314.66L522.43 308.55L522.51 279.73L522.55 275.71L522.71 266.11L522.69 258.99L522.74 252.21L522.79 244.3C522.79 243.5 523.62 242.55 524.47 242.54L531.18 242.41C532.02 242.39 533.21 242.45 533.64 242.95C534.18 243.56 534.14 244.59 534.14 245.44L534.1 262.54L534.03 265.92L533.96 276.1L533.92 280.77L533.79 290.77C533.79 291.52 533.75 292.7 534.39 293.12C534.92 293.48 542.36 293.66 543.81 293.27L543.87 280.72L544 273.62L544.04 269.24C544.04 268.58 544.8 267.8 545.47 267.83C548.61 267.97 551.16 268.02 554.32 267.87C554.89 265.16 554.74 262.98 554.63 260.39C554.44 255.83 554.69 251.43 554.87 246.82C554.91 245.78 554.48 244.02 555.17 243.26C556.16 242.18 557.92 242.31 559.26 242.41C561.24 242.55 563.58 242.28 565.32 242.72C567.02 243.16 566.24 245.4 566.23 246.46L566.11 263.25L566.01 266.4C565.97 267.31 567.09 268.04 568 267.98C570.69 267.81 573.16 267.92 575.71 268.34L576.6 269.37L576.63 269.4Z" fill="#90BEFB"/>
<path d="M276.16 3.58979C275.83 6.89979 276.09 10.1898 276.05 13.4998L275.98 19.4698L275.89 26.1098C275.88 27.2298 274.97 27.9598 273.76 27.9498L261.27 27.8098H249.84L237.72 27.8698L227.31 27.9998C222.5 28.0598 217.94 28.1098 213.07 27.9198C212.39 27.8998 211.35 28.0798 210.99 28.4498C210.69 28.7698 210.51 29.7698 210.5 30.2998L210.41 42.3698L210.36 47.5498L210.22 75.2798L210.07 106.12C210.07 107.25 209.65 109.31 211.47 109.33L220.57 109.4H237.89L244.63 109.32L273.04 109.06C274.23 109.06 275.41 109.77 275.42 111.07L275.49 133.06C275.49 134 276.09 136.39 274.68 136.52C271.72 136.79 268.58 136.5 265.55 136.52L259.57 136.55L211.06 136.68C209.56 136.68 209.91 138.98 209.91 139.98L209.99 169.91V185.48L210.01 206.98C210.01 209.93 210.1 212.58 209.97 215.58C209.94 216.21 210.14 217.23 210.51 217.57C210.82 217.87 211.85 218.14 212.33 218.14L224.53 218.04H239.48L245.57 218.08H259.49L266.63 218.03L273.41 217.98C274.99 217.96 275.46 219.21 275.43 220.55L275.34 225.56L275.37 235.56L275.49 244.15C275.51 244.96 274.59 245.78 273.79 245.79L255.94 245.87L249.51 245.74L241.95 245.67L198.85 245.61C197.71 245.61 196.86 244.7 196.87 243.71V233.38L196.76 228.41L196.65 220.91V212.7L196.69 207.64L196.72 161V154.14L196.81 115.31C196.81 113.27 196.95 111.45 196.86 109.49C196.73 106.84 196.8 104.29 196.87 101.63C197 96.6998 196.99 91.8898 196.85 86.9498C196.75 83.1898 196.81 79.5698 196.85 75.8098L196.98 64.2298L197.05 49.2398L197.21 12.9898L197.38 1.82979C197.39 0.749785 199.08 0.719785 199.89 0.719785L231.14 0.539785C241.61 0.479785 251.84 0.849785 261.99 0.0297852H274.84C276.12 0.859785 276.33 2.03979 276.17 3.61979" fill="#90BEFB"/>
<path d="M493.59 184.42L493.46 196.2V209.09L493.3 225.82L493.26 232.61L493.24 249.73L493.11 260.77V264.75L493.08 276.7C493.06 280.4 492.95 283.95 493.08 287.65C493.1 288.16 493.08 288.84 492.98 289.19C492.88 289.54 491.89 289.76 491.5 289.76L485.37 289.6C484.58 289.59 483.38 289.73 482.85 290.16C482.18 290.71 482.24 291.92 482.24 292.9V307.9L482.22 312.78C482.22 313.39 482.11 314.26 481.95 314.6C481.79 314.94 480.93 315.12 480.46 315.12L470.05 315.22L461.16 315.25L450.71 315.27C450.11 314.32 450.11 313.26 450.11 312.14L450.21 293.25C450.21 292.38 450.4 290.25 449.24 290.23L440.4 290.09C439.76 290.09 439.34 288.57 439.35 287.96L439.42 277.59L439.49 263.91L439.56 254.64L439.74 236.91L439.91 222.84L440.1 212.23L440.24 186.94L440.27 177.31L440.4 164.38C442.04 163.47 449.83 164.31 450.63 163.74C450.99 163.49 451.21 162.52 451.22 162.01L451.35 154.38L451.51 138.94C452.63 137.76 454.44 138.37 455.8 138.26C460.07 137.92 464.06 138.25 468.26 138.19L480.81 138.03C481.4 138.03 482.36 138.11 482.68 138.42C483 138.72 483.25 139.69 483.24 140.2L482.98 150.18L483.05 162.35C483.07 165 490.64 163.04 493.35 163.98C493.65 165.12 493.68 166.23 493.67 167.34L493.6 184.45L493.59 184.42ZM503.33 163.12L495.05 163.05C493.84 162.36 494.16 160.31 494.18 159.11L494.34 147.33L494.47 139.41C494.47 138.76 493.69 137.66 492.97 137.67L485.32 137.72C484.79 137.72 483.73 137.11 483.74 136.49L483.8 131.25L483.86 125.92L483.9 114.2C483.92 110.92 480.15 112.41 475.41 112.23C472.62 112.13 469.99 112.18 467.22 112.19L452.56 112.28C451.91 112.28 451.24 113.11 451.24 113.74L451.17 126.99C451.17 130.04 451.04 132.84 451.22 135.95C451.26 136.63 450.68 137.96 449.94 137.95L441.87 137.88C441.13 137.88 440.19 138.66 440.18 139.51L440.12 163.08C437.98 164.2 430.34 162.91 429.64 163.74C429.36 164.07 429.09 164.99 429.1 165.47L429.18 173.52L429.04 190.85L428.97 198.35L428.89 204.4L428.83 209.07V218.71L428.67 229.06L428.49 252.36L428.33 269.71L428.28 277.93L428.24 289.06C428.24 289.77 429.41 290.47 430.02 290.48L439.04 290.58L439.08 310.04L438.92 314.07C438.9 314.62 439.85 315.68 440.43 315.67L448.19 315.55C448.6 315.55 449.51 315.73 449.64 316.09C449.74 316.37 449.8 317.11 449.8 317.5L449.72 323.96L449.74 329.65L449.79 340.03C449.79 341.1 451.67 340.85 452.36 340.85L468.28 340.87H473.52L480.86 340.79C481.68 340.79 482.35 340.08 482.36 339.35L482.43 334.67V318.31C482.43 317.43 482.39 316.05 483.03 315.51L490.72 315.48C491.39 315.48 492.19 315.46 492.61 315.27C492.97 315.1 493.35 314.07 493.35 313.66L493.38 290.53C494.8 290.02 496.05 290.04 497.61 290.07L502.49 290.18C503 290.18 504.22 289.33 504.22 288.81V278.99L504.33 266.13L504.54 241.11L504.61 224.91L504.68 216.56L504.7 198.35L505 187.99L505.02 176.23L505.04 164.79C505.04 163.8 504.24 163.12 503.35 163.12" fill="#90BEFB"/>
<path d="M87.7498 404.19C87.9098 406.16 87.6198 408.09 87.6198 410.05L87.5798 426.59L87.6398 429.62V439.53L87.5798 445.84L87.4698 502.28L87.4198 508.42C87.4198 509.72 87.4798 511.36 89.2398 511.3C92.4098 511.2 95.6198 511.18 98.8698 511.2L111.68 511.3C113.38 511.31 113.25 513.15 113.25 514.32L113.21 546.51L112.04 548H83.1998L81.7898 546.78L81.9298 536.24L82.0798 522.67V517.31L82.1098 511.94L82.2098 487.19V478.58L82.3098 473.38L82.3998 445.61L82.3598 435.24L82.2798 428.47L82.3298 418.88L82.2798 404.9L82.3098 397.16L82.4198 383.11V374.22V346.42V340.99L82.2698 304.57L82.0998 274.67L81.9698 248.65L81.9198 245.07L81.8898 240.72L81.7798 223.26C81.7798 222.1 81.4598 220.3 82.1998 219.59C83.4298 218.41 85.0498 219.32 86.4098 219.32L111.71 219.38C112.92 219.4 113.06 221.68 113.06 222.56L113.03 226.85L113.12 252.15C113.12 253.44 113.45 254.85 112.56 255.95L99.7398 255.93L88.6898 255.83C86.9298 255.81 87.1198 257.36 87.1298 258.61L87.2798 285.13L87.4698 301.42L87.5398 311.78L87.6198 347.04V354.57L87.7598 363.88C87.7598 364.78 88.6798 365.61 89.5698 365.61H97.8298C102.39 365.61 106.84 365.8 111.39 365.6C112.95 365.53 113.78 366.6 113.67 368.11C113.53 370.12 113.56 372.1 113.57 374.22L113.61 400.6C113.61 401.53 112.57 402.06 111.8 402.06L104.61 402.02L94.9798 402.12C90.3598 402.17 87.5298 401.22 87.7898 404.18" fill="#90BEFB"/>
<path d="M174.61 190.77H140.35V129.56H174.61V190.77ZM182.75 130.12C182.44 129.7 181.4 129.32 180.86 129.32L174.69 129.35C174.47 126.87 174.52 124.98 174.53 122.67L174.59 110.49C174.59 109.88 173.42 109.14 172.73 109.14H132.87C131.82 110.09 131.9 111.62 131.91 112.84L132.01 130.9V137.01L131.93 191.08L131.89 195.28L131.86 201.55L131.93 209.23L131.85 224.02L131.81 240.51L131.69 266.51L131.61 289.7C131.61 291.15 132.91 291.86 134.15 291.84L138.2 291.81C138.8 291.81 139.9 291.53 140.06 291.04C140.22 290.54 140.23 289.59 140.23 289.01L140.27 274.65L140.33 213.95C140.33 212.59 140.26 211.14 141.77 211.14L149.23 211.12L172.4 211.27C173.53 211.27 174.56 210.62 174.54 209.4C174.41 203.19 174.41 197.35 174.61 191.06C178.64 189.85 182.82 192.59 182.83 188.7L182.92 156.52L183.08 132.67C183.08 131.9 183.15 130.61 182.76 130.11" fill="#90BEFB"/>
<path d="M413.37 117.14C413.12 117.59 412.1 117.97 411.47 117.97L392.97 117.92H388.3L383.32 117.89C378.61 117.88 374.13 118.1 369.41 118.07L362.25 118.02C361.13 118.02 360.14 118.67 360.17 120.07L360.44 130.92V140.89V157.68L360.51 168.76L360.58 171.76C359.12 172.89 357.13 172.43 355.4 172.42L344 172.38C342.89 172.38 341.99 171.66 341.98 170.54L341.94 159.8L342.01 130.05L342.03 120.34C342.03 119.73 342.03 118.77 341.7 118.42C341.37 118.06 340.32 117.81 339.8 117.82L335.28 117.93L322.84 117.95L301.22 118.07L290.52 118.05C287.67 118.05 288.56 112.23 289.09 111.23C289.59 110.29 291.35 110.6 292.27 110.61L304.37 110.72H307.69L351.09 110.69H355.1L376.87 110.59L390.79 110.8L397.92 110.76L405.46 110.72C407.89 110.71 410.24 110.76 412.79 110.98C413.73 112.45 413.9 116.13 413.33 117.15" fill="#90BEFB"/>
<path d="M360.66 239.46L360.79 247.29C360.79 247.75 359.96 248.76 359.31 248.75L344.4 248.68C343.04 248.68 342.74 246.8 342.75 245.85L342.77 241.51L342.64 219.4L342.47 205.57L342.42 201.51L342.47 193.68L342.6 189.12C342.65 187.41 343.84 187.34 345.13 187.34L358.75 187.38C359.63 187.38 360.5 188.06 360.54 189.07L360.86 199.08L360.64 229.74L360.66 239.47V239.46Z" fill="#90BEFB"/>
<path d="M414.39 269.17C414.19 269.72 413.01 270.18 412.26 270.18L392.25 270.12L383.7 270.15L370.47 270.26L363.05 270.19C362.15 270.19 361.14 270.84 361.15 271.83L361.36 282.95V292.03V300.78L361.34 308.29L361.44 320.9C361.44 321.86 361.66 323.22 361.41 324.18C359.82 324.94 357.96 324.69 356.23 324.67L344.45 324.55C343.25 324.54 342.9 322.83 342.93 321.87C343.02 318.97 342.86 316.4 342.89 313.58L343 304.34L342.97 280.45V271.58C342.97 269.86 341.35 270.11 340.11 270.11L302.21 270.25L291.73 270.29C288.43 270.31 289.56 264.35 290.02 263.54C290.75 262.26 292.36 262.86 293.57 262.86L351.86 262.88L356.23 262.9L378.06 262.78L391.55 263L398.68 262.96L406.88 262.91C409.16 262.9 411.43 262.96 413.72 263.21C414.66 264.53 414.81 268.03 414.38 269.17" fill="#90BEFB"/>
<path d="M361.32 396.7L361.45 401.07C361.46 401.61 360.4 402.56 359.85 402.56L351.38 402.5L346.16 402.52C345.57 402.52 344.42 402.33 344.05 401.99C343.67 401.65 343.43 400.64 343.42 400L343.37 387.11L343.32 375.34L343.19 362.35L343 352.14L343.2 344.13C343.22 343.3 343.22 341.16 344.41 341.16L359.09 341.12C360.27 341.12 361.15 341.69 361.19 342.84L361.56 353.57L361.34 360.52V396.69L361.32 396.7Z" fill="#90BEFB"/>
<path d="M53.3998 150.57L53.3198 159.48L53.1698 209.02L52.9798 231.32L52.8798 251.34C52.8798 252.63 52.1298 253.38 50.9598 253.38L14.4198 253.43C12.8998 253.43 11.1198 253.49 11.1598 251.44L11.3798 239.03V228.68L11.4498 216.21L11.5798 193.62L11.7598 163.06L11.9198 147.51C11.9298 146.2 14.0498 145.99 14.9298 146.01L20.6698 146.08H29.8898H46.3598L52.9998 146.01C53.5198 147.52 53.3998 149.06 53.3898 150.58M62.5398 145.82L54.1598 145.74C53.4098 143.48 53.6798 141.6 53.6798 139.42L53.6998 127.65L53.7598 111.04C53.4298 109.81 51.4998 110.05 50.6398 110.06L42.4698 110.19L33.5398 110.23L22.1798 110.4L4.05981 110.44C2.70981 110.44 1.31981 110.82 1.30981 112.5L1.23981 124.6L1.08981 156.23V163.74L1.05981 176.23V185.18L0.869815 202.1L0.699815 234.76L0.589815 258.83L0.489815 274.76L0.449815 298.64L0.409815 305.13L0.309815 394.78L0.249815 398.22V401.8L0.269815 419.62C0.269815 421.61 -0.230185 423.55 0.139815 425.54C0.379815 426.83 0.289815 428.2 0.189815 429.44C0.0598147 431.02 1.09981 431.98 2.58981 431.95L9.33982 431.81C10.3098 431.79 11.1198 431.04 11.1198 429.96L11.0798 412.49L11.1598 400.68V394.91L11.1698 331.31L11.2298 326.26C11.2498 324.69 13.4198 324.83 14.3498 324.86L21.2598 325.08L21.3798 335.42V344.29L21.2798 357.41C21.2798 358.41 21.0698 360.3 22.6898 360.49C26.6798 360.99 31.6998 359.72 31.6798 361.58L31.6198 375.42L31.5598 381.28L31.4998 394.95C31.4998 395.93 32.6598 396.63 33.4898 396.52C36.4398 396.11 38.7898 396.01 41.8298 396.32C42.0798 398.7 41.9698 400.61 41.9698 402.84V411.07L41.9398 422.11L41.9898 427.76C41.9998 428.95 41.3598 431.05 42.7798 431.75C43.8898 432.3 45.8198 431.84 47.1398 431.88C48.8298 431.93 50.6298 431.99 52.2198 431.86C52.6898 431.21 52.7798 430.04 52.7798 429.23L52.8198 408.19L52.8898 397.82C52.8898 396.44 51.8998 395.76 50.7298 395.76H43.8598C43.1598 395.77 42.1598 394.97 42.1698 394.29L42.2998 383.52L42.4698 370.01L42.3898 362.1C42.3898 361.18 41.6998 360.28 40.7598 360.28H33.5198C32.8298 360.28 32.0398 359.38 32.0398 358.6L31.9998 338V330.22C31.9998 328.35 33.0398 324.48 30.3998 324.57L23.1098 324.82C22.5498 324.84 21.4798 324.07 21.4898 323.45L21.5398 313.27L21.5798 307.9L21.6298 293.4C21.6298 292.23 21.2898 290.72 22.2498 289.8C23.2198 288.89 24.8098 289.24 26.0798 289.24L51.0198 289.26C52.0198 289.26 52.9698 288.4 52.9698 287.45L52.9998 274.22L53.0198 265.79L53.0898 255.41C53.0898 254.3 53.5498 253.45 54.7298 253.43L62.8998 253.3C63.5798 253.29 63.8398 251.45 63.7998 250.79C63.6898 248.8 63.6198 246.62 63.6398 244.67L63.7198 235.05L63.8898 206.88L64.0598 165.75L64.1598 147.32C64.1598 146.57 63.1998 145.83 62.5398 145.82Z" fill="#90BEFB"/>
</g>
<defs>
<clipPath id="clip0_2554_489">
<rect width="576.63" height="548" fill="white"/>
</clipPath>
</defs>
</svg>
