<svg width="309" height="357" viewBox="0 0 309 357" fill="none" xmlns="http://www.w3.org/2000/svg">
<g clip-path="url(#clip0_2554_17300)">
<mask id="mask0_2554_17300" style="mask-type:luminance" maskUnits="userSpaceOnUse" x="0" y="0" width="309" height="357">
<path d="M308.9 0H0V356.7H308.9V0Z" fill="white"/>
</mask>
<g mask="url(#mask0_2554_17300)">
<path d="M242.52 161.74L30.34 320.18C29.41 320.88 28.74 321.18 28.37 321.29C28.05 321.37 27.39 320.56 27.39 319.73V159.48C27.39 157.3 28.43 156.52 30.08 156.52H243.14C245.27 156.52 246.09 155.39 247.93 157.62L242.53 161.74H242.52ZM297.33 1.71008C294.83 -0.849917 292.12 0.230083 288.95 0.230083H77.33C75.76 0.230083 74.19 0.0400826 73.21 0.580083C72.17 1.17008 71.3 3.38008 71.3 4.65008L71.33 24.2201C71.33 29.5601 80.05 27.7801 84.36 27.8301C88.48 27.8801 92.74 28.2601 96.81 27.8301C102.16 27.2601 106.99 27.7201 112.37 27.7201L168.08 27.8601H175.21L213.21 27.9401L230.81 27.8601L242.64 27.7001L257.37 27.7501C264.15 27.7801 270.83 28.5101 277.66 27.3501C279.73 27.0001 281.52 28.5601 281.52 30.6701V126.74C281.52 128.63 280.08 130.08 278.33 130.08L243.36 129.92L236.74 129.97H82.41L76.88 129.92L19.81 129.95C16.99 129.95 14.63 129.11 12.2 131.59L0.77 143.31C0.03 212.82 0.24 281.96 0 350.88V356.7H25.47L27.97 355.16L277.14 168.47C278.68 167.31 279.32 165.75 281.5 166.56V353.27C281.5 354.62 283.31 356.13 284.05 356.69H306.97L308.89 353.91V13.6001L297.32 1.71008H297.33Z" fill="#90BEFB"/>
</g>
</g>
<defs>
<clipPath id="clip0_2554_17300">
<rect width="308.9" height="356.7" fill="white"/>
</clipPath>
</defs>
</svg>
