<svg width="191" height="200" viewBox="0 0 191 200" fill="none" xmlns="http://www.w3.org/2000/svg">
<g clip-path="url(#clip0_2553_9587)">
<mask id="mask0_2553_9587" style="mask-type:luminance" maskUnits="userSpaceOnUse" x="0" y="0" width="191" height="200">
<path d="M190.42 0H0V199.56H190.42V0Z" fill="white"/>
</mask>
<g mask="url(#mask0_2553_9587)">
<path d="M137.23 186.6C137.23 186.84 137.06 187.25 136.93 187.38C136.78 187.54 136.32 187.58 136.04 187.57L133.68 187.54C132.22 187.52 130.63 187.77 130.16 187.33C129.89 187.08 129.75 186.68 129.75 186.16V104L129.51 100.43L128.93 97.1598C128.73 96.0298 128.29 94.9698 127.8 93.9598C127.4 93.1298 126.74 92.6898 125.92 92.5798C123.84 92.3298 122.74 95.1998 122.45 97.0598L122.08 99.4298C121.83 101.04 121.66 102.57 121.66 104.26L121.64 164.48V186.64C121.65 187.31 121.19 187.54 120.58 187.54L117.94 187.52C117.1 187.52 116.29 187.51 115.45 187.56C114.73 187.6 114.16 187.32 114.16 186.46V76.6498L114.09 71.9598C114.09 71.7098 114.19 71.2498 114.32 71.0898C114.48 70.8998 114.97 70.7498 115.26 70.7398L118.55 70.6998L120.85 70.6698C121.49 70.6698 121.64 71.6398 121.63 72.1098L121.56 74.7098V79.5898C121.55 80.0698 121.77 80.5598 122.12 80.9098C122.65 81.0998 123.46 77.4098 123.54 76.9998C123.84 75.6198 124.25 74.4098 124.9 73.1598C125.63 71.7498 126.36 70.3598 127.9 69.6198C128.56 69.2998 129.66 69.2098 130.37 69.5298C132.99 70.6998 133.88 73.5698 134.69 75.9298C134.87 76.4598 135.03 76.9798 135.15 77.5198L135.83 80.7398C136.01 81.5698 136.19 82.3798 136.28 83.2298L136.57 86.0898C136.78 88.1598 137.08 90.1398 137.11 92.2398L137.17 96.9098L137.2 100.21V156.38V158.34V186.59L137.23 186.6Z" fill="#90BEFB"/>
</g>
<path d="M107.71 53.7598H100.29V170.31H107.71V53.7598Z" fill="#90BEFB"/>
<mask id="mask1_2553_9587" style="mask-type:luminance" maskUnits="userSpaceOnUse" x="0" y="0" width="191" height="200">
<path d="M190.42 0H0V199.56H190.42V0Z" fill="white"/>
</mask>
<g mask="url(#mask1_2553_9587)">
<path d="M107.71 28.7801C107.71 29.1801 107.41 29.5101 106.98 29.5101L101.29 29.5601C100.68 29.5601 100.3 29.2201 100.31 28.6201L100.33 11.0401V7.26012C100.33 6.68012 100.94 6.39012 101.43 6.39012L106.77 6.37012C107.2 6.37012 107.71 6.75012 107.71 7.30012V28.7901V28.7801Z" fill="#90BEFB"/>
<path d="M85.8901 90.7501C85.6001 93.9001 85.4101 95.9301 84.2801 98.8001C83.8501 99.9001 83.2901 100.84 82.0701 101.25C80.5201 101.77 79.1101 99.5801 78.8901 98.4901L78.2 95.0101C77.88 93.3801 77.7601 91.7101 77.7501 89.9801L77.7201 76.1501V46.8701L77.7401 44.5001L77.8101 40.1301C77.8301 38.5701 77.8301 37.0201 78.1301 35.5001L78.7001 32.5701C78.9001 31.5501 79.2101 30.7301 79.6501 29.7801C80.2201 28.5801 81.5201 27.7501 82.7901 28.5701C83.5701 29.0701 83.8701 30.0701 84.2501 30.8901C84.7901 32.0401 85.0701 33.1201 85.2201 34.4001L85.6001 37.8001C85.7101 38.8101 85.8801 39.7201 85.8801 40.8001V90.7501H85.8901ZM92.0701 6.3601L89.2801 6.3401C87.7501 6.3301 85.9701 5.8601 85.9201 7.1501C85.8401 9.2601 85.9401 11.3501 86.0501 13.5001C86.0801 14.0801 85.9901 15.7701 85.3301 15.4801C85.2001 15.4301 84.9701 15.1801 84.9201 15.0501L83.9001 12.0701C83.5901 11.1801 83.4501 10.2901 83.0501 9.4401C82.3401 7.9501 81.3101 5.8401 79.6701 5.2401C78.8101 4.9201 77.5401 4.9201 76.6801 5.2801C75.0501 5.9601 74.1501 7.5801 73.5101 9.1901C73.1801 10.0201 72.6901 10.8901 72.5001 11.7301L71.59 15.5401C70.98 18.1001 70.4401 25.2401 70.4301 28.0001L70.3601 43.5001V90.5701L70.4401 98.8901L70.59 103.41C70.7 106.84 71.5201 114.71 72.6101 117.82L73.3701 119.99C74.1801 122.29 76.9201 125.79 79.7201 124.18C82.3501 122.66 83.1401 119.7 84.0101 117.14L84.9201 114.48C84.9901 114.29 85.2501 114.01 85.4301 114.01C85.6101 114.01 86.0001 114.41 86.0001 114.6L85.9301 119.37L85.8901 137.24C85.8901 139.62 85.4801 141.83 85.1701 144.14C84.9901 145.56 84.3401 147.08 83.4301 148.06C82.7601 148.78 81.8001 148.95 80.9601 148.37C79.6101 147.42 78.8401 145.83 78.7401 144.17C78.2201 142.34 77.81 140.57 77.77 138.66C77.76 138.04 77.5701 137.17 76.7801 137.17H72.9901H71.2001C69.9301 137.17 70.4301 140.36 70.5101 141.4L70.8001 145.27L71.0401 147.86L71.6101 152.39C71.9201 154.9 73.0201 159.7 73.8501 162.03C74.6701 164.33 75.34 166.05 76.59 168.2C77.53 169.82 78.5101 170.78 80.2001 171.58C81.1601 172.04 82.1001 172.23 83.1301 171.75C83.6201 171.52 84.2601 171.32 84.7301 171.02C86.8601 169.7 88.4401 166.46 89.4701 164.15C89.7301 163.57 89.7101 162.73 90.0201 162.17C90.6901 160.97 91.4701 157.01 91.7601 155.49L92.1801 153.31C92.6501 150.83 93.2801 140.61 93.2801 137.82V11.4201L93.3001 7.7201C93.3001 6.9301 92.9101 6.3601 92.0601 6.3501" fill="#90BEFB"/>
<path d="M51.84 99.3302C51.84 99.5002 51.67 99.8401 51.56 99.9601C51.07 100.49 49.95 98.6601 47.92 100.07C47.1 100.64 46.4 101.24 45.85 102.11C44.07 104.93 43.2 108.07 42.57 111.33C42.27 112.83 41.96 114.19 41.91 115.75C41.84 118.22 41.4 120.88 41.4 122.96V193C41.4 193.52 41.37 193.88 41.11 194.2C40.93 194.43 40.41 194.57 40.05 194.55C38.53 194.45 37.18 194.48 35.66 194.57C35.21 194.59 34.6 194.49 34.3 194.18C34.06 193.92 34.02 193.29 34.02 192.87L34.04 190.43V186.98L34.02 184.93V168.43L34.05 164.21V158.3L34.02 156.58C34 155.37 34.03 154.22 34.04 153.03V147.41V145.82V142.56V135.07V131.33V128.7V126.04V122.93L34.02 121.05L34.04 118.48V112.03L34.02 110.43V99.5401L34.06 95.4802L34.03 90.8002V82.6301L33.98 79.2801C33.98 78.7601 34.13 78.1701 34.48 77.8901C34.92 77.5301 35.46 77.7402 36 77.7302L40.45 77.6701C41.07 77.6701 41.4 78.2502 41.4 78.8002L41.43 81.7801C41.44 83.2601 41.41 84.7002 41.33 86.1602C41.28 87.0602 41 87.8302 41.41 88.7302C41.52 88.9702 42.07 88.9101 42.25 88.7001C43.07 87.7701 43.18 86.6902 43.63 85.6202C44.75 82.9702 46.23 79.9402 48.23 77.8002C48.7 77.3002 50.65 76.0902 51.54 76.5502C51.75 76.6502 51.81 77.0902 51.81 77.4102V79.4501V81.4802V89.2501V91.4701L51.83 99.3501L51.84 99.3302Z" fill="#90BEFB"/>
</g>
<path d="M62.8301 53.29H55.3501V170.24H62.8301V53.29Z" fill="#90BEFB"/>
<mask id="mask2_2553_9587" style="mask-type:luminance" maskUnits="userSpaceOnUse" x="0" y="0" width="191" height="200">
<path d="M190.42 0H0V199.56H190.42V0Z" fill="white"/>
</mask>
<g mask="url(#mask2_2553_9587)">
<path d="M62.7598 28.6902C62.6698 28.9202 62.1698 29.1202 61.7998 29.1202L56.2298 29.2002C55.9298 29.2002 55.3598 28.7902 55.3598 28.4402V7.17016C55.3498 6.84016 55.5298 6.36016 55.7198 6.21016C55.9198 6.07016 56.4598 5.92016 56.7298 5.93016C58.3998 5.98016 59.8798 6.00016 61.5498 5.93016C61.8398 5.92016 62.3398 6.07016 62.4998 6.25016C62.6598 6.44016 62.8098 6.94016 62.8098 7.29016V27.7402C62.8198 28.0902 62.8498 28.4302 62.7498 28.6902" fill="#90BEFB"/>
<path d="M20.52 137.59C20.52 139.8 20.21 141.78 19.76 143.88C19.58 144.72 19.41 145.48 19.01 146.23C18.41 147.36 17.3 148.89 15.86 148.24C14.97 147.83 14.57 147.08 14.12 146.3C13.68 145.54 13.44 144.85 13.29 143.89C13.1 142.61 12.72 141.41 12.67 140.2L12.46 134.9V133.19L12.48 131.01V126V106.56V104.67L12.47 91.4403V87.3803L12.72 82.6603C12.75 81.9303 13.01 81.1603 13.13 80.4203C13.42 78.6803 13.98 76.9703 15.26 75.6803C15.87 75.0703 17.21 75.1303 17.81 75.7603C18.77 76.7503 19.38 78.0303 19.66 79.3603L20.28 82.3303C20.55 83.6503 20.35 84.9503 20.52 86.3603V137.59ZM27.99 101.57L27.96 99.6903L27.98 96.7303V90.3903C27.98 85.3603 27.65 74.8203 26.78 70.0703C26.57 68.9103 26.21 67.8603 26.15 66.6503C26.1 65.7903 25.8 64.9703 25.54 64.1703L24.36 60.5103C23.53 57.9203 22.15 55.3903 20.24 53.4103C18.73 52.0503 16.41 51.6203 14.61 52.3403C12.58 53.1603 11.45 54.8003 10.43 56.6503L9.47998 58.3803C9.14998 58.9903 8.97998 59.6703 8.76998 60.3403L7.62998 63.8803C6.93998 66.0503 6.20998 70.2603 5.97998 72.5703L5.68998 75.3803L5.11998 86.2703L4.97998 88.4903V134.97C4.97998 135.89 5.02998 136.66 5.06998 137.54L5.47998 145.46C5.52998 146.49 6.06998 152.35 6.21998 153.15C6.51998 154.79 6.78998 156.4 7.17998 157.98L8.07998 161.61C8.39998 162.92 10.12 166.49 10.86 167.81C11.22 168.45 11.73 168.86 12.2 169.42C14.2 171.88 17.84 172.4 20.21 170.05C22.97 167.3 23.38 165.6 24.7 162.12C25.01 161.31 25.16 160.51 25.4 159.68C25.79 158.37 26.04 157.14 26.3 155.8L26.88 152.81C28.05 146.78 27.93 140.71 27.94 134.55L27.97 115.43V101.56L27.99 101.57Z" fill="#90BEFB"/>
<path d="M185.42 169.81V170.25L185.27 170.62C185.12 170.98 184.81 171.28 184.33 171.21C182.18 170.93 180.4 169.88 178.89 168.38C176.21 163.86 175.32 159.58 174.8 154.38L174.39 150.3L174.13 145.31L174.02 140.93V89.7501C174.02 88.3201 174.13 87.2101 174 85.7701V8.57006C174 6.74006 173.85 6.34006 174.51 5.56006H180.9C181.33 6.02006 181.56 6.57006 181.55 7.27006L181.49 11.3801V138.75C181.9 142.61 181.13 146.04 184.1 148.69C184.63 149.16 185.26 149.3 185.26 150.26V169.47C185.26 169.69 185.42 169.87 185.42 169.81Z" fill="#90BEFB"/>
<path d="M161.05 137.6C161.05 139.46 160.78 141.19 160.58 143.02C160.3 145.5 159.94 147.64 158.42 149.63C158.08 150.08 157.65 150.6 157.18 150.71C156.59 150.86 155.85 150.71 155.42 150.29C154.01 148.92 153 145.78 152.93 143.79C152.89 142.63 152.57 141.48 152.43 140.32C152.2 138.3 152.25 136.31 152.32 134.27C152.38 132.74 152.29 131.22 152.52 129.75L152.95 127.1C153.11 126.11 153.12 125.08 153.48 124.17L154.39 121.92C154.86 120.75 157.74 117.68 159.88 119C160.85 119.6 161.12 120.55 161.11 121.68L161.05 137.61V137.6ZM168.45 86.94C168.45 84.28 167.82 74.21 167.42 71.82L166.58 66.85C166.3 65.2 165.88 63.59 165.38 62.01L164.52 59.24C164.16 58.06 163.36 56.99 162.77 55.87C161.99 54.39 160.15 52.63 158.65 52C157.57 51.55 156.1 51.58 155 52.04C152.38 53.13 150.18 57.14 149.29 59.61L148.13 62.86C147.75 63.92 147.58 64.9 147.37 66.02C147.21 66.87 146.88 67.73 146.74 68.62L145.75 74.92C145.47 76.72 145.52 78.54 145.38 80.36L144.98 85.82C144.94 86.29 145.61 86.67 146.07 86.67L150.65 86.76C151.49 86.77 152.11 86.7 152.27 85.7L152.6 83.62C152.89 81.76 153.11 79.98 153.8 78.25C154.24 77.16 154.72 76.09 155.65 75.37C156.69 74.57 158.05 74.79 158.8 75.84C159.8 77.23 160.34 78.82 160.41 80.56C160.43 81.15 160.61 81.75 160.68 82.33C160.9 84.15 161.01 85.93 161.02 87.78L161.06 99.37C161.06 99.94 160.89 100.73 160.36 101C159.84 101.26 159.06 101.08 158.55 100.87C157.76 100.55 157.04 100.63 156.24 100.7C154.56 100.84 153.09 101.32 151.81 102.42C149.34 104.54 148.18 107.66 147.31 110.71C146.82 112.42 146.45 114.07 146.21 115.85C145.98 117.55 145.64 119.15 145.54 120.88L145.07 129.28L144.97 133.07L144.9 138.71V140.67L144.97 147.06L145.51 154.53C145.62 156.04 145.85 157.42 146.13 158.88C146.63 161.49 147.13 164.15 148.34 166.55C149.58 169.03 148.68 168.38 151.12 170.48C151.89 171.15 153.27 171.53 154.3 171.03C156.45 170 157.13 168.6 157.85 166.46L158.6 164.23C159.05 162.9 159.48 161.62 160 160.31C160.16 159.92 160.19 159.22 160.67 159.07C160.91 159.01 161.18 159.68 161.18 159.97L161.09 169.03C161.09 169.61 161.87 169.96 162.34 169.92C163.4 169.82 164.33 169.81 165.35 169.84L167.04 169.9C167.37 169.9 167.84 169.86 168.05 169.68C168.24 169.51 168.46 169.07 168.46 168.67V86.93L168.45 86.94Z" fill="#90BEFB"/>
<path d="M133.4 190.92C131.73 189.25 131.48 186.69 132.67 184.76C133.8 182.5 136.49 181.42 138.91 182.34C141.5 183.32 142.79 186.21 141.81 188.79C141.7 189.06 141.59 189.33 141.42 189.64C141.23 189.96 141.06 190.3 140.47 190.91C139.49 191.89 138.21 192.38 136.93 192.38C135.65 192.38 134.38 191.89 133.4 190.92Z" fill="black"/>
<path d="M131.04 187.58C131.04 184.81 133.28 182.58 136.04 182.58C138.81 182.58 141.04 184.81 141.04 187.58C141.04 190.34 138.81 192.57 136.04 192.57C133.28 192.57 131.04 190.34 131.04 187.58Z" fill="black"/>
<path d="M133.61 192.54C130.85 192.51 128.64 190.24 128.68 187.47C128.72 184.72 130.98 182.51 133.74 182.54C136.51 182.58 138.71 184.85 138.68 187.61C138.64 190.35 136.41 192.54 133.68 192.54H133.61Z" fill="black"/>
<path d="M126.74 190.98C124.73 189.1 124.62 185.94 126.51 183.92C128.4 181.9 131.56 181.8 133.57 183.68C135.59 185.57 135.7 188.73 133.81 190.75C132.83 191.8 131.5 192.34 130.16 192.34C128.94 192.34 127.71 191.89 126.74 190.98Z" fill="black"/>
<path d="M125.05 188.23C124.82 187.49 124.75 186.79 124.75 186.16C124.75 183.4 126.99 181.16 129.75 181.16C132.4 181.16 134.56 183.22 134.74 185.81C135.24 188.32 133.77 190.83 131.28 191.58C130.8 191.73 130.31 191.8 129.83 191.8C127.69 191.8 125.7 190.4 125.05 188.23Z" fill="black"/>
<path d="M124.76 158.78C124.76 156.01 126.99 153.78 129.75 153.78C132.52 153.78 134.75 156.01 134.75 158.78C134.75 161.54 132.52 163.78 129.75 163.78C126.99 163.78 124.76 161.54 124.76 158.78ZM124.76 131.39C124.76 128.63 126.99 126.39 129.75 126.39C132.52 126.39 134.75 128.63 134.75 131.39C134.75 134.15 132.52 136.39 129.75 136.39C126.99 136.39 124.76 134.15 124.76 131.39Z" fill="black"/>
<path d="M124.53 100.77C124.34 98.0098 126.43 95.6298 129.18 95.4498C131.94 95.2698 134.32 97.3498 134.51 100.1C134.69 102.86 132.61 105.24 129.85 105.43C129.74 105.43 129.63 105.43 129.51 105.43C126.9 105.43 124.7 103.4 124.53 100.76V100.77Z" fill="black"/>
<path d="M124.01 98.0401C123.53 95.3201 125.35 92.7301 128.07 92.2501C130.79 91.7601 133.38 93.5801 133.86 96.3001C134.34 99.0201 132.53 101.61 129.81 102.09C129.51 102.15 129.22 102.17 128.93 102.17C126.55 102.17 124.44 100.46 124.01 98.0401Z" fill="black"/>
<path d="M123.3 96.14C122.11 93.65 123.15 90.66 125.64 89.46C128.13 88.26 131.12 89.31 132.31 91.8C133.51 94.28 132.46 97.27 129.98 98.47C129.28 98.81 128.54 98.97 127.81 98.97C125.95 98.97 124.16 97.92 123.3 96.14Z" fill="black"/>
<path d="M125.32 97.5501C122.58 97.2201 120.63 94.7301 120.96 91.9901C121.29 89.2501 123.79 87.2901 126.53 87.6301C129.27 87.9601 131.22 90.4501 130.89 93.2001C130.58 95.7301 128.42 97.5901 125.93 97.5901C125.73 97.5901 125.53 97.5801 125.32 97.5501Z" fill="black"/>
<path d="M121.67 102.01C118.94 101.58 117.08 99.0201 117.51 96.2901C117.94 93.5601 120.5 91.7001 123.23 92.1301C125.96 92.5601 127.82 95.1301 127.39 97.8501C127 100.32 124.87 102.07 122.46 102.07C122.2 102.07 121.93 102.05 121.67 102.01Z" fill="black"/>
<path d="M121.3 104.38C118.57 103.95 116.71 101.39 117.14 98.6601C117.57 95.9401 120.13 94.0801 122.86 94.5001C125.58 94.9301 127.45 97.4901 127.02 100.22C126.63 102.69 124.5 104.45 122.08 104.45C121.82 104.45 121.56 104.43 121.3 104.38Z" fill="black"/>
<path d="M116.66 104.28C116.66 101.51 118.9 99.2803 121.66 99.2803C124.42 99.2803 126.66 101.51 126.66 104.28C126.66 107.04 124.42 109.28 121.66 109.28C118.9 109.28 116.66 107.04 116.66 104.28Z" fill="black"/>
<path d="M121.65 139.39C118.89 139.39 116.65 137.15 116.65 134.39C116.65 131.62 118.89 129.39 121.65 129.39C124.42 129.39 126.65 131.63 126.65 134.39C126.65 137.15 124.42 139.39 121.66 139.39H121.65Z" fill="black"/>
<path d="M116.64 166.14V165.32C116.64 162.56 118.88 160.32 121.64 160.32C124.41 160.32 126.65 162.56 126.65 165.32V166.14C126.65 168.9 124.41 171.14 121.64 171.14C118.88 171.14 116.64 168.9 116.64 166.14Z" fill="black"/>
<path d="M116.65 186.66C116.65 183.9 118.89 181.66 121.65 181.66C124.41 181.66 126.65 183.89 126.66 186.65C126.66 189.41 124.42 191.65 121.66 191.66C118.9 191.66 116.65 189.42 116.65 186.66Z" fill="black"/>
<path d="M115.58 187.56C115.58 185.09 117.38 183.03 119.73 182.63C121.73 181.94 124.03 182.59 125.36 184.38C127.01 186.59 126.54 189.72 124.33 191.37C122.8 192.47 121.46 192.54 120.59 192.55C117.83 192.55 115.58 190.32 115.58 187.56Z" fill="black"/>
<path d="M117.91 192.54C115.15 192.51 112.93 190.26 112.95 187.5C112.97 184.74 115.23 182.51 117.99 182.54C120.74 182.55 122.97 184.81 122.95 187.57C122.93 190.32 120.69 192.54 117.95 192.54H117.91Z" fill="black"/>
<path d="M110.47 187.85C110.32 185.09 112.42 182.73 115.18 182.58C117.94 182.43 120.3 184.54 120.45 187.29C120.61 190.05 118.5 192.41 115.74 192.57H115.46C112.82 192.57 110.62 190.51 110.47 187.85Z" fill="black"/>
<path d="M111.45 191.28C109.84 190.09 109.1 187.89 109.17 186.47C109.17 183.71 111.41 181.47 114.17 181.47C116.43 181.47 118.34 182.97 118.96 185.03C119.84 186.71 119.72 188.83 118.47 190.43C117.48 191.69 116.01 192.35 114.53 192.35C113.45 192.35 112.36 192 111.45 191.28Z" fill="black"/>
<path d="M109.17 159.02C109.17 156.26 111.41 154.02 114.17 154.02C116.93 154.02 119.17 156.26 119.17 159.02C119.17 161.78 116.93 164.02 114.17 164.02C111.41 164.02 109.17 161.78 109.17 159.02ZM109.17 131.57C109.17 128.8 111.41 126.56 114.17 126.56C116.93 126.56 119.17 128.8 119.17 131.57C119.17 134.33 116.93 136.57 114.17 136.57C111.41 136.57 109.17 134.33 109.17 131.57ZM109.17 104.11C109.17 101.35 111.41 99.1099 114.17 99.1099C116.93 99.1099 119.17 101.35 119.17 104.11C119.17 106.88 116.93 109.11 114.17 109.11C111.41 109.11 109.17 106.88 109.17 104.11Z" fill="black"/>
<path d="M109.11 72.0403C109.07 69.2803 111.27 67.0103 114.04 66.9703C116.79 66.9303 119.06 69.1403 119.1 71.9003C119.14 74.6603 116.93 76.9303 114.17 76.9703H114.1C111.37 76.9703 109.14 74.7803 109.11 72.0403Z" fill="black"/>
<path d="M112.98 76.37C110.29 75.72 108.65 73.01 109.31 70.33C109.37 70.06 109.45 69.79 109.59 69.4299C109.75 69.0699 109.9 68.6399 110.47 67.9299C112.22 65.7899 115.37 65.48 117.5 67.23C119.3 68.71 119.81 71.18 118.87 73.19C118.16 75.2 116.25 76.5199 114.17 76.5199C113.77 76.5199 113.38 76.47 112.98 76.37Z" fill="black"/>
<path d="M110.04 72.4501C109.15 69.8401 110.56 67.0001 113.17 66.1101C113.78 65.9201 114.28 65.7801 115.24 65.7501C118 65.7301 120.25 67.9501 120.27 70.7201C120.29 73.2501 118.42 75.3501 115.98 75.7001C115.58 75.8001 115.17 75.8501 114.77 75.8501C112.69 75.8501 110.74 74.5301 110.04 72.4501Z" fill="black"/>
<path d="M113.56 70.7703C113.53 68.0103 115.74 65.7503 118.5 65.7103C121.27 65.6803 123.53 67.8903 123.56 70.6503C123.6 73.4103 121.39 75.6803 118.63 75.7103H118.56C115.83 75.7103 113.6 73.5103 113.56 70.7703Z" fill="black"/>
<path d="M115.87 70.7502C115.83 67.9902 118.04 65.7202 120.8 65.6802C123.56 65.6402 125.83 67.8502 125.87 70.6102C125.91 73.3702 123.7 75.6402 120.94 75.6802H120.87C118.14 75.6802 115.91 73.4802 115.87 70.7502Z" fill="black"/>
<path d="M116.66 72.4702C116.04 70.0302 117.33 67.4602 119.74 66.5502C122.33 65.5802 125.21 66.8802 126.18 69.4702C126.6 70.6102 126.64 71.4102 126.65 72.1202C126.65 74.8802 124.41 77.1202 121.65 77.1202C119 77.1202 116.84 75.0702 116.66 72.4702Z" fill="black"/>
<path d="M121.45 79.7199C118.69 79.6499 116.51 77.3499 116.58 74.5899C116.65 71.8299 118.95 69.6499 121.71 69.7199C124.47 69.7899 126.65 72.0899 126.58 74.8499C126.51 77.5699 124.28 79.7199 121.58 79.7199H121.45Z" fill="black"/>
<path d="M121.56 84.6001C118.8 84.6001 116.56 82.3501 116.57 79.5901C116.57 76.8301 118.82 74.5901 121.58 74.6001C124.34 74.6001 126.57 76.8501 126.57 79.6101C126.56 82.3601 124.33 84.6001 121.57 84.6001H121.56Z" fill="black"/>
<path d="M118.63 84.48C117.98 83.84 117.5 83.12 117.15 82.34C116.04 79.81 117.18 76.86 119.7 75.74C122.06 74.7 124.78 75.62 126.05 77.8C127.61 79.75 127.5 82.61 125.7 84.43C124.72 85.42 123.43 85.92 122.14 85.92C120.87 85.92 119.6 85.44 118.63 84.48Z" fill="black"/>
<path d="M122.52 81.9003C119.82 81.3203 118.1 78.6703 118.68 75.9703C119.25 73.2603 121.9 71.5403 124.61 72.1203C127.31 72.6903 129.03 75.3503 128.46 78.0503C127.95 80.4003 125.88 82.0103 123.57 82.0103C123.22 82.0103 122.87 81.9703 122.52 81.9003Z" fill="black"/>
<path d="M122.61 77.61C120.17 76.33 119.21 73.32 120.48 70.86C121.75 68.41 124.77 67.46 127.22 68.73C129.67 70 130.63 73.02 129.36 75.47C128.47 77.19 126.72 78.17 124.91 78.17C124.14 78.17 123.35 77.99 122.61 77.61Z" fill="black"/>
<path d="M123.41 71.7902C122.22 69.3002 123.27 66.3102 125.76 65.1202C128.26 63.9302 131.24 64.9902 132.43 67.4802C133.62 69.9702 132.56 72.9602 130.07 74.1502C129.38 74.4802 128.64 74.6402 127.92 74.6402C126.05 74.6402 124.26 73.5802 123.41 71.7902Z" fill="black"/>
<path d="M128.37 74.1103C125.84 72.9903 124.7 70.0403 125.81 67.5103C126.93 64.9903 129.88 63.8503 132.41 64.9703C134.94 66.0803 136.08 69.0403 134.96 71.5603C134.13 73.4303 132.3 74.5403 130.39 74.5403C129.71 74.5403 129.02 74.4003 128.37 74.1103Z" fill="black"/>
<path d="M129.98 77.5599C129.08 74.9499 130.48 72.0999 133.09 71.2099C135.7 70.3199 138.54 71.7099 139.44 74.3199C140.33 76.9299 138.94 79.7799 136.33 80.6699C135.79 80.8599 135.24 80.94 134.71 80.94C132.63 80.94 130.69 79.6399 129.98 77.5599Z" fill="black"/>
<path d="M130.27 78.5599C130.25 78.4499 130.22 78.3099 130.17 78.1499C129.38 75.4999 130.89 72.7199 133.54 71.9299C136.19 71.1499 138.97 72.6599 139.76 75.3099C139.86 75.6699 139.97 76.0699 140.06 76.5099C140.63 79.2099 138.89 81.8599 136.19 82.4199C135.84 82.4999 135.5 82.5299 135.16 82.5299C132.84 82.5299 130.77 80.9099 130.27 78.5599Z" fill="black"/>
<path d="M130.96 81.7901C130.39 79.0901 132.11 76.4301 134.81 75.8601C137.51 75.2801 140.17 77.0001 140.74 79.7001C141.32 82.4101 139.6 85.0601 136.9 85.6401C136.54 85.7101 136.19 85.7501 135.84 85.7501C133.54 85.7501 131.46 84.1401 130.96 81.7901Z" fill="black"/>
<path d="M131.33 83.7603C131.04 81.0203 133.03 78.5603 135.78 78.2703C138.52 77.9803 140.98 79.9703 141.27 82.7103C141.56 85.4603 139.57 87.9203 136.82 88.2103C136.65 88.2303 136.47 88.2403 136.3 88.2403C133.77 88.2403 131.6 86.3303 131.33 83.7603Z" fill="black"/>
<path d="M131.62 86.6099C131.34 83.8699 133.33 81.4099 136.08 81.1199C138.83 80.8399 141.28 82.8399 141.57 85.5799C141.85 88.3299 139.86 90.7899 137.11 91.0699C136.94 91.0899 136.76 91.0999 136.59 91.0999C134.06 91.0999 131.89 89.1799 131.62 86.6099Z" fill="black"/>
<path d="M132.14 92.3001C132.1 89.5401 134.31 87.28 137.07 87.24C139.83 87.21 142.1 89.4201 142.13 92.1801C142.17 94.9401 139.96 97.2101 137.2 97.2501H137.14C134.4 97.2501 132.17 95.0501 132.14 92.3001Z" fill="black"/>
<path d="M132.2 96.9802C132.16 94.2202 134.37 91.9502 137.13 91.9202C139.89 91.8902 142.16 94.1002 142.19 96.8602C142.23 99.6202 140.02 101.89 137.25 101.92H137.19C134.46 101.92 132.23 99.7202 132.2 96.9802Z" fill="black"/>
<path d="M132.21 127.64C132.21 124.88 134.44 122.64 137.21 122.64C139.97 122.64 142.21 124.87 142.21 127.63C142.21 130.39 139.97 132.63 137.21 132.64C134.45 132.64 132.21 130.4 132.21 127.64Z" fill="black"/>
<path d="M132.23 186.6C132.23 183.84 134.47 181.6 137.23 181.6C139.99 181.6 142.23 183.84 142.23 186.6C142.23 189.36 139.99 191.59 137.23 191.6C134.47 191.6 132.23 189.36 132.23 186.6Z" fill="black"/>
<path d="M136.94 192.38C136.36 192.38 135.78 192.28 135.21 192.07C132.62 191.11 131.3 188.24 132.25 185.65L132.54 184.87C133.5 182.28 136.37 180.95 138.96 181.91C141.55 182.87 142.87 185.74 141.92 188.33L141.63 189.11C140.88 191.13 138.97 192.38 136.94 192.38Z" fill="black"/>
</g>
<path d="M102.71 141.17C102.71 138.41 104.94 136.17 107.7 136.17C110.46 136.17 112.7 138.41 112.7 141.17C112.7 143.93 110.46 146.17 107.7 146.17C104.94 146.17 102.71 143.93 102.71 141.17ZM102.71 112.03C102.71 109.27 104.94 107.03 107.7 107.03C110.46 107.03 112.7 109.27 112.7 112.03C112.7 114.79 110.46 117.03 107.7 117.03C104.94 117.03 102.71 114.79 102.71 112.03ZM102.71 82.8899C102.71 80.1299 104.94 77.8999 107.7 77.8999C110.46 77.8999 112.7 80.1299 112.7 82.8899C112.7 85.6499 110.46 87.8899 107.7 87.8899C104.94 87.8899 102.71 85.6499 102.71 82.8899Z" fill="black"/>
<path d="M95.2798 170.31C95.2798 167.55 97.5198 165.31 100.28 165.31C103.04 165.31 105.28 167.55 105.28 170.31C105.28 173.07 103.04 175.31 100.28 175.31C97.5198 175.31 95.2798 173.07 95.2798 170.31Z" fill="black"/>
<path d="M95.2798 141.17C95.2798 138.41 97.5198 136.17 100.28 136.17C103.04 136.17 105.28 138.41 105.28 141.17C105.28 143.93 103.04 146.17 100.28 146.17C97.5198 146.17 95.2798 143.93 95.2798 141.17ZM95.2798 112.03C95.2798 109.27 97.5198 107.03 100.28 107.03C103.04 107.03 105.28 109.27 105.28 112.03C105.28 114.8 103.04 117.03 100.28 117.03C97.5198 117.03 95.2798 114.8 95.2798 112.03ZM95.2798 82.8901C95.2798 80.1301 97.5198 77.8901 100.28 77.8901C103.04 77.8901 105.28 80.1301 105.28 82.8901C105.28 85.6501 103.04 87.8901 100.28 87.8901C97.5198 87.8901 95.2798 85.6501 95.2798 82.8901Z" fill="black"/>
<path d="M102.7 53.7598C102.7 50.9898 104.94 48.7598 107.7 48.7598C110.47 48.7598 112.7 50.9898 112.7 53.7598C112.7 56.5198 110.47 58.7598 107.7 58.7598C104.94 58.7598 102.7 56.5198 102.7 53.7598Z" fill="black"/>
<mask id="mask3_2553_9587" style="mask-type:luminance" maskUnits="userSpaceOnUse" x="0" y="0" width="191" height="200">
<path d="M190.42 0H0V199.56H190.42V0Z" fill="white"/>
</mask>
<g mask="url(#mask3_2553_9587)">
<path d="M107 34.5103C104.24 34.5303 101.99 32.3003 101.98 29.5403C101.97 27.3303 103.39 25.4503 105.37 24.7803C107.22 23.9003 109.51 24.2303 111.04 25.7703C112.99 27.7203 112.98 30.8903 111.03 32.8403C110.02 33.8703 108.5 34.5103 107.03 34.5103H107Z" fill="black"/>
<path d="M96.2799 29.6102C96.2599 26.8502 98.4799 24.5902 101.24 24.5602C104 24.5402 106.26 26.7602 106.28 29.5202C106.3 32.2802 104.09 34.5402 101.33 34.5602H101.28C98.5399 34.5602 96.2999 32.3502 96.2799 29.6102Z" fill="black"/>
<path d="M97.1499 32.9701C95.7899 31.7401 95.2599 29.9001 95.2999 28.6201C95.2999 25.8601 97.5399 23.6201 100.3 23.6201C102.58 23.6201 104.49 25.1401 105.1 27.2201C105.93 29.0101 105.65 31.2101 104.22 32.7401C103.23 33.7901 101.9 34.3201 100.57 34.3201C99.3399 34.3201 98.1099 33.8801 97.1499 32.9701Z" fill="black"/>
<path d="M100.32 16.0401C97.5598 16.0401 95.3198 13.7901 95.3198 11.0301C95.3298 8.27007 97.5698 6.03007 100.33 6.04007C103.09 6.04007 105.33 8.28007 105.32 11.0401C105.32 13.8001 103.08 16.0401 100.32 16.0401Z" fill="black"/>
<path d="M95.3198 7.26025C95.3198 4.50025 97.5598 2.26025 100.32 2.26025C103.09 2.26025 105.32 4.50025 105.32 7.26025C105.32 10.0203 103.09 12.2603 100.32 12.2603C97.5598 12.2603 95.3198 10.0203 95.3198 7.26025Z" fill="black"/>
<path d="M96.57 9.43995C95 7.15995 95.57 4.04995 97.85 2.48995C99.11 1.64995 100.2 1.41995 101.38 1.38995C104.14 1.35995 106.4 3.58995 106.42 6.33995C106.44 8.74995 104.76 10.7699 102.5 11.2699C101.91 11.4999 101.3 11.6099 100.69 11.6099C99.1 11.6099 97.53 10.8499 96.57 9.43995Z" fill="black"/>
<path d="M101.76 6.37986C101.75 3.61986 103.97 1.37986 106.74 1.35986C109.5 1.35986 111.75 3.57986 111.76 6.33986C111.77 9.09986 109.54 11.3499 106.78 11.3599H106.76C104.01 11.3599 101.77 9.13986 101.76 6.37986Z" fill="black"/>
<path d="M102.98 8.9402C102.01 7.0902 102.29 4.74021 103.83 3.16021C105.75 1.18021 108.92 1.13021 110.9 3.05021C111.88 3.98021 112.7 5.52021 112.7 7.29021C112.7 10.0502 110.46 12.2902 107.7 12.2902C105.51 12.2902 103.66 10.8902 102.98 8.9402Z" fill="black"/>
<path d="M102.71 28.7803C102.71 26.0203 104.94 23.7803 107.7 23.7803C110.47 23.7803 112.71 26.0103 112.71 28.7803C112.71 31.5403 110.47 33.7803 107.71 33.7803C104.95 33.7803 102.71 31.5403 102.71 28.7803Z" fill="black"/>
<path d="M106.99 34.51C105.73 34.51 104.46 34.03 103.49 33.08C101.52 31.15 101.49 27.98 103.42 26.01L104.14 25.28C106.07 23.31 109.24 23.28 111.21 25.21C113.18 27.14 113.21 30.31 111.28 32.28L110.56 33.01C109.58 34.01 108.29 34.51 106.99 34.51Z" fill="black"/>
<path d="M89.2399 11.3302C86.4799 11.3102 84.2599 9.05021 84.2799 6.30021C84.2999 3.53021 86.5599 1.31021 89.3199 1.33021C92.0799 1.35021 94.2999 3.61021 94.2799 6.37021C94.2599 9.12021 92.0299 11.3302 89.2799 11.3302H89.2399Z" fill="black"/>
<path d="M85.7299 12.1401C82.9699 12.0301 80.8199 9.71007 80.9199 6.95007C81.0199 4.19007 83.3499 2.04007 86.1099 2.14007C88.8599 2.25007 91.0199 4.57007 90.9099 7.32007C90.8099 10.0201 88.5899 12.1401 85.9199 12.1401H85.7299Z" fill="black"/>
<path d="M81.0598 13.7502C80.9098 11.0002 83.0198 8.64017 85.7798 8.50017C88.5398 8.35017 90.8998 10.4702 91.0398 13.2202C91.1898 15.9802 89.0698 18.3402 86.3098 18.4802C86.2198 18.4802 86.1298 18.4802 86.0398 18.4802C83.3998 18.4802 81.1998 16.4102 81.0598 13.7402V13.7502Z" fill="black"/>
<path d="M83.3296 20.05C80.7996 18.95 79.6396 16.01 80.7396 13.47C81.8496 10.94 84.7896 9.78005 87.3196 10.89C89.8596 11.99 91.0096 14.94 89.9096 17.47C89.0896 19.35 87.2496 20.47 85.3196 20.47C84.6596 20.47 83.9796 20.34 83.3296 20.05Z" fill="black"/>
<path d="M81.4497 18.7101C81.0997 18.2601 80.7897 18.1401 80.1897 16.6701C79.2897 14.0601 80.6697 11.2101 83.2797 10.3101C85.4997 9.54009 87.8897 10.4301 89.1097 12.3101C90.5997 14.3201 90.3797 17.1701 88.5197 18.9301C87.5497 19.8301 86.3197 20.2801 85.0897 20.2801C83.7597 20.2801 82.4297 19.7501 81.4497 18.7101Z" fill="black"/>
<path d="M79.1597 13.6902C78.2697 11.0802 79.6596 8.23017 82.2696 7.33017C84.8796 6.43017 87.7197 7.82017 88.6197 10.4302C89.5197 13.0402 88.1296 15.8902 85.5196 16.7902C84.9796 16.9702 84.4297 17.0602 83.8897 17.0602C81.8197 17.0602 79.8797 15.7602 79.1597 13.6902Z" fill="black"/>
<path d="M78.5296 11.5801C77.3396 9.09005 78.3896 6.11005 80.8896 4.92005C83.3796 3.73005 86.3597 4.79005 87.5497 7.28005C88.7397 9.77005 87.6797 12.7601 85.1897 13.9501C84.4997 14.2801 83.7596 14.4301 83.0396 14.4301C81.1796 14.4301 79.3796 13.3801 78.5296 11.5801Z" fill="black"/>
<path d="M77.9298 9.92009C75.3398 8.97009 74.0098 6.09009 74.9698 3.50009C75.9198 0.910089 78.7998 -0.419911 81.3898 0.540089C83.9798 1.49009 85.3098 4.37009 84.3498 6.96009C83.6098 8.98009 81.6998 10.2301 79.6598 10.2301C79.0898 10.2301 78.4998 10.1301 77.9298 9.92009Z" fill="black"/>
<path d="M72.0597 7.21016C70.9897 4.67016 72.1897 1.74016 74.7397 0.670161C77.2797 -0.399839 80.2097 0.790161 81.2797 3.34016C82.3497 5.89016 81.1497 8.82016 78.6097 9.89016C77.9697 10.1502 77.3197 10.2802 76.6697 10.2802C74.7197 10.2802 72.8697 9.12016 72.0597 7.21016Z" fill="black"/>
<path d="M71.6396 13.8299C69.0796 12.7999 67.8296 9.88988 68.8596 7.32988C69.8796 4.75988 72.7896 3.51988 75.3596 4.53988C77.9196 5.56988 79.1596 8.47988 78.1396 11.0399C77.3496 12.9999 75.4796 14.1899 73.4996 14.1899C72.8796 14.1899 72.2496 14.0699 71.6396 13.8299Z" fill="black"/>
<path d="M71.3296 16.5899C68.6396 15.9499 66.9796 13.2499 67.6196 10.5699C68.2596 7.87986 70.9496 6.21986 73.6396 6.85986C76.3196 7.48986 77.9896 10.1899 77.3496 12.8799C76.7996 15.1699 74.7496 16.7199 72.4896 16.7199C72.1096 16.7199 71.7196 16.6799 71.3296 16.5899Z" fill="black"/>
<path d="M70.41 20.3999C67.73 19.7499 66.07 17.0599 66.71 14.3699C67.35 11.6899 70.05 10.0299 72.74 10.6699C75.42 11.3099 77.08 14.0099 76.44 16.6899C75.89 18.9899 73.84 20.5299 71.58 20.5299C71.2 20.5299 70.8 20.4899 70.41 20.3999Z" fill="black"/>
<path d="M70.4 32.9903C67.64 32.9903 65.41 30.7403 65.42 27.9703C65.43 25.2103 67.67 22.9803 70.44 22.9903C73.2 22.9903 75.43 25.2503 75.42 28.0103C75.41 30.7703 73.17 32.9903 70.42 32.9903H70.4Z" fill="black"/>
<path d="M70.3296 48.4903C67.5696 48.4903 65.3396 46.2303 65.3496 43.4703C65.3596 40.7103 67.6096 38.4803 70.3696 38.4903C73.1296 38.4903 75.3596 40.7503 75.3496 43.5103C75.3396 46.2703 73.0996 48.4903 70.3496 48.4903H70.3296Z" fill="black"/>
<path d="M65.3896 71.1899C65.3896 68.4299 67.6196 66.1899 70.3796 66.1899C73.1496 66.1899 75.3896 68.4199 75.3896 71.1799C75.3896 73.9399 73.1597 76.1799 70.3997 76.1899H70.3796C67.6296 76.1899 65.3896 73.9499 65.3896 71.1899Z" fill="black"/>
<path d="M65.5798 103.57C65.4898 100.81 67.6598 98.5001 70.4198 98.4101C73.1798 98.3101 75.4899 100.48 75.5799 103.24C75.6699 106 73.4998 108.31 70.7498 108.4H70.5798C67.8898 108.4 65.6698 106.27 65.5798 103.57Z" fill="black"/>
<path d="M67.89 119.48C66.97 116.87 68.34 114.01 70.94 113.1C73.55 112.18 76.4 113.55 77.32 116.15C78.24 118.75 76.87 121.61 74.27 122.53C73.72 122.72 73.16 122.81 72.61 122.81C70.54 122.81 68.61 121.53 67.89 119.48Z" fill="black"/>
<path d="M68.6497 121.64C67.7297 119.04 69.0997 116.18 71.6997 115.27C74.3097 114.34 77.1597 115.71 78.0797 118.32C78.9997 120.92 77.6397 123.78 75.0297 124.7C74.4797 124.89 73.9197 124.98 73.3697 124.98C71.3097 124.98 69.3797 123.7 68.6497 121.64Z" fill="black"/>
<path d="M75.39 126.67C74 124.28 74.82 121.22 77.21 119.84C79.6 118.46 82.66 119.27 84.04 121.66C85.43 124.05 84.61 127.11 82.22 128.49C81.43 128.95 80.57 129.17 79.72 129.17C77.99 129.17 76.31 128.27 75.39 126.67Z" fill="black"/>
<path d="M82.3898 121.86C79.7798 120.96 78.3798 118.12 79.2798 115.51C80.1698 112.9 83.0098 111.5 85.6298 112.39C88.2398 113.29 89.6298 116.13 88.7398 118.74C88.0298 120.82 86.0898 122.13 84.0098 122.13C83.4698 122.13 82.9298 122.04 82.3898 121.86Z" fill="black"/>
<path d="M83.2996 119.19C80.6896 118.3 79.2896 115.46 80.1796 112.85C81.0796 110.23 83.9196 108.84 86.5296 109.73C89.1496 110.62 90.5396 113.46 89.6496 116.08C88.9396 118.16 86.9996 119.46 84.9196 119.46C84.3796 119.46 83.8396 119.38 83.2996 119.19Z" fill="black"/>
<path d="M81.54 117.66C79.61 115.69 79.65 112.52 81.62 110.59C81.9 110.33 82.2 110.06 82.69 109.77C83.18 109.49 83.85 109.09 85.16 108.99C87.92 108.85 90.27 110.97 90.42 113.72C90.53 115.72 89.44 117.51 87.79 118.4C86.98 118.91 86.05 119.17 85.12 119.17C83.82 119.17 82.52 118.66 81.54 117.66Z" fill="black"/>
<path d="M81.5696 116.92C80.2996 114.93 80.5696 112.25 82.3596 110.57C84.3696 108.68 87.5296 108.78 89.4196 110.79C89.6896 111.07 89.9296 111.36 90.2196 111.83C90.4596 112.33 90.9296 112.89 90.9896 114.58C90.9896 117.34 88.7596 119.58 85.9896 119.58C84.0796 119.58 82.4096 118.5 81.5696 116.92Z" fill="black"/>
<path d="M85.8597 124.34C83.0997 124.31 80.8897 122.04 80.9297 119.28C80.9697 116.52 83.2397 114.31 85.9997 114.35C88.7597 114.39 90.9697 116.65 90.9297 119.41C90.8897 122.15 88.6597 124.34 85.9297 124.34H85.8597Z" fill="black"/>
<path d="M85.8699 142.21C83.1099 142.21 80.8799 139.96 80.8799 137.2C80.8899 134.44 83.1399 132.2 85.8999 132.21C88.6599 132.22 90.8899 134.46 90.8799 137.22C90.8799 139.98 88.6399 142.21 85.8799 142.21H85.8699Z" fill="black"/>
<path d="M84.5197 149.07C81.7797 148.71 79.8497 146.19 80.2097 143.46C80.5697 140.72 83.0897 138.79 85.8197 139.15C88.5597 139.51 90.4897 142.02 90.1297 144.76C89.7997 147.28 87.6497 149.11 85.1797 149.11C84.9597 149.11 84.7397 149.09 84.5197 149.07Z" fill="black"/>
<path d="M80.03 151.7C78.01 149.82 77.89 146.66 79.76 144.63C81.64 142.61 84.8 142.48 86.83 144.36C88.85 146.24 88.98 149.4 87.1 151.43C86.11 152.49 84.77 153.03 83.43 153.03C82.21 153.03 81 152.59 80.03 151.7Z" fill="black"/>
<path d="M78.1 152.43C75.84 150.85 75.29 147.73 76.87 145.47C78.46 143.21 81.57 142.66 83.83 144.24C86.09 145.83 86.65 148.94 85.06 151.21C84.09 152.59 82.54 153.34 80.96 153.34C79.97 153.34 78.97 153.04 78.1 152.43Z" fill="black"/>
<path d="M73.7596 144.44C73.5896 141.68 75.6896 139.31 78.4496 139.15C81.2096 138.98 83.5796 141.08 83.7396 143.84C83.9096 146.59 81.8096 148.96 79.0496 149.13C78.9496 149.13 78.8496 149.13 78.7396 149.13C76.1196 149.13 73.9196 147.08 73.7596 144.43V144.44Z" fill="black"/>
<path d="M72.78 138.73C72.72 135.97 74.91 133.68 77.67 133.63C80.43 133.57 82.72 135.76 82.78 138.52C82.84 141.28 80.64 143.56 77.88 143.62H77.77C75.06 143.62 72.84 141.45 72.78 138.73Z" fill="black"/>
<path d="M76.7698 142.13C74.0098 142.12 71.7798 139.88 71.7798 137.12C71.7898 134.36 74.0398 132.13 76.7998 132.13C79.5598 132.13 81.7898 134.38 81.7898 137.14C81.7798 139.9 79.5398 142.14 76.7898 142.13H76.7698Z" fill="black"/>
<path d="M72.99 142.13C70.23 142.12 67.99 139.88 68 137.11C68 134.35 70.24 132.12 73.01 132.13C75.77 132.13 78 134.38 78 137.14C77.99 139.89 75.76 142.13 73 142.13H72.99Z" fill="black"/>
<path d="M66.2096 137.17C66.1896 134.4 68.4196 132.15 71.1796 132.14H72.0796C74.8396 132.12 77.0896 134.34 77.0996 137.1C77.1196 139.87 74.8896 142.12 72.1296 142.13H71.2396C71.2396 142.13 71.2196 142.13 71.2096 142.13C68.4596 142.13 66.2296 139.91 66.2096 137.16V137.17Z" fill="black"/>
<path d="M65.5299 141.75C65.3199 139 67.3799 136.6 70.1299 136.38C72.8799 136.17 75.2899 138.22 75.4999 140.98C75.7199 143.73 73.6599 146.14 70.9099 146.35C70.7799 146.35 70.6399 146.37 70.5099 146.37C67.9299 146.37 65.7399 144.38 65.5299 141.75Z" fill="black"/>
<path d="M65.8196 145.61C65.6196 142.85 67.6796 140.45 70.4396 140.25C73.1896 140.04 75.5896 142.1 75.7996 144.86C76.0096 147.61 73.9396 150.01 71.1896 150.22C71.0596 150.22 70.9296 150.22 70.8096 150.22C68.2096 150.22 66.0196 148.22 65.8196 145.6V145.61Z" fill="black"/>
<path d="M66.0697 148.28C65.8197 145.53 67.8397 143.09 70.5897 142.84C73.3397 142.59 75.7697 144.61 76.0297 147.36C76.2797 150.11 74.2497 152.55 71.4997 152.8C71.3497 152.82 71.1997 152.82 71.0397 152.82C68.4897 152.82 66.3097 150.87 66.0697 148.28Z" fill="black"/>
<path d="M66.65 152.97C66.31 150.23 68.25 147.73 70.99 147.39C73.73 147.04 76.23 148.99 76.57 151.73C76.92 154.46 74.97 156.96 72.23 157.31C72.02 157.33 71.81 157.35 71.6 157.35C69.12 157.35 66.97 155.5 66.65 152.97Z" fill="black"/>
<path d="M69.1499 163.67C68.2199 161.07 69.5699 158.21 72.1699 157.28C74.7699 156.34 77.6299 157.7 78.5599 160.3C79.4899 162.89 78.1399 165.76 75.5399 166.69C74.9799 166.89 74.4199 166.99 73.8599 166.99C71.7999 166.99 69.8799 165.71 69.1499 163.67Z" fill="black"/>
<path d="M72.2697 170.66C70.8797 168.27 71.6997 165.21 74.0797 163.83C76.4697 162.44 79.5297 163.25 80.9197 165.64C82.2997 168.03 81.4897 171.09 79.0997 172.48C78.3097 172.93 77.4497 173.15 76.5997 173.15C74.8697 173.15 73.1997 172.26 72.2697 170.66Z" fill="black"/>
<path d="M78.0597 176.05C75.5597 174.86 74.4997 171.88 75.6797 169.39C76.8597 166.89 79.8497 165.83 82.3397 167.01C84.8397 168.19 85.8997 171.18 84.7197 173.67C83.8597 175.47 82.0697 176.53 80.1997 176.53C79.4797 176.53 78.7497 176.38 78.0597 176.05Z" fill="black"/>
<path d="M78.5898 173.8C77.4298 171.29 78.5199 168.32 81.0299 167.16C83.5399 166 86.5099 167.1 87.6699 169.6C88.8199 172.11 87.7299 175.08 85.2199 176.24C84.5499 176.55 83.8298 176.7 83.1298 176.7C81.2398 176.7 79.4298 175.63 78.5898 173.8Z" fill="black"/>
<path d="M79.3299 173.29C78.2599 170.75 79.4599 167.82 81.9999 166.75C82.0799 166.72 82.1299 166.69 82.1699 166.68C84.4999 165.28 87.5399 166.02 88.9799 168.34C90.4399 170.69 89.7099 173.77 87.3599 175.23C86.7199 175.62 86.2299 175.81 85.8699 175.97C85.2399 176.24 84.5799 176.36 83.9399 176.36C81.9899 176.36 80.1299 175.21 79.3299 173.29Z" fill="black"/>
<path d="M87.4296 168.67C84.9096 167.54 83.7796 164.59 84.9096 162.07C86.0296 159.54 88.9896 158.41 91.5096 159.54C94.0296 160.66 95.1596 163.62 94.0396 166.14C93.2096 168 91.3796 169.11 89.4696 169.11C88.7896 169.11 88.0996 168.97 87.4296 168.67Z" fill="black"/>
<path d="M87.5996 166.49C85.1796 165.16 84.3096 162.11 85.6496 159.7C86.9896 157.28 90.0296 156.41 92.4496 157.75C94.8596 159.09 95.7396 162.14 94.3896 164.55C93.4796 166.2 91.7796 167.13 90.0196 167.13C89.1996 167.13 88.3696 166.92 87.5996 166.49Z" fill="black"/>
<path d="M90.83 160.36C88.11 159.84 86.33 157.22 86.85 154.51C87.37 151.8 89.99 150.02 92.7 150.53C95.41 151.05 97.19 153.67 96.67 156.38C96.22 158.78 94.12 160.45 91.77 160.45C91.46 160.45 91.14 160.42 90.83 160.36Z" fill="black"/>
<path d="M91.2398 158.17C88.5198 157.65 86.7498 155.03 87.2698 152.32C87.7898 149.61 90.4198 147.83 93.1198 148.35C95.8398 148.88 97.6098 151.5 97.0898 154.21C96.6298 156.6 94.5398 158.26 92.1898 158.26C91.8698 158.26 91.5498 158.23 91.2398 158.17Z" fill="black"/>
<path d="M88.2798 137.77C88.2798 135.01 90.5198 132.77 93.2798 132.77C96.0398 132.77 98.2798 135.01 98.2798 137.77C98.2798 140.53 96.0398 142.77 93.2798 142.77C90.5198 142.77 88.2798 140.53 88.2798 137.77Z" fill="black"/>
<path d="M88.2798 106.18C88.2798 103.42 90.5198 101.18 93.2798 101.18C96.0398 101.18 98.2798 103.42 98.2798 106.18C98.2798 108.95 96.0398 111.18 93.2798 111.18C90.5198 111.18 88.2798 108.94 88.2798 106.18ZM88.2798 74.5903C88.2798 71.8303 90.5198 69.6003 93.2798 69.6003C96.0398 69.6003 98.2798 71.8303 98.2798 74.5903C98.2798 77.3603 96.0398 79.5903 93.2798 79.5903C90.5198 79.5903 88.2798 77.3603 88.2798 74.5903ZM88.2898 43.0103C88.2898 40.2403 90.5198 38.0103 93.2798 38.0103C96.0498 38.0103 98.2798 40.2503 98.2798 43.0103C98.2798 45.7703 96.0498 48.0103 93.2798 48.0103C90.5198 48.0103 88.2798 45.7703 88.2898 43.0103Z" fill="black"/>
<path d="M93.2798 12.7202C90.5198 12.7102 88.2898 10.4602 88.2998 7.70025C88.3098 4.94025 90.5598 2.71025 93.3198 2.72025C96.0898 2.72025 98.3098 4.98025 98.2998 7.74025C98.2998 10.5002 96.0498 12.7202 93.2998 12.7202H93.2798Z" fill="black"/>
<path d="M92.03 11.3502C89.27 11.3502 87.05 9.08023 87.07 6.32023C87.09 3.56023 89.34 1.33023 92.1 1.35023C94.86 1.37023 97.09 3.63023 97.07 6.39023C97.05 9.14023 94.81 11.3602 92.07 11.3502H92.03Z" fill="black"/>
<path d="M92.0697 11.3603H92.0297L89.2497 11.3403C86.4897 11.3203 84.2697 9.06033 84.2897 6.30033C84.3097 3.55033 86.5497 1.34033 89.2897 1.34033H89.3297L92.1097 1.36033C94.8697 1.38033 97.0897 3.64033 97.0697 6.40033C97.0497 9.15033 94.8097 11.3603 92.0697 11.3603Z" fill="black"/>
<path d="M82.4398 103.45C79.8698 102.43 78.6098 99.5301 79.6298 96.9601C80.6398 94.3901 83.5398 93.1401 86.1098 94.1501C88.6798 95.1701 89.9398 98.0701 88.9198 100.64C88.1498 102.6 86.2598 103.8 84.2698 103.8C83.6598 103.8 83.0398 103.69 82.4398 103.45Z" fill="black"/>
<path d="M77.3297 102.83C76.4497 100.21 77.8597 97.3803 80.4797 96.5103C83.0997 95.6303 85.9397 97.0503 86.8097 99.6703C87.6797 102.29 86.2697 105.12 83.6497 105.99C83.1197 106.17 82.5897 106.25 82.0697 106.25C79.9697 106.25 78.0197 104.93 77.3297 102.83Z" fill="black"/>
<path d="M73.99 99.46C73.45 96.75 75.21 94.12 77.92 93.58C80.63 93.05 83.26 94.81 83.8 97.52C84.33 100.23 82.57 102.86 79.86 103.39C79.53 103.46 79.21 103.49 78.89 103.49C76.55 103.49 74.45 101.84 73.99 99.46Z" fill="black"/>
<path d="M73.2996 95.9801C72.7596 93.2701 74.5296 90.6401 77.2396 90.1101C79.9496 89.5701 82.5796 91.3301 83.1096 94.0401C83.6396 96.7501 81.8796 99.3801 79.1696 99.9201C78.8496 99.9801 78.5196 100.01 78.1996 100.01C75.8596 100.01 73.7696 98.3601 73.2996 95.9801Z" fill="black"/>
<path d="M72.7598 90C72.7498 87.23 74.9798 84.99 77.7498 84.98C80.5098 84.98 82.7498 87.21 82.7598 89.97C82.7598 92.73 80.5298 94.98 77.7698 94.98H77.7598C74.9998 94.98 72.7598 92.75 72.7598 90Z" fill="black"/>
<path d="M72.7197 76.1599C72.7197 73.3999 74.9497 71.1599 77.7097 71.1499C80.4697 71.1499 82.7197 73.3799 82.7197 76.1399C82.7297 78.8999 80.4997 81.1399 77.7397 81.1499H77.7197C74.9697 81.1499 72.7297 78.9199 72.7197 76.1599Z" fill="black"/>
<path d="M77.7397 49.5C74.9797 49.5 72.7397 47.26 72.7397 44.5C72.7497 41.74 74.9897 39.5 77.7497 39.5C80.5097 39.5 82.7497 41.74 82.7397 44.5C82.7397 47.26 80.5097 49.5 77.7497 49.5H77.7397Z" fill="black"/>
<path d="M77.7296 45.1202C74.9696 45.0802 72.7696 42.8102 72.8096 40.0502C72.8496 37.2902 75.1296 35.0802 77.8896 35.1302C80.6496 35.1702 82.8496 37.4402 82.8096 40.2002C82.7696 42.9402 80.5396 45.1302 77.8196 45.1202H77.7296Z" fill="black"/>
<path d="M77.1698 40.4003C74.4598 39.8703 72.6898 37.2403 73.2298 34.5303C73.7598 31.8203 76.3898 30.0603 79.0998 30.5903C81.8098 31.1203 83.5698 33.7503 83.0398 36.4603C82.5698 38.8503 80.4798 40.5003 78.1398 40.5003C77.8198 40.5003 77.4898 40.4703 77.1698 40.4003Z" fill="black"/>
<path d="M77.7498 37.4702C75.0398 36.9502 73.2698 34.3202 73.7998 31.6102C74.3298 28.9002 76.9498 27.1302 79.6598 27.6602C82.3698 28.1902 84.1398 30.8102 83.6098 33.5302C83.1498 35.9102 81.0498 37.5702 78.7098 37.5702C78.3898 37.5702 78.0698 37.5402 77.7498 37.4702Z" fill="black"/>
<path d="M77.5297 34.3003C75.0297 33.1303 73.9597 30.1503 75.1297 27.6503C76.3097 25.1503 79.2897 24.0803 81.7897 25.2503C84.2897 26.4303 85.3597 29.4103 84.1797 31.9103C83.3297 33.7203 81.5297 34.7803 79.6497 34.7803C78.9397 34.7803 78.2097 34.6303 77.5297 34.3003Z" fill="black"/>
<path d="M80.0996 32.7803C77.7796 31.2903 77.0996 28.1903 78.5896 25.8703C80.0696 23.5403 83.1696 22.8603 85.4896 24.3503C87.8196 25.8403 88.4996 28.9303 87.0096 31.2603C86.0496 32.7503 84.4396 33.5603 82.7896 33.5603C81.8696 33.5603 80.9396 33.3103 80.0996 32.7803Z" fill="black"/>
<path d="M79.7299 33C78.5599 30.5 79.6399 27.52 82.1399 26.35C84.6399 25.18 87.6199 26.26 88.7899 28.76C89.9599 31.26 88.8799 34.24 86.3799 35.41C85.6899 35.73 84.9699 35.88 84.2699 35.88C82.3899 35.88 80.5799 34.81 79.7299 33Z" fill="black"/>
<path d="M80.2597 34.9402C79.9597 32.2002 81.9297 29.7302 84.6797 29.4202C87.4197 29.1202 89.8897 31.1002 90.1997 33.8402C90.4997 36.5902 88.5197 39.0602 85.7797 39.3602C85.5897 39.3802 85.4097 39.3902 85.2197 39.3902C82.7097 39.3902 80.5397 37.5002 80.2597 34.9402Z" fill="black"/>
<path d="M80.6399 38.3403C80.3299 35.6003 82.3099 33.1303 85.0599 32.8303C87.7999 32.5203 90.2699 34.5003 90.5799 37.2503C90.8799 39.9903 88.8999 42.4703 86.1599 42.7703C85.9699 42.7903 85.7799 42.8003 85.5999 42.8003C83.0799 42.8003 80.9199 40.9003 80.6399 38.3403Z" fill="black"/>
<path d="M80.8896 40.8003C80.8896 38.0403 83.1296 35.8003 85.8896 35.8003C88.6496 35.8003 90.8896 38.0403 90.8896 40.8003C90.8896 43.5603 88.6496 45.8003 85.8896 45.8003C83.1296 45.8003 80.8896 43.5603 80.8896 40.8003Z" fill="black"/>
<path d="M80.8896 65.7703C80.8896 63.0103 83.1296 60.7803 85.8896 60.7803C88.6496 60.7803 90.8896 63.0103 90.8896 65.7703C90.8896 68.5403 88.6496 70.7803 85.8896 70.7803C83.1296 70.7803 80.8896 68.5403 80.8896 65.7703Z" fill="black"/>
<path d="M84.2896 103.8C83.9696 103.8 83.6396 103.77 83.3096 103.7C80.5996 103.16 78.8396 100.53 79.3796 97.8201L80.9796 89.7701C81.5196 87.0601 84.1496 85.3001 86.8596 85.8401C89.5696 86.3801 91.3296 89.0101 90.7896 91.7201L89.1896 99.7701C88.7196 102.15 86.6296 103.79 84.2896 103.79V103.8Z" fill="black"/>
<path d="M48.1999 103.65C46.3499 101.97 46.0499 99.22 47.3899 97.2C48.6599 94.95 51.4599 94.02 53.8499 95.12C56.3499 96.28 57.4399 99.26 56.2799 101.76C56.0399 102.23 55.9599 102.51 55.2599 103.32C54.2699 104.41 52.9199 104.96 51.5599 104.96C50.3599 104.96 49.1499 104.52 48.1999 103.65Z" fill="black"/>
<path d="M43.8299 102.92C42.2499 100.66 42.7998 97.5399 45.0698 95.9599C47.3298 94.3799 50.4498 94.9399 52.0298 97.1999C53.6098 99.4699 53.0499 102.59 50.7899 104.16C49.9199 104.77 48.9198 105.06 47.9398 105.06C46.3598 105.06 44.7999 104.32 43.8299 102.92Z" fill="black"/>
<path d="M43.1997 106.34C40.8597 104.86 40.1597 101.78 41.6297 99.4399C43.0997 97.0999 46.1797 96.3999 48.5197 97.8699C50.8597 99.3399 51.5597 102.43 50.0897 104.77C49.1397 106.28 47.5197 107.1 45.8497 107.1C44.9397 107.1 44.0197 106.86 43.1997 106.34Z" fill="black"/>
<path d="M41.6297 116.23C38.9197 115.7 37.1497 113.08 37.6697 110.37C38.1997 107.65 40.8297 105.88 43.5397 106.41C46.2497 106.94 48.0197 109.56 47.4897 112.27C47.0297 114.66 44.9297 116.32 42.5897 116.32C42.2697 116.32 41.9497 116.29 41.6297 116.23Z" fill="black"/>
<path d="M41.7899 120.74C39.0299 120.66 36.8499 118.36 36.9299 115.6C36.9999 112.84 39.2999 110.66 42.0599 110.74C44.8199 110.82 46.9999 113.11 46.9199 115.87C46.8499 118.59 44.6299 120.74 41.9299 120.74H41.7899Z" fill="black"/>
<path d="M36.4097 122.95C36.4097 120.19 38.6497 117.95 41.4097 117.95C44.1697 117.95 46.4097 120.19 46.4097 122.95C46.4097 125.71 44.1697 127.95 41.4097 127.95C38.6497 127.95 36.4097 125.71 36.4097 122.95Z" fill="black"/>
<path d="M36.4097 157.97C36.4097 155.21 38.6497 152.97 41.4097 152.97C44.1797 152.97 46.4097 155.21 46.4097 157.97C46.4097 160.73 44.1797 162.97 41.4097 162.97C38.6497 162.97 36.4097 160.73 36.4097 157.97Z" fill="black"/>
<path d="M38.0199 198.11C36.1099 196.6 35.5999 193.98 36.6799 191.9C37.4899 189.66 39.8399 188.26 42.2699 188.7C44.9899 189.2 46.7899 191.8 46.2899 194.52C46.1599 195.3 45.7399 196.45 45.0399 197.3C44.0499 198.55 42.5899 199.19 41.1199 199.19C40.0299 199.19 38.9399 198.84 38.0199 198.11Z" fill="black"/>
<path d="M39.7097 199.53C36.9597 199.34 34.8797 196.95 35.0697 194.19C35.2597 191.44 37.6497 189.36 40.4097 189.55C43.1597 189.74 45.2397 192.13 45.0397 194.89C44.8597 197.52 42.6697 199.54 40.0697 199.54C39.9497 199.54 39.8297 199.54 39.7097 199.54V199.53Z" fill="black"/>
<path d="M30.6799 194.83C30.5299 192.08 32.6399 189.72 35.3899 189.56C38.1499 189.41 40.5099 191.52 40.6599 194.28C40.8099 197.04 38.6999 199.4 35.9399 199.55C35.8499 199.55 35.7499 199.55 35.6599 199.55C33.0299 199.55 30.8199 197.49 30.6799 194.82V194.83Z" fill="black"/>
<path d="M33.7696 199.35C32.9396 199.13 31.8696 198.8 30.6796 197.61C28.7796 195.61 28.8596 192.44 30.8696 190.54C32.5396 188.95 35.0296 188.75 36.9096 189.9C39.1196 190.84 40.3896 193.26 39.8096 195.67C39.2496 197.95 37.2096 199.49 34.9496 199.49C34.5596 199.49 34.1696 199.45 33.7696 199.35Z" fill="black"/>
<path d="M29.1295 194.26C29.0395 193.64 29.0396 193.19 29.0396 192.85C29.0396 190.09 31.2695 187.85 34.0295 187.85C36.7995 187.85 39.0295 190.09 39.0295 192.85V192.88C39.3895 195.59 37.5095 198.08 34.7995 198.48C34.5595 198.51 34.3095 198.53 34.0695 198.53C31.6295 198.53 29.4895 196.74 29.1295 194.26Z" fill="black"/>
<path d="M34.0199 195.41C31.2599 195.39 29.0299 193.14 29.0499 190.38C29.0699 187.62 31.3199 185.39 34.0799 185.41C36.8399 185.43 39.0699 187.68 39.0499 190.44C39.0299 193.19 36.7999 195.41 34.0599 195.41H34.0199Z" fill="black"/>
<path d="M29.0596 158.29C29.0596 155.53 31.2996 153.29 34.0596 153.29C36.8196 153.29 39.0596 155.53 39.0596 158.29C39.0596 161.05 36.8196 163.29 34.0596 163.29C31.2896 163.29 29.0596 161.05 29.0596 158.29Z" fill="black"/>
<path d="M29.0398 157.51V156.65C28.9798 153.89 31.1798 151.62 33.9398 151.57C36.6998 151.52 38.9798 153.72 39.0298 156.48V157.34C39.0898 160.1 36.8898 162.38 34.1298 162.43H34.0398C31.3198 162.43 29.0898 160.25 29.0398 157.51Z" fill="black"/>
<path d="M34.0298 158.01C31.2598 158 29.0398 155.76 29.0498 153C29.0498 150.23 31.2998 148 34.0598 148.01C36.8198 148.01 39.0498 150.27 39.0398 153.03C39.0298 155.78 36.7998 158.01 34.0498 158.01H34.0298Z" fill="black"/>
<path d="M34.0396 152.39C31.2796 152.39 29.0496 150.14 29.0596 147.38C29.0596 144.62 31.3096 142.39 34.0696 142.39C36.8296 142.39 39.0596 144.64 39.0596 147.4C39.0596 150.16 36.8096 152.39 34.0596 152.39H34.0396Z" fill="black"/>
<path d="M29.0498 115C29.0498 112.24 31.2798 110 34.0498 110C36.8098 110 39.0498 112.24 39.0498 115C39.0498 117.76 36.8098 120 34.0498 120C31.2898 120 29.0498 117.76 29.0498 115Z" fill="black"/>
<path d="M28.9898 79.3303C28.9498 76.5703 31.1598 74.3003 33.9198 74.2603C36.6798 74.2203 38.9498 76.4303 38.9898 79.1903C39.0298 81.9503 36.8198 84.2203 34.0598 84.2503C34.0598 84.2503 34.0098 84.2603 33.9898 84.2603C31.2598 84.2603 29.0298 82.0603 28.9898 79.3303Z" fill="black"/>
<path d="M32.6099 83.2799C29.9699 82.4599 28.4999 79.6499 29.3199 77.0199C29.6099 76.1499 30.0699 75.0399 31.3499 73.9699C33.5099 72.2399 36.6499 72.5799 38.3899 74.7299C39.8299 76.5299 39.8299 79.0299 38.5399 80.8099C37.6699 82.4799 35.9499 83.5099 34.0999 83.5099C33.6099 83.5099 33.0999 83.4399 32.6099 83.2799Z" fill="black"/>
<path d="M31.0098 77.72C31.0098 74.95 33.2498 72.71 36.0098 72.71C38.7698 72.71 41.0098 74.95 41.0098 77.72C41.0098 80.48 38.7698 82.72 36.0098 82.72C33.2498 82.72 31.0098 80.48 31.0098 77.72Z" fill="black"/>
<path d="M35.46 77.7202C35.42 74.9602 37.63 72.6902 40.39 72.6602C43.16 72.6202 45.42 74.8302 45.46 77.5902C45.49 80.3502 43.28 82.6202 40.52 82.6602H40.46C37.72 82.6602 35.49 80.4602 35.46 77.7202Z" fill="black"/>
<path d="M36.5399 79.9099C35.6899 77.8399 36.3099 75.3899 38.1899 73.9999C40.4099 72.3599 43.5399 72.8199 45.1799 75.0399C46.0699 76.2699 46.3899 77.4999 46.4099 78.7499C46.4299 81.5099 44.2099 83.7699 41.4499 83.7899H41.4099C39.0399 83.7899 37.0499 82.1399 36.5399 79.9099Z" fill="black"/>
<path d="M36.4398 81.8099C36.4098 79.0499 38.6298 76.7899 41.3998 76.7599C44.1598 76.7399 46.4098 78.9599 46.4398 81.7199C46.4598 84.4799 44.2398 86.7399 41.4798 86.7599H41.4298C38.6998 86.7599 36.4598 84.5499 36.4398 81.8099Z" fill="black"/>
<path d="M41.0496 91.1301C38.2896 90.9701 36.1796 88.6101 36.3396 85.8501C36.4996 83.1001 38.8596 80.9901 41.6196 81.1501C44.3796 81.3101 46.4896 83.6701 46.3296 86.4301C46.1696 89.0901 43.9696 91.1401 41.3396 91.1401C41.2396 91.1401 41.1496 91.1401 41.0496 91.1401V91.1301Z" fill="black"/>
<path d="M36.8799 90.82C35.7199 88.31 36.8099 85.34 39.3199 84.18C41.8199 83.01 44.7899 84.1 45.9599 86.61C47.1099 89.11 46.0299 92.09 43.5199 93.25C42.8399 93.56 42.1299 93.71 41.4199 93.71C39.5399 93.71 37.7299 92.64 36.8799 90.82Z" fill="black"/>
<path d="M36.8599 89.2999C36.6499 87.0099 38.0299 84.9399 40.0899 84.1799C41.8399 83.3399 43.9999 83.5599 45.5499 84.9199C47.6299 86.7399 47.8399 89.8999 46.0199 91.9799C44.4599 93.5699 43.4299 93.6599 42.2699 93.8399C42.1199 93.8599 41.9699 93.8599 41.8299 93.8599C39.2599 93.8599 37.0799 91.8999 36.8599 89.2999Z" fill="black"/>
<path d="M41.6899 90.2103C39.1499 89.1303 37.9599 86.2003 39.0399 83.6503C40.1199 81.1103 43.0499 79.9203 45.5899 81.0003C48.1399 82.0703 49.3199 85.0103 48.2499 87.5503C47.4399 89.4603 45.5899 90.6003 43.6399 90.6003C42.9899 90.6003 42.3299 90.4803 41.6899 90.2103Z" fill="black"/>
<path d="M44.8196 81.4301C42.8096 79.5301 42.7096 76.3701 44.6096 74.3601C46.4996 72.3501 49.6596 72.2501 51.6696 74.1401C53.6796 76.0401 53.7796 79.2001 51.8896 81.2101C50.9096 82.2601 49.5796 82.7901 48.2496 82.7901C47.0196 82.7901 45.7896 82.3401 44.8196 81.4301Z" fill="black"/>
<path d="M49.2899 80.9902C46.8299 79.7302 45.8499 76.7302 47.0999 74.2602C48.3599 71.8002 51.37 70.8202 53.83 72.0702C56.29 73.3302 57.2699 76.3402 56.0199 78.8002C55.1299 80.5302 53.38 81.5302 51.56 81.5302C50.79 81.5302 50.0199 81.3602 49.2899 80.9902Z" fill="black"/>
<path d="M46.83 77.6203C46.47 75.0603 48.1399 72.6103 50.7099 72.0403C53.3999 71.4503 56.0699 73.1503 56.6699 75.8503C56.8099 76.5203 56.82 76.9703 56.83 77.3903C56.83 80.1503 54.59 82.3903 51.83 82.3903C49.15 82.3903 46.95 80.2803 46.83 77.6203Z" fill="black"/>
<path d="M51.78 84.4303C49.02 84.4103 46.8 82.1603 46.82 79.4003C46.83 76.6403 49.09 74.4103 51.85 74.4303C54.61 74.4503 56.83 76.7003 56.82 79.4603C56.8 82.2103 54.56 84.4303 51.82 84.4303H51.78Z" fill="black"/>
<path d="M46.8198 91.4499C46.8198 88.6899 49.0598 86.4499 51.8198 86.4399C54.5798 86.4399 56.8198 88.6799 56.8198 91.4399C56.8198 94.1999 54.5798 96.4399 51.8198 96.4399C49.0598 96.4399 46.8198 94.2099 46.8198 91.4499Z" fill="black"/>
<path d="M46.8399 99.3403C46.8299 96.5803 49.0699 94.3303 51.8299 94.3203C54.5899 94.3203 56.8299 96.5503 56.8399 99.3103C56.8499 102.07 54.6199 104.32 51.8499 104.33H51.8399C49.0899 104.33 46.8499 102.1 46.8399 99.3403Z" fill="black"/>
<path d="M51.5696 104.96C50.9196 104.96 50.2596 104.83 49.6296 104.56C47.0896 103.49 45.8996 100.55 46.9696 98.0101L47.2396 97.3801C48.3096 94.8401 51.2496 93.6501 53.7896 94.7201C56.3296 95.7901 57.5196 98.7301 56.4496 101.27L56.1796 101.9C55.3696 103.81 53.5196 104.95 51.5696 104.95V104.96Z" fill="black"/>
</g>
<path d="M57.8301 141C57.8301 138.24 60.0701 136.01 62.8301 136.01C65.5901 136.01 67.8301 138.24 67.8301 141C67.8301 143.76 65.5901 146 62.8301 146C60.0701 146 57.8301 143.76 57.8301 141ZM57.8301 111.77C57.8301 109.01 60.0701 106.77 62.8301 106.77C65.5901 106.77 67.8301 109.01 67.8301 111.77C67.8301 114.53 65.5901 116.77 62.8301 116.77C60.0701 116.77 57.8301 114.53 57.8301 111.77ZM57.8301 82.5298C57.8301 79.7698 60.0701 77.5298 62.8301 77.5298C65.5901 77.5298 67.8301 79.7698 67.8301 82.5298C67.8301 85.2898 65.5901 87.5298 62.8301 87.5298C60.0701 87.5298 57.8301 85.2898 57.8301 82.5298Z" fill="black"/>
<path d="M50.3501 170.24C50.3501 167.48 52.5901 165.24 55.3501 165.24C58.1101 165.24 60.3501 167.48 60.3501 170.24C60.3501 173 58.1101 175.24 55.3501 175.24C52.5901 175.24 50.3501 173 50.3501 170.24Z" fill="black"/>
<path d="M50.3501 141C50.3501 138.24 52.5901 136.01 55.3501 136.01C58.1101 136.01 60.3501 138.24 60.3501 141C60.3501 143.76 58.1101 146 55.3501 146C52.5901 146 50.3501 143.76 50.3501 141ZM50.3501 111.77C50.3501 109.01 52.5901 106.77 55.3501 106.77C58.1101 106.77 60.3501 109.01 60.3501 111.77C60.3501 114.53 58.1101 116.76 55.3501 116.76C52.5901 116.76 50.3501 114.53 50.3501 111.77ZM50.3501 82.5298C50.3501 79.7698 52.5901 77.5298 55.3501 77.5298C58.1101 77.5298 60.3501 79.7698 60.3501 82.5298C60.3501 85.2898 58.1101 87.5298 55.3501 87.5298C52.5901 87.5298 50.3501 85.2898 50.3501 82.5298Z" fill="black"/>
<path d="M57.8301 53.29C57.8301 50.53 60.0701 48.29 62.8301 48.29C65.5901 48.29 67.8301 50.53 67.8301 53.29C67.8301 56.05 65.5901 58.29 62.8301 58.29C60.0701 58.29 57.8301 56.05 57.8301 53.29Z" fill="black"/>
<mask id="mask4_2553_9587" style="mask-type:luminance" maskUnits="userSpaceOnUse" x="0" y="0" width="191" height="200">
<path d="M190.42 0H0V199.56H190.42V0Z" fill="white"/>
</mask>
<g mask="url(#mask4_2553_9587)">
<path d="M56.8 29.2099C56.76 26.6899 58.6 24.5599 61.03 24.1899C63.45 23.5299 66.04 24.7799 66.98 27.1699C68 29.7399 66.74 32.6399 64.18 33.6599C63.47 33.9299 62.83 34.0999 61.89 34.1299H61.8C59.08 34.1299 56.85 31.9399 56.8 29.2099Z" fill="black"/>
<path d="M51.2298 29.27C51.1998 26.51 53.3998 24.24 56.1598 24.21C58.9198 24.17 61.1998 26.37 61.2298 29.13C61.2698 31.9 59.0698 34.16 56.2998 34.2H56.2298C53.4998 34.2 51.2698 32.01 51.2298 29.27Z" fill="black"/>
<path d="M52.5101 32.8102C52.1001 32.4802 51.7001 32.0802 51.2801 31.4602C50.8901 30.8402 50.3901 29.9202 50.3701 28.4502C50.3701 25.6802 52.6101 23.4502 55.3701 23.4502C57.2601 23.4502 58.9001 24.5002 59.7501 26.0402C61.0401 27.8402 61.0101 30.3402 59.5401 32.1302C58.5601 33.3302 57.1201 33.9502 55.6801 33.9502C54.5601 33.9502 53.4401 33.5802 52.5101 32.8102Z" fill="black"/>
<path d="M50.3501 7.17992C50.3501 4.40992 52.5901 2.16992 55.3501 2.16992C58.1101 2.16992 60.3501 4.40992 60.3501 7.16992C60.3501 9.92992 58.1201 12.1699 55.3601 12.1699C52.5901 12.1699 50.3501 9.93992 50.3501 7.17992Z" fill="black"/>
<path d="M53.7598 11.3602C51.1598 10.4202 49.8098 7.56017 50.7498 4.96017C51.0998 4.22017 51.1998 3.49017 52.7398 2.20017C54.9598 0.550173 58.0898 1.01017 59.7398 3.23017C61.0598 4.99017 61.0298 7.35017 59.8398 9.06017C58.9498 10.6802 57.2498 11.6602 55.4498 11.6602C54.8898 11.6602 54.3198 11.5602 53.7598 11.3602Z" fill="black"/>
<path d="M51.7402 5.93018C51.7402 3.17018 53.9802 0.930176 56.7402 0.930176C59.5002 0.930176 61.7402 3.17018 61.7402 5.93018C61.7402 8.69018 59.5002 10.9302 56.7402 10.9302C53.9802 10.9302 51.7402 8.69018 51.7402 5.93018Z" fill="black"/>
<path d="M56.5701 6.16019C56.4401 3.39019 58.5801 1.06019 61.3301 0.940194C64.1001 0.810194 66.4301 2.95019 66.5501 5.70019C66.6801 8.46019 64.5401 10.8002 61.7901 10.9202C61.7101 10.9302 61.6301 10.9302 61.5501 10.9302C58.9001 10.9302 56.6901 8.84019 56.5701 6.16019Z" fill="black"/>
<path d="M59.9099 10.5202C57.6999 9.47024 56.5399 6.92024 57.2899 4.52024C58.1199 1.88024 60.9299 0.420244 63.5599 1.24024C64.2599 1.54024 64.8999 1.55024 66.2699 2.95024C68.0999 5.03024 67.8899 8.19024 65.8199 10.0102C64.8599 10.8402 63.6899 11.2502 62.5199 11.2502C61.6099 11.2502 60.6999 11.0102 59.9099 10.5202Z" fill="black"/>
<path d="M57.8499 7.79993C57.2999 5.22993 58.8399 2.64993 61.3999 1.92993C64.0599 1.19993 66.8199 2.74993 67.5599 5.40993C67.6999 5.94993 67.8099 6.46993 67.8199 7.28993C67.8199 10.0499 65.5899 12.2899 62.8299 12.2899C60.2399 12.2899 58.0999 10.3199 57.8499 7.79993Z" fill="black"/>
<path d="M57.8398 27.7502C57.8398 24.9902 60.0698 22.7402 62.8398 22.7402C65.5998 22.7402 67.8398 24.9802 67.8398 27.7402C67.8398 30.5002 65.5998 32.7402 62.8398 32.7402C60.0798 32.7402 57.8398 30.5102 57.8398 27.7502Z" fill="black"/>
<path d="M60.82 33.3001C58.57 32.3501 57.37 29.9401 57.88 27.6401C58.17 25.1001 60.36 23.1601 62.96 23.2201C65.72 23.2901 67.91 25.5801 67.84 28.3401C67.82 28.7601 67.83 29.5001 67.37 30.6301C66.57 32.5401 64.71 33.6901 62.76 33.6901C62.12 33.6901 61.46 33.5601 60.82 33.3001Z" fill="black"/>
<path d="M61.8201 34.1298C59.9201 34.1298 58.1101 33.0398 57.2701 31.2098C56.1201 28.6998 57.2301 25.7298 59.7401 24.5898L60.6901 24.1598C63.2001 23.0198 66.1701 24.1198 67.3101 26.6298C68.4601 29.1398 67.3501 32.1098 64.8401 33.2498L63.8901 33.6798C63.2201 33.9898 62.5101 34.1298 61.8201 34.1298Z" fill="black"/>
<path d="M22.98 96.7302C22.98 93.9702 25.21 91.7302 27.98 91.7202C30.74 91.7202 32.98 93.9602 32.98 96.7202C32.98 99.4802 30.75 101.72 27.99 101.72C25.22 101.72 22.98 99.4902 22.98 96.7302Z" fill="black"/>
<path d="M22.98 90.3899C22.98 87.6299 25.21 85.3899 27.97 85.3799C30.73 85.3799 32.98 87.6199 32.98 90.3799C32.98 93.1399 30.74 95.3799 27.98 95.3899C25.22 95.3899 22.98 93.1499 22.98 90.3899Z" fill="black"/>
<path d="M21.8602 70.9703C21.3602 68.2503 23.1602 65.6403 25.8802 65.1503C28.5902 64.6503 31.2002 66.4503 31.6902 69.1603C32.1902 71.8803 30.3902 74.4803 27.6802 74.9803C27.3702 75.0403 27.0702 75.0703 26.7702 75.0703C24.4002 75.0703 22.3002 73.3803 21.8602 70.9703Z" fill="black"/>
<path d="M21.1501 66.9301C20.9901 64.1701 23.1001 61.8101 25.8601 61.6501C28.6201 61.5001 30.9801 63.6101 31.1301 66.3701C31.2901 69.1201 29.1801 71.4801 26.4201 71.6401C26.3301 71.6401 26.2301 71.6401 26.1401 71.6401C23.5001 71.6401 21.3001 69.5801 21.1501 66.9201V66.9301Z" fill="black"/>
<path d="M20.7799 65.7002C19.9299 63.0702 21.3799 60.2602 23.9999 59.4102C26.6299 58.5602 29.4499 60.0002 30.2999 62.6302C31.1399 65.2602 29.6999 68.0702 27.0699 68.9202C26.5599 69.0902 26.0499 69.1702 25.5399 69.1702C23.4299 69.1702 21.4599 67.8202 20.7799 65.7002Z" fill="black"/>
<path d="M19.6001 62.04C18.7501 59.41 20.2001 56.59 22.8301 55.75C25.4501 54.9 28.2701 56.34 29.1201 58.97C29.9601 61.6 28.5201 64.42 25.8901 65.26C25.3801 65.43 24.8601 65.5 24.3601 65.5C22.2401 65.5 20.2801 64.15 19.6001 62.04Z" fill="black"/>
<path d="M16.6402 56.8702C14.7302 54.8802 14.7902 51.7202 16.7702 49.8002C18.7602 47.8902 21.9302 47.9502 23.8402 49.9402C25.7602 51.9202 25.7002 55.0902 23.7102 57.0102C22.7402 57.9402 21.4902 58.4002 20.2402 58.4002C18.9302 58.4002 17.6202 57.8902 16.6402 56.8702Z" fill="black"/>
<path d="M9.97977 54.2099C8.93977 51.6499 10.1798 48.7399 12.7498 47.6999C15.2998 46.6699 18.2198 47.9099 19.2498 50.4699C20.2898 53.0299 19.0498 55.9399 16.4898 56.9799C15.8798 57.2199 15.2398 57.3399 14.6198 57.3399C12.6398 57.3399 10.7698 56.1599 9.97977 54.2099Z" fill="black"/>
<path d="M8.03977 61.0303C5.61977 59.7103 4.72977 56.6803 6.04977 54.2503C7.37977 51.8303 10.4098 50.9303 12.8398 52.2603C15.2598 53.5803 16.1498 56.6203 14.8298 59.0403C13.9198 60.7103 12.2098 61.6503 10.4398 61.6503C9.62977 61.6503 8.80977 61.4503 8.03977 61.0303Z" fill="black"/>
<path d="M7.08977 62.7603C4.66977 61.4303 3.77977 58.3903 5.10977 55.9703L5.57977 55.1103C6.90977 52.6903 9.94977 51.8003 12.3698 53.1303C14.7898 54.4603 15.6798 57.4903 14.3498 59.9103L13.8798 60.7803C12.9698 62.4403 11.2498 63.3803 9.48977 63.3803C8.67977 63.3803 7.84977 63.1803 7.08977 62.7603Z" fill="black"/>
<path d="M7.26018 65.1C4.63018 64.26 3.18018 61.44 4.02018 58.81C4.86018 56.18 7.67018 54.73 10.3102 55.57C12.9302 56.41 14.3802 59.23 13.5402 61.86C12.8602 63.98 10.9002 65.34 8.78018 65.34C8.27018 65.34 7.76018 65.26 7.26018 65.1Z" fill="black"/>
<path d="M6.12004 68.6401C3.49004 67.8001 2.04004 64.9801 2.88004 62.3501C3.73004 59.7201 6.54004 58.2701 9.17004 59.1201C11.8 59.9601 13.25 62.7801 12.4 65.4101C11.72 67.5301 9.76004 68.8801 7.65004 68.8801C7.14004 68.8801 6.62004 68.8001 6.12004 68.6401Z" fill="black"/>
<path d="M5.48981 77.5499C2.73981 77.2699 0.739807 74.8099 1.01981 72.0599C1.29981 69.3199 3.74981 67.3199 6.49981 67.5999C9.24981 67.8699 11.2498 70.3299 10.9698 73.0799C10.7098 75.6499 8.52981 77.5699 5.99981 77.5699C5.82981 77.5699 5.65981 77.5699 5.48981 77.5499Z" fill="black"/>
<path d="M5.20015 80.3599C2.46015 80.0799 0.450146 77.6199 0.730146 74.8799C1.01015 72.1299 3.47015 70.1299 6.21015 70.4099C8.96015 70.6899 10.9601 73.1399 10.6801 75.8899C10.4201 78.4699 8.25015 80.3899 5.71015 80.3899C5.54015 80.3899 5.37015 80.3899 5.20015 80.3599Z" fill="black"/>
<path d="M4.73993 93.4902C1.97993 93.3402 -0.140065 90.9902 0.00993519 88.2302C0.159935 85.4702 2.50994 83.3602 5.26994 83.5002C8.02994 83.6502 10.1399 86.0102 9.99994 88.7602C9.84994 91.4302 7.63994 93.5002 4.99994 93.5002C4.91994 93.5002 4.82993 93.5002 4.73993 93.5002V93.4902Z" fill="black"/>
<path d="M0 111.74C0 108.97 2.24 106.74 5 106.74C7.76 106.74 10 108.97 10 111.74C10 114.5 7.76 116.74 5 116.74C2.24 116.74 0 114.5 0 111.74Z" fill="black"/>
<path d="M0.0998151 137.8C-0.0401849 135.04 2.07982 132.69 4.83982 132.55C7.59982 132.41 9.94982 134.53 10.0898 137.28C10.2298 140.04 8.10982 142.39 5.35982 142.54H5.08982C2.44982 142.54 0.239815 140.47 0.0998151 137.8Z" fill="black"/>
<path d="M0.520189 145.72C0.370189 142.96 2.49019 140.61 5.25019 140.47C8.01019 140.32 10.3602 142.44 10.5002 145.2C10.6502 147.96 8.53019 150.31 5.77019 150.45C5.68019 150.45 5.59019 150.45 5.51019 150.45C2.86019 150.45 0.650189 148.38 0.520189 145.71V145.72Z" fill="black"/>
<path d="M1.32991 154.04C0.839911 151.32 2.63991 148.72 5.35991 148.23C8.07991 147.74 10.6799 149.54 11.1699 152.26C11.6599 154.98 9.84991 157.58 7.12991 158.07C6.82991 158.12 6.53991 158.15 6.23991 158.15C3.86991 158.15 1.75991 156.46 1.32991 154.04Z" fill="black"/>
<path d="M2.35011 159.18C1.6901 156.5 3.33011 153.79 6.01011 153.13C8.69011 152.47 11.4001 154.11 12.0601 156.79C12.7301 159.47 11.0901 162.18 8.4101 162.84C8.0001 162.94 7.6001 162.98 7.2001 162.98C4.9601 162.98 2.92011 161.46 2.35011 159.18Z" fill="black"/>
<path d="M3.25987 162.82C2.58987 160.14 4.21987 157.43 6.89987 156.76C9.57987 156.09 12.2899 157.73 12.9599 160.4C13.6299 163.09 11.9999 165.8 9.31987 166.46C8.90987 166.57 8.50987 166.61 8.10987 166.61C5.86987 166.61 3.82987 165.09 3.25987 162.82Z" fill="black"/>
<path d="M6.52004 170.25C5.18004 167.84 6.04004 164.79 8.45004 163.45C10.86 162.1 13.91 162.97 15.25 165.38C16.6 167.79 15.74 170.83 13.33 172.18C12.56 172.61 11.72 172.81 10.9 172.81C9.14004 172.81 7.44004 171.89 6.52004 170.25Z" fill="black"/>
<path d="M8.34021 172.58C6.60021 170.44 6.93021 167.29 9.07021 165.54C11.2202 163.8 14.3702 164.13 16.1002 166.27C17.8502 168.42 17.5202 171.57 15.3802 173.31C14.4502 174.06 13.3302 174.43 12.2302 174.43C10.7702 174.43 9.33021 173.8 8.34021 172.58Z" fill="black"/>
<path d="M16.68 173.58C14.74 171.63 14.75 168.46 16.71 166.51C18.66 164.57 21.83 164.58 23.78 166.54C25.72 168.49 25.71 171.66 23.75 173.61C22.78 174.58 21.5 175.06 20.23 175.06C18.94 175.06 17.66 174.57 16.68 173.58Z" fill="black"/>
<path d="M22.9499 166.8C20.3599 165.82 19.0599 162.94 20.0399 160.35C21.0199 157.77 23.9099 156.47 26.4899 157.45C29.0699 158.43 30.3699 161.31 29.3899 163.9C28.6399 165.9 26.7399 167.13 24.7199 167.13C24.1299 167.13 23.5299 167.02 22.9499 166.8Z" fill="black"/>
<path d="M24.0002 164.48C21.3502 163.7 19.8402 160.92 20.6302 158.27C21.4102 155.62 24.1902 154.11 26.8402 154.9C29.4902 155.68 31.0002 158.46 30.2102 161.11C29.5702 163.28 27.5802 164.69 25.4302 164.69C24.9502 164.69 24.4802 164.62 24.0002 164.48Z" fill="black"/>
<path d="M25.37 160.72C22.66 160.19 20.89 157.57 21.41 154.85C21.94 152.14 24.56 150.37 27.27 150.9C29.99 151.42 31.76 154.05 31.23 156.76C30.77 159.15 28.67 160.81 26.33 160.81C26.01 160.81 25.69 160.78 25.37 160.72Z" fill="black"/>
<path d="M25.95 157.72C23.24 157.19 21.47 154.57 22 151.86C22.53 149.14 25.15 147.38 27.86 147.9C30.57 148.43 32.34 151.06 31.81 153.77C31.35 156.16 29.26 157.81 26.91 157.81C26.59 157.81 26.27 157.78 25.95 157.72Z" fill="black"/>
<path d="M27.9598 139.56C25.1998 139.56 22.9598 137.31 22.9698 134.55C22.9698 131.79 25.2198 129.55 27.9698 129.56C30.7398 129.56 32.9698 131.8 32.9698 134.56C32.9598 137.32 30.7298 139.56 27.9698 139.56H27.9598Z" fill="black"/>
<path d="M27.99 120.44C25.23 120.44 22.99 118.19 23 115.43C23 112.67 25.24 110.43 28.01 110.44C30.77 110.44 33 112.69 33 115.44C32.99 118.21 30.76 120.44 28 120.44H27.99Z" fill="black"/>
<path d="M23 114.73V114.01C23 111.25 25.24 109.02 28 109.02C30.76 109.02 33 111.25 33 114.01V114.73C33 117.49 30.76 119.73 28 119.73C25.24 119.73 23 117.49 23 114.73Z" fill="black"/>
<path d="M18.7201 148.77C16.0201 148.19 14.3001 145.53 14.8801 142.83C15.4501 140.13 18.1101 138.41 20.8101 138.99C23.5101 139.56 25.2301 142.22 24.6601 144.92C24.1501 147.27 22.0801 148.88 19.7701 148.88C19.4201 148.88 19.0701 148.84 18.7201 148.77Z" fill="black"/>
<path d="M16.6702 150.65C14.2302 149.36 13.3002 146.34 14.5902 143.89C15.8802 141.45 18.9102 140.52 21.3502 141.81C23.7902 143.1 24.7202 146.13 23.4302 148.57C22.5402 150.27 20.8002 151.23 19.0102 151.23C18.2202 151.23 17.4202 151.05 16.6702 150.65Z" fill="black"/>
<path d="M13.7801 152.78C11.2701 151.64 10.1601 148.67 11.3101 146.16C12.4601 143.65 15.4301 142.54 17.9401 143.69C20.4501 144.84 21.5601 147.81 20.4101 150.32C19.5701 152.16 17.7501 153.24 15.8601 153.24C15.1601 153.24 14.4501 153.09 13.7801 152.78Z" fill="black"/>
<path d="M9.78987 148.79C8.40987 146.4 9.22987 143.34 11.6299 141.96C14.0199 140.59 17.0799 141.41 18.4599 143.8C19.8299 146.19 19.0099 149.25 16.6199 150.63C15.8299 151.08 14.9699 151.3 14.1299 151.3C12.3999 151.3 10.7099 150.4 9.78987 148.79Z" fill="black"/>
<path d="M8.35008 144.63C7.94008 141.9 9.82008 139.36 12.5501 138.94C15.2801 138.53 17.8201 140.41 18.2401 143.14C18.6501 145.87 16.7701 148.42 14.0401 148.83C13.7901 148.87 13.5401 148.89 13.2901 148.89C10.8501 148.89 8.72008 147.11 8.35008 144.63Z" fill="black"/>
<path d="M7.67006 140.4C7.56006 137.64 9.71006 135.31 12.4701 135.2C15.2301 135.09 17.5501 137.24 17.6601 139.99C17.7801 142.76 15.6301 145.08 12.8701 145.19C12.8001 145.19 12.7401 145.19 12.6701 145.19C10.0001 145.19 7.78006 143.08 7.67006 140.39V140.4Z" fill="black"/>
<path d="M7.45989 135.1C7.35989 132.34 9.50989 130.01 12.2599 129.91C15.0199 129.8 17.3499 131.95 17.4599 134.71C17.5699 137.47 15.4199 139.79 12.6599 139.9H12.4499C9.77989 139.9 7.56989 137.79 7.45989 135.1Z" fill="black"/>
<path d="M7.47021 111.14C7.47021 108.38 9.72021 106.14 12.4802 106.14C15.2402 106.14 17.4802 108.38 17.4702 111.14C17.4702 113.9 15.2302 116.14 12.4702 116.14C9.71022 116.14 7.47021 113.9 7.47021 111.14Z" fill="black"/>
<path d="M12.4699 87.6501C9.70992 87.5101 7.58992 85.1601 7.73992 82.4001C7.87992 79.6401 10.2399 77.5201 12.9899 77.6701C15.7499 77.8101 17.8699 80.1601 17.7299 82.9201C17.5799 85.5901 15.3799 87.6601 12.7299 87.6601C12.6499 87.6601 12.5599 87.6601 12.4699 87.6601V87.6501Z" fill="black"/>
<path d="M12.33 85.3501C9.61001 84.9001 7.76001 82.3301 8.21001 79.6001C8.67001 76.8801 11.24 75.0401 13.96 75.4901C16.69 75.9401 18.53 78.5101 18.08 81.2401C17.67 83.6801 15.56 85.4201 13.15 85.4201C12.88 85.4201 12.61 85.4001 12.33 85.3501Z" fill="black"/>
<path d="M11.7599 79.2401C9.79993 77.2901 9.77993 74.1301 11.7199 72.1701C13.6599 70.2001 16.8299 70.1801 18.7899 72.1201C20.7599 74.0601 20.7799 77.2301 18.8399 79.1901C17.8599 80.1801 16.5699 80.6801 15.2799 80.6801C14.0099 80.6801 12.7399 80.2001 11.7599 79.2401Z" fill="black"/>
<path d="M14.2401 79.2302C12.3201 77.2502 12.3701 74.0902 14.3501 72.1702C16.3401 70.2402 19.5001 70.3002 21.4201 72.2802C23.3501 74.2602 23.2901 77.4302 21.3101 79.3502C20.3401 80.2902 19.0901 80.7602 17.8401 80.7602C16.5301 80.7602 15.2201 80.2502 14.2401 79.2302Z" fill="black"/>
<path d="M14.7801 80.3699C14.2201 77.6699 15.9601 75.0198 18.6701 74.4598C21.3701 73.8998 24.0201 75.6498 24.5801 78.3498C25.1301 81.0498 23.3901 83.6999 20.6901 84.2599C20.3501 84.3299 20.0101 84.3598 19.6701 84.3598C17.3501 84.3598 15.2701 82.7299 14.7801 80.3699Z" fill="black"/>
<path d="M15.4002 83.35C14.8402 80.65 16.5702 78 19.2802 77.43C21.9802 76.87 24.6302 78.61 25.1902 81.31C25.7502 84.01 24.0202 86.66 21.3102 87.22C20.9702 87.3 20.6302 87.33 20.2902 87.33C17.9702 87.33 15.8902 85.71 15.4002 83.35Z" fill="black"/>
<path d="M15.5601 86.9403C15.2401 84.2003 17.2001 81.7103 19.9401 81.3903C22.6901 81.0603 25.1701 83.0203 25.5001 85.7603C25.8201 88.5103 23.8601 90.9903 21.1201 91.3203C20.9201 91.3403 20.7201 91.3503 20.5301 91.3503C18.0301 91.3503 15.8701 89.4803 15.5601 86.9403Z" fill="black"/>
<path d="M15.5298 111.97C15.5298 109.21 17.7698 106.97 20.5298 106.97C23.2898 106.97 25.5298 109.21 25.5298 111.97C25.5298 114.73 23.2898 116.97 20.5298 116.97C17.7698 116.97 15.5298 114.73 15.5298 111.97Z" fill="black"/>
<path d="M19.7798 148.88C19.5798 148.88 19.3798 148.87 19.1798 148.84C16.4398 148.51 14.4798 146.03 14.7998 143.29L15.5498 137C15.8798 134.26 18.3598 132.29 21.0998 132.62C23.8398 132.95 25.7998 135.43 25.4798 138.17L24.7298 144.46C24.4298 147 22.2698 148.87 19.7698 148.87L19.7798 148.88Z" fill="black"/>
<path d="M180.42 170.25V170.03C180.42 167.27 182.66 165.03 185.42 165.03C188.18 165.03 190.42 167.27 190.42 170.03V170.25C190.42 173.01 188.18 175.25 185.42 175.25C182.66 175.25 180.42 173.01 180.42 170.25Z" fill="black"/>
<path d="M183.43 175.27C180.86 174.25 179.6 171.35 180.62 168.78L180.69 168.59C181.71 166.03 184.61 164.77 187.18 165.78C189.75 166.8 191.01 169.71 189.99 172.27L189.92 172.46C189.14 174.42 187.26 175.62 185.27 175.62C184.66 175.62 184.03 175.51 183.43 175.27Z" fill="black"/>
<path d="M183.68 176.17C180.94 175.81 179.01 173.3 179.37 170.57C179.73 167.83 182.24 165.9 184.98 166.26C187.71 166.61 189.64 169.12 189.29 171.86C188.96 174.38 186.81 176.21 184.34 176.21C184.12 176.21 183.9 176.21 183.68 176.17Z" fill="black"/>
<path d="M175.37 171.94C173.41 169.99 173.39 166.83 175.34 164.87C177.28 162.9 180.45 162.89 182.41 164.83C184.37 166.78 184.39 169.94 182.44 171.9C181.46 172.89 180.18 173.38 178.89 173.38C177.62 173.38 176.35 172.9 175.37 171.94Z" fill="black"/>
<path d="M169.82 154.88C169.55 152.13 171.56 149.68 174.31 149.41C177.05 149.13 179.5 151.14 179.77 153.89C180.05 156.63 178.04 159.08 175.29 159.36C175.13 159.36 174.96 159.38 174.79 159.38C172.25 159.38 170.08 157.45 169.82 154.88Z" fill="black"/>
<path d="M169.42 150.8C169.14 148.05 171.15 145.6 173.9 145.33C176.64 145.05 179.09 147.06 179.37 149.81C179.64 152.56 177.64 155.01 174.89 155.28C174.72 155.3 174.55 155.3 174.38 155.3C171.85 155.3 169.67 153.38 169.42 150.8Z" fill="black"/>
<path d="M169.02 141.13C168.91 138.37 171.06 136.05 173.82 135.94C176.58 135.83 178.9 137.98 179.01 140.73C179.13 143.5 176.98 145.82 174.22 145.93H174.02C171.34 145.93 169.13 143.82 169.02 141.13Z" fill="black"/>
<path d="M169.02 115.34C169.02 112.58 171.25 110.34 174.01 110.34C176.78 110.34 179.02 112.58 179.02 115.34C179.02 118.1 176.78 120.34 174.02 120.34C171.26 120.34 169.02 118.1 169.02 115.34Z" fill="black"/>
<path d="M169.02 86.2199C168.77 83.4699 170.8 81.0399 173.55 80.7899C176.3 80.5399 178.73 82.5699 178.98 85.3199C179.23 88.0699 177.2 90.4999 174.46 90.7499C174.3 90.7699 174.15 90.7699 174 90.7699C171.44 90.7699 169.26 88.8199 169.02 86.2199Z" fill="black"/>
<path d="M169 60.0403C169 57.2803 171.24 55.0403 174 55.0403C176.76 55.0403 179 57.2803 179 60.0403C179 62.8003 176.76 65.0403 174 65.0403C171.24 65.0403 169 62.8003 169 60.0403ZM169 34.3003C169 31.5403 171.24 29.3003 174 29.3003C176.77 29.3003 179.01 31.5403 179.01 34.3003C179.01 37.0703 176.77 39.3003 174 39.3003C171.24 39.3003 169 37.0603 169 34.3003Z" fill="black"/>
<path d="M171.29 9.39018C169.18 7.62018 168.91 4.46018 170.68 2.35018C172.46 0.24018 175.61 -0.0398202 177.73 1.74018C179.84 3.51018 180.11 6.67018 178.34 8.78018C177.35 9.96018 175.93 10.5702 174.51 10.5702C173.37 10.5702 172.23 10.1802 171.29 9.39018Z" fill="black"/>
<path d="M175.9 5.56006C175.9 2.80006 178.13 0.560059 180.9 0.560059C183.66 0.560059 185.9 2.80006 185.9 5.56006C185.9 8.33006 183.66 10.5701 180.9 10.5701C178.13 10.5701 175.9 8.33006 175.9 5.56006Z" fill="black"/>
<path d="M176.56 7.63014C175.91 5.18014 177.21 2.59014 179.63 1.68014C182.21 0.700139 185.1 2.00014 186.07 4.58014C186.41 5.46014 186.55 6.45014 186.55 7.27014C186.55 10.0301 184.31 12.2701 181.55 12.2701C178.91 12.2701 176.74 10.2201 176.56 7.63014Z" fill="black"/>
<path d="M181.42 16.3799C178.66 16.3399 176.45 14.0699 176.49 11.3099C176.53 8.54993 178.8 6.33993 181.56 6.37993C184.32 6.41993 186.53 8.68993 186.49 11.4499C186.45 14.1799 184.22 16.3799 181.49 16.3799H181.42Z" fill="black"/>
<path d="M176.48 106.9C176.48 104.14 178.72 101.9 181.48 101.9C184.25 101.9 186.48 104.14 186.48 106.9C186.48 109.67 184.25 111.91 181.48 111.91C178.72 111.91 176.48 109.67 176.48 106.9ZM176.48 75.0602C176.48 72.3002 178.72 70.0602 181.48 70.0602C184.25 70.0602 186.49 72.3002 186.49 75.0602C186.49 77.8302 184.25 80.0602 181.48 80.0602C178.72 80.0602 176.48 77.8202 176.48 75.0602ZM176.49 43.2202C176.49 40.4602 178.72 38.2202 181.49 38.2202C184.25 38.2202 186.49 40.4602 186.49 43.2202C186.49 45.9802 184.25 48.2202 181.48 48.2202C178.72 48.2202 176.49 45.9802 176.49 43.2202Z" fill="black"/>
<path d="M180.78 152.42C178.71 150.58 178.53 147.42 180.36 145.36C182.2 143.3 185.36 143.12 187.42 144.95C189.49 146.79 189.67 149.95 187.84 152.01C186.85 153.12 185.48 153.69 184.1 153.69C182.92 153.69 181.73 153.27 180.78 152.42Z" fill="black"/>
<path d="M180.26 150.26C180.26 147.49 182.49 145.25 185.26 145.25C188.02 145.25 190.26 147.49 190.26 150.26C190.26 153.02 188.02 155.26 185.26 155.26C182.49 155.26 180.26 153.02 180.26 150.26Z" fill="black"/>
<path d="M180.26 169.46C180.26 166.7 182.5 164.47 185.26 164.47C188.02 164.47 190.26 166.7 190.26 169.46C190.26 172.23 188.02 174.47 185.26 174.47C182.5 174.47 180.26 172.23 180.26 169.46Z" fill="black"/>
<path d="M182.61 173.95C182.11 173.61 181.83 173.32 181.59 173.06C181.13 172.52 180.88 172.06 180.67 171.56C179.62 169 180.85 166.08 183.41 165.04C185.52 164.18 187.89 164.86 189.23 166.58C189.97 167.45 190.42 168.58 190.42 169.81C190.42 172.57 188.18 174.81 185.41 174.81C183.83 174.76 183.12 174.26 182.61 173.95Z" fill="black"/>
<path d="M185.42 175.25C182.71 175.25 180.49 173.09 180.42 170.36V169.92C180.35 167.16 182.53 164.87 185.29 164.81C188.05 164.73 190.34 166.93 190.4 169.69V170.13C190.47 172.89 188.29 175.18 185.53 175.24C185.49 175.24 185.45 175.24 185.41 175.24L185.42 175.25Z" fill="black"/>
<path d="M162.49 72.6503C162.03 69.9303 163.87 67.3503 166.59 66.8903C169.32 66.4403 171.9 68.2703 172.35 70.9903C172.81 73.7203 170.97 76.3003 168.25 76.7503C167.97 76.8003 167.69 76.8203 167.41 76.8203C165.02 76.8203 162.9 75.0903 162.49 72.6503Z" fill="black"/>
<path d="M161.65 67.6901C161.19 64.9601 163.03 62.3801 165.75 61.9201C168.47 61.4701 171.05 63.3001 171.51 66.0201C171.97 68.7501 170.14 71.3301 167.41 71.7901C167.13 71.8301 166.85 71.8601 166.58 71.8601C164.18 71.8601 162.06 70.1301 161.65 67.6901Z" fill="black"/>
<path d="M160.61 63.5003C159.79 60.8603 161.26 58.0603 163.9 57.2403C166.54 56.4203 169.34 57.8903 170.16 60.5303C170.98 63.1603 169.51 65.9703 166.87 66.7903C166.38 66.9403 165.88 67.0103 165.39 67.0103C163.25 67.0103 161.28 65.6403 160.61 63.5003Z" fill="black"/>
<path d="M159.75 60.7303C158.93 58.0903 160.41 55.2903 163.04 54.4703C165.68 53.6503 168.48 55.1203 169.3 57.7603C170.12 60.4003 168.64 63.2003 166.01 64.0203C165.51 64.1703 165.01 64.2403 164.52 64.2403C162.39 64.2403 160.42 62.8703 159.75 60.7303Z" fill="black"/>
<path d="M158.35 58.2003C157.06 55.7603 158 52.7403 160.44 51.4503C162.88 50.1603 165.9 51.0903 167.19 53.5403C168.48 55.9803 167.55 59.0003 165.11 60.2903C164.36 60.6903 163.56 60.8703 162.78 60.8703C160.98 60.8703 159.25 59.9003 158.35 58.2003Z" fill="black"/>
<path d="M156.71 56.61C154.17 55.54 152.97 52.61 154.04 50.06C155.11 47.52 158.05 46.32 160.59 47.39C163.14 48.47 164.33 51.4 163.26 53.95C162.46 55.86 160.6 57.01 158.65 57.01C158 57.01 157.35 56.88 156.71 56.61Z" fill="black"/>
<path d="M150.38 53.96C149.32 51.41 150.53 48.49 153.08 47.43C155.63 46.37 158.55 47.57 159.61 50.12C160.67 52.67 159.47 55.6 156.92 56.66C156.29 56.92 155.64 57.04 155 57.04C153.04 57.04 151.18 55.89 150.38 53.96Z" fill="black"/>
<path d="M147.62 64.3299C145.02 63.3999 143.66 60.5499 144.58 57.9399C145.51 55.3399 148.36 53.9799 150.97 54.8999C153.57 55.8299 154.93 58.6899 154 61.2899C153.27 63.3399 151.35 64.6199 149.29 64.6199C148.74 64.6199 148.17 64.5199 147.62 64.3299Z" fill="black"/>
<path d="M146.46 67.5799C143.86 66.6499 142.5 63.7899 143.42 61.1899C144.35 58.5899 147.21 57.2299 149.81 58.1499C152.41 59.0799 153.77 61.9399 152.85 64.5399C152.12 66.5899 150.19 67.8699 148.13 67.8699C147.58 67.8699 147.01 67.7699 146.46 67.5799Z" fill="black"/>
<path d="M146.47 70.9399C143.75 70.4299 141.96 67.8299 142.46 65.1099C142.97 62.3999 145.57 60.5999 148.29 61.1099C151 61.6099 152.8 64.2199 152.29 66.9299C151.85 69.3399 149.75 71.0199 147.39 71.0199C147.08 71.0199 146.77 70.9899 146.47 70.9399Z" fill="black"/>
<path d="M145.96 73.5599C143.23 73.1199 141.37 70.5599 141.81 67.8399C142.24 65.1099 144.8 63.25 147.53 63.68C150.26 64.11 152.12 66.67 151.68 69.4C151.29 71.86 149.17 73.62 146.75 73.62C146.49 73.62 146.23 73.5999 145.96 73.5599Z" fill="black"/>
<path d="M144.97 79.8602C142.24 79.4302 140.38 76.8702 140.81 74.1402C141.24 71.4102 143.8 69.5502 146.53 69.9802C149.26 70.4102 151.12 72.9702 150.69 75.7002C150.3 78.1602 148.18 79.9202 145.76 79.9202C145.5 79.9202 145.24 79.9002 144.97 79.8602Z" fill="black"/>
<path d="M145.02 85.3501C142.27 85.1501 140.2 82.7601 140.4 80.0001C140.6 77.2501 142.99 75.1801 145.74 75.3801C148.5 75.5801 150.57 77.9701 150.37 80.7301C150.18 83.3501 147.99 85.3601 145.39 85.3601C145.27 85.3601 145.15 85.3601 145.02 85.3601V85.3501Z" fill="black"/>
<path d="M144.62 90.8101C141.86 90.6101 139.8 88.2101 140 85.4601C140.2 82.7001 142.6 80.6401 145.35 80.8401C148.1 81.0401 150.17 83.4401 149.97 86.1901C149.78 88.8201 147.59 90.8301 144.99 90.8301C144.87 90.8301 144.74 90.8301 144.62 90.8101Z" fill="black"/>
<path d="M146.02 91.6799C144.55 91.6199 143.65 91.2599 142.6 90.6099C140.3 89.0799 139.67 85.9699 141.2 83.6799C142.55 81.6499 145.12 80.9199 147.28 81.8199C149.49 82.3599 151.11 84.3699 151.08 86.7399C151.04 89.4799 148.81 91.6799 146.08 91.6799H146.02Z" fill="black"/>
<path d="M150.56 91.7601C147.8 91.7101 145.61 89.4301 145.66 86.6701C145.71 83.9101 147.99 81.7101 150.76 81.7601C153.52 81.8201 155.71 84.1001 155.66 86.8601C155.61 89.5901 153.38 91.7601 150.66 91.7601H150.56Z" fill="black"/>
<path d="M151.49 90.64C148.76 90.2 146.91 87.64 147.34 84.91C147.78 82.19 150.35 80.33 153.07 80.77C155.8 81.2 157.65 83.77 157.22 86.5C156.82 88.95 154.7 90.71 152.29 90.71C152.02 90.71 151.76 90.68 151.49 90.64Z" fill="black"/>
<path d="M151.83 88.5702C149.1 88.1402 147.24 85.5802 147.67 82.8502C148.1 80.1202 150.66 78.2602 153.39 78.6902C156.12 79.1202 157.98 81.6802 157.55 84.4102C157.16 86.8702 155.03 88.6302 152.62 88.6302C152.36 88.6302 152.1 88.6102 151.83 88.5702Z" fill="black"/>
<path d="M151.94 82.8901C149.38 81.8601 148.14 78.9501 149.18 76.3901C150.21 73.8201 153.12 72.5901 155.68 73.6201C158.24 74.6501 159.48 77.5601 158.45 80.1301C157.67 82.0701 155.79 83.2601 153.81 83.2601C153.19 83.2601 152.56 83.1401 151.94 82.8901Z" fill="black"/>
<path d="M151.71 78.4399C150.02 76.2599 150.41 73.1199 152.59 71.4299C154.78 69.7299 157.92 70.1299 159.61 72.3099C161.3 74.4899 160.9 77.6299 158.72 79.3299C157.81 80.0299 156.73 80.3799 155.66 80.3799C154.17 80.3799 152.69 79.7099 151.71 78.4399Z" fill="black"/>
<path d="M154.74 78.7499C153.14 76.5099 153.65 73.3899 155.9 71.7799C158.14 70.1699 161.27 70.6899 162.87 72.9299C164.48 75.1799 163.96 78.2999 161.72 79.9099C160.84 80.5399 159.82 80.8399 158.81 80.8399C157.25 80.8399 155.72 80.1199 154.74 78.7499Z" fill="black"/>
<path d="M155.43 80.7802C155.31 78.0102 157.45 75.6802 160.21 75.5702C162.97 75.4502 165.3 77.5902 165.42 80.3502C165.53 83.1102 163.4 85.4402 160.63 85.5602H160.41C157.75 85.5602 155.54 83.4602 155.43 80.7802Z" fill="black"/>
<path d="M155.73 82.95C155.73 82.95 155.7 82.74 155.63 82.39C155.11 79.68 156.89 77.06 159.6 76.54C162.31 76.02 164.93 77.8 165.45 80.51C165.49 80.75 165.59 81.15 165.66 81.72C166 84.46 164.05 86.96 161.31 87.3C161.1 87.32 160.89 87.34 160.69 87.34C158.2 87.34 156.05 85.48 155.73 82.95Z" fill="black"/>
<path d="M156.04 87.8C156.03 85.04 158.26 82.8 161.02 82.79C163.78 82.79 166.03 85.01 166.04 87.77C166.04 90.53 163.81 92.78 161.05 92.79C158.29 92.79 156.05 90.56 156.05 87.8H156.04Z" fill="black"/>
<path d="M156.07 99.3899C156.07 96.6299 158.3 94.3799 161.06 94.3799C163.82 94.3699 166.07 96.5999 166.07 99.3599C166.08 102.12 163.85 104.37 161.09 104.38H161.07C158.32 104.38 156.08 102.15 156.07 99.3899Z" fill="black"/>
<path d="M155.9 103.24C154.94 101.32 155.33 99.0701 156.72 97.5901C157.94 95.6701 160.37 94.7801 162.61 95.5801C165.21 96.5001 166.56 99.3601 165.64 101.96C165.28 102.94 164.57 104.44 162.62 105.47C161.9 105.83 161.13 106 160.38 106C158.55 106 156.78 104.99 155.9 103.24Z" fill="black"/>
<path d="M158.86 106.08C157.96 105.96 157.3 105.76 156.67 105.51C154.12 104.47 152.89 101.55 153.93 98.9901C154.95 96.4901 157.77 95.2501 160.29 96.1801C162.91 96.6201 164.75 99.0501 164.42 101.72C164.12 104.25 161.96 106.11 159.47 106.11C159.27 106.11 159.06 106.11 158.86 106.08Z" fill="black"/>
<path d="M151.26 101.12C151.03 98.3698 153.08 95.9498 155.83 95.7198C158.58 95.4898 161 97.5298 161.23 100.28C161.46 103.04 159.42 105.45 156.67 105.68C156.52 105.7 156.38 105.7 156.24 105.7C153.67 105.7 151.48 103.73 151.26 101.12Z" fill="black"/>
<path d="M148.03 105.68C146.23 103.58 146.47 100.43 148.57 98.63C150.66 96.83 153.82 97.07 155.62 99.17C157.42 101.26 157.18 104.42 155.08 106.22C154.13 107.03 152.98 107.42 151.82 107.42C150.42 107.42 149.02 106.83 148.03 105.68Z" fill="black"/>
<path d="M145.95 115.52C143.29 114.77 141.75 112 142.51 109.34C143.27 106.69 146.04 105.15 148.69 105.91C151.35 106.67 152.89 109.43 152.13 112.09C151.5 114.29 149.5 115.72 147.32 115.72C146.87 115.72 146.41 115.66 145.95 115.52Z" fill="black"/>
<path d="M145.55 120.81C142.81 120.44 140.89 117.92 141.26 115.18C141.63 112.45 144.15 110.53 146.89 110.9C149.62 111.27 151.54 113.79 151.17 116.52C150.83 119.03 148.69 120.85 146.23 120.85C146 120.85 145.78 120.85 145.55 120.81Z" fill="black"/>
<path d="M145.27 125.87C142.51 125.72 140.4 123.35 140.56 120.59C140.72 117.84 143.08 115.73 145.83 115.89C148.59 116.04 150.7 118.41 150.54 121.16C150.39 123.83 148.19 125.88 145.55 125.88C145.46 125.88 145.36 125.88 145.27 125.87Z" fill="black"/>
<path d="M144.81 134.28C142.05 134.12 139.94 131.76 140.09 129.01C140.24 126.25 142.6 124.14 145.36 124.29C148.12 124.44 150.23 126.8 150.08 129.56C149.93 132.22 147.72 134.28 145.09 134.28H144.81Z" fill="black"/>
<path d="M144.95 152.06C142.19 152.06 139.96 149.79 139.98 147.03C140 144.27 142.25 142.05 145.01 142.06C147.77 142.08 150 144.33 149.98 147.09C149.96 149.84 147.73 152.06 144.98 152.06H144.95Z" fill="black"/>
<path d="M140.53 154.89C140.33 152.14 142.41 149.75 145.16 149.55C147.91 149.35 150.31 151.42 150.51 154.17C150.71 156.93 148.64 159.32 145.88 159.52C145.76 159.52 145.64 159.52 145.51 159.52C142.92 159.52 140.73 157.52 140.53 154.88V154.89Z" fill="black"/>
<path d="M141.23 159.82C140.71 157.11 142.49 154.49 145.2 153.98C147.91 153.46 150.53 155.24 151.05 157.95C151.56 160.67 149.79 163.28 147.07 163.8C146.75 163.86 146.44 163.89 146.13 163.89C143.78 163.89 141.68 162.22 141.23 159.82Z" fill="black"/>
<path d="M143.88 168.8C142.64 166.34 143.63 163.33 146.1 162.09C148.56 160.85 151.57 161.85 152.81 164.31C154.05 166.78 153.06 169.78 150.59 171.03C149.87 171.39 149.1 171.56 148.35 171.56C146.52 171.56 144.76 170.55 143.88 168.8Z" fill="black"/>
<path d="M147.86 174.28C145.77 172.48 145.54 169.32 147.34 167.23C149.14 165.13 152.3 164.9 154.39 166.7C156.48 168.5 156.72 171.66 154.92 173.75C153.93 174.9 152.53 175.49 151.12 175.49C149.97 175.49 148.81 175.09 147.86 174.28Z" fill="black"/>
<path d="M149.8 173.21C148.61 170.72 149.66 167.73 152.15 166.53C154.64 165.34 157.62 166.39 158.82 168.88C160.01 171.37 158.96 174.35 156.47 175.55C155.78 175.88 155.04 176.04 154.31 176.04C152.45 176.04 150.66 175 149.8 173.21Z" fill="black"/>
<path d="M156.27 171.22C153.65 170.34 152.24 167.51 153.12 164.89C153.99 162.27 156.83 160.86 159.45 161.74C162.07 162.61 163.48 165.45 162.6 168.06C161.9 170.16 159.95 171.48 157.86 171.48C157.34 171.48 156.8 171.39 156.27 171.22Z" fill="black"/>
<path d="M157.02 168.99C154.4 168.1 152.99 165.27 153.87 162.65C154.75 160.03 157.58 158.63 160.2 159.5C162.82 160.39 164.23 163.22 163.35 165.84C162.65 167.93 160.7 169.25 158.61 169.25C158.08 169.25 157.55 169.16 157.02 168.99Z" fill="black"/>
<path d="M158.17 164.97C155.6 163.96 154.34 161.06 155.36 158.49C156.37 155.92 159.27 154.66 161.84 155.67C164.41 156.68 165.67 159.59 164.66 162.15C163.88 164.12 162 165.32 160 165.32C159.4 165.32 158.78 165.21 158.17 164.97Z" fill="black"/>
<path d="M158.54 164.33C155.94 163.41 154.58 160.55 155.5 157.95C155.65 157.54 155.88 156.94 156.45 156.21C156.99 155.49 158.01 154.65 159.21 154.3C161.85 153.5 164.65 154.98 165.46 157.62C166.01 159.44 165.48 161.33 164.23 162.6C163.29 163.87 161.79 164.62 160.22 164.62C159.66 164.62 159.1 164.53 158.54 164.33Z" fill="black"/>
<path d="M156.28 160.99C155.51 158.61 156.63 155.97 158.96 154.9C161.47 153.76 164.44 154.86 165.59 157.37C165.9 158.16 166.13 158.6 166.18 159.98C166.18 162.75 163.95 164.99 161.18 164.99C158.77 164.99 156.75 163.27 156.28 160.99Z" fill="black"/>
<path d="M161.04 174.04C158.28 174.01 156.06 171.75 156.09 168.99C156.12 166.23 158.38 164.01 161.14 164.04C163.9 164.07 166.12 166.33 166.09 169.09C166.06 171.84 163.83 174.04 161.09 174.04H161.04Z" fill="black"/>
<path d="M157.37 170.45C157.08 167.71 159.07 165.25 161.82 164.96C164.56 164.67 167.02 166.66 167.31 169.41C167.6 172.15 165.61 174.61 162.86 174.9C162.68 174.92 162.51 174.93 162.33 174.93C159.81 174.93 157.64 173.02 157.37 170.45Z" fill="black"/>
<path d="M165.21 174.85C162.45 174.77 160.27 172.47 160.36 169.7C160.44 166.94 162.74 164.77 165.5 164.85C168.26 164.93 170.44 167.24 170.35 170C170.27 172.71 168.05 174.85 165.36 174.85H165.21Z" fill="black"/>
<path d="M166.86 174.91L166.02 174.88C163.26 174.78 161.1 172.46 161.2 169.7C161.31 166.94 163.62 164.79 166.39 164.89L167.23 164.92C169.99 165.02 172.15 167.34 172.04 170.1C171.94 172.8 169.73 174.92 167.05 174.92C166.99 174.92 166.93 174.92 166.86 174.92V174.91Z" fill="black"/>
<path d="M162.65 170.72C162.22 168.26 163.69 165.9 165.99 165.14C167.96 164.24 170.36 164.7 171.84 166.42C173.65 168.51 173.42 171.67 171.33 173.47C169.97 174.57 169.09 174.65 168.42 174.81C168.13 174.86 167.84 174.88 167.56 174.88C165.17 174.88 163.06 173.16 162.65 170.72Z" fill="black"/>
<path d="M166.5 173.87C164.12 172.92 162.88 170.35 163.52 167.94C163.88 165.53 165.96 163.68 168.47 163.68C171.23 163.68 173.47 165.92 173.47 168.68C173.46 169.68 173.25 170.42 173 171.08C172.22 173.04 170.34 174.22 168.35 174.22C167.74 174.22 167.11 174.11 166.5 173.87Z" fill="black"/>
<path d="M163.46 141.44C163.46 138.67 165.7 136.43 168.46 136.43C171.22 136.43 173.46 138.67 173.46 141.44C173.46 144.2 171.23 146.44 168.46 146.44C165.7 146.44 163.46 144.2 163.46 141.44ZM163.46 114.19C163.46 111.43 165.7 109.19 168.46 109.19C171.22 109.19 173.46 111.43 173.46 114.19C173.46 116.95 171.22 119.19 168.46 119.19C165.7 119.19 163.46 116.95 163.46 114.19Z" fill="black"/>
<path d="M160.02 147.99C157.28 147.68 155.3 145.21 155.61 142.47C155.91 139.72 158.39 137.75 161.13 138.06C163.88 138.36 165.85 140.84 165.54 143.58C165.26 146.14 163.1 148.02 160.58 148.02C160.4 148.02 160.21 148.02 160.02 147.99Z" fill="black"/>
<path d="M155.37 153.61C153.18 151.93 152.76 148.79 154.45 146.59C156.12 144.41 159.26 143.99 161.45 145.67C163.65 147.35 164.06 150.49 162.38 152.68C161.39 153.96 159.91 154.64 158.41 154.64C157.35 154.64 156.28 154.3 155.37 153.61Z" fill="black"/>
<path d="M152.32 151.93C151.76 149.65 152.85 147.36 154.83 146.3C156.8 144.79 159.63 144.94 161.42 146.75C163.37 148.72 163.35 151.88 161.39 153.83C160.84 154.33 160.07 155.11 158.38 155.57C157.98 155.67 157.57 155.72 157.17 155.72C154.93 155.72 152.89 154.2 152.32 151.93Z" fill="black"/>
<path d="M155.14 155.6C154.08 155.35 152.98 154.88 151.95 153.9C149.96 151.98 149.9 148.82 151.81 146.83C153.49 145.08 156.13 144.82 158.1 146.08C160.35 146.97 161.67 149.39 161.12 151.82C160.6 154.15 158.53 155.72 156.25 155.72C155.88 155.72 155.51 155.68 155.14 155.6Z" fill="black"/>
<path d="M147.93 143.97C147.83 141.21 149.99 138.89 152.75 138.8C155.51 138.71 157.83 140.86 157.92 143.63C158.02 146.39 155.86 148.7 153.09 148.8H152.92C150.24 148.8 148.02 146.67 147.93 143.97Z" fill="black"/>
<path d="M147.46 140.91C147.14 138.16 149.1 135.68 151.84 135.36C154.58 135.04 157.07 137 157.39 139.75C157.71 142.49 155.75 144.97 153 145.29C152.81 145.31 152.61 145.33 152.41 145.33C149.91 145.33 147.75 143.45 147.46 140.91Z" fill="black"/>
<path d="M152.13 139.27C149.37 139.17 147.22 136.85 147.32 134.09C147.42 131.33 149.75 129.18 152.51 129.28C155.27 129.39 157.42 131.71 157.31 134.47C157.21 137.16 154.99 139.28 152.32 139.28C152.26 139.28 152.19 139.28 152.13 139.28V139.27Z" fill="black"/>
<path d="M151.74 134.69C149.01 134.26 147.15 131.7 147.58 128.97C148.01 126.24 150.58 124.38 153.3 124.81C156.03 125.25 157.89 127.81 157.46 130.54C157.06 133 154.94 134.75 152.53 134.75C152.26 134.75 152 134.73 151.74 134.69Z" fill="black"/>
<path d="M152.15 132.03C149.42 131.6 147.57 129.03 148.01 126.31C148.45 123.58 151.01 121.72 153.74 122.16C156.46 122.6 158.32 125.16 157.88 127.89C157.48 130.35 155.36 132.1 152.95 132.1C152.69 132.1 152.42 132.08 152.15 132.03Z" fill="black"/>
<path d="M151.61 128.8C149.05 127.77 147.81 124.86 148.84 122.3C149.87 119.74 152.78 118.49 155.34 119.53C157.9 120.55 159.15 123.47 158.12 126.03C157.33 127.98 155.46 129.17 153.48 129.17C152.85 129.17 152.22 129.05 151.61 128.8Z" fill="black"/>
<path d="M152.51 126.55C149.95 125.51 148.72 122.59 149.76 120.03C150.79 117.47 153.71 116.24 156.27 117.28C158.83 118.32 160.06 121.24 159.02 123.79C158.23 125.74 156.36 126.92 154.39 126.92C153.76 126.92 153.12 126.8 152.51 126.55Z" fill="black"/>
<path d="M157.24 123.25C154.9 121.79 154.17 118.71 155.63 116.36C157.08 114.02 160.16 113.29 162.51 114.75C164.86 116.2 165.58 119.28 164.13 121.63C163.18 123.16 161.55 124 159.87 124C158.97 124 158.06 123.76 157.24 123.25Z" fill="black"/>
<path d="M156.11 121.68C156.11 118.91 158.35 116.68 161.11 116.68C163.87 116.68 166.11 118.91 166.11 121.68C166.11 124.44 163.87 126.68 161.11 126.68C158.35 126.68 156.11 124.44 156.11 121.68Z" fill="black"/>
<path d="M161.03 142.6C158.27 142.6 156.04 140.34 156.05 137.58C156.06 134.82 158.3 132.59 161.06 132.6C163.83 132.6 166.06 134.86 166.05 137.62C166.05 140.37 163.8 142.6 161.05 142.6H161.03Z" fill="black"/>
<path d="M160.59 148.03C160.45 148.03 160.3 148.03 160.16 148.01C157.41 147.78 155.37 145.36 155.6 142.6L156.06 137.18C156.29 134.43 158.72 132.39 161.47 132.62C164.22 132.85 166.26 135.27 166.03 138.03L165.57 143.45C165.35 146.06 163.16 148.03 160.59 148.03Z" fill="black"/>
</g>
</g>
<defs>
<clipPath id="clip0_2553_9587">
<rect width="190.43" height="199.56" fill="white"/>
</clipPath>
</defs>
</svg>
