<svg width="403" height="430" viewBox="0 0 403 430" fill="none" xmlns="http://www.w3.org/2000/svg">
<g clip-path="url(#clip0_2559_681)">
<mask id="mask0_2559_681" style="mask-type:luminance" maskUnits="userSpaceOnUse" x="0" y="0" width="403" height="430">
<path d="M402.94 0H0V429.2H402.94V0Z" fill="white"/>
</mask>
<g mask="url(#mask0_2559_681)">
<path d="M170.34 143.39L170.37 145.01L170.32 188.64L170.04 193.84C169.58 202.25 166.89 218.71 159.3 223.78C158.21 224.51 156.84 224.81 155.76 225.38H153.57C146.52 223.8 143.53 217.36 141.67 210.85C141.07 208.74 140.42 206.72 140.02 204.51C139.5 201.67 138.77 198.95 138.76 195.97L138.68 156.67L137.95 156.11V117.66L138.69 117.08V45.4704C142.88 45.0904 142.84 46.2804 146.8 45.3004C147.88 45.0404 148.37 46.4604 148.17 47.3804C147.97 48.3004 148 49.1504 148.04 50.0204L148.14 52.0404C148.23 54.0404 148.24 56.0404 148.09 58.0004C147.92 60.2304 147.79 62.3304 148.19 64.6304V168.26C148.59 170.19 148.43 171.78 148.22 173.67C148.09 174.85 148.34 176.15 148.36 177.32C148.43 180.41 148.6 183.31 149.14 186.36C149.8 190.07 149.47 191.35 152.31 194.69C153.47 196.03 156.06 195.62 156.91 194.16C157.47 193.21 158.17 192.26 158.48 191.3C159.16 189.17 159.55 187.06 159.84 184.84C160.01 183.53 159.84 182.07 159.95 180.73L160.26 176.83C160.38 175.37 160.2 174.12 160.2 172.62L160.12 114.22C160.12 113.37 160 112.74 160.08 111.95C160.41 108.77 159.85 109.6 160.06 106.78C160.38 102.56 159.8 101.37 160.06 98.2904C160.49 93.5404 159.57 92.6504 160.05 87.7604C160.51 83.0504 159.55 81.5904 160.04 76.7604C160.23 74.8804 160.16 73.0304 160.03 71.1204C159.84 68.2104 159.84 65.2704 160.03 62.3504C160.32 57.8804 159.86 58.0304 160.07 54.6404C160.21 52.2404 160.2 49.8404 160.05 47.4704C160.02 46.8904 159.92 46.2004 160.15 45.7504C160.59 44.9404 162.2 45.8504 165.3 45.5104L168.46 45.1504C168.83 45.1104 169.54 45.1604 169.77 45.3604C169.95 45.5204 170.17 46.0804 170.16 46.3804L170.09 53.8804L170.14 55.7404L170.16 118.02C170.55 119.87 170.39 121.38 170.18 123.18C170.04 124.37 170.3 125.66 170.34 126.83C170.48 130.59 170.32 132.88 170.32 136.41L170.34 143.36V143.39Z" fill="#90BEFB"/>
</g>
<path d="M55.48 122.97H44.5V224.14H55.48V122.97Z" fill="#90BEFB"/>
<mask id="mask1_2559_681" style="mask-type:luminance" maskUnits="userSpaceOnUse" x="0" y="0" width="403" height="430">
<path d="M402.94 0H0V429.2H402.94V0Z" fill="white"/>
</mask>
<g mask="url(#mask1_2559_681)">
<path d="M58.4002 89.0505C58.2502 90.0705 58.1902 90.9905 58.0902 92.0105L57.8702 94.7005C57.8102 95.4905 57.3202 96.6005 57.3602 97.3305C57.4102 98.6205 57.4702 99.7605 57.2302 101.03L56.6202 104.29C56.2502 106.21 55.9702 108.03 55.4202 109.91C54.4902 113.11 54.2402 114.77 51.6802 117.45C50.8802 118.28 49.8502 118.74 48.6702 117.88C47.1502 116.75 46.1302 114.98 45.5502 113.18L44.3002 109.33C43.3702 106.5 42.3202 100.29 42.1402 97.1305L41.9002 92.7505L41.7002 88.7205L41.4902 84.2605C41.4702 83.6405 41.4702 83.0805 41.5102 82.4405C41.7402 79.2505 41.4102 78.7005 41.5102 76.1505L41.7002 71.3905L41.9202 67.3905L42.4202 61.8105C42.6402 59.2705 43.3702 56.8505 43.8802 54.3605C44.1702 52.9105 44.6002 51.5805 45.0802 50.1905C45.5902 48.6505 46.0302 47.3105 47.0702 46.0305C47.7302 45.2305 48.7302 44.2405 49.8802 44.2805C52.1202 44.3705 53.6202 47.6005 54.1902 49.3805C54.6302 50.7105 55.2402 52.0205 55.5802 53.3705C56.3602 56.4705 57.7102 63.3305 57.8602 66.4005L58.1102 71.2705C58.1702 72.6405 58.1602 73.9205 58.3902 75.2705V89.0505H58.4002Z" fill="#90BEFB"/>
<path d="M21.9602 200.861H32.2002V232.261C32.0302 233.321 31.9502 234.201 31.8802 235.241L31.6602 238.661C31.4502 241.891 31.0402 245.091 30.2202 248.191L28.2702 255.531C27.9702 256.671 27.4002 258.111 26.8302 259.151L25.0302 262.481C23.1302 266.001 18.9002 269.421 14.6402 268.591C12.6902 268.201 10.9202 267.081 9.48023 265.691C8.42023 264.661 7.69023 263.291 6.76023 262.091C3.68023 258.091 1.01023 244.761 0.660234 239.381L0.440234 235.941C0.380234 234.931 0.230234 233.871 -0.00976562 233.031V202.321C-0.00976562 202.321 0.230234 201.901 0.230234 201.791V192.831C0.230234 192.721 0.0302344 192.301 -0.00976562 192.311V185.001C0.000234375 185.071 0.230234 184.601 0.230234 184.471V177.741C0.230234 177.611 0.000234375 177.131 -0.00976562 177.201V124.541C0.230234 123.611 0.380234 122.601 0.440234 121.641L0.660234 118.191C1.02023 112.831 3.68023 99.4806 6.76023 95.4906C7.69023 94.2906 8.43023 92.9206 9.47023 91.8906C10.8602 90.5406 12.5502 89.4806 14.4402 89.0306C18.6202 88.0106 23.0702 91.5006 25.0202 95.1006L26.8202 98.4306C27.3902 99.4806 27.9602 100.911 28.2602 102.051L30.2102 109.391C31.0302 112.491 31.4402 115.701 31.6502 118.921L31.8702 122.341C31.9302 123.381 32.0102 124.261 32.1802 125.321V156.721H21.9502L21.9102 137.781C21.9002 135.851 22.0402 133.961 21.8202 132.031L21.3502 128.051C20.9802 124.941 20.1802 121.461 17.8002 119.181C16.2702 117.731 13.7302 119.201 13.0302 120.681C12.6202 121.521 12.0102 122.141 11.8502 122.971C11.0102 127.261 10.3002 129.421 10.2902 134.051V151.781C10.2802 152.311 10.3602 152.851 10.3102 153.351C10.2402 154.061 10.2002 154.811 10.3002 155.481C10.5002 156.841 10.3702 158.081 10.3602 159.431C10.3602 160.581 10.4602 161.671 10.3102 162.861C9.88023 166.181 10.7302 164.981 10.3102 168.721C10.1802 169.861 10.1902 171.151 10.3102 172.311C10.4602 173.741 10.4202 175.091 10.4102 176.501L10.3702 180.191C10.3502 181.971 10.6302 183.781 10.3302 185.601C10.2002 186.371 10.3802 187.161 10.4102 187.951C10.5002 190.161 10.4602 192.281 10.4302 194.501C10.4102 196.671 10.5702 198.831 10.3602 200.991C10.2502 202.091 10.2002 203.131 10.3102 204.231C10.3602 204.801 10.2702 205.391 10.2702 205.991L10.2902 223.531C10.2902 228.171 11.0002 230.321 11.8502 234.611C12.0102 235.441 12.6202 236.051 13.0302 236.901C13.7302 238.381 16.2702 239.861 17.8002 238.401C20.1802 236.121 20.9802 232.641 21.3502 229.541L21.8202 225.551C22.0402 223.631 21.9002 221.731 21.9102 219.801L21.9502 200.861H21.9602Z" fill="#90BEFB"/>
<path d="M402.73 208.82V220.44C402.72 220.94 403.11 222.19 402.17 222.19L382.2 222.23C381.59 222.23 380.66 222.36 380.33 221.94C379.62 221.03 380.2 219.96 380.15 219.04L379.92 214.88L379.68 210.75L379.51 207.34L379.35 204.38L379.19 200.05L378.98 197.82L378.73 194.4L378.55 190.76L378.38 187.12L378.14 182.96L378 177.1L377.78 173.68L377.52 168.8L377.28 164.43L377.05 161.27C376.96 160.12 376.93 159.02 376.87 157.85L376.7 154.44L376.56 148.37L376.4 145.91L376.25 142.99C376.1 140.16 375.92 137.51 375.76 134.69L375.46 129.84L375.26 127.11L375.07 121.87L374.8 116.55L374.58 111.14L374.34 106.27L374.09 101.19L373.86 96.0202L373.59 90.6902L373.36 83.3902L373.18 76.0202C373.15 75.1302 372.07 74.2802 371.4 74.2702C370.45 74.2402 369.55 75.0802 369.57 76.1802L369.71 82.6602L369.88 111.48C369.88 112.48 370.2 113.4 369.97 114.36C369.6 115.99 370.02 117.68 369.93 119.24C369.6 124.55 370.41 128.56 369.94 134.83C369.8 136.66 369.98 138.31 369.98 140.15L370.01 171.21C370.01 172.61 369.71 173.78 369.98 175.21C370.15 176.11 370.11 177.36 369.98 178.28C369.81 179.45 370 180.38 370 181.54L370.14 209.97C370.15 211.47 370.33 212.73 370.17 214.21C369.99 215.86 370.04 217.58 370.12 219.28C370.15 219.96 370.46 221.03 370.22 221.6C369.78 222.69 368.64 222.34 367.82 222.3C365.7 222.18 363.68 222.19 361.57 222.28C361.11 222.3 360.49 222.33 360.21 222.16C359.92 221.99 359.74 221.13 359.82 220.77C360.15 219.35 360 218 359.9 216.58C359.55 211.15 360.14 208.32 359.98 202.96L359.89 199.77C359.77 195.78 359.93 191.87 359.9 187.88L359.87 184.62L359.74 129.37L359.71 123.7C359.67 117.43 359.9 111.25 359.69 105.05C359.63 103.13 359.71 101.41 359.71 99.4702L359.75 68.2302C359.75 66.6402 359.34 65.2002 359.72 63.6202C359.85 63.0602 359.69 62.3502 359.65 61.7202C359.35 56.8302 359.92 55.1602 359.73 50.0802C359.69 49.0402 359.85 47.9902 359.61 46.8702C359.54 46.5202 359.8 45.8002 360.05 45.5602C360.42 45.2102 361.03 45.4002 361.59 45.4102C366.05 45.4802 370.45 45.5302 374.92 45.3702C376.29 45.3202 377.45 45.2602 378.9 45.4102C379.66 45.4902 381 45.0102 381.64 45.3002C382.87 45.8502 382.42 47.1202 382.44 48.0602L382.58 54.0202L382.82 56.9202L383.03 60.3502L383.47 65.7002C383.76 69.2702 383.35 70.1002 383.64 72.3102C383.74 73.0902 383.87 73.9502 383.91 74.7002L384.09 78.7302L384.3 83.2502C384.36 84.3302 384.29 85.3402 384.32 86.4402L384.43 90.0802C384.57 94.5002 385 95.0902 385.1 98.1402L385.28 103.62L385.49 107.65L385.72 112.04L385.91 115.68L386.06 118.38L386.22 124.18L386.41 126.92L386.44 129.31C386.46 131.75 386.87 133.98 386.96 136.42L387.11 140.54L387.27 143.95L387.4 149.81L387.63 151.77L387.9 156.41L388.14 161.04L388.37 165.19L388.55 168.83L388.7 171.99L388.92 176.02L389.13 182.85L389.34 187.13C389.41 188.5 389.52 189.88 389.5 191.25C389.48 192.42 390.09 193.14 391.11 193.25C392.17 193.36 392.92 192.71 392.91 191.46L392.83 181.04C392.82 179.76 392.76 178.6 392.83 177.33C393.05 173.26 392.82 169.37 392.8 165.26L392.59 120.42C392.59 118.42 392.45 116.69 392.62 114.69L392.78 112.78C392.82 112.3 392.75 111.75 392.74 111.21L392.58 90.4602C392.57 88.5302 392.28 86.6102 392.52 84.7202C392.74 82.9402 392.56 81.3502 392.52 79.5702C392.39 73.3902 392.37 67.3102 392.55 61.1902C392.6 59.3402 392.81 57.5502 392.61 55.7202C392.31 52.9902 392.93 51.8102 392.59 47.7602C392.54 47.1602 392.27 46.3502 392.64 45.8302C392.93 45.4202 393.87 45.2502 394.47 45.3502C395.77 45.5702 396.97 45.3302 398.26 45.3002C398.89 45.2902 399.73 45.5102 400.33 45.3302C401.19 45.0802 402.13 45.2702 402.68 46.0602L402.72 99.9702L402.75 102.34V121.27C402.75 122.97 403.08 124.44 402.73 126.18C402.62 126.75 402.66 127.73 402.74 128.34C402.94 129.89 402.89 131.29 402.84 132.86C402.79 134.66 403.1 136.57 402.79 138.44C402.64 139.32 402.8 140.15 402.86 141.05C403.05 143.94 402.81 145.13 402.86 147.87C402.93 151.79 403.02 155.64 402.81 159.55C402.71 161.41 402.85 163.05 402.85 164.95L402.87 201.87C402.87 203.29 402.43 204.64 402.8 206.02C403.03 206.95 402.73 207.86 402.73 208.83" fill="#90BEFB"/>
<path d="M225.24 265.23L221.42 265.58C220.41 265.65 218.87 266.52 218.14 263.63C217.28 260.28 217.74 247.11 217.9 242.37L218.1 236.38L218.29 224.22L218.53 208.41L218.75 195.91L219 185.9L219.22 167.6L219.43 145.7L219.69 135.09L219.87 121.23L220.02 114.05L220.2 105.25L220.43 96.3501L220.57 79.8501L220.77 73.4101C220.84 71.0901 221.4 69.6601 222.27 69.6601C222.88 69.6401 223.64 71.5601 223.67 73.6301L223.88 88.3001L224.1 101.94L224.34 109.04L224.54 123.27L224.81 136.19L224.96 154.83C224.96 156.41 225.14 158.41 225.22 160.11C225.37 162.75 225.23 165.31 225.27 167.9L225.43 178.5L225.66 189.15L225.85 198.62C225.92 201.61 226.31 205.06 226.21 207.92C226.08 211.74 226.1 214.97 226.21 218.67L226.42 227.82L226.64 242.54L226.84 254.08C226.87 255.54 227.46 265.01 225.2 265.2M239.79 417.86L239.55 407.21L239.31 395.96L239.09 387.16L238.91 379.47L238.76 372.32L238.57 357.25L238.37 340.6L238.29 334.73C238.26 332.19 238.11 329.72 238.09 327.16L237.92 313.33L237.73 306.72L237.38 298.31L237.21 278.58L236.91 271.13L236.74 251.48L236.47 239.15L236.29 227.04L236.15 220.48L235.97 212.79L235.74 203.34L235.56 192.91L235.29 180.01L235.13 159.05L234.97 153.08L234.81 146.59L234.57 137.71L234.42 123.7L233.9 109.15L233.7 88.3301L233.52 72.6701L233.29 64.4101L233.13 56.7401L232.95 49.6401L232.74 43.0601L232.56 31.0201L232.31 23.9201L232.14 3.75011C232.14 2.59011 231.79 0.620113 231.44 0.320113C231.12 0.0501128 230.49 0.300113 230.04 0.390113C226.09 1.23011 225.75 -0.689887 223.01 0.290113C221.11 0.980113 219.21 0.290113 217.3 0.190113C216.18 0.140113 215.04 0.980113 213.93 0.260113C213.57 0.0101128 212.95 -0.0898872 212.75 0.410113C211.87 2.68011 212.21 11.3901 212.23 14.9401C212.23 16.8601 212.06 19.0301 212.05 20.9601L211.84 35.1701L211.64 46.1201L211.49 53.7901L211.31 61.4601L211.09 70.3401L210.91 81.3401L210.65 93.6201L210.44 105.73L210.41 115.87L210 131.83L209.84 138.32L209.8 144.81C209.78 148.98 209.8 152.97 209.66 157.21L209.44 163.72L209.2 173.76L208.99 182.66L208.85 207.52L208.61 218.74L208.39 229.39L208.15 241.23L207.93 250.03L207.75 257.73L207.61 264.29L207.45 278.37L207.37 286.06L207.31 293.78L207.13 303.79L206.93 314.17L206.73 330.72L206.48 337.21L206.24 349.61L206.02 369.09L205.8 395.16L205.61 411.95L205.47 416.76C205.38 419.77 205.25 423.25 204.99 426.28C204.9 427.32 205.7 429.12 206.15 429.12L214.04 429.05C214.94 429.05 215.11 425.45 214.98 423.87C214.77 421.21 214.81 419.16 214.9 416.67L215.14 410.16L215.32 396.84L215.55 379.77L215.8 372.08L215.96 354.13C215.98 352.38 216.14 350.53 216.13 348.73C216.13 344.73 216.11 340.69 216.61 336.82C216.76 335.64 217.93 334.53 218.46 334.55L226.4 334.6C227.47 334.6 228.4 337.36 228.44 339.98L228.61 350.83L228.85 357.56L229.09 368.51L229.3 382.2L229.55 394.53L229.76 409.94L229.95 419.71L230.07 426.1C230.07 426.74 230.13 428.22 230.36 428.32L231.27 428.74C231.87 429.01 232.51 428.79 233.17 428.72C234.61 428.5 236.16 428.55 237.51 428.67C238.13 428.74 239.62 430.37 239.78 427.68C239.97 424.79 239.93 421.05 239.85 417.89" fill="#90BEFB"/>
<path d="M121.36 234.5H131.6V265.9C131.43 266.96 131.35 267.84 131.28 268.88L131.06 272.3C130.85 275.52 130.44 278.73 129.62 281.83L127.67 289.19C127.38 290.32 126.81 291.76 126.24 292.8L124.44 296.13C122.5 299.72 118.04 303.22 113.86 302.21C111.97 301.75 110.28 300.7 108.9 299.34C107.85 298.31 107.11 296.94 106.18 295.74C103.11 291.74 100.43 278.41 100.08 273.03L99.8603 269.58C99.7803 268.27 99.4003 266.77 99.4903 265.5C99.6003 263.99 99.5703 262.74 99.5103 261.28C99.3403 257.57 99.3503 253.85 99.5003 250.13C99.5603 248.85 99.5703 247.7 99.5003 246.42C99.3403 242.95 99.3503 239.52 99.5303 236.07C99.6903 232.86 99.6902 229.72 99.5902 226.48C99.5202 223.93 99.8303 224 99.5303 222.18C99.3003 220.75 99.5003 219.38 99.5803 217.94C99.9103 212.26 99.1003 209.05 99.5003 203.56C99.6303 201.74 99.5803 200 99.5603 198.2L99.5003 192.58C99.4503 187.85 99.3503 183.2 99.5003 178.48C99.5403 177.19 99.5603 176.05 99.5003 174.76C99.3503 171.04 99.3403 167.33 99.5103 163.61C99.5703 162.15 99.6003 160.89 99.4903 159.39C99.4003 158.12 99.7803 156.62 99.8603 155.31L100.08 151.86C100.44 146.5 103.11 133.15 106.18 129.16C107.11 127.96 107.85 126.59 108.9 125.57C110.28 124.21 111.97 123.16 113.86 122.7C118.04 121.69 122.5 125.18 124.44 128.77L126.25 132.11C128.44 136.15 130.75 147.64 131.07 152.6L131.29 156.02C131.35 157.06 131.43 157.94 131.59 159V190.4H121.36L121.32 171.46C121.31 169.53 121.45 167.63 121.23 165.71L120.76 161.73C120.39 158.62 119.59 155.14 117.21 152.86C115.68 151.41 113.15 152.88 112.44 154.36C112.03 155.2 111.42 155.82 111.26 156.65C110.42 160.94 109.71 163.1 109.7 167.73V185.46C109.69 185.99 109.77 186.53 109.72 187.03C109.65 187.74 109.61 188.49 109.71 189.16C109.91 190.52 109.78 191.76 109.78 193.11C109.77 194.26 109.87 195.36 109.72 196.54C109.29 199.86 110.15 198.65 109.72 202.4C109.59 203.54 109.6 204.84 109.72 205.99C109.88 207.42 109.83 208.77 109.81 210.18C109.79 211.38 109.94 212.62 109.68 213.87C109.88 215.65 110.01 217.47 109.74 219.28C109.63 220.06 109.79 220.84 109.82 221.64C109.91 223.84 109.87 225.97 109.84 228.18C109.82 230.35 109.98 232.51 109.77 234.67C109.54 237.11 109.69 236.95 109.69 239.48V257.21C109.71 261.84 110.41 264 111.26 268.29C111.42 269.12 112.03 269.73 112.44 270.58C113.15 272.05 115.68 273.54 117.21 272.08C119.59 269.81 120.39 266.33 120.76 263.22L121.23 259.23C121.45 257.31 121.31 255.41 121.32 253.48L121.36 234.54V234.5Z" fill="#90BEFB"/>
<path d="M92.9803 86.6598L92.7403 91.2898L92.5203 95.1998C92.4803 95.9298 92.4203 96.8998 92.3103 97.6098L91.1003 104.69C90.8103 106.4 90.2403 108.04 89.8403 109.71C89.2203 112.27 87.7103 116.41 85.0903 117.44C84.5103 117.66 83.3203 117.23 82.9003 116.85C81.4903 115.6 80.7003 114.17 80.1003 112.48C79.0103 109.35 77.7403 104.07 77.2303 100.78C77.1003 99.9598 77.0503 97.6298 75.3803 97.8098C74.1503 97.9398 74.6103 100.65 74.4303 102.73C74.2803 104.55 74.3003 106.25 74.3703 108.05L74.4203 109.45C74.4903 111.42 74.5303 116.54 74.3503 118.36C73.9803 122.06 74.8303 123.15 74.4303 127.32C74.0003 131.94 74.8203 130.23 74.4103 133.36C74.4103 133.4 74.5503 140.41 74.4203 142.69C74.3603 143.81 74.3603 144.77 74.4203 145.9C74.5703 148.57 74.4003 151.2 74.4403 153.87L74.4703 155.73L74.5703 203.37L74.5903 206.86L74.5403 221.45C74.5403 222.1 74.8103 222.78 74.4103 223.18C73.8403 223.73 73.2003 223.6 72.4503 223.53C70.8103 223.38 69.1203 223.39 67.4403 223.47C66.3103 223.52 65.1603 223.78 64.2803 222.88V129.44C63.6603 127.05 64.2803 124.81 64.1703 122.49C64.0903 120.5 64.0603 118.6 64.1503 116.6C64.2203 114.98 63.8303 113.27 64.1503 111.62C64.2603 111.02 64.0903 110.37 64.0903 109.75V93.2598V90.4498L64.0503 46.7598C65.5003 45.9598 66.9603 46.6898 68.4203 46.6198C70.3003 46.5298 72.2603 46.2198 74.1103 46.5798C74.9403 47.6898 74.3903 49.1098 74.3303 50.3298C74.2503 52.2898 74.2403 54.2198 74.3603 56.1498C74.5303 58.9698 73.7403 61.4098 75.0003 62.7898C75.6703 63.5198 76.9203 62.4598 77.0503 61.5998C77.7003 56.7498 78.0603 54.9498 79.4903 50.2098C80.1103 48.1698 80.8703 46.2698 82.2103 44.5498C83.3003 43.1498 85.4103 43.3198 86.5703 44.6198C87.3903 45.5598 87.7903 46.6198 88.4003 47.7098L88.9903 48.7698C90.3403 51.2298 92.6603 65.9398 92.7203 68.6798L92.9203 77.7698C92.9803 80.7198 93.1503 83.6698 92.9903 86.6598" fill="#90BEFB"/>
<path d="M285.63 53.4698C285.86 55.6998 285.66 60.4798 285.64 62.7398L285.53 75.4198C285.53 76.1198 284.47 76.2498 283.96 76.0798C282.96 75.7398 282.14 75.8498 281.17 75.8698L273.64 75.9698C272.52 75.9898 271.74 77.1598 271.71 78.2198C271.62 81.3498 271.57 84.4498 271.75 87.5898C271.83 89.0398 271.81 90.3498 271.74 91.8098C271.57 95.8498 271.6 99.8698 271.74 103.94C271.78 105.06 271.79 106.04 271.74 107.15C271.6 110.56 271.73 113.9 271.72 117.3V119.17L271.53 185.02L271.42 223.24C271.42 223.98 270.96 224.4 270.46 224.4H261.62C261.17 224.4 260.67 223.92 260.67 223.39L260.55 185.02L260.38 119.17V117.3C260.35 113.9 260.49 110.56 260.35 107.15C260.3 106.03 260.31 105.05 260.34 103.94C260.48 99.8698 260.5 95.8498 260.33 91.8098C260.27 90.3498 260.25 89.0398 260.33 87.5898C260.51 84.4498 260.45 81.3498 260.37 78.2198C260.34 77.1598 259.56 75.9898 258.43 75.9698L250.9 75.8698C249.94 75.8498 249.11 75.7498 248.12 76.0798C247.6 76.2498 246.55 76.1198 246.54 75.4098L246.43 62.7398C246.41 60.4898 246.22 55.6798 246.45 53.4698C246.76 50.4998 245.92 49.1998 246.41 48.0898C246.91 46.9598 247.99 47.6198 248.8 47.6198H283.28C284.04 47.6198 285 46.9998 285.59 47.9598C286.22 48.9798 285.32 50.4698 285.63 53.4698Z" fill="#90BEFB"/>
<path d="M201.77 222.13C201.3 223.41 200.12 222.7 199.37 222.7L178.21 222.67C177.66 222.67 177.36 221.7 177.47 221.25C177.82 219.86 177.61 218.67 177.59 217.3L177.53 214.62V193.96V190.46V157.63L177.52 154.61L177.41 100.46C177.41 98.81 177.05 97.27 177.28 95.66C177.85 91.56 176.83 91.72 177.32 87.9C177.5 86.44 177.4 85.14 177.32 83.68C177.16 80.44 177.28 77.24 177.28 73.98V72.23L177.31 57.65C177.32 56.45 177.39 55.38 177.32 54.19C177.19 51.8 177.23 49.57 177.22 47.11C177.22 46.76 177.61 46.09 177.88 45.89C178.24 45.64 178.99 45.87 179.47 45.87L186.54 45.92C186.99 45.93 187.49 46.38 187.49 46.92L187.6 85.29L187.78 151.15V153.02C187.8 156.42 187.67 159.76 187.81 163.17C187.86 164.29 187.85 165.27 187.81 166.39C187.68 170.45 187.65 174.47 187.82 178.52C187.89 179.97 187.91 181.28 187.82 182.73C187.64 185.87 187.69 188.97 187.78 192.1C187.81 193.17 188.59 194.34 189.71 194.35L197.24 194.46C198.21 194.47 199.03 194.58 200.03 194.24C200.54 194.07 201.6 194.2 201.6 194.91L201.71 207.59C201.73 209.86 201.93 214.63 201.71 216.86C201.4 219.81 202.2 221 201.78 222.14" fill="#90BEFB"/>
</g>
<path d="M304.36 122.97H293.37V224.14H304.36V122.97Z" fill="#90BEFB"/>
<mask id="mask2_2559_681" style="mask-type:luminance" maskUnits="userSpaceOnUse" x="0" y="0" width="403" height="430">
<path d="M402.94 0H0V429.2H402.94V0Z" fill="white"/>
</mask>
<g mask="url(#mask2_2559_681)">
<path d="M307.26 57.7097C307.12 58.7297 307.05 59.6497 306.96 60.6697L306.73 63.3597C306.67 64.1497 306.19 65.2597 306.22 65.9897C306.27 67.2797 306.33 68.4197 306.09 69.6897L305.48 72.9496C305.11 74.8696 304.83 76.6896 304.28 78.5696C303.36 81.7696 303.11 83.4296 300.54 86.1096C299.75 86.9397 298.71 87.3997 297.53 86.5396C296.01 85.4097 294.99 83.6396 294.41 81.8396L293.16 77.9896C292.25 75.1596 291.18 68.9497 291 65.7897L290.77 61.4097L290.57 57.3797L290.36 52.9197C290.33 52.2997 290.33 51.7397 290.37 51.0997C290.6 47.9097 290.28 47.3597 290.38 44.8097L290.57 40.0497L290.78 36.0497L291.28 30.4697C291.5 27.9297 292.23 25.5097 292.73 23.0197C293.03 21.5697 293.46 20.2397 293.93 18.8497C294.45 17.3097 294.88 15.9697 295.92 14.6897C296.58 13.8897 297.59 12.8997 298.73 12.9397C300.97 13.0297 302.47 16.2597 303.05 18.0397C303.48 19.3697 304.09 20.6797 304.43 22.0297C305.22 25.1297 306.56 31.9897 306.72 35.0597L306.96 39.9297C307.03 41.2997 307.01 42.5797 307.25 43.9297V57.7097H307.26Z" fill="#90BEFB"/>
<path d="M340.62 170.01C341.07 173.93 340.06 174.3 340.62 177.78C340.43 178.99 340.41 180.23 340.67 181.47C340.45 183.33 340.33 185.2 340.63 187.09C340.73 187.76 340.51 188.55 340.51 189.24V195.79C340.5 197.96 340.36 200.12 340.57 202.28C340.69 203.46 340.74 204.54 340.61 205.73C340.57 206.13 340.66 206.66 340.66 207.09L340.64 224.82C340.64 229.41 339.97 231.39 339.11 235.81C338.93 236.75 338.31 237.35 337.9 238.19C337.2 239.66 334.66 241.15 333.13 239.68C330.76 237.4 329.95 233.92 329.58 230.82L329.12 226.83C328.9 224.91 329.03 223.03 329.03 221.07L328.96 197.05V195.54C328.96 193.41 329.02 191.35 328.93 189.23C328.89 188.43 328.74 187.65 328.85 186.87C329.11 185.05 328.99 183.24 328.79 181.45C329.05 180.21 329.02 178.97 328.83 177.76C329.39 174.28 328.39 173.9 328.83 169.99C329.25 166.25 328.4 167.45 328.83 164.13C328.98 162.94 328.88 161.85 328.88 160.7C328.89 159.36 329.02 158.12 328.82 156.75C328.57 155.05 328.93 155.45 328.81 152.86C328.71 150.6 328.8 148.38 328.86 146.15L329.05 139.03C329.1 137.16 328.89 135.22 329.11 133.31L329.58 129.33C329.96 126.22 330.76 122.74 333.13 120.46C334.66 119 337.2 120.48 337.9 121.95C338.31 122.79 338.93 123.42 339.09 124.24C339.92 128.53 340.64 130.69 340.64 135.32L340.66 153.05C340.66 153.58 340.57 154.12 340.63 154.62C340.7 155.33 340.73 156.08 340.63 156.75C340.43 158.11 340.56 159.35 340.57 160.7C340.58 161.85 340.48 162.94 340.63 164.13C341.06 167.45 340.2 166.25 340.62 169.99M350.85 217.79C350.8 216.5 350.79 215.36 350.85 214.08C351.02 210.6 351.01 207.18 350.83 203.73C350.66 200.51 350.67 197.37 350.76 194.14C350.84 191.59 350.53 191.65 350.82 189.84C351.06 188.41 350.86 187.03 350.78 185.59C350.44 179.92 351.26 176.71 350.86 171.21C350.73 169.4 350.77 167.65 350.79 165.85L350.85 160.24C350.9 155.5 351 150.86 350.85 146.14C350.81 144.85 350.8 143.71 350.85 142.42C351.01 138.7 351.02 134.99 350.85 131.27C350.78 129.81 350.75 128.55 350.86 127.05C350.95 125.78 350.59 124.28 350.49 122.97L350.27 119.52C349.91 114.16 347.25 100.81 344.17 96.8101C343.24 95.6101 342.51 94.2401 341.46 93.2101C340.07 91.8601 338.39 90.8001 336.5 90.3501C332.32 89.3301 327.85 92.8401 325.91 96.4201L324.11 99.7501C323.55 100.8 322.98 102.23 322.68 103.37L320.74 110.72C319.92 113.82 319.51 117.03 319.3 120.25L319.07 123.68L318.83 126.63L318.66 146C318.61 150.79 318.57 155.44 318.62 160.24L318.68 165.85C318.7 167.66 318.75 169.4 318.62 171.21C318.22 176.7 319.03 179.93 318.7 185.59C318.62 187.03 318.41 188.41 318.65 189.84C318.79 190.67 318.79 191.52 318.69 192.38C318.63 192.88 318.74 193.41 318.74 193.97L318.8 233.57C318.8 234.56 319.02 235.58 319.09 236.54L319.31 239.97C319.51 243.2 319.93 246.4 320.75 249.5L322.69 256.84C322.99 257.98 323.57 259.42 324.12 260.46L325.92 263.8C327.86 267.37 332.32 270.88 336.51 269.86C338.39 269.41 340.09 268.37 341.52 266.94C342.59 265.87 343.3 264.56 344.18 263.4C347.26 259.39 349.93 246.07 350.28 240.7L350.5 237.25C350.59 235.94 350.96 234.44 350.87 233.17C350.76 231.67 350.79 230.41 350.86 228.95C351.03 225.24 351.02 221.52 350.86 217.8" fill="#90BEFB"/>
</g>
</g>
<defs>
<clipPath id="clip0_2559_681">
<rect width="402.94" height="429.2" fill="white"/>
</clipPath>
</defs>
</svg>
