<svg width="696" height="496" viewBox="0 0 696 496" fill="none" xmlns="http://www.w3.org/2000/svg">
<g clip-path="url(#clip0_2561_1553)">
<mask id="mask0_2561_1553" style="mask-type:luminance" maskUnits="userSpaceOnUse" x="0" y="0" width="696" height="496">
<path d="M695.85 0H0V495.83H695.85V0Z" fill="white"/>
</mask>
<g mask="url(#mask0_2561_1553)">
<path d="M340.49 417.01C340.93 418.2 340.41 419.16 339.44 419.77C337.38 421.07 334.72 419.53 334.72 418.5V222.32C334.72 221.49 335.29 221.04 335.89 220.88L337.8 220.34C338.34 220.5 339.27 220.89 339.85 221.17C340.66 221.56 340.88 222.57 340.49 223.44V417.01Z" fill="#90BEFB"/>
<path d="M348 403.57C345.37 405.42 342.99 403.71 342.79 402.67C342.56 401.43 342.64 400.1 342.72 398.77L342.82 397.15C342.89 395.95 342.95 394.91 342.67 393.62V217.65C342.67 216.76 342.97 216.14 342.79 215.32C342.55 214.19 342.7 212.93 342.84 211.76L342.62 207.49C342.55 206.13 343.02 205.44 344.25 204.92C345.07 204.57 345.74 204.4 346.66 204.78C347.1 204.96 348.17 205.19 348.36 205.6C348.91 206.7 348.72 207.85 348.48 209.08V400.7C348.81 401.73 348.93 402.93 348 403.59" fill="#90BEFB"/>
</g>
<path d="M331.91 179.97H327.82V380.17H331.91V179.97Z" fill="#90BEFB"/>
<mask id="mask1_2561_1553" style="mask-type:luminance" maskUnits="userSpaceOnUse" x="0" y="0" width="696" height="496">
<path d="M695.85 0H0V495.83H695.85V0Z" fill="white"/>
</mask>
<g mask="url(#mask1_2561_1553)">
<path d="M352.86 387.94C352.33 387.9 350.32 386.12 351.03 384.65V190.61C350.45 189.14 352 187.16 353.05 187.43C355.48 188.06 354.92 189.86 354.92 191.49V383.97C355.96 386.06 353.46 387.97 352.87 387.94" fill="#90BEFB"/>
</g>
<path d="M323.3 204.67H320.93V404.66H323.3V204.67Z" fill="#90BEFB"/>
<path d="M362.47 204.46H360.1V404.45H362.47V204.46Z" fill="#90BEFB"/>
<mask id="mask2_2561_1553" style="mask-type:luminance" maskUnits="userSpaceOnUse" x="0" y="0" width="696" height="496">
<path d="M695.85 0H0V495.83H695.85V0Z" fill="white"/>
</mask>
<g mask="url(#mask2_2561_1553)">
<path d="M2.37 129.48V297.29C2.37 297.99 1.8 298.89 1.28 299.05C0.74 299.22 0.38 298.34 0.25 297.99L0 297.36V128.98L0.65 127.45C1.87 127.38 2.37 128.3 2.37 129.48Z" fill="#90BEFB"/>
<path d="M27.7401 246.22V297.26C27.7401 298.21 26.3101 298.35 25.8101 298.63C24.8701 299.16 24.0901 299.11 23.1901 298.48C22.7401 298.16 22.2001 297.76 21.9401 297.43C21.5101 296.91 21.9401 296.26 21.9401 295.57V129.06C21.9401 128.46 22.3301 127.88 22.5901 127.37V100.47L24.3301 98.8096C25.1101 98.8296 25.8901 99.4096 26.2401 99.8796C26.8101 100.66 26.5001 101.54 26.5001 102.39L26.4801 126.98C26.8001 127.7 27.7501 128.38 27.7501 129.27V207.17L27.6301 212.98L27.5601 240.78C27.5601 242.1 27.9901 243.3 27.6301 244.6C27.5101 245.05 27.7301 245.54 27.7301 246.21" fill="#90BEFB"/>
<path d="M19.8 132.35V296.99C19.23 298.27 18.03 298.77 16.8 298.98L14.94 298.37C14.04 298.07 13.77 297.43 13.77 296.44V128.89L15.33 127.5C15.92 126.97 15.99 125.89 15.71 125.09V100.85C15.71 100.1 16.32 99.1703 16.95 99.0703C18.33 99.7803 17.9 101.36 17.89 102.57L17.85 125.97C17.85 126.84 18.18 127.53 18.87 127.98C20.65 129.16 19.34 131.25 19.79 132.36" fill="#90BEFB"/>
<path d="M74.6801 129.05V297.29C74.6801 297.75 72.4201 299.78 69.8501 298.32C69.1801 297.94 68.6201 297.65 68.6201 296.67L68.7801 241.6L68.7601 213.6L68.6201 128.86L70.5901 127.2V101.25C70.5901 100.42 70.8501 99.1104 71.7901 99.1804C73.1001 99.5804 72.9701 101.31 72.8401 102.4C72.6601 103.93 72.7801 105.39 72.7801 106.91L72.7301 125.97C72.7301 127.97 74.0401 127.66 74.6901 129.05" fill="#90BEFB"/>
<path d="M82.4201 120.05V288.47C82.2301 289.14 81.3501 289.47 80.8201 289.79C79.7801 290.42 79.1101 290.34 78.1501 289.75C77.6601 289.44 76.6201 289.14 76.6201 288.24V120.22C76.8601 119.4 77.8101 119.07 78.4601 118.78C79.2201 118.44 79.8101 118.45 80.5901 118.78C81.1901 119.02 82.1901 119.28 82.4201 120.06" fill="#90BEFB"/>
<path d="M35.3198 274.92C35.3198 276.05 35.3598 277.08 34.7698 278.08C34.2098 279.03 34.6298 279.78 34.6298 280.81V333.18C34.4798 334.05 33.3298 335.15 32.4098 335.11C31.5098 335.07 30.5598 333.86 30.5598 332.98V280.8C30.5598 279.63 31.0098 278.68 30.1898 277.66C29.3598 276.62 29.6398 275.47 29.6398 274.27L29.6198 252.24C29.6198 250.88 29.4898 249.78 30.4798 248.57C30.8198 248.16 30.5398 247.35 30.5398 246.71V166.66C30.8898 165.53 30.4398 164.47 29.8898 163.59C29.3098 162.66 29.6598 161.91 29.6598 160.94V138.45C29.6598 137.78 29.3198 137.07 29.7098 136.38C30.1798 135.55 32.1098 134.91 33.8198 135.41C35.5098 135.9 35.3498 136.9 35.3498 138.25L35.3098 161.18C35.3098 161.92 35.5298 162.95 35.1498 163.52C34.1598 165.02 34.6298 166.13 34.6298 167.69V246.24C34.6298 247.16 34.2198 247.77 34.7298 248.66C34.9298 248.99 35.2898 249.77 35.2898 250.23L35.3298 274.91L35.3198 274.92Z" fill="#90BEFB"/>
<path d="M65.86 217.28V272.23C65.65 273.05 64.56 273.94 63.79 273.9C63.07 273.86 61.83 272.8 61.83 272.09L61.79 265.2V263.86L61.77 228.25C62.01 227.33 62 226.62 61.86 225.64C61.64 224.25 61.93 222.91 61.96 221.53C61.96 220.94 61.65 219.99 61.81 219.48C62.81 216.05 59.96 215.96 60.91 213.34V191.02C60.05 188.05 62.18 188.79 62.01 185.19L61.86 181.96L61.79 179.75V108.5C61.79 108.08 61.91 107.6 61.87 107.27C61.71 105.94 61.68 104.71 61.98 103.38L62 75.33C62 74.91 63.13 73.64 63.64 73.54C63.93 73.5 64.51 73.78 64.78 73.96C65.9 74.7 66.37 75.74 65.86 77.07V187.03L66.71 189.3V213.31C67.34 214.8 65.86 216.17 65.86 217.26" fill="#90BEFB"/>
<path d="M9.15002 314.3C7.20002 313.68 6.45002 311.89 7.10002 310.05V146.13C6.42002 144.5 7.18002 142.58 8.84002 142.2C9.57002 142.04 10.97 143.04 10.97 143.97V310.65C11.59 312.16 10.57 313.57 9.15002 314.3Z" fill="#90BEFB"/>
<path d="M89.3199 295.33C89.3199 296.18 89.7499 297.16 89.1399 297.85C88.7399 298.32 88.0399 299.02 87.2199 298.98C86.6199 298.96 85.4399 298.09 85.4399 297.28V128.85C85.4399 127.91 86.7899 127 87.4999 127.17C88.9299 127.51 90.1099 129.22 89.2999 130.79V295.32L89.3199 295.33Z" fill="#90BEFB"/>
<path d="M57.8799 241.63C57.0399 242.37 56.8699 243.43 57.2399 244.51V296.69C57.2399 297.63 56.9799 298.73 56.1299 299.06C55.6499 299.24 54.8799 298.34 54.8799 297.72V242.48L53.1499 240.55V214.22C53.6099 213.55 54.1299 213.03 54.8699 212.44V128.71L53.1499 126.97V100.48C54.6099 98.4799 57.9199 98.8899 58.9599 100.61V126.95L57.2599 128.61L57.2299 131.22V210.17C56.5999 211.58 57.2999 212.7 58.3099 213.5C59.3599 214.33 58.8799 215.82 58.8099 216.98C58.6999 218.76 58.6899 220.51 58.8099 222.28C59.0299 225.26 58.5099 226.06 58.8099 229.58C58.8899 230.6 59.0199 231.51 58.8399 232.5C58.6299 233.61 58.8399 234.72 58.8999 235.84C59.0599 238.83 59.3499 240.31 57.8699 241.62" fill="#90BEFB"/>
<path d="M41.3102 242.88C41.3102 244.16 41.3502 245.06 41.5302 246.28V288.72C41.5302 289.38 41.2202 290.06 41.3802 290.64C41.6202 291.56 41.3602 292.38 41.4202 293.44L41.5602 296.29C41.6202 297.43 41.1802 298.45 40.3302 299.08C39.8402 298.54 39.1702 297.9 39.1702 297.11V244.76C40.4102 240.83 36.3202 241.78 37.4502 238.43V216.11C36.4702 212.68 40.4702 213.57 39.1702 209.76V131.46C40.4002 126.77 36.5302 128.64 37.4502 125.09V102.15C36.9002 100.82 37.7602 99.9098 38.9002 99.4498C39.9502 99.0298 40.7602 99.0298 41.8002 99.4498C42.9402 99.9098 43.8002 100.82 43.2602 102.15V125.1C43.9902 128.95 40.3702 126.14 41.5402 132.06V208.89C41.2402 210.14 41.0702 211.68 41.7302 212.68C42.8202 213.54 43.9002 214.58 43.2502 216.13V238.43C44.2502 240.86 41.3002 241.64 41.3102 242.9" fill="#90BEFB"/>
</g>
<path d="M96.4198 127.26H94.0498V298.86H96.4198V127.26Z" fill="#90BEFB"/>
<mask id="mask3_2561_1553" style="mask-type:luminance" maskUnits="userSpaceOnUse" x="0" y="0" width="696" height="496">
<path d="M695.85 0H0V495.83H695.85V0Z" fill="white"/>
</mask>
<g mask="url(#mask3_2561_1553)">
<path d="M51.1702 113.71L51.2302 126.08C51.2302 127.11 50.7002 127.61 49.9002 127.9L48.1602 128.56C47.2402 128.26 46.1902 127.82 45.4902 127.21C44.8402 126.62 45.3902 125.74 45.3902 125.05V102.38C45.3902 101.74 44.9802 101.13 45.3902 100.52C46.0202 99.6303 47.8602 98.9803 48.3702 99.0903C49.2902 99.2803 50.4602 99.7303 50.9902 100.34C51.5202 101.51 51.0602 102.86 51.0702 104.04V106.19C51.0702 107.44 51.3602 108.74 51.1102 109.96C50.8402 111.23 51.1602 112.44 51.1602 113.71" fill="#90BEFB"/>
<path d="M51.0001 238.17C51.3101 239.1 51.4601 240.25 50.7401 241.03C49.7901 242.06 47.5601 242.58 46.0401 241.28C45.1201 240.51 45.0501 239.27 45.4101 238.21V216.52C45.1001 215.52 45.0301 214.08 46.0201 213.46C46.5901 213.11 47.3001 212.85 48.0001 212.55C48.8501 212.83 50.0301 213.05 50.6401 213.61C51.5601 214.44 51.2801 215.89 51.0101 216.99V238.16L51.0001 238.17Z" fill="#90BEFB"/>
<path d="M137.14 222.18C136.93 222.61 136.25 222.97 135.73 223.29C134.59 223.99 133.68 223.84 132.58 223.34C129.89 222.09 131.38 220.58 131.12 218.24C130.95 216.72 131.22 215.54 131.22 214.02V46.9503C131.22 45.5703 130.82 44.2903 131.08 42.9303C131.39 41.3003 130.86 36.5103 131.1 34.3503C131.23 33.1603 131.17 32.0703 131.16 30.9103C131.16 29.9403 131.24 29.0103 131.11 28.0303C131 27.2403 130.99 26.3603 131.11 25.5603C131.23 24.7603 132.23 24.5603 132.79 24.2503C133.75 23.7403 134.37 23.6703 135.39 24.2003C135.9 24.4703 136.99 24.9703 137.01 25.7303C137.08 27.6803 137.1 29.5603 136.98 31.4903C136.8 34.3803 137.24 35.3703 136.98 38.9803C136.93 39.7103 136.94 40.3103 136.98 41.0303C137.11 43.2103 137.1 45.3903 136.98 47.5803C136.94 48.2203 137.04 48.7503 137.04 49.4603V138.75C137.04 139.92 136.81 140.75 136.96 141.87C137.32 144.5 136.78 145.72 136.96 148.73C137.09 150.78 137.08 152.85 136.96 154.88C136.74 158.3 137.34 156.46 136.87 160.31C136.67 161.91 136.99 163.37 136.99 165.13L137.07 220.24C137.07 220.84 137.42 221.64 137.14 222.17" fill="#90BEFB"/>
<path d="M129.06 222.33C128.54 223.22 126.75 224.19 124.84 223.41C123.65 222.93 123.09 222.2 123.22 220.94L123.48 218.3V27.37C123.48 26.59 122.98 25.97 123.48 25.21C124.07 24.31 125.78 23.68 127.31 24.11C129.05 24.59 129.09 25.38 129.09 26.86V220.46C129.09 221.2 129.42 221.71 129.05 222.33" fill="#90BEFB"/>
<path d="M176.01 222.16C175.78 222.58 175.16 222.91 174.54 223.2C173.58 223.64 172.87 223.58 171.84 223.16C171.27 222.92 170.19 222.73 170.19 221.76V167.92C172.18 164.01 171.29 164.96 171.29 162.89L171.27 141.65C171.27 140.94 171.68 139.97 171.4 139.37L170.18 136.82V53.7498C171.68 52.2898 171.33 50.7098 171.33 48.9198L171.29 25.7898C171.29 24.7898 172.49 23.6698 173.42 23.8298C174.08 23.9398 175.32 24.9698 175.32 25.7598V49.7498C175.32 50.5998 174.99 51.2998 175.41 52.1198C175.9 53.0998 176.3 54.1598 175.99 55.2898V135.34C176.32 136.38 176.13 137.4 175.65 138.25C174.92 139.52 175.3 140.57 175.3 141.88V162.9C175.3 164.17 174.89 165.31 175.67 166.5C176.3 167.46 176.01 168.35 176.01 169.43V220.14C176.01 221 176.41 221.48 176.01 222.17" fill="#90BEFB"/>
<path d="M181.3 117.67V138.83C180.09 143.81 184.31 141.85 183.23 145.39V196.69C183.23 197.26 183.36 197.86 183.12 198.25C182.91 198.59 182.12 198.85 181.69 199.06C179.17 200.26 177.21 198.23 177.21 197.94V145.16C176.95 144.16 177.26 143.31 178.02 142.71C180.28 140.91 178.33 139.19 179.09 136.28C178.87 134.18 178.95 132.12 178.95 130.01L178.99 117.83C178.99 116.68 179.38 115.09 178.46 114.27C178.08 113.94 177.2 113.39 177.2 112.81V31.25C176.72 29.99 177.78 29.15 178.56 28.46C179.61 27.54 178.95 26.24 178.95 25.06L178.92 1.73C178.92 0.98 179.44 0.01 180.2 0C180.72 0 181.28 0.94 181.28 1.54V25.92C180.11 29.66 184.38 28 183.23 31.89V111.31C184.3 114.8 180.12 113.01 181.29 117.67" fill="#90BEFB"/>
<path d="M143.93 135.56C143.64 136.85 144.08 137.72 144.72 138.69C145.37 139.68 144.83 140.97 144.83 142.07V155.37C144.83 155.9 144.9 156.38 144.83 156.89L144.79 162.68C145.3 164.26 145.06 165.77 143.94 167.07V222C143.86 222.72 142.74 223.78 142.08 223.81C140.74 223.86 139.68 222.31 139.81 221L140.03 218.6L139.88 217.32C140.1 215.96 140.2 214.58 139.85 213.19L139.88 196.9C139.88 196.2 140.16 195.49 139.98 194.73C139.73 193.66 139.94 192.69 140.01 191.69C140.12 190.08 140.11 188.42 140.01 186.8C139.96 185.99 139.84 185.27 139.95 184.48C140.2 182.74 140.07 180.99 139.86 179.26C140.52 176.63 139.53 176.41 139.93 174.11C140.14 172.91 139.96 171.83 139.93 170.63C139.93 169.18 140.32 167.76 139.6 166.34C138.94 165.07 138.77 163.67 139.21 162.22V141.84C138.19 138.73 140.9 137.93 139.86 134.25V107.28C140.38 105.35 139.9 103.5 139.93 101.62C139.96 99.76 140.33 98.01 139.87 96.13V56.92C140.92 53.19 138.35 51.93 139.22 50.14V27.47C138.95 26.67 138.76 25.61 139.42 24.99C139.97 24.47 141.2 23.77 141.98 23.85C142.8 23.94 143.94 24.43 144.53 24.88C145.41 25.68 145.09 27.07 144.83 28.12L144.86 47.82L145.09 49.98C145.22 51.26 144.82 52.26 143.97 53.31V135.54L143.93 135.56Z" fill="#90BEFB"/>
<path d="M120.26 84.95V281.13C120.26 281.9 119.14 282.8 118.48 282.71C116.57 282.44 115.82 280.62 116.38 279V85.41C115.97 84.13 116.86 83.17 118.04 82.57C118.47 82.36 119.29 82.68 119.63 83.02C120.14 83.52 120.26 84.05 120.26 84.95Z" fill="#90BEFB"/>
<path d="M152.54 163.44C152.83 164.41 152.75 165.55 152.09 166.06C150.21 167.52 150.95 169.21 150.91 171.84L150.84 176.32C150.78 180.61 150.72 184.8 150.92 189.04C151.03 191.46 151.1 193.8 150.96 196.19C150.92 196.84 150.84 197.43 150.94 198.06C151.14 199.31 150.9 200.56 150.89 201.82L150.87 204V213.47C150.87 214.81 151.16 216.08 150.92 217.42C150.41 220.31 151.73 220.96 150.54 223.31C150.4 223.6 149.62 223.95 149.4 223.73C148.43 222.74 148.23 221.4 148.66 220.08V168.35C148.66 166.08 145.99 166.41 146.94 163.11V141.43C146 137.62 148.66 138.62 148.66 136.41V54.41C148.66 52.38 145.92 52.3 146.95 50.17L146.93 27.04C146.93 26.32 146.57 25.72 147.05 25.07C147.34 24.68 148.03 24.41 148.6 24.15C149.56 23.73 150.15 23.76 151.07 24.18C152.24 24.71 153.06 25.65 152.54 27.06V50.22C153 51.22 152.46 52.07 151.74 52.66C150.53 53.67 150.87 55.19 150.92 56.55L151.02 59.28C151.04 59.6 150.84 60.28 150.84 60.57C150.8 62.62 150.75 64.58 150.89 66.59C151 68.08 150.94 69.41 150.89 70.9C150.75 74.86 150.79 78.75 150.86 82.7C150.86 83.56 151.1 84.27 150.86 85.17C150.75 85.59 150.97 86.32 150.98 86.81C151.03 89.11 151.08 91.33 150.91 93.57C150.6 97.71 151.28 99.45 150.93 102C150.66 103.9 150.93 105.76 150.93 107.64C150.91 109.66 150.62 111.67 151.04 113.66C150.68 115.12 150.85 116.5 150.97 117.98C151.2 120.83 150.76 123.64 150.91 124.77C151.14 126.44 151.05 128.13 150.84 129.78C151.31 132.72 150.71 133.08 150.84 136.66C150.9 138.35 153.32 137.66 152.54 141.22V163.44Z" fill="#90BEFB"/>
<path d="M168.46 165.55V191.51C168.46 192.56 166.52 192.93 166.52 194.16L166.55 246.22C166.55 247.76 167.05 249.35 165.35 250.1C164.63 249.79 164.37 248.76 164.37 247.83V194.58C164.37 192.16 161.99 192.95 162.66 189.77V165.35L164.37 163.29V80.0196L162.66 78.0696V53.3096C162.06 51.8496 163.15 50.9596 164.35 50.4096C165.12 50.0596 165.79 49.9996 166.57 50.4296C167.04 50.6996 168.43 50.8196 168.44 51.6196L168.47 77.9896C167.93 79.1396 166.52 78.9896 166.52 80.6396V162.88C166.52 164.26 168.46 164.47 168.46 165.55Z" fill="#90BEFB"/>
</g>
<path d="M111.64 23.9902H109.49V223.98H111.64V23.9902Z" fill="#90BEFB"/>
<path d="M190.2 52.3799H187.83V138.4H190.2V52.3799Z" fill="#90BEFB"/>
<mask id="mask4_2561_1553" style="mask-type:luminance" maskUnits="userSpaceOnUse" x="0" y="0" width="696" height="496">
<path d="M695.85 0H0V495.83H695.85V0Z" fill="white"/>
</mask>
<g mask="url(#mask4_2561_1553)">
<path d="M160.5 165.039C160.5 166.109 158.29 167.459 156.46 166.739C155.79 166.469 155.08 166.109 154.76 165.649C154.28 164.939 154.64 164.079 154.64 163.269V141.289C154.64 140.499 154.26 139.809 154.69 138.969C154.95 138.469 155.69 138.049 156.46 137.779C158.24 137.129 160.48 138.329 160.48 139.289V165.029L160.5 165.039Z" fill="#90BEFB"/>
<path d="M160.54 50.4098C160.54 51.6898 160.47 52.4298 158.97 52.9198C157.17 53.5098 155.39 52.9298 154.68 51.7898C154.22 51.0598 154.64 50.1898 154.64 49.4798V27.4998C154.64 26.5498 153.99 25.2898 155.23 24.7198C155.93 24.3998 157.02 23.9998 157.72 23.7998C158.81 24.2598 159.76 24.6198 160.49 25.3498L160.53 50.4198L160.54 50.4098Z" fill="#90BEFB"/>
<path d="M189.31 223.71C188.31 223.94 187.82 222.72 187.82 221.8V167.9C187.82 167.03 188.29 166.03 189.02 165.93C190.27 166.83 190.4 168.42 189.98 169.84V219.42C190.34 220.87 190.4 222.53 189.31 223.71Z" fill="#90BEFB"/>
<path d="M456.42 277.09L456.4 302.82C456.31 303.46 455.2 303.8 454.74 304.01C453.86 304.43 453.17 304.49 452.26 304.01C451.83 303.78 450.73 303.47 450.62 302.82L450.6 276.89C450.6 276.41 451.08 275.76 451.42 275.6L453.2 274.72H453.84L455.45 275.51C456.02 275.79 456.43 276.37 456.43 277.1" fill="#90BEFB"/>
<path d="M463.31 276.87L463.28 302.64C463.28 303.58 461.78 304.43 461.07 304.3C460.15 304.15 459.42 303.37 459.42 302.42V276.69C459.42 275.77 460.4 275.21 460.93 274.71H461.58L462.34 275.26C462.88 275.65 463.31 276.11 463.31 276.88" fill="#90BEFB"/>
<path d="M440.73 451.06L440.8 468.14L440.94 472.55C440.99 474.1 438.35 475.46 436.39 474.49C435.9 474.25 435.28 473.91 434.97 473.63C434.42 473.11 434.87 472.33 434.87 471.68L434.89 448.91C434.12 446.14 436.56 446.41 435.74 442.85V393.04C436.07 391.8 436.1 390.45 435.42 389.46C434.76 388.52 434.85 387.83 434.86 386.74L434.89 363.55C434.34 362.36 434.97 361.45 436 360.98C437.19 360.43 438.21 360.39 439.46 360.89C441.76 361.81 440.73 363.96 440.73 365.68V384.31C440.73 385.57 441.28 387.16 440.71 388.27C439.98 389.73 439.22 391.1 439.83 392.83V443.64C439.37 444.93 440.12 445.94 440.65 446.99C441.28 448.25 440.72 449.69 440.72 451.05" fill="#90BEFB"/>
<path d="M448.67 411.23V465.94C448.42 466.6 448.01 467.2 447.59 467.81V494.31C447.2 495.13 446.23 495.66 445.5 495.83C443.94 495.15 443.18 493.91 443.71 492.42V468.6C443.71 467.66 443.19 466.93 442.63 466.13V411.22L443.7 409.16V384.3C443.23 382.79 444.17 381.11 445.87 381.13C446.43 381.13 447.28 382.09 447.58 382.67V409.38C448 409.97 448.41 410.58 448.66 411.24" fill="#90BEFB"/>
<path d="M416.39 304.46V360.25L417.25 362.06V388.22C416.59 389.15 415.45 389.96 414.24 389.92C413.27 389.88 412.15 389.31 411.33 388.77C411.15 387.08 411.21 385.42 411.35 383.82C411.15 382.41 411.21 381.08 411.4 379.65C411.7 377.32 410.9 377.22 411.32 374.58C411.44 373.83 411.32 373.08 411.32 372.2C411.3 370.79 411.57 369.48 411.32 368.16C411.14 367.21 411.37 366.24 411.4 365.24C411.42 364.09 410.97 362.85 411.38 361.7C411.58 361.14 412.51 360.54 412.51 359.8V304.65C410.26 302.15 411.65 300.49 411.42 296.87C411.35 296.2 411.26 295.54 411.26 294.88L411.3 283.59C411.3 282.89 411.44 282.24 411.32 281.52C411.27 281.24 411.4 280.58 411.38 280.3L411.19 277.68C411.16 277.33 411.32 276.51 411.53 276.24C411.76 275.93 412.44 275.73 412.9 275.52C413.81 275.12 414.51 275.04 415.45 275.45C416.08 275.73 416.97 276.19 417.26 276.88V302.63L416.4 304.45L416.39 304.46Z" fill="#90BEFB"/>
<path d="M408.42 361.5V388.21C408.12 388.96 407.45 390.05 406.66 390.13C404.91 390.04 404.07 388.13 404.34 386.53C404.64 384.68 404.15 382.94 404.34 381.13L404.52 379.46C404.62 378.54 404.21 377.68 404.54 376.71V366.54C404.54 366.17 404.28 365.41 404.35 365.04C405.26 360.44 402.87 361.27 403.68 357.83V304.67C405.25 302.38 404.28 297.23 404.39 296.71C404.51 296.14 404.56 295.46 404.34 294.87V276.75C404.93 275.94 405.63 275.4 406.49 274.89C407.15 275.37 408.4 275.92 408.41 276.9L408.43 303.24C409.41 304.42 409.67 305.71 409.28 307.21V357.66C409.73 359.07 409.37 360.33 408.42 361.49" fill="#90BEFB"/>
<path d="M456.41 382.49V436.59C456.41 437.02 456.07 437.57 455.81 437.7C454.19 438.57 454.67 440.41 454.67 441.4L454.69 464.87C454.69 465.72 454.01 466.67 453.44 466.72C452.13 466.24 452.29 464.85 452.3 463.71L452.32 439.28C452.32 437.84 450.61 437.93 450.61 436.6V382.28C450.61 380.66 452.33 381.55 452.33 378.79V354.079C452.33 353.269 452.56 351.85 453.63 352.01C454.46 352.14 454.7 353.68 454.7 354.51V378.09C453.76 381.18 456.41 380.48 456.41 382.5" fill="#90BEFB"/>
<path d="M401.54 370.34C401.87 371.21 401.88 372.31 401.28 372.92L399.83 374.39V400.92C399.83 401.6 399.25 402.77 398.56 402.61C397.75 402.44 397.46 401.08 397.46 400.33C397.46 398.46 397.42 396.74 397.54 394.92C397.64 393.47 397.59 392.09 397.59 390.61V386.32C397.57 384.93 397.7 383.61 397.55 382.11C397.42 380.91 397.43 379.7 397.51 378.58L397.72 375.58C397.94 372.6 394.81 374.56 395.74 370.36V319.09C394.66 316.15 398.22 317.49 397.63 313.83C397.48 312.88 397.58 312 397.57 311.06C397.57 309.58 397.33 308.1 397.57 306.63C397.68 305.92 397.57 305.28 397.54 304.55C397.42 302.07 397.43 299.61 397.51 297.1C397.53 296.41 397.73 295.69 397.59 295.03C397.34 293.92 397.59 292.82 397.56 291.73C397.52 290.4 397.15 288.64 398.57 287.81C399.11 287.87 399.82 288.72 399.83 289.41V315.55C399.83 316.88 402.58 316.51 401.55 319.97V370.33L401.54 370.34Z" fill="#90BEFB"/>
<path d="M423.28 293.079V348.019C423.28 349.249 426.02 349.589 424.99 352.009V374.719C425.2 375.369 425.38 376.449 424.78 376.899C424.13 377.389 423.03 378.039 422.18 378.049C421.41 378.049 420.02 377.349 419.53 376.789C418.77 375.919 419.28 374.419 419.39 373.339C419.19 372.099 419.09 371.099 419.41 369.989V353.919C418.28 347.959 421.13 349.979 421.13 347.819V294.149C421.13 293.369 420.98 292.439 420.41 292.089C418.09 290.639 419.76 288.919 419.33 286.439C419.17 285.499 419.14 284.689 419.4 283.779L419.36 270.519C419.36 270.059 419.23 269.519 419.3 269.089C419.8 266.009 418.07 265.039 420.52 263.619C421.54 263.029 422.49 263.039 423.57 263.489C424.9 264.039 425.67 265.219 424.99 266.659V288.679C426.04 292.089 423.28 291.679 423.28 293.099" fill="#90BEFB"/>
<path d="M431.02 391.729V444.559C431.02 445.009 431.4 445.839 431.76 445.999C432.94 446.509 432.81 447.669 432.81 448.749V471.389C432.81 472.879 433.09 474.029 431.11 474.639C430.4 474.849 429.58 475.029 428.74 474.599C428.28 474.369 427.26 473.999 427.15 473.389V447.399C427.15 446.199 428.86 446.119 428.86 444.549V390.689C428.86 389.229 427.14 389.299 427.14 388.019V362.469C427.14 361.449 427.69 361.119 428.57 360.819C430.3 360.239 432.18 360.859 432.72 361.749C433.11 362.389 432.77 363.129 432.77 363.799L432.8 386.459C432.8 387.659 433.09 388.559 431.79 389.339C431.21 389.689 431.02 390.909 431.02 391.729Z" fill="#90BEFB"/>
<path d="M463.3 399.43V454.57C463.3 455.5 461.98 456.01 461.42 456.4C460.35 456.08 459.72 455.58 459.42 454.55V400.25C459.42 399.08 460.15 398.07 461.39 398.09C462.02 398.09 462.93 398.8 463.29 399.44" fill="#90BEFB"/>
<path d="M392.72 360.22C392.19 360.84 391.8 361.11 390.93 361.64C390.24 361.3 388.85 360.88 388.85 359.82L388.83 305.11C389.13 304.19 389.78 303.39 390.82 303.37C391.44 303.35 392.35 304.06 392.7 304.7V360.23L392.72 360.22Z" fill="#90BEFB"/>
<path d="M448.67 302.84C447.73 303.73 446.55 304.21 445.32 304.36L443.43 303.46C442.5 303.02 442.51 301.69 442.86 300.88V278.22C442.28 276.99 442.96 275.96 443.97 275.38C446.22 274.12 448.66 275.96 448.66 276.67V302.82L448.67 302.84Z" fill="#90BEFB"/>
<path d="M440.7 276.9V302.6C440.48 303.44 439.32 303.77 438.67 304.08C437.41 304.69 435.35 303.49 435.04 303.08C434.47 302.32 434.87 301.68 434.87 300.89V278.22C434.87 277.72 434.53 276.98 434.81 276.51C435.02 276.14 435.6 275.77 436.09 275.49C438.82 273.89 440.7 276.41 440.7 276.91" fill="#90BEFB"/>
<path d="M401.54 471.63C401.93 472.47 401.84 473.67 400.96 474.12C400.32 474.45 399.38 474.84 398.55 475.05C397.98 474.9 396.91 474.36 396.38 474.08C395.5 473.61 395.35 472.47 395.73 471.62V449.55C395.34 448.5 395.54 447.4 396.21 446.59L398.64 445.75C399.29 445.79 400.49 446.37 401.06 446.75C401.93 447.33 401.89 448.49 401.54 449.37V471.62V471.63Z" fill="#90BEFB"/>
<path d="M417.25 473.18C416.35 474.59 414.5 475.32 412.77 474.44C412.26 474.17 411.67 473.83 411.43 473.46C411.13 472.97 411.41 472.25 411.41 471.67V448.54C411.41 448.09 411.18 447.44 411.36 447.06C411.52 446.71 412.11 446.41 412.53 446.17C413.62 445.58 414.36 445.33 415.53 445.92C416.07 446.2 417.23 446.56 417.23 447.44V473.19L417.25 473.18Z" fill="#90BEFB"/>
<path d="M424.9 473.63C424.2 474.44 422.43 475.26 421.01 474.62C420.44 474.36 419.53 473.94 419.31 473.34C418.9 472.25 419.39 471.1 419.39 469.98V451.06C419.39 449.67 418.69 448.12 419.52 446.83C420 446.09 421.47 445.67 422.33 445.55C423 445.78 423.9 446.14 424.45 446.41C425.58 446.96 425.03 448.11 425.03 448.98V471.65C425.03 472.37 425.47 472.99 424.9 473.65" fill="#90BEFB"/>
<path d="M431.4 303.93C429.63 304.46 427.16 304.01 427.16 302.44V276.42C428.51 274.39 431.47 274.65 432.6 276.08C433.09 276.72 432.78 277.54 432.78 278.22L432.75 301.31C433.31 302.53 432.54 303.59 431.4 303.93Z" fill="#90BEFB"/>
<path d="M409.28 447.03V473.4C407.98 475.53 404.74 475.01 403.75 473.64C403.32 473.06 403.67 472.29 403.67 471.63V448.96C403.67 448.31 403.34 447.54 403.71 446.91C404.09 446.29 405.94 445.15 407.64 445.84C408.12 446.04 409.15 446.42 409.29 447.02" fill="#90BEFB"/>
</g>
<path d="M384.11 303.32H381.74V361.6H384.11V303.32Z" fill="#90BEFB"/>
<mask id="mask5_2561_1553" style="mask-type:luminance" maskUnits="userSpaceOnUse" x="0" y="0" width="696" height="496">
<path d="M695.85 0H0V495.83H695.85V0Z" fill="white"/>
</mask>
<g mask="url(#mask5_2561_1553)">
<path d="M470.41 390.68V443.92C470.41 444.91 470.33 446.03 469.53 446.61C468.76 447.18 468.26 446.27 468.04 445.54V390.46C468.04 389.73 468.5 389.17 468.96 388.71C469.74 389.03 470.41 389.67 470.41 390.68Z" fill="#90BEFB"/>
<path d="M391.11 475.01C390.38 475.28 388.87 474.27 388.87 473.39V447.42C388.87 446.58 390.22 445.71 390.9 445.77C391.64 445.83 392.38 446.58 392.72 447.2V471.7C393.2 473.01 392.59 474.46 391.11 475.01Z" fill="#90BEFB"/>
<path d="M384.11 447.19V473.38C384.11 474.09 383.68 474.66 383.08 475.18C382.51 474.94 381.75 474.28 381.75 473.57V447.23C381.75 446.76 382.41 445.76 382.84 445.71C383.41 445.65 384.11 446.58 384.11 447.19Z" fill="#90BEFB"/>
<path d="M470.4 276.72V302.29C470.4 303.24 469.72 304.07 469.05 304.33C468.63 304.15 468.04 303.44 468.04 302.88V277.1C468.04 276.29 468.15 275.02 469.16 274.93C469.71 274.89 470.4 276.04 470.4 276.72Z" fill="#90BEFB"/>
<path d="M681.86 243.27V269.18C681.86 270.27 681.22 270.59 680.37 270.95C679.33 271.4 678.61 271.44 677.58 270.89C676.95 270.56 676.03 270.11 676.04 269.2L676.08 265.32V263.79L676.04 243.87C676.04 243.29 676.61 242.69 677.03 242.48L678.63 241.66H679.49C680.33 242.07 681.12 242.46 681.86 243.26" fill="#90BEFB"/>
<path d="M688.94 257.56L688.75 259.66C688.64 260.84 689.25 261.99 688.66 263.1C688.4 263.6 687.39 264.28 686.82 264.42C685.33 264.19 684.5 262.57 685.08 261.17V238.63C684.51 237.08 685.08 235.56 686.36 234.74H687.22C689.37 236.45 689.09 236.74 688.76 239.65C688.99 240.79 688.98 241.81 688.76 242.96L688.89 244.17C688.67 245.16 688.84 246.04 688.84 247.01C688.82 248.45 688.57 249.87 688.93 251.31C688.6 253.41 689.12 255.45 688.93 257.56" fill="#90BEFB"/>
<path d="M673 419.149L673.15 423.799L673.21 442.989C673.21 444.119 671.9 444.99 670.94 445.14C670.27 444.75 669.62 444.089 669.16 443.459V417.04C668.95 416.45 668.49 415.779 668.08 415.179V360.769L669.15 358.64L669.18 332.079C669.18 331.339 670.43 330.389 671.08 330.399C672.56 330.419 673.41 331.959 673.31 333.329L673.09 336.359C672.97 337.839 673.01 339.36 673.11 340.85C673.18 341.8 673.11 342.69 673.13 343.67L673.17 346.459C673.19 347.999 673.21 349.44 673.13 350.98C672.99 353.3 673.04 355.509 673.06 357.869C673.06 359.229 674.9 360.169 674.13 362.429V413.899C674.78 416.029 672.92 416.02 673.02 419.14" fill="#90BEFB"/>
<path d="M666.37 428.64C666.37 429.63 665.87 429.9 665.04 430.26C663.81 430.81 663.04 431.04 661.82 430.34C661.37 430.08 660.34 429.85 660.34 429.05V402.92C660.78 402.23 661.41 401.53 661.41 400.65V346.37C661.41 345.61 660.69 344.89 660.34 344.29V317.92C661.47 315.99 665.23 315.99 666.36 317.92V344.11C665.96 344.78 665.6 345.42 665.28 346.14V401.08L666.36 403.32V428.64H666.37Z" fill="#90BEFB"/>
<path d="M634.94 347.53C634.94 348.33 634.15 349.16 633.88 349.83L633.91 364.74L633.94 366.59C633.97 368.97 633.72 371.41 633.98 373.94C634.18 375.73 633.96 377.47 632.08 378.16C629.37 376.91 629.95 375.72 629.95 374.66L629.99 349.79L629.12 347.98V292.66C629.49 292.01 629.98 291.29 629.98 290.6L629.95 266.35C629.95 265.35 629.67 264.45 630.68 263.75C631.01 263.53 631.68 262.81 632.07 262.92C634.97 263.72 633.89 267.58 633.89 267.86V284.93L633.92 288C633.92 289.69 633.59 291.26 634.94 292.71V347.54V347.53Z" fill="#90BEFB"/>
<path d="M642.68 341.43C643.21 342.79 642.56 343.95 641.3 344.48C640.22 344.93 639.51 345 638.55 344.55C637.97 344.28 637.28 344.01 636.99 343.63C636.51 342.98 636.87 342.37 636.87 341.66L636.89 318.47C636.16 315.64 638.84 316.03 637.96 312.82V261.72C638.44 257.55 636.86 260.2 636.86 256.27V233.16C636.86 232.5 636.63 231.98 636.97 231.33C637.2 230.9 637.97 230.66 638.54 230.42C639.63 229.97 640.34 230.02 641.37 230.53C642.45 231.06 643.33 232.06 642.69 233.38L642.72 256.28C642.72 256.94 642.84 257.5 642.57 258.11C642.32 258.67 641.84 259.33 641.84 260.01V314.72C641.84 315.32 642.42 316.11 642.65 316.57C642.98 317.24 642.72 317.78 642.72 318.48L642.69 341.42L642.68 341.43Z" fill="#90BEFB"/>
<path d="M627.2 315.849C627.2 318.399 624.95 317.019 625.22 320.279L625.44 323.019L625.47 344.899C625.47 345.679 624.8 346.959 624 346.799C623.26 346.649 623.1 345.409 623.1 344.699V318.699C622.63 317.619 621.17 317.589 621.17 316.279V261.559L623.1 260.109V233.979C623.1 233.279 623.32 232.019 624.24 232.049C624.9 232.079 625.52 233.499 625.5 234.139L625.31 237.849C625.28 238.719 625.59 239.719 625.42 240.589C625.3 241.139 625.42 241.649 625.42 242.199V254.619C625.42 256.439 625.02 258.169 625.42 260.009L627.19 261.799V315.849H627.2Z" fill="#90BEFB"/>
<path d="M680.14 417.899V442.919C680.14 443.909 679.97 445.119 678.87 445.079C678.3 445.069 677.77 443.889 677.77 443.209V417.079C677.08 416.429 676.6 415.939 676.05 415.199V360.729C676.05 359.599 678.58 359.119 677.76 356.769L677.78 332.139C677.78 331.479 678.26 330.469 678.88 330.389C679.45 330.319 680.14 331.249 680.14 331.869V357.859C680.14 359.679 681.86 359.149 681.86 360.709V413.679C682.76 416.549 680.14 415.819 680.14 417.889" fill="#90BEFB"/>
<path d="M650.64 323.23V349.2C650.59 349.76 649.6 350.14 649.2 350.32L647.79 350.96C646.99 350.71 646.04 350.31 645.33 349.83C644.59 349.33 644.44 348.42 644.84 347.65V324.51C643.71 321.91 647.76 322.31 646.56 318.82V267.56C647.52 263.95 643.89 265.34 644.84 261.9V239.16C644.37 237.98 644.99 236.95 645.97 236.41C647.19 235.74 648.27 235.72 649.47 236.47C649.85 236.7 650.64 237.04 650.64 237.65V263.57L649.21 265.23C648.43 266.13 648.65 267.43 648.92 268.63V317.99C648.55 319.36 648.54 320.6 649.31 321.77C649.74 322.01 650.64 322.62 650.64 323.24" fill="#90BEFB"/>
<path d="M658.39 417.279V442.799C658.39 444.549 655.86 445.259 654.23 444.679C653.13 444.289 652.58 443.819 652.58 442.589V417.109L654.3 415.409V360.309L652.58 358.259L652.61 332.119C653.38 330.599 655.56 330.299 656.95 330.869C657.97 331.279 658.4 331.859 658.4 332.959L658.38 358.369L656.67 360.329V415.239L658.39 417.289V417.279Z" fill="#90BEFB"/>
<path d="M618.38 329.25C618.38 330.44 617.52 331.45 616.42 331.54C615.86 331.59 614.84 330.97 614.6 330.51C613.83 329.03 614.65 327.77 614.36 324.52C613.99 320.43 614.74 319.37 614.34 316.04C614.18 314.63 614.34 313.29 614.39 311.96C614.55 307.72 614.52 303.51 614.43 299.24C614.41 298.53 614.31 297.89 614.41 297.19C614.52 296.47 614.54 295.64 614.41 294.94C614.25 294.09 614.45 293.34 614.45 292.5V278.12L614.24 276.16C614.1 274.92 614.82 273.51 616.28 273.4C617 273.35 617.99 274.22 618.35 274.99L618.37 329.26L618.38 329.25Z" fill="#90BEFB"/>
<path d="M688.87 382.039C688.79 383.379 688.68 384.639 688.92 385.939C689 386.369 688.75 387.239 688.79 387.639C688.89 388.629 688.92 389.499 688.79 390.479C688.39 393.919 689.3 393.969 688.77 397.769C688.43 400.159 689.25 400.529 688.83 403.039C688.68 403.959 688.79 404.779 688.87 405.749C688.98 407.289 688.97 409.049 688.87 410.649C688.83 411.349 687.64 412.489 686.96 412.529C685.37 412.609 684.44 410.739 685.05 409.289V358.049C684.45 356.619 685.01 354.639 686.59 354.419C688.29 354.179 689.2 356.039 688.91 357.549C688.7 358.649 688.8 359.529 688.85 360.579C688.97 363.419 689 366.269 688.82 369.069C688.71 370.739 688.7 372.289 688.82 373.959C688.99 376.619 688.98 379.339 688.84 382.019" fill="#90BEFB"/>
<path d="M627.2 449.12C627.2 449.56 626.77 450.19 626.46 450.32L624.14 451.28L621.18 449.87V423.8C621.18 422.93 622.26 422.63 622.77 422.37C623.88 421.81 624.51 421.81 625.62 422.37C626.13 422.63 627.2 422.94 627.2 423.8V449.11V449.12Z" fill="#90BEFB"/>
<path d="M674.13 260.77C674.13 261.6 674.78 262.71 673.68 263.45C673.13 263.83 671.86 264.27 671.18 264.45C670.11 264.22 669 263.72 668.31 262.91V236.98C668.31 236.04 670.26 234.28 672.67 235.4C673.24 235.66 673.84 236.07 674.12 236.47C674.57 237.09 674.12 237.87 674.12 238.53V260.77H674.13Z" fill="#90BEFB"/>
<path d="M650.65 442.589C650.65 443.769 650.18 444.189 649.14 444.589C648.15 444.959 647.29 445.179 646.23 444.539C645.68 444.209 645.07 443.879 644.85 443.529C644.52 443.019 644.81 442.249 644.81 441.689L644.83 418.759C644.83 418.119 644.35 417.249 645.06 416.759C647.23 415.279 648.37 415.179 650.64 417.069V442.589H650.65Z" fill="#90BEFB"/>
<path d="M658.39 246.53V272.44C658.39 274.33 654.33 274.82 652.87 273.32C652.76 273.04 652.57 272.37 652.57 272.07L652.59 246.53C653.1 245.51 654.46 245 655.48 245C656.5 245 657.87 245.51 658.39 246.53Z" fill="#90BEFB"/>
<path d="M666.14 241.929V265.539C666.14 267.569 663.37 268.029 662.4 267.619C661.6 267.289 660.97 266.959 660.33 266.329V240.619C660.33 239.689 660.83 239.379 661.52 238.999C662.72 238.339 663.82 238.209 665.02 238.949C666.03 239.579 666.65 240.659 666.14 241.939" fill="#90BEFB"/>
<path d="M642.38 449.82C641.98 450.47 640 451.79 638.27 450.9C637.85 450.68 636.74 450.37 636.63 449.72V423.29C638.97 421.65 639.93 421.5 642.06 422.99C642.83 423.53 642.45 424.38 642.45 425.08V448.03C642.45 448.7 642.77 449.2 642.39 449.81" fill="#90BEFB"/>
<path d="M633.4 461.73C632.35 462.13 631.53 462.19 630.58 461.71C630.18 461.51 629.19 461.1 629.13 460.56V434.18C629.49 433.68 630.14 433.34 630.65 433.08C631.7 432.56 632.49 432.7 633.53 433.17C634.54 433.62 635.28 434.51 634.71 435.71V458.78C635.27 460.1 634.64 461.24 633.38 461.73" fill="#90BEFB"/>
<path d="M609.76 275.99V329.66C609.76 330.12 609.23 331.69 608.58 331.66C607.54 331.63 607.06 329.53 607.4 328.58V274.35C607.67 273.72 608.26 273.05 608.83 273.44C609.58 273.96 609.76 274.99 609.76 275.98" fill="#90BEFB"/>
</g>
<mask id="mask6_2561_1553" style="mask-type:luminance" maskUnits="userSpaceOnUse" x="0" y="0" width="696" height="496">
<path d="M695.85 0H0V495.83H695.85V0Z" fill="white"/>
</mask>
<g mask="url(#mask6_2561_1553)">
<path d="M618.37 417.9V443.62C618 444.28 616.95 445.18 616.33 445.1C613.34 444.72 614.48 440.79 614.42 439.31C614.34 437.58 614.26 436.22 614.44 434.65C614.58 433.41 614.48 432.14 614.39 430.9C614.11 427.45 614.49 425.8 614.36 423.2C614.27 421.41 614.28 419.7 614.29 417.88C614.29 417.06 614.87 416.49 615.5 416.08C616.1 415.7 616.57 415.7 617.16 416.09C617.8 416.5 618.38 417.04 618.38 417.91" fill="#90BEFB"/>
<path d="M609.76 417.68V443.23C609.76 444.03 609.19 444.74 608.55 445.27C607.32 444.52 607.01 443.2 607.39 441.93V419.17C606.99 418.13 607.51 415.65 608.57 415.71C609.29 415.75 609.75 417.32 609.75 417.68" fill="#90BEFB"/>
<path d="M695.85 272.71C695.85 273.09 695.32 274.34 694.66 274.37C694.47 274.39 694.05 274.1 693.97 273.93C692.84 271.66 693.97 270.14 693.61 267.82C693.51 267.2 693.64 266.62 693.64 265.99L693.62 252.96L693.57 249.96C693.54 248.29 693.05 246.32 694.39 244.97C694.71 244.64 695.82 245.59 695.82 246.17L695.85 272.7V272.71Z" fill="#90BEFB"/>
<path d="M255.57 223.29C255.4 224.16 255.62 224.88 255.62 225.76L255.6 249.24V252.22L255.62 290.63L255.59 293.27C255.55 297.3 255.7 301.25 255.59 305.28C255.56 306.2 255.5 306.98 255.59 307.9C255.78 310.04 255.59 311.28 255.59 313.52L255.62 322.65C253.22 325.23 252.38 324.28 250.54 323.71C250.08 323.57 249.61 323.08 249.62 322.42L249.71 153.4L249.8 128.37C249.8 127.62 249.43 126.69 249.73 126.06C250.11 125.26 251.05 124.98 251.76 124.63C252.54 124.25 252.95 124.4 253.66 124.67C255 125.17 255.89 125.89 255.68 127.5C255.61 128.11 255.55 128.84 255.64 129.51L255.61 161.4L255.53 164.23L255.62 167.06V200.96C255.62 201.91 255.5 202.68 255.58 203.6C255.83 206.87 255.48 208.34 255.58 210.95C255.7 213.64 255.7 216.31 255.58 219C255.46 221.51 255.86 221.86 255.56 223.3" fill="#90BEFB"/>
<path d="M263.39 419.77C263 420.45 260.96 421.59 259.28 420.78C258.71 420.51 257.59 420.13 257.59 419.17V224.27C257.59 223.47 257.36 222.54 258.1 222.16L260.43 220.95L261.95 221.59C262.47 221.81 263.04 222.16 263.3 222.51C263.75 223.12 263.4 223.71 263.4 224.5V417.64C263.4 418.46 263.81 418.99 263.38 419.76" fill="#90BEFB"/>
<path d="M246.84 198.99C246.55 199.74 246.63 200.55 246.84 201.42V367.26C246.84 368.27 245.52 369.49 244.63 369.24C243.73 369 243.24 368.16 242.75 367.45V201.84C242.97 200.89 243.09 199.98 242.78 199.19L241.89 196.98V171.04C241.89 170.12 242.67 169.74 243.34 169.44C245.75 168.39 247.69 170.1 247.69 170.83V196.77L246.84 198.98V198.99Z" fill="#90BEFB"/>
<path d="M271.16 224.259V249.359C270.43 250.819 270.06 252.219 270.41 253.829C270.65 254.919 270.11 258.079 270.37 260.999C270.74 265.199 269.98 265.309 270.39 268.889C270.6 270.729 270.45 272.499 270.41 274.319L270.36 276.509C270.26 280.809 270.23 285.019 270.39 289.269C270.43 290.599 270.61 291.939 270.46 293.249C270.28 294.759 270.59 296.089 270.48 297.609L270.36 299.209C270.29 300.179 270.45 300.929 270.38 301.879C270.19 304.369 270.5 307.859 270.4 308.609C270.07 310.939 270.82 309.449 270.33 312.349C270.52 313.449 270.54 314.359 270.33 315.389C270.56 316.689 270.63 317.979 270.33 319.299L270.38 337.309C270.38 338.309 270.44 339.169 270.4 340.139C270.21 343.839 270.38 346.459 270.38 350.079V365.069C270.38 366.559 270.65 367.869 270.36 369.389C270.13 370.579 270.53 371.149 270.4 373.519C270.27 375.769 270.27 378.029 270.4 380.279C270.44 380.939 270.52 381.509 270.43 382.149C270.04 384.859 270.84 385.209 270.43 389.249C270.13 392.249 270.64 395.349 270.4 398.849C270.21 401.619 270.42 403.299 270.44 406.169L270.46 409.169L270.43 413.659C270.43 414.469 270.5 415.269 270.38 416.059C270.49 417.139 270.68 418.289 270.43 419.419C270.27 420.109 269.3 420.979 268.54 421.149C267.88 421.289 266.46 420.309 266.46 419.389V250.979C265.72 249.929 265.54 249.089 265.54 247.969L265.6 224.239C265.1 222.969 265.76 222.039 266.85 221.589C267.91 221.149 268.7 221.119 269.73 221.539C270.87 222.009 271.74 222.909 271.19 224.239" fill="#90BEFB"/>
<path d="M239.96 247.64C240.7 250.04 238.24 249.75 238.24 251.4V419C238.24 420.18 237.89 420.88 236.83 421.52C236.1 420.65 235.87 419.91 235.87 418.78V253.77C236.81 250.04 234.16 249.98 234.16 248.92V223.16C234.16 222.73 234.71 222.09 235.04 221.94L237.09 220.97L239.34 222.07C240.19 222.48 240.29 223.64 239.96 224.46V247.64Z" fill="#90BEFB"/>
<path d="M278.95 120L277.18 122.05V288.53C277.18 287.91 277.83 292.24 276.08 291.97C275.6 291.89 275.04 290.92 275.04 290.26V122.03L273.19 119.87C272.94 117.26 273.31 117.16 273.27 113.98L273.23 110.96C273.21 109.31 273.44 107.61 273.18 105.95C272.88 103.99 273.51 102.33 273.23 98.7799C273.02 96.2799 273.65 97.4199 273.11 95.1299C272.74 93.5699 273.63 92.9699 274.78 92.4399C275.82 91.9599 276.46 91.8199 277.5 92.3699C278.66 92.9799 279.45 93.8099 279.07 95.3099C278.82 96.2999 278.99 97.4299 279.02 98.4799C279.04 99.0699 278.93 99.7299 279.02 100.3C279.24 101.56 278.96 102.84 278.99 104.07C279.03 105.47 279.27 106.81 278.87 108.2C279.29 109.75 278.97 111.34 279 112.91C279.03 114.39 279.12 115.72 278.96 117.23C278.87 118.02 279.49 119.35 278.94 120" fill="#90BEFB"/>
<path d="M232.04 247.38C232.04 248.68 232.42 249.48 230.79 250.16C229.73 250.61 228.86 250.97 227.68 250.19C227.31 249.95 226.52 249.71 226.26 249.37C225.87 248.88 226.15 248.06 226.15 247.43V224.46C226.15 223.89 225.85 223.18 226.19 222.66C226.41 222.31 227.02 221.97 227.5 221.72C228.69 221.07 229.66 221.07 230.8 221.77C231.23 222.04 231.75 222.36 232.01 222.67C232.37 223.11 232.01 223.97 232.01 224.51L232.04 247.38Z" fill="#90BEFB"/>
<path d="M293.32 250.259C291.7 251.079 290.08 250.429 289.09 249.359C288.6 248.829 289.01 248.079 289.01 247.389L289.04 224.469C288.42 223.079 289.3 222.099 290.44 221.539C291.53 220.989 292.13 220.829 293.26 221.589C293.74 221.909 294.84 222.039 294.84 222.979L294.8 242.479C294.8 243.399 294.68 244.179 294.77 245.109C295.12 248.989 295 249.409 293.34 250.259" fill="#90BEFB"/>
<path d="M224.08 249.449C223.39 250.039 222.14 250.549 221.32 250.839L219.74 250.239C218.96 249.939 218.43 249.439 218.43 248.519V222.739C218.64 222.089 219.58 221.659 220.12 221.399C221.03 220.979 221.6 221.049 222.51 221.479C223.1 221.759 224.22 222.069 224.23 222.949L224.26 228.089C224.07 228.669 224.07 229.239 224.26 229.829L224.24 245.759C224.24 247.029 224.35 248.259 224.09 249.449" fill="#90BEFB"/>
<path d="M286.93 245.95C286.88 246.96 287.35 248.08 286.95 249.22C286.71 249.87 285.6 250.09 285.06 250.35C283.52 251.09 281.78 249.94 281.36 249.36C280.97 248.8 281.07 248.1 281.12 247.44L281.24 245.65L281.28 224.71C280.58 223.25 281.4 222.13 282.69 221.53C283.6 221.11 284.18 220.99 285.12 221.46C285.75 221.76 286.67 222.1 286.99 222.8C287.35 223.63 286.9 224.65 286.9 225.54L286.94 243.12C286.94 244.1 286.99 244.93 286.94 245.94" fill="#90BEFB"/>
<path d="M215.43 223.6L215.37 249.02C215.37 250.28 213.71 250.99 212.96 250.58C211.39 249.75 210.98 248.42 211.55 246.96V224.72C210.84 222.57 211.88 221.88 213.49 220.95C214.78 221.32 215.44 222.27 215.44 223.6" fill="#90BEFB"/>
<path d="M301.72 222.569V248.909C301.33 249.829 300.67 250.739 299.39 250.689C298.84 250.659 297.86 249.739 297.86 249.139V222.749C297.86 222.109 299.02 221.059 299.61 221.069C300.39 221.069 301.22 221.919 301.73 222.569" fill="#90BEFB"/>
<path d="M206.81 222.55V248.92C206.81 249.66 206.19 250.67 205.58 250.67C204.5 250.23 204.43 248.88 204.44 247.81L204.46 243.27L204.44 227.48C204.44 227.24 204.64 226.6 204.66 226.36C204.34 224.89 204.29 223.29 204.84 221.84C204.98 221.44 205.75 221.01 206.08 221.28C206.32 221.49 206.81 222.23 206.81 222.55Z" fill="#90BEFB"/>
<path d="M308.04 250.51C307.86 250.72 307.13 250.72 306.98 250.51C306.84 250.31 306.45 249.76 306.45 249.5V222.31C306.45 221.92 307.08 221.31 307.37 221.01C308.75 221.35 309.07 223.67 308.61 224.89V246.68C309.02 248.04 308.82 249.59 308.04 250.5" fill="#90BEFB"/>
<path d="M538.04 231.34V427.52C538.04 428.29 537.46 428.78 536.92 429.04L535.22 429.84L532.37 428.78C531.89 427.65 531.89 426.6 532.24 425.24L532.21 363.36L532.12 360.71L532.22 357.65L532.24 262.73C531.79 261.65 532.22 260.85 532.22 259.83L532.24 233.23C531.99 232.47 531.87 231.45 532.54 230.9C534.55 229.24 536.14 229.58 538.05 231.36" fill="#90BEFB"/>
<path d="M546.01 427.92C546.01 428.73 543.71 430.27 541.61 429.4C540.3 428.86 539.57 427.66 540.19 426.18V233.29C540.19 232.53 539.7 231.84 540.19 231.18C540.85 230.27 542.63 229.34 544.18 230.03C544.78 230.31 545.41 230.67 545.7 231.04C546.23 231.72 545.84 232.47 545.84 233.26L545.91 259.33L546.01 427.91V427.92Z" fill="#90BEFB"/>
<path d="M553.56 237.3C553.56 238.47 553.8 239.48 553.15 240.55C552.42 241.71 552.87 242.77 552.87 244.05V409.239C552.87 410.289 551.29 411.359 550.63 411.329C549.91 411.289 548.79 409.919 548.79 409.459V244.03C548.79 242.79 549.27 241.57 548.53 240.6C548.27 240.27 547.93 239.43 547.93 238.99V213.03C547.93 212.14 550.16 210.729 552.07 211.619C552.66 211.899 553.26 212.31 553.53 212.7C553.98 213.37 553.55 214.09 553.55 214.77V237.28L553.56 237.3Z" fill="#90BEFB"/>
<path d="M530.07 276.42L529.21 278.26V446.87C528.83 447.5 528.22 448.22 527.71 448.44C526.7 448.85 526 447.89 525.46 447.17C524.64 446.07 525.33 444.95 525.33 443.69V278.73C524.59 277.38 524.4 276.24 524.4 274.85L524.44 251.59C524.44 250.86 524 250.24 524.56 249.58C525.89 248.05 528.8 247.83 530.06 249.81V276.42H530.07Z" fill="#90BEFB"/>
<path d="M561.49 241.45V267.79L560.32 268.8C559.05 269.9 559.75 271.27 559.75 272.68V437.06C559.75 437.92 559.61 439.39 558.71 439.58C557.66 439.8 557.39 438.17 557.39 437.27V271.6C557.83 270.26 557.28 269.07 556.29 268.42C555.24 267.71 555.63 267.03 555.63 266.1V243C555.65 242.5 555.31 241.75 555.57 241.29C555.97 240.57 558.21 239.25 559.52 239.91C560.25 240.28 561.14 240.69 561.48 241.44" fill="#90BEFB"/>
<path d="M522.37 244.58C522.37 247.21 523.16 245.13 520.6 248.42V416.19C520.6 417.26 520.27 418.38 519.36 418.69C517.84 417.7 518.39 415.95 518.39 414.51L518.37 400.57V384.06C518.38 379.5 518.54 376.02 518.37 371.33C518.34 370.33 518.32 369.47 518.37 368.49C518.56 364.76 518.39 362.15 518.4 358.23L518.42 334.57C518.42 333.62 518.15 332.84 518.38 331.89C518.51 331.29 518.48 330.5 518.38 329.86C518.24 328.97 518.33 328.12 518.35 327.22L518.43 324.6V280.17L518.4 277.31L518.42 261C518.42 260.13 518.18 259.21 518.45 258.38L518.28 256.91C518.52 255.03 518.49 253.39 518.36 251.49C518.29 250.43 518.9 248.46 517.86 247.7C516.45 246.68 516.68 245.86 516.68 244.35V221.93C516.68 220.54 516.31 219.59 517.95 218.83C518.86 218.41 519.79 218.26 520.89 218.81C521.46 219.09 522.09 219.45 522.36 219.84C522.81 220.49 522.38 221.24 522.38 221.91L522.4 244.58H522.37Z" fill="#90BEFB"/>
<path d="M514.58 267.29C513.25 268.65 511.95 269.32 510.22 268.47C509.76 268.25 508.65 267.93 508.56 267.28V241.13C508.8 240.41 509.78 240.02 510.38 239.74C511.39 239.29 512.08 239.31 513.03 239.89C513.52 240.19 514.56 240.56 514.56 241.36V267.28L514.58 267.29Z" fill="#90BEFB"/>
<path d="M577.2 247.47V273.39C577.2 274.29 574.72 275.69 573.44 275.09C572.66 274.72 572.03 274.41 571.39 273.78V247.46C571.39 246.48 572.59 246.29 573.13 245.97C574.11 245.37 574.57 245.56 575.56 246.09C576.09 246.37 577.2 246.5 577.2 247.47Z" fill="#90BEFB"/>
<path d="M506.62 257.86C505.75 258.66 504.73 259.16 503.63 259.42L502.01 258.75C501.25 258.44 500.8 257.84 500.8 257.05L500.82 235.84C501.35 234.21 500.58 234.65 500.86 231.54C500.97 230.42 503.3 229.08 505.28 230.22C505.63 230.42 506.61 230.75 506.61 231.27V257.86H506.62Z" fill="#90BEFB"/>
<path d="M569.46 225.219V251.899C567 253.269 565.85 253.779 563.65 251.769L563.63 226.959C563.63 226.389 563.32 225.629 563.65 225.129C563.89 224.769 564.48 224.439 564.99 224.139C565.91 223.609 566.64 223.559 567.62 223.999C568.27 224.299 569.03 224.619 569.47 225.219" fill="#90BEFB"/>
<path d="M497.76 257.65C497.76 258.61 496.37 259.37 495.76 259.35C494.06 258.7 493.53 257.48 493.91 255.98V233C493.52 232.03 493.78 231.22 494.48 230.51C494.93 230.06 495.73 229.61 496.27 229.77C496.74 229.91 497.74 230.52 497.74 231.15V257.66L497.76 257.65Z" fill="#90BEFB"/>
<path d="M584.09 231.09V257.86C583.65 258.61 582.94 259.04 581.99 259.51C581.39 259.11 580.23 258.49 580.23 257.67L580.21 231.71C580.21 230.68 581.23 229.53 582.19 229.72C582.88 229.85 583.71 230.52 584.08 231.09" fill="#90BEFB"/>
<path d="M591.19 257.37C591.19 258.31 590.48 258.98 589.88 259.5C589.41 259.06 588.82 258.37 588.82 257.69V231.92C588.82 231.1 588.92 229.84 589.94 229.75C590.48 229.7 591.18 230.86 591.18 231.53V257.37H591.19Z" fill="#90BEFB"/>
<path d="M489.18 258.01C488.99 258.59 488.53 259.53 487.84 259.14C486.77 258.52 486.69 257 487.02 255.95V233.64C486.64 232.29 486.77 230.66 487.94 229.72C488.26 229.46 489.17 230.44 489.17 230.94V258.01H489.18Z" fill="#90BEFB"/>
</g>
</g>
<defs>
<clipPath id="clip0_2561_1553">
<rect width="695.85" height="495.83" fill="white"/>
</clipPath>
</defs>
</svg>
