<svg width="737" height="406" viewBox="0 0 737 406" fill="none" xmlns="http://www.w3.org/2000/svg">
<path d="M516.96 284.71C522.97 282.36 525.24 275.38 522.72 269.64C520.27 264.01 513.32 261.66 507.69 264.2C501.94 266.79 499.51 273.48 502.2 279.39C504.73 284.93 508.69 284.04 509.86 286.03C509.89 286.07 509.89 286.13 509.89 286.19H479.33C479.33 286.19 479.23 286.19 479.18 286.18C477.13 286.05 475.56 286.15 473.64 286.88C470.99 287.88 468.56 290.24 467.75 292.94C467.59 293.46 466.95 295 466.95 298.46L467.98 302.5C468.11 303.03 468.47 303.52 468.77 303.97C469.56 305.15 470.35 305.96 471.56 306.71C472.77 307.46 474.01 308.06 475.41 308.38C476.47 308.62 477.5 308.81 478.58 308.68C478.63 308.68 478.68 308.66 478.74 308.66V308.91H509.04C509.47 309.17 509.73 309.39 509.7 309.62C509.48 311.33 501.96 311.95 501.13 320.4C500.6 325.79 503.82 330.72 508.6 332.02C509.14 332.17 509.77 333.42 509.47 333.7C507.93 335.11 502.9 336.13 501.94 341.32C501.84 341.86 500.22 342.76 499.92 342.34C499.67 342.01 499.39 341.36 499.18 340.71C497.59 335.64 492.27 333.13 487.11 334C477.11 335.7 479.32 343.34 476.79 342.32C475.23 341.69 474.75 333.89 465.27 333.76C460.83 333.69 456.4 336.29 454.84 340.74C454.6 341.41 454.15 342.41 453.64 342.43C453.24 342.46 452.43 341.63 452.26 341.12C450.53 335.88 444.99 332.74 439.34 333.95C431.49 335.62 431.1 342.81 429.69 342.57C428.81 342.42 427.54 335.35 421.78 334.44C421.4 334.38 420.73 333.61 420.67 333.28C420.38 331.5 428.83 331.53 429.42 322.45C430.15 311.11 419.1 311.13 420.94 309.25C421.21 308.97 421.94 308.52 422.37 308.37C427.6 306.62 430.07 301.16 429.28 295.95C428.65 291.79 425.87 288.3 421.81 287.37C421.34 287.27 420.66 285.94 421 285.6C422.31 284.24 427.32 284.11 429.12 277.44C430.12 273.73 429.31 269.92 426.94 267.01C424.7 264.26 421.02 262.88 417.15 263.18C411.93 263.57 407.97 267.46 407.08 272.15C406.14 277.16 408.64 282.67 413.43 284.47C414.42 284.84 415.6 285.59 415.37 286.47C415.23 287.03 414.1 287.54 413.34 287.83C408.63 289.6 406.41 294.5 406.93 299.41C407.41 303.91 410.69 307.66 415.63 309.16C414.86 310.54 414.04 310.99 412.89 311.5C408.72 313.36 406.66 317.75 406.89 322.13C407.38 331.38 415.53 331.66 415.36 333.23C415.19 334.96 409.49 334.62 407.59 341.2C407.44 341.72 405.79 342.42 405.55 341.95C405.35 341.55 405.01 340.76 404.74 340.11C403.02 336 398.64 333.53 394.31 333.66C390.14 333.79 385.6 336.19 384.24 340.45C383.97 341.28 383.34 342.3 382.68 342.33C382.05 342.37 381.35 341.28 381.15 340.51C379.98 336.16 375.65 333.77 371.36 333.68C366.5 333.58 362 336.18 360.43 340.91C358.52 346.66 358.89 336.32 351.52 334.37C351.03 334.25 350.31 333.17 350.55 332.86C351.77 331.32 358.77 329.93 358.85 321.43C358.94 311.53 349.07 310.7 350.57 309.17C351.75 307.97 358.75 306.61 358.82 297.79C358.9 288.07 350.49 287.97 350.64 286.04C350.78 284.28 361.15 282.28 358.53 271.42C357.2 265.94 352.14 262.5 346.52 263.05C341.12 263.58 337.18 267.47 336.42 273.18C335.72 278.55 339.13 283.51 344.14 284.79C344.5 284.88 345.12 285.63 345.22 285.96C345.32 286.28 344.62 287.16 344.24 287.24C339.66 288.25 336.37 292.63 336.27 297.51C336.17 302.6 339.25 307.41 344.06 308.38C344.49 308.47 345.3 309.3 345.18 309.62C344.53 311.42 337.85 311.11 336.38 319.37C335.34 325.18 338.75 330.55 344.08 332C344.5 332.11 345.18 332.94 345.18 333.28C345.18 333.62 344.49 334.24 344.07 334.34C339.72 335.33 336.53 339.32 336.28 343.77C336.07 347.59 337.05 350.61 339.56 353.06C342.12 355.57 345.39 356.32 349.26 356.09C357.91 355.59 358.54 343.53 360.41 348.95C361.83 353.06 365.67 355.85 369.73 356.19C374.13 356.56 378.6 354.79 380.69 350.69C381.08 349.92 381.47 348.1 382.31 347.75C383.33 347.31 384.03 349.03 384.4 349.95C386.01 354.05 390.25 356.2 394.26 356.31C398.43 356.42 402.67 354.41 404.45 350.29C404.81 349.44 405.37 347.8 406.11 347.6C407.49 347.9 407.8 349.59 408.32 350.68C410.8 355.85 416.85 357.22 422.06 355.64C428.59 353.68 428.66 346.81 429.96 347.59C431.35 348.44 432.3 355.9 441.28 356.39C451.23 356.94 452.02 347.02 453.6 347.63C455.06 348.18 455.74 356.12 464.92 356.36C469.92 356.49 474.47 353.25 475.72 348.89C475.88 348.34 477.37 347.52 477.67 347.9C478.3 348.72 480.06 356.82 489.54 356.37C494.61 356.12 498.6 352.87 499.63 347.92C501.27 347.66 501.85 348.99 502.38 350.16C504.43 354.75 509.02 356.8 513.84 356.31C518.02 355.88 521.96 352.84 523.18 348.46C524.87 342.38 521.78 336.22 516.25 334.47C515.77 334.32 515.12 333.57 515.18 333.24C515.23 332.91 515.87 332.16 516.41 332C521.29 330.53 524.42 325.29 523.56 319.83C522.9 315.7 520.16 311.87 516.16 310.94C515.67 310.83 514.91 309.52 515.25 309.26C515.54 309.04 516.29 308.56 516.67 308.41C522.6 306.11 525.05 299.67 522.98 293.75C521.89 290.61 519.04 288.13 516 287.46C515.52 287.35 514.95 285.9 515.3 285.64C515.64 285.37 516.37 284.94 516.98 284.7L516.96 284.71Z" fill="#90BEFA"/>
<path d="M597.9 239.55C604.72 237.58 604.07 231.61 605.94 231.97C607.91 232.34 608.02 239.93 617.4 240.23C627.17 240.53 628.09 231.24 629.62 231.96C631.2 232.69 631.86 239.63 640.54 240.29C650.06 241 651.45 231.99 652.86 232.06C654.87 232.15 655.11 237.6 660.08 239.4C663.03 240.47 666.67 240.58 669.52 239.32C675.53 236.68 677.45 229.89 674.94 224.24C672.42 218.6 665.26 216.16 659.59 218.96C653.51 221.96 654.8 227.63 652.76 226.63C650.89 225.72 651.3 218.27 641.43 217.73C636.25 217.45 631.49 221.22 630.55 225.69C630.47 226.04 629.84 226.7 629.59 226.69C627.59 226.59 628.25 218.93 619.08 217.74C609.37 216.49 607.31 225.23 606.43 226.44C606.22 226.72 604.95 226.23 604.85 225.79C604.04 222.47 600.69 218.37 596.79 217.94C592.67 217.48 589.41 217.86 586.53 220.45C583.77 222.93 582.72 226.17 582.87 230.3C583.21 239.43 595.66 240.24 590.65 241.65C586.55 242.82 582.54 247.24 582.76 252.17C583.27 263.53 591.61 261.75 591.39 264.19C591.33 264.78 590.21 265.47 589.47 265.72C585.09 267.22 582.77 271.59 582.7 275.81C582.62 280.25 584.98 284.42 589.32 286.15L591.23 286.9C591.67 287.08 591.02 288.8 590.42 288.94C587.11 289.7 583.73 292.91 583.03 296.64C581.76 303.33 584.82 308.77 592.18 311.16C586.64 313.72 583.43 316.45 582.77 321.44C582.14 326.24 584.22 331.15 588.96 333.17C590.1 333.64 591.28 334.09 591.47 335.59C585.31 337.13 581.87 342.42 582.84 348.61C584.16 357.05 591.79 356.55 591.19 358.77C591.05 359.28 590.11 359.7 589.36 359.97C585.25 361.44 582.9 365.48 582.66 369.38C582.39 373.67 584.26 378.11 588.35 380.05L591.14 381.38C591.22 382.93 589.65 383.39 588.54 383.91C584.3 385.94 582.32 390.31 582.67 394.9C582.96 398.98 585.93 403.33 590.49 404.53C596.67 406.16 602.71 403.49 604.71 397.38C604.83 397.02 605.69 396.51 605.94 396.62C608.33 397.6 606.12 402.34 615.88 405.29H618.29C628.45 403.84 627.75 395.14 629.65 396.63C631.8 398.31 629.89 401.83 639.03 405.29H641.93C652.7 403.25 650.24 396.53 652.8 396.64C655.08 396.73 653.47 402.5 662.68 405.29H666.54C671.84 403.86 675.71 400.05 675.86 394.17C676 388.72 672.48 384.18 667.51 382.9C662.3 381.55 656.34 384.03 654.45 389.19C654.17 389.96 653.72 391.03 653.2 391.2C652.55 391.41 651.58 390.3 651.33 389.55C649.85 385.11 645.54 382.59 641.21 382.53C636.6 382.46 632.28 385.11 630.68 389.69C630.53 390.12 629.96 390.79 629.6 390.99C627.94 391.99 627.21 382.69 618.03 382.5C613.41 382.41 608.94 384.73 607.28 389.32C607.08 389.89 606.44 390.77 605.98 390.97C604.28 391.72 604.23 384.91 597.88 383.45C597.35 383.33 596.57 382.29 596.6 381.83C596.63 381.28 597.62 380.78 598.37 380.56C603.18 379.11 605.46 374.37 605.19 369.62C604.88 364.48 601.68 360.46 596.77 359.37C596.37 357.91 597.56 357.22 598.8 356.79C603.22 355.28 605.35 350.66 605.32 346.2C605.29 341.96 602.41 337.7 598.17 336.17C597.66 335.99 596.96 335.64 596.65 335.44C596.28 335.2 597.2 333.97 597.66 333.83C603.8 331.83 606.85 325.26 604.58 319.06C602.5 313.4 597.85 312.79 596.5 311.41C596.3 311.21 597.02 310.31 597.42 310.26C602.89 309.63 604.63 302.68 605.52 302.13C607.36 300.99 607.2 309.88 616.31 310.92C621.82 311.55 626.9 307.91 628.3 303.28C628.46 302.76 629.45 301.94 629.7 302.17C630 302.46 630.53 303.23 630.69 303.71C632.44 309.19 638.24 311.71 643.69 310.57C651.97 308.85 650.65 302.75 652.84 302.37C655.32 301.94 653.13 307.64 661.04 310.34C665.22 311.77 669.9 310.69 672.85 307.63C675.82 304.54 676.71 299.88 675.28 295.66C673.76 291.18 669.65 288.52 665.29 288.34C660.71 288.15 656.04 290.61 654.43 295.18C654.19 295.85 653.75 296.74 653.27 296.87C652.58 297.07 651.65 296.1 651.44 295.39C649.96 290.33 645.03 287.98 639.96 288.35C632.16 288.93 630.89 295.86 629.56 296.78C628.08 297.8 627.4 288.03 617.3 288.3C608.09 288.55 607.55 296.17 605.91 296.79C605.57 296.91 604.8 296.17 604.65 295.69C602.43 288.52 595.95 289.79 596.93 287.31C597.14 286.77 598.19 286.42 598.99 286.1C603.01 284.48 605.31 280.25 605.34 276.25C605.38 271.95 603.3 267.56 599.04 265.87C598.12 265.51 596.15 264.8 596.82 263.6C597.19 262.93 599.01 262.53 599.73 262.17C603.75 260.12 605.68 255.92 605.38 251.66C604.79 243.49 598.1 242.08 596.8 241.02C596.48 240.76 597.5 239.66 597.92 239.54L597.9 239.55Z" fill="#90BEFA"/>
<path d="M736.16 108.99C734.82 104.58 730.25 101.97 725.99 101.89C721.49 101.8 717.09 104.3 715.49 108.73C715.27 109.32 714.39 110.27 713.85 110.31C713.32 110.35 712.79 109.23 712.52 108.54C710.53 103.29 704.58 100.98 699.43 102.27C695.1 103.36 692.07 106.2 691.42 110.68C689.42 111.03 689.17 109.26 688.6 107.89C686.91 103.78 682.5 101.79 678.41 101.91C674.04 102.04 669.83 104.47 668.29 108.76L667.81 110.1C667.67 110.48 666.23 110.51 666.08 110.17L664.68 107.13C662.74 102.93 657.48 101.24 653.08 102.01C648.37 102.82 645.66 105.84 643.18 111.21C640.72 104.22 635.76 100.99 629.14 102.11C621.02 103.48 621.45 111.39 619.41 110.41C617.97 109.72 617.74 102.57 608.69 101.87C604.46 101.54 599.98 103.55 598.06 107.54C597.58 108.54 597.42 110.41 595.88 110.25C595.11 110.18 594.61 108.44 594.24 107.67C592.29 103.59 588 101.47 583.74 101.79C575.1 102.45 574.05 109.28 573.01 110.47C571.5 112.22 571.24 103.97 564.61 102.46C564.2 102.37 563.51 101.26 563.69 100.95C564.52 99.4499 572.39 98.6499 572.08 89.1699C571.98 86.1199 571.36 83.8499 569.13 81.6399C565.64 78.1599 564.1 79.6399 563.97 77.8399C563.95 77.4499 564.53 76.5499 565.09 76.3799C568.85 75.2299 572.13 71.0699 572.16 66.6999C572.19 63.2699 571.61 60.5299 569.11 57.9499C566.27 55.0099 561.97 53.8599 557.82 55.0399C554.28 56.0599 550.9 58.8499 550.03 62.8899C548.79 68.5899 551.06 74.4899 556.83 76.1899C557.45 76.3799 558.44 77.2999 558.42 77.8599C558.33 79.4699 551.19 78.9299 549.71 88.0799C548.8 93.6999 552.94 98.6599 557.28 100.04C557.76 100.19 558.37 101.17 558.22 101.47C557.38 103.22 551.32 103.03 549.86 110.5C548.76 116.08 551.1 121.67 556.77 123.55C557.23 123.71 558.11 124.59 558 125.06C557.9 125.53 557 126.16 556.41 126.36C551.92 127.93 549.52 132.29 549.51 136.65C549.51 145.81 557.44 146.76 558 148.25C558.16 148.71 557.25 149.59 556.73 149.77C551.56 151.62 549.05 156.44 549.62 161.69C550.15 166.65 554.04 170.92 559.36 171.43C565.74 172.03 571.34 167.91 571.96 161.58C572.47 156.42 570.08 151.59 565.09 149.85C564.66 149.69 563.92 149.07 563.74 148.68C562.87 146.79 571.46 146.8 572.15 137.44C572.55 132.01 568.85 127.04 564.33 125.97C563.9 125.87 563.31 124.82 563.48 124.57C563.65 124.31 564.19 123.74 564.62 123.65C570.75 122.33 570.96 115.97 572.66 115.73C574.23 115.5 574.06 124.25 584.41 124.33C589.03 124.37 593.49 121.93 594.7 117.31C594.83 116.8 595.39 116 595.78 115.78C596.16 115.57 597.29 116.33 597.39 116.76C598.57 121.57 603.11 124.55 608.04 124.39C613.32 124.22 617.38 121.49 618.86 116.11C619.04 115.47 621.04 116.38 621.23 117.27C621.89 120.34 624.73 122.97 628.28 123.92C634.01 125.45 640.29 122.8 642.17 117C642.3 116.58 642.53 116.02 642.64 115.75C642.79 115.39 644.1 115.88 644.23 116.36C645.48 121.14 650.2 124.56 655.35 124.42C665.77 124.15 665 114.87 667.18 115.73C667.6 115.9 668.07 116.69 668.28 117.34C669.66 121.74 673.95 124.22 678.29 124.4C682.6 124.57 687.27 122.21 688.8 117.96C689.09 117.15 689.71 115.95 690.33 115.89C691 115.82 691.72 116.94 691.99 117.7C693.58 122.15 698.01 124.47 702.63 124.43C707.93 124.39 712.26 120.94 713.16 115.47C715.09 115.75 715.26 117.2 715.89 118.56C717.99 123.17 723.32 125.13 728.13 124.23C732.86 123.35 736.03 119.96 736.91 115.19V111.33L736.2 108.98L736.16 108.99Z" fill="#90BEFA"/>
<path d="M326.08 22.26C319.81 22.26 314.74 27.34 314.74 33.61C314.74 39.88 319.82 44.95 326.08 44.95C332.34 44.95 337.43 39.87 337.43 33.61C337.43 27.35 332.34 22.26 326.08 22.26Z" fill="#90BEFA"/>
<path d="M337.43 137.01C337.43 143.28 342.51 148.35 348.77 148.35C355.03 148.35 360.12 143.27 360.12 137.01C360.12 130.75 355.03 125.66 348.77 125.66C342.51 125.66 337.43 130.74 337.43 137.01Z" fill="#90BEFA"/>
<path d="M255.17 74.16C261.44 74.16 266.52 69.08 266.52 62.82C266.52 56.56 261.43 51.47 255.17 51.47C248.91 51.47 243.83 56.55 243.83 62.82C243.83 69.09 248.91 74.16 255.17 74.16Z" fill="#90BEFA"/>
<path d="M633.47 22.69C639.73 22.69 644.82 17.61 644.82 11.35C644.82 5.09 639.73 0 633.47 0C627.21 0 622.13 5.08 622.13 11.35C622.13 17.62 627.21 22.69 633.47 22.69Z" fill="#90BEFA"/>
<path d="M552.19 217.62C545.92 217.62 540.85 222.7 540.85 228.97C540.85 235.24 545.93 240.31 552.19 240.31C558.45 240.31 563.54 235.23 563.54 228.97C563.54 222.71 558.45 217.62 552.19 217.62Z" fill="#90BEFA"/>
<path d="M75.7 231.95C80.29 230.77 83.8 226.17 83.45 220.89C82.76 210.78 73.75 210.92 74.45 209.48C74.63 209.09 75.43 208.52 75.87 208.39C81.66 206.76 83.93 201.19 83.25 195.63C82.35 188.26 75.98 187.7 74.76 186.3C74.51 186.01 75.15 184.87 75.59 184.76C79.76 183.78 82.99 179.94 83.36 175.44C84.24 164.78 75.33 163.83 74.7 162.8C74.44 162.37 75.41 161.14 75.94 161.03C80.44 160.11 83.08 155.83 83.38 151.41C83.83 144.56 79.27 139.35 72.42 139.13C67.17 138.96 62.44 142.34 61.08 147.16C60.95 147.61 60.52 148.35 60.37 148.52V153.34L62.56 157.02C65.45 161.86 70.43 160.51 69.45 162.7C68.59 164.59 64.42 162.59 60.37 171.67V176.01C60.47 176.07 61.1 176.9 61.16 177.25C62.52 184.2 69.31 184.1 69.13 185.92C68.91 188.31 62.99 186.38 60.36 196.28V198.69C63 210.1 70.62 207.07 69.15 210.42C62.92 212.14 63.02 214.63 60.36 218.95V223.29C60.45 223.32 61.15 224.18 61.21 224.49C62.47 231.34 69.75 231.69 69.17 233.25C69.17 233.27 69.14 233.29 69.13 233.32H36.87C36.81 233.32 36.75 233.32 36.69 233.31C34.64 233.18 33.07 233.28 31.15 234.01C28.5 235.01 26.07 237.37 25.26 240.08C25.1 240.6 24.46 242.14 24.46 245.6L25.49 249.64C25.62 250.17 25.98 250.66 26.28 251.11C27.07 252.29 27.86 253.1 29.07 253.85C30.28 254.6 31.52 255.2 32.92 255.52C33.98 255.76 35.01 255.95 36.09 255.82C36.14 255.82 36.19 255.8 36.25 255.8V256.06H68.81C69.2 256.56 69.51 257.29 69.26 257.42C68.89 257.62 68.22 257.91 67.6 258.12C62.88 259.67 61.83 263.82 60.39 267.2V270.1C60.74 270.52 61.15 271.29 61.38 272.03C62.98 277.18 68 280.37 73.15 279.82C78.21 279.28 82.75 275.5 83.22 270.2C84.14 259.73 76.71 258.51 75.01 257.33C74.64 257.08 75.45 255.63 75.97 255.49C79.47 254.57 82.33 251.3 83.15 247.48C84.35 241.88 81.38 236.01 76.04 234.35C75.56 234.2 74.83 233.76 74.57 233.54C74.25 233.28 75.1 232.15 75.72 231.99L75.7 231.95Z" fill="#90BEFA"/>
<path d="M93.6399 140.99C99.0699 141.99 104.27 138.89 106.12 133.58C106.24 133.23 107.08 132.55 107.44 132.5C107.81 132.46 108.46 133.21 108.58 133.58C110.32 139.25 115.73 141.86 121.4 141C129.9 139.73 129.06 131.84 131.05 132.61C131.38 132.73 132.05 133.32 132.19 133.74C133.75 138.42 138.25 141.67 143.37 141.16C152.81 140.24 152.42 133.1 154.26 132.93C156.34 132.74 156.19 138.63 162.07 140.26C164.14 142.3 167.63 142.51 170.07 140.56C174.25 139.15 177.31 135.41 177.56 131.22C177.78 127.51 177.02 124.33 174.63 121.82C172.48 119.56 169.44 118.52 166.02 118.42C161.25 118.27 157.05 121.83 155.69 125.76C155.47 126.38 154.06 127.18 153.8 126.77C152.36 124.6 150.99 118.03 141.86 118.51C132.01 119.03 132.72 128.25 130.6 126.86C129.23 125.96 128.31 117.94 118.24 118.47C109.52 118.93 109.13 126.49 107.42 126.71C105.7 126.91 104.99 118.62 96.1099 118.4C89.6599 118.25 84.8099 122.71 84.4599 129.23C84.1599 135.06 88.0899 139.96 93.6199 140.99H93.6399Z" fill="#90BEFA"/>
<path d="M170.08 284.24C167.78 283.22 166.86 281.83 162.35 284.13C152.67 289.06 158.12 292.28 153.53 292.11C152.34 286.86 147.89 283.49 142.37 283.55C137.73 283.61 133.45 286.76 132.22 291.01C132.1 291.44 131.43 292.06 131.1 292.14C130.77 292.21 129.9 291.55 129.76 291.08C128.53 286.84 124.06 283.6 119.27 283.53C114.16 283.44 109.64 286.75 108.42 291.31C108.34 291.62 107.68 292.16 107.42 292.19C107.17 292.22 106.44 291.66 106.33 291.31C104.54 285.8 98.12 281.99 92.31 284C86.3 286.09 83 291.84 84.81 298.3C86.03 302.6 89.94 305.58 94.04 306.09C98.58 306.67 103.2 304.89 105.37 300.47C105.87 299.43 106.4 297.53 107.56 297.72C108.33 297.85 108.86 299.64 109.21 300.37C111.41 305.03 116.54 306.84 121.39 305.94C130.05 304.36 129.48 296.07 131.36 297.69C131.69 297.97 132.28 298.87 132.44 299.31C134.13 304.24 138.99 306.67 143.98 306.19C148.54 305.75 152.28 302.53 153.57 297.73C155.13 297.4 155.64 298.77 156.13 299.99C158.38 305.46 165.11 307.56 170.4 305.49C175.88 303.34 178.59 297.56 177.15 291.72C176.19 287.85 173.54 285.78 170.07 284.23L170.08 284.24Z" fill="#90BEFA"/>
<path d="M263.48 208.94C264.68 212.44 268.12 214.99 271.6 215.61C278.62 216.85 284.36 212.5 285.03 205.59C285.41 201.6 283.87 197.8 280.89 195.47C277.66 192.97 273.69 192.5 269.72 193.83C263.66 195.85 263.79 201.31 262.32 201.91C260.68 202.57 261.28 196.4 254.09 193.7C247.88 191.38 241.3 194.84 239.74 200.76C239.61 201.28 238.46 202.01 238.16 201.74C237.86 201.46 237.37 200.76 237.19 200.25C235.73 195.8 231.45 193.13 227.04 193.02C222.75 192.9 218.17 195.26 216.69 199.47C216.41 200.27 215.65 201.36 215.05 201.39C212.79 201.51 214.34 196.18 207.09 193.83C206.7 193.71 205.98 193 205.98 192.6C205.98 192.3 206.59 191.68 206.97 191.55C211.86 189.89 215.09 185.11 214.46 179.72C213.41 170.65 205.88 170.56 205.77 168.98C205.67 167.48 213.59 167.29 214.49 158.68C214.97 154.04 212.91 149.2 208.46 147.24C207.29 146.73 205.85 146.09 206.07 144.67C214.39 142.35 212.68 137.08 214.99 136.72C215.28 136.68 216.15 137.29 216.3 137.75C217.65 141.93 222.3 145.26 227.07 145.16C235.91 144.97 237.19 136.36 238.67 136.54C240.19 136.72 240.59 144.66 250.01 145.1C255.2 145.34 259.9 141.77 261.14 137.12C261.22 136.8 262.14 136.11 262.39 136.29C263.97 137.38 263.51 141.87 269.6 144.23C274.13 146 278.72 145.02 282.07 141.71C285.29 138.52 285.88 133.75 284.2 129.2C282.9 125.68 279.36 123.18 276.14 122.57C268.07 121.06 265.06 127.48 264.23 127.34L261.81 126.92L263.34 129.54C263.57 130.02 263.16 131.26 262.75 131.61C262.41 131.91 261.09 131.07 261 130.61C259.88 125.07 254.3 121.46 248.57 122.61C247.09 122.91 244.82 122.96 243.65 123.05C242.97 124.57 242.12 125.79 241.29 127.14L238.8 131.2C237.93 131.21 237.31 130.07 236.98 129.12C235.45 124.75 230.99 122.26 226.62 122.34C222.44 122.42 218.19 124.86 216.68 129.13C216.4 129.9 215.65 130.79 214.99 130.82C214.2 130.86 213.77 129.86 213.45 128.99C211.65 124.08 206.33 121.78 201.32 122.55C195.54 123.44 191.98 128.27 192.1 134.02C192.22 139.36 195.31 143.58 200.79 144.73C200.13 148.19 196.71 145.89 193.72 151C190.35 156.78 191.92 164.61 198.22 167.39C199.2 167.83 200.23 168.12 200.59 169.02H171.59V169.05C171.37 169.03 171.14 169.02 170.91 169C168.64 168.87 166.89 168.97 164.76 169.7C161.82 170.7 159.12 173.06 158.22 175.77C158.04 176.29 157.33 177.83 157.33 181.29L158.47 185.33C158.62 185.86 159.01 186.35 159.35 186.8C160.23 187.98 161.1 188.79 162.44 189.54C163.78 190.29 165.16 190.89 166.71 191.21C167.89 191.45 169.03 191.64 170.23 191.51C170.69 191.46 171.14 191.4 171.59 191.34V191.75H199.92C200.39 192.1 200.93 192.8 200.66 193C200.25 193.3 199.4 193.8 198.94 193.98C192.97 196.26 190.81 202.84 192.73 208.65C194.83 215.02 200.11 214.38 200.69 216.3C201.13 217.74 192.63 217.95 192.01 227.12C191.67 232.08 194.07 237.14 199.07 238.44C199.73 238.61 200.77 239.28 200.71 239.81C200.67 240.25 199.88 241.09 199.41 241.21C194.96 242.38 192.08 246.6 192.04 251.21C191.97 260.77 199.28 261.97 200.49 263.02C200.79 263.28 199.87 264.55 199.34 264.69C195.04 265.83 191.92 270.58 191.88 275.37C191.79 285.47 202.05 285.98 200.89 287.15C199.92 288.11 192.77 290.3 192.17 296.49C191.78 300.51 192.44 304.17 195.12 306.83C197.75 309.45 201.13 310.52 205.25 309.97C210.53 309.27 214.11 304.65 214.47 299.73C215.22 289.6 205.04 288.13 205.78 286.93C206.57 285.65 213.89 284.4 214.4 276.84C214.73 272.01 212.87 267.17 208.21 265.19C207.11 264.73 205.91 264.04 205.84 262.79C211.12 261.29 214.22 257.47 214.45 252.23C214.67 247.43 212.14 242.78 207.36 241.38C206.79 241.21 205.98 240.46 205.89 239.96C205.81 239.57 206.63 238.65 207.13 238.56C213.44 237.38 213.38 230.23 215.08 230.89C216.58 231.46 217.18 238.41 225.44 239.34C231.37 240 236.86 236.31 237.75 230.39C238.55 225.03 236.34 219.6 231.15 217.68C230.52 217.45 229.43 216.87 229.41 216.33C229.31 214.12 234.89 215.78 237.37 208.31C237.52 207.85 238.27 207.28 238.67 207.18C240.1 206.89 240.24 215.62 250.1 215.93C255.3 216.09 259.98 212.26 261.19 207.78C261.32 207.27 262.93 207.33 263.03 207.63L263.49 208.97L263.48 208.94ZM216.22 224.22C216.1 224.64 215.4 225.29 215.03 225.42C213.12 226.06 213.55 218.67 206.75 217.46C206.38 217.4 205.67 216.71 205.66 216.34C205.66 215.98 206.4 215.08 206.76 215.03C212.34 214.18 213.33 208.42 214.68 207.01C214.96 206.71 216.18 207.6 216.25 208.12C217.06 213.83 223.2 214.54 224.27 215.98C225.63 217.81 218.31 216.79 216.22 224.21V224.22Z" fill="#90BEFA"/>
<path d="M302.67 167.25C307.18 165.21 309.48 160.12 308.59 155.24C307.81 150.94 304.46 147.03 299.75 146.2C295.93 145.52 292.57 146.31 289.76 148.82C287.42 150.92 286.22 154.07 286.19 157.68C286.14 162.58 289.48 166.88 294.04 168.08C294.26 168.13 294.87 168.76 294.78 169C294.2 170.39 286.49 172.06 286.22 179.8C286.03 185.18 288.53 190.27 294.04 191.71C295.99 192.22 299.03 192.26 301.05 191.66C306.08 190.15 309.03 185.09 308.7 180.21C308.37 175.08 305.08 171.36 299.7 169.43C300.49 168.12 301.43 167.81 302.65 167.26L302.67 167.25Z" fill="#90BEFA"/>
<path d="M273.77 263.88C267.49 263.88 262.39 268.97 262.39 275.25C262.39 281.53 267.49 286.63 273.77 286.63C280.05 286.63 285.15 281.53 285.15 275.25C285.15 268.97 280.05 263.88 273.77 263.88Z" fill="#90BEFA"/>
<path d="M250.26 240.32C243.99 240.32 238.92 245.4 238.92 251.67C238.92 257.94 244 263.01 250.26 263.01C256.52 263.01 261.61 257.93 261.61 251.67C261.61 245.41 256.52 240.32 250.26 240.32Z" fill="#90BEFA"/>
<path d="M297.34 310.15C303.597 310.15 308.67 305.077 308.67 298.82C308.67 292.563 303.597 287.49 297.34 287.49C291.082 287.49 286.01 292.563 286.01 298.82C286.01 305.077 291.082 310.15 297.34 310.15Z" fill="#90BEFA"/>
<path d="M405.61 64.12C410.62 64.72 415.46 62.29 417.27 57.49C417.48 56.92 418.19 55.97 418.66 55.75C420.57 54.83 420.23 63.87 430.2 64.28C434.45 64.45 438.87 62.19 440.61 58.12C440.94 57.35 441.72 55.62 442.45 55.64C443.67 55.68 443.88 57.68 444.33 58.58C446.65 63.18 452.04 65.19 456.95 63.93C461.61 62.74 465.02 58.7 465.35 53.8C465.8 47.27 461.97 43.73 456.49 41.49H451.66C451.5 41.63 450.75 42.1 450.41 42.21C443.28 44.35 444.25 50.75 442.36 50.09C439.89 49.23 441.72 44.89 433.32 41.49H428.01C424.43 42.87 420.98 45.31 419.97 49.22C419.87 49.64 419.04 50.38 418.7 50.23C416.72 49.36 418.12 45.32 410.15 41.5H404.36C403.85 41.84 403.13 42.24 402.4 42.58C397.39 44.8 395.04 50.12 396.12 55.58C397.06 60.31 401.23 63.61 405.62 64.13L405.61 64.12Z" fill="#90BEFA"/>
<path d="M329.85 91.94C328.68 90.7 327.34 89.92 325.83 89.26C324.88 88.85 323.94 88.76 322.91 88.7C320.86 88.57 319.29 88.67 317.37 89.4C314.72 90.4 312.29 92.76 311.48 95.46C311.32 95.98 310.68 97.52 310.68 100.98L311.71 105.02C311.84 105.55 312.2 106.04 312.5 106.49C313.29 107.67 314.08 108.48 315.28 109.23C316.49 109.98 317.73 110.58 319.13 110.9C320.19 111.14 321.22 111.33 322.3 111.2C323.85 111.01 325.36 110.76 326.74 110.01C328.05 109.31 329.35 108.52 330.27 107.38C331.15 106.3 331.83 105.2 332.39 103.96C332.78 103.12 332.79 102.19 332.96 101.3C333.06 100.76 333.17 100.22 333.13 99.62C332.93 96.78 331.79 93.99 329.84 91.93L329.85 91.94Z" fill="#90BEFA"/>
<path d="M336.97 106.49C337.76 107.67 338.55 108.48 339.76 109.23C340.97 109.98 342.21 110.58 343.61 110.9C344.67 111.14 345.7 111.33 346.78 111.2C346.83 111.2 346.88 111.18 346.94 111.18V111.43H381.09C381.24 111.6 381.25 111.78 381.04 112.01C380.81 112.26 380.01 112.83 379.64 112.95C374.78 114.36 371.92 119.43 372.31 124.47C372.7 129.52 375.93 133.62 380.67 134.48C380.9 134.91 381.27 136 380.94 136.13C380.56 136.29 379.86 136.55 379.34 136.71C374.24 138.3 371.78 143.47 372.32 148.68C372.77 152.97 375.55 156.83 379.78 157.68C380.36 157.79 381.37 158.88 381.08 159.32C380.84 159.67 379.91 160.32 379.46 160.43C374.71 161.54 372.34 166.15 372.31 170.82C372.25 181.21 381.48 180.96 380.99 182.59C380.52 184.16 372.7 184.81 372.26 193.3C371.95 199.42 375.04 203.8 381.72 206.05C374.86 208.86 371.4 213.45 372.38 220.08C373.31 226.29 378.83 229.88 385.18 229.14C390.54 228.52 394.42 223.99 394.87 218.83C395.64 209.94 386.89 207.18 386.15 206.3C385.2 205.19 396.13 203.7 394.8 192.99C393.45 182.12 380.63 183.5 387.52 181.37C392.13 179.93 394.83 175.6 394.84 170.83C394.84 165.97 392.06 161.68 387.31 160.37C386.86 160.24 386.13 159.52 386.1 159.08C385.96 157.31 393.03 157.23 394.14 151.07C394.23 150.62 395.13 149.82 395.5 149.94C397.14 150.46 397.03 157.25 405.71 158.5C411.23 159.29 416.37 155.66 417.73 150.72C417.86 150.24 418.91 149.61 419.15 149.84C420.03 150.63 421.63 158.55 430.46 158.69C435.75 158.78 440.28 154.97 441.54 150.51C441.71 149.94 443.31 149.95 443.44 150.33L444 152.07C445.4 156.38 450.09 158.77 454.31 158.65C463.23 158.4 464.19 150.88 465.49 150.16C465.87 149.94 466.88 150.75 467.03 151.18C469.77 158.68 474.77 156.84 475.02 158.96C475.07 159.35 474.35 160.2 473.76 160.37C469.03 161.74 465.91 166.54 466.38 171.84C467.16 180.98 474.73 180.95 475.05 182.57C475.32 183.94 465.45 185.19 466.34 195.48C467.19 205.26 475.93 204.85 474.99 206.27C474.84 206.51 474.27 207.18 473.94 207.27C469.65 208.53 466.4 212.78 466.38 217.52C466.35 221.19 467.37 224.24 469.83 226.45C472.53 228.89 475.56 229.43 479.32 229.11C484.72 228.64 488.53 223.94 488.91 218.83C489.29 213.6 486.05 208.82 481.25 207.23C480.81 207.08 480.08 206.2 480.33 205.97C481.71 204.67 487.29 203.65 488.66 197.17C489.9 191.29 486.88 185.47 481.36 183.84C480.86 183.69 480.02 182.56 480.34 182.28C481.7 181.13 488.93 179.5 488.91 171.05C488.91 166.79 486.82 162.53 482.6 160.81C481.91 160.54 480.16 160.05 480.18 159.29C480.21 158.15 481.93 157.74 482.76 157.38C487.2 155.44 489.21 151.1 488.95 146.48C488.71 142.27 485.83 138.14 481.51 136.73C481.11 136.6 480.51 136.12 480.3 135.84C480.09 135.57 480.9 134.68 481.46 134.5C486.37 132.91 489.96 127.39 488.78 121.73C487.25 114.32 482.29 113.87 480.49 112.24C478.99 110.87 488.53 109.89 488.92 101.06C489.13 96.3401 487.18 91.7901 482.49 89.9001C481.44 89.4901 480.25 88.7201 480.31 87.5701C484.6 86.3401 487.87 83.3001 488.7 79.0901C490.02 72.4101 485.83 66.1801 479.47 65.2501C473.01 64.2901 467.19 68.5201 466.51 75.2001C465.98 80.4901 468.47 85.5001 473.7 87.0001C474.15 87.1301 474.88 87.6001 474.94 87.9901C475.26 89.7801 467.14 90.1501 466.4 98.8401C465.43 110.03 475.93 110.51 474.99 112.17C474.28 113.43 466.42 114.46 466.31 123.52C466.19 134.05 475.97 134.04 475 135.88C474.86 136.15 474.34 136.61 473.93 136.71C466.9 138.49 467.79 145.31 465.44 144.41C465 144.24 464.48 143.4 464.26 142.73C462.82 138.31 458.37 135.89 453.87 135.96C449.82 136.03 445.4 138.5 444 142.64C443.75 143.38 443.27 144.29 442.78 144.46C442.3 144.63 441.2 143.72 441.04 143.19C439.56 138.59 435.21 135.92 430.54 135.87C426.1 135.82 421.66 138.67 420.16 143.11C419.99 143.61 419.45 144.25 419.1 144.44C418.76 144.63 417.63 143.84 417.49 143.35C416.24 139.16 411.66 135.68 407.03 135.81C402.39 135.93 397.95 138.59 396.67 143.26C396.55 143.69 395.82 144.4 395.42 144.53C393.59 145.18 394.26 138.08 386.31 136.19C385.74 135.1 387.19 134.22 388.27 133.83C392.77 132.21 394.96 127.73 394.87 123.31C394.69 114.8 387.37 113.07 386.4 112.22C384.69 110.72 395.24 109.75 394.91 99.6601C394.58 89.6701 384.81 89.1901 386.23 87.7501C387.41 86.5501 392.51 86.1201 394.29 80.2501C396.34 73.4601 392.81 66.7401 386.22 65.2901C379.47 63.8001 372.96 68.1701 372.36 75.2001C371.44 85.8301 381.31 86.8501 380.87 88.0501C380.79 88.2501 380.54 88.4701 380.18 88.7101H347.57C347.52 88.7101 347.47 88.7101 347.41 88.7001C345.36 88.5701 343.79 88.6701 341.87 89.4001C339.22 90.4001 336.79 92.7601 335.98 95.4601C335.82 95.9801 335.18 97.5201 335.18 100.98L336.21 105.02C336.34 105.55 336.7 106.04 337 106.49H336.97Z" fill="#90BEFA"/>
<path d="M19.17 236.52C18 235.28 16.66 234.5 15.15 233.84C14.2 233.43 13.26 233.34 12.23 233.28C10.18 233.15 8.61 233.25 6.69 233.98C4.04 234.98 1.62 237.34 0.8 240.05C0.64 240.57 0 242.11 0 245.57L1.03 249.61C1.16 250.14 1.52 250.63 1.82 251.08C2.61 252.26 3.4 253.07 4.6 253.82C5.81 254.57 7.05 255.17 8.45 255.49C9.51 255.73 10.54 255.92 11.62 255.79C13.17 255.6 14.68 255.35 16.06 254.6C17.37 253.9 18.67 253.11 19.59 251.97C20.47 250.89 21.15 249.79 21.71 248.55C22.1 247.71 22.11 246.78 22.28 245.89C22.38 245.35 22.49 244.81 22.45 244.21C22.25 241.37 21.11 238.58 19.16 236.52H19.17Z" fill="#90BEFA"/>
</svg>
