<svg width="171" height="229" viewBox="0 0 171 229" fill="none" xmlns="http://www.w3.org/2000/svg">
<path d="M166.392 102.06C165.372 101.36 164.182 100.41 163.082 99.92L157.202 97.33L153.392 96.06C150.862 95.21 148.552 94.3699 145.852 94.1C143.532 93.8699 141.462 92.65 139.172 92.24L131.322 90.81L128.162 90.15C123.562 89.19 118.912 89.91 114.402 91.07C112.752 91.49 111.302 91.75 109.892 92.74L105.932 95.54C105.172 96.07 104.832 97.35 104.332 98.09C103.172 99.7999 102.872 101.63 102.142 103.56L99.9718 109.26L98.4218 115.94C98.0218 117.67 97.8118 119.29 97.8718 121.09C97.8918 121.68 97.7218 122.4 97.7018 122.98C97.6118 125.37 97.6418 127.67 97.7318 130.04C97.8918 133.99 98.8318 137.64 99.4618 141.53L100.152 145.7C100.452 147.53 101.222 149.09 102.082 150.7C102.522 151.51 102.782 152.41 103.112 153.28C103.592 154.54 104.302 155.7 104.922 156.9C106.022 159.06 107.372 161.4 108.882 163.26L110.402 165.14C113.172 168.56 120.792 174.08 125.292 174.87L128.172 175.37C130.422 175.77 132.572 176.18 134.802 176.72C135.632 176.93 136.282 178.39 136.312 179.14L136.442 183.9L137.002 189C137.182 190.68 137.652 192.38 137.752 194.05C137.882 196.21 137.932 198.22 138.252 200.37C138.402 201.42 138.462 202.45 138.542 203.53C138.612 204.56 139.112 206.67 137.842 207.04C137.532 207.13 136.822 206.95 136.562 206.7C135.192 205.42 133.902 204.19 132.692 202.81L130.412 200.19C128.602 198.11 127.842 195.45 127.642 192.73C127.002 190.18 126.562 187.74 125.492 185.37C123.432 180.84 120.392 176.98 116.192 174.28C115.292 173.69 114.102 173.43 113.302 172.76C111.322 171.09 108.872 170.63 106.372 170.37C102.712 169.98 99.4518 171.69 97.1318 174.38C95.6718 176.06 95.0518 177.72 95.0518 179.98C95.0518 182.24 95.6518 184.14 97.2118 185.91C98.6318 187.54 100.372 188.78 102.602 189.35C104.662 189.88 106.622 190.89 107.642 192.94C108.122 193.9 108.022 195.25 108.282 196.29L110.062 203.32C110.452 204.82 110.932 206.27 111.722 207.54C113.172 209.84 116.152 213.98 117.942 215.88C119.362 217.39 120.722 219 122.402 220.22L125.932 222.81L127.842 224.06C130.922 226.08 134.142 227.86 137.922 228.41C139.682 228.57 141.082 228.57 142.732 228.43C145.432 227.7 148.302 227.02 150.572 225.28C152.282 223.97 155.182 220.92 156.122 218.89C156.652 217.76 157.222 216.66 157.582 215.48C158.852 211.3 158.762 206.66 158.632 202.28C158.612 201.7 158.472 200.98 158.432 200.38L158.012 195.1C157.712 191.43 156.422 188.25 155.902 183.34C155.682 181.35 155.212 179.46 155.342 177.45C155.422 176.22 155.242 175.08 154.852 173.91L152.112 165.49C151.882 164.82 151.722 164.05 151.572 163.39L150.492 162.77L147.362 159.97C146.422 159.14 145.492 158.49 144.202 158.27L138.082 157.25L134.902 157.01C132.952 156.86 130.852 156.36 129.122 155.5C127.822 154.85 126.762 153.9 125.532 153.14C124.502 152.52 124.252 151.19 123.682 150.19C122.472 148.09 121.852 145.91 120.902 143.67L119.372 140.03C118.972 139.1 117.472 131.03 117.332 129.63C116.752 123.29 118.002 118.53 120.192 112.67C121.112 110.21 122.772 109.75 125.422 110.21L130.292 111.05L135.092 112.07C137.892 112.66 140.722 112.94 143.462 113.82C145.362 114.43 147.062 115.32 149.062 115.57C149.702 115.65 150.262 115.87 150.872 116.05C152.362 116.49 154.142 115.97 155.692 116.3L158.312 116.83C161.402 117.46 164.502 117.55 167.412 116.29C173.302 113.75 168.872 105.58 166.432 102.04L166.392 102.06Z" fill="black"/>
<path d="M61.3218 130.28C60.9518 129.3 60.4218 128.37 59.9718 127.41L55.6018 118.29C54.0418 115.03 52.9418 111.67 52.1618 108.12C51.7418 106.22 51.6718 104.35 51.7418 102.42C51.8118 99.9799 51.5618 97.6899 51.4018 95.2799L51.1818 92.1099C51.0818 90.7199 51.1118 89.2999 51.1818 87.8999L51.3618 84.7299C51.6818 79.27 53.2218 73.1799 52.7118 68.4099C52.5418 66.8099 52.5818 65.3199 52.7918 63.7199C52.9318 62.6899 52.6518 61.5799 52.6418 60.5699L52.5618 51.0999C52.5418 49.1299 52.1018 49.5799 52.2818 45.5799C52.3718 43.5899 51.3818 41.4599 50.1218 39.9399C48.6718 38.1999 46.8418 37.0399 44.8118 36.1799C42.7718 35.3099 40.6418 35.8899 38.7018 36.7699C37.1318 37.4899 36.0418 38.4999 34.9418 39.7699C33.9318 40.9299 32.8518 41.9299 32.7018 43.6699C32.5418 45.5499 32.5918 47.5499 32.7218 49.5099C32.8818 51.8399 32.7918 54.1499 32.7218 56.4799L32.5418 62.2599L32.0918 68.7399L31.9218 71.0799L31.7518 73.8099L31.6118 77.0299L31.4618 84.2999C31.4418 85.4899 31.4318 86.5399 31.4618 87.7299L31.6018 93.1499L31.7918 95.2699L32.3618 99.0599C32.9218 102.84 33.8118 106.4 34.8218 110.06L35.8318 113.73C37.1118 118.39 40.8518 123.45 41.5618 129.21C41.7418 130.71 41.6518 132.35 41.5618 133.88L41.3518 137.22C41.1718 140.01 40.6718 142.62 40.0518 145.35L38.9918 150.02C38.5618 151.93 38.4318 153.9 38.1518 155.87L37.7818 158.43C37.1818 162.63 41.1818 166.79 44.5618 168.7C46.4518 169.76 49.0018 169.8 50.9618 168.92C53.2218 167.9 55.1018 166.18 56.4818 164.17C57.6118 162.51 57.8318 160.52 58.0818 158.56C58.5418 155 59.2618 151.5 60.4318 148.11C61.1718 145.99 61.5218 143.98 61.9518 141.79C62.4118 139.45 62.7718 137.3 62.2018 134.88C61.8518 133.41 61.8618 131.73 61.3018 130.29L61.3218 130.28Z" fill="black"/>
<path d="M25.8516 3.15C24.8016 2.28 23.6016 1.64 22.2216 1.51L17.5816 0C16.2716 0.47 15.2116 0.88 14.0016 1.42C13.0116 1.88 11.6416 2.15 10.8216 2.83C8.96157 4.36 7.54156 5.55 5.34157 6.67C4.81157 6.94 3.93157 7.32 3.51157 7.75C2.04157 9.29 0.901565 11.22 0.171565 13.22C-0.568435 15.27 1.27157 18.3 2.15157 20.3C2.61157 21.36 3.25156 22.24 4.11157 23.01C4.94157 23.76 5.78157 24.62 6.83157 25.11C9.50157 26.38 11.6416 27.17 14.6316 27.58C18.1416 28.06 19.6116 26.98 23.0316 25.97C24.4916 25.53 25.6316 24.62 26.8216 23.66C29.2516 21.72 30.7016 18.93 31.2216 15.85C31.9016 11.92 31.2616 8.13 28.3716 5.23C27.6216 4.47 26.7016 3.83 25.8516 3.12V3.15Z" fill="black"/>
</svg>
