<svg width="746" height="255" viewBox="0 0 746 255" fill="none" xmlns="http://www.w3.org/2000/svg">
<g clip-path="url(#clip0_2559_8432)">
<mask id="mask0_2559_8432" style="mask-type:luminance" maskUnits="userSpaceOnUse" x="0" y="0" width="746" height="255">
<path d="M745.17 0H0V254.02H745.17V0Z" fill="white"/>
</mask>
<g mask="url(#mask0_2559_8432)">
<path d="M371.13 216.4C371.08 218.4 369.81 220.49 369.23 222.38L367.36 228.26C366.89 229.79 365.52 231.3 364.86 232.8C362.72 237.44 356.95 243.32 352.64 246.27C350.55 247.69 348.35 248.81 346.11 250.18C344.26 251.3 341.92 251.68 339.75 252.22C331.24 254.34 322.04 252.77 314.56 248.23L310.55 245.81C308.95 244.82 307.38 243.94 305.71 242.97C303.62 241.73 301.2 240.35 298.6 241.6C296.92 242.4 295.03 243.95 293.94 245.61C292.72 247.5 293.31 250.92 291.47 252.27C290.75 252.79 288.85 253.09 288.06 252.62C286.01 251.4 286.52 248.73 286.56 246.81L286.84 235.69C286.86 234.67 286.86 233.74 286.82 232.7C286.65 227.79 286.79 222.97 286.79 218.03V214.77L286.61 196.51C286.59 194.61 285.66 192.65 287.46 191C288.78 189.78 291.77 190.23 292.45 192.25C293.27 194.67 293.12 197.32 293.77 199.76L296.83 211.06C297.53 213.71 298.55 216.08 299.72 218.55C302.88 225.26 305.51 230.33 310.77 235.54C317.13 241.85 326.91 245.42 335.91 243.48C338.75 242.86 344.32 239.66 346.36 237.17C349.96 232.78 352.25 229.56 353.29 223.97C354.12 219.45 354.41 215.02 353.62 210.37L352.55 203.98C352.03 200.89 351.26 198.47 349.85 195.78C345.58 187.77 341.97 182.54 335.13 176.43L331.94 173.58C329.8 171.68 327.67 169.92 325.36 168.15L319.93 163.99L316.26 161.23C307.45 154.65 298.53 147.39 294.04 137.48L291.55 131.95C290.3 129.18 289.11 126.73 288.44 123.75C287.46 119.36 285.79 110.5 286.61 106.34L288.51 96.6896C289.13 93.5696 289.91 91.0996 291.51 88.4296C294.53 83.4396 294.63 82.8896 298.92 78.5996C302.89 74.6396 307.42 71.9096 312.89 70.4896C318.21 69.1096 325.98 68.3696 331.03 70.0596C333.43 70.8596 335.95 71.4396 338.21 72.5596C340.6 73.7596 343.03 75.2296 345.14 76.7496C347.48 78.4396 349.23 80.0196 352.5 79.6496C353.67 79.5196 355.45 78.9796 356.01 77.6096L358.41 71.5996C359.09 69.8796 361.37 68.8096 362.78 69.8996C365.28 71.7896 363.93 74.4196 363.77 76.9396C363.45 81.5996 363.39 89.3096 363.87 94.0196C363.47 95.9896 363.79 98.2896 363.84 100.41L364.17 117.77C364.24 121.66 365.81 129.24 361.4 128.84C360.15 128.72 358.65 127.85 358.33 126.34L355.34 112.17L351.57 102.27L348.61 96.9296C346.07 92.3096 343.99 89.6996 339.95 85.9596C338.26 84.4096 336.49 83.3196 334.44 82.2496C331.23 80.5596 328.01 78.9396 324.24 79.4496C322.61 79.6796 320.43 79.4696 318.73 80.1296C312.94 82.3696 307.8 87.0596 305.39 92.9696C303.92 96.5896 303.49 100.88 303.57 104.75C303.62 107.45 304.1 110.01 304.42 112.61C304.74 115.15 305.64 117.23 306.74 119.49C312.25 130.64 318.17 137.08 327.85 144.88L343.56 157.52L347.3 160.61C352.89 165.2 357.66 170.19 361.84 176.1C363.19 178.02 364.14 179.99 365.23 182.01C366.96 185.2 368.27 188.19 368.95 191.91C369.6 195.55 370.87 199.1 371.05 202.89C371.27 207.4 371.22 211.77 371.1 216.38" fill="#90BEFB"/>
<path d="M468.7 209.24L468.48 216.03C468.4 218.47 467.01 220.77 466.44 223.02C465.62 226.33 464.47 228.98 462.82 231.83C461.67 233.8 460.78 235.85 459.25 237.54C453.49 243.9 452.66 244.73 445.21 249.18C439.9 252.35 431.74 253.84 425.65 252.89C422.29 252.36 418.82 251.77 415.82 250.2C413.7 249.1 411.6 248.05 409.54 246.81L403.11 242.92C399.82 240.95 396.87 240.28 393.74 242.97C388.3 247.64 391.82 250.37 388.58 252.47C387.71 253.02 385.74 252.97 385.02 252.25C382.77 249.95 384.37 246.02 384.29 243.62C384.19 241.03 383.77 238.65 384.19 236.16C384.66 233.42 383.62 227.3 384.16 221.2C384.43 218.03 384.21 215.14 384.16 211.97L383.89 196.01C383.86 194.19 383.47 192.09 385.26 190.77C385.96 190.25 387.76 190.19 388.58 190.72C389.35 191.22 390.15 192.59 390.3 193.67L390.88 197.99C391.35 201.58 392.55 204.98 393.43 208.47C394.93 214.31 397.5 219.89 400.42 225.16C403.26 230.33 406.63 234.91 411.64 238.46C418.1 243.03 427.66 245.85 435.34 242.78C437.54 241.89 439.73 240.53 441.68 239.17C444.13 237.48 445.54 234.68 447.24 232.36C448.68 230.39 449.74 228.5 450.16 226.05C450.86 221.89 451.88 215.95 451.18 211.56L449.81 203.15C449.44 200.81 448.86 199.06 447.84 196.99C444.07 189.43 439.43 182.57 433.1 176.91C426.19 170.77 419.23 165.23 411.75 159.88C410.11 158.7 408.74 157.23 407.24 155.96C402 151.5 396.73 145.18 392.77 139.54C391.19 137.29 390.22 134.93 389.06 132.43C387.84 129.78 386.67 127.52 386.04 124.6C384.67 118.49 382.92 112.31 384.14 105.92L386.56 93.3199C386.81 92.0499 387.74 90.6999 388.33 89.5499C392.69 81.0199 399.78 73.4399 409.25 70.7699C416.09 68.8299 423.35 68.2799 430.23 70.5699C434.37 71.9599 438.29 73.5199 441.88 76.2999C444.67 78.4699 447.54 80.7099 451.51 79.2599C452.55 78.8899 453.61 77.1699 454.06 76.0399L455.98 71.0999C456.48 69.8499 458.22 69.3099 459.44 69.5599C463.14 70.3299 461.01 77.1699 460.99 77.6699C460.76 82.2899 461.01 86.7499 461.07 91.3899L461.39 115.58L461.76 122.04C461.86 123.98 462.16 126.05 461.11 127.9C460.74 128.57 459.09 128.92 458.32 128.82C455.45 128.47 455.01 123.73 454.61 121.36L453.99 117.69C452.92 111.38 449.82 103.77 446.75 98.1399C442.81 90.9299 437.9 84.9499 430.19 81.3999C427.44 80.1299 424.63 79.0099 421.51 79.4299C419.29 79.7099 416.74 79.6499 414.7 80.6799C411.55 82.2999 408.59 84.3999 406.39 87.1599C401.75 92.9499 402.1 94.5899 400.98 101.42C400.53 104.22 401.55 112.34 402.32 114.94C403.71 119.65 406.38 123.75 408.88 127.88C410.87 131.17 417.43 138.45 420.42 140.85L434.12 151.9L443.57 159.71C448.78 164.02 453.72 168.46 457.59 174.03C458.57 175.43 459.99 177 460.73 178.42L464.3 185.36C465.35 187.41 465.82 189.83 466.35 192.15C467.17 195.79 468.28 199.39 468.44 203.15L468.67 209.23L468.7 209.24Z" fill="#90BEFB"/>
<path d="M85.7 170.79L82.16 188.9C81.68 191.34 80.07 193.61 79.29 195.98C77.14 202.42 73.46 207.75 68.37 212.29C66.83 213.66 64.73 214.56 62.98 215.66C60.66 217.13 58.49 217.8 55.79 218.18C45.99 219.62 39.65 218.75 31.02 213.77C23.49 209.43 15.14 198.41 11.71 190.44L8.56 183.14C7.12 179.8 6.47 176.23 5.34 172.71C3.34 166.53 2.85 160.22 1.73 153.85C0.76 148.22 0.59 142.88 0.31 137.17L0 131.2L0.3 124.42C0.47 120.55 0.57 116.94 1.05 113.14L1.78 107.36L3.1 98.7301C4.52 89.4101 9.29 74.5801 13.43 66.2301C14.41 64.2401 15.22 62.2101 16.4 60.3501L19.39 55.6601C23.41 49.3201 26.5 45.8401 32.55 41.3201C35.9 38.8201 39.33 37.4601 43.25 36.3001C46.62 35.3001 49.78 34.9001 53.25 35.5801C57.59 36.4201 61.33 37.8501 64.97 40.3401C66.27 41.2401 67.97 41.7901 69.19 42.9601C70.93 44.6001 74.06 45.9301 76.15 43.9801C78.19 42.0801 77.39 36.0201 81.04 36.4001C81.92 36.5001 83.66 37.8401 83.66 38.9901L83.76 76.1601C84.28 78.5501 84.04 80.8001 84.19 83.2401C84.36 86.2501 85.04 89.4301 84.06 92.4101C83.51 94.0301 80.34 94.0901 79.49 92.6601C77.87 89.9701 78.34 82.8001 75.72 75.2201L73.32 68.3101C72.15 64.9201 68.58 58.7501 66.18 55.8901C64.19 53.5201 61.52 51.2701 58.75 49.8001C56.85 48.8001 54.44 48.4101 52.32 47.8301C49.31 46.9901 46.24 48.0501 43.41 49.4301C34.36 53.8501 27.99 67.9901 25.97 77.5901C25.2 81.2101 23.88 84.7201 23.35 88.3701L21.8 99.2401C21.53 101.13 21.57 103.26 21.4 105.18L20.97 110L20.62 114.42L20.27 123.77C20.14 127.66 19.89 131.6 20.25 135.49L22.25 157.42C22.67 162.03 23.52 166.45 24.79 170.84C25.69 173.94 26.16 177.25 27.63 180.04C28.86 182.39 29.72 184.56 30.78 187.02C32.9 191.91 38.63 199.01 43.32 201.51C45.67 202.78 48.19 203.71 50.61 204.63C53.57 205.75 56.27 205.21 59.14 204.06C68.84 200.2 70.91 196.26 74.91 187.52C76.25 184.63 77.21 181.93 77.8 178.77L79.74 168.39C79.96 167.17 80.71 165.99 81.56 165.58C82.74 165 84.33 164.98 85.27 166.11C86.24 167.31 86.02 169.2 85.72 170.78" fill="#90BEFB"/>
<path d="M552.54 119.33C551.24 121.82 542.74 120.6 539.54 120.58L505.75 120.5C501.89 120.48 498.11 121.59 494.62 119.5C493.88 119.07 493.15 117.46 493.33 116.73C493.48 116.08 494.63 114.91 495.33 114.9L502.04 114.68C504.59 114.6 507.38 112.74 507.95 110.31C508.72 107.02 507.2 104.02 505.66 101.28L501.62 94.0998L497.46 86.3098L493.62 78.9298L490.48 73.2898L486.39 65.8098L482.12 57.6598L479.12 52.2198L474.78 44.1898L471.44 37.8798L467.53 30.6398C466.09 27.9898 464.91 25.3498 463.37 22.7598L459.76 16.6698C457.64 13.0798 454.68 9.47977 450.46 8.05977C447.99 7.23977 444.68 6.53977 442.16 6.63977C439.12 6.76977 435.95 7.15977 434.45 3.94977C434.18 3.37977 433.92 1.90977 434.25 1.37977C434.57 0.879766 435.38 0.409766 436.04 0.00976562H438.41C438.41 0.00976562 438.93 0.429766 439.01 0.429766H483.51C483.61 0.429766 484.13 0.0597656 484.13 0.00976562H489.29L490.14 0.339766C491.32 0.769766 492.54 1.55977 493.04 2.55977C493.51 3.52977 493.41 5.42977 492.62 6.00977C491.05 7.20977 489.33 6.74977 487.56 6.54977C484.57 6.19977 480.82 7.21977 479.06 9.75977C477.76 11.6598 478.46 14.4198 479.43 16.2498L482.5 22.0398L486.39 29.3498L490.48 36.8598L493.82 43.0898L497.89 50.6498L501.56 57.4298L505.38 64.3598C506.37 66.1298 507.18 67.8198 508.18 69.5798L510.87 74.3898L514.99 82.2498L518.31 88.5598L522.15 95.5198L525.96 102.06C528.06 105.72 529.43 108.84 533.5 111.43C543.57 117.79 548.87 112.52 552.23 116.32C552.88 117.07 552.9 118.57 552.5 119.34" fill="#90BEFB"/>
<path d="M745.17 207.58V213.99L744.75 216.81C744.37 219.37 743.21 221.73 742.63 224.12C741.86 227.26 740.81 229.71 739.24 232.4C738.04 234.45 737.04 236.51 735.52 238.34C731.46 243.23 726.84 247.14 721.22 250.09C718.63 251.44 716.23 252.58 713.31 253.06C710.09 253.59 706.97 254.34 703.7 253.84C700.46 253.34 697.11 253.09 694.12 251.77C691.37 250.58 688.66 249.23 686.17 247.71L679.18 243.45C676.68 241.93 673.49 241 671 243.07C665.59 247.58 668.21 245.84 665.96 252.02C665.43 253.49 663.42 253.96 662.24 253.47C660.91 252.94 660.12 251.55 660.22 250.02L660.59 244.34C660.74 242.04 659.96 239.65 660.47 237.33C661.15 234.18 659.84 228.33 660.49 221.71C660.79 218.62 660.54 215.73 660.49 212.65L660.22 196.76C660.19 195.11 659.8 193.31 661.07 191.85C661.67 191.15 663.71 190.91 664.61 191.37C665.39 191.77 666.46 193.02 666.6 194.09L667.2 199.15C667.94 205.19 672.26 217.18 675.26 223.1C678.88 230.21 682.87 236.25 689.82 240.44C691.81 241.64 693.98 242.48 696.13 243.39C700 245.03 708.32 245.38 712.69 243.07C719.85 239.31 719.37 238.98 723.57 233.17C724.99 231.18 726.06 229.32 726.48 226.84C726.75 225.26 727.25 223.49 727.4 221.88C727.72 218.48 728.03 214.97 727.45 211.6L726.12 203.94C725.74 201.79 725.32 199.97 724.3 198.06L720.94 191.78C719.56 189.18 716.55 185.29 714.55 182.95C711.91 179.86 708.93 177.14 705.85 174.5L702.19 171.36L696.57 166.92C692.98 164.08 689.06 161.74 685.7 158.57L678.12 151.39C675.75 149.15 673.9 146.55 671.86 143.98C665.68 136.17 667.87 137.5 664.15 130.54C661.76 126.05 659.46 111.78 660.51 106.37L662.81 94.4296C663.08 92.9996 663.98 91.5896 664.65 90.3196C669.24 81.4196 676.23 74.0396 686.18 71.3596C689.69 70.4096 693.02 69.7596 696.75 69.8896C699.47 69.9896 702.21 69.8896 704.76 70.7396C707.23 71.5796 709.92 72.1396 712.19 73.3396C714.71 74.6696 717.01 76.1296 719.33 77.8096C721.82 79.6296 725.14 81.6096 728.24 79.7096C731.23 77.8696 730.66 72.7696 733.62 70.5096C734.27 70.0296 736.22 70.0396 736.77 70.6396C738.64 72.6096 738.07 75.1296 737.47 77.4696C736.82 80.0696 737.4 82.8796 737.34 85.4596C737.26 87.8296 737.39 89.9996 737.42 92.3896L737.69 115.56L738.09 122.77C738.19 124.77 738.74 127.06 737.2 128.8C735.97 130.2 733.73 129.54 732.59 128C731.39 126.38 731.34 124.08 730.99 122.04L730.1 117.03C729.57 113.98 728.65 111.34 727.4 108.53C726.48 106.49 725.95 104.12 724.9 102.19L721.89 96.7296C719.3 92.0196 715.56 87.9296 711.12 84.7296C708.97 83.1596 702.17 79.7096 699.19 79.9696C696.89 80.1896 694.52 80.2896 692.43 80.9196C687.22 82.4896 683.42 86.5596 680.51 90.8996C679.14 92.9496 678.46 94.9396 678.06 97.3596L677.38 101.5C677.1 103.27 677.1 105.06 677.31 106.83L678.1 112.92C678.38 115.17 679.03 117.33 680.07 119.36L682.26 123.62L686.77 130.78C687.47 131.92 688.74 133.1 689.64 134.22C691.39 136.41 693.31 138.26 695.37 140.13L699.73 144.12L708.28 150.85L723.4 163.34C728.34 167.43 736.5 176.63 738.86 182.75C739.31 183.92 740.58 185.32 740.96 186.49C742.65 191.7 744.8 200.18 744.83 205.55C744.83 206.33 744.95 207.05 745.2 207.52" fill="#90BEFB"/>
<path d="M647.46 205.2L643.99 222.93C643.56 225.15 642.3 227.17 641.57 229.26C638.62 237.62 633.74 245.7 625.61 249.81C623.49 250.88 621.39 252.38 619 252.66L614.26 253.23C610.87 253.65 607.77 253.76 604.46 253.05C602.26 252.55 599.85 252.18 597.88 251.16L593.37 248.79C587.96 245.97 580.28 237.82 577.51 232.77L573.25 224.99L570.25 217.98C569.33 215.84 568.85 213.45 568.15 211.2C566.98 207.53 565.78 204.02 565.21 200.17L562.26 180.02L562.01 172.21C561.88 168.05 561.71 163.85 561.93 159.61L562.25 153.18C562.63 145.67 564.72 133.6 566.16 125.97C566.54 123.92 567.53 121.9 568.05 119.93C569.89 112.87 575.08 99.4696 578.98 93.5896C585.24 84.1796 586.13 82.1096 595.42 75.1796C598.06 73.2096 600.86 72.2896 603.98 71.3096C607.7 70.1296 611.17 69.6196 615.06 70.3396C619.42 71.1296 623.12 72.6796 626.81 75.0496C628.61 76.2196 630.33 77.2496 632.13 78.6196C633.1 79.3696 634.67 79.7696 636.02 79.6996C637.07 79.6296 638.49 78.3796 638.86 77.0996L640.05 72.9096C640.3 72.0396 641.67 71.1096 642.45 71.1596C645.42 71.2896 645.71 74.6796 645.46 77.2396C645.08 81.1596 645.21 84.7496 645.28 88.6396L645.66 111.81L646.03 120.39C646.08 121.66 647.35 128.39 643.71 128.49C640 128.61 640.04 124.03 639.69 120.61C639.22 115.92 638.02 111.85 636.57 107.42C634.38 100.79 631.53 94.3696 626.59 89.3096C624.69 87.3596 622.27 85.1996 619.8 84.2496C617.18 83.2496 614.23 82.1596 611.49 82.2296C609.12 82.2796 606.07 83.4996 604.15 84.6496C599.51 87.4396 596.52 91.6096 593.9 96.0696C593.32 97.0496 592.6 98.1096 592.2 99.0896L589.26 106.22C588.44 108.21 588.21 110.53 587.62 112.65C586.44 117.01 585.3 121.15 584.63 125.6L583.56 132.88C583.36 134.25 583.23 135.82 583.14 137.2L582.72 144.01L582.32 148.43C581.75 154.64 581.52 165.87 582.07 171.8L583.99 193.05C584.51 198.72 587.54 211.96 590.22 216.82C593.34 222.48 591.22 221.46 596.98 228.89C601.89 235.22 607.08 238.29 615.11 239.96C617.35 240.43 619.77 239.09 621.75 238.36C630.86 234.99 633.43 229.31 637.06 221.13C638.08 218.84 638.83 216.61 639.3 214.12L641.37 203.05C641.6 201.75 642.54 200.48 643.49 200.18C644.86 199.75 646.86 199.81 647.31 201.43C647.54 202.28 647.66 204.25 647.48 205.22" fill="#90BEFB"/>
<path d="M206.55 110C203.96 112.77 200.62 109.58 194.73 110.55C192.76 110.87 190.97 110.7 188.97 110.53C181.06 109.93 178.15 111.17 171.79 110.51C166.23 109.94 156.1 112.16 155.26 109.42C155.11 108.92 155.11 107.79 155.36 107.25C156.94 103.89 158.71 100.91 160.08 97.5701C161.08 95.1501 162.05 92.9101 163.1 90.5401L165.59 84.9501L169.31 76.6201C170.23 74.5801 171.35 72.7501 172.03 70.5601C172.6 68.7201 173.95 67.0901 174.7 65.3201C175.9 62.4801 176.79 59.7601 177.85 56.8101C178.32 55.5101 179.45 53.2901 180.94 53.2501C182.64 53.2001 183.46 55.3901 183.96 56.5901L187.27 64.6201L192.16 75.6401L196.58 85.2101L200.57 93.5901C201.49 95.5101 201.89 97.8101 202.92 99.6501L206.83 106.68C207.26 107.48 207.11 109.37 206.53 110M265.46 163.12C264.46 158.63 258.55 163.82 250.14 156.16C248.31 154.49 247.34 152.57 246.27 150.37L241.83 141.19L238.23 133.19L234.36 124.64L230.95 116.85C229.95 114.53 228.53 112.48 227.93 109.94C227.56 108.37 226.49 107.07 225.88 105.65L221.37 95.4001L217.58 86.7501L214.02 79.1201L210.85 72.2301L205.21 59.4401L199.9 47.5701L196.56 40.0801L193.32 32.8501L190.26 26.7101C187.86 21.8501 187.59 16.8401 184.82 16.8301C184.02 16.8301 182.77 17.8301 182.55 18.6301C181.85 21.0801 180.95 23.0401 179.93 25.2601L176.16 33.4201L172.49 41.8001C171.31 44.5001 170.14 47.0201 168.73 49.6801C167.7 51.6301 166.89 53.8001 166.03 55.8601L163.14 62.6201C160.44 68.9301 158.27 72.8901 155.58 79.1301L151.98 87.4801L147.67 96.7401C146.42 99.4101 145.47 102.22 144.18 104.87C142.86 107.58 141.92 110.18 140.59 112.92L137.9 118.48C136.88 120.55 136.3 122.65 135.35 124.72L130.96 134.32L126.07 145.22C124.92 147.76 123.12 150.21 121.45 152.45C119.41 155.19 116.83 157.56 113.75 158.76L107.68 161.15C106.39 161.65 105.63 162.92 105.68 164.24C105.81 167.58 111.54 166.81 113.56 166.61C119.05 166.06 124.51 166.73 129.92 166.56C133.66 166.46 137.2 166.29 140.84 166.6C144.06 166.87 147.3 166.85 150.69 166.82C151.47 166.8 152.53 165.74 152.86 165.1C153.21 164.43 153.14 162.63 152.56 162.11C150.86 160.61 148.37 160.91 146.12 160.78C143.48 160.63 140.33 158.88 138.71 156.79C135.4 152.47 138.86 144.55 140.81 140.26L145.3 130.36L148.19 124.22C149.63 121.15 151.69 121.15 154.87 121.17L210.57 121.25C214.14 121.25 216.55 129.63 217.36 131.37C218.6 133.99 219.7 136.29 220.7 138.91C223.44 146.12 228.71 154.27 220.85 159.41C217.11 161.85 216.29 160.34 211.65 160.98C210 161.2 209.25 162.57 209.05 163.9C208.4 168.24 216.98 166.74 220.92 166.62C231.34 166.3 241.67 166.29 252.08 166.62C256.1 166.75 259.92 166.95 263.9 166.74C265.53 166.66 265.75 164.32 265.48 163.15" fill="#90BEFB"/>
<path d="M265.46 230.57C264.66 237.1 262.36 237.71 262.04 243.71C261.87 246.85 259.99 249.35 256.56 249.5C252.99 249.65 249.27 249.68 245.68 249.42C242.01 249.14 238.57 248.92 234.8 249.57L141.48 249.55C139.41 249.55 137.26 248.77 135.44 249.57C128.81 248.83 119.85 249.2 113.19 249.39L99.8502 249.74C97.7502 249.81 95.4803 250.51 93.6203 248.81C92.9003 248.16 92.6503 246.22 93.1403 245.27C93.6602 244.22 95.1602 243.6 96.4902 243.58L106.81 243.48C111.18 243.45 114.86 241.36 116.76 237.32C117.51 235.7 118.41 233.78 118.46 231.91L118.69 222.01C118.77 218.97 119.04 216.22 118.67 213.16C117.92 206.8 120.49 202.81 117.55 195.47C115.36 190 110.39 188.08 104.48 187.62L99.3703 187.22C97.1503 187.05 94.7602 188.12 93.0602 186.19C92.1402 185.14 92.3603 182.87 93.2603 181.85C94.4303 180.51 96.1503 180.58 97.8303 180.63L108.78 181.01L150.13 181.13C154.27 181.13 164.62 178.31 163.83 184.5C163.1 190.34 148.74 185.33 143.73 189.31C142.08 190.63 139.52 194.07 139.52 196.44L139.49 234.28C139.47 237.77 144.8 243.33 151.83 242.76C153.18 242.64 154.83 243.16 156.25 243.16L209.6 243.01L224.49 242.66C228.73 242.56 232.49 241.44 236.44 240.34C239.25 239.54 241.45 238.79 243.87 237.23C246.59 235.51 249.11 233.79 251.43 231.54C256.17 226.95 259.69 221.79 262.63 216C263.65 213.98 267.25 213.68 268.29 215.57C269.88 218.42 266.32 223.63 265.45 230.58" fill="#90BEFB"/>
</g>
</g>
<defs>
<clipPath id="clip0_2559_8432">
<rect width="745.17" height="254.02" fill="white"/>
</clipPath>
</defs>
</svg>
