<svg width="524" height="424" viewBox="0 0 524 424" fill="none" xmlns="http://www.w3.org/2000/svg">
<g clip-path="url(#clip0_2554_4094)">
<mask id="mask0_2554_4094" style="mask-type:luminance" maskUnits="userSpaceOnUse" x="0" y="0" width="524" height="424">
<path d="M523.2 0H0V423.47H523.2V0Z" fill="white"/>
</mask>
<g mask="url(#mask0_2554_4094)">
<path d="M287.28 378.16H286.82C286.13 377.81 285.64 378.03 284.62 377.95C280.04 377.57 275 373.5 275 368.26L275.02 291.02C275.02 285.62 280.57 281.52 285.31 281.43C288.1 281.38 290.16 281.33 292.73 281.46C298.21 281.74 302.57 286.16 302.94 291.69V321.96L290.64 322L290.62 294.04C289.31 293.89 288.57 293.84 287.22 293.91V365.44C288.43 365.62 289.46 365.61 290.63 365.41V337.52H302.93V366.65C303.1 372.17 299.45 376.77 294.04 377.84C291.77 378.29 289.41 377.5 287.27 378.16" fill="#90BEFB"/>
<path d="M490.79 166.36V178.46C490.56 178.69 490.06 178.91 489.7 178.91H482.88V207.45L490.56 207.5V220.58C483.61 220.36 476.87 220.8 469.89 220.25V125.23C469.89 124.01 470.36 124.05 470.56 124.05H490.57V137.13L482.88 137.18V165.77H489.71C490.11 165.77 490.59 166.04 490.8 166.34" fill="#90BEFB"/>
<path d="M510.36 83.0099L510.34 90.2199H517.11C517.47 90.2199 517.96 90.4299 518.2 90.6499V103.05C518.06 103.13 517.54 103.33 517.26 103.33L510.32 103.36V110.42L517.7 110.49L518.2 111.14V123.29C517.86 123.53 517.36 123.7 516.84 123.7H498.16C497.68 123.7 497.3 123.32 497.3 122.79V69.9599L517.07 69.9199C517.47 69.9199 517.95 70.0499 518.21 70.1599V82.7999C517.95 82.8699 517.42 82.9799 517.11 82.9799L510.37 82.9999L510.36 83.0099Z" fill="#90BEFB"/>
<path d="M500.81 283.169C500.56 284.169 500.61 284.979 500.84 285.909H507.6C507.82 285.909 508.36 286.129 508.5 286.199V298.659C507.97 298.979 507.29 298.989 506.6 298.989L500.64 299.039L500.75 301.769H507.6C507.81 301.769 508.36 301.989 508.5 302.059V314.459C508.36 314.629 507.9 314.889 507.59 314.889L487.59 314.839V270.049L507.76 270.029C507.97 270.029 508.47 270.289 508.5 270.319V282.729C508.45 282.799 508.02 283.119 507.84 283.119L500.8 283.149L500.81 283.169Z" fill="#90BEFB"/>
<path d="M278 222.22V192.85L290.98 192.82L290.89 224.83C290.87 230.57 285.88 235.04 280.49 235.31C277.77 235.44 275.37 235.45 272.75 235.31C266.75 234.99 262.24 229.91 262.25 223.92L262.38 144.15C262.38 138.92 267.36 134.47 272.17 134.14C275.3 133.92 277.93 133.93 280.95 134.14C286.55 134.51 290.8 139.46 291 145.06L290.98 176.51H278.01L278 147.16C276.99 147.06 276.17 147.06 275.17 147.18V222.19L278 222.23V222.22Z" fill="#90BEFB"/>
<path d="M460.56 207.23L453.22 262.07L452.37 267.02L451.64 272.81L450.74 280.78L443.11 338.07H428.54L420.92 280.9L419.92 272.13L419.1 265.67L418.45 262.34L411.08 207.24L429.83 207.22L430.33 211.52L432.44 228.44L434.83 247.65L435.78 255.63C436.39 252.34 436.6 249.32 437.01 246.09L439.26 228.19L441.57 209.61L441.86 207.22H460.59L460.56 207.23Z" fill="#90BEFB"/>
<path d="M461.16 92.7098C460.62 94.0398 460.3 95.1198 460.02 96.3598L458.5 103.09L451.07 132.26L436.49 132.24L428.9 103.03C428.13 99.6498 427.56 96.5098 426.38 93.2498L418.88 64.5498L437.61 64.5298L443.69 89.5898L446.58 77.5998L449.65 64.5498H468.39L461.19 92.7198L461.16 92.7098Z" fill="#90BEFB"/>
<path d="M143.8 303.02L143.83 316.08L122.98 316.06V234.79L135.08 234.71C135.55 234.71 135.97 235.08 135.97 235.61V302.96L143.8 303.02Z" fill="#90BEFB"/>
<path d="M144.54 179.71C144.54 181.33 144.42 182.45 144.5 183.91L152.43 184.01L152.36 196.95L131.58 196.93V120.41L144.41 120.39C144.47 121.05 144.56 121.61 144.56 122.14L144.52 131.81V135.54L144.53 179.72L144.54 179.71Z" fill="#90BEFB"/>
</g>
<path d="M156.03 79.4002L156.04 91.8002L135.66 91.7902L135.67 54.6702L148.06 54.6602L148.07 79.3302L156.03 79.4002Z" fill="#90BEFB"/>
<mask id="mask1_2554_4094" style="mask-type:luminance" maskUnits="userSpaceOnUse" x="0" y="0" width="524" height="424">
<path d="M523.2 0H0V423.47H523.2V0Z" fill="white"/>
</mask>
<g mask="url(#mask1_2554_4094)">
<path d="M74.2601 228.16H71.4201V125.37H74.2601V228.16ZM87.1901 123.06C87.1901 117.36 82.2701 112.66 76.9901 112.35C73.9101 112.17 71.5501 112.14 68.4201 112.37C63.7001 112.73 58.6001 117.13 58.6001 122.36V231.04C58.5901 236.42 63.7201 240.83 68.6301 241.16C71.6201 241.36 73.8101 241.35 76.9401 241.16C82.3801 240.84 87.2001 236.06 87.2001 230.35V123.04L87.1901 123.06Z" fill="#90BEFB"/>
<path d="M49.1501 94.9598H46.4101V51.6098H49.1501V94.9598ZM62.0801 49.2498C62.0701 43.5498 57.0901 38.8098 51.6701 38.5598C48.8901 38.4298 46.5701 38.4198 43.8101 38.5598C38.2301 38.8398 33.3801 43.6998 33.3701 49.4898V97.0798C33.3701 102.72 37.9001 107.64 43.4001 107.97C46.4201 108.15 49.2901 108.22 52.3701 107.94C58.2901 107.39 62.1801 102.1 62.1701 96.3798L62.0801 49.2498Z" fill="#90BEFB"/>
<path d="M5 346.26V231.97C5.06 231.94 5.34 231.58 5.38 231.41C6.51 226.31 11.11 222.53 16.36 222.5L22.14 222.46C28.05 222.42 33.79 226.82 33.8 233.15L33.89 275.34C33.6 275.5 33.06 275.73 32.83 275.73L20.9 275.66V235.66C19.83 235.59 19.09 235.58 18.16 235.71V342.44C19.17 342.55 20.05 342.56 20.89 342.38V302.64L33.88 302.62L33.76 345.49C33.74 350.82 28.87 355.23 23.94 355.55C20.81 355.75 18.09 355.73 15.06 355.55C10.3 355.27 6.47 351.4 5.37 346.86C5.33 346.68 5.08 346.33 5.01 346.28" fill="#90BEFB"/>
<path d="M50.6202 405.84C51.7502 406.06 52.7002 406.03 53.9102 405.86V388.61H66.2402L66.2102 406.83C66.6102 413.59 61.1802 418.8 54.5802 418.46C52.1802 418.33 49.8902 418.62 47.4502 418.31C42.1802 417.65 38.1602 412.96 38.1602 407.55V364.79C38.1502 359.13 42.2602 354.17 47.9402 353.78C50.7702 353.58 53.5302 353.62 56.3802 353.78C61.6002 354.07 65.7302 358.45 66.2002 363.6L66.2202 383.49H53.9102L53.8902 366.11L50.6102 366.06V405.85L50.6202 405.84Z" fill="#90BEFB"/>
</g>
<path d="M234.39 207.91L234.41 236.47L242.25 236.51L242.23 249.51L221.41 249.49V153.07L242.24 153.04L242.25 166.08L234.4 166.22V194.74L242.24 194.8L242.26 207.83L234.39 207.91Z" fill="#90BEFB"/>
<mask id="mask2_2554_4094" style="mask-type:luminance" maskUnits="userSpaceOnUse" x="0" y="0" width="524" height="424">
<path d="M523.2 0H0V423.47H523.2V0Z" fill="white"/>
</mask>
<g mask="url(#mask2_2554_4094)">
<path d="M242.36 94.5398L234.47 94.6198V101.7L241.57 101.71C241.88 101.71 242.36 102.15 242.36 102.52L242.38 113.98C242.4 114.21 241.99 114.93 241.72 114.93L221.41 114.89V61.2598C222.83 61.0598 223.91 61.2198 225.13 61.2198L242.36 61.2398V74.1798L234.54 74.2498C234.37 76.5898 234.37 78.9598 234.47 81.4498L242.34 81.5098L242.37 94.5298L242.36 94.5398Z" fill="#90BEFB"/>
</g>
<path d="M242.07 360.68L234.21 360.78L234.26 363.48L242.08 363.56L242.09 376.61L221.15 376.62V331.78L242.08 331.79L242.06 344.84L234.19 344.93L234.31 347.62L242.08 347.69L242.07 360.68Z" fill="#90BEFB"/>
<mask id="mask3_2554_4094" style="mask-type:luminance" maskUnits="userSpaceOnUse" x="0" y="0" width="524" height="424">
<path d="M523.2 0H0V423.47H523.2V0Z" fill="white"/>
</mask>
<g mask="url(#mask3_2554_4094)">
<path d="M315.57 113.89L303.43 113.94C303.27 113.94 302.91 113.87 302.78 113.82C302.62 113.75 302.48 113.31 302.48 113V41.5201L296.25 41.4601V28.3901H321.83L321.85 41.4301L315.58 41.5201V113.89H315.57Z" fill="#90BEFB"/>
<path d="M334.44 303.13C334.52 301.72 334.47 300.56 334.47 299.29V284.15V280.45L334.43 266.16L328.36 266.14C328.26 265.24 328.15 264.34 328.16 263.45L328.21 253.05L353.76 253.03L353.79 266.09L347.45 266.19V282.54L347.43 322.25L334.43 322.23V303.12L334.44 303.13Z" fill="#90BEFB"/>
<path d="M329.14 196.33C328.08 196.33 327.12 196.4 325.91 196.15V168.37L319.65 168.26L319.68 155.21H345.23L345.25 168.26L339.01 168.34L338.98 196.23L329.14 196.32V196.33Z" fill="#90BEFB"/>
</g>
<path d="M392.27 239.89H379.18V321.06H392.27V239.89Z" fill="#90BEFB"/>
<path d="M392.27 105.63H379.18V182.24H392.27V105.63Z" fill="#90BEFB"/>
<mask id="mask4_2554_4094" style="mask-type:luminance" maskUnits="userSpaceOnUse" x="0" y="0" width="524" height="424">
<path d="M523.2 0H0V423.47H523.2V0Z" fill="white"/>
</mask>
<g mask="url(#mask4_2554_4094)">
<path d="M404.8 31.0298L404.78 42.1398L391.93 42.1198V5.00977H404.33V29.1698C404.65 29.7798 404.8 30.3698 404.8 31.0298Z" fill="#90BEFB"/>
<path d="M195.92 378.66V391.72L174.97 391.69V278.64L187.58 278.6C187.89 278.6 188.07 279.42 188.07 279.86V378.59L195.93 378.67L195.92 378.66Z" fill="#90BEFB"/>
<path d="M197.45 166.38L177.23 166.41C176.87 166.41 176.5 165.94 176.5 165.49L176.52 105.58L189.59 105.62V153.26L197.43 153.32L197.45 166.38Z" fill="#90BEFB"/>
<path d="M217.23 14.7896L217.33 25.1696C217.33 26.0296 217.26 26.8996 217.16 27.7796H196.52V6.03955H209.4L209.41 14.7596L217.22 14.7896H217.23Z" fill="#90BEFB"/>
<path d="M286.82 383.17C284.06 383.17 281.82 380.92 281.82 378.16C281.82 375.4 284.06 373.16 286.82 373.16H287.05C289.81 373.16 292.05 375.4 292.05 378.16C292.05 380.92 289.81 383.17 287.05 383.17C284.06 383.17 287.05 383.17 286.82 383.17Z" fill="black"/>
<path d="M284.21 382.93C281.46 382.7 279.41 380.29 279.64 377.54C279.87 374.78 282.28 372.74 285.04 372.97C287.79 373.2 289.83 375.61 289.6 378.36C289.39 380.97 287.2 382.95 284.63 382.95C284.49 382.95 284.35 382.94 284.21 382.93Z" fill="black"/>
<path d="M270 368.26C270 365.5 272.23 363.26 275 363.26C277.76 363.26 280 365.5 280 368.26C280 371.02 277.76 373.26 275 373.26C272.23 373.26 270 371.02 270 368.26Z" fill="black"/>
<path d="M270.01 342.51C270.01 339.75 272.25 337.51 275.01 337.51C277.77 337.51 280.01 339.75 280.01 342.52C280.01 345.28 277.77 347.52 275.01 347.52C272.24 347.52 270 345.28 270.01 342.51ZM270.02 316.77C270.02 314 272.26 311.77 275.02 311.77C277.78 311.77 280.02 314.01 280.01 316.77C280.01 319.53 277.77 321.77 275.01 321.77C272.25 321.77 270.02 319.53 270.02 316.77Z" fill="black"/>
<path d="M280.31 281.53C280.26 278.77 282.46 276.49 285.22 276.44C287.98 276.38 290.26 278.58 290.31 281.34C290.36 284.1 288.17 286.38 285.4 286.44H285.31C282.59 286.44 280.37 284.26 280.31 281.53Z" fill="black"/>
<path d="M292.48 286.459C289.72 286.319 287.6 283.969 287.74 281.209C287.88 278.449 290.23 276.329 292.99 276.469C295.74 276.609 297.86 278.959 297.72 281.719C297.59 284.389 295.38 286.469 292.73 286.469C292.65 286.469 292.56 286.469 292.48 286.469V286.459Z" fill="black"/>
<path d="M297.96 292.03C297.77 289.28 299.85 286.89 302.6 286.7C305.36 286.51 307.75 288.59 307.93 291.35C308.12 294.1 306.04 296.49 303.28 296.68C303.17 296.68 303.05 296.68 302.93 296.68C300.33 296.68 298.14 294.66 297.96 292.02V292.03Z" fill="black"/>
<path d="M297.94 321.97C297.94 319.2 300.18 316.97 302.94 316.97C305.7 316.97 307.94 319.2 307.94 321.97C307.94 324.73 305.7 326.97 302.94 326.97C300.18 326.97 297.94 324.73 297.94 321.97Z" fill="black"/>
<path d="M285.65 322.02C285.64 319.26 287.87 317.01 290.64 317C293.39 317 295.64 319.23 295.65 321.99C295.66 324.75 293.43 326.99 290.66 327H290.65C287.9 327 285.66 324.77 285.65 322.02Z" fill="black"/>
<path d="M285.63 294.05C285.63 291.29 287.86 289.05 290.63 289.05C293.39 289.05 295.63 291.28 295.63 294.04C295.63 296.8 293.4 299.04 290.63 299.04C287.87 299.04 285.63 296.81 285.63 294.05Z" fill="black"/>
<path d="M282.23 294.15C282.1 291.4 284.23 289.05 286.99 288.92C289.75 288.79 292.09 290.92 292.22 293.67C292.36 296.43 290.22 298.78 287.47 298.91H287.22C284.57 298.91 282.36 296.83 282.23 294.15Z" fill="black"/>
<path d="M282.23 329.68C282.23 326.92 284.46 324.68 287.23 324.68C289.99 324.68 292.22 326.92 292.22 329.68C292.22 332.44 289.99 334.68 287.23 334.68C284.46 334.68 282.22 332.44 282.23 329.68Z" fill="black"/>
<path d="M285.71 366.26C285.25 363.54 287.08 360.95 289.8 360.49C292.52 360.03 295.11 361.86 295.57 364.58C296.03 367.3 294.2 369.89 291.48 370.35C291.19 370.4 290.91 370.42 290.63 370.42C288.24 370.42 286.13 368.7 285.71 366.26Z" fill="black"/>
<path d="M285.64 337.529C285.63 334.769 287.87 332.529 290.64 332.529C293.4 332.529 295.64 334.769 295.64 337.529C295.64 340.289 293.4 342.529 290.64 342.529C287.88 342.529 285.64 340.289 285.64 337.529Z" fill="black"/>
<path d="M297.94 337.53C297.94 334.76 300.17 332.52 302.94 332.52C305.7 332.52 307.94 334.75 307.94 337.51C307.95 340.28 305.71 342.52 302.95 342.52C300.19 342.52 297.94 340.29 297.94 337.53Z" fill="black"/>
<path d="M297.95 366.659C297.95 363.889 300.18 361.649 302.94 361.649C305.7 361.649 307.94 363.889 307.94 366.659C307.94 369.419 305.71 371.659 302.94 371.659C300.18 371.659 297.95 369.419 297.95 366.659Z" fill="black"/>
<path d="M289.15 378.82C288.61 376.11 290.37 373.48 293.08 372.94C295.79 372.4 298.42 374.17 298.96 376.87C299.5 379.58 297.73 382.21 295.02 382.75C294.69 382.81 294.37 382.84 294.04 382.84C291.7 382.84 289.62 381.2 289.15 378.82Z" fill="black"/>
<path d="M282.5 379.64C281.69 377 283.17 374.2 285.81 373.39C288.45 372.57 291.24 374.05 292.06 376.69C292.87 379.33 291.39 382.13 288.75 382.94C288.26 383.09 287.76 383.16 287.27 383.16C285.14 383.16 283.16 381.78 282.5 379.64Z" fill="black"/>
<path d="M287.28 383.16H286.83C284.07 383.16 281.83 380.92 281.83 378.16C281.83 375.4 284.07 373.16 286.83 373.16H287.28C290.04 373.16 292.28 375.4 292.28 378.16C292.28 380.92 290.04 383.16 287.28 383.16Z" fill="black"/>
<path d="M485.79 178.46C485.79 175.7 488.03 173.46 490.79 173.46C493.55 173.46 495.79 175.7 495.79 178.46C495.79 181.22 493.55 183.46 490.79 183.46C488.03 183.46 485.79 181.22 485.79 178.46Z" fill="black"/>
<path d="M484.7 178.91C484.7 176.42 486.51 174.36 488.88 173.97C491.3 173.27 493.91 174.48 494.9 176.85C495.96 179.41 494.75 182.33 492.2 183.39C491.55 183.65 490.86 183.89 489.7 183.91C486.94 183.91 484.7 181.67 484.7 178.91Z" fill="black"/>
<path d="M477.87 178.93C477.87 176.17 480.1 173.93 482.86 173.92C485.62 173.92 487.87 176.15 487.87 178.91C487.88 181.67 485.64 183.92 482.88 183.93C480.12 183.93 477.88 181.69 477.87 178.93Z" fill="black"/>
<path d="M477.87 207.45C477.87 204.69 480.11 202.45 482.87 202.45C485.63 202.45 487.87 204.69 487.87 207.45C487.87 210.22 485.63 212.46 482.87 212.46C480.11 212.46 477.87 210.22 477.87 207.45Z" fill="black"/>
<path d="M490.52 212.51C487.75 212.49 485.53 210.23 485.55 207.47C485.57 204.71 487.82 202.49 490.59 202.51C493.35 202.53 495.57 204.78 495.55 207.54C495.53 210.29 493.3 212.51 490.55 212.51H490.52Z" fill="black"/>
<path d="M485.55 220.59C485.55 217.83 487.79 215.59 490.55 215.59C493.31 215.59 495.56 217.83 495.56 220.59C495.56 223.35 493.32 225.59 490.56 225.59C487.8 225.59 485.56 223.36 485.55 220.59Z" fill="black"/>
<path d="M469.49 225.25C466.74 225.04 464.68 222.63 464.89 219.88C465.11 217.13 467.51 215.07 470.27 215.28C473.02 215.49 475.08 217.9 474.87 220.65C474.66 223.28 472.47 225.27 469.88 225.27C469.75 225.27 469.62 225.27 469.49 225.25Z" fill="black"/>
<path d="M464.88 188.59C464.88 185.83 467.12 183.59 469.88 183.59C472.64 183.59 474.88 185.83 474.88 188.59C474.88 191.35 472.64 193.59 469.88 193.59C467.12 193.59 464.88 191.35 464.88 188.59ZM464.88 156.92C464.88 154.16 467.12 151.92 469.88 151.92C472.64 151.92 474.88 154.16 474.88 156.92C474.88 159.68 472.64 161.92 469.88 161.92C467.12 161.92 464.88 159.68 464.88 156.92Z" fill="black"/>
<path d="M465.55 124.06C465.55 121.3 467.79 119.06 470.55 119.06C473.31 119.06 475.55 121.3 475.55 124.06C475.55 126.82 473.31 129.06 470.55 129.06C467.79 129.06 465.55 126.82 465.55 124.06Z" fill="black"/>
<path d="M485.56 124.07C485.56 121.31 487.8 119.07 490.56 119.07C493.32 119.07 495.56 121.31 495.56 124.07C495.56 126.83 493.32 129.07 490.56 129.07C487.79 129.07 485.56 126.83 485.56 124.07Z" fill="black"/>
<path d="M490.55 142.14C487.79 142.14 485.55 139.9 485.55 137.14C485.55 134.38 487.8 132.14 490.56 132.14C493.32 132.14 495.56 134.38 495.56 137.14C495.56 139.9 493.32 142.14 490.56 142.14H490.55Z" fill="black"/>
<path d="M477.87 137.23C477.85 134.46 480.07 132.21 482.83 132.19C485.59 132.17 487.85 134.4 487.87 137.16C487.89 139.92 485.66 142.17 482.9 142.19H482.87C480.12 142.19 477.89 139.98 477.87 137.23Z" fill="black"/>
<path d="M477.88 165.79C477.88 163.03 480.12 160.79 482.87 160.79C485.64 160.78 487.88 163.03 487.88 165.78C487.88 168.55 485.64 170.78 482.88 170.79C480.12 170.79 477.88 168.55 477.88 165.79Z" fill="black"/>
<path d="M489.69 170.79C486.93 170.79 484.7 168.55 484.7 165.79C484.7 163.03 486.94 160.79 489.7 160.79C492.46 160.79 494.7 163.03 494.7 165.79C494.7 168.55 492.46 170.79 489.7 170.79H489.69Z" fill="black"/>
<path d="M487.37 170.01C485.39 168.58 484.71 165.87 485.87 163.64C487.15 161.19 490.17 160.25 492.62 161.52C493.4 161.96 494.1 162.43 494.86 163.45C496.46 165.7 495.94 168.83 493.69 170.43C492.81 171.05 491.8 171.36 490.79 171.36C489.55 171.36 488.31 170.89 487.37 170.01Z" fill="black"/>
<path d="M510.32 95.2198C507.56 95.2198 505.33 92.9598 505.33 90.1998C505.34 87.4398 507.59 85.2098 510.35 85.2198C513.11 85.2198 515.34 87.4698 515.33 90.2298C515.33 92.9898 513.09 95.2198 510.34 95.2198H510.32Z" fill="black"/>
<path d="M512.1 90.2197C512.1 87.4497 514.34 85.2197 517.1 85.2197C519.86 85.2197 522.1 87.4497 522.1 90.2197C522.1 92.9797 519.86 95.2197 517.1 95.2197C514.34 95.2197 512.1 92.9797 512.1 90.2197Z" fill="black"/>
<path d="M515.4 94.7898C513.14 93.6298 512.08 90.9298 513.03 88.5198C514.03 85.9498 516.93 84.6798 519.5 85.6898C520.19 85.9698 520.77 86.2498 521.59 86.9798C523.62 88.8598 523.74 92.0198 521.86 94.0498C520.87 95.1098 519.53 95.6398 518.19 95.6398C517.21 95.6398 516.24 95.3598 515.4 94.7898Z" fill="black"/>
<path d="M513.19 103.05C513.19 100.28 515.43 98.0396 518.19 98.0396C520.96 98.0396 523.19 100.28 523.19 103.05C523.19 105.81 520.96 108.05 518.19 108.05C515.43 108.05 513.19 105.81 513.19 103.05Z" fill="black"/>
<path d="M512.25 103.33C512.25 100.82 514.09 98.7499 516.49 98.3799C519.04 97.7299 521.69 99.1599 522.5 101.7C523.34 104.33 521.89 107.15 519.26 107.99C518.8 108.1 518.45 108.29 517.25 108.32C514.49 108.32 512.25 106.08 512.25 103.33Z" fill="black"/>
<path d="M505.31 103.38C505.3 100.62 507.53 98.3699 510.29 98.3599C513.05 98.3599 515.3 100.57 515.31 103.33C515.32 106.09 513.1 108.34 510.33 108.36H510.31C507.56 108.36 505.32 106.13 505.31 103.38Z" fill="black"/>
<path d="M505.31 110.41C505.31 107.65 507.55 105.42 510.31 105.42C513.07 105.42 515.31 107.65 515.31 110.41C515.31 113.18 513.07 115.41 510.31 115.41C507.55 115.41 505.31 113.18 505.31 110.41Z" fill="black"/>
<path d="M517.65 115.49C514.89 115.46 512.67 113.2 512.69 110.44C512.72 107.67 514.98 105.46 517.75 105.49C520.51 105.51 522.72 107.77 522.69 110.53C522.67 113.28 520.43 115.49 517.7 115.49H517.65Z" fill="black"/>
<path d="M514.22 114.17L513.97 113.85C512.3 111.65 512.71 108.51 514.91 106.84C517.11 105.16 520.24 105.58 521.92 107.78L522.17 108.1C523.85 110.3 523.42 113.44 521.23 115.11C520.32 115.8 519.25 116.14 518.19 116.14C516.69 116.14 515.2 115.46 514.22 114.17Z" fill="black"/>
<path d="M513.19 123.28C513.19 120.52 515.43 118.28 518.19 118.28C520.95 118.28 523.19 120.52 523.19 123.28C523.19 126.04 520.95 128.28 518.19 128.28C515.43 128.28 513.19 126.04 513.19 123.28Z" fill="black"/>
<path d="M511.83 123.69C511.83 121.06 513.87 118.9 516.47 118.71C519.01 118.15 521.59 119.64 522.34 122.18C523.12 124.83 521.61 127.61 518.96 128.39C518.29 128.59 517.58 128.7 516.83 128.7C514.07 128.7 511.83 126.46 511.83 123.69Z" fill="black"/>
<path d="M493.15 123.68C493.15 120.92 495.39 118.69 498.15 118.69C500.91 118.69 503.15 120.93 503.15 123.69C503.15 126.45 500.91 128.69 498.15 128.69C495.39 128.69 493.15 126.45 493.15 123.68Z" fill="black"/>
<path d="M493.9 126.87C492.84 125.76 492.27 124.23 492.29 122.79C492.29 120.03 494.52 117.79 497.29 117.79C499.54 117.79 501.45 119.29 502.07 121.34C502.94 123.23 502.56 125.54 500.97 127.05C500 127.97 498.76 128.43 497.53 128.43C496.2 128.43 494.88 127.9 493.9 126.87Z" fill="black"/>
<path d="M492.29 96.3799C492.29 93.6199 494.53 91.3799 497.29 91.3799C500.05 91.3799 502.28 93.6199 502.28 96.3799C502.28 99.1399 500.05 101.37 497.29 101.37C494.53 101.37 492.29 99.1399 492.29 96.3799Z" fill="black"/>
<path d="M512.05 69.9399C512.05 67.1699 514.28 64.9299 517.04 64.9199C519.81 64.9199 522.05 67.1599 522.06 69.9199C522.06 72.6799 519.82 74.9199 517.06 74.9299C514.3 74.9299 512.06 72.6999 512.05 69.9399Z" fill="black"/>
<path d="M516.44 74.8496C513.82 74.2096 512.17 71.5796 512.75 68.9196C513.34 66.2196 516.01 64.5196 518.71 65.1096C519.23 65.2296 519.64 65.3496 520.14 65.5596C522.68 66.6296 523.87 69.5596 522.8 72.1096C522 74.0196 520.14 75.1696 518.19 75.1696C517.61 75.1696 517.02 75.0596 516.44 74.8496Z" fill="black"/>
<path d="M513.2 82.7998C513.2 80.0398 515.43 77.7998 518.2 77.7998C520.95 77.7998 523.2 80.0398 523.2 82.7998C523.2 85.5598 520.95 87.7998 518.2 87.7998C515.43 87.7998 513.2 85.5598 513.2 82.7998Z" fill="black"/>
<path d="M512.1 82.9796C512.1 80.3196 514.18 78.1396 516.81 77.9896C519.51 77.5396 522.08 79.3296 522.57 82.0196C523.06 84.7396 521.26 87.3396 518.55 87.8396C518.16 87.8996 517.8 87.9696 517.1 87.9796C514.34 87.9796 512.1 85.7396 512.1 82.9796Z" fill="black"/>
<path d="M505.35 83.0299C505.34 80.2599 507.57 78.0199 510.34 78.0099C513.09 77.9899 515.34 80.2299 515.36 82.9899C515.36 85.7499 513.13 87.9899 510.37 88.0099H510.35C507.6 88.0099 505.36 85.7799 505.35 83.0299Z" fill="black"/>
<path d="M510.35 95.2198C507.59 95.2198 505.35 92.9698 505.36 90.2098V82.9998C505.37 80.2398 507.61 78.0098 510.37 78.0098C513.13 78.0098 515.37 80.2598 515.36 83.0198V90.2298C515.35 92.9898 513.11 95.2198 510.35 95.2198Z" fill="black"/>
<path d="M495.98 287.099C495.33 284.419 496.97 281.709 499.66 281.059C502.33 280.399 505.04 282.049 505.7 284.729C506.35 287.409 504.71 290.119 502.03 290.769C501.63 290.869 501.23 290.919 500.83 290.919C498.58 290.919 496.54 289.379 495.98 287.099Z" fill="black"/>
<path d="M507.6 290.92C504.84 290.92 502.6 288.68 502.6 285.92C502.6 283.15 504.84 280.92 507.6 280.92C510.37 280.92 512.6 283.16 512.6 285.92C512.6 288.68 510.37 290.92 507.61 290.92H507.6Z" fill="black"/>
<path d="M506.46 290.759H506.44C503.83 289.859 502.44 287.019 503.33 284.409C504.23 281.789 507.07 280.399 509.68 281.299C510.1 281.439 510.28 281.509 510.7 281.709C513.18 282.919 514.21 285.919 513 288.399C512.13 290.169 510.35 291.199 508.5 291.199C507.82 291.199 507.12 291.059 506.46 290.759Z" fill="black"/>
<path d="M503.5 298.66C503.5 295.9 505.74 293.66 508.5 293.66C511.27 293.66 513.5 295.9 513.5 298.66C513.5 301.42 511.27 303.66 508.5 303.66C505.74 303.66 503.5 301.42 503.5 298.66Z" fill="black"/>
<path d="M501.6 299.03C501.59 296.26 503.82 294.01 506.57 294C506.8 294 506.94 294 506.96 294C509.69 293.66 512.19 295.59 512.54 298.32C512.89 301.06 510.95 303.57 508.22 303.92C507.51 304 507 304 506.63 304H506.6C503.85 304 501.62 301.79 501.6 299.04V299.03Z" fill="black"/>
<path d="M495.65 299.09C495.62 296.33 497.84 294.07 500.6 294.05C503.36 294.03 505.62 296.24 505.64 299.01C505.67 301.77 503.45 304.02 500.69 304.05H500.65C497.9 304.05 495.67 301.84 495.65 299.09Z" fill="black"/>
<path d="M495.76 301.99C495.65 299.23 497.79 296.9 500.55 296.79C503.31 296.67 505.64 298.81 505.75 301.57C505.87 304.33 503.73 306.66 500.97 306.78H500.75C498.09 306.78 495.88 304.68 495.76 301.99Z" fill="black"/>
<path d="M507.6 306.78C504.84 306.78 502.61 304.55 502.61 301.78C502.61 299.02 504.85 296.79 507.61 296.79C510.37 296.79 512.61 299.03 512.61 301.79C512.61 304.55 510.37 306.78 507.61 306.78H507.6Z" fill="black"/>
<path d="M506.43 306.62C503.82 305.72 502.44 302.87 503.34 300.26C504.24 297.65 507.09 296.27 509.7 297.17C510.11 297.32 510.28 297.38 510.77 297.62C513.23 298.87 514.21 301.88 512.96 304.34C512.08 306.08 510.32 307.08 508.5 307.08C507.81 307.08 507.1 306.93 506.43 306.62Z" fill="black"/>
<path d="M503.5 314.48C503.5 311.71 505.74 309.47 508.5 309.47C511.26 309.47 513.5 311.71 513.5 314.48C513.5 317.24 511.26 319.47 508.5 319.47C505.74 319.47 503.5 317.24 503.5 314.48Z" fill="black"/>
<path d="M502.6 314.91C502.6 312.53 504.25 310.54 506.47 310.03C508.82 309.23 511.46 310.28 512.58 312.57C513.79 315.05 512.76 318.05 510.28 319.26C509.65 319.54 509.03 319.86 507.6 319.91C504.83 319.91 502.6 317.67 502.6 314.91Z" fill="black"/>
<path d="M487.58 319.859C484.82 319.859 482.59 317.609 482.6 314.849C482.6 312.079 484.85 309.849 487.61 309.859C490.37 309.859 492.6 312.109 492.6 314.869C492.59 317.629 490.35 319.859 487.6 319.859H487.58Z" fill="black"/>
<path d="M482.6 270.06C482.6 267.3 484.84 265.06 487.6 265.06C490.36 265.06 492.6 267.3 492.6 270.06C492.6 272.82 490.36 275.06 487.6 275.06C484.84 275.06 482.6 272.82 482.6 270.06Z" fill="black"/>
<path d="M502.76 270.05C502.76 267.29 505 265.04 507.76 265.04C510.52 265.04 512.76 267.28 512.76 270.04C512.76 272.8 510.53 275.04 507.77 275.04C505.01 275.04 502.77 272.81 502.76 270.05Z" fill="black"/>
<path d="M506.04 274.689C503.6 273.559 502.49 270.679 503.55 268.189C504.63 265.649 507.57 264.469 510.11 265.559C510.31 265.639 510.47 265.719 510.62 265.789C510.8 265.889 510.87 265.909 511.23 266.139C511.37 266.249 511.47 266.259 511.99 266.749C513.97 268.679 514.01 271.849 512.08 273.819C511.1 274.829 509.8 275.329 508.5 275.329C507.65 275.329 506.8 275.119 506.04 274.689Z" fill="black"/>
<path d="M503.51 282.75C503.51 279.99 505.74 277.75 508.5 277.75C511.26 277.75 513.5 279.99 513.5 282.75C513.5 285.51 511.26 287.75 508.5 287.75C505.74 287.75 503.51 285.51 503.51 282.75Z" fill="black"/>
<path d="M502.84 283.14C502.84 281.02 504.17 279.21 506.03 278.48C508.27 277.4 511.02 278.13 512.4 280.28C513.9 282.61 513.22 285.7 510.9 287.19C510.7 287.32 510.47 287.46 510.1 287.64C509.69 287.78 509.27 288.09 507.84 288.15C505.08 288.15 502.84 285.91 502.84 283.14Z" fill="black"/>
<path d="M495.81 283.19C495.79 280.43 498.03 278.18 500.79 278.17C503.55 278.17 505.8 280.39 505.81 283.15C505.82 285.91 503.59 288.16 500.83 288.17H500.81C498.05 288.17 495.82 285.95 495.81 283.19Z" fill="black"/>
<path d="M500.85 290.91C498.13 290.91 495.89 288.72 495.85 285.99L495.81 283.25C495.77 280.49 497.97 278.22 500.73 278.17C500.76 278.17 500.78 278.17 500.81 278.17C503.53 278.17 505.76 280.36 505.81 283.09L505.85 285.83C505.89 288.59 503.69 290.86 500.93 290.91C500.9 290.91 500.88 290.91 500.85 290.91Z" fill="black"/>
<path d="M273.01 192.85C273.01 190.09 275.25 187.85 278.01 187.86C280.77 187.86 283.01 190.09 283.01 192.86C283.01 195.62 280.77 197.86 278.01 197.86C275.25 197.86 273.01 195.61 273.01 192.85Z" fill="black"/>
<path d="M285.97 192.83C285.97 190.07 288.2 187.83 290.96 187.82C293.72 187.82 295.97 190.05 295.98 192.81C295.98 195.57 293.75 197.82 290.99 197.82H290.97C288.22 197.82 285.98 195.59 285.97 192.83Z" fill="black"/>
<path d="M290.87 229.83C288.11 229.82 285.88 227.58 285.89 224.81C285.89 222.05 288.14 219.82 290.9 219.83C293.66 219.83 295.89 222.08 295.89 224.84C295.88 227.6 293.64 229.83 290.88 229.83H290.87Z" fill="black"/>
<path d="M275.49 235.549C275.35 232.789 277.48 230.449 280.24 230.309C283 230.179 285.34 232.309 285.48 235.059C285.61 237.819 283.48 240.169 280.73 240.299C280.65 240.299 280.56 240.299 280.48 240.299C277.83 240.299 275.62 238.219 275.49 235.539V235.549Z" fill="black"/>
<path d="M272.48 240.3C269.72 240.16 267.6 237.81 267.75 235.05C267.9 232.29 270.25 230.17 273 230.32C275.76 230.46 277.88 232.81 277.74 235.57C277.6 238.24 275.39 240.31 272.75 240.31C272.66 240.31 272.57 240.31 272.48 240.31V240.3Z" fill="black"/>
<path d="M257.24 223.92C257.24 221.16 259.48 218.92 262.24 218.92C265 218.92 267.24 221.16 267.24 223.92C267.24 226.68 265 228.92 262.24 228.92C259.48 228.92 257.24 226.68 257.24 223.92Z" fill="black"/>
<path d="M262.28 202.33C259.52 202.32 257.28 200.08 257.28 197.32C257.29 194.56 259.53 192.33 262.3 192.33C265.06 192.33 267.29 194.58 267.29 197.34C267.28 200.1 265.04 202.33 262.28 202.33ZM262.32 175.74C259.56 175.73 257.32 173.49 257.33 170.73C257.34 167.97 259.58 165.73 262.34 165.74C265.1 165.74 267.33 167.98 267.33 170.74C267.33 173.51 265.09 175.74 262.33 175.74H262.32Z" fill="black"/>
<path d="M267.18 134.48C266.99 131.73 269.07 129.34 271.83 129.15C274.58 128.96 276.97 131.04 277.15 133.8C277.35 136.55 275.26 138.94 272.51 139.13C272.39 139.13 272.28 139.13 272.16 139.13C269.56 139.13 267.36 137.11 267.18 134.47V134.48Z" fill="black"/>
<path d="M280.62 139.12C277.86 138.94 275.77 136.56 275.95 133.8C276.13 131.05 278.51 128.96 281.27 129.14C284.03 129.32 286.11 131.7 285.93 134.46C285.76 137.1 283.56 139.13 280.95 139.13C280.84 139.13 280.73 139.13 280.62 139.13V139.12Z" fill="black"/>
<path d="M286 145.23C285.9 142.47 288.06 140.15 290.82 140.06C293.58 139.95 295.9 142.11 296 144.87C296.09 147.63 293.94 149.95 291.18 150.05H290.99C288.31 150.05 286.1 147.93 286 145.23Z" fill="black"/>
<path d="M290.98 181.5C288.21 181.5 285.98 179.26 285.98 176.5C285.98 173.74 288.22 171.5 290.98 171.5C293.74 171.5 295.98 173.75 295.98 176.51C295.98 179.27 293.74 181.5 290.99 181.5H290.98Z" fill="black"/>
<path d="M278.01 181.49C275.24 181.49 273.01 179.25 273.01 176.49C273.01 173.72 275.25 171.49 278.01 171.49C280.78 171.49 283.01 173.73 283.01 176.49C283.01 179.25 280.77 181.49 278.01 181.49Z" fill="black"/>
<path d="M273 147.16C273 144.4 275.23 142.16 278 142.16C280.76 142.16 283 144.39 283 147.16C283 149.92 280.76 152.16 278 152.16C275.24 152.16 273 149.92 273 147.16Z" fill="black"/>
<path d="M270.2 147.81C269.86 145.07 271.8 142.57 274.54 142.22C277.28 141.87 279.78 143.82 280.12 146.56C280.47 149.3 278.53 151.8 275.79 152.14C275.58 152.17 275.36 152.18 275.16 152.18C272.67 152.18 270.52 150.33 270.2 147.81Z" fill="black"/>
<path d="M270.17 197.19C270.17 194.43 272.41 192.19 275.17 192.19C277.93 192.19 280.17 194.42 280.17 197.18C280.17 199.95 277.93 202.19 275.17 202.19C272.41 202.19 270.17 199.95 270.17 197.19ZM270.17 172.19C270.17 169.42 272.41 167.18 275.17 167.18C277.93 167.18 280.16 169.42 280.16 172.18C280.17 174.94 277.93 177.19 275.17 177.19C272.41 177.19 270.17 174.95 270.17 172.19Z" fill="black"/>
<path d="M277.93 227.23C275.17 227.19 272.96 224.92 273 222.16C273.03 219.4 275.3 217.19 278.06 217.22C280.82 217.26 283.03 219.53 282.99 222.29C282.96 225.03 280.72 227.23 277.99 227.23H277.93Z" fill="black"/>
<path d="M446.8 310.32C444.07 309.95 442.14 307.44 442.51 304.7C442.88 301.96 445.39 300.04 448.13 300.41C450.87 300.77 452.79 303.29 452.42 306.02C452.09 308.54 449.94 310.36 447.47 310.36C447.25 310.36 447.03 310.36 446.8 310.32ZM451.17 277.61C448.43 277.24 446.51 274.73 446.87 271.99C447.24 269.26 449.76 267.33 452.49 267.7C455.23 268.06 457.15 270.58 456.79 273.32C456.45 275.83 454.3 277.66 451.84 277.66C451.62 277.66 451.39 277.64 451.17 277.61ZM455.53 244.9C452.8 244.53 450.87 242.02 451.24 239.28C451.61 236.54 454.12 234.62 456.86 234.99C459.59 235.35 461.52 237.87 461.15 240.6C460.82 243.12 458.67 244.94 456.2 244.94C455.98 244.94 455.76 244.94 455.53 244.9Z" fill="black"/>
<path d="M423.53 338.079C423.53 335.319 425.76 333.079 428.52 333.069C431.29 333.069 433.53 335.309 433.53 338.079C433.53 340.829 431.29 343.069 428.53 343.079C425.77 343.079 423.53 340.839 423.53 338.079Z" fill="black"/>
<path d="M418.85 302.52C418.49 299.78 420.42 297.27 423.16 296.92C425.9 296.56 428.4 298.49 428.76 301.23C429.12 303.97 427.19 306.47 424.45 306.83C424.23 306.86 424.02 306.87 423.8 306.87C421.32 306.87 419.17 305.04 418.85 302.52Z" fill="black"/>
<path d="M413.53 263.29C413 260.58 414.77 257.96 417.48 257.43C420.19 256.9 422.82 258.67 423.34 261.38C423.87 264.1 422.1 266.72 419.39 267.25C419.07 267.31 418.74 267.34 418.43 267.34C416.08 267.34 413.99 265.68 413.53 263.29Z" fill="black"/>
<path d="M409.79 235.45C409.42 232.72 411.35 230.2 414.09 229.83C416.82 229.46 419.34 231.39 419.7 234.13C420.07 236.86 418.15 239.38 415.41 239.75C415.19 239.78 414.97 239.79 414.75 239.79C412.28 239.79 410.13 237.96 409.79 235.45Z" fill="black"/>
<path d="M424.81 207.23C424.81 204.47 427.04 202.23 429.81 202.22C432.57 202.22 434.81 204.46 434.81 207.22C434.81 209.98 432.58 212.22 429.81 212.22C427.06 212.22 424.82 209.99 424.81 207.23Z" fill="black"/>
<path d="M429.85 248.27C429.51 245.53 431.46 243.03 434.2 242.69C436.94 242.36 439.43 244.3 439.77 247.04C440.11 249.78 438.16 252.28 435.43 252.62C435.22 252.64 435.01 252.65 434.8 252.65C432.31 252.65 430.16 250.8 429.85 248.27Z" fill="black"/>
<path d="M430.8 256.219C430.47 253.479 432.43 250.989 435.17 250.659C437.91 250.329 440.4 252.289 440.73 255.039C441.06 257.779 439.1 260.269 436.36 260.589C436.15 260.619 435.96 260.629 435.76 260.629C433.26 260.629 431.1 258.759 430.8 256.219Z" fill="black"/>
<path d="M436.37 251.05C433.63 250.7 431.68 248.21 432.03 245.47C432.37 242.73 434.87 240.78 437.61 241.13C440.35 241.47 442.29 243.97 441.95 246.71C441.63 249.24 439.48 251.089 436.99 251.089C436.79 251.089 436.58 251.09 436.37 251.05Z" fill="black"/>
<path d="M438.61 233.15C435.87 232.81 433.93 230.31 434.27 227.57C434.62 224.83 437.12 222.88 439.86 223.23C442.6 223.57 444.54 226.07 444.2 228.81C443.88 231.34 441.73 233.19 439.24 233.19C439.04 233.19 438.82 233.19 438.61 233.15Z" fill="black"/>
<path d="M441.21 212.19C438.48 211.85 436.53 209.35 436.87 206.61C437.21 203.87 439.71 201.92 442.44 202.26C445.18 202.6 447.13 205.1 446.79 207.84C446.48 210.37 444.33 212.23 441.84 212.23C441.63 212.23 441.42 212.21 441.21 212.19Z" fill="black"/>
<path d="M460.56 212.23C457.8 212.23 455.56 209.99 455.56 207.23C455.56 204.47 457.8 202.23 460.56 202.24C463.32 202.24 465.56 204.48 465.56 207.24C465.56 209.99 463.32 212.23 460.57 212.23H460.56Z" fill="black"/>
<path d="M458.9 101.24C456.21 100.63 454.52 97.9498 455.13 95.2498C455.75 92.5598 458.42 90.8798 461.11 91.4898C463.81 92.0998 465.5 94.7698 464.89 97.4698C464.36 99.7898 462.3 101.36 460.01 101.36C459.65 101.36 459.27 101.32 458.9 101.24Z" fill="black"/>
<path d="M457.39 107.97C454.69 107.36 453 104.68 453.61 101.99C454.22 99.3 456.89 97.6 459.59 98.21C462.28 98.82 463.97 101.5 463.37 104.19C462.84 106.51 460.78 108.09 458.49 108.09C458.13 108.09 457.76 108.05 457.39 107.97Z" fill="black"/>
<path d="M449.82 137.11C447.14 136.43 445.53 133.7 446.21 131.03C446.89 128.35 449.61 126.74 452.29 127.42C454.97 128.1 456.58 130.82 455.9 133.5C455.32 135.76 453.29 137.26 451.06 137.26C450.65 137.26 450.23 137.21 449.82 137.11Z" fill="black"/>
<path d="M436.46 137.24C433.7 137.24 431.47 135 431.47 132.24C431.47 129.48 433.71 127.24 436.48 127.25C439.24 127.25 441.47 129.49 441.47 132.25C441.46 135.01 439.23 137.24 436.47 137.24H436.46Z" fill="black"/>
<path d="M424.04 104.29C423.34 101.62 424.94 98.8897 427.62 98.1897C430.29 97.4997 433.02 99.0997 433.71 101.77C434.41 104.45 432.81 107.18 430.13 107.87C429.71 107.98 429.29 108.04 428.87 108.04C426.65 108.03 424.62 106.54 424.04 104.29Z" fill="black"/>
<path d="M421.65 94.9397C420.72 92.3497 422.06 89.4797 424.66 88.5497C427.26 87.6097 430.12 88.9597 431.06 91.5497C432 94.1497 430.65 97.0197 428.05 97.9497C427.49 98.1597 426.92 98.2497 426.36 98.2497C424.31 98.2497 422.39 96.9797 421.65 94.9397Z" fill="black"/>
<path d="M414.02 65.8195C413.32 63.1495 414.92 60.4095 417.59 59.7195C420.26 59.0095 423 60.6195 423.69 63.2895C424.39 65.9595 422.79 68.6895 420.12 69.3895C419.7 69.4995 419.27 69.5495 418.85 69.5495C416.63 69.5495 414.61 68.0695 414.02 65.8195Z" fill="black"/>
<path d="M432.58 64.5398C432.58 61.7798 434.82 59.5398 437.58 59.5298C440.34 59.5298 442.58 61.7698 442.58 64.5298C442.59 67.2898 440.35 69.5298 437.59 69.5298C434.83 69.5398 432.59 67.2998 432.58 64.5398Z" fill="black"/>
<path d="M438.8 90.77C438.15 88.08 439.79 85.38 442.48 84.73C445.16 84.08 447.86 85.73 448.52 88.41C449.17 91.09 447.52 93.8 444.84 94.45C444.44 94.54 444.04 94.59 443.65 94.59C441.4 94.59 439.35 93.05 438.8 90.77Z" fill="black"/>
<path d="M448.45 69.3997C445.76 68.7697 444.1 66.0697 444.75 63.3797C445.38 60.6997 448.08 59.0397 450.77 59.6797C453.45 60.3097 455.11 63.0097 454.47 65.6997C453.93 67.9897 451.88 69.5397 449.61 69.5397C449.23 69.5397 448.84 69.4997 448.45 69.3997Z" fill="black"/>
<path d="M463.35 64.5398C463.35 61.7898 465.59 59.5498 468.36 59.5498C471.12 59.5498 473.36 61.7898 473.35 64.5498C473.35 67.3098 471.11 69.5498 468.35 69.5498C465.59 69.5498 463.35 67.3098 463.35 64.5398Z" fill="black"/>
<path d="M459.91 97.5498C457.24 96.8598 455.62 94.1398 456.31 91.4698C456.99 88.7898 459.71 87.1798 462.39 87.8598C465.07 88.5498 466.68 91.2698 466 93.9498C465.42 96.1998 463.38 97.7098 461.15 97.7098C460.74 97.7098 460.33 97.6598 459.91 97.5498Z" fill="black"/>
<path d="M460.02 101.36C459.53 101.36 459.03 101.29 458.54 101.13C455.9 100.31 454.43 97.5097 455.25 94.8697L456.38 91.2197C457.2 88.5797 460 87.1097 462.64 87.9297C465.28 88.7497 466.75 91.5497 465.93 94.1897L464.8 97.8397C464.13 99.9797 462.16 101.36 460.03 101.36H460.02Z" fill="black"/>
<path d="M138.83 316.09C138.82 313.33 141.05 311.09 143.82 311.08C146.58 311.07 148.82 313.31 148.83 316.06C148.83 318.83 146.6 321.07 143.84 321.08C141.08 321.08 138.83 318.85 138.83 316.09Z" fill="black"/>
<path d="M122.97 321.06C120.21 321.06 117.97 318.82 117.98 316.06C117.98 313.3 120.22 311.06 122.98 311.06C125.74 311.06 127.98 313.3 127.98 316.07C127.97 318.83 125.74 321.06 122.98 321.06H122.97Z" fill="black"/>
<path d="M117.98 288.97C117.98 286.21 120.21 283.97 122.98 283.97C125.74 283.97 127.98 286.21 127.98 288.97C127.98 291.73 125.74 293.97 122.98 293.97C120.21 293.97 117.98 291.73 117.98 288.97ZM117.98 261.88C117.98 259.12 120.21 256.88 122.98 256.88C125.74 256.88 127.98 259.12 127.98 261.88C127.98 264.64 125.74 266.88 122.98 266.88C120.21 266.88 117.98 264.64 117.98 261.88Z" fill="black"/>
<path d="M130.07 234.74C130.05 231.98 132.28 229.73 135.04 229.71C137.8 229.69 140.06 231.91 140.07 234.68C140.09 237.44 137.87 239.69 135.11 239.71H135.08C132.33 239.71 130.09 237.49 130.07 234.74Z" fill="black"/>
<path d="M131.2 237.13C130.3 235.26 130.64 232.95 132.2 231.41C134.17 229.47 137.33 229.49 139.27 231.46C140.32 232.51 140.98 234.07 140.96 235.61C140.96 238.37 138.73 240.61 135.96 240.61C133.73 240.61 131.84 239.15 131.2 237.13Z" fill="black"/>
<path d="M130.97 269.29C130.97 266.53 133.2 264.29 135.96 264.29C138.73 264.29 140.96 266.53 140.96 269.29C140.96 272.05 138.73 274.29 135.96 274.29C133.2 274.29 130.97 272.05 130.97 269.29Z" fill="black"/>
<path d="M143.76 308.02C141 308 138.78 305.75 138.8 302.99C138.82 300.22 141.07 298 143.83 298.02C146.59 298.04 148.82 300.3 148.8 303.06C148.78 305.81 146.54 308.02 143.8 308.02H143.76Z" fill="black"/>
<path d="M139.51 184.19C139.35 181.43 141.47 179.07 144.22 178.92C146.98 178.76 149.34 180.88 149.49 183.63C149.64 186.39 147.53 188.75 144.78 188.9C144.68 188.91 144.59 188.91 144.49 188.91C141.86 188.91 139.66 186.85 139.51 184.19Z" fill="black"/>
<path d="M152.37 189.01C149.6 188.98 147.39 186.71 147.43 183.95C147.46 181.19 149.73 178.98 152.49 179.01C155.25 179.04 157.46 181.31 157.43 184.07C157.39 186.81 155.16 189.01 152.43 189.01H152.37Z" fill="black"/>
<path d="M152.33 201.95C149.56 201.93 147.34 199.68 147.36 196.92C147.36 194.16 149.62 191.93 152.38 191.95C155.14 191.95 157.37 194.21 157.35 196.97C157.34 199.73 155.1 201.95 152.36 201.95H152.33Z" fill="black"/>
<path d="M131.57 201.92C128.81 201.92 126.58 199.68 126.58 196.92C126.58 194.16 128.82 191.92 131.58 191.92C134.35 191.92 136.58 194.17 136.58 196.93C136.58 199.69 134.34 201.92 131.58 201.92H131.57Z" fill="black"/>
<path d="M126.58 171.41C126.58 168.66 128.81 166.42 131.58 166.42C134.34 166.42 136.58 168.66 136.58 171.41C136.58 174.18 134.34 176.42 131.58 176.42C128.81 176.42 126.58 174.18 126.58 171.41ZM126.58 145.91C126.58 143.15 128.81 140.91 131.58 140.91C134.34 140.91 136.58 143.15 136.58 145.91C136.58 148.67 134.34 150.91 131.58 150.91C128.81 150.91 126.58 148.67 126.58 145.91Z" fill="black"/>
<path d="M139.41 120.39C139.4 117.63 141.64 115.38 144.4 115.38C147.16 115.38 149.41 117.61 149.41 120.37C149.42 123.13 147.18 125.37 144.42 125.38H144.41C141.65 125.38 139.42 123.14 139.41 120.39Z" fill="black"/>
<path d="M139.56 122.13C139.56 122.13 139.56 122.01 139.53 121.77C139.24 119.02 141.24 116.57 143.99 116.28C146.74 115.99 149.19 117.99 149.48 120.74C149.52 121.09 149.56 121.56 149.56 122.13C149.56 124.89 147.32 127.13 144.56 127.13C141.8 127.13 139.56 124.89 139.56 122.13Z" fill="black"/>
<path d="M144.5 136.8C141.74 136.8 139.51 134.54 139.52 131.78C139.53 129.02 141.78 126.79 144.54 126.8C147.3 126.8 149.53 129.06 149.52 131.82C149.51 134.57 147.28 136.8 144.52 136.8H144.5Z" fill="black"/>
<path d="M139.54 135.55C139.53 132.78 141.76 130.54 144.52 130.52C147.28 130.52 149.53 132.75 149.54 135.51C149.55 138.27 147.32 140.51 144.56 140.52H144.54C141.78 140.52 139.55 138.3 139.54 135.55Z" fill="black"/>
<path d="M139.54 179.71C139.54 176.95 141.78 174.71 144.54 174.71C147.3 174.71 149.54 176.95 149.54 179.71C149.54 182.47 147.3 184.71 144.54 184.71C141.78 184.71 139.54 182.47 139.54 179.71Z" fill="black"/>
<path d="M144.51 188.91H144.48C141.72 188.89 139.5 186.64 139.51 183.88L139.54 179.68C139.56 176.92 141.81 174.68 144.57 174.71C147.33 174.73 149.55 176.98 149.54 179.74L149.51 183.94C149.49 186.69 147.26 188.91 144.51 188.91Z" fill="black"/>
</g>
<path d="M151.04 91.8C151.03 89.04 153.27 86.8 156.03 86.79C158.79 86.79 161.04 89.03 161.04 91.79C161.04 94.55 158.81 96.79 156.04 96.8C153.28 96.8 151.04 94.56 151.04 91.8Z" fill="black"/>
<path d="M130.66 91.79C130.66 89.02 132.9 86.79 135.66 86.79C138.42 86.79 140.66 89.03 140.66 91.79C140.66 94.55 138.42 96.79 135.66 96.79C132.9 96.79 130.66 94.55 130.66 91.79Z" fill="black"/>
<path d="M130.67 54.6699C130.67 51.9099 132.91 49.6699 135.67 49.6699C138.43 49.6699 140.67 51.9099 140.67 54.6799C140.67 57.4399 138.43 59.6699 135.67 59.6699C132.9 59.6699 130.67 57.4299 130.67 54.6699Z" fill="black"/>
<path d="M143.06 54.6702C143.06 51.9102 145.29 49.6602 148.06 49.6602C150.82 49.6602 153.06 51.9002 153.06 54.6602C153.06 57.4202 150.83 59.6602 148.06 59.6602C145.3 59.6602 143.06 57.4302 143.06 54.6702Z" fill="black"/>
<path d="M143.07 79.3401C143.07 76.5701 145.3 74.3301 148.07 74.3301C150.83 74.3301 153.07 76.5701 153.07 79.3301C153.07 82.1001 150.83 84.3301 148.07 84.3401C145.31 84.3401 143.07 82.1001 143.07 79.3401Z" fill="black"/>
<path d="M155.98 84.4C153.22 84.38 151 82.12 151.02 79.36C151.05 76.59 153.31 74.38 156.07 74.4C158.83 74.42 161.05 76.68 161.03 79.45C161 82.19 158.77 84.4 156.02 84.4H155.98Z" fill="black"/>
<path d="M156.05 96.8002C153.29 96.8002 151.06 94.5702 151.05 91.8102L151.03 79.4202C151.03 76.6602 153.26 74.4202 156.02 74.4102C158.77 74.3702 161.02 76.6402 161.03 79.4002L161.05 91.7902C161.05 94.5502 158.82 96.7902 156.06 96.8002H156.05Z" fill="black"/>
<mask id="mask5_2554_4094" style="mask-type:luminance" maskUnits="userSpaceOnUse" x="0" y="0" width="524" height="424">
<path d="M523.2 0H0V423.47H523.2V0Z" fill="white"/>
</mask>
<g mask="url(#mask5_2554_4094)">
<path d="M76.7 117.35C73.94 117.19 71.84 114.82 71.99 112.07C72.16 109.31 74.52 107.2 77.28 107.37C80.03 107.52 82.14 109.89 81.98 112.64C81.82 115.3 79.62 117.35 76.99 117.35H76.7Z" fill="black"/>
<path d="M63.4299 112.76C63.2299 110 65.2899 107.6 68.0399 107.39C70.7999 107.19 73.1999 109.25 73.4099 112C73.6099 114.76 71.5499 117.16 68.7999 117.37C68.6699 117.37 68.5399 117.37 68.4199 117.37C65.8199 117.37 63.6299 115.37 63.4299 112.75V112.76Z" fill="black"/>
<path d="M53.6001 122.37C53.6001 119.61 55.8401 117.37 58.6101 117.37C61.3701 117.37 63.6001 119.61 63.6001 122.37C63.6001 125.13 61.3701 127.37 58.6101 127.37C55.8401 127.37 53.6001 125.13 53.6001 122.37Z" fill="black"/>
<path d="M53.6001 203.88C53.6001 201.12 55.8301 198.88 58.5901 198.88C61.3501 198.88 63.5901 201.12 63.5901 203.88C63.5901 206.65 61.3501 208.89 58.5901 208.89C55.8301 208.89 53.5901 206.65 53.6001 203.88ZM53.6001 176.71C53.6001 173.95 55.8401 171.71 58.6001 171.71C61.3601 171.71 63.6001 173.95 63.6001 176.71C63.6001 179.48 61.3601 181.71 58.6001 181.71C55.8401 181.71 53.6001 179.48 53.6001 176.71ZM53.6001 149.54C53.6001 146.78 55.8401 144.54 58.6001 144.54C61.3601 144.54 63.6001 146.78 63.6001 149.54C63.6001 152.3 61.3601 154.54 58.6001 154.54C55.8401 154.54 53.6001 152.3 53.6001 149.54Z" fill="black"/>
<path d="M68.2903 246.16C65.5403 245.97 63.4602 243.59 63.6402 240.83C63.8302 238.08 66.2102 236 68.9602 236.19C71.7202 236.37 73.8003 238.76 73.6203 241.51C73.4403 244.15 71.2402 246.17 68.6402 246.17C68.5202 246.17 68.4103 246.17 68.2903 246.17V246.16Z" fill="black"/>
<path d="M71.95 241.47C71.79 238.72 73.89 236.35 76.65 236.19C79.4 236.03 81.77 238.13 81.93 240.89C82.09 243.65 79.99 246.01 77.23 246.18H76.94C74.31 246.18 72.1 244.13 71.95 241.47Z" fill="black"/>
<path d="M82.2002 230.37C82.2002 227.61 84.4302 225.37 87.1902 225.37C89.9602 225.37 92.2002 227.61 92.2002 230.37C92.2002 233.14 89.9602 235.37 87.1902 235.37C84.4302 235.37 82.2002 233.14 82.2002 230.37Z" fill="black"/>
<path d="M82.1899 203.55C82.1899 200.79 84.4299 198.55 87.1899 198.55C89.9499 198.55 92.1899 200.79 92.1899 203.55C92.1899 206.31 89.9499 208.55 87.1899 208.55C84.4299 208.55 82.1899 206.31 82.1899 203.55ZM82.1899 176.72C82.1899 173.96 84.4299 171.72 87.1899 171.72C89.9499 171.72 92.1899 173.95 92.1899 176.72C92.1899 179.48 89.9499 181.72 87.1899 181.72C84.4299 181.72 82.1899 179.48 82.1899 176.72ZM82.1899 149.89C82.1899 147.13 84.4299 144.89 87.1899 144.89C89.9499 144.89 92.1899 147.13 92.1899 149.89C92.1899 152.65 89.9499 154.89 87.1899 154.89C84.4299 154.89 82.1899 152.65 82.1899 149.89Z" fill="black"/>
<path d="M66.4199 228.16C66.4199 225.4 68.6499 223.16 71.4199 223.16C74.1799 223.16 76.4199 225.4 76.4199 228.16C76.4199 230.93 74.1799 233.16 71.4199 233.16C68.6499 233.16 66.4199 230.93 66.4199 228.16Z" fill="black"/>
<path d="M66.4199 193.9C66.4199 191.14 68.6499 188.9 71.4199 188.9C74.1799 188.9 76.4199 191.14 76.4199 193.9C76.4199 196.66 74.1799 198.9 71.4199 198.9C68.6499 198.9 66.4199 196.66 66.4199 193.9ZM66.4199 159.63C66.4199 156.87 68.6499 154.64 71.4199 154.64C74.1799 154.64 76.4199 156.87 76.4199 159.63C76.4199 162.4 74.1799 164.64 71.4199 164.64C68.6499 164.64 66.4199 162.4 66.4199 159.63Z" fill="black"/>
<path d="M69.2603 125.37C69.2603 122.61 71.4903 120.37 74.2603 120.37C77.0203 120.37 79.2603 122.61 79.2603 125.37C79.2603 128.13 77.0203 130.37 74.2603 130.37C71.4903 130.37 69.2603 128.13 69.2603 125.37Z" fill="black"/>
<path d="M69.2603 193.9C69.2603 191.14 71.5003 188.9 74.2503 188.9C77.0203 188.9 79.2603 191.14 79.2603 193.9C79.2603 196.66 77.0203 198.9 74.2503 198.9C71.5003 198.9 69.2603 196.66 69.2603 193.9ZM69.2603 159.63C69.2603 156.87 71.5003 154.63 74.2503 154.63C77.0203 154.63 79.2603 156.87 79.2603 159.63C79.2603 162.4 77.0203 164.63 74.2503 164.63C71.5003 164.63 69.2603 162.4 69.2603 159.63Z" fill="black"/>
<path d="M74.2602 233.16H71.4302C68.6702 233.16 66.4302 230.92 66.4302 228.16C66.4302 225.4 68.6702 223.16 71.4302 223.16H74.2602C77.0202 223.16 79.2602 225.4 79.2602 228.16C79.2602 230.92 77.0202 233.16 74.2602 233.16Z" fill="black"/>
<path d="M51.4302 43.55C48.6702 43.42 46.5402 41.08 46.6702 38.33C46.7902 35.57 49.1302 33.44 51.8902 33.56C54.6502 33.69 56.7802 36.04 56.6502 38.79C56.5302 41.47 54.3202 43.56 51.6702 43.56C51.5902 43.56 51.5102 43.56 51.4302 43.56V43.55Z" fill="black"/>
<path d="M38.8 38.81C38.66 36.06 40.78 33.71 43.54 33.57C46.3 33.43 48.65 35.55 48.79 38.31C48.93 41.06 46.8 43.41 44.05 43.55C43.96 43.55 43.88 43.55 43.79 43.55C41.14 43.55 38.94 41.47 38.8 38.8V38.81Z" fill="black"/>
<path d="M33.3499 54.4902C30.5899 54.4902 28.3599 52.2402 28.3599 49.4802C28.3599 46.7202 30.5999 44.4902 33.3599 44.4902C36.1199 44.4902 38.3599 46.7302 38.3599 49.4902C38.3599 52.2502 36.1199 54.4902 33.3599 54.4902H33.3499Z" fill="black"/>
<path d="M28.3599 73.2798C28.3599 70.5198 30.5999 68.2798 33.3599 68.2798C36.1199 68.2798 38.3499 70.5198 38.3499 73.2798C38.3499 76.0398 36.1099 78.2798 33.3499 78.2798C30.5899 78.2798 28.3599 76.0398 28.3599 73.2798Z" fill="black"/>
<path d="M43.0899 112.96C40.3299 112.8 38.2299 110.43 38.3899 107.67C38.5599 104.92 40.9299 102.81 43.6899 102.98C46.4399 103.15 48.5499 105.52 48.3799 108.27C48.2199 110.93 46.0199 112.97 43.3899 112.97C43.2899 112.97 43.1899 112.97 43.0899 112.97V112.96Z" fill="black"/>
<path d="M47.3798 108.39C47.1298 105.65 49.1498 103.21 51.9098 102.96C54.6498 102.71 57.0898 104.73 57.3398 107.48C57.5898 110.23 55.5698 112.67 52.8198 112.92C52.6598 112.92 52.5098 112.94 52.3498 112.94C49.7998 112.94 47.6198 110.99 47.3798 108.39Z" fill="black"/>
<path d="M57.1602 96.3799C57.1602 93.6199 59.4002 91.3799 62.1602 91.3799C64.9202 91.3799 67.1602 93.6199 67.1602 96.3799C67.1602 99.1399 64.9202 101.38 62.1602 101.38C59.4002 101.38 57.1602 99.1399 57.1602 96.3799Z" fill="black"/>
<path d="M57.1201 72.8298C57.1201 70.0698 59.3401 67.8198 62.1101 67.8198C64.8701 67.8198 67.1101 70.0498 67.1201 72.8098C67.1201 75.5698 64.8901 77.8098 62.1301 77.8198H62.1101C59.3601 77.8198 57.1201 75.5798 57.1201 72.8298Z" fill="black"/>
<path d="M41.4102 94.96C41.4102 92.2 43.6502 89.96 46.4102 89.96C49.1702 89.96 51.4102 92.2 51.4102 94.96C51.4102 97.72 49.1702 99.96 46.4102 99.96C43.6502 99.96 41.4102 97.72 41.4102 94.96Z" fill="black"/>
<path d="M41.4102 51.6101C41.4102 48.8401 43.6502 46.6001 46.4102 46.6001C49.1702 46.6001 51.4102 48.8401 51.4102 51.6101C51.4102 54.3701 49.1702 56.6101 46.4102 56.6101C43.6502 56.6101 41.4102 54.3701 41.4102 51.6101Z" fill="black"/>
<path d="M44.1499 51.6101C44.1499 48.8401 46.3899 46.6001 49.1499 46.6001C51.9099 46.6001 54.1499 48.8401 54.1499 51.6101C54.1499 54.3701 51.9099 56.6101 49.1499 56.6101C46.3899 56.6101 44.1499 54.3701 44.1499 51.6101Z" fill="black"/>
<path d="M44.1499 94.96C44.1499 92.2 46.3899 89.96 49.1499 89.96C51.9099 89.96 54.1499 92.2 54.1499 94.96C54.1499 97.72 51.9099 99.96 49.1499 99.96C46.3899 99.96 44.1499 97.72 44.1499 94.96Z" fill="black"/>
<path d="M49.1502 99.96H46.4302C43.6702 99.96 41.4302 97.72 41.4302 94.96C41.4302 92.2 43.6702 89.96 46.4302 89.96H49.1502C51.9102 89.96 54.1502 92.2 54.1502 94.96C54.1502 97.72 51.9102 99.96 49.1502 99.96Z" fill="black"/>
<path d="M0 317.69C0 314.93 2.24 312.69 5 312.69C7.76 312.69 10 314.93 10 317.69C10 320.45 7.76 322.69 5 322.69C2.24 322.69 0 320.45 0 317.69ZM0 289.11C0 286.35 2.24 284.12 5 284.12C7.76 284.12 10 286.35 10 289.11C10 291.88 7.76 294.11 5 294.11C2.24 294.11 0 291.88 0 289.11ZM0 260.54C0 257.78 2.24 255.54 5 255.54C7.76 255.54 10 257.78 10 260.54C10 263.3 7.76 265.54 5 265.54C2.24 265.54 0 263.3 0 260.54Z" fill="black"/>
<path d="M2.37988 235.83C0.229881 234.34 -0.400119 231.48 0.869881 229.25C1.84988 227.2 4.12988 226.02 6.43988 226.52C9.13988 227.11 10.8499 229.77 10.2599 232.47C10.0599 233.33 9.85988 233.64 9.70988 233.94C9.55988 234.21 9.44988 234.38 9.33988 234.55C8.36988 235.95 6.80988 236.71 5.21988 236.71C4.23988 236.71 3.24988 236.42 2.37988 235.83Z" fill="black"/>
<path d="M11.3599 222.53C11.3499 219.77 13.5699 217.51 16.3299 217.5C19.0899 217.48 21.3499 219.7 21.3599 222.47C21.3799 225.23 19.1499 227.48 16.3899 227.5H16.3599C13.6099 227.5 11.3799 225.28 11.3599 222.53Z" fill="black"/>
<path d="M17.1403 222.49C17.1203 219.73 19.3503 217.48 22.1103 217.46C24.8703 217.44 27.1203 219.66 27.1403 222.43C27.1603 225.19 24.9403 227.44 22.1803 227.46H22.1403C19.4003 227.46 17.1603 225.24 17.1403 222.49Z" fill="black"/>
<path d="M28.7998 233.16C28.7898 230.4 31.0298 228.16 33.7898 228.15C36.5498 228.15 38.7998 230.38 38.7998 233.14C38.7998 235.9 36.5798 238.15 33.8098 238.15C31.0498 238.15 28.8198 235.92 28.8098 233.16H28.7998Z" fill="black"/>
<path d="M28.8902 275.35C28.8802 272.59 31.1202 270.35 33.8802 270.34C36.6402 270.34 38.8802 272.57 38.8902 275.33C38.9002 278.1 36.6602 280.34 33.9002 280.34H33.8802C31.1302 280.34 28.8902 278.11 28.8902 275.35Z" fill="black"/>
<path d="M27.8301 275.73C27.8301 272.97 30.0701 270.73 32.8301 270.73C35.5901 270.73 37.8301 272.97 37.8301 275.73C37.8301 278.49 35.5901 280.73 32.8301 280.73C30.0701 280.73 27.8301 278.49 27.8301 275.73Z" fill="black"/>
<path d="M20.87 280.66C18.11 280.65 15.88 278.4 15.9 275.64C15.92 272.88 18.17 270.65 20.93 270.67C23.69 270.67 25.91 272.93 25.9 275.69C25.88 278.44 23.65 280.66 20.9 280.66H20.87Z" fill="black"/>
<path d="M15.8901 235.66C15.8901 232.9 18.1201 230.66 20.8801 230.66C23.6401 230.66 25.8801 232.9 25.8901 235.66C25.8901 238.42 23.6501 240.66 20.8901 240.66C18.1301 240.66 15.8901 238.42 15.8901 235.66Z" fill="black"/>
<path d="M13.1999 236.36C12.8399 233.62 14.7699 231.11 17.5099 230.75C20.2399 230.39 22.7499 232.32 23.1099 235.06C23.4799 237.79 21.5499 240.31 18.8099 240.67C18.5899 240.7 18.3699 240.71 18.1499 240.71C15.6799 240.71 13.5299 238.88 13.1999 236.36Z" fill="black"/>
<path d="M13.1602 315.76C13.1602 312.99 15.4002 310.76 18.1602 310.76C20.9202 310.76 23.1602 312.99 23.1602 315.76C23.1602 318.52 20.9202 320.76 18.1602 320.76C15.4002 320.76 13.1602 318.52 13.1602 315.76ZM13.1602 289.07C13.1602 286.31 15.4002 284.08 18.1602 284.08C20.9202 284.08 23.1602 286.31 23.1602 289.07C23.1602 291.83 20.9202 294.07 18.1602 294.07C15.4002 294.07 13.1602 291.83 13.1602 289.07ZM13.1602 262.39C13.1602 259.63 15.4002 257.39 18.1602 257.39C20.9202 257.39 23.1602 259.63 23.1602 262.39C23.1602 265.15 20.9202 267.39 18.1602 267.39C15.4002 267.39 13.1602 265.15 13.1602 262.39Z" fill="black"/>
<path d="M16.0002 343.43C15.4202 340.74 17.1302 338.08 19.8302 337.49C22.5302 336.9 25.1902 338.61 25.7802 341.31C26.3602 344.02 24.6502 346.68 21.9502 347.26C21.5902 347.34 21.2402 347.38 20.8902 347.38C18.5802 347.38 16.5102 345.78 16.0002 343.43Z" fill="black"/>
<path d="M15.8999 302.63C15.8999 299.87 18.1399 297.63 20.8999 297.63C23.6599 297.63 25.8999 299.87 25.8999 302.63C25.8999 305.39 23.6599 307.63 20.8999 307.63C18.1299 307.63 15.8999 305.39 15.8999 302.63Z" fill="black"/>
<path d="M28.8799 302.62C28.8699 299.86 31.1099 297.62 33.8699 297.61C36.6299 297.61 38.8699 299.84 38.8799 302.6C38.8799 305.37 36.6499 307.61 33.8799 307.61C31.1199 307.62 28.8799 305.38 28.8799 302.62Z" fill="black"/>
<path d="M33.74 350.48C30.98 350.48 28.75 348.23 28.75 345.47C28.76 342.71 31.01 340.48 33.77 340.48C36.53 340.49 38.76 342.74 38.75 345.5C38.75 348.25 36.51 350.48 33.75 350.48H33.74Z" fill="black"/>
<path d="M18.94 355.87C18.76 353.11 20.85 350.73 23.61 350.55C26.37 350.37 28.74 352.46 28.92 355.21C29.1 357.97 27.01 360.35 24.26 360.53C24.15 360.54 24.04 360.54 23.93 360.54C21.31 360.54 19.12 358.51 18.94 355.87Z" fill="black"/>
<path d="M14.7598 360.53C12.0098 360.37 9.8998 358 10.0598 355.25C10.2198 352.49 12.5898 350.39 15.3398 350.55C18.0998 350.71 20.1998 353.07 20.0398 355.83C19.8898 358.49 17.6898 360.54 15.0598 360.54C14.9598 360.54 14.8598 360.54 14.7598 360.53Z" fill="black"/>
<path d="M0.50005 348.03C-0.14995 345.35 1.49005 342.64 4.18005 341.99C6.86005 341.33 9.56005 342.98 10.22 345.66C10.87 348.34 9.23005 351.05 6.55005 351.7C6.15005 351.8 5.75005 351.84 5.35005 351.84C3.10005 351.84 1.06005 350.31 0.50005 348.03Z" fill="black"/>
<path d="M1.12003 349.42C-0.329971 347.64 -0.409971 345.03 1.08003 343.16C2.79003 340.99 5.94003 340.62 8.10003 342.34C8.57003 342.72 8.66003 342.86 8.79003 343C8.91003 343.13 8.99003 343.23 9.06003 343.32C9.19003 343.5 9.31003 343.66 9.43003 343.85C10.91 346.18 10.22 349.27 7.89003 350.75C7.06003 351.28 6.13003 351.54 5.21003 351.54C3.63003 351.54 2.09003 350.79 1.12003 349.42Z" fill="black"/>
<path d="M48.9699 406.58C48.5699 403.84 50.4599 401.31 53.1999 400.91C55.9299 400.51 58.4599 402.41 58.8599 405.14C59.2599 407.88 57.3599 410.41 54.6299 410.81C54.3899 410.84 54.1399 410.86 53.9099 410.86C51.4599 410.86 49.3299 409.06 48.9699 406.58Z" fill="black"/>
<path d="M48.9102 388.61C48.9102 385.85 51.1502 383.61 53.9202 383.61C56.6802 383.61 58.9102 385.85 58.9102 388.61C58.9102 391.37 56.6802 393.61 53.9202 393.61C51.1502 393.61 48.9102 391.37 48.9102 388.61Z" fill="black"/>
<path d="M66.24 393.62C63.48 393.62 61.24 391.38 61.25 388.62C61.25 385.86 63.49 383.62 66.25 383.62C69.01 383.62 71.25 385.86 71.24 388.62C71.24 391.38 69.01 393.62 66.25 393.62H66.24Z" fill="black"/>
<path d="M66.2 411.83C63.44 411.83 61.21 409.59 61.21 406.83C61.22 404.06 63.46 401.83 66.22 401.83C68.98 401.83 71.22 404.08 71.21 406.84C71.21 409.6 68.97 411.83 66.21 411.83H66.2Z" fill="black"/>
<path d="M54.3301 423.45C51.5701 423.31 49.45 420.96 49.59 418.2C49.74 415.44 52.08 413.32 54.85 413.46C57.6 413.6 59.7201 415.96 59.5801 418.71C59.4401 421.38 57.23 423.46 54.59 423.46C54.51 423.46 54.4201 423.46 54.3301 423.46V423.45Z" fill="black"/>
<path d="M46.8298 423.27C44.0898 422.92 42.1498 420.43 42.4898 417.69C42.8298 414.95 45.3298 413 48.0698 413.35C50.8098 413.69 52.7598 416.19 52.4098 418.93C52.0998 421.46 49.9398 423.31 47.4598 423.31C47.2498 423.31 47.0398 423.31 46.8298 423.27Z" fill="black"/>
<path d="M33.1602 407.54C33.1602 404.78 35.4002 402.54 38.1602 402.54C40.9202 402.54 43.1602 404.78 43.1602 407.54C43.1602 410.3 40.9202 412.54 38.1602 412.55C35.4002 412.55 33.1602 410.31 33.1602 407.54Z" fill="black"/>
<path d="M33.1499 364.78C33.1499 362.02 35.3899 359.78 38.1499 359.78C40.9099 359.78 43.1499 362.02 43.1499 364.78C43.1499 367.54 40.9099 369.78 38.1499 369.78C35.3899 369.78 33.1499 367.54 33.1499 364.78Z" fill="black"/>
<path d="M42.9598 354.11C42.7698 351.36 44.8498 348.97 47.5998 348.78C50.3598 348.59 52.7498 350.67 52.9298 353.42C53.1198 356.18 51.0498 358.56 48.2898 358.75C48.1698 358.75 48.0598 358.77 47.9398 358.77C45.3398 358.77 43.1398 356.75 42.9598 354.11Z" fill="black"/>
<path d="M56.1101 358.76C53.3601 358.61 51.2401 356.24 51.4001 353.49C51.5501 350.73 53.9101 348.62 56.6701 348.77C59.4301 348.92 61.5401 351.29 61.3801 354.04C61.2401 356.7 59.0301 358.77 56.3901 358.77C56.3001 358.77 56.2101 358.77 56.1101 358.77V358.76Z" fill="black"/>
<path d="M61.2298 364.04C60.9798 361.29 63.0098 358.86 65.7598 358.61C68.5098 358.36 70.9398 360.38 71.1898 363.13C71.4398 365.89 69.4198 368.32 66.6698 368.57C66.5098 368.58 66.3598 368.59 66.2098 368.59C63.6498 368.59 61.4698 366.63 61.2298 364.04Z" fill="black"/>
<path d="M61.23 383.49C61.23 380.72 63.47 378.48 66.23 378.48C68.99 378.48 71.23 380.71 71.24 383.48C71.24 386.24 69 388.48 66.24 388.48C63.48 388.48 61.24 386.24 61.23 383.49Z" fill="black"/>
<path d="M48.9302 383.47C48.9302 380.71 51.1702 378.48 53.9302 378.48C56.6902 378.48 58.9302 380.71 58.9302 383.48C58.9302 386.24 56.6902 388.48 53.9302 388.48C51.1702 388.48 48.9302 386.24 48.9302 383.47Z" fill="black"/>
<path d="M48.9102 366.1C48.9102 363.35 51.1402 361.1 53.9002 361.1C56.6602 361.1 58.9102 363.33 58.9102 366.09C58.9102 368.86 56.6802 371.1 53.9102 371.1C51.1502 371.1 48.9102 368.87 48.9102 366.1Z" fill="black"/>
<path d="M50.5502 371.05C47.7902 371.01 45.5802 368.74 45.6302 365.98C45.6702 363.22 47.9402 361.01 50.7002 361.05C53.4602 361.09 55.6702 363.36 55.6202 366.12C55.5902 368.86 53.3602 371.05 50.6302 371.05H50.5502Z" fill="black"/>
<path d="M45.6201 405.84C45.6201 403.08 47.8601 400.84 50.6201 400.84C53.3801 400.84 55.6201 403.08 55.6201 405.84C55.6201 408.6 53.3801 410.84 50.6201 410.84C47.8601 410.84 45.6201 408.6 45.6201 405.84Z" fill="black"/>
<path d="M53.93 410.86H53.9L50.6 410.84C47.84 410.82 45.61 408.57 45.63 405.81C45.65 403.06 47.88 400.84 50.63 400.84H50.66L53.96 400.86C56.72 400.88 58.95 403.13 58.93 405.89C58.91 408.64 56.68 410.86 53.93 410.86Z" fill="black"/>
</g>
<path d="M229.41 236.47C229.41 233.71 231.64 231.47 234.4 231.47C237.17 231.47 239.41 233.7 239.41 236.47C239.41 239.23 237.17 241.47 234.41 241.47C231.65 241.47 229.41 239.23 229.41 236.47Z" fill="black"/>
<path d="M242.23 241.51C239.46 241.49 237.24 239.25 237.25 236.48C237.26 233.72 239.52 231.49 242.28 231.51C245.04 231.53 247.26 233.77 247.25 236.54C247.24 239.29 245 241.51 242.25 241.51H242.23Z" fill="black"/>
<path d="M242.22 254.52C239.46 254.52 237.23 252.27 237.23 249.51C237.23 246.75 239.48 244.51 242.24 244.52C245 244.52 247.24 246.76 247.23 249.52C247.23 252.28 244.99 254.52 242.23 254.52H242.22Z" fill="black"/>
<path d="M221.41 254.49C218.65 254.49 216.41 252.25 216.41 249.49C216.41 246.73 218.66 244.49 221.42 244.49C224.18 244.49 226.42 246.74 226.41 249.5C226.41 252.26 224.17 254.49 221.41 254.49Z" fill="black"/>
<path d="M216.41 217.35C216.41 214.59 218.65 212.35 221.41 212.35C224.17 212.35 226.41 214.59 226.41 217.35C226.41 220.11 224.17 222.36 221.41 222.36C218.65 222.36 216.41 220.11 216.41 217.35ZM216.41 185.22C216.41 182.45 218.65 180.21 221.41 180.21C224.17 180.21 226.41 182.45 226.41 185.22C226.41 187.98 224.17 190.21 221.41 190.21C218.65 190.21 216.41 187.98 216.41 185.22Z" fill="black"/>
<path d="M237.24 153.05C237.24 150.29 239.47 148.05 242.23 148.05C244.99 148.05 247.23 150.28 247.24 153.04C247.24 155.8 245 158.04 242.24 158.05C239.48 158.05 237.24 155.81 237.24 153.05Z" fill="black"/>
<path d="M237.25 166.08C237.25 163.32 239.48 161.08 242.24 161.08C245.01 161.07 247.25 163.31 247.25 166.07C247.25 168.83 245.01 171.07 242.26 171.08C239.49 171.08 237.25 168.84 237.25 166.08Z" fill="black"/>
<path d="M229.39 166.31C229.34 163.55 231.54 161.27 234.3 161.22C237.06 161.17 239.34 163.37 239.39 166.13C239.44 168.89 237.24 171.17 234.49 171.22H234.39C231.67 171.22 229.44 169.04 229.39 166.31Z" fill="black"/>
<path d="M229.4 194.74C229.4 191.98 231.64 189.74 234.4 189.74C237.16 189.74 239.4 191.98 239.4 194.74C239.4 197.5 237.16 199.74 234.4 199.74C231.64 199.74 229.4 197.51 229.4 194.74Z" fill="black"/>
<path d="M242.21 199.8C239.45 199.78 237.22 197.52 237.24 194.76C237.26 192 239.52 189.78 242.28 189.8C245.04 189.82 247.26 192.07 247.24 194.83C247.22 197.58 244.99 199.8 242.24 199.8H242.21Z" fill="black"/>
<path d="M237.26 207.84C237.25 205.07 239.49 202.83 242.25 202.83C245.01 202.83 247.25 205.07 247.26 207.82C247.26 210.59 245.02 212.83 242.26 212.83C239.5 212.83 237.26 210.6 237.26 207.84Z" fill="black"/>
<path d="M229.39 207.97C229.36 205.21 231.57 202.94 234.34 202.92C237.1 202.88 239.36 205.1 239.39 207.86C239.42 210.62 237.21 212.89 234.45 212.91H234.39C231.65 212.91 229.42 210.71 229.39 207.97Z" fill="black"/>
<mask id="mask6_2554_4094" style="mask-type:luminance" maskUnits="userSpaceOnUse" x="0" y="0" width="524" height="424">
<path d="M523.2 0H0V423.47H523.2V0Z" fill="white"/>
</mask>
<g mask="url(#mask6_2554_4094)">
<path d="M229.47 94.6802C229.44 91.9202 231.65 89.6602 234.41 89.6302C237.18 89.6002 239.44 91.8102 239.47 94.5702C239.5 97.3302 237.28 99.6002 234.52 99.6302H234.47C231.73 99.6302 229.5 97.4202 229.47 94.6802Z" fill="black"/>
<path d="M229.47 101.71C229.47 98.96 231.71 96.71 234.47 96.71C237.23 96.71 239.47 98.95 239.48 101.7C239.48 104.47 237.24 106.71 234.48 106.71C231.72 106.71 229.48 104.48 229.47 101.71Z" fill="black"/>
<path d="M241.56 106.72C238.8 106.72 236.57 104.47 236.57 101.71C236.58 98.9502 238.82 96.7202 241.58 96.7202C244.34 96.7202 246.58 98.9702 246.57 101.74C246.57 104.49 244.33 106.72 241.58 106.72H241.56Z" fill="black"/>
<path d="M237.75 104.47C236.66 102.56 236.94 100.08 238.57 98.4498C240.54 96.4998 243.7 96.5198 245.65 98.4798C246.37 99.2898 247.26 100.27 247.36 102.53C247.36 105.29 245.12 107.53 242.36 107.53C240.29 107.53 238.51 106.27 237.75 104.47Z" fill="black"/>
<path d="M237.38 114C237.37 111.23 239.61 108.99 242.37 108.99C245.13 108.98 247.37 111.22 247.38 113.98C247.38 116.74 245.15 118.98 242.38 118.99C239.62 118.99 237.38 116.76 237.38 114Z" fill="black"/>
<path d="M236.71 114.94C236.71 113.35 237.45 111.94 238.61 111.02C240.23 109.38 242.84 109.04 244.86 110.34C247.18 111.84 247.85 114.93 246.36 117.25C246.12 117.61 245.87 117.98 245.36 118.46C244.82 118.87 244.09 119.81 241.71 119.94C238.95 119.94 236.71 117.7 236.71 114.94Z" fill="black"/>
<path d="M221.4 119.9C218.64 119.9 216.4 117.66 216.41 114.89C216.41 112.13 218.65 109.9 221.42 109.9C224.18 109.91 226.41 112.15 226.41 114.91C226.4 117.67 224.17 119.9 221.41 119.9H221.4Z" fill="black"/>
<path d="M216.41 88.0898C216.41 85.3298 218.65 83.0898 221.41 83.0898C224.17 83.0898 226.41 85.3298 226.41 88.0898C226.41 90.8498 224.17 93.0898 221.41 93.0898C218.65 93.0898 216.41 90.8498 216.41 88.0898Z" fill="black"/>
<path d="M225.12 66.24C222.36 66.23 220.13 63.99 220.13 61.23C220.14 58.46 222.38 56.23 225.14 56.23C227.9 56.24 230.13 58.48 230.13 61.24C230.13 64 227.89 66.24 225.13 66.24H225.12Z" fill="black"/>
<path d="M242.35 66.25C239.59 66.25 237.35 64.01 237.36 61.25C237.36 58.49 239.6 56.25 242.36 56.25C245.12 56.25 247.36 58.5 247.36 61.26C247.35 64.02 245.11 66.25 242.36 66.25H242.35Z" fill="black"/>
<path d="M237.36 74.1899C237.36 71.4299 239.6 69.1899 242.36 69.1899C245.12 69.1899 247.36 71.4299 247.36 74.1899C247.36 76.9499 245.13 79.1899 242.37 79.1899C239.6 79.1899 237.36 76.9599 237.36 74.1899Z" fill="black"/>
<path d="M229.53 74.2999C229.51 71.5399 231.73 69.2899 234.49 69.2599C237.25 69.2399 239.51 71.4499 239.53 74.2199C239.55 76.9799 237.34 79.2399 234.58 79.2599H234.53C231.79 79.2599 229.56 77.0499 229.53 74.2999Z" fill="black"/>
<path d="M229.46 81.6499C229.36 78.8899 231.51 76.5699 234.27 76.4699C237.03 76.3599 239.35 78.5099 239.45 81.2699C239.56 84.0299 237.41 86.3499 234.65 86.4599H234.45C231.78 86.4599 229.56 84.3499 229.46 81.6499Z" fill="black"/>
<path d="M242.29 86.5202C239.53 86.5002 237.31 84.2502 237.33 81.4802C237.35 78.7202 239.61 76.5002 242.37 76.5202C245.13 76.5502 247.35 78.8002 247.33 81.5602C247.3 84.3102 245.07 86.5202 242.33 86.5202H242.29Z" fill="black"/>
<path d="M237.36 94.5601C237.35 91.7901 239.59 89.5501 242.35 89.5401C245.11 89.5301 247.35 91.7701 247.36 94.5301C247.36 97.2901 245.14 99.5301 242.37 99.5401C239.62 99.5401 237.38 97.3101 237.37 94.5601H237.36Z" fill="black"/>
</g>
<path d="M229.21 360.85C229.17 358.09 231.38 355.82 234.14 355.79C236.9 355.75 239.17 357.95 239.21 360.72C239.25 363.48 237.04 365.74 234.28 365.78C234.28 365.78 234.23 365.79 234.21 365.79C231.48 365.79 229.25 363.59 229.21 360.85Z" fill="black"/>
<path d="M229.26 363.58C229.21 360.82 231.41 358.54 234.17 358.49C236.93 358.43 239.21 360.63 239.26 363.39C239.31 366.16 237.12 368.43 234.35 368.49H234.26C231.54 368.49 229.31 366.31 229.26 363.58Z" fill="black"/>
<path d="M242.03 368.56C239.27 368.53 237.06 366.27 237.08 363.51C237.11 360.75 239.37 358.53 242.13 358.56C244.89 358.59 247.11 360.84 247.08 363.61C247.06 366.35 244.82 368.56 242.08 368.56H242.03Z" fill="black"/>
<path d="M237.08 376.61C237.08 373.85 239.32 371.61 242.08 371.61C244.85 371.61 247.08 373.85 247.08 376.61C247.08 379.37 244.85 381.61 242.09 381.61C239.32 381.61 237.09 379.37 237.08 376.61Z" fill="black"/>
<path d="M216.14 376.62C216.14 373.86 218.38 371.62 221.14 371.62C223.9 371.61 226.14 373.85 226.14 376.62C226.14 379.38 223.91 381.61 221.15 381.62C218.38 381.62 216.15 379.38 216.14 376.62Z" fill="black"/>
<path d="M216.15 331.78C216.15 329.02 218.39 326.78 221.15 326.78C223.91 326.78 226.15 329.02 226.15 331.78C226.15 334.54 223.91 336.78 221.15 336.78C218.39 336.78 216.15 334.54 216.15 331.78Z" fill="black"/>
<path d="M237.07 331.79C237.08 329.03 239.32 326.79 242.08 326.79C244.84 326.79 247.08 329.03 247.07 331.79C247.07 334.55 244.84 336.79 242.07 336.79C239.31 336.79 237.07 334.55 237.07 331.79Z" fill="black"/>
<path d="M242.05 349.84C239.29 349.84 237.06 347.6 237.06 344.84C237.06 342.07 239.3 339.84 242.06 339.84C244.83 339.84 247.06 342.08 247.06 344.85C247.06 347.61 244.82 349.84 242.06 349.84H242.05Z" fill="black"/>
<path d="M229.19 344.98C229.16 342.22 231.37 339.96 234.14 339.93C236.9 339.9 239.16 342.11 239.19 344.87C239.22 347.63 237.01 349.89 234.25 349.93H234.19C231.45 349.93 229.22 347.72 229.19 344.98Z" fill="black"/>
<path d="M229.31 347.84C229.19 345.08 231.33 342.75 234.09 342.63C236.85 342.5 239.18 344.64 239.31 347.4C239.43 350.16 237.29 352.49 234.53 352.62H234.3C231.64 352.62 229.43 350.52 229.31 347.84Z" fill="black"/>
<path d="M242.04 352.69C239.27 352.67 237.06 350.41 237.08 347.65C237.1 344.89 239.36 342.66 242.12 342.69C244.88 342.71 247.1 344.97 247.08 347.73C247.05 350.48 244.82 352.69 242.08 352.69H242.04Z" fill="black"/>
<path d="M242.06 365.68C239.3 365.68 237.06 363.43 237.06 360.67C237.07 357.91 239.31 355.67 242.07 355.68C244.83 355.68 247.06 357.92 247.06 360.68C247.06 363.44 244.82 365.68 242.07 365.68H242.06Z" fill="black"/>
<path d="M234.22 365.78C231.49 365.78 229.26 363.59 229.22 360.85C229.18 358.09 231.39 355.82 234.15 355.78L241.99 355.67H242.06C244.79 355.67 247.02 357.86 247.06 360.6C247.1 363.36 244.89 365.63 242.13 365.67L234.29 365.78H234.22Z" fill="black"/>
<mask id="mask7_2554_4094" style="mask-type:luminance" maskUnits="userSpaceOnUse" x="0" y="0" width="524" height="424">
<path d="M523.2 0H0V423.47H523.2V0Z" fill="white"/>
</mask>
<g mask="url(#mask7_2554_4094)">
<path d="M298.43 113.96C298.43 111.2 300.65 108.95 303.41 108.94C306.17 108.94 308.42 111.16 308.43 113.92C308.44 116.69 306.21 118.93 303.45 118.94H303.43C300.68 118.94 298.44 116.72 298.43 113.96Z" fill="black"/>
<path d="M302.18 118.82C301.84 118.74 301.72 118.77 300.91 118.46C298.35 117.43 297.12 114.52 298.15 111.95C299.12 109.56 301.73 108.32 304.16 109.02C306.8 109.59 308.52 112.16 308.02 114.83C307.56 117.23 305.47 118.91 303.11 118.91C302.8 118.91 302.49 118.88 302.18 118.82Z" fill="black"/>
<path d="M297.77 114.9C297.6 114.3 297.5 113.8 297.48 113.01C297.48 110.25 299.72 108.01 302.48 108.01C305.06 108.01 307.19 109.96 307.46 112.47C307.96 114.97 306.49 117.48 304 118.24C303.52 118.38 303.03 118.45 302.55 118.45C300.41 118.45 298.42 117.06 297.77 114.9Z" fill="black"/>
<path d="M297.48 77.26C297.48 74.51 299.72 72.27 302.48 72.27C305.24 72.27 307.48 74.5 307.48 77.26C307.48 80.03 305.24 82.27 302.48 82.27C299.72 82.27 297.48 80.03 297.48 77.26Z" fill="black"/>
<path d="M296.21 46.4603C293.45 46.4303 291.23 44.1703 291.26 41.4103C291.29 38.6503 293.55 36.4303 296.31 36.4603C299.07 36.4903 301.28 38.7503 301.26 41.5103C301.23 44.2503 299 46.4603 296.26 46.4603H296.21Z" fill="black"/>
<path d="M291.26 28.3901C291.26 25.6301 293.5 23.3901 296.26 23.3901C299.02 23.3901 301.26 25.6301 301.26 28.3901C301.26 31.1501 299.02 33.3901 296.26 33.3901C293.5 33.3901 291.26 31.1501 291.26 28.3901Z" fill="black"/>
<path d="M316.83 28.3901C316.83 25.6301 319.07 23.3901 321.83 23.3901C324.59 23.3901 326.83 25.6301 326.83 28.3901C326.83 31.1601 324.59 33.3901 321.83 33.3901C319.07 33.3901 316.83 31.1501 316.83 28.3901Z" fill="black"/>
<path d="M316.85 41.4402C316.85 38.6802 319.08 36.4402 321.85 36.4302C324.61 36.4302 326.85 38.6602 326.85 41.4302C326.85 44.1802 324.62 46.4302 321.86 46.4302C319.1 46.4302 316.86 44.2002 316.85 41.4402Z" fill="black"/>
<path d="M310.58 41.6001C310.54 38.8401 312.75 36.5701 315.51 36.5301C318.27 36.4801 320.54 38.6901 320.58 41.4501C320.62 44.2101 318.42 46.4801 315.65 46.5201C315.65 46.5201 315.6 46.5201 315.58 46.5201C312.85 46.5201 310.62 44.3201 310.58 41.5901V41.6001Z" fill="black"/>
<path d="M310.57 77.71C310.57 74.95 312.81 72.71 315.58 72.71C318.34 72.71 320.57 74.95 320.57 77.71C320.57 80.47 318.33 82.71 315.58 82.71C312.81 82.71 310.57 80.47 310.57 77.71Z" fill="black"/>
<path d="M329.47 299.29C329.47 296.54 331.71 294.3 334.47 294.3C337.23 294.3 339.47 296.54 339.47 299.29C339.47 302.06 337.23 304.3 334.47 304.3C331.71 304.3 329.47 302.06 329.47 299.29Z" fill="black"/>
<path d="M329.46 284.15C329.46 281.39 331.7 279.15 334.46 279.15C337.22 279.15 339.46 281.39 339.46 284.15C339.46 286.91 337.23 289.15 334.46 289.15C331.7 289.16 329.47 286.92 329.46 284.15Z" fill="black"/>
<path d="M329.42 266.17C329.42 263.41 331.65 261.16 334.41 261.16C337.17 261.15 339.42 263.38 339.42 266.15C339.42 268.91 337.2 271.15 334.43 271.16C331.67 271.16 329.43 268.93 329.42 266.17Z" fill="black"/>
<path d="M328.33 271.13C325.57 271.13 323.34 268.88 323.35 266.12C323.35 263.36 325.61 261.12 328.37 261.13C331.14 261.15 333.36 263.39 333.35 266.16C333.34 268.91 331.11 271.13 328.35 271.13H328.33Z" fill="black"/>
<path d="M323.15 263.45C323.15 260.69 325.39 258.45 328.15 258.45C330.91 258.45 333.15 260.69 333.15 263.45C333.15 266.21 330.91 268.45 328.15 268.45C325.39 268.45 323.15 266.21 323.15 263.45Z" fill="black"/>
<path d="M328.18 258.05C325.41 258.05 323.19 255.79 323.2 253.03C323.21 250.26 325.46 248.04 328.22 248.05C330.99 248.05 333.21 250.32 333.2 253.08C333.19 255.83 330.95 258.05 328.21 258.05H328.18Z" fill="black"/>
<path d="M348.75 253.04C348.75 250.28 350.99 248.04 353.75 248.04C356.51 248.04 358.75 250.27 358.75 253.03C358.75 255.8 356.52 258.03 353.76 258.03C350.99 258.04 348.75 255.8 348.75 253.04Z" fill="black"/>
<path d="M348.79 266.11C348.78 263.35 351.01 261.1 353.77 261.09C356.53 261.09 358.78 263.32 358.79 266.08C358.79 268.84 356.56 271.09 353.8 271.09C351.04 271.09 348.8 268.86 348.8 266.11H348.79Z" fill="black"/>
<path d="M342.45 266.28C342.4 263.52 344.6 261.24 347.36 261.2C350.12 261.15 352.4 263.36 352.44 266.12C352.49 268.87 350.29 271.15 347.53 271.2H347.44C344.72 271.2 342.49 269.01 342.45 266.28Z" fill="black"/>
<path d="M342.44 294.22C342.44 291.46 344.68 289.23 347.44 289.23C350.2 289.23 352.44 291.47 352.44 294.23C352.43 296.99 350.2 299.23 347.43 299.23C344.67 299.23 342.44 296.99 342.44 294.22Z" fill="black"/>
<path d="M334.42 327.24C331.66 327.24 329.43 324.99 329.43 322.24C329.43 319.47 331.68 317.24 334.44 317.24C337.2 317.24 339.43 319.48 339.43 322.25C339.43 325 337.19 327.24 334.43 327.24H334.42Z" fill="black"/>
<path d="M334.44 308.13C331.68 308.13 329.44 305.89 329.44 303.13C329.44 300.37 331.68 298.13 334.44 298.13C337.21 298.13 339.44 300.37 339.44 303.13C339.44 305.9 337.2 308.13 334.45 308.13H334.44Z" fill="black"/>
<path d="M334.45 308.13H334.4C331.64 308.1 329.42 305.84 329.45 303.08L329.49 299.24C329.52 296.49 331.75 294.29 334.49 294.29H334.54C337.3 294.32 339.52 296.58 339.49 299.34L339.45 303.18C339.42 305.93 337.19 308.13 334.45 308.13Z" fill="black"/>
<path d="M324.9 201.05C322.19 200.49 320.45 197.84 321.01 195.14C321.56 192.44 324.21 190.69 326.92 191.25C329.62 191.81 331.36 194.45 330.8 197.16C330.32 199.52 328.24 201.15 325.92 201.15C325.58 201.15 325.24 201.12 324.9 201.05Z" fill="black"/>
<path d="M320.9 168.37C320.9 165.61 323.13 163.37 325.89 163.37C328.66 163.37 330.89 165.61 330.89 168.37C330.89 171.13 328.66 173.37 325.9 173.37C323.13 173.37 320.9 171.13 320.9 168.37Z" fill="black"/>
<path d="M319.56 173.26C316.79 173.21 314.6 170.94 314.65 168.18C314.69 165.42 316.97 163.22 319.73 163.26C322.49 163.31 324.69 165.59 324.64 168.35C324.59 171.08 322.37 173.26 319.65 173.26H319.56Z" fill="black"/>
<path d="M319.66 160.21C316.9 160.21 314.67 157.97 314.67 155.2C314.67 152.44 316.92 150.21 319.68 150.21C322.44 150.21 324.68 152.46 324.67 155.23C324.67 157.98 322.43 160.21 319.68 160.21H319.66Z" fill="black"/>
<path d="M340.22 155.21C340.22 152.45 342.46 150.2 345.22 150.2C347.99 150.2 350.22 152.44 350.23 155.2C350.23 157.96 347.99 160.2 345.22 160.2C342.46 160.2 340.22 157.97 340.22 155.21Z" fill="black"/>
<path d="M340.25 168.27C340.24 165.51 342.48 163.27 345.24 163.26C348 163.26 350.24 165.49 350.25 168.26C350.25 171.02 348.02 173.26 345.26 173.27C342.5 173.27 340.25 171.04 340.25 168.27Z" fill="black"/>
<path d="M334.01 168.41C333.97 165.65 336.18 163.38 338.94 163.35C341.7 163.31 343.97 165.52 344.01 168.28C344.04 171.04 341.83 173.31 339.07 173.35H339.01C336.28 173.35 334.04 171.15 334.01 168.41Z" fill="black"/>
<path d="M338.97 201.24C336.21 201.23 333.97 199 333.98 196.23C333.98 193.47 336.22 191.24 338.98 191.24C341.74 191.24 343.98 193.48 343.97 196.24C343.97 199 341.74 201.24 338.98 201.24H338.97Z" fill="black"/>
<path d="M324.14 196.38C324.11 193.62 326.33 191.35 329.09 191.33C331.85 191.3 334.11 193.52 334.14 196.28C334.17 199.05 331.95 201.3 329.19 201.33H329.14C326.39 201.33 324.16 199.12 324.14 196.38Z" fill="black"/>
<path d="M329.15 201.33C329.06 201.33 328.96 201.33 328.87 201.33L325.65 201.15C322.89 201 320.78 198.64 320.94 195.88C321.09 193.12 323.45 191 326.21 191.17L329.43 191.35C332.19 191.5 334.3 193.86 334.14 196.62C333.99 199.28 331.79 201.34 329.15 201.34V201.33Z" fill="black"/>
</g>
<path d="M387.27 294.01C387.27 291.24 389.5 289.01 392.27 289.01C395.03 289.01 397.27 291.24 397.27 294.01C397.27 296.77 395.03 299.01 392.27 299.01C389.5 299.01 387.27 296.77 387.27 294.01ZM387.27 266.95C387.27 264.19 389.5 261.95 392.27 261.95C395.03 261.95 397.27 264.19 397.27 266.95C397.27 269.71 395.03 271.95 392.27 271.95C389.5 271.95 387.27 269.71 387.27 266.95Z" fill="black"/>
<path d="M374.17 321.07C374.17 318.3 376.41 316.07 379.17 316.07C381.93 316.07 384.17 318.3 384.17 321.07C384.17 323.83 381.93 326.07 379.17 326.07C376.41 326.07 374.17 323.83 374.17 321.07Z" fill="black"/>
<path d="M374.17 294.01C374.17 291.25 376.41 289.01 379.17 289.01C381.93 289.01 384.17 291.25 384.17 294.01C384.17 296.77 381.93 299.01 379.17 299.01C376.41 299.01 374.17 296.77 374.17 294.01ZM374.17 266.95C374.17 264.19 376.41 261.95 379.17 261.95C381.93 261.95 384.17 264.19 384.17 266.95C384.17 269.71 381.93 271.95 379.17 271.95C376.41 271.95 374.17 269.71 374.17 266.95Z" fill="black"/>
<path d="M387.26 239.89C387.26 237.13 389.5 234.89 392.26 234.89C395.03 234.89 397.27 237.13 397.27 239.89C397.27 242.65 395.03 244.89 392.26 244.89C389.5 244.89 387.26 242.65 387.26 239.89Z" fill="black"/>
<path d="M387.27 156.71C387.27 153.95 389.51 151.71 392.27 151.71C395.03 151.71 397.26 153.95 397.26 156.71C397.26 159.47 395.03 161.71 392.27 161.71C389.51 161.71 387.27 159.47 387.27 156.71ZM387.27 131.17C387.27 128.41 389.51 126.17 392.27 126.17C395.03 126.17 397.26 128.41 397.26 131.17C397.26 133.93 395.03 136.17 392.27 136.17C389.51 136.17 387.27 133.93 387.27 131.17Z" fill="black"/>
<path d="M374.17 182.25C374.17 179.48 376.41 177.25 379.17 177.25C381.93 177.25 384.17 179.48 384.17 182.25C384.17 185.01 381.93 187.25 379.17 187.25C376.41 187.25 374.17 185.01 374.17 182.25Z" fill="black"/>
<path d="M374.17 156.71C374.17 153.95 376.41 151.71 379.17 151.71C381.93 151.71 384.17 153.95 384.17 156.71C384.17 159.47 381.93 161.71 379.17 161.71C376.41 161.71 374.17 159.47 374.17 156.71ZM374.17 131.17C374.17 128.41 376.41 126.17 379.17 126.17C381.93 126.17 384.17 128.41 384.17 131.17C384.17 133.93 381.93 136.17 379.17 136.17C376.41 136.17 374.17 133.93 374.17 131.17Z" fill="black"/>
<path d="M387.26 105.63C387.26 102.87 389.5 100.64 392.26 100.64C395.03 100.64 397.27 102.87 397.27 105.63C397.27 108.39 395.03 110.63 392.26 110.63C389.5 110.63 387.26 108.39 387.26 105.63Z" fill="black"/>
<path d="M404.76 47.1402C402 47.1402 399.77 44.8902 399.78 42.1302C399.78 39.3602 402.03 37.1302 404.79 37.1402C407.55 37.1402 409.78 39.3902 409.78 42.1502C409.77 44.9002 407.53 47.1402 404.78 47.1402H404.76Z" fill="black"/>
<path d="M391.92 47.1202C389.16 47.1102 386.92 44.8702 386.93 42.1102C386.93 39.3502 389.17 37.1102 391.94 37.1202C394.7 37.1202 396.93 39.3702 396.93 42.1202C396.93 44.8902 394.68 47.1202 391.92 47.1202Z" fill="black"/>
<path d="M386.93 5.00977C386.93 2.24977 389.17 0.00976562 391.93 0.00976562C394.69 0.00976562 396.94 2.24977 396.93 5.00977C396.93 7.76977 394.69 10.0098 391.93 10.0098C389.17 10.0098 386.93 7.76977 386.93 5.00977Z" fill="black"/>
<path d="M399.33 5.01C399.33 2.24 401.56 0 404.32 0C407.08 0 409.32 2.24 409.33 5C409.33 7.76 407.09 10 404.33 10C401.57 10 399.33 7.77 399.33 5.01Z" fill="black"/>
<path d="M399.34 29.1699C399.33 26.4099 401.57 24.1699 404.33 24.1699C407.1 24.1699 409.33 26.4099 409.34 29.1699C409.34 31.9299 407.1 34.1699 404.34 34.1699C401.57 34.1699 399.34 31.9299 399.34 29.1699Z" fill="black"/>
<path d="M399.8 31.16C399.21 28.52 400.83 25.88 403.46 25.22C406.14 24.55 408.85 26.17 409.53 28.85C409.7 29.54 409.8 30.28 409.8 31.01C409.81 33.78 407.58 36.02 404.82 36.03H404.8C402.08 36.03 399.87 33.86 399.8 31.16Z" fill="black"/>
<path d="M195.9 396.731C193.14 396.731 190.9 394.49 190.9 391.72C190.91 388.96 193.15 386.721 195.91 386.731C198.67 386.731 200.91 388.971 200.91 391.731C200.9 394.491 198.67 396.731 195.91 396.731H195.9Z" fill="black"/>
<path d="M174.95 396.69C172.19 396.69 169.96 394.45 169.96 391.68C169.97 388.92 172.21 386.69 174.97 386.69C177.73 386.7 179.96 388.94 179.96 391.7C179.96 394.46 177.72 396.69 174.97 396.69H174.95Z" fill="black"/>
<path d="M169.96 363.43C169.96 360.67 172.2 358.43 174.96 358.43C177.72 358.43 179.96 360.67 179.96 363.43C179.96 366.19 177.72 368.43 174.96 368.43C172.2 368.43 169.96 366.19 169.96 363.43ZM169.96 335.17C169.96 332.41 172.2 330.17 174.96 330.17C177.72 330.17 179.96 332.41 179.96 335.17C179.96 337.93 177.72 340.17 174.96 340.17C172.2 340.17 169.96 337.93 169.96 335.17ZM169.96 306.91C169.96 304.15 172.2 301.91 174.96 301.91C177.72 301.91 179.96 304.15 179.96 306.91C179.96 309.67 177.72 311.91 174.96 311.91C172.2 311.91 169.96 309.67 169.96 306.91Z" fill="black"/>
<path d="M182.57 278.62C182.56 275.86 184.79 273.61 187.55 273.61C190.31 273.59 192.56 275.82 192.57 278.59C192.58 281.35 190.35 283.59 187.58 283.61H187.57C184.82 283.61 182.58 281.38 182.57 278.62Z" fill="black"/>
<path d="M183.07 280.22C182.51 277.63 184.06 275.04 186.63 274.33C189.29 273.6 192.04 275.16 192.78 277.83C192.97 278.57 193.05 279.09 193.06 279.86C193.06 282.62 190.82 284.86 188.06 284.86C185.42 284.86 183.25 282.81 183.07 280.22Z" fill="black"/>
<path d="M183.06 345.68C183.06 342.91 185.3 340.68 188.06 340.68C190.82 340.68 193.06 342.91 193.06 345.68C193.06 348.44 190.82 350.68 188.06 350.68C185.3 350.68 183.06 348.44 183.06 345.68ZM183.06 312.77C183.06 310.01 185.3 307.77 188.06 307.77C190.82 307.77 193.06 310.01 193.06 312.77C193.06 315.53 190.82 317.77 188.06 317.77C185.3 317.77 183.06 315.53 183.06 312.77Z" fill="black"/>
<path d="M195.86 383.66C193.1 383.64 190.88 381.37 190.92 378.62C190.94 375.85 193.2 373.64 195.96 373.66C198.73 373.69 200.94 375.95 200.91 378.72C200.89 381.46 198.65 383.66 195.91 383.66H195.86Z" fill="black"/>
<path d="M172.22 166.42C172.22 163.65 174.45 161.41 177.21 161.41C179.98 161.4 182.22 163.64 182.22 166.4C182.22 169.16 179.99 171.4 177.23 171.41C174.47 171.41 172.22 169.17 172.22 166.42Z" fill="black"/>
<path d="M172.64 169.01C171.97 168.04 171.51 166.96 171.49 165.48C171.49 162.73 173.73 160.49 176.49 160.49C178.81 160.49 180.75 162.06 181.32 164.19C182.18 166.28 181.53 168.76 179.62 170.14C178.74 170.78 177.71 171.08 176.7 171.08C175.15 171.08 173.62 170.36 172.64 169.01Z" fill="black"/>
<path d="M176.5 140.53C173.74 140.53 171.5 138.29 171.5 135.53C171.5 132.77 173.74 130.53 176.5 130.53C179.26 130.53 181.5 132.77 181.5 135.53C181.5 138.29 179.26 140.53 176.51 140.53H176.5Z" fill="black"/>
<path d="M189.57 110.62C186.81 110.61 184.57 108.37 184.58 105.61C184.6 102.84 186.84 100.61 189.6 100.62C192.36 100.62 194.6 102.88 194.58 105.64C194.57 108.4 192.34 110.62 189.59 110.62H189.57Z" fill="black"/>
<path d="M184.59 129.44C184.59 126.68 186.82 124.44 189.59 124.44C192.35 124.44 194.59 126.68 194.59 129.44C194.59 132.2 192.35 134.44 189.59 134.44C186.83 134.44 184.59 132.2 184.59 129.44Z" fill="black"/>
<path d="M197.39 158.32C194.63 158.3 192.41 156.04 192.42 153.28C192.44 150.52 194.7 148.3 197.46 148.32C200.22 148.34 202.44 150.59 202.42 153.35C202.41 156.1 200.17 158.32 197.43 158.32H197.39Z" fill="black"/>
<path d="M192.44 166.38C192.44 163.62 194.67 161.38 197.44 161.38C200.2 161.38 202.44 163.61 202.44 166.37C202.45 169.13 200.21 171.38 197.45 171.38C194.69 171.38 192.45 169.15 192.44 166.38Z" fill="black"/>
<path d="M212.33 25.2201C212.3 22.4601 214.52 20.2001 217.28 20.1701C220.04 20.1501 222.3 22.3701 222.32 25.1301C222.35 27.8901 220.13 30.1501 217.37 30.1701H217.32C214.58 30.1701 212.35 27.9701 212.33 25.2201Z" fill="black"/>
<path d="M216.61 32.7598C213.86 32.4498 211.88 29.9798 212.19 27.2298C212.49 24.4898 214.96 22.5098 217.71 22.8098C220.45 23.1198 222.43 25.5898 222.13 28.3398C221.84 30.8998 219.68 32.7898 217.16 32.7898C216.98 32.7898 216.79 32.7798 216.61 32.7598Z" fill="black"/>
<path d="M191.52 27.7798C191.52 25.0198 193.76 22.7798 196.52 22.7798C199.28 22.7798 201.52 25.0198 201.52 27.7798C201.52 30.5498 199.28 32.7798 196.52 32.7798C193.76 32.7798 191.52 30.5398 191.52 27.7798Z" fill="black"/>
<path d="M191.52 6.0498C191.52 3.2898 193.76 1.0498 196.52 1.0498C199.28 1.0498 201.52 3.2898 201.52 6.0498C201.52 8.8098 199.28 11.0498 196.52 11.0498C193.76 11.0498 191.52 8.8098 191.52 6.0498Z" fill="black"/>
<path d="M204.4 6.0498C204.4 3.2898 206.64 1.0498 209.41 1.0498C212.17 1.0498 214.4 3.2898 214.4 6.0598C214.4 8.8198 212.16 11.0498 209.4 11.0498C206.64 11.0498 204.4 8.8098 204.4 6.0498Z" fill="black"/>
<path d="M204.42 14.78C204.41 12.01 206.65 9.77002 209.41 9.77002C212.17 9.77002 214.41 12 214.42 14.76C214.42 17.52 212.19 19.76 209.43 19.77H209.41C206.66 19.77 204.42 17.53 204.42 14.78Z" fill="black"/>
<path d="M217.21 19.7901C214.45 19.7901 212.22 17.5401 212.23 14.7801C212.23 12.0101 214.48 9.78007 217.25 9.79007C220.01 9.79007 222.24 12.0501 222.23 14.8101C222.22 17.5701 219.98 19.7901 217.23 19.7901H217.21Z" fill="black"/>
</g>
<defs>
<clipPath id="clip0_2554_4094">
<rect width="523.2" height="423.47" fill="white"/>
</clipPath>
</defs>
</svg>
