<svg width="287" height="256" viewBox="0 0 287 256" fill="none" xmlns="http://www.w3.org/2000/svg">
<g clip-path="url(#clip0_2554_10966)">
<mask id="mask0_2554_10966" style="mask-type:luminance" maskUnits="userSpaceOnUse" x="0" y="0" width="287" height="256">
<path d="M286.62 0H0V255.77H286.62V0Z" fill="white"/>
</mask>
<g mask="url(#mask0_2554_10966)">
<path d="M108.84 39.8398C108.83 39.2198 107.8 38.9698 107.35 38.9798L94.6797 39.1998C94.3997 39.1998 94.0197 39.7298 94.0297 40.0898L96.2497 160.54L96.7897 188.23C96.6797 189.38 95.0797 188.97 94.3897 188.98L79.6397 189.19C79.0097 189.2 78.7997 188.14 78.7897 187.53L76.5097 57.3998L76.2397 55.0598C76.1297 54.1698 75.7397 53.2298 75.5197 52.3498C74.0097 46.1098 68.9597 41.2198 62.6997 40.1498L57.3397 39.2298L49.7497 39.3598C46.6197 39.8898 43.6497 40.5298 40.8897 42.0598C35.9197 45.5098 33.8097 49.8098 33.0997 55.7098L32.6697 59.2298L34.9397 189.48C34.3897 190.36 33.6497 190.04 32.8797 190.05L19.3797 190.29C18.6497 190.3 17.9497 190.7 17.3197 190.01L14.7297 41.3198C14.3097 40.8598 13.8497 40.6098 13.2597 40.6198L0.609727 40.8398C0.399727 40.8398 -0.0302734 41.2998 -0.0302734 41.5398L2.64973 195L2.77973 196.94C2.84973 198.14 2.99973 199.31 2.86973 200.51C2.79973 201.05 2.88973 201.53 2.89973 202.09L3.25973 212.23L3.92973 215.24C4.63973 218.41 5.92973 220.43 7.81973 223.07C9.15973 224.94 12.3597 227.31 14.5497 228.24L16.4097 229.04C17.4497 229.48 18.4697 229.79 19.5997 229.9L23.4297 230.27C25.2597 230.45 27.2097 230.48 29.0297 230.19L32.1697 229.67C33.1497 229.51 33.9097 229.29 34.8197 228.97C38.7397 227.61 41.9897 225.32 44.4697 221.91C45.8797 219.98 47.6897 216.43 48.0397 214.14L48.6097 210.34L46.3297 79.4398C46.3097 78.5198 46.5897 77.9398 47.5597 77.9198L63.0897 77.6598C63.3397 77.6598 63.7297 78.2298 63.7397 78.5498L66.0397 210.51C66.0597 211.65 66.4897 212.55 66.7697 213.55C66.9997 214.34 67.1097 215.3 67.4197 216.01L68.1397 217.6C69.7597 221.2 73.1897 224.72 76.6897 226.62C77.3797 227 80.7997 228.45 81.4297 228.54C84.5597 229.02 89.5797 229.59 92.5897 229.08L96.0897 228.49C96.8497 228.36 97.5597 228.1 98.2797 227.82C102.34 226.25 105.29 224.25 107.76 220.61C109.32 218.3 109.76 217.42 110.56 214.63C110.86 213.6 111.27 212.52 111.34 211.45L111.5 208.9L110.76 160.32L108.79 39.8598L108.84 39.8398Z" fill="#90BEFB"/>
<path d="M283.73 54.0207L284.7 109.731L284.32 111.421L283.64 114.451C283.43 115.381 282.82 116.471 282.37 117.331C280.54 120.851 277.53 122.761 273.8 123.811C272.25 124.251 270.8 124.381 269.22 124.631L267.07 124.971L251.95 125.281C251.59 125.281 251.16 126.151 251.17 126.511L251.19 131.751L250.86 132.921L252.48 225.841L239.97 226.081C239.54 226.081 239.03 225.961 238.8 225.721C238.62 225.521 238.52 225.081 238.52 224.601L235.25 37.1707C235.67 36.1907 236.51 36.4107 237.31 36.4007L248.97 36.2207L250.07 99.0407L250.69 99.5107L250.87 107.441C250.89 108.611 252.27 108.301 252.9 108.291L267.04 108.021C267.84 108.011 268.81 107.831 269.33 107.211C269.93 106.501 270.37 105.381 270.39 104.441L270.5 98.8007L269.49 36.9107C274.31 37.7707 278.45 40.5107 280.79 44.8007C282.25 47.4907 282.27 47.8307 282.92 50.5707L283.73 54.0507V54.0207Z" fill="#90BEFB"/>
<path d="M286.62 219.81L285.65 164.1L285.21 162.42L284.42 159.42C284.18 158.5 283.53 157.43 283.05 156.58C281.1 153.13 278.03 151.33 274.26 150.4C272.7 150.02 271.24 149.94 269.65 149.75L267.49 149.49L252.37 149.71C252.01 149.71 251.55 148.87 251.54 148.51L251.38 143.27L251.01 142.12L249.39 49.1904L236.88 49.3904C236.45 49.3904 235.94 49.5404 235.73 49.7904C235.56 50.0004 235.48 50.4304 235.49 50.9204L238.76 238.35C239.21 239.32 240.05 239.06 240.84 239.05L252.5 238.82L251.4 176L252 175.51L251.9 167.58C251.88 166.41 253.27 166.67 253.9 166.66L268.05 166.44C268.85 166.43 269.82 166.57 270.37 167.17C271 167.86 271.47 168.96 271.53 169.9L271.83 175.53L272.98 237.42C277.77 236.4 281.81 233.51 284 229.14C285.36 226.4 285.37 226.06 285.92 223.3L286.61 219.79L286.62 219.81Z" fill="#90BEFB"/>
<path d="M191.25 39.5402C191.24 38.6302 192.95 38.4402 193.49 38.8202L208.02 38.5702C210.11 38.5302 210.93 41.3102 210.95 42.4202L211.38 67.3702C211.39 68.2302 210.84 69.4302 210.31 70.0202C209.3 71.1702 207.91 71.3202 206.65 71.2602C204.35 71.1602 202.1 71.2202 199.78 71.3402L197.88 71.4302L194.02 71.6202C193.39 71.6502 191.81 71.5402 191.79 70.5702L191.26 39.5402H191.25ZM192.92 88.6202L209.48 88.3002C209.99 88.3002 210.79 88.1202 211.3 88.0202L214.2 87.4602C217.57 86.8202 221.6 84.7902 223.22 81.6102C225.05 78.0002 224.62 78.8502 225.65 74.4702L224.68 19.0402C224.65 17.1102 223.95 15.4702 223.65 13.6502C223.3 11.4402 221.34 7.55023 219.89 6.04023C216.78 2.82023 214.03 1.48023 209.57 0.660234C208.45 0.450234 207.26 0.150234 206.13 0.110234L202.74 -0.00976562L177.62 0.360234C176.94 0.360234 176.18 0.610234 176.19 1.47023L179.47 189.32C179.91 190.29 180.76 190.04 181.55 190.02L193.21 189.79L192.11 126.85C192.54 126.66 192.73 126.45 192.72 126.14L192.61 118.56C192.59 117.39 193.97 117.65 194.61 117.64L208.76 117.42C209.55 117.41 210.53 117.55 211.08 118.15C211.71 118.84 212.18 119.93 212.23 120.88L212.54 126.51L213.7 188.43C218.67 187.28 222.56 184.41 224.7 180.13C225.79 177.95 226.3 176.69 226.61 174.27C226.77 173.06 227.32 171.81 227.3 170.47L226.35 115.36C226.34 114.74 226.07 113.93 225.93 113.4L225.13 110.39C224.88 109.46 224.24 108.4 223.76 107.55C222.43 105.18 220.57 103.57 218.14 102.46C215.04 101.04 213.24 101.07 210.36 100.72L208.2 100.46L193.08 100.68C192.72 100.68 192.25 99.8502 192.25 99.4102L192.08 89.6302C192.08 89.2302 192.46 88.6202 192.91 88.6202" fill="#90BEFB"/>
<path d="M154.279 213.25L153.399 215.52L151.539 216.26L137.949 216.49C135.709 216.06 135.469 215.94 134.809 213.58L132.949 106.87C132.799 105.54 135.129 104.08 135.419 104.08L149.829 103.81C151.349 104.53 152.209 105.64 152.429 107.32L154.279 213.25ZM165.579 79.94C165.169 78.02 164.689 76.15 163.759 74.48C162.699 72.59 161.579 70.83 159.979 69.42C157.839 67.53 154.879 65.85 152.129 65.22L149.369 64.58C148.799 64.44 148.019 64.4 147.379 64.36L145.309 64.22C142.849 64.05 136.529 64.28 134.199 64.93L130.769 65.88C129.949 66.11 129.069 66.66 128.269 67.03C124.589 68.78 121.939 71.81 120.319 75.49C119.889 76.47 119.569 77.31 119.319 78.39C119.069 79.45 118.659 80.52 118.559 81.62L118.249 84.92C118.199 85.48 118.039 86.18 118.049 86.83L120.639 235.17C120.639 235.17 121.699 241.31 121.789 241.55C122.179 242.67 122.409 243.78 122.889 244.8C124.019 247.22 125.359 249.44 127.459 251.13C129.109 252.45 131.019 253.6 133.039 254.25C135.079 254.92 138.669 255.82 140.679 255.78L149.899 255.62C153.979 255.05 157.949 254.1 161.369 251.61C164.689 249.19 166.379 246.39 167.679 242.54C168.019 241.53 169.029 236.13 169.019 235.48L166.369 83.81C166.349 82.44 165.849 81.19 165.589 79.96" fill="#90BEFB"/>
</g>
</g>
<defs>
<clipPath id="clip0_2554_10966">
<rect width="286.62" height="255.78" fill="white"/>
</clipPath>
</defs>
</svg>
