<svg width="178" height="239" viewBox="0 0 178 239" fill="none" xmlns="http://www.w3.org/2000/svg">
<g clip-path="url(#clip0_2547_6361)">
<path d="M169.85 107.01C168.83 106.31 167.64 105.36 166.54 104.87L160.66 102.28L156.85 101.01C154.32 100.16 152.01 99.32 149.31 99.05C146.99 98.82 144.92 97.6 142.63 97.19L134.78 95.76L131.62 95.1C127.02 94.14 122.37 94.86 117.86 96.02C116.21 96.44 114.76 96.7 113.35 97.69L109.39 100.49C108.63 101.02 108.29 102.3 107.79 103.04C106.63 104.75 106.33 106.58 105.6 108.51L103.43 114.21L101.88 120.89C101.48 122.62 101.27 124.24 101.33 126.04C101.35 126.63 101.18 127.35 101.16 127.93C101.07 130.32 101.1 132.62 101.19 134.99C101.35 138.94 102.29 142.59 102.92 146.48L103.61 150.65C103.91 152.48 104.68 154.04 105.54 155.65C105.98 156.46 106.24 157.36 106.57 158.23C107.05 159.49 107.76 160.65 108.38 161.85C109.48 164.01 110.83 166.35 112.34 168.21L113.86 170.09C116.63 173.51 124.25 179.03 128.75 179.82L131.63 180.32C133.88 180.72 136.03 181.13 138.26 181.67C139.09 181.88 139.74 183.34 139.77 184.09L139.9 188.85L140.46 193.95C140.64 195.63 141.11 197.33 141.21 199C141.34 201.16 141.39 203.17 141.71 205.32C141.86 206.37 141.92 207.4 142 208.48C142.07 209.51 142.57 211.62 141.3 211.99C140.99 212.08 140.28 211.9 140.02 211.65C138.65 210.37 137.36 209.14 136.15 207.76L133.87 205.14C132.06 203.06 131.3 200.4 131.1 197.68C130.46 195.13 130.02 192.69 128.95 190.32C126.89 185.79 123.85 181.93 119.65 179.23C118.75 178.64 117.56 178.38 116.76 177.71C114.78 176.04 112.33 175.58 109.83 175.32C106.17 174.93 102.91 176.64 100.59 179.33C99.1298 181.01 98.5098 182.67 98.5098 184.93C98.5098 187.19 99.1098 189.09 100.67 190.86C102.09 192.49 103.83 193.73 106.06 194.3C108.12 194.83 110.08 195.84 111.1 197.89C111.58 198.85 111.48 200.2 111.74 201.24L113.52 208.27C113.91 209.77 114.39 211.22 115.18 212.49C116.63 214.79 119.61 218.93 121.4 220.83C122.82 222.34 124.18 223.95 125.86 225.17L129.39 227.76L131.3 229.01C134.38 231.03 137.6 232.81 141.38 233.36C143.14 233.52 144.54 233.52 146.19 233.38C148.89 232.65 151.76 231.97 154.03 230.23C155.74 228.92 158.64 225.87 159.58 223.84C160.11 222.71 160.68 221.61 161.04 220.43C162.31 216.25 162.22 211.61 162.09 207.23C162.07 206.65 161.93 205.93 161.89 205.33L161.67 202.58L161.47 200.05C161.17 196.38 159.88 193.2 159.36 188.29C159.14 186.3 158.67 184.41 158.8 182.4C158.88 181.17 158.7 180.03 158.31 178.86L155.57 170.44C155.34 169.77 155.18 169 155.03 168.34L153.95 167.72L150.82 164.92C149.88 164.09 148.95 163.44 147.66 163.22L141.54 162.2L138.36 161.96C136.41 161.81 134.31 161.31 132.58 160.45C131.28 159.8 130.22 158.85 128.99 158.09C127.96 157.47 127.71 156.14 127.14 155.14C125.93 153.04 125.31 150.86 124.36 148.62L122.83 144.98C122.43 144.05 120.93 135.98 120.79 134.58C120.21 128.24 121.46 123.48 123.65 117.62C124.57 115.16 126.23 114.7 128.88 115.16L133.75 116L138.55 117.02C141.35 117.61 144.18 117.89 146.92 118.77C148.82 119.38 150.52 120.27 152.52 120.52C153.16 120.6 153.72 120.82 154.33 121C155.82 121.44 157.6 120.92 159.15 121.25L161.77 121.78C164.86 122.41 167.96 122.5 170.87 121.24C176.76 118.7 172.33 110.53 169.89 106.99L169.85 107.01Z" fill="#90BEFA"/>
<path d="M64.7891 135.22C64.4191 134.24 63.8891 133.31 63.4391 132.35L59.0691 123.23C57.5091 119.97 56.4091 116.61 55.6291 113.06C55.2091 111.16 55.1391 109.29 55.2091 107.36C55.2791 104.92 55.0291 102.63 54.8691 100.22L54.6491 97.0499C54.5491 95.6599 54.5791 94.2399 54.6491 92.8399L54.8291 89.6699C55.1491 84.2099 56.6891 78.1199 56.1791 73.3499C56.0091 71.7499 56.0491 70.2599 56.2591 68.6599C56.3991 67.6299 56.1191 66.5199 56.1091 65.5099L56.0291 56.0399C56.0091 54.0699 55.5691 54.5199 55.7491 50.5199C55.8391 48.5299 54.8491 46.3999 53.5891 44.8799C52.1391 43.1399 50.3091 41.9799 48.2791 41.1199C46.2391 40.2499 44.1091 40.8299 42.1691 41.7099C40.5991 42.4299 39.5091 43.4399 38.4091 44.7099C37.3991 45.8699 36.3191 46.8699 36.1691 48.6099C36.0091 50.4899 36.0591 52.4899 36.1891 54.4499C36.3491 56.7799 36.2591 59.0899 36.1891 61.4199L36.0091 67.1999L35.5591 73.6799L35.3891 76.0199L35.2191 78.7499L35.0791 81.9699L34.9291 89.2399C34.9091 90.4299 34.8991 91.4799 34.9291 92.6699L35.0691 98.0899L35.2591 100.21L35.8291 104C36.3891 107.78 37.2791 111.34 38.2891 115L39.2991 118.67C40.5791 123.33 44.3191 128.39 45.0291 134.15C45.2091 135.65 45.1191 137.29 45.0291 138.82L44.8191 142.16C44.6391 144.95 44.1391 147.56 43.5191 150.29L42.4591 154.96C42.0291 156.87 41.8991 158.84 41.6191 160.81L41.2491 163.37C40.6491 167.57 44.6491 171.73 48.0291 173.64C49.9191 174.7 52.4691 174.74 54.4291 173.86C56.6891 172.84 58.5691 171.12 59.9491 169.11C61.0791 167.45 61.2991 165.46 61.5491 163.5C62.0091 159.94 62.7291 156.44 63.8991 153.05C64.6391 150.93 64.9891 148.92 65.4191 146.73C65.8791 144.39 66.2391 142.24 65.6691 139.82C65.3191 138.35 65.3291 136.67 64.7691 135.23L64.7891 135.22Z" fill="#90BEFA"/>
<path d="M29.3096 8.08994C28.2596 7.21994 27.0596 6.57994 25.6796 6.44994L21.0396 4.93994C19.7296 5.40994 18.6696 5.81994 17.4596 6.35994C16.4696 6.81994 15.0996 7.08994 14.2796 7.76994C12.4196 9.29994 10.9996 10.4899 8.79957 11.6099C8.26957 11.8799 7.38957 12.2599 6.96957 12.6899C5.49957 14.2299 4.35957 16.1599 3.62957 18.1599C2.88957 20.2099 4.72957 23.2399 5.60957 25.2399C6.06957 26.2999 6.70957 27.1799 7.56957 27.9499C8.39957 28.6999 9.23957 29.5599 10.2896 30.0499C12.9596 31.3199 15.0996 32.1099 18.0896 32.5199C21.5996 32.9999 23.0696 31.9199 26.4896 30.9099C27.9496 30.4699 29.0896 29.5599 30.2796 28.5999C32.7096 26.6599 34.1596 23.8699 34.6796 20.7899C35.3596 16.8599 34.7196 13.0699 31.8296 10.1699C31.0796 9.40994 30.1596 8.76994 29.3096 8.05994V8.08994Z" fill="#90BEFA"/>
<path d="M121.68 129.67C118.93 129.92 116.91 132.36 117.16 135.11C117.39 137.7 119.57 139.65 122.13 139.65C122.28 139.65 122.44 139.65 122.59 139.63C125.34 139.38 127.37 136.95 127.12 134.2C126.86 131.45 124.43 129.42 121.68 129.67Z" fill="#1D1D1B"/>
<path d="M128.769 143.1C127.689 140.56 124.759 139.37 122.209 140.45C119.669 141.53 118.489 144.47 119.569 147.01C119.839 147.65 120.239 148.19 120.709 148.64C120.709 149.31 120.829 149.98 121.099 150.64C121.639 151.93 122.669 152.85 123.869 153.33C123.309 154.71 123.349 156.31 124.149 157.7C124.489 158.3 124.939 158.79 125.449 159.18C125.719 160.49 126.499 161.68 127.729 162.43C128.339 162.8 128.999 163.02 129.659 163.12C130.129 163.89 130.809 164.56 131.679 165C132.389 165.36 133.159 165.53 133.909 165.53C134.559 165.53 135.199 165.4 135.799 165.15C136.629 166.19 137.869 166.91 139.309 167.02C139.439 167.02 139.569 167.02 139.699 167.02C140.129 167.02 140.539 166.95 140.939 166.85C141.429 167.06 141.949 167.21 142.509 167.25C142.629 167.26 142.759 167.26 142.879 167.26C143.759 167.26 144.579 167.02 145.299 166.61C146.029 167.42 147.019 168.02 148.179 168.21C148.249 168.22 148.319 168.21 148.379 168.23C148.529 168.4 148.659 168.57 148.839 168.72C149.399 169.21 150.039 169.54 150.709 169.75C150.989 170.4 151.399 171.01 151.959 171.51C151.989 171.54 152.019 171.55 152.049 171.58C152.089 171.75 152.109 171.93 152.169 172.1C152.789 173.91 154.329 175.14 156.099 175.43C154.839 176.72 154.299 178.63 154.899 180.46C154.999 180.77 155.139 181.06 155.289 181.34C155.229 181.6 155.179 181.86 155.159 182.13C155.069 183.53 155.559 184.83 156.429 185.8C155.889 186.7 155.609 187.78 155.739 188.9C156.019 191.46 158.179 193.35 160.699 193.35C160.879 193.35 161.069 193.35 161.259 193.32C163.999 193.02 165.979 190.55 165.679 187.8C165.559 186.72 165.089 185.77 164.409 185.02C164.809 184.36 165.069 183.61 165.129 182.78C165.189 181.79 164.959 180.85 164.509 180.04C164.709 179.18 164.699 178.27 164.409 177.37C163.809 175.53 162.239 174.29 160.449 174C161.739 172.7 162.269 170.74 161.639 168.89C161.559 168.66 161.449 168.46 161.349 168.25C161.299 166.58 160.419 164.97 158.869 164.07L158.329 163.76C158.239 163.71 158.139 163.68 158.039 163.63C157.629 163.36 157.189 163.14 156.729 163.01C156.449 162.36 156.039 161.75 155.469 161.24C154.679 160.54 153.729 160.14 152.759 160.02C152.019 159.17 151.019 158.55 149.819 158.35C148.659 158.15 147.539 158.39 146.589 158.92C145.759 158 144.589 157.37 143.249 157.27C142.689 157.23 142.149 157.3 141.629 157.44C141.139 157.23 140.629 157.08 140.069 157.04C139.269 156.98 138.509 157.13 137.819 157.41C137.379 156.86 136.829 156.38 136.149 156.04C135.639 155.79 135.119 155.65 134.589 155.58C134.279 155.06 133.859 154.59 133.349 154.2C133.249 153.69 133.079 153.19 132.809 152.71C132.219 151.69 131.329 150.98 130.319 150.58C130.809 149.39 130.839 148.02 130.299 146.74C130.029 146.09 129.629 145.54 129.159 145.08C129.159 144.42 129.039 143.74 128.759 143.09L128.769 143.1Z" fill="#1D1D1B"/>
<path d="M168.23 205.29C168.23 205.19 168.24 205.09 168.23 204.99C168.19 204.51 168.07 204.07 167.91 203.65C168 203.2 168.06 202.74 168.02 202.25C167.98 201.81 167.87 201.39 167.73 200.99C167.8 200.57 167.84 200.15 167.81 199.71C167.59 196.96 165.18 194.91 162.43 195.13C159.67 195.35 157.62 197.77 157.85 200.52C157.89 200.96 157.99 201.37 158.13 201.76C158.06 202.18 158.01 202.6 158.05 203.04C158.09 203.52 158.21 203.98 158.37 204.41C158.28 204.86 158.23 205.32 158.27 205.79C158.29 206.01 158.34 206.23 158.38 206.44C158.38 206.62 158.38 206.8 158.39 206.99C158.43 207.29 158.44 207.44 158.45 207.44C158.53 210.15 160.75 212.29 163.44 212.29C163.49 212.29 163.54 212.29 163.59 212.29C166.35 212.21 168.52 209.91 168.44 207.15C168.42 206.52 168.35 206.06 168.31 205.7C168.29 205.56 168.24 205.43 168.21 205.3L168.23 205.29Z" fill="#1D1D1B"/>
<path d="M163.86 215.7C161.21 214.9 158.42 216.39 157.62 219.03C157.48 219.48 157.43 219.93 157.42 220.37C157.02 220.77 156.66 221.24 156.41 221.79C155.87 222.95 155.83 224.22 156.18 225.35C154.87 225.14 153.49 225.44 152.36 226.31C151.32 227.1 150.69 228.22 150.48 229.41C149.3 228.55 147.77 228.2 146.25 228.6C145.86 228.7 145.51 228.86 145.17 229.04C144.58 228.71 143.92 228.49 143.2 228.43C140.44 228.19 138.02 230.21 137.77 232.96C137.52 235.71 139.55 238.15 142.3 238.39C142.45 238.41 142.6 238.41 142.75 238.41C143.61 238.41 144.41 238.18 145.12 237.79C145.85 238.2 146.68 238.43 147.55 238.43C147.98 238.43 148.42 238.38 148.85 238.26C150.78 237.74 152.12 236.16 152.46 234.32C153.32 234.95 154.36 235.28 155.4 235.28C156.44 235.28 157.52 234.95 158.43 234.26C160.13 232.95 160.75 230.77 160.16 228.83C160.42 228.87 160.68 228.9 160.94 228.9C162.82 228.9 164.63 227.83 165.48 226.01C165.78 225.36 165.92 224.69 165.94 224.02C166.5 223.46 166.94 222.75 167.18 221.94C167.99 219.3 166.5 216.51 163.86 215.7Z" fill="#1D1D1B"/>
<path d="M135.41 224.88C135.08 224.66 134.73 224.5 134.38 224.38C134.12 224.11 133.83 223.85 133.5 223.63C132.91 223.24 132.27 223 131.62 222.89C131.28 222.24 130.8 221.66 130.18 221.19C129.43 220.64 128.58 220.35 127.72 220.27C127.59 219.25 127.17 218.26 126.41 217.45C124.51 215.44 121.35 215.35 119.34 217.24C117.33 219.13 117.23 222.3 119.13 224.31C119.99 225.22 121.11 225.71 122.27 225.83C122.43 227.15 123.11 228.41 124.27 229.26C124.91 229.73 125.62 230.01 126.36 230.14C126.74 230.86 127.28 231.51 128.01 231.99C128.35 232.21 128.7 232.37 129.06 232.5C129.32 232.77 129.6 233.02 129.93 233.24C130.77 233.8 131.72 234.06 132.66 234.06C134.29 234.06 135.89 233.27 136.85 231.8C138.36 229.5 137.72 226.4 135.41 224.88Z" fill="#1D1D1B"/>
<path d="M120.78 209.88C120.52 209.47 120.2 209.12 119.85 208.81C119.91 208.24 119.88 207.66 119.73 207.08C119.38 205.7 118.48 204.61 117.33 203.97C118.04 202.85 118.31 201.46 117.96 200.07C117.84 199.59 117.63 199.16 117.39 198.76C117.56 197.75 117.43 196.69 116.94 195.71C116.03 193.88 114.14 192.86 112.22 192.96C111.74 191.33 110.46 189.99 108.7 189.52C108.06 189.36 107.42 189.33 106.81 189.41C106.61 188.78 106.28 188.17 105.82 187.64C105.46 187.23 105.04 186.91 104.6 186.64C104.78 186.12 104.9 185.57 104.9 184.99C104.9 184.5 104.81 184.03 104.67 183.58C105.06 183.33 105.44 183.04 105.76 182.67C107.56 180.58 107.33 177.42 105.24 175.61C103.15 173.81 99.9997 174.04 98.1897 176.13C97.0397 177.46 96.7297 179.22 97.1897 180.8C95.8097 181.69 94.8896 183.23 94.8896 184.99C94.8896 186.75 95.8896 188.41 97.3596 189.28C96.7896 190.92 97.0696 192.81 98.2896 194.21C99.2696 195.34 100.66 195.92 102.06 195.92C102.27 195.92 102.48 195.89 102.69 195.87C103.19 197.45 104.46 198.75 106.19 199.2C106.61 199.31 107.03 199.36 107.45 199.36C107.53 199.36 107.61 199.34 107.69 199.34C107.77 199.62 107.87 199.91 108.01 200.18C108.06 200.29 108.13 200.38 108.19 200.49C108.08 201.15 108.1 201.84 108.27 202.52C108.63 203.91 109.53 205.01 110.68 205.66C109.97 206.78 109.7 208.18 110.06 209.57C110.32 210.58 110.88 211.42 111.61 212.06C111.51 213.12 111.72 214.23 112.33 215.2C113.28 216.71 114.9 217.54 116.56 217.54C117.47 217.54 118.4 217.29 119.22 216.77C121.56 215.3 122.26 212.21 120.79 209.88H120.78Z" fill="#1D1D1B"/>
<path d="M147.95 206.55C148.09 205.96 148.14 205.33 148.05 204.69C147.89 203.6 147.39 202.65 146.68 201.92C147.31 201.03 147.66 199.94 147.59 198.76C147.52 197.67 147.1 196.69 146.45 195.9C146.76 195.15 146.91 194.33 146.81 193.47C146.71 192.54 146.34 191.7 145.81 191.01C146.18 190.21 146.36 189.31 146.25 188.37C146.17 187.65 145.94 186.99 145.59 186.41C145.95 185.69 146.17 184.89 146.14 184.02C146.1 182.57 145.44 181.3 144.43 180.41C143.96 178.73 142.65 177.34 140.84 176.89C139.5 176.55 138.14 176.8 137.05 177.46C136.32 176.45 135.21 175.7 133.88 175.47C133.37 175.38 132.87 175.39 132.38 175.45C131.95 175.23 131.49 175.05 130.98 174.96C128.78 174.58 126.68 175.72 125.7 177.6C125.34 176.61 124.69 175.73 123.75 175.11C123.13 174.7 122.45 174.47 121.76 174.36C121.63 174.22 121.51 174.07 121.36 173.95C120.76 173.45 120.07 173.12 119.36 172.94C120.56 171.16 120.54 168.76 119.12 167.01C118.86 166.68 118.55 166.42 118.23 166.18C118.06 165.82 117.86 165.47 117.6 165.14C116.8 164.15 115.7 163.57 114.54 163.37C114.9 162.18 114.83 160.85 114.22 159.66C113.89 159.02 113.44 158.48 112.92 158.06C112.9 157.55 112.81 157.03 112.62 156.52C112.44 156.05 112.18 155.64 111.89 155.26C111.83 154.61 111.64 153.96 111.31 153.35C110.95 152.68 110.45 152.14 109.87 151.71C109.99 151.13 110.02 150.53 109.92 149.92C109.8 149.17 109.5 148.49 109.09 147.9C109.28 147.22 109.35 146.49 109.22 145.74C108.77 143.01 106.19 141.17 103.47 141.62C100.75 142.07 98.8997 144.65 99.3497 147.37C99.4797 148.12 99.7797 148.79 100.18 149.38C99.9897 150.06 99.9297 150.79 100.05 151.53C100.27 152.88 101.01 153.99 102.03 154.74C101.81 155.84 101.93 157.03 102.51 158.1C102.65 158.36 102.81 158.6 102.99 158.82C103.03 159.24 103.11 159.67 103.27 160.08C103.59 160.92 104.12 161.62 104.77 162.16C104.8 162.85 104.97 163.54 105.3 164.19C106.05 165.66 107.42 166.6 108.93 166.85C108.55 168.13 108.7 169.54 109.39 170.75C107.71 171.41 106.43 172.94 106.23 174.86C105.95 177.6 107.94 180.06 110.68 180.35C110.86 180.37 111.04 180.38 111.21 180.38C112.06 180.38 112.86 180.15 113.57 179.76C113.87 180.44 114.31 181.07 114.92 181.59C115.65 182.21 116.51 182.57 117.39 182.71C117.66 182.99 117.95 183.26 118.29 183.48C119.14 184.03 120.08 184.29 121.02 184.29C122.65 184.29 124.25 183.49 125.21 182.02C125.31 181.87 125.37 181.72 125.44 181.57C126.03 183.2 127.43 184.49 129.27 184.81C129.56 184.86 129.85 184.88 130.13 184.88C130.34 184.88 130.55 184.85 130.76 184.82C131.18 185.03 131.63 185.21 132.12 185.3C132.42 185.35 132.72 185.38 133.01 185.38C133.94 185.38 134.83 185.11 135.6 184.64C135.81 184.93 136.06 185.2 136.33 185.45C136.44 185.87 136.62 186.26 136.83 186.63C136.4 187.47 136.19 188.44 136.3 189.46C136.41 190.4 136.77 191.24 137.3 191.94C136.94 192.73 136.76 193.62 136.86 194.55C136.97 195.55 137.38 196.45 137.98 197.18C137.7 197.85 137.56 198.59 137.6 199.36C137.64 199.97 137.79 200.54 138.02 201.06C137.6 200.78 137.15 200.56 136.68 200.42C137.4 199.3 137.68 197.9 137.33 196.51C136.93 194.95 135.83 193.76 134.46 193.17C135.4 191.78 135.62 189.95 134.88 188.31C133.74 185.79 130.77 184.68 128.26 185.82C125.75 186.97 124.63 189.93 125.78 192.44C126.31 193.62 127.24 194.48 128.34 194.96C127.58 196.09 127.27 197.52 127.63 198.95C128.08 200.73 129.42 202.03 131.05 202.52C129.89 204.34 129.98 206.76 131.47 208.48C131.87 208.94 132.35 209.29 132.86 209.57C133.07 210.11 133.35 210.64 133.76 211.1C134.51 211.95 135.47 212.49 136.51 212.7C136.71 213.68 137.2 214.62 137.99 215.36C138.79 216.11 139.77 216.52 140.77 216.65C141.37 216.9 142.01 217.05 142.68 217.05C143.14 217.05 143.6 216.99 144.06 216.86C146.53 216.15 148.01 213.71 147.59 211.23C148.15 210.36 148.46 209.31 148.38 208.2C148.34 207.61 148.18 207.06 147.95 206.54V206.55Z" fill="#1D1D1B"/>
<path d="M99.0301 131.54C98.0801 132.49 97.5101 133.81 97.5601 135.26C97.6701 137.95 99.8901 140.06 102.56 140.06H102.76C105.52 139.95 107.67 137.62 107.56 134.86C107.51 133.54 106.94 132.38 106.07 131.52C106.93 130.66 107.48 129.5 107.53 128.19C107.53 127.95 107.51 127.72 107.49 127.49C107.63 127 107.72 126.48 107.7 125.94C107.68 125.24 107.51 124.57 107.22 123.98C107.63 123.44 107.95 122.81 108.12 122.1C108.42 120.8 108.18 119.5 107.56 118.43C108.59 117.75 109.38 116.7 109.68 115.41C109.88 114.52 109.82 113.65 109.57 112.84C110.49 112.28 111.24 111.44 111.65 110.35C112.03 109.35 112.06 108.3 111.81 107.34C112.38 106.98 112.9 106.51 113.3 105.91C113.63 105.42 113.84 104.89 113.98 104.35C114.53 103.89 114.95 103.33 115.25 102.72C116.07 102.63 116.89 102.35 117.62 101.84C117.96 101.6 118.24 101.32 118.5 101.02C118.74 101.06 118.99 101.08 119.24 101.08C119.65 101.08 120.07 101.03 120.48 100.92C123.16 100.24 124.77 97.5097 124.08 94.8397C123.4 92.1597 120.68 90.5498 118 91.2398C116.97 91.4998 116.1 92.0698 115.46 92.8198C114.24 92.6398 112.94 92.8998 111.85 93.6698C111.13 94.1798 110.6 94.8598 110.25 95.5998C109.43 95.6898 108.62 95.9498 107.9 96.4598C106.89 97.1698 106.24 98.1898 105.95 99.2998C105.61 99.5898 105.29 99.9098 105.03 100.3C104.19 101.54 104 103.01 104.34 104.35C103.44 104.91 102.7 105.74 102.3 106.8C101.89 107.87 101.9 108.99 102.2 110.01C101.09 110.69 100.25 111.78 99.9401 113.15C99.6401 114.45 99.8801 115.74 100.5 116.8C99.4801 117.48 98.6901 118.53 98.3901 119.82C98.1201 120.96 98.2801 122.1 98.7501 123.08C98.0701 123.96 97.6601 125.07 97.7001 126.27C97.7001 126.39 97.7301 126.5 97.7501 126.62C97.6401 127 97.5601 127.4 97.5401 127.82C97.4901 129.27 98.0701 130.59 99.0301 131.54Z" fill="#1D1D1B"/>
<path d="M131.98 100.05C132.33 100.13 132.67 100.16 133.01 100.16C133.22 100.16 133.43 100.13 133.63 100.11C134.09 100.38 134.59 100.6 135.14 100.71C135.48 100.78 135.83 100.82 136.16 100.82C137.44 100.82 138.64 100.31 139.55 99.4701C140.23 100.83 141.51 101.87 143.11 102.16C143.42 102.22 143.72 102.25 144.02 102.25C144.86 102.25 145.67 102.03 146.39 101.64C147.17 102.97 148.55 103.92 150.2 104.08C150.36 104.1 150.52 104.11 150.69 104.11C151.8 104.11 152.83 103.72 153.67 103.09C154.22 104.32 155.25 105.33 156.63 105.8C157.16 105.98 157.7 106.06 158.23 106.06C158.38 106.06 158.53 106.04 158.68 106.02C159.18 106.48 159.78 106.85 160.46 107.08C160.98 107.25 161.52 107.34 162.04 107.34C162.52 107.34 163 107.26 163.45 107.13C163.95 108.15 164.78 109.01 165.9 109.5C166.28 109.66 166.68 109.76 167.07 109.83C167.41 110.34 167.84 110.81 168.38 111.18C169.25 111.77 170.24 112.06 171.22 112.06C172.81 112.06 174.37 111.3 175.34 109.9C176.91 107.62 176.33 104.51 174.06 102.94C173.44 102.52 172.76 102.26 172.06 102.14C171.55 101.38 170.83 100.74 169.93 100.34C168.81 99.8501 167.62 99.8201 166.53 100.14C165.96 98.9801 164.95 98.0301 163.62 97.5901C162.94 97.3601 162.25 97.3001 161.58 97.3601C161.08 96.9101 160.49 96.5501 159.82 96.3201C158.2 95.7701 156.5 96.1101 155.23 97.0701C154.52 95.4901 153.02 94.3101 151.17 94.1301C150.13 94.0301 149.14 94.2501 148.29 94.7101C147.58 93.5101 146.38 92.5901 144.9 92.3301C143.29 92.0301 141.73 92.5601 140.61 93.5901C139.95 92.2701 138.73 91.2401 137.18 90.9201C136.62 90.8001 136.07 90.8101 135.54 90.8801C135.08 90.6001 134.58 90.3801 134.02 90.2601C131.32 89.7001 128.67 91.4401 128.11 94.1401C127.54 96.8401 129.28 99.4901 131.98 100.05Z" fill="#1D1D1B"/>
<path d="M176.79 119.33C175.7 116.79 172.76 115.63 170.22 116.72C168.92 117.29 167.98 118.34 167.53 119.58C166.86 118.28 165.65 117.27 164.1 116.96C163.64 116.87 163.19 116.86 162.75 116.89C162.35 116.69 161.94 116.51 161.48 116.42C160.35 116.19 159.25 116.38 158.29 116.85C157.91 116.62 157.52 116.41 157.07 116.28C156.94 116.24 156.82 116.24 156.69 116.21C156.52 116.14 156.36 116.05 156.18 116C155.74 115.87 155.16 115.72 154.46 115.63C153.69 115.53 152.95 115.63 152.26 115.87C151.66 115.06 150.83 114.43 149.8 114.09C147.88 113.47 145.88 114.08 144.59 115.46C144.03 113.86 142.69 112.58 140.92 112.2C140.04 112.02 139.18 112.09 138.39 112.34C137.77 111.79 137.01 111.36 136.13 111.18C135.18 110.98 134.24 111.08 133.38 111.39C132.73 110.86 131.96 110.46 131.08 110.31C128.94 109.94 126.9 111 125.89 112.78C123.55 112.35 121.17 113.63 120.31 115.94C119.34 118.52 120.66 121.41 123.24 122.37C123.82 122.59 124.41 122.69 124.99 122.69C126.77 122.69 128.45 121.74 129.35 120.15C129.35 120.15 129.36 120.15 129.37 120.15C129.66 120.2 129.94 120.22 130.23 120.22C130.82 120.22 131.4 120.11 131.94 119.92C132.54 120.41 133.24 120.79 134.05 120.96C134.4 121.03 134.75 121.07 135.09 121.07C135.61 121.07 136.12 120.98 136.6 120.82C137.23 121.37 137.98 121.79 138.86 121.98C139.21 122.05 139.55 122.08 139.89 122.08C141.3 122.08 142.62 121.48 143.55 120.48C144.05 121.9 145.16 123.09 146.71 123.59C147.22 123.76 147.74 123.84 148.26 123.84C148.81 123.84 149.34 123.74 149.85 123.57C150.63 124.61 151.82 125.36 153.22 125.54C153.23 125.54 153.27 125.56 153.35 125.58C153.49 125.62 153.64 125.64 153.78 125.67C153.93 125.73 154.08 125.81 154.24 125.86C154.72 126 155.19 126.07 155.66 126.07C156.43 126.07 157.18 125.88 157.86 125.55C158.35 125.85 158.89 126.09 159.48 126.21C159.82 126.28 160.15 126.31 160.49 126.31C160.61 126.31 160.72 126.29 160.84 126.28C161.23 126.48 161.65 126.65 162.1 126.74C162.44 126.81 162.78 126.85 163.11 126.85C165.18 126.85 167.05 125.55 167.78 123.59C168.65 125.28 170.38 126.3 172.21 126.3C172.87 126.3 173.54 126.17 174.19 125.89C176.72 124.8 177.89 121.85 176.79 119.32V119.33Z" fill="#1D1D1B"/>
<path d="M63.5894 158.58C60.8494 158.23 58.3394 160.16 57.9794 162.89C57.8694 163.71 57.9994 164.51 58.2594 165.24C57.8694 165.55 57.4994 165.9 57.2094 166.33C56.6594 167.14 56.3894 168.05 56.3494 168.96C55.4894 168.86 54.5994 168.97 53.7594 169.35C53.3894 169.52 53.0594 169.73 52.7494 169.97C52.4794 169.73 52.1894 169.51 51.8594 169.33C49.4494 167.97 46.4094 168.83 45.0494 171.23C43.6994 173.64 44.5494 176.69 46.9594 178.04C47.7294 178.48 48.5794 178.69 49.4094 178.69C50.5094 178.69 51.5994 178.32 52.4794 177.63C53.3994 178.45 54.5894 178.91 55.8094 178.91C56.4994 178.91 57.1994 178.77 57.8594 178.47C59.6494 177.66 60.7094 175.94 60.7894 174.11C60.9694 174.13 61.1494 174.15 61.3294 174.15C62.9294 174.15 64.4994 173.39 65.4694 171.97C66.4094 170.59 66.5494 168.91 66.0294 167.45C67.0194 166.67 67.7194 165.53 67.8994 164.19C68.2594 161.45 66.3294 158.94 63.5894 158.58Z" fill="#1D1D1B"/>
<path d="M47.5797 164.13C47.6397 163.69 47.6297 163.25 47.5797 162.83C47.7497 162.43 47.8897 162.02 47.9497 161.57C48.1097 160.47 47.8797 159.41 47.3997 158.51C48.0397 157.87 48.5097 157.05 48.7197 156.1C48.9097 155.26 48.8497 154.43 48.6297 153.66C49.1797 153.05 49.5797 152.3 49.7797 151.44C50.1897 149.65 49.5597 147.88 48.3197 146.71C49.9197 145.96 51.0697 144.4 51.1897 142.52C51.2297 141.93 51.1397 141.37 50.9897 140.83C51.2097 140.31 51.3697 139.76 51.3997 139.17C51.4597 138.22 51.2297 137.33 50.8197 136.55C51.2897 135.67 51.5097 134.65 51.3797 133.59C51.0397 130.85 48.5497 128.9 45.8097 129.24C43.0597 129.58 41.1197 132.08 41.4597 134.82C41.5397 135.44 41.7197 136.02 41.9997 136.54C41.6797 137.15 41.4697 137.83 41.4197 138.56C41.3797 139.15 41.4697 139.71 41.6197 140.24C41.3997 140.75 41.2397 141.3 41.2097 141.9C41.1097 143.44 41.7397 144.85 42.7897 145.83C41.4497 146.46 40.3897 147.67 40.0297 149.23C39.8297 150.08 39.8897 150.93 40.1197 151.72C39.5797 152.33 39.1597 153.07 38.9597 153.92C38.6897 155.14 38.8997 156.34 39.4497 157.36C38.7197 158.09 38.2097 159.05 38.0497 160.15C37.9897 160.6 37.9997 161.03 38.0497 161.46C37.8797 161.86 37.7397 162.27 37.6797 162.72C37.2897 165.45 39.1897 167.99 41.9197 168.38C42.1597 168.41 42.3997 168.43 42.6397 168.43C45.0797 168.43 47.2197 166.63 47.5797 164.14V164.13Z" fill="#1D1D1B"/>
<path d="M42.0196 123.54C44.6796 122.8 46.2496 120.05 45.5096 117.39C45.3296 116.74 45.0296 116.16 44.6396 115.66C44.7196 115.03 44.6796 114.37 44.4996 113.72C43.7696 111.06 41.0196 109.5 38.3596 110.23C35.6996 110.96 34.1296 113.71 34.8596 116.37C35.0396 117.02 35.3496 117.59 35.7296 118.09C35.6496 118.72 35.6896 119.38 35.8696 120.04C36.4796 122.26 38.4996 123.72 40.6896 123.72C41.1296 123.72 41.5696 123.66 42.0196 123.54Z" fill="#1D1D1B"/>
<path d="M37.9599 109C40.6899 108.59 42.5799 106.05 42.1699 103.32C42.0699 102.64 41.8399 102.02 41.5099 101.47C41.6599 100.85 41.6999 100.19 41.5999 99.5198C41.5599 99.2698 41.4899 99.0298 41.4099 98.7898C41.4599 98.4298 41.4699 98.0598 41.4399 97.6798C41.3599 96.7998 41.0399 96.0098 40.5799 95.3298C41.0699 94.5298 41.3499 93.5898 41.3199 92.5898C41.3099 92.0198 41.1799 91.4898 40.9899 90.9898C41.1799 90.4798 41.2999 89.9398 41.3099 89.3598C41.3399 87.9298 40.7499 86.6498 39.7999 85.7198C40.7899 84.8298 41.4299 83.5598 41.4599 82.1198C41.5199 79.3598 39.3299 77.0798 36.5699 77.0198C33.8099 76.9598 31.5199 79.1598 31.4699 81.9198C31.4399 83.3598 32.0299 84.6598 32.9799 85.5898C31.9799 86.4898 31.3399 87.7698 31.3199 89.2198C31.3099 89.8498 31.4299 90.4598 31.6299 91.0198C31.4199 91.5898 31.3099 92.2098 31.3299 92.8498C31.3599 93.8498 31.6799 94.7798 32.2099 95.5498C31.6699 96.4398 31.3899 97.4898 31.4899 98.5998C31.5199 98.9698 31.5999 99.3198 31.7099 99.6598C31.6599 100.1 31.6399 100.55 31.7099 101.01C31.8099 101.68 32.0499 102.29 32.3799 102.83C32.2199 103.45 32.1799 104.11 32.2799 104.78C32.6499 107.27 34.7899 109.05 37.2199 109.05C37.4699 109.05 37.7099 109.03 37.9599 109Z" fill="#1D1D1B"/>
<path d="M38.9394 39.8501C37.8394 40.0401 36.7994 40.5701 36.0094 41.4701C35.2494 42.3501 34.8594 43.4201 34.8094 44.5001C33.5694 45.3101 32.6994 46.6501 32.5594 48.2401C32.4594 49.4901 32.8394 50.6601 33.5194 51.5901C32.8594 52.5001 32.4894 53.6301 32.5694 54.8401C32.6494 56.0801 33.1894 57.1601 33.9994 57.9901C33.1494 58.8601 32.6094 60.0201 32.5594 61.3201C32.5294 62.4001 32.8494 63.4001 33.3994 64.2301C32.8294 64.9901 32.4594 65.9201 32.3994 66.9401C32.2194 69.7001 34.3194 72.0701 37.0694 72.2401C37.1794 72.2401 37.2894 72.2401 37.3894 72.2401C40.0094 72.2401 42.2094 70.2001 42.3794 67.5501C42.4494 66.4201 42.1194 65.3601 41.5294 64.4801C42.1394 63.6801 42.5294 62.7001 42.5594 61.6101C42.5994 60.1901 42.0394 58.9001 41.1194 57.9701C42.0794 56.9901 42.6494 55.6301 42.5494 54.1501C42.4794 53.1801 42.1294 52.3001 41.5994 51.5601C42.1094 50.8501 42.4494 50.0001 42.5294 49.0701C42.5294 49.0101 42.5294 48.9601 42.5294 48.9001C42.8994 48.6601 43.2494 48.3801 43.5494 48.0301C43.9094 47.6201 44.1694 47.1501 44.3694 46.6701C44.7894 46.6001 45.2094 46.4801 45.6194 46.2901C46.1394 46.0501 46.5794 45.7301 46.9694 45.3601C47.1994 45.5101 47.4394 45.6501 47.6994 45.7601C48.3394 46.0301 48.9994 46.1601 49.6494 46.1601C49.8094 46.1601 49.9694 46.1401 50.1394 46.1201C50.3194 46.8301 50.6294 47.5201 51.1294 48.1201C51.4794 48.5401 51.8894 48.8901 52.3394 49.1701C52.2294 49.5401 52.1494 49.9301 52.1294 50.3301C52.0694 51.5301 52.4594 52.6301 53.1294 53.5301C52.6694 54.2901 52.3994 55.1801 52.4094 56.1301C52.4294 58.3501 53.8994 60.2001 55.9094 60.8401C53.9094 61.5101 52.4594 63.3801 52.4894 65.6001C52.4894 66.2201 52.6294 66.8101 52.8394 67.3601C52.7794 67.5801 52.7094 67.7901 52.6794 68.0201C52.5394 69.0801 52.7394 70.1001 53.1894 70.9801C52.7094 71.8501 52.4694 72.8601 52.5794 73.9201C52.8494 76.4801 55.0194 78.4001 57.5494 78.4001C57.7194 78.4001 57.8994 78.3901 58.0694 78.3701C60.8194 78.0901 62.8194 75.6301 62.5294 72.8801C62.4594 72.2501 62.2694 71.6701 61.9994 71.1401C62.2894 70.6101 62.4994 70.0201 62.5894 69.3901C62.7094 68.5201 62.5794 67.6801 62.2794 66.9101C62.4094 66.4601 62.4894 66.0001 62.4894 65.5101C62.4694 63.2901 60.9894 61.4401 58.9794 60.8101C60.9794 60.1401 62.4194 58.2601 62.4094 56.0401C62.3994 54.9401 62.0194 53.9301 61.3994 53.1101C61.8094 52.4301 62.0794 51.6501 62.1194 50.7901C62.2094 48.9201 61.2394 47.2701 59.7594 46.3401C60.2194 44.7901 59.9194 43.0501 58.8094 41.7201C57.7094 40.4001 56.0794 39.7901 54.4894 39.9501C54.1194 38.4901 53.1094 37.2001 51.6094 36.5601C49.7194 35.7601 47.6194 36.2101 46.2194 37.5301C44.8394 36.6501 43.0594 36.4701 41.4594 37.2001C40.2594 37.7501 39.3994 38.7101 38.9394 39.8401V39.8501Z" fill="#1D1D1B"/>
<path d="M52.1195 114.19C52.6395 116.52 54.7095 118.11 56.9995 118.11C57.3595 118.11 57.7195 118.07 58.0895 117.99C60.7795 117.4 62.4795 114.73 61.8895 112.03C61.7095 111.24 61.3395 110.54 60.8595 109.95C61.2795 109.24 61.5495 108.43 61.5795 107.55C61.6195 106.01 60.9495 104.63 59.8795 103.68C60.7995 102.7 61.3295 101.37 61.2295 99.92C61.1895 99.36 61.0395 98.85 60.8395 98.36C60.9695 97.85 61.0495 97.32 61.0095 96.76C60.9695 96.14 60.7995 95.56 60.5495 95.02C60.8195 94.46 60.9795 93.83 61.0195 93.17C61.0495 92.62 60.9695 92.09 60.8295 91.58C61.0295 91.09 61.1595 90.57 61.1995 90.02C61.3595 87.26 59.2495 84.9 56.4995 84.74C53.7395 84.58 51.3695 86.68 51.2095 89.44C51.1795 90 51.2595 90.54 51.3995 91.06C51.2095 91.55 51.0695 92.07 51.0395 92.62C50.9895 93.47 51.1795 94.27 51.5095 94.99C51.1595 95.74 50.9595 96.57 51.0295 97.45C51.0695 98.01 51.2195 98.53 51.4195 99.02C51.2895 99.53 51.2095 100.07 51.2495 100.62C51.3495 101.98 51.9895 103.18 52.9495 104.02C52.1495 104.88 51.6295 106.01 51.5895 107.27C51.5495 108.52 51.9895 109.66 52.7195 110.56C52.0895 111.62 51.8295 112.9 52.1195 114.19Z" fill="#1D1D1B"/>
<path d="M58.2798 118.77C55.7898 119.97 54.7398 122.95 55.9298 125.44C56.7898 127.24 58.5798 128.28 60.4398 128.28C61.1698 128.28 61.8998 128.13 62.5998 127.79C65.0898 126.6 66.1398 123.62 64.9498 121.12C63.7598 118.63 60.7698 117.58 58.2798 118.77Z" fill="#1D1D1B"/>
<path d="M71.9199 138.7C71.7399 137.94 71.3899 137.28 70.9299 136.72C71.2399 135.7 71.2499 134.59 70.8399 133.51C70.5899 132.85 70.2099 132.27 69.7499 131.8C69.6899 131.28 69.5599 130.76 69.3199 130.25C68.1299 127.76 65.1399 126.7 62.6499 127.9C60.1599 129.09 59.1099 132.07 60.2999 134.57C60.5399 135.06 60.8499 135.49 61.2099 135.87C61.2599 136.26 61.3399 136.65 61.4799 137.03C61.6799 137.55 61.9499 138.02 62.2899 138.43C62.0399 139.25 61.9799 140.13 62.1899 141.02C62.3899 141.86 62.7899 142.59 63.3299 143.19C63.2299 143.29 63.1499 143.39 63.0599 143.5C62.9399 143.63 62.8199 143.77 62.7199 143.91C62.6299 144.03 62.5699 144.17 62.4899 144.3C62.3999 144.45 62.3099 144.6 62.2399 144.76C62.1699 144.91 62.1299 145.07 62.0799 145.23C62.0399 145.36 61.9799 145.48 61.9499 145.61L60.4399 151.93C60.4399 151.93 60.4399 152.03 60.4199 152.08C60.3699 152.32 60.3399 152.56 60.3199 152.81C60.3199 152.9 60.3199 152.98 60.3199 153.07C60.3199 153.31 60.3299 153.55 60.3699 153.79C60.3799 153.87 60.3999 153.96 60.4099 154.04C60.4599 154.27 60.5199 154.5 60.5899 154.72C60.6199 154.8 60.6499 154.88 60.6799 154.96C60.7699 155.18 60.8699 155.38 60.9899 155.58C61.0299 155.66 61.0799 155.73 61.1299 155.81C61.2499 156 61.3899 156.18 61.5399 156.35C61.5999 156.42 61.6699 156.49 61.7299 156.56C61.8799 156.72 62.0399 156.86 62.2199 157C62.3099 157.07 62.3999 157.13 62.4899 157.2C62.6599 157.32 62.8399 157.42 63.0299 157.52C63.1399 157.58 63.2599 157.63 63.3799 157.68C63.4799 157.72 63.5599 157.78 63.6599 157.81C63.7799 157.85 63.9099 157.87 64.0299 157.9C64.0699 157.91 64.1099 157.93 64.1499 157.94C64.1999 157.95 64.2499 157.96 64.2899 157.97C64.4099 157.99 64.5199 158.02 64.6399 158.03C64.7799 158.05 64.9299 158.06 65.0699 158.07C65.1499 158.07 65.2199 158.09 65.2999 158.09C65.5799 158.09 65.8499 158.06 66.1299 158.02C66.1999 158.01 66.2699 157.99 66.3399 157.97C66.5199 157.93 66.7099 157.89 66.8899 157.83C67.0099 157.79 67.1199 157.74 67.2299 157.69C67.3599 157.64 67.4799 157.59 67.5999 157.52C67.7299 157.45 67.8499 157.38 67.9699 157.3C68.0699 157.24 68.1699 157.18 68.2599 157.11C68.3899 157.02 68.4999 156.92 68.6199 156.81C68.6999 156.74 68.7699 156.67 68.8499 156.6C68.9699 156.48 69.0799 156.36 69.1799 156.23C69.2399 156.16 69.2999 156.08 69.3499 156.01C69.4499 155.87 69.5499 155.72 69.6399 155.57C69.6799 155.49 69.7299 155.41 69.7699 155.33C69.8499 155.17 69.9199 155.01 69.9899 154.83C69.9999 154.79 70.0299 154.76 70.0399 154.71C70.0599 154.67 70.0599 154.62 70.0699 154.58C70.1099 154.46 70.1599 154.36 70.1799 154.24L71.6899 147.92C71.6899 147.92 71.6899 147.86 71.6999 147.83C71.6999 147.79 71.7299 147.75 71.7299 147.71C71.7599 147.56 71.7599 147.41 71.7699 147.26C71.7799 147.12 71.8099 146.97 71.8099 146.83C71.8099 146.62 71.7899 146.42 71.7699 146.22C71.7599 146.1 71.7499 145.98 71.7299 145.87C71.6899 145.66 71.6299 145.45 71.5599 145.25C71.5299 145.15 71.4999 145.05 71.4699 144.95C71.3899 144.75 71.2899 144.56 71.1799 144.37C71.1299 144.28 71.0899 144.18 71.0299 144.1C70.9199 143.92 70.7899 143.76 70.6499 143.6C70.6099 143.55 70.5699 143.48 70.5199 143.43C71.7399 142.24 72.3399 140.47 71.9199 138.7Z" fill="#1D1D1B"/>
<path d="M32.3897 33.62C32.4797 33.61 32.5597 33.59 32.6497 33.57C32.8197 33.54 32.9897 33.49 33.1497 33.44C33.2297 33.42 33.2997 33.39 33.3697 33.36C33.5897 33.28 33.8097 33.18 34.0197 33.07C34.0197 33.07 34.0397 33.07 34.0497 33.06C34.5897 32.77 35.0697 32.37 35.4797 31.88C35.4797 31.88 35.4897 31.87 35.4997 31.86C35.6897 31.63 35.8697 31.39 36.0197 31.12L40.3697 23.39C40.3697 23.39 40.3697 23.39 40.3697 23.38L40.4097 23.32C40.4397 23.27 40.4497 23.21 40.4797 23.15C40.5897 22.93 40.6897 22.71 40.7697 22.48C40.8097 22.35 40.8397 22.23 40.8697 22.1C40.8997 21.97 40.9497 21.85 40.9697 21.72C40.9697 21.67 40.9697 21.63 40.9697 21.58C40.9997 21.4 40.9997 21.22 41.0097 21.04C41.0097 20.89 41.0297 20.73 41.0097 20.58C41.0097 20.42 40.9697 20.26 40.9497 20.1C40.9197 19.94 40.8997 19.78 40.8597 19.62C40.8197 19.47 40.7597 19.32 40.7097 19.17C40.6597 19.02 40.6097 18.87 40.5397 18.73C40.4697 18.58 40.3797 18.44 40.2897 18.29C40.2097 18.16 40.1397 18.03 40.0497 17.91C39.9497 17.78 39.8397 17.65 39.7197 17.53C39.6097 17.41 39.5097 17.29 39.3897 17.18C39.2797 17.08 39.1597 16.99 39.0397 16.9C38.8897 16.79 38.7397 16.68 38.5797 16.58C38.5397 16.56 38.5097 16.53 38.4697 16.51C38.3797 16.46 38.2797 16.43 38.1897 16.39C38.0197 16.31 37.8597 16.23 37.6797 16.17C37.5197 16.11 37.3597 16.08 37.1997 16.04C37.0897 16.01 36.9797 15.97 36.8597 15.95C36.8097 15.95 36.7597 15.95 36.7097 15.94C36.5497 15.92 36.3797 15.91 36.2197 15.91C36.0497 15.91 35.8797 15.89 35.7097 15.91C35.5697 15.91 35.4397 15.94 35.3097 15.96C35.1197 15.99 34.9297 16.01 34.7497 16.06C34.6297 16.09 34.5097 16.14 34.3897 16.18C34.2097 16.24 34.0297 16.3 33.8497 16.39C33.7297 16.45 33.6197 16.52 33.4997 16.59C33.3397 16.68 33.1797 16.78 33.0297 16.89C32.9197 16.97 32.8297 17.06 32.7297 17.15C32.5797 17.28 32.4397 17.4 32.3097 17.55C32.2297 17.64 32.1597 17.74 32.0897 17.83C31.9597 18 31.8297 18.17 31.7197 18.36C31.6997 18.39 31.6797 18.41 31.6597 18.45L27.3897 26.03C27.0497 26.06 26.7197 26.12 26.3797 26.22C24.8097 26.7 23.6597 27.88 23.1397 29.32C22.3797 28.46 21.3297 27.84 20.0997 27.67C18.7197 27.48 17.3997 27.88 16.3797 28.66C15.9797 27.38 15.0897 26.26 13.7797 25.64C13.5597 25.54 13.3397 25.47 13.1197 25.4C12.8797 25.02 12.6097 24.66 12.2597 24.35C12.0897 24.2 11.8997 24.08 11.7197 23.95C11.6597 23.74 11.6097 23.53 11.5197 23.33C11.0297 22.22 10.1897 21.4 9.17973 20.89C9.36973 20.59 9.52973 20.28 9.65973 19.93C9.94973 19.12 9.99973 18.29 9.87973 17.49C10.5297 17.27 11.1297 16.93 11.6597 16.44C11.9197 16.36 12.1797 16.26 12.4297 16.13C13.7797 15.43 14.6597 14.19 14.9797 12.81C15.1897 12.84 15.4097 12.85 15.6197 12.85C16.7297 12.85 17.8597 12.48 18.7897 11.71C18.8997 11.62 18.9797 11.52 19.0697 11.43C19.6797 11.4 20.2997 11.25 20.8897 10.98C21.4197 10.74 21.8697 10.4 22.2697 10.01C22.3097 10.01 22.3397 10.01 22.3697 10.01C22.6997 10.01 23.0297 9.96999 23.3597 9.89999C23.9197 10.51 24.6197 11 25.4697 11.27C25.9697 11.44 26.4697 11.51 26.9697 11.52C27.1297 11.69 27.2797 11.86 27.4597 12.01C27.8997 12.37 28.3797 12.64 28.8897 12.83C29.0897 13.16 29.3197 13.48 29.5997 13.77C30.5797 14.76 31.8697 15.26 33.1597 15.26C34.4497 15.26 35.6997 14.78 36.6697 13.82C38.6397 11.88 38.6597 8.70999 36.7197 6.74999C36.1897 6.21999 35.5697 5.83999 34.9197 5.58999C34.6397 5.11999 34.2897 4.66999 33.8297 4.29999C32.9197 3.53999 31.8097 3.18999 30.7097 3.17999C30.1397 2.54999 29.4197 2.03999 28.5597 1.75999C27.7197 1.48999 26.8697 1.46999 26.0597 1.62999C24.7397 0.189987 22.6297 -0.400013 20.6797 0.309987C19.9797 0.559987 19.3797 0.959987 18.8797 1.44999C18.1497 1.43999 17.4097 1.56999 16.6997 1.88999C16.1697 2.12999 15.7097 2.46999 15.3197 2.85999C14.2997 2.91999 13.2897 3.27999 12.4397 3.97999C11.5497 4.70999 10.9997 5.68999 10.7597 6.72999C9.78973 6.59999 8.76973 6.75999 7.82973 7.23999C7.41973 7.44999 7.05973 7.72999 6.73973 8.02999C5.98973 8.27999 5.27973 8.67999 4.68973 9.29999C3.56973 10.46 3.14973 12.03 3.36973 13.51C1.96973 13.98 0.779726 15.04 0.249726 16.54C-0.610274 18.94 0.489726 21.54 2.69973 22.67C1.84973 24.02 1.66973 25.76 2.35973 27.33C2.74973 28.22 3.36973 28.93 4.11973 29.43C4.36973 30.28 4.82973 31.08 5.53973 31.72C6.08973 32.22 6.72973 32.56 7.38973 32.77C7.87973 33.55 8.57973 34.21 9.46973 34.64C10.1597 34.97 10.8997 35.12 11.6197 35.12C12.7197 35.12 13.7897 34.75 14.6597 34.08C15.2197 35.87 16.7597 37.28 18.7397 37.55C18.9697 37.58 19.1997 37.6 19.4297 37.6C21.5297 37.6 23.3997 36.26 24.1097 34.31C25.0497 35.36 26.3997 35.98 27.8297 35.98C28.3097 35.98 28.7897 35.92 29.2697 35.77C30.4697 35.41 31.4197 34.63 32.0397 33.65C32.1497 33.65 32.2497 33.63 32.3597 33.62H32.3897Z" fill="#1D1D1B"/>
</g>
<defs>
<clipPath id="clip0_2547_6361">
<rect width="177.21" height="238.43" fill="white"/>
</clipPath>
</defs>
</svg>
