<svg width="90" height="99" viewBox="0 0 90 99" fill="none" xmlns="http://www.w3.org/2000/svg">
<g clip-path="url(#clip0_2528_7355)">
<path d="M40.29 6.23C39.86 6.3 39.51 6.28 39.14 6.18H35.82C35.68 6.18 35.38 6.28 35.25 6.26C34.85 6.18 34.28 6.07 33.92 6.41C33.75 6.56 33.71 6.98 33.71 7.25V19.14C33.31 18.94 33.04 19.28 32.83 19.28L28.07 19.3C27.68 19.3 27.13 19.58 27.13 20.12V96.67C27.13 97.41 27.42 98.75 26.91 98.75H13.42C12.91 98.75 13.19 97.41 13.19 96.67V20.12C13.19 19.64 12.69 19.31 12.33 19.31L7.48 19.28C7.27 19.28 7 18.93 6.6 19.14V7.15C6.6 6.91 6.53 6.53 6.4 6.41C6.01 6.05 5.4 6.2 4.99 6.26C4.87 6.28 4.59 6.18 4.47 6.18H1.15C0.75 6.2 0.37 6.38 0 6.18V0.12C6.4 0.01 12.66 0.24 18.9 0H21.39C27.63 0 33.9 0 40.29 0.12V6.23Z" fill="#90BEFA"/>
<path d="M66.97 59.9495C61.47 59.9495 57.02 55.5095 57.02 50.0395C57.02 44.5695 61.48 40.1295 66.97 40.1295C72.46 40.1295 76.92 44.5695 76.92 50.0395C76.92 55.5095 72.47 59.9495 66.97 59.9495ZM89.33 44.6995C88.91 43.1195 88.12 42.4295 86.91 41.5295C85.25 40.2995 84.05 40.9795 83.34 40.1895C83.01 39.8195 83.14 39.4195 83.14 38.9695L83.12 26.3595C83.12 25.5395 82.33 23.7895 81.55 23.0195L81.01 22.4895C80.22 21.7095 79.12 21.2195 78 21.0395C77.61 20.9795 77.08 21.0395 76.81 20.8395C76.33 20.4595 76.54 20.0295 76.54 19.5995L76.52 13.6295C76.52 12.9795 76.29 12.2895 76.11 11.6595C75.97 11.1595 75.56 10.6695 75.26 10.2595C74.55 9.29947 73.23 8.43947 72.07 8.16947L71.06 7.93947C70.76 7.86947 70.11 7.71947 70.1 7.30947L70.03 4.12947C70.02 3.53947 69.81 2.81947 69.39 2.40947C68.7 1.73947 67.64 1.34947 66.72 1.44947C66.2 1.49947 65.7 1.69947 65.21 1.83947L64.91 2.10947C64.02 2.90947 63.8 3.65947 63.92 4.79947C64 5.52947 63.96 6.29947 63.96 7.04947C63.96 7.44947 63.69 7.74947 63.33 7.84947C60.83 8.55947 61.29 7.98947 59.12 9.74947C58.7 10.0895 58.47 10.6495 58.18 11.0895C57.81 11.6495 57.58 12.1695 57.52 12.8395C57.48 13.2295 57.28 13.6795 57.28 14.0895L57.26 20.6095C57.02 21.0495 56.44 21.0195 56.02 21.0295C55.62 21.0395 55.21 21.2295 54.84 21.3595C53.89 21.6995 52.74 22.4195 52.19 23.2095C51.82 23.7495 51.34 24.2895 51.18 24.9295C51.04 25.5095 50.8 26.0795 50.8 26.6795L50.77 39.6295C50.77 40.8895 49 40.4995 47.88 41.0395C46.58 41.6695 45.34 42.8595 44.8 44.1995C44.61 44.6895 44.29 45.1995 44.29 45.7695L44.32 54.4395C44.32 54.8695 45.07 56.5395 45.45 57.0395C45.99 57.7595 46.69 58.4395 47.51 58.8595C48.04 59.1295 48.61 59.2995 49.18 59.4895C49.56 59.6195 50.14 59.5295 50.48 59.7095C50.94 59.9595 50.78 60.5195 50.78 60.9495V73.2895C50.79 73.7295 50.93 74.2795 51.03 74.6795C51.23 75.5295 52.04 76.7695 52.64 77.3395C53.66 78.3095 54.83 78.8795 56.27 79.0595C56.56 79.0995 57.23 79.3395 57.23 79.6995L57.31 86.0095C57.33 87.2295 57.88 88.7095 58.62 89.7195C59.26 90.5895 60.03 91.1995 61.05 91.5995C61.52 91.7795 61.99 92.0495 62.52 92.1095C62.96 92.1595 63.73 92.0795 63.88 92.6695C64.06 93.3795 63.88 94.4295 63.93 95.3595C63.97 96.1695 63.97 97.0695 63.93 97.8695C63.91 98.1095 63.74 98.7495 64.19 98.7495H69.66C70.19 98.7695 70.09 98.2195 70.09 97.8995V92.6995C70.08 92.3095 70.59 92.0995 70.92 92.1295C71.47 92.1695 71.86 92.0095 72.33 91.8195C73.69 91.2995 74.87 90.5295 75.61 89.2595C76.1 88.4295 76.54 87.5695 76.54 86.5595V80.6295C76.54 80.3595 76.49 80.0795 76.54 79.8695C76.82 78.7895 77.69 79.1995 78.8 78.8295C80.17 78.3795 81.39 77.4995 82.15 76.2895C82.39 75.9095 83.13 74.2295 83.13 73.6195V60.9495C83.13 60.5695 82.95 60.2595 83.24 59.9095C83.73 59.2895 84.07 59.7195 85.47 59.2495C86.39 58.9395 87.15 58.4595 87.82 57.7695C88.86 56.6995 89.74 54.7695 89.74 53.5995V46.1895L89.33 44.6795V44.6995Z" fill="#90BEFA"/>
</g>
<defs>
<clipPath id="clip0_2528_7355">
<rect width="89.74" height="98.75" fill="white"/>
</clipPath>
</defs>
</svg>
