<svg width="108" height="259" viewBox="0 0 108 259" fill="none" xmlns="http://www.w3.org/2000/svg">
<g clip-path="url(#clip0_2554_9127)">
<mask id="mask0_2554_9127" style="mask-type:luminance" maskUnits="userSpaceOnUse" x="0" y="0" width="108" height="259">
<path d="M107.66 0H0V258.52H107.66V0Z" fill="white"/>
</mask>
<g mask="url(#mask0_2554_9127)">
<path d="M32.91 33.1504L32.85 35.5504L32.68 40.0704L32.52 44.9904L32.36 49.9604L32.25 53.3704L31.74 69.4004L31.31 82.5304L31.19 86.1304L30.88 96.2404L30.73 100.88L30.44 109.59L30.28 114.45L29.99 123.62L29.61 135.47L29.49 139.12L29.34 143.58L29.23 146.96L28.92 156.79L28.56 167.96L28.34 174.47L27.7 194.54L27.58 198.34L27.45 202.27L27.3 206.7L26.68 226.22L26.57 229.31H21.82L21.71 227.33L21.03 207.38L20.61 195.24L20.41 189.83L20.08 179.21L19.96 175.42L19.8 170.88L19.23 154.94L19.09 150.73L18.97 147.05L18.78 141.56L18.17 124.19L18.05 120.53L17.89 115.7L17.76 111.91L17.66 108.69L17.5 104.08L17.14 92.9804L16.99 87.7804L16.88 83.5904L16.77 79.1504L16.68 74.0904C16.68 73.9204 16.56 73.6204 16.48 73.6204C16.38 73.6204 16.27 73.9104 16.27 74.1704L16.12 79.9504L15.8 92.0704L15.65 97.2004L15.5 102.2L15.33 108.13L15.18 113.11L15.05 117.44L14.87 123.09L14.68 128.48L14.58 131.29L14.42 135.78L14.25 140.6L14.13 144.41L14.03 147.26L13.64 158.82L13.3 168.13L13.23 170.31L13.09 174.13L12.97 177.91L12.82 182.3L12.39 194.29L12.29 197.13L12.12 201.86L11.96 206.56L11.83 210.47L11.69 214.8L11.31 225.34L11.2 228.96C11.19 229.25 11.05 229.27 10.92 229.27H6.41L6.24 224.37L6.09 219.44L6.01 217.37L5.86 212.63L5.35 197.56L5.22 193.37L5.08 188.92L5 186.09L4.84 181.43L4.75 178.54L4.58 173.56L4.46 170.05L4.28 164.38L4.19 161.41L4.05 156.7L3.88 151.45L3.74 147L3.55 141.47L3.25 132.57L3.1 127.83L2.98 123.87L2.82 118.81L2.65 113.78L2.51 109.62L2.38 105.77L2.18 99.7804L2.06 95.7304L1.89 90.4904L1.86 88.7904L1.73 85.3604L1.61 81.4204L1.44 76.4604L1.27 71.6104L1 63.1204L0.83 57.5904L0.7 53.4904L0.53 48.2904L0.36 43.3004L0.22 39.3704L0 33.2104L4.57 33.2304L4.71 38.1004L4.89 44.8504L5.27 58.7304L5.43 64.9404L5.57 70.3304L5.68 74.7804L5.86 81.5104L6 86.5104L6.34 98.7704L6.49 104.71L6.59 108.76L6.76 115.23L6.91 120.63L7.41 138.67L7.5 142.34L7.68 149.59L7.8 154.49L7.97 161.19L8.14 167.79L8.25 172.38L8.44 181.14L8.51 184.67C8.54 186.04 8.58 187.32 8.57 188.72C8.57 188.95 8.56 191.02 8.83 190.68C9.15 190.28 9.11 186.4 9.15 185.21L9.32 179.43L9.43 175.75L9.59 170.35L10.06 155.95L10.16 152.91L10.28 149.22L10.4 145.56L10.54 141.39L10.7 136.42L11.07 125.8L11.22 121.69L11.32 118.87L11.46 114.42L11.62 109.43L11.74 105.65L12.35 88.0104L12.53 82.3604L12.65 78.6804L12.82 73.4104L13.26 60.9004L13.44 55.6504L13.57 51.4504L13.73 46.4504L13.87 42.2604L14.18 33.2004H18.68L18.81 35.9404L18.94 39.8704L19.37 52.5204L19.54 57.6704L19.7 62.2404L19.84 66.0204L20.03 71.0104L20.37 80.9804L20.47 83.8404L20.61 88.0204L20.76 92.4604L20.93 97.0804L21.11 101.91L21.42 110.93L21.54 114.44L21.69 119.03C21.73 120.26 21.72 121.43 21.84 122.64C21.9 123.31 21.89 124 21.92 124.7L22.13 130.41L22.25 133.82L22.66 146.25L22.77 149.51L22.92 154.09L23.09 159.37L23.19 162.46L23.58 175.64L23.69 179.83L23.86 185.91C23.89 186.95 23.8 190.2 24.16 190.45C24.21 190.49 24.31 190.15 24.31 190.03L24.34 188.51L24.46 181.82L24.66 172.83L24.74 169.18L24.84 165L25.07 155.71L25.21 150.3L25.33 145.82L25.5 139.38L25.6 135.34L25.72 130.6L26.15 114.44L26.36 106.36L26.48 101.41L26.6 96.6404L26.75 90.9604L27.26 72.1104L27.37 68.0404L27.53 61.4404L27.58 59.1404L27.72 54.1404L27.91 47.1204L28.29 33.1504H32.9H32.91Z" fill="#90BEFB"/>
<path d="M54.4298 102.31L54.4098 110.38L54.3398 116.19L54.1698 125.62L54.0398 130.34L53.8898 134.66L53.7298 138.32L53.5798 141.28L53.4298 144.11C53.1698 148.77 52.8198 153.26 52.3398 157.84C51.8498 162.51 50.9698 168.61 49.4298 172.22C48.7098 173.92 47.7098 175.19 46.5898 175.18C44.6298 175.18 43.2298 171.23 42.4498 167.98C42.2098 166.98 41.9698 165.98 41.7898 164.91C41.5198 163.3 41.2398 161.8 41.0298 160.14C40.4098 155.31 39.9798 150.47 39.7298 145.49L39.5698 142.35L39.4098 138.86L39.2198 134.11C38.8698 125.2 38.7198 116.4 38.7198 107.47V95.7998L38.8698 82.3597L39.0898 73.7298L39.2298 69.6797L39.3998 65.3698L39.5698 61.6197L39.6798 59.4097C39.9398 54.2197 40.3298 49.1697 40.9298 44.1097C41.1998 41.8197 41.5698 39.7097 41.9698 37.5297C42.2298 36.1697 42.5698 34.9497 42.9198 33.6897C43.6598 31.0497 44.9398 28.2597 46.5198 28.1197C47.1598 28.0597 47.7398 28.2697 48.2898 28.9497C49.9798 31.0797 50.8298 35.3097 51.4698 38.9897C51.8698 41.2597 52.1298 43.4997 52.3898 45.8697C52.8798 50.4097 53.2098 54.9097 53.4498 59.5497L53.5898 62.1397L53.7498 65.2298L53.9098 69.0197L54.0598 73.3397L54.1898 78.0597L54.3598 87.7598L54.4398 100.42V102.33L54.4298 102.31ZM59.0998 96.6297L59.0098 87.5098L58.9798 83.9398L58.8098 75.7598L58.6898 71.4297L58.5098 66.2797L58.0098 55.5197L57.8998 53.3997L57.7598 50.8397L57.6098 48.4897L57.1298 42.0697C56.8098 37.7497 56.3998 33.6197 55.9098 29.3697C55.0998 22.3597 53.7898 13.6397 51.8798 7.62975C51.2698 5.71975 50.6098 4.03975 49.7598 2.60975C48.0598 -0.260254 45.7498 -0.630254 43.8998 1.84975C42.3498 3.91975 41.0898 7.63975 40.2898 11.0397C40.0398 12.0897 39.7798 13.0597 39.5698 14.1197C39.1798 16.1097 38.7898 18.0297 38.4798 20.0797C38.0998 22.4997 37.7298 24.8097 37.4598 27.2797L36.5398 35.6297C36.4798 36.1997 36.4098 36.7597 36.3698 37.3397L35.7198 45.7697L35.5398 48.2097L35.3698 50.6897L35.1998 53.7297L34.8398 61.4297L34.7298 64.1397L34.5398 68.8597L34.4598 71.5597L34.2898 77.0897L34.1698 82.3397L34.0698 89.1097L34.0298 92.0697V111.72L34.0698 115.22L34.1598 120.91L34.2098 124.96L34.3798 131.3L34.5398 136.52L34.7098 141.14L34.8498 144.5L35.1698 151.58L35.3798 155.18L35.5098 157.08L35.6998 159.76L36.3398 167.95C36.3798 168.48 36.4398 169.01 36.4998 169.54L37.4198 177.72C37.6898 180.11 38.0698 182.33 38.4498 184.66C38.9698 187.86 39.7098 191.26 40.5398 194.19C40.9698 195.73 41.4798 197.12 42.0498 198.45C42.9498 200.54 44.0498 202.09 45.3498 202.79C45.6098 202.93 45.8898 202.91 46.0998 203.16H46.8798L47.7398 202.73C48.9998 202.09 50.1798 200.1 50.9898 198.07C52.7998 193.54 53.9798 187.41 54.8398 181.85C55.2998 178.88 55.6798 175.98 56.0098 172.94L56.5398 167.99L56.7598 165.49L57.4398 157.06L57.6498 153.95L57.8098 151.27L57.9498 148.62L58.0998 145.72L58.4798 137.38L58.6598 132.09L58.7798 127.99L58.9598 119.43L58.9898 115.83L59.0898 106.07V96.6397L59.0998 96.6297Z" fill="#90BEFB"/>
<path d="M107.66 195.65V196.01C107.66 196.01 107.46 196.16 107.4 196.16H102.27C102.15 195.25 102.09 194.43 102.01 193.54L101.41 186.98L100.55 177.32L100.08 172.34L99.94 170.61L98.73 157.24L98.07 150L97.67 145.37L96.9 137L96.39 131.2L95.87 125.53L95.76 124.29L94.78 113.53L94.22 107.04C94.21 106.92 94.06 106.65 94.01 106.69C93.75 106.92 93.78 107.76 93.74 108.05L93.35 111.05L92.51 117.55L91.45 125.71L91.1 128.38V195.96C91.06 196.03 90.95 196.15 90.91 196.15H86.89C86.79 196.15 86.73 195.92 86.73 195.73V0C88.23 0.1 89.65 -0.12 91.1 0.12V83.22C91.1 84.08 91.19 83.95 91.22 83.99C91.24 84.01 91.34 83.94 91.35 83.89L91.54 82.51L91.9 79.7L92.75 72.83L93.4 67.7L94.15 61.69L95.62 49.97L95.82 48.33L96.76 40.84L97.14 37.82L98.08 30.29L98.9 23.79L99.81 16.61L101.17 5.68L101.87 0.01L107.57 0.03L106.87 5.23L106.22 10.41L105.04 19.56L103.96 27.98L102.88 36.41L102.21 41.65L101.02 50.9L100.01 58.79L99.36 63.76L98.78 68.36L97.73 76.58L97.08 81.42L97.73 88.31L98.25 94.11L99.04 102.46L99.83 111.07L100.14 114.46L100.91 122.83L101.63 130.78L101.82 132.71L102.59 141.13L103.29 148.56L104.09 157.25L105.12 168.47L105.3 170.29L105.47 172.12L105.62 173.95L106.42 182.48L107.19 191.01L107.65 195.61L107.66 195.65Z" fill="#90BEFB"/>
<path d="M78.7102 125.61L78.5702 132.04L78.4002 135.98C78.2602 139.27 78.0102 141.6 77.5602 144.73C77.1202 147.76 76.2502 151.01 74.8402 152.52C74.2602 152.9 73.6802 153.34 73.0602 153.34L67.8902 153.32V90.9995C67.8902 90.7595 67.9402 90.4596 68.0002 90.3696C68.0602 90.2596 68.2502 90.2996 68.3702 90.2996H73.1802C74.7402 90.2996 76.0402 91.9495 76.8002 94.7395C77.7102 98.0795 78.2102 103.26 78.3802 107.09L78.5302 110.52L78.7102 118.5C78.7602 120.89 78.7702 123.21 78.7102 125.62M83.9202 257.95C83.4702 253.68 83.1602 249.45 82.9802 245.08L82.8402 241.42L82.6902 237.1L82.5202 228.61L82.4302 219.81L82.4002 208.39L82.3602 202.83L82.2802 199.59L82.1102 193.87L82.0102 191.51C81.8602 187.84 81.5902 184.34 81.2002 180.76C80.7702 176.79 80.2102 173.08 79.1302 169.66C78.9902 169.21 79.0402 168.86 79.1702 168.44C79.5502 167.23 79.8502 165.95 80.1202 164.62C80.3502 163.48 80.5802 162.37 80.7402 161.18L81.1802 158C81.6302 154.74 81.9302 151.52 82.1402 148.16L82.5302 142.03L82.7602 137.24C82.8102 136.1 82.8402 135.02 82.8702 133.87L82.9702 129.49L83.0102 126.59V114.67L82.9202 108.19L82.8302 103.47L82.6602 99.2296C82.4802 94.5596 82.1902 90.0296 81.8002 85.4096C81.6702 83.8696 81.4902 82.4895 81.3102 80.9895C80.7402 76.3395 79.8802 71.0495 78.3402 67.3095C77.1502 64.4195 75.4502 62.4195 73.5702 62.4095L64.6402 62.3595C64.2302 62.3295 63.8602 62.3295 63.4702 62.3895V258.48L67.8802 258.46V181.3C67.9802 181.07 68.1002 180.95 68.2202 180.95L73.3802 180.98C73.5902 180.98 73.9502 181.25 74.1402 181.41C75.0802 182.18 75.7702 183.67 76.2302 185.49C76.7602 187.58 77.0902 189.74 77.3002 192.05C77.8602 198.14 78.0302 205.35 78.0502 211.57L78.0802 226.01L78.1202 230.4L78.1602 235.61L78.3602 245.43L78.5902 251.36L78.7202 253.67L78.8902 256.14C78.9502 256.94 79.0102 257.63 79.1002 258.47H83.6802C83.7402 258.48 83.8502 258.39 83.8802 258.32C83.9102 258.25 83.9202 258.03 83.9002 257.91" fill="#90BEFB"/>
</g>
</g>
<defs>
<clipPath id="clip0_2554_9127">
<rect width="107.66" height="258.53" fill="white"/>
</clipPath>
</defs>
</svg>
