<svg width="118" height="269" viewBox="0 0 118 269" fill="none" xmlns="http://www.w3.org/2000/svg">
<g clip-path="url(#clip0_2554_8946)">
<mask id="mask0_2554_8946" style="mask-type:luminance" maskUnits="userSpaceOnUse" x="0" y="0" width="118" height="269">
<path d="M117.66 0H0V268.52H117.66V0Z" fill="white"/>
</mask>
<g mask="url(#mask0_2554_8946)">
<path d="M37.91 38.1504L37.85 40.5504L37.68 45.0704L37.52 49.9904L37.36 54.9604L37.25 58.3704L36.74 74.4004L36.31 87.5304L36.19 91.1304L35.88 101.24L35.73 105.88L35.44 114.59L35.28 119.45L34.99 128.62L34.61 140.47L34.49 144.12L34.34 148.58L34.23 151.96L33.92 161.79L33.56 172.96L33.34 179.47L32.7 199.54L32.58 203.34L32.45 207.27L32.3 211.7L31.68 231.22L31.57 234.31H26.82L26.71 232.33L26.03 212.38L25.61 200.24L25.41 194.83L25.08 184.21L24.96 180.42L24.8 175.88L24.23 159.94L24.09 155.73L23.97 152.05L23.78 146.56L23.17 129.19L23.05 125.53L22.89 120.7L22.76 116.91L22.66 113.69L22.5 109.08L22.14 97.9804L21.99 92.7804L21.88 88.5904L21.77 84.1504L21.68 79.0904C21.68 78.9204 21.56 78.6204 21.48 78.6204C21.38 78.6204 21.27 78.9104 21.27 79.1704L21.12 84.9504L20.8 97.0704L20.65 102.2L20.5 107.2L20.33 113.13L20.18 118.11L20.05 122.44L19.87 128.09L19.68 133.48L19.58 136.29L19.42 140.78L19.25 145.6L19.13 149.41L19.03 152.26L18.64 163.82L18.3 173.13L18.23 175.31L18.09 179.13L17.97 182.91L17.82 187.3L17.39 199.29L17.29 202.13L17.12 206.86L16.96 211.56L16.83 215.47L16.69 219.8L16.31 230.34L16.2 233.96C16.19 234.25 16.05 234.27 15.92 234.27H11.41L11.24 229.37L11.09 224.44L11.01 222.37L10.86 217.63L10.35 202.56L10.22 198.37L10.08 193.92L10 191.09L9.84002 186.43L9.75002 183.54L9.58002 178.56L9.46002 175.05L9.28002 169.38L9.19002 166.41L9.05002 161.7L8.88002 156.45L8.74002 152L8.55002 146.47L8.25002 137.57L8.10002 132.83L7.98002 128.87L7.82002 123.81L7.65002 118.78L7.51002 114.62L7.38002 110.77L7.18002 104.78L7.06002 100.73L6.89002 95.4904L6.86002 93.7904L6.73002 90.3604L6.61002 86.4204L6.44002 81.4604L6.27002 76.6104L6.00002 68.1204L5.83002 62.5904L5.70002 58.4904L5.53002 53.2904L5.36002 48.3004L5.22002 44.3704L5.02002 38.2804L9.59002 38.3004L9.73002 43.1704L9.91002 49.9204L10.29 63.8004L10.45 70.0104L10.59 75.4004L10.7 79.8504L10.88 86.5804L11.02 91.5804L11.36 103.84L11.51 109.78L11.61 113.83L11.78 120.3L11.93 125.7L12.43 143.74L12.52 147.41L12.7 154.66L12.82 159.56L12.99 166.26L13.16 172.86L13.27 177.45L13.46 186.21L13.53 189.74C13.56 191.11 13.6 192.39 13.59 193.79C13.59 194.02 13.58 196.09 13.85 195.75C14.17 195.35 14.13 191.47 14.17 190.28L14.34 184.5L14.45 180.82L14.61 175.42L15.08 161.02L15.18 157.98L15.3 154.29L15.42 150.63L15.56 146.46L15.72 141.49L16.09 130.87L16.24 126.76L16.34 123.94L16.48 119.49L16.64 114.5L16.76 110.72L17.37 93.0804L17.55 87.4304L17.67 83.7504L17.84 78.4804L18.28 65.9704L18.46 60.7204L18.59 56.5204L18.75 51.5204L18.89 47.3304L19.2 38.2704H23.7L23.83 41.0104L23.96 44.9404L24.39 57.5904L24.56 62.7404L24.72 67.3104L24.86 71.0904L25.05 76.0804L25.39 86.0504L25.49 88.9104L25.63 93.0904L25.78 97.5304L25.95 102.15L26.13 106.98L26.44 116L26.56 119.51L26.71 124.1C26.75 125.33 26.74 126.5 26.86 127.71C26.92 128.38 26.91 129.07 26.94 129.77L27.15 135.48L27.27 138.89L27.68 151.32L27.79 154.58L27.94 159.16L28.11 164.44L28.21 167.53L28.6 180.71L28.71 184.9L28.88 190.98C28.91 192.02 28.82 195.27 29.18 195.52C29.23 195.56 29.33 195.22 29.33 195.1L29.36 193.58L29.48 186.89L29.68 177.9L29.76 174.25L29.86 170.07L30.09 160.78L30.23 155.37L30.35 150.89L30.52 144.45L30.62 140.41L30.74 135.67L31.17 119.51L31.38 111.43L31.5 106.48L31.62 101.71L31.77 96.0304L32.28 77.1804L32.39 73.1104L32.55 66.5104L32.6 64.2104L32.74 59.2104L32.93 52.1904L33.31 38.2204H37.92L37.91 38.1504Z" fill="#90BEFB"/>
<path d="M59.43 107.31L59.41 115.38L59.34 121.19L59.17 130.62L59.04 135.34L58.89 139.66L58.73 143.32L58.58 146.28L58.43 149.11C58.17 153.77 57.82 158.26 57.34 162.84C56.85 167.51 55.97 173.61 54.43 177.22C53.71 178.92 52.71 180.19 51.58 180.18C49.62 180.18 48.22 176.23 47.44 172.98C47.2 171.98 46.96 170.98 46.78 169.91C46.51 168.3 46.23 166.8 46.02 165.14C45.4 160.31 44.97 155.47 44.72 150.49L44.56 147.35L44.4 143.86L44.21 139.11C43.86 130.2 43.71 121.4 43.71 112.47V100.8L43.86 87.3597L44.08 78.7298L44.22 74.6797L44.39 70.3698L44.56 66.6197L44.67 64.4097C44.93 59.2197 45.32 54.1697 45.92 49.1097C46.19 46.8197 46.56 44.7097 46.97 42.5297C47.22 41.1697 47.56 39.9497 47.92 38.6897C48.66 36.0497 49.94 33.2597 51.52 33.1197C52.16 33.0597 52.74 33.2697 53.29 33.9497C54.98 36.0797 55.83 40.3097 56.47 43.9897C56.87 46.2597 57.13 48.4997 57.39 50.8697C57.88 55.4097 58.21 59.9097 58.45 64.5497L58.59 67.1397L58.75 70.2298L58.91 74.0197L59.06 78.3397L59.19 83.0597L59.36 92.7598L59.44 105.42V107.33L59.43 107.31ZM64.1 101.63L64.01 92.5098L63.98 88.9398L63.81 80.7598L63.69 76.4297L63.51 71.2797L63.01 60.5197L62.9 58.3997L62.76 55.8397L62.61 53.4897L62.13 47.0697C61.81 42.7497 61.4 38.6197 60.91 34.3697C60.1 27.3597 58.79 18.6397 56.88 12.6297C56.27 10.7197 55.61 9.03975 54.76 7.60975C53.06 4.73975 50.75 4.36975 48.9 6.84975C47.35 8.91975 46.09 12.6397 45.29 16.0397C45.05 17.0897 44.78 18.0597 44.58 19.1197C44.19 21.1097 43.8 23.0297 43.49 25.0797C43.11 27.4997 42.74 29.8097 42.47 32.2797L41.55 40.6297C41.49 41.1997 41.42 41.7597 41.38 42.3397L40.73 50.7697L40.55 53.2097L40.38 55.6897L40.21 58.7297L39.85 66.4297L39.74 69.1397L39.55 73.8597L39.47 76.5597L39.3 82.0897L39.18 87.3397L39.08 94.1097L39.04 97.0697V116.72L39.08 120.22L39.17 125.91L39.22 129.96L39.39 136.3L39.55 141.52L39.72 146.14L39.86 149.5L40.19 156.58L40.4 160.18L40.53 162.08L40.72 164.76L41.36 172.95C41.4 173.48 41.46 174.01 41.52 174.54L42.44 182.72C42.71 185.11 43.09 187.33 43.47 189.66C43.99 192.86 44.73 196.26 45.56 199.19C45.99 200.73 46.5 202.12 47.07 203.45C47.97 205.54 49.07 207.09 50.37 207.79C50.63 207.93 50.91 207.91 51.12 208.16H51.9L52.76 207.73C54.02 207.09 55.2 205.1 56.02 203.07C57.83 198.54 59.01 192.41 59.87 186.85C60.33 183.88 60.71 180.98 61.04 177.94L61.57 172.99L61.79 170.49L62.47 162.06L62.68 158.95L62.84 156.27L62.98 153.62L63.13 150.72L63.51 142.38L63.69 137.09L63.81 132.99L63.99 124.43L64.02 120.83L64.12 111.07V101.64L64.1 101.63Z" fill="#90BEFB"/>
<path d="M112.66 200.65V201.01C112.66 201.01 112.46 201.16 112.4 201.16H107.27C107.15 200.25 107.09 199.43 107.01 198.54L106.41 191.98L105.55 182.32L105.08 177.34L104.94 175.61L103.73 162.24L103.07 155L102.67 150.37L101.9 142L101.39 136.2L100.87 130.53L100.76 129.29L99.78 118.53L99.22 112.04C99.21 111.92 99.06 111.65 99.01 111.69C98.75 111.92 98.78 112.76 98.74 113.05L98.35 116.05L97.51 122.55L96.45 130.71L96.1 133.38V200.96C96.06 201.03 95.95 201.15 95.91 201.15H91.89C91.79 201.15 91.73 200.92 91.73 200.73V5C93.23 5.1 94.65 4.88 96.1 5.12V88.22C96.1 89.08 96.19 88.95 96.22 88.99C96.24 89.01 96.34 88.94 96.35 88.89L96.54 87.51L96.9 84.7L97.75 77.83L98.4 72.7L99.15 66.69L100.62 54.97L100.82 53.33L101.76 45.84L102.14 42.82L103.08 35.29L103.9 28.79L104.81 21.61L106.17 10.68L106.89 5.02L112.59 5.04L111.89 10.24L111.24 15.42L110.06 24.57L108.98 32.99L107.9 41.42L107.23 46.66L106.04 55.91L105.03 63.8L104.38 68.77L103.8 73.37L102.75 81.59L102.1 86.43L102.75 93.32L103.27 99.13L104.06 107.48L104.85 116.09L105.16 119.48L105.93 127.85L106.65 135.8L106.84 137.73L107.61 146.15L108.31 153.58L109.11 162.27L110.14 173.49L110.32 175.31L110.49 177.14L110.64 178.97L111.44 187.5L112.21 196.03L112.67 200.63L112.66 200.65Z" fill="#90BEFB"/>
<path d="M83.7102 130.61L83.5702 137.04L83.4002 140.98C83.2602 144.27 83.0102 146.6 82.5602 149.73C82.1202 152.76 81.2502 156.01 79.8402 157.52C79.2602 157.9 78.6802 158.34 78.0602 158.34L72.8902 158.32V95.9995C72.8902 95.7595 72.9402 95.4596 73.0002 95.3696C73.0602 95.2596 73.2502 95.2996 73.3702 95.2996H78.1802C79.7402 95.2996 81.0402 96.9495 81.8002 99.7395C82.7102 103.08 83.2102 108.26 83.3802 112.09L83.5302 115.52L83.7102 123.5C83.7602 125.89 83.7702 128.21 83.7102 130.62M88.9202 262.95C88.4702 258.68 88.1602 254.45 87.9802 250.08L87.8402 246.42L87.6902 242.1L87.5202 233.61L87.4302 224.81L87.4002 213.39L87.3602 207.83L87.2802 204.59L87.1102 198.87L87.0102 196.51C86.8602 192.84 86.5902 189.34 86.2002 185.76C85.7702 181.79 85.2102 178.08 84.1302 174.66C83.9902 174.21 84.0402 173.86 84.1702 173.44C84.5502 172.23 84.8502 170.95 85.1202 169.62C85.3502 168.48 85.5802 167.37 85.7402 166.18L86.1802 163C86.6302 159.74 86.9302 156.52 87.1402 153.16L87.5302 147.03L87.7602 142.24C87.8102 141.1 87.8402 140.02 87.8702 138.87L87.9702 134.49L88.0102 131.59V119.67L87.9202 113.19L87.8302 108.47L87.6602 104.23C87.4802 99.5596 87.1902 95.0296 86.8002 90.4096C86.6702 88.8696 86.4902 87.4895 86.3102 85.9895C85.7402 81.3395 84.8802 76.0495 83.3402 72.3095C82.1502 69.4195 80.4502 67.4196 78.5702 67.4096L69.6402 67.3595C69.2302 67.3295 68.8602 67.3295 68.4702 67.3895V263.48L72.8802 263.46V186.3C72.9802 186.07 73.1002 185.95 73.2202 185.95L78.3802 185.98C78.5902 185.98 78.9502 186.25 79.1402 186.41C80.0802 187.18 80.7702 188.67 81.2302 190.49C81.7602 192.58 82.0902 194.74 82.3002 197.05C82.8602 203.14 83.0302 210.35 83.0502 216.57L83.0802 231.01L83.1202 235.4L83.1602 240.61L83.3602 250.43L83.5902 256.36L83.7202 258.67L83.8902 261.14C83.9502 261.94 84.0102 262.63 84.1002 263.48H88.6802C88.7402 263.49 88.8502 263.4 88.8802 263.33C88.9102 263.26 88.9202 263.04 88.9002 262.92" fill="#90BEFB"/>
<path d="M32.2904 211.25C29.5304 211.16 27.3604 208.85 27.4604 206.09C27.5504 203.33 29.8604 201.17 32.6204 201.26C35.3804 201.35 37.5404 203.66 37.4504 206.42C37.3604 209.12 35.1404 211.26 32.4604 211.26C32.4104 211.26 32.3504 211.26 32.2904 211.26V211.25ZM33.2004 183.23C30.4404 183.14 28.2704 180.83 28.3704 178.07C28.4604 175.31 30.7704 173.14 33.5304 173.23C36.2904 173.32 38.4504 175.63 38.3604 178.39C38.2704 181.09 36.0504 183.23 33.3704 183.23C33.3204 183.23 33.2604 183.23 33.2004 183.23ZM34.1104 155.22C31.3504 155.13 29.1904 152.82 29.2804 150.06C29.3704 147.3 31.6804 145.14 34.4404 145.23C37.2004 145.32 39.3604 147.63 39.2704 150.39C39.1804 153.1 36.9604 155.23 34.2704 155.23C34.2204 155.23 34.1604 155.23 34.1004 155.23L34.1104 155.22ZM35.0204 127.2C32.2604 127.11 30.0904 124.8 30.1904 122.04C30.2804 119.28 32.5904 117.12 35.3504 117.21C38.1104 117.3 40.2804 119.61 40.1804 122.37C40.0904 125.07 37.8704 127.21 35.1904 127.21C35.1304 127.21 35.0804 127.21 35.0204 127.21V127.2ZM35.9304 99.1799C33.1704 99.0899 31.0004 96.7799 31.1004 94.0199C31.1904 91.2599 33.5004 89.0999 36.2604 89.1899C39.0204 89.2799 41.1904 91.5899 41.1004 94.3499C41.0104 97.0499 38.7904 99.1899 36.1104 99.1899C36.0604 99.1899 36.0004 99.1899 35.9404 99.1899L35.9304 99.1799ZM36.8404 71.1599C34.0804 71.0699 31.9104 68.7599 32.0004 65.9999C32.0904 63.2399 34.4004 61.0699 37.1604 61.1599C39.9204 61.2499 42.0904 63.5599 41.9904 66.3199C41.9004 69.0199 39.6804 71.1599 36.9904 71.1599C36.9404 71.1599 36.8804 71.1599 36.8304 71.1599H36.8404Z" fill="black"/>
<path d="M21.79 234.27C21.79 231.51 24.03 229.27 26.79 229.27C29.55 229.27 31.79 231.51 31.79 234.27C31.79 237.03 29.55 239.27 26.79 239.27C24.03 239.27 21.79 237.03 21.79 234.27Z" fill="black"/>
<path d="M20.7803 204.41C20.6903 201.65 22.8503 199.34 25.6103 199.25C28.3703 199.16 30.6803 201.32 30.7803 204.08C30.8703 206.84 28.7103 209.15 25.9503 209.24C25.8903 209.24 25.8403 209.24 25.7803 209.24C23.1003 209.24 20.8803 207.11 20.7903 204.41H20.7803ZM19.7703 174.37C19.6803 171.61 21.8403 169.3 24.6003 169.2C27.3603 169.11 29.6703 171.27 29.7703 174.03C29.8603 176.79 27.7003 179.1 24.9403 179.2C24.8803 179.2 24.8303 179.2 24.7703 179.2C22.0903 179.2 19.8703 177.07 19.7803 174.37H19.7703ZM18.7603 144.34C18.6703 141.58 20.8303 139.27 23.5903 139.17C26.3503 139.08 28.6603 141.24 28.7603 144C28.8503 146.76 26.6903 149.07 23.9303 149.16C23.8703 149.16 23.8203 149.16 23.7603 149.16C21.0803 149.16 18.8603 147.03 18.7703 144.33L18.7603 144.34ZM17.7503 114.3C17.6603 111.54 19.8203 109.23 22.5803 109.13C25.3403 109.04 27.6503 111.2 27.7503 113.96C27.8403 116.72 25.6803 119.03 22.9203 119.13C22.8603 119.13 22.8103 119.13 22.7503 119.13C20.0703 119.13 17.8503 117 17.7603 114.3H17.7503Z" fill="black"/>
<path d="M16.6502 79.1299C16.6002 76.3699 18.8002 74.0899 21.5602 74.0399C24.3202 73.9899 26.6002 76.1899 26.6502 78.9499C26.7002 81.7099 24.5003 83.9899 21.7403 84.0399C21.7403 84.0399 21.6802 84.0399 21.6502 84.0399C18.9302 84.0399 16.7002 81.8599 16.6502 79.1299Z" fill="black"/>
<path d="M17.37 81.4605C16.73 80.5505 16.38 79.4205 16.46 78.2205C16.65 75.4605 19.04 73.3905 21.79 73.5805C23.6 73.7605 24.4 74.5205 24.86 74.9105C25.33 75.3505 25.53 75.6605 25.7 75.9105C26.02 76.4105 26.14 76.7205 26.27 77.0405C27.24 79.6305 25.92 82.5105 23.34 83.4705C22.76 83.6905 22.17 83.7905 21.59 83.7905C19.9 83.7905 18.29 82.9205 17.36 81.4605H17.37Z" fill="black"/>
<path d="M21.0999 84.1203C18.3399 84.0403 16.1699 81.7403 16.2399 78.9803C16.2599 78.4303 16.3299 77.9603 16.4799 77.4303C17.2499 74.7803 20.0199 73.2503 22.6699 74.0103C25.1599 74.7303 26.6699 77.2203 26.1999 79.7203C25.8999 82.2103 23.7799 84.1203 21.2399 84.1203C21.2399 84.1203 21.1499 84.1203 21.0999 84.1203Z" fill="black"/>
<path d="M20.96 89.9098C18.2 89.8398 16.02 87.5398 16.09 84.7798C16.16 82.0198 18.46 79.8398 21.22 79.9098C23.98 79.9798 26.16 82.2798 26.09 85.0398C26.02 87.7598 23.8 89.9098 21.09 89.9098C21.09 89.9098 21 89.9098 20.96 89.9098Z" fill="black"/>
<path d="M17.09 206.21C14.33 206.12 12.17 203.81 12.26 201.05C12.35 198.29 14.66 196.13 17.42 196.22C20.18 196.31 22.34 198.62 22.25 201.38C22.16 204.08 19.94 206.21 17.26 206.21C17.2 206.21 17.15 206.21 17.09 206.21ZM18.05 177.13C15.29 177.04 13.13 174.73 13.22 171.97C13.31 169.21 15.62 167.05 18.38 167.14C21.14 167.23 23.3 169.54 23.21 172.3C23.12 175 20.9 177.14 18.22 177.14C18.16 177.14 18.11 177.14 18.05 177.14V177.13ZM19 148.06C16.24 147.97 14.08 145.66 14.17 142.9C14.26 140.14 16.57 137.98 19.33 138.07C22.09 138.16 24.25 140.47 24.16 143.23C24.07 145.93 21.85 148.07 19.17 148.07C19.11 148.07 19.06 148.07 19 148.07V148.06ZM19.96 118.98C17.2 118.89 15.04 116.58 15.13 113.82C15.22 111.06 17.53 108.9 20.29 108.99C23.05 109.08 25.21 111.39 25.12 114.15C25.03 116.85 22.81 118.98 20.13 118.98C20.07 118.98 20.02 118.98 19.96 118.98Z" fill="black"/>
<path d="M16.0199 238.91C13.2599 238.82 11.0899 236.51 11.1799 233.75C11.2699 230.99 13.5799 228.82 16.3399 228.91C19.0999 229 21.2699 231.31 21.1799 234.07C21.0899 236.78 18.8699 238.91 16.1799 238.91C16.1299 238.91 16.0699 238.91 16.0199 238.91Z" fill="black"/>
<path d="M10.9001 234.21C10.9001 232.01 12.3201 230.14 14.3001 229.47C15.8701 228.86 17.7201 229.06 19.1501 230.16C21.3401 231.84 21.7601 234.98 20.0801 237.17C19.3801 238.12 18.2101 238.79 17.4001 239C16.5701 239.23 16.0801 239.2 15.8901 239.21C13.1301 239.21 10.8901 236.97 10.8901 234.21H10.9001Z" fill="black"/>
<path d="M6.39014 234.23C6.39014 231.47 8.62014 229.23 11.3801 229.22C14.1401 229.22 16.3901 231.45 16.3901 234.21C16.3901 236.97 14.1601 239.21 11.4001 239.22C8.64014 239.22 6.40014 236.99 6.40014 234.23H6.39014Z" fill="black"/>
<path d="M5.48016 206.38C5.39016 203.62 7.55016 201.31 10.3102 201.22C13.0702 201.13 15.3802 203.3 15.4702 206.06C15.5602 208.82 13.4002 211.13 10.6402 211.22C10.5902 211.22 10.5302 211.22 10.4702 211.22C7.78016 211.22 5.56016 209.09 5.48016 206.38ZM4.57016 178.38C4.48016 175.62 6.64016 173.31 9.40016 173.22C12.1602 173.13 14.4702 175.29 14.5602 178.05C14.6502 180.81 12.4902 183.12 9.73016 183.21C9.67016 183.21 9.62016 183.21 9.56016 183.21C6.87016 183.21 4.65016 181.08 4.57016 178.37V178.38ZM3.66016 150.38C3.57016 147.62 5.73016 145.31 8.49016 145.22C11.2502 145.13 13.5602 147.29 13.6502 150.06C13.7402 152.82 11.5802 155.13 8.82016 155.22C8.76016 155.22 8.71016 155.22 8.65016 155.22C5.96016 155.22 3.75016 153.09 3.66016 150.38ZM2.74016 122.38C2.65016 119.62 4.82016 117.31 7.58016 117.22C10.3402 117.13 12.6502 119.3 12.7402 122.05C12.8302 124.81 10.6702 127.12 7.91016 127.21C7.85016 127.21 7.80016 127.21 7.74016 127.21C5.05016 127.21 2.83016 125.08 2.74016 122.37V122.38ZM1.83016 94.3797C1.74016 91.6197 3.90016 89.3097 6.66016 89.2197C9.42016 89.1297 11.7302 91.2897 11.8202 94.0497C11.9102 96.8097 9.75016 99.1197 6.99016 99.2097C6.94016 99.2097 6.88016 99.2097 6.82016 99.2097C4.13016 99.2097 1.91016 97.0797 1.83016 94.3697V94.3797ZM0.920156 66.3697C0.830156 63.6097 2.99016 61.2997 5.75016 61.2097C8.51016 61.1197 10.8202 63.2797 10.9102 66.0397C11.0002 68.7997 8.83016 71.1097 6.08016 71.1997C6.02016 71.1997 5.97016 71.1997 5.91016 71.1997C3.22016 71.1997 1.00016 69.0697 0.910156 66.3597L0.920156 66.3697Z" fill="black"/>
<path d="M9.56011 43.2295C6.80011 43.2195 4.57011 40.9695 4.58011 38.2095C4.59011 35.4495 6.84011 33.2195 9.60011 33.2295C12.3601 33.2395 14.5901 35.4895 14.5801 38.2495C14.5701 41.0095 12.3301 43.2295 9.58011 43.2295H9.56011Z" fill="black"/>
<path d="M7.70004 156.7C7.63004 153.94 9.81004 151.64 12.57 151.57C15.33 151.5 17.63 153.68 17.7 156.44C17.77 159.2 15.6 161.5 12.83 161.57C12.83 161.57 12.74 161.57 12.7 161.57C10 161.57 7.77004 159.42 7.70004 156.7ZM6.92004 127.12C6.85004 124.36 9.03004 122.06 11.79 121.99C14.55 121.92 16.85 124.1 16.92 126.86C16.99 129.62 14.81 131.92 12.05 131.99C12.05 131.99 11.96 131.99 11.91 131.99C9.21004 131.99 6.99004 129.84 6.91004 127.12H6.92004ZM6.14004 97.5302C6.07004 94.7702 8.25004 92.4702 11.01 92.4002C13.77 92.3302 16.07 94.5102 16.14 97.2702C16.21 100.03 14.03 102.33 11.27 102.4C11.27 102.4 11.18 102.4 11.14 102.4C8.44004 102.4 6.22004 100.25 6.14004 97.5302ZM5.36004 67.9402C5.29004 65.1802 7.47004 62.8802 10.23 62.8102C12.99 62.7402 15.29 64.9202 15.36 67.6802C15.43 70.4402 13.25 72.7402 10.49 72.8102C10.49 72.8102 10.4 72.8102 10.36 72.8102C7.66004 72.8102 5.44004 70.6602 5.36004 67.9402Z" fill="black"/>
<path d="M8.55003 189.79C8.49003 187.03 10.69 184.75 13.45 184.69C16.21 184.63 18.5 186.83 18.55 189.59C18.61 192.35 16.41 194.63 13.65 194.69C13.65 194.69 13.58 194.69 13.55 194.69C10.84 194.69 8.61003 192.52 8.55003 189.79Z" fill="black"/>
<path d="M13.5801 198.73C10.8201 198.72 8.59013 196.47 8.60013 193.71C8.61013 190.95 10.8601 188.72 13.6201 188.73C16.3801 188.74 18.6101 190.99 18.6001 193.75C18.5901 196.5 16.3501 198.73 13.6001 198.73H13.5801Z" fill="black"/>
<path d="M10.7902 199.63C8.61017 197.93 8.23017 194.79 9.93017 192.61C11.6302 190.43 14.7702 190.05 16.9502 191.75C19.1302 193.45 19.5102 196.59 17.8102 198.77C16.8202 200.03 15.3502 200.69 13.8702 200.69C12.7902 200.69 11.7102 200.34 10.8002 199.63H10.7902Z" fill="black"/>
<path d="M14.0401 195.22C11.2801 195.14 9.11013 192.84 9.19013 190.08C9.27013 187.32 11.5701 185.15 14.3301 185.23C17.0901 185.31 19.2601 187.61 19.1801 190.37C19.1001 193.08 16.8801 195.22 14.1801 195.22C14.1801 195.22 14.0801 195.22 14.0301 195.22H14.0401Z" fill="black"/>
<path d="M14.2003 189.44C11.4403 189.36 9.27029 187.05 9.35029 184.29C9.43029 181.53 11.7303 179.36 14.4903 179.44C17.2503 179.52 19.4203 181.83 19.3403 184.59C19.2603 187.3 17.0403 189.44 14.3403 189.44C14.3403 189.44 14.2403 189.44 14.1903 189.44H14.2003Z" fill="black"/>
<path d="M15.1603 160.2C12.4003 160.11 10.2404 157.8 10.3304 155.04C10.4204 152.28 12.7303 150.12 15.4903 150.21C18.2503 150.3 20.4103 152.61 20.3203 155.37C20.2303 158.07 18.0103 160.2 15.3303 160.2C15.2703 160.2 15.2203 160.2 15.1603 160.2ZM16.1303 130.95C13.3703 130.86 11.2104 128.55 11.3004 125.79C11.3904 123.03 13.7003 120.87 16.4603 120.96C19.2203 121.05 21.3804 123.36 21.2904 126.12C21.2004 128.82 18.9803 130.95 16.3003 130.95C16.2403 130.95 16.1903 130.95 16.1303 130.95ZM17.1004 101.7C14.3404 101.61 12.1804 99.3005 12.2704 96.5405C12.3604 93.7805 14.6704 91.6205 17.4304 91.7105C20.1904 91.8005 22.3504 94.1105 22.2604 96.8705C22.1704 99.5705 19.9504 101.7 17.2704 101.7C17.2104 101.7 17.1604 101.7 17.1004 101.7ZM18.0703 72.4605C15.3103 72.3705 13.1504 70.0605 13.2404 67.3005C13.3304 64.5405 15.6403 62.3805 18.4003 62.4705C21.1603 62.5605 23.3203 64.8705 23.2303 67.6305C23.1403 70.3305 20.9203 72.4705 18.2403 72.4605C18.1803 72.4605 18.1303 72.4605 18.0703 72.4605Z" fill="black"/>
<path d="M23.6902 43.2295C20.9302 43.2195 18.7002 40.9695 18.7002 38.2095C18.7002 35.4495 20.9602 33.2195 23.7202 33.2295C26.4802 33.2295 28.7102 35.4795 28.7002 38.2395C28.7002 40.9995 26.4602 43.2295 23.7002 43.2295H23.6802H23.6902Z" fill="black"/>
<path d="M20.6101 92.5304C20.5101 89.7704 22.6701 87.4604 25.4301 87.3604C28.1901 87.2604 30.5001 89.4204 30.6001 92.1804C30.7001 94.9404 28.5401 97.2504 25.7801 97.3504C25.7201 97.3504 25.6601 97.3504 25.6001 97.3504C22.9201 97.3504 20.7001 95.2304 20.6101 92.5204V92.5304ZM19.6601 65.4604C19.5601 62.7004 21.7201 60.3804 24.4801 60.2904C27.2401 60.1904 29.5601 62.3504 29.6501 65.1104C29.7501 67.8704 27.5901 70.1904 24.8301 70.2804C24.7701 70.2804 24.7101 70.2804 24.6501 70.2804C21.9701 70.2804 19.7501 68.1504 19.6601 65.4504V65.4604Z" fill="black"/>
<path d="M21.7102 124.17C21.6202 121.41 23.7802 119.1 26.5402 119.01C29.3002 118.92 31.6102 121.08 31.7002 123.84C31.7902 126.6 29.6302 128.91 26.8702 129C26.8102 129 26.7602 129 26.7002 129C24.0202 129 21.8002 126.87 21.7102 124.16V124.17Z" fill="black"/>
<path d="M21.8702 128.09C21.6102 125.34 23.6302 122.9 26.3802 122.65C29.1302 122.39 31.5702 124.41 31.8202 127.16C32.0802 129.91 30.0602 132.35 27.3102 132.6C27.1502 132.62 26.9902 132.62 26.8402 132.62C24.2902 132.62 22.1102 130.68 21.8702 128.09Z" fill="black"/>
<path d="M21.9301 129.86C21.8301 127.1 23.9801 124.78 26.7401 124.67C29.5001 124.57 31.8201 126.72 31.9301 129.48C32.0301 132.24 29.8801 134.56 27.1201 134.66C27.0601 134.66 26.9901 134.66 26.9301 134.66C24.2601 134.66 22.0401 132.54 21.9401 129.85L21.9301 129.86Z" fill="black"/>
<path d="M22.1401 135.57C22.0401 132.81 24.1901 130.49 26.9501 130.39C29.7101 130.29 32.0301 132.44 32.1301 135.2C32.2301 137.96 30.0801 140.28 27.3201 140.38C27.2601 140.38 27.1901 140.38 27.1301 140.38C24.4601 140.38 22.2401 138.26 22.1401 135.57Z" fill="black"/>
<path d="M22.9202 160.26C22.8302 157.5 25.0002 155.19 27.7602 155.1C30.5202 155.01 32.8302 157.18 32.9202 159.94C33.0102 162.7 30.8402 165.01 28.0802 165.1C28.0302 165.1 27.9702 165.1 27.9202 165.1C25.2302 165.1 23.0102 162.96 22.9302 160.26H22.9202Z" fill="black"/>
<path d="M23.8601 191.03C23.7901 188.27 25.9601 185.97 28.7201 185.9C31.4801 185.83 33.7801 188 33.8501 190.76C33.9201 193.52 31.7501 195.82 28.9901 195.89C28.9901 195.89 28.9001 195.89 28.8501 195.89C26.1501 195.89 23.9301 193.74 23.8501 191.03H23.8601Z" fill="black"/>
<path d="M26.2602 199.51C24.0102 197.91 23.4802 194.79 25.0802 192.54C26.6802 190.29 29.8002 189.76 32.0502 191.36C34.3002 192.96 34.8302 196.08 33.2302 198.33C32.2502 199.7 30.7102 200.43 29.1502 200.43C28.1502 200.43 27.1402 200.13 26.2602 199.51Z" fill="black"/>
<path d="M27.8504 200.04C25.3204 199.29 23.8304 196.71 24.3904 194.17C24.8004 191.78 26.9104 189.98 29.4104 190.02C32.1704 190.07 34.3704 192.35 34.3104 195.11C34.2504 196.14 34.1604 196.24 34.0604 196.66C33.4204 198.83 31.4304 200.24 29.2704 200.24C28.8004 200.24 28.3204 200.17 27.8504 200.03V200.04Z" fill="black"/>
<path d="M29.2203 199.26C26.4603 199.2 24.2703 196.91 24.3303 194.15L24.3503 193.39C24.4103 190.63 26.7003 188.44 29.4603 188.5C32.2203 188.56 34.4103 190.85 34.3503 193.61L34.3303 194.37C34.2703 197.09 32.0403 199.26 29.3303 199.26C29.3303 199.26 29.2503 199.26 29.2203 199.26Z" fill="black"/>
<path d="M30.0103 167.43C27.2503 167.36 25.0703 165.07 25.1403 162.3C25.2103 159.54 27.5003 157.36 30.2603 157.43C33.0203 157.5 35.2003 159.79 35.1303 162.55C35.0603 165.27 32.8403 167.42 30.1303 167.42C30.1303 167.42 30.0403 167.42 30.0003 167.42L30.0103 167.43ZM30.8003 136.36C28.0403 136.29 25.8603 133.99 25.9303 131.24C26.0003 128.48 28.2903 126.3 31.0503 126.37C33.8103 126.44 35.9903 128.73 35.9203 131.49C35.8503 134.21 33.6303 136.36 30.9203 136.36C30.9203 136.36 30.8303 136.36 30.7903 136.36H30.8003ZM31.5903 105.29C28.8303 105.22 26.6503 102.93 26.7203 100.17C26.7903 97.4102 29.0903 95.2302 31.8403 95.3002C34.6003 95.3702 36.7803 97.6602 36.7103 100.42C36.6403 103.14 34.4203 105.29 31.7103 105.29C31.7103 105.29 31.6203 105.29 31.5803 105.29H31.5903ZM32.3903 74.2202C29.6303 74.1502 27.4503 71.8602 27.5203 69.1002C27.5903 66.3402 29.8803 64.1602 32.6503 64.2302C35.4103 64.3002 37.5903 66.5902 37.5203 69.3602C37.4503 72.0802 35.2303 74.2302 32.5203 74.2302C32.5203 74.2302 32.4303 74.2302 32.3903 74.2302V74.2202Z" fill="black"/>
<path d="M32.9102 38.1604C32.9102 35.4004 35.1402 33.1604 37.9002 33.1504C40.6602 33.1504 42.9002 35.3804 42.9102 38.1404C42.9102 40.9004 40.6802 43.1404 37.9202 43.1504C35.1602 43.1504 32.9202 40.9204 32.9202 38.1604H32.9102Z" fill="black"/>
<path d="M58.3503 82.41C58.2803 79.65 60.4603 77.35 63.2203 77.28C65.9803 77.21 68.2803 79.39 68.3503 82.15C68.4203 84.91 66.2403 87.21 63.4803 87.28C63.4803 87.28 63.3903 87.28 63.3503 87.28C60.6503 87.28 58.4203 85.13 58.3503 82.41Z" fill="black"/>
<path d="M57.1304 47.4401C56.9204 44.6901 58.9904 42.2901 61.7404 42.0801C64.4904 41.8701 66.8904 43.9401 67.1004 46.6901C67.3104 49.4401 65.2404 51.8401 62.4904 52.0501C62.3604 52.0501 62.2404 52.0601 62.1104 52.0601C59.5204 52.0601 57.3304 50.0601 57.1304 47.4301V47.4401Z" fill="black"/>
<path d="M55.9203 34.9403C55.6003 32.2003 57.5703 29.7203 60.3103 29.4003C63.0503 29.0803 65.5303 31.0503 65.8503 33.7903C66.1703 36.5303 64.2003 39.0103 61.4603 39.3303C61.2603 39.3503 61.0703 39.3603 60.8803 39.3603C58.3803 39.3603 56.2103 37.4803 55.9203 34.9303V34.9403Z" fill="black"/>
<path d="M52.1002 14.1503C51.2602 11.5203 52.7102 8.71028 55.3502 7.87028C57.9802 7.03028 60.7902 8.48028 61.6302 11.1103C62.4702 13.7403 61.0202 16.5503 58.3902 17.3903C57.8802 17.5503 57.3702 17.6303 56.8702 17.6303C54.7502 17.6303 52.7802 16.2703 52.1102 14.1503H52.1002Z" fill="black"/>
<path d="M50.44 10.1499C49.03 7.76989 49.82 4.70989 52.2 3.29989C54.58 1.88989 57.64 2.67989 59.05 5.05989C60.46 7.43989 59.67 10.4999 57.29 11.9099C56.49 12.3799 55.61 12.6099 54.75 12.6099C53.04 12.6099 51.38 11.7299 50.44 10.1599V10.1499Z" fill="black"/>
<path d="M45.8903 10.86C43.6703 9.21 43.2203 6.08 44.8703 3.86C46.5203 1.65 49.6503 1.19 51.8703 2.84C54.0903 4.49 54.5403 7.62 52.8903 9.84C51.9103 11.16 50.4003 11.85 48.8803 11.85C47.8403 11.85 46.7903 11.53 45.9003 10.86H45.8903Z" fill="black"/>
<path d="M44.1201 20.8996C41.4301 20.2696 39.7701 17.5796 40.4001 14.8896C41.0301 12.1996 43.7201 10.5396 46.4101 11.1696C49.1001 11.7996 50.7601 14.4896 50.1301 17.1796C49.5901 19.4796 47.5301 21.0396 45.2701 21.0396C44.8901 21.0396 44.5101 20.9996 44.1201 20.9096V20.8996Z" fill="black"/>
<path d="M43.5902 24.0202C40.8802 23.4902 39.1102 20.8602 39.6402 18.1502C40.1702 15.4402 42.8002 13.6702 45.5102 14.2002C48.2202 14.7302 49.9902 17.3602 49.4602 20.0702C48.9902 22.4602 46.9002 24.1102 44.5602 24.1102C44.2402 24.1102 43.9202 24.0802 43.6002 24.0202H43.5902Z" fill="black"/>
<path d="M42.69 30.0099C39.96 29.5899 38.09 27.0299 38.52 24.2999C38.94 21.5699 41.5 19.6999 44.23 20.1299C46.96 20.5499 48.83 23.1099 48.4 25.8399C48.02 28.3099 45.89 30.0699 43.47 30.0699C43.21 30.0699 42.96 30.0499 42.7 30.0099H42.69Z" fill="black"/>
<path d="M41.9004 37.2397C39.1604 36.9397 37.1704 34.4697 37.4704 31.7197C37.7704 28.9797 40.2404 26.9897 42.9904 27.2897C45.7404 27.5897 47.7204 30.0597 47.4204 32.8097C47.1404 35.3697 44.9704 37.2697 42.4604 37.2697C42.2804 37.2697 42.0904 37.2597 41.9104 37.2397H41.9004Z" fill="black"/>
<path d="M40.9801 45.6C38.2301 45.3 36.2501 42.83 36.5501 40.08C36.8501 37.34 39.3201 35.35 42.0601 35.65C44.8101 35.95 46.7901 38.42 46.4901 41.17C46.2101 43.73 44.0401 45.63 41.5301 45.63C41.3501 45.63 41.1601 45.62 40.9801 45.6Z" fill="black"/>
<path d="M40.9702 47.3197C38.2202 47.1097 36.1602 44.6997 36.3702 41.9497C36.4002 41.5997 36.4302 41.2697 36.4602 40.9497C36.7502 38.1997 39.2102 36.2097 41.9602 36.4997C44.7102 36.7897 46.7002 39.2497 46.4102 41.9997C46.3802 42.2497 46.3602 42.4897 46.3402 42.7097C46.1402 45.3297 43.9502 47.3298 41.3602 47.3298C41.2302 47.3298 41.1002 47.3297 40.9702 47.3097V47.3197Z" fill="black"/>
<path d="M40.3301 55.7504C37.5801 55.5404 35.5201 53.1404 35.7301 50.3804C35.9401 47.6304 38.3401 45.5704 41.1001 45.7804C43.8501 45.9904 45.9101 48.3904 45.7001 51.1504C45.5001 53.7704 43.3101 55.7704 40.7201 55.7704C40.5901 55.7704 40.4601 55.7704 40.3301 55.7604V55.7504Z" fill="black"/>
<path d="M40.1003 121.58C37.3403 121.56 35.1203 119.3 35.1403 116.54C35.1603 113.78 37.4203 111.56 40.1803 111.58C42.9403 111.6 45.1603 113.86 45.1403 116.62C45.1203 119.37 42.8803 121.58 40.1403 121.58C40.1403 121.58 40.1103 121.58 40.0903 121.58H40.1003ZM40.3803 88.6701C37.6203 88.6401 35.4003 86.3901 35.4203 83.6301C35.4403 80.8701 37.7003 78.6501 40.4603 78.6701C43.2203 78.6901 45.4403 80.9501 45.4203 83.7101C45.4003 86.4601 43.1603 88.6701 40.4203 88.6701H40.3803Z" fill="black"/>
<path d="M35.72 165.03C35.57 162.27 37.67 159.91 40.43 159.76C43.19 159.6 45.55 161.71 45.7 164.47C45.86 167.23 43.75 169.59 40.99 169.74C40.89 169.74 40.8 169.74 40.7 169.74C38.07 169.74 35.86 167.68 35.71 165.02L35.72 165.03Z" fill="black"/>
<path d="M36.3701 173.33C36.1501 170.58 38.2101 168.17 40.9601 167.95C43.7101 167.73 46.1201 169.79 46.3401 172.54C46.5601 175.29 44.5001 177.7 41.7501 177.92C41.6201 177.93 41.4901 177.94 41.3501 177.94C38.7701 177.94 36.5801 175.95 36.3701 173.33Z" fill="black"/>
<path d="M36.5502 175.07C36.5202 174.8 36.4902 174.52 36.4602 174.23C36.1802 171.48 38.1802 169.03 40.9302 168.75C43.6802 168.47 46.1302 170.47 46.4102 173.22C46.4302 173.46 46.4602 173.71 46.4902 173.96C46.7902 176.7 44.8202 179.18 42.0702 179.48C41.8802 179.5 41.7002 179.51 41.5102 179.51C39.0002 179.51 36.8302 177.62 36.5502 175.06V175.07Z" fill="black"/>
<path d="M37.47 183.26C37.16 180.52 39.14 178.04 41.88 177.73C44.62 177.42 47.1 179.4 47.41 182.14C47.72 184.88 45.74 187.36 43 187.67C42.81 187.69 42.62 187.7 42.44 187.7C39.93 187.7 37.76 185.81 37.48 183.26H37.47Z" fill="black"/>
<path d="M38.53 190.45C38.08 187.72 39.94 185.15 42.66 184.71C45.38 184.27 47.95 186.12 48.4 188.84C48.84 191.56 46.99 194.14 44.27 194.58C44 194.62 43.73 194.65 43.46 194.65C41.05 194.65 38.93 192.91 38.53 190.45Z" fill="black"/>
<path d="M40.7503 200.54C40.0003 197.88 41.5403 195.12 44.2003 194.37C46.8603 193.62 49.6203 195.16 50.3703 197.82C51.1203 200.48 49.5803 203.24 46.9203 203.99C46.4703 204.12 46.0103 204.18 45.5603 204.18C43.3803 204.18 41.3703 202.74 40.7503 200.54Z" fill="black"/>
<path d="M42.4702 205.41C41.3802 202.87 42.5502 199.93 45.0902 198.84C47.6302 197.75 50.5702 198.92 51.6602 201.46C52.7502 204 51.5802 206.94 49.0402 208.03C48.4002 208.31 47.7302 208.44 47.0702 208.44C45.1302 208.44 43.2902 207.31 42.4702 205.41Z" fill="black"/>
<path d="M48.02 212.19C45.58 210.89 44.66 207.86 45.96 205.43C47.26 202.99 50.29 202.07 52.72 203.37C55.16 204.67 56.08 207.7 54.78 210.14C53.88 211.83 52.15 212.79 50.36 212.79C49.57 212.79 48.76 212.6 48.01 212.2L48.02 212.19Z" fill="black"/>
<path d="M48.2001 212.21C46.2101 211.02 45.2501 208.56 46.0401 206.28C46.9501 203.67 49.8001 202.29 52.4001 203.2C52.8401 203.33 54.1601 203.91 55.0201 205.04C56.7401 207.2 56.3801 210.35 54.2101 212.07C53.2901 212.8 52.1901 213.15 51.1001 213.15C50.0701 213.15 49.0401 212.83 48.1801 212.21H48.2001Z" fill="black"/>
<path d="M51.5103 213.15C48.7503 213.15 46.5103 210.91 46.5103 208.15C46.5103 205.39 48.7503 203.15 51.5103 203.15H51.9003C54.6603 203.15 56.9003 205.39 56.9003 208.15C56.9003 210.91 54.6603 213.15 51.9003 213.15C48.7503 213.15 51.9003 213.15 51.5103 213.15Z" fill="black"/>
<path d="M47.8703 210.19C46.6203 207.73 47.6103 204.72 50.0703 203.47L50.5003 203.25C52.9603 202 55.9703 202.99 57.2203 205.45C58.4703 207.91 57.4803 210.92 55.0203 212.17L54.5903 212.39C53.8603 212.76 53.0903 212.93 52.3303 212.93C50.5103 212.93 48.7503 211.93 47.8703 210.19Z" fill="black"/>
<path d="M54.1601 207.69C51.6001 206.66 50.3501 203.75 51.3701 201.19C52.4001 198.63 55.3001 197.38 57.8701 198.4C60.4301 199.42 61.6801 202.33 60.6601 204.9C59.8801 206.86 58.0001 208.05 56.0101 208.05C55.3901 208.05 54.7701 207.94 54.1601 207.69Z" fill="black"/>
<path d="M59.1003 191.77C56.3703 191.35 54.5003 188.8 54.9203 186.07C55.3403 183.34 57.9003 181.47 60.6203 181.89C63.3503 182.31 65.2203 184.86 64.8003 187.59C64.4203 190.06 62.2903 191.83 59.8603 191.83C59.6103 191.83 59.3503 191.81 59.0903 191.77H59.1003Z" fill="black"/>
<path d="M60.4902 182.89C57.7502 182.59 55.7602 180.13 56.0602 177.38C56.3602 174.63 58.8202 172.65 61.5702 172.95C64.3102 173.25 66.3002 175.71 66.0002 178.46C65.7202 181.02 63.5602 182.92 61.0402 182.92C60.8602 182.92 60.6802 182.92 60.4902 182.89Z" fill="black"/>
<path d="M61.02 177.94C58.28 177.64 56.29 175.18 56.59 172.43C56.89 169.68 59.35 167.7 62.1 168C64.85 168.3 66.83 170.76 66.54 173.51C66.26 176.07 64.1 177.97 61.57 177.97C61.39 177.97 61.21 177.96 61.03 177.94H61.02Z" fill="black"/>
<path d="M62.63 147.01C59.87 146.9 57.73 144.57 57.84 141.81C57.95 139.05 60.28 136.91 63.04 137.02C65.8 137.13 67.94 139.46 67.83 142.22C67.72 144.91 65.5 147.02 62.84 147.02C62.77 147.02 62.7 147.02 62.63 147.02V147.01Z" fill="black"/>
<path d="M58.4702 151.27C55.7102 151.21 53.5202 148.93 53.5702 146.17C53.6302 143.41 55.9102 141.22 58.6702 141.27C61.4302 141.33 63.6202 143.61 63.5602 146.37C63.5002 149.09 61.2802 151.27 58.5602 151.26C58.5602 151.26 58.4902 151.26 58.4502 151.26L58.4702 151.27Z" fill="black"/>
<path d="M58.1504 154.1C55.3904 153.95 53.2804 151.59 53.4304 148.83C53.5804 146.07 55.9404 143.96 58.7004 144.11C61.4604 144.26 63.5704 146.62 63.4204 149.37C63.2704 152.04 61.0704 154.1 58.4304 154.1C58.3404 154.1 58.2504 154.1 58.1504 154.1Z" fill="black"/>
<path d="M56.8 167.81C54.05 167.52 52.06 165.05 52.36 162.31C52.65 159.56 55.11 157.57 57.86 157.87C60.61 158.16 62.59 160.62 62.3 163.37C62.03 165.94 59.86 167.84 57.33 167.84C57.15 167.84 56.98 167.84 56.8 167.81Z" fill="black"/>
<path d="M52.4602 181.81C49.9202 180.73 48.7402 177.79 49.8202 175.25C50.9002 172.71 53.8403 171.53 56.3803 172.61C58.9203 173.69 60.1002 176.63 59.0202 179.17C58.2102 181.07 56.3602 182.21 54.4202 182.21C53.7602 182.21 53.1002 182.08 52.4602 181.81Z" fill="black"/>
<path d="M46.5703 180.18C46.5703 177.42 48.8103 175.18 51.5703 175.18C54.3303 175.18 56.5703 177.42 56.5703 180.18C56.5703 182.94 54.3303 185.18 51.5703 185.18C48.8103 185.18 46.5703 182.94 46.5703 180.18Z" fill="black"/>
<path d="M42.5702 174.15C41.9202 171.47 43.5802 168.77 46.2602 168.12C48.9402 167.47 51.6502 169.13 52.2902 171.81C52.9402 174.49 51.2802 177.19 48.6002 177.84C48.2102 177.93 47.8102 177.98 47.4302 177.98C45.1702 177.98 43.1202 176.44 42.5702 174.15Z" fill="black"/>
<path d="M41.8402 170.73C41.3902 168.01 43.2302 165.43 45.9502 164.98C48.6802 164.52 51.2502 166.37 51.7102 169.09C52.1602 171.81 50.3202 174.39 47.6002 174.84C47.3202 174.89 47.0402 174.91 46.7702 174.91C44.3702 174.91 42.2502 173.18 41.8402 170.73Z" fill="black"/>
<path d="M41.0503 165.77C40.7003 163.03 42.6303 160.53 45.3703 160.17C48.1103 159.82 50.6103 161.75 50.9703 164.49C51.3203 167.23 49.3903 169.73 46.6503 170.08C46.4303 170.11 46.2203 170.12 46.0103 170.12C43.5303 170.12 41.3803 168.28 41.0603 165.76L41.0503 165.77Z" fill="black"/>
<path d="M39.7199 150.73C39.5799 147.97 41.6999 145.62 44.4599 145.49C47.2199 145.35 49.5699 147.47 49.7099 150.23C49.8499 152.99 47.7299 155.34 44.9699 155.48C44.8899 155.48 44.7999 155.48 44.7199 155.48C42.0699 155.48 39.8599 153.4 39.7299 150.73H39.7199Z" fill="black"/>
<path d="M39.5603 147.59C39.4203 144.83 41.5403 142.48 44.3003 142.34C47.0603 142.2 49.4103 144.32 49.5503 147.08C49.6903 149.84 47.5703 152.19 44.8103 152.33C44.7203 152.33 44.6403 152.33 44.5503 152.33C41.9103 152.33 39.7003 150.26 39.5603 147.58V147.59Z" fill="black"/>
<path d="M39.3904 144.08C39.2604 141.32 41.4004 138.98 44.1604 138.86C46.9204 138.73 49.2604 140.87 49.3804 143.63C49.5104 146.39 47.3704 148.73 44.6104 148.85C44.5304 148.85 44.4504 148.85 44.3804 148.85C41.7204 148.85 39.5104 146.76 39.3904 144.08Z" fill="black"/>
<path d="M39.2003 139.3C39.0903 136.54 41.2403 134.22 44.0003 134.11C46.7603 134 49.0803 136.15 49.1903 138.91C49.3003 141.67 47.1503 144 44.3903 144.1C44.3203 144.1 44.2503 144.1 44.1903 144.1C41.5203 144.1 39.3003 141.99 39.2003 139.3Z" fill="black"/>
<path d="M38.7002 112.46C38.7002 109.7 40.9402 107.46 43.7002 107.46C46.4602 107.46 48.7002 109.7 48.7002 112.46C48.7002 115.22 46.4602 117.46 43.7002 117.46C40.9402 117.46 38.7002 115.22 38.7002 112.46Z" fill="black"/>
<path d="M38.7002 100.78C38.7002 98.0203 40.9402 95.7803 43.7002 95.7803C46.4602 95.7803 48.7002 98.0203 48.7002 100.78C48.7002 103.54 46.4602 105.78 43.7002 105.78C40.9402 105.78 38.7002 103.54 38.7002 100.78Z" fill="black"/>
<path d="M44.43 71.5901C41.67 71.5201 39.49 69.2301 39.55 66.4701C39.62 63.7101 41.91 61.5301 44.67 61.5901C47.43 61.6601 49.61 63.9501 49.55 66.7101C49.48 69.4301 47.26 71.5901 44.55 71.5901C44.55 71.5901 44.47 71.5901 44.42 71.5901H44.43Z" fill="black"/>
<path d="M44.4101 69.3803C41.6501 69.2403 39.5301 66.8903 39.6701 64.1303C39.8101 61.3703 42.1601 59.2503 44.9201 59.3903C47.6801 59.5303 49.8001 61.8803 49.6601 64.6403C49.5201 67.3103 47.3201 69.3903 44.6701 69.3903C44.5901 69.3903 44.5001 69.3903 44.4101 69.3903V69.3803Z" fill="black"/>
<path d="M45.3302 54.0502C42.5902 53.7302 40.6302 51.2402 40.9502 48.5002C41.2702 45.7602 43.7602 43.8002 46.5002 44.1202C49.2402 44.4402 51.2002 46.9302 50.8802 49.6702C50.5802 52.2102 48.4202 54.0902 45.9202 54.0902C45.7202 54.0902 45.5302 54.0802 45.3302 54.0602V54.0502Z" fill="black"/>
<path d="M46.0403 47.4196C43.3303 46.9096 41.5403 44.2996 42.0403 41.5896C42.5503 38.8796 45.1603 37.0896 47.8703 37.5896C50.5803 38.0996 52.3703 40.7096 51.8703 43.4196C51.4203 45.8196 49.3203 47.4996 46.9603 47.4996C46.6603 47.4996 46.3503 47.4696 46.0403 47.4096V47.4196Z" fill="black"/>
<path d="M46.5503 43.4801C43.8903 42.7301 42.3403 39.9701 43.0903 37.3101C43.8403 34.6501 46.6003 33.1001 49.2603 33.8501C51.9203 34.6001 53.4703 37.3601 52.7203 40.0201C52.1003 42.2301 50.0903 43.6701 47.9103 43.6701C47.4603 43.6701 47.0103 43.6101 46.5603 43.4801H46.5503Z" fill="black"/>
<path d="M46.5201 33.5604C46.2601 30.8104 48.2801 28.3704 51.0301 28.1104C53.7801 27.8504 56.2201 29.8704 56.4801 32.6104C56.7401 35.3604 54.7201 37.8004 51.9701 38.0604C51.8101 38.0804 51.6501 38.0804 51.4901 38.0804C48.9401 38.0804 46.7601 36.1404 46.5201 33.5504V33.5604Z" fill="black"/>
<path d="M49.3501 37.0295C47.6301 34.8695 48.0001 31.7195 50.1601 29.9995C52.3201 28.2795 55.4701 28.6495 57.1801 30.8095C58.9001 32.9695 58.5301 36.1195 56.3701 37.8395C55.4501 38.5695 54.3601 38.9195 53.2701 38.9195C51.8001 38.9195 50.3401 38.2695 49.3501 37.0295Z" fill="black"/>
<path d="M51.5299 44.8297C51.0499 42.1097 52.8699 39.5197 55.5899 39.0397C58.3099 38.5597 60.8999 40.3797 61.3799 43.0997C61.8599 45.8197 60.0399 48.4097 57.3199 48.8897C57.0299 48.9397 56.7299 48.9697 56.4499 48.9697C54.0699 48.9697 51.9599 47.2597 51.5299 44.8397V44.8297Z" fill="black"/>
<path d="M52.4002 51.3897C52.1002 48.6397 54.0802 46.1797 56.8302 45.8797C59.5702 45.5797 62.0402 47.5597 62.3402 50.3097C62.6402 53.0497 60.6602 55.5197 57.9102 55.8197C57.7302 55.8397 57.5402 55.8497 57.3602 55.8497C54.8402 55.8497 52.6702 53.9497 52.4002 51.3897Z" fill="black"/>
<path d="M53.4402 64.79C53.3002 62.03 55.4102 59.68 58.1702 59.53C60.9302 59.38 63.2802 61.5 63.4302 64.26C63.5802 67.02 61.4602 69.37 58.7002 69.52C58.6102 69.52 58.5202 69.52 58.4302 69.52C55.7902 69.52 53.5802 67.45 53.4402 64.78V64.79Z" fill="black"/>
<path d="M53.5802 67.37C53.4302 64.61 55.5502 62.26 58.3102 62.11C61.0702 61.96 63.4202 64.08 63.5702 66.84C63.7202 69.6 61.6002 71.95 58.8402 72.1C58.7502 72.1 58.6602 72.1 58.5702 72.1C55.9302 72.1 53.7202 70.03 53.5802 67.37Z" fill="black"/>
<path d="M54.4299 105.51C54.3699 102.75 56.5599 100.46 59.3199 100.4C62.0799 100.34 64.3699 102.53 64.4299 105.29C64.4899 108.05 62.3099 110.34 59.5399 110.4C59.5399 110.4 59.4599 110.4 59.4299 110.4C56.7199 110.4 54.4899 108.23 54.4299 105.51Z" fill="black"/>
<path d="M107.66 201V200.82C107.66 198.06 109.9 195.82 112.66 195.82C115.42 195.82 117.66 198.06 117.66 200.82V201C117.66 203.76 115.42 206 112.66 206C109.9 206 107.66 203.76 107.66 201Z" fill="black"/>
<path d="M107.39 201.16C107.39 199.09 108.65 197.31 110.44 196.55C112.68 195.52 115.39 196.27 116.75 198.41C118.23 200.74 117.54 203.83 115.21 205.31C115.08 205.39 114.91 205.5 114.59 205.65C114.23 205.77 113.87 206.09 112.39 206.15C109.63 206.15 107.39 203.91 107.39 201.15V201.16Z" fill="black"/>
<path d="M107.26 206.15C104.5 206.15 102.26 203.91 102.26 201.14C102.26 198.38 104.5 196.14 107.27 196.15C110.03 196.15 112.27 198.39 112.26 201.16C112.26 203.92 110.02 206.15 107.26 206.15Z" fill="black"/>
<path d="M102.02 198.99C101.77 196.24 103.8 193.81 106.55 193.56C109.3 193.31 111.73 195.34 111.98 198.09C112.23 200.84 110.2 203.27 107.45 203.52C107.3 203.53 107.15 203.54 107 203.54C104.44 203.54 102.26 201.58 102.03 198.99H102.02Z" fill="black"/>
<path d="M101.43 192.43C101.18 189.68 103.21 187.25 105.96 187C108.71 186.75 111.14 188.78 111.39 191.53C111.64 194.28 109.61 196.71 106.86 196.96C106.71 196.97 106.55 196.98 106.4 196.98C103.84 196.98 101.66 195.03 101.43 192.43Z" fill="black"/>
<path d="M98.0999 155.7C97.8499 152.95 99.8799 150.52 102.63 150.27C105.38 150.02 107.81 152.05 108.06 154.8C108.31 157.55 106.28 159.98 103.53 160.23C103.38 160.24 103.22 160.25 103.07 160.25C100.51 160.25 98.3299 158.3 98.0999 155.7Z" fill="black"/>
<path d="M94.2101 112.47C93.9701 109.72 96.0101 107.29 98.7601 107.05C101.51 106.81 103.94 108.85 104.17 111.6C104.41 114.35 102.37 116.78 99.6201 117.01C99.4701 117.02 99.3301 117.03 99.1801 117.03C96.6201 117.03 94.4301 115.07 94.2101 112.46V112.47Z" fill="black"/>
<path d="M95.11 114.84C93.37 112.7 93.69 109.55 95.84 107.81C97.98 106.07 101.13 106.39 102.87 108.54C104.61 110.68 104.29 113.83 102.14 115.57C101.21 116.32 100.1 116.69 98.99 116.69C97.54 116.69 96.09 116.06 95.11 114.84Z" fill="black"/>
<path d="M98.07 118.01C95.38 117.66 93.46 115.23 93.74 112.54C93.74 112.54 93.74 112.49 93.74 112.45C93.74 112.31 93.76 112.09 93.79 111.79C94.1 109.05 96.57 107.07 99.31 107.38C102.05 107.69 104.03 110.16 103.72 112.91C103.72 112.91 103.73 112.97 103.66 113.7C103.33 116.22 101.18 118.06 98.71 118.06C98.5 118.06 98.28 118.05 98.06 118.02L98.07 118.01Z" fill="black"/>
<path d="M97.6701 121.01C94.9301 120.65 93.0001 118.14 93.3601 115.4C93.7201 112.66 96.2301 110.73 98.9701 111.09C101.71 111.45 103.64 113.96 103.28 116.7C102.95 119.22 100.8 121.05 98.3301 121.05C98.1101 121.05 97.8901 121.04 97.6701 121.01Z" fill="black"/>
<path d="M95.4201 138.34C92.6801 137.98 90.7501 135.48 91.1101 132.74C91.4701 130 93.9801 128.07 96.7101 128.43C99.4501 128.79 101.38 131.29 101.02 134.03C100.69 136.55 98.5401 138.39 96.0701 138.38C95.8501 138.38 95.6401 138.37 95.4201 138.34Z" fill="black"/>
<path d="M91.0601 167.17C91.0601 164.41 93.3001 162.17 96.0601 162.17C98.8201 162.17 101.06 164.41 101.06 167.17C101.06 169.93 98.8201 172.17 96.0601 172.17C93.3001 172.17 91.0601 169.93 91.0601 167.17Z" fill="black"/>
<path d="M90.8701 201.16C90.8701 199.55 91.6301 198.12 92.8101 197.21C94.6801 195.68 97.4401 195.69 99.3001 197.35C101.36 199.19 101.54 202.35 99.7101 204.41C99.4101 204.69 99.3601 204.9 98.3101 205.54C97.9001 205.73 97.3601 206.12 95.8701 206.17C93.1101 206.17 90.8701 203.93 90.8701 201.17V201.16Z" fill="black"/>
<path d="M91.8501 206.15C89.0901 206.15 86.8501 203.91 86.8501 201.15C86.8501 198.39 89.0901 196.15 91.8501 196.15C94.6101 196.15 96.8501 198.39 96.8501 201.15C96.8501 203.91 94.6101 206.15 91.8501 206.15Z" fill="black"/>
<path d="M86.8902 202.25C86.7402 201.66 86.7002 201.24 86.7002 200.74C86.7002 197.98 88.9402 195.74 91.7002 195.74C94.2902 195.74 96.4302 197.71 96.6802 200.24C97.0502 202.73 95.5002 205.15 93.0102 205.81C92.5802 205.92 92.1502 205.98 91.7302 205.98C89.5102 205.98 87.4902 204.5 86.9002 202.26L86.8902 202.25Z" fill="black"/>
<path d="M86.6899 169.18C86.6899 166.42 88.9299 164.18 91.6899 164.18C94.4499 164.18 96.6899 166.42 96.6899 169.18C96.6899 171.94 94.4499 174.18 91.6899 174.18C88.9299 174.18 86.6899 171.94 86.6899 169.18ZM86.6899 137.62C86.6899 134.86 88.9299 132.62 91.6899 132.62C94.4499 132.62 96.6899 134.86 96.6899 137.62C96.6899 140.38 94.4499 142.62 91.6899 142.62C88.9299 142.62 86.6899 140.38 86.6899 137.62ZM86.6899 106.06C86.6899 103.3 88.9299 101.06 91.6899 101.06C94.4499 101.06 96.6899 103.3 96.6899 106.06C96.6899 108.82 94.4499 111.06 91.6899 111.06C88.9299 111.06 86.6899 108.82 86.6899 106.06ZM86.6899 74.5004C86.6899 71.7404 88.9299 69.5004 91.6899 69.5004C94.4499 69.5004 96.6899 71.7404 96.6899 74.5004C96.6899 77.2604 94.4499 79.5004 91.6899 79.5004C88.9299 79.5004 86.6899 77.2604 86.6899 74.5004ZM86.6899 42.9404C86.6899 40.1804 88.9299 37.9404 91.6899 37.9404C94.4499 37.9404 96.6899 40.1804 96.6899 42.9404C96.6899 45.7004 94.4499 47.9404 91.6899 47.9404C88.9299 47.9404 86.6899 45.7004 86.6899 42.9404Z" fill="black"/>
<path d="M86.6902 5.01C86.6802 2.24 88.9202 0 91.6802 0C94.4402 0 96.6802 2.23 96.6802 4.99C96.6802 7.75 94.4502 9.99 91.6902 10C88.9302 10 86.6902 7.77 86.6802 5.01H86.6902Z" fill="black"/>
<path d="M95.2599 10.0504C92.5299 9.61043 90.6799 7.04043 91.1299 4.31043C91.5699 1.59043 94.1399 -0.269567 96.8699 0.180433C99.5999 0.620433 101.45 3.19043 101 5.92043C100.6 8.37043 98.4799 10.1204 96.0699 10.1204C95.7999 10.1204 95.5299 10.1004 95.2599 10.0504Z" fill="black"/>
<path d="M91.0701 60.5203C91.0701 57.7603 93.3101 55.5203 96.0701 55.5203C98.8301 55.5203 101.07 57.7603 101.07 60.5203C101.07 63.2803 98.8301 65.5203 96.0701 65.5203C93.3101 65.5203 91.0701 63.2803 91.0701 60.5203ZM91.0601 32.8203C91.0601 30.0603 93.3001 27.8203 96.0601 27.8203C98.8201 27.8203 101.06 30.0603 101.06 32.8203C101.06 35.5803 98.8201 37.8203 96.0601 37.8203C93.3001 37.8203 91.0601 35.5803 91.0601 32.8203Z" fill="black"/>
<path d="M94.9801 93.8397C94.8901 93.8197 94.7101 93.7797 94.5001 93.6897C94.2101 93.5797 93.9201 93.4497 93.6401 93.2897C93.2501 93.0697 92.8501 92.7797 92.5601 92.4497C92.0301 91.8997 91.7301 91.3597 91.5501 90.9497C91.3201 90.3997 91.2401 90.0497 91.1901 89.7697C91.1201 89.3997 91.1101 89.1497 91.0901 88.9097C90.9301 86.1497 93.0401 83.7897 95.7901 83.6297C98.2001 83.4897 100.31 85.0797 100.91 87.3297C101.54 89.1197 101.11 91.1897 99.6501 92.5897C98.6801 93.5197 97.4301 93.9797 96.1901 93.9797C95.7801 93.9797 95.3801 93.9297 94.9801 93.8297V93.8397Z" fill="black"/>
<path d="M92.44 92.1702C90.93 90.3702 90.9 87.8202 92.23 86.0102C93.32 84.4602 95.25 83.6002 97.24 83.9702C99.96 84.4802 101.75 87.0802 101.24 89.8002C100.97 91.0502 100.58 91.5002 100.32 91.9102C100.03 92.2902 99.79 92.5402 99.49 92.7902C98.55 93.5802 97.41 93.9602 96.28 93.9602C94.85 93.9602 93.44 93.3502 92.45 92.1802L92.44 92.1702Z" fill="black"/>
<path d="M95.7202 93.1396C92.9802 92.7496 91.0802 90.2296 91.4702 87.4896L91.5702 86.7996C91.9602 84.0696 94.4802 82.1596 97.2202 82.5496C99.9502 82.9396 101.86 85.4596 101.48 88.1996L101.38 88.8896C101.03 91.3896 98.8902 93.1896 96.4402 93.1896C96.2102 93.1896 95.9702 93.1696 95.7402 93.1396H95.7202Z" fill="black"/>
<path d="M99.3401 64.9704C96.6001 64.6304 94.6601 62.1304 95.0001 59.3904C95.3401 56.6504 97.8401 54.7104 100.58 55.0504C103.32 55.3904 105.26 57.8904 104.92 60.6304C104.6 63.1604 102.45 65.0104 99.9701 65.0104C99.7601 65.0104 99.5501 65.0004 99.3401 64.9704ZM102.8 37.4704C100.06 37.1304 98.1201 34.6304 98.4601 31.8904C98.8001 29.1504 101.3 27.2104 104.04 27.5504C106.78 27.8904 108.72 30.3904 108.38 33.1304C108.06 35.6604 105.91 37.5104 103.43 37.5104C103.22 37.5104 103.01 37.5004 102.8 37.4704Z" fill="black"/>
<path d="M112.55 10.0303C109.79 10.0303 107.56 7.77031 107.57 5.01031C107.58 2.25031 109.83 0.0203069 112.59 0.0303069C115.35 0.0303069 117.58 2.29031 117.57 5.05031C117.56 7.81031 115.32 10.0303 112.57 10.0303H112.55Z" fill="black"/>
<path d="M104.93 64.2599C102.19 63.9099 100.26 61.3999 100.61 58.6599C100.96 55.9199 103.47 53.9899 106.21 54.3399C108.95 54.6899 110.88 57.1999 110.53 59.9399C110.21 62.4599 108.05 64.2999 105.58 64.2999C105.37 64.2999 105.15 64.2899 104.93 64.2599ZM108.43 37.1299C105.69 36.7799 103.76 34.2699 104.11 31.5299C104.46 28.7899 106.97 26.8599 109.71 27.2099C112.45 27.5599 114.38 30.0699 114.03 32.8099C113.7 35.3299 111.55 37.1699 109.08 37.1699C108.87 37.1699 108.65 37.1599 108.44 37.1299H108.43Z" fill="black"/>
<path d="M105.03 172.56C104.78 169.81 106.8 167.37 109.55 167.12C112.3 166.86 114.74 168.89 114.99 171.64C115.24 174.39 113.22 176.83 110.47 177.08C110.31 177.1 110.16 177.1 110 177.1C107.45 177.1 105.27 175.15 105.03 172.56ZM102.39 144.01C102.14 141.26 104.16 138.82 106.91 138.57C109.66 138.32 112.1 140.34 112.35 143.09C112.61 145.84 110.58 148.28 107.83 148.53C107.67 148.54 107.52 148.55 107.36 148.55C104.81 148.55 102.63 146.6 102.39 144.01ZM99.7402 115.45C99.4902 112.7 101.51 110.27 104.26 110.01C107.01 109.75 109.45 111.78 109.7 114.53C109.96 117.28 107.93 119.72 105.18 119.97C105.02 119.99 104.87 119.99 104.71 119.99C102.16 119.99 99.9802 118.04 99.7402 115.45Z" fill="black"/>
<path d="M112.66 206C109.96 206 107.74 203.85 107.66 201.14V200.78C107.57 198.02 109.75 195.72 112.51 195.64C115.27 195.57 117.57 197.74 117.65 200.5V200.86C117.74 203.62 115.56 205.92 112.8 206C112.75 206 112.7 206 112.66 206Z" fill="black"/>
<path d="M82.9904 250.29C82.8804 247.53 85.0304 245.2 87.7904 245.09C90.5504 244.98 92.8804 247.13 92.9904 249.89C93.1004 252.65 90.9504 254.97 88.1904 255.09C88.1204 255.09 88.0504 255.09 87.9904 255.09C85.3204 255.09 83.1004 252.98 83.0004 250.29H82.9904Z" fill="black"/>
<path d="M82.84 246.62C82.73 243.86 84.88 241.54 87.64 241.42C90.4 241.31 92.72 243.46 92.84 246.22C92.95 248.98 90.8 251.31 88.04 251.42C87.97 251.42 87.9 251.42 87.84 251.42C85.17 251.42 82.95 249.31 82.85 246.62H82.84Z" fill="black"/>
<path d="M82.4802 222.73C82.4402 219.97 84.6402 217.7 87.4002 217.65C90.1602 217.61 92.4302 219.81 92.4702 222.57C92.5102 225.33 90.3102 227.6 87.5502 227.65C87.5502 227.65 87.5002 227.65 87.4702 227.65C84.7402 227.65 82.5102 225.46 82.4702 222.73H82.4802Z" fill="black"/>
<path d="M82.0202 196.73C81.9102 193.97 84.0502 191.64 86.8102 191.53C89.5702 191.42 91.9002 193.56 92.0102 196.32C92.1202 199.08 89.9802 201.41 87.2202 201.52C87.1502 201.52 87.0802 201.52 87.0102 201.52C84.3402 201.52 82.1302 199.41 82.0202 196.72V196.73Z" fill="black"/>
<path d="M81.2404 186.31C80.9404 183.56 82.9304 181.1 85.6804 180.8C88.4304 180.5 90.8904 182.49 91.1904 185.24C91.4904 187.98 89.5004 190.45 86.7504 190.75C86.5704 190.77 86.3904 190.78 86.2104 190.78C83.6904 190.78 81.5204 188.88 81.2404 186.32V186.31Z" fill="black"/>
<path d="M79.3801 176.18C78.5501 173.55 80.0001 170.74 82.6401 169.9C85.2701 169.07 88.0801 170.52 88.9201 173.16C89.7501 175.79 88.2901 178.6 85.6601 179.44C85.1601 179.6 84.6501 179.67 84.1501 179.67C82.0301 179.67 80.0601 178.31 79.3801 176.18Z" fill="black"/>
<path d="M83.79 179.05C81.03 178.9 78.92 176.54 79.07 173.78C79.12 172.96 79.29 172.35 79.41 171.96C80.23 169.32 83.04 167.86 85.67 168.68C88.24 169.48 89.71 172.18 89.01 174.76C88.66 177.22 86.55 179.06 84.06 179.06C83.97 179.06 83.87 179.06 83.78 179.06L83.79 179.05Z" fill="black"/>
<path d="M84.1699 174.54C81.4599 174.01 79.6999 171.38 80.2299 168.67C80.7599 165.96 83.3899 164.2 86.0999 164.73C88.8099 165.26 90.5699 167.89 90.0399 170.6C89.5699 172.98 87.4799 174.64 85.1399 174.64C84.8199 174.64 84.4899 174.61 84.1699 174.54Z" fill="black"/>
<path d="M85.0701 171.14C82.3301 170.76 80.4301 168.23 80.8101 165.5C81.1901 162.77 83.7201 160.86 86.4501 161.24C89.1901 161.62 91.0901 164.15 90.7101 166.88C90.3601 169.38 88.2201 171.19 85.7601 171.19C85.5301 171.19 85.3001 171.17 85.0601 171.14H85.0701Z" fill="black"/>
<path d="M85.5101 167.97C82.7701 167.59 80.8601 165.07 81.2401 162.33C81.6201 159.6 84.1401 157.68 86.8801 158.06C89.6201 158.44 91.5301 160.96 91.1501 163.69C90.8101 166.2 88.6601 168.01 86.2001 168.01C85.9701 168.01 85.7401 167.99 85.5101 167.96V167.97Z" fill="black"/>
<path d="M86.8503 158.17C84.1003 158 82.0003 155.62 82.1703 152.87C82.3403 150.11 84.7203 148.02 87.4703 148.19C90.2303 148.36 92.3203 150.74 92.1503 153.49C91.9803 156.14 89.7803 158.18 87.1603 158.18C87.0603 158.18 86.9503 158.18 86.8403 158.17H86.8503Z" fill="black"/>
<path d="M87.2301 152.04C84.4701 151.87 82.3801 149.49 82.5601 146.74C82.7301 143.98 85.1101 141.89 87.8601 142.06C90.6201 142.24 92.7101 144.61 92.5401 147.37C92.3701 150.02 90.1701 152.05 87.5501 152.05C87.4401 152.05 87.3401 152.05 87.2301 152.04Z" fill="black"/>
<path d="M87.5401 147.25C84.7801 147.12 82.6501 144.78 82.7801 142.02C82.9101 139.26 85.2501 137.13 88.0101 137.26C90.7701 137.39 92.9001 139.73 92.7701 142.49C92.6401 145.17 90.4301 147.25 87.7801 147.25C87.7001 147.25 87.6201 147.25 87.5401 147.25Z" fill="black"/>
<path d="M87.7802 143.89C85.0202 143.83 82.8302 141.55 82.8802 138.79C82.9402 136.03 85.2202 133.84 87.9802 133.89C90.7402 133.95 92.9302 136.23 92.8702 138.99C92.8102 141.71 90.5902 143.89 87.8702 143.89C87.8702 143.89 87.8002 143.89 87.7602 143.89H87.7802Z" fill="black"/>
<path d="M87.8702 139.51C85.1102 139.45 82.9202 137.16 82.9802 134.4C83.0402 131.64 85.3302 129.45 88.0902 129.51C90.8502 129.57 93.0402 131.86 92.9802 134.62C92.9202 137.34 90.6902 139.51 87.9802 139.51C87.9802 139.51 87.9102 139.51 87.8702 139.51Z" fill="black"/>
<path d="M82.8404 108.52C82.8304 105.76 85.0504 103.51 87.8104 103.49C90.5704 103.47 92.8204 105.7 92.8404 108.46C92.8604 111.22 90.6304 113.47 87.8704 113.49H87.8404C85.0904 113.49 82.8604 111.27 82.8404 108.52Z" fill="black"/>
<path d="M82.6803 104.45C82.5703 101.69 84.7203 99.3699 87.4803 99.2599C90.2403 99.1499 92.5603 101.3 92.6703 104.06C92.7803 106.82 90.6303 109.14 87.8703 109.25C87.8003 109.25 87.7403 109.25 87.6703 109.25C85.0003 109.25 82.7803 107.14 82.6803 104.45Z" fill="black"/>
<path d="M81.8302 90.8503C81.6002 88.1003 83.6402 85.6803 86.3902 85.4503C89.1402 85.2203 91.5602 87.2603 91.7902 90.0103C92.0202 92.7603 89.9802 95.1803 87.2302 95.4103C87.0902 95.4203 86.9402 95.4303 86.8002 95.4303C84.2302 95.4303 82.0402 93.4603 81.8202 90.8503H81.8302Z" fill="black"/>
<path d="M81.3601 86.6201C81.0201 83.8801 82.9801 81.3901 85.7201 81.0501C88.4601 80.7201 90.9501 82.6701 91.2901 85.4101C91.6201 88.1501 89.6701 90.6401 86.9301 90.9801C86.7201 91.0101 86.5201 91.0201 86.3201 91.0201C83.8301 91.0201 81.6701 89.1601 81.3601 86.6301V86.6201Z" fill="black"/>
<path d="M78.7302 74.2303C77.6802 71.6703 78.9002 68.7503 81.4602 67.7103C84.0202 66.6603 86.9402 67.8903 87.9802 70.4403C89.0302 72.9903 87.8102 75.9203 85.2502 76.9603C84.6302 77.2203 83.9902 77.3403 83.3502 77.3403C81.3802 77.3403 79.5202 76.1703 78.7202 74.2403L78.7302 74.2303Z" fill="black"/>
<path d="M78.56 72.4396C75.8 72.4196 73.57 70.1696 73.59 67.4096C73.61 64.6496 75.86 62.4196 78.62 62.4396C81.38 62.4596 83.61 64.7096 83.59 67.4696C83.57 70.2196 81.34 72.4396 78.59 72.4396H78.56Z" fill="black"/>
<path d="M69.6303 72.38C66.8703 72.36 64.6403 70.11 64.6603 67.35C64.6803 64.59 66.9303 62.36 69.6903 62.38C72.4503 62.4 74.6803 64.65 74.6603 67.41C74.6403 70.16 72.4103 72.38 69.6603 72.38H69.6303Z" fill="black"/>
<path d="M63.5601 68.2796C63.0901 65.5596 64.9001 62.9696 67.6301 62.4896C68.1101 62.4096 68.5701 62.3696 68.9701 62.3596C71.7301 62.2996 74.0101 64.4996 74.0701 67.2596C74.1201 69.9996 71.9701 72.2696 69.2401 72.3596C68.9901 72.3996 68.7301 72.4196 68.4801 72.4196C66.1001 72.4196 63.9801 70.7096 63.5601 68.2796Z" fill="black"/>
<path d="M63.4902 235.5C63.4902 232.74 65.7302 230.5 68.4902 230.5C71.2502 230.5 73.4902 232.74 73.4902 235.5C73.4902 238.26 71.2502 240.5 68.4902 240.5C65.7302 240.5 63.4902 238.26 63.4902 235.5ZM63.4902 207.48C63.4902 204.72 65.7302 202.48 68.4902 202.48C71.2502 202.48 73.4902 204.72 73.4902 207.48C73.4902 210.24 71.2502 212.48 68.4902 212.48C65.7302 212.48 63.4902 210.24 63.4902 207.48ZM63.4902 179.47C63.4902 176.71 65.7302 174.47 68.4902 174.47C71.2502 174.47 73.4902 176.71 73.4902 179.47C73.4902 182.23 71.2502 184.47 68.4902 184.47C65.7302 184.47 63.4902 182.23 63.4902 179.47ZM63.4902 151.46C63.4902 148.7 65.7302 146.46 68.4902 146.46C71.2502 146.46 73.4902 148.7 73.4902 151.46C73.4902 154.22 71.2502 156.46 68.4902 156.46C65.7302 156.46 63.4902 154.22 63.4902 151.46ZM63.4902 123.44C63.4902 120.68 65.7302 118.44 68.4902 118.44C71.2502 118.44 73.4902 120.68 73.4902 123.44C73.4902 126.2 71.2502 128.44 68.4902 128.44C65.7302 128.44 63.4902 126.2 63.4902 123.44ZM63.4902 95.4297C63.4902 92.6697 65.7302 90.4297 68.4902 90.4297C71.2502 90.4297 73.4902 92.6697 73.4902 95.4297C73.4902 98.1897 71.2502 100.43 68.4902 100.43C65.7302 100.43 63.4902 98.1897 63.4902 95.4297Z" fill="black"/>
<path d="M67.8999 263.51C67.8899 260.75 70.1199 258.5 72.8799 258.49C75.6399 258.48 77.8899 260.71 77.8999 263.47C77.9099 266.23 75.6799 268.48 72.9199 268.49H72.8999C70.1499 268.49 67.9099 266.27 67.8999 263.51Z" fill="black"/>
<path d="M67.9004 237.77C67.9004 235.01 70.1404 232.77 72.9004 232.77C75.6604 232.77 77.9004 235.01 77.9004 237.77C77.9004 240.53 75.6604 242.77 72.9004 242.77C70.1404 242.77 67.9004 240.53 67.9004 237.77ZM67.9004 212.05C67.9004 209.29 70.1404 207.05 72.9004 207.05C75.6604 207.05 77.9004 209.29 77.9004 212.05C77.9004 214.81 75.6604 217.05 72.9004 217.05C70.1404 217.05 67.9004 214.81 67.9004 212.05Z" fill="black"/>
<path d="M69.8901 190C67.7401 188.27 67.4001 185.12 69.1401 182.97C69.6801 182.24 71.1701 180.98 73.2501 180.98C76.0101 180.98 78.2501 183.22 78.2501 185.98C78.2501 187.86 77.2201 189.49 75.6901 190.34C74.8901 190.84 73.9601 191.1 73.0301 191.1C71.9301 191.1 70.8201 190.74 69.8901 189.99V190Z" fill="black"/>
<path d="M78.3603 191.02C75.6003 191 73.3703 188.75 73.3903 185.99C73.4103 183.23 75.6603 181.01 78.4203 181.02C81.1803 181.04 83.4103 183.29 83.3903 186.05C83.3703 188.8 81.1403 191.02 78.3903 191.02H78.3603Z" fill="black"/>
<path d="M76.0301 190.34C73.7701 188.84 73.1201 185.8 74.5801 183.5C76.0601 181.17 79.1501 180.48 81.4801 181.95C81.8601 182.19 82.1101 182.38 82.3601 182.59C84.4801 184.36 84.7701 187.51 83.0001 189.63C82.0101 190.82 80.5901 191.43 79.1601 191.43C78.0601 191.43 76.9501 191.07 76.0301 190.33V190.34Z" fill="black"/>
<path d="M76.4002 191.75C75.7202 189.07 77.3402 186.35 80.0202 185.68C82.7002 185 85.4202 186.63 86.0902 189.3C86.7702 191.98 85.1402 194.7 82.4702 195.37C82.0602 195.47 81.6502 195.52 81.2402 195.52C79.0002 195.52 76.9702 194.01 76.4002 191.74V191.75Z" fill="black"/>
<path d="M77.3403 197.53C77.0903 194.78 79.1103 192.35 81.8603 192.09C84.6103 191.84 87.0403 193.86 87.3003 196.61C87.5503 199.36 85.5303 201.79 82.7803 202.05C82.6203 202.06 82.4703 202.07 82.3203 202.07C79.7703 202.07 77.5903 200.12 77.3503 197.53H77.3403Z" fill="black"/>
<path d="M78.0601 216.61C78.0601 213.85 80.2901 211.61 83.0501 211.6C85.8101 211.6 88.0601 213.83 88.0601 216.59C88.0601 219.35 85.8301 221.59 83.0701 221.6H83.0601C80.3001 221.6 78.0701 219.37 78.0601 216.61Z" fill="black"/>
<path d="M78.0903 231.05C78.0903 228.29 80.3203 226.04 83.0803 226.04C85.8403 226.04 88.0803 228.27 88.0903 231.03C88.0903 233.79 85.8603 236.03 83.1003 236.04H83.0903C80.3303 236.04 78.1003 233.81 78.0903 231.05Z" fill="black"/>
<path d="M78.7302 258.83C78.6702 256.07 80.8502 253.78 83.6102 253.72C86.3702 253.66 88.6602 255.84 88.7202 258.6C88.7802 261.36 86.6002 263.65 83.8402 263.71C83.8402 263.71 83.7602 263.71 83.7202 263.71C81.0102 263.71 78.7902 261.55 78.7202 258.82L78.7302 258.83Z" fill="black"/>
<path d="M78.91 261.52C78.72 258.76 80.8 256.38 83.55 256.18C86.3 255.99 88.69 258.07 88.88 260.82C89.07 263.58 86.99 265.96 84.24 266.16C84.12 266.16 84 266.17 83.89 266.17C81.29 266.17 79.09 264.15 78.91 261.52Z" fill="black"/>
<path d="M79.1503 264.07C78.8403 261.33 80.8103 258.85 83.5603 258.54C86.3003 258.23 88.7803 260.2 89.0903 262.95C89.4003 265.69 87.4303 268.17 84.6803 268.48C84.4903 268.5 84.3003 268.51 84.1103 268.51C81.6003 268.51 79.4403 266.62 79.1503 264.07Z" fill="black"/>
<path d="M88.6799 268.53C85.9199 268.53 83.6899 266.28 83.6899 263.51C83.6899 260.75 85.9399 258.52 88.7099 258.53C91.4699 258.53 93.6999 260.78 93.6899 263.55C93.6899 266.31 91.4499 268.53 88.6899 268.53H88.6799Z" fill="black"/>
<path d="M84.9399 266.62C83.4199 264.75 83.4699 262.12 84.9299 260.32C86.1999 258.66 88.4399 257.91 90.5199 258.63C93.1299 259.53 94.5199 262.37 93.6299 264.98C93.0199 266.52 92.4899 266.85 91.9699 267.34C91.0399 268.1 89.9299 268.46 88.8199 268.46C87.3699 268.46 85.9299 267.83 84.9399 266.62Z" fill="black"/>
<path d="M83.95 263.5C83.65 260.76 85.63 258.29 88.37 257.98C91.11 257.68 93.58 259.66 93.89 262.4C94.19 265.14 92.21 267.62 89.47 267.92C89.28 267.94 89.1 267.95 88.92 267.95C86.4 267.95 84.24 266.05 83.96 263.5H83.95Z" fill="black"/>
<path d="M83.4703 142.04C80.7103 141.98 78.5203 139.7 78.5803 136.93C78.6403 134.17 80.9203 131.98 83.6903 132.04C86.4503 132.1 88.6403 134.38 88.5803 137.15C88.5203 139.87 86.3003 142.04 83.5803 142.04C83.5803 142.04 83.5103 142.04 83.4703 142.04Z" fill="black"/>
<path d="M83.1803 145.98C80.4203 145.86 78.2803 143.52 78.4003 140.77C78.5203 138.01 80.8503 135.87 83.6103 135.99C86.3703 136.11 88.5103 138.44 88.3903 141.2C88.2703 143.89 86.0603 145.98 83.4003 145.98C83.3303 145.98 83.2503 145.98 83.1803 145.98Z" fill="black"/>
<path d="M81.8503 154.67C79.1203 154.28 77.2203 151.74 77.6103 149.01C78.0003 146.28 80.5403 144.38 83.2703 144.77C86.0003 145.16 87.9003 147.7 87.5103 150.43C87.1503 152.92 85.0103 154.72 82.5703 154.72C82.3303 154.72 82.0903 154.7 81.8503 154.67Z" fill="black"/>
<path d="M76.4403 161.17C74.4203 159.28 74.3103 156.12 76.2003 154.1C78.0903 152.08 81.2503 151.97 83.2703 153.86C85.2903 155.74 85.4003 158.91 83.5103 160.93C82.5303 161.99 81.1903 162.52 79.8503 162.52C78.6303 162.52 77.4003 162.08 76.4403 161.18V161.17Z" fill="black"/>
<path d="M73.0601 158.33C73.0601 155.57 75.3001 153.33 78.0601 153.33C80.8201 153.33 83.0601 155.57 83.0601 158.33C83.0601 161.09 80.8201 163.33 78.0601 163.33C75.3001 163.33 73.0601 161.09 73.0601 158.33Z" fill="black"/>
<path d="M72.8702 163.31C70.1102 163.3 67.8802 161.05 67.8902 158.29C67.9002 155.53 70.1502 153.3 72.9102 153.31C75.6702 153.32 77.9002 155.57 77.8902 158.33C77.8802 161.08 75.6402 163.31 72.8902 163.31H72.8702Z" fill="black"/>
<path d="M67.9004 127.15C67.9004 124.39 70.1404 122.15 72.9004 122.15C75.6604 122.15 77.9004 124.39 77.9004 127.15C77.9004 129.91 75.6604 132.15 72.9004 132.15C70.1404 132.15 67.9004 129.91 67.9004 127.15Z" fill="black"/>
<path d="M72.2002 100.62C69.4702 100.22 67.5702 97.6903 67.9702 94.9503C68.0102 94.7203 68.0502 94.4903 68.1202 94.2103C68.2102 93.9103 68.2602 93.6203 68.6402 92.9103C69.9902 90.5003 73.0402 89.6503 75.4502 91.0103C77.5302 92.1803 78.4502 94.6103 77.7902 96.8003C77.2702 99.0803 75.2302 100.68 72.9202 100.68C72.6802 100.68 72.4402 100.66 72.2002 100.63V100.62Z" fill="black"/>
<path d="M72.9799 100.28C70.3099 100.18 68.1699 97.9803 68.1699 95.2803C68.1699 92.5203 70.4099 90.2803 73.1699 90.2803C73.3799 90.2803 73.5199 90.2903 73.5999 90.3003C76.2499 90.4203 78.3599 92.6103 78.3599 95.2903C78.3599 98.0503 76.1199 100.29 73.3599 100.29C73.1699 100.29 73.0399 100.29 72.9699 100.28H72.9799Z" fill="black"/>
<path d="M78.1802 100.29C75.4202 100.29 73.1802 98.05 73.1802 95.29C73.1802 92.53 75.4202 90.29 78.1802 90.29C80.9402 90.29 83.1802 92.53 83.1802 95.29C83.1802 98.05 80.9402 100.29 78.1802 100.29Z" fill="black"/>
<path d="M76.9804 101.04C76.2604 98.3703 77.8304 95.6303 80.5004 94.9003C83.1604 94.1803 85.9104 95.7503 86.6404 98.4203C87.3604 101.09 85.7904 103.83 83.1204 104.55C82.6804 104.67 82.2404 104.73 81.8104 104.73C79.6104 104.73 77.5904 103.26 76.9904 101.04H76.9804Z" fill="black"/>
<path d="M78.3901 112.3C78.2701 109.54 80.4001 107.21 83.1601 107.08C85.9201 106.96 88.2501 109.1 88.3801 111.85C88.5001 114.61 86.3701 116.94 83.6101 117.07C83.5301 117.07 83.4601 117.07 83.3801 117.07C80.7201 117.07 78.5101 114.98 78.3901 112.29V112.3Z" fill="black"/>
<path d="M78.54 115.73C78.42 112.97 80.55 110.63 83.31 110.51C86.07 110.39 88.4 112.52 88.53 115.28C88.65 118.04 86.52 120.37 83.76 120.5C83.68 120.5 83.61 120.5 83.53 120.5C80.87 120.5 78.66 118.41 78.54 115.72V115.73Z" fill="black"/>
<path d="M78.7102 123.6C78.6502 120.84 80.8402 118.55 83.6002 118.49C86.3602 118.43 88.6502 120.62 88.7102 123.38C88.7702 126.14 86.5802 128.43 83.8202 128.49C83.8202 128.49 83.7402 128.49 83.7102 128.49C81.0002 128.49 78.7702 126.32 78.7102 123.6Z" fill="black"/>
<path d="M83.6002 135.61C80.8402 135.55 78.6502 133.26 78.7102 130.5C78.7702 127.74 81.0602 125.55 83.8202 125.61C86.5802 125.67 88.7702 127.96 88.7102 130.72C88.6502 133.44 86.4202 135.61 83.7102 135.61C83.7102 135.61 83.6402 135.61 83.6002 135.61Z" fill="black"/>
<path d="M83.5902 142.04C83.5902 142.04 83.5202 142.04 83.4902 142.04C80.7302 141.98 78.5402 139.7 78.5902 136.94L78.7202 130.51C78.7802 127.75 81.0802 125.56 83.8202 125.61C86.5802 125.67 88.7702 127.95 88.7202 130.71L88.5902 137.14C88.5402 139.87 86.3102 142.04 83.5902 142.04Z" fill="black"/>
</g>
</g>
<defs>
<clipPath id="clip0_2554_8946">
<rect width="117.67" height="268.53" fill="white"/>
</clipPath>
</defs>
</svg>
