<svg width="570" height="144" viewBox="0 0 570 144" fill="none" xmlns="http://www.w3.org/2000/svg">
<g clip-path="url(#clip0_2554_2041)">
<path d="M216.84 14.4498C216.46 15.1798 216.13 15.7998 215.52 16.3798C214.71 17.1398 213.95 17.9399 213.03 18.5399L211.84 19.2998C211.16 19.7298 210.48 20.1998 209.79 20.5798C207.55 21.8198 205.29 22.8098 202.85 23.5198C202.09 23.7398 201.28 24.0898 200.53 24.1898C199.43 24.3398 198.55 24.5798 197.47 24.8898C196.43 25.1898 195.18 25.2298 194.07 25.3398L190.91 25.6598C190.29 25.7198 189.41 25.6798 188.78 25.5498L186.21 24.9998C185.3 24.8098 184.56 24.7198 183.71 24.4198C182.51 23.9798 181.61 23.3998 180.8 22.4398C180.17 21.6898 179.66 20.9098 179.97 19.8298C180.05 19.5698 180.09 18.9998 180.18 18.7698C180.8 17.1198 182.11 15.9898 183.24 14.7698C183.76 14.2098 184.15 13.6498 184.79 13.2298L186.24 12.2598C186.93 11.7998 187.54 11.5798 188.31 11.2398L191.7 9.71985C192.55 9.33985 193.37 9.19985 194.22 8.80985C194.76 8.56985 195.59 8.54985 196.1 8.27985C197.2 7.69985 198.18 7.59985 199.4 7.46985C200.28 7.37985 201.2 6.75985 202.14 6.75985C203.56 6.75985 204.89 6.77985 206.27 6.67985C207.52 6.58985 208.78 6.54985 210.03 6.63985L211.85 6.76985C212.64 6.82985 213.46 7.24985 214.2 7.57985C215.15 7.99985 215.89 8.64985 216.64 9.33985C217.33 9.97985 217.5 10.6298 217.51 11.5798C217.51 12.6498 217.31 13.5298 216.83 14.4598M235.14 0.0798497C234.42 0.18985 233.68 0.11985 232.95 0.10985C232.3 0.10985 231.55 0.21985 230.91 0.0798497C230.24 -0.0601503 229.74 0.13985 229.05 0.13985H189.17C188.55 0.55985 188.18 0.99985 187.77 1.55985C187.49 1.92985 185.77 3.83985 185.48 4.09985L184.49 5.00985C183.89 6.05985 183.32 6.96985 182.41 7.77985L180.54 9.43985C180.24 9.70985 179.91 10.0498 179.67 10.3298L177.06 13.3498L175.16 15.5098L172.09 18.6898L170.94 19.9698L167.27 24.1898C166.03 25.6098 164.85 26.9999 163.48 28.2899C162.8 28.9499 162.22 29.5499 161.59 30.2899L158.49 33.9398L156.38 36.1799L153.62 39.0599L152.87 40.0499L151.95 41.0998L149.69 43.4899L147.43 46.0998L144.39 49.2899L142.01 52.0998C141.24 53.0198 140.42 53.7899 139.53 54.6099C138.98 55.1199 138.62 55.9999 138.11 56.5599L136.42 58.4198L132.71 62.5998L130.61 64.8398C130.22 65.2498 129.99 65.5498 129.66 66.2198C132.02 66.4698 130.98 65.8098 133.82 66.2498C134.49 66.3598 135.54 66.2798 135.9 65.6698C136.51 64.6298 137.38 64.1798 138.24 63.4398C138.87 62.8898 139.52 62.1199 140.09 61.4599L144.4 56.5599L146.56 54.2199L148.1 52.5299L149.79 50.6799L150.98 49.3099L152.84 47.2699C154.22 45.7599 155.66 44.3399 157.17 42.9299C157.74 42.3999 158.53 42.0199 159.14 41.5199C160.9 40.0799 164.03 38.3099 166.13 37.4899L168.65 36.4999C169.58 36.1299 170.35 35.9399 171.39 35.8299L173.94 35.5499C174.91 35.4399 175.93 35.7399 176.86 36.0199C178.51 37.4199 179.16 38.1599 178.53 40.3899C178.13 41.7899 176.95 43.8199 175.97 44.9499L174.09 47.1099L172.43 48.9699C171.58 49.9299 170.76 50.8199 169.88 51.7499L168.7 52.9899C167.3 54.4799 165.99 55.9298 164.69 57.5098C164.35 57.9098 163.99 58.3299 163.64 58.7099L162.09 60.3999L159.91 62.7099L159 63.7399L157.3 65.5898C157.11 65.7998 156.98 66.2198 157.14 66.3598C157.29 66.4898 157.77 66.6199 157.95 66.5499C158.7 66.2299 159.49 66.3498 160.24 66.3598L166.92 66.3998C167.76 65.5798 168.54 64.8399 169.26 64.0099L171.05 61.9198L172.19 60.6499L173.73 58.9599L178.74 53.1999L179.97 51.8399L182.17 49.5399C182.89 48.7899 183.55 48.0599 184.34 47.3699C185.02 46.7799 185.54 46.0999 186.17 45.4799L189.33 42.3799C190.01 41.6999 190.48 40.8898 191.26 40.2598C192.31 39.3998 193.36 38.6299 194.52 37.8899L196.81 36.4499C198.19 35.5799 200.03 34.9498 201.58 34.4398C202.44 34.1498 203.17 33.9099 204.09 33.8599L206.04 33.7499C206.6 33.7199 206.95 33.1899 207.3 32.7799L208.58 31.3298L211.02 28.7698L213.83 25.7998L214.98 24.3798L216.02 23.1598C216.73 22.3298 217.48 21.6498 218.3 20.9398C218.92 20.3998 219.5 19.7398 220.05 19.1398L221.82 17.1999L224.88 13.8198L227.64 10.7798L229.24 8.99985L231.1 7.00985L232.25 5.72985L234.01 3.78985L235.81 1.88985C236.28 1.38985 236.79 0.93985 236.82 0.12985C236.33 -0.0501503 235.69 0.00984974 235.13 0.0898497" fill="#90BEFB"/>
<path d="M65.86 66.0999H44.08C43.13 65.2699 43.09 64.1199 42.64 63.0899C42.24 62.1399 41.95 61.2099 41.59 60.2399L40.64 57.6499C40.39 56.9599 40.3 56.3199 39.95 55.6099L39.28 54.2899C39.14 53.3599 38.95 52.7499 38.49 51.9699C38.28 51.6099 38.24 50.8499 38.05 50.4699C37.65 49.6299 37.4 48.8699 37.09 47.9999L36.24 45.6299L35.35 43.1599C35.18 42.6799 34.74 42.1399 34.69 41.6399C34.61 40.8199 34.34 40.2999 33.98 39.5799C33.81 39.2399 33.68 38.6299 33.53 38.2399L32.69 35.9999L31.72 33.2899L30.92 31.0299C30.57 30.0599 30.48 29.0299 29.94 28.1499L29.01 26.6099L28.01 23.3999L27.22 21.0899L25.56 16.6299C25.31 15.9599 25.32 15.2599 24.77 14.6499C23.82 13.5899 24.33 11.9499 21.63 10.1099C21.3 8.98992 20.33 8.67992 19.45 8.19992L17.5 7.10992C15.76 6.12992 16.22 6.70992 13.94 5.84992C13.29 5.60992 12.72 5.69992 12.06 5.73992C10.62 5.82992 9.21 5.77992 7.76 5.76992C6.48 5.76992 5.17 5.84992 3.9 5.63992C2.82 6.06992 1.86 5.70992 1.42 4.66992L0.26 1.82992L0 1.10992V0.949916C0.13 0.389916 2.28 0.269916 2.68 0.369916C3.36 0.539916 3.87 0.329916 4.54 0.329916L28.62 0.379916C30.04 0.379916 31.32 0.449916 32.72 0.389916C33.86 0.339916 35.02 0.629916 36.17 0.379916C36.69 0.269916 37.34 0.439916 37.85 0.409916C40.36 0.259916 41.06 0.619916 43.96 0.429916C44.63 0.389916 45.42 0.169916 46.03 0.209916C46.76 0.279916 47.48 0.549916 48.17 0.449916C49.56 0.209916 50.83 0.649916 53.18 0.419916C54.41 0.309916 55.52 0.389916 56.74 0.419916L61.07 0.509916C61.72 0.509916 61.99 1.28992 62.16 1.79992C62.47 2.71992 62.76 3.50992 63.15 4.39992C63.26 4.65992 63.36 5.05992 63.25 5.26992C63.17 5.42992 62.75 5.60992 62.56 5.58992C62 5.51992 61.46 5.56992 60.93 5.55992C59.97 5.54992 59.04 5.37992 58.09 5.52992C57.61 5.59992 57.18 5.54992 56.69 5.51992C55.41 5.44992 54.18 5.44992 52.87 5.46992C52.21 5.47992 51.61 5.90992 51.03 6.18992C48.38 7.44992 48.19 7.08992 46.63 10.0099C46.56 11.2099 46.57 12.2899 46.6 13.5299C46.6 13.9599 47 14.5899 47.15 15.0099L47.98 17.2499L49.02 20.0399L49.88 22.3999L50.81 25.0199L51.78 27.7599C52.02 28.4199 52.15 29.0299 52.55 29.6299C52.85 30.0899 52.81 30.9299 53.05 31.3799C53.49 32.1899 53.72 32.8299 53.98 33.7499C54.12 34.2499 54.56 34.8299 54.64 35.4199C54.73 36.0899 55.13 36.5299 55.32 37.1599L55.86 39.0399L56.65 41.0199L57.68 43.8699L58.49 46.0799L59.65 49.2399L60.97 52.8999L61.69 54.9799L62.5 57.2199L63.62 60.2799C63.82 60.8399 64.06 61.3299 64.2 61.9399C64.3 62.3999 64.64 62.7699 64.81 63.2499L65.33 64.7699C65.51 65.2899 66.06 65.4999 65.84 66.1499" fill="#90BEFB"/>
<path d="M177.19 1.91005C176.45 2.50005 175.93 3.13005 175.3 3.76005C174.81 4.24005 174.37 4.63005 173.98 5.22005C172.92 6.87005 172.82 6.17005 171.02 8.53005C170.22 9.58005 169.23 10.4801 168.35 11.5001L165.96 14.2601C165.67 14.6001 165.05 14.9401 164.82 15.3201C163.72 17.1701 164.56 16.0601 162.82 17.8701L159.02 21.7901L152.83 28.8001L150.48 31.2701L149.45 32.4901L147.73 34.3201L145.53 36.8201L144.52 37.8801L142.59 39.9801L140.92 41.8401L138.54 44.6401L135.87 47.4201L135.1 48.2501L131.74 51.9901L129.83 54.1301L126.86 57.2501L124.21 60.0601C123.85 60.4501 123.58 60.9401 123.19 61.3101C122.36 62.0901 121.7 62.9101 120.97 63.7801L119.73 65.2401C118.88 66.2301 117.79 66.6601 116.48 66.2901C116.14 66.1901 115.45 66.3401 115.08 66.3201C114.09 66.2601 113.19 66.2501 112.18 66.3901C112.01 66.4201 111.61 66.3001 111.55 66.1501C111.49 66.0001 111.57 65.5401 111.7 65.4001L114.84 62.1801L116.24 60.6401L117.62 59.1201L120.3 56.0101L121.84 54.3201C122.58 53.5101 123.43 52.7801 124.12 51.9501C126 49.6601 126.3 49.2301 127.82 46.7801C128.28 46.0501 128.45 45.4001 128.71 44.5601L129.37 42.3801C129.62 41.5601 128.97 40.6301 128.67 39.8901C128.16 38.6101 127.12 38.0601 126.09 37.4201C125.26 36.9101 124.61 36.8801 123.65 36.7401C122.02 36.5001 120.61 36.4201 118.96 36.7701C117.89 36.9901 116.64 36.6001 115.62 37.1901C114.81 37.6501 113.81 37.6401 112.96 37.9401L110.23 38.9401C108.7 39.5001 105.46 41.0201 104.04 41.8701L102.33 42.8901C99.97 44.3001 95.93 47.1401 93.99 49.0301L92.51 50.4701L91.5 51.5401L89.46 53.7701L87.09 56.6501L83.19 60.7601L81.32 62.8001L78.74 65.7001C78.5 65.9701 77.77 66.2501 77.39 66.2501H71.24C71.2 65.7201 71.49 65.4401 71.84 65.0701L72.86 63.9901C73.36 63.4701 73.94 62.9001 74.4 62.3201C76.09 60.2401 77.83 58.4101 79.63 56.4501L82.79 53.0001L85.34 50.0601L89.67 45.4001L91.3 43.6301L94.37 40.0801C95.41 38.8701 96.56 37.8001 97.63 36.6101L100.16 33.8201L103.65 29.8901L107.58 25.6201L110.57 22.1601L113.7 18.8601L115.56 16.8401L117.35 14.9301L120.33 11.4501L121.7 9.91005L125.15 6.28005L126.32 4.89005C127.41 3.59005 128.47 2.35005 129.74 1.24005C130.13 0.890054 130.78 1.04005 131.21 1.05005C132.63 1.10005 133.99 1.12005 135.38 1.03005L137.01 0.920054C137.02 1.22005 136.91 1.60005 136.75 1.75005C136.01 2.47005 135.41 3.09005 134.74 3.81005L132.89 5.82005L129.67 9.53005L127.87 11.4301L125.78 13.6901L124.56 15.0401L121.74 18.5101C121.32 19.0201 121.03 19.6601 120.7 20.2101C119.97 21.3901 119.03 23.2801 119.1 24.7301C119.22 27.2901 118.69 26.7701 120.77 29.0401C121.69 30.0501 122.89 30.7301 124.33 30.7901C126.18 30.8801 128.02 30.8601 129.87 30.8001C131.16 30.7501 132.32 30.2801 133.53 30.0001C134.58 29.7601 135.52 29.4701 136.51 29.0801L138.49 28.2901C139.97 27.7101 141.43 27.1301 142.82 26.3201L147.2 23.7801C148.85 22.8201 149.42 22.0801 150.94 20.9201C154.1 18.5201 156.48 16.1601 159.08 13.1301L160.35 11.6601C161.2 10.6701 161.99 9.69005 162.88 8.74005L164.91 6.56005C165.96 5.44005 167.93 3.84005 168.54 2.86005C169.28 1.66005 169.92 1.05005 171.38 0.880054C172.41 0.770054 173.31 0.660054 174.37 1.20005L176.53 0.960054C176.79 0.930054 177.13 0.990054 177.32 1.16005C177.47 1.31005 177.38 1.74005 177.19 1.89005" fill="#90BEFB"/>
<path d="M382.2 128.47C381.56 130.29 382.51 129.16 381.18 131.33C380.79 131.96 380.26 132.32 379.67 132.74C378.86 133.33 378.17 134.23 377.19 134.59C376.46 134.87 375.28 134.42 374.55 134.77C373.12 135.96 371.18 135.9 369.71 135.09C369.27 134.85 368.58 135.09 368.07 135.1L366.28 135.17C365.49 135.2 364.9 134.87 364.26 134.42C363.42 133.82 362.39 134.63 361.54 133.8C361.04 133.32 360.51 133.3 359.84 133.18C358.77 132.98 357.86 132.19 356.88 131.69C356.31 131.39 355.33 131.41 354.92 130.94C354.14 130.07 353.42 129.6 352.33 129.27C351.13 128.93 350.28 127.88 349.28 127.21C348.12 126.42 347.1 125.71 346.3 124.5C346.09 124.18 344.43 122.73 343.96 122.34C343.03 121.59 342.62 120.34 341.95 119.41C340.8 117.82 339.83 116.24 338.84 114.58L337.69 112.66C337.34 112.08 336.94 111.48 336.57 110.89L334.57 107.73L333.6 106.13L331.13 102.19C330.59 101.33 330.03 100.49 329.55 99.6002L328.57 97.8102C327.17 95.2702 327.58 96.2902 327.17 92.8302C327.12 92.4502 327.24 91.6102 327.32 91.2502C328.01 88.3102 330.79 85.8602 333.49 85.1502C334.32 84.9302 335.1 84.6802 335.97 84.5602C336.84 84.4302 337.68 84.5602 338.55 84.5602C339.37 84.5602 340.16 84.3702 340.95 84.6502C343.77 85.6402 343.78 84.5502 345.45 85.6302C346.13 86.0702 347.15 85.7202 347.81 86.0102L349.86 86.8902C350.48 87.1502 351.22 87.3702 351.8 87.6802L353.81 88.7402C354.27 88.9802 354.88 89.2102 355.3 89.4702L358.32 91.3102C359.08 91.7702 359.8 92.3902 360.55 92.9202C361.47 93.5702 362.32 94.2102 363.11 95.0302L365.79 97.8202C366.59 98.6502 367.46 99.1802 367.64 100.51L369.09 102.05C369.44 103.53 370.14 104.64 371.24 105.58C371.42 106.59 371.93 107.35 372.51 108.15L375.33 112.12C376.08 113.17 377.09 115.67 378.31 117.19L379.22 118.33L380.48 120.47C381.32 121.91 382.21 124.93 382.71 126.67C382.89 127.29 382.39 127.92 382.19 128.48M402.39 140.98C401.77 140.24 401.37 139.51 400.88 138.72L399.91 137.11C398.35 134.54 398.29 134.77 396.75 131.88L395.8 130.09C395.58 129.67 394.23 128.13 393.39 126.75C392.3 124.95 391.51 124.24 390.79 122.29C390.53 121.57 390.08 121.17 389.48 120.65C389.17 120.38 388.96 119.61 388.71 119.24L386.84 116.39C385.58 114.47 385.13 113.43 383.96 111.65C383.83 110.33 382.64 110.59 381.94 108.35C381.72 107.64 381.18 107.37 380.87 106.79L379.76 104.68L378.9 103.28L377.51 101.12L374.77 96.7602C374.25 95.9302 373.81 95.2702 373.12 94.5202C372.58 93.9402 372.31 92.9702 371.83 92.3002C370.87 90.9902 370.91 90.3402 369.26 88.4202C368.78 87.8502 368.64 87.2502 368.28 86.6202L367.06 84.4602C366.85 84.0802 366.39 83.5702 366.12 83.1902L364.88 81.5302C363.43 79.5702 364.82 79.9602 363.38 78.8402L362.53 77.7002C360 77.9002 358.35 78.4702 355.84 77.3902C354.78 77.7302 353.88 78.1702 352.75 77.6502C352.39 77.4802 351.7 77.6502 351.29 77.6302L349.04 77.5002C348.25 77.4502 347.5 77.4002 346.72 77.4102L338.56 77.4302C337.15 77.4302 335.78 77.7602 334.4 77.3702C333.46 77.1002 323.63 77.6202 321.01 77.3302L318.1 77.0102L315.67 76.8602C313.9 76.7502 310.28 77.0602 308.9 76.8902L306.86 76.6302C306.62 76.6002 306.13 77.0902 306.13 77.3402C306.13 78.1702 306.82 77.6402 307.64 79.5002C307.89 80.0802 308.47 80.6302 308.8 81.1702L310.1 83.2902C310.46 83.8802 310.79 84.4102 311.14 85.0002L312.22 86.8102L313.15 88.3102C314.09 89.8102 315.32 91.1302 315.74 92.9102C315.89 93.5702 316.75 93.7702 316.97 94.2002C317.36 94.9302 317.67 95.5102 318.12 96.1602C319.44 98.0602 319.19 98.0602 320.22 99.5302L321.29 101.04L324.15 106.1L325.36 107.94L327.49 111.29L332.65 119.46C332.99 120 333.49 120.28 333.8 120.97C334.41 122.31 336 124.38 337.02 126.1L338.2 128.09L341.22 133.13C341.62 133.79 342.21 134.43 342.69 135.05C343.15 135.64 343.36 136.27 343.71 136.93L345.01 139.33C345.33 139.9 346.34 140.25 346.58 140.94C346.71 141.32 346.88 141.92 347.15 142.16C347.36 142.35 348.11 142.03 348.39 142.07C349.34 142.21 350.35 142.16 351.3 142.12L353.99 141.99C356.02 141.89 357.97 141.89 359.99 142.23C360.94 142.39 361.88 142.44 362.84 142.3C363.24 142.24 363.66 142.35 364.08 142.35L376.58 142.33C377.82 142.33 378.94 142.63 380.14 142.64L388.96 142.68L392.5 142.65C395.52 142.62 394.94 143.22 398.86 142.91C399.87 142.83 400.87 142.85 401.9 142.91C402.35 142.93 403.22 143.29 403.36 142.45C403.43 142.01 402.71 141.37 402.39 140.98Z" fill="#90BEFB"/>
<path d="M457.48 142.95C456.31 143.38 455.22 143.13 454.09 143.15L450.72 143.19L439.69 143.21C439.47 143.21 439.01 143.35 438.82 143.31C436.65 142.93 436.94 143.56 434.99 143.32C431.88 142.93 432.81 143.68 429.97 143.22C428.17 143.55 427.65 143.22 425.75 143.12C424.96 143.09 424.02 143.45 423.21 143.33C422.07 143.17 421.1 143.33 419.96 143.29L416.92 143.18C416.23 143.15 415.62 143.4 414.94 143.3L413.23 143.07C412.44 142.97 411.63 143.24 410.84 143.15C407.92 140.54 409.05 139.9 405.88 136.49C405.64 136.22 405.54 135.58 405.31 135.22C404.58 134.1 403.72 133.07 403.09 131.94C402.78 131.38 402.53 130.95 402.16 130.46L399.94 127.45C399.21 126.46 398.57 125.45 397.9 124.43L395.94 121.47L394.35 118.95L393.38 117.4L392.22 115.55L391.38 114.34L389.6 111.7L386.03 106.21L384.82 104.43L383.49 102.43L382.17 100.44L381.09 98.8499L379.51 96.4699L377.18 92.8999L375.17 89.8999C374.3 88.6099 373.43 87.3899 372.64 86.0699C372.34 85.5599 372.1 85.2099 371.61 84.8399C370.62 84.1099 370.75 83.0499 369.6 81.9699C369.33 80.0199 366.61 78.6299 367.4 77.7099C367.61 77.4699 368.08 77.4599 368.4 77.6499C368.94 77.9699 369.61 77.6799 370.19 77.7099C371.57 77.7699 372.95 77.7999 374.31 77.7799C375.12 77.7699 375.36 78.8299 375.65 79.3499C376.01 80.0099 376.57 80.4699 376.94 81.0899L378.18 83.1699L379.01 84.2499L380.47 86.0899L380.8 87.3199L382.61 89.9599L384 91.9099L385.57 94.2799L386.64 95.8999L387.76 97.6099L388.98 99.3899L389.58 100.36L390.6 101.88L391.42 103.11L394.05 106.98C394.98 108.34 397.15 110.49 398.46 111.62L399.92 112.87C400.5 113.37 401.18 113.84 401.8 114.31L404.78 116.54C405.91 117.38 407.25 117.96 408.53 118.52L410.34 119.31C411.13 119.65 412.12 119.96 412.97 120.16L415.99 120.87C416.35 120.96 416.97 120.92 417.39 120.96L419.47 121.15C420.14 121.21 420.76 121.21 421.43 121.16C424.14 120.97 427.23 118.8 427.73 116.91L428.25 114.93C428.52 113.88 428.1 112.95 427.97 111.97C427.71 109.97 426.82 108.14 425.72 106.47L424.21 104.17L423.13 102.56L420.99 99.3099L419.08 96.4599C418.78 96.0099 418.33 95.5799 418.07 95.1099C417.79 94.5999 417.5 94.0599 417.2 93.5999L415.41 90.9799L414.42 89.4199C413.83 88.4699 413.37 87.5199 412.42 86.8199C412.27 85.8499 411.45 85.2499 411.02 84.4899C410.65 83.8599 410.37 83.2699 409.91 82.7099C409.29 81.9499 408.71 81.1399 408.23 80.2799C407.02 78.0899 407.4 79.2299 406.41 78.0099C406.34 77.9199 406.65 77.6499 406.79 77.6499H412.86C413.51 77.6299 414.14 77.7699 414.47 78.2599L417.71 83.1199L419.34 85.5799L420.35 87.1099L421.85 89.3899L423.64 92.0399L425.76 95.1899L427.72 98.1299L428.41 99.1899C429.22 100.46 429.22 100.24 429.98 101.49C430.66 102.61 431.36 103.63 432.07 104.68L433.02 106.1L433.84 107.33L435.67 110.09L436.47 111.34L438.42 114.26L440.87 117.88L442.51 120.32L444.1 122.7L444.97 124.04L446.29 126.06L447.16 127.41L448.12 128.82L449.82 131.37L453.87 137.46L454.82 138.91L455.51 139.94L456.34 141.19C456.71 141.75 457.25 142.13 457.47 142.9" fill="#90BEFB"/>
<path d="M568.71 143.83H561.13L560.67 143.15V140.41C560.67 138.6 560.67 136.85 560.73 135.06L560.87 130.49C560.91 128.97 560.78 125.3 559.99 124.07C558.84 122.29 558.96 120.82 558.25 120.34C557.45 119.81 557 119 556.53 118.18C556.09 117.48 554.92 117.24 554.45 116.63C553.7 115.64 552.74 115.49 551.74 115.02L549.66 114.05C548.67 113.59 547.55 113.13 546.44 113.57L544.72 113.14C543.82 113.33 543 113.35 542.1 113.46L540.03 113.72C539.39 113.8 539.07 113.94 538.54 114.17L536.63 115.01C535.27 115.61 534.42 116.12 533.23 116.93C532.57 117.38 532.15 117.88 531.68 118.48L529.79 120.92C529.15 121.75 528.29 123.22 528.16 124.27C527.86 126.75 527.43 123.92 527.43 129.06V140.23C527.43 141.12 527.7 143.6 526.83 143.66C526.68 143.67 526.3 143.53 526.14 143.53H521.2C520.64 143.55 520.12 143.89 519.56 143.39V107.69C518.19 104.41 520.4 104.95 519.5 102.7C519.22 102 519.79 101.23 519.65 100.52L519.3 98.6698C519.43 99.3298 519.28 94.3798 519.28 94.2998C519.33 93.7898 519.27 93.3398 519.27 92.8298V84.3798C519.27 83.9098 519.86 83.2198 519.72 82.7398C518.88 79.9398 519.88 80.7798 519.45 77.4498C519.43 77.2598 519.83 76.9198 520.02 76.9198C522.47 76.9198 520.32 76.4198 523.58 76.7998C524.73 76.9398 525.67 76.9598 526.86 76.7398C527.14 76.6898 527.63 77.0398 527.67 77.2898C527.71 77.5898 527.7 77.8998 527.69 78.2298L527.57 81.0898C527.55 81.6498 527.54 82.1398 527.58 82.7198C527.66 83.7098 527.58 84.6898 527.54 85.6798L527.4 90.2398C527.37 91.2298 527.7 92.3098 527.59 93.3198C527.49 94.1898 527.75 94.7698 527.95 95.5098C528.23 96.5098 528.31 97.4098 528.92 98.2898L529.72 99.4498L530.81 100.88C533.09 103.86 531.37 102.22 534.76 104.71C535.42 105.19 536 105.38 536.72 105.7C539.25 106.82 541.91 107.76 544.78 107.19C546.16 107.49 547.55 107.34 548.93 106.9C551.32 106.13 551.05 106.28 553.35 105C553.83 104.73 554.28 104.02 554.75 103.71C558.12 101.49 560.54 97.0598 560.65 92.9498C560.72 90.4198 560.92 89.2598 560.93 87.0598L560.97 77.5698C560.97 77.1398 561.37 76.9298 561.76 76.9298H568.19C568.43 76.9298 568.87 77.2298 568.87 77.4298L568.91 89.7698C568.91 88.9498 569.03 92.4198 569.03 91.9198L569 102.68C569 103.8 568.77 104.77 569.02 105.92C569.09 106.23 569.05 106.82 568.99 107.17C568.88 107.91 568.95 108.55 568.97 109.29C569 110.15 568.76 111.07 568.95 111.94C569.09 112.57 568.94 113.16 568.92 113.79C568.85 116.09 568.83 118.34 568.95 120.61C569.01 121.69 569.14 122.79 568.95 123.84C568.69 125.34 569.05 126.72 569.05 128.15L569.03 142.57C569.03 143.08 568.92 143.5 568.71 143.86" fill="#90BEFB"/>
<path d="M495.82 131.35C496.7 131.65 497.52 132.08 498.32 131.43C498.6 131.2 498.61 130.44 498.55 130.01C498.49 129.61 498.55 129.25 498.55 128.85L498.52 116.97C498.52 115.82 498.39 114.89 498.71 113.74C499.15 112.16 499.89 110.83 501.48 110.01C505.08 108.14 503.82 108.95 507.62 108.76C508.63 108.71 511.5 110.4 512.36 111.58C512.89 112.3 513.55 113.94 513.55 114.61L513.57 143.15C512.48 143.85 513.06 143.11 510.85 143.48C510.65 143.51 510.18 143.36 510 143.36H494.4L493.06 143.37H464.14C463.61 143.37 463.19 143.7 462.79 143.11V77.43C462.79 77.14 463.03 76.75 463.32 76.75H512.73C513.08 76.75 513.56 76.93 513.56 77.23L513.58 85.61C513.58 85.88 513.38 86.38 513.07 86.38L499.12 86.47L496.45 87.2C494.87 87.63 493.91 88.01 492.52 88.72L491.12 89.43C487.96 91.03 485.49 93.49 483.22 96.16C481.37 98.33 480.17 100.79 479.19 103.43C478.94 104.11 478.69 104.59 478.73 105.42C478.76 106.03 478.36 106.72 478.32 107.36L478.21 109.07C477.98 112.7 478.73 110.75 478.78 114.24L479.42 115.77C479.67 116.37 479.77 116.88 480.03 117.42L480.88 119.15C481.62 120.65 483.94 123.63 485.11 124.78C488.15 127.76 491.73 129.97 495.81 131.37" fill="#90BEFB"/>
</g>
<defs>
<clipPath id="clip0_2554_2041">
<rect width="569.05" height="143.83" fill="white"/>
</clipPath>
</defs>
</svg>
