<svg width="127" height="149" viewBox="0 0 127 149" fill="none" xmlns="http://www.w3.org/2000/svg">
<g clip-path="url(#clip0_2553_10417)">
<mask id="mask0_2553_10417" style="mask-type:luminance" maskUnits="userSpaceOnUse" x="0" y="0" width="127" height="149">
<path d="M126.86 0H0V148.54H126.86V0Z" fill="white"/>
</mask>
<g mask="url(#mask0_2553_10417)">
<path d="M126.861 109.58V113.95C126.801 114.05 126.801 114.24 126.781 114.42L126.401 117.06L126.071 120.08C125.971 120.97 125.841 121.79 125.491 122.63C125.211 123.32 125.141 124.03 124.941 124.75L124.711 125.58C124.631 125.87 124.531 126.1 124.411 126.37C123.721 127.89 124.021 128 123.121 129.45L122.711 130.12L122.271 130.85C121.711 131.76 121.621 132.15 120.951 133.2C120.711 133.58 120.361 133.93 120.141 134.33C120.041 134.52 119.951 134.72 119.841 134.9L119.061 136.15C118.761 136.63 118.431 137.05 118.031 137.45C117.821 137.67 117.651 137.91 117.461 138.15C117.211 138.46 115.821 139.83 115.441 140.17L113.991 141.48C113.501 141.92 113.061 142.37 112.451 142.73C112.211 142.87 111.961 143.15 111.761 143.35C111.261 143.88 110.561 144.08 109.971 144.45C109.431 144.79 108.991 145.08 108.371 145.28L107.681 145.51C107.451 145.59 107.191 145.8 106.981 145.87L105.751 146.29L104.611 146.71L103.661 147.09C102.731 147.46 101.781 147.53 100.801 147.68C99.7806 147.84 98.8206 148.05 97.8006 148.28C97.3706 148.38 96.7406 148.52 96.3506 148.49C96.3206 148.49 96.2206 148.55 96.2206 148.55H88.9006C88.9006 148.55 88.7706 148.49 88.7306 148.49L88.2606 148.43C87.5506 148.33 86.5006 148 85.4906 147.88L83.6506 147.66C83.3406 147.62 83.0406 147.5 82.7506 147.4L81.3006 146.9L80.3006 146.65C79.8906 146.55 79.4906 146.42 79.0906 146.28L77.8106 145.83L77.0206 145.49L75.7806 145.01L74.7206 144.39L73.7206 143.97C72.9906 143.66 72.9406 143.52 72.2306 143.12C71.9506 142.96 71.6406 142.84 71.3706 142.64L69.8106 141.48L69.2106 141.07L68.4106 140.55L67.9806 140.27C67.5506 139.98 66.6106 139.37 66.1706 139.19L64.8206 138.66L64.2306 138.41C63.6206 138.14 62.9906 138.11 62.3906 138.29C61.5206 138.54 60.9306 138.97 60.4106 139.7L59.8006 140.54L59.3506 141.19C59.2206 141.37 59.0506 141.67 58.9806 141.88L58.4706 143.42C58.3106 143.91 58.2206 144.46 57.9106 144.9C57.7806 145.09 57.3506 145.39 57.1206 145.4C56.4406 145.44 55.7906 145.43 55.1306 145.4C54.6206 145.37 54.1706 144.99 54.2006 144.44L54.2706 143.16C54.2906 142.83 54.2506 142.56 54.2506 142.21V101.11C54.2506 100.76 54.3306 100.25 54.7206 100.25H57.1206C57.9006 100.23 57.9606 101.97 58.0206 102.26L58.5406 105C58.6506 105.6 58.8406 106.15 58.8706 106.79C58.8806 107 58.9106 107.35 58.9706 107.52L59.3606 108.63C59.5306 109.12 59.6206 109.6 59.7506 110.11C60.1906 111.95 60.8706 113.52 61.3906 115.38C61.7306 116.61 62.3106 117.49 62.4306 117.98C62.9006 119.91 63.2306 119.8 63.7406 121.58C64.1706 123.08 64.5006 122.72 64.7606 123.69C65.1506 125.12 65.3506 124.8 65.7206 125.55L66.4806 127.09C66.5406 127.21 66.7506 127.39 66.8206 127.49L67.3406 128.23C67.8506 128.96 68.4906 129.59 68.8506 130.44C68.9406 130.66 69.0506 130.85 69.2106 131.01L69.6206 131.4C69.8506 131.62 70.0506 131.96 70.2606 132.22L70.6706 132.75C71.1206 133.34 71.6006 133.9 72.0906 134.44C72.6006 135.01 73.3006 135.96 73.6806 136.26L75.4506 137.64L76.7106 138.76C76.7706 138.81 78.8806 140.32 79.0906 140.44L79.5906 140.74L80.1006 141.03C80.3806 141.2 80.6406 141.37 80.9406 141.51L81.7406 141.87L82.6606 142.28C82.7706 142.33 82.9906 142.47 83.1006 142.52L84.2006 142.96C84.3106 143 87.6806 143.85 88.2306 143.91C88.4906 143.94 88.7806 144 89.0306 144H95.2306C95.6406 143.99 96.1706 143.93 96.5406 143.8L98.5306 143.08C99.2206 142.83 100.021 142.77 100.661 142.39C101.171 142.09 101.631 141.85 102.191 141.65C102.251 141.63 102.831 141.32 102.961 141.2C103.461 140.7 104.021 140.32 104.621 139.99C104.711 139.89 104.831 139.74 104.921 139.65L105.391 139.18C105.931 138.63 105.941 139.03 106.921 137.98C107.651 137.19 107.971 137.22 108.371 136.65L108.731 136.13L109.141 135.53C109.281 135.33 109.401 135.07 109.571 134.88C110.051 134.37 110.341 133.82 110.641 133.2C110.741 133.01 110.901 132.77 111.031 132.58C111.521 131.79 111.251 132.07 111.691 131.15C112.151 130.15 112.411 130.48 112.941 128.82C113.211 127.98 113.581 127.62 113.761 126.93C113.911 126.35 114.041 125.84 114.231 125.28C114.361 124.9 114.511 124.5 114.611 124.12L114.911 122.98C115.161 122.04 115.451 121.09 115.521 120.11L115.591 119.02L115.641 117.32C115.641 117.12 115.641 116.94 115.641 116.74C115.601 116.02 115.621 115.33 115.661 114.62C115.731 113.41 115.711 112.22 115.681 111C115.661 110.44 115.531 109.95 115.551 109.2C115.561 108.66 115.511 108.17 115.371 107.67L114.861 105.83C114.761 105.46 114.781 104.99 114.651 104.63L114.171 103.32L113.781 102.31L113.321 101.12C113.241 100.9 113.101 100.65 113.001 100.44L112.591 99.5198C112.421 99.1398 112.171 98.7998 111.991 98.4098L111.261 96.8098C111.161 96.5798 110.961 96.3598 110.831 96.1598C110.351 95.4798 110.451 95.0998 109.901 94.4498C109.751 94.2698 109.481 94.0498 109.391 93.8698C108.231 91.4398 107.111 90.8398 106.901 90.4898C106.231 89.4398 105.461 89.0798 104.681 88.1898L104.201 87.6498L102.781 86.1098C102.131 85.4098 101.431 84.8298 100.671 84.2198C100.671 84.2198 98.3006 82.4698 98.2106 82.4498H98.2006L97.0206 81.3498C96.7706 81.1098 96.4506 80.9698 96.1806 80.7698L94.7106 79.6598C94.4406 79.4498 94.1206 79.2998 93.8306 79.1298L93.2406 78.7798C92.8906 78.5698 92.5406 78.2498 92.1806 78.0698C91.5106 77.7398 90.8806 77.4398 90.3406 76.9298C89.9506 76.5598 89.4506 76.4098 88.9506 76.1998C88.7106 76.0998 88.4806 75.7998 88.2506 75.6598L87.1906 74.9998L86.1906 74.2498L85.1106 73.5898L84.5906 73.2598L82.2106 71.6798C81.9606 71.5198 81.6606 71.3698 81.4506 71.1898C81.2306 70.9998 81.0406 70.8598 80.8006 70.7298L80.0906 70.3398C79.8406 70.1998 79.5206 70.0598 79.2806 69.9098C78.7906 69.5898 78.3806 69.3098 77.8206 69.0898C77.2606 68.8698 77.1706 68.2998 76.0506 67.6798C75.5806 67.4198 75.2206 67.0698 74.8106 66.7298L73.7906 65.8998C73.3406 65.5298 72.8106 65.2598 72.3906 64.8598C72.2406 64.7198 72.1006 64.5898 71.9406 64.4598L71.4706 64.0798L70.8106 63.5598C70.6706 63.4598 70.4306 63.3198 70.3306 63.2198L68.6806 61.6498L67.5606 60.4298L67.1606 60.0598L66.7706 59.6498L66.4006 59.1798C66.0306 58.6998 65.5306 58.3898 65.1806 57.8898C64.7106 57.1898 64.2206 56.9198 63.6906 56.1198C63.4106 55.6998 63.1206 55.3798 62.7906 54.9898C62.4906 54.6398 62.2806 54.1398 62.0306 53.7298L60.8506 51.7698C60.5306 51.2398 60.2106 50.8098 59.9906 50.2198C59.9206 50.0298 59.7506 49.6598 59.6306 49.5098C59.2406 49.0298 58.9606 48.5698 58.7906 47.9698C58.3306 46.4298 57.6206 46.3198 57.5206 44.8998C57.4806 44.2998 57.0806 43.7898 56.8706 43.2398C56.7006 42.7798 56.6306 42.2798 56.5206 41.7898C56.1606 40.2098 56.1306 38.9998 55.8606 37.4298C55.7506 36.7798 55.5406 36.1798 55.5406 35.5098L55.4906 31.4198C55.4906 30.8298 55.3906 30.2898 55.4906 29.6998L55.8406 27.8598L56.3406 24.1698C56.6706 21.7298 56.9606 22.0998 57.5406 20.1198C57.6806 19.6298 57.7806 19.1798 58.0306 18.7298C58.2806 18.2798 58.5806 17.8598 58.7906 17.3898L59.2106 16.4898L59.7006 15.4998C59.8106 15.2698 59.9406 15.0298 60.1006 14.8098C60.5106 14.2498 60.8606 13.6998 61.2106 13.0998L61.4706 12.6398C61.6606 12.2998 61.9606 11.9998 62.1906 11.6598L62.6006 11.0698L63.5606 9.82982C64.3306 8.82982 65.3306 8.08982 66.3206 7.31982C66.5406 7.13982 66.7506 6.87982 66.9706 6.71982L67.3906 6.42982C68.3206 5.77982 68.6506 5.35982 69.8306 4.66982L70.4206 4.31982L71.1606 3.87982C71.5406 3.64982 71.9006 3.22982 72.4706 3.02982L73.4506 2.66982C73.8406 2.52982 74.1706 2.37982 74.5206 2.17982L75.1306 1.83982C75.5206 1.61982 76.0406 1.64982 76.4606 1.52982C78.0706 1.10982 79.1006 0.399822 80.7806 0.479822C81.0006 0.479822 81.2706 0.439822 81.4906 0.429822C84.0506 0.349822 83.1906 -0.140178 86.0206 0.0598221C87.8406 0.189822 88.7706 -0.0701779 90.4406 0.0298221C90.8706 0.0598221 91.3006 0.299822 91.7306 0.349822L94.4106 0.689822L95.4706 0.819822C95.7206 0.849822 95.9606 0.999822 96.2006 1.08982C96.7606 1.29982 97.3506 1.47982 97.9406 1.59982C98.4406 1.70982 98.9406 1.76982 99.3906 2.04982C101.021 3.08982 101.111 2.62982 102.521 3.41982L103.271 3.83982L104.841 4.76982L106.131 5.50982C107.081 6.04982 107.361 6.25982 108.371 6.76982C108.821 6.99982 108.911 7.25982 109.561 7.60982C110.571 8.16982 110.081 7.77982 111.201 8.54982C112.151 9.19982 114.081 9.49982 115.051 9.07982C116.071 8.63982 116.451 8.13982 116.931 7.14982C117.111 6.77982 117.601 5.70982 117.611 5.34982C117.641 4.79982 117.801 3.47982 118.571 3.48982H120.731C120.911 3.48982 121.281 3.66982 121.331 3.82982C121.511 4.37982 121.471 4.99982 121.361 5.60982V37.2198C121.361 37.4398 121.611 38.7998 121.291 39.2098C120.881 39.7298 119.211 39.5998 118.491 39.5598C118.041 39.5298 117.761 38.9598 117.731 38.5598L117.661 37.5598C117.551 36.0598 117.391 36.2798 116.931 34.8298C116.731 34.1898 116.601 33.5298 116.491 32.8698C116.421 32.4298 116.441 31.9598 116.221 31.5598C115.751 30.7098 115.431 29.4598 115.051 28.4998L114.591 27.3298C114.461 26.9998 114.351 26.7098 114.241 26.3598C114.181 26.1698 114.051 25.9798 113.971 25.7998L113.571 24.9498L113.191 24.1498C113.021 23.7998 112.831 23.4798 112.631 23.1498L112.041 22.1698C111.611 21.4498 111.641 21.1698 111.181 20.5498C110.681 19.8798 110.371 19.1198 110.001 18.3798C109.911 18.2798 109.711 18.0798 109.651 17.9698L109.161 17.0998C109.031 16.8698 108.841 16.5698 108.681 16.3698L107.711 15.2198C107.551 15.0298 107.421 14.7798 107.221 14.6198C106.661 14.1698 106.211 13.6698 105.731 13.1498L104.831 12.1898L103.961 11.2598L103.291 10.5798C103.011 10.2898 102.621 10.0698 102.301 9.79982C101.761 9.33982 101.661 9.31982 101.131 8.99982L100.501 8.61982C100.191 8.43982 99.9006 8.08982 99.5706 7.93982C99.1106 7.71982 98.6906 7.53982 98.2606 7.27982C97.9606 7.09982 97.6106 6.85982 97.2906 6.72982L96.1606 6.28982C95.7206 6.10982 94.7806 5.56982 94.4006 5.47982L93.2306 5.22982L92.0406 4.84982C91.6906 4.73982 91.2906 4.51982 90.8906 4.51982H84.6906C84.5206 4.51982 84.1706 4.56982 84.0206 4.62982L82.8006 5.04982C82.3406 5.20982 81.9206 5.34982 81.4306 5.38982C80.8106 5.44982 80.3406 5.81982 79.8106 6.08982C79.1006 6.43982 78.2906 6.63982 77.9106 6.99982C77.6306 7.26982 77.3206 7.38982 76.9806 7.56982C75.7406 8.24982 75.9006 8.40982 75.4206 8.72982L74.5406 9.31982C74.2706 9.49982 74.0106 9.74982 73.7806 9.97982L72.4906 11.2598C72.0906 11.6598 71.2406 12.8298 70.9106 13.3298L70.1606 14.4698C69.9706 14.7598 69.8806 15.1098 69.7006 15.4198L69.1106 16.4598C68.7006 17.1798 68.6006 17.8498 68.0806 18.7598C67.6906 19.4398 67.5406 20.3498 67.1806 21.2398C66.9406 21.8398 66.7306 22.3798 66.6406 23.0298C66.4006 24.8498 66.0306 25.0698 65.9506 27.3798L65.8806 29.4898C65.8506 30.3298 65.8506 31.1598 65.8806 31.9898L65.9506 33.7998C65.9706 34.3098 66.0506 34.8298 66.1406 35.3098L66.5006 37.1598C66.6006 37.6898 66.8906 38.2298 67.0606 38.7598L67.3806 39.7798L67.8406 40.9598C67.8906 41.0998 68.0806 41.3198 68.1606 41.4698C68.3406 41.8098 68.4706 42.1398 68.6306 42.4898L69.0906 43.5198C69.2706 43.9298 69.6406 44.2598 69.7806 44.6798C69.9306 45.1398 70.1406 45.6398 70.3106 46.0098C70.3706 46.1498 70.5806 46.3398 70.6706 46.4498C70.8806 46.6998 70.9806 46.9698 71.1406 47.2498C71.4106 47.7198 72.3806 48.9698 72.7806 49.4098L73.1206 49.7698L74.0206 50.7398L75.3906 52.2598C75.9406 52.8798 76.5006 53.4798 77.1106 54.0298L77.4406 54.3298L78.9706 55.5998C79.3006 55.8798 79.5806 56.2798 79.9406 56.4998L80.7706 56.9998C80.9506 57.1098 81.1106 57.2198 81.2706 57.3598L81.6506 57.6798L82.6906 58.5898C82.9206 58.7898 83.1506 58.9598 83.4006 59.1298L85.8006 60.7198C86.0306 60.8698 86.3606 60.9598 86.6006 61.1398C86.7506 61.2498 86.9506 61.4098 87.1006 61.4898L88.0606 62.0198C88.5406 62.2898 88.9806 62.6298 89.4606 62.8798C89.6506 62.9798 89.8706 63.0498 90.0406 63.1698L91.3406 64.0598C91.9806 64.4998 92.6006 64.8898 93.2206 65.3798C93.2506 65.4098 94.3806 66.1798 94.4106 66.1998L95.0706 66.5798C95.4406 66.7998 95.8506 66.9898 96.2206 67.2298L97.4806 68.0698C98.1906 68.5398 98.8506 68.9898 99.6206 69.3498C99.9206 69.4898 100.201 69.7898 100.491 69.9398L101.121 70.2698C101.241 70.3298 103.491 71.8798 103.491 71.8798L104.611 72.8498C104.611 72.8498 106.051 73.9898 106.121 74.0598L107.341 74.8598C107.521 74.9798 107.701 75.1398 107.861 75.2798L108.331 75.6698C108.891 76.1298 109.361 76.3898 109.991 76.9598L111.191 78.0398C111.661 78.4698 111.991 79.0398 112.451 79.4898L114.241 81.1898L115.421 82.4398C115.621 82.6598 115.831 82.9398 116.041 83.1298C116.741 83.7398 117.331 84.4198 117.831 85.1698L118.241 85.7898L118.601 86.3698L118.941 86.8798C119.101 87.1198 119.221 87.3698 119.391 87.6098L120.051 88.5698L120.411 89.1398L120.901 89.9698C121.431 90.8798 122.001 91.2898 122.491 92.4298L123.041 93.6898L123.391 94.3298L123.841 95.4598C124.021 95.8998 124.151 96.3698 124.371 96.8098C124.811 97.6998 125.101 98.5998 125.171 99.5898C125.271 100.88 125.871 101.66 125.941 102.23L126.601 107.42C126.661 107.95 126.801 108.44 126.841 108.96C126.861 109.2 126.841 109.43 126.921 109.59" fill="#90BEFB"/>
<path d="M41.9905 144.12C41.5505 144.46 40.9705 144.27 40.4305 144.27H31.5705H30.4505H2.04046C1.45046 144.27 0.830456 144.51 0.320456 144.24C-0.139544 144 0.0204562 143.28 0.0604562 142.86C0.100456 142.38 -0.0195438 141.85 0.230456 141.48C0.440456 141.16 0.860456 141.18 1.16046 141.13C2.91046 140.86 2.84046 140.59 4.69046 140.58C4.95046 140.58 5.27046 140.52 5.54046 140.53C6.03046 140.56 6.41046 140.44 6.86046 140.29L8.24046 139.82L9.35046 139.44L10.4205 139.03C11.2305 138.72 11.8905 138.28 12.4405 137.59L13.9805 135.64C14.2805 135.26 14.5305 134.87 14.7405 134.44C14.8405 134.24 14.8505 133.9 14.9305 133.69C15.0905 133.23 15.2005 132.82 15.3205 132.35C15.6605 130.95 15.9505 129.53 15.8105 128.1C15.7505 127.52 15.7205 126.96 15.8405 126.37V17.5799C15.8405 17.3499 15.7005 17.0499 15.6805 16.8399C15.5405 15.7499 15.2305 14.7499 14.9305 13.6999C14.8605 13.4599 14.8505 13.0899 14.7405 12.8799C14.4405 12.2899 14.1705 11.6999 13.7905 11.1899C12.9605 10.0599 11.5105 8.59987 10.3005 7.97987C9.94046 7.78987 9.50046 7.66987 9.13046 7.50987L8.47046 7.22987C6.82046 6.51987 7.00046 6.79987 5.64046 6.40987C5.77046 6.45987 2.11046 5.89987 2.52046 5.89987L0.660456 5.81987C0.190456 5.79987 0.110456 5.09987 0.100456 4.69987L0.0804562 3.81987C0.0804562 3.64987 0.140456 3.30987 0.200456 3.14987C0.430456 2.58987 0.990456 2.61987 1.48046 2.75987C2.00046 2.90987 2.59046 2.75987 3.12046 2.84987C3.36046 2.88987 3.62046 2.84987 3.84046 2.84987C5.72046 2.95987 7.33046 2.68987 9.55046 2.85987C10.4405 2.92987 11.2505 2.82987 12.1505 2.82987H33.3105C33.9705 2.82987 34.5905 2.95987 35.2405 2.86987C35.8505 2.78987 36.4205 2.82987 37.0305 2.85987C37.8905 2.90987 38.7305 2.89987 39.6105 2.86987C40.6205 2.83987 40.9205 2.54987 41.7005 2.81987C42.2605 3.01987 42.3105 3.75987 42.2805 4.27987C42.2505 4.75987 42.2505 5.21987 41.9105 5.55987C41.4905 5.97987 40.9705 5.84987 40.4605 5.94987C39.6505 6.10987 38.8905 6.25987 38.0505 6.25987C37.6805 6.25987 36.5305 6.53987 36.1205 6.64987L34.2105 7.18987C33.9605 7.25987 33.6005 7.42987 33.3605 7.54987L32.3805 8.04987C31.8305 8.32987 31.3705 8.68987 30.8805 9.03987L30.2905 9.45987C29.5405 9.98987 29.4205 10.3599 29.0405 10.6999C28.5605 11.1199 28.3505 11.5599 28.1005 12.1399L27.6905 13.1199C27.5405 13.4699 27.4405 13.8299 27.4005 14.2199C27.2705 15.5599 27.0705 15.4699 26.9805 16.6799C26.9605 16.9099 26.8905 17.1599 26.8905 17.4099V127.92C26.8905 128.23 26.8105 128.48 26.8405 128.76C26.9005 129.35 26.9505 129.93 27.0505 130.53C27.1505 131.1 27.2505 131.64 27.3105 132.21C27.3605 132.72 27.5205 133.18 27.7705 133.64C28.2105 134.46 28.1905 134.77 28.7005 135.83C28.8205 136.07 29.1205 136.33 29.2805 136.55C29.8905 137.43 30.5905 138.08 31.5105 138.61C32.7705 139.33 32.4605 139.36 34.0805 139.81C35.2205 140.12 35.5705 140.47 36.8705 140.54C37.2005 140.56 37.5405 140.59 37.8805 140.58C39.7805 140.57 39.7705 140.93 40.5205 140.96C41.0305 140.98 41.4505 141.06 41.8705 141.4C42.3105 141.76 42.2905 142.44 42.3505 143C42.3905 143.42 42.3905 143.81 42.0005 144.11" fill="#90BEFB"/>
</g>
</g>
<defs>
<clipPath id="clip0_2553_10417">
<rect width="126.86" height="148.54" fill="white"/>
</clipPath>
</defs>
</svg>
