<svg width="399" height="392" viewBox="0 0 399 392" fill="none" xmlns="http://www.w3.org/2000/svg">
<path d="M398.64 76.454V91.624C397.42 94.204 395.15 91.734 393.79 92.954C392.51 94.094 393.37 95.804 393.3 97.154C393.15 100.294 393.1 104.914 393.3 108.004C393.32 108.384 392.81 109.234 392.47 109.414C391.41 109.974 389.35 108.244 387.74 109.804L387.55 114.364L387.47 116.724L387.45 120.354C387.43 122.734 388.14 124.704 386.97 125.764C385.53 127.084 381.9 124.994 381.89 127.524L381.85 142.124C381.85 142.824 380.42 143.284 379.86 143.134C378.68 142.794 377.29 142.724 376.25 143.334C376 145.294 376.11 147.134 376.24 149.064C376.45 152.314 376.39 155.544 376.31 158.864C376.28 159.824 374.58 160.084 373.86 159.824C373.03 159.514 371.46 159.534 371.07 160.304C370.06 162.374 370.79 164.574 370.8 166.704C370.8 167.414 370.58 168.354 370.67 169.014C370.83 170.344 370.79 171.484 370.82 172.734L370.86 175.664C370.87 176.264 370.23 176.954 369.56 176.954L358.64 176.874L355 176.854C351.46 173.674 348.64 170.234 346.85 165.814C342.75 155.774 341.41 151.554 339.25 140.884L338.22 135.784C337.86 134.014 337.09 130.664 335.83 129.554C335.46 129.224 334.07 129.234 333.84 129.764C333.17 131.194 332.56 132.604 332.2 134.124L331.6 136.704C329.68 144.904 328.87 151.944 325.47 160.164L322.71 166.834C321.65 169.384 320.08 171.564 318.31 173.664C317.44 174.684 315.33 176.934 313.96 176.924C309.4 176.904 304.92 177.064 300.44 176.804C298.74 176.694 299.17 174.234 299.18 173.234L299.34 163.884C299.35 162.834 299.81 161.624 299.31 160.724C298.01 158.384 295.18 161.094 293.55 159.294L293.49 143.364C291.58 142.094 289.48 144.094 288.34 142.694C288.01 142.294 287.97 141.434 288.01 140.824L288.18 138.264C288.45 134.234 287.66 133.634 288.1 128.894C288.15 128.324 288.29 127.474 288.15 127.004C287.65 125.064 284.38 127.484 282.59 125.804C281.85 125.114 282.44 123.824 282.43 122.964L282.41 110.274C282.4 109.114 280.4 109.014 279.58 109.404C278.77 109.774 276.8 109.754 276.8 108.564L276.76 94.514C276.76 93.764 276.9 92.654 275.6 92.664C273.99 92.674 272.63 93.354 271.75 92.564C271.48 92.314 271.25 91.514 271.3 91.134C271.45 89.984 271.38 89.054 271.3 87.944C271.15 85.704 271.17 83.454 271.3 81.234C271.46 78.474 270.97 78.864 271.27 76.784C271.43 75.674 272.64 75.504 273.53 75.754C274.12 75.914 274.84 75.764 275.48 75.744C278.33 75.634 281.18 75.614 284.04 75.744C289.05 75.984 290.25 74.684 290.62 77.464C290.84 79.064 291.38 80.364 291.71 81.864L292.43 85.114L294.64 93.194L297.11 103.024C297.55 104.794 298.1 106.424 298.45 108.204C298.84 110.184 299.31 112.124 299.91 114.004C300.45 115.704 301.02 117.384 301.28 119.114C301.59 121.264 302.14 123.164 302.83 125.194C303.2 126.334 303.41 127.634 303.71 128.814L305.06 134.304L306 137.534L307.87 144.804C308.3 146.434 308.82 147.984 309.48 149.594C309.97 150.794 312.68 150.844 313.31 149.684C314.19 148.064 315.09 146.534 315.53 144.774L316.98 138.864C317.61 136.324 318.36 133.984 319 131.444L320.45 125.674C320.88 124.004 321.43 122.424 321.83 120.784L323.23 115.034C323.56 113.694 324.2 112.354 324.36 111.004C324.68 108.164 326.71 104.484 328.41 102.194C329.7 100.454 331.2 99.594 333.31 99.104C334.5 98.824 335.32 98.534 336.58 99.174C337.65 99.714 339.26 99.924 340.2 100.784C341.62 102.054 342.57 103.654 343.61 105.254C344.54 106.664 345.46 110.154 345.9 111.874L347.85 119.284L349.28 124.904L351.14 131.874L353.27 140.174C353.98 142.954 354.63 145.614 355.82 148.244C356.39 149.504 356.91 150.474 358.41 150.474C359.74 150.464 360.64 149.664 361.02 148.274L362.38 143.414L364.06 137.004L366.07 129.584L367.34 124.484L368.72 119.404C369.17 117.744 369.42 116.094 369.89 114.444C370.45 112.514 370.93 110.674 371.43 108.694L373.95 98.704L377.06 86.664C377.63 84.454 378 82.394 378.76 80.224C379.37 78.484 379.02 75.644 381.04 75.684L384.21 75.764H386.32L397.07 75.684C397.59 75.684 398.35 76.144 398.63 76.484" fill="black"/>
<path d="M101.1 229.894C100.17 231.384 99.1103 232.524 97.8503 233.644C91.4103 240.004 74.4203 243.064 65.6603 242.444C63.5103 242.304 61.7003 242.344 59.5903 242.444C54.5803 242.694 49.8103 242.634 44.7003 242.614C42.9603 242.594 41.1203 240.974 39.5803 240.374C36.7603 239.294 34.5503 238.014 33.4703 234.904C31.0503 227.844 31.9203 220.324 32.1203 212.844C32.2003 209.824 31.5003 207.164 32.4303 204.084C35.2303 194.844 34.1503 195.344 44.3203 192.054L77.0403 192.204C81.3303 192.224 85.9703 194.004 89.8203 195.644C95.7003 198.154 102.12 204.284 103.45 210.684C105.05 218.434 105.46 222.864 101.09 229.904M32.1003 130.034L32.6603 123.594C33.4303 114.544 41.8803 113.094 49.2303 113.094L53.6403 113.114L69.4203 113.344C72.3803 113.384 75.3603 114.774 78.0803 115.414C81.3103 116.154 83.7103 117.274 86.2003 119.434C89.5103 122.314 93.2803 126.004 93.9003 130.614C94.6703 136.164 94.9603 141.944 92.5903 147.204C90.2903 152.344 85.8803 156.714 80.6403 159.134C76.8703 160.894 73.3703 162.514 69.3903 162.634C60.3403 162.884 51.3903 162.904 42.3803 162.614C36.3303 162.424 32.6203 157.254 32.4603 151.704L32.1103 140.474C31.9903 136.914 31.8003 133.614 32.0903 130.034M133.32 188.174C131.25 188.774 129.53 188.924 128.16 187.444C125.18 184.294 128.51 181.994 127.39 179.304C126.46 177.024 122.38 177.604 120.27 177.834C117.89 178.084 115.67 177.984 113.35 177.894C110.78 177.814 108.38 178.884 105.89 176.754L105.79 170.164C105.77 168.614 107.28 167.304 108.77 167.264L115.38 167.104C118.24 163.854 115.88 160.064 116.54 157.954C117.39 155.304 122.88 156.854 125.8 156.114C128.64 155.364 127.25 152.464 127.25 150.774L127.13 104.894C127.13 102.034 119.11 104.234 116.9 102.574L116.65 94.974C116.57 92.384 113.83 92.324 112.03 92.444L107.74 92.734C104.07 92.984 100.18 93.024 96.6203 92.634C94.5703 92.404 94.5903 88.924 95.0203 87.604C95.7903 85.204 95.4103 83.114 93.4003 81.974H1.49032L0.00032333 83.704L0.0603233 180.944L0.120323 185.234L0.0803233 217.774L0.0603233 221.854L0.00032333 271.334C-0.0196767 272.394 0.890323 273.864 2.13032 273.864L104.59 273.844C107.72 270.634 104.09 266.904 105.81 264.254C107.11 262.244 112.48 262.554 114.24 262.534C116.93 262.474 119.46 262.454 122.21 262.884C123.78 263.134 125.44 262.884 126.25 261.744C128.47 258.654 125.88 255.424 128.11 252.754C129.1 251.594 131.36 251.154 133.08 251.714C134.28 252.134 137.55 252.044 137.55 249.974L137.57 190.654C137.59 188.504 134.84 187.714 133.3 188.164" fill="black"/>
<path d="M180.6 84.234C165.83 84.234 153.85 71.794 153.85 56.464C153.85 41.134 165.83 28.674 180.6 28.674C195.37 28.674 207.37 41.114 207.37 56.464C207.37 71.814 195.39 84.234 180.6 84.234ZM233.4 70.294L233.33 40.084C233.33 39.394 232.8 37.844 232.3 37.784C231.05 37.654 228.49 37.804 227.18 37.954C223.5 38.374 224.27 32.334 224.37 30.694C224.6 27.134 224.63 23.574 224.28 20.024C222.38 17.254 218.86 20.624 216.54 18.674C214.12 16.664 217.96 12.064 214.64 9.88401L199.38 9.61401C195.66 9.55401 199.98 1.67401 196.57 0.214007L166.47 0.104007C165.03 0.104007 163.82 -0.335993 162.75 0.594007C161.77 1.45401 161.52 2.98401 161.93 4.49401C162.28 5.77401 162.6 9.16401 160.69 9.45401C156.87 10.004 152.78 9.83401 148.87 9.58401C147.63 9.51401 146.1 9.27401 144.99 9.96401C142.52 11.494 144.99 15.454 143.85 17.734C142.94 19.574 140.55 19.654 138.92 19.084C137.15 18.484 134.69 19.414 134.62 21.634C134.57 22.924 135.29 24.974 135.15 26.234C134.85 28.844 134.85 31.284 135.24 33.784C135.38 34.714 134.77 36.744 134.12 37.284C131.86 39.234 128.05 36.424 126.52 38.394C126.12 38.904 125.94 40.414 126.12 41.094C126.56 42.754 126.12 44.054 126.12 45.584L126.05 72.644C126.03 73.394 126.66 74.574 127.16 74.944C128.63 76.054 134.53 73.394 134.72 76.714C135 81.564 134.88 86.494 134.88 91.424C134.88 92.064 135.55 93.594 136.14 93.594L141.63 93.614C146.66 93.634 141.93 102.934 145.38 103.104L155.52 103.594C157.29 103.684 159.31 102.574 161.05 103.644C164.28 105.654 159.61 110.304 163.35 112.804L195.07 112.854C201.19 112.854 195.68 103.894 199.47 103.444C208.12 102.364 213.7 105.394 216.07 101.734L216.09 96.164C216.11 95.174 216.72 93.754 217.47 93.444C218.21 93.134 219.45 93.244 220.4 93.604C221.56 94.044 224.4 94.224 224.42 92.254L224.61 76.584C224.63 74.904 227.43 74.654 228.52 74.964C229.78 75.364 231.63 75.454 232.57 74.944C234.31 73.994 233.41 71.914 233.41 70.294" fill="black"/>
<path d="M245.41 165.254L250.14 165.344L267.73 165.364C270.06 165.364 270.39 168.234 270.06 169.834C269.59 172.234 269.91 174.854 268.91 177.044C266.94 181.344 263.24 181.734 262.61 187.994C262.2 192.194 264.51 196.324 268.56 197.994C270.51 198.794 272.68 199.884 274.79 199.894L288.78 200.064L292.3 200.044L336.64 199.874C338.05 199.854 340.43 199.364 340.43 201.674V224.784C339.9 226.754 337.24 226.164 335.95 226.144C330.04 226.004 324.47 225.954 318.62 226.174C316.88 226.244 315.36 226.264 313.6 226.174C308.37 225.954 303.24 226.124 297.98 226.144H294.62L275.25 226.194C272.46 226.194 269.83 226.414 267.09 226.314L263.57 226.164L239.03 226.134C237.53 226.134 236.32 226.884 234.96 225.724C233.99 224.894 233.77 223.544 233.86 221.944C234.01 219.124 234.03 216.314 233.83 213.494C233.76 212.384 233.43 210.924 233.93 210.004C234.34 209.274 235.84 208.524 236.84 208.544L240.96 208.634L246.84 208.974C248.2 209.064 250.93 208.654 251.44 207.084C251.79 206.084 251.98 204.344 252.06 203.244C252.2 201.004 249.54 200.044 247.61 200.434C246.26 200.694 244.92 200.944 243.88 200.174C241.02 198.084 244.86 193.524 241.81 191.684C239.62 190.344 235.31 193.314 234.17 190.564C233.83 189.714 233.81 188.644 233.83 187.624L234.07 175.494C234.12 172.044 241.33 176.004 242.62 173.024C243.98 169.874 241.34 165.164 245.41 165.234" fill="black"/>
<path d="M235.771 141.074L235.681 145.804V163.394C235.681 165.724 232.741 166.054 231.081 165.724C228.641 165.264 225.941 165.574 223.691 164.574C219.281 162.604 218.881 158.904 212.471 158.284C208.171 157.874 203.931 160.184 202.231 164.234C201.411 166.184 200.301 168.354 200.281 170.464L200.111 184.454L200.141 187.974L200.311 232.314C200.311 233.724 200.821 236.104 198.451 236.104H174.781C172.761 235.564 173.371 232.914 173.401 231.624C173.541 225.714 173.581 220.134 173.351 214.294C173.281 212.554 173.261 211.034 173.351 209.274C173.581 204.044 173.401 198.914 173.401 193.654L173.381 190.294L173.331 170.924C173.331 168.134 173.101 165.504 173.231 162.764L173.371 159.244L173.401 134.704C173.401 133.204 172.631 131.994 173.841 130.634C174.681 129.664 176.071 129.444 177.711 129.534C180.591 129.684 183.461 129.704 186.371 129.504C187.501 129.434 188.951 129.094 189.941 129.624C190.671 130.004 191.441 131.524 191.421 132.524L191.351 136.644L190.981 142.524C190.891 143.884 191.311 146.614 192.911 147.124C193.941 147.474 195.721 147.654 196.871 147.744C199.151 147.884 200.131 145.224 199.741 143.294C199.461 141.944 199.201 140.604 199.981 139.564C202.141 136.704 206.791 140.544 208.671 137.494C210.051 135.304 207.001 130.994 209.821 129.854C210.711 129.504 211.791 129.494 212.831 129.504L225.271 129.744C228.791 129.794 224.731 137.004 227.781 138.294C231.001 139.654 235.831 137.014 235.761 141.084" fill="black"/>
<path d="M230.08 353.754C209.74 353.754 193.27 337.304 193.27 317.014C193.27 296.724 209.75 280.294 230.08 280.294C250.41 280.294 266.87 296.724 266.87 317.014C266.87 337.304 250.39 353.754 230.08 353.754ZM302.67 335.324L302.6 295.354C302.58 294.464 301.88 292.414 301.15 292.334C299.46 292.164 295.94 292.354 294.11 292.554C289.09 293.084 290.1 285.174 290.25 282.934C290.56 278.274 290.71 273.474 290.06 268.864C289.58 265.534 282.24 269.274 279.49 267.054C276.18 264.374 281.47 258.324 276.91 255.404L255.92 255.064C250.81 254.964 256.74 244.564 252.04 242.644L210.64 242.494C208.66 242.494 207.02 241.914 205.55 243.124C204.17 244.234 203.86 246.354 204.42 248.284C204.88 249.974 205.31 254.484 202.71 254.844C197.45 255.594 191.81 255.374 186.45 255.034C184.71 254.934 182.59 254.654 181.14 255.514C177.67 257.564 181.12 262.754 179.55 265.794C178.3 268.254 175.02 268.324 172.75 267.604C170.31 266.814 166.94 268.044 166.84 270.954C166.79 272.664 167.78 275.374 167.56 277.084C167.15 280.514 167.15 283.674 167.68 287.074C167.87 288.254 167.05 290.954 166.16 291.684C162.98 294.264 157.81 290.554 155.69 293.154C155.16 293.834 154.89 295.834 155.13 296.724C155.73 298.924 155.15 300.604 155.13 302.654L155.03 338.434C155.03 339.424 155.88 340.964 156.55 341.474C158.6 342.944 166.68 339.424 166.95 343.794C167.34 350.214 167.17 356.754 167.19 363.264C167.19 364.104 168.11 366.114 168.93 366.134L176.48 366.154C183.41 366.174 176.89 378.484 181.64 378.704L195.58 379.354C197.99 379.474 200.77 378.004 203.15 379.404C207.59 382.054 201.2 388.234 206.33 391.514L249.95 391.584C258.34 391.604 250.79 379.764 256 379.134C267.89 377.734 275.54 381.744 278.8 376.894L278.85 369.534C278.85 368.204 279.69 366.354 280.73 365.944C281.74 365.534 283.46 365.654 284.76 366.134C286.35 366.734 290.26 366.954 290.31 364.374L290.58 343.654C290.6 341.434 294.44 341.074 295.94 341.504C297.7 342.014 300.23 342.154 301.51 341.484C303.92 340.224 302.67 337.474 302.67 335.334" fill="black"/>
</svg>
