<svg width="181" height="190" viewBox="0 0 181 190" fill="none" xmlns="http://www.w3.org/2000/svg">
<g clip-path="url(#clip0_2553_9931)">
<mask id="mask0_2553_9931" style="mask-type:luminance" maskUnits="userSpaceOnUse" x="0" y="0" width="181" height="190">
<path d="M180.42 0H0V189.56H180.42V0Z" fill="white"/>
</mask>
<g mask="url(#mask0_2553_9931)">
<path d="M132.23 181.6C132.23 181.84 132.06 182.25 131.93 182.38C131.78 182.54 131.32 182.58 131.04 182.58L128.68 182.55C127.22 182.53 125.63 182.78 125.16 182.34C124.89 182.09 124.75 181.69 124.75 181.17V99.01L124.51 95.44L123.93 92.17C123.73 91.04 123.29 89.98 122.8 88.97C122.4 88.14 121.74 87.7 120.92 87.59C118.84 87.34 117.74 90.21 117.45 92.07L117.08 94.44C116.83 96.05 116.66 97.58 116.66 99.27L116.64 159.49V181.65C116.65 182.32 116.19 182.55 115.58 182.55L112.94 182.53C112.1 182.53 111.29 182.52 110.45 182.57C109.73 182.61 109.16 182.33 109.16 181.47V71.66L109.09 66.97C109.09 66.72 109.19 66.26 109.32 66.1C109.48 65.91 109.97 65.76 110.26 65.75L113.55 65.71L115.85 65.68C116.49 65.68 116.64 66.65 116.63 67.12L116.56 69.72V74.6C116.55 75.08 116.77 75.57 117.12 75.92C117.65 76.11 118.46 72.42 118.54 72.01C118.84 70.63 119.25 69.42 119.9 68.17C120.63 66.76 121.36 65.37 122.9 64.63C123.56 64.31 124.66 64.22 125.37 64.54C128 65.71 128.88 68.58 129.69 70.94C129.87 71.47 130.03 71.99 130.15 72.53L130.83 75.75C131.01 76.59 131.19 77.39 131.28 78.24L131.57 81.1C131.78 83.17 132.08 85.15 132.11 87.25L132.17 91.93L132.2 95.23V151.4V153.36V181.6H132.23Z" fill="#90BEFB"/>
</g>
<path d="M102.71 48.7598H95.29V165.31H102.71V48.7598Z" fill="#90BEFB"/>
<mask id="mask1_2553_9931" style="mask-type:luminance" maskUnits="userSpaceOnUse" x="0" y="0" width="181" height="190">
<path d="M180.42 0H0V189.56H180.42V0Z" fill="white"/>
</mask>
<g mask="url(#mask1_2553_9931)">
<path d="M102.71 23.7801C102.71 24.1801 102.41 24.5101 101.98 24.5101L96.2903 24.5601C95.6803 24.5601 95.3003 24.2201 95.3103 23.6201L95.3303 6.04012V2.26012C95.3303 1.68012 95.9403 1.39012 96.4303 1.39012L101.77 1.37012C102.2 1.37012 102.71 1.75012 102.71 2.30012V23.7901V23.7801Z" fill="#90BEFB"/>
<path d="M80.8901 85.7501C80.6001 88.9001 80.4101 90.9301 79.2801 93.8001C78.8501 94.9001 78.2901 95.8401 77.0701 96.2501C75.5201 96.7701 74.1101 94.5801 73.8901 93.4901L73.2 90.0101C72.88 88.3801 72.7601 86.7101 72.7501 84.9801L72.7201 71.1501V41.8701L72.7401 39.5001L72.8101 35.1301C72.8301 33.5701 72.8301 32.0201 73.1301 30.5001L73.7001 27.5701C73.9001 26.5501 74.2101 25.7301 74.6501 24.7801C75.2201 23.5801 76.5201 22.7501 77.7901 23.5701C78.5701 24.0701 78.8701 25.0701 79.2501 25.8901C79.7901 27.0401 80.0701 28.1201 80.2201 29.4001L80.6001 32.8001C80.7101 33.8101 80.8801 34.7201 80.8801 35.8001V85.7501H80.8901ZM87.0701 1.3601L84.2801 1.3401C82.7501 1.3301 80.9701 0.860104 80.9201 2.1501C80.8401 4.2601 80.9401 6.3501 81.0501 8.5001C81.0801 9.0801 80.9901 10.7701 80.3301 10.4801C80.2001 10.4301 79.9701 10.1801 79.9201 10.0501L78.9001 7.0701C78.5901 6.1801 78.4501 5.2901 78.0501 4.4401C77.3401 2.9501 76.3101 0.840104 74.6701 0.240104C73.8101 -0.0798965 72.5401 -0.0798965 71.6801 0.280104C70.0501 0.960104 69.1501 2.5801 68.5101 4.1901C68.1801 5.0201 67.6901 5.8901 67.5001 6.7301L66.59 10.5401C65.98 13.1001 65.4401 20.2401 65.4301 23.0001L65.3601 38.5001V85.5701L65.4401 93.8901L65.59 98.4101C65.7 101.84 66.5201 109.71 67.6101 112.82L68.3701 114.99C69.1801 117.29 71.9201 120.79 74.7201 119.18C77.3501 117.66 78.1401 114.7 79.0101 112.14L79.9201 109.48C79.9901 109.29 80.2501 109.01 80.4301 109.01C80.6101 109.01 81.0001 109.41 81.0001 109.6L80.9301 114.37L80.8901 132.24C80.8901 134.62 80.4801 136.83 80.1701 139.14C79.9901 140.56 79.3401 142.08 78.4301 143.06C77.7601 143.78 76.8001 143.95 75.9601 143.37C74.6101 142.42 73.8401 140.83 73.7401 139.17C73.2201 137.34 72.81 135.57 72.77 133.66C72.76 133.04 72.5701 132.17 71.7801 132.17H67.9901H66.2001C64.9301 132.17 65.4301 135.36 65.5101 136.4L65.8001 140.27L66.0401 142.86L66.6101 147.39C66.9201 149.9 68.0201 154.7 68.8501 157.03C69.6701 159.33 70.34 161.05 71.59 163.2C72.53 164.82 73.5101 165.78 75.2001 166.58C76.1601 167.04 77.1001 167.23 78.1301 166.75C78.6201 166.52 79.2601 166.32 79.7301 166.02C81.8601 164.7 83.4401 161.46 84.4701 159.15C84.7301 158.57 84.7101 157.73 85.0201 157.17C85.6901 155.97 86.4701 152.01 86.7601 150.49L87.1801 148.31C87.6501 145.83 88.2801 135.61 88.2801 132.82V6.4201L88.3001 2.7201C88.3001 1.9301 87.9101 1.3601 87.0601 1.3501" fill="#90BEFB"/>
<path d="M46.8402 94.3302C46.8402 94.5002 46.6702 94.8401 46.5602 94.9601C46.0702 95.4901 44.9502 93.6601 42.9202 95.0701C42.1002 95.6401 41.4002 96.2401 40.8502 97.1101C39.0702 99.9301 38.2002 103.07 37.5702 106.33C37.2702 107.83 36.9602 109.19 36.9102 110.75C36.8402 113.22 36.4002 115.88 36.4002 117.96V188C36.4002 188.52 36.3702 188.88 36.1102 189.2C35.9302 189.43 35.4102 189.57 35.0502 189.55C33.5302 189.45 32.1802 189.48 30.6602 189.57C30.2102 189.59 29.6002 189.49 29.3002 189.18C29.0602 188.92 29.0202 188.29 29.0202 187.87L29.0402 185.43V181.98L29.0202 179.93V163.43L29.0502 159.21V153.3L29.0202 151.58C29.0002 150.37 29.0302 149.22 29.0402 148.03V142.41L29.0502 140.82V137.56V130.07V126.33V123.7V121.04V117.93L29.0302 116.05L29.0502 113.48V107.03L29.0302 105.43V94.5401L29.0702 90.4802L29.0402 85.8002V77.6301L28.9902 74.2801C28.9902 73.7601 29.1402 73.1701 29.4902 72.8901C29.9302 72.5301 30.4702 72.7402 31.0102 72.7302L35.4602 72.6701C36.0802 72.6701 36.4102 73.2502 36.4102 73.8002L36.4402 76.7801C36.4502 78.2601 36.4202 79.7002 36.3402 81.1602C36.2902 82.0602 36.0102 82.8302 36.4202 83.7302C36.5302 83.9702 37.0802 83.9101 37.2602 83.7001C38.0802 82.7701 38.1902 81.6902 38.6402 80.6202C39.7602 77.9702 41.2402 74.9402 43.2402 72.8002C43.7102 72.3002 45.6602 71.0902 46.5502 71.5502C46.7602 71.6502 46.8202 72.0902 46.8202 72.4102V74.4501V76.4802V84.2501V86.4701L46.8402 94.3501V94.3302Z" fill="#90BEFB"/>
</g>
<path d="M57.8301 48.29H50.3501V165.24H57.8301V48.29Z" fill="#90BEFB"/>
<mask id="mask2_2553_9931" style="mask-type:luminance" maskUnits="userSpaceOnUse" x="0" y="0" width="181" height="190">
<path d="M180.42 0H0V189.56H180.42V0Z" fill="white"/>
</mask>
<g mask="url(#mask2_2553_9931)">
<path d="M57.7598 23.6902C57.6698 23.9202 57.1698 24.1202 56.7998 24.1202L51.2298 24.2002C50.9298 24.2002 50.3598 23.7902 50.3598 23.4402V2.17016C50.3498 1.84016 50.5298 1.36016 50.7198 1.21016C50.9198 1.07016 51.4598 0.920162 51.7298 0.930162C53.3998 0.980162 54.8798 1.00016 56.5498 0.930162C56.8398 0.920162 57.3398 1.07016 57.4998 1.25016C57.6598 1.44016 57.8098 1.94016 57.8098 2.29016V22.7402C57.8198 23.0902 57.8498 23.4302 57.7498 23.6902" fill="#90BEFB"/>
<path d="M15.52 132.59C15.52 134.8 15.21 136.78 14.76 138.88C14.58 139.72 14.41 140.48 14.01 141.23C13.41 142.36 12.3 143.89 10.86 143.24C9.96998 142.83 9.56998 142.08 9.11998 141.3C8.67998 140.54 8.43998 139.85 8.28998 138.89C8.09998 137.61 7.71998 136.41 7.66998 135.2L7.45998 129.9V128.19L7.47998 126.01V121V101.56V99.6703L7.46998 86.4403V82.3803L7.71998 77.6603C7.74998 76.9303 8.00998 76.1603 8.12998 75.4203C8.41998 73.6803 8.97998 71.9703 10.26 70.6803C10.87 70.0703 12.21 70.1303 12.81 70.7603C13.77 71.7503 14.38 73.0303 14.66 74.3603L15.28 77.3303C15.55 78.6503 15.35 79.9503 15.52 81.3603V132.59ZM22.99 96.5703L22.96 94.6903L22.98 91.7303V85.3903C22.98 80.3603 22.65 69.8203 21.78 65.0703C21.57 63.9103 21.21 62.8603 21.15 61.6503C21.1 60.7903 20.8 59.9703 20.54 59.1703L19.36 55.5103C18.53 52.9203 17.15 50.3903 15.24 48.4103C13.73 47.0503 11.41 46.6203 9.60998 47.3403C7.57998 48.1603 6.44998 49.8003 5.42998 51.6503L4.47998 53.3803C4.14998 53.9903 3.97998 54.6703 3.76998 55.3403L2.62998 58.8803C1.93998 61.0503 1.20998 65.2603 0.97998 67.5703L0.68998 70.3803L0.11998 81.2703L-0.0200195 83.4903V129.97C-0.0200195 130.89 0.0299805 131.66 0.0699805 132.54L0.47998 140.46C0.52998 141.49 1.06998 147.35 1.21998 148.15C1.51998 149.79 1.78998 151.4 2.17998 152.98L3.07998 156.61C3.39998 157.92 5.11998 161.49 5.85998 162.81C6.21998 163.45 6.72998 163.86 7.19998 164.42C9.19998 166.88 12.84 167.4 15.21 165.05C17.97 162.3 18.38 160.6 19.7 157.12C20.01 156.31 20.16 155.51 20.4 154.68C20.79 153.37 21.04 152.14 21.3 150.8L21.88 147.81C23.05 141.78 22.93 135.71 22.94 129.55L22.97 110.43V96.5603L22.99 96.5703Z" fill="#90BEFB"/>
<path d="M180.42 164.81V165.25L180.27 165.62C180.12 165.98 179.81 166.28 179.33 166.21C177.18 165.93 175.4 164.88 173.89 163.38C171.21 158.86 170.32 154.58 169.8 149.38L169.39 145.3L169.13 140.31L169.02 135.93V84.7501C169.02 83.3201 169.13 82.2101 169 80.7701V3.57006C169 1.74006 168.85 1.34006 169.51 0.560059H175.9C176.33 1.02006 176.56 1.57006 176.55 2.27006L176.49 6.38006V133.75C176.9 137.61 176.13 141.04 179.1 143.69C179.63 144.16 180.26 144.3 180.26 145.26V164.47C180.26 164.69 180.42 164.87 180.42 164.81Z" fill="#90BEFB"/>
<path d="M156.05 132.6C156.05 134.46 155.78 136.19 155.58 138.02C155.3 140.5 154.94 142.64 153.42 144.63C153.08 145.08 152.65 145.6 152.18 145.71C151.59 145.86 150.85 145.71 150.42 145.29C149.01 143.92 148 140.78 147.93 138.79C147.89 137.63 147.57 136.48 147.43 135.32C147.2 133.3 147.25 131.31 147.32 129.27C147.38 127.74 147.29 126.22 147.52 124.75L147.95 122.1C148.11 121.11 148.12 120.08 148.48 119.17L149.39 116.92C149.86 115.75 152.74 112.68 154.88 114C155.85 114.6 156.12 115.55 156.11 116.68L156.05 132.61V132.6ZM163.45 81.94C163.45 79.28 162.82 69.21 162.42 66.82L161.58 61.85C161.3 60.2 160.88 58.59 160.38 57.01L159.52 54.24C159.16 53.06 158.36 51.99 157.77 50.87C156.99 49.39 155.15 47.63 153.65 47C152.57 46.55 151.1 46.58 150 47.04C147.38 48.13 145.18 52.14 144.29 54.61L143.13 57.86C142.75 58.92 142.58 59.9 142.37 61.02C142.21 61.87 141.88 62.73 141.74 63.62L140.75 69.92C140.47 71.72 140.52 73.54 140.38 75.36L139.98 80.82C139.94 81.29 140.61 81.67 141.07 81.67L145.65 81.76C146.49 81.77 147.11 81.7 147.27 80.7L147.6 78.62C147.89 76.76 148.11 74.98 148.8 73.25C149.24 72.16 149.72 71.09 150.65 70.37C151.69 69.57 153.05 69.79 153.8 70.84C154.8 72.23 155.34 73.82 155.41 75.56C155.43 76.15 155.61 76.75 155.68 77.33C155.9 79.15 156.01 80.93 156.02 82.78L156.06 94.37C156.06 94.94 155.89 95.73 155.36 96C154.84 96.26 154.06 96.08 153.55 95.87C152.76 95.55 152.04 95.63 151.24 95.7C149.56 95.84 148.09 96.32 146.81 97.42C144.34 99.54 143.18 102.66 142.31 105.71C141.82 107.42 141.45 109.07 141.21 110.85C140.98 112.55 140.64 114.15 140.54 115.88L140.07 124.28L139.97 128.07L139.9 133.71V135.67L139.97 142.06L140.51 149.53C140.62 151.04 140.85 152.42 141.13 153.88C141.63 156.49 142.13 159.15 143.34 161.55C144.58 164.03 143.68 163.38 146.12 165.48C146.89 166.15 148.27 166.53 149.3 166.03C151.45 165 152.13 163.6 152.85 161.46L153.6 159.23C154.05 157.9 154.48 156.62 155 155.31C155.16 154.92 155.19 154.22 155.67 154.07C155.91 154.01 156.18 154.68 156.18 154.97L156.09 164.03C156.09 164.61 156.87 164.96 157.34 164.92C158.4 164.82 159.33 164.81 160.35 164.84L162.04 164.9C162.37 164.9 162.84 164.86 163.05 164.68C163.24 164.51 163.46 164.07 163.46 163.67V81.93L163.45 81.94Z" fill="#90BEFB"/>
</g>
</g>
<defs>
<clipPath id="clip0_2553_9931">
<rect width="180.42" height="189.56" fill="white"/>
</clipPath>
</defs>
</svg>
