<svg width="426" height="199" viewBox="0 0 426 199" fill="none" xmlns="http://www.w3.org/2000/svg">
<g clip-path="url(#clip0_2559_708)">
<mask id="mask0_2559_708" style="mask-type:luminance" maskUnits="userSpaceOnUse" x="0" y="0" width="426" height="199">
<path d="M425.87 0H0V198.39H425.87V0Z" fill="white"/>
</mask>
<g mask="url(#mask0_2559_708)">
<path d="M234.07 148.33L234.03 157.96L234.14 162.2C232.89 162.52 231.54 162.54 230.17 162.27L230.09 149.59L230.03 136.26L229.97 111.97C229.97 108.57 227.72 104.21 224.24 102.61C221.36 101.28 218.02 100.91 214.71 100.91L199.33 100.93C196.64 100.93 194.14 101.4 191.57 102.04C188.95 102.69 186.1 105.32 185.2 108.22C184.83 109.4 184.35 111.01 184.35 112.33V131.48L184.38 135.2V141.93V153.67L184.27 162.54C182.76 162.64 181.78 162.64 180.32 162.48L180.21 150.26L180.08 129.98L179.92 120.89L179.97 102.58L180 97.6L180.02 77.52L180.08 75.28V61.1L180.03 58.62L180.06 48.75L184.16 48.86L184.18 62.35C184.18 63.44 183.59 64.48 184.67 65.5L186.47 62.4C189.3 57.52 192.39 54.09 197.45 51.36C202.5 48.62 208.14 48.45 213.88 49.1C215.53 49.29 217.44 50.1 218.87 50.78C222.48 52.49 226.28 55.87 228.31 59.23L230.17 62.33C230.53 62.93 230.81 63.88 231.11 64.58C232.32 67.43 233.92 73.79 233.95 76.93L234.13 96.39L234.23 113.76L234.09 118.5L234.14 133.04L234.17 137.36L234.07 148.36V148.33Z" fill="#90BEFB"/>
<path d="M293.28 105.86C291.81 108.15 289 108.9 286.36 108.89H273.49H254.73C252.45 108.89 250.63 107.1 248.96 105.81C247.92 103.37 247.52 100.61 248.99 98.1804C249.5 97.3304 251.03 96.3204 252 95.8604C253.81 94.9904 255.82 94.7104 257.87 94.7104L286.7 94.7504C288.91 94.7504 291.71 96.1404 293.06 97.7804C294.84 99.9704 294.72 103.61 293.29 105.85M298.67 152.9L298.55 140.57L298.67 126.85V122.1L298.57 99.6004L298.46 90.4304L298.43 83.0104C294.29 80.3104 295.27 82.0904 291.25 78.3604C288.59 75.8904 286.6 72.3504 285.89 68.7404C284.3 60.7004 286.78 57.7004 286.21 55.5204C285.75 53.8104 282.34 54.4804 280.11 58.1604C279.71 58.8204 278.88 59.7804 278.65 60.4404L276.12 67.9304L274.87 71.6204L274.13 73.8204C272.94 77.3204 270.68 80.5004 267.72 82.7504C266.07 84.0104 264.03 84.3504 261.99 84.5904C259.45 84.9004 256.6 84.2104 254.58 82.7004C248.88 78.4604 246.79 73.6604 247.74 66.6404C248.68 59.6904 254.58 54.3104 260.26 50.3604C259.42 50.1704 258.79 50.9204 258.08 51.2904C254.97 52.9404 252.35 55.4804 250.37 58.3404C248.12 61.5904 245.8 66.7804 245.12 70.5504L244.5 74.0304C244.23 75.5604 243.73 77.2704 243.72 78.8304V98.4104L243.76 106.67V118.29C243.76 120.46 244.1 130.3 244.56 131.81C245.18 133.83 245.8 135.57 246.25 137.64C246.4 138.31 246.83 139.07 247.1 139.75C250.41 147.98 255.94 153.87 264.87 155.66C273.41 157.37 282.02 154.13 287.64 147.72L289.05 146.11C290.99 143.89 292.27 141.25 293.96 138.57C294.87 139.47 294.35 140.59 294.35 141.63L294.39 158.66C294.39 160.14 293.5 161.98 292.61 163.09C290.69 165.49 288.53 165.85 285.64 166.08L265.97 166.1L253.78 166.24L253.71 183.74L253.61 191.49C253.6 192.08 253.76 192.85 253.86 193.35H283.49C290.93 191.47 295.05 186.6 297.24 179.14C297.47 178.34 297.98 177.27 298.08 176.51C298.37 174.48 298.6 172.48 298.61 170.45L298.67 159.97L298.72 156.43L298.69 152.86L298.67 152.9Z" fill="#90BEFB"/>
<path d="M282.54 52.6497C279.96 54.5097 277.98 56.3997 276.75 59.1997L274.93 63.3197L273.58 66.4997C271.97 70.2797 269.85 74.4497 265.94 76.3297C264.55 76.9997 262.65 77.0497 261.15 76.9797C258.94 76.8697 257.55 75.5097 256.37 73.8697C254.44 71.1797 254.08 68.0397 254.73 64.7697C254.97 63.5697 255.27 62.6097 255.99 61.6097C256.89 60.3597 257.72 59.0697 258.78 57.9697C260.43 56.2697 261.98 54.5097 263.82 53.0797L267.48 50.2197C270.71 47.6997 271.95 48.6197 274.97 49.2597C278.07 49.9097 279.79 50.9297 282.53 52.6497" fill="#90BEFB"/>
<path d="M300.79 73.1603L300.73 82.3403L295.69 80.3703C294.17 79.7703 291.66 77.3403 290.52 76.1203C289.54 75.0603 287.65 71.1403 287.28 69.8303C286.13 65.7403 286.51 61.7503 287.21 57.6503C287.37 56.7103 287.9 55.6303 288.19 54.7003C289.09 51.7703 289.59 50.6403 291.26 48.0403C292.01 46.8703 292.37 45.1203 293.83 44.4503C294.61 44.1003 295.84 44.2803 296.87 44.3803L295.03 47.6203C294.63 48.3303 294.33 49.3303 293.97 50.1003C293.13 51.8903 292.6 53.5903 292.64 55.6603L292.73 59.9403C292.85 65.5503 296.06 70.3303 300.79 73.1603Z" fill="#90BEFB"/>
<path d="M298.36 48.6103L298.34 69.1303C298.3 69.4303 297.4 69.0703 297.26 68.8403C296.46 67.5103 295.18 66.7803 294.47 63.5803C294.11 61.9403 294.41 60.1803 294.36 58.5303C294.3 56.4603 294.29 54.2703 294.36 52.2503L295.02 50.5003C295.3 49.7503 295.47 48.8203 296.05 48.4303C296.63 48.0403 297.69 48.2103 298.35 48.6103" fill="#90BEFB"/>
<path d="M58.75 126.01C58.79 132.2 58.44 138.2 56.42 144.05C54.12 150.74 50.9 156.05 44.53 159.53C38.54 162.8 31.02 163.19 24.34 161.6C18.79 160.28 13.9 156.87 10.72 152.16C10.03 151.15 9.43 150.18 8.83 149.13C7.64 147.05 6.13 141.8 5.57 139.19C4.79 135.59 5.74 111.67 5 106.6V105.79C5.41 105.26 5.41 104.16 5 103.63V87.4603L5.33 74.5303C5.4 71.5803 6.62 67.8703 7.63 64.9603C8.43 62.6603 9.32 61.2203 10.72 59.1503C13.9 54.4503 18.79 51.0303 24.34 49.7103C31.02 48.1103 38.54 48.5103 44.53 51.7803C50.9 55.2503 54.12 60.5703 56.42 67.2603C58.44 73.1003 58.8 79.1103 58.75 85.3003L58.72 90.8903L55.03 90.9203C54.61 85.2003 48.94 83.3103 44.3 83.3203L16.34 83.3903C13.24 83.3903 10.7 84.0903 9.66 87.1203C9.29 88.1703 9.38 89.1703 9.39 90.2803L9.46 96.0703L9.43 101.06L9.41 113.02L9.36 117.17C9.33 119.92 8.79 123.51 10.39 125.68C11.77 127.54 14.09 127.91 16.33 127.92L44.3 127.99C48.95 128 54.61 126.11 55.03 120.38L58.72 120.41L58.75 126V126.01Z" fill="#90BEFB"/>
<path d="M5 105.79V103.63C5.41 104.16 5.41 105.26 5 105.79Z" fill="#90BEFB"/>
<path d="M116.27 148.06L116.24 157.49L116.35 161.93C115.16 162.23 113.91 162.26 112.39 162.04L112.31 149.18L112.25 135.98L112.19 111.69C112.18 108.29 109.94 103.93 106.46 102.33C103.58 101 100.23 100.63 96.9299 100.63L81.5499 100.65C78.8599 100.65 76.3599 101.12 73.7799 101.76C71.1599 102.41 68.3099 105.04 67.4099 107.94C67.0499 109.12 66.5599 110.73 66.5599 112.05V131.2L66.5799 134.92V153.17L66.4699 162.25C64.9599 162.36 63.9799 162.36 62.5299 162.2L62.4199 149.98L62.2899 129.7L62.1299 120.61L62.1799 102.3L62.2099 97.32L62.2299 77.24L62.2899 75C62.4199 70.24 62.3799 65.6 62.2799 60.83L62.2199 58.3V5H66.5299L66.4699 52.37L66.3599 62.06C66.3499 63.16 65.8499 64.17 66.8699 65.22L68.6799 62.11C71.5199 57.23 74.5899 53.81 79.6499 51.07C84.6999 48.33 90.3399 48.16 96.0799 48.81C97.7299 49 99.6399 49.81 101.07 50.49C104.68 52.2 108.48 55.58 110.5 58.94L112.37 62.04C112.73 62.64 113.01 63.59 113.31 64.29C114.52 67.14 116.13 73.5 116.15 76.64L116.33 96.1L116.43 113.47L116.28 118.21L116.33 132.75L116.36 137.07L116.25 148.07L116.27 148.06Z" fill="#90BEFB"/>
<path d="M168.88 124.62C167.26 126.72 163.05 127.88 160.29 127.94L153.15 128.07L139.81 128.17L131.5 127.96C130.16 127.92 126.66 126.49 126.23 124.8C125.83 123.19 125.84 121.3 126.16 119.64C126.63 117.31 130.89 115.47 133.31 115.17L143.4 113.95C147.08 113.5 150.64 113.3 154.36 112.73L159.91 111.88C163.56 111.32 167.15 110.82 170.86 110.75C171.39 111.39 171.37 112.31 171.35 113.1C171.21 118.13 172.09 120.48 168.89 124.63M175.53 121.08V80.8104C175.53 76.9704 174.47 73.5004 173.64 69.8604C172.35 64.2304 168.42 57.3304 163.88 53.6604C162.89 52.8604 160.4 51.1904 159.06 50.6704C154.65 48.9504 149.3 48.0904 144.67 49.2704C142.21 49.9004 139.71 50.5404 137.62 51.9504L135.49 53.3804C134.97 53.7204 133.99 54.4104 133.61 54.8404L130.51 58.3004C129.86 59.0304 129.29 60.2004 128.73 61.0604C126.84 63.9804 126.67 64.4904 125.48 67.8204C123.08 74.5404 122.53 80.3704 122.65 87.4704L122.71 90.8804L126.65 90.8604C128.46 82.1104 139.72 83.4204 146.53 83.4804L160.67 83.6104C162 83.6204 163.45 84.1504 164.81 84.3704C168.52 84.9804 171.07 89.1104 170.45 89.6704C170.29 89.8204 169.84 90.0604 169.62 90.1104L166.46 90.7704L159.46 91.8804L151.76 93.3204L143 94.7604C141.53 95.0004 140.12 95.6504 138.74 96.1604C136.07 97.1604 133.63 98.3004 131.43 100.2C130.31 101.17 129.13 102.18 128.12 103.34C126.34 105.41 123.91 109.76 123.32 112.37L122.23 117.23C121.74 119.4 121.59 121.43 121.61 123.53L121.79 139.47C121.82 142.3 123.84 148.58 125.28 151.35C127.93 156.43 132.94 160.31 138.45 161.74C143.5 163.05 148.35 163.18 153.3 161.88C155.08 161.41 156.59 160.98 158.18 160.05L160.46 158.72C168.12 154.24 169.87 146.95 170.9 146.4C171.05 146.32 171.52 146.69 171.51 146.86L171.49 149.72L171.42 162.45C172.96 162.63 173.94 162.63 175.46 162.48V155.94L175.49 152.94L175.52 144.11L175.5 138.72L175.52 125.28V121.07L175.53 121.08Z" fill="#90BEFB"/>
<path d="M420.87 113.6L420.85 136.72C420.85 139.75 418.42 146.52 416.77 149.13C414.07 153.42 410.34 156.96 405.8 159.3C399.28 162.66 387.73 162.45 381.33 158.59C374.8 154.65 371.44 149.63 368.83 142.64C367.04 137.85 366.27 130.28 366.13 125.2L366.04 121.92V118.55C367.56 118.36 368.9 118.37 370.22 118.65C370.43 120.21 370.5 121.65 371.27 122.84C372.24 124.34 373.95 125.66 375.64 126.27C377.42 126.92 379.35 126.94 381.27 126.96L409.33 127.12C411.55 127.13 416.54 126.31 416.79 123.56C416.91 122.28 416.94 120.81 416.71 119.67C416.38 118.09 414.65 117.38 413.41 116.81C411.28 115.84 409.25 115.57 406.98 115.33L396.89 114.28C394.52 114.03 392.27 114 389.92 113.61C384.81 112.76 380.18 112.72 375.83 110.21C368.82 106.17 367.24 98.8203 367.24 91.2203V73.4603C367.25 72.1703 367.45 70.7903 367.82 69.6203L369.49 64.2003C370.11 62.2103 371.42 60.0503 372.65 58.2603C375.83 53.6403 380.65 50.2703 386.1 48.9403C395.64 46.6103 406.14 48.4403 412.69 56.0303C417.94 62.1203 420.59 72.3303 420.61 80.1803L420.64 90.0103L416.95 90.1703C416.53 88.1503 416.15 86.5203 414.72 85.3203C413.64 84.4203 412.58 83.6703 411.27 83.3303C409.56 82.8903 408.04 82.5103 406.31 82.5103L378.1 82.5803C374.93 82.5803 372.32 83.4303 371.49 86.6203C371.14 87.9703 371.26 89.0403 372.04 90.2103C373.49 92.4003 375.37 92.6003 377.42 93.0803C380.43 93.7703 383.3 94.1903 386.41 94.5203L393.7 95.3003L400.13 95.9103C403.25 96.2003 408.72 97.2603 411.33 98.6903C414.17 100.26 414.76 100.31 417.07 102.96C419.14 105.33 420.86 110.75 420.86 113.61" fill="#90BEFB"/>
<path d="M309.07 90.7096C310.24 88.0696 311.64 86.6696 314.42 85.4496C316.37 84.5996 318.24 84.2096 320.38 84.0496C322.11 83.9196 323.77 83.7196 325.53 83.7096L337.13 83.6696C342.93 83.6496 354.78 84.0996 354.52 92.5596L346.28 92.7096H339L309.19 92.7896C308.19 92.7896 308.88 91.1896 309.09 90.7096M358.76 123.38L354.75 123.44C353.61 126.36 350.94 128.12 347.72 128.12L321.29 128.09C319.05 128.09 317.04 127.33 315 126.64C309.59 124.8 308.01 119.4 308.9 118.96C309.12 118.85 309.65 118.86 310 118.9H334.67L358.87 118.76L358.83 97.2996L358.81 93.1796L358.69 80.7396C358.68 79.2596 358.55 77.6296 358.22 76.2096L356.98 70.8796C356.6 69.2796 355.93 67.8296 355.33 66.3096C352.95 60.2896 348.56 54.6396 342.77 51.6696C341.63 51.0896 340.59 50.5596 339.33 50.2196C338.23 49.9196 337.03 49.2796 335.87 49.1496C332.68 48.7896 329.3 48.5596 326.23 49.4296C321.7 50.7096 319.37 51.8796 315.74 54.7696C315.16 55.2396 314.51 55.9796 313.95 56.5296C312.86 57.5896 312.01 58.8596 311.1 60.0996C306.2 66.7496 304.31 76.0196 304.25 84.2496L304.18 94.5096L304.23 116.3L304.35 128.38C304.41 133.17 304.8 138.04 306.72 142.46C307.5 144.26 308.11 145.89 308.78 147.72C310.71 152.97 317.21 159.35 322.5 161.08C323.52 161.42 324.62 161.99 325.64 162.23C329.48 163.13 333.47 163.11 337.39 162.32C339.33 161.93 343.67 159.83 345.41 158.56L347.62 156.96C348.36 156.43 349.07 155.53 349.75 154.84C352.59 151.94 355.06 146.88 356.5 143.01C357.92 139.2 358.93 131.56 358.85 127.43L358.77 123.4L358.76 123.38Z" fill="#90BEFB"/>
<path d="M234 162.96C231.24 162.94 229.02 160.68 229.03 157.92C229.05 155.16 231.31 152.94 234.07 152.96C236.83 152.97 239.05 155.23 239.04 157.99C239.02 160.74 236.78 162.96 234.04 162.96H234Z" fill="black"/>
<path d="M229.15 162.33C229.08 159.57 231.26 157.27 234.02 157.2C236.78 157.13 239.07 159.31 239.15 162.07C239.22 164.83 237.04 167.12 234.28 167.2H234.15C231.44 167.2 229.22 165.05 229.15 162.33Z" fill="black"/>
<path d="M229.19 167.17C226.49 166.62 224.73 163.99 225.28 161.28C225.83 158.57 228.46 156.82 231.17 157.37C233.88 157.91 235.63 160.55 235.08 163.25C234.6 165.63 232.52 167.27 230.19 167.27C229.86 167.27 229.53 167.23 229.19 167.17Z" fill="black"/>
<path d="M225.1 149.61C225.09 146.85 227.31 144.6 230.07 144.58C232.83 144.57 235.08 146.79 235.1 149.55C235.12 152.31 232.89 154.57 230.13 154.58H230.1C227.35 154.58 225.12 152.36 225.1 149.61Z" fill="black"/>
<path d="M225.04 136.27C225.03 133.51 227.26 131.26 230.02 131.25C232.78 131.24 235.03 133.46 235.04 136.22C235.05 138.99 232.82 141.24 230.06 141.25H230.04C227.29 141.25 225.05 139.02 225.04 136.27Z" fill="black"/>
<path d="M224.98 111.97C224.98 109.2 227.21 106.96 229.97 106.95C232.73 106.95 234.98 109.18 234.98 111.94C234.99 114.7 232.76 116.95 230 116.95H229.98C227.23 116.95 224.99 114.72 224.98 111.97Z" fill="black"/>
<path d="M222.17 107.14C219.66 105.99 218.56 103.02 219.71 100.51C220.86 97.9997 223.83 96.8997 226.34 98.0497C228.85 99.1997 229.95 102.17 228.8 104.68C227.96 106.52 226.15 107.6 224.25 107.6C223.56 107.6 222.85 107.45 222.17 107.14Z" fill="black"/>
<path d="M209.73 100.9C209.73 98.1404 211.97 95.9004 214.73 95.9004C217.49 95.9004 219.73 98.1404 219.73 100.9C219.73 103.66 217.49 105.9 214.73 105.9C211.97 105.9 209.73 103.66 209.73 100.9Z" fill="black"/>
<path d="M194.35 100.92C194.34 98.1599 196.58 95.9199 199.34 95.9199C202.1 95.9199 204.34 98.1499 204.35 100.91C204.35 103.67 202.11 105.92 199.35 105.92C196.59 105.92 194.35 103.68 194.35 100.92Z" fill="black"/>
<path d="M186.73 103.22C186.07 100.54 187.71 97.8304 190.39 97.1704C193.07 96.5104 195.78 98.1504 196.44 100.83C197.1 103.51 195.46 106.22 192.78 106.88C192.38 106.98 191.98 107.03 191.58 107.03C189.33 107.03 187.29 105.5 186.73 103.22Z" fill="black"/>
<path d="M183.75 112.98C181.11 112.17 179.63 109.37 180.44 106.73C181.25 104.09 184.05 102.61 186.69 103.42C189.33 104.24 190.81 107.04 190 109.67C189.33 111.82 187.36 113.2 185.22 113.2C184.73 113.2 184.24 113.13 183.75 112.98Z" fill="black"/>
<path d="M179.36 112.31C179.36 109.55 181.6 107.31 184.36 107.31C187.13 107.31 189.36 109.55 189.36 112.31C189.36 115.07 187.13 117.31 184.36 117.31C181.6 117.31 179.36 115.07 179.36 112.31Z" fill="black"/>
<path d="M179.37 131.46C179.37 128.7 181.61 126.46 184.37 126.46C187.13 126.46 189.37 128.7 189.37 131.46C189.37 134.22 187.13 136.46 184.37 136.46C181.61 136.46 179.37 134.22 179.37 131.46Z" fill="black"/>
<path d="M179.39 153.65C179.38 150.89 181.62 148.65 184.38 148.65C187.14 148.65 189.38 150.88 189.39 153.64C189.39 156.4 187.15 158.64 184.39 158.65C181.63 158.65 179.39 156.41 179.39 153.65Z" fill="black"/>
<path d="M184.22 167.51C181.46 167.48 179.25 165.22 179.28 162.45C179.31 159.69 181.58 157.48 184.34 157.51C187.1 157.55 189.31 159.81 189.28 162.57C189.25 165.31 187.02 167.51 184.28 167.51H184.22Z" fill="black"/>
<path d="M179.79 167.43C177.05 167.13 175.07 164.66 175.36 161.92C175.66 159.17 178.13 157.19 180.88 157.49C183.62 157.78 185.61 160.25 185.31 163C185.03 165.56 182.86 167.46 180.34 167.46C180.16 167.46 179.98 167.46 179.79 167.43Z" fill="black"/>
<path d="M175.22 150.28C175.2 147.52 177.42 145.26 180.18 145.23C182.94 145.21 185.2 147.43 185.22 150.19C185.25 152.95 183.03 155.21 180.27 155.23H180.22C177.48 155.23 175.25 153.03 175.22 150.28Z" fill="black"/>
<path d="M175.17 116.41C175.17 113.65 177.4 111.4 180.16 111.4C182.93 111.4 185.17 113.63 185.17 116.39C185.18 119.15 182.94 121.4 180.18 121.4H180.17C177.41 121.4 175.18 119.17 175.17 116.41ZM175.12 82.5703C175.12 79.8103 177.35 77.5703 180.11 77.5703C182.88 77.5703 185.12 79.8003 185.12 82.5603C185.13 85.3203 182.89 87.5603 180.13 87.5703C177.37 87.5703 175.13 85.3403 175.12 82.5703Z" fill="black"/>
<path d="M184.04 53.8498C181.28 53.7698 179.1 51.4698 179.17 48.7098C179.25 45.9498 181.55 43.7698 184.31 43.8498C187.07 43.9198 189.25 46.2198 189.17 48.9798C189.1 51.6998 186.87 53.8498 184.18 53.8498H184.04Z" fill="black"/>
<path d="M179.19 62.3401C179.19 59.5801 181.42 57.3401 184.18 57.3301C186.94 57.3301 189.19 59.5701 189.19 62.3301C189.19 65.0901 186.96 67.3301 184.2 67.3301C181.43 67.3301 179.19 65.1001 179.19 62.3401Z" fill="black"/>
<path d="M181.26 69.1303C179.25 67.2403 179.15 64.0703 181.04 62.0603C182.93 60.0503 186.09 59.9503 188.11 61.8403C190.12 63.7303 190.22 66.8903 188.33 68.9003C187.35 69.9503 186.02 70.4803 184.68 70.4803C183.46 70.4803 182.23 70.0303 181.26 69.1303Z" fill="black"/>
<path d="M183.98 66.6996C181.59 65.3196 180.77 62.2596 182.16 59.8696C183.54 57.4796 186.6 56.6696 188.99 58.0496C191.38 59.4396 192.19 62.4996 190.81 64.8896C189.88 66.4896 188.2 67.3796 186.48 67.3796C185.63 67.3796 184.76 67.1596 183.98 66.6996Z" fill="black"/>
<path d="M193.07 53.7198C191.75 51.2898 192.66 48.2498 195.08 46.9398C197.51 45.6198 200.55 46.5298 201.86 48.9598C203.17 51.3798 202.27 54.4198 199.84 55.7298C199.09 56.1398 198.27 56.3398 197.47 56.3398C195.69 56.3398 193.97 55.3898 193.07 53.7198Z" fill="black"/>
<path d="M213.33 54.0402C210.58 53.7302 208.61 51.2602 208.92 48.5102C209.23 45.7702 211.71 43.8002 214.45 44.1102C217.2 44.4202 219.17 46.9002 218.86 49.6402C218.57 52.1902 216.41 54.0802 213.9 54.0802C213.71 54.0802 213.52 54.0702 213.33 54.0402Z" fill="black"/>
<path d="M216.74 55.28C214.24 54.09 213.18 51.11 214.36 48.61C215.55 46.12 218.53 45.06 221.02 46.24C223.52 47.42 224.58 50.4 223.4 52.9C222.54 54.7 220.75 55.76 218.88 55.76C218.16 55.76 217.43 55.6 216.74 55.28Z" fill="black"/>
<path d="M224.03 61.7803C222.61 59.4203 223.37 56.3503 225.73 54.9203C228.1 53.5003 231.17 54.2603 232.6 56.6203C234.02 58.9903 233.26 62.0603 230.9 63.4803C230.09 63.9703 229.2 64.2003 228.32 64.2003C226.62 64.2003 224.97 63.3403 224.03 61.7803Z" fill="black"/>
<path d="M225.89 64.87C224.47 62.51 225.23 59.4399 227.6 58.0099C229.97 56.5899 233.04 57.36 234.46 59.73C235.88 62.09 235.12 65.1599 232.75 66.5899C231.94 67.0699 231.06 67.3 230.18 67.3C228.48 67.3 226.83 66.44 225.89 64.87Z" fill="black"/>
<path d="M226.52 66.5199C225.44 63.9799 226.61 61.0399 229.15 59.9599C231.69 58.8699 234.63 60.0499 235.72 62.5899C236.8 65.1199 235.63 68.0599 233.09 69.1499C232.45 69.4199 231.78 69.5499 231.12 69.5499C229.18 69.5499 227.33 68.4199 226.52 66.5199Z" fill="black"/>
<path d="M228.96 76.9504C228.94 74.1904 231.16 71.9305 233.92 71.9105C236.68 71.8805 238.94 74.1005 238.96 76.8605C238.99 79.6205 236.77 81.8805 234.01 81.9005H233.96C231.22 81.9005 228.99 79.7004 228.96 76.9504Z" fill="black"/>
<path d="M229.14 96.4097C229.12 93.6497 231.34 91.3897 234.1 91.3597C236.86 91.3297 239.12 93.5497 239.14 96.3097C239.17 99.0697 236.95 101.33 234.19 101.36H234.14C231.4 101.36 229.17 99.1497 229.14 96.4097Z" fill="black"/>
<path d="M229.18 137.33C229.17 134.57 231.41 132.33 234.17 132.33C236.93 132.32 239.17 134.56 239.18 137.32C239.18 140.08 236.94 142.32 234.18 142.33C231.42 142.33 229.18 140.09 229.18 137.33Z" fill="black"/>
<path d="M293.58 123.47C293.57 120.7 295.8 118.46 298.56 118.45C301.32 118.44 303.57 120.67 303.58 123.43C303.59 126.19 301.35 128.44 298.59 128.45H298.58C295.82 128.45 293.59 126.22 293.58 123.47Z" fill="black"/>
<path d="M293.42 83.0398C293.41 80.2798 295.64 78.0298 298.4 78.0098C301.16 78.0098 303.41 80.2298 303.42 82.9898C303.44 85.7498 301.21 87.9998 298.45 88.0098H298.42C295.67 88.0098 293.44 85.7898 293.42 83.0398Z" fill="black"/>
<path d="M287.84 82.0302C285.82 80.1502 285.7 76.9902 287.58 74.9602C289.46 72.9402 292.62 72.8202 294.64 74.7002C296.67 76.5802 296.78 79.7502 294.91 81.7702C293.92 82.8302 292.58 83.3702 291.24 83.3702C290.02 83.3702 288.8 82.9202 287.84 82.0302Z" fill="black"/>
<path d="M280.98 69.7103C280.45 67.0003 282.22 64.3703 284.93 63.8403C287.64 63.3103 290.26 65.0703 290.79 67.7803C291.32 70.4903 289.56 73.1203 286.85 73.6503C286.52 73.7203 286.2 73.7503 285.88 73.7503C283.54 73.7503 281.45 72.0903 280.98 69.7103Z" fill="black"/>
<path d="M281.37 56.8C280.66 54.13 282.26 51.39 284.93 50.69C287.6 49.98 290.33 51.58 291.04 54.25C291.74 56.92 290.15 59.65 287.48 60.36C287.05 60.47 286.62 60.52 286.2 60.52C283.98 60.52 281.96 59.04 281.37 56.8Z" fill="black"/>
<path d="M277.51 62.4401C275.15 61.0101 274.39 57.9301 275.82 55.5701C277.25 53.2101 280.33 52.4601 282.69 53.8901C285.05 55.3201 285.81 58.3901 284.37 60.7601C283.43 62.3101 281.78 63.1601 280.09 63.1601C279.21 63.1601 278.32 62.9301 277.51 62.4401Z" fill="black"/>
<path d="M277.04 65.1802C274.42 64.2902 273.02 61.4502 273.91 58.8402C274.8 56.2202 277.64 54.8202 280.25 55.7102C282.86 56.6002 284.27 59.4402 283.38 62.0502C282.67 64.1302 280.73 65.4502 278.65 65.4502C278.11 65.4502 277.57 65.3602 277.04 65.1802Z" fill="black"/>
<path d="M274.52 72.6704C271.9 71.7904 270.49 68.9504 271.38 66.3404C272.26 63.7204 275.1 62.3204 277.71 63.2004C280.33 64.0804 281.74 66.9204 280.85 69.5304C280.15 71.6204 278.2 72.9404 276.12 72.9404C275.59 72.9404 275.05 72.8504 274.52 72.6704Z" fill="black"/>
<path d="M273.25 76.36C270.64 75.47 269.24 72.63 270.13 70.02C271.02 67.41 273.86 66.01 276.47 66.89C279.08 67.78 280.48 70.62 279.6 73.24C278.89 75.32 276.94 76.63 274.86 76.63C274.33 76.63 273.79 76.54 273.25 76.36Z" fill="black"/>
<path d="M272.52 78.57C269.91 77.69 268.5 74.85 269.38 72.24C270.26 69.62 273.1 68.21 275.72 69.09C278.33 69.98 279.74 72.81 278.86 75.43C278.15 77.52 276.21 78.83 274.12 78.83C273.59 78.83 273.05 78.75 272.52 78.57Z" fill="black"/>
<path d="M263.73 85.7902C262.06 83.5902 262.49 80.4502 264.69 78.7802C266.88 77.1102 270.02 77.5402 271.69 79.7302C273.36 81.9302 272.94 85.0702 270.74 86.7402C269.84 87.4302 268.77 87.7602 267.72 87.7602C266.21 87.7602 264.72 87.0802 263.73 85.7902Z" fill="black"/>
<path d="M257.02 85.1999C256.69 82.4599 258.64 79.9699 261.38 79.6399C264.12 79.3099 266.61 81.2599 266.95 83.9999C267.28 86.7399 265.32 89.2399 262.58 89.5699C262.38 89.5899 262.18 89.5999 261.97 89.5999C259.48 89.5999 257.32 87.7399 257.02 85.1999Z" fill="black"/>
<path d="M251.58 86.7198C249.36 85.0698 248.91 81.9298 250.57 79.7198C252.22 77.5098 255.35 77.0598 257.56 78.7098C259.78 80.3598 260.23 83.4998 258.57 85.7098C257.59 87.0198 256.09 87.7198 254.57 87.7198C253.52 87.7198 252.47 87.3898 251.58 86.7198Z" fill="black"/>
<path d="M247.06 71.6099C244.32 71.2399 242.4 68.7199 242.78 65.9799C243.15 63.2499 245.66 61.3299 248.4 61.6999C251.14 62.0699 253.06 64.5899 252.69 67.3299C252.34 69.8299 250.2 71.6599 247.74 71.6599C247.51 71.6599 247.29 71.6399 247.06 71.6099Z" fill="black"/>
<path d="M256.15 53.2299C254.57 50.9599 255.13 47.8499 257.4 46.2699C259.66 44.6899 262.78 45.2499 264.35 47.5199C265.93 49.7899 265.37 52.8999 263.11 54.4799C262.24 55.0799 261.24 55.3799 260.25 55.3799C258.67 55.3799 257.12 54.6299 256.15 53.2299Z" fill="black"/>
<path d="M253.64 53.6197C252.36 51.1697 253.3 48.1497 255.75 46.8697C258.2 45.5897 261.22 46.5397 262.5 48.9797C263.78 51.4297 262.84 54.4497 260.39 55.7297C259.65 56.1197 258.86 56.2997 258.07 56.2997C256.27 56.2997 254.53 55.3297 253.64 53.6197Z" fill="black"/>
<path d="M247.51 62.4704C245.24 60.8904 244.68 57.7804 246.25 55.5104C247.82 53.2404 250.94 52.6704 253.21 54.2404C255.48 55.8204 256.04 58.9304 254.47 61.2004C253.5 62.6004 251.94 63.3604 250.35 63.3604C249.37 63.3604 248.38 63.0704 247.51 62.4704Z" fill="black"/>
<path d="M244.22 75.4897C241.51 74.9997 239.7 72.3897 240.19 69.6797C240.68 66.9597 243.28 65.1597 246 65.6497C248.72 66.1397 250.52 68.7397 250.03 71.4597C249.6 73.8697 247.49 75.5697 245.12 75.5697C244.82 75.5697 244.52 75.5397 244.22 75.4897Z" fill="black"/>
<path d="M243.6 78.9704C240.89 78.4804 239.08 75.8804 239.57 73.1604C240.05 70.4404 242.65 68.6404 245.37 69.1204C248.09 69.6104 249.9 72.2104 249.41 74.9304C248.97 77.3504 246.87 79.0504 244.49 79.0504C244.2 79.0504 243.9 79.0204 243.6 78.9704Z" fill="black"/>
<path d="M243.69 83.8496C240.93 83.8396 238.7 81.5896 238.71 78.8296C238.72 76.0696 240.97 73.8396 243.73 73.8496C246.49 73.8496 248.72 76.1096 248.71 78.8696C248.71 81.6196 246.46 83.8496 243.71 83.8496H243.69Z" fill="black"/>
<path d="M243.71 103.43C240.94 103.43 238.71 101.19 238.71 98.4297C238.71 95.6697 240.95 93.4297 243.71 93.4297C246.47 93.4297 248.71 95.6697 248.71 98.4397C248.71 101.2 246.47 103.43 243.71 103.43Z" fill="black"/>
<path d="M238.76 106.73C238.74 103.96 240.97 101.71 243.73 101.7C246.49 101.68 248.74 103.9 248.76 106.66C248.77 109.43 246.55 111.68 243.79 111.69H243.76C241.01 111.69 238.77 109.48 238.76 106.73Z" fill="black"/>
<path d="M243.75 123.32C240.99 123.32 238.75 121.07 238.75 118.31C238.75 115.55 240.99 113.31 243.75 113.32C246.52 113.32 248.75 115.56 248.75 118.32C248.75 121.08 246.51 123.32 243.75 123.32Z" fill="black"/>
<path d="M239.77 133.3C238.97 130.66 240.45 127.86 243.09 127.05C245.74 126.25 248.53 127.73 249.34 130.38C250.14 133.02 248.66 135.81 246.02 136.62C245.53 136.77 245.04 136.84 244.55 136.84C242.41 136.84 240.43 135.45 239.77 133.3Z" fill="black"/>
<path d="M241.35 138.72C240.77 136.02 242.49 133.36 245.19 132.78C247.89 132.2 250.55 133.92 251.13 136.62C251.71 139.32 249.99 141.98 247.29 142.56C246.94 142.63 246.58 142.67 246.24 142.67C243.93 142.67 241.86 141.06 241.35 138.72Z" fill="black"/>
<path d="M242.46 141.66C241.43 139.1 242.66 136.18 245.22 135.15C247.78 134.11 250.7 135.35 251.73 137.91C252.77 140.47 251.53 143.38 248.97 144.42C248.36 144.67 247.72 144.78 247.1 144.78C245.12 144.78 243.25 143.6 242.46 141.66Z" fill="black"/>
<path d="M263.88 160.59C261.18 160.05 259.42 157.42 259.96 154.71C260.5 152 263.14 150.25 265.84 150.79C268.55 151.33 270.31 153.96 269.77 156.67C269.29 159.05 267.2 160.69 264.87 160.69C264.54 160.69 264.21 160.66 263.88 160.59Z" fill="black"/>
<path d="M284.33 151.51C282.26 149.69 282.05 146.53 283.87 144.46C285.69 142.38 288.85 142.17 290.92 143.99C293 145.81 293.21 148.97 291.39 151.05C290.4 152.17 289.02 152.75 287.63 152.75C286.46 152.75 285.28 152.34 284.33 151.51Z" fill="black"/>
<path d="M285.75 149.9C283.67 148.08 283.46 144.92 285.28 142.85C287.09 140.77 290.25 140.56 292.33 142.37C294.41 144.19 294.62 147.35 292.8 149.43C291.81 150.56 290.43 151.14 289.04 151.14C287.87 151.14 286.7 150.73 285.75 149.9Z" fill="black"/>
<path d="M291.28 142.83C288.94 141.36 288.24 138.27 289.71 135.94C291.19 133.6 294.27 132.9 296.61 134.37C298.95 135.84 299.65 138.93 298.18 141.27C297.23 142.78 295.6 143.6 293.94 143.6C293.03 143.6 292.11 143.35 291.28 142.83Z" fill="black"/>
<path d="M289.33 141.67C289.33 138.9 291.57 136.67 294.33 136.67C297.09 136.67 299.33 138.9 299.33 141.67C299.33 144.43 297.09 146.67 294.33 146.67C291.57 146.67 289.33 144.43 289.33 141.67Z" fill="black"/>
<path d="M289.37 158.71C289.37 155.95 291.6 153.7 294.36 153.7C297.12 153.69 299.37 155.92 299.37 158.69C299.38 161.45 297.15 163.69 294.38 163.7H294.37C291.62 163.7 289.38 161.47 289.37 158.71Z" fill="black"/>
<path d="M289.47 167.03C287.31 165.31 286.96 162.17 288.68 160.01C290.41 157.85 293.55 157.49 295.71 159.22C297.87 160.94 298.22 164.08 296.5 166.24C295.51 167.48 294.06 168.13 292.59 168.13C291.5 168.13 290.39 167.77 289.47 167.03Z" fill="black"/>
<path d="M280.63 166.5C280.42 163.75 282.48 161.34 285.23 161.13C287.98 160.92 290.39 162.97 290.6 165.73C290.82 168.48 288.76 170.88 286.01 171.1C285.87 171.1 285.74 171.12 285.61 171.12C283.03 171.12 280.84 169.12 280.63 166.5Z" fill="black"/>
<path d="M260.94 166.14C260.94 163.38 263.18 161.14 265.94 161.14C268.7 161.14 270.94 163.37 270.94 166.13C270.95 168.89 268.71 171.14 265.95 171.14C263.19 171.14 260.95 168.9 260.94 166.14Z" fill="black"/>
<path d="M248.75 166.34C248.72 163.57 250.94 161.31 253.7 161.28C256.46 161.25 258.72 163.46 258.75 166.22C258.79 168.98 256.57 171.25 253.81 171.28H253.75C251.02 171.28 248.79 169.08 248.75 166.34Z" fill="black"/>
<path d="M253.66 188.78C250.9 188.78 248.67 186.52 248.68 183.76C248.69 181 250.94 178.77 253.7 178.78C256.46 178.79 258.69 181.04 258.68 183.8C258.67 186.56 256.43 188.78 253.68 188.78H253.66Z" fill="black"/>
<path d="M253.51 196.53C250.75 196.5 248.54 194.23 248.58 191.47C248.62 188.71 250.89 186.5 253.65 186.53C256.41 186.57 258.62 188.84 258.58 191.6C258.54 194.34 256.31 196.53 253.58 196.53H253.51Z" fill="black"/>
<path d="M248.94 194.44C248.88 194.15 248.79 193.73 248.72 193.23C248.3 190.5 250.17 187.95 252.9 187.53C255.63 187.11 258.18 188.98 258.6 191.71C258.63 191.88 258.67 192.12 258.72 192.35C259.3 195.05 257.58 197.71 254.88 198.28C254.53 198.36 254.18 198.39 253.83 198.39C251.52 198.39 249.45 196.79 248.94 194.44Z" fill="black"/>
<path d="M278.47 193.39C278.47 190.63 280.7 188.39 283.46 188.39C286.23 188.39 288.47 190.63 288.47 193.39C288.47 196.15 286.23 198.39 283.46 198.39C280.7 198.39 278.47 196.15 278.47 193.39Z" fill="black"/>
<path d="M295.81 183.98C293.16 183.2 291.64 180.42 292.41 177.78C293.19 175.13 295.97 173.61 298.62 174.38C301.27 175.16 302.78 177.94 302.01 180.59C301.37 182.77 299.38 184.18 297.21 184.18C296.75 184.18 296.27 184.12 295.81 183.98Z" fill="black"/>
<path d="M297.37 181.5C294.63 181.12 292.72 178.6 293.1 175.86C293.48 173.13 296 171.22 298.74 171.6C301.47 171.98 303.39 174.5 303.01 177.24C302.66 179.74 300.52 181.55 298.06 181.55C297.83 181.55 297.6 181.55 297.37 181.5Z" fill="black"/>
<path d="M298.56 175.49C295.8 175.47 293.57 173.22 293.59 170.46C293.6 167.7 295.85 165.47 298.62 165.49C301.38 165.5 303.6 167.76 303.59 170.52C303.57 173.27 301.34 175.49 298.59 175.49H298.56Z" fill="black"/>
<path d="M298.62 165.01C295.86 164.99 293.63 162.74 293.64 159.98C293.66 157.22 295.91 154.99 298.67 155.01C301.43 155.02 303.66 157.27 303.64 160.03C303.63 162.79 301.39 165.01 298.64 165.01H298.62Z" fill="black"/>
<path d="M298.62 161.47C295.86 161.43 293.66 159.16 293.69 156.4C293.73 153.63 296 151.43 298.76 151.47C301.53 151.51 303.73 153.78 303.69 156.54C303.65 159.27 301.42 161.47 298.7 161.47H298.62Z" fill="black"/>
<path d="M281.36 108.89C281.36 106.13 283.6 103.89 286.36 103.89C289.12 103.89 291.36 106.13 291.36 108.89C291.36 111.65 289.12 113.89 286.36 113.89C283.6 113.89 281.36 111.65 281.36 108.89Z" fill="black"/>
<path d="M273.48 113.89C270.72 113.88 268.48 111.65 268.48 108.88C268.49 106.12 270.73 103.88 273.49 103.89C276.25 103.89 278.49 106.13 278.48 108.89C278.48 111.65 276.24 113.89 273.48 113.89Z" fill="black"/>
<path d="M249.73 108.89C249.73 106.12 251.96 103.89 254.73 103.89C257.49 103.89 259.73 106.12 259.73 108.89C259.73 111.65 257.49 113.89 254.73 113.89C251.96 113.89 249.73 111.65 249.73 108.89Z" fill="black"/>
<path d="M245.9 109.76C243.72 108.08 243.31 104.94 245 102.75C246.68 100.57 249.82 100.16 252.01 101.85C254.2 103.53 254.6 106.67 252.91 108.86C251.93 110.14 250.45 110.81 248.95 110.81C247.89 110.81 246.81 110.47 245.9 109.76Z" fill="black"/>
<path d="M246.4 102.46C244.04 101.03 243.27 97.96 244.7 95.59C246.13 93.23 249.2 92.47 251.56 93.89C253.93 95.32 254.69 98.39 253.27 100.76C252.33 102.31 250.67 103.18 248.98 103.18C248.1 103.18 247.21 102.94 246.4 102.46Z" fill="black"/>
<path d="M247.49 98.0201C246.29 95.5301 247.34 92.5401 249.83 91.3501C252.32 90.1501 255.31 91.2001 256.5 93.6901C257.7 96.1801 256.65 99.1701 254.16 100.36C253.46 100.7 252.72 100.86 252 100.86C250.14 100.86 248.35 99.8101 247.49 98.0201Z" fill="black"/>
<path d="M252.87 94.71C252.87 91.95 255.11 89.71 257.87 89.71C260.63 89.71 262.87 91.95 262.87 94.71C262.87 97.47 260.63 99.71 257.87 99.71C255.11 99.71 252.87 97.47 252.87 94.71Z" fill="black"/>
<path d="M286.69 99.75C283.93 99.75 281.69 97.51 281.7 94.75C281.7 91.98 283.94 89.75 286.7 89.75C289.46 89.75 291.7 92 291.7 94.76C291.69 97.52 289.46 99.75 286.7 99.75H286.69Z" fill="black"/>
<path d="M289.18 100.95C287.43 98.8101 287.75 95.6601 289.89 93.9101C292.03 92.1701 295.18 92.4901 296.93 94.6301C298.67 96.7701 298.35 99.9201 296.21 101.66C295.28 102.42 294.17 102.79 293.06 102.79C291.6 102.79 290.17 102.16 289.18 100.95Z" fill="black"/>
<path d="M290.59 110.07C288.27 108.59 287.58 105.49 289.07 103.17C290.55 100.84 293.64 100.16 295.97 101.64C298.3 103.13 298.98 106.22 297.5 108.55C296.54 110.04 294.93 110.86 293.28 110.86C292.36 110.86 291.43 110.6 290.59 110.07Z" fill="black"/>
<path d="M274.73 63.7699C272.2 62.6599 271.05 59.7099 272.17 57.1799C273.28 54.6499 276.23 53.5099 278.76 54.6199C281.29 55.7399 282.43 58.6899 281.32 61.2199C280.49 63.0899 278.66 64.1999 276.74 64.1999C276.07 64.1999 275.38 64.0599 274.73 63.7699Z" fill="black"/>
<path d="M272.9 67.89C270.38 66.77 269.23 63.82 270.35 61.3C271.47 58.77 274.42 57.63 276.94 58.74C279.47 59.86 280.61 62.81 279.5 65.34C278.67 67.21 276.84 68.32 274.92 68.32C274.25 68.32 273.56 68.18 272.9 67.89Z" fill="black"/>
<path d="M271.61 71.1003C269.07 70.0203 267.89 67.0803 268.97 64.5403C270.05 62.0003 272.99 60.8203 275.53 61.9003C278.07 62.9803 279.25 65.9203 278.17 68.4603C277.36 70.3603 275.51 71.5003 273.57 71.5003C272.91 71.5003 272.25 71.3703 271.61 71.1003Z" fill="black"/>
<path d="M261.42 78.4898C260.22 76.0098 261.27 73.0198 263.76 71.8198C266.25 70.6198 269.23 71.6698 270.43 74.1598C271.63 76.6498 270.58 79.6298 268.1 80.8298C267.4 81.1698 266.66 81.3298 265.93 81.3298C264.07 81.3298 262.28 80.2798 261.42 78.4898Z" fill="black"/>
<path d="M260.89 81.9702C258.13 81.8302 256.01 79.4802 256.15 76.7202C256.28 73.9602 258.63 71.8402 261.39 71.9802C264.15 72.1202 266.27 74.4702 266.13 77.2202C266 79.9002 263.79 81.9702 261.14 81.9702H260.89Z" fill="black"/>
<path d="M252.3 76.7696C250.69 74.5196 251.21 71.3996 253.45 69.7896C255.7 68.1896 258.82 68.6996 260.43 70.9496C262.03 73.1996 261.52 76.3196 259.27 77.9296C258.39 78.5596 257.37 78.8596 256.37 78.8596C254.81 78.8596 253.27 78.1296 252.3 76.7696Z" fill="black"/>
<path d="M253.75 69.6595C251.04 69.1195 249.28 66.4895 249.82 63.7795C250.36 61.0695 253 59.3195 255.71 59.8595C258.41 60.3995 260.17 63.0295 259.63 65.7395C259.15 68.1195 257.07 69.7595 254.73 69.7595C254.41 69.7595 254.08 69.7295 253.75 69.6595Z" fill="black"/>
<path d="M253.07 65.6596C250.83 64.0496 250.32 60.9295 251.93 58.6895C253.54 56.4395 256.67 55.9295 258.91 57.5395C261.15 59.1495 261.66 62.2795 260.05 64.5195C259.07 65.8795 257.54 66.5995 255.99 66.5995C254.98 66.5995 253.96 66.2996 253.07 65.6596Z" fill="black"/>
<path d="M255.3 61.5601C253.32 59.6401 253.27 56.4701 255.19 54.4901C257.11 52.5101 260.28 52.4501 262.26 54.3701C264.25 56.3001 264.3 59.4601 262.38 61.4501C261.39 62.4601 260.09 62.9701 258.78 62.9701C257.53 62.9701 256.28 62.5001 255.3 61.5601Z" fill="black"/>
<path d="M259.88 56.1601C258.18 53.9801 258.56 50.8401 260.74 49.1401C262.92 47.4401 266.06 47.8201 267.76 50.0001C269.46 52.1701 269.07 55.3201 266.9 57.0201C265.98 57.7301 264.9 58.0801 263.82 58.0801C262.34 58.0801 260.87 57.4201 259.88 56.1601Z" fill="black"/>
<path d="M263.54 53.2896C261.84 51.1196 262.23 47.9696 264.41 46.2796C266.58 44.5796 269.73 44.9696 271.43 47.1396C273.12 49.3196 272.74 52.4596 270.56 54.1596C269.65 54.8696 268.56 55.2196 267.49 55.2196C266 55.2196 264.53 54.5596 263.54 53.2896Z" fill="black"/>
<path d="M273.94 54.1501C271.24 53.5801 269.51 50.9301 270.08 48.2301C270.65 45.5301 273.3 43.8001 276 44.3601C278.71 44.9301 280.44 47.5801 279.87 50.2901C279.37 52.6401 277.29 54.2601 274.98 54.2601C274.64 54.2601 274.29 54.2201 273.94 54.1501Z" fill="black"/>
<path d="M279.88 56.8902C277.54 55.4202 276.83 52.3302 278.3 49.9902C279.77 47.6502 282.86 46.9502 285.2 48.4202C287.54 49.8802 288.24 52.9702 286.77 55.3102C285.82 56.8202 284.2 57.6502 282.53 57.6502C281.62 57.6502 280.71 57.4002 279.88 56.8902Z" fill="black"/>
<path d="M276.75 64.1998C275.57 64.1998 274.39 63.7898 273.44 62.9498C271.37 61.1198 271.18 57.9598 273 55.8898L278.78 49.3398C280.61 47.2698 283.77 47.0698 285.84 48.8998C287.91 50.7298 288.1 53.8898 286.28 55.9598L280.5 62.5098C279.51 63.6298 278.13 64.1998 276.75 64.1998Z" fill="black"/>
<path d="M300.7 87.3301C297.94 87.3201 295.72 85.0601 295.73 82.3001C295.75 79.5401 298 77.3201 300.76 77.3301C303.53 77.3501 305.75 79.6001 305.73 82.3601C305.72 85.1101 303.48 87.3301 300.73 87.3301H300.7Z" fill="black"/>
<path d="M293.87 85.0203C291.3 84.0103 290.03 81.1103 291.04 78.5403C292.04 75.9703 294.94 74.7003 297.52 75.7103C300.09 76.7103 301.36 79.6103 300.35 82.1803C299.58 84.1603 297.69 85.3603 295.69 85.3603C295.09 85.3603 294.47 85.2503 293.87 85.0203Z" fill="black"/>
<path d="M286.86 79.5104C284.98 77.4804 285.1 74.3204 287.12 72.4404C289.15 70.5604 292.31 70.6804 294.19 72.7104C296.07 74.7304 295.95 77.9004 293.92 79.7704C292.96 80.6704 291.74 81.1104 290.52 81.1104C289.18 81.1104 287.84 80.5704 286.86 79.5104Z" fill="black"/>
<path d="M282.47 71.1897C281.72 68.5297 283.26 65.7597 285.91 65.0097C288.57 64.2497 291.33 65.7997 292.09 68.4497C292.85 71.1097 291.3 73.8697 288.65 74.6297C288.19 74.7597 287.73 74.8197 287.28 74.8197C285.1 74.8197 283.1 73.3897 282.47 71.1897Z" fill="black"/>
<path d="M286.37 62.5704C283.65 62.1104 281.82 59.5304 282.28 56.8004C282.74 54.0804 285.32 52.2504 288.05 52.7104C290.77 53.1704 292.6 55.7604 292.14 58.4804C291.72 60.9204 289.61 62.6404 287.21 62.6404C286.94 62.6404 286.65 62.6204 286.37 62.5704Z" fill="black"/>
<path d="M286.71 59.4701C284.08 58.6601 282.59 55.8601 283.41 53.2201C284.22 50.5801 287.02 49.1001 289.66 49.9101C292.3 50.7201 293.78 53.5201 292.96 56.1601C292.3 58.3101 290.32 59.6901 288.19 59.6901C287.7 59.6901 287.2 59.6201 286.71 59.4701Z" fill="black"/>
<path d="M288.56 52.2395C286.24 50.7495 285.56 47.6595 287.05 45.3295C288.54 43.0095 291.64 42.3295 293.96 43.8195C296.28 45.3095 296.96 48.4095 295.47 50.7295C294.51 52.2195 292.9 53.0295 291.25 53.0295C290.33 53.0295 289.4 52.7795 288.56 52.2395Z" fill="black"/>
<path d="M289.28 46.5101C288.14 44.0001 289.25 41.0401 291.76 39.8901C294.27 38.7501 297.24 39.8501 298.38 42.3701C299.53 44.8801 298.42 47.8401 295.91 48.9901C295.23 49.3001 294.53 49.4401 293.84 49.4401C291.94 49.4401 290.12 48.3601 289.28 46.5101Z" fill="black"/>
<path d="M296.38 49.3504C293.63 49.0804 291.63 46.6304 291.9 43.8804C292.17 41.1304 294.62 39.1304 297.37 39.4004C300.11 39.6704 302.12 42.1204 301.85 44.8704C301.59 47.4504 299.42 49.3704 296.88 49.3704C296.71 49.3704 296.55 49.3704 296.38 49.3504Z" fill="black"/>
<path d="M292.56 51.9601C290.16 50.6001 289.32 47.5401 290.68 45.1401C292.05 42.7401 295.1 41.9001 297.5 43.2701C299.9 44.6301 300.74 47.6901 299.38 50.0901C298.46 51.7101 296.77 52.6201 295.03 52.6201C294.19 52.6201 293.34 52.4101 292.56 51.9601Z" fill="black"/>
<path d="M291.87 54.6298C289.36 53.4698 288.28 50.4998 289.44 47.9898C290.6 45.4898 293.58 44.3998 296.08 45.5598C298.58 46.7298 299.67 49.6998 298.51 52.2098C297.66 54.0298 295.86 55.0998 293.97 55.0998C293.27 55.0998 292.55 54.9498 291.87 54.6298Z" fill="black"/>
<path d="M287.64 55.7604C287.59 53.0004 289.78 50.7104 292.54 50.6604C295.3 50.6004 297.59 52.8004 297.64 55.5604C297.7 58.3204 295.5 60.6004 292.74 60.6604H292.64C289.92 60.6604 287.7 58.4804 287.64 55.7604Z" fill="black"/>
<path d="M287.73 60.0497C287.67 57.2797 289.87 54.9997 292.63 54.9397C295.39 54.8797 297.67 57.0697 297.73 59.8297C297.79 62.5897 295.6 64.8797 292.84 64.9397H292.73C290.02 64.9397 287.79 62.7697 287.73 60.0497Z" fill="black"/>
<path d="M298.22 77.4503C295.85 76.0303 295.08 72.9503 296.5 70.5903C297.92 68.2203 300.99 67.4503 303.36 68.8703C305.73 70.2903 306.5 73.3603 305.08 75.7303C304.14 77.2903 302.48 78.1603 300.78 78.1603C299.91 78.1603 299.02 77.9303 298.22 77.4503Z" fill="black"/>
<path d="M300.74 87.3304H300.71C297.95 87.3204 295.72 85.0704 295.73 82.3104L295.78 73.1304C295.79 70.3704 298.01 68.1604 300.8 68.1504C303.56 68.1604 305.79 70.4104 305.78 73.1704L305.73 82.3504C305.72 85.1004 303.48 87.3304 300.73 87.3304H300.74Z" fill="black"/>
<path d="M298.34 74.1299C295.57 74.1299 293.34 71.8799 293.34 69.1199C293.34 66.3599 295.58 64.1199 298.34 64.1299C301.11 64.1299 303.34 66.3699 303.34 69.1299C303.34 71.8899 301.1 74.1299 298.34 74.1299Z" fill="black"/>
<path d="M296.06 73.8605C295.65 73.7005 295.29 73.5405 294.86 73.2805C294.42 72.9505 293.91 72.8105 292.98 71.4305C291.55 69.0705 292.3 65.9905 294.66 64.5605C296.42 63.4905 298.57 63.6405 300.15 64.7605C302.31 65.9105 303.34 68.5105 302.48 70.8805C301.74 72.9005 299.82 74.1605 297.78 74.1605C297.21 74.1605 296.63 74.0605 296.06 73.8605Z" fill="black"/>
<path d="M289.58 64.65C288.99 61.96 290.7 59.29 293.39 58.7C296.09 58.1 298.76 59.81 299.35 62.51C299.94 65.2 298.24 67.87 295.54 68.46C295.18 68.54 294.82 68.58 294.46 68.58C292.17 68.58 290.1 66.99 289.58 64.65Z" fill="black"/>
<path d="M289.36 58.66C289.29 55.9 291.47 53.6 294.23 53.53C296.99 53.46 299.29 55.64 299.36 58.4C299.43 61.16 297.25 63.45 294.49 63.53H294.36C291.66 63.53 289.44 61.38 289.36 58.66Z" fill="black"/>
<path d="M294.19 57.2404C291.43 57.1404 289.27 54.8304 289.37 52.0704C289.47 49.3104 291.79 47.1504 294.55 47.2504C297.31 47.3504 299.46 49.6704 299.36 52.4304C299.27 55.1304 297.05 57.2504 294.37 57.2504C294.31 57.2504 294.25 57.2504 294.19 57.2404Z" fill="black"/>
<path d="M292.94 56.0501C290.35 55.0801 289.04 52.2001 290.01 49.6101L290.34 48.7401C291.31 46.1501 294.2 44.8401 296.78 45.8101C299.37 46.7801 300.68 49.6601 299.71 52.2501L299.38 53.1301C298.62 55.1301 296.72 56.3701 294.7 56.3701C294.11 56.3701 293.52 56.2701 292.94 56.0501Z" fill="black"/>
<path d="M291.93 51.2405C290.37 48.9605 290.96 45.8505 293.24 44.2905C295.53 42.7405 298.64 43.3305 300.19 45.6105C301.74 47.8905 301.16 51.0005 298.87 52.5605C298.01 53.1405 297.03 53.4305 296.06 53.4305C294.46 53.4305 292.89 52.6605 291.93 51.2405Z" fill="black"/>
<path d="M295.74 52.8696C293.39 51.4296 292.65 48.3496 294.09 45.9996C295.54 43.6396 298.62 42.8996 300.97 44.3496C303.32 45.7896 304.06 48.8696 302.62 51.2196C301.68 52.7596 300.03 53.6096 298.35 53.6096C297.46 53.6096 296.56 53.3696 295.74 52.8696Z" fill="black"/>
<path d="M54.79 148.77C52.18 147.87 50.79 145.03 51.69 142.42C52.59 139.81 55.44 138.42 58.05 139.32C60.66 140.22 62.05 143.07 61.14 145.68C60.43 147.75 58.49 149.05 56.42 149.05C55.88 149.05 55.33 148.96 54.79 148.77Z" fill="black"/>
<path d="M40.1401 161.92C38.8201 159.5 39.7101 156.46 42.1301 155.14C44.5601 153.82 47.5901 154.71 48.9201 157.13C50.2401 159.56 49.3501 162.6 46.9201 163.92C46.1601 164.33 45.3401 164.53 44.5301 164.53C42.7601 164.53 41.0501 163.59 40.1401 161.92Z" fill="black"/>
<path d="M23.1702 166.46C20.4902 165.82 18.8302 163.12 19.4702 160.44C20.1202 157.75 22.8102 156.09 25.5002 156.73C28.1802 157.38 29.8402 160.07 29.2002 162.76C28.6502 165.05 26.6002 166.6 24.3402 166.6C23.9602 166.6 23.5602 166.55 23.1702 166.46Z" fill="black"/>
<path d="M6.58022 154.96C5.03022 152.68 5.63022 149.57 7.92022 148.02C10.2102 146.47 13.3102 147.07 14.8602 149.36C16.4102 151.65 15.8102 154.76 13.5202 156.3C12.6602 156.88 11.6902 157.16 10.7202 157.16C9.12022 157.16 7.54022 156.39 6.58022 154.96Z" fill="black"/>
<path d="M4.4898 151.6C3.1198 149.2 3.9598 146.15 6.3598 144.78C8.7598 143.42 11.8198 144.26 13.1798 146.66C14.5398 149.06 13.6998 152.11 11.2998 153.48C10.5198 153.92 9.6698 154.13 8.8398 154.13C7.0998 154.13 5.4098 153.22 4.4898 151.6Z" fill="black"/>
<path d="M0.690173 140.25C0.100173 137.55 1.82017 134.89 4.52017 134.3C7.22017 133.72 9.88017 135.44 10.4602 138.14C11.0402 140.84 9.33017 143.5 6.63017 144.08C6.27017 144.16 5.92017 144.19 5.57017 144.19C3.26017 144.19 1.19017 142.59 0.690173 140.25Z" fill="black"/>
<path d="M0.0597578 107.32C-0.340242 104.59 1.54976 102.05 4.27976 101.65C7.00976 101.25 9.54976 103.14 9.94976 105.88C10.3498 108.61 8.45976 111.15 5.72976 111.55C5.47976 111.58 5.23976 111.6 4.99976 111.6C2.55976 111.6 0.419758 109.81 0.0597578 107.32Z" fill="black"/>
<path d="M0 106.2V105.79C0 103.03 2.24 100.79 5.01 100.79C7.77 100.79 10.01 103.03 10.01 105.79V106.2C10.01 108.96 7.77 111.19 5.01 111.19C2.24 111.19 0 108.96 0 106.2Z" fill="black"/>
<path d="M1.08004 106.73C-0.629963 104.56 -0.259964 101.42 1.91004 99.7104C4.08004 98.0004 7.22004 98.3704 8.93004 100.54C10.64 102.7 10.27 105.85 8.10004 107.56C7.18004 108.28 6.09004 108.63 5.01004 108.63C3.53004 108.63 2.07004 107.98 1.08004 106.73Z" fill="black"/>
<path d="M0.00976562 87.46C0.00976562 84.7 2.23977 82.46 4.99977 82.46C7.76977 82.46 10.0098 84.7 10.0098 87.46C10.0098 90.22 7.76977 92.46 4.99977 92.46C2.23977 92.46 0.00976562 90.22 0.00976562 87.46Z" fill="black"/>
<path d="M5.21002 79.53C2.45002 79.46 0.270019 77.16 0.340019 74.4C0.410019 71.64 2.70002 69.46 5.46002 69.53C8.23002 69.6 10.41 71.9 10.34 74.66C10.26 77.37 8.04002 79.53 5.34002 79.53H5.21002Z" fill="black"/>
<path d="M5.99989 69.6802C3.38989 68.7702 2.00989 65.9202 2.90989 63.3202C3.80989 60.7102 6.65989 59.3202 9.26989 60.2302C11.8799 61.1302 13.2599 63.9802 12.3599 66.5902C11.6399 68.6602 9.70989 69.9502 7.62989 69.9502C7.08989 69.9502 6.53989 69.8602 5.99989 69.6802Z" fill="black"/>
<path d="M7.90977 63.2797C5.62977 61.7397 5.02977 58.6297 6.57977 56.3397C8.12977 54.0497 11.2398 53.4597 13.5298 55.0097C15.8098 56.5597 16.4098 59.6697 14.8598 61.9497C13.8898 63.3797 12.3198 64.1497 10.7198 64.1497C9.74977 64.1497 8.76977 63.8697 7.90977 63.2797Z" fill="black"/>
<path d="M19.4702 50.8701C18.8302 48.1801 20.4902 45.4901 23.1802 44.8501C25.8602 44.2101 28.5602 45.8701 29.2002 48.5501C29.8402 51.2401 28.1802 53.9401 25.4902 54.5801C25.1102 54.6701 24.7202 54.7101 24.3302 54.7101C22.0702 54.7101 20.0202 53.1701 19.4702 50.8701Z" fill="black"/>
<path d="M42.1301 56.1704C39.7101 54.8504 38.8101 51.8104 40.1401 49.3904C41.4601 46.9704 44.5001 46.0704 46.9201 47.4004C49.3501 48.7204 50.2401 51.7604 48.9201 54.1804C48.0101 55.8404 46.2901 56.7904 44.5201 56.7904C43.7101 56.7904 42.8901 56.5904 42.1301 56.1704Z" fill="black"/>
<path d="M51.69 68.8899C50.79 66.2799 52.18 63.4299 54.79 62.5299C57.4 61.6299 60.25 63.0199 61.15 65.6299C62.04 68.2399 60.66 71.0899 58.05 71.9899C57.51 72.1799 56.96 72.2599 56.42 72.2599C54.34 72.2599 52.4 70.9599 51.69 68.8899Z" fill="black"/>
<path d="M58.7101 90.2999C55.9501 90.2799 53.7301 88.0299 53.7501 85.2699C53.7701 82.4999 56.0201 80.2799 58.7901 80.2999C61.5501 80.3199 63.7701 82.5699 63.7501 85.3399C63.7301 88.0899 61.5001 90.2999 58.7501 90.2999H58.7101Z" fill="black"/>
<path d="M58.6899 95.8898C55.9199 95.8698 53.6999 93.6198 53.7199 90.8598C53.7299 88.0998 55.9899 85.8698 58.7499 85.8898C61.5099 85.8898 63.7299 88.1498 63.7199 90.9198C63.6999 93.6698 61.4599 95.8898 58.7199 95.8898H58.6899Z" fill="black"/>
<path d="M50.0301 90.9701C50.0001 88.2001 52.2201 85.9501 54.9901 85.9201C57.7501 85.9001 60.0101 88.1101 60.0301 90.8801C60.0501 93.6401 57.8401 95.9001 55.0801 95.9201H55.0301C52.2901 95.9201 50.0601 93.7101 50.0301 90.9701Z" fill="black"/>
<path d="M39.2998 83.3203C39.2998 80.5603 41.5398 78.3203 44.2998 78.3203C47.0598 78.3203 49.2998 80.5603 49.2998 83.3203C49.2998 86.0803 47.0598 88.3203 44.2998 88.3203C41.5398 88.3203 39.2998 86.0803 39.2998 83.3203Z" fill="black"/>
<path d="M11.3399 83.3999C11.3299 80.6399 13.5699 78.3899 16.3299 78.3799C19.0899 78.3799 21.3299 80.6099 21.3399 83.3699C21.3499 86.1299 19.1099 88.3799 16.3499 88.3799H16.3399C13.5799 88.3799 11.3499 86.1499 11.3399 83.3999Z" fill="black"/>
<path d="M8.01987 91.8404C5.41987 90.9404 4.02987 88.0904 4.92987 85.4804C5.82987 82.8704 8.67987 81.4904 11.2899 82.3904C13.8999 83.2904 15.2899 86.1404 14.3799 88.7504C13.6699 90.8204 11.7299 92.1204 9.65987 92.1204C9.11987 92.1204 8.56987 92.0304 8.01987 91.8404Z" fill="black"/>
<path d="M4.38995 90.3296C4.35995 87.5696 6.56995 85.3096 9.32995 85.2796C12.1 85.2496 14.36 87.4596 14.39 90.2296C14.42 92.9896 12.2 95.2496 9.43995 95.2796H9.38995C6.64995 95.2796 4.41995 93.0796 4.38995 90.3296Z" fill="black"/>
<path d="M4.45977 96.1396C4.42977 93.3796 6.63977 91.1096 9.39977 91.0696C12.1598 91.0396 14.4298 93.2496 14.4598 96.0096C14.4998 98.7696 12.2898 101.04 9.52977 101.07H9.45977C6.72977 101.07 4.49977 98.8796 4.45977 96.1396Z" fill="black"/>
<path d="M9.40019 118.03C6.64019 118.03 4.40019 115.78 4.41019 113.02C4.42019 110.26 6.66019 108.03 9.43019 108.03C12.1902 108.04 14.4202 110.29 14.4102 113.05C14.4002 115.8 12.1702 118.03 9.41019 118.03H9.40019Z" fill="black"/>
<path d="M9.30017 122.18C6.54017 122.15 4.33017 119.88 4.36017 117.12C4.39017 114.36 6.66017 112.15 9.42017 112.18C12.1802 112.21 14.3902 114.48 14.3602 117.24C14.3302 119.98 12.1002 122.18 9.36016 122.18H9.30017Z" fill="black"/>
<path d="M6.36988 128.66C4.72988 126.44 5.19988 123.31 7.41988 121.67C9.63988 120.03 12.7699 120.5 14.4099 122.72C16.0499 124.94 15.5799 128.07 13.3599 129.71C12.4599 130.37 11.4199 130.69 10.3899 130.69C8.85988 130.69 7.34988 129.99 6.36988 128.66Z" fill="black"/>
<path d="M16.3201 132.92C13.5501 132.92 11.3201 130.67 11.3301 127.91C11.3401 125.15 13.5801 122.92 16.3401 122.92C19.1001 122.93 21.3401 125.18 21.3301 127.94C21.3201 130.7 19.0801 132.92 16.3301 132.92H16.3201Z" fill="black"/>
<path d="M44.2798 133C41.5198 132.99 39.2898 130.75 39.2998 127.99C39.2998 125.22 41.5498 122.99 44.3098 123C47.0698 123 49.2998 125.25 49.2998 128.01C49.2898 130.77 47.0498 133 44.2998 133H44.2798Z" fill="black"/>
<path d="M54.6602 125.38C51.9102 125.17 49.8402 122.78 50.0402 120.02C50.2502 117.27 52.6402 115.2 55.4002 115.4C58.1502 115.61 60.2202 118 60.0202 120.76C59.8202 123.39 57.6302 125.39 55.0402 125.39C54.9102 125.39 54.7902 125.39 54.6602 125.38Z" fill="black"/>
<path d="M58.67 125.42C55.91 125.4 53.69 123.14 53.72 120.38C53.74 117.61 56 115.4 58.76 115.42C61.52 115.45 63.74 117.71 63.72 120.47C63.69 123.22 61.46 125.42 58.72 125.42H58.67Z" fill="black"/>
<path d="M53.7501 126.04C53.7301 123.28 55.9601 121.03 58.7201 121.01C61.4801 120.99 63.7301 123.22 63.7501 125.98C63.7701 128.74 61.5401 130.99 58.7801 131.01H58.7501C56.0001 131.01 53.7701 128.79 53.7501 126.04Z" fill="black"/>
<path d="M0 103.63C0 100.87 2.24 98.6299 5 98.6299C7.76 98.6299 10 100.87 10 103.63C10 106.39 7.76 108.63 5 108.63C2.24 108.63 0 106.39 0 103.63Z" fill="black"/>
<path d="M1.91004 109.72C-0.259964 108.01 -0.629963 104.87 1.08004 102.7C2.78004 100.53 5.93004 100.15 8.10004 101.86C10.27 103.57 10.64 106.71 8.93004 108.88C7.94004 110.14 6.48004 110.79 5.00004 110.79C3.92004 110.79 2.83004 110.44 1.91004 109.72Z" fill="black"/>
<path d="M5.00003 110.79H4.98003C2.22003 110.78 -0.0099665 108.53 3.35012e-05 105.77V103.61C0.0200335 100.86 2.26003 98.6299 5.01003 98.6299H5.03003C7.79003 98.6399 10.02 100.89 10.01 103.65V105.81C9.99003 108.56 7.75003 110.79 5.00003 110.79Z" fill="black"/>
<path d="M116.2 162.49C113.44 162.47 111.22 160.22 111.24 157.46C111.26 154.69 113.51 152.47 116.27 152.49C119.03 152.51 121.26 154.76 121.24 157.52C121.22 160.27 118.98 162.49 116.24 162.49H116.2Z" fill="black"/>
<path d="M111.35 162.05C111.28 159.29 113.47 157 116.23 156.93C118.99 156.86 121.28 159.05 121.34 161.81C121.41 164.57 119.22 166.86 116.46 166.93H116.34C113.64 166.93 111.41 164.77 111.35 162.05Z" fill="black"/>
<path d="M111.67 166.98C108.94 166.59 107.04 164.06 107.44 161.32C107.83 158.59 110.36 156.69 113.1 157.09C115.83 157.48 117.73 160.02 117.33 162.75C116.97 165.24 114.84 167.04 112.39 167.04C112.15 167.04 111.91 167.02 111.67 166.98Z" fill="black"/>
<path d="M107.3 149.21C107.28 146.45 109.5 144.2 112.27 144.18C115.03 144.16 117.28 146.38 117.3 149.15C117.32 151.91 115.09 154.16 112.33 154.18H112.3C109.55 154.18 107.32 151.96 107.3 149.21Z" fill="black"/>
<path d="M107.24 136C107.23 133.24 109.46 130.99 112.22 130.98C114.98 130.98 117.23 133.2 117.24 135.96C117.25 138.72 115.02 140.97 112.26 140.98H112.24C109.49 140.98 107.25 138.75 107.24 136Z" fill="black"/>
<path d="M107.19 111.7C107.18 108.94 109.41 106.69 112.18 106.69C114.94 106.69 117.18 108.91 117.19 111.67C117.19 114.43 114.96 116.68 112.2 116.68H112.19C109.43 116.68 107.19 114.45 107.19 111.7Z" fill="black"/>
<path d="M104.37 106.87C101.86 105.72 100.76 102.75 101.92 100.24C103.07 97.7302 106.04 96.6302 108.55 97.7802C111.06 98.9402 112.16 101.91 111 104.42C110.16 106.25 108.35 107.33 106.46 107.33C105.76 107.33 105.05 107.18 104.37 106.87Z" fill="black"/>
<path d="M91.9302 100.63C91.9302 97.8699 94.1702 95.6299 96.9302 95.6299C99.6902 95.6299 101.93 97.8699 101.93 100.63C101.93 103.39 99.6902 105.63 96.9302 105.63C94.1702 105.63 91.9302 103.39 91.9302 100.63Z" fill="black"/>
<path d="M76.5498 100.65C76.5498 97.8904 78.7798 95.6504 81.5398 95.6504C84.2998 95.6504 86.5498 97.8804 86.5498 100.64C86.5498 103.4 84.3198 105.65 81.5498 105.65C78.7898 105.65 76.5498 103.41 76.5498 100.65Z" fill="black"/>
<path d="M68.9302 102.95C68.2702 100.27 69.9102 97.5599 72.5902 96.8999C75.2702 96.2399 77.9802 97.8799 78.6402 100.56C79.3002 103.24 77.6602 105.95 74.9802 106.61C74.5802 106.71 74.1702 106.76 73.7802 106.76C71.5302 106.76 69.4902 105.23 68.9302 102.95Z" fill="black"/>
<path d="M65.9399 112.71C63.3099 111.9 61.8199 109.1 62.6399 106.46C63.4499 103.82 66.2499 102.34 68.8899 103.15C71.5299 103.97 73.0099 106.76 72.1899 109.4C71.5299 111.55 69.5499 112.93 67.4199 112.93C66.9299 112.93 66.4299 112.86 65.9399 112.71Z" fill="black"/>
<path d="M61.5698 112.04C61.5698 109.28 63.8098 107.04 66.5698 107.04C69.3298 107.04 71.5698 109.28 71.5698 112.04C71.5698 114.8 69.3298 117.04 66.5698 117.04C63.8098 117.04 61.5698 114.8 61.5698 112.04Z" fill="black"/>
<path d="M61.5698 131.19C61.5698 128.43 63.8098 126.19 66.5698 126.19C69.3298 126.19 71.5698 128.43 71.5698 131.19C71.5698 133.95 69.3398 136.19 66.5698 136.19C63.8098 136.19 61.5698 133.95 61.5698 131.19Z" fill="black"/>
<path d="M61.5898 153.16C61.5898 150.4 63.8198 148.16 66.5898 148.16C69.3498 148.15 71.5898 150.39 71.5898 153.15C71.5898 155.91 69.3498 158.15 66.5898 158.16C63.8298 158.16 61.5898 155.92 61.5898 153.16Z" fill="black"/>
<path d="M66.4198 167.24C63.6598 167.2 61.4498 164.94 61.4798 162.18C61.5098 159.42 63.7798 157.21 66.5398 157.24C69.2998 157.27 71.5098 159.54 71.4798 162.3C71.4498 165.04 69.2198 167.24 66.4798 167.24H66.4198Z" fill="black"/>
<path d="M62.0001 167.16C59.2501 166.86 57.2701 164.39 57.5701 161.65C57.8601 158.9 60.3301 156.92 63.0801 157.22C65.8201 157.51 67.8101 159.98 67.5101 162.73C67.2301 165.29 65.0601 167.19 62.5401 167.19C62.3601 167.19 62.1801 167.19 62.0001 167.16Z" fill="black"/>
<path d="M57.43 150.01C57.4 147.25 59.62 144.99 62.38 144.97C65.14 144.94 67.4 147.16 67.43 149.92C67.45 152.68 65.23 154.94 62.47 154.97H62.42C59.68 154.97 57.45 152.76 57.43 150.01Z" fill="black"/>
<path d="M57.3301 113.61C57.3201 110.85 59.5501 108.6 62.3101 108.6C65.0801 108.59 67.3201 110.82 67.3301 113.58C67.3401 116.35 65.1001 118.59 62.3401 118.6H62.3301C59.5701 118.6 57.3401 116.37 57.3301 113.61Z" fill="black"/>
<path d="M62.1502 79.9904C59.3902 79.9104 57.2202 77.6104 57.2902 74.8504C57.3702 72.0904 59.6702 69.9104 62.4302 69.9904C65.1902 70.0704 67.3702 72.3704 67.2902 75.1304C67.2102 77.8404 64.9902 79.9904 62.2902 79.9904H62.1502Z" fill="black"/>
<path d="M57.28 60.9196C57.22 58.1596 59.41 55.8796 62.17 55.8196C64.93 55.7596 67.22 57.9496 67.28 60.7096C67.34 63.4696 65.15 65.7596 62.39 65.8196H62.28C59.57 65.8196 57.34 63.6496 57.28 60.9196Z" fill="black"/>
<path d="M57.22 58.3895C57.16 55.6295 59.35 53.3395 62.11 53.2795C64.87 53.2195 67.16 55.4095 67.22 58.1695C67.28 60.9295 65.09 63.2195 62.33 63.2795H62.22C59.51 63.2795 57.28 61.1195 57.22 58.3895Z" fill="black"/>
<path d="M57.2202 31.6396C57.2202 28.8796 59.4502 26.6396 62.2202 26.6396C64.9802 26.6396 67.2202 28.8796 67.2202 31.6396C67.2202 34.3996 64.9802 36.6396 62.2202 36.6396C59.4602 36.6396 57.2202 34.4096 57.2202 31.6396Z" fill="black"/>
<path d="M61.5298 5C61.5298 2.24 63.7698 0 66.5298 0C69.2898 0 71.5298 2.24 71.5298 5C71.5298 7.76 69.2898 10 66.5298 10C63.7698 10 61.5298 7.76 61.5298 5Z" fill="black"/>
<path d="M66.49 33.6904C63.73 33.6904 61.5 31.4404 61.5 28.6804C61.5 25.9204 63.74 23.6904 66.51 23.6904C69.27 23.6904 71.5 25.9304 71.5 28.7004C71.5 31.4504 69.26 33.6904 66.5 33.6904H66.49Z" fill="black"/>
<path d="M66.31 67.0599C63.55 67.0299 61.34 64.7699 61.36 62.0099C61.4 59.2499 63.66 57.0299 66.42 57.0599C69.18 57.0899 71.39 59.3599 71.37 62.1199C71.33 64.8599 69.1 67.0599 66.37 67.0599H66.31Z" fill="black"/>
<path d="M63.3001 68.7204C61.3701 66.7504 61.4001 63.5804 63.3801 61.6504C65.3501 59.7204 68.5101 59.7504 70.4501 61.7204C72.3801 63.6904 72.3501 66.8604 70.3801 68.7904C69.4001 69.7504 68.1401 70.2204 66.8801 70.2204C65.5801 70.2204 64.2801 69.7204 63.3001 68.7204Z" fill="black"/>
<path d="M66.17 66.43C63.79 65.04 62.98 61.98 64.36 59.6C65.75 57.21 68.81 56.4 71.2 57.79C73.59 59.17 74.4 62.23 73.01 64.62C72.08 66.22 70.4 67.11 68.68 67.11C67.83 67.11 66.96 66.89 66.17 66.43Z" fill="black"/>
<path d="M75.2601 53.4403C73.9501 51.0203 74.8501 47.9803 77.2801 46.6703C79.7101 45.3503 82.7501 46.2603 84.0601 48.6903C85.3701 51.1203 84.4701 54.1503 82.0401 55.4703C81.2801 55.8703 80.4701 56.0703 79.6701 56.0703C77.8901 56.0703 76.1701 55.1203 75.2601 53.4403Z" fill="black"/>
<path d="M95.52 53.7797C92.78 53.4597 90.81 50.9897 91.12 48.2397C91.43 45.4997 93.91 43.5297 96.65 43.8397C99.39 44.1497 101.37 46.6297 101.05 49.3697C100.76 51.9197 98.6 53.8097 96.09 53.8097C95.9 53.8097 95.71 53.7997 95.52 53.7797Z" fill="black"/>
<path d="M98.9399 55.0102C96.4499 53.8202 95.3799 50.8402 96.5599 48.3502C97.7499 45.8502 100.73 44.7902 103.22 45.9702C105.72 47.1502 106.78 50.1302 105.6 52.6302C104.75 54.4302 102.95 55.4902 101.08 55.4902C100.36 55.4902 99.6299 55.3302 98.9399 55.0102Z" fill="black"/>
<path d="M106.23 61.5198C104.8 59.1498 105.57 56.0798 107.93 54.6498C110.29 53.2298 113.37 53.9897 114.79 56.3497C116.22 58.7197 115.46 61.7898 113.09 63.2198C112.29 63.6998 111.4 63.9298 110.52 63.9298C108.82 63.9298 107.17 63.0698 106.23 61.5198Z" fill="black"/>
<path d="M108.1 64.6102C106.67 62.2502 107.43 59.1702 109.8 57.7502C112.16 56.3202 115.23 57.0802 116.66 59.4502C118.09 61.8102 117.32 64.8902 114.96 66.3102C114.15 66.8002 113.26 67.0302 112.38 67.0302C110.69 67.0302 109.03 66.1702 108.1 64.6102Z" fill="black"/>
<path d="M108.71 66.2298C107.64 63.6898 108.83 60.7498 111.37 59.6798C113.92 58.5998 116.85 59.7898 117.92 62.3398C119 64.8798 117.81 67.8098 115.26 68.8898C114.63 69.1598 113.97 69.2898 113.32 69.2898C111.37 69.2898 109.52 68.1398 108.71 66.2298Z" fill="black"/>
<path d="M111.16 76.6799C111.13 73.9199 113.35 71.6599 116.11 71.6399C118.88 71.6099 121.13 73.8299 121.16 76.5899C121.18 79.3499 118.97 81.6099 116.2 81.6299H116.16C113.42 81.6299 111.19 79.4299 111.16 76.6799Z" fill="black"/>
<path d="M111.35 96.1401C111.32 93.3801 113.54 91.1201 116.3 91.0901C119.06 91.0601 121.32 93.2801 121.34 96.0401C121.37 98.8001 119.15 101.06 116.39 101.09H116.34C113.61 101.09 111.37 98.8801 111.35 96.1401Z" fill="black"/>
<path d="M111.38 137.06C111.38 134.3 113.61 132.06 116.37 132.06C119.14 132.05 121.38 134.29 121.38 137.05C121.38 139.81 119.14 142.05 116.38 142.06C113.62 142.06 111.38 139.82 111.38 137.06Z" fill="black"/>
<path d="M175.54 85.8203C172.77 85.8203 170.54 83.5803 170.54 80.8203C170.54 78.0603 172.77 75.8203 175.54 75.8203C178.3 75.8203 180.54 78.0603 180.54 80.8203C180.53 83.5803 178.3 85.8203 175.54 85.8203Z" fill="black"/>
<path d="M168.77 70.9898C168.15 68.2898 169.84 65.6098 172.53 64.9998C175.22 64.3798 177.9 66.0598 178.52 68.7598C179.13 71.4498 177.45 74.1298 174.76 74.7398C174.38 74.8298 174.01 74.8698 173.64 74.8698C171.36 74.8698 169.3 73.2998 168.77 70.9898Z" fill="black"/>
<path d="M160.74 57.5601C158.6 55.8201 158.26 52.6801 160 50.5301C161.74 48.3801 164.88 48.0501 167.03 49.7901C169.18 51.5201 169.51 54.6701 167.77 56.8201C166.79 58.0401 165.34 58.6701 163.88 58.6701C162.78 58.6701 161.67 58.3101 160.74 57.5601Z" fill="black"/>
<path d="M157.25 55.3402C154.68 54.3402 153.4 51.4402 154.41 48.8702C155.41 46.2902 158.3 45.0202 160.88 46.0202C163.45 47.0202 164.73 49.9202 163.73 52.4902C162.96 54.4702 161.07 55.6802 159.06 55.6802C158.46 55.6802 157.85 55.5702 157.25 55.3402Z" fill="black"/>
<path d="M139.83 50.5203C139.14 47.8503 140.76 45.1203 143.43 44.4403C146.11 43.7503 148.83 45.3703 149.52 48.0403C150.2 50.7203 148.59 53.4403 145.91 54.1303C145.5 54.2303 145.08 54.2803 144.67 54.2803C142.44 54.2803 140.41 52.7803 139.83 50.5203Z" fill="black"/>
<path d="M133.47 54.7502C131.93 52.4602 132.54 49.3602 134.83 47.8102C137.12 46.2702 140.23 46.8802 141.77 49.1702C143.31 51.4602 142.7 54.5702 140.41 56.1102C139.56 56.6902 138.59 56.9602 137.63 56.9602C136.02 56.9602 134.44 56.1902 133.47 54.7502Z" fill="black"/>
<path d="M131.33 56.1797C129.79 53.8797 130.41 50.7797 132.7 49.2397C135 47.6997 138.1 48.3197 139.64 50.6097C141.18 52.8997 140.56 56.0097 138.27 57.5497C137.41 58.1197 136.45 58.3897 135.49 58.3897C133.88 58.3897 132.3 57.6197 131.33 56.1797Z" fill="black"/>
<path d="M130.27 58.5795C128.21 56.7395 128.03 53.5795 129.87 51.5195C131.71 49.4595 134.87 49.2895 136.93 51.1295C138.99 52.9595 139.17 56.1195 137.33 58.1795C136.34 59.2895 134.98 59.8495 133.6 59.8495C132.42 59.8495 131.23 59.4395 130.27 58.5795Z" fill="black"/>
<path d="M127.17 62.0301C125.11 60.1901 124.94 57.0301 126.78 54.9701C128.63 52.9101 131.79 52.7401 133.84 54.5901C135.9 56.4301 136.07 59.5901 134.23 61.6501C133.24 62.7501 131.88 63.3101 130.5 63.3101C129.32 63.3101 128.12 62.8901 127.17 62.0301Z" fill="black"/>
<path d="M126 65.2702C123.69 63.7602 123.03 60.6702 124.53 58.3502C126.03 56.0402 129.13 55.3802 131.45 56.8802C133.76 58.3802 134.42 61.4802 132.92 63.7902C131.96 65.2702 130.36 66.0702 128.72 66.0702C127.79 66.0702 126.85 65.8102 126 65.2702Z" fill="black"/>
<path d="M123.8 72.5496C121.2 71.6196 119.84 68.7596 120.77 66.1596C121.69 63.5596 124.55 62.1996 127.15 63.1296C129.76 64.0496 131.11 66.9096 130.19 69.5096C129.46 71.5596 127.53 72.8396 125.48 72.8396C124.92 72.8396 124.35 72.7396 123.8 72.5496Z" fill="black"/>
<path d="M117.65 87.5698C117.6 84.8098 119.8 82.5398 122.56 82.4898C125.32 82.4498 127.6 84.6498 127.64 87.4098C127.69 90.1698 125.49 92.4398 122.73 92.4898H122.64C119.92 92.4898 117.69 90.3098 117.65 87.5698Z" fill="black"/>
<path d="M117.7 90.98C117.66 88.22 119.86 85.95 122.62 85.9C125.38 85.86 127.65 88.0599 127.7 90.8199C127.74 93.5799 125.54 95.86 122.78 95.9H122.7C119.98 95.9 117.75 93.72 117.7 90.98Z" fill="black"/>
<path d="M121.64 90.91C121.63 88.14 123.85 85.89 126.61 85.88C129.37 85.86 131.63 88.09 131.64 90.85C131.66 93.61 129.43 95.86 126.67 95.88H126.64C123.89 95.88 121.65 93.66 121.64 90.91Z" fill="black"/>
<path d="M146.48 88.5003C143.72 88.4703 141.5 86.2103 141.52 83.4503C141.55 80.6903 143.81 78.4703 146.57 78.5003C149.33 78.5203 151.55 80.7803 151.52 83.5403C151.5 86.2903 149.26 88.5003 146.52 88.5003H146.48Z" fill="black"/>
<path d="M160.61 88.6302C157.85 88.6002 155.64 86.3402 155.66 83.5802C155.69 80.8202 157.95 78.6002 160.71 78.6302C163.47 78.6502 165.69 80.9102 165.66 83.6702C165.64 86.4202 163.4 88.6302 160.66 88.6302H160.61Z" fill="black"/>
<path d="M164.01 89.3202C161.29 88.8902 159.43 86.3202 159.87 83.6002C160.3 80.8702 162.87 79.0102 165.59 79.4502C168.32 79.8802 170.18 82.4502 169.74 85.1702C169.35 87.6302 167.22 89.3902 164.81 89.3902C164.55 89.3902 164.28 89.3602 164.01 89.3202Z" fill="black"/>
<path d="M166.73 93.0297C164.88 90.9797 165.05 87.8197 167.1 85.9697C169.15 84.1197 172.31 84.2797 174.16 86.3297C176.01 88.3797 175.84 91.5497 173.79 93.3997C172.84 94.2597 171.64 94.6797 170.45 94.6797C169.08 94.6797 167.72 94.1297 166.73 93.0297Z" fill="black"/>
<path d="M164.72 91.1102C164.22 88.6402 165.63 86.2402 167.92 85.4202C170.32 84.2902 173.2 85.2202 174.46 87.5802C175.76 90.0202 174.84 93.0502 172.41 94.3502C171.97 94.5502 171.74 94.7502 170.61 95.0202C170.27 95.0902 169.94 95.1202 169.61 95.1202C167.28 95.1202 165.19 93.4802 164.72 91.1102Z" fill="black"/>
<path d="M161.56 91.8104C161 89.1004 162.73 86.4504 165.43 85.8904C168.13 85.3204 170.78 87.0604 171.35 89.7604C171.91 92.4604 170.18 95.1104 167.48 95.6804C167.13 95.7504 166.79 95.7804 166.45 95.7804C164.13 95.7804 162.05 94.1704 161.56 91.8104Z" fill="black"/>
<path d="M146.83 94.1999C146.35 91.4799 148.18 88.8899 150.9 88.4099C153.62 87.9399 156.21 89.7599 156.68 92.4799C157.15 95.1999 155.33 97.7899 152.61 98.2699C152.32 98.3199 152.03 98.3399 151.75 98.3399C149.36 98.3399 147.25 96.6299 146.83 94.1999Z" fill="black"/>
<path d="M138.06 95.5904C137.62 92.8604 139.46 90.2904 142.19 89.8404C144.91 89.4004 147.48 91.2404 147.93 93.9704C148.38 96.6904 146.53 99.2604 143.81 99.7104C143.53 99.7604 143.26 99.7804 142.99 99.7804C140.59 99.7804 138.47 98.0404 138.06 95.5904Z" fill="black"/>
<path d="M134.05 97.9201C133.09 95.3301 134.41 92.4501 137 91.4901C139.59 90.5301 142.47 91.8501 143.43 94.4401C144.39 97.0301 143.07 99.9101 140.48 100.87C139.9 101.08 139.32 101.18 138.74 101.18C136.71 101.18 134.8 99.9401 134.05 97.9201Z" fill="black"/>
<path d="M127.66 103.51C125.85 101.42 126.07 98.2596 128.15 96.4496C130.24 94.6396 133.4 94.8596 135.21 96.9496C137.02 99.0296 136.8 102.19 134.71 104C133.77 104.82 132.6 105.23 131.44 105.23C130.04 105.23 128.65 104.64 127.66 103.51Z" fill="black"/>
<path d="M124.85 107.14C122.76 105.34 122.54 102.18 124.35 100.09C126.15 98.0097 129.31 97.7797 131.4 99.5897C133.48 101.4 133.71 104.55 131.9 106.64C130.91 107.78 129.52 108.37 128.12 108.37C126.96 108.37 125.8 107.96 124.85 107.14Z" fill="black"/>
<path d="M122.23 117.27C119.53 116.67 117.84 113.99 118.45 111.3C119.05 108.6 121.72 106.91 124.42 107.51C127.11 108.12 128.81 110.79 128.2 113.49C127.68 115.81 125.62 117.4 123.33 117.4C122.97 117.4 122.6 117.36 122.23 117.27Z" fill="black"/>
<path d="M121.14 122.14C118.45 121.53 116.75 118.86 117.35 116.16C117.96 113.47 120.63 111.78 123.33 112.38C126.02 112.98 127.72 115.66 127.11 118.35C126.59 120.68 124.53 122.26 122.24 122.26C121.88 122.26 121.51 122.22 121.14 122.14Z" fill="black"/>
<path d="M116.62 123.6C116.59 120.84 118.81 118.58 121.57 118.56C124.33 118.53 126.59 120.75 126.62 123.51C126.64 126.27 124.43 128.53 121.66 128.56H121.62C118.88 128.56 116.64 126.35 116.62 123.6Z" fill="black"/>
<path d="M116.8 139.55C116.77 136.79 118.98 134.53 121.74 134.5C124.5 134.47 126.76 136.68 126.8 139.44C126.83 142.2 124.61 144.47 121.85 144.5H121.79C119.06 144.5 116.83 142.3 116.8 139.55Z" fill="black"/>
<path d="M120.85 153.69C119.58 151.24 120.52 148.22 122.97 146.94C125.42 145.66 128.44 146.61 129.72 149.06C131 151.51 130.05 154.53 127.6 155.81C126.86 156.19 126.07 156.37 125.29 156.37C123.49 156.37 121.75 155.4 120.85 153.69Z" fill="black"/>
<path d="M137.19 166.6C134.52 165.91 132.92 163.18 133.61 160.51C134.31 157.83 137.04 156.23 139.71 156.93C142.38 157.62 143.99 160.35 143.29 163.02C142.71 165.28 140.68 166.77 138.46 166.77C138.04 166.77 137.62 166.71 137.19 166.6Z" fill="black"/>
<path d="M148.47 163.17C147.77 160.5 149.36 157.77 152.03 157.07C154.7 156.36 157.44 157.96 158.14 160.63C158.84 163.3 157.25 166.03 154.58 166.74C154.15 166.85 153.72 166.9 153.3 166.9C151.09 166.9 149.06 165.42 148.47 163.17Z" fill="black"/>
<path d="M153.87 162.59C152.48 160.2 153.28 157.14 155.67 155.75C158.05 154.36 161.12 155.16 162.51 157.55C163.9 159.93 163.09 163 160.71 164.39C159.92 164.85 159.05 165.07 158.19 165.07C156.47 165.07 154.8 164.18 153.87 162.59Z" fill="black"/>
<path d="M156.15 161.26C154.76 158.87 155.56 155.81 157.95 154.42C160.33 153.03 163.4 153.83 164.79 156.22C166.18 158.6 165.38 161.66 162.99 163.06C162.2 163.52 161.33 163.74 160.47 163.74C158.75 163.74 157.08 162.85 156.15 161.26Z" fill="black"/>
<path d="M166.5 148.77C165.2 146.34 166.12 143.31 168.55 142C170.99 140.7 174.02 141.62 175.32 144.05C176.62 146.49 175.7 149.52 173.27 150.82C172.52 151.22 171.71 151.41 170.92 151.41C169.13 151.41 167.4 150.46 166.5 148.77Z" fill="black"/>
<path d="M167.44 149.76C165.96 147.99 165.86 145.38 167.33 143.49C169.03 141.31 172.17 140.91 174.35 142.61C174.68 142.87 174.99 143.14 175.37 143.61C175.68 144.14 176.39 144.67 176.52 146.87C176.52 149.63 174.28 151.87 171.52 151.87C169.84 151.87 168.34 151.04 167.44 149.76Z" fill="black"/>
<path d="M171.48 154.73C168.72 154.73 166.49 152.47 166.51 149.71C166.52 146.94 168.77 144.72 171.53 144.73C174.3 144.75 176.52 147 176.51 149.76C176.49 152.51 174.26 154.73 171.51 154.73H171.48Z" fill="black"/>
<path d="M171.41 167.46C168.65 167.46 166.42 165.2 166.44 162.44C166.45 159.67 168.7 157.45 171.47 157.46C174.23 157.48 176.45 159.73 176.44 162.49C176.42 165.24 174.19 167.46 171.44 167.46H171.41Z" fill="black"/>
<path d="M170.5 162.99C170.22 160.24 172.23 157.79 174.98 157.52C177.72 157.24 180.17 159.24 180.45 161.99C180.72 164.74 178.72 167.19 175.97 167.47C175.8 167.47 175.63 167.49 175.47 167.49C172.93 167.49 170.76 165.57 170.5 162.99Z" fill="black"/>
<path d="M170.47 155.95C170.47 153.18 172.71 150.95 175.47 150.95C178.24 150.95 180.47 153.18 180.47 155.95C180.47 158.71 178.24 160.95 175.47 160.95C172.71 160.95 170.47 158.71 170.47 155.95Z" fill="black"/>
<path d="M175.52 126.08C172.76 126.08 170.53 123.84 170.53 121.08C170.53 118.31 172.78 116.08 175.54 116.08C178.3 116.08 180.54 118.33 180.53 121.09C180.53 123.85 178.29 126.08 175.53 126.08H175.52Z" fill="black"/>
<path d="M155.28 128.04C155.23 125.28 157.42 122.99 160.18 122.94C162.94 122.88 165.23 125.07 165.28 127.83C165.34 130.6 163.15 132.88 160.39 132.94H160.28C157.57 132.94 155.34 130.77 155.28 128.04Z" fill="black"/>
<path d="M148.15 128.16C148.1 125.4 150.3 123.12 153.06 123.07C155.82 123.02 158.1 125.21 158.15 127.98C158.2 130.74 156 133.01 153.24 133.07H153.15C150.43 133.07 148.2 130.89 148.15 128.16Z" fill="black"/>
<path d="M134.81 128.21C134.79 125.44 137.01 123.19 139.77 123.17C142.53 123.15 144.79 125.37 144.81 128.13C144.83 130.89 142.61 133.15 139.85 133.17H139.81C137.06 133.17 134.83 130.95 134.81 128.21Z" fill="black"/>
<path d="M131.37 132.95C128.61 132.88 126.43 130.59 126.5 127.83C126.57 125.07 128.86 122.88 131.62 122.96C134.38 123.03 136.56 125.32 136.49 128.08C136.42 130.8 134.2 132.95 131.5 132.95H131.37Z" fill="black"/>
<path d="M121.37 126.01C120.7 123.33 122.33 120.62 125.01 119.94C127.68 119.27 130.4 120.89 131.07 123.57C131.75 126.25 130.12 128.97 127.44 129.64C127.03 129.74 126.62 129.79 126.22 129.79C123.98 129.79 121.95 128.28 121.37 126.01Z" fill="black"/>
<path d="M125.19 124.54C122.48 124 120.72 121.38 121.25 118.67C121.78 115.96 124.41 114.19 127.12 114.72C129.83 115.26 131.6 117.88 131.06 120.59C130.59 122.98 128.5 124.63 126.16 124.63C125.84 124.63 125.52 124.6 125.19 124.54Z" fill="black"/>
<path d="M128.34 115.76C128.01 113.02 129.96 110.53 132.7 110.2C135.45 109.87 137.94 111.82 138.27 114.56C138.6 117.3 136.65 119.8 133.9 120.13C133.7 120.15 133.5 120.16 133.3 120.16C130.81 120.16 128.65 118.3 128.34 115.76Z" fill="black"/>
<path d="M138.43 114.54C138.1 111.8 140.05 109.31 142.79 108.98C145.53 108.65 148.02 110.6 148.36 113.34C148.69 116.08 146.73 118.58 143.99 118.91C143.79 118.93 143.59 118.94 143.38 118.94C140.89 118.94 138.74 117.08 138.43 114.54Z" fill="black"/>
<path d="M149.41 113.49C148.99 110.76 150.86 108.21 153.59 107.78C156.31 107.36 158.87 109.23 159.29 111.96C159.71 114.69 157.84 117.25 155.11 117.67C154.85 117.71 154.6 117.73 154.34 117.73C151.92 117.73 149.79 115.96 149.41 113.49Z" fill="black"/>
<path d="M154.95 112.63C154.53 109.9 156.41 107.35 159.13 106.93C161.86 106.51 164.42 108.38 164.84 111.11C165.26 113.84 163.39 116.39 160.66 116.81C160.4 116.85 160.14 116.87 159.89 116.87C157.47 116.87 155.34 115.1 154.95 112.63Z" fill="black"/>
<path d="M165.84 110.83C165.79 108.07 167.99 105.79 170.75 105.74C173.51 105.69 175.79 107.89 175.84 110.65C175.89 113.41 173.7 115.69 170.93 115.74H170.84C168.12 115.74 165.89 113.56 165.84 110.83Z" fill="black"/>
<path d="M171.19 118.09C168.43 118.01 166.25 115.7 166.34 112.94C166.41 110.18 168.72 108.01 171.48 108.09C174.24 108.17 176.41 110.48 176.33 113.24C176.25 115.95 174.03 118.09 171.34 118.09H171.19Z" fill="black"/>
<path d="M165.83 128.58C163.64 126.89 163.23 123.76 164.91 121.57C166.6 119.38 169.74 118.97 171.93 120.65C174.12 122.34 174.52 125.48 172.84 127.67C171.85 128.95 170.37 129.62 168.87 129.62C167.81 129.62 166.74 129.28 165.83 128.58Z" fill="black"/>
<path d="M420.84 141.73C418.08 141.73 415.84 139.48 415.85 136.72C415.85 133.96 418.09 131.72 420.85 131.73C423.61 131.73 425.85 133.97 425.85 136.73C425.84 139.49 423.6 141.73 420.85 141.73H420.84Z" fill="black"/>
<path d="M414.11 153.37C411.77 151.9 411.07 148.82 412.54 146.48C414.01 144.14 417.09 143.44 419.43 144.9C421.77 146.37 422.47 149.46 421.01 151.8C420.06 153.31 418.43 154.14 416.77 154.14C415.86 154.14 414.94 153.89 414.11 153.37Z" fill="black"/>
<path d="M401.35 161.6C400.09 159.15 401.05 156.13 403.5 154.87C405.96 153.6 408.97 154.56 410.24 157.02C411.51 159.47 410.54 162.49 408.09 163.75C407.36 164.13 406.57 164.31 405.8 164.31C403.99 164.31 402.24 163.32 401.35 161.6Z" fill="black"/>
<path d="M378.75 162.88C376.38 161.45 375.62 158.38 377.05 156.01C378.48 153.65 381.55 152.89 383.91 154.32C386.28 155.74 387.04 158.82 385.61 161.18C384.67 162.74 383.02 163.6 381.33 163.6C380.45 163.6 379.55 163.36 378.75 162.88Z" fill="black"/>
<path d="M364.15 144.4C363.18 141.81 364.5 138.93 367.08 137.96C369.67 137 372.55 138.31 373.52 140.9C374.48 143.49 373.17 146.37 370.58 147.33C370 147.55 369.41 147.65 368.83 147.65C366.81 147.65 364.9 146.41 364.15 144.4Z" fill="black"/>
<path d="M361.14 125.34C361.06 122.58 363.24 120.28 366 120.21C368.76 120.13 371.06 122.31 371.13 125.07C371.21 127.83 369.03 130.13 366.27 130.2H366.13C363.43 130.2 361.21 128.06 361.14 125.34Z" fill="black"/>
<path d="M361.05 122.06C360.97 119.3 363.15 117 365.91 116.93C368.67 116.85 370.97 119.03 371.04 121.79C371.12 124.55 368.94 126.85 366.18 126.92H366.04C363.34 126.92 361.12 124.77 361.05 122.06Z" fill="black"/>
<path d="M361.04 118.57C361.03 115.81 363.27 113.56 366.03 113.56C368.79 113.55 371.03 115.79 371.04 118.55C371.04 121.31 368.81 123.55 366.05 123.56H366.04C363.28 123.56 361.04 121.32 361.04 118.57Z" fill="black"/>
<path d="M369.19 123.55C366.48 122.98 364.76 120.32 365.33 117.62C365.91 114.92 368.56 113.19 371.26 113.77C373.97 114.34 375.69 117 375.12 119.7C374.62 122.05 372.54 123.66 370.23 123.66C369.89 123.66 369.54 123.62 369.19 123.55Z" fill="black"/>
<path d="M367.07 125.55C365.57 123.23 366.24 120.14 368.56 118.64C370.88 117.15 373.98 117.82 375.47 120.14C376.97 122.46 376.3 125.55 373.98 127.05C373.14 127.59 372.2 127.85 371.27 127.85C369.63 127.85 368.02 127.04 367.07 125.55Z" fill="black"/>
<path d="M373.94 130.98C371.35 130.04 370 127.17 370.94 124.57C371.88 121.98 374.74 120.63 377.34 121.57C379.94 122.51 381.28 125.37 380.35 127.97C379.61 130.01 377.69 131.27 375.64 131.27C375.08 131.27 374.51 131.18 373.94 130.98Z" fill="black"/>
<path d="M381.24 131.96C378.48 131.94 376.26 129.69 376.27 126.92C376.29 124.16 378.55 121.94 381.31 121.96C384.07 121.98 386.29 124.23 386.27 126.99C386.26 129.74 384.02 131.96 381.27 131.96H381.24Z" fill="black"/>
<path d="M409.3 132.12C406.54 132.1 404.32 129.85 404.33 127.09C404.35 124.33 406.6 122.11 409.36 122.12C412.12 122.14 414.35 124.39 414.33 127.15C414.32 129.9 412.08 132.12 409.33 132.12H409.3Z" fill="black"/>
<path d="M416.34 128.54C413.59 128.29 411.56 125.86 411.82 123.11C412.07 120.36 414.5 118.33 417.25 118.59C420 118.84 422.03 121.27 421.77 124.02C421.53 126.62 419.36 128.56 416.8 128.56C416.65 128.56 416.49 128.56 416.34 128.54Z" fill="black"/>
<path d="M411.81 120.66C411.26 117.96 413.01 115.32 415.72 114.77C418.42 114.22 421.06 115.97 421.61 118.68C422.16 121.38 420.41 124.02 417.7 124.57C417.37 124.64 417.03 124.67 416.7 124.67C414.37 124.67 412.29 123.03 411.81 120.66Z" fill="black"/>
<path d="M411.33 121.36C408.82 120.21 407.72 117.24 408.86 114.73C410.01 112.22 412.98 111.11 415.49 112.26C418 113.41 419.11 116.38 417.96 118.89C417.12 120.73 415.31 121.81 413.41 121.81C412.71 121.81 412.01 121.67 411.33 121.36Z" fill="black"/>
<path d="M406.46 120.3C403.72 120.02 401.72 117.56 402.01 114.81C402.3 112.07 404.75 110.07 407.5 110.36C410.25 110.65 412.24 113.1 411.96 115.85C411.69 118.42 409.52 120.33 406.99 120.33C406.82 120.33 406.64 120.32 406.46 120.3Z" fill="black"/>
<path d="M396.38 119.25C393.63 118.97 391.64 116.51 391.92 113.76C392.21 111.02 394.67 109.02 397.41 109.31C400.16 109.59 402.16 112.05 401.87 114.8C401.6 117.37 399.43 119.28 396.9 119.28C396.73 119.28 396.55 119.28 396.38 119.25Z" fill="black"/>
<path d="M389.1 118.54C386.37 118.09 384.53 115.51 384.99 112.79C385.45 110.06 388.02 108.22 390.75 108.68C393.47 109.14 395.31 111.72 394.85 114.44C394.44 116.88 392.33 118.61 389.93 118.61C389.65 118.61 389.37 118.59 389.1 118.54Z" fill="black"/>
<path d="M373.34 114.54C370.94 113.17 370.12 110.11 371.5 107.72C372.88 105.32 375.94 104.5 378.33 105.88C380.72 107.26 381.54 110.32 380.17 112.71C379.24 114.31 377.56 115.21 375.83 115.21C374.98 115.21 374.12 115 373.34 114.54Z" fill="black"/>
<path d="M362.25 91.2197C362.25 88.4597 364.48 86.2197 367.25 86.2197C370.01 86.2197 372.25 88.4597 372.25 91.2197C372.25 93.9797 370.01 96.2197 367.25 96.2197C364.48 96.2197 362.25 93.9797 362.25 91.2197Z" fill="black"/>
<path d="M367.25 78.46C364.49 78.46 362.26 76.22 362.26 73.46C362.26 70.69 364.5 68.46 367.26 68.46C370.02 68.46 372.26 70.7 372.26 73.46C372.26 76.22 370.02 78.46 367.26 78.46H367.25Z" fill="black"/>
<path d="M366.34 74.3904C363.7 73.5704 362.23 70.7704 363.05 68.1304C363.87 65.4904 366.67 64.0204 369.31 64.8404C371.95 65.6604 373.42 68.4704 372.6 71.1004C371.93 73.2404 369.96 74.6204 367.83 74.6204C367.34 74.6204 366.84 74.5404 366.34 74.3904Z" fill="black"/>
<path d="M368.02 68.9696C365.39 68.1596 363.91 65.3596 364.72 62.7196C365.54 60.0796 368.34 58.5995 370.98 59.4195C373.61 60.2295 375.09 63.0295 374.28 65.6695C373.61 67.8195 371.64 69.1896 369.5 69.1896C369.01 69.1896 368.52 69.1196 368.02 68.9696Z" fill="black"/>
<path d="M369.83 62.37C367.55 60.81 366.97 57.6999 368.54 55.4199C370.1 53.1499 373.22 52.57 375.49 54.13C377.77 55.7 378.34 58.81 376.78 61.09C375.81 62.5 374.24 63.25 372.65 63.25C371.68 63.25 370.69 62.97 369.83 62.37Z" fill="black"/>
<path d="M381.25 50.1199C380.6 47.4299 382.24 44.7299 384.92 44.0699C387.61 43.4199 390.31 45.0599 390.97 47.7399C391.62 50.4299 389.98 53.1299 387.3 53.7899C386.9 53.8799 386.5 53.9299 386.11 53.9299C383.86 53.9299 381.81 52.3999 381.25 50.1199Z" fill="black"/>
<path d="M408.91 59.2905C407.11 57.1905 407.34 54.0405 409.43 52.2305C411.53 50.4305 414.68 50.6705 416.49 52.7605C418.29 54.8505 418.05 58.0105 415.96 59.8105C415.02 60.6205 413.86 61.0205 412.7 61.0205C411.3 61.0205 409.9 60.4305 408.91 59.2905Z" fill="black"/>
<path d="M415.62 80.1799C415.61 77.4199 417.84 75.1799 420.61 75.1699C423.37 75.1699 425.61 77.3999 425.62 80.1599C425.62 82.9199 423.39 85.1599 420.63 85.1699H420.62C417.86 85.1699 415.62 82.9399 415.62 80.1799Z" fill="black"/>
<path d="M415.64 90.01C415.64 87.25 417.87 85.01 420.63 85C423.39 84.99 425.64 87.22 425.64 89.98C425.65 92.75 423.42 94.99 420.66 95H420.64C417.89 95 415.65 92.77 415.64 90.01Z" fill="black"/>
<path d="M411.96 90.3797C411.84 87.6297 413.98 85.2897 416.74 85.1697C419.49 85.0397 421.83 87.1797 421.95 89.9397C422.08 92.6997 419.94 95.0297 417.18 95.1597H416.95C414.29 95.1597 412.08 93.0697 411.96 90.3797Z" fill="black"/>
<path d="M411.51 89.1403C409.4 87.3703 409.12 84.2103 410.9 82.1003C412.67 79.9803 415.82 79.7103 417.94 81.4803C420.06 83.2603 420.33 86.4103 418.56 88.5303C417.57 89.7003 416.15 90.3103 414.72 90.3103C413.59 90.3103 412.45 89.9303 411.51 89.1403Z" fill="black"/>
<path d="M410.01 88.1602C407.34 87.4602 405.74 84.7302 406.44 82.0602C407.14 79.3802 409.87 77.7902 412.54 78.4902C415.21 79.1802 416.81 81.9202 416.11 84.5902C415.53 86.8402 413.5 88.3202 411.28 88.3202C410.86 88.3202 410.43 88.2702 410.01 88.1602Z" fill="black"/>
<path d="M401.32 82.5098C401.32 79.7498 403.56 77.5098 406.32 77.5098C409.08 77.5098 411.32 79.7498 411.32 82.5098C411.32 85.2698 409.08 87.5098 406.32 87.5098C403.56 87.5098 401.32 85.2698 401.32 82.5098Z" fill="black"/>
<path d="M373.11 82.5903C373.1 79.8303 375.34 77.5803 378.1 77.5703C380.86 77.5703 383.1 79.8003 383.11 82.5603C383.12 85.3203 380.88 87.5703 378.12 87.5803H378.11C375.35 87.5803 373.12 85.3403 373.11 82.5903Z" fill="black"/>
<path d="M370.25 91.4599C367.58 90.7599 365.97 88.0399 366.66 85.3599C367.35 82.6899 370.08 81.0799 372.75 81.7799C375.43 82.4699 377.03 85.1899 376.34 87.8699C375.76 90.1199 373.73 91.6199 371.51 91.6199C371.09 91.6199 370.67 91.5699 370.25 91.4599Z" fill="black"/>
<path d="M367.88 92.9701C366.35 90.6701 366.98 87.5701 369.28 86.0401C371.58 84.5101 374.69 85.1401 376.21 87.4401C377.74 89.7401 377.11 92.8501 374.81 94.3701C373.96 94.9401 373 95.2101 372.05 95.2101C370.43 95.2101 368.84 94.4201 367.88 92.9701Z" fill="black"/>
<path d="M376.31 97.95C373.62 97.33 371.94 94.64 372.56 91.95C373.18 89.26 375.86 87.58 378.55 88.2C381.24 88.82 382.92 91.5 382.3 94.2C381.77 96.51 379.71 98.07 377.43 98.07C377.06 98.07 376.68 98.03 376.31 97.95Z" fill="black"/>
<path d="M385.89 99.4798C383.14 99.1898 381.16 96.7298 381.45 93.9798C381.74 91.2398 384.21 89.2498 386.95 89.5398C389.7 89.8298 391.69 92.2998 391.39 95.0398C391.12 97.6098 388.95 99.5098 386.43 99.5098C386.25 99.5098 386.07 99.5098 385.89 99.4798Z" fill="black"/>
<path d="M393.18 100.26C390.43 99.97 388.45 97.5 388.74 94.76C389.03 92.01 391.49 90.02 394.24 90.32C396.98 90.61 398.97 93.07 398.68 95.82C398.41 98.38 396.24 100.29 393.71 100.29C393.54 100.29 393.36 100.28 393.18 100.26Z" fill="black"/>
<path d="M399.67 100.88C396.92 100.61 394.9 98.17 395.17 95.43C395.43 92.68 397.87 90.66 400.62 90.92C403.37 91.18 405.38 93.62 405.12 96.37C404.87 98.96 402.7 100.9 400.15 100.9C399.99 100.9 399.83 100.9 399.67 100.88Z" fill="black"/>
<path d="M408.93 103.06C406.52 101.73 405.63 98.6896 406.96 96.2696C408.29 93.8496 411.33 92.9696 413.75 94.2996C416.17 95.6296 417.06 98.6696 415.73 101.09C414.82 102.75 413.1 103.68 411.34 103.68C410.52 103.68 409.7 103.48 408.93 103.06Z" fill="black"/>
<path d="M413.31 106.24C411.5 104.15 411.71 100.99 413.8 99.18C415.88 97.37 419.04 97.59 420.85 99.67C422.66 101.75 422.45 104.91 420.36 106.72C419.42 107.55 418.25 107.95 417.08 107.95C415.69 107.95 414.3 107.37 413.31 106.24Z" fill="black"/>
<path d="M415.87 113.6C415.87 110.84 418.11 108.6 420.87 108.6C423.63 108.6 425.87 110.84 425.87 113.6C425.87 116.36 423.63 118.6 420.87 118.6C418.11 118.6 415.87 116.36 415.87 113.6Z" fill="black"/>
<path d="M349.75 123.51C349.71 120.75 351.92 118.48 354.68 118.44C357.44 118.4 359.71 120.61 359.75 123.37C359.79 126.13 357.58 128.4 354.82 128.44H354.75C352.02 128.44 349.79 126.25 349.75 123.51Z" fill="black"/>
<path d="M342.72 128.12C342.72 125.35 344.96 123.12 347.72 123.12C350.48 123.12 352.72 125.35 352.72 128.12C352.72 130.88 350.48 133.12 347.72 133.12C344.96 133.12 342.72 130.88 342.72 128.12Z" fill="black"/>
<path d="M321.28 133.08C318.52 133.08 316.28 130.84 316.28 128.08C316.29 125.32 318.53 123.08 321.29 123.08C324.05 123.08 326.29 125.33 326.28 128.09C326.28 130.85 324.04 133.08 321.28 133.08Z" fill="black"/>
<path d="M313.39 131.37C310.77 130.48 309.37 127.64 310.26 125.02C311.15 122.41 313.99 121.01 316.61 121.9C319.22 122.79 320.62 125.63 319.73 128.24C319.02 130.32 317.08 131.63 315 131.63C314.46 131.63 313.92 131.55 313.39 131.37Z" fill="black"/>
<path d="M304.41 121.16C303.19 118.68 304.21 115.69 306.69 114.47C309.17 113.24 312.16 114.26 313.38 116.74C314.6 119.22 313.59 122.22 311.11 123.44C310.4 123.79 309.64 123.95 308.9 123.95C307.06 123.95 305.28 122.93 304.41 121.16Z" fill="black"/>
<path d="M309.35 123.85C306.61 123.49 304.68 120.98 305.04 118.24C305.4 115.51 307.91 113.58 310.64 113.94C313.38 114.3 315.31 116.81 314.95 119.54C314.62 122.06 312.47 123.89 310 123.89C309.78 123.89 309.57 123.88 309.35 123.85Z" fill="black"/>
<path d="M334.66 123.9C331.9 123.9 329.66 121.66 329.66 118.9C329.67 116.14 331.9 113.9 334.67 113.9C337.43 113.9 339.67 116.14 339.66 118.9C339.66 121.66 337.43 123.9 334.67 123.9H334.66Z" fill="black"/>
<path d="M353.87 118.78C353.85 116.02 356.08 113.77 358.84 113.75C361.6 113.74 363.85 115.96 363.87 118.72C363.89 121.49 361.66 123.74 358.9 123.75H358.87C356.12 123.75 353.88 121.54 353.87 118.78Z" fill="black"/>
<path d="M353.81 93.1799C353.8 90.4199 356.03 88.1699 358.79 88.1699C361.56 88.1699 363.8 90.3899 363.81 93.1599C363.81 95.9199 361.58 98.1599 358.82 98.1699H358.8C356.05 98.1699 353.81 95.9399 353.81 93.1799Z" fill="black"/>
<path d="M353.68 80.7798C353.66 78.0098 355.87 75.7498 358.63 75.7298C361.39 75.6998 363.65 77.9198 363.68 80.6798C363.71 83.4398 361.49 85.6998 358.73 85.7298H358.68C355.94 85.7298 353.71 83.5198 353.68 80.7798Z" fill="black"/>
<path d="M353.34 77.3297C352.71 74.6397 354.39 71.9497 357.08 71.3197C359.77 70.6997 362.45 72.3697 363.08 75.0597C363.71 77.7497 362.03 80.4297 359.34 81.0597C358.96 81.1497 358.58 81.1897 358.21 81.1897C355.93 81.1897 353.88 79.6297 353.34 77.3297Z" fill="black"/>
<path d="M352.1 71.9898C351.47 69.2998 353.15 66.6098 355.83 65.9898C358.52 65.3598 361.21 67.0398 361.84 69.7298C362.46 72.4098 360.79 75.0998 358.1 75.7298C357.72 75.8198 357.34 75.8598 356.96 75.8598C354.69 75.8598 352.64 74.2998 352.1 71.9898Z" fill="black"/>
<path d="M350.67 68.1301C349.65 65.5701 350.91 62.6601 353.47 61.6401C356.04 60.6201 358.95 61.8801 359.96 64.4501C360.98 67.0101 359.73 69.9201 357.16 70.9401C356.56 71.1801 355.93 71.2901 355.32 71.2901C353.33 71.2901 351.45 70.0901 350.67 68.1301Z" fill="black"/>
<path d="M340.47 56.0897C338.02 54.8297 337.05 51.8197 338.31 49.3597C339.57 46.9097 342.58 45.9397 345.04 47.1997C347.5 48.4597 348.47 51.4697 347.21 53.9297C346.32 55.6497 344.57 56.6497 342.75 56.6497C341.98 56.6497 341.2 56.4697 340.47 56.0897Z" fill="black"/>
<path d="M338 55.0201C335.33 54.2901 333.76 51.5401 334.49 48.8801C335.21 46.2201 337.96 44.6501 340.63 45.3701C343.29 46.1001 344.86 48.8501 344.14 51.5101C343.53 53.7401 341.51 55.2001 339.31 55.2001C338.88 55.2001 338.44 55.1401 338 55.0201Z" fill="black"/>
<path d="M335.29 54.0903C332.55 53.7803 330.58 51.3003 330.89 48.5603C331.2 45.8103 333.68 43.8403 336.42 44.1503C339.16 44.4603 341.14 46.9403 340.82 49.6903C340.53 52.2403 338.37 54.1203 335.86 54.1203C335.67 54.1203 335.48 54.1103 335.29 54.0903Z" fill="black"/>
<path d="M321.4 50.7601C320.65 48.1101 322.19 45.3401 324.85 44.5901C327.51 43.8401 330.27 45.3801 331.02 48.0401C331.78 50.7001 330.23 53.4601 327.57 54.2101C327.12 54.3401 326.66 54.4001 326.21 54.4001C324.03 54.4001 322.02 52.9701 321.4 50.7601Z" fill="black"/>
<path d="M311.82 57.8603C310.1 55.7003 310.45 52.5603 312.61 50.8403C314.77 49.1203 317.92 49.4703 319.64 51.6303C321.36 53.7903 321 56.9303 318.84 58.6603C317.92 59.3903 316.82 59.7503 315.73 59.7503C314.26 59.7503 312.8 59.1003 311.82 57.8603Z" fill="black"/>
<path d="M310.35 59.9898C308.43 58.0098 308.48 54.8398 310.46 52.9198C312.44 50.9998 315.6 51.0398 317.53 53.0198C319.45 54.9998 319.4 58.1698 317.42 60.0898C316.45 61.0398 315.2 61.5098 313.94 61.5098C312.64 61.5098 311.33 60.9998 310.35 59.9898Z" fill="black"/>
<path d="M308.12 64.0999C305.9 62.4699 305.42 59.3399 307.06 57.1099C308.69 54.8899 311.82 54.4099 314.05 56.0499C316.27 57.6799 316.75 60.8099 315.11 63.0399C314.13 64.3699 312.62 65.0699 311.08 65.0699C310.05 65.0699 309.01 64.7599 308.12 64.0999Z" fill="black"/>
<path d="M304.2 89.2296C301.44 89.2096 299.22 86.9496 299.24 84.1896C299.25 81.4296 301.51 79.2096 304.27 79.2296C307.03 79.2496 309.25 81.4996 309.23 84.2596C309.22 87.0096 306.98 89.2296 304.23 89.2296H304.2Z" fill="black"/>
<path d="M304.13 99.4795C301.37 99.4795 299.15 97.2095 299.17 94.4495C299.19 91.6895 301.44 89.4695 304.2 89.4795C306.96 89.4995 309.19 91.7495 309.17 94.5195C309.15 97.2695 306.91 99.4795 304.17 99.4795H304.13Z" fill="black"/>
<path d="M299.22 116.29C299.21 113.53 301.45 111.28 304.21 111.28C306.97 111.28 309.21 113.5 309.22 116.26C309.22 119.03 306.99 121.27 304.23 121.28H304.22C301.46 121.28 299.22 119.04 299.22 116.29Z" fill="black"/>
<path d="M299.34 128.4C299.31 125.64 301.53 123.38 304.29 123.35C307.05 123.32 309.31 125.54 309.34 128.3C309.37 131.06 307.15 133.32 304.39 133.35H304.34C301.6 133.35 299.37 131.15 299.34 128.4Z" fill="black"/>
<path d="M302.12 144.42C301.02 141.89 302.19 138.95 304.72 137.85C307.25 136.75 310.2 137.91 311.3 140.45C312.39 142.98 311.23 145.92 308.7 147.02C308.05 147.3 307.37 147.44 306.71 147.44C304.78 147.44 302.94 146.31 302.12 144.42Z" fill="black"/>
<path d="M304.08 149.43C303.12 146.84 304.45 143.96 307.04 143C309.63 142.05 312.5 143.37 313.46 145.96C314.42 148.55 313.09 151.43 310.5 152.38C309.93 152.6 309.35 152.7 308.77 152.7C306.74 152.7 304.82 151.45 304.08 149.43Z" fill="black"/>
<path d="M320.94 165.81C318.31 164.95 316.88 162.13 317.73 159.5C318.59 156.88 321.41 155.44 324.04 156.3C326.66 157.16 328.1 159.98 327.24 162.6C326.55 164.71 324.59 166.05 322.49 166.05C321.97 166.05 321.45 165.97 320.94 165.81Z" fill="black"/>
<path d="M324.48 167.07C321.79 166.43 320.13 163.74 320.76 161.05C321.4 158.36 324.09 156.7 326.78 157.34C329.47 157.98 331.13 160.67 330.49 163.36C329.95 165.66 327.9 167.21 325.63 167.21C325.25 167.21 324.86 167.16 324.48 167.07Z" fill="black"/>
<path d="M332.48 163.28C331.93 160.57 333.69 157.94 336.39 157.39C339.1 156.85 341.74 158.6 342.28 161.31C342.82 164.02 341.07 166.65 338.36 167.2C338.03 167.26 337.7 167.3 337.37 167.3C335.04 167.3 332.95 165.65 332.48 163.28Z" fill="black"/>
<path d="M341.35 161.46C339.73 159.23 340.24 156.1 342.48 154.48C344.71 152.86 347.84 153.37 349.46 155.61C351.07 157.84 350.57 160.97 348.33 162.59C347.45 163.23 346.42 163.54 345.41 163.54C343.86 163.53 342.33 162.82 341.35 161.46Z" fill="black"/>
<path d="M343.56 159.87C341.94 157.63 342.44 154.51 344.68 152.89C346.92 151.27 350.05 151.77 351.66 154.01C353.28 156.25 352.78 159.37 350.54 160.99C349.66 161.63 348.63 161.94 347.62 161.94C346.07 161.94 344.54 161.22 343.56 159.87Z" fill="black"/>
<path d="M346.24 158.39C344.27 156.45 344.24 153.29 346.18 151.32C348.11 149.35 351.28 149.32 353.25 151.25C355.22 153.19 355.24 156.35 353.31 158.33C352.33 159.32 351.04 159.82 349.74 159.82C348.48 159.82 347.21 159.34 346.24 158.39Z" fill="black"/>
<path d="M354.75 147.68C352.16 146.71 350.84 143.84 351.81 141.25C352.77 138.66 355.65 137.34 358.24 138.31C360.82 139.27 362.14 142.15 361.18 144.74C360.43 146.75 358.52 147.99 356.49 147.99C355.91 147.99 355.32 147.89 354.75 147.68Z" fill="black"/>
<path d="M353.84 127.51C353.79 124.75 355.98 122.47 358.74 122.41C361.5 122.36 363.79 124.56 363.84 127.32C363.89 130.08 361.7 132.36 358.94 132.41H358.84C356.12 132.41 353.89 130.24 353.84 127.51Z" fill="black"/>
<path d="M353.76 123.48C353.71 120.72 355.9 118.44 358.66 118.39C361.42 118.33 363.71 120.53 363.76 123.29C363.81 126.05 361.62 128.33 358.86 128.38H358.76C356.04 128.38 353.81 126.21 353.76 123.48Z" fill="black"/>
<path d="M354.76 128.44C352.03 128.44 349.8 126.25 349.76 123.51C349.72 120.75 351.93 118.48 354.69 118.44L358.69 118.38C361.44 118.31 363.72 120.55 363.76 123.31C363.8 126.07 361.59 128.34 358.83 128.38L354.83 128.44C354.83 128.44 354.78 128.44 354.76 128.44Z" fill="black"/>
<path d="M309.84 87.4599C308.72 84.9299 309.87 81.9799 312.4 80.8699C314.92 79.7599 317.87 80.8999 318.99 83.4299C320.1 85.9599 318.95 88.9099 316.43 90.0199C315.77 90.3099 315.09 90.4499 314.42 90.4499C312.49 90.4499 310.66 89.3299 309.84 87.4599Z" fill="black"/>
<path d="M315.38 84.4297C315.17 81.6697 317.24 79.2697 319.99 79.0597C322.74 78.8497 325.15 80.9097 325.35 83.6697C325.56 86.4197 323.5 88.8197 320.75 89.0297C320.62 89.0397 320.49 89.0497 320.36 89.0497C317.77 89.0497 315.58 87.0497 315.38 84.4297Z" fill="black"/>
<path d="M320.52 83.73C320.5 80.97 322.74 78.72 325.5 78.71C328.26 78.71 330.51 80.93 330.52 83.69C330.53 86.45 328.3 88.7 325.54 88.71H325.51C322.76 88.71 320.53 86.48 320.52 83.73Z" fill="black"/>
<path d="M332.12 83.6899C332.11 80.9299 334.34 78.6799 337.1 78.6699C339.86 78.6699 342.11 80.8899 342.11 83.6499C342.12 86.4199 339.89 88.6599 337.13 88.6699H337.11C334.36 88.6699 332.12 86.4399 332.12 83.6899Z" fill="black"/>
<path d="M354.36 97.5595C351.6 97.4795 349.43 95.1795 349.51 92.4195C349.59 89.6595 351.89 87.4895 354.65 87.5695C357.42 87.6495 359.59 89.9495 359.51 92.7095C359.43 95.4195 357.2 97.5695 354.51 97.5695C354.46 97.5695 354.41 97.5695 354.36 97.5695V97.5595Z" fill="black"/>
<path d="M341.26 92.7998C341.22 90.0398 343.41 87.7598 346.17 87.7098C348.94 87.6598 351.21 89.8598 351.26 92.6198C351.31 95.3898 349.11 97.6598 346.35 97.7098H346.26C343.54 97.7098 341.31 95.5298 341.26 92.7998Z" fill="black"/>
<path d="M333.98 92.71C333.98 89.95 336.22 87.71 338.98 87.71C341.74 87.71 343.98 89.95 343.98 92.71C343.98 95.47 341.74 97.71 338.98 97.71C336.22 97.71 333.98 95.47 333.98 92.71Z" fill="black"/>
<path d="M304.17 92.8001C304.16 90.0401 306.39 87.8001 309.16 87.7901C311.92 87.7801 314.16 90.0201 314.17 92.7801C314.18 95.5401 311.94 97.7801 309.18 97.7901H309.17C306.41 97.7901 304.18 95.5601 304.17 92.8001Z" fill="black"/>
<path d="M307.04 95.2803C304.51 94.1503 303.38 91.2003 304.5 88.6803C305.62 86.1503 308.57 85.0203 311.1 86.1403C313.62 87.2603 314.76 90.2103 313.64 92.7403C312.81 94.6003 310.98 95.7103 309.07 95.7103C308.39 95.7103 307.7 95.5703 307.04 95.2803Z" fill="black"/>
<path d="M309.07 95.7098C307.78 95.7098 306.48 95.2098 305.5 94.2098C303.56 92.2398 303.59 89.0698 305.56 87.1398L310.91 81.8798C312.88 79.9398 316.05 79.9698 317.98 81.9398C319.92 83.9098 319.89 87.0798 317.92 89.0098L312.57 94.2698C311.6 95.2298 310.33 95.6998 309.07 95.6998V95.7098Z" fill="black"/>
</g>
</g>
<defs>
<clipPath id="clip0_2559_708">
<rect width="425.87" height="198.39" fill="white"/>
</clipPath>
</defs>
</svg>
