<svg width="217" height="100" viewBox="0 0 217 100" fill="none" xmlns="http://www.w3.org/2000/svg">
<g clip-path="url(#clip0_2554_8935)">
<mask id="mask0_2554_8935" style="mask-type:luminance" maskUnits="userSpaceOnUse" x="0" y="0" width="217" height="100">
<path d="M216.44 0H0V99.26H216.44V0Z" fill="white"/>
</mask>
<g mask="url(#mask0_2554_8935)">
<path d="M42.6202 22.2601C42.8602 23.0801 42.6802 24.0301 41.9402 24.6201L42.1402 25.7101L41.3102 26.6301C40.9202 27.0601 41.0002 27.4701 41.3102 28.0501C40.6302 28.2701 39.9302 28.2701 39.2402 28.3701L32.4902 29.3201L24.1202 30.4301C23.7902 30.4701 23.5302 30.7901 23.6202 31.1101L24.3502 33.6401L25.1202 36.5001L26.6102 42.1001C26.6702 42.3301 26.6902 42.5901 26.8002 42.7001C26.9002 42.8101 27.3302 42.8301 27.5202 42.7801L41.4502 38.6001C42.1102 38.4001 42.5602 38.3101 43.2202 38.6001C43.4002 38.6801 43.6402 39.0901 43.5202 39.2301C43.0702 39.7501 43.3502 40.1701 43.3502 40.6601C43.3502 40.9901 43.2802 41.6601 43.2602 41.9601C43.2502 42.1001 42.9402 42.3201 42.8802 42.4401C42.6802 42.9001 43.8802 43.2401 43.5202 43.9301C43.4202 44.1201 43.2002 44.4101 43.2802 44.5401L43.6302 45.1901L43.4302 46.5601C43.3502 47.0801 43.5302 47.6601 43.4802 48.1401L43.3102 49.9501C43.2502 50.6201 42.4402 50.8801 41.9102 51.0301L40.1202 51.5401L33.4702 53.5801L30.4902 54.4701C30.2602 54.5301 30.0302 54.9901 30.1002 55.2101L31.0002 58.2101L32.0802 62.1001L33.5702 67.7101L35.2002 73.7601L36.5602 78.4101C36.6802 78.8001 36.6302 79.4001 37.1002 79.5801L41.6802 78.2301L52.0202 75.2601C52.5602 75.1101 53.2102 75.0901 53.6302 75.4401C53.9402 75.6901 53.6802 76.2701 53.6902 76.5701C53.7002 77.2901 53.5902 77.8201 53.4302 78.4901C53.3002 79.0201 53.2202 79.4901 52.9702 79.9501C52.6702 80.5201 53.4202 81.1601 53.4802 81.6801C52.7602 82.7501 53.7302 83.0001 52.6602 83.9701C52.1002 84.4901 51.9002 85.2401 52.1702 85.8601L51.1902 87.8201C50.8702 88.2101 49.9702 88.3001 49.4402 88.4601L40.0002 91.2201C39.0902 91.4901 38.1002 91.9301 37.1802 91.9601C36.5002 91.9801 36.2402 92.0001 35.6502 92.3401C35.0402 92.6901 34.1702 92.8901 33.4402 93.1001L24.3002 95.7301L17.2502 97.7701L12.8402 99.0801C12.4602 99.1901 12.0102 99.2601 11.6202 99.2701C11.0802 98.6201 11.0802 97.8401 10.9202 97.0801C10.7702 96.3801 10.1702 95.7201 10.5902 94.9201C10.6602 94.7901 10.7602 94.4901 10.7802 94.3401C10.8002 94.1701 10.4802 93.9201 10.3302 93.7601C9.29017 92.6601 9.69017 92.2301 8.60017 91.4701C8.48017 91.3901 8.21017 91.1901 8.21017 91.0601C8.21017 90.9101 8.27017 90.6701 8.34017 90.3801L7.82017 89.8901C7.65017 89.4501 7.38017 89.1401 6.97017 89.1601L6.82017 88.5201C7.65017 88.0701 8.56017 87.8301 9.52017 87.5301L13.2602 86.3601L20.7502 84.2201L24.4402 83.2601C24.8802 83.1401 25.2702 82.8801 25.1202 82.3401L23.9002 77.9601L23.3102 75.6601L19.6802 62.2701L18.4302 57.9201C18.0502 56.6001 17.6702 55.2901 17.3702 53.9301C17.2002 53.1501 16.9802 52.4201 16.7702 51.6501L15.7202 47.8501L12.1902 34.7001C11.9602 33.8301 11.7802 33.1001 11.4502 32.2201L9.22017 32.4801L4.08017 33.2401L0.21017 33.7801C-0.19983 32.8301 0.12017 31.9201 0.51017 31.0901C0.48017 30.8401 0.20017 30.3901 0.16017 30.1601C0.0201704 29.3901 0.46017 28.5601 0.87017 27.9601L0.83017 27.0801C1.34017 26.5201 1.54017 25.9101 1.33017 25.1801L0.93017 23.7901C0.80017 23.3501 0.71017 22.9601 0.62017 22.5101L0.45017 21.6101L1.34017 21.4001C1.43017 21.4501 1.67017 21.4301 1.86017 21.4001L3.69017 21.1001L8.63017 20.3301L11.8702 19.8801L14.5002 19.5401L20.4202 18.6801L27.6902 17.6701L39.6002 16.0801C40.0302 16.0201 40.6002 16.0501 40.8802 16.2201C41.0102 16.8401 41.1502 17.3001 41.4702 17.7501C42.4002 19.1101 40.7302 19.7401 42.7902 21.3601C42.9202 21.5301 42.7402 22.0401 42.6402 22.2901" fill="#90BEFB"/>
<path d="M143.3 43.2398C143.35 43.6298 143.3 44.1098 143.47 44.4998C143.67 44.9598 143.56 45.2298 143.3 45.6398L143.43 46.9898C143.87 47.4198 144.29 47.8398 144.34 48.4398L144.45 49.7198C144.48 50.0198 144.09 50.5698 144.03 50.9298L135.45 53.7598L129.92 55.6398L126.96 56.5998L122.91 57.9698L123.14 56.9098C122.8 56.6298 122.62 56.2398 122.83 55.7298C122.69 55.5998 122.41 55.4198 122.16 55.2798L121.78 54.7098C121.07 54.3598 120.86 53.5098 121.19 52.8198L120.51 52.5398C120.37 52.4798 120.38 52.0298 120.36 51.8498C120.31 51.2498 119.54 51.2298 119.59 50.9898L119.68 50.4798L119.82 49.3698C120.09 48.9398 120.43 48.4198 120.56 47.9798L120.1 47.1998L121.13 46.2498C121.44 45.9598 122.23 45.7898 122.73 45.6198L127.16 44.1098C127.22 43.8798 127.05 43.5298 126.88 43.4398C126.12 43.0198 125.48 42.6398 124.82 42.1398L122.52 40.4298L122.1 40.1098C122.01 40.0398 121.71 40.2798 121.65 40.4098L120.69 42.5998L120.18 43.7798L118.49 47.5698L117.73 49.1898L116.63 51.6398C116.19 52.6198 115.77 53.5598 115.3 54.5198L114.51 56.1098C114.3 56.5298 114.56 56.9798 114.93 57.1998L117.24 58.5898L125.38 63.7198L126.48 64.4398L129.38 66.2598C131.32 67.4898 132.6 68.3298 134.43 69.7598C134.59 69.8798 134.96 70.1298 134.91 70.3298C134.76 70.9098 134.06 70.8698 133.65 70.9598C132.15 71.2798 132.5 70.5898 131.75 71.0198C131.65 71.0798 131.64 72.3798 131.34 72.8098L130.67 73.7998C130.59 73.9198 129.48 74.8598 129.92 75.8498C130.08 76.2198 130.01 76.6198 129.71 76.9098C129.49 77.1298 129.57 77.4898 129.5 77.7998C129.36 78.4098 128.89 79.0298 128.47 79.6798L124.61 77.2598L119.27 73.8698L116.31 71.9998L113.87 70.4498L110.53 68.3298L107.19 66.2698C107.05 65.2498 107.63 64.7598 107.11 63.7998C106.91 63.4198 107.01 63.0498 107.36 62.8098C108.37 62.0998 108.04 61.9798 108.65 60.8598C108.75 60.6798 108.87 60.4498 108.86 60.2998C108.85 60.1498 108.54 59.8998 108.39 59.8798L107.39 59.7598C106.45 57.5098 105.19 59.4598 104.54 57.8598C104.25 57.1298 103.87 57.8598 102.24 56.5298C101.79 56.1598 101.81 55.6798 101.99 55.2498C102.31 54.4498 102.61 53.6898 102.97 52.9098L105.55 47.3298L106.87 44.4198L107.84 42.4198L109.66 38.3098L110.6 36.0498L114.65 26.9098C115.09 25.9198 115.5 24.9998 115.98 24.0498L117.16 21.7298C117.58 20.9098 118.01 20.0998 119.04 19.7598C119.24 20.3198 118.39 21.8198 118.86 21.9798C119.02 22.0298 119.37 21.9798 119.61 21.9498L121.03 23.2998L121.4 24.0698C122.47 24.2798 121.44 25.6198 122.59 25.7098C122.76 25.7198 123.03 25.9998 123.01 26.1698C122.95 26.7198 123.48 27.0098 123.83 27.0498C124.39 27.1098 123.82 27.8698 124.12 28.5598C124.21 28.7498 124.56 28.8798 124.84 28.9898C125.32 29.1798 125.69 29.0098 125.96 28.4698L130.12 31.3198L135.13 34.8698L139.89 38.2598C139.97 38.3198 140.22 38.5198 140.18 38.6098L139.96 39.0598L139.73 39.5398C139.68 39.6498 139.98 39.8898 140.09 39.8598L141.22 39.4798C141.69 41.3098 143.01 40.8098 143.48 42.0398C143.23 42.5098 143.24 42.7498 143.3 43.2098" fill="#90BEFB"/>
<path d="M95.0003 40.4895L94.6103 43.8395L94.3803 45.7795L93.9103 49.4795L93.3903 53.9295L93.1703 55.7795L92.3603 62.0095L91.4703 68.9495L91.2603 70.6795L90.8403 74.5495L90.5903 76.5695L90.3303 78.5795C90.2703 79.0095 90.2703 79.4595 90.2303 79.9695L88.9703 79.7795C89.0803 80.3995 90.4903 81.5395 90.0503 81.6795C89.5003 81.5995 89.1903 81.6595 88.8003 82.0095C86.3303 81.5895 86.6803 80.1595 84.7203 80.2495C84.5403 80.2495 84.0803 79.9495 83.9903 80.0895C82.9503 81.4095 83.6103 79.8195 81.8403 80.5095L80.1103 81.1895C79.6403 81.3695 77.2603 81.2495 77.0303 81.0995C76.5003 80.7695 76.1703 80.8695 75.7303 81.4095C75.4003 81.1895 74.9903 80.8895 74.7403 80.5495L70.3203 74.5095L68.6003 72.1695L66.9403 69.8595L60.5203 61.0495L59.5803 59.8395L58.3503 58.1595L56.0703 55.0095L54.3903 52.5395C53.4803 51.1995 52.3803 49.9095 51.6203 48.4795C51.2403 47.7695 52.4103 47.4695 52.7903 47.1795L54.4903 45.8595C54.7103 45.6895 55.0803 45.3695 55.2803 45.4295C57.0203 45.8995 56.0903 44.8595 57.3403 45.1195C58.0003 45.2595 58.8103 45.1895 59.2603 44.6495C59.7703 44.0395 60.3503 43.8295 61.1103 43.6695C61.4703 43.5895 62.0503 43.0795 62.5203 43.4195L67.2003 49.8495L70.4903 54.4395L71.8503 56.3295L79.7103 67.1495C80.0103 65.8795 80.0203 64.7895 80.1703 63.6195L80.5403 60.8095L80.8003 58.7895L81.3903 54.1495L81.5803 52.5195L82.5603 44.4295L82.9303 41.5995L83.4803 37.1595C83.5503 36.5495 83.6303 35.8095 83.8403 35.2795C84.5703 35.0695 84.9603 34.7895 85.0803 34.0095C85.5103 33.8695 86.0703 33.6595 86.5303 33.7195C86.8803 33.7695 87.0303 34.5095 87.0703 34.8395C87.2103 35.9995 87.8203 35.1295 88.5503 36.2795L89.3703 36.3195L89.9003 36.8495C90.3203 36.4795 90.9603 36.7595 91.3503 36.6795C92.0903 36.4395 92.7403 36.0795 93.3803 36.8995C93.7103 37.3195 94.2503 37.9395 94.7803 38.0895L95.2203 38.2195C95.4903 38.2995 95.1203 39.6395 95.0203 40.4695" fill="#90BEFB"/>
<path d="M216.35 5.46965L215.95 7.16965L215.28 10.1297L214.83 12.2897L214.53 13.6297L213.1 20.5297L212.43 23.5097L211.5 27.8297L210.73 31.4097L210.03 34.6597L208.73 40.5097L207.26 47.3097L206.3 51.5297L202.68 67.7297L202.11 70.2297L201.23 74.0097C200.95 75.2197 200.72 76.4596 200.38 77.6396C199.42 77.7396 199.17 76.6896 198.52 76.4196C198.07 76.2296 197.7 76.1296 197.31 75.8396C195.62 74.6096 195.01 74.9996 194.77 74.3196C194.54 73.6696 193.43 74.8696 193.04 73.8096L191.38 72.8896C191.06 72.7096 190.59 72.6797 190.53 72.2197C190.52 72.1197 190.42 71.8696 190.35 71.8896C190.28 71.8896 190.14 71.9296 190.06 71.9496L189.77 72.0396C189.69 72.0696 189.59 71.7596 189.62 71.6396L190.5 67.6597L191.46 63.2397L192.49 58.3297L192.8 57.2397L193.39 54.3997L194.44 49.7397L195.31 45.8197L196.1 42.1897L196.8 39.0097L197.52 36.0897L197.93 34.2697L198.52 31.4997L199.34 27.9797C199.41 27.6597 199.55 27.2997 199.42 27.0197C199.29 26.7597 198.98 26.5997 198.69 26.4097L186.77 18.2697L182.67 15.5197C182.46 15.3797 182.22 15.0897 182.19 14.8397C182.13 14.3497 183.11 13.6397 183.52 13.4197C184.42 12.9197 184.78 11.9297 185.42 11.2997C187.66 9.11965 185.75 11.0197 187.5 9.70965C187.9 9.40965 188.67 9.53965 189.15 9.54965C189.9 9.56965 190.22 8.91965 190.33 8.31965L190.58 7.02965C190.68 6.92965 191.07 7.02965 191.26 7.14965L193.77 8.77965L199.76 12.8097L201.08 13.6997C201.36 13.8897 201.9 14.4897 202.33 14.0397L203.11 10.3197L203.5 8.50965L204.57 3.36965C204.68 2.82965 204.85 2.30965 205 1.79965L205.37 0.489652C205.41 0.339652 205.66 0.0696515 205.81 0.0396515C205.96 0.00965153 206.22 0.179652 206.39 0.239652L207.38 0.599652C207.54 1.11965 208.17 1.67965 208.74 1.47965C209.15 1.33965 209.74 1.10965 209.97 1.64965C210.19 2.16965 210.63 2.65965 211.32 2.37965C211.73 2.20965 212.13 1.92965 212.6 1.61965C212.91 2.49965 213.68 2.80965 214.52 2.86965L215.58 3.36965L215.9 4.05965C216.55 4.37965 216.48 4.90965 216.34 5.48965" fill="#90BEFB"/>
<path d="M166.65 10.9292C166.4 12.6692 165.51 12.4992 166.76 13.8592C167.07 14.1992 167.42 14.8092 167.72 15.2692C168.06 15.7992 167.79 16.6392 167.96 17.1992L168.36 18.5592L168.9 20.2892C167.84 21.4892 166.77 22.5292 165.58 23.6092C164.83 24.2792 164.14 25.1692 163.35 25.7492C162.59 26.3192 162.67 26.7992 162.99 27.5792L165.37 33.3392L168.42 40.5292L171.85 48.8592L173.97 53.9692L174.84 56.1292L176.08 59.1992L176.6 60.4992L177.17 61.8092C177.34 62.1992 176.04 63.3192 175.61 63.4692L174.81 62.7892C174.54 62.3092 174.04 61.7592 173.46 62.0292C172.71 62.3692 172.3 61.9692 171.6 61.7892C169.71 61.3092 169.5 61.7392 168.61 60.9292C168.2 60.5492 167.28 60.5392 166.76 60.2092C165.37 59.3092 165.54 59.7792 164.36 59.2292L163.34 58.7492C162.78 58.0192 162.5 56.9992 162.14 56.1292L161.42 54.4092L159.65 50.2392L156.69 43.0592L155.87 41.2292L154.61 38.3192L153.59 35.9292L152.53 36.0892L152.34 35.0192C152.12 34.8992 151.92 34.7992 151.82 34.7292C151.46 34.4892 152.23 34.0392 151.92 33.2992L151.11 31.3592C150.99 31.0792 150.58 30.6192 150.62 30.3492L150.74 29.6592C150.77 29.5092 150.35 29.3192 150.28 29.1792C150.09 28.8392 149.78 28.2292 149.61 27.8792C149.73 27.1992 149.56 26.7292 149.41 26.1192C149.28 25.5992 149.52 24.8092 148.7 24.6392L148.4 24.5792C147.9 24.4792 148.86 23.5392 149.01 23.3892L150.82 21.6492L154.56 17.9692L157.68 14.7792L159.44 13.0392L161.03 11.4892C162.61 9.93922 163.64 8.80922 165.56 7.44922C165.94 7.73922 166.06 8.15922 166.06 8.58922C166.06 9.70922 166.95 8.97922 166.83 9.81922L166.67 10.9592L166.65 10.9292Z" fill="#90BEFB"/>
</g>
</g>
<defs>
<clipPath id="clip0_2554_8935">
<rect width="216.44" height="99.27" fill="white"/>
</clipPath>
</defs>
</svg>
