<svg width="210" height="229" viewBox="0 0 210 229" fill="none" xmlns="http://www.w3.org/2000/svg">
<g clip-path="url(#clip0_2554_17307)">
<mask id="mask0_2554_17307" style="mask-type:luminance" maskUnits="userSpaceOnUse" x="0" y="0" width="210" height="229">
<path d="M209.24 0H0V228.29H209.24V0Z" fill="white"/>
</mask>
<g mask="url(#mask0_2554_17307)">
<path d="M5.25934 173.92L7.84934 223.28L16.7493 222.81L14.1593 173.44C14.0293 171.05 16.0193 168.86 18.4193 168.73C20.8193 168.6 23.0293 170.58 23.1493 172.97L25.0793 209.81C25.4693 217.2 31.5593 222.76 39.3293 222.35C46.7193 221.96 52.2793 215.8 51.8893 208.42L49.9593 171.57C49.8293 169.18 51.8193 166.99 54.2193 166.86C56.6193 166.73 58.8293 168.71 58.9493 171.1L61.5393 220.46L70.4393 219.99L67.8493 170.62C67.5393 163.25 61.3693 157.69 53.6093 158.1C46.2193 158.49 40.6593 164.66 41.0493 172.03L42.9793 208.88C43.1093 211.27 41.1193 213.46 38.7193 213.59C36.3193 213.72 34.1093 211.74 33.9893 209.35L32.0593 172.5C31.6693 165.13 25.5093 159.57 18.1093 159.96C10.3493 160.37 4.77934 166.54 5.24934 173.9L5.25934 173.92Z" fill="#90BEFB"/>
<path d="M99.0698 176.981L80.4098 156.741L107.65 160.841L99.0698 176.981ZM109.63 172.201C108.87 173.631 107.07 174.181 105.63 173.411C104.2 172.651 103.64 170.851 104.4 169.421C105.16 167.991 106.97 167.441 108.4 168.201C109.83 168.961 110.38 170.781 109.63 172.191V172.201ZM114.74 198.221C115.56 196.671 115.38 194.831 114.22 193.431C114.15 193.341 113.96 193.131 113.88 193.051L104.94 183.351L116.23 162.121L129.17 164.061V164.041C131.2 164.531 133.13 163.661 134.14 161.761C135.25 159.681 134.46 157.001 132.16 155.781C131.59 155.481 130.98 155.321 130.37 155.291L72.8998 148.051C71.0698 147.801 69.2698 148.661 68.4098 150.291C67.4698 152.051 67.8298 154.071 68.9498 155.361L107.32 199.021C107.67 199.441 108.12 199.801 108.62 200.071C110.92 201.291 113.54 200.511 114.75 198.231L114.74 198.221Z" fill="#90BEFB"/>
<path d="M91.04 116.71C91.71 115.21 91.04 113.44 89.53 112.77C88.03 112.1 86.26 112.78 85.59 114.28C84.92 115.77 85.6 117.55 87.1 118.21C88.6 118.88 90.37 118.2 91.04 116.7M85.54 89.7502L81.68 98.4102C75.15 96.5702 69.28 99.8302 66.61 105.84C62.18 115.79 67.61 120.66 70.95 122.15C83.62 127.79 87.47 89.8002 110.1 99.8802C122.1 105.22 122.28 117.31 117.33 128.43C112.57 139.13 102.02 146.12 90.52 140.92L94.37 132.26C100.91 135.25 107.35 131.42 110.11 125.22C114.27 115.87 111.79 110.44 106.49 108.08C92.35 101.78 89.73 140.32 68.13 130.7C58.78 126.54 53.34 116.19 59.38 102.63C64.91 90.2202 76.51 86.7302 85.53 89.7602" fill="#90BEFB"/>
<path d="M53.7695 87.0106L61.2395 90.3406L80.3295 47.4706L72.8595 44.1406L53.7695 87.0106ZM76.4995 76.2906L118.08 94.8806L121.74 86.6706L80.1295 68.1406C77.9495 67.1706 75.2795 68.1806 74.3195 70.3506C73.2595 72.7306 74.3195 75.3106 76.5095 76.2806L76.4995 76.2906Z" fill="#90BEFB"/>
<path d="M123.28 75.8205C121.84 76.6205 120 76.0805 119.19 74.6205C118.38 73.1605 118.9 71.3205 120.34 70.5205C121.78 69.7205 123.62 70.2605 124.42 71.7205C125.23 73.1805 124.71 75.0205 123.27 75.8205M133.16 31.4705L102.89 48.2505L132.92 102.42L163.19 85.6405C165.14 84.5605 165.98 82.0505 164.82 79.9705C163.74 78.0205 161.18 77.4005 159.22 78.4905L136.75 90.9405L127.67 74.5505L150.14 62.1005C152.09 61.0205 152.93 58.5205 151.77 56.4305C150.69 54.4805 148.13 53.8605 146.17 54.9405L123.7 67.3905L114.65 51.0705L137.12 38.6205C139.07 37.5405 139.91 35.0305 138.76 32.9605C137.68 31.0105 135.11 30.3905 133.16 31.4705Z" fill="#90BEFB"/>
<path d="M167.41 29.6505C163.47 33.0805 157.67 32.6805 154.24 28.7405C150.81 24.8005 151.22 19.0005 155.17 15.5705C159.11 12.1405 164.91 12.5405 168.34 16.4805C171.77 20.4305 171.36 26.2205 167.41 29.6505ZM135.92 21.4605L176.56 68.2105L183.39 62.2705L165.82 42.0605L196.31 51.0405L204.23 44.1505L173.59 35.1105C180.33 28.5405 180.74 18.2705 174.51 11.1105C168.05 3.67049 157.24 2.92049 149.8 9.39049L135.92 21.4505V21.4605Z" fill="#90BEFB"/>
<path d="M1.55932 198.87C1.41932 196.11 3.52932 193.76 6.28932 193.61C9.04932 193.47 11.3993 195.59 11.5493 198.35C11.6893 201.1 9.56932 203.46 6.81932 203.6C6.72932 203.6 6.63932 203.61 6.54932 203.61C3.90932 203.61 1.69932 201.54 1.55932 198.87Z" fill="black"/>
<path d="M11.7595 223.081C11.6195 220.331 13.7295 217.971 16.4895 217.831C19.2495 217.681 21.5995 219.801 21.7495 222.561C21.8895 225.321 19.7695 227.671 17.0095 227.821H16.7495C14.1095 227.821 11.8995 225.751 11.7595 223.081Z" fill="black"/>
<path d="M10.4597 198.4C10.3197 195.64 12.4397 193.29 15.1997 193.15C17.9497 193 20.3097 195.12 20.4497 197.88C20.5997 200.64 18.4797 202.99 15.7197 203.13C15.6297 203.14 15.5397 203.14 15.4597 203.14C12.8097 203.14 10.6097 201.07 10.4597 198.4Z" fill="black"/>
<path d="M13.4391 169.011C13.2891 166.251 15.4091 163.901 18.1691 163.751C20.9191 163.611 23.2791 165.731 23.4191 168.491C23.5691 171.241 21.4491 173.601 18.6891 173.741C18.5991 173.751 18.5091 173.751 18.4191 173.751C15.7791 173.751 13.5791 171.681 13.4391 169.011Z" fill="black"/>
<path d="M18.1598 173.25C18.0098 170.49 20.1298 168.14 22.8898 167.99C25.6498 167.85 27.9998 169.97 28.1398 172.72C28.2898 175.48 26.1698 177.83 23.4098 177.98C23.3198 177.98 23.2398 177.99 23.1498 177.99C20.5098 177.99 18.2998 175.92 18.1598 173.25Z" fill="black"/>
<path d="M20.0993 210.081C19.9493 207.331 22.0693 204.971 24.8293 204.831C27.5893 204.681 29.9393 206.801 30.0893 209.561C30.2293 212.321 28.1093 214.671 25.3493 214.811C25.2593 214.821 25.1693 214.821 25.0793 214.821C22.4493 214.821 20.2393 212.751 20.0993 210.081Z" fill="black"/>
<path d="M34.3298 222.621C34.1898 219.861 36.3098 217.511 39.0698 217.371C41.8198 217.221 44.1798 219.341 44.3198 222.101C44.4598 224.861 42.3398 227.211 39.5898 227.351C39.4998 227.361 39.4098 227.361 39.3198 227.361C36.6798 227.361 34.4698 225.291 34.3298 222.621Z" fill="black"/>
<path d="M46.9098 208.7C46.7598 205.94 48.8798 203.59 51.6398 203.44C54.3898 203.3 56.7498 205.42 56.8898 208.17C57.0398 210.93 54.9198 213.28 52.1598 213.43H51.8898C49.2498 213.43 47.0398 211.37 46.9098 208.7Z" fill="black"/>
<path d="M44.9694 171.841C44.8294 169.091 46.9494 166.731 49.7094 166.591C52.4594 166.441 54.8194 168.561 54.9594 171.321C55.1094 174.081 52.9894 176.431 50.2294 176.581H49.9594C47.3194 176.581 45.1094 174.511 44.9694 171.841Z" fill="black"/>
<path d="M49.2399 167.131C49.0899 164.381 51.2099 162.021 53.9699 161.881C56.7299 161.731 59.0799 163.851 59.2199 166.611C59.3699 169.371 57.2499 171.721 54.4899 171.871H54.2299C51.5799 171.871 49.3799 169.801 49.2399 167.131Z" fill="black"/>
<path d="M53.9694 171.381C53.8194 168.621 55.9394 166.261 58.6994 166.121C61.4594 165.971 63.8094 168.091 63.9594 170.851C64.0994 173.601 61.9894 175.961 59.2294 176.101C59.1394 176.111 59.0494 176.111 58.9594 176.111C56.3194 176.111 54.1094 174.041 53.9694 171.381Z" fill="black"/>
<path d="M55.2595 196.05C55.1195 193.3 57.2395 190.94 59.9895 190.8C62.7495 190.65 65.1095 192.77 65.2495 195.53C65.3895 198.29 63.2695 200.64 60.5195 200.79H60.2495C57.6095 200.79 55.3995 198.72 55.2595 196.05Z" fill="black"/>
<path d="M65.4597 220.27C65.3197 217.51 67.4397 215.16 70.1897 215.01C72.9497 214.87 75.2997 216.99 75.4497 219.75C75.5897 222.5 73.4697 224.86 70.7097 225C70.6297 225 70.5397 225.01 70.4497 225.01C67.8097 225.01 65.5997 222.94 65.4597 220.27Z" fill="black"/>
<path d="M64.1598 195.591C64.0098 192.831 66.1298 190.481 68.8898 190.331C71.6498 190.191 73.9998 192.311 74.1398 195.061C74.2898 197.821 72.1698 200.171 69.4098 200.321H69.1498C66.4998 200.321 64.2998 198.251 64.1598 195.591Z" fill="black"/>
<path d="M48.6198 158.381C48.4698 155.621 50.5898 153.271 53.3498 153.131C56.1098 152.991 58.4598 155.111 58.6098 157.861C58.7498 160.621 56.6298 162.971 53.8698 163.111C53.7798 163.121 53.6898 163.121 53.6098 163.121C50.9598 163.121 48.7598 161.051 48.6198 158.381Z" fill="black"/>
<path d="M36.07 172.31C35.92 169.55 38.04 167.2 40.8 167.05C43.56 166.91 45.91 169.03 46.05 171.79C46.2 174.54 44.08 176.9 41.32 177.04C41.23 177.04 41.14 177.05 41.06 177.05C38.42 177.05 36.21 174.98 36.07 172.31Z" fill="black"/>
<path d="M37.9997 209.161C37.8497 206.411 39.9697 204.051 42.7297 203.911C45.4897 203.761 47.8397 205.881 47.9897 208.641C48.1297 211.401 46.0097 213.751 43.2497 213.891C43.1697 213.901 43.0797 213.901 42.9897 213.901C40.3497 213.901 38.1397 211.831 37.9997 209.161Z" fill="black"/>
<path d="M33.7399 213.871C33.5899 211.121 35.7099 208.761 38.4699 208.621C41.2299 208.471 43.5799 210.591 43.7199 213.351C43.8699 216.111 41.7499 218.461 38.9899 218.611H38.7299C36.0799 218.611 33.8699 216.541 33.7399 213.871Z" fill="black"/>
<path d="M28.9997 209.631C28.8597 206.881 30.9797 204.521 33.7397 204.381C36.4897 204.241 38.8397 206.351 38.9897 209.111C39.1297 211.871 37.0197 214.221 34.2597 214.371H33.9897C31.3497 214.371 29.1397 212.301 28.9997 209.631Z" fill="black"/>
<path d="M27.07 172.78C26.93 170.03 29.05 167.67 31.8 167.53C34.56 167.38 36.91 169.5 37.06 172.26C37.2 175.02 35.09 177.37 32.33 177.52H32.06C29.42 177.52 27.21 175.45 27.07 172.78Z" fill="black"/>
<path d="M13.1198 160.24C12.9798 157.48 15.0998 155.13 17.8598 154.99C20.6198 154.85 22.9698 156.97 23.1098 159.72C23.2498 162.48 21.1298 164.83 18.3798 164.98H18.1098C15.4698 164.98 13.2598 162.91 13.1198 160.24Z" fill="black"/>
<path d="M0.269596 174.251C0.0895958 171.491 2.1796 169.111 4.9396 168.931C7.6896 168.761 10.0696 170.851 10.2496 173.611C10.4296 176.361 8.3396 178.741 5.5796 178.921C5.4696 178.921 5.3596 178.931 5.2496 178.931C2.6396 178.931 0.439596 176.891 0.269596 174.251Z" fill="black"/>
<path d="M5.25977 178.921C2.49977 178.921 0.259766 176.691 0.259766 173.931C0.259766 171.161 2.49977 168.931 5.25977 168.931C8.01977 168.931 10.2598 171.161 10.2598 173.931C10.2598 176.691 8.01977 178.921 5.25977 178.921Z" fill="black"/>
<path d="M110.36 196.601C108.61 194.461 108.92 191.311 111.05 189.561C113.19 187.811 116.34 188.121 118.09 190.251C119.84 192.391 119.53 195.541 117.4 197.291C116.47 198.061 115.35 198.431 114.23 198.431C112.78 198.431 111.35 197.801 110.36 196.601Z" fill="black"/>
<path d="M109.869 195.9C108.499 193.5 109.329 190.44 111.729 189.07C114.129 187.7 117.179 188.54 118.549 190.93C119.919 193.34 119.089 196.39 116.689 197.76C115.909 198.21 115.059 198.42 114.219 198.42C112.479 198.42 110.789 197.52 109.869 195.9Z" fill="black"/>
<path d="M110.39 196.631C110.39 196.631 110.35 196.591 110.34 196.591C108.43 194.681 108.38 191.581 110.25 189.611C112.15 187.601 115.32 187.521 117.32 189.421C117.56 189.651 117.61 189.721 117.71 189.831C119.59 191.851 119.48 195.011 117.45 196.891C116.49 197.791 115.27 198.231 114.05 198.231C112.71 198.231 111.37 197.691 110.39 196.631Z" fill="black"/>
<path d="M101.26 186.74C99.3899 184.71 99.5099 181.55 101.54 179.67C103.58 177.8 106.74 177.93 108.61 179.96C110.48 181.99 110.35 185.16 108.32 187.03C107.36 187.91 106.15 188.35 104.94 188.35C103.59 188.35 102.25 187.81 101.26 186.74Z" fill="black"/>
<path d="M113.87 166.531C111.43 165.231 110.5 162.211 111.8 159.771C113.1 157.331 116.12 156.401 118.56 157.701C121 159.001 121.93 162.021 120.63 164.461C119.73 166.151 118 167.121 116.21 167.121C115.42 167.121 114.61 166.931 113.87 166.531Z" fill="black"/>
<path d="M128.409 169C125.679 168.59 123.799 166.05 124.209 163.32C124.619 160.59 127.169 158.71 129.899 159.11C132.629 159.53 134.509 162.07 134.099 164.8C133.729 167.28 131.599 169.06 129.159 169.06C128.919 169.06 128.669 169.04 128.409 169Z" fill="black"/>
<path d="M128.349 168.98C125.619 168.53 123.779 165.95 124.239 163.23V163.21C124.689 160.49 127.269 158.65 129.989 159.1C132.709 159.56 134.559 162.13 134.099 164.86C133.689 167.32 131.579 169.05 129.169 169.05C128.899 169.05 128.619 169.03 128.349 168.98Z" fill="black"/>
<path d="M131.789 166.17C129.349 164.88 128.419 161.85 129.719 159.41C131.009 156.97 134.039 156.05 136.479 157.34C138.919 158.64 139.849 161.66 138.549 164.1C137.649 165.79 135.919 166.76 134.129 166.76C133.339 166.76 132.539 166.57 131.789 166.17Z" fill="black"/>
<path d="M129.809 160.191C127.369 158.901 126.449 155.871 127.739 153.431C129.039 150.991 132.069 150.071 134.499 151.361C136.939 152.661 137.869 155.691 136.569 158.121C135.669 159.811 133.939 160.781 132.149 160.781C131.359 160.781 130.559 160.591 129.809 160.191Z" fill="black"/>
<path d="M130.03 160.271C127.31 160.091 125.23 157.761 125.37 155.031C125.51 152.271 127.86 150.151 130.62 150.291C131.29 150.331 131.96 150.431 132.62 150.611C135.28 151.351 136.84 154.101 136.11 156.761C135.5 158.981 133.48 160.431 131.29 160.431C130.87 160.431 130.45 160.381 130.03 160.271Z" fill="black"/>
<path d="M101 156.621C98.2597 156.281 96.3197 153.781 96.6697 151.041C97.0097 148.301 99.5197 146.361 102.25 146.701C105 147.051 106.94 149.551 106.59 152.291C106.27 154.811 104.12 156.661 101.64 156.661C101.43 156.661 101.22 156.651 101 156.621Z" fill="black"/>
<path d="M66.0493 154.691C63.6093 153.391 62.6893 150.371 63.9893 147.931C65.2793 145.491 68.3093 144.571 70.7493 145.861C73.1893 147.161 74.1093 150.191 72.8193 152.631C71.9193 154.321 70.1893 155.281 68.3993 155.281C67.6093 155.281 66.7993 155.091 66.0493 154.691Z" fill="black"/>
<path d="M65.18 158.64C63.36 156.56 63.57 153.4 65.65 151.58C67.73 149.76 70.89 149.97 72.71 152.05C74.53 154.13 74.32 157.29 72.24 159.1C71.29 159.94 70.12 160.34 68.95 160.34C67.56 160.34 66.17 159.77 65.18 158.64Z" fill="black"/>
<path d="M84.3699 180.471C82.5499 178.401 82.7499 175.241 84.8299 173.421C86.8999 171.601 90.0599 171.801 91.8799 173.881C93.7099 175.951 93.4999 179.111 91.4299 180.931C90.4799 181.771 89.2999 182.171 88.1299 182.171C86.7399 182.171 85.3599 181.601 84.3699 180.471Z" fill="black"/>
<path d="M106.259 204.47C105.739 204.19 105.239 203.86 104.769 203.48C102.619 201.75 102.289 198.61 104.019 196.46C105.739 194.32 108.859 193.97 110.999 195.67C113.409 196.97 114.319 199.99 113.029 202.41C112.129 204.1 110.399 205.06 108.609 205.06C107.819 205.06 107.009 204.87 106.259 204.47Z" fill="black"/>
<path d="M112.4 202.64C109.96 201.34 109.03 198.32 110.33 195.88C111.62 193.44 114.65 192.51 117.09 193.81C119.53 195.1 120.46 198.13 119.16 200.57C118.26 202.26 116.53 203.22 114.74 203.22C113.95 203.22 113.15 203.03 112.4 202.64Z" fill="black"/>
<path d="M109.75 198.221C109.75 195.461 111.98 193.221 114.75 193.221C117.51 193.221 119.75 195.461 119.75 198.221C119.75 200.981 117.51 203.221 114.75 203.221C111.98 203.221 109.75 200.981 109.75 198.221Z" fill="black"/>
<path d="M103.289 177.831C100.849 176.541 99.9194 173.511 101.219 171.071C102.509 168.631 105.539 167.701 107.979 169.001C110.419 170.291 111.349 173.321 110.049 175.761C109.149 177.451 107.419 178.421 105.629 178.421C104.839 178.421 104.039 178.231 103.289 177.831Z" fill="black"/>
<path d="M102.06 173.84C99.62 172.54 98.69 169.51 99.99 167.07C101.29 164.64 104.31 163.71 106.75 165C109.19 166.3 110.12 169.33 108.82 171.77C107.92 173.46 106.19 174.42 104.4 174.42C103.61 174.42 102.81 174.23 102.06 173.84Z" fill="black"/>
<path d="M106.06 172.621C103.62 171.321 102.69 168.301 103.99 165.861C105.29 163.421 108.32 162.491 110.75 163.791C113.19 165.091 114.12 168.111 112.82 170.551C111.92 172.241 110.19 173.211 108.4 173.211C107.61 173.211 106.81 173.021 106.06 172.621Z" fill="black"/>
<path d="M107.289 176.62C104.849 175.32 103.919 172.3 105.219 169.86C106.509 167.42 109.539 166.49 111.979 167.78C114.419 169.08 115.349 172.11 114.049 174.55C113.149 176.24 111.419 177.2 109.629 177.2C108.839 177.2 108.039 177.01 107.289 176.62Z" fill="black"/>
<path d="M76.7397 160.13C74.8697 158.1 74.9997 154.93 77.0297 153.06C79.0597 151.19 82.2197 151.32 84.0897 153.35C85.9597 155.38 85.8397 158.54 83.8097 160.41C82.8397 161.3 81.6297 161.74 80.4197 161.74C79.0697 161.74 77.7297 161.2 76.7397 160.13Z" fill="black"/>
<path d="M106.909 165.78C104.179 165.37 102.299 162.83 102.709 160.1C103.119 157.36 105.669 155.49 108.399 155.9C111.129 156.31 113.009 158.85 112.599 161.58C112.229 164.06 110.099 165.84 107.669 165.84C107.419 165.84 107.169 165.82 106.909 165.78Z" fill="black"/>
<path d="M96.7294 181.391C94.2894 180.101 93.3694 177.071 94.6594 174.631C95.9594 172.191 98.9794 171.271 101.419 172.561C103.859 173.861 104.789 176.881 103.489 179.321C102.589 181.011 100.859 181.981 99.0694 181.981C98.2794 181.981 97.4794 181.791 96.7294 181.391Z" fill="black"/>
<path d="M79.6499 102.981C77.1299 101.851 75.9999 98.9006 77.1199 96.3706C78.2399 93.8506 81.1999 92.7206 83.7199 93.8406C86.2399 94.9606 87.3799 97.9206 86.2499 100.441C85.4199 102.301 83.5999 103.411 81.6799 103.411C80.9999 103.411 80.3099 103.271 79.6499 102.981Z" fill="black"/>
<path d="M64.58 110.401C62.06 109.281 60.92 106.331 62.05 103.801C63.17 101.281 66.12 100.141 68.65 101.271C71.17 102.391 72.31 105.351 71.18 107.871C70.35 109.731 68.53 110.841 66.61 110.841C65.93 110.841 65.24 110.701 64.58 110.401Z" fill="black"/>
<path d="M68.9097 126.711C66.3897 125.591 65.2597 122.631 66.3797 120.111C67.4997 117.581 70.4597 116.451 72.9797 117.581C75.4997 118.701 76.6397 121.651 75.5197 124.171C74.6897 126.041 72.8597 127.141 70.9497 127.141C70.2697 127.141 69.5697 127.001 68.9097 126.711Z" fill="black"/>
<path d="M85.4497 110.961C83.2697 109.271 82.8797 106.131 84.5797 103.951C86.2697 101.771 89.4097 101.381 91.5897 103.071C93.7697 104.771 94.1697 107.911 92.4697 110.091C91.4797 111.361 90.0097 112.021 88.5197 112.021C87.4497 112.021 86.3597 111.671 85.4497 110.961Z" fill="black"/>
<path d="M115.3 132.981C112.78 131.861 111.64 128.911 112.76 126.381C113.89 123.861 116.84 122.721 119.37 123.851C121.89 124.971 123.02 127.931 121.9 130.451C121.07 132.311 119.24 133.421 117.33 133.421C116.65 133.421 115.96 133.281 115.3 132.981Z" fill="black"/>
<path d="M88.4598 145.46C85.9498 144.32 84.8298 141.36 85.9698 138.85C87.1098 136.33 90.0698 135.21 92.5898 136.35C95.0998 137.49 96.2198 140.45 95.0798 142.97C94.2398 144.82 92.4198 145.91 90.5198 145.91C89.8298 145.91 89.1298 145.77 88.4598 145.46Z" fill="black"/>
<path d="M92.3492 136.82C89.8192 135.69 88.6892 132.74 89.8092 130.21C90.9392 127.69 93.8892 126.56 96.4192 127.68C98.9392 128.8 100.069 131.76 98.9492 134.28C98.1192 136.14 96.2892 137.25 94.3792 137.25C93.6992 137.25 93.0092 137.11 92.3492 136.82Z" fill="black"/>
<path d="M108.08 129.771C105.55 128.651 104.42 125.691 105.54 123.171C106.66 120.651 109.62 119.511 112.14 120.641C114.67 121.761 115.8 124.711 114.68 127.241C113.85 129.101 112.02 130.211 110.11 130.211C109.43 130.211 108.74 130.071 108.08 129.771Z" fill="black"/>
<path d="M104.46 112.63C101.94 111.51 100.81 108.55 101.93 106.03C103.05 103.51 106.01 102.37 108.53 103.5C111.05 104.62 112.19 107.57 111.06 110.1C110.23 111.96 108.41 113.06 106.49 113.06C105.81 113.06 105.12 112.93 104.46 112.63Z" fill="black"/>
<path d="M86.0192 126.48C83.7592 124.89 83.2192 121.77 84.8092 119.51C86.3992 117.26 89.5192 116.71 91.7792 118.31C94.0392 119.9 94.5792 123.02 92.9792 125.27C92.0092 126.65 90.4592 127.39 88.8892 127.39C87.8992 127.39 86.8892 127.1 86.0192 126.48Z" fill="black"/>
<path d="M57.36 107.19C54.83 106.06 53.7 103.11 54.82 100.59C55.94 98.0604 58.9 96.9304 61.42 98.0504C63.94 99.1704 65.08 102.13 63.96 104.65C63.13 106.51 61.3 107.62 59.39 107.62C58.71 107.62 58.02 107.48 57.36 107.19Z" fill="black"/>
<path d="M83.9499 94.4909C81.3299 93.6109 79.9199 90.7709 80.7999 88.1609C81.6799 85.5409 84.5199 84.1309 87.1299 85.0109C89.7499 85.8909 91.1599 88.7209 90.2799 91.3409C89.5799 93.4309 87.6299 94.7509 85.5399 94.7509C85.0099 94.7509 84.4799 94.6709 83.9499 94.4909Z" fill="black"/>
<path d="M87.4995 117.34C84.9795 116.22 83.8495 113.26 84.9695 110.74C86.0895 108.22 89.0495 107.08 91.5695 108.21C94.0895 109.33 95.2295 112.29 94.1095 114.81C93.2795 116.67 91.4495 117.78 89.5395 117.78C88.8595 117.78 88.1695 117.64 87.4995 117.34Z" fill="black"/>
<path d="M83.5699 118.86C81.0399 117.73 79.9099 114.78 81.0299 112.26C82.1499 109.73 85.1099 108.6 87.6299 109.72C90.1499 110.84 91.2899 113.8 90.1699 116.32C89.3399 118.18 87.5099 119.29 85.5899 119.29C84.9199 119.29 84.2299 119.15 83.5699 118.86Z" fill="black"/>
<path d="M85.0797 122.791C82.5497 121.671 81.4197 118.711 82.5397 116.191C83.6697 113.661 86.6197 112.531 89.1497 113.661C91.6697 114.781 92.7997 117.741 91.6797 120.261C90.8497 122.121 89.0197 123.221 87.1097 123.221C86.4297 123.221 85.7397 123.081 85.0797 122.791Z" fill="black"/>
<path d="M89.0093 121.281C86.4893 120.161 85.3593 117.201 86.4793 114.681C87.5993 112.161 90.5593 111.021 93.0793 112.151C95.5993 113.271 96.7393 116.231 95.6093 118.751C94.7893 120.611 92.9593 121.721 91.0393 121.721C90.3693 121.721 89.6693 121.581 89.0093 121.281Z" fill="black"/>
<path d="M95.2494 90.1505C92.7294 89.0205 91.5994 86.0705 92.7294 83.5405C93.8594 81.0205 96.8194 79.8905 99.3294 81.0205C101.859 82.1505 102.989 85.1105 101.859 87.6305C101.029 89.4905 99.1994 90.5905 97.2894 90.5905C96.6094 90.5905 95.9194 90.4505 95.2494 90.1505Z" fill="black"/>
<path d="M119.71 91.2402C117.18 90.1102 116.05 87.1602 117.17 84.6402C118.3 82.1102 121.25 80.9802 123.78 82.1002C126.3 83.2302 127.43 86.1802 126.31 88.7002C125.48 90.5702 123.65 91.6702 121.74 91.6702C121.06 91.6702 120.37 91.5302 119.71 91.2402Z" fill="black"/>
<path d="M98.8993 81.97C96.3793 80.85 95.2393 77.89 96.3693 75.37C97.4893 72.85 100.449 71.71 102.969 72.84C105.489 73.96 106.629 76.92 105.499 79.44C104.669 81.3 102.849 82.41 100.929 82.41C100.249 82.41 99.5593 82.27 98.8993 81.97Z" fill="black"/>
<path d="M72.2896 74.9202C69.7596 73.8002 68.6296 70.8502 69.7496 68.3202C70.8696 65.8002 73.8296 64.6602 76.3496 65.7902C78.8696 66.9102 80.0096 69.8602 78.8896 72.3902C78.0596 74.2502 76.2296 75.3602 74.3096 75.3602C73.6296 75.3602 72.9496 75.2202 72.2896 74.9202Z" fill="black"/>
<path d="M74.4697 80.8603C71.9497 79.7303 70.8097 76.7803 71.9397 74.2603C73.0597 71.7303 76.0196 70.6003 78.5396 71.7203C81.0596 72.8403 82.1996 75.8003 81.0696 78.3203C80.2396 80.1803 78.4196 81.2903 76.4996 81.2903C75.8196 81.2903 75.1297 81.1503 74.4697 80.8603Z" fill="black"/>
<path d="M59.2193 94.9102C56.6893 93.7802 55.5593 90.8302 56.6793 88.3102C57.8093 85.7802 60.7593 84.6502 63.2793 85.7702C65.8093 86.9002 66.9393 89.8502 65.8193 92.3702C64.9893 94.2402 63.1593 95.3401 61.2493 95.3401C60.5693 95.3401 59.8793 95.2002 59.2193 94.9102Z" fill="black"/>
<path d="M68.7598 73.47C66.2398 72.35 65.0998 69.39 66.2198 66.87C67.3498 64.35 70.2998 63.21 72.8298 64.34C75.3498 65.46 76.4798 68.42 75.3598 70.94C74.5298 72.8 72.7098 73.91 70.7898 73.91C70.1098 73.91 69.4198 73.77 68.7598 73.47Z" fill="black"/>
<path d="M70.83 48.7103C68.31 47.5903 67.17 44.6303 68.3 42.1103C69.42 39.5903 72.38 38.4503 74.9 39.5803C77.42 40.7003 78.55 43.6603 77.43 46.1803C76.6 48.0403 74.78 49.1503 72.86 49.1503C72.18 49.1503 71.49 49.0103 70.83 48.7103Z" fill="black"/>
<path d="M61.2896 70.1504C58.7596 69.0204 57.6296 66.0704 58.7496 63.5504C59.8696 61.0204 62.8296 59.8904 65.3496 61.0104C67.8796 62.1304 69.0096 65.0904 67.8896 67.6104C67.0596 69.4804 65.2296 70.5804 63.3196 70.5804C62.6396 70.5804 61.9496 70.4404 61.2896 70.1504Z" fill="black"/>
<path d="M98.5298 50.6701C97.1898 48.2601 98.0598 45.2201 100.47 43.8801C102.89 42.5401 105.93 43.4101 107.27 45.8301C108.61 48.2401 107.74 51.2801 105.32 52.6201C104.56 53.0501 103.72 53.2501 102.91 53.2501C101.15 53.2501 99.4398 52.3201 98.5298 50.6701Z" fill="black"/>
<path d="M113.539 77.7601C112.199 75.3401 113.079 72.3001 115.489 70.9601C117.909 69.6201 120.949 70.5001 122.289 72.9101C123.619 75.3301 122.749 78.3701 120.339 79.7101C119.569 80.1301 118.739 80.3401 117.919 80.3401C116.159 80.3401 114.449 79.4101 113.539 77.7601Z" fill="black"/>
<path d="M158.82 88.0706C157.48 85.6506 158.35 82.6106 160.77 81.2706C163.18 79.9306 166.23 80.8106 167.56 83.2206C168.9 85.6406 168.03 88.6806 165.62 90.0206C164.85 90.4406 164.02 90.6506 163.2 90.6506C161.44 90.6506 159.73 89.7206 158.82 88.0706Z" fill="black"/>
<path d="M160.449 82.4008C159.109 79.9908 159.979 76.9508 162.399 75.6008C164.809 74.2608 167.859 75.1308 169.199 77.5508C170.539 79.9708 169.669 83.0108 167.249 84.3508C166.479 84.7708 165.649 84.9808 164.829 84.9808C163.069 84.9808 161.369 84.0508 160.449 82.4008Z" fill="black"/>
<path d="M154.85 80.9203C153.51 78.5003 154.39 75.4603 156.8 74.1203C159.22 72.7803 162.26 73.6503 163.6 76.0703C164.94 78.4803 164.07 81.5303 161.65 82.8703C160.88 83.2903 160.05 83.4903 159.23 83.4903C157.47 83.4903 155.77 82.5603 154.85 80.9203Z" fill="black"/>
<path d="M132.39 93.3704C131.05 90.9504 131.92 87.9104 134.34 86.5704C136.75 85.2304 139.8 86.1104 141.13 88.5204C142.47 90.9404 141.6 93.9804 139.18 95.3204C138.42 95.7404 137.58 95.9504 136.77 95.9504C135.01 95.9504 133.3 95.0204 132.39 93.3704Z" fill="black"/>
<path d="M123.309 76.9802C121.969 74.5702 122.839 71.5202 125.249 70.1802C127.669 68.8502 130.709 69.7202 132.049 72.1302C133.389 74.5502 132.519 77.5902 130.099 78.9302C129.329 79.3602 128.499 79.5602 127.679 79.5602C125.919 79.5602 124.219 78.6302 123.309 76.9802Z" fill="black"/>
<path d="M145.77 64.5306C144.43 62.1106 145.3 59.0706 147.72 57.7306C150.13 56.3906 153.18 57.2706 154.52 59.6806C155.86 62.1006 154.98 65.1406 152.57 66.4806C151.8 66.9006 150.97 67.1106 150.15 67.1106C148.39 67.1106 146.68 66.1806 145.77 64.5306Z" fill="black"/>
<path d="M147.4 58.8609C146.07 56.4509 146.94 53.4009 149.35 52.0709C151.77 50.7309 154.81 51.6009 156.15 54.0109C157.49 56.4309 156.62 59.4709 154.2 60.8109C153.43 61.2409 152.6 61.4409 151.78 61.4409C150.02 61.4409 148.32 60.5109 147.4 58.8609Z" fill="black"/>
<path d="M141.8 57.3703C140.47 54.9603 141.34 51.9203 143.76 50.5803C146.17 49.2403 149.21 50.1103 150.55 52.5303C151.89 54.9403 151.02 57.9903 148.6 59.3203C147.83 59.7503 147 59.9503 146.18 59.9503C144.42 59.9503 142.72 59.0203 141.8 57.3703Z" fill="black"/>
<path d="M119.329 69.8304C117.989 67.4104 118.859 64.3704 121.279 63.0304C123.689 61.6904 126.739 62.5704 128.069 64.9804C129.409 67.4004 128.539 70.4404 126.129 71.7804C125.359 72.2004 124.529 72.4104 123.709 72.4104C121.949 72.4104 120.239 71.4804 119.329 69.8304Z" fill="black"/>
<path d="M110.289 53.5102C108.949 51.0902 109.829 48.0502 112.239 46.7102C114.659 45.3702 117.699 46.2402 119.039 48.6602C120.379 51.0702 119.499 54.1202 117.089 55.4602C116.319 55.8802 115.489 56.0802 114.669 56.0802C112.909 56.0802 111.209 55.1502 110.289 53.5102Z" fill="black"/>
<path d="M132.76 41.0503C131.42 38.6403 132.29 35.5903 134.71 34.2603C137.12 32.9203 140.16 33.7903 141.5 36.2003C142.84 38.6203 141.97 41.6603 139.55 43.0003C138.79 43.4303 137.96 43.6303 137.14 43.6303C135.38 43.6303 133.67 42.7003 132.76 41.0503Z" fill="black"/>
<path d="M134.389 35.3907C133.059 32.9807 133.929 29.9407 136.339 28.6007C138.759 27.2507 141.799 28.1307 143.139 30.5407C144.479 32.9507 143.609 36.0007 141.189 37.3407C140.419 37.7607 139.589 37.9707 138.769 37.9707C137.009 37.9707 135.309 37.0407 134.389 35.3907Z" fill="black"/>
<path d="M128.789 33.9007C127.449 31.4907 128.329 28.4407 130.739 27.1007C133.159 25.7607 136.199 26.6407 137.539 29.0507C138.879 31.4707 138.009 34.5107 135.589 35.8507C134.819 36.2707 133.989 36.4807 133.169 36.4807C131.409 36.4807 129.709 35.5507 128.789 33.9007Z" fill="black"/>
<path d="M128.159 31.4707C128.159 28.7107 130.399 26.4707 133.169 26.4707C135.929 26.4707 138.169 28.7107 138.169 31.4707C138.169 34.2407 135.929 36.4707 133.169 36.4707C130.399 36.4707 128.159 34.2407 128.159 31.4707Z" fill="black"/>
<path d="M114.82 77.0502C113.49 74.6302 114.36 71.5902 116.78 70.2502C119.19 68.9202 122.23 69.7902 123.57 72.2102C124.91 74.6202 124.03 77.6602 121.62 79.0002C120.85 79.4302 120.02 79.6302 119.2 79.6302C117.44 79.6302 115.74 78.7002 114.82 77.0502Z" fill="black"/>
<path d="M115.969 72.95C114.639 70.54 115.509 67.49 117.919 66.15C120.339 64.82 123.379 65.69 124.719 68.1C126.059 70.52 125.189 73.56 122.769 74.9C121.999 75.33 121.169 75.53 120.349 75.53C118.589 75.53 116.889 74.6 115.969 72.95Z" fill="black"/>
<path d="M120.06 74.1507C118.72 71.7407 119.59 68.6907 122.01 67.3507C124.42 66.0107 127.47 66.8907 128.8 69.3007C130.14 71.7207 129.27 74.7607 126.85 76.1007C126.09 76.5307 125.26 76.7307 124.44 76.7307C122.68 76.7307 120.97 75.8007 120.06 74.1507Z" fill="black"/>
<path d="M118.909 78.2503C117.569 75.8403 118.439 72.8003 120.859 71.4503C123.269 70.1103 126.309 70.9903 127.649 73.4003C128.999 75.8103 128.119 78.8603 125.709 80.2003C124.939 80.6203 124.109 80.8303 123.289 80.8303C121.529 80.8303 119.829 79.9003 118.909 78.2503Z" fill="black"/>
<path d="M123.28 80.8305C122.81 80.8305 122.34 80.7605 121.87 80.6305L117.79 79.4305C115.14 78.6505 113.62 75.8705 114.4 73.2205C115.18 70.5705 117.96 69.0505 120.61 69.8305L124.69 71.0305C127.34 71.8105 128.86 74.5905 128.08 77.2405C127.44 79.4205 125.45 80.8305 123.29 80.8305H123.28Z" fill="black"/>
<path d="M152.479 48.1209C150.669 46.0309 150.879 42.8709 152.969 41.0609C155.049 39.2509 158.209 39.4709 160.019 41.5609C161.829 43.6409 161.609 46.8009 159.529 48.6109C158.579 49.4309 157.419 49.8409 156.249 49.8409C154.859 49.8409 153.469 49.2509 152.479 48.1209Z" fill="black"/>
<path d="M179.619 65.5603C177.809 63.4703 178.029 60.3103 180.109 58.5003C182.199 56.6903 185.349 56.9103 187.169 58.9903C188.979 61.0803 188.759 64.2403 186.669 66.0503C185.729 66.8703 184.559 67.2703 183.389 67.2703C181.999 67.2703 180.609 66.6903 179.619 65.5603Z" fill="black"/>
<path d="M162.06 45.3403C160.25 43.2603 160.47 40.1003 162.55 38.2903C164.64 36.4803 167.79 36.7003 169.61 38.7803C171.42 40.8703 171.2 44.0303 169.11 45.8403C168.17 46.6603 167 47.0603 165.83 47.0603C164.44 47.0603 163.05 46.4803 162.06 45.3403Z" fill="black"/>
<path d="M194.91 55.8403C192.25 55.0603 190.74 52.2803 191.52 49.6303C192.3 46.9803 195.08 45.4703 197.73 46.2503C200.38 47.0303 201.89 49.8103 201.11 52.4603C200.47 54.6403 198.48 56.0503 196.32 56.0503C195.85 56.0503 195.38 55.9803 194.91 55.8403Z" fill="black"/>
<path d="M200.47 47.4399C198.66 45.3499 198.88 42.1999 200.96 40.3899C203.04 38.5799 206.2 38.7999 208.01 40.8799C209.83 42.9599 209.6 46.1199 207.52 47.9299C206.57 48.7599 205.41 49.1599 204.24 49.1599C202.85 49.1599 201.46 48.5799 200.47 47.4399Z" fill="black"/>
<path d="M172.18 39.9106C169.53 39.1306 168.02 36.3506 168.8 33.7006C169.58 31.0506 172.36 29.5406 175.01 30.3206C177.66 31.1006 179.18 33.8806 178.39 36.5306C177.75 38.7106 175.76 40.1206 173.6 40.1206C173.13 40.1206 172.65 40.0506 172.18 39.9106Z" fill="black"/>
<path d="M170.75 14.4002C168.93 12.3102 169.15 9.15018 171.24 7.34018C173.32 5.53018 176.48 5.75018 178.29 7.84018C180.1 9.92018 179.88 13.0802 177.8 14.8902C176.85 15.7102 175.68 16.1202 174.52 16.1202C173.12 16.1202 171.73 15.5302 170.75 14.4002Z" fill="black"/>
<path d="M146.029 12.6804C144.219 10.5904 144.449 7.43041 146.529 5.62041C148.609 3.81041 151.769 4.03041 153.579 6.11041C155.399 8.20041 155.169 11.3604 153.089 13.1704C152.139 13.9904 150.969 14.4004 149.809 14.4004C148.409 14.4004 147.019 13.8104 146.029 12.6804Z" fill="black"/>
<path d="M132.16 24.7409C130.34 22.6609 130.57 19.5009 132.65 17.6909C134.73 15.8709 137.89 16.1009 139.7 18.1809C141.51 20.2609 141.29 23.4209 139.21 25.2309C138.26 26.0609 137.09 26.4609 135.93 26.4609C134.53 26.4609 133.14 25.8809 132.16 24.7409Z" fill="black"/>
<path d="M150.47 32.0208C148.66 29.9308 148.89 26.7808 150.97 24.9608C153.06 23.1508 156.21 23.3808 158.03 25.4608C159.84 27.5408 159.61 30.7008 157.53 32.5108C156.58 33.3308 155.41 33.7408 154.25 33.7408C152.85 33.7408 151.46 33.1608 150.47 32.0208Z" fill="black"/>
<path d="M151.4 18.8507C149.59 16.7707 149.81 13.6107 151.9 11.8007C153.98 9.9807 157.14 10.2007 158.95 12.2907C160.76 14.3707 160.54 17.5307 158.46 19.3407C157.51 20.1707 156.34 20.5707 155.18 20.5707C153.78 20.5707 152.39 19.9907 151.4 18.8507Z" fill="black"/>
<path d="M164.57 19.7603C162.76 17.6803 162.98 14.5203 165.07 12.7103C167.15 10.9003 170.31 11.1203 172.12 13.2003C173.93 15.2903 173.71 18.4503 171.62 20.2603C170.68 21.0803 169.51 21.4803 168.35 21.4803C166.95 21.4803 165.56 20.9003 164.57 19.7603Z" fill="black"/>
<path d="M163.65 32.9302C161.83 30.8502 162.06 27.6902 164.14 25.8802C166.22 24.0702 169.38 24.2902 171.19 26.3702C173.01 28.4602 172.78 31.6102 170.7 33.4302C169.75 34.2502 168.59 34.6502 167.42 34.6502C166.03 34.6502 164.64 34.0702 163.65 32.9302Z" fill="black"/>
</g>
</g>
<defs>
<clipPath id="clip0_2554_17307">
<rect width="209.24" height="228.29" fill="white"/>
</clipPath>
</defs>
</svg>
