<svg width="319" height="367" viewBox="0 0 319 367" fill="none" xmlns="http://www.w3.org/2000/svg">
<g clip-path="url(#clip0_2554_17252)">
<mask id="mask0_2554_17252" style="mask-type:luminance" maskUnits="userSpaceOnUse" x="0" y="0" width="319" height="367">
<path d="M318.9 0H0V366.7H318.9V0Z" fill="white"/>
</mask>
<g mask="url(#mask0_2554_17252)">
<path d="M247.52 166.74L35.34 325.18C34.41 325.88 33.74 326.18 33.37 326.29C33.05 326.37 32.39 325.56 32.39 324.73V164.48C32.39 162.3 33.43 161.52 35.08 161.52H248.14C250.27 161.52 251.09 160.39 252.93 162.62L247.53 166.74H247.52ZM302.33 6.71008C299.83 4.15008 297.12 5.23008 293.95 5.23008H82.33C80.76 5.23008 79.19 5.04008 78.21 5.58008C77.17 6.17008 76.3 8.38008 76.3 9.65008L76.33 29.2201C76.33 34.5601 85.05 32.7801 89.36 32.8301C93.48 32.8801 97.74 33.2601 101.81 32.8301C107.16 32.2601 111.99 32.7201 117.37 32.7201L173.08 32.8601H180.21L218.21 32.9401L235.81 32.8601L247.64 32.7001L262.37 32.7501C269.15 32.7801 275.83 33.5101 282.66 32.3501C284.73 32.0001 286.52 33.5601 286.52 35.6701V131.74C286.52 133.63 285.08 135.08 283.33 135.08L248.36 134.92L241.74 134.97H87.41L81.88 134.92L24.81 134.95C21.99 134.95 19.63 134.11 17.2 136.59L5.77 148.31C5.03 217.83 5.24 286.97 5 355.89V361.71H30.47L32.97 360.17L282.14 173.48C283.68 172.32 284.32 170.76 286.5 171.57V358.28C286.5 359.63 288.31 361.14 289.05 361.7H311.97L313.89 358.92V18.6001L302.32 6.71008H302.33Z" fill="#90BEFB"/>
<path d="M288.96 5.21973C288.96 2.45973 291.19 0.219727 293.96 0.219727C296.72 0.219727 298.96 2.45973 298.96 5.21973C298.96 7.97973 296.72 10.2197 293.96 10.2197C291.19 10.2197 288.96 7.97973 288.96 5.21973Z" fill="black"/>
<path d="M258.72 5.21973C258.72 2.45973 260.96 0.219727 263.72 0.219727C266.49 0.219727 268.72 2.45973 268.72 5.21973C268.72 7.97973 266.49 10.2197 263.72 10.2197C260.96 10.2197 258.72 7.97973 258.72 5.21973ZM228.49 5.21973C228.49 2.45973 230.73 0.219727 233.49 0.219727C236.25 0.219727 238.49 2.45973 238.49 5.21973C238.49 7.97973 236.25 10.2197 233.49 10.2197C230.73 10.2197 228.49 7.97973 228.49 5.21973ZM198.26 5.21973C198.26 2.45973 200.5 0.219727 203.26 0.219727C206.02 0.219727 208.26 2.45973 208.26 5.21973C208.26 7.97973 206.02 10.2197 203.26 10.2197C200.5 10.2197 198.26 7.97973 198.26 5.21973ZM168.03 5.21973C168.03 2.45973 170.27 0.219727 173.03 0.219727C175.79 0.219727 178.03 2.45973 178.03 5.21973C178.03 7.97973 175.79 10.2197 173.03 10.2197C170.27 10.2197 168.03 7.97973 168.03 5.21973ZM137.8 5.21973C137.8 2.45973 140.03 0.219727 142.79 0.219727C145.56 0.219727 147.8 2.45973 147.8 5.21973C147.8 7.97973 145.56 10.2197 142.79 10.2197C140.03 10.2197 137.8 7.97973 137.8 5.21973ZM107.56 5.21973C107.56 2.45973 109.8 0.219727 112.56 0.219727C115.33 0.219727 117.56 2.45973 117.56 5.21973C117.56 7.97973 115.33 10.2197 112.56 10.2197C109.8 10.2197 107.56 7.97973 107.56 5.21973Z" fill="black"/>
<path d="M73.8296 7.97984C72.4996 5.55984 73.3796 2.51984 75.8096 1.18984C78.2296 -0.140156 81.2696 0.749844 82.5896 3.16984C83.9196 5.58984 83.0396 8.62984 80.6196 9.95984C79.8496 10.3698 79.0296 10.5698 78.2196 10.5698C76.4496 10.5698 74.7396 9.62984 73.8296 7.97984Z" fill="black"/>
<path d="M71.2998 9.63965C71.2998 6.87965 73.5398 4.63965 76.2998 4.63965C79.0598 4.63965 81.2998 6.87965 81.2998 9.63965C81.2998 12.3996 79.0598 14.6396 76.2998 14.6396C73.5398 14.6396 71.2998 12.3996 71.2998 9.63965Z" fill="black"/>
<path d="M71.3203 29.22C71.3203 26.46 73.5503 24.21 76.3203 24.21C79.0803 24.21 81.3203 26.44 81.3203 29.2C81.3203 31.97 79.0903 34.21 76.3303 34.21C73.5703 34.21 71.3303 31.98 71.3203 29.22Z" fill="black"/>
<path d="M89.2999 37.8196C86.5399 37.7896 84.3199 35.5296 84.3499 32.7696C84.3799 30.0096 86.6499 27.7896 89.4099 27.8196C92.1699 27.8496 94.3799 30.1196 94.3499 32.8796C94.3199 35.6196 92.0899 37.8196 89.3599 37.8196H89.2999Z" fill="black"/>
<path d="M96.8296 33.3494C96.5296 30.5994 98.5296 28.1394 101.27 27.8494C104.02 27.5594 106.48 29.5494 106.77 32.2994C107.06 35.0394 105.07 37.4994 102.33 37.7994C102.15 37.8094 101.97 37.8194 101.79 37.8194C99.2696 37.8194 97.0996 35.9194 96.8296 33.3494Z" fill="black"/>
<path d="M112.36 32.7097C112.36 29.9497 114.59 27.7197 117.35 27.7197C120.12 27.7197 122.36 29.9497 122.36 32.7097C122.36 35.4797 120.12 37.7197 117.35 37.7197C114.59 37.7197 112.36 35.4797 112.36 32.7097Z" fill="black"/>
<path d="M145.2 37.7793C142.44 37.7693 140.2 35.5293 140.21 32.7693C140.21 30.0093 142.46 27.7793 145.22 27.7793C147.99 27.7893 150.22 30.0293 150.21 32.7893C150.2 35.5493 147.97 37.7793 145.21 37.7793H145.2Z" fill="black"/>
<path d="M205.35 32.7796C205.35 30.0196 207.58 27.7796 210.34 27.7696C213.1 27.7596 215.34 29.9996 215.35 32.7596C215.36 35.5196 213.12 37.7596 210.36 37.7696H210.35C207.59 37.7696 205.36 35.5396 205.35 32.7796Z" fill="black"/>
<path d="M262.35 37.7393C259.58 37.7293 257.35 35.4893 257.36 32.7193C257.36 29.9593 259.62 27.7293 262.38 27.7393C265.14 27.7493 267.37 29.9993 267.36 32.7593C267.35 35.5093 265.12 37.7393 262.36 37.7393H262.35Z" fill="black"/>
<path d="M277.72 33.1697C277.26 30.4497 279.1 27.8697 281.82 27.4097C284.54 26.9497 287.12 28.7797 287.59 31.4997C288.05 34.2197 286.21 36.8097 283.49 37.2697C283.21 37.3197 282.93 37.3397 282.65 37.3397C280.25 37.3397 278.14 35.6097 277.72 33.1697Z" fill="black"/>
<path d="M281.51 35.6494C281.51 32.8894 283.75 30.6494 286.51 30.6494C289.27 30.6494 291.51 32.8894 291.51 35.6494C291.51 38.4094 289.27 40.6494 286.51 40.6494C283.75 40.6494 281.51 38.4094 281.51 35.6494Z" fill="black"/>
<path d="M281.51 99.6999C281.51 96.9399 283.75 94.6999 286.51 94.6999C289.27 94.6999 291.51 96.9399 291.51 99.6999C291.51 102.46 289.27 104.7 286.51 104.7C283.75 104.7 281.51 102.46 281.51 99.6999ZM281.51 67.6699C281.51 64.9099 283.75 62.6699 286.51 62.6699C289.27 62.6699 291.51 64.9099 291.51 67.6699C291.51 70.4399 289.27 72.6799 286.51 72.6799C283.75 72.6799 281.51 70.4399 281.51 67.6699Z" fill="black"/>
<path d="M278.32 135.06C278.32 132.3 280.56 130.06 283.32 130.06C286.08 130.06 288.32 132.3 288.32 135.06C288.32 137.82 286.08 140.06 283.32 140.06C280.56 140.06 278.32 137.82 278.32 135.06Z" fill="black"/>
<path d="M248.33 139.899C245.57 139.889 243.34 137.639 243.35 134.879C243.36 132.109 245.61 129.889 248.37 129.899C251.13 129.909 253.36 132.159 253.35 134.919C253.35 137.679 251.1 139.899 248.35 139.899H248.33Z" fill="black"/>
<path d="M114.6 134.94C114.6 132.18 116.84 129.94 119.6 129.94C122.36 129.94 124.6 132.18 124.6 134.94C124.6 137.7 122.36 139.94 119.6 139.94C116.84 139.94 114.6 137.71 114.6 134.94ZM146.79 134.93C146.79 132.17 149.02 129.93 151.78 129.93C154.55 129.93 156.79 132.17 156.79 134.93C156.79 137.69 154.55 139.93 151.79 139.93C149.03 139.93 146.79 137.69 146.79 134.93ZM178.97 134.92C178.97 132.16 181.21 129.92 183.97 129.92C186.73 129.92 188.97 132.16 188.97 134.92C188.98 137.68 186.74 139.92 183.98 139.92C181.21 139.92 178.98 137.69 178.97 134.92ZM211.16 134.91C211.16 132.15 213.4 129.91 216.16 129.91C218.92 129.91 221.16 132.15 221.16 134.91C221.16 137.67 218.92 139.91 216.16 139.91C213.4 139.91 211.16 137.67 211.16 134.91Z" fill="black"/>
<path d="M81.8302 139.9C79.0702 139.87 76.8502 137.61 76.8802 134.85C76.9102 132.09 79.1702 129.87 81.9302 129.9C84.6902 129.93 86.9102 132.19 86.8802 134.95C86.8502 137.69 84.6202 139.9 81.8902 139.9H81.8302Z" fill="black"/>
<path d="M48.3496 134.92C48.3496 132.16 50.5796 129.92 53.3396 129.91C56.1096 129.91 58.3496 132.15 58.3496 134.91C58.3496 137.67 56.1096 139.91 53.3496 139.91C50.5896 139.91 48.3496 137.68 48.3496 134.92Z" fill="black"/>
<path d="M13.7197 140.15C11.7397 138.22 11.6997 135.05 13.6297 133.08C15.5597 131.1 18.7197 131.06 20.6997 132.99C22.6797 134.92 22.7197 138.09 20.7897 140.06C19.8097 141.07 18.5097 141.57 17.2097 141.57C15.9497 141.57 14.6897 141.1 13.7197 140.15Z" fill="black"/>
<path d="M2.27955 151.88C0.309548 149.95 0.269548 146.78 2.18955 144.81C4.11955 142.83 7.28955 142.79 9.25955 144.72C11.2395 146.64 11.2795 149.81 9.34955 151.79C8.36955 152.79 7.06955 153.3 5.76955 153.3C4.50955 153.3 3.24955 152.82 2.27955 151.88Z" fill="black"/>
<path d="M5.07008 331.219C2.31008 331.209 0.0800781 328.969 0.0800781 326.209C0.0900781 323.449 2.33008 321.209 5.09008 321.219C7.85008 321.219 10.0901 323.469 10.0801 326.229C10.0801 328.989 7.84008 331.219 5.08008 331.219H5.07008ZM5.12008 301.569C2.36008 301.559 0.130078 299.319 0.130078 296.559C0.130078 293.799 2.38008 291.559 5.14008 291.559C7.90008 291.569 10.1301 293.809 10.1301 296.569C10.1301 299.329 7.89008 301.569 5.13008 301.569H5.12008ZM5.16008 271.909C2.40008 271.909 0.170078 269.659 0.170078 266.899C0.170078 264.139 2.42008 261.909 5.18008 261.909C7.94008 261.919 10.1801 264.159 10.1701 266.919C10.1701 269.679 7.93008 271.909 5.17008 271.909H5.16008ZM5.22008 242.259C2.46008 242.249 0.230078 239.999 0.230078 237.239C0.230078 234.479 2.49008 232.249 5.25008 232.259C8.01008 232.259 10.2401 234.509 10.2301 237.269C10.2301 240.029 7.99008 242.259 5.23008 242.259H5.22008ZM5.32008 212.599C2.55008 212.589 0.330078 210.339 0.340078 207.579C0.340078 204.819 2.60008 202.589 5.36008 202.599C8.12008 202.619 10.3501 204.859 10.3401 207.629C10.3301 210.379 8.09008 212.599 5.34008 212.599H5.32008ZM5.47008 182.949C2.71008 182.929 0.490078 180.669 0.510078 177.909C0.530078 175.149 2.78008 172.929 5.54008 172.949C8.31008 172.969 10.5301 175.219 10.5101 177.989C10.4901 180.739 8.25008 182.949 5.51008 182.949H5.47008Z" fill="black"/>
<path d="M0 361.7C0 358.93 2.24 356.7 5 356.7C7.76 356.7 10 358.93 10 361.7C10 364.46 7.76 366.7 5 366.7C2.24 366.7 0 364.46 0 361.7Z" fill="black"/>
<path d="M25.4805 361.7C25.4805 358.93 27.7205 356.7 30.4805 356.7C33.2405 356.7 35.4805 358.93 35.4805 361.7C35.4805 364.46 33.2405 366.7 30.4805 366.7C27.7205 366.7 25.4805 364.46 25.4805 361.7Z" fill="black"/>
<path d="M28.7201 362.78C27.2701 360.43 28.0101 357.34 30.3601 355.9C32.7101 354.45 35.7901 355.19 37.2401 357.54C38.6801 359.89 37.9501 362.97 35.6001 364.42C34.7801 364.92 33.8801 365.16 32.9801 365.16C31.3001 365.16 29.6601 364.31 28.7201 362.78Z" fill="black"/>
<path d="M53.8905 344.49C52.2405 342.28 52.6905 339.15 54.9005 337.49C57.1105 335.83 60.2405 336.28 61.9005 338.49C63.5505 340.7 63.1005 343.84 60.8905 345.49C59.9905 346.17 58.9405 346.49 57.9005 346.49C56.3805 346.49 54.8805 345.8 53.8905 344.49ZM78.8105 325.82C77.1505 323.61 77.6005 320.48 79.8105 318.82C82.0205 317.16 85.1605 317.61 86.8105 319.82C88.4705 322.03 88.0205 325.17 85.8105 326.82C84.9105 327.5 83.8605 327.82 82.8205 327.82C81.2905 327.82 79.7905 327.13 78.8105 325.82ZM103.73 307.15C102.07 304.94 102.52 301.81 104.73 300.15C106.94 298.5 110.08 298.95 111.73 301.16C113.39 303.37 112.94 306.5 110.73 308.15C109.83 308.83 108.78 309.15 107.73 309.15C106.21 309.15 104.71 308.46 103.73 307.15ZM128.64 288.48C126.99 286.27 127.44 283.14 129.65 281.48C131.86 279.83 134.99 280.28 136.65 282.49C138.3 284.7 137.85 287.83 135.64 289.49C134.75 290.16 133.69 290.49 132.65 290.49C131.13 290.49 129.63 289.79 128.64 288.48ZM153.56 269.81C151.91 267.6 152.36 264.47 154.57 262.81C156.78 261.16 159.91 261.61 161.56 263.82C163.22 266.03 162.77 269.16 160.56 270.82C159.66 271.49 158.61 271.82 157.57 271.82C156.05 271.82 154.54 271.12 153.56 269.81ZM178.48 251.15C176.82 248.94 177.27 245.8 179.48 244.15C181.69 242.49 184.83 242.94 186.48 245.15C188.14 247.36 187.69 250.49 185.48 252.15C184.58 252.82 183.53 253.15 182.48 253.15C180.96 253.15 179.46 252.46 178.48 251.15ZM203.4 232.48C201.74 230.27 202.19 227.13 204.4 225.48C206.61 223.82 209.74 224.27 211.4 226.48C213.05 228.69 212.6 231.82 210.4 233.48C209.5 234.15 208.45 234.48 207.4 234.48C205.88 234.48 204.38 233.79 203.4 232.48ZM228.31 213.81C226.66 211.6 227.11 208.46 229.32 206.81C231.53 205.15 234.66 205.6 236.32 207.81C237.97 210.02 237.52 213.16 235.31 214.81C234.41 215.49 233.36 215.81 232.32 215.81C230.8 215.81 229.3 215.12 228.31 213.81ZM253.23 195.14C251.57 192.93 252.02 189.79 254.23 188.14C256.44 186.48 259.58 186.93 261.23 189.14C262.89 191.35 262.44 194.49 260.23 196.14C259.33 196.82 258.28 197.14 257.24 197.14C255.72 197.14 254.21 196.45 253.23 195.14Z" fill="black"/>
<path d="M284.77 176.25C282.18 175.29 280.86 172.41 281.82 169.82C282.78 167.23 285.66 165.91 288.25 166.87C290.84 167.83 292.16 170.71 291.2 173.3C290.45 175.31 288.54 176.56 286.51 176.56C285.93 176.56 285.34 176.46 284.77 176.25Z" fill="black"/>
<path d="M281.51 327.15C281.51 324.39 283.75 322.15 286.51 322.15C289.27 322.15 291.51 324.39 291.51 327.15C291.51 329.92 289.27 332.15 286.51 332.15C283.75 332.15 281.51 329.92 281.51 327.15ZM281.51 296.03C281.51 293.27 283.75 291.03 286.51 291.03C289.27 291.03 291.51 293.27 291.51 296.03C291.51 298.8 289.27 301.04 286.51 301.04C283.75 301.04 281.51 298.8 281.51 296.03ZM281.51 264.92C281.51 262.15 283.75 259.91 286.51 259.91C289.27 259.91 291.51 262.15 291.51 264.92C291.51 267.68 289.27 269.92 286.51 269.92C283.75 269.92 281.51 267.68 281.51 264.92ZM281.51 233.8C281.51 231.03 283.75 228.8 286.51 228.8C289.27 228.8 291.51 231.03 291.51 233.8C291.51 236.56 289.27 238.8 286.51 238.8C283.75 238.8 281.51 236.56 281.51 233.8ZM281.51 202.68C281.51 199.92 283.75 197.68 286.51 197.68C289.27 197.68 291.51 199.92 291.51 202.68C291.51 205.44 289.27 207.68 286.51 207.68C283.75 207.68 281.51 205.44 281.51 202.68Z" fill="black"/>
<path d="M286.04 365.68C283.84 364 283.41 360.87 285.08 358.67C286.75 356.47 289.89 356.04 292.09 357.72C294.29 359.39 294.71 362.52 293.04 364.72C292.06 366.02 290.57 366.7 289.06 366.7C288 366.7 286.94 366.36 286.04 365.68Z" fill="black"/>
<path d="M306.99 361.7C306.99 358.94 309.23 356.7 311.99 356.7C314.75 356.7 316.99 358.94 316.99 361.7C316.99 364.46 314.75 366.7 311.99 366.7C309.23 366.7 306.99 364.46 306.99 361.7Z" fill="black"/>
<path d="M311.06 363.04C308.79 361.47 308.22 358.36 309.78 356.08C311.35 353.81 314.47 353.24 316.74 354.8C319.01 356.37 319.59 359.48 318.02 361.76C317.05 363.16 315.49 363.92 313.9 363.92C312.92 363.92 311.93 363.63 311.06 363.04Z" fill="black"/>
<path d="M308.9 327.979C308.9 325.219 311.14 322.979 313.9 322.979C316.66 322.979 318.9 325.219 318.9 327.979C318.9 330.739 316.66 332.979 313.9 332.979C311.14 332.979 308.9 330.739 308.9 327.979ZM308.9 297.039C308.9 294.279 311.14 292.039 313.9 292.039C316.66 292.039 318.9 294.279 318.9 297.039C318.9 299.799 316.66 302.039 313.9 302.039C311.14 302.039 308.9 299.799 308.9 297.039ZM308.9 266.099C308.9 263.339 311.14 261.099 313.9 261.099C316.66 261.099 318.9 263.339 318.9 266.099C318.9 268.859 316.66 271.099 313.9 271.099C311.14 271.099 308.9 268.859 308.9 266.099ZM308.9 235.159C308.9 232.399 311.14 230.159 313.9 230.159C316.66 230.159 318.9 232.399 318.9 235.159C318.9 237.919 316.66 240.159 313.9 240.159C311.14 240.159 308.9 237.919 308.9 235.159ZM308.9 204.219C308.9 201.459 311.14 199.219 313.9 199.219C316.66 199.219 318.9 201.459 318.9 204.219C318.9 206.989 316.66 209.219 313.9 209.219C311.14 209.219 308.9 206.989 308.9 204.219ZM308.9 173.279C308.9 170.519 311.14 168.289 313.9 168.289C316.66 168.289 318.9 170.519 318.9 173.279C318.9 176.049 316.66 178.289 313.9 178.289C311.14 178.289 308.9 176.049 308.9 173.279ZM308.9 142.349C308.9 139.589 311.14 137.349 313.9 137.349C316.66 137.349 318.9 139.589 318.9 142.349C318.9 145.109 316.66 147.349 313.9 147.349C311.14 147.349 308.9 145.109 308.9 142.349ZM308.9 111.409C308.9 108.649 311.14 106.409 313.9 106.409C316.66 106.409 318.9 108.649 318.9 111.409C318.9 114.169 316.66 116.409 313.9 116.409C311.14 116.409 308.9 114.169 308.9 111.409ZM308.9 80.4693C308.9 77.7093 311.14 75.4693 313.9 75.4693C316.66 75.4693 318.9 77.7093 318.9 80.4693C318.9 83.2293 316.66 85.4693 313.9 85.4693C311.14 85.4693 308.9 83.2293 308.9 80.4693ZM308.9 49.5293C308.9 46.7693 311.14 44.5293 313.9 44.5293C316.66 44.5293 318.9 46.7693 318.9 49.5293C318.9 52.2893 316.66 54.5293 313.9 54.5293C311.14 54.5293 308.9 52.2893 308.9 49.5293Z" fill="black"/>
<path d="M298.75 10.1899C296.82 8.20991 296.87 5.04991 298.85 3.11991C300.82 1.18991 303.99 1.23991 305.92 3.21991C307.84 5.19991 307.8 8.35991 305.82 10.2899C304.85 11.2299 303.59 11.6999 302.33 11.6999C301.03 11.6999 299.73 11.1999 298.75 10.1899Z" fill="black"/>
<path d="M54.9202 310.559C53.2602 308.349 53.7202 305.209 55.9302 303.559C58.1402 301.909 61.2802 302.359 62.9302 304.579C64.5802 306.789 64.1302 309.919 61.9102 311.569C61.0102 312.239 59.9702 312.569 58.9302 312.569C57.4002 312.569 55.9002 311.869 54.9202 310.559ZM78.4902 292.949C76.8402 290.739 77.2902 287.609 79.5002 285.959C81.7202 284.299 84.8502 284.759 86.5002 286.969C88.1502 289.179 87.7002 292.319 85.4902 293.969C84.5902 294.639 83.5402 294.959 82.5002 294.959C80.9802 294.959 79.4702 294.269 78.4902 292.949ZM102.06 275.349C100.41 273.139 100.87 270.009 103.08 268.349C105.29 266.699 108.43 267.159 110.08 269.369C111.73 271.579 111.28 274.709 109.06 276.359C108.17 277.039 107.12 277.359 106.08 277.359C104.55 277.359 103.05 276.659 102.06 275.349ZM125.64 257.749C123.99 255.529 124.44 252.399 126.66 250.749C128.87 249.099 132 249.549 133.65 251.759C135.31 253.979 134.85 257.109 132.64 258.759C131.74 259.429 130.69 259.749 129.65 259.749C128.13 259.749 126.62 259.059 125.64 257.749ZM149.22 240.139C147.56 237.929 148.02 234.799 150.23 233.139C152.44 231.489 155.58 231.949 157.23 234.159C158.88 236.369 158.43 239.499 156.21 241.159C155.32 241.829 154.27 242.149 153.23 242.149C151.7 242.149 150.2 241.459 149.22 240.139ZM172.79 222.539C171.14 220.319 171.59 217.189 173.81 215.539C176.02 213.889 179.15 214.339 180.81 216.549C182.46 218.769 182 221.899 179.79 223.549C178.89 224.219 177.84 224.549 176.8 224.549C175.28 224.549 173.77 223.849 172.79 222.539ZM196.37 204.929C194.72 202.719 195.17 199.589 197.38 197.939C199.6 196.279 202.73 196.739 204.38 198.949C206.03 201.159 205.58 204.299 203.37 205.949C202.47 206.619 201.42 206.939 200.38 206.939C198.85 206.939 197.35 206.249 196.37 204.929ZM219.94 187.329C218.29 185.119 218.75 181.979 220.96 180.329C223.17 178.679 226.3 179.129 227.96 181.349C229.61 183.559 229.15 186.689 226.94 188.339C226.04 189.009 224.99 189.339 223.95 189.339C222.43 189.339 220.93 188.639 219.94 187.329Z" fill="black"/>
<path d="M28.5796 327.67C27.7996 325.02 29.3296 322.24 31.9896 321.47C34.6396 320.71 37.4096 322.23 38.1796 324.89C38.9496 327.54 37.4196 330.31 34.7696 331.08C34.2996 331.21 33.8396 331.28 33.3696 331.28C31.2096 331.28 29.2096 329.86 28.5796 327.67Z" fill="black"/>
<path d="M27.3896 324.71C27.3896 321.95 29.6296 319.71 32.3896 319.71C35.1496 319.71 37.3896 321.95 37.3896 324.71C37.3896 327.48 35.1496 329.72 32.3896 329.72C29.6296 329.72 27.3896 327.48 27.3896 324.71Z" fill="black"/>
<path d="M27.3896 292.67C27.3896 289.9 29.6296 287.66 32.3896 287.66C35.1496 287.66 37.3896 289.9 37.3896 292.67C37.3896 295.43 35.1496 297.67 32.3896 297.67C29.6296 297.67 27.3896 295.43 27.3896 292.67ZM27.3896 260.62C27.3896 257.85 29.6296 255.62 32.3896 255.62C35.1496 255.62 37.3896 257.85 37.3896 260.62C37.3896 263.38 35.1496 265.62 32.3896 265.62C29.6296 265.62 27.3896 263.38 27.3896 260.62ZM27.3896 228.57C27.3896 225.81 29.6296 223.57 32.3896 223.57C35.1496 223.57 37.3896 225.81 37.3896 228.57C37.3896 231.33 35.1496 233.57 32.3896 233.57C29.6296 233.57 27.3896 231.33 27.3896 228.57ZM27.3896 196.52C27.3896 193.76 29.6296 191.52 32.3896 191.52C35.1496 191.52 37.3896 193.76 37.3896 196.52C37.3896 199.28 35.1496 201.52 32.3896 201.52C29.6296 201.52 27.3896 199.28 27.3896 196.52Z" fill="black"/>
<path d="M30.0801 161.5C30.0801 158.74 32.3201 156.5 35.0801 156.5C37.8401 156.5 40.0801 158.74 40.0801 161.5C40.0801 164.27 37.8401 166.5 35.0801 166.5C32.3201 166.5 30.0801 164.27 30.0801 161.5Z" fill="black"/>
<path d="M212.7 161.5C212.7 158.74 214.94 156.5 217.7 156.5C220.46 156.5 222.7 158.74 222.7 161.5C222.7 164.26 220.46 166.5 217.7 166.5C214.94 166.5 212.7 164.26 212.7 161.5ZM182.26 161.5C182.26 158.74 184.5 156.5 187.26 156.5C190.02 156.5 192.26 158.74 192.26 161.5C192.26 164.26 190.02 166.5 187.26 166.5C184.5 166.5 182.26 164.26 182.26 161.5ZM151.83 161.5C151.83 158.74 154.06 156.5 156.83 156.5C159.59 156.5 161.83 158.74 161.83 161.5C161.83 164.26 159.59 166.5 156.83 166.5C154.06 166.5 151.83 164.26 151.83 161.5ZM121.39 161.5C121.39 158.74 123.63 156.5 126.39 156.5C129.15 156.5 131.39 158.74 131.39 161.5C131.39 164.26 129.15 166.5 126.39 166.5C123.63 166.5 121.39 164.26 121.39 161.5ZM90.9498 161.5C90.9498 158.74 93.1898 156.5 95.9498 156.5C98.7098 156.5 100.95 158.74 100.95 161.5C100.95 164.26 98.7098 166.5 95.9498 166.5C93.1898 166.5 90.9498 164.26 90.9498 161.5ZM60.5098 161.5C60.5098 158.74 62.7498 156.5 65.5198 156.5C68.2798 156.5 70.5198 158.74 70.5198 161.5C70.5198 164.26 68.2798 166.5 65.5198 166.5C62.7498 166.5 60.5098 164.26 60.5098 161.5Z" fill="black"/>
<path d="M249.06 165.78C247.31 163.65 247.62 160.5 249.75 158.75C251.88 156.99 255.03 157.3 256.79 159.44C258.54 161.57 258.23 164.72 256.1 166.47C255.17 167.24 254.04 167.61 252.93 167.61C251.48 167.61 250.05 166.99 249.06 165.78Z" fill="black"/>
<path d="M243.55 169.77C241.88 167.57 242.29 164.44 244.49 162.76C246.68 161.08 249.82 161.5 251.5 163.7C253.18 165.89 252.75 169.03 250.56 170.71C249.65 171.4 248.59 171.73 247.53 171.73C246.02 171.73 244.54 171.06 243.55 169.77Z" fill="black"/>
</g>
</g>
<defs>
<clipPath id="clip0_2554_17252">
<rect width="318.9" height="366.7" fill="white"/>
</clipPath>
</defs>
</svg>
