<svg width="742" height="417" viewBox="0 0 742 417" fill="none" xmlns="http://www.w3.org/2000/svg">
<g clip-path="url(#clip0_2554_10006)">
<mask id="mask0_2554_10006" style="mask-type:luminance" maskUnits="userSpaceOnUse" x="0" y="0" width="742" height="417">
<path d="M741.26 0H0V416.54H741.26V0Z" fill="white"/>
</mask>
<g mask="url(#mask0_2554_10006)">
<path d="M439.231 55.4906L438.77 56.1606C438.69 56.2606 438.311 56.0606 438.321 55.9306C438.341 55.8106 438.411 55.4806 438.481 55.3706L438.9 54.7706C439.02 54.6006 439.341 55.3306 439.221 55.4906" fill="#90BEFB"/>
<path d="M426.16 163.601C427.12 165.991 427.66 168.161 428.32 170.551C428.55 171.381 429.21 172.571 429.09 173.351C428.98 174.031 427.95 175.221 427.26 175.391L423.38 176.361C420.82 177.001 418.49 178.031 415.99 178.381C414.66 178.581 412.68 178.791 411.37 178.581C408.46 178.121 405.4 176.691 403.16 174.801C402.27 174.061 401.21 172.561 400.58 171.611C398.44 168.381 399.36 166.821 399.59 165.201C399.73 164.191 398.95 162.06 399.49 161.23L401.64 157.87C404.13 153.99 410.76 150.211 415.28 152.051C417.29 152.871 419.18 153.851 421.2 154.391L424.81 158.711C425.7 159.781 425.61 162.26 426.16 163.59M442.63 138.441C437.85 134.491 441.35 135.671 436.74 133.171C435.48 132.481 434.3 130.621 432.79 130.501C430.82 130.341 430.01 128.791 429.39 127.481C427.91 127.811 426.47 127.481 424.94 126.941C424.03 126.621 422.68 126.491 421.56 126.251C420.68 126.061 419.56 125.331 418.67 125.071C414.13 123.741 407.86 126.411 403.19 126.671C402 126.731 400.53 127.801 399.32 128.281L395.86 129.671C392.11 131.171 388.8 132.561 385.93 135.531L383.46 138.081C382.14 139.451 378.41 143.801 377.9 145.281C376.34 149.811 376.5 145.611 374.44 151.861L373.1 155.93C371.73 160.09 371.73 160.63 371.75 164.9C371.76 165.78 372.29 171.681 372.47 172.391C373.15 175.051 373.7 177.89 374.84 180.34C376.09 183.03 378.01 185.911 380.05 188.221C382.36 190.811 392.33 198.871 396.11 199.411L398.13 199.12C398.92 201.79 401.52 201.23 404.74 202.34C409.8 204.09 409.03 203.24 414.66 203.79C416.14 203.93 417.45 204.42 418.97 204.01C421.17 203.41 423.3 203.32 425.46 202.73L435.53 199.991C438 199.321 438.56 207.401 439.54 209.921C440.52 212.441 441.18 213.81 440.02 216.48C439.41 217.89 439.42 220.201 439.05 221.911C438.73 223.351 437.89 224.421 437.07 225.561C434.45 229.231 430.27 230.691 425.83 230.191C419.61 229.481 420.11 230.781 415.5 229.031L413.12 229.271C406.49 227.801 403.66 228.821 398.36 231.921C393.75 234.621 388.89 236.161 385.77 242.311C383.72 246.361 383.54 241.891 380.86 253.001C379.95 256.751 379.63 255.411 378.72 260.011C379.18 262.451 379.29 264.541 378.56 266.981C378.03 268.741 380.6 273.411 381.15 275.501C381.69 277.571 381.67 279.46 382.87 281.3L384.42 283.661C385.22 284.891 385.66 285.79 386.21 287.24C386.76 288.67 388.75 289.981 389.72 291.231C392.53 294.821 394.77 294.87 399.29 297.71C400.73 298.62 404.48 299.83 406.12 299.96C407.92 300.11 409.79 301.461 411.61 301.471C412.75 301.471 414.3 301.011 415.48 300.891L418.61 300.59C421.28 300.33 424.87 299.171 427.53 298.281L431.19 297.041C437.52 294.921 438.15 292.731 443.24 289.171C444.88 288.031 446.94 287.46 448.14 285.74C449.14 284.32 450.7 283.491 452.29 282.531C454.83 280.991 457.72 280.881 461.1 279.531C466.8 277.261 465.45 279.181 471.4 278.691C473.27 278.531 474.65 278.5 476.46 278.58C477.43 278.63 478.85 278.091 479.81 278.531C486.15 281.471 483.99 279.08 489.1 281.18C494.32 283.33 495.59 282.501 499.37 286.251L502.97 289.811L505.54 292.291C506.64 293.361 507.42 294.06 508.08 295.43C510.41 300.23 511.76 305.541 510.72 310.811L508.87 312.52C506.27 317.76 501.2 320.72 495.45 321.36C493.26 321.6 491.56 321.301 489.78 319.951C485.32 320.221 480.71 315.34 479.68 314.71L474.35 311.531C473.45 310.991 471.22 312.271 470.66 309.971C469.22 309.841 467.14 309.861 465.92 309.471C464.55 308.851 463.77 308.601 462.41 308.731L458.21 309.12C456.75 309.26 455.33 309.401 453.79 309.751C446.74 311.341 447.81 313.171 443.48 312.531C439.83 314.031 438.03 314.821 434.62 317.321L427.5 322.541C426.62 323.191 425.71 325.091 424.91 325.951C423.89 327.041 423.49 328.201 422.98 329.571C422.37 331.221 420.55 333.21 420.12 334.83C420.06 339.08 418.29 339.581 417.97 344.891L417.57 351.43C417.49 352.71 418.52 357.31 419 359.05C419.71 361.65 421.05 364.65 423.11 366.37C428.45 370.86 433.79 372.13 440.05 369.15C441.09 368.66 442.29 367.351 443.24 366.421C443.84 365.851 444.2 364.27 444.61 363.49C448.34 356.37 445.07 356.59 445.53 351.02L445.76 348.261C445.89 346.721 446.11 344.63 446.59 343.18C448.76 339.57 451.64 336.64 454.95 334.09L458.92 334.02C462 333.97 467.33 335.081 470.38 336.471C475.2 338.671 478.34 344.13 482.62 344.43C483.27 344.47 484.28 346.091 484.96 346.351C486.3 346.851 488.63 347.581 490.35 347.951C499.68 350.011 495.72 349.76 504.29 348.93C508.01 348.56 515.6 343.591 518.63 341.261L522.24 338.481C523.38 337.601 523.52 336.101 525.57 336.131C526.71 336.131 528.06 334.911 528.48 333.981L526.57 334.18C525.92 332.59 527.9 331.27 528.69 331.74C528.86 331.84 528.91 333.011 529.06 332.881L529.82 332.221C530.77 331.381 530.34 330.08 529.72 329.11C528.93 327.85 531.05 327.061 531.18 326.291C531.5 324.331 531.81 322.61 532.66 320.84C536.37 313.19 533.17 312.13 534.53 307.52C534.86 306.41 534.81 305.391 534.6 304.251L533.15 296.58C532.5 293.15 533.65 293.321 530.07 286.721C529.43 285.541 528.76 284.221 528.24 283.001C527.62 281.541 527.52 279.75 526.05 278.83C525.6 278.55 524.38 277.93 524.4 277.43L524.46 275.351C522.5 274.631 519.63 271.311 517.41 269.951L512.87 267.18C512.05 266.68 511.17 265.661 510.64 264.911C505.89 263.201 505.59 262.31 500.62 260.05C498.23 258.96 495.61 258.181 493.11 257.571C491.95 257.281 491.05 256.99 489.98 256.4L487.79 256.351C486.13 254.361 481.3 254.811 478.97 254.771L475.14 254.711C473.7 254.691 472.43 254.691 470.99 254.751L466.62 254.911C465 254.971 463.54 254.661 461.92 255.241C460.08 255.901 458.21 255.851 456.31 256.061C453.58 256.351 451.21 258.351 448.64 259.261C446.58 259.991 444.9 261.261 442.93 262.161C439.05 263.941 435.7 264.361 431.13 268.311C428.29 270.761 424.12 275.961 419.52 276.381L413.13 276.96C411.03 277.15 409.4 275.201 407.91 274.261C404.74 272.251 403.6 270.141 403.35 266.531C403.24 264.881 403.02 263.451 404.14 261.891C406.46 258.661 410 255.851 414.19 255.271C415.38 255.111 417.22 255.2 418.47 255.37L422.73 255.93L425.83 256.061C427.52 256.131 429.33 255.941 431.08 255.911C436.02 255.831 433.88 254.88 438.92 254.62L442.14 253.201C443.51 252.601 445.3 252.45 446.34 251.48C450.84 247.26 450.73 250.351 454.34 245.521C456.19 243.041 456.07 246.141 461.2 238.071C462.26 236.401 463.81 234.59 464.39 232.84L465.54 229.381C465.92 228.251 465.9 226.531 466.36 225.491C467 224.081 467.3 223.17 467.35 221.79L467.58 215.491C467.74 211.311 467.18 208.691 465.94 204.831L463.63 197.631C463.25 196.441 463.22 195.061 462.61 193.881C462.06 192.801 462.2 191.031 461.8 190.081C461.06 188.321 460.09 186.84 459.73 184.98L458.26 177.411L453.98 163.01L452.92 159.521L450.16 150.311C449.79 149.101 449.35 147.981 448.65 146.971L444.65 141.241C444.01 140.321 443.48 139.171 442.62 138.451" fill="#90BEFB"/>
<path d="M402.421 76.7004C403.471 79.8004 399.81 82.4604 397.62 83.4304C395.93 83.2504 393.861 82.8904 392.231 82.2404C390.781 81.6604 389.68 78.5604 390.09 77.2104L390.891 74.5504C391.731 71.7504 395.031 70.5004 397.481 71.4804C399.461 72.2704 401.23 72.7804 402.61 74.5304L402.421 76.7004ZM731.281 282.79C729.991 282.05 729.36 281.89 727.87 281.56L723.61 280.65C720.66 280.01 717.73 277.39 714.42 278.29C713.2 278.62 712.06 279.25 710.74 278.4C709.11 277.36 707.79 277.88 706.1 278.33L703.18 279.11C702.28 279.35 700.81 278.95 699.74 279.03C698 279.16 696.27 280.74 694.67 281.27C693.34 281.71 692.411 282.16 691.151 282.88L686.85 285.35C685.68 287.34 684.28 288.39 682.3 289.71C675.09 294.52 677.95 294.35 671.54 299.18C671.15 300.4 670.78 301.77 670.31 302.81L668.99 305.64C667.42 309.02 664.94 311.99 663.81 315.61C662.45 319.96 662.97 323.67 662.05 326.02C661.33 327.84 660.86 329.62 660.57 331.55L659.8 333.12C659.93 337.38 656.51 341.5 654.06 344.63C653.2 345.73 654.33 346.59 648.73 349.41L643.91 351.83C641.77 352.91 639.49 353.19 637.11 353.28C635.92 353.32 634.92 352.66 633.92 352.46L629.831 351.63C629.251 351.51 628.28 350.95 627.98 350.46C627.35 349.43 630.881 346.96 628.841 347.91C626.921 348.8 626.521 349.93 625.461 349.47C624.951 349.25 621.871 345.38 621.841 344.53C621.681 340.25 618.82 342.55 619.23 337.73L619.54 334.15C619.64 332.95 620.05 332.29 619.31 331.05C618.78 330.16 620.531 329.31 620.831 328.63L622.47 324.95C623.18 323.35 624.37 322.54 625.56 321.32C633.35 313.34 630.24 317.33 635.98 313.42L640.42 310.39C641.96 309.34 643 308.92 644.79 308.57C647.01 308.13 648.69 305.53 650.93 304.68C652.5 304.1 653.51 302.87 654.73 302.02C656.08 301.07 657.14 300.25 658.36 299.09L662.211 295.46C664.511 293.29 664.1 291.33 667.73 287.43C668.3 286.81 668.55 285.15 669.51 284.53C670.89 283.63 668.49 281.89 669.94 280.8C671.9 279.33 672.13 277.47 671.48 275.3C670.65 272.54 673.36 271.15 671.69 263.67L670.73 259.33C670.37 257.74 670.09 256.46 670.81 254.78L669.031 251.88L669.211 250.42C669.251 250.12 668.33 249.91 668.12 249.67C666.07 247.43 664.61 244.25 662.31 242.37C660.9 241.22 659.651 240.3 658.331 239.1C656.951 237.83 654.841 237.07 653.281 235.9C651.671 234.69 648.8 233.44 646.93 234.03C644.93 232 642.29 231.64 639.51 231.54C637.84 231.48 638.85 230.53 632.81 231.05L629.18 231.36C626.34 231.6 622.621 232.49 619.711 233.76C617.911 234.55 615.98 235 614.38 236.58C610.34 240.59 609.09 240.24 605.75 244.94L603.771 247.71C601.991 250.22 600.1 253.05 599.16 255.96C598.48 258.04 597.5 259.8 596.76 261.67C595.44 264.94 594.58 267.63 591.88 270.09C589.76 272.02 587.91 274.1 585.36 275.58L582.841 278.79C582.491 279.22 581.48 280.06 581.01 279.91L579.01 279.29C577.73 279.24 576.4 279.09 575.22 278.88L572.23 278.35C571.23 278.17 570.151 277.85 569.401 277.15L566.63 274.57C565.33 273.35 565.5 272.83 565.25 271.23C564.8 268.32 564.011 265.58 564.841 262.63L565.521 260.25C564.761 256.14 568.86 255.56 571.43 253.37C575.17 250.18 578.73 248.08 583.54 246.88C583.45 246.76 592.761 242.72 591.891 243.36L598.1 238.99C605.02 234.14 599.04 237.92 603.94 233.33C606.92 230.54 602.48 231.36 607.94 227.8L609.17 224.6C608.67 223.21 609.17 222.4 609.38 221.22L610.36 215.91C610.53 214.94 610.5 213.3 610.51 212.18C610.54 208.66 609.161 207.68 609.081 204.02C609.031 201.6 607.771 200.36 606.641 198.46L604.43 194.78C603.92 193.93 603.401 192.89 602.781 192.11L600.44 189.14C595.26 182.57 595.291 186.07 591.281 182.56C590.171 181.58 589.64 181.37 588.43 181.03L580.781 178.91C579.231 178.48 577.64 178.89 576.07 178.94C573.39 179.04 571.06 178.92 568.42 180.25C567.62 180.65 565.62 179.84 564.87 179.81L562.17 182.07C560.65 183.33 559.24 183.45 557.35 183.72C555.31 184.01 553.24 185.62 551.16 186.03L549.701 186.32C549.321 186.4 549.3 187.44 549.05 187.89C547.01 191.74 545.42 190.19 540.79 192.4C539.87 192.84 538.43 193.31 537.43 193.44L533.271 193.97C531.311 193.79 523.54 190.03 525.82 187.59C527.96 185.3 522.701 184.8 526.091 181.78C526.961 181.01 527.25 174.74 527.1 172.96L529.44 170.11L530.99 165.8C530.99 165.8 532.57 158.46 532.57 158.02L532.44 153.18C532.41 151.89 530.36 146.99 529.74 145.87C528.31 143.33 526.49 140.62 524.35 138.66C523.48 137.86 522.021 136.94 521.271 136C519.721 136.04 518.22 136.34 517.12 134.6C516.46 133.54 514.821 133.84 513.781 133.64L510.55 133.03C509.62 132.86 508.79 132.86 507.87 132.92L502.8 133.26C502.04 133.31 500.79 132.92 499.85 132.67L497.8 133.75C497.35 133.99 496.33 133.42 496.04 132.94C495.58 132.2 495.75 131.42 496.38 130.79L497.11 130.05C497.88 129.28 495.611 130.47 493.641 129.29C492.871 128.83 493.52 127.45 493.48 126.68C493.37 124.68 494.12 124.23 495.41 122.93C499.21 119.13 503.98 120.13 509.01 121.7C510.14 122.06 511.99 120.95 513.11 121C517.65 121.21 520.32 120.26 524.35 118.07L528.63 115.75C531.01 114.46 533.27 112.89 535.43 111.22C536.93 110.05 538.57 108.01 539.75 106.51L543.05 102.3C544.59 100.34 544.611 97.3404 546.031 95.1904C546.741 94.1104 546.81 93.0104 547.07 91.8204C547.56 89.4504 547.991 87.2304 548.081 84.8204C548.331 78.6004 548.65 82.2204 547.67 78.6604C547.23 77.0104 548.71 75.2804 545.99 69.6804C545.36 68.3904 544.85 66.8904 544.11 65.6904L541.87 62.0004L537.951 56.1704C536.801 54.4604 536.32 52.5904 534.04 51.8904C532.47 51.4104 531.411 49.8404 530.081 49.0704L525.271 46.2904C521.431 44.0804 523.501 44.9904 519.141 44.2304C517.241 42.6204 515.44 42.3304 513 42.5304C512.48 42.5704 506.79 42.0104 507.23 41.9804C501.76 42.4004 501.43 43.5404 498.12 44.1204C493.33 44.9704 489.27 47.3804 485.36 50.2004C480.68 51.3604 482.65 51.8504 478.75 52.3804C475.06 52.8904 468.76 48.7304 467.77 46.1904L466.5 42.9304C465.79 41.1004 468.12 40.1604 467.49 39.8704L466.88 39.5804C465.49 38.9204 465.09 37.8604 465.61 36.5104C467.46 31.7004 466.35 31.5504 469.72 29.4404C471.23 28.5004 472.68 28.3204 474.32 28.0404C480.16 27.0204 483 24.9704 488.02 30.1904L490.52 32.7904C495.12 37.5804 498.34 36.9004 503.69 35.3304C506.83 34.4004 508.74 32.6404 510.57 30.2004C512.34 27.8504 513.24 25.8404 512.68 22.6504C512.11 19.4704 510.16 16.9804 507.75 14.2604C505.97 12.2404 504.38 9.84037 502.26 8.35037L497.43 4.97037C496.83 4.55037 495.5 3.98037 494.69 3.55037L491.1 1.62037C490.41 1.25037 488.72 1.92037 488.06 0.880373L486.391 1.04037C484.861 -0.169627 483.22 0.210373 481.28 0.120373L477.891 -0.0496271C475.881 -0.149627 474.11 0.720373 472.12 0.810373C462.86 1.28037 457.64 7.51037 453.73 9.51037C451.63 10.5904 450.27 11.4004 448.44 13.0804C447.18 13.8704 444.94 14.5104 443.41 15.1004L438.12 17.1304C436.26 17.8504 435.01 17.9904 433.4 19.1304C432.41 19.8304 430.2 21.0204 429.03 21.3404L422.76 23.0704L417.5 24.6904C413.22 26.0204 409.93 28.9304 402.58 30.7604C398.43 31.7904 398.951 32.6404 393.761 35.1104L387.99 37.8604L380.5 41.8504L374.11 45.9004C372.87 46.6904 372.15 46.9704 371.19 48.1404C370.02 49.5704 367.78 50.3504 366.27 51.4704C359.36 56.6204 364.09 50.9504 357.59 58.4204L354.82 61.6004L351.731 65.2904L347.71 69.9404L344.34 74.0804C343.55 75.0404 343.11 75.7004 342.75 76.8604C341.83 79.8304 340.711 79.2004 338.891 84.2404L337.3 88.6304C336.6 90.5704 335.81 92.0004 335.53 94.2204C335.43 94.9804 334.67 96.4404 334.52 97.2004C334.6 99.2204 334.35 100.83 333.71 102.68C333.44 105.14 335.62 113.29 336.52 115.56L339.06 121.95C339.68 123.53 341.57 126.34 343.08 126.87C345.25 127.63 347.49 127.69 349.74 128.13C353.69 128.92 356.821 126.49 358.791 123.11C363.011 115.85 360.93 116.21 359.88 111.76L358.53 106.05C358.23 104.75 359.701 103.07 359.951 101.88L360.8 97.8704C361.15 96.2004 361.021 94.6604 361.951 93.0304C362.781 91.5604 362.88 89.1904 364.93 88.7604C366.71 88.4004 367.94 90.1004 368.41 91.5304C369.47 94.7604 371.74 97.1204 374.31 99.1504L375.421 100.03C375.751 100.29 376.97 97.5204 377.31 98.9504L377.951 101.66C379.491 103.34 381.44 104.37 383.18 105.56C385.36 107.07 387.29 107.38 389.82 107.66C392.51 107.96 394.89 108.01 397.55 107.68C399.16 107.47 400.18 107.36 401.83 106.69C404 105.81 406.83 106.41 409.25 105.7C410.31 105.3 412.011 104.1 412.671 103.2C416.501 97.9704 413.88 103.51 419.36 95.8304C420.18 94.6704 422.18 93.4204 422.57 92.3104L424.18 87.8304C424.4 87.1804 424.34 85.7504 424.53 84.9404L425.18 82.0304L425.43 78.9604L424.5 75.1104C424.21 73.9104 424.28 72.6104 423.82 71.4604C422.45 68.0504 425.14 69.1104 420 63.4304C417.91 61.1304 417.12 58.6804 414.58 57.1104C413.78 56.6304 410 54.7104 410.68 52.8604C410.87 52.3304 411.77 51.5404 412.36 51.4404C416.18 50.8204 412.81 50.9704 418.22 49.1204L421.671 47.9404L426.01 46.6104C427.78 46.0604 429.64 44.5004 431.41 44.0704C434.71 43.2704 436.49 41.9004 440.05 41.7204C441.54 42.7604 440.551 44.0204 440.641 45.1504C440.781 46.8304 441.33 48.6904 441.71 50.4504L439.82 52.8504C439.96 52.9404 440.161 53.0904 440.201 53.1204C441.181 52.7504 441.42 52.6604 441.74 52.5704C442.06 52.4904 442.85 53.2804 443.02 53.6104L444.87 57.3204C446.76 61.1004 448.021 62.3704 450.891 65.4004C452.981 67.6004 457.82 72.2904 460.28 73.2704L463.69 74.6304L467.84 76.8404L474.6 77.6704C474.95 77.7104 475.57 78.4004 475.81 78.6204C476.04 78.8304 476.82 77.9304 477.16 77.8704C479.05 77.5104 481.54 77.0504 483.57 77.0204C485.52 76.9904 487.21 77.0804 489.09 76.3404C495.99 73.6104 491.89 76.5504 500.18 71.1204C501.54 70.2304 502.62 69.4704 504.12 69.0404C506.84 68.2604 509.34 68.1504 512.01 69.0604C516.93 70.7304 519.35 73.0104 521.37 78.1704C522.36 80.7004 522.74 82.9904 521.76 85.5204C521.14 87.1304 520.91 89.0304 519.57 90.3304C517.08 92.7304 513.37 95.6104 509.71 94.8104C507.74 94.3804 505.741 93.4904 503.641 93.1804C502.901 93.0804 501.56 92.1704 500.84 92.2004L496.19 92.3304C494.45 93.7804 493.25 92.7304 491.6 92.6604C489.77 92.5804 487 93.3204 485.08 93.5904C484.13 93.7304 482.37 94.6104 481.61 95.1604L477.641 98.0704C473.871 100.82 472.83 101.54 471.05 105.41C468.19 106.19 468.19 109.12 467.07 110.97C465.62 113.39 464.61 115.38 464.37 118.34C464.01 122.75 463.47 131.14 465.63 135.14L468.04 139.6C468.86 141.12 471.21 142.4 471.68 144.11C471.98 145.19 472.2 146.46 473.1 147.18L477.52 150.72C478.6 151.57 480.82 151.12 480.23 153.61C479.56 153.99 480.08 153.89 480.82 153.66L483.9 153.51C485.57 153.44 486.91 153.97 488.54 154.3L492.86 155.19C494.38 154.5 495.8 153.91 497.57 154.49C498.66 154.84 500.75 154.78 501.4 156.05L503.97 161.1C504.2 161.55 505.61 162 505.6 162.5C505.6 163.19 505.22 163.98 504.73 164.89C504.35 165.59 505.25 167.18 505.35 168.08L505.71 171.61L502.94 177.33C501.93 179.41 501.29 180.92 501.66 183.54C501.66 184.86 500.25 186.7 500.16 188.11C500.07 189.33 499.84 191.12 500.03 192.13L501.73 201.28C502.01 202.81 503.45 204.36 504.08 205.87C505.94 210.32 508.3 212.65 512.69 214.84C513.67 215.32 515.12 216.75 516.1 216.81C517.51 216.91 518.461 217.06 519.701 217.51L524.641 219.33C525.791 219.75 527.84 220.29 528.94 220.51C535.03 219.57 533.86 220.82 539.23 219.55C540.89 219.16 542.71 218.87 544.35 218.58C550.82 216.1 546.09 217.57 550.55 215.31C552.92 214.1 558.63 209.96 559.82 208.71C562.4 206 564.8 204.72 568.47 204.3C570.36 204.08 571.51 204.39 573.49 204.94C575.53 205.5 578.49 204.5 580.04 207.11L582 210.41C582.39 211.07 581.96 212.69 581.6 213.52C582.97 216.43 581.3 218.7 579.48 220.7C577.74 222.62 576.621 223.97 573.781 224.54C572.421 224.81 571.07 225.28 569.55 225.31C568.12 225.34 566.691 226.97 565.391 227.53L561.43 229.24C557.36 231.01 552.39 234.89 549.06 237.83C547.55 239.15 546.56 240.57 545.44 241.98C543 245.07 541.07 247.88 540.04 251.83C539.61 253.48 536.61 259.52 536.57 261.01L536.41 268.74C536.34 272.26 537.55 275.77 537.98 279.38C538.3 282.12 539.86 284.43 541.44 286.78C541.87 287.41 542.39 288.93 542.87 289.43L546.581 293.28C548.731 295.51 549.07 296.76 551.97 298.47C554.01 299.67 560.34 303.96 561.25 304.23L566.081 305.67L572.391 307.31C573.591 307.62 575.91 306.17 577.23 307.22L580.1 306.4C580.97 306.15 582.15 305.56 582.94 305.24L584.201 305.87C584.441 305.99 585.001 305.11 585.271 305.03C595.421 301.91 591.02 305.47 596.67 298.04C598.67 295.42 601.371 295.16 604.901 290.22C608.751 284.82 607.121 288.75 608.961 285.09C611.251 280.53 613.291 278.14 614.461 275.75C614.951 274.75 615.111 273.66 616.211 273.04C617.241 272.45 616.98 271.7 617.3 270.69C617.9 268.85 619.331 266.76 620.331 265.16C619.981 262.73 623.441 260.21 624.651 259.93C625.991 259.61 626.32 259.37 627.25 258.42C628.14 257.66 630.46 256.65 631.66 256.63L636.141 256.51C639.581 256.42 638.041 258.27 641.331 258.41C642.071 258.44 643.02 258.88 643.31 259.41L645.521 263.47C647.131 266.44 646.17 269.94 645.75 272.96C644.79 279.82 641.16 279 641.26 280.96C641.45 284.59 632.54 288.9 631.35 289.1C629.67 289.36 627.731 288.93 626.281 289.78L622.891 291.76C616.001 295.79 618.77 293.36 615.18 295.46C612.69 296.91 610.17 298.35 608.16 300.35L603.901 304.59C602.721 305.76 601.7 306.85 600.69 308.22C596.43 314.02 599.95 311.93 594.54 318.42C591.6 321.94 594.791 321.92 592.521 324.63C591.571 325.76 591.361 327.09 591.141 328.5C590.261 334.05 592.15 338.2 592.1 339.86C592.06 341.01 590.21 341.35 592.92 347.42C593.91 349.65 594.44 352.31 595.8 354.38C599.81 360.48 601.921 362.3 605.521 367.34C606.291 368.43 608.8 369.07 609.86 370.23C614.4 375.27 612.01 372.37 618.67 376.23C622.71 378.57 621.19 378.54 624.87 378.37C625.64 378.33 627.161 378.86 628.021 379.04L630.93 379.64C633.46 380.16 635.92 380.63 638.6 379.64C639.85 379.18 642.14 379.09 643.17 378.5C645.07 377.43 646.62 376.6 648.68 376.07L653.55 374.82C654.47 374.59 655.42 372.91 656.56 373.42L662.73 368.85C662.79 368.12 663.871 367.32 664.581 367.48L666.42 366.12C666.42 364.96 667.56 364.27 668.75 363.73C669.22 363.14 670.061 361.91 670.461 361.26L670.32 359.15C674.67 356.97 675.871 352.44 677.201 348.25C677.451 347.46 680.201 343.08 679.961 339.63C679.861 338.19 681.01 337.36 682.29 336.55L683.961 332.72L685.55 328.83L686.98 325.22C687.63 323.56 688.221 322.13 689.021 320.58C689.551 319.55 689.48 318.36 690.8 317.63C691.37 317.31 691.72 316.27 691.8 315.55C693.19 314.83 694.49 313.38 694.81 311.68C695.18 309.71 696.58 309.51 697.79 308.63L700.97 306.31C703.37 304.55 707.87 303.45 711.13 304.08C712.72 304.39 714.99 303.72 716.49 304.38L722.451 307.02C724.541 307.94 727.14 307.81 729.51 307.94C733.81 308.18 737.371 304.67 739.891 301.46C740.721 300.41 740.741 299.53 740.451 298.46C740.271 297.76 741.08 296.54 741.23 295.78C741.47 294.63 739.81 293.12 739.51 292.07C738.22 287.56 735.071 284.88 731.281 282.72" fill="#90BEFB"/>
<path d="M115.81 319.23C114.37 317.48 113.36 315.98 112.39 313.9C111.83 312.7 109.88 311.64 109.79 310.13C109.7 308.51 109.17 306.67 109.33 305.12C109.68 301.66 111.22 297.69 113.81 295.21C118.2 291 125.96 291.37 130.52 295.01C134.23 297.98 135.77 303.29 134.98 307.93C134.65 309.88 133.38 313.04 131.89 314.46C129.9 316.36 127.59 317.7 125.5 319.35L122.2 321.95C121.27 322.67 120.22 323.35 119.14 323.67C117.8 322.37 116.91 320.57 115.81 319.24M135.45 345.3C135.68 344.64 136.71 344.12 137.6 343.6C143.12 340.34 147.73 335.95 151.47 330.78L153.96 327.33L155.35 324.23C155.81 323.21 156.92 321.94 157.17 321.08L158.57 316.23C159.05 314.59 159.49 313.22 160.7 311.97C160.57 311.68 159.89 310.54 159.95 310.14L160.64 305.96C160.93 304.19 159.74 287.5 157.06 286.27C156.12 284.06 154.36 281.77 152.79 279.86C149.46 275.8 146.29 271.95 141.39 269.82C139.55 269.02 137.99 267.67 136.02 267.05L130.92 265.44C129.67 265.05 129.25 264.7 127.99 264.92C125.48 265.36 122.87 264.51 120.36 264.58C118 264.65 115.47 265.29 113.1 265.7C109.6 266.3 106.85 267.66 103.85 269.34C98.68 272.24 94.72 275.65 91.03 280.29C89.48 282.23 88.47 284.22 87.34 286.46C86.56 288.01 85.62 289.3 85.12 291.05C84.38 293.57 82.94 296 82.63 298.55C82.35 300.81 81.86 303.13 81.89 305.3L81.98 311.1C82.03 314.07 83.28 317.01 83.92 319.92C84.24 321.39 84.71 322.56 85.56 323.85C86.23 324.88 86.83 326.19 87.54 327.1C88.87 328.82 89.94 330.38 91.18 332.13L96.52 339.64C97.67 341.25 98.73 342.77 99.79 344.39L104.39 351.47C105.42 353.06 106.8 354.49 107.97 355.94L113.23 362.53L115.8 366.06C117.5 368.39 118.56 371.6 120.62 373.57C121.99 374.88 123.3 375.71 124.19 377.45C125.28 379.55 127.56 380.74 129.34 382.14C131.09 383.51 133.04 384.12 134.95 385.11C137.65 386.5 140.19 387.42 143.01 388.18C147.14 389.28 150.83 390.09 155.27 389.07C157.18 388.63 159.71 389.15 161.63 388.21C164.31 386.92 166.78 386.1 169.72 385.45C170.64 385.25 171.93 384.08 172.84 383.65C176.61 381.86 181.91 377.27 184.26 373.91L189.48 366.43C189.85 365.9 189.87 364.35 190.17 363.79C191.35 361.61 191.46 358.66 192.31 356.45C193.54 353.3 193.7 351.69 192.55 348.73C191 344.78 188.54 340.8 183.84 340.02C183.29 338.4 181.89 339.21 180.88 339.19C177.43 339.13 174.77 340.49 172.2 342.57C169.5 344.76 167.26 346.95 166.49 350.44C165.93 352.96 164.74 355.99 163.03 358.09C160.53 361.16 155.92 362.65 152.2 361.83C141.48 359.44 143.8 358.72 136.22 348.44C135.53 347.51 135.06 346.37 135.46 345.28" fill="#90BEFB"/>
<path d="M268.061 271.48C269.021 273.85 269.021 276.32 267.401 278.22C267.151 282.13 261.251 286.83 257.601 285.89C255.191 286.78 252.441 286.57 250.391 284.98C247.551 285.16 245.791 283.05 244.241 281.22C242.561 279.25 242.301 277.74 242.211 275.38C242.161 273.72 242.001 272.31 242.461 270.64C243.081 268.4 243.541 266.31 245.231 264.47C249.441 259.92 250.191 259.94 256.101 259.57C261.211 259.24 269.011 265.39 268.071 271.48M286.931 249.34C285.271 247.23 283.131 245.56 281.881 243.2C279.231 241.96 277.121 240.28 275.001 238.43C271.281 237.18 273.021 236.12 268.131 235.57L266.671 234.54C263.861 234.48 261.211 233.87 258.601 232.96C257.741 233.09 256.251 233.39 255.371 233.26C253.821 233.02 252.731 233.65 251.361 233.9C246.981 234.69 240.711 235.17 237.711 238.98C237.241 239.57 234.921 237.78 227.151 246.37C220.311 253.94 222.931 252.32 218.451 260.47L218.261 261.92C216.641 263.86 216.991 266.53 216.711 268.74C216.381 271.3 215.841 273.24 216.461 275.88C218.071 282.73 216.061 282.09 219.561 288.76C220.261 290.11 220.901 291.36 221.731 292.73C222.361 293.77 222.871 295.15 223.631 296.15L226.331 299.73C227.801 300.59 229.321 301.21 229.901 303.04C230.411 304.6 231.781 304.86 232.951 305.58L237.451 308.31C240.711 310.3 244.041 310.94 247.691 311.82C250.041 312.4 252.121 313.15 254.661 313.1C256.801 313.07 258.851 313.14 260.971 312.65L269.171 310.76C269.951 310.58 271.451 309.87 272.301 309.47C276.521 307.48 279.931 304.49 283.591 301.65C285.041 300.53 285.851 299.4 286.761 297.87L288.771 294.5C289.001 294.11 290.061 293.26 290.231 292.77C290.711 291.36 291.781 289.3 292.911 288.08L294.431 280.95L295.571 275.36C295.161 273.95 294.761 272.22 294.751 270.85L296.631 269.24C294.121 268.52 294.991 266.89 294.471 265.64C293.631 263.58 292.781 261.66 292.151 259.49C291.491 257.19 290.841 254.78 289.241 252.95C288.301 251.88 287.731 250.34 286.921 249.33" fill="#90BEFB"/>
<path d="M173.57 239.18C174.93 240.56 175.8 241.85 176.45 243.61C176.92 244.86 177.98 245.89 178.68 246.95C180.33 249.44 181.97 251.71 183.97 253.98C185.62 255.85 186.98 258.01 188.46 260.03L190.8 263.2C195.48 269.57 191.97 266.58 195.57 270.18C196.64 271.26 197.67 273.85 198.88 275.32C205.49 283.31 203.28 282.22 205.68 285.55L208.78 289.85L211.04 293.11L215.88 300.03C218.18 303.31 217.96 301.63 220.6 306.45C226.44 317.07 225.98 312.73 231.99 321.94C232.8 323.18 233.96 324.01 234.09 325.75C234.16 326.64 235.54 328.15 235.82 328.99C235.07 333.42 236.54 334.59 234.47 337.23C233.82 338.06 233.31 339.74 232.49 340.48C230.77 342.02 229.49 343.31 228.06 344.9C219.78 346.27 218.37 346.9 211.23 341.31C210.49 339.44 209.17 337.79 207.69 336.02C206.39 334.48 206.84 332.42 204.08 330.14C202.73 327.66 200.85 325.27 198.89 323.07C197.29 321.27 196.06 319.11 194.6 317.22L192.22 314.17L189.74 310.31C188.99 309.15 188.95 307.76 187.26 307.18C186.7 306.11 185.81 304.4 185.07 303.29L182.27 299.09C181.49 297.93 179.7 296.69 179.18 295.47C178.49 293.84 177.9 292.52 176.91 291.15L174.23 287.43L171.82 283.92L166.97 277.01C164.77 273.88 165.23 275.96 162.26 270.58C160.69 267.74 159.3 265.04 156.93 262.76C154.55 260.45 152.73 257.87 150.83 255.12C146.92 249.44 150.81 253.98 147 248.06L147.41 241.8C148.02 240.51 149.25 238.42 150.14 236.88C150.73 235.85 152.51 235 153.24 234.1C154.23 232.88 155.07 232.14 156.48 231.98C160.87 231.49 164.25 230.27 168.92 233.75C174.99 238.28 170.29 235.81 173.58 239.15" fill="#90BEFB"/>
<path d="M361.93 194.301L366.58 200.751C368.15 202.931 369.83 205.091 371.07 207.431C371.62 208.471 372.07 209.111 372.8 210.021C374.56 212.171 375.87 214.881 377.84 216.891C379.39 218.471 381.52 222.541 381.98 225.191C382.52 228.271 382.25 230.951 380.34 233.481C377.65 237.021 375.32 238.751 371.15 240.321C370.09 240.721 369.16 240.971 368.09 240.691C366.13 240.161 364.17 239.881 362.32 238.991C360.96 238.341 359.03 236.601 358.35 235.391C357.34 233.571 356.55 232.271 355.38 230.711L352.26 226.541C350.63 224.371 349.39 222.471 347.76 220.601C345.25 217.721 343.14 214.651 340.82 211.651C336.87 206.541 329.46 206.181 324.43 209.691C322.5 211.041 322.05 212.101 321.04 214.041C320.17 215.741 319.15 216.991 319.07 219.071C319 220.871 317.58 223.091 319.11 224.761C319.96 225.691 320.12 226.961 320.65 228.111C322.52 232.171 325.54 235.651 328.24 239.291L331.47 243.661C333.15 245.931 334.73 248.141 336.68 250.141C337.51 254.331 339.03 253.771 338.92 258.031C338.86 260.501 338.94 263.251 337.31 265.391C335.43 267.871 330.58 270.891 328.68 271.151C325.97 271.531 323.13 271.131 320.53 270.331C319.16 269.911 316.76 268.241 315.96 267.131L312.31 262.091L309.52 258.381L303.69 250.811L300.44 246.061C299.32 244.431 298.35 243.071 297.39 241.421C296.39 239.721 294.6 238.111 293.77 236.321C293.14 234.961 292.74 234.341 291.42 233.381C290.73 232.631 290.47 230.491 289.72 229.551C288.62 228.191 287.44 226.221 286.37 225.291C284.01 223.221 282.71 221.721 282.17 218.731C281.73 216.261 281.29 214.171 282.29 211.591C282.65 210.641 282.52 208.501 283.27 207.791L287.04 204.201C289.17 202.161 292.31 201.521 295.07 201.861C297.41 202.141 298.28 200.711 299 198.831C300.56 194.731 304.01 191.981 307.42 189.341C308.56 188.461 309.57 186.841 310.85 186.401C312.86 185.731 317.39 183.631 318.01 181.341C320.88 182.411 324.08 181.671 326.89 180.521C327.96 181.061 334.02 180.801 335.26 179.891C337.06 181.231 339.36 181.551 341.38 180.131C343.58 182.921 346.63 182.781 348.93 183.131C350.13 183.321 350.79 185.121 352.63 183.621C353.86 186.281 352.63 187.961 357.53 189.741C358.04 190.221 358.82 191.251 359.33 192.051C359.87 192.891 361.44 193.641 361.94 194.331" fill="#90BEFB"/>
<path d="M70.2104 377.4C70.1504 381.03 67.2103 386.04 63.2803 387.65C59.3603 389.26 54.3304 389.71 50.7304 387.07L47.8804 384.98C43.8404 382.03 43.2003 377.52 45.0303 373.05C45.6503 371.51 46.0404 370.02 47.1104 368.56C49.8004 364.92 54.0203 362.33 58.5504 363.61L64.0804 365.18L67.3604 368.15C71.7204 372.1 70.2804 372.89 70.2204 377.41M93.3904 358.36L89.3304 352.09C85.4004 346.02 78.6304 341.79 72.0004 339.06C68.0004 337.42 58.5004 335.65 53.9904 336.37L48.5604 337.23C46.6504 337.53 44.6604 338.38 42.7104 338.98C38.2703 340.33 36.1304 345.4 34.9704 340.84L32.5904 331.5L31.5004 326.59L29.8804 321.08L26.1004 304.66C25.5704 302.38 24.8304 300.23 23.7604 298.04C21.1004 292.59 14.0804 291.66 8.61035 293.04C7.58035 293.3 6.32035 294.46 5.31035 294.96C-1.11965 298.18 -0.259648 303.32 0.580352 309.72C0.640352 310.17 1.52035 311.03 1.53035 311.43C1.54035 311.9 1.16035 312.62 0.810352 313L1.06035 314.12C1.34035 314.29 1.82035 314.69 2.06035 314.94L3.45035 321.2C3.34035 321.53 3.07035 322.09 2.89035 322.37L2.97035 322.75C3.89035 322.85 4.39035 323.6 4.46035 324.61C4.56035 326.33 5.18035 327.92 5.60035 329.6L7.84035 338.57L9.10035 344.46L11.1304 354.98C11.3204 355.99 12.5404 357.1 12.5104 358.36C12.4704 360.01 13.5204 361.73 13.6704 363.14C13.8104 364.45 13.9504 365.13 14.3704 366.36C14.7304 367.44 16.6904 375.14 16.8804 376.19C17.2104 378.14 17.4804 379.53 18.0204 381.47L20.1604 389.21C20.6504 390.99 21.3104 392.23 21.6004 394.17L23.7604 397.7C24.8204 399.43 25.8804 400.48 27.1304 402L29.1104 404.4C31.8704 407.75 42.3404 414.54 45.3004 414.92L49.3204 415.44C53.8404 416.03 57.8104 417.29 63.7404 415.99C68.3704 414.97 73.0904 414.01 77.0104 411.4L82.8503 407.52C85.9403 405.47 89.3004 401.51 91.2104 398.32L94.1604 393.4C98.8404 385.6 99.0903 367.19 93.3803 358.38" fill="#90BEFB"/>
</g>
</g>
<defs>
<clipPath id="clip0_2554_10006">
<rect width="741.26" height="416.54" fill="white"/>
</clipPath>
</defs>
</svg>
