<svg width="528" height="228" viewBox="0 0 528 228" fill="none" xmlns="http://www.w3.org/2000/svg">
<g clip-path="url(#clip0_2554_11355)">
<mask id="mask0_2554_11355" style="mask-type:luminance" maskUnits="userSpaceOnUse" x="0" y="0" width="528" height="228">
<path d="M527.84 0H0V227.55H527.84V0Z" fill="white"/>
</mask>
<g mask="url(#mask0_2554_11355)">
<path d="M517.88 99.0596C521.68 100.52 525.89 98.6496 527.35 94.8396C528.81 91.0396 526.94 86.8296 523.13 85.3696C519.33 83.9096 515.12 85.7796 513.66 89.5896C512.2 93.3896 514.07 97.5996 517.88 99.0596ZM426.63 64.0296C430.43 65.4896 434.64 63.6196 436.1 59.8096C437.56 56.0096 435.69 51.7996 431.88 50.3396C428.08 48.8796 423.87 50.7496 422.41 54.5596C420.95 58.3596 422.82 62.5696 426.63 64.0296ZM427.3 198.65C431.1 200.11 435.31 198.24 436.77 194.43C438.23 190.63 436.36 186.42 432.55 184.96C428.75 183.5 424.54 185.37 423.08 189.18C421.62 192.98 423.49 197.19 427.3 198.65ZM433.72 181.92C437.52 183.38 441.73 181.51 443.19 177.7C444.65 173.9 442.78 169.69 438.97 168.23C435.17 166.77 430.96 168.64 429.5 172.45C428.04 176.25 429.91 180.46 433.72 181.92ZM440.14 165.19C443.94 166.65 448.15 164.77 449.61 160.97C451.07 157.17 449.2 152.96 445.39 151.5C441.59 150.04 437.38 151.91 435.92 155.72C434.46 159.52 436.33 163.73 440.14 165.19ZM499.29 111.12C503.09 112.58 507.3 110.71 508.76 106.9C510.22 103.1 508.35 98.8896 504.54 97.4296C500.74 95.9696 496.53 97.8396 495.07 101.65C493.61 105.45 495.48 109.66 499.29 111.12ZM481.46 123.47C485.26 124.93 489.47 123.06 490.93 119.25C492.39 115.45 490.52 111.24 486.71 109.78C482.91 108.32 478.7 110.19 477.24 114C475.78 117.8 477.65 122.01 481.46 123.47ZM464.39 136.11C468.19 137.57 472.4 135.7 473.86 131.89C475.32 128.09 473.45 123.88 469.64 122.42C465.84 120.96 461.63 122.83 460.17 126.64C458.71 130.44 460.58 134.65 464.39 136.11ZM436.6 106.25C440.4 107.71 444.61 105.84 446.07 102.03C447.53 98.2296 445.66 94.0196 441.85 92.5596C438.05 91.0996 433.84 92.9696 432.38 96.7796C430.92 100.58 432.79 104.79 436.6 106.25ZM441.58 127.35C445.38 128.81 449.59 126.94 451.05 123.13C452.51 119.33 450.64 115.12 446.83 113.66C443.03 112.2 438.82 114.07 437.36 117.88C435.9 121.68 437.77 125.89 441.58 127.35ZM446.57 148.46C450.37 149.92 454.58 148.05 456.04 144.24C457.5 140.44 455.63 136.23 451.82 134.77C448.02 133.31 443.81 135.18 442.35 138.99C440.89 142.79 442.76 147 446.57 148.46ZM432.37 85.4296C436.17 86.8896 440.38 85.0196 441.84 81.2096C443.3 77.4096 441.43 73.1996 437.62 71.7396C433.82 70.2796 429.61 72.1496 428.15 75.9596C426.69 79.7596 428.56 83.9696 432.37 85.4296Z" fill="#90BEFB"/>
<path d="M75.08 64.0096C79.12 64.5096 82.75 61.6696 83.25 57.6296C83.75 53.5896 80.91 49.9596 76.87 49.4596C72.83 48.9596 69.2 51.7996 68.7 55.8396C68.2 59.8796 71.04 63.5096 75.08 64.0096ZM57.3 61.8296C61.34 62.3296 64.97 59.4896 65.47 55.4496C65.97 51.4096 63.13 47.7796 59.09 47.2796C55.05 46.7796 51.42 49.6196 50.92 53.6596C50.42 57.6996 53.26 61.3296 57.3 61.8296ZM39.51 59.6396C43.55 60.1396 47.18 57.2996 47.68 53.2596C48.18 49.2196 45.34 45.5896 41.3 45.0896C37.26 44.5896 33.63 47.4296 33.13 51.4696C32.63 55.5096 35.47 59.1396 39.51 59.6396ZM21.73 57.4596C25.77 57.9596 29.4 55.1196 29.9 51.0796C30.4 47.0396 27.56 43.4096 23.52 42.9096C19.48 42.4096 15.85 45.2496 15.35 49.2896C14.85 53.3296 17.69 56.9596 21.73 57.4596ZM67.44 126.26C71.48 126.76 75.11 123.92 75.61 119.88C76.11 115.84 73.27 112.21 69.23 111.71C65.19 111.21 61.56 114.05 61.06 118.09C60.56 122.13 63.4 125.76 67.44 126.26ZM59.8 188.51C63.84 189.01 67.47 186.17 67.97 182.13C68.47 178.09 65.63 174.46 61.59 173.96C57.55 173.46 53.92 176.3 53.42 180.34C52.92 184.38 55.76 188.01 59.8 188.51ZM49.65 124.08C53.69 124.58 57.32 121.74 57.82 117.7C58.32 113.66 55.48 110.03 51.44 109.53C47.4 109.03 43.77 111.87 43.27 115.91C42.77 119.95 45.61 123.58 49.65 124.08ZM42.01 186.33C46.05 186.83 49.68 183.99 50.18 179.95C50.68 175.91 47.84 172.28 43.8 171.78C39.76 171.28 36.13 174.12 35.63 178.16C35.13 182.2 37.97 185.83 42.01 186.33ZM31.87 121.89C35.91 122.39 39.54 119.55 40.04 115.51C40.54 111.47 37.7 107.84 33.66 107.34C29.62 106.84 25.99 109.68 25.49 113.72C24.99 117.76 27.83 121.39 31.87 121.89ZM24.22 184.14C28.26 184.64 31.89 181.8 32.39 177.76C32.89 173.72 30.05 170.09 26.01 169.59C21.97 169.09 18.34 171.93 17.84 175.97C17.34 180.01 20.18 183.64 24.22 184.14ZM85.23 128.45C89.27 128.95 92.9 126.11 93.4 122.07C93.9 118.03 91.06 114.4 87.02 113.9C82.98 113.4 79.35 116.24 78.85 120.28C78.35 124.32 81.19 127.95 85.23 128.45ZM77.58 190.7C81.62 191.2 85.25 188.36 85.75 184.32C86.25 180.28 83.41 176.65 79.37 176.15C75.33 175.65 71.7 178.49 71.2 182.53C70.7 186.57 73.54 190.2 77.58 190.7ZM19.54 75.2496C23.58 75.7496 27.21 72.9096 27.71 68.8696C28.21 64.8296 25.37 61.1996 21.33 60.6996C17.29 60.1996 13.66 63.0396 13.16 67.0796C12.66 71.1196 15.5 74.7496 19.54 75.2496ZM17.36 93.0296C21.4 93.5296 25.03 90.6896 25.53 86.6496C26.03 82.6096 23.19 78.9796 19.15 78.4796C15.11 77.9796 11.48 80.8196 10.98 84.8596C10.48 88.8996 13.32 92.5296 17.36 93.0296ZM15.17 110.82C19.21 111.32 22.84 108.48 23.34 104.44C23.84 100.4 21 96.7696 16.96 96.2696C12.92 95.7696 9.29 98.6096 8.79 102.65C8.29 106.69 11.13 110.32 15.17 110.82ZM12.99 128.6C17.03 129.1 20.66 126.26 21.16 122.22C21.66 118.18 18.82 114.55 14.78 114.05C10.74 113.55 7.11 116.39 6.61 120.43C6.11 124.47 8.95 128.1 12.99 128.6ZM10.81 146.39C14.85 146.89 18.48 144.05 18.98 140.01C19.48 135.97 16.64 132.34 12.6 131.84C8.56 131.34 4.93 134.18 4.43 138.22C3.93 142.26 6.77 145.89 10.81 146.39ZM8.62 164.17C12.66 164.67 16.29 161.83 16.79 157.79C17.29 153.75 14.45 150.12 10.41 149.62C6.37 149.12 2.74 151.96 2.24 156C1.74 160.04 4.58 163.67 8.62 164.17ZM6.44 181.96C10.48 182.46 14.11 179.62 14.61 175.58C15.11 171.54 12.27 167.91 8.23 167.41C4.19 166.91 0.559999 169.75 0.0599987 173.79C-0.440001 177.83 2.4 181.46 6.44 181.96Z" fill="#90BEFB"/>
<path d="M199.71 50.7199C195.64 50.7599 192.41 54.0399 192.44 58.1099C192.48 62.1799 195.76 65.4099 199.83 65.3799C203.9 65.3399 207.13 62.0599 207.1 57.9899C207.06 53.9199 203.78 50.6899 199.71 50.7199ZM162.36 158.57C158.29 158.61 155.06 161.89 155.09 165.96C155.13 170.03 158.41 173.26 162.48 173.23C166.55 173.19 169.78 169.91 169.75 165.84C169.72 161.77 166.43 158.54 162.36 158.57ZM192.53 68.7099C188.46 68.7499 185.23 72.0299 185.26 76.0999C185.29 80.1699 188.58 83.3999 192.65 83.3699C196.72 83.3299 199.95 80.0499 199.92 75.9799C199.89 71.9099 196.6 68.6799 192.53 68.7099ZM156 176.54C151.93 176.58 148.7 179.86 148.73 183.93C148.77 188 152.05 191.23 156.13 191.2C160.2 191.16 163.43 187.88 163.4 183.81C163.36 179.74 160.08 176.51 156.01 176.54M139.71 176.69C135.64 176.73 132.41 180.01 132.44 184.08C132.48 188.15 135.76 191.38 139.83 191.35C143.9 191.31 147.13 188.03 147.1 183.96C147.06 179.89 143.78 176.66 139.71 176.69ZM133.04 158.82C128.97 158.86 125.74 162.14 125.77 166.21C125.81 170.28 129.09 173.51 133.16 173.48C137.23 173.44 140.46 170.16 140.43 166.08C140.39 162.01 137.11 158.78 133.04 158.81M126.37 140.96C122.3 141 119.07 144.28 119.1 148.35C119.14 152.42 122.42 155.65 126.49 155.62C130.56 155.58 133.79 152.3 133.76 148.23C133.72 144.16 130.44 140.93 126.37 140.96ZM119.7 123.1C115.63 123.14 112.4 126.42 112.43 130.49C112.47 134.56 115.75 137.79 119.82 137.76C123.89 137.72 127.12 134.44 127.09 130.37C127.05 126.3 123.77 123.07 119.7 123.1ZM113.03 105.24C108.96 105.28 105.73 108.56 105.76 112.64C105.8 116.71 109.08 119.94 113.15 119.91C117.22 119.87 120.45 116.59 120.42 112.52C120.38 108.45 117.1 105.22 113.03 105.25M106.35 87.3799C102.28 87.4199 99.0498 90.6999 99.0798 94.7699C99.1098 98.8399 102.4 102.07 106.47 102.04C110.54 102.01 113.77 98.7199 113.74 94.6499C113.7 90.5799 110.42 87.3499 106.35 87.3799ZM168.72 140.59C164.65 140.62 161.42 143.91 161.45 147.98C161.49 152.05 164.77 155.28 168.84 155.25C172.91 155.22 176.14 151.93 176.11 147.86C176.07 143.79 172.79 140.56 168.72 140.59ZM175.08 122.62C171.01 122.66 167.78 125.94 167.81 130.01C167.85 134.08 171.13 137.31 175.2 137.28C179.27 137.24 182.5 133.96 182.47 129.89C182.43 125.82 179.15 122.59 175.08 122.62ZM181.44 104.64C177.37 104.68 174.14 107.96 174.17 112.04C174.21 116.11 177.49 119.34 181.56 119.31C185.63 119.27 188.86 115.99 188.83 111.92C188.79 107.85 185.51 104.62 181.44 104.65M187.8 86.6699C183.73 86.7099 180.5 89.9899 180.53 94.0599C180.57 98.1299 183.85 101.36 187.93 101.33C192 101.29 195.23 98.0099 195.2 93.9299C195.16 89.8599 191.88 86.6299 187.81 86.6599M101.31 69.4999C97.2398 69.5399 94.0098 72.8199 94.0398 76.8899C94.0698 80.9599 97.3598 84.1899 101.43 84.1599C105.5 84.1199 108.73 80.8399 108.7 76.7699C108.67 72.6999 105.38 69.4699 101.31 69.4999Z" fill="#90BEFB"/>
<path d="M242.95 25.2C245.83 22.32 245.83 17.71 242.95 14.83C240.07 11.95 235.46 11.95 232.58 14.83C229.7 17.71 229.7 22.32 232.58 25.2C235.46 28.08 240.07 28.08 242.95 25.2ZM230.28 37.87C233.16 34.99 233.16 30.38 230.28 27.5C227.4 24.62 222.79 24.62 219.91 27.5C217.03 30.38 217.03 34.99 219.91 37.87C222.79 40.75 227.4 40.75 230.28 37.87ZM217.61 50.54C220.49 47.66 220.49 43.05 217.61 40.17C214.73 37.29 210.12 37.29 207.24 40.17C204.36 43.05 204.36 47.66 207.24 50.54C210.12 53.42 214.73 53.42 217.61 50.54ZM255.62 12.53C258.5 9.65 258.5 5.04 255.62 2.16C252.74 -0.72 248.13 -0.72 245.25 2.16C242.37 5.04 242.37 9.65 245.25 12.53C248.13 15.41 252.74 15.41 255.62 12.53ZM204.94 63.21C207.82 60.33 207.82 55.72 204.94 52.84C202.06 49.96 197.45 49.96 194.57 52.84C191.69 55.72 191.69 60.33 194.57 63.21C197.45 66.09 202.06 66.09 204.94 63.21ZM287.3 69.55C290.18 66.67 290.18 62.06 287.3 59.18C284.42 56.3 279.81 56.3 276.93 59.18C274.05 62.06 274.05 66.67 276.93 69.55C279.81 72.43 284.42 72.43 287.3 69.55ZM331.64 113.89C334.52 111.01 334.52 106.4 331.64 103.52C328.76 100.64 324.15 100.64 321.27 103.52C318.39 106.4 318.39 111.01 321.27 113.89C324.15 116.77 328.76 116.77 331.64 113.89ZM274.63 82.22C277.51 79.34 277.51 74.73 274.63 71.85C271.75 68.97 267.14 68.97 264.26 71.85C261.38 74.73 261.38 79.34 264.26 82.22C267.14 85.1 271.75 85.1 274.63 82.22ZM318.97 126.56C321.85 123.68 321.85 119.07 318.97 116.19C316.09 113.31 311.48 113.31 308.6 116.19C305.72 119.07 305.72 123.68 308.6 126.56C311.48 129.44 316.09 129.44 318.97 126.56ZM261.95 94.89C264.83 92.01 264.83 87.4 261.95 84.52C259.07 81.64 254.46 81.64 251.58 84.52C248.7 87.4 248.7 92.01 251.58 94.89C254.46 97.77 259.07 97.77 261.95 94.89ZM306.3 139.23C309.18 136.35 309.18 131.74 306.3 128.86C303.42 125.98 298.81 125.98 295.93 128.86C293.05 131.74 293.05 136.35 295.93 139.23C298.81 142.11 303.42 142.11 306.3 139.23ZM299.97 56.88C302.85 54 302.85 49.39 299.97 46.51C297.09 43.63 292.48 43.63 289.6 46.51C286.72 49.39 286.72 54 289.6 56.88C292.48 59.76 297.09 59.76 299.97 56.88ZM344.31 101.22C347.19 98.34 347.19 93.73 344.31 90.85C341.43 87.97 336.82 87.97 333.94 90.85C331.06 93.73 331.06 98.34 333.94 101.22C336.82 104.1 341.43 104.1 344.31 101.22ZM217.61 75.88C220.49 73 220.49 68.39 217.61 65.51C214.73 62.63 210.12 62.63 207.24 65.51C204.36 68.39 204.36 73 207.24 75.88C210.12 78.76 214.73 78.76 217.61 75.88ZM230.28 88.55C233.16 85.67 233.16 81.06 230.28 78.18C227.4 75.3 222.79 75.3 219.91 78.18C217.03 81.06 217.03 85.67 219.91 88.55C222.79 91.43 227.4 91.43 230.28 88.55ZM242.95 101.22C245.83 98.34 245.83 93.73 242.95 90.85C240.07 87.97 235.46 87.97 232.58 90.85C229.7 93.73 229.7 98.34 232.58 101.22C235.46 104.1 240.07 104.1 242.95 101.22ZM255.62 113.89C258.5 111.01 258.5 106.4 255.62 103.52C252.74 100.64 248.13 100.64 245.25 103.52C242.37 106.4 242.37 111.01 245.25 113.89C248.13 116.77 252.74 116.77 255.62 113.89ZM268.29 126.56C271.17 123.68 271.17 119.07 268.29 116.19C265.41 113.31 260.8 113.31 257.92 116.19C255.04 119.07 255.04 123.68 257.92 126.56C260.8 129.44 265.41 129.44 268.29 126.56ZM280.96 139.23C283.84 136.35 283.84 131.74 280.96 128.86C278.08 125.98 273.47 125.98 270.59 128.86C267.71 131.74 267.71 136.35 270.59 139.23C273.47 142.11 278.08 142.11 280.96 139.23ZM293.63 151.91C296.51 149.03 296.51 144.42 293.63 141.54C290.75 138.66 286.14 138.66 283.26 141.54C280.38 144.42 280.38 149.03 283.26 151.91C286.14 154.79 290.75 154.79 293.63 151.91Z" fill="#90BEFB"/>
<path d="M430.89 199.07C434.92 198.5 437.7 194.82 437.13 190.79C436.56 186.76 432.88 183.98 428.85 184.55C424.82 185.12 422.04 188.8 422.61 192.83C423.18 196.86 426.86 199.64 430.89 199.07ZM419.78 120.03C423.81 119.46 426.59 115.78 426.02 111.75C425.45 107.72 421.77 104.94 417.74 105.51C413.71 106.08 410.93 109.76 411.5 113.79C412.07 117.82 415.75 120.6 419.78 120.03ZM433.38 216.82C437.41 216.25 440.19 212.57 439.62 208.54C439.05 204.51 435.37 201.73 431.34 202.3C427.31 202.87 424.53 206.55 425.1 210.58C425.67 214.61 429.35 217.39 433.38 216.82ZM393.34 95.7796C397.37 95.2096 400.15 91.5296 399.58 87.4996C399.01 83.4696 395.33 80.6896 391.3 81.2596C387.27 81.8296 384.49 85.5096 385.06 89.5396C385.63 93.5696 389.31 96.3496 393.34 95.7796ZM375.59 98.2696C379.62 97.6996 382.4 94.0196 381.83 89.9896C381.26 85.9596 377.58 83.1796 373.55 83.7496C369.52 84.3196 366.74 87.9996 367.31 92.0296C367.88 96.0596 371.56 98.8396 375.59 98.2696ZM357.85 100.77C361.88 100.2 364.66 96.5196 364.09 92.4896C363.52 88.4596 359.84 85.6796 355.81 86.2496C351.78 86.8196 349 90.4996 349.57 94.5296C350.14 98.5596 353.82 101.34 357.85 100.77ZM410.83 103.19C414.86 102.62 417.64 98.9396 417.07 94.9096C416.5 90.8796 412.82 88.0996 408.79 88.6696C404.76 89.2396 401.98 92.9196 402.55 96.9496C403.12 100.98 406.8 103.76 410.83 103.19ZM340.1 103.26C344.13 102.69 346.91 99.0096 346.34 94.9796C345.77 90.9496 342.09 88.1696 338.06 88.7396C334.03 89.3096 331.25 92.9896 331.82 97.0196C332.39 101.05 336.07 103.83 340.1 103.26ZM400.82 149.01C404.85 148.44 407.63 144.76 407.06 140.73C406.49 136.7 402.81 133.92 398.78 134.49C394.75 135.06 391.97 138.74 392.54 142.77C393.11 146.8 396.79 149.58 400.82 149.01ZM403.77 169.99C407.8 169.42 410.58 165.74 410.01 161.71C409.44 157.68 405.76 154.9 401.73 155.47C397.7 156.04 394.92 159.72 395.49 163.75C396.06 167.78 399.74 170.56 403.77 169.99ZM383.08 151.51C387.11 150.94 389.89 147.26 389.32 143.23C388.75 139.2 385.07 136.42 381.04 136.99C377.01 137.56 374.23 141.24 374.8 145.27C375.37 149.3 379.05 152.08 383.08 151.51ZM385.57 169.25C389.6 168.68 392.38 165 391.81 160.97C391.24 156.94 387.56 154.16 383.53 154.73C379.5 155.3 376.72 158.98 377.29 163.01C377.86 167.04 381.54 169.82 385.57 169.25ZM365.33 154C369.36 153.43 372.14 149.75 371.57 145.72C371 141.69 367.32 138.91 363.29 139.48C359.26 140.05 356.48 143.73 357.05 147.76C357.62 151.79 361.3 154.57 365.33 154ZM367.82 171.75C371.85 171.18 374.63 167.5 374.06 163.47C373.49 159.44 369.81 156.66 365.78 157.23C361.75 157.8 358.97 161.48 359.54 165.51C360.11 169.54 363.79 172.32 367.82 171.75ZM415.82 138.68C419.85 138.11 422.63 134.43 422.06 130.4C421.49 126.37 417.81 123.59 413.78 124.16C409.75 124.73 406.97 128.41 407.54 132.44C408.11 136.47 411.79 139.25 415.82 138.68ZM420.1 180.85C424.13 180.28 426.91 176.6 426.34 172.57C425.77 168.54 422.09 165.76 418.06 166.33C414.03 166.9 411.25 170.58 411.82 174.61C412.39 178.64 416.07 181.42 420.1 180.85ZM342.6 121.01C346.63 120.44 349.41 116.76 348.84 112.73C348.27 108.7 344.59 105.92 340.56 106.49C336.53 107.06 333.75 110.74 334.32 114.77C334.89 118.8 338.57 121.58 342.6 121.01ZM345.09 138.75C349.12 138.18 351.9 134.5 351.33 130.47C350.76 126.44 347.08 123.66 343.05 124.23C339.02 124.8 336.24 128.48 336.81 132.51C337.38 136.54 341.06 139.32 345.09 138.75ZM347.59 156.5C351.62 155.93 354.4 152.25 353.83 148.22C353.26 144.19 349.58 141.41 345.55 141.98C341.52 142.55 338.74 146.23 339.31 150.26C339.88 154.29 343.56 157.07 347.59 156.5ZM350.08 174.24C354.11 173.67 356.89 169.99 356.32 165.96C355.75 161.93 352.07 159.15 348.04 159.72C344.01 160.29 341.23 163.97 341.8 168C342.37 172.03 346.05 174.81 350.08 174.24ZM352.57 191.99C356.6 191.42 359.38 187.74 358.81 183.71C358.24 179.68 354.56 176.9 350.53 177.47C346.5 178.04 343.72 181.72 344.29 185.75C344.86 189.78 348.54 192.56 352.57 191.99ZM355.07 209.73C359.1 209.16 361.88 205.48 361.31 201.45C360.74 197.42 357.06 194.64 353.03 195.21C349 195.78 346.22 199.46 346.79 203.49C347.36 207.52 351.04 210.3 355.07 209.73ZM357.56 227.47C361.59 226.9 364.37 223.22 363.8 219.19C363.23 215.16 359.55 212.38 355.52 212.95C351.49 213.52 348.71 217.2 349.28 221.23C349.85 225.26 353.53 228.04 357.56 227.47Z" fill="#90BEFB"/>
<path d="M93.5601 65.9704C97.6001 66.4704 101.23 63.6304 101.73 59.5904C102.23 55.5504 99.3901 51.9204 95.3501 51.4204C91.3101 50.9204 87.6801 53.7604 87.1801 57.8004C86.6801 61.8404 89.5201 65.4704 93.5601 65.9704Z" fill="#90BEFB"/>
</g>
</g>
<defs>
<clipPath id="clip0_2554_11355">
<rect width="527.84" height="227.55" fill="white"/>
</clipPath>
</defs>
</svg>
