<svg width="556" height="222" viewBox="0 0 556 222" fill="none" xmlns="http://www.w3.org/2000/svg">
<g clip-path="url(#clip0_2554_3211)">
<path d="M511.96 15.8702V18.7502L509.36 19.0402C509.22 19.0602 508.66 19.0702 508.68 18.9402C508.7 18.7602 508.84 18.4002 508.97 18.2602L511.27 15.7602L511.62 15.3602C511.69 15.2802 511.95 15.7502 511.95 15.8702" fill="#90BEFB"/>
<path d="M93.3501 13.8299C91.2201 16.2699 88.2801 17.6899 85.0401 17.7299C83.9401 18.0899 78.52 17.5099 77.84 16.7299C76.94 15.6799 77.9501 14.5599 78.5201 13.7599C79.83 11.9499 81.0501 10.1799 82.7301 8.70993C85.2701 6.50993 88.4701 5.53993 91.8001 5.92993L93.5601 6.89993C96.1401 8.31993 95.1101 11.8399 93.3501 13.8399M54.4001 51.5299C53.5801 53.7799 52.8901 56.0799 52.1901 58.3899C51.8701 59.4599 51.6101 60.4699 51.1101 61.4699C50.6401 62.3899 50.4301 63.3199 50.4801 64.3499L49.1101 68.3399L47.4301 73.4599L44.9101 81.0899C44.6401 81.8899 44.4301 82.6499 44.1001 83.4399C43.3701 85.2399 43.2301 87.4599 42.0101 89.0099C41.1101 90.1699 39.7901 91.4799 38.5901 92.2399L35.2701 94.3199C32.5101 96.0599 26.4501 97.6499 23.4801 97.3999C22.1301 97.2899 20.8801 97.0499 19.5601 96.7899C18.3201 96.5499 17.5301 95.8999 16.6101 95.1099C14.8201 93.5399 13.5701 91.8399 13.0501 89.4499C12.8201 88.3499 12.3501 87.0899 12.5001 85.8699L13.4901 77.6699C13.6601 76.2499 14.1001 74.9199 14.5301 73.5699L16.4201 67.5899C16.6401 66.9099 17.0801 66.0299 17.3901 65.3999C16.9201 63.7899 18.0801 62.9899 18.7101 61.8099C19.5401 60.2699 20.2101 58.6499 21.1501 57.1399C23.6801 53.0599 23.6401 52.8999 27.1301 49.4599C28.4601 48.1399 29.8201 47.0399 31.3701 46.0599C33.6401 44.6299 37.6901 43.0499 40.3601 42.8299C46.0901 42.3599 50.8901 43.4399 54.2501 48.2299C55.0601 49.3899 54.8601 50.2899 54.4001 51.5199M94.6701 1.11993C93.8301 0.999928 92.7801 1.02993 91.9501 1.01993L88.4101 0.979928C86.9701 0.969928 85.5401 1.68993 84.1401 2.28993C82.3401 3.05993 80.2401 3.49993 78.6701 4.73993C77.9101 5.33993 77.1901 6.10993 76.4901 6.76993L74.5001 8.60993C72.3201 10.6399 72.7201 10.8599 70.7701 12.6799C70.4601 12.9599 69.4601 12.6499 69.2001 12.3599C67.7701 10.7399 65.9101 9.87993 64.1601 8.71993C63.4401 8.24993 61.3901 5.94993 59.6501 5.07993L56.0401 3.27993C54.7101 2.60993 53.4101 2.27993 51.8601 2.26993C51.1601 2.26993 50.3601 1.78993 49.7001 1.60993C48.1901 1.19993 43.5801 0.179928 42.2401 0.069928C40.3901 -0.100072 38.4601 0.069928 36.6001 0.239928L33.4301 0.539928L29.4601 1.02993C28.3201 1.16993 27.4701 1.49993 26.4701 1.95993C24.2801 2.98993 21.9201 3.60993 19.7901 4.73993C18.9501 5.18993 18.1601 5.74993 17.2801 6.06993C16.0901 6.48993 15.2001 7.14993 14.3901 8.07993C13.8301 8.71993 13.0401 9.35993 12.5801 10.0599C11.5701 11.5999 8.89005 16.5799 10.1001 18.2699C10.6301 19.0099 11.3801 20.0499 12.1301 20.4099L14.1301 21.3799C15.6301 22.0999 17.6401 21.5799 19.0201 20.6799C19.8801 20.1299 20.5001 19.1599 21.1701 18.3999C23.0701 16.2299 24.7401 14.0299 26.3501 11.6399C27.9701 9.22993 28.2701 9.74993 29.4201 8.79993C30.8501 7.61993 32.4901 7.16993 34.2201 6.67993C38.6401 5.41993 39.4101 6.22993 43.4801 6.76993C45.4701 7.02993 47.4101 7.23993 49.2301 8.05993L56.6701 11.4199C57.8301 11.9499 58.8301 12.7999 59.8701 13.4699L62.8401 15.3499C63.9401 16.0499 64.8901 16.7299 66.1101 17.2999C66.4001 17.4299 66.8801 17.8499 66.8801 18.1299C66.8901 19.1499 63.4101 23.0599 62.6401 26.0899C62.3501 27.2399 61.5301 28.0399 61.0401 29.0499C60.6601 29.8299 60.5701 30.9799 60.3101 31.8399L59.1201 35.8599C58.8001 36.9599 58.3601 37.9199 58.1701 39.0499L57.7101 41.8899C57.6501 42.1999 57.3601 42.6899 57.1601 42.9099C56.1001 44.0099 54.6001 41.3699 53.9601 40.4599C53.6601 40.0399 52.8501 39.7899 52.3801 39.5299C51.2101 38.8699 50.0501 38.4099 48.7901 37.9099C45.0001 36.4199 43.3201 36.2699 39.0701 36.7199C35.2001 37.1399 33.9301 37.1899 30.4101 38.6799C27.1701 40.0499 25.3601 41.0099 22.4001 42.8999C21.4301 43.5299 20.7101 44.2899 19.7801 44.9699L17.8401 46.4099L15.3801 48.6599C14.8901 49.1099 14.3101 49.8599 13.8601 50.4399L11.1701 53.8599C10.6501 54.5199 6.87005 60.6599 6.40005 61.5999C5.92005 62.5399 5.60005 63.4499 4.68005 64.1399L4.29005 66.3499C3.31005 68.1699 2.86005 69.9799 2.13005 71.8799L0.770055 75.4299C0.0300546 77.3799 -0.209945 84.4899 0.190055 87.0399L0.650055 90.0599C1.11005 93.0099 2.48005 96.0799 4.75005 98.0099C6.38005 99.3899 8.75005 100.72 10.5801 101.38L14.2701 102.71H16.7601L19.9301 102.83C22.4001 102.91 25.3401 102.64 27.6601 101.78C28.6801 101.4 30.0601 101.26 31.0301 100.83C32.5401 99.8299 33.7901 98.8799 35.6001 98.2099C36.2301 97.9699 36.6301 97.2599 37.1001 96.8799C37.5101 96.5299 39.2701 95.3599 39.7201 95.4799C39.9601 95.5499 40.2801 96.1099 40.2701 96.3599C40.2701 98.5999 38.5801 99.0899 38.6201 100.96C40.5001 101.88 43.6701 100.45 45.9901 100.19L48.3401 99.9099L51.7001 99.5599C54.6701 99.2499 53.9001 98.9199 57.3801 98.6999C58.0801 98.6599 58.5801 98.9499 58.9301 99.5499C59.2001 100.01 60.8001 99.7699 60.8801 99.2299C60.9801 98.0199 60.9001 97.0199 60.7801 95.6599C59.9001 95.3599 57.8301 98.6499 56.7801 97.2299C54.6101 94.3199 53.6001 96.3199 53.6901 93.8099C53.8201 89.7899 54.7701 90.2699 55.1401 87.4399C55.2901 86.2499 55.4601 85.2299 55.8401 84.1399L56.8001 81.3399C57.5401 79.2299 58.2901 77.2499 58.8101 75.0699C59.5801 71.7899 60.6501 71.9899 60.6501 70.5399C60.6501 69.2199 60.8901 68.0199 61.5201 66.8599C62.4101 65.1899 62.4501 63.1299 63.2101 61.4699C63.6501 60.5099 63.8901 59.7699 64.2201 58.7499L65.7401 54.1099C66.3601 52.2099 66.7801 50.4599 66.9401 48.4699C67.0101 47.5999 67.9401 46.6999 68.2001 45.8999C68.4701 45.0599 68.6401 44.2599 69.0001 43.5399C70.0401 41.4899 71.0001 37.7399 71.0501 37.6499C72.3501 34.9199 72.5601 31.8499 73.0301 28.8499C73.3001 27.1499 74.4601 25.5599 74.5201 23.6399C74.5401 23.0299 75.1001 22.2299 75.5501 21.9999C76.1401 21.6999 77.0901 21.8999 77.6301 22.1599C79.6801 23.1599 81.7901 22.8399 83.9801 22.8899C85.3501 22.9199 86.5501 23.0399 87.9101 22.6099C89.7401 22.0499 92.1301 21.9399 93.4701 20.4399L95.7401 17.8999C96.3501 17.2299 96.9401 16.7499 97.6401 16.1399C98.2001 15.6599 98.4001 14.3299 98.8801 13.7399C99.9901 12.3799 100.2 11.0399 100.42 9.35993L100.81 6.39993C99.8001 3.84993 97.5301 1.58993 94.7001 1.17993" fill="#90BEFB"/>
<path d="M167.35 27.0501C166.88 28.5301 166.58 30.1901 165.35 31.3001L163.78 32.7001C161.65 34.6101 158.58 35.4801 156.2 33.5001C155.87 32.2601 155.3 31.5201 154.52 30.6201C154.03 30.0501 153.68 28.9601 153.07 28.5101C151.77 27.5501 150.27 27.9801 148.96 28.5101C144.84 30.1801 143.42 32.4801 141.79 36.3401C140.98 38.2601 140.35 40.0201 140.12 42.1301C139.99 43.2901 139.08 44.3601 138.73 45.4501C138.42 46.4101 138.21 47.4101 137.98 48.4101C137.63 49.8701 137.09 51.1701 136.55 52.5701L135.36 55.5801C135.21 55.9601 135.16 56.6301 135.31 56.9601C135.44 57.2601 136.13 57.6601 136.46 57.5901C138.43 57.1901 140.18 56.9201 142.16 56.9501L145.15 56.9901C145.98 57.0001 146.91 56.7201 147.83 56.6001C148.22 56.5501 148.48 57.3901 148.24 57.6901C147.44 58.6801 146.91 59.6901 146.91 60.9401C146.91 62.0901 146 62.6301 144.92 62.5901L141.94 62.5101C141.48 62.4901 140.67 62.3301 140.26 62.3801C138.67 62.5901 137.1 62.7601 135.54 62.3801C134.27 62.0601 133.11 62.7201 132.85 64.0001C132.73 64.5701 132.59 65.2901 132.38 65.8101C131.37 68.3201 130.84 70.7901 130.26 73.4201C129.89 75.0901 128.34 78.2401 127.69 81.3301C127.42 82.5601 127.16 83.7101 126.78 84.9501C126.33 86.3701 126.07 87.8901 125.49 89.2801L123.8 93.4101C123.54 94.0201 123.48 94.7901 123.29 95.4101C122.89 96.7601 122.42 98.0001 122.13 99.3801C121.94 100.3 121.12 103.1 120.82 103.85C119.69 106.7 118.79 109.44 118.02 112.39C117.33 115.04 116.51 117.53 115.64 120.1L114.9 122.28C114.36 123.89 114.34 125.78 113.44 127.25C112.99 127.96 112.52 128.56 112.28 129.42C112.09 130.08 111.77 130.47 111.31 131C110.82 131.55 110.87 132.66 110.68 133.43C110.48 134.29 110.02 135.13 109.74 135.96C109.31 137.26 108.93 138.49 108.29 139.72L104.93 146.14C104.46 147.05 104.05 147.8 103.46 148.64L102.26 150.39L101.06 152.13C99.9295 153.77 98.6395 155.13 97.1995 156.47L94.1295 159.33C93.5995 159.83 93.0595 160.22 92.4495 160.66C91.3895 161.44 90.4295 162.49 89.2195 163.09L87.5595 163.92C86.3895 164.49 85.4395 164.87 84.3895 165.54C82.1995 166.95 79.5695 167.41 77.1395 168.23C76.3095 168.51 75.4895 169.03 74.6095 169.09C71.0495 169.29 72.7495 170.65 69.4395 169.85C68.2795 169.57 67.1795 170 66.0595 170.32L63.1695 171.15C62.5495 171.33 61.6495 171.31 60.9895 171.11L56.3195 169.7C54.9495 169.29 53.5995 168.34 52.2795 167.77C50.6295 167.05 49.6995 166.04 48.6095 164.68C46.5595 162.1 45.5795 160.45 45.7395 156.94L45.8695 154.22C45.9095 153.23 45.9495 152.33 46.1495 151.39L46.7195 148.78C46.9595 147.69 47.6995 146.57 48.1095 145.49C50.0695 140.43 55.5695 134.66 60.0395 131.52C61.2895 130.64 62.8495 130.09 64.4095 129.4C68.3695 127.64 72.2795 127.54 76.4395 127.57C77.5695 127.57 78.5695 128.02 79.5195 128.38C81.7195 129.23 83.2795 130.53 84.5195 132.51C85.2395 133.66 85.6595 134.77 85.8195 136.22C85.9195 137.21 86.0995 138.24 85.9695 139.23C85.2495 144.5 86.3795 141.3 84.1195 146.06C83.3595 147.67 82.4695 149.05 81.3295 150.41C80.9395 150.87 80.5695 151.75 80.0795 152.06C76.8295 154.1 76.9895 154.36 73.1995 154.04C70.5295 154.92 69.5795 152.98 68.0295 150.88C67.8095 150.57 67.9495 149.76 68.1695 149.44C69.9895 146.75 68.1795 146.81 71.6995 143.77L74.7795 141.11C76.2795 139.82 77.7495 137.28 76.1095 135.4C75.4395 134.64 72.2295 133.28 71.8195 133.25C70.0495 133.13 68.1395 133.23 66.5395 133.91C62.8895 135.44 62.3695 135.72 59.1495 138.03C56.7495 139.74 55.1195 143.43 53.9195 146.02C52.8195 148.4 52.0795 150.65 52.3595 153.35C52.4995 154.62 52.6795 155.85 53.2695 156.98C53.8295 158.07 54.2895 159.19 55.1595 159.99C57.9495 162.59 60.0995 164.95 64.2895 165.04L66.3595 165.08C67.4695 165.1 68.4795 165.16 69.5795 164.98L72.9595 164.42C75.3495 164.02 77.3395 163.02 79.4395 161.87C82.7595 160.06 84.5295 158.63 87.4795 156.3C88.0995 155.81 88.5695 155.34 89.0695 154.72L90.4995 152.98C92.5295 150.5 94.0995 147.86 95.4895 145.01C96.3795 143.19 96.9795 141.5 97.5495 139.57L99.2295 133.88C99.6295 132.53 99.7095 131.18 100.15 129.85L101.17 126.74L102.76 121.76C103.52 119.36 104.16 117.18 104.98 114.83L106.81 109.59C107.77 106.86 108.62 104.22 109.45 101.46L111.35 95.1001L113.26 88.3101C113.63 86.9901 114.03 85.6901 114.53 84.4101C115.46 82.0401 116.01 79.5501 117.09 77.2501C117.8 75.7201 118.34 74.3301 118.88 72.7701C119.5 70.9601 120.18 69.3501 120.57 67.4301C120.84 66.1101 122.29 64.2401 121.57 63.4401C120.94 62.7301 119.96 63.0201 119.19 63.0901L116.13 63.3701L113.22 63.6801C112.75 62.9101 113.16 62.0501 113.44 61.3301L114.18 59.4201C114.72 58.0501 115.71 57.9401 116.92 58.0701C118.24 58.2101 119.66 57.9901 121.04 58.0701C121.9 58.1201 123.11 58.4801 123.63 57.5301C124.75 55.5101 125.42 53.1801 125.62 50.8701C125.73 49.6201 126.09 48.5601 126.51 47.4201C126.75 46.7601 126.94 46.0301 127.21 45.4101L128.5 42.4901C128.72 41.9901 129.31 41.3801 129.46 40.8101C129.79 39.5701 130.51 38.7601 131.23 37.7701L132.38 36.1901C133.04 35.2801 133.68 34.2701 134.49 33.4301C135.98 31.8701 137.56 30.3301 139.29 29.0001C141.92 26.9801 144.22 25.8501 146.66 23.8201C147.58 23.0601 148.7 22.7801 149.89 22.8901C152.62 22.0701 155.36 21.3801 158.15 20.8901C158.88 21.0601 159.66 21.1201 160.33 21.0101C161.69 20.7901 162.66 21.2601 163.84 21.5701C166.38 22.2401 168.16 24.4101 167.33 27.0601" fill="#90BEFB"/>
<path d="M186.66 77.1401C186.03 79.1801 185.87 80.3001 184.08 81.9001C183.29 82.6001 182.51 83.1601 181.63 83.7001C179.58 84.9501 176.48 84.8501 175.57 83.2501C175.04 82.2901 174.49 81.5501 173.87 80.5901L172.65 78.6701C171.56 76.9601 165.77 78.2601 162.72 83.0701C162.13 83.9901 161.75 84.8901 161.34 85.8901C160.65 87.5501 159.86 89.1901 159.69 91.0201C159.55 92.5701 158.64 93.6901 158.22 95.1301L156.63 100.58L154.97 104.97C154.71 105.64 154.2 106.82 155.07 107.32C155.81 107.76 157.01 107.24 157.85 107.2L166.03 106.81C166.43 106.78 167.25 106.48 167.61 106.69C167.79 106.8 167.73 107.49 167.58 107.67C165.54 109.97 166.85 112.15 165.17 112.52C164.3 112.7 163.4 112.57 162.51 112.52L160.36 112.41L155.96 112.47C155.02 112.48 153.84 112.16 153.03 112.62C152.11 113.15 152.23 114.3 151.94 115.13C151.2 117.29 150.37 119.36 150.01 121.63C149.78 123.11 149.31 124.39 148.78 125.77C148.11 127.52 147.57 129.28 147.08 131.11C146.9 131.81 146.9 132.68 146.62 133.35C146.02 134.79 145.74 136.18 145.37 137.68C144.92 139.49 143.73 141.45 142.99 143.93L141.78 147.92L141.03 151.11L139.95 154.46L138.67 157.7L136.41 165.74L134.02 172.88C133.41 174.7 133.77 176.27 132 178.34L131.33 180.3C130.4 180.83 130.32 181.7 130.17 182.75C130.03 183.69 129.49 184.68 129.18 185.61C127.1 191.83 126.23 191.48 124.13 196.37C123.78 197.2 123.37 197.76 122.88 198.46L121.33 200.7L120.38 202.07C119.29 203.66 118.05 205.01 116.65 206.33L113.91 208.9C113.32 209.44 109.57 212.48 109.11 212.74C106.55 214.2 105.75 214.17 103.74 215.5C101.49 216.98 98.82 217.43 96.31 218.24C95.46 218.52 94.68 218.96 93.73 219.06C92.62 219.17 91.47 219.65 90.48 220.16C88.52 219.59 86.69 219.74 84.77 220.51C84.22 220.73 83.39 220.76 82.95 221.08L80.42 221.18L75.11 219.43C73.65 218.95 72.35 218.04 70.96 217.37C69.88 216.85 69.26 216.09 68.46 215.18L66.7 213.16C65.69 212.01 65.3 210.25 65.03 208.68C64.94 208.17 65.11 207.17 65.13 206.6L65.21 204.03C65.24 203.21 65.31 202.27 65.47 201.48C66.71 195.63 66.16 198.93 67.96 194.42C68.86 192.13 70.41 190.29 71.95 188.4C72.96 187.16 75.41 184.55 76.51 183.69L79.28 181.53C80.04 180.94 81.12 180.63 81.96 180.16C85.87 177.96 91.17 177.29 95.6 177.48C96.8 177.52 97.85 177.9 98.92 178.31C101.09 179.15 102.69 180.5 103.87 182.47C105.61 185.38 105.44 188.15 105.12 191.55C105.01 192.75 104.69 193.69 104.15 194.76C103.11 196.84 101.96 198.73 100.58 200.58C100.09 201.24 99.71 201.94 98.92 202.35C97.78 202.92 96.53 204.07 95.2 204.08C93.88 204.1 92.67 203.99 91.37 204.08C90.52 204.14 89.81 203.91 89.29 203.25L87.72 201.24C87.1 200.44 87.06 199.86 87.78 199.05C88.88 197.8 87.81 196.51 90.65 194.09L92.5 192.52C93.61 191.56 94.73 190.66 95.54 189.44C96.6 187.85 96.5 185.86 94.75 184.78C93.79 184.19 92.65 183.72 91.54 183.25C90.75 182.92 89.87 183.11 89.08 183.18C87.54 183.3 86.26 183.58 84.88 184.23C82.41 185.38 80.08 186.67 77.97 188.42C76.64 189.53 75.91 190.97 75.04 192.44C73.37 195.29 74.19 194.29 72.76 197.21C71.2 200.4 71.92 202.06 71.96 204.4C71.98 205.32 72.23 205.99 72.59 206.78C73.36 208.51 74.32 209.85 75.76 211.08C76.65 211.85 79.25 214.08 80.26 214.33C84.66 215.42 89.07 215.2 93.45 214.09C95.15 213.66 96.59 212.9 98.13 212.12C99.63 211.36 101.09 210.62 102.43 209.59L106.51 206.47C107.25 205.91 107.88 205.36 108.48 204.62C109.61 203.2 110.8 201.87 111.78 200.36L113.1 198.32L115.04 194.63C115.84 193.09 116.31 191.6 116.82 189.95L118.12 185.67C118.49 184.43 118.72 183.26 118.99 181.99C119.39 180.06 120.06 178.19 120.67 176.3L122.26 171.31C123.02 168.93 123.75 166.81 124.52 164.44L125.79 160.52C126.82 157.36 127.95 154.38 128.89 151.2L130.73 144.98C131.27 143.16 131.84 141.4 132.3 139.54C132.82 137.48 133.46 135.57 134.16 133.56L135.22 130.49C135.83 128.74 136.34 127.09 137.3 125.47C137.82 124.61 137.83 123.37 138.24 122.5C139.02 120.79 139.52 119.28 139.92 117.49C140.17 116.39 141.38 114.53 141.1 113.55C140.78 112.43 137.48 113.09 136.4 113.2L132.81 113.55C131.85 113.54 132.51 112.06 132.76 111.52C133.24 110.5 133.34 108.96 134.5 108.21C134.99 107.89 136.04 108.1 136.67 108.04C138.19 107.9 139.63 107.79 141.13 108.14C142.3 108.41 143.25 107.63 143.61 106.51C144.11 104.97 144.73 103.33 144.91 101.72C145.07 100.19 145.32 98.8901 145.83 97.4501C146.16 96.5301 146.43 95.6001 146.85 94.7301L148.69 90.9601C149.55 89.2201 153.06 84.0601 154.19 83.0001L156.67 80.6601C157.72 79.6701 158.7 78.8801 159.89 78.1001C160.99 77.3801 161.98 76.5301 163.15 75.8701C164.07 75.3601 164.92 74.6701 165.64 74.0001C166.93 72.8101 168.32 72.9801 169.82 72.6201L173.78 71.6601C174.34 71.5201 175.19 71.1001 175.7 71.0701L180.36 70.8101C181.28 70.7601 182.26 71.2601 183.12 71.4801C184.46 71.8301 185.41 72.3501 186.23 73.4201C187.16 74.6301 187.15 75.7101 186.71 77.1101" fill="#90BEFB"/>
<path d="M224.58 120.06C224.23 122.92 224.15 124.51 222.7 127.05C222.17 127.97 221.71 128.85 221.02 129.62C218.9 131.97 216.55 133.98 213.7 135.46L210.25 135.11C208.64 134.95 206.98 133.44 207.22 131.67C207.41 130.3 208.23 129.07 208.77 127.84C209.17 126.96 209.65 126.4 210.58 126.04L213.47 124.92C213.04 121.99 214.36 121.19 214.26 119.55C214.2 118.59 213.46 117.5 212.77 116.9C210.82 115.22 208.56 114.87 206.11 114.77L203.36 114.66C199.42 114.51 195.4 115.41 191.93 117.32C189.67 118.57 189.54 118.38 187.47 120.54C186.09 121.98 185.01 123.53 184.41 125.46C183.85 127.26 183.32 129.12 183.42 130.95C183.62 134.89 186.54 136.43 190.05 137.08C191.4 137.33 192.81 137.66 194.14 137.53L197.41 137.23C197.89 137.19 198.39 137.1 198.81 137.37C199.63 137.93 198.11 139.04 197.78 141.24C197.46 143.39 194.77 142.45 190.83 142.95C186.36 143.51 182.46 145.3 178.94 147.97L176.37 149.93C173.62 152.03 171.37 154.88 169.74 157.94L168.12 160.96C167.74 161.69 167.5 162.55 167.21 163.37C165.88 167.22 165.32 170.54 165.99 174.65C166.23 176.14 167 177.4 167.78 178.67C168.88 180.46 170.48 182.2 172.45 183.1C175.32 184.4 177.64 185 180.84 185.37C182.76 185.59 186.41 185.03 186.27 185.02C188.46 185.08 190.51 184.51 192.44 183.62C194.86 182.52 197.29 181.63 199.57 180.24C202.51 178.45 205.18 176.46 207.28 173.74C208.66 171.95 210.99 168.43 211.25 166.27C211.39 165.16 211.82 164.03 211.78 162.92C211.59 158.32 209.77 155.61 205.35 154.31C203.84 153.87 202.46 153.86 200.89 153.85L198.15 153.83C196.53 153.81 195.01 154.95 193.56 155.55C192.41 156.04 191.63 156.69 190.92 157.64C190.05 158.8 188.78 159.88 188.75 161.52C188.71 163.63 190.74 164.19 189.97 167.5C189.71 168.6 189.65 170.07 188.65 170.74L186.84 171.95C184.8 173.31 183.54 173.92 181.17 173.72C179.63 173.59 178.35 173.28 177.41 171.94C175.71 169.49 176.39 165.7 177.7 163.1C178.65 161.22 179.69 159.48 181.08 157.91L182.27 156.58C183.76 154.9 185.22 153.45 187.24 152.4C188.92 151.52 190.57 150.6 192.44 150.14C194.29 149.69 196.05 148.93 197.94 148.76L201.4 148.46C203.53 148.27 205.63 148.15 207.84 148.15C208.55 148.15 209.52 148.45 210.23 148.56C214.47 149.19 217.95 153.52 218.8 157.35C219.23 159.29 219.64 161.14 219.21 163.09C218.88 164.55 218.66 166.11 217.97 167.42L216.68 169.91L215.91 171.39C215.62 171.94 215.38 172.54 215.04 173.02L213.55 175.09C212.27 176.87 211.2 178.09 209.38 179.42L207.17 181.02L203.46 183.66L201.36 185.19C200.79 185.6 200.09 186.06 199.4 186.17C198.53 186.32 197.87 187.08 197.18 187.31L193.47 188.53C191.81 189.07 185.14 190.05 183.09 190.27L179.93 190.61C178.59 190.75 177.42 190.65 176.11 190.34C174.52 189.97 171.78 190.27 169.02 189.39C164.09 187.83 164.82 189.77 160.88 186.59L157.62 183.96L155.26 182.1C154.51 181.51 154.35 180.58 154.05 179.65C153.59 178.16 152.92 176.76 152.72 175.2L152.28 171.56C152.22 171.09 152.23 170.02 152.37 169.56C153.64 165.22 153.69 164.8 155.48 160.61C155.94 159.54 156.68 158.5 157.23 157.43C157.84 156.24 158.56 155.16 159.35 154.1L160.62 152.4C161.37 151.39 162.13 150.15 163.23 149.56L166.13 147.99C166.96 147.54 171.45 144.3 174.37 143.16C177.96 141.76 178.23 142.82 180 141.66C180.27 141.49 180.28 140.7 180.13 140.42C179.09 138.58 174.47 140.22 171.79 134.41C171.41 133.58 171.36 132.51 171.06 131.64C170.28 129.35 171.9 129 171.49 126.33L174.25 121.59C174.82 120.61 175.61 119.9 176.41 119.1L177.88 117.65C178.8 116.75 179.91 116.16 180.8 115.26C181.53 114.55 182.35 114.14 183.31 113.67C184.25 113.19 185.16 112.25 186.22 111.96L191.89 110.43C193.33 110.04 194.63 109.61 196.15 109.46L198.06 109.27L199.95 109.04L207.1 108.64C211.81 108.38 216.95 110.04 220.91 112.64C223.47 114.33 224.94 117 224.56 120.12" fill="#90BEFB"/>
<path d="M339.15 106.35C339.54 105.26 340.04 103.98 339.58 102.86C339.02 101.54 337.75 100.49 336.47 99.92C334.2 98.91 331.83 98.95 329.4 98.88C325.71 98.77 324.11 99.01 320.57 100.1C319.43 100.44 318.53 100.98 317.5 101.52C316.21 102.2 314.98 102.66 313.95 103.77C313.23 104.55 312.37 105.31 311.74 106.17C309.95 108.65 309.05 111.68 308.91 114.7C308.79 117.09 310.02 119.08 312.1 120.09C312.71 120.38 313.48 120.77 314.13 120.92C317.97 121.85 318.77 121.92 322.81 121.48C323.25 121.43 323.8 121.34 324.16 121.45C324.5 121.56 324.49 122.52 324.29 122.84C322.55 125.73 324.15 126.45 321.43 126.75C320.55 126.85 319.6 127 318.7 127C313.1 127 308.2 129.25 303.88 132.61L301.13 134.74C299.41 136.08 296.78 139.39 295.74 141.25C294.37 143.71 293.11 146.1 292.39 148.74L291.76 151.06C291.25 152.91 291.28 154.82 291.34 156.76C291.4 158.61 291.75 160.34 292.71 161.89C294.77 165.23 296.26 166.79 299.98 168.12C303.07 169.23 307.61 170.15 310.86 169.27C312.9 169.27 314.98 169.11 316.85 168.3L319.1 167.33C322.82 165.73 326.42 163.98 329.48 161.34C332.24 158.95 332.78 158.08 334.78 155.04C335.4 154.1 336.13 152.76 336.44 151.74C337.36 148.61 337.74 146.68 336.71 143.53C335.77 140.64 333.13 139 330.34 138.34C327.35 137.64 326.87 138.34 323.52 138.06C322.44 138.01 318.95 139.77 317.99 140.4C316.7 141.23 315.7 142.68 314.87 143.94C312.89 146.94 316.75 147.99 315.37 152.36C315.14 153.09 315 154.36 314.37 154.8L311.87 156.54C311.3 156.93 310.53 157.2 309.95 157.49C308.95 158 308.1 158 307.03 157.94C305.25 157.84 303.64 157.43 302.69 155.65C301.47 153.38 301.92 150.56 302.89 148.11C304.1 145.05 306.11 142.71 308.28 140.3C309.07 139.43 309.68 138.53 310.74 137.87C312.82 136.57 314.97 135.21 317.36 134.54C319.4 133.96 321.34 133.39 323.39 133C323.42 133 329.01 132.4 329.05 132.4L332.27 132.29C334.22 132.22 337.69 132.95 339.37 134.11C341.84 135.83 343.8 138.83 344.4 141.87C344.67 143.27 345.25 144.76 344.96 146.17L344.13 150.26C343.95 151.13 343.43 151.89 343 152.65C340.84 156.58 342.14 155.19 339.23 159.13C338.5 160.13 337.83 161.19 336.86 162.03L335.26 163.41C333.43 164.99 332.99 164.91 331.02 166.38L329.32 167.65L326.85 169.45C324.83 170.91 325.55 169.6 323.05 171.41C322.32 171.93 321.04 171.88 320.27 172.27C319.32 172.75 318.62 172.93 317.6 173.1L309.63 174.39C308.25 174.62 304.84 174.92 303.55 174.78L297.7 174.12C293.93 173.69 293.64 173 289.92 172.66C288.53 172.53 287.57 171.63 286.55 170.81L283.99 168.75L282.47 167.53C281.38 166.67 280.18 165.9 279.82 164.47C279.52 163.23 279.09 162.13 278.66 160.9C278.33 159.98 278.28 158.72 278.11 157.7C277.79 155.89 277.67 154.29 278.28 152.55C278.74 151.24 279.09 149.94 279.48 148.58C279.65 148.01 279.97 147.39 280.19 146.85C281.54 143.36 283.4 140.42 285.58 137.4C286.12 136.63 286.6 135.95 287.27 135.31C287.84 134.77 288.47 133.93 289.09 133.57C290.45 132.77 291.78 132.2 292.99 131.24C294.18 130.3 295.57 129.7 296.89 128.94C302.13 125.92 300.92 127.22 305.39 126.06C305.71 125.98 305.87 125.04 305.75 124.73C304.95 122.65 298.46 124.56 296.73 116.28C296.45 114.89 296.51 113.92 296.89 112.57C297.19 111.51 296.98 110.34 297.68 109.39C298.9 107.73 299.52 105.64 301.03 104.16C302.06 103.15 303.14 102.19 304.22 101.27L306.43 99.4C307.25 98.71 308.07 98.23 309.08 97.76C309.93 97.35 310.75 96.43 311.69 96.18L317.51 94.6C318.87 94.24 319.98 93.76 321.46 93.74C322.05 93.74 322.91 93.34 323.53 93.31L332.14 92.87C337.71 92.57 342.78 94.15 347.33 97.4C348.1 97.95 348.54 98.55 349.01 99.36C349.62 100.41 350.08 101.31 350.12 102.57C350.24 107.07 349.14 111.38 345.88 114.57C344.37 116.04 342.95 117.4 341.17 118.54C340.48 118.99 339.6 119.7 338.8 119.63L335.66 119.33C334.45 119.21 332.83 117.89 332.76 116.54C332.68 114.91 333.69 113.46 334.33 112.04C334.79 111.02 335.57 110.42 336.6 110.05L338.55 109.37C339.59 109 338.63 107.86 339.17 106.34" fill="#90BEFB"/>
<path d="M444.07 165.45C444.56 166.54 442.7 168.94 441.46 169.35L441.54 170.87C441.59 171.83 440.5 172.29 439.88 172.86L436.06 176.4L431.52 179.96C431.01 180.36 430.13 180.54 429.69 181.09C428.75 182.26 427.5 182.78 426.22 183.4C425.06 183.96 423.98 184.52 422.77 184.87L420.76 185.48C417.18 186.54 416.19 185.15 414.45 187.09C412.47 184.81 409.55 184.28 406.72 184.42C405.03 184.5 403.26 184.1 401.58 184.63C401.14 184.77 400.67 185.5 400.12 185.4C399.69 185.33 399.19 184.81 398.74 184.58C397.56 183.98 396.14 183.86 395.07 183.03C393.75 182.02 392.56 180.88 391.61 179.55C391.08 178.81 390.47 178.09 390.04 177.28C389.54 176.33 388.85 175.04 388.7 173.97C388.37 171.55 388.32 165.44 388.68 163.26L389.22 160.09C389.78 156.79 391.62 152.97 391.93 150.51C392.12 149.04 392.39 147.8 392.98 146.44C393.54 145.17 393.7 143.8 394.07 142.5L395.52 137.17L397.18 131.77C397.49 130.74 397.67 129.75 398.07 128.72L399.1 126.1L400.12 122.59C400.56 121.09 400.95 119.63 401.49 118.15L402.57 115.24L403.5 112.42L405.79 106.23C406.05 105.55 406.4 104.78 406.47 104.05C407.08 97.75 409.42 95.77 410.2 90.02C410.28 89.42 409.95 88.53 409.93 87.94C409.89 86.48 409.63 85.23 408.24 84.31C407.1 83.55 405.34 83.48 403.87 83.43L397.18 83.25C395.97 84.54 394.53 85.23 392.77 85.5C392.03 85.61 391.38 86.07 390.73 86.4C389.61 86.95 388.58 87.44 387.65 88.28C385.38 90.32 384.21 89.45 383.99 91.59C383.75 93.89 381.85 95.25 381.08 99.18C380.74 100.93 380.29 102.5 379.82 104.17L378.84 107.58C377.9 110.83 376.78 113.88 376.13 117.22C375.88 118.48 374.3 122.74 373.76 124.16L372.43 127.61C371.87 129.05 371.3 130.25 371.48 131.86C371.59 132.78 371.7 133.65 372.67 134.19C373.27 134.52 374.26 134.81 374.98 134.84L377.41 134.93C377.82 134.95 378.47 135.36 378.62 135.72C378.84 136.27 378.5 136.87 378 137.21C376.68 138.12 377.38 139.13 376.31 139.9C375.92 140.18 375.05 140.1 374.54 140.01C369.65 139.21 371.12 139.79 367.59 139.66C366.36 139.61 365.06 139.64 363.85 139.8L361.92 140.05L359.2 140.41C357.57 140.62 356.07 141.05 354.45 140.88C353.03 140.73 349.72 140.68 348.33 140.86C348.08 140.9 347.49 140.67 347.36 140.47C347 139.84 347.44 137.09 348.97 137L352.12 136.82C352.83 136.78 353.41 136.37 353.96 135.9C355.07 134.93 356.52 134 357.16 132.61L358.13 130.45L359.26 127.81C360.7 124.42 360.73 122.24 361.94 119.34C362.29 118.48 362.48 117.51 362.78 116.62L363.73 113.63C364.59 110.97 365.28 108.28 366.36 105.71C366.93 104.37 367.71 103.25 368.04 101.78C368.3 100.65 368.87 99.62 369.33 98.54C369.81 97.42 369.99 96.18 370.36 94.98C370.65 94.02 371.26 92.83 370.98 91.87C370.46 90.03 368.78 90.11 367.31 90.33C365.87 90.55 364.46 90.57 362.93 90.67L363.05 89.1C363.1 88.53 363.13 87.53 363.57 87.18C368.88 85.78 365.14 86.34 370.31 83.56L372.51 82.38C373.94 81.61 375.29 81.19 376.8 80.59C378.01 80.11 379.23 79.33 380.47 78.73C381.35 78.3 382.16 77.48 383.16 77.24C384.79 76.85 386.3 76.68 388.02 76.94C387.9 78.2 387.29 79.03 386.55 79.96C386.05 80.57 385.67 81.87 386.3 82.43C387.2 83.23 388.22 82.36 388.82 81.59L391.05 80.46C396.1 77.9 393.26 79.56 398 77.7C402.34 76 400.84 77.54 403.85 76.43C406.19 75.57 407.75 75.88 409.42 75.83C412.92 75.71 415.98 76.34 418.98 78.14C419.75 78.59 420.55 78.83 421.1 79.57C423.21 82.36 421.12 81.4 423.8 82.86C424.44 83.2 424.43 84.45 424.27 85.07C421.53 85 422.95 88.07 422.54 89.84L421.47 91.31C422.03 94 418.76 96.68 421.52 97.97C421.41 98.78 421.06 99.5 420.7 100.33C419.84 102.25 418.99 104.22 418.35 106.2C417.28 109.55 417.2 108.38 416.07 112.48L415.1 116.04C414.73 117.39 414.17 118.58 413.76 119.88L413.31 121.31C412.65 122.18 412.7 123.26 412.48 124.24C412.05 126.12 411.59 127.96 411 129.77C410.73 130.58 410.56 131.33 410.29 132.17L408.9 136.53C408.42 138.01 407.82 139.44 407.24 140.89L405.57 145.09C404.7 147.28 403.98 149.95 403.22 152.21L401.88 156.14C401.24 158 400.91 159.71 400.23 161.56C399.81 162.71 399.58 164.26 399.52 165.5L399.41 167.89C399.36 169.01 399.25 170.5 399.6 171.59C400.18 173.43 401.31 175.39 402.75 176.66C403.71 177.51 404.85 178.24 405.95 178.94C406.83 179.5 410.16 180.52 411.27 180.61C412.57 180.71 413.89 180.53 415.14 180.42L418.82 180.13C421.43 179.92 428.47 175.91 430.69 173.72L432.32 172.12C432.81 171.63 433.39 171.11 433.89 170.54C437.11 166.82 440.01 158.63 436.04 155.04C435.71 154.75 434.73 154.49 434.76 154.11C434.82 153.48 434.89 152.87 434.59 152.49C433.64 151.26 431.92 153.49 431.07 153.67L428.29 154.27L425.43 157.67L423.02 161.52C422.13 162.94 420.95 163.41 419.54 164.09C416.34 165.65 417.37 164.74 412.89 163.32C411.88 163 411.87 161.74 411.62 160.97C411.14 159.47 411.14 158.3 411.82 156.88C412.28 155.95 412.46 154.64 413.06 153.78C415.25 150.63 419.18 146.85 422.4 145.99L425.27 145.21C427.31 144.66 429.06 144.13 431.11 144.19C434.32 144.27 437.44 144.53 440.19 146.55C444.45 149.69 442.87 150.16 443.03 151.4C443.14 152.24 444.06 153.06 444.12 153.86C444.23 155.4 444.31 156.83 444.56 158.27C445.15 161.62 441.6 159.9 444.08 165.47" fill="#90BEFB"/>
<path d="M555.48 68.8401L555.59 71.5702C554.88 76.0402 555.06 76.7102 552.56 80.5802C552.09 81.3102 551.31 82.0302 550.67 82.6802C549.07 84.3102 547.25 85.5702 545.26 86.8302C544.55 87.2802 543.32 86.8702 542.52 86.9102C541.13 86.9702 540.14 86.7402 539.18 85.8002C538.43 85.0702 537.79 84.0902 538.23 82.9002C538.78 81.4202 539.54 79.7902 540.4 78.4702C541.01 77.5202 543.58 77.2802 544.37 76.4902L544.4 74.4302C544.74 73.3102 545.34 72.1402 545.18 71.0102C544.95 69.3902 543.64 68.4302 542.36 67.6602C540.14 66.3302 537.69 66.4702 535.16 66.3802C531.41 66.2302 527.58 66.6701 524.18 68.3401C523.57 68.6501 522.99 69.0202 522.34 69.2702C520.33 70.0802 517.72 72.6702 516.66 74.3902C514.57 77.7602 512.42 85.2402 517.53 87.5102C518.19 87.8102 519.08 88.3602 519.78 88.5002C523.54 89.2602 523.76 89.4402 527.54 89.0702C528.24 89.0002 529.27 88.5702 529.75 89.1902C530.38 89.9902 529.41 90.6802 529.13 91.4002C528.63 92.7002 528.86 94.1102 527.77 94.1802L523.03 94.4702C518.73 94.7302 514.69 96.2102 511.19 98.7402L508.96 100.36L506.67 102.11C504.62 103.69 501.82 107.38 500.53 109.86C499.6 111.66 498.65 113.32 498.1 115.29L497.23 118.35C496.54 120.81 496.53 123.44 496.9 125.99C497.38 129.27 500.47 133.4 503.6 134.86C505.86 135.91 508.24 136.61 510.81 136.91C512.73 137.12 514.81 136.91 516.78 136.74L518.75 136.57C521.58 136.33 522.36 135.68 524.83 134.67C529.01 132.96 532.84 130.81 536.21 127.73C537.86 126.21 539 124.37 540.23 122.5C542.8 118.59 544.07 111.97 540.5 108.34C538.1 105.89 534.23 105.14 530.96 105.63C529.56 105.38 528.21 105.52 526.9 106.12L524.56 107.2C523.56 107.66 522.78 108.15 522.09 109.02C521.13 110.25 519.94 111.43 519.71 113.1C519.53 114.44 521.29 116.35 521.14 117.6C520.48 122.95 519.99 121.89 518.27 123.3C516.28 124.93 514.07 125.72 511.48 125.23C510.93 125.13 510.15 125.18 509.65 124.77C508.87 124.13 507.86 123.19 507.67 122.15C507.02 118.48 507.74 116.42 509.43 113.31C510.61 111.14 512.28 109.37 513.87 107.49C514.41 106.86 514.89 106.28 515.54 105.79C518.78 103.34 522.36 101.98 526.24 100.99C528.29 100.47 530.13 100.16 532.27 100.01L536.63 99.7302C538.94 99.5802 541.62 100.08 543.78 101.01C544.87 101.48 545.62 102.2 546.42 103.02C549.89 106.59 551.08 111.84 549.76 116.66C549.49 117.66 549.22 118.63 548.72 119.58L547.62 121.65C546.01 124.68 547.28 122.97 544.93 126.22L543.68 127.94C543 128.87 540.55 130.99 539.63 131.65L535.85 134.28L533.17 136.28C532.61 136.69 532 137.05 531.34 137.47C530.91 137.76 529.83 137.96 529.33 138.17C528.5 139.07 527.6 139.24 526.5 139.5C525.35 139.78 524.26 140.36 523.08 140.55L514.92 141.88L511.95 142.2C507.85 142.65 508.11 141.82 503.58 141.63C499.89 141.48 498.38 140.08 494.85 140.13C493.59 139.54 492.5 138.74 491.43 137.88L486.67 134.04C485.65 133.23 485.37 132.35 484.99 131.16C484.36 129.22 483.61 127.42 483.5 125.36L483.28 121.25L485.1 115.55C485.5 114.3 486.1 113.13 486.61 111.92C487.68 109.42 490.59 105.66 490.88 105.16L491.47 104.15C492.06 103.15 493.32 102.09 494.32 101.14C495.04 100.44 496.39 100.21 497.18 99.5402C498.75 98.2402 500.44 97.4402 502.2 96.4302C504.67 95.0102 507.27 93.7102 510.2 93.7602C510.54 93.7602 511.07 93.3302 511.19 93.0602C511.29 92.8402 511.3 92.2102 511.13 92.0202C510.66 91.4802 509.91 91.1102 509.2 90.9902C505.92 90.4402 503.15 88.0802 502.42 84.7702L501.86 82.2602C501.67 81.4202 502.54 80.2302 502.49 79.3702C502.41 78.1902 502.68 77.4802 503.28 76.5702C504.18 75.1802 504.85 73.6002 505.9 72.3102C506.76 71.2502 508.92 69.2602 510.01 68.3802L513.06 65.9102C513.49 65.5602 514.45 65.3602 514.87 65.0002C516.26 63.8102 517.78 63.2802 519.53 62.9602C522.41 62.4402 525.04 61.1402 528.41 60.9002L535 60.4402C536.48 60.3402 538.02 60.1202 539.5 60.2602C543.37 60.6202 544.25 60.6802 548.07 62.1702C550.04 62.9402 552.14 64.3502 553.74 65.6402L555.51 68.8202L555.48 68.8401Z" fill="#90BEFB"/>
<path d="M500.53 48.1699C499.29 51.4999 500.61 49.0899 498.39 52.0799L496.34 54.8399C495.02 56.6199 490.57 56.5799 488.5 55.7499C487.7 55.4399 487.46 54.2499 487.32 53.5199C486.61 49.6999 488.02 50.4599 487.39 45.8999C487.18 44.2999 486.61 43.3899 485.24 42.5599C484.52 42.1199 483.78 41.3499 482.93 41.2199C480.42 40.8299 478.28 41.2199 475.95 42.1399L472.85 43.3499C472 43.6799 471.07 44.6199 470.22 44.8399C469.27 44.9799 468.5 44.8399 468.19 45.9199C465.45 46.0999 463.68 48.1799 462.3 50.3799C462.17 50.5899 461.83 51.0099 461.93 51.1999L462.43 52.1999C462.51 52.3599 462.02 52.6999 461.9 52.8899C460.49 55.1999 460.14 54.1599 458.37 56.0499L456.81 58.2899L455.59 60.2299C455.16 60.9099 455.03 61.6199 454.16 62.0199L453.86 63.8799C453.01 64.7399 452.71 65.6999 452.24 66.7199L450.79 69.8599C450.27 70.9799 449.51 72.4199 450.72 73.5699C450.57 74.0099 450.5 74.5399 450.42 75.2199C450.32 76.1899 449.56 77.1199 449.16 78.0099C448.76 78.8899 448.37 79.6399 447.66 80.3299C446.23 81.6999 447.69 82.63 446.2 86.4799C445.34 88.6799 446.98 90.2599 444.58 92.0399C443.39 92.9299 444.29 94.1499 444.57 95.1299C445.21 97.4099 444.03 99.6399 443.5 101.8C442.73 104.97 444.46 108.19 445.75 110.82L447.24 113.87C447.45 114.3 448.3 114.78 448.68 115.1C450.8 116.9 453.93 118.08 456.8 117.77C458.5 117.6 460.36 117.86 462.04 117.48C466.3 116.5 469.69 114.05 472.99 111.45C474.3 110.43 475.35 109.33 476.24 107.94L477.77 105.5C479.05 103.46 480.19 99.9499 480.28 97.4599C480.34 95.6799 478.96 94.1899 477.17 94.2299C475.24 94.2599 473.68 95.3799 472 96.0599C471.01 96.4699 470.21 96.6199 469.36 97.3599C468.97 97.6999 468.02 97.43 467.56 97.16C465.96 96.2 464.56 97.3999 463.51 95.9499C463.03 95.2899 462.89 94.5699 462.96 93.7299L463.1 91.9799C463.28 89.8499 464.49 86.3999 466.63 85.4599C469.68 84.1099 467.17 83.1999 476.08 82.2399C478.32 81.9999 480.68 82.1599 482.49 83.3799C483.32 83.9499 484.46 84.5299 484.72 85.3899L485.48 88.0699C485.97 89.7999 486.86 91.1199 486.94 92.9799L487.01 94.4699C487.06 95.5899 486.63 96.4799 486.32 97.5399C485.93 98.8999 485.73 100.38 485.46 101.85C483.58 103.84 485.13 103.2 482.76 106.84C480.64 110.09 483.07 107.17 479.88 111.04C479.25 111.81 478.68 112.54 478.03 113.23C477.12 114.22 476.14 115.17 475.35 116.2C473.68 118.37 474.02 117.18 471.95 118.4C471.05 118.93 469.87 119.24 469.07 119.81C468.12 120.48 466.2 122.22 464.89 122.4L462.94 122.69L459.79 123.22L457.67 123.52C456.5 123.69 455.46 123.66 454.28 123.66H450.53L447.96 123.03C446.75 122.73 445.53 123.08 444.45 122.61C442.41 121.71 440.63 120.71 438.82 119.48C437.09 118.32 436.57 117.91 435.25 115.84L433.25 112.71C432.14 110.97 432.71 111.17 431.78 108.17C431.59 107.54 431.51 106.81 431.37 106.16C430.91 104.07 430.82 102.14 430.94 100.03L431.06 97.6999C431.11 96.7799 431.11 95.9099 431.31 95.0399L431.88 92.4799C432.43 89.9799 432.93 87.5499 433.2 84.9799C433.37 83.3299 434.23 81.9299 434.74 80.3799L436.66 74.5899L438.23 70.9699L439.45 68.2199L440.65 65.6699C440.87 65.1999 441.66 64.4199 441.7 63.8999C441.77 62.7099 442.37 62.0799 443.1 61.2599C445.32 58.7499 446.26 55.9999 448.75 53.5199L450.34 51.9299C451.07 51.2099 451.89 50.4899 452.56 49.7399C453.75 48.4099 454.82 47.0999 456.13 45.8899C458.47 43.7599 460.91 42.0099 463.71 40.5299C464.66 40.0299 465.53 39.0999 466.51 38.6599L470.24 36.9999C473.08 35.7399 475.94 34.1099 479.13 35.3799C479.88 34.7299 480.81 34.6099 481.66 34.9399C483.89 35.7699 485.12 34.5199 488.42 35.5199C490.23 36.5699 491.87 37.0199 493.96 37.3199C494.98 37.4699 495.79 38.7799 496.64 39.3399C498.17 40.3499 499.45 42.4799 500.22 44.0999C500.87 45.4699 501.13 46.6499 500.56 48.1999" fill="#90BEFB"/>
<path d="M336.07 72.4198L335.09 75.5798C334.68 76.8798 333.49 77.7698 332.57 78.6898C331.85 79.4098 331.16 79.9598 330.29 80.4698C328.57 81.4698 328.42 80.5898 325.75 80.8498C324.26 80.3698 323.37 79.1498 322.42 78.0698C321.66 77.2198 321.24 76.4798 320.74 75.3898C320.51 74.8798 319.95 74.2298 319.56 73.6898C319.15 73.1098 318.29 72.8498 317.68 72.5998C317.21 72.3998 316.71 71.3898 316.16 71.2898C315.48 71.1598 314.55 70.9598 313.99 71.0398L311.63 71.3798C310.33 71.5698 309.01 72.1998 307.67 72.2998C304.28 72.5598 306.01 72.7298 301.91 73.9698C300.95 74.2598 299.97 75.2298 298.9 75.1898C298.63 74.9998 298.16 74.5898 297.89 74.5298C297.49 74.4498 297.05 74.9298 296.92 75.4198L295.72 75.8998C295.05 77.1098 291.72 78.9598 291.11 79.5198C290.05 80.5198 289.5 81.4298 287.93 81.7998C286.63 82.1098 285.71 83.6098 285.03 84.7098C281.79 86.2198 283.87 85.5098 281.01 87.7198C280.61 88.0398 280.02 88.4998 279.67 88.8798C277.22 91.5798 274.71 93.9698 272 96.4198C271.71 96.6798 271.37 97.1298 271.07 97.3698L269.4 98.7198L267.42 101.08C265.21 103.72 268.04 101.93 263.78 106.09C260.81 109 259.92 111.21 257.73 114.45L256.3 118.81L254.47 124.2C253.63 126.7 253.04 129.13 252.19 131.66L250.99 135.27L249.58 138.88C249.19 139.88 248.74 140.78 248.72 141.92C248.66 146.34 245.76 148.43 249.11 150.09C249.77 150.41 250.45 150.46 251.18 150.51L253.47 150.68C253.87 150.71 254.52 151.15 254.7 151.48C255.28 152.58 254.24 153.5 253.83 154.5C253.44 155.47 252.82 155.71 251.78 155.77C251.24 155.8 250.29 156.13 249.76 155.96C248.38 155.52 247.04 154.93 245.48 154.99L236.16 155.29C234.63 155.34 234.24 156.12 231.16 156.18L228.4 156.24L225.49 156.29C224.91 156.29 224.12 156.85 223.41 156.53L223.24 154.11C223.09 152 225.25 153.01 228.26 152.04C229.34 151.69 230.68 151.39 231.48 150.56C233.6 148.37 234.68 145.59 235.59 142.77C236.33 140.49 236.76 139.76 237.5 137.42L238.74 133.55L239.38 131.08L240.78 126.54C241.25 125.03 241.49 123.72 242.17 122.29C242.82 120.94 243.01 119.27 244.26 116.69C244.76 115.64 245.05 114.43 245.48 113.33C246.02 111.94 247.93 107.44 246.84 106.43C246.29 105.92 244.93 105.63 244.19 105.65L239.34 105.79C239.24 104.02 240.13 102.76 241.61 102.05L247.98 98.9798L250.29 97.6798L253.41 95.8998L254.91 95.0398L258.27 93.0998C259.31 92.4998 260.08 92.1198 261.36 92.2398C262.15 92.3098 262.98 92.1598 263.58 92.7998C262.32 94.4898 261.78 96.1798 261.13 98.0598C260.73 99.2498 259.43 100.53 260.2 101.98C260.51 102.55 261.75 102.06 262.12 101.52L263.82 99.0598L264.88 97.5698C266.7 94.9898 268.67 92.6298 270.77 90.2598C271.96 88.9098 273.19 87.9298 274.67 86.8898C274.88 86.7398 277.42 84.4098 277.7 84.0898C278.58 83.0398 279.34 82.0798 280.43 81.2898L282.9 79.4898C283.41 79.1298 283.96 78.9398 284.47 78.4798L285.74 77.3298L289.09 75.4698C289.63 75.1698 289.88 74.4198 290.69 74.3098C291.14 74.2398 291.61 73.4998 291.97 73.3498C292.96 72.8998 293.89 72.3098 294.79 71.6498C295.41 71.1998 296.25 71.0798 296.79 70.3898L298.56 69.6698L300.8 67.7898C301.36 67.3098 302.1 67.4398 302.77 67.1998L308.8 65.0498C309.81 64.6798 310.51 63.9998 311.82 64.1298C312.44 64.1898 313.43 63.5598 314.08 63.4998L318.04 63.1998C319.12 63.1198 320.16 62.9098 321.27 63.0698L328.14 63.9998C328.46 64.0498 329.09 64.4898 329.41 64.5798C330.28 64.8298 331.02 65.2798 331.79 65.7498L333.6 66.8798C334.48 67.4198 334.77 68.0698 335.09 69.0698C335.44 70.1598 336.47 71.1798 336.08 72.4498" fill="#90BEFB"/>
<path d="M98.9604 57.4601C98.6404 58.4001 98.3804 59.1401 98.3104 60.1601C98.2304 61.2901 97.4604 62.3501 97.0904 63.4001L94.9804 69.4001C94.3104 71.2901 92.9004 73.0301 92.9204 75.1101C92.9404 77.4801 92.1504 79.5101 91.4604 81.7101C90.9304 83.3601 90.5804 84.8901 89.6704 86.4001C89.1804 87.1901 89.3404 88.4501 89.1204 89.3501C88.0904 93.5401 87.4704 93.3101 86.5204 96.9201C85.6704 100.16 83.9504 102.32 82.9404 105.32L81.1504 110.62C80.8704 111.46 80.8304 113.35 81.3704 114.06C83.3504 116.67 87.1104 115.84 88.0304 116.29C88.2304 116.39 88.2104 117.01 88.1404 117.26L87.5904 119.46C86.6504 119.73 85.6804 119.68 84.6704 119.62L83.0204 119.52C81.8404 119.44 80.7804 119.59 79.5904 119.67L74.7804 120C70.6104 120.29 66.1604 121.5 61.5804 120.57C60.7104 120.38 59.5104 121.01 58.5404 121.21C58.2404 121.27 57.5904 120.68 57.6504 120.39L58.0404 118.52C58.2804 117.39 59.1204 117.21 60.1004 117.09L62.4504 116.79C64.0504 116.59 65.9504 115.89 67.0704 114.66C67.9104 113.74 68.5604 112.61 69.2104 111.55C70.0504 110.2 70.3304 108.59 70.7704 107.07L72.0804 102.64L72.9204 100.25L74.0404 95.8201C74.3604 94.5601 74.5404 93.4501 75.1004 92.2401C76.3404 89.5801 76.9004 86.9601 78.0204 83.7901L79.0104 81.0101L79.9204 78.9801C80.2804 78.1601 80.4304 77.3001 80.6504 76.3801C80.9504 75.1401 81.7604 73.7401 81.7604 72.4601C81.7604 70.7101 79.9804 70.3301 78.6704 70.3201C77.3104 70.3001 76.2204 70.2801 74.8704 70.7201C74.6604 70.7901 74.1504 70.8201 73.9404 70.7701C73.1504 70.5601 73.4604 68.4001 73.8504 68.0001C74.1804 67.6601 74.7104 67.1901 75.0404 67.0301L76.9204 66.1301C78.4104 65.4001 79.8604 64.7301 81.2804 63.8201C84.4404 61.7801 90.8604 57.8601 94.2804 56.8001C95.0804 56.5601 96.1504 56.7701 97.0104 56.4301C97.6904 56.1701 99.2504 56.7601 98.9904 57.4901" fill="#90BEFB"/>
<path d="M107.95 33.07C107.83 33.74 107.85 34.75 107.57 35.37C107.29 36.02 106.99 36.8 106.63 37.35C105.38 39.23 103.51 40.25 101.56 41.34L100.01 42.21C98.7697 42.91 98.9697 41.88 96.4097 42.09C95.3697 42.17 94.5297 41.76 94.0897 40.86L92.3497 40.01C91.7797 39.73 91.7897 38.42 91.9597 37.87C91.4297 36.17 91.7697 34.67 92.7597 33.24C93.2297 30.84 93.0997 31.21 94.9997 30.06L96.7397 29.01C98.2397 28.09 99.6797 27.32 101.56 27.61C102.55 27.18 103.55 27.3 104.57 27.53C106.79 28.02 108.41 30.71 107.95 33.08" fill="#90BEFB"/>
</g>
<defs>
<clipPath id="clip0_2554_3211">
<rect width="555.59" height="221.18" fill="white"/>
</clipPath>
</defs>
</svg>
