<svg width="663" height="105" viewBox="0 0 663 105" fill="none" xmlns="http://www.w3.org/2000/svg">
<g clip-path="url(#clip0_2554_16916)">
<path d="M653.82 61.3004L651.34 63.7803V63.8404H653.69V63.6404H653.89V61.2904H653.83L653.82 61.3004ZM656.64 61.3004L654.16 63.7803V63.8404H656.51V63.6404H656.71V61.2904H656.65L656.64 61.3004ZM659.46 61.3004L656.98 63.7803V63.8404H659.33V63.6404H659.53V61.2904H659.47L659.46 61.3004ZM662.28 61.3004L659.8 63.7803V63.8404H662.15V63.6404H662.34V61.2904H662.28V61.3004ZM651.34 61.1003V61.2904H651.14V63.6404H651.2L652.2 62.6404L651.78 62.2204L652.31 61.6903L652.73 62.1104L653.68 61.1604V61.1003H651.33H651.34ZM654.16 61.1003V61.2904H653.96V63.6404H654.02L655.02 62.6404L654.6 62.2204L655.13 61.6903L655.55 62.1104L656.5 61.1604V61.1003H654.15H654.16ZM656.98 61.1003V61.2904H656.78V63.6404H656.84L657.84 62.6404L657.42 62.2204L657.95 61.6903L658.37 62.1104L659.32 61.1604V61.1003H656.97H656.98ZM659.8 61.1003V61.2904H659.6V63.6404H659.66L660.66 62.6404L660.24 62.2204L660.78 61.6903L661.2 62.1104L662.15 61.1604V61.1003H659.8ZM651 58.4804L648.52 60.9604V61.0204H650.87V60.8304H651.07V58.4804H651.01H651ZM653.82 58.4804L651.34 60.9604V61.0204H653.69V60.8304H653.89V58.4804H653.83H653.82ZM648.52 58.2803V58.4804H648.32V60.8304H648.38L649.38 59.8304L648.96 59.4104L649.49 58.8804L649.91 59.3004L650.86 58.3503V58.2904H648.51L648.52 58.2803ZM651.34 58.2803V58.4804H651.14V60.8304H651.2L652.2 59.8304L651.78 59.4104L652.31 58.8804L652.73 59.3004L653.68 58.3503V58.2904H651.33L651.34 58.2803ZM651 55.6604L648.52 58.1404V58.2004H650.87V58.0004H651.07V55.6504H651.01L651 55.6604ZM653.82 55.6604L651.34 58.1404V58.2004H653.69V58.0004H653.89V55.6504H653.83L653.82 55.6604ZM648.52 55.4604V55.6504H648.32V58.0004H648.38L649.38 57.0004L648.96 56.5804L649.49 56.0504L649.91 56.4704L650.86 55.5204V55.4604H648.51H648.52ZM651.34 55.4604V55.6504H651.14V58.0004H651.2L652.2 57.0004L651.78 56.5804L652.31 56.0504L652.73 56.4704L653.68 55.5204V55.4604H651.33H651.34ZM651 52.8404L648.52 55.3304V55.3904H650.87V55.2004H651.07V52.8503H651.01L651 52.8404ZM653.82 52.8404L651.34 55.3304V55.3904H653.69V55.2004H653.89V52.8503H653.83L653.82 52.8404ZM648.52 52.6404V52.8404H648.32V55.1903H648.38L649.38 54.1903L648.96 53.7704L649.49 53.2404L649.91 53.6604L650.86 52.7104V52.6504H648.51L648.52 52.6404ZM651.34 52.6404V52.8404H651.14V55.1903H651.2L652.2 54.1903L651.78 53.7704L652.31 53.2404L652.73 53.6604L653.68 52.7104V52.6504H651.33L651.34 52.6404ZM651 50.0103L648.52 52.4904V52.5504H650.87V52.3604H651.07V50.0103H651.01H651ZM653.82 50.0103L651.34 52.4904V52.5504H653.69V52.3604H653.89V50.0103H653.83H653.82ZM656.64 50.0103L654.16 52.4904V52.5504H656.51V52.3604H656.71V50.0103H656.65H656.64ZM659.46 50.0103L656.98 52.4904V52.5504H659.33V52.3604H659.53V50.0103H659.47H659.46ZM662.28 50.0103L659.8 52.5004V52.5604H662.15V52.3703H662.34V50.0204H662.28V50.0103ZM648.52 49.8204V50.0103H648.32V52.3604H648.38L649.38 51.3604L648.96 50.9403L649.49 50.4104L649.91 50.8304L650.86 49.8804V49.8204H648.51H648.52ZM651.34 49.8204V50.0103H651.14V52.3604H651.2L652.2 51.3604L651.78 50.9403L652.31 50.4104L652.73 50.8304L653.68 49.8804V49.8204H651.33H651.34ZM654.16 49.8204V50.0103H653.96V52.3604H654.02L655.02 51.3604L654.6 50.9403L655.13 50.4104L655.55 50.8304L656.5 49.8804V49.8204H654.15H654.16ZM656.98 49.8204V50.0103H656.78V52.3604H656.84L657.84 51.3604L657.42 50.9403L657.95 50.4104L658.37 50.8304L659.32 49.8804V49.8204H656.97H656.98ZM659.8 49.8204V50.0103H659.6V52.3604H659.66L660.66 51.3604L660.24 50.9403L660.78 50.4104L661.2 50.8304L662.15 49.8804V49.8204H659.8ZM651 47.1903L648.52 49.6703V49.7304H650.87V49.5303H651.07V47.1804H651.01L651 47.1903ZM653.82 47.1903L651.34 49.6703V49.7304H653.69V49.5303H653.89V47.1804H653.83L653.82 47.1903ZM662.28 47.1903L659.8 49.6703V49.7304H662.15V49.5303H662.34V47.1804H662.28V47.1903ZM648.52 47.0004V47.2004H648.32V49.5504H648.38L649.38 48.5504L648.96 48.1304L649.49 47.6003L649.91 48.0204L650.86 47.0704V47.0103H648.51L648.52 47.0004ZM651.34 47.0004V47.2004H651.14V49.5504H651.2L652.2 48.5504L651.78 48.1304L652.31 47.6003L652.73 48.0204L653.68 47.0704V47.0103H651.33L651.34 47.0004ZM659.8 47.0004V47.2004H659.6V49.5504H659.66L660.66 48.5504L660.24 48.1304L660.78 47.6003L661.2 48.0204L662.15 47.0704V47.0103H659.8V47.0004ZM651 44.3703L648.52 46.8503V46.9104H650.87V46.7104H651.07V44.3604H651.01L651 44.3703ZM653.82 44.3703L651.34 46.8503V46.9104H653.69V46.7104H653.89V44.3604H653.83L653.82 44.3703ZM662.28 44.3703L659.8 46.8503V46.9104H662.15V46.7104H662.34V44.3604H662.28V44.3703ZM648.52 44.1804V44.3804H648.32V46.7304H648.38L649.38 45.7304L648.96 45.3104L649.49 44.7803L649.91 45.2004L650.86 44.2504V44.1903H648.51L648.52 44.1804ZM651.34 44.1804V44.3804H651.14V46.7304H651.2L652.2 45.7304L651.78 45.3104L652.31 44.7803L652.73 45.2004L653.68 44.2504V44.1903H651.33L651.34 44.1804ZM659.8 44.1804V44.3804H659.6V46.7304H659.66L660.66 45.7304L660.24 45.3104L660.78 44.7803L661.2 45.2004L662.15 44.2504V44.1903H659.8V44.1804ZM653.82 41.5504L651.34 44.0404V44.1003H653.69V43.9004H653.89V41.5504H653.83H653.82ZM656.64 41.5504L654.16 44.0404V44.1003H656.51V43.9004H656.71V41.5504H656.65H656.64ZM659.46 41.5504L656.98 44.0404V44.1003H659.33V43.9004H659.53V41.5504H659.47H659.46ZM651.34 41.3604V41.5504H651.14V43.9004H651.2L652.2 42.9004L651.78 42.4804L652.31 41.9504L652.73 42.3703L653.68 41.4203V41.3604H651.33H651.34ZM654.16 41.3604V41.5504H653.96V43.9004H654.02L655.02 42.9004L654.6 42.4804L655.13 41.9504L655.55 42.3703L656.5 41.4203V41.3604H654.15H654.16ZM656.98 41.3604V41.5504H656.78V43.9004H656.84L657.84 42.9004L657.42 42.4804L657.95 41.9504L658.37 42.3703L659.32 41.4203V41.3604H656.97H656.98Z" fill="#90BEFB"/>
<path d="M76.8797 57.5003V57.5603H79.2297V57.3603H79.4297V55.0103H79.3697L76.8897 57.5003H76.8797ZM77.7397 56.3603L77.3197 55.9403L77.8497 55.4103L78.2697 55.8303L79.2197 54.8803V54.8203H76.8697V55.0103H76.6697V57.3603H76.7297L77.7297 56.3603H77.7397ZM74.0597 57.5003V57.5603H76.4097V57.3603H76.6097V55.0103H76.5497L74.0697 57.5003H74.0597ZM74.9197 56.3603L74.4997 55.9403L75.0297 55.4103L75.4497 55.8303L76.3997 54.8803V54.8203H74.0497V55.0103H73.8497V57.3603H73.9097L74.9097 56.3603H74.9197ZM71.2297 57.5003V57.5603H73.5797V57.3603H73.7797V55.0103H73.7197L71.2397 57.5003H71.2297ZM72.0997 56.3603L71.6797 55.9403L72.2097 55.4103L72.6297 55.8303L73.5797 54.8803V54.8203H71.2297V55.0103H71.0297V57.3603H71.0897L72.0897 56.3603H72.0997ZM79.6997 63.1403V63.2003H82.0497V63.0003H82.2497V60.6503H82.1897L79.7097 63.1303L79.6997 63.1403ZM80.5597 62.0003L80.1397 61.5803L80.6697 61.0503L81.0897 61.4703L82.0397 60.5203V60.4603H79.6897V60.6603H79.4897V63.0103H79.5497L80.5497 62.0103L80.5597 62.0003ZM76.8797 63.1403V63.2003H79.2297V63.0003H79.4297V60.6503H79.3697L76.8897 63.1303L76.8797 63.1403ZM77.7397 62.0003L77.3197 61.5803L77.8497 61.0503L78.2697 61.4703L79.2197 60.5203V60.4603H76.8697V60.6603H76.6697V63.0103H76.7297L77.7297 62.0103L77.7397 62.0003ZM82.1797 57.8303L79.6997 60.3103V60.3703H82.0497V60.1803H82.2497V57.8303H82.1897H82.1797ZM80.5597 59.1803L80.1397 58.7603L80.6697 58.2303L81.0897 58.6503L82.0397 57.7003V57.6403H79.6897V57.8403H79.4897V60.1903H79.5497L80.5497 59.1903L80.5597 59.1803ZM76.8797 60.3203V60.3803H79.2297V60.1903H79.4297V57.8403H79.3697L76.8897 60.3203H76.8797ZM77.7397 59.1803L77.3197 58.7603L77.8497 58.2303L78.2697 58.6503L79.2197 57.7003V57.6403H76.8697V57.8403H76.6697V60.1903H76.7297L77.7297 59.1903L77.7397 59.1803ZM79.6997 65.9603V66.0203H82.0497V65.8303H82.2497V63.4803H82.1897L79.7097 65.9703L79.6997 65.9603ZM80.5597 64.8203L80.1397 64.4003L80.6697 63.8703L81.0897 64.2903L82.0397 63.3403V63.2803H79.6897V63.4703H79.4897V65.8203H79.5497L80.5497 64.8203H80.5597ZM76.8797 65.9603V66.0203H79.2297V65.8303H79.4297V63.4803H79.3697L76.8897 65.9703L76.8797 65.9603ZM77.7397 64.8203L77.3197 64.4003L77.8497 63.8703L78.2697 64.2903L79.2197 63.3403V63.2803H76.8697V63.4703H76.6697V65.8203H76.7297L77.7297 64.8203H77.7397ZM74.0597 65.9603V66.0203H76.4097V65.8303H76.6097V63.4803H76.5497L74.0697 65.9703L74.0597 65.9603ZM74.9197 64.8203L74.4997 64.4003L75.0297 63.8703L75.4497 64.2903L76.3997 63.3403V63.2803H74.0497V63.4703H73.8497V65.8203H73.9097L74.9097 64.8203H74.9197ZM71.2297 65.9603V66.0203H73.5797V65.8303H73.7797V63.4803H73.7197L71.2397 65.9703L71.2297 65.9603ZM72.0997 64.8203L71.6797 64.4003L72.2097 63.8703L72.6297 64.2903L73.5797 63.3403V63.2803H71.2297V63.4703H71.0297V65.8203H71.0897L72.0897 64.8203H72.0997ZM68.4097 65.9603V66.0203H70.7597V65.8303H70.9497V63.4803H70.8897L68.4097 65.9703V65.9603ZM69.2797 64.8203L68.8597 64.4003L69.3897 63.8703L69.8097 64.2903L70.7597 63.3403V63.2803H68.4097V63.4703H68.2197V65.8203H68.2797L69.2797 64.8203ZM79.6997 71.6003V71.6603H82.0497V71.4603H82.2497V69.1103H82.1897L79.7097 71.5903L79.6997 71.6003ZM80.5597 70.4603L80.1397 70.0403L80.6697 69.5103L81.0897 69.9303L82.0397 68.9803V68.9203H79.6897V69.1203H79.4897V71.4703H79.5497L80.5497 70.4703L80.5597 70.4603ZM76.8797 71.6003V71.6603H79.2297V71.4603H79.4297V69.1103H79.3697L76.8897 71.5903L76.8797 71.6003ZM77.7397 70.4603L77.3197 70.0403L77.8497 69.5103L78.2697 69.9303L79.2197 68.9803V68.9203H76.8697V69.1203H76.6697V71.4703H76.7297L77.7297 70.4703L77.7397 70.4603ZM68.4097 71.6003V71.6603H70.7597V71.4603H70.9497V69.1103H70.8897L68.4097 71.5903V71.6003ZM69.2797 70.4603L68.8597 70.0403L69.3897 69.5103L69.8097 69.9303L70.7597 68.9803V68.9203H68.4097V69.1203H68.2197V71.4703H68.2797L69.2797 70.4703V70.4603ZM76.8797 68.7803V68.8403H79.2297V68.6503H79.4297V66.3003H79.3697L76.8897 68.7803H76.8797ZM77.7397 67.6403L77.3197 67.2203L77.8497 66.6903L78.2697 67.1103L79.2197 66.1603V66.1003H76.8697V66.2903H76.6697V68.6403H76.7297L77.7297 67.6403H77.7397ZM68.4097 68.7803V68.8403H70.7597V68.6503H70.9497V66.3003H70.8897L68.4097 68.7803ZM69.2797 67.6403L68.8597 67.2203L69.3897 66.6903L69.8097 67.1103L70.7597 66.1603V66.1003H68.4097V66.2903H68.2197V68.6403H68.2797L69.2797 67.6403ZM79.6997 74.4203V74.4803H82.0497V74.2903H82.2497V71.9403H82.1897L79.7097 74.4203H79.6997ZM80.5597 73.2803L80.1397 72.8603L80.6697 72.3303L81.0897 72.7503L82.0397 71.8003V71.7403H79.6897V71.9403H79.4897V74.2903H79.5497L80.5497 73.2903L80.5597 73.2803ZM76.8797 74.4203V74.4803H79.2297V74.2903H79.4297V71.9403H79.3697L76.8897 74.4203H76.8797ZM77.7397 73.2803L77.3197 72.8603L77.8497 72.3303L78.2697 72.7503L79.2197 71.8003V71.7403H76.8697V71.9403H76.6697V74.2903H76.7297L77.7297 73.2903L77.7397 73.2803ZM68.4097 74.4203V74.4803H70.7597V74.2903H70.9497V71.9403H70.8897L68.4097 74.4203ZM68.8597 72.8603L69.3897 72.3303L69.8097 72.7503L70.7597 71.8003V71.7403H68.4097V71.9403H68.2197V74.2903H68.2797L69.2797 73.2903L68.8597 72.8703V72.8603ZM79.6997 77.2403V77.3003H82.0497V77.1003H82.2497V74.7503H82.1897L79.7097 77.2303L79.6997 77.2403ZM80.1397 75.6803L80.6697 75.1503L81.0897 75.5703L82.0397 74.6203V74.5603H79.6897V74.7603H79.4897V77.1103H79.5497L80.5497 76.1103L80.1297 75.6903L80.1397 75.6803ZM76.8797 77.2403V77.3003H79.2297V77.1003H79.4297V74.7503H79.3697L76.8897 77.2303L76.8797 77.2403ZM77.3197 75.6803L77.8497 75.1503L78.2697 75.5703L79.2197 74.6203V74.5603H76.8697V74.7603H76.6697V77.1103H76.7297L77.7297 76.1103L77.3097 75.6903L77.3197 75.6803ZM74.0597 77.2403V77.3003H76.4097V77.1003H76.6097V74.7503H76.5497L74.0697 77.2303L74.0597 77.2403ZM74.4997 75.6803L75.0297 75.1503L75.4497 75.5703L76.3997 74.6203V74.5603H74.0497V74.7603H73.8497V77.1103H73.9097L74.9097 76.1103L74.4897 75.6903L74.4997 75.6803ZM71.2297 77.2403V77.3003H73.5797V77.1003H73.7797V74.7503H73.7197L71.2397 77.2303L71.2297 77.2403ZM71.6797 75.6803L72.2097 75.1503L72.6297 75.5703L73.5797 74.6203V74.5603H71.2297V74.7603H71.0297V77.1103H71.0897L72.0897 76.1103L71.6697 75.6903L71.6797 75.6803ZM79.6997 68.7803V68.8403H82.0497V68.6503H82.2497V66.3003H82.1897L79.7097 68.7803H79.6997ZM80.5597 67.6403L80.1397 67.2203L80.6697 66.6903L81.0897 67.1103L82.0397 66.1603V66.1003H79.6897V66.2903H79.4897V68.6403H79.5497L80.5497 67.6403H80.5597Z" fill="#90BEFB"/>
<path d="M2.68 36.4898L0.2 38.9698V39.0298H2.55V38.8298H2.75V36.4798H2.69L2.68 36.4898ZM5.5 36.4898L3.02 38.9698V39.0298H5.37V38.8298H5.57V36.4798H5.51L5.5 36.4898ZM11.14 36.4898L8.66 38.9698V39.0298H11.01V38.8298H11.2V36.4798H11.14V36.4898ZM16.78 36.4898L14.3 38.9698V39.0298H16.65V38.8298H16.84V36.4798H16.78V36.4898ZM0.2 36.2998V36.4898H0V38.8398H0.06L1.06 37.8398L0.64 37.4198L1.17 36.8798L1.59 37.2998L2.54 36.3498V36.2898H0.2V36.2998ZM3.02 36.2998V36.4898H2.82V38.8398H2.88L3.88 37.8398L3.46 37.4198L3.99 36.8798L4.41 37.2998L5.36 36.3498V36.2898H3.01L3.02 36.2998ZM8.66 36.2998V36.4898H8.46V38.8398H8.52L9.52 37.8398L9.1 37.4198L9.63 36.8798L10.05 37.2998L11 36.3498V36.2898H8.65L8.66 36.2998ZM14.3 36.2998V36.4898H14.1V38.8398H14.16L15.16 37.8398L14.74 37.4198L15.27 36.8798L15.69 37.2998L16.64 36.3498V36.2898H14.29L14.3 36.2998ZM2.68 33.6698L0.2 36.1498V36.2098H2.55V36.0198H2.75V33.6698H2.69H2.68ZM5.5 33.6698L3.02 36.1498V36.2098H5.37V36.0198H5.57V33.6698H5.51H5.5ZM11.14 33.6698L8.66 36.1498V36.2098H11.01V36.0198H11.2V33.6698H11.14ZM16.78 33.6698L14.3 36.1498V36.2098H16.65V36.0198H16.84V33.6698H16.78ZM0.2 33.4798V33.6698H0V36.0198H0.06L1.06 35.0198L0.64 34.5998L1.17 34.0698L1.59 34.4898L2.54 33.5398V33.4798H0.2ZM3.02 33.4798V33.6698H2.82V36.0198H2.88L3.88 35.0198L3.46 34.5998L3.99 34.0698L4.41 34.4898L5.36 33.5398V33.4798H3.01H3.02ZM8.66 33.4798V33.6698H8.46V36.0198H8.52L9.52 35.0198L9.1 34.5998L9.63 34.0698L10.05 34.4898L11 33.5398V33.4798H8.65H8.66ZM14.3 33.4798V33.6698H14.1V36.0198H14.16L15.16 35.0198L14.74 34.5998L15.27 34.0698L15.69 34.4898L16.64 33.5398V33.4798H14.29H14.3ZM2.68 30.8498L0.2 33.3298V33.3898H2.55V33.1898H2.75V30.8398H2.69L2.68 30.8498ZM5.5 30.8498L3.02 33.3298V33.3898H5.37V33.1898H5.57V30.8398H5.51L5.5 30.8498ZM11.14 30.8498L8.66 33.3298V33.3898H11.01V33.1898H11.2V30.8398H11.14V30.8498ZM16.78 30.8498L14.3 33.3298V33.3898H16.65V33.1898H16.84V30.8398H16.78V30.8498ZM0.2 30.6598V30.8598H0V33.2098H0.06L1.06 32.2098L0.64 31.7898L1.17 31.2598L1.59 31.6798L2.54 30.7298V30.6698H0.2V30.6598ZM3.02 30.6598V30.8598H2.82V33.2098H2.88L3.88 32.2098L3.46 31.7898L3.99 31.2598L4.41 31.6798L5.36 30.7298V30.6698H3.01L3.02 30.6598ZM8.66 30.6598V30.8598H8.46V33.2098H8.52L9.52 32.2098L9.1 31.7898L9.63 31.2598L10.05 31.6798L11 30.7298V30.6698H8.65L8.66 30.6598ZM14.3 30.6598V30.8598H14.1V33.2098H14.16L15.16 32.2098L14.74 31.7898L15.27 31.2598L15.69 31.6798L16.64 30.7298V30.6698H14.29L14.3 30.6598ZM2.68 28.0298L0.2 30.5198V30.5798H2.55V30.3798H2.75V28.0298H2.69H2.68ZM5.5 28.0298L3.02 30.5098V30.5698H5.37V30.3698H5.57V28.0198H5.51L5.5 28.0298ZM11.14 28.0298L8.66 30.5098V30.5698H11.01V30.3698H11.2V28.0198H11.14V28.0298ZM16.78 28.0298L14.3 30.5098V30.5698H16.65V30.3698H16.84V28.0198H16.78V28.0298ZM0.2 27.8398V28.0398H0V30.3898H0.06L1.06 29.3898L0.64 28.9698L1.17 28.4398L1.59 28.8598L2.54 27.9098V27.8498H0.2V27.8398ZM3.02 27.8398V28.0398H2.82V30.3898H2.88L3.88 29.3898L3.46 28.9698L3.99 28.4398L4.41 28.8598L5.36 27.9098V27.8498H3.01L3.02 27.8398ZM8.66 27.8398V28.0398H8.46V30.3898H8.52L9.52 29.3898L9.1 28.9698L9.63 28.4398L10.05 28.8598L11 27.9098V27.8498H8.65L8.66 27.8398ZM14.3 27.8398V28.0398H14.1V30.3898H14.16L15.16 29.3898L14.74 28.9698L15.27 28.4398L15.69 28.8598L16.64 27.9098V27.8498H14.29L14.3 27.8398ZM2.68 25.2098L0.2 27.6998V27.7598H2.55V27.5598H2.75V25.2098H2.69H2.68ZM5.5 25.2098L3.02 27.6898V27.7498H5.37V27.5498H5.57V25.1998H5.51L5.5 25.2098ZM11.14 25.2098L8.66 27.6898V27.7498H11.01V27.5498H11.2V25.1998H11.14V25.2098ZM16.78 25.2098L14.3 27.6898V27.7498H16.65V27.5498H16.84V25.1998H16.78V25.2098ZM0.2 25.0198V25.2098H0V27.5598H0.06L1.06 26.5598L0.64 26.1398L1.17 25.6098L1.59 26.0298L2.54 25.0798V25.0198H0.2ZM3.02 25.0198V25.2098H2.82V27.5598H2.88L3.88 26.5598L3.46 26.1398L3.99 25.6098L4.41 26.0298L5.36 25.0798V25.0198H3.01H3.02ZM8.66 25.0198V25.2098H8.46V27.5598H8.52L9.52 26.5598L9.1 26.1398L9.63 25.6098L10.05 26.0298L11 25.0798V25.0198H8.65H8.66ZM14.3 25.0198V25.2098H14.1V27.5598H14.16L15.16 26.5598L14.74 26.1398L15.27 25.6098L15.69 26.0298L16.64 25.0798V25.0198H14.29H14.3ZM2.68 22.3898L0.2 24.8798V24.9398H2.55V24.7398H2.75V22.3898H2.69H2.68ZM5.5 22.3898L3.02 24.8698V24.9298H5.37V24.7298H5.57V22.3798H5.51L5.5 22.3898ZM11.14 22.3898L8.66 24.8698V24.9298H11.01V24.7298H11.2V22.3798H11.14V22.3898ZM16.78 22.3898L14.3 24.8698V24.9298H16.65V24.7298H16.84V22.3798H16.78V22.3898ZM0.2 22.1898V22.3898H0V24.7398H0.06L1.06 23.7398L0.64 23.3198L1.17 22.7898L1.59 23.2098L2.54 22.2598V22.1998H0.2V22.1898ZM3.02 22.1898V22.3898H2.82V24.7398H2.88L3.88 23.7398L3.46 23.3198L3.99 22.7898L4.41 23.2098L5.36 22.2598V22.1998H3.01L3.02 22.1898ZM8.66 22.1898V22.3898H8.46V24.7398H8.52L9.52 23.7398L9.1 23.3198L9.63 22.7898L10.05 23.2098L11 22.2598V22.1998H8.65L8.66 22.1898ZM14.3 22.1898V22.3898H14.1V24.7398H14.16L15.16 23.7398L14.74 23.3198L15.27 22.7898L15.69 23.2098L16.64 22.2598V22.1998H14.29L14.3 22.1898ZM2.68 19.5698L0.2 22.0498V22.1098H2.55V21.9098H2.75V19.5598H2.69L2.68 19.5698ZM5.5 19.5698L3.02 22.0498V22.1098H5.37V21.9098H5.57V19.5598H5.51L5.5 19.5698ZM11.14 19.5698L8.66 22.0498V22.1098H11.01V21.9098H11.2V19.5598H11.14V19.5698ZM16.78 19.5698L14.3 22.0498V22.1098H16.65V21.9098H16.84V19.5598H16.78V19.5698ZM0.2 19.3798V19.5698H0V21.9198H0.06L1.06 20.9198L0.64 20.4998L1.17 19.9598L1.59 20.3798L2.54 19.4298V19.3698H0.2V19.3798ZM3.02 19.3798V19.5698H2.82V21.9198H2.88L3.88 20.9198L3.46 20.4998L3.99 19.9598L4.41 20.3798L5.36 19.4298V19.3698H3.01L3.02 19.3798ZM8.66 19.3798V19.5698H8.46V21.9198H8.52L9.52 20.9198L9.1 20.4998L9.63 19.9598L10.05 20.3798L11 19.4298V19.3698H8.65L8.66 19.3798ZM14.3 19.3798V19.5698H14.1V21.9198H14.16L15.16 20.9198L14.74 20.4998L15.27 19.9598L15.69 20.3798L16.64 19.4298V19.3698H14.29L14.3 19.3798ZM2.68 16.7498L0.2 19.2298V19.2898H2.55V19.0898H2.75V16.7398H2.69L2.68 16.7498ZM5.5 16.7498L3.02 19.2398V19.2998H5.37V19.0998H5.57V16.7498H5.51H5.5ZM8.32 16.7498L5.84 19.2398V19.2998H8.19V19.0998H8.39V16.7498H8.33H8.32ZM11.14 16.7498L8.66 19.2398V19.2998H11.01V19.0998H11.2V16.7498H11.14ZM13.96 16.7498L11.48 19.2398V19.2998H13.83V19.0998H14.03V16.7498H13.97H13.96ZM0.2 16.5498V16.7398H0V19.0898H0.06L1.06 18.0898L0.64 17.6698L1.17 17.1398L1.59 17.5598L2.54 16.6098V16.5498H0.2ZM3.02 16.5498V16.7398H2.82V19.0898H2.88L3.88 18.0898L3.46 17.6698L3.99 17.1398L4.41 17.5598L5.36 16.6098V16.5498H3.01H3.02ZM5.84 16.5498V16.7398H5.64V19.0898H5.7L6.7 18.0898L6.28 17.6698L6.81 17.1398L7.23 17.5598L8.18 16.6098V16.5498H5.83H5.84ZM8.66 16.5498V16.7398H8.46V19.0898H8.52L9.52 18.0898L9.1 17.6698L9.63 17.1398L10.05 17.5598L11 16.6098V16.5498H8.65H8.66ZM11.48 16.5498V16.7398H11.29V19.0898H11.35L12.35 18.0898L11.93 17.6698L12.46 17.1398L12.88 17.5598L13.83 16.6098V16.5498H11.48Z" fill="#90BEFB"/>
<path d="M335.64 10.1505V10.2105H337.99V10.0105H338.19V7.66047H338.13L335.65 10.1405L335.64 10.1505ZM336.08 8.60047L336.61 8.07047L337.03 8.49047L337.98 7.54047V7.48047H335.63V7.68047H335.43V10.0305H335.49L336.49 9.03047L336.07 8.61047L336.08 8.60047ZM330 10.1505V10.2105H332.35V10.0105H332.55V7.66047H332.49L330.01 10.1405L330 10.1505ZM330.86 9.02047L330.44 8.60047L330.97 8.07047L331.39 8.49047L332.34 7.54047V7.48047H329.99V7.68047H329.8V10.0305H329.86L330.86 9.03047V9.02047ZM327.18 10.1505V10.2105H329.53V10.0105H329.73V7.66047H329.67L327.19 10.1405L327.18 10.1505ZM328.04 9.02047L327.62 8.60047L328.15 8.07047L328.57 8.49047L329.52 7.54047V7.48047H327.17V7.68047H326.97V10.0305H327.03L328.03 9.03047L328.04 9.02047ZM330 15.8005V15.8605H332.35V15.6705H332.55V13.3205H332.49L330.01 15.8105L330 15.8005ZM330.86 14.6605L330.44 14.2405L330.97 13.7105L331.39 14.1305L332.34 13.1805V13.1205H329.99V13.3105H329.8V15.6605H329.86L330.86 14.6605ZM327.18 15.8005V15.8605H329.53V15.6705H329.73V13.3205H329.67L327.19 15.8105L327.18 15.8005ZM328.04 14.6605L327.62 14.2405L328.15 13.7105L328.57 14.1305L329.52 13.1805V13.1205H327.17V13.3105H326.97V15.6605H327.03L328.03 14.6605H328.04ZM330 12.9805V13.0405H332.35V12.8505H332.55V10.5005H332.49L330.01 12.9805H330ZM330.86 11.8405L330.44 11.4205L330.97 10.8905L331.39 11.3105L332.34 10.3605V10.3005H329.99V10.5005H329.8V12.8505H329.86L330.86 11.8505V11.8405ZM327.18 12.9805V13.0405H329.53V12.8505H329.73V10.5005H329.67L327.19 12.9805H327.18ZM328.04 11.8405L327.62 11.4205L328.15 10.8905L328.57 11.3105L329.52 10.3605V10.3005H327.17V10.5005H326.97V12.8505H327.03L328.03 11.8505L328.04 11.8405ZM330 18.6205V18.6805H332.35V18.4905H332.55V16.1405H332.49L330.01 18.6205H330ZM330.86 17.4805L330.44 17.0605L330.97 16.5305L331.39 16.9505L332.34 16.0005V15.9405H329.99V16.1305H329.8V18.4805H329.86L330.86 17.4805ZM327.18 18.6205V18.6805H329.53V18.4905H329.73V16.1405H329.67L327.19 18.6205H327.18ZM328.04 17.4805L327.62 17.0605L328.15 16.5305L328.57 16.9505L329.52 16.0005V15.9405H327.17V16.1305H326.97V18.4805H327.03L328.03 17.4805H328.04ZM330 24.2605V24.3205H332.35V24.1205H332.55V21.7705H332.49L330.01 24.2505L330 24.2605ZM330.86 23.1205L330.44 22.7005L330.97 22.1705L331.39 22.5905L332.34 21.6405V21.5805H329.99V21.7805H329.8V24.1305H329.86L330.86 23.1305V23.1205ZM327.18 24.2605V24.3205H329.53V24.1205H329.73V21.7705H329.67L327.19 24.2505L327.18 24.2605ZM328.04 23.1205L327.62 22.7005L328.15 22.1705L328.57 22.5905L329.52 21.6405V21.5805H327.17V21.7805H326.97V24.1305H327.03L328.03 23.1305L328.04 23.1205ZM330 21.4405V21.5005H332.35V21.3005H332.55V18.9505H332.49L330.01 21.4305L330 21.4405ZM330.86 20.3005L330.44 19.8805L330.97 19.3505L331.39 19.7705L332.34 18.8205V18.7605H329.99V18.9605H329.8V21.3105H329.86L330.86 20.3105V20.3005ZM327.18 21.4405V21.5005H329.53V21.3005H329.73V18.9505H329.67L327.19 21.4305L327.18 21.4405ZM328.04 20.3005L327.62 19.8805L328.15 19.3505L328.57 19.7705L329.52 18.8205V18.7605H327.17V18.9605H326.97V21.3105H327.03L328.03 20.3105L328.04 20.3005ZM330 27.0805V27.1405H332.35V26.9405H332.55V24.5905H332.49L330.01 27.0705L330 27.0805ZM330.86 25.9405L330.44 25.5205L330.97 24.9905L331.39 25.4105L332.34 24.4605V24.4005H329.99V24.6005H329.8V26.9505H329.86L330.86 25.9505V25.9405ZM327.18 27.0805V27.1405H329.53V26.9405H329.73V24.5905H329.67L327.19 27.0705L327.18 27.0805ZM328.04 25.9405L327.62 25.5205L328.15 24.9905L328.57 25.4105L329.52 24.4605V24.4005H327.17V24.6005H326.97V26.9505H327.03L328.03 25.9505L328.04 25.9405ZM330 29.9005V29.9605H332.35V29.7605H332.55V27.4105H332.49L330.01 29.9005H330ZM330.44 28.3405L330.97 27.8105L331.39 28.2305L332.34 27.2805V27.2205H329.99V27.4205H329.8V29.7705H329.86L330.86 28.7705L330.44 28.3505V28.3405ZM327.18 29.9005V29.9605H329.53V29.7605H329.73V27.4105H329.67L327.19 29.9005H327.18ZM327.62 28.3405L328.15 27.8105L328.57 28.2305L329.52 27.2805V27.2205H327.17V27.4205H326.97V29.7705H327.03L328.03 28.7705L327.61 28.3505L327.62 28.3405ZM340.95 7.67047L338.46 10.1505V10.2105H340.81V10.0105H341.01V7.66047H340.95V7.67047ZM338.91 8.60047L339.44 8.07047L339.86 8.49047L340.81 7.54047V7.48047H338.46V7.68047H338.27V10.0305H338.33L339.33 9.03047L338.91 8.61047V8.60047ZM332.82 12.9805V13.0405H335.17V12.8505H335.37V10.5005H335.31L332.83 12.9805H332.82ZM333.26 11.4205L333.79 10.8905L334.21 11.3105L335.16 10.3605V10.3005H332.81V10.5005H332.61V12.8505H332.67L333.67 11.8505L333.25 11.4305L333.26 11.4205Z" fill="#90BEFB"/>
<path d="M147.58 33.5301L145.09 36.0201V36.0801H147.44V35.8801H147.64V33.5301H147.58ZM145.96 34.8701L145.54 34.4501L146.07 33.9201L146.49 34.3401L147.44 33.3901V33.3301H145.09V33.5201H144.89V35.8701H144.95L145.95 34.8701H145.96ZM139.45 36.0101V36.0701H141.8V35.8701H142V33.5201H141.94L139.46 36.0101H139.45ZM140.32 34.8701L139.9 34.4501L140.43 33.9201L140.85 34.3401L141.8 33.3901V33.3301H139.45V33.5201H139.26V35.8701H139.32L140.32 34.8701ZM136.63 36.0101V36.0701H138.98V35.8701H139.17V33.5201H139.11L136.63 36.0101ZM137.5 34.8701L137.08 34.4501L137.61 33.9201L138.03 34.3401L138.98 33.3901V33.3301H136.63V33.5201H136.43V35.8701H136.49L137.49 34.8701H137.5ZM136.63 41.6501V41.7101H138.98V41.5101H139.17V39.1601H139.11L136.63 41.6401V41.6501ZM137.5 40.5101L137.08 40.0901L137.61 39.5601L138.03 39.9801L138.98 39.0301V38.9701H136.63V39.1701H136.43V41.5201H136.49L137.49 40.5201L137.5 40.5101ZM133.81 41.6501V41.7101H136.16V41.5101H136.36V39.1601H136.3L133.82 41.6401L133.81 41.6501ZM134.67 40.5101L134.25 40.0901L134.78 39.5601L135.2 39.9801L136.15 39.0301V38.9701H133.8V39.1701H133.6V41.5201H133.66L134.66 40.5201L134.67 40.5101ZM136.63 38.8301V38.8901H138.98V38.6901H139.17V36.3401H139.11L136.63 38.8301ZM137.5 37.6901L137.08 37.2701L137.61 36.7401L138.03 37.1601L138.98 36.2101V36.1501H136.63V36.3501H136.43V38.7001H136.49L137.49 37.7001L137.5 37.6901ZM133.81 38.8301V38.8901H136.16V38.6901H136.36V36.3401H136.3L133.82 38.8301H133.81ZM134.67 37.6901L134.25 37.2701L134.78 36.7401L135.2 37.1601L136.15 36.2101V36.1501H133.8V36.3501H133.6V38.7001H133.66L134.66 37.7001L134.67 37.6901ZM136.63 44.4701V44.5301H138.98V44.3301H139.17V41.9801H139.11L136.63 44.4601V44.4701ZM137.5 43.3301L137.08 42.9101L137.61 42.3801L138.03 42.8001L138.98 41.8501V41.7901H136.63V41.9901H136.43V44.3401H136.49L137.49 43.3401L137.5 43.3301ZM145.09 50.1101V50.1701H147.44V49.9801H147.64V47.6301H147.58L145.09 50.1101ZM145.96 48.9801L145.54 48.5601L146.07 48.0301L146.49 48.4501L147.44 47.5001V47.4401H145.09V47.6301H144.89V49.9801H144.95L145.95 48.9801H145.96ZM142.27 50.1101V50.1701H144.62V49.9801H144.82V47.6301H144.76L142.27 50.1101ZM143.14 48.9801L142.72 48.5601L143.25 48.0301L143.67 48.4501L144.62 47.5001V47.4401H142.27V47.6301H142.07V49.9801H142.13L143.13 48.9801H143.14ZM142.27 47.2901V47.3501H144.62V47.1601H144.82V44.8101H144.76L142.27 47.2901ZM143.14 46.1501L142.72 45.7301L143.25 45.2001L143.67 45.6201L144.62 44.6701V44.6101H142.27V44.8101H142.07V47.1601H142.13L143.13 46.1601L143.14 46.1501ZM145.09 52.9301V52.9901H147.44V52.8001H147.64V50.4501H147.58L145.09 52.9301ZM145.54 51.3801L146.07 50.8501L146.49 51.2701L147.44 50.3201V50.2601H145.09V50.4601H144.89V52.8101H144.95L145.95 51.8101L145.53 51.3901L145.54 51.3801ZM133.81 55.7601V55.8201H136.16V55.6301H136.36V53.2801H136.3L133.82 55.7601H133.81ZM134.25 54.2001L134.78 53.6701L135.2 54.0901L136.15 53.1401V53.0801H133.8V53.2801H133.6V55.6301H133.66L134.66 54.6301L134.24 54.2101L134.25 54.2001ZM142.27 36.0101V36.0701H144.62V35.8701H144.82V33.5201H144.76L142.27 36.0101ZM143.14 34.8701L142.72 34.4501L143.25 33.9201L143.67 34.3401L144.62 33.3901V33.3301H142.27V33.5201H142.07V35.8701H142.13L143.13 34.8701H143.14ZM139.45 44.4701V44.5301H141.8V44.3301H142V41.9801H141.94L139.46 44.4601L139.45 44.4701ZM140.32 43.3301L139.9 42.9101L140.43 42.3801L140.85 42.8001L141.8 41.8501V41.7901H139.45V41.9901H139.26V44.3401H139.32L140.32 43.3401V43.3301ZM139.45 47.2901V47.3501H141.8V47.1601H142V44.8101H141.94L139.46 47.2901H139.45ZM140.32 46.1501L139.9 45.7301L140.43 45.2001L140.85 45.6201L141.8 44.6701V44.6101H139.45V44.8101H139.26V47.1601H139.32L140.32 46.1601V46.1501ZM142.27 52.9301V52.9901H144.62V52.8001H144.82V50.4501H144.76L142.27 52.9301ZM143.14 51.8001L142.72 51.3801L143.25 50.8501L143.67 51.2701L144.62 50.3201V50.2601H142.27V50.4601H142.07V52.8101H142.13L143.13 51.8101L143.14 51.8001ZM142.27 55.7601V55.8201H144.62V55.6301H144.82V53.2801H144.76L142.27 55.7601ZM142.72 54.2001L143.25 53.6701L143.67 54.0901L144.62 53.1401V53.0801H142.27V53.2801H142.07V55.6301H142.13L143.13 54.6301L142.71 54.2101L142.72 54.2001ZM139.45 55.7601V55.8201H141.8V55.6301H142V53.2801H141.94L139.46 55.7601H139.45ZM139.9 54.2001L140.43 53.6701L140.85 54.0901L141.8 53.1401V53.0801H139.45V53.2801H139.26V55.6301H139.32L140.32 54.6301L139.9 54.2101V54.2001ZM136.63 55.7601V55.8201H138.98V55.6301H139.17V53.2801H139.11L136.63 55.7601ZM137.07 54.2001L137.6 53.6701L138.02 54.0901L138.97 53.1401V53.0801H136.62V53.2801H136.42V55.6301H136.48L137.48 54.6301L137.06 54.2101L137.07 54.2001Z" fill="#90BEFB"/>
<path d="M207.33 28.4L204.85 30.88V30.94H207.2V30.74H207.4V28.39H207.34L207.33 28.4ZM210.15 28.4L207.66 30.88V30.94H210.01V30.74H210.21V28.39H210.15V28.4ZM204.85 28.21V28.41H204.65V30.76H204.71L205.71 29.76L205.29 29.34L205.82 28.81L206.24 29.23L207.19 28.28V28.22H204.84L204.85 28.21ZM207.67 28.21V28.41H207.47V30.76H207.53L208.53 29.76L208.11 29.34L208.64 28.81L209.06 29.23L210.01 28.28V28.22H207.66L207.67 28.21ZM204.51 25.58L202.03 28.06V28.12H204.38V27.93H204.58V25.58H204.52H204.51ZM207.33 25.58L204.85 28.06V28.12H207.2V27.93H207.4V25.58H207.34H207.33ZM202.03 25.39V25.59H201.83V27.94H201.89L202.89 26.94L202.47 26.52L203 25.99L203.42 26.41L204.37 25.46V25.4H202.02L202.03 25.39ZM204.85 25.39V25.59H204.65V27.94H204.71L205.71 26.94L205.29 26.52L205.82 25.99L206.24 26.41L207.19 25.46V25.4H204.84L204.85 25.39ZM204.51 22.76L202.03 25.24V25.3H204.38V25.1H204.58V22.75H204.52L204.51 22.76ZM207.33 22.76L204.85 25.24V25.3H207.2V25.1H207.4V22.75H207.34L207.33 22.76ZM202.03 22.57V22.76H201.83V25.11H201.89L202.89 24.11L202.47 23.69L203 23.16L203.42 23.58L204.37 22.63V22.57H202.02H202.03ZM204.85 22.57V22.76H204.65V25.11H204.71L205.71 24.11L205.29 23.69L205.82 23.16L206.24 23.58L207.19 22.63V22.57H204.84H204.85ZM204.51 19.94L202.03 22.42V22.48H204.38V22.29H204.58V19.94H204.52H204.51ZM207.33 19.94L204.85 22.42V22.48H207.2V22.29H207.4V19.94H207.34H207.33ZM202.03 19.74V19.94H201.83V22.29H201.89L202.89 21.29L202.47 20.87L203 20.34L203.42 20.76L204.37 19.81V19.75H202.02L202.03 19.74ZM204.85 19.74V19.94H204.65V22.29H204.71L205.71 21.29L205.29 20.87L205.82 20.34L206.24 20.76L207.19 19.81V19.75H204.84L204.85 19.74ZM204.51 17.12L202.03 19.6V19.66H204.38V19.47H204.58V17.12H204.52H204.51ZM207.33 17.12L204.85 19.6V19.66H207.2V19.47H207.4V17.12H207.34H207.33ZM202.03 16.92V17.12H201.83V19.47H201.89L202.89 18.47L202.47 18.05L203 17.52L203.42 17.94L204.37 16.99V16.93H202.02L202.03 16.92ZM204.85 16.92V17.12H204.65V19.47H204.71L205.71 18.47L205.29 18.05L205.82 17.52L206.24 17.94L207.19 16.99V16.93H204.84L204.85 16.92ZM204.51 14.3L202.03 16.79V16.85H204.38V16.65H204.58V14.3H204.52H204.51ZM207.33 14.3L204.85 16.79V16.85H207.2V16.65H207.4V14.3H207.34H207.33ZM202.03 14.1V14.29H201.83V16.64H201.89L202.89 15.64L202.47 15.22L203 14.69L203.42 15.11L204.37 14.16V14.1H202.02H202.03ZM204.85 14.1V14.29H204.65V16.64H204.71L205.71 15.64L205.29 15.22L205.82 14.69L206.24 15.11L207.19 14.16V14.1H204.84H204.85ZM204.51 11.48L202.03 13.96V14.02H204.38V13.82H204.58V11.47H204.52L204.51 11.48ZM207.33 11.48L204.85 13.96V14.02H207.2V13.82H207.4V11.47H207.34L207.33 11.48ZM202.03 11.28V11.48H201.83V13.83H201.89L202.89 12.83L202.47 12.41L203 11.88L203.42 12.3L204.37 11.35V11.29H202.02L202.03 11.28ZM204.85 11.28V11.48H204.65V13.83H204.71L205.71 12.83L205.29 12.41L205.82 11.88L206.24 12.3L207.19 11.35V11.29H204.84L204.85 11.28ZM201.69 8.66L199.21 11.15V11.21H201.56V11.01H201.76V8.66H201.7H201.69ZM204.51 8.66L202.03 11.15V11.21H204.38V11.01H204.58V8.66H204.52H204.51ZM207.33 8.66L204.85 11.15V11.21H207.2V11.01H207.4V8.66H207.34H207.33ZM210.15 8.66L207.66 11.15V11.21H210.01V11.01H210.21V8.66H210.15ZM199.21 8.46V8.65H199.01V11H199.07L200.07 10L199.65 9.58L200.18 9.05L200.6 9.47L201.55 8.52V8.46H199.2H199.21ZM202.03 8.46V8.65H201.83V11H201.89L202.89 10L202.47 9.58L203 9.05L203.42 9.47L204.37 8.52V8.46H202.02H202.03ZM204.85 8.46V8.65H204.65V11H204.71L205.71 10L205.29 9.58L205.82 9.05L206.24 9.47L207.19 8.52V8.46H204.84H204.85ZM207.67 8.46V8.65H207.47V11H207.53L208.53 10L208.11 9.58L208.64 9.05L209.06 9.47L210.01 8.52V8.46H207.66H207.67ZM204.51 5.84L202.03 8.32V8.38H204.38V8.18H204.58V5.83H204.52L204.51 5.84ZM207.33 5.84L204.85 8.32V8.38H207.2V8.18H207.4V5.83H207.34L207.33 5.84ZM202.03 5.64V5.84H201.83V8.19H201.89L202.89 7.19L202.47 6.77L203 6.24L203.42 6.66L204.37 5.71V5.65H202.02L202.03 5.64ZM204.85 5.64V5.84H204.65V8.19H204.71L205.71 7.19L205.29 6.77L205.82 6.24L206.24 6.66L207.19 5.71V5.65H204.84L204.85 5.64ZM204.51 3.02L202.03 5.5V5.56H204.38V5.37H204.58V3.02H204.52H204.51ZM207.33 3.02L204.85 5.5V5.56H207.2V5.37H207.4V3.02H207.34H207.33ZM202.03 2.82V3.02H201.83V5.37H201.89L202.89 4.37L202.47 3.95L203 3.42L203.42 3.84L204.37 2.89V2.83H202.02L202.03 2.82ZM204.85 2.82V3.02H204.65V5.37H204.71L205.71 4.37L205.29 3.95L205.82 3.42L206.24 3.84L207.19 2.89V2.83H204.84L204.85 2.82ZM204.51 0.19L202.03 2.67V2.73H204.38V2.53H204.58V0.19H204.52H204.51ZM207.33 0.19L204.85 2.67V2.73H207.2V2.53H207.4V0.19H207.34H207.33ZM202.03 0V0.19H201.83V2.54H201.89L202.89 1.54L202.47 1.12L203 0.59L203.42 1.01L204.37 0.06V0H202.02L202.03 0ZM204.85 0V0.19H204.65V2.54H204.71L205.71 1.54L205.29 1.12L205.82 0.59L206.24 1.01L207.19 0.06V0H204.84L204.85 0Z" fill="#90BEFB"/>
<path d="M270.24 28.5304V28.5904H272.59V28.3904H272.79V26.0404H272.73L270.25 28.5204L270.24 28.5304ZM271.11 27.4004L270.69 26.9804L271.22 26.4504L271.64 26.8704L272.59 25.9204V25.8604H270.24V26.0604H270.04V28.4104H270.1L271.1 27.4104L271.11 27.4004ZM267.42 28.5304V28.5904H269.77V28.3904H269.96V26.0404H269.9L267.42 28.5204V28.5304ZM268.29 27.4004L267.87 26.9804L268.4 26.4504L268.82 26.8704L269.77 25.9204V25.8604H267.42V26.0604H267.23V28.4104H267.29L268.29 27.4104V27.4004ZM264.6 28.5304V28.5904H266.95V28.3904H267.15V26.0404H267.09L264.61 28.5204L264.6 28.5304ZM265.47 27.4004L265.05 26.9804L265.58 26.4504L266 26.8704L266.95 25.9204V25.8604H264.6V26.0604H264.4V28.4104H264.46L265.46 27.4104L265.47 27.4004ZM273.06 34.1804V34.2404H275.41V34.0504H275.61V31.7004H275.55L273.07 34.1804H273.06ZM273.93 33.0404L273.51 32.6203L274.04 32.0904L274.46 32.5103L275.41 31.5604V31.5004H273.06V31.7004H272.86V34.0504H272.92L273.92 33.0504L273.93 33.0404ZM264.6 34.1804V34.2404H266.95V34.0504H267.15V31.7004H267.09L264.61 34.1804H264.6ZM265.47 33.0404L265.05 32.6203L265.58 32.0904L266 32.5103L266.95 31.5604V31.5004H264.6V31.7004H264.4V34.0504H264.46L265.46 33.0504L265.47 33.0404ZM261.78 34.1804V34.2404H264.13V34.0504H264.33V31.7004H264.27L261.78 34.1804ZM262.65 33.0404L262.23 32.6203L262.77 32.0904L263.19 32.5103L264.14 31.5604V31.5004H261.79V31.7004H261.6V34.0504H261.66L262.66 33.0504L262.65 33.0404ZM275.55 28.8704L273.07 31.3504V31.4104H275.42V31.2104H275.62V28.8604H275.56L275.55 28.8704ZM273.93 30.2204L273.51 29.8004L274.04 29.2704L274.46 29.6904L275.41 28.7404V28.6804H273.06V28.8804H272.86V31.2304H272.92L273.92 30.2304L273.93 30.2204ZM264.6 31.3604V31.4204H266.95V31.2204H267.15V28.8704H267.09L264.61 31.3504L264.6 31.3604ZM265.47 30.2204L265.05 29.8004L265.58 29.2704L266 29.6904L266.95 28.7404V28.6804H264.6V28.8804H264.4V31.2304H264.46L265.46 30.2304L265.47 30.2204ZM261.78 31.3604V31.4204H264.13V31.2204H264.33V28.8704H264.27L261.78 31.3504V31.3604ZM262.65 30.2204L262.23 29.8004L262.77 29.2704L263.19 29.6904L264.14 28.7404V28.6804H261.79V28.8804H261.6V31.2304H261.66L262.66 30.2304L262.65 30.2204ZM270.24 37.0004V37.0604H272.59V36.8703H272.79V34.5204H272.73L270.25 37.0004H270.24ZM271.11 35.8604L270.69 35.4403L271.22 34.9104L271.64 35.3304L272.59 34.3804V34.3204H270.24V34.5204H270.04V36.8703H270.1L271.1 35.8703L271.11 35.8604ZM267.42 37.0004V37.0604H269.77V36.8703H269.96V34.5204H269.9L267.42 37.0004ZM268.29 35.8604L267.87 35.4403L268.4 34.9104L268.82 35.3304L269.77 34.3804V34.3204H267.42V34.5204H267.23V36.8703H267.29L268.29 35.8703V35.8604ZM264.6 37.0004V37.0604H266.95V36.8703H267.15V34.5204H267.09L264.61 37.0004H264.6ZM265.47 35.8604L265.05 35.4403L265.58 34.9104L266 35.3304L266.95 34.3804V34.3204H264.6V34.5204H264.4V36.8703H264.46L265.46 35.8703L265.47 35.8604ZM261.78 37.0004V37.0604H264.13V36.8703H264.33V34.5204H264.27L261.78 37.0004ZM262.65 35.8604L262.23 35.4403L262.77 34.9104L263.19 35.3304L264.14 34.3804V34.3204H261.79V34.5204H261.6V36.8703H261.66L262.66 35.8703L262.65 35.8604ZM264.6 42.6404V42.7004H266.95V42.5004H267.15V40.1504H267.09L264.61 42.6304L264.6 42.6404ZM265.47 41.5004L265.05 41.0804L265.58 40.5504L266 40.9704L266.95 40.0204V39.9604H264.6V40.1604H264.4V42.5103H264.46L265.46 41.5103L265.47 41.5004ZM261.78 42.6404V42.7004H264.13V42.5004H264.33V40.1504H264.27L261.78 42.6304V42.6404ZM262.65 41.5004L262.23 41.0804L262.77 40.5504L263.19 40.9704L264.14 40.0204V39.9604H261.79V40.1604H261.6V42.5103H261.66L262.66 41.5103L262.65 41.5004ZM264.6 39.8204V39.8804H266.95V39.6804H267.15V37.3304H267.09L264.61 39.8104L264.6 39.8204ZM265.47 38.6804L265.05 38.2603L265.58 37.7304L266 38.1504L266.95 37.2004V37.1404H264.6V37.3304H264.4V39.6804H264.46L265.46 38.6804H265.47ZM261.78 39.8204V39.8804H264.13V39.6804H264.33V37.3304H264.27L261.78 39.8104V39.8204ZM262.65 38.6804L262.23 38.2603L262.77 37.7304L263.19 38.1504L264.14 37.2004V37.1404H261.79V37.3304H261.6V39.6804H261.66L262.66 38.6804H262.65ZM264.6 45.4604V45.5204H266.95V45.3304H267.15V42.9804H267.09L264.61 45.4604H264.6ZM265.47 44.3204L265.05 43.9004L265.58 43.3703L266 43.7904L266.95 42.8404V42.7803H264.6V42.9704H264.4V45.3204H264.46L265.46 44.3204H265.47ZM261.78 45.4604V45.5204H264.13V45.3304H264.33V42.9804H264.27L261.78 45.4604ZM262.22 43.9004L262.76 43.3703L263.18 43.7904L264.13 42.8404V42.7803H261.78V42.9704H261.59V45.3204H261.65L262.65 44.3204L262.23 43.9004H262.22ZM270.24 48.2803V48.3404H272.59V48.1504H272.79V45.8004H272.73L270.25 48.2803H270.24ZM270.69 46.7204L271.22 46.1903L271.64 46.6104L272.59 45.6604V45.6003H270.24V45.7904H270.04V48.1404H270.1L271.1 47.1404L270.68 46.7204H270.69ZM267.42 48.2803V48.3404H269.77V48.1504H269.96V45.8004H269.9L267.42 48.2803ZM267.87 46.7204L268.4 46.1903L268.82 46.6104L269.77 45.6604V45.6003H267.42V45.7904H267.23V48.1404H267.29L268.29 47.1404L267.87 46.7204ZM264.6 48.2803V48.3404H266.95V48.1504H267.15V45.8004H267.09L264.61 48.2803H264.6ZM265.05 46.7204L265.58 46.1903L266 46.6104L266.95 45.6604V45.6003H264.6V45.7904H264.4V48.1404H264.46L265.46 47.1404L265.04 46.7204H265.05ZM273.06 48.2803V48.3404H275.41V48.1504H275.61V45.8004H275.55L273.07 48.2803H273.06ZM273.51 46.7204L274.04 46.1903L274.46 46.6104L275.41 45.6604V45.6003H273.06V45.7904H272.86V48.1404H272.92L273.92 47.1404L273.5 46.7204H273.51ZM273.06 37.0004V37.0604H275.41V36.8703H275.61V34.5204H275.55L273.07 37.0004H273.06ZM273.93 35.8604L273.51 35.4403L274.04 34.9104L274.46 35.3304L275.41 34.3804V34.3204H273.06V34.5204H272.86V36.8703H272.92L273.92 35.8703L273.93 35.8604Z" fill="#90BEFB"/>
<path d="M395.39 27.5999V27.6599H397.74V27.4599H397.94V25.1099H397.88L395.4 27.5899L395.39 27.5999ZM396.26 26.4599L395.84 26.0399L396.37 25.5099L396.79 25.9299L397.74 24.9799V24.9199H395.39V25.1099H395.19V27.4599H395.25L396.25 26.4599H396.26ZM392.57 27.5999V27.6599H394.92V27.4599H395.12V25.1099H395.06L392.58 27.5899L392.57 27.5999ZM393.44 26.4599L393.02 26.0399L393.55 25.5099L393.97 25.9299L394.92 24.9799V24.9199H392.57V25.1099H392.37V27.4599H392.43L393.43 26.4599H393.44ZM395.39 33.2399V33.2999H397.74V33.0999H397.94V30.7499H397.88L395.4 33.2299L395.39 33.2399ZM396.26 32.0999L395.84 31.6799L396.37 31.1499L396.79 31.5699L397.74 30.6199V30.5599H395.39V30.7599H395.19V33.1099H395.25L396.25 32.1099L396.26 32.0999ZM392.57 33.2399V33.2999H394.92V33.0999H395.12V30.7499H395.06L392.58 33.2299L392.57 33.2399ZM393.44 32.0999L393.02 31.6799L393.55 31.1499L393.97 31.5699L394.92 30.6199V30.5599H392.57V30.7599H392.37V33.1099H392.43L393.43 32.1099L393.44 32.0999ZM395.39 30.4199V30.4799H397.74V30.2799H397.94V27.9299H397.88L395.4 30.4099L395.39 30.4199ZM396.26 29.2799L395.84 28.8599L396.37 28.3299L396.79 28.7499L397.74 27.7999V27.7399H395.39V27.9399H395.19V30.2899H395.25L396.25 29.2899L396.26 29.2799ZM392.57 30.4199V30.4799H394.92V30.2799H395.12V27.9299H395.06L392.58 30.4099L392.57 30.4199ZM393.44 29.2799L393.02 28.8599L393.55 28.3299L393.97 28.7499L394.92 27.7999V27.7399H392.57V27.9399H392.37V30.2899H392.43L393.43 29.2899L393.44 29.2799ZM395.39 36.0599V36.1199H397.74V35.9199H397.94V33.5699H397.88L395.4 36.0499L395.39 36.0599ZM396.26 34.9199L395.84 34.4999L396.37 33.9699L396.79 34.3899L397.74 33.4399V33.3799H395.39V33.5799H395.19V35.9299H395.25L396.25 34.9299L396.26 34.9199ZM392.57 36.0599V36.1199H394.92V35.9199H395.12V33.5699H395.06L392.58 36.0499L392.57 36.0599ZM393.44 34.9199L393.02 34.4999L393.55 33.9699L393.97 34.3899L394.92 33.4399V33.3799H392.57V33.5799H392.37V35.9299H392.43L393.43 34.9299L393.44 34.9199ZM395.39 41.6999V41.7599H397.74V41.5599H397.94V39.2099H397.88L395.4 41.6899L395.39 41.6999ZM396.26 40.5599L395.84 40.1399L396.37 39.6099L396.79 40.0299L397.74 39.0799V39.0199H395.39V39.2199H395.19V41.5699H395.25L396.25 40.5699L396.26 40.5599ZM392.57 41.6999V41.7599H394.92V41.5599H395.12V39.2099H395.06L392.58 41.6899L392.57 41.6999ZM393.44 40.5599L393.02 40.1399L393.55 39.6099L393.97 40.0299L394.92 39.0799V39.0199H392.57V39.2199H392.37V41.5699H392.43L393.43 40.5699L393.44 40.5599ZM395.39 38.8799V38.9399H397.74V38.7399H397.94V36.3899H397.88L395.4 38.8799H395.39ZM396.26 37.7399L395.84 37.3199L396.37 36.7899L396.79 37.2099L397.74 36.2599V36.1999H395.39V36.3999H395.19V38.7499H395.25L396.25 37.7499L396.26 37.7399ZM392.57 38.8799V38.9399H394.92V38.7399H395.12V36.3899H395.06L392.58 38.8799H392.57ZM393.44 37.7399L393.02 37.3199L393.55 36.7899L393.97 37.2099L394.92 36.2599V36.1999H392.57V36.3999H392.37V38.7499H392.43L393.43 37.7499L393.44 37.7399ZM395.39 44.5199V44.5799H397.74V44.3799H397.94V42.0299H397.88L395.4 44.5099L395.39 44.5199ZM396.26 43.3799L395.84 42.9599L396.37 42.4299L396.79 42.8499L397.74 41.8999V41.8399H395.39V42.0399H395.19V44.3899H395.25L396.25 43.3899L396.26 43.3799ZM392.57 44.5199V44.5799H394.92V44.3799H395.12V42.0299H395.06L392.58 44.5099L392.57 44.5199ZM393.44 43.3799L393.02 42.9599L393.55 42.4299L393.97 42.8499L394.92 41.8999V41.8399H392.57V42.0399H392.37V44.3899H392.43L393.43 43.3899L393.44 43.3799ZM395.39 47.3399V47.3999H397.74V47.2099H397.94V44.8599H397.88L395.4 47.3399H395.39ZM396.26 46.1999L395.84 45.7799L396.37 45.2499L396.79 45.6699L397.74 44.7199V44.6599H395.39V44.8599H395.19V47.2099H395.25L396.25 46.2099L396.26 46.1999ZM392.57 47.3399V47.3999H394.92V47.2099H395.12V44.8599H395.06L392.58 47.3399H392.57ZM393.44 46.1999L393.02 45.7799L393.55 45.2499L393.97 45.6699L394.92 44.7199V44.6599H392.57V44.8599H392.37V47.2099H392.43L393.43 46.2099L393.44 46.1999ZM406.34 27.9299L403.86 30.4099V30.4699H406.21V30.2699H406.41V27.9199H406.35L406.34 27.9299ZM404.72 29.2799L404.3 28.8599L404.83 28.3299L405.25 28.7499L406.2 27.7999V27.7399H403.85V27.9399H403.65V30.2899H403.71L404.71 29.2899L404.72 29.2799ZM403.86 44.5199V44.5799H406.21V44.3799H406.41V42.0299H406.35L403.87 44.5099L403.86 44.5199ZM404.3 42.9599L404.83 42.4299L405.25 42.8499L406.2 41.8999V41.8399H403.85V42.0399H403.65V44.3899H403.71L404.71 43.3899L404.29 42.9699L404.3 42.9599ZM401.04 27.5999V27.6599H403.39V27.4599H403.59V25.1099H403.53L401.05 27.5899L401.04 27.5999ZM401.9 26.4599L401.48 26.0399L402.01 25.5099L402.43 25.9299L403.38 24.9799V24.9199H401.03V25.1099H400.83V27.4599H400.89L401.89 26.4599H401.9ZM401.04 30.4199V30.4799H403.39V30.2799H403.59V27.9299H403.53L401.05 30.4099L401.04 30.4199ZM401.9 29.2799L401.48 28.8599L402.01 28.3299L402.43 28.7499L403.38 27.7999V27.7399H401.03V27.9399H400.83V30.2899H400.89L401.89 29.2899L401.9 29.2799ZM401.04 44.5199V44.5799H403.39V44.3799H403.59V42.0299H403.53L401.05 44.5099L401.04 44.5199ZM401.9 43.3799L401.48 42.9599L402.01 42.4299L402.43 42.8499L403.38 41.8999V41.8399H401.03V42.0399H400.83V44.3899H400.89L401.89 43.3899L401.9 43.3799ZM401.04 47.3399V47.3999H403.39V47.2099H403.59V44.8599H403.53L401.05 47.3399H401.04ZM401.48 45.7799L402.01 45.2499L402.43 45.6699L403.38 44.7199V44.6599H401.03V44.8599H400.83V47.2099H400.89L401.89 46.2099L401.47 45.7899L401.48 45.7799ZM398.22 27.5999V27.6599H400.57V27.4599H400.77V25.1099H400.71L398.23 27.5899L398.22 27.5999ZM399.08 26.4599L398.66 26.0399L399.19 25.5099L399.61 25.9299L400.56 24.9799V24.9199H398.21V25.1099H398.01V27.4599H398.07L399.07 26.4599H399.08ZM403.86 33.2399V33.2999H406.21V33.0999H406.41V30.7499H406.35L403.87 33.2299L403.86 33.2399ZM404.72 32.0999L404.3 31.6799L404.83 31.1499L405.25 31.5699L406.2 30.6199V30.5599H403.85V30.7599H403.65V33.1099H403.71L404.71 32.1099L404.72 32.0999ZM403.86 36.0599V36.1199H406.21V35.9199H406.41V33.5699H406.35L403.87 36.0499L403.86 36.0599ZM404.72 34.9199L404.3 34.4999L404.83 33.9699L405.25 34.3899L406.2 33.4399V33.3799H403.85V33.5799H403.65V35.9299H403.71L404.71 34.9299L404.72 34.9199ZM403.86 41.6999V41.7599H406.21V41.5599H406.41V39.2099H406.35L403.87 41.6899L403.86 41.6999ZM404.72 40.5599L404.3 40.1399L404.83 39.6099L405.25 40.0299L406.2 39.0799V39.0199H403.85V39.2199H403.65V41.5699H403.71L404.71 40.5699L404.72 40.5599ZM403.86 38.8799V38.9399H406.21V38.7399H406.41V36.3899H406.35L403.87 38.8799H403.86ZM404.72 37.7399L404.3 37.3199L404.83 36.7899L405.25 37.2099L406.2 36.2599V36.1999H403.85V36.3999H403.65V38.7499H403.71L404.71 37.7499L404.72 37.7399ZM395.39 50.1599V50.2199H397.74V50.0299H397.94V47.6799H397.88L395.4 50.1599H395.39ZM396.26 49.0199L395.84 48.5999L396.37 48.0699L396.79 48.4899L397.74 47.5399V47.4799H395.39V47.6799H395.19V50.0299H395.25L396.25 49.0299L396.26 49.0199ZM392.57 50.1599V50.2199H394.92V50.0299H395.12V47.6799H395.06L392.58 50.1599H392.57ZM393.44 49.0199L393.02 48.5999L393.55 48.0699L393.97 48.4899L394.92 47.5399V47.4799H392.57V47.6799H392.37V50.0299H392.43L393.43 49.0299L393.44 49.0199ZM398.22 47.3399V47.3999H400.57V47.2099H400.77V44.8599H400.71L398.23 47.3399H398.22ZM398.66 45.7799L399.19 45.2499L399.61 45.6699L400.56 44.7199V44.6599H398.21V44.8599H398.01V47.2099H398.07L399.07 46.2099L398.65 45.7899L398.66 45.7799ZM395.39 55.7999V55.8599H397.74V55.6599H397.94V53.3099H397.88L395.4 55.7899L395.39 55.7999ZM395.84 54.2399L396.37 53.7099L396.79 54.1299L397.74 53.1799V53.1199H395.39V53.3199H395.19V55.6699H395.25L396.25 54.6699L395.83 54.2499L395.84 54.2399ZM392.57 55.7999V55.8599H394.92V55.6599H395.12V53.3099H395.06L392.58 55.7899L392.57 55.7999ZM393.02 54.2399L393.55 53.7099L393.97 54.1299L394.92 53.1799V53.1199H392.57V53.3199H392.37V55.6699H392.43L393.43 54.6699L393.01 54.2499L393.02 54.2399ZM395.39 52.9799V53.0399H397.74V52.8499H397.94V50.4999H397.88L395.4 52.9799H395.39ZM396.26 51.8399L395.84 51.4199L396.37 50.8899L396.79 51.3099L397.74 50.3599V50.2999H395.39V50.4999H395.19V52.8499H395.25L396.25 51.8499L396.26 51.8399ZM392.57 52.9799V53.0399H394.92V52.8499H395.12V50.4999H395.06L392.58 52.9799H392.57ZM393.44 51.8399L393.02 51.4199L393.55 50.8899L393.97 51.3099L394.92 50.3599V50.2999H392.57V50.4999H392.37V52.8499H392.43L393.43 51.8499L393.44 51.8399Z" fill="#90BEFB"/>
<path d="M463.61 51.9202V51.9802H465.96V51.7902H466.16V49.4402H466.1L463.61 51.9302V51.9202ZM464.48 50.7802L464.06 50.3602L464.59 49.8302L465.01 50.2502L465.96 49.3002V49.2402H463.61V49.4402H463.41V51.7902H463.47L464.47 50.7902L464.48 50.7802ZM460.79 51.9202V51.9802H463.14V51.7902H463.34V49.4402H463.28L460.8 51.9302L460.79 51.9202ZM461.66 50.7802L461.24 50.3602L461.78 49.8302L462.2 50.2502L463.15 49.3002V49.2402H460.8V49.4402H460.6V51.7902H460.66L461.66 50.7902V50.7802ZM463.61 60.3802V60.4402H465.96V60.2402H466.16V57.8902H466.1L463.61 60.3702V60.3802ZM464.48 59.2402L464.06 58.8202L464.59 58.2902L465.01 58.7102L465.96 57.7602V57.7002H463.61V57.8902H463.41V60.2402H463.47L464.47 59.2402H464.48ZM460.79 60.3802V60.4402H463.14V60.2402H463.34V57.8902H463.28L460.8 60.3702L460.79 60.3802ZM461.66 59.2402L461.24 58.8202L461.78 58.2902L462.2 58.7102L463.15 57.7602V57.7002H460.8V57.8902H460.6V60.2402H460.66L461.66 59.2402ZM457.97 60.3802V60.4402H460.32V60.2402H460.52V57.8902H460.46L457.98 60.3702L457.97 60.3802ZM458.84 59.2402L458.42 58.8202L458.95 58.2902L459.37 58.7102L460.32 57.7602V57.7002H457.97V57.8902H457.77V60.2402H457.83L458.83 59.2402H458.84ZM463.61 54.7402V54.8002H465.96V54.6002H466.16V52.2502H466.1L463.61 54.7302V54.7402ZM464.48 53.6002L464.06 53.1802L464.59 52.6502L465.01 53.0702L465.96 52.1202V52.0602H463.61V52.2502H463.41V54.6002H463.47L464.47 53.6002H464.48ZM460.79 54.7402V54.8002H463.14V54.6002H463.34V52.2502H463.28L460.8 54.7302L460.79 54.7402ZM461.66 53.6002L461.24 53.1802L461.78 52.6502L462.2 53.0702L463.15 52.1202V52.0602H460.8V52.2502H460.6V54.6002H460.66L461.66 53.6002ZM463.61 66.0202V66.0802H465.96V65.8802H466.16V63.5302H466.1L463.61 66.0202ZM464.48 64.8802L464.06 64.4602L464.59 63.9302L465.01 64.3502L465.96 63.4002V63.3402H463.61V63.5402H463.41V65.8902H463.47L464.47 64.8902L464.48 64.8802ZM460.79 66.0202V66.0802H463.14V65.8802H463.34V63.5302H463.28L460.8 66.0202H460.79ZM461.66 64.8802L461.24 64.4602L461.78 63.9302L462.2 64.3502L463.15 63.4002V63.3402H460.8V63.5402H460.6V65.8902H460.66L461.66 64.8902V64.8802ZM463.61 63.2002V63.2602H465.96V63.0602H466.16V60.7102H466.1L463.61 63.2002ZM464.48 62.0602L464.06 61.6402L464.59 61.1102L465.01 61.5302L465.96 60.5802V60.5202H463.61V60.7102H463.41V63.0602H463.47L464.47 62.0602H464.48ZM460.79 63.2002V63.2602H463.14V63.0602H463.34V60.7102H463.28L460.8 63.2002H460.79ZM461.66 62.0602L461.24 61.6402L461.78 61.1102L462.2 61.5302L463.15 60.5802V60.5202H460.8V60.7102H460.6V63.0602H460.66L461.66 62.0602ZM463.61 68.8402V68.9002H465.96V68.7002H466.16V66.3502H466.1L463.61 68.8302V68.8402ZM464.48 67.7002L464.06 67.2802L464.59 66.7502L465.01 67.1702L465.96 66.2202V66.1602H463.61V66.3602H463.41V68.7102H463.47L464.47 67.7102L464.48 67.7002ZM460.79 68.8402V68.9002H463.14V68.7002H463.34V66.3502H463.28L460.8 68.8302L460.79 68.8402ZM461.66 67.7002L461.24 67.2802L461.78 66.7502L462.2 67.1702L463.15 66.2202V66.1602H460.8V66.3602H460.6V68.7102H460.66L461.66 67.7102V67.7002ZM463.61 74.4802V74.5402H465.96V74.3502H466.16V72.0002H466.1L463.61 74.4802ZM464.48 73.3402L464.06 72.9202L464.59 72.3902L465.01 72.8102L465.96 71.8602V71.8002H463.61V72.0002H463.41V74.3502H463.47L464.47 73.3502L464.48 73.3402ZM460.79 74.4802V74.5402H463.14V74.3502H463.34V72.0002H463.28L460.8 74.4802H460.79ZM461.66 73.3402L461.24 72.9202L461.78 72.3902L462.2 72.8102L463.15 71.8602V71.8002H460.8V72.0002H460.6V74.3502H460.66L461.66 73.3502V73.3402ZM463.61 71.6602V71.7202H465.96V71.5202H466.16V69.1702H466.1L463.61 71.6602ZM464.48 70.5202L464.06 70.1002L464.59 69.5702L465.01 69.9902L465.96 69.0402V68.9802H463.61V69.1702H463.41V71.5202H463.47L464.47 70.5202H464.48ZM460.79 71.6602V71.7202H463.14V71.5202H463.34V69.1702H463.28L460.8 71.6602H460.79ZM461.66 70.5202L461.24 70.1002L461.78 69.5702L462.2 69.9902L463.15 69.0402V68.9802H460.8V69.1702H460.6V71.5202H460.66L461.66 70.5202ZM463.61 77.3002V77.3602H465.96V77.1602H466.16V74.8102H466.1L463.61 77.2902V77.3002ZM464.48 76.1602L464.06 75.7402L464.59 75.2102L465.01 75.6302L465.96 74.6802V74.6202H463.61V74.8102H463.41V77.1602H463.47L464.47 76.1602H464.48ZM460.79 77.3002V77.3602H463.14V77.1602H463.34V74.8102H463.28L460.8 77.2902L460.79 77.3002ZM461.66 76.1602L461.24 75.7402L461.78 75.2102L462.2 75.6302L463.15 74.6802V74.6202H460.8V74.8102H460.6V77.1602H460.66L461.66 76.1602ZM468.92 77.6402L466.44 80.1202V80.1802H468.79V79.9802H468.99V77.6302H468.93L468.92 77.6402ZM466.88 78.5602L467.41 78.0302L467.83 78.4502L468.78 77.5002V77.4402H466.43V77.6402H466.23V79.9902H466.29L467.29 78.9902L466.87 78.5702L466.88 78.5602ZM463.61 80.1202V80.1802H465.96V79.9802H466.16V77.6302H466.1L463.61 80.1102V80.1202ZM464.06 78.5602L464.59 78.0302L465.01 78.4502L465.96 77.5002V77.4402H463.61V77.6402H463.41V79.9902H463.47L464.47 78.9902L464.05 78.5702L464.06 78.5602ZM460.79 80.1202V80.1802H463.14V79.9802H463.34V77.6302H463.28L460.8 80.1102L460.79 80.1202ZM461.24 78.5602L461.78 78.0302L462.2 78.4502L463.15 77.5002V77.4402H460.8V77.6402H460.6V79.9902H460.66L461.66 78.9902L461.24 78.5702V78.5602ZM457.97 80.1202V80.1802H460.32V79.9802H460.52V77.6302H460.46L457.98 80.1102L457.97 80.1202ZM458.42 78.5602L458.95 78.0302L459.37 78.4502L460.32 77.5002V77.4402H457.97V77.6402H457.77V79.9902H457.83L458.83 78.9902L458.41 78.5702L458.42 78.5602Z" fill="#90BEFB"/>
<path d="M525.85 102.27L523.37 104.76V104.82H525.72V104.62H525.92V102.27H525.86H525.85ZM528.67 102.27L526.19 104.76V104.82H528.54V104.62H528.74V102.27H528.68H528.67ZM531.49 102.27L529.01 104.76V104.82H531.36V104.62H531.56V102.27H531.5H531.49ZM534.31 102.27L531.83 104.76V104.82H534.18V104.62H534.38V102.27H534.32H534.31ZM523.37 102.07V102.26H523.17V104.61H523.23L524.23 103.61L523.81 103.19L524.34 102.66L524.76 103.08L525.71 102.13V102.07H523.36H523.37ZM526.19 102.07V102.26H525.99V104.61H526.05L527.05 103.61L526.63 103.19L527.16 102.66L527.58 103.08L528.53 102.13V102.07H526.18H526.19ZM529.01 102.07V102.26H528.81V104.61H528.87L529.87 103.61L529.45 103.19L529.98 102.66L530.4 103.08L531.35 102.13V102.07H529H529.01ZM531.83 102.07V102.26H531.63V104.61H531.69L532.69 103.61L532.27 103.19L532.8 102.66L533.22 103.08L534.17 102.13V102.07H531.82H531.83ZM523.03 99.4503L520.55 101.93V101.99H522.9V101.79H523.1V99.4403H523.04L523.03 99.4503ZM525.85 99.4503L523.37 101.93V101.99H525.72V101.79H525.92V99.4403H525.86L525.85 99.4503ZM520.54 99.2503V99.4503H520.34V101.8H520.4L521.4 100.8L520.98 100.38L521.51 99.8503L521.93 100.27L522.88 99.3203V99.2603H520.53L520.54 99.2503ZM523.37 99.2503V99.4503H523.17V101.8H523.23L524.23 100.8L523.81 100.38L524.34 99.8503L524.76 100.27L525.71 99.3203V99.2603H523.36L523.37 99.2503ZM523.03 96.6203L520.55 99.1003V99.1603H522.9V98.9603H523.1V96.6103H523.04L523.03 96.6203ZM525.85 96.6203L523.37 99.1003V99.1603H525.72V98.9603H525.92V96.6103H525.86L525.85 96.6203ZM520.54 96.4303V96.6303H520.34V98.9803H520.4L521.4 97.9803L520.98 97.5603L521.51 97.0303L521.93 97.4503L522.88 96.5003V96.4403H520.53L520.54 96.4303ZM523.37 96.4303V96.6303H523.17V98.9803H523.23L524.23 97.9803L523.81 97.5603L524.34 97.0303L524.76 97.4503L525.71 96.5003V96.4403H523.36L523.37 96.4303ZM523.03 93.8003L520.55 96.2803V96.3403H522.9V96.1403H523.1V93.7903H523.04L523.03 93.8003ZM525.85 93.8003L523.37 96.2803V96.3403H525.72V96.1403H525.92V93.7903H525.86L525.85 93.8003ZM520.54 93.6103V93.8003H520.34V96.1503H520.4L521.4 95.1503L520.98 94.7303L521.51 94.2003L521.93 94.6203L522.88 93.6703V93.6103H520.53H520.54ZM523.37 93.6103V93.8003H523.17V96.1503H523.23L524.23 95.1503L523.81 94.7303L524.34 94.2003L524.76 94.6203L525.71 93.6703V93.6103H523.36H523.37ZM523.03 90.9803L520.55 93.4603V93.5203H522.9V93.3203H523.1V90.9703H523.04L523.03 90.9803ZM525.85 90.9803L523.37 93.4603V93.5203H525.72V93.3203H525.92V90.9703H525.86L525.85 90.9803ZM528.67 90.9803L526.19 93.4603V93.5203H528.54V93.3203H528.74V90.9703H528.68L528.67 90.9803ZM531.49 90.9803L529.01 93.4603V93.5203H531.36V93.3203H531.56V90.9703H531.5L531.49 90.9803ZM534.31 90.9803L531.83 93.4603V93.5203H534.18V93.3203H534.38V90.9703H534.32L534.31 90.9803ZM520.54 90.7903V90.9803H520.34V93.3303H520.4L521.4 92.3303L520.98 91.9103L521.51 91.3803L521.93 91.8003L522.88 90.8503V90.7903H520.53H520.54ZM523.37 90.7903V90.9803H523.17V93.3303H523.23L524.23 92.3303L523.81 91.9103L524.34 91.3803L524.76 91.8003L525.71 90.8503V90.7903H523.36H523.37ZM526.19 90.7903V90.9803H525.99V93.3303H526.05L527.05 92.3303L526.63 91.9103L527.16 91.3803L527.58 91.8003L528.53 90.8503V90.7903H526.18H526.19ZM529.01 90.7903V90.9803H528.81V93.3303H528.87L529.87 92.3303L529.45 91.9103L529.98 91.3803L530.4 91.8003L531.35 90.8503V90.7903H529H529.01ZM531.83 90.7903V90.9803H531.63V93.3303H531.69L532.69 92.3303L532.27 91.9103L532.8 91.3803L533.22 91.8003L534.17 90.8503V90.7903H531.82H531.83ZM523.03 88.1603L520.55 90.6403V90.7003H522.9V90.5003H523.1V88.1503H523.04L523.03 88.1603ZM525.85 88.1603L523.37 90.6403V90.7003H525.72V90.5003H525.92V88.1503H525.86L525.85 88.1603ZM534.31 88.1603L531.83 90.6403V90.7003H534.18V90.5003H534.38V88.1503H534.32L534.31 88.1603ZM520.54 87.9703V88.1703H520.34V90.5203H520.4L521.4 89.5203L520.98 89.1003L521.51 88.5703L521.93 88.9903L522.88 88.0403V87.9803H520.53L520.54 87.9703ZM523.37 87.9703V88.1703H523.17V90.5203H523.23L524.23 89.5203L523.81 89.1003L524.34 88.5703L524.76 88.9903L525.71 88.0403V87.9803H523.36L523.37 87.9703ZM531.83 87.9703V88.1703H531.63V90.5203H531.69L532.69 89.5203L532.27 89.1003L532.8 88.5703L533.22 88.9903L534.17 88.0403V87.9803H531.82L531.83 87.9703ZM523.03 85.3403L520.55 87.8203V87.8803H522.9V87.6903H523.1V85.3403H523.04H523.03ZM525.85 85.3403L523.37 87.8203V87.8803H525.72V87.6903H525.92V85.3403H525.86H525.85ZM534.31 85.3403L531.83 87.8203V87.8803H534.18V87.6903H534.38V85.3403H534.32H534.31ZM520.54 85.1503V85.3503H520.34V87.7003H520.4L521.4 86.7003L520.98 86.2803L521.51 85.7503L521.93 86.1703L522.88 85.2203V85.1603H520.53L520.54 85.1503ZM523.37 85.1503V85.3503H523.17V87.7003H523.23L524.23 86.7003L523.81 86.2803L524.34 85.7503L524.76 86.1703L525.71 85.2203V85.1603H523.36L523.37 85.1503ZM531.83 85.1503V85.3503H531.63V87.7003H531.69L532.69 86.7003L532.27 86.2803L532.8 85.7503L533.22 86.1703L534.17 85.2203V85.1603H531.82L531.83 85.1503ZM525.85 82.5203L523.37 85.0003V85.0603H525.72V84.8603H525.92V82.5103H525.86L525.85 82.5203ZM528.67 82.5203L526.19 85.0003V85.0603H528.54V84.8603H528.74V82.5103H528.68L528.67 82.5203ZM531.49 82.5203L529.01 85.0003V85.0603H531.36V84.8603H531.56V82.5103H531.5L531.49 82.5203ZM523.37 82.3203V82.5203H523.17V84.8703H523.23L524.23 83.8703L523.81 83.4503L524.34 82.9203L524.76 83.3403L525.71 82.3903V82.3303H523.36L523.37 82.3203ZM526.19 82.3203V82.5203H525.99V84.8703H526.05L527.05 83.8703L526.63 83.4503L527.16 82.9203L527.58 83.3403L528.53 82.3903V82.3303H526.18L526.19 82.3203ZM529.01 82.3203V82.5203H528.81V84.8703H528.87L529.87 83.8703L529.45 83.4503L529.98 82.9203L530.4 83.3403L531.35 82.3903V82.3303H529L529.01 82.3203Z" fill="#90BEFB"/>
<path d="M596.89 72.0201L594.41 74.5101V74.5701H596.76V74.3701H596.96V72.0201H596.9H596.89ZM595.27 73.3701L594.85 72.9501L595.38 72.4201L595.8 72.8401L596.75 71.8901V71.8301H594.4V72.0201H594.2V74.3701H594.26L595.26 73.3701H595.27ZM591.58 74.5101V74.5701H593.93V74.3701H594.13V72.0201H594.07L591.59 74.5101H591.58ZM592.45 73.3701L592.03 72.9501L592.56 72.4201L592.98 72.8401L593.93 71.8901V71.8301H591.58V72.0201H591.38V74.3701H591.44L592.44 73.3701H592.45ZM588.76 74.5101V74.5701H591.11V74.3701H591.31V72.0201H591.25L588.77 74.5101H588.76ZM589.63 73.3701L589.21 72.9501L589.74 72.4201L590.16 72.8401L591.11 71.8901V71.8301H588.76V72.0201H588.56V74.3701H588.62L589.62 73.3701H589.63ZM588.76 80.1501V80.2101H591.11V80.0101H591.31V77.6601H591.25L588.77 80.1501H588.76ZM589.63 79.0101L589.21 78.5901L589.74 78.0601L590.16 78.4801L591.11 77.5301V77.4701H588.76V77.6701H588.56V80.0201H588.62L589.62 79.0201L589.63 79.0101ZM585.94 80.1501V80.2101H588.29V80.0101H588.49V77.6601H588.43L585.95 80.1501H585.94ZM586.81 79.0101L586.39 78.5901L586.92 78.0601L587.34 78.4801L588.29 77.5301V77.4701H585.94V77.6701H585.74V80.0201H585.8L586.8 79.0201L586.81 79.0101ZM588.76 77.3301V77.3901H591.11V77.1901H591.31V74.8401H591.25L588.77 77.3301H588.76ZM589.63 76.1901L589.21 75.7701L589.74 75.2401L590.16 75.6601L591.11 74.7101V74.6501H588.76V74.8401H588.56V77.1901H588.62L589.62 76.1901H589.63ZM585.94 77.3301V77.3901H588.29V77.1901H588.49V74.8401H588.43L585.95 77.3301H585.94ZM586.81 76.1901L586.39 75.7701L586.92 75.2401L587.34 75.6601L588.29 74.7101V74.6501H585.94V74.8401H585.74V77.1901H585.8L586.8 76.1901H586.81ZM588.76 82.9701V83.0301H591.11V82.8301H591.31V80.4801H591.25L588.77 82.9601L588.76 82.9701ZM589.63 81.8301L589.21 81.4101L589.74 80.8801L590.16 81.3001L591.11 80.3501V80.2901H588.76V80.4901H588.56V82.8401H588.62L589.62 81.8401L589.63 81.8301ZM585.94 82.9701V83.0301H588.29V82.8301H588.49V80.4801H588.43L585.95 82.9601L585.94 82.9701ZM586.81 81.8301L586.39 81.4101L586.92 80.8801L587.34 81.3001L588.29 80.3501V80.2901H585.94V80.4901H585.74V82.8401H585.8L586.8 81.8401L586.81 81.8301ZM588.76 88.6101V88.6701H591.11V88.4801H591.31V86.1301H591.25L588.77 88.6101H588.76ZM589.63 87.4701L589.21 87.0501L589.74 86.5201L590.16 86.9401L591.11 85.9901V85.9301H588.76V86.1301H588.56V88.4801H588.62L589.62 87.4801L589.63 87.4701ZM585.94 88.6101V88.6701H588.29V88.4801H588.49V86.1301H588.43L585.95 88.6101H585.94ZM586.81 87.4701L586.39 87.0501L586.92 86.5201L587.34 86.9401L588.29 85.9901V85.9301H585.94V86.1301H585.74V88.4801H585.8L586.8 87.4801L586.81 87.4701ZM588.76 85.7901V85.8501H591.11V85.6501H591.31V83.3001H591.25L588.77 85.7901H588.76ZM589.63 84.6501L589.21 84.2301L589.74 83.7001L590.16 84.1201L591.11 83.1701V83.1101H588.76V83.3001H588.56V85.6501H588.62L589.62 84.6501H589.63ZM585.94 85.7901V85.8501H588.29V85.6501H588.49V83.3001H588.43L585.95 85.7901H585.94ZM586.81 84.6501L586.39 84.2301L586.92 83.7001L587.34 84.1201L588.29 83.1701V83.1101H585.94V83.3001H585.74V85.6501H585.8L586.8 84.6501H586.81ZM588.76 91.4301V91.4901H591.11V91.3001H591.31V88.9501H591.25L588.77 91.4301H588.76ZM589.63 90.3001L589.21 89.8801L589.74 89.3401L590.16 89.7601L591.11 88.8101V88.7501H588.76V88.9501H588.56V91.3001H588.62L589.62 90.3001H589.63ZM585.94 91.4301V91.4901H588.29V91.3001H588.49V88.9501H588.43L585.95 91.4301H585.94ZM586.39 89.8801L586.92 89.3401L587.34 89.7601L588.29 88.8101V88.7501H585.94V88.9501H585.74V91.3001H585.8L586.8 90.3001L586.38 89.8801H586.39ZM594.4 94.2501V94.3101H596.75V94.1101H596.95V91.7601H596.89L594.41 94.2401L594.4 94.2501ZM594.85 92.7001L595.38 92.1701L595.8 92.5901L596.75 91.6401V91.5801H594.4V91.7701H594.2V94.1201H594.26L595.26 93.1201L594.84 92.7001H594.85ZM591.58 94.2501V94.3101H593.93V94.1101H594.13V91.7601H594.07L591.59 94.2401L591.58 94.2501ZM592.03 92.7001L592.56 92.1701L592.98 92.5901L593.93 91.6401V91.5801H591.58V91.7701H591.38V94.1201H591.44L592.44 93.1201L592.02 92.7001H592.03ZM588.76 94.2501V94.3101H591.11V94.1101H591.31V91.7601H591.25L588.77 94.2401L588.76 94.2501ZM589.21 92.7001L589.74 92.1701L590.16 92.5901L591.11 91.6401V91.5801H588.76V91.7701H588.56V94.1201H588.62L589.62 93.1201L589.2 92.7001H589.21Z" fill="#90BEFB"/>
</g>
<defs>
<clipPath id="clip0_2554_16916">
<rect width="662.34" height="104.81" fill="white"/>
</clipPath>
</defs>
</svg>
