<svg width="678" height="335" viewBox="0 0 678 335" fill="none" xmlns="http://www.w3.org/2000/svg">
<g clip-path="url(#clip0_2559_5651)">
<mask id="mask0_2559_5651" style="mask-type:luminance" maskUnits="userSpaceOnUse" x="0" y="0" width="678" height="335">
<path d="M677.48 0H0V334.54H677.48V0Z" fill="white"/>
</mask>
<g mask="url(#mask0_2559_5651)">
<path d="M129.31 53.8902C129.14 55.6402 129.05 57.3702 128.42 59.0002C127.33 61.8302 125.76 64.4402 122.89 65.9702C118.43 68.3502 113.31 67.8302 109.68 64.7502C109.21 64.3602 108.59 63.5702 108.18 63.0602C106.67 61.1802 106.05 58.8002 105.59 56.4902C104.4 50.4802 104.93 42.8002 109.52 38.2802C113.26 34.6002 119.29 34.3802 123.82 37.0602C125.7 38.1802 126.75 40.2902 127.78 42.1602C129.54 45.3502 129.63 50.3302 129.31 53.9002M144.7 43.6002L143.86 40.1102C141.85 31.7402 134.49 24.4602 126.06 22.3602C119.47 20.7002 114.74 20.8102 108.22 22.5002C104.32 23.5102 100.76 25.4702 97.7902 28.1702C96.4002 29.4402 95.0202 30.5702 93.9102 32.0902C91.9102 34.8602 89.4702 40.0702 89.0602 43.3802L88.4902 47.9102C88.2502 49.7502 88.4002 51.4902 88.4902 53.3702C88.4602 52.5402 88.4102 57.6902 87.9502 56.6002C87.3202 55.7502 87.7302 54.8502 87.6902 53.8502L87.6102 51.1702C87.5502 49.4702 87.5702 47.8302 87.7202 46.1002L88.0002 43.1502C88.1202 41.8002 88.2602 40.4802 88.2702 39.1302L88.4702 9.25023L88.6402 1.08023C88.6402 0.790234 88.1902 0.130234 88.0702 -0.00976562H87.2602C86.9102 0.580234 86.7202 1.31023 86.7102 2.12023L86.6002 19.6902L86.5302 47.0802V49.6502L86.4002 62.3802L86.2502 65.4202L86.1702 80.7102C86.1602 81.1102 86.4302 81.6702 86.7402 81.8602C87.0002 82.0102 87.5902 81.8302 87.7802 81.5902C87.9702 81.3702 87.8802 80.7802 87.8602 80.3702C87.7402 78.3402 87.8402 76.4102 87.9402 74.3702C88.1802 69.3402 88.0702 64.3502 88.0202 59.2602C88.0102 58.4202 87.8102 57.7702 88.2302 57.0502L89.7802 62.6802C90.0702 63.7302 90.6102 64.8802 91.0202 65.9502C92.7202 70.2902 95.6602 73.8302 99.2902 76.7202C101.7 78.6502 104.42 79.7502 107.35 80.7702C110.59 81.9102 113.94 81.7602 117.36 81.8202C120.36 81.8902 122.93 81.3802 125.73 80.5302C128.61 79.6702 130.94 78.2202 133.43 76.6002C139.52 72.6502 143.54 66.6002 144.78 59.4602C145.77 53.7802 146.04 49.1802 144.69 43.5802" fill="#90BEFB"/>
<path d="M81.4601 146.99L80.0901 151.54L78.7201 156.47L77.3301 161.72L75.6701 168.09L74.2601 173.11L72.8601 178.14L71.4301 183.4L70.1301 188.29L68.7701 193.36L67.4501 198.25C66.6301 201.3 67.0101 202.97 65.4001 202.97H50.4301C49.9401 202.39 49.6701 201.6 49.5101 200.88C49.0801 198.8 48.5801 196.89 48.0601 194.85L46.0401 186.92L44.6301 181.38L43.4701 176.87L42.6401 173.07C42.1501 170.83 42.4701 170.94 41.8801 170.19C41.7701 170.04 41.2901 170.62 41.2301 170.81L40.1001 175.43L38.8301 180.94L37.1601 188.09L35.7801 193.95L34.4701 199.38L33.6601 202.54C32.9901 203.38 31.7601 202.7 31.0301 202.7L17.6601 202.67C16.9001 200.73 16.4601 198.93 15.9101 197.03L14.6501 192.68L13.5901 188.6L12.1401 183.42L10.8701 179.02L10.1801 176.79L8.78009 172.05L8.07009 169.58L6.88009 165.05C6.28009 162.74 5.51009 160.51 4.98009 158.16C4.79009 157.31 4.58009 156.67 4.32009 155.81L1.47009 146.22C1.36009 145.84 1.88009 144.97 2.20009 145.03L3.70009 145.27L18.5501 145.36C19.4801 145.37 19.3801 146.87 19.5001 147.43C19.8301 148.79 20.1201 150.24 20.3801 151.58L21.3901 156.69L22.3101 161.18L23.0701 164.82L24.5201 171.68L25.1801 175.05L25.8901 178.27C26.0801 179.18 25.4701 180.05 26.9201 180.56L27.3601 178.09L28.8401 170.14L30.4401 162.39L31.4201 158.12C31.8201 156.36 32.0101 154.69 32.4601 152.95C33.4001 149.36 32.8901 148.34 34.1001 145.58H48.4601C48.8901 145.57 49.3201 146.43 49.4001 146.78L50.2201 150.72L51.5501 156.9L52.8601 162.58L53.9101 166.93L54.7401 170.75L55.9801 176.5C56.2401 177.72 56.6001 178.86 56.6101 180.17C56.6101 180.34 56.7301 180.74 56.8001 180.88C56.8801 181.08 57.6001 180.9 57.6401 180.61L58.8101 174.5L59.7801 169.48L60.7001 164.63L62.0901 157.71L63.4201 151.04L64.3301 147.44C64.5101 146.75 64.3701 145.57 65.4501 145.57H80.7201C81.3801 145.57 81.6001 146.55 81.4601 146.99Z" fill="#90BEFB"/>
<path d="M184.24 210.55C184.34 211.55 184.56 214.64 183.96 215.15C183.72 215.34 183.15 215.23 182.7 215.14C180.84 214.77 179.19 214.83 177.32 215.04C172.02 215.64 168.46 219.96 167.84 225.22L167.47 228.31C166.98 232.36 167.49 236.31 167.53 240.44L167.66 258.25C167.67 258.61 167.28 259.31 167.03 259.61L157.73 259.52C156.28 259.5 154.54 259.22 153.17 259.61C152.78 259.72 151.5 259.47 151.42 259.03C151.16 257.55 151.25 255.98 151.32 254.63L151.44 252.1C151.54 250.08 151.57 248.1 151.44 246.05L151.27 243.49L151.25 202.05C151.9 201.54 152.58 201.48 153.39 201.43L157.14 201.23L166.09 201.14C166.48 201.14 167.18 201.79 167.17 202.16L167.05 205.69L166.97 206.53C166.96 206.77 167.69 207.12 167.89 206.93C171.2 203.61 174.04 201.46 178.65 199.99C179.73 199.65 183.82 198.49 184.18 200.24C184.8 203.34 183.8 205.96 184.25 210.56" fill="#90BEFB"/>
</g>
<path d="M550.03 151.02H548.15V231.46H550.03V151.02Z" fill="#90BEFB"/>
<path d="M84.9442 23.8949L82.9043 23.917L83.785 105.302L85.8249 105.28L84.9442 23.8949Z" fill="#90BEFB"/>
<path d="M455.42 311.6L453.39 311.61L453.08 230.9H455.11L455.42 311.6Z" fill="#90BEFB"/>
<path d="M0 59.8501L0.69 141.1L2.77 141.08L2.07 59.8301L0 59.8501Z" fill="#90BEFB"/>
<path d="M327.55 242.52L325.55 242.55L325.08 162.09L327.08 162.08L327.55 242.52Z" fill="#90BEFB"/>
<path d="M185.594 35.9286L184.691 117.974L186.811 117.997L187.713 35.9519L185.594 35.9286Z" fill="#90BEFB"/>
<path d="M564.54 173.16H562.67V254.14H564.54V173.16Z" fill="#90BEFB"/>
<path d="M575.84 71.7197H573.96V152.43H575.84V71.7197Z" fill="#90BEFB"/>
<path d="M420.53 323.2L418.57 323.21L418.26 242.23H420.22L420.53 323.2Z" fill="#90BEFB"/>
<path d="M597.35 83.0498H595.47V163.76H597.35V83.0498Z" fill="#90BEFB"/>
<path d="M265.82 129.19L263.81 129.21L263.12 48.6304L265.12 48.6104L265.82 129.19Z" fill="#90BEFB"/>
<path d="M191.43 93.2598L189.46 93.2798L188.67 12.5698L190.64 12.5498L191.43 93.2598Z" fill="#90BEFB"/>
<path d="M485.77 265.73L483.83 265.74L483.55 184.76H485.49L485.77 265.73Z" fill="#90BEFB"/>
<path d="M532.02 196.36H530.14V277.34H532.02V196.36Z" fill="#90BEFB"/>
<path d="M592.78 207.96H591.18V288.94H592.78V207.96Z" fill="#90BEFB"/>
<path d="M601.38 94.3701H599.77V175.08H601.38V94.3701Z" fill="#90BEFB"/>
<path d="M604.61 105.7H603V186.41H604.61V105.7Z" fill="#90BEFB"/>
<path d="M586.06 117.03H584.18V197.74H586.06V117.03Z" fill="#90BEFB"/>
<path d="M607.57 128.36H605.96V209.07H607.57V128.36Z" fill="#90BEFB"/>
<path d="M510.49 253.82H508.61V334.53H510.49V253.82Z" fill="#90BEFB"/>
<path d="M379.07 300.27L377.23 300.28L376.77 219.57L378.62 219.56L379.07 300.27Z" fill="#90BEFB"/>
<mask id="mask1_2559_5651" style="mask-type:luminance" maskUnits="userSpaceOnUse" x="0" y="0" width="678" height="335">
<path d="M677.48 0H0V334.54H677.48V0Z" fill="white"/>
</mask>
<g mask="url(#mask1_2559_5651)">
<path d="M147.81 26.8402L147.71 41.0302L147.63 43.4702C147.54 45.9602 147.5 48.3602 147.59 50.8002L147.4 64.5102C147.38 66.1002 148.06 67.6402 146.93 69.3902C146.12 67.6302 146.32 65.8802 146.27 63.5002L146.07 55.3302C146.05 54.6002 146 53.9702 146.06 53.2702C146.19 51.3902 146.13 49.5602 146.13 47.6702L146.17 25.5302C146.17 25.0902 147.12 24.4802 147.43 24.7502C148.02 25.2702 147.83 26.1402 147.82 26.8602" fill="#90BEFB"/>
<path d="M150.41 241.43C150.25 241.81 149.01 241.88 148.84 241.58L149.11 206.43L149.47 203.73L149.55 201.75C149.6 200.26 149.64 198.75 149.55 197.24L149.84 195.57L150.05 190.25L150.33 196.34C150.59 201.9 150.49 207.44 150.37 213.06C150.35 214.2 150.19 215.18 150.36 216.33C150.74 218.89 150.05 219.11 150.35 223.58C150.53 226.12 150.48 228.71 150.38 231.29L150.29 233.42C150.22 235.28 150.68 238.99 150.4 241.43" fill="#90BEFB"/>
<path d="M147.57 186.39L147.49 202.18C147.49 202.44 146.99 202.94 146.8 202.85L145.88 202.41L145.97 180.72C145.97 180.72 146.56 171.52 147.29 172.44C147.48 173.67 147.63 174.72 147.63 175.69V178.39C147.63 179.83 147.35 181.36 147.63 182.8C147.87 183.98 147.59 185.01 147.57 186.38" fill="#90BEFB"/>
<path d="M150.99 68.57L150.93 85.94L150.68 89.69C150.59 91.17 150.41 92.48 150.09 94.04C149.78 93.27 149.8 92.28 149.63 91.58L149.26 90.13L149.35 69.71C149.36 69.16 149.24 68.65 149.46 68.42C149.73 68.14 150.76 68.2 150.98 68.56" fill="#90BEFB"/>
<path d="M147.1 268.67C146.42 267.49 146.7 266.43 147.09 265.15L147.38 266.33C147.56 267.18 147.45 268.02 147.1 268.67Z" fill="#90BEFB"/>
<path d="M677.48 133.8V214.24C677.13 214.31 676.68 214.39 676.39 214.4C676.15 214.42 675.87 213.67 675.87 213.38V136.04C674.05 137.5 672.82 138.75 671.58 140.28L663.23 148.82L653.28 159L646.17 166.52C648.98 170.06 651.03 173.67 653.39 177.4L659.51 187.11L665.08 196.02L666.98 198.98L675.13 211.79C674.96 212.27 674.64 212.83 674.33 212.89C674.06 212.93 673.41 212.65 673.09 212.65L653.95 212.62L641.69 191.23L634.61 178.89L627.47 185.92V211.8C627.47 212.15 626.74 212.64 626.42 212.64H611.37C610.98 212.63 610.27 211.95 610.27 211.51V174.06C610.27 173.72 610.47 173.02 610.43 172.69C610.3 171.86 610.36 170.72 610.45 169.71C610.67 167.22 610.39 164.84 610.38 162.33L610.26 136.23C610.26 135.84 610.7 134.86 611.08 134.86L626.86 134.88C627.36 135.14 627.58 136.19 627.54 136.71L627.26 140.77L627.16 163.97C627.16 164.4 626.88 165.09 627.35 165.17C627.61 165.22 628.1 164.9 628.29 164.68L631.44 161.07L638.3 153.17L646.5 143.66L652.65 136.37C653.05 135.9 653.61 134.87 654.43 134.87H674.41C674.75 134.87 675.54 135.3 675.62 135.05L675.9 134.04C675.97 133.79 676.5 133.4 676.74 133.49L677.47 133.79L677.48 133.8Z" fill="#90BEFB"/>
</g>
<path d="M609.72 139.69H608.11V220.4H609.72V139.69Z" fill="#90BEFB"/>
</g>
<defs>
<clipPath id="clip0_2559_5651">
<rect width="677.48" height="334.54" fill="white"/>
</clipPath>
</defs>
</svg>
