<svg width="953" height="152" viewBox="0 0 953 152" fill="none" xmlns="http://www.w3.org/2000/svg">
<g clip-path="url(#clip0_2554_8588)">
<mask id="mask0_2554_8588" style="mask-type:luminance" maskUnits="userSpaceOnUse" x="0" y="0" width="953" height="152">
<path d="M952.4 0H0V151.63H952.4V0Z" fill="white"/>
</mask>
<g mask="url(#mask0_2554_8588)">
<path d="M951.851 9.52045L948.661 20.0504L946.141 28.6404L944.431 35.0304L939.931 50.2004L937.471 58.8304L932.771 75.4705C931.461 80.1505 928.901 84.8304 928.901 89.8104L928.841 125.8C928.841 127.21 929.021 128.5 928.901 129.91C928.191 138.16 929.771 141.24 929.001 146.38C928.481 149.83 922.451 148.8 920.551 147.89L920.251 126.17L919.811 88.3605C919.771 85.9805 918.521 83.0005 917.851 80.7605L915.391 72.5704C914.581 69.8904 913.601 67.2104 913.051 64.4604C912.571 62.0404 911.761 60.0604 911.091 57.6404L907.941 46.2104L906.121 40.7604C905.591 39.2104 905.171 37.6304 904.711 36.0604L902.071 27.1504L899.751 18.3204C898.561 13.7804 896.201 8.22045 896.891 5.41045C898.951 3.94045 902.051 3.90045 904.311 5.05045C906.001 5.90045 906.891 7.91045 907.351 9.69045L910.321 21.2004L914.571 35.7204L916.611 43.2604L918.471 50.2404L921.011 59.3304C922.081 63.1404 922.401 67.8405 923.711 68.5005C926.331 69.8105 927.201 64.3704 927.341 62.2104C927.661 57.6104 930.281 54.1304 931.251 48.9204C932.021 44.7904 933.091 41.1004 934.481 37.1604C935.751 33.5504 936.581 29.8204 937.651 26.0504C938.881 21.7804 940.191 17.7404 941.161 13.2904C941.681 10.9304 942.431 8.09045 943.361 5.99045C945.601 3.55045 949.331 4.01045 952.171 5.14045C952.651 6.45045 952.271 8.14045 951.851 9.49045" fill="#90BEFB"/>
<path d="M65.9603 132.73L65.6803 146.62C65.6203 149.26 60.3803 148.82 58.3803 148.13C57.7103 147.93 57.2303 146.42 57.1903 145.67L56.8903 139.96C56.7503 137.56 56.6703 135.5 56.9103 133.08C57.3303 128.56 56.9303 125.8 56.9703 121.04C57.0903 111.58 57.2903 102.25 56.8303 92.9098C56.6303 88.9998 56.8103 85.6898 56.8303 81.6598L57.0903 46.4498C57.0903 45.9898 56.0403 44.9998 55.6803 44.8198C54.7503 46.1698 54.2903 47.5598 54.0303 49.1398L51.0103 66.9498L48.4303 82.0898L46.2303 95.0598L44.7403 102.56L42.1203 117.72L39.8603 130.24C39.3003 133.43 39.1303 136.31 38.3103 139.45C36.8603 145.02 37.8303 149.15 32.9103 149.17C30.9703 149.17 29.3003 148.32 28.9203 146.29L26.3003 133.08L25.7603 127.78C25.0503 120.76 22.8003 114.13 21.9503 107.15C20.8203 97.7898 19.4703 96.1798 18.1003 87.3098L17.3503 82.5498L15.6203 73.0698L14.3503 66.2898L12.4103 55.7398C11.8103 52.3898 11.8103 47.4298 10.4103 44.3898C10.2103 43.9398 8.78027 43.6798 8.64027 44.0498C7.83027 46.2498 8.56027 45.7798 8.34027 50.6198C8.16027 54.6698 8.46027 58.4598 8.50027 62.4998L8.84027 92.0998V96.0498L8.88027 126.82C8.88027 129.04 9.20027 130.97 8.92027 133.19C8.36027 137.59 9.22027 142.12 8.42027 146.44C8.02027 148.54 3.88027 149.14 2.37027 148.21C-1.13973 146.03 1.60027 141.11 0.0302734 139.42V134.14C0.0302734 134.14 0.510273 133.46 0.510273 133.15V102.72C0.510273 102.44 0.0702734 101.73 0.0302734 101.73V89.2698C0.110273 89.1898 0.510273 88.5598 0.510273 88.3998V65.4498C0.510273 65.3098 0.110273 64.6598 0.0302734 64.6198V6.26979L2.01027 3.42979L8.72027 3.34979C11.2003 3.32979 12.2903 4.99979 12.6703 7.21979L16.4403 29.3998L18.6403 41.1398L20.4703 51.7898C20.9103 54.2498 21.4203 56.5298 22.0603 59.0298C22.9303 62.4398 22.9303 66.1098 23.6303 69.5998C24.5403 74.2398 25.0803 78.8598 26.3303 83.3298C27.4203 87.3198 27.4203 91.0298 28.2503 95.0498L30.3503 105.21C30.7303 107.04 30.0703 116.22 33.6403 115.9C34.3103 115.86 35.2103 114.59 35.2303 113.84C35.2703 109.69 35.7303 106.1 36.4803 102.06L37.9703 93.9698C38.3503 91.8698 38.4803 89.8198 39.2003 87.7998C40.0503 85.3798 39.9903 82.8598 40.4103 80.3198L41.3803 74.2098L42.8303 65.1198C43.3303 61.9698 43.6603 59.1098 44.5203 56.0498C45.0803 54.1098 45.2103 51.7898 45.5903 49.6998L49.7403 26.4498C50.1803 23.9698 50.3903 21.3898 50.9903 18.9898C52.0003 15.0798 52.7403 11.5498 53.0303 7.53979C53.1503 5.86979 54.3203 3.54979 56.1303 3.48979C58.5903 3.40979 60.9503 3.38979 63.2903 3.46979C66.6803 3.58979 65.5303 8.06979 65.6703 11.6398C65.8703 16.4398 65.8903 21.1398 65.5703 25.8798C65.2303 30.6398 65.2703 35.2398 65.3703 40.0798C65.3903 40.7598 65.7703 42.1998 65.6303 42.8198C65.3103 44.3698 65.6703 45.8998 65.6703 47.4598L65.7103 81.5198V85.4898L65.9303 126.38C65.9503 128.62 66.0103 130.53 65.9703 132.75" fill="#90BEFB"/>
<path d="M259.58 147.65C259.26 148.13 258.03 148.62 257.44 148.62L251.55 148.78L245.22 148.64C236.23 148.44 237.9 147.83 227.58 148.38C220.04 148.76 212.82 148.6 205.08 148.56C204.05 148.56 202.54 146.79 201.95 146.02C200.28 143.74 198.54 142.09 196.79 139.99L190.8 132.89L184.04 125.73L176.3 116.47L168.33 108.08L164.2 103.04C162.29 100.7 160.41 98.5198 158.35 96.2798L153.25 90.7498L148.35 85.0398L142.4 77.8798L135.42 70.4598L130.82 65.3798L120.86 53.5398L112.69 44.9098L104.97 35.6298L97.4701 27.7498L84.6501 12.4998L80.1101 7.35979C79.2001 6.34979 77.6701 4.73979 78.9801 3.44979L97.9801 3.16979C103.08 3.08979 108.04 2.98979 113.12 3.08979L121.83 3.24979C135.32 3.46979 130.04 1.19979 138.57 10.2298L145.45 17.5098C145.81 17.9098 146.24 18.9198 146.12 19.3898C145.49 21.5898 137.35 20.6598 135.21 20.4998C129.54 20.1198 123.9 20.1198 118.27 20.4998C114.7 20.7398 111.19 20.9398 107.68 20.4798C106.63 20.3398 105.54 20.2798 104.88 20.8998C104.32 21.4398 104.48 23.3198 105.08 23.9298L111.49 30.6198L123.35 43.9498L130.25 51.4698L137.06 59.7798C138.33 61.3298 140.51 64.3998 142.69 64.4398L161.02 64.8398C163.72 64.8998 166.16 65.0398 168.89 64.8398C173.37 64.4998 177.68 64.5398 182.26 64.8198C183.61 64.9198 185.02 67.3998 185.93 68.3298C187.85 70.2998 189.6 72.3398 191.29 74.6398C192.34 76.0698 194.98 77.9098 195.24 79.4398C195.34 82.0198 192.38 81.2798 190.99 81.1898C186.63 80.9698 182.4 80.8898 178.16 81.2698C174.31 81.6298 170.76 81.4898 166.89 81.1698C164.73 80.9898 158.7 80.5498 157.94 81.9198C157.7 82.3798 158.2 83.5098 158.62 83.9798L165.4 91.1598C168.39 94.3298 170.78 97.5898 173.63 100.84L183.53 112.15L190.35 119.89L194.02 123.94L198.68 129.02C199.57 129.99 201.24 131.2 202.65 131.2C207.01 131.22 210.98 131.28 215.21 131.06C217.59 130.94 219.85 130.54 222.25 130.98C224.17 131.34 226.46 131.34 228.34 130.78C231.77 129.75 235.12 130.76 238.42 130.54C242.9 130.24 246.65 130.26 249.55 134.33C250.78 136.02 252.76 137.9 254.19 139.59L259.09 145.44C259.47 145.9 259.9 147.17 259.59 147.64" fill="#90BEFB"/>
<path d="M681.721 29.14L676.901 34.46C674.721 36.86 672.541 39.02 670.061 41.13L664.881 45.57L656.151 52.85C654.161 54.5 651.871 56.01 649.741 57.53L643.191 62.19C619.861 78.83 593.771 96.59 568.321 109.94L561.021 113.77L556.911 115.95C552.961 118.03 549.011 120 544.871 121.82L537.471 125.09C536.121 125.7 534.791 126.22 533.381 126.76L524.931 129.95C519.351 132.05 498.741 138.44 495.331 132.35C494.501 130.88 494.751 128.84 495.771 127.33C501.051 119.63 502.531 118.05 509.601 111.7L514.941 106.92C517.241 104.86 519.461 103.11 521.881 101.19L531.051 93.97C540.871 86.25 551.761 80.5 561.641 72.96L564.381 70.86C566.761 69.04 569.201 67.77 571.541 65.88C573.111 64.61 574.971 63.84 576.681 62.77L582.871 58.9L589.711 54.65C594.151 51.87 598.741 49.59 603.241 46.93L610.541 42.64L619.661 37.72L623.531 35.78L631.391 31.89L636.941 29.23L647.471 24.73C649.511 23.86 651.481 22.98 653.641 22.27L662.811 19.34C667.771 17.77 672.371 16.54 677.711 16.82C680.291 16.96 683.361 17.02 685.131 18.94C687.951 22.02 683.921 26.72 681.721 29.14ZM712.891 4.35C710.771 0.5 707.971 1.43 705.731 0H697.501C688.991 1.17 680.701 3.33 672.411 6.27L662.271 9.86L650.621 14.56C648.701 15.33 646.911 16.34 645.051 17.18L635.711 21.43L614.961 32.04C610.021 34.56 605.421 37.2 600.621 39.93L592.251 44.67L577.051 53.58L569.971 58.04L563.541 61.89L558.881 64.89L542.401 75.92L533.271 82.29C529.181 85.13 525.021 87.69 521.031 90.8L510.161 99.25L502.211 105.3L496.871 109.64L490.841 114.74C489.831 115.59 488.741 116.59 487.821 117.48L484.591 120.57C477.291 127.59 473.941 130.29 468.901 139.18C465.371 145.43 467.611 147 469.931 149.67C471.691 151.69 473.541 151.67 475.961 151.63L484.691 151.43C488.141 151.37 491.511 150.28 494.931 149.8C497.271 149.48 499.061 148.61 501.321 147.88L513.781 143.89L519.021 141.81L529.851 137.21L549.111 128.46C552.921 126.73 556.231 124.51 560.181 123.02C562.641 122.11 564.921 120.42 567.241 119.13L570.991 117.03C572.421 116.22 573.811 115.36 575.281 114.57C576.931 113.7 578.871 113 580.421 111.91C584.801 108.91 589.331 106.79 593.851 104.02L601.331 99.46L615.241 90.71C618.651 88.57 622.001 86.68 625.321 84.36L639.031 74.88L652.281 65.83L673.031 50.4C676.011 48.18 679.021 46.29 681.781 43.66C684.741 40.86 687.711 38.46 690.951 35.92C694.581 33.08 703.151 24.95 705.651 21.3L710.001 14.93C712.241 11.66 714.641 7.63 712.841 4.36" fill="#90BEFB"/>
<path d="M595.05 7.27971L587.83 12.1597L582.04 16.1097L567.38 26.0297L559.72 31.4597L552.8 36.1197L547.03 40.0497L533.54 49.1997L527.17 53.4497C525.96 54.2597 524.85 54.9397 523.68 55.7697L517.97 59.7397L512.28 63.8097C507.48 67.2597 505.12 68.7097 500.24 72.0197L483.87 83.1497L473.14 90.8097L459.61 99.9397L452.15 105.06C449.19 107.12 446.32 109.19 443.2 111.03C440.54 112.6 438.28 114.42 435.74 116.13L410.35 133.31L389.94 147.63C387.86 149.08 385.68 149.3 383.33 148.78C378.85 147.79 377.64 150.01 375.65 147.99C375.27 147.63 375.55 146.15 376.01 145.85L384.94 139.88L390.08 136.29L401.29 128.57L411.35 121.77L422.6 114.15L441.58 101.28L448.98 96.1197L453.52 93.4597L458.7 89.3897L472.51 80.0097L493.52 65.8097L500.56 61.1497L508.44 55.5597C512.78 52.4897 517.03 51.3497 520.16 46.9697L521.45 46.4697C521.81 46.3297 521.9 45.3597 521.9 44.9797L515.49 47.7597L511.18 50.0397C507.55 51.9597 504.4 54.1097 500.88 56.1297L481.14 67.3397L468.38 74.4397L449.18 85.1497L436.33 92.1897L429.6 96.0797L422.06 100.15L417.93 102.31L407.58 108.3L402.86 110.8C400.84 111.87 398.75 112.76 396.79 114.01C392.23 116.91 387.62 119.31 382.88 121.87L378.83 124.07L357.66 135.81C354.49 137.57 351.57 139.36 348.36 140.95L343.78 143.23C338.33 145.95 336.22 150.09 329.36 148.03L325.49 148.65C324.95 148.73 323.72 148.29 323.58 147.8C323.46 147.31 323.82 146.09 324.22 145.78C326.92 143.72 329.46 141.34 332 139.17L336.21 135.54C341.45 131.02 346.23 126.41 351.45 121.89L362.36 112.43L370.22 104.93L376.85 99.3597L383.28 93.3097L390.56 87.0397L400.22 78.3497L406.73 72.2797C410.96 68.3497 412.42 67.7397 416.83 63.5697L421.29 59.3297C424.54 56.2497 428.01 53.8897 431.43 51.1397L438.47 45.5697C439.86 44.4597 441.25 43.0497 440.39 41.2797C436.7 41.6997 434.95 44.5297 432.42 46.2397L426.09 50.5497C421.07 53.9797 416.45 57.6297 411.45 61.0197L402.78 66.9097L391.63 74.6097L370.6 88.8297L359.25 96.7997L355.02 99.8397C353.73 100.77 352.46 101.43 351.03 102.22C349.21 103.21 347.4 104.68 345.63 105.91L338.27 111.05L319.6 123.86L313.41 127.83L300.28 136.87L288.83 144.79C286.77 146.2 284.11 148.34 281.57 148.42L272.39 148.7C271.56 148.74 270.4 148.58 270.05 148.05C269.69 147.45 270.13 145.89 270.67 145.57L278.45 140.59L297.04 127.89L306.54 121.4L329.13 105.87L340.99 97.9697L346.82 94.0797L351.6 90.6297L360.61 84.1197L368.49 78.9997L380.21 70.9097L401.64 56.1097L409.14 51.0097L415.23 46.9397L418.7 44.6397L440.08 29.8397L452.48 21.4697L458.77 17.5797L464.48 13.5097L476.05 5.35971C477.66 4.20971 479.68 3.76971 481.76 3.78971L497.17 3.92971C497.98 4.10971 497.9 6.70971 497.17 7.11971C493.4 9.27971 490.54 12.3597 487.37 15.2097L477.21 24.3597L473.86 27.3397C472.97 28.1297 471.38 28.9297 470.57 29.7797C466.42 34.0997 462.08 37.6297 457.68 41.4997L447.34 50.5497L442.24 55.1097L436.31 60.3097C433.63 62.6697 430.8 64.7297 428.22 67.2897C426.45 69.0697 424.53 70.9797 422.55 72.5697L415.05 78.6597C411.54 81.4797 408.35 84.4097 405.23 87.6697C402.65 90.3297 399.89 92.6097 397.08 95.0097L390.32 100.84L384.55 106.14C381.16 109.25 377.81 111.85 373.96 114.49C373.19 115.01 373.19 117.01 373.98 117.67C375.92 117.43 377.41 116.12 379.02 115.13L386.8 110.39L393.56 106.42C396.14 104.89 398.92 103.76 401.57 102.25L413.49 95.4297C417.62 93.0697 421.7 90.8697 425.81 88.4897C428.93 86.6697 432.02 84.9997 435.16 83.3297L439.23 81.1697L443.65 78.6897L471.34 63.4097L479.12 59.0097L493.09 51.3297L503.92 45.2197L521.34 35.5997L538.02 26.2197L542.15 24.0597C546.69 21.6797 551.04 19.2397 555.44 16.6197L561.25 13.1297L570.34 8.22971C573.08 6.73971 576.17 4.09971 579.41 3.94971C585.1 3.72971 590.54 3.82971 596.15 3.88971C596.59 5.19971 595.97 6.58971 595.02 7.23971" fill="#90BEFB"/>
<path d="M817.131 70.7003C816.461 71.4203 814.691 72.3103 813.521 72.1903C810.601 71.9103 808.201 72.0903 805.291 72.1903L795.211 72.5103C792.811 72.5903 791.041 72.4103 789.121 70.7003C785.451 67.4703 782.181 63.8603 779.141 59.9303C775.011 54.6303 770.671 49.9303 765.851 45.1903C764.261 43.6403 762.871 41.7003 761.331 40.0303C758.751 37.1903 756.531 34.3803 754.051 31.3403C751.851 28.6003 748.971 26.1203 746.491 23.5403C745.991 23.0003 745.601 20.9603 746.231 20.6003C747.581 19.8503 750.221 20.6403 751.721 20.5803L759.911 20.2403C763.921 20.0603 767.651 20.5003 771.591 21.0503C775.741 21.6503 785.851 27.4403 788.271 29.7003L795.191 36.2503C797.471 38.4103 799.611 40.4303 801.721 42.7603L806.321 47.8003C808.861 50.5803 811.201 53.1803 813.301 56.3503C815.481 59.6203 820.361 67.1403 817.151 70.7103M905.001 145.77L902.381 143.51C899.781 141.23 891.891 133.31 889.251 130.5L882.271 123L873.581 113.89L868.201 108.1C867.491 107.35 866.631 106.32 866.001 105.52C862.471 100.92 858.141 97.6803 853.761 94.0103C849.511 90.4203 845.611 86.7303 840.691 83.9103L832.681 79.3103C832.381 78.1203 833.321 76.2103 833.281 75.1603C833.001 67.2803 821.621 51.7103 816.701 46.5403L807.971 37.4303C799.501 28.5803 790.811 20.3503 780.561 13.6503C772.351 8.29033 766.061 4.58033 756.021 3.65033C752.371 3.31033 749.001 3.67033 745.351 3.69033L720.951 3.91033C719.801 6.57033 721.901 7.94033 723.311 9.47033L732.121 19.0103L739.521 28.0203L748.331 37.6203L758.391 49.2603C759.861 50.9303 761.411 52.7303 762.971 54.3003C766.001 57.4103 768.621 60.4703 771.461 63.7203L775.291 68.1003L779.241 72.8403L792.011 87.1203L797.491 93.1903L802.911 99.4603L806.981 104.46L812.771 110.79L817.391 115.81C822.051 120.87 826.511 125.61 830.781 130.99C835.661 137.18 839.941 141.09 844.591 146.94C846.321 149.12 848.361 149.1 850.781 148.73C852.131 148.53 854.291 149.9 855.481 148.31C856.231 147.3 854.881 146.01 854.171 145.2L845.381 135.16L840.561 129.84L824.071 110.64L820.381 106.57L816.231 102.01C813.631 99.1703 811.431 96.3803 808.951 93.2803C808.241 92.3903 803.361 89.7903 805.991 87.5103C809.131 88.4603 812.141 88.2203 815.101 88.1803L823.591 88.1003C828.351 88.0403 833.571 89.3703 837.521 91.9303C846.941 98.0603 855.251 105.28 862.641 113.59L871.091 123.05L877.581 130.05L884.171 137.05C886.651 139.69 894.111 148.16 897.301 148.46C899.681 148.68 902.281 148.64 904.941 148.46C905.631 148.42 905.461 146.24 904.961 145.78" fill="#90BEFB"/>
</g>
</g>
<defs>
<clipPath id="clip0_2554_8588">
<rect width="952.4" height="151.63" fill="white"/>
</clipPath>
</defs>
</svg>
