<svg width="569" height="487" viewBox="0 0 569 487" fill="none" xmlns="http://www.w3.org/2000/svg">
<g clip-path="url(#clip0_2554_7489)">
<mask id="mask0_2554_7489" style="mask-type:luminance" maskUnits="userSpaceOnUse" x="0" y="0" width="569" height="487">
<path d="M568.92 0H0V486.13H568.92V0Z" fill="white"/>
</mask>
<g mask="url(#mask0_2554_7489)">
<path d="M457.88 327.07C457.29 332.46 456.4 336.14 452.54 340.16C450.42 342.37 450.9 342.1 448.27 343.99C444.7 346.57 442.38 346.03 438.59 347.09H436.24C431.12 345.93 431.83 347.09 426.97 344.44C424.9 343.32 422.96 342.21 421.51 340.25C420.68 339.16 419.57 338.07 419.06 336.77L417.49 332.78C417.12 331.85 416.16 331.16 415.23 331.15C414.25 331.15 413.34 331.85 413.04 332.85L412.04 336.17C411.51 337.91 409.16 340.38 407.74 341.65C405.57 343.61 403.28 345.46 400.39 346.03C394.63 347.18 392.45 347.27 386.73 346.03C383.29 345.28 379.06 342.31 376.95 339.6C372.65 334.06 374.8 331.45 371.61 331.46C370.52 331.46 369.76 331.94 369.35 332.93C368.05 336.03 368.5 336.45 366.27 339.23C362.43 344.03 356.77 346.99 350.48 346.92C347.46 346.89 342.44 346.32 339.95 344.83C337.35 343.28 335.29 341.31 333.35 339.05C329.94 335.07 331.38 335.81 330.05 333.18C329.75 332.58 329.14 331.97 328.68 331.8C328.21 331.62 327.12 331.76 326.76 332.1C324.41 334.25 325.2 339.46 317.39 343.87C315.66 344.84 314.07 345.89 312.07 346.2L308.4 346.78C305.83 347.18 303.33 346.62 300.77 346.27C297.91 345.88 293.86 343.55 291.84 341.52L290.56 340.24C287.78 337.44 285.95 333.84 285.54 329.85L285.34 327.88C285.01 324.6 285.61 320.32 286.95 317.29C288.6 313.55 291.1 310.6 294.58 308.45C295.9 307.63 297.14 306.65 298.67 306.16C300.57 305.56 302.56 305.43 304.56 305.16C305.43 305.04 306.26 305.14 307.17 305.2L310.34 305.41C312.93 305.58 314.87 306.43 316.91 307.89C318.96 309.37 321.03 310.81 322.63 312.83C324.05 314.61 325.03 316.52 325.43 318.78C325.65 320.08 326.56 321.05 327.93 321.22C328.94 321.34 329.87 320.5 330.13 319.46C330.7 317.13 331.63 315.01 333.22 313.18L334.71 311.46C335.46 310.61 336.2 309.68 337.21 309.05C339.78 307.44 343.58 305.49 346.63 305.32C350.38 305.12 354.71 305.04 358.02 306.65L359.92 307.57C360.46 307.84 361.33 308.26 361.76 308.63L363.61 310.24C364.78 311.27 365.85 312.37 366.92 313.55C369.09 315.95 367.82 321.31 371.87 321.23C372.48 321.21 373.59 320.58 373.76 319.85L374.62 316.35C374.8 315.62 375.44 314.88 375.86 314.23C378.29 310.4 383.19 306.72 387.79 305.89C394.01 304.77 398.14 304.75 403.62 307.73C406.34 309.22 407.37 309.89 409.56 312.28C412.99 316.04 411.88 318.35 413.6 320.38C414.56 321.53 416.69 321.14 417.3 319.86C418.56 317.19 418.16 315.73 420.63 313.1C421.06 312.63 421.55 311.96 422.01 311.53C423.22 310.39 424.43 309.21 425.83 308.31C431.55 304.68 438.81 304.37 445.08 306.63C446.42 307.12 447.64 308.12 448.82 308.82C451.38 310.31 453.1 312.4 454.54 314.89C455.81 317.06 457.02 319.1 457.43 321.63L457.84 324.19C458 325.12 457.95 326.08 457.84 327.04" fill="#90BEFB"/>
<path d="M464.55 252.939C462.71 254.509 460.78 256.589 459.24 258.479C457.01 261.219 455.94 264.489 455.62 267.979C455.51 269.159 455.42 270.389 455.48 271.579C455.62 274.269 457.28 279.509 459.05 281.609C460.73 283.619 462.54 285.549 464.6 287.209C471.38 292.659 481.59 293.149 488.61 287.469C490.38 286.039 491.84 284.359 493.46 282.719C494.49 281.679 495.13 280.259 495.87 278.999C496.37 278.179 496.64 277.309 496.96 276.449C498.15 273.219 498.4 270.079 497.68 266.759C496.99 263.549 497.14 264.479 495.48 261.329C495.1 260.609 494.95 259.589 495.29 258.979C495.75 258.169 496.77 257.609 497.68 257.779C500.8 258.329 500.72 259.939 504.91 260.329C508.22 260.629 510.09 260.739 513.23 259.709C515.63 258.909 517.87 257.989 519.85 256.239C521.61 254.679 523.29 252.989 524.88 251.219C526.06 249.919 526.91 248.349 527.32 246.709C527.65 245.369 528.27 244.109 528.46 242.789C528.9 239.659 528.72 236.479 527.85 233.449C527.63 232.699 525.12 230.019 525.92 228.069C526.08 227.669 526.76 227.019 527.13 226.909C530.15 226.009 531.17 229.629 537.79 229.639H539.3C542.28 229.639 547.66 227.939 549.99 225.889L551.79 224.299C556.29 220.329 557.2 218.869 558.93 213.379C559.52 211.519 559.59 209.859 559.5 207.919C559.26 201.879 558.07 199.489 554.19 194.619C552.72 192.779 549.61 190.469 547.44 189.219C546.11 188.449 544.55 188.309 543.08 187.889C539.24 186.799 536.74 187.019 532.94 188.089C530.19 188.849 527.72 189.959 525.54 191.909C521.32 195.719 518.87 198.379 517.7 203.999C517.02 207.339 516.9 211.409 518.37 214.579L519.77 217.589C520.15 218.409 520.16 219.699 519.72 220.429C519.42 220.929 518.26 221.449 517.76 221.259C514.35 220.019 514.32 218.579 508.98 218.279C506.18 218.129 503.55 218.489 500.82 219.199C499.25 219.599 497.81 220.459 496.46 221.439C492.08 224.619 492.75 224.089 489.54 228.449C488.78 229.469 488.04 230.579 487.63 231.779C486.76 234.329 486.5 236.909 486.37 239.649C486.3 240.989 486.57 242.449 486.83 243.829C487.24 245.959 489.63 248.459 488.88 249.989C488.51 250.749 487.6 251.739 486.86 251.629C483.19 251.069 483.31 248.239 473.39 249.329C471.72 249.509 470.05 249.799 468.57 250.569C467.19 251.289 465.68 251.949 464.52 252.949" fill="#90BEFB"/>
<path d="M457.84 25.2296C457.62 27.0696 456.53 30.1996 455.63 31.5996C454.03 34.0696 451.89 36.0696 449.61 37.9496C447.05 40.0696 443.81 41.2096 440.55 41.6796C438.76 41.9396 437.14 41.8396 435.41 41.7096L432.59 41.4996C431.94 41.4596 431.07 41.3296 430.47 41.0596C426.31 39.1496 423.11 37.3196 420.39 33.6296C417.85 30.1796 418.78 29.0696 417.29 27.1296C416.72 26.3896 415.65 26.3696 414.69 26.5696C414.02 26.7096 413.3 27.5496 412.99 28.4296C411.77 31.9896 412.5 31.2796 410.08 34.2596C409.2 35.3396 408.27 36.2596 407.23 37.1596C404.97 39.0896 403.43 39.7696 400.64 40.8396C397.77 41.9296 394.64 41.8596 391.69 41.7296C389.23 41.6196 387.03 40.9796 384.79 40.0096C381.03 38.3896 377.02 34.7196 375.09 31.1496C374.37 29.8296 374.47 26.6696 372.32 26.2896C371.46 26.1296 370.35 26.5396 369.95 27.4496L368.02 31.8996C366.69 34.9696 360.19 39.7296 356.58 40.8596C354.11 41.6296 351.57 41.6496 349 41.6696C346.16 41.6996 343.98 41.0396 341.42 40.0696C339.48 39.3396 337.9 38.3896 336.38 36.9696C333.34 34.1196 332.84 33.2896 330.88 29.6596C329.38 26.8896 329.18 22.0296 329.41 18.8296C329.52 17.2996 329.86 15.7996 330.16 14.2996C330.68 11.6196 332.76 8.41961 334.74 6.47961C336.35 4.89961 337.92 3.17961 340.05 2.20961C346.3 -0.660393 345.9 0.119607 352.62 0.0796066C354.22 0.0796066 355.75 0.699607 357.25 1.14961C361.28 2.33961 366.32 6.57961 368.07 10.3996L369.81 14.1796C370.17 14.9496 370.74 15.5696 371.38 15.7496C372.16 15.9696 373.21 15.8896 373.67 15.1296C374.21 14.2396 374.38 13.0996 374.63 12.0496C374.98 10.6396 375.87 9.52961 376.67 8.35961C377.38 7.30961 378.16 6.49961 379.07 5.62961C381.96 2.87961 385.48 1.29961 389.42 0.589607C390.23 0.449607 391.02 0.269607 391.85 0.219607L394.62 0.0296066C397.81 -0.170393 402.94 1.50961 405.59 3.41961C407.95 5.12961 409.99 7.26961 411.56 9.77961C412.47 11.2196 412.64 14.4296 414.66 15.3896C415.85 15.9596 417.35 15.6796 417.73 14.4296L418.74 11.1096C419.28 9.31961 420.53 7.54961 421.89 6.22961C423.86 4.29961 426.23 2.88961 428.68 1.72961C429.72 1.24961 430.89 0.969607 431.94 0.709607C435.36 -0.190393 438.58 -0.0603933 441.96 0.679607C450.12 2.46961 455.4 8.04961 457.68 15.9796C458.54 18.9796 458.19 22.1096 457.8 25.2496" fill="#90BEFB"/>
<path d="M568.48 156.62C567.96 158.96 567.56 161.31 566.23 163.3C562.6 168.74 557.75 172.35 551.15 173.25C549.37 173.5 547.79 173.52 545.98 173.21C543.83 172.85 541.63 172.72 539.5 171.91C537.15 171.02 535.2 169.34 533.43 167.6L532.35 166.52C531.03 165.21 530.03 163.74 529.43 161.97L528.56 159.43C528.3 158.67 527.56 157.86 526.93 157.74C526 157.56 524.95 157.67 524.47 158.46C522.88 161.08 523.63 164.19 518.79 168.14C517.03 169.57 515.27 171 513.15 171.86C510.67 172.85 508.02 173.26 505.37 173.48C503.17 173.67 501.18 173.21 499.11 172.72C497.65 172.36 496.22 172.04 494.9 171.35C491.54 169.6 486.75 165.87 485.63 162.3L484.66 159.2C484.34 158.17 483.16 157.69 482.2 157.96C480.66 158.41 479.93 160.33 479.43 161.85C478.54 164.6 476.64 166.59 474.5 168.43C472.04 170.56 469.22 172.09 466.03 172.8C465.19 172.99 461.01 173.47 460.42 173.4L456.59 172.94C455.09 172.76 453.3 172.62 452.03 171.79L447.21 168.68C445.02 167.27 442.36 163.04 441.47 160.63C440.14 157.06 440.1 152.56 440.41 148.75C440.53 147.23 441.01 145.57 441.47 144.11C442.37 141.21 444.39 139.07 446.39 136.93C447.63 135.6 449.07 134.74 450.61 133.85C452.14 132.98 453.61 132.25 455.39 132.01L458.77 131.55C461.11 131.23 463.35 131.64 465.7 132.07C470.54 132.99 474.54 135.8 477.6 139.59C478.7 140.95 479.19 142.42 479.74 144.13L480.3 145.91C480.52 146.62 481.34 147.26 481.92 147.38C482.71 147.54 483.84 147.6 484.29 146.86C485.24 145.32 485.09 143.02 486.3 141.2C488.22 138.34 491.48 135.1 494.68 133.76C496.7 132.91 498.7 131.96 500.96 131.78C503.44 131.58 505.97 131.61 508.46 131.78C510.36 131.9 512.14 132.41 513.73 133.33C516.07 134.69 518.25 136.09 520.12 138.04C520.65 138.59 521.13 139.33 521.63 139.93C523.73 142.46 523.12 145.59 524.5 146.85C525.56 147.83 527.4 147.55 528.16 146.38C530.08 143.43 527.91 142.78 534.17 136.61C535.32 135.48 536.48 134.64 537.94 133.93C543.04 131.47 545.2 131.44 550.89 131.76C553.27 131.89 555.17 132.76 557.21 133.76C558.65 134.46 560.02 135.08 561.16 136.23L563.56 138.67C565.64 140.79 566.92 142.86 567.79 145.64C568.93 149.27 569.32 152.82 568.48 156.6" fill="#90BEFB"/>
<path d="M327.39 110.439C326.94 111.589 326.74 112.889 326.54 114.109C326.27 115.769 325.25 116.999 324.47 118.409C322.1 122.699 320.28 124.259 316.04 126.639C314.23 127.649 312.28 128.089 310.2 128.309C308.08 128.539 305.97 128.889 303.83 128.579C299.76 127.989 296.78 127.089 293.55 124.579C292.25 123.569 291.14 122.329 290 121.129C289.17 120.239 288.67 119.149 288.03 118.189C286.46 115.829 285.73 113.389 285.57 110.519L285.41 107.569C285.32 105.869 285.53 104.289 285.79 102.629C286.04 101.119 286.73 99.8494 287.46 98.5194C288.16 97.2394 288.71 95.8394 289.64 94.7294C290.25 94.0094 290.78 93.3094 291.43 92.6094C293.84 89.9994 297.11 89.4694 299.45 88.2994C300.65 87.6994 301.66 86.0794 300.95 84.8094C300.41 83.8294 299.08 83.6894 298.12 83.3994C293.1 81.8794 288.69 77.3594 286.84 72.4394C285.49 68.8694 285.29 65.9594 285.54 62.1494C285.66 60.2294 285.83 58.4794 286.59 56.7194C287.81 53.9094 289.26 51.4194 291.57 49.2394C295.39 45.6294 300.58 43.4994 305.86 43.1294C306.98 43.0494 307.98 43.2494 308.98 43.4494C310.65 43.7694 312.37 43.7994 313.93 44.5194C316.22 45.5794 318.28 46.8394 320.28 48.4694C322.4 50.1794 323.86 52.5994 325.17 55.0294C326.56 57.6094 327.02 60.4094 327.38 63.2894C327.62 65.2994 327.27 67.1994 326.82 69.1794C326.22 71.7794 325.11 74.0794 323.72 76.3294C322.33 78.5694 320.81 80.0394 318.62 81.5094C317.78 82.0694 316.87 82.7294 315.89 82.9794C314.07 83.4494 310.94 83.7894 311.48 86.2894C311.6 86.8794 312.09 87.8494 312.78 88.0994L316.71 89.5694C318.46 90.2294 321.39 93.2594 322.79 94.7594C323.86 95.8894 324.45 97.3994 325.2 98.7394C326 100.179 326.53 101.579 326.69 103.229C326.84 104.889 327.31 106.449 327.81 108.029C328.1 108.959 327.69 109.679 327.37 110.469" fill="#90BEFB"/>
<path d="M333.75 154.25C333.75 147.85 334.93 144.99 335.22 144.04C336.73 139.04 341.23 134.66 346.12 132.82C349.67 131.47 352.57 131.28 356.36 131.53C358.27 131.65 360.01 131.81 361.77 132.58C364.57 133.79 367.04 135.23 369.21 137.53C372.8 141.33 374.93 146.49 375.29 151.75C375.37 152.86 375.17 153.86 374.97 154.86C374.65 156.52 374.62 158.23 373.91 159.79C372.86 162.07 371.6 164.12 369.98 166.11C368.27 168.22 365.87 169.68 363.45 170.98C360.88 172.36 358.1 172.82 355.23 173.17C353.23 173.41 351.34 173.06 349.37 172.61C346.79 172.02 344.49 170.91 342.26 169.52C340.03 168.14 338.57 166.63 337.11 164.45C336.55 163.62 335.9 162.71 335.65 161.73L333.75 154.25Z" fill="#90BEFB"/>
</g>
<path d="M458.39 131.55H355.52V173.59H458.39V131.55Z" fill="#90BEFB"/>
<mask id="mask1_2554_7489" style="mask-type:luminance" maskUnits="userSpaceOnUse" x="0" y="0" width="569" height="487">
<path d="M568.92 0H0V486.13H568.92V0Z" fill="white"/>
</mask>
<g mask="url(#mask1_2554_7489)">
<path d="M259.63 463.25C259.85 464.17 259.75 465.14 259.67 466.06C259.33 469.83 258.86 473.05 256.81 476.26C255.98 477.56 255.14 478.65 254 479.67L252.21 481.27C249.28 483.88 246.01 485.38 242.13 485.78C240.42 485.96 238.83 486.25 237.1 486L234.49 485.62C229.92 484.96 225.57 482.41 222.65 478.84C219.4 474.87 220.85 474.39 218.95 471.66C218.25 470.65 216.33 470.28 215.5 471.22C213.74 473.2 214.83 478.15 205.16 483.74C200.56 486.4 194.02 486.32 188.98 485.26C186.69 484.79 184.84 483.85 183.05 482.42C181.39 481.09 179.82 479.83 178.53 478.14C177.33 476.56 176.41 475 176.04 473C175.75 471.51 174.71 470.54 173.16 470.69C170.08 470.98 171.22 474.95 168.86 477.72C165.53 481.6 164.35 482.57 159.69 484.79C158.77 485.23 155.55 485.71 154.38 485.8C149.19 486.24 142.97 485.5 138.91 481.94C137.47 480.68 136.18 479.3 134.85 477.91C133.45 476.44 132.68 474.74 131.95 472.89C131.02 470.57 130.79 468.2 130.5 465.83V465.19C130.68 464.8 130.64 464.27 130.73 463.69L131.12 461.12C131.47 458.8 132.18 456.49 133.47 454.52C135.78 450.99 138.84 448.11 142.61 446.16C144.96 444.95 147.58 444.64 150.21 444.38C153.12 444.1 156 444.43 158.85 445.18C159.71 445.41 160.58 446.09 161.37 446.46C163.1 447.28 164.5 448.34 165.89 449.66C167.28 450.98 168.7 452.27 169.66 453.99C171.13 456.61 170.45 459.9 173.27 460.13C176.19 460.35 176.1 456.52 177.34 453.98C179.07 450.42 183.29 447.31 186.97 445.94C188.18 445.49 189.52 444.77 189.73 443.39C190.08 441.17 186.43 440.78 185.28 440.23C183.27 439.26 181.39 437.93 179.86 436.32C179.16 435.58 178.59 434.73 177.95 433.94C176.92 432.67 176.46 431.13 175.81 429.65C175.06 427.93 174.43 426.27 174.32 424.32C174.16 421.54 174.05 418.63 174.91 415.96C175.55 413.97 176.2 411.97 177.27 410.21C179.13 407.17 182.25 404.28 185.51 402.95C187.4 402.19 190.57 401.87 190.21 399.21C189.92 397.01 186.37 397.49 183.83 395.86C182.97 395.3 182.09 394.56 181.4 393.84L178.44 390.79C176.41 388.69 176.47 387.69 175.51 385.4C174.75 383.59 174.43 381.84 174.34 379.88C174.28 378.53 174.14 377.24 174.39 375.82C174.94 372.59 175.66 369.25 177.39 366.42C178.79 364.13 180.93 362.39 182.96 360.71C185.01 359.01 188.11 359.37 189.49 357.64C190.1 356.88 189.99 355.85 189.6 355.04C188.68 353.13 184.73 353.62 182.09 351.11C178.78 347.97 176.02 344.62 174.82 340.09C173.91 336.67 173.9 330.2 175.45 326.73C176.86 323.55 178.59 320.74 181.22 318.41C185.68 314.47 188.09 315.33 189.65 314.06C190.06 313.72 190.46 313.03 190.46 312.59C190.46 312.15 190.06 311.45 189.65 311.12C187.31 309.24 186.32 311.27 180.61 306.09C179.06 304.69 177.62 302.96 176.76 301.03C175.96 299.25 175.2 297.47 174.72 295.63C173.58 291.24 174.52 286.35 175.88 282.17C176.37 280.68 177.08 279.32 178.09 278.17C179.37 276.7 180.66 275.38 182.15 274.13C185.89 271.01 189.74 271.77 190.14 268.92C190.26 268.02 189.26 267.02 188.36 266.77C184.25 265.61 180.81 263.2 178.23 259.84C177.22 258.52 176.58 257.21 175.92 255.71C174.45 252.39 173.88 248.94 174.37 245.28C174.56 243.9 174.35 242.4 174.89 241.09L176.24 237.75C177.54 234.57 179.96 232.09 182.7 230.1C183.73 229.34 184.86 228.82 186.04 228.3L187.96 227.46C189.26 226.89 190.31 225.51 189.64 224.02C189.28 223.19 188.06 222.69 187.17 222.54C185.5 222.26 184.24 221.49 182.86 220.67C180.9 219.5 179.64 217.99 178.33 216.2C177.09 214.48 175.96 212.91 175.34 210.83C173.79 205.66 173.85 201.17 175.52 196.08C176.69 192.48 178.96 189.16 182.03 186.97C183.53 185.9 184.92 184.83 186.83 184.52C187.86 184.35 189.16 183.88 189.68 182.91C189.9 182.5 189.88 181.4 189.65 180.91C189.16 179.83 187.63 179.11 186.38 178.77C184.35 178.21 182.93 177.13 181.48 175.78C180.08 174.48 178.83 173.18 177.68 171.62C175.84 169.14 176.49 165.29 173.55 165.16C172.49 165.11 171.43 166.12 171.11 167.08C169.41 172.08 169.93 171.67 165.81 175.68C164.48 176.98 163.01 177.69 161.37 178.54C157.46 180.56 153.26 181.29 148.81 180.7C146.11 180.34 143.74 179.43 141.31 178.13C138.71 176.73 136.54 174.71 134.69 172.41C132.72 169.98 131.73 167.31 131.41 164.18L131.17 161.9L131.01 159.32C130.92 157.78 132.33 151.34 132.89 150.44C134.7 147.58 135.43 146.33 137.99 143.99C139.14 142.94 140.56 142.12 141.95 141.34C147.04 138.47 153.06 138.47 158.57 140.14C160.25 140.65 161.71 141.21 163.11 142.27C165.26 143.91 167.18 145.51 168.79 147.69C170.87 150.49 169.92 150.62 171.25 153.52C171.76 154.61 173 155.19 174.15 154.72C177.06 153.53 175.73 150.3 178.61 147.06C181.2 144.14 184.64 141.07 188.52 140.11C189.66 139.83 190.97 139.37 192.15 139.32C194.47 139.21 196.65 139.23 198.99 139.28C200.29 139.31 201.6 139.91 202.83 140.29C206.69 141.46 208.81 143.17 211.46 146.19C212.96 147.89 214 149.68 214.48 151.94C214.7 152.98 215.58 154.34 216.72 154.55C218.15 154.81 219.29 153.37 219.72 152.13C220.52 149.78 221.57 147.84 223.18 145.98C226.65 141.98 228.48 141.21 233.38 139.74C235.59 139.07 237.95 138.88 240.26 139.15C246.76 139.93 249.37 140.93 254.04 145.19C255.09 146.15 255.89 147.24 256.56 148.5C257.32 149.96 258.36 151.36 258.79 153.02C259.32 155.06 259.76 157.02 260.14 159.16C260.33 160.24 259.71 161.63 259.58 162.71L259.38 164.45C259.09 166.89 258.17 168.9 256.79 170.85C255.45 172.76 253.39 175.08 251.51 176.48C244.72 181.57 243.11 180.68 234.59 180.6C233.85 180.6 232.76 180.26 232.08 179.97C228.89 178.61 225.87 176.98 223.61 174.39C222.48 173.1 221.34 171.76 220.76 170.23L219.73 167.56C219.3 166.47 218.33 165.58 217.1 165.55C214.84 165.48 214.67 168.92 213.33 171.35C212.12 173.56 210.18 175.13 208.31 176.77C206.99 177.94 205.38 178.53 203.61 178.91C202.03 179.25 200.68 180.55 200.98 182.29C201.38 184.58 205.35 184.07 207.85 186.27C208.53 186.87 209.29 187.42 209.86 188.1L212.61 191.33C213.71 192.64 214.58 193.91 215 195.61C215.41 197.2 216.33 198.79 216.41 200.48C216.51 202.55 216.51 204.56 216.37 206.58C216.28 208.13 215.69 209.51 215.18 210.89C213.52 215.5 208.89 221.38 203.82 222.43C202.59 222.69 201.27 223.2 200.72 224.5C200.53 224.95 201 226.02 201.37 226.43C203.87 229.12 206.64 227.19 212.04 234.1C216.26 239.53 217.62 247.25 215.33 253.74C214.28 256.7 212.88 259.45 210.67 261.66C204.88 267.41 203.16 265.55 200.72 267.73C200.1 268.28 200.12 269.5 200.88 270.09C203.43 272.08 207.42 271.94 211.66 277.38C212.65 278.64 213.9 279.83 214.46 281.34C215 282.8 215.4 284.13 215.82 285.61C216.09 286.56 216.13 287.74 216.26 288.8C216.55 291.41 216.56 293.89 215.74 296.38C214.57 299.98 212.65 303.9 209.61 306.29C207.95 307.59 206.48 309.11 204.4 309.78C203.2 310.16 201.82 310.29 200.92 311.17C200 312.08 200.11 313.41 201.16 314.14C202.96 315.38 205.73 314.75 209.37 318.69C210.12 319.5 211.03 320.19 211.67 321.08C213.37 323.44 215.05 325.95 215.86 328.77C216.71 331.73 216.65 336.86 215.89 339.84C215.01 343.3 213.17 346.08 210.8 348.6C208.26 351.31 207.57 352 204.09 353.2C203.07 353.55 202.06 353.85 201.23 354.65C200.58 355.27 200.53 356.47 200.85 357.34C201.55 359.26 204.69 359.17 206.11 359.93C207.11 360.46 207.98 361.19 208.85 361.88C210.47 363.17 211.78 364.61 212.95 366.34C213.46 367.08 214.05 367.91 214.33 368.78L215.57 372.71C216.48 375.6 216.55 377.36 216.3 380.31C215.75 386.7 212.12 392.11 206.82 395.62C203.75 397.65 200.74 396.97 200.12 398.94C199.96 399.47 200.15 400.73 200.52 401.14C202.64 403.45 204.41 401.43 208.76 405.29C211.04 407.31 212.95 409.52 214.39 412.25C216.38 416.06 217.15 422.58 215.81 426.58C213.86 432.4 214.8 431.69 210.88 435.93C209.22 437.73 207.42 439.2 205.13 440.21C203.49 440.92 200.61 440.91 200.32 442.95C200.21 443.74 200.77 444.6 201.45 444.98L202.98 445.82C204.37 446.58 205.92 447.06 207.22 447.98C209.91 449.9 212.21 452.18 213.69 455.16C214.55 456.9 214.58 460.43 217.09 460.25C220.5 460 219.41 454.17 223.32 450.68C228.14 446.38 234.23 443.58 240.86 444.41C242.41 444.6 243.96 444.64 245.52 445.19C249.83 446.72 253.84 449.79 256.25 453.67C257.19 455.17 258.04 456.77 258.42 458.36L259.6 463.26L259.63 463.25Z" fill="#90BEFB"/>
<path d="M0 161.65C0 155.25 1.18 152.39 1.47 151.44C2.98 146.44 7.48 142.06 12.37 140.22C15.92 138.87 18.82 138.68 22.61 138.93C24.52 139.05 26.26 139.21 28.02 139.97C30.82 141.18 33.29 142.62 35.46 144.92C39.05 148.72 41.18 153.88 41.54 159.14C41.62 160.25 41.42 161.25 41.22 162.25C40.9 163.91 40.87 165.62 40.16 167.18C39.11 169.46 37.85 171.51 36.23 173.5C34.52 175.61 32.13 177.07 29.7 178.37C27.13 179.75 24.35 180.21 21.48 180.56C19.48 180.8 17.59 180.45 15.62 180C13.04 179.41 10.74 178.3 8.51 176.91C6.28 175.53 4.82 174.02 3.36 171.84C2.8 171.01 2.15 170.1 1.9 169.12L0 161.64L0 161.65Z" fill="#90BEFB"/>
</g>
<path d="M151.67 138.95H21.7695V180.99H151.67V138.95Z" fill="#90BEFB"/>
<mask id="mask2_2554_7489" style="mask-type:luminance" maskUnits="userSpaceOnUse" x="0" y="0" width="569" height="487">
<path d="M568.92 0H0V486.13H568.92V0Z" fill="white"/>
</mask>
<g mask="url(#mask2_2554_7489)">
<path d="M61.1504 466.8C61.1504 460.4 62.3304 457.54 62.6204 456.59C64.1304 451.59 68.6304 447.21 73.5204 445.37C77.0704 444.02 79.9704 443.83 83.7604 444.08C85.6704 444.2 87.4104 444.36 89.1704 445.12C91.9704 446.33 94.4404 447.77 96.6104 450.07C100.2 453.88 102.33 459.03 102.69 464.29C102.77 465.4 102.57 466.4 102.37 467.4C102.05 469.06 102.02 470.77 101.31 472.33C100.26 474.61 99.0004 476.66 97.3804 478.65C95.6704 480.75 93.2804 482.21 90.8504 483.52C88.2804 484.9 85.5004 485.36 82.6304 485.71C80.6304 485.95 78.7404 485.6 76.7704 485.15C74.1904 484.56 71.8904 483.45 69.6604 482.06C67.4304 480.68 65.9704 479.17 64.5104 476.99C63.9504 476.16 63.3004 475.25 63.0504 474.27L61.1504 466.79V466.8Z" fill="#90BEFB"/>
<path d="M106.42 466.8C106.42 460.4 107.6 457.54 107.89 456.59C109.4 451.59 113.9 447.21 118.79 445.37C122.34 444.02 125.24 443.83 129.03 444.08C130.94 444.2 132.68 444.36 134.44 445.12C137.24 446.33 139.71 447.77 141.88 450.07C145.47 453.88 147.6 459.03 147.96 464.29C148.04 465.4 147.84 466.4 147.64 467.4C147.32 469.06 147.29 470.77 146.58 472.33C145.53 474.61 144.27 476.66 142.65 478.65C140.94 480.75 138.55 482.21 136.12 483.52C133.55 484.9 130.77 485.36 127.9 485.71C125.9 485.95 124.01 485.6 122.04 485.15C119.46 484.56 117.16 483.45 114.93 482.06C112.7 480.68 111.24 479.17 109.78 476.99C109.22 476.16 108.57 475.25 108.32 474.27L106.42 466.79V466.8Z" fill="#90BEFB"/>
</g>
<path d="M195.43 444.09H128.19V486.13H195.43V444.09Z" fill="#90BEFB"/>
</g>
<defs>
<clipPath id="clip0_2554_7489">
<rect width="568.92" height="486.13" fill="white"/>
</clipPath>
</defs>
</svg>
