<svg width="316" height="330" viewBox="0 0 316 330" fill="none" xmlns="http://www.w3.org/2000/svg">
<g clip-path="url(#clip0_2553_9435)">
<mask id="mask0_2553_9435" style="mask-type:luminance" maskUnits="userSpaceOnUse" x="0" y="0" width="316" height="330">
<path d="M315.04 0H0V329.73H315.04V0Z" fill="white"/>
</mask>
<g mask="url(#mask0_2553_9435)">
<path d="M114.55 223.34L126.9 235.68L102.8 259.95H102.38L90.22 248.03L78.51 259.95H77.67L29.37 211.46L41.39 199.28L29.33 187.14L41.39 175.01L29.33 162.88L41.4 150.72L29.46 138.82L17.3 150.96L4.97998 138.57L17.3 126.27L29.5 138.36L41.42 126.46L30.39 115.47C29.64 114.81 29.78 113.57 30.6 112.97L41.63 102L53.98 114.34L41.87 126.43L53.8 138.35L65.91 126.29L78.11 138.36L90.2 126.29L102.4 138.36L114.53 126.27L126.9 138.62L114.53 150.9L102.38 138.83L90.22 150.89L78.06 138.83L65.92 150.94L53.78 138.81L41.84 150.73L53.99 162.88L41.84 175.01L53.97 187.14L41.84 199.3L90.21 247.58L114.53 223.34H114.55Z" fill="#90BEFB"/>
<path d="M248.95 114.6L236.89 126.73L248.95 138.86L236.89 151L248.95 163.13L236.65 175.5L224.19 162.97L236.28 150.9L224.22 138.86L234.9 128.32C235.36 127.88 236.21 126.52 235.76 126.07L224.26 114.55L234.92 104.03C235.08 103.98 236.14 102.14 235.78 101.79L188.06 54.1202L139.68 102.45L150.46 113.23C151.32 113.84 151.4 115.01 150.69 115.73L139.68 126.7L151.75 138.85L139.71 150.96L151.73 163.14L139.46 175.49L126.91 162.89L133.5 156.3C135.46 154.6 137.22 152.8 138.88 150.67L126.93 138.61L138.99 126.48L127.02 114.46L139.04 102.3L127.12 90.3102L139.16 78.1602L127.05 65.9602L137.9 55.2802C138.65 54.5502 138.86 53.5102 138.09 52.7502L127.05 41.7202L137.43 31.3602C137.9 30.8902 139.25 29.6502 138.53 28.9302L128.22 18.6402C127.91 18.3202 127 17.6802 127.19 17.3302C127.38 16.9602 127.89 16.2802 128.24 15.9502L134.22 10.1802L139.23 4.97021L151.74 17.4802L139.68 29.6202L151.74 41.7502L139.67 53.9102L151.59 65.7902L175.91 41.5502L187.84 53.4502C189.27 52.2402 190.64 50.9202 191.98 49.4502L200.17 41.5202L248.94 90.2202L236.88 102.42L248.94 114.57L248.95 114.6Z" fill="#90BEFB"/>
<path d="M273.6 251.71L261.44 239.6L249.28 251.71L237.15 239.6L224.97 251.71L212.82 239.6L200.68 251.71L188.75 239.79L237.13 191.48L285.53 239.79L273.6 251.71ZM249.3 178.95L237.14 190.97L224.96 178.93L165.44 238.38C164.48 239.11 164.43 240.21 165.14 240.95L176.15 251.92L164.13 264.12L224.57 324.74H225.41L237.19 312.86L248.88 324.74H249.7L273.8 300.47L261.45 288.13L237.88 311.67C237.04 311.83 236.34 311.63 235.75 310.99L188.76 264.07L200.69 252.15L212.83 264.28L224.99 252.15L237.13 264.28L249.29 252.15L261.43 264.28L273.57 252.15L285.73 264.26L310.02 240.22V239.38L249.28 178.95H249.3Z" fill="#90BEFB"/>
<path d="M123.37 239.22C121.42 237.26 121.41 234.1 123.36 232.14C125.32 230.19 128.48 230.19 130.44 232.14C132.39 234.09 132.39 237.26 130.44 239.21C129.47 240.19 128.18 240.68 126.9 240.68C125.63 240.68 124.35 240.19 123.37 239.22Z" fill="black"/>
<path d="M99.2902 263.5C97.3202 261.55 97.3102 258.39 99.2602 256.43C101.2 254.47 104.37 254.45 106.33 256.4C108.29 258.35 108.3 261.51 106.36 263.47C105.38 264.46 104.09 264.95 102.81 264.95C101.53 264.95 100.26 264.46 99.2902 263.5Z" fill="black"/>
<path d="M102.39 264.95C99.6301 264.95 97.3901 262.71 97.3901 259.95C97.3901 257.19 99.6301 254.95 102.39 254.95H102.6C105.36 254.95 107.6 257.19 107.6 259.95C107.6 262.71 105.36 264.95 102.6 264.95C99.6301 264.95 102.6 264.95 102.39 264.95Z" fill="black"/>
<path d="M86.7302 251.6C84.7502 249.67 84.7202 246.5 86.6502 244.53C88.5902 242.56 91.7502 242.53 93.7302 244.46C95.7002 246.39 95.7302 249.56 93.8002 251.53C92.8202 252.53 91.5202 253.03 90.2302 253.03C88.9602 253.03 87.7002 252.56 86.7302 251.6Z" fill="black"/>
<path d="M75.0099 263.52C73.0499 261.58 73.0199 258.41 74.9499 256.45C76.8899 254.47 80.0499 254.45 82.0199 256.38C83.9899 258.32 84.0199 261.48 82.0799 263.45C81.1099 264.45 79.8099 264.95 78.5199 264.95C77.2499 264.95 75.9899 264.47 75.0099 263.52Z" fill="black"/>
<path d="M77.6802 264.95C74.9202 264.95 72.6802 262.71 72.6802 259.95C72.6802 257.19 74.9202 254.95 77.6802 254.95H78.1002C80.8602 254.95 83.1002 257.19 83.1002 259.95C83.1002 262.71 80.8602 264.95 78.1002 264.95C74.9202 264.95 78.1002 264.95 77.6802 264.95Z" fill="black"/>
<path d="M49.9901 239.23C48.0401 237.28 48.0401 234.11 50.0001 232.16C51.9601 230.21 55.1201 230.22 57.0701 232.18C59.0201 234.13 59.0101 237.3 57.0601 239.25C56.0801 240.22 54.8101 240.7 53.5301 240.7C52.2501 240.7 50.9601 240.21 49.9901 239.23Z" fill="black"/>
<path d="M37.8901 202.84C35.9301 200.9 35.9101 197.73 37.8401 195.77C39.7801 193.8 42.9501 193.78 44.9201 195.72C46.8801 197.66 46.9001 200.83 44.9601 202.79C43.9801 203.78 42.6901 204.28 41.4001 204.28C40.1301 204.28 38.8701 203.8 37.8901 202.84Z" fill="black"/>
<path d="M25.8 190.66C23.85 188.7 23.86 185.53 25.82 183.59C27.79 181.64 30.95 181.65 32.9 183.61C34.84 185.57 34.83 188.74 32.87 190.68C31.89 191.65 30.62 192.13 29.35 192.13C28.06 192.13 26.78 191.64 25.8 190.66Z" fill="black"/>
<path d="M37.8801 178.55C35.9201 176.61 35.9101 173.44 37.8601 171.48C39.8101 169.53 42.9701 169.52 44.9301 171.46C46.8901 173.41 46.9001 176.57 44.9501 178.53C43.9701 179.52 42.6901 180.01 41.4001 180.01C40.1301 180.01 38.8501 179.52 37.8801 178.55Z" fill="black"/>
<path d="M25.8 166.41C23.85 164.45 23.86 161.28 25.82 159.33C27.78 157.39 30.95 157.4 32.89 159.36C34.84 161.31 34.83 164.48 32.87 166.43C31.9 167.4 30.62 167.88 29.35 167.88C28.06 167.88 26.78 167.39 25.8 166.41Z" fill="black"/>
<path d="M37.9004 154.27C35.9404 152.32 35.9304 149.16 37.8704 147.2C39.8204 145.24 42.9804 145.23 44.9404 147.17C46.9004 149.12 46.9104 152.28 44.9704 154.24C43.9904 155.23 42.7104 155.72 41.4204 155.72C40.1504 155.72 38.8704 155.24 37.9004 154.27Z" fill="black"/>
<path d="M25.9504 142.36C24.0004 140.41 23.9904 137.25 25.9404 135.29C27.8904 133.33 31.0604 133.33 33.0204 135.28C34.9704 137.23 34.9804 140.4 33.0304 142.35C32.0504 143.33 30.7704 143.82 29.4804 143.82C28.2104 143.82 26.9304 143.33 25.9504 142.36Z" fill="black"/>
<path d="M13.7901 154.49C11.8401 152.54 11.8401 149.37 13.7901 147.43C15.7501 145.47 18.9101 145.47 20.8601 147.43C22.8101 149.38 22.8101 152.55 20.8601 154.5C19.8801 155.48 18.6001 155.96 17.3301 155.96C16.0401 155.96 14.7601 155.47 13.7901 154.49Z" fill="black"/>
<path d="M1.46018 142.1C-0.489822 140.14 -0.479822 136.98 1.48018 135.03C3.44018 133.08 6.60018 133.09 8.55018 135.05C10.5002 137.01 10.4902 140.17 8.53018 142.12C7.56018 143.09 6.28018 143.57 5.01018 143.57C3.72018 143.57 2.44018 143.08 1.46018 142.1Z" fill="black"/>
<path d="M13.79 129.81C11.83 127.85 11.84 124.68 13.79 122.73C15.75 120.78 18.91 120.79 20.86 122.73C22.81 124.68 22.81 127.85 20.86 129.8C19.88 130.78 18.6 131.26 17.32 131.26C16.04 131.26 14.76 130.77 13.79 129.8V129.81Z" fill="black"/>
<path d="M26 141.92C24.04 139.97 24.03 136.81 25.97 134.84C27.92 132.88 31.08 132.87 33.04 134.81C35 136.76 35.02 139.92 33.07 141.88C32.09 142.87 30.81 143.37 29.52 143.37C28.25 143.37 26.98 142.88 26 141.92Z" fill="black"/>
<path d="M37.9002 130C35.9502 128.04 35.9502 124.88 37.9102 122.93C39.8602 120.97 43.0302 120.98 44.9802 122.93C46.9302 124.89 46.9302 128.05 44.9702 130C43.9902 130.98 42.7202 131.46 41.4402 131.46C40.1602 131.46 38.8802 130.97 37.9002 130Z" fill="black"/>
<path d="M26.8801 119.02C24.9301 117.07 24.9201 113.9 26.8701 111.94C28.8201 109.99 31.9901 109.98 33.9401 111.94C35.9001 113.89 35.9001 117.06 33.9401 119.02C32.9701 119.99 31.6901 120.48 30.4001 120.48C29.1301 120.48 27.8501 120 26.8701 119.03L26.8801 119.02Z" fill="black"/>
<path d="M26.5699 115.91C24.9499 113.67 25.4499 110.54 27.6899 108.92C29.9199 107.31 33.0499 107.81 34.6699 110.04C36.2899 112.28 35.7899 115.4 33.5499 117.02C32.6699 117.67 31.6399 117.97 30.6299 117.97C29.0799 117.97 27.5499 117.26 26.5699 115.91Z" fill="black"/>
<path d="M38.11 105.53C36.15 103.57 36.16 100.41 38.12 98.4602C40.08 96.5102 43.24 96.5202 45.19 98.4602C47.14 100.42 47.13 103.59 45.18 105.53C44.2 106.51 42.93 106.99 41.65 106.99C40.37 106.99 39.08 106.5 38.11 105.52V105.53Z" fill="black"/>
<path d="M50.4703 117.87C48.5103 115.93 48.5103 112.76 50.4603 110.8C52.4203 108.85 55.5803 108.85 57.5303 110.8C59.4903 112.75 59.4903 115.92 57.5403 117.87C56.5603 118.85 55.2803 119.34 54.0003 119.34C52.7203 119.34 51.4503 118.85 50.4703 117.87Z" fill="black"/>
<path d="M38.3603 129.96C36.4003 128.01 36.4103 124.84 38.3603 122.89C40.3103 120.94 43.4803 120.94 45.4303 122.89C47.3803 124.84 47.3803 128.01 45.4303 129.96C44.4503 130.93 43.1703 131.42 41.8903 131.42C40.6103 131.42 39.3303 130.93 38.3603 129.95V129.96Z" fill="black"/>
<path d="M50.2901 141.88C48.3401 139.93 48.3401 136.77 50.2901 134.81C52.2401 132.86 55.4001 132.86 57.3601 134.81C59.3101 136.76 59.3201 139.93 57.3601 141.88C56.3901 142.86 55.1101 143.35 53.8301 143.35C52.5501 143.35 51.2701 142.86 50.2901 141.88Z" fill="black"/>
<path d="M62.39 129.82C60.45 127.86 60.45 124.69 62.41 122.75C64.37 120.8 67.53 120.8 69.48 122.75C71.43 124.71 71.42 127.87 69.47 129.82C68.49 130.79 67.21 131.28 65.94 131.28C64.65 131.28 63.37 130.79 62.39 129.81V129.82Z" fill="black"/>
<path d="M74.6201 141.92C72.6501 139.97 72.6401 136.81 74.5801 134.85C76.5201 132.88 79.6901 132.87 81.6501 134.81C83.6101 136.75 83.6301 139.92 81.6901 141.88C80.7101 142.87 79.4201 143.36 78.1301 143.36C76.8601 143.36 75.5901 142.88 74.6201 141.92Z" fill="black"/>
<path d="M86.69 129.82C84.74 127.87 84.74 124.7 86.69 122.75C88.65 120.8 91.81 120.8 93.76 122.75C95.72 124.7 95.71 127.87 93.76 129.82C92.78 130.79 91.5 131.28 90.23 131.28C88.95 131.28 87.66 130.79 86.69 129.81V129.82Z" fill="black"/>
<path d="M98.9101 141.92C96.9401 139.97 96.9301 136.81 98.8701 134.85C100.81 132.88 103.98 132.87 105.94 134.81C107.9 136.75 107.92 139.92 105.98 141.88C105 142.87 103.71 143.36 102.42 143.36C101.15 143.36 99.8801 142.88 98.9101 141.92Z" fill="black"/>
<path d="M111.01 129.8C109.06 127.85 109.06 124.68 111.02 122.73C112.98 120.78 116.14 120.79 118.09 122.73C120.04 124.69 120.03 127.85 118.08 129.8C117.1 130.78 115.83 131.26 114.55 131.26C113.27 131.26 111.99 130.77 111.01 129.79V129.8Z" fill="black"/>
<path d="M123.39 142.16C121.43 140.21 121.43 137.05 123.39 135.09C125.34 133.14 128.51 133.14 130.46 135.09C132.42 137.04 132.42 140.21 130.47 142.16C129.49 143.14 128.21 143.63 126.93 143.63C125.65 143.63 124.37 143.14 123.4 142.16H123.39Z" fill="black"/>
<path d="M111 154.43C109.06 152.48 109.07 149.31 111.03 147.36C112.98 145.42 116.15 145.43 118.1 147.39C120.04 149.35 120.03 152.52 118.07 154.46C117.1 155.43 115.82 155.91 114.55 155.91C113.27 155.91 111.98 155.42 111 154.43Z" fill="black"/>
<path d="M98.8801 142.38C96.9201 140.43 96.9101 137.27 98.8601 135.31C100.8 133.35 103.97 133.34 105.93 135.29C107.89 137.24 107.9 140.4 105.95 142.36C104.97 143.34 103.69 143.84 102.4 143.84C101.13 143.84 99.8501 143.35 98.8801 142.38Z" fill="black"/>
<path d="M86.6902 154.41C84.7502 152.45 84.7602 149.29 86.7202 147.34C88.6802 145.4 91.8502 145.41 93.7902 147.37C95.7402 149.33 95.7202 152.5 93.7602 154.44C92.7902 155.41 91.5202 155.89 90.2502 155.89C88.9602 155.89 87.6702 155.4 86.6902 154.41Z" fill="black"/>
<path d="M74.5601 142.39C72.6001 140.44 72.5901 137.28 74.5301 135.32C76.4801 133.36 79.6401 133.34 81.6001 135.29C83.5601 137.23 83.5801 140.39 81.6301 142.36C80.6601 143.34 79.3701 143.84 78.0801 143.84C76.8101 143.84 75.5401 143.35 74.5601 142.39Z" fill="black"/>
<path d="M62.4002 154.48C60.4502 152.52 60.4502 149.36 62.4102 147.4C64.3602 145.46 67.5302 145.46 69.4802 147.42C71.4302 149.37 71.4202 152.54 69.4702 154.49C68.4902 155.46 67.2202 155.95 65.9402 155.95C64.6602 155.95 63.3702 155.46 62.4002 154.48Z" fill="black"/>
<path d="M50.26 142.36C48.3 140.41 48.3 137.24 50.26 135.29C52.21 133.33 55.38 133.33 57.34 135.28C59.29 137.23 59.29 140.4 57.34 142.35C56.36 143.33 55.08 143.82 53.8 143.82C52.52 143.82 51.25 143.33 50.27 142.36H50.26Z" fill="black"/>
<path d="M38.3204 154.27C36.3704 152.32 36.3704 149.15 38.3204 147.2C40.2704 145.25 43.4404 145.25 45.3904 147.2C47.3404 149.16 47.3404 152.32 45.3804 154.27C44.4004 155.25 43.1304 155.74 41.8504 155.74C40.5704 155.74 39.2904 155.25 38.3104 154.27H38.3204Z" fill="black"/>
<path d="M50.47 166.42C48.51 164.46 48.51 161.3 50.47 159.35C52.42 157.39 55.59 157.39 57.54 159.35C59.49 161.3 59.49 164.46 57.54 166.42C56.56 167.39 55.28 167.88 54 167.88C52.72 167.88 51.44 167.39 50.47 166.42Z" fill="black"/>
<path d="M38.3204 178.54C36.3704 176.59 36.3704 173.42 38.3204 171.47C40.2704 169.52 43.4304 169.52 45.3904 171.47C47.3404 173.43 47.3304 176.59 45.3804 178.54C44.4004 179.52 43.1304 180.01 41.8504 180.01C40.5704 180.01 39.2904 179.52 38.3104 178.54H38.3204Z" fill="black"/>
<path d="M50.4503 190.67C48.5003 188.72 48.5003 185.55 50.4503 183.6C52.4003 181.64 55.5703 181.64 57.5203 183.6C59.4703 185.55 59.4703 188.72 57.5203 190.67C56.5403 191.65 55.2603 192.13 53.9803 192.13C52.7103 192.13 51.4303 191.65 50.4503 190.67Z" fill="black"/>
<path d="M38.3304 202.84C36.3704 200.89 36.3704 197.72 38.3304 195.77C40.2804 193.81 43.4404 193.8 45.4004 195.75C47.3504 197.71 47.3603 200.87 45.4103 202.83C44.4303 203.81 43.1503 204.3 41.8703 204.3C40.5903 204.3 39.3103 203.81 38.3403 202.84H38.3304Z" fill="black"/>
<path d="M62.5102 226.97C60.5602 225.02 60.5502 221.86 62.5102 219.9C64.4602 217.95 67.6302 217.95 69.5802 219.9C71.5402 221.85 71.5402 225.01 69.5802 226.97C68.6002 227.95 67.3202 228.44 66.0402 228.44C64.7602 228.44 63.4902 227.95 62.5102 226.97Z" fill="black"/>
<path d="M111.01 226.87C109.06 224.91 109.06 221.75 111.02 219.8C112.98 217.85 116.14 217.86 118.09 219.8C120.04 221.76 120.04 224.92 118.08 226.87C117.1 227.85 115.83 228.33 114.55 228.33C113.27 228.33 111.98 227.84 111.01 226.86V226.87Z" fill="black"/>
<path d="M233.37 130.27C231.41 128.32 231.4 125.16 233.35 123.2C235.29 121.24 238.46 121.23 240.42 123.18C242.37 125.12 242.38 128.29 240.44 130.25C239.46 131.23 238.18 131.73 236.89 131.73C235.62 131.73 234.34 131.24 233.37 130.27Z" fill="black"/>
<path d="M245.4 142.38C243.46 140.42 243.47 137.25 245.42 135.31C247.38 133.36 250.55 133.37 252.49 135.33C254.44 137.28 254.43 140.45 252.47 142.4C251.5 143.37 250.22 143.85 248.95 143.85C247.66 143.85 246.38 143.36 245.4 142.38Z" fill="black"/>
<path d="M233.37 154.54C231.41 152.6 231.4 149.43 233.34 147.47C235.29 145.51 238.46 145.5 240.41 147.45C242.38 149.39 242.39 152.56 240.44 154.52C239.46 155.5 238.18 156 236.89 156C235.62 156 234.34 155.51 233.37 154.54Z" fill="black"/>
<path d="M245.4 166.65C243.46 164.69 243.47 161.52 245.42 159.58C247.38 157.63 250.55 157.64 252.49 159.6C254.44 161.55 254.43 164.72 252.47 166.67C251.5 167.64 250.22 168.12 248.95 168.12C247.67 168.12 246.38 167.63 245.4 166.65Z" fill="black"/>
<path d="M233.12 179.04C231.17 177.09 231.16 173.93 233.1 171.97C235.05 170.01 238.21 170 240.17 171.95C242.13 173.9 242.14 177.06 240.19 179.02C239.22 180 237.93 180.49 236.65 180.49C235.37 180.49 234.1 180.01 233.12 179.04Z" fill="black"/>
<path d="M220.64 166.49C218.7 164.53 218.7 161.37 220.66 159.42C222.62 157.47 225.79 157.48 227.73 159.44C229.68 161.4 229.67 164.56 227.72 166.51C226.74 167.48 225.46 167.96 224.19 167.96C222.9 167.96 221.62 167.47 220.64 166.49Z" fill="black"/>
<path d="M232.74 154.42C230.79 152.47 230.79 149.3 232.75 147.35C234.7 145.4 237.87 145.4 239.82 147.35C241.77 149.3 241.77 152.47 239.82 154.42C238.85 155.39 237.57 155.88 236.29 155.88C235.01 155.88 233.73 155.39 232.75 154.41L232.74 154.42Z" fill="black"/>
<path d="M220.69 142.39C218.74 140.44 218.73 137.27 220.68 135.32C222.64 133.36 225.8 133.36 227.76 135.32C229.71 137.28 229.71 140.44 227.76 142.39C226.78 143.37 225.5 143.86 224.22 143.86C222.94 143.86 221.67 143.37 220.69 142.4V142.39Z" fill="black"/>
<path d="M231.34 131.83C229.4 129.86 229.42 126.7 231.39 124.75C233.36 122.82 236.52 122.84 238.46 124.8C240.4 126.77 240.38 129.93 238.41 131.87C237.44 132.83 236.17 133.31 234.9 133.31C233.61 133.31 232.32 132.82 231.34 131.83Z" fill="black"/>
<path d="M232.21 129.59C230.26 127.63 230.27 124.47 232.23 122.52C234.19 120.57 237.35 120.58 239.3 122.52C241.25 124.48 241.24 127.65 239.28 129.6C238.31 130.57 237.03 131.05 235.76 131.05C234.47 131.05 233.19 130.56 232.21 129.58V129.59Z" fill="black"/>
<path d="M220.72 118.08C218.77 116.12 218.77 112.96 220.73 111.01C222.68 109.05 225.84 109.06 227.8 111.01C229.75 112.97 229.75 116.13 227.79 118.08C226.82 119.06 225.54 119.54 224.26 119.54C222.98 119.54 221.7 119.05 220.72 118.08Z" fill="black"/>
<path d="M231.36 107.54C229.42 105.57 229.44 102.41 231.4 100.47C233.37 98.5203 236.54 98.5503 238.48 100.51C240.42 102.48 240.4 105.65 238.43 107.58C237.46 108.55 236.19 109.03 234.92 109.03C233.63 109.03 232.34 108.53 231.36 107.54Z" fill="black"/>
<path d="M232.32 105.41C230.33 103.5 230.25 100.34 232.16 98.3404C234.06 96.3404 237.23 96.2704 239.23 98.1704C241.22 100.08 241.3 103.25 239.39 105.24C238.41 106.27 237.09 106.79 235.77 106.79C234.53 106.79 233.29 106.33 232.32 105.41Z" fill="black"/>
<path d="M208.38 81.49C206.43 79.54 206.42 76.37 208.38 74.42C210.33 72.47 213.49 72.47 215.45 74.42C217.4 76.37 217.4 79.53 215.45 81.49C214.48 82.46 213.19 82.95 211.91 82.95C210.64 82.95 209.36 82.47 208.38 81.49Z" fill="black"/>
<path d="M160.32 81.8201C158.37 79.8701 158.37 76.7001 160.33 74.7501C162.28 72.8001 165.45 72.8001 167.4 74.7501C169.35 76.7001 169.35 79.8701 167.39 81.8201C166.42 82.8001 165.14 83.2901 163.86 83.2901C162.58 83.2901 161.3 82.8001 160.32 81.8201Z" fill="black"/>
<path d="M146.91 116.77C144.96 114.82 144.96 111.65 146.91 109.7C148.87 107.75 152.03 107.75 153.99 109.7C155.94 111.65 155.94 114.82 153.99 116.77C153.01 117.75 151.73 118.23 150.45 118.23C149.17 118.23 147.89 117.75 146.91 116.77Z" fill="black"/>
<path d="M147.14 119.27C145.19 117.32 145.19 114.15 147.14 112.2C149.09 110.24 152.26 110.24 154.21 112.2C156.16 114.15 156.16 117.32 154.21 119.27C153.24 120.25 151.96 120.73 150.68 120.73C149.4 120.73 148.12 120.25 147.14 119.27Z" fill="black"/>
<path d="M136.13 130.24C134.18 128.28 134.18 125.12 136.13 123.16C138.08 121.22 141.25 121.22 143.2 123.16C145.15 125.12 145.14 128.29 143.19 130.24C142.21 131.21 140.94 131.7 139.66 131.7C138.38 131.7 137.09 131.2 136.12 130.23L136.13 130.24Z" fill="black"/>
<path d="M148.2 142.38C146.25 140.42 146.26 137.25 148.22 135.31C150.18 133.36 153.34 133.37 155.29 135.33C157.23 137.28 157.22 140.45 155.27 142.4C154.29 143.37 153.02 143.85 151.74 143.85C150.46 143.85 149.17 143.36 148.2 142.38Z" fill="black"/>
<path d="M136.18 154.51C134.22 152.56 134.21 149.39 136.16 147.44C138.1 145.48 141.27 145.47 143.23 147.42C145.18 149.36 145.19 152.53 143.25 154.49C142.27 155.47 140.99 155.96 139.7 155.96C138.43 155.96 137.15 155.48 136.18 154.51Z" fill="black"/>
<path d="M148.16 166.65C146.23 164.69 146.25 161.52 148.21 159.58C150.18 157.64 153.34 157.66 155.28 159.63C157.22 161.59 157.2 164.76 155.24 166.7C154.26 167.66 152.99 168.14 151.72 168.14C150.43 168.14 149.14 167.64 148.16 166.65Z" fill="black"/>
<path d="M135.94 179.04C133.97 177.1 133.96 173.93 135.91 171.97C137.86 170.01 141.02 170 142.98 171.95C144.94 173.89 144.95 177.06 143.01 179.02C142.03 180 140.74 180.49 139.46 180.49C138.18 180.49 136.91 180.01 135.94 179.04Z" fill="black"/>
<path d="M123.37 166.42C121.42 164.47 121.43 161.3 123.38 159.35C125.34 157.4 128.51 157.41 130.45 159.37C132.4 161.32 132.4 164.49 130.45 166.44C129.47 167.41 128.2 167.9 126.92 167.9C125.64 167.9 124.35 167.4 123.38 166.42H123.37Z" fill="black"/>
<path d="M129.96 159.84C128.01 157.89 128.01 154.72 129.96 152.77C131.92 150.82 135.08 150.82 137.03 152.77C138.99 154.72 138.99 157.89 137.03 159.84C136.06 160.82 134.78 161.31 133.5 161.31C132.22 161.31 130.94 160.82 129.96 159.84Z" fill="black"/>
<path d="M135.81 154.62C133.63 152.93 133.24 149.79 134.94 147.61C136.63 145.43 139.78 145.04 141.95 146.74C144.13 148.44 144.52 151.58 142.82 153.75C141.84 155.02 140.37 155.68 138.88 155.68C137.8 155.68 136.72 155.34 135.81 154.62Z" fill="black"/>
<path d="M123.38 142.14C121.43 140.18 121.45 137.02 123.41 135.07C125.37 133.13 128.54 133.14 130.48 135.1C132.42 137.06 132.41 140.23 130.45 142.18C129.47 143.14 128.2 143.62 126.93 143.62C125.64 143.62 124.36 143.13 123.38 142.14Z" fill="black"/>
<path d="M135.46 130.04C133.5 128.09 133.49 124.93 135.44 122.97C137.39 121.01 140.55 121 142.51 122.95C144.47 124.9 144.48 128.06 142.53 130.02C141.56 131.01 140.27 131.5 138.99 131.5C137.71 131.5 136.44 131.01 135.46 130.04Z" fill="black"/>
<path d="M123.47 118C121.52 116.04 121.53 112.88 123.49 110.93C125.45 108.98 128.61 108.99 130.56 110.95C132.51 112.9 132.5 116.07 130.54 118.02C129.57 118.99 128.29 119.47 127.02 119.47C125.73 119.47 124.45 118.98 123.47 118Z" fill="black"/>
<path d="M135.52 105.87C133.56 103.93 133.54 100.76 135.48 98.8003C137.42 96.8303 140.59 96.8203 142.55 98.7603C144.52 100.7 144.54 103.86 142.59 105.83C141.62 106.82 140.33 107.31 139.04 107.31C137.77 107.31 136.5 106.83 135.52 105.87Z" fill="black"/>
<path d="M123.58 93.85C121.63 91.89 121.64 88.73 123.6 86.78C125.55 84.83 128.72 84.84 130.67 86.8C132.61 88.76 132.61 91.93 130.65 93.87C129.67 94.84 128.4 95.33 127.12 95.33C125.84 95.33 124.55 94.83 123.58 93.85Z" fill="black"/>
<path d="M135.64 81.73C133.68 79.79 133.66 76.62 135.61 74.66C137.55 72.7 140.72 72.68 142.68 74.63C144.64 76.57 144.66 79.74 142.71 81.7C141.73 82.69 140.45 83.18 139.16 83.18C137.89 83.18 136.62 82.7 135.64 81.73Z" fill="black"/>
<path d="M123.5 69.5102C121.56 67.5502 121.57 64.3802 123.53 62.4402C125.49 60.4902 128.65 60.5002 130.6 62.4602C132.54 64.4202 132.54 67.5902 130.57 69.5302C129.6 70.5002 128.33 70.9902 127.05 70.9802C125.77 70.9802 124.48 70.4902 123.5 69.5102Z" fill="black"/>
<path d="M134.34 58.82C132.4 56.85 132.43 53.68 134.4 51.75C136.36 49.81 139.53 49.83 141.47 51.8C143.41 53.77 143.38 56.94 141.41 58.87C140.43 59.83 139.17 60.31 137.9 60.31C136.61 60.31 135.32 59.81 134.34 58.82Z" fill="black"/>
<path d="M134.56 56.3103C132.61 54.3603 132.61 51.1903 134.56 49.2403C136.51 47.2903 139.68 47.2903 141.63 49.2403C143.58 51.1903 143.58 54.3603 141.63 56.3103C140.65 57.2903 139.37 57.7703 138.1 57.7703C136.81 57.7703 135.53 57.2903 134.56 56.3103Z" fill="black"/>
<path d="M123.52 45.2901C121.56 43.3301 121.56 40.1701 123.51 38.2101C125.46 36.2601 128.63 36.2601 130.58 38.2101C132.54 40.1601 132.54 43.3301 130.59 45.2801C129.61 46.2601 128.33 46.7501 127.05 46.7501C125.77 46.7501 124.49 46.2601 123.52 45.2901Z" fill="black"/>
<path d="M133.89 34.9202C131.94 32.9602 131.95 29.8002 133.9 27.8502C135.85 25.9002 139.02 25.9002 140.97 27.8502C142.92 29.8002 142.92 32.9602 140.96 34.9202C139.99 35.8902 138.71 36.3802 137.43 36.3802C136.15 36.3802 134.87 35.8902 133.89 34.9102V34.9202Z" fill="black"/>
<path d="M135 32.49C133.04 30.54 133.04 27.38 135 25.42C136.95 23.47 140.11 23.47 142.07 25.42C144.02 27.38 144.02 30.54 142.07 32.49C141.09 33.47 139.81 33.96 138.53 33.96C137.25 33.96 135.97 33.47 135 32.49Z" fill="black"/>
<path d="M124.69 22.2C122.73 20.25 122.73 17.09 124.68 15.13C126.63 13.18 129.8 13.18 131.75 15.13C133.71 17.08 133.71 20.24 131.75 22.2C130.77 23.18 129.49 23.67 128.21 23.67C126.93 23.67 125.66 23.18 124.68 22.2H124.69Z" fill="black"/>
<path d="M124.74 21.7099C122.33 20.3599 121.48 17.3099 122.83 14.8999C124.19 12.4999 127.24 11.6399 129.64 12.9999C132.05 14.3499 132.9 17.3999 131.55 19.8099C130.63 21.4399 128.93 22.3599 127.19 22.3599C126.36 22.3599 125.51 22.1499 124.74 21.7099Z" fill="black"/>
<path d="M124.65 20.6202C122.45 18.9502 122.02 15.8102 123.69 13.6102C124 13.2002 124.3 12.8302 124.79 12.3602C126.79 10.4502 129.95 10.5202 131.86 12.5202C133.74 14.5002 133.69 17.6202 131.75 19.5302C131.75 19.5302 131.75 19.5402 131.74 19.5502C131.74 19.5502 131.69 19.6102 131.66 19.6502C130.67 20.9502 129.18 21.6302 127.67 21.6302C126.62 21.6302 125.56 21.3002 124.65 20.6202Z" fill="black"/>
<path d="M130.62 13.6803C128.7 11.6903 128.75 8.53031 130.74 6.61031C132.73 4.69031 135.89 4.75031 137.81 6.73031C139.73 8.72031 139.68 11.8903 137.69 13.8103C136.72 14.7403 135.47 15.2103 134.22 15.2103C132.91 15.2103 131.6 14.7003 130.62 13.6803Z" fill="black"/>
<path d="M135.76 8.60016C133.77 6.69016 133.72 3.52016 135.63 1.53016C137.55 -0.459838 140.71 -0.519838 142.7 1.40016C144.69 3.31016 144.75 6.48016 142.83 8.47016C141.85 9.49016 140.54 10.0002 139.23 10.0002C137.98 10.0002 136.73 9.54016 135.76 8.60016Z" fill="black"/>
<path d="M148.21 21.0501C146.25 19.0901 146.25 15.9301 148.21 13.9801C150.16 12.0301 153.33 12.0301 155.28 13.9801C157.23 15.9301 157.23 19.0901 155.28 21.0501C154.3 22.0201 153.02 22.5101 151.74 22.5101C150.46 22.5101 149.18 22.0201 148.21 21.0501Z" fill="black"/>
<path d="M136.16 33.2001C134.2 31.2601 134.19 28.0901 136.14 26.1301C138.08 24.1701 141.25 24.1601 143.21 26.1101C145.17 28.0501 145.18 31.2201 143.23 33.1801C142.26 34.1601 140.97 34.6501 139.68 34.6501C138.41 34.6501 137.14 34.1701 136.16 33.2001Z" fill="black"/>
<path d="M148.2 45.31C146.25 43.35 146.26 40.18 148.22 38.24C150.17 36.29 153.34 36.3 155.29 38.26C157.23 40.21 157.22 43.38 155.27 45.33C154.29 46.3 153.02 46.78 151.74 46.78C150.46 46.78 149.17 46.29 148.2 45.31Z" fill="black"/>
<path d="M136.15 57.4901C134.19 55.5501 134.17 52.3801 136.12 50.4201C138.07 48.4601 141.23 48.4501 143.19 50.4001C145.15 52.3401 145.16 55.5101 143.22 57.4701C142.24 58.4501 140.95 58.9501 139.67 58.9401C138.39 58.9401 137.12 58.4601 136.15 57.4901Z" fill="black"/>
<path d="M148.06 69.3701C146.1 67.4201 146.09 64.2501 148.05 62.2901C149.99 60.3401 153.16 60.3401 155.12 62.2901C157.07 64.2401 157.07 67.4001 155.13 69.3601C154.15 70.3401 152.87 70.8301 151.59 70.8301C150.31 70.8301 149.03 70.3401 148.06 69.3701Z" fill="black"/>
<path d="M172.37 45.1201C170.42 43.1601 170.42 40.0001 172.38 38.0501C174.34 36.1001 177.5 36.1101 179.45 38.0501C181.4 40.0101 181.39 43.1701 179.45 45.1201C178.47 46.1001 177.19 46.5801 175.92 46.5801C174.64 46.5801 173.35 46.0901 172.38 45.1101L172.37 45.1201Z" fill="black"/>
<path d="M184.31 57.03C182.36 55.08 182.35 51.91 184.3 49.96C186.25 48 189.42 48 191.37 49.95C193.33 51.9 193.33 55.07 191.38 57.02C190.41 58 189.13 58.49 187.84 58.49C186.57 58.49 185.29 58 184.31 57.03Z" fill="black"/>
<path d="M188.61 53.1703C186.57 51.3103 186.43 48.1503 188.3 46.1103C190.17 44.0803 193.33 43.9403 195.37 45.8003C197.4 47.6703 197.54 50.8303 195.67 52.8703C194.68 53.9403 193.34 54.4903 191.98 54.4903C190.78 54.4903 189.57 54.0503 188.61 53.1703Z" fill="black"/>
<path d="M196.59 45.0302C194.67 43.0502 194.72 39.8802 196.7 37.9602C198.68 36.0402 201.85 36.0902 203.77 38.0802C205.69 40.0602 205.64 43.2302 203.66 45.1502C202.69 46.0902 201.43 46.5602 200.18 46.5602C198.87 46.5602 197.57 46.0502 196.59 45.0302Z" fill="black"/>
<path d="M221.03 69.4402C219.08 67.4902 219.08 64.3302 221.03 62.3702C222.98 60.4202 226.14 60.4202 228.1 62.3702C230.05 64.3202 230.05 67.4902 228.1 69.4402C227.13 70.4202 225.85 70.9102 224.56 70.9102C223.29 70.9102 222.01 70.4202 221.03 69.4402Z" fill="black"/>
<path d="M233.38 106.01C231.41 104.07 231.4 100.9 233.34 98.9403C235.28 96.9703 238.44 96.9503 240.41 98.9003C242.37 100.84 242.39 104.01 240.45 105.97C239.47 106.96 238.18 107.45 236.89 107.45C235.62 107.45 234.35 106.97 233.38 106.01Z" fill="black"/>
<path d="M245.4 118.12C243.46 116.16 243.47 113 245.43 111.05C247.39 109.1 250.55 109.12 252.5 111.08C254.45 113.04 254.43 116.2 252.47 118.15C251.5 119.12 250.22 119.6 248.95 119.6C247.66 119.6 246.38 119.11 245.4 118.12Z" fill="black"/>
<path d="M233.58 194.48C231.64 192.52 231.66 189.35 233.63 187.41C235.59 185.47 238.75 185.49 240.7 187.45C242.64 189.42 242.62 192.58 240.65 194.52C239.68 195.49 238.41 195.97 237.14 195.97C235.85 195.97 234.56 195.47 233.58 194.48Z" fill="black"/>
<path d="M221.44 182.48C219.48 180.54 219.46 177.37 221.4 175.41C223.35 173.45 226.51 173.43 228.47 175.37C230.44 177.31 230.46 180.48 228.52 182.44C227.54 183.43 226.25 183.93 224.96 183.93C223.69 183.93 222.42 183.45 221.44 182.48Z" fill="black"/>
<path d="M181.75 222.09C179.79 220.14 179.79 216.97 181.75 215.02C183.7 213.07 186.87 213.07 188.82 215.02C190.77 216.98 190.77 220.14 188.82 222.09C187.85 223.07 186.57 223.56 185.29 223.56C184.01 223.56 182.73 223.07 181.76 222.09H181.75ZM201.58 202.28C199.63 200.32 199.63 197.16 201.59 195.21C203.54 193.25 206.71 193.26 208.66 195.21C210.61 197.16 210.61 200.33 208.66 202.28C207.68 203.25 206.4 203.74 205.12 203.74C203.84 203.74 202.56 203.25 201.58 202.28Z" fill="black"/>
<path d="M161.57 244.44C159.64 242.46 159.68 239.3 161.65 237.37C163.63 235.44 166.79 235.47 168.72 237.45C170.65 239.42 170.62 242.59 168.64 244.52C167.67 245.47 166.41 245.94 165.15 245.94C163.85 245.94 162.55 245.44 161.57 244.44Z" fill="black"/>
<path d="M172.62 255.46C170.67 253.5 170.66 250.34 172.61 248.39C174.56 246.43 177.73 246.43 179.68 248.39C181.64 250.34 181.65 253.5 179.7 255.46C178.72 256.44 177.44 256.93 176.16 256.93C174.88 256.93 173.6 256.44 172.62 255.47V255.46Z" fill="black"/>
<path d="M160.62 267.67C158.65 265.73 158.64 262.57 160.57 260.6C162.51 258.63 165.68 258.62 167.64 260.55C169.61 262.49 169.63 265.66 167.69 267.62C166.71 268.61 165.42 269.11 164.13 269.11C162.86 269.11 161.6 268.63 160.62 267.67Z" fill="black"/>
<path d="M200.89 308.05C198.94 306.1 198.94 302.93 200.9 300.98C202.85 299.03 206.02 299.04 207.97 301C209.92 302.95 209.91 306.12 207.96 308.06C206.98 309.04 205.71 309.52 204.43 309.52C203.15 309.52 201.87 309.03 200.89 308.05ZM180.74 287.85C178.79 285.9 178.79 282.73 180.75 280.78C182.71 278.83 185.87 278.83 187.82 280.79C189.77 282.74 189.77 285.91 187.82 287.86C186.84 288.83 185.57 289.32 184.29 289.32C183.01 289.32 181.73 288.83 180.75 287.85H180.74Z" fill="black"/>
<path d="M224.99 329.73C222.24 329.73 220 327.49 220 324.73C220 321.97 222.24 319.73 224.99 319.73H225.42C228.17 319.73 230.41 321.97 230.41 324.73C230.41 327.49 228.17 329.73 225.42 329.73C222.24 329.73 225.42 329.73 224.99 329.73Z" fill="black"/>
<path d="M233.67 316.4C231.71 314.45 231.7 311.29 233.64 309.33C235.58 307.36 238.75 307.35 240.71 309.3C242.67 311.24 242.69 314.41 240.74 316.37C239.77 317.35 238.48 317.85 237.19 317.85C235.92 317.85 234.65 317.36 233.67 316.4Z" fill="black"/>
<path d="M245.32 328.24C243.38 326.27 243.41 323.1 245.38 321.16C247.34 319.23 250.51 319.26 252.44 321.22C254.38 323.19 254.36 326.36 252.39 328.29C251.41 329.25 250.15 329.73 248.88 329.73C247.59 329.73 246.3 329.23 245.32 328.24Z" fill="black"/>
<path d="M249.29 329.73C246.53 329.73 244.29 327.49 244.29 324.73C244.29 321.97 246.53 319.73 249.29 319.73H249.7C252.46 319.73 254.7 321.97 254.7 324.73C254.7 327.49 252.46 329.73 249.7 329.73C246.53 329.73 249.7 329.73 249.29 329.73Z" fill="black"/>
<path d="M270.28 304.01C268.32 302.06 268.31 298.9 270.25 296.93C272.2 294.98 275.36 294.96 277.32 296.91C279.28 298.86 279.29 302.02 277.35 303.98C276.37 304.97 275.09 305.46 273.8 305.46C272.53 305.46 271.25 304.97 270.28 304.01Z" fill="black"/>
<path d="M257.91 291.66C255.96 289.71 255.96 286.54 257.91 284.59C259.86 282.63 263.02 282.63 264.98 284.59C266.93 286.55 266.94 289.71 264.98 291.67C264.01 292.64 262.73 293.13 261.45 293.13C260.17 293.13 258.89 292.64 257.91 291.67V291.66Z" fill="black"/>
<path d="M234.33 315.19C232.39 313.24 232.39 310.07 234.34 308.12C236.29 306.17 239.46 306.17 241.41 308.12C243.36 310.08 243.36 313.24 241.41 315.2C240.43 316.17 239.15 316.66 237.87 316.66C236.59 316.66 235.31 316.17 234.33 315.19Z" fill="black"/>
<path d="M232.06 314.36C230.19 312.34 230.32 309.17 232.35 307.3C234.38 305.43 237.55 305.56 239.42 307.59C241.29 309.62 241.16 312.79 239.13 314.66C238.17 315.54 236.95 315.98 235.74 315.98C234.39 315.98 233.05 315.43 232.06 314.36Z" fill="black"/>
<path d="M208.71 291.06C206.76 289.11 206.76 285.94 208.71 283.99C210.66 282.03 213.82 282.03 215.78 283.99C217.74 285.94 217.74 289.11 215.79 291.06C214.81 292.04 213.53 292.53 212.25 292.53C210.97 292.53 209.69 292.04 208.71 291.07V291.06Z" fill="black"/>
<path d="M197.15 255.67C195.2 253.72 195.2 250.55 197.16 248.6C199.11 246.65 202.28 246.65 204.23 248.6C206.18 250.55 206.18 253.72 204.22 255.67C203.25 256.65 201.97 257.13 200.69 257.13C199.41 257.13 198.13 256.64 197.15 255.66V255.67Z" fill="black"/>
<path d="M209.3 267.81C207.34 265.86 207.34 262.69 209.3 260.74C211.25 258.78 214.41 258.78 216.37 260.74C218.32 262.69 218.32 265.86 216.37 267.81C215.39 268.79 214.11 269.28 212.83 269.28C211.55 269.28 210.28 268.79 209.3 267.82V267.81Z" fill="black"/>
<path d="M221.45 255.67C219.5 253.72 219.51 250.55 221.46 248.6C223.42 246.65 226.59 246.66 228.54 248.6C230.48 250.56 230.48 253.72 228.53 255.67C227.55 256.65 226.27 257.13 224.99 257.13C223.71 257.13 222.43 256.64 221.45 255.66V255.67Z" fill="black"/>
<path d="M233.61 267.81C231.65 265.86 231.65 262.69 233.6 260.74C235.55 258.78 238.72 258.78 240.67 260.74C242.63 262.69 242.63 265.86 240.68 267.81C239.7 268.79 238.42 269.28 237.14 269.28C235.86 269.28 234.58 268.79 233.61 267.82V267.81Z" fill="black"/>
<path d="M245.76 255.67C243.81 253.72 243.81 250.55 245.77 248.6C247.72 246.65 250.89 246.66 252.84 248.6C254.79 250.56 254.79 253.72 252.83 255.67C251.86 256.65 250.58 257.13 249.3 257.13C248.02 257.13 246.74 256.64 245.76 255.66V255.67Z" fill="black"/>
<path d="M257.91 267.81C255.96 265.86 255.96 262.69 257.91 260.74C259.86 258.78 263.02 258.78 264.98 260.74C266.93 262.69 266.94 265.86 264.98 267.81C264.01 268.79 262.73 269.28 261.44 269.28C260.17 269.28 258.89 268.79 257.91 267.82V267.81Z" fill="black"/>
<path d="M270.05 255.67C268.1 253.72 268.1 250.55 270.06 248.6C272.01 246.65 275.18 246.65 277.13 248.6C279.08 250.55 279.08 253.72 277.13 255.67C276.16 256.65 274.88 257.13 273.6 257.13C272.32 257.13 271.04 256.64 270.06 255.66L270.05 255.67Z" fill="black"/>
<path d="M282.23 267.8C280.27 265.85 280.26 262.68 282.21 260.72C284.16 258.77 287.32 258.76 289.28 260.72C291.24 262.67 291.24 265.83 289.3 267.79C288.32 268.77 287.03 269.26 285.75 269.26C284.48 269.26 283.2 268.78 282.23 267.81V267.8Z" fill="black"/>
<path d="M306.49 243.73C304.54 241.76 304.56 238.6 306.52 236.66C308.48 234.71 311.65 234.73 313.59 236.69C315.54 238.65 315.52 241.82 313.56 243.76C312.58 244.73 311.31 245.21 310.04 245.21C308.75 245.21 307.47 244.71 306.49 243.73Z" fill="black"/>
<path d="M305.04 239.79V239.37C305.04 236.61 307.28 234.37 310.04 234.37C312.8 234.37 315.04 236.61 315.04 239.37V239.79C315.04 242.55 312.8 244.79 310.04 244.79C307.28 244.79 305.04 242.55 305.04 239.79Z" fill="black"/>
<path d="M286.27 222.77C284.31 220.83 284.3 217.66 286.25 215.7C288.2 213.74 291.36 213.74 293.32 215.68C295.28 217.63 295.29 220.8 293.34 222.76C292.36 223.74 291.08 224.23 289.8 224.23C288.52 224.23 287.24 223.74 286.27 222.77ZM266.02 202.63C264.06 200.68 264.06 197.52 266 195.56C267.95 193.6 271.11 193.6 273.07 195.54C275.03 197.49 275.04 200.66 273.09 202.61C272.12 203.6 270.83 204.09 269.55 204.09C268.27 204.09 267 203.6 266.02 202.63Z" fill="black"/>
<path d="M257.92 243.14C255.96 241.19 255.95 238.03 257.9 236.07C259.85 234.11 263.02 234.11 264.97 236.05C266.93 238 266.94 241.17 264.99 243.12C264.01 244.11 262.73 244.6 261.45 244.6C260.17 244.6 258.89 244.11 257.92 243.14Z" fill="black"/>
<path d="M245.74 255.24C243.79 253.28 243.8 250.11 245.76 248.16C247.71 246.21 250.88 246.22 252.83 248.18C254.78 250.14 254.77 253.3 252.81 255.25C251.83 256.22 250.56 256.71 249.28 256.71C248 256.71 246.72 256.22 245.74 255.24Z" fill="black"/>
<path d="M233.62 243.13C231.67 241.18 231.67 238.02 233.62 236.06C235.57 234.11 238.73 234.11 240.69 236.06C242.65 238.01 242.65 241.18 240.69 243.13C239.71 244.11 238.43 244.6 237.15 244.6C235.87 244.6 234.59 244.11 233.61 243.13H233.62Z" fill="black"/>
<path d="M221.43 255.23C219.48 253.27 219.49 250.11 221.45 248.16C223.41 246.21 226.58 246.22 228.52 248.18C230.47 250.14 230.46 253.31 228.5 255.25C227.53 256.22 226.25 256.71 224.98 256.71C223.69 256.71 222.41 256.21 221.43 255.23Z" fill="black"/>
<path d="M209.3 243.14C207.35 241.19 207.34 238.02 209.29 236.07C211.24 234.11 214.41 234.11 216.36 236.07C218.32 238.01 218.33 241.18 216.37 243.14C215.4 244.12 214.11 244.61 212.83 244.61C211.55 244.61 210.28 244.12 209.3 243.15V243.14Z" fill="black"/>
<path d="M197.15 255.24C195.2 253.28 195.2 250.11 197.16 248.16C199.11 246.22 202.28 246.22 204.23 248.18C206.18 250.13 206.17 253.3 204.22 255.25C203.24 256.22 201.97 256.71 200.69 256.71C199.41 256.71 198.12 256.22 197.15 255.24Z" fill="black"/>
<path d="M185.22 243.33C183.27 241.37 183.26 238.21 185.22 236.26C187.17 234.3 190.33 234.3 192.29 236.26C194.24 238.21 194.25 241.38 192.29 243.33C191.32 244.31 190.04 244.8 188.75 244.8C187.48 244.8 186.2 244.31 185.22 243.34V243.33Z" fill="black"/>
<path d="M209.41 219.16C207.46 217.21 207.46 214.04 209.41 212.09C211.37 210.14 214.53 210.14 216.48 212.09C218.44 214.04 218.43 217.21 216.48 219.16C215.5 220.13 214.23 220.62 212.95 220.62C211.67 220.62 210.39 220.13 209.41 219.15V219.16Z" fill="black"/>
<path d="M257.81 219.17C255.85 217.22 255.85 214.05 257.8 212.1C259.75 210.14 262.92 210.14 264.87 212.1C266.83 214.05 266.83 217.22 264.87 219.17C263.89 220.15 262.61 220.64 261.33 220.64C260.05 220.64 258.77 220.15 257.8 219.18L257.81 219.17Z" fill="black"/>
<path d="M270.07 255.24C268.12 253.29 268.12 250.12 270.08 248.17C272.03 246.22 275.2 246.22 277.15 248.17C279.1 250.13 279.09 253.29 277.14 255.25C276.16 256.22 274.89 256.71 273.61 256.71C272.33 256.71 271.05 256.22 270.07 255.24Z" fill="black"/>
</g>
</g>
<defs>
<clipPath id="clip0_2553_9435">
<rect width="315.04" height="329.73" fill="white"/>
</clipPath>
</defs>
</svg>
