<svg width="409" height="402" viewBox="0 0 409 402" fill="none" xmlns="http://www.w3.org/2000/svg">
<g clip-path="url(#clip0_2547_7652)">
<path d="M403.64 81.4198V96.5898C402.42 99.1698 400.15 96.6998 398.79 97.9198C397.51 99.0598 398.37 100.77 398.3 102.12C398.15 105.26 398.1 109.88 398.3 112.97C398.32 113.35 397.81 114.2 397.47 114.38C396.41 114.94 394.35 113.21 392.74 114.77L392.55 119.33L392.47 121.69L392.45 125.32C392.43 127.7 393.14 129.67 391.97 130.73C390.53 132.05 386.9 129.96 386.89 132.49L386.85 147.09C386.85 147.79 385.42 148.25 384.86 148.1C383.68 147.76 382.29 147.69 381.25 148.3C381 150.26 381.11 152.1 381.24 154.03C381.45 157.28 381.39 160.51 381.31 163.83C381.28 164.79 379.58 165.05 378.86 164.79C378.03 164.48 376.46 164.5 376.07 165.27C375.06 167.34 375.79 169.54 375.8 171.67C375.8 172.38 375.58 173.32 375.67 173.98C375.83 175.31 375.79 176.45 375.82 177.7L375.86 180.63C375.87 181.23 375.23 181.92 374.56 181.92L363.64 181.84L360 181.82C356.46 178.64 353.64 175.2 351.85 170.78C347.75 160.74 346.41 156.52 344.25 145.85L343.22 140.75C342.86 138.98 342.09 135.63 340.83 134.52C340.46 134.19 339.07 134.2 338.84 134.73C338.17 136.16 337.56 137.57 337.2 139.09L336.6 141.67C334.68 149.87 333.87 156.91 330.47 165.13L327.71 171.8C326.65 174.35 325.08 176.53 323.31 178.63C322.44 179.65 320.33 181.9 318.96 181.89C314.4 181.87 309.92 182.03 305.44 181.77C303.74 181.66 304.17 179.2 304.18 178.2L304.34 168.85C304.35 167.8 304.81 166.59 304.31 165.69C303.01 163.35 300.18 166.06 298.55 164.26L298.49 148.33C296.58 147.06 294.48 149.06 293.34 147.66C293.01 147.26 292.97 146.4 293.01 145.79L293.18 143.23C293.45 139.2 292.66 138.6 293.1 133.86C293.15 133.29 293.29 132.44 293.15 131.97C292.65 130.03 289.38 132.45 287.59 130.77C286.85 130.08 287.44 128.79 287.43 127.93L287.41 115.24C287.4 114.08 285.4 113.98 284.58 114.37C283.77 114.74 281.8 114.72 281.8 113.53L281.76 99.4798C281.76 98.7298 281.9 97.6198 280.6 97.6298C278.99 97.6398 277.63 98.3198 276.75 97.5298C276.48 97.2798 276.25 96.4798 276.3 96.0998C276.45 94.9498 276.38 94.0198 276.3 92.9098C276.15 90.6698 276.17 88.4198 276.3 86.1998C276.46 83.4398 275.97 83.8298 276.27 81.7498C276.43 80.6398 277.64 80.4698 278.53 80.7198C279.12 80.8798 279.84 80.7298 280.48 80.7098C283.33 80.5998 286.18 80.5798 289.04 80.7098C294.05 80.9498 295.25 79.6498 295.62 82.4298C295.84 84.0298 296.38 85.3298 296.71 86.8298L297.43 90.0798L299.64 98.1598L302.11 107.99C302.55 109.76 303.1 111.39 303.45 113.17C303.84 115.15 304.31 117.09 304.91 118.97C305.45 120.67 306.02 122.35 306.28 124.08C306.59 126.23 307.14 128.13 307.83 130.16C308.2 131.3 308.41 132.6 308.71 133.78L310.06 139.27L311 142.5L312.87 149.77C313.3 151.4 313.82 152.95 314.48 154.56C314.97 155.76 317.68 155.81 318.31 154.65C319.19 153.03 320.09 151.5 320.53 149.74L321.98 143.83C322.61 141.29 323.36 138.95 324 136.41L325.45 130.64C325.88 128.97 326.43 127.39 326.83 125.75L328.23 120C328.56 118.66 329.2 117.32 329.36 115.97C329.68 113.13 331.71 109.45 333.41 107.16C334.7 105.42 336.2 104.56 338.31 104.07C339.5 103.79 340.32 103.5 341.58 104.14C342.65 104.68 344.26 104.89 345.2 105.75C346.62 107.02 347.57 108.62 348.61 110.22C349.54 111.63 350.46 115.12 350.9 116.84L352.85 124.25L354.28 129.87L356.14 136.84L358.27 145.14C358.98 147.92 359.63 150.58 360.82 153.21C361.39 154.47 361.91 155.44 363.41 155.44C364.74 155.43 365.64 154.63 366.02 153.24L367.38 148.38L369.06 141.97L371.07 134.55L372.34 129.45L373.72 124.37C374.17 122.71 374.42 121.06 374.89 119.41C375.45 117.48 375.93 115.64 376.43 113.66L378.95 103.67L382.06 91.6298C382.63 89.4198 383 87.3598 383.76 85.1898C384.37 83.4498 384.02 80.6098 386.04 80.6498L389.21 80.7298H391.32L402.07 80.6498C402.59 80.6498 403.35 81.1098 403.63 81.4498" fill="#90BEFA"/>
<path d="M106.1 234.86C105.17 236.35 104.11 237.49 102.85 238.61C96.4103 244.97 79.4203 248.03 70.6603 247.41C68.5103 247.27 66.7003 247.31 64.5903 247.41C59.5803 247.66 54.8103 247.6 49.7003 247.58C47.9603 247.56 46.1203 245.94 44.5803 245.34C41.7603 244.26 39.5503 242.98 38.4703 239.87C36.0503 232.81 36.9203 225.29 37.1203 217.81C37.2003 214.79 36.5003 212.13 37.4303 209.05C40.2303 199.81 39.1503 200.31 49.3203 197.02L82.0403 197.17C86.3303 197.19 90.9703 198.97 94.8203 200.61C100.7 203.12 107.12 209.25 108.45 215.65C110.05 223.4 110.46 227.83 106.09 234.87M37.1103 135.01L37.6703 128.57C38.4403 119.52 46.8903 118.07 54.2403 118.07L58.6503 118.09L74.4303 118.32C77.3903 118.36 80.3703 119.75 83.0903 120.39C86.3203 121.13 88.7203 122.25 91.2103 124.41C94.5203 127.29 98.2903 130.98 98.9103 135.59C99.6803 141.14 99.9703 146.92 97.6003 152.18C95.3003 157.32 90.8903 161.69 85.6503 164.11C81.8803 165.87 78.3803 167.49 74.4003 167.61C65.3503 167.86 56.4003 167.88 47.3903 167.59C41.3403 167.4 37.6303 162.23 37.4703 156.68L37.1203 145.45C37.0003 141.89 36.8103 138.59 37.1003 135.01M138.33 193.14C136.26 193.74 134.54 193.89 133.17 192.41C130.19 189.26 133.52 186.96 132.4 184.27C131.47 181.99 127.39 182.57 125.28 182.8C122.9 183.05 120.68 182.95 118.36 182.86C115.79 182.78 113.39 183.85 110.9 181.72L110.8 175.13C110.78 173.58 112.29 172.27 113.78 172.23L120.39 172.07C123.25 168.82 120.89 165.03 121.55 162.92C122.4 160.27 127.89 161.82 130.81 161.08C133.65 160.33 132.26 157.43 132.26 155.74L132.14 109.86C132.14 107 124.12 109.2 121.91 107.54L121.66 99.9399C121.58 97.3499 118.84 97.2899 117.04 97.4099L112.75 97.6999C109.08 97.9499 105.19 97.9899 101.63 97.5999C99.5803 97.3699 99.6003 93.8899 100.03 92.5699C100.8 90.1699 100.42 88.0799 98.4103 86.9399H6.49032L5.00032 88.6799L5.06032 185.92L5.12032 190.21L5.08032 222.75L5.06032 226.83L5.00032 276.31C4.98032 277.37 5.89032 278.84 7.13032 278.84L109.59 278.82C112.72 275.61 109.09 271.88 110.81 269.23C112.11 267.22 117.48 267.53 119.24 267.51C121.93 267.45 124.46 267.43 127.21 267.86C128.78 268.11 130.44 267.86 131.25 266.72C133.47 263.63 130.88 260.4 133.11 257.73C134.1 256.57 136.36 256.13 138.08 256.69C139.28 257.11 142.55 257.02 142.55 254.95L142.57 195.63C142.59 193.48 139.84 192.69 138.3 193.14" fill="#90BEFA"/>
<path d="M185.6 89.1998C170.83 89.1998 158.85 76.7598 158.85 61.4298C158.85 46.0998 170.83 33.6398 185.6 33.6398C200.37 33.6398 212.37 46.0798 212.37 61.4298C212.37 76.7798 200.39 89.1998 185.6 89.1998ZM238.4 75.2598L238.33 45.0498C238.33 44.3598 237.8 42.8098 237.3 42.7498C236.05 42.6198 233.49 42.7698 232.18 42.9198C228.5 43.3398 229.27 37.2998 229.37 35.6598C229.6 32.0998 229.63 28.5398 229.28 24.9898C227.38 22.2198 223.86 25.5898 221.54 23.6398C219.12 21.6298 222.96 17.0298 219.64 14.8498L204.38 14.5798C200.66 14.5198 204.98 6.63983 201.57 5.17983L171.47 5.06983C170.03 5.06983 168.82 4.62983 167.75 5.55983C166.77 6.41983 166.52 7.94983 166.93 9.45983C167.28 10.7398 167.6 14.1298 165.69 14.4198C161.87 14.9698 157.78 14.7998 153.87 14.5498C152.63 14.4798 151.1 14.2398 149.99 14.9298C147.52 16.4598 149.99 20.4198 148.85 22.6998C147.94 24.5398 145.55 24.6198 143.92 24.0498C142.15 23.4498 139.69 24.3798 139.62 26.5998C139.57 27.8898 140.29 29.9398 140.15 31.1998C139.85 33.8098 139.85 36.2498 140.24 38.7498C140.38 39.6798 139.77 41.7098 139.12 42.2498C136.86 44.1998 133.05 41.3898 131.52 43.3598C131.12 43.8698 130.94 45.3798 131.12 46.0598C131.56 47.7198 131.12 49.0198 131.12 50.5498L131.05 77.6098C131.03 78.3598 131.66 79.5398 132.16 79.9098C133.63 81.0198 139.53 78.3598 139.72 81.6798C140 86.5298 139.88 91.4598 139.88 96.3898C139.88 97.0298 140.55 98.5598 141.14 98.5598L146.63 98.5798C151.66 98.5998 146.93 107.9 150.38 108.07L160.52 108.56C162.29 108.65 164.31 107.54 166.05 108.61C169.28 110.62 164.61 115.27 168.35 117.77L200.07 117.82C206.19 117.82 200.68 108.86 204.47 108.41C213.12 107.33 218.7 110.36 221.07 106.7L221.09 101.13C221.11 100.14 221.72 98.7198 222.47 98.4098C223.21 98.0998 224.45 98.2098 225.4 98.5698C226.56 99.0098 229.4 99.1898 229.42 97.2198L229.61 81.5498C229.63 79.8698 232.43 79.6198 233.52 79.9298C234.78 80.3298 236.63 80.4198 237.57 79.9098C239.31 78.9598 238.41 76.8798 238.41 75.2598" fill="#90BEFA"/>
<path d="M250.411 170.22L255.141 170.31L272.731 170.33C275.061 170.33 275.391 173.2 275.061 174.8C274.591 177.2 274.911 179.82 273.911 182.01C271.941 186.31 268.241 186.7 267.611 192.96C267.201 197.16 269.511 201.29 273.561 202.96C275.511 203.76 277.681 204.85 279.791 204.86L293.781 205.03L297.301 205.01L341.641 204.84C343.051 204.82 345.431 204.33 345.431 206.64V229.75C344.901 231.72 342.241 231.13 340.951 231.11C335.041 230.97 329.471 230.92 323.621 231.14C321.881 231.21 320.361 231.23 318.601 231.14C313.371 230.92 308.241 231.09 302.981 231.11H299.621L280.251 231.16C277.461 231.16 274.831 231.38 272.091 231.28L268.571 231.13L244.031 231.1C242.531 231.1 241.321 231.85 239.961 230.69C238.991 229.86 238.771 228.51 238.861 226.91C239.011 224.09 239.031 221.28 238.831 218.46C238.761 217.35 238.431 215.89 238.931 214.97C239.341 214.24 240.841 213.49 241.841 213.51L245.961 213.6L251.841 213.94C253.201 214.03 255.931 213.62 256.441 212.05C256.791 211.05 256.981 209.31 257.061 208.21C257.201 205.97 254.541 205.01 252.611 205.4C251.261 205.66 249.921 205.91 248.881 205.14C246.021 203.05 249.861 198.49 246.811 196.65C244.621 195.31 240.311 198.28 239.171 195.53C238.831 194.68 238.811 193.61 238.831 192.59L239.071 180.46C239.121 177.01 246.331 180.97 247.621 177.99C248.981 174.84 246.341 170.13 250.411 170.2" fill="#90BEFA"/>
<path d="M240.771 146.04L240.681 150.77V168.36C240.681 170.69 237.741 171.02 236.081 170.69C233.641 170.23 230.941 170.54 228.691 169.54C224.281 167.57 223.881 163.87 217.471 163.25C213.171 162.84 208.931 165.15 207.231 169.2C206.411 171.15 205.301 173.32 205.281 175.43L205.111 189.42L205.141 192.94L205.311 237.28C205.311 238.69 205.821 241.07 203.451 241.07H179.781C177.761 240.53 178.371 237.88 178.401 236.59C178.541 230.68 178.581 225.1 178.351 219.26C178.281 217.52 178.261 216 178.351 214.24C178.581 209.01 178.401 203.88 178.401 198.62L178.381 195.26L178.331 175.89C178.331 173.1 178.101 170.47 178.231 167.73L178.371 164.21L178.401 139.67C178.401 138.17 177.631 136.96 178.841 135.6C179.681 134.63 181.071 134.41 182.711 134.5C185.591 134.65 188.461 134.67 191.371 134.47C192.501 134.4 193.951 134.06 194.941 134.59C195.671 134.97 196.441 136.49 196.421 137.49L196.351 141.61L195.981 147.49C195.891 148.85 196.311 151.58 197.911 152.09C198.941 152.44 200.721 152.62 201.871 152.71C204.151 152.85 205.131 150.19 204.741 148.26C204.461 146.91 204.201 145.57 204.981 144.53C207.141 141.67 211.791 145.51 213.671 142.46C215.051 140.27 212.001 135.96 214.821 134.82C215.711 134.47 216.791 134.46 217.831 134.47L230.271 134.71C233.791 134.76 229.731 141.97 232.781 143.26C236.001 144.62 240.831 141.98 240.761 146.05" fill="#90BEFA"/>
<path d="M235.09 358.72C214.75 358.72 198.28 342.27 198.28 321.98C198.28 301.69 214.76 285.26 235.09 285.26C255.42 285.26 271.88 301.69 271.88 321.98C271.88 342.27 255.4 358.72 235.09 358.72ZM307.68 340.29L307.61 300.32C307.59 299.43 306.89 297.38 306.16 297.3C304.47 297.13 300.95 297.32 299.12 297.52C294.1 298.05 295.11 290.14 295.26 287.9C295.57 283.24 295.72 278.44 295.07 273.83C294.59 270.5 287.25 274.24 284.5 272.02C281.19 269.34 286.48 263.29 281.92 260.37L260.93 260.03C255.82 259.93 261.75 249.53 257.05 247.61L215.65 247.46C213.67 247.46 212.03 246.88 210.56 248.09C209.18 249.2 208.87 251.32 209.43 253.25C209.89 254.94 210.32 259.45 207.72 259.81C202.46 260.56 196.82 260.34 191.46 260C189.72 259.9 187.6 259.62 186.15 260.48C182.68 262.53 186.13 267.72 184.56 270.76C183.31 273.22 180.03 273.29 177.76 272.57C175.32 271.78 171.95 273.01 171.85 275.92C171.8 277.63 172.79 280.34 172.57 282.05C172.16 285.48 172.16 288.64 172.69 292.04C172.88 293.22 172.06 295.92 171.17 296.65C167.99 299.23 162.82 295.52 160.7 298.12C160.17 298.8 159.9 300.8 160.14 301.69C160.74 303.89 160.16 305.57 160.14 307.62L160.04 343.4C160.04 344.39 160.89 345.93 161.56 346.44C163.61 347.91 171.69 344.39 171.96 348.76C172.35 355.18 172.18 361.72 172.2 368.23C172.2 369.07 173.12 371.08 173.94 371.1L181.49 371.12C188.42 371.14 181.9 383.45 186.65 383.67L200.59 384.32C203 384.44 205.78 382.97 208.16 384.37C212.6 387.02 206.21 393.2 211.34 396.48L254.96 396.55C263.35 396.57 255.8 384.73 261.01 384.1C272.9 382.7 280.55 386.71 283.81 381.86L283.86 374.5C283.86 373.17 284.7 371.32 285.74 370.91C286.75 370.5 288.47 370.62 289.77 371.1C291.36 371.7 295.27 371.92 295.32 369.34L295.59 348.62C295.61 346.4 299.45 346.04 300.95 346.47C302.71 346.98 305.24 347.12 306.52 346.45C308.93 345.19 307.68 342.44 307.68 340.3" fill="#90BEFA"/>
<path d="M398.64 96.55C398.64 93.79 400.87 91.54 403.63 91.54C406.4 91.54 408.63 93.79 408.63 96.55C408.63 99.31 406.4 101.55 403.63 101.55C400.87 101.55 398.64 99.31 398.64 96.55Z" fill="black"/>
<path d="M395.06 101.22C393.22 99.17 393.39 96.01 395.44 94.16C397.5 92.31 400.66 92.48 402.5 94.54C404.35 96.59 404.18 99.75 402.12 101.6C401.17 102.46 399.97 102.88 398.78 102.88C397.41 102.88 396.05 102.32 395.06 101.22Z" fill="black"/>
<path d="M397.96 107.07C395.2 106.89 393.12 104.51 393.3 101.75C393.48 98.9999 395.86 96.9099 398.62 97.0899C401.37 97.2699 403.46 99.6499 403.28 102.41C403.11 105.05 400.91 107.08 398.29 107.08C398.18 107.08 398.07 107.08 397.96 107.08V107.07Z" fill="black"/>
<path d="M393.3 113.25C393.12 110.49 395.22 108.12 397.97 107.94C400.73 107.76 403.11 109.86 403.28 112.62C403.45 115.37 401.36 117.75 398.61 117.92C398.5 117.93 398.39 117.93 398.29 117.93C395.67 117.93 393.47 115.9 393.3 113.25Z" fill="black"/>
<path d="M393.01 116.63C391.98 114.62 392.44 112.24 393.99 110.74C395.49 108.7 398.34 108.09 400.57 109.42C402.94 110.83 403.72 113.9 402.31 116.27C402.09 116.64 401.85 116.98 401.52 117.37C401.16 117.75 400.81 118.2 399.75 118.79C399.02 119.16 398.24 119.34 397.46 119.34C395.65 119.34 393.9 118.35 393.01 116.63ZM397.02 113.48L395.69 112.33Z" fill="black"/>
<path d="M389.13 118.21C387.21 116.22 387.27 113.06 389.25 111.14C391.24 109.22 394.4 109.27 396.32 111.26C398.24 113.25 398.19 116.41 396.2 118.33C395.23 119.27 393.98 119.73 392.73 119.73C391.42 119.73 390.11 119.22 389.13 118.21Z" fill="black"/>
<path d="M392.34 124.29C389.58 124.18 387.43 121.85 387.54 119.09C387.66 116.33 389.99 114.19 392.74 114.3C395.5 114.41 397.65 116.74 397.53 119.5C397.43 122.19 395.21 124.29 392.54 124.29H392.34Z" fill="black"/>
<path d="M392.299 126.65C389.539 126.56 387.38 124.25 387.47 121.49C387.55 118.73 389.86 116.57 392.62 116.66C395.38 116.75 397.55 119.06 397.46 121.82C397.37 124.52 395.15 126.66 392.46 126.66C392.46 126.66 392.359 126.65 392.299 126.65Z" fill="black"/>
<path d="M392.41 130.28C389.65 130.27 387.42 128.01 387.44 125.25C387.46 122.49 389.71 120.27 392.47 120.28C395.23 120.3 397.46 122.55 397.44 125.31C397.42 128.07 395.19 130.28 392.44 130.28H392.41Z" fill="black"/>
<path d="M388.25 134.05C386.4 132 386.56 128.84 388.6 126.99C390.65 125.13 393.81 125.29 395.67 127.34C397.52 129.38 397.36 132.54 395.31 134.4C394.36 135.27 393.16 135.69 391.96 135.69C390.6 135.69 389.24 135.14 388.25 134.05Z" fill="black"/>
<path d="M386.86 137.45C384.09 137.44 381.87 135.19 381.88 132.43C381.88 129.67 384.14 127.44 386.9 127.45C389.66 127.47 391.89 129.71 391.88 132.48C391.88 135.23 389.63 137.45 386.87 137.45H386.86Z" fill="black"/>
<path d="M386.82 152.06C384.06 152.05 381.83 149.8 381.83 147.04C381.83 144.28 384.09 142.05 386.85 142.06C389.61 142.07 391.84 144.31 391.83 147.07C391.83 149.83 389.59 152.06 386.83 152.06H386.82Z" fill="black"/>
<path d="M383.51 152.88C380.85 152.14 379.29 149.38 380.03 146.72C380.77 144.06 383.52 142.51 386.18 143.25C388.84 143.99 390.4 146.74 389.66 149.4C389.05 151.61 387.04 153.06 384.85 153.06C384.41 153.06 383.95 153 383.51 152.88Z" fill="black"/>
<path d="M376.93 150.79C375.53 148.41 376.32 145.35 378.7 143.95C381.08 142.55 384.15 143.35 385.55 145.72C386.95 148.11 386.15 151.17 383.77 152.57C382.97 153.04 382.1 153.26 381.24 153.26C379.53 153.26 377.86 152.38 376.93 150.79Z" fill="black"/>
<path d="M376.24 154.33C376.05 151.58 378.13 149.19 380.88 149C383.64 148.81 386.03 150.89 386.21 153.64C386.41 156.4 384.32 158.79 381.57 158.97C381.45 158.98 381.34 158.99 381.22 158.99C378.62 158.99 376.42 156.97 376.24 154.33Z" fill="black"/>
<path d="M381.16 168.79C378.4 168.72 376.22 166.42 376.29 163.66C376.37 160.9 378.66 158.72 381.42 158.79C384.18 158.86 386.36 161.16 386.29 163.92C386.22 166.64 384 168.79 381.29 168.79H381.16Z" fill="black"/>
<path d="M377.14 169.46C374.54 168.51 373.2 165.64 374.14 163.05C375.08 160.45 377.95 159.11 380.55 160.05C383.14 161 384.49 163.86 383.54 166.46C382.81 168.49 380.89 169.76 378.84 169.76C378.28 169.76 377.7 169.66 377.14 169.46Z" fill="black"/>
<path d="M373.85 169.72C371.37 168.5 370.35 165.5 371.57 163.03C372.79 160.55 375.79 159.53 378.26 160.75C380.74 161.97 381.76 164.96 380.54 167.44C379.67 169.21 377.9 170.23 376.05 170.23C375.31 170.23 374.56 170.07 373.85 169.72Z" fill="black"/>
<path d="M370.78 171.66C370.77 168.9 373 166.65 375.76 166.64C378.52 166.63 380.77 168.85 380.78 171.62C380.8 174.38 378.57 176.63 375.8 176.64H375.78C373.03 176.64 370.8 174.42 370.78 171.66Z" fill="black"/>
<path d="M370.7 174.65C370.31 171.91 372.22 169.38 374.95 168.99C377.69 168.61 380.22 170.51 380.6 173.25C380.99 175.98 379.09 178.51 376.35 178.9C376.11 178.93 375.88 178.95 375.64 178.95C373.19 178.95 371.05 177.14 370.7 174.65Z" fill="black"/>
<path d="M370.81 177.79C370.73 175.03 372.91 172.74 375.67 172.66C378.43 172.59 380.73 174.77 380.8 177.53C380.88 180.29 378.7 182.59 375.94 182.66H375.8C373.1 182.66 370.88 180.51 370.81 177.79Z" fill="black"/>
<path d="M370.85 180.67C370.81 177.9 373.02 175.63 375.78 175.59C378.53 175.55 380.81 177.76 380.85 180.52C380.89 183.28 378.68 185.55 375.92 185.59H375.85C373.12 185.59 370.89 183.4 370.85 180.67Z" fill="black"/>
<path d="M369.55 181.88C369.55 179.12 371.78 176.88 374.55 176.88C377.31 176.88 379.55 179.12 379.55 181.88C379.55 184.64 377.31 186.88 374.55 186.88C371.78 186.88 369.55 184.64 369.55 181.88Z" fill="black"/>
<path d="M363.59 186.81C360.83 186.79 358.61 184.53 358.63 181.77C358.65 179.01 360.9 176.79 363.66 176.8C366.42 176.82 368.65 179.08 368.63 181.84C368.61 184.59 366.37 186.81 363.63 186.81H363.59Z" fill="black"/>
<path d="M359.96 186.78C357.2 186.77 354.97 184.51 354.99 181.75C354.99 178.99 357.26 176.77 360.02 176.78C362.78 176.8 365.01 179.05 364.99 181.81C364.97 184.57 362.74 186.78 359.99 186.78H359.96Z" fill="black"/>
<path d="M347.2 172.62C346.16 170.06 347.4 167.15 349.95 166.11C352.51 165.07 355.43 166.3 356.47 168.86C357.5 171.42 356.27 174.34 353.71 175.38C353.1 175.63 352.46 175.75 351.84 175.75C349.86 175.74 347.99 174.57 347.2 172.62Z" fill="black"/>
<path d="M339.33 146.8C338.79 144.09 340.54 141.45 343.25 140.91C345.95 140.36 348.59 142.12 349.14 144.82C349.68 147.53 347.93 150.16 345.23 150.71C344.89 150.78 344.56 150.81 344.23 150.81C341.9 150.81 339.81 149.17 339.33 146.8Z" fill="black"/>
<path d="M338.31 141.69C337.76 138.98 339.52 136.35 342.22 135.81C344.93 135.26 347.57 137.01 348.11 139.72C348.66 142.43 346.9 145.06 344.2 145.61C343.86 145.67 343.53 145.71 343.2 145.71C340.87 145.71 338.79 144.07 338.31 141.69Z" fill="black"/>
<path d="M337.51 138.23C335.44 136.4 335.24 133.24 337.06 131.17C338.89 129.1 342.05 128.9 344.12 130.72C346.19 132.55 346.4 135.71 344.57 137.78C343.58 138.9 342.2 139.48 340.81 139.48C339.64 139.48 338.46 139.06 337.51 138.23Z" fill="black"/>
<path d="M336.82 139.26C334.29 138.16 333.14 135.21 334.24 132.68C335.35 130.15 338.3 129 340.83 130.1C343.36 131.2 344.51 134.15 343.41 136.68C342.59 138.56 340.75 139.68 338.82 139.68C338.16 139.68 337.48 139.55 336.82 139.26Z" fill="black"/>
<path d="M336.03 143.91C333.34 143.27 331.68 140.57 332.32 137.89C332.96 135.2 335.66 133.54 338.34 134.18C341.03 134.82 342.69 137.52 342.05 140.2C341.5 142.5 339.45 144.05 337.19 144.05C336.81 144.05 336.42 144 336.03 143.91Z" fill="black"/>
<path d="M335.45 146.49C332.76 145.87 331.09 143.18 331.72 140.49C332.34 137.8 335.03 136.13 337.72 136.75C340.41 137.38 342.08 140.07 341.45 142.76C340.92 145.07 338.86 146.63 336.59 146.63C336.21 146.62 335.83 146.58 335.45 146.49Z" fill="black"/>
<path d="M328.54 169.7C325.99 168.65 324.78 165.72 325.83 163.17C326.89 160.62 329.81 159.41 332.36 160.46C334.92 161.52 336.13 164.44 335.07 166.99C334.28 168.92 332.41 170.08 330.45 170.08C329.82 170.08 329.17 169.96 328.54 169.7Z" fill="black"/>
<path d="M325.79 176.37C323.24 175.32 322.02 172.39 323.08 169.84C324.13 167.29 327.06 166.07 329.61 167.13C332.16 168.18 333.38 171.1 332.32 173.66C331.53 175.59 329.66 176.75 327.7 176.75C327.06 176.75 326.42 176.63 325.79 176.37Z" fill="black"/>
<path d="M320.07 182.4C317.96 180.62 317.69 177.47 319.47 175.36C321.25 173.25 324.41 172.98 326.52 174.76C328.63 176.54 328.9 179.69 327.11 181.81C326.13 182.98 324.71 183.58 323.29 183.58C322.15 183.58 321.01 183.19 320.07 182.4Z" fill="black"/>
<path d="M313.94 181.84C313.94 179.08 316.18 176.84 318.94 176.84C321.71 176.84 323.94 179.08 323.94 181.84C323.94 184.6 321.71 186.84 318.94 186.84C316.18 186.84 313.94 184.6 313.94 181.84Z" fill="black"/>
<path d="M305.13 186.71C302.37 186.55 300.27 184.18 300.43 181.42C300.59 178.67 302.96 176.56 305.72 176.73C308.47 176.89 310.58 179.26 310.41 182.01C310.26 184.67 308.06 186.72 305.43 186.72C305.33 186.72 305.23 186.72 305.13 186.71Z" fill="black"/>
<path d="M304.12 183.14C301.36 183.12 299.14 180.86 299.16 178.1C299.19 175.34 301.45 173.12 304.21 173.14C306.97 173.17 309.19 175.42 309.16 178.19C309.14 180.94 306.91 183.14 304.16 183.14H304.12Z" fill="black"/>
<path d="M304.24 173.8C301.48 173.75 299.28 171.47 299.33 168.71C299.38 165.95 301.66 163.75 304.42 163.8C307.18 163.85 309.38 166.13 309.33 168.88C309.28 171.62 307.05 173.8 304.33 173.8H304.24Z" fill="black"/>
<path d="M299.94 168.09C298.58 165.68 299.44 162.63 301.85 161.28C304.26 159.93 307.3 160.78 308.66 163.19C310.01 165.6 309.15 168.65 306.74 170C305.97 170.43 305.13 170.64 304.3 170.64C302.55 170.64 300.86 169.72 299.94 168.09Z" fill="black"/>
<path d="M294.82 167.56C292.97 165.51 293.14 162.34 295.19 160.49C297.24 158.65 300.4 158.81 302.25 160.86C304.1 162.91 303.93 166.07 301.89 167.92C300.93 168.78 299.73 169.21 298.54 169.21C297.17 169.21 295.81 168.65 294.82 167.56Z" fill="black"/>
<path d="M293.48 148.3C293.48 145.53 295.7 143.29 298.46 143.28C301.23 143.27 303.47 145.5 303.48 148.27C303.49 151.03 301.26 153.27 298.5 153.28H298.48C295.73 153.28 293.49 151.05 293.48 148.3Z" fill="black"/>
<path d="M289.45 150.77C287.71 148.62 288.04 145.47 290.18 143.73C292.32 141.99 295.47 142.32 297.21 144.46C298.95 146.6 298.63 149.75 296.49 151.49C295.56 152.25 294.44 152.61 293.33 152.61C291.88 152.61 290.44 151.98 289.45 150.77Z" fill="black"/>
<path d="M292.65 150.73C289.9 150.54 287.82 148.15 288.02 145.39C288.21 142.64 290.6 140.56 293.36 140.76C296.11 140.95 298.19 143.34 297.99 146.1C297.81 148.73 295.61 150.74 293.01 150.74C292.89 150.74 292.77 150.74 292.65 150.73Z" fill="black"/>
<path d="M292.84 148.18C290.09 147.99 288 145.6 288.19 142.85C288.38 140.09 290.76 138.01 293.52 138.2C296.27 138.39 298.36 140.77 298.17 143.53C297.99 146.17 295.79 148.19 293.18 148.19C293.07 148.19 292.95 148.18 292.84 148.18Z" fill="black"/>
<path d="M292.63 138.8C289.88 138.54 287.86 136.1 288.13 133.35C288.39 130.6 290.82 128.58 293.57 128.84C296.32 129.1 298.34 131.54 298.08 134.29C297.83 136.88 295.66 138.82 293.11 138.82C292.95 138.82 292.79 138.81 292.63 138.8Z" fill="black"/>
<path d="M288.34 133.27C287.6 130.61 289.16 127.85 291.82 127.11C294.48 126.37 297.24 127.93 297.97 130.59C298.72 133.25 297.16 136.01 294.5 136.75C294.05 136.87 293.6 136.93 293.16 136.93C290.97 136.93 288.96 135.48 288.34 133.27Z" fill="black"/>
<path d="M284.17 134.37C282.16 132.48 282.06 129.32 283.95 127.3C285.84 125.29 289 125.19 291.02 127.08C293.03 128.97 293.13 132.13 291.24 134.15C290.26 135.2 288.93 135.73 287.59 135.73C286.37 135.73 285.14 135.28 284.17 134.37Z" fill="black"/>
<path d="M282.43 127.88C282.43 125.12 284.67 122.89 287.43 122.89C290.19 122.89 292.43 125.12 292.43 127.88C292.43 130.65 290.19 132.88 287.43 132.88C284.67 132.88 282.43 130.65 282.43 127.88Z" fill="black"/>
<path d="M282.41 115.2C282.4 112.44 284.64 110.2 287.4 110.19C290.16 110.19 292.4 112.42 292.41 115.18C292.41 117.95 290.18 120.19 287.42 120.19C284.66 120.19 282.42 117.96 282.42 115.2H282.41Z" fill="black"/>
<path d="M280.05 116.44C278.88 113.94 279.96 110.96 282.46 109.79C284.96 108.62 287.94 109.7 289.11 112.2C290.28 114.7 289.2 117.68 286.7 118.85C286.01 119.17 285.29 119.32 284.58 119.32C282.7 119.32 280.9 118.25 280.05 116.44Z" fill="black"/>
<path d="M276.8 113.48C276.8 110.72 279.04 108.48 281.8 108.48C284.56 108.48 286.8 110.72 286.8 113.48C286.8 116.24 284.56 118.48 281.8 118.48C279.04 118.48 276.8 116.24 276.8 113.48Z" fill="black"/>
<path d="M276.76 99.4502C276.76 96.6902 278.98 94.4402 281.74 94.4302C284.5 94.4202 286.75 96.6602 286.76 99.4202C286.76 102.18 284.53 104.42 281.77 104.43C279.01 104.43 276.78 102.2 276.77 99.4502H276.76Z" fill="black"/>
<path d="M275.6 97.5898C275.6 94.8198 277.84 92.5898 280.6 92.5898C283.36 92.5898 285.6 94.8198 285.6 97.5898C285.6 100.35 283.36 102.59 280.6 102.59C277.84 102.59 275.6 100.35 275.6 97.5898Z" fill="black"/>
<path d="M273.41 101.2C271.35 99.3599 271.19 96.1899 273.03 94.1399C274.88 92.0899 278.04 91.9199 280.09 93.7699C282.15 95.6199 282.32 98.7799 280.47 100.83C279.48 101.93 278.12 102.49 276.75 102.49C275.56 102.49 274.36 102.06 273.41 101.2Z" fill="black"/>
<path d="M275.66 101.01C272.93 100.66 270.99 98.1501 271.34 95.4201C271.7 92.6801 274.2 90.7401 276.94 91.1001C279.68 91.4501 281.61 93.9501 281.26 96.6901C280.94 99.2201 278.79 101.05 276.31 101.05C276.09 101.05 275.88 101.04 275.66 101.01Z" fill="black"/>
<path d="M271.31 93.21C271.12 90.45 273.2 88.06 275.96 87.87C278.71 87.68 281.1 89.76 281.29 92.52C281.48 95.27 279.4 97.66 276.65 97.85C276.53 97.86 276.41 97.86 276.3 97.86C273.69 97.86 271.5 95.85 271.31 93.21Z" fill="black"/>
<path d="M276.01 91.1399C273.25 90.9799 271.15 88.6099 271.31 85.8599C271.47 83.0999 273.84 80.9999 276.6 81.1599C279.35 81.3199 281.46 83.6899 281.29 86.4399C281.14 89.0999 278.93 91.1499 276.31 91.1499C276.21 91.1499 276.11 91.1499 276.01 91.1499V91.1399Z" fill="black"/>
<path d="M275.56 86.65C272.83 86.26 270.93 83.73 271.32 81C271.71 78.26 274.24 76.36 276.98 76.75C279.71 77.14 281.61 79.67 281.22 82.41C280.87 84.9 278.73 86.7 276.28 86.7C276.04 86.7 275.8 86.69 275.56 86.65Z" fill="black"/>
<path d="M277.18 85.49C274.52 84.74 272.97 81.98 273.72 79.33C274.46 76.67 277.22 75.12 279.88 75.86C282.54 76.61 284.09 79.37 283.35 82.02C282.73 84.23 280.72 85.68 278.53 85.68C278.09 85.68 277.63 85.62 277.18 85.49Z" fill="black"/>
<path d="M274.51 81.0598C274.34 78.2998 276.43 75.9298 279.18 75.7498C279.31 75.7398 279.67 75.6898 280.3 75.6698C283.06 75.5698 285.38 77.7298 285.47 80.4898C285.57 83.2498 283.41 85.5598 280.65 85.6598C280.65 85.6598 280.36 85.6898 279.82 85.7298C279.72 85.7398 279.61 85.7398 279.5 85.7398C276.88 85.7398 274.68 83.7098 274.51 81.0598Z" fill="black"/>
<path d="M288.81 85.6602C286.05 85.5302 283.92 83.1902 284.04 80.4402C284.17 77.6802 286.51 75.5402 289.27 75.6702C292.02 75.7902 294.16 78.1302 294.03 80.8902C293.91 83.5702 291.7 85.6602 289.04 85.6602H288.81Z" fill="black"/>
<path d="M290.66 83.0398C290.29 80.3098 292.22 77.7898 294.95 77.4198C297.69 77.0598 300.21 78.9798 300.57 81.7198C300.94 84.4498 299.02 86.9698 296.28 87.3398C296.05 87.3698 295.83 87.3798 295.61 87.3798C293.14 87.3798 291 85.5598 290.66 83.0398Z" fill="black"/>
<path d="M291.82 87.8501C291.24 85.1501 292.95 82.4901 295.65 81.9001C298.34 81.3101 301.01 83.0201 301.6 85.7201C302.18 88.4201 300.47 91.0801 297.77 91.6701C297.42 91.7501 297.06 91.7901 296.71 91.7901C294.41 91.7901 292.33 90.1901 291.82 87.8501Z" fill="black"/>
<path d="M292.55 91.1202C291.95 88.4202 293.65 85.7502 296.35 85.1502C299.04 84.5502 301.71 86.2502 302.31 88.9502C302.91 91.6402 301.21 94.3102 298.51 94.9102C298.15 94.9902 297.78 95.0302 297.42 95.0302C295.13 95.0302 293.07 93.4402 292.55 91.1202Z" fill="black"/>
<path d="M294.82 99.4298C294.09 96.7598 295.66 94.0098 298.32 93.2898C300.98 92.5598 303.74 94.1298 304.46 96.7898C305.19 99.4498 303.62 102.2 300.96 102.93C300.52 103.05 300.07 103.11 299.64 103.11C297.44 103.11 295.42 101.65 294.82 99.4298Z" fill="black"/>
<path d="M297.26 109.15C296.59 106.48 298.21 103.76 300.89 103.09C303.57 102.41 306.29 104.04 306.96 106.72C307.63 109.4 306.01 112.11 303.33 112.78C302.92 112.89 302.51 112.94 302.11 112.94C299.87 112.94 297.83 111.42 297.26 109.15Z" fill="black"/>
<path d="M298.55 114.08C298.02 111.37 299.78 108.74 302.49 108.21C305.2 107.68 307.83 109.44 308.36 112.15C308.89 114.86 307.13 117.49 304.42 118.02C304.09 118.09 303.77 118.12 303.45 118.12C301.11 118.12 299.02 116.46 298.55 114.08Z" fill="black"/>
<path d="M300.16 120.45C299.32 117.82 300.77 115 303.4 114.16C306.02 113.32 308.84 114.76 309.68 117.4C310.53 120.03 309.08 122.84 306.45 123.68C305.94 123.84 305.42 123.92 304.92 123.92C302.8 123.92 300.84 122.57 300.16 120.45Z" fill="black"/>
<path d="M301.34 124.75C300.94 122.02 302.84 119.48 305.57 119.09C308.31 118.69 310.84 120.59 311.23 123.32C311.63 126.06 309.73 128.59 307 128.98C306.76 129.02 306.52 129.04 306.28 129.04C303.83 129.04 301.7 127.24 301.34 124.75Z" fill="black"/>
<path d="M303.1 131.71C302.22 129.1 303.62 126.26 306.24 125.38C308.85 124.49 311.69 125.9 312.57 128.51C313.46 131.13 312.06 133.97 309.44 134.85C308.91 135.03 308.37 135.11 307.84 135.11C305.75 135.11 303.81 133.8 303.1 131.71Z" fill="black"/>
<path d="M303.86 134.95C303.19 132.27 304.82 129.55 307.49 128.88C310.18 128.21 312.89 129.84 313.56 132.52C314.24 135.19 312.61 137.91 309.93 138.58C309.52 138.68 309.11 138.73 308.71 138.73C306.47 138.73 304.43 137.22 303.86 134.95Z" fill="black"/>
<path d="M305.21 140.42C304.55 137.74 306.19 135.03 308.87 134.37C311.55 133.7 314.26 135.34 314.92 138.02C315.58 140.7 313.94 143.41 311.26 144.07C310.86 144.17 310.46 144.22 310.06 144.22C307.82 144.22 305.78 142.69 305.21 140.42Z" fill="black"/>
<path d="M306.21 143.84C305.43 141.19 306.96 138.42 309.61 137.65C312.26 136.87 315.03 138.39 315.81 141.05C316.58 143.7 315.06 146.47 312.41 147.24C311.94 147.38 311.47 147.45 311 147.45C308.84 147.45 306.84 146.03 306.21 143.84Z" fill="black"/>
<path d="M308.03 150.96C307.35 148.28 308.96 145.56 311.63 144.87C314.3 144.18 317.03 145.79 317.72 148.47C318.41 151.14 316.8 153.87 314.12 154.56C313.7 154.66 313.29 154.71 312.87 154.71C310.65 154.71 308.61 153.22 308.03 150.96Z" fill="black"/>
<path d="M309.85 156.39C308.81 153.83 310.04 150.91 312.6 149.87C315.15 148.83 318.07 150.06 319.11 152.61C320.16 155.17 318.93 158.09 316.37 159.13C315.75 159.38 315.11 159.5 314.49 159.5C312.51 159.5 310.65 158.33 309.85 156.39Z" fill="black"/>
<path d="M315.94 158.99C313.51 157.69 312.6 154.65 313.91 152.22C315.21 149.79 318.25 148.88 320.68 150.18C323.11 151.49 324.02 154.52 322.71 156.96C321.81 158.63 320.09 159.59 318.31 159.59C317.51 159.59 316.7 159.4 315.94 158.99Z" fill="black"/>
<path d="M319.32 154.53C316.65 153.87 315.01 151.16 315.68 148.48C316.34 145.8 319.05 144.16 321.73 144.83C324.41 145.49 326.05 148.21 325.38 150.89C324.82 153.16 322.78 154.68 320.53 154.68C320.13 154.68 319.73 154.63 319.32 154.53Z" fill="black"/>
<path d="M320.79 148.62C318.11 147.96 316.47 145.25 317.13 142.57C317.79 139.89 320.5 138.25 323.18 138.91C325.86 139.57 327.5 142.28 326.84 144.96C326.28 147.24 324.24 148.77 321.99 148.77C321.59 148.77 321.19 148.72 320.79 148.62Z" fill="black"/>
<path d="M322.78 141.19C320.1 140.51 318.48 137.79 319.16 135.12C319.83 132.44 322.55 130.82 325.23 131.5C327.91 132.18 329.53 134.9 328.85 137.57C328.28 139.84 326.24 141.35 324.01 141.35C323.6 141.35 323.19 141.3 322.78 141.19Z" fill="black"/>
<path d="M324.24 135.42C321.56 134.75 319.94 132.03 320.61 129.35C321.28 126.67 324 125.05 326.68 125.73C329.36 126.4 330.98 129.12 330.31 131.79C329.74 134.06 327.7 135.58 325.46 135.58C325.06 135.58 324.65 135.53 324.24 135.42Z" fill="black"/>
<path d="M325.67 130.55C322.98 129.9 321.33 127.2 321.97 124.52C322.62 121.83 325.32 120.18 328.01 120.82C330.69 121.47 332.34 124.17 331.7 126.86C331.15 129.15 329.1 130.69 326.84 130.69C326.45 130.69 326.06 130.64 325.67 130.55Z" fill="black"/>
<path d="M327.05 124.8C324.37 124.15 322.72 121.44 323.38 118.76C324.03 116.08 326.73 114.43 329.41 115.08C332.1 115.73 333.74 118.44 333.09 121.12C332.54 123.4 330.49 124.94 328.24 124.94C327.85 124.94 327.45 124.89 327.05 124.8Z" fill="black"/>
<path d="M328.799 120.87C326.049 120.56 324.08 118.08 324.39 115.34C324.7 112.6 327.18 110.63 329.92 110.94C332.66 111.25 334.639 113.72 334.329 116.47C334.039 119.02 331.88 120.9 329.37 120.9C329.18 120.9 328.989 120.9 328.799 120.87Z" fill="black"/>
<path d="M330.43 111.11C328.22 109.46 327.76 106.33 329.4 104.11C331.05 101.89 334.18 101.43 336.4 103.08C338.62 104.73 339.08 107.86 337.43 110.08C336.45 111.4 334.94 112.09 333.41 112.09C332.38 112.09 331.33 111.77 330.43 111.11Z" fill="black"/>
<path d="M333.44 105.13C332.82 102.44 334.49 99.7602 337.18 99.1302C339.87 98.5102 342.56 100.18 343.18 102.87C343.81 105.56 342.14 108.24 339.45 108.87C339.07 108.96 338.69 109 338.31 109C336.04 109 333.98 107.44 333.44 105.13Z" fill="black"/>
<path d="M339.33 108.53C336.86 107.29 335.87 104.28 337.12 101.81C338.36 99.3502 341.37 98.3602 343.83 99.6002C346.3 100.85 347.29 103.85 346.04 106.32C345.16 108.06 343.4 109.07 341.58 109.07C340.82 109.07 340.05 108.89 339.33 108.53Z" fill="black"/>
<path d="M341.84 109.37C339.79 107.52 339.64 104.35 341.5 102.31C343.36 100.27 346.52 100.11 348.56 101.97C350.61 103.83 350.76 106.99 348.9 109.04C347.91 110.12 346.56 110.67 345.2 110.67C344 110.67 342.79 110.24 341.84 109.37Z" fill="black"/>
<path d="M344.42 112.87C342.91 110.56 343.56 107.46 345.88 105.95C348.19 104.45 351.29 105.1 352.8 107.41C354.31 109.73 353.65 112.83 351.34 114.33C350.49 114.88 349.55 115.14 348.61 115.14C346.98 115.14 345.38 114.34 344.42 112.87Z" fill="black"/>
<path d="M346.07 118.02C345.37 115.35 346.98 112.62 349.65 111.93C352.32 111.23 355.05 112.84 355.74 115.51C356.44 118.18 354.83 120.91 352.16 121.61C351.74 121.72 351.32 121.77 350.91 121.77C348.68 121.77 346.65 120.28 346.07 118.02Z" fill="black"/>
<path d="M348.02 125.45C347.31 122.78 348.91 120.04 351.58 119.34C354.25 118.64 356.99 120.24 357.69 122.91C358.39 125.58 356.79 128.31 354.12 129.01C353.7 129.13 353.27 129.18 352.85 129.18C350.63 129.18 348.6 127.69 348.02 125.45Z" fill="black"/>
<path d="M351.3 138.03C350.61 135.36 352.2 132.63 354.88 131.93C357.55 131.24 360.28 132.83 360.98 135.51C361.68 138.18 360.08 140.91 357.41 141.61C356.98 141.72 356.56 141.77 356.14 141.77C353.92 141.77 351.89 140.28 351.3 138.03Z" fill="black"/>
<path d="M353.43 146.31C352.74 143.64 354.35 140.91 357.03 140.23C359.7 139.54 362.43 141.15 363.11 143.82C363.8 146.5 362.19 149.22 359.52 149.91C359.1 150.02 358.68 150.07 358.27 150.07C356.04 150.07 354.01 148.57 353.43 146.31Z" fill="black"/>
<path d="M356.27 155.2C355.12 152.69 356.24 149.72 358.75 148.58C361.27 147.44 364.23 148.55 365.37 151.07C366.51 153.58 365.4 156.54 362.89 157.69C362.22 157.99 361.51 158.13 360.82 158.13C358.92 158.13 357.11 157.05 356.27 155.2Z" fill="black"/>
<path d="M358.41 155.36C358.41 152.6 360.65 150.36 363.41 150.36C366.17 150.36 368.41 152.6 368.41 155.36C368.41 158.12 366.17 160.36 363.41 160.36C360.65 160.36 358.41 158.12 358.41 155.36Z" fill="black"/>
<path d="M364.69 157.99C362.03 157.25 360.47 154.5 361.2 151.84C361.93 149.18 364.69 147.61 367.35 148.35C370.01 149.08 371.57 151.83 370.84 154.49C370.23 156.71 368.22 158.17 366.02 158.17C365.58 158.17 365.14 158.11 364.69 157.99Z" fill="black"/>
<path d="M366.03 153.12C363.37 152.38 361.82 149.62 362.56 146.96C363.3 144.3 366.06 142.75 368.72 143.49C371.38 144.23 372.94 146.99 372.19 149.65C371.58 151.86 369.57 153.3 367.38 153.3C366.94 153.3 366.48 153.24 366.03 153.12Z" fill="black"/>
<path d="M371.07 134.21C368.4 133.51 366.8 130.77 367.5 128.1C368.2 125.43 370.93 123.83 373.61 124.54C376.28 125.23 377.88 127.97 377.18 130.64C376.59 132.88 374.56 134.37 372.34 134.37C371.92 134.37 371.5 134.32 371.07 134.21Z" fill="black"/>
<path d="M372.41 129.11C369.74 128.39 368.17 125.65 368.89 122.98C369.61 120.32 372.36 118.74 375.02 119.46C377.69 120.18 379.26 122.93 378.54 125.59C377.94 127.82 375.92 129.29 373.72 129.29C373.29 129.29 372.85 129.23 372.41 129.11Z" fill="black"/>
<path d="M373.52 124.13C370.86 123.38 369.32 120.61 370.08 117.95C370.83 115.3 373.6 113.76 376.26 114.52C378.91 115.28 380.45 118.04 379.69 120.7C379.07 122.89 377.07 124.33 374.89 124.33C374.44 124.33 373.97 124.26 373.52 124.13Z" fill="black"/>
<path d="M375.2 118.42C372.52 117.74 370.9 115.02 371.58 112.35C372.26 109.67 374.98 108.05 377.66 108.73C380.33 109.41 381.95 112.13 381.27 114.81C380.7 117.07 378.67 118.58 376.43 118.58C376.03 118.58 375.61 118.53 375.2 118.42Z" fill="black"/>
<path d="M377.73 108.43C375.05 107.76 373.43 105.04 374.1 102.36C374.78 99.68 377.5 98.06 380.18 98.74C382.85 99.41 384.48 102.13 383.8 104.81C383.23 107.08 381.19 108.59 378.95 108.59C378.55 108.59 378.14 108.54 377.73 108.43Z" fill="black"/>
<path d="M380.81 96.39C378.13 95.7 376.53 92.98 377.22 90.3C377.9 87.63 380.63 86.02 383.31 86.71C385.98 87.4 387.59 90.12 386.9 92.8C386.32 95.06 384.29 96.55 382.06 96.55C381.65 96.55 381.23 96.5 380.81 96.39Z" fill="black"/>
<path d="M382.09 89.8299C379.49 88.9099 378.13 86.0499 379.05 83.4399C379.97 80.8399 382.83 79.4799 385.43 80.3999C388.03 81.3199 389.4 84.1799 388.48 86.7799C387.75 88.8299 385.82 90.1099 383.76 90.1099C383.21 90.1099 382.64 90.0199 382.09 89.8299Z" fill="black"/>
<path d="M381.05 80.5801C381.05 77.8201 383.28 75.5801 386.05 75.5801C388.81 75.5801 391.05 77.8201 391.05 80.5801C391.05 83.3401 388.81 85.5801 386.05 85.5801C383.28 85.5801 381.05 83.3401 381.05 80.5801Z" fill="black"/>
<path d="M389.09 85.6498C386.33 85.5798 384.15 83.2898 384.22 80.5298C384.29 77.7698 386.58 75.5898 389.34 75.6598C392.1 75.7198 394.28 78.0098 394.22 80.7798C394.15 83.4898 391.92 85.6498 389.22 85.6498H389.09Z" fill="black"/>
<path d="M386.33 80.6602C386.31 77.9002 388.54 75.6602 391.3 75.6402C394.06 75.6302 396.31 77.8602 396.33 80.6202C396.33 83.3802 394.11 85.6302 391.35 85.6402H391.33C388.58 85.6402 386.34 83.4202 386.33 80.6602Z" fill="black"/>
<path d="M397.07 80.6102C397.05 77.8502 399.28 75.5902 402.04 75.5802C404.8 75.5602 407.05 77.7802 407.07 80.5502C407.09 83.3102 404.86 85.5602 402.1 85.5802H402.07C399.33 85.5802 397.09 83.3602 397.07 80.6102Z" fill="black"/>
<path d="M400.28 85.0901C398.06 83.7101 397.26 80.8301 398.51 78.4901C399.8 76.0501 402.83 75.1301 405.27 76.4201C406.05 76.8701 406.64 77.2201 407.46 78.1501C409.24 80.2701 408.97 83.4201 406.86 85.2001C405.92 85.9901 404.78 86.3701 403.64 86.3701C402.43 86.3701 401.23 85.9401 400.28 85.0901Z" fill="black"/>
<path d="M403.64 86.3701C400.88 86.3701 398.64 84.1301 398.64 81.3701C398.64 78.6101 400.87 76.3701 403.64 76.3701C406.4 76.3701 408.64 78.6101 408.64 81.3701C408.64 84.1301 406.4 86.3701 403.64 86.3701Z" fill="black"/>
<path d="M129.5 195.77C127.62 193.75 127.74 190.59 129.76 188.71C131.78 186.83 134.95 186.94 136.83 188.97C138.71 190.99 138.59 194.15 136.57 196.03C135.61 196.93 134.39 197.37 133.17 197.37C131.82 197.37 130.49 196.83 129.5 195.77Z" fill="black"/>
<path d="M127.78 186.15C126.72 183.6 127.93 180.68 130.48 179.62C133.03 178.55 135.95 179.76 137.02 182.31C138.08 184.86 136.87 187.79 134.32 188.85C133.69 189.11 133.04 189.23 132.4 189.23C130.44 189.23 128.58 188.07 127.78 186.15Z" fill="black"/>
<path d="M120.3 183.3C120.01 180.55 121.99 178.09 124.74 177.79C127.48 177.49 129.95 179.48 130.24 182.22C130.54 184.97 128.55 187.44 125.81 187.73C125.63 187.75 125.45 187.76 125.27 187.76C122.75 187.76 120.58 185.86 120.3 183.3Z" fill="black"/>
<path d="M118.18 187.82C115.41 187.72 113.26 185.4 113.36 182.64C113.46 179.88 115.78 177.73 118.53 177.83C121.29 177.92 123.45 180.24 123.35 183C123.25 185.7 121.04 187.82 118.36 187.82H118.18Z" fill="black"/>
<path d="M107.65 185.48C105.55 183.68 105.31 180.52 107.11 178.43C108.91 176.33 112.06 176.09 114.15 177.89C116.25 179.69 116.49 182.85 114.69 184.94C113.7 186.09 112.3 186.68 110.9 186.68C109.74 186.68 108.59 186.29 107.65 185.48Z" fill="black"/>
<path d="M105.79 175.18C105.75 172.41 107.96 170.14 110.72 170.1C113.48 170.05 115.75 172.26 115.79 175.02C115.84 177.78 113.64 180.05 110.87 180.1H110.79C108.07 180.1 105.84 177.91 105.79 175.18Z" fill="black"/>
<path d="M108.78 172.34C108.7 169.58 110.88 167.28 113.64 167.2C116.4 167.12 118.7 169.3 118.78 172.06C118.85 174.82 116.68 177.12 113.92 177.2H113.78C111.08 177.2 108.86 175.05 108.78 172.34Z" fill="black"/>
<path d="M115.39 172.16C115.32 169.4 117.5 167.1 120.26 167.03C123.02 166.96 125.31 169.14 125.38 171.91C125.45 174.67 123.27 176.96 120.51 177.03H120.38C117.68 177.03 115.45 174.87 115.39 172.16Z" fill="black"/>
<path d="M120.05 167.65C117.41 166.82 115.95 164.01 116.78 161.38C117.6 158.74 120.41 157.28 123.04 158.11C125.68 158.93 127.14 161.74 126.32 164.37C125.65 166.51 123.67 167.88 121.55 167.88C121.05 167.88 120.55 167.8 120.05 167.65Z" fill="black"/>
<path d="M125.96 162.27C125.28 159.6 126.89 156.87 129.57 156.19C132.24 155.51 134.97 157.12 135.65 159.8C136.33 162.47 134.72 165.2 132.04 165.88C131.62 165.98 131.21 166.04 130.8 166.04C128.57 166.03 126.53 164.53 125.96 162.27Z" fill="black"/>
<path d="M127.25 155.69C127.25 152.93 129.49 150.69 132.25 150.69C135.01 150.69 137.25 152.93 137.25 155.69C137.25 158.45 135.01 160.69 132.25 160.69C129.49 160.69 127.25 158.45 127.25 155.69Z" fill="black"/>
<path d="M127.19 132.76C127.19 130 129.41 127.76 132.18 127.75C134.94 127.74 137.18 129.98 137.19 132.74C137.2 135.5 134.97 137.74 132.2 137.75H132.19C129.44 137.75 127.2 135.52 127.19 132.76Z" fill="black"/>
<path d="M118.9 111.5C116.69 109.84 116.24 106.71 117.89 104.5C119.54 102.29 122.68 101.83 124.89 103.49C127.1 105.14 127.56 108.27 125.9 110.48C124.92 111.8 123.42 112.49 121.89 112.49C120.85 112.49 119.8 112.17 118.9 111.5Z" fill="black"/>
<path d="M116.65 100.05C116.56 97.2999 118.73 94.9799 121.49 94.8899C124.24 94.7999 126.56 96.9699 126.65 99.7299C126.74 102.49 124.57 104.8 121.81 104.89H121.65C118.96 104.89 116.74 102.76 116.65 100.05Z" fill="black"/>
<path d="M112.04 97.7102C111.85 94.9502 113.93 92.5602 116.69 92.3702C119.44 92.1902 121.83 94.2702 122.02 97.0202C122.21 99.7802 120.12 102.16 117.37 102.35C117.25 102.36 117.14 102.36 117.02 102.36C114.42 102.36 112.22 100.34 112.04 97.7102Z" fill="black"/>
<path d="M107.75 97.9898C107.57 95.2398 109.65 92.8498 112.4 92.6598C115.16 92.4798 117.55 94.5598 117.73 97.3198C117.92 100.07 115.83 102.46 113.08 102.64C112.97 102.64 112.85 102.66 112.74 102.66C110.13 102.66 107.93 100.63 107.75 97.9898Z" fill="black"/>
<path d="M101.07 102.52C98.3302 102.22 96.3502 99.7499 96.6502 96.9999C96.9502 94.2599 99.4202 92.2799 102.17 92.5799C104.91 92.8799 106.89 95.3599 106.59 98.0999C106.31 100.66 104.14 102.55 101.63 102.55C101.44 102.55 101.26 102.54 101.07 102.52Z" fill="black"/>
<path d="M98.4603 97.27C95.8403 96.41 94.4103 93.58 95.2803 90.96C96.1403 88.33 98.9603 86.91 101.59 87.77C104.21 88.63 105.64 91.46 104.77 94.08C104.08 96.18 102.13 97.52 100.03 97.52C99.5103 97.52 98.9803 97.44 98.4603 97.27Z" fill="black"/>
<path d="M95.94 91.2302C93.54 89.8702 92.7 86.8202 94.06 84.4202C95.42 82.0202 98.47 81.1702 100.88 82.5302C103.28 83.9002 104.12 86.9502 102.76 89.3502C101.84 90.9702 100.15 91.8902 98.4 91.8902C97.57 91.8902 96.72 91.6802 95.94 91.2302Z" fill="black"/>
<path d="M62.7699 86.8799C62.7699 84.1199 65.0099 81.8799 67.7699 81.8799C70.5299 81.8799 72.7699 84.1199 72.7699 86.8799C72.7699 89.6499 70.5299 91.8799 67.7699 91.8799C65.0099 91.8799 62.7699 89.6499 62.7699 86.8799ZM32.1299 86.8799C32.1299 84.1199 34.3699 81.8799 37.1299 81.8799C39.8899 81.8799 42.1299 84.1199 42.1299 86.8799C42.1299 89.6499 39.8899 91.8799 37.1299 91.8799C34.3699 91.8799 32.1299 89.6499 32.1299 86.8799Z" fill="black"/>
<path d="M1.73968 92.4201C-0.350322 90.6201 -0.590322 87.4701 1.19968 85.3701C2.99968 83.2702 6.15968 83.0301 8.24968 84.8301C10.3497 86.6301 10.5897 89.7801 8.78968 91.8801C7.79968 93.0301 6.39968 93.6201 4.98968 93.6201C3.83968 93.6201 2.68968 93.2301 1.73968 92.4201Z" fill="black"/>
<path d="M0.05 199.15C0.05 196.39 2.28 194.15 5.05 194.15C7.81 194.14 10.05 196.38 10.05 199.14C10.05 201.9 7.81 204.14 5.05 204.14C2.29 204.15 0.05 201.91 0.05 199.15ZM0.03 171.52C0.03 168.76 2.27 166.52 5.03 166.51C7.79 166.51 10.03 168.75 10.03 171.51C10.03 174.27 7.8 176.51 5.04 176.51C2.28 176.51 0.04 174.28 0.03 171.52ZM0.02 143.89C0.02 141.12 2.26 138.89 5.02 138.88C7.78 138.88 10.02 141.12 10.02 143.88C10.03 146.64 7.79 148.88 5.03 148.88C2.27 148.89 0.03 146.65 0.02 143.89ZM0 116.26C0 113.49 2.24 111.26 5 111.25C7.76 111.25 10 113.49 10 116.25C10 119.01 7.76 121.25 5 121.25C2.25 121.25 0 119.02 0 116.26Z" fill="black"/>
<path d="M5.02027 256.52C2.26027 256.52 0.0302734 254.27 0.0302734 251.51C0.0302734 248.75 2.27027 246.51 5.03027 246.52C7.80027 246.52 10.0303 248.76 10.0303 251.52C10.0303 254.28 7.79027 256.52 5.03027 256.52H5.02027Z" fill="black"/>
<path d="M2.12988 278.78C2.12988 276.02 4.36988 273.78 7.12988 273.78C9.88988 273.78 12.1299 276.02 12.1299 278.78C12.1299 281.54 9.88988 283.78 7.12988 283.78C4.36988 283.78 2.12988 281.54 2.12988 278.78Z" fill="black"/>
<path d="M36.2803 278.78C36.2803 276.01 38.5203 273.78 41.2803 273.78C44.0503 273.78 46.2803 276.01 46.2803 278.78C46.2803 281.54 44.0503 283.78 41.2903 283.78C38.5203 283.78 36.2803 281.54 36.2803 278.78ZM70.4403 278.77C70.4403 276.01 72.6803 273.77 75.4403 273.77C78.2003 273.77 80.4403 276.01 80.4403 278.77C80.4403 281.53 78.2003 283.77 75.4403 283.77C72.6803 283.77 70.4403 281.53 70.4403 278.77Z" fill="black"/>
<path d="M108.09 273.37C105.78 271.86 105.12 268.76 106.62 266.45C108.13 264.13 111.22 263.48 113.54 264.98C115.85 266.48 116.51 269.58 115.01 271.9C114.05 273.37 112.45 274.17 110.81 274.17C109.88 274.17 108.93 273.91 108.09 273.37Z" fill="black"/>
<path d="M114.24 267.51C114.22 264.74 116.43 262.48 119.19 262.45C121.95 262.42 124.21 264.64 124.24 267.4C124.28 270.16 122.06 272.42 119.3 272.45H119.24C116.51 272.45 114.28 270.25 114.24 267.51Z" fill="black"/>
<path d="M126.44 272.74C123.71 272.31 121.85 269.75 122.28 267.02C122.71 264.29 125.27 262.43 128 262.86C130.73 263.3 132.59 265.86 132.16 268.59C131.77 271.05 129.64 272.8 127.23 272.8C126.97 272.8 126.7 272.78 126.44 272.74Z" fill="black"/>
<path d="M128.36 270.74C126.11 269.14 125.58 266.02 127.18 263.77C128.78 261.52 131.91 260.99 134.16 262.59C136.41 264.19 136.93 267.31 135.33 269.56C134.36 270.93 132.82 271.67 131.25 271.67C130.25 271.67 129.24 271.37 128.36 270.74Z" fill="black"/>
<path d="M129.91 261.51C127.79 259.74 127.52 256.58 129.29 254.47C131.06 252.35 134.22 252.07 136.33 253.84C138.45 255.62 138.73 258.77 136.96 260.89C135.97 262.07 134.55 262.68 133.12 262.68C131.99 262.68 130.85 262.29 129.91 261.51Z" fill="black"/>
<path d="M136.55 261.39C133.92 260.54 132.48 257.72 133.34 255.1C134.19 252.47 137.01 251.03 139.64 251.89C142.26 252.74 143.7 255.56 142.85 258.18C142.16 260.3 140.2 261.64 138.1 261.64C137.58 261.64 137.06 261.56 136.55 261.39Z" fill="black"/>
<path d="M137.57 254.9C137.57 252.14 139.81 249.9 142.57 249.9C145.33 249.9 147.57 252.14 147.57 254.9C147.57 257.66 145.33 259.9 142.57 259.9C139.81 259.9 137.57 257.66 137.57 254.9Z" fill="black"/>
<path d="M142.57 230.24C139.82 230.24 137.58 228 137.58 225.24C137.58 222.48 139.82 220.24 142.58 220.24C145.34 220.24 147.58 222.48 147.58 225.24C147.58 228 145.34 230.24 142.58 230.24H142.57Z" fill="black"/>
<path d="M133.53 194.52C132.74 191.88 134.25 189.09 136.89 188.31C139.54 187.51 142.32 189.02 143.11 191.67C143.9 194.31 142.4 197.1 139.75 197.89C139.27 198.03 138.79 198.1 138.32 198.1C136.16 198.1 134.18 196.69 133.53 194.52Z" fill="black"/>
<path d="M138.33 198.1C135.57 198.1 133.33 195.86 133.33 193.1C133.33 190.34 135.56 188.1 138.33 188.1C141.09 188.1 143.33 190.34 143.33 193.1C143.33 195.86 141.09 198.1 138.33 198.1Z" fill="black"/>
<path d="M32.4802 156.78C32.3902 154.02 34.5602 151.71 37.3202 151.62C40.0802 151.54 42.3902 153.71 42.4702 156.46C42.5602 159.23 40.3902 161.53 37.6302 161.62H37.4702C34.7802 161.62 32.5602 159.49 32.4802 156.78Z" fill="black"/>
<path d="M47.2402 172.53C44.4802 172.45 42.3102 170.14 42.4002 167.38C42.4802 164.62 44.7902 162.45 47.5502 162.54C50.3102 162.62 52.4802 164.93 52.3902 167.69C52.3102 170.4 50.0902 172.54 47.4002 172.54C47.4002 172.54 47.2902 172.54 47.2402 172.53Z" fill="black"/>
<path d="M69.4103 167.7C69.3303 164.93 71.5103 162.64 74.2703 162.56C77.0303 162.48 79.3303 164.66 79.4003 167.42C79.4803 170.18 77.3003 172.48 74.5403 172.56H74.4003C71.7003 172.56 69.4803 170.41 69.4103 167.7Z" fill="black"/>
<path d="M81.1205 166.17C79.9505 163.67 81.0305 160.7 83.5305 159.53C86.0405 158.36 89.0105 159.44 90.1805 161.94C91.3505 164.45 90.2705 167.42 87.7605 168.59C87.0805 168.91 86.3605 169.06 85.6505 169.06C83.7705 169.06 81.9705 167.99 81.1205 166.17Z" fill="black"/>
<path d="M95.56 156.69C93.04 155.56 91.91 152.6 93.04 150.08C94.17 147.56 97.13 146.43 99.65 147.56C102.17 148.69 103.29 151.65 102.17 154.17C101.33 156.03 99.51 157.13 97.6 157.13C96.92 157.13 96.22 156.99 95.56 156.69Z" fill="black"/>
<path d="M93.9501 136.22C93.5801 133.48 95.4901 130.96 98.2301 130.58C100.96 130.21 103.48 132.12 103.86 134.85C104.24 137.59 102.33 140.11 99.5901 140.49C99.3601 140.52 99.1301 140.54 98.9001 140.54C96.4401 140.54 94.3001 138.72 93.9501 136.22Z" fill="black"/>
<path d="M87.92 128.13C85.84 126.32 85.62 123.16 87.43 121.07C89.24 118.99 92.39 118.77 94.48 120.58C96.56 122.39 96.79 125.54 94.98 127.63C93.99 128.77 92.6 129.35 91.2 129.35C90.04 129.35 88.87 128.95 87.92 128.13Z" fill="black"/>
<path d="M81.9598 125.21C79.2698 124.58 77.5898 121.9 78.2098 119.21C78.8298 116.52 81.5198 114.84 84.2098 115.46C86.8998 116.08 88.5798 118.77 87.9498 121.46C87.4198 123.77 85.3598 125.34 83.0798 125.34C82.7098 125.34 82.3298 125.29 81.9598 125.21Z" fill="black"/>
<path d="M74.3505 123.26C71.5905 123.22 69.3805 120.95 69.4205 118.19C69.4705 115.43 71.7405 113.22 74.4905 113.26C77.2605 113.3 79.4605 115.57 79.4205 118.34C79.3905 121.07 77.1505 123.26 74.4305 123.26H74.3505Z" fill="black"/>
<path d="M58.5702 123.03C55.8102 122.99 53.6002 120.72 53.6402 117.96C53.6802 115.2 55.9502 113 58.7102 113.04C61.4702 113.08 63.6802 115.35 63.6402 118.11C63.6002 120.84 61.3702 123.03 58.6502 123.03H58.5702Z" fill="black"/>
<path d="M54.2095 123.01C51.4495 123 49.2195 120.75 49.2295 117.99C49.2395 115.23 51.4895 113 54.2495 113.02C57.0095 113.03 59.2395 115.28 59.2295 118.04C59.2295 120.79 56.9795 123.02 54.2295 123.02H54.2095V123.01Z" fill="black"/>
<path d="M37.2398 133.5C34.4898 133.27 32.4498 130.85 32.6798 128.09C32.9098 125.34 35.3298 123.3 38.0798 123.53C40.8298 123.77 42.8798 126.19 42.6398 128.94C42.4198 131.55 40.2398 133.51 37.6698 133.51C37.5298 133.51 37.3798 133.51 37.2398 133.5Z" fill="black"/>
<path d="M36.6698 139.94C33.9198 139.7 31.8798 137.27 32.1198 134.52C32.3598 131.77 34.7798 129.74 37.5398 129.97C40.2898 130.21 42.3198 132.64 42.0798 135.39C41.8598 137.99 39.6698 139.96 37.1098 139.96C36.9598 139.96 36.8198 139.96 36.6698 139.94Z" fill="black"/>
<path d="M32.1199 145.57C32.0299 142.81 34.1899 140.49 36.9499 140.4C39.7099 140.3 42.0299 142.46 42.1199 145.22C42.2099 147.98 40.0499 150.3 37.2899 150.39C37.2899 150.39 37.1799 150.39 37.1199 150.39C34.4399 150.39 32.2199 148.26 32.1199 145.56V145.57Z" fill="black"/>
<path d="M37.4797 161.62C34.7897 161.62 32.5697 159.49 32.4897 156.78L32.1297 145.55C32.0397 142.79 34.2097 140.48 36.9697 140.39C39.7297 140.3 42.0397 142.47 42.1297 145.23L42.4897 156.46C42.5797 159.22 40.4097 161.53 37.6497 161.62C37.5897 161.62 37.5397 161.62 37.4797 161.62Z" fill="black"/>
<path d="M92.87 205.15C90.33 204.07 89.14 201.13 90.22 198.59C91.31 196.05 94.24 194.87 96.78 195.95C99.32 197.03 100.51 199.97 99.43 202.51C98.62 204.41 96.77 205.55 94.82 205.55C94.17 205.55 93.5 205.43 92.87 205.15Z" fill="black"/>
<path d="M82.0199 202.12C79.2599 202.1 77.0299 199.85 77.0499 197.09C77.0499 194.33 79.3099 192.1 82.0699 192.11C84.8299 192.13 87.0599 194.38 87.0499 197.14C87.0299 199.89 84.7999 202.12 82.0499 202.12H82.0199Z" fill="black"/>
<path d="M49.3003 201.97C46.5403 201.96 44.3103 199.71 44.3203 196.95C44.3203 194.19 46.5803 191.96 49.3503 191.97C52.1103 191.98 54.3303 194.23 54.3203 196.99C54.3103 199.75 52.0703 201.97 49.3203 201.97H49.3003Z" fill="black"/>
<path d="M35.9896 213.79C33.3396 212.99 31.8496 210.2 32.6496 207.55C33.4496 204.91 36.2396 203.42 38.8796 204.22C41.5196 205.02 43.0196 207.81 42.2196 210.45C41.5596 212.61 39.5796 214 37.4296 214C36.9496 214 36.4696 213.93 35.9896 213.79Z" fill="black"/>
<path d="M36.9798 222.76C34.2198 222.68 32.0498 220.38 32.1198 217.63C32.1998 214.86 34.4998 212.69 37.2598 212.76C40.0198 212.84 42.1998 215.14 42.1198 217.9C42.0398 220.62 39.8198 222.76 37.1198 222.76H36.9798Z" fill="black"/>
<path d="M33.7398 241.45C32.8398 238.83 34.2297 235.99 36.8497 235.09C39.4597 234.2 42.2998 235.59 43.1998 238.2C44.0898 240.81 42.6998 243.65 40.0898 244.55C39.5498 244.74 39.0098 244.82 38.4698 244.82C36.3898 244.82 34.4498 243.52 33.7398 241.45Z" fill="black"/>
<path d="M42.7905 249.96C40.2105 248.97 38.9205 246.08 39.9105 243.5C40.8905 240.93 43.7905 239.64 46.3605 240.62C48.9405 241.6 50.2405 244.5 49.2505 247.07C48.4905 249.07 46.5905 250.29 44.5805 250.29C43.9805 250.29 43.3805 250.18 42.7905 249.96Z" fill="black"/>
<path d="M49.6397 252.53C46.8797 252.5 44.6598 250.23 44.6998 247.47C44.7298 244.71 46.9898 242.5 49.7498 242.53C52.5198 242.56 54.7298 244.82 54.6998 247.58C54.6598 250.33 52.4297 252.53 49.6897 252.53H49.6397Z" fill="black"/>
<path d="M59.5895 247.61C59.4495 244.85 61.5795 242.5 64.3395 242.37C67.0995 242.23 69.4395 244.35 69.5795 247.11C69.7195 249.87 67.5895 252.22 64.8295 252.35C64.7495 252.36 64.6595 252.36 64.5795 252.36C61.9295 252.36 59.7295 250.28 59.5895 247.61Z" fill="black"/>
<path d="M70.3203 252.35C67.5603 252.17 65.4802 249.78 65.6702 247.03C65.8502 244.27 68.2402 242.19 70.9902 242.37C73.7502 242.56 75.8303 244.94 75.6403 247.7C75.4703 250.34 73.2703 252.36 70.6603 252.36C70.5503 252.36 70.4403 252.36 70.3203 252.35Z" fill="black"/>
<path d="M99.2802 242.07C97.3402 240.11 97.3602 236.94 99.3302 235C101.29 233.06 104.46 233.08 106.4 235.05C108.34 237.01 108.32 240.18 106.36 242.12C105.38 243.08 104.11 243.56 102.84 243.56C101.55 243.56 100.26 243.06 99.2802 242.07Z" fill="black"/>
<path d="M103.44 239.05C101.1 237.58 100.39 234.49 101.86 232.15C103.33 229.81 106.41 229.11 108.75 230.57C111.09 232.04 111.8 235.13 110.33 237.47C109.38 238.98 107.75 239.81 106.09 239.81C105.18 239.81 104.26 239.56 103.44 239.05Z" fill="black"/>
<path d="M103.56 216.6C103 213.89 104.74 211.25 107.45 210.69C110.15 210.13 112.79 211.88 113.35 214.58C113.91 217.29 112.17 219.93 109.46 220.49C109.12 220.56 108.78 220.59 108.45 220.59C106.13 220.59 104.04 218.96 103.56 216.6Z" fill="black"/>
<path d="M233.33 45.01C233.33 42.25 235.55 40 238.31 40C241.08 39.99 243.32 42.22 243.33 44.99C243.33 47.75 241.1 49.99 238.34 50H238.32C235.57 50 233.33 47.76 233.33 45.01Z" fill="black"/>
<path d="M236.75 47.6698C234 47.3698 232.02 44.8998 232.32 42.1498C232.62 39.4098 235.09 37.4298 237.84 37.7298C240.58 38.0298 242.56 40.4998 242.26 43.2398C241.98 45.7998 239.82 47.6998 237.3 47.6998C237.12 47.6998 236.93 47.6898 236.75 47.6698Z" fill="black"/>
<path d="M227.2 43.4101C226.9 40.6701 228.87 38.2001 231.62 37.9001C234.37 37.5901 236.84 39.5701 237.14 42.3201C237.44 45.0601 235.47 47.5301 232.72 47.8301C232.53 47.8501 232.35 47.8601 232.16 47.8601C229.65 47.8601 227.48 45.9701 227.2 43.4101Z" fill="black"/>
<path d="M229.04 40.5898C226.29 40.4198 224.2 38.0398 224.37 35.2798C224.55 32.5298 226.93 30.4398 229.68 30.6098C232.44 30.7898 234.53 33.1698 234.35 35.9198C234.18 38.5698 231.98 40.5998 229.37 40.5998C229.26 40.5998 229.15 40.5998 229.04 40.5898Z" fill="black"/>
<path d="M224.3 25.4201C224.03 22.6701 226.04 20.2201 228.79 19.9501C231.53 19.6801 233.98 21.6901 234.25 24.4401C234.52 27.1901 232.51 29.6301 229.77 29.9001C229.6 29.9201 229.43 29.9301 229.27 29.9301C226.73 29.9301 224.56 28.0001 224.3 25.4201Z" fill="black"/>
<path d="M218.32 27.4002C216.2 25.6202 215.94 22.4602 217.72 20.3502C219.5 18.2402 222.66 17.9802 224.77 19.7602C226.88 21.5402 227.14 24.6902 225.36 26.8002C224.37 27.9802 222.96 28.5802 221.54 28.5802C220.4 28.5802 219.25 28.1902 218.32 27.4002Z" fill="black"/>
<path d="M216.89 18.9601C214.59 17.4401 213.95 14.3401 215.47 12.0301C216.99 9.73012 220.09 9.09012 222.4 10.6101C224.7 12.1301 225.34 15.2401 223.82 17.5401C222.86 19.0001 221.26 19.7901 219.64 19.7901C218.69 19.7901 217.74 19.5201 216.89 18.9601Z" fill="black"/>
<path d="M204.29 19.5101C201.53 19.4601 199.33 17.1801 199.38 14.4201C199.43 11.6601 201.71 9.46011 204.47 9.51011C207.23 9.56011 209.43 11.8401 209.38 14.6001C209.33 17.3301 207.1 19.5101 204.38 19.5101H204.29Z" fill="black"/>
<path d="M199.61 9.70992C197.07 8.61992 195.89 5.67992 196.98 3.14992C198.07 0.609915 201.01 -0.570085 203.55 0.519915C206.08 1.60992 207.26 4.54992 206.17 7.07992C205.36 8.97992 203.51 10.1199 201.57 10.1199C200.91 10.1199 200.25 9.98992 199.61 9.70992Z" fill="black"/>
<path d="M171.45 10.01C168.69 10 166.46 7.75 166.47 4.99C166.47 2.22 168.73 0 171.49 0C174.25 0.02 176.48 2.26 176.47 5.02C176.47 7.78 174.22 10.01 171.47 10.01H171.45Z" fill="black"/>
<path d="M163.98 8.78006C162.17 6.70006 162.39 3.54006 164.47 1.72006C166.56 -0.089937 169.72 0.130063 171.53 2.22006C173.34 4.30006 173.12 7.46006 171.03 9.27006C170.09 10.1001 168.92 10.5001 167.76 10.5001C166.36 10.5001 164.97 9.92006 163.98 8.78006Z" fill="black"/>
<path d="M162.1 10.68C161.39 8.01005 162.98 5.28005 165.65 4.57005C168.32 3.86005 171.06 5.45005 171.76 8.12005C172.47 10.79 170.88 13.53 168.21 14.23C167.78 14.35 167.35 14.4 166.92 14.4C164.71 14.4 162.69 12.92 162.1 10.68Z" fill="black"/>
<path d="M160.74 15.1201C160.32 12.3901 162.2 9.84014 164.93 9.42014C167.66 9.01014 170.21 10.8801 170.63 13.6101C171.04 16.3401 169.17 18.8901 166.44 19.3101C166.18 19.3501 165.93 19.3701 165.68 19.3701C163.25 19.3701 161.12 17.5901 160.74 15.1201Z" fill="black"/>
<path d="M153.53 19.4801C150.78 19.3001 148.69 16.9201 148.87 14.1701C149.05 11.4101 151.43 9.32006 154.18 9.50006C156.94 9.68006 159.03 12.0601 158.85 14.8201C158.68 17.4601 156.48 19.4901 153.86 19.4901C153.75 19.4901 153.64 19.4901 153.53 19.4801Z" fill="black"/>
<path d="M145.75 17.53C144.28 15.2 144.98 12.11 147.32 10.64C149.66 9.17 152.75 9.88 154.22 12.22C155.69 14.56 154.98 17.64 152.64 19.11C151.82 19.63 150.9 19.88 149.99 19.88C148.32 19.88 146.7 19.05 145.75 17.53Z" fill="black"/>
<path d="M146.61 27.1201C144.14 25.8901 143.13 22.88 144.37 20.41C145.6 17.94 148.61 16.94 151.08 18.17C153.55 19.41 154.55 22.41 153.32 24.88C152.44 26.64 150.67 27.65 148.84 27.65C148.09 27.65 147.32 27.4801 146.61 27.1201Z" fill="black"/>
<path d="M142.28 28.7202C139.67 27.8202 138.28 24.9702 139.19 22.3602C140.09 19.7502 142.94 18.3702 145.55 19.2702C148.16 20.1802 149.54 23.0202 148.64 25.6302C147.92 27.7002 145.99 29.0002 143.91 29.0002C143.37 29.0002 142.82 28.9102 142.28 28.7202Z" fill="black"/>
<path d="M139.46 31.5498C136.7 31.4598 134.53 29.1498 134.62 26.3898C134.7 23.6298 137.02 21.4698 139.77 21.5598C142.53 21.6398 144.7 23.9498 144.61 26.7098C144.53 29.4198 142.31 31.5498 139.62 31.5498H139.46Z" fill="black"/>
<path d="M139.58 36.1199C136.84 35.8099 134.86 33.3399 135.17 30.5899C135.48 27.8499 137.95 25.8699 140.7 26.1799C143.44 26.4899 145.42 28.9699 145.11 31.7099C144.82 34.2599 142.66 36.1499 140.15 36.1499C139.96 36.1499 139.77 36.1499 139.58 36.1199Z" fill="black"/>
<path d="M135.29 39.4601C134.87 36.7401 136.74 34.1801 139.47 33.7601C142.2 33.3401 144.75 35.2101 145.17 37.9401C145.59 40.6701 143.72 43.2301 140.99 43.6501C140.73 43.6801 140.48 43.7001 140.22 43.7001C137.8 43.7001 135.67 41.9401 135.29 39.4601Z" fill="black"/>
<path d="M135.28 45.4302C133.5 43.3202 133.77 40.1602 135.88 38.3802C138 36.6002 141.15 36.8702 142.93 38.9902C144.71 41.1002 144.44 44.2502 142.33 46.0302C141.39 46.8202 140.25 47.2102 139.11 47.2102C137.69 47.2102 136.27 46.6002 135.28 45.4302Z" fill="black"/>
<path d="M128.45 47.2801C126.27 45.5801 125.86 42.4501 127.56 40.2601C129.25 38.0801 132.39 37.6801 134.57 39.3701C136.75 41.0501 137.16 44.2001 135.47 46.3801C134.48 47.6501 133 48.3201 131.51 48.3201C130.44 48.3201 129.36 47.9801 128.45 47.2801Z" fill="black"/>
<path d="M126.27 47.2702C125.58 44.6002 127.18 41.8702 129.86 41.1802C132.53 40.4902 135.26 42.1002 135.95 44.7702C136.64 47.4402 135.03 50.1702 132.36 50.8602C131.94 50.9702 131.52 51.0202 131.1 51.0202C128.88 51.0202 126.85 49.5202 126.27 47.2702Z" fill="black"/>
<path d="M126.11 50.5098C126.11 47.7498 128.34 45.5098 131.11 45.5098C133.87 45.5098 136.11 47.7498 136.11 50.5098C136.11 53.2698 133.87 55.5098 131.11 55.5098C128.34 55.5098 126.11 53.2698 126.11 50.5098Z" fill="black"/>
<path d="M131.02 82.5699C128.26 82.5599 126.03 80.3099 126.04 77.5499C126.04 74.7899 128.29 72.5599 131.05 72.5699C133.81 72.5699 136.04 74.8199 136.04 77.5799C136.04 80.3399 133.79 82.5699 131.04 82.5699H131.02Z" fill="black"/>
<path d="M129.17 83.8801C126.95 82.2401 126.48 79.1101 128.12 76.8901C129.77 74.6701 132.9 74.2001 135.12 75.8401C137.34 77.4901 137.81 80.6201 136.16 82.8401C135.18 84.1601 133.67 84.8601 132.14 84.8601C131.11 84.8601 130.06 84.5401 129.17 83.8801Z" fill="black"/>
<path d="M134.71 81.9199C134.55 79.1599 136.66 76.7999 139.41 76.6399C142.17 76.4799 144.54 78.5899 144.7 81.3499C144.85 84.0999 142.75 86.4699 139.99 86.6299H139.7C137.07 86.6299 134.86 84.5799 134.71 81.9199Z" fill="black"/>
<path d="M134.86 96.3398C134.86 93.5798 137.1 91.3398 139.86 91.3398C142.62 91.3398 144.86 93.5798 144.86 96.3398C144.86 99.0998 142.62 101.34 139.86 101.34C137.1 101.34 134.86 99.0998 134.86 96.3398Z" fill="black"/>
<path d="M136.12 98.5098C136.12 95.7498 138.36 93.5098 141.12 93.5098C143.89 93.5098 146.12 95.7498 146.12 98.5098C146.12 101.27 143.89 103.51 141.12 103.51C138.36 103.51 136.12 101.27 136.12 98.5098Z" fill="black"/>
<path d="M146.6 103.53C143.83 103.52 141.61 101.27 141.61 98.5098C141.61 95.7498 143.87 93.5198 146.63 93.5298C149.39 93.5398 151.62 95.7798 151.61 98.5498C151.61 101.3 149.37 103.53 146.61 103.53H146.6Z" fill="black"/>
<path d="M150.13 113.01C147.37 112.88 145.24 110.54 145.37 107.78C145.5 105.02 147.85 102.89 150.61 103.02C153.37 103.15 155.49 105.49 155.36 108.26C155.24 110.93 153.02 113.02 150.37 113.02C150.29 113.02 150.21 113.02 150.13 113.02V113.01Z" fill="black"/>
<path d="M160.27 113.5C157.51 113.37 155.38 111.03 155.51 108.27C155.65 105.51 157.99 103.38 160.75 103.52C163.51 103.65 165.64 105.99 165.5 108.75C165.37 111.43 163.16 113.51 160.51 113.51C160.43 113.51 160.35 113.51 160.27 113.5Z" fill="black"/>
<path d="M163.4 112.81C161.06 111.36 160.33 108.28 161.78 105.93C163.24 103.58 166.32 102.86 168.67 104.31C171.02 105.77 171.74 108.85 170.29 111.2C169.34 112.72 167.7 113.56 166.03 113.56C165.13 113.56 164.22 113.32 163.4 112.81Z" fill="black"/>
<path d="M165.55 121.88C163.26 120.34 162.64 117.24 164.18 114.94C165.71 112.65 168.82 112.03 171.11 113.56C173.41 115.1 174.02 118.21 172.49 120.5C171.53 121.94 169.94 122.72 168.33 122.72C167.37 122.72 166.41 122.45 165.55 121.88Z" fill="black"/>
<path d="M200.04 122.78C197.28 122.77 195.05 120.53 195.05 117.77C195.05 115.01 197.29 112.77 200.06 112.78C202.82 112.78 205.06 115.02 205.05 117.79C205.05 120.54 202.81 122.78 200.05 122.78H200.04Z" fill="black"/>
<path d="M199.49 108.96C199.16 106.22 201.11 103.73 203.85 103.4C206.59 103.07 209.08 105.02 209.42 107.76C209.75 110.5 207.79 112.99 205.05 113.33C204.85 113.35 204.65 113.36 204.45 113.36C201.95 113.36 199.79 111.5 199.49 108.96Z" fill="black"/>
<path d="M218.33 110.85C216.02 109.35 215.35 106.25 216.85 103.94C218.35 101.62 221.44 100.95 223.76 102.45C226.08 103.94 226.75 107.04 225.25 109.36C224.29 110.84 222.68 111.65 221.04 111.65C220.11 111.65 219.17 111.39 218.33 110.85Z" fill="black"/>
<path d="M221.05 106.08C218.29 106.08 216.06 103.83 216.07 101.07C216.07 98.3101 218.32 96.0701 221.08 96.0801C223.84 96.0901 226.08 98.3401 226.07 101.1C226.06 103.85 223.82 106.08 221.07 106.08H221.05Z" fill="black"/>
<path d="M217.83 100.26C216.78 97.71 218 94.78 220.56 93.74C223.11 92.69 226.03 93.91 227.08 96.47C228.13 99.02 226.9 101.94 224.35 102.99C223.73 103.25 223.08 103.37 222.45 103.37C220.49 103.37 218.62 102.2 217.83 100.26Z" fill="black"/>
<path d="M223.59 103.19C221.01 102.2 219.72 99.3098 220.71 96.7298C221.71 94.1598 224.6 92.8698 227.18 93.8598C229.75 94.8498 231.04 97.7498 230.05 100.32C229.28 102.31 227.39 103.53 225.38 103.53C224.78 103.53 224.18 103.42 223.59 103.19Z" fill="black"/>
<path d="M229.35 102.18C226.59 102.16 224.37 99.89 224.4 97.13C224.42 94.37 226.68 92.15 229.44 92.18C232.2 92.2 234.42 94.46 234.4 97.22C234.37 99.97 232.14 102.18 229.4 102.18H229.35Z" fill="black"/>
<path d="M229.53 86.5098C226.77 86.4698 224.56 84.2098 224.59 81.4498C224.62 78.6798 226.89 76.4698 229.65 76.5098C232.41 76.5398 234.62 78.8098 234.59 81.5698C234.56 84.3098 232.32 86.5098 229.59 86.5098H229.53Z" fill="black"/>
<path d="M232.13 84.6902C229.47 83.9302 227.94 81.1602 228.69 78.5102C229.45 75.8502 232.22 74.3102 234.88 75.0802C237.53 75.8302 239.07 78.6002 238.31 81.2602C237.68 83.4502 235.68 84.8802 233.5 84.8802C233.05 84.8802 232.59 84.8202 232.13 84.6902Z" fill="black"/>
<path d="M233.15 82.24C231.84 79.81 232.75 76.78 235.18 75.46C237.61 74.15 240.65 75.06 241.95 77.49C243.27 79.92 242.36 82.95 239.93 84.26C239.17 84.67 238.36 84.87 237.56 84.87C235.78 84.87 234.06 83.91 233.15 82.24Z" fill="black"/>
<path d="M233.4 75.21C233.4 72.45 235.63 70.21 238.4 70.21C241.16 70.21 243.4 72.45 243.4 75.21C243.4 77.97 241.16 80.21 238.4 80.21C235.63 80.21 233.4 77.97 233.4 75.21Z" fill="black"/>
<path d="M238.41 80.21C235.65 80.21 233.41 77.97 233.41 75.21C233.41 72.45 235.64 70.21 238.41 70.21C241.17 70.21 243.41 72.45 243.41 75.21C243.41 77.97 241.17 80.21 238.41 80.21Z" fill="black"/>
<path d="M153.84 61.3799C153.84 58.6199 156.08 56.3799 158.84 56.3799C161.6 56.3799 163.84 58.6199 163.84 61.3799C163.84 64.1399 161.6 66.3799 158.84 66.3799C156.08 66.3799 153.84 64.1399 153.84 61.3799Z" fill="black"/>
<path d="M180.59 33.5898C180.59 30.8298 182.83 28.5898 185.59 28.5898C188.36 28.5898 190.59 30.8298 190.59 33.5898C190.59 36.3598 188.36 38.5898 185.59 38.5898C182.83 38.5898 180.59 36.3598 180.59 33.5898Z" fill="black"/>
<path d="M207.36 61.3799C207.36 58.6199 209.6 56.3799 212.37 56.3799C215.13 56.3799 217.37 58.6199 217.37 61.3799C217.37 64.1399 215.13 66.3799 212.37 66.3799C209.6 66.3799 207.36 64.1399 207.36 61.3799Z" fill="black"/>
<path d="M180.59 89.1499C180.59 86.3899 182.83 84.1499 185.59 84.1499C188.36 84.1499 190.59 86.3899 190.59 89.1499C190.59 91.9099 188.36 94.1499 185.59 94.1499C182.83 94.1499 180.59 91.9099 180.59 89.1499Z" fill="black"/>
<path d="M255.04 175.26C252.28 175.21 250.08 172.93 250.13 170.17C250.18 167.41 252.46 165.21 255.22 165.26C257.98 165.31 260.18 167.59 260.13 170.35C260.08 173.08 257.85 175.26 255.13 175.26H255.04Z" fill="black"/>
<path d="M272.71 175.27C269.95 175.27 267.72 173.03 267.72 170.27C267.72 167.51 269.96 165.27 272.73 165.27C275.48 165.28 277.72 167.52 277.72 170.28C277.72 173.04 275.48 175.27 272.72 175.27H272.71Z" fill="black"/>
<path d="M274.05 179.65C271.34 179.09 269.6 176.45 270.15 173.75C270.7 171.04 273.35 169.3 276.05 169.85C278.76 170.4 280.5 173.04 279.95 175.75C279.46 178.12 277.38 179.75 275.05 179.75C274.72 179.75 274.39 179.71 274.05 179.65Z" fill="black"/>
<path d="M271.82 186.51C269.31 185.36 268.2 182.4 269.34 179.88C270.49 177.37 273.45 176.26 275.97 177.41C278.48 178.56 279.59 181.52 278.44 184.03C277.6 185.87 275.79 186.96 273.89 186.96C273.2 186.96 272.49 186.81 271.82 186.51Z" fill="black"/>
<path d="M267.1 197.88C264.36 197.61 262.35 195.16 262.62 192.42C262.89 189.67 265.35 187.66 268.09 187.93C270.84 188.21 272.85 190.66 272.57 193.4C272.32 195.98 270.14 197.91 267.61 197.91C267.44 197.91 267.27 197.9 267.1 197.88Z" fill="black"/>
<path d="M271.65 207.53C269.09 206.48 267.87 203.56 268.92 201.01C269.98 198.45 272.9 197.23 275.45 198.29C278.01 199.34 279.22 202.26 278.17 204.81C277.38 206.74 275.51 207.91 273.55 207.91C272.91 207.91 272.27 207.79 271.65 207.53Z" fill="black"/>
<path d="M279.73 209.81C276.97 209.79 274.75 207.53 274.78 204.77C274.8 202.01 277.05 199.79 279.82 199.81C282.58 199.84 284.8 202.1 284.77 204.86C284.75 207.6 282.52 209.81 279.78 209.81H279.73Z" fill="black"/>
<path d="M293.7 209.98C290.94 209.95 288.73 207.69 288.76 204.92C288.8 202.16 291.06 199.95 293.82 199.98C296.58 200.02 298.79 202.29 298.76 205.05C298.73 207.79 296.49 209.98 293.76 209.98H293.7Z" fill="black"/>
<path d="M292.28 204.99C292.27 202.23 294.49 199.98 297.25 199.97C300.02 199.95 302.26 202.18 302.28 204.94C302.28 207.7 300.07 209.95 297.3 209.97H297.28C294.53 209.97 292.29 207.75 292.28 204.99Z" fill="black"/>
<path d="M336.62 204.82C336.62 202.06 338.84 199.81 341.6 199.8C344.36 199.79 346.61 202.02 346.62 204.78C346.62 207.54 344.4 209.79 341.64 209.8H341.62C338.87 209.8 336.63 207.57 336.62 204.82Z" fill="black"/>
<path d="M340.41 206.6C340.41 203.84 342.65 201.6 345.41 201.6C348.18 201.6 350.41 203.84 350.41 206.6C350.41 209.36 348.18 211.6 345.41 211.6C342.65 211.6 340.41 209.36 340.41 206.6Z" fill="black"/>
<path d="M340.41 229.71C340.41 226.95 342.65 224.71 345.41 224.71C348.18 224.71 350.41 226.95 350.41 229.71C350.41 232.47 348.18 234.71 345.41 234.71C342.65 234.71 340.41 232.47 340.41 229.71Z" fill="black"/>
<path d="M340.87 236.07C338.11 236.04 335.9 233.77 335.93 231.01C335.96 228.25 338.23 226.04 340.99 226.07C343.75 226.11 345.96 228.37 345.93 231.13C345.9 233.88 343.66 236.07 340.93 236.07H340.87Z" fill="black"/>
<path d="M318.6 231.3C318.49 228.54 320.65 226.21 323.41 226.11C326.17 226.01 328.49 228.16 328.59 230.92C328.7 233.68 326.55 236 323.79 236.1C323.72 236.1 323.66 236.11 323.59 236.11C320.92 236.11 318.7 233.99 318.6 231.3Z" fill="black"/>
<path d="M318.34 236.1C315.58 235.97 313.45 233.62 313.58 230.87C313.71 228.11 316.06 225.98 318.82 226.11C321.58 226.24 323.71 228.59 323.57 231.35C323.45 234.02 321.23 236.11 318.58 236.11C318.5 236.11 318.42 236.1 318.34 236.1Z" fill="black"/>
<path d="M297.95 231.09C297.95 228.33 300.18 226.08 302.94 226.07C305.7 226.06 307.95 228.29 307.95 231.06C307.95 233.82 305.73 236.06 302.97 236.07H302.95C300.2 236.07 297.96 233.85 297.95 231.09Z" fill="black"/>
<path d="M294.59 231.07C294.59 228.31 296.83 226.07 299.59 226.07C302.35 226.07 304.59 228.31 304.59 231.07C304.59 233.83 302.35 236.07 299.59 236.07C296.83 236.07 294.59 233.83 294.59 231.07Z" fill="black"/>
<path d="M275.22 231.14C275.22 228.37 277.45 226.13 280.21 226.12C282.97 226.12 285.21 228.35 285.22 231.11C285.22 233.87 283 236.12 280.24 236.12H280.22C277.46 236.12 275.23 233.89 275.22 231.14Z" fill="black"/>
<path d="M271.88 236.24C269.12 236.14 266.97 233.82 267.07 231.06C267.17 228.3 269.49 226.14 272.25 226.24C275.01 226.35 277.16 228.67 277.06 231.43C276.96 234.12 274.75 236.24 272.07 236.24H271.88Z" fill="black"/>
<path d="M268.33 236.08C265.57 235.96 263.43 233.63 263.55 230.87C263.67 228.11 266.01 225.97 268.77 226.09C271.52 226.22 273.66 228.55 273.54 231.31C273.42 233.99 271.21 236.09 268.55 236.09C268.48 236.09 268.4 236.09 268.33 236.08Z" fill="black"/>
<path d="M244 236.05C241.24 236.05 239 233.81 239.01 231.05C239.01 228.29 241.25 226.05 244.01 226.05C246.77 226.06 249.01 228.3 249 231.06C249 233.82 246.77 236.05 244.01 236.05H244Z" fill="black"/>
<path d="M236.7 234.46C234.59 232.67 234.34 229.52 236.12 227.41C237.91 225.31 241.07 225.05 243.17 226.84C245.28 228.62 245.53 231.78 243.75 233.88C242.76 235.05 241.35 235.65 239.93 235.65C238.79 235.65 237.64 235.26 236.7 234.46Z" fill="black"/>
<path d="M238.57 231.86C235.81 231.72 233.69 229.37 233.84 226.61C233.98 223.85 236.33 221.73 239.09 221.88C241.85 222.02 243.97 224.37 243.82 227.13C243.69 229.8 241.48 231.87 238.84 231.87C238.75 231.87 238.66 231.87 238.57 231.86Z" fill="black"/>
<path d="M233.81 218.79C233.6 216.04 235.67 213.64 238.43 213.43C241.18 213.23 243.58 215.3 243.78 218.05C243.99 220.81 241.92 223.2 239.17 223.41C239.04 223.42 238.92 223.42 238.79 223.42C236.2 223.42 234.01 221.42 233.81 218.79Z" fill="black"/>
<path d="M236.51 219.32C234.08 218 233.19 214.97 234.51 212.54C235.83 210.12 238.87 209.22 241.29 210.54C243.72 211.86 244.61 214.9 243.29 217.33C242.38 218.99 240.67 219.93 238.9 219.93C238.09 219.93 237.27 219.74 236.51 219.32Z" fill="black"/>
<path d="M236.81 213.47C236.81 210.71 239.05 208.47 241.81 208.47C244.58 208.47 246.82 210.71 246.82 213.47C246.82 216.23 244.58 218.47 241.81 218.47C239.05 218.47 236.81 216.23 236.81 213.47Z" fill="black"/>
<path d="M245.84 218.55C243.08 218.5 240.88 216.21 240.94 213.45C240.99 210.69 243.28 208.5 246.04 208.56C248.8 208.61 250.99 210.9 250.94 213.66C250.88 216.38 248.66 218.56 245.94 218.56C245.94 218.56 245.87 218.55 245.84 218.55Z" fill="black"/>
<path d="M251.53 218.89C248.77 218.73 246.67 216.37 246.83 213.61C246.99 210.85 249.35 208.75 252.11 208.9C254.86 209.06 256.97 211.43 256.81 214.19C256.66 216.84 254.45 218.9 251.83 218.9C251.73 218.9 251.63 218.89 251.53 218.89Z" fill="black"/>
<path d="M254.85 216.75C252.23 215.89 250.81 213.06 251.67 210.44C252.54 207.82 255.37 206.39 257.99 207.26C260.61 208.13 262.04 210.96 261.17 213.58C260.48 215.68 258.52 217.01 256.42 217.01C255.9 217.01 255.37 216.93 254.85 216.75Z" fill="black"/>
<path d="M256.65 213.15C253.9 212.93 251.84 210.53 252.06 207.77C252.28 205.02 254.68 202.96 257.43 203.18C260.19 203.4 262.24 205.8 262.03 208.56C261.82 211.18 259.63 213.16 257.05 213.16C256.92 213.16 256.79 213.16 256.65 213.15Z" fill="black"/>
<path d="M247.69 206.35C247.14 203.65 248.89 201.01 251.6 200.46C254.31 199.91 256.94 201.66 257.5 204.36C258.04 207.07 256.29 209.71 253.59 210.26C253.25 210.33 252.92 210.36 252.59 210.36C250.26 210.36 248.18 208.73 247.69 206.35Z" fill="black"/>
<path d="M245.9 209.13C243.68 207.49 243.21 204.36 244.85 202.13C246.49 199.91 249.62 199.44 251.84 201.08C254.06 202.72 254.53 205.85 252.89 208.07C251.91 209.4 250.4 210.1 248.87 210.1C247.83 210.1 246.79 209.79 245.9 209.13Z" fill="black"/>
<path d="M244.22 200.9C241.86 199.48 241.09 196.4 242.51 194.04C243.94 191.67 247.01 190.91 249.38 192.33C251.74 193.76 252.51 196.83 251.08 199.2C250.14 200.75 248.49 201.62 246.8 201.62C245.92 201.62 245.03 201.39 244.22 200.9Z" fill="black"/>
<path d="M234.54 197.41C233.48 194.85 234.7 191.93 237.25 190.87C239.8 189.82 242.72 191.03 243.78 193.59C244.83 196.14 243.62 199.06 241.07 200.12C240.44 200.37 239.8 200.5 239.16 200.5C237.2 200.5 235.33 199.33 234.54 197.41Z" fill="black"/>
<path d="M238.72 197.55C235.96 197.5 233.76 195.22 233.82 192.46C233.87 189.7 236.15 187.5 238.91 187.55C241.67 187.61 243.87 189.89 243.81 192.65C243.76 195.38 241.53 197.55 238.81 197.55H238.72Z" fill="black"/>
<path d="M238.96 185.43C236.2 185.37 234 183.09 234.06 180.33C234.11 177.57 236.39 175.37 239.15 175.43C241.92 175.48 244.11 177.77 244.05 180.53C244 183.25 241.77 185.43 239.06 185.43H238.96Z" fill="black"/>
<path d="M245.62 182.55C243.09 181.45 241.92 178.5 243.03 175.97C244.13 173.44 247.07 172.28 249.6 173.38C252.14 174.48 253.3 177.42 252.2 179.95C251.38 181.84 249.54 182.96 247.61 182.96C246.94 182.96 246.27 182.83 245.62 182.55Z" fill="black"/>
<path d="M250.32 175.17C247.56 175.13 245.36 172.85 245.41 170.09C245.45 167.33 247.73 165.13 250.49 165.17C253.25 165.22 255.45 167.49 255.4 170.26C255.36 172.99 253.13 175.17 250.41 175.17H250.32Z" fill="black"/>
<path d="M250.41 175.17C247.65 175.17 245.41 172.93 245.41 170.17C245.41 167.41 247.64 165.17 250.41 165.17C253.17 165.17 255.41 167.41 255.41 170.17C255.41 172.93 253.17 175.17 250.41 175.17Z" fill="black"/>
<path d="M240.58 155.72C237.82 155.67 235.63 153.39 235.68 150.63C235.73 147.86 238.01 145.67 240.77 145.72C243.53 145.77 245.73 148.05 245.68 150.81C245.63 153.54 243.4 155.72 240.68 155.72H240.58Z" fill="black"/>
<path d="M235.68 168.31C235.68 165.55 237.92 163.31 240.68 163.31C243.44 163.31 245.68 165.55 245.68 168.31C245.68 171.07 243.44 173.31 240.68 173.31C237.92 173.31 235.68 171.07 235.68 168.31Z" fill="black"/>
<path d="M235.11 175.54C232.4 175.01 230.64 172.38 231.17 169.67C231.71 166.96 234.34 165.2 237.05 165.73C239.76 166.27 241.52 168.9 240.98 171.6C240.51 173.99 238.42 175.64 236.09 175.64C235.77 175.64 235.44 175.61 235.11 175.54Z" fill="black"/>
<path d="M226.66 174.05C224.14 172.93 223 169.97 224.12 167.45C225.25 164.93 228.2 163.79 230.73 164.91C233.25 166.03 234.38 168.99 233.26 171.51C232.43 173.38 230.61 174.48 228.69 174.48C228.01 174.48 227.32 174.34 226.66 174.05Z" fill="black"/>
<path d="M216.99 168.16C214.24 167.9 212.23 165.45 212.5 162.7C212.76 159.96 215.21 157.94 217.96 158.21C220.7 158.48 222.72 160.92 222.45 163.67C222.2 166.25 220.03 168.19 217.48 168.19C217.32 168.19 217.16 168.18 216.99 168.16Z" fill="black"/>
<path d="M205.29 173.74C202.74 172.67 201.55 169.74 202.62 167.19C203.7 164.65 206.63 163.46 209.17 164.53C211.72 165.6 212.91 168.53 211.84 171.08C211.03 172.99 209.18 174.14 207.23 174.14C206.58 174.14 205.92 174.01 205.29 173.74Z" fill="black"/>
<path d="M205.24 180.36C202.48 180.34 200.26 178.08 200.28 175.32C200.3 172.56 202.56 170.34 205.32 170.36C208.08 170.38 210.3 172.64 210.28 175.4C210.26 178.15 208.02 180.36 205.28 180.36H205.24Z" fill="black"/>
<path d="M205.04 194.35C202.28 194.31 200.07 192.05 200.11 189.29C200.14 186.53 202.41 184.31 205.17 184.35C207.93 184.38 210.14 186.65 210.11 189.41C210.07 192.15 207.84 194.35 205.11 194.35H205.04Z" fill="black"/>
<path d="M200.14 192.91C200.11 190.15 202.33 187.89 205.09 187.87C207.85 187.84 210.11 190.06 210.14 192.82C210.17 195.58 207.95 197.84 205.19 197.86H205.14C202.4 197.86 200.17 195.66 200.14 192.91Z" fill="black"/>
<path d="M200.32 237.23C200.3 234.47 202.53 232.22 205.29 232.21C208.06 232.19 210.31 234.42 210.32 237.19C210.32 239.95 208.1 242.2 205.33 242.2H205.31C202.56 242.2 200.33 239.98 200.32 237.23Z" fill="black"/>
<path d="M198.45 241C198.45 238.24 200.69 236 203.45 236C206.21 236 208.45 238.24 208.45 241C208.45 243.76 206.21 246 203.45 246C200.69 246 198.45 243.76 198.45 241Z" fill="black"/>
<path d="M174.78 241C174.78 238.24 177.02 236 179.78 236C182.54 236 184.78 238.24 184.78 241C184.78 243.76 182.54 246 179.78 246C177.02 246 174.78 243.76 174.78 241Z" fill="black"/>
<path d="M178.26 241.51C175.5 241.44 173.33 239.14 173.4 236.38C173.48 233.62 175.78 231.44 178.54 231.52C181.3 231.59 183.47 233.89 183.4 236.65C183.32 239.37 181.1 241.52 178.4 241.52C178.4 241.52 178.31 241.52 178.26 241.52V241.51Z" fill="black"/>
<path d="M173.35 219.38C173.25 216.62 175.39 214.29 178.16 214.19C180.91 214.08 183.24 216.23 183.34 218.99C183.45 221.75 181.3 224.07 178.54 224.18H178.35C175.67 224.18 173.46 222.07 173.35 219.38Z" fill="black"/>
<path d="M178.1 219.16C175.34 219.02 173.21 216.67 173.35 213.92C173.49 211.15 175.84 209.03 178.6 209.17C181.36 209.31 183.48 211.66 183.34 214.42C183.21 217.09 181 219.17 178.35 219.17C178.26 219.17 178.18 219.16 178.1 219.16Z" fill="black"/>
<path d="M173.4 198.54C173.4 195.78 175.64 193.54 178.4 193.54C181.16 193.54 183.4 195.78 183.4 198.54C183.4 201.3 181.16 203.54 178.4 203.54C175.64 203.54 173.4 201.3 173.4 198.54Z" fill="black"/>
<path d="M173.38 195.21C173.38 192.44 175.6 190.19 178.36 190.18C181.12 190.16 183.37 192.39 183.38 195.15C183.4 197.91 181.17 200.16 178.41 200.18H178.38C175.63 200.18 173.4 197.96 173.38 195.21Z" fill="black"/>
<path d="M173.33 175.82C173.33 173.06 175.56 170.82 178.32 170.81C181.08 170.8 183.32 173.04 183.33 175.8C183.33 178.56 181.11 180.8 178.34 180.81C175.58 180.81 173.35 178.58 173.34 175.82H173.33Z" fill="black"/>
<path d="M178 172.65C175.24 172.52 173.11 170.18 173.23 167.43C173.36 164.67 175.7 162.53 178.45 162.66C181.21 162.78 183.35 165.12 183.22 167.88C183.1 170.56 180.89 172.65 178.23 172.65H178Z" fill="black"/>
<path d="M178.17 169.13C175.41 169.02 173.26 166.7 173.37 163.94C173.48 161.18 175.81 159.03 178.57 159.14C181.32 159.25 183.47 161.57 183.36 164.34C183.25 167.03 181.04 169.14 178.37 169.14C178.3 169.14 178.23 169.14 178.17 169.13Z" fill="black"/>
<path d="M178.39 144.59C175.63 144.59 173.4 142.35 173.4 139.59C173.4 136.83 175.65 134.59 178.41 134.6C181.17 134.6 183.41 136.84 183.4 139.6C183.4 142.36 181.16 144.59 178.4 144.59H178.39Z" fill="black"/>
<path d="M175.53 139.28C173.46 137.45 173.26 134.29 175.08 132.22C176.91 130.15 180.07 129.95 182.14 131.77C184.21 133.6 184.41 136.76 182.59 138.83C181.6 139.95 180.22 140.52 178.83 140.52C177.66 140.52 176.48 140.11 175.53 139.28Z" fill="black"/>
<path d="M182.44 139.41C179.68 139.27 177.56 136.91 177.71 134.16C177.86 131.4 180.21 129.28 182.97 129.43C185.72 129.57 187.84 131.93 187.7 134.69C187.55 137.35 185.35 139.42 182.71 139.42C182.62 139.42 182.53 139.42 182.44 139.41Z" fill="black"/>
<path d="M186.37 134.74C186.18 131.99 188.25 129.59 191.01 129.4C193.76 129.2 196.15 131.28 196.35 134.03C196.55 136.79 194.47 139.18 191.72 139.38C191.6 139.38 191.48 139.39 191.36 139.39C188.76 139.39 186.56 137.37 186.37 134.74Z" fill="black"/>
<path d="M192.56 138.91C190.13 137.6 189.22 134.57 190.53 132.13C191.84 129.7 194.87 128.8 197.31 130.11C199.74 131.42 200.64 134.45 199.33 136.88C198.43 138.56 196.71 139.51 194.93 139.51C194.13 139.51 193.31 139.32 192.56 138.91Z" fill="black"/>
<path d="M191.41 137.4C191.41 134.64 193.65 132.4 196.41 132.4C199.18 132.4 201.41 134.64 201.41 137.4C201.41 140.16 199.18 142.4 196.41 142.4C193.65 142.4 191.41 140.16 191.41 137.4Z" fill="black"/>
<path d="M196.26 146.52C193.5 146.48 191.3 144.2 191.34 141.44C191.39 138.68 193.67 136.48 196.43 136.53C199.19 136.57 201.39 138.85 201.34 141.61C201.3 144.34 199.07 146.53 196.35 146.53C196.35 146.53 196.29 146.53 196.26 146.52Z" fill="black"/>
<path d="M195.67 152.4C192.91 152.23 190.82 149.85 190.99 147.1C191.16 144.34 193.53 142.24 196.29 142.42C199.04 142.59 201.14 144.96 200.97 147.72C200.8 150.37 198.6 152.41 195.99 152.41C195.88 152.41 195.77 152.4 195.67 152.4Z" fill="black"/>
<path d="M196.37 156.77C193.75 155.92 192.3 153.1 193.15 150.47C194 147.85 196.82 146.4 199.45 147.25C202.08 148.1 203.52 150.92 202.67 153.55C201.99 155.66 200.02 157.01 197.91 157.01C197.4 157.01 196.89 156.93 196.37 156.77Z" fill="black"/>
<path d="M201.49 157.62C198.73 157.41 196.67 155.01 196.88 152.25C197.09 149.5 199.49 147.44 202.24 147.65C205 147.85 207.06 150.26 206.85 153.01C206.65 155.64 204.46 157.63 201.87 157.63C201.75 157.63 201.62 157.63 201.49 157.62Z" fill="black"/>
<path d="M199.84 149.17C199.29 146.46 201.05 143.83 203.76 143.28C206.47 142.74 209.1 144.49 209.64 147.2C210.19 149.91 208.43 152.54 205.72 153.09C205.39 153.15 205.06 153.18 204.73 153.18C202.4 153.18 200.32 151.54 199.84 149.17Z" fill="black"/>
<path d="M201.96 148.44C199.76 146.77 199.33 143.63 201 141.43C202.67 139.23 205.81 138.81 208.01 140.48C210.21 142.14 210.64 145.28 208.97 147.48C207.98 148.78 206.49 149.46 204.98 149.46C203.93 149.46 202.86 149.13 201.96 148.44Z" fill="black"/>
<path d="M211.05 146.64C208.7 145.19 207.97 142.11 209.42 139.76C210.87 137.41 213.95 136.68 216.3 138.13C218.65 139.58 219.38 142.66 217.93 145.01C216.99 146.55 215.35 147.39 213.67 147.39C212.78 147.39 211.87 147.15 211.05 146.64Z" fill="black"/>
<path d="M210.19 136.62C209.16 134.06 210.4 131.14 212.95 130.11C215.52 129.08 218.43 130.32 219.46 132.88C220.5 135.44 219.26 138.35 216.7 139.38C216.08 139.63 215.45 139.75 214.83 139.75C212.85 139.75 210.97 138.57 210.19 136.62Z" fill="black"/>
<path d="M217.76 139.4C215 139.36 212.8 137.09 212.84 134.32C212.88 131.56 215.16 129.36 217.92 129.41C220.68 129.45 222.88 131.72 222.84 134.48C222.8 137.22 220.57 139.4 217.85 139.4H217.76Z" fill="black"/>
<path d="M230.18 139.65C227.42 139.59 225.23 137.31 225.28 134.55C225.33 131.79 227.61 129.59 230.38 129.64C233.14 129.7 235.33 131.98 235.28 134.74C235.22 137.47 232.99 139.65 230.28 139.65H230.18Z" fill="black"/>
<path d="M230.83 147.8C228.29 146.72 227.1 143.79 228.18 141.24C229.26 138.7 232.2 137.52 234.74 138.6C237.28 139.68 238.47 142.61 237.39 145.15C236.58 147.06 234.73 148.2 232.78 148.2C232.13 148.2 231.47 148.07 230.83 147.8Z" fill="black"/>
<path d="M235.77 145.99C235.77 143.23 238 140.99 240.77 140.99C243.53 140.99 245.77 143.23 245.77 145.99C245.77 148.75 243.53 150.99 240.77 150.99C238 150.99 235.77 148.75 235.77 145.99Z" fill="black"/>
<path d="M240.77 150.99C238.01 150.99 235.77 148.75 235.77 145.99C235.77 143.23 238 140.99 240.77 140.99C243.53 140.99 245.77 143.23 245.77 145.99C245.77 148.75 243.53 150.99 240.77 150.99Z" fill="black"/>
<path d="M302.6 300.27C302.6 297.51 304.83 295.27 307.59 295.27C310.35 295.27 312.6 297.5 312.6 300.26C312.61 303.02 310.37 305.26 307.61 305.27C304.85 305.27 302.61 303.04 302.6 300.27Z" fill="black"/>
<path d="M305.65 302.23C302.9 301.95 300.9 299.49 301.18 296.75C301.45 294 303.91 292 306.66 292.28C309.4 292.55 311.41 295.01 311.13 297.75C310.86 300.33 308.69 302.25 306.15 302.25C305.99 302.25 305.82 302.24 305.65 302.23Z" fill="black"/>
<path d="M294.14 297.99C293.85 295.24 295.84 292.78 298.59 292.5C301.33 292.21 303.79 294.2 304.08 296.94C304.37 299.69 302.38 302.15 299.63 302.44C299.45 302.46 299.28 302.47 299.1 302.47C296.58 302.47 294.41 300.56 294.14 297.99Z" fill="black"/>
<path d="M294.93 292.83C292.18 292.66 290.08 290.28 290.26 287.53C290.43 284.77 292.81 282.68 295.56 282.85C298.32 283.03 300.41 285.4 300.24 288.16C300.07 290.81 297.87 292.84 295.25 292.84C295.14 292.84 295.04 292.84 294.93 292.83Z" fill="black"/>
<path d="M290.1 274.48C289.72 271.74 291.62 269.21 294.36 268.82C297.09 268.44 299.62 270.34 300.01 273.08C300.39 275.81 298.49 278.34 295.76 278.73C295.52 278.76 295.28 278.78 295.05 278.78C292.6 278.78 290.46 276.97 290.1 274.48Z" fill="black"/>
<path d="M281.35 275.86C279.2 274.12 278.86 270.98 280.6 268.83C282.33 266.68 285.48 266.34 287.63 268.08C289.78 269.81 290.11 272.96 288.38 275.11C287.39 276.33 285.94 276.97 284.48 276.97C283.38 276.97 282.27 276.6 281.35 275.86Z" fill="black"/>
<path d="M279.21 264.53C276.88 263.04 276.21 259.95 277.7 257.62C279.18 255.29 282.28 254.62 284.6 256.1C286.93 257.59 287.61 260.69 286.12 263.01C285.16 264.5 283.55 265.32 281.9 265.32C280.98 265.32 280.05 265.06 279.21 264.53Z" fill="black"/>
<path d="M260.84 264.98C258.08 264.93 255.88 262.66 255.92 259.9C255.96 257.14 258.24 254.93 261 254.98C263.76 255.02 265.96 257.3 265.92 260.06C265.87 262.79 263.64 264.98 260.92 264.98H260.84Z" fill="black"/>
<path d="M255.14 252.18C252.58 251.13 251.36 248.21 252.41 245.66C253.46 243.1 256.38 241.88 258.93 242.93C261.49 243.98 262.71 246.9 261.66 249.45C260.87 251.39 259 252.56 257.03 252.56C256.4 252.56 255.76 252.44 255.14 252.18Z" fill="black"/>
<path d="M215.62 252.41C212.86 252.4 210.63 250.15 210.64 247.39C210.64 244.63 212.89 242.4 215.65 242.41C218.42 242.42 220.65 244.67 220.64 247.43C220.64 250.18 218.39 252.41 215.64 252.41H215.62Z" fill="black"/>
<path d="M206.68 251.21C204.93 249.07 205.24 245.92 207.38 244.17C209.51 242.42 212.66 242.73 214.41 244.87C216.16 247 215.85 250.15 213.72 251.9C212.79 252.66 211.66 253.04 210.55 253.04C209.1 253.04 207.67 252.41 206.68 251.21Z" fill="black"/>
<path d="M204.61 254.58C203.84 251.92 205.38 249.15 208.03 248.39C210.69 247.63 213.46 249.17 214.22 251.82C214.98 254.47 213.45 257.24 210.79 258.01C210.33 258.14 209.87 258.2 209.41 258.2C207.24 258.2 205.24 256.77 204.61 254.58Z" fill="black"/>
<path d="M202.75 260.45C202.37 257.71 204.28 255.19 207.01 254.81C209.75 254.43 212.27 256.34 212.65 259.07C213.03 261.81 211.12 264.33 208.39 264.71C208.16 264.75 207.92 264.76 207.7 264.76C205.24 264.76 203.1 262.95 202.75 260.45Z" fill="black"/>
<path d="M191.13 264.95C188.37 264.77 186.27 262.4 186.45 259.64C186.62 256.88 189 254.79 191.75 254.96C194.51 255.14 196.6 257.51 196.43 260.27C196.26 262.92 194.06 264.96 191.44 264.96C191.34 264.96 191.23 264.96 191.13 264.96V264.95Z" fill="black"/>
<path d="M181.85 263.01C180.42 260.64 181.19 257.57 183.56 256.15C185.93 254.73 189 255.5 190.42 257.86C191.84 260.23 191.07 263.3 188.71 264.72C187.9 265.21 187.01 265.44 186.14 265.44C184.44 265.44 182.78 264.57 181.85 263.01Z" fill="black"/>
<path d="M182.25 275.16C179.79 273.89 178.83 270.88 180.1 268.42C181.36 265.97 184.38 265 186.83 266.27C189.29 267.54 190.25 270.55 188.99 273.01C188.1 274.73 186.35 275.71 184.54 275.71C183.77 275.71 182.98 275.53 182.25 275.16Z" fill="black"/>
<path d="M176.22 277.29C173.59 276.45 172.13 273.63 172.97 271C173.81 268.37 176.62 266.92 179.26 267.76C181.89 268.6 183.34 271.41 182.5 274.04C181.82 276.17 179.85 277.52 177.74 277.52C177.23 277.52 176.72 277.45 176.22 277.29Z" fill="black"/>
<path d="M171.66 280.87C168.9 280.78 166.74 278.47 166.83 275.71C166.92 272.95 169.24 270.79 171.99 270.88C174.75 270.97 176.92 273.28 176.82 276.04C176.73 278.75 174.52 280.88 171.83 280.88C171.77 280.88 171.72 280.87 171.66 280.87Z" fill="black"/>
<path d="M171.92 286.97C169.18 286.62 167.24 284.12 167.59 281.38C167.94 278.64 170.44 276.7 173.18 277.04C175.92 277.39 177.86 279.89 177.51 282.63C177.19 285.16 175.04 287.01 172.55 287C172.35 287 172.14 286.99 171.92 286.97Z" fill="black"/>
<path d="M167.73 292.76C167.31 290.03 169.17 287.48 171.9 287.05C174.63 286.62 177.19 288.49 177.61 291.22C178.04 293.95 176.17 296.51 173.44 296.93C173.18 296.97 172.92 296.99 172.67 296.99C170.25 296.99 168.12 295.23 167.73 292.76Z" fill="black"/>
<path d="M167.27 299.75C165.53 297.6 165.86 294.45 168 292.72C170.15 290.98 173.29 291.3 175.03 293.45C176.77 295.59 176.45 298.74 174.3 300.48C173.38 301.23 172.26 301.6 171.16 301.6C169.7 301.6 168.26 300.97 167.27 299.75Z" fill="black"/>
<path d="M157.52 301.95C155.38 300.2 155.06 297.05 156.8 294.91C158.55 292.77 161.7 292.45 163.84 294.19C165.98 295.94 166.3 299.09 164.56 301.23C163.57 302.44 162.13 303.07 160.68 303.07C159.57 303.07 158.45 302.7 157.52 301.95Z" fill="black"/>
<path d="M155.3 302.95C154.58 300.28 156.15 297.54 158.82 296.81C161.49 296.09 164.23 297.67 164.95 300.33C165.68 303 164.1 305.74 161.43 306.47C161 306.59 160.56 306.64 160.12 306.64C157.92 306.64 155.91 305.18 155.3 302.95Z" fill="black"/>
<path d="M160.07 312.58C157.31 312.55 155.09 310.28 155.13 307.52C155.16 304.76 157.42 302.55 160.18 302.58C162.94 302.61 165.16 304.87 165.13 307.63C165.1 310.37 162.86 312.58 160.13 312.58H160.07Z" fill="black"/>
<path d="M160.02 348.35C157.26 348.34 155.02 346.1 155.03 343.34C155.03 340.58 157.28 338.34 160.04 338.35C162.81 338.36 165.04 340.6 165.03 343.37C165.02 346.12 162.78 348.35 160.03 348.35H160.02Z" fill="black"/>
<path d="M158.54 350.39C156.34 348.73 155.89 345.59 157.55 343.39C159.21 341.18 162.35 340.74 164.55 342.4C166.76 344.06 167.21 347.19 165.55 349.4C164.56 350.7 163.06 351.39 161.55 351.39C160.5 351.39 159.44 351.06 158.54 350.39Z" fill="black"/>
<path d="M166.96 349.01C166.79 346.25 168.89 343.88 171.64 343.72C174.4 343.55 176.77 345.65 176.94 348.4C177.11 351.16 175.01 353.53 172.25 353.7C172.15 353.71 172.04 353.71 171.94 353.71C169.32 353.71 167.12 351.66 166.96 349.01Z" fill="black"/>
<path d="M167.19 368.2C167.19 365.43 169.41 363.19 172.17 363.18C174.93 363.17 177.18 365.39 177.19 368.16C177.2 370.92 174.97 373.17 172.21 373.18H172.19C169.44 373.18 167.2 370.95 167.19 368.2Z" fill="black"/>
<path d="M173.77 376.04C171.01 375.96 168.85 373.66 168.93 370.89C169.01 368.13 171.32 365.97 174.08 366.05C176.84 366.13 179.01 368.44 178.92 371.2C178.84 373.91 176.62 376.05 173.93 376.05C173.93 376.05 173.83 376.05 173.77 376.04Z" fill="black"/>
<path d="M181.46 376.07C178.7 376.06 176.47 373.82 176.48 371.06C176.49 368.3 178.73 366.06 181.49 366.07C184.26 366.07 186.49 368.33 186.48 371.09C186.48 373.84 184.23 376.07 181.48 376.07H181.46Z" fill="black"/>
<path d="M186.41 388.61C183.65 388.49 181.52 386.15 181.65 383.39C181.77 380.63 184.11 378.5 186.86 378.62C189.62 378.75 191.76 381.08 191.64 383.84C191.51 386.52 189.3 388.62 186.65 388.62C186.57 388.62 186.49 388.61 186.41 388.61Z" fill="black"/>
<path d="M200.35 389.26C197.59 389.13 195.46 386.79 195.59 384.04C195.72 381.28 198.06 379.14 200.82 379.27C203.58 379.4 205.71 381.74 205.58 384.5C205.45 387.18 203.24 389.27 200.59 389.27C200.51 389.27 200.43 389.27 200.35 389.27V389.26Z" fill="black"/>
<path d="M205.63 388.63C203.25 387.24 202.45 384.17 203.84 381.79C205.24 379.41 208.3 378.6 210.69 380C213.07 381.39 213.87 384.46 212.48 386.84C211.54 388.43 209.87 389.32 208.16 389.32C207.3 389.32 206.43 389.1 205.63 388.63Z" fill="black"/>
<path d="M208.65 400.64C206.32 399.15 205.64 396.06 207.13 393.74C208.61 391.41 211.71 390.73 214.03 392.21C216.36 393.7 217.04 396.79 215.56 399.12C214.6 400.61 212.99 401.43 211.34 401.43C210.42 401.43 209.49 401.17 208.65 400.64Z" fill="black"/>
<path d="M254.95 401.5C252.19 401.5 249.96 399.25 249.96 396.49C249.96 393.73 252.21 391.5 254.97 391.5C257.73 391.5 259.96 393.75 259.96 396.51C259.96 399.27 257.72 401.5 254.96 401.5H254.95Z" fill="black"/>
<path d="M256.05 384.65C255.72 381.91 257.68 379.42 260.42 379.09C263.16 378.76 265.65 380.71 265.98 383.45C266.31 386.2 264.35 388.69 261.61 389.01C261.41 389.04 261.21 389.05 261.01 389.05C258.51 389.05 256.36 387.19 256.05 384.65Z" fill="black"/>
<path d="M281.03 385.96C278.73 384.42 278.12 381.31 279.66 379.02C281.2 376.73 284.31 376.12 286.6 377.66C288.9 379.2 289.5 382.3 287.96 384.59C287 386.03 285.42 386.81 283.81 386.81C282.85 386.81 281.88 386.53 281.03 385.96Z" fill="black"/>
<path d="M283.83 379.45C281.07 379.43 278.84 377.18 278.86 374.42C278.88 371.65 281.13 369.43 283.89 369.45C286.65 369.47 288.88 371.72 288.86 374.48C288.84 377.23 286.6 379.45 283.86 379.45H283.83Z" fill="black"/>
<path d="M281.09 372.69C280.08 370.13 281.34 367.22 283.9 366.21C286.47 365.19 289.37 366.44 290.39 369.01C291.41 371.58 290.15 374.49 287.58 375.5C286.98 375.74 286.36 375.86 285.75 375.86C283.75 375.86 281.87 374.66 281.09 372.69Z" fill="black"/>
<path d="M288.03 375.73C285.44 374.77 284.12 371.9 285.08 369.31C286.05 366.72 288.92 365.4 291.51 366.36C294.1 367.32 295.42 370.2 294.46 372.79C293.71 374.8 291.8 376.05 289.77 376.05C289.19 376.05 288.6 375.95 288.03 375.73Z" fill="black"/>
<path d="M295.23 374.29C292.47 374.24 290.27 371.96 290.32 369.2C290.37 366.44 292.65 364.24 295.41 364.29C298.17 364.34 300.37 366.61 300.32 369.37C300.27 372.11 298.04 374.29 295.32 374.29H295.23Z" fill="black"/>
<path d="M295.52 353.56C292.76 353.53 290.55 351.26 290.59 348.5C290.62 345.74 292.89 343.53 295.65 343.56C298.41 343.6 300.62 345.86 300.58 348.63C300.55 351.37 298.32 353.56 295.58 353.56H295.52Z" fill="black"/>
<path d="M299.55 351.22C296.9 350.45 295.37 347.67 296.14 345.02C296.91 342.37 299.68 340.84 302.33 341.61C304.99 342.38 306.51 345.16 305.74 347.81C305.11 350 303.11 351.42 300.94 351.42C300.48 351.42 300.01 351.35 299.55 351.22Z" fill="black"/>
<path d="M302.09 348.72C300.8 346.28 301.74 343.26 304.18 341.97C306.62 340.68 309.65 341.62 310.94 344.06C312.23 346.5 311.29 349.53 308.85 350.82C308.1 351.21 307.31 351.39 306.52 351.39C304.72 351.39 302.99 350.42 302.09 348.72Z" fill="black"/>
<path d="M302.67 340.24C302.67 337.48 304.91 335.24 307.67 335.24C310.43 335.24 312.67 337.48 312.67 340.24C312.67 343 310.43 345.24 307.67 345.24C304.91 345.24 302.67 343 302.67 340.24Z" fill="black"/>
<path d="M307.68 345.24C304.92 345.24 302.68 343 302.68 340.24C302.68 337.48 304.91 335.24 307.68 335.24C310.44 335.24 312.68 337.48 312.68 340.24C312.68 343 310.44 345.24 307.68 345.24Z" fill="black"/>
<path d="M257.55 299.49C255.6 297.54 255.59 294.38 257.55 292.42C259.5 290.47 262.67 290.46 264.62 292.41C266.58 294.36 266.58 297.53 264.62 299.48C263.65 300.46 262.36 300.95 261.08 300.95C259.81 300.95 258.53 300.47 257.55 299.49Z" fill="black"/>
<path d="M205.52 299.48C203.57 297.52 203.58 294.35 205.53 292.4C207.49 290.46 210.66 290.46 212.6 292.42C214.56 294.37 214.55 297.54 212.6 299.49C211.63 300.46 210.35 300.95 209.07 300.95C207.79 300.95 206.51 300.46 205.53 299.48H205.52Z" fill="black"/>
<path d="M205.53 351.47C203.58 349.52 203.57 346.35 205.52 344.39C207.47 342.44 210.64 342.43 212.59 344.39C214.55 346.34 214.55 349.51 212.59 351.46C211.62 352.44 210.33 352.93 209.05 352.93C207.77 352.93 206.5 352.45 205.52 351.48L205.53 351.47Z" fill="black"/>
<path d="M257.55 351.45C255.6 349.49 255.6 346.33 257.55 344.38C259.51 342.43 262.67 342.43 264.62 344.38C266.58 346.34 266.57 349.5 264.62 351.46C263.64 352.43 262.36 352.92 261.09 352.92C259.81 352.92 258.52 352.43 257.55 351.45Z" fill="black"/>
</g>
<defs>
<clipPath id="clip0_2547_7652">
<rect width="408.64" height="401.5" fill="white"/>
</clipPath>
</defs>
</svg>
