<svg width="211" height="330" viewBox="0 0 211 330" fill="none" xmlns="http://www.w3.org/2000/svg">
<g clip-path="url(#clip0_2554_17243)">
<mask id="mask0_2554_17243" style="mask-type:luminance" maskUnits="userSpaceOnUse" x="0" y="0" width="211" height="330">
<path d="M210.67 0H0V329.47H210.67V0Z" fill="white"/>
</mask>
<g mask="url(#mask0_2554_17243)">
<path d="M189.28 164.74C188.82 165.34 187.96 165.82 187.69 166.45C187.33 167.33 187 167.75 186.24 168.23C185.02 169.01 184.19 170.52 182.89 171.23C182.2 171.61 181.42 171.54 180.93 172.37C180.63 172.87 179.89 172.87 179.26 172.91C177.72 173.02 177.39 174.57 175.72 173.74C173.93 172.84 174.56 175.42 173 174.98C172.22 174.76 171.81 174.39 170.97 173.66L170.05 174.65C169.04 174.53 167.95 174.28 166.89 174.02C165.98 173.8 164.85 174.35 163.94 173.97C161.78 173.07 161.44 171.46 160.66 171.46L158.52 171.44C156.57 169.59 155.43 168.95 154.58 166.43C154.68 165.42 154.49 164.56 153.78 163.94C153.53 163.72 153.5 163 153.42 162.71C152.85 160.42 154.87 161.18 154.48 159.72C154.23 158.78 154.82 158.08 155.63 157.75C156.26 157.5 156.44 156.86 156.59 156.24C156.66 155.91 157.34 155.69 157.72 155.52C158.41 155.21 159.23 154.39 159.82 153.97C161.03 154.01 161.54 153.33 162.53 152.9C163.22 152.59 164.34 152.56 165.15 152.33C165.73 152.17 166.58 152.25 167.18 152.31C169.12 152.5 168.73 151.08 170.02 151.35C170.83 151.51 170.69 152.59 172.02 152.63C172.84 152.65 172.73 151.32 173.27 151.21C173.43 151.18 173.81 151.39 173.93 151.53C175.17 153.04 175.83 151.87 178.94 152.67C181.32 153.28 180.75 154.45 182.11 154.86C183.15 155.18 183.62 155.9 183.65 156.99L185.45 157.72L186.1 159.18C186.68 159.37 187.59 159.81 187.95 160.14C188.26 160.43 187.75 160.86 187.82 161.56C187.89 162.14 190.14 161.63 190.1 162.67C190.08 163.29 189.64 164.24 189.24 164.75M210.52 187.72C210.68 187.04 210.62 185.98 210.54 185.21C210.35 183.61 210.82 182.82 210.54 180.53C210.44 179.73 210.6 179.14 210.6 178.3V96.8904C206.94 95.5204 207.73 97.4004 205.32 96.5304C204.32 96.1604 203.09 96.6104 202.03 96.5704C201.07 96.5204 200.15 96.3004 199.23 96.5104C198.77 96.6104 198.33 96.4304 197.82 96.4304H133.34C132.97 97.6504 133.95 97.1204 134.04 98.3004C134.08 98.7904 133.77 99.1004 133.31 99.3904C133.26 100.13 133.24 101.14 133.37 101.9C133.45 102.16 133.94 102.66 133.85 102.92C133.78 103.14 133.41 103.61 133.37 103.87C133.24 104.66 133.12 106.15 133.39 106.89C133.68 107.71 133.39 107.95 133.37 108.62C133.21 112.01 133.26 115.38 133.32 118.8C133.57 119.85 134.91 120.31 135.5 121.01C136.15 121.76 136.57 122.82 137.78 122.69C139.43 122.51 141.21 123.14 142.49 124.55L143.01 123.27C144.61 122.29 144.97 123.63 146.31 122.68C148.07 121.43 148.53 123.01 149.85 121.75L152.45 119.29L158.74 113.04L160.99 112.51C161.21 111.33 162.73 110.02 163.56 110.02L166.63 110.04C166.95 110.04 167.35 109.55 167.61 109.27C168.36 108.46 169.51 108.87 170.15 109.64C170.31 109.83 170.87 110.11 171.11 110.08C171.9 109.98 172.02 108.82 173.51 109.51C174.54 109.99 175.55 109.77 176.67 109.51C177.13 109.41 177.82 109.83 178.34 110.01C179.44 110.39 179.42 109.67 181.79 109.93C182.81 110.04 183.43 110.41 183.89 111.36C184.38 112.34 186.79 111.64 187.32 112.12L190.1 114.67C191.31 115.78 191.76 114.42 192.48 118.89L192.84 121.07C193 122.03 192.65 122.93 192.54 123.85C192.35 125.4 192.85 125.91 190.82 128.14L190.41 129.65C189.48 130.23 189.33 131.1 189.05 132.12C188.88 132.75 188.01 133.33 187.56 133.89C187.05 134.53 186.57 134.97 185.71 134.86C185.06 134.78 184.33 135.18 183.7 135.19L172.15 135.32C171.33 135.32 170.78 135.84 169.88 135.27C169.43 134.99 168.6 134.9 168 134.96C166.99 135.06 166.12 134.96 165.13 134.95L157.15 134.84C156.61 134.84 155.96 134.21 155.42 134.67C154.04 135.85 152.22 135.86 150.76 134.77C150.13 134.3 149.4 134.27 148.68 134.24C147.14 134.17 145.77 134.17 144.17 134.37L142.63 133.82C139.79 136.01 139.48 132.29 137.62 134.22C135.54 134.83 135.72 133.58 134.38 133.88C132.95 134.19 133.19 135.9 133.34 137.54C133.37 137.91 133.29 138.29 133.29 138.72L133.27 193.38H153.47C153.94 193.38 154.31 193.25 154.78 193.38H165.64C165.79 193.38 166.25 193.25 166.41 193.24C167.36 193.52 168.6 193.25 169.6 193.29C171.43 193.36 173.15 193.39 174.99 193.29C176.13 193.22 177.33 193.57 178.48 193.29C178.91 193.18 179.39 193.37 179.87 193.37H209.97C211.89 190.85 209.02 189.62 210.51 187.71" fill="#90BEFB"/>
<path d="M98.04 258.81C97.93 259.35 97.92 259.95 98.17 260.4C99.12 262.12 97.55 261.62 98.8 264.05C99.13 264.71 99.49 265.17 100.08 265.67L100.46 267.21C101.27 267.83 101.53 268.57 101.83 269.54C102.03 270.18 102.93 270.76 103.29 271.34C103.69 271.98 104.08 272.5 104.97 272.43C105.72 272.38 106.54 272.75 107.28 272.76L118.65 272.91C119.46 272.91 120.02 273.39 120.92 272.86C121.38 272.58 122.2 272.49 122.8 272.54C123.8 272.63 124.68 272.54 125.67 272.53L133.43 272.37C134.96 272.34 136.2 272.07 137.71 272.2C140.54 272.45 140.48 271.88 142.24 271.83C143.2 271.8 144.21 271.7 145.17 271.83C146.24 271.99 147.25 271.83 148.2 271.45C150.57 273.14 151.47 270.92 152.21 271.11C153.01 271.32 153.06 272.68 155.71 271.47C155.85 271.41 156.34 271.4 156.49 271.42C156.67 271.44 156.8 271.79 156.8 272.12V329.47H80.79V307.31C81.52 307.35 82.11 307.04 82.23 306.39C82.44 305.35 83.32 304.82 84.34 305.07C85.02 305.23 85.79 305.07 86.52 305.05C88.61 304.99 90.67 304.92 92.76 305.15C93.4 305.22 94.41 306.09 95.13 305.57C95.43 305.35 96.07 305.9 96.29 306.12L98.02 307.78C98.48 308.22 98.92 308.5 99.5 308.88C102.05 310.6 101.57 311.92 103.45 312.8C103.77 312.95 104.28 313.49 104.41 313.81C105.27 315.76 106.92 314.67 107.57 315.85C108.11 316.82 109.32 317.91 110.26 317.92L113.44 317.96C113.79 318.37 114.24 318.98 114.63 319.04C116.55 319.31 116.18 317.44 119.07 318.62L121.41 317.91L123.29 318.41C125.63 317.4 125.47 318.16 128.17 317.98C130.8 317.8 129.28 315.59 132.61 315.8C134.48 315.92 134.62 314.32 136.83 312.99C137.4 312.65 138.07 312.31 138.26 311.64C138.41 311.1 138.98 310.3 139.02 309.81C139.24 307.15 139.26 305.34 139.02 302.66C138.3 300.29 137.01 300.33 136.97 298.86C136.95 298.05 136.07 297.92 135.64 296.12L133.37 293.29C132.89 293.14 132.17 293.12 131.56 293.09C131.04 293.07 130.26 292.68 129.77 292.7C128.61 292.74 127.56 292.87 126.43 292.73C125.57 292.63 124.76 292.77 123.89 292.77L119.11 292.75C118.51 292.75 117.75 292.06 117.13 292.33C116.2 292.73 115.39 292.81 114.39 292.82L104.96 292.87L102.96 293.19C101.01 293.5 99.03 292.94 97.08 293.25L94.81 293.62C93.88 293.78 92.92 294.14 92.01 293.73C91.26 293.39 90.36 293.48 89.67 293.82C88.76 294.26 87.46 292.25 85.62 294.33C85.28 294.71 84.56 294.17 84.25 293.88C82.76 292.49 80.79 295.43 80.79 293.53V234.58C81.24 234.09 82.21 233.31 82.81 233.6C83.29 233.83 83.74 234.38 84.12 234.42C85.61 234.57 85.74 233.47 86.98 233.29C88.6 235.43 89.86 233.29 91.49 234.06C92.19 234.39 92.8 234.2 93.44 233.77L94.88 233.64L95.84 232.47L96.27 233.78C97.51 234.09 98.57 233.78 99.55 232.84C99.74 232.66 100.09 233.17 100.28 233.35C100.94 233.98 101.97 233.63 102.86 233.57C103.46 233.53 104.68 234.61 105.22 233.55C105.32 233.36 104.92 233.09 104.55 232.8C104.39 232.8 104.47 232.73 104.76 232.55C105.86 232.59 105.7 233.33 106.65 233.38C107.95 233.44 107.58 232.13 109.44 232.75C109.74 233.28 110.15 233.76 110.82 233.5L112.65 232.81C115.48 234.38 116.43 231.78 117.39 232.81C117.95 233.43 118.38 233.32 119.06 233.15L121.12 232.61C121.94 233.73 123.12 233.81 124.13 232.98C124.32 232.82 124.83 232.64 125.08 232.62C127.01 234.69 127.94 232.54 129.55 232.84C131.71 234.72 132.08 231.91 134.23 233.39C135.31 234.14 137.39 232.23 138.35 232.67L139.45 233.18C140.68 232.66 142.07 232.6 143.22 233.41C145.31 233.02 146.02 232.1 147.93 232.95C148.22 233.08 148.95 232.88 149.3 232.85L151.34 232.68C151.75 232.64 152.58 232.93 153.04 233.01C154.29 232.55 155.53 232.46 156.82 232.86V258.07C155.64 258.04 155.03 258.57 154.95 259.54C154.88 260.35 154.06 260.8 153.31 260.55C152.44 260.27 151.71 260.33 150.83 260.52C148.85 260.96 147.29 260.33 145.24 260.62C143.04 258.91 142.18 260.56 141.07 259.45L135.06 253.48C134.08 252.5 133.2 251.53 132.11 250.65L130.01 250.15C128.89 247.11 126.98 247.64 124.23 247.68C123.91 247.68 123.49 247.15 123.26 246.9C122.48 246.08 121.33 246.54 120.73 247.25C120.23 247.85 119.54 247.79 119.05 247.32C118.55 246.83 117.92 246.86 117.34 247.13C116.31 247.61 115.3 247.4 114.18 247.14C113.77 247.04 113.11 247.42 112.64 247.61C111.51 248.04 111.31 247.31 109.22 247.54C106.34 247.85 107.76 249.81 105.35 249.56C102.58 249.26 103.1 251.36 100.08 252.72C98.38 253.49 98.63 256.15 98.58 256.37L98.07 258.84L98.04 258.81Z" fill="#90BEFB"/>
<path d="M75.83 39.26V136.92H60.37C60.27 135.7 60.3 134.63 60.4 133.51L60.32 128.7L60.37 121.03C60.37 120.4 60.44 119.83 60.35 119.2C60.28 118.58 60.31 117.88 60.52 117.34C61.01 116.15 60.35 114.95 60.44 113.85C60.52 112.85 60.72 111.87 60.71 110.81L60.65 105.08L60.95 103.1C61.38 100.18 60.67 91.41 60.7 88.25L60.74 83.3C60.74 82.38 60.7 81.38 60.62 80.44C60.56 79.73 60.2 79.02 60.33 78.29C60.46 77.48 60.13 76.83 59.53 76.33C57.23 74.39 58.77 74.25 57.84 73.28C56.28 71.66 57.75 71.32 56.59 70.19C56.08 69.7 55.75 69.1 55.31 68.61L53.01 66.04L50.61 63.91C50.1 63.71 49.11 63.71 48.63 63.46L46.15 62.17C45.8 61.99 45.29 61.33 44.91 61.3C43.81 61.22 42.74 61.4 41.77 61.15C40.88 60.93 40.11 60.79 39.2 60.64C38.59 60.54 38 60.29 37.5 60.91C33.17 60.14 34.86 60.75 33.43 61C31.64 61.32 29.99 61.53 28.66 63.01C27.27 64.56 26.15 62.86 25.24 64.78C24.47 66.4 24.09 65.05 22.48 67.74C22.23 68.16 21.66 68.63 21.37 69.06C20.14 70.87 19.08 69.5 17.92 73.49L16.26 75.05C15.07 80.03 13.46 75.81 14.16 81.41L13.26 81.57V136.91H0V0H15.21C15.39 0.08 15.75 0.15 16.1 0.21L17.78 0.49C18.57 0.23 19.1 0.23 19.87 0.31C20.82 0.41 21.94 0.26 22.82 0.5C23.56 0.7 23.38 1.75 23.22 2.25C22.53 4.43 24.05 4.17 23.13 7.54C22.74 8.97 23.66 7.91 23.33 11.18C23.02 14.22 23.84 13.63 23.08 15.62C22.91 16.81 23.79 18.22 23.23 19.47C22.95 20.1 22.94 20.56 23.13 21.21C23.45 22.31 23.17 23.5 23.13 24.68C23.08 25.66 23.58 27.06 23.14 27.93C22.51 29.17 22.76 30.03 23.08 31.2C23.37 32.27 23.74 32.85 24.5 33.68C25.27 34.51 25.41 36.11 26.96 36.34C27.32 37.67 28.47 38.17 29.71 38.14C30.7 38.11 31.77 38.28 32.73 38.39C33.03 38.42 33.71 38.18 34 38.19C34.68 38.22 35.47 38.32 36.07 38.21C37.4 37.95 38.47 38.27 39.75 38.39C41.24 38.53 42.83 38.47 44.35 38.47C45.3 38.47 45.87 38.73 46.62 39.24C47.66 39.93 49.07 39.6 50.24 39.57C51.52 39.54 52.74 39.57 53.97 39.5L55.98 39.36C56.91 39.29 57.87 39.18 58.84 39.18H62.25C65.44 39.2 65.61 40.98 66.76 39.9C66.98 39.68 67.64 39.27 67.93 39.36L70.38 40.06C71.32 39.14 72.5 39.18 73.71 39.73C74.34 39.47 75.1 39.15 75.85 39.27" fill="#90BEFB"/>
</g>
</g>
<defs>
<clipPath id="clip0_2554_17243">
<rect width="210.67" height="329.47" fill="white"/>
</clipPath>
</defs>
</svg>
