<svg width="221" height="340" viewBox="0 0 221 340" fill="none" xmlns="http://www.w3.org/2000/svg">
<g clip-path="url(#clip0_2554_16929)">
<mask id="mask0_2554_16929" style="mask-type:luminance" maskUnits="userSpaceOnUse" x="0" y="0" width="221" height="340">
<path d="M220.67 0H0V339.47H220.67V0Z" fill="white"/>
</mask>
<g mask="url(#mask0_2554_16929)">
<path d="M194.28 169.74C193.82 170.34 192.96 170.82 192.69 171.45C192.33 172.33 192 172.75 191.24 173.23C190.02 174.01 189.19 175.52 187.89 176.23C187.2 176.61 186.42 176.54 185.93 177.37C185.63 177.87 184.89 177.87 184.26 177.91C182.72 178.02 182.39 179.57 180.72 178.74C178.93 177.84 179.56 180.42 178 179.98C177.22 179.76 176.81 179.39 175.97 178.66L175.05 179.65C174.04 179.53 172.95 179.28 171.89 179.02C170.98 178.8 169.85 179.35 168.94 178.97C166.78 178.07 166.44 176.46 165.66 176.46L163.52 176.44C161.57 174.59 160.43 173.95 159.58 171.43C159.68 170.42 159.49 169.56 158.78 168.94C158.53 168.72 158.5 168 158.42 167.71C157.85 165.42 159.87 166.18 159.48 164.72C159.23 163.78 159.82 163.08 160.63 162.75C161.26 162.5 161.44 161.86 161.59 161.24C161.66 160.91 162.34 160.69 162.72 160.52C163.41 160.21 164.23 159.39 164.82 158.97C166.03 159.01 166.54 158.33 167.53 157.9C168.22 157.59 169.34 157.56 170.15 157.33C170.73 157.17 171.58 157.25 172.18 157.31C174.12 157.5 173.73 156.08 175.02 156.35C175.83 156.51 175.69 157.59 177.02 157.63C177.84 157.65 177.73 156.32 178.27 156.21C178.43 156.18 178.81 156.39 178.93 156.53C180.17 158.04 180.83 156.87 183.94 157.67C186.32 158.28 185.75 159.45 187.11 159.86C188.15 160.18 188.62 160.9 188.65 161.99L190.45 162.72L191.1 164.18C191.68 164.37 192.59 164.81 192.95 165.14C193.26 165.43 192.75 165.86 192.82 166.56C192.89 167.14 195.14 166.63 195.1 167.67C195.08 168.29 194.64 169.24 194.24 169.75M215.52 192.72C215.68 192.04 215.62 190.98 215.54 190.21C215.35 188.61 215.82 187.82 215.54 185.53C215.44 184.73 215.6 184.14 215.6 183.3V101.89C211.94 100.52 212.73 102.4 210.32 101.53C209.32 101.16 208.09 101.61 207.03 101.57C206.07 101.52 205.15 101.3 204.23 101.51C203.77 101.61 203.33 101.43 202.82 101.43H138.34C137.97 102.65 138.95 102.12 139.04 103.3C139.08 103.79 138.77 104.1 138.31 104.39C138.26 105.13 138.24 106.14 138.37 106.9C138.45 107.16 138.94 107.66 138.85 107.92C138.78 108.14 138.41 108.61 138.37 108.87C138.24 109.66 138.12 111.15 138.39 111.89C138.68 112.71 138.39 112.95 138.37 113.62C138.21 117.01 138.26 120.38 138.32 123.8C138.57 124.85 139.91 125.31 140.5 126.01C141.15 126.76 141.57 127.82 142.78 127.69C144.43 127.51 146.21 128.14 147.49 129.55L148.01 128.27C149.61 127.29 149.97 128.63 151.31 127.68C153.07 126.43 153.53 128.01 154.85 126.75L157.45 124.29L163.74 118.04L165.99 117.51C166.21 116.33 167.73 115.02 168.56 115.02L171.63 115.04C171.95 115.04 172.35 114.55 172.61 114.27C173.36 113.46 174.51 113.87 175.15 114.64C175.31 114.83 175.87 115.11 176.11 115.08C176.9 114.98 177.02 113.82 178.51 114.51C179.54 114.99 180.55 114.77 181.67 114.51C182.13 114.41 182.82 114.83 183.34 115.01C184.44 115.39 184.42 114.67 186.79 114.93C187.81 115.04 188.43 115.41 188.89 116.36C189.38 117.34 191.79 116.64 192.32 117.12L195.1 119.67C196.31 120.78 196.76 119.42 197.48 123.89L197.84 126.07C198 127.03 197.65 127.93 197.54 128.85C197.35 130.4 197.85 130.91 195.82 133.14L195.41 134.65C194.48 135.23 194.33 136.1 194.05 137.12C193.88 137.75 193.01 138.33 192.56 138.89C192.05 139.53 191.57 139.97 190.71 139.86C190.06 139.78 189.33 140.18 188.7 140.19L177.15 140.32C176.33 140.32 175.78 140.84 174.88 140.27C174.43 139.99 173.6 139.9 173 139.96C171.99 140.06 171.12 139.96 170.13 139.95L162.15 139.84C161.61 139.84 160.96 139.21 160.42 139.67C159.04 140.85 157.22 140.86 155.76 139.77C155.13 139.3 154.4 139.27 153.68 139.24C152.14 139.17 150.77 139.17 149.17 139.37L147.63 138.82C144.79 141.01 144.48 137.29 142.62 139.22C140.54 139.83 140.72 138.58 139.38 138.88C137.95 139.19 138.19 140.9 138.34 142.54C138.37 142.91 138.29 143.29 138.29 143.72L138.27 198.38H158.47C158.94 198.38 159.31 198.25 159.78 198.38H170.64C170.79 198.38 171.25 198.25 171.41 198.24C172.36 198.52 173.6 198.25 174.6 198.29C176.43 198.36 178.15 198.39 179.99 198.29C181.13 198.22 182.33 198.57 183.48 198.29C183.91 198.18 184.39 198.37 184.87 198.37H214.97C216.89 195.85 214.02 194.62 215.51 192.71" fill="#90BEFB"/>
<path d="M103.05 263.81C102.94 264.35 102.93 264.95 103.18 265.4C104.13 267.12 102.56 266.62 103.81 269.05C104.14 269.71 104.5 270.17 105.09 270.67L105.47 272.21C106.28 272.83 106.54 273.57 106.84 274.54C107.04 275.18 107.94 275.76 108.3 276.34C108.7 276.98 109.09 277.5 109.98 277.43C110.73 277.38 111.55 277.75 112.29 277.76L123.66 277.91C124.47 277.91 125.03 278.39 125.93 277.86C126.39 277.58 127.21 277.49 127.81 277.54C128.81 277.63 129.69 277.54 130.68 277.53L138.44 277.37C139.97 277.34 141.21 277.07 142.72 277.2C145.55 277.45 145.49 276.88 147.25 276.83C148.21 276.8 149.22 276.7 150.18 276.83C151.25 276.99 152.26 276.83 153.21 276.45C155.58 278.14 156.48 275.92 157.22 276.11C158.02 276.32 158.07 277.68 160.72 276.47C160.86 276.41 161.35 276.4 161.5 276.42C161.68 276.44 161.81 276.79 161.81 277.12V334.47H85.7998V312.31C86.5298 312.35 87.1198 312.04 87.2398 311.39C87.4498 310.35 88.3298 309.82 89.3498 310.07C90.0298 310.23 90.7998 310.07 91.5298 310.05C93.6198 309.99 95.6798 309.92 97.7698 310.15C98.4098 310.22 99.4198 311.09 100.14 310.57C100.44 310.35 101.08 310.9 101.3 311.12L103.03 312.78C103.49 313.22 103.93 313.5 104.51 313.88C107.06 315.6 106.58 316.92 108.46 317.8C108.78 317.95 109.29 318.49 109.42 318.81C110.28 320.76 111.93 319.67 112.58 320.85C113.12 321.82 114.33 322.91 115.27 322.92L118.45 322.96C118.8 323.37 119.25 323.98 119.64 324.04C121.56 324.31 121.19 322.44 124.08 323.62L126.42 322.91L128.3 323.41C130.64 322.4 130.48 323.16 133.18 322.98C135.81 322.8 134.29 320.59 137.62 320.8C139.49 320.92 139.63 319.32 141.84 317.99C142.41 317.65 143.08 317.31 143.27 316.64C143.42 316.1 143.99 315.3 144.03 314.81C144.25 312.15 144.27 310.34 144.03 307.66C143.31 305.29 142.02 305.33 141.98 303.86C141.96 303.05 141.08 302.92 140.65 301.12L138.38 298.29C137.9 298.14 137.18 298.12 136.57 298.09C136.05 298.07 135.27 297.68 134.78 297.7C133.62 297.74 132.57 297.87 131.44 297.73C130.58 297.63 129.77 297.77 128.9 297.77L124.12 297.75C123.52 297.75 122.76 297.06 122.14 297.33C121.21 297.73 120.4 297.81 119.4 297.82L109.97 297.87L107.97 298.19C106.02 298.5 104.04 297.94 102.09 298.25L99.8198 298.62C98.8898 298.78 97.9298 299.14 97.0198 298.73C96.2698 298.39 95.3698 298.48 94.6798 298.82C93.7698 299.26 92.4698 297.25 90.6298 299.33C90.2898 299.71 89.5698 299.17 89.2598 298.88C87.7698 297.49 85.7998 300.43 85.7998 298.53V239.58C86.2498 239.09 87.2198 238.31 87.8198 238.6C88.2998 238.83 88.7498 239.38 89.1298 239.42C90.6198 239.57 90.7498 238.47 91.9898 238.29C93.6098 240.43 94.8698 238.29 96.4998 239.06C97.1998 239.39 97.8098 239.2 98.4498 238.77L99.8898 238.64L100.85 237.47L101.28 238.78C102.52 239.09 103.58 238.78 104.56 237.84C104.75 237.66 105.1 238.17 105.29 238.35C105.95 238.98 106.98 238.63 107.87 238.57C108.47 238.53 109.69 239.61 110.23 238.55C110.33 238.36 109.93 238.09 109.56 237.8C109.4 237.8 109.48 237.73 109.77 237.55C110.87 237.59 110.71 238.33 111.66 238.38C112.96 238.44 112.59 237.13 114.45 237.75C114.75 238.28 115.16 238.76 115.83 238.5L117.66 237.81C120.49 239.38 121.44 236.78 122.4 237.81C122.96 238.43 123.39 238.32 124.07 238.15L126.13 237.61C126.95 238.73 128.13 238.81 129.14 237.98C129.33 237.82 129.84 237.64 130.09 237.62C132.02 239.69 132.95 237.54 134.56 237.84C136.72 239.72 137.09 236.91 139.24 238.39C140.32 239.14 142.4 237.23 143.36 237.67L144.46 238.18C145.69 237.66 147.08 237.6 148.23 238.41C150.32 238.02 151.03 237.1 152.94 237.95C153.23 238.08 153.96 237.88 154.31 237.85L156.35 237.68C156.76 237.64 157.59 237.93 158.05 238.01C159.3 237.55 160.54 237.46 161.83 237.86V263.07C160.65 263.04 160.04 263.57 159.96 264.54C159.89 265.35 159.07 265.8 158.32 265.55C157.45 265.27 156.72 265.33 155.84 265.52C153.86 265.96 152.3 265.33 150.25 265.62C148.05 263.91 147.19 265.56 146.08 264.45L140.07 258.48C139.09 257.5 138.21 256.53 137.12 255.65L135.02 255.15C133.9 252.11 131.98 252.64 129.24 252.68C128.92 252.68 128.5 252.15 128.27 251.9C127.49 251.08 126.34 251.54 125.74 252.25C125.24 252.85 124.55 252.79 124.06 252.32C123.56 251.83 122.93 251.86 122.35 252.13C121.32 252.61 120.31 252.4 119.19 252.14C118.78 252.04 118.12 252.42 117.65 252.61C116.52 253.04 116.32 252.31 114.23 252.54C111.35 252.85 112.77 254.81 110.36 254.56C107.59 254.26 108.11 256.36 105.09 257.72C103.39 258.49 103.64 261.15 103.59 261.37L103.08 263.84L103.05 263.81Z" fill="#90BEFB"/>
<path d="M80.84 44.26V141.92H65.38C65.28 140.7 65.31 139.63 65.41 138.51L65.33 133.7L65.37 126.03C65.37 125.4 65.44 124.83 65.36 124.2C65.29 123.58 65.32 122.88 65.53 122.34C66.02 121.15 65.36 119.95 65.45 118.85C65.53 117.85 65.73 116.87 65.72 115.81L65.66 110.08L65.96 108.1C66.39 105.18 65.68 96.41 65.71 93.25L65.75 88.3C65.75 87.38 65.71 86.38 65.63 85.44C65.57 84.73 65.21 84.02 65.34 83.29C65.47 82.48 65.14 81.83 64.54 81.33C62.24 79.39 63.78 79.25 62.85 78.28C61.29 76.66 62.76 76.32 61.6 75.19C61.09 74.7 60.76 74.1 60.32 73.61L58.02 71.04L55.62 68.91C55.11 68.71 54.12 68.71 53.64 68.46L51.16 67.17C50.81 66.99 50.3 66.33 49.92 66.3C48.82 66.22 47.75 66.4 46.78 66.15C45.89 65.93 45.12 65.79 44.21 65.64C43.6 65.54 43.01 65.29 42.51 65.91C38.18 65.14 39.87 65.75 38.44 66C36.65 66.32 35 66.53 33.67 68.01C32.28 69.56 31.16 67.86 30.25 69.78C29.48 71.4 29.1 70.05 27.49 72.74C27.24 73.16 26.67 73.63 26.38 74.06C25.15 75.87 24.09 74.5 22.93 78.49L21.27 80.05C20.08 85.03 18.47 80.81 19.17 86.41L18.27 86.57V141.91H5V5H20.21C20.39 5.08 20.75 5.15 21.1 5.21L22.78 5.49C23.57 5.23 24.1 5.23 24.87 5.31C25.82 5.41 26.94 5.26 27.82 5.5C28.56 5.7 28.38 6.75 28.22 7.25C27.53 9.43 29.05 9.17 28.13 12.54C27.74 13.97 28.66 12.91 28.33 16.18C28.02 19.22 28.84 18.63 28.08 20.62C27.91 21.81 28.79 23.22 28.23 24.47C27.95 25.1 27.94 25.56 28.13 26.21C28.45 27.31 28.17 28.5 28.13 29.68C28.08 30.66 28.58 32.06 28.14 32.93C27.51 34.17 27.76 35.03 28.08 36.2C28.37 37.27 28.74 37.85 29.5 38.68C30.27 39.51 30.41 41.11 31.96 41.34C32.32 42.67 33.47 43.17 34.71 43.14C35.7 43.11 36.77 43.28 37.73 43.39C38.03 43.42 38.71 43.18 39 43.19C39.68 43.22 40.47 43.32 41.07 43.21C42.4 42.95 43.47 43.27 44.75 43.39C46.24 43.53 47.83 43.47 49.35 43.47C50.3 43.47 50.87 43.73 51.62 44.24C52.66 44.93 54.07 44.6 55.24 44.57C56.52 44.54 57.74 44.57 58.97 44.5L60.98 44.36C61.91 44.29 62.87 44.18 63.84 44.18H67.25C70.43 44.2 70.61 45.98 71.75 44.9C71.97 44.68 72.63 44.27 72.92 44.36L75.37 45.06C76.31 44.14 77.49 44.18 78.7 44.73C79.33 44.47 80.09 44.15 80.84 44.27" fill="#90BEFB"/>
<path d="M210.57 190.75C210.28 188 212.27 185.54 215.01 185.24C217.76 184.95 220.22 186.94 220.52 189.68C220.81 192.43 218.82 194.89 216.07 195.19C215.89 195.21 215.72 195.22 215.54 195.22C213.02 195.22 210.85 193.31 210.57 190.75Z" fill="black"/>
<path d="M210.58 186.17C210.23 183.43 212.17 180.92 214.91 180.58C217.65 180.23 220.15 182.17 220.5 184.91C220.84 187.64 218.91 190.15 216.17 190.5C215.95 190.52 215.74 190.54 215.53 190.54C213.05 190.54 210.9 188.69 210.58 186.17Z" fill="black"/>
<path d="M210.6 183.31C210.6 180.55 212.83 178.31 215.6 178.31C218.36 178.31 220.6 180.55 220.6 183.31C220.6 186.07 218.36 188.31 215.6 188.31C212.83 188.31 210.6 186.07 210.6 183.31Z" fill="black"/>
<path d="M210.6 156.17C210.6 153.41 212.84 151.17 215.6 151.17C218.36 151.17 220.6 153.41 220.6 156.17C220.6 158.94 218.36 161.17 215.6 161.17C212.84 161.17 210.6 158.93 210.6 156.17ZM215.6 134.03C212.84 134.03 210.61 131.8 210.61 129.03C210.61 126.27 212.85 124.03 215.61 124.03C218.37 124.03 220.61 126.28 220.61 129.04C220.61 131.8 218.37 134.03 215.61 134.03H215.6Z" fill="black"/>
<path d="M208.62 106.24C206.03 105.31 204.68 102.44 205.62 99.8401C206.55 97.2501 209.42 95.9001 212.01 96.8301C214.61 97.7701 215.96 100.64 215.02 103.23C214.29 105.27 212.37 106.54 210.32 106.54C209.76 106.54 209.18 106.44 208.62 106.24Z" fill="black"/>
<path d="M206.81 106.57C204.06 106.45 201.91 104.12 202.03 101.36C202.15 98.6 204.48 96.46 207.24 96.58C210 96.7 212.14 99.03 212.02 101.79C211.91 104.48 209.69 106.58 207.03 106.58C206.96 106.58 206.89 106.58 206.81 106.57Z" fill="black"/>
<path d="M199.36 102.63C198.74 99.9397 200.42 97.2597 203.12 96.6397C205.81 96.0297 208.49 97.7097 209.1 100.4C209.72 103.1 208.03 105.78 205.34 106.39C204.97 106.48 204.59 106.52 204.22 106.52C201.94 106.52 199.88 104.95 199.36 102.63Z" fill="black"/>
<path d="M202.8 106.46C202.71 106.45 202.65 106.44 202.61 106.43C199.94 106.32 197.82 104.13 197.82 101.44C197.82 98.6697 200.06 96.4297 202.82 96.4297C203.66 96.4397 204.18 96.5597 204.25 96.5597C206.98 96.9697 208.87 99.5097 208.47 102.24C208.1 104.72 205.97 106.51 203.53 106.51C203.29 106.51 203.04 106.49 202.8 106.46Z" fill="black"/>
<path d="M165.58 101.43C165.58 98.6697 167.82 96.4297 170.58 96.4297C173.34 96.4297 175.58 98.6697 175.58 101.43C175.58 104.19 173.34 106.43 170.58 106.43C167.82 106.43 165.58 104.19 165.58 101.43Z" fill="black"/>
<path d="M134.06 103.68C133.85 100.92 135.91 98.5203 138.67 98.3103C141.42 98.1103 143.82 100.17 144.03 102.93C144.23 105.68 142.17 108.08 139.42 108.29C139.29 108.3 139.16 108.3 139.04 108.3C136.45 108.3 134.25 106.3 134.06 103.68Z" fill="black"/>
<path d="M134.08 107.05C132.66 104.81 133.26 101.87 135.38 100.34C137.16 98.6298 139.96 98.4598 141.94 100.03C144.11 101.74 144.48 104.89 142.76 107.05C142.07 107.91 141.43 108.32 140.97 108.62C140.15 109.14 139.23 109.39 138.32 109.39C136.65 109.39 135.03 108.56 134.08 107.05Z" fill="black"/>
<path d="M133.45 107.77C132.97 105.05 134.78 102.46 137.5 101.97C140.22 101.49 142.81 103.31 143.29 106.03C143.77 108.75 141.96 111.34 139.24 111.82C138.95 111.87 138.65 111.9 138.36 111.9C135.99 111.9 133.88 110.19 133.45 107.77Z" fill="black"/>
<path d="M137.36 112.69C134.73 111.87 133.26 109.06 134.08 106.43C134.91 103.79 137.71 102.32 140.35 103.15C142.99 103.97 144.45 106.78 143.63 109.41C142.96 111.55 140.98 112.92 138.86 112.92C138.36 112.92 137.86 112.85 137.36 112.69Z" fill="black"/>
<path d="M137.69 113.82C134.95 113.44 133.04 110.91 133.43 108.18C133.59 107.15 133.83 106.76 133.98 106.43C134.13 106.12 134.24 105.94 134.32 105.81C135.74 103.44 138.82 102.68 141.18 104.1C143.47 105.48 144.26 108.41 143.02 110.74C142.26 112.61 140.43 113.87 138.39 113.87C138.15 113.87 137.92 113.85 137.69 113.82Z" fill="black"/>
<path d="M133.68 113.55C132.76 110.95 134.12 108.09 136.72 107.17C139.33 106.25 142.18 107.61 143.11 110.22C144.03 112.82 142.66 115.68 140.06 116.6C139.51 116.79 138.95 116.89 138.39 116.89C136.33 116.89 134.4 115.6 133.68 113.55Z" fill="black"/>
<path d="M138.15 118.61C135.39 118.49 133.25 116.15 133.37 113.39C133.4 112.85 133.49 112.37 133.54 112.13C133.89 109.38 136.39 107.44 139.13 107.79C141.87 108.13 143.81 110.64 143.46 113.38C143.41 113.71 143.37 113.94 143.34 114.06C143.11 116.64 140.95 118.62 138.36 118.62C138.29 118.62 138.21 118.61 138.14 118.61H138.15Z" fill="black"/>
<path d="M133.32 123.87C133.28 121.11 135.48 118.84 138.24 118.8C141 118.76 143.27 120.96 143.32 123.72C143.36 126.48 141.15 128.75 138.39 128.79C138.39 128.79 138.34 128.8 138.32 128.8C135.59 128.8 133.36 126.61 133.32 123.87Z" fill="black"/>
<path d="M136.69 129.24C134.9 127.14 135.15 123.99 137.26 122.2C139.36 120.41 142.52 120.66 144.31 122.76C146.1 124.87 145.84 128.02 143.74 129.81C142.8 130.61 141.65 131.01 140.5 131C139.08 131 137.68 130.41 136.69 129.24Z" fill="black"/>
<path d="M137.8 128.21C137.51 125.46 139.5 123 142.25 122.71C145 122.42 147.46 124.42 147.75 127.16C148.03 129.91 146.04 132.37 143.3 132.66C143.12 132.68 142.94 132.68 142.77 132.68C140.24 132.68 138.07 130.78 137.8 128.21Z" fill="black"/>
<path d="M143.76 132.89C141.92 130.84 142.09 127.68 144.14 125.83C146.19 123.99 149.36 124.15 151.2 126.21C153.05 128.26 152.88 131.42 150.82 133.27C149.87 134.13 148.67 134.55 147.48 134.55C146.12 134.55 144.75 133.99 143.76 132.89Z" fill="black"/>
<path d="M145.85 133.54C143.29 132.49 142.07 129.57 143.12 127.02L143.38 126.38C144.42 123.82 147.35 122.6 149.9 123.65C152.46 124.69 153.68 127.61 152.63 130.17L152.37 130.81C151.58 132.74 149.71 133.91 147.74 133.91C147.11 133.91 146.47 133.79 145.85 133.54Z" fill="black"/>
<path d="M147.22 130.57C145.63 128.31 146.17 125.19 148.42 123.6C150.68 122.01 153.8 122.55 155.39 124.8C156.98 127.06 156.44 130.18 154.19 131.77C153.31 132.39 152.3 132.69 151.31 132.69C149.74 132.69 148.19 131.95 147.22 130.57Z" fill="black"/>
<path d="M151.22 130.2C149.32 128.2 149.41 125.03 151.41 123.13C153.41 121.23 156.57 121.31 158.48 123.32C160.38 125.32 160.3 128.48 158.29 130.39C157.32 131.3 156.09 131.76 154.85 131.76C153.53 131.76 152.21 131.24 151.22 130.2Z" fill="black"/>
<path d="M153.81 127.74C151.92 125.73 152.01 122.57 154.01 120.67C156.02 118.77 159.18 118.86 161.08 120.87C162.98 122.87 162.89 126.04 160.88 127.94C159.92 128.85 158.68 129.3 157.45 129.3C156.12 129.3 154.8 128.78 153.81 127.74Z" fill="black"/>
<path d="M160.19 121.58C158.24 119.62 158.26 116.45 160.22 114.51C162.18 112.56 165.34 112.57 167.29 114.53C169.23 116.49 169.22 119.66 167.26 121.6C166.29 122.57 165.01 123.06 163.74 123.06C162.45 123.06 161.17 122.56 160.19 121.58Z" fill="black"/>
<path d="M161.12 118.67C160.48 115.99 162.15 113.29 164.84 112.66C167.53 112.03 170.22 113.69 170.85 116.38C171.49 119.07 169.82 121.76 167.13 122.39C166.75 122.48 166.36 122.53 165.98 122.53C163.71 122.53 161.66 120.98 161.12 118.67Z" fill="black"/>
<path d="M163.56 115.04C163.56 112.28 165.8 110.04 168.56 110.04C171.32 110.04 173.56 112.28 173.56 115.04C173.56 117.8 171.32 120.04 168.56 120.04C165.8 120.04 163.56 117.8 163.56 115.04Z" fill="black"/>
<path d="M171.59 120.06C168.83 120.04 166.61 117.79 166.63 115.03C166.65 112.27 168.9 110.04 171.66 110.06C174.43 110.08 176.65 112.34 176.63 115.1C176.61 117.85 174.37 120.06 171.63 120.06H171.59Z" fill="black"/>
<path d="M168.53 118.19C166.64 116.18 166.73 113.02 168.73 111.13C168.77 111.08 168.84 111 168.98 110.86C170.87 108.85 174.04 108.77 176.04 110.67C178.05 112.56 178.13 115.73 176.24 117.73C176.24 117.73 176.02 117.99 175.6 118.39C174.63 119.3 173.4 119.76 172.17 119.76C170.84 119.76 169.52 119.23 168.53 118.19Z" fill="black"/>
<path d="M171.32 117.88C169.54 115.77 169.81 112.62 171.92 110.84C174.03 109.06 177.19 109.33 178.97 111.44C180.75 113.55 180.48 116.7 178.37 118.48C177.43 119.27 176.28 119.66 175.15 119.66C173.72 119.66 172.31 119.06 171.32 117.88Z" fill="black"/>
<path d="M171.14 115.7C170.81 112.95 172.77 110.47 175.51 110.14C178.25 109.81 180.74 111.76 181.07 114.51C181.4 117.25 179.44 119.74 176.7 120.07C176.5 120.09 176.3 120.1 176.1 120.1C173.61 120.1 171.45 118.24 171.14 115.7Z" fill="black"/>
<path d="M176.42 119.07C173.91 117.91 172.81 114.94 173.97 112.44C175.12 109.93 178.09 108.83 180.6 109.98C183.11 111.14 184.21 114.11 183.05 116.62C182.21 118.45 180.4 119.53 178.51 119.53C177.81 119.53 177.1 119.38 176.42 119.07Z" fill="black"/>
<path d="M176.8 115.64C176.19 112.94 177.88 110.27 180.57 109.66C183.27 109.05 185.94 110.74 186.55 113.43C187.16 116.12 185.47 118.8 182.78 119.41C182.41 119.49 182.03 119.53 181.67 119.53C179.38 119.53 177.32 117.96 176.8 115.64Z" fill="black"/>
<path d="M181.73 119.76C181.04 119.52 180.74 119.36 180.68 119.34C178.11 118.32 176.86 115.41 177.89 112.84C178.91 110.28 181.82 109.03 184.38 110.05C184.71 110.19 184.93 110.28 185 110.32C187.59 111.22 188.97 114.05 188.08 116.65C187.37 118.73 185.42 120.03 183.35 120.03C182.81 120.03 182.26 119.95 181.73 119.76Z" fill="black"/>
<path d="M186.23 119.93C183.49 119.62 181.51 117.14 181.83 114.4C182.14 111.65 184.61 109.68 187.36 109.99C190.1 110.3 192.07 112.78 191.76 115.52C191.47 118.07 189.31 119.96 186.8 119.96C186.61 119.96 186.42 119.95 186.23 119.93Z" fill="black"/>
<path d="M184.4 118.57C183.19 116.08 184.23 113.09 186.72 111.89C189.21 110.69 192.2 111.73 193.4 114.21C194.6 116.7 193.56 119.69 191.08 120.89C190.37 121.23 189.63 121.39 188.9 121.39C187.05 121.39 185.26 120.35 184.4 118.57Z" fill="black"/>
<path d="M188.95 120.84C186.91 118.97 186.77 115.81 188.64 113.77C190.5 111.74 193.67 111.6 195.7 113.47C197.74 115.33 197.88 118.5 196.01 120.53C195.02 121.61 193.68 122.15 192.32 122.15C191.12 122.15 189.91 121.72 188.95 120.84Z" fill="black"/>
<path d="M191.73 123.39C189.69 121.53 189.56 118.36 191.42 116.33C193.29 114.29 196.45 114.15 198.49 116.02C200.52 117.89 200.66 121.05 198.8 123.08C197.81 124.16 196.46 124.71 195.11 124.71C193.9 124.71 192.69 124.27 191.73 123.39Z" fill="black"/>
<path d="M192.55 124.72C192.11 122 193.97 119.43 196.69 118.99C199.42 118.55 201.98 120.4 202.43 123.12C202.87 125.85 201.01 128.42 198.29 128.86C198.02 128.9 197.75 128.92 197.48 128.92C195.07 128.92 192.95 127.18 192.55 124.72Z" fill="black"/>
<path d="M192.91 126.91C192.47 124.19 194.31 121.62 197.04 121.17C199.76 120.72 202.33 122.57 202.78 125.29C203.23 128.02 201.38 130.59 198.66 131.04C198.38 131.08 198.11 131.1 197.84 131.1C195.44 131.1 193.32 129.36 192.91 126.91Z" fill="black"/>
<path d="M197 133.86C194.25 133.55 192.27 131.08 192.58 128.33C192.89 125.59 195.36 123.61 198.1 123.92C200.85 124.22 202.82 126.7 202.52 129.44C202.23 132 200.07 133.89 197.56 133.89C197.37 133.89 197.18 133.88 197 133.86Z" fill="black"/>
<path d="M192.45 136.87C190.42 135.01 190.27 131.85 192.13 129.81C193.99 127.77 197.16 127.62 199.2 129.49C201.24 131.35 201.38 134.51 199.52 136.55C198.53 137.63 197.18 138.18 195.82 138.18C194.62 138.18 193.41 137.75 192.45 136.87Z" fill="black"/>
<path d="M194.1 139.51C191.44 138.79 189.87 136.04 190.59 133.37L190.8 132.62C191.52 129.95 194.27 128.38 196.93 129.11C199.6 129.83 201.17 132.58 200.44 135.24L200.24 136C199.63 138.22 197.62 139.69 195.42 139.69C194.98 139.69 194.54 139.63 194.1 139.51Z" fill="black"/>
<path d="M192.76 141.98C190.09 141.27 188.51 138.52 189.23 135.86C189.94 133.19 192.69 131.61 195.35 132.33C198.02 133.04 199.6 135.79 198.88 138.45C198.28 140.69 196.26 142.16 194.06 142.16C193.63 142.16 193.19 142.1 192.76 141.98Z" fill="black"/>
<path d="M189.44 142.83C187.29 141.1 186.94 137.95 188.67 135.8C190.4 133.64 193.54 133.3 195.7 135.02C197.85 136.75 198.2 139.9 196.47 142.05C195.48 143.28 194.03 143.92 192.57 143.92C191.47 143.92 190.37 143.57 189.44 142.83Z" fill="black"/>
<path d="M190.07 144.85C187.34 144.5 185.4 141.99 185.76 139.25C186.12 136.51 188.63 134.58 191.37 134.94C194.11 135.29 196.04 137.8 195.68 140.54C195.35 143.06 193.2 144.9 190.73 144.9C190.51 144.9 190.29 144.88 190.07 144.85Z" fill="black"/>
<path d="M183.71 140.28C183.68 137.52 185.89 135.26 188.65 135.22C191.41 135.19 193.68 137.4 193.71 140.16C193.75 142.92 191.53 145.19 188.77 145.22H188.71C185.98 145.22 183.75 143.02 183.71 140.28Z" fill="black"/>
<path d="M172.17 140.4C172.14 137.64 174.35 135.38 177.11 135.35C179.87 135.32 182.14 137.53 182.17 140.3C182.2 143.06 179.98 145.32 177.22 145.35H177.17C174.43 145.35 172.2 143.15 172.17 140.4Z" fill="black"/>
<path d="M172.19 144.5C169.87 143.01 169.2 139.92 170.69 137.59C172.18 135.27 175.28 134.6 177.6 136.09C179.92 137.59 180.6 140.68 179.1 143C178.15 144.49 176.54 145.3 174.89 145.3C173.97 145.3 173.03 145.04 172.19 144.5Z" fill="black"/>
<path d="M168.04 140.42C167.79 137.67 169.83 135.25 172.58 135C175.33 134.76 177.76 136.8 178 139.55C178.24 142.3 176.2 144.72 173.45 144.97C173.3 144.98 173.16 144.99 173.01 144.99C170.45 144.99 168.26 143.02 168.04 140.42Z" fill="black"/>
<path d="M170.06 144.97C167.3 144.92 165.1 142.65 165.14 139.89C165.19 137.13 167.46 134.93 170.22 134.97C172.99 135.01 175.19 137.29 175.14 140.05C175.1 142.78 172.87 144.97 170.15 144.97H170.06Z" fill="black"/>
<path d="M162.09 144.86C159.33 144.82 157.13 142.55 157.16 139.79C157.2 137.03 159.47 134.82 162.24 134.86C165 134.9 167.2 137.17 167.16 139.93C167.13 142.67 164.9 144.86 162.17 144.86H162.09Z" fill="black"/>
<path d="M156.62 142.92C154.83 140.82 155.09 137.67 157.19 135.88C159.3 134.09 162.45 134.34 164.24 136.45C166.03 138.55 165.77 141.71 163.67 143.5C162.73 144.3 161.58 144.69 160.43 144.69C159.02 144.69 157.61 144.09 156.62 142.92Z" fill="black"/>
<path d="M152.77 143.78C150.56 142.12 150.11 138.99 151.77 136.78C153.43 134.57 156.56 134.13 158.77 135.78C160.98 137.44 161.42 140.58 159.77 142.78C158.78 144.09 157.28 144.78 155.76 144.78C154.72 144.78 153.67 144.46 152.77 143.78Z" fill="black"/>
<path d="M153.48 144.25C150.72 144.14 148.58 141.81 148.69 139.05C148.8 136.29 151.13 134.14 153.89 134.26C156.65 134.37 158.79 136.7 158.68 139.46C158.57 142.15 156.36 144.25 153.69 144.25H153.48Z" fill="black"/>
<path d="M144.21 139.98C143.88 137.24 145.83 134.75 148.57 134.42C151.32 134.08 153.81 136.03 154.14 138.78C154.47 141.52 152.52 144.01 149.78 144.34C149.58 144.37 149.37 144.38 149.17 144.38C146.68 144.38 144.52 142.52 144.21 139.98Z" fill="black"/>
<path d="M146.72 143.81L145.95 143.54C143.35 142.61 141.99 139.75 142.92 137.15C143.85 134.54 146.71 133.19 149.31 134.12L150.09 134.4C152.69 135.32 154.04 138.19 153.11 140.79C152.38 142.83 150.46 144.1 148.4 144.1C147.85 144.1 147.28 144.01 146.72 143.81Z" fill="black"/>
<path d="M139.15 142.82C137.16 140.9 137.11 137.74 139.03 135.75C140.94 133.76 144.11 133.71 146.1 135.62C148.08 137.54 148.14 140.71 146.22 142.7C145.24 143.71 143.93 144.22 142.62 144.22C141.37 144.22 140.12 143.76 139.15 142.82Z" fill="black"/>
<path d="M134.51 139.97C133.9 137.28 135.6 134.6 138.29 134C140.99 133.4 143.66 135.09 144.26 137.79C144.87 140.48 143.17 143.16 140.48 143.76C140.11 143.84 139.74 143.88 139.38 143.88C137.09 143.88 135.03 142.3 134.51 139.97Z" fill="black"/>
<path d="M133.36 142.97C133.12 140.22 135.16 137.8 137.91 137.56C140.66 137.33 143.08 139.36 143.32 142.11C143.56 144.86 141.52 147.29 138.77 147.53C138.62 147.53 138.48 147.55 138.33 147.55C135.77 147.55 133.58 145.58 133.36 142.97Z" fill="black"/>
<path d="M133.29 143.72C133.29 143.21 133.33 142.85 133.34 142.71C133.58 139.95 136 137.92 138.75 138.15C141.5 138.39 143.54 140.81 143.3 143.56C143.3 143.68 143.3 143.74 143.3 143.77C143.27 146.51 141.04 148.72 138.3 148.72C135.54 148.72 133.3 146.49 133.3 143.72H133.29Z" fill="black"/>
<path d="M138.28 176.06C135.52 176.06 133.28 173.82 133.28 171.05C133.28 168.29 135.52 166.05 138.28 166.06C141.04 166.06 143.28 168.3 143.28 171.06C143.28 173.82 141.04 176.06 138.28 176.06Z" fill="black"/>
<path d="M153.48 198.38C153.48 195.62 155.71 193.38 158.48 193.38C161.24 193.38 163.48 195.62 163.48 198.38C163.48 201.14 161.24 203.38 158.48 203.38C155.72 203.38 153.48 201.14 153.48 198.38Z" fill="black"/>
<path d="M158.43 203.2C155.77 202.45 154.23 199.68 154.98 197.03C155.73 194.37 158.49 192.83 161.15 193.58C163.81 194.33 165.35 197.09 164.6 199.75C163.98 201.95 161.97 203.39 159.79 203.39C159.34 203.39 158.88 203.33 158.43 203.2Z" fill="black"/>
<path d="M165.65 198.39C165.65 195.63 167.89 193.39 170.65 193.39C173.41 193.39 175.65 195.63 175.65 198.39C175.65 201.15 173.41 203.39 170.65 203.39C167.89 203.39 165.65 201.15 165.65 198.39Z" fill="black"/>
<path d="M166.15 199.4C165.56 196.71 167.26 194.04 169.95 193.44C170.15 193.41 170.16 193.36 170.98 193.26C173.73 193.02 176.16 195.06 176.4 197.81C176.63 200.45 174.77 202.79 172.19 203.19C172.19 203.19 172.14 203.2 172.12 203.2C171.75 203.28 171.39 203.32 171.03 203.32C168.74 203.32 166.67 201.73 166.15 199.4Z" fill="black"/>
<path d="M174.43 203.3C171.67 203.19 169.52 200.88 169.62 198.12C169.72 195.36 172.04 193.2 174.8 193.3C177.55 193.4 179.71 195.72 179.61 198.48C179.51 201.18 177.29 203.3 174.62 203.3H174.43Z" fill="black"/>
<path d="M175.01 198.57C174.85 195.82 176.96 193.46 179.72 193.3C182.48 193.14 184.84 195.25 184.99 198.01C185.15 200.77 183.04 203.13 180.29 203.28C180.19 203.28 180.09 203.28 180 203.28C177.37 203.28 175.16 201.22 175.01 198.56V198.57Z" fill="black"/>
<path d="M178.63 199.46C177.99 196.77 179.65 194.07 182.34 193.43C185.02 192.79 187.72 194.45 188.36 197.14C189 199.83 187.34 202.52 184.65 203.16C184.26 203.25 183.87 203.3 183.49 203.3C181.23 203.3 179.18 201.75 178.63 199.46Z" fill="black"/>
<path d="M183.43 203.24C180.7 202.82 178.83 200.27 179.25 197.54C179.67 194.81 182.22 192.94 184.95 193.36C185.03 193.37 185.09 193.38 185.13 193.39C187.78 193.51 189.88 195.7 189.88 198.38C189.88 201.14 187.64 203.38 184.88 203.38C183.99 203.37 183.52 203.24 183.43 203.24Z" fill="black"/>
<path d="M214.98 203.39C212.22 203.39 209.98 201.15 209.98 198.39C209.98 195.63 212.22 193.39 214.99 193.39C217.75 193.39 219.99 195.63 219.98 198.39C219.98 201.15 217.75 203.39 214.99 203.39H214.98Z" fill="black"/>
<path d="M212.45 196.67C210.27 194.98 209.88 191.83 211.57 189.65C213.27 187.47 216.41 187.08 218.59 188.78C220.77 190.47 221.17 193.61 219.47 195.79C218.48 197.06 217.01 197.72 215.52 197.72C214.45 197.72 213.37 197.38 212.45 196.67Z" fill="black"/>
<path d="M215.52 197.72C215.52 197.72 215.48 197.72 215.45 197.72C212.69 197.68 210.48 195.42 210.51 192.66L210.54 190.15C210.58 187.41 212.81 185.21 215.54 185.21C215.56 185.21 215.58 185.21 215.6 185.21C218.36 185.25 220.57 187.51 220.54 190.27L220.51 192.78C220.48 195.52 218.24 197.72 215.51 197.72H215.52Z" fill="black"/>
<path d="M190.74 176.05C188.2 174.97 187.01 172.04 188.08 169.5C189.16 166.95 192.09 165.76 194.64 166.84C197.18 167.91 198.37 170.85 197.3 173.39C196.49 175.3 194.64 176.45 192.69 176.45C192.04 176.45 191.38 176.32 190.74 176.05Z" fill="black"/>
<path d="M187.03 175.92C185.54 173.59 186.22 170.5 188.55 169.01C190.88 167.53 193.97 168.21 195.46 170.54C196.94 172.86 196.26 175.95 193.93 177.44C193.1 177.97 192.17 178.23 191.25 178.23C189.6 178.23 187.98 177.41 187.03 175.92Z" fill="black"/>
<path d="M183.5 178.63C182.18 176.2 183.07 173.16 185.49 171.84C187.92 170.52 190.95 171.41 192.28 173.83C193.6 176.25 192.71 179.29 190.29 180.62C189.53 181.03 188.71 181.23 187.9 181.23C186.13 181.23 184.41 180.29 183.5 178.63Z" fill="black"/>
<path d="M183.41 181.69C181.03 180.29 180.23 177.23 181.62 174.85C183.01 172.46 186.07 171.66 188.46 173.05C190.84 174.45 191.65 177.51 190.25 179.89C189.32 181.48 187.65 182.37 185.93 182.37C185.07 182.37 184.21 182.15 183.41 181.69Z" fill="black"/>
<path d="M179.28 178.27C179.08 175.51 181.16 173.12 183.91 172.93C184.07 172.92 184.19 172.91 184.26 172.9H184.29C186.95 172.42 189.53 174.15 190.07 176.82C190.63 179.53 188.88 182.17 186.18 182.72C185.3 182.89 184.8 182.88 184.61 182.9C184.49 182.91 184.38 182.92 184.26 182.92C181.66 182.92 179.46 180.9 179.28 178.27Z" fill="black"/>
<path d="M178.48 183.21C176.01 181.97 175.02 178.97 176.26 176.5C177.5 174.03 180.5 173.04 182.97 174.28C185.44 175.51 186.43 178.52 185.2 180.99C184.32 182.74 182.55 183.74 180.72 183.74C179.97 183.74 179.2 183.57 178.48 183.21Z" fill="black"/>
<path d="M176.65 184.79C173.99 184.04 172.45 181.28 173.2 178.62C173.95 175.97 176.71 174.42 179.37 175.17C182.03 175.92 183.57 178.69 182.82 181.34C182.2 183.55 180.19 184.98 178.01 184.98C177.56 184.98 177.1 184.92 176.65 184.79Z" fill="black"/>
<path d="M172.71 182.44C170.62 180.63 170.39 177.48 172.2 175.39C174.01 173.3 177.16 173.07 179.25 174.88C181.34 176.69 181.57 179.85 179.76 181.93C178.77 183.08 177.38 183.66 175.98 183.66C174.82 183.66 173.65 183.26 172.71 182.44Z" fill="black"/>
<path d="M171.67 183.32C169.64 181.45 169.52 178.29 171.39 176.26L171.85 175.76C173.72 173.74 176.89 173.61 178.92 175.49C180.94 177.36 181.07 180.53 179.19 182.55L178.73 183.05C177.75 184.11 176.4 184.65 175.06 184.65C173.85 184.65 172.63 184.21 171.67 183.32Z" fill="black"/>
<path d="M170.7 183.88C168.02 183.22 166.38 180.51 167.04 177.83C167.7 175.15 170.41 173.51 173.09 174.17C175.77 174.83 177.41 177.54 176.75 180.22C176.19 182.5 174.15 184.03 171.9 184.03C171.51 184.03 171.1 183.98 170.7 183.88Z" fill="black"/>
<path d="M167.01 183.58C164.47 182.51 163.27 179.58 164.34 177.04C165.41 174.49 168.34 173.3 170.89 174.37C173.43 175.44 174.63 178.37 173.56 180.91C172.75 182.83 170.9 183.98 168.95 183.98C168.3 183.98 167.64 183.85 167.01 183.58Z" fill="black"/>
<path d="M165.62 181.46C162.86 181.43 160.64 179.17 160.67 176.41C160.7 173.65 162.96 171.43 165.72 171.46C168.49 171.49 170.7 173.75 170.67 176.51C170.64 179.26 168.41 181.46 165.67 181.46H165.62Z" fill="black"/>
<path d="M163.49 181.44C160.72 181.41 158.51 179.15 158.54 176.39C158.57 173.62 160.83 171.41 163.59 171.44C166.35 171.47 168.57 173.73 168.54 176.49C168.51 179.23 166.28 181.44 163.54 181.44H163.49Z" fill="black"/>
<path d="M154.86 173.02C153.98 170.4 155.38 167.57 158 166.68C160.62 165.8 163.45 167.21 164.33 169.82C165.22 172.44 163.81 175.28 161.19 176.16C160.66 176.34 160.13 176.42 159.6 176.42C157.51 176.42 155.56 175.11 154.86 173.02Z" fill="black"/>
<path d="M155.48 172.67C153.42 170.84 153.22 167.68 155.05 165.61C156.89 163.55 160.05 163.35 162.11 165.19C164.18 167.02 164.37 170.18 162.54 172.24C161.55 173.36 160.18 173.93 158.8 173.93C157.62 173.93 156.43 173.51 155.48 172.67Z" fill="black"/>
<path d="M153.64 169.3C153.6 169.1 153.58 168.94 153.56 168.83C153.56 168.83 153.55 168.75 153.55 168.73C152.99 166.12 154.59 163.52 157.2 162.85C159.88 162.17 162.6 163.78 163.28 166.46C163.47 167.3 163.44 167.38 163.46 167.38C163.99 170.08 162.22 172.71 159.51 173.24C159.19 173.31 158.86 173.34 158.54 173.34C156.2 173.34 154.11 171.68 153.64 169.3Z" fill="black"/>
<path d="M154.67 165.99C153.96 163.32 155.54 160.58 158.21 159.87C160.88 159.16 163.62 160.75 164.33 163.42C165.04 166.09 163.46 168.83 160.79 169.54C160.36 169.65 159.92 169.71 159.5 169.71C157.29 169.71 155.26 168.23 154.67 165.99Z" fill="black"/>
<path d="M156.02 164.62C154.98 162.06 156.21 159.14 158.76 158.1C161.32 157.06 164.24 158.29 165.28 160.85C166.32 163.41 165.09 166.33 162.53 167.36C161.91 167.62 161.28 167.73 160.65 167.73C158.68 167.73 156.81 166.56 156.02 164.62Z" fill="black"/>
<path d="M158.99 166.53C156.65 165.3 155.68 162.47 156.74 160.08C156.74 160.08 156.75 160.06 156.75 160.05C157.4 157.37 160.09 155.71 162.78 156.36C165.46 157 167.12 159.7 166.47 162.39C166.37 162.77 166.24 163.45 165.74 164.43C164.85 166.13 163.11 167.11 161.31 167.11C160.53 167.11 159.73 166.92 158.99 166.53Z" fill="black"/>
<path d="M157.64 163C156.41 160.53 157.41 157.53 159.89 156.3C160.43 156.03 160.77 155.91 160.77 155.91C163.31 154.82 166.25 155.99 167.34 158.53C168.43 161.07 167.26 164.01 164.72 165.1C164.53 165.18 164.42 165.22 164.35 165.25H164.34C163.63 165.61 162.87 165.78 162.12 165.78C160.28 165.78 158.51 164.76 157.64 163Z" fill="black"/>
<path d="M160.77 161.84C159.17 159.58 159.71 156.46 161.96 154.87C164.22 153.27 167.34 153.81 168.93 156.06C170.53 158.32 169.99 161.44 167.74 163.03C166.86 163.65 165.85 163.95 164.86 163.95C163.29 163.95 161.74 163.21 160.77 161.84Z" fill="black"/>
<path d="M162.98 159.89C161.87 157.36 163.02 154.42 165.55 153.3C168.08 152.19 171.03 153.34 172.14 155.87C173.25 158.4 172.1 161.35 169.57 162.46C168.92 162.75 168.23 162.88 167.56 162.88C165.64 162.88 163.81 161.77 162.98 159.89Z" fill="black"/>
<path d="M165.36 158.65C164.62 155.99 166.18 153.23 168.84 152.5C171.51 151.76 174.26 153.32 175 155.98C175.74 158.64 174.18 161.4 171.51 162.13C171.07 162.26 170.62 162.32 170.18 162.32C167.99 162.32 165.97 160.86 165.36 158.65Z" fill="black"/>
<path d="M171.71 162.27C168.97 161.99 166.96 159.54 167.23 156.8C167.51 154.05 169.96 152.04 172.71 152.32C175.45 152.59 177.46 155.04 177.19 157.79C176.93 160.37 174.75 162.29 172.22 162.29C172.05 162.29 171.88 162.29 171.71 162.27Z" fill="black"/>
<path d="M174.02 161.22C171.31 160.65 169.59 158 170.15 155.3C170.72 152.6 173.37 150.87 176.08 151.44C178.78 152.01 180.51 154.66 179.94 157.36C179.44 159.72 177.37 161.33 175.05 161.33C174.71 161.33 174.36 161.3 174.02 161.22Z" fill="black"/>
<path d="M176.91 162.6C174.15 162.53 171.97 160.23 172.05 157.47C172.12 154.71 174.42 152.53 177.18 152.61C179.94 152.68 182.12 154.98 182.05 157.74C181.97 160.46 179.75 162.61 177.05 162.61C177.05 162.61 176.96 162.61 176.91 162.6Z" fill="black"/>
<path d="M173.4 157.2C172.85 154.49 174.59 151.85 177.29 151.29C179.99 150.73 182.64 152.47 183.2 155.18C183.76 157.88 182.02 160.53 179.31 161.08C178.97 161.15 178.63 161.19 178.29 161.19C175.97 161.19 173.89 159.56 173.4 157.2Z" fill="black"/>
<path d="M175.9 160.46C173.79 159.07 173.03 156.28 174.22 153.99C175.49 151.54 178.51 150.58 180.96 151.85C181.5 152.18 181.85 152.27 182.79 153.28C184.57 155.39 184.3 158.55 182.19 160.33C181.25 161.12 180.11 161.51 178.97 161.51C177.88 161.51 176.79 161.15 175.9 160.46Z" fill="black"/>
<path d="M182.73 162.49C180.05 161.8 178.44 159.07 179.13 156.4C179.82 153.73 182.54 152.11 185.22 152.8C187.89 153.49 189.5 156.21 188.82 158.89C188.24 161.14 186.2 162.65 183.98 162.64C183.57 162.64 183.15 162.59 182.73 162.49Z" fill="black"/>
<path d="M185.68 164.62C183.04 163.81 181.55 161.02 182.36 158.37C183.17 155.73 185.97 154.25 188.61 155.06C191.25 155.87 192.73 158.66 191.93 161.3C191.27 163.45 189.29 164.84 187.15 164.84C186.66 164.84 186.17 164.77 185.68 164.62Z" fill="black"/>
<path d="M183.68 162.06C183.63 159.3 185.82 157.02 188.58 156.97C191.34 156.91 193.63 159.1 193.68 161.87C193.74 164.63 191.54 166.91 188.78 166.96C188.78 166.96 188.72 166.97 188.68 166.97C185.97 166.97 183.74 164.79 183.68 162.06Z" fill="black"/>
<path d="M188.6 167.33L187.7 166.96C185.14 165.92 183.91 163 184.95 160.45C185.99 157.89 188.91 156.66 191.47 157.7L192.37 158.07C194.92 159.11 196.15 162.02 195.11 164.58C194.32 166.52 192.45 167.7 190.48 167.7C189.85 167.7 189.21 167.58 188.6 167.33Z" fill="black"/>
<path d="M186.56 166.19L186.24 165.46C185.11 162.94 186.25 159.98 188.77 158.86C191.3 157.74 194.25 158.87 195.37 161.4L195.7 162.13C196.82 164.65 195.69 167.61 193.16 168.73C192.5 169.02 191.81 169.16 191.13 169.16C189.22 169.16 187.39 168.05 186.56 166.19Z" fill="black"/>
<path d="M189.6 168.8C187.56 166.93 187.43 163.77 189.3 161.74C191.17 159.7 194.34 159.57 196.37 161.44C198.4 163.31 198.53 166.48 196.66 168.51C195.67 169.58 194.33 170.12 192.98 170.12C191.77 170.12 190.56 169.69 189.6 168.8Z" fill="black"/>
<path d="M187.88 167.05C187.6 164.3 189.6 161.84 192.35 161.57C195.1 161.29 197.55 163.29 197.83 166.04C198.11 168.78 196.11 171.24 193.36 171.51C193.19 171.53 193.02 171.54 192.85 171.54C190.31 171.54 188.14 169.62 187.88 167.05Z" fill="black"/>
<path d="M194.85 172.64C192.1 172.49 189.99 170.12 190.15 167.37C190.3 164.61 192.67 162.5 195.42 162.66C198.18 162.82 200.29 165.18 200.13 167.94C199.98 170.6 197.77 172.65 195.14 172.65C195.05 172.65 194.95 172.65 194.85 172.64Z" fill="black"/>
<path d="M191.2 173.67C189.02 171.97 188.64 168.83 190.34 166.65C192.05 164.48 195.19 164.1 197.36 165.8C199.54 167.5 199.92 170.64 198.22 172.82C197.23 174.08 195.76 174.73 194.28 174.73C193.2 174.73 192.11 174.39 191.2 173.67Z" fill="black"/>
<path d="M192.7 176.44C191.49 176.44 190.27 176 189.31 175.11C187.28 173.24 187.16 170.07 189.03 168.04L190.61 166.33C192.49 164.3 195.65 164.18 197.68 166.05C199.71 167.92 199.83 171.09 197.96 173.12L196.38 174.83C195.39 175.9 194.05 176.44 192.71 176.44H192.7Z" fill="black"/>
<path d="M98.8303 267.85C98.2103 266.76 98.0203 265.71 97.9803 264.85C97.8503 262.09 99.9803 259.75 102.74 259.62C105.28 259.5 107.47 261.3 107.9 263.74C108.69 265.99 107.78 268.54 105.64 269.75C104.86 270.19 104.02 270.4 103.18 270.4C101.44 270.4 99.7403 269.48 98.8303 267.85Z" fill="black"/>
<path d="M99.3501 271.33C98.1001 268.87 99.0701 265.85 101.53 264.6C103.99 263.34 107 264.32 108.26 266.78C109.52 269.24 108.54 272.25 106.08 273.51C105.35 273.88 104.58 274.05 103.81 274.05C101.99 274.05 100.24 273.06 99.3501 271.33Z" fill="black"/>
<path d="M101.82 274.46C99.7303 272.65 99.4903 269.5 101.3 267.4C103.1 265.31 106.26 265.08 108.35 266.88C110.44 268.69 110.67 271.84 108.87 273.94C107.88 275.08 106.48 275.67 105.08 275.67C103.92 275.67 102.76 275.27 101.82 274.46Z" fill="black"/>
<path d="M100.61 273.41L100.42 272.64C99.7604 269.96 101.4 267.25 104.08 266.59C106.76 265.93 109.47 267.57 110.13 270.25L110.32 271.02C110.98 273.7 109.34 276.41 106.66 277.07C106.26 277.17 105.85 277.22 105.46 277.22C103.21 277.22 101.17 275.69 100.61 273.41Z" fill="black"/>
<path d="M102.07 276.05C101.24 273.42 102.7 270.61 105.33 269.78C107.97 268.95 110.77 270.41 111.6 273.05C112.43 275.68 110.97 278.49 108.34 279.32C107.84 279.47 107.33 279.55 106.83 279.55C104.71 279.55 102.74 278.19 102.07 276.05Z" fill="black"/>
<path d="M104.06 279C102.59 276.66 103.3 273.58 105.64 272.11C107.98 270.64 111.06 271.35 112.53 273.69C114 276.03 113.29 279.11 110.95 280.58C110.13 281.1 109.21 281.35 108.3 281.35C106.64 281.35 105.01 280.52 104.06 279Z" fill="black"/>
<path d="M105 277.8C104.79 275.05 106.86 272.65 109.61 272.45C112.37 272.24 114.76 274.31 114.97 277.07C115.17 279.82 113.11 282.22 110.35 282.42C110.22 282.43 110.1 282.43 109.98 282.43C107.38 282.43 105.19 280.43 105 277.8Z" fill="black"/>
<path d="M112.24 282.76C109.48 282.73 107.27 280.47 107.29 277.71C107.32 274.95 109.59 272.73 112.35 272.76C115.11 272.79 117.32 275.05 117.29 277.82C117.26 280.56 115.03 282.76 112.3 282.76H112.24Z" fill="black"/>
<path d="M123.6 282.91C120.84 282.88 118.63 280.61 118.67 277.85C118.7 275.08 120.97 272.88 123.73 272.91C126.49 272.95 128.7 275.22 128.67 277.98C128.63 280.72 126.4 282.91 123.67 282.91H123.6Z" fill="black"/>
<path d="M121.65 280.43C120.23 278.07 120.99 274.99 123.36 273.57C125.73 272.15 128.8 272.92 130.22 275.29C131.64 277.65 130.87 280.73 128.51 282.15C127.7 282.63 126.81 282.859 125.94 282.859C124.24 282.859 122.58 281.99 121.65 280.43Z" fill="black"/>
<path d="M127.38 282.52C124.63 282.28 122.59 279.86 122.83 277.11C123.07 274.36 125.49 272.32 128.24 272.56C130.99 272.79 133.03 275.22 132.79 277.97C132.57 280.57 130.39 282.54 127.82 282.54C127.67 282.54 127.53 282.54 127.38 282.52Z" fill="black"/>
<path d="M125.68 277.59C125.65 274.83 127.85 272.56 130.62 272.53C133.38 272.49 135.64 274.69 135.68 277.46C135.72 280.22 133.51 282.49 130.75 282.52H130.68C127.95 282.52 125.72 280.33 125.68 277.59Z" fill="black"/>
<path d="M133.44 277.47C133.39 274.71 135.58 272.42 138.34 272.37C141.1 272.31 143.38 274.51 143.44 277.27C143.49 280.03 141.3 282.31 138.54 282.37H138.44C135.72 282.37 133.5 280.19 133.44 277.47Z" fill="black"/>
<path d="M142.3 282.18C139.55 281.95 137.51 279.53 137.74 276.77C137.97 274.02 140.39 271.98 143.14 272.21C145.89 272.45 147.94 274.86 147.7 277.62C147.48 280.22 145.3 282.2 142.72 282.2C142.58 282.2 142.44 282.19 142.3 282.18Z" fill="black"/>
<path d="M142.25 276.97C142.17 274.21 144.34 271.91 147.1 271.83C149.86 271.74 152.16 273.91 152.25 276.67C152.33 279.43 150.16 281.74 147.4 281.82H147.25C144.55 281.82 142.33 279.68 142.25 276.97Z" fill="black"/>
<path d="M149.49 281.78C146.75 281.39 144.84 278.87 145.22 276.13C145.61 273.4 148.13 271.49 150.87 271.87C153.6 272.25 155.51 274.78 155.13 277.51C154.78 280.01 152.64 281.82 150.18 281.82C149.95 281.82 149.72 281.81 149.49 281.78Z" fill="black"/>
<path d="M148.57 278.31C147.54 275.75 148.77 272.84 151.34 271.81C153.9 270.77 156.81 272.01 157.84 274.57C158.88 277.13 157.64 280.05 155.07 281.08C154.46 281.33 153.83 281.44 153.21 281.44C151.23 281.44 149.35 280.26 148.57 278.31Z" fill="black"/>
<path d="M155.93 280.94C153.26 280.23 151.68 277.49 152.38 274.82C153.09 272.15 155.83 270.57 158.5 271.27C161.17 271.98 162.76 274.72 162.05 277.39C161.46 279.63 159.43 281.11 157.22 281.11C156.8 281.11 156.36 281.05 155.93 280.94Z" fill="black"/>
<path d="M156.17 278.54C155.03 276.03 156.14 273.06 158.65 271.92C161.16 270.77 164.13 271.88 165.27 274.39C166.42 276.9 165.31 279.87 162.8 281.01C162.12 281.32 161.42 281.47 160.73 281.47C158.83 281.47 157.01 280.38 156.17 278.54Z" fill="black"/>
<path d="M160.76 281.36C158.03 280.95 156.15 278.41 156.55 275.68C156.96 272.95 159.5 271.06 162.23 271.47C164.96 271.87 166.85 274.41 166.44 277.15C166.08 279.63 163.94 281.41 161.5 281.41C161.26 281.41 161.01 281.4 160.76 281.36Z" fill="black"/>
<path d="M156.83 277.66C156.36 275.22 157.77 272.75 160.19 271.96C162.81 271.1 165.64 272.53 166.5 275.16C166.72 275.87 166.8 276.45 166.8 277.11C166.8 279.87 164.57 282.11 161.8 282.11C159.23 282.11 157.1 280.16 156.83 277.66Z" fill="black"/>
<path d="M161.8 310.79C159.04 310.79 156.8 308.55 156.8 305.79C156.8 303.03 159.04 300.79 161.8 300.79C164.56 300.79 166.8 303.03 166.8 305.79C166.8 308.55 164.56 310.79 161.8 310.79Z" fill="black"/>
<path d="M106.13 334.47C106.13 331.71 108.36 329.47 111.13 329.47C113.89 329.47 116.13 331.71 116.13 334.47C116.13 337.23 113.89 339.47 111.13 339.47C108.37 339.47 106.13 337.23 106.13 334.47ZM131.46 334.47C131.46 331.7 133.7 329.46 136.46 329.46C139.22 329.46 141.46 331.7 141.46 334.46C141.46 337.23 139.22 339.46 136.46 339.46C133.7 339.46 131.46 337.23 131.46 334.47Z" fill="black"/>
<path d="M80.79 312.31C80.79 309.55 83.03 307.31 85.79 307.31C88.55 307.31 90.79 309.55 90.79 312.31C90.79 315.07 88.55 317.31 85.79 317.31C83.03 317.31 80.79 315.07 80.79 312.31Z" fill="black"/>
<path d="M82.3402 314.57C81.2902 312.69 81.5802 310.43 82.9002 308.88C83.9202 307.11 85.9802 306.09 88.1102 306.47C90.8302 306.95 92.6402 309.55 92.1502 312.27C91.8902 314.02 90.5802 315.76 89.1402 316.5C88.3702 316.93 87.5302 317.13 86.7102 317.13C84.9602 317.13 83.2602 316.21 82.3402 314.57Z" fill="black"/>
<path d="M88.1704 314.93C85.4804 314.28 83.8304 311.58 84.4804 308.9C85.1304 306.21 87.8304 304.56 90.5104 305.21C93.2004 305.86 94.8504 308.56 94.2004 311.24C93.6504 313.53 91.6004 315.07 89.3404 315.07C88.9604 315.07 88.5604 315.02 88.1704 314.93Z" fill="black"/>
<path d="M86.5204 310.14C86.4704 307.38 88.6604 305.1 91.4204 305.05C94.1804 304.99 96.4604 307.19 96.5204 309.95C96.5704 312.71 94.3704 314.99 91.6104 315.04C91.6104 315.04 91.5504 315.05 91.5104 315.05C88.8004 315.05 86.5704 312.87 86.5204 310.14Z" fill="black"/>
<path d="M97.2098 315.11C94.4698 314.81 92.4898 312.34 92.7898 309.6C93.0898 306.85 95.5598 304.87 98.3098 305.17C101.05 305.48 103.03 307.95 102.73 310.69C102.45 313.25 100.28 315.14 97.7698 315.14C97.5798 315.14 97.3998 315.13 97.2098 315.11Z" fill="black"/>
<path d="M96.0704 313.48C94.4604 311.24 94.9704 308.12 97.2104 306.5C99.4504 304.89 102.57 305.4 104.19 307.64C105.8 309.88 105.29 313 103.05 314.62C102.17 315.25 101.15 315.56 100.13 315.56C98.5804 315.56 97.0504 314.84 96.0704 313.48Z" fill="black"/>
<path d="M97.91 314.79C95.72 313.27 95.1 310.28 96.54 308.01C98.02 305.67 101.11 304.98 103.44 306.46C104.14 306.92 104.49 307.25 104.78 307.53C106.76 309.45 106.8 312.62 104.88 314.6C103.9 315.61 102.6 316.11 101.29 316.11C100.08 316.11 98.86 315.67 97.91 314.79Z" fill="black"/>
<path d="M99.5598 316.38C97.5698 314.47 97.5098 311.3 99.4198 309.31C101.33 307.32 104.5 307.26 106.49 309.17C108.48 311.08 108.54 314.25 106.63 316.24C105.65 317.26 104.34 317.78 103.02 317.78C101.78 317.78 100.53 317.31 99.5598 316.38Z" fill="black"/>
<path d="M101.75 318.05C101.48 317.88 101.19 317.69 100.83 317.43C98.5799 315.82 98.0599 312.7 99.6699 310.45C101.27 308.21 104.4 307.69 106.64 309.3C106.76 309.38 106.96 309.51 107.26 309.71C109.56 311.23 110.19 314.33 108.67 316.63C107.71 318.09 106.12 318.88 104.5 318.88C103.55 318.88 102.59 318.61 101.75 318.05Z" fill="black"/>
<path d="M106.35 322.33C103.85 321.17 102.76 318.2 103.92 315.7C105.07 313.19 108.05 312.1 110.55 313.26C113.06 314.41 114.15 317.39 112.99 319.89C112.15 321.72 110.34 322.8 108.45 322.8C107.75 322.8 107.03 322.65 106.35 322.33Z" fill="black"/>
<path d="M105.18 321.45C103.48 319.44 103.63 316.43 105.56 314.6C107.57 312.7 110.73 312.79 112.63 314.79C113.09 315.32 113.46 315.65 114.01 316.82C115.1 319.35 113.93 322.29 111.4 323.39C110.75 323.67 110.08 323.8 109.42 323.8C107.72 323.8 106.1 322.94 105.18 321.45Z" fill="black"/>
<path d="M108.21 323.28C106.87 320.87 107.72 317.82 110.14 316.47C112.54 315.12 115.59 315.99 116.94 318.39C118.29 320.8 117.43 323.85 115.02 325.2C114.25 325.63 113.41 325.84 112.58 325.84C110.83 325.84 109.13 324.92 108.21 323.28Z" fill="black"/>
<path d="M115.23 327.9C112.47 327.88 110.25 325.62 110.27 322.86C110.29 320.1 112.55 317.88 115.31 317.9C118.07 317.92 120.29 320.18 120.27 322.94C120.25 325.69 118.01 327.9 115.27 327.9H115.23Z" fill="black"/>
<path d="M118.39 327.94C115.63 327.91 113.42 325.64 113.45 322.88C113.49 320.12 115.75 317.91 118.51 317.94C121.27 317.97 123.49 320.24 123.45 323C123.42 325.74 121.19 327.94 118.45 327.94H118.39Z" fill="black"/>
<path d="M118.9 328.97C117.58 328.75 116.86 328.25 116.36 327.9C115.87 327.53 115.58 327.23 115.35 326.99C113.45 324.98 113.55 321.82 115.56 319.92C117.41 318.18 120.24 318.12 122.15 319.69C123.88 320.69 124.91 322.67 124.59 324.76C124.22 327.24 122.09 329.02 119.65 329.02C119.41 329.02 119.16 329 118.9 328.97Z" fill="black"/>
<path d="M122.18 328.23C119.63 327.18 118.41 324.26 119.46 321.7C120.51 319.15 123.43 317.93 125.99 318.98C128.54 320.03 129.76 322.95 128.71 325.51C127.91 327.44 126.05 328.61 124.08 328.61C123.45 328.6 122.8 328.48 122.18 328.23Z" fill="black"/>
<path d="M121.64 324.34C120.84 321.7 122.34 318.91 124.98 318.11C127.62 317.31 130.41 318.81 131.21 321.45C132.01 324.09 130.52 326.88 127.87 327.68C127.39 327.83 126.9 327.9 126.42 327.9C124.28 327.9 122.29 326.5 121.64 324.34Z" fill="black"/>
<path d="M127.02 328.23L126.08 327.98C123.41 327.27 121.82 324.53 122.53 321.86C123.24 319.19 125.98 317.6 128.65 318.31L129.59 318.56C132.26 319.27 133.85 322.01 133.14 324.68C132.54 326.92 130.52 328.4 128.31 328.4C127.88 328.4 127.45 328.34 127.02 328.23Z" fill="black"/>
<path d="M128.19 323.31C128 320.55 130.08 318.16 132.84 317.97C135.59 317.78 137.98 319.86 138.17 322.62C138.36 325.37 136.28 327.76 133.53 327.95C133.41 327.96 133.29 327.96 133.18 327.96C130.57 327.96 128.38 325.94 128.19 323.31Z" fill="black"/>
<path d="M137.3 325.77C134.55 325.6 132.46 323.22 132.64 320.46C132.82 317.71 135.19 315.62 137.95 315.8C140.71 315.97 142.79 318.35 142.62 321.11C142.44 323.75 140.25 325.78 137.63 325.78C137.52 325.78 137.41 325.78 137.3 325.77Z" fill="black"/>
<path d="M137.57 320.56C136.14 318.2 136.9 315.12 139.26 313.69C141.62 312.27 144.7 313.02 146.13 315.39C147.56 317.75 146.8 320.82 144.44 322.25C143.63 322.74 142.73 322.97 141.85 322.97C140.16 322.97 138.51 322.11 137.57 320.56Z" fill="black"/>
<path d="M141.9 321.43C139.24 320.66 137.71 317.89 138.48 315.24C139.24 312.59 142.01 311.06 144.66 311.82C147.32 312.58 148.85 315.35 148.08 318.01C147.45 320.2 145.45 321.63 143.28 321.63C142.82 321.62 142.36 321.56 141.9 321.43Z" fill="black"/>
<path d="M141.43 320.18C138.97 318.93 137.98 315.93 139.22 313.47C139.85 311.18 142.05 309.59 144.5 309.82C147.25 310.07 149.27 312.5 149.02 315.25C148.91 316.24 148.69 316.73 148.54 317.13C148.38 317.52 148.24 317.78 148.15 317.97C147.27 319.72 145.51 320.72 143.68 320.72C142.92 320.72 142.15 320.55 141.43 320.18Z" fill="black"/>
<path d="M139.06 308.09C138.81 305.34 140.84 302.91 143.6 302.67C146.35 302.42 148.78 304.45 149.02 307.2C149.27 309.95 147.24 312.38 144.48 312.62C144.33 312.64 144.18 312.64 144.03 312.64C141.47 312.64 139.29 310.69 139.06 308.09Z" fill="black"/>
<path d="M136.99 303.98C136.92 301.22 139.1 298.92 141.86 298.85C144.62 298.78 146.92 300.96 146.99 303.72C147.06 306.48 144.88 308.78 142.12 308.85H141.99C139.29 308.85 137.06 306.69 136.99 303.98Z" fill="black"/>
<path d="M135.8 302.26C135.16 299.58 136.82 296.88 139.51 296.25C142.2 295.61 144.89 297.27 145.53 299.96C146.16 302.65 144.5 305.34 141.81 305.98C141.43 306.07 141.04 306.11 140.66 306.11C138.39 306.11 136.34 304.56 135.8 302.26Z" fill="black"/>
<path d="M134.49 301.42C132.76 299.27 133.1 296.12 135.25 294.39C137.4 292.66 140.55 293 142.28 295.15C144.01 297.3 143.67 300.45 141.52 302.18C140.6 302.92 139.49 303.29 138.39 303.29C136.93 303.29 135.48 302.65 134.49 301.42Z" fill="black"/>
<path d="M137.08 303.12C136.92 303.11 136.65 303.09 136.33 303.08C133.57 302.94 131.45 300.6 131.58 297.84C131.72 295.08 134.06 292.96 136.82 293.09C137.08 293.1 137.45 293.12 137.9 293.15C140.65 293.38 142.7 295.79 142.47 298.55C142.26 301.16 140.07 303.14 137.49 303.14C137.36 303.14 137.22 303.13 137.08 303.12Z" fill="black"/>
<path d="M129.79 297.81C129.72 295.05 131.9 292.76 134.66 292.69C137.42 292.62 139.72 294.8 139.78 297.56C139.85 300.32 137.67 302.62 134.91 302.69H134.78C132.08 302.69 129.86 300.53 129.79 297.81Z" fill="black"/>
<path d="M130.83 302.68C128.09 302.34 126.14 299.84 126.48 297.1C126.82 294.36 129.32 292.42 132.06 292.76C134.8 293.1 136.75 295.6 136.41 298.34C136.09 300.87 133.94 302.72 131.45 302.72C131.24 302.72 131.04 302.71 130.83 302.68Z" fill="black"/>
<path d="M123.9 297.76C123.9 294.99 126.14 292.76 128.9 292.76C131.66 292.76 133.9 294.99 133.9 297.76C133.9 300.52 131.66 302.76 128.9 302.76C126.14 302.76 123.9 300.52 123.9 297.76Z" fill="black"/>
<path d="M124.1 302.731C121.34 302.721 119.11 300.47 119.12 297.71C119.12 294.95 121.38 292.721 124.14 292.731C126.91 292.751 129.13 294.991 129.12 297.761C129.11 300.511 126.87 302.731 124.12 302.731H124.1Z" fill="black"/>
<path d="M117.53 299.24C116.47 296.69 117.67 293.76 120.21 292.7C122.76 291.63 125.69 292.83 126.76 295.38C127.82 297.93 126.62 300.85 124.08 301.92C123.44 302.18 122.79 302.31 122.15 302.31C120.19 302.31 118.34 301.16 117.53 299.24Z" fill="black"/>
<path d="M114.41 297.84C114.39 295.07 116.61 292.82 119.37 292.79C122.13 292.77 124.38 294.99 124.41 297.75C124.43 300.51 122.21 302.77 119.45 302.79H119.41C116.66 302.79 114.43 300.58 114.41 297.84Z" fill="black"/>
<path d="M104.97 297.87C104.96 295.11 107.19 292.86 109.95 292.85C112.71 292.83 114.96 295.06 114.98 297.82C114.98 300.58 112.76 302.83 110 302.85H109.97C107.22 302.85 104.99 300.62 104.97 297.87Z" fill="black"/>
<path d="M103.04 298.96C102.6 296.23 104.46 293.67 107.19 293.23C109.91 292.79 112.48 294.65 112.91 297.38C113.35 300.1 111.49 302.67 108.77 303.1C108.5 303.15 108.23 303.17 107.97 303.17C105.56 303.17 103.43 301.42 103.04 298.96Z" fill="black"/>
<path d="M97.1602 299.02C96.7202 296.29 98.5802 293.72 101.3 293.29C104.03 292.85 106.59 294.71 107.03 297.44C107.47 300.16 105.61 302.73 102.88 303.16C102.61 303.21 102.35 303.23 102.09 303.23C99.6701 303.23 97.5502 301.47 97.1602 299.02Z" fill="black"/>
<path d="M94.8799 299.39C94.4399 296.66 96.2999 294.09 99.0199 293.66C101.75 293.22 104.32 295.07 104.75 297.8C105.19 300.52 103.34 303.09 100.61 303.53C100.34 303.57 100.08 303.59 99.8099 303.59C97.3999 303.59 95.2799 301.84 94.8799 299.39Z" fill="black"/>
<path d="M94.9702 303.27C92.4502 302.14 91.3201 299.18 92.4501 296.66C93.5801 294.14 96.5402 293.01 99.0602 294.14C101.58 295.27 102.71 298.23 101.58 300.75C100.75 302.6 98.9202 303.7 97.0102 303.7C96.3302 303.7 95.6302 303.56 94.9702 303.27Z" fill="black"/>
<path d="M90.1902 301.01C88.9702 298.53 89.9802 295.53 92.4602 294.31C94.9302 293.09 97.9302 294.1 99.1502 296.58C100.38 299.05 99.3602 302.05 96.8902 303.28C96.1802 303.63 95.4202 303.79 94.6802 303.79C92.8302 303.79 91.0602 302.77 90.1902 301.01Z" fill="black"/>
<path d="M87.3098 303.05C85.2398 301.22 85.0498 298.06 86.8798 295.99C88.7098 293.93 91.8698 293.73 93.9398 295.56C95.9998 297.39 96.1998 300.55 94.3698 302.62C93.3798 303.74 91.9998 304.31 90.6198 304.31C89.4398 304.31 88.2598 303.89 87.3098 303.05Z" fill="black"/>
<path d="M87.6203 303.77C86.7003 303.28 86.2603 302.88 85.8603 302.53C83.8303 300.65 83.7003 297.49 85.5803 295.46C87.4003 293.48 90.4503 293.31 92.4803 295.04C94.7003 296.38 95.5403 299.23 94.3403 301.58C93.4603 303.32 91.7103 304.31 89.8903 304.31C89.1203 304.31 88.3503 304.14 87.6203 303.77Z" fill="black"/>
<path d="M80.79 298.5C80.79 295.74 83.03 293.5 85.79 293.5C88.55 293.5 90.79 295.74 90.79 298.5C90.79 301.26 88.55 303.5 85.79 303.5C83.03 303.5 80.79 301.26 80.79 298.5Z" fill="black"/>
<path d="M80.79 269.03C80.79 266.27 83.03 264.03 85.79 264.03C88.55 264.03 90.79 266.27 90.79 269.03C90.79 271.79 88.55 274.03 85.79 274.03C83.03 274.03 80.79 271.79 80.79 269.03Z" fill="black"/>
<path d="M85.5998 243.06C83.1298 241.84 82.1098 238.84 83.3198 236.37C84.5398 233.89 87.5398 232.87 90.0198 234.09C92.4998 235.31 93.5198 238.3 92.2998 240.78C91.4298 242.55 89.6498 243.57 87.8098 243.57C87.0698 243.57 86.3098 243.41 85.5998 243.06Z" fill="black"/>
<path d="M88.6401 244.37C87.3301 244.22 86.6501 243.79 86.2001 243.54C85.7501 243.26 85.5201 243.07 85.3701 242.95C83.2001 241.25 82.8101 238.11 84.5101 235.93C86.1401 233.86 89.0701 233.42 91.2301 234.86C93.1001 235.72 94.3101 237.71 94.1001 239.88C93.8501 242.46 91.6701 244.39 89.1301 244.39C88.9701 244.39 88.8001 244.39 88.6401 244.37Z" fill="black"/>
<path d="M87.0305 238.98C86.6405 236.24 88.5305 233.71 91.2605 233.31C94.0005 232.92 96.5305 234.81 96.9305 237.54C97.3205 240.28 95.4305 242.81 92.7005 243.21C92.4505 243.24 92.2105 243.26 91.9705 243.26C89.5305 243.26 87.3905 241.47 87.0305 238.98Z" fill="black"/>
<path d="M94.3603 243.55C91.8603 242.38 90.7903 239.4 91.9703 236.9C93.1403 234.4 96.1203 233.33 98.6203 234.5C101.12 235.68 102.19 238.66 101.02 241.16C100.16 242.97 98.3603 244.03 96.4903 244.03C95.7703 244.03 95.0503 243.88 94.3603 243.55Z" fill="black"/>
<path d="M94.29 241.52C92.75 239.22 93.37 236.12 95.67 234.58C97.96 233.05 101.07 233.66 102.6 235.96C104.14 238.25 103.52 241.36 101.22 242.89C100.37 243.47 99.4 243.74 98.45 243.74C96.84 243.74 95.25 242.96 94.29 241.52Z" fill="black"/>
<path d="M94.1803 239.11C93.9403 236.36 95.9803 233.93 98.7303 233.69L99.4503 233.63C102.2 233.39 104.62 235.42 104.87 238.17C105.11 240.93 103.07 243.35 100.32 243.59L99.6003 243.65C99.4503 243.67 99.3103 243.67 99.1603 243.67C96.6003 243.67 94.4103 241.71 94.1803 239.11Z" fill="black"/>
<path d="M97.1996 241.9C95.0596 240.15 94.7396 237 96.4896 234.87L96.9596 234.28C98.7096 232.14 101.86 231.82 104 233.57C106.14 235.31 106.46 238.46 104.72 240.6L104.24 241.19C103.25 242.4 101.81 243.03 100.36 243.03C99.2496 243.03 98.1296 242.66 97.1996 241.9Z" fill="black"/>
<path d="M96.5098 240.3L96.2998 239.64C95.4398 237.02 96.8798 234.19 99.4998 233.34C102.13 232.48 104.95 233.92 105.81 236.54L106.02 237.2C106.87 239.82 105.44 242.64 102.81 243.5C102.3 243.67 101.78 243.75 101.26 243.75C99.1598 243.75 97.1998 242.41 96.5098 240.3Z" fill="black"/>
<path d="M100.93 241.26C99.0198 239.26 99.0998 236.1 101.09 234.19C103.09 232.28 106.26 232.36 108.16 234.35C110.07 236.35 109.99 239.52 108 241.42C107.03 242.35 105.79 242.81 104.55 242.81C103.23 242.81 101.91 242.29 100.93 241.26Z" fill="black"/>
<path d="M101.75 241.87C101.5 241.61 101.4 241.49 101.36 241.44C99.4603 239.48 99.4903 236.34 101.43 234.41C103.39 232.47 106.56 232.48 108.5 234.44C108.74 234.68 108.87 234.83 108.91 234.89C110.76 236.85 110.73 239.93 108.82 241.85C107.84 242.83 106.56 243.32 105.28 243.32C104 243.32 102.73 242.84 101.75 241.87Z" fill="black"/>
<path d="M102.87 238.91C102.67 236.15 104.73 233.75 107.49 233.55C110.24 233.34 112.64 235.41 112.84 238.17C113.05 240.92 110.98 243.32 108.23 243.52C108.1 243.53 107.97 243.54 107.85 243.54C105.26 243.54 103.07 241.53 102.87 238.91Z" fill="black"/>
<path d="M107.94 242.96C105.48 241.7 104.51 238.69 105.77 236.23C107.03 233.78 110.05 232.81 112.5 234.07C114.96 235.33 115.93 238.34 114.67 240.8C113.78 242.52 112.03 243.52 110.22 243.52C109.45 243.52 108.67 243.34 107.94 242.96Z" fill="black"/>
<path d="M106.75 241.92C106.75 241.92 106.73 241.91 106.71 241.89C106.71 241.89 106.58 241.79 106.48 241.71C104.3 240.01 103.91 236.87 105.61 234.69C107.3 232.52 110.45 232.13 112.62 233.82C112.71 233.89 112.88 234.02 113.19 234.27C115.3 236.05 115.57 239.21 113.78 241.32C112.8 242.49 111.38 243.09 109.96 243.09C108.83 243.09 107.69 242.71 106.75 241.92Z" fill="black"/>
<path d="M105.5 240.56C103.89 238.32 104.4 235.2 106.64 233.58C106.86 233.43 107.01 233.34 107.15 233.25C109.5 231.81 112.58 232.55 114.02 234.91C115.46 237.25 114.73 240.31 112.4 241.76C111.54 242.36 110.55 242.64 109.57 242.64C108.01 242.64 106.48 241.92 105.5 240.56Z" fill="black"/>
<path d="M111.4 243.34C108.65 243.2 106.52 240.86 106.65 238.1C106.78 235.34 109.13 233.22 111.89 233.35C114.64 233.48 116.77 235.83 116.64 238.58C116.51 241.26 114.3 243.34 111.65 243.34H111.4Z" fill="black"/>
<path d="M112.86 242.45C110.24 241.58 108.82 238.75 109.69 236.13C110.56 233.51 113.39 232.09 116.01 232.96C118.63 233.83 120.05 236.66 119.18 239.28C118.48 241.38 116.53 242.71 114.43 242.71C113.91 242.71 113.38 242.63 112.86 242.45Z" fill="black"/>
<path d="M111.13 240.23C110.16 237.64 111.46 234.76 114.05 233.78C116.63 232.81 119.52 234.11 120.49 236.7C121.47 239.28 120.16 242.16 117.58 243.14C117 243.36 116.4 243.46 115.81 243.46C113.79 243.46 111.89 242.23 111.13 240.23Z" fill="black"/>
<path d="M112.05 239.88C111.08 237.3 112.38 234.42 114.96 233.44L115.88 233.09C118.46 232.12 121.35 233.42 122.33 236C123.3 238.58 122 241.47 119.42 242.45L118.5 242.79C117.92 243.01 117.32 243.12 116.73 243.12C114.71 243.12 112.81 241.88 112.05 239.88Z" fill="black"/>
<path d="M118.7 241.16C116.83 239.13 116.97 235.97 119 234.1C121.03 232.23 124.19 232.36 126.06 234.39C127.93 236.42 127.8 239.58 125.77 241.45C124.81 242.34 123.6 242.78 122.38 242.78C121.04 242.78 119.69 242.23 118.7 241.16Z" fill="black"/>
<path d="M119.22 239.38C118.52 236.7 120.12 233.97 122.79 233.27C125.46 232.57 128.19 234.18 128.89 236.85C129.59 239.52 127.99 242.25 125.32 242.95C124.9 243.06 124.47 243.11 124.05 243.11C121.83 243.11 119.8 241.62 119.22 239.38Z" fill="black"/>
<path d="M121.27 238.83C120.58 236.16 122.18 233.43 124.85 232.74C127.52 232.04 130.26 233.64 130.95 236.32C131.65 238.99 130.04 241.72 127.37 242.41C126.95 242.52 126.53 242.58 126.11 242.58C123.89 242.58 121.86 241.08 121.27 238.83Z" fill="black"/>
<path d="M125.25 241.11C123.51 238.97 123.82 235.82 125.96 234.08C128.1 232.33 131.25 232.65 133 234.78C134.74 236.92 134.43 240.07 132.29 241.82C131.36 242.58 130.24 242.95 129.13 242.95C127.68 242.95 126.24 242.32 125.25 241.11Z" fill="black"/>
<path d="M124.91 239.49C123.93 236.9 125.23 234.02 127.81 233.04C128.34 232.86 128.68 232.71 129.64 232.6C132.39 232.36 134.82 234.39 135.06 237.14C135.29 239.7 133.55 241.97 131.1 242.48C130.6 242.64 130.09 242.71 129.58 242.71C127.57 242.71 125.67 241.48 124.91 239.49Z" fill="black"/>
<path d="M133.63 242.71C130.92 242.21 129.13 239.6 129.63 236.88C130.14 234.17 132.75 232.38 135.46 232.88C138.18 233.39 139.97 236 139.46 238.71C139.01 241.12 136.91 242.8 134.55 242.8C134.25 242.8 133.94 242.77 133.63 242.71Z" fill="black"/>
<path d="M136.38 242.46C134.11 240.89 133.54 237.78 135.11 235.51C136.68 233.24 139.79 232.67 142.07 234.24C144.34 235.81 144.91 238.92 143.34 241.19C142.37 242.6 140.81 243.35 139.22 243.35C138.24 243.35 137.25 243.06 136.38 242.46Z" fill="black"/>
<path d="M141.28 242.18C138.77 241.05 137.65 238.09 138.78 235.57C139.92 233.05 142.88 231.93 145.39 233.07C147.91 234.2 149.03 237.16 147.9 239.68C147.06 241.53 145.24 242.63 143.34 242.63C142.65 242.63 141.95 242.49 141.28 242.18Z" fill="black"/>
<path d="M142.34 242.67L141.79 242.42C139.28 241.26 138.19 238.29 139.35 235.78C140.51 233.28 143.48 232.18 145.99 233.34L146.53 233.59C149.04 234.75 150.13 237.72 148.97 240.23C148.13 242.06 146.32 243.14 144.43 243.14C143.73 243.14 143.02 242.99 142.34 242.67Z" fill="black"/>
<path d="M145.32 242.44C143.07 240.85 142.53 237.73 144.13 235.48C145.72 233.22 148.85 232.69 151.1 234.29C153.35 235.88 153.88 239 152.29 241.26C151.31 242.63 149.77 243.37 148.21 243.37C147.21 243.37 146.2 243.07 145.32 242.44Z" fill="black"/>
<path d="M150.91 242.48C148.38 241.37 147.23 238.42 148.35 235.89C149.46 233.36 152.41 232.21 154.94 233.33C157.46 234.44 158.61 237.39 157.5 239.92C156.67 241.79 154.84 242.9 152.92 242.9C152.25 242.9 151.56 242.77 150.91 242.48Z" fill="black"/>
<path d="M148.65 238.61C148.27 235.87 150.17 233.34 152.91 232.96C152.99 232.95 153.16 232.9 153.84 232.83C156.59 232.58 159.02 234.61 159.27 237.36C159.51 240.07 157.54 242.47 154.84 242.77C154.84 242.77 154.82 242.78 154.8 242.78C154.7 242.8 154.53 242.83 154.3 242.86C154.07 242.89 153.83 242.91 153.6 242.91C151.15 242.91 149.01 241.11 148.65 238.61Z" fill="black"/>
<path d="M151.34 238.05C151.11 235.3 153.15 232.88 155.9 232.65C158.65 232.42 161.07 234.46 161.31 237.21C161.54 239.97 159.49 242.38 156.74 242.62C156.6 242.63 156.46 242.63 156.32 242.63C153.75 242.63 151.56 240.66 151.34 238.05Z" fill="black"/>
<path d="M157.15 242.89C156.5 242.76 156.21 242.66 156 242.62C153.31 241.97 151.67 239.26 152.32 236.58C152.97 233.9 155.68 232.25 158.36 232.9C158.65 232.97 158.88 233.03 158.94 233.05C161.64 233.55 163.43 236.13 162.95 238.84C162.51 241.26 160.41 242.96 158.03 242.96C157.74 242.96 157.44 242.94 157.15 242.89Z" fill="black"/>
<path d="M160.31 242.59C157.68 241.76 156.21 238.96 157.03 236.32C157.86 233.69 160.66 232.22 163.29 233.04C165.93 233.86 167.4 236.67 166.58 239.3C165.91 241.44 163.93 242.81 161.8 242.81C161.31 242.81 160.81 242.74 160.31 242.59Z" fill="black"/>
<path d="M156.8 263.03C156.8 260.26 159.04 258.03 161.8 258.03C164.57 258.03 166.8 260.26 166.8 263.03C166.8 265.79 164.57 268.03 161.8 268.03C159.04 268.03 156.8 265.79 156.8 263.03Z" fill="black"/>
<path d="M159.5 269.48C156.75 269.24 154.71 266.82 154.95 264.07C155.19 261.32 157.61 259.28 160.36 259.51C163.11 259.75 165.15 262.17 164.91 264.92C164.69 267.53 162.51 269.5 159.94 269.5C159.79 269.5 159.65 269.49 159.5 269.48Z" fill="black"/>
<path d="M156.73 270.26C154.11 269.4 152.68 266.57 153.54 263.95C154.4 261.33 157.23 259.9 159.85 260.76C162.48 261.62 163.9 264.45 163.04 267.07C162.35 269.18 160.39 270.51 158.29 270.51C157.78 270.51 157.25 270.43 156.73 270.26Z" fill="black"/>
<path d="M150.93 266.52C150.35 263.82 152.07 261.16 154.78 260.59C157.48 260.01 160.13 261.74 160.71 264.44C161.28 267.14 159.56 269.8 156.86 270.37C156.51 270.45 156.16 270.48 155.81 270.48C153.5 270.48 151.43 268.87 150.93 266.52Z" fill="black"/>
<path d="M145.27 266.28C144.88 263.54 146.79 261.01 149.52 260.63C152.25 260.24 154.79 262.14 155.17 264.88C155.56 267.61 153.66 270.14 150.92 270.53C150.69 270.56 150.45 270.58 150.22 270.58C147.77 270.58 145.63 268.77 145.27 266.28Z" fill="black"/>
<path d="M142.52 267.94C140.57 265.99 140.57 262.82 142.52 260.87C144.47 258.92 147.64 258.92 149.59 260.87C151.54 262.82 151.54 265.99 149.59 267.94C148.61 268.92 147.33 269.41 146.05 269.41C144.77 269.41 143.49 268.92 142.52 267.94Z" fill="black"/>
<path d="M136.52 261.98C134.56 260.03 134.55 256.87 136.5 254.91C138.44 252.95 141.61 252.94 143.57 254.89C145.53 256.83 145.54 260 143.59 261.96C142.61 262.94 141.33 263.43 140.04 263.43C138.77 263.43 137.49 262.95 136.52 261.98Z" fill="black"/>
<path d="M133.96 259.5C131.8 257.77 131.46 254.62 133.19 252.47C134.92 250.32 138.07 249.98 140.22 251.71C142.37 253.44 142.72 256.59 140.99 258.74C140 259.97 138.55 260.61 137.09 260.61C135.99 260.61 134.88 260.25 133.96 259.5Z" fill="black"/>
<path d="M133.83 259.97C131.15 259.33 129.49 256.63 130.13 253.95C130.77 251.26 133.47 249.6 136.15 250.24C138.84 250.88 140.5 253.58 139.86 256.27C139.31 258.56 137.26 260.11 135 260.11C134.61 260.11 134.22 260.06 133.83 259.97Z" fill="black"/>
<path d="M124.22 252.7C124.18 249.94 126.39 247.68 129.15 247.64C131.91 247.6 134.18 249.81 134.21 252.57C134.25 255.33 132.04 257.6 129.28 257.64H129.21C126.48 257.64 124.25 255.44 124.22 252.7Z" fill="black"/>
<path d="M125.21 255.93C124.85 255.58 124.64 255.33 124.59 255.28V255.27C122.71 253.25 122.82 250.1 124.83 248.21C126.84 246.33 130.01 246.43 131.9 248.45C132.05 248.61 132.11 248.69 132.15 248.73C134.13 250.65 134.19 253.81 132.28 255.8C131.3 256.82 129.99 257.33 128.68 257.33C127.43 257.33 126.18 256.86 125.21 255.93Z" fill="black"/>
<path d="M122.5 256.04C120.38 254.26 120.11 251.1 121.89 248.99C123.67 246.88 126.83 246.61 128.94 248.39C131.05 250.17 131.32 253.32 129.54 255.43C128.55 256.61 127.14 257.21 125.72 257.21C124.58 257.21 123.43 256.83 122.5 256.04Z" fill="black"/>
<path d="M120.53 255.84C118.56 253.91 118.54 250.74 120.48 248.77C122.41 246.81 125.58 246.78 127.55 248.72C129.51 250.65 129.54 253.82 127.6 255.79C126.63 256.78 125.33 257.28 124.04 257.28C122.77 257.28 121.51 256.8 120.53 255.84Z" fill="black"/>
<path d="M117.78 254.19C116.63 251.68 117.72 248.71 120.23 247.55C122.74 246.4 125.71 247.49 126.87 250C128.02 252.51 126.92 255.48 124.42 256.64C123.74 256.95 123.03 257.1 122.33 257.1C120.44 257.1 118.63 256.02 117.78 254.19Z" fill="black"/>
<path d="M118.05 256.98C115.36 256.37 113.67 253.69 114.29 251C114.9 248.31 117.58 246.62 120.27 247.23C122.96 247.85 124.65 250.52 124.04 253.22C123.51 255.54 121.45 257.11 119.17 257.11C118.8 257.11 118.43 257.07 118.05 256.98Z" fill="black"/>
<path d="M112.96 254.4C111.96 251.83 113.23 248.93 115.8 247.92C115.8 247.92 115.88 247.89 115.94 247.86C116.07 247.8 116.26 247.71 116.52 247.61C119.09 246.59 121.99 247.84 123.02 250.41C124.04 252.97 122.78 255.88 120.22 256.9C120.22 256.9 119.97 257.02 119.44 257.23C118.84 257.47 118.23 257.58 117.62 257.58C115.62 257.58 113.73 256.37 112.96 254.4Z" fill="black"/>
<path d="M109.23 253.06C108.92 250.32 110.9 247.85 113.64 247.54C116.39 247.24 118.86 249.22 119.17 251.96C119.47 254.71 117.49 257.18 114.75 257.48C114.56 257.5 114.37 257.51 114.19 257.51C111.68 257.51 109.51 255.62 109.23 253.06Z" fill="black"/>
<path d="M109.8 259.51C107.05 259.22 105.06 256.75 105.35 254.01C105.64 251.26 108.1 249.27 110.85 249.56C113.6 249.85 115.59 252.31 115.3 255.06C115.03 257.63 112.86 259.53 110.33 259.53C110.15 259.53 109.98 259.52 109.8 259.51Z" fill="black"/>
<path d="M100.5 259.75C99.3601 257.24 100.48 254.28 102.99 253.14C105.51 252 108.47 253.12 109.61 255.63C110.75 258.15 109.63 261.11 107.11 262.25C106.44 262.55 105.74 262.7 105.05 262.7C103.15 262.7 101.33 261.6 100.5 259.75Z" fill="black"/>
<path d="M102.52 266.23C99.8098 265.66 98.0898 263 98.6598 260.3C99.2398 257.6 101.89 255.88 104.59 256.45C107.29 257.02 109.02 259.68 108.44 262.38C107.94 264.73 105.87 266.34 103.56 266.34C103.21 266.34 102.87 266.31 102.52 266.23Z" fill="black"/>
<path d="M102.04 268.71C99.3297 268.15 97.5897 265.51 98.1497 262.8C98.7097 260.1 101.35 258.36 104.05 258.91C106.76 259.47 108.5 262.11 107.94 264.82C107.46 267.18 105.38 268.81 103.05 268.81C102.72 268.81 102.38 268.78 102.04 268.71Z" fill="black"/>
<path d="M103.19 270.4C100.63 270.4 98.4504 268.45 98.2204 265.85L98.0804 264.26C97.8304 261.51 99.8604 259.08 102.61 258.83C105.35 258.58 107.79 260.61 108.04 263.36L108.18 264.95C108.43 267.7 106.4 270.13 103.65 270.38C103.5 270.39 103.34 270.4 103.19 270.4Z" fill="black"/>
<path d="M75.8398 109.36C75.8398 106.6 78.0798 104.36 80.8398 104.36C83.5998 104.36 85.8398 106.6 85.8398 109.36C85.8398 112.12 83.5998 114.36 80.8398 114.36C78.0798 114.36 75.8398 112.12 75.8398 109.36ZM75.8398 76.8096C75.8398 74.0496 78.0798 71.8096 80.8398 71.8096C83.5998 71.8096 85.8398 74.0496 85.8398 76.8096C85.8398 79.5696 83.5998 81.8096 80.8398 81.8096C78.0798 81.8096 75.8398 79.5696 75.8398 76.8096Z" fill="black"/>
<path d="M60.3799 141.92C60.3799 139.16 62.6199 136.92 65.3799 136.92C68.1399 136.92 70.3799 139.16 70.3799 141.92C70.3799 144.68 68.1399 146.92 65.3799 146.92C62.6199 146.92 60.3799 144.68 60.3799 141.92Z" fill="black"/>
<path d="M64.9704 143.49C62.2204 143.25 60.1904 140.83 60.4304 138.08C60.6704 135.32 63.0904 133.29 65.8404 133.53C68.5904 133.77 70.6304 136.19 70.3904 138.94C70.1604 141.55 67.9804 143.51 65.4104 143.51C65.2704 143.51 65.1204 143.5 64.9704 143.49Z" fill="black"/>
<path d="M60.3299 133.79C60.2799 131.02 62.4799 128.75 65.2399 128.7C67.9999 128.65 70.2799 130.85 70.3299 133.62C70.3699 136.38 68.1699 138.65 65.4099 138.7H65.3299C62.5999 138.7 60.3699 136.52 60.3299 133.79Z" fill="black"/>
<path d="M65.3402 131.03C62.5802 131.02 60.3503 128.77 60.3703 126.01C60.3903 123.24 62.6403 121.02 65.4003 121.03C68.1603 121.05 70.3903 123.3 70.3703 126.06C70.3503 128.81 68.1203 131.03 65.3703 131.03H65.3402Z" fill="black"/>
<path d="M60.3996 124.86C60.0396 122.12 61.9696 119.61 64.6996 119.25C67.4396 118.89 69.9496 120.82 70.3096 123.56C70.6696 126.29 68.7496 128.8 66.0096 129.16C65.7896 129.19 65.5696 129.21 65.3496 129.21C62.8796 129.21 60.7296 127.38 60.3996 124.86Z" fill="black"/>
<path d="M64.9695 128.25C62.2095 128.05 60.1395 125.66 60.3395 122.9C60.3995 122.18 60.5295 121.39 60.8895 120.48C61.9195 117.92 64.8295 116.68 67.3995 117.71C69.8395 118.7 71.0795 121.39 70.2995 123.85C69.9995 126.37 67.8595 128.27 65.3395 128.27C65.2195 128.27 65.0895 128.26 64.9695 128.25Z" fill="black"/>
<path d="M65.0395 123.84C62.2895 123.62 60.2395 121.21 60.4595 118.46C60.6795 115.7 63.0995 113.65 65.8495 113.88C68.5995 114.1 70.6495 116.51 70.4295 119.26C70.2195 121.88 68.0295 123.86 65.4495 123.86C65.3195 123.86 65.1795 123.85 65.0395 123.84Z" fill="black"/>
<path d="M60.71 115.83C60.71 113.06 62.95 110.83 65.71 110.83C68.48 110.83 70.71 113.06 70.71 115.83C70.71 118.59 68.48 120.82 65.71 120.82C62.95 120.82 60.71 118.59 60.71 115.83Z" fill="black"/>
<path d="M60.6495 110.14C60.6295 107.38 62.8395 105.12 65.5995 105.09C68.3595 105.06 70.6195 107.28 70.6495 110.04C70.6795 112.8 68.4695 115.06 65.7095 115.09H65.6495C62.9195 115.09 60.6795 112.89 60.6495 110.14Z" fill="black"/>
<path d="M65.2102 113.06C62.4802 112.65 60.6002 110.1 61.0102 107.37C61.4202 104.64 63.9702 102.76 66.7002 103.17C69.4302 103.58 71.3102 106.13 70.9002 108.86C70.5202 111.34 68.3902 113.11 65.9602 113.11C65.7102 113.11 65.4602 113.1 65.2102 113.06Z" fill="black"/>
<path d="M65.6701 98.2697C62.9101 98.2497 60.6901 95.9897 60.7101 93.2297C60.7301 90.4697 62.9801 88.2497 65.7401 88.2697C68.5001 88.2897 70.7301 90.5397 70.7101 93.2997C70.6901 96.0497 68.4501 98.2697 65.7101 98.2697H65.6701Z" fill="black"/>
<path d="M65.7004 93.3097C62.9404 93.2897 60.7204 91.0397 60.7404 88.2797C60.7704 85.5097 63.0204 83.2897 65.7804 83.3097C68.5404 83.3397 70.7704 85.5897 70.7404 88.3497C70.7204 91.0997 68.4904 93.3097 65.7404 93.3097H65.7004Z" fill="black"/>
<path d="M60.6401 85.8503C60.4201 83.0903 62.4801 80.6903 65.2301 80.4703C67.9801 80.2503 70.3901 82.3003 70.6101 85.0603C70.8301 87.8103 68.7701 90.2203 66.0201 90.4303C65.8801 90.4503 65.7501 90.4503 65.6201 90.4503C63.0401 90.4503 60.8501 88.4603 60.6401 85.8503Z" fill="black"/>
<path d="M64.4899 88.2205C61.7699 87.7605 59.9399 85.1805 60.3999 82.4505C60.8699 79.7305 63.4499 77.9005 66.1799 78.3705C68.8999 78.8305 70.7299 81.4105 70.2599 84.1405C69.8499 86.5705 67.7299 88.3005 65.3399 88.3005C65.0599 88.3005 64.7799 88.2705 64.4899 88.2205Z" fill="black"/>
<path d="M61.3298 85.1696C59.2098 83.3996 58.9298 80.2496 60.6998 78.1296C62.4698 76.0096 65.6198 75.7296 67.7398 77.4996C69.8598 79.2696 70.1398 82.4196 68.3698 84.5396C67.3798 85.7196 65.9598 86.3296 64.5298 86.3296C63.3998 86.3296 62.2598 85.9496 61.3298 85.1696Z" fill="black"/>
<path d="M59.2401 81.7496C57.3201 79.7596 57.3901 76.5896 59.3801 74.6796C61.3701 72.7696 64.5301 72.8296 66.4501 74.8196C68.3601 76.8096 68.3001 79.9696 66.3101 81.8896C65.3401 82.8196 64.0901 83.2796 62.8401 83.2796C61.5301 83.2796 60.2201 82.7696 59.2401 81.7496Z" fill="black"/>
<path d="M58.1099 78.7899C56.1299 76.8599 56.0799 73.6999 57.9999 71.7199C59.9199 69.7299 63.0899 69.6799 65.0699 71.6099C67.0499 73.5299 67.0999 76.6899 65.1799 78.6799C64.1999 79.6899 62.8999 80.1999 61.5899 80.1999C60.3399 80.1999 59.0799 79.7299 58.1099 78.7899Z" fill="black"/>
<path d="M56.5797 76.9503C54.7397 74.9003 54.9097 71.7303 56.9697 69.8903C59.0297 68.0503 62.1897 68.2203 64.0297 70.2803C65.8697 72.3403 65.6997 75.5003 63.6397 77.3403C62.6897 78.1903 61.4997 78.6203 60.3097 78.6203C58.9397 78.6203 57.5697 78.0503 56.5797 76.9503Z" fill="black"/>
<path d="M54.2803 74.3804C52.4403 72.3304 52.6203 69.1704 54.6803 67.3204C56.7303 65.4804 59.8903 65.6604 61.7403 67.7204C63.5803 69.7704 63.4003 72.9304 61.3403 74.7804C60.3903 75.6304 59.2003 76.0504 58.0103 76.0504C56.6403 76.0504 55.2703 75.4904 54.2803 74.3804Z" fill="black"/>
<path d="M52.2895 72.6602C50.2195 70.8202 50.0395 67.6602 51.8695 65.6002C53.6995 63.5302 56.8595 63.3402 58.9295 65.1802C60.9895 67.0102 61.1795 70.1702 59.3495 72.2402C58.3595 73.3502 56.9895 73.9202 55.6095 73.9202C54.4295 73.9202 53.2395 73.5002 52.2895 72.6602Z" fill="black"/>
<path d="M51.3603 72.9298C48.9003 71.6798 47.9203 68.6698 49.1703 66.2098C50.4203 63.7398 53.4303 62.7598 55.8903 64.0098C58.3503 65.2598 59.3303 68.2698 58.0803 70.7298C57.2003 72.4698 55.4403 73.4698 53.6203 73.4698C52.8603 73.4698 52.0903 73.2998 51.3603 72.9298Z" fill="black"/>
<path d="M48.8396 71.6195C46.3896 70.3395 45.4296 67.3295 46.6996 64.8795C47.9796 62.4195 50.9896 61.4695 53.4496 62.7395C55.8996 64.0095 56.8496 67.0295 55.5796 69.4795C54.6896 71.1995 52.9396 72.1795 51.1396 72.1795C50.3596 72.1795 49.5696 71.9995 48.8396 71.6195Z" fill="black"/>
<path d="M47.6303 70.7604C45.8903 69.8704 44.7603 67.9904 44.9203 65.9204C45.1303 63.1704 47.5403 61.1104 50.2903 61.3204C51.7903 61.4804 52.4903 61.9804 52.9703 62.2604C53.4303 62.5704 53.6803 62.8004 53.8603 62.9504C55.9303 64.7804 56.1203 67.9404 54.3003 70.0104C53.3103 71.1304 51.9303 71.7004 50.5503 71.7004C49.5303 71.7004 48.5103 71.3904 47.6303 70.7604Z" fill="black"/>
<path d="M45.5397 71.0097C42.8597 70.3297 41.2397 67.6097 41.9197 64.9297C42.5897 62.2597 45.3097 60.6297 47.9897 61.3097C50.6697 61.9897 52.2897 64.7097 51.6097 67.3797C51.0397 69.6497 48.9997 71.1597 46.7697 71.1597C46.3597 71.1597 45.9497 71.1097 45.5397 71.0097Z" fill="black"/>
<path d="M43.3895 70.5905C40.6695 70.1505 38.8095 67.5805 39.2595 64.8505C39.6995 62.1305 42.2595 60.2705 44.9895 60.7205C47.7195 61.1505 49.5695 63.7205 49.1295 66.4505C48.7295 68.9005 46.6095 70.6505 44.1995 70.6505C43.9295 70.6505 43.6595 70.6305 43.3895 70.5905Z" fill="black"/>
<path d="M39.3503 69.8104C37.2003 68.0704 36.8703 64.9204 38.6003 62.7704C39.1103 62.1304 39.8703 61.4804 40.7503 61.0804C41.6203 60.6704 42.5303 60.5204 43.1903 60.5204C45.9603 60.4704 48.2303 62.6704 48.2803 65.4304C48.3203 67.5604 47.0103 69.4104 45.1403 70.1604C44.3403 70.6604 43.4203 70.9204 42.4903 70.9204C41.3803 70.9204 40.2703 70.5604 39.3503 69.8104Z" fill="black"/>
<path d="M33.4996 66.8805C33.0096 64.1605 34.8296 61.5705 37.5496 61.0905C40.2596 60.6005 42.8596 62.4205 43.3396 65.1405C43.8296 67.8505 42.0096 70.4505 39.2896 70.9305C38.9996 70.9805 38.6996 71.0105 38.4096 71.0105C36.0296 71.0105 33.9296 69.3105 33.4996 66.8805Z" fill="black"/>
<path d="M30.3 71.7301C28.25 69.8901 28.08 66.7201 29.93 64.6701C31.78 62.6201 34.94 62.4501 36.99 64.3001C39.04 66.1401 39.21 69.3001 37.36 71.3601C36.38 72.4601 35.01 73.0201 33.64 73.0201C32.45 73.0101 31.26 72.5901 30.3 71.7301Z" fill="black"/>
<path d="M28.0802 74.3003C25.5902 73.1203 24.5202 70.1303 25.7102 67.6403C26.8902 65.1403 29.8702 64.0803 32.3702 65.2603C34.8602 66.4503 35.9202 69.4303 34.7402 71.9303C33.8902 73.7303 32.0902 74.7803 30.2202 74.7803C29.5002 74.7803 28.7702 74.6303 28.0802 74.3003Z" fill="black"/>
<path d="M24.8998 77.0295C22.5298 75.6095 21.7598 72.5395 23.1698 70.1695C24.5898 67.8095 27.6598 67.0395 30.0298 68.4495C32.3998 69.8695 33.1698 72.9395 31.7598 75.3095C30.8198 76.8795 29.1598 77.7395 27.4598 77.7395C26.5898 77.7395 25.6998 77.5095 24.8998 77.0295Z" fill="black"/>
<path d="M23.5599 78.2098C21.2699 76.6698 20.6599 73.5598 22.1999 71.2698C22.7199 70.5198 23.0799 70.1998 23.2699 69.9798C25.1699 67.9698 28.3299 67.8698 30.3399 69.7698C32.3499 71.6598 32.4499 74.8198 30.5599 76.8398C30.4799 76.9198 30.4199 76.9798 30.3899 77.0098C29.4199 78.3498 27.8999 79.0598 26.3499 79.0598C25.3899 79.0598 24.4199 78.7898 23.5599 78.2098Z" fill="black"/>
<path d="M21.5005 83.2903C18.8505 82.5203 17.3305 79.7403 18.1005 77.0903C18.8705 74.4403 21.6505 72.9203 24.3005 73.6903C26.9505 74.4703 28.4705 77.2403 27.7005 79.8903C27.0605 82.0803 25.0705 83.4903 22.9005 83.4903C22.4405 83.4903 21.9705 83.4303 21.5005 83.2903Z" fill="black"/>
<path d="M17.5902 83.4701C15.7002 81.4501 15.8002 78.2901 17.8202 76.4001C19.8402 74.5101 23.0002 74.6201 24.8902 76.6301C26.7702 78.6501 26.6702 81.8101 24.6502 83.7001C23.6902 84.6001 22.4602 85.0501 21.2402 85.0501C19.9002 85.0501 18.5702 84.5201 17.5902 83.4701Z" fill="black"/>
<path d="M14.1803 87.0298C13.8403 84.2898 15.7803 81.7898 18.5203 81.4498C21.2603 81.1098 23.7603 83.0498 24.1003 85.7898C24.4503 88.5298 22.5003 91.0298 19.7603 91.3698C19.5503 91.3998 19.3403 91.4098 19.1403 91.4098C16.6503 91.4098 14.5003 89.5598 14.1803 87.0298Z" fill="black"/>
<path d="M13.3197 87.4705C12.8297 84.7505 14.6297 82.1505 17.3497 81.6605L17.7997 81.5805C20.5097 81.0805 23.1197 82.8805 23.6097 85.6005C24.0997 88.3205 22.2997 90.9205 19.5797 91.4105L19.1297 91.5005C18.8297 91.5505 18.5297 91.5805 18.2397 91.5805C15.8597 91.5805 13.7597 89.8905 13.3197 87.4705Z" fill="black"/>
<path d="M13.2402 114.25C13.2402 111.49 15.4802 109.25 18.2402 109.25C21.0002 109.25 23.2402 111.49 23.2402 114.25C23.2402 117.01 21.0002 119.25 18.2402 119.25C15.4802 119.25 13.2402 117.01 13.2402 114.25Z" fill="black"/>
<path d="M0 141.92C0 139.16 2.24 136.92 5 136.92C7.76 136.92 10 139.16 10 141.92C10 144.68 7.76 146.92 5 146.92C2.24 146.92 0 144.68 0 141.92Z" fill="black"/>
<path d="M0 114.53C0 111.77 2.24 109.54 5 109.54C7.76 109.54 10 111.77 10 114.53C10 117.3 7.76 119.53 5 119.53C2.24 119.53 0 117.3 0 114.53ZM0 87.1499C0 84.3899 2.24 82.1499 5 82.1499C7.76 82.1499 10 84.3899 10 87.1499C10 89.9099 7.76 92.1499 5 92.1499C2.24 92.1499 0 89.9099 0 87.1499ZM0 59.7699C0 56.9999 2.24 54.7699 5 54.7699C7.76 54.7699 10 56.9999 10 59.7699C10 62.5299 7.76 64.7699 5 64.7699C2.24 64.7699 0 62.5299 0 59.7699ZM0 32.3799C0 29.6199 2.24 27.3799 5 27.3799C7.76 27.3799 10 29.6199 10 32.3799C10 35.1399 7.76 37.3799 5 37.3799C2.24 37.3799 0 35.1399 0 32.3799Z" fill="black"/>
<path d="M15.21 5C15.21 2.24 17.45 0 20.21 0C22.97 0 25.21 2.24 25.21 5C25.21 7.76 22.97 10 20.21 10C17.45 10 15.21 7.76 15.21 5Z" fill="black"/>
<path d="M20.2703 10.1398C20.0703 10.1098 19.8603 10.0698 19.6403 10.0198C16.9303 9.4698 15.1903 6.8198 15.7503 4.1198C16.3103 1.4098 18.9503 -0.330203 21.6503 0.229797C21.7203 0.239797 21.8203 0.259797 21.9203 0.279797C24.6503 0.729797 26.4803 3.3098 26.0303 6.0398C25.6203 8.4798 23.5003 10.2098 21.1003 10.2098C20.8303 10.2098 20.5503 10.1898 20.2703 10.1398Z" fill="black"/>
<path d="M21.9398 10.4204L21.0998 10.2804C18.3798 9.8204 16.5398 7.2404 17.0098 4.5104C17.4698 1.7904 20.0498 -0.0396013 22.7698 0.420399L23.6098 0.560399C26.3298 1.0204 28.1698 3.6004 27.6998 6.3304C27.2898 8.7704 25.1698 10.4904 22.7798 10.4904C22.4998 10.4904 22.2198 10.4704 21.9398 10.4204Z" fill="black"/>
<path d="M24.3295 10.2796C21.5795 9.98959 19.5995 7.52959 19.8895 4.77959C20.1795 2.03959 22.6495 0.0495946 25.3895 0.339595C28.1395 0.629595 30.1295 3.09959 29.8295 5.83959C29.5595 8.40959 27.3895 10.3096 24.8695 10.3096C24.6895 10.3096 24.5095 10.2996 24.3295 10.2796Z" fill="black"/>
<path d="M26.4603 10.3195C23.8003 9.56954 22.2503 6.81954 22.9903 4.15954C23.7403 1.49954 26.5003 -0.0504556 29.1603 0.689544C31.8203 1.43954 33.3703 4.19954 32.6203 6.85954C32.0003 9.05954 29.9903 10.5095 27.8103 10.5095C27.3603 10.5095 26.9103 10.4495 26.4603 10.3195Z" fill="black"/>
<path d="M26.6402 12.0098C24.0202 11.1398 22.5902 8.31978 23.4502 5.69978C24.3202 3.06978 27.1402 1.64978 29.7702 2.50978C32.3902 3.36978 33.8202 6.19978 32.9502 8.81978C32.2602 10.9298 30.3002 12.2598 28.2002 12.2598C27.6902 12.2598 27.1602 12.1798 26.6402 12.0098Z" fill="black"/>
<path d="M26.7995 17.3804C24.1395 16.6604 22.5595 13.9104 23.2895 11.2404C24.0095 8.58042 26.7595 7.01042 29.4195 7.73042C32.0895 8.45042 33.6595 11.2004 32.9395 13.8604C32.3395 16.0904 30.3195 17.5604 28.1195 17.5604C27.6795 17.5604 27.2395 17.5004 26.7995 17.3804Z" fill="black"/>
<path d="M27.8195 21.1704C25.0695 20.8904 23.0595 18.4404 23.3395 15.7004C23.6095 12.9504 26.0595 10.9404 28.8095 11.2204C31.5595 11.4904 33.5595 13.9404 33.2895 16.6904C33.0295 19.2704 30.8595 21.1904 28.3195 21.1904C28.1495 21.1904 27.9895 21.1904 27.8195 21.1704Z" fill="black"/>
<path d="M26.2797 25.3003C23.6997 24.3103 22.4097 21.4203 23.3997 18.8403C24.3897 16.2603 27.2797 14.9703 29.8597 15.9603C32.4397 16.9503 33.7297 19.8403 32.7397 22.4203C31.9697 24.4103 30.0797 25.6303 28.0697 25.6303C27.4697 25.6303 26.8697 25.5203 26.2797 25.3003Z" fill="black"/>
<path d="M26.1703 29.0396C23.6503 27.9096 22.5203 24.9496 23.6603 22.4296C24.7903 19.9096 27.7503 18.7896 30.2703 19.9196C32.7903 21.0496 33.9103 24.0096 32.7803 26.5296C31.9403 28.3796 30.1203 29.4796 28.2203 29.4796C27.5303 29.4796 26.8303 29.3396 26.1703 29.0396Z" fill="black"/>
<path d="M23.3298 27.6502C22.5398 25.0102 24.0398 22.2202 26.6898 21.4302C29.3298 20.6302 32.1198 22.1402 32.9098 24.7802C33.6998 27.4302 32.1998 30.2102 29.5498 31.0102C29.0798 31.1502 28.5898 31.2202 28.1198 31.2202C25.9698 31.2202 23.9798 29.8202 23.3298 27.6502Z" fill="black"/>
<path d="M27.8901 34.6804C25.1301 34.5604 23.0001 32.2204 23.1201 29.4604C23.2401 26.7004 25.5801 24.5704 28.3401 24.6904C31.0901 24.8104 33.2301 27.1504 33.1101 29.9104C32.9901 32.5904 30.7801 34.6804 28.1201 34.6804H27.8901Z" fill="black"/>
<path d="M25.8805 37.4003C23.4105 36.1603 22.4205 33.1503 23.6605 30.6803C24.9105 28.2203 27.9205 27.2303 30.3805 28.4703C32.8405 29.7103 33.8405 32.7203 32.5905 35.1903C31.7105 36.9303 29.9505 37.9403 28.1205 37.9403C27.3705 37.9403 26.6005 37.7603 25.8805 37.4003Z" fill="black"/>
<path d="M23.2401 37.5198C22.5201 34.8498 24.0901 32.1098 26.7601 31.3798C29.4201 30.6598 32.1701 32.2298 32.8901 34.8998C33.6201 37.5598 32.0401 40.3098 29.3801 41.0298C28.9401 41.1498 28.5001 41.2098 28.0701 41.2098C25.8601 41.2098 23.8501 39.7498 23.2401 37.5198Z" fill="black"/>
<path d="M25.8005 42.0598C23.9305 40.0298 24.0705 36.8698 26.1105 34.9998C28.1405 33.1298 31.3005 33.2698 33.1705 35.2998C35.0405 37.3398 34.9005 40.4998 32.8705 42.3698C31.9105 43.2498 30.7005 43.6798 29.4905 43.6798C28.1405 43.6798 26.7905 43.1398 25.8005 42.0598Z" fill="black"/>
<path d="M31.2304 46.2898C28.5004 45.8898 26.6004 43.3598 27.0004 40.6298C27.3904 37.8898 29.9304 35.9998 32.6604 36.3898C35.3904 36.7898 37.2904 39.3198 36.8904 42.0498C36.5304 44.5498 34.4004 46.3398 31.9504 46.3398C31.7204 46.3398 31.4704 46.3198 31.2304 46.2898Z" fill="black"/>
<path d="M29.7004 43.2399C29.6404 40.4799 31.8304 38.1999 34.5904 38.1399C37.3604 38.0799 39.6404 40.2699 39.7004 43.0299C39.7604 45.7899 37.5604 48.0799 34.8004 48.1399H34.7004C31.9804 48.1399 29.7604 45.9699 29.7004 43.2399Z" fill="black"/>
<path d="M37.1399 48.3598C34.3999 48.0398 32.4299 45.5498 32.7499 42.8098C33.0699 40.0698 35.5499 38.0998 38.2999 38.4198C41.0399 38.7398 42.9999 41.2298 42.6799 43.9698C42.3899 46.5198 40.2299 48.3898 37.7199 48.3898C37.5299 48.3898 37.3399 48.3798 37.1399 48.3598Z" fill="black"/>
<path d="M33.4805 44.3904C32.8705 41.7004 34.5705 39.0304 37.2605 38.4204C37.5205 38.3904 37.7805 38.2304 38.9905 38.1904C41.7605 38.1904 43.9905 40.4304 43.9905 43.1904C43.9905 45.7704 42.0305 47.9004 39.5205 48.1604C39.5205 48.1604 39.4805 48.1704 39.4505 48.1804C39.0805 48.2604 38.7205 48.3004 38.3505 48.3004C36.0705 48.3004 34.0005 46.7204 33.4805 44.3904Z" fill="black"/>
<path d="M36.1602 44.1702C35.6302 41.4602 37.4002 38.8302 40.1102 38.3002C42.8202 37.7702 45.4402 39.5302 45.9702 42.2402C46.5002 44.9502 44.7402 47.5802 42.0302 48.1102C41.7002 48.1702 41.3802 48.2002 41.0602 48.2002C38.7202 48.2002 36.6302 46.5502 36.1602 44.1702Z" fill="black"/>
<path d="M44.2899 48.3598C41.5399 48.1098 39.5199 45.6698 39.7699 42.9198C40.0299 40.1698 42.4599 38.1498 45.2099 38.3998C47.9599 38.6598 49.9799 41.0898 49.7299 43.8398C49.4899 46.4398 47.3099 48.3798 44.7599 48.3798C44.5999 48.3798 44.4499 48.3798 44.2899 48.3598Z" fill="black"/>
<path d="M44.3496 43.4597C44.3496 40.6997 46.5896 38.4697 49.3496 38.4697C52.1096 38.4697 54.3496 40.6997 54.3496 43.4597C54.3496 46.2297 52.1096 48.4697 49.3496 48.4697C46.5896 48.4697 44.3496 46.2297 44.3496 43.4597Z" fill="black"/>
<path d="M48.8402 48.3802C46.5502 46.8402 45.9402 43.7402 47.4802 41.4502C49.0202 39.1502 52.1202 38.5402 54.4202 40.0802C56.7102 41.6202 57.3202 44.7302 55.7802 47.0202C54.8102 48.4602 53.2302 49.2302 51.6202 49.2302C50.6602 49.2302 49.6902 48.9602 48.8402 48.3802Z" fill="black"/>
<path d="M50.2399 44.7C50.1699 41.94 52.3499 39.64 55.1099 39.57C57.8699 39.5 60.1699 41.68 60.2399 44.44C60.3099 47.2 58.1299 49.5 55.3699 49.57H55.2399C52.5399 49.57 50.3199 47.42 50.2399 44.7Z" fill="black"/>
<path d="M53.9796 44.8201C53.7996 42.0701 55.8896 39.6901 58.6396 39.5001C61.3996 39.3201 63.7796 41.4101 63.9596 44.1701C64.1396 46.9201 62.0596 49.3001 59.2996 49.4801C59.1896 49.4901 59.0796 49.4901 58.9696 49.4901C56.3596 49.4901 54.1596 47.4701 53.9796 44.8201Z" fill="black"/>
<path d="M55.9996 44.6997C55.7996 41.9497 57.8796 39.5597 60.6296 39.3597C63.3896 39.1697 65.7796 41.2497 65.9696 43.9997C66.1696 46.7497 64.0896 49.1497 61.3396 49.3397C61.2196 49.3497 61.0996 49.3497 60.9796 49.3497C58.3796 49.3497 56.1796 47.3397 55.9996 44.6997Z" fill="black"/>
<path d="M58.8398 44.1699C58.8398 41.4099 61.0798 39.1699 63.8398 39.1699C66.5998 39.1699 68.8398 41.4099 68.8398 44.1699C68.8398 46.9299 66.5998 49.1699 63.8398 49.1699C61.0798 49.1699 58.8398 46.9299 58.8398 44.1699Z" fill="black"/>
<path d="M67.24 49.1797C64.48 49.1697 62.24 46.9297 62.25 44.1697C62.25 41.4097 64.5 39.1697 67.26 39.1797C70.02 39.1897 72.26 41.4297 72.25 44.1897C72.24 46.9497 70.01 49.1797 67.25 49.1797H67.24Z" fill="black"/>
<path d="M68.1098 48.3203C66.2198 46.3103 66.3198 43.1403 68.3298 41.2503C70.3398 39.3603 73.4998 39.4503 75.3898 41.4603C77.2898 43.4703 77.1898 46.6403 75.1798 48.5303C74.2198 49.4403 72.9798 49.8903 71.7598 49.8903C70.4198 49.8903 69.0998 49.3603 68.1098 48.3203Z" fill="black"/>
<path d="M71.5599 49.1598C68.9099 48.3998 67.3599 45.6398 68.1099 42.9798C68.8699 40.3298 71.6299 38.7798 74.2899 39.5298C76.9399 40.2898 78.4899 43.0498 77.7399 45.7098C77.1099 47.9098 75.1099 49.3498 72.9299 49.3498C72.4799 49.3498 72.0199 49.2798 71.5599 49.1598Z" fill="black"/>
<path d="M73.9903 49.8498C71.3403 49.0898 69.8003 46.3198 70.5603 43.6698C71.3303 41.0098 74.1003 39.4798 76.7503 40.2398C79.4003 40.9998 80.9403 43.7698 80.1803 46.4198C79.5503 48.6198 77.5503 50.0498 75.3703 50.0498C74.9203 50.0498 74.4503 49.9798 73.9903 49.8498Z" fill="black"/>
<path d="M76.6103 49.2598C74.1003 48.1098 73.0003 45.1398 74.1503 42.6298C75.3103 40.1198 78.2803 39.0198 80.7903 40.1698C83.2903 41.3298 84.3903 44.2998 83.2403 46.8098C82.4003 48.6398 80.5903 49.7198 78.6903 49.7198C78.0003 49.7198 77.2803 49.5698 76.6103 49.2598Z" fill="black"/>
<path d="M80.0504 49.1903C77.3204 48.7603 75.4604 46.2003 75.9004 43.4703C76.3304 40.7403 78.9004 38.8803 81.6304 39.3203C84.3504 39.7503 86.2104 42.3203 85.7804 45.0403C85.3804 47.5003 83.2604 49.2603 80.8404 49.2603C80.5804 49.2603 80.3204 49.2403 80.0504 49.1903Z" fill="black"/>
</g>
</g>
<defs>
<clipPath id="clip0_2554_16929">
<rect width="220.67" height="339.47" fill="white"/>
</clipPath>
</defs>
</svg>
