<svg width="207" height="109" viewBox="0 0 207 109" fill="none" xmlns="http://www.w3.org/2000/svg">
<g clip-path="url(#clip0_2561_2226)">
<mask id="mask0_2561_2226" style="mask-type:luminance" maskUnits="userSpaceOnUse" x="0" y="0" width="207" height="109">
<path d="M206.8 0H0V108.21H206.8V0Z" fill="white"/>
</mask>
<g mask="url(#mask0_2561_2226)">
<path d="M53.68 63.4296C53.12 63.4896 53.42 64.7796 51.33 66.4296C50.59 67.0196 49.17 67.7796 48.23 67.8396C47.46 67.8896 46.62 67.9296 45.86 67.8396C44.2 67.6096 42.78 66.5396 41.73 65.3296C40.69 64.1196 41.19 63.4196 40.53 63.3196C40.37 63.2896 40.08 63.5196 40 63.7096C38.47 67.2996 34.33 68.9196 30.83 67.2596C27.38 65.6196 27.64 63.1296 26.93 63.3196C26.82 63.3496 26.63 63.5196 26.58 63.6396C25.77 65.6896 23.98 67.1396 22.09 67.6496C18.77 68.5596 15.31 66.8396 13.93 63.6296C13.88 63.4996 13.66 63.3296 13.55 63.3196C13.44 63.3196 13.2 63.5096 13.16 63.6196C12.57 65.2696 11.27 66.5496 9.64 67.2196C9.48 67.2896 9.27 67.6396 9.29 67.7996C9.39 68.3996 10.21 68.0896 11.68 69.5496C13.01 70.8696 13.76 72.5296 13.76 74.4296C13.76 75.4496 13.6 76.3596 13.13 77.2896C12.38 78.7796 11.62 79.6996 10.11 80.4496C9.72 80.6396 9.44 80.7596 9.14 81.1196C10.31 82.2096 9.88 81.3796 11.52 82.8496C13.66 84.7596 14.36 88.0496 13.19 90.6296C12.96 91.1496 12.54 91.6296 12.21 92.1296C11.14 93.7896 9.63 93.9096 9.22 94.4796C8.9 94.9196 10.69 95.2596 11.95 96.7396C13.06 98.0496 13.36 98.9496 13.79 100.67C13.87 100.99 13.81 101.42 13.79 101.77C13.57 104.94 10.88 107.67 7.89 108.21H5.62L4.11 107.66C3.55 107.46 3.01 107.02 2.54 106.65C1.07 105.5 0.35 104.15 0 102.48V100.22L0.08 100.09C0.29 98.6996 1.09 97.3296 2.14 96.3796C3.42 95.1996 4.06 95.1496 4.5 94.6296C4.58 94.5396 4.32 94.2696 4.19 94.2196C2.63 93.6296 1.51 92.4096 0.7 90.9196C0.38 90.3296 0.11 89.6996 0.1 89.0196L0.01 88.8896V86.8596C0.29 85.4396 0.9 84.0396 2.08 82.9696C2.37 82.7096 2.66 82.3996 2.99 82.2096L4.36 81.3896C4.55 81.2796 4.37 80.7696 4.16 80.7096C3.18 80.4296 2.56 79.8296 1.88 79.1496C0.85 78.1396 0.13 76.7596 0.11 75.3096C0.09 75.2796 0.01 75.1696 0.01 75.1696V73.2596C0.4 71.7496 1.11 70.3196 2.33 69.2496C3.7 68.0496 4.15 68.3896 4.43 67.7896C4.63 67.3296 3.23 66.8696 2.94 66.6296C1.66 65.5696 1.04 64.8496 0.37 63.3596C0.18 62.9496 0.16 62.4096 0.01 62.0396V60.0096C0.01 60.0096 0.09 59.8996 0.1 59.8696C0.03 58.6296 1.34 56.6496 2.2 55.8896C3.56 54.6896 4.49 54.8296 4.58 54.3396C4.72 53.5796 2.11 53.8696 0.59 50.2396C0.05 48.9496 0.36 49.6196 0.01 48.4396V46.6496C0.38 44.2796 2.02 41.9996 4.42 41.0196C4.47 40.8496 4.27 40.5096 4.1 40.4096C2.05 39.2896 1.2 38.3796 0.31 36.2196L0 34.9296V33.1396L0.36 31.7296C0.75 30.2096 2.74 28.2796 4.22 27.6196C4.34 27.5596 4.5 27.3196 4.53 27.2196C4.56 27.1096 4.36 26.8896 4.26 26.8496C1.91 25.9596 0.51 23.9196 0 21.5596V19.6496C0.22 18.4996 0.59 17.4596 1.33 16.5596C3.03 14.4396 5 13.4096 7.78 13.7596C9.42 13.9696 10.92 14.6696 11.95 15.9296C12.92 17.0996 13.65 18.3496 13.75 19.8696C13.88 22.0396 13.21 23.9696 11.67 25.4796C9.95 27.1696 9.41 26.3096 9.2 27.3996L10.85 28.3996C12.68 29.5096 13.71 31.6896 13.79 33.9096C13.9 36.6996 12.06 39.1296 9.65 40.3796C9.51 40.4596 9.29 40.6996 9.32 40.8196C9.47 41.3496 10.69 41.2096 12.53 43.6496C13.51 44.9496 13.85 46.4096 13.74 48.0996C13.57 50.6496 11.85 52.8096 9.53 53.8796C9.4 53.9396 9.18 54.1896 9.21 54.3196C9.33 54.8896 10.22 54.6196 11.64 56.0196C13.11 57.4696 13.05 58.7196 13.56 58.6996C14 58.6896 14.23 57.5996 14.69 57.0096C15.32 56.1896 16.05 55.4496 16.94 54.9796C18.04 54.4096 19.09 54.0496 20.29 54.0796C20.64 54.0796 21.16 54.0896 21.49 54.1796C23.21 54.5996 24.8 55.5596 25.82 56.9696C26.25 57.5696 26.29 58.3296 27.01 58.7096C28.11 57.5596 27.2 57.8396 28.95 56.0996C30.53 54.5296 32.72 53.8296 34.95 54.2096C36.42 54.4596 37.75 55.2996 38.74 56.3396C39.83 57.4696 39.87 58.5996 40.43 58.7196C40.96 58.8196 41.06 57.8096 41.33 57.3896C43.08 54.6896 46.65 53.2696 49.65 54.6396C53.45 56.3696 52.87 58.4396 53.68 58.5896C53.81 58.6096 54.16 58.4696 54.23 58.2996C54.89 56.6796 56.28 55.3096 57.99 54.7296C58.19 54.6696 58.36 54.2196 58.19 54.1296C57.51 53.7696 56.82 53.4496 56.21 52.9796C55.28 52.2696 54.52 51.1896 54.07 50.1296C53.65 49.1396 53.75 48.0496 53.73 46.9896C53.7 45.3096 54.53 43.8996 55.64 42.6796C56.8 41.4196 58.17 41.4896 58.24 40.8496C58.24 40.7296 58.02 40.4996 57.89 40.4496C56.98 40.0996 56.19 39.4696 55.5 38.8096C54.14 37.4996 53.68 35.8196 53.7 33.9896C53.71 32.5196 53.98 31.2996 54.92 30.1196C55.71 29.1296 56.64 28.1696 57.89 27.7596C58.04 27.7196 58.21 27.3796 58.19 27.2496C58.08 26.5896 56.56 27.0996 54.48 23.9396C53.87 23.0096 53.76 21.9696 53.72 20.8596C53.66 18.9996 54.19 17.3696 55.51 16.0396C56.51 15.0296 57.7 14.1096 59.19 13.8996C60.33 13.7396 61.59 13.7396 62.71 14.0696C63.74 14.3696 64.58 15.0996 65.4 15.8096C66.41 16.6796 66.97 18.0296 67.34 19.3096C67.57 20.1096 67.44 20.8896 67.38 21.6896C67.28 22.8196 66.81 23.7796 66.14 24.6696C64.44 26.9196 62.73 26.7596 62.82 27.3496C62.82 27.4396 62.98 27.6496 63.07 27.6896C65.05 28.4496 66.56 30.1496 67.2 32.2696C68.2 35.5596 66.38 39.1196 63.22 40.4796C63.07 40.5396 62.87 40.8396 62.93 40.9496C62.99 41.0496 63.17 41.2596 63.28 41.2996C65.62 42.3296 67.1 44.4196 67.42 46.9496C67.8 50.0496 65.91 52.8496 63.05 54.0296C62.95 54.0696 62.81 54.2496 62.79 54.3396C62.72 54.7696 63.67 54.9496 63.84 55.0496C65.98 56.2596 67.7 58.7896 67.48 61.3296C67.4 62.2696 67.17 63.2296 66.77 64.0996C66.5 64.6996 65.98 65.2096 65.56 65.7396C64.97 66.4796 64.18 66.9396 63.33 67.3296C63.11 67.4296 62.77 67.8996 62.99 68.0296L64.48 68.8696C65.53 69.4596 66.24 70.5596 66.83 71.6396C67.22 72.3596 67.31 73.2096 67.43 74.0396C67.64 75.4796 67.14 76.9196 66.38 78.1296C65.56 79.4396 64.46 80.3196 63.01 80.8796C62.78 80.9596 63.05 81.5896 63.26 81.6696C64.57 82.1796 65.54 83.0696 66.33 84.2196C66.65 84.6796 66.85 85.2296 67.07 85.7396C67.47 86.6896 67.55 87.5496 67.41 88.5596C67.16 90.3596 66.8 91.3096 65.55 92.5996C64.8 93.3696 64.02 93.9196 63.02 94.3896C62.76 94.5096 63.05 95.0496 63.28 95.1296C63.85 95.2996 64.27 95.6196 64.71 95.9596C66.3 97.1796 67.19 98.9096 67.44 100.9C67.55 101.81 67.34 102.65 67.06 103.53C66.83 104.29 66.48 104.85 66.01 105.48C64.86 107.04 63.25 107.96 61.38 108.25H59.83C59.11 108.06 58.27 108.08 57.32 107.54C53.51 105.38 52.53 101.04 54.85 97.4296C56.1 95.4796 57.81 95.3896 58.15 94.6796C58.29 94.3796 56.73 93.9896 55.54 92.7396C53.98 91.1096 53.54 89.7296 53.68 87.4896C53.74 86.5396 53.91 85.7296 54.35 84.8696C55.83 81.9896 58.49 81.6596 58.14 81.1196C58.08 81.0296 57.91 80.8596 57.8 80.8096C56.88 80.4496 56.17 79.8496 55.49 79.1896C54.34 78.0796 53.74 76.7996 53.68 75.1996C53.66 74.6796 53.59 74.1396 53.67 73.6196C54.01 71.2396 54.79 70.4596 56.66 68.7996C56.82 68.6596 58.79 68.0696 58.06 67.5496C56.97 66.7596 57.04 67.4996 54.91 65.0696C54.37 64.4596 54.21 63.4296 53.67 63.4896" fill="#90BEFB"/>
<path d="M179.75 103.41C179.22 103.34 179.2 104.48 178.2 105.61C176.76 107.24 174.82 108.07 172.67 108C170.04 107.91 167.61 106.25 166.67 103.83C166.63 103.72 166.38 103.55 166.26 103.53C166.15 103.51 165.95 103.67 165.87 103.82C164.93 105.74 163.24 107.38 161.1 107.82C159.68 108.11 158.18 108.05 156.88 107.51C154.51 106.51 152.86 104.3 152.61 101.8C152.4 99.6397 153.15 97.8397 154.57 96.3297C155.98 94.8197 157.17 95.0497 157.14 94.2997C157.13 94.0497 156.78 93.9197 156.51 93.7997C153.28 92.3697 151.75 88.6597 153.01 85.3097C153.54 83.8797 154.64 82.6597 155.91 81.8197C156.36 81.5197 156.89 81.5597 157.3 81.0497C156.46 79.8997 156.28 80.5997 154.71 79.1397C152.84 77.4097 152.14 74.6297 152.94 72.1697C153.1 71.6597 153.25 71.1797 153.54 70.7397C155.24 68.0697 157.29 68.1097 157.27 67.5997C157.25 66.9397 156.13 67.2297 154.6 65.6397C152.8 63.7697 152.08 61.2997 152.91 58.7697C153.06 58.3097 153.27 57.8997 153.51 57.4497C155.02 54.5197 157.17 54.8097 157.28 54.0697C157.37 53.4397 155.32 53.5197 153.89 51.3197C152.92 49.8297 153 49.5697 152.66 47.9797C152.55 47.4697 152.66 47.0297 152.7 46.4897C152.89 44.0197 154.73 41.8697 156.89 41.0297C157.07 40.9597 157.23 40.6897 157.24 40.5797C157.29 40.0397 155.9 40.2097 154.4 38.4897C153.21 37.1397 152.68 35.9397 152.67 34.0997C152.67 33.7897 152.64 33.4297 152.67 33.1297C152.84 31.7097 153.37 30.5297 154.29 29.4597C156.24 27.2097 156.61 28.2897 157.26 27.1097C157.02 26.7097 156.52 26.5897 156.14 26.3797C154.25 25.3297 152.91 23.4097 152.74 21.2397C152.65 20.0597 152.73 18.8297 153.22 17.7697C153.9 16.2897 155.16 15.0797 156.57 14.3597C156.91 14.1897 157.32 14.0297 157.27 13.5997C154.55 12.4597 152.42 9.83974 152.73 6.76974C152.78 6.21974 152.84 5.56974 153.02 5.00974C153.54 3.39974 154.93 1.75974 156.44 0.959742C158.41 -0.0802583 160.86 -0.0302583 162.8 0.999742C165.42 2.38974 165.82 4.62974 166.19 4.83974C166.32 4.90974 166.65 4.68974 166.72 4.51974C167.26 3.06974 168.38 1.90974 169.7 1.08974C171.08 0.239742 172.62 0.0397417 174.21 0.349742C175.62 0.609742 176.84 1.16974 177.85 2.21974C178.52 2.91974 179.08 3.65974 179.39 4.61974C179.44 4.76974 179.63 5.01974 179.76 5.01974C180.37 5.01974 180.02 3.99974 181.46 2.44974C183.6 0.139742 187.05 -0.450258 189.72 1.07974C192.48 2.65974 192.47 4.54974 193.17 4.86974C193.66 5.09974 194 2.82974 196.11 1.46974C198.61 -0.140258 200.71 -0.110258 203.29 1.22974C205.53 2.39974 207.03 5.14974 206.78 7.67974C206.66 8.95974 206.39 10.1297 205.55 11.1397C204.96 11.8497 204.33 12.4397 203.57 12.9797C202.46 13.7597 200.51 14.1197 199.28 13.9797C197.78 13.7997 196.44 13.3097 195.37 12.2597C193.9 10.8297 193.87 9.92974 193.34 9.64974C192.84 9.38974 192.47 10.5897 192.21 10.9397C191.42 11.9697 190.46 12.9397 189.24 13.4297C187.26 14.2297 184.99 14.1397 183.17 13.1497C180.33 11.5997 180.39 9.56974 179.89 9.51974C179.19 9.44974 179.24 10.9597 177.57 12.2897C175.85 13.6497 174.35 14.0997 172.18 13.8797C167.83 13.4497 166.97 9.62974 166.27 9.57974C165.67 9.52974 165.51 12.1797 162.12 13.4497C162.01 13.4897 161.86 13.7797 161.88 13.8997C161.98 14.4397 162.92 14.0997 164.34 15.5997C166.21 17.5597 166.72 19.0397 166.4 21.8297C166.26 23.0397 165.5 24.0397 164.78 24.9497C163.4 26.6897 161.78 26.5497 161.92 27.2697C162.04 27.8997 163.61 27.7697 165.04 29.7997C166.21 31.4597 166.65 32.9097 166.4 34.9497C166.23 36.3897 165.44 37.6097 164.51 38.6497C163 40.3397 162.16 39.9097 161.95 40.5597C161.9 40.7197 162.14 41.0497 162.3 41.1197C163.09 41.4897 163.65 41.9097 164.31 42.4797C165.57 43.5597 165.69 44.6897 166.16 44.9897C166.62 45.2797 167.02 42.9997 169.28 41.6397C170.61 40.8397 171.81 40.4497 173.39 40.5597C174.63 40.6397 175.92 41.0197 176.91 41.7897C177.91 42.5597 178.69 43.3897 179.19 44.5497C179.29 44.7697 179.58 45.0497 179.82 45.1797C180.15 44.8397 180.2 44.3997 180.42 44.0297C181.29 42.5897 182.67 41.4597 184.24 40.8497C185.01 40.5597 185.83 40.5997 186.6 40.5597C187.72 40.4997 188.62 40.7797 189.57 41.3397C192.57 43.0797 192.43 44.8397 193.11 45.0097C193.77 45.1697 193.57 43.1397 196.64 41.4297C197.66 40.8597 198.57 40.4997 199.76 40.5497C200.65 40.5897 201.56 40.6597 202.38 41.0397C205.07 42.2897 206.81 44.5497 206.71 47.6197C206.67 48.7397 206.5 49.6997 205.93 50.6997C205.03 52.2597 203.62 53.4597 201.84 54.0097C198.44 55.0597 194.81 53.2397 193.47 49.9697C193.32 49.8697 192.86 49.8297 192.79 49.9797L192.24 51.0897C191.7 52.1797 190.65 52.9597 189.55 53.5197C188.72 53.9397 187.76 54.1497 186.82 54.2497C184.14 54.5297 181.03 52.6197 180.12 50.0597C180.06 49.9097 179.77 49.7097 179.63 49.7397C179.19 49.8197 179.26 50.7697 177.81 52.1897C176.81 53.1797 175.66 54.0297 174.19 54.1497C171.39 54.3897 169.56 53.8797 167.6 51.6997C166.85 50.8597 166.74 49.7897 166.25 49.7497C165.75 49.6997 165.65 51.4897 163.33 53.1297C162.89 53.4397 162.17 53.6097 161.68 53.8197C161.51 54.3897 162.16 54.4797 162.52 54.6497C164.08 55.3797 165.23 56.7497 165.9 58.2997C166.9 60.5997 166.52 62.8097 165.15 64.8197C163.73 66.9097 161.84 66.9597 161.76 67.6197C161.75 67.7297 161.97 67.9297 162.08 67.9597C163.46 68.3897 164.37 69.3597 165.19 70.4597C167.77 73.9197 166.16 78.6497 162.66 80.3597C162.35 80.5097 161.75 80.7797 161.79 81.0997C161.86 81.6897 162.58 81.5597 162.92 81.7897C163.76 82.3397 164.46 83.0297 165.12 83.7697C165.56 84.2697 165.72 84.8697 165.95 85.4597C166.81 87.6697 166.45 90.0197 164.97 91.8897C163.3 93.9897 161.97 93.7497 161.86 94.3397C161.66 95.3797 164.16 94.8097 165.74 98.4097C165.8 98.5397 166.03 98.7597 166.15 98.7997C166.29 98.8597 166.56 98.5797 166.62 98.4297C167.6 96.2397 169.51 94.6997 171.9 94.3697C173.31 94.1797 175.16 94.4297 176.41 95.2797C176.85 95.5697 177.4 95.9097 177.76 96.2897C179.01 97.6197 179.52 99.6897 180.05 98.5897C180.58 97.4797 180.94 96.8497 181.88 96.0197C182.96 95.0697 184.26 94.4697 185.71 94.3297C185.98 94.2997 186.34 94.3497 186.61 94.3497C188.7 94.3497 190.41 95.3597 191.67 96.9797C192.03 97.4397 192.34 97.8497 192.62 98.4097C192.7 98.5597 192.93 98.8197 193.08 98.7997C193.93 98.6897 193.39 96.9197 196.56 95.1697C197.55 94.6197 198.45 94.3297 199.63 94.3797C200.67 94.4297 201.74 94.3897 202.67 94.9297C203.91 95.6497 205.05 96.5397 205.77 97.7797C207.12 100.13 206.93 102.91 205.47 105.13C204.16 107.12 201.64 108.29 199.23 108.06C198.16 107.96 197.11 107.73 196.23 107.09C195.18 106.33 194.22 105.48 193.66 104.29C193.5 103.96 193.37 103.35 192.81 103.65C192.46 103.84 192.36 104.96 191.08 106.17C190.12 107.07 188.86 107.76 187.55 107.97C185.78 108.26 184.91 108.02 183.37 107.4C182.65 107.11 182.09 106.56 181.53 106.01C179.93 104.46 180.25 103.51 179.7 103.44" fill="#90BEFB"/>
<path d="M23.1604 13.4392C19.6004 15.0792 15.5604 13.3992 13.9204 9.81925C13.5704 9.04925 13.5104 8.13925 13.4604 7.26925C13.3504 5.27925 14.3504 3.37925 15.7604 1.99925C16.2304 1.54925 16.7904 1.23925 17.3504 0.939246C18.0904 0.539246 18.8504 0.369246 19.7004 0.269246C21.8304 0.0192459 23.7104 0.859246 25.1904 2.36925C25.6304 2.82925 26.0604 3.27925 26.3104 3.86925C26.4504 4.17925 26.6804 4.75925 26.9704 4.82925C27.4504 4.94925 27.4804 4.33925 27.6204 4.04925C29.0504 1.15925 32.4304 -0.400754 35.5504 0.479246C39.0604 1.46925 39.8304 4.51925 40.3304 4.85925C40.8404 5.19925 41.1504 3.84925 41.2804 3.63925C43.1404 0.609246 46.7904 -0.710754 50.1104 0.989246C50.9104 1.39925 51.5604 2.03925 52.2404 2.67925C53.1404 3.53925 53.8204 4.78925 53.9304 6.06925C53.9904 6.82925 54.0504 7.69925 53.9304 8.42925C53.3804 11.5192 50.4704 14.0792 47.1704 14.0892C45.5304 14.0892 44.0504 13.6192 42.8104 12.5492C40.5104 10.5692 41.3304 9.59925 40.5304 9.48925C39.7104 9.36925 40.0904 11.7092 36.7204 13.3992C33.2604 15.1392 28.7504 13.4792 27.4104 9.77925C27.3604 9.63925 27.1404 9.47925 27.0504 9.50925C26.4704 9.66925 26.3204 10.6292 25.7304 11.3792C25.0404 12.2492 24.1804 12.9792 23.1604 13.4492" fill="#90BEFB"/>
<path d="M132.52 39.8699C131.25 39.0999 130.34 38.1299 129.69 36.8099C128.83 35.0899 128.79 32.5999 129.69 30.8899C130.29 29.7299 130.22 29.7699 131.29 28.7799C132.42 27.7399 133.39 27.4999 133.53 27.0999C133.57 26.9699 133.35 26.6699 133.19 26.6299C132.3 26.3899 131.63 25.7699 131 25.1299C130.1 24.2199 129.39 23.2099 129.19 21.9199C128.88 19.8999 129.09 17.8199 130.44 16.2399C131.22 15.3299 132.14 14.5099 133.23 14.0299C135.16 13.1899 136.4 13.4099 138.28 13.9199C139.22 14.1699 139.9 14.7799 140.6 15.4099C142.71 17.3199 143.48 20.3799 142.31 22.9499C140.69 26.4999 138.3 26.3299 138.25 26.9999C138.2 27.5799 139.35 27.6899 140.27 28.5099C142.23 30.2499 143.26 32.6699 142.68 35.2699C142.31 36.9599 141.27 38.3999 139.94 39.4299C137.85 41.0499 134.66 41.1399 132.52 39.8599" fill="#90BEFB"/>
<path d="M122.42 94.5896C118.61 94.5896 115.53 91.4996 115.53 87.6996C115.53 83.8996 118.62 80.8096 122.42 80.8096C126.22 80.8096 129.31 83.8996 129.31 87.6996C129.31 91.4996 126.22 94.5896 122.42 94.5896Z" fill="#90BEFB"/>
<path d="M135.87 108.02C132.07 108.02 128.99 104.94 128.99 101.13C128.99 97.32 132.07 94.25 135.87 94.25C139.67 94.25 142.75 97.33 142.75 101.13C142.75 104.93 139.67 108.02 135.87 108.02Z" fill="#90BEFB"/>
<path d="M87.2601 57.4595C86.0501 54.8795 83.6201 54.5795 83.6401 54.0995C83.6401 53.9795 83.8301 53.6695 83.9701 53.6095C87.5101 52.1595 87.3501 49.2895 88.0601 49.6095C88.7101 49.8995 88.6801 51.0895 89.6901 51.9895C90.4701 52.6895 91.4401 53.3395 92.3201 53.7295C92.8301 54.6195 91.7301 54.2295 90.5201 55.3195C90.0701 55.7295 89.6701 56.1095 89.2401 56.5795C88.6301 57.2295 88.5401 58.4895 87.8801 58.4395C87.6201 58.3195 87.4301 57.8095 87.2701 57.4595M85.1101 106.86C86.1101 106.11 87.0201 105.19 87.5101 104.03C87.7201 103.51 88.0601 102.91 88.1001 102.38C88.2101 100.79 88.2301 99.4195 87.4901 98.1395C85.7901 95.1995 83.8701 95.0295 83.5901 94.4195C83.5601 94.3395 83.7301 94.1395 83.8601 94.0795C86.0501 93.0995 87.7401 91.1595 88.0901 88.7495C88.1901 88.0395 88.1601 87.2195 88.0801 86.5195C88.0001 85.8895 87.6501 85.2795 87.4401 84.6795C87.3001 84.2895 87.0601 83.9495 86.8101 83.6495C86.0201 82.6795 85.2201 81.8995 84.0501 81.3795C83.9001 81.3195 83.6701 80.9695 83.6901 80.8095C83.7101 80.6495 84.0001 80.5195 84.2201 80.4195C84.8201 80.1595 85.3401 79.7295 85.8601 79.3195C87.9001 77.7295 88.7801 74.2795 87.8301 71.9995C87.1101 70.2695 85.8501 68.6895 84.0601 67.9995C83.9001 67.9395 83.6701 67.6195 83.7001 67.4695C83.8101 66.7495 86.1601 66.8395 87.5601 63.4595C87.6101 63.3495 87.8301 63.1895 87.9501 63.1795C88.0701 63.1795 88.3401 63.3195 88.3901 63.4495C89.0001 65.0595 90.6601 66.6095 92.2801 67.2095C93.8501 67.7995 95.6701 67.7995 97.2301 67.2095C98.2601 66.8195 98.9601 66.1795 99.6901 65.4795C100.89 64.3295 101.45 62.9995 101.59 61.3495C101.76 59.3395 101.05 57.3695 99.5701 55.9395C98.9301 55.3195 98.2701 54.7495 97.3901 54.4295C97.2701 54.3895 97.0701 54.1095 97.0901 53.9895C97.1101 53.8795 97.2901 53.6895 97.4101 53.6295C100.83 52.0995 100.98 49.2995 101.54 49.6195C102.02 49.8895 102.07 51.2495 103.52 52.3595C105.23 53.6795 105.33 53.8295 107.51 54.1095C110.15 54.4395 112.77 53.0295 114.11 50.7795C114.38 50.3295 114.52 49.8595 114.9 49.5195C115.24 49.5395 115.36 49.9295 115.47 50.2195C115.96 51.5895 117.07 52.5195 118.25 53.2895C119.77 54.2795 122.22 54.3695 123.97 53.7795C124.83 53.4895 125.58 52.9095 126.3 52.2995C127.37 51.3795 128.08 50.0495 128.36 48.6795C128.82 46.4695 128.25 44.4595 126.81 42.8195C124.43 40.1195 121.14 39.5995 118.01 41.3895C116.94 42.0095 115.63 43.6195 115.27 44.8195C115.23 44.9495 114.81 45.0295 114.76 44.9195L114.52 44.4695C113.17 41.9695 111.03 40.4395 108.1 40.3095C106.72 40.2495 105.48 40.7595 104.4 41.5095C101.66 43.3995 102.26 44.9595 101.46 44.9595C100.66 44.9595 101.4 42.8995 97.3501 40.8695C94.9601 39.6695 92.3201 40.3995 90.3101 41.9895C88.5901 43.3495 88.6801 44.9195 87.9801 44.8595C87.3301 44.7995 87.4401 42.9295 85.1001 41.5495L84.1901 41.0095C84.0401 40.9195 83.8001 40.6595 83.8201 40.4895C83.9001 39.9295 86.0801 39.7395 87.6901 36.4895C89.3601 33.0995 87.2501 28.7395 83.9001 27.4095C83.7701 27.3495 83.5801 27.1095 83.6101 27.0095C83.8201 26.4095 85.3301 26.3795 86.4701 24.9295C87.2801 23.8995 88.0001 22.8895 88.1501 21.5695C88.2801 20.3195 88.3901 19.0695 87.8401 17.9295C86.0101 14.2295 83.6301 14.2495 83.8301 13.5195C83.9701 12.9895 86.4301 12.7295 87.6601 9.62953C87.7101 9.49953 88.0401 9.36953 88.1601 9.42953C88.8901 9.84953 88.7001 10.4095 89.3701 11.1395C89.8101 11.6095 90.2201 12.0595 90.7101 12.4495C92.0701 13.5595 93.8001 13.9495 95.5701 13.7995C97.9601 13.5995 100.02 11.9195 101.06 9.74953C101.7 8.40953 102.21 10.9195 103.53 12.0295C104.75 13.0695 106.13 13.7695 107.73 13.8195C108.75 13.8495 109.77 13.8195 110.68 13.4195C114.62 11.6295 114.39 8.96953 115.08 9.25953C115.61 9.47953 115.57 10.9295 117.36 12.3195C119.82 14.2295 123.18 14.3995 125.68 12.5495C128.93 10.1495 129.42 6.22953 127.29 3.01953C126.3 1.51953 124.17 0.18953 122.32 0.0495297C117.97 -0.28047 116.64 2.87953 115.92 2.87953C115.76 2.87953 115.5 2.67953 115.36 2.52953C115.02 2.16953 114.55 2.43953 114.25 2.62953C113.7 2.97953 113.43 2.43953 113.12 2.09953C111.71 0.56953 109.34 -0.29047 107.25 0.11953L105.63 0.43953C105.03 0.27953 103.14 -0.31047 102.98 0.54953C102.92 0.89953 103.61 1.17953 103.58 1.58953C103.54 2.33953 102.62 2.66953 101.86 4.36953C101.8 4.49953 101.49 4.70953 101.37 4.64953C100.82 4.32953 101.02 2.40953 97.4801 0.56953C96.7501 0.18953 96.0301 0.0795297 95.1901 0.0795297H94.1301C92.7401 0.0795297 91.0501 1.01953 90.0801 2.03953C89.7601 2.38953 89.3001 2.73953 89.0801 3.17953L88.4501 4.43953C88.4001 4.54953 88.0901 4.67953 87.9701 4.66953C87.4301 4.63953 87.9701 3.93953 86.4001 2.33953C84.8201 0.70953 83.3401 -0.0104703 81.0901 0.0595297C80.0601 0.0895297 79.2101 0.29953 78.2901 0.76953C76.6401 1.60953 75.9801 2.50953 75.1501 4.08953C74.5001 5.31953 74.5201 6.41953 74.6001 7.75953C74.6401 8.49953 74.7501 9.14953 75.0801 9.81953C75.6801 11.0195 76.7101 12.3795 77.9501 12.9295C78.3001 13.0795 78.8101 13.2095 78.9501 13.6495C78.9201 13.8895 78.5001 14.2395 78.2501 14.3295C77.1101 14.7495 76.3901 15.5595 75.7401 16.4895C75.1301 17.3595 74.6401 18.1695 74.5801 19.2795C74.4101 22.3795 74.7201 23.5295 77.1401 25.8095C77.9401 26.5595 79.1301 26.6595 78.9801 27.1395C78.9501 27.2295 78.8001 27.3895 78.6901 27.4395C75.2201 29.0895 73.7601 32.5895 74.8601 36.2995C75.0401 36.8995 75.4501 37.3895 75.8001 37.8695C77.3901 40.0495 78.9101 39.9895 78.9701 40.6295C79.0201 41.1895 77.4601 40.9495 75.9401 43.1795C75.4001 43.9695 74.7801 44.7095 74.6601 45.6895C74.5001 47.0995 74.3901 48.5295 74.9401 49.8195C75.8401 51.9095 76.7301 52.6395 78.7001 53.7095C78.8201 53.7695 79.0001 53.9695 78.9801 54.0895C78.9601 54.2095 78.7801 54.4395 78.6701 54.4795C76.3301 55.3995 74.4201 57.9095 74.5201 60.6195C74.5601 61.4595 74.4701 62.3995 74.8301 63.1795C75.2801 64.1695 75.9301 65.0895 76.6701 65.8495C77.7301 66.9295 79.1201 66.9495 78.9201 67.5995C78.6301 68.4895 77.4701 67.5695 75.2301 71.0895C74.7801 71.7995 74.7001 72.4495 74.6101 73.2495C74.4401 74.7495 74.5101 76.0995 75.2801 77.4195C76.3801 79.2895 76.9801 79.7795 78.8801 80.6595C79.1801 80.7995 78.7501 81.4095 78.4901 81.5095C77.4501 81.9195 76.6001 82.5195 76.0001 83.4495C75.5601 84.1295 75.0601 84.7795 74.7601 85.5295C74.4801 86.2595 74.5801 87.0595 74.5301 87.8195C74.4101 89.5295 74.9701 91.0595 76.2401 92.2095C76.8201 93.0895 77.7301 93.6295 78.7101 94.0495C78.7901 94.0895 78.9401 94.2395 78.9901 94.3295C79.0201 94.3995 78.9101 94.6195 78.8301 94.6595C76.8001 95.8595 76.5401 96.0895 75.2401 97.9495C74.8101 98.5695 74.6901 99.1395 74.6101 99.8795C74.2101 103.35 75.3301 105.63 78.3601 107.39C79.2901 107.93 80.4001 107.98 81.4501 108.02C82.8201 108.07 84.0301 107.7 85.1201 106.88" fill="#90BEFB"/>
<path d="M108.97 81.0893C105.17 81.0893 102.08 78.0093 102.08 74.2093C102.08 70.4093 105.16 67.3193 108.97 67.3193C112.78 67.3193 115.86 70.3993 115.86 74.2093C115.86 78.0193 112.77 81.0893 108.97 81.0893Z" fill="#90BEFB"/>
</g>
</g>
<defs>
<clipPath id="clip0_2561_2226">
<rect width="206.8" height="108.21" fill="white"/>
</clipPath>
</defs>
</svg>
