<svg width="168" height="205" viewBox="0 0 168 205" fill="none" xmlns="http://www.w3.org/2000/svg">
<g clip-path="url(#clip0_2554_10360)">
<mask id="mask0_2554_10360" style="mask-type:luminance" maskUnits="userSpaceOnUse" x="0" y="0" width="168" height="205">
<path d="M167.74 0H0V204.12H167.74V0Z" fill="white"/>
</mask>
<g mask="url(#mask0_2554_10360)">
<path d="M105.66 77.5298L92.8799 89.2398C92.6299 89.4698 92.3399 89.5298 92.0799 89.2498L75.9699 71.6598L65.0799 59.7798C64.7999 59.4798 64.7499 59.1598 64.2799 59.0798C63.3799 58.9298 63.4999 59.4498 62.7299 59.9398C62.6599 59.9798 62.5599 60.1698 62.4799 60.2498L14.8399 103.88C14.5899 104.11 14.5599 104.39 14.1799 104.36C13.5799 104.32 13.4299 103.51 12.8299 103.07C12.5299 102.85 12.3699 102.56 12.1199 102.28L9.05993 98.9398L8.45993 98.3298L7.97993 97.8098C7.42993 97.2198 6.87993 96.6598 6.35993 96.0398C6.16993 95.7998 5.97993 95.6098 5.75993 95.3798C5.45993 95.0798 5.25993 94.6698 4.89993 94.4298C4.60993 94.2298 4.43993 93.8898 4.19993 93.6498C3.79993 93.2598 3.45993 92.8898 3.10993 92.4498C2.83993 92.1198 2.44993 91.8798 2.22993 91.5198C1.77993 90.7798 -0.0100681 89.5598 0.00993191 88.7698C0.00993191 88.5998 0.319932 88.3298 0.459932 88.2298C0.829932 87.9998 1.00993 87.6898 1.33993 87.4198L1.94993 86.9298C2.19993 86.7298 2.33993 86.5898 2.57993 86.3698L47.9999 44.7498C48.2999 44.4798 48.4099 44.2098 48.7799 44.0098C49.0299 43.8698 49.3399 43.4598 49.4299 43.2098C49.6399 42.6198 49.1199 42.3498 48.7899 41.9898L35.3699 27.3398L34.2799 26.1498L24.9499 15.9698L24.5899 15.5798L21.9199 12.6698C21.8299 12.5798 21.6999 12.3098 21.6499 12.2098C21.6199 11.7798 21.9899 11.6998 22.2499 11.4698L34.1099 0.619774C34.1399 0.549774 34.7399 -0.320226 35.1399 0.119774C58.5499 25.5298 81.8999 51.0098 105.21 76.4498L105.66 76.9398V77.5298Z" fill="#90BEFB"/>
<path d="M137.35 177.939L136.3 178.799C136.17 178.909 135.85 179.049 135.68 179.139C135.05 179.459 134.54 179.859 133.94 180.229C133.58 180.459 133.09 180.609 132.7 180.799L131 181.609L129.79 182.019C129.23 182.209 128.68 182.389 128.12 182.559C127.6 182.719 127.09 182.769 126.56 182.889C125.3 183.159 124.08 183.339 122.8 183.299C122.38 183.289 121.97 183.329 121.55 183.349C120.98 183.349 119.48 183.319 118.96 183.239L118.08 183.109L117.46 183.019L116.58 182.899C116.16 182.839 115.76 182.759 115.35 182.629L113.6 182.089L112.08 181.669L111.3 181.349C110.9 181.179 110.52 180.999 110.12 180.829C109.26 180.459 108.39 180.119 107.59 179.599C107.26 179.379 106.87 179.239 106.54 179.039C106.12 178.799 105.75 178.539 105.31 178.359C104.81 178.159 102.34 176.289 102.08 176.119L101.14 175.539C100.84 175.359 99.8903 174.289 99.1503 173.699L98.0403 172.819C97.8403 172.659 97.6203 172.449 97.4503 172.269L96.3903 171.199C95.3403 170.139 94.3503 169.039 93.3703 167.909L92.0503 166.379C91.9303 166.249 91.8203 166.049 91.6803 165.919C91.4103 165.639 91.2903 165.329 91.0903 165.019C90.8603 164.649 90.5803 164.239 90.3003 163.899C89.8003 163.279 89.2503 162.749 88.9103 161.989C88.2303 160.449 88.0803 161.059 87.3803 159.399C87.1803 158.919 86.7703 158.499 86.6203 158.009C86.4703 157.549 86.2303 157.179 86.0503 156.729L85.3703 155.049L84.9503 154.059C84.8103 153.719 84.7103 153.359 84.5903 153.019C84.4403 152.609 84.2803 152.239 84.1903 151.799C84.1203 151.499 83.9103 151.149 83.8803 150.859C83.8403 150.389 83.8003 149.989 83.6703 149.549C83.4103 148.669 83.3403 147.969 83.2503 147.099L83.0903 145.689L83.0503 144.959C83.0303 144.649 82.9803 144.329 82.9903 144.029C82.9903 143.789 82.9703 143.589 82.9603 143.339C82.9403 143.009 83.0003 142.649 83.0003 142.309C83.0003 141.699 83.0703 141.139 83.1303 140.549L83.2703 139.309C83.3003 139.009 83.3803 138.729 83.4703 138.429C83.5903 138.029 83.6103 137.549 83.7603 137.169C83.9503 136.699 84.0203 136.289 84.1403 135.819C84.3103 135.169 84.6403 134.519 84.9003 133.889L85.4303 132.609C85.5103 132.429 85.6303 132.229 85.7403 132.059C86.1103 131.499 86.6903 130.169 87.1803 129.489C87.5903 128.909 88.0603 128.439 88.4203 127.809C88.6103 127.469 88.8803 127.069 89.1803 126.789L92.9803 123.289C93.1203 123.159 93.3803 123.029 93.5103 122.889C94.3103 122.029 94.9703 121.979 96.0103 121.239C96.4203 120.949 96.8503 120.769 97.2703 120.539C97.8603 120.219 98.3803 119.959 99.0303 119.789C99.3303 119.709 99.6603 119.449 99.9403 119.349L101.17 118.919L102.1 118.659C102.55 118.539 103 118.379 103.46 118.289L104.98 118.019C105.6 117.909 106.23 117.869 106.85 117.799C107.44 117.739 107.97 117.779 108.57 117.819C109.06 117.849 109.56 117.849 110.07 117.849C111.06 117.849 112.58 118.039 113.58 118.229L114.86 118.479C115.51 118.609 116.13 118.819 116.76 119.029L119.41 119.949C119.75 120.069 120.09 120.229 120.42 120.379L121.74 120.979C122.28 121.229 122.79 121.539 123.33 121.809L124.08 122.179L125.51 123.079C127 124.019 127.6 124.419 128.99 125.539L130.98 127.129L131.98 128.169L132.74 128.869L133.94 129.949C134.12 130.119 134.27 130.309 134.43 130.499C134.98 131.149 135.54 131.789 136.15 132.359C136.63 132.809 137.03 133.279 137.44 133.789L138.13 134.659L138.57 135.249L139.22 136.049C139.69 136.639 140.21 137.139 140.58 137.789C140.89 138.329 141.21 138.869 141.57 139.369C141.91 139.829 142.13 140.279 142.42 140.769L143.24 142.169C143.36 142.379 143.41 142.689 143.54 142.889C143.92 143.469 144.15 144.059 144.42 144.689L145.02 146.119L145.42 147.119C145.64 147.649 145.78 148.159 145.93 148.699L146.12 149.329L146.6 151.009C146.88 151.979 146.98 152.939 147.11 153.939L147.32 155.559C147.42 156.319 147.42 157.019 147.34 157.789C147.3 158.159 147.36 158.559 147.29 158.929C147.25 159.159 147.22 159.419 147.25 159.649C147.3 160.129 147.21 160.539 147.15 160.999C147.11 161.359 147.06 161.679 146.99 162.029L146.57 164.089C146.48 164.499 146.3 164.909 146.2 165.319C146.1 165.719 146.06 166.089 145.81 166.449C145.66 166.679 145.59 166.939 145.53 167.209C145.47 167.469 145.28 167.729 145.16 167.969C145.03 168.259 144.92 168.549 144.77 168.819L143.89 170.489C143.78 170.699 143.53 170.919 143.45 171.149C143.29 171.579 143.04 171.879 142.78 172.219L141.17 174.319C140.76 174.849 137.96 177.359 137.33 177.889M157.19 190.319C157.45 190.089 158.09 188.999 158.68 188.349C159.97 186.949 159.74 186.849 160.84 185.499C161.13 185.149 161.35 184.749 161.51 184.339C161.95 183.719 162.29 183.089 162.65 182.419C163 181.769 163.39 181.159 163.68 180.489L164.33 178.999L164.77 177.889C165.49 176.089 166.28 173.679 166.66 171.799L166.85 170.869L167.1 169.779L167.2 168.869C167.25 168.419 167.34 168.019 167.41 167.569L167.53 166.749C167.59 166.349 167.64 165.969 167.61 165.559C167.59 165.289 167.63 164.999 167.63 164.729C167.63 164.219 167.6 163.739 167.63 163.219L167.68 162.659L167.73 160.419C167.73 160.079 167.7 159.679 167.67 159.329L167.44 156.929C167.4 156.519 167.35 156.089 167.29 155.689L166.99 153.749L166.58 151.549C166.48 151.009 166.37 150.499 166.22 149.969L165.31 146.769C165.18 146.319 165 145.899 164.89 145.449C164.8 145.089 164.68 144.789 164.55 144.439L163.82 142.489C163.64 141.989 163.48 141.539 163.22 141.059C163.22 141.059 162.54 139.399 162.54 139.389L161.89 138.059C161.64 137.539 161.36 137.079 161.11 136.559L160.37 135.049C160.37 135.049 159.27 133.079 159.29 133.069C158.84 132.609 158.54 132.019 158.25 131.429C157.96 130.839 157.51 130.299 157.1 129.779C156.86 129.469 156.7 129.179 156.49 128.859C155.93 127.999 155.29 127.219 154.68 126.399L153.73 125.119L152.65 123.599C152.23 123.339 152 122.899 151.66 122.529L146.36 116.749L144.97 115.329C144.6 114.949 144.15 114.619 143.75 114.259L142.7 113.329C142.54 113.189 142.3 112.999 142.15 112.849C140.64 111.199 139.68 110.879 138.75 109.909C138.33 109.469 137.79 109.309 137.33 108.939L136.01 107.899L135.4 107.519C135.1 107.339 134.85 107.109 134.54 106.909L133.1 105.959C132.71 105.709 132.34 105.499 131.94 105.269L129.95 104.139L127.73 102.979L126 102.129C125.72 101.989 125.43 101.749 125.13 101.659C124.59 101.499 124.12 101.309 123.59 101.119L122.43 100.699C121.76 100.449 121.15 100.129 120.48 99.8895L119.15 99.4095C118.66 99.2295 118.16 99.1395 117.66 98.9995L115.41 98.3695L114.44 98.1995C113.93 98.1095 113.45 97.9695 112.95 97.8795L111.14 97.5595L109.39 97.3595L108.36 97.2595L105.86 97.1295L104.06 97.0495C103.73 97.0295 103.36 97.0695 103.02 97.0795L101.14 97.1695L100.09 97.2495C99.5303 97.2895 98.9803 97.3995 98.4303 97.4795C97.9403 97.5495 97.4403 97.5595 96.9703 97.6695L95.7603 97.9395C95.4403 98.0095 95.1403 98.0895 94.8103 98.1395C94.5403 98.1795 94.2403 98.2295 93.9803 98.2995L92.7703 98.6495C91.8403 98.9195 90.9303 99.2095 90.0303 99.5495C89.3103 99.8195 88.6103 100.049 87.9203 100.369L86.0703 101.229C84.6303 101.899 83.5403 102.649 82.1803 103.339C82.0103 103.419 81.8403 103.559 81.6803 103.689L80.9303 104.279C80.2203 104.829 79.4003 105.189 78.7403 105.809C78.7003 105.849 78.5703 105.899 78.5403 105.909L73.5103 110.519C73.1903 110.939 72.5003 111.949 72.1403 112.309C71.5303 112.919 71.0603 113.559 70.5603 114.259C70.0203 115.019 69.5003 115.739 69.0103 116.539C68.6903 117.069 68.3703 117.559 68.0803 118.109L67.3903 119.419C67.0403 120.079 66.4103 121.179 66.1603 121.869C65.7303 123.069 65.0403 124.379 64.7703 125.549C64.5903 126.319 64.2903 126.899 64.0403 128.059L63.8603 128.929L63.5803 129.999C63.4703 130.399 63.3703 130.759 63.3203 131.189C63.2703 131.609 63.1803 132.009 63.1003 132.429C63.0303 132.739 63.1003 133.139 63.0103 133.449C62.8303 134.139 62.8103 134.769 62.8103 135.479C62.8103 136.259 62.6203 136.969 62.6303 137.899L62.6503 139.299L62.7203 140.449C62.7703 141.209 62.7003 141.919 62.7803 142.679L63.0503 145.179C63.1103 145.739 63.1703 146.289 63.2703 146.849L63.7103 149.139C63.7803 149.499 63.9103 149.859 63.9503 150.239C63.9903 150.699 64.2203 151.149 64.3003 151.609C64.4003 152.199 64.5903 152.709 64.7603 153.289L65.2003 154.749L65.5503 155.869L66.3103 158.039C66.4503 158.429 66.5503 158.739 66.7703 159.109C66.9903 159.489 67.0703 159.989 67.2603 160.399L67.9203 161.819C68.6003 163.279 67.9003 162.189 68.9403 163.959C69.3303 164.629 69.1803 164.719 69.6103 165.329C70.4303 166.459 70.0003 166.449 71.0103 167.769C71.9203 168.959 71.4003 168.809 72.3303 169.929C73.1103 170.879 72.9703 171.299 74.2103 172.749C74.9003 173.549 75.4003 174.409 75.9603 175.299C76.4103 175.999 77.1103 176.529 77.6003 177.199C77.9103 177.619 78.2203 178.009 78.5703 178.399L84.4103 184.799L84.9603 185.299L85.4503 185.759L87.0603 187.449L88.5503 188.579C89.5903 189.369 90.1003 190.209 91.2603 190.889C91.9203 191.269 92.3903 191.889 93.0203 192.299L94.0103 192.929C94.5003 193.239 94.8903 193.689 95.3803 193.959C96.0303 194.319 96.5903 194.699 97.1703 195.149C97.4403 195.359 97.8403 195.439 98.1103 195.719C98.4403 196.059 98.9003 196.219 99.3003 196.439L100.33 196.979C100.75 197.199 101.13 197.389 101.54 197.619C102.77 198.319 103.82 198.689 104.87 199.279C105.24 199.489 105.59 199.539 105.94 199.699L108.35 200.749C108.99 201.029 109.64 201.229 110.29 201.439L111.37 201.779L112.65 202.169L114.34 202.589L115.37 202.869C115.84 202.999 116.32 203.079 116.8 203.169L118.34 203.469L120.45 203.769L121.64 203.929L122.52 204.019C122.97 204.069 123.41 204.099 123.86 204.099L125.47 204.119L127.13 204.149L128.17 204.049C128.63 203.999 129.07 204.049 129.53 203.989L131.25 203.799L132.29 203.699L134.02 203.409C134.45 203.339 134.82 203.269 135.23 203.139C135.69 202.999 136.17 202.909 136.64 202.799L137.84 202.519C138.05 202.469 138.31 202.359 138.53 202.279L139.85 201.829C140.4 201.639 140.9 201.449 141.43 201.219C141.97 200.979 142.5 200.799 143.01 200.499C143.63 200.359 144.16 200.029 144.72 199.739L146.68 198.699C147.41 198.309 148.12 198.049 148.71 197.419C149.25 196.849 150.13 196.729 150.72 196.199L157.14 190.359L157.19 190.319Z" fill="#90BEFB"/>
</g>
</g>
<defs>
<clipPath id="clip0_2554_10360">
<rect width="167.74" height="204.12" fill="white"/>
</clipPath>
</defs>
</svg>
