<svg width="199" height="219" viewBox="0 0 199 219" fill="none" xmlns="http://www.w3.org/2000/svg">
<g clip-path="url(#clip0_2554_17425)">
<mask id="mask0_2554_17425" style="mask-type:luminance" maskUnits="userSpaceOnUse" x="0" y="0" width="200" height="219">
<path d="M199.01 0H0V218.29H199.01V0Z" fill="white"/>
</mask>
<g mask="url(#mask0_2554_17425)">
<path d="M0.0298482 168.93L2.61985 218.29L11.5198 217.82L8.92985 168.45C8.79985 166.06 10.7898 163.87 13.1898 163.74C15.5898 163.61 17.7998 165.59 17.9198 167.98L19.8498 204.82C20.2398 212.21 26.3298 217.77 34.0998 217.36C41.4898 216.97 47.0498 210.81 46.6598 203.43L44.7298 166.58C44.5998 164.19 46.5898 162 48.9898 161.87C51.3898 161.74 53.5998 163.72 53.7198 166.11L56.3098 215.47L65.2098 215L62.6198 165.63C62.3098 158.26 56.1398 152.7 48.3798 153.11C40.9898 153.5 35.4298 159.67 35.8198 167.04L37.7498 203.89C37.8798 206.28 35.8898 208.47 33.4898 208.6C31.0898 208.73 28.8798 206.75 28.7598 204.36L26.8298 167.51C26.4398 160.14 20.2798 154.58 12.8798 154.97C5.11985 155.38 -0.450152 161.55 0.0198482 168.91L0.0298482 168.93Z" fill="#90BEFB"/>
<path d="M93.8403 171.981L75.1803 151.741L102.42 155.841L93.8403 171.981ZM104.4 167.201C103.64 168.631 101.84 169.181 100.4 168.411C98.9703 167.651 98.4103 165.851 99.1703 164.421C99.9303 162.991 101.74 162.441 103.17 163.201C104.6 163.961 105.15 165.781 104.4 167.191V167.201ZM109.51 193.221C110.33 191.671 110.15 189.831 108.99 188.431C108.92 188.341 108.73 188.131 108.65 188.051L99.7103 178.351L111 157.121L123.94 159.061V159.041C125.97 159.531 127.9 158.661 128.91 156.761C130.02 154.681 129.23 152.001 126.93 150.781C126.36 150.481 125.75 150.321 125.14 150.291L67.6703 143.051C65.8403 142.801 64.0403 143.661 63.1803 145.291C62.2403 147.051 62.6003 149.071 63.7203 150.361L102.09 194.021C102.44 194.441 102.89 194.801 103.39 195.071C105.69 196.291 108.31 195.511 109.52 193.231L109.51 193.221Z" fill="#90BEFB"/>
<path d="M85.8095 111.72C86.4795 110.22 85.8095 108.45 84.2995 107.78C82.7995 107.11 81.0295 107.79 80.3595 109.29C79.6895 110.78 80.3695 112.56 81.8695 113.22C83.3695 113.89 85.1395 113.21 85.8095 111.71M80.3095 84.7502L76.4495 93.4102C69.9195 91.5702 64.0495 94.8302 61.3795 100.84C56.9495 110.79 62.3795 115.66 65.7195 117.15C78.3895 122.79 82.2395 84.8002 104.869 94.8802C116.869 100.22 117.049 112.31 112.099 123.43C107.339 134.13 96.7895 141.12 85.2895 135.92L89.1395 127.26C95.6795 130.25 102.119 126.42 104.879 120.22C109.039 110.87 106.559 105.44 101.259 103.08C87.1195 96.7802 84.4995 135.32 62.8995 125.7C53.5495 121.54 48.1095 111.19 54.1495 97.6302C59.6795 85.2202 71.2795 81.7302 80.2995 84.7602" fill="#90BEFB"/>
<path d="M48.5498 82.0106L56.0198 85.3406L75.1098 42.4706L67.6398 39.1406L48.5498 82.0106ZM71.2698 71.2906L112.85 89.8806L116.51 81.6706L74.8998 63.1406C72.7198 62.1706 70.0498 63.1806 69.0898 65.3506C68.0298 67.7306 69.0898 70.3106 71.2798 71.2806L71.2698 71.2906Z" fill="#90BEFB"/>
<path d="M118.05 70.8305C116.61 71.6305 114.77 71.0905 113.96 69.6305C113.15 68.1705 113.67 66.3305 115.11 65.5305C116.55 64.7305 118.39 65.2705 119.19 66.7305C120 68.1905 119.48 70.0305 118.04 70.8305M127.93 26.4705L97.6602 43.2505L127.69 97.4205L157.96 80.6405C159.91 79.5605 160.75 77.0505 159.59 74.9705C158.51 73.0205 155.95 72.4005 153.99 73.4905L131.52 85.9405L122.44 69.5505L144.91 57.1005C146.86 56.0205 147.7 53.5205 146.54 51.4305C145.46 49.4805 142.9 48.8605 140.94 49.9405L118.47 62.3905L109.42 46.0705L131.89 33.6205C133.84 32.5405 134.68 30.0305 133.53 27.9605C132.45 26.0105 129.88 25.3905 127.93 26.4705Z" fill="#90BEFB"/>
<path d="M162.19 24.6505C158.25 28.0805 152.45 27.6805 149.02 23.7405C145.59 19.8005 146 14.0005 149.95 10.5705C153.89 7.14049 159.69 7.54049 163.12 11.4805C166.55 15.4305 166.14 21.2205 162.19 24.6505ZM130.7 16.4605L171.34 63.2105L178.17 57.2705L160.6 37.0605L191.09 46.0405L199.01 39.1505L168.37 30.1105C175.11 23.5405 175.52 13.2705 169.29 6.11049C162.83 -1.32951 152.02 -2.07951 144.58 4.39049L130.7 16.4505V16.4605Z" fill="#90BEFB"/>
</g>
</g>
<defs>
<clipPath id="clip0_2554_17425">
<rect width="199.01" height="218.29" fill="white"/>
</clipPath>
</defs>
</svg>
