<svg width="548" height="365" viewBox="0 0 548 365" fill="none" xmlns="http://www.w3.org/2000/svg">
<g clip-path="url(#clip0_2559_1079)">
<mask id="mask0_2559_1079" style="mask-type:luminance" maskUnits="userSpaceOnUse" x="0" y="0" width="548" height="365">
<path d="M547.12 0H0V364.26H547.12V0Z" fill="white"/>
</mask>
<g mask="url(#mask0_2559_1079)">
<path d="M533.69 333.46C535.24 336.26 537.38 337.39 536.58 339.54C536.37 340.13 535.55 340.53 534.83 340.8C533.52 341.29 532.38 341.19 530.97 341.11L529.03 340.98C527.36 340.88 523.43 339.05 519.73 341.01C519.33 341.21 519.05 342.15 518.75 342.43C516.23 344.77 516.91 346.06 514.35 347.03C512.19 347.85 511.33 347.84 509.17 345.59C507.85 344.22 506.15 342.75 504.39 342.18C503.11 341.76 502.04 341.85 500.76 342.16L497.14 343L492.27 344.09C491 344.37 489.37 343.67 488.9 342.46C488.12 340.42 491.96 337.57 492.61 335.26C493.59 330.36 489.26 328.75 487.41 326.19C486.72 325.23 487.45 323.84 488.25 323.2C489.8 321.98 491.67 322.11 493.49 322.26L496.78 322.52C498.01 322.61 499.15 322.01 500.26 321.55C501.32 321.11 502.15 320.54 502.96 319.74L505.34 317.44L506.48 316.33C508.37 314.48 510.3 313.94 513.14 313.6C513.79 313.52 515.18 313.81 515.78 314.16L519.29 316.16C520.63 316.92 521.63 318.33 523.29 318.63C524.04 318.77 524.96 319.21 525.68 319.24L528.55 319.37L531.62 318.73L534.53 318.88C535.63 318.94 536.87 320.01 537.11 321.06C537.47 322.66 536.21 323.57 535.4 324.65C534.72 325.54 533.88 326.5 533.37 327.44C532.39 329.27 532.75 331.77 533.7 333.48M492.79 225.37C493.3 222.13 494.3 220.49 497.2 219.03C497.92 218.67 498.69 218.1 499.46 217.82C501.55 217.05 503.87 216.71 506.13 216.58C507.02 216.53 507.75 216.55 508.64 216.35L512.75 217.73C515.08 218.5 516.4 221.53 517.18 223.69C517.12 225.14 517.24 226.54 517.06 227.95C516.9 229.14 516.1 230.34 515.85 231.51L515.24 234.39C514.48 237.99 513.34 238.15 514.15 242.34C514.56 244.4 515.1 246.33 516.08 248.2C516.62 249.23 516.92 250.39 517.62 251.34C518.1 251.99 518.38 252.78 518.77 253.49C520.28 256.18 520.5 259.23 519.02 262.05C518.7 262.65 518.38 263.63 517.82 264.05L515.22 265.94C512.36 268.02 508.79 268.13 505.34 268.15L503.3 268.17C501.92 268.17 498.36 267 497.29 265.37C495.59 262.8 495.55 263.59 495.28 261.81C494.98 259.76 495.14 257.88 495.76 255.92L496.45 253.76C496.64 253.16 496.87 252.51 497.02 251.92L497.87 248.64C498.01 248.13 498.16 247.26 498.17 246.72L498.21 242.06L496.27 237.02L494.49 233.3C494.19 232.68 493.84 232.17 493.64 231.47C492.77 228.5 492.15 229.44 492.8 225.37M546.18 325.47C545.75 324.21 545.22 323.07 544.27 322.07C542.66 320.35 541.02 318.69 539.32 317.06C537.87 315.67 536.97 314.24 536.3 312.28L534.34 306.6C533.23 303.38 531.57 299.96 528.54 298.07C526.87 297.03 523.43 297.11 521.72 298.56C521.3 298.9 520.58 299.29 520.22 299.67C518.97 300.96 518.07 302.52 516.51 303.53C515.97 303.88 515 304.15 514.34 304.37C512.8 304.88 511.17 304.59 509.77 303.77C507.73 302.57 507.33 301.53 505.08 300.33C503.19 299.32 501.47 299.6 499.39 299.96C498.24 300.16 497.16 300.4 496.05 300.74L493.68 301.45C491.56 302.1 490.29 302.58 488.24 302.04C487.03 301.72 487 300.18 487.49 299.2L488.66 296.91L490.09 294.23C491.41 291.74 491.47 292.21 492.19 289.22C492.39 288.36 492.39 286.98 492.19 286.13C491.79 284.48 490.43 283.39 489.41 282.22C488.51 281.2 487.61 280.61 486.38 280.04C485.39 279.58 484.56 278.13 484.36 277.14C484.1 275.85 484.76 274.95 485.91 274.74C486.79 274.59 487.84 274.38 488.62 274.02C492.19 272.35 492.1 275.5 496.14 276.46C498.28 276.97 500.08 277.96 501.54 279.69C502.29 280.58 502.66 281.84 503.1 282.95C503.73 284.54 504.72 285.78 505.54 287.22C506.58 289.04 508.1 290.59 510.46 290.27C512.01 290.07 513.3 289 514.28 287.85C515.89 285.96 516.8 283.85 517.25 281.4L518.17 276.41C518.97 272.12 519.61 267.93 520.71 263.7C521.24 261.68 522.49 260.06 523.33 258.2L525.62 253.14C526.23 251.8 526.75 250.43 527.25 249.04C527.77 247.6 527.84 246.18 527.96 244.66L528.11 243.04C528.28 241.16 527.19 239.3 526.08 237.82C523.92 234.93 522.11 234.44 520.38 231.68C519.44 230.17 519.72 228.37 520.58 226.91L522.69 223.3C523.2 222.42 523.41 220.89 523.42 219.83C523.45 218.22 523.11 216.69 522.94 215.11L522.67 212.49C522.6 211.82 522.92 211.16 523.46 210.93C524.07 210.69 524.87 210.93 525.1 211.69C526.08 214.91 525.19 214.64 526.65 217.63C527.15 218.64 527.57 219.44 528.28 220.36C529.08 221.38 529.38 223.24 527.84 224.55L524.74 227.18C523.76 228.01 522.98 229.46 523.13 230.79C523.28 232.14 526.09 233.33 527.28 233.73C532.8 235.59 530.45 240.28 532.73 244.16C533.22 244.99 534.32 245.65 535.13 245.12C536.33 244.34 536.25 242.86 536.4 241.62C536.81 237.96 536.07 238.22 536.38 234.87C536.48 233.78 537.19 232.59 537.93 231.81L541.15 228.45C541.84 227.74 542.48 226.34 542.58 225.28C542.67 224.24 542.18 222.7 541.6 221.89L539.37 218.77C538.83 218 538.03 217.26 537.39 216.5C534.01 212.42 534 214.26 532.17 209.85C531.6 208.5 530.96 207.19 530.62 205.74C529.94 202.83 529.52 201.43 528.16 198.87C527.6 197.81 527.12 196.66 526.16 195.96C525.28 195.32 524.2 194.86 523.24 195.28C521.71 195.96 521.66 197.41 521.54 198.82C521.45 199.78 521.27 200.82 521.14 201.77C520.84 203.91 519.04 204.99 516.93 204.82C513.63 204.55 510 204.6 508.52 201.31C508.23 200.66 507.65 199.9 507.42 199.27C506.77 197.56 505.98 195.02 503.86 194.38C502.7 194.03 500.93 194.71 499.97 195.31C498.76 196.07 497.68 197.37 497.07 198.64L496.06 200.74L494.88 203.2C494.72 203.53 493.94 206.84 493.8 207.53L493 211.61L492.37 215.04L491.55 218.18C491.33 219.01 491.41 219.87 491.13 220.64L489.86 224.07C489.5 225.03 488.92 225.86 488.49 226.75L486.39 231.23L484.45 236.23C483.46 238.81 482.86 241.4 483.62 244.13C484.59 247.57 489.48 247.66 489.81 249.29C489.92 249.81 489.5 250.5 489.05 250.78L487.12 251.94C486.19 252.49 485.65 253.28 485.06 254.18C483.96 255.83 482.98 257.59 483.2 259.69C483.28 260.46 483.2 261.23 483.18 262.03L483.01 267.35C482.92 270.36 482.28 273.01 480.89 275.64C480.12 277.11 479.5 278.7 478.81 280.28C478.21 281.65 477.54 285.12 477.64 286.6L477.84 289.9C477.93 291.47 478.98 292.77 479.63 294.11C481.08 297.15 482.65 297.15 483.77 303.29C483.92 304.17 483.87 304.93 483.79 305.8L483.59 308.04C483.48 309.29 483.31 310.44 482.86 311.62C481.61 314.82 482.43 317.67 484.07 320.52C485.36 322.75 485.33 325.35 483.36 327.3C481.03 329.61 477.88 331.37 477.67 334.94C477.48 338.07 479.46 340.65 481.81 342.52C485.01 345.08 485.15 343.86 488.41 347.74C489.88 349.49 490.22 351.39 491.37 353.78C491.57 354.19 493.63 358.03 493.72 358.15C494.95 359.8 496.13 361.55 497.7 362.92C499.16 364.19 501.78 364.42 503.58 364.14C505.7 363.81 507.12 362.27 508.35 360.77C509.98 358.81 509.79 358.44 511.77 356.85C513.49 355.47 515.6 355.78 517.36 356.85C519.22 357.99 518.85 358.11 520.89 359.86C522.95 361.63 525.47 362.19 528.16 361.58C529.45 361.28 530.48 360.31 531.47 359.43C532.88 358.17 533.64 356.66 534.36 354.89C534.57 354.35 534.96 353.73 535.13 353.12C535.46 351.89 535.91 350.85 536.34 349.66C537.05 347.67 537.2 344.3 539.39 341.88L542.01 338.99C545.12 335.55 544.91 337.03 546.61 332.8C546.77 332.4 546.92 332.09 547.1 331.85V330.01C546.45 326.49 547.5 329.32 546.17 325.44" fill="#90BEFB"/>
<path d="M330.89 4.13977C330.51 5.62977 328.57 6.82977 326.95 6.42977C325.87 6.15977 324.65 4.95977 324.53 3.83977C324.35 2.15977 325.58 0.749766 326.88 0.00976562H328.71L329.61 0.569766C330.72 1.26977 331.27 2.69977 330.89 4.14977" fill="#90BEFB"/>
<path d="M74.9103 194.05C74.0003 195.36 74.6003 196.92 75.1903 198.2L76.1803 200.27L78.0803 204.93C78.8803 206.9 77.7803 209.36 75.6703 209.88C73.8003 210.35 71.8103 208.28 70.7803 206.87C69.9203 205.71 68.6903 204.51 67.4203 203.8C65.7803 202.89 63.9703 203.77 62.8003 204.95L58.6103 209.16C58.0903 209.68 56.9403 210.26 56.2003 210.09C54.0703 209.61 53.1703 207.21 53.9303 205.27L56.5103 198.68C56.9503 197.55 56.7703 196.33 56.4103 195.22C55.4303 192.3 54.6503 192.84 53.0503 190.18C52.5803 189.41 52.2103 188.47 52.6403 187.6C52.9303 187.01 53.5303 185.92 54.5203 186.09C56.8603 186.48 57.7203 188.1 59.4203 187.25C60.8203 186.55 60.4703 183.26 60.3203 181.67C60.2203 180.58 60.6303 179.42 60.7203 178.33C60.8403 176.94 61.0903 175.78 61.3003 174.4L61.7403 171.38L62.5703 166.91L63.0703 164.96C63.6703 162.61 64.5003 160.21 64.5903 157.75C64.8003 152.16 64.7303 146.71 64.6203 141.12C64.5903 140.03 63.6703 134.14 63.2703 132.86L62.3003 129.79L61.7003 127.93C61.3203 126.72 61.2403 125.61 60.9703 124.35L60.4503 121.91C60.0203 119.93 60.6603 114.04 60.9203 111.9C61.1003 110.38 61.6503 109.16 62.0903 107.74L63.3303 103.8C63.8403 102.17 64.6003 100.46 63.7703 98.73C63.1603 97.45 59.2603 97.59 57.9803 97.72L55.8603 97.95C55.1903 98.02 54.0403 98.6 53.4103 99.03C51.8503 100.09 50.8003 101.61 49.8903 103.29C48.8703 105.17 48.9603 109.65 49.1203 111.92L49.3503 115.58C49.4703 117.41 49.5003 119.5 49.3303 121.28L48.9003 125.95C48.8203 126.78 48.8703 127.78 48.7403 128.61L47.3803 137.08L46.8303 140.16C46.5303 141.79 46.1303 143.24 46.0403 144.88C45.9903 145.66 45.4503 146.72 45.5403 147.52C45.7703 149.63 45.1203 151.46 45.0203 153.49C44.8303 157.42 44.5903 161.33 45.0203 165.22L45.3803 168.54C45.6403 170.86 46.5103 177.78 47.1003 179.65C47.5903 181.21 47.9503 182.67 48.1003 184.31C48.4303 187.87 48.8203 187.34 49.4703 190.66L50.3303 195.08L50.9203 197.75C51.1603 198.85 51.0603 200.07 51.3803 201.23C51.7603 202.67 50.8803 204.5 49.2203 204.37C48.0303 204.28 47.1503 203.12 46.5103 202.23C45.5903 200.92 43.9003 200.67 42.7103 201.83L40.3903 204.09C39.4503 205 38.2903 204.67 37.5103 203.88C34.9403 201.28 37.3003 197.29 37.3403 194.46C37.3603 192.98 37.5303 191.83 37.8603 190.46C38.3403 188.48 38.6603 186.47 39.0003 184.44L39.2803 182.72L39.9803 178.5L40.3603 175.52L40.7103 172.83L41.3603 167.16C41.4703 166.23 41.8103 165.17 41.8203 164.21L41.9003 156.72L42.2703 154.95C41.1703 151.32 42.0903 150.53 41.8803 148.58L41.3703 143.84C41.1703 141.99 40.8703 140.31 40.3903 138.5C40.2603 137.95 40.5003 137.01 40.2403 136.38C39.2303 133.98 38.5403 131.4 38.1703 128.81L37.4603 123.73L37.0703 119.01C36.9203 117.23 36.9403 115.37 37.0503 113.6C37.2003 111.12 36.5603 111.09 37.4703 109.13C37.8803 108.27 38.0003 107.01 38.4403 106.26L40.6203 102.51C41.2403 101.45 41.6103 100.1 40.9803 98.95C40.2803 97.68 38.6003 97.92 37.5003 97.96C35.8003 98.01 34.0203 97.53 32.2903 98.13C31.4103 98.43 30.0303 99.17 29.5403 99.97C27.4503 103.43 27.4503 104.3 27.0903 108.53C27.0903 108.59 27.3703 114.65 27.3003 114.32C27.7103 116.22 27.8603 117.92 27.6903 119.86L27.3203 123.99C27.1403 126.03 26.9403 127.98 26.5603 130.01C26.2503 131.62 25.6903 133.06 25.2603 134.64L24.4603 137.54C24.1503 138.66 23.9103 139.49 23.8703 140.68C23.8203 142.26 23.1103 143.93 23.1803 145.52L23.2803 148.34C23.3603 150.51 22.8803 150.86 23.1503 153.45L23.3603 155.51L23.4403 157.48L23.7903 162.22C23.8603 163.15 24.0103 164.32 24.2603 165.18L25.1603 168.32L26.3803 172.81L27.2203 177.29C27.5003 178.79 27.7903 180.06 27.8603 181.59C27.9003 182.39 28.4003 185.99 28.6803 186.25C28.8803 186.45 29.5803 186.46 29.7903 186.27L31.4303 184.82C32.2103 184.13 33.2503 183.82 34.2803 184.12C35.1603 184.38 36.0403 185.23 36.1803 186.17C36.4103 187.67 35.8703 188.18 35.0203 189.03C33.8603 190.18 32.7503 191.52 31.7603 192.87C30.9403 193.97 31.9103 197 32.6303 198.15C33.4603 199.48 33.8503 200.87 34.4003 202.32L35.4403 205.12C35.9603 206.5 35.9103 208.08 34.8603 209.23C33.8803 210.31 32.1103 210.62 30.6803 210C26.5803 208.23 25.2003 202.79 21.0103 203.69C20.2603 203.85 19.2303 204.02 18.6203 204.61L13.7703 209.31C12.9003 210.15 11.4703 210.21 10.2403 210.08C8.92027 209.94 7.65027 208.69 7.28027 207.44C7.45027 205.09 7.70027 204.73 8.74027 202.44L10.2003 199.22C10.8503 197.78 11.3403 196.37 11.7203 194.79C11.8603 194.18 11.5803 193.37 11.1903 192.89L7.43027 188.11C7.18027 187.78 6.92027 186.87 6.80027 186.48C6.98027 185.92 7.23027 185.21 7.52027 184.73C8.17027 183.63 9.79027 183.27 10.8303 183.84C12.7903 184.9 13.6303 187.14 15.2103 186.09C16.0603 185.53 15.2103 183.08 15.2803 182.25L15.4003 180.35C15.5003 178.87 15.9003 177.38 15.9403 175.9C15.9703 174.18 16.3103 172.76 16.6703 171.1L17.1403 168.92L17.9203 166.24C18.1503 165.48 18.0003 163.39 18.5603 161.74C19.1203 160.03 19.1803 158.2 19.3403 156.39L19.7703 151.6L19.8003 149.77L19.9503 145.95C20.0303 143.99 19.8003 143.1 19.8303 141.15C19.8603 139.48 19.9303 137.85 19.7003 136.17L18.5403 127.8C18.3703 126.56 17.9803 125.25 17.6903 123.99L16.4803 118.7C16.1203 117.13 15.7003 115.62 15.7203 113.98C15.6903 113.58 15.1803 112.75 15.1803 112.34V104.19C16.4403 101.62 16.1003 100.95 18.3703 98.8C18.8203 98.38 19.1803 96.9 18.3503 96.76C17.1403 96.54 15.7203 96.55 14.4603 96.76C12.9803 97.01 11.2303 98.49 11.4803 100L12.0603 103.45L12.6703 106.46C12.8603 107.36 12.8303 108.75 12.6503 109.6C12.3003 111.2 10.3903 111.58 9.16027 111.09C7.23027 110.33 6.22027 108.65 6.61027 106.64C6.76027 105.84 6.53027 104.77 5.68027 104.52C4.75027 104.24 3.76027 104.47 2.72027 104.57C1.93027 104.65 0.830266 103.95 0.420266 103.34C-0.409734 102.1 0.260266 100.99 1.14027 100.15C1.85027 99.47 2.49027 98.99 3.59027 99.1C4.24027 99.17 5.09027 98.68 4.96027 97.88C4.84027 97.18 4.10027 96.72 3.46027 96.36C2.06027 95.56 0.980266 93.82 1.56027 92.18C2.36027 89.96 5.89027 88.73 7.86027 88.56C9.18027 88.44 10.7203 88.64 11.5403 87.27C11.8703 86.71 12.4603 85.65 12.6003 85L13.4303 81.19C13.7803 79.59 13.9503 78.32 15.3703 77.21C15.8203 76.86 16.3603 76.27 16.9303 76.25C18.4503 76.2 19.8903 78.08 20.2503 79.42C21.2303 83.05 21.0803 84.65 22.2303 88.47C22.3803 88.98 24.4903 91.99 25.5803 91.75C29.0403 90.69 29.6103 89.49 30.7403 86.52L32.3503 82.27C32.9003 80.81 33.4003 79.26 34.5903 78.11C34.9603 77.77 35.9203 77.3 36.4103 77.16C38.8703 77.02 40.2703 79.68 40.8103 81.71L41.5003 84.28C41.7403 85.17 42.4203 86.15 42.4803 87.08C42.6703 89.81 43.9203 92.14 45.5703 94.26C45.9003 94.69 46.5003 95.8 47.1603 95.63C50.3903 94.81 52.2203 92.13 52.8903 89.06C53.0803 88.21 53.3103 87.3 53.5603 86.49L54.7603 82.77C55.3003 81.07 56.1203 79.75 57.3903 78.53C58.7203 77.26 60.6203 77.09 61.9603 78.55C64.3003 81.1 65.0503 86.44 65.7603 89.92L66.6003 94.02C66.7203 94.62 67.1703 95.23 67.4803 95.74L68.6303 97.69C69.2103 98.68 69.6503 99.64 70.0803 100.74C70.5503 101.92 71.5503 102.98 71.7503 104.28C71.8903 105.17 72.3003 106.31 72.3003 107.17L72.3203 111.69C72.3203 112.49 72.0003 113.49 72.0703 114.37C72.2303 116.24 71.7403 117.86 71.4703 119.67L70.8803 123.78C70.7803 124.49 70.5103 125.07 70.4303 125.78C70.1303 128.2 68.8703 130.62 68.3103 134.8L67.8803 138.04C67.7303 139.16 67.7803 140.28 67.5303 141.43C67.4003 142 67.5303 142.57 67.5503 143.16L67.6403 156.72L68.0003 159.59C68.3903 162.67 68.8603 165.58 69.5903 168.58C69.7403 169.19 69.6103 170.13 69.9703 170.64C70.5203 171.41 69.9203 172.31 70.1103 172.97C72.1203 179.88 70.6803 177.41 71.5403 182.3C71.7903 183.68 71.9003 185.1 72.6603 186.34C73.3703 187.49 75.6603 185.68 76.5503 185.74C77.8803 185.83 79.1903 187.01 79.4703 188.25C80.0003 190.71 76.6103 191.65 74.9603 194.04" fill="#90BEFB"/>
<path d="M337.84 26.8795C337.86 27.9895 337.16 29.1595 336.29 29.7795L332.13 32.7495C330.68 33.7895 330.12 35.5195 330.39 37.2995C330.53 38.2695 330.48 39.1595 330.41 40.1295C330.29 41.6195 330.41 42.9695 329.07 44.1195C328.68 44.4495 327.93 44.7295 327.46 44.5995C325.74 44.1195 325.71 41.2795 325.57 39.9395C325.35 37.8095 326.03 35.9795 325.01 34.2195C324.66 33.6195 323.91 32.8295 323.35 32.4695L320.08 30.3895C318.83 29.5995 317.61 28.2695 317.74 26.6995C318 23.6795 322.13 22.4595 324.56 19.8895C326.15 18.1995 325.11 12.6995 326.11 10.2095C326.36 9.58954 327.21 8.74953 327.87 8.81953C329.43 8.99953 330.13 10.5795 330.16 11.9595L330.2 14.5695C330.22 16.1495 330.48 18.0595 331.16 19.5095C332.51 22.3795 337.8 22.3595 337.85 26.8595" fill="#90BEFB"/>
<path d="M346.1 28.6994C346.03 29.8794 346.03 30.7794 345.47 31.9494C344.93 33.0794 343.89 34.5194 342.5 34.2994C340.96 34.0694 340.19 32.3794 339.8 31.0894C339.34 29.5794 339.29 28.2894 339.28 26.6794C339.26 24.4894 339.82 22.0494 341.92 20.9494C343.19 20.2994 344.54 21.4294 345.16 22.4494C346.37 24.4894 346.24 26.4594 346.1 28.6994Z" fill="#90BEFB"/>
<path d="M313.89 33.48C313.48 33.96 312.7 34.36 312.16 34.33C310.28 34.24 308.78 30.56 308.97 28.38L309.18 26.09L309.38 24.22C309.51 23.09 310.42 22.03 311.08 21.15C311.77 20.95 312.57 20.65 313.1 21.06C315.96 23.25 315.29 25.42 315.5 26.86C315.84 29.23 315.47 31.64 313.88 33.47" fill="#90BEFB"/>
<path d="M42.4103 70.1995C42.6003 71.4595 41.0903 72.2096 40.1503 72.5396C38.2803 73.1696 30.8703 73.1195 30.8203 69.2795C30.8203 68.7995 31.3103 68.0195 31.8303 67.6995C32.8603 67.0495 34.0803 66.9795 35.2803 66.8395C37.9703 66.5195 42.0903 67.9495 42.4103 70.1995Z" fill="#90BEFB"/>
<path d="M354.13 29.4195C353.39 30.3495 352.39 30.8095 351.22 30.8095C350.15 30.8095 349.32 30.1795 348.48 29.2695C347.85 28.5695 348.09 27.5795 348.2 26.6895C348.35 25.5295 348.89 25.0095 349.83 24.5695C351.36 23.8595 352.62 24.3595 353.76 25.4795C354.86 26.5595 355.23 27.9995 354.12 29.4195" fill="#90BEFB"/>
<path d="M39.1502 61.86C37.9402 63.19 36.4102 63.48 34.9902 62.32C34.1602 61.64 33.3202 60.39 33.3402 59.24C33.3402 58.08 34.0702 57.15 34.8502 56.78C35.9502 56.25 36.8702 56.19 37.8902 56.83C39.6302 57.92 40.6302 60.21 39.1502 61.86Z" fill="#90BEFB"/>
<path d="M307.141 27.8994C306.661 29.1794 305.811 30.4594 304.311 30.9494C303.201 31.3194 301.631 30.6094 301.011 29.8294C299.751 28.2294 300.391 26.5094 301.761 25.4294C303.111 24.3594 304.691 24.2694 306.051 25.5594C306.611 26.0994 306.981 26.9894 307.141 27.8994Z" fill="#90BEFB"/>
<path d="M291.041 144.82C291.811 146.85 293.301 149.89 292.681 152C292.141 153.83 290.491 154.77 288.551 154.12C287.451 153.75 286.241 152.9 285.601 151.86L283.431 148.32C282.831 147.33 282.391 146.49 281.591 145.65C280.141 144.1 279.751 143.24 277.231 143.53C275.901 144.19 275.001 145.44 274.241 146.66L271.101 151.69C270.271 153.02 269.101 154.38 267.841 155.28C266.521 156.21 264.921 155.25 264.021 154.32C263.371 153.65 263.281 153.17 263.311 152.23L263.351 150.67C263.381 149.79 265.591 144.07 266.071 142.97C266.731 141.47 267.361 139.85 267.571 138.24C267.721 136.99 266.561 136.24 265.891 135.52C265.371 134.96 264.971 134.4 264.481 133.8C263.701 132.85 262.691 131.68 262.981 130.27C263.251 128.96 264.461 127.76 265.821 127.44C266.871 127.2 270.311 132.62 271.231 130.49C271.361 130.2 271.531 129.64 271.551 129.28L271.751 125.57L272.471 120.91C272.671 119.61 272.741 118.47 273.081 117.19L274.201 112.97C274.631 111.35 275.241 109.85 275.551 108.21C275.681 107.52 276.311 103.12 276.321 102.67L276.351 89.9602L276.321 88.4902C276.301 87.2002 275.561 81.6802 275.221 80.6802C274.741 79.2502 274.471 77.9902 274.011 76.5602L273.451 74.8002C273.081 73.6502 273.011 72.6002 272.681 71.4602C271.751 68.1902 271.751 64.7702 272.051 61.3602C271.621 59.8402 272.231 55.7402 272.821 54.4102C273.241 53.4802 273.451 52.5702 273.711 51.6002L275.031 46.8002C275.291 45.8402 275.431 45.1002 275.231 44.0802C274.961 42.7502 274.491 41.7802 273.491 40.8602C272.791 40.2202 272.121 39.5802 271.111 39.3702C269.051 38.9502 266.971 38.9502 264.891 39.1102C261.671 39.3602 259.071 41.0602 257.551 43.8302C257.041 44.7602 256.321 45.6802 255.931 46.6302C255.421 47.8802 254.911 48.9302 254.251 50.1002C253.821 50.8602 253.711 51.8802 253.381 52.7002C252.161 55.7602 251.631 58.9402 251.451 62.2502L251.281 65.3002L250.961 68.9402C250.841 70.3202 250.711 71.5302 250.401 72.8702C250.251 73.4602 250.191 74.2002 250.011 74.8102C249.381 76.9402 248.901 78.9902 248.401 81.1302C248.101 82.3902 247.751 83.5902 247.411 84.8302L246.201 89.3802C245.841 90.7102 245.731 91.9802 245.481 93.3702L245.141 95.2102L244.901 99.0902C244.841 100.08 244.871 100.97 244.901 101.96L245.041 107.41L245.181 109.61C245.261 110.93 245.521 112.23 246.031 113.31C247.011 115.41 248.531 120.05 249.031 122.34L249.621 125.07C249.881 126.28 249.961 127.38 249.761 128.66L250.011 129.95C250.091 130.35 250.501 130.94 250.851 131.05C251.281 131.18 251.971 130.96 252.281 130.68L253.751 129.37C254.351 128.83 255.681 128.04 256.531 128.18C257.461 128.33 258.401 129.51 258.721 130.3C259.181 131.46 258.461 132.6 257.731 133.39L255.461 135.86C254.451 136.96 253.781 138.12 254.311 139.69L254.911 141.5C255.131 142.15 255.381 142.77 255.641 143.4L256.511 145.61L258.411 151.28C258.851 152.57 258.331 154.19 257.361 154.94C255.131 156.66 252.721 155.3 251.251 153.13L248.451 148.98C247.301 147.29 246.331 145.51 244.571 144.31C243.741 143.74 242.501 144.18 241.731 144.67C240.521 145.44 239.671 146.4 238.931 147.61C237.541 149.89 236.201 152.16 234.681 154.31C233.921 155.4 232.771 155.81 231.561 155.74C230.301 155.67 229.421 155.24 228.731 154.2C228.251 153.47 228.011 152.59 228.291 151.64C228.821 149.85 229.311 148.08 229.961 146.35L231.201 143.08C231.741 141.65 232.681 140 232.491 138.42C232.151 135.48 228.041 134.29 228.171 131.7C228.241 130.28 229.351 128.68 230.571 128.11C231.591 127.63 232.741 128.59 233.281 129.24L234.321 130.52C234.741 131.03 235.631 131.35 236.161 130.79C237.141 129.77 236.711 128.22 236.971 125.72L237.171 123.71C237.301 122.5 237.351 121.38 237.541 120.18C237.671 119.42 237.861 118.72 237.981 117.95L238.641 113.96V113.9V113.93C238.761 113.56 240.661 104.69 240.661 104.63C240.901 103.62 241.101 102.76 241.161 101.68L241.321 98.4202C241.391 97.1502 241.591 95.8502 241.751 94.5602C242.221 90.8302 241.491 92.0402 241.751 88.8702C241.791 88.3002 241.771 87.7902 241.751 87.2202L241.651 81.9402L241.121 78.9002C240.841 77.2602 240.961 75.7802 240.501 74.1802C240.121 72.8602 239.901 71.5002 239.631 70.1102C239.411 68.9402 239.011 67.8102 238.641 66.6402C238.381 65.7902 238.291 64.7902 238.091 63.8902L237.451 61.0602C236.711 57.7902 236.591 55.1702 236.641 51.8502L236.661 50.5602L236.741 48.3302L236.951 44.2302C236.981 43.5702 237.121 42.6702 237.541 42.1402L239.351 39.8302C239.561 39.5602 239.401 38.7602 239.151 38.5802C238.831 38.3502 238.241 38.1402 237.821 38.2102L233.721 38.8702C232.481 39.0702 231.381 39.7202 230.341 40.3602C228.331 41.6102 228.941 43.8402 229.521 46.2002L230.411 49.8102C230.661 50.8002 230.481 52.1002 230.471 53.2202C230.471 54.6602 229.291 56.0402 227.841 56.1602C227.111 56.2202 226.301 55.5302 225.871 54.9902C224.611 53.3902 224.431 51.4602 223.881 49.5802C223.511 48.3002 221.761 48.4502 220.801 48.7602C219.081 49.3102 217.281 49.3002 216.301 47.6602C215.611 46.5002 216.111 45.1002 217.091 44.2802C219.071 42.6302 220.531 42.9602 221.411 41.5202C222.091 40.4002 218.881 38.7002 220.101 35.9302C220.681 34.6402 221.811 33.9302 223.061 33.5602L226.021 32.6702C229.881 31.5102 233.521 31.4302 234.011 27.5902C234.111 26.7702 234.381 25.9802 234.601 25.1702C235.441 22.1102 234.751 21.4702 236.321 19.9202C237.391 18.8702 238.961 18.5302 240.121 19.8202C241.771 21.6602 242.521 24.1902 242.861 26.6402L243.181 28.9902C243.381 30.4502 243.841 31.8902 244.281 33.3402C244.661 34.5902 246.311 34.1102 248.751 35.9702C249.801 36.7602 249.821 37.9302 249.931 39.1402C250.231 42.6502 249.361 44.2102 247.651 47.1502C247.401 47.5702 247.721 48.3902 248.141 48.5102C248.551 48.6402 249.211 48.4102 249.501 48.0202L251.091 45.8702C251.751 44.9702 252.251 43.7202 252.681 42.6402L254.081 39.1602C254.421 38.3002 254.711 37.4902 255.111 36.6702C255.731 35.3602 256.031 33.9302 256.481 32.5502L258.751 25.6502L260.821 19.5902C261.551 17.4702 264.361 13.7402 267.381 15.4002C270.241 16.9802 271.101 19.5202 272.391 22.5502C272.651 23.1402 273.141 23.7902 273.351 24.3602L274.511 27.5102L275.751 31.4102L277.351 36.5702C278.561 40.4802 280.611 43.9502 282.811 47.3602C283.651 50.3402 284.331 53.2102 284.611 56.3402C284.611 56.3402 284.411 61.2902 284.361 61.7702L283.991 66.2802C283.851 67.9502 283.551 69.5302 283.171 71.1802L282.421 74.5002L281.441 78.0502C281.221 78.8702 281.061 79.7202 280.861 80.5902C280.601 81.7002 280.651 82.8002 280.481 83.9202L280.151 85.9902C279.891 87.6602 279.881 89.2102 279.771 90.9002L279.651 92.5702L279.871 95.1302L279.841 98.2302C279.821 101.14 280.091 101.39 280.021 103.36C279.991 104.38 280.561 105.45 280.661 106.46C280.921 109.06 281.311 109.2 282.051 112.04C282.251 112.79 282.361 113.6 282.541 114.36L283.511 118.44L284.111 122.16L284.651 127.14C284.751 128.1 284.561 129.14 285.141 129.99C285.411 130.38 286.521 130.27 286.801 129.93C287.761 128.79 288.701 127.71 290.281 127.41C291.571 127.16 293.451 128.59 293.301 129.81C293.091 131.5 291.931 132.4 290.901 133.37C289.711 134.49 288.171 136.67 288.781 138.51L290.221 142.82L290.951 144.77L291.041 144.82Z" fill="#90BEFB"/>
<path d="M449.79 253.24C450.56 255.27 452.05 258.31 451.43 260.42C450.89 262.25 449.24 263.19 447.31 262.54C446.21 262.18 444.99 261.32 444.36 260.28L442.19 256.74C441.59 255.75 441.14 254.91 440.35 254.07C438.9 252.53 438.5 251.65 435.99 251.95C434.59 252.63 433.71 253.94 432.91 255.2L429.92 259.98C429.07 261.35 427.9 262.76 426.58 263.68C425.27 264.61 423.67 263.65 422.76 262.72C422.11 262.05 422.03 261.57 422.05 260.63L422.09 259.07C422.12 258.19 424.33 252.47 424.81 251.37C425.47 249.87 426.11 248.25 426.31 246.64C426.46 245.39 425.3 244.64 424.64 243.92C424.111 243.36 423.71 242.8 423.23 242.2C422.44 241.25 421.44 240.08 421.73 238.66C422 237.35 423.22 236.15 424.57 235.83C425.62 235.59 429.07 241 429.98 238.88C430.11 238.58 430.29 238.04 430.3 237.67L430.5 233.96L431.22 229.3C431.42 228 431.49 226.86 431.83 225.58L432.96 221.36C433.39 219.74 434 218.24 434.3 216.6C434.43 215.91 435.07 211.51 435.07 211.06L435.11 198.35L435.09 196.88C435.06 195.59 434.33 190.07 433.98 189.07C433.5 187.64 433.23 186.38 432.77 184.95L432.21 183.19C431.86 182.09 431.8 181.08 431.49 180C430.51 176.69 430.51 173.22 430.81 169.74C430.38 168.22 430.99 164.12 431.58 162.79C432 161.86 432.21 160.95 432.48 159.98L433.79 155.18C434.05 154.22 434.2 153.48 433.99 152.46C433.73 151.13 433.26 150.16 432.26 149.24C431.55 148.59 430.88 147.96 429.87 147.74C427.82 147.31 425.73 147.31 423.65 147.48C420.44 147.73 417.84 149.42 416.31 152.2C415.81 153.13 415.08 154.05 414.69 155C414.18 156.25 413.68 157.3 413.01 158.48C412.58 159.24 412.471 160.26 412.14 161.08C410.92 164.14 410.39 167.32 410.21 170.63L410.04 173.68L409.72 177.33C409.6 178.65 409.46 179.81 409.19 181.11L408.76 183.2C408.54 184.3 406.63 191.53 406.22 193.07L404.96 197.77C404.6 199.1 404.5 200.37 404.25 201.76L403.91 203.6L403.66 207.48C403.6 208.47 403.64 209.36 403.66 210.35L403.81 215.8L403.95 218.09C404.03 219.26 404.26 220.52 404.77 221.63C405.81 223.92 407.28 228.39 407.79 230.73L408.39 233.46C408.65 234.67 408.72 235.77 408.53 237.05L408.79 238.33C408.88 238.74 409.28 239.34 409.63 239.44C410.07 239.57 410.74 239.36 411.07 239.07L412.53 237.76C413.13 237.22 414.47 236.43 415.32 236.57C416.24 236.72 417.19 237.9 417.5 238.69C417.97 239.85 417.24 240.99 416.51 241.78L414.23 244.25C413.22 245.35 412.55 246.51 413.08 248.08L413.68 249.89C413.89 250.54 414.16 251.16 414.4 251.79L415.28 254L417.18 259.67C417.61 260.96 417.09 262.59 416.13 263.33C413.9 265.05 411.49 263.69 410.02 261.52L407.21 257.37C406.07 255.68 405.1 253.89 403.33 252.7C402.5 252.13 401.27 252.57 400.5 253.06C399.29 253.83 398.43 254.79 397.7 256C396.31 258.28 394.96 260.55 393.45 262.69C392.68 263.78 391.53 264.19 390.32 264.12C389.06 264.05 388.18 263.62 387.49 262.58C387.01 261.85 386.77 260.97 387.05 260.02C387.58 258.23 388.08 256.46 388.72 254.73L389.96 251.46C390.5 250.04 391.44 248.38 391.26 246.81C390.91 243.89 386.97 242.77 386.93 240.21C386.91 238.77 388.08 237.09 389.34 236.5C390.35 236.02 391.51 236.98 392.04 237.63L393.08 238.92C393.45 239.37 394.29 239.7 394.81 239.28C395.92 238.35 395.47 236.64 395.73 234.11L395.93 232.1C396.05 230.89 396.1 229.77 396.29 228.57C396.42 227.81 396.61 227.11 396.74 226.34L397.39 222.35V222.29V222.32C397.51 221.96 399.41 213.12 399.41 213.03C399.66 212.02 399.85 211.16 399.91 210.08L400.08 206.82C400.15 205.54 400.34 204.25 400.5 202.96C400.98 199.23 400.25 200.44 400.5 197.27C400.54 196.7 400.52 196.19 400.5 195.62L400.4 190.34L399.87 187.3C399.58 185.66 399.7 184.18 399.24 182.58C398.86 181.26 398.64 179.9 398.38 178.51C398.15 177.34 397.76 176.21 397.39 175.04C397.13 174.19 397.04 173.19 396.84 172.29L396.2 169.46C395.45 166.19 395.33 163.57 395.38 160.25L395.41 158.96L395.48 156.73L395.69 152.63C395.73 151.97 395.87 151.07 396.28 150.54L398.09 148.23C398.3 147.96 398.15 147.16 397.9 146.98C397.58 146.75 396.98 146.54 396.57 146.61L392.47 147.27C391.22 147.47 390.12 148.12 389.08 148.76C387.07 150.01 387.68 152.24 388.26 154.6L389.16 158.21C389.41 159.2 389.23 160.5 389.22 161.62C389.22 163.06 388.03 164.44 386.59 164.56C385.87 164.62 385.05 163.93 384.63 163.39C383.36 161.79 383.19 159.86 382.64 157.98C382.27 156.7 380.52 156.85 379.56 157.16C377.84 157.71 376.04 157.7 375.06 156.06C374.37 154.9 374.86 153.5 375.85 152.68C377.83 151.03 379.3 151.36 380.17 149.92C380.85 148.8 377.64 147.1 378.87 144.33C379.44 143.04 380.57 142.33 381.83 141.96L384.79 141.07C388.66 139.91 392.3 139.83 392.78 135.99C392.88 135.17 393.15 134.38 393.37 133.57C394.22 130.51 393.52 129.87 395.1 128.32C396.17 127.28 397.74 126.93 398.9 128.22C400.55 130.06 401.3 132.59 401.63 135.04L401.95 137.39C402.15 138.85 402.61 140.29 403.06 141.74C403.44 142.99 405.1 142.51 407.53 144.37C408.58 145.16 408.61 146.33 408.71 147.54C409.02 151.05 408.15 152.61 406.43 155.55C406.19 155.97 406.51 156.79 406.92 156.91C407.33 157.04 408 156.81 408.29 156.42L409.87 154.27C410.53 153.37 411.03 152.12 411.47 151.04L412.86 147.56C413.21 146.7 413.5 145.89 413.89 145.07C414.51 143.76 414.81 142.33 415.27 140.95L417.53 134.05L419.61 127.99C420.33 125.87 423.14 122.13 426.17 123.8C429.03 125.38 429.89 127.92 431.18 130.95C431.43 131.54 431.93 132.19 432.13 132.76L433.29 135.91L434.53 139.81L436.14 144.97C437.35 148.88 439.4 152.35 441.59 155.76C442.42 158.69 443.08 161.49 443.38 164.58C443.4 164.71 443.2 169.52 443.15 170.17L442.78 174.68C442.64 176.35 442.35 177.93 441.97 179.58L441.21 182.9L440.28 186.3C440.06 187.11 439.89 187.97 439.69 188.82C439.43 189.99 439.46 191.13 439.27 192.33L438.94 194.39C438.68 196.06 438.68 197.61 438.56 199.3L438.45 200.97L438.67 203.53L438.64 206.63C438.611 209.51 438.88 209.84 438.82 211.76C438.78 212.84 439.41 213.95 439.48 215.01C439.55 216.06 439.72 216.81 440.03 217.74C440.89 220.27 440.79 220.49 441.33 222.77L442.3 226.85L442.9 230.57L443.44 235.55C443.55 236.51 443.36 237.55 443.94 238.4C444.21 238.79 445.3 238.68 445.6 238.33C446.59 237.17 447.6 235.99 449.24 235.81C450.43 235.67 452.16 236.98 452.09 238.12C451.97 239.82 450.74 240.8 449.7 241.78C448.5 242.91 446.96 245.08 447.58 246.92L449.02 251.23L449.75 253.18L449.79 253.24Z" fill="#90BEFB"/>
<path d="M355.35 191.51C353.5 195.23 350.68 197.45 350.6 202.45C350.58 203.67 351.15 204.99 351.76 205.93L354.08 209.59C354.61 210.42 355.27 211.59 355.25 212.61C355.2 214.65 353.22 216.03 351.39 215.78C350.23 215.63 349.04 215.71 348.06 215.17L344.62 213.27C341.83 211.74 339.13 210.16 336.22 208.87C333.99 207.88 331.81 207.51 329.45 207.2C327.62 206.95 326.06 206.94 324.22 207.43C323.51 207.62 322.7 207.77 321.98 208.03L319.78 208.79C318.75 209.15 317.95 209.59 317.06 210.06C314.73 211.28 312.54 212.48 310.36 213.97C308.76 215.07 306.9 215.98 305.02 216.02C303.46 216.04 302.14 214.87 301.98 213.33C301.78 211.34 303.3 209.39 304.07 207.07C304.51 205.75 305.1 204.47 305.29 203.05C305.66 200.43 304.96 199.01 303.82 196.62C302.42 193.72 298.31 191.11 300.76 188.07C301.77 186.81 303.55 186.72 305.08 187.27C308 188.32 308.54 190.94 312.97 193C313.29 193.15 314.15 193.25 314.53 193.21L317.21 193.02C317.98 192.97 319.2 192.21 319.73 191.61C321.32 189.83 322.14 187.68 322.47 185.35C322.7 183.72 323.27 182.22 323.61 180.61L324.39 176.9C324.58 176 324.71 175.05 324.84 174.12L325.2 171.61C325.4 170.23 325.81 168.81 325.82 167.45L325.84 165.14L326 161.71C326.13 158.97 326.32 159.9 326.25 156.8C326.23 155.92 326.38 155.01 326.23 154.1C326.04 152.92 326.13 151.73 326.37 150.53C326.57 149.52 326.45 148.63 326.41 147.65C326.29 145.01 326.31 142.41 326.41 139.77L326.47 138.1C326.51 136.87 326.9 135.79 326.41 134.52C326.1 133.75 326.25 132.98 326.28 132.17C326.37 130.26 326.37 128.41 326.31 126.49C326.28 125.96 326.11 125.25 326.05 124.7L325.62 120.82L324.3 113.98L323.34 110.76L322.78 107.68C322.61 106.77 322.36 105.94 322.13 105.06L320.98 100.86C320.78 100.17 320.23 99.05 319.47 99.02L315.93 98.86C314.5 98.79 312.73 99.35 311.48 100.01C310.72 100.42 307.61 103.84 305.2 105.13C304.39 105.56 303.06 105.61 302.15 105.42C301.66 105.18 300.94 104.6 300.54 104.26C299.54 103.44 299.77 102.43 300.34 101.52C300.77 100.84 301.16 100.2 301.73 99.65C303.44 97.99 306.11 95.04 304.58 92.67C303.61 91.17 302.53 89.99 301.39 88.68C300.97 88.2 299.74 86.18 300.14 85.18C300.73 83.73 304.21 82.18 306.83 83.69C310.59 85.86 312.7 88.99 315.94 89.44C318.23 89.76 320.38 89.68 322.35 88.43C322.71 88.21 323.41 88.07 323.81 87.89L328.76 85.5C330.92 84.45 333.09 84.06 335.52 84.4C336.17 84.49 337.08 85.06 337.67 85.43C340.64 87.3 339.57 92.62 338.79 95.5C338.39 96.98 338.31 98.58 337.74 99.96C337.32 100.97 337.2 101.74 337.08 102.87C336.97 103.88 336.38 105.03 336.11 106.06L334.93 110.74L333.83 115.17L332.97 118.61L332.64 121.58C332.45 123.3 331.71 124.85 331.57 126.55L331.27 130.33C331.19 131.5 331.21 132.54 330.9 133.66C330.61 134.69 330.63 135.67 330.75 136.73C330.85 137.61 330.75 138.45 330.71 139.33C330.59 142.16 330.69 144.93 330.75 147.74L330.9 154.58L330.95 156.22L331.01 158.29C331.04 159.42 331.18 160.56 331.27 161.73L331.5 164.56C331.5 164.43 332.34 171.95 332.15 171.38L332.81 174.35C333.03 175.32 333.3 176.11 333.39 177.1L333.58 179.53C333.7 181.02 334.29 182.22 334.36 183.72C334.45 185.64 335.23 187.37 335.69 189.28C336.12 190.97 337.6 192.6 339.44 193.01C340.73 193.3 342.99 193.21 344.33 192.3C347.54 190.14 348.22 187.84 351.77 186.83C353.13 186.45 354.26 187.17 355.03 187.98C355.92 188.91 355.94 190.37 355.36 191.53" fill="#90BEFB"/>
<path d="M300.46 73.2797C300.54 75.3497 297.99 76.8597 296.2 76.2897C294.87 75.8597 293.61 74.3797 293.78 73.0897C294.01 71.2997 295.5 69.5897 297.31 69.7497C298.87 69.8797 300.39 71.5897 300.46 73.2797Z" fill="#90BEFB"/>
<path d="M295.62 48.4001C294.58 48.1801 293.83 47.1701 293.27 46.4401C292.51 45.4601 292.7 44.3301 293.58 43.5301C295.03 42.2101 295.99 41.1901 298.11 42.6001C298.78 43.0501 299.44 43.7601 299.55 44.3501C299.92 46.1701 297.95 48.9001 295.63 48.4001" fill="#90BEFB"/>
<path d="M199.74 94.6493C199.54 97.4593 200.14 97.7393 198.72 100.349C197.1 103.349 195.86 106.449 195.28 109.999C194.33 112.479 194.32 113.909 194.05 116.149L193.44 121.209C193.01 124.749 192.04 126.749 190.04 129.059C188.66 130.659 186.69 131.709 184.83 131.989L182.62 132.329C181.5 132.499 180.42 132.599 179.31 132.259C177.55 132.689 175.83 132.499 174.11 131.919C172.42 131.339 171.81 130.889 171.1 128.859C170.77 127.919 170.56 127.079 170.78 126.009C171.44 122.819 172.05 121.889 172.74 119.229C173.5 116.269 173.34 112.889 173.33 109.759C172.96 108.099 172.53 106.429 172.43 104.709L172.28 102.439C172.1 99.6693 172.19 99.3593 173.22 97.1193C174.55 95.2793 176.49 94.5993 178.37 94.5793C179.45 94.3893 180.46 94.3993 181.49 94.5093L183.42 94.4093C184.84 94.3393 186.39 94.5393 187.65 93.5793C188.35 93.0393 188.88 92.0193 189.53 91.3893C191.57 89.3893 190.03 89.0193 192.95 87.4593C194.43 86.6693 195.99 85.2093 196.91 87.0593L198.13 89.4993C198.9 91.0493 199.88 92.6593 199.74 94.6193M216.92 115.639C215.67 114.259 213.95 116.319 212.54 115.369C211.6 114.729 211.61 113.329 211.56 112.119C211.51 110.839 210.86 109.389 210.01 108.769C208.96 107.999 207.78 108.879 207.3 110.109C207.04 110.769 206.72 111.599 206.83 112.349L207.81 118.359L208.47 122.569C208.76 124.439 208.47 126.059 207.91 127.799C207.52 128.979 207.23 130.319 206.59 131.329C205.86 132.469 203.26 133.229 202.55 131.629C202.35 131.169 202.53 130.249 202.92 129.869L204.4 128.359C205.49 127.249 206.02 125.899 205.93 123.999C205.88 123.039 205.96 121.929 205.96 120.929C205.96 119.519 205.6 118.049 205.47 116.599C205.41 115.859 205.25 115.309 205.13 114.589L204.81 112.759C204.74 112.519 203.73 107.909 203.73 107.869C203.25 106.089 202.94 104.369 202.63 102.539C202.32 100.709 202.07 99.0193 202.09 97.0393L202.11 95.2393L202.19 89.2493L202.23 87.9093C202.3 85.3693 202.75 82.8793 203.32 80.3993L204.28 76.1893C205.44 71.0993 205.91 67.7993 205.74 62.5093C205.71 61.5193 206.04 60.4793 205.82 59.3993C205.46 57.6093 205.21 55.8293 204.72 54.1393C204.02 51.7593 203.24 49.6993 202.07 47.6393C199.25 42.6893 196.57 35.3793 193.96 31.2593C193.18 30.0293 192.48 28.7093 191.55 27.7193C190.89 27.0293 190.31 26.3393 189.61 25.6893C188.42 24.5693 186.77 23.9893 185.24 23.7093C183.71 23.4193 182.31 24.7893 181.15 25.8993C179.14 27.8093 178.47 29.1493 177.16 31.7093L174.56 36.8193L172.51 40.8493C172.13 41.6093 171.58 42.2393 171.15 42.9193C170.6 43.7793 170.2 44.7793 169.6 45.5893C169.04 46.3393 168.63 47.2093 168.27 48.1293C167.25 50.7093 166.78 53.2793 166.67 56.1893C166.64 57.0793 166.71 58.1493 167.13 58.9193C167.64 59.8393 168.11 60.7593 168.67 61.5793C169.55 62.8593 170.6 63.8493 171.15 65.4693C171.37 66.1093 171.39 67.1293 171.45 67.8693L171.75 71.7093C171.84 72.8493 171.75 74.0293 172.39 74.9893C172.77 75.5693 173.64 76.3293 174.23 76.2693C175.56 76.1093 176.14 74.5593 176.33 73.1093L176.64 70.7193C176.77 69.7093 176.54 68.5293 176.93 67.6393C177.57 66.1493 178.53 65.1793 179.59 64.1593C180.62 63.1593 181.56 61.4093 181.47 59.6693C181.38 58.0593 180.14 56.9393 179.24 56.1893L177.57 54.7993C176.61 53.9993 176.42 51.9793 176.89 50.6893C177.41 49.2393 177.13 48.0493 177.19 46.5093L177.29 43.7293C177.32 42.9693 177.44 42.2893 177.85 41.8893C179.1 40.6693 181.29 42.5993 182.97 43.4693C184.72 44.3693 186.51 43.7793 188.32 43.5993C189.67 43.4693 191.02 43.5093 192.35 43.5793C193.47 43.6493 194.37 44.3493 195.22 45.1393C196.01 45.8693 196.54 46.7093 196.81 47.9793C196.93 48.5293 197.2 49.5593 197.1 50.1393L196.56 53.4493L196.11 56.2593C195.91 57.5093 195.86 58.7793 195.79 60.0993C195.73 61.1193 195.87 62.3393 195.88 63.4793C195.89 65.1793 196.27 66.8393 196.44 68.5193C196.78 71.7893 196.85 69.7193 196.91 72.3693C196.93 73.3693 197 74.3993 196.42 75.1693C195.88 75.8793 195.04 76.0693 194.25 75.8393L192.96 75.4793L190.52 74.7793C188.5 74.2093 186.55 74.2893 184.54 74.4893C182.15 74.7293 180.08 75.8893 178.38 77.9593C176.69 79.9993 175.6 81.1793 174.36 83.8693L171.83 89.2993L170.46 92.5593L169.46 94.9393L167.46 99.0393C166.86 100.279 166.36 101.519 165.85 102.799C164.85 105.239 164.14 107.679 163.76 110.399C163.57 111.809 163.12 113.349 163.17 114.769C163.21 116.029 163.91 120.639 164.22 121.699L164.8 123.729C165.07 124.649 165.4 125.599 165.84 126.399C166.32 127.259 166.56 128.309 166.97 129.189C167.99 131.389 168.85 133.469 169.4 135.939L170.32 140.029L171.72 145.699L173.67 152.639C173.84 153.249 174.27 153.959 174.48 154.569C175.01 156.129 175.86 157.379 176.92 158.319C179.32 160.459 182 158.969 183.25 156.259L185.64 151.069L188.05 144.269L189.07 141.939C191.22 136.999 195.26 135.189 197.37 132.239C197.54 131.999 198.12 131.799 198.37 131.899C198.61 131.989 198.86 132.519 198.94 132.909C199.64 136.029 200.38 136.839 200.65 139.449L200.91 141.929L201.24 145.539L201.27 146.969L201.53 149.739C201.69 151.419 201.94 153.009 202.18 154.699C202.47 156.689 203.11 158.679 204.81 159.259C206.33 159.009 207.52 155.719 207.7 154.049L208.14 149.999L208.47 146.559L208.81 143.349C208.9 142.519 209.01 141.749 209.14 140.919L210.14 134.149C210.34 132.799 213.07 127.559 213.84 126.209L215.59 123.169C216.56 121.469 217.46 119.749 217.67 117.579C217.74 116.809 217.25 116.059 216.89 115.669" fill="#90BEFB"/>
<path d="M188.971 78.0297C188.971 80.1297 187.261 81.8397 185.161 81.8397C183.061 81.8397 181.351 80.1297 181.351 78.0297C181.351 75.9297 183.051 74.2197 185.161 74.2197C187.271 74.2197 188.971 75.9297 188.971 78.0297Z" fill="#90BEFB"/>
<path d="M132.44 90.3094C130.59 94.2194 125.02 94.5094 121.19 94.7994L118.54 94.9994C113.49 95.3694 115.35 94.8694 112.22 94.7894L108.17 94.6794C106.73 94.6494 104.22 94.1694 102.77 93.7494C101.27 93.3094 99.87 91.9994 99.22 90.6794C98.56 89.3394 97.16 84.4194 98.03 83.0794C97.33 81.8394 98.12 80.6694 98.26 79.4294C98.4 78.1694 98.63 77.0794 99.06 75.9494C99.43 74.9794 99.68 74.0694 100.3 73.2294C101.57 71.4994 102.8 69.5794 104.8 68.6094C106.26 67.9094 107.87 67.3394 109.4 66.9094C111.86 66.2194 114.24 66.4294 116.71 66.5494C118.1 66.6194 119.37 66.5894 120.71 66.8594C122.04 67.1294 123.33 67.3894 124.52 67.9794C126.26 68.8594 127.73 69.9294 129.17 71.3294C130.86 72.9594 131.75 75.1894 132.63 77.4194C133.44 79.4894 133.45 81.6894 133.45 83.9294C133.45 86.1394 133.4 88.2894 132.45 90.3094M151.56 100.659C150.89 99.2694 150.01 98.2594 148.99 97.0794L147.57 95.4494C145.79 93.4094 144.2 91.3594 142.7 89.0994L139.35 84.1094C138.96 83.5194 138.55 82.7894 138.26 82.1594L136.15 77.4994C135.99 77.1394 134.64 72.5994 134.53 71.9594L133.66 66.7094C133.41 65.2294 133.02 63.7894 132.89 62.2794C132.75 60.6894 131.89 57.3894 131.2 56.0194L129.34 52.3194C129.13 51.9094 128.5 51.2694 128.19 50.8594C125.2 47.0694 126.24 48.1194 122.52 45.6994C121.53 45.0594 120.22 44.7094 119.02 44.3394C117.65 43.9194 116.22 44.3594 114.83 44.5294L113.01 44.7394C108.9 45.2194 105.18 48.5694 103.15 52.0594L101.43 55.0194C100.03 57.4194 100.64 57.5294 99.64 59.3394C98.84 60.8194 98.3 62.3194 97.96 63.9794C97.56 65.8994 96.71 67.6194 96.18 69.4994L95.43 72.1494L94.87 74.2894L93.99 77.2794C93.53 78.8694 93.06 80.3694 92.55 81.9394C91.67 84.5794 91.98 85.7294 90.32 88.9294C90.02 89.4894 89.73 90.3894 89.41 90.8494C88.27 92.5194 88.1 94.1494 87.81 96.0894C87.6 97.5194 87.36 98.9294 87.25 100.379L87.09 102.459C86.87 105.399 86.51 104.899 86.83 107.559L87.24 111.029L87.61 114.149C87.83 116.019 88.15 117.799 88.7 119.609L89.55 122.429L90.27 124.749L91.21 127.559L92 129.809L92.53 131.339L93.85 134.629L94.77 137.259C95.2 138.489 95.81 139.689 96.09 140.959C96.28 141.879 96.47 142.759 96.77 143.579C97.52 145.649 97.69 147.129 98.37 149.139L99.25 151.709C100.21 154.539 100.02 154.849 100.89 157.349L102.22 161.179C102.52 162.039 103.02 162.889 103.23 163.779C103.75 165.909 104.71 167.769 105.67 169.689C106.64 171.639 107.65 173.439 108.93 175.199C110.57 177.449 113.89 180.239 116.89 179.749C119.53 179.329 120.31 178.459 122.13 176.719C123.2 175.709 125.12 172.859 125.77 171.379C126.43 169.839 127.16 168.329 128.01 166.889C128.74 165.669 129.2 164.489 129.83 163.179L132.42 157.709C132.88 156.749 133.25 155.889 133.77 154.949L135.6 151.609C136.44 150.069 137.61 148.689 138.66 147.209L142.03 142.439C143.07 140.959 144.66 139.099 145.33 137.989C146.19 136.559 146.87 135.139 147.84 133.749C148.93 132.219 149.11 130.099 147.81 128.589C146.2 126.719 142.56 127.999 141.19 127.339C139.64 126.579 140.76 124.799 139.38 122.129C139.1 121.599 138.25 120.689 137.59 120.889C136.02 121.359 134.85 123.199 134.95 124.759C135.01 125.629 135 126.289 134.93 127.119L134.71 129.549C134.67 130.029 135.31 133.419 134.96 136.379C134.75 138.209 135.19 140.519 134.73 142.099C134.47 143.029 134.24 144.259 133.8 145.049C132.15 148.059 129.06 150.859 125.77 151.979C123.76 152.669 120.32 153.029 118.15 153.189C116.73 153.289 115.37 153.039 114.03 152.879C111.48 152.579 109.36 151.599 107.33 150.139C104.54 148.119 102.65 145.939 101.16 142.789C100.56 141.519 99.84 140.319 99.33 138.959C96.36 131.079 98.48 133.629 97.51 130.419C97.24 129.499 96.8 128.449 96.92 127.489L97.13 125.889C96.6 123.169 97.26 116.809 98.7 114.539C99.37 113.479 100.25 112.269 101.18 111.399L104.07 108.719C104.68 108.159 105.99 107.979 106.75 107.589C107.94 106.989 109.07 106.719 110.33 106.729L115.86 106.779L119.16 106.839C120.52 106.869 121.78 107.019 123.08 107.199C124.84 107.459 126.22 108.159 127.83 108.809C129.05 109.299 130.29 109.699 131.48 110.259L134.29 111.589C135.44 112.129 137.34 112.489 138.56 112.049C140.72 111.269 140.95 108.659 140.05 106.849C139.61 105.939 139.62 104.749 140.56 104.249C141.76 103.619 143.53 104.639 145.77 105.009L148.08 105.379C150.15 105.709 151.85 104.399 152.14 103.079C152.34 102.159 151.93 101.379 151.55 100.629" fill="#90BEFB"/>
</g>
</g>
<defs>
<clipPath id="clip0_2559_1079">
<rect width="547.12" height="364.26" fill="white"/>
</clipPath>
</defs>
</svg>
