<svg width="409" height="237" viewBox="0 0 409 237" fill="none" xmlns="http://www.w3.org/2000/svg">
<g clip-path="url(#clip0_2554_10738)">
<mask id="mask0_2554_10738" style="mask-type:luminance" maskUnits="userSpaceOnUse" x="0" y="0" width="409" height="237">
<path d="M408.55 0H0V236.67H408.55V0Z" fill="white"/>
</mask>
<g mask="url(#mask0_2554_10738)">
<path d="M338.99 161.75L335.33 161.07L327.5 159.45L311.22 156.25L312.87 148.28L315.4 136.32L317.71 125.35L319.2 118.08L320.91 108.95C321.21 107.37 321.47 105.53 321.91 104.08L326.86 100.2L331.96 101.39L354.72 107.26L353.89 111.48L351.12 124.56L349.56 132.13L345.11 153.94L344.31 158.39L338.99 161.77V161.75ZM182.02 70.7201L178.37 86.5901L169.62 126.1L165.63 144.48L163.5 146.13C163.03 146.49 161.75 146.11 161.17 145.98L157.58 145.16L141.59 141.57L139.89 137.78L143.31 120.68L148.82 95.7701L151.71 83.3101L155.63 65.6201L157.01 58.8201L158.69 50.6901L160.31 43.0501C160.93 42.5401 161.92 42.0001 162.75 41.7101L186.64 47.9701C186.69 49.1501 186.54 50.0601 186.33 51.1001L184.53 59.9601L182.04 70.7101L182.02 70.7201ZM20.66 121.98L14.45 121.81C13.61 121.79 12.99 121.02 13.15 120.2L13.85 116.67L16.45 104.45L21.75 80.0101L28.73 48.4101L30.8 39.4301C31.2 37.7201 31.55 36.2401 32.34 34.5701L42.95 36.9601L58.47 40.8701L55.4 55.1801L52.98 66.6701L49.34 83.6101L47.15 94.1001L45.35 102.76L43.72 110.67L42.22 118.02L41.1 123.28C34.23 122.73 27.57 122.18 20.67 122M408.45 119.88L407.97 114.76L407.95 112L395.21 111.7C395.26 109.65 396.59 107.5 396.93 105.02L394.39 104.35L397.05 89.1801C395.91 88.7901 391.94 87.7201 391.22 88.0801C390.69 88.3501 391.1 89.2401 390.53 91.1801C389.93 93.1701 389.61 95.1601 389.34 97.1801L388.65 102.53L385.92 102.14L384.12 110.5L381.4 123.39L376.16 149.78L374.52 157.77L367.21 156L355.94 153.1L362.4 120.9L365.47 106.7C365.63 105.96 366 105.13 366.34 104.31L358.3 95.2401L356.56 96.9701L349.96 95.4801L345.37 94.3301L347.5 86.1101C347.8 84.9601 347.9 83.8801 348.06 82.7501L348.8 77.5401C348.84 77.3101 348.75 76.7001 348.54 76.6101C347.62 76.2001 344.29 75.9101 342.79 76.0901C343.35 77.1801 342.92 77.6201 342.77 78.3501C341.81 83.2401 340.77 88.0201 339.19 92.7401L334.87 91.6701L322.13 88.2801L321.41 91.0401C319.85 92.3101 318.22 93.6901 316.54 94.8501C315.8 95.3701 314.8 95.2601 314.61 96.6001L312.52 96.3901C312.1 97.6301 311.95 98.9301 311.79 100.27C311.41 103.34 310.89 106.3 310.3 109.34L308.2 120.29L303.43 142.17C300.89 141.77 298.72 140.83 296.34 140.23L287.63 138.03L291.65 118.27L292.82 112.4L295.78 96.3401L296.9 90.6001L293.63 89.6201L283.63 80.5101L282.22 81.5601L264.62 77.5701C265.44 73.0101 266.52 68.7201 267.64 64.2501C267.75 63.8001 267.1 62.9601 267.96 62.6401L273.89 54.1901C275.05 52.5301 276.39 50.9201 277.76 49.4501C277.96 49.2301 278.34 48.4901 278.27 48.2101C278.2 47.8801 277.86 47.5001 277.59 47.0701C276.99 46.1001 276.41 45.6701 275.43 45.1301C274.99 44.8801 274.28 44.3601 273.81 44.2701C273.15 45.1401 272.47 45.9301 271.92 46.7401C270.98 48.1401 269.92 49.2301 268.84 50.5201C265.79 54.1901 263.28 58.0601 260.39 62.0201C259.11 61.9401 257.88 61.7601 256.37 61.5001L254.77 70.8701L253.55 76.9501L251.48 86.8301L249.44 96.5901L247.33 106.69L242.63 128.82L236.18 127.22L222.8 124.01L220.14 123.43C218.61 123.1 217.09 122.65 215.54 122.23L224.46 74.4501L233.17 76.1301L241.88 77.8801C243.36 78.1801 242.12 73.4701 242.19 72.0401C242.28 70.2901 243.76 68.6101 243.12 66.8401C240.16 66.4101 237.23 65.7801 234.33 65.2201L226.24 63.6401L227.59 56.5601L229.58 47.0501C229.67 46.6401 229 46.2401 228.46 46.0501L230.59 43.0001L231.76 41.2801L234.02 38.0701C233.1 37.5701 232.02 37.1501 231.4 36.5201L229.65 34.7701C227.29 37.3401 226.92 38.5501 224.76 40.9701C223.29 42.6201 222.08 44.4201 220.72 46.2601L218.21 46.4201L215.39 61.4901C212.7 61.1401 210.14 60.6801 207.48 60.1701L204.23 59.5501L201.91 69.9701L213.19 72.1501L207.98 99.7401L202.37 98.6501C201.98 98.5701 201.25 98.6001 200.88 98.5901C199.53 98.0301 198.04 97.8101 196.59 97.5701C196.1 97.4001 195.21 96.9201 194.61 96.7701L187.26 94.9201L194.37 63.1201L197.15 50.0701C197.38 48.9701 197.59 47.9401 197.89 46.7701L194.69 41.7701C194.31 41.1801 194.04 40.2501 193.78 39.6801C193.6 39.2701 192.8 38.7201 192.58 38.3101C191.65 36.5601 191.56 38.7901 189.24 38.1501L175.91 34.4901L163.66 31.4701L165.97 23.7801C166.44 22.2201 166.92 20.8101 167.5 19.2701C166.34 18.4701 164.92 18.5001 163.56 18.5501L161.02 18.6301C159.78 22.9201 158.84 24.1801 157.93 28.7601C157.69 29.9501 157.58 31.5601 157.09 32.5801L153.77 34.4601C152.94 34.9301 152.07 35.1601 151.01 35.2901C148.29 49.7101 145.44 63.9801 142.04 78.2401L140.68 83.9101C137.96 83.7101 135.64 82.8401 133.19 81.8501L123.05 77.7701L128.09 51.3901L129.64 43.4301L131.29 34.2401C131.57 32.6601 131.9 31.1401 132.07 29.6501C131.25 29.4501 130.18 29.3301 129.88 28.9501L123.13 20.1901C123.02 20.0501 122.71 19.7701 122.56 19.8001C121.4 20.0101 122.16 20.9401 120.2 20.6801L112.85 19.7001L114.88 12.0601C113.98 11.4701 113.16 11.7201 112.21 11.5301L108.57 10.7801L106.67 16.9101C106.53 17.3401 106.46 18.6401 105.87 18.5501L95.98 16.9001L92.86 12.5101C92.21 11.6001 91.53 11.5501 90.47 11.5801C88.69 11.6201 86.67 11.5501 85.07 12.2701C85.07 14.9801 86.27 17.4501 85.99 19.8201C85.05 25.4001 83.61 30.6101 82.3 36.0101L81.13 40.8301L78.9 50.3701L76.98 58.4801L74.73 67.7101L63.8 65.7801L66.61 52.1301L68.63 42.7501L70.98 43.0601C72.56 43.2701 70.3 34.4601 70.62 33.6701C71.69 28.8501 71.21 27.4101 75.57 24.9901L67.82 9.15011C67.33 8.15011 65.5 10.5201 64.9 10.3801L54.08 7.95011L55.5 2.59011L53.79 1.44011C52.91 0.86011 51.74 0.34011 50.59 0.0501104C49.56 -0.20989 48.73 5.18011 47.79 6.56011L27.39 2.00011C26.05 2.94011 26.74 5.81011 26.29 8.53011L25.7 12.0701L35.59 14.2301L49.27 17.2601L60.71 19.8801C61.88 20.1401 62.82 21.1101 62.53 22.4401L60.73 30.6601L53.86 28.9601L32.72 23.9401L31.78 23.1801L21.93 28.2301L22.45 29.3301C21.9 32.9101 21.03 36.4101 20.16 40.0301L16.39 55.7901C16.34 55.9801 16.29 56.2101 16.26 56.3001C16.22 56.4401 15.74 56.4501 15.56 56.4101C12.95 55.7401 10.24 55.0301 7.56 54.5901C5.71 54.2901 3.98 53.9801 2.35 53.4201L2.04 54.8301C2.17 54.4301 2.18 54.8201 2.16 55.2801C2.16 55.3601 2.15 55.4401 2.15 55.5201C2.15 55.6101 2.14 55.7001 2.14 55.7901C2.14 55.9401 2.12 56.0601 2.12 56.1001V56.1101L1.8 58.2801C1.72 58.8001 1.47 59.5901 1.82 59.6801L8.24 61.4401C10.42 62.0401 12.38 62.5201 14.77 63.0801L12.06 75.0801L2.61 117.28L0 119.05C2.08 123.08 4.06 126.75 5.73 130.77C6.28 132.1 7 132.7 8.53 132.71C10.55 132.74 12.62 132.68 14.74 133.02L21.62 134.13C21.8 134.16 22.21 133.69 22.09 133.69L21.14 132.94L37.79 134.17C37.99 134.18 38.33 134.55 38.3 134.73L37.97 136.98L42.9 138C45.37 138.51 48.11 140.74 48.43 139.46L49.21 136.39L52.63 120.82L55.27 107.51L58.48 91.3801L62.39 72.2301L73.28 74.1201L72.83 76.0101L70.79 84.7101L68.83 93.0401L65.89 105.7L58.32 139.62L60.74 140.21C59.23 145.26 57.97 150.18 57.05 155.24C57.86 155.41 58.89 155.64 59.37 155.98C59.92 156.84 60.38 157.5 61.46 157.36C62.37 157.25 62.76 156.51 63.04 155.54L65.58 146.46L66.77 141.9C67.9 142.32 68.29 142.46 69.1 142.55L71.32 131.59L79.85 93.1701L84.75 71.5601L89.39 51.1801L91.79 41.0201L95.23 27.0601L118.41 30.8301C119.32 31.8101 120.16 32.9001 120.9 33.9701L118.77 45.6701L111.47 82.8201L103.23 125.54L100.88 137.56L98.93 147.03C102.66 147.44 105.81 148.48 108.9 150.05C109.05 150.12 109.62 149.92 109.65 149.75L114.24 125.39L121.8 84.3201C124.57 85.1901 123.82 85.3101 126.47 86.2501L131.33 87.9901C134.11 88.9801 136.59 88.8501 139.33 89.7501L137.6 97.2201L130.48 129.31L128.7 137.47C128.41 137.68 127.77 138.04 127.83 138.31L128.08 139.35C128.22 139.93 128.69 140.45 128.95 140.99L133.08 149.73V151.27L139.37 152.4L151.23 155L150.34 158.84L146.57 175.69C146.29 176.91 146.59 177.83 145.6 179.34C147.16 179.71 148.59 179.93 150.11 180.22L151.81 180.54L152.9 176.47L155.64 164.6L157.55 156.51L165.61 158.51L166.53 156.08L167.6 156.89L178.94 148.2C179.18 148.02 179.02 147.27 178.81 147.05L176.78 144.84L178.21 137.75L181.92 119.84L184.64 106.98L186.02 100.61L194.98 102.69L199.53 103.76L206.97 105.44L203.26 125.72L198.54 150.94L195.72 166.16C195.6 166.48 194.73 167.04 194.89 167.31C195.43 168.24 195.92 169.44 196.49 170.21C197.91 172.13 200.65 175.8 200.25 178.23C200.06 179.38 200.74 179.52 201.48 180.1L202.37 180.8C202.55 180.94 203.25 180.42 203.49 180.47L214.1 182.95C213.18 187.38 212.47 191.6 212.31 196.11C212.31 196.44 213.03 196.67 213.32 196.69C214.79 197.3 216.2 197.87 217.79 197.77L219.07 189.43L220.36 182.99C220.42 182.71 220.57 182.07 220.39 181.93L219.69 181.36C220.52 178.26 219.61 179.14 220.48 175.6C220.76 174.47 220.89 173.4 220.77 172.24L218.86 172.04L209.38 169.98L207.45 166.21L214.46 128.12C216.94 128.55 219.29 129.34 221.73 129.91L230.45 131.96L235.44 133.1C236.24 133.28 237.05 134.06 237.64 134.22L241.16 135.2L240.02 140.92L228.8 191.75C229.86 192.3 230.93 192.37 232.08 192.45L230.41 199.09C232.17 200.14 233.92 200.86 235.95 201.57L237.93 194.72C237.97 194.57 238.34 194.25 238.38 194.34C238.41 194.42 238.5 194.64 238.52 194.74L238.94 196.72C239.08 197.4 239.05 198.1 239.79 198.37C239.93 196.55 240 194.88 240.38 193.11L243.22 180.01L247.06 162.16L249.75 149.42L251.68 140.12L253.89 129.57L256.78 115.98L262.45 88.2101L268.82 89.6501L280.34 92.2101L284.54 96.1001L283.39 102.8L281.29 113.4L279.76 120.85L277.97 129.52L274.7 144.74L272.54 155.12L269.18 170.75L267.62 178.36L263.61 197.99C267.17 199.24 266.53 197.67 270.38 199.32L273.68 200.74C273.8 201.28 273.96 202.07 274.71 201.87L278.25 183.45L279.6 176.89L281.12 169.44L283.03 160.26L286.32 143.97C287.59 144.16 288.62 144.58 289.81 144.85L300.12 147.24C300.76 147.39 301.36 147.59 302.2 147.85L297.87 167.69L295.55 178.74L293.77 187.36L292.13 194.83C290.96 195.29 289.9 195.81 289.19 196.73L296.53 207.12L296.45 208.99L321.29 215.37L323.81 216.29C326.03 217.1 328.44 217.48 330.67 217.97C331.23 217.16 331.78 216.74 332.52 216.3C335.5 214.56 338.31 212.97 341.49 211.33C339.44 206.46 337.96 206.49 335.88 203.79C335.56 203.38 335.04 202.93 334.6 202.69L329.27 205.6C328.78 205.86 327.56 205.74 326.95 205.57L316.65 202.79L304.97 199.76C304.26 198.94 303.57 197.97 302.98 197.09L305.03 186.41L309.04 166.58C312.05 166.98 314.75 167.59 317.63 168.19L333.16 171.45L341.35 173.18L354.23 164.73L353.28 162.69L354.24 162.37C354.42 162.31 354.43 161.66 354.48 161.47L355 158.98L361.85 160.91L373.12 164.11L371.65 171.71L369.12 183.69L364.92 203.14L362.4 215.13L359.01 230.78L361.38 231.59L360.84 234.53C360.64 235.6 363.39 235.49 363.05 236.19L365.18 236.66L366.3 236.19L367.01 234.16L369.11 235.3C369.26 235.38 369.6 235.53 369.74 235.58C369.92 235.65 370.07 235 370.12 234.78L371.68 226.99L373.45 218.41L375.55 208.32L381.05 181.32L384.88 162.48L389.9 136.62L392.64 122.57H397.41L408.19 122.68C408.69 121.81 408.53 120.84 408.44 119.86" fill="#90BEFB"/>
</g>
</g>
<defs>
<clipPath id="clip0_2554_10738">
<rect width="408.55" height="236.67" fill="white"/>
</clipPath>
</defs>
</svg>
