<svg width="522" height="691" viewBox="0 0 522 691" fill="none" xmlns="http://www.w3.org/2000/svg">
<g clip-path="url(#clip0_2553_11119)">
<mask id="mask0_2553_11119" style="mask-type:luminance" maskUnits="userSpaceOnUse" x="0" y="0" width="522" height="691">
<path d="M521.57 0H0V690.16H521.57V0Z" fill="white"/>
</mask>
<g mask="url(#mask0_2553_11119)">
<path d="M322.019 422.1C318.659 423.61 315.759 423.95 312.019 423.5L309.039 423.14C307.209 422.92 305.539 423.09 303.699 423.14L293.309 423.4C290.899 423.47 288.609 423.65 286.189 423.4C279.069 422.7 275.369 424.72 269.479 422.62C268.749 422.36 268.029 421.94 267.399 421.45C263.959 418.83 262.229 413.11 266.179 409.99C267.849 408.67 270.999 407.85 273.009 407.85H317.429C320.129 407.85 323.159 409.51 324.359 411.75C326.239 415.29 325.059 419.71 322.009 422.09" fill="#90BEFB"/>
<path d="M269.25 196.22C268.58 201.74 263.31 202.43 259.35 202.92C255.56 203.36 254.41 202.66 250.75 202.54C245.58 202.36 240.63 202.4 235.48 202.61C228.94 202.88 222.54 202.83 215.99 202.69C213.59 202.64 210.23 201.55 208.6 199.56C207.02 197.64 207.01 194.68 208.46 192.69C209 191.98 210 190.87 210.74 190.41C216.21 187.13 218.48 188.06 223.64 188.15L242.71 188.48C247.37 188.56 251.71 188.48 256.36 188.01C260.43 187.6 264.66 188.74 267.46 191.63C268.58 192.78 269.44 194.87 269.27 196.23" fill="#90BEFB"/>
<path d="M314.179 257.04C309.779 258.4 303.989 257.6 298.899 257.25C297.559 257.15 295.939 257.95 294.539 257.79C292.999 257.6 291.539 257.97 290.069 258.17L281.999 259.31C278.939 259.74 275.809 257.86 273.879 255.74C272.729 254.49 272.299 252.82 273.479 251.27C274.849 249.46 277.839 247.83 280.329 247.96C282.019 248.06 283.419 248.25 285.019 247.97L286.789 247.67C287.929 246.16 288.159 244.18 288.009 242.31L287.739 238.93C287.379 234.69 287.269 225.51 290.399 222.34C292.199 220.5 295.149 220.72 297.449 221.19C299.949 221.68 301.569 223.48 302.439 225.84C303.539 228.75 302.979 231.89 302.839 235L302.569 241.23C302.449 243.92 302.869 246.76 304.339 248.98C305.669 251.02 315.729 248.17 317.509 252.51C318.209 254.21 315.999 256.47 314.189 257.04" fill="#90BEFB"/>
<path d="M260.51 269.81C258.74 271.48 252.81 273.45 250.92 273.45L224.11 273.42C222.02 273.42 217.1 271.16 215.6 268.54C215 266.71 214.85 264.07 215.9 262.31C216.31 261.63 217.35 260.36 218.01 259.95C219.68 258.91 222.11 257.55 224.07 257.49C228.89 257.34 233.4 257.3 238.08 257.56C240.44 257.68 242.79 257.85 245.16 257.66L249.45 257.32C251.89 257.13 254.2 256.89 256.67 257.42C259.88 258.11 262.43 260.73 262.93 263.94C263.33 266.44 262.2 268.19 260.5 269.83" fill="#90BEFB"/>
<path d="M76.8896 173.6L74.8296 177.22L73.5696 179.63C72.6096 181.48 71.7596 183.27 70.8796 185.16L68.9196 189.37C67.0096 193.5 61.5896 193.99 57.6296 192.43C56.7396 192.07 55.2796 190.65 54.9696 189.77C53.3496 185.31 54.8896 181 56.3196 176.85L59.7196 166.9C60.3196 165.16 61.8696 163.2 63.0096 161.82L64.9996 160.41C66.6296 159.23 68.6796 158.9 70.7996 158.97C72.3196 159.02 74.0696 158.81 75.3996 159.68C80.5196 163.04 79.5996 168.87 76.8996 173.59" fill="#90BEFB"/>
<path d="M189.88 504.55C188.3 506.92 187.03 509.85 185.9 512.45L183.53 518.02C182.02 521.53 179.18 523.66 175.42 524.7C173.66 524.05 171.59 523.56 170.54 521.94C169.39 520.21 168.69 517.54 168.93 515.49C169.81 508.33 170.38 505.57 172.68 498.94L175.22 494.47C176.02 493.07 178.47 491.03 180.06 490.11C182.25 488.83 188.15 488.02 190.53 490.38C192.01 491.85 193.15 493.99 193.41 496.06C193.75 498.82 191.35 502.34 189.88 504.54" fill="#90BEFB"/>
<path d="M316.239 49.3699C314.919 51.5899 312.099 53.5299 309.499 53.5999C304.659 53.7199 299.859 53.8099 295.009 53.5299C292.089 53.3699 289.209 53.2299 286.299 53.4599C281.749 53.8399 274.969 54.1699 272.199 49.6599C271.179 48.0099 270.499 45.8999 271.029 44.0899C271.989 40.9299 274.199 38.9599 277.159 37.9399C278.279 37.5599 279.479 37.1399 280.669 37.1599C286.829 37.2099 285.499 38.2399 292.869 37.8099L298.489 37.4699L304.699 37.1799C308.759 36.9899 313.859 38.2099 316.179 41.5099C317.989 44.0899 317.739 46.7899 316.219 49.3699" fill="#90BEFB"/>
<path d="M201.889 13.6899C201.089 15.4899 200.719 17.5399 199.859 19.2599C198.459 22.0299 198.379 22.5299 196.979 24.9099C196.389 25.9299 195.969 27.2399 195.459 28.3799L193.209 33.3599L190.689 38.7399L188.519 43.1799C186.159 47.9999 186.409 49.2599 183.179 55.4999L180.919 59.8899C180.509 60.6699 180.109 61.5199 179.849 62.3599C179.079 64.8299 176.979 68.9999 175.569 70.9499C173.289 74.0899 169.379 76.2999 165.399 74.2599C164.799 73.9399 163.709 72.9299 163.209 72.4799C161.189 68.6399 162.649 64.3199 164.109 60.4799C164.619 59.1599 164.949 57.5399 165.549 56.3799L168.089 51.5599C168.559 50.6699 169.189 49.8199 169.559 48.8299L171.669 43.0799C172.259 41.4599 173.019 40.0899 173.759 38.6199L176.339 33.5399L177.309 30.5799C177.939 28.6599 179.009 26.9899 179.919 25.2699L182.329 20.7199C183.229 19.0199 183.979 17.3199 184.719 15.5599L186.559 11.1699C186.939 10.2499 187.299 9.27989 187.749 8.43989L189.069 6.02989C189.879 4.54989 191.239 2.91989 192.469 1.66989C194.779 -0.660106 198.859 -0.400106 201.019 1.61989C204.859 5.22989 203.739 9.54989 201.899 13.7099" fill="#90BEFB"/>
<path d="M246.03 21.6299C243.31 23.8099 236.06 20.7499 233.04 19.3699L227.79 16.9799L224.65 15.3099C222.04 13.9099 219.92 10.7399 220.14 7.78986C220.29 5.90986 221.26 3.80986 223.14 2.69986C225.24 1.46986 227.56 1.87986 229.77 2.58986C231.39 3.11986 233.06 3.61986 234.45 4.50986L239.84 7.98986L242.21 9.57986C244.68 11.2299 245.71 12.2099 247.01 14.7099C248.16 16.9299 248.45 19.6899 246.04 21.6199" fill="#90BEFB"/>
<path d="M131.729 126.79C130.969 131.67 131.469 132.65 128.329 136.9C126.329 138.07 123.579 138.16 121.769 136.58C116.729 132.22 116.519 124.63 116.969 118.38C117.069 117.01 117.679 115.91 118.299 114.74C120.479 110.61 125.449 108.79 129.409 111.53C133.359 114.25 132.369 122.66 131.729 126.79Z" fill="#90BEFB"/>
<path d="M189.07 241.37C188.7 242.99 187.93 244.24 186.78 245.4C184.32 247.88 181.09 247.94 178.69 245.58C176.76 243.69 174.59 239.74 174.49 236.97C174.39 234.03 174.39 231.17 174.53 228.26C174.61 226.38 175.53 224.79 176.53 223.35C177.61 221.77 179.04 221.2 180.93 221.05C183.77 220.82 186.87 220.97 188.65 223.89C190.06 226.19 189.83 229.28 189.91 232.05C190.01 235.32 189.75 238.25 189.06 241.38" fill="#90BEFB"/>
<path d="M244.969 455.95C244.669 458.58 244.749 461.57 243.369 464.13C242.159 466.37 239.209 466.98 237.089 466.53C234.739 466.04 232.739 464.65 232.099 462.02C231.019 457.59 230.819 448.53 232.689 444.28C232.919 443.72 233.719 442.72 234.139 442.18C235.359 440.66 237.359 440.1 239.289 440.45C245.309 441.56 245.539 451.01 244.979 455.95" fill="#90BEFB"/>
<path d="M360.32 67.4401C356.92 70.9401 351.35 71.5401 347.37 69.6501C343.56 67.8401 341.7 65.9201 340.35 62.1901C340.19 61.7201 340.25 60.5201 340.23 59.9501C340.13 57.9701 340.78 56.3801 341.55 54.7101C342.35 52.9701 343.22 51.6801 344.73 50.5701C345.96 49.6401 347.06 48.8701 348.65 48.4901C352.86 47.4901 357.95 48.3201 360.48 52.2501C363.42 56.8001 362.96 62.8701 360.33 67.4501" fill="#90BEFB"/>
<path d="M358.08 107.56C358.38 109.91 352.96 115.76 344.63 114.39C341.11 113.8 338.79 114.97 333.44 113.43C331.62 112.91 329.93 110.92 329.79 108.96C329.65 106.92 330.94 104.67 332.73 103.83C339.2 100.76 344.57 101.86 351.25 102.97L353.72 103.38C355.39 103.65 356.44 104.66 357.12 106.04C357.34 106.48 358.02 107.11 358.08 107.56Z" fill="#90BEFB"/>
<path d="M286.979 330.78C283.549 330.96 279.819 330.26 277.429 327.99C275.959 326.6 275.809 324.45 276.499 323.07C277.749 320.55 279.539 319.45 282.289 318.83L285.399 318.13C287.249 317.7 289.639 317.73 291.519 318.09L296.949 319.12C299.649 319.63 302.249 321.15 303.249 323.41C306.049 329.72 291.359 332.26 286.979 330.78Z" fill="#90BEFB"/>
<path d="M177.2 655.98C176.86 660.38 176.86 667.16 173.04 670.19C171.11 671.73 168.43 670.55 167.07 668.86C165.09 666.36 164.78 663.37 164.86 660.2C165.01 654.12 164.39 651.94 167.92 646.84C168.89 645.41 170.4 644.78 171.87 644.1C172.72 643.7 173.32 643.41 174.17 643.99L176.39 645.49C177.65 648.77 177.46 652.45 177.19 655.98" fill="#90BEFB"/>
<path d="M517.96 658.56L515.85 661.34C514.79 662.73 511.79 662.99 510.42 662.18C507.88 659.02 507.24 654.98 507.4 650.98C507.52 648.11 508.58 645.52 509.44 642.86C509.92 641.38 510.3 640.25 511.36 639.17C512.84 637.65 514.28 636.43 516.24 635.51L518.85 638.43L520.59 643.15C522.26 647.66 520.66 654.98 517.96 658.56Z" fill="#90BEFB"/>
<path d="M465.36 208.77L463.95 210.68C463.26 211.61 462.04 212.5 460.4 212.42C459.44 211.17 458.47 209.73 457.66 208.47L455.97 205.85C454.6 203.71 453.46 199.77 453.6 197.22C453.77 194.09 454.59 191.07 455.68 188.23C456.05 187.74 456.98 186.76 457.44 186.27C461.39 186.41 463.65 189.36 464.89 192.7C465.54 194.41 466.5 195.95 466.56 197.93C466.68 201.4 467.15 206.34 465.37 208.77" fill="#90BEFB"/>
<path d="M518.66 545.63C517.3 547.41 514.09 547.43 512.5 546.25C511.72 545.66 510.68 544.63 510.22 543.95C509.48 541.93 508.4 539.82 508.23 537.75C507.89 533.44 508.16 529.29 508.04 524.96C507.96 521.79 510.93 518.44 513.76 518.96L516.41 521.21L519.15 528.97C519.81 530.86 520.11 532.85 520.51 534.88C521.21 538.46 521.03 542.51 518.66 545.62" fill="#90BEFB"/>
<path d="M521.57 440.38V452.89L521.21 455.2C520.67 458.64 519.72 461.85 518.67 465.16L516.65 467.44C515.91 468.28 514.65 469.07 513.78 469.79C510.68 468.83 509.28 466.54 508.79 463.64L507.46 455.83C507.21 454.36 507.36 452.41 507.51 450.95C508.15 444.76 506.96 444.1 507.5 438.14L507.8 434.79C508.05 432.17 508.64 429.56 508.31 427C507.5 420.7 506.22 418.55 510.31 412.66C510.74 412.03 512.04 411.22 512.67 410.78C519.02 410.97 519.12 416.06 519.67 418.72L521.14 425.66C522.16 430.53 520.78 435.62 521.56 440.38" fill="#90BEFB"/>
<path d="M249.83 76.1001C249.31 78.0901 248.98 79.8301 248.64 81.9301C248.53 82.5801 247.72 83.6201 247.43 84.3401C246.58 86.4501 245.98 87.9601 244.12 89.2501C243.16 89.9101 241.46 90.1601 240.31 89.5101C239.43 88.9901 238.92 87.6301 238.5 86.3601C236.95 81.6401 236.8 81.0501 236.98 76.0201C237.09 73.2101 238.22 70.1101 240.01 67.9701C240.39 67.5001 241.59 66.7801 242.11 66.4901C243.33 65.8301 245.2 66.1601 246.16 66.7201C248.47 68.0901 249.25 69.9201 249.71 72.3301C249.94 73.6201 250.19 74.7601 249.83 76.1001Z" fill="#90BEFB"/>
<path d="M79.84 388.56C79.26 390.07 78.89 391.58 78.39 393.1C77.58 395.56 76.69 397.86 75.69 400.28C75.39 401.02 74.51 402.08 74.08 402.85C73.04 404.71 71.16 407.2 69.84 408.8L67.82 411.24C65.76 413.74 64.69 414.53 62.26 415.78C59.63 417.13 56.25 417.19 54.56 414.53C53.44 412.75 52.91 410.78 53.74 408.84C54.34 407.4 54.69 405.6 55.44 404.27L57.69 400.28C60.35 395.56 61.39 391.6 62.44 386.2C62.98 383.44 63.89 380.75 63.81 377.89C63.7 374.38 60.33 361.96 58.97 358.03L57.1 355.33C55.26 352.66 53.04 350.16 52.41 346.93C50.31 336.3 57.51 337.33 57.18 332.92C57.08 331.73 56.21 330.01 56.23 328.68C56.28 325.58 56.48 322.63 55.61 319.62C54.32 315.16 55.08 310.79 56.64 306.49C57.46 304.24 59.18 300.91 61.21 299.82C63.84 298.42 66.66 299.27 68.3 301.7C69.95 304.13 70.91 306.28 71.29 309.25C72.24 316.67 70.19 319.5 70.77 324.88C71.04 327.39 71.47 330 70.73 332.47C70.18 334.28 68.56 336.05 68.56 338.07C68.53 342.2 69.74 346.21 72.09 349.54L74.13 352.46C75.28 354.11 76.02 355.82 76.79 357.69L78.03 360.65C79.32 363.74 79.94 367.02 80.54 370.31C81.54 375.91 81.89 383.27 79.83 388.57" fill="#90BEFB"/>
<path d="M485.709 512.96C484.609 514.62 481.979 515.55 479.879 515.31C476.709 514.94 473.679 513.64 472.389 510.66L470.479 506.28C468.739 502.26 467.939 501.77 465.909 497.24L464.429 493.92C463.649 492.15 462.879 490.52 461.969 488.83C460.019 485.17 460.979 487.39 459.139 483.32L455.089 474.35C454.319 472.64 453.689 470.98 452.879 469.33L450.479 464.47L447.959 459.45L445.699 455.1C444.989 453.71 444.529 451.99 444.049 450.45C443.099 447.38 443.629 443.99 445.789 441.62C450.119 438.9 455.159 441.08 458.009 444.65C458.919 445.77 459.379 446.79 459.959 448.07L461.979 452.62L465.149 459.66L467.429 464.65L469.649 469.4C470.529 471.27 473.179 475.53 473.549 476.86C475.399 483.58 478.419 487.07 480.189 492.29L481.529 496.28C481.899 497.38 482.889 498.46 483.449 499.53C485.229 502.93 484.929 500.22 486.699 506.18C487.369 508.47 487.129 510.82 485.699 512.96" fill="#90BEFB"/>
<path d="M474.52 391.58C473.55 395.15 472.26 398.85 470.25 401.86C468.43 404.58 466.86 408.29 464.85 410.31L462.05 413.12C459.85 415.32 456.11 418.33 452.79 416.63C452.02 416.23 450.91 415.27 450.25 414.65C448.26 409.92 450.4 405.31 452.88 401.29C455.2 397.53 456.24 395.75 457.63 391.51C458.4 389.16 459.29 386.9 459.46 384.43C459.65 381.62 459.99 378.94 459.36 376.21C459.74 372.16 458.62 368.53 457.38 364.75C455.97 360.36 454.95 358.3 452.43 354.58L450.78 352.18C450.11 351.19 448.11 346.02 447.99 344.43C447.72 340.78 449.97 337.5 452.89 335.51C454.15 334.66 454.89 332.94 454.28 331.59C453.21 329.19 452.67 326.86 452.8 324.17C452.83 323.4 452.55 322.32 452.54 321.55C452.38 315.1 451.87 307.2 455.43 302.03C457.69 300.11 459.94 299.67 462.7 300.14C464.5 300.44 466.08 301.54 466.72 303.39C466.93 303.97 467.53 305.22 467.54 305.82L467.68 317.93C467.72 321.43 469.27 327.4 468.35 331.25C467.69 334.02 466.5 336.61 465.54 339.36L466.57 345.97C467.57 352.4 473.77 356.3 476.65 372.16C478.02 379.76 476.44 384.47 474.51 391.57" fill="#90BEFB"/>
<path d="M123.43 239.34C122.76 240.34 121.48 241.55 120.41 242.22C119.29 242.93 116.73 242.82 115.53 242.14C112.32 240.33 111.21 237.91 110.4 234.53C109.99 232.84 110.81 230.96 111.54 229.44C112.9 226.6 115.3 224.83 118.48 224.46C124.75 227.18 126.22 233.61 123.43 239.35" fill="#90BEFB"/>
<path d="M80.04 608.63L78.26 613.17L76.09 618.84C73.35 625.96 72.8 624.35 69.5 628.96L67.84 631.27C65.78 634.14 64.85 634.81 61.8 636.46C59.65 637.63 57 638.13 55.15 636.46C52.68 634.24 52.67 631.26 53.7 628.37C55.48 623.39 57.6 622.76 59.23 618.16L61.06 612.99C62.07 610.11 62.8 606.99 63.06 603.85C63.84 594.67 62.43 587.51 58.63 579.17C58.19 578.2 57.41 576.96 56.85 576.07L54.01 571.63C52.42 569.13 51.97 566.39 52.19 563.4C52.48 559.59 54.06 556.53 55.96 553.25C56.93 551.58 56.91 548.9 56.29 547.06C54.16 540.78 55.51 537.85 57.98 532.22C60 527.61 59.26 523.63 62.69 522.53C64.31 521.99 66.34 522.27 67.6 523.72C69.3 525.69 70.37 528.78 70.73 531.53C71.51 537.59 70.36 536.15 71 542.42L71.43 546.74C72.57 557.95 68.99 553.05 69.03 559.18C69.06 562.01 69.74 564.31 71.14 566.73C71.73 567.74 72 569.45 72.7 570.41C73.73 571.78 77.93 579.68 78.35 581.51L80.65 591.13C81.01 592.61 80.92 594.23 81.05 595.75C81.44 600.1 81.65 604.54 80.05 608.65" fill="#90BEFB"/>
<path d="M121.6 471.61C120.2 473.79 116.43 473.79 114.85 471.8C112.44 468.76 112.06 465.16 113.04 461.61L114.7 455.51C115.28 453.41 116.18 451.64 116.7 449.5L117.39 446.62C117.46 446.35 117.49 445.67 117.69 445.66H118.66C118.87 445.63 118.74 446.47 118.77 446.72C118.8 447.09 119.63 447.57 119.83 447.89C121.94 451.35 121.64 450.21 122.55 454.12L123.29 457.29C123.54 458.36 123.37 459.91 123.52 461.08C123.95 464.46 123.55 468.6 121.6 471.63" fill="#90BEFB"/>
<path d="M123.83 418.36C123.66 421.63 122.87 424.77 121.8 427.85C120.94 430.33 117.88 430.73 118.2 430.81C117.88 430.77 117.42 430.48 117.08 430.34C115.6 429.7 115.22 428.72 114.62 427.4C112.84 423.45 111.26 419.31 112.11 414.98C112.55 412.74 113.6 410.8 115.47 410.12C117.71 409.3 120.22 409.75 121.58 411.51C123.23 413.65 123.97 415.65 123.83 418.34" fill="#90BEFB"/>
<path d="M484.899 563.31L483.419 565.45C482.019 567.47 481.209 569.51 480.569 571.88C478.949 577.81 478.259 577.15 475.819 581.95C474.699 584.17 473.979 586.37 473.049 588.74C472.409 590.37 471.549 592.06 470.809 593.69L468.639 598.51L466.119 604.45L464.749 607.6C464.039 609.23 463.419 610.78 462.399 612.18L460.069 618.05C459.029 620.7 458.559 623.33 456.649 625.61C452.229 626.28 448.769 626.54 445.279 623.61C442.319 617.67 443.959 616.24 445.599 610.22C446.639 608.71 447.399 607.16 448.189 605.51L450.559 600.6L452.769 595.95L455.209 590.5L457.669 585.37L459.999 580.49L461.909 576.81L463.829 572.91L465.969 567.78C466.569 566.34 467.409 565.12 468.269 563.77C472.139 557.75 470.779 557.87 473.669 552.74C474.889 550.6 478.759 548.71 482.419 550.92C484.479 552.16 485.899 553.8 486.249 556.38C486.549 558.62 486.239 561.36 484.889 563.29" fill="#90BEFB"/>
<path d="M465.05 678.73C464.45 680.07 464.12 682.01 463.2 683.05L461.16 685.35C460.5 685.68 458.74 685.6 457.8 685.5C454.7 681.64 455.97 682.96 455.27 679.45L454.08 673.37C453.22 668.97 453.22 664.63 453.32 660.1L453.58 649.39C453.62 647.33 453.9 645.48 453.48 643.38C453.22 642.02 452.72 639.98 453.37 638.76C455.52 634.67 456.87 634.64 457.73 631.21C458.35 630.62 459.43 629.6 460.2 629.12C460.86 628.71 462.77 628.78 463.49 629.11C464.24 629.47 465.42 630.35 465.93 630.89C467.45 635.02 466.01 634.64 466.49 640.16L466.83 644.06L467.17 649.33L467.43 660.37C467.58 666.67 467.73 672.68 465.03 678.71" fill="#90BEFB"/>
<path d="M419.469 609.67C418.869 612.04 418.519 614.42 417.399 616.56C412.819 625.24 410.709 626.96 404.449 634.23C403.899 634.86 403.329 635.26 402.599 635.84C400.829 637.24 398.319 638.91 395.779 637.35C393.889 636.18 392.949 633.48 393.379 631.42C393.889 628.92 394.349 626.25 395.729 624.22L397.609 621.43C398.599 619.98 399.499 618.67 400.049 616.94C400.559 615.29 401.219 613.66 401.559 611.97C402.179 608.95 402.679 605.93 403.449 602.98C404.679 598.22 404.069 593.98 402.489 589.45C401.719 587.24 401.349 584.84 400.409 582.67C398.489 578.31 398.059 578.69 396.079 575.15L393.429 570.43C391.979 567.85 391.799 564.38 393.049 561.51C395.199 556.54 398.799 555.6 399.539 553.7C400.529 551.16 399.349 548.5 398.349 546.22C397.769 544.93 397.939 543.78 398.309 542.5C400.379 535.28 397.269 531.03 402.049 526.82C402.589 524.75 407.319 524.34 409.209 527.08C410.789 529.39 411.569 531.65 412.139 534.39C413.159 539.19 414.119 543.76 414.529 548.73C414.719 550.99 414.339 553.76 413.239 555.78C411.879 558.24 408.999 560.21 410.989 564.83C412.099 567.44 410.949 566.7 413.379 572.22C413.809 573.18 414.139 574.43 414.619 575.28C415.459 576.72 416.139 577.98 416.729 579.49L419.679 587.06C420.719 589.74 421.219 592.33 421.379 595.21C421.789 602.29 421.079 603.44 419.489 609.63" fill="#90BEFB"/>
<path d="M230.13 116.29C229.05 118.53 228.03 120.9 226.1 122.64L224.22 121.94C222.71 121.36 222.57 119.31 221.9 118.07C221.27 116.89 220.42 115.79 220.32 114.38C220.14 111.9 219.77 109.19 220.77 106.81C221.18 105.84 223.39 103.13 224.82 102.06C225.63 101.46 228.14 101.47 228.77 102.25L230.59 104.5C232.59 106.94 231.76 112.87 230.12 116.28" fill="#90BEFB"/>
<path d="M123.459 677.33C123.469 681.19 123.379 684.99 121.069 688.18C120.269 688.77 119.149 689.54 118.479 690.15H117.489C115.469 689.14 113.809 687.83 112.939 685.32C112.469 684.03 112.279 681.57 112.679 680.07L114.589 672.77L116.739 664.83C117.259 662.88 117.139 660.55 117.219 658.53C117.519 657.87 119.299 657.69 119.779 658.08L119.809 662.98C121.109 663.14 120.559 664.1 120.779 664.83C122.079 668.97 123.439 672.95 123.459 677.33Z" fill="#90BEFB"/>
<path d="M144.289 566.22L142.249 570.76L140.139 575.26C139.649 576.32 139.029 577.21 138.519 578.24L135.409 584.71L134.339 586.49L132.049 590.82C131.579 591.7 131.269 592.96 130.829 593.89L128.399 599.13L126.219 602.79C125.209 604.49 124.489 606.1 123.829 607.98L121.099 615.87L119.019 620.32C118.119 622.28 117.329 624.23 117.389 626.52C118.559 628.63 122.069 627.48 123.499 630.77C124.639 633.39 123.899 635.92 123.609 638.58C123.319 641.23 122.289 647.87 118.999 647.8C117.939 647.77 117.349 647.11 116.959 645.89C116.809 645.41 116.009 644.72 115.659 644.19L113.729 641.39C112.259 639.26 112.919 637.64 114.139 635.71C115.349 633.79 115.599 631.07 116.169 628.85C115.179 626.86 111.729 627.15 107.929 625.31C107.339 625.04 106.419 624.03 105.749 623.55C105.339 623.26 104.979 622.21 104.689 621.73C101.449 616.39 105.529 612.62 107.979 607.48L110.329 602.57L113.249 597.34C113.629 596.65 114.129 595.94 114.369 595.17C115.329 592.23 116.169 589.09 117.999 586.65C119.539 584.62 120.959 583.03 121.699 580.46C122.589 577.28 123.869 573.15 125.499 570.36C129.509 563.47 128.499 560.44 132.829 555.41C135.699 552.08 139.689 548.96 143.919 551.68C145.549 552.72 146.359 554.56 146.569 556.89C146.869 560.07 145.649 563.28 144.319 566.21" fill="#90BEFB"/>
<path d="M191.32 631.18C190.7 631.92 187.56 632.32 186.6 631.88C186.15 631.67 185.82 631 185.49 630.25C185.23 629.7 185.48 629.11 185.78 628.45L187.58 624.6C187.88 623.95 189.83 623.75 190.41 624.2C192.37 625.76 192.21 630.14 191.33 631.18" fill="#90BEFB"/>
<path d="M364.56 491.93L362.05 500.94C360.87 505.15 361.15 506.17 358.62 510.41L355.31 515.98C352.76 520.26 347.89 526.34 342.46 526.86C341.14 526.98 338.44 525.78 337.95 524.47C336 519.33 338 514.4 341.24 510.44C346.71 503.74 347.43 490.4 345.56 482.15C345.2 480.6 344.86 479.11 344.63 477.53C344.34 475.49 344.31 473.26 343.46 471.38C341.65 467.31 341.24 467.66 339.18 463.79C337.04 459.8 335.38 456.12 337.82 451.83C341.36 448.87 346.11 449.69 348.93 453.1L351.45 456.16L353.67 459.11L357.63 464.76L359.54 467.2C359.99 467.79 360.64 468.74 360.86 469.44C361.79 472.53 362.89 475.42 363.56 478.51L365.12 485.6C365.57 487.67 365.11 489.89 364.54 491.92" fill="#90BEFB"/>
<path d="M170.149 182.54C169.109 181.83 169.809 178.93 170.949 178.47C171.619 178.2 172.539 178.37 173.199 179.24C173.839 180.06 171.459 183.47 170.149 182.55" fill="#90BEFB"/>
<path d="M427.42 182.86C425.44 184.3 423.09 184.92 421 183.93C419.57 183.27 417.91 182.56 416.98 181.42C415.14 179.18 414.39 176.7 413.18 174.23L410.79 169.35C409.82 167.35 407.69 163.01 407.11 160.95C406.57 159.06 405.79 157.66 404.9 155.96L402.64 151.63C401.13 148.73 400.38 145.5 398.66 142.73C394.64 136.27 394.48 132.15 392.16 128.5L389.1 123.64C387.04 120.4 386.85 114.12 389.43 111.58C392.59 108.48 397.67 109.45 400.87 111.58C401.84 112.22 404.05 116.22 404.55 117.74C405.43 120.43 407.42 124.02 408.54 126.88C409.95 130.48 410.57 134.4 412.51 137.77L414.57 141.35C415.44 142.87 416.16 144.38 416.86 146.01L419.45 151.95L421.52 156.11C422.11 157.29 422.92 158.51 423.39 159.69C423.95 161.1 424.46 162.41 425.09 163.68L427.38 168.29C428.13 169.8 428.71 171.31 429.42 172.93C430.89 176.3 430.48 180.64 427.42 182.86Z" fill="#90BEFB"/>
<path d="M422.919 304.48C418.739 307.13 412.739 305.69 409.679 301.82L407.939 299.64C406.789 298.17 405.609 296.72 404.539 295.13C401.439 290.49 401.919 290.36 399.849 285.09L397.889 280.12C396.929 277.68 395.559 272.03 395.599 269.58C395.679 265.23 396.339 260.8 397.929 256.81C398.729 254.82 399.329 253.02 400.129 251.03L401.579 247.38C402.319 245.53 402.879 243.85 404.089 242.25L406.049 239.63L407.939 237.21C410.449 233.99 414.169 230.32 418.609 230.35C420.079 230.35 422.049 230.62 422.999 231.87C425.349 234.94 423.729 240.03 421.519 243.2L419.749 245.74C418.859 247 418.259 248.65 417.539 250.13C416.639 252 416.369 254.16 415.669 256.19C414.809 258.7 414.039 261.14 413.799 263.86C413.399 268.37 413.539 272.97 414.719 277.39C415.119 278.86 415.869 280.34 416.129 281.81C416.859 285.94 419.859 292.3 422.589 295.56C424.909 298.32 424.999 303.16 422.909 304.48" fill="#90BEFB"/>
<path d="M27.9795 519.64C28.3795 522.47 27.5095 525.48 24.9895 526.83C22.8795 527.95 20.3695 527.09 18.3995 525.87C16.7495 524.85 12.2395 520.46 11.3195 518.91L8.32952 513.93L6.70952 511.67C3.72952 507.51 2.64952 502.35 1.46952 497.46L0.389523 493.03C-0.820477 488.04 1.08952 483.81 1.94952 478.54C2.53952 474.92 3.52952 471.59 4.77952 468.11C6.36952 466.35 8.05952 464.52 9.19952 462.44L10.3795 460.27C11.3695 458.46 12.6195 456.87 14.0395 455.36L16.1095 453.16C18.3895 450.77 21.8495 447.45 25.5495 449.43C26.3195 449.83 27.4195 450.58 28.0895 451.12C29.6395 453.64 29.1495 456.68 27.6395 459.12L25.6195 462.38C24.9895 463.4 24.4795 464.44 23.8395 465.49L21.9895 468.54C21.0295 470.12 20.0795 472.19 19.5895 473.99C18.8095 476.93 17.1195 484.83 17.2595 487.39L17.5295 492.73C17.7595 497.04 19.2595 504.17 21.6095 507.68L25.8195 513.98C26.1095 514.4 27.7995 518.34 27.9895 519.63" fill="#90BEFB"/>
<path d="M27.4996 304.24C26.5396 305.36 24.3696 305.91 22.8996 305.94C19.1796 306.02 16.5396 304.93 14.2296 302.17L12.2396 299.78C11.5696 298.99 10.6796 297.94 10.0996 297.09L7.42962 293.08C7.12962 292.64 6.79962 291.87 6.49962 291.37C5.56962 289.79 4.69962 288.26 4.09962 286.53C3.31962 284.27 2.50962 282.11 1.99962 279.78C1.07962 275.58 -0.25038 272.06 0.45962 267.67L1.99962 258.37C2.62962 254.57 3.43962 250.66 5.50962 247.45L8.97962 242.04L10.5396 239.64C12.6896 236.35 13.2396 235.51 16.1196 232.67C18.5596 230.24 22.1996 229.05 25.3096 230.04C27.7596 230.82 28.4396 232.7 28.4096 235.02C28.3996 237.13 28.0896 238.81 26.9996 240.56L23.8196 245.64L22.3796 248.16C21.7396 249.27 21.3896 250.79 20.8296 251.9C19.7096 254.16 18.8796 256.22 18.4396 258.77C17.4396 264.54 16.8496 270.4 18.0996 276.21C18.5396 278.25 18.6396 280.53 19.4696 282.43L21.8596 287.86C23.8496 289.74 23.3396 290.93 24.5496 292.73L26.5796 295.76C28.2296 298.22 29.6796 301.66 27.4996 304.24Z" fill="#90BEFB"/>
</g>
</g>
<defs>
<clipPath id="clip0_2553_11119">
<rect width="521.57" height="690.16" fill="white"/>
</clipPath>
</defs>
</svg>
