<svg width="387" height="68" viewBox="0 0 387 68" fill="none" xmlns="http://www.w3.org/2000/svg">
<g clip-path="url(#clip0_2561_3803)">
<mask id="mask0_2561_3803" style="mask-type:luminance" maskUnits="userSpaceOnUse" x="0" y="0" width="387" height="68">
<path d="M386.26 0H0V67.17H386.26V0Z" fill="white"/>
</mask>
<g mask="url(#mask0_2561_3803)">
<path d="M41.97 62.1396C42.09 62.2496 42.2 62.6196 42.09 62.7196L41.67 63.0996L40.56 64.1296L39.82 64.8396C39.5 65.1396 39.14 65.6196 38.72 65.7396C38.18 65.8996 37.96 65.3496 37.69 65.0896C37.13 64.5796 36.62 64.0896 36.13 63.5296L35.41 62.6996C34.99 62.2196 34.16 62.5496 33.85 63.0196C33.61 63.4096 33.29 63.6596 32.96 63.9496C31.11 65.5696 31.21 66.4196 30.27 65.4596L28.08 63.2396C27.69 62.8496 27.64 62.5096 27.07 62.4796C26.44 62.4496 26.39 62.7896 25.99 63.1896L23.5 65.7196C23.38 65.8496 22.99 65.8396 22.86 65.7196L19.75 62.6696C19.21 62.1396 18.69 62.7096 18.42 62.9996C17.45 64.0396 16.55 64.9196 15.51 65.9196C14.93 65.6696 14.63 65.2096 14.21 64.8096C13.57 64.1996 12.95 63.6096 12.4 62.9096C12.06 62.4896 11.35 62.3096 10.98 62.7296C10.73 63.0196 10.48 63.2696 10.22 63.5396L9.56 64.2096L8.67 65.0996C8.43 65.3396 8.05 66.0896 7.6 65.7796C7.06 65.3996 6.52 64.8496 6.04 64.3596L2.39 60.7196L1.54 59.8896C1.14 59.4996 0.66 58.9796 0.31 58.5596C-0.16 57.9896 0.67 57.5996 0.94 57.2996C1.6 56.5696 2.19 55.9596 2.95 55.3396C3.19 55.1396 3.47 54.8296 3.49 54.5896C3.52 53.8696 2.84 53.4396 2.49 53.1096C1.61 52.2796 0.79 51.4496 0 50.5996V50.4796C0.14 50.2996 0.31 50.0696 0.48 49.8996L2.75 47.7196C3.13 47.3496 3.85 46.7896 3.34 46.1296C3.05 45.7496 2.48 45.3096 2.11 44.9396L0.56 43.3596C0.39 43.1896 0.2 42.9096 0.21 42.6796C0.21 42.5196 0.41 42.2496 0.56 42.1096L2.62 40.1096C3.1 39.6496 3.76 39.0896 3.41 38.3496C2.73 37.8696 2.33 37.3996 1.86 36.9496L0.43 35.6096C0.29 35.4796 0.09 35.1996 0.1 35.0396C0.1 34.8796 0.3 34.5996 0.43 34.4596L1.19 33.6696L1.98 32.8896L3.44 31.4996C3.46 31.2496 3.45 30.8296 3.44 30.5996C2.34 29.6196 1.23 28.6396 0.33 27.4996C-0.07 26.9996 0.69 26.4296 0.97 26.1596L3.15 24.0396C3.34 23.8496 3.59 23.5796 3.58 23.3396C3.57 23.1696 3.38 22.8496 3.22 22.6996L2.49 21.9996L0.38 19.9096C0.27 19.7896 0.1 19.5396 0.1 19.3996C0.1 19.2596 0.27 19.0196 0.39 18.8996L2.78 16.4996C2.98 16.2996 3.35 15.7696 3.71 15.9696L6.23 18.4896L6.84 19.1096C6.98 19.2496 7.37 19.4296 7.58 19.4296C7.78 19.4296 8.07 19.1496 8.23 18.9696L9.02 18.0796L10.38 16.6896C10.62 16.4396 10.97 15.9496 11.32 15.9396C11.68 16.0796 12.03 16.4596 12.29 16.7396L13.52 18.0296C13.91 18.4396 14.3 18.9496 14.72 19.2896C15.16 19.6496 15.55 19.3296 15.81 19.0396L16.9 17.8496L17.57 17.2196C18.16 16.6496 18.45 16.0596 18.95 15.9996C19.41 15.9496 19.8 16.5896 20.49 17.2596L21.22 17.9696C21.74 18.4696 22.31 19.2996 22.81 19.4096C23.02 19.4496 23.4 19.2196 23.58 19.0296L26.26 16.2196C26.56 15.8996 27.05 15.9596 27.32 16.2896C27.61 16.6396 27.93 16.9396 28.23 17.2596L29.76 18.8696C30.07 19.1996 30.3 19.5896 30.95 19.2796C31.37 19.0896 31.75 18.4996 32.12 18.1496L32.93 17.3896C33.76 16.6096 33.39 16.6796 34.54 15.8496C34.88 16.0896 35.21 16.3896 35.5 16.6996L36.19 17.4396L36.97 18.2196L37.63 18.8696L39.38 20.5796L40.09 21.3096L40.8 22.0396C41.24 22.4996 41.84 22.8496 42.15 23.4396C42.23 23.7996 41.72 24.0596 41.51 24.2796L38.82 26.9496C38.37 27.3896 38.99 28.2196 39.34 28.4596C39.61 28.6496 39.79 28.8396 39.99 29.0396L41.54 30.5996C41.71 30.7696 42.09 31.0496 42.16 31.2596C42.28 31.6496 41.76 31.8796 41.57 32.0696L39.17 34.4696C39.03 34.6096 38.73 34.7596 38.54 34.7396C38.38 34.7196 38.19 34.4996 38.01 34.3296L28.01 24.3196C27.67 23.9796 27.6 23.6096 27.04 23.5996C26.56 23.5996 26.38 23.8996 26.05 24.2396L23.76 26.5996C23.58 26.7796 23.34 26.9996 23.12 26.9996C22.74 26.9996 22.12 26.1296 21.56 25.5896L20.66 24.7096C20.33 24.3896 20.01 23.9496 19.63 23.7496C19 23.4196 18.69 23.7796 18.34 24.1896C17.29 25.3996 16.89 25.5596 15.96 26.7196C15.86 26.8396 15.6 27.0196 15.46 27.0096C15.32 27.0096 15.07 26.8496 14.95 26.7296L12.7 24.4296C12.38 24.0996 12.08 23.7196 11.58 23.6196C11.16 23.5296 11.03 23.8296 10.81 24.0696C10 24.9496 9.18 25.7596 8.3 26.5696C8.11 26.7496 7.86 26.9296 7.79 27.0996C7.72 27.2696 7.79 27.7696 7.91 27.9096L10.83 30.8296C10.97 30.9696 11.23 31.0896 11.24 31.2296C11.27 31.7996 10.65 32.0696 10.36 32.3396L8.35 34.2796C8.04 34.5796 7.72 34.7996 7.74 35.2796C7.76 35.6996 8.07 35.8796 8.35 36.1696L10.94 38.7196C11.09 38.8696 11.08 39.3496 10.94 39.4796L8.88 41.5096C8.55 41.8296 8.1 42.0996 7.86 42.5096C7.65 42.8396 7.74 43.3096 7.99 43.5496L9.57 45.0896L10.35 45.8596C10.68 46.1796 11.24 46.4696 11.23 47.0596L8.83 49.4496L8.26 49.9596C8.03 50.1696 7.75 50.4296 7.72 50.6996C7.69 50.9396 7.86 51.3196 8.04 51.4896L9.03 52.4196L9.69 53.0896L11.24 54.6396L12.07 55.4696L14.44 57.8996C14.6 58.0696 14.89 58.2896 15.07 58.2996C15.32 58.3196 15.57 58.1296 15.75 57.9496L18.57 55.1296C18.71 54.9896 19.14 54.8896 19.31 54.9696C19.47 55.0396 19.67 55.3096 19.84 55.4896L22 57.7296C22.22 57.9596 22.43 58.2696 22.73 58.2896C22.98 58.2996 23.34 58.1496 23.52 57.9696L24.76 56.6696L25.59 55.8396C25.9 55.5196 26.21 55.0096 26.72 54.9496C27.15 54.8996 27.4 55.4196 27.65 55.6596L28.46 56.4296L29.25 57.1996L30.12 58.1296C30.53 58.5696 31.24 58.1296 31.54 57.7396C31.85 57.3396 32.14 56.9896 32.49 56.6596L34.09 55.1296C34.37 54.8596 34.3 54.0196 34.03 53.7796C33.64 53.4296 33.32 53.1496 32.96 52.7896L30.92 50.7396C30.8 50.2796 31.41 49.9196 31.67 49.6596L32.46 48.8796L33.19 48.1596C33.56 47.7896 33.99 47.0596 34.44 47.0596C34.58 47.0596 34.81 47.2196 34.95 47.3596L41.69 54.0896C41.91 54.3096 42.11 54.5696 42.05 54.8896C42.01 55.0796 41.72 55.2496 41.54 55.4296L39.35 57.5396C39.05 57.8296 38.6 58.1596 38.63 58.6196C38.66 59.1696 39.15 59.4396 39.48 59.7696L41.95 62.2096L41.97 62.1396Z" fill="#90BEFB"/>
<path d="M385.06 47.7196L382.66 50.1096C382.7 51.2496 383.15 51.1796 384.06 52.0796L384.91 52.9196L385.84 53.7896C386.05 53.9896 386.12 54.4096 385.88 54.6096C384.6 55.6996 384 56.5896 383.2 57.1996C382.85 57.4596 382.62 57.8396 382.68 58.2696C382.74 58.6996 383.14 58.9496 383.47 59.2496L385.45 61.0996C385.7 61.3396 386.2 61.6496 386.21 62.0096C386.22 62.3196 385.72 62.5596 385.54 62.7396L383.16 65.0396C383.02 65.1796 382.79 65.3796 382.61 65.4096C382.45 65.4296 382.2 65.2096 382.05 65.0796C381.32 64.3796 380.6 63.7596 379.91 63.0296C379.53 62.6196 379.26 62.2296 378.53 62.1496C378.17 62.1096 378.06 62.4096 377.86 62.6096L375.65 64.8296C375.44 65.0396 375.09 65.5196 374.74 65.3696C374.29 65.1796 373.99 64.7296 373.66 64.3896C373.13 63.8796 372.5 63.3796 372.07 62.7596C371.85 62.4596 371.09 61.8596 370.69 62.2496L368.67 64.1596C368.09 64.7096 367.45 65.5096 367.11 65.4196C366.98 65.3796 366.77 65.2296 366.64 65.1096L365.96 64.4696C365.31 63.8596 364.73 63.2796 364.12 62.5996C363.91 62.3696 363.18 61.9896 362.93 62.2296L360.84 64.2396C360.29 64.7796 359.58 65.7596 359.13 65.3096L344.02 50.2396C343.84 49.9296 344.26 49.6696 344.42 49.5096L346.95 47.0296C347.08 46.8996 347.27 46.7096 347.4 46.6796C347.57 46.6296 347.86 46.8096 348.02 46.9696L357.85 56.7996C358.27 57.2296 358.47 57.7196 359.17 57.8096C359.55 57.8596 359.67 57.5996 359.91 57.3496L362.63 54.5996C362.76 54.4696 363.23 54.3996 363.36 54.5296L366.52 57.7096C366.69 57.8796 367.19 57.8096 367.35 57.6496L370.47 54.5496C370.83 54.1996 371.33 54.7196 371.54 54.9396L373.86 57.2996C374.03 57.4696 374.23 57.7396 374.41 57.7896C374.6 57.8396 375.05 57.7396 375.18 57.5996L375.88 56.8596L376.52 56.1696C377.04 55.6096 377.56 55.0796 378.19 54.5896C378.26 54.3496 378.27 53.8496 378.23 53.5296L375.19 50.4896C375.07 50.3696 374.98 49.9396 375.07 49.7996C375.15 49.6596 375.36 49.4996 375.53 49.3396L377.84 47.1196C378.14 46.8296 378.32 46.7196 378.31 46.2196C378.3 45.7296 378.07 45.5896 377.77 45.2796L372.8 40.3596C372.53 40.0896 372.26 39.8896 372.03 39.5396C371.78 39.1696 370.93 38.4696 370.51 38.9296L368.64 40.8996L367.98 41.5696C367.78 41.7696 367.43 42.3596 367.09 42.2396C366.57 42.0596 366.26 41.5096 365.92 41.1396L364.34 39.4696C364.02 39.1396 363.36 38.4396 362.85 38.9496L361.02 40.7996L360.34 41.4596C360.15 41.6396 359.87 42.0496 359.64 42.1396C359.07 42.3496 358.78 41.7896 358.51 41.4996L356.86 39.7796C356.5 39.4096 356.06 38.7696 355.48 38.7696C354.71 39.0096 354.28 39.7796 353.74 40.3096C353.13 40.9096 352.54 41.5696 351.95 42.0896C351.43 42.5396 350.97 41.7796 350.72 41.5296L349.89 40.6796L349.12 39.8996L348.47 39.2296L344.41 35.1796C344.26 35.0296 344.01 34.8496 343.98 34.6896C343.93 34.4796 344.17 34.2496 344.34 34.0796L346.42 32.0696C346.84 31.6696 347.5 31.3496 347.5 30.6296C347.51 30.1996 346.98 29.9296 346.71 29.6696L344.7 27.7196C344.5 27.5296 344.18 27.3296 344 27.0796C343.83 26.8196 344.24 26.5296 344.39 26.3696L346.32 24.4496L347.29 23.5296C347.42 23.4096 347.57 23.0596 347.58 22.8896C347.59 22.7096 347.36 22.4196 347.17 22.2696C345.93 21.2896 346.1 21.1596 345.13 20.2596L344.24 19.4396C344.12 19.3296 343.94 19.0096 343.98 18.8496C344.02 18.6996 344.26 18.4996 344.41 18.3596C345.28 17.5396 346.09 16.7296 346.91 15.8596C347.06 15.6996 347.32 15.4196 347.49 15.4296C347.7 15.4296 347.92 15.6896 348.09 15.8596L350.23 18.1196C350.56 18.4696 350.76 18.8496 351.18 18.9196C351.85 19.0396 351.94 18.6696 352.32 18.2796L354.55 15.9896C354.74 15.7896 355.09 15.2596 355.39 15.4496L357.85 17.9196C358.28 18.3496 358.58 18.9096 359.31 18.9796C359.53 18.9996 359.8 18.5796 359.96 18.3996L362.15 16.1596C362.39 15.9196 362.58 15.5596 362.93 15.5396C363.26 15.5096 363.57 15.7796 363.81 16.0296L365.44 17.7496C365.84 18.1696 366.19 18.7396 366.77 18.8996C367.24 19.0296 367.38 18.7696 367.62 18.5196C368.59 17.5096 369.59 16.4896 370.62 15.5496C371.02 15.1896 371.41 15.8996 371.62 16.1196L382.34 26.8496L384.19 28.7196L384.77 29.3196L385.58 30.0896C385.81 30.3096 386.26 30.5796 386.26 30.9096C386.26 31.2696 385.85 31.4496 385.66 31.6396L383.21 34.0996C383.04 34.2696 382.7 34.7496 382.37 34.4796C382.01 34.1796 381.68 33.8096 381.37 33.4496C380.79 32.7996 380.17 32.1996 379.54 31.5896L378.87 30.9396L378.08 30.1796L377.31 29.3896L372.28 24.2896C372.06 24.0596 371.28 23.0596 370.69 23.0896C370.52 23.0896 370.33 23.4696 370.19 23.6196L367.85 26.0696C367.67 26.2496 367.33 26.8696 366.93 26.4996C366.06 25.6896 365.21 24.8196 364.39 23.9396C364.06 23.5896 363.76 23.1596 363.22 23.1396C362.82 23.1296 362.63 23.5796 362.39 23.8196L360.49 25.6696C360.16 25.9896 359.85 26.5996 359.25 26.5796C358.4 25.7896 357.58 24.9696 356.8 24.1196C356.4 23.6896 355.99 23.2996 355.45 23.0196L352.39 26.0196C352.05 26.3496 351.65 26.4296 351.7 26.9796C351.74 27.4096 351.96 27.6896 352.33 27.9996C352.71 28.3196 353.07 28.6896 353.43 29.0496L354.44 30.0596L355.14 30.7896L355.79 31.4596L358.65 34.3196C358.77 34.4396 359.22 34.5096 359.39 34.4696C359.59 34.4296 359.79 34.1096 359.97 33.9296L362.39 31.4596C362.54 31.2996 362.7 31.1196 362.87 31.0196C363.02 30.9296 363.39 31.0796 363.53 31.2296L365.49 33.3396C365.95 33.8296 366.31 34.3196 367 34.5696C367.4 34.2096 367.74 33.9096 368.08 33.5496L370.71 30.9096C371.21 30.9696 371.38 31.3996 371.67 31.6896L377.8 37.8496L378.73 38.8296L379.34 39.4096L380.18 40.2396L380.87 40.9796L385.69 45.8096C385.87 45.9796 386.33 46.2096 386.19 46.5696C385.99 47.0496 385.43 47.3696 385.05 47.7496" fill="#90BEFB"/>
<path d="M340.09 23.1597C339.88 23.8197 339.37 24.0497 338.96 24.4597L338.25 25.1797L337.53 25.9197C337.22 26.2397 336.89 26.7797 336.33 26.7797L333.94 24.3697C333.64 24.0697 333.34 23.5997 333 23.4497C332.38 23.1897 332.12 23.5697 331.81 23.8897L329.64 26.1497C329.4 26.3897 329.06 26.9697 328.61 26.6797C328.44 26.5597 328.13 26.2997 327.98 26.1497L327.19 25.3597L326.54 24.6997L325.65 23.7797C325.34 23.4597 324.8 23.1597 324.42 23.5397L321.7 26.2097C321.51 26.3897 321.21 26.5297 321.17 26.7197C321.11 26.9397 321.15 27.4997 321.31 27.6697L323.05 29.3897L324.18 30.5197C324.5 30.8397 324.6 31.2497 324.2 31.5997C323.9 31.8597 323.59 32.1597 323.29 32.4497L322.51 33.2297C321.78 33.9397 321.58 34.5797 320.84 34.4997L318.4 32.0097L317.69 31.2597C317.5 31.0697 317.13 30.9697 316.9 31.1897L313.95 34.0897C313.7 34.3297 313.46 34.4097 313.47 34.8597C313.5 35.6897 313.72 35.5197 314.48 36.2697L315.44 37.2297L316.21 38.0097C316.41 38.1997 316.71 38.4197 316.76 38.6297C316.88 39.1797 316.42 39.3397 315.74 40.0597C315.22 40.6197 314.68 41.1597 314.12 41.6597C313.75 41.9797 313.5 42.1997 313.48 42.6697C313.43 43.4797 313.95 43.4497 314.89 44.4397L315.66 45.2397C315.89 45.4797 316.11 45.7497 316.4 45.9397C316.82 46.1997 316.89 46.8097 316.51 47.1797L315.08 48.5997C314.3 49.3697 313.51 49.7597 313.48 50.4297C313.45 51.1397 314.11 51.4497 314.75 52.0997L316.48 53.8497C316.74 54.1197 316.81 54.5497 316.54 54.8197L314.49 56.8497C314.23 57.1097 313.91 57.3797 313.6 57.6397C313.18 58.8297 313.96 59.0497 314.81 59.9197L315.6 60.7097C315.83 60.9497 316.12 61.2597 316.4 61.4597C316.62 61.6197 316.94 62.2697 316.7 62.5097L313.56 65.6397C313.04 65.6697 312.72 65.1697 312.39 64.8497L306.13 58.5997C305.98 58.4497 305.73 58.2397 305.72 58.0797C305.71 57.9197 305.92 57.6397 306.05 57.5097L306.93 56.6997L308.02 55.6197C308.35 55.2897 309.02 54.8697 309.13 54.4097C309.31 53.6997 308.52 53.2697 308.14 52.8997L307.31 52.0597L306.11 50.8397C305.99 50.7197 305.8 50.5297 305.74 50.4097C305.67 50.2697 305.87 49.9497 306 49.8197L308.42 47.4597C308.74 47.1497 309.16 46.8797 309.17 46.3597C309.17 45.9397 308.74 45.6197 308.42 45.3097L306.22 43.2197C306.03 43.0297 305.41 42.6697 305.79 42.2997L308.29 39.8097C308.62 39.4797 308.99 39.2397 309.14 38.6797C309.25 38.2597 308.77 37.8297 308.42 37.5597C308.06 37.2797 307.78 36.9197 307.47 36.6097L305.88 35.0697C305.69 34.8897 305.76 34.5097 305.91 34.3497L307.36 32.9197L308.1 32.1997C308.47 31.8497 309.11 31.3697 309.15 30.8197C309.2 30.2797 308.23 29.6997 307.56 28.9797L306.81 28.1697C306.51 27.8497 305.93 27.4997 305.76 27.1197C305.52 26.5897 306.14 26.3697 306.41 26.1197C307.17 25.3997 307.85 24.7197 308.56 23.9597C308.77 23.7297 309.13 23.1997 309.52 23.5697C310.38 24.3897 311.22 25.1997 312 26.1197C312.37 26.5597 313.1 27.3797 313.72 26.6797L314.71 25.5797L316.96 23.3597C317.07 23.1197 316.76 22.6197 316.55 22.4197L313.81 19.7597C313.67 19.6297 313.48 19.3397 313.48 19.1797C313.48 19.0197 313.68 18.7497 313.82 18.6197L314.74 17.7397L316.34 16.0997C316.48 15.9597 316.74 15.7497 316.9 15.7497C317.07 15.7497 317.36 15.9297 317.49 16.0597L318.21 16.7897L318.88 17.4497C319.14 17.6997 319.39 17.9397 319.63 18.2797C319.95 18.7297 320.76 19.4897 321.31 18.9197L322.3 17.8897L323.69 16.4897C323.95 16.2297 324.26 15.6497 324.73 15.7197C325.19 15.7797 325.54 16.3697 325.84 16.6697L326.4 17.1997L326.93 17.7597C327.38 18.2297 327.83 18.8397 328.43 19.0997C328.86 19.2897 329.13 18.7397 329.35 18.5197L332.1 15.7697C332.7 15.6297 333.08 16.2397 333.38 16.5497L334.35 17.5097L340.05 23.1797L340.09 23.1597Z" fill="#90BEFB"/>
<path d="M218.86 63.2002C219.03 63.3602 219.21 63.6502 219.19 63.8802C219.17 64.0602 218.85 64.2602 218.68 64.4202L216.02 66.9902C215.58 67.4102 215.09 66.7102 214.86 66.4702L213.17 64.8102C212.43 64.0802 212.53 63.6302 211.5 63.8402C211.26 63.8902 211.05 64.1902 210.82 64.4402L208.18 67.1702H207.7L205.1 64.5102C204.98 64.0102 204.61 63.8202 204.12 63.8002C203.62 63.7702 203.5 63.9502 203.22 64.2602L201.07 66.5202C200.82 66.7902 200.59 67.0002 200.29 67.1702H200.17C199.08 66.3502 198.85 65.7602 197.71 64.8602C197.42 64.4802 197.09 64.0802 196.68 63.8602C196.32 63.6602 195.83 63.7402 195.65 64.0502C195.47 64.3902 195.25 64.6002 194.98 64.8602L194.2 65.6102L193.43 66.4002C193.13 66.7102 192.89 66.9802 192.53 67.1702H192.41L189.92 64.7602C189.63 64.2302 189.11 63.8002 188.47 63.7302C188.28 63.7102 188.02 64.0702 187.89 64.2002L185.77 66.4002C185.48 66.7002 185.25 66.9902 184.89 67.1702H184.77L183.32 65.8402L182.51 65.0202L181.73 64.2402L180.91 63.3902L179.4 61.9102L178.61 61.1402L177.96 60.4802C177.67 60.1902 177.45 59.9102 177.11 59.4902L180.09 56.5402C180.3 56.3302 180.62 56.1502 180.61 55.8902C180.58 55.0602 179.98 54.7602 179.61 54.4102L177.07 51.9102C177.27 51.1902 178.19 50.6302 178.85 49.9202C179.25 49.5002 179.61 49.1202 180.07 48.7602C180.42 48.4802 180.78 48.0102 180.51 47.5502C180.27 47.1402 179.78 46.8202 179.44 46.4702C178.84 45.8402 178.27 45.1802 177.6 44.6202C177.23 44.3102 177.15 43.9402 177.51 43.5702L179.28 41.7602C179.78 41.2502 180.99 40.4102 180.53 39.7802C180.19 39.3202 179.67 38.9502 179.27 38.5602L178.61 37.9102L177.33 36.6602C177.14 36.4702 177.13 36.0902 177.33 35.8902L179.4 33.8602C179.76 33.5202 180.26 33.1802 180.51 32.7702C180.81 32.2702 180.49 31.8902 180.17 31.5902L178.69 30.1702L177.64 29.1002C177.28 28.7302 177.27 28.2002 177.64 27.8402L179.21 26.3202L180.15 25.4602C180.39 25.2402 180.63 24.9502 180.62 24.6602C180.62 24.0702 179.96 23.7302 179.46 23.2302L178.69 22.4502L177.9 21.6602C177.66 21.4202 177.36 21.0602 177.15 20.7902C177.18 20.2602 177.59 20.0702 177.91 19.7702C178.55 19.1702 179.16 18.5702 179.77 17.9302C180.04 17.6502 180.26 17.2402 180.73 17.1602L183.23 19.6902C183.38 19.8402 184.22 20.9102 184.77 20.7302C184.93 20.6802 185.16 20.4002 185.31 20.2402L187.58 17.8602C187.76 17.6702 188.1 17.0902 188.42 17.2402C188.89 17.4602 189.26 17.9302 189.61 18.3002L191.6 20.4002C191.75 20.5602 192.11 20.7502 192.3 20.7202C192.47 20.6902 192.8 20.4802 192.91 20.3502L193.77 19.3902L195.21 17.8602C195.43 17.6302 195.65 17.3402 195.94 17.3102C196.61 17.2302 196.79 17.8502 197.57 18.5902L198.26 19.2402C198.71 19.6602 199.15 20.3302 199.68 20.6202C200.19 20.9002 200.67 20.3402 200.95 20.0302L202.63 18.2202C202.93 17.8902 203.27 17.4802 203.73 17.2802C204.09 17.1202 204.47 17.6902 204.68 17.9202L206.85 20.1802C207.13 20.4702 207.28 20.8002 207.83 20.6702C208.28 20.5602 208.55 20.1302 208.86 19.8102L211.48 17.1602C211.92 17.2202 212.13 17.6102 212.39 17.8702L215.19 20.6702L215.98 21.4202L216.69 22.1502L217.57 23.0502C217.95 23.4402 218.31 23.8202 218.74 24.1502C218.97 24.3302 219.2 24.6002 219.15 24.8702C219.11 25.1302 218.86 25.3202 218.64 25.5302L216.26 27.8002C215.88 28.1602 215.67 28.4302 215.8 29.0402C215.88 29.4402 216.27 29.6602 216.6 29.9702L217.4 30.7302L218.08 31.3802C218.29 31.5902 218.49 31.8602 218.73 32.0302C218.96 32.2002 219.21 32.4802 219.15 32.7502C219.11 32.9502 218.79 33.1902 218.61 33.3702L217.7 34.2602L216.97 34.9702L216.1 35.8902C215.99 36.0102 215.56 36.0702 215.42 36.0002C215.28 35.9302 215.14 35.6902 214.96 35.5202L205.08 25.6302C204.69 25.2402 204.64 24.8202 203.99 24.8902C203.59 24.9402 203.4 25.2502 203.06 25.6002L200.76 27.9402C200.62 28.0902 200.36 28.3002 200.2 28.3002C200.04 28.3002 199.76 28.1002 199.63 27.9602L198.99 27.2702C198.47 26.7102 197.87 26.2502 197.4 25.6402C197.08 25.2202 196.54 24.8202 195.97 24.9402C195.75 24.9902 195.54 25.3902 195.39 25.5402L193.25 27.7302C193.03 27.9502 192.74 28.5202 192.29 28.2102C192.13 28.1002 191.83 27.8402 191.67 27.6802L190.82 26.8302L189.98 25.9902C189.54 25.5602 189.02 24.6202 188.23 24.9902C187.31 25.9902 186.35 27.0002 185.29 27.8802C185.06 28.0702 184.82 28.3602 184.81 28.5702C184.81 28.7702 184.95 29.1802 185.09 29.3202L188.4 32.6102C187.64 33.4202 186.95 34.1302 186.16 34.8502L185.03 35.8802C184.53 36.3302 184.88 37.0602 185.35 37.4102C185.84 37.7802 186.22 38.2102 186.64 38.6302L187.48 39.4602C187.8 39.7802 188.24 40.0802 188.02 40.6602C187.9 40.9802 187.46 41.2402 187.21 41.4902L185.04 43.6202C184.87 43.7802 184.79 44.2802 184.84 44.5202C184.88 44.7302 185.18 44.9302 185.39 45.1302L186.97 46.6402L187.72 47.3602C187.95 47.5902 188.13 47.8402 188.39 48.1802C188.01 48.6802 187.63 48.9802 187.22 49.4002L186.77 49.8602L186.03 50.5602L185.22 51.3202C185.01 51.5202 184.81 51.7902 184.81 52.0702C184.81 52.3502 185 52.6202 185.21 52.8202L186.02 53.5702L186.91 54.4702L190.77 58.3802L191.47 59.1202C191.68 59.3402 192.01 59.5802 192.29 59.5502C192.56 59.5102 192.8 59.2102 193.02 59.0002L193.87 58.1702L194.77 57.2902L195.63 56.4402C195.74 56.3402 196 56.1802 196.14 56.1702C196.28 56.1602 196.52 56.3402 196.64 56.4602L199.09 58.9202C199.36 59.1902 199.58 59.7302 200.14 59.5102C200.72 59.2802 201.12 58.6602 201.55 58.2202L203.33 56.4002C203.65 56.0702 204.13 56.1602 204.39 56.4802C204.63 56.7702 204.89 57.0202 205.15 57.2802L206 58.1202L206.73 58.8402C206.9 59.0202 207.22 59.4402 207.45 59.5302C208.1 59.6402 208.55 59.0502 208.94 58.6402L211.24 56.2002C211.8 55.6202 211.05 54.8502 210.54 54.5402C209.61 53.6502 209.4 53.2202 208.39 52.3802C208.18 52.2002 207.98 51.9102 208.05 51.6302C208.11 51.3602 209.1 50.5902 209.52 50.1702L210.3 49.3802L211 48.6302C211.12 48.4902 211.4 48.3002 211.56 48.2902C211.72 48.2902 211.99 48.5002 212.12 48.6402C212.48 49.0602 212.82 49.3702 213.19 49.7302L214.81 51.3402L217.35 53.9302C217.8 54.3802 218.19 54.7902 218.7 55.2102C218.89 55.3702 219.18 55.6802 219.17 55.8802C219.15 56.1302 218.91 56.4002 218.72 56.5902L216.47 58.7602C216.19 59.0402 215.75 59.3102 215.73 59.7302C215.69 60.3802 216.35 60.7602 217.01 61.4202L217.79 62.2002L218.83 63.1902L218.86 63.2002Z" fill="#90BEFB"/>
<path d="M139.14 26.6204C139.79 26.0404 140.38 25.4804 140.97 24.8504L141.67 24.1104C141.84 23.9404 142.11 23.5104 142.35 23.5104C143.14 23.4904 143.49 24.1304 143.92 24.6004C144.63 25.3604 145.37 26.1104 146.12 26.7904C146.55 27.1804 146.98 26.5304 147.2 26.3004L149.49 23.9504C149.63 23.8004 149.73 23.5504 149.87 23.5204C150.63 23.3404 151.33 24.3504 151.74 24.7404L153.97 26.8904C154.29 27.1004 154.7 26.5704 154.9 26.3604L156.97 24.2404C157.16 24.0404 157.42 23.6004 157.68 23.5604C158.39 23.4304 158.89 23.8404 159.13 24.4404L165.09 30.4004C165.66 30.9704 165.17 31.6104 164.73 32.0004C163.74 32.8504 162.93 33.7404 162 34.6504C161.81 34.8404 161.37 34.9104 161.14 34.6804L158.49 32.0103C158.25 31.7703 158.09 31.4904 157.73 31.4904C157.39 31.4904 157.21 31.7604 156.97 32.0004L155.21 33.8204L154.55 34.4904C154.4 34.6304 154.09 34.8404 153.91 34.8404C153.74 34.8404 153.41 34.6304 153.27 34.4904L150.86 32.0004C150.62 31.7504 150.45 31.5004 150.09 31.4804C149.77 31.4704 149.54 31.7104 149.3 31.9604L147.09 34.1804C146.87 34.4104 146.58 34.8204 146.24 34.8104C145.52 34.7804 145.23 34.1903 144.8 33.7603L140.17 29.0804C139.76 28.6704 139.29 28.2704 138.94 27.8404C138.59 27.4104 138.87 26.8904 139.16 26.6304M139.4 41.9004C140.23 41.1304 141 40.3504 141.8 39.5204C141.95 39.3604 142.2 38.9903 142.4 38.9403C143.54 39.3803 143.41 39.6804 144.47 40.7504L145.08 41.3604C145.41 41.6904 145.8 42.2604 146.2 42.4604C146.71 42.7204 146.95 42.0704 147.2 41.8204L149.5 39.4604C149.75 39.2004 149.85 38.8504 150.37 39.0604C150.87 39.2604 151.2 39.7103 151.57 40.1203C152.31 40.9303 153.09 41.6904 153.89 42.4504C154.22 42.7604 154.64 42.2404 154.82 42.0404L155.51 41.2904L157.08 39.6304C157.28 39.4204 157.51 39.1004 157.77 39.0704C157.97 39.0504 158.48 39.1304 158.62 39.2904L159.76 40.6203C159.97 40.8603 160.21 41.0704 160.42 41.2904L161.18 42.0804C161.35 42.2504 161.58 42.5304 161.78 42.5204C162.28 42.4904 162.75 41.7304 163.35 41.1404L164.15 40.3604C164.95 39.5804 164.99 38.8104 165.98 39.1104C166.35 39.2204 166.46 39.5603 166.76 39.8703L168.9 42.1003C169.05 42.2603 169.38 42.7004 169.57 42.5904C170.17 42.2304 170.54 41.7104 171 41.2504L171.6 40.6504L172.65 39.6703C172.86 39.4703 173.09 39.2604 173.11 38.9704C173.11 38.7604 172.86 38.5403 172.67 38.3703L170.21 36.0404C169.99 35.8304 169.7 35.4204 169.65 35.0904C169.58 34.6104 170.06 34.3004 170.34 34.0504L172.63 31.8904C172.82 31.7104 173.36 31.3204 173.03 30.9704C172.51 30.4004 171.95 29.8304 171.37 29.3104L170.6 28.6104C170.25 28.2904 169.42 27.7404 169.69 27.0704C170.25 26.3504 171.01 25.6604 171.69 25.0204L172.44 24.3104C172.67 24.0904 173.31 23.7704 173.06 23.3004C172.83 22.8604 172.25 22.5004 171.87 22.1304L167.49 17.8104L166.81 17.1704C166.24 16.6304 165.83 15.9904 165.48 15.9304C165.34 15.9104 165.04 16.0904 164.92 16.2204L162.92 18.2804C162.72 18.5004 161.95 19.5904 161.35 19.3604C161.22 19.3104 161.05 19.1404 160.91 19.0004L158.72 16.7604C158.38 16.4104 158.09 16.0404 157.58 15.9004L154.16 19.3304C153.81 19.6804 153.34 19.1004 153.14 18.9004L152.42 18.1804L150.84 16.5304C150.64 16.3204 150.34 16.0204 150.09 16.0204C149.77 16.0204 149.51 16.2804 149.29 16.5004L146.89 18.8804C146.69 19.0804 146.54 19.4404 146.26 19.4104C145.62 19.3504 145.11 18.6304 144.78 18.2904L142.39 15.8604C141.83 16.0704 141.57 16.4904 141.17 16.8904L140.53 17.5404L139.69 18.3704C139.14 18.9204 138.73 19.6504 138.26 19.3604C137.87 19.1204 137.57 18.8404 137.3 18.5004C137.05 18.1904 136.76 17.9404 136.47 17.6604L135.8 17.0104C135.51 16.7304 135.23 16.3504 134.9 16.1404C134.46 15.8604 134.18 16.1504 133.91 16.4304C133.21 17.1604 132.43 17.9404 131.71 18.6104C131.5 18.8104 130.87 19.2204 131.19 19.5804C131.94 20.3904 132.7 21.1504 133.51 21.9204C133.88 22.2704 134.49 22.6904 134.57 23.2004C134.67 23.8604 133.97 24.2004 133.58 24.5604L131.93 26.1304C131.6 26.4504 131.08 26.6704 131.13 27.2704C131.34 27.5204 131.68 27.8904 131.92 28.1304L133.32 29.5104L134.17 30.3204C134.33 30.4704 134.53 30.7504 134.58 30.9204C134.62 31.0904 134.47 31.5104 134.33 31.6404L133.09 32.7904C132.78 33.0904 132.5 33.3603 132.2 33.6903C131.87 34.0303 131.24 34.3904 131.17 34.9104C131.1 35.3804 131.75 35.7404 132.03 36.0204L132.87 36.8604C133.15 37.1404 133.42 37.4103 133.72 37.6703L134.36 38.2204C134.81 38.6104 134.51 39.2604 134.17 39.5704L133.41 40.2704L132.69 40.9704L131.23 42.5004C130.91 42.8404 131.33 43.1904 131.56 43.4104L134.13 45.8604C134.43 46.1404 134.55 46.5104 134.48 46.9704C134.44 47.2404 134.06 47.4504 133.8 47.7004L131.5 49.9403C131.33 50.1003 131.08 50.3504 131.12 50.5704C131.14 50.7504 131.38 51.0104 131.55 51.1604L134.12 53.6304C134.37 53.8604 134.61 54.3004 134.56 54.5704C134.49 54.9504 134.15 55.1303 133.86 55.4203L131.18 58.0504C131.08 58.1704 131.18 58.6203 131.33 58.7603L138.21 65.6104C138.39 65.7904 138.73 65.9303 138.88 65.8503C139.09 65.7403 139.25 65.5404 139.43 65.3604L141.77 62.9304C142.08 62.6004 142.33 62.1904 142.93 62.5404C143.29 62.7504 143.63 63.2703 143.96 63.6003L146.31 65.9804C146.93 65.7804 147.46 64.9804 148.1 64.3604L148.89 63.5904C149.69 62.8004 149.72 62.1604 150.68 62.5604C151.02 62.7004 151.29 63.1404 151.56 63.4304L153.64 65.5603C153.79 65.7103 154.15 65.8604 154.38 65.8304C154.54 65.8104 154.7 65.5503 154.87 65.3803L157.03 63.1604C157.15 63.0404 157.31 62.6704 157.45 62.5904C158.13 62.2104 158.87 62.6903 159.17 63.3703L159.81 64.0303L161.73 65.9704C162.12 65.9204 162.34 65.5504 162.57 65.3204L164.75 63.0704C165.07 62.7504 165.24 62.3804 165.74 62.4504C166.18 62.5104 166.39 62.8004 166.71 63.1304L168.86 65.3503C169.04 65.5403 169.46 66.0003 169.69 65.8803C170.16 65.6403 170.47 65.1804 170.81 64.8604C171.82 63.9104 171.62 63.9104 172.76 62.9604C172.91 62.8304 173.11 62.5704 173.11 62.4104C173.11 62.2704 172.94 62.0004 172.83 61.9004L172.18 61.3304C171.92 61.1004 171.67 60.8004 171.42 60.5504L170.69 59.8404L169.97 59.1203L169.08 58.2204L168.48 57.6203C167.63 56.7703 166.78 56.0103 166 55.1003C165.74 54.8003 165.32 54.7503 165.04 55.0303L162.94 57.1304C162.51 57.5604 162.08 58.2303 161.39 58.2603C160.84 57.9003 160.33 57.2804 159.87 56.8104L159.09 56.0204C158.59 55.5204 158.12 54.8104 157.73 54.8204C157.56 54.8204 157.25 55.0504 157.11 55.2004C156.39 56.0104 156.12 56.1604 155.52 56.8304L154.66 57.7803C154.49 57.9703 153.95 58.3804 153.71 58.2104C153.16 57.8304 152.78 57.3504 152.33 56.9004C151.81 56.3904 151.27 55.9104 150.81 55.3304C150.65 55.1304 150.4 54.8903 150.17 54.8503C149.98 54.8203 149.62 55.0103 149.46 55.1703L147.63 57.0504L146.99 57.7304C146.82 57.9104 146.56 58.1904 146.36 58.2504C146.19 58.3004 145.83 58.0904 145.69 57.9504L141.77 54.0004L141.29 53.5204L139.24 51.5103C138.99 51.2603 138.75 51.0603 138.78 50.6903C138.8 50.4503 138.98 50.1404 139.19 49.9604L139.77 49.4504L141.9 47.3904C142.13 47.1704 142.26 46.7604 141.99 46.4804C141.13 45.6104 140.3 44.7604 139.4 43.9504C139.05 43.6304 138.77 43.4003 138.77 42.9403C138.77 42.4403 139.07 42.2504 139.41 41.9304" fill="#90BEFB"/>
<path d="M252.32 62.9602L249.5 65.7102C249.32 65.8802 249.13 66.1602 248.95 66.2102C248.66 66.2902 248.42 66.0602 248.22 65.8402L246.04 63.6002C245.76 63.3102 245.59 62.9502 245.25 62.8902C244.63 62.7802 244.41 62.9102 244.07 63.2902L241.71 65.8202C241.55 65.9902 241.29 66.2702 241.11 66.2302C240.87 66.1902 240.68 65.9702 240.5 65.7802L238.23 63.4102C237.93 63.0902 237.87 62.8202 237.33 62.8302C236.76 62.8302 236.54 63.0002 236.23 63.4802C236 63.8502 235.48 64.2002 235.16 64.5402L233.96 65.8402C233.84 65.9702 233.66 66.1502 233.54 66.2002C233.42 66.2502 233.1 66.1002 232.99 65.9902L230.86 63.8502L228.1 61.1002L226.37 59.3702C226.12 59.1202 225.67 58.7902 225.79 58.3602C225.88 58.0302 226.32 57.7302 226.56 57.5002L227.24 56.8402L228.03 56.0902L228.9 55.2902C229.28 54.9502 229.11 54.1402 228.82 53.8802L227.52 52.7202L226.42 51.6802C226.2 51.4702 225.8 51.1202 225.76 50.8302C225.7 50.3302 226.26 50.1002 226.51 49.8302C226.98 49.3102 228.13 48.1602 228.62 47.7502C228.93 47.4802 229.09 47.3402 229.13 46.9002C229.18 46.3102 228.89 46.2002 228.54 45.8702L226.33 43.7902C226.11 43.5702 225.84 43.3702 225.83 43.1302C225.82 42.7602 225.97 42.4902 226.23 42.2502L228.7 39.9402C229.16 39.5102 229.42 38.8502 228.85 38.4002C228.68 38.2602 228.45 38.0702 228.29 37.9002L227.39 36.9902L226.45 36.0302C226.19 35.7602 225.77 35.5202 225.77 35.1102C225.77 34.7302 226.13 34.4402 226.4 34.1802L228.59 32.0802C228.83 31.8502 229.04 31.6602 229.13 31.3502C229.23 31.0202 229.04 30.7102 228.79 30.4702L226.39 28.2002C226.19 28.0102 225.77 27.6102 225.78 27.3402C225.79 26.7402 226.36 26.4802 226.69 26.1402L227.41 25.4102C227.67 25.1402 227.91 24.8902 228.19 24.6502L228.91 24.0402C229.11 23.8702 229.19 23.1402 229.01 22.9302C228.57 22.4302 227.94 21.8302 227.42 21.3502L226.55 20.5302C226.2 20.2002 225.79 19.7902 225.73 19.2802C226.65 18.3202 227.55 17.4602 228.5 16.6202C228.86 16.3002 229.11 16.0102 229.1 15.5802C229.1 15.0502 228.78 14.8302 228.39 14.4902C227.53 13.7102 226.68 12.8602 225.91 12.0202C225.49 11.5602 226.08 11.0202 226.33 10.7802L228.37 8.82023C228.77 8.44023 229.32 7.76023 228.76 7.19023L225.8 4.20023C225.7 4.10023 225.56 3.79023 225.6 3.66023C225.66 3.52023 225.85 3.30023 226 3.16023L226.69 2.52023L228.67 0.440234C228.97 0.130234 229.42 0.500234 229.63 0.710234L230.29 1.39023L233.45 4.55023L235.96 7.05023C236.22 7.30023 236.54 7.48023 236.59 7.82023C236.68 8.44023 236.02 8.79023 235.26 9.53023L234.52 10.2502L233.59 11.1202C233.41 11.2902 233.2 11.5602 233.19 11.7602C233.16 12.0002 233.31 12.3802 233.52 12.5502L234.38 13.2702L235.44 14.2502L235.77 14.6102C236.16 14.9302 236.49 15.2202 236.8 15.6402C236.66 15.9602 236.42 16.3102 236.19 16.5402L234.63 18.1202C234.24 18.5102 233.83 18.8802 233.45 19.3102C233.19 19.6102 233.4 20.2002 233.65 20.4102L234.5 21.1602C234.7 21.3402 234.93 21.6002 235.14 21.8102L236.02 22.7202L236.79 23.5102L238.39 25.1002L240.03 26.8202C240.3 27.1002 240.47 27.5002 240.99 27.2902C241.5 27.0802 241.84 26.5502 242.23 26.1702L244.25 24.1002C244.4 23.9602 244.77 23.8202 244.97 23.8502C245.2 23.9002 245.39 24.2002 245.58 24.4002L250.93 29.8002C251.37 30.2502 251.91 30.7002 252.27 31.1602C252.69 31.6802 251.98 31.9502 251.74 32.1802L249.07 34.7902C248.93 34.9302 248.5 34.8702 248.38 34.7602L246.28 32.6302L245.38 31.6402C245.25 31.5002 244.76 31.4502 244.55 31.5002C244.35 31.5402 244.17 31.8602 243.97 32.0802L241.76 34.4102C241.55 34.6402 241.18 35.1702 240.8 34.7902C239.94 33.9502 239.03 33.1102 238.28 32.1902C237.85 31.6602 237.33 31.1802 236.59 31.6402L236.17 32.2602C235.55 32.8102 235 33.3802 234.45 34.0102C234.14 34.3602 233.45 34.6702 233.39 35.2002C233.31 35.9102 234.08 36.2802 234.46 36.6502L236.81 39.0602C237 39.3902 236.42 39.7402 236.22 39.9402C235.23 40.8802 234.91 41.4102 233.88 42.2602C233.66 42.4402 233.39 42.7902 233.36 43.0102C233.32 43.3402 233.55 43.7002 233.82 43.9202C234.56 44.5202 235.14 45.1902 235.84 45.8502L236.58 46.5502C236.67 46.6302 236.82 46.8402 236.85 46.9502C236.88 47.0802 236.67 47.3102 236.56 47.4302L235.23 48.8502C234.99 49.1102 234.72 49.3802 234.46 49.6302L233.66 50.4102C233.5 50.5702 233.34 50.8902 233.34 51.1102C233.34 51.3702 233.58 51.6102 233.79 51.8102L236.33 54.2902L240.14 58.1302C240.33 58.3202 240.68 58.9202 241.11 58.4902L243.59 56.0202L244.25 55.3402C244.43 55.1602 244.88 54.9502 245.14 55.2102L248.43 58.5602L249.36 59.5102L251.82 61.9802C252.01 62.1802 252.73 62.5302 252.31 62.9402" fill="#90BEFB"/>
<path d="M108.95 61.76C108.99 62.07 108.6 62.23 108.38 62.44L105.87 64.94C105.69 65.12 105.54 65.3 105.3 65.29C105.06 65.29 104.89 65.02 104.71 64.83L102.38 62.38L98.3 58.23C98.15 58.07 97.9399 57.83 97.8899 57.63C97.8499 57.45 98.13 57.16 98.3 57L100.68 54.72C100.92 54.5 101.17 54.17 101.15 53.88C101.11 53.13 100.6 53 99.98 52.37L99.16 51.53L98.44 50.82C98.2 50.58 97.88 50.35 97.83 50.04C97.77 49.64 98.16 49.48 98.4 49.23L99.9199 47.63C100.21 47.32 100.62 46.98 100.9 46.72C101.17 46.48 101.14 45.63 100.88 45.38L99.3 43.85L98.16 42.73C98.04 42.61 97.86 42.4 97.82 42.27C97.77 42.12 97.9599 41.79 98.0899 41.66L100.45 39.36C100.8 39.03 101.09 38.86 101.11 38.3C101.13 37.74 100.87 37.62 100.52 37.28L98.33 35.18C98.12 34.98 97.86 34.79 97.82 34.52C97.78 34.27 97.9999 33.98 98.2099 33.79L99.15 32.93L100.12 31.97C100.34 31.76 100.57 31.58 100.86 31.36C101.14 31.14 101.19 30.25 100.93 30.01L100.11 29.24L99.26 28.41L98.41 27.59C98.19 27.38 97.49 26.97 97.91 26.52C98.77 25.59 99.6999 24.68 100.64 23.79C100.9 23.54 101.16 23.19 101.18 22.85C101.19 22.43 100.84 22.16 100.54 21.88L99.76 21.12L98.93 20.27C98.48 19.81 97.4799 19.17 97.8799 18.78L100.34 16.34C100.65 16.03 101.05 15.8 101.08 15.45C101.12 14.92 101.04 14.55 100.67 14.26C99.3299 13.17 99.4099 12.82 98.2699 11.88C98.0399 11.69 97.84 11.48 97.82 11.16C97.8 10.93 98.1099 10.7 98.3099 10.51L100.76 8.16003C101.06 7.87003 101.41 7.29003 100.99 6.84003C100.14 5.92003 99.2199 5.02003 98.2799 4.12003C98.0799 3.93003 97.82 3.66003 97.83 3.44003C97.84 3.11003 98.1699 2.93003 98.3899 2.71003L101.05 0.140028C101.48 -0.279972 101.82 0.350028 102.06 0.580028L108.5 7.01003C108.77 7.28003 109.22 7.58003 108.78 7.99003L106.99 9.65003C106.5 10.1 105.75 10.59 105.47 11.2C105.14 11.91 106.06 12.44 106.4 12.77L107.21 13.57C107.62 13.98 108.02 14.43 108.49 14.77C108.66 14.89 108.96 15.32 108.81 15.47L106.09 18.17C105.85 18.42 105.35 18.65 105.37 19.12C105.38 19.39 105.66 19.94 105.89 20.1C106.6 20.6 106.79 20.94 107.48 21.6L108.73 22.78C109.15 23.18 108.38 23.6 107.8 24.16L107.13 24.82C106.35 25.59 105.17 26.28 105.41 26.98C105.57 27.47 105.89 27.73 106.21 28.03L108.45 30.19C108.66 30.39 108.98 30.56 108.96 30.85C108.95 31.12 108.63 31.36 108.41 31.57L107.66 32.26C107.19 32.7 106.74 33.18 106.25 33.58C105.95 33.82 105.7 33.96 105.52 34.31C105.37 34.61 105.31 34.98 105.55 35.23L108.08 37.73C108.34 37.99 108.86 38.19 108.86 38.66L106.37 41.13C106.01 41.49 105.37 41.86 105.38 42.48C105.38 42.99 106 43.34 106.32 43.65L108.1 45.36C108.34 45.59 108.92 45.88 108.9 46.29C108.87 46.75 108.29 47.06 107.98 47.35L106.33 48.92C105.93 49.3 105.45 49.61 105.35 50.22C105.88 51.24 105.94 50.93 106.88 51.93L107.63 52.73C108.04 53.17 108.58 53.46 108.85 54.03C108.69 54.44 108.29 54.7 107.98 54.98C107.45 55.47 106.98 55.95 106.48 56.49C106.16 56.83 105.47 57.23 105.4 57.74C105.32 58.38 106.07 58.78 106.45 59.13L108.38 60.98C108.63 61.22 108.93 61.41 108.97 61.73" fill="#90BEFB"/>
<path d="M125.53 61.7398C125.53 62.0098 125.24 62.2098 125.04 62.3998L122.39 65.0098C122.25 65.1398 121.95 65.3098 121.78 65.2898C121.62 65.2698 121.45 64.9898 121.3 64.8398L118.3 61.7298L114.58 57.9598C114.47 57.8598 114.41 57.4698 114.5 57.3698L115.88 56.0198L116.68 55.2398L117.43 54.5498C117.89 54.1298 117.66 53.3098 117.2 52.9698C116.61 52.5298 116.17 52.0198 115.66 51.4998C115.12 50.9398 114.41 50.5498 114.39 49.9398C114.38 49.7098 114.66 49.5498 114.86 49.3498L116.97 47.1898C117.34 46.8098 117.66 46.6398 117.69 46.1298C117.73 45.4998 117.38 45.3398 116.98 44.9498L114.86 42.8898C114.65 42.6798 114.4 42.4698 114.4 42.1998C114.4 41.8498 114.67 41.6598 114.91 41.4298L117.04 39.3798C117.39 39.0498 117.67 38.8598 117.69 38.3198C117.72 37.7498 117.45 37.6298 117.1 37.2998L114.86 35.1398C114.7 34.9898 114.49 34.8798 114.43 34.7498C114.37 34.5998 114.44 34.1598 114.56 34.0398L117.05 31.6598C117.4 31.3298 117.69 31.2698 117.69 30.6598C117.69 30.1798 117.5 30.0198 117.16 29.7098L114.91 27.5598C114.69 27.3498 114.1 26.9098 114.47 26.5298L117.21 23.7998C117.5 23.5098 117.73 23.1698 117.73 22.7498C117.73 22.3598 117.33 22.1198 117.04 21.8398L116.26 21.0798L115.48 20.2998C115.02 19.8298 114.08 19.1498 114.44 18.7898L116.96 16.2798C117.32 15.9298 117.68 15.7598 117.67 15.2198C117.64 14.2898 117.07 14.3298 116.19 13.2698C115.7 12.6898 115.17 12.1498 114.58 11.6498C114.44 11.5298 114.35 11.0598 114.46 10.8898C114.58 10.7098 114.87 10.4998 115.06 10.3198L115.91 9.49982L116.63 8.78982L117.12 8.31982C117.3 8.12982 117.56 7.89982 117.67 7.71982C117.78 7.52982 117.71 6.96982 117.54 6.79982L114.8 4.04982C114.62 3.86982 114.42 3.63982 114.39 3.40982C114.36 3.12982 114.71 2.95982 114.91 2.75982L117.72 0.0398167C118.12 -0.0401833 118.48 0.459817 118.74 0.719817L121.31 3.26982L124.06 6.02982L125.28 7.18982C125.39 7.29982 125.57 7.65982 125.49 7.78982C125.39 7.94982 125.15 8.14982 124.98 8.30982L123.32 9.85982C122.4 10.7198 121.61 11.1098 122.13 11.9698C122.33 12.2898 122.61 12.4598 122.87 12.6998C123.57 13.3698 124.23 14.1098 124.99 14.7498C125.12 14.8698 125.48 15.2198 125.4 15.3898C125.19 15.8398 124.68 16.0598 124.37 16.4098C123.7 17.1698 123.06 17.8698 122.28 18.4798C121.87 18.7998 121.88 19.2198 122.11 19.6498C122.28 19.9598 122.56 20.1398 122.81 20.3898L124.92 22.4598C125.05 22.5898 125.33 22.7698 125.4 22.9098C125.58 23.2598 124.88 23.6798 124.32 24.2298L123.65 24.8898C123.06 25.4798 121.99 26.2198 121.94 26.7098C121.87 27.3898 122.41 27.6798 122.78 28.0298L125.03 30.1998C125.2 30.3598 125.5 30.5498 125.54 30.7398C125.6 31.0398 125.32 31.2598 125.11 31.4598L122.76 33.6398C122.76 33.6398 122.76 33.6398 122.75 33.6398C122.74 33.6398 122.73 33.6398 122.71 33.6598C122.68 33.6798 122.62 33.7298 122.55 33.7898C122.53 33.8098 122.51 33.8298 122.49 33.8498C122.49 33.8498 122.48 33.8498 122.48 33.8698C122.47 33.8698 122.45 33.8898 122.44 33.9098C122.44 33.9098 122.44 33.9098 122.43 33.9298C122.39 33.9698 122.34 34.0198 122.29 34.0798C122.29 34.0798 122.29 34.0798 122.29 34.0898C122.26 34.1198 122.24 34.1498 122.22 34.1798C122.19 34.2098 122.17 34.2498 122.16 34.2798C122.13 34.3098 122.11 34.3498 122.1 34.3798C121.95 34.6598 121.9 34.9698 122.17 35.2298L125.01 37.9998C125.13 38.1198 125.39 38.2598 125.44 38.3898C125.5 38.5398 125.31 38.8598 125.19 38.9698L124.49 39.6098C124.27 39.8098 124.05 40.0398 123.83 40.2698L123 41.1298C122.63 41.5098 121.9 41.8998 122.01 42.5798C122.09 43.0998 122.77 43.4698 123.12 43.8098L124.83 45.4698C125.04 45.6698 125.55 45.9198 125.52 46.2798C125.49 46.7098 124.98 46.9598 124.71 47.2198L123 48.8598C122.58 49.2598 122.04 49.5598 121.92 50.2298C122.43 51.0498 122.66 51.0898 123.48 51.9398L124.19 52.6798C124.54 53.0398 125.14 53.3998 125.35 53.8598C125.58 54.3498 124.92 54.6498 124.66 54.8998L122.82 56.6798C122.56 56.9298 122.03 57.3198 121.99 57.6998C121.92 58.3998 122.61 58.7298 123.02 59.1198L123.72 59.7898L125.07 61.0698C125.25 61.2398 125.56 61.4598 125.55 61.6998" fill="#90BEFB"/>
<path d="M84.2096 55.4602L81.7496 57.8802C81.6096 58.0202 81.1296 58.1302 80.9496 58.1002C80.7496 58.0502 80.5296 57.7602 80.3396 57.5602C79.3296 56.4502 78.7396 56.0102 77.8896 54.9902C77.6696 54.7302 77.2696 54.7302 77.0096 54.9902L74.1596 57.8202C73.9696 58.0102 73.3096 58.2502 73.1296 58.0702L71.8296 56.7502L70.9396 55.8502C70.4896 55.4002 69.8096 54.4702 69.3996 54.8802L66.2696 57.9402C65.8796 58.3202 65.3796 58.0602 65.0996 57.7702L64.1596 56.7802L59.7896 52.3302C59.2396 51.7702 58.0096 50.9402 58.4696 50.2902C58.7896 49.8502 59.2896 49.5002 59.6596 49.1202L60.3796 48.3902C60.5596 48.2102 60.7596 47.9402 60.9696 47.7902C61.3496 47.5202 61.7396 47.0902 61.7396 46.6102L59.7096 44.4802C59.3796 44.1302 58.7696 43.6502 58.4696 43.3002C58.3396 43.1502 58.3696 42.5702 58.5096 42.4402L59.8396 41.1702L60.7496 40.2802C61.0896 39.9402 61.5796 39.6002 61.6996 39.1202C61.7496 38.9202 61.4596 38.5502 61.3196 38.4102L59.7596 36.8202C59.4496 36.5002 58.8596 35.9802 58.5596 35.7102C58.3896 35.5502 58.3096 34.9402 58.4696 34.7602C58.8796 34.3202 59.4796 33.7302 59.9396 33.3102C60.2296 33.0502 61.8296 31.5902 61.7096 31.2702C61.7796 30.9502 61.2196 30.5702 61.0296 30.3602L59.8696 29.1102C59.5596 28.7702 59.2396 28.4902 58.8396 28.2002C58.4496 27.9202 58.1096 27.1902 58.5696 26.7802C59.6896 25.7602 60.7796 24.7002 61.8296 23.5902C62.4196 23.4002 62.9796 23.9302 63.3096 24.3602C63.7196 24.8902 64.2296 25.2902 64.6796 25.7602L65.6196 26.7502C65.7396 26.8802 66.0396 27.0302 66.2396 27.0202C66.3996 27.0202 66.5596 26.7002 66.6996 26.5602L68.7796 24.4402C68.9496 24.2702 69.1896 23.9002 69.3296 23.7102C70.1096 23.4002 70.5596 23.9802 71.0096 24.4502L73.1996 26.6802C73.3696 26.8602 73.5296 27.0302 73.7796 27.0302C73.9596 27.0302 74.1296 26.7802 74.2896 26.6202L76.0796 24.8202C77.0396 23.8602 76.7396 23.7302 77.5696 23.6202C78.2096 23.5302 78.3196 24.0002 78.7096 24.4002L81.5996 27.3302L82.2496 28.0002L83.0796 28.8402L83.7996 29.5502C84.6296 30.3802 85.1196 30.4202 84.8796 31.3702C84.7696 31.7902 84.4396 31.9302 84.1196 32.2402L83.3896 32.9502L82.6596 33.6502L81.9196 34.3602C81.7896 34.4802 81.5996 34.6702 81.5696 34.8102C81.5396 34.9602 81.7396 35.2702 81.8696 35.3802C82.9696 36.3302 83.1596 36.7402 84.1796 37.6202C84.5596 37.9502 84.8996 38.2202 84.9496 38.7302C85.0096 39.3002 84.5196 39.5402 84.1496 39.9102L83.4996 40.5802L82.7096 41.3502L81.8496 42.1502C81.7096 42.2702 81.4696 42.6602 81.5996 42.7902L83.8096 45.0302C84.4196 45.6502 84.9296 45.9802 84.9496 46.4802C84.9696 46.8402 84.7396 47.1402 84.4796 47.4002L82.5196 49.4002C82.2296 49.7002 81.7796 50.0002 81.6196 50.3802C81.4396 50.7902 81.9096 51.0202 82.1296 51.2402C83.0496 52.1102 83.9696 52.9902 84.7896 53.9302C85.2896 54.4902 84.5396 55.1402 84.2096 55.4602ZM92.2896 61.7202C91.2096 60.7802 90.8696 60.2302 89.5596 59.0702C89.3796 58.9102 89.2996 58.3602 89.3496 58.0802C89.3896 57.8502 89.7296 57.6302 89.9496 57.4102L91.9596 55.4702C92.1396 55.2902 92.5196 55.0602 92.6396 54.8602C92.8796 54.4402 92.5096 54.1402 92.2596 53.8902L90.0696 51.7902C89.5196 51.2602 88.9896 50.5602 89.6296 49.9502L92.2196 47.4802C92.4096 47.3002 93.0096 46.9502 92.6396 46.5702C91.8396 45.7202 90.9996 44.8802 90.1296 44.0902C89.7596 43.7502 89.3296 43.4102 89.3396 42.9002C89.3396 42.3902 89.7696 42.0402 90.1296 41.7102L92.1496 39.8002C92.3996 39.5602 92.7296 39.3502 92.6996 38.9702C92.6796 38.6802 92.3696 38.4702 92.1396 38.2602L90.0696 36.2702C89.6996 35.9202 89.2696 35.7002 89.3196 35.1502C89.3596 34.6502 89.6796 34.3602 90.0596 34.0002L92.1396 32.0402C92.4296 31.7702 92.7396 31.6202 92.7196 31.2002C92.7096 30.8902 92.3696 30.7402 92.1296 30.5002L88.7196 27.1002L85.9196 24.2902L85.0996 23.4402L84.4296 22.8002C83.8496 22.2502 83.3096 21.7002 82.7596 21.1302L82.1196 20.4602L81.3496 19.6702C80.6196 18.9302 80.2496 18.6402 79.3596 17.7302L78.6496 17.0002C77.9996 16.3302 77.6496 15.7702 77.1096 15.8602C76.8796 15.9002 76.5896 16.2002 76.3996 16.4102L74.0896 18.9002C73.9196 19.0802 73.5296 19.2402 73.2896 19.2202C73.0496 19.2002 72.8296 18.9302 72.6296 18.7202L71.4096 17.4202L70.5096 16.4102C70.2996 16.1802 70.0796 15.8802 69.7896 15.8502C69.5696 15.8202 69.1896 16.0302 69.0196 16.2102L68.1296 17.1302L67.3596 17.8802L66.4296 18.8902C66.0696 19.2802 65.4896 19.3502 65.1096 18.9502L63.7096 17.4902L62.4096 16.0702C62.0196 15.6402 61.4496 15.8902 61.1696 16.2602C60.9896 16.5102 60.7396 16.7302 60.5296 16.9402L59.8296 17.6702L58.9296 18.5702C58.6496 18.8502 58.4096 19.3502 57.9096 19.2302C57.2896 19.0802 56.9596 18.4902 56.5496 18.0802L54.7096 16.1902C54.5196 16.0002 54.1896 15.8102 53.9096 15.8602C53.7296 15.8902 53.5396 16.1702 53.3696 16.3602L51.7396 18.1202C51.3996 18.4802 50.7696 18.8102 50.7796 19.4102C50.7796 19.8102 51.2796 20.1602 51.5396 20.4202L52.3896 21.2602C52.7496 21.6202 53.0896 21.9702 53.4996 22.3102C53.9396 22.6802 54.3496 23.1602 53.9496 23.7702C53.7596 24.0702 53.3296 24.3502 53.0396 24.6202C52.2596 25.3602 51.4996 26.1202 50.7796 26.9002C50.5796 27.4402 51.2096 27.8102 51.4896 28.1002L52.3796 29.0102L53.8596 30.4702C54.4796 31.0802 53.7996 31.7102 53.3596 32.1002C52.4596 32.8802 51.6296 33.7202 50.8396 34.6002C50.4496 35.0402 51.1496 35.4902 51.3796 35.7402C52.1196 36.5402 52.8396 37.2802 53.6896 37.9702C53.9696 38.2002 54.1196 38.5902 54.0896 38.9402C54.0596 39.2702 53.7296 39.4602 53.4696 39.7202L51.2996 41.8302C51.1196 42.0102 50.6496 42.4302 50.7696 42.6602C51.0096 43.1402 51.4196 43.4802 51.7596 43.8502L52.4496 44.6002C52.7996 44.9802 53.1596 45.2902 53.5796 45.6202C53.9496 45.9102 54.3696 46.5902 53.9496 47.0102L52.7096 48.2602L50.8896 50.1602C50.7596 50.2902 50.7296 50.7502 50.9096 50.9302L66.0096 66.0102C66.6896 65.6002 67.0796 65.0302 67.5796 64.5302L68.2896 63.8102C68.6496 63.4402 68.9496 63.0502 69.2596 62.6402C69.6696 62.0902 70.5096 62.4702 70.8196 62.9802C71.0096 63.2902 71.2196 63.5102 71.4596 63.7702L73.0296 65.4302C73.2196 65.6302 73.4596 65.9402 73.7296 65.9302C73.9296 65.9202 74.1696 65.6102 74.3296 65.4402L76.5496 63.1302C76.8696 62.8002 77.0696 62.3902 77.5496 62.4102C78.0496 62.4202 78.2496 62.7602 78.5796 63.1102L80.7796 65.4202C81.0096 65.6602 81.1396 65.9102 81.4996 65.8802C81.6996 65.8602 81.9296 65.6402 82.1096 65.4502L82.8096 64.7202L83.6396 63.8802C84.3696 63.1402 84.7696 62.3102 85.8196 62.3902C85.9596 62.6002 86.1496 62.9702 86.2996 63.1202L88.5596 65.4202C88.6996 65.5602 88.8596 65.8702 89.0196 65.8802C89.2296 65.8802 89.4796 65.7502 89.6396 65.5902L92.1596 63.0802C92.3696 62.8802 92.6996 62.7402 92.6896 62.4502C92.6796 62.1402 92.4996 61.9202 92.2596 61.7102" fill="#90BEFB"/>
<path d="M288.16 51.2403L290.34 53.3603C290.63 53.6403 290.97 53.9603 290.96 54.3503C290.95 54.8003 290.61 55.1403 290.29 55.4303C289.6 56.0403 289.01 56.6303 288.33 57.3703C288.02 57.7103 287.38 58.4003 286.85 58.0103C286.39 57.6803 285.95 57.0603 285.51 56.6403C284.97 56.1303 284.47 55.6303 284 55.0603C283.74 54.7503 283.34 54.7103 283.04 55.0003L280.11 57.9003C280 58.0103 279.57 58.1203 279.41 58.1403C279.12 58.1703 278.67 57.5703 278.16 57.0603L277.38 56.2803L276.59 55.4903C276.36 55.2603 275.96 54.5403 275.47 54.8303L272.27 57.9503C271.91 58.3103 271.47 58.1003 271.18 57.8103L265.79 52.3503C265.22 51.7703 264.01 50.9403 264.47 50.3003C264.79 49.8603 265.29 49.5103 265.67 49.1303L266.39 48.4003C266.57 48.2203 266.77 47.9503 266.97 47.8003C267.36 47.5203 267.74 47.1103 267.74 46.6303L265.66 44.4403C265.38 44.1503 264.99 43.8403 264.67 43.5503C264.24 43.1503 264.32 42.5703 264.72 42.2103L265.79 41.2503C266.17 40.9103 266.5 40.5403 266.87 40.1703C267.19 39.8403 267.83 39.4403 267.7 38.8603C267.33 38.4403 266.88 37.9503 266.48 37.5503L265.59 36.6603L264.78 35.9103C264.56 35.7103 264.37 35.4303 264.37 35.1603C264.37 34.8903 264.57 34.6203 264.78 34.4103L265.85 33.4103L266.74 32.5403C267.07 32.2103 267.47 31.8903 267.68 31.4203C267.87 31.0003 267.32 30.6603 267.08 30.4103C266.39 29.6703 265.8 28.9403 264.98 28.3103C264.58 28.0003 264.03 27.2803 264.57 26.7903C265.68 25.7703 266.78 24.7003 267.83 23.6003C268.5 23.3603 269.04 24.0603 269.41 24.4903C269.81 24.9503 270.26 25.3303 270.67 25.7603L271.61 26.7503C271.71 26.8503 271.98 27.0103 272.12 27.0303C272.3 27.0403 272.5 26.8003 272.65 26.6403L274.87 24.3203L275.47 23.6003C276.21 23.5203 276.64 24.0503 277.06 24.5003L279.3 26.8103C279.4 26.9103 279.72 27.0503 279.86 27.0203C280 27.0003 280.13 26.7703 280.27 26.6303L282.51 24.3603C282.89 23.9803 283.01 23.6403 283.57 23.6203C284.13 23.5903 284.26 23.9403 284.64 24.3403L287.58 27.3503L288.23 28.0203L289.13 28.9103L289.79 29.5703C290.63 30.4103 291.03 30.2803 290.91 31.3203C290.86 31.7503 290.5 31.9103 290.17 32.2203L289.37 32.9803L288.7 33.6303L287.9 34.3903C287.8 34.4803 287.62 34.7303 287.58 34.8603C287.52 35.0103 287.73 35.3003 287.86 35.4103C288.44 35.9103 288.9 36.4403 289.44 36.9503L290.17 37.6603C290.47 37.9403 290.82 38.1103 290.89 38.4603C290.97 38.8903 290.91 39.4203 290.58 39.6303C290.27 39.8203 290.1 40.0203 289.86 40.2603L289.08 41.0403L288.34 41.7703C288.11 42.0003 287.47 42.3803 287.6 42.8003L290.12 45.3903C290.49 45.7803 291.3 46.3103 290.83 47.0003C290.44 47.5603 289.75 48.0803 289.3 48.6303C288.88 49.1403 288.49 49.5503 287.96 49.9403C287.77 50.0803 287.55 50.4303 287.6 50.6203C287.67 50.9003 287.92 51.0603 288.12 51.2603M297.41 60.8203L295.65 59.1003C295.03 58.5003 295.47 57.8503 295.89 57.4503L298.25 55.2603C298.49 55.0303 298.79 54.8103 298.73 54.4803C298.68 54.2203 298.44 54.0303 298.22 53.8203L296.08 51.7903C295.6 51.3303 294.98 50.5903 295.58 50.0203L298.24 47.5003C298.43 47.3203 298.99 46.9303 298.65 46.5803C297.84 45.7203 297.01 44.8903 296.14 44.0903C295.77 43.7603 295.33 43.4103 295.36 42.9103C295.39 42.3903 295.73 42.1003 296.08 41.7603L298.16 39.7803C298.41 39.5403 298.75 39.3303 298.71 38.9503C298.69 38.6703 298.39 38.4503 298.16 38.2303L295.96 36.1403C295.5 35.7003 295.08 35.3203 295.52 34.5803C295.65 34.3603 295.97 34.1103 296.21 33.8903L298.22 31.9703C298.48 31.7203 298.77 31.5803 298.74 31.1803C298.73 30.9203 298.45 30.7603 298.22 30.5303L294.81 27.1503L294.22 26.5403C293.99 26.3003 293.75 26.0803 293.5 25.8403C292.48 24.8903 292.07 24.3503 291.13 23.4403L290.46 22.7903L288.84 21.1803L288.14 20.4603L287.38 19.6703C286.66 18.9303 286.46 18.8403 285.8 18.1503L285.1 17.4103L284.26 16.5703C284.09 16.4003 283.82 16.0403 283.61 15.9203C283.07 15.6203 282.63 16.2003 282.31 16.5403L281.4 17.5203L280.04 18.9503C279.91 19.0903 279.5 19.2503 279.32 19.2103C279.16 19.1803 278.91 18.9903 278.77 18.8403L276.42 16.2903C276.25 16.1003 276.04 15.8803 275.82 15.8503C275.64 15.8203 275.25 16.0003 275.11 16.1503C274.56 16.7703 274.01 17.2503 273.45 17.8503L272.52 18.8403C272.35 19.0203 272 19.2203 271.77 19.2303C271.56 19.2303 271.19 19.0203 271.02 18.8403L268.45 16.0603C268.3 15.9003 267.82 15.8103 267.64 15.8803C267.49 15.9303 267.35 16.2003 267.18 16.3703L264.34 19.2303C263.61 19.3303 263.22 18.7203 262.82 18.3103L260.6 16.0303C260.47 15.8903 260.03 15.8203 259.88 15.8903C259.73 15.9603 259.6 16.2003 259.43 16.3703L258.44 17.4303L257.74 18.1703C257.45 18.4803 256.85 18.8403 256.84 19.3403C256.84 19.9103 257.46 20.2503 257.79 20.5803L258.44 21.2603C258.72 21.5503 258.99 21.8103 259.29 22.0903L259.9 22.6603C260.33 23.0603 260.14 23.7503 259.75 24.0803L259.15 24.5703C258.35 25.2303 257.63 26.0203 256.97 26.7603C256.52 27.2603 257.19 27.7803 257.47 28.0303L258.33 28.8903C258.75 29.3103 259.13 29.7203 259.6 30.1103C259.98 30.4103 260.35 30.9203 260.04 31.4703C259.91 31.7003 257.26 33.9703 256.89 34.6203C256.56 35.1203 257.36 35.5903 257.62 35.8903C258.22 36.5803 258.83 37.2303 259.56 37.7903C259.88 38.0403 260.45 38.8003 260.05 39.1903L256.72 42.4903C257.04 43.0903 257.44 43.4403 257.87 43.9003L258.56 44.6303C259.11 45.2103 260.73 46.3003 260.01 47.0103L258.76 48.2503L257.16 49.9003C257.02 50.0403 256.82 50.3403 256.83 50.5203C256.83 50.7103 257 50.9803 257.18 51.1603L272.06 66.0003C272.75 65.5903 273.16 64.9903 273.67 64.4703L274.33 63.8103C275.33 62.8003 275.2 62.4403 275.85 62.3803C276.53 62.3103 276.82 63.0103 277.57 63.8103L278.27 64.5503L279.13 65.4803C279.27 65.6403 279.5 65.8803 279.69 65.9203C280.02 65.9803 280.82 64.9503 281.31 64.4603L281.98 63.8103C282.89 62.9203 282.95 62.3503 283.69 62.4103C284.16 62.4503 284.37 62.8203 284.69 63.1603L286.83 65.4203C287.06 65.6603 287.19 65.9103 287.55 65.8803C287.75 65.8603 287.98 65.6403 288.16 65.4603L288.86 64.7203L289.7 63.8803C290.54 63.0403 290.78 62.4403 291.81 62.3403C292.06 62.6503 292.29 63.0303 292.55 63.2903L294.62 65.4103C294.76 65.5603 294.93 65.8503 295.09 65.8703C295.3 65.8903 295.56 65.7303 295.74 65.5503L298.23 63.0703C298.44 62.8703 298.77 62.7303 298.76 62.4403C298.75 62.1303 298.56 61.9203 298.33 61.7003L297.41 60.8003V60.8203Z" fill="#90BEFB"/>
</g>
</g>
<defs>
<clipPath id="clip0_2561_3803">
<rect width="386.26" height="67.17" fill="white"/>
</clipPath>
</defs>
</svg>
