<svg width="544" height="500" viewBox="0 0 544 500" fill="none" xmlns="http://www.w3.org/2000/svg">
<g clip-path="url(#clip0_2554_5428)">
<mask id="mask0_2554_5428" style="mask-type:luminance" maskUnits="userSpaceOnUse" x="0" y="0" width="544" height="500">
<path d="M543.42 0H0V499.5H543.42V0Z" fill="white"/>
</mask>
<g mask="url(#mask0_2554_5428)">
<path d="M235.219 228.3C233.799 228.21 232.789 224.66 230.229 221.62C229.169 220.37 229.529 220.3 227.819 217.92C226.559 216.14 226.689 215.98 225.199 213.96L223.619 211.81C223.159 211.19 222.719 210.59 222.309 209.96L221.059 208.03L218.879 204.7L217.649 202.77C217.059 201.85 214.749 198.59 214.199 198.01C213.529 197.31 213.039 196.75 212.529 195.96L209.719 191.63C207.319 187.93 207.549 187.5 204.669 184.23C203.649 183.06 202.639 181.57 201.919 180.19C201.069 178.55 200.159 177.28 199.139 175.82L191.519 164.88L190.149 162.33L185.179 155.39C184.669 154.67 184.259 154 183.649 153.47V152.95C184.669 152.65 185.419 152.05 186.319 151.38L188.279 149.93L190.139 148.58C190.369 148.42 190.969 148.08 191.179 148.24C191.339 148.37 191.579 148.67 191.749 148.93L196.159 155.61L197.599 157.81L200.139 161.43C201.929 164 203.669 166.44 205.419 169.07L206.789 171.14L208.359 173.56L210.819 176.9L213.879 181.49C214.979 183.14 216.589 184.73 218.439 185.35C222.079 186.55 222.779 186.44 225.479 185.18C227.349 184.31 228.509 183.05 229.679 181.39C230.889 179.68 230.799 178.12 230.679 176.13C230.559 174.19 230.479 172.76 228.999 171.32C228.399 170.73 227.759 169.4 227.269 168.67L226.069 166.88L220.469 158.75L216.399 152.76L209.429 142.31L206.959 138.46C206.809 138.23 206.729 137.46 206.959 137.33C207.149 137.22 207.569 137.03 207.759 136.9L213.239 133.08L215.749 131.37L217.659 130.08L225.209 124.97L227.709 123.28L229.599 121.99L231.829 120.5L236.619 117.11C237.039 116.81 237.779 115.69 238.349 116.51L240.169 119.14C241.469 121.02 241.919 122.22 243.209 123.53C245.449 125.81 245.889 128.2 247.639 130.42L250.119 133.54C250.499 134.02 251.789 136.21 252.679 137.52L255.459 141.57C256.199 142.67 256.769 143.66 257.739 144.69C258.579 145.6 259.229 146.92 259.959 148L262.309 151.45L265.919 156.81L270.929 164.21L272.499 166.86C273.299 168.24 274.279 169.49 275.279 170.7C276.009 171.57 276.279 172.39 276.949 173.31L279.219 176.42C280.069 177.58 280.529 178.61 281.369 179.71C282.469 181.13 283.629 182.81 284.549 184.32C285.279 185.51 285.749 186.4 286.649 187.36C287.369 188.13 287.779 189.33 288.709 190.06C289.119 190.36 289.309 191.2 288.959 191.38C288.129 191.79 287.529 192.14 286.869 192.59L284.819 193.97C283.589 194.8 282.589 195.68 281.359 196.74C280.419 196.59 279.839 195.29 279.339 194.55C278.449 193.24 277.569 192.06 276.769 190.71C275.739 188.99 273.979 187.6 273.069 185.81C271.649 182.99 272.429 184.6 270.709 181.78C268.939 178.86 266.989 176.28 264.839 173.62C264.439 173.11 263.869 172.34 263.559 171.79L262.019 169.02C261.529 168.12 260.589 167.45 259.879 166.7C257.819 164.52 256.019 163.58 253.069 163.35C251.639 163.25 250.719 163.68 249.449 164.3C248.039 164.97 246.869 165.43 246.039 166.84C245.239 168.2 243.839 169.38 243.949 171.15L244.109 173.88C244.199 175.39 245.069 176.85 245.869 178.1L250.219 184.86L251.729 187.01L253.169 189.04L254.479 191.14C255.039 192.02 255.789 192.63 256.379 193.53L259.159 197.83C259.499 198.34 260.079 198.79 260.379 199.25L261.979 201.69C263.279 203.67 262.319 203.4 265.399 206.67C265.249 207.7 264.019 208.08 263.249 208.65L260.119 211.01L257.889 212.49L254.149 215.1L252.279 216.39L250.049 217.87L247.499 219.56L245.519 220.98L242.209 223.27C239.519 225.13 240.589 223.95 237.779 226.22L235.219 228.29V228.3Z" fill="#90BEFB"/>
<path d="M543.42 429.58V429.94L539.91 432.16L535.25 435.28L530.6 438.45L525.32 442.02L521.04 444.85L518.45 446.55L512.9 450.53L510.38 452.28L507.17 454.37L503.46 456.98C501.95 458.05 499.83 458.74 498.5 459.88C497.14 461.06 496 461.82 494.55 462.77L486.01 468.38C485 469.05 484.04 469.64 483.06 470.35L479.14 473.21L475.5 475.65L466.17 481.93C464.65 482.95 463.27 483.94 461.73 484.93L451.37 491.59L445.21 495.73L440.65 498.72L425.95 498.85C425.05 498.85 424.19 498.98 423.3 498.88C422.18 498.75 421.01 498.73 419.91 498.89C418.3 499.13 416.76 498.97 415.17 498.97C413.02 498.97 410.97 499.25 408.76 498.84C407.49 498.59 405.86 499.09 404.59 499.03L400.09 498.81C394.91 498.54 393.59 499.11 388.93 499L383.98 498.9C383.12 498.89 382.26 500.11 381.18 499.08C382.69 497.76 384.15 496.9 385.8 495.99C387.52 495.03 389.1 493.92 390.76 492.81L396.07 489.27L399.05 487.3L403.89 483.98L407.44 481.46L410.62 479.36L413.61 477.38L417.3 474.98C418.65 474.11 424.89 470.01 424.36 468.47C423.44 465.85 421.03 465.55 419.62 465.15C418.33 464.79 417.01 464.07 415.65 464.4L410.1 465.7C408.92 465.98 406.93 465.51 405.79 465.91L401.02 467.63L396.55 469.3C395.88 469.54 394.69 470.08 394.02 470.5L385.48 475.86C384.37 476.54 383.5 477.28 382.36 478.04L378.73 480.44L373.24 484.19L369.86 486.42L366.04 489.04L351.12 499.09L339.88 499.18C338.87 499.18 338.01 500.1 335.93 498.93C335.77 498.84 336.33 498.35 336.54 498.22C340.05 496.04 340.73 495.3 343.91 493.2L356.7 484.73L360.71 482.02L365.14 479C366.74 477.9 368.41 477.06 369.98 475.92L374.04 472.97C375.22 472.13 376.73 471.67 377.9 470.72C379.71 469.27 381.41 467.71 383.64 466.93C384.71 466.55 385.27 465.78 386.11 465.11C387.21 464.27 388.4 463.36 389.6 462.58L395.86 458.54L399.01 456.32C399.94 455.67 400.88 455.2 401.93 454.6C403.69 453.61 405.28 452 407.01 450.88L412.43 447.43L423.13 440.35L427.6 437.34L430.78 435.21L437.56 430.68C439.04 429.67 439.65 429.51 441.6 429.82C443.06 430.06 445.08 429.58 446.78 429.6L473.68 429.66C474.72 429.66 475.68 429.9 476.7 429.72C477.68 429.56 478.77 429.57 479.73 429.72C480.9 429.91 481.94 429.72 483.11 429.7L497.87 429.51C498.74 429.5 498.94 429.17 499.81 430.21L496.76 432.03L493.3 434.18L487.59 438.09L464.88 452.95L462.35 454.71L459.05 456.99L453.66 460.54C452.34 461.4 451.07 462.51 450.23 463.86C449.58 464.9 450.14 466.49 450.85 467.22C451.58 467.97 452.72 468.32 453.87 468.34L456.71 468.4L458.47 468.46L462.44 468.34C464.01 468.31 465.9 467.99 467.43 467.56L471.07 466.51C478.17 464.48 480.72 462.82 486.67 458.75L492.41 454.86C493.98 453.78 495.58 452.95 497.19 451.83L500.67 449.43L502.9 448.04C504.13 447.29 505.34 446.47 506.57 445.61L511.56 442.12C513.01 441.1 514.34 440.11 515.91 439.31C517.3 438.61 518.55 437.52 519.89 436.6L528.51 430.72C529.25 430.22 529.41 429.33 530.64 429.55C533.45 430.04 536.12 429.96 538.93 429.82L543.4 429.6L543.42 429.58Z" fill="#90BEFB"/>
<path d="M385.82 295.96L362.77 296L359.32 296.05C355.92 296.1 353.74 295.88 349.87 296.05C349.22 296.08 348.64 296.16 348.01 296.08C346.17 295.84 344.37 296.08 342.51 296.15C341.13 296.19 339.73 295.7 338.35 296.22C335.9 295.86 333.5 296.05 331.05 296.01L326.47 295.95C324 293.55 324.8 291.42 322.21 287.89C321.68 287.16 321.52 286.48 321.29 285.59C320.9 284.08 319.78 282.67 319.3 281.2C318.46 278.67 319.02 280.31 317.63 277.67C316.67 275.84 315.78 274.06 314.92 272.16L313.8 269.7L312.64 267.19L308.53 257.98L306.89 254.56L303.38 246.86L302.44 244.86L296.76 232.65L295.16 229.17L293.47 225.59L290.75 219.61C290.42 218.89 289.53 218.17 289.3 217.32C289.09 216.51 288.68 215.78 288.44 215.08C287.96 213.75 287.66 212.52 286.72 211.39C286.23 210.8 286.07 209.87 286.7 209.37C287.83 210.17 288.91 209.81 290.13 209.76C291.44 209.71 292.83 210.1 294.13 209.84C296.58 209.34 295.43 211.1 297.17 213.55C297.77 214.39 297.89 215.45 298.32 216.32C298.71 217.11 299.25 217.99 299.72 218.75C300.42 219.9 300.6 220.98 301.02 222.19C301.4 223.27 302.05 224.58 302.58 225.62L304.26 229L308.16 237.46L311.87 245.44L313.76 249.34C313.99 249.82 314.52 250.41 314.85 250.87C316.53 253.16 319.22 256.42 321.39 258.15C322.56 259.08 323.7 260.01 324.72 261.17C324.96 261.45 325.76 261.72 326.1 261.92L328.07 263.15C330.51 264.67 333.27 265.59 336.02 266.4C339.43 267.4 345.34 267.92 348.39 266.5C350.95 265.33 351.08 265.04 353.17 263.22C354.2 262.32 354.53 261.21 355.11 260.09C356.07 258.22 356.17 256.77 355.99 254.69C355.89 253.56 356.04 252.36 355.66 251.14C355.24 249.83 354.87 248.62 354.3 247.38L353.23 245.04L351.86 242.06L350.67 239.37L349.25 236.44L347.6 233.03L345.55 228.51L343.38 223.56L342.23 221.72C341.83 220.53 341.47 219.47 340.72 218.49L340.39 217.14C339.16 215.25 338.37 213.32 337.52 211.22C337.36 210.8 336.72 210.5 336.57 209.71L345.19 209.67C345.97 209.67 346.31 210.32 346.59 210.93L349.17 216.47L350.95 220.31L353.1 225.02L354.95 228.92L358.68 236.86L359.76 239.21L360.85 241.6L362.11 244.39L363.9 248.18L364.67 249.83L367.88 256.81L368.66 258.43L373.38 268.47L375.87 274L377.71 277.94L385.32 294.31C385.57 294.84 386.21 295.13 385.78 295.92" fill="#90BEFB"/>
<path d="M137.15 162.3C137.1 162.59 136.31 162.82 135.97 162.82L133.89 162.84C133.29 163.18 132.63 162.82 131.93 162.82L73.7002 162.8V91.0799C73.7102 90.0799 74.3102 89.0399 74.6302 88.2599C74.6902 86.9799 75.1302 86.0399 75.6902 84.8999C77.3902 81.3799 80.4202 78.8499 84.0502 77.4499C85.1302 77.0399 86.0702 76.5799 87.3102 76.5799L106.37 76.5499C107.49 76.5499 108.57 76.1799 109.71 76.4399C110.41 76.5999 111.25 76.4799 111.93 76.5099C113.48 76.5599 114.93 76.7399 116.48 76.1499C118.31 76.7499 120.39 76.7399 122.32 76.3499C126.47 77.1799 130.52 76.0099 134.41 76.5399C135.05 76.6299 135.96 76.5599 136.6 76.8299C137 76.9899 136.73 78.2499 136.79 78.7499C137.2 81.9999 136.48 83.8199 136.86 88.5299C136.9 89.1099 137.39 89.8699 136.9 90.2099C136.36 90.5699 135.75 90.5499 135.13 90.5399L128.9 90.3799C125.64 90.2899 124.63 90.6699 120.52 90.3899C118.47 90.2499 116.44 89.8599 114.52 90.7499C112.8 90.2499 111.13 90.0199 109.37 90.3099C108.5 90.4599 107.53 90.3299 106.69 90.3599C101.58 90.5499 102.25 89.5899 97.6202 91.3999C95.4402 92.2599 93.9202 94.1099 92.4102 95.8399C92.0202 96.2999 91.7902 97.0499 91.5102 97.5299C90.6602 98.9799 90.3502 100.26 90.3802 101.96C90.4102 103.61 90.5202 105.03 91.1302 106.47C92.8402 110.46 95.8302 113.21 100.24 114.22L124.93 114.17C126.15 114.17 127.18 113.99 128.41 114.13C134.21 114.82 137.37 112.36 136.84 115.84C136.28 119.56 137.8 119.21 136.49 122.39L137.01 124.2C137.11 124.53 136.43 125.18 136.13 125.33C135.65 125.57 133.78 124.56 129.98 125.05C128.66 125.23 127.55 125.01 126.24 125.01L100.93 124.97C98.9702 124.97 96.8702 126.2 95.3602 127.2C93.3602 128.53 92.2402 130.27 91.2802 132.37C90.7602 133.52 90.3402 134.58 90.3802 135.91C90.4102 137.68 90.4902 139.42 91.1402 140.93C92.4602 143.98 94.3102 146.22 97.3002 147.67C99.5002 148.73 101.86 148.79 104.3 148.78L126.77 148.68C127.51 148.68 128.39 148.46 129.08 148.5L131.58 148.61L136.34 148.75C137.58 151.23 136.44 155.28 136.8 158.61L137.09 161.23C137.12 161.59 137.19 162.08 137.14 162.33" fill="#90BEFB"/>
<path d="M424.6 64.4398C424.5 66.8598 425.32 68.9298 424.73 71.3998V134.03C423.72 134.61 422.85 134.31 421.8 134.23C419.81 134.06 417.75 134.09 415.75 134.27C413.37 134.5 411.03 134.39 408.59 134.35C406.69 134.33 404.82 134.41 402.82 134.22C401.35 134.08 399.83 134.17 398.35 134.18C393.77 134.22 394.68 133.73 390.21 134.64C389.95 134.7 389.52 134.07 389.51 133.78L389.34 130.52C389.3 129.68 389.38 128.91 389.38 128.09L389.45 109.71C389.45 109.22 389.08 108.22 389.2 107.74C389.64 106 389.48 104.26 389.02 102.51L389.2 99.7398C389.28 98.4498 389.02 96.9398 388.1 96.0198L384.65 92.5598C384.21 92.1198 382.76 92.0998 382.12 92.0698L379.44 91.9998C378.21 91.9598 376.58 92.7098 375.4 93.4598C373.11 94.8898 371.56 97.6098 371.37 100.41C371.16 103.3 371.19 106.2 371.36 109.1C371.43 110.52 371.62 111.84 371.4 113.24C371.1 115.01 371.58 116.7 371.51 118.53L371.4 121.36C371.34 122.85 371.43 124.15 371.36 125.65L371.19 129.93C371.14 131.06 371.28 132.47 371.49 133.57C371.49 133.84 370.7 134.44 370.3 134.44L361.88 134.38L361.83 94.7498V93.0798L361.87 48.0898L388.57 48.0198C389.76 48.0198 390.89 47.8198 392.03 47.9198L395.15 47.8398C396.35 47.7998 397.69 47.8198 398.84 48.3498C398.88 49.0398 398.65 49.8298 398.41 50.4698C398.03 51.5198 398.53 52.9398 398.45 53.9998C398.32 55.7098 398.21 57.1898 398.55 58.8598C398.99 61.0798 399.07 63.6098 398.42 65.6698C398.81 67.1198 399.1 68.6898 398.53 70.2098C398.03 71.5398 398.77 72.5698 398.85 73.7198C398.99 75.6398 397.57 77.7398 398.48 79.7798C398.94 80.7998 398.78 81.4898 398.46 82.6298C398.16 83.6998 398.33 85.1698 398.23 86.4698C398.16 87.5098 399.13 88.7498 399.21 89.5298C399.42 91.4898 400.08 92.2398 401.6 93.4298C402.16 93.8498 402.73 94.7498 403.63 95.0098L407.53 96.1698C409.96 96.8798 416.53 92.7298 416.68 88.1398L416.86 82.1898C417 77.9598 416.01 79.4198 416.63 73.5198C417.18 68.4198 416.11 68.5798 416.69 64.7598C416.75 64.3598 416.64 63.5498 416.64 63.0898L416.59 60.2698C416.54 57.5098 417.29 55.6198 416.05 53.6998C418.5 50.7398 414.98 48.1498 417.28 48.0698L419.64 47.9898C421.02 47.9298 422.22 48.0998 423.64 47.8598C424.03 47.7998 424.73 47.7898 424.9 48.0398C425.08 48.2998 425.04 49.0898 424.88 49.4298C424.37 50.3898 424.65 51.4098 424.83 52.6098C425.64 57.9698 424.89 57.2298 424.71 61.7298L424.6 64.4698V64.4398Z" fill="#90BEFB"/>
<path d="M459.69 256.01L459.6 264.399L459.56 267.029L454 267.209C452.63 267.249 451.39 267.25 449.99 267.2C445.29 267.02 440.64 267.069 435.98 267.149C433.34 268.399 434.23 267.629 430.59 269.109C426.95 270.569 425.33 271.799 422.4 274.239C417.53 278.309 415.13 282.22 413.08 288.23C412.81 289.03 412.36 289.979 412.3 290.799L411.98 295.1C411.87 296.46 411.87 297.669 411.99 299.029L412.27 302.35C412.4 303.91 413.85 308.169 414.45 309.439C415.92 312.539 418.02 315.359 420.34 317.929C423.08 320.969 429.1 324.719 432.85 325.679L436.51 326.619C437.21 326.799 438.48 327.019 439.24 327.019L459.53 327.059L459.41 328.739L459.34 341.459L440.98 341.439C440.31 341.429 439.59 341.309 438.94 341.369C435.48 341.709 436.91 341.219 433.88 341.309L431.26 341.41H402.5C401.28 341.41 400.23 341.289 399.03 341.359C397.67 341.439 396.34 341.419 394.83 341.399L394.79 291.529C394.79 290.769 394.6 290.09 394.71 289.39C395.18 286.26 394.42 287.759 394.71 284.279C394.88 282.469 394.86 280.589 394.71 278.779C394.47 275.929 395.12 275.12 394.7 271.14C394.04 264.86 395.31 263.569 394.72 256.969C394.65 256.289 394.26 254.8 395.51 254.85C396.65 254.9 397.85 254.91 399.11 254.74C401.79 255.06 405.88 255.02 408.69 254.85C410.8 254.71 412.81 254.739 414.92 254.779L418.9 254.85C422.89 254.92 424.74 254.88 428.53 254.88H439.46L446.02 254.829L448.96 254.759L451.43 254.839L454.86 254.799L458.85 254.649C459.25 254.639 459.7 255.619 459.7 256.019" fill="#90BEFB"/>
<path d="M279.93 294.36C275.52 299.64 268.48 303.23 262.06 305.25C261.09 305.56 260.01 306.03 259.12 306.18C254.09 306.97 256.61 307.15 252.6 307.52L249.31 307.83C243.96 308.32 236.63 307.98 232.85 304.15C232.03 303.32 231.19 302.22 231.33 301.01C231.4 300.38 231.46 299.28 231.67 298.77C232.43 296.9 233.86 295.3 235.3 293.9C235.69 293.51 236.25 292.7 236.63 292.42C238.17 291.25 239.67 290 241.37 289.21L244.9 287.57C245.98 287.07 247.05 286.66 248.17 286.25L252.81 284.63C254.16 284.16 255.35 283.92 256.83 283.74C257.97 283.6 259.32 282.78 260.51 282.76L266.22 282.66L268.51 282.54C273.32 282.28 277.49 282.91 280.69 286.78C282.37 288.83 281 293.09 279.92 294.37M244.68 274.49C243.97 274.49 243.25 275.12 242.88 275.54L240.5 278.34C239.79 279.17 238.63 280.08 238.02 280.9C234.28 285.91 234.55 284.46 230.92 288.62L226 294.25L221.71 298.74L219.83 300.85L214.27 307.21L211.66 310.02C209.67 312.18 207.77 314.23 205.85 316.43L204 318.54L201.26 321.53L197.41 325.61L192.73 330.87L190.99 332.84L187.31 336.82L185.4 338.84L179.89 345.09C179.07 346.01 178.31 346.81 177.47 347.77L171.52 354.56L171.56 361.15C172.52 361.21 173.54 360.75 173.95 359.87C174.43 358.87 175.61 358.58 176.25 357.87L183.63 349.63L186.9 346.09L189.61 343.11L193.75 338.4C195.16 336.8 196.65 335.28 198.18 333.74C202.91 328.96 207.2 325.77 213.51 323.17L216.53 321.93C217.89 321.36 218.93 320.98 220.5 321.03C221.39 321.05 222.65 320.43 223.56 320.51C227.27 320.85 230.12 321.58 230.6 325.85C230.29 327.44 228.47 331.39 227.56 332.43L219.28 341.84C218.83 342.35 218.27 342.91 217.76 343.42C215.33 345.89 213.27 348.52 210.93 351.08L207.82 354.48C205.79 356.7 203.79 358.51 201.99 361.16C202.62 361.52 203.14 361.19 203.73 361.19H212.97C213.34 361.18 214.26 361.45 214.52 361.23C216.34 359.51 217.91 357.54 219.56 355.73L222.13 352.89L226.67 347.77L232.01 341.73L238.33 335.21L243.43 330.17C245.86 327.76 248.05 325.57 251 323.71L253.6 322.07C255.47 320.88 257.5 320.17 259.58 319.44C266.44 317 264.8 320.34 267.81 316.95L270.2 314.24L274.24 310.02L278.59 305.01C280.98 302.24 282.15 301.48 284.86 298.49L287.69 295.37L291.38 291.37L293.24 289.25L295.81 286.42L301.23 280.46L304.3 277.01C304.99 276.25 305.87 275.69 306.03 274.52H244.67L244.68 274.49Z" fill="#90BEFB"/>
<path d="M230.099 466.3H201.519C200.199 465.32 200.019 463.66 199.519 462.28L198.259 458.85L196.969 455.19C196.719 454.47 196.389 453.77 196.189 452.99C196.019 452.3 195.529 451.53 195.319 450.95L194.149 447.65L192.819 443.96L191.719 440.92L190.559 437.62L189.259 434.25L188.039 430.78L182.339 415.38C181.769 413.86 181.149 412.74 180.749 411.03C180.499 409.99 179.979 408.69 179.569 407.62L178.409 404.61L176.419 399.05C175.939 397.68 175.059 396.21 174.389 394.8C174.289 394.62 170.929 390.93 171.039 390.93C168.949 389.23 163.399 386.23 161.249 386.22L147.459 386.1L147.399 379.98C147.399 379.88 147.439 379.51 147.519 379.49C147.609 379.49 147.789 379.48 147.919 379.48H181.949C182.679 379.49 183.389 379.68 184.099 379.58C185.659 379.37 187.219 379.56 188.749 379.52C192.179 379.43 195.479 379.4 198.859 379.53C199.499 379.55 200.079 379.59 200.699 379.55C203.459 379.35 206.889 379.51 209.769 379.62L211.359 379.55C215.009 379.6 216.769 379.27 220.729 379.54C221.599 379.61 222.219 379.69 223.129 379.52C223.749 379.39 224.729 379.91 224.929 380.52L225.779 383.12C226.079 384.03 226.529 384.84 226.689 385.8L212.329 385.82C211.719 385.83 210.749 386.73 210.249 386.89C205.229 388.45 203.579 391.93 204.619 397.08C204.849 398.2 205.439 399.46 205.829 400.5L206.669 402.68L207.619 405.24L208.949 408.9L210.039 411.97L211.299 415.44L212.549 418.86L213.529 421.51L214.379 423.8L215.579 427.07L216.609 429.9L217.939 433.52L219.149 436.89L220.269 439.99L221.879 444.41L223.139 447.87L225.309 454.01L226.349 456.8L227.549 460.04C227.919 461.06 228.299 462.04 228.719 463.02L230.099 466.26V466.3Z" fill="#90BEFB"/>
<path d="M246.57 414.95L246.54 460.72L246.33 463.65C246.21 465.09 245.41 466.27 244 466.26H233.53C232.73 466.24 231.89 464.59 231.89 463.72V415.19C232.2 414.59 233.18 413.51 233.82 413.51L245.49 413.48C245.74 413.66 246.52 414.54 246.58 414.96" fill="#90BEFB"/>
<path d="M236.7 405.6C235.85 408.31 233.66 410.09 231.36 411.6C228.58 413.43 224.46 413.32 221.19 412.21C219.26 411.55 216.55 409.09 215.78 407.57L214.74 405.49C213.84 403.7 214.24 401.6 214.36 399.68C214.74 393.47 221.2 388.61 227.97 390.24C228.35 390.33 229.29 390.22 229.61 390.37C230.36 390.72 231.82 391.33 232.44 391.86C234.23 393.38 236.06 395.13 236.72 397.27C237.59 400.06 237.57 402.83 236.71 405.59" fill="#90BEFB"/>
<path d="M198.68 312.549C197.69 312.669 194.04 312.779 193.35 312.629C192 312.359 190.84 312.679 189.54 312.679L170.2 312.759C168.95 311.729 168.38 310.249 168.14 308.559L167.26 306.999C167.11 305.669 166.63 304.699 166.22 303.529L165.02 300.189L163.75 296.899L162.54 293.609L161.47 290.679L160.25 287.329L159.18 284.379L158.36 282.279L157.24 279.059L156.14 276.019L154.84 272.479C153.56 269.009 152.57 265.459 151.02 262.109C150.26 260.449 149.75 259.099 149.25 257.269C148.99 256.369 148.48 255.209 148.14 254.239L144.94 245.469C144.5 244.279 143.77 243.029 143.24 241.799C142.67 240.469 141.17 239.439 140.32 238.309C139.66 237.429 139.04 236.729 138.07 236.249C136.59 235.489 135.25 234.449 133.64 233.879C132.53 233.489 130.76 232.629 129.64 232.609L114.39 232.459C113.82 231.529 111.3 226.979 112.12 226.249C113.51 225.799 115.13 225.999 116.69 225.999H150.27C151.12 225.999 151.88 226.179 152.71 226.069C155.47 225.689 154.96 226.189 158.11 226.049C161.2 225.909 164.25 225.919 167.34 226.049C168 226.069 168.58 226.109 169.22 226.059C171.15 225.929 173.06 225.979 174.93 226.019L178.01 226.119C178.6 226.129 179.3 226.129 179.9 226.109L182.26 226.049C184.38 225.989 186.55 225.899 188.69 226.049C189.83 226.129 190.74 226.219 191.87 226.039C192.85 225.889 193.4 226.929 193.69 227.779L194.87 231.129C194.99 231.459 195.08 231.749 195.13 231.919C195.18 232.109 194.49 232.479 194.28 232.479L180.55 232.499C180.06 232.499 179.21 233.259 178.81 233.379C175.79 234.209 173.2 236.599 172.82 239.829C172.57 241.889 173.1 243.779 173.81 245.579L174.85 248.249L175.64 250.399L176.71 253.319L178.06 257.069L179.2 260.209L180.41 263.539L181.57 266.939L182.35 268.509C182.86 269.539 183 270.479 183.36 271.469L184.57 274.809L185.79 278.179L186.91 281.299L188.33 285.289L192.78 297.459L194.33 301.759L195.55 305.129L196.63 308.019L197.7 310.649C197.96 311.289 198.23 311.699 198.68 312.539" fill="#90BEFB"/>
<path d="M55.6798 35.8902C55.5698 36.5302 54.9898 37.7402 54.7098 38.3302C53.2398 41.4002 48.9798 44.1702 45.8998 45.1902L43.2798 46.0702C38.9998 47.5102 40.8798 45.8202 36.9398 47.5302H29.7898C26.0698 46.0702 25.9198 47.2902 21.5098 45.6002C19.6398 44.8902 15.3098 42.7802 14.2298 41.4002L12.0598 38.5902C10.3898 36.4502 11.0698 35.7002 10.8398 33.3202L13.3998 28.6102L16.4098 26.3602C19.9898 23.6902 25.5098 22.4802 30.0098 22.1302L33.5498 21.8502C35.0598 21.7402 36.8398 22.5002 38.2998 22.4702C39.0998 22.4502 39.8098 22.4502 40.4898 22.6002L43.5698 23.3602C46.4498 24.0702 52.4698 27.3702 53.9198 29.7502C54.9798 31.4902 56.0498 33.8602 55.6798 35.8902ZM64.7598 35.9202L64.5998 34.3002C64.7198 33.2002 64.7898 32.2902 64.7698 31.2802L64.7098 28.7402L64.6898 24.9502L64.7098 21.8202L64.7598 17.0802C64.7598 15.9302 64.6998 14.8002 64.2898 13.7002C59.6298 14.8402 59.6398 13.4802 55.9498 14.1002C54.6198 14.3302 53.4198 14.2102 52.0398 14.0002L50.3898 14.1802C49.1398 14.0002 48.0598 14.1302 46.8598 14.1102L43.2998 14.0502L35.8898 14.1002L32.8798 14.1702C31.3098 14.2102 29.3798 13.7002 27.8698 13.9102C26.4198 14.1002 25.3598 14.1902 23.9298 14.0902C20.9498 13.8802 17.9698 13.8702 14.9398 14.0302C13.1298 14.1302 11.2898 14.4102 9.43984 14.2202C4.23984 13.7202 4.75984 14.2802 0.159844 13.9902L0.229844 28.6202L0.0998438 33.1702C-0.0201562 37.3002 0.249844 41.3502 0.0898438 45.4902C0.0398438 46.7202 -0.0701563 47.7902 0.0798438 49.0302C0.189844 49.9602 0.319844 51.2102 0.249844 52.0502C0.00984375 54.5802 -0.000156246 56.9002 0.0798438 59.4402L0.359844 67.6802C0.409844 68.9002 0.0798438 70.1602 0.0798438 71.3502L0.129844 77.7302L0.209844 90.0902V91.8402L0.189844 100.5L9.73984 100.54V71.4102L11.3798 67.7102C11.9198 66.5002 12.8098 65.4702 13.6898 64.5202C15.2398 62.8502 16.9998 61.7902 19.0998 60.8702C21.9498 59.6302 22.3398 60.1802 24.0198 60.0802C30.2498 59.7502 36.2298 64.5102 37.8498 70.7402L37.8898 100.5L51.0598 100.52C51.3598 100.11 51.2798 99.4402 51.2598 98.8902L51.0398 87.6802C50.9798 84.8302 50.9198 82.0502 51.0298 79.2202L51.2798 73.0202C51.3198 72.1402 51.3998 70.7002 51.6098 69.9502L52.5798 66.4302C53.2598 64.0002 55.5598 60.4902 58.2698 59.2702C61.1898 57.9702 60.9898 58.1902 64.5198 57.8902L64.5598 40.9402C64.5598 40.5202 64.8498 39.6102 64.7698 39.2502C64.4898 38.0702 64.5598 37.0802 64.7698 35.9002" fill="#90BEFB"/>
<path d="M363.55 424.82C361.77 426.15 360.8 428.55 357.34 427.45C354.92 429.52 352.12 429.26 349.45 428.12C347.78 427.95 345.47 428.89 343.81 427.95C340.38 426.02 340.86 428.33 338.08 426.1L336.27 425.88L331.53 423.62C330.73 423.23 329.46 423.15 328.86 422.55C327.73 421.43 326.66 421.04 325.2 420.53C323.75 420.03 322.44 418.84 321.16 417.98C320.24 417.37 319.12 416.81 318.35 416.13L315.04 413.24L312.49 411.11C311.52 410.29 310.72 408.96 309.86 407.94C307.9 405.63 306.19 403.32 304.36 400.91L302.61 398.6L300.68 396.13L297.24 391.73L295.72 389.72L293.59 386.91L292.2 385.07L288.47 380.06L286.96 377.8C286.08 376.5 285.48 375.5 285.23 373.88C284.99 372.21 284.46 370.47 285.04 368.83C286.9 363.54 290.49 361.75 295.67 360.71C296.75 360.49 297.75 360.53 298.87 360.55C300.18 360.59 301.53 360.23 302.85 360.76C304.32 361.36 306.06 361.1 307.47 361.49C311.92 362.72 310.7 362.12 314.89 363.61L318.19 364.79C317.79 364.64 323.71 367.37 323.5 367.26L328.53 370.13C331.58 371.86 333.69 373.56 336.18 375.83L338.65 378.07C339.39 378.75 340.68 379.29 341.08 380.22C341.7 381.69 342.68 382.37 343.74 383.46C344.71 384.47 345.16 386.36 346.31 387.28C347.29 388.07 347.68 388.93 348.39 389.93C350.03 392.3 354.46 397.29 354.91 397.98C358.4 403.43 359.32 403.56 362.44 407.91C363.05 408.76 363.72 409.86 364.18 410.78L366.31 415.11C367.01 416.54 366.95 418.22 366.23 419.57C366.53 421.87 365.28 423.55 363.58 424.82M396.34 436.41C395.05 435.27 394.25 434.06 393.25 432.73L391.21 429.98L389.63 427.91L386.46 423.79C383.89 420.45 385.96 422.26 382.69 418.88C382.22 418.39 381.85 417.96 381.45 417.45L377.55 412.34C376.79 411.34 376.29 410.13 375.33 409.32C374.54 408.66 374.05 407.89 373.44 407.08L366.52 397.98C366.01 397.31 365.45 396.36 364.95 395.8C363.64 394.33 362.45 393.03 361.59 391.23L360.51 390.33C359.99 389.41 359.51 388.6 358.92 387.81L357.16 385.49L354.95 382.74L349.18 375.4L346.21 371.66L344.17 369.02L342.15 366.38C341.33 365.32 340.69 364.41 339.92 363.35L338.45 361.31L333.63 355.43C333.08 354.76 333.22 353.66 332.12 353.36L330.94 351.89C328.07 352.28 325.37 352.61 322.66 352.05C322.12 351.94 321.36 351.61 320.93 351.83C319.66 352.46 318.7 352.15 317.44 352.07L311.97 351.77C307.42 351.51 303.05 351.66 298.51 351.76C296.65 351.8 294.68 352.3 292.87 351.78C291.46 351.37 290.3 351.54 288.86 351.59L280.24 351.82C277.1 351.91 274.23 351.66 271.08 351.44L268.81 351.3C264.83 351.03 259.19 351.75 256.09 351.31L254.69 351.12C254.47 351.08 254.31 351.7 254.22 351.95C255.63 352.69 256.23 353.94 257.16 355.15L260.47 359.43L262.34 361.91L263.82 363.95C264.31 364.63 264.91 365.46 265.46 366.09C267.41 368.34 268.96 370.67 270.73 373.08C271.15 373.64 271.97 374.16 272.41 374.93C273.24 376.38 274.53 377.65 275.56 378.99L280.52 385.39L284.3 390.65L288.69 396.21L297.32 407.38C297.89 408.13 298.54 408.63 299.07 409.46C299.87 410.72 300.88 411.87 301.83 413.06L303.24 414.81L305.37 417.67L308.99 422.51C309.94 423.77 310.83 425.21 311.87 426.3C313.27 427.75 314.44 429.04 315.3 430.82L316.43 432.24C316.99 432.93 317.35 433.87 318.17 434.31C319.32 434.94 319.87 435.93 320.28 437.29C326.87 437.57 330.29 436.72 337.22 437.18C339.19 437.31 341.04 437.31 343 437.33L364.56 437.5C370.21 437.55 375.68 437.68 381.35 437.57C382.14 437.56 382.95 437.46 383.71 437.53L386.96 437.86C389.9 438.15 389.97 437.7 393.06 437.78L395.75 437.85C396.08 437.86 396.78 437.79 396.85 437.51C396.92 437.22 396.58 436.62 396.35 436.42" fill="#90BEFB"/>
<path d="M172.57 58.7802C172.44 60.7702 172.39 62.6302 172.6 64.6602C172.74 66.0302 172.51 67.6102 172.96 68.8102C174.2 72.3102 173.39 71.0902 175.11 74.9702C175.4 75.6302 175.83 76.6001 176.19 77.1301L178.58 80.7202C181.21 84.6602 185.03 87.2902 189.04 89.3502C190.13 89.9102 195.09 91.5201 195.5 91.5201L216.23 91.7302L216.2 105.99H157.98L157.1 106.2C156.93 106.24 156.59 105.66 156.59 105.2L156.56 56.1702C156.56 55.2902 156.44 54.7802 156.49 54.2002C156.84 50.6402 156.26 52.3102 156.49 49.1102C156.75 45.2802 156.33 43.6202 156.49 41.2302C156.84 36.0402 156.18 35.8202 156.42 31.0802L156.76 24.6902C156.85 23.0602 155.71 19.5002 157.12 19.5702C158.36 19.6402 159.52 19.6202 160.77 19.4402L162.26 19.6302C164.44 19.9102 174.53 19.2102 178.9 19.5502C182.15 19.8002 184.43 19.5702 187.71 19.5702L197.71 19.5902L203.76 19.5402C206.71 19.5202 209.08 19.4102 212.09 19.5402C213.29 19.5902 214.67 19.1502 215.85 19.4602C216.63 19.6702 216.26 20.8602 216.26 21.3702L216.24 30.2802C216.24 30.6402 216.46 31.2202 216.29 31.4302C216.13 31.6402 215.5 31.8202 215.2 31.8302L212.05 31.9202C210.21 31.9702 208.47 32.0302 206.61 31.8202C202.4 31.3502 202.79 32.3502 198.79 31.8302C197.71 31.7002 196.05 31.5502 195.04 31.8802L191.14 33.1402C190.03 33.4902 185.57 35.8702 184.71 36.6402L180.98 39.9302C180.14 40.6802 179.52 41.5302 178.83 42.3802C176.04 45.8102 174.71 48.9502 173.29 53.2702C172.69 55.0502 172.69 56.8302 172.57 58.7602" fill="#90BEFB"/>
<path d="M325.17 67.72C324.86 70.38 323.63 72.15 321.49 73.73C320.01 74.81 318.83 76.71 316.61 76.34C315.57 76.17 314.64 76.58 313.77 77.2C312.01 78.5 309.92 77.68 308.03 77.21C306.18 76.75 303.93 77.47 302.14 76.88C301.12 76.55 300.41 76.01 299.21 76.17C298.19 76.3 297.25 75.46 296.35 75.19C295.04 74.8 293.61 74.6 292.44 73.8C291.26 72.97 289.82 72.7 288.65 72.08C287.29 71.37 286.27 70.3 284.72 69.84C283.19 69.41 281.93 67.91 280.57 67.13C278.81 66.12 277.64 65.1 276.33 63.65C274.03 61.08 273.68 61.97 270.74 57.63L265.85 50.37L262.81 45.69L259.86 41.39L258.31 39L252.45 29.88L250.67 26.76C250.14 25.83 249.78 25.13 249.71 24C249.61 22.22 249.2 20.39 249.65 18.61C249.82 17.97 250.35 16.62 250.73 16.1C251.93 14.5 254.84 11.62 256.52 10.98C263.7 8.28997 265.28 9.45997 272.69 10.11C273.34 10.16 274.56 10.95 275.25 10.95C276.64 10.94 277.54 11.32 278.75 11.8L281.17 12.75C284.68 14.14 288.38 15.9 291.58 17.95C293.44 19.13 295.36 20.22 296.98 21.74L302.6 27.05C303.52 27.9 304.11 28.78 304.56 30.08L306.47 31.99C307.2 34.03 308.46 35.45 309.54 37.19L311.28 40C312.68 42.25 314.51 44.19 315.86 46.45C317.46 49.17 318.98 51.66 320.98 54.15C323.41 57.19 324.66 61.14 325.86 64.91C326.18 65.93 325.27 66.98 325.18 67.7M351.13 82.06L349.65 79.85L348.86 78.49L347.12 75.93L344.56 72.07C344.05 71.32 343.66 70.62 343.21 69.76C342.57 68.51 341.5 67.41 340.69 66.26L338.53 63.19L335.24 57.88C334.7 57.01 333.76 56.3 333.25 55.31C332.82 54.46 332.27 53.63 331.76 52.85L327.62 46.57C327.15 45.86 326.56 44.76 326.09 44.15C324.91 42.62 323.99 41.25 322.96 39.58L321.37 36.98C318.54 32.37 316.29 29.58 313.34 24.88C312.66 23.8 311.91 22.91 311.19 21.84L309.11 18.78L305.2 12.91L303.86 10.58C303.03 9.12997 302.15 7.92997 301.06 6.59997C297.15 1.79997 300.12 3.37997 297.49 1.01997C295.24 -0.990034 294.23 1.48997 288.44 0.289966C288.07 0.209966 287.24 -0.180034 286.92 0.0599661C285.83 0.839966 284.53 0.789966 283.27 0.199966C282.61 0.249966 281.26 0.579966 280.65 0.489966C278.27 0.129966 276.22 0.349966 273.88 0.399966L264.43 0.599966C262.3 0.649966 260.42 0.799966 258.31 0.589966C256.15 0.389966 253.93 0.579966 251.78 0.649966L245.77 0.879966C244.42 0.929966 242.89 1.25997 241.51 1.07997C230.83 -0.270034 231.15 1.25997 222.95 0.679966C222.17 0.629966 221.57 0.499966 221.1 1.17997C222.11 2.33997 222.93 3.42997 223.8 4.76997L230.89 15.72L233.42 19.25C234.07 20.17 234.38 21.95 235.2 22.52C237.61 24.17 235.16 22.84 238.36 26.85C238.92 27.54 239.33 28.3 239.84 29.04C242.17 32.34 244.27 35.57 246.33 39.07C246.95 40.14 247.82 41.23 248.52 42.3L253.03 49.1L258.4 57.12C258.73 57.63 259.28 58.15 259.6 58.7C260.63 60.43 261.7 62.05 262.89 63.64C264.46 65.75 263.13 64.05 264.81 66.63L270.46 75.29C271.24 76.47 272.36 77.59 273.01 78.79L274.44 81.38C276.46 85.08 277.15 83.49 278.11 86.76C280.01 86.89 282.25 86.75 284.26 86.61L288.58 86.29C294.17 85.88 295.06 86.82 299.81 86.33C302.55 86.62 305.13 86.36 307.8 86.29L315.76 86.11C317.85 86.06 319.73 85.85 321.87 86.25C323.14 86.49 324.3 86.36 325.55 86.33L333.05 86.08C335.93 85.98 338.83 85.8 341.72 86.03C343.92 86.2 345.95 86.12 348.14 86.03L353.93 85.8L351.14 82.03L351.13 82.06Z" fill="#90BEFB"/>
</g>
</g>
<defs>
<clipPath id="clip0_2554_5428">
<rect width="543.42" height="499.5" fill="white"/>
</clipPath>
</defs>
</svg>
