<svg width="702" height="154" viewBox="0 0 702 154" fill="none" xmlns="http://www.w3.org/2000/svg">
<g clip-path="url(#clip0_2559_5990)">
<mask id="mask0_2559_5990" style="mask-type:luminance" maskUnits="userSpaceOnUse" x="0" y="0" width="702" height="154">
<path d="M701.66 0H0V153.92H701.66V0Z" fill="white"/>
</mask>
<g mask="url(#mask0_2559_5990)">
<path d="M26.7802 118.47C19.4902 118.47 13.5802 112.56 13.5802 105.28C13.5802 98.0003 19.4902 92.0903 26.7802 92.0903C34.0702 92.0903 39.9802 98.0003 39.9802 105.28C39.9802 112.56 34.0702 118.47 26.7802 118.47ZM53.4402 102.71L53.2702 101.63C53.1602 100.92 53.0902 100.25 52.9302 99.5503L52.6302 98.1903L52.2902 97.0103C51.8302 95.4403 50.6102 93.0203 49.8002 91.5403C49.5902 91.1603 49.3402 90.8503 49.1002 90.5003C47.8902 88.7303 46.5602 87.1203 44.9602 85.6703C43.8502 84.6703 42.7302 83.7103 41.4402 82.9603L38.9102 81.4803C38.6002 81.3003 37.0702 80.6303 36.7202 80.5103L35.3702 80.0403L34.1702 79.6703L33.3602 79.4403L31.8502 79.1303C31.2102 79.0003 30.6202 78.8303 29.9702 78.8303C28.2102 78.5803 26.7602 78.6103 25.0002 78.6503L23.1502 78.8303C21.4902 78.9903 21.7802 79.1603 20.2602 79.3503L18.7002 79.8303L17.2802 80.2903C16.8802 80.4203 16.4902 80.5903 16.1002 80.7703L15.0602 81.2403C14.7402 81.3803 14.4202 81.7003 14.0202 81.4203C13.8102 81.2703 13.9502 80.8903 13.9602 80.6603V78.0403L13.9702 77.4903V50.4303C13.9702 50.1903 13.9102 49.9303 13.7302 49.8503C13.4402 49.7303 13.1302 49.8903 12.8302 49.8903H2.19023C1.97023 49.8903 1.72023 49.7903 1.52023 49.8303C1.21023 49.9003 0.970234 49.9003 0.650234 49.8303C0.470234 49.7903 -0.00976562 49.8203 -0.00976562 50.1503V106.24C0.0402344 106.59 0.0602344 106.84 0.0802344 107.18L0.150234 108.08C0.210234 108.92 0.350234 109.73 0.530234 110.55L0.850234 112.04L1.31023 113.77C1.35023 113.92 1.48023 114.13 1.52023 114.28C1.76023 115.01 2.08023 115.81 2.42023 116.47L2.88023 117.36L3.34023 118.26C3.87023 119.3 4.97023 120.92 5.72023 121.83C6.52023 122.81 7.27023 123.76 8.23023 124.59C8.91023 125.18 9.51023 125.82 10.2302 126.35L10.7102 126.7C11.1102 127 11.5202 127.31 11.9402 127.57L13.3402 128.45C14.3902 129.11 15.4702 129.62 16.6302 130.05L17.6202 130.42L19.1302 130.94C19.5402 131.08 19.9302 131.22 20.3602 131.28C20.7602 131.33 21.1002 131.47 21.4802 131.57C21.9702 131.69 22.5102 131.72 23.0302 131.79C23.6702 131.88 24.2902 132.02 24.9502 132.05C25.8502 132.09 28.5602 132.12 29.3602 131.99L30.5602 131.79L32.1402 131.61C33.3402 131.2 33.5902 131.28 34.9002 130.83L36.3002 130.34C36.9002 130.13 38.9002 129.26 39.4302 128.95C40.2902 128.45 41.1302 127.97 41.9402 127.4L43.3202 126.43C43.4602 126.33 43.6202 126.16 43.7502 126.05C44.3102 125.6 44.7902 125.1 45.3202 124.6L46.0602 123.91C46.4002 123.6 47.6102 122.16 47.9502 121.72C49.8802 119.26 51.3302 116.37 52.3402 113.41L52.7102 112.03L52.9802 110.78C53.1202 110.14 53.1902 109.53 53.2702 108.88L53.5102 107.1C53.5902 106.52 53.5502 103.4 53.4402 102.71Z" fill="#90BEFB"/>
<path d="M196.18 148.52L191.22 148.5L190.32 148.48H189.55C188.57 148.51 187.61 148.53 186.64 148.48C185.65 148.44 186.27 148.56 185.42 148.45C184.99 148.5 184.61 148.48 184.19 148.48C183.68 148.47 183.15 148.55 182.6 148.48C182.27 147.46 182.11 146.13 182.1 145.05C182.1 144.78 182.1 144.34 181.78 144.26C181.16 144.1 180.87 144.97 180.41 145.4L179.29 146.46C178.41 147.29 177.33 147.87 176.24 148.37L174.94 148.97C174.17 149.33 172.79 149.69 171.93 149.86L170.95 150.06C170.39 150.18 169.81 150.21 169.24 150.24L168.32 150.3C167.48 150.35 166.65 150.33 165.81 150.3C164.04 150.23 162.92 150.02 161.22 149.54L160.4 149.3C160.01 149.19 157.53 147.98 157.11 147.71C153.56 145.47 151.64 142.77 149.96 138.98C149.75 138.51 149.17 136.71 149.06 136.19L148.73 134.7C148.59 134.06 148.5 133.46 148.42 132.82L148.08 130.14V99.25C148.08 98.95 147.97 98.73 148.17 98.47H161.69C161.83 98.47 161.99 98.41 162.06 98.44C162.15 98.48 162.29 98.69 162.29 98.79C162.31 99.65 162.33 100.45 162.27 101.29C162.22 101.95 162.24 102.58 162.27 103.25C162.34 104.99 162.31 106.71 162.29 108.47C162.29 109.25 162.35 109.55 162.28 110.26C162.26 110.48 162.3 110.68 162.3 110.9V119.37C162.3 119.64 162.27 119.87 162.3 120.14C162.34 120.74 162.33 121.31 162.3 121.92C162.28 122.27 162.37 122.67 162.3 123.04C162.22 123.44 162.31 123.81 162.32 124.21L162.35 129.38C162.35 129.86 162.57 130.33 162.65 130.79C162.8 131.62 163.39 133 163.89 133.63C165.02 135.05 165.62 135.75 167.24 136.62C167.87 136.96 168.8 137.29 169.52 137.42L170.29 137.55C171.17 137.7 171.99 137.71 172.87 137.54C173.26 137.46 173.7 137.42 174.08 137.3C175.06 136.99 176.17 136.56 177 136C177.9 135.39 178.7 134.66 179.42 133.84C179.65 133.58 179.82 133.26 179.99 132.97L180.33 132.4C181.14 131.06 181.18 130.54 181.53 128.99V98.77C181.53 98.53 181.7 98.45 181.92 98.45H195.6C195.73 98.45 195.84 98.64 195.84 98.77L195.87 134.82L195.96 139.2L196.03 142.13L196.09 143.46L196.16 144.36L196.23 145.12C196.27 145.57 196.28 146.01 196.3 146.47C196.33 147.15 196.64 148.49 196.21 148.49" fill="#90BEFB"/>
</g>
<path d="M416.35 0H402.75V80.38H416.35V0Z" fill="#90BEFB"/>
<path d="M306.69 103.79H292.46V153.91H306.69V103.79Z" fill="#90BEFB"/>
<mask id="mask1_2559_5990" style="mask-type:luminance" maskUnits="userSpaceOnUse" x="0" y="0" width="702" height="154">
<path d="M701.66 0H0V153.92H701.66V0Z" fill="white"/>
</mask>
<g mask="url(#mask1_2559_5990)">
<path d="M308.28 85.2596C308.28 90.0596 304.39 93.9496 299.58 93.9496C294.77 93.9496 290.88 90.0596 290.88 85.2596C290.88 80.4596 294.77 76.5596 299.58 76.5596C304.39 76.5596 308.28 80.4496 308.28 85.2596Z" fill="#90BEFB"/>
<path d="M701.66 37.4998V40.2898C701.6 40.1298 701.52 41.3198 701.49 41.4798C701.29 42.5898 701.1 43.5598 700.69 44.5898L700.23 45.7098C699.41 47.7298 697.78 49.5798 696.09 50.9798C695.63 51.3598 694.38 52.2498 693.86 52.5098C692.42 53.2197 690.98 53.8698 689.44 54.3298C688.72 54.5498 688.01 54.7598 687.28 54.8698L685.24 55.1798C684.79 55.2498 684.34 55.2998 683.89 55.3298L683.05 55.3898C682.55 55.4298 681.4 55.3598 681.33 55.4898H679.53C679.3 55.3498 678.6 55.4498 677.93 55.3798L676.22 55.2098L675.28 55.0898C674.39 54.9798 673.57 54.7998 672.7 54.5798C672.16 54.4398 671.64 54.3298 671.12 54.1198L669.98 53.6798C669.58 53.5298 669.2 53.3698 668.82 53.1798L668 52.7898C666.86 52.2498 666.31 51.8597 665.32 51.0998C664.42 50.4098 663.54 49.6698 662.84 48.7698L662.21 47.9598L661.75 47.3598C661.51 47.0498 661.27 46.7098 661.1 46.3698L660.31 44.7398C660.05 44.2098 659.53 42.8498 659.38 42.2998L658.87 40.4598C658.77 40.0898 658.73 39.6298 658.65 39.2298C658.56 38.7598 659.75 38.6598 660.23 38.5498L663.02 37.9398L665.48 37.3898L666.93 37.0598C667.01 37.0398 669.78 36.4398 669.78 36.4898C670.01 36.4098 670.42 36.2697 670.57 36.5098C670.89 38.2397 671.19 38.9298 671.99 40.4298C672.45 41.2998 674.06 42.7798 674.89 43.2498C675.57 43.6398 676.69 44.0898 677.42 44.2498C678.05 44.3898 680.27 44.7397 680.78 44.7098C681.63 44.6798 683.54 44.4798 684.28 44.2298C685.32 43.8798 685.48 43.8598 686.39 43.2498C686.92 42.8998 687.32 42.3698 687.7 41.8598C688.53 40.7298 688.47 38.7498 687.42 37.5698C686.3 36.3198 684.53 35.4798 682.93 35.0198L681.34 34.5598L680.09 34.2798L678.81 33.9698L676.76 33.5198L674.62 33.0298C673.51 32.7698 672.45 32.4398 671.4 32.0298L670.31 31.6098C670.05 31.5098 669.74 31.3598 669.5 31.2198L667.88 30.3598C665.89 29.3098 663.7 27.4298 662.51 25.5098L662.13 24.8998C661.72 24.2398 661.34 23.5198 661.12 22.7798L660.77 21.6298C660.51 20.7798 660.49 19.8798 660.37 18.9898C660.27 18.2198 660.29 17.4998 660.37 16.7298C660.58 14.7798 660.6 14.5298 661.16 12.6798C661.36 12.0498 662 10.8098 662.36 10.1998C663.51 8.22975 665.14 6.51975 667.06 5.27975L668.26 4.50975C668.71 4.21975 669.78 3.68975 670.31 3.48975L671.19 3.13975C671.96 2.83975 674.6 2.05975 675.37 1.97975C676.36 1.87975 676.7 1.65975 677.55 1.61975L678.88 1.55975C679.59 1.52975 680.3 1.50975 681.02 1.55975C681.54 1.58975 682.93 1.62975 683.22 1.68975L684.58 1.96975C685.03 2.05975 685.21 1.99975 686.12 2.25975C687.09 2.52975 688.05 2.77975 688.99 3.15975L689.81 3.47975C690.94 3.92975 691.48 4.17975 692.49 4.84975L693.76 5.69975C693.98 5.84975 694.95 6.65975 695.2 6.87975C696.69 8.24975 697.84 9.88975 698.73 11.6998C699.33 12.9198 699.76 14.5298 699.98 15.8798C700.02 16.1198 700.02 16.4698 699.69 16.5298L698.17 16.8098L697.28 17.0198L695.18 17.4098L693.85 17.6698L692.35 17.9698L690.11 18.4398L688.55 18.7698C687.72 18.9498 688.48 18.2398 687.8 16.6998C686.96 14.8098 685.89 13.9198 684.08 13.0198C683.54 12.7498 683.03 12.6498 682.44 12.5398C681.79 12.4098 681.18 12.2798 680.51 12.2898C680.11 12.2898 679.63 12.2798 679.26 12.3598L677.83 12.6698C676.92 12.8698 676.18 13.4098 675.45 13.9598C674.38 14.7598 673.88 15.9698 673.92 17.2798C673.95 18.2298 674.21 19.0398 674.89 19.7498C675.48 20.3598 676.23 20.8298 677.06 21.1598C677.9 21.4998 678.77 21.7898 679.66 22.0098L681.3 22.4098C682.28 22.6498 683.25 22.8298 684.24 22.9998L687.04 23.4698C690.37 24.0298 692.75 24.9698 695.57 26.8098C696.4 27.3498 697.08 27.9798 697.76 28.6998C698.08 29.0398 698.41 29.3498 698.7 29.7298C700.06 31.5198 701.08 33.9297 701.43 36.1698L701.65 37.5298L701.66 37.4998Z" fill="#90BEFB"/>
<path d="M537.22 91.3997C530.15 91.3997 524.43 85.6797 524.43 78.6197C524.43 71.5597 530.15 65.8396 537.22 65.8396C544.29 65.8396 550.01 71.5697 550.01 78.6197C550.01 85.6697 544.28 91.3997 537.22 91.3997ZM563.84 51.0597V25.2796C563.84 25.0496 563.76 24.8896 563.53 24.8896H550.44C550.21 24.8896 549.98 24.9196 549.98 25.2196V50.8196C550.14 51.1996 550.03 52.0597 549.36 52.0597H511.22C511.06 52.0597 510.93 52.1496 510.82 52.2496V104.95C510.9 105.14 510.99 105.27 511.15 105.27H564.17V52.0896C563.91 51.7796 563.8 51.4897 563.83 51.0597" fill="#90BEFB"/>
</g>
</g>
<defs>
<clipPath id="clip0_2559_5990">
<rect width="701.66" height="153.92" fill="white"/>
</clipPath>
</defs>
</svg>
