<svg width="712" height="164" viewBox="0 0 712 164" fill="none" xmlns="http://www.w3.org/2000/svg">
<g clip-path="url(#clip0_2559_5692)">
<mask id="mask0_2559_5692" style="mask-type:luminance" maskUnits="userSpaceOnUse" x="0" y="0" width="712" height="164">
<path d="M711.66 0H0V163.92H711.66V0Z" fill="white"/>
</mask>
<g mask="url(#mask0_2559_5692)">
<path d="M31.7802 123.47C24.4902 123.47 18.5802 117.56 18.5802 110.28C18.5802 103 24.4902 97.0903 31.7802 97.0903C39.0702 97.0903 44.9802 103 44.9802 110.28C44.9802 117.56 39.0702 123.47 31.7802 123.47ZM58.4402 107.71L58.2702 106.63C58.1602 105.92 58.0902 105.25 57.9302 104.55L57.6302 103.19L57.2902 102.01C56.8302 100.44 55.6102 98.0203 54.8002 96.5403C54.5902 96.1603 54.3402 95.8503 54.1002 95.5003C52.8902 93.7303 51.5602 92.1203 49.9602 90.6703C48.8502 89.6703 47.7302 88.7103 46.4402 87.9603L43.9102 86.4803C43.6002 86.3003 42.0702 85.6303 41.7202 85.5103L40.3702 85.0403L39.1702 84.6703L38.3602 84.4403L36.8502 84.1303C36.2102 84.0003 35.6202 83.8303 34.9702 83.8303C33.2102 83.5803 31.7602 83.6103 30.0002 83.6503L28.1502 83.8303C26.4902 83.9903 26.7802 84.1603 25.2602 84.3503L23.7002 84.8303L22.2802 85.2903C21.8802 85.4203 21.4902 85.5903 21.1002 85.7703L20.0602 86.2403C19.7402 86.3803 19.4202 86.7003 19.0202 86.4203C18.8102 86.2703 18.9502 85.8903 18.9602 85.6603V83.0403L18.9702 82.4903V55.4303C18.9702 55.1903 18.9102 54.9303 18.7302 54.8503C18.4402 54.7303 18.1302 54.8903 17.8302 54.8903H7.19023C6.97023 54.8903 6.72023 54.7903 6.52023 54.8303C6.21023 54.9003 5.97023 54.9003 5.65023 54.8303C5.47023 54.7903 4.99023 54.8203 4.99023 55.1503V111.24C5.04023 111.59 5.06023 111.84 5.08023 112.18L5.15023 113.08C5.21023 113.92 5.35023 114.73 5.53023 115.55L5.85023 117.04L6.31023 118.77C6.35023 118.92 6.48023 119.13 6.52023 119.28C6.76023 120.01 7.08023 120.81 7.42023 121.47L7.88023 122.36L8.34023 123.26C8.87023 124.3 9.97023 125.92 10.7202 126.83C11.5202 127.81 12.2702 128.76 13.2302 129.59C13.9102 130.18 14.5102 130.82 15.2302 131.35L15.7102 131.7C16.1102 132 16.5202 132.31 16.9402 132.57L18.3402 133.45C19.3902 134.11 20.4702 134.62 21.6302 135.05L22.6202 135.42L24.1302 135.94C24.5402 136.08 24.9302 136.22 25.3602 136.28C25.7602 136.33 26.1002 136.47 26.4802 136.57C26.9702 136.69 27.5102 136.72 28.0302 136.79C28.6702 136.88 29.2902 137.02 29.9502 137.05C30.8502 137.09 33.5602 137.12 34.3602 136.99L35.5602 136.79L37.1402 136.61C38.3402 136.2 38.5902 136.28 39.9002 135.83L41.3002 135.34C41.9002 135.13 43.9002 134.26 44.4302 133.95C45.2902 133.45 46.1302 132.97 46.9402 132.4L48.3202 131.43C48.4602 131.33 48.6202 131.16 48.7502 131.05C49.3102 130.6 49.7902 130.1 50.3202 129.6L51.0602 128.91C51.4002 128.6 52.6102 127.16 52.9502 126.72C54.8802 124.26 56.3302 121.37 57.3402 118.41L57.7102 117.03L57.9802 115.78C58.1202 115.14 58.1902 114.53 58.2702 113.88L58.5102 112.1C58.5902 111.52 58.5502 108.4 58.4402 107.71Z" fill="#90BEFB"/>
<path d="M201.18 153.52L196.22 153.5L195.32 153.48H194.55C193.57 153.51 192.61 153.53 191.64 153.48C190.65 153.44 191.27 153.56 190.42 153.45C189.99 153.5 189.61 153.48 189.19 153.48C188.68 153.47 188.15 153.55 187.6 153.48C187.27 152.46 187.11 151.13 187.1 150.05C187.1 149.78 187.1 149.34 186.78 149.26C186.16 149.1 185.87 149.97 185.41 150.4L184.29 151.46C183.41 152.29 182.33 152.87 181.24 153.37L179.94 153.97C179.17 154.33 177.79 154.69 176.93 154.87L175.95 155.07C175.39 155.19 174.81 155.22 174.24 155.25L173.32 155.31C172.48 155.36 171.65 155.34 170.81 155.31C169.04 155.24 167.92 155.03 166.22 154.55L165.4 154.31C165.01 154.2 162.53 152.99 162.11 152.72C158.56 150.48 156.64 147.78 154.96 143.99C154.75 143.52 154.17 141.72 154.06 141.2L153.73 139.71C153.59 139.07 153.5 138.47 153.42 137.83L153.08 135.15V104.26C153.08 103.96 152.97 103.74 153.17 103.48H166.69C166.83 103.48 166.99 103.42 167.06 103.45C167.15 103.49 167.29 103.7 167.29 103.8C167.31 104.66 167.33 105.46 167.27 106.3C167.22 106.96 167.24 107.59 167.27 108.26C167.34 110 167.31 111.72 167.29 113.48C167.29 114.26 167.35 114.56 167.28 115.27C167.26 115.49 167.3 115.69 167.3 115.91V124.38C167.3 124.65 167.27 124.88 167.3 125.15C167.34 125.75 167.33 126.32 167.3 126.93C167.28 127.28 167.37 127.68 167.3 128.05C167.22 128.45 167.31 128.82 167.32 129.22L167.35 134.39C167.35 134.87 167.57 135.34 167.65 135.8C167.8 136.63 168.39 138.01 168.89 138.64C170.02 140.05 170.62 140.76 172.24 141.63C172.87 141.97 173.8 142.31 174.52 142.43L175.29 142.56C176.17 142.71 176.99 142.72 177.87 142.55C178.26 142.47 178.7 142.43 179.08 142.31C180.06 142 181.17 141.57 182 141.01C182.9 140.4 183.7 139.67 184.42 138.85C184.65 138.59 184.82 138.27 184.99 137.98L185.33 137.41C186.14 136.07 186.18 135.55 186.53 134V103.78C186.53 103.54 186.7 103.46 186.92 103.46H200.6C200.73 103.46 200.84 103.65 200.84 103.78L200.87 139.83L200.96 144.21L201.03 147.14L201.09 148.47L201.16 149.37L201.23 150.13C201.27 150.58 201.28 151.02 201.3 151.48C201.33 152.16 201.64 153.5 201.21 153.5" fill="#90BEFB"/>
</g>
<path d="M421.35 5H407.75V85.38H421.35V5Z" fill="#90BEFB"/>
<path d="M311.69 108.79H297.46V158.91H311.69V108.79Z" fill="#90BEFB"/>
<mask id="mask1_2559_5692" style="mask-type:luminance" maskUnits="userSpaceOnUse" x="0" y="0" width="712" height="164">
<path d="M711.66 0H0V163.92H711.66V0Z" fill="white"/>
</mask>
<g mask="url(#mask1_2559_5692)">
<path d="M313.28 90.2596C313.28 95.0596 309.39 98.9496 304.58 98.9496C299.77 98.9496 295.88 95.0596 295.88 90.2596C295.88 85.4596 299.77 81.5596 304.58 81.5596C309.39 81.5596 313.28 85.4496 313.28 90.2596Z" fill="#90BEFB"/>
<path d="M706.66 42.4998V45.2898C706.6 45.1298 706.52 46.3198 706.49 46.4798C706.29 47.5898 706.1 48.5598 705.69 49.5898L705.23 50.7098C704.41 52.7298 702.78 54.5798 701.09 55.9798C700.63 56.3598 699.38 57.2498 698.86 57.5098C697.42 58.2197 695.98 58.8698 694.44 59.3298C693.72 59.5498 693.01 59.7598 692.28 59.8698L690.24 60.1798C689.79 60.2498 689.34 60.2998 688.89 60.3298L688.05 60.3898C687.55 60.4298 686.4 60.3598 686.33 60.4898H684.53C684.3 60.3498 683.6 60.4498 682.93 60.3798L681.22 60.2098L680.28 60.0898C679.39 59.9798 678.57 59.7998 677.7 59.5798C677.16 59.4398 676.64 59.3298 676.12 59.1198L674.98 58.6798C674.58 58.5298 674.2 58.3698 673.82 58.1798L673 57.7898C671.86 57.2498 671.31 56.8597 670.32 56.0998C669.42 55.4098 668.54 54.6698 667.84 53.7698L667.21 52.9598L666.75 52.3598C666.51 52.0498 666.27 51.7098 666.1 51.3698L665.31 49.7398C665.05 49.2098 664.53 47.8498 664.38 47.2998L663.87 45.4598C663.77 45.0898 663.73 44.6298 663.65 44.2298C663.56 43.7598 664.75 43.6598 665.23 43.5498L668.02 42.9398L670.48 42.3898L671.93 42.0598C672.01 42.0398 674.78 41.4398 674.78 41.4898C675.01 41.4098 675.42 41.2697 675.57 41.5098C675.89 43.2397 676.19 43.9298 676.99 45.4298C677.45 46.2998 679.06 47.7798 679.89 48.2498C680.57 48.6398 681.69 49.0898 682.42 49.2498C683.05 49.3898 685.27 49.7397 685.78 49.7098C686.63 49.6798 688.54 49.4798 689.28 49.2298C690.32 48.8798 690.48 48.8598 691.39 48.2498C691.92 47.8998 692.32 47.3698 692.7 46.8598C693.53 45.7298 693.47 43.7498 692.42 42.5698C691.3 41.3198 689.53 40.4798 687.93 40.0198L686.34 39.5598L685.09 39.2798L683.81 38.9698L681.76 38.5198L679.62 38.0298C678.51 37.7698 677.45 37.4398 676.4 37.0298L675.31 36.6098C675.05 36.5098 674.74 36.3598 674.5 36.2198L672.88 35.3598C670.89 34.3098 668.7 32.4298 667.51 30.5098L667.13 29.8998C666.72 29.2398 666.34 28.5198 666.12 27.7798L665.77 26.6298C665.51 25.7798 665.49 24.8798 665.37 23.9898C665.27 23.2198 665.29 22.4998 665.37 21.7298C665.58 19.7798 665.6 19.5298 666.16 17.6798C666.36 17.0498 667 15.8098 667.36 15.1998C668.51 13.2298 670.14 11.5198 672.06 10.2798L673.26 9.50975C673.71 9.21975 674.78 8.68975 675.31 8.48975L676.19 8.13975C676.96 7.83975 679.6 7.05975 680.37 6.97975C681.36 6.87975 681.7 6.65975 682.55 6.61975L683.88 6.55975C684.59 6.52975 685.3 6.50975 686.02 6.55975C686.54 6.58975 687.93 6.62975 688.22 6.68975L689.58 6.96975C690.03 7.05975 690.21 6.99975 691.12 7.25975C692.09 7.52975 693.05 7.77975 693.99 8.15975L694.81 8.47975C695.94 8.92975 696.48 9.17975 697.49 9.84975L698.76 10.6998C698.98 10.8498 699.95 11.6598 700.2 11.8798C701.69 13.2498 702.84 14.8898 703.73 16.6998C704.33 17.9198 704.76 19.5298 704.98 20.8798C705.02 21.1198 705.02 21.4698 704.69 21.5298L703.17 21.8098L702.28 22.0198L700.18 22.4098L698.85 22.6698L697.35 22.9698L695.11 23.4398L693.55 23.7698C692.72 23.9498 693.48 23.2398 692.8 21.6998C691.96 19.8098 690.89 18.9198 689.08 18.0198C688.54 17.7498 688.03 17.6498 687.44 17.5398C686.79 17.4098 686.18 17.2798 685.51 17.2898C685.11 17.2898 684.63 17.2798 684.26 17.3598L682.83 17.6698C681.92 17.8698 681.18 18.4098 680.45 18.9598C679.38 19.7598 678.88 20.9698 678.92 22.2798C678.95 23.2298 679.21 24.0398 679.89 24.7498C680.48 25.3598 681.23 25.8298 682.06 26.1598C682.9 26.4998 683.77 26.7898 684.66 27.0098L686.3 27.4098C687.28 27.6498 688.25 27.8298 689.24 27.9998L692.04 28.4698C695.37 29.0298 697.75 29.9698 700.57 31.8098C701.4 32.3498 702.08 32.9798 702.76 33.6998C703.08 34.0398 703.41 34.3498 703.7 34.7298C705.06 36.5198 706.08 38.9297 706.43 41.1698L706.65 42.5298L706.66 42.4998Z" fill="#90BEFB"/>
<path d="M542.22 96.3997C535.15 96.3997 529.43 90.6797 529.43 83.6197C529.43 76.5597 535.15 70.8396 542.22 70.8396C549.29 70.8396 555.01 76.5697 555.01 83.6197C555.01 90.6697 549.28 96.3997 542.22 96.3997ZM568.84 56.0597V30.2796C568.84 30.0496 568.76 29.8896 568.53 29.8896H555.44C555.21 29.8896 554.98 29.9196 554.98 30.2196V55.8196C555.14 56.1996 555.03 57.0597 554.36 57.0597H516.22C516.06 57.0597 515.93 57.1496 515.82 57.2496V109.95C515.9 110.14 515.99 110.27 516.15 110.27H569.17V57.0896C568.91 56.7796 568.8 56.4897 568.83 56.0597" fill="#90BEFB"/>
<path d="M53.4101 107.94L53.3301 107.39C52.9001 104.67 54.7701 102.11 57.4901 101.68C60.2201 101.25 62.7801 103.12 63.2101 105.85L63.2901 106.39C63.7201 109.12 61.8601 111.67 59.1301 112.1C58.8701 112.14 58.6001 112.16 58.3501 112.16C55.9301 112.16 53.8001 110.4 53.4101 107.94Z" fill="black"/>
<path d="M53.0503 105.649C52.4403 102.949 54.1303 100.279 56.8303 99.6695C59.5203 99.0595 62.2003 100.749 62.8103 103.439C63.4203 106.139 61.7303 108.809 59.0303 109.419C58.6603 109.509 58.2903 109.549 57.9303 109.549C55.6403 109.549 53.5803 107.969 53.0503 105.649Z" fill="black"/>
<path d="M52.8995 104.95L52.7395 104.26C52.1495 101.57 53.8395 98.9002 56.5395 98.3002C59.2395 97.7002 61.9095 99.4002 62.5095 102.09L62.6595 102.78C63.2595 105.47 61.5595 108.15 58.8595 108.74C58.4995 108.83 58.1295 108.86 57.7695 108.86C55.4795 108.86 53.4095 107.28 52.8995 104.95Z" fill="black"/>
<path d="M52.6495 103.989L52.4795 103.399C51.7095 100.749 53.2395 97.9693 55.8895 97.1993C58.5395 96.4293 61.3095 97.9593 62.0795 100.609L62.2595 101.199C63.0295 103.849 61.4995 106.619 58.8495 107.389C58.3795 107.529 57.9095 107.589 57.4495 107.589C55.2795 107.589 53.2895 106.169 52.6495 103.989Z" fill="black"/>
<path d="M50.4097 98.9398C49.0897 96.5198 49.9697 93.4798 52.3997 92.1498C54.8197 90.8198 57.8597 91.7098 59.1797 94.1298C60.5097 96.5598 59.6197 99.5898 57.1997 100.92C56.4397 101.34 55.6097 101.54 54.7997 101.54C53.0297 101.54 51.3197 100.6 50.4097 98.9398Z" fill="black"/>
<path d="M50.3701 98.8698C50.3101 98.7898 50.1701 98.5998 49.9601 98.2998C48.4101 96.0198 49.0101 92.9098 51.2901 91.3598C53.5701 89.8098 56.6801 90.3998 58.2401 92.6798C58.2801 92.7498 58.3801 92.8898 58.5601 93.1398C60.1401 95.3998 59.5901 98.5198 57.3301 100.1C56.4601 100.71 55.4601 101.01 54.4701 101.01C52.8901 101.01 51.3401 100.26 50.3701 98.8698Z" fill="black"/>
<path d="M46.6094 94.3695C44.5594 92.5195 44.3994 89.3595 46.2594 87.3095C48.1094 85.2595 51.2694 85.1095 53.3194 86.9595C55.3694 88.8195 55.5194 91.9795 53.6694 94.0195C52.6794 95.1095 51.3194 95.6695 49.9594 95.6695C48.7594 95.6695 47.5594 95.2395 46.6094 94.3695Z" fill="black"/>
<path d="M43.9198 92.2598C41.5398 90.8698 40.7398 87.7998 42.1398 85.4198C43.5298 83.0398 46.5998 82.2398 48.9798 83.6398C51.3598 85.0398 52.1598 88.0998 50.7598 90.4798C49.8298 92.0698 48.1598 92.9498 46.4398 92.9498C45.5798 92.9498 44.7098 92.7298 43.9198 92.2598Z" fill="black"/>
<path d="M41.4002 90.79C39.0102 89.39 38.2102 86.33 39.6102 83.95C41.0002 81.56 44.0602 80.76 46.4502 82.16C48.8302 83.55 49.6302 86.62 48.2402 89C47.3102 90.59 45.6302 91.47 43.9202 91.47C43.0602 91.47 42.1902 91.25 41.4002 90.79Z" fill="black"/>
<path d="M40.0797 90.2202C37.4797 89.3102 36.0997 86.4602 37.0097 83.8602C37.9097 81.2502 40.7597 79.8702 43.3697 80.7802C45.9797 81.6902 47.3597 84.5402 46.4497 87.1402C45.7297 89.2102 43.7997 90.5002 41.7297 90.5002C41.1797 90.5002 40.6297 90.4102 40.0797 90.2202Z" fill="black"/>
<path d="M39.41 89.9895L38.74 89.7495C36.13 88.8495 34.75 85.9895 35.66 83.3895C36.57 80.7795 39.42 79.3995 42.03 80.3095L42.7 80.5395C45.31 81.4495 46.68 84.2995 45.78 86.9095C45.06 88.9695 43.12 90.2695 41.05 90.2695C40.51 90.2695 39.95 90.1795 39.41 89.9895Z" fill="black"/>
<path d="M36.9201 89.2099C34.2801 88.4099 32.7901 85.6099 33.5901 82.9699C34.4001 80.3299 37.1901 78.8399 39.8301 79.6399C42.4701 80.4399 43.9701 83.2399 43.1601 85.8799C42.5101 88.0399 40.5201 89.4299 38.3801 89.4299C37.9001 89.4299 37.4101 89.3599 36.9201 89.2099Z" fill="black"/>
<path d="M36.6197 89.17L35.8597 89.01C33.1597 88.45 31.4197 85.81 31.9697 83.11C32.5297 80.4 35.1697 78.66 37.8797 79.22L38.6297 79.37C41.3397 79.93 43.0797 82.57 42.5197 85.28C42.0397 87.64 39.9497 89.27 37.6297 89.27C37.2997 89.27 36.9597 89.24 36.6197 89.17Z" fill="black"/>
<path d="M35.0002 88.8193C35.0002 88.8193 34.9402 88.8193 34.9202 88.8193C32.1902 88.7793 29.9902 86.5593 29.9902 83.8193C29.9902 81.0593 32.2302 78.8193 34.9902 78.8193C35.7602 78.8193 36.4002 78.9193 36.8702 79.0093C39.5902 79.5293 41.3702 82.1493 40.8502 84.8593C40.3902 87.2593 38.3002 88.9193 35.9402 88.9193C35.6302 88.9193 35.3202 88.8993 35.0002 88.8293V88.8193Z" fill="black"/>
<path d="M25.0198 83.7501C24.9598 80.9901 27.1398 78.7001 29.8998 78.6301C32.6598 78.5701 34.9498 80.7501 35.0198 83.5101C35.0798 86.2701 32.8998 88.5601 30.1398 88.6301H30.0198C27.3098 88.6301 25.0898 86.4701 25.0198 83.7501Z" fill="black"/>
<path d="M23.1896 84.2793C22.9296 81.5293 24.9396 79.0893 27.6896 78.8293L28.6196 78.7393C31.3696 78.4793 33.8096 80.4993 34.0696 83.2393C34.3296 85.9893 32.3096 88.4293 29.5696 88.6893L28.6396 88.7793C28.4796 88.7993 28.3196 88.7993 28.1596 88.7993C25.6096 88.7993 23.4296 86.8693 23.1896 84.2793Z" fill="black"/>
<path d="M20.3199 84.9398C19.9799 82.1998 21.9199 79.6998 24.6599 79.3598C27.3999 79.0198 29.8999 80.9698 30.2399 83.7098C30.5799 86.4498 28.6399 88.9498 25.8999 89.2898C25.6899 89.3098 25.4799 89.3298 25.2799 89.3298C22.7899 89.3298 20.6299 87.4698 20.3199 84.9398Z" fill="black"/>
<path d="M18.9403 86.2799C18.1303 83.6399 19.6103 80.8399 22.2503 80.0299L23.0303 79.7899C25.6703 78.9799 28.4703 80.4599 29.2803 83.0999C30.0903 85.7399 28.6103 88.5299 25.9703 89.3499L25.1903 89.5899C24.7003 89.7399 24.2103 89.8099 23.7203 89.8099C21.5803 89.8099 19.6003 88.4299 18.9403 86.2799Z" fill="black"/>
<path d="M17.5499 86.8193C16.6999 84.1893 18.1299 81.3694 20.7599 80.5094L21.4599 80.2793C24.0899 79.4293 26.9099 80.8593 27.7699 83.4893C28.6199 86.1093 27.1899 88.9294 24.5599 89.7894L23.8599 90.0193C23.3399 90.1893 22.8199 90.2693 22.3099 90.2693C20.1999 90.2693 18.2399 88.9293 17.5499 86.8193Z" fill="black"/>
<path d="M16.5802 87.8198C15.4302 85.3098 16.5402 82.3398 19.0502 81.1998C19.2802 81.0898 19.5302 80.9798 19.8302 80.8598C22.3902 79.8198 25.3002 81.0498 26.3402 83.6098C27.3802 86.1698 26.1502 89.0898 23.5902 90.1198C23.4902 90.1598 23.3602 90.2198 23.2002 90.2998C22.5302 90.5998 21.8202 90.7498 21.1302 90.7498C19.2302 90.7498 17.4102 89.6598 16.5802 87.8198Z" fill="black"/>
<path d="M15.5302 88.2693C14.3902 85.7493 15.5102 82.7893 18.0302 81.6493L18.5502 81.4193C21.0702 80.2893 24.0302 81.4193 25.1602 83.9193C26.3002 86.4393 25.1802 89.3993 22.6602 90.5393L22.1402 90.7693C21.4702 91.0693 20.7802 91.2093 20.0902 91.2093C18.1802 91.2093 16.3602 90.1193 15.5302 88.2693Z" fill="black"/>
<path d="M16.1602 90.4701C13.9102 88.8801 13.3702 85.7601 14.9602 83.5101C16.5602 81.2501 19.6802 80.7101 21.9302 82.3101C24.1902 83.9001 24.7302 87.0201 23.1302 89.2801C22.1602 90.6601 20.6102 91.3901 19.0402 91.3901C18.0502 91.3901 17.0402 91.0901 16.1602 90.4701Z" fill="black"/>
<path d="M18.4903 91.01C15.7403 90.76 13.7103 88.33 13.9603 85.58C13.9703 85.39 13.9903 85.25 14.0103 85.16C14.2503 82.6 16.4103 80.61 19.0303 80.63C21.7903 80.65 24.0103 82.91 23.9803 85.67C23.9803 86.25 23.9203 86.5 23.9003 86.59C23.6103 89.13 21.4603 91.03 18.9403 91.03C18.7903 91.03 18.6403 91.03 18.4903 91.01Z" fill="black"/>
<path d="M18.9803 88.0098C16.2203 88.0098 13.9803 85.7698 13.9903 82.9998C13.9903 80.2398 16.2303 78.0098 19.0003 78.0098C21.7603 78.0098 23.9903 80.2598 23.9903 83.0198C23.9803 85.7798 21.7503 88.0098 18.9903 88.0098H18.9803Z" fill="black"/>
<path d="M18.8901 87.7298C16.1301 87.6798 13.9401 85.3998 13.9901 82.6398V82.3598C14.0501 79.5998 16.3301 77.4098 19.0901 77.4598C21.8601 77.5098 24.0501 79.7998 24.0001 82.5598V82.8298C23.9401 85.5598 21.7101 87.7398 18.9901 87.7398C18.9901 87.7398 18.9301 87.7298 18.8901 87.7298Z" fill="black"/>
<path d="M14 55.3994C14 52.6394 16.24 50.3994 19 50.3994C21.76 50.3994 24 52.6394 24 55.3994C24 58.1594 21.76 60.3994 19 60.3994C16.24 60.3994 14 58.1594 14 55.3994Z" fill="black"/>
<path d="M14.9196 58.0297C13.7496 56.6297 13.3996 54.6497 14.1596 52.8597C15.2396 50.3197 18.1696 49.1397 20.7096 50.2197C21.6896 50.6297 22.4296 51.3197 22.8796 51.9297C23.3396 52.5397 23.5696 53.0897 23.7196 53.5497C24.5596 56.1797 23.1096 58.9897 20.4796 59.8297C19.9696 59.9997 19.4596 60.0797 18.9496 60.0797C17.3596 60.0797 15.8596 59.3097 14.9196 58.0297Z" fill="black"/>
<path d="M12.8604 54.8594C12.8604 52.2594 14.8404 50.1194 17.3804 49.8794C17.3804 49.8794 17.4604 49.8594 17.5204 49.8594C20.2504 49.4194 22.8104 51.2794 23.2504 53.9994C23.6804 56.7194 21.8404 59.2794 19.1304 59.7194C19.1304 59.7194 19.0404 59.7394 18.9404 59.7594C18.7304 59.7894 18.3804 59.8594 17.8604 59.8594C15.1004 59.8594 12.8604 57.6194 12.8604 54.8594Z" fill="black"/>
<path d="M2.18945 54.8594C2.18945 52.0994 4.42945 49.8594 7.18945 49.8594C9.94945 49.8594 12.1895 52.0994 12.1895 54.8594C12.1895 57.6194 9.94945 59.8594 7.18945 59.8594C4.42945 59.8594 2.18945 57.6194 2.18945 54.8594Z" fill="black"/>
<path d="M1.66982 55.9794C1.00982 53.2994 2.65982 50.5994 5.33982 49.9394C8.02982 49.2894 10.7298 50.9394 11.3798 53.6194C12.0398 56.2994 10.3898 59.0094 7.70982 59.6594C7.30982 59.7594 6.90982 59.7994 6.51982 59.7994C4.26982 59.7994 2.21982 58.2694 1.66982 55.9794Z" fill="black"/>
<path d="M5.98035 59.8495C5.43035 59.8395 4.92035 59.7595 4.54035 59.6695C1.85035 59.0495 0.170347 56.3695 0.780347 53.6795C1.38035 51.0595 3.93035 49.3995 6.55035 49.8695C9.14035 50.1095 11.1403 52.3195 11.0903 54.9595C11.0303 57.6795 8.80035 59.8495 6.09035 59.8495H5.98035Z" fill="black"/>
<path d="M-0.00012251 55.1093C-0.0401225 53.8493 0.579877 52.3393 1.41988 51.4993C2.24988 50.6293 3.06988 50.2793 3.67988 50.0693C6.30988 49.1993 9.12988 50.6293 9.98988 53.2593C10.5799 55.0293 10.1099 56.9093 8.92988 58.1893C8.01988 59.3593 6.58988 60.1093 4.99988 60.1093C2.22988 60.1093 -0.00012251 57.8693 -0.00012251 55.1093Z" fill="black"/>
<path d="M0 83.1602C0 80.4002 2.23 78.1602 5 78.1602C7.76 78.1602 10 80.4002 10 83.1602C10 85.9202 7.76 88.1602 5 88.1602C2.23 88.1602 0 85.9202 0 83.1602Z" fill="black"/>
<path d="M0.0997425 112.51C0.0897425 112.33 0.0797425 112.21 0.0697425 112.14C-0.180257 109.39 1.83974 106.95 4.58974 106.69C7.33974 106.43 9.76974 108.45 10.0297 111.2C10.0497 111.43 10.0597 111.61 10.0797 111.76C10.2797 114.52 8.21974 116.92 5.45974 117.12C5.33974 117.12 5.20974 117.14 5.07974 117.14C2.48974 117.14 0.299743 115.14 0.0997425 112.51Z" fill="black"/>
<path d="M0.169667 113.409L0.139667 112.959C-0.0703332 110.209 1.99967 107.809 4.74967 107.599C7.50967 107.399 9.90967 109.459 10.1097 112.219L10.1497 112.669C10.3497 115.419 8.28967 117.819 5.52967 118.029C5.39967 118.029 5.27967 118.039 5.14967 118.039C2.55967 118.039 0.369667 116.039 0.169667 113.409Z" fill="black"/>
<path d="M0.650129 116.59C0.0601294 113.89 1.76013 111.22 4.46013 110.63C7.16013 110.03 9.82013 111.74 10.4201 114.44C11.0101 117.13 9.31013 119.8 6.61013 120.39C6.25013 120.47 5.89013 120.51 5.53013 120.51C3.24013 120.51 1.17013 118.92 0.650129 116.59Z" fill="black"/>
<path d="M0.969762 118.049L0.809762 117.309C0.229762 114.609 1.94976 111.949 4.64976 111.369C7.34976 110.789 9.99976 112.509 10.5898 115.209L10.7398 115.949C11.3198 118.649 9.60976 121.309 6.89976 121.889C6.54976 121.969 6.19976 121.999 5.84976 121.999C3.54976 121.999 1.46976 120.399 0.969762 118.049Z" fill="black"/>
<path d="M1.48022 120.01L1.25022 119.15C0.540222 116.48 2.13022 113.74 4.80022 113.03C7.47022 112.33 10.2102 113.91 10.9202 116.58L11.1502 117.45C11.8602 120.11 10.2702 122.85 7.60022 123.56C7.17022 123.68 6.73022 123.73 6.31022 123.73C4.10022 123.73 2.08022 122.25 1.48022 120.01Z" fill="black"/>
<path d="M1.87974 121.09C0.729735 118.59 1.79974 115.63 4.28974 114.46C6.78973 113.28 9.76973 114.36 10.9397 116.86C10.9797 116.94 11.0797 117.11 11.2797 117.69C12.1397 120.32 10.6997 123.14 8.06973 123.99C7.55973 124.16 7.03973 124.24 6.52974 124.24C4.51974 124.24 2.64974 123.02 1.87974 121.09Z" fill="black"/>
<path d="M2.97976 123.71C1.71976 121.25 2.69976 118.24 5.14976 116.98C7.60976 115.72 10.6198 116.7 11.8798 119.15C13.1398 121.61 12.1698 124.63 9.70976 125.88C8.97976 126.26 8.19976 126.43 7.43976 126.43C5.61976 126.43 3.85976 125.44 2.97976 123.71Z" fill="black"/>
<path d="M3.42956 124.6L3.19956 124.15C1.94956 121.69 2.92956 118.68 5.38956 117.43C7.83956 116.17 10.8596 117.15 12.1096 119.61L12.3396 120.05C13.5896 122.51 12.6196 125.52 10.1596 126.78C9.42956 127.15 8.65956 127.33 7.88956 127.33C6.06956 127.33 4.31956 126.33 3.42956 124.6Z" fill="black"/>
<path d="M3.88952 125.49L3.65952 125.04C2.40952 122.58 3.38952 119.57 5.84952 118.32C8.30952 117.07 11.3195 118.05 12.5695 120.51L12.7995 120.96C14.0495 123.42 13.0695 126.43 10.6095 127.68C9.87952 128.05 9.10952 128.23 8.34952 128.23C6.52952 128.23 4.76952 127.23 3.88952 125.49Z" fill="black"/>
<path d="M6.8696 129.979C5.1196 127.849 5.4196 124.699 7.5496 122.939C9.6796 121.179 12.8296 121.479 14.5896 123.609C16.3396 125.739 16.0396 128.889 13.9096 130.649C12.9796 131.419 11.8496 131.799 10.7296 131.799C9.2896 131.799 7.8596 131.169 6.8696 129.979Z" fill="black"/>
<path d="M9.95985 133.34C7.87985 131.53 7.64985 128.37 9.45985 126.28C11.2699 124.2 14.4299 123.97 16.5099 125.78C18.5999 127.59 18.8199 130.75 17.0199 132.83C16.0299 133.97 14.6399 134.56 13.2399 134.56C12.0799 134.56 10.9099 134.16 9.95985 133.34Z" fill="black"/>
<path d="M12.2794 135.35C10.0494 133.71 9.56944 130.59 11.2094 128.36C12.8394 126.13 15.9694 125.65 18.1894 127.28C20.4194 128.92 20.8994 132.05 19.2694 134.27C18.2894 135.61 16.7694 136.32 15.2294 136.32C14.2094 136.32 13.1694 136 12.2794 135.35Z" fill="black"/>
<path d="M12.7499 135.69L12.5099 135.52C10.2899 133.88 9.81991 130.75 11.4499 128.53C13.0899 126.3 16.2199 125.83 18.4399 127.47L18.6799 127.65C20.9099 129.28 21.3799 132.41 19.7399 134.64C18.7599 135.97 17.2499 136.67 15.7099 136.67C14.6799 136.67 13.6399 136.35 12.7499 135.69Z" fill="black"/>
<path d="M14.3199 136.79C13.9599 136.57 13.6599 136.36 13.3999 136.17C11.1599 134.56 10.6499 131.44 12.2599 129.19C13.8799 126.95 16.9999 126.45 19.2399 128.06C19.3999 128.17 19.5099 128.24 19.5699 128.28C21.9199 129.73 22.6499 132.81 21.1999 135.16C20.2599 136.69 18.6199 137.54 16.9399 137.54C16.0499 137.54 15.1399 137.3 14.3199 136.79Z" fill="black"/>
<path d="M15.6895 137.65L14.9895 137.21C12.6495 135.75 11.9395 132.66 13.4095 130.32C14.8695 127.98 17.9595 127.27 20.2995 128.74L20.9995 129.18C23.3395 130.64 24.0495 133.73 22.5895 136.07C21.6395 137.58 20.0095 138.42 18.3395 138.42C17.4395 138.42 16.5195 138.17 15.6895 137.65Z" fill="black"/>
<path d="M19.8798 139.7C17.2898 138.73 15.9898 135.84 16.9598 133.26C17.9298 130.67 20.8098 129.37 23.3998 130.34C25.9798 131.31 27.2898 134.19 26.3198 136.78C25.5598 138.78 23.6598 140.02 21.6398 140.02C21.0498 140.02 20.4598 139.92 19.8798 139.7Z" fill="black"/>
<path d="M20.8699 140.07L20.3699 139.88C17.7899 138.91 16.4799 136.03 17.4499 133.45C18.4199 130.86 21.2999 129.55 23.8899 130.52L24.3799 130.71C26.9599 131.68 28.2699 134.56 27.2999 137.15C26.5499 139.15 24.6499 140.39 22.6199 140.39C22.0399 140.39 21.4399 140.29 20.8699 140.07Z" fill="black"/>
<path d="M22.5001 140.639L21.7401 140.379C19.1401 139.469 17.7501 136.629 18.6501 134.019C19.5601 131.409 22.4001 130.019 25.0101 130.929L25.7701 131.189C28.3801 132.089 29.7601 134.939 28.8601 137.549C28.1501 139.619 26.2101 140.909 24.1401 140.909C23.5901 140.909 23.0401 140.829 22.5001 140.639Z" fill="black"/>
<path d="M24.76 141.21C24.2 141.14 23.71 141.02 23.32 140.91C20.67 140.12 19.16 137.34 19.95 134.69C20.73 132.06 23.48 130.56 26.11 131.3C28.78 131.7 30.66 134.16 30.33 136.86C30.02 139.39 27.86 141.25 25.37 141.25C25.17 141.25 24.96 141.25 24.76 141.21Z" fill="black"/>
<path d="M25.2199 141.369C24.8299 141.269 24.5899 141.189 24.5199 141.169C21.8699 140.389 20.3599 137.609 21.1399 134.959C21.9199 132.309 24.6999 130.799 27.3499 131.579C27.6499 131.669 27.7599 131.699 27.7599 131.699C30.4299 132.399 32.0299 135.139 31.3299 137.809C30.7399 140.049 28.7099 141.539 26.4999 141.539C26.0799 141.539 25.6499 141.489 25.2199 141.369Z" fill="black"/>
<path d="M27.3498 141.71C27.2698 141.71 27.0398 141.68 26.6798 141.64C23.9398 141.31 21.9798 138.83 22.2998 136.09C22.6198 133.35 25.0998 131.38 27.8398 131.7C28.0098 131.72 28.2998 131.75 28.7298 131.8C31.4598 132.19 33.3698 134.71 32.9898 137.45C32.6398 139.95 30.4998 141.76 28.0498 141.76C27.8198 141.76 27.5798 141.74 27.3498 141.71Z" fill="black"/>
<path d="M29.7494 142.01C29.1294 141.98 28.6094 141.91 28.2194 141.85C25.4894 141.42 23.6294 138.86 24.0494 136.14C24.4794 133.41 27.0394 131.54 29.7694 131.97C29.9994 132.01 30.1294 132.02 30.1594 132.02C32.9194 132.14 35.0594 134.47 34.9494 137.22C34.8394 139.91 32.6194 142.02 29.9594 142.02C29.8894 142.02 29.8194 142.01 29.7494 142.01Z" fill="black"/>
<path d="M29.43 137.77C28.98 135.05 30.82 132.47 33.55 132.02C36.27 131.57 38.85 133.41 39.3 136.14C39.75 138.86 37.9 141.44 35.18 141.89C34.9 141.93 34.63 141.96 34.36 141.96C31.96 141.96 29.84 140.22 29.43 137.77Z" fill="black"/>
<path d="M30.0295 137.68C29.5695 134.96 31.4095 132.38 34.1395 131.92L34.7295 131.82C37.4595 131.37 40.0395 133.21 40.4895 135.93C40.9495 138.65 39.1095 141.23 36.3895 141.69L35.7895 141.79C35.5095 141.83 35.2295 141.85 34.9495 141.85C32.5595 141.85 30.4395 140.12 30.0295 137.68Z" fill="black"/>
<path d="M31.3798 137.23C31.0698 134.48 33.0398 132.01 35.7798 131.7L36.5698 131.61C39.3198 131.3 41.7898 133.27 42.0998 136.01C42.4198 138.76 40.4398 141.23 37.6998 141.54L36.9098 141.63C36.7198 141.65 36.5298 141.66 36.3398 141.66C33.8298 141.66 31.6698 139.78 31.3798 137.23Z" fill="black"/>
<path d="M35.1698 137.439C34.2598 134.829 35.6398 131.979 38.2498 131.069C40.8498 130.159 43.6998 131.539 44.6098 134.139C45.5198 136.749 44.1498 139.599 41.5398 140.509C40.9898 140.699 40.4398 140.789 39.8898 140.789C37.8198 140.789 35.8898 139.499 35.1698 137.439Z" fill="black"/>
<path d="M35.87 137.19C34.96 134.58 36.34 131.73 38.95 130.82L39.65 130.58C42.26 129.68 45.11 131.06 46.01 133.66C46.92 136.27 45.54 139.12 42.93 140.03L42.23 140.27C41.69 140.46 41.14 140.55 40.59 140.55C38.52 140.55 36.59 139.25 35.87 137.19Z" fill="black"/>
<path d="M40.1002 136.44C38.7102 134.06 39.5102 131 41.9002 129.6C44.2802 128.21 47.3402 129.01 48.7402 131.39C50.1302 133.78 49.3302 136.84 46.9502 138.23C46.1502 138.7 45.2802 138.92 44.4202 138.92C42.7102 138.92 41.0302 138.03 40.1002 136.44Z" fill="black"/>
<path d="M42.8299 135.229C41.2499 132.969 41.7998 129.849 44.0698 128.269C46.3298 126.689 49.4498 127.239 51.0298 129.509C52.6098 131.769 52.0599 134.889 49.7899 136.469C48.9199 137.079 47.9199 137.369 46.9299 137.369C45.3499 137.369 43.7999 136.619 42.8299 135.229Z" fill="black"/>
<path d="M43.5199 134.76C41.9399 132.5 42.4899 129.38 44.7499 127.79L45.4299 127.31C47.6899 125.72 50.8099 126.27 52.3999 128.53C53.9899 130.79 53.4399 133.91 51.1799 135.5L50.4899 135.98C49.6199 136.59 48.6099 136.89 47.6199 136.89C46.0499 136.89 44.4999 136.14 43.5199 134.76Z" fill="black"/>
<path d="M44.87 134.63C42.99 132.61 43.1 129.44 45.11 127.56C45.16 127.52 45.27 127.4 45.55 127.17C47.68 125.41 50.83 125.71 52.59 127.83C54.35 129.96 54.06 133.11 51.93 134.87C50.96 135.77 49.74 136.22 48.52 136.22C47.18 136.22 45.84 135.68 44.86 134.63H44.87Z" fill="black"/>
<path d="M46.6702 133C44.7802 130.99 44.8702 127.82 46.8802 125.93C48.8902 124.04 52.0602 124.14 53.9502 126.15C55.8402 128.16 55.7502 131.32 53.7302 133.22C52.7702 134.12 51.5402 134.57 50.3102 134.57C48.9802 134.57 47.6502 134.04 46.6702 133Z" fill="black"/>
<path d="M47.03 132.64C45.14 130.63 45.25 127.46 47.26 125.58L47.63 125.23C49.65 123.34 52.81 123.45 54.7 125.47C56.58 127.48 56.48 130.65 54.46 132.53L54.09 132.88C53.13 133.78 51.9 134.23 50.68 134.23C49.34 134.23 48.01 133.7 47.03 132.64Z" fill="black"/>
<path d="M49.8595 130.63C47.6795 128.93 47.2995 125.79 48.9995 123.61C50.7095 121.44 53.8495 121.06 56.0195 122.76C58.1995 124.47 58.5795 127.61 56.8695 129.78C55.8895 131.04 54.4195 131.7 52.9395 131.7C51.8595 131.7 50.7695 131.35 49.8595 130.63Z" fill="black"/>
<path d="M55.7001 123.12C53.0901 122.22 51.7101 119.38 52.6101 116.76C53.5001 114.15 56.3501 112.77 58.9601 113.67C61.5701 114.57 62.9601 117.41 62.0601 120.02C61.3501 122.09 59.4101 123.39 57.3301 123.39C56.7901 123.39 56.2401 123.31 55.7001 123.12Z" fill="black"/>
<path d="M56.2299 122.54C53.5599 121.82 51.9699 119.08 52.6899 116.41L52.8699 115.72C53.5799 113.06 56.3199 111.47 58.9899 112.19C61.6599 112.9 63.2399 115.64 62.5299 118.31L62.3499 118.99C61.7499 121.23 59.7299 122.71 57.5199 122.71C57.0899 122.71 56.6599 122.65 56.2299 122.54Z" fill="black"/>
<path d="M56.7799 121.28C54.0799 120.69 52.3599 118.03 52.9499 115.33L53.0799 114.71C53.6699 112.01 56.3299 110.3 59.0299 110.88C61.7299 111.46 63.4399 114.12 62.8599 116.82L62.7199 117.45C62.2099 119.79 60.1399 121.39 57.8399 121.39C57.4899 121.39 57.1299 121.35 56.7799 121.28Z" fill="black"/>
<path d="M57.4101 119.77C54.6801 119.37 52.7901 116.83 53.1901 114.1C53.2201 113.86 53.2601 113.56 53.3101 113.2C53.6801 110.46 56.2001 108.54 58.9401 108.92C61.6701 109.29 63.5901 111.8 63.2201 114.54C63.1801 114.83 63.1401 115.16 63.0801 115.55C62.7201 118.03 60.5801 119.82 58.1401 119.82C57.9001 119.82 57.6601 119.8 57.4101 119.77Z" fill="black"/>
<path d="M57.7096 117.94C54.9696 117.56 53.0596 115.04 53.4296 112.31L53.5496 111.42C53.9296 108.68 56.4496 106.77 59.1796 107.14C61.9196 107.51 63.8296 110.03 63.4596 112.77L63.3396 113.66C62.9996 116.16 60.8496 117.98 58.3896 117.98C58.1696 117.98 57.9396 117.98 57.7096 117.94Z" fill="black"/>
<path d="M53.5003 108.49C53.0703 105.76 54.9303 103.2 57.6603 102.76C60.3803 102.33 62.9403 104.19 63.3803 106.92C63.8103 109.65 61.9503 112.21 59.2203 112.64C58.9503 112.68 58.6903 112.7 58.4303 112.7C56.0103 112.7 53.8903 110.95 53.5003 108.49Z" fill="black"/>
<path d="M58.4395 112.71C55.9995 112.71 53.8595 110.92 53.4995 108.44L53.3395 107.36C52.9395 104.63 54.8295 102.09 57.5595 101.69C60.2895 101.29 62.8295 103.18 63.2295 105.91L63.3895 106.99C63.7895 109.72 61.8995 112.26 59.1695 112.66C58.9195 112.7 58.6795 112.71 58.4395 112.71Z" fill="black"/>
<path d="M13.5703 110.27C13.5703 107.51 15.8103 105.27 18.5703 105.27C21.3303 105.27 23.5703 107.51 23.5703 110.27C23.5703 113.03 21.3303 115.27 18.5703 115.27C15.8103 115.27 13.5703 113.03 13.5703 110.27Z" fill="black"/>
<path d="M26.7695 97.0801C26.7695 94.3101 29.0095 92.0801 31.7695 92.0801C34.5295 92.0801 36.7695 94.3101 36.7695 97.0801C36.7695 99.8401 34.5295 102.08 31.7695 102.08C29.0095 102.08 26.7695 99.8401 26.7695 97.0801Z" fill="black"/>
<path d="M39.9697 110.27C39.9697 107.51 42.2097 105.27 44.9697 105.27C47.7297 105.27 49.9697 107.51 49.9697 110.27C49.9697 113.03 47.7297 115.27 44.9697 115.27C42.2097 115.27 39.9697 113.03 39.9697 110.27Z" fill="black"/>
<path d="M26.7695 123.47C26.7695 120.7 29.0095 118.47 31.7695 118.47C34.5295 118.47 36.7695 120.7 36.7695 123.47C36.7695 126.23 34.5295 128.47 31.7695 128.47C29.0095 128.47 26.7695 126.23 26.7695 123.47Z" fill="black"/>
<path d="M196.19 158.5C193.43 158.5 191.2 156.24 191.21 153.48C191.22 150.72 193.46 148.49 196.22 148.5C198.99 148.5 201.22 150.75 201.21 153.51C201.21 156.27 198.96 158.5 196.21 158.5H196.19Z" fill="black"/>
<path d="M195.659 158.489H195.219C192.449 158.429 190.259 156.149 190.309 153.389C190.359 150.629 192.639 148.429 195.399 148.479H195.849C198.609 148.539 200.809 150.819 200.759 153.579C200.709 156.309 198.479 158.489 195.759 158.489H195.659Z" fill="black"/>
<path d="M189.54 153.57C189.5 150.81 191.7 148.54 194.46 148.49H194.85C197.61 148.45 199.88 150.65 199.92 153.41C199.97 156.17 197.76 158.44 195 158.49H194.54C191.81 158.49 189.58 156.3 189.54 153.57Z" fill="black"/>
<path d="M191.41 158.48C188.65 158.36 186.52 156.03 186.64 153.27C186.76 150.51 189.09 148.37 191.85 148.49C194.61 148.61 196.75 150.95 196.63 153.7C196.51 156.39 194.3 158.49 191.64 158.49C191.56 158.49 191.49 158.49 191.41 158.48Z" fill="black"/>
<path d="M189.79 158.42C187.05 158.08 185.11 155.58 185.45 152.83C185.79 150.1 188.3 148.15 191.03 148.5C193.77 148.84 195.72 151.34 195.37 154.08C195.05 156.61 192.9 158.46 190.42 158.46C190.21 158.46 190 158.46 189.79 158.42Z" fill="black"/>
<path d="M189.08 158.479C186.32 158.429 184.13 156.149 184.18 153.389C184.24 150.629 186.52 148.429 189.28 148.479C192.04 148.539 194.23 150.819 194.18 153.579C194.13 156.309 191.9 158.479 189.18 158.479H189.08Z" fill="black"/>
<path d="M186.88 158.429C184.14 158.039 182.25 155.499 182.64 152.769C183.03 150.039 185.56 148.139 188.29 148.529C191.03 148.919 192.93 151.449 192.54 154.179C192.18 156.679 190.04 158.479 187.59 158.479C187.36 158.479 187.12 158.459 186.88 158.429Z" fill="black"/>
<path d="M182.09 150.09C182.07 147.33 184.28 145.07 187.04 145.04C189.81 145.02 192.07 147.24 192.09 150C192.11 152.76 189.9 155.02 187.14 155.04C187.14 155.04 187.11 155.04 187.09 155.04C184.35 155.04 182.11 152.83 182.09 150.08V150.09Z" fill="black"/>
<path d="M183.09 152.639C181.98 151.439 181.48 149.699 181.93 147.989C182.62 145.319 185.35 143.719 188.03 144.419C189.19 144.689 190.31 145.499 190.9 146.309C191.52 147.119 191.75 147.829 191.89 148.349C192.58 151.019 190.96 153.749 188.29 154.429C187.87 154.539 187.45 154.589 187.05 154.589C185.49 154.589 184.03 153.849 183.09 152.639Z" fill="black"/>
<path d="M181.74 153.81C179.94 151.87 179.96 148.9 181.73 146.99C181.79 146.91 181.9 146.76 182.06 146.55C183.78 144.39 186.92 144.02 189.09 145.74C191.24 147.45 191.61 150.58 189.91 152.74C189.91 152.74 189.9 152.76 189.89 152.78C189.89 152.78 189.8 152.9 189.72 153.01C189.55 153.23 189.3 153.58 188.8 154.05C187.84 154.95 186.62 155.4 185.4 155.4C184.06 155.4 182.72 154.86 181.74 153.81Z" fill="black"/>
<path d="M180.63 154.88C178.74 152.87 178.83 149.7 180.84 147.81L181.41 147.28C183.42 145.39 186.58 145.49 188.48 147.5C190.37 149.51 190.27 152.67 188.26 154.57L187.7 155.1C186.73 156 185.5 156.45 184.27 156.45C182.94 156.45 181.61 155.93 180.63 154.88Z" fill="black"/>
<path d="M176.67 155.45C175.52 152.94 176.62 149.97 179.13 148.82C181.64 147.67 184.61 148.77 185.76 151.28C186.91 153.79 185.81 156.76 183.3 157.91C182.63 158.22 181.92 158.37 181.22 158.37C179.33 158.37 177.52 157.28 176.67 155.45Z" fill="black"/>
<path d="M175.38 156.06C174.22 153.56 175.32 150.59 177.82 149.43L178.47 149.13C180.98 147.97 183.95 149.06 185.11 151.56C186.27 154.07 185.18 157.04 182.67 158.2L182.02 158.5C181.34 158.82 180.63 158.97 179.92 158.97C178.04 158.97 176.23 157.89 175.38 156.06Z" fill="black"/>
<path d="M172.01 155.869C171.45 153.169 173.19 150.519 175.9 149.959C178.6 149.399 181.25 151.139 181.8 153.849C182.36 156.549 180.62 159.199 177.92 159.759C177.58 159.829 177.24 159.859 176.9 159.859C174.58 159.859 172.5 158.229 172.01 155.869Z" fill="black"/>
<path d="M171.03 156.05C170.48 153.34 172.23 150.7 174.94 150.16L175.43 150.06C178.14 149.51 180.77 151.26 181.32 153.97C181.87 156.67 180.12 159.31 177.41 159.86L176.92 159.96C176.59 160.03 176.25 160.06 175.93 160.06C173.6 160.06 171.51 158.42 171.03 156.05Z" fill="black"/>
<path d="M169.229 155.549C169.059 152.799 171.149 150.419 173.909 150.249C174.219 150.229 174.449 150.219 174.609 150.199C177.349 149.939 179.799 151.949 180.059 154.699C180.319 157.449 178.309 159.889 175.559 160.149C175.129 160.189 174.789 160.209 174.539 160.229C174.429 160.239 174.319 160.239 174.219 160.239C171.599 160.239 169.399 158.199 169.229 155.549Z" fill="black"/>
<path d="M168.309 155.6C168.139 152.84 170.239 150.47 172.999 150.3L173.459 150.28C176.219 150.11 178.589 152.21 178.749 154.97C178.919 157.72 176.819 160.09 174.059 160.26L173.599 160.29C173.499 160.29 173.399 160.29 173.299 160.29C170.669 160.29 168.469 158.24 168.309 155.59V155.6Z" fill="black"/>
<path d="M170.59 160.29C167.83 160.17 165.68 157.84 165.8 155.09C165.91 152.33 168.23 150.18 170.99 150.29C173.75 150.41 175.9 152.73 175.79 155.49C175.68 158.18 173.46 160.29 170.79 160.29H170.59Z" fill="black"/>
<path d="M164.83 159.329C162.17 158.579 160.63 155.809 161.39 153.149C162.15 150.499 164.92 148.959 167.57 149.719C170.23 150.479 171.77 153.239 171.01 155.899C170.38 158.099 168.38 159.529 166.2 159.529C165.75 159.529 165.28 159.469 164.83 159.329Z" fill="black"/>
<path d="M164.41 159.209L164 159.099C161.34 158.329 159.81 155.559 160.57 152.909C161.33 150.259 164.1 148.719 166.76 149.489L167.17 149.599C169.82 150.369 171.36 153.139 170.59 155.789C169.96 157.979 167.96 159.409 165.79 159.409C165.33 159.409 164.87 159.349 164.41 159.209Z" fill="black"/>
<path d="M159.41 156.92C157.07 155.44 156.38 152.35 157.86 150.02C159.34 147.69 162.43 147 164.76 148.48C167.1 149.96 167.79 153.05 166.31 155.38C165.35 156.88 163.73 157.7 162.08 157.7C161.16 157.7 160.24 157.45 159.41 156.92Z" fill="black"/>
<path d="M150.36 146C149.24 143.47 150.38 140.519 152.91 139.399C155.43 138.279 158.39 139.42 159.5 141.94C160.63 144.47 159.5 147.419 156.96 148.539C156.3 148.829 155.61 148.97 154.94 148.97C153.02 148.97 151.19 147.859 150.36 146Z" fill="black"/>
<path d="M149.14 142.22C148.57 139.51 150.29 136.86 153 136.29C155.7 135.71 158.35 137.44 158.92 140.14C159.5 142.84 157.77 145.49 155.07 146.07C154.72 146.14 154.37 146.18 154.03 146.18C151.72 146.18 149.64 144.57 149.14 142.22Z" fill="black"/>
<path d="M148.98 141.5L148.82 140.75C148.23 138.06 149.94 135.39 152.64 134.8C155.34 134.21 158 135.92 158.59 138.62L158.75 139.36C159.34 142.06 157.64 144.73 154.94 145.32C154.58 145.4 154.22 145.43 153.87 145.43C151.57 145.43 149.5 143.84 148.98 141.5Z" fill="black"/>
<path d="M148.599 139.55C148.529 139.16 148.479 138.79 148.439 138.44C148.089 135.7 150.019 133.2 152.759 132.85C155.499 132.5 157.999 134.43 158.359 137.17C158.389 137.46 158.429 137.71 158.469 137.95C158.909 140.67 157.059 143.24 154.339 143.68C154.059 143.73 153.789 143.75 153.519 143.75C151.119 143.75 148.999 142.01 148.599 139.55Z" fill="black"/>
<path d="M148.09 135.76C147.75 133.02 149.68 130.51 152.42 130.17C155.16 129.82 157.66 131.75 158.01 134.49C158.36 137.23 156.43 139.74 153.69 140.09C153.47 140.11 153.26 140.13 153.05 140.13C150.57 140.13 148.42 138.28 148.09 135.76Z" fill="black"/>
<path d="M148.05 104.24C148.05 101.48 150.29 99.2402 153.05 99.2402C155.81 99.2402 158.05 101.48 158.05 104.24C158.05 107 155.81 109.24 153.05 109.24C150.29 109.24 148.05 107 148.05 104.24Z" fill="black"/>
<path d="M148.02 103.839C147.94 103.149 148.37 101.259 149.3 100.279C151.06 98.1493 154.21 97.8493 156.34 99.6093C158.03 101.019 158.56 103.309 157.82 105.249C157.21 107.329 155.29 108.839 153.02 108.839C150.26 108.839 148.02 106.599 148.02 103.839Z" fill="black"/>
<path d="M161.67 103.47C161.67 100.7 163.91 98.4697 166.67 98.4697C169.43 98.4697 171.67 100.7 171.67 103.47C171.67 106.23 169.43 108.47 166.67 108.47C163.91 108.47 161.67 106.23 161.67 103.47Z" fill="black"/>
<path d="M165.16 108.07C162.6 107.03 161.37 104.11 162.41 101.55C163.45 98.9902 166.37 97.7602 168.93 98.8002C171.48 99.8402 172.72 102.76 171.68 105.32C170.89 107.26 169.02 108.44 167.04 108.44C166.42 108.44 165.78 108.32 165.16 108.07Z" fill="black"/>
<path d="M162.6 105.57C161.65 103.37 162.4 100.74 164.47 99.3998C166.79 97.8898 169.88 98.5498 171.39 100.87C171.55 101.12 171.7 101.38 171.86 101.76C172 102.17 172.24 102.61 172.27 103.79C172.27 106.55 170.03 108.79 167.27 108.79C165.14 108.79 163.31 107.45 162.6 105.57Z" fill="black"/>
<path d="M166.86 111.28C164.11 111.06 162.05 108.66 162.26 105.9C162.48 103.15 164.88 101.09 167.64 101.31C170.39 101.52 172.45 103.93 172.23 106.68C172.03 109.3 169.84 111.29 167.25 111.29C167.12 111.29 166.99 111.29 166.86 111.28Z" fill="black"/>
<path d="M162.25 108.46C162.25 108.13 162.22 107.76 162.22 107.33C162.19 104.57 164.4 102.31 167.16 102.27C169.92 102.24 172.19 104.45 172.22 107.21C172.22 107.43 172.22 107.7 172.25 108.04C172.36 110.8 170.22 113.13 167.46 113.25H167.25C164.58 113.25 162.37 111.15 162.25 108.46Z" fill="black"/>
<path d="M167.21 118.47C164.45 118.44 162.24 116.17 162.27 113.41C162.3 110.65 164.57 108.44 167.33 108.47C170.09 108.5 172.3 110.77 172.27 113.53C172.24 116.27 170 118.47 167.27 118.47H167.21Z" fill="black"/>
<path d="M166.77 120.24C164.02 119.97 162.01 117.53 162.28 114.78C162.55 112.03 164.99 110.02 167.74 110.29C170.49 110.55 172.5 113 172.23 115.75C171.98 118.33 169.81 120.26 167.27 120.26C167.1 120.26 166.94 120.26 166.77 120.24Z" fill="black"/>
<path d="M162.27 116V115.87C162.11 113.11 164.22 110.75 166.98 110.59C169.73 110.44 172.09 112.55 172.25 115.31C172.25 115.31 172.27 115.52 172.27 115.91C172.27 118.67 170.03 120.91 167.27 120.91C164.54 120.91 162.32 118.72 162.27 116Z" fill="black"/>
<path d="M162.27 124.38C162.27 121.62 164.51 119.38 167.27 119.38C170.03 119.38 172.27 121.62 172.27 124.38C172.27 127.14 170.03 129.38 167.27 129.38C164.51 129.38 162.27 127.14 162.27 124.38Z" fill="black"/>
<path d="M162.28 125.519C162.07 122.769 164.13 120.369 166.89 120.159C169.64 119.949 172.04 122.009 172.25 124.769C172.46 127.519 170.39 129.919 167.64 130.129C167.51 130.139 167.39 130.139 167.26 130.139C164.67 130.139 162.48 128.149 162.28 125.519Z" fill="black"/>
<path d="M166.99 131.919C164.23 131.769 162.12 129.419 162.26 126.659C162.28 126.409 162.28 126.189 162.29 125.989C162.32 123.219 164.57 121.009 167.34 121.029C170.1 121.059 172.31 123.319 172.29 126.079C172.29 126.469 172.27 126.829 172.25 127.189C172.11 129.859 169.9 131.929 167.26 131.919H166.99Z" fill="black"/>
<path d="M166.25 132.94C163.55 132.39 161.8 129.75 162.35 127.05C162.9 124.34 165.54 122.59 168.25 123.14C170.95 123.69 172.7 126.33 172.15 129.04C171.67 131.41 169.58 133.04 167.26 133.04C166.93 133.04 166.59 133.01 166.25 132.94Z" fill="black"/>
<path d="M162.27 129.34C162.27 129.28 162.25 129.17 162.24 128.98C162.04 126.23 164.12 123.84 166.87 123.64C169.63 123.45 172.02 125.52 172.21 128.28C172.21 128.28 172.26 128.57 172.27 129.19C172.28 131.95 170.05 134.2 167.29 134.22H167.26C164.55 134.22 162.33 132.04 162.27 129.34Z" fill="black"/>
<path d="M162.3 134.42C162.28 131.66 164.51 129.41 167.27 129.39C170.03 129.37 172.28 131.59 172.3 134.36C172.32 137.12 170.09 139.37 167.33 139.39H167.3C164.55 139.39 162.32 137.17 162.3 134.42Z" fill="black"/>
<path d="M162.7 136.78C162.7 136.78 162.66 136.62 162.61 136.45C161.86 133.79 163.41 131.03 166.07 130.28C168.72 129.54 171.48 131.08 172.23 133.74C172.26 133.85 172.39 134.21 172.52 134.89C173.02 137.61 171.22 140.21 168.51 140.71C168.2 140.77 167.9 140.79 167.6 140.79C165.26 140.79 163.18 139.15 162.7 136.78Z" fill="black"/>
<path d="M164.93 141.74C163.21 139.58 163.57 136.44 165.73 134.72C167.89 133 171.04 133.36 172.76 135.52C174.48 137.68 174.12 140.83 171.96 142.55C171.04 143.28 169.94 143.63 168.85 143.63C167.38 143.63 165.92 142.99 164.93 141.74Z" fill="black"/>
<path d="M169.85 146.04C167.41 144.74 166.49 141.71 167.79 139.27C169.08 136.84 172.11 135.91 174.55 137.21C176.99 138.51 177.91 141.53 176.61 143.97C175.72 145.66 173.99 146.62 172.2 146.62C171.4 146.62 170.6 146.43 169.85 146.04Z" fill="black"/>
<path d="M173.61 147.35C170.89 146.86 169.08 144.27 169.56 141.55C170.04 138.83 172.64 137.02 175.36 137.5C178.08 137.99 179.89 140.59 179.4 143.3C178.97 145.73 176.87 147.43 174.49 147.43C174.2 147.43 173.9 147.4 173.61 147.35Z" fill="black"/>
<path d="M174.4 147.489L174.02 147.419C171.3 146.949 169.47 144.369 169.94 141.639C170.4 138.919 172.99 137.099 175.71 137.559L176.1 137.629C178.82 138.099 180.64 140.679 180.18 143.409C179.76 145.839 177.64 147.559 175.25 147.559C174.97 147.559 174.69 147.539 174.4 147.489Z" fill="black"/>
<path d="M172.93 143.519C172.39 140.809 174.14 138.179 176.85 137.639C179.56 137.099 182.19 138.859 182.73 141.559C183.28 144.269 181.52 146.909 178.81 147.449C178.48 147.509 178.15 147.539 177.83 147.539C175.49 147.539 173.4 145.899 172.93 143.519Z" fill="black"/>
<path d="M173.509 143.289C173.039 140.569 174.859 137.979 177.579 137.509C177.579 137.509 177.619 137.509 177.629 137.509C180.229 136.749 182.969 138.199 183.799 140.789C184.639 143.419 183.189 146.229 180.559 147.069C179.999 147.249 179.589 147.319 179.289 147.379C178.999 147.429 178.719 147.449 178.429 147.449C176.049 147.449 173.929 145.739 173.509 143.299V143.289Z" fill="black"/>
<path d="M177.82 143.819C176.27 141.539 176.86 138.429 179.14 136.869C181.42 135.319 184.53 135.899 186.09 138.189C187.64 140.469 187.05 143.579 184.77 145.129C183.91 145.719 182.93 145.999 181.96 145.999C180.36 145.999 178.79 145.239 177.82 143.819Z" fill="black"/>
<path d="M181.07 142.589C179 140.759 178.8 137.6 180.63 135.53C182.46 133.46 185.62 133.27 187.69 135.1C189.76 136.92 189.95 140.079 188.12 142.149C187.14 143.269 185.76 143.839 184.38 143.839C183.2 143.839 182.02 143.429 181.07 142.589Z" fill="black"/>
<path d="M182.05 142.67C179.7 141.22 178.98 138.14 180.44 135.79C180.44 135.79 180.52 135.64 180.67 135.39C182.09 133.03 185.17 132.27 187.53 133.69C189.9 135.12 190.66 138.2 189.23 140.56C189.23 140.56 189.11 140.77 188.93 141.06C187.99 142.58 186.35 143.42 184.68 143.42C183.78 143.42 182.87 143.18 182.05 142.67Z" fill="black"/>
<path d="M182.54 141.98C180.18 140.55 179.41 137.48 180.84 135.12L181.01 134.83C182.43 132.46 185.5 131.7 187.87 133.12C190.23 134.55 191 137.62 189.58 139.98L189.4 140.27C188.47 141.83 186.81 142.69 185.12 142.69C184.24 142.69 183.35 142.46 182.54 141.98Z" fill="black"/>
<path d="M185.39 138.879C182.69 138.269 181 135.599 181.61 132.899C182.22 130.209 184.89 128.519 187.59 129.129C190.28 129.729 191.97 132.409 191.36 135.099C190.84 137.429 188.78 138.999 186.49 138.999C186.13 138.999 185.76 138.959 185.39 138.879Z" fill="black"/>
<path d="M181.49 103.79C181.49 101.02 183.73 98.79 186.49 98.79C189.25 98.79 191.49 101.03 191.49 103.79C191.49 106.55 189.25 108.79 186.49 108.79C183.73 108.79 181.49 106.55 181.49 103.79Z" fill="black"/>
<path d="M182.54 106.45C180.93 104.2 181.44 101.08 183.69 99.4697C185.11 98.4997 186.21 98.4897 186.87 98.4697C189.63 98.4697 191.87 100.71 191.87 103.47C191.87 105.85 190.2 107.84 187.97 108.34C187.52 108.47 187.06 108.53 186.61 108.53C185.05 108.53 183.51 107.81 182.54 106.45Z" fill="black"/>
<path d="M195.56 103.47C195.56 100.7 197.79 98.4697 200.56 98.4697C203.32 98.4697 205.56 100.7 205.56 103.47C205.56 106.23 203.32 108.47 200.56 108.47C197.79 108.47 195.56 106.23 195.56 103.47Z" fill="black"/>
<path d="M196 105.22C195.27 103.12 196.02 100.7 197.97 99.4096C200.27 97.8896 203.38 98.5196 204.9 100.82C205.44 101.71 205.76 102.46 205.79 103.79C205.79 106.55 203.55 108.79 200.79 108.79C198.53 108.79 196.62 107.28 196 105.22Z" fill="black"/>
<path d="M195.82 139.85C195.82 137.08 198.06 134.84 200.82 134.84C203.58 134.84 205.82 137.07 205.82 139.84C205.83 142.6 203.59 144.84 200.83 144.84C198.07 144.84 195.83 142.61 195.82 139.85Z" fill="black"/>
<path d="M196.049 148.6C195.979 145.85 198.159 143.55 200.919 143.48C203.679 143.41 205.969 145.59 206.039 148.35C206.109 151.11 203.929 153.41 201.169 153.48H201.039C198.339 153.48 196.119 151.32 196.049 148.6Z" fill="black"/>
<path d="M196.13 149.78L196.1 149.33C195.88 146.58 197.93 144.16 200.68 143.94C203.43 143.72 205.84 145.77 206.06 148.53L206.1 148.97C206.32 151.73 204.27 154.14 201.52 154.36C201.38 154.37 201.25 154.38 201.11 154.38C198.53 154.38 196.34 152.39 196.13 149.78Z" fill="black"/>
<path d="M196.21 150.58L196.17 150.2C195.92 147.45 197.95 145.02 200.7 144.78C203.45 144.53 205.88 146.56 206.13 149.31L206.17 149.69C206.41 152.44 204.38 154.87 201.63 155.11C201.48 155.13 201.33 155.14 201.18 155.14C198.62 155.14 196.44 153.18 196.21 150.58Z" fill="black"/>
<path d="M196.26 151.68C196.25 151.43 196.25 151.22 196.24 151.03C196.12 148.27 198.25 145.94 201.01 145.82C203.77 145.69 206.11 147.83 206.23 150.59C206.24 150.85 206.25 151.08 206.25 151.3C206.36 154.06 204.21 156.38 201.45 156.48C201.38 156.49 201.32 156.49 201.25 156.49C198.58 156.49 196.36 154.37 196.26 151.68Z" fill="black"/>
<path d="M196.17 153.51C196.17 150.75 198.41 148.51 201.17 148.51C203.94 148.51 206.17 150.75 206.17 153.51C206.17 156.27 203.94 158.51 201.17 158.51C198.41 158.51 196.17 156.27 196.17 153.51Z" fill="black"/>
</g>
<path d="M416.34 58.58C416.34 55.82 418.58 53.58 421.34 53.58C424.1 53.58 426.34 55.82 426.34 58.58C426.34 61.34 424.1 63.58 421.34 63.58C418.58 63.58 416.34 61.34 416.34 58.58ZM416.34 31.79C416.34 29.03 418.58 26.79 421.34 26.79C424.1 26.79 426.34 29.03 426.34 31.79C426.34 34.55 424.1 36.79 421.34 36.79C418.58 36.79 416.34 34.55 416.34 31.79Z" fill="black"/>
<path d="M402.75 85.3701C402.75 82.6101 404.99 80.3701 407.75 80.3701C410.51 80.3701 412.75 82.6101 412.75 85.3701C412.75 88.1401 410.51 90.3701 407.75 90.3701C404.99 90.3701 402.75 88.1401 402.75 85.3701Z" fill="black"/>
<mask id="mask2_2559_5692" style="mask-type:luminance" maskUnits="userSpaceOnUse" x="0" y="0" width="712" height="164">
<path d="M711.66 0H0V163.92H711.66V0Z" fill="white"/>
</mask>
<g mask="url(#mask2_2559_5692)">
<path d="M402.75 58.58C402.75 55.82 404.98 53.58 407.75 53.58C410.51 53.58 412.75 55.82 412.75 58.58C412.75 61.34 410.51 63.58 407.75 63.58C404.98 63.58 402.75 61.34 402.75 58.58ZM402.75 31.79C402.75 29.03 404.98 26.79 407.75 26.79C410.51 26.79 412.75 29.03 412.75 31.79C412.75 34.55 410.51 36.79 407.75 36.79C404.98 36.79 402.75 34.55 402.75 31.79Z" fill="black"/>
<path d="M416.34 5C416.34 2.23 418.58 0 421.34 0C424.1 0 426.34 2.23 426.34 5C426.34 7.76 424.1 10 421.34 10C418.58 10 416.34 7.76 416.34 5Z" fill="black"/>
<path d="M306.69 133.85C306.69 131.09 308.92 128.85 311.69 128.85C314.45 128.85 316.69 131.09 316.69 133.85C316.69 136.62 314.45 138.85 311.69 138.85C308.92 138.85 306.69 136.62 306.69 133.85Z" fill="black"/>
<path d="M292.46 158.92C292.46 156.15 294.7 153.92 297.46 153.92C300.22 153.92 302.46 156.15 302.46 158.92C302.46 161.68 300.22 163.92 297.46 163.92C294.7 163.92 292.46 161.68 292.46 158.92Z" fill="black"/>
</g>
<path d="M292.46 133.85C292.46 131.09 294.69 128.85 297.46 128.85C300.22 128.85 302.46 131.09 302.46 133.85C302.46 136.62 300.22 138.85 297.46 138.85C294.69 138.85 292.46 136.62 292.46 133.85Z" fill="black"/>
<path d="M306.69 108.79C306.69 106.03 308.93 103.79 311.69 103.79C314.45 103.79 316.69 106.03 316.69 108.79C316.69 111.55 314.45 113.79 311.69 113.79C308.93 113.79 306.69 111.55 306.69 108.79Z" fill="black"/>
<mask id="mask3_2559_5692" style="mask-type:luminance" maskUnits="userSpaceOnUse" x="0" y="0" width="712" height="164">
<path d="M711.66 0H0V163.92H711.66V0Z" fill="white"/>
</mask>
<g mask="url(#mask3_2559_5692)">
<path d="M299.57 98.9502C299.57 96.1902 301.81 93.9502 304.57 93.9502C307.33 93.9502 309.57 96.1902 309.57 98.9502C309.57 101.71 307.33 103.95 304.57 103.95C301.81 103.95 299.57 101.71 299.57 98.9502Z" fill="black"/>
<path d="M290.87 90.2607C290.87 87.5007 293.11 85.2607 295.87 85.2607C298.63 85.2607 300.87 87.5007 300.87 90.2607C300.87 93.0207 298.63 95.2607 295.87 95.2607C293.11 95.2607 290.87 93.0207 290.87 90.2607Z" fill="black"/>
<path d="M299.57 81.5605C299.57 78.8005 301.81 76.5605 304.57 76.5605C307.33 76.5605 309.57 78.8005 309.57 81.5605C309.57 84.3205 307.33 86.5605 304.57 86.5605C301.81 86.5605 299.57 84.3205 299.57 81.5605Z" fill="black"/>
<path d="M308.271 90.2607C308.271 87.5007 310.511 85.2607 313.271 85.2607C316.031 85.2607 318.271 87.5007 318.271 90.2607C318.271 93.0207 316.031 95.2607 313.271 95.2607C310.511 95.2607 308.271 93.0207 308.271 90.2607Z" fill="black"/>
<path d="M701.66 45.29C701.66 42.52 703.89 40.29 706.66 40.29C709.42 40.29 711.66 42.52 711.66 45.29C711.66 48.05 709.42 50.28 706.66 50.28C703.89 50.28 701.66 48.05 701.66 45.29Z" fill="black"/>
<path d="M705.57 51.3908C702.93 50.9008 701.16 48.4208 701.53 45.7808V45.7408C701.54 45.6508 701.56 45.5208 701.57 45.3608C701.85 42.6208 704.3 40.6108 707.04 40.8808C709.79 41.1608 711.8 43.6108 711.52 46.3608C711.52 46.4708 711.5 46.6108 711.49 46.7408C711.46 46.9208 711.48 46.9108 711.4 47.3908C710.95 49.8008 708.85 51.4808 706.49 51.4808C706.19 51.4808 705.88 51.4508 705.57 51.3908Z" fill="black"/>
<path d="M703.81 54.2304C701.25 53.1904 700.01 50.2804 701.04 47.7204C702.08 45.1604 704.99 43.9204 707.55 44.9504C710.11 45.9804 711.35 48.9004 710.32 51.4604C709.53 53.4104 707.66 54.5904 705.68 54.5904C705.05 54.5904 704.42 54.4704 703.81 54.2304Z" fill="black"/>
<path d="M703.34 55.3499C700.79 54.3099 699.55 51.3899 700.59 48.8299L700.82 48.2699C701.86 45.7099 704.77 44.4799 707.33 45.5199C709.89 46.5499 711.12 49.4699 710.09 52.0299L709.86 52.5899C709.07 54.5299 707.2 55.7099 705.22 55.7099C704.6 55.7099 703.96 55.5999 703.34 55.3499Z" fill="black"/>
<path d="M697.23 59.1598C695.47 57.0298 695.78 53.8798 697.91 52.1198C700.04 50.3598 703.19 50.6698 704.95 52.7998C706.7 54.9298 706.4 58.0798 704.27 59.8398C703.34 60.6098 702.21 60.9798 701.09 60.9798C699.65 60.9798 698.22 60.3598 697.23 59.1598Z" fill="black"/>
<path d="M694.36 59.6907C693.16 57.2107 694.19 54.2107 696.67 53.0107C699.16 51.8007 702.15 52.8307 703.36 55.3207C704.56 57.8007 703.53 60.7907 701.04 62.0007C700.34 62.3407 699.6 62.5107 698.86 62.5107C697.01 62.5107 695.23 61.4707 694.36 59.6907Z" fill="black"/>
<path d="M689.65 60.7704C688.86 58.1204 690.36 55.3404 693 54.5404C695.65 53.7404 698.44 55.2404 699.23 57.8904C700.03 60.5304 698.53 63.3204 695.88 64.1204C695.4 64.2604 694.92 64.3304 694.44 64.3304C692.29 64.3304 690.31 62.9304 689.65 60.7704Z" fill="black"/>
<path d="M687.34 60.6407C686.91 57.9107 688.78 55.3507 691.51 54.9307C694.24 54.5007 696.79 56.3707 697.22 59.1007C697.65 61.8307 695.78 64.3807 693.05 64.8107C692.79 64.8507 692.53 64.8707 692.27 64.8707C689.85 64.8707 687.72 63.1107 687.34 60.6407Z" fill="black"/>
<path d="M685.3 60.9306C684.88 58.2006 686.76 55.6506 689.49 55.2406C692.21 54.8206 694.77 56.6906 695.18 59.4206C695.6 62.1506 693.72 64.7006 691 65.1206C690.74 65.1606 690.49 65.1806 690.24 65.1806C687.81 65.1806 685.68 63.4106 685.3 60.9306Z" fill="black"/>
<path d="M683.9 60.6808C683.71 57.9308 685.78 55.5408 688.53 55.3408C688.7 55.3408 688.87 55.3108 689.04 55.2908C691.78 55.0008 694.25 56.9908 694.54 59.7408C694.83 62.4808 692.84 64.9508 690.1 65.2408C689.81 65.2708 689.53 65.2908 689.25 65.3108C689.13 65.3108 689.01 65.3308 688.89 65.3308C686.29 65.3308 684.09 63.3208 683.9 60.6808Z" fill="black"/>
<path d="M683.06 60.7508C682.86 58.0008 684.93 55.6008 687.68 55.4008L688.1 55.3708C690.86 55.1708 693.25 57.2408 693.45 59.9908C693.66 62.7508 691.59 65.1408 688.83 65.3408L688.41 65.3808C688.29 65.3808 688.16 65.3908 688.04 65.3908C685.45 65.3908 683.25 63.3808 683.06 60.7508Z" fill="black"/>
<path d="M683.91 64.8704C681.49 63.5304 680.61 60.4904 681.94 58.0804C682.83 56.5704 683.74 56.2004 684.23 55.9404C684.75 55.7004 685.06 55.6304 685.31 55.5704C685.78 55.4604 686.02 55.4504 686.24 55.4304C686.65 55.4004 686.91 55.4004 687.16 55.4004C689.93 55.4004 692.17 57.6304 692.18 60.3904C692.18 63.1404 689.97 65.3704 687.23 65.4004C686.93 65.4604 686.63 65.4904 686.32 65.4904C685.5 65.4904 684.68 65.2904 683.91 64.8704Z" fill="black"/>
<path d="M684.521 65.4902C681.761 65.4902 679.521 63.2502 679.521 60.4902C679.521 57.7202 681.761 55.4902 684.521 55.4902H685.42C688.18 55.4902 690.42 57.7202 690.42 60.4902C690.42 63.2502 688.18 65.4902 685.42 65.4902C681.76 65.4902 685.421 65.4902 684.521 65.4902Z" fill="black"/>
<path d="M683.7 65.4002C683.45 65.4002 683.01 65.4102 682.4 65.3502C679.66 65.0702 677.66 62.6102 677.94 59.8602C678.22 57.1202 680.68 55.1202 683.42 55.4002H683.74C686.5 55.4102 688.73 57.6602 688.72 60.4202C688.71 63.1802 686.47 65.4002 683.72 65.4002H683.7Z" fill="black"/>
<path d="M681.56 65.2601L680.71 65.1801C677.96 64.9101 675.95 62.4601 676.23 59.7101C676.5 56.9601 678.95 54.9501 681.7 55.2301L682.55 55.3101C685.3 55.5901 687.31 58.0301 687.03 60.7801C686.78 63.3601 684.6 65.2901 682.06 65.2901C681.9 65.2901 681.73 65.2801 681.56 65.2601Z" fill="black"/>
<path d="M680.1 65.0999L679.631 65.0399C676.891 64.6899 674.961 62.1899 675.311 59.4499C675.661 56.7099 678.171 54.7699 680.901 55.1299L681.371 55.1799C684.111 55.5399 686.051 58.0399 685.701 60.7799C685.371 63.2999 683.221 65.1399 680.741 65.1399C680.531 65.1399 680.32 65.1299 680.1 65.0999Z" fill="black"/>
<path d="M676.42 64.4103C673.75 63.7103 672.16 60.9703 672.86 58.3003C673.56 55.6303 676.29 54.0403 678.96 54.7403C681.63 55.4403 683.23 58.1703 682.53 60.8403C681.94 63.0903 679.91 64.5703 677.69 64.5703C677.27 64.5703 676.85 64.5203 676.42 64.4103Z" fill="black"/>
<path d="M675.6 64.2006C675.24 64.1006 674.8 63.9706 674.3 63.7806C671.72 62.7806 670.45 59.8806 671.45 57.3106C672.45 54.7306 675.35 53.4606 677.92 54.4606C677.92 54.4606 678.02 54.4906 678.19 54.5406C680.86 55.2506 682.44 57.9906 681.72 60.6606C681.13 62.9006 679.11 64.3706 676.9 64.3706C676.47 64.3706 676.03 64.3106 675.6 64.2006Z" fill="black"/>
<path d="M673.74 63.5604L673.17 63.3404C670.59 62.3504 669.31 59.4504 670.31 56.8804C671.3 54.3004 674.2 53.0204 676.77 54.0104L677.34 54.2304C679.92 55.2304 681.2 58.1204 680.2 60.7004C679.44 62.6804 677.55 63.9004 675.54 63.9004C674.94 63.9004 674.33 63.7904 673.74 63.5604Z" fill="black"/>
<path d="M672.43 63.0498C672.16 62.9298 671.9 62.8098 671.66 62.6998C669.17 61.5198 668.1 58.5298 669.29 56.0398C670.47 53.5398 673.45 52.4798 675.95 53.6698C676.1 53.7298 676.22 53.7898 676.33 53.8398C678.88 54.9098 680.06 57.8498 678.99 60.3898C678.18 62.2998 676.33 63.4398 674.38 63.4398C673.73 63.4398 673.07 63.3198 672.43 63.0498Z" fill="black"/>
<path d="M671.241 62.5004L670.831 62.3004C668.341 61.1104 667.291 58.1204 668.481 55.6304C669.671 53.1404 672.661 52.0904 675.151 53.2804L675.561 53.4804C678.051 54.6704 679.101 57.6604 677.911 60.1504C677.051 61.9404 675.261 62.9904 673.391 62.9904C672.671 62.9904 671.931 62.8304 671.241 62.5004Z" fill="black"/>
<path d="M667.27 60.0708C665.08 58.3908 664.66 55.2508 666.34 53.0608C668.01 50.8708 671.15 50.4508 673.34 52.1308C675.54 53.8008 675.96 56.9408 674.28 59.1308C673.29 60.4208 671.81 61.1008 670.3 61.1008C669.24 61.1008 668.18 60.7608 667.27 60.0708Z" fill="black"/>
<path d="M663.88 56.8504C662.19 54.6704 662.57 51.5304 664.75 49.8304C666.93 48.1304 670.07 48.5204 671.77 50.6904C673.47 52.8704 673.08 56.0104 670.9 57.7104C669.99 58.4204 668.91 58.7704 667.83 58.7704C666.34 58.7704 664.87 58.1104 663.88 56.8504Z" fill="black"/>
<path d="M663.57 56.4401L663.25 56.0301C661.56 53.8501 661.95 50.7101 664.13 49.0201C666.31 47.3201 669.45 47.7101 671.14 49.8901L671.46 50.3001C673.15 52.4701 672.76 55.6201 670.58 57.3101C669.67 58.0201 668.59 58.3701 667.52 58.3701C666.03 58.3701 664.55 57.7001 663.57 56.4401Z" fill="black"/>
<path d="M663 55.7005L662.771 55.4005C661.091 53.2105 661.5 50.0705 663.7 48.3905C665.89 46.7105 669.031 47.1305 670.711 49.3205L670.94 49.6205C672.62 51.8205 672.2 54.9505 670.01 56.6305C669.1 57.3305 668.03 57.6605 666.97 57.6605C665.47 57.6605 663.98 56.9905 663 55.7005Z" fill="black"/>
<path d="M662.231 54.6503C662.031 54.3603 661.811 54.0103 661.591 53.5503C660.391 51.0703 661.43 48.0703 663.91 46.8703C666.37 45.6803 669.321 46.6803 670.551 49.1203C672.081 51.4103 671.46 54.5203 669.16 56.0503C668.31 56.6103 667.351 56.8803 666.391 56.8803C664.781 56.8803 663.191 56.1003 662.231 54.6503Z" fill="black"/>
<path d="M661.201 52.7402L660.8 51.9302C659.6 49.4502 660.63 46.4502 663.11 45.2502C665.6 44.0402 668.59 45.0702 669.8 47.5502L670.191 48.3702C671.401 50.8502 670.371 53.8402 667.881 55.0502C667.181 55.3902 666.431 55.5602 665.701 55.5602C663.851 55.5602 662.061 54.5202 661.201 52.7402Z" fill="black"/>
<path d="M659.55 48.6305C658.82 45.9705 660.38 43.2105 663.04 42.4805C665.7 41.7505 668.46 43.3105 669.19 45.9705C669.93 48.6305 668.36 51.3905 665.7 52.1205C665.26 52.2405 664.81 52.3005 664.37 52.3005C662.17 52.3005 660.16 50.8505 659.55 48.6305Z" fill="black"/>
<path d="M659.3 47.7006L659.04 46.7806C658.31 44.1206 659.88 41.3706 662.54 40.6406C665.2 39.9106 667.96 41.4706 668.69 44.1306L668.94 45.0606C669.67 47.7206 668.1 50.4706 665.44 51.2006C665 51.3206 664.55 51.3806 664.12 51.3806C661.92 51.3806 659.91 49.9206 659.3 47.7006Z" fill="black"/>
<path d="M658.8 45.57C658.78 45.44 658.77 45.35 658.76 45.29V45.23H658.75C658.2 42.52 659.94 39.88 662.65 39.33C665.36 38.78 668 40.52 668.55 43.23C668.64 43.67 668.67 43.96 668.7 44.12C669.1 46.85 667.21 49.39 664.48 49.79C664.23 49.83 663.98 49.85 663.74 49.85C661.3 49.85 659.17 48.06 658.8 45.57Z" fill="black"/>
<path d="M659.47 44.9299C658.81 42.2499 660.44 39.5399 663.12 38.8699C663.65 38.7399 664.03 38.6899 664.16 38.6599C666.85 38.0699 669.52 39.7699 670.11 42.4599C670.72 45.1599 669.02 47.8299 666.32 48.4299C665.71 48.5499 665.53 48.5699 665.54 48.5799C665.13 48.6799 664.72 48.7299 664.32 48.7299C662.08 48.7299 660.04 47.2099 659.47 44.9299Z" fill="black"/>
<path d="M663.14 44.0106C662.55 41.3106 664.25 38.6406 666.95 38.0506C669.65 37.4506 672.32 39.1606 672.91 41.8506C673.51 44.5506 671.8 47.2206 669.1 47.8106C668.74 47.8906 668.38 47.9306 668.02 47.9306C665.73 47.9306 663.66 46.3406 663.14 44.0106Z" fill="black"/>
<path d="M665.61 43.4704C665.01 40.7704 666.71 38.1004 669.4 37.5004C672.1 36.9004 674.77 38.6004 675.37 41.2904C675.97 43.9904 674.27 46.6604 671.57 47.2604C671.21 47.3404 670.84 47.3804 670.48 47.3804C668.19 47.3804 666.13 45.8004 665.61 43.4704Z" fill="black"/>
<path d="M666.34 43.3305C665.72 40.6405 667.41 37.9605 670.1 37.3405L670.82 37.1805C673.51 36.5605 676.2 38.2405 676.81 40.9305C677.43 43.6205 675.75 46.3105 673.05 46.9205L672.33 47.0905C671.95 47.1805 671.58 47.2205 671.21 47.2205C668.93 47.2205 666.87 45.6505 666.34 43.3305Z" fill="black"/>
<path d="M669.79 41.4705C669.79 38.7105 672.03 36.4805 674.79 36.4805C677.55 36.4805 679.79 38.7105 679.79 41.4705C679.79 44.2405 677.55 46.4705 674.79 46.4705C672.03 46.4705 669.79 44.2405 669.79 41.4705Z" fill="black"/>
<path d="M671.31 44.09C669.87 41.74 670.62 38.66 672.98 37.22C675.33 35.79 678.41 36.53 679.85 38.89C681.28 41.25 680.53 44.33 678.18 45.76C677.36 46.26 676.47 46.49 675.58 46.49C673.89 46.49 672.25 45.64 671.31 44.09Z" fill="black"/>
<path d="M672.59 47.7799C671.29 45.3399 672.21 42.3099 674.64 41.0099C677.07 39.6999 680.1 40.6199 681.41 43.0499C682.71 45.4899 681.8 48.5199 679.36 49.8199C678.61 50.2199 677.8 50.4099 677.01 50.4099C675.22 50.4099 673.5 49.4599 672.59 47.7799Z" fill="black"/>
<path d="M677.44 52.5898C675.03 51.2298 674.19 48.1798 675.55 45.7698C676.91 43.3698 679.95 42.5198 682.36 43.8798C684.76 45.2398 685.61 48.2898 684.25 50.6998C683.33 52.3198 681.64 53.2398 679.89 53.2398C679.06 53.2398 678.21 53.0298 677.44 52.5898Z" fill="black"/>
<path d="M681.39 54.1301C678.69 53.5501 676.96 50.9001 677.54 48.2001C678.11 45.5001 680.76 43.7701 683.46 44.3401C686.17 44.9101 687.89 47.5701 687.32 50.2701C686.82 52.6201 684.74 54.2401 682.43 54.2401C682.09 54.2401 681.74 54.2001 681.39 54.1301Z" fill="black"/>
<path d="M680.79 49.86C680.7 47.1 682.87 44.79 685.62 44.7C688.39 44.61 690.69 46.78 690.78 49.54C690.87 52.3 688.71 54.61 685.95 54.7H685.78C683.1 54.7 680.88 52.56 680.79 49.86Z" fill="black"/>
<path d="M684.55 50.8107C683.67 48.1907 685.07 45.3607 687.69 44.4807C690.31 43.6007 693.14 45.0007 694.02 47.6207C694.91 50.2407 693.5 53.0707 690.88 53.9507C690.35 54.1307 689.81 54.2207 689.29 54.2207C687.2 54.2207 685.25 52.9007 684.55 50.8107Z" fill="black"/>
<path d="M687.24 51.02C685.7 48.72 686.32 45.62 688.61 44.08C690.91 42.55 694.01 43.16 695.55 45.45C697.09 47.75 696.47 50.86 694.18 52.39C693.32 52.96 692.36 53.24 691.4 53.24C689.79 53.24 688.2 52.46 687.24 51.02Z" fill="black"/>
<path d="M688.771 51.3201C686.711 49.4801 686.54 46.3201 688.38 44.2601C688.38 44.2601 688.51 44.1101 688.68 43.8701C690.32 41.6501 693.45 41.1801 695.68 42.8201C697.9 44.4701 698.37 47.6001 696.72 49.8201C696.52 50.0901 696.241 50.4801 695.831 50.9301C694.851 52.0401 693.48 52.6001 692.11 52.6001C690.92 52.6001 689.731 52.1801 688.771 51.3201Z" fill="black"/>
<path d="M688.7 45.9005C686.86 43.8505 687.03 40.6905 689.09 38.8405C691.14 37.0005 694.3 37.1705 696.15 39.2205C697.99 41.2805 697.82 44.4405 695.76 46.2805C694.81 47.1405 693.62 47.5605 692.43 47.5605C691.06 47.5605 689.69 47.0005 688.7 45.9005Z" fill="black"/>
<path d="M686.56 44.82C683.9 44.0599 682.37 41.29 683.13 38.63C683.89 35.98 686.65 34.44 689.31 35.2C691.96 35.96 693.5 38.73 692.74 41.38C692.11 43.58 690.11 45.0099 687.94 45.0099C687.48 45.0099 687.02 44.95 686.56 44.82Z" fill="black"/>
<path d="M685.761 44.5902L684.971 44.3602C682.311 43.6002 680.781 40.8202 681.541 38.1702C682.311 35.5202 685.081 33.9802 687.731 34.7502L688.521 34.9802C691.181 35.7402 692.711 38.5102 691.951 41.1702C691.311 43.3602 689.311 44.7802 687.141 44.7802C686.681 44.7802 686.221 44.7202 685.761 44.5902Z" fill="black"/>
<path d="M680.67 43.3899C677.98 42.7699 676.29 40.0899 676.91 37.3999C677.52 34.7099 680.2 33.0199 682.89 33.6399C685.59 34.2499 687.27 36.9299 686.66 39.6199C686.13 41.9399 684.07 43.5099 681.79 43.5099C681.42 43.5099 681.04 43.4699 680.67 43.3899Z" fill="black"/>
<path d="M678.52 42.8907C675.83 42.2707 674.15 39.5807 674.77 36.8907C675.39 34.2007 678.08 32.5307 680.77 33.1507C683.46 33.7707 685.14 36.4607 684.52 39.1507C683.98 41.4607 681.92 43.0207 679.65 43.0207C679.28 43.0207 678.9 42.9807 678.52 42.8907Z" fill="black"/>
<path d="M674.62 41.6902C672.04 40.6902 670.76 37.8002 671.76 35.2202C672.75 32.6502 675.65 31.3702 678.22 32.3602C680.8 33.3502 682.08 36.2502 681.08 38.8302C680.32 40.8102 678.42 42.0302 676.42 42.0302C675.82 42.0302 675.21 41.9202 674.62 41.6902Z" fill="black"/>
<path d="M674.081 41.4801L673.541 41.2701C670.961 40.2801 669.681 37.3901 670.671 34.8101C671.661 32.2301 674.551 30.9501 677.131 31.9401L677.671 32.1501C680.251 33.1401 681.541 36.0301 680.541 38.6101C679.781 40.6001 677.891 41.8201 675.881 41.8201C675.281 41.8201 674.671 41.7101 674.081 41.4801Z" fill="black"/>
<path d="M672.771 40.9398C672.531 40.8198 672.331 40.7198 672.151 40.6198C669.721 39.3098 668.811 36.2798 670.121 33.8498C671.441 31.4198 674.471 30.5098 676.901 31.8198C676.971 31.8598 677.041 31.8898 677.081 31.9098C679.571 33.0998 680.631 36.0898 679.441 38.5798C678.581 40.3798 676.791 41.4298 674.921 41.4298C674.201 41.4298 673.471 41.2698 672.771 40.9398Z" fill="black"/>
<path d="M671.37 40.2103L670.56 39.7803C668.12 38.4903 667.19 35.4603 668.48 33.0203C669.77 30.5803 672.8 29.6503 675.24 30.9403L676.05 31.3703C678.49 32.6603 679.42 35.6903 678.13 38.1303C677.23 39.8303 675.5 40.7903 673.71 40.7903C672.92 40.7903 672.12 40.6103 671.37 40.2103Z" fill="black"/>
<path d="M663.28 33.1505C661.82 30.8105 662.54 27.7305 664.88 26.2705C667.23 24.8105 670.31 25.5305 671.77 27.8705C673.23 30.2105 672.51 33.3005 670.17 34.7605C669.35 35.2705 668.43 35.5105 667.53 35.5105C665.86 35.5105 664.23 34.6805 663.28 33.1505Z" fill="black"/>
<path d="M663.09 32.8405L662.9 32.5405C661.44 30.1905 662.16 27.1105 664.51 25.6505C666.86 24.1905 669.94 24.9205 671.39 27.2605L671.58 27.5705C673.04 29.9205 672.32 33.0005 669.97 34.4505C669.15 34.9605 668.24 35.2105 667.34 35.2105C665.67 35.2105 664.03 34.3705 663.09 32.8405Z" fill="black"/>
<path d="M661.35 29.2206C660.55 26.5806 662.04 23.7906 664.69 22.9906C667.33 22.1906 670.12 23.6906 670.92 26.3306C671.72 28.9706 670.22 31.7606 667.58 32.5606C667.1 32.7106 666.61 32.7806 666.13 32.7806C663.98 32.7806 662 31.3806 661.35 29.2206Z" fill="black"/>
<path d="M661.17 28.6398L661 28.0598C660.2 25.4098 661.7 22.6298 664.35 21.8298C666.99 21.0398 669.78 22.5398 670.57 25.1898L670.75 25.7598C671.54 28.4098 670.04 31.1898 667.4 31.9898C666.92 32.1298 666.43 32.1998 665.96 32.1998C663.81 32.1998 661.82 30.7998 661.17 28.6398Z" fill="black"/>
<path d="M660.43 24.6305C660.07 21.8905 662 19.3905 664.74 19.0305C667.48 18.6705 669.99 20.6005 670.34 23.3405C670.7 26.0805 668.77 28.5905 666.03 28.9405C665.81 28.9705 665.6 28.9905 665.38 28.9905C662.91 28.9905 660.76 27.1505 660.43 24.6305Z" fill="black"/>
<path d="M664.88 26.7005C662.13 26.4205 660.13 23.9705 660.41 21.2205C660.69 18.4805 663.14 16.4805 665.89 16.7605C668.63 17.0305 670.64 19.4905 670.36 22.2405C670.09 24.8105 667.92 26.7305 665.39 26.7305C665.22 26.7305 665.05 26.7305 664.88 26.7005Z" fill="black"/>
<path d="M664.711 22.4599C662.071 21.6499 660.581 18.8599 661.391 16.2199C662.191 13.5799 664.991 12.0899 667.631 12.8899C670.271 13.6999 671.761 16.4899 670.961 19.1299C670.301 21.2899 668.321 22.6799 666.171 22.6799C665.691 22.6799 665.201 22.6099 664.711 22.4599Z" fill="black"/>
<path d="M664.84 19.5001C662.46 18.1101 661.66 15.0401 663.06 12.6601C664.45 10.2801 667.52 9.48006 669.9 10.8801C672.28 12.2801 673.08 15.3401 671.68 17.7201C670.75 19.3101 669.08 20.1901 667.36 20.1901C666.5 20.1901 665.63 19.9701 664.84 19.5001Z" fill="black"/>
<path d="M667.87 12.9904C666.37 10.6804 667.03 7.5804 669.35 6.0804C671.67 4.5804 674.76 5.2404 676.26 7.5504C677.77 9.8704 677.1 12.9704 674.79 14.4704C673.95 15.0104 673 15.2704 672.07 15.2704C670.43 15.2704 668.83 14.4704 667.87 12.9904Z" fill="black"/>
<path d="M668.46 12.6006C666.97 10.2806 667.64 7.18057 669.96 5.69057L670.56 5.30057C672.88 3.80057 675.97 4.47057 677.47 6.79057C678.96 9.11057 678.3 12.2106 675.97 13.7006L675.38 14.0906C674.54 14.6306 673.6 14.8906 672.67 14.8906C671.03 14.8906 669.42 14.0806 668.46 12.6006Z" fill="black"/>
<path d="M670.66 10.3199C669.65 7.74988 670.91 4.83988 673.48 3.82988C676.05 2.81988 678.95 4.07988 679.96 6.64988C680.98 9.21988 679.72 12.1199 677.15 13.1299C676.54 13.3699 675.92 13.4799 675.31 13.4799C673.32 13.4799 671.44 12.2799 670.66 10.3199Z" fill="black"/>
<path d="M671.1 10.14C670.09 7.56999 671.35 4.66999 673.92 3.65999L674.36 3.47999C676.93 2.46999 679.83 3.73999 680.84 6.29999C681.85 8.86999 680.59 11.78 678.02 12.79L677.58 12.96C676.98 13.2 676.36 13.31 675.75 13.31C673.76 13.31 671.87 12.11 671.1 10.14Z" fill="black"/>
<path d="M675.4 7.4999C675.11 4.7499 677.1 2.2899 679.85 1.9999C682.59 1.7199 685.06 3.7099 685.34 6.4599C685.63 9.1999 683.64 11.6599 680.9 11.9499C680.72 11.9699 680.54 11.9799 680.37 11.9799C677.84 11.9799 675.67 10.0699 675.4 7.4999Z" fill="black"/>
<path d="M677.56 6.84004C677.44 4.08004 679.571 1.74004 682.331 1.62004C685.091 1.50004 687.43 3.64004 687.55 6.40004C687.67 9.15004 685.531 11.49 682.781 11.61C682.701 11.62 682.63 11.62 682.55 11.62C679.89 11.62 677.68 9.52004 677.56 6.84004Z" fill="black"/>
<path d="M678.22 6.8205C678.09 4.0605 680.23 1.7205 682.99 1.5905L683.651 1.5605C686.411 1.4405 688.75 3.5705 688.87 6.3305C689 9.0905 686.86 11.4305 684.11 11.5505L683.44 11.5805C683.37 11.5805 683.291 11.5805 683.211 11.5805C680.551 11.5805 678.34 9.4905 678.22 6.8105V6.8205Z" fill="black"/>
<path d="M685.74 11.5403C682.98 11.3903 680.87 9.03029 681.02 6.27029C681.18 3.51029 683.54 1.40029 686.29 1.56029C689.05 1.71029 691.16 4.07029 691.01 6.83029C690.86 9.49029 688.65 11.5503 686.02 11.5503C685.93 11.5503 685.83 11.5503 685.74 11.5503V11.5403Z" fill="black"/>
<path d="M687.21 11.5702C684.5 11.0202 682.76 8.38016 683.31 5.67016C683.87 2.97016 686.51 1.22016 689.22 1.78016C691.92 2.33016 693.66 4.98016 693.11 7.68016C692.63 10.0502 690.54 11.6802 688.22 11.6802C687.89 11.6802 687.55 11.6402 687.21 11.5702Z" fill="black"/>
<path d="M688.57 11.8507L687.9 11.7107C685.19 11.1707 683.44 8.53072 683.99 5.82072C684.54 3.11072 687.18 1.37072 689.89 1.91072L690.56 2.05072C693.27 2.60072 695.02 5.24072 694.47 7.95072C693.99 10.3207 691.9 11.9507 689.57 11.9507C689.24 11.9507 688.91 11.9207 688.57 11.8507Z" fill="black"/>
<path d="M689.76 12.0499C689.55 11.9899 689.53 11.9899 689.53 11.9899C686.81 11.5499 684.96 8.96994 685.41 6.24994C685.86 3.52994 688.43 1.67994 691.16 2.12994C691.56 2.18994 691.99 2.28994 692.45 2.41994C695.11 3.16994 696.67 5.92994 695.92 8.58994C695.3 10.7899 693.29 12.2399 691.11 12.2399C690.66 12.2399 690.21 12.1799 689.76 12.0499Z" fill="black"/>
<path d="M692.14 12.7803C689.57 11.7703 688.31 8.87027 689.32 6.30027C690.34 3.73027 693.24 2.47027 695.81 3.48027C698.38 4.50027 699.64 7.40027 698.63 9.97027C697.85 11.9303 695.97 13.1303 693.97 13.1303C693.36 13.1303 692.74 13.0203 692.14 12.7803Z" fill="black"/>
<path d="M692.98 13.11L692.57 12.95C689.99 11.95 688.72 9.05002 689.73 6.47002C690.73 3.90002 693.63 2.63002 696.21 3.64002L696.62 3.80002C699.19 4.80002 700.46 7.70002 699.45 10.28C698.68 12.25 696.8 13.46 694.8 13.46C694.19 13.46 693.57 13.35 692.98 13.11Z" fill="black"/>
<path d="M694.711 13.9907C692.411 12.4607 691.791 9.3607 693.321 7.0607C694.851 4.7607 697.951 4.1407 700.251 5.6607C702.551 7.1907 703.171 10.3007 701.641 12.6007C700.681 14.0407 699.091 14.8307 697.481 14.8307C696.531 14.8307 695.561 14.5607 694.711 13.9907Z" fill="black"/>
<path d="M695.98 14.8401L695.35 14.4101C693.05 12.8801 692.43 9.78008 693.96 7.48008C695.49 5.18008 698.59 4.56008 700.89 6.09008L701.53 6.51008C703.82 8.04008 704.45 11.1501 702.92 13.4501C701.95 14.8901 700.37 15.6801 698.75 15.6801C697.8 15.6801 696.84 15.4001 695.98 14.8401Z" fill="black"/>
<path d="M696.86 15.5903C696.86 15.5903 696.54 15.3103 696.28 15.1003C694.16 13.3303 693.87 10.1803 695.64 8.05029C697.41 5.93029 700.56 5.65029 702.68 7.41029C703.02 7.69029 703.3 7.93029 703.52 8.13029C705.58 9.97029 705.76 13.1303 703.92 15.1903C702.93 16.3003 701.57 16.8603 700.19 16.8603C699.01 16.8603 697.82 16.4403 696.86 15.5903Z" fill="black"/>
<path d="M699.24 18.8902C698.02 16.4102 699.03 13.4102 701.51 12.1902C703.99 10.9702 706.99 11.9802 708.21 14.4602C709.43 16.9302 708.42 19.9302 705.94 21.1602C705.23 21.5102 704.48 21.6702 703.73 21.6702C701.89 21.6702 700.12 20.6502 699.24 18.8902Z" fill="black"/>
<path d="M700.04 21.6399C699.6 18.9199 701.46 16.3499 704.19 15.9199C706.91 15.4799 709.48 17.3399 709.91 20.0599C710.35 22.7899 708.49 25.3499 705.77 25.7899C705.5 25.8299 705.23 25.8499 704.97 25.8499C702.56 25.8499 700.43 24.0999 700.04 21.6399Z" fill="black"/>
<path d="M699.77 22.4208C699.42 20.5708 700.15 18.7608 701.51 17.6408C702.78 16.4308 704.64 15.9208 706.43 16.4708C709.07 17.2808 710.56 20.0808 709.75 22.7208C709.55 23.3908 709.12 24.2708 708.33 25.0208C707.56 25.7808 706.49 26.2708 705.6 26.4208C705.29 26.4808 704.98 26.5008 704.68 26.5008C702.32 26.5008 700.22 24.8308 699.77 22.4208Z" fill="black"/>
<path d="M698.24 22.6801C697.75 19.9701 699.54 17.3601 702.26 16.8701L703.02 16.7201C705.74 16.2301 708.34 18.0301 708.84 20.7401C709.34 23.4601 707.54 26.0601 704.83 26.5601L704.06 26.7001C703.76 26.7601 703.46 26.7801 703.16 26.7801C700.79 26.7801 698.69 25.1001 698.24 22.6801Z" fill="black"/>
<path d="M690.2 24.4002C689.66 21.7002 691.41 19.0602 694.12 18.5102C696.82 17.9602 699.46 19.7102 700.01 22.4202C700.55 25.1302 698.8 27.7702 696.09 28.3102C695.76 28.3802 695.43 28.4102 695.1 28.4102C692.77 28.4102 690.68 26.7702 690.2 24.4002Z" fill="black"/>
<path d="M688.65 24.7802C688.08 22.0802 689.8 19.4302 692.5 18.8502L693.28 18.6902C695.98 18.1102 698.64 19.8402 699.21 22.5402C699.79 25.2402 698.06 27.9002 695.36 28.4702L694.58 28.6402C694.23 28.7102 693.88 28.7402 693.54 28.7402C691.23 28.7402 689.15 27.1302 688.65 24.7802Z" fill="black"/>
<path d="M688.22 23.7102C687.1 21.1902 688.22 18.2302 690.76 17.1102C693.28 15.9902 696.23 17.1202 697.36 19.6402C698.48 22.1602 697.36 25.1202 694.83 26.2402C694.17 26.5402 693.47 26.6802 692.8 26.6802C690.88 26.6802 689.05 25.5702 688.22 23.7102Z" fill="black"/>
<path d="M686.84 22.4701C684.37 21.2301 683.37 18.2301 684.6 15.7601C685.84 13.2901 688.84 12.2901 691.31 13.5201C693.78 14.7601 694.78 17.7601 693.55 20.2301C692.67 21.9801 690.91 23.0001 689.07 23.0001C688.32 23.0001 687.56 22.8301 686.84 22.4701Z" fill="black"/>
<path d="M686.97 22.5201C686.97 22.5201 686.76 22.4701 686.46 22.4101C683.75 21.8801 681.99 19.2401 682.53 16.5301C683.07 13.8301 685.7 12.0701 688.41 12.6101C688.7 12.6601 689.08 12.7401 689.57 12.8701C692.24 13.5901 693.82 16.3301 693.1 19.0001C692.5 21.2301 690.48 22.7001 688.28 22.7001C687.85 22.7001 687.41 22.6401 686.97 22.5201Z" fill="black"/>
<path d="M680.51 17.2607C680.51 14.5007 682.75 12.2607 685.51 12.2607C688.27 12.2607 690.51 14.5007 690.51 17.2607C690.51 20.0207 688.27 22.2607 685.51 22.2607C682.75 22.2607 680.51 20.0207 680.51 17.2607Z" fill="black"/>
<path d="M679.38 18.4207C678.78 15.7207 680.48 13.0507 683.17 12.4507C683.9 12.2907 684.39 12.2907 684.74 12.2707C687.5 12.1907 689.8 14.3607 689.88 17.1207C689.96 19.8707 687.81 22.1607 685.07 22.2707C684.8 22.3107 684.52 22.3307 684.25 22.3307C681.96 22.3307 679.89 20.7507 679.38 18.4207Z" fill="black"/>
<path d="M677.94 18.7003C677.36 16.0003 679.07 13.3403 681.77 12.7603L682.48 12.6003C685.18 12.0203 687.84 13.7303 688.43 16.4303C689.01 19.1303 687.3 21.7903 684.6 22.3703L683.89 22.5303C683.53 22.6103 683.18 22.6403 682.82 22.6403C680.52 22.6403 678.45 21.0403 677.94 18.7003Z" fill="black"/>
<path d="M676.45 21.9306C674.79 19.7206 675.24 16.5806 677.45 14.9306C679.66 13.2706 682.8 13.7206 684.45 15.9306C686.11 18.1406 685.66 21.2806 683.45 22.9306C682.55 23.6106 681.5 23.9306 680.46 23.9306C678.93 23.9306 677.43 23.2406 676.45 21.9306Z" fill="black"/>
<path d="M673.92 22.4002C673.84 19.6402 676.01 17.3402 678.77 17.2502C681.53 17.1702 683.83 19.3402 683.92 22.1002C684 24.8602 681.83 27.1702 679.07 27.2502H678.91C676.22 27.2502 674 25.1102 673.92 22.4002Z" fill="black"/>
<path d="M676.29 28.1899C674.37 26.1899 674.44 23.0299 676.43 21.1199C678.42 19.1999 681.58 19.2599 683.5 21.2499C685.41 23.2499 685.35 26.4099 683.36 28.3299C682.39 29.2599 681.14 29.7199 679.89 29.7199C678.58 29.7199 677.27 29.2099 676.29 28.1899Z" fill="black"/>
<path d="M680.21 30.77C677.64 29.75 676.4 26.84 677.43 24.27C678.45 21.71 681.36 20.46 683.93 21.49C686.49 22.52 687.74 25.43 686.71 27.99C685.93 29.95 684.05 31.13 682.07 31.13C681.45 31.13 680.82 31.02 680.21 30.77Z" fill="black"/>
<path d="M683.491 31.8401C680.811 31.1901 679.161 28.4901 679.811 25.8001C680.461 23.1201 683.161 21.4701 685.851 22.1201C688.531 22.7701 690.181 25.4701 689.531 28.1601C688.971 30.4501 686.931 31.9801 684.671 31.9801C684.281 31.9801 683.891 31.9401 683.491 31.8401Z" fill="black"/>
<path d="M685.14 32.2403L684.32 32.0403C681.63 31.3903 679.98 28.6903 680.63 26.0003C681.28 23.3203 683.98 21.6703 686.67 22.3203L687.49 22.5203C690.17 23.1703 691.82 25.8703 691.17 28.5503C690.62 30.8403 688.57 32.3803 686.32 32.3803C685.93 32.3803 685.53 32.3303 685.14 32.2403Z" fill="black"/>
<path d="M688.43 32.9006C685.71 32.4406 683.87 29.8706 684.33 27.1406C684.78 24.4206 687.36 22.5806 690.08 23.0306C692.8 23.4906 694.64 26.0706 694.19 28.7906C693.78 31.2406 691.66 32.9706 689.26 32.9706C688.99 32.9706 688.71 32.9406 688.43 32.9006Z" fill="black"/>
<path d="M691.22 33.3702C688.5 32.9102 686.66 30.3302 687.12 27.6102C687.59 24.8802 690.17 23.0502 692.89 23.5102C695.61 23.9702 697.45 26.5502 696.98 29.2802C696.57 31.7202 694.45 33.4402 692.06 33.4402C691.78 33.4402 691.5 33.4202 691.22 33.3702Z" fill="black"/>
<path d="M697.85 35.9706C695.53 34.4606 694.88 31.3606 696.39 29.0506C697.9 26.7406 701 26.0906 703.31 27.6006C705.62 29.1006 706.28 32.2006 704.77 34.5106C703.81 35.9806 702.21 36.7806 700.57 36.7806C699.64 36.7806 698.69 36.5206 697.85 35.9706Z" fill="black"/>
<path d="M699.13 37.1006C697.23 35.0906 697.33 31.9306 699.33 30.0306C701.34 28.1406 704.51 28.2306 706.4 30.2406C708.3 32.2406 708.21 35.4106 706.2 37.3106C705.23 38.2206 704 38.6706 702.77 38.6706C701.44 38.6706 700.12 38.1406 699.13 37.1006Z" fill="black"/>
<path d="M699.73 37.73C699.73 37.73 699.68 37.67 699.62 37.61C697.72 35.61 697.8 32.45 699.8 30.54C701.81 28.64 704.97 28.72 706.87 30.73C707.08 30.95 707.37 31.26 707.68 31.66C709.36 33.86 708.93 37 706.74 38.67C705.83 39.36 704.77 39.7 703.71 39.7C702.2 39.7 700.71 39.02 699.73 37.73Z" fill="black"/>
<path d="M701.5 41.9305C701.06 39.2005 702.92 36.6305 705.65 36.2005C708.37 35.7605 710.94 37.6105 711.37 40.3405C711.81 43.0705 709.96 45.6305 707.23 46.0705C706.96 46.1105 706.7 46.1305 706.43 46.1305C704.02 46.1305 701.9 44.3805 701.5 41.9305Z" fill="black"/>
<path d="M701.721 43.2802L701.611 42.6002C701.181 39.8702 703.041 37.3102 705.771 36.8802C708.491 36.4502 711.051 38.3102 711.491 41.0302L711.591 41.7202C712.031 44.4402 710.161 47.0102 707.441 47.4402C707.171 47.4802 706.911 47.5002 706.651 47.5002C704.231 47.5002 702.111 45.7402 701.721 43.2802Z" fill="black"/>
<path d="M706.67 50.29C703.92 50.29 701.68 48.06 701.67 45.31V42.52C701.65 39.76 703.88 37.51 706.64 37.5H706.66C709.41 37.5 711.65 39.73 711.66 42.48V45.27C711.68 48.03 709.45 50.28 706.69 50.29H706.67Z" fill="black"/>
<path d="M563.83 30.2803C563.83 27.5203 566.07 25.2803 568.83 25.2803C571.59 25.2803 573.83 27.5203 573.83 30.2803C573.83 33.0403 571.59 35.2803 568.83 35.2803C566.07 35.2803 563.83 33.0403 563.83 30.2803Z" fill="black"/>
<path d="M566.48 34.4501C564.73 33.6701 563.521 31.9201 563.521 29.8801C563.521 27.1201 565.761 24.8901 568.521 24.8901C569.191 24.8801 570.051 25.0201 570.901 25.4401C571.761 25.8601 572.52 26.5801 572.97 27.2901C574.47 29.6101 573.8 32.7101 571.48 34.2101C570.64 34.7501 569.701 35.0001 568.771 35.0001C567.981 35.0001 567.19 34.8101 566.48 34.4501Z" fill="black"/>
<path d="M550.44 29.8906C550.44 27.1206 552.67 24.8906 555.44 24.8906C558.2 24.8906 560.44 27.1206 560.44 29.8906C560.44 32.6506 558.2 34.8906 555.44 34.8906C552.67 34.8906 550.44 32.6506 550.44 29.8906Z" fill="black"/>
<path d="M549.97 30.2203C549.97 29.5103 550.12 28.5603 550.63 27.6303C551.13 26.6903 551.98 25.9403 552.72 25.5503C555.14 24.2303 558.18 25.1203 559.5 27.5403C560.35 29.0903 560.29 30.9003 559.5 32.3403C558.71 34.0403 556.98 35.2203 554.97 35.2203C552.21 35.2203 549.97 32.9803 549.97 30.2203Z" fill="black"/>
<path d="M549.97 55.8203C549.97 53.0503 552.21 50.8203 554.97 50.8203C557.74 50.8203 559.97 53.0503 559.97 55.8203C559.97 58.5803 557.74 60.8203 554.97 60.8203C552.21 60.8203 549.97 58.5803 549.97 55.8203Z" fill="black"/>
<path d="M554.35 62.0503C551.59 62.0503 549.35 59.8103 549.35 57.0503C549.35 55.2603 550.3 53.6903 551.72 52.8003C553.07 51.6503 554.99 51.2603 556.76 51.9403C559.34 52.9403 560.62 55.8303 559.63 58.4103C559.34 59.1603 558.82 60.0603 557.87 60.8303C556.95 61.5903 555.61 62.0503 554.44 62.0503H554.35Z" fill="black"/>
<path d="M511.22 57.0498C511.22 54.2898 513.46 52.0498 516.22 52.0498C518.98 52.0498 521.22 54.2898 521.22 57.0498C521.22 59.8098 518.98 62.0498 516.22 62.0498C513.46 62.0498 511.22 59.8098 511.22 57.0498Z" fill="black"/>
<path d="M512.081 60.5606C510.241 58.4906 510.431 55.3306 512.501 53.5006C512.721 53.3006 513.101 52.9806 513.741 52.6506C516.201 51.4006 519.211 52.3906 520.461 54.8506C521.611 57.1206 520.861 59.8706 518.801 61.2606C517.911 61.9206 516.861 62.2406 515.821 62.2406C514.441 62.2406 513.061 61.6706 512.081 60.5606Z" fill="black"/>
<path d="M510.82 83.5898C510.82 80.8298 513.05 78.5898 515.82 78.5898C518.58 78.5898 520.82 80.8298 520.82 83.5898C520.82 86.3498 518.58 88.5898 515.82 88.5898C513.05 88.5898 510.82 86.3498 510.82 83.5898Z" fill="black"/>
<path d="M512.14 113.42C510.34 111.33 510.58 108.17 512.67 106.37C514.26 105 516.47 104.81 518.22 105.71C519.95 106.5 521.15 108.24 521.15 110.26C521.15 113.02 518.91 115.26 516.15 115.26C516.15 115.26 516.04 115.27 515.99 115.27C514.46 115.27 512.78 114.27 512.14 113.42Z" fill="black"/>
<path d="M537.66 110.261C537.66 107.501 539.9 105.261 542.66 105.261C545.42 105.261 547.66 107.501 547.66 110.261C547.66 113.021 545.42 115.261 542.66 115.261C539.9 115.261 537.66 113.021 537.66 110.261Z" fill="black"/>
<path d="M564.17 83.6699C564.17 80.9099 566.41 78.6699 569.17 78.6699C571.93 78.6699 574.17 80.9099 574.17 83.6699C574.17 86.4299 571.93 88.6699 569.17 88.6699C566.41 88.6699 564.17 86.4299 564.17 83.6699Z" fill="black"/>
<path d="M568.5 61.0506C565.74 60.8606 563.66 58.4806 563.84 55.7206C564.03 52.9706 566.41 50.8806 569.17 51.0706C571.92 51.2606 574.01 53.6406 573.82 56.4006C573.64 59.0306 571.45 61.0606 568.84 61.0606C568.72 61.0606 568.61 61.0506 568.5 61.0506Z" fill="black"/>
<path d="M524.43 83.6104C524.43 80.8504 526.66 78.6104 529.43 78.6104C532.19 78.6104 534.43 80.8504 534.43 83.6104C534.43 86.3704 532.19 88.6104 529.43 88.6104C526.66 88.6104 524.43 86.3704 524.43 83.6104Z" fill="black"/>
<path d="M537.22 70.8301C537.22 68.0701 539.45 65.8301 542.22 65.8301C544.98 65.8301 547.22 68.0701 547.22 70.8301C547.22 73.5901 544.98 75.8301 542.22 75.8301C539.45 75.8301 537.22 73.5901 537.22 70.8301Z" fill="black"/>
<path d="M550.01 83.6104C550.01 80.8504 552.25 78.6104 555.01 78.6104C557.77 78.6104 560.01 80.8504 560.01 83.6104C560.01 86.3704 557.77 88.6104 555.01 88.6104C552.25 88.6104 550.01 86.3704 550.01 83.6104Z" fill="black"/>
<path d="M537.22 96.4004C537.22 93.6404 539.45 91.4004 542.22 91.4004C544.98 91.4004 547.22 93.6404 547.22 96.4004C547.22 99.1604 544.98 101.4 542.22 101.4C539.45 101.4 537.22 99.1604 537.22 96.4004Z" fill="black"/>
</g>
</g>
<defs>
<clipPath id="clip0_2559_5692">
<rect width="711.67" height="163.92" fill="white"/>
</clipPath>
</defs>
</svg>
