<svg width="248" height="51" viewBox="0 0 248 51" fill="none" xmlns="http://www.w3.org/2000/svg">
<g clip-path="url(#clip0_2554_8134)">
<mask id="mask0_2554_8134" style="mask-type:luminance" maskUnits="userSpaceOnUse" x="0" y="0" width="248" height="51">
<path d="M247.05 0H0V50.63H247.05V0Z" fill="white"/>
</mask>
<g mask="url(#mask0_2554_8134)">
<path d="M222.15 18.3096C222.11 18.8596 221.66 19.0496 221.24 18.9996C220.16 18.8896 219.23 19.1896 218.31 19.6096C217.57 19.9396 217.1 20.3496 216.65 21.0296L215.8 22.3196C215.38 22.9696 215.22 23.6596 214.91 24.3696L214.28 25.7796L213.2 28.6996L212.61 29.9696L211.7 32.1896L211.07 33.7696L209.95 36.5796L209.01 38.9496L208.11 41.0896L207.49 42.5396L206.75 44.3996C206.43 45.1996 206.12 45.9196 205.87 46.7496C205.79 47.0096 205.12 48.5196 204.85 48.5196C204.76 48.5196 204.58 48.4096 204.53 48.3296C203.5 46.6796 204.06 47.0796 203.41 45.7996C203.19 45.3696 202.97 44.9596 202.85 44.4996C202.67 43.7996 202.34 43.1896 202.07 42.5296L201.1 40.1196C200.88 39.5796 200.66 39.0896 200.4 38.5796C200.18 38.1296 200.13 37.5496 199.89 37.1196C199.53 36.4896 199.29 35.9296 199.1 35.2196C199 34.8396 198.72 34.4496 198.59 34.0796C198.27 33.1796 197.95 32.3196 197.56 31.4496L196.72 29.5196C196.5 29.0296 196.41 28.4296 196.13 27.9596C195.84 27.4796 195.67 27.0296 195.54 26.4896C195.42 25.9496 195.07 25.5296 194.88 25.0196L194.28 23.3896L193.58 21.9296C193.36 21.4496 193.07 20.9596 192.77 20.5196C191.99 19.3896 190.41 18.9996 189.11 19.0096C188.58 19.0196 188.22 18.7196 188.2 18.2496C188.17 17.7496 188.46 17.4496 189.01 17.3496C189.19 17.3196 189.46 17.3896 189.68 17.3896H202.29C202.68 17.3996 203.02 17.7996 203.05 18.0596C203.08 18.3596 202.91 18.8696 202.52 18.9396C200.54 19.2896 200.08 18.7196 198.65 19.5896C198 19.9996 197.59 20.4896 197.66 21.3296C197.85 23.3296 198.75 24.4496 198.89 25.1596C199 25.7196 199.27 26.1296 199.47 26.6396L200.53 29.3196L201.01 30.5596L201.9 32.7996C202.11 33.3196 202.38 33.7796 202.5 34.3296C202.64 34.9896 203 35.5396 203.23 36.1696L203.73 37.5496C203.92 38.0696 204.18 38.5396 204.35 39.0596C204.52 39.5696 204.73 40.0196 204.94 40.5096C205.14 40.9896 205.31 41.8196 205.77 41.8696C206.26 41.9196 206.55 40.8196 206.69 40.5296C207.08 39.6896 207.38 38.8596 207.72 37.9796L208.52 35.9296L209.45 33.7496C209.66 33.2696 209.88 32.8496 209.99 32.3296C210.09 31.8796 210.32 31.4796 210.5 31.0696L211.72 28.0996L212.62 25.7896C213.27 24.1196 213.37 24.6196 213.73 22.8596C213.91 21.9896 213.96 20.6096 213.23 20.0296C212.38 19.3596 211.31 19.1196 210.25 18.9996C209.32 18.8996 208.33 19.1696 207.99 18.4996C207.86 18.2496 207.98 17.7796 208.17 17.6296C208.69 17.2196 209.2 17.3396 209.77 17.3396L221.53 17.3896C221.98 17.3896 222.18 17.9596 222.17 18.2796" fill="#90BEFB"/>
<path d="M173.27 38.5498C173.1 39.7398 172.92 40.8898 172.4 41.9698C172.4 42.6998 171.97 43.2298 171.68 43.8298C171.44 44.3398 171.27 44.8798 170.92 45.3098C170.35 46.0098 169.82 46.6898 169.09 47.2798C166.93 49.0098 167.97 48.0898 165.94 48.8898C165.05 49.2498 164.09 49.2098 163.13 49.2198C162.21 49.2198 161.37 48.8998 160.5 48.6498C159.9 48.4698 159.39 48.2898 158.89 47.9298C157.72 47.0998 157.08 46.4298 156.4 45.1398C156.13 44.6198 155.91 44.1098 155.78 43.5298L155.39 41.6398L155.29 40.5798C155.27 40.3398 155.19 40.0198 155.19 39.7598V24.5998C155.21 23.9698 155.33 23.3798 155.26 22.7598C155.05 21.0398 155.35 21.4498 155.24 20.3798C155.19 19.9298 154.86 19.2198 154.28 19.2198H148.86C148.7 19.2198 147.24 19.5498 147.06 18.6098C147.01 18.3398 147.18 17.8998 147.53 17.8898L149.71 17.8298L150.83 17.7198C151.57 17.6398 152.27 17.5298 152.85 17.0398C153.56 16.4498 153.18 17.3698 154.99 15.1698C155.49 14.5598 155.78 13.9098 156.04 13.1698C156.2 12.7298 156.46 12.2998 156.55 11.8298C156.67 11.1898 156.78 10.5598 156.84 9.90978L157.02 8.03978L157.12 6.61978L157.16 4.04978C157.16 3.71978 157.55 3.46978 157.81 3.47978C158.03 3.48978 158.44 3.76978 158.45 4.10978C158.51 5.85978 158.45 7.56978 158.44 9.35978L158.4 16.7798C158.4 17.2598 158.86 17.8398 159.4 17.8398L170.42 17.8598C170.66 17.8598 170.96 18.1798 170.99 18.3598C171.02 18.5598 170.83 18.8898 170.65 19.0198C170.08 19.4598 169.47 19.1998 168.82 19.1998H159.58C158.97 19.1998 158.4 19.7398 158.4 20.3798V38.7698C158.4 39.0598 158.48 39.3998 158.52 39.6698L158.79 41.6998C158.86 42.1998 158.96 42.7098 159.21 43.1398L159.72 43.9998C160.24 44.8698 161.08 45.6798 162.03 46.1098C163.45 46.7498 165.02 46.5698 166.5 46.4198C167.26 46.3398 167.77 46.0798 168.36 45.6398C168.74 45.3598 169.15 45.0898 169.49 44.7298C169.92 44.2798 170.76 43.2498 170.99 42.7598L171.44 41.7698C171.6 41.4198 171.78 41.0898 171.87 40.6998C172.03 39.9998 172.21 39.3698 172.42 38.6598C172.52 38.2998 172.5 37.0798 172.98 37.2098C173.67 37.3998 173.26 38.5098 173.25 38.5898" fill="#90BEFB"/>
<path d="M190.44 48.8198L176.28 48.8698C175.7 48.8698 175.29 48.8198 175.12 48.1998C175.02 47.7998 175.38 47.1898 175.93 47.1798L177.79 47.1498C178.59 47.1398 179.27 46.7598 179.93 46.3598C180.48 46.0298 180.77 45.4498 181.04 44.8798C181.24 44.4598 181.4 44.0798 181.36 43.5498C181.33 43.2498 181.44 42.9498 181.44 42.6898L181.42 25.6598C181.42 24.9998 181.36 24.3898 181.32 23.7498C181.27 23.1298 180.94 22.4798 180.68 21.9298C180.32 21.1698 179.35 20.9898 178.6 21.0198C177.09 21.0898 177.29 21.5498 176.2 21.6698C175.61 21.7298 175.37 21.1898 175.38 20.7098C175.39 20.1598 175.64 19.8098 176.17 19.6898C177.02 19.4998 177.8 19.1598 178.62 18.8498L181.74 17.6998C182.39 17.4598 182.99 17.3298 183.6 16.9498C183.83 16.7998 184.31 16.6998 184.53 16.8198C184.99 17.0698 185.07 17.5598 184.94 18.0398V43.3198C184.94 44.1598 185.13 44.7198 185.55 45.3898C185.97 46.0698 186.41 46.5398 187.21 46.7898C187.8 46.9798 188.42 47.2398 189.09 47.1998L190.2 47.1398C190.7 47.1198 191.12 47.4098 191.19 47.8198C191.25 48.1498 191 48.8198 190.46 48.8198" fill="#90BEFB"/>
<path d="M185.91 6.96999C185.75 8.26999 184.87 9.27999 183.6 9.58999L182.9 9.75999C182.62 9.82999 182.31 9.78999 182.04 9.75999C180.95 9.62999 180.24 9.41999 179.57 8.52999C179.3 8.15999 178.88 7.73999 178.85 7.22999C178.82 6.57999 178.78 5.91999 178.86 5.26999C179.13 3.13999 182.1 1.79999 183.92 2.85999C184.44 3.15999 185.01 3.51999 185.37 3.98999C186.03 4.84999 186.03 5.93999 185.9 6.96999" fill="#90BEFB"/>
<path d="M225.45 25.8803L225.8 24.6103C225.93 24.1403 225.98 23.5803 226.21 23.1603C226.45 22.7303 226.71 22.3403 226.91 21.9003C227.25 21.1303 228.07 20.0403 228.73 19.5003C230.62 17.9803 230.73 18.1303 233.11 17.4803C234.42 17.1303 235.57 17.6803 236.53 17.9403C237.14 18.1003 237.56 18.3303 238.02 18.7103C238.71 19.2803 239.25 19.9103 239.76 20.6403C240.27 21.3703 240.6 22.0903 240.86 22.9503C241.07 23.6403 241.37 24.2903 241.43 25.0403L241.51 25.9303C241.57 26.6503 241.75 27.7103 241.31 28.1903C241.11 28.4203 240.76 28.5103 240.41 28.5103L230.45 28.4903H229.74C228.62 28.4603 225.47 28.8103 225.22 27.9203C225.02 27.2203 225.25 26.5303 225.44 25.8503M246.52 36.3903C246.16 36.3003 245.9 36.5703 245.77 36.9503C245.59 37.5203 244.89 39.3403 244.65 39.7103L243.71 41.1803C243.14 42.0703 242.39 42.7803 241.59 43.4303C239.94 44.7803 237.98 45.4403 235.85 45.4003C234.51 45.3703 233.24 45.1703 232.04 44.5403C231.59 44.3103 231.32 44.5203 230.4 43.7803C229.76 43.2703 229.09 42.7803 228.58 42.1203L228.07 41.4603C227.71 40.9903 227.39 40.5003 227.04 39.9903C226.86 39.7203 226.73 39.3403 226.58 39.0203C226.32 38.4603 226.06 37.9003 225.92 37.2903L225.25 34.3903C225.09 33.6803 225.05 33.0003 225.02 32.2603C225 31.7203 224.83 31.0403 225.22 30.5603C225.61 30.0803 226.35 30.0603 226.93 30.2103H238.14C238.71 30.0603 239.2 30.1303 239.77 30.1903C240 30.2103 240.34 30.1403 240.59 30.1403L245.83 30.1203C246.31 30.1203 246.6 29.5803 246.56 29.1503C246.48 28.4503 246.43 27.8003 246.32 27.1303C246.13 26.0403 245.8 24.4203 245.39 23.4303C244.6 21.5203 244.7 21.7403 243.62 20.1903C243.24 19.6503 242.7 19.1303 242.18 18.7203L240.83 17.6603C240.56 17.4403 240.07 17.3603 239.78 17.1903C239.18 16.8403 238.6 16.6703 237.93 16.5203L236.42 16.1903C235.47 15.9803 234.44 15.8603 233.43 15.9803C232.1 16.1303 230.79 16.4303 229.54 16.9003C228.8 17.1803 228.1 17.5903 227.42 17.9803C226.44 18.5303 225.3 19.6303 224.56 20.4803C224.2 20.8903 223.76 21.2503 223.51 21.7303C223.24 22.2303 222.89 22.6103 222.66 23.1203L222.09 24.4103C221.9 24.8303 221.66 25.1503 221.58 25.6003C221.29 27.2503 220.87 26.6003 220.63 30.0003L220.53 31.4203C220.46 32.3703 220.44 33.3403 220.53 34.3103L220.6 35.3003C220.63 35.6203 220.65 35.9603 220.7 36.2703L220.89 37.4803C220.98 38.0303 221.13 38.5503 221.34 39.0803L222.1 40.9003C222.88 42.7703 223.97 44.1403 225.5 45.4603C225.79 45.7103 226.07 45.9603 226.39 46.1603L227.11 46.6103C227.51 46.8603 228.05 46.9803 228.47 47.2103C228.97 47.4703 229.46 47.7203 230.02 47.8103L231.96 48.1103C233.31 48.3203 234.84 48.3503 236.19 48.0603C236.91 47.9003 237.69 47.8503 238.36 47.5403C239.05 47.2203 239.74 46.9303 240.38 46.5203C242.37 45.2703 243.89 43.5203 245.09 41.5203C245.73 40.4503 246.07 39.6703 246.49 38.5303L246.99 37.1803C247.12 36.8403 246.76 36.4603 246.49 36.4003" fill="#90BEFB"/>
<path d="M98.5698 28.3401C98.6398 27.9101 98.6398 27.5001 98.7898 27.1001L99.3798 25.5801C99.9798 24.0201 100.26 23.5001 101.38 22.2101C101.86 21.6501 102.39 21.2101 102.98 20.7701C103.54 20.3701 104.03 20.1301 104.72 19.9901C105.36 19.8601 105.97 19.4801 106.64 19.4501C109.13 19.3501 108.45 19.6601 110 20.0001C111.02 20.2201 112.21 21.2801 112.85 22.0701C113.58 22.9601 113.25 22.8001 113.8 23.7101C114 24.0301 114.27 24.3701 114.34 24.7501C114.74 26.8701 114.88 25.9501 115.23 28.8101C115.3 29.3601 115.39 29.8701 115.08 30.3901C114.96 30.5801 114.59 30.8601 114.31 30.8601H99.1598C98.8998 30.8601 98.5198 30.4301 98.4698 30.2001C98.3598 29.6101 98.4698 28.9201 98.5598 28.3501M120.02 38.7501C119.93 38.6901 119.64 38.6801 119.56 38.7501C119.25 39.0201 119.14 39.4701 119.06 39.8501C118.95 40.4501 118.67 40.9101 118.4 41.4201C118.04 42.1101 117.72 42.7801 117.22 43.4201L116.11 44.8501C115.72 45.3501 115.24 45.6401 114.72 45.9901C114.25 46.3101 113.83 46.6401 113.31 46.8901C112.73 47.1701 112.2 47.4101 111.55 47.5301C110.2 47.7901 107.27 47.8101 106.02 47.2301C105.08 46.8001 104.64 46.6801 103.92 46.2001L102.8 45.4501C102.2 45.0501 100.97 43.3701 100.53 42.6501C100.25 42.2001 100.02 41.7401 99.7698 41.2701C99.4798 40.7101 99.4198 40.0201 99.1598 39.4701C98.7798 38.6501 98.6498 37.8901 98.5498 37.0001L98.3798 35.5101L98.3098 34.6801L98.2198 33.5201C98.1698 32.8601 98.5998 32.2001 99.3398 32.2001H105.44H106.12L115.27 32.1501C115.72 32.1501 116.1 32.1101 116.54 32.1501C117.23 32.2001 119.01 32.3201 119.46 31.9301C119.88 31.5701 119.69 31.0401 119.63 30.6201L119.06 26.9001C118.73 26.1901 118.51 25.4901 118.23 24.7601C118.04 24.2701 117.69 23.8101 117.42 23.3301C117 22.5901 115.87 21.2401 115.19 20.7801L114.12 20.0601C113.89 19.9101 113.6 19.7901 113.36 19.6601C112.24 19.0701 111.1 18.7901 109.85 18.5901C108.16 18.3201 106.44 18.1801 104.79 18.7701C103.9 18.8101 103.16 19.1801 102.37 19.5301C101.38 19.9501 100.37 20.5901 99.5698 21.2901C98.3198 22.3801 98.0898 22.6701 97.0998 24.0001L96.6398 24.6101L96.0998 25.7401C95.8798 26.1901 95.5498 26.5101 95.4598 27.0101C95.3598 27.5801 95.0898 28.0901 94.8698 28.6301C94.6098 29.3001 94.5798 30.0201 94.4598 30.7301C94.3298 31.4801 94.1198 32.2101 94.0598 32.9701L93.9898 33.8801C93.9398 34.5301 93.9498 36.5101 94.0598 37.0801C94.6198 39.9301 94.4798 40.5201 95.6898 43.2201C95.9298 43.7601 96.2598 44.3101 96.5798 44.8201C96.9798 45.4701 98.0298 46.6001 98.5998 47.1501C99.0698 47.6101 99.4998 47.9801 100.08 48.2801C100.31 48.4001 100.58 48.6401 100.83 48.7501L102.75 49.5801C104.06 50.1401 106.86 50.3001 108.42 50.2501C108.91 50.2301 109.43 50.0701 109.92 49.9901C114.33 49.3101 117.75 45.4701 119.4 41.5201C119.64 40.9501 120.62 39.1501 120.01 38.7401" fill="#90BEFB"/>
<path d="M148.831 39.7402L147.911 41.8602C147.321 43.2102 146.441 44.3802 145.541 45.5302C145.001 46.2202 144.391 46.7402 143.711 47.2902C143.361 47.5702 143.031 47.9502 142.611 48.1302C142.101 48.3502 141.671 48.5802 141.211 48.8902C140.701 49.2402 140.071 49.3002 139.471 49.4702C138.801 49.6602 138.131 49.9802 137.411 49.9902L134.491 50.0302C133.321 49.4802 132.061 49.3302 130.871 48.9002C129.901 48.5502 129.111 47.8502 128.201 47.4002C126.491 46.0502 125.871 45.1702 124.731 43.3802C124.411 42.8802 124.231 42.3802 124.071 41.7802C123.981 41.4202 123.711 41.0502 123.581 40.6902C123.261 39.7602 123.201 38.8002 123.021 37.8402C122.631 35.7602 122.511 34.0302 122.861 31.9302L123.391 28.7702C123.421 28.5602 123.481 28.2202 123.551 28.0402L124.381 25.7302C124.491 25.4202 124.821 25.0702 125.011 24.7802L125.891 23.4202L126.681 22.2502C126.921 21.8902 127.171 21.5602 127.521 21.3002C129.001 20.2202 128.541 20.1202 130.461 19.1702C130.791 19.0102 131.141 18.9002 131.421 18.7002C131.931 18.3402 132.431 18.2302 133.011 18.1302C134.171 17.9302 135.811 17.5302 136.941 17.7002L138.951 18.0002C139.501 18.0802 140.081 18.1002 140.611 18.2402C141.191 18.4102 141.721 18.7502 142.291 18.9502C143.471 19.3602 144.821 20.4502 145.641 21.4102C146.761 22.7302 146.801 22.8802 147.491 24.3802C147.891 25.2502 148.001 26.0702 148.001 27.0102C148.001 27.7302 147.861 28.1602 147.351 28.6302C146.431 29.5002 145.201 29.6902 144.081 29.0302C143.501 28.6902 143.021 28.3102 142.761 27.6602C141.611 24.8702 142.921 24.7702 142.241 22.2602C142.051 21.5602 141.721 21.0702 141.241 20.5602C140.741 20.0302 140.201 19.8002 139.501 19.5902C138.581 19.3102 137.721 19.1102 136.731 19.1502C136.031 19.1802 135.381 19.2102 134.711 19.3602C132.761 19.8102 131.281 20.7402 129.881 22.1402C128.961 23.0602 129.241 23.0702 128.541 24.4502L127.701 26.1102C127.411 26.6802 127.341 27.3502 127.251 27.9902L127.001 29.9502C126.891 30.8102 126.861 32.2102 126.931 33.0402L127.201 35.9602C127.301 37.1102 127.521 38.1602 127.941 39.2302C128.191 39.8602 128.361 40.5002 128.681 41.0802L129.191 42.0202C129.491 42.5702 129.871 43.2002 130.291 43.6402L131.301 44.7102C131.511 44.9302 131.971 45.0902 132.191 45.3002C132.631 45.7102 133.051 45.9502 133.631 46.1202C134.031 46.2402 134.451 46.5402 134.871 46.6402C136.481 47.0102 137.621 47.0302 139.271 46.9502C140.921 46.8702 141.011 46.5202 141.841 46.1702C142.521 45.8802 143.131 45.5502 143.631 45.0002C144.341 44.7102 145.531 43.1402 145.941 42.4802C146.591 41.4202 147.261 40.3902 147.621 39.1902C147.741 38.8002 147.781 38.3402 148.141 38.1102C148.421 37.9302 148.791 38.1302 148.921 38.4202C149.101 38.8402 148.981 39.3102 148.801 39.7302" fill="#90BEFB"/>
<path d="M93.8698 48.8398L91.2998 48.8798C90.9198 48.8798 90.5998 48.8698 90.2098 48.8698L79.0898 48.8398C78.7198 48.8398 78.4498 48.3598 78.4698 48.0598C78.4898 47.7498 78.8298 47.2798 79.1598 47.2698L81.1298 47.2298C82.1098 47.2098 83.3998 46.5298 84.0198 45.7898C84.4398 45.2798 84.4798 44.6498 84.6898 43.9998V7.96984C84.6898 7.61984 84.5998 7.29984 84.5898 6.94984C84.5498 6.34984 84.3798 5.60984 84.0398 5.14984C83.3198 4.13984 82.0698 3.97984 81.0098 4.42984C80.6198 4.59984 80.1898 4.70984 79.7898 4.80984C79.2398 4.94984 78.8398 4.67984 78.6698 4.18984C78.5298 3.77984 78.7798 3.31984 79.2598 3.12984L81.9898 2.02984C82.1898 1.94984 82.4798 1.89984 82.6798 1.81984L83.7398 1.44984L85.2398 0.829837L87.5498 0.00983683C87.6798 -0.0401632 87.9998 0.0298368 88.0998 0.119837C88.1998 0.219837 88.2498 0.439837 88.2598 0.609837L88.3298 1.52984C88.3598 1.97984 88.3698 2.46984 88.3198 2.91984C88.2298 3.66984 88.3098 4.40984 88.2898 5.12984C88.2798 5.78984 88.2898 6.41984 88.3098 7.06984C88.3798 8.70984 88.3798 10.3498 88.3098 11.9898C88.2798 12.6198 88.2698 13.2098 88.3098 13.8398C88.3798 15.0298 88.3798 16.2298 88.3098 17.4198C88.2798 17.9098 88.2298 18.4098 88.2898 18.8898C88.4598 20.2598 88.1598 20.9198 88.2898 22.7098C88.3198 23.1298 88.3298 23.4698 88.2898 23.8898C88.1598 25.2298 88.4298 25.6998 88.2898 26.4098C88.2198 26.8198 88.2898 27.2098 88.3098 27.6298C88.3598 28.3898 88.3598 29.1698 88.3098 29.9198C88.2098 31.2698 88.4498 31.6598 88.3198 32.5098C88.2098 33.1998 88.3198 33.7998 88.3198 34.4898V42.2398V43.0398C88.3198 43.3198 88.3198 43.5598 88.3198 43.8498C88.3598 44.8498 88.8498 45.8698 89.7098 46.3998C90.1198 46.6498 90.5698 47.0598 91.0598 47.1098L92.0998 47.2098L93.8298 47.2698C94.2998 47.2898 94.5698 47.6498 94.5998 47.9998C94.6398 48.4298 94.3598 48.8198 93.8598 48.8298" fill="#90BEFB"/>
<path d="M77.44 48.0298C77.46 48.3798 77.15 48.8398 76.76 48.8398L74.08 48.8798H73.08L61.81 48.8298C61.38 48.8298 61.29 48.2698 61.29 48.0098C61.29 47.7498 61.53 47.3098 61.91 47.2998L64.05 47.2198C65.16 47.1798 66.2 46.5798 66.87 45.6798C67.23 45.2098 67.37 44.5298 67.47 43.9598C67.62 43.0998 67.38 39.6998 67.5 38.1998C67.66 36.1898 67.29 36.1598 67.54 34.5498V13.4898C67.4 12.7898 67.46 12.1998 67.53 11.5198C67.59 10.9898 67.49 10.4498 67.47 9.91975L67.42 7.77975L67.35 6.76975C67.32 6.31975 67.17 5.73975 66.94 5.34975C66.27 4.20975 64.91 3.92975 63.76 4.43975C63.03 4.75975 61.93 5.17975 61.54 4.34975C61.38 4.00975 61.41 3.44975 61.86 3.23975C63.19 2.61975 64.58 2.18975 65.96 1.65975L67.94 0.879751L70.23 0.0397513C70.37 -0.0102487 70.75 -0.0202487 70.85 0.0797513C70.96 0.209751 71.1 0.529751 71.1 0.749751V44.1798C71.3 44.9898 71.56 45.7498 72.23 46.1998C73.77 47.2598 73.3 47.0898 75.02 47.2198C75.77 47.2698 77.34 47.0298 77.41 48.0198" fill="#90BEFB"/>
<path d="M26.2802 40.0701L25.3302 42.2501C24.2902 44.6401 22.0202 47.5801 19.7102 48.8401L18.1102 49.7101L15.4702 50.4801L14.6302 50.6301H11.7702C11.3202 50.4501 10.8402 50.2301 10.3502 50.1101L8.79023 49.7101C8.22023 49.5701 7.75023 49.3201 7.24023 49.0201L6.33023 48.4901C4.26023 47.2801 3.33023 45.9901 2.07023 44.0101C1.72023 43.4601 1.50023 42.9401 1.37023 42.2701C1.32023 42.0101 1.00023 41.6901 0.920234 41.4201C0.670234 40.5701 0.560234 39.7301 0.410234 38.8601L0.0702344 36.8201C0.0402344 36.6701 0.0202344 36.5201 -0.00976562 36.4601V33.4301L0.560234 30.1701C0.740234 29.1701 0.970234 28.2401 1.34023 27.3001C1.49023 26.9301 1.57023 26.4701 1.79023 26.1501L2.65023 24.8501L3.54023 23.5001L4.28023 22.4701C4.58023 22.0501 5.06023 21.7601 5.44023 21.4101C6.46023 20.4701 6.99023 20.1001 8.32023 19.5401C8.65023 19.4001 9.03023 19.0301 9.39023 18.9401C10.6402 18.6401 13.0102 18.1501 14.2102 18.3201L16.3002 18.6001C17.4302 18.7501 18.3402 18.9501 19.3302 19.4501C19.9702 19.7701 20.6102 20.0001 21.1902 20.4601C21.5102 20.7101 21.9202 20.9201 22.2002 21.2301L23.3802 22.5601C24.2602 23.5501 24.6202 24.6201 25.1002 25.8301C25.3002 26.3401 25.3302 27.4901 25.2802 28.0901C25.2402 28.6401 24.9802 28.9201 24.6302 29.2601C23.7002 30.1601 22.4102 30.3101 21.3202 29.6001C20.9102 29.3401 20.5002 29.1301 20.2702 28.6901C18.9502 26.1801 20.1102 25.2001 19.5702 22.9901C19.4102 22.3201 19.1402 21.8401 18.6802 21.3501C18.3902 21.0501 18.0902 20.6701 17.6502 20.5101C16.8402 20.2201 16.0202 19.9901 15.1602 19.7801C14.8102 19.7001 14.4302 19.7601 14.1002 19.7701C11.3202 19.7801 9.17023 20.7901 7.27023 22.6901C6.85023 23.1101 6.56023 23.4601 6.33023 24.0101C5.27023 26.5001 4.79023 26.3501 4.50023 29.0801L4.22023 31.7101C4.14023 32.4701 4.18023 33.2001 4.26023 33.9601L4.36023 34.9401L4.54023 36.7301C4.60023 37.3101 4.64023 37.9501 4.81023 38.5001C5.09023 39.4201 5.38023 40.3201 5.77023 41.2001C6.43023 42.7001 7.53023 44.5301 8.87023 45.4801L10.1902 46.4201C10.4502 46.6001 10.9102 46.6701 11.2002 46.8301C11.8702 47.2101 12.5202 47.3901 13.2702 47.4801C14.7702 47.6601 16.1602 47.6901 17.6702 47.4401C18.1702 47.3601 18.6102 47.0901 19.0502 46.8701C19.5902 46.6001 20.1102 46.3501 20.5802 45.9901L21.6402 45.1601C21.9802 44.8901 22.2402 44.4401 22.5402 44.1201C22.9302 43.7101 23.1902 43.2401 23.5002 42.7601C24.2402 41.6101 24.8402 40.4201 25.1602 39.0901C25.2502 38.7401 25.5902 38.6401 25.9002 38.7001C26.4702 38.8101 26.3102 39.9501 26.2502 40.0901" fill="#90BEFB"/>
<path d="M56.5799 37.0902C56.5799 37.5802 56.6099 38.1002 56.4499 38.5702C56.1099 39.5702 55.8799 40.5202 55.6799 41.5602C55.5999 41.9902 55.2399 42.4002 55.0799 42.8002C54.5399 44.2102 53.3599 45.6702 52.1899 46.6202C51.8399 46.9002 51.4099 47.0902 51.0499 47.3402C50.4799 47.7202 49.9599 47.9602 49.3099 48.1202C48.3099 48.3702 47.3599 48.5302 46.3199 48.5302C45.5199 48.5302 44.8199 48.3302 44.0599 48.1102C43.3099 47.8902 42.5699 47.7602 41.9499 47.2502C41.4399 47.1002 41.0099 46.8102 40.6199 46.4402C40.3499 46.1902 39.9799 45.9802 39.7499 45.7202L38.8999 44.7702C38.4199 44.2302 37.3999 42.6802 37.0199 42.0102C36.6799 41.4102 36.6499 40.6402 36.3699 39.9802C36.1899 39.5602 35.9199 39.1102 35.8399 38.6602L35.5499 36.7702C35.1999 34.4402 34.9399 35.0902 35.1299 32.3702L35.2299 30.9402L35.5499 29.0602C35.7399 27.9802 35.8999 27.0302 36.4199 26.0602C36.6599 25.6002 36.7399 24.9802 37.0399 24.5402L37.3999 24.0002C37.8699 23.3002 38.2999 22.4802 38.9899 21.9602L40.2699 21.0002C40.6099 20.7502 41.0699 20.6002 41.4499 20.4002C42.3799 19.9002 43.2999 19.6902 44.3499 19.7002C44.8399 19.7002 45.3699 19.5202 45.8599 19.7402C47.0099 19.6102 48.0399 19.9802 49.0499 20.4402C49.5899 20.6802 50.0699 20.9202 50.5399 21.2802C50.9599 21.5902 51.4399 21.8702 51.7999 22.2402L52.5099 22.9702C53.5999 24.0802 53.7399 24.6302 54.4599 25.7402C55.1699 26.8502 54.8699 27.1002 55.2399 27.6202C55.5899 28.1002 55.6899 28.5102 55.7999 29.0602L56.3799 31.9402C56.4499 32.3202 56.5299 32.7202 56.5499 33.0902L56.6399 34.3502C56.7299 35.7302 56.5699 35.8402 56.5699 37.1102M61.4499 33.2202L61.1799 31.1902L60.9899 29.8502C60.8699 29.0002 60.5899 28.2402 60.2699 27.4502C59.6499 25.9102 59.4399 25.5702 58.5099 24.2102C58.2399 23.8202 57.9999 23.4202 57.6699 23.0702C57.4399 22.8302 57.2499 22.4502 56.9999 22.2402C55.6999 21.1002 54.7999 20.4402 53.2999 19.5902C53.0099 19.4202 52.7199 19.2602 52.3999 19.1702C50.4299 18.6402 51.8199 18.5902 49.1299 18.2402C48.7999 18.1902 48.3999 18.0602 48.0799 18.0402C46.7399 17.9902 45.4399 18.0102 44.1099 18.0302L42.0899 18.3402C41.3099 18.4602 40.6599 18.7402 39.9599 19.0602C39.3599 19.3302 38.7599 19.5302 38.1699 19.8802C36.8199 20.6702 35.5899 21.6502 34.5199 22.8102L33.9599 23.4202C33.6899 23.7202 33.4999 24.0102 33.2799 24.3502L32.5399 25.4502L31.7899 27.0202L31.2099 28.5002C30.8199 29.5002 30.6299 30.5202 30.5599 31.5802L30.4699 32.7702C30.3699 34.1202 30.4999 35.4402 30.5799 36.8102C30.6599 37.9902 30.9499 39.0702 31.3399 40.1702C31.8799 41.7202 32.1999 42.2502 33.0699 43.6002C33.3699 44.0702 33.6499 44.4702 34.0099 44.9102L34.5599 45.5902L35.5499 46.4802C35.8599 46.7602 36.2399 47.0802 36.5799 47.3002L38.1599 48.3202L39.4899 48.9502C40.0699 49.2202 40.6399 49.3402 41.2699 49.5102L43.3599 50.0602C43.5799 50.1202 43.9299 50.1502 44.1599 50.1502H47.4599C48.3799 50.1502 49.1899 49.7002 50.2799 49.5202C51.0199 49.4002 51.6299 49.0702 52.3099 48.7902C52.9399 48.5302 53.4399 48.2502 53.9899 47.8902C54.4999 47.5502 55.0199 47.2802 55.4899 46.8802L56.5999 45.9202C56.9199 45.6402 57.1699 45.3202 57.4599 45.0002C57.8699 44.5402 58.1699 44.0602 58.5099 43.5302C58.7699 43.1302 59.1199 42.7702 59.3499 42.3302C59.7899 41.5002 60.7399 39.3802 60.8799 38.5302L61.2899 35.9902C61.4399 35.0502 61.5599 34.1302 61.4399 33.2002" fill="#90BEFB"/>
</g>
</g>
<defs>
<clipPath id="clip0_2554_8134">
<rect width="247.05" height="50.64" fill="white"/>
</clipPath>
</defs>
</svg>
