<svg width="412" height="236" viewBox="0 0 412 236" fill="none" xmlns="http://www.w3.org/2000/svg">
<g clip-path="url(#clip0_2554_6886)">
<mask id="mask0_2554_6886" style="mask-type:luminance" maskUnits="userSpaceOnUse" x="0" y="0" width="412" height="236">
<path d="M411.93 0H0V235.35H411.93V0Z" fill="white"/>
</mask>
<g mask="url(#mask0_2554_6886)">
<path d="M325.8 115.37C325.61 116.5 325.3 117.78 324.71 118.75C324.05 119.84 322.14 121.31 320.97 121.77C319.03 122.54 316.89 122.94 314.8 122.93H301.73L299.28 122.86L297.35 122.91C295.64 122.96 293.94 122.95 292.22 122.92L290.25 122.89L288.25 122.93L273.21 122.97C270.19 122.28 267.52 120.82 265.44 118.51C265.15 117.62 264.66 116.54 264.51 115.59C264.12 113.08 264.49 111.21 265.26 108.93C265.54 108.12 266.56 107.75 267.11 107.23C268.59 105.83 270.17 105.05 272.12 104.64C273.43 104.37 274.68 104.05 276.08 104.15C276.5 104.18 277.07 103.97 277.54 103.97H315.97C318.51 104.34 320.96 105.51 323.07 106.84C323.63 107.2 324.3 108 324.79 108.5C325.68 110.69 326.2 113.01 325.81 115.37M331.71 190.02C332.05 187.09 331.4 187.4 331.68 185.54C332.04 183.08 331.52 181.74 331.59 179.04C331.63 177.29 331.68 175.62 331.59 173.9C331.54 173.12 331.4 172.38 331.54 171.62C331.64 171.1 331.56 170.61 331.52 170.06C331.42 168.48 331.41 166.87 331.52 165.27C331.61 164.04 331.52 162.93 331.52 161.68L331.54 159.37L331.58 155.13V151.41C331.58 149.51 331.58 147.67 331.71 145.83C331.82 144.19 331.71 142.64 331.71 140.97L331.55 124.26L331.51 121.72L331.55 119.56C331.59 118.01 331.65 116.47 331.57 114.93L331.5 113.7C331.39 111.42 331.63 112.38 331.53 109.53L331.48 108.1L331.37 103.5C331.35 102.96 331.33 102.51 331.37 101.97C331.58 99.2104 331.25 98.8104 331.37 96.4504C331.47 94.5504 331.47 92.6604 331.37 90.7904C331.33 90.1704 331.28 89.7104 331.37 89.0604C331.43 88.6104 330.96 88.1004 330.48 87.9304C329.85 87.7204 329.27 87.0904 328.74 86.8704L326.39 85.9404C325.83 85.7204 325.35 85.3104 324.87 84.9604C323.72 84.1204 322.79 83.2404 321.81 82.2504C321.24 81.6704 320.47 81.2304 319.94 80.5304C319.43 79.8604 318.83 79.2204 318.43 78.5004L317.29 76.3904L316.49 75.0104C315.46 73.2304 315.14 71.7104 314.79 69.7004C314.62 68.7304 314.11 67.7104 314.08 66.6904C314.01 64.2504 314.01 61.8804 314.1 59.4304C314.19 56.6904 314.79 57.2204 315.02 54.3904C315.07 53.7604 315.4 52.8604 315.27 52.2704C314.75 49.9704 311.21 51.1104 311.16 51.1504C310.72 51.5004 309.92 52.0504 309.5 52.4904L307.47 54.6304C307.69 54.3804 304.95 58.7404 304.95 58.5504L303.93 61.7604L303.08 64.0204C302.85 64.6504 302.85 65.6304 302.58 66.2304C302.28 66.8904 302.21 67.4204 301.88 68.0804L301.09 69.6904L300.57 71.6604C300.29 72.6804 300.18 73.5504 299.52 74.4804C299.25 74.8504 299.27 75.7204 299.09 76.1904L298.27 78.4604C298.12 78.8704 297.67 79.4804 297.43 79.8904L296.55 81.3604L295.1 83.6804C294.93 83.9704 294.53 84.1704 294.28 84.5004L293.08 86.0704C292.91 86.1804 290.49 88.3804 289.89 88.6704L288.16 89.4804C287.47 89.8104 286.76 90.0304 285.98 90.1604L283.96 90.5004C282.01 90.8204 280.21 90.8304 278.21 90.3604L276.3 89.9104C275.92 89.8204 275.36 89.3104 274.91 89.2404C274.05 89.1104 273.52 88.6904 272.92 88.1404C271.7 86.9904 270.29 86.0104 269.13 84.7604C268.55 84.1304 268.07 83.3204 267.35 82.7704C267.02 82.5204 266.89 81.6604 266.7 81.2804C264.85 79.9104 264.37 76.9504 264.08 74.8604C263.85 73.2304 263.45 71.7804 263.58 70.0204L263.71 68.2104C263.79 67.0704 264.26 66.1204 264.2 64.9404C264.12 63.1804 266.01 60.4604 266.62 59.1904C267.64 57.1004 268.57 55.6404 270.35 54.0804C271.02 53.5004 271.38 52.7104 271.94 52.0804C272.39 51.5704 273.17 51.1004 273.69 50.6104L275.32 49.0504L277.65 47.0804C278.55 46.3204 279.93 46.3004 280.55 44.9404C280.24 44.8404 279.82 45.0104 279.44 45.2404L278.62 45.6904C277.84 46.3504 277.13 46.8304 276.2 47.2304C275.65 47.4604 275.16 47.8704 274.68 48.1904C273.36 49.0204 272.42 50.0804 271.32 51.1604C270.44 52.0204 269.58 52.7704 268.85 53.8804C268.45 54.4804 267.65 55.0504 267.37 55.7404C266.93 56.8304 266.24 57.5304 265.58 58.4504C264.72 59.6304 264.36 61.1804 263.64 62.4404C263.3 63.0304 263.13 63.5904 262.9 64.2304L260.93 69.7604C260.68 70.4904 260.48 71.4304 260.39 72.2004C260.2 73.7704 259.79 75.1904 259.55 76.7104L258.56 82.7704L258.4 88.0404C258.39 88.5304 258.35 88.9404 258.4 89.4304C258.54 90.9704 258.44 92.4704 258.45 94.0404L258.56 108.97C258.58 112.15 258.61 115.2 258.61 118.37V119.83V135.39V136.67C258.57 137.98 258.69 139.22 258.74 140.5L258.89 144.7C258.94 146.06 259.21 147.29 259.19 148.67C259.15 150.56 259.3 152.91 259.99 154.63L260.62 156.17C261.44 158.2 261.76 161.22 262.08 161.9L263.55 165.06L264.58 167.45C265 168.41 265.58 169.27 266.11 170.21C266.5 170.9 266.81 171.62 267.32 172.25L269.4 174.84L270.69 176.42C271.12 176.96 271.65 177.77 272.28 177.96C273.05 178.2 273.13 178.81 273.62 179.22C274.9 180.3 276.36 181.38 277.9 182.07L280 183L281.78 183.93C283.24 184.69 284.98 184.74 286.57 185.1C289.82 185.83 291.94 185.94 295.3 185.71C296.81 185.6 300.49 184.9 301.92 184.44L304.39 183.66C304.54 183.55 306.83 182.35 307.6 182.02C308.91 181.44 310.04 180.5 311.29 179.85C311.89 179.53 312.28 179.27 312.64 178.62C312.99 177.99 313.86 177.65 314.39 177.18L316.4 175.39C316.94 174.91 317.21 174.04 317.68 173.46C317.98 173.09 318.84 172.79 319.1 172.4L322.57 167.06L325.02 162.87C325.12 162.71 325.39 162.45 325.52 162.52C326.6 163.06 325.71 166.06 325.92 168.74C325.96 169.36 325.96 169.95 325.96 170.57L326.02 173.46V188.62C326.02 189.64 325.73 190.85 325.31 191.82L324.35 194.06C323.94 195.03 323.39 195.4 322.65 196.02C321.16 197.27 319.77 198.16 317.69 198.58L315.62 198.99L308.3 199.09C307.8 199.09 307.35 199.11 306.85 199.09C304.77 198.99 304.27 199.14 302.54 199.09C300.02 199.01 298.48 199.16 296.4 199.11C293.6 199.03 290.85 199.06 288.04 199.11L286.03 199.15C284.82 199.17 283.62 199.35 282.39 199.13C281.9 199.04 281.36 199.21 280.84 199.21L272.65 199.25C272.43 199.25 271.99 199.54 271.87 199.71C271.74 199.9 271.85 200.38 271.85 200.7L271.94 209.97C271.94 210.67 271.98 211.27 271.94 211.97C271.84 213.62 271.92 215.24 271.92 216.9V219.44L271.78 222.81L271.72 234.46C271.72 234.8 272.12 235.27 272.37 235.27L275.97 235.24C276.14 235.24 276.5 235.4 276.55 235.43H296.27C300.24 234.84 309.02 235.79 312.71 234.83C314.35 234.4 316.82 233.61 318.12 232.74L319.63 231.72C321.09 230.73 322.33 229.57 323.58 228.34C324.12 227.81 324.47 227.2 324.89 226.59L325.77 225.32C326.15 224.77 326.39 224.18 326.72 223.56L327.99 221.12L328.88 218.97L329.78 216.1C329.94 215.59 330.08 214.9 330.3 214.45C330.85 213.32 331 212.31 331.1 211.06L331.19 209.83L331.36 207.67L331.53 205.87C331.72 203.87 331.45 200.36 331.53 198.34C331.59 196.73 331.61 195.13 331.51 193.53C331.46 192.77 331.41 192.1 331.5 191.35L331.64 190.12L331.71 190.02Z" fill="#90BEFB"/>
<path d="M310.17 48.1405C310.3 48.6305 309.06 48.6005 308.71 49.1105C308.21 49.8205 307.42 50.2905 306.83 50.8405C305.44 52.1305 303.57 54.4305 302.83 56.1305L301.96 58.1205L301.03 60.0905L300.6 61.1005C300.12 61.9305 299.72 62.6605 299.7 63.6505C299.17 64.7005 298.43 65.8005 298.04 66.9005C297.56 68.2205 297.88 68.1205 296.66 70.0805C296.29 70.6905 295.87 71.3705 295.59 72.0205C295.32 72.6605 295.28 73.2905 294.53 73.5105C293.37 75.7105 291.61 77.3505 289.6 78.7705C288.46 79.5805 287.35 80.0205 285.93 80.1905C284.38 80.3905 282.76 80.7405 281.19 80.3305C280.59 80.1705 279.58 80.0405 279.1 79.7705C278.09 79.2305 277.02 78.5305 276.42 77.6205L275.22 75.8005C274.46 74.6605 274.05 74.8405 273.51 72.2405L272.9 69.3305C272.5 67.4005 273.36 64.4405 273.66 62.0805C273.69 61.8405 274.05 61.4005 274.18 61.2105L275.48 59.2705C276.09 58.3705 277.47 56.2405 278.22 55.5605C280.04 53.9005 280.88 52.6705 283.05 50.6905C283.48 50.2905 283.84 49.9605 284.21 49.4905C284.73 48.8305 285.67 48.5305 286.3 48.0105L288.62 46.0405C290.88 44.1205 290.12 45.0205 292.28 43.6005C293.09 43.0705 293.66 42.4805 294.73 42.5905L296.71 42.7905C297.13 42.8305 298.02 42.7205 298.37 42.9505C299.28 43.5305 300.39 43.5905 301.45 43.8505C302.37 44.0705 303.29 44.3705 304.22 44.6605C304.89 44.8805 305.65 45.4105 306.27 45.7805C306.91 46.1605 307.53 46.3605 308.23 46.7605L309.89 47.7105C309.99 47.7705 310.16 47.9905 310.18 48.0905" fill="#90BEFB"/>
<path d="M331.25 59.5403L331.27 70.1703C329.46 70.5803 330.07 69.0603 328.95 68.3003C327.6 67.3803 327.27 65.7203 326.79 64.5003C326.51 63.7603 325.95 63.0403 325.93 62.1603C325.88 60.6203 325.87 59.1003 325.97 57.5603C326.02 56.8003 326.02 56.1503 325.97 55.3803C325.86 53.7903 325.9 52.2203 325.97 50.5703C326.01 49.1903 325.69 47.7203 326.45 46.4103C327.82 44.0703 326.13 45.4303 327.62 43.1403C328.23 42.2103 329.01 42.0003 330.09 42.2603C330.41 42.3303 331.11 42.3703 331.29 42.7203L331.26 57.8903V59.5403H331.25Z" fill="#90BEFB"/>
<path d="M72.51 102.69C72.35 103.59 72.51 104.36 72.51 105.25L72.54 114.67C72.54 115.69 72.58 116.72 72.52 117.7C72.48 118.41 71.68 118.23 71.29 118.19C69.51 118.02 68.12 118.37 67.76 118.19C66.82 117.73 68.04 115.92 66.67 113.41C66.2 112.56 65.85 111.79 65.45 110.83C65.2 110.4 64.52 109.75 64.08 109.45L62.91 108.63C60.65 107.04 57.92 106.67 55.26 106.36C54.5 106.27 53.79 106.16 53.03 106.11L51.22 106.01L44.26 105.9C43.49 105.9 42.76 105.71 42.01 105.86C40.68 106.13 39.31 105.77 37.97 105.84C36.73 105.9 35.61 105.88 34.37 105.85L32.24 105.8L25.78 105.78L24.9 105.88L23.45 105.81C20.42 105.68 20.01 106.54 18.81 105.18C18.21 105.73 17.61 106.03 16.89 106.23L14.35 106.95L12.53 107.47C10.3 108.11 9.23998 108.5 7.65998 110.63C7.38998 111 6.22998 113.4 6.01998 113.97C5.24998 116.11 5.44998 118.32 5.77998 120.52C5.88998 121.26 6.20998 121.81 6.52998 122.49C7.00998 123.51 7.29998 124.85 8.27998 125.56C9.89998 126.74 10.81 128.16 13.2 128.32C16.3 128.53 13.17 129.12 19.66 129.27L21.83 129.31L24.7 129.36C26.04 129.38 27.29 129.12 28.65 129.41C29.25 129.54 30.03 129.31 30.63 129.29C33.32 129.22 35.91 129.31 38.58 129.34L47.46 129.44C47.65 129.44 48.16 129.57 48.36 129.55C48.95 129.49 49.65 129.45 50.24 129.44C49.89 131.74 48.88 130.67 47.27 134.1C46.32 136.14 45.54 135.51 44.61 138.29C42.86 140.3 43.41 140.91 41.61 143.3C40.38 144.93 40.89 145.68 39.82 146.88C39.12 147.67 39.04 148.98 38.45 149.81C37.66 150.92 36.98 151.92 36.47 153.21C36.16 153.99 35.74 154.72 35.37 155.46L34.6 157.05L33.58 159.08C32.51 161.2 32.13 162.43 31.02 164.23C30.7 164.75 30.27 165.23 30.1 165.87L29.7 167.38L28.61 169.27C28.24 169.9 28.08 171 27.81 171.62C26.66 173.44 25.79 175.06 25.21 177.2C25.05 177.81 24.3 178.63 24.06 179.35C23.85 179.97 23.63 180.64 23.37 181.18L22.5 183L21.83 184.43L21.11 186.04L20.15 188.21C19.81 188.98 19.54 189.54 18.76 189.91L18.01 188.98C16.77 188.79 15.75 188.22 14.84 187.35L11.99 184.64C11.36 184.04 10.79 183.6 10.43 182.74C10.19 182.13 9.43998 181.62 9.12998 181.07C7.42998 178.1 7.24998 178.88 5.91998 175.77C5.39998 174.54 4.59998 173.41 4.23998 172.12C3.86998 170.83 3.43998 169.61 2.92998 168.4C2.02998 166.25 1.93998 164.02 1.49998 161.73L0.71998 157.76L0.54998 155.07C0.49998 154.17 0.26998 153.39 0.23998 152.51L0.0799799 148.11C0.0399799 147.03 -0.0400201 146.08 0.0799799 145.01C0.15998 144.21 0.13998 143.36 0.15998 142.51C0.15998 142.17 0.55998 141.54 0.60998 141.19L1.11998 137.68C1.40998 135.67 1.45998 133.79 1.30998 131.77C1.16998 129.96 1.03998 128.2 0.10998 126.6C0.24998 125.49 0.00997991 124.39 0.0599799 123.36C0.15998 121.57 0.13998 119.92 0.0399799 118.13C-0.0300201 116.87 0.36998 115.55 0.0599799 114.27C-0.0600201 113.77 0.12998 113.23 0.12998 112.71V93.7601L0.21998 86.2601L0.27998 83.7401C0.29998 82.9401 0.30998 82.0601 0.37998 81.2201L0.56998 78.7501C0.81998 75.5601 1.72998 72.6101 2.38998 69.4901L2.89998 67.1101L3.75998 64.3201C3.98998 63.5701 4.54998 63.0001 4.54998 62.0901C4.54998 61.4801 5.03998 60.9101 5.29998 60.4101C5.65998 59.7101 5.91998 59.2301 6.47998 58.6401C6.72998 58.3701 6.81998 57.6101 7.05998 57.2701L8.75998 54.7101C9.22998 54.0001 9.52998 53.2501 10.14 52.6701C10.54 52.2901 10.95 51.9001 11.27 51.4701C11.75 50.8301 12.41 50.4501 12.95 49.9201C13.68 49.2201 14.3 48.5401 15.1 47.9501L18.18 45.6301C18.46 45.4201 19.11 45.1501 19.47 44.9901L21.44 44.0901C22.17 43.7501 23.14 43.4201 23.91 43.2201L26.6 42.4901C27.56 42.2401 28.57 42.0401 29.58 41.8401C31.05 41.5401 35.27 41.5501 36.89 41.6401C37.51 41.6801 41.3 42.8401 42.65 43.0501C43.7 43.2201 44.86 43.5101 45.77 44.0301C48.63 45.6901 47.24 43.9901 50.54 46.6101C51.19 47.1301 51.82 47.3701 52.63 47.6301L54.36 49.2201C55.09 49.8901 55.85 50.5101 56.65 51.0401C58.4 52.1901 57.5 52.1201 59.48 54.1701L61.59 56.3501C61.79 56.5601 61.84 57.3301 62.04 57.5701L64.44 60.5101C64.69 62.7501 65.44 62.7101 66.85 64.0501C67.67 63.5301 67.32 62.7701 67.27 62.0001L67.08 59.3301L67.01 42.6601C67.01 41.7001 66.73 40.8101 66.93 39.8601C67.1 39.1101 67.02 38.1901 66.89 37.4501C66.85 37.1901 67 36.6301 67 36.3801L67.09 31.5501C67.1 30.8601 67.18 30.0401 67.09 29.4501C67.16 29.6801 67.22 26.0001 67.14 24.9301C66.97 22.6301 67.39 21.0401 67.12 17.9801C66.98 16.5501 67.06 15.2201 67.15 13.8001L67.3 11.3001L67.2 9.50014L67.11 7.52014C67.04 5.80014 67.24 4.25014 67.07 2.48014C67.03 2.09014 67.21 1.23014 67.35 0.790142C67.53 0.240142 68.54 0.510142 69.01 0.480142L71.71 0.320142C73.47 0.210142 71.21 2.05014 72.4 3.31014V13.4301C72.41 13.6201 72.59 14.1501 72.55 14.3301C72.39 15.1701 72.33 16.1401 72.59 17.0701V84.5401L72.5 86.9101L72.54 88.7301C72.61 91.9101 72.62 95.0201 72.53 98.1901C72.5 99.1401 72.36 99.9601 72.53 100.93C72.62 101.43 72.62 102.16 72.53 102.66" fill="#90BEFB"/>
<path d="M72.26 164.44L71.36 165.86C70.79 166.76 70.28 167.77 69.62 168.61C68.98 169.43 68.15 170.21 67.82 171.2L66.68 170.75C65.73 172.22 64.44 175.08 63.29 176.18L58.88 180.42C58.08 181.2 57.27 181.85 56.47 182.72C55.95 183.29 55.01 183.78 54.58 184.56C54.43 184.84 53.59 184.93 53.38 185.16L52.16 186.58L48.54 189.63C47.11 190.83 45.7 191.8 43.76 192.03C43.01 192.12 42.2 192.5 41.47 192.72C37.64 193.9 40.5 193.51 36.53 193.8C35.78 193.85 35.1 193.88 34.39 193.87L31.44 193.83C29.84 193.81 28.7 193.63 27.34 193.11C25.89 192.56 24.34 192.36 22.77 191.87C22.77 191.5 22.96 191.09 23.17 190.77C23.94 189.63 24.67 187.46 25.11 186.17C25.36 185.43 26.79 183.11 26.79 181.82C27.1 181.51 27.62 180.98 27.82 180.59L28.36 179.54C28.5 178.19 29.57 176.76 29.9 175.88C30.43 174.47 30.95 173.23 31.75 171.93C33.77 168.59 32.06 169.66 34.22 167.02C34.63 166.51 35.08 165.69 35.39 165.04C35.6 164.6 35.39 163.63 35.76 163.28C36.73 162.34 37.23 161.35 37.38 159.96L39.02 157.93C39.14 157.74 39.27 157.17 39.37 156.96L40.33 155.06C40.59 154.54 41.15 153.98 41.31 153.43C41.6 152.48 42.13 151.91 42.62 151.11L44.62 147.72L45.71 146.1L47.14 144.35C47.85 143.49 48.49 142.59 49.23 141.76C50.37 140.5 51.56 139.34 52.81 138.2L54.5 136.67C55.61 136.19 56.64 135.63 57.42 134.71C59.39 134.58 60.89 133.22 63.02 132.77L65.09 132.33C65.93 132.15 66.36 131.96 67.23 132.02L69.59 132.18C70.81 133.25 70.61 132.49 72.35 133.2C72.16 136.54 72.84 138.75 72.35 141.8C72.56 143.17 72.57 144.54 72.45 145.89C72.56 146.99 72.49 148.03 72.42 149.18C72.39 149.67 72.55 150.37 72.48 150.89C72.4 151.38 72.47 151.77 72.48 152.24C72.55 155.03 72.56 157.78 72.48 160.6C72.44 161.88 72.64 163.79 72.22 164.45" fill="#90BEFB"/>
<path d="M72.5699 171.86V193.17C72.5699 193.66 71.8499 193.82 71.5199 193.79L69.1499 193.6C68.7699 193.57 67.9499 194.03 67.6899 193.43C67.1899 192.34 67.3299 191.02 67.5399 189.83C67.3399 188.86 67.3199 187.9 67.5099 186.94C67.3199 185.8 67.3499 184.72 67.5099 183.55C67.6399 182.68 67.4099 181.73 67.4099 180.88L67.3499 177.24C67.3399 176.37 68.3199 176.55 68.6199 175.12C70.4899 173.69 70.6699 172.8 71.7899 171.68L72.1299 171.34C72.2199 171.25 72.5599 171.61 72.5599 171.86" fill="#90BEFB"/>
<path d="M87.69 98.1101C89.11 95.9101 88.71 94.3101 91.82 92.3901C92.6 91.0701 94.06 90.8101 95.35 90.3001C96.46 89.8501 97.47 89.2401 98.66 88.9801C100.81 88.5101 101.45 88.7001 102.71 88.5401L106.33 88.0901L112.65 87.9301C116.48 87.8301 120.29 87.7901 124.11 87.9301C125.35 87.9701 126.55 88.0901 127.79 87.9801C129.64 87.8101 131.69 88.1301 133.54 88.3401L135.71 88.5801C136.55 88.6701 137.47 88.8201 138.24 89.0901C141.24 90.1501 142.81 89.9401 145.46 92.6101L147.17 94.3301C147.72 94.8801 149.83 99.8501 147.54 99.8601L138.56 99.9101C137.07 99.9101 135.59 100.21 134.11 99.8901C133.25 100.1 132.45 100.01 131.56 99.9301C130.35 99.8201 129.08 99.8301 127.87 99.9401C126.76 100.05 125.71 100.02 124.63 100.01L122.94 99.9901L120.11 99.9701L117.95 99.9501C117.15 99.9501 116.35 100.14 115.55 99.9201C114.26 100.04 112.92 100.16 111.61 99.9401C110.77 99.8001 109.99 100 109.14 100.01L92.34 100.1C91.44 100.1 90.69 100.2 89.78 100.12L88.23 99.9901C87.31 99.9201 87.31 98.7601 87.71 98.1301M153.61 140.72H149.54C148.73 140.72 148.49 141.33 148.35 141.92C148.06 143.19 146.84 143.77 146.06 144.63C145.43 145.32 144.94 145.75 144.04 146.07C142.77 146.53 141.54 146.75 140.2 146.92C138.94 147.08 137.84 147.33 136.52 147C136.15 146.9 135.38 147.15 134.99 147.12C134.12 147.05 133.34 146.9 132.53 147.07C131.82 147.22 131.17 147.02 130.46 147.03H119.73C118.91 147.04 118.19 147.05 117.36 147.04L104.13 146.94C103.55 146.94 102.91 146.84 102.31 146.8C99.49 146.57 96.91 145.25 96.61 145.16L94.94 144.7L93.36 143.87C92.88 143.62 92.33 143.1 91.82 142.79C89.59 141.47 85.23 134.02 88.87 134.61C90.77 134.92 91.25 134.7 93.35 134.71H95.38H96.95L98.77 134.73L100.98 134.77H122.53C123.13 134.76 123.65 134.61 124.25 134.71C124.84 134.82 125.54 134.81 126.13 134.71C127.24 134.52 128.3 134.71 129.39 134.69H131.93C132.85 134.67 133.71 134.58 134.65 134.72C135.31 134.82 136.05 134.66 136.74 134.65H138.39L153.9 134.6C154.15 134.32 154.33 133.89 154.33 133.52L154.31 109.4C154.31 108.93 154.14 108.46 154.24 108.02C154.55 106.48 153.94 106.22 154.29 102.89C154.56 100.3 153.85 100.3 154.27 98.0701C154.26 97.9101 154.16 97.4901 154.15 97.2801L154.11 83.9301C154.11 83.2001 153.65 80.0701 153.55 78.3201C153.48 77.0801 152.8 75.2801 152.39 73.5701L151.46 69.6601C151.31 69.0201 151 68.3401 150.81 67.6801C150.49 66.5901 149.85 65.6501 149.41 64.6201C148.79 63.1401 148.31 61.6401 147.51 60.2201L146.42 58.2801C146.19 57.8701 146.05 57.3501 145.67 57.0501C145.05 56.5601 144.8 55.8801 144.33 55.3101L142.31 52.8301L140.78 51.3501C139.74 50.3501 138.83 49.2401 137.71 48.3201C137.31 47.9801 136.61 47.7401 136.2 47.3401C135.57 46.7301 134.94 46.4201 134.15 46.1101C132.79 45.5901 131.65 44.4101 130.26 43.9901C128.94 43.6001 127.7 43.2601 126.43 42.8001L124.4 42.0801C123.95 41.9201 123.27 41.8101 122.77 41.7801L120.94 41.6501C119.09 41.5201 117.26 41.5501 115.41 41.6501C115.11 41.6501 111.38 42.0301 111.36 42.0401C109.57 42.7101 107.97 43.3201 106.2 43.8901C103.93 44.6201 103.46 44.9401 101.66 46.1301L99.05 47.8601L96.99 49.1901C96.74 49.3501 96.38 49.9401 96.2 50.2101C95.75 50.8901 94.98 51.3001 94.42 51.8501C93.72 52.5301 93.08 53.3801 92.45 54.1401C91.74 54.9901 91.27 56.0801 90.51 56.9001C89.76 57.7101 89.33 58.5401 88.77 59.5001L87.58 61.5201C87.24 62.0901 87.06 62.6301 86.85 63.3101C86.57 64.2401 86.04 65.0701 85.58 65.9601C85.24 66.5901 85.18 67.5101 84.92 68.1701C84.65 68.8701 84.41 69.4801 84.29 70.2301C84.21 70.7801 83.76 71.3701 83.64 71.8401C82.77 75.2101 82.56 76.8401 82.23 80.3101C82.11 81.5701 81.71 83.4701 81.7 83.9101L81.63 90.8601L81.54 92.7101C81.43 95.0901 81.44 97.4601 81.56 99.8401C81.62 100.85 81.54 101.74 81.54 102.76V119.19C81.54 120.27 81.7 121.18 81.54 122.29C81.48 122.7 81.53 127.55 81.54 128.35L81.58 130.33L81.65 134.87L81.75 147.09L81.91 152.7L82.13 154.58C82.34 156.34 82.8 157.85 83.03 159.58L83.31 161.66L84.57 165.8C85.7 167.65 87.36 170.77 87.28 172.95L87.96 174.24C88.5 175.27 89.13 176.29 89.8 177.27L91.69 180.07C92.06 180.61 92.83 181.23 93.32 181.77L94.75 183.38C96.99 185.9 98.28 186.27 98.79 186.73L100.47 188.2L102.23 189.17C103.29 189.75 104.44 190.45 105.55 190.79L107.81 191.48C108.56 191.7 109.4 192.34 110.14 192.51C112.05 192.97 114.01 192.94 115.97 193.18C118.23 193.45 120.43 193.1 122.7 192.94L124.86 192.78C125.73 192.71 126.32 192.43 127.08 192.11L129.35 191.15C130.05 190.85 130.79 190.51 131.48 190.26C132.27 189.97 132.95 189.83 133.57 189.23C134.16 188.65 134.84 188.39 135.6 188.01C135.68 187.96 139.24 185.36 139.42 185.32C139.42 185.32 139.42 185.34 139.4 185.34L140.98 183.76C141.33 183.41 141.62 182.97 141.97 182.59L144.09 180.29L145 179.01C146.38 177.08 146.14 175.91 147.76 174.59L150 169.66L150.84 167.25C151.58 165.14 152.19 164.02 152.54 161.59L152.89 159.17C153.67 153.74 154.14 154.14 154.14 148.13C154.14 146.99 154.04 145.97 154.17 144.84C154.24 144.21 154.52 140.75 153.52 140.76" fill="#90BEFB"/>
<path d="M214.86 113.6C214.66 113.82 214.17 114.08 214.01 113.94C213.85 113.81 213.58 113.31 213.7 113.15C213.8 113 214.26 112.89 214.42 112.93C214.62 112.99 215 113.45 214.85 113.6M233.41 150.08C233.93 147.56 233.15 148.44 233.45 146.13C233.51 145.68 233.43 145.25 233.43 144.79L233.35 131.77C233.35 131.14 233.27 130.43 233.19 129.78L232.93 127.76C232.74 126.2 232.34 124.76 231.9 123.25L231.21 120.91C230.96 120.06 230.6 119.47 230.1 118.75C229.36 117.68 228.96 116.38 228.03 115.42C227.75 115.14 227.01 114.83 226.83 114.49C226.49 113.79 226.03 113.29 225.34 112.89C224.18 112.22 223.13 111.14 221.83 110.75C219.48 110.04 221.31 110.11 218.28 108.88C217.66 108.63 216.82 108.64 216.19 108.46L213.07 107.57C211.91 107.24 210.78 106.9 209.56 106.78L207.6 106.6L204.92 106.21L202.64 106.15L200.23 105.9C197.97 105.66 198.28 105.5 196.45 105.37L193.93 105.18C193.3 105.14 192.61 105.07 192 104.99L189.16 104.6C187.99 104.44 186.88 104.37 185.7 104.27L183.71 104.11C183.06 104.07 182.24 104.01 181.63 103.89L178.8 103.3C177.52 103.03 176.25 102.48 174.94 102.39C173.14 102.26 172.1 101.98 170.61 100.92C169.35 100.01 169.29 101.1 168.36 98.6897C167.07 97.3097 166.98 95.5997 167.63 93.8297C167.89 93.1297 168.1 91.2497 169.51 90.4697L171.73 89.2597C172.66 88.7497 173.81 88.6597 174.92 88.7397C175.81 88.7997 176.49 88.5497 177.55 88.5497L213.66 88.5297C214 88.5297 214.36 88.2797 214.45 88.2397C215.37 88.5197 216.33 88.6997 217.35 88.7897C218.14 88.8597 218.81 89.1997 219.54 89.4297C220.8 89.8297 222.16 89.8597 223.28 90.8097L225.75 92.8897C226.08 93.1697 226.54 93.9297 226.7 94.2797C228.43 97.8997 226.9 98.6697 229.42 98.6097L232.8 98.5397L232.91 95.1797C232.92 94.6297 232.89 94.1097 232.89 93.5397L232.76 83.7897L232.58 80.7197C232.5 79.3097 232.19 77.9197 232.03 76.5097C231.9 75.4797 231.8 74.5997 231.48 73.6097C231.14 72.5597 231.05 71.4197 230.77 70.3297C229.92 66.9997 229.69 67.4397 228.91 64.6297C228.82 64.3097 228.49 63.7997 228.37 63.4697C227.66 61.4897 227.74 61.7397 226.81 60.0097L225.85 58.2497C225.54 57.6697 225.23 57.0897 224.81 56.5897C223.92 55.5097 222.96 53.7897 222.07 52.8997L220.25 51.0697C220.25 51.0697 216.95 48.4297 216.67 48.2297C213.16 45.6797 214.56 47.0097 212.05 45.7197L210.35 44.8497C209.16 44.2297 207.73 44.0097 206.42 43.7397L204.04 43.2397L200.79 42.6897C199.64 42.4997 198.65 42.5397 197.51 42.5597C192.52 42.6297 186.28 43.3697 181.81 45.6197L179.78 46.6397C179.29 46.8897 178.63 47.2197 178.19 47.5097L175.79 49.0797L174.12 50.5697C173.51 51.1197 173.15 51.5497 172.54 52.1297L170.92 53.6497L169.29 55.8197C168.45 56.9497 167.58 59.2297 166.47 59.9697C166.04 61.4497 165.43 62.9097 164.68 64.2997C164.55 64.5397 164.47 65.1497 164.38 65.4397L163.46 68.4897L162.45 71.9597C162.08 73.2397 161.96 74.4297 161.93 75.7897L161.85 79.4197V99.7697L161.92 101.97C161.99 105.5 162.03 104.88 162.49 108.13L162.76 110.02C162.86 110.7 163.01 111.53 163.26 112.16L165 116.55C165.23 117.1 165.77 117.75 166.05 118.31C166.82 119.89 167.86 121.06 169.17 122.18C169.87 122.78 170.55 123.49 171.32 123.97C172.34 124.61 173.23 125.2 174.23 125.93L175.56 126.4L177.83 127.21C178.41 127.42 178.99 127.77 179.65 127.84C182.67 128.12 180.64 128.44 184.65 128.72C186.32 128.83 187.87 129.13 189.52 129.39L194.19 130.13C194.78 130.22 195.47 130.34 196.07 130.38L198.59 130.55L201.65 130.65C204.06 130.72 205.49 131.15 208.22 131.41L210.13 131.6L213.15 131.97C216.45 132.38 216.84 131.93 220 132.85C221.02 133.15 222 133.57 222.96 133.93C224.74 134.6 226.2 135.29 227.29 136.9C227.66 137.45 227.88 137.87 227.85 138.66C227.81 139.72 227.87 140.82 227.94 141.87C228.1 144.68 225.64 146.47 223.05 147.03C221.46 147.37 220.05 147.66 218.41 147.73C216.37 147.82 214.31 147.85 212.27 147.73C209.5 147.57 209.09 148.01 207.1 147.73C205.63 147.52 204.21 147.73 202.75 147.73H200.42C199.12 147.73 197.84 147.54 196.53 147.71C196.15 147.75 195.75 147.69 195.34 147.68L185.73 147.58C184.89 147.58 184.2 147.46 183.35 147.58C181.61 147.82 181.09 147.38 178.13 147.55C177.23 147.61 176.18 147.27 175.22 147.2C173.59 147.06 172.12 146.12 170.77 145.4L169.76 144.87L167.17 142.3C166.73 141.86 166.8 140.91 166.58 140.4C165.26 137.22 166.69 136.42 165.1 136.34L163.64 136.27C162.46 136.21 161.4 136.16 160.21 136.49L160.28 139.93C160.28 140.44 160.36 140.91 160.29 141.4C160.12 142.52 160.29 143.53 160.54 144.64C160.84 146.05 159.99 146.93 160.46 148.68C161.25 151.54 160.83 151.08 161.04 154.14C161.2 156.44 161.55 158.63 161.94 160.93C162.08 161.77 162.34 162.5 162.57 163.33C162.87 164.44 162.92 165.57 163.42 166.69C163.64 167.2 163.61 168.11 163.86 168.55L164.92 170.43L165.76 172.79C166.33 174.37 167.34 175.62 168 177.2C168.34 178.01 169.17 178.7 169.62 179.47C170.3 180.65 171.18 181.56 172.06 182.59C172.58 183.2 172.99 183.78 173.61 184.28C174.35 184.88 174.99 185.71 175.75 186.24C176.32 186.63 176.83 186.93 177.33 187.37C179.88 189.6 180.02 188.81 181.73 190.32C182.19 190.72 182.81 191.01 183.42 191.12C184.79 191.35 185.83 191.94 187.1 192.47C187.92 192.82 189.07 192.85 190 192.98L195.02 193.66C196.19 193.82 201.31 193.73 202.7 193.48L208.35 192.49C209.39 192.3 210.36 191.55 211.35 191.26C212.91 190.81 214.21 190.23 215.52 189.29L218.35 187.28L220.75 185.35C221.32 184.89 221.85 184.11 222.5 183.74C222.72 183.62 222.99 183.13 223.15 182.96C224.08 181.98 227.22 178.33 227.64 177.36L228.44 175.51C228.93 174.39 229.67 173.57 229.98 172.35C230.61 169.88 231.56 170.24 232.04 166.51C232.35 164.12 232.88 164.01 233.07 161.26C233.14 160.24 233.56 159.12 233.56 158.07L233.54 151.43C233.54 151.05 233.32 150.39 233.4 150.04" fill="#90BEFB"/>
<path d="M214.86 113.6C214.66 113.81 214.16 114.07 214.01 113.94C213.85 113.81 213.58 113.31 213.7 113.14C213.81 112.99 214.26 112.88 214.43 112.92C214.63 112.98 215.01 113.43 214.86 113.59" fill="#90BEFB"/>
<path d="M411.85 181.72C411.9 182.13 411.8 182.59 411.8 183.02L411.77 193.19C411.46 193.69 408.86 193.52 408.35 193.49C407.86 193.46 406.96 193.81 406.58 193.2C406.21 192.61 406.45 191.6 406.57 190.87C406.61 190.65 406.42 190.06 406.42 189.76L406.39 181.96V177.94L406.37 172.29L406.26 170.77L406.28 149.69C406.28 148.36 406.47 147.22 406.29 145.89C406.04 143.91 406.43 141.94 406.29 141.18C406.1 140.07 406.36 138.95 406.33 137.85L406.25 135.11C406.2 133.38 406.17 131.68 406.29 129.98C406.51 126.86 406.14 127.31 405.92 124.39C405.85 123.41 405.52 122.59 405.27 121.68C405.01 120.73 404.88 120.11 404.26 119.38C402.65 117.49 403.68 116.94 399.52 114.59C399.09 114.34 398.56 113.9 398.12 113.7C397.46 113.41 396.57 113.03 395.9 112.91L390.39 111.95C389.26 111.75 387.94 111.75 386.73 111.75H365.8L361.76 111.92L357.98 112.56C357.14 112.7 356.35 112.81 355.73 113.41C353.64 113.41 352.08 114.63 350.63 115.97C350.07 116.49 349.79 116.93 349.27 117.52L348.03 118.92C347.26 119.8 345.89 125.68 345.86 126.57L345.73 131.73C345.71 132.64 345.73 133.52 345.73 134.44L345.68 137.64L345.7 142.65V147.34L345.75 149.52L345.89 181.64L345.99 192.88C345.99 193.19 345.58 193.57 345.32 193.58L343.63 193.61C342.69 193.62 341.48 194.01 340.62 193.57C339.78 193.16 340.19 192.06 340.19 191.4L340.22 188.48V176.7L340.2 166.19C340.2 165.65 340.06 165.2 340.2 164.64C340.28 164.27 340.09 163.68 340.09 163.26L340.16 150.8L340.24 122.08L340.19 120.44C340.14 118.57 340.04 116.79 340.12 114.96L340.19 113.37C340.24 112.05 340.24 110.77 340.24 109.43V93.03C340.24 92.6 340.04 92 340.1 91.62C340.27 90.69 340.22 89.92 340.21 89.03C340.19 88.25 340.29 87.41 340.19 86.6C340.1 85.79 340.12 85.05 340.13 84.25L340.17 82.59L340.09 81.87L340.11 66.5V65.04L340.1 59.36L340.2 54.49C340.23 52.99 340.03 51.56 340.16 50.09C340.37 47.86 340.22 45.66 340.29 43.41C340.31 42.83 340.76 42.26 341.28 42.35C343.26 42.69 344.55 41.88 345.45 42.49C346 42.87 346.06 43.99 346.03 44.6L345.87 47.33C345.85 47.81 346.09 48.61 345.97 49.06C345.72 50.02 345.96 50.69 345.96 51.68L346.02 63.7C346.02 63.88 346.39 64.23 346.54 64.29C346.82 64.42 347.59 62.96 347.8 62.57L348.91 60.43C349.38 59.52 350.08 58.7 350.58 57.86C351.11 56.99 351.4 56.28 352.16 55.59C352.77 55.04 353.28 54.19 353.83 53.53C354.92 52.2 357.96 49.38 359.38 48.51L361.74 47.07C362.55 46.58 363.41 45.71 364.29 45.42L366.49 44.69C367.21 44.45 368.05 43.94 368.75 43.78C370.6 43.36 372.45 42.85 374.33 42.74C376.85 42.57 379.28 42.63 381.77 42.77C389.93 43.2 387.36 43.99 390.77 44.76C393.43 45.36 392.75 46.07 394.52 46.68C395.68 47.08 396.39 47.85 397.29 48.58C398.02 49.16 398.93 49.48 399.43 50.4C399.74 50.95 400.63 51.39 400.94 51.87C401.5 52.75 401.83 53.53 402.68 54.12C403.79 54.89 404.14 56.24 404.84 57.36C405.29 58.09 406.2 58.79 406.4 59.65C406.74 61.08 407.45 62.11 408.08 63.38C408.63 64.49 408.69 65.98 409.12 67.17L409.83 69.14L410.81 71.97C411.03 72.63 410.88 73.7 410.97 74.45L411.39 78.34C411.47 79.01 411.58 79.81 411.59 80.49L411.66 94.58V96.09V113.4C411.66 113.86 411.7 114.28 411.66 114.72C411.5 117.13 411.73 119.39 411.73 121.83L411.82 177.58C411.82 178.42 412.05 179.02 411.86 179.84C411.74 180.4 411.77 181.1 411.86 181.72" fill="#90BEFB"/>
</g>
<path d="M248.28 41.2402H242.54V192.86H248.28V41.2402Z" fill="#90BEFB"/>
<mask id="mask1_2554_6886" style="mask-type:luminance" maskUnits="userSpaceOnUse" x="0" y="0" width="412" height="236">
<path d="M411.93 0H0V235.35H411.93V0Z" fill="white"/>
</mask>
<g mask="url(#mask1_2554_6886)">
<path d="M249.51 6.83048C249.51 7.07048 249.38 7.61048 249.41 7.84048C249.48 8.38048 249.41 8.85048 249.41 9.39048L249.29 21.5005C249.26 24.1805 249.4 25.1205 249.41 27.5105C249.41 28.5605 249.28 29.5605 249.44 30.6105C249.51 31.0805 249.59 32.2105 248.79 32.2305L243.34 32.3405C242.82 32.3405 242.24 32.5405 241.76 32.2805C241.44 32.1105 241.1 31.4805 241.1 31.0305L241.13 27.7905L241.11 26.5005L241.09 0.93048C241.09 -0.48952 243.04 0.14048 243.95 0.10048C244.97 0.0604802 245.85 0.0204802 246.85 0.12048C248.23 0.27048 249.54 -0.0895199 249.53 0.88048L249.5 6.83048H249.51Z" fill="#90BEFB"/>
</g>
</g>
<defs>
<clipPath id="clip0_2554_6886">
<rect width="411.93" height="235.35" fill="white"/>
</clipPath>
</defs>
</svg>
