<svg width="202" height="642" viewBox="0 0 202 642" fill="none" xmlns="http://www.w3.org/2000/svg">
<g clip-path="url(#clip0_2554_1436)">
<path d="M70.1297 476.44C69.1597 478.35 69.3297 479.4 66.7497 480.21C65.7797 480.52 64.8597 481.17 63.8497 481.42C61.1297 482.12 59.2797 482.15 56.4997 482.01L54.4797 481.91C53.8097 481.87 53.2097 481.82 52.5897 481.67L51.0797 481.32L46.1397 480.43C44.7697 480.18 43.4597 479.89 42.1897 479.4C41.4297 479.1 41.2897 478.11 41.7697 477.46C42.2997 476.74 43.3497 476.59 44.2097 476.47C46.7397 476.1 48.8497 475.17 51.0597 474.01C52.4997 473.27 54.0997 472.89 55.6497 472.42L60.8097 470.87C61.9097 470.54 63.1797 470.45 64.3297 470.52C66.1797 470.61 67.6897 471.32 69.1097 472.43C70.3997 473.44 70.8997 474.9 70.1197 476.43M36.1397 439.68C35.5197 438.72 34.7697 437.83 33.9897 437.02L32.3697 433.82C31.4697 432.02 30.2597 427.39 30.1797 425.36L30.1197 423.72C30.0197 421.01 30.0997 419.9 30.4197 417.19L30.7097 414.78C30.8897 413.26 31.3997 411.96 31.9997 410.58C32.5297 409.35 33.0097 408.2 34.0597 407.26C34.4097 406.23 34.9597 405.27 35.8297 404.56C36.6397 403.9 37.3697 402.87 38.2897 402.42C39.8097 401.67 41.4297 401.33 43.0197 400.74H49.2597C50.3697 401.48 51.4397 401.93 52.6197 402.47C53.6297 402.93 54.4397 403.87 55.2997 404.55C56.0597 405.15 56.5497 405.83 57.0597 406.65L58.1597 408.38C59.4097 410.36 60.1197 412.58 60.7797 414.9C61.3997 417.11 61.4897 421.88 61.1997 424.13L60.7097 427.81C60.3097 430.79 58.9697 434.91 56.9497 437.25L55.1697 439.3C54.5397 440.04 53.9397 440.48 53.1197 440.96C51.2797 442.06 48.3697 443.83 46.1497 443.64C43.2397 443.39 44.3797 444.13 40.5197 441.93C38.0097 440.51 37.3997 441.62 36.1497 439.66M35.9597 454.11L34.6097 454.91C31.9597 456.48 28.1197 458.42 24.9097 458.4C24.0197 458.86 22.8097 458.62 22.4697 457.67C22.0197 456.41 22.7597 455.02 23.9197 454.36C24.8797 453.82 25.9497 453.6 27.0597 453.31C27.9497 453.07 28.7897 452.23 29.7097 452.04L35.6697 450.82C36.8797 450.57 38.8997 450 39.4597 451.16C39.9697 452.24 36.6297 453.72 35.9597 454.12M86.4897 465.26L86.3297 463.58C85.8897 459.12 85.9397 461.51 84.8197 458.57L84.0897 456.65C83.8597 456.06 83.7097 455.25 83.3097 454.79C82.6197 453.99 82.0297 453.24 81.6097 452.3C81.2297 451.44 80.1197 451.16 79.6097 450.51C78.2197 448.73 76.4997 447.67 74.5597 446.66C73.6697 446.2 73.1197 445.53 71.9397 445.42C70.7497 445.31 69.4797 444.98 68.2997 444.64C67.7397 444.49 67.1997 443.92 67.1297 443.52C67.0197 442.96 67.2197 442.19 67.5697 441.81L68.3097 441C69.2597 439.97 70.1097 438.91 70.9797 437.84C71.6497 437.01 72.6097 436.6 72.8697 435.37C72.9797 434.86 73.4697 434.29 73.7597 433.81C74.8197 432.08 75.3397 430.15 76.0597 428.27C77.0797 425.61 77.7197 425.08 78.0797 422.14C78.2697 420.54 78.4397 418.98 78.6097 417.38L79.0397 413.5C79.1897 412.15 79.1997 406.21 78.8797 404.96C78.6297 403.98 78.2097 403.08 78.1397 402.09C78.0797 401.33 78.0697 400.51 77.6797 399.88C76.5097 397.98 76.8497 396.13 75.6497 393.73C74.7597 391.96 73.5297 390.47 72.3297 388.91C71.7997 388.22 71.6997 387.4 71.1997 386.68L69.9397 384.86C69.2697 383.88 68.8097 383.21 67.8697 382.51C66.9297 381.82 64.3397 379.21 65.2997 377.94C65.4697 377.73 65.9697 377.45 66.2497 377.51L68.7697 378.04C70.0297 377.83 71.0397 377.78 72.3197 377.9C72.3197 377.9 75.7697 377.69 76.1297 377.66C76.8197 377.6 77.8197 377.77 78.3997 377.44L81.9297 375.41C83.3597 374.59 84.3697 372.87 84.9797 371.4C85.2197 370.82 85.3497 370.17 85.6897 369.78C86.5397 368.81 86.5097 367.78 86.3597 366.62C86.1697 365.11 85.9197 363.73 84.9197 362.51C84.4497 361.93 84.1497 360.91 83.5497 360.43C82.5897 359.67 81.6397 359.04 80.7297 358.22C78.6597 356.37 73.7197 356.65 72.1897 357.75L69.6597 359.55C68.5097 360.37 67.7597 361.39 66.9797 362.55L64.5897 366.15C63.9097 367.17 63.0097 368.15 62.2497 369.12C62.0097 369.4 61.3397 369.88 60.9797 370C55.7797 371.71 58.1997 371.91 50.9897 371.59C49.8197 371.53 48.7997 371.57 47.6497 371.6L44.0397 371.7C43.0297 371.74 42.1097 372.07 41.1297 372.3C39.2497 372.73 37.3397 372.98 35.4397 373.24C32.0797 373.7 31.6397 375.45 29.8797 376.01C27.0197 376.92 27.4597 377.71 25.3297 379.11C23.3297 380.44 23.5997 381.3 21.1497 383.29C20.6297 383.71 20.2797 384.44 19.8497 384.97C18.9097 386.16 18.4297 387.5 17.6597 388.8C16.1297 391.39 15.7497 391.66 14.7297 394.89C13.6297 398.4 12.9997 400.62 12.6097 404.37C12.5497 404.91 12.3897 405.53 12.3797 406.06L12.2797 409.72C12.1797 413.8 12.1697 415.6 12.7697 419.73L13.0697 421.78C13.2397 422.9 13.4497 423.95 13.8297 425.01L15.1197 428.56C15.7197 430.22 16.3097 431.91 17.2997 433.39L19.6397 436.9C20.1997 437.73 20.7897 438.5 21.3097 439.38C21.8597 440.32 23.2397 440.57 23.8697 441.44C24.6097 442.45 25.2397 443.39 26.5097 443.83C26.8397 443.94 27.3497 444.61 27.3097 444.97C27.1897 446 26.2297 446.54 25.3397 446.84L22.2297 447.87C20.9397 448.3 20.0497 448.98 19.0897 449.92C18.5097 450.49 17.5297 450.71 16.7597 451.09C15.6797 451.62 15.9897 452.96 14.3697 453.84C13.7197 454.2 13.2697 454.83 13.0997 455.55C12.8797 456.5 12.3297 457.12 11.8697 458.01C10.0997 461.4 11.3797 462.48 11.2197 466.16C11.5597 467.17 12.1897 468.41 12.7097 469.42L13.7797 471.5C14.8097 473.52 16.4197 474 16.4697 475.44C16.4997 476.31 15.9397 477.2 15.5097 477.9L14.6197 479.34C13.9197 480.48 13.8197 481.5 13.9297 482.74C14.0797 484.33 14.3697 485.64 15.2597 486.99C15.6397 487.58 15.8497 488.46 16.4397 488.98C17.7197 490.14 19.0597 490.22 20.3297 490.73H22.8297L26.9297 489.49C29.2597 488.79 30.1497 486.66 32.3997 486.49C34.1097 486.36 35.8797 486.34 37.6397 486.46C39.0397 486.55 40.3997 486.88 41.7997 487.06C45.9597 487.59 48.4797 488.86 52.9597 489.14L58.4497 489.47C59.9597 489.56 61.4097 489.62 62.9397 489.43C66.3897 489.01 68.3097 489.46 71.7097 487.51C74.0397 486.17 74.9197 486.64 76.3897 485.01C76.6897 484.68 77.2597 484.02 77.6497 483.85C79.2997 483.14 80.1297 481.74 81.1997 480.53C82.2197 479.38 83.0097 478.5 83.5797 476.98C84.7097 473.93 85.4997 473.48 86.0097 470.43L86.2897 468.78L86.4697 466.62C86.5097 466.17 86.5097 465.72 86.4697 465.27" fill="#90BEFB"/>
<path d="M149.28 232.02C148.9 231.53 148.79 230.59 148.9 229.99C149.05 229.13 148.96 228.44 148.91 227.6C148.81 225.86 148.77 224.08 148.91 222.36L149.17 219.5L149.28 217.64C149.36 216.43 149.64 215.34 150.01 214.17C150.22 213.5 150.34 212.73 150.6 212.08C150.86 211.42 151.11 210.8 151.28 210.14L151.88 207.77C152.29 206.13 152.89 204.71 153.73 203.25L155.18 200.69C155.47 200.19 155.64 199.32 156.05 198.94C156.84 198.21 157.56 197.54 158.35 196.91C160.65 195.11 163.18 193.99 166.05 193.6C168.24 193.3 168.68 194.45 170.26 195.05C171.44 195.49 172.3 196.11 173.1 196.91C174.38 198.19 174.6 199.55 175.06 201.19C175.61 203.12 175.92 204.81 175.36 206.89C175.23 207.36 175.72 208.87 173.71 211.89C172.45 213.76 171.07 215.23 169.79 217.11C169.21 217.96 168.53 218.48 167.6 218.96C166.83 219.35 166.31 220.22 165.69 220.83C165.19 221.32 164.39 221.57 163.8 221.94C160.93 223.71 160.85 224.24 157.85 225.69C156.72 226.24 155.8 227.29 154.69 227.95C151.69 229.75 153.1 230.55 151.04 231.97C150.6 232.28 149.68 232.55 149.29 232.03M192.27 236.61C191.48 235.46 190.24 235.2 189.04 235.63C187.99 236.01 186.86 236.37 186.05 237.14C183.48 239.6 184.53 237.54 183.45 241.39C182.71 244.05 183.65 244.6 183.19 248.41C183.07 249.45 182.81 250.45 182.61 251.47C182.39 252.56 182.15 253.55 181.62 254.51C180.37 256.79 181.48 255.62 179.56 258.76C178.95 259.75 178.2 260.46 177.32 261.22C176.81 261.66 176.45 262.48 175.87 262.91C175.32 263.31 174.46 263.42 173.86 263.72C172.29 264.51 170.78 265.17 169 265.27C167.5 265.35 165.17 265.42 163.81 264.75L161.1 263.41C160.48 263.11 159.89 262.39 159.32 261.92C158.51 261.24 157.61 260.78 156.68 260.21C156.03 259.8 155.92 258.81 155.61 258.14C155.12 257.07 154.65 256.04 154.05 255.05C153.72 254.51 153.05 254.02 152.97 253.34C152.81 252.07 152.42 250.99 152.05 249.76L151.22 247.08C150.99 246.34 150.15 244.15 151.15 243.44C152.34 242.59 152.7 244.66 155.76 244.01C156.9 243.76 158.24 243.72 159.15 242.88C162.29 239.99 162.06 239.95 162.61 235.24C163.39 234.27 163.8 233.31 164.24 232.15C164.46 231.56 165.15 231.01 165.54 230.49C165.92 229.98 166.26 229.25 166.75 228.9C167.69 228.21 168.65 227.7 169.45 226.9C170.12 226.24 170.97 226.01 171.84 225.6L174.98 224.14C176.17 223.58 177.25 223.07 178.31 222.27C179.03 221.73 180.17 221.45 180.75 220.76C183.66 217.35 184.36 219.36 186.45 216.26C187.03 215.4 188.07 214.89 188.87 214.21C189.46 213.7 189.7 212.64 190.29 212.18C191.26 211.45 191.6 210.57 192.31 209.61L193.61 207.85L194.91 204.64C195.83 202.41 196.48 196.9 196.25 194.31C196.01 191.55 195.46 188.36 194.46 185.77C194.18 185.05 194.08 184.15 193.76 183.44C193.34 182.51 193.04 181.52 192.54 180.63C189.06 174.41 190.53 178.33 187.28 173.77C186.63 172.86 185.41 172.33 184.66 171.46C184.01 170.72 183.17 170.04 182.28 169.69C178.93 168.37 181.1 168.88 178.75 167.84C174.03 165.77 174.01 166.5 169.1 165.2C167.78 164.85 165.11 165.39 163.19 165.49C161.34 165.6 158.55 166.04 156.7 166.49C153.97 167.16 152.4 168.75 149.55 169.76C148.65 170.08 148.13 170.73 147.43 171.31L144.66 173.54C143.9 174.16 143.6 175.43 142.84 175.98C141.74 176.77 141.16 177.66 140.34 178.73L138.35 181.33L137.14 183.5C136.82 184.08 136.72 184.98 136.37 185.52C135.73 186.54 135.47 187.55 134.9 188.58L133.73 190.7L132.01 195.8C131.47 197.42 130.48 202.76 130.23 204.67C130.1 205.68 130.09 206.67 130.02 207.65L129.86 209.84L129.7 211.84L129.53 213.84L129.34 215.65C129.26 216.35 129.32 216.96 129.34 217.68L129.44 221.32L129.59 223.83L129.88 226.47L130.11 228.38C130.27 229.67 130.51 230.9 130.78 232.2L131.38 235.14C131.75 237 132.13 238.89 132.9 240.63C134.18 243.53 133.05 241.9 134.27 244.57C134.57 245.23 134.73 246.12 135.14 246.68C135.6 247.32 136.08 247.82 136.23 248.59C136.45 249.73 137.05 250.62 137.49 251.67L138.11 253.18C140.41 255.66 138.95 255.12 141.64 258.16C142.2 258.79 142.68 259.58 143.27 260.18C144.08 261.01 144.67 261.85 145.39 262.75C145.96 263.46 147.14 263.78 147.78 264.49C151.08 268.15 149.5 265.61 152.39 268.38C153.65 269.58 155.42 270.09 157.08 270.5C159.41 271.08 161.48 271.89 163.78 272.62C165.32 272.95 169.48 272.65 170.96 272.17L174.35 271.08C175.86 270.59 177.44 270.28 178.84 269.57C180.13 268.92 181.62 267.48 183.32 266.75C184.14 266.4 184.53 265.84 185.12 265.18L186.6 263.53L191.03 257.96C192.2 256.5 194.76 250.74 195.01 248.77C195.11 247.91 195.4 247.08 195.57 246.24L195.9 244.55C196.28 242.67 195.71 240.59 194.93 238.81C194.46 237.73 193.25 237.24 192.27 236.63" fill="#90BEFB"/>
<path d="M170.26 315.53C169.98 316.1 169.89 316.98 169.56 317.47L168.21 319.48C167.14 321.07 165.71 321.63 164.1 322.38C162.13 323.29 160.21 324.09 158.06 324.48C154.72 325.08 151.69 326.46 149.17 328.72C148.77 329.08 148.47 329.79 148.07 330.09C147.23 330.71 146.2 331.12 145.59 331.95C145.15 332.55 144.88 333.39 144.35 333.86C142.37 335.62 142.99 336.77 141.92 338.08C140.62 339.69 140.33 341.55 139.73 343.47L138.9 346.08L138.13 349.69C137.82 351.15 137.56 352.58 137.45 354.09L137.26 356.53L137.1 358.69L136.93 360.7C136.89 361.15 136.75 361.75 136.75 362.19V371.33C136.75 372.36 137.34 375.53 137.45 377.06C137.55 378.43 137.95 379.47 138.42 380.76C138.79 381.81 139.02 383.08 139.26 384.2L139.97 387.51C140.09 388.09 140.24 388.77 140.3 389.36L140.74 393.79C140.84 394.77 140.57 395.61 140.3 396.54C139.13 400.61 137.47 402.08 133.83 404.05C132.76 404.63 131.47 404.64 130.29 404.85C129.58 404.97 128.77 405.22 128.07 405.07C127.38 404.93 126.48 404.76 125.9 404.43C124.81 403.8 123.83 403.08 122.87 402.29C122.16 401.71 121.61 400.88 120.93 400.25C120.21 399.58 119.75 398.81 119.5 397.84C119.33 397.17 119.05 396.53 118.84 395.87C118.13 393.61 118.84 388.39 119.67 386.11L120.95 382.61L122.51 376.78C122.63 376.32 122.71 375.84 122.77 375.35L123.45 370.52C123.79 368.07 123.3 367.94 123.27 366.41L123.15 359.43L122.82 355.47C122.68 353.8 122.44 352.26 121.76 350.69C121.43 349.92 120.85 346.67 120.23 345.22C118.84 341.99 119.18 341.52 117.4 338.4L115.59 335.22C114.2 332.8 114.8 332.71 112.95 330.88C112.48 330.42 112.18 329.75 111.86 329.16L110.58 326.81C110.29 326.29 110.06 325.66 109.67 325.22C108.07 323.41 108.24 320.87 107.53 319.2C106.95 317.83 106.74 316.76 106.68 315.29C106.61 313.66 106.47 312.11 107.12 310.48L108.15 307.91C108.49 307.06 108.77 306.31 109.34 305.58C110.37 304.27 109.91 303.12 112.57 301.81C113.48 300.59 114.64 299.6 116.1 299.01C117.99 298.24 120.02 297.65 122.07 297.39L123.89 297.15C126.2 296.84 127.86 297.44 129.9 298.16L132.27 299C133.62 299.47 134.45 300.67 135.43 301.64L136.51 302.73C139.04 305.25 141.3 312.55 140.61 316.2L140.17 318.55C139.97 319.6 139.84 320.58 139.28 321.51C138.87 322.19 138.68 323.04 138.32 323.75L136.63 327.05C136.01 328.27 135.46 329.44 134.97 330.72C134.57 331.75 132.05 337.82 133.89 338.06C134.69 338.16 135.03 337.37 135.28 336.83L136.5 334.2L137.46 331.65L140.15 325.68L141.79 322.18C142.12 321.48 142.56 320.76 142.78 320.02C143.22 318.49 143.59 317.05 143.9 315.5L144.79 311.13C145.05 309.86 145.22 308.67 145.61 307.47L146.46 304.83C146.9 303.48 147.53 302.64 148.47 301.6L149.79 300.14C150.95 298.87 154.21 297.79 155.85 297.51L159.1 296.96C160.35 296.75 161.82 297.4 162.92 297.94L165.43 299.18C166.13 299.53 166.71 300.37 167.26 300.95L169.29 303.09C169.64 303.46 169.86 304.02 170.06 304.48C171.75 308.25 172.09 311.79 170.26 315.57" fill="#90BEFB"/>
<path d="M103.97 231.64C103.49 238.97 102.27 237.77 100.04 241.18C98.8699 242.96 97.7999 243.09 96.4099 244.05C95.4399 244.72 94.4899 245.4 93.2399 245.51L91.7299 245.63C90.0899 245.77 88.4399 245.73 86.8299 245.6C85.0299 245.46 83.3699 245.09 82.0499 243.89C80.5199 242.5 79.9299 243.63 78.2999 240.82C77.4299 239.33 75.8799 239.49 75.2799 237.51C74.4599 234.84 75.1099 234.62 73.8799 232.42C73.4499 231.64 73.2999 230.73 73.0999 229.85C72.8799 228.89 72.9899 228.03 73.0299 227.05L73.1699 224.17C73.3399 220.54 74.0399 220.06 74.3299 216.5C74.6099 212.97 75.1599 209.58 75.8399 206.09C76.0099 205.21 76.0799 204.48 76.4099 203.61C76.7799 202.6 76.9899 201.51 77.2399 200.45L77.9299 197.47L79.0999 193.2C79.3999 192.11 79.7199 191.16 79.9899 190.07L80.3399 188.58C80.8199 186.55 81.1999 184.63 81.5599 182.61C81.8099 181.25 82.8199 176.54 83.1799 175.36L83.6199 173.85L84.7999 167.43C85.0599 166.01 85.1999 164.7 85.6699 163.27C87.1299 158.84 85.9799 161.43 86.3599 156.53L86.4799 155.06C86.6199 153.3 86.6299 151.81 85.5699 150.19C84.8099 149.02 82.9199 148.43 81.6699 149.33C80.9999 149.82 80.3699 150.45 79.7099 151C76.3299 153.75 77.7299 153.87 75.1699 155.65C74.5799 156.06 74.3899 157.01 74.0799 157.68C73.3599 159.27 72.3699 160.7 71.7799 162.31C71.4799 163.1 71.4999 164 71.0099 164.75C69.8599 166.51 69.0999 168.43 68.8099 170.49C67.9899 171.39 67.9499 172.48 67.6399 173.57L66.7599 176.68C66.3999 177.97 66.0799 179.12 65.8199 180.42L64.9299 184.79C64.7099 185.85 64.6199 186.93 64.5299 188.02L64.1899 192.28L63.8499 196.45L63.6999 202.35C63.6499 204.36 63.7499 206.24 63.9299 208.25L64.0399 209.46C64.1999 211.2 64.4199 212.86 64.7099 214.6L65.1299 217.04C65.3499 218.34 65.8699 219.51 66.1899 220.77L67.7599 226.75C67.9799 227.58 68.0699 228.55 68.3599 229.32C68.7299 230.26 69.0099 231.05 69.1499 232.05L69.7999 236.87C70.0099 238.44 69.0999 238.72 68.4299 240.52C67.3299 243.45 67.4499 241.83 64.6399 244.55C63.9499 245.22 62.8999 245.53 61.9699 245.69C58.8599 246.25 55.9599 245.41 53.7199 243.26C53.3699 242.92 52.4899 242.74 52.1799 242.32C51.6999 241.67 51.4599 240.89 51.1199 240.19C50.7599 239.45 50.2899 238.73 50.0899 237.91C49.3699 235.01 49.6699 234.28 49.7199 231.48L49.8499 225.42C49.8499 224.81 49.9499 224.2 49.9499 223.57C49.9499 222.36 50.0999 221.25 50.2099 220.06C50.3399 218.73 50.4999 217.53 50.9499 216.24C51.1399 215.66 51.1999 214.9 51.3399 214.26C51.7199 212.53 51.8799 210.86 52.0499 209.1L52.3799 205.52C52.5499 203.62 52.8899 201.86 53.3499 200.02C53.6299 198.88 53.8099 197.72 54.0499 196.57L54.6499 193.67C55.4499 189.81 55.1899 188.35 55.6999 185.51L56.9799 178.35L57.3099 175.84L58.2799 169.87L59.3299 161.76C59.8199 157.96 59.9299 155.99 59.7499 152.15C59.7099 151.36 59.3499 150.55 58.9899 149.92C58.5999 149.24 57.9799 149.01 57.2299 149.06C56.5999 149.1 56.1099 149.58 55.7899 150.25C55.3999 151.06 54.5699 151.59 54.0399 152.32C52.6499 154.22 51.5599 155.95 50.5399 158.15L49.4299 160.52C49.0499 161.35 48.4299 162 48.3699 162.93C48.3099 163.87 47.8599 164.57 47.4999 165.39C47.0099 166.52 46.5899 167.77 46.2599 168.98L45.4299 172.13L44.5899 175.43C44.3699 176.28 44.2999 177.21 44.0299 178.06L43.1499 180.88C42.5799 182.71 42.2599 184.62 42.0199 186.56L41.4999 190.67L41.1399 194.35C41.0399 195.4 40.8299 196.44 40.6499 197.49C40.3699 199.17 40.1199 200.9 40.0199 202.64L39.8799 204.98L39.5599 208.67C39.4299 210.17 39.4799 211.72 39.5599 213.22L39.7399 216.52L39.9099 219.86C40.0199 222.08 40.0399 224.33 39.9099 226.59C39.7399 229.43 40.5199 231.31 40.0399 235.2C39.8699 236.63 38.5899 239.68 37.8699 241.12C37.4699 241.92 36.6199 242.33 35.9499 242.85C33.9099 244.41 31.1399 245.85 28.4899 245.22C26.1599 244.67 25.5099 244.43 23.5899 243.17C22.5199 242.46 21.5599 241.61 21.3599 240.27C20.1199 239.37 19.9899 237.97 19.5399 236.7C19.0299 235.27 18.7799 234.1 19.4099 232.61C19.5999 232.15 19.6699 231.3 19.8899 230.8L21.3999 227.28C21.8399 226.25 22.4699 225.26 23.0199 224.26L24.7999 221.05C25.2899 220.17 25.6699 219.36 25.9899 218.4C26.2099 217.75 26.6099 217.17 26.9499 216.54C27.2199 216.03 27.1799 215.25 27.4699 214.72L28.5199 212.85L29.5399 209.52C30.3799 206.79 30.7999 202.73 31.0899 199.75C31.2799 197.77 31.1499 195.73 31.0899 193.73L30.9399 189.21L30.6599 186.48C30.4899 184.88 30.1999 183.27 29.7799 181.72L28.8199 178.15L27.7199 175.83C27.2999 174.93 27.0099 174.05 26.5699 173.15C25.6899 171.36 24.6799 169.57 23.1999 168.19C22.2299 167.26 21.2999 166.32 20.2599 165.51C18.9899 164.53 17.2499 163.91 15.7399 163.92C14.5099 163.92 13.8899 163.57 13.2499 162.63C12.3999 161.39 11.8399 160.12 11.3799 158.67C10.9399 157.29 10.1399 155.99 10.2799 154.49C10.5899 151.02 10.5599 150.54 11.8299 147.61C12.4299 146.24 12.9299 144.98 13.9299 143.82C14.4099 143.27 14.8099 142.61 15.4599 142.2C16.3799 141.6 17.2899 140.89 18.0999 140.21C18.9299 139.52 23.2299 138.44 24.5499 138.15C25.1499 138.02 26.2099 138.03 26.8299 138.14L31.5899 138.97C33.4599 139.3 34.6799 140.21 35.9199 141.52C36.9499 142.61 37.8099 143.74 38.6499 144.95C39.4299 146.05 40.0399 146.89 40.4099 148.22C40.9299 150.09 41.6599 151.89 41.4999 153.91C41.4199 154.84 41.6199 155.8 42.3499 156.53C44.4399 154.85 43.6299 154.46 45.3099 151.39C45.6399 150.79 45.7199 149.81 46.1599 149.26C46.7799 148.48 47.3199 147.76 47.7999 146.9L48.9899 144.8C49.6599 143.61 50.3899 142.7 51.1899 141.66C52.1299 140.46 53.1099 139.66 54.4499 138.85C55.6699 138.11 56.7399 137.32 58.1999 136.96C61.5899 136.13 63.0899 136.72 65.7399 138.65C66.8599 139.46 67.7699 140.23 68.4099 141.54C68.7899 142.3 69.8499 142.92 69.9999 143.86L70.4399 146.59C70.4699 146.81 70.7799 147.14 70.9599 147.22C71.1299 147.3 71.6499 147.25 71.7999 147.11C72.7899 146.17 73.7799 145.19 74.7199 144.21C75.0299 143.89 75.2499 143.18 75.5599 142.91L78.2899 140.61L79.7699 139.44C80.6499 138.73 81.8299 138.34 82.7599 137.8C84.7399 136.63 86.6699 136.65 88.8199 137.18C90.8899 137.69 92.7199 138.53 94.1499 140.28C95.1599 141.51 95.7499 143.17 96.3699 144.67C97.0899 146.4 97.0799 147.95 97.0399 149.8L96.9999 152.1C96.9799 153.32 96.8999 154.52 96.5599 155.69L95.7099 158.67C95.0599 160.95 95.0599 163.76 94.3599 165.16C93.9799 165.92 93.9999 166.85 93.8799 167.7L93.4999 170.31L92.8099 174.27L92.5799 175.71L92.0899 179.21C91.9699 180.04 91.9899 180.86 91.9099 181.71L91.6299 184.68L91.4799 187.03C91.4199 188.04 91.3599 189.17 91.4999 190.16C92.0499 193.82 91.8799 195.35 92.6499 199.15L93.5199 203.45C93.6999 204.35 94.8299 208.47 95.1599 209.28C95.7599 210.74 96.4799 212.14 97.2299 213.51L98.7099 216.23L99.9499 217.76L100.94 219.97C101.35 220.89 101.9 221.68 102.28 222.61L102.91 224.13C103.43 225.39 103.79 226.76 104.03 228.12C104.23 229.27 104.09 230.51 104.01 231.7" fill="#90BEFB"/>
<path d="M20.1897 67.19C19.9497 67.08 19.6697 66.55 19.6697 66.22L19.6997 56.45L19.8397 54.42C20.2797 48.05 21.4597 48.01 22.2297 43.99C22.3797 43.25 22.6897 42.47 22.8797 41.73C23.1797 40.61 23.6297 39.68 24.1597 38.68L25.8997 35.45C26.2797 34.76 26.4997 34.1 27.0597 33.56C29.7797 30.88 33.0697 28.95 36.9297 28.48C37.9597 28.36 38.7797 28.67 39.5597 29.22C41.0497 30.25 42.5897 30.37 43.7597 31.83C44.3597 32.59 45.1297 33.31 45.3197 34.24L45.7697 36.48C45.9597 37.41 46.3597 38.16 46.2997 39.13L46.1597 41.3C46.0797 42.43 46.0497 43.53 45.5397 44.56C44.1297 47.45 44.2997 47.11 42.2697 49.63C41.8097 50.2 41.2797 50.77 40.9197 51.4C40.2297 52.6 39.3397 53.35 38.1097 53.97C37.4597 54.3 36.9897 55.09 36.4697 55.63C35.9497 56.17 35.1397 56.41 34.4397 56.86L29.9197 59.86C28.8397 60.58 27.6597 60.9 26.7097 61.86C25.8797 62.69 24.5097 63.12 23.7997 64.07C23.3597 64.67 21.8397 67.97 20.1597 67.18M62.9497 71.47C62.0397 70.46 61.1597 70.23 59.8097 70.53C58.2397 70.88 57.0697 71.74 55.9497 72.71C55.0897 73.45 54.6397 73.96 54.4197 75.11C54.2097 76.26 53.7997 77.4 53.8697 78.59C53.9797 80.19 53.9897 81.76 53.8797 83.34C53.8197 84.36 53.4597 85.37 53.2797 86.36C53.0397 87.73 52.6797 88.88 51.9797 90.08C51.7797 90.42 50.7897 93.45 49.5697 94.66L47.5597 96.64C47.0397 97.16 46.6597 97.93 45.9497 98.18C42.5397 99.37 42.4197 100.16 38.6297 100.26C37.3797 100.29 35.8797 100.33 34.7197 99.77C33.6897 99.28 32.6297 98.87 31.6897 98.28C30.5897 97.6 29.7097 96.32 28.5297 95.86C27.2297 95.35 26.7997 94.64 26.3697 93.37C25.9997 92.28 25.3397 90.81 24.6297 89.93C23.7997 88.91 23.7297 88.13 23.3497 86.89L21.9997 82.35C21.7797 81.64 20.5697 79.02 21.9997 78.29C23.1697 77.7 23.4197 79.45 26.0297 78.96C27.1597 78.75 28.4597 78.72 29.4597 78.02C31.9097 76.32 32.9697 74.56 33.0997 71.6C33.1397 70.54 33.5697 70 33.9997 69.09L35.0797 66.84C35.5897 65.78 36.5197 64.68 37.3997 63.9C38.4797 62.95 39.6797 62.35 40.7097 61.34C41.0997 60.96 41.9197 60.8 42.4197 60.56C44.2497 59.68 46.0497 58.93 47.7997 57.95C48.6497 57.47 49.3497 56.79 50.2797 56.43C52.2297 55.68 51.7497 54.24 54.3697 53.4C55.7497 52.96 56.4697 52.03 57.2897 50.94C57.8197 50.23 58.8497 49.82 59.4697 49.16C60.0497 48.55 60.3997 47.58 61.0197 47.07C62.0297 46.25 62.5497 45.43 63.1597 44.3C63.5297 43.63 64.2297 43.02 64.5297 42.25L65.6097 39.51C66.1397 38.14 66.3797 36.63 66.5997 35.15C67.1897 31.27 66.9997 26.83 65.8897 23.1L64.9697 20.03C64.2697 17.7 63.6097 16.18 62.4297 14.07C61.8297 13.01 61.3397 12.06 60.2997 11.33C58.3397 9.97003 59.3597 9.57003 56.7397 7.58003C54.8497 6.14003 54.4797 4.99003 52.4497 4.40003C51.6297 4.16003 51.0297 3.61003 50.3197 3.23003C49.0597 2.55003 47.7097 2.00003 46.3397 1.54003C45.2697 1.18003 44.0897 1.16003 42.9697 0.890029L39.9197 0.150029C38.8897 -0.0999712 37.5697 0.0100288 36.5297 0.150029C32.5697 0.710029 32.0297 0.320029 27.4597 1.39003C25.5697 1.83003 23.9597 2.90003 22.2597 3.78003C21.3897 4.24003 20.4897 4.56003 19.5897 4.97003C19.0497 5.21003 18.6697 5.77003 18.2597 6.10003L15.2797 8.52003C14.6097 9.06003 14.3197 10.27 13.6097 10.78C12.3797 11.66 11.6497 12.63 10.8197 13.85C9.7397 15.45 8.3197 16.82 7.7097 18.69C7.3397 19.8 6.7497 20.7 6.2897 21.76L5.2097 24.19C4.7097 25.33 4.1097 26.34 3.7197 27.54L2.6397 30.89L1.7397 34.51L1.3097 36.78C1.0897 37.94 0.879696 39.1 0.799696 40.3L0.619696 42.96L0.469696 45.79L0.189696 48.6L0.0496959 50.29C-0.0903041 51.98 -0.00030411 53.68 0.0796959 55.35L0.249696 59.05L0.519696 61.26C0.739696 63.01 0.959696 64.71 1.2997 66.41L1.8697 69.22L2.4597 71.97C2.6497 72.89 2.9497 73.92 3.2897 74.79C3.7997 76.09 4.1397 77.31 4.6197 78.63L5.5097 81.06L6.6597 82.88C6.3197 82.47 8.5497 87.67 8.6897 87.86L10.0597 89.72C10.8097 90.74 11.2197 91.7 11.9997 92.68L13.9897 95.17C14.4297 95.72 15.0797 96.1 15.3997 96.74C16.4297 98.79 17.3597 97.81 19.4497 100.54C20.0697 101.34 21.0497 101.7 21.9097 102.25C22.3797 102.56 22.8297 103.16 23.2797 103.51C24.7197 104.61 26.4397 105.01 28.1397 105.5L31.2197 106.4C32.3797 106.73 33.4797 107.36 34.6597 107.56C36.0097 107.8 40.0197 107.51 41.1397 107.16L44.8297 106.03C46.5397 105.5 48.4697 105.17 49.9797 104.18C51.6097 103.11 53.0497 102.05 54.8097 101.17C55.0897 101.03 57.4997 98.15 57.9097 97.64L59.7597 95.32C60.4697 94.44 61.2897 93.61 61.8797 92.62C64.9597 87.46 65.7797 84.25 66.7397 78.35C66.9097 77.31 66.3597 76.15 66.1697 75.15C65.6197 72.29 63.6697 72.24 62.9397 71.44" fill="#90BEFB"/>
<path d="M156.09 497.06C155.86 497.13 155.24 497.11 155.06 496.96C154.87 496.81 154.64 496.34 154.64 496.06L154.67 486.62L154.81 484.6C155.02 481.56 155.25 480.1 156.23 477.2C156.61 476.1 156.97 475.13 157.23 474C157.9 471.11 158.35 469.94 159.79 467.46C160.41 466.39 160.87 465.21 161.53 464.2C162.79 462.25 164.91 461.04 166.88 459.93C168.44 459.06 170.12 458.69 171.85 458.37C172.56 458.24 173.29 458.35 173.92 458.7L177.5 460.66C178.64 461.28 179.56 462.57 180.19 463.71C180.56 464.4 180.49 465.33 180.72 466.04C181.83 469.35 181.39 468.81 181.05 472.48C180.86 474.44 179.81 476.27 178.62 477.81L175.14 482.3C173.89 483.92 173.06 483.38 171.8 485.12C171.03 486.19 169.74 486.43 167.94 487.72L165.7 489.33L162.85 490.88L160.32 492.77C159.6 493.31 158.76 493.79 158.36 494.62C157.85 495.67 157.29 496.68 156.1 497.05M156.98 508.12C157.26 507.98 157.96 508.07 158.19 508.27C159.2 509.09 160.34 508.91 161.48 508.8C163.45 508.62 164.99 507.84 166.23 506.32C166.6 505.87 167.14 505.43 167.38 504.83C167.96 503.4 168.07 501.98 168.19 500.45C168.24 499.76 169.11 499.1 169.29 498.48C169.68 497.2 170.23 496.35 171.09 495.4C171.62 494.82 171.95 493.94 172.65 493.49C173.3 493.07 173.95 492.67 174.52 492.19C175.28 491.55 175.99 490.95 176.92 490.59C178.2 490.1 179.36 489.54 180.6 488.97C181.93 488.36 183.09 487.64 184.32 486.87C185.26 486.27 186.28 485.93 186.95 484.97C188.38 482.94 190.14 483.87 191.98 481.19C192.6 480.28 193.55 479.81 194.42 479.12C194.95 478.7 195.22 477.77 195.71 477.27L197.1 475.85L198.49 473.72C198.9 473.09 199.33 472.56 199.61 471.86L200.53 469.63C201.12 468.19 201.38 466.56 201.58 465L201.89 462.49C201.94 462.11 202.01 461.5 201.99 461.2L201.87 458.99C201.81 457.95 201.66 456.91 201.54 455.84C201.42 454.86 201.08 453.89 200.86 452.93C200.63 451.93 200.37 451.05 200.01 450.11C199.74 449.43 199.63 448.57 199.34 447.92L198.21 445.39L196.63 442.62C196.38 442.18 195.76 441.64 195.35 441.3C192.96 439.34 194.34 439.41 191.69 437.44C189.96 436.15 189.69 435.09 187.78 434.42C185.21 433.52 186.84 433.68 184.24 432.55C182.46 431.77 180.72 431.1 178.75 430.9C177.46 430.77 176.25 430.32 175 430.03C173.49 429.67 171.93 430.03 170.42 430.17L166.6 430.54C165.69 430.62 162.36 431.22 161.58 431.53C160.19 432.08 158.94 432.72 157.67 433.46C155.29 434.85 155.46 433.84 153.14 436.09C152.08 437.11 150.69 437.85 149.79 439.05C149.27 439.74 148.87 440.56 148.16 441.08C146.29 442.45 146.47 443.19 144.67 445.25C143.48 446.62 143.07 448.39 142.21 449.97L141.11 451.97C140.49 453.09 140.21 454.17 139.55 455.3C139.18 455.92 138.91 456.81 138.67 457.54L137.54 461.18C137.07 462.68 136.8 464.16 136.51 465.68L136.25 467.1C136.08 467.99 135.91 468.9 135.83 469.83L135.68 471.65L135.53 474.32L135.17 478.8L135.02 480.35C134.87 481.95 134.95 483.55 135.08 485.16C135.17 486.35 135.08 487.58 135.22 488.75L135.5 490.96C135.73 492.76 135.92 494.53 136.29 496.29L137.61 502.6C137.9 503.99 138.53 505.2 138.98 506.51C139.58 508.26 140.26 511.19 141.67 512.58C141.96 514.07 142.65 515.37 143.24 516.76C143.65 517.72 144.3 518.31 144.81 519.24L146.03 521.47C146.03 521.47 150.52 526.77 150.79 527.24C151.09 527.77 151.8 528.17 152.34 528.49C153.33 529.07 153.98 529.9 154.75 530.75C155.29 531.35 156.19 531.66 156.87 532.12C157.35 532.45 157.78 533.03 158.24 533.38C159.52 534.36 161.01 534.85 162.56 535.25C164.18 535.67 165.71 536.14 167.32 536.66C168.03 536.89 168.81 537.48 169.58 537.5C171.04 537.55 172.43 537.54 173.83 537.46C175.79 537.35 177.46 536.68 179.29 536.11C180.86 535.62 182.43 535.26 183.98 534.63C184.76 534.32 185.39 533.84 186.06 533.37L187.95 532.07C188.55 531.65 189.59 531.47 190.07 530.9L192.05 528.54L194.32 525.79C197.6 521.81 198.03 520.85 200 516.01C200.41 514.99 200.64 514.02 200.81 512.94C201.07 511.27 201.74 509.65 201.7 507.91C201.66 506.38 201.14 504.82 200.52 503.47C200.04 502.44 198.84 502.08 198.06 501.42C197.07 500.61 196.4 500.03 194.67 500.47C193.08 500.87 191.82 501.73 190.66 502.86C190.33 503.19 189.8 503.52 189.67 504.02C188.66 508.26 188.89 506.32 188.94 510.87C188.96 513.01 188.53 516.32 187.72 518.24L186.19 521.88C185.74 522.95 184.96 524.12 184.17 524.96C183.47 525.7 182.66 526.2 182.12 527.1C181.44 528.22 180.55 528.01 178.8 528.92C176.44 530.13 174.37 530.32 171.76 530.09C171.13 530.03 170.43 530.02 169.89 529.77L167.97 528.85C164.81 527.34 166.41 527.28 162.59 525.23C161.77 524.79 161.7 523.92 161.33 523.12C160.84 522.02 160.32 520.68 159.59 519.78C158.72 518.7 158.69 517.84 158.31 516.57L157.05 512.44C156.77 511.5 155.63 508.82 156.97 508.14" fill="#90BEFB"/>
<path d="M131.65 557.74V562.56C131.65 562.56 131.52 562.85 131.51 562.92L131.37 565.03C131.29 566.18 131.06 567.09 130.45 568.01C130.05 568.61 129.8 569.48 129.28 570C127.23 572 125.14 573.85 122.75 575.44C121.14 576.52 117.37 576.62 115.42 576.46L113.44 576.29C111.95 576.17 110.73 575.73 109.47 574.89L107.49 573.57C106.23 572.73 105.24 571.74 104.29 570.61C103.68 569.89 103.01 569.19 102.49 568.44C101.9 567.61 101.33 567.07 100.44 566.61C99.4296 566.08 98.5196 565.26 97.3196 565.1C96.6796 565.02 95.6896 564.93 95.0696 565.1C93.6896 565.5 92.3096 566.13 91.2496 567.1C89.1996 568.98 88.9896 572.18 89.6396 574.78C89.8496 575.63 90.5396 576.6 91.1896 577.15C92.2596 578.04 93.2196 579.11 94.3696 579.77C95.8296 580.61 97.1896 581.32 98.5996 582.24C99.7196 582.97 101.09 583.4 102.38 583.76C103.75 584.13 104.76 584.77 105.9 585.61C107.12 586.52 110.27 587.36 111.92 588.54C112.71 589.1 113.36 589.58 114.29 589.89C115.62 590.33 116.3 591.77 117.47 592.66C118.76 593.64 120.24 594.4 121.27 595.68C121.94 596.51 122.21 597.71 122.91 598.54L124.34 600.25C125.19 601.27 125.68 602.67 126.1 603.94L127.15 607.1C127.49 608.13 127.73 609.33 127.77 610.44L127.86 613.24C127.89 614.23 127.98 615.12 127.86 616.09L127.45 619.38C127.28 620.65 126.92 621.84 126.42 622.99L125 626.25C124.76 626.81 124.51 627.43 124.17 627.93C123.38 629.08 122.7 630.34 121.78 631.35C118.75 634.64 120.84 633.45 116.79 636.01C116.08 636.45 115.58 636.97 114.96 637.53C114.35 638.09 113.34 638.29 112.56 638.62C111.71 638.97 110.94 639.48 110.08 639.78C107.29 640.77 105.13 641.31 102.22 641.26L97.4896 641.18C95.8196 641.15 94.2596 640.56 92.6296 640.26L90.2796 639.82C89.3396 638.97 88.3496 638.72 87.2496 638.24C85.9896 637.7 83.1496 635.67 82.6296 635.47C80.5296 634.65 80.6696 633.78 78.6096 632.14C77.6596 631.38 76.9896 630.45 76.1996 629.54C75.2896 628.49 74.2396 627.6 73.9396 626.18C72.9296 625.26 72.5696 624.1 72.4696 622.75C72.4296 622.2 71.9196 621.45 71.9096 620.88C71.8296 615.28 71.3996 617.73 73.3696 613.73C73.8196 612.8 75.4896 611.97 76.4296 611.52C77.4496 611.03 79.3696 610.99 80.5196 611.14C81.4896 611.27 82.3196 612.14 83.1396 612.6C86.4196 614.43 85.2496 617.48 86.5296 621.38C87.8996 625.56 87.1596 624.4 89.6196 628.12C90.2596 629.08 91.2496 629.85 92.0996 630.62C92.8996 631.34 93.6296 631.89 94.6996 632.18C95.7296 632.46 96.6796 632.92 97.6896 633.31C101.32 634.73 102.17 633.64 103.12 633.69C105.32 633.81 107.22 633.34 109.11 632.33C109.64 632.04 110.44 631.89 110.92 631.48C111.69 630.83 112.34 629.93 113.11 629.39C114.28 628.57 114.78 627.65 115.46 626.51C117.1 623.79 116.66 625.22 117.38 621.18L117.87 618.47C118.34 615.83 117.65 613.94 116.71 611.55C116.25 610.39 115.72 609.43 114.9 608.48L113.22 606.52L109.92 604.17C108.87 603.41 108.18 602.59 106.82 602.4C103.73 601.98 103.37 600.26 100.31 599.62L96.2896 598.78C95.5996 598.64 94.8996 597.93 94.2296 597.73L89.7596 596.36C87.2496 595.59 86.5096 595.3 84.2396 593.88C81.2796 592.04 81.4696 593.19 79.2296 590.74C77.8796 589.27 76.6296 589.25 76.2096 588.63L75.0796 586.95C73.8196 586.27 73.4696 585.08 72.7296 584.08C71.8296 582.87 70.7596 581.92 70.1596 580.49L69.0696 577.9C68.8096 577.27 68.2696 576.56 68.1596 575.87L67.0496 568.67L66.9296 566.97C66.8296 565.51 67.0396 564.13 67.1496 562.68L67.3296 560.36C67.3796 559.73 67.4396 559.06 67.6396 558.47C68.0196 557.35 68.0896 556.07 68.5396 555.02L69.8596 552C70.3196 550.94 70.8696 549.81 71.4996 548.86L73.3096 546.14C73.9396 545.2 74.9896 544.5 75.6896 543.59C76.6196 542.4 77.6296 541.34 79.0396 540.72C80.4296 539.44 84.2596 537.23 86.0096 536.56C86.8596 536.23 87.7196 535.56 88.5996 535.38C90.0496 535.07 97.8196 533.91 98.7296 533.98L101.3 534.2C101.79 534.24 102.94 533.84 105.84 534.49L109.96 535.42C111.82 535.84 113.63 536.42 115.23 537.5C116.85 538.15 118.34 538.99 119.51 540.34C120.78 541.07 122.04 541.76 123.13 542.69C123.66 543.15 124.03 544.01 124.58 544.39C125.49 545.01 125.95 545.76 126.58 546.6C129.74 550.78 129.04 549.87 130.97 554.66C131.46 555.87 131.34 557.01 131.62 557.68" fill="#90BEFB"/>
</g>
<defs>
<clipPath id="clip0_2554_1436">
<rect width="201.99" height="641.29" fill="white"/>
</clipPath>
</defs>
</svg>
