<svg width="377" height="49" viewBox="0 0 377 49" fill="none" xmlns="http://www.w3.org/2000/svg">
<g clip-path="url(#clip0_2559_7900)">
<mask id="mask0_2559_7900" style="mask-type:luminance" maskUnits="userSpaceOnUse" x="0" y="0" width="377" height="49">
<path d="M376.26 0H0V48.34H376.26V0Z" fill="white"/>
</mask>
<g mask="url(#mask0_2559_7900)">
<path d="M306.22 37.92V43.91C305.73 44.26 304.94 44.38 304.36 44.48C298.52 45.54 290.64 44.78 288.79 38.13C288.67 37.72 288.48 36.75 288.48 36.28V17.66C288.47 17.2 287.97 16.72 287.55 16.71L279.62 16.69L279.59 10.75C279.59 10.46 280.25 10.03 280.56 10.03L288.45 10.01L288.48 0.94C288.48 0.67 288.64 0.16 288.71 0H295.91C296.18 0.44 296.19 0.85 296.19 1.44L296.17 9.53C296.17 10.44 297.39 10.08 297.91 10.07L305.06 10C305.44 10 306.01 10.58 306 10.92L305.95 16.7H297.33C296.71 16.72 296.14 17.26 296.14 17.91L296.16 33.45C296.16 34.5 296.68 36.01 297.32 36.79C298.51 38.23 300.6 38.66 302.37 38.43L306.22 37.92Z" fill="#90BEFB"/>
<path d="M376.26 6.21017V13.6102C374.68 13.9602 373.9 13.3602 371.08 13.7002C368.63 14.0002 366.29 14.7902 364.62 16.5702C362.59 18.7402 361.49 21.4702 361.48 24.4802L361.38 41.3302L353.24 41.2802V7.44017C353.39 7.21017 353.93 6.91017 354.18 6.91017L360.35 6.93017C360.61 6.93017 361.23 7.25017 361.24 7.47017C361.29 8.68017 360.92 11.7802 361.28 13.6402C362.82 11.4902 363.76 9.69017 365.72 8.37017C368.85 6.26017 372.67 5.43017 376.26 6.21017Z" fill="#90BEFB"/>
<path d="M228.03 6.94992V41.2999H220.31C219.69 39.6699 220.54 40.2199 220.12 38.5199C220.07 38.3499 219.38 38.4699 219.27 38.6699C217.61 41.5599 213.47 42.8099 210.24 42.3599C207.33 41.9599 204.58 40.5799 203.21 37.8199C202.52 36.4499 201.7 34.5899 201.7 32.9199L201.68 6.91992L209.79 6.94992L209.84 31.3899C209.84 32.7299 210.55 33.8699 211.39 34.6999C212.65 35.9499 214.46 36.1899 216.07 35.3399C217.77 34.4299 219.07 32.7599 219.34 30.7699C219.42 30.1799 219.85 29.1899 219.85 28.6099L219.89 6.93992H228.03V6.94992Z" fill="#90BEFB"/>
<path d="M21.0799 18.0697C20.8599 18.4197 20.0499 18.2897 19.5499 18.2697L17.4599 18.1897C15.5999 18.1197 13.8199 18.1197 11.9799 18.2297L9.36991 18.3797C9.13991 18.3997 8.50991 18.0597 8.47991 17.8497C8.45991 17.6397 8.49991 17.3097 8.55991 16.9697C8.95991 14.6897 9.83991 12.6397 11.6299 11.1797C13.7099 9.47973 16.4999 9.59973 18.4699 11.4097C20.2799 13.0897 21.7299 17.0397 21.0799 18.0697ZM28.9199 21.2897L28.0399 16.1197C27.7899 14.6497 27.1299 13.1297 26.5099 11.7597C24.6899 7.75973 21.3699 4.61973 16.9399 3.89973C11.5999 3.02973 6.87991 5.24973 3.71991 9.47973C-0.710091 15.4097 -0.970091 24.7597 1.78991 31.3497C3.41991 35.2497 6.55991 38.4597 10.6699 39.6497C13.4099 40.4397 16.0099 40.3197 18.7099 39.7297C22.4499 38.9097 25.8099 35.7497 27.3599 32.2597C27.6099 31.6797 27.8799 30.9897 27.6899 30.3197L19.6599 30.3497C18.7599 33.1797 16.1699 34.6397 13.3699 33.6097C9.78991 32.2697 8.28991 27.8697 8.33991 24.1297L28.8699 24.1097C28.9499 23.0897 29.0599 22.1297 28.9199 21.2897Z" fill="#90BEFB"/>
<path d="M334.08 19.7397C333.86 20.0997 333.05 19.9597 332.55 19.9397L330.46 19.8597C328.6 19.7897 326.82 19.7897 324.98 19.8997L322.37 20.0497C322.14 20.0697 321.51 19.7397 321.49 19.5197C321.46 19.3097 321.49 18.9797 321.56 18.6497C321.96 16.3597 322.84 14.3097 324.63 12.8497C326.71 11.1497 329.5 11.2697 331.47 13.0897C333.28 14.7597 334.73 18.7097 334.08 19.7397ZM341.92 22.9597L341.04 17.7897C340.79 16.3197 340.13 14.7997 339.51 13.4297C337.7 9.42966 334.37 6.28966 329.94 5.56966C324.6 4.69966 319.88 6.91966 316.72 11.1497C312.29 17.0797 312.03 26.4297 314.79 33.0197C316.42 36.9297 319.56 40.1297 323.67 41.3197C326.41 42.1097 329.01 41.9997 331.71 41.3997C335.45 40.5797 338.81 37.4197 340.36 33.9297C340.61 33.3497 340.88 32.6597 340.69 31.9897L332.67 32.0197C331.76 34.8497 329.17 36.3197 326.37 35.2797C322.79 33.9397 321.29 29.5397 321.34 25.7997L341.87 25.7797C341.95 24.7697 342.06 23.7997 341.92 22.9597Z" fill="#90BEFB"/>
<path d="M164.73 33.1903C164.33 34.5803 163.63 35.6403 162.65 36.6303C160.64 38.6703 157.09 38.6203 154.9 35.9703C153.25 33.9803 152.84 31.3603 152.59 28.7603C152.21 24.8503 152.55 19.2803 155.33 16.1803C156.33 15.0703 158.14 14.3603 159.64 14.6003C162.46 15.0303 164.2 17.2803 164.87 19.9103C166.05 24.5703 166.05 28.5803 164.73 33.1903ZM161.3 8.22033C158.88 7.81033 155.64 8.22033 153.37 9.26033C142.75 14.1403 141.35 31.5003 148.69 39.8003C150.15 41.4603 151.79 42.8103 153.8 43.5603C156.76 44.6903 159.74 45.0303 162.73 44.1403C168.95 42.2703 172.32 37.1803 173.61 31.0603C175.51 21.9903 171.81 10.0103 161.3 8.22033Z" fill="#90BEFB"/>
<path d="M266.88 41.0103C266.51 41.6603 263.71 41.2203 261.61 41.3703C260.58 41.4403 259.69 41.5003 258.73 41.0703L258.66 17.1303C258.66 14.5203 256.85 12.2503 254.24 12.5003C250.87 12.8103 249.25 15.4203 248.45 18.3703L248.39 41.2803L240.27 41.3303V6.95029L247.97 6.92029C249.28 8.08029 247.16 9.43029 248.82 10.5103C249.77 9.4103 250.5 8.30029 251.69 7.52029C255.12 5.30029 259.77 5.36029 263.07 7.85029C265.33 9.56029 266.86 13.9803 266.86 16.2403L266.88 41.0103Z" fill="#90BEFB"/>
<path d="M81.9598 47.93C81.5898 48.58 78.7898 48.15 76.6898 48.29C75.6598 48.36 74.7698 48.43 73.8098 47.99L73.7398 24.06C73.7398 21.45 71.9298 19.18 69.3198 19.42C65.9498 19.74 64.3198 22.35 63.5198 25.29L63.4698 48.2L55.3398 48.26V13.88L63.0498 13.84C64.3598 15 62.2398 16.35 63.8898 17.44C64.8498 16.33 65.5698 15.23 66.7698 14.45C70.1998 12.22 74.8498 12.29 78.1498 14.78C80.4098 16.49 81.9398 20.91 81.9398 23.17L81.9598 47.93Z" fill="#90BEFB"/>
<path d="M130.52 31.3304C129.81 35.6504 127.25 39.5604 123.39 41.3904C116.35 44.7504 108.19 41.5804 105.1 34.2504C104.47 32.7404 103.88 31.0504 103.58 29.3904C103.36 28.1504 103.12 24.2804 103.23 23.1504L103.47 20.5004C103.56 19.4904 103.85 18.5304 104.13 17.5404C105.05 14.3304 106.64 11.4804 109.28 9.24038C114.36 4.94038 122.76 5.01038 127.13 10.2304C128.66 12.0604 129.84 14.3604 130.38 16.7404C130.62 17.7504 129.23 17.5504 128.7 17.5104C123.6 17.1004 122.94 18.4804 122.15 16.1004C121.49 14.1104 119.71 12.5104 117.6 12.7604C113.14 13.2904 112.13 18.5004 111.8 22.0704C111.43 26.1304 111.75 34.4404 116.69 35.9004C119.8 36.8304 121.86 34.0704 122.75 31.2604L130.52 31.3304Z" fill="#90BEFB"/>
</g>
</g>
<defs>
<clipPath id="clip0_2559_7900">
<rect width="376.26" height="48.34" fill="white"/>
</clipPath>
</defs>
</svg>
