<svg width="1006" height="147" viewBox="0 0 1006 147" fill="none" xmlns="http://www.w3.org/2000/svg">
<g clip-path="url(#clip0_2559_8446)">
<mask id="mask0_2559_8446" style="mask-type:luminance" maskUnits="userSpaceOnUse" x="0" y="0" width="1006" height="147">
<path d="M1005.67 0H0V146.98H1005.67V0Z" fill="white"/>
</mask>
<g mask="url(#mask0_2559_8446)">
<path d="M69.49 102.53C69.33 106.75 67.85 111.29 63.98 113.43C50.1 121.17 33.34 112.67 23.29 102.31C16.68 95.49 11.39 88.22 6.84 79.93C6.33 79.01 5.61 78.07 5 77.53V75.19L25.01 41.65L6.68 41.49C6.11 41.49 5.16 41.14 5 41.06V39.65C6 38.85 7.27 38.71 8.77 38.61L16.74 38.08C24.42 37.57 34.64 33.98 40.43 28.74C45 24.62 49.67 19.65 52.82 14.47L56.22 8.9C56.71 8.1 57.47 7.14 58.08 6.75C58.96 6.18 60.33 6.46 60.95 7.34L53.37 20.06L42.9 38.59L62.25 38.79C62.95 38.79 63.32 40.3 63.01 40.59C62.74 40.84 61.97 41.51 61.58 41.51L41.12 41.53L27.91 64.81L21.31 76.4C26.84 88.69 34.27 101.28 46.54 108.06C51.76 110.93 58.79 113.12 63.56 109.02C65.18 107.63 66.1 104.96 66.16 102.43C66.36 95.1 61.59 88.24 57.27 82.07C57.99 81.23 61 80.66 61.92 81.62C65.46 85.29 69.68 97.41 69.5 102.53" fill="#90BEFB"/>
<path d="M234.75 113.08L194.51 113.06C193.53 113.06 191.95 111.63 192.09 110.75C192.33 109.28 193.99 110.14 195.04 110.16L202.66 110.3C202.97 110.3 204.01 109.73 203.87 109.5L203.26 108.44L192.71 90.2896L187.14 80.5595L184.05 75.2495L189.76 66.3596L195.33 57.4095C198.01 53.0896 199.59 45.8795 193.55 42.8495C186.03 39.0795 173.3 44.7295 166.95 49.1796C158.18 55.3596 151.32 62.9195 145.75 72.0295C145.05 73.1796 143.6 74.4495 144.48 75.9595L156.64 97.0096L164.1 109.75L175.28 109.81C177.21 109.81 178.97 110.87 178.29 112.59L143.37 112.57C142.22 112.57 139.85 112.12 138.8 111.98C138.23 111.9 137.63 110.44 137.57 109.89L147.01 109.69L142.09 100.74L130.54 80.5295C129.13 78.0295 129.37 72.6095 130.09 70.0195L141.97 50.4395L155.22 28.6495L166.32 10.7095C166.87 9.82955 167.26 9.00955 167.26 7.91955L145.63 7.93955C144.95 7.93955 143.3 7.21955 143.46 6.56955C143.89 4.59955 146.02 5.06955 147.72 5.06955L183.33 5.12955C183.84 5.12955 184.8 5.61955 184.66 5.84955L184.09 6.92955L180.83 12.5595L172.95 25.7495L161.17 45.7396C159.64 48.3195 158.2 50.5095 156.71 53.4595C159.31 52.2495 160.33 50.2396 162.28 48.7896C171.45 41.9896 179.83 36.5395 191.42 35.2295C198.14 34.4695 205.55 36.3396 210.08 42.0495C213.38 46.2095 213.56 52.3895 211.21 57.4496C208.3 63.7196 204.66 69.2696 200.97 75.1896L203.43 79.7795L207.87 87.5195L215.61 100.83C217.45 103.98 218.97 107.32 221.18 110.27H231.99C233.53 110.27 234.94 111.46 234.77 113.1" fill="#90BEFB"/>
<path d="M1000.66 113.08L960.42 113.06C959.44 113.06 957.86 111.63 958 110.75C958.23 109.28 959.9 110.14 960.95 110.16L968.57 110.3C968.88 110.3 969.92 109.73 969.78 109.5L969.17 108.44L958.62 90.2896L953.05 80.5595L949.96 75.2495L955.67 66.3596L961.24 57.4095C963.92 53.0896 965.5 45.8795 959.46 42.8495C951.94 39.0795 939.21 44.7295 932.86 49.1796C924.09 55.3596 917.23 62.9195 911.66 72.0295C910.96 73.1796 909.51 74.4495 910.39 75.9595L922.55 97.0096L930.02 109.75L941.2 109.81C943.13 109.81 944.89 110.87 944.21 112.59L909.29 112.57C908.14 112.57 905.77 112.12 904.72 111.98C904.15 111.9 903.55 110.44 903.49 109.89L912.93 109.69L908.01 100.74L896.46 80.5295C895.05 78.0295 895.29 72.6095 896.01 70.0195L907.89 50.4395L921.14 28.6495L932.24 10.7095C932.79 9.82955 933.18 9.00955 933.18 7.91955L911.55 7.93955C910.87 7.93955 909.22 7.21955 909.38 6.56955C909.81 4.59955 911.94 5.06955 913.64 5.06955L949.25 5.12955C949.76 5.12955 950.72 5.61955 950.58 5.84955L950.01 6.92955L946.75 12.5595L938.87 25.7495L927.09 45.7396C925.57 48.3195 924.12 50.5095 922.63 53.4595C925.23 52.2495 926.25 50.2396 928.2 48.7896C937.37 41.9896 945.75 36.5395 957.34 35.2295C964.06 34.4695 971.47 36.3396 976 42.0495C979.3 46.2095 979.48 52.3895 977.13 57.4496C974.22 63.7196 970.58 69.2696 966.89 75.1896L969.35 79.7795L973.79 87.5195L981.53 100.83C983.37 103.98 984.89 107.32 987.1 110.27H997.91C999.45 110.27 1000.86 111.46 1000.69 113.1" fill="#90BEFB"/>
<path d="M675.17 112.609L646.4 112.589L641.32 103.779L639.35 100.359L639.11 99.9495C639.11 99.9495 639.07 99.9895 639.05 100.009C638.48 100.459 638.48 101.199 638.52 102.179C638.54 104.489 638.09 107.359 636.9 109.719C636.35 110.819 635.67 111.789 634.79 112.569C634.73 112.629 634.67 112.669 634.62 112.729C631.12 115.639 626.16 116.639 621.47 116.399C608.65 115.719 599.29 112.529 589.48 104.339C579.75 96.2295 575.23 88.3495 569.08 77.1995C569.41 75.7695 570.23 74.2095 571.11 72.7095L577.99 60.7695L586.3 46.6995L589.03 41.6395H578.81C577.91 41.6395 576.93 41.6795 576.04 41.5795C576.1 39.9595 577.35 38.7695 578.81 38.7695L605.11 38.7495C605.72 38.7495 606.58 39.4695 606.36 39.8795L600.26 50.3695L596.72 56.5995L590.82 66.9995L586.54 74.5795C586.13 75.2995 585.6 77.0595 585.97 77.8195C587.96 81.6495 589.66 85.6195 591.95 89.1895C597.25 97.3595 603.87 104.359 612.47 108.889C617.2 111.369 622.56 112.799 627.69 111.799C632.34 110.899 635.62 106.909 635.8 102.089C636 97.3795 634.51 92.8095 632.38 88.5495C632.36 88.4895 632.32 88.4295 632.28 88.3695C631.56 86.8995 630.74 85.4995 629.89 84.1095L629.27 83.0895L629.23 83.0295L625.01 76.1295L627.73 71.1495L645.24 41.5195C640.88 39.9395 635.14 42.4395 632.58 41.2095C631.6 40.7195 632.7 38.7495 633.77 38.7495L661.13 38.7295C661.66 38.7295 662.87 39.1195 662.71 39.4295L661.93 40.7595L655.95 50.9995L650.73 60.0495L642.76 73.9995C641.78 75.6595 641.98 76.8695 642.96 78.5095L643.76 79.8595L644.15 80.5195L654.31 97.5795L656.69 101.509L656.77 101.669C657.16 102.349 657.53 103.059 657.92 103.759C659.01 105.809 660.17 107.859 661.58 109.759H672.39C673.93 109.759 675.34 110.949 675.17 112.589" fill="#90BEFB"/>
<path d="M362.05 36.6593L353.74 50.5693C352 50.5293 350.32 50.3893 348.62 50.2393C331.17 48.5993 318.08 60.9893 311.08 75.8593L315.09 82.6993L324.59 98.8593L331.65 110.599C336.67 112.139 344.18 108.039 346.09 113.039C344.39 114.079 342.08 113.509 340.07 113.569C336.77 113.649 333.52 113.729 330.16 113.429C325.55 113.019 320.9 113.309 316.31 113.269L303.7 113.149C302.88 113.149 302.14 111.329 302.25 110.369L314.68 110.469L306.18 95.7093L295.45 77.8893C294.82 76.8293 294.47 75.4893 295.16 74.3493L305.05 57.5593L313.49 43.0593C313.65 42.8093 313.9 42.1393 313.98 41.9093C314.1 41.5593 312.94 41.2293 312.53 41.2293L301.68 41.1293C301.09 39.6193 302.4 38.3893 303.73 38.3893L330.58 38.4093C330.93 38.4093 331.65 38.6593 331.65 38.8393C331.77 40.8693 325.05 48.9993 324.61 52.3293C335.05 40.9193 345.99 35.1493 362.03 36.6393" fill="#90BEFB"/>
<path d="M819.91 134.38C818.48 136.08 816.63 137.39 814.4 138.07C802.62 141.86 788.96 136.27 780.85 128.18L777.33 124.68C771.99 119.35 768.01 113.07 765.88 105.51C770.45 103.83 774.73 102.17 779.34 101.07C782.51 100.29 786.2 101.26 789.44 100.74C791.77 100.33 793.72 100.56 796.1 100.7C801.81 101.07 808.12 100.86 812.75 104.84C819.45 110.55 826.92 126.02 819.9 134.37M763.77 61.1299C772.41 48.1699 779.33 39.2199 795.78 37.4299C798.5 37.1199 801.1 37.6799 803.79 38.4499C806.66 39.2699 808.5 41.5999 807.76 44.8599C806.94 48.4399 804.81 51.5599 802.6 54.5699C794.8 65.2399 785.78 72.9399 771.71 72.4099C768.6 72.2899 765.01 72.0799 762.99 69.2999C761.39 67.0699 762.25 63.4399 763.77 61.1299ZM833.34 109.66C829.16 97.5999 812 89.5899 800.96 89.4499L769.07 88.9799C764.28 88.8999 759.73 87.5899 755.49 85.7599C750.8 83.6899 747.3 79.7599 746.13 74.4799C749.32 73.6799 753.09 72.4299 756.14 72.4899C768.65 76.6899 786.04 75.4599 798.35 71.8799C803.68 70.3399 807.93 67.4099 812.05 63.9699C817.13 59.7099 820.79 53.8899 821.37 47.0799C821.63 44.0299 817.48 40.3999 818.79 39.7899L823.71 39.8699C825.94 39.9299 828.32 40.4699 830.53 39.7099C831.37 39.2599 829.87 36.8199 828.87 36.8199L817.22 36.9399C815.48 36.9399 813.45 36.8999 811.77 36.5699L807.43 35.7099C795.98 33.3999 779.74 34.6699 769.05 39.7499C760.18 43.9499 749.55 51.6299 748.35 62.1099C747.98 65.3899 752.82 69.9299 751.55 70.2599L750.2 70.5699L735.19 74.0299C735.8 87.4299 743.93 98.2399 758.05 100.06L768.02 101.31L753.79 105.71C754.73 112.96 758.93 118.86 764.22 123.75C769.59 128.71 775.28 132.91 782.06 135.89C788.33 138.68 794.65 140.78 801.21 141.99H813.39C819.68 140.35 826.03 138.08 830.55 132.92C834.58 128.31 836.04 121.6 835.12 115.7C834.96 114.63 834.36 112.1 833.8 110.85L833.33 109.66H833.34Z" fill="#90BEFB"/>
<path d="M492.76 108.399C491.24 111.569 487.21 112.839 483.75 113.249C472.83 114.539 463.58 106.509 456.53 99.4095C454.69 97.5495 452.95 95.7795 451.35 93.7995L438.37 77.7895L442.63 72.1795C445.21 68.7995 447.48 65.2395 450.21 62.0195L455.8 55.3995C462.64 47.3095 474.38 37.4795 485.78 40.1995C498.74 43.2695 493.52 61.2995 489.63 69.4895L486.23 76.6195C488.22 80.2195 489.98 83.5995 491.58 87.3295C492.58 89.6495 493.01 92.1795 493.61 94.6995C494.72 99.2695 494.92 103.869 492.75 108.399M506.21 83.0695L503.4 76.2295C508.79 64.5595 513.19 49.6895 500.35 41.2095C494.62 37.4195 488.14 36.5595 481.22 36.8095C470.35 37.1995 460.21 41.0295 451.26 47.0695C449.03 48.5895 446.86 49.8095 444.85 51.4895C435.57 59.2295 427.96 68.2595 422.06 78.7695C425.27 84.8695 433.38 94.2495 438.42 98.2695C444.5 103.139 450.56 107.729 457.75 110.719C464.12 113.379 470.33 115.209 477.19 116.109C486 117.259 497.53 115.369 504.3 108.879C506.45 106.809 507.82 103.429 508.5 100.539C509.93 94.5995 508.52 88.5995 506.21 83.0695Z" fill="#90BEFB"/>
<path d="M59.6099 115.87C58.2699 113.46 59.1399 110.41 61.5499 109.07C63.9699 107.73 67.0099 108.6 68.3499 111.01C69.6899 113.43 68.8299 116.47 66.4099 117.81C65.6399 118.24 64.8099 118.44 63.9899 118.44C62.2299 118.44 60.5299 117.52 59.6099 115.87Z" fill="black"/>
<path d="M40.4296 119.35C37.8196 118.44 36.4396 115.6 37.3396 112.99C38.2396 110.38 41.0896 108.99 43.6996 109.89C46.3096 110.8 47.6896 113.64 46.7896 116.25C46.0796 118.32 44.1396 119.62 42.0696 119.62C41.5196 119.62 40.9696 119.53 40.4296 119.35Z" fill="black"/>
<path d="M2.45978 82.35C1.12978 79.93 2.00978 76.89 4.42978 75.56C6.84978 74.23 9.88978 75.12 11.2198 77.54C12.5498 79.96 11.6698 83 9.24978 84.33C8.47978 84.75 7.65978 84.95 6.84978 84.95C5.07978 84.95 3.36978 84.01 2.45978 82.35Z" fill="black"/>
<path d="M1.64997 81.25C-0.400028 79.4 -0.560028 76.24 1.28997 74.19C3.14997 72.14 6.30997 71.98 8.35997 73.83C10.41 75.68 10.56 78.84 8.70997 80.89C7.72997 81.99 6.36997 82.54 4.99997 82.54C3.80997 82.54 2.60997 82.12 1.64997 81.25Z" fill="black"/>
<path d="M0 75.2002C0 72.4402 2.24 70.2002 5 70.2002C7.76 70.2002 10 72.4402 10 75.2002C10 77.9602 7.76 80.2002 5 80.2002C2.24 80.2002 0 77.9602 0 75.2002Z" fill="black"/>
<path d="M22.4496 45.9596C20.0796 44.5396 19.3096 41.4696 20.7196 39.0996C22.1396 36.7296 25.2096 35.9496 27.5796 37.3696C29.9496 38.7796 30.7196 41.8496 29.3096 44.2196C28.3696 45.7896 26.7096 46.6596 25.0096 46.6596C24.1396 46.6596 23.2596 46.4396 22.4496 45.9596Z" fill="black"/>
<path d="M6.63982 46.5101C3.87982 46.4801 1.65982 44.2201 1.67982 41.4601C1.70982 38.7001 3.96982 36.4801 6.72982 36.5101C9.48982 36.5301 11.7098 38.7901 11.6798 41.5501C11.6598 44.3001 9.42982 46.5101 6.67982 46.5101H6.63982Z" fill="black"/>
<path d="M4.49027 46.18C4.16027 46.09 3.87027 45.99 3.63027 45.9C3.34027 45.8 3.25027 45.78 2.79027 45.56C0.31027 44.33 -0.69973 41.33 0.52027 38.86C1.71027 36.46 4.57027 35.43 7.00027 36.49C7.00027 36.49 7.11027 36.53 7.16027 36.54C9.82027 37.28 11.3803 40.03 10.6503 42.69C10.0303 44.91 8.02027 46.36 5.83027 46.36C5.39027 46.36 4.94027 46.3 4.49027 46.18Z" fill="black"/>
<path d="M0 40.3699V39.6699C0 36.9099 2.24 34.6699 5 34.6699C7.76 34.6699 10 36.9099 10 39.6699V40.3699C10 43.1299 7.76 45.3699 5 45.3699C2.24 45.3699 0 43.1299 0 40.3699Z" fill="black"/>
<path d="M3.7901 38.9496C3.6101 36.1996 5.7001 33.8196 8.4601 33.6396C11.2101 33.4696 13.5901 35.5496 13.7701 38.3096C13.9401 41.0696 11.8501 43.4396 9.1001 43.6196C8.9901 43.6196 8.8801 43.6196 8.7701 43.6196C6.1601 43.6196 3.9601 41.5896 3.7901 38.9396V38.9496Z" fill="black"/>
<path d="M11.7599 38.4394C11.5799 35.6794 13.6599 33.2994 16.4199 33.1194C19.1699 32.9294 21.5599 35.0194 21.7399 37.7794C21.9199 40.5294 19.8399 42.9094 17.0799 43.0994C16.9699 43.0994 16.8499 43.1094 16.7399 43.1094C14.1299 43.1094 11.9399 41.0794 11.7599 38.4394Z" fill="black"/>
<path d="M36.7301 32.1202C34.8701 30.0702 35.0301 26.9102 37.0801 25.0602C39.1301 23.2002 42.2901 23.3602 44.1401 25.4102C45.9901 27.4602 45.8401 30.6202 43.7901 32.4702C42.8301 33.3402 41.6301 33.7602 40.4401 33.7602C39.0701 33.7602 37.7101 33.2102 36.7301 32.1202Z" fill="black"/>
<path d="M50.2302 18.7703C47.8702 17.3403 47.1202 14.2603 48.5502 11.9003C49.9802 9.54027 53.0602 8.79027 55.4202 10.2303C57.7802 11.6603 58.5302 14.7303 57.1002 17.1003C56.1602 18.6403 54.5102 19.5003 52.8202 19.5003C51.9302 19.5003 51.0402 19.2603 50.2302 18.7703Z" fill="black"/>
<path d="M53.6196 13.1994C51.2596 11.7594 50.5196 8.67939 51.9596 6.31939C53.3996 3.96939 56.4696 3.21939 58.8296 4.65939C61.1896 6.09939 61.9296 9.17939 60.4896 11.5294C59.5496 13.0794 57.8996 13.9294 56.2196 13.9294C55.3296 13.9294 54.4296 13.6894 53.6196 13.1994Z" fill="black"/>
<path d="M53.8797 9.48937C52.3797 7.16937 53.0497 4.07937 55.3697 2.57937C57.6897 1.07937 60.7797 1.74937 62.2797 4.05937C63.7797 6.37937 63.1197 9.47937 60.7997 10.9794C59.9597 11.5194 59.0197 11.7794 58.0897 11.7794C56.4497 11.7794 54.8397 10.9694 53.8797 9.48937Z" fill="black"/>
<path d="M56.8805 10.2596C55.2805 8.00964 55.8105 4.88964 58.0605 3.28964C60.3105 1.68964 63.4305 2.21964 65.0305 4.46964C66.6305 6.71964 66.1005 9.83964 63.8505 11.4396C62.9705 12.0596 61.9605 12.3596 60.9605 12.3596C59.3905 12.3596 57.8505 11.6296 56.8805 10.2596Z" fill="black"/>
<path d="M50.8095 24.3802C48.4395 22.9702 47.6595 19.9002 49.0795 17.5302C50.4895 15.1602 53.5595 14.3802 55.9295 15.7902C58.2995 17.2102 59.0795 20.2802 57.6695 22.6502C56.7295 24.2202 55.0695 25.0902 53.3695 25.0902C52.4995 25.0902 51.6095 24.8602 50.8095 24.3802Z" fill="black"/>
<path d="M40.4401 42.9697C38.0301 41.6097 37.1901 38.5597 38.5401 36.1497C39.9001 33.7497 42.9501 32.8997 45.3601 34.2597C47.7601 35.6197 48.6101 38.6697 47.2501 41.0697C46.3301 42.6997 44.6401 43.6097 42.8901 43.6097C42.0601 43.6097 41.2101 43.4097 40.4401 42.9697Z" fill="black"/>
<path d="M62.1904 43.8099C59.4304 43.7799 57.2204 41.5199 57.2404 38.7599C57.2704 35.9999 59.5304 33.7799 62.2904 33.8099C65.0604 33.8399 67.2704 36.0999 67.2404 38.8599C67.2104 41.5999 64.9804 43.8099 62.2404 43.8099H62.1904Z" fill="black"/>
<path d="M59.3704 44.04C57.4704 42.02 57.5704 38.86 59.5804 36.97C61.5904 35.07 64.7504 35.17 66.6504 37.18C68.5404 39.19 68.4404 42.35 66.4404 44.25C65.4704 45.16 64.2404 45.61 63.0104 45.61C61.6804 45.61 60.3504 45.08 59.3704 44.04Z" fill="black"/>
<path d="M56.5801 41.5301C56.5801 39.3901 57.9201 37.5701 59.8001 36.8501C61.9901 35.5501 64.8601 36.1101 66.3901 38.2101C68.0101 40.4501 67.5201 43.5701 65.2901 45.2001C65.0101 45.4001 64.6901 45.6201 64.2001 45.8701C63.6901 46.0901 63.0901 46.4801 61.5801 46.5301C58.8201 46.5301 56.5801 44.2901 56.5801 41.5301Z" fill="black"/>
<path d="M36.1201 41.5498C36.1201 38.7898 38.3501 36.5498 41.1101 36.5498C43.8701 36.5398 46.1101 38.7798 46.1201 41.5398C46.1201 44.2998 43.8901 46.5398 41.1201 46.5498C38.3601 46.5498 36.1201 44.3098 36.1201 41.5498Z" fill="black"/>
<path d="M25.44 69.1702C23.04 67.8002 22.2 64.7502 23.56 62.3502C24.92 59.9502 27.97 59.1102 30.37 60.4702C32.78 61.8302 33.62 64.8902 32.25 67.2902C31.33 68.9102 29.64 69.8202 27.9 69.8202C27.07 69.8202 26.22 69.6102 25.44 69.1702Z" fill="black"/>
<path d="M18.8295 80.7496C16.4295 79.3796 15.5895 76.3296 16.9595 73.9296C18.3295 71.5296 21.3795 70.6996 23.7795 72.0596C26.1795 73.4296 27.0095 76.4896 25.6495 78.8796C24.7195 80.4996 23.0395 81.4096 21.2995 81.4096C20.4595 81.4096 19.6095 81.1996 18.8295 80.7496Z" fill="black"/>
<path d="M44.1103 112.44C41.7003 111.11 40.8203 108.07 42.1603 105.65C43.4903 103.23 46.5303 102.36 48.9503 103.69C51.3703 105.03 52.2403 108.07 50.9103 110.49C50.0003 112.14 48.2903 113.07 46.5303 113.07C45.7103 113.07 44.8803 112.87 44.1103 112.44Z" fill="black"/>
<path d="M59.7598 112.29C57.9598 110.19 58.1998 107.04 60.2898 105.24C62.3898 103.43 65.5398 103.67 67.3398 105.76C69.1398 107.86 68.9098 111.02 66.8098 112.82C65.8698 113.63 64.7098 114.02 63.5498 114.02C62.1498 114.02 60.7498 113.44 59.7598 112.29Z" fill="black"/>
<path d="M66.0396 107.44C63.2696 107.37 61.0896 105.08 61.1496 102.32C61.2196 99.5597 63.5096 97.3797 66.2696 97.4397C69.0296 97.4997 71.2096 99.7897 71.1496 102.55C71.0896 105.28 68.8596 107.44 66.1496 107.44H66.0396Z" fill="black"/>
<path d="M53.1595 84.9398C51.5795 82.6798 52.1295 79.5598 54.3895 77.9798C56.6595 76.3998 59.7695 76.9498 61.3595 79.2098C62.9395 81.4698 62.3895 84.5898 60.1295 86.1698C59.2495 86.7798 58.2495 87.0798 57.2695 87.0798C55.6895 87.0798 54.1395 86.3298 53.1595 84.9398Z" fill="black"/>
<path d="M58.2998 85.0894C56.3898 83.0994 56.4598 79.9294 58.4498 78.0194C60.4398 76.1094 63.6098 76.1694 65.5198 78.1594C67.4298 80.1494 67.3698 83.3194 65.3698 85.2294C64.3998 86.1594 63.1598 86.6294 61.9098 86.6294C60.5998 86.6294 59.2898 86.1094 58.2998 85.0894Z" fill="black"/>
<path d="M69.3304 107.53C66.5704 107.44 64.4004 105.13 64.5004 102.37C64.5904 99.6098 66.9004 97.4498 69.6604 97.5398C72.4204 97.6298 74.5804 99.9398 74.4904 102.7C74.4004 105.4 72.1804 107.54 69.5004 107.54C69.4404 107.54 69.3804 107.54 69.3304 107.54V107.53Z" fill="black"/>
<path d="M194.51 118.06C191.75 118.06 189.51 115.82 189.52 113.06C189.52 110.3 191.76 108.06 194.52 108.06C197.28 108.06 199.52 110.3 199.52 113.06C199.51 115.82 197.28 118.06 194.52 118.06H194.51Z" fill="black"/>
<path d="M191.3 115.689C188.58 115.259 186.72 112.689 187.16 109.969C187.59 107.239 190.16 105.379 192.88 105.819C195.61 106.259 197.47 108.819 197.03 111.549C196.64 113.999 194.51 115.759 192.1 115.759C191.84 115.759 191.57 115.739 191.3 115.689Z" fill="black"/>
<path d="M194.94 115.17C192.18 115.11 189.99 112.83 190.05 110.07C190.1 107.31 192.39 105.11 195.15 105.17C197.91 105.23 200.1 107.51 200.04 110.27C199.99 113 197.76 115.17 195.04 115.17H194.94Z" fill="black"/>
<path d="M202.58 115.309C199.82 115.259 197.62 112.979 197.67 110.219C197.72 107.459 199.99 105.259 202.75 105.309C205.52 105.359 207.71 107.629 207.67 110.389C207.62 113.129 205.39 115.309 202.67 115.309H202.58Z" fill="black"/>
<path d="M199.56 112.029C198.17 109.649 198.97 106.589 201.35 105.189C203.73 103.799 206.79 104.599 208.19 106.979C209.59 109.359 208.79 112.419 206.41 113.819C205.61 114.289 204.74 114.509 203.88 114.509C202.17 114.509 200.49 113.619 199.56 112.029Z" fill="black"/>
<path d="M199.24 111.47L198.94 110.94C197.56 108.55 198.39 105.49 200.78 104.12C203.18 102.74 206.23 103.57 207.61 105.96L207.91 106.49C209.29 108.88 208.46 111.94 206.07 113.31C205.28 113.76 204.42 113.98 203.58 113.98C201.85 113.98 200.16 113.08 199.24 111.47Z" fill="black"/>
<path d="M179.73 77.7497C178.35 75.3597 179.17 72.2997 181.56 70.9197C183.95 69.5397 187.01 70.3497 188.39 72.7397C189.77 75.1297 188.96 78.1897 186.56 79.5797C185.78 80.0297 184.92 80.2497 184.07 80.2497C182.34 80.2497 180.66 79.3497 179.73 77.7497Z" fill="black"/>
<path d="M187.07 70.5601C184.74 69.0701 184.07 65.9801 185.56 63.6601C187.05 61.3301 190.15 60.6601 192.47 62.1501C194.79 63.6401 195.47 66.7301 193.98 69.0601C193.02 70.5401 191.41 71.3601 189.76 71.3601C188.84 71.3601 187.9 71.1001 187.07 70.5601Z" fill="black"/>
<path d="M192.69 61.6502C190.35 60.1902 189.63 57.1102 191.09 54.7602C192.55 52.4202 195.63 51.7002 197.98 53.1602C200.32 54.6202 201.04 57.7002 199.58 60.0502C198.64 61.5702 197 62.4102 195.33 62.4102C194.43 62.4102 193.52 62.1602 192.69 61.6502Z" fill="black"/>
<path d="M191.32 47.3194C188.85 46.0794 187.85 43.0694 189.09 40.5994C190.33 38.1394 193.33 37.1394 195.8 38.3794C198.27 39.6194 199.27 42.6194 198.03 45.0894C197.15 46.8394 195.39 47.8494 193.55 47.8494C192.8 47.8494 192.04 47.6794 191.32 47.3194Z" fill="black"/>
<path d="M162.87 52.0501C161.28 49.7901 161.83 46.6701 164.09 45.0901C166.35 43.5001 169.47 44.0501 171.06 46.3101C172.64 48.5701 172.09 51.6901 169.83 53.2701C168.96 53.8801 167.96 54.1801 166.97 54.1801C165.39 54.1801 163.84 53.4401 162.87 52.0501Z" fill="black"/>
<path d="M143.15 76.2898C140.79 74.8498 140.05 71.7698 141.49 69.4098C142.93 67.0598 146.01 66.3198 148.37 67.7598C150.72 69.1998 151.47 72.2798 150.03 74.6298C149.08 76.1698 147.44 77.0198 145.75 77.0198C144.86 77.0198 143.96 76.7898 143.15 76.2898Z" fill="black"/>
<path d="M140.17 78.4702C138.78 76.0902 139.58 73.0202 141.97 71.6302C144.35 70.2402 147.42 71.0502 148.81 73.4302C150.2 75.8202 149.39 78.8802 147.01 80.2702C146.22 80.7302 145.35 80.9502 144.49 80.9502C142.77 80.9502 141.1 80.0602 140.17 78.4702Z" fill="black"/>
<path d="M152.31 99.5001C150.93 97.1101 151.75 94.0501 154.14 92.6701C156.53 91.2901 159.59 92.1101 160.97 94.5001C162.36 96.8901 161.54 99.9501 159.14 101.33C158.36 101.78 157.5 102 156.65 102C154.92 102 153.24 101.1 152.31 99.5001Z" fill="black"/>
<path d="M159.79 112.27C158.4 109.88 159.2 106.82 161.58 105.42C163.96 104.03 167.03 104.83 168.42 107.21C169.82 109.6 169.02 112.66 166.64 114.05C165.84 114.52 164.97 114.74 164.11 114.74C162.4 114.74 160.72 113.86 159.79 112.27Z" fill="black"/>
<path d="M175.26 114.8C172.5 114.78 170.27 112.53 170.29 109.77C170.3 107.01 172.55 104.78 175.31 104.8C178.08 104.82 180.3 107.07 180.29 109.83C180.27 112.58 178.04 114.8 175.29 114.8H175.26Z" fill="black"/>
<path d="M176.45 117.22C173.88 116.2 172.63 113.29 173.65 110.72C174.67 108.16 177.58 106.91 180.15 107.93C182.71 108.95 183.96 111.86 182.94 114.42C182.16 116.38 180.28 117.57 178.3 117.57C177.68 117.57 177.05 117.46 176.45 117.22Z" fill="black"/>
<path d="M143.37 117.55C140.61 117.55 138.37 115.31 138.38 112.55C138.38 109.79 140.61 107.55 143.38 107.55C146.14 107.55 148.38 109.79 148.37 112.56C148.37 115.32 146.13 117.55 143.38 117.55H143.37Z" fill="black"/>
<path d="M138.16 116.93C135.42 116.57 133.49 114.07 133.84 111.33C134.2 108.59 136.7 106.66 139.44 107.01C142.18 107.36 144.11 109.87 143.76 112.61C143.44 115.13 141.29 116.97 138.81 116.97C138.59 116.97 138.38 116.96 138.16 116.93Z" fill="black"/>
<path d="M132.6 110.41C132.3 107.67 134.29 105.2 137.03 104.91C139.78 104.61 142.25 106.6 142.54 109.34C142.84 112.09 140.85 114.55 138.11 114.85C137.92 114.87 137.74 114.88 137.56 114.88C135.04 114.88 132.87 112.98 132.6 110.41Z" fill="black"/>
<path d="M142.01 109.78C141.95 107.02 144.14 104.74 146.9 104.68C149.67 104.62 151.95 106.82 152.01 109.58C152.06 112.34 149.87 114.62 147.11 114.68H147.01C144.29 114.68 142.07 112.51 142.01 109.78Z" fill="black"/>
<path d="M137.7 103.139C136.37 100.719 137.26 97.6794 139.67 96.3494C142.09 95.0194 145.13 95.8994 146.47 98.3194C147.8 100.739 146.91 103.779 144.49 105.109C143.73 105.529 142.9 105.729 142.09 105.729C140.32 105.729 138.61 104.799 137.7 103.139Z" fill="black"/>
<path d="M126.19 83.0096C124.82 80.6096 125.66 77.5496 128.05 76.1796C130.45 74.8096 133.51 75.6496 134.88 78.0396C136.25 80.4396 135.41 83.4996 133.02 84.8696C132.23 85.3096 131.38 85.5296 130.54 85.5296C128.81 85.5296 127.12 84.6196 126.19 83.0096Z" fill="black"/>
<path d="M128.75 74.8298C126.09 74.0898 124.53 71.3298 125.27 68.6698C126.01 66.0098 128.76 64.4498 131.42 65.1898C134.09 65.9298 135.64 68.6898 134.9 71.3498C134.29 73.5598 132.28 75.0098 130.09 75.0098C129.65 75.0098 129.2 74.9498 128.75 74.8298Z" fill="black"/>
<path d="M139.37 54.6999C137.01 53.2699 136.26 50.1999 137.69 47.8299C139.12 45.4699 142.2 44.7199 144.56 46.1499C146.92 47.5899 147.67 50.6599 146.24 53.0199C145.3 54.5699 143.65 55.4299 141.96 55.4299C141.08 55.4299 140.18 55.1999 139.37 54.6999Z" fill="black"/>
<path d="M152.62 32.9099C150.26 31.4799 149.51 28.3999 150.95 26.0399C152.38 23.6799 155.46 22.9299 157.81 24.3699C160.17 25.7999 160.92 28.8799 159.49 31.2399C158.55 32.7899 156.9 33.6399 155.21 33.6399C154.33 33.6399 153.43 33.3999 152.62 32.9099Z" fill="black"/>
<path d="M163.69 14.9499C161.34 13.4999 160.61 10.4199 162.06 8.06988C163.52 5.71988 166.6 4.98988 168.95 6.44988C171.3 7.89988 172.02 10.9799 170.57 13.3299C169.62 14.8599 167.99 15.6999 166.31 15.6999C165.42 15.6999 164.51 15.4599 163.69 14.9499Z" fill="black"/>
<path d="M162.26 7.89941C162.26 5.13941 164.49 2.89941 167.25 2.89941C170.02 2.89941 172.26 5.13941 172.26 7.89941C172.26 10.6694 170.02 12.9094 167.25 12.9094C164.49 12.9094 162.26 10.6694 162.26 7.89941Z" fill="black"/>
<path d="M140.62 7.92992C140.62 5.16992 142.86 2.92992 145.62 2.91992C148.38 2.91992 150.62 5.15992 150.62 7.91992C150.62 10.6799 148.39 12.9199 145.63 12.9199C142.86 12.9299 140.63 10.6899 140.62 7.92992Z" fill="black"/>
<path d="M142.3 11.4194C139.61 10.7794 137.95 8.0894 138.59 5.3994C139.23 2.7194 141.92 1.0494 144.61 1.6894C147.29 2.3294 148.96 5.0294 148.32 7.7094C147.77 10.0094 145.72 11.5594 143.46 11.5594C143.07 11.5594 142.69 11.5094 142.3 11.4194Z" fill="black"/>
<path d="M142.71 5.0498C142.71 2.2898 144.95 0.0498047 147.71 0.0498047C150.47 0.0498047 152.71 2.2898 152.71 5.0498C152.71 7.8098 150.47 10.0498 147.71 10.0498C144.95 10.0498 142.71 7.8098 142.71 5.0498Z" fill="black"/>
<path d="M183.31 10.1094C180.55 10.1094 178.32 7.85941 178.32 5.09941C178.32 2.33941 180.57 0.0994084 183.33 0.109408C186.09 0.109408 188.32 2.35941 188.32 5.11941C188.31 7.87941 186.08 10.1094 183.32 10.1094H183.31Z" fill="black"/>
<path d="M182.14 10.1595C179.75 8.76948 178.94 5.70949 180.32 3.31949C181.71 0.939485 184.77 0.119485 187.16 1.50949C189.55 2.89949 190.36 5.95949 188.97 8.33949C188.04 9.93949 186.37 10.8295 184.64 10.8295C183.79 10.8295 182.93 10.6095 182.14 10.1595Z" fill="black"/>
<path d="M181.75 11.3298C179.31 10.0398 178.37 7.01982 179.66 4.57982L179.94 4.03982C181.23 1.59982 184.25 0.659821 186.7 1.94982C189.14 3.23982 190.08 6.25982 188.79 8.69982L188.5 9.23982C187.61 10.9398 185.87 11.9098 184.08 11.9098C183.29 11.9098 182.49 11.7198 181.75 11.3298Z" fill="black"/>
<path d="M170.39 30.0302C168.02 28.6202 167.23 25.5602 168.64 23.1802C170.05 20.8102 173.11 20.0202 175.49 21.4202C177.86 22.8302 178.65 25.9002 177.24 28.2702C176.31 29.8502 174.65 30.7302 172.94 30.7302C172.07 30.7302 171.19 30.5002 170.39 30.0302Z" fill="black"/>
<path d="M158.62 50.03C156.24 48.62 155.45 45.56 156.85 43.18C158.25 40.8 161.32 40.01 163.7 41.41C166.08 42.81 166.87 45.88 165.47 48.26C164.53 49.84 162.87 50.72 161.15 50.72C160.29 50.72 159.42 50.5 158.62 50.03Z" fill="black"/>
<path d="M154.45 57.9C151.99 56.66 150.99 53.66 152.23 51.19C153.48 48.72 156.48 47.73 158.95 48.97C161.42 50.21 162.41 53.22 161.17 55.69C160.29 57.43 158.53 58.44 156.7 58.44C155.94 58.44 155.17 58.27 154.45 57.9Z" fill="black"/>
<path d="M158.25 51.7397C156.61 49.5197 157.08 46.3897 159.3 44.7497C161.52 43.1097 164.65 43.5697 166.29 45.7997C167.93 48.0097 167.47 51.1497 165.24 52.7897C164.35 53.4497 163.31 53.7697 162.28 53.7697C160.75 53.7697 159.23 53.0697 158.25 51.7397Z" fill="black"/>
<path d="M186.44 35.7701C186.13 33.0201 188.11 30.5501 190.85 30.2401C193.59 29.9301 196.07 31.9001 196.38 34.6401C196.69 37.3901 194.71 39.8601 191.97 40.1701C191.78 40.1901 191.59 40.2101 191.4 40.2101C188.89 40.2101 186.73 38.3201 186.44 35.7701Z" fill="black"/>
<path d="M206.16 45.1399C204.44 42.9699 204.8 39.8299 206.96 38.1099C209.12 36.3899 212.27 36.7499 213.99 38.9099C215.71 41.0799 215.34 44.2199 213.18 45.9399C212.26 46.6699 211.17 47.0299 210.07 47.0299C208.6 47.0299 207.14 46.3799 206.16 45.1399Z" fill="black"/>
<path d="M209.1 61.9599C206.6 60.7999 205.51 57.8299 206.67 55.3199C207.83 52.8199 210.8 51.7299 213.31 52.8899C215.81 54.0499 216.9 57.0199 215.74 59.5299C214.9 61.3499 213.09 62.4299 211.2 62.4299C210.5 62.4299 209.78 62.2799 209.1 61.9599Z" fill="black"/>
<path d="M198.32 79.4096C195.98 77.9496 195.26 74.8696 196.72 72.5196C198.18 70.1796 201.27 69.4696 203.61 70.9296C205.96 72.3896 206.67 75.4696 205.21 77.8096C204.26 79.3396 202.63 80.1696 200.96 80.1696C200.06 80.1696 199.14 79.9296 198.32 79.4096Z" fill="black"/>
<path d="M199.02 82.1295C197.72 79.6895 198.63 76.6595 201.06 75.3595C203.5 74.0495 206.53 74.9695 207.83 77.3995C209.14 79.8295 208.23 82.8595 205.79 84.1695C205.04 84.5695 204.23 84.7595 203.43 84.7595C201.65 84.7595 199.92 83.8095 199.02 82.1295Z" fill="black"/>
<path d="M203.52 89.9896C202.15 87.5896 202.98 84.5396 205.38 83.1596C207.77 81.7896 210.83 82.6196 212.2 85.0096C213.58 87.4096 212.75 90.4596 210.35 91.8396C209.57 92.2896 208.71 92.4996 207.87 92.4996C206.14 92.4996 204.45 91.5996 203.52 89.9896Z" fill="black"/>
<path d="M211.28 103.32C209.89 100.93 210.7 97.8702 213.09 96.4902C215.48 95.1002 218.54 95.9102 219.92 98.3002C221.31 100.68 220.5 103.74 218.11 105.13C217.32 105.59 216.46 105.81 215.61 105.81C213.89 105.81 212.21 104.92 211.28 103.32Z" fill="black"/>
<path d="M217.17 113.24C215.51 111.03 215.97 107.9 218.18 106.25C220.39 104.59 223.52 105.04 225.18 107.25C226.83 109.46 226.38 112.6 224.17 114.25C223.27 114.92 222.22 115.25 221.18 115.25C219.65 115.25 218.15 114.56 217.17 113.24Z" fill="black"/>
<path d="M226.98 110.25C226.98 107.49 229.22 105.25 231.98 105.25C234.74 105.25 236.98 107.49 236.98 110.25C236.98 113.01 234.74 115.25 231.98 115.25C229.22 115.25 226.98 113.01 226.98 110.25Z" fill="black"/>
<path d="M234.23 118.05C231.48 117.76 229.49 115.3 229.78 112.56C230.07 109.81 232.53 107.82 235.28 108.11C238.02 108.4 240.02 110.86 239.73 113.61C239.46 116.17 237.29 118.08 234.76 118.08C234.59 118.08 234.41 118.08 234.23 118.05Z" fill="black"/>
<path d="M960.42 118.06C957.66 118.06 955.42 115.82 955.42 113.06C955.42 110.3 957.66 108.06 960.42 108.06C963.18 108.06 965.42 110.3 965.42 113.06C965.42 115.83 963.18 118.06 960.42 118.06Z" fill="black"/>
<path d="M957.2 115.69C954.47 115.25 952.62 112.68 953.06 109.95C953.5 107.23 956.07 105.38 958.8 105.82C961.52 106.26 963.38 108.83 962.93 111.56C962.53 114.01 960.41 115.76 958 115.76C957.74 115.76 957.47 115.74 957.2 115.69Z" fill="black"/>
<path d="M960.84 115.17C958.09 115.11 955.89 112.83 955.95 110.07C956.01 107.31 958.29 105.11 961.05 105.17C963.81 105.23 966 107.51 965.95 110.27C965.89 113 963.66 115.17 960.95 115.17H960.84Z" fill="black"/>
<path d="M968.48 115.299C965.72 115.259 963.52 112.979 963.57 110.219C963.62 107.459 965.9 105.259 968.66 105.309C971.42 105.359 973.62 107.629 973.57 110.399C973.52 113.129 971.29 115.309 968.57 115.309C968.57 115.309 968.51 115.309 968.48 115.309V115.299Z" fill="black"/>
<path d="M965.47 112.03C964.07 109.65 964.87 106.59 967.25 105.19C969.63 103.8 972.7 104.59 974.09 106.98C975.49 109.36 974.69 112.42 972.31 113.82C971.51 114.28 970.64 114.51 969.78 114.51C968.07 114.51 966.4 113.62 965.47 112.03Z" fill="black"/>
<path d="M965.14 111.47L964.84 110.94C963.46 108.55 964.29 105.49 966.68 104.11C969.08 102.74 972.13 103.57 973.51 105.96L973.81 106.49C975.19 108.88 974.36 111.94 971.97 113.31C971.18 113.76 970.33 113.98 969.48 113.98C967.75 113.98 966.07 113.08 965.14 111.47Z" fill="black"/>
<path d="M945.64 77.7497C944.25 75.3597 945.07 72.2997 947.46 70.9197C949.85 69.5397 952.91 70.3497 954.29 72.7397C955.68 75.1297 954.86 78.1897 952.47 79.5797C951.68 80.0297 950.82 80.2497 949.97 80.2497C948.24 80.2497 946.56 79.3497 945.64 77.7497Z" fill="black"/>
<path d="M952.97 70.5596C950.65 69.0696 949.97 65.9796 951.47 63.6496C952.96 61.3296 956.05 60.6596 958.37 62.1496C960.7 63.6396 961.37 66.7296 959.88 69.0596C958.92 70.5496 957.31 71.3596 955.67 71.3596C954.74 71.3596 953.81 71.0996 952.97 70.5596Z" fill="black"/>
<path d="M958.6 61.6502C956.25 60.1902 955.54 57.1102 957 54.7602C958.46 52.4202 961.54 51.7002 963.88 53.1602C966.23 54.6202 966.94 57.7002 965.49 60.0502C964.54 61.5702 962.91 62.4102 961.23 62.4102C960.33 62.4102 959.42 62.1602 958.6 61.6502Z" fill="black"/>
<path d="M957.22 47.3094C954.75 46.0794 953.75 43.0694 955 40.5994C956.23 38.1394 959.24 37.1394 961.71 38.3794C964.17 39.6194 965.17 42.6194 963.93 45.0894C963.05 46.8394 961.29 47.8494 959.46 47.8494C958.71 47.8494 957.94 47.6794 957.22 47.3094Z" fill="black"/>
<path d="M928.77 52.0494C927.19 49.7894 927.73 46.6694 929.99 45.0794C932.26 43.4994 935.37 44.0494 936.96 46.3094C938.54 48.5694 938 51.6894 935.74 53.2694C934.86 53.8794 933.86 54.1794 932.87 54.1794C931.3 54.1794 929.75 53.4394 928.77 52.0494Z" fill="black"/>
<path d="M909.05 76.2898C906.7 74.8498 905.96 71.7698 907.4 69.4098C908.84 67.0598 911.92 66.3198 914.27 67.7598C916.63 69.1998 917.37 72.2798 915.93 74.6298C914.98 76.1698 913.34 77.0198 911.66 77.0198C910.77 77.0198 909.87 76.7898 909.05 76.2898Z" fill="black"/>
<path d="M906.07 78.4702C904.68 76.0902 905.49 73.0202 907.87 71.6302C910.26 70.2402 913.32 71.0502 914.71 73.4302C916.1 75.8202 915.3 78.8802 912.91 80.2702C912.12 80.7302 911.25 80.9502 910.4 80.9502C908.68 80.9502 907 80.0602 906.07 78.4702Z" fill="black"/>
<path d="M918.22 99.5001C916.84 97.1101 917.65 94.0501 920.05 92.6701C922.44 91.2901 925.5 92.1101 926.88 94.5001C928.26 96.8901 927.44 99.9501 925.05 101.33C924.26 101.78 923.4 102 922.55 102C920.82 102 919.14 101.1 918.22 99.5001Z" fill="black"/>
<path d="M925.7 112.27C924.3 109.88 925.1 106.82 927.49 105.42C929.87 104.03 932.93 104.83 934.33 107.21C935.72 109.59 934.92 112.66 932.54 114.05C931.74 114.52 930.88 114.74 930.02 114.74C928.3 114.74 926.63 113.86 925.7 112.27Z" fill="black"/>
<path d="M941.16 114.8C938.4 114.78 936.18 112.53 936.19 109.77C936.21 107.01 938.46 104.78 941.22 104.8C943.98 104.8 946.21 107.06 946.19 109.83C946.18 112.58 943.94 114.8 941.19 114.8H941.16Z" fill="black"/>
<path d="M942.35 117.22C939.79 116.2 938.53 113.29 939.56 110.72C940.58 108.16 943.48 106.91 946.05 107.93C948.62 108.95 949.87 111.86 948.85 114.42C948.07 116.38 946.19 117.57 944.2 117.57C943.58 117.57 942.96 117.46 942.35 117.22Z" fill="black"/>
<path d="M909.28 117.55C906.51 117.55 904.28 115.31 904.28 112.55C904.28 109.79 906.52 107.55 909.28 107.55C912.04 107.55 914.28 109.8 914.28 112.56C914.28 115.32 912.04 117.55 909.28 117.55Z" fill="black"/>
<path d="M904.07 116.93C901.33 116.57 899.39 114.07 899.75 111.33C900.1 108.59 902.61 106.66 905.34 107.01C908.08 107.36 910.02 109.87 909.67 112.61C909.34 115.13 907.19 116.97 904.71 116.97C904.5 116.97 904.28 116.96 904.07 116.93Z" fill="black"/>
<path d="M898.5 110.41C898.21 107.67 900.19 105.2 902.94 104.91C905.68 104.61 908.15 106.59 908.45 109.34C908.74 112.09 906.76 114.55 904.01 114.85C903.83 114.87 903.65 114.88 903.47 114.88C900.95 114.88 898.78 112.98 898.5 110.41Z" fill="black"/>
<path d="M907.91 109.78C907.86 107.02 910.05 104.74 912.81 104.68C915.57 104.63 917.85 106.82 917.91 109.58C917.97 112.34 915.78 114.62 913.02 114.68H912.91C910.2 114.68 907.97 112.51 907.91 109.78Z" fill="black"/>
<path d="M903.61 103.139C902.28 100.719 903.16 97.6794 905.58 96.3494C908 95.0194 911.04 95.8994 912.37 98.3194C913.7 100.739 912.82 103.779 910.4 105.109C909.63 105.529 908.81 105.729 907.99 105.729C906.23 105.729 904.52 104.799 903.61 103.139Z" fill="black"/>
<path d="M892.1 83.0096C890.73 80.6096 891.56 77.5496 893.96 76.1796C896.36 74.8096 899.41 75.6496 900.78 78.0396C902.15 80.4396 901.32 83.4996 898.92 84.8696C898.14 85.3096 897.29 85.5296 896.44 85.5296C894.71 85.5296 893.02 84.6196 892.1 83.0096Z" fill="black"/>
<path d="M894.65 74.8298C891.99 74.0898 890.43 71.3298 891.17 68.6698C891.91 66.0098 894.67 64.4498 897.33 65.1898C899.99 65.9298 901.55 68.6898 900.81 71.3498C900.19 73.5598 898.18 75.0098 895.99 75.0098C895.55 75.0098 895.1 74.9498 894.65 74.8298Z" fill="black"/>
<path d="M905.28 54.6999C902.92 53.2699 902.16 50.1999 903.59 47.8299C905.03 45.4699 908.1 44.7199 910.46 46.1499C912.83 47.5899 913.58 50.6599 912.15 53.0199C911.21 54.5699 909.56 55.4299 907.87 55.4299C906.98 55.4299 906.09 55.1999 905.28 54.6999Z" fill="black"/>
<path d="M918.52 32.9099C916.16 31.4799 915.41 28.3999 916.85 26.0399C918.28 23.6799 921.36 22.9299 923.72 24.3699C926.08 25.7999 926.83 28.8799 925.39 31.2399C924.45 32.7899 922.8 33.6399 921.12 33.6399C920.23 33.6399 919.33 33.3999 918.52 32.9099Z" fill="black"/>
<path d="M929.59 14.9494C927.24 13.4994 926.52 10.4194 927.97 8.06935C929.42 5.71935 932.5 4.99935 934.85 6.44935C937.2 7.89935 937.93 10.9794 936.47 13.3294C935.53 14.8594 933.89 15.6994 932.22 15.6994C931.32 15.6994 930.41 15.4594 929.59 14.9494Z" fill="black"/>
<path d="M928.16 7.90941C928.16 5.13941 930.4 2.89941 933.16 2.89941C935.92 2.89941 938.16 5.13941 938.16 7.90941C938.16 10.6694 935.92 12.8994 933.16 12.8994C930.4 12.8994 928.16 10.6694 928.16 7.90941Z" fill="black"/>
<path d="M906.53 7.92992C906.52 5.16992 908.76 2.92992 911.52 2.91992C914.28 2.91992 916.52 5.15992 916.53 7.91992C916.53 10.6799 914.29 12.9199 911.53 12.9199C908.77 12.9299 906.53 10.6899 906.53 7.92992Z" fill="black"/>
<path d="M908.2 11.4194C905.51 10.7794 903.85 8.0894 904.49 5.3994C905.13 2.7194 907.82 1.0494 910.51 1.6894C913.2 2.3294 914.86 5.0194 914.22 7.7094C913.68 10.0094 911.62 11.5594 909.36 11.5594C908.98 11.5594 908.59 11.5094 908.2 11.4194Z" fill="black"/>
<path d="M908.62 5.0498C908.62 2.2898 910.86 0.0498047 913.62 0.0498047C916.38 0.0498047 918.62 2.2898 918.62 5.0498C918.62 7.8098 916.38 10.0498 913.62 10.0498C910.86 10.0498 908.62 7.8098 908.62 5.0498Z" fill="black"/>
<path d="M949.21 10.1094C946.45 10.1094 944.22 7.85938 944.22 5.09937C944.23 2.33937 946.47 0.109375 949.23 0.109375C951.99 0.109375 954.23 2.35937 954.22 5.11937C954.22 7.87937 951.98 10.1094 949.22 10.1094H949.21Z" fill="black"/>
<path d="M948.04 10.1595C945.65 8.76948 944.84 5.70949 946.23 3.31949C947.62 0.939485 950.67 0.119485 953.06 1.50949C955.45 2.89949 956.26 5.95949 954.87 8.33949C953.95 9.93949 952.27 10.8295 950.54 10.8295C949.69 10.8295 948.83 10.6195 948.04 10.1595Z" fill="black"/>
<path d="M947.66 11.3298C945.21 10.0498 944.27 7.01982 945.56 4.57982L945.84 4.03982C947.13 1.59982 950.15 0.659821 952.6 1.94982C955.04 3.22982 955.98 6.25982 954.69 8.69982L954.41 9.23982C953.51 10.9398 951.78 11.9098 949.98 11.9098C949.2 11.9098 948.4 11.7198 947.66 11.3298Z" fill="black"/>
<path d="M936.3 30.0295C933.92 28.6195 933.13 25.5595 934.54 23.1795C935.95 20.7995 939.02 20.0195 941.39 21.4195C943.77 22.8295 944.56 25.8995 943.15 28.2795C942.21 29.8495 940.55 30.7295 938.84 30.7295C937.97 30.7295 937.1 30.4995 936.3 30.0295Z" fill="black"/>
<path d="M924.52 50.03C922.14 48.63 921.35 45.56 922.75 43.18C924.16 40.8 927.22 40.01 929.6 41.41C931.98 42.81 932.77 45.88 931.37 48.26C930.44 49.84 928.77 50.72 927.06 50.72C926.19 50.72 925.32 50.5 924.52 50.03Z" fill="black"/>
<path d="M920.36 57.9C917.89 56.66 916.9 53.66 918.14 51.19C919.38 48.72 922.39 47.73 924.85 48.97C927.32 50.21 928.31 53.22 927.07 55.68C926.19 57.43 924.43 58.44 922.6 58.44C921.85 58.44 921.08 58.27 920.36 57.9Z" fill="black"/>
<path d="M924.15 51.7397C922.51 49.5197 922.98 46.3897 925.2 44.7497C927.42 43.1097 930.55 43.5697 932.2 45.7997C933.84 48.0097 933.37 51.1497 931.15 52.7897C930.25 53.4497 929.21 53.7697 928.18 53.7697C926.65 53.7697 925.14 53.0697 924.15 51.7397Z" fill="black"/>
<path d="M952.34 35.7701C952.03 33.0201 954.01 30.5501 956.75 30.2401C959.5 29.9301 961.97 31.9001 962.28 34.6501C962.59 37.3901 960.62 39.8601 957.87 40.1701C957.68 40.1901 957.49 40.2001 957.31 40.2001C954.8 40.2001 952.63 38.3201 952.34 35.7701Z" fill="black"/>
<path d="M972.06 45.1399C970.34 42.9699 970.7 39.8299 972.87 38.1099C975.03 36.3899 978.17 36.7499 979.89 38.9099C981.61 41.0799 981.25 44.2199 979.09 45.9399C978.17 46.6699 977.07 47.0299 975.98 47.0299C974.51 47.0299 973.05 46.3799 972.06 45.1399Z" fill="black"/>
<path d="M975.01 61.9599C972.5 60.7999 971.41 57.8299 972.57 55.3199C973.73 52.8199 976.7 51.7299 979.21 52.8899C981.72 54.0499 982.81 57.0199 981.65 59.5299C980.8 61.3499 978.99 62.4299 977.11 62.4299C976.4 62.4299 975.69 62.2799 975.01 61.9599Z" fill="black"/>
<path d="M964.22 79.4096C961.88 77.9496 961.17 74.8696 962.63 72.5196C964.09 70.1796 967.17 69.4696 969.52 70.9296C971.86 72.3896 972.57 75.4696 971.11 77.8096C970.16 79.3396 968.53 80.1696 966.87 80.1696C965.96 80.1696 965.05 79.9196 964.22 79.4096Z" fill="black"/>
<path d="M964.93 82.1195C963.62 79.6895 964.54 76.6595 966.97 75.3595C969.4 74.0495 972.43 74.9695 973.74 77.3995C975.04 79.8295 974.13 82.8595 971.7 84.1695C970.94 84.5695 970.13 84.7595 969.34 84.7595C967.55 84.7595 965.83 83.8095 964.93 82.1195Z" fill="black"/>
<path d="M969.43 89.9896C968.06 87.5896 968.89 84.5396 971.28 83.1596C973.68 81.7896 976.73 82.6196 978.11 85.0096C979.48 87.4096 978.65 90.4696 976.25 91.8396C975.47 92.2896 974.62 92.4996 973.77 92.4996C972.04 92.4996 970.35 91.5996 969.43 89.9896Z" fill="black"/>
<path d="M977.18 103.32C975.8 100.93 976.61 97.8802 978.99 96.4902C981.38 95.1002 984.44 95.9102 985.83 98.3002C987.22 100.68 986.41 103.74 984.02 105.13C983.23 105.59 982.36 105.81 981.51 105.81C979.79 105.81 978.11 104.92 977.18 103.32Z" fill="black"/>
<path d="M983.07 113.24C981.42 111.03 981.87 107.9 984.08 106.24C986.29 104.59 989.43 105.04 991.08 107.25C992.73 109.47 992.28 112.6 990.07 114.25C989.17 114.92 988.12 115.25 987.08 115.25C985.56 115.25 984.05 114.56 983.07 113.24Z" fill="black"/>
<path d="M992.88 110.25C992.88 107.49 995.12 105.25 997.88 105.25C1000.64 105.25 1002.88 107.49 1002.88 110.25C1002.88 113.01 1000.64 115.25 997.88 115.25C995.12 115.25 992.88 113.01 992.88 110.25Z" fill="black"/>
<path d="M1000.12 118.05C997.37 117.75 995.39 115.28 995.69 112.54C995.99 109.79 998.46 107.81 1001.2 108.11C1003.95 108.41 1005.93 110.88 1005.63 113.62C1005.35 116.19 1003.18 118.08 1000.66 118.08C1000.48 118.08 1000.3 118.08 1000.12 118.05Z" fill="black"/>
<path d="M646.4 117.6C643.64 117.6 641.4 115.35 641.41 112.59C641.41 109.83 643.65 107.6 646.41 107.6C649.17 107.6 651.41 109.84 651.41 112.6C651.41 115.36 649.17 117.6 646.41 117.6H646.4Z" fill="black"/>
<path d="M635.02 102.86C633.64 100.47 634.46 97.4101 636.85 96.0301C639.25 94.6501 642.31 95.4701 643.68 97.8701C645.06 100.26 644.24 103.31 641.85 104.69C641.06 105.15 640.2 105.36 639.36 105.36C637.63 105.36 635.95 104.47 635.02 102.86Z" fill="black"/>
<path d="M634.89 102.63L634.77 102.42C633.41 100.02 634.25 96.9699 636.65 95.6099C639.05 94.2399 642.1 95.0799 643.47 97.4799L643.58 97.6899C644.95 100.09 644.11 103.14 641.71 104.51C640.93 104.95 640.08 105.16 639.24 105.16C637.5 105.16 635.81 104.25 634.89 102.63Z" fill="black"/>
<path d="M635.52 103.549C633.57 101.599 633.57 98.4295 635.52 96.4795L635.55 96.4495C637.51 94.4895 640.67 94.4895 642.63 96.4495C644.58 98.3995 644.58 101.569 642.63 103.519L642.6 103.549C641.62 104.519 640.34 105.009 639.06 105.009C637.78 105.009 636.5 104.519 635.52 103.549Z" fill="black"/>
<path d="M633.54 102.389C633.42 99.6294 635.57 97.2994 638.33 97.1894C641.09 97.0694 643.41 99.2194 643.53 101.969C643.64 104.729 641.5 107.059 638.74 107.179H638.53C635.86 107.179 633.65 105.069 633.54 102.389Z" fill="black"/>
<path d="M634.66 114.189C632.19 112.949 631.2 109.939 632.44 107.469C633.69 105.009 636.7 104.019 639.16 105.259C641.63 106.499 642.62 109.509 641.37 111.969C640.5 113.719 638.73 114.719 636.91 114.719C636.15 114.719 635.38 114.549 634.66 114.189Z" fill="black"/>
<path d="M631.06 115.9C629.23 113.83 629.41 110.67 631.48 108.84C633.54 107.01 636.7 107.19 638.54 109.26C640.37 111.32 640.18 114.48 638.12 116.32C637.17 117.16 635.98 117.58 634.8 117.58C633.42 117.58 632.05 117.01 631.06 115.9Z" fill="black"/>
<path d="M631.12 116.3C629.15 114.36 629.12 111.2 631.06 109.23C631.28 109 631.46 108.86 631.52 108.81C633.64 107.04 636.79 107.34 638.56 109.46C640.3 111.56 640.04 114.67 637.98 116.44C637.03 117.3 635.83 117.73 634.62 117.73C633.36 117.73 632.09 117.26 631.12 116.3Z" fill="black"/>
<path d="M621.22 121.4C618.47 121.26 616.34 118.92 616.48 116.16C616.62 113.4 618.96 111.28 621.72 111.41C624.48 111.55 626.6 113.9 626.47 116.65C626.33 119.33 624.12 121.41 621.48 121.41C621.39 121.41 621.31 121.41 621.22 121.4Z" fill="black"/>
<path d="M586.28 108.189C584.16 106.419 583.87 103.269 585.64 101.149C587.41 99.0195 590.57 98.7395 592.68 100.509C594.81 102.279 595.09 105.429 593.32 107.549C592.33 108.739 590.91 109.349 589.48 109.349C588.35 109.349 587.21 108.969 586.28 108.189Z" fill="black"/>
<path d="M564.7 79.6199C563.37 77.1999 564.24 74.1599 566.66 72.8299C569.08 71.4899 572.12 72.3699 573.46 74.7899C574.79 77.2099 573.91 80.2499 571.49 81.5799C570.73 82.0099 569.9 82.2099 569.08 82.2099C567.32 82.2099 565.61 81.2699 564.7 79.6199Z" fill="black"/>
<path d="M568.59 77.0302C566.2 75.6302 565.4 72.5702 566.8 70.1902C568.19 67.8002 571.25 67.0002 573.64 68.4002C576.02 69.7902 576.82 72.8502 575.43 75.2402C574.49 76.8302 572.82 77.7102 571.11 77.7102C570.25 77.7102 569.38 77.4902 568.59 77.0302Z" fill="black"/>
<path d="M575.49 65.1003C573.1 63.7203 572.28 60.6703 573.66 58.2803C575.04 55.8803 578.09 55.0603 580.49 56.4403C582.88 57.8103 583.7 60.8703 582.32 63.2703C581.4 64.8703 579.72 65.7703 577.99 65.7703C577.14 65.7703 576.28 65.5603 575.49 65.1003Z" fill="black"/>
<path d="M586.53 45.9698C584.14 44.5898 583.32 41.5298 584.7 39.1398C586.08 36.7498 589.14 35.9298 591.53 37.3098C593.92 38.6898 594.74 41.7498 593.36 44.1398C592.44 45.7398 590.75 46.6398 589.03 46.6398C588.18 46.6398 587.32 46.4198 586.53 45.9698Z" fill="black"/>
<path d="M573.81 41.6396C573.81 38.8796 576.05 36.6396 578.81 36.6396C581.57 36.6396 583.81 38.8796 583.81 41.6396C583.81 44.3996 581.57 46.6396 578.81 46.6396C576.05 46.6396 573.81 44.3996 573.81 41.6396Z" fill="black"/>
<path d="M575.51 46.55C572.76 46.26 570.77 43.8 571.06 41.05C571.36 38.3 573.82 36.31 576.57 36.61C579.31 36.9 581.3 39.36 581.01 42.11C580.73 44.68 578.56 46.58 576.04 46.58C575.86 46.58 575.69 46.58 575.51 46.55Z" fill="black"/>
<path d="M573.81 38.7695C573.81 36.0095 576.05 33.7695 578.81 33.7695C581.57 33.7695 583.81 36.0095 583.81 38.7695C583.81 41.5295 581.57 43.7695 578.81 43.7695C576.05 43.7695 573.81 41.5295 573.81 38.7695Z" fill="black"/>
<path d="M600.12 38.75C600.12 35.99 602.35 33.75 605.11 33.75C607.87 33.75 610.11 35.98 610.11 38.74C610.11 41.51 607.88 43.75 605.12 43.75C602.36 43.75 600.12 41.51 600.12 38.75Z" fill="black"/>
<path d="M604.049 44.3095C601.599 43.0295 600.659 40.0095 601.929 37.5695C603.209 35.1195 606.229 34.1695 608.679 35.4495C611.129 36.7295 612.079 39.7495 610.799 42.1895C609.899 43.8995 608.159 44.8795 606.359 44.8795C605.579 44.8795 604.789 44.6995 604.049 44.3095Z" fill="black"/>
<path d="M597.76 54.6995C595.37 53.3095 594.56 50.2495 595.94 47.8595C597.33 45.4795 600.39 44.6595 602.78 46.0495C605.17 47.4395 605.98 50.4995 604.59 52.8895C603.66 54.4795 601.99 55.3795 600.26 55.3795C599.41 55.3795 598.55 55.1595 597.76 54.6995Z" fill="black"/>
<path d="M588.36 71.3502C585.96 69.9902 585.12 66.9402 586.48 64.5402C587.84 62.1402 590.89 61.2902 593.3 62.6602C595.7 64.0202 596.54 67.0702 595.18 69.4702C594.26 71.0902 592.56 72.0002 590.82 72.0002C589.99 72.0002 589.14 71.7902 588.36 71.3502Z" fill="black"/>
<path d="M584.09 78.9395C581.69 77.5895 580.84 74.5395 582.19 72.1295C583.55 69.7195 586.6 68.8795 589.01 70.2295C591.41 71.5895 592.26 74.6395 590.9 77.0495C589.98 78.6695 588.29 79.5895 586.55 79.5895C585.71 79.5895 584.87 79.3795 584.09 78.9395Z" fill="black"/>
<path d="M581.48 80.0096C580.28 77.5296 581.31 74.5396 583.8 73.3296C586.28 72.1296 589.27 73.1596 590.48 75.6496C591.69 78.1296 590.65 81.1196 588.16 82.3296C587.46 82.6696 586.72 82.8296 585.98 82.8296C584.13 82.8296 582.35 81.7896 581.48 80.0096Z" fill="black"/>
<path d="M587.75 91.9C586.26 89.57 586.94 86.48 589.27 84.99C591.59 83.5 594.69 84.18 596.17 86.51C597.66 88.83 596.98 91.93 594.66 93.42C593.82 93.95 592.89 94.2 591.97 94.2C590.32 94.2 588.71 93.39 587.75 91.9Z" fill="black"/>
<path d="M610.15 113.33C607.71 112.04 606.77 109.01 608.06 106.57C609.35 104.13 612.37 103.19 614.81 104.48C617.26 105.77 618.19 108.79 616.9 111.23C616.01 112.93 614.27 113.9 612.48 113.9C611.69 113.9 610.89 113.72 610.15 113.33Z" fill="black"/>
<path d="M622.8 112.77C622.27 110.06 624.04 107.43 626.75 106.91C629.46 106.38 632.09 108.15 632.61 110.86C633.14 113.58 631.37 116.2 628.66 116.72C628.34 116.79 628.02 116.82 627.7 116.82C625.35 116.82 623.26 115.16 622.8 112.77Z" fill="black"/>
<path d="M635.64 107.1C632.88 107 630.72 104.68 630.82 101.92C630.92 99.1598 633.23 97.0098 635.99 97.1098C638.75 97.2098 640.91 99.5198 640.81 102.28C640.71 104.98 638.5 107.1 635.82 107.1H635.64Z" fill="black"/>
<path d="M627.92 90.8001C626.69 88.3301 627.69 85.3201 630.16 84.0901C632.63 82.8501 635.63 83.8501 636.87 86.3201C638.1 88.7901 637.1 91.7901 634.63 93.0301C633.91 93.3901 633.15 93.5601 632.4 93.5601C630.57 93.5601 628.8 92.5501 627.92 90.8001Z" fill="black"/>
<path d="M628.11 91.1202C626.65 88.8902 627.2 85.8902 629.38 84.3302C631.62 82.7102 634.74 83.2202 636.36 85.4602C636.47 85.6202 636.57 85.7702 636.68 85.9602C638.06 88.3502 637.25 91.4102 634.86 92.8002C634.07 93.2502 633.21 93.4702 632.36 93.4702C630.68 93.4702 629.05 92.6302 628.11 91.1202Z" fill="black"/>
<path d="M625.64 86.7201C624.2 84.3601 624.96 81.28 627.32 79.85C629.68 78.42 632.75 79.17 634.19 81.53C635.62 83.89 634.87 86.9601 632.51 88.4001C631.7 88.8901 630.8 89.1201 629.92 89.1201C628.23 89.1201 626.58 88.2701 625.64 86.7201Z" fill="black"/>
<path d="M625.34 86.23L625.03 85.72C623.58 83.37 624.32 80.29 626.67 78.85C629.02 77.4 632.1 78.14 633.55 80.49L633.86 81C635.31 83.35 634.57 86.43 632.22 87.88C631.4 88.38 630.5 88.62 629.61 88.62C627.93 88.62 626.28 87.77 625.34 86.23Z" fill="black"/>
<path d="M620.76 78.7596C619.32 76.4096 620.06 73.3296 622.42 71.8896C624.77 70.4396 627.85 71.1796 629.29 73.5396C630.73 75.8896 629.99 78.9696 627.64 80.4096C626.82 80.9096 625.92 81.1496 625.03 81.1496C623.35 81.1496 621.71 80.2996 620.76 78.7596Z" fill="black"/>
<path d="M625.35 75.5597C622.93 74.2397 622.03 71.1997 623.35 68.7697C624.68 66.3497 627.71 65.4597 630.14 66.7797C632.56 68.0997 633.46 71.1397 632.14 73.5597C631.23 75.2297 629.51 76.1697 627.74 76.1697C626.93 76.1697 626.11 75.9697 625.35 75.5597Z" fill="black"/>
<path d="M642.71 45.8493C640.33 44.4393 639.54 41.3693 640.95 38.9993C642.35 36.6193 645.42 35.8293 647.8 37.2393C650.17 38.6393 650.96 41.7093 649.56 44.0893C648.63 45.6593 646.96 46.5393 645.25 46.5393C644.38 46.5393 643.51 46.3193 642.71 45.8493Z" fill="black"/>
<path d="M630.42 45.7298C627.94 44.5398 626.89 41.5498 628.08 39.0598C629.28 36.5698 632.27 35.5298 634.76 36.7198C637.25 37.9198 638.29 40.9098 637.1 43.3998C636.24 45.1798 634.45 46.2298 632.59 46.2298C631.86 46.2298 631.12 46.0698 630.42 45.7298Z" fill="black"/>
<path d="M628.78 38.7695C628.78 36.0095 631.02 33.7695 633.78 33.7695C636.54 33.7695 638.78 36.0095 638.78 38.7695C638.78 41.5295 636.54 43.7695 633.78 43.7695C631.02 43.7695 628.78 41.5295 628.78 38.7695Z" fill="black"/>
<path d="M656.14 38.75C656.14 35.99 658.38 33.75 661.14 33.75C663.9 33.75 666.14 35.98 666.14 38.74C666.14 41.5 663.91 43.74 661.15 43.75C658.38 43.75 656.14 41.51 656.14 38.75Z" fill="black"/>
<path d="M660.49 43.9197C658.02 42.6897 657.02 39.6797 658.25 37.2097C659.49 34.7397 662.49 33.7397 664.96 34.9797C667.43 36.2097 668.43 39.2097 667.2 41.6797C666.32 43.4397 664.56 44.4497 662.72 44.4497C661.97 44.4497 661.21 44.2797 660.49 43.9197Z" fill="black"/>
<path d="M659.41 45.09C657.03 43.69 656.23 40.62 657.63 38.24L658.03 37.58C659.42 35.2 662.49 34.4 664.87 35.8C667.25 37.2 668.04 40.27 666.64 42.65L666.25 43.31C665.32 44.9 663.65 45.78 661.94 45.78C661.08 45.78 660.21 45.56 659.41 45.09Z" fill="black"/>
<path d="M648.24 64.39C645.85 63 645.04 59.94 646.42 57.56C647.81 55.17 650.87 54.36 653.26 55.74C655.65 57.13 656.46 60.19 655.07 62.58C654.14 64.18 652.46 65.07 650.74 65.07C649.89 65.07 649.03 64.85 648.24 64.39Z" fill="black"/>
<path d="M640.29 78.3598C637.89 76.9898 637.06 73.9398 638.43 71.5398C639.8 69.1398 642.86 68.3098 645.25 69.6798C647.65 71.0498 648.48 74.0998 647.11 76.4998C646.19 78.1198 644.5 79.0198 642.77 79.0198C641.93 79.0198 641.07 78.8098 640.29 78.3598Z" fill="black"/>
<path d="M638.67 81.0897C637.26 78.7197 638.04 75.6497 640.41 74.2397C642.78 72.8197 645.85 73.5997 647.26 75.9697C648.68 78.3497 647.9 81.4197 645.53 82.8297C644.73 83.3097 643.84 83.5297 642.97 83.5297C641.27 83.5297 639.61 82.6597 638.67 81.0897Z" fill="black"/>
<path d="M639.47 82.4299L639.07 81.7599C637.66 79.3799 638.45 76.3099 640.82 74.8999C643.2 73.4999 646.26 74.2799 647.67 76.6599L648.07 77.3399C649.48 79.7099 648.69 82.7799 646.32 84.1899C645.52 84.6599 644.64 84.8799 643.77 84.8799C642.06 84.8799 640.4 84.0099 639.47 82.4299Z" fill="black"/>
<path d="M652.41 104.1C651 101.73 651.77 98.6601 654.14 97.2401C656.51 95.8301 659.58 96.6001 661 98.9701C662.41 101.34 661.64 104.41 659.27 105.83C658.47 106.31 657.58 106.54 656.71 106.54C655.01 106.54 653.35 105.67 652.41 104.1Z" fill="black"/>
<path d="M652.31 103.93L652.27 103.85C651.04 101.38 652.04 98.3803 654.51 97.1403C656.98 95.9103 659.98 96.9103 661.22 99.3803L661.25 99.4603C662.49 101.93 661.49 104.93 659.02 106.16C658.3 106.52 657.54 106.69 656.79 106.69C654.95 106.69 653.19 105.68 652.31 103.93Z" fill="black"/>
<path d="M653.56 106.21C652.23 103.79 653.1 100.75 655.52 99.4103C657.93 98.0703 660.97 98.9503 662.31 101.36C663.65 103.78 662.78 106.82 660.36 108.16C659.59 108.58 658.76 108.78 657.94 108.78C656.18 108.78 654.48 107.85 653.56 106.21Z" fill="black"/>
<path d="M657.58 112.76C655.93 110.55 656.39 107.42 658.61 105.77C660.83 104.12 663.96 104.58 665.61 106.8C667.25 109.02 666.79 112.15 664.57 113.8C663.68 114.46 662.63 114.78 661.6 114.78C660.07 114.78 658.56 114.09 657.58 112.76Z" fill="black"/>
<path d="M667.4 109.78C667.4 107.02 669.64 104.78 672.4 104.78C675.16 104.78 677.4 107.02 677.4 109.78C677.4 112.54 675.16 114.78 672.4 114.78C669.64 114.78 667.4 112.54 667.4 109.78Z" fill="black"/>
<path d="M674.65 117.59C671.91 117.3 669.91 114.84 670.2 112.1C670.49 109.35 672.95 107.36 675.69 107.64C678.44 107.93 680.43 110.39 680.15 113.14C679.88 115.71 677.71 117.62 675.18 117.62C675.01 117.62 674.83 117.62 674.65 117.59Z" fill="black"/>
<path d="M351.18 54.8695C348.81 53.4595 348.03 50.3895 349.45 48.0195C350.86 45.6495 353.93 44.8695 356.3 46.2895C358.67 47.6995 359.45 50.7695 358.03 53.1395C357.1 54.7095 355.44 55.5795 353.74 55.5795C352.86 55.5795 351.98 55.3495 351.18 54.8695Z" fill="black"/>
<path d="M348.16 55.2295C345.41 54.9695 343.39 52.5395 343.64 49.7895C343.9 47.0395 346.33 45.0095 349.08 45.2695C351.83 45.5195 353.85 47.9595 353.6 50.7095C353.36 53.2995 351.18 55.2495 348.63 55.2495C348.47 55.2495 348.32 55.2495 348.16 55.2295Z" fill="black"/>
<path d="M321.88 59.9203C320.22 57.7103 320.66 54.5803 322.86 52.9203C325.07 51.2603 328.2 51.7003 329.86 53.9003C331.53 56.1103 331.09 59.2403 328.88 60.9003C327.98 61.5803 326.92 61.9103 325.87 61.9103C324.36 61.9103 322.86 61.2203 321.88 59.9203Z" fill="black"/>
<path d="M310.77 85.2296C309.38 82.8496 310.18 79.7896 312.56 78.3896C314.94 76.9996 318.01 77.7996 319.4 80.1796C320.8 82.5596 320 85.6296 317.61 87.0196C316.82 87.4896 315.95 87.7096 315.09 87.7096C313.37 87.7096 311.7 86.8196 310.77 85.2296Z" fill="black"/>
<path d="M320.27 101.399C318.87 99.0194 319.67 95.9594 322.05 94.5594C324.43 93.1594 327.49 93.9494 328.89 96.3294C330.29 98.7194 329.5 101.779 327.12 103.179C326.32 103.649 325.45 103.869 324.59 103.869C322.87 103.869 321.2 102.989 320.27 101.399Z" fill="black"/>
<path d="M327.35 113.19C325.93 110.82 326.7 107.75 329.06 106.33C331.43 104.9 334.5 105.67 335.93 108.04C337.35 110.41 336.58 113.48 334.21 114.9C333.41 115.38 332.52 115.61 331.64 115.61C329.95 115.61 328.29 114.75 327.35 113.19Z" fill="black"/>
<path d="M341.41 114.84C340.42 112.26 341.71 109.37 344.29 108.39C346.87 107.4 349.76 108.69 350.75 111.27C351.74 113.85 350.45 116.74 347.87 117.72C347.28 117.95 346.68 118.06 346.08 118.06C344.07 118.06 342.17 116.83 341.41 114.84Z" fill="black"/>
<path d="M335.06 113.72C334.99 110.96 337.16 108.66 339.92 108.59C342.68 108.51 344.98 110.68 345.06 113.45C345.14 116.21 342.96 118.51 340.2 118.58C340.2 118.58 340.11 118.59 340.06 118.59C337.36 118.59 335.14 116.43 335.06 113.72Z" fill="black"/>
<path d="M329.72 118.429C326.97 118.189 324.93 115.759 325.17 113.009C325.41 110.259 327.84 108.229 330.59 108.469C333.34 108.709 335.37 111.129 335.13 113.879C334.91 116.489 332.72 118.449 330.16 118.449C330.01 118.449 329.87 118.439 329.72 118.429Z" fill="black"/>
<path d="M316.26 118.29C313.5 118.27 311.28 116.01 311.3 113.25C311.32 110.49 313.58 108.27 316.34 108.29C319.1 108.31 321.32 110.57 321.3 113.33C321.28 116.08 319.04 118.29 316.3 118.29H316.26Z" fill="black"/>
<path d="M303.65 118.17C300.89 118.15 298.67 115.89 298.69 113.13C298.72 110.37 300.98 108.15 303.74 108.17C306.5 108.2 308.72 110.46 308.69 113.22C308.67 115.97 306.44 118.17 303.69 118.17H303.65Z" fill="black"/>
<path d="M301.64 115.36C298.9 115.02 296.95 112.53 297.29 109.79C297.62 107.05 300.12 105.1 302.86 105.44C305.6 105.77 307.55 108.27 307.21 111.01C306.9 113.54 304.74 115.4 302.25 115.4C302.05 115.4 301.84 115.4 301.64 115.36Z" fill="black"/>
<path d="M314.64 115.499C311.88 115.469 309.65 113.219 309.68 110.459C309.7 107.699 311.95 105.469 314.71 105.499C317.48 105.519 319.7 107.779 319.68 110.529C319.65 113.279 317.42 115.499 314.68 115.499H314.64Z" fill="black"/>
<path d="M301.84 98.24C300.46 95.84 301.29 92.79 303.68 91.41C306.07 90.03 309.13 90.85 310.51 93.25C311.89 95.64 311.06 98.7 308.67 100.07C307.88 100.53 307.03 100.74 306.18 100.74C304.45 100.74 302.77 99.84 301.84 98.24Z" fill="black"/>
<path d="M291.16 80.4995C289.74 78.1295 290.5 75.0595 292.87 73.6395C295.23 72.2095 298.31 72.9795 299.73 75.3395C301.15 77.7095 300.39 80.7795 298.03 82.1995C297.22 82.6895 296.33 82.9195 295.45 82.9195C293.76 82.9195 292.1 82.0595 291.16 80.4995Z" fill="black"/>
<path d="M292.56 78.6599C290.2 77.2299 289.44 74.1599 290.87 71.7999C292.3 69.4299 295.38 68.6699 297.74 70.0999C300.1 71.5299 300.86 74.6099 299.43 76.9699C298.49 78.5199 296.84 79.3799 295.15 79.3799C294.27 79.3799 293.37 79.1499 292.56 78.6599Z" fill="black"/>
<path d="M302.5 61.8999C300.12 60.4999 299.33 57.4399 300.73 55.0599C302.13 52.6799 305.2 51.8899 307.58 53.2899C309.96 54.6899 310.75 57.7499 309.35 60.1299C308.42 61.7199 306.75 62.5999 305.04 62.5999C304.17 62.5999 303.3 62.3699 302.5 61.8999Z" fill="black"/>
<path d="M310.97 47.4195C308.58 46.0295 307.77 42.9695 309.16 40.5795C310.55 38.1895 313.61 37.3795 316 38.7695C318.39 40.1595 319.19 43.2195 317.81 45.6095C316.88 47.2095 315.2 48.0995 313.48 48.0995C312.62 48.0995 311.76 47.8795 310.97 47.4195Z" fill="black"/>
<path d="M311.84 47.1493C309.29 46.0893 308.07 43.1693 309.13 40.6193C309.15 40.5593 309.18 40.4893 309.2 40.4293C309.22 40.3793 309.23 40.3593 309.23 40.3593C310.1 37.7393 312.93 36.3293 315.55 37.1993C318.17 38.0693 319.59 40.8993 318.72 43.5193C318.62 43.8093 318.52 44.0793 318.37 44.4393C317.58 46.3693 315.71 47.5293 313.75 47.5293C313.11 47.5293 312.47 47.4093 311.84 47.1493Z" fill="black"/>
<path d="M311.92 46.2198C309.44 45.9198 307.53 43.8098 307.53 41.2598C307.53 38.4998 309.77 36.2598 312.52 36.2598C313.78 36.2998 314.19 36.4598 315.04 36.7298C317.64 37.6498 319 40.5198 318.07 43.1098C317.34 45.1598 315.41 46.4398 313.36 46.4398C312.88 46.4398 312.39 46.3698 311.92 46.2198Z" fill="black"/>
<path d="M301.64 46.1603C298.87 46.1403 296.65 43.8803 296.68 41.1203C296.7 38.3503 298.96 36.1403 301.73 36.1603C304.49 36.1903 306.71 38.4403 306.68 41.2103C306.66 43.9503 304.42 46.1603 301.68 46.1603H301.64Z" fill="black"/>
<path d="M298.73 38.4199C298.73 35.6599 300.97 33.4199 303.73 33.4199C306.49 33.4199 308.73 35.6599 308.73 38.4199C308.73 41.1899 306.49 43.4199 303.73 43.4199C300.97 43.4199 298.73 41.1899 298.73 38.4199Z" fill="black"/>
<path d="M330.58 43.4395C327.82 43.4395 325.58 41.1995 325.58 38.4395C325.59 35.6795 327.83 33.4395 330.59 33.4395C333.35 33.4495 335.59 35.6895 335.58 38.4495C335.58 41.2095 333.34 43.4395 330.58 43.4395Z" fill="black"/>
<path d="M328.73 42.9295C326.66 41.7795 325.65 39.2795 326.44 36.9495C327.33 34.3395 330.17 32.9395 332.78 33.8295C333.06 33.9295 333.35 34.0395 333.71 34.2195C334.07 34.4295 334.49 34.5995 335.25 35.3595C335.69 35.8595 336.6 36.8395 336.66 38.8695C336.66 41.6295 334.42 43.8695 331.66 43.8695C330.57 43.8695 329.56 43.5195 328.73 42.9295Z" fill="black"/>
<path d="M323.98 57.3195C321.24 56.9595 319.31 54.4495 319.66 51.7095C320.02 48.9795 322.53 47.0395 325.27 47.3995C328 47.7595 329.94 50.2595 329.58 52.9995C329.25 55.5195 327.1 57.3595 324.63 57.3595C324.41 57.3595 324.2 57.3395 323.98 57.3195Z" fill="black"/>
<path d="M361.59 41.6394C358.84 41.3894 356.81 38.9494 357.07 36.1994C357.32 33.4594 359.76 31.4294 362.51 31.6894C365.26 31.9394 367.28 34.3794 367.03 37.1294C366.79 39.7194 364.61 41.6594 362.05 41.6594C361.9 41.6594 361.74 41.6594 361.59 41.6394Z" fill="black"/>
<path d="M800.9 94.4495C798.14 94.4195 795.93 92.1495 795.96 89.3895C795.99 86.6295 798.26 84.4195 801.02 84.4595C803.78 84.4895 805.99 86.7595 805.96 89.5195C805.92 92.2595 803.69 94.4495 800.96 94.4495H800.9Z" fill="black"/>
<path d="M768.99 93.9901C766.23 93.9401 764.03 91.6701 764.07 88.9101C764.11 86.1501 766.38 83.9401 769.14 83.9901C771.9 84.0301 774.11 86.3001 774.06 89.0601C774.03 91.8001 771.79 93.9901 769.07 93.9901H768.99Z" fill="black"/>
<path d="M753.5 90.3503C750.96 89.2503 749.8 86.3103 750.9 83.7703C751.99 81.2403 754.94 80.0803 757.47 81.1703C760 82.2703 761.17 85.2103 760.07 87.7503C759.25 89.6303 757.41 90.7603 755.48 90.7603C754.82 90.7603 754.14 90.6303 753.5 90.3503Z" fill="black"/>
<path d="M741.24 75.5698C740.64 72.8698 742.34 70.1998 745.04 69.5998C747.73 69.0098 750.4 70.6998 751 73.3998C751.6 76.0998 749.9 78.7698 747.21 79.3698C746.84 79.4498 746.48 79.4898 746.12 79.4898C743.83 79.4898 741.76 77.8998 741.24 75.5698Z" fill="black"/>
<path d="M756.02 77.4895C753.26 77.4295 751.07 75.1495 751.13 72.3895C751.19 69.6295 753.47 67.4295 756.23 67.4895C758.99 67.5495 761.19 69.8395 761.13 72.5995C761.07 75.3195 758.84 77.4895 756.13 77.4895H756.02Z" fill="black"/>
<path d="M793.54 73.2801C792.77 70.6301 794.29 67.8501 796.94 67.0801C799.6 66.3101 802.37 67.8401 803.14 70.4901C803.91 73.1401 802.39 75.9201 799.73 76.6901C799.27 76.8201 798.8 76.8901 798.34 76.8901C796.17 76.8901 794.17 75.4701 793.54 73.2801Z" fill="black"/>
<path d="M808.2 67.1702C806.43 65.0502 806.72 61.9002 808.84 60.1302C810.96 58.3602 814.11 58.6502 815.88 60.7702C817.65 62.8902 817.36 66.0402 815.24 67.8102C814.31 68.5902 813.17 68.9702 812.04 68.9702C810.61 68.9702 809.19 68.3602 808.2 67.1702Z" fill="black"/>
<path d="M820.93 52.07C818.18 51.83 816.14 49.41 816.38 46.66C816.62 43.91 819.04 41.87 821.79 42.11C824.54 42.34 826.58 44.77 826.34 47.52C826.12 50.12 823.93 52.09 821.36 52.09C821.22 52.09 821.08 52.08 820.93 52.07Z" fill="black"/>
<path d="M814.24 41.8998C813.08 39.3898 814.17 36.4198 816.68 35.2598C819.19 34.0998 822.16 35.1898 823.32 37.6998C824.48 40.1998 823.39 43.1698 820.88 44.3298C820.2 44.6498 819.49 44.7998 818.78 44.7998C816.9 44.7998 815.09 43.7198 814.24 41.8998Z" fill="black"/>
<path d="M823.63 44.8797C820.86 44.8297 818.66 42.5597 818.71 39.7897C818.75 37.0297 821.03 34.8297 823.79 34.8797C826.55 34.9197 828.75 37.1997 828.71 39.9597C828.66 42.6897 826.43 44.8797 823.71 44.8797H823.63Z" fill="black"/>
<path d="M825.8 41.3498C824.9 38.7398 826.28 35.8898 828.89 34.9898C831.5 34.0898 834.35 35.4798 835.25 38.0898C836.15 40.6998 834.77 43.5398 832.16 44.4498C831.62 44.6298 831.07 44.7198 830.52 44.7198C828.45 44.7198 826.51 43.4198 825.8 41.3498Z" fill="black"/>
<path d="M823.87 36.8301C823.87 34.0701 826.1 31.8301 828.87 31.8301C831.63 31.8301 833.87 34.0701 833.87 36.8301C833.87 39.5901 831.63 41.8301 828.87 41.8301C826.1 41.8301 823.87 39.5901 823.87 36.8301Z" fill="black"/>
<path d="M812.22 36.9995C812.19 34.2295 814.41 31.9695 817.17 31.9495C819.93 31.9195 822.19 34.1295 822.22 36.8895C822.25 39.6495 820.03 41.9195 817.27 41.9395H817.21C814.48 41.9395 812.25 39.7395 812.22 36.9995Z" fill="black"/>
<path d="M810.8 41.4797C808.09 40.9397 806.33 38.3097 806.86 35.5997C807.4 32.8897 810.03 31.1297 812.74 31.6697C815.45 32.1997 817.21 34.8297 816.67 37.5397C816.2 39.9197 814.11 41.5697 811.77 41.5697C811.45 41.5697 811.12 41.5397 810.8 41.4797Z" fill="black"/>
<path d="M806.45 40.6203C803.75 40.0803 801.99 37.4503 802.52 34.7403C803.06 32.0303 805.69 30.2703 808.4 30.8103C811.11 31.3503 812.87 33.9803 812.33 36.6803C811.86 39.0703 809.77 40.7103 807.43 40.7103C807.11 40.7103 806.78 40.6803 806.45 40.6203Z" fill="black"/>
<path d="M764.53 41.9C763.34 39.41 764.4 36.43 766.9 35.24C769.39 34.06 772.38 35.12 773.56 37.61C774.75 40.11 773.69 43.09 771.19 44.27C770.5 44.6 769.77 44.76 769.05 44.76C767.18 44.76 765.39 43.71 764.53 41.9Z" fill="black"/>
<path d="M747.78 67.0794C745.04 66.7694 743.07 64.2894 743.38 61.5494C743.7 58.7994 746.17 56.8394 748.92 57.1494C751.66 57.4594 753.63 59.9394 753.32 62.6794C753.03 65.2294 750.87 67.1094 748.36 67.1094C748.17 67.1094 747.98 67.0994 747.78 67.0794Z" fill="black"/>
<path d="M746.72 71.52C746.02 68.85 747.62 66.12 750.3 65.43C752.97 64.73 755.7 66.33 756.39 69C757.09 71.67 755.49 74.41 752.82 75.1C752.39 75.21 751.97 75.27 751.55 75.27C749.33 75.27 747.3 73.77 746.72 71.52Z" fill="black"/>
<path d="M745.34 71.7099C744.71 69.0199 746.38 66.3299 749.07 65.7099L749.75 65.5499C752.43 64.9199 755.12 66.5899 755.75 69.2799C756.38 71.9699 754.71 74.6599 752.02 75.2899L751.34 75.4499C750.96 75.5399 750.58 75.5799 750.2 75.5799C747.93 75.5799 745.88 74.0199 745.34 71.7099Z" fill="black"/>
<path d="M730.33 75.16C729.71 72.47 731.38 69.78 734.08 69.16C736.77 68.54 739.45 70.22 740.07 72.91C740.69 75.6 739.01 78.29 736.32 78.91C735.94 79 735.57 79.0399 735.2 79.0399C732.92 79.0399 730.86 77.4699 730.33 75.16Z" fill="black"/>
<path d="M757.43 105.029C754.69 104.669 752.75 102.169 753.1 99.4294C753.46 96.6894 755.96 94.7494 758.7 95.1094C761.44 95.4594 763.38 97.9594 763.02 100.699C762.7 103.229 760.55 105.069 758.07 105.069C757.86 105.069 757.64 105.049 757.43 105.029Z" fill="black"/>
<path d="M767.41 106.28C764.67 105.93 762.73 103.43 763.07 100.69C763.41 97.9501 765.91 96.0101 768.65 96.3601C771.39 96.7001 773.33 99.2001 772.99 101.94C772.67 104.47 770.52 106.32 768.03 106.32C767.83 106.32 767.62 106.3 767.41 106.28Z" fill="black"/>
<path d="M749.03 107.19C748.21 104.55 749.69 101.75 752.33 100.94C754.97 100.12 757.76 101.6 758.58 104.24C759.4 106.87 757.92 109.67 755.28 110.49C754.79 110.64 754.29 110.72 753.8 110.72C751.67 110.72 749.69 109.34 749.03 107.19Z" fill="black"/>
<path d="M760.85 127.43C758.82 125.55 758.69 122.39 760.56 120.36C762.44 118.33 765.6 118.2 767.63 120.08C769.66 121.95 769.79 125.11 767.91 127.14C766.93 128.21 765.58 128.75 764.24 128.75C763.02 128.75 761.81 128.31 760.85 127.43Z" fill="black"/>
<path d="M780.07 140.47C777.54 139.36 776.39 136.41 777.5 133.88C778.61 131.35 781.56 130.2 784.09 131.31C786.61 132.41 787.77 135.36 786.66 137.89C785.84 139.77 784 140.89 782.08 140.89C781.41 140.89 780.73 140.75 780.07 140.47Z" fill="black"/>
<path d="M800.33 146.9C797.61 146.4 795.81 143.79 796.31 141.08C796.82 138.36 799.42 136.57 802.14 137.07C804.85 137.57 806.65 140.18 806.15 142.89C805.7 145.3 803.6 146.99 801.24 146.99C800.94 146.99 800.63 146.96 800.33 146.9Z" fill="black"/>
<path d="M808.41 141.979C808.41 139.219 810.65 136.979 813.41 136.979C816.17 136.979 818.41 139.219 818.41 141.979C818.41 144.749 816.17 146.979 813.41 146.979C810.65 146.979 808.41 144.749 808.41 141.979Z" fill="black"/>
<path d="M827.27 136.68C825.2 134.86 824.98 131.7 826.8 129.62C828.62 127.55 831.78 127.34 833.86 129.15C835.94 130.97 836.15 134.13 834.33 136.21C833.34 137.34 831.96 137.92 830.56 137.92C829.4 137.92 828.22 137.51 827.27 136.68Z" fill="black"/>
<path d="M830.2 116.469C829.77 113.739 831.64 111.179 834.37 110.759C837.1 110.339 839.65 112.199 840.08 114.929C840.5 117.659 838.64 120.219 835.91 120.639C835.65 120.679 835.39 120.699 835.13 120.699C832.71 120.699 830.58 118.939 830.2 116.469Z" fill="black"/>
<path d="M829.25 112.9C828.12 110.38 829.25 107.42 831.77 106.29C834.29 105.16 837.25 106.29 838.38 108.81C839.51 111.33 838.38 114.28 835.86 115.41C835.2 115.71 834.5 115.85 833.82 115.85C831.91 115.85 830.08 114.75 829.25 112.9Z" fill="black"/>
<path d="M828.93 112.11L828.69 111.51C827.67 108.95 828.93 106.04 831.49 105.02C834.06 103.99 836.97 105.25 837.99 107.81L838.22 108.41C839.25 110.97 837.99 113.88 835.43 114.9C834.82 115.14 834.19 115.26 833.58 115.26C831.59 115.26 829.71 114.07 828.93 112.11Z" fill="black"/>
<path d="M790.81 37.9796C790.51 35.2296 792.49 32.7596 795.24 32.4596C797.98 32.1596 800.45 34.1496 800.75 36.8896C801.05 39.6396 799.07 42.0996 796.32 42.3996C796.14 42.4196 795.96 42.4296 795.77 42.4296C793.26 42.4296 791.09 40.5396 790.81 37.9796Z" fill="black"/>
<path d="M802.43 43.2599C799.78 42.5099 798.23 39.7499 798.98 37.0899C799.73 34.4299 802.49 32.8899 805.15 33.6399C807.81 34.3899 809.36 37.1499 808.6 39.8099C807.98 42.0099 805.98 43.4499 803.79 43.4499C803.34 43.4499 802.89 43.3899 802.43 43.2599Z" fill="black"/>
<path d="M806.65 49.73C803.96 49.12 802.27 46.44 802.88 43.75C803.5 41.06 806.18 39.37 808.87 39.98C811.56 40.6 813.25 43.27 812.64 45.97C812.11 48.29 810.05 49.86 807.76 49.86C807.4 49.86 807.02 49.82 806.65 49.73Z" fill="black"/>
<path d="M799.64 58.6001C797.42 56.9701 796.94 53.8401 798.57 51.6101C800.2 49.3901 803.33 48.9101 805.56 50.5401C807.78 52.1801 808.27 55.3001 806.63 57.5301C805.65 58.8701 804.13 59.5701 802.6 59.5701C801.57 59.5701 800.53 59.2601 799.64 58.6001Z" fill="black"/>
<path d="M771.52 77.41C768.76 77.31 766.6 74.99 766.71 72.23C766.81 69.47 769.13 67.31 771.89 67.42C774.65 67.52 776.8 69.84 776.7 72.6C776.6 75.3 774.38 77.41 771.71 77.41H771.52Z" fill="black"/>
<path d="M758.94 72.24C757.32 70.01 757.82 66.88 760.05 65.26C762.29 63.64 765.42 64.14 767.04 66.37C768.66 68.61 768.16 71.73 765.92 73.35C765.04 74 764.01 74.31 762.99 74.31C761.44 74.31 759.92 73.59 758.94 72.24Z" fill="black"/>
<path d="M761.01 65.3101C758.71 63.7801 758.08 60.6801 759.6 58.3801C761.12 56.0801 764.23 55.4501 766.53 56.9701C768.83 58.4901 769.46 61.5901 767.94 63.9001C766.98 65.3501 765.39 66.1401 763.77 66.1401C762.82 66.1401 761.86 65.8701 761.01 65.3101Z" fill="black"/>
<path d="M809.62 139.54C808.81 136.9 810.3 134.11 812.94 133.3C815.58 132.49 818.37 133.97 819.18 136.61C819.99 139.25 818.51 142.05 815.87 142.85C815.38 143 814.89 143.08 814.4 143.08C812.26 143.08 810.28 141.69 809.62 139.54Z" fill="black"/>
<path d="M777.32 131.73C775.36 129.78 775.36 126.61 777.31 124.66C779.26 122.7 782.43 122.7 784.38 124.65C786.34 126.6 786.34 129.76 784.38 131.72C783.4 132.7 782.12 133.19 780.84 133.19C779.56 133.19 778.28 132.7 777.31 131.73H777.32Z" fill="black"/>
<path d="M773.81 128.23C771.85 126.29 771.84 123.12 773.79 121.16C775.74 119.2 778.9 119.2 780.86 121.14C782.82 123.09 782.83 126.26 780.88 128.22C779.9 129.2 778.62 129.69 777.33 129.69C776.06 129.69 774.78 129.2 773.81 128.23Z" fill="black"/>
<path d="M761.07 106.869C760.32 104.219 761.87 101.449 764.52 100.709C767.18 99.9595 769.94 101.51 770.69 104.16C771.44 106.819 769.89 109.579 767.23 110.329C766.78 110.459 766.32 110.519 765.88 110.519C763.69 110.519 761.69 109.079 761.07 106.869Z" fill="black"/>
<path d="M774.48 102.24C773.84 99.5502 775.5 96.8502 778.19 96.2202C780.88 95.5802 783.57 97.2402 784.21 99.9302C784.85 102.62 783.19 105.31 780.5 105.95C780.11 106.04 779.72 106.08 779.34 106.08C777.08 106.08 775.02 104.53 774.48 102.24Z" fill="black"/>
<path d="M784.51 101.549C784.07 98.8294 785.92 96.2594 788.65 95.8194C791.37 95.3694 793.94 97.2194 794.38 99.9494C794.83 102.669 792.98 105.239 790.25 105.689C789.98 105.729 789.71 105.749 789.44 105.749C787.04 105.749 784.91 104.009 784.51 101.549Z" fill="black"/>
<path d="M795.83 105.699C793.07 105.539 790.96 103.179 791.12 100.419C791.28 97.6695 793.64 95.5595 796.4 95.7195C799.16 95.8795 801.26 98.2395 801.1 100.999C800.95 103.659 798.75 105.709 796.12 105.709C796.02 105.709 795.92 105.709 795.83 105.709V105.699Z" fill="black"/>
<path d="M809.5 108.64C807.41 106.84 807.17 103.69 808.97 101.59C810.77 99.4996 813.93 99.2596 816.02 101.06C818.12 102.87 818.35 106.02 816.55 108.12C815.56 109.26 814.16 109.85 812.76 109.85C811.6 109.85 810.44 109.46 809.5 108.64Z" fill="black"/>
<path d="M816.7 138.21C814.59 136.43 814.31 133.28 816.09 131.16C817.86 129.05 821.02 128.78 823.13 130.56C825.25 132.33 825.52 135.49 823.74 137.6C822.75 138.78 821.34 139.38 819.91 139.38C818.78 139.38 817.63 139 816.7 138.21Z" fill="black"/>
<path d="M498.77 78.1402C497.72 75.5902 498.94 72.6602 501.49 71.6102C504.04 70.5602 506.97 71.7802 508.02 74.3302C509.07 76.8902 507.85 79.8102 505.3 80.8602C504.67 81.1202 504.03 81.2402 503.4 81.2402C501.43 81.2402 499.56 80.0702 498.77 78.1402Z" fill="black"/>
<path d="M497.59 45.3897C495.28 43.8697 494.65 40.7697 496.17 38.4597C497.69 36.1597 500.8 35.5197 503.1 37.0497C505.4 38.5697 506.04 41.6697 504.52 43.9697C503.55 45.4297 501.96 46.2197 500.34 46.2197C499.39 46.2197 498.44 45.9497 497.59 45.3897Z" fill="black"/>
<path d="M476.22 37.0097C476.11 34.2497 478.27 31.9297 481.03 31.8197C483.79 31.7197 486.11 33.8797 486.21 36.6397C486.31 39.3997 484.16 41.7197 481.4 41.8197H481.21C478.53 41.8197 476.32 39.6997 476.22 37.0097Z" fill="black"/>
<path d="M447.11 49.8794C445.56 47.5894 446.17 44.4794 448.46 42.9394C450.75 41.3894 453.85 41.9994 455.4 44.2794C456.94 46.5694 456.34 49.6794 454.05 51.2294C453.19 51.7994 452.22 52.0794 451.26 52.0794C449.65 52.0794 448.07 51.3094 447.11 49.8794Z" fill="black"/>
<path d="M441.01 54.6998C439.24 52.5798 439.52 49.4298 441.64 47.6598C443.76 45.8898 446.91 46.1698 448.68 48.2898C450.45 50.4098 450.17 53.5598 448.05 55.3298C447.11 56.1198 445.98 56.4998 444.85 56.4998C443.42 56.4998 442 55.8898 441.01 54.6998Z" fill="black"/>
<path d="M419.61 83.1395C417.2 81.7895 416.35 78.7395 417.7 76.3295C419.05 73.9195 422.1 73.0695 424.5 74.4195C426.91 75.7695 427.77 78.8195 426.42 81.2195C425.5 82.8595 423.8 83.7795 422.05 83.7795C421.22 83.7795 420.38 83.5695 419.61 83.1395Z" fill="black"/>
<path d="M435.29 102.19C433.14 100.47 432.78 97.3196 434.51 95.1596C436.23 92.9996 439.38 92.6496 441.53 94.3696C443.69 96.0896 444.05 99.2396 442.32 101.4C441.34 102.64 439.88 103.28 438.41 103.28C437.32 103.28 436.22 102.92 435.29 102.19Z" fill="black"/>
<path d="M455.82 115.35C453.27 114.29 452.06 111.36 453.13 108.81C454.18 106.26 457.11 105.05 459.66 106.11C462.21 107.17 463.42 110.1 462.36 112.65C461.56 114.57 459.7 115.73 457.74 115.73C457.1 115.73 456.45 115.61 455.82 115.35Z" fill="black"/>
<path d="M476.53 121.079C473.8 120.719 471.87 118.209 472.23 115.469C472.59 112.729 475.1 110.809 477.84 111.169C480.57 111.529 482.5 114.039 482.14 116.769C481.81 119.289 479.66 121.119 477.19 121.119C476.97 121.119 476.75 121.119 476.53 121.079Z" fill="black"/>
<path d="M500.68 112.35C498.77 110.36 498.84 107.2 500.83 105.28C502.82 103.37 505.99 103.44 507.9 105.43C509.81 107.42 509.75 110.59 507.75 112.5C506.78 113.43 505.54 113.89 504.29 113.89C502.98 113.89 501.66 113.38 500.68 112.35Z" fill="black"/>
<path d="M507.34 105.409C504.66 104.779 502.99 102.089 503.63 99.3994C504.26 96.7094 506.95 95.0494 509.64 95.6794C512.33 96.3194 513.99 99.0094 513.36 101.699C512.82 103.999 510.76 105.549 508.5 105.549C508.12 105.549 507.73 105.499 507.34 105.409Z" fill="black"/>
<path d="M501.59 84.9998C500.53 82.4498 501.73 79.5298 504.28 78.4598C506.83 77.3998 509.76 78.5998 510.82 81.1498C511.88 83.6998 510.68 86.6298 508.13 87.6898C507.5 87.9498 506.85 88.0798 506.21 88.0798C504.25 88.0798 502.39 86.9198 501.59 84.9998Z" fill="black"/>
<path d="M478.79 113.839C478.46 111.099 480.42 108.609 483.16 108.279C485.91 107.959 488.39 109.919 488.72 112.659C489.04 115.399 487.08 117.889 484.34 118.209C484.14 118.239 483.94 118.249 483.74 118.249C481.25 118.249 479.09 116.379 478.79 113.839Z" fill="black"/>
<path d="M452.98 102.939C451.04 100.979 451.05 97.8194 453 95.8694C454.96 93.9194 458.13 93.9294 460.07 95.8894C462.02 97.8494 462.01 101.009 460.06 102.959C459.08 103.929 457.81 104.409 456.53 104.409C455.25 104.409 453.96 103.919 452.98 102.939Z" fill="black"/>
<path d="M447.47 96.9598C445.73 94.8098 446.06 91.6598 448.2 89.9198C450.34 88.1798 453.49 88.5098 455.23 90.6498C456.97 92.7998 456.65 95.9498 454.5 97.6898C453.58 98.4398 452.46 98.8098 451.35 98.8098C449.9 98.8098 448.46 98.1698 447.47 96.9598Z" fill="black"/>
<path d="M434.49 80.9498C432.75 78.7998 433.08 75.6498 435.23 73.9198C437.37 72.1798 440.52 72.5098 442.26 74.6498C444 76.7998 443.67 79.9498 441.52 81.6798C440.6 82.4298 439.48 82.7998 438.38 82.7998C436.92 82.7998 435.48 82.1698 434.49 80.9498Z" fill="black"/>
<path d="M439.61 76.1702C437.41 74.5002 436.98 71.3702 438.65 69.1702C440.32 66.9702 443.46 66.5402 445.66 68.2102C447.86 69.8802 448.29 73.0202 446.62 75.2202C445.63 76.5102 444.14 77.1902 442.63 77.1902C441.58 77.1902 440.51 76.8602 439.61 76.1702Z" fill="black"/>
<path d="M446.98 65.8396C444.88 64.0496 444.62 60.8996 446.41 58.7896C448.19 56.6896 451.35 56.4296 453.46 58.2196C455.56 60.0096 455.82 63.1596 454.03 65.2696C453.04 66.4296 451.63 67.0296 450.21 67.0296C449.07 67.0296 447.92 66.6396 446.98 65.8396Z" fill="black"/>
<path d="M452.58 59.2303C450.47 57.4503 450.21 54.2903 451.98 52.1803C453.77 50.0703 456.92 49.8003 459.03 51.5803C461.14 53.3603 461.41 56.5203 459.63 58.6303C458.64 59.8003 457.23 60.4103 455.8 60.4103C454.67 60.4103 453.52 60.0203 452.58 59.2303Z" fill="black"/>
<path d="M484.63 45.0694C481.94 44.4194 480.28 41.7294 480.92 39.0394C481.56 36.3594 484.26 34.6994 486.95 35.3394C489.63 35.9794 491.29 38.6694 490.65 41.3594C490.1 43.6594 488.05 45.1994 485.79 45.1994C485.41 45.1994 485.02 45.1594 484.63 45.0694Z" fill="black"/>
<path d="M487.49 74.0097C484.99 72.8297 483.93 69.8397 485.12 67.3497C486.3 64.8597 489.29 63.7897 491.78 64.9797C494.27 66.1597 495.34 69.1497 494.15 71.6397C493.29 73.4397 491.5 74.4997 489.63 74.4997C488.91 74.4997 488.18 74.3397 487.49 74.0097Z" fill="black"/>
<path d="M484.08 81.1398C481.59 79.9498 480.53 76.9698 481.72 74.4798C482.91 71.9798 485.89 70.9298 488.39 72.1098C490.88 73.2998 491.94 76.2898 490.75 78.7798C489.89 80.5798 488.1 81.6298 486.23 81.6298C485.51 81.6298 484.78 81.4698 484.08 81.1398Z" fill="black"/>
<path d="M487 89.3103C485.9 86.7703 487.08 83.8303 489.62 82.7403C492.15 81.6503 495.09 82.8303 496.18 85.3603C497.27 87.9003 496.1 90.8403 493.56 91.9303C492.92 92.2103 492.25 92.3403 491.59 92.3403C489.65 92.3403 487.81 91.2003 487 89.3103Z" fill="black"/>
<path d="M488.76 95.87C488.11 93.19 489.77 90.4899 492.45 89.8399C495.14 89.1999 497.84 90.85 498.48 93.53C499.13 96.22 497.48 98.92 494.79 99.57C494.4 99.66 494 99.71 493.62 99.71C491.36 99.71 489.31 98.17 488.76 95.87Z" fill="black"/>
<path d="M490.6 112.91C488.11 111.72 487.06 108.74 488.25 106.25C489.44 103.75 492.43 102.7 494.92 103.89C497.41 105.08 498.46 108.07 497.27 110.56C496.41 112.36 494.62 113.4 492.76 113.4C492.03 113.4 491.3 113.25 490.6 112.91Z" fill="black"/>
</g>
</g>
<defs>
<clipPath id="clip0_2559_8446">
<rect width="1005.67" height="146.99" fill="white"/>
</clipPath>
</defs>
</svg>
