<svg width="688" height="345" viewBox="0 0 688 345" fill="none" xmlns="http://www.w3.org/2000/svg">
<g clip-path="url(#clip0_2559_5267)">
<mask id="mask0_2559_5267" style="mask-type:luminance" maskUnits="userSpaceOnUse" x="0" y="0" width="688" height="345">
<path d="M687.48 0H0V344.54H687.48V0Z" fill="white"/>
</mask>
<g mask="url(#mask0_2559_5267)">
<path d="M134.31 58.8902C134.14 60.6402 134.05 62.3702 133.42 64.0002C132.33 66.8302 130.76 69.4402 127.89 70.9702C123.43 73.3502 118.31 72.8302 114.68 69.7502C114.21 69.3602 113.59 68.5702 113.18 68.0602C111.67 66.1802 111.05 63.8002 110.59 61.4902C109.4 55.4802 109.93 47.8002 114.52 43.2802C118.26 39.6002 124.29 39.3802 128.82 42.0602C130.7 43.1802 131.75 45.2902 132.78 47.1602C134.54 50.3502 134.63 55.3302 134.31 58.9002M149.7 48.6002L148.86 45.1102C146.85 36.7402 139.49 29.4602 131.06 27.3602C124.47 25.7002 119.74 25.8102 113.22 27.5002C109.32 28.5102 105.76 30.4702 102.79 33.1702C101.4 34.4402 100.02 35.5702 98.9102 37.0902C96.9102 39.8602 94.4702 45.0702 94.0602 48.3802L93.4902 52.9102C93.2502 54.7502 93.4002 56.4902 93.4902 58.3702C93.4602 57.5402 93.4102 62.6902 92.9502 61.6002C92.3202 60.7502 92.7302 59.8502 92.6902 58.8502L92.6102 56.1702C92.5502 54.4702 92.5702 52.8302 92.7202 51.1002L93.0002 48.1502C93.1202 46.8002 93.2602 45.4802 93.2702 44.1302L93.4702 14.2502L93.6402 6.08023C93.6402 5.79023 93.1902 5.13023 93.0702 4.99023H92.2602C91.9102 5.58023 91.7202 6.31023 91.7102 7.12023L91.6002 24.6902L91.5302 52.0802V54.6502L91.4002 67.3802L91.2502 70.4202L91.1702 85.7102C91.1602 86.1102 91.4302 86.6702 91.7402 86.8602C92.0002 87.0102 92.5902 86.8302 92.7802 86.5902C92.9702 86.3702 92.8802 85.7802 92.8602 85.3702C92.7402 83.3402 92.8402 81.4102 92.9402 79.3702C93.1802 74.3402 93.0702 69.3502 93.0202 64.2602C93.0102 63.4202 92.8102 62.7702 93.2302 62.0502L94.7802 67.6802C95.0702 68.7302 95.6102 69.8802 96.0202 70.9502C97.7202 75.2902 100.66 78.8302 104.29 81.7202C106.7 83.6502 109.42 84.7502 112.35 85.7702C115.59 86.9102 118.94 86.7602 122.36 86.8202C125.36 86.8902 127.93 86.3802 130.73 85.5302C133.61 84.6702 135.94 83.2202 138.43 81.6002C144.52 77.6502 148.54 71.6002 149.78 64.4602C150.77 58.7802 151.04 54.1802 149.69 48.5802" fill="#90BEFB"/>
<path d="M86.4601 151.99L85.0901 156.54L83.7201 161.47L82.3301 166.72L80.6701 173.09L79.2601 178.11L77.8601 183.14L76.4301 188.4L75.1301 193.29L73.7701 198.36L72.4501 203.25C71.6301 206.3 72.0101 207.97 70.4001 207.97H55.4301C54.9401 207.39 54.6701 206.6 54.5101 205.88C54.0801 203.8 53.5801 201.89 53.0601 199.85L51.0401 191.92L49.6301 186.38L48.4701 181.87L47.6401 178.07C47.1501 175.83 47.4701 175.94 46.8801 175.19C46.7701 175.04 46.2901 175.62 46.2301 175.81L45.1001 180.43L43.8301 185.94L42.1601 193.09L40.7801 198.95L39.4701 204.38L38.6601 207.54C37.9901 208.38 36.7601 207.7 36.0301 207.7L22.6601 207.67C21.9001 205.73 21.4601 203.93 20.9101 202.03L19.6501 197.68L18.5901 193.6L17.1401 188.42L15.8701 184.02L15.1801 181.79L13.7801 177.05L13.0701 174.58L11.8801 170.05C11.2801 167.74 10.5101 165.51 9.98009 163.16C9.79009 162.31 9.58009 161.67 9.32009 160.81L6.47009 151.22C6.36009 150.84 6.88009 149.97 7.20009 150.03L8.70009 150.27L23.5501 150.36C24.4801 150.37 24.3801 151.87 24.5001 152.43C24.8301 153.79 25.1201 155.24 25.3801 156.58L26.3901 161.69L27.3101 166.18L28.0701 169.82L29.5201 176.68L30.1801 180.05L30.8901 183.27C31.0801 184.18 30.4701 185.05 31.9201 185.56L32.3601 183.09L33.8401 175.14L35.4401 167.39L36.4201 163.12C36.8201 161.36 37.0101 159.69 37.4601 157.95C38.4001 154.36 37.8901 153.34 39.1001 150.58H53.4601C53.8901 150.57 54.3201 151.43 54.4001 151.78L55.2201 155.72L56.5501 161.9L57.8601 167.58L58.9101 171.93L59.7401 175.75L60.9801 181.5C61.2401 182.72 61.6001 183.86 61.6101 185.17C61.6101 185.34 61.7301 185.74 61.8001 185.88C61.8801 186.08 62.6001 185.9 62.6401 185.61L63.8101 179.5L64.7801 174.48L65.7001 169.63L67.0901 162.71L68.4201 156.04L69.3301 152.44C69.5101 151.75 69.3701 150.57 70.4501 150.57H85.7201C86.3801 150.57 86.6001 151.55 86.4601 151.99Z" fill="#90BEFB"/>
<path d="M189.24 215.55C189.34 216.55 189.56 219.64 188.96 220.15C188.72 220.34 188.15 220.23 187.7 220.14C185.84 219.77 184.19 219.83 182.32 220.04C177.02 220.64 173.46 224.96 172.84 230.22L172.47 233.31C171.98 237.36 172.49 241.31 172.53 245.44L172.66 263.25C172.67 263.61 172.28 264.31 172.03 264.61L162.73 264.52C161.28 264.5 159.54 264.22 158.17 264.61C157.78 264.72 156.5 264.47 156.42 264.03C156.16 262.55 156.25 260.98 156.32 259.63L156.44 257.1C156.54 255.08 156.57 253.1 156.44 251.05L156.27 248.49L156.25 207.05C156.9 206.54 157.58 206.48 158.39 206.43L162.14 206.23L171.09 206.14C171.48 206.14 172.18 206.79 172.17 207.16L172.05 210.69L171.97 211.53C171.96 211.77 172.69 212.12 172.89 211.93C176.2 208.61 179.04 206.46 183.65 204.99C184.73 204.65 188.82 203.49 189.18 205.24C189.8 208.34 188.8 210.96 189.25 215.56" fill="#90BEFB"/>
</g>
<path d="M555.03 156.02H553.15V236.46H555.03V156.02Z" fill="#90BEFB"/>
<path d="M89.9373 28.9008L87.8975 28.9229L88.7782 110.308L90.818 110.286L89.9373 28.9008Z" fill="#90BEFB"/>
<path d="M460.42 316.6L458.39 316.61L458.08 235.9H460.11L460.42 316.6Z" fill="#90BEFB"/>
<path d="M7.77 146.08L5.7 146.1L5 64.8501L7.07 64.8301L7.77 146.08Z" fill="#90BEFB"/>
<path d="M332.55 247.52L330.55 247.55L330.08 167.09L332.08 167.08L332.55 247.52Z" fill="#90BEFB"/>
<path d="M190.598 40.9335L189.696 122.979L191.816 123.002L192.718 40.9568L190.598 40.9335Z" fill="#90BEFB"/>
<path d="M569.54 178.16H567.67V259.14H569.54V178.16Z" fill="#90BEFB"/>
<path d="M580.84 76.7197H578.96V157.43H580.84V76.7197Z" fill="#90BEFB"/>
<path d="M425.53 328.2L423.57 328.21L423.26 247.23H425.22L425.53 328.2Z" fill="#90BEFB"/>
<path d="M602.35 88.0498H600.47V168.76H602.35V88.0498Z" fill="#90BEFB"/>
<path d="M270.82 134.19L268.81 134.21L268.12 53.6304L270.12 53.6104L270.82 134.19Z" fill="#90BEFB"/>
<path d="M196.43 98.2598L194.46 98.2798L193.67 17.5698L195.64 17.5498L196.43 98.2598Z" fill="#90BEFB"/>
<path d="M490.77 270.73L488.83 270.74L488.55 189.76H490.49L490.77 270.73Z" fill="#90BEFB"/>
<path d="M537.02 201.36H535.14V282.34H537.02V201.36Z" fill="#90BEFB"/>
<path d="M597.78 212.96H596.18V293.94H597.78V212.96Z" fill="#90BEFB"/>
<path d="M606.38 99.3701H604.77V180.08H606.38V99.3701Z" fill="#90BEFB"/>
<path d="M609.61 110.7H608V191.41H609.61V110.7Z" fill="#90BEFB"/>
<path d="M591.06 122.03H589.18V202.74H591.06V122.03Z" fill="#90BEFB"/>
<path d="M612.57 133.36H610.96V214.07H612.57V133.36Z" fill="#90BEFB"/>
<path d="M515.49 258.82H513.61V339.53H515.49V258.82Z" fill="#90BEFB"/>
<path d="M384.07 305.27L382.23 305.28L381.77 224.57L383.62 224.56L384.07 305.27Z" fill="#90BEFB"/>
<mask id="mask1_2559_5267" style="mask-type:luminance" maskUnits="userSpaceOnUse" x="0" y="0" width="688" height="345">
<path d="M687.48 0H0V344.54H687.48V0Z" fill="white"/>
</mask>
<g mask="url(#mask1_2559_5267)">
<path d="M152.81 31.8402L152.71 46.0302L152.63 48.4702C152.54 50.9602 152.5 53.3602 152.59 55.8002L152.4 69.5102C152.38 71.1002 153.06 72.6402 151.93 74.3902C151.12 72.6302 151.32 70.8802 151.27 68.5002L151.07 60.3302C151.05 59.6002 151 58.9702 151.06 58.2702C151.19 56.3902 151.13 54.5602 151.13 52.6702L151.17 30.5302C151.17 30.0902 152.12 29.4802 152.43 29.7502C153.02 30.2702 152.83 31.1402 152.82 31.8602" fill="#90BEFB"/>
<path d="M155.41 246.43C155.25 246.81 154.01 246.88 153.84 246.58L154.11 211.43L154.47 208.73L154.55 206.75C154.6 205.26 154.64 203.75 154.55 202.24L154.84 200.57L155.05 195.25L155.33 201.34C155.59 206.9 155.49 212.44 155.37 218.06C155.35 219.2 155.19 220.18 155.36 221.33C155.74 223.89 155.05 224.11 155.35 228.58C155.53 231.12 155.48 233.71 155.38 236.29L155.29 238.42C155.22 240.28 155.68 243.99 155.4 246.43" fill="#90BEFB"/>
<path d="M152.57 191.39L152.49 207.18C152.49 207.44 151.99 207.94 151.8 207.85L150.88 207.41L150.97 185.72C150.97 185.72 151.56 176.52 152.29 177.44C152.48 178.67 152.63 179.72 152.63 180.69V183.39C152.63 184.83 152.35 186.36 152.63 187.8C152.87 188.98 152.59 190.01 152.57 191.38" fill="#90BEFB"/>
<path d="M155.99 73.57L155.93 90.94L155.68 94.69C155.59 96.17 155.41 97.48 155.09 99.04C154.78 98.27 154.8 97.28 154.63 96.58L154.26 95.13L154.35 74.71C154.36 74.16 154.24 73.65 154.46 73.42C154.73 73.14 155.76 73.2 155.98 73.56" fill="#90BEFB"/>
<path d="M152.1 273.67C151.42 272.49 151.7 271.43 152.09 270.15L152.38 271.33C152.56 272.18 152.45 273.02 152.1 273.67Z" fill="#90BEFB"/>
<path d="M682.48 138.8V219.24C682.13 219.31 681.68 219.39 681.39 219.4C681.15 219.42 680.87 218.67 680.87 218.38V141.04C679.05 142.5 677.82 143.75 676.58 145.28L668.23 153.82L658.28 164L651.17 171.52C653.98 175.06 656.03 178.67 658.39 182.4L664.51 192.11L670.08 201.02L671.98 203.98L680.13 216.79C679.96 217.27 679.64 217.83 679.33 217.89C679.06 217.93 678.41 217.65 678.09 217.65L658.95 217.62L646.69 196.23L639.61 183.89L632.47 190.92V216.8C632.47 217.15 631.74 217.64 631.42 217.64H616.37C615.98 217.63 615.27 216.95 615.27 216.51V179.06C615.27 178.72 615.47 178.02 615.43 177.69C615.3 176.86 615.36 175.72 615.45 174.71C615.67 172.22 615.39 169.84 615.38 167.33L615.26 141.23C615.26 140.84 615.7 139.86 616.08 139.86L631.86 139.88C632.36 140.14 632.58 141.19 632.54 141.71L632.26 145.77L632.16 168.97C632.16 169.4 631.88 170.09 632.35 170.17C632.61 170.22 633.1 169.9 633.29 169.68L636.44 166.07L643.3 158.17L651.5 148.66L657.65 141.37C658.05 140.9 658.61 139.87 659.43 139.87H679.41C679.75 139.87 680.54 140.3 680.62 140.05L680.9 139.04C680.97 138.79 681.5 138.4 681.74 138.49L682.47 138.79L682.48 138.8Z" fill="#90BEFB"/>
</g>
<path d="M614.72 144.69H613.11V225.4H614.72V144.69Z" fill="#90BEFB"/>
<mask id="mask2_2559_5267" style="mask-type:luminance" maskUnits="userSpaceOnUse" x="0" y="0" width="688" height="345">
<path d="M687.48 0H0V344.54H687.48V0Z" fill="white"/>
</mask>
<g mask="url(#mask2_2559_5267)">
<path d="M144 46.2804C143.35 43.6004 145 40.9004 147.69 40.2504C150.37 39.6004 153.07 41.2604 153.72 43.9404C154.37 46.6204 152.72 49.3204 150.03 49.9704C149.64 50.0704 149.24 50.1104 148.86 50.1104C146.6 50.1104 144.55 48.5704 144 46.2804Z" fill="black"/>
<path d="M129.85 32.2203C127.17 31.5503 125.54 28.8303 126.21 26.1503C126.88 23.4703 129.6 21.8503 132.27 22.5203C134.95 23.1803 136.58 25.9003 135.91 28.5803C135.34 30.8503 133.31 32.3703 131.07 32.3703C130.66 32.3703 130.26 32.3203 129.85 32.2203Z" fill="black"/>
<path d="M108.38 28.7603C107.68 26.0803 109.29 23.3603 111.96 22.6603C114.64 21.9703 117.36 23.5703 118.06 26.2503C118.75 28.9203 117.15 31.6503 114.47 32.3403C114.05 32.4503 113.63 32.5003 113.21 32.5003C110.99 32.5003 108.96 31.0103 108.38 28.7603Z" fill="black"/>
<path d="M99.0802 36.5398C97.2302 34.4998 97.3802 31.3298 99.4202 29.4798C101.46 27.6198 104.62 27.7698 106.48 29.8098C108.34 31.8498 108.19 35.0098 106.15 36.8698C105.19 37.7398 103.99 38.1698 102.78 38.1698C101.43 38.1698 100.07 37.6198 99.0802 36.5398Z" fill="black"/>
<path d="M95.9602 41.1396C93.7302 39.5096 93.2402 36.3896 94.8602 34.1496C96.4902 31.9196 99.6102 31.4296 101.85 33.0496C104.08 34.6796 104.57 37.7996 102.95 40.0396C101.97 41.3796 100.45 42.0996 98.9002 42.0996C97.8802 42.0996 96.8502 41.7896 95.9602 41.1396Z" fill="black"/>
<path d="M93.4299 53.3405C90.6899 53.0005 88.7499 50.5005 89.0899 47.7605C89.4299 45.0205 91.9399 43.0805 94.6799 43.4205C97.4099 43.7705 99.3599 46.2705 99.0099 49.0105C98.6999 51.5305 96.5399 53.3805 94.0599 53.3805C93.8499 53.3805 93.6399 53.3705 93.4299 53.3405Z" fill="black"/>
<path d="M92.8498 57.87C90.1098 57.53 88.1698 55.03 88.5198 52.28C88.8698 49.54 91.3698 47.6 94.1098 47.95C96.8498 48.3 98.7898 50.8 98.4398 53.54C98.1198 56.07 95.9698 57.91 93.4898 57.91C93.2798 57.91 93.0698 57.91 92.8498 57.87Z" fill="black"/>
<path d="M88.4899 58.6105C88.3499 55.8505 90.4799 53.5105 93.2399 53.3805C95.9999 53.2405 98.3399 55.3705 98.4699 58.1305C98.6099 60.8905 96.4799 63.2305 93.7199 63.3605C93.6399 63.3605 93.5599 63.3605 93.4799 63.3605C90.8199 63.3605 88.6199 61.2805 88.4899 58.6005V58.6105Z" fill="black"/>
<path d="M88.3402 63.5496C87.2602 60.9997 88.4502 58.0697 90.9902 56.9897C93.5402 55.9197 96.4702 57.1097 97.5502 59.6497C98.6202 62.1897 97.4302 65.1296 94.8902 66.1996C94.2502 66.4696 93.5902 66.5996 92.9402 66.5996C91.0002 66.5996 89.1402 65.4496 88.3402 63.5496Z" fill="black"/>
<path d="M87.6899 59.0304C87.5899 56.2604 89.7499 53.9504 92.5099 53.8504C95.2699 53.7604 97.5899 55.9204 97.6799 58.6804C97.7799 61.4404 95.6199 63.7504 92.8599 63.8504H92.6799C89.9999 63.8504 87.7799 61.7304 87.6899 59.0304Z" fill="black"/>
<path d="M87.6101 56.3201C87.5301 53.5601 89.7001 51.2501 92.4601 51.1701C95.2201 51.0901 97.5201 53.2701 97.6001 56.0301C97.6801 58.7901 95.5101 61.0901 92.7501 61.1701H92.6001C89.9101 61.1701 87.6901 59.0301 87.6101 56.3201Z" fill="black"/>
<path d="M92.2701 56.0903C89.5201 55.8403 87.4901 53.4003 87.7401 50.6503C87.9901 47.9003 90.4201 45.8803 93.1701 46.1303C95.9201 46.3803 97.9501 48.8103 97.7001 51.5603C97.4601 54.1603 95.2801 56.1103 92.7201 56.1103C92.5701 56.1103 92.4201 56.1003 92.2701 56.0903Z" fill="black"/>
<path d="M92.5201 53.1398C89.7801 52.8798 87.7601 50.4298 88.0201 47.6898C88.2801 44.9398 90.7201 42.9198 93.4701 43.1798C96.2201 43.4398 98.2401 45.8798 97.9701 48.6298C97.7301 51.2198 95.5501 53.1598 93.0001 53.1598C92.8501 53.1598 92.6901 53.1598 92.5201 53.1398Z" fill="black"/>
<path d="M93.2198 49.13C90.4598 49.11 88.2398 46.85 88.2698 44.09C88.2898 41.33 90.5498 39.11 93.3098 39.13C96.0698 39.16 98.2898 41.42 98.2698 44.18C98.2398 46.93 96.0098 49.14 93.2698 49.14C93.2698 49.14 93.2398 49.14 93.2198 49.14V49.13Z" fill="black"/>
<path d="M93.4299 19.2501C90.6699 19.2301 88.4499 16.9801 88.4699 14.2201C88.4899 11.4601 90.7399 9.23013 93.4999 9.25013C96.2599 9.27013 98.4899 11.5301 98.4699 14.2901C98.4499 17.0401 96.2099 19.2501 93.4699 19.2501H93.4299Z" fill="black"/>
<path d="M93.5299 11.0799C90.7699 11.0299 88.5799 8.73994 88.6399 5.97994C88.6999 3.21994 90.9799 1.02994 93.7399 1.07994C96.4999 1.13994 98.6899 3.41994 98.6399 6.18994C98.5799 8.90994 96.3499 11.0799 93.6399 11.0799H93.5299Z" fill="black"/>
<path d="M89.1098 8.06011C87.5298 6.02011 87.7598 3.07011 89.6998 1.30011C91.7398 -0.559895 94.9098 -0.409895 96.7598 1.63011C97.1098 2.02011 97.1698 2.14011 97.3298 2.36011C97.4698 2.56011 97.5998 2.77011 97.7498 3.03011C99.1298 5.43011 98.2898 8.48011 95.8898 9.85011C95.1098 10.3001 94.2598 10.5101 93.4198 10.5101C91.7098 10.5101 90.0398 9.63011 89.1098 8.06011Z" fill="black"/>
<path d="M92.2603 10C89.5003 10 87.2603 7.76 87.2603 5C87.2603 2.23 89.5003 0 92.2603 0H92.6603C95.4203 0 97.6603 2.23 97.6603 5C97.6603 7.76 95.4203 10 92.6603 10C89.5003 10 92.6603 10 92.2603 10Z" fill="black"/>
<path d="M91.63 12.1297C88.87 12.0797 86.67 9.80974 86.71 7.04974C86.75 4.28974 89.02 2.07974 91.78 2.12974C94.55 2.16974 96.75 4.43974 96.71 7.19974C96.67 9.93974 94.44 12.1297 91.71 12.1297H91.63Z" fill="black"/>
<path d="M91.5702 29.7003C88.8002 29.6803 86.5802 27.4303 86.6002 24.6703C86.6102 21.9103 88.8702 19.6803 91.6302 19.7003C94.3902 19.7203 96.6102 21.9703 96.6002 24.7303C96.5802 27.4803 94.3402 29.7003 91.6002 29.7003H91.5702Z" fill="black"/>
<path d="M91.3801 52.5696C88.6201 52.5396 86.4001 50.2896 86.4201 47.5296C86.4401 44.7696 88.7001 42.5396 91.4601 42.5696C94.2201 42.5896 96.4401 44.8396 96.4201 47.5996C96.4001 50.3496 94.1701 52.5696 91.4201 52.5696H91.3801Z" fill="black"/>
<path d="M91.15 90.7199C88.38 90.6999 86.16 88.4499 86.17 85.6899C86.19 82.9299 88.44 80.6999 91.2 80.7199C93.96 80.7199 96.18 82.9799 96.17 85.7399C96.16 88.4999 93.92 90.7199 91.17 90.7199H91.15Z" fill="black"/>
<path d="M89.1498 91.1601C87.6798 90.2001 87.2598 89.3501 86.8198 88.5401C85.6198 86.0601 86.6698 83.0701 89.1598 81.8701C91.3898 80.7901 94.0198 81.5201 95.4098 83.4801C96.8898 85.0801 97.1998 87.5201 96.0198 89.4801C95.0798 91.0301 93.4298 91.8801 91.7398 91.8801C90.8498 91.8801 89.9598 91.6501 89.1498 91.1601Z" fill="black"/>
<path d="M87.4798 88.2404C86.8198 85.8805 87.9598 83.4405 90.0898 82.3905C91.8498 81.2605 94.2098 81.3305 95.9298 82.7205C98.0798 84.4505 98.4098 87.6005 96.6698 89.7505C95.3498 91.2205 94.5598 91.3605 93.6498 91.6905C93.1998 91.8205 92.7398 91.8804 92.2998 91.8804C90.1098 91.8804 88.1098 90.4404 87.4798 88.2404Z" fill="black"/>
<path d="M87.9098 86.1403C87.9098 86.1403 87.9098 86.1403 87.8998 86.0603C87.8898 85.9803 87.8798 85.8503 87.8698 85.6503C87.7198 82.8903 89.8398 80.5403 92.5998 80.3903C95.3598 80.2403 97.7098 82.3603 97.8598 85.1203C97.8598 85.1203 97.8898 85.3903 97.8998 85.8603C97.9798 88.6203 95.7998 90.9203 93.0398 91.0003H92.8998C90.1998 91.0003 87.9798 88.8603 87.9098 86.1403Z" fill="black"/>
<path d="M92.6999 84.3804C89.9399 84.2404 87.8099 81.9004 87.9499 79.1404C88.0799 76.3804 90.4299 74.2604 93.1899 74.3904C95.9499 74.5304 98.0699 76.8704 97.9399 79.6304C97.7999 82.3004 95.5899 84.3904 92.9499 84.3904C92.8599 84.3904 92.7799 84.3904 92.6999 84.3904V84.3804Z" fill="black"/>
<path d="M88.0198 64.3306C87.9898 61.5706 90.1998 59.3106 92.9698 59.2806C95.7298 59.2506 97.9898 61.4606 98.0198 64.2206C98.0498 66.9806 95.8398 69.2506 93.0798 69.2806H93.0198C90.2798 69.2806 88.0498 67.0706 88.0198 64.3306Z" fill="black"/>
<path d="M90.6903 66.3696C88.3103 64.9696 87.5203 61.8996 88.9303 59.5296C90.3303 57.1496 93.4003 56.3596 95.7803 57.7596C98.1503 59.1696 98.9403 62.2296 97.5403 64.6096C96.6103 66.1896 94.9403 67.0696 93.2303 67.0696C92.3603 67.0696 91.4903 66.8496 90.6903 66.3696Z" fill="black"/>
<path d="M89.9599 69.0203C89.2299 66.3603 90.7899 63.6103 93.4599 62.8703C96.1199 62.1403 98.8699 63.7103 99.5999 66.3703C100.33 69.0303 98.7699 71.7903 96.1099 72.5203C95.6599 72.6403 95.2199 72.7003 94.7799 72.7003C92.5799 72.7003 90.5699 71.2403 89.9599 69.0203Z" fill="black"/>
<path d="M91.3602 72.7705C90.3702 70.1905 91.6502 67.3005 94.2202 66.3005C96.8002 65.3105 99.6902 66.5905 100.69 69.1705C101.68 71.7405 100.4 74.6405 97.8202 75.6305C97.2302 75.8605 96.6202 75.9705 96.0302 75.9705C94.0202 75.9705 92.1302 74.7505 91.3602 72.7705Z" fill="black"/>
<path d="M101.18 85.6603C99.0199 83.9403 98.6599 80.8003 100.38 78.6403C102.1 76.4803 105.25 76.1203 107.41 77.8403C109.57 79.5603 109.93 82.7003 108.21 84.8603C107.22 86.1003 105.76 86.7503 104.29 86.7503C103.2 86.7503 102.1 86.3903 101.18 85.6603Z" fill="black"/>
<path d="M110.71 90.5104C108.1 89.6004 106.73 86.7504 107.63 84.1404C108.54 81.5304 111.39 80.1604 114 81.0604C116.61 81.9704 117.99 84.8204 117.08 87.4304C116.36 89.4904 114.42 90.7904 112.35 90.7904C111.81 90.7904 111.25 90.7004 110.71 90.5104Z" fill="black"/>
<path d="M122.26 91.8397C119.5 91.7797 117.31 89.4997 117.36 86.7397C117.42 83.9797 119.7 81.7897 122.46 81.8397C125.22 81.8997 127.42 84.1797 127.36 86.9397C127.31 89.6697 125.08 91.8397 122.37 91.8397H122.26Z" fill="black"/>
<path d="M125.95 87.0004C125.15 84.3604 126.64 81.5704 129.28 80.7704C131.93 79.9604 134.72 81.4504 135.52 84.1004C136.32 86.7404 134.83 89.5304 132.19 90.3404C131.71 90.4804 131.22 90.5504 130.73 90.5504C128.59 90.5504 126.61 89.1604 125.95 87.0004Z" fill="black"/>
<path d="M134.25 84.3497C132.74 82.0397 133.39 78.9397 135.7 77.4297C138.01 75.9197 141.11 76.5697 142.62 78.8797C144.13 81.1897 143.48 84.2897 141.17 85.7997C140.33 86.3497 139.38 86.6197 138.44 86.6197C136.81 86.6197 135.21 85.8197 134.25 84.3497Z" fill="black"/>
<path d="M148.93 69.4103C146.21 68.9403 144.39 66.3503 144.87 63.6303C145.34 60.9103 147.93 59.0903 150.65 59.5603C153.37 60.0403 155.19 62.6302 154.72 65.3502C154.29 67.7802 152.18 69.4902 149.8 69.4902C149.51 69.4902 149.22 69.4703 148.93 69.4103Z" fill="black"/>
<path d="M144.84 49.76C144.19 47.08 145.85 44.38 148.53 43.73C151.22 43.09 153.92 44.75 154.56 47.43C155.21 50.12 153.55 52.82 150.87 53.46C150.48 53.55 150.08 53.6 149.7 53.6C147.44 53.6 145.39 52.06 144.84 49.76Z" fill="black"/>
<path d="M149.7 53.6005C147.44 53.6005 145.39 52.0505 144.84 49.7605L144.01 46.2705C143.37 43.5805 145.03 40.8905 147.71 40.2505C150.4 39.6105 153.09 41.2705 153.73 43.9505L154.56 47.4405C155.2 50.1305 153.54 52.8205 150.86 53.4605C150.47 53.5505 150.08 53.6005 149.7 53.6005Z" fill="black"/>
<path d="M131.63 68.6605C129.06 67.6705 127.77 64.7805 128.76 62.2005C129.75 59.6305 132.64 58.3405 135.22 59.3305C137.8 60.3205 139.08 63.2105 138.09 65.7905C137.33 67.7805 135.44 69.0005 133.43 69.0005C132.83 69.0005 132.22 68.8905 131.63 68.6605Z" fill="black"/>
<path d="M123.49 73.3299C122.19 70.8899 123.11 67.8599 125.54 66.5599C127.98 65.2599 131.01 66.1799 132.31 68.6099C133.61 71.0499 132.69 74.0799 130.26 75.3799C129.51 75.7799 128.7 75.9699 127.91 75.9699C126.12 75.9699 124.39 75.0099 123.49 73.3299Z" fill="black"/>
<path d="M111.45 73.5601C109.35 71.7701 109.09 68.6201 110.88 66.5101C112.66 64.4101 115.82 64.1501 117.92 65.9301C120.03 67.7201 120.28 70.8801 118.5 72.9801C117.51 74.1501 116.1 74.7501 114.68 74.7501C113.54 74.7501 112.39 74.3601 111.45 73.5601Z" fill="black"/>
<path d="M109.29 71.2005C107.56 69.0505 107.9 65.9005 110.05 64.1705C112.2 62.4405 115.35 62.7806 117.08 64.9306C118.81 67.0806 118.47 70.2206 116.32 71.9606C115.4 72.7006 114.29 73.0605 113.19 73.0605C111.73 73.0605 110.28 72.4305 109.29 71.2005Z" fill="black"/>
<path d="M105.69 62.4706C105.15 59.7606 106.91 57.1306 109.62 56.5906C112.33 56.0506 114.96 57.8106 115.5 60.5206C116.04 63.2306 114.28 65.8606 111.57 66.4006C111.24 66.4706 110.91 66.5006 110.59 66.5006C108.25 66.5006 106.17 64.8506 105.69 62.4706Z" fill="black"/>
<path d="M110.97 46.7801C109.03 44.8201 109.05 41.6501 111.02 39.7101C112.99 37.7701 116.15 37.8001 118.09 39.7601C120.03 41.7301 120 44.9001 118.04 46.8301C117.06 47.7901 115.8 48.2701 114.53 48.2701C113.24 48.2701 111.95 47.7801 110.97 46.7801Z" fill="black"/>
<path d="M126.29 46.3505C123.91 44.9505 123.12 41.8805 124.53 39.5005C125.93 37.1305 129 36.3405 131.38 37.7505C133.75 39.1505 134.54 42.2205 133.13 44.6005C132.2 46.1705 130.54 47.0505 128.83 47.0505C127.96 47.0505 127.08 46.8305 126.29 46.3505Z" fill="black"/>
<path d="M128.41 49.5603C127.08 47.1403 127.96 44.1003 130.38 42.7703C132.79 41.4403 135.84 42.3203 137.17 44.7403C138.5 47.1603 137.62 50.2003 135.2 51.5303C134.44 51.9503 133.61 52.1503 132.79 52.1503C131.03 52.1503 129.32 51.2203 128.41 49.5603Z" fill="black"/>
<path d="M133.86 63.8706C131.11 63.6106 129.08 61.1806 129.33 58.4306C129.58 55.6806 132.02 53.6606 134.77 53.9106C137.52 54.1606 139.54 56.5906 139.29 59.3406C139.05 61.9406 136.87 63.8906 134.32 63.8906C134.17 63.8906 134.01 63.8906 133.86 63.8706Z" fill="black"/>
<path d="M133.44 69.0001C133.16 69.0001 132.88 68.9801 132.59 68.9301C129.87 68.4601 128.04 65.8801 128.51 63.1601L129.39 58.0501C129.86 55.3301 132.44 53.5001 135.16 53.9701C137.88 54.4401 139.71 57.0201 139.24 59.7401L138.36 64.8501C137.94 67.2901 135.83 69.0101 133.44 69.0101V69.0001Z" fill="black"/>
<path d="M83.6599 161.33C81.0099 160.53 79.5099 157.74 80.3099 155.1C81.0999 152.46 83.8899 150.96 86.5399 151.75C89.1799 152.55 90.6799 155.33 89.8899 157.98C89.2299 160.14 87.2499 161.54 85.0999 161.54C84.6199 161.54 84.1399 161.47 83.6599 161.33Z" fill="black"/>
<path d="M72.4701 203.18C69.8001 202.46 68.2301 199.72 68.9501 197.05C69.6701 194.38 72.4201 192.81 75.0801 193.53C77.7501 194.25 79.3201 197 78.6001 199.66C78.0001 201.89 75.9801 203.36 73.7801 203.36C73.3501 203.36 72.9101 203.3 72.4701 203.18Z" fill="black"/>
<path d="M71.1498 208.06C68.4798 207.34 66.9098 204.59 67.6298 201.93C68.3498 199.26 71.0898 197.69 73.7598 198.41C76.4198 199.13 77.9998 201.87 77.2798 204.54C76.6798 206.77 74.6598 208.24 72.4598 208.23C72.0198 208.23 71.5798 208.18 71.1498 208.06Z" fill="black"/>
<path d="M65.3999 207.95C65.3999 205.19 67.6399 202.95 70.3999 202.95C73.1599 202.95 75.3999 205.19 75.3999 207.95C75.3999 210.71 73.1599 212.95 70.3999 212.95C67.6399 212.95 65.3999 210.71 65.3999 207.95Z" fill="black"/>
<path d="M55.4202 212.95C52.6602 212.95 50.4302 210.71 50.4302 207.95C50.4302 205.18 52.6702 202.95 55.4302 202.95C58.1902 202.95 60.4302 205.19 60.4302 207.95C60.4302 210.72 58.1902 212.95 55.4302 212.95H55.4202Z" fill="black"/>
<path d="M49.6302 206.95C49.0302 204.25 50.7402 201.58 53.4402 200.99C56.1402 200.4 58.8002 202.11 59.3902 204.81C59.9802 207.5 58.2802 210.17 55.5802 210.76C55.2202 210.84 54.8602 210.88 54.5002 210.88C52.2102 210.88 50.1402 209.28 49.6302 206.95Z" fill="black"/>
<path d="M48.22 201.06C47.54 198.39 49.16 195.67 51.84 194.99C54.51 194.31 57.23 195.93 57.91 198.61C58.59 201.29 56.97 204.01 54.29 204.68C53.88 204.79 53.47 204.84 53.06 204.84C50.83 204.84 48.79 203.33 48.22 201.06Z" fill="black"/>
<path d="M46.2 193.16C45.52 190.48 47.14 187.76 49.81 187.08C52.49 186.4 55.21 188.01 55.89 190.69C56.57 193.36 54.96 196.09 52.28 196.77C51.87 196.87 51.45 196.92 51.04 196.92C48.81 196.92 46.78 195.42 46.2 193.16Z" fill="black"/>
<path d="M43.6201 183.11C42.9401 180.44 44.5501 177.71 47.2201 177.03C49.9001 176.34 52.6201 177.95 53.3101 180.63C54.0001 183.3 52.3901 186.03 49.7101 186.71C49.2901 186.82 48.8801 186.87 48.4601 186.87C46.2401 186.87 44.2001 185.37 43.6201 183.11Z" fill="black"/>
<path d="M42.7502 179.14C42.1602 176.44 43.8702 173.77 46.5702 173.19C49.2702 172.6 51.9302 174.31 52.5202 177C53.1102 179.7 51.4002 182.37 48.7002 182.95C48.3502 183.03 47.9902 183.07 47.6302 183.07C45.3302 183.07 43.2602 181.48 42.7502 179.14Z" fill="black"/>
<path d="M42.96 178.29C41.24 176.13 41.61 172.98 43.77 171.27C45.94 169.56 49.08 169.92 50.8 172.09C52.51 174.25 52.14 177.4 49.98 179.11C49.06 179.84 47.97 180.19 46.88 180.19C45.4 180.19 43.94 179.54 42.96 178.29Z" fill="black"/>
<path d="M44.7998 180.6C42.1498 179.81 40.6498 177.03 41.4298 174.38C41.7798 173.33 41.9898 173.15 42.1798 172.82C42.3798 172.54 42.5498 172.32 42.7598 172.08C44.5998 170.02 47.7598 169.84 49.8198 171.68C51.7698 173.42 52.0398 176.34 50.5098 178.39C49.5998 179.89 47.9698 180.81 46.2298 180.81C45.7598 180.81 45.2798 180.74 44.7998 180.6Z" fill="black"/>
<path d="M43.9002 185.28C41.2202 184.62 39.5802 181.92 40.2402 179.23C40.8902 176.55 43.6002 174.91 46.2802 175.57C48.9702 176.23 50.6102 178.93 49.9502 181.61C49.3902 183.9 47.3502 185.43 45.1002 185.43C44.7002 185.43 44.3002 185.38 43.9002 185.28Z" fill="black"/>
<path d="M38.3202 209.24C35.6402 208.61 33.9702 205.92 34.6002 203.23C35.2302 200.54 37.9202 198.88 40.6102 199.51C43.3002 200.14 44.9702 202.83 44.3302 205.52C43.7902 207.82 41.7402 209.38 39.4702 209.38C39.0902 209.38 38.7102 209.33 38.3202 209.24Z" fill="black"/>
<path d="M37.4202 212.38C34.7502 211.7 33.1302 208.98 33.8202 206.3C34.5002 203.63 37.2202 202.01 39.9002 202.69C42.5702 203.38 44.1902 206.1 43.5102 208.77C42.9302 211.03 40.9002 212.54 38.6602 212.54C38.2602 212.54 37.8402 212.49 37.4202 212.38Z" fill="black"/>
<path d="M31.0298 207.7C31.0298 204.94 33.2598 202.7 36.0298 202.7C38.7898 202.7 41.0298 204.94 41.0298 207.7C41.0298 210.47 38.7898 212.7 36.0298 212.7C33.2598 212.7 31.0298 210.47 31.0298 207.7Z" fill="black"/>
<path d="M22.6402 212.66C19.8802 212.66 17.6502 210.41 17.6602 207.65C17.6602 204.89 19.9102 202.65 22.6702 202.66C25.4302 202.67 27.6602 204.91 27.6602 207.67C27.6502 210.43 25.4102 212.66 22.6602 212.66H22.6402Z" fill="black"/>
<path d="M16.0999 203.41C15.3399 200.76 16.8599 197.99 19.5199 197.22C22.1699 196.45 24.9399 197.98 25.7099 200.63C26.4799 203.29 24.9499 206.06 22.2999 206.83C21.8299 206.96 21.3599 207.02 20.8999 207.02C18.7299 207.02 16.7399 205.6 16.0999 203.41Z" fill="black"/>
<path d="M14.8501 199.06C14.0801 196.41 15.6101 193.64 18.2601 192.87C20.9201 192.1 23.6901 193.63 24.4501 196.29C25.2201 198.94 23.6901 201.71 21.0401 202.48C20.5801 202.61 20.1101 202.67 19.6501 202.67C17.4801 202.67 15.4801 201.25 14.8501 199.06Z" fill="black"/>
<path d="M8.26008 175.95C7.51008 173.3 9.05008 170.53 11.7001 169.78C14.3601 169.02 17.1201 170.56 17.8801 173.21C18.6401 175.87 17.1001 178.64 14.4401 179.39C13.9801 179.52 13.5201 179.58 13.0701 179.58C10.8901 179.58 8.89008 178.15 8.26008 175.95Z" fill="black"/>
<path d="M7.04985 171.31C6.34985 168.64 7.93985 165.91 10.6099 165.21C13.2799 164.51 16.0199 166.11 16.7199 168.78C17.4199 171.45 15.8199 174.18 13.1499 174.88C12.7299 174.99 12.2999 175.05 11.8799 175.05C9.65985 175.05 7.63985 173.56 7.04985 171.31Z" fill="black"/>
<path d="M5.10014 164.261C4.49014 161.571 6.17014 158.891 8.87014 158.281C11.5601 157.661 14.2401 159.351 14.8501 162.041C15.4701 164.731 13.7801 167.411 11.0901 168.031C10.7201 168.111 10.3401 168.151 9.97015 168.151C7.69015 168.151 5.63014 166.581 5.10014 164.261Z" fill="black"/>
<path d="M4.53 162.23C3.74 159.58 5.24 156.8 7.89 156.01C10.53 155.22 13.32 156.72 14.11 159.37C14.9 162.01 13.39 164.8 10.75 165.59C10.27 165.73 9.79 165.8 9.31 165.8C7.16 165.8 5.17 164.4 4.53 162.23Z" fill="black"/>
<path d="M1.68002 152.63C0.89002 149.98 2.40002 147.2 5.05002 146.41C7.70002 145.63 10.48 147.14 11.26 149.78C12.05 152.43 10.54 155.21 7.89002 156C7.42002 156.14 6.94002 156.21 6.47002 156.21C4.31002 156.21 2.32002 154.8 1.68002 152.63Z" fill="black"/>
<path d="M6.4401 154.96C3.7101 154.54 1.8401 151.98 2.2601 149.26C2.6801 146.53 5.2301 144.65 7.9601 145.07C10.6901 145.49 12.5601 148.05 12.1401 150.78C11.7601 153.25 9.6301 155.02 7.2001 155.02C6.9501 155.02 6.7001 155 6.4401 154.96Z" fill="black"/>
<path d="M7.93025 155.2L7.18025 155.08C4.45025 154.66 2.58026 152.1 3.01026 149.37C3.44026 146.64 5.99026 144.78 8.72026 145.2L9.47026 145.32C12.2003 145.75 14.0703 148.31 13.6403 151.04C13.2503 153.5 11.1303 155.26 8.71026 155.26C8.45026 155.26 8.19026 155.24 7.93025 155.2Z" fill="black"/>
<path d="M23.5199 155.34C20.7599 155.32 18.5299 153.07 18.5499 150.31C18.5699 147.55 20.8199 145.32 23.5799 145.34C26.3399 145.36 28.5699 147.61 28.5499 150.37C28.5399 153.12 26.2999 155.34 23.5499 155.34H23.5199Z" fill="black"/>
<path d="M19.6199 153.48C19.0299 150.78 20.7399 148.121 23.4399 147.531C26.1399 146.941 28.7999 148.651 29.3899 151.351C29.9799 154.051 28.2699 156.711 25.5699 157.301C25.2099 157.381 24.8499 157.42 24.4999 157.42C22.1999 157.42 20.1299 155.82 19.6199 153.48Z" fill="black"/>
<path d="M20.4898 157.55C19.9398 154.84 21.6998 152.2 24.3998 151.66C27.1098 151.12 29.7498 152.87 30.2898 155.58C30.8398 158.28 29.0798 160.92 26.3698 161.46C26.0398 161.53 25.7098 161.56 25.3798 161.56C23.0498 161.56 20.9598 159.92 20.4898 157.55Z" fill="black"/>
<path d="M21.4902 162.64C20.9602 159.93 22.7202 157.3 25.4302 156.77C28.1402 156.23 30.7702 158 31.3002 160.71C31.8402 163.41 30.0802 166.04 27.3702 166.58C27.0402 166.64 26.7102 166.67 26.3902 166.67C24.0502 166.67 21.9602 165.02 21.4902 162.64Z" fill="black"/>
<path d="M25.2899 181.05C24.7299 178.35 26.4699 175.7 29.1799 175.15C31.8799 174.59 34.5299 176.33 35.0799 179.03C35.6399 181.74 33.8999 184.38 31.1999 184.94C30.8599 185.01 30.5199 185.04 30.1799 185.04C27.8599 185.04 25.7799 183.42 25.2899 181.05Z" fill="black"/>
<path d="M26.01 184.33C25.42 181.63 27.12 178.97 29.82 178.38C32.52 177.78 35.19 179.49 35.78 182.19C36.37 184.89 34.66 187.55 31.96 188.14C31.6 188.22 31.24 188.26 30.89 188.26C28.59 188.26 26.52 186.67 26.01 184.33Z" fill="black"/>
<path d="M30.2801 190.27C27.6701 189.36 26.2901 186.51 27.2001 183.9C28.1101 181.29 30.9601 179.92 33.5701 180.82C36.1801 181.73 37.5501 184.58 36.6501 187.19C35.9301 189.25 33.9901 190.55 31.9201 190.55C31.3801 190.55 30.8201 190.46 30.2801 190.27Z" fill="black"/>
<path d="M31.4901 188C28.7701 187.52 26.9501 184.93 27.4401 182.21C27.9201 179.49 30.5201 177.67 33.2401 178.16C35.9501 178.64 37.7701 181.24 37.2801 183.95C36.8501 186.38 34.7501 188.08 32.3701 188.08C32.0801 188.08 31.7801 188.06 31.4901 188Z" fill="black"/>
<path d="M34.48 172.291C31.77 171.761 30.01 169.141 30.54 166.421C31.07 163.721 33.7 161.951 36.41 162.481C39.12 163.011 40.88 165.641 40.35 168.351C39.88 170.741 37.79 172.391 35.45 172.391C35.13 172.391 34.81 172.361 34.48 172.291Z" fill="black"/>
<path d="M35.3001 167.99C32.6101 167.38 30.9301 164.7 31.5401 162C32.1601 159.31 34.8401 157.63 37.5301 158.24C40.2301 158.86 41.9101 161.54 41.2901 164.23C40.7601 166.55 38.7001 168.12 36.4201 168.12C36.0501 168.12 35.6801 168.08 35.3001 167.99Z" fill="black"/>
<path d="M36.2098 162.79C33.5298 162.1 31.9298 159.37 32.6198 156.7C33.3098 154.03 36.0398 152.42 38.7098 153.11C41.3898 153.8 42.9898 156.53 42.2998 159.2C41.7198 161.46 39.6898 162.95 37.4698 162.95C37.0498 162.95 36.6298 162.9 36.2098 162.79Z" fill="black"/>
<path d="M37.0901 155.16C34.5601 154.05 33.4101 151.1 34.5201 148.57C35.6201 146.04 38.5701 144.89 41.1001 146C43.6301 147.1 44.7801 150.05 43.6801 152.58C42.8601 154.46 41.0201 155.58 39.1001 155.58C38.4301 155.58 37.7501 155.44 37.0901 155.16Z" fill="black"/>
<path d="M48.46 150.57C48.45 147.81 50.69 145.57 53.45 145.57C56.21 145.56 58.45 147.8 58.46 150.56C58.46 153.32 56.22 155.56 53.46 155.56C50.7 155.57 48.46 153.33 48.46 150.57Z" fill="black"/>
<path d="M49.7001 153.5C48.4201 151.23 49.1101 148.32 51.3101 146.87C53.6201 145.35 56.7201 145.99 58.2401 148.3C58.7401 149.13 58.9801 149.56 59.2701 150.67C59.8801 153.36 58.2001 156.04 55.5001 156.65C55.1301 156.74 54.7601 156.78 54.3901 156.78C52.3201 156.78 50.4201 155.48 49.7001 153.5Z" fill="black"/>
<path d="M50.3201 156.74C49.7601 154.03 51.5002 151.39 54.2002 150.83C56.9002 150.26 59.5501 152 60.1102 154.71C60.6702 157.41 58.9401 160.06 56.2301 160.62C55.8901 160.69 55.5501 160.72 55.2101 160.72C52.8901 160.72 50.8101 159.1 50.3201 156.74Z" fill="black"/>
<path d="M54.8702 176.85C54.2602 174.16 55.9502 171.48 58.6402 170.87C61.3402 170.26 64.0102 171.95 64.6202 174.65C65.2302 177.34 63.5402 180.02 60.8502 180.63C60.4702 180.71 60.1002 180.75 59.7402 180.75C57.4502 180.75 55.3902 179.17 54.8702 176.85Z" fill="black"/>
<path d="M56.0998 182.56C55.5198 179.86 57.2298 177.2 59.9298 176.61C62.6298 176.03 65.2898 177.74 65.8698 180.44C66.4598 183.14 64.7398 185.8 62.0398 186.39C61.6898 186.46 61.3298 186.5 60.9798 186.5C58.6798 186.5 56.6098 184.9 56.0998 182.56Z" fill="black"/>
<path d="M56.6199 185.21C56.5899 182.45 58.8099 180.19 61.5699 180.17C64.3299 180.14 66.5899 182.36 66.6099 185.12C66.6399 187.88 64.4199 190.14 61.6599 190.16H61.6099C58.8699 190.16 56.6399 187.96 56.6199 185.21Z" fill="black"/>
<path d="M57.3399 188.12C57.0199 187.44 56.9899 187.27 56.8699 186.86C56.1299 184.2 57.6899 181.45 60.3499 180.71C62.9499 179.98 65.6499 181.46 66.4499 184.03C67.3999 186.41 66.3899 189.16 64.0599 190.34C63.3299 190.7 62.5699 190.87 61.8099 190.87C59.9799 190.87 58.2199 189.87 57.3399 188.12Z" fill="black"/>
<path d="M57.5202 187.45C56.8402 185.36 57.6102 183.15 59.2802 181.9C60.3602 180.93 61.8502 180.42 63.4002 180.66C66.1302 181.08 68.0102 183.63 67.5902 186.36C67.2502 188.28 66.2202 189.23 65.5902 189.74C64.9002 190.26 64.3602 190.48 63.8202 190.67C63.3002 190.83 62.7802 190.91 62.2702 190.91C60.1602 190.91 58.2002 189.57 57.5202 187.45Z" fill="black"/>
<path d="M62.8698 184.41C60.1598 183.9 58.3798 181.28 58.8998 178.57C59.4198 175.85 62.0398 174.07 64.7498 174.59C67.4598 175.11 69.2398 177.73 68.7198 180.44C68.2698 182.84 66.1698 184.5 63.8198 184.5C63.5098 184.5 63.1898 184.47 62.8698 184.41Z" fill="black"/>
<path d="M67.46 160.95C64.75 160.42 62.99 157.79 63.52 155.08C64.06 152.37 66.69 150.6 69.4 151.14C72.11 151.67 73.87 154.3 73.34 157.01C72.87 159.39 70.78 161.05 68.44 161.05C68.12 161.05 67.79 161.01 67.46 160.95Z" fill="black"/>
<path d="M68.1099 157.28C65.4399 156.61 63.8099 153.89 64.4899 151.21C65.1699 148.54 67.8799 146.91 70.5599 147.59C73.2399 148.26 74.8599 150.98 74.1899 153.66C73.6099 155.93 71.5799 157.44 69.3399 157.44C68.9399 157.44 68.5199 157.39 68.1099 157.28Z" fill="black"/>
<path d="M65.46 150.571C65.46 147.801 67.7 145.561 70.46 145.561C73.22 145.561 75.46 147.801 75.46 150.571C75.46 153.331 73.22 155.571 70.46 155.571C67.7 155.571 65.46 153.331 65.46 150.571Z" fill="black"/>
<path d="M80.73 150.571C80.73 147.801 82.96 145.561 85.72 145.561C88.49 145.561 90.72 147.801 90.72 150.571C90.72 153.331 88.49 155.571 85.72 155.571C82.96 155.571 80.73 153.331 80.73 150.571Z" fill="black"/>
<path d="M85.0201 156.78C82.3801 155.98 80.8801 153.19 81.6801 150.55C82.4701 147.9 85.2601 146.41 87.9001 147.2C90.5501 148 92.0501 150.78 91.2501 153.43C90.6001 155.59 88.6201 156.99 86.4701 156.99C85.9901 156.99 85.5001 156.92 85.0201 156.78Z" fill="black"/>
<path d="M185.12 223.34C183.36 221.22 183.64 218.07 185.76 216.3C187.88 214.53 191.04 214.82 192.81 216.94C194.57 219.06 194.29 222.21 192.17 223.98C191.23 224.76 190.1 225.14 188.97 225.14C187.53 225.14 186.11 224.53 185.12 223.34Z" fill="black"/>
<path d="M187.87 225.21C187.31 225.16 186.95 225.08 186.73 225.03C184.02 224.49 182.26 221.86 182.81 219.15C183.35 216.44 185.98 214.69 188.69 215.23C188.77 215.24 188.83 215.26 188.86 215.26C191.59 215.55 193.58 217.98 193.32 220.71C193.07 223.3 190.9 225.23 188.35 225.23C188.19 225.23 188.03 225.23 187.87 225.21Z" fill="black"/>
<path d="M177.36 220.6C177.05 217.85 179.02 215.38 181.76 215.06C184.51 214.75 186.98 216.72 187.3 219.46C187.61 222.21 185.64 224.68 182.9 225C182.7 225.02 182.51 225.03 182.32 225.03C179.82 225.03 177.65 223.15 177.36 220.6Z" fill="black"/>
<path d="M172.25 235.18C169.51 234.85 167.55 232.36 167.88 229.62C168.21 226.88 170.7 224.92 173.44 225.25C176.18 225.58 178.14 228.07 177.81 230.81C177.51 233.35 175.35 235.22 172.85 235.22C172.65 235.22 172.45 235.22 172.25 235.18Z" fill="black"/>
<path d="M171.88 238.27C169.14 237.94 167.18 235.45 167.51 232.71C167.84 229.96 170.33 228.01 173.07 228.34C175.81 228.66 177.77 231.15 177.44 233.89C177.14 236.43 174.98 238.3 172.48 238.3C172.28 238.3 172.08 238.29 171.88 238.27Z" fill="black"/>
<path d="M167.53 245.47C167.51 242.71 169.73 240.45 172.49 240.43C175.25 240.41 177.51 242.62 177.53 245.39C177.56 248.15 175.34 250.41 172.57 250.43H172.53C169.79 250.43 167.56 248.22 167.53 245.47Z" fill="black"/>
<path d="M167.67 263.28C167.65 260.51 169.87 258.26 172.63 258.24C175.39 258.22 177.65 260.44 177.67 263.2C177.69 265.96 175.47 268.22 172.7 268.24H172.67C169.92 268.24 167.69 266.02 167.67 263.28Z" fill="black"/>
<path d="M168.81 268.41C166.78 266.7 166.46 263.71 168.03 261.61C169.3 259.22 172.25 258.27 174.69 259.49C177.15 260.73 178.15 263.73 176.91 266.2C176.61 266.78 176.37 267.19 175.86 267.82C174.87 268.99 173.46 269.59 172.04 269.59C170.9 269.59 169.75 269.21 168.81 268.41Z" fill="black"/>
<path d="M162.69 269.5C159.93 269.48 157.71 267.22 157.74 264.46C157.76 261.7 160.02 259.48 162.78 259.5C165.54 259.53 167.76 261.79 167.74 264.55C167.71 267.3 165.48 269.5 162.74 269.5H162.69Z" fill="black"/>
<path d="M153.37 265.971C152.61 263.321 154.14 260.551 156.8 259.791C159.45 259.031 162.22 260.561 162.98 263.221C163.74 265.871 162.21 268.641 159.55 269.401C159.09 269.531 158.63 269.601 158.17 269.601C156 269.601 154 268.171 153.37 265.971Z" fill="black"/>
<path d="M155.93 269.35C155.15 269.06 154.34 269.04 152.81 267.53C152.32 266.99 151.73 266.12 151.5 264.89C151.02 262.17 152.83 259.57 155.55 259.09C157 258.83 158.43 259.23 159.51 260.07C161.55 261.13 162.66 263.49 162.04 265.8C161.45 268.04 159.43 269.52 157.22 269.52C156.79 269.52 156.36 269.46 155.93 269.35Z" fill="black"/>
<path d="M156.08 264.6C153.32 264.46 151.2 262.12 151.33 259.36C151.47 256.6 153.81 254.48 156.57 254.61C159.33 254.75 161.46 257.09 161.32 259.85C161.19 262.53 158.98 264.61 156.33 264.61C156.25 264.61 156.16 264.6 156.08 264.6Z" fill="black"/>
<path d="M156.2 262.07C153.45 261.93 151.32 259.59 151.46 256.83C151.59 254.07 153.94 251.94 156.69 252.08C159.45 252.21 161.58 254.56 161.44 257.32C161.31 259.99 159.1 262.07 156.45 262.07H156.2Z" fill="black"/>
<path d="M151.46 251.35C151.28 248.59 153.37 246.21 156.12 246.03C158.88 245.85 161.26 247.94 161.44 250.69C161.62 253.45 159.53 255.83 156.78 256.01C156.66 256.01 156.55 256.01 156.44 256.01C153.83 256.01 151.63 253.98 151.46 251.34V251.35Z" fill="black"/>
<path d="M151.29 248.791C151.11 246.041 153.2 243.661 155.95 243.481C158.71 243.301 161.09 245.381 161.27 248.141C161.45 250.891 159.36 253.271 156.61 253.451C156.5 253.451 156.38 253.451 156.27 253.451C153.66 253.451 151.47 251.431 151.29 248.781V248.791Z" fill="black"/>
<path d="M151.26 207.03C151.26 204.27 153.49 202.03 156.26 202.03C159.02 202.03 161.26 204.26 161.26 207.03C161.26 209.79 159.02 212.03 156.26 212.03C153.5 212.03 151.26 209.79 151.26 207.03Z" fill="black"/>
<path d="M153.41 206.68C153.26 203.93 155.37 201.57 158.13 201.42C160.88 201.27 163.24 203.38 163.39 206.14C163.54 208.9 161.43 211.25 158.67 211.4C158.58 211.4 158.48 211.4 158.39 211.4C155.76 211.4 153.55 209.34 153.41 206.67V206.68Z" fill="black"/>
<path d="M157.16 206.48C157.01 203.72 159.13 201.36 161.89 201.22C164.64 201.07 167 203.18 167.15 205.94C167.3 208.7 165.18 211.05 162.42 211.2C162.33 211.2 162.24 211.2 162.15 211.2C159.51 211.2 157.3 209.13 157.16 206.47V206.48Z" fill="black"/>
<path d="M166.1 206.18C166.07 203.42 168.29 201.16 171.05 201.13C173.81 201.1 176.07 203.32 176.1 206.08C176.13 208.84 173.91 211.1 171.15 211.13H171.1C168.36 211.13 166.13 208.92 166.1 206.18Z" fill="black"/>
<path d="M167.71 209.39C166.35 207.49 166.47 204.85 168.12 203.08C170 201.05 173.16 200.94 175.18 202.82C175.57 203.18 175.93 203.58 176.3 204.16C176.64 204.76 177.13 205.55 177.17 207.14C177.17 209.9 174.94 212.14 172.17 212.14C170.22 212.14 168.53 211.02 167.71 209.39Z" fill="black"/>
<path d="M171.88 215.68C169.12 215.58 166.96 213.26 167.05 210.5C167.15 207.74 169.47 205.59 172.23 205.68C174.99 205.78 177.14 208.1 177.05 210.86C176.95 213.56 174.74 215.68 172.05 215.68H171.88Z" fill="black"/>
<path d="M171.51 216.49C168.76 216.23 166.74 213.8 166.99 211.05L167.03 210.63C167.29 207.88 169.72 205.86 172.48 206.11C175.22 206.37 177.25 208.81 176.99 211.55L176.95 211.97C176.71 214.57 174.53 216.51 171.98 216.51C171.82 216.51 171.67 216.5 171.51 216.49Z" fill="black"/>
<path d="M169.26 215.35C167.36 213.34 167.45 210.18 169.46 208.28C171.47 206.38 174.63 206.47 176.53 208.48C178.42 210.49 178.33 213.65 176.33 215.55C175.36 216.46 174.13 216.91 172.89 216.91C171.57 216.91 170.24 216.39 169.26 215.35Z" fill="black"/>
<path d="M178.89 206.49C178.05 203.86 179.5 201.05 182.13 200.21C184.77 199.38 187.58 200.83 188.42 203.46C189.25 206.09 187.8 208.9 185.17 209.74C184.66 209.9 184.15 209.98 183.65 209.98C181.53 209.98 179.56 208.62 178.89 206.49Z" fill="black"/>
<path d="M184.28 206.23C183.72 203.53 185.46 200.88 188.17 200.33C190.87 199.77 193.52 201.51 194.08 204.21C194.63 206.92 192.89 209.56 190.19 210.12C189.85 210.19 189.51 210.22 189.17 210.22C186.85 210.22 184.77 208.6 184.28 206.23Z" fill="black"/>
<path d="M184.27 216.03C184 213.28 186.01 210.84 188.76 210.57C191.51 210.3 193.95 212.32 194.22 215.06C194.49 217.81 192.48 220.26 189.73 220.52C189.56 220.54 189.4 220.55 189.24 220.55C186.69 220.55 184.52 218.61 184.27 216.03Z" fill="black"/>
</g>
<path d="M550.03 209.64C550.03 206.88 552.27 204.64 555.03 204.64C557.79 204.64 560.03 206.88 560.03 209.64C560.03 212.41 557.79 214.64 555.03 214.64C552.27 214.64 550.03 212.41 550.03 209.64ZM550.03 182.83C550.03 180.07 552.27 177.83 555.03 177.83C557.79 177.83 560.03 180.07 560.03 182.83C560.03 185.59 557.79 187.83 555.03 187.83C552.27 187.83 550.03 185.59 550.03 182.83Z" fill="black"/>
<path d="M553.15 241.46C550.39 241.46 548.15 239.22 548.15 236.46C548.15 233.7 550.39 231.46 553.15 231.46H554.09C556.85 231.46 559.09 233.7 559.09 236.46C559.09 239.22 556.85 241.46 554.09 241.46C550.39 241.46 554.09 241.46 553.15 241.46Z" fill="black"/>
<path d="M548.15 209.64C548.15 206.88 550.39 204.64 553.15 204.64C555.91 204.64 558.15 206.88 558.15 209.64C558.15 212.41 555.91 214.65 553.15 214.65C550.39 214.65 548.15 212.41 548.15 209.64ZM548.15 182.83C548.15 180.07 550.39 177.83 553.15 177.83C555.91 177.83 558.15 180.07 558.15 182.83C558.15 185.59 555.91 187.83 553.15 187.83C550.39 187.83 548.15 185.59 548.15 182.83Z" fill="black"/>
<path d="M554.09 161.02C551.33 161.02 549.09 158.78 549.09 156.02C549.09 153.25 551.33 151.02 554.09 151.02H555.03C557.79 151.02 560.03 153.25 560.03 156.02C560.03 158.78 557.79 161.02 555.03 161.02C551.33 161.02 555.03 161.02 554.09 161.02Z" fill="black"/>
<path d="M83.7698 110.35C83.7398 107.59 85.9598 105.33 88.7198 105.3C91.4798 105.27 93.7398 107.49 93.7698 110.25C93.7998 113.01 91.5898 115.27 88.8298 115.3H88.7698C86.0298 115.3 83.7998 113.1 83.7698 110.35Z" fill="black"/>
<path d="M83.49 83.2301C83.46 80.4601 85.67 78.2001 88.43 78.1701C91.19 78.1401 93.46 80.3601 93.48 83.1201C93.51 85.8801 91.3 88.1401 88.54 88.1701H88.48C85.75 88.1701 83.51 85.9701 83.49 83.2301ZM83.2 56.1001C83.17 53.3401 85.38 51.0701 88.14 51.0501C90.9 51.0201 93.17 53.2301 93.2 55.9901C93.23 58.7501 91.01 61.0101 88.25 61.0401H88.19C85.46 61.0401 83.23 58.8401 83.2 56.1001Z" fill="black"/>
<path d="M84.95 28.95C84.92 26.19 87.13 23.9199 89.89 23.8899C92.66 23.8599 94.92 26.0799 94.95 28.8399C94.98 31.5999 92.77 33.8599 90 33.8899H89.95C87.21 33.8899 84.98 31.6899 84.95 28.95Z" fill="black"/>
<path d="M85.53 83.1998C85.5 80.4398 87.7101 78.1798 90.4701 78.1498C93.2301 78.1198 95.5 80.3398 95.52 83.0998C95.55 85.8598 93.3401 88.1198 90.5801 88.1498H90.52C87.79 88.1498 85.55 85.9498 85.53 83.1998ZM85.24 56.0698C85.21 53.3098 87.4201 51.0498 90.1801 51.0198C92.9501 50.9898 95.21 53.2098 95.24 55.9698C95.27 58.7298 93.0501 60.9898 90.2901 61.0198H90.24C87.5 61.0198 85.27 58.8198 85.24 56.0698Z" fill="black"/>
<path d="M88.7801 115.31C86.0401 115.31 83.8101 113.11 83.7801 110.36C83.7501 107.6 85.9601 105.34 88.7301 105.31L90.7601 105.29C90.7601 105.29 90.8001 105.29 90.8201 105.29C93.5601 105.29 95.7901 107.49 95.8201 110.24C95.8501 113 93.6401 115.26 90.8701 115.29L88.8401 115.31C88.8401 115.31 88.8001 115.31 88.7801 115.31Z" fill="black"/>
<path d="M453.39 316.63C453.38 313.87 455.6 311.62 458.36 311.6C461.12 311.6 463.38 313.81 463.39 316.58C463.41 319.34 461.18 321.59 458.42 321.6H458.39C455.64 321.6 453.41 319.38 453.39 316.63Z" fill="black"/>
<path d="M453.29 289.72C453.28 286.96 455.51 284.71 458.27 284.7C461.03 284.7 463.28 286.92 463.29 289.68C463.3 292.44 461.07 294.69 458.31 294.7H458.29C455.53 294.7 453.3 292.47 453.29 289.72ZM453.18 262.82C453.17 260.05 455.4 257.81 458.16 257.8C460.92 257.78 463.17 260.01 463.18 262.78C463.19 265.54 460.96 267.78 458.2 267.8H458.18C455.43 267.8 453.19 265.57 453.18 262.82Z" fill="black"/>
<path d="M455.11 235.89C455.11 233.13 457.35 230.89 460.11 230.89C462.87 230.89 465.11 233.13 465.11 235.89C465.11 238.65 462.87 240.89 460.11 240.89C457.35 240.89 455.11 238.65 455.11 235.89Z" fill="black"/>
<path d="M455.32 289.71C455.31 286.95 457.54 284.7 460.3 284.69C463.06 284.68 465.31 286.91 465.32 289.67C465.33 292.43 463.1 294.68 460.34 294.69H460.31C457.56 294.69 455.33 292.47 455.32 289.71ZM455.21 262.81C455.2 260.05 457.43 257.8 460.19 257.79C462.95 257.79 465.2 260.01 465.21 262.77C465.21 265.53 462.99 267.78 460.23 267.79H460.21C457.46 267.79 455.22 265.57 455.21 262.81Z" fill="black"/>
<path d="M458.4 321.61C455.65 321.61 453.42 319.39 453.4 316.64C453.38 313.88 455.61 311.63 458.37 311.61H460.39C463.14 311.54 465.4 313.81 465.42 316.57C465.44 319.33 463.21 321.58 460.45 321.6H458.43C458.43 321.6 458.41 321.61 458.4 321.61Z" fill="black"/>
<mask id="mask3_2559_5267" style="mask-type:luminance" maskUnits="userSpaceOnUse" x="0" y="0" width="688" height="345">
<path d="M687.48 0H0V344.54H687.48V0Z" fill="white"/>
</mask>
<g mask="url(#mask3_2559_5267)">
<path d="M0.700009 146.16C0.670009 143.4 2.88001 141.14 5.64001 141.1C8.40001 141.07 10.66 143.29 10.7 146.05C10.73 148.81 8.51001 151.07 5.75001 151.1H5.69001C2.96001 151.1 0.730009 148.9 0.700009 146.16Z" fill="black"/>
<path d="M0.460115 119.05C0.440115 116.29 2.66011 114.03 5.42011 114.01C8.18011 113.99 10.4401 116.21 10.4601 118.97C10.4901 121.73 8.27011 123.99 5.51011 124.01H5.46011C2.72011 124.01 0.490115 121.8 0.460115 119.05ZM0.230115 91.97C0.210115 89.21 2.43011 86.95 5.19011 86.93C7.95011 86.9 10.2101 89.12 10.2301 91.88C10.2501 94.65 8.04011 96.9 5.28011 96.93H5.23011C2.49011 96.93 0.260115 94.72 0.230115 91.97Z" fill="black"/>
<path d="M2.07012 64.8796C2.04012 62.1096 4.26012 59.8496 7.02012 59.8196C9.78012 59.7896 12.0401 62.0096 12.0701 64.7696C12.1001 67.5296 9.89013 69.7896 7.13013 69.8196H7.07013C4.34013 69.8196 2.11012 67.6196 2.07012 64.8796Z" fill="black"/>
<path d="M2.53987 119.03C2.50987 116.27 4.72987 114.01 7.49987 113.99C10.2599 113.96 12.5099 116.18 12.5399 118.95C12.5599 121.71 10.3399 123.96 7.57987 123.99H7.53987C4.78987 123.99 2.55987 121.78 2.53987 119.03ZM2.30987 91.9495C2.27987 89.1895 4.49987 86.9295 7.25987 86.8995C10.0199 86.8795 12.2799 89.0995 12.3099 91.8595C12.3299 94.6195 10.1099 96.8795 7.34987 96.8995H7.30987C4.56987 96.8995 2.32987 94.6895 2.30987 91.9495Z" fill="black"/>
<path d="M5.70001 151.1C2.96001 151.1 0.730009 148.9 0.700009 146.16C0.670009 143.4 2.88001 141.14 5.64001 141.1L7.70001 141.08C7.70001 141.08 7.74001 141.08 7.76001 141.08C10.5 141.08 12.73 143.28 12.76 146.02C12.79 148.78 10.58 151.04 7.82001 151.08L5.76001 151.1C5.76001 151.1 5.72001 151.1 5.70001 151.1Z" fill="black"/>
</g>
<path d="M325.55 247.6C325.52 244.83 327.73 242.57 330.49 242.54C333.26 242.51 335.52 244.73 335.55 247.49C335.58 250.25 333.36 252.51 330.6 252.54H330.55C327.81 252.54 325.58 250.34 325.55 247.6Z" fill="black"/>
<path d="M325.39 220.75C325.38 217.99 327.6 215.74 330.36 215.72C333.12 215.71 335.38 217.93 335.39 220.69C335.41 223.46 333.18 225.71 330.42 225.72H330.39C327.64 225.72 325.41 223.5 325.39 220.75ZM325.24 193.93C325.22 191.17 327.45 188.92 330.21 188.9C332.97 188.89 335.22 191.11 335.24 193.88C335.25 196.64 333.03 198.89 330.27 198.91H330.24C327.49 198.91 325.25 196.69 325.24 193.93Z" fill="black"/>
<path d="M327.09 167.1C327.07 164.34 329.3 162.09 332.06 162.08C334.82 162.06 337.07 164.29 337.08 167.05C337.1 169.81 334.87 172.06 332.11 172.08H332.08C329.34 172.08 327.1 169.86 327.09 167.1Z" fill="black"/>
<path d="M327.4 220.73C327.38 217.97 329.61 215.72 332.37 215.71C335.13 215.69 337.38 217.91 337.4 220.68C337.41 223.44 335.19 225.69 332.43 225.71H332.4C329.65 225.71 327.41 223.49 327.4 220.73ZM327.24 193.93C327.23 191.17 329.45 188.92 332.21 188.9C334.97 188.9 337.22 191.11 337.24 193.87C337.26 196.63 335.03 198.88 332.27 198.9H332.24C329.49 198.9 327.26 196.68 327.24 193.93Z" fill="black"/>
<path d="M330.56 252.55C327.82 252.55 325.59 250.35 325.56 247.61C325.53 244.85 327.74 242.59 330.5 242.56L332.5 242.54C332.5 242.54 332.54 242.54 332.56 242.54C335.3 242.54 337.53 244.74 337.56 247.48C337.59 250.24 335.38 252.5 332.62 252.53L330.62 252.55C330.62 252.55 330.58 252.55 330.56 252.55Z" fill="black"/>
<path d="M192.05 100.64C189.28 100.61 187.07 98.3403 187.1 95.5803C187.13 92.8203 189.39 90.6103 192.15 90.6403C194.91 90.6703 197.13 92.9303 197.1 95.6903C197.07 98.4303 194.84 100.64 192.1 100.64H192.05ZM192.34 73.2903C189.58 73.2603 187.37 71.0003 187.4 68.2403C187.43 65.4703 189.69 63.2603 192.45 63.2903C195.21 63.3203 197.43 65.5803 197.4 68.3403C197.37 71.0903 195.13 73.2903 192.4 73.2903H192.34Z" fill="black"/>
<path d="M189.62 127.97C186.86 127.94 184.65 125.68 184.68 122.92C184.71 120.16 186.98 117.94 189.74 117.97C192.5 118.01 194.71 120.27 194.68 123.03C194.65 125.77 192.42 127.97 189.68 127.97H189.62Z" fill="black"/>
<path d="M189.93 100.62C187.16 100.59 184.95 98.3198 184.98 95.5598C185.01 92.7998 187.27 90.5898 190.04 90.6198C192.8 90.6498 195.01 92.9098 194.98 95.6698C194.95 98.4098 192.72 100.62 189.98 100.62H189.93ZM190.22 73.2698C187.46 73.2398 185.25 70.9698 185.28 68.2098C185.31 65.4498 187.57 63.2398 190.33 63.2698C193.09 63.2998 195.31 65.5598 195.28 68.3198C195.25 71.0598 193.02 73.2698 190.28 73.2698H190.22Z" fill="black"/>
<path d="M192.65 45.9495C189.88 45.9195 187.67 43.6595 187.7 40.8995C187.73 38.1395 189.99 35.9195 192.75 35.9495C195.51 35.9795 197.73 38.2395 197.7 40.9995C197.67 43.7495 195.44 45.9495 192.7 45.9495H192.65Z" fill="black"/>
<path d="M564.55 232.16C564.55 229.4 566.78 227.16 569.55 227.16C572.31 227.16 574.54 229.4 574.54 232.16C574.54 234.92 572.31 237.16 569.55 237.16C566.78 237.16 564.55 234.92 564.55 232.16ZM564.55 205.16C564.55 202.4 566.78 200.16 569.55 200.16C572.31 200.16 574.54 202.4 574.54 205.16C574.54 207.92 572.31 210.16 569.55 210.16C566.78 210.16 564.55 207.92 564.55 205.16Z" fill="black"/>
<path d="M567.67 264.14C564.91 264.14 562.67 261.9 562.67 259.14C562.67 256.38 564.91 254.14 567.67 254.14H568.61C571.37 254.14 573.61 256.38 573.61 259.14C573.61 261.9 571.37 264.14 568.61 264.14C564.91 264.14 568.61 264.14 567.67 264.14Z" fill="black"/>
<path d="M562.67 232.16C562.67 229.4 564.91 227.16 567.67 227.16C570.43 227.16 572.67 229.4 572.67 232.16C572.67 234.92 570.43 237.16 567.67 237.16C564.91 237.16 562.67 234.92 562.67 232.16ZM562.67 205.16C562.67 202.4 564.91 200.16 567.67 200.16C570.43 200.16 572.67 202.4 572.67 205.16C572.67 207.92 570.43 210.16 567.67 210.16C564.91 210.16 562.67 207.92 562.67 205.16Z" fill="black"/>
<path d="M568.61 183.16C565.85 183.16 563.61 180.92 563.61 178.16C563.61 175.4 565.85 173.16 568.61 173.16H569.54C572.31 173.16 574.54 175.4 574.54 178.16C574.54 180.92 572.31 183.16 569.54 183.16C565.85 183.16 569.54 183.16 568.61 183.16Z" fill="black"/>
<path d="M575.84 130.52C575.84 127.76 578.08 125.52 580.84 125.52C583.6 125.52 585.84 127.76 585.84 130.52C585.84 133.28 583.6 135.52 580.84 135.52C578.08 135.52 575.84 133.28 575.84 130.52ZM575.84 103.62C575.84 100.85 578.08 98.6104 580.84 98.6104C583.6 98.6104 585.84 100.85 585.84 103.62C585.84 106.38 583.6 108.61 580.84 108.61C578.08 108.61 575.84 106.38 575.84 103.62Z" fill="black"/>
<path d="M578.96 162.43C576.2 162.43 573.96 160.19 573.96 157.43C573.96 154.67 576.2 152.43 578.96 152.43H579.9C582.66 152.43 584.9 154.67 584.9 157.43C584.9 160.19 582.66 162.43 579.9 162.43C576.2 162.43 579.9 162.43 578.96 162.43Z" fill="black"/>
<path d="M573.96 130.52C573.96 127.76 576.2 125.52 578.96 125.52C581.72 125.52 583.96 127.76 583.96 130.52C583.96 133.28 581.72 135.52 578.96 135.52C576.2 135.52 573.96 133.28 573.96 130.52ZM573.96 103.61C573.96 100.85 576.2 98.6201 578.96 98.6201C581.72 98.6201 583.96 100.85 583.96 103.61C583.96 106.38 581.72 108.62 578.96 108.62C576.2 108.62 573.96 106.38 573.96 103.61Z" fill="black"/>
<path d="M579.9 81.7197C577.14 81.7197 574.9 79.4797 574.9 76.7197C574.9 73.9597 577.14 71.7197 579.9 71.7197H580.84C583.61 71.7197 585.84 73.9597 585.84 76.7197C585.84 79.4797 583.61 81.7197 580.84 81.7197C577.14 81.7197 580.84 81.7197 579.9 81.7197Z" fill="black"/>
<mask id="mask4_2559_5267" style="mask-type:luminance" maskUnits="userSpaceOnUse" x="0" y="0" width="688" height="345">
<path d="M687.48 0H0V344.54H687.48V0Z" fill="white"/>
</mask>
<g mask="url(#mask4_2559_5267)">
<path d="M418.57 328.23C418.55 325.47 420.78 323.21 423.54 323.2H424.52C427.28 323.18 429.54 325.41 429.55 328.17C429.56 330.93 427.33 333.18 424.57 333.2H423.57C420.82 333.2 418.58 330.98 418.57 328.23Z" fill="black"/>
</g>
<path d="M418.47 301.23C418.47 298.47 420.69 296.22 423.45 296.21C426.21 296.21 428.46 298.43 428.47 301.19C428.48 303.95 426.25 306.2 423.48 306.21H423.46C420.71 306.21 418.48 303.98 418.47 301.23ZM418.37 274.23C418.36 271.47 420.59 269.22 423.35 269.21C426.11 269.21 428.36 271.43 428.37 274.2C428.38 276.96 426.15 279.2 423.38 279.21H423.37C420.61 279.21 418.38 276.99 418.37 274.23Z" fill="black"/>
<path d="M424.24 252.22C421.48 252.22 419.24 249.98 419.24 247.22C419.24 244.46 421.48 242.22 424.24 242.22H425.23C427.99 242.22 430.23 244.46 430.23 247.22C430.23 249.98 427.99 252.22 425.23 252.22C421.48 252.22 425.23 252.22 424.24 252.22Z" fill="black"/>
<path d="M420.43 301.22C420.42 298.46 422.65 296.21 425.41 296.2C428.17 296.2 430.42 298.42 430.43 301.18C430.44 303.94 428.21 306.19 425.45 306.2H425.43C422.67 306.2 420.44 303.97 420.43 301.22ZM420.33 274.23C420.32 271.47 422.55 269.22 425.31 269.21C428.07 269.21 430.32 271.43 430.33 274.19C430.34 276.95 428.11 279.2 425.35 279.21H425.33C422.57 279.21 420.34 276.99 420.33 274.23Z" fill="black"/>
<mask id="mask5_2559_5267" style="mask-type:luminance" maskUnits="userSpaceOnUse" x="0" y="0" width="688" height="345">
<path d="M687.48 0H0V344.54H687.48V0Z" fill="white"/>
</mask>
<g mask="url(#mask5_2559_5267)">
<path d="M423.58 333.21C420.83 333.21 418.6 330.99 418.58 328.24C418.56 325.48 420.79 323.23 423.55 323.21H425.5C428.26 323.21 430.51 325.41 430.53 328.17C430.55 330.93 428.32 333.18 425.56 333.2H423.61C423.61 333.2 423.59 333.21 423.58 333.21Z" fill="black"/>
</g>
<path d="M597.35 141.85C597.35 139.09 599.59 136.85 602.35 136.85C605.11 136.85 607.35 139.09 607.35 141.85C607.35 144.61 605.11 146.85 602.35 146.85C599.59 146.85 597.35 144.61 597.35 141.85ZM597.35 114.95C597.35 112.19 599.59 109.95 602.35 109.95C605.11 109.95 607.35 112.19 607.35 114.95C607.35 117.72 605.11 119.95 602.35 119.95C599.59 119.95 597.35 117.72 597.35 114.95Z" fill="black"/>
<path d="M600.47 173.75C597.71 173.75 595.47 171.51 595.47 168.75C595.47 165.99 597.71 163.75 600.47 163.75H601.41C604.17 163.75 606.41 165.99 606.41 168.75C606.41 171.51 604.17 173.75 601.41 173.75C597.71 173.75 601.41 173.75 600.47 173.75Z" fill="black"/>
<path d="M595.47 141.85C595.47 139.09 597.71 136.85 600.47 136.85C603.23 136.85 605.47 139.09 605.47 141.85C605.47 144.61 603.23 146.85 600.47 146.85C597.71 146.85 595.47 144.61 595.47 141.85ZM595.47 114.95C595.47 112.19 597.71 109.95 600.47 109.95C603.23 109.95 605.47 112.19 605.47 114.95C605.47 117.72 603.23 119.95 600.47 119.95C597.71 119.95 595.47 117.72 595.47 114.95Z" fill="black"/>
<path d="M601.41 93.04C598.65 93.04 596.41 90.8 596.41 88.04C596.41 85.28 598.65 83.04 601.41 83.04H602.35C605.11 83.04 607.35 85.28 607.35 88.04C607.35 90.8 605.11 93.04 602.35 93.04C598.65 93.04 602.35 93.04 601.41 93.04Z" fill="black"/>
<path d="M263.81 134.26C263.78 131.5 266 129.23 268.76 129.2C271.52 129.17 273.78 131.39 273.81 134.15C273.84 136.91 271.63 139.17 268.87 139.2H268.81C266.08 139.2 263.84 137 263.81 134.26Z" fill="black"/>
<path d="M263.58 107.39C263.56 104.63 265.78 102.37 268.54 102.34C271.3 102.32 273.56 104.54 273.58 107.3C273.61 110.06 271.39 112.32 268.62 112.35H268.58C265.84 112.35 263.61 110.14 263.58 107.39ZM263.35 80.5296C263.33 77.7696 265.55 75.5096 268.31 75.4896C271.07 75.4596 273.33 77.6796 273.35 80.4396C273.37 83.1996 271.15 85.4596 268.39 85.4896H268.35C265.61 85.4896 263.37 83.2796 263.35 80.5296Z" fill="black"/>
<path d="M265.13 53.6599C265.09 50.8999 267.31 48.6299 270.07 48.6099C272.83 48.5699 275.09 50.7899 275.12 53.5499C275.15 56.3099 272.94 58.5699 270.18 58.5999H270.12C267.39 58.5999 265.16 56.3999 265.13 53.6599Z" fill="black"/>
<path d="M265.59 107.37C265.56 104.6 267.78 102.35 270.54 102.32C273.31 102.3 275.56 104.52 275.59 107.28C275.61 110.04 273.39 112.3 270.63 112.32H270.59C267.85 112.32 265.61 110.11 265.59 107.37ZM265.36 80.5101C265.33 77.7401 267.55 75.4901 270.31 75.4601C273.07 75.4401 275.33 77.6601 275.36 80.4201C275.38 83.1801 273.16 85.4401 270.4 85.4601H270.36C267.61 85.4601 265.38 83.2501 265.36 80.5101Z" fill="black"/>
<path d="M268.82 139.21C266.08 139.21 263.85 137.01 263.82 134.27C263.79 131.51 266 129.25 268.76 129.22L270.76 129.2C273.48 129.14 275.78 131.38 275.81 134.14C275.84 136.9 273.63 139.16 270.87 139.19L268.87 139.21C268.87 139.21 268.83 139.21 268.81 139.21H268.82Z" fill="black"/>
<path d="M189.46 98.3298C189.43 95.5698 191.64 93.3098 194.4 93.2798H195.39C198.15 93.2398 200.41 95.4498 200.44 98.2098C200.47 100.97 198.26 103.24 195.5 103.27H194.51C194.51 103.27 194.47 103.28 194.46 103.28C191.72 103.28 189.49 101.07 189.46 98.3298Z" fill="black"/>
<path d="M189.2 71.43C189.17 68.67 191.38 66.41 194.15 66.38C196.91 66.36 199.17 68.57 199.19 71.34C199.22 74.1 197 76.36 194.24 76.38H194.19C191.46 76.38 189.22 74.18 189.2 71.43ZM188.93 44.52C188.91 41.76 191.12 39.5 193.88 39.47C196.65 39.44 198.91 41.66 198.93 44.42C198.96 47.18 196.74 49.44 193.98 49.47H193.94C191.2 49.47 188.96 47.26 188.93 44.52Z" fill="black"/>
<mask id="mask6_2559_5267" style="mask-type:luminance" maskUnits="userSpaceOnUse" x="0" y="0" width="688" height="345">
<path d="M687.48 0H0V344.54H687.48V0Z" fill="white"/>
</mask>
<g mask="url(#mask6_2559_5267)">
<path d="M189.66 17.6103C189.63 14.8503 191.84 12.5903 194.6 12.5503H195.59C198.35 12.5103 200.61 14.7203 200.64 17.4903C200.68 20.2503 198.46 22.5103 195.7 22.5403H194.72C194.72 22.5403 194.68 22.5503 194.66 22.5503C191.92 22.5503 189.69 20.3503 189.66 17.6103Z" fill="black"/>
</g>
<path d="M191.17 71.4095C191.14 68.6495 193.36 66.3895 196.12 66.3595C198.88 66.3295 201.14 68.5495 201.17 71.3095C201.19 74.0695 198.98 76.3295 196.22 76.3595H196.17C193.43 76.3595 191.2 74.1495 191.17 71.4095ZM190.91 44.4995C190.88 41.7295 193.1 39.4695 195.86 39.4495C198.62 39.4195 200.88 41.6395 200.91 44.3995C200.93 47.1595 198.72 49.4195 195.95 49.4495H195.91C193.17 49.4495 190.93 47.2395 190.91 44.4995Z" fill="black"/>
<mask id="mask7_2559_5267" style="mask-type:luminance" maskUnits="userSpaceOnUse" x="0" y="0" width="688" height="345">
<path d="M687.48 0H0V344.54H687.48V0Z" fill="white"/>
</mask>
<g mask="url(#mask7_2559_5267)">
<path d="M194.46 103.28C191.72 103.28 189.49 101.08 189.46 98.3398C189.43 95.5798 191.64 93.3198 194.4 93.2798L196.36 93.2598C196.36 93.2598 196.4 93.2598 196.42 93.2598C199.16 93.2598 201.39 95.4598 201.42 98.1998C201.45 100.96 199.24 103.22 196.48 103.26L194.52 103.28C194.52 103.28 194.48 103.28 194.46 103.28Z" fill="black"/>
</g>
<path d="M483.83 270.76C483.82 268 486.05 265.75 488.81 265.74H489.78C492.54 265.72 494.79 267.95 494.8 270.71C494.82 273.47 492.59 275.72 489.83 275.73H488.86L488.84 275.74C486.08 275.74 483.85 273.52 483.83 270.76Z" fill="black"/>
<path d="M483.74 243.76C483.73 241 485.96 238.75 488.72 238.74C491.48 238.73 493.73 240.97 493.74 243.73C493.75 246.49 491.52 248.73 488.76 248.74H488.74C485.99 248.74 483.75 246.52 483.74 243.76ZM483.65 216.77C483.64 214.01 485.87 211.76 488.63 211.75C491.39 211.75 493.64 213.97 493.65 216.73C493.66 219.49 491.43 221.74 488.66 221.75H488.65C485.89 221.75 483.66 219.52 483.65 216.77Z" fill="black"/>
<path d="M489.52 194.76C486.76 194.76 484.52 192.52 484.52 189.76C484.52 187 486.76 184.76 489.52 184.76H490.49C493.25 184.76 495.49 187 495.49 189.76C495.49 192.52 493.25 194.76 490.49 194.76C486.76 194.76 490.49 194.76 489.52 194.76Z" fill="black"/>
<path d="M485.68 243.75C485.67 240.99 487.9 238.75 490.66 238.74C493.42 238.73 495.67 240.96 495.68 243.72C495.69 246.48 493.46 248.73 490.7 248.74H490.68C487.92 248.74 485.69 246.51 485.68 243.75ZM485.59 216.76C485.58 214 487.81 211.76 490.57 211.75C493.33 211.75 495.58 213.97 495.59 216.73C495.6 219.49 493.36 221.74 490.6 221.75H490.59C487.83 221.75 485.6 219.52 485.59 216.76Z" fill="black"/>
<path d="M488.84 275.74C486.09 275.74 483.86 273.52 483.84 270.77C483.82 268.01 486.05 265.76 488.81 265.74H490.74C490.74 265.74 490.76 265.73 490.77 265.73C493.52 265.73 495.75 267.95 495.77 270.7C495.79 273.46 493.56 275.71 490.8 275.73H488.87C488.87 275.73 488.85 275.74 488.84 275.74Z" fill="black"/>
<path d="M532.02 255.34C532.02 252.58 534.26 250.34 537.02 250.34C539.78 250.34 542.02 252.58 542.02 255.34C542.02 258.1 539.78 260.34 537.02 260.34C534.26 260.34 532.02 258.1 532.02 255.34ZM532.02 228.35C532.02 225.59 534.26 223.35 537.02 223.35C539.78 223.35 542.02 225.59 542.02 228.35C542.02 231.11 539.78 233.35 537.02 233.35C534.26 233.35 532.02 231.11 532.02 228.35Z" fill="black"/>
<path d="M535.14 287.34C532.37 287.34 530.14 285.1 530.14 282.34C530.14 279.57 532.37 277.34 535.14 277.34H536.08C538.84 277.34 541.08 279.57 541.08 282.34C541.08 285.1 538.84 287.34 536.08 287.34C532.37 287.34 536.08 287.34 535.14 287.34Z" fill="black"/>
<path d="M530.14 255.34C530.14 252.58 532.37 250.34 535.14 250.34C537.9 250.34 540.14 252.58 540.14 255.34C540.14 258.1 537.9 260.34 535.14 260.34C532.37 260.34 530.14 258.1 530.14 255.34ZM530.14 228.35C530.14 225.59 532.37 223.35 535.14 223.35C537.9 223.35 540.14 225.59 540.14 228.35C540.14 231.11 537.9 233.35 535.14 233.35C532.37 233.35 530.14 231.11 530.14 228.35Z" fill="black"/>
<path d="M536.08 206.36C533.32 206.36 531.08 204.12 531.08 201.36C531.08 198.59 533.32 196.36 536.08 196.36H537.02C539.78 196.36 542.02 198.59 542.02 201.36C542.02 204.12 539.78 206.36 537.02 206.36C533.32 206.36 537.02 206.36 536.08 206.36Z" fill="black"/>
<path d="M592.78 266.95C592.78 264.19 595.02 261.95 597.78 261.95C600.54 261.95 602.78 264.19 602.78 266.95C602.78 269.71 600.54 271.95 597.78 271.95C595.02 271.95 592.78 269.71 592.78 266.95ZM592.78 239.95C592.78 237.19 595.02 234.95 597.78 234.95C600.54 234.95 602.78 237.19 602.78 239.95C602.78 242.71 600.54 244.95 597.78 244.95C595.02 244.95 592.78 242.71 592.78 239.95Z" fill="black"/>
<path d="M596.18 298.93C593.41 298.93 591.18 296.7 591.18 293.93C591.18 291.17 593.41 288.93 596.18 288.93H596.98C599.74 288.93 601.98 291.17 601.98 293.93C601.98 296.7 599.74 298.93 596.98 298.93C593.41 298.93 596.98 298.93 596.18 298.93Z" fill="black"/>
<path d="M591.18 266.95C591.18 264.19 593.41 261.95 596.18 261.95C598.94 261.95 601.18 264.19 601.18 266.95C601.18 269.71 598.94 271.95 596.18 271.95C593.41 271.95 591.18 269.71 591.18 266.95ZM591.18 239.95C591.18 237.19 593.41 234.95 596.18 234.95C598.94 234.95 601.18 237.19 601.18 239.95C601.18 242.71 598.94 244.95 596.18 244.95C593.41 244.95 591.18 242.71 591.18 239.95Z" fill="black"/>
<path d="M596.98 217.95C594.22 217.95 591.98 215.71 591.98 212.95C591.98 210.19 594.22 207.95 596.98 207.95H597.781C600.541 207.95 602.781 210.19 602.781 212.95C602.781 215.71 600.541 217.95 597.781 217.95C594.221 217.95 597.78 217.95 596.98 217.95Z" fill="black"/>
<path d="M601.39 153.18C601.39 150.42 603.63 148.18 606.39 148.18C609.15 148.18 611.39 150.42 611.39 153.18C611.39 155.94 609.15 158.18 606.39 158.18C603.63 158.18 601.39 155.94 601.39 153.18ZM601.39 126.27C601.39 123.51 603.63 121.27 606.39 121.27C609.15 121.27 611.39 123.51 611.39 126.27C611.39 129.03 609.15 131.27 606.39 131.27C603.63 131.27 601.39 129.03 601.39 126.27Z" fill="black"/>
<path d="M604.77 185.08C602.01 185.08 599.77 182.84 599.77 180.08C599.77 177.32 602.01 175.08 604.77 175.08H605.58C608.34 175.08 610.58 177.32 610.58 180.08C610.58 182.84 608.34 185.08 605.58 185.08C602.01 185.08 605.58 185.08 604.77 185.08Z" fill="black"/>
<path d="M599.77 153.18C599.77 150.42 602.01 148.18 604.77 148.18C607.53 148.18 609.77 150.42 609.77 153.18C609.77 155.94 607.53 158.18 604.77 158.18C602.01 158.18 599.77 155.94 599.77 153.18ZM599.77 126.27C599.77 123.51 602.01 121.27 604.77 121.27C607.53 121.27 609.77 123.51 609.77 126.27C609.77 129.03 607.53 131.27 604.77 131.27C602.01 131.27 599.77 129.03 599.77 126.27Z" fill="black"/>
<path d="M605.58 104.37C602.82 104.37 600.58 102.13 600.58 99.3701C600.58 96.6101 602.82 94.3701 605.58 94.3701H606.39C609.15 94.3701 611.39 96.6101 611.39 99.3701C611.39 102.13 609.15 104.37 606.39 104.37C602.82 104.37 606.39 104.37 605.58 104.37Z" fill="black"/>
<path d="M604.62 164.51C604.62 161.75 606.85 159.51 609.62 159.51C612.38 159.51 614.62 161.75 614.62 164.51C614.62 167.27 612.38 169.51 609.62 169.51C606.85 169.51 604.62 167.27 604.62 164.51ZM604.62 137.6C604.62 134.84 606.85 132.6 609.62 132.6C612.38 132.6 614.62 134.84 614.62 137.6C614.62 140.36 612.38 142.6 609.62 142.6C606.85 142.6 604.62 140.36 604.62 137.6Z" fill="black"/>
<path d="M608 196.41C605.24 196.41 603 194.17 603 191.41C603 188.65 605.24 186.41 608 186.41H608.81C611.57 186.41 613.81 188.65 613.81 191.41C613.81 194.17 611.57 196.41 608.81 196.41C605.24 196.41 608.81 196.41 608 196.41Z" fill="black"/>
<path d="M603 164.51C603 161.75 605.24 159.51 608 159.51C610.76 159.51 613 161.75 613 164.51C613 167.27 610.76 169.51 608 169.51C605.24 169.51 603 167.27 603 164.51ZM603 137.6C603 134.84 605.24 132.6 608 132.6C610.76 132.6 613 134.84 613 137.6C613 140.36 610.76 142.6 608 142.6C605.24 142.6 603 140.36 603 137.6Z" fill="black"/>
<path d="M608.81 115.7C606.05 115.7 603.81 113.46 603.81 110.7C603.81 107.94 606.05 105.7 608.81 105.7H609.61C612.38 105.7 614.62 107.94 614.62 110.7C614.62 113.46 612.38 115.7 609.61 115.7C606.05 115.7 609.61 115.7 608.81 115.7Z" fill="black"/>
<path d="M586.07 175.84C586.07 173.08 588.3 170.84 591.07 170.84C593.83 170.84 596.07 173.08 596.07 175.84C596.07 178.6 593.83 180.84 591.07 180.84C588.3 180.84 586.07 178.6 586.07 175.84ZM586.07 148.93C586.07 146.17 588.3 143.93 591.07 143.93C593.83 143.93 596.07 146.17 596.07 148.93C596.07 151.69 593.83 153.93 591.07 153.93C588.3 153.93 586.07 151.69 586.07 148.93Z" fill="black"/>
<path d="M589.18 207.74C586.42 207.74 584.18 205.5 584.18 202.74C584.18 199.98 586.42 197.74 589.18 197.74H590.12C592.89 197.74 595.12 199.98 595.12 202.74C595.12 205.5 592.89 207.74 590.12 207.74C586.42 207.74 590.12 207.74 589.18 207.74Z" fill="black"/>
<path d="M584.18 175.84C584.18 173.08 586.42 170.84 589.18 170.84C591.94 170.84 594.18 173.08 594.18 175.84C594.18 178.6 591.94 180.84 589.18 180.84C586.42 180.84 584.18 178.6 584.18 175.84ZM584.18 148.93C584.18 146.17 586.42 143.93 589.18 143.93C591.94 143.93 594.18 146.17 594.18 148.93C594.18 151.69 591.94 153.93 589.18 153.93C586.42 153.93 584.18 151.69 584.18 148.93Z" fill="black"/>
<path d="M590.12 127.03C587.36 127.03 585.12 124.79 585.12 122.03C585.12 119.27 587.36 117.03 590.12 117.03H591.06C593.83 117.03 596.07 119.27 596.07 122.03C596.07 124.79 593.83 127.03 591.06 127.03C587.36 127.03 591.06 127.03 590.12 127.03Z" fill="black"/>
<path d="M607.58 187.18C607.58 184.41 609.81 182.18 612.57 182.18C615.34 182.18 617.57 184.41 617.57 187.18C617.57 189.94 615.34 192.18 612.57 192.18C609.81 192.18 607.58 189.94 607.58 187.18ZM607.58 160.26C607.58 157.5 609.81 155.26 612.57 155.26C615.34 155.26 617.57 157.5 617.57 160.26C617.57 163.02 615.34 165.26 612.57 165.26C609.81 165.26 607.58 163.02 607.58 160.26Z" fill="black"/>
<path d="M610.96 219.07C608.2 219.07 605.96 216.83 605.96 214.07C605.96 211.31 608.2 209.07 610.96 209.07H611.77C614.53 209.07 616.77 211.31 616.77 214.07C616.77 216.83 614.53 219.07 611.77 219.07C608.2 219.07 611.77 219.07 610.96 219.07Z" fill="black"/>
<path d="M605.96 187.18C605.96 184.41 608.2 182.18 610.96 182.18C613.72 182.18 615.96 184.41 615.96 187.18C615.96 189.94 613.72 192.18 610.96 192.18C608.2 192.18 605.96 189.94 605.96 187.18ZM605.96 160.26C605.96 157.5 608.2 155.26 610.96 155.26C613.72 155.26 615.96 157.5 615.96 160.26C615.96 163.02 613.72 165.26 610.96 165.26C608.2 165.26 605.96 163.02 605.96 160.26Z" fill="black"/>
<path d="M611.77 138.36C609.01 138.36 606.77 136.12 606.77 133.36C606.77 130.6 609.01 128.36 611.77 128.36H612.58C615.34 128.36 617.57 130.6 617.57 133.36C617.57 136.12 615.34 138.36 612.58 138.36C609.01 138.36 612.58 138.36 611.77 138.36Z" fill="black"/>
<mask id="mask8_2559_5267" style="mask-type:luminance" maskUnits="userSpaceOnUse" x="0" y="0" width="688" height="345">
<path d="M687.48 0H0V344.54H687.48V0Z" fill="white"/>
</mask>
<g mask="url(#mask8_2559_5267)">
<path d="M510.5 312.63C510.5 309.86 512.74 307.63 515.5 307.63C518.26 307.63 520.5 309.86 520.5 312.63C520.5 315.39 518.26 317.63 515.5 317.63C512.74 317.63 510.5 315.39 510.5 312.63ZM510.5 285.72C510.5 282.96 512.74 280.72 515.5 280.72C518.26 280.72 520.5 282.96 520.5 285.72C520.5 288.48 518.26 290.72 515.5 290.72C512.74 290.72 510.5 288.48 510.5 285.72Z" fill="black"/>
<path d="M513.62 344.529C510.85 344.529 508.62 342.289 508.62 339.529C508.62 336.769 510.85 334.529 513.62 334.529H514.56C517.32 334.529 519.56 336.769 519.56 339.529C519.56 342.289 517.32 344.529 514.56 344.529C510.85 344.529 514.56 344.529 513.62 344.529Z" fill="black"/>
</g>
<path d="M508.62 312.63C508.62 309.86 510.85 307.63 513.62 307.63C516.38 307.63 518.62 309.86 518.62 312.63C518.62 315.39 516.38 317.63 513.62 317.63C510.85 317.63 508.62 315.39 508.62 312.63ZM508.62 285.72C508.62 282.96 510.85 280.72 513.62 280.72C516.38 280.72 518.62 282.96 518.62 285.72C518.62 288.48 516.38 290.72 513.62 290.72C510.85 290.72 508.62 288.48 508.62 285.72Z" fill="black"/>
<path d="M514.56 263.82C511.8 263.82 509.56 261.58 509.56 258.82C509.56 256.06 511.8 253.82 514.56 253.82H515.5C518.26 253.82 520.5 256.06 520.5 258.82C520.5 261.58 518.26 263.82 515.5 263.82C511.8 263.82 515.5 263.82 514.56 263.82Z" fill="black"/>
<path d="M377.231 305.3C377.221 302.54 379.44 300.29 382.21 300.27H383.12C385.88 300.25 388.13 302.48 388.15 305.24C388.16 308 385.94 310.25 383.18 310.27H382.231C379.481 310.27 377.251 308.05 377.231 305.3Z" fill="black"/>
<path d="M377.08 278.41C377.06 275.65 379.29 273.4 382.05 273.38C384.81 273.36 387.06 275.59 387.08 278.35C387.09 281.11 384.87 283.36 382.11 283.38H382.08C379.33 283.38 377.09 281.16 377.08 278.41ZM376.92 251.5C376.91 248.73 379.13 246.48 381.9 246.47C384.66 246.45 386.91 248.68 386.92 251.44C386.94 254.2 384.71 256.45 381.95 256.47H381.92C379.18 256.47 376.94 254.25 376.92 251.5Z" fill="black"/>
<path d="M377.7 224.58C377.68 221.82 379.91 219.57 382.67 219.56H383.59C386.36 219.54 388.61 221.76 388.62 224.53C388.63 227.29 386.41 229.54 383.65 229.55H382.72C382.72 229.55 382.7 229.55 382.69 229.55C379.95 229.55 377.71 227.33 377.7 224.57V224.58Z" fill="black"/>
<path d="M378.92 278.39C378.9 275.63 381.13 273.38 383.89 273.36C386.65 273.34 388.9 275.57 388.92 278.33C388.93 281.09 386.71 283.34 383.95 283.36H383.92C381.17 283.36 378.94 281.14 378.92 278.39ZM378.77 251.48C378.75 248.72 380.98 246.47 383.74 246.46C386.5 246.44 388.75 248.67 388.77 251.43C388.79 254.19 386.56 256.44 383.8 256.46H383.77C381.02 256.46 378.79 254.24 378.77 251.48Z" fill="black"/>
<path d="M382.24 310.28C379.49 310.28 377.26 308.06 377.24 305.31C377.22 302.55 379.45 300.3 382.21 300.28H384.04C384.04 300.28 384.06 300.27 384.07 300.27C386.82 300.27 389.05 302.49 389.07 305.24C389.09 308 386.86 310.25 384.1 310.27H382.27C382.27 310.27 382.25 310.28 382.24 310.28Z" fill="black"/>
<mask id="mask9_2559_5267" style="mask-type:luminance" maskUnits="userSpaceOnUse" x="0" y="0" width="688" height="345">
<path d="M687.48 0H0V344.54H687.48V0Z" fill="white"/>
</mask>
<g mask="url(#mask9_2559_5267)">
<path d="M152.67 51.0197C149.91 50.9997 147.69 48.7497 147.71 45.9797C147.73 43.2197 149.98 40.9997 152.74 41.0197C155.5 41.0397 157.72 43.2997 157.7 46.0597C157.69 48.8097 155.45 51.0197 152.71 51.0197H152.67Z" fill="black"/>
<path d="M152.47 53.4693C149.71 53.3793 147.54 51.0793 147.63 48.3193C147.72 45.5493 150.03 43.3893 152.79 43.4793C155.55 43.5693 157.71 45.8693 157.62 48.6293C157.54 51.3393 155.32 53.4693 152.63 53.4693H152.47Z" fill="black"/>
<path d="M147.59 55.9793C147.48 53.2193 149.64 50.8992 152.4 50.7992C155.16 50.6992 157.48 52.8493 157.58 55.6093C157.68 58.3693 155.53 60.6893 152.77 60.7893H152.58C149.9 60.7893 147.68 58.6693 147.59 55.9793Z" fill="black"/>
<path d="M152.32 74.4996C149.56 74.4596 147.35 72.1896 147.39 69.4296C147.43 66.6696 149.7 64.4596 152.46 64.4996C155.22 64.5396 157.43 66.8096 157.39 69.5696C157.35 72.3096 155.12 74.4996 152.39 74.4996H152.32Z" fill="black"/>
<path d="M149.2 78.5795C146.89 77.0795 146.22 73.9795 147.72 71.6595C149.22 69.3395 152.32 68.6795 154.64 70.1795C156.96 71.6795 157.62 74.7795 156.12 77.0895C155.16 78.5695 153.56 79.3795 151.92 79.3795C150.99 79.3795 150.04 79.1195 149.2 78.5795Z" fill="black"/>
<path d="M146.26 68.5997C146.2 65.8397 148.38 63.5497 151.14 63.4797C153.9 63.4197 156.19 65.6097 156.26 68.3697C156.32 71.1297 154.14 73.4197 151.38 73.4797H151.26C148.55 73.4797 146.32 71.3197 146.26 68.5997Z" fill="black"/>
<path d="M146.06 60.4496C145.99 57.6896 148.17 55.3896 150.93 55.3196C153.69 55.2596 155.99 57.4396 156.06 60.1996C156.12 62.9596 153.94 65.2496 151.18 65.3196H151.05C148.35 65.3196 146.13 63.1596 146.06 60.4496Z" fill="black"/>
<path d="M150.65 63.2299C147.9 63.0199 145.85 60.6099 146.06 57.8599C146.28 55.0999 148.69 53.0499 151.44 53.2599C154.19 53.4799 156.25 55.8899 156.03 58.6399C155.83 61.2599 153.64 63.2499 151.05 63.2499C150.92 63.2499 150.79 63.2499 150.65 63.2299Z" fill="black"/>
<path d="M146.11 52.6592C146.11 49.8892 148.35 47.6592 151.11 47.6592C153.88 47.6592 156.11 49.8892 156.11 52.6592C156.11 55.4192 153.88 57.6592 151.11 57.6592C148.35 57.6592 146.11 55.4192 146.11 52.6592Z" fill="black"/>
<path d="M151.15 35.5098C148.39 35.4998 146.15 33.2598 146.16 30.4998C146.16 27.7398 148.41 25.4998 151.17 25.5098C153.93 25.5098 156.16 27.7598 156.16 30.5198C156.15 33.2798 153.92 35.5098 151.16 35.5098H151.15Z" fill="black"/>
<path d="M149.09 33.4695C147.03 31.6295 146.84 28.4695 148.68 26.4095C150.51 24.3495 153.67 24.1595 155.74 25.9995C157.8 27.8395 157.98 30.9995 156.15 33.0595C155.16 34.1695 153.79 34.7295 152.41 34.7295C151.23 34.7295 150.04 34.3195 149.09 33.4695Z" fill="black"/>
<path d="M152.74 36.8296C149.98 36.7896 147.77 34.5196 147.81 31.7596C147.84 28.9996 150.11 26.7896 152.87 26.8296C155.63 26.8696 157.84 29.1396 157.81 31.8996C157.77 34.6396 155.54 36.8296 152.81 36.8296H152.74Z" fill="black"/>
<path d="M149.47 249.01C148.13 246.59 148.99 243.55 151.4 242.2C153.82 240.86 156.86 241.73 158.21 244.14C159.55 246.55 158.68 249.6 156.27 250.94C155.5 251.37 154.66 251.57 153.84 251.57C152.09 251.57 150.38 250.65 149.47 249.01Z" fill="black"/>
<path d="M154.07 216.43C151.31 216.41 149.08 214.16 149.11 211.39C149.13 208.63 151.38 206.41 154.14 206.43C156.91 206.45 159.13 208.71 159.11 211.47C159.09 214.22 156.85 216.43 154.11 216.43H154.07Z" fill="black"/>
<path d="M153.81 213.679C151.07 213.319 149.15 210.799 149.51 208.059C149.87 205.329 152.38 203.399 155.12 203.769C157.86 204.129 159.79 206.639 159.42 209.379C159.09 211.889 156.94 213.719 154.47 213.719C154.25 213.719 154.03 213.709 153.81 213.679Z" fill="black"/>
<path d="M154.31 212.729C151.55 212.619 149.4 210.289 149.51 207.539L149.55 206.539C149.66 203.779 151.98 201.629 154.74 201.739C157.5 201.849 159.65 204.169 159.54 206.929L159.5 207.929C159.39 210.619 157.18 212.729 154.51 212.729H154.31Z" fill="black"/>
<path d="M149.55 202.529C149.39 199.779 151.49 197.409 154.24 197.239C157 197.069 159.37 199.169 159.53 201.929C159.7 204.689 157.6 207.059 154.84 207.219C154.74 207.219 154.64 207.219 154.54 207.219C151.91 207.219 149.71 205.179 149.55 202.519V202.529Z" fill="black"/>
<path d="M153.83 206.319C151.11 205.849 149.29 203.259 149.76 200.529L149.91 199.699C150.39 196.979 152.97 195.159 155.7 195.639C158.42 196.109 160.23 198.699 159.76 201.419L159.61 202.259C159.19 204.689 157.08 206.399 154.69 206.399C154.41 206.399 154.12 206.369 153.83 206.319Z" fill="black"/>
<path d="M154.85 200.229C152.09 200.119 149.94 197.799 150.05 195.039C150.16 192.279 152.49 190.129 155.25 190.239C158.01 190.349 160.15 192.679 160.04 195.439C159.94 198.129 157.72 200.239 155.05 200.239C154.98 200.239 154.92 200.239 154.85 200.229Z" fill="black"/>
<path d="M150.33 201.55C150.21 198.8 152.34 196.46 155.1 196.33C157.86 196.2 160.2 198.34 160.32 201.09C160.45 203.85 158.32 206.19 155.56 206.32H155.32C152.67 206.32 150.46 204.23 150.33 201.55Z" fill="black"/>
<path d="M155.27 223.05C152.51 222.99 150.32 220.71 150.37 217.95C150.43 215.19 152.71 212.99 155.47 213.05C158.23 213.1 160.43 215.39 160.37 218.15C160.32 220.87 158.09 223.05 155.37 223.05H155.27Z" fill="black"/>
<path d="M150.41 222.04C150.02 219.31 151.91 216.77 154.64 216.37C157.37 215.97 159.91 217.86 160.31 220.6C160.71 223.33 158.82 225.87 156.09 226.27C155.84 226.3 155.6 226.32 155.36 226.32C152.91 226.32 150.78 224.53 150.41 222.04Z" fill="black"/>
<path d="M150.36 228.909C150.18 226.149 152.26 223.769 155.01 223.579C157.77 223.399 160.15 225.479 160.34 228.229C160.53 230.989 158.44 233.369 155.69 233.559C155.57 233.569 155.46 233.569 155.35 233.569C152.74 233.569 150.54 231.549 150.36 228.909Z" fill="black"/>
<path d="M155.19 241.279C152.43 241.169 150.28 238.849 150.39 236.089C150.5 233.329 152.82 231.179 155.58 231.289C158.34 231.389 160.49 233.719 160.38 236.479C160.28 239.169 158.06 241.279 155.39 241.279H155.19Z" fill="black"/>
<path d="M155.08 243.41C152.32 243.29 150.18 240.96 150.3 238.2C150.42 235.44 152.75 233.3 155.51 233.42C158.26 233.53 160.41 235.86 160.29 238.62C160.18 241.31 157.96 243.41 155.3 243.41H155.08Z" fill="black"/>
<path d="M154.84 251.39C152.09 251.08 150.13 248.6 150.44 245.86C150.75 243.11 153.23 241.15 155.97 241.46C158.72 241.77 160.69 244.25 160.37 247C160.08 249.55 157.92 251.43 155.41 251.43C155.22 251.43 155.03 251.43 154.84 251.39Z" fill="black"/>
<path d="M152.47 212.18C149.71 212.18 147.48 209.92 147.49 207.15C147.51 204.39 149.76 202.17 152.52 202.18C155.28 202.19 157.51 204.44 157.49 207.21C157.48 209.96 155.24 212.18 152.49 212.18H152.47Z" fill="black"/>
<path d="M149.62 212.349C147.13 211.149 146.09 208.159 147.3 205.669C148.5 203.189 151.49 202.149 153.97 203.349C156.46 204.559 157.5 207.539 156.3 210.029C155.44 211.819 153.65 212.859 151.79 212.849C151.06 212.849 150.32 212.689 149.62 212.349Z" fill="black"/>
<path d="M149.18 212.159L148.72 211.939C146.23 210.749 145.18 207.759 146.37 205.269C147.56 202.779 150.54 201.719 153.03 202.909L153.49 203.129C155.98 204.319 157.04 207.309 155.85 209.799C154.99 211.599 153.2 212.649 151.33 212.649C150.61 212.649 149.88 212.489 149.18 212.159Z" fill="black"/>
<path d="M150.95 190.73C148.19 190.73 145.96 188.47 145.97 185.71C145.97 182.94 148.23 180.72 150.99 180.73C153.75 180.74 155.98 182.99 155.97 185.75C155.97 188.5 153.72 190.73 150.97 190.73H150.95Z" fill="black"/>
<path d="M148.38 180.56C146.66 178.4 147.01 175.26 149.17 173.53C151.33 171.81 154.48 172.17 156.2 174.33C157.92 176.48 157.57 179.63 155.41 181.35C154.49 182.09 153.39 182.44 152.29 182.44C150.82 182.44 149.37 181.8 148.38 180.56Z" fill="black"/>
<path d="M147.63 180.699C147.63 177.939 149.87 175.699 152.63 175.699C155.39 175.699 157.63 177.939 157.63 180.699C157.63 183.469 155.39 185.699 152.63 185.699C149.87 185.699 147.63 183.469 147.63 180.699Z" fill="black"/>
<path d="M147.63 183.409C147.63 180.649 149.87 178.409 152.63 178.409C155.39 178.409 157.63 180.649 157.63 183.409C157.63 186.169 155.39 188.409 152.63 188.409C149.87 188.409 147.63 186.169 147.63 183.409Z" fill="black"/>
<path d="M147.72 188.759C147.19 186.049 148.97 183.429 151.68 182.899C154.39 182.379 157.01 184.149 157.53 186.859C158.06 189.569 156.29 192.189 153.58 192.719C153.26 192.779 152.94 192.809 152.62 192.809C150.27 192.809 148.18 191.149 147.72 188.759Z" fill="black"/>
<path d="M152.53 196.39C149.77 196.37 147.55 194.11 147.57 191.35C147.59 188.59 149.85 186.37 152.61 186.39C155.37 186.41 157.59 188.66 157.57 191.43C157.55 194.17 155.32 196.39 152.57 196.39H152.53Z" fill="black"/>
<path d="M155.92 95.9493C153.16 95.9393 150.92 93.6893 150.93 90.9293C150.94 88.1693 153.19 85.9393 155.95 85.9493C158.71 85.9493 160.94 88.1993 160.93 90.9593C160.92 93.7193 158.69 95.9493 155.93 95.9493H155.92Z" fill="black"/>
<path d="M155.36 99.6793C152.6 99.4993 150.52 97.1193 150.7 94.3593C150.88 91.6093 153.26 89.5193 156.01 89.6993C158.77 89.8793 160.86 92.2593 160.68 95.0193C160.5 97.6593 158.3 99.6893 155.69 99.6893C155.58 99.6893 155.47 99.6893 155.36 99.6793Z" fill="black"/>
<path d="M154.07 103.95C151.37 103.38 149.64 100.74 150.2 98.0299C150.76 95.3299 153.41 93.5899 156.11 94.1599C158.81 94.7199 160.55 97.3699 159.99 100.07C159.5 102.43 157.42 104.05 155.1 104.05C154.76 104.05 154.42 104.02 154.07 103.95Z" fill="black"/>
<path d="M149.77 97.76C149.12 95.08 150.77 92.38 153.46 91.73C156.14 91.08 158.84 92.72 159.49 95.41C160.14 98.09 158.49 100.8 155.81 101.45C155.42 101.54 155.02 101.59 154.63 101.59C152.37 101.59 150.33 100.05 149.77 97.76Z" fill="black"/>
<path d="M149.6 97.0997L149.42 96.3797C148.73 93.6997 150.35 90.9797 153.02 90.2997C155.7 89.6097 158.42 91.2297 159.11 93.8997L159.29 94.6297C159.98 97.2997 158.36 100.02 155.69 100.71C155.27 100.81 154.85 100.86 154.44 100.86C152.21 100.86 150.18 99.3597 149.6 97.0997Z" fill="black"/>
<path d="M154.33 79.7198C151.57 79.7198 149.34 77.4598 149.35 74.6998C149.37 71.9298 151.61 69.7098 154.38 69.7198C157.14 69.7198 159.37 71.9798 159.35 74.7398C159.34 77.4898 157.11 79.7198 154.35 79.7198H154.33Z" fill="black"/>
<path d="M150.93 76.9697C148.98 75.0197 148.98 71.8497 150.93 69.8997C152.89 67.9497 156.05 67.9497 158 69.9097C159.96 71.8597 159.95 75.0297 158 76.9797C157.02 77.9497 155.74 78.4397 154.47 78.4397C153.18 78.4397 151.9 77.9497 150.93 76.9697Z" fill="black"/>
<path d="M153.71 78.01C151.55 77.32 150.08 75.21 150.27 72.86C150.49 70.11 152.9 68.05 155.65 68.27C156.22 68.32 156.79 68.42 157.52 68.7C158.21 69 159.24 69.42 160.23 70.91C161.69 73.26 160.98 76.34 158.64 77.8C157.82 78.32 156.9 78.57 155.99 78.57C155.2 78.57 154.41 78.38 153.71 78.01Z" fill="black"/>
<path d="M150.63 274.93C147.98 274.12 146.5 271.33 147.31 268.68C148.11 266.04 150.91 264.56 153.55 265.37C156.19 266.17 157.68 268.97 156.87 271.61C156.21 273.76 154.23 275.15 152.09 275.15C151.61 275.15 151.11 275.08 150.63 274.93Z" fill="black"/>
<path d="M147.53 272.53L147.38 271.94C146.72 269.26 148.35 266.55 151.03 265.88C153.71 265.22 156.42 266.85 157.09 269.53L157.23 270.12C157.9 272.8 156.27 275.51 153.59 276.18C153.18 276.28 152.78 276.33 152.38 276.33C150.13 276.33 148.09 274.81 147.53 272.53Z" fill="black"/>
<path d="M149.74 278.079C147.31 276.779 146.39 273.749 147.69 271.309C148.99 268.879 152.02 267.959 154.46 269.249C156.89 270.559 157.81 273.589 156.51 276.019C155.61 277.709 153.88 278.67 152.1 278.67C151.3 278.67 150.49 278.479 149.74 278.079Z" fill="black"/>
<path d="M677.48 192.429C677.48 189.669 679.72 187.429 682.48 187.429C685.24 187.429 687.48 189.669 687.48 192.429C687.48 195.199 685.24 197.429 682.48 197.429C679.72 197.429 677.48 195.199 677.48 192.429ZM677.48 165.609C677.48 162.849 679.72 160.609 682.48 160.609C685.24 160.609 687.48 162.849 687.48 165.609C687.48 168.369 685.24 170.609 682.48 170.609C679.72 170.609 677.48 168.369 677.48 165.609Z" fill="black"/>
<path d="M676.4 219.56C676.31 216.84 678.41 214.55 681.11 214.4H681.17C683.9 213.97 686.45 215.83 686.88 218.56C687.31 221.29 685.44 223.85 682.71 224.28C682.42 224.32 682.1 224.37 681.55 224.39C681.5 224.39 681.44 224.4 681.39 224.4C678.7 224.4 676.48 222.26 676.4 219.56Z" fill="black"/>
<path d="M676.42 220.89C676.27 220.55 676.17 220.23 676.08 219.88C675.99 219.5 675.89 219.15 675.88 218.38C675.88 215.61 678.12 213.38 680.88 213.38C683.32 213.38 685.35 215.12 685.79 217.44C686.57 219.88 685.37 222.55 682.96 223.56C682.33 223.83 681.67 223.96 681.03 223.96C679.07 223.96 677.22 222.8 676.42 220.89Z" fill="black"/>
<path d="M675.87 192.599C675.87 189.839 678.11 187.599 680.87 187.599C683.64 187.599 685.87 189.829 685.87 192.589C685.88 195.359 683.64 197.599 680.88 197.599C678.11 197.599 675.87 195.359 675.87 192.599ZM675.87 166.819C675.87 164.059 678.11 161.819 680.87 161.819C683.63 161.819 685.87 164.049 685.87 166.819C685.87 169.579 683.63 171.819 680.87 171.819C678.11 171.819 675.87 169.579 675.87 166.819Z" fill="black"/>
<path d="M673.42 149.159C671.28 147.409 670.97 144.259 672.71 142.119C674.46 139.979 677.61 139.669 679.75 141.409C681.89 143.159 682.21 146.309 680.46 148.449C679.47 149.659 678.03 150.289 676.58 150.279C675.47 150.279 674.35 149.919 673.42 149.159Z" fill="black"/>
<path d="M664.74 157.389C662.76 155.459 662.73 152.299 664.66 150.319C666.59 148.349 669.76 148.309 671.73 150.239C673.71 152.169 673.74 155.339 671.81 157.309C670.83 158.309 669.53 158.819 668.23 158.819C666.97 158.819 665.71 158.339 664.74 157.389Z" fill="black"/>
<path d="M654.79 167.57C652.81 165.64 652.78 162.47 654.71 160.5C656.64 158.52 659.81 158.49 661.78 160.42C663.75 162.35 663.79 165.51 661.86 167.49C660.88 168.49 659.58 168.99 658.28 168.99C657.02 168.99 655.76 168.52 654.79 167.57Z" fill="black"/>
<path d="M647.74 175.16C645.73 173.26 645.65 170.1 647.54 168.09C649.44 166.08 652.6 165.99 654.61 167.89C656.62 169.79 656.71 172.95 654.81 174.96C653.83 176 652.5 176.52 651.17 176.52C649.94 176.52 648.71 176.07 647.74 175.16Z" fill="black"/>
<path d="M654.17 185.06C652.69 182.73 653.39 179.64 655.73 178.17C658.06 176.69 661.15 177.39 662.62 179.73C664.1 182.06 663.4 185.15 661.06 186.63C660.23 187.15 659.31 187.4 658.4 187.4C656.74 187.4 655.12 186.57 654.17 185.06Z" fill="black"/>
<path d="M660.281 194.769C658.811 192.429 659.511 189.349 661.851 187.869C664.181 186.399 667.271 187.099 668.741 189.439C670.221 191.769 669.521 194.859 667.181 196.329C666.351 196.859 665.431 197.099 664.521 197.099C662.861 197.099 661.241 196.279 660.281 194.769Z" fill="black"/>
<path d="M667.76 206.64C666.29 204.3 666.99 201.21 669.33 199.74C671.66 198.27 674.75 198.97 676.22 201.31C677.69 203.65 676.99 206.73 674.65 208.2C673.83 208.73 672.91 208.97 672 208.97C670.33 208.97 668.71 208.15 667.76 206.64Z" fill="black"/>
<path d="M675.921 219.47C674.441 217.14 675.131 214.05 677.451 212.56C679.791 211.08 682.881 211.77 684.361 214.1C685.841 216.43 685.151 219.52 682.821 221C681.991 221.53 681.061 221.79 680.141 221.79C678.491 221.79 676.871 220.97 675.921 219.47Z" fill="black"/>
<path d="M674.421 218.78C674.091 216.92 674.821 215.12 676.181 214.01C677.771 212.3 680.401 211.89 682.471 213.16C684.821 214.61 685.551 217.69 684.101 220.04C683.861 220.41 683.591 220.82 683.091 221.31C682.581 221.77 681.831 222.48 680.241 222.8C679.941 222.86 679.641 222.88 679.341 222.88C676.971 222.88 674.861 221.19 674.421 218.78Z" fill="black"/>
<path d="M677.421 222.599H677.411C674.981 222.269 673.101 220.179 673.101 217.649C673.101 214.889 675.341 212.649 678.101 212.649C679.531 212.709 679.761 212.919 680.021 212.949C682.691 213.669 684.271 216.409 683.551 219.079C682.951 221.309 680.931 222.779 678.721 222.779C678.291 222.779 677.851 222.719 677.421 222.599Z" fill="black"/>
<path d="M658.95 222.609C656.18 222.609 653.95 220.369 653.95 217.609C653.95 214.839 656.2 212.609 658.96 212.609C661.73 212.609 663.96 214.859 663.96 217.619C663.96 220.379 661.71 222.609 658.96 222.609H658.95Z" fill="black"/>
<path d="M635.27 186.38C633.9 183.98 634.73 180.919 637.12 179.549C639.52 178.179 642.57 178.999 643.95 181.399C645.32 183.799 644.49 186.849 642.1 188.219C641.31 188.669 640.46 188.889 639.61 188.889C637.88 188.889 636.2 187.99 635.27 186.38Z" fill="black"/>
<path d="M628.91 194.429C626.97 192.459 626.99 189.299 628.96 187.359C630.93 185.419 634.1 185.449 636.03 187.419C637.97 189.389 637.94 192.549 635.98 194.489C635 195.449 633.74 195.929 632.47 195.929C631.18 195.929 629.88 195.429 628.91 194.429Z" fill="black"/>
<path d="M627.47 216.8C627.47 214.03 629.71 211.8 632.47 211.8C635.23 211.8 637.47 214.03 637.47 216.8C637.47 219.56 635.23 221.8 632.47 221.8C629.71 221.8 627.47 219.56 627.47 216.8Z" fill="black"/>
<path d="M626.42 217.64C626.42 215.47 627.79 213.63 629.71 212.93C631.86 211.79 634.58 212.36 636.07 214.37C637.72 216.59 637.26 219.72 635.04 221.37C634.64 221.66 634.26 221.89 633.76 222.12C633.24 222.32 632.72 222.6 631.42 222.64C628.65 222.64 626.42 220.4 626.42 217.64Z" fill="black"/>
<path d="M616.36 222.619C613.6 222.619 611.36 220.379 611.36 217.619C611.37 214.859 613.61 212.619 616.37 212.619C619.13 212.629 621.37 214.869 621.36 217.629C621.36 220.389 619.12 222.619 616.36 222.619Z" fill="black"/>
<path d="M612.1 220.73C611.72 220.35 611.38 219.93 611.03 219.33C610.71 218.72 610.29 217.94 610.26 216.5C610.26 213.74 612.5 211.5 615.27 211.5C617.3 211.5 619.05 212.72 619.83 214.46C621.12 216.41 620.9 219.07 619.17 220.78C618.2 221.74 616.93 222.22 615.66 222.22C614.37 222.22 613.08 221.72 612.1 220.73Z" fill="black"/>
<path d="M610.26 179.06C610.26 176.3 612.5 174.06 615.26 174.06C618.03 174.06 620.26 176.3 620.26 179.06C620.26 181.82 618.03 184.06 615.26 184.06C612.5 184.06 610.26 181.82 610.26 179.06Z" fill="black"/>
<path d="M610.47 178.359C610.09 175.629 612.01 173.109 614.75 172.729C617.48 172.359 620 174.279 620.38 177.009C620.75 179.749 618.83 182.269 616.1 182.639C615.87 182.669 615.64 182.689 615.41 182.689C612.95 182.689 610.81 180.869 610.47 178.359Z" fill="black"/>
<path d="M615.001 179.7C612.251 179.45 610.221 177.02 610.461 174.27C610.711 171.52 613.141 169.49 615.891 169.74C618.641 169.98 620.671 172.41 620.421 175.16C620.191 177.76 618.011 179.72 615.451 179.72C615.301 179.72 615.151 179.72 615.001 179.7Z" fill="black"/>
<path d="M610.38 167.359C610.36 164.599 612.59 162.349 615.35 162.329C618.11 162.329 620.36 164.549 620.38 167.309C620.39 170.069 618.16 172.319 615.4 172.329H615.37C612.63 172.329 610.39 170.109 610.38 167.359Z" fill="black"/>
<path d="M610.25 141.249C610.24 138.489 612.47 136.239 615.23 136.229C617.99 136.229 620.24 138.439 620.25 141.199C620.27 143.969 618.04 146.219 615.28 146.229H615.25C612.5 146.229 610.27 144.009 610.25 141.249Z" fill="black"/>
<path d="M613.211 144.879C610.761 143.609 609.791 140.599 611.061 138.139C611.481 137.479 611.681 136.729 613.391 135.599C613.981 135.249 614.891 134.859 616.071 134.859C618.831 134.859 621.071 137.099 621.071 139.859C621.071 141.379 620.391 142.739 619.321 143.659C618.361 144.799 616.951 145.429 615.501 145.429C614.731 145.429 613.941 145.249 613.211 144.879Z" fill="black"/>
<path d="M631.851 144.88C629.081 144.88 626.851 142.64 626.851 139.88C626.861 137.12 629.101 134.88 631.861 134.88C634.621 134.88 636.861 137.13 636.851 139.89C636.851 142.65 634.611 144.88 631.851 144.88Z" fill="black"/>
<path d="M632.19 146.699C629.44 146.509 627.36 144.119 627.55 141.369C627.74 138.609 630.12 136.529 632.88 136.719C635.63 136.909 637.71 139.299 637.52 142.049C637.34 144.689 635.15 146.709 632.54 146.709C632.43 146.709 632.31 146.709 632.19 146.709V146.699Z" fill="black"/>
<path d="M631.91 150.76C629.16 150.57 627.08 148.18 627.27 145.42C627.46 142.67 629.85 140.59 632.6 140.78C635.36 140.97 637.43 143.36 637.24 146.11C637.06 148.75 634.87 150.77 632.26 150.77C632.15 150.77 632.03 150.77 631.91 150.77V150.76Z" fill="black"/>
<path d="M632.13 173.97C629.37 173.96 627.14 171.71 627.16 168.95C627.17 166.19 629.42 163.96 632.18 163.97C634.94 163.97 637.17 166.23 637.16 168.99C637.14 171.74 634.91 173.97 632.16 173.97H632.13Z" fill="black"/>
<path d="M631.54 175.099C628.81 174.659 626.96 172.079 627.41 169.359C627.86 166.629 630.43 164.789 633.16 165.229C635.88 165.679 637.73 168.249 637.28 170.979C636.88 173.429 634.76 175.169 632.35 175.169C632.08 175.169 631.81 175.149 631.54 175.099Z" fill="black"/>
<path d="M628.55 172.549C627.22 170.299 627.87 167.419 629.96 165.939C631.8 164.299 634.61 164.229 636.53 165.869C638.63 167.659 638.88 170.819 637.09 172.919C636.43 173.659 636.02 173.939 635.4 174.329C634.6 174.789 633.73 175.019 632.87 175.019C631.15 175.019 629.48 174.129 628.55 172.549Z" fill="black"/>
<path d="M633.15 169.83C631.07 168.02 630.85 164.86 632.67 162.78C634.49 160.7 637.64 160.48 639.72 162.3C641.8 164.11 642.02 167.27 640.2 169.35C639.22 170.49 637.83 171.07 636.43 171.07C635.27 171.07 634.1 170.66 633.15 169.83Z" fill="black"/>
<path d="M648.231 152.45C646.141 150.64 645.911 147.49 647.721 145.4C649.531 143.31 652.681 143.08 654.771 144.89C656.861 146.7 657.091 149.85 655.281 151.94C654.291 153.08 652.901 153.67 651.501 153.67C650.341 153.67 649.171 153.27 648.231 152.45Z" fill="black"/>
<path d="M654.43 145.2C652.32 143.42 652.05 140.27 653.83 138.16C655.62 136.05 658.77 135.78 660.88 137.56C662.99 139.35 663.26 142.5 661.48 144.61C660.49 145.78 659.07 146.38 657.65 146.38C656.51 146.38 655.37 146 654.43 145.2Z" fill="black"/>
<path d="M654.44 139.869C654.44 137.109 656.68 134.869 659.44 134.869C662.2 134.869 664.44 137.109 664.44 139.869C664.44 142.629 662.2 144.869 659.44 144.869C656.68 144.869 654.44 142.629 654.44 139.869Z" fill="black"/>
<path d="M674.42 139.869C674.42 137.109 676.66 134.869 679.42 134.869C682.18 134.869 684.42 137.109 684.42 139.869C684.42 142.629 682.18 144.869 679.42 144.869C676.66 144.869 674.42 142.629 674.42 139.869Z" fill="black"/>
<path d="M679.1 144.809C676.47 143.959 675.03 141.139 675.87 138.509C676.72 135.889 679.54 134.439 682.17 135.289C684.8 136.139 686.24 138.959 685.39 141.589C684.71 143.709 682.74 145.049 680.63 145.049C680.12 145.049 679.61 144.969 679.1 144.809Z" fill="black"/>
<path d="M679.43 144.36C676.77 143.63 675.22 140.87 675.95 138.21L676.09 137.71C676.83 135.05 679.59 133.49 682.25 134.22C684.91 134.96 686.47 137.72 685.73 140.38L685.59 140.88C684.98 143.1 682.97 144.55 680.78 144.55C680.33 144.55 679.88 144.49 679.43 144.36Z" fill="black"/>
<path d="M679.98 143.18C677.4 142.2 676.101 139.31 677.081 136.73C678.061 134.15 680.941 132.85 683.521 133.83C686.111 134.81 687.411 137.69 686.431 140.27C685.671 142.27 683.771 143.51 681.751 143.51C681.161 143.51 680.56 143.4 679.98 143.18Z" fill="black"/>
<path d="M680.57 143.41L680.2 143.26C677.65 142.21 676.44 139.28 677.5 136.73C678.56 134.18 681.48 132.97 684.03 134.03L684.4 134.18C686.95 135.23 688.16 138.16 687.1 140.71C686.3 142.64 684.44 143.8 682.48 143.8C681.84 143.8 681.19 143.67 680.57 143.41Z" fill="black"/>
</g>
<path d="M609.73 198.5C609.73 195.73 611.96 193.5 614.73 193.5C617.49 193.5 619.73 195.73 619.73 198.5C619.73 201.26 617.49 203.5 614.73 203.5C611.96 203.5 609.73 201.26 609.73 198.5ZM609.73 171.59C609.73 168.83 611.96 166.59 614.73 166.59C617.49 166.59 619.73 168.83 619.73 171.59C619.73 174.35 617.49 176.59 614.73 176.59C611.96 176.59 609.73 174.35 609.73 171.59Z" fill="black"/>
<path d="M613.11 230.41C610.35 230.41 608.11 228.17 608.11 225.41C608.11 222.65 610.35 220.41 613.11 220.41H613.92C616.68 220.41 618.92 222.65 618.92 225.41C618.92 228.17 616.68 230.41 613.92 230.41C610.35 230.41 613.92 230.41 613.11 230.41Z" fill="black"/>
<path d="M608.11 198.5C608.11 195.73 610.35 193.5 613.11 193.5C615.87 193.5 618.11 195.73 618.11 198.5C618.11 201.26 615.87 203.5 613.11 203.5C610.35 203.5 608.11 201.26 608.11 198.5ZM608.11 171.59C608.11 168.83 610.35 166.59 613.11 166.59C615.87 166.59 618.11 168.83 618.11 171.59C618.11 174.35 615.87 176.59 613.11 176.59C610.35 176.59 608.11 174.35 608.11 171.59Z" fill="black"/>
<path d="M613.92 149.7C611.16 149.7 608.92 147.46 608.92 144.7C608.92 141.94 611.16 139.7 613.92 139.7H614.73C617.49 139.7 619.73 141.94 619.73 144.7C619.73 147.46 617.49 149.7 614.73 149.7C611.16 149.7 614.73 149.7 613.92 149.7Z" fill="black"/>
</g>
<defs>
<clipPath id="clip0_2559_5267">
<rect width="687.48" height="344.54" fill="white"/>
</clipPath>
</defs>
</svg>
