<svg width="194" height="156" viewBox="0 0 194 156" fill="none" xmlns="http://www.w3.org/2000/svg">
<g clip-path="url(#clip0_2559_7518)">
<mask id="mask0_2559_7518" style="mask-type:luminance" maskUnits="userSpaceOnUse" x="0" y="0" width="194" height="156">
<path d="M193.06 0H0V155.21H193.06V0Z" fill="white"/>
</mask>
<g mask="url(#mask0_2559_7518)">
<path d="M89.3102 110.53C89.3102 110.53 88.9302 114.18 88.9002 114.32C88.6402 116.04 88.0802 117.67 87.7302 119.38C87.6102 119.93 87.5302 120.55 87.3302 121.05L85.5202 125.53L83.9202 128.89C83.6102 129.54 81.5402 132.53 80.9902 133.3C80.4202 134.1 79.8202 134.77 79.2102 135.51L78.0002 136.97C76.0302 139.35 71.1602 142.99 68.4002 144.51C67.3402 145.1 66.3402 145.75 65.2502 146.21L61.5802 147.76C60.2102 148.35 58.7602 148.63 57.2802 148.9C55.9302 149.15 54.5502 149.74 53.6302 149.83L51.2002 150.07C49.5702 150.24 46.5702 150.25 44.9102 150.17L43.0902 150.07C42.1502 150.02 41.1702 149.96 40.2802 149.74L36.0902 148.73C35.4502 148.57 34.7802 148.46 34.1602 148.23L30.4102 146.81C29.3702 146.42 28.4702 145.9 27.5102 145.35C26.4602 144.76 25.4002 144.28 24.4302 143.59L22.3002 142.08C21.1402 141.25 20.0902 140.39 19.0102 139.46C17.7802 138.42 16.6802 137.38 15.6802 136.14L14.2802 134.38L12.1302 131.47C10.3102 128.99 10.9602 129.23 9.91023 127.64C8.47023 125.48 8.73023 124.83 7.98023 123.4C7.21023 121.94 6.86023 120.4 6.53023 118.79C5.99023 116.11 5.74023 116.86 5.42023 113.38L5.15023 110.41C5.05023 109.31 5.23023 108.2 4.99023 107.18V97.6403V83.8503V76.9603L5.17023 73.5303C5.24023 72.2203 5.76023 71.2303 6.49023 70.2503C7.07023 69.4603 7.60023 68.7403 8.35023 68.1103C10.4102 66.3803 12.2602 65.7103 15.0402 66.0503C16.3502 66.2103 17.3902 66.6603 18.4602 67.3603C19.8502 68.2703 21.0202 69.2903 21.8402 70.7803C22.2602 71.5303 22.8502 72.3003 22.8602 73.2303L22.9402 79.7403C22.9402 80.6703 22.9102 81.4803 22.9102 82.4203V103.06C22.9102 104.01 23.0202 104.81 22.9402 105.74C22.7002 108.41 23.0902 112.2 23.8902 114.79C24.3102 116.16 24.7502 117.52 25.4702 118.75L26.8502 121.09C27.1902 121.67 27.4702 122.21 27.9002 122.71L29.4002 124.48C30.8402 126.19 32.5202 127.31 34.2702 128.68C35.0102 129.26 35.6602 129.92 36.6802 129.9C37.4802 129.88 38.0802 129.38 38.2802 128.58C38.4502 127.9 38.3602 127.13 38.2502 126.4C37.9302 124.23 38.4302 123.7 38.2102 121.33C38.1202 120.41 38.1502 119.58 38.2102 118.66C38.2902 117.3 38.2902 115.92 38.2102 114.56C38.1602 113.64 38.1202 112.81 38.2102 111.89C38.2902 111.16 38.2802 110.36 38.2002 109.64C38.1002 108.79 38.1702 108 38.2002 107.14C38.2902 104.87 38.2902 102.6 38.2002 100.3C38.1702 99.4203 38.1502 98.6303 38.2002 97.7503C38.2902 95.9103 38.3002 94.0903 38.1802 92.2803C38.1002 91.0703 38.1502 89.9603 38.1802 88.7403C38.2902 85.3603 38.2802 81.9903 38.1802 78.6003C38.0802 75.0903 37.7102 71.7603 40.5502 69.1203C41.7702 67.9803 43.0002 66.8303 44.6202 66.3303C46.2302 65.8303 47.9902 65.8703 49.6302 66.1903C51.5102 66.5603 55.3102 69.9603 55.6402 71.8903C55.7402 72.4903 56.0002 73.1103 56.0002 73.7603L56.0402 120.87C56.0402 122.19 56.2402 123.41 56.1002 124.69L56.0002 125.67C55.8702 126.84 55.6202 129.05 56.7902 129.69C57.8002 130.24 58.8802 129.58 59.7802 128.93C61.0302 128.02 62.2402 127.16 63.4402 126.18C63.7002 125.97 63.9402 125.59 64.1802 125.35C65.0602 124.45 65.8102 123.54 66.6002 122.57C67.6502 121.29 67.8202 120.63 68.7302 119.26C69.9702 117.4 69.5702 117.24 70.2202 115.66C70.8302 114.2 71.3102 112.73 71.3302 111.09L71.4402 101.39C71.4502 100.66 71.4202 100.03 71.4202 99.2903V75.0803C71.4202 74.1103 71.6302 73.0003 71.9002 72.1303C72.5802 69.9703 74.3002 68.4103 76.0602 67.1403C76.8802 66.5503 77.7702 66.1903 78.7702 66.0803C80.0202 65.9403 81.3202 65.8303 82.5302 66.2103C85.7002 67.2103 89.1902 70.6603 89.1902 73.2503L89.3002 110.53H89.3102Z" fill="#90BEFB"/>
<path d="M125.4 33.77L127.15 31.65C128.71 29.76 130.39 28.44 132.32 26.86C132.84 26.43 133.44 26.2 134.01 25.92C134.84 25.51 135.59 24.85 136.47 24.55L140.03 23.37C141.23 22.97 142.44 22.75 143.71 22.68C145.98 22.56 148.05 22.54 150.33 23.01C153.54 23.68 156.64 24.92 159.36 26.76C160.59 27.6 163.48 30.02 164.33 31.1L166.15 33.4C166.91 34.37 167.75 35.34 167.71 36.63C167.68 37.59 167 38.18 166.14 38.34C165.33 38.5 164.65 38.11 163.83 38.11H132.34C131.94 38.11 131.52 38.27 131.18 38.14C131.01 38.07 130.62 38.21 130.46 38.21H126.48C126.4 38.22 124.56 37.97 124.38 37.23C124.07 35.94 124.59 34.75 125.41 33.76M103.93 48.44L104.03 51.25C104.14 54.28 105.15 57.32 105.93 60.22C106.15 61.04 106.48 61.83 106.83 62.59L108.79 66.79C109.73 68.81 110.53 69.69 111.66 71.41C112.28 72.34 112.89 73.19 113.65 74.02L117.09 77.72C118.04 78.74 119.09 79.47 120.22 80.28L122.69 82.05C123.83 82.86 124.91 83.52 126.2 84.13C126.89 84.46 127.51 84.94 128.26 85.19C129.27 85.53 130.24 85.89 131.2 86.36C132.62 87.05 134.16 87.26 135.68 87.71C137.2 88.15 138.66 88.66 140.27 88.76L141.85 88.86L143.2 88.97L144.75 89.06C147.17 89.2 148.65 89 150.54 87.68C151.86 86.76 152.82 85.62 153.71 84.3C154.57 83.02 154.99 81.76 154.96 80.19C154.92 78.57 154.6 77.11 153.67 75.76C152.48 74 151.76 73.21 149.82 72.22C148.85 71.72 147.9 71.55 146.82 71.43L144.79 71.2L143.42 71.09L141.9 70.96C140.61 70.85 139.48 70.59 138.31 70.07L134.64 68.42C133.55 67.93 132.58 67.31 131.65 66.57L129.22 64.64L127.21 62.32C126.49 61.26 125.71 60.39 124.87 59.48C124.34 58.91 124.12 58.09 124.19 57.36C124.25 56.77 124.63 56.28 125.14 56C126.5 55.26 128.31 55.89 129.05 55.89H175.4C177.33 55.55 177.78 56.02 180.17 55.86C180.4 55.85 180.81 55.65 181.08 55.59C181.99 55.35 183.01 55.22 183.8 54.66C185.1 53.74 186.23 52.52 187.01 51.13C187.62 50.06 187.71 48.79 187.97 47.6C188.22 46.45 187.89 45.33 187.83 44.18L187.72 42.23C187.68 41.52 187.61 40.85 187.5 40.15L187.14 37.85C187.04 37.25 186.91 36.68 186.67 36.12C186.1 34.74 185.71 33.4 185.39 31.95C185.26 31.39 184.98 30.84 184.74 30.32L183.42 27.53C183.17 27 182.81 26.53 182.51 26.04C181.64 24.59 180.78 23.23 179.8 21.86C178.49 20.01 175.5 16.87 173.79 15.29C172.99 14.55 172.09 14.01 171.24 13.36C169.19 11.77 167.56 10.81 165.24 9.67004C164.21 9.17004 163.28 8.52004 162.2 8.15004L159.74 7.31004C158.75 6.97004 157.8 6.54004 156.76 6.34004L154.76 5.94004L153.14 5.62004L150.19 5.04004H142.69L138.81 5.55004L134.88 6.51004C133.3 6.89004 131.87 7.32004 130.37 7.94004C129.34 8.36004 128.32 8.70004 127.34 9.29004C126.63 9.71004 125.93 10.05 125.17 10.39C124.43 10.73 123.8 11.27 123.11 11.68C120.79 13.05 118.48 14.87 116.58 16.77C115.5 17.86 114.45 18.89 113.46 20.06L112.63 21.05C111.81 22.03 110.32 24.38 109.64 25.56L108.24 28.02C106.63 30.85 104.28 38.52 104.11 41.77L104.01 43.59L103.91 45.72C103.86 46.64 103.88 47.55 103.91 48.48" fill="#90BEFB"/>
<path d="M88.0801 119.26C85.3601 118.81 83.5201 116.23 83.9701 113.51C84.4201 110.78 86.9901 108.94 89.7201 109.39C92.4401 109.84 94.2801 112.42 93.8301 115.14C93.4301 117.59 91.3101 119.33 88.9101 119.33C88.6301 119.33 88.3601 119.3 88.0801 119.26Z" fill="black"/>
<path d="M86.6998 124.28C83.9998 123.71 82.2599 121.06 82.8299 118.36C83.3999 115.65 86.0498 113.92 88.7498 114.49C91.4498 115.06 93.1899 117.71 92.6199 120.41C92.1199 122.77 90.0499 124.38 87.7299 124.38C87.3899 124.38 87.0498 124.35 86.6998 124.28Z" fill="black"/>
<path d="M85.4701 125.7C82.9301 124.68 81.6801 121.83 82.6501 119.28C82.6501 119.28 82.6601 119.22 82.6701 119.17C83.2501 116.47 85.9101 114.76 88.6101 115.34C91.3101 115.92 93.0301 118.58 92.4401 121.28C92.3601 121.69 92.2301 122.22 91.9701 122.91C91.1801 124.86 89.3001 126.05 87.3201 126.05C86.7001 126.05 86.0801 125.94 85.4701 125.7Z" fill="black"/>
<path d="M83.6398 130.17C81.0798 129.13 79.8398 126.22 80.8698 123.66C81.9098 121.1 84.8298 119.86 87.3898 120.89C89.9498 121.93 91.1798 124.84 90.1498 127.4C89.3598 129.35 87.4898 130.53 85.5098 130.53C84.8898 130.53 84.2498 130.41 83.6398 130.17Z" fill="black"/>
<path d="M81.7698 133.41C79.2698 132.22 78.2098 129.24 79.3998 126.75C80.5798 124.25 83.5598 123.19 86.0598 124.38C88.5498 125.56 89.6098 128.55 88.4298 131.04C87.5698 132.84 85.7798 133.89 83.9098 133.89C83.1898 133.89 82.4598 133.74 81.7698 133.41Z" fill="black"/>
<path d="M78.0501 137.36C75.8101 135.75 75.3101 132.62 76.9201 130.38C78.5301 128.14 81.6601 127.63 83.9001 129.24C86.1401 130.86 86.6501 133.98 85.0401 136.22C84.0601 137.58 82.5301 138.3 80.9701 138.3C79.9601 138.3 78.9401 138 78.0501 137.36Z" fill="black"/>
<path d="M76.01 139.38C73.88 137.62 73.58 134.47 75.33 132.34C77.09 130.2 80.24 129.9 82.37 131.65C84.5 133.41 84.81 136.56 83.05 138.69C82.06 139.89 80.63 140.52 79.19 140.52C78.07 140.52 76.94 140.14 76.01 139.38Z" fill="black"/>
<path d="M74.8 140.83C72.67 139.06 72.3699 135.91 74.1399 133.79L74.7399 133.06C76.4999 130.93 79.6499 130.63 81.7799 132.39C83.8999 134.15 84.2 137.3 82.44 139.43L81.8399 140.16C80.8499 141.35 79.42 141.97 77.98 141.97C76.86 141.97 75.73 141.6 74.8 140.83Z" fill="black"/>
<path d="M64.0101 146.92C62.6801 144.5 63.5601 141.46 65.9801 140.13C68.4001 138.8 71.4401 139.68 72.7701 142.1C74.1001 144.52 73.2201 147.56 70.8001 148.89C70.0401 149.31 69.2101 149.51 68.4001 149.51C66.6301 149.51 64.9201 148.58 64.0101 146.92Z" fill="black"/>
<path d="M60.6498 148.17C59.5598 145.63 60.7398 142.69 63.2798 141.61C65.8198 140.53 68.7598 141.71 69.8398 144.25C70.9298 146.79 69.7498 149.73 67.2098 150.81C66.5698 151.08 65.8998 151.21 65.2498 151.21C63.2998 151.21 61.4598 150.07 60.6498 148.17Z" fill="black"/>
<path d="M56.9701 149.71C55.9001 147.17 57.0801 144.24 59.6301 143.16C62.1701 142.08 65.1101 143.27 66.1801 145.81C67.2601 148.36 66.0701 151.29 63.5301 152.37C62.8901 152.64 62.2301 152.77 61.5801 152.77C59.6301 152.77 57.7801 151.62 56.9701 149.71Z" fill="black"/>
<path d="M52.3701 149.81C51.8601 147.1 53.6601 144.49 56.3701 143.99C59.0901 143.48 61.7001 145.28 62.2001 147.99C62.7001 150.71 60.9101 153.32 58.1901 153.82C57.8801 153.88 57.5801 153.9 57.2801 153.9C54.9101 153.9 52.8101 152.22 52.3701 149.81Z" fill="black"/>
<path d="M48.6602 150.33C48.3902 147.58 50.3902 145.13 53.1402 144.86C55.8902 144.58 58.3402 146.59 58.6102 149.34C58.8802 152.08 56.8802 154.53 54.1302 154.81C53.9602 154.81 53.7902 154.83 53.6302 154.83C51.0902 154.83 48.9202 152.9 48.6602 150.33Z" fill="black"/>
<path d="M46.23 150.57C45.96 147.82 47.96 145.37 50.71 145.1C53.46 144.82 55.91 146.83 56.18 149.58C56.45 152.32 54.45 154.77 51.7 155.05C51.53 155.07 51.36 155.07 51.2 155.07C48.66 155.07 46.49 153.15 46.23 150.57Z" fill="black"/>
<path d="M44.6501 155.16C41.9001 155.02 39.7801 152.67 39.9201 149.91C40.0601 147.15 42.4101 145.03 45.1701 145.18C47.9301 145.32 50.0501 147.67 49.9001 150.43C49.7701 153.1 47.5601 155.17 44.9201 155.17C44.8301 155.17 44.7401 155.17 44.6501 155.16Z" fill="black"/>
<path d="M43.7398 155.11L42.8298 155.07C40.0698 154.92 37.9498 152.57 38.0998 149.81C38.2398 147.05 40.5998 144.93 43.3498 145.08L44.2598 145.13C47.0198 145.27 49.1398 147.63 48.9898 150.38C48.8498 153.05 46.6498 155.12 44.0098 155.12C43.9198 155.12 43.8298 155.12 43.7398 155.11Z" fill="black"/>
<path d="M39.0999 154.6C36.4199 153.95 34.7699 151.25 35.4199 148.57C36.0699 145.88 38.7799 144.24 41.4599 144.89C44.1399 145.54 45.7899 148.24 45.1399 150.92C44.5899 153.21 42.5399 154.75 40.2899 154.75C39.8999 154.75 39.4999 154.7 39.0999 154.6Z" fill="black"/>
<path d="M34.9302 153.6C32.2402 152.95 30.5902 150.25 31.2402 147.57C31.8802 144.88 34.5802 143.23 37.2702 143.88C39.9502 144.52 41.6002 147.22 40.9602 149.91C40.4102 152.2 38.3602 153.74 36.1002 153.74C35.7102 153.74 35.3202 153.69 34.9302 153.6Z" fill="black"/>
<path d="M32.4002 152.91C29.8202 151.93 28.5202 149.05 29.4902 146.46C30.4702 143.88 33.3602 142.58 35.9402 143.56C38.5202 144.53 39.8202 147.42 38.8502 150C38.0902 152 36.1902 153.23 34.1702 153.23C33.5802 153.23 32.9802 153.13 32.4002 152.91Z" fill="black"/>
<path d="M28.65 151.49C26.07 150.51 24.77 147.63 25.75 145.05C26.72 142.46 29.61 141.16 32.19 142.14C34.78 143.12 36.08 146 35.1 148.58C34.34 150.59 32.44 151.82 30.42 151.82C29.83 151.82 29.24 151.71 28.65 151.49Z" fill="black"/>
<path d="M25.07 149.71C22.66 148.36 21.81 145.31 23.17 142.9C24.53 140.5 27.58 139.65 29.98 141C32.39 142.36 33.24 145.41 31.88 147.82C30.96 149.44 29.27 150.36 27.52 150.36C26.69 150.36 25.84 150.15 25.07 149.71Z" fill="black"/>
<path d="M21.55 147.68C19.3 146.08 18.77 142.96 20.36 140.71C21.96 138.46 25.08 137.92 27.33 139.52C29.59 141.11 30.12 144.24 28.52 146.49C27.55 147.87 26.01 148.6 24.44 148.6C23.44 148.6 22.43 148.3 21.55 147.68Z" fill="black"/>
<path d="M19.4201 146.17C17.1701 144.58 16.6301 141.46 18.2301 139.21C19.8201 136.95 22.9401 136.41 25.2001 138.01C27.4501 139.6 27.9901 142.72 26.3901 144.98C25.4201 146.35 23.8701 147.09 22.3101 147.09C21.3101 147.09 20.3001 146.79 19.4201 146.17Z" fill="black"/>
<path d="M15.76 143.26C13.67 141.46 13.43 138.31 15.23 136.21C17.03 134.12 20.18 133.88 22.28 135.68C24.37 137.48 24.61 140.63 22.81 142.73C21.83 143.88 20.43 144.47 19.02 144.47C17.87 144.47 16.71 144.07 15.76 143.26Z" fill="black"/>
<path d="M11.7899 139.28C10.0599 137.12 10.3999 133.98 12.5599 132.25C14.7099 130.52 17.8599 130.86 19.5899 133.02C21.3199 135.17 20.9699 138.31 18.8199 140.04C17.8999 140.79 16.7899 141.15 15.6899 141.15C14.2299 141.15 12.7799 140.51 11.7899 139.28Z" fill="black"/>
<path d="M10.3799 137.5C8.65988 135.34 9.01988 132.2 11.1799 130.48C13.3399 128.76 16.4799 129.12 18.1999 131.28C19.9199 133.44 19.5699 136.58 17.4099 138.3C16.4899 139.04 15.3899 139.39 14.2999 139.39C12.8199 139.39 11.3699 138.74 10.3799 137.5Z" fill="black"/>
<path d="M8.1202 134.44C6.4802 132.22 6.9502 129.09 9.1802 127.45C11.4002 125.81 14.5302 126.29 16.1702 128.51C17.8102 130.73 17.3302 133.86 15.1102 135.5C14.2202 136.16 13.1802 136.48 12.1502 136.48C10.6102 136.48 9.1002 135.77 8.1202 134.44Z" fill="black"/>
<path d="M5.75984 130.41C4.22984 128.11 4.85984 125.01 7.15984 123.48C9.45984 121.95 12.5698 122.58 14.0898 124.89C15.6198 127.19 14.9898 130.29 12.6898 131.82C11.8398 132.38 10.8798 132.65 9.92984 132.65C8.30984 132.65 6.71984 131.86 5.75984 130.41Z" fill="black"/>
<path d="M3.56994 125.74C2.27994 123.29 3.21994 120.27 5.65994 118.98C8.10994 117.7 11.1299 118.63 12.4199 121.08C13.6999 123.52 12.7699 126.54 10.3199 127.83C9.57994 128.22 8.77994 128.41 7.99994 128.41C6.19994 128.41 4.45994 127.44 3.56994 125.74Z" fill="black"/>
<path d="M1.64008 119.8C1.09008 117.1 2.83008 114.45 5.53008 113.89C8.24008 113.34 10.8801 115.08 11.4401 117.79C12.0001 120.49 10.2501 123.13 7.55008 123.69C7.21008 123.76 6.87008 123.79 6.53008 123.79C4.21008 123.79 2.13008 122.16 1.64008 119.8Z" fill="black"/>
<path d="M0.450023 113.84C0.200023 111.09 2.23002 108.65 4.98002 108.4C7.73002 108.15 10.16 110.18 10.41 112.93C10.66 115.68 8.63002 118.11 5.88002 118.36C5.73002 118.38 5.58002 118.38 5.43002 118.38C2.87002 118.38 0.690023 116.43 0.450023 113.84Z" fill="black"/>
<path d="M0.180094 110.87C-0.0699059 108.12 1.95009 105.68 4.70009 105.43C7.45009 105.18 9.89009 107.21 10.1401 109.96C10.3901 112.71 8.37009 115.14 5.62009 115.39C5.46009 115.41 5.31009 115.41 5.15009 115.41C2.60009 115.41 0.420094 113.46 0.180094 110.87Z" fill="black"/>
<path d="M0.129956 108.3C-0.480044 105.6 1.19996 102.92 3.88996 102.31C6.58996 101.7 9.26996 103.38 9.87996 106.07C10.49 108.77 8.80996 111.45 6.10996 112.06C5.73996 112.14 5.36996 112.18 4.99996 112.18C2.71996 112.18 0.659956 110.61 0.129956 108.3Z" fill="black"/>
<path d="M0 97.6396C0 94.8796 2.24 92.6396 5 92.6396C7.76 92.6396 10 94.8796 10 97.6396C10 100.4 7.76 102.64 5 102.64C2.24 102.64 0 100.4 0 97.6396Z" fill="black"/>
<path d="M0 97.6396C0 94.8796 2.24 92.6396 5 92.6396C7.76 92.6396 10 94.8796 10 97.6396C10 100.4 7.76 102.64 5 102.64C2.24 102.64 0 100.4 0 97.6396Z" fill="black"/>
<path d="M0 83.8604C0 81.0904 2.24 78.8604 5 78.8604C7.76 78.8604 10 81.0904 10 83.8604C10 86.6204 7.76 88.8604 5 88.8604C2.24 88.8604 0 86.6204 0 83.8604Z" fill="black"/>
<path d="M0 83.8496C0 81.0896 2.24 78.8496 5 78.8496C7.76 78.8496 10 81.0896 10 83.8496C10 86.6096 7.76 88.8496 5 88.8496C2.24 88.8496 0 86.6096 0 83.8496Z" fill="black"/>
<path d="M0 76.9697C0 74.2097 2.24 71.9697 5 71.9697C7.76 71.9697 10 74.2097 10 76.9697C10 79.7297 7.76 81.9697 5 81.9697C2.24 81.9697 0 79.7297 0 76.9697Z" fill="black"/>
<path d="M4.92011 78.5298C2.16011 78.3898 0.040111 76.0398 0.190111 73.2798C0.330111 70.5198 2.68011 68.3998 5.44011 68.5398C8.19011 68.6898 10.3101 71.0398 10.1701 73.7898C10.0401 76.4698 7.83011 78.5398 5.18011 78.5398C5.10011 78.5398 5.01011 78.5398 4.92011 78.5298Z" fill="black"/>
<path d="M3.51005 74.2702C1.29005 72.6202 0.84005 69.4902 2.48005 67.2702C4.13005 65.0602 7.27005 64.6002 9.48005 66.2502C11.7 67.8902 12.16 71.0302 10.51 73.2402C9.52005 74.5602 8.02005 75.2602 6.49005 75.2602C5.45005 75.2602 4.41005 74.9302 3.51005 74.2702Z" fill="black"/>
<path d="M4.51002 71.3099C2.75002 69.1899 3.03002 66.0399 5.16002 64.2699C7.28002 62.4999 10.43 62.7899 12.2 64.9099C13.97 67.0299 13.68 70.1899 11.56 71.9499C10.62 72.7299 9.49002 73.1099 8.36002 73.1099C6.93002 73.1099 5.50002 72.4999 4.51002 71.3099Z" fill="black"/>
<path d="M14.4202 71.0204C11.6802 70.6704 9.74017 68.1704 10.0802 65.4304C10.4302 62.6904 12.9302 60.7504 15.6702 61.1004C18.4102 61.4404 20.3502 63.9404 20.0002 66.6804C19.6902 69.2104 17.5302 71.0604 15.0502 71.0604C14.8402 71.0604 14.6302 71.0404 14.4202 71.0204Z" fill="black"/>
<path d="M15.7198 71.5402C13.4098 70.0302 12.7698 66.9302 14.2898 64.6202C15.8098 62.3102 18.9098 61.6702 21.2098 63.1902C23.5198 64.7102 24.1598 67.8102 22.6498 70.1102C21.6898 71.5802 20.0898 72.3702 18.4598 72.3702C17.5198 72.3702 16.5698 72.1002 15.7198 71.5402Z" fill="black"/>
<path d="M17.48 73.2104C16.14 70.8004 17.01 67.7504 19.42 66.4104C21.84 65.0704 24.88 65.9404 26.22 68.3604C27.56 70.7704 26.69 73.8204 24.28 75.1604C23.51 75.5804 22.68 75.7904 21.85 75.7904C20.1 75.7904 18.39 74.8604 17.48 73.2104Z" fill="black"/>
<path d="M17.8699 73.2896C17.8399 70.5296 20.0599 68.2696 22.8199 68.2396C25.5799 68.2096 27.8399 70.4196 27.8699 73.1796C27.8999 75.9396 25.6899 78.2096 22.9299 78.2396H22.8699C20.1399 78.2396 17.9099 76.0296 17.8699 73.2896Z" fill="black"/>
<path d="M17.96 79.7996C17.92 77.0396 20.13 74.7796 22.89 74.7396C25.66 74.7096 27.92 76.9196 27.95 79.6796C27.99 82.4396 25.78 84.7096 23.02 84.7396H22.95C20.22 84.7396 17.99 82.5396 17.96 79.7996Z" fill="black"/>
<path d="M17.9302 82.4199C17.9302 79.6599 20.1702 77.4199 22.9302 77.4199C25.6902 77.4199 27.9302 79.6599 27.9302 82.4199C27.9302 85.1899 25.6902 87.4199 22.9302 87.4199C20.1702 87.4199 17.9302 85.1899 17.9302 82.4199Z" fill="black"/>
<path d="M17.9302 103.06C17.9302 100.3 20.1702 98.0596 22.9302 98.0596C25.6902 98.0596 27.9302 100.3 27.9302 103.06C27.9302 105.82 25.6902 108.06 22.9302 108.06C20.1702 108.06 17.9302 105.82 17.9302 103.06Z" fill="black"/>
<path d="M22.5 110.72C19.75 110.47 17.72 108.04 17.98 105.29C18.23 102.54 20.66 100.51 23.41 100.76C26.16 101.02 28.19 103.45 27.93 106.2C27.7 108.79 25.52 110.74 22.96 110.74C22.81 110.74 22.65 110.74 22.5 110.72Z" fill="black"/>
<path d="M19.1201 116.26C18.3101 113.62 19.8001 110.82 22.4401 110.01C25.0801 109.2 27.8701 110.69 28.6801 113.33C29.4901 115.97 28.0101 118.77 25.3701 119.57C24.8801 119.72 24.3901 119.8 23.9001 119.8C21.7601 119.8 19.7801 118.41 19.1201 116.26Z" fill="black"/>
<path d="M21.1799 121.3C19.7799 118.92 20.5699 115.86 22.9399 114.45C25.3199 113.05 28.3899 113.84 29.7899 116.21C31.1999 118.59 30.4099 121.66 28.0299 123.06C27.2299 123.53 26.3599 123.76 25.4899 123.76C23.7799 123.76 22.1099 122.88 21.1799 121.3Z" fill="black"/>
<path d="M22.5599 123.63C21.1499 121.25 21.9499 118.19 24.3199 116.79C26.6999 115.38 29.7699 116.17 31.1699 118.55C32.5699 120.93 31.7799 124 29.3999 125.4C28.6099 125.87 27.7299 126.09 26.8699 126.09C25.1599 126.09 23.4899 125.21 22.5599 123.63Z" fill="black"/>
<path d="M24.08 125.93C23.66 125.42 23.34 124.94 23.09 124.54C21.65 122.18 22.39 119.1 24.75 117.66C27.1 116.22 30.18 116.96 31.62 119.32C31.71 119.46 31.74 119.5 31.75 119.51C33.52 121.62 33.24 124.78 31.12 126.55C30.19 127.33 29.05 127.72 27.92 127.72C26.49 127.72 25.07 127.11 24.08 125.93Z" fill="black"/>
<path d="M25.59 127.71C23.81 125.6 24.08 122.45 26.19 120.67C28.3 118.89 31.45 119.16 33.23 121.27C35.01 123.38 34.75 126.53 32.63 128.31C31.7 129.1 30.55 129.49 29.41 129.49C27.99 129.49 26.58 128.89 25.59 127.71Z" fill="black"/>
<path d="M31.1901 132.62C29.0201 130.91 28.6401 127.77 30.3401 125.6C32.0501 123.43 35.1901 123.05 37.3601 124.75C39.5401 126.46 39.9201 129.6 38.2101 131.77C37.2201 133.03 35.7601 133.69 34.2701 133.69C33.1901 133.69 32.1001 133.34 31.1901 132.62Z" fill="black"/>
<path d="M31.6901 130.04C31.6101 127.28 33.7901 124.98 36.5501 124.9C39.3101 124.83 41.6101 127 41.6901 129.77C41.7601 132.52 39.5801 134.83 36.8201 134.9H36.6801C33.9901 134.9 31.7601 132.75 31.6901 130.04Z" fill="black"/>
<path d="M37.0702 133.43C34.3902 132.75 32.7702 130.03 33.4402 127.36C34.1202 124.68 36.8402 123.06 39.5102 123.73C42.1902 124.41 43.8202 127.13 43.1402 129.81C42.5702 132.07 40.5302 133.58 38.2902 133.58C37.8902 133.58 37.4802 133.53 37.0702 133.43Z" fill="black"/>
<path d="M33.3202 127.16C32.9002 124.43 34.7702 121.88 37.5002 121.46C40.2302 121.04 42.7802 122.92 43.2002 125.64C43.6202 128.37 41.7502 130.93 39.0202 131.34C38.7602 131.38 38.5102 131.4 38.2502 131.4C35.8302 131.4 33.7002 129.63 33.3202 127.16Z" fill="black"/>
<path d="M33.2398 121.79C32.9898 119.05 34.9998 116.61 37.7498 116.35C40.4998 116.09 42.9398 118.11 43.1998 120.86C43.4498 123.61 41.4298 126.05 38.6798 126.31C38.5298 126.31 38.3698 126.33 38.2098 126.33C35.6598 126.33 33.4798 124.39 33.2398 121.79Z" fill="black"/>
<path d="M37.91 123.65C35.15 123.48 33.06 121.11 33.22 118.36C33.39 115.6 35.76 113.5 38.52 113.67C41.28 113.84 43.37 116.21 43.21 118.97C43.04 121.62 40.84 123.66 38.22 123.66C38.12 123.66 38.01 123.66 37.91 123.66V123.65Z" fill="black"/>
<path d="M33.22 114.85C33.06 112.1 35.16 109.73 37.92 109.57C40.68 109.41 43.04 111.51 43.21 114.27C43.37 117.03 41.26 119.39 38.51 119.55C38.41 119.56 38.31 119.56 38.21 119.56C35.58 119.56 33.38 117.51 33.22 114.85Z" fill="black"/>
<path d="M37.7002 116.86C34.9502 116.58 32.9602 114.12 33.2502 111.37C33.5302 108.62 35.9902 106.63 38.7402 106.92C41.4902 107.2 43.4802 109.66 43.1902 112.41C42.9202 114.98 40.7502 116.89 38.2302 116.89C38.0502 116.89 37.8802 116.89 37.7002 116.86Z" fill="black"/>
<path d="M33.2399 110.23C32.9099 107.49 34.8699 105 37.6099 104.68C40.3499 104.35 42.8399 106.31 43.1699 109.05C43.4999 111.79 41.5399 114.28 38.7999 114.61C38.5999 114.63 38.3999 114.64 38.1999 114.64C35.6999 114.64 33.5399 112.77 33.2399 110.23Z" fill="black"/>
<path d="M38.0299 112.14C35.2699 112.04 33.1099 109.72 33.2099 106.96C33.2999 104.2 35.6199 102.04 38.3799 102.14C41.1399 102.24 43.2999 104.55 43.1999 107.31C43.1099 110.01 40.8899 112.14 38.2099 112.14H38.0299Z" fill="black"/>
<path d="M33.2099 100.49C33.1099 97.7297 35.2599 95.4097 38.0199 95.3097C40.7799 95.1997 43.0999 97.3597 43.2099 100.11C43.3099 102.87 41.1599 105.19 38.3999 105.3H38.2099C35.5299 105.3 33.3099 103.18 33.2099 100.49Z" fill="black"/>
<path d="M37.9499 102.75C35.1899 102.6 33.0699 100.25 33.2199 97.4905C33.3599 94.7305 35.7099 92.6205 38.4699 92.7605C41.2299 92.9105 43.3499 95.2605 43.1999 98.0205C43.0599 100.69 40.8499 102.75 38.2099 102.75H37.9499Z" fill="black"/>
<path d="M33.2002 92.5999C33.0202 89.8499 35.1202 87.47 37.8702 87.29C40.6302 87.12 43.0002 89.2099 43.1802 91.9599C43.3602 94.7199 41.2602 97.0999 38.5102 97.2699C38.4002 97.2699 38.2902 97.2699 38.1802 97.2699C35.5702 97.2699 33.3702 95.2399 33.2002 92.5899V92.5999Z" fill="black"/>
<path d="M38.0499 93.7398C35.2899 93.6598 33.1199 91.3498 33.1999 88.5898C33.2799 85.8298 35.5899 83.6598 38.3499 83.7498C41.1099 83.8298 43.2799 86.1298 43.1999 88.8898C43.1199 91.5998 40.8999 93.7398 38.1999 93.7398H38.0499Z" fill="black"/>
<path d="M33.1999 78.7496C33.1199 75.9896 35.2899 73.6896 38.0499 73.6096C40.8099 73.5296 43.1199 75.6996 43.1999 78.4596C43.2799 81.2196 41.1099 83.5196 38.3499 83.5996C38.3499 83.5996 38.2499 83.5996 38.1999 83.5996C35.4999 83.5996 33.2799 81.4496 33.1999 78.7396V78.7496Z" fill="black"/>
<path d="M36.91 72.5295C35.03 70.5095 35.14 67.3495 37.16 65.4695C39.18 63.5895 42.3499 63.6995 44.2299 65.7195C46.11 67.7395 46 70.9095 43.9799 72.7895C43.0099 73.6795 41.79 74.1295 40.57 74.1295C39.2299 74.1295 37.89 73.5895 36.91 72.5295Z" fill="black"/>
<path d="M39.8698 67.8201C39.0498 65.1801 40.5298 62.3801 43.1598 61.5601C45.7998 60.7401 48.5998 62.2101 49.4198 64.8501C50.2398 67.4901 48.7598 70.2901 46.1298 71.1101C45.6298 71.2601 45.1298 71.3301 44.6398 71.3301C42.5098 71.3301 40.5298 69.9601 39.8698 67.8201Z" fill="black"/>
<path d="M48.6898 71.1003C45.9798 70.5603 44.2098 67.9403 44.7498 65.2303C45.2798 62.5203 47.9098 60.7503 50.6198 61.2803C53.3298 61.8203 55.0898 64.4503 54.5598 67.1603C54.0898 69.5403 51.9998 71.1903 49.6598 71.1903C49.3398 71.1903 49.0098 71.1603 48.6898 71.1003Z" fill="black"/>
<path d="M50.7401 72.7504C50.2701 70.0204 52.1001 67.4404 54.8201 66.9704C57.5401 66.5004 60.1201 68.3204 60.6001 71.0504C61.0601 73.7704 59.2401 76.3504 56.5201 76.8204C56.2301 76.8704 55.9401 76.9004 55.6601 76.9004C53.2701 76.9004 51.1601 75.1804 50.7401 72.7504Z" fill="black"/>
<path d="M51.0298 74.0198C50.3698 71.3398 52.0098 68.6298 54.6898 67.9698C57.3698 67.3098 60.0798 68.9398 60.7398 71.6298C60.8498 72.0698 61.0198 72.7898 61.0298 73.7698C61.0298 76.5298 58.7898 78.7698 56.0298 78.7698C53.3498 78.7698 51.1598 76.6598 51.0298 74.0198Z" fill="black"/>
<path d="M51.0498 97.3303C51.0398 94.5603 53.2798 92.3203 56.0398 92.3203C58.7998 92.3203 61.0398 94.5503 61.0498 97.3203C61.0498 100.08 58.8098 102.32 56.0498 102.32C53.2898 102.32 51.0498 100.09 51.0498 97.3303Z" fill="black"/>
<path d="M55.5799 129.67C52.8399 129.37 50.8599 126.9 51.1599 124.15C51.4599 121.41 53.9299 119.43 56.6699 119.73C59.4199 120.03 61.3999 122.5 61.0999 125.24C60.8199 127.8 58.6499 129.7 56.1299 129.7C55.9499 129.7 55.7699 129.7 55.5799 129.67Z" fill="black"/>
<path d="M55.4899 130.65C52.7399 130.36 50.7499 127.89 51.0499 125.15L51.0999 124.65C51.3999 121.91 53.8599 119.92 56.6099 120.22C59.3499 120.51 61.3399 122.98 61.0499 125.72L60.9899 126.22C60.7199 128.78 58.5499 130.68 56.0299 130.68C55.8499 130.68 55.6699 130.68 55.4899 130.65Z" fill="black"/>
<path d="M54.4201 134.1C51.9901 132.77 51.1001 129.74 52.4201 127.31C53.7401 124.89 56.7801 123.99 59.2101 125.32C61.6301 126.64 62.5201 129.67 61.2001 132.1C60.2901 133.76 58.5801 134.71 56.8101 134.71C56.0001 134.71 55.1801 134.51 54.4201 134.1Z" fill="black"/>
<path d="M55.7398 131.86C54.1198 129.62 54.6398 126.5 56.8798 124.89C59.1198 123.28 62.2498 123.79 63.8598 126.03C65.4698 128.28 64.9598 131.4 62.7098 133.01C61.8298 133.64 60.8098 133.95 59.7998 133.95C58.2498 133.95 56.7098 133.23 55.7398 131.86Z" fill="black"/>
<path d="M59.5799 129.36C57.8299 127.22 58.1499 124.07 60.2899 122.32C62.4299 120.58 65.5799 120.89 67.3199 123.03C69.0699 125.17 68.7599 128.32 66.6199 130.07C65.6899 130.83 64.5699 131.2 63.4599 131.2C62.0099 131.2 60.5699 130.57 59.5799 129.36Z" fill="black"/>
<path d="M60.7001 129.69C58.5501 127.96 58.2101 124.81 59.9401 122.66C60.0201 122.56 60.1801 122.32 60.6101 121.87C62.5401 119.89 65.7101 119.86 67.6801 121.79C69.6301 123.69 69.6901 126.78 67.8601 128.76C67.8601 128.76 67.7901 128.85 67.7301 128.92C66.7401 130.15 65.2901 130.79 63.8301 130.79C62.7301 130.79 61.6201 130.43 60.7001 129.69Z" fill="black"/>
<path d="M63.4399 126.45C61.3099 124.7 60.9899 121.55 62.7399 119.42C64.4899 117.28 67.6399 116.97 69.7799 118.72C71.9099 120.47 72.2299 123.62 70.4799 125.75C69.4899 126.96 68.0599 127.59 66.6099 127.59C65.4899 127.59 64.3699 127.21 63.4399 126.45Z" fill="black"/>
<path d="M65.9802 123.44C63.6802 121.91 63.0501 118.81 64.5801 116.51C66.1001 114.21 69.2001 113.58 71.5101 115.1C73.8101 116.63 74.4402 119.73 72.9102 122.03C71.9502 123.49 70.3601 124.27 68.7401 124.27C67.7901 124.27 66.8302 124 65.9802 123.44Z" fill="black"/>
<path d="M68.3302 120.29C65.7802 119.24 64.5602 116.32 65.6002 113.77C66.6502 111.21 69.5702 109.99 72.1302 111.04C74.6802 112.09 75.9102 115.01 74.8602 117.56C74.0602 119.5 72.2002 120.67 70.2302 120.67C69.6002 120.67 68.9502 120.55 68.3302 120.29Z" fill="black"/>
<path d="M71.2801 116.1C68.5201 116.06 66.3101 113.8 66.3501 111.04C66.3801 108.28 68.6501 106.06 71.4101 106.1C74.1701 106.13 76.3801 108.4 76.3501 111.16C76.3101 113.9 74.0801 116.1 71.3501 116.1H71.2801Z" fill="black"/>
<path d="M71.4 106.4C68.64 106.37 66.42 104.11 66.45 101.35C66.48 98.5797 68.74 96.3697 71.51 96.3997C74.27 96.4297 76.48 98.6897 76.45 101.45C76.42 104.2 74.19 106.4 71.45 106.4H71.4Z" fill="black"/>
<path d="M66.4302 99.2998C66.4302 96.5398 68.6702 94.2998 71.4302 94.2998C74.1902 94.2998 76.4302 96.5398 76.4302 99.2998C76.4302 102.06 74.1902 104.3 71.4302 104.3C68.6702 104.3 66.4302 102.06 66.4302 99.2998Z" fill="black"/>
<path d="M71.43 80.0898C68.67 80.0898 66.43 77.8498 66.44 75.0798C66.44 72.3198 68.68 70.0898 71.44 70.0898C74.2 70.0898 76.44 72.3298 76.44 75.0898C76.43 77.8498 74.2 80.0898 71.44 80.0898H71.43Z" fill="black"/>
<path d="M70.4398 76.9199C67.7998 76.1099 66.3198 73.3199 67.1198 70.6799C67.9298 68.0399 70.7298 66.5499 73.3698 67.3499C76.0098 68.1599 77.4898 70.9599 76.6898 73.5999C76.0298 75.7499 74.0498 77.1399 71.9098 77.1399C71.4198 77.1399 70.9298 77.0699 70.4398 76.9199Z" fill="black"/>
<path d="M72.0099 70.0699C70.3999 67.8299 70.8999 64.7099 73.1399 63.0899C75.3799 61.4699 78.4999 61.9799 80.1199 64.2199C81.7399 66.4599 81.2299 69.5799 78.9899 71.1999C78.1099 71.8399 77.0799 72.1499 76.0699 72.1499C74.5199 72.1399 72.9899 71.4199 72.0099 70.0699Z" fill="black"/>
<path d="M73.8098 66.6303C73.4998 63.8903 75.4798 61.4203 78.2298 61.1103C80.9698 60.8103 83.4398 62.7803 83.7498 65.5303C84.0498 68.2703 82.0698 70.7503 79.3298 71.0503C79.1398 71.0703 78.9598 71.0803 78.7698 71.0803C76.2598 71.0803 74.0898 69.1903 73.8098 66.6303Z" fill="black"/>
<path d="M81.0202 70.9803C78.3902 70.1403 76.9302 67.3303 77.7702 64.7003C78.6102 62.0603 81.4202 60.6103 84.0502 61.4503C86.6802 62.2803 88.1402 65.1003 87.3002 67.7303C86.6202 69.8503 84.6602 71.2103 82.5402 71.2103C82.0402 71.2103 81.5302 71.1403 81.0202 70.9803Z" fill="black"/>
<path d="M84.2002 73.2698C84.1902 70.5098 86.4302 68.2598 89.1902 68.2598C91.9502 68.2598 94.1902 70.4798 94.2002 73.2498C94.2002 76.0098 91.9702 78.2498 89.2102 78.2598H89.2002C86.4402 78.2598 84.2002 76.0298 84.2002 73.2698Z" fill="black"/>
<path d="M84.3101 110.55C84.3001 107.79 86.5301 105.54 89.2901 105.53C92.0601 105.53 94.3001 107.76 94.3101 110.52C94.3201 113.28 92.0901 115.52 89.3201 115.53H89.3101C86.5501 115.53 84.3201 113.3 84.3101 110.55Z" fill="black"/>
<path d="M88.9202 119.32C88.7502 119.32 88.5702 119.32 88.3902 119.29C85.6402 119 83.6502 116.54 83.9402 113.79L84.3402 110C84.6302 107.25 87.0902 105.27 89.8402 105.55C92.5902 105.84 94.5802 108.3 94.2902 111.05L93.8902 114.84C93.6202 117.41 91.4502 119.32 88.9202 119.32Z" fill="black"/>
<path d="M99.0302 51.4302C98.9302 48.6702 101.09 46.3602 103.85 46.2602C106.61 46.1602 108.93 48.3102 109.03 51.0702C109.13 53.8302 106.97 56.1502 104.21 56.2502H104.03C101.35 56.2502 99.1302 54.1302 99.0302 51.4302Z" fill="black"/>
<path d="M101.1 61.5196C100.38 58.8596 101.96 56.1096 104.63 55.3996C107.3 54.6796 110.04 56.2596 110.76 58.9196C111.48 61.5896 109.9 64.3296 107.23 65.0496C106.79 65.1696 106.36 65.2296 105.93 65.2296C103.72 65.2296 101.7 63.7596 101.1 61.5196Z" fill="black"/>
<path d="M102.3 64.6997C101.14 62.1997 102.22 59.2297 104.72 58.0597C107.22 56.8897 110.2 57.9697 111.36 60.4797C112.53 62.9797 111.45 65.9497 108.95 67.1197C108.26 67.4397 107.54 67.5897 106.84 67.5897C104.95 67.5897 103.15 66.5197 102.3 64.6997Z" fill="black"/>
<path d="M104.26 68.8996C103.09 66.3996 104.18 63.4296 106.68 62.2596C109.18 61.0996 112.16 62.1796 113.32 64.6896C114.49 67.1896 113.4 70.1596 110.9 71.3296C110.22 71.6496 109.5 71.7996 108.79 71.7996C106.91 71.7996 105.1 70.7296 104.26 68.8996Z" fill="black"/>
<path d="M107.49 74.1695C105.97 71.8595 106.6 68.7595 108.91 67.2395C111.21 65.7195 114.31 66.3595 115.83 68.6595C117.35 70.9695 116.72 74.0695 114.41 75.5895C113.56 76.1495 112.61 76.4095 111.66 76.4095C110.04 76.4095 108.45 75.6195 107.49 74.1695Z" fill="black"/>
<path d="M109.98 77.4199C108.1 75.3899 108.22 72.2299 110.25 70.3499C112.27 68.4799 115.44 68.5999 117.31 70.6199C119.19 72.6499 119.07 75.8099 117.04 77.6899C116.08 78.5799 114.86 79.0199 113.65 79.0199C112.3 79.0199 110.96 78.4799 109.98 77.4199Z" fill="black"/>
<path d="M113.42 81.1203C111.54 79.1003 111.66 75.9403 113.68 74.0603C115.7 72.1803 118.87 72.2903 120.75 74.3103C122.63 76.3303 122.51 79.5003 120.49 81.3803C119.53 82.2703 118.31 82.7203 117.09 82.7203C115.75 82.7203 114.41 82.1803 113.42 81.1203Z" fill="black"/>
<path d="M117.3 84.3398C115.06 82.7298 114.54 79.5998 116.16 77.3598C117.77 75.1198 120.89 74.6098 123.14 76.2198C125.38 77.8298 125.89 80.9598 124.28 83.1998C123.3 84.5598 121.77 85.2798 120.21 85.2798C119.2 85.2798 118.18 84.9698 117.3 84.3398Z" fill="black"/>
<path d="M119.77 86.1104C117.52 84.5004 117.01 81.3804 118.62 79.1304C120.23 76.8904 123.36 76.3804 125.6 77.9904C127.84 79.6004 128.35 82.7204 126.74 84.9704C125.77 86.3304 124.23 87.0504 122.68 87.0504C121.67 87.0504 120.65 86.7504 119.77 86.1104Z" fill="black"/>
<path d="M124.03 88.6398C121.54 87.4498 120.49 84.4698 121.67 81.9798C122.86 79.4798 125.85 78.4298 128.34 79.6098C130.83 80.7998 131.89 83.7898 130.7 86.2798C129.84 88.0798 128.05 89.1298 126.18 89.1298C125.46 89.1298 124.73 88.9698 124.03 88.6398Z" fill="black"/>
<path d="M126.66 89.9303C124.04 89.0503 122.63 86.2203 123.5 83.6003C124.38 80.9803 127.21 79.5703 129.83 80.4503C132.45 81.3203 133.86 84.1603 132.99 86.7803C132.29 88.8703 130.34 90.1903 128.25 90.1903C127.72 90.1903 127.18 90.1003 126.66 89.9303Z" fill="black"/>
<path d="M129.01 90.8501C126.53 89.6601 125.48 86.6701 126.68 84.1801C127.88 81.6901 130.87 80.6501 133.36 81.8501C135.84 83.0501 136.89 86.0401 135.69 88.5201C134.83 90.3101 133.04 91.3501 131.18 91.3501C130.45 91.3501 129.71 91.1901 129.01 90.8501Z" fill="black"/>
<path d="M134.27 92.5003C131.62 91.7303 130.1 88.9503 130.87 86.3003C131.64 83.6503 134.41 82.1303 137.06 82.9003C139.72 83.6703 141.24 86.4403 140.47 89.1003C139.83 91.2803 137.84 92.7003 135.67 92.7003C135.21 92.7003 134.74 92.6303 134.27 92.5003Z" fill="black"/>
<path d="M139.94 93.7398C137.19 93.5598 135.09 91.1898 135.27 88.4298C135.44 85.6798 137.81 83.5798 140.57 83.7598C143.32 83.9298 145.42 86.2998 145.25 89.0598C145.08 91.7098 142.88 93.7498 140.26 93.7498C140.16 93.7498 140.05 93.7398 139.94 93.7398Z" fill="black"/>
<path d="M141.52 93.8396L140.73 93.7896C137.97 93.6096 135.88 91.2296 136.06 88.4796C136.23 85.7196 138.61 83.6296 141.36 83.8096L142.15 83.8596C144.91 84.0296 147 86.4096 146.82 89.1596C146.66 91.8096 144.46 93.8496 141.84 93.8496C141.73 93.8496 141.63 93.8396 141.52 93.8396Z" fill="black"/>
<path d="M142.77 93.94L142.09 93.89C139.34 93.66 137.3 91.24 137.53 88.49C137.76 85.74 140.17 83.69 142.92 83.92L143.6 83.98C146.35 84.21 148.39 86.62 148.16 89.37C147.95 91.98 145.76 93.96 143.19 93.96C143.05 93.96 142.91 93.95 142.77 93.94Z" fill="black"/>
<path d="M144.44 94.0395L143.66 93.9895C140.91 93.8295 138.8 91.4695 138.96 88.7095C139.13 85.9495 141.49 83.8495 144.25 84.0095L145.02 84.0595C147.78 84.2195 149.88 86.5795 149.72 89.3395C149.56 91.9995 147.36 94.0495 144.73 94.0495C144.64 94.0495 144.54 94.0495 144.44 94.0495V94.0395Z" fill="black"/>
<path d="M146.42 90.5301C144.84 88.2601 145.4 85.1401 147.67 83.5701C149.93 81.9901 153.05 82.5401 154.63 84.8101C156.2 87.0701 155.65 90.1901 153.38 91.7701C152.51 92.3801 151.52 92.6701 150.53 92.6701C148.95 92.6701 147.39 91.9201 146.42 90.5301Z" fill="black"/>
<path d="M150.91 88.4398C148.62 86.9098 148 83.7998 149.53 81.5098C151.07 79.2098 154.17 78.5898 156.47 80.1298C158.76 81.6598 159.38 84.7698 157.85 87.0598C156.88 88.4998 155.3 89.2798 153.69 89.2798C152.73 89.2798 151.77 89.0098 150.91 88.4398Z" fill="black"/>
<path d="M149.94 80.2802C149.87 77.5202 152.06 75.2302 154.82 75.1702C157.58 75.1102 159.87 77.2902 159.93 80.0602C160 82.8202 157.81 85.1002 155.05 85.1702H154.93C152.23 85.1702 150 83.0002 149.94 80.2802Z" fill="black"/>
<path d="M149.52 78.5601C147.97 76.2801 148.55 73.1701 150.83 71.6101C153.11 70.0601 156.22 70.6401 157.78 72.9201C159.34 75.2001 158.75 78.3101 156.47 79.8701C155.61 80.4601 154.63 80.7401 153.65 80.7401C152.06 80.7401 150.49 79.9801 149.52 78.5601Z" fill="black"/>
<path d="M147.53 76.6603C145.07 75.4103 144.09 72.4003 145.35 69.9403C146.6 67.4803 149.61 66.5003 152.07 67.7503C154.53 69.0003 155.51 72.0103 154.26 74.4703C153.38 76.2103 151.62 77.2103 149.8 77.2103C149.04 77.2103 148.26 77.0303 147.53 76.6603Z" fill="black"/>
<path d="M146.24 76.3801C143.5 76.0701 141.52 73.6001 141.83 70.8601C142.14 68.1101 144.62 66.1401 147.36 66.4501C150.1 66.7501 152.08 69.2301 151.77 71.9701C151.48 74.5301 149.32 76.4201 146.81 76.4201C146.62 76.4201 146.43 76.4101 146.24 76.3801Z" fill="black"/>
<path d="M144.22 76.1604C141.48 75.8504 139.5 73.3804 139.81 70.6304C140.11 67.8904 142.58 65.9104 145.33 66.2204C148.07 66.5204 150.05 69.0004 149.74 71.7404C149.46 74.3004 147.3 76.1904 144.78 76.1904C144.6 76.1904 144.41 76.1804 144.22 76.1604Z" fill="black"/>
<path d="M143.68 76.1204L143 76.0604C140.25 75.8304 138.2 73.4204 138.42 70.6704C138.65 67.9204 141.06 65.8704 143.82 66.0904L144.5 66.1504C147.25 66.3704 149.3 68.7904 149.08 71.5404C148.86 74.1504 146.67 76.1304 144.1 76.1304C143.96 76.1304 143.82 76.1304 143.68 76.1304V76.1204Z" fill="black"/>
<path d="M142.24 75.9998L141.48 75.9298C138.73 75.6998 136.68 73.2898 136.91 70.5398C137.14 67.7898 139.55 65.7398 142.3 65.9698L143.06 66.0298C145.82 66.2598 147.86 68.6798 147.63 71.4298C147.42 74.0398 145.23 76.0098 142.66 76.0098C142.52 76.0098 142.38 76.0098 142.24 76.0098V75.9998Z" fill="black"/>
<path d="M136.26 74.6197C133.74 73.4897 132.61 70.5297 133.74 68.0097C134.87 65.4897 137.83 64.3697 140.35 65.4997C142.87 66.6197 144 69.5797 142.87 72.0997C142.04 73.9597 140.21 75.0597 138.3 75.0597C137.62 75.0597 136.92 74.9197 136.26 74.6197Z" fill="black"/>
<path d="M132.58 72.9596C130.06 71.8296 128.94 68.8696 130.08 66.3496C131.21 63.8296 134.17 62.7096 136.69 63.8396C139.21 64.9796 140.33 67.9396 139.19 70.4596C138.36 72.3096 136.54 73.3996 134.63 73.3996C133.94 73.3996 133.25 73.2596 132.58 72.9596Z" fill="black"/>
<path d="M128.54 70.4802C126.38 68.7602 126.01 65.6202 127.73 63.4502C129.44 61.2902 132.59 60.9202 134.75 62.6402C136.92 64.3502 137.28 67.5002 135.57 69.6602C134.58 70.9102 133.12 71.5602 131.65 71.5602C130.56 71.5602 129.46 71.2102 128.54 70.4802Z" fill="black"/>
<path d="M126.11 68.5405C123.95 66.8205 123.58 63.6805 125.3 61.5205C127.02 59.3605 130.16 58.9905 132.33 60.7105C134.49 62.4305 134.85 65.5805 133.13 67.7405C132.15 68.9805 130.69 69.6305 129.21 69.6305C128.12 69.6305 127.03 69.2705 126.11 68.5405Z" fill="black"/>
<path d="M124.47 66.4901C122.16 64.9801 121.51 61.8801 123.02 59.5701C124.53 57.2601 127.63 56.6101 129.94 58.1201C132.25 59.6301 132.9 62.7201 131.39 65.0401C130.43 66.5001 128.83 67.3001 127.2 67.3001C126.26 67.3001 125.32 67.0401 124.47 66.4901Z" fill="black"/>
<path d="M121.19 62.8602C119.32 60.8302 119.44 57.6602 121.47 55.7902C123.5 53.9202 126.67 54.0402 128.54 56.0702C130.41 58.1002 130.29 61.2602 128.26 63.1402C127.3 64.0202 126.08 64.4602 124.87 64.4602C123.52 64.4602 122.18 63.9202 121.19 62.8602Z" fill="black"/>
<path d="M123.7 62.32C120.95 62.05 118.94 59.61 119.21 56.86C119.48 54.11 121.92 52.1 124.67 52.37C127.42 52.64 129.43 55.08 129.16 57.83C128.91 60.41 126.74 62.35 124.19 62.35C124.03 62.35 123.87 62.34 123.7 62.32Z" fill="black"/>
<path d="M121.57 60.5997C119.33 58.9897 118.82 55.8597 120.44 53.6197C121.09 52.7297 121.89 52.0597 122.78 51.5797C125.21 50.2797 128.24 51.1897 129.55 53.6197C130.74 55.8597 130.07 58.5897 128.07 60.0397C127.11 61.0297 125.81 61.5497 124.49 61.5497C123.47 61.5497 122.45 61.2397 121.57 60.5997Z" fill="black"/>
<path d="M124.05 55.8799C124.05 53.1199 126.29 50.8799 129.05 50.8799C131.81 50.8799 134.05 53.1199 134.05 55.8799C134.05 58.6399 131.81 60.8799 129.05 60.8799C126.29 60.8799 124.05 58.6399 124.05 55.8799Z" fill="black"/>
<path d="M147.23 55.8799C147.23 53.1199 149.46 50.8799 152.23 50.8799C154.99 50.8799 157.23 53.1199 157.23 55.8799C157.23 58.6399 154.99 60.8799 152.23 60.8799C149.46 60.8799 147.23 58.6399 147.23 55.8799Z" fill="black"/>
<path d="M175.18 56.1905C174.99 53.4405 177.08 51.0505 179.83 50.8605C182.59 50.6805 184.97 52.7605 185.16 55.5105C185.35 58.2705 183.26 60.6505 180.51 60.8405C180.39 60.8505 180.28 60.8505 180.16 60.8505C177.56 60.8505 175.36 58.8305 175.18 56.1905Z" fill="black"/>
<path d="M175.91 57.3899C174.99 54.7899 176.36 51.9299 178.96 51.0099C179.07 50.9799 179.28 50.8799 179.88 50.7199C182.56 50.0699 185.27 51.6999 185.93 54.3899C186.58 57.0099 185.02 59.6599 182.44 60.3899C182.44 60.3899 182.36 60.4199 182.29 60.4399C181.74 60.6399 181.18 60.7299 180.63 60.7299C178.57 60.7299 176.64 59.4499 175.91 57.3899Z" fill="black"/>
<path d="M179.7 57.5196C178.12 55.2596 178.67 52.1396 180.93 50.5496C183.19 48.9696 186.31 49.5196 187.89 51.7896C189.48 54.0496 188.92 57.1696 186.66 58.7496C185.79 59.3596 184.79 59.6496 183.8 59.6496C182.22 59.6496 180.67 58.9096 179.7 57.5196Z" fill="black"/>
<path d="M184.55 55.4801C182.15 54.1301 181.29 51.0801 182.64 48.6701C184 46.2701 187.05 45.4101 189.45 46.7601C191.86 48.1201 192.71 51.1601 191.36 53.5701C190.44 55.2001 188.75 56.1201 187 56.1201C186.17 56.1201 185.33 55.9201 184.55 55.4801Z" fill="black"/>
<path d="M186.88 52.4801C184.19 51.8801 182.49 49.2101 183.08 46.5101C183.68 43.8201 186.35 42.1201 189.05 42.7201C191.75 43.3101 193.45 45.9801 192.85 48.6801C192.33 51.0101 190.26 52.6001 187.97 52.6001C187.61 52.6001 187.25 52.5601 186.88 52.4801Z" fill="black"/>
<path d="M182.83 44.4604C182.67 41.7004 184.78 39.3404 187.54 39.1804C190.3 39.0204 192.66 41.1304 192.82 43.8904C192.97 46.6404 190.87 49.0104 188.11 49.1604C188.01 49.1704 187.92 49.1704 187.82 49.1704C185.19 49.1704 182.99 47.1204 182.83 44.4604Z" fill="black"/>
<path d="M182.78 43.4802L182.72 42.5102C182.57 39.7502 184.67 37.3902 187.43 37.2302C190.19 37.0802 192.55 39.1902 192.71 41.9402L192.76 42.9202C192.92 45.6702 190.81 48.0402 188.05 48.1902C187.95 48.1902 187.86 48.1902 187.76 48.1902C185.13 48.1902 182.93 46.1302 182.78 43.4702V43.4802Z" fill="black"/>
<path d="M182.55 40.9202C182.12 38.1902 183.99 35.6302 186.72 35.2002C189.44 34.7702 192 36.6402 192.43 39.3702C192.86 42.0902 191 44.6502 188.27 45.0802C188.01 45.1202 187.74 45.1402 187.49 45.1402C185.07 45.1402 182.94 43.3902 182.55 40.9202Z" fill="black"/>
<path d="M182.19 38.6097C181.77 35.8797 183.64 33.3297 186.37 32.8997C189.09 32.4797 191.65 34.3497 192.07 37.0797C192.5 39.7997 190.63 42.3597 187.9 42.7897C187.64 42.8297 187.38 42.8497 187.13 42.8497C184.71 42.8497 182.58 41.0797 182.19 38.6097Z" fill="black"/>
<path d="M182.11 38.2202C182.09 38.1402 182.07 38.0902 182.06 38.0502C180.99 35.5102 182.18 32.5702 184.72 31.5002C187.27 30.4302 190.2 31.6202 191.27 34.1702C191.49 34.6902 191.66 35.2002 191.79 35.7102C192.49 38.3802 190.88 41.1102 188.21 41.8002C187.79 41.9102 187.37 41.9602 186.95 41.9602C184.73 41.9602 182.7 40.4702 182.11 38.2202Z" fill="black"/>
<path d="M180.5 33.0104C179.91 30.3104 181.62 27.6404 184.32 27.0604C187.01 26.4604 189.68 28.1704 190.27 30.8704C190.86 33.5704 189.15 36.2304 186.45 36.8204C186.09 36.9004 185.73 36.9404 185.38 36.9404C183.08 36.9404 181.01 35.3504 180.5 33.0104Z" fill="black"/>
<path d="M180.51 33.0802C180.46 32.9702 180.36 32.7602 180.22 32.4602C179.03 29.9702 180.08 26.9802 182.58 25.7902C185.07 24.6002 188.05 25.6602 189.24 28.1502C189.34 28.3702 189.51 28.6902 189.69 29.1302C190.79 31.6602 189.62 34.6102 187.08 35.7002C186.43 35.9802 185.76 36.1102 185.1 36.1102C183.17 36.1102 181.32 34.9702 180.51 33.0802Z" fill="black"/>
<path d="M178.89 29.6501C177.71 27.1601 178.77 24.1801 181.27 22.9901C183.76 21.8101 186.74 22.8801 187.93 25.3701C189.11 27.8701 188.04 30.8501 185.55 32.0301C184.86 32.3601 184.13 32.5101 183.41 32.5101C181.54 32.5101 179.74 31.4601 178.89 29.6501Z" fill="black"/>
<path d="M178.77 29.4699C178.66 29.2899 178.47 29.0099 178.22 28.6099C176.79 26.2399 177.55 23.1699 179.91 21.7399C182.28 20.3099 185.35 21.0699 186.78 23.4299C186.83 23.5199 186.97 23.7299 187.17 24.0399C188.67 26.3599 188.01 29.4499 185.69 30.9499C184.85 31.4999 183.91 31.7499 182.98 31.7499C181.34 31.7499 179.73 30.9499 178.77 29.4699Z" fill="black"/>
<path d="M175.72 24.7303C174.12 22.4803 174.64 19.3603 176.89 17.7603C179.14 16.1603 182.27 16.6903 183.87 18.9403C185.47 21.1903 184.94 24.3103 182.69 25.9103C181.81 26.5303 180.8 26.8303 179.8 26.8303C178.23 26.8303 176.69 26.1003 175.72 24.7303Z" fill="black"/>
<path d="M170.38 18.93C168.36 17.06 168.24 13.89 170.11 11.87C171.99 9.84002 175.15 9.72002 177.18 11.59C179.2 13.47 179.33 16.63 177.45 18.66C176.47 19.72 175.12 20.26 173.78 20.26C172.56 20.26 171.35 19.82 170.38 18.93Z" fill="black"/>
<path d="M168.19 17.3003C166 15.6203 165.59 12.4803 167.27 10.2903C168.95 8.10026 172.08 7.68026 174.28 9.36026C176.47 11.0403 176.88 14.1803 175.2 16.3703C174.22 17.6603 172.73 18.3303 171.23 18.3303C170.17 18.3303 169.1 18.0003 168.19 17.3003Z" fill="black"/>
<path d="M163.04 14.1403C160.56 12.9303 159.53 9.94033 160.74 7.46033C161.95 4.97033 164.94 3.94033 167.43 5.15033C169.91 6.36033 170.94 9.35033 169.73 11.8403C168.86 13.6103 167.08 14.6503 165.23 14.6503C164.5 14.6503 163.75 14.4803 163.04 14.1403Z" fill="black"/>
<path d="M160.59 12.8599C157.98 11.9799 156.57 9.13992 157.46 6.51992C158.34 3.90992 161.18 2.49992 163.8 3.38992C166.41 4.26992 167.81 7.10992 166.93 9.71992C166.22 11.8099 164.28 13.1199 162.19 13.1199C161.66 13.1199 161.12 13.0399 160.59 12.8599Z" fill="black"/>
<path d="M158.11 12.0103C155.5 11.1203 154.11 8.27028 155 5.66028C155.89 3.05028 158.74 1.66028 161.35 2.55028C163.96 3.44028 165.36 6.29028 164.46 8.90028C163.75 10.9803 161.81 12.2803 159.73 12.2803C159.2 12.2803 158.65 12.1903 158.11 12.0103Z" fill="black"/>
<path d="M155.78 11.2099C153.07 10.6699 151.31 8.03985 151.85 5.33985C152.38 2.62985 155.01 0.869852 157.72 1.39985C160.43 1.93985 162.19 4.56985 161.66 7.27985C161.19 9.65985 159.1 11.3099 156.76 11.3099C156.44 11.3099 156.11 11.2799 155.78 11.2099Z" fill="black"/>
<path d="M153.78 10.8105C151.07 10.2805 149.31 7.64045 149.85 4.93045C150.38 2.23045 153.01 0.470455 155.72 1.00045C158.43 1.54045 160.19 4.17045 159.65 6.88046C159.18 9.26046 157.09 10.9105 154.76 10.9105C154.43 10.9105 154.11 10.8805 153.78 10.8105Z" fill="black"/>
<path d="M149.21 9.90991C146.5 9.36992 144.74 6.73991 145.28 4.03992C145.81 1.32992 148.44 -0.440085 151.15 0.099915C153.86 0.639915 155.62 3.26992 155.09 5.97992C154.62 8.35991 152.53 10.0099 150.19 10.0099C149.87 10.0099 149.54 9.97991 149.21 9.90991Z" fill="black"/>
<path d="M137.68 5.01C137.68 2.24 139.92 0 142.68 0C145.44 0 147.68 2.23 147.68 5C147.68 7.76 145.44 10 142.68 10C139.92 10 137.68 7.76 137.68 5V5.01Z" fill="black"/>
<path d="M133.85 6.1798C133.49 3.4398 135.41 0.9298 138.15 0.5598C140.88 0.1998 143.4 2.1298 143.76 4.8598C144.12 7.5998 142.2 10.1098 139.46 10.4798C139.24 10.5098 139.02 10.5198 138.8 10.5198C136.33 10.5198 134.18 8.6898 133.85 6.1798Z" fill="black"/>
<path d="M130.02 7.65971C129.36 4.97971 131.01 2.27971 133.69 1.61971C136.37 0.969711 139.08 2.60971 139.73 5.28971C140.39 7.97971 138.74 10.6797 136.06 11.3397C135.66 11.4297 135.26 11.4797 134.87 11.4797C132.62 11.4797 130.58 9.94971 130.02 7.65971Z" fill="black"/>
<path d="M125.74 9.79963C124.69 7.24963 125.91 4.32963 128.47 3.27963C131.02 2.22963 133.94 3.45963 134.99 6.00963C136.04 8.55963 134.81 11.4896 132.26 12.5296C131.64 12.7896 131 12.9096 130.36 12.9096C128.4 12.9096 126.53 11.7396 125.74 9.79963Z" fill="black"/>
<path d="M123.05 11.8204C121.63 9.4504 122.4 6.3804 124.77 4.9604C127.14 3.5404 130.21 4.3204 131.63 6.6904C133.04 9.0604 132.27 12.1304 129.9 13.5404C129.1 14.0204 128.21 14.2504 127.34 14.2504C125.64 14.2504 123.98 13.3804 123.05 11.8204Z" fill="black"/>
<path d="M120.62 12.4505C119.47 9.94046 120.57 6.97046 123.08 5.81046C125.59 4.66046 128.56 5.76046 129.71 8.27046C130.87 10.7805 129.77 13.7505 127.26 14.9005C126.58 15.2105 125.87 15.3605 125.17 15.3605C123.28 15.3605 121.47 14.2805 120.62 12.4505Z" fill="black"/>
<path d="M118.8 14.2004C117.4 11.8204 118.18 8.75038 120.56 7.35038C122.93 5.94038 126 6.72038 127.41 9.10038C128.81 11.4704 128.03 14.5404 125.66 15.9504C124.86 16.4204 123.98 16.6504 123.11 16.6504C121.4 16.6504 119.74 15.7704 118.8 14.2004Z" fill="black"/>
<path d="M113.05 20.2795C111.09 18.3295 111.08 15.1695 113.03 13.2095C114.98 11.2495 118.15 11.2495 120.1 13.1995C122.06 15.1495 122.07 18.3095 120.12 20.2695C119.14 21.2495 117.86 21.7395 116.58 21.7395C115.3 21.7395 114.02 21.2495 113.05 20.2795Z" fill="black"/>
<path d="M110.24 23.8504C108.12 22.0704 107.86 18.9104 109.64 16.8004C111.42 14.6904 114.57 14.4304 116.68 16.2104C118.79 17.9904 119.06 21.1404 117.28 23.2504C116.29 24.4204 114.88 25.0304 113.46 25.0304C112.32 25.0304 111.17 24.6404 110.24 23.8504Z" fill="black"/>
<path d="M109.42 24.86C107.3 23.08 107.02 19.93 108.79 17.81L109.21 17.32C110.98 15.2 114.13 14.92 116.25 16.69C118.37 18.46 118.65 21.62 116.88 23.73L116.46 24.23C115.47 25.41 114.05 26.02 112.63 26.02C111.49 26.02 110.35 25.64 109.42 24.86Z" fill="black"/>
<path d="M107.16 29.8798C104.76 28.5098 103.93 25.4498 105.3 23.0498C106.67 20.6598 109.72 19.8298 112.12 21.1898C114.52 22.5598 115.35 25.6198 113.98 28.0198C113.06 29.6298 111.37 30.5398 109.64 30.5398C108.8 30.5398 107.94 30.3198 107.16 29.8798Z" fill="black"/>
<path d="M105.77 32.3401C103.37 30.9701 102.53 27.9201 103.9 25.5201C105.26 23.1201 108.32 22.2801 110.72 23.6401C113.12 25.0101 113.96 28.0601 112.59 30.4601C111.67 32.0801 109.98 32.9901 108.24 32.9901C107.4 32.9901 106.55 32.7801 105.77 32.3401Z" fill="black"/>
<path d="M103.86 46.7299C101.1 46.5899 98.9798 44.2399 99.1198 41.4799C99.2598 38.7199 101.61 36.6 104.37 36.74C107.13 36.89 109.25 39.23 109.11 41.99C108.97 44.66 106.76 46.74 104.12 46.74C104.03 46.74 103.95 46.74 103.86 46.74V46.7299Z" fill="black"/>
<path d="M103.76 48.5501C101 48.4001 98.88 46.0501 99.03 43.2901L99.07 42.3801C99.22 39.6201 101.57 37.5101 104.33 37.6501C107.09 37.8001 109.21 40.1501 109.06 42.9101L109.01 43.8201C108.87 46.4901 106.66 48.5501 104.02 48.5501H103.76Z" fill="black"/>
<path d="M103.7 50.6802C100.94 50.5502 98.7999 48.2102 98.9299 45.4602C99.0499 42.7002 101.39 40.5602 104.15 40.6902C106.91 40.8102 109.04 43.1502 108.92 45.9102C108.8 48.5902 106.58 50.6802 103.93 50.6802H103.7Z" fill="black"/>
<path d="M98.9298 48.6403C98.8198 45.8803 100.98 43.5603 103.73 43.4503C106.49 43.3403 108.82 45.4903 108.93 48.2503C109.03 51.0103 106.88 53.3303 104.12 53.4403H103.92C101.25 53.4403 99.0398 51.3303 98.9298 48.6403Z" fill="black"/>
<path d="M104.04 56.2503C101.37 56.2503 99.1501 54.1403 99.0501 51.4503L98.9401 48.6403C98.8301 45.8803 100.98 43.5603 103.74 43.4503C106.5 43.3403 108.82 45.4903 108.93 48.2503L109.04 51.0603C109.15 53.8203 107 56.1403 104.24 56.2503C104.17 56.2503 104.11 56.2503 104.04 56.2503Z" fill="black"/>
<path d="M123.97 35.4998C121.84 33.7498 121.54 30.5998 123.29 28.4698C125.05 26.3398 128.2 26.0298 130.33 27.7898C132.46 29.5398 132.77 32.6998 131.01 34.8298C130.02 36.0298 128.59 36.6498 127.15 36.6498C126.03 36.6498 124.9 36.2698 123.97 35.4998Z" fill="black"/>
<path d="M128.45 30.0296C126.7 27.8896 127.02 24.7396 129.16 22.9896C131.29 21.2396 134.44 21.5596 136.19 23.6996C137.94 25.8396 137.62 28.9796 135.48 30.7296C134.55 31.4896 133.43 31.8596 132.32 31.8596C130.87 31.8596 129.44 31.2296 128.45 30.0296Z" fill="black"/>
<path d="M128.69 28.6299C127.43 26.1699 128.39 23.1599 130.85 21.8899C131.34 21.6499 131.67 21.4999 131.81 21.4299C134.29 20.2199 137.28 21.2399 138.5 23.7199C139.71 26.1999 138.69 29.1999 136.21 30.4099C135.78 30.6199 135.51 30.7399 135.42 30.7899C134.69 31.1599 133.91 31.3399 133.14 31.3399C131.32 31.3399 129.57 30.3499 128.69 28.6299Z" fill="black"/>
<path d="M131.72 26.1196C130.86 23.4996 132.28 20.6696 134.9 19.8096C137.52 18.9396 140.35 20.3696 141.22 22.9896C142.08 25.6096 140.66 28.4396 138.04 29.3096C137.52 29.4796 136.99 29.5596 136.47 29.5596C134.37 29.5596 132.42 28.2296 131.72 26.1196Z" fill="black"/>
<path d="M135.28 24.95C134.41 22.33 135.83 19.5 138.46 18.63C141.08 17.77 143.91 19.19 144.77 21.81C145.64 24.44 144.21 27.26 141.59 28.13C141.07 28.3 140.54 28.38 140.02 28.38C137.92 28.38 135.97 27.05 135.28 24.95Z" fill="black"/>
<path d="M138.71 22.9699C138.56 20.2099 140.67 17.8499 143.43 17.6999C146.19 17.5499 148.55 19.6699 148.7 22.4199C148.85 25.1799 146.74 27.5399 143.98 27.6899C143.89 27.6899 143.79 27.6899 143.7 27.6899C141.06 27.6899 138.86 25.6199 138.71 22.9599V22.9699Z" fill="black"/>
<path d="M149.32 27.9202C146.61 27.3702 144.87 24.7202 145.42 22.0202C145.98 19.3102 148.62 17.5702 151.33 18.1302C154.03 18.6802 155.78 21.3302 155.22 24.0302C154.73 26.4002 152.65 28.0202 150.33 28.0202C149.99 28.0202 149.66 27.9902 149.32 27.9202Z" fill="black"/>
<path d="M156.54 30.9095C154.25 29.3595 153.66 26.2495 155.21 23.9695C156.76 21.6795 159.87 21.0895 162.16 22.6395C164.44 24.1895 165.04 27.2996 163.48 29.5896C162.52 31.0096 160.94 31.7796 159.34 31.7796C158.38 31.7796 157.4 31.4995 156.54 30.9095Z" fill="black"/>
<path d="M160.4 34.2099C158.69 32.0499 159.06 28.8999 161.22 27.1899C163.39 25.4799 166.54 25.8499 168.25 28.0199C169.96 30.1899 169.59 33.3299 167.42 35.0399C166.5 35.7699 165.41 36.1199 164.32 36.1199C162.85 36.1199 161.38 35.4699 160.4 34.2099Z" fill="black"/>
<path d="M162.22 36.5205C160.51 34.3605 160.87 31.2105 163.03 29.5005C165.2 27.7805 168.34 28.1405 170.06 30.3005C171.77 32.4705 171.41 35.6105 169.25 37.3305C168.33 38.0605 167.23 38.4105 166.15 38.4105C164.67 38.4105 163.21 37.7605 162.22 36.5205Z" fill="black"/>
<path d="M167.57 41.6403C164.81 41.5603 162.63 39.2603 162.71 36.5003C162.78 33.7403 165.08 31.5703 167.84 31.6403C170.6 31.7203 172.78 34.0203 172.7 36.7803C172.63 39.4903 170.41 41.6403 167.71 41.6403H167.57Z" fill="black"/>
<path d="M161.22 39.2999C160.7 36.5799 162.48 33.9599 165.19 33.4399C167.9 32.9199 170.52 34.6999 171.04 37.4099C171.56 40.1199 169.78 42.7399 167.07 43.2599C166.75 43.3299 166.44 43.3499 166.13 43.3499C163.77 43.3499 161.68 41.6899 161.22 39.2999Z" fill="black"/>
<path d="M158.82 38.1201C158.82 35.3601 161.06 33.1201 163.82 33.1201C166.58 33.1201 168.82 35.3601 168.82 38.1201C168.82 40.8801 166.58 43.1201 163.82 43.1201C161.06 43.1201 158.82 40.8801 158.82 38.1201Z" fill="black"/>
<path d="M127.34 38.1299C127.34 35.3699 129.57 33.1299 132.33 33.1299C135.09 33.1299 137.33 35.3599 137.33 38.1299C137.33 40.8899 135.1 43.1299 132.34 43.1299C129.57 43.1299 127.34 40.8899 127.34 38.1299Z" fill="black"/>
<path d="M129.41 42.8304C126.83 41.8604 125.52 38.9804 126.49 36.3904C127.46 33.8104 130.34 32.5004 132.93 33.4704C135.51 34.4404 136.82 37.3304 135.85 39.9104C135.1 41.9204 133.19 43.1504 131.17 43.1504C130.58 43.1504 129.99 43.0504 129.41 42.8304Z" fill="black"/>
<path d="M125.45 38.2203C125.45 35.6803 127.34 33.5803 129.8 33.2603C129.8 33.2603 129.86 33.2603 129.9 33.2603C132.61 32.7503 135.22 34.5503 135.73 37.2603C136.23 39.9803 134.43 42.5903 131.72 43.0903C131.72 43.0903 131.7 43.0903 131.55 43.1203C131.38 43.1503 131.18 43.2203 130.45 43.2303C127.69 43.2303 125.45 40.9903 125.45 38.2303V38.2203Z" fill="black"/>
<path d="M121.47 38.2505C121.47 35.4905 123.69 33.2405 126.46 33.2305C129.22 33.2305 131.46 35.4605 131.47 38.2205C131.48 40.9805 129.24 43.2205 126.48 43.2305H126.47C123.72 43.2305 121.48 41.0005 121.47 38.2505Z" fill="black"/>
<path d="M119.51 38.3898C118.87 35.6998 120.54 33.0098 123.22 32.3698C125.91 31.7398 128.6 33.3998 129.24 36.0898C129.87 38.7798 128.21 41.4698 125.52 42.1098C125.13 42.1998 124.75 42.2398 124.37 42.2398C122.1 42.2398 120.05 40.6898 119.51 38.3898Z" fill="black"/>
<path d="M122.22 37.6205C120.09 35.8705 119.79 32.7105 121.55 30.5805C123.3 28.4605 126.46 28.1605 128.59 29.9105C130.71 31.6705 131.01 34.8305 129.26 36.9505C128.27 38.1505 126.84 38.7705 125.4 38.7705C124.28 38.7705 123.15 38.3905 122.22 37.6205Z" fill="black"/>
<path d="M125.4 38.7699C124.28 38.7699 123.14 38.3899 122.21 37.6199C120.08 35.8599 119.79 32.7099 121.55 30.5799L123.31 28.4599C125.07 26.3299 128.22 26.0399 130.35 27.7999C132.48 29.5599 132.77 32.7099 131.01 34.8399L129.25 36.9599C128.26 38.1499 126.83 38.7699 125.4 38.7699Z" fill="black"/>
</g>
</g>
<defs>
<clipPath id="clip0_2559_7518">
<rect width="193.06" height="155.22" fill="white"/>
</clipPath>
</defs>
</svg>
