<svg width="839" height="386" viewBox="0 0 839 386" fill="none" xmlns="http://www.w3.org/2000/svg">
<g clip-path="url(#clip0_2559_8745)">
<mask id="mask0_2559_8745" style="mask-type:luminance" maskUnits="userSpaceOnUse" x="0" y="0" width="839" height="386">
<path d="M838.38 0H0V385.66H838.38V0Z" fill="white"/>
</mask>
<g mask="url(#mask0_2559_8745)">
<path d="M838.38 279.881V280.491L837.88 281.871C837.05 284.151 837.96 286.461 837.38 290.851L836.7 296.121C836.64 296.641 836.5 297.271 836.23 297.551C835.7 298.121 833.11 298.191 832.7 297.351C831.59 295.091 833.47 295.251 829.47 290.311C828.02 288.511 826.61 286.281 824.51 285.261L821.37 283.721C818.08 282.131 814.24 282.291 810.62 281.901C807.84 281.591 806.7 282.331 805.02 283.601C803.17 284.991 800.59 285.811 799.09 287.691C798.08 288.951 797.18 290.051 795.98 291.061L795.3 294.591C794.99 296.251 796.74 297.331 797.66 298.211C798.77 299.281 799.57 299.401 801.07 299.541C803.06 299.731 805.2 300.201 807.09 300.801C813.54 302.841 809.16 300.371 818.19 304.591C818.59 304.771 819.25 305.521 819.66 305.651C820.62 305.971 821.84 306.541 822.82 307.041C826.94 309.131 830.13 311.851 831.42 316.451C832.41 320.001 830.76 324.371 829.12 327.461L827.64 330.271C826.71 332.041 825.59 333.421 824.34 334.961L822.41 337.321C820.68 339.451 818.38 340.761 815.87 341.821L809.81 344.371C806.37 345.821 802.81 347.051 798.93 346.441C797.34 348.051 795.31 347.861 793.32 347.611C787.44 346.911 780.9 345.021 776.79 340.511C776.53 340.241 775.64 340.041 775.35 340.231C774.01 341.071 775.44 344.351 774.09 348.061L773.03 350.931C771.61 352.641 771.47 354.251 771.83 356.471C772.07 357.921 770.35 359.471 769.67 360.691L767.54 364.491L764.63 369.351C764.01 370.401 762.23 371.851 761.25 372.691C760.27 373.541 759.39 373.791 759.02 375.231C758.62 376.771 756 377.481 754.25 378.711C753.33 379.351 752.76 380.571 751.62 380.981L747.13 382.591C745.6 383.141 744.67 384.121 743.04 384.391C741.09 384.711 739.18 385.781 737.11 385.681C735.83 385.631 734.38 385.161 733.25 385.211C732.31 385.261 731.55 385.311 730.74 385.071L726.66 383.811C724.4 383.111 722.34 381.231 720.91 379.221C720.09 378.071 719.33 375.551 719.49 374.181L720.13 369.211C720.3 367.901 720.95 366.161 721.56 364.951C723.69 360.781 725.3 359.811 729.39 358.681C730.74 358.311 731.75 358.341 733.13 358.311L737.82 358.231L738.8 360.091C739.65 361.701 739.02 362.371 738.44 363.751C737.84 365.191 737.24 366.761 736.46 368.201C733.79 373.111 733.17 371.351 732.19 377.011L734.43 378.631C739.9 378.871 745.54 378.711 750.21 375.571C752.47 374.051 757.72 369.101 759.6 366.871C760.14 366.251 760.61 365.161 761.13 364.461C763.54 361.201 764.84 357.501 766.45 353.851C767.62 351.151 768.24 348.401 768.87 345.531C769.78 341.411 769.65 337.581 769.33 333.391C769.16 331.231 769.89 329.051 769.38 326.831C769.15 325.771 769.19 324.231 769.25 323.031L772.96 320.531C773.28 320.311 774.23 320.331 774.53 320.581C774.77 320.821 775.17 321.571 774.87 321.731L773.67 322.371C773.49 322.471 773.7 323.051 773.71 323.381C773.76 324.541 774.41 325.481 774.81 326.481C775.31 327.781 775.69 328.981 776.48 330.101L778.14 332.451C779.13 333.851 780.07 335.381 781.5 336.441L784.5 338.661C787.6 340.961 789.64 340.781 792.14 341.311C793.15 341.531 793.82 342.021 795.05 341.901C795.82 341.821 797.12 341.941 797.93 342.091C799.49 342.371 800.17 341.561 801.67 341.301L805.88 340.601L809.5 338.951C810.39 338.541 811.54 337.191 812.4 336.531L814.39 335.011C815.86 333.881 816.87 332.591 817.87 330.971C817.77 329.151 818.24 327.481 819.49 326.011C819.2 324.731 818.46 322.731 817.73 321.721C815.79 320.971 814.32 320.201 812.69 319.031C810.7 317.601 808.11 317.191 805.82 316.471C804.25 315.961 802.71 315.391 801.13 315.051C795.6 313.851 790.67 312.461 785.93 309.451C783.38 307.831 781.84 305.461 781.59 302.371C781.54 301.671 780.99 300.241 781.26 299.591L782.7 296.101L785.97 290.771C788.73 286.271 793.01 283.881 797.36 281.361C802.05 278.621 805.33 278.591 805.34 278.591L809.05 277.241C812.17 276.091 815.91 277.091 819.33 277.281C822.53 277.461 825.3 278.861 828.13 280.031L829.94 280.771C830.4 282.071 832.55 283.181 833.69 281.931C834.67 280.861 835.68 279.881 837.08 279.371L838.39 279.921L838.38 279.881Z" fill="#90BEFB"/>
<path d="M559.17 216.24C558.53 217.44 558.09 218.64 558.29 219.93C559.14 225.29 556.58 228.87 558.58 230.12L559.32 232.61C560.88 232.57 561.63 233.06 562.66 233.58L566.95 235.74C570.29 237.41 574.1 236.98 577.69 236.71C584.05 236.24 583.28 234.75 587.35 233.52C588.98 233.02 590.26 232.56 591.65 231.59C597.34 227.57 601.63 220.38 601.66 213.25C601.69 210.11 598.71 208.11 595.92 207.74C593.85 207.47 592.3 207.47 590.55 208.46C588.52 209.59 587.02 211.01 586.01 213.17C584.63 216.14 582.23 218.68 578.92 219.43L576.62 219.97C574.48 220.45 575.4 219.93 572.78 216.77C569.94 213.34 573.9 206.36 577.17 203.72C577.69 203.29 581.47 200.83 582.22 200.51C584.98 199.31 587.9 198.25 590.92 198.02C591.84 197.94 593.18 197.64 593.99 197.64C600.48 197.63 605.78 203.49 609.05 208.61C608.46 210.04 608.63 211.29 608.87 212.87C609.11 214.44 608.47 216.19 608.13 217.77C607.91 218.78 607.8 220.13 607.25 220.88C605.74 222.97 606.46 224.43 602.23 229.32L599.19 232.81C596.09 236.38 590.45 240.37 586.1 241.62L580.62 243.2C579.43 243.54 578.36 243.98 577.16 244.08L573.43 244.39C569.49 244.72 561.08 244.23 557.83 242.17L552.42 238.74C550.89 237.77 549.89 237.07 549.26 235.31C548.96 234.43 548.37 232.99 547.88 232.29C545.51 228.9 547.19 229.93 545.85 224.14C544.94 220.26 546.51 213.31 547.99 209.69C548.93 207.37 549.55 205.14 550.29 202.79C551.64 198.54 553.7 194.7 555 190.46L557.83 181.29L559.21 177.16L564.06 163.72L566.7 157.18C567.49 155.23 568.38 153.3 569.02 151.3L570.58 146.4C571.03 144.97 571.98 143.62 572.52 142.25L574.66 136.73C575.27 135.17 575.62 133.54 576.57 132.15C577.17 131.27 578.25 129.46 576.79 128.69C575.45 127.99 573.23 128.65 571.64 128.78L567.63 129.1C567.34 127.12 568.68 125.89 570.32 125.31L573.83 124.09C574.89 123.72 576.34 122.66 577.25 121.9C580.41 119.23 581.09 119.09 584.52 115.98L588.55 112.35C589.7 111.3 590.39 109.9 591.28 108.63C592.76 106.5 594.33 104.47 595.35 102.05C595.89 100.76 597.34 100.46 598.54 100.98L600.48 100.14C600.75 100.02 601.52 100.37 601.5 100.66L601.38 101.95C601.04 105.73 599.2 108.44 597.07 111.41C596.96 111.58 593.87 117.99 594.09 118.9C593.24 119.75 592.21 121.17 592.89 122.57C593.27 123.39 594.77 123.07 595.52 123.04L603.85 122.77C605.8 122.71 607.8 122.6 609.83 122.71C610.32 122.93 610.09 124.21 609.78 124.67C608.02 127.36 609.89 129.08 607.45 129.07L596.06 129.02L592.25 128.46C590.15 128.15 589.66 129.79 589.18 131.37L587.77 136.1C586.29 141 586.49 141.7 584.5 146.55C583.88 148.06 583.43 149.39 582.99 150.9L581.69 155.36C581.26 156.84 580.58 158.23 579.87 159.63C579.36 160.61 579.13 161.8 578.75 162.83L577 167.51C576.11 169.88 575.33 172.18 574.63 174.64C572.75 181.17 571.26 182.51 569.35 188.86C567.69 191.46 566.7 194.24 565.7 197.18L564.55 200.58C563.85 202.65 563.19 204.61 562.34 206.61C561.45 208.74 560.69 210.92 560.11 213.18C559.83 214.24 559.68 215.33 559.18 216.27" fill="#90BEFB"/>
<path d="M666.68 142.891C663.33 145.021 664.47 143.581 662.62 145.351C661.83 146.121 659.6 146.401 658.63 145.731C657.49 144.951 656.58 144.351 655.42 143.641C655.08 142.841 654.49 141.191 654.32 140.341L655.31 137.531C655.96 135.711 657.43 133.911 659 132.781L661.49 130.981C662.52 130.231 664.44 130.781 665.29 129.841H667.43C667.99 130.771 671.4 130.011 671.88 133.731C672.47 138.191 670.52 140.441 666.68 142.881" fill="#90BEFB"/>
<path d="M662.32 161.581L660.92 164.981C660.46 166.081 659.12 167.351 658.79 168.461L656.81 175.091C656.45 176.291 656.04 177.271 655.43 178.391C654.88 179.401 654.83 181.131 654.23 182.041C653.29 183.461 652.58 184.551 652.21 186.201C651.06 191.161 649.8 191.061 648.21 197.851C647.87 199.331 646.85 200.741 646.23 202.221C645.94 202.911 645.91 204.241 645.59 204.901L641.55 213.141C641.13 214.011 640.72 215.261 640.44 216.181L639.11 220.451C638.72 221.741 638.47 223.011 639.24 224.151C639.74 224.901 641.01 225.921 642.17 225.991L646.66 226.271L645.79 229.411C640.33 228.501 643.43 230.881 637.02 229.931C631.65 229.151 630.34 231.911 626.01 229.561L622.77 230.011C620.78 230.291 618.7 229.561 616.78 230.001C615.35 230.311 614.02 230.731 612.58 230.181L613.55 227.581C613.73 227.131 614.2 226.511 614.54 226.241C614.88 225.981 616.08 226.441 616.5 226.321C618.85 225.641 621.74 224.521 623.69 222.851C624.53 222.121 625.34 220.691 625.73 219.761L627.21 216.251L630.55 207.641C632.48 202.701 633.29 199.221 635.63 193.661C636.56 191.451 637.65 189.531 638.16 187.051C638.64 184.691 640.98 183.751 641.63 178.781C641.77 177.701 640.33 176.381 639.31 176.371L633.33 176.241C632.88 175.091 633.25 173.181 634.39 172.681C637.43 171.351 637.51 172.161 640.43 170.491L642.83 169.121C643.54 168.711 644.78 168.321 645.62 168.001C647.23 165.961 649.31 164.951 651.44 163.701C654.26 162.051 657.14 160.911 660.27 161.231C660.84 161.291 661.98 161.001 662.31 161.571" fill="#90BEFB"/>
<path d="M522.81 2.71047C522.25 3.90047 521.77 5.16047 521.36 6.42047L519.31 12.6205L517.23 18.1405C516.39 20.4005 515.87 22.7605 515.33 25.1405L514.65 28.1205C513.92 31.3105 512.55 34.1705 510.9 36.9305C510.7 41.3805 507.4 42.5705 507.14 46.0105C506.94 48.7805 505.84 50.9505 504.79 53.3805L503.02 57.4705C502.57 58.5005 502.11 59.7905 501.83 60.8405C500.75 65.0605 506.55 66.3805 509.65 66.3405C509.74 67.5405 509.2 69.2605 508.14 70.0505C506.56 68.9705 505.21 69.6305 503.69 69.6805L498.35 69.8605C489.4 70.1705 493.75 70.8905 485.47 72.1605C485.48 71.3605 485.56 70.5305 485.8 70.0805L487.18 67.6205C487.5 67.0505 488.05 65.5305 487.23 65.2005C485.41 64.4305 482.33 67.4405 479.53 68.2105L475.39 69.3505C473.68 69.8105 472.07 70.6005 470.35 70.9805C465.02 72.1405 464.99 72.2205 459.51 71.6605C457.81 71.4805 456.31 71.0505 454.56 71.1705C451.21 71.4305 446.58 67.0905 446.19 62.9205C445.79 58.4305 445.97 57.8605 447.15 53.6905L448.18 50.0705L450.13 44.4005L451.48 40.5405L452.83 37.0105L455.01 31.8305L457.22 26.7005L459.34 21.4705C460 19.8405 460.95 17.8505 460.12 15.9905C459.71 15.1705 457.74 14.5905 456.79 14.6105L451.76 14.7305C451.33 13.0105 452.46 12.0305 453.72 11.3505L457.92 9.11047C459.44 8.31047 461.03 7.58047 462.64 6.85047C464.88 5.83047 466.91 4.64047 469.13 3.53047L474.84 0.660474C476.74 -0.309526 478.97 -0.279526 480.31 1.44047C479.48 2.60047 479 3.76047 478.66 5.10047C478.37 6.26047 477.82 7.25047 477.35 8.34047L475 13.6905L473.62 16.3305C471.69 19.9905 472.55 20.9005 471.6 23.7405L468.55 32.9205L466.8 38.2405C465.66 41.7005 464.34 45.0605 462.96 48.4405L461.19 52.8205C460.59 54.3005 459.89 56.3105 460.59 57.8105L462.38 61.5605C463.44 63.7805 465.96 64.4005 468.32 64.2105C473.64 63.7805 476.72 63.2005 481.55 61.2105C484.59 59.9605 488.16 59.1405 490.17 56.4005L491.66 51.8005L493 48.2305L495.02 42.2605C495.39 41.1905 495.77 40.1905 496.19 39.1605C497.39 36.2405 498.26 33.2705 499.79 30.4905C501.41 27.5605 502.32 24.4305 503.46 21.3105C503.91 20.1005 505.83 15.9905 503.49 15.2405C501.42 14.5805 499.03 14.6205 496.7 14.6505C496.28 14.3605 495.92 13.2705 495.9 12.6505C495.81 10.7505 502.69 8.24047 501.64 8.48047L505.56 7.56047C505.15 7.56047 516.15 1.91047 516.57 1.65047C518.53 0.490474 521.23 -0.199526 523.32 1.01047C523.6 1.38047 523.03 2.26047 522.81 2.73047" fill="#90BEFB"/>
<path d="M584.96 67.4008C584.13 68.7108 582.92 69.7908 582.1 70.9508C580.75 72.8508 579.17 73.4908 576.82 73.5108C576.14 73.5208 575.14 73.6108 574.49 73.4108L572.13 72.6308C569.63 66.6208 573.62 65.7408 570.97 59.4708L568.28 57.1208C567.46 56.4108 565.68 56.1408 564.42 56.1008C561.65 56.0108 558.96 57.1608 556.32 58.0508C551.77 59.5908 555.06 59.8608 551.05 59.9408L548.49 61.2508C545.1 63.0008 542.79 65.9308 541.78 69.5908C540.11 70.2408 539.01 71.4108 538.03 72.8408L536.41 75.2008C535.9 75.9308 535.34 76.9108 534.82 77.5008C532.41 80.2308 534.92 77.1008 532.58 81.6808L530.81 85.1408L529.32 88.2308C528.91 89.0608 529.15 90.2108 528.15 90.9208L528.9 92.6408C529.19 93.3008 528.21 94.5908 527.85 95.2908C527.23 96.5308 526.66 97.4808 525.68 98.4008C523.89 100.061 525.72 101.091 524.23 104.271C523.73 105.341 523.57 106.411 523.62 107.661C523.79 111.271 521.95 109.851 520.8 112.741L521.77 114.671C521.96 117.621 521.17 120.231 519.67 122.761C519.89 128.581 522 130.501 523.82 135.721C526.75 138.721 530.67 140.971 535.29 140.651C537 140.531 539.06 140.941 540.66 140.521C545.93 139.121 553.29 135.011 556.56 130.581C559.15 127.101 561.2 123.551 561.59 119.271C561.72 117.881 561.35 116.431 560.35 115.751C559.28 115.001 557.9 114.681 556.61 115.161L552.83 116.561L548.71 118.201C546.58 117.051 544.03 117.391 543.17 116.361C541.68 114.551 543.27 108.671 545.29 106.301C546.08 105.381 547.62 104.871 548.58 104.161C549.8 103.231 550.82 102.741 552.28 102.571C556.07 102.141 564.83 100.911 566.57 105.901L568.32 110.961C570.16 116.231 568 118.011 567.25 121.881C567.02 123.041 566.51 124.071 565.94 125.111L562.97 130.391C562.38 131.451 559.5 134.891 558.86 135.481L553.89 140.061C552.59 141.261 549.39 142.021 546.73 143.871C545.48 144.741 543.56 145.601 542.04 145.761L536.38 146.321C533.5 146.611 530.28 146.741 527.4 146.261L522.43 145.411C519.98 144.991 517.74 143.471 515.72 142.161C513.42 140.681 511.8 139.071 510.49 136.641L509 133.861C507.25 130.621 506.49 123.121 506.86 119.221L507.24 115.291C507.34 114.241 509.33 107.131 509.89 103.361C510.13 101.771 510.94 100.381 511.5 98.8708L514.03 92.1908C514.74 90.3008 520.55 79.1608 520.6 79.6108C520.45 78.1008 521.53 77.9508 522.17 77.1008L526.84 70.7608C527.77 69.5108 529.05 68.4608 530.22 67.4408C533.5 64.6108 533.88 63.5808 537.4 60.5208C539.84 58.4008 542.5 56.8708 545.32 55.2808C547.79 53.8908 550.11 52.6808 552.78 51.7108L557.24 50.0808C558.91 49.4708 560.11 49.4308 561.77 50.4108C562.55 50.8708 564.12 49.8708 564.89 49.9608C569.47 50.4808 568.86 50.0208 572.8 50.6108C579.32 54.1308 579.72 50.9008 584.83 58.7308C585.52 59.7908 586.16 61.4508 586.28 62.7508C586.42 64.1908 585.73 66.2408 585 67.4008" fill="#90BEFB"/>
<path d="M750.69 173.18L750.28 178.47C749.71 185.94 748.55 187.23 745.9 193.23C745.08 195.08 744.47 196.58 743.18 198.28C737.11 206.24 741.83 201.94 733.92 208.58L729.74 212.1L727.48 213.78C723.1 219.06 722.86 215.03 716.98 218.59L713.74 220.55C712.57 221.25 711.52 221.71 710.05 221.79C708.32 221.88 707.72 223.04 702.15 223.27C700.17 223.35 694.65 223.35 693.08 222.76C686.6 220.34 690.24 222.11 683.97 218.4C679.62 215.82 677.2 211.36 676.02 206.47C674.51 200.23 676.01 191.33 678.55 185.39L680.49 180.85L682.79 176.14C683.29 175.15 684.79 174.69 685.41 173.92C686.9 172.07 688.27 170.55 690.01 169.01L693.25 166.13L695.51 164.13L698.56 161.64C701.83 158.99 704.17 158.29 706.67 156.28C708.17 155.08 710.39 155.04 712.23 154.46C712.85 154.27 713.93 153.66 714.56 153.94C714.94 154.11 715.08 155.37 714.91 155.76C714.72 156.19 714.07 156.59 713.47 157.02C710.41 159.28 707.64 161.94 705.17 164.86L703.33 167.03C702.19 168.37 701.24 170.08 700.33 171.63C698.21 175.3 698.2 173.08 694.56 181.13C693.87 182.66 693.72 184.35 692.76 185.84C692.15 186.78 692.53 188.51 692.11 189.44C691.39 191.06 690.62 192.4 690.26 194.08L689.28 198.59C688.77 200.96 686.89 203.67 688.99 208.47C689.31 209.21 689.54 210.38 689.95 211.15C691.05 213.24 692.5 214.72 694.59 215.79C701.16 219.16 710.12 216.91 715.9 212.89C716.83 212.24 717.7 211.08 718.56 210.35L722.95 206.68C723.69 206.06 724.71 204.58 725.3 203.71L729.24 197.78C731.34 194.62 732.7 191.15 734 187.53L735.21 184.16C735.82 182.48 736.13 180.79 736.56 179.06L737.45 175.37C738.6 170.61 737.55 166 734.39 162.18C733.57 161.19 732.32 160.59 731.04 160.01C728.13 158.74 725.68 160.78 722.37 160.5L718.02 163.02C716.82 163.73 715.97 164.6 715.1 165.63L714 166.94L712.05 170.75C711.69 171.46 711.79 173.13 712.01 173.9C712.42 175.33 713.99 176.11 715.42 176.26C717.3 176.45 718.77 177.09 720.39 178.01C721.08 178.41 721.98 178.88 722.28 179.41C723.1 180.89 721.78 183.92 720.89 185.51C720.2 186.75 718.47 187.51 717.55 188.48C716.17 189.95 714.59 190.22 712.74 190.18C710.05 190.1 708.26 188.8 706.9 186.62C704.36 182.58 703.85 178.04 705.66 173.66C707.8 168.51 710.28 163.6 714.79 160.1C717.56 157.96 716.54 157.55 719.39 155.92L723.6 154.62C730.5 152.5 727.08 153.29 735.07 153.28C735.98 153.28 737.04 153.9 737.8 154.16C743.16 155.98 746.37 159.06 748.65 164.22C748.87 164.73 749.59 165.6 749.67 166.12L750.66 173.13L750.69 173.18Z" fill="#90BEFB"/>
<path d="M459.79 88.8904C459.1 90.7504 457.91 92.2104 456.31 93.3504C452.74 96.6504 444.18 96.5404 440.55 94.5104C439.39 93.8604 440.44 91.9504 441.1 91.3304C441.58 90.8804 441.99 89.9404 442.39 89.5404L446.64 85.1604C449.05 83.5404 455.02 81.3904 457.39 83.4504C459.61 84.3704 460.59 86.6004 459.8 88.8704M412.96 132.25L409.31 142.08C408.84 143.36 408.41 144.25 408.16 145.63C407.9 147.08 407.1 148.59 406.58 149.99L403.8 157.59L398.2 172.59C397.89 173.43 396.52 174.22 395.9 174.81C394.66 176.03 393.39 176.75 391.89 177.62C385.41 181.39 379.37 182.4 372.12 180.64C370.7 180.29 369.89 179.53 368.96 178.55C368.27 177.82 367.44 177.17 366.93 176.31C365.79 174.38 364.52 170.26 364.84 168.27C366.47 157.95 366.05 158.74 369.74 149.04L371.17 145.29C371.58 144.22 371.18 142.92 372.64 142.36C374.55 138.56 376.57 134.77 379.5 131.58C382.34 128.48 385.49 125.67 389.28 123.99C395.01 121.45 399.47 120.63 405.58 122.46C408.86 123.45 411.56 125.81 413.3 128.75C413.95 129.83 413.34 131.21 412.95 132.26M465.93 82.9304C462.14 76.5504 458.67 78.0704 454.53 77.7504C453.7 77.6804 452.35 77.2504 451.58 77.5804C448.61 78.8704 445.38 79.3404 442.66 81.0004C440.1 82.5704 437.94 84.8004 435.66 86.7804C435.23 87.1604 433.52 89.7904 432.34 89.7804C431.92 89.7804 431.04 89.3704 430.74 89.0404C429.24 87.3904 427.3 86.5804 425.73 85.1404L421.96 81.6604C418.48 78.4604 412.66 77.5504 410.52 76.8304C407.56 75.8404 404.45 74.7604 401.29 74.5504C397.97 74.3204 388.52 74.4404 385.9 75.3504L380.52 77.2404C378.43 77.9704 376.5 78.8704 374.53 79.7304C373.06 80.3704 372.02 80.9004 370.87 81.9604C368.49 84.1304 366.83 86.5904 365.67 89.6304C365.02 91.3304 365 92.7204 366.26 94.2304C367.61 95.8604 369.76 96.6904 371.86 96.8504C373.9 97.0004 374.96 96.1604 376.2 94.9104C378.84 92.2304 381.16 89.5704 383.38 86.4804C383.79 85.9104 384.69 84.8104 385.23 84.4504L387.67 82.8404C389.82 81.4204 396.11 79.9404 398.51 80.6004C400.82 81.2404 403.05 81.6104 405.42 82.0004C407.83 82.4104 409.92 83.7104 412.13 84.7304C414.85 85.9804 417.32 87.3104 419.76 89.0504L424.42 92.3704C425.3 92.9904 426.23 93.6704 427.23 94.1104C430.42 95.5104 426.55 97.2004 423.89 103.06C423.15 104.68 422.4 105.94 421.57 107.51C420.92 108.74 420.52 110.61 420.03 112.01L418.42 116.58C417.45 119.32 417.39 122.69 416.16 122.82C415.79 122.86 414.9 122.56 414.68 122.25L412.69 119.44C408.79 117.2 406.17 116.28 401.91 115.12C400.56 114.75 399.22 114.85 397.85 114.97C394.51 115.26 391.18 115.36 387.96 116.48C383.95 117.88 380.13 119.57 376.67 122.07L373.3 124.51C372.11 125.38 370.87 126.33 369.76 127.35C369.7 127.41 365.49 132.16 365.46 132.2C363.35 135.08 361.43 137.93 359.53 140.94C358.88 141.96 358.16 143.13 357.41 144C356.74 147.84 355.77 147.3 354.2 152.44C352.81 157.04 352.45 153.65 351.51 163.12C351.17 166.55 351.57 169.83 352.03 173.22C352.23 174.72 352.91 176.15 353.54 177.51C354.93 180.6 357.52 182.62 360.43 184.12L362.64 185.26C364.02 185.96 366.02 186.48 367.38 186.85C368.03 187.03 376.82 187.02 378.28 186.85C380.13 186.66 381.95 186.03 383.96 185.55C385.72 185.13 387.25 183.78 388.88 183.18C391.83 182.1 391.46 181.05 394.91 179.66C397.74 182.06 389.73 187.23 396.16 186.2L400.13 185.56C404.68 184.83 406.83 185.62 412.27 184.16C414.11 183.66 415.69 184.05 416.9 185.55C417.93 185.42 418.32 184.1 418.01 183.19C417.84 182.74 417.72 181.98 417.41 182.04C417.17 182.08 416.52 182.29 416.29 182.44L414.33 183.71L412.43 181.42C410.95 180.92 409.94 180.14 409.02 178.74C410.67 178.03 410.22 176.7 410.67 175.51C411.46 173.36 412 171.31 412.61 169.07C413.27 166.63 415.67 161.81 416.21 159.73L417.09 156.27C417.27 155.57 417.96 154.79 418.53 154.34C419.31 148.72 420.94 148.82 421.67 143.93L422.94 141.72C423.09 140.28 423.6 139.25 424.15 137.97C425.02 135.99 425.87 133.75 426.32 131.63C426.74 129.55 427.57 128.11 428.28 126.17L429.17 123.73C429.67 122.42 430.3 121.38 430.78 120.07L431.92 116.92C432.81 114.47 433.82 111.98 434.01 109.35C434.09 108.23 434.23 107.59 434.74 106.65C435.63 104.95 436.04 102.95 436.56 101.13C437.06 99.3704 439.01 99.6604 440.28 100.34C442.31 101.41 444.67 100.89 446.89 101.16C448.59 101.36 450.05 101.44 451.74 101.05C457.94 99.6104 455.67 100.28 459.16 97.1604L462.27 94.3804C462.86 93.8604 463.34 92.7004 463.81 92.0304C465.07 90.2604 465.54 88.6304 465.76 86.5204C465.87 85.4004 466.6 84.0804 465.95 82.9704" fill="#90BEFB"/>
<path d="M352.14 224.96C350.37 230.76 346.32 237.66 342.85 242.59C341.79 244.08 340.9 245.14 339.27 246.21C338.06 247.01 336.87 248.29 335.67 249.25C334.14 250.46 332.84 251.72 331.95 253.47L325.61 257.26C324.24 258.08 322.92 258.8 321.39 259.19L315.24 260.75C313.8 261.12 312.55 261.52 311.09 261.82C307.12 262.66 305.73 263.53 301.17 262.92C298.25 262.52 295.91 263.58 290.88 260.92L287.42 259.1C286.39 258.55 284.86 257.65 284.12 256.75C281.63 253.79 279.25 249.49 278.7 245.69C278.47 244.13 278.39 242.37 278.41 240.86C278.41 239.9 278.81 234.41 278.97 233.9L280.79 228.35C281.59 225.91 282.49 223.64 283.47 221.21C286.26 214.25 288 215.15 289.81 212.92L291.58 210.71L293.53 208.38C295.38 206.16 297.43 204.39 299.87 202.86L304.98 199.67C305.96 199.04 307.24 198.41 308.31 197.84L310.92 196.48C312.07 195.88 313.51 195.59 314.61 194.95C315.04 194.68 315.67 194.36 316.04 194.34C316.45 194.3 317.12 195.04 317.16 195.46C317.21 195.96 316.75 196.56 316.22 196.99C313.61 199.07 311.14 200.97 308.91 203.25C307.28 204.91 303.21 210.47 302.28 212.59C301.85 213.56 300.66 214.39 300.19 215.29C299.26 217.1 298 218.77 297.27 220.58L294.2 228.28C293.8 229.26 293.31 230.74 293.15 231.75L292.41 236.88C292.09 239.05 291.68 241.71 291.25 243.7C291.14 244.26 290.26 245.1 290.41 245.65L291.63 250.38C292.19 252.55 293.68 254 295.67 254.93L298.35 256.21C301.4 257.65 308.53 257.1 312.19 256.27C313.57 255.95 315.02 255 316.28 254.37C318.64 253.22 320.36 251.61 322.33 250.03C325.17 247.73 327.07 245.34 328.98 242.21C329.91 240.69 331.43 239.49 332.23 237.81C334.87 232.26 337.26 226.93 338.84 220.91C339.81 217.2 339.95 213.32 339.67 209.44C339.58 208.25 338.97 207.05 338.6 205.98C337 201.35 334.22 199.72 329.29 200.36C327.67 199.76 326.51 200.11 325.12 200.73C323.63 201.39 321.96 201.76 320.74 202.82C317.77 205.41 315.56 208.76 314.96 212.62C314.27 217.01 318.81 216.04 322.47 217.66C326.07 219.27 324.64 223.76 323.72 225.06C320.29 229.91 320 228.4 316.27 229.89C313.92 230.82 311.47 230.06 310.48 228.51C306.87 222.94 307.72 224.79 307.29 218.22C307.17 216.55 307.62 215.35 308.21 213.87C310.26 208.68 312.95 203.69 317.46 200.21C318.22 199.62 318.98 199.06 319.56 198.35C321.58 195.89 324.7 195.35 327.44 194.22C329.88 193.21 331.97 192.91 334.63 193.28C338.55 193.84 340.08 194.01 343.8 196.07C344.88 196.67 345.85 197.22 346.79 198.03C350.42 201.27 351.19 202.79 352.34 207.51C353.1 210.62 353.45 213.56 353.07 216.78C352.85 218.72 354.19 218.26 352.14 224.97" fill="#90BEFB"/>
<path d="M181.29 239.491C179.66 249.811 180.081 249.001 176.391 258.711L174.961 262.461C174.551 263.531 174.951 264.831 173.51 265.391C171.58 269.201 169.571 272.991 166.631 276.181C163.851 279.201 160.791 281.971 156.961 283.711C151.111 286.351 146.581 287.091 140.551 285.291C137.271 284.311 134.571 281.941 132.831 279.001C132.181 277.931 132.79 276.541 133.18 275.491L136.831 265.661C137.301 264.381 137.74 263.491 137.98 262.131C138.221 260.751 138.971 259.311 139.471 257.961L142.34 250.151L147.941 235.151C148.251 234.321 149.621 233.531 150.241 232.931C151.481 231.721 152.751 231.001 154.241 230.121C159.101 227.271 164.521 225.801 170.281 226.321C172.021 226.471 176.4 227.371 177.09 229.271C179.79 230.541 181.66 237.171 181.29 239.491ZM105.611 315.741L103.671 318.201C102.521 319.651 101.071 321.081 99.5305 322.411C97.2305 324.361 91.0105 326.291 88.7605 324.291C86.5305 323.381 85.5605 321.141 86.3505 318.881C87.0405 317.021 88.2305 315.551 89.8305 314.401C93.5805 311.101 101.221 311.281 105.521 313.101C106.32 313.441 106.051 315.181 105.611 315.741ZM194.141 234.571C193.941 233.061 193.261 231.641 192.631 230.281C191.241 227.191 188.651 225.181 185.741 223.691L183.531 222.551C182.151 221.841 180.301 221.371 178.721 220.931C178.251 220.801 169.55 220.791 168.12 220.901C166.19 221.071 164.291 221.771 162.321 222.201C160.581 222.571 158.991 223.981 157.281 224.611C154.321 225.711 154.701 226.741 151.251 228.141C148.421 225.731 156.431 220.551 150.001 221.581L146.031 222.221C141.451 222.961 139.421 222.161 133.891 223.621C132.071 224.101 130.451 223.791 129.271 222.191C128.031 222.481 127.881 223.811 128.221 224.841L128.491 225.671C128.551 225.861 129.37 225.681 129.54 225.571L131.76 224.031L133.741 226.351C135.211 226.871 136.24 227.641 137.15 229.041C135.5 229.771 135.951 231.081 135.501 232.271C134.711 234.431 134.171 236.481 133.561 238.711C132.901 241.161 130.501 245.981 129.961 248.051L129.081 251.511C128.901 252.211 128.211 252.991 127.641 253.451C126.861 259.081 125.231 258.961 124.501 263.851L123.221 266.061C123.071 267.511 122.561 268.531 122.011 269.811C121.141 271.801 120.291 274.031 119.84 276.151C119.421 278.231 118.59 279.671 117.881 281.611L116.991 284.051C116.491 285.381 115.851 286.401 115.381 287.711L114.251 290.861C113.361 293.321 112.351 295.801 112.161 298.451C112.081 299.571 111.941 300.201 111.431 301.141C110.541 302.841 110.131 304.851 109.611 306.661C109.111 308.431 107.161 308.131 105.891 307.451C103.861 306.381 101.501 306.901 99.2805 306.631C97.5805 306.441 96.1205 306.361 94.4305 306.761C88.2305 308.201 90.5005 307.511 87.0105 310.641L83.9005 313.431C83.3105 313.951 82.8305 315.111 82.3605 315.781C81.1005 317.541 80.6205 319.171 80.4105 321.281C80.3005 322.401 79.5705 323.721 80.2205 324.831C84.0105 331.211 87.4805 329.701 91.6205 330.021C92.4505 330.081 93.8005 330.521 94.5705 330.191C97.5405 328.901 100.771 328.421 103.491 326.771C106.051 325.201 108.211 322.961 110.491 320.981C110.921 320.601 112.631 317.971 113.811 317.981C114.23 317.981 115.111 318.401 115.401 318.721C116.911 320.371 118.841 321.181 120.411 322.641L124.191 326.121C127.671 329.321 133.491 330.211 135.631 330.941C138.581 331.931 141.691 333.021 144.991 333.221C148.571 333.451 157.69 333.321 160.26 332.431L165.641 330.541C167.73 329.801 169.661 328.911 171.631 328.041C173.101 327.401 174.14 326.871 175.29 325.821C177.67 323.641 179.331 321.181 180.491 318.141C181.141 316.451 181.17 315.051 179.9 313.541C178.55 311.911 176.401 311.091 174.301 310.941C172.261 310.771 171.201 311.631 169.961 312.871C167.321 315.551 165.001 318.231 162.781 321.301C162.361 321.901 161.481 322.961 160.941 323.311L158.661 324.831C156.391 326.351 150.1 327.841 147.65 327.181C145.34 326.561 143.111 326.181 140.741 325.781C138.331 325.371 136.241 324.081 134.031 323.061C131.311 321.811 128.841 320.481 126.401 318.741L121.751 315.421C120.871 314.781 119.941 314.111 118.941 313.671C115.751 312.271 119.621 310.581 122.281 304.731C123.021 303.101 123.771 301.831 124.601 300.271C125.251 299.051 125.651 297.171 126.141 295.771L127.751 291.201C128.721 288.471 128.78 285.091 130.01 284.961C130.38 284.921 131.271 285.231 131.491 285.531L133.48 288.341C137.37 290.581 140.01 291.521 144.26 292.661C145.61 293.031 146.951 292.931 148.321 292.811C151.661 292.521 154.991 292.431 158.201 291.311C162.201 289.911 166.031 288.241 169.491 285.721L172.861 283.281C174.051 282.431 175.3 281.461 176.4 280.431C176.46 280.381 180.671 275.621 180.701 275.581C182.8 272.711 184.73 269.871 186.641 266.841C187.261 265.851 188.021 264.631 188.73 263.791C189.461 259.901 190.401 260.461 191.961 255.351C193.351 250.751 193.71 254.141 194.65 244.661C194.99 241.231 194.591 237.951 194.131 234.561" fill="#90BEFB"/>
<path d="M288.7 233.021C287.77 235.251 289.26 236.061 286.72 240.261C286.3 240.961 285.42 242.021 284.81 242.531C283.33 243.721 280.16 245.081 278.39 245.231C274.37 245.581 272.65 239.851 270.59 238.751C267.86 237.301 263.98 238.991 261.5 240.341C258.23 242.111 257.42 242.131 254.92 244.791L254.04 247.031C253.67 247.971 252.57 249.181 252.48 250.171C252.33 251.841 251.91 252.771 251.09 254.141C249.25 257.201 249.46 260.071 247.89 263.371L246.08 267.161C245.66 268.051 246.14 269.901 245.77 270.951L244.47 274.761C243.59 277.311 242.43 279.911 240.91 282.151C240.31 283.021 239.62 283.621 239.48 284.731C239.05 288.021 237.34 288.521 237.46 290.761C237.55 292.481 239.05 293.551 240.34 294.241C243.54 295.951 244.64 294.521 245.39 295.681C245.68 296.131 245.77 297.261 245.67 297.831C243.27 297.841 241.09 297.941 238.91 297.751C236.32 297.511 233.96 296.941 231.39 297.411C229.79 297.691 227.97 297.401 226.31 297.611C222.32 298.111 218.55 298.151 214.58 298.061L213.44 298.031C212.5 298.021 213.7 294.571 215 294.641C216.13 294.701 217.07 294.681 218.23 294.351C226.71 291.891 226.34 286.161 229.31 277.901L234.78 262.611C235.46 260.721 236.21 258.951 237 257.121C238.53 253.581 239.89 250.031 241.17 246.291C241.73 244.651 239.86 242.861 238.34 242.831L232.61 242.781C232.04 241.481 232.96 240.331 234.03 239.831L237.38 238.261L245.11 234.391L247.16 233.401L250.36 231.741L253.48 230.231L255.97 229.021C256.12 228.961 262.08 227.221 260.42 229.161C258.72 231.141 256.87 234.921 256.64 238.111C258.5 238.651 260.43 235.651 262.55 234.441C268.75 230.871 269.28 231.581 274.92 229.031C277.13 228.021 280.51 228.531 282.59 229.411C285.32 230.561 284.83 227.381 287.53 229.691C287.99 230.091 288.63 230.611 288.95 230.971C289.26 231.311 288.9 232.511 288.69 232.981" fill="#90BEFB"/>
<path d="M116.77 218.49C114.96 222.07 111.44 224.71 108.33 226.92C106.85 227.97 105.91 227.98 103.95 227.8C102.1 227.63 99.21 226.93 99.32 224.18C99.41 222.1 100.98 219.78 102.34 218.21L105.78 217.05C106.07 216.96 106.61 216.5 106.8 216.28C107.03 216.01 106.53 215.06 106.57 214.7L107.78 210.76C108.02 209.98 107 208.47 106.45 207.88C104.75 206.07 102.32 205.16 99.87 204.95L95.58 204.57C91.27 204.19 86.42 205.18 82.47 207.17C81.27 207.77 80.02 208.31 78.95 209.22C75.23 212.47 73.34 215.78 72.62 220.81C72.15 224.07 73.7 226.65 76.55 228.02C81.32 230.31 84.75 229.73 89.13 229.55C89.41 229.54 89.78 230.37 89.61 230.61C87.43 234 88.73 235.37 86.37 235.28C76.46 234.92 71.05 237.17 63.29 243.11C56.51 248.3 49.63 261.21 51.52 269.87C52.22 273.08 54.18 276.44 56.94 278.4C61.72 281.82 67.62 282.68 73.3 282.23C76.36 281.99 78.87 281.66 81.7 280.44C84.2 279.36 86.7 278.44 89.1 277.12C93.73 274.61 97.4 271.3 100.2 266.79C100.86 265.72 101.62 264.38 101.99 263.12C103.1 259.38 103.69 258.15 102.27 254.01C100.85 249.81 96.49 248.16 92.54 248L90.08 247.9C88.47 247.84 87.06 247.73 85.49 248.4C81.28 250.19 80.01 250.72 77.54 254.85C76.02 257.39 79.56 258.01 78.19 263.38C77.73 265.15 77 266.28 75.32 267.08C73.84 267.79 72.3 269.07 70.46 269.16C67.12 269.34 63.95 268.37 63.53 264.36C63.21 261.25 64.42 258.57 65.89 256.02C67.38 253.41 69.54 251.43 71.53 249.16C72.74 247.77 74.42 246.93 76.07 246.02C80.33 243.63 86.69 242.4 91.6 242.17L96.5 241.94C99.05 241.81 102.02 242.86 104.43 243.78C105.69 244.26 106.44 245.14 107.32 246.1C109.46 248.47 110.51 251.28 110.93 254.51C111.27 257.12 110.59 261.28 109.31 263.66L107.88 266.29L106.58 268.7C105.99 269.8 104.88 270.88 104.13 271.95C103.26 273.19 102.42 274.23 101.22 275.16L99.31 276.63C98.67 277.13 98.01 277.54 97.29 277.97C94.31 279.79 90.8 282.51 88.26 283.58L85.66 284.68C81.48 286.44 73.24 287.22 68.33 287.65C66.34 287.84 64.62 287.94 62.67 287.4C59.38 286.46 58.82 287.49 52.9 285.54C48.49 284.09 49.3 285.74 45.87 282.8L41.56 279.1C40.62 278.28 39.02 277.2 38.68 276.04L37.24 271.24C36.78 269.68 36.6 264.56 36.97 263.19C39.19 255.15 43.61 247.03 49.94 241.61C50.39 241.23 51.65 240.91 52.19 240.55C54.42 239.07 59.42 236.3 61.7 235.33C66.05 233.48 68.94 235.06 69.02 233C69.16 229.4 60.76 232.85 59.24 222.26C59 220.52 59.75 216.36 60.76 214.89C61.81 213.37 62.66 211.7 63.86 210.31C65.85 207.98 68.41 206.33 70.8 204.39C71.64 203.71 72.5 203.28 73.53 202.81C74.84 202.2 76.2 201.17 77.59 200.88L83.58 199.69C85.2 199.36 86.96 198.71 88.67 198.68L100.38 198.5C104.38 198.44 108.61 199.51 112.13 201.56C116.08 203.87 117.04 204.29 118.74 208.66C119.07 212.1 118.27 215.51 116.76 218.48" fill="#90BEFB"/>
<path d="M75.5901 148.85C74.6601 151.09 76.1501 151.89 73.6101 156.11C73.1901 156.81 72.3101 157.87 71.6801 158.37C70.2101 159.57 67.0401 160.93 65.2601 161.09C61.2601 161.44 59.5301 155.71 57.4701 154.6C54.7301 153.15 50.8601 154.86 48.3601 156.21C45.1101 157.98 44.2901 157.98 41.7901 160.65L40.9101 162.89C40.5301 163.85 39.4401 165.04 39.3501 166.03C39.1801 167.7 38.7801 168.64 37.9601 170C36.1201 173.07 36.3301 175.94 34.7501 179.25L32.9501 183.04C32.5301 183.93 33.0001 185.78 32.6401 186.83L31.3401 190.63C30.4601 193.19 29.2901 195.8 27.7701 198.01C27.1701 198.89 26.4901 199.48 26.3501 200.59C25.9201 203.89 24.2101 204.39 24.3201 206.63C24.4101 208.35 25.9101 209.42 27.2001 210.11C30.4101 211.81 31.5101 210.38 32.2501 211.54C32.5401 212 32.6501 213.14 32.5301 213.7C30.1501 213.72 27.9601 213.83 25.7801 213.64C23.1901 213.4 20.8201 212.82 18.2401 213.28C16.6501 213.57 14.8201 213.28 13.1801 213.48C9.19012 213.99 5.42012 214.03 1.43012 213.94L0.310124 213.91C-0.629876 213.88 0.550124 210.45 1.87012 210.52C2.99012 210.58 3.95012 210.55 5.10012 210.21C13.5701 207.75 13.2101 202.03 16.1701 193.77L21.6501 178.48C22.3301 176.59 23.0701 174.82 23.8701 173C25.4001 169.45 26.7501 165.91 28.0401 162.17C28.6001 160.51 26.7101 158.74 25.1901 158.71L19.4901 158.65C18.8701 157.4 19.8501 156.19 20.8901 155.7L24.2401 154.14L31.9701 150.26L34.0201 149.27L37.2201 147.62L40.3301 146.11L42.8301 144.9C43.0201 144.81 48.9001 143.13 47.2901 145C45.5301 147.08 43.7301 150.78 43.5001 153.98C45.3501 154.53 47.2901 151.53 49.3901 150.31C55.6001 146.74 56.1201 147.46 61.7601 144.9C63.9801 143.9 67.3601 144.42 69.4301 145.28C72.1601 146.44 71.6901 143.25 74.3701 145.57C74.8301 145.97 75.4701 146.49 75.7801 146.83C76.1001 147.19 75.7301 148.39 75.5401 148.84" fill="#90BEFB"/>
<path d="M776.7 315.84L776.15 320.18L773.82 323.11C772.52 324.74 772.03 327.17 770.39 328.57C764.94 333.24 754.98 335.58 747.88 335.78C743.17 335.9 739.61 334.62 735.61 332.44C733.44 331.27 732.15 329.76 731.26 327.47C727.93 318.87 730.75 315.51 732.92 308.01C733.38 306.38 733.8 304.87 734.37 303.3L735.91 299.05L737.47 294.8L739.15 289.72L743.05 279.82C744.2 276.93 745.22 274.18 746.12 271.21C747.32 267.22 748.79 264.63 749.96 260.13C750.55 257.85 751.78 255.94 752.73 253.79C753.28 252.52 753.52 250.83 753.98 249.53C755.2 246.14 753.15 243.23 749.99 242.13C747.95 241.42 746.11 240.8 743.74 241.16L740.27 241.67C734.95 242.46 734.01 243.16 729.33 245.34C728.32 245.8 727.54 246 726.41 245.44C725.72 245.11 723.94 245.58 723.83 246.51C723.52 249.05 723.73 251.8 722.42 254.02C721.08 256.26 719.68 259.44 719.52 259.67C718.74 260.79 716.99 263.55 716.89 264.75L716.57 268.41C716.4 270.4 713.52 278.27 712.29 280.64C710.5 284.11 709.01 287.5 707.97 291.26C707.61 292.55 707 293.95 708.01 295.11C710.32 297.74 713.95 296.35 715 297.51C715.57 298.13 715.73 301.09 715 301.44C714.5 301.68 713.61 301.68 712.96 301.67L708.98 301.55L692.82 301.5C692 301.5 691.24 301.59 690.49 301.35C685.31 299.65 687.34 301.03 682.08 300.88C682 299.64 682.22 298.2 683.01 297.63C690.54 296.67 693.2 296.56 695.88 288.92L697.93 283.07C698.41 281.72 699.08 280.25 699.46 278.87C700.29 275.9 701.35 273.35 702.43 270.5L705.27 262.96C706.46 259.82 707.5 256.9 709.28 254.02C710.02 252.81 710.57 251.21 710.8 249.77C711.2 247.18 704.79 246.61 703.02 247.25C699.96 245.07 707.15 243.12 709.49 241.73C713.09 239.59 712.82 240.48 715.92 238.35C716.62 237.87 717.63 237.27 718.41 236.95C720.76 235.98 722.85 234.99 725.09 233.78C725.91 233.35 728.05 233.42 728.7 234.03C730.13 235.36 725.7 239.17 725.28 240.94C728.45 241.72 730.43 238.76 733.26 237.64C737.33 236.03 741.49 235.26 745.75 234.2C751.31 232.82 757.1 232.82 762.45 234.9C765.91 236.24 769.73 242.76 769.58 243.65L768.48 249.77C768.12 251.73 768.05 253.16 766.95 254.82C766.24 255.92 765.56 257.47 765.17 258.76C764.22 261.78 762.24 267.1 760.87 269.82C759.35 272.86 758.31 276.02 757.2 279.31C756.18 282.33 755.78 285.57 753.97 288.29C753.24 289.39 752.44 290.38 752.04 291.61L750.04 297.89C749.63 299.17 748.7 300.45 748.57 301.83C748.38 303.84 747.95 305.64 747.14 307.48C746.11 309.87 743.01 319.55 743.35 321L744.09 324.05C744.22 324.57 743.26 326 743.68 326.37C744.57 327.1 745.58 328.31 746.45 328.78C750.07 330.79 754.13 328.92 756.86 326.4C757.8 325.53 758.62 324.92 759.26 323.82L760.61 321.46C762.69 317.86 766.58 315.02 770.69 313.92C772.83 313.36 774.89 314.86 776.71 315.85" fill="#90BEFB"/>
</g>
</g>
<defs>
<clipPath id="clip0_2559_8745">
<rect width="838.38" height="385.66" fill="white"/>
</clipPath>
</defs>
</svg>
