<svg width="100" height="109" viewBox="0 0 100 109" fill="none" xmlns="http://www.w3.org/2000/svg">
<g clip-path="url(#clip0_2547_7266)">
<path d="M45.2895 11.23C44.8595 11.3 44.5095 11.28 44.1395 11.18H40.8195C40.6795 11.18 40.3795 11.28 40.2495 11.26C39.8495 11.18 39.2795 11.07 38.9195 11.41C38.7495 11.56 38.7095 11.98 38.7095 12.25V24.14C38.3095 23.94 38.0395 24.28 37.8295 24.28L33.0695 24.3C32.6795 24.3 32.1295 24.58 32.1295 25.12V101.67C32.1295 102.41 32.4195 103.75 31.9095 103.75H18.4195C17.9095 103.75 18.1895 102.41 18.1895 101.67V25.13C18.1895 24.65 17.6895 24.32 17.3295 24.32L12.4795 24.29C12.2695 24.29 11.9995 23.94 11.5995 24.15V12.16C11.5995 11.92 11.5295 11.54 11.3995 11.42C11.0095 11.06 10.3995 11.21 9.98953 11.27C9.86953 11.29 9.58953 11.19 9.46953 11.19H6.16953C5.76953 11.21 5.38953 11.39 5.01953 11.19V5.12C11.4195 5.01 17.6795 5.24 23.9195 5H26.4095C32.6495 5 38.9195 5 45.3095 5.12V11.23H45.2895Z" fill="#90BEFA"/>
<path d="M71.6595 64.9399C66.1595 64.9399 61.7095 60.4999 61.7095 55.0299C61.7095 49.5599 66.1695 45.1199 71.6595 45.1199C77.1495 45.1199 81.6095 49.5599 81.6095 55.0299C81.6095 60.4999 77.1595 64.9399 71.6595 64.9399ZM94.0195 49.6899C93.5995 48.1099 92.8095 47.4199 91.5995 46.5199C89.9395 45.2899 88.7395 45.9699 88.0295 45.1799C87.6995 44.8099 87.8295 44.4099 87.8295 43.9599L87.8095 31.3499C87.8095 30.5299 87.0195 28.7799 86.2395 28.0099L85.6995 27.4799C84.9095 26.6999 83.8095 26.2099 82.6895 26.0299C82.2995 25.9699 81.7695 26.0299 81.4995 25.8299C81.0195 25.4499 81.2295 25.0199 81.2295 24.5899L81.2095 18.6199C81.2095 17.9699 80.9795 17.2799 80.7995 16.6499C80.6595 16.1499 80.2495 15.6599 79.9495 15.2499C79.2395 14.2899 77.9195 13.4299 76.7595 13.1599L75.7495 12.9299C75.4495 12.8599 74.7995 12.7099 74.7895 12.2999L74.7195 9.11985C74.7095 8.52985 74.4995 7.80985 74.0795 7.39985C73.3895 6.72985 72.3295 6.33985 71.4095 6.43985C70.8895 6.48985 70.3895 6.68985 69.8995 6.82985L69.5995 7.09985C68.7095 7.89985 68.4895 8.64985 68.6095 9.78985C68.6895 10.5199 68.6495 11.2899 68.6495 12.0399C68.6495 12.4399 68.3795 12.7399 68.0195 12.8399C65.5195 13.5499 65.9795 12.9799 63.8095 14.7399C63.3895 15.0799 63.1595 15.6399 62.8695 16.0799C62.4995 16.6399 62.2695 17.1599 62.2095 17.8299C62.1695 18.2199 61.9695 18.6699 61.9695 19.0799L61.9495 25.5999C61.7095 26.0399 61.1295 26.0099 60.7095 26.0199C60.3095 26.0299 59.8995 26.2199 59.5295 26.3499C58.5795 26.6899 57.4295 27.4099 56.8795 28.1999C56.5095 28.7399 56.0295 29.2799 55.8695 29.9199C55.7295 30.4999 55.4895 31.0699 55.4895 31.6699L55.4595 44.6199C55.4595 45.8799 53.6895 45.4899 52.5695 46.0299C51.2695 46.6599 50.0295 47.8499 49.4895 49.1899C49.2995 49.6799 48.9795 50.1899 48.9795 50.7599L49.0095 59.4299C49.0095 59.8599 49.7595 61.5299 50.1395 62.0299C50.6795 62.7499 51.3795 63.4299 52.1995 63.8499C52.7295 64.1199 53.2995 64.2899 53.8695 64.4799C54.2495 64.6099 54.8295 64.5199 55.1695 64.6999C55.6295 64.9499 55.4695 65.5099 55.4695 65.9399V78.2799C55.4795 78.7199 55.6195 79.2699 55.7195 79.6699C55.9195 80.5199 56.7295 81.7599 57.3295 82.3299C58.3495 83.2999 59.5195 83.8699 60.9595 84.0499C61.2495 84.0899 61.9195 84.3299 61.9195 84.6899L61.9995 90.9999C62.0195 92.2199 62.5695 93.6999 63.3095 94.7099C63.9495 95.5799 64.7195 96.1899 65.7395 96.5899C66.2095 96.7699 66.6795 97.0399 67.2095 97.0999C67.6495 97.1499 68.4195 97.0699 68.5695 97.6599C68.7495 98.3699 68.5695 99.4199 68.6195 100.35C68.6595 101.16 68.6595 102.06 68.6195 102.86C68.5995 103.1 68.4295 103.74 68.8795 103.74H74.3495C74.8795 103.76 74.7795 103.21 74.7795 102.89V97.6899C74.7695 97.2999 75.2795 97.0899 75.6095 97.1199C76.1595 97.1599 76.5495 96.9999 77.0195 96.8099C78.3795 96.2899 79.5595 95.5199 80.2995 94.2499C80.7895 93.4199 81.2295 92.5599 81.2295 91.5499V85.6199C81.2295 85.3499 81.1795 85.0699 81.2295 84.8599C81.5095 83.7799 82.3795 84.1899 83.4895 83.8199C84.8595 83.3699 86.0795 82.4899 86.8395 81.2799C87.0795 80.8999 87.8195 79.2199 87.8195 78.6099V65.9399C87.8195 65.5599 87.6395 65.2499 87.9295 64.8999C88.4195 64.2799 88.7595 64.7099 90.1595 64.2399C91.0795 63.9299 91.8395 63.4499 92.5095 62.7599C93.5495 61.6899 94.4295 59.7599 94.4295 58.5899V51.1799L94.0195 49.6699V49.6899Z" fill="#90BEFA"/>
<path d="M38.7102 17.25C39.9302 17.25 41.0402 16.79 41.9102 16.06C42.1102 16.01 42.3102 15.94 42.5002 15.88C42.6202 15.92 42.7302 15.98 42.8502 16.01C42.8702 16.01 42.8902 16.01 42.9102 16.02C42.9102 16.02 42.9202 16.02 42.9302 16.02C43.4002 16.14 43.9602 16.23 44.5002 16.25C44.5702 16.25 44.6402 16.25 44.7102 16.25C44.8602 16.25 45.0002 16.22 45.1502 16.21C45.2002 16.21 45.2402 16.21 45.2902 16.21C45.3002 16.21 45.3202 16.21 45.3302 16.21C45.6502 16.21 45.9702 16.18 46.2702 16.11C46.4302 16.08 46.5702 16.02 46.7202 15.97C46.8802 15.92 47.0402 15.89 47.1902 15.83C47.3602 15.76 47.5102 15.67 47.6702 15.58C47.7902 15.51 47.9202 15.46 48.0302 15.38C48.1802 15.28 48.3102 15.16 48.4502 15.05C48.5602 14.96 48.6702 14.89 48.7602 14.79C48.8802 14.67 48.9902 14.53 49.1002 14.4C49.1902 14.29 49.2902 14.19 49.3702 14.07C49.4602 13.94 49.5402 13.79 49.6202 13.65C49.7002 13.51 49.7802 13.38 49.8402 13.24C49.9002 13.1 49.9402 12.96 49.9902 12.81C50.0502 12.64 50.1102 12.48 50.1502 12.31C50.1802 12.18 50.1902 12.05 50.2102 11.91C50.2302 11.75 50.2702 11.6 50.2802 11.44C50.2802 11.39 50.2802 11.34 50.2802 11.3C50.2802 11.27 50.2802 11.25 50.2802 11.22C50.2802 11.13 50.2602 11.04 50.2502 10.94C50.2402 10.72 50.2202 10.5 50.1802 10.29C50.1602 10.17 50.1202 10.05 50.0902 9.93998C50.0402 9.73998 49.9902 9.54998 49.9102 9.35998C49.8602 9.23998 49.8002 9.11998 49.7402 8.99998C49.6602 8.82998 49.5802 8.66998 49.4702 8.50998C49.3902 8.38998 49.3002 8.27998 49.2102 8.16998C49.8502 7.33998 50.2602 6.31998 50.2802 5.19998C50.3302 2.43998 48.1302 0.169976 45.3702 0.119976C42.6102 0.0699763 40.3302 2.26998 40.2802 5.02998C40.2802 5.43998 40.3302 5.83998 40.4202 6.22998C40.3902 6.22998 40.3502 6.22998 40.3202 6.23998C40.0102 6.18998 39.6802 6.16998 39.3502 6.17998C38.4402 6.19998 36.8602 6.47998 35.5002 7.73998C34.9102 8.28998 34.5002 8.95998 34.2402 9.66998C34.0602 10.06 33.9002 10.46 33.8202 10.91C33.7102 11.49 33.7002 11.89 33.7002 12.25C33.7002 15.01 35.9402 17.25 38.7002 17.25H38.7102Z" fill="black"/>
<path d="M38.7101 19.1398C38.0401 19.0798 37.3401 19.1398 36.6601 19.3798C36.4801 19.4398 36.3301 19.4998 36.2101 19.5498C35.9301 19.6498 35.6601 19.7698 35.4101 19.9098C34.7001 19.5298 33.9001 19.2998 33.0401 19.3098C32.3301 19.3098 31.6701 19.4698 31.0601 19.7298C30.4601 19.8998 29.8801 20.1798 29.3601 20.5798C28.2701 21.3498 27.0801 23.1498 27.1201 25.1298C27.1201 27.8898 29.3601 30.1298 32.1201 30.1298C33.4701 30.1298 34.6801 29.5898 35.5801 28.7298C36.2601 29.0698 37.0101 29.2798 37.8201 29.2798C38.4301 29.2598 38.8901 29.1798 39.2301 29.0898C41.7401 28.8198 43.7101 26.7198 43.7101 24.1398C43.7101 21.3798 41.4701 19.1398 38.7101 19.1398Z" fill="black"/>
<path d="M32.1201 45.6401C29.3601 45.6401 27.1201 47.8801 27.1201 50.6401C27.1201 53.4001 29.3601 55.6401 32.1201 55.6401C34.8801 55.6401 37.1201 53.4101 37.1201 50.6401C37.1201 47.8701 34.8801 45.6401 32.1201 45.6401Z" fill="black"/>
<path d="M32.1201 81.1602C34.8815 81.1602 37.1201 78.9216 37.1201 76.1602C37.1201 73.3987 34.8815 71.1602 32.1201 71.1602C29.3587 71.1602 27.1201 73.3987 27.1201 76.1602C27.1201 78.9216 29.3587 81.1602 32.1201 81.1602Z" fill="black"/>
<path d="M31.9004 98.7598C29.1304 98.7598 26.9004 100.99 26.9004 103.75C26.9004 106.51 29.1304 108.76 31.9004 108.76C34.6704 108.76 36.9004 106.52 36.9004 103.75C36.9004 100.98 34.6604 98.7598 31.9004 98.7598Z" fill="black"/>
<path d="M23.1797 101.68C23.1797 98.9202 20.9397 96.6802 18.1797 96.6802C15.4197 96.6802 13.1797 98.9202 13.1797 101.68C13.1797 102.23 13.2897 102.76 13.4597 103.26C13.4397 103.42 13.4097 103.58 13.4097 103.75C13.4097 106.52 15.6397 108.75 18.3997 108.75C21.1597 108.75 23.4097 106.52 23.4097 103.75C23.4097 103.2 23.2997 102.67 23.1297 102.17C23.1497 102.01 23.1797 101.85 23.1797 101.68Z" fill="black"/>
<path d="M18.1797 81.1602C20.9411 81.1602 23.1797 78.9216 23.1797 76.1602C23.1797 73.3987 20.9411 71.1602 18.1797 71.1602C15.4183 71.1602 13.1797 73.3987 13.1797 76.1602C13.1797 78.9216 15.4183 81.1602 18.1797 81.1602Z" fill="black"/>
<path d="M18.1797 45.6401C15.4197 45.6401 13.1797 47.8801 13.1797 50.6401C13.1797 53.4001 15.4197 55.6401 18.1797 55.6401C20.9397 55.6401 23.1797 53.4101 23.1797 50.6401C23.1797 47.8701 20.9397 45.6401 18.1797 45.6401Z" fill="black"/>
<path d="M15.6902 29.0401C16.3902 29.3901 17.1502 29.5601 17.9102 29.5601C19.2802 29.5601 20.6402 29.0001 21.6302 27.9001C23.4702 25.8401 23.3002 22.6801 21.2402 20.8401C20.1202 19.9001 19.0702 19.3701 17.3202 19.3201C16.4502 19.3201 15.6402 19.5601 14.9302 19.9601C14.3102 19.6101 13.6002 19.3901 12.8502 19.3301C11.7202 19.0401 10.4902 19.1101 9.36024 19.6701C6.89024 20.9001 5.88024 23.9101 7.12024 26.3801C7.93024 28.0101 9.53024 28.9901 11.2302 29.1201C11.6202 29.2201 12.0202 29.2901 12.4502 29.2901H12.4702C13.3402 29.2901 14.1502 29.0501 14.8602 28.6601C15.1202 28.8101 15.4002 28.9401 15.6902 29.0401Z" fill="black"/>
<path d="M8.52991 16.0802C9.37991 16.7402 10.4299 17.1502 11.5899 17.1502C14.3499 17.1502 16.5899 14.9102 16.5899 12.1502C16.5899 11.9902 16.5599 11.8402 16.5399 11.6802C16.5399 11.6402 16.5299 11.6002 16.5299 11.5602C16.5099 11.4102 16.5099 11.2502 16.4699 11.1002C16.4499 10.9502 16.4499 10.8102 16.4199 10.6702C16.3499 10.3702 16.2599 10.0402 16.0799 9.60015C15.8699 9.17015 15.6399 8.58015 14.8099 7.77015C14.2099 7.21015 13.4999 6.84015 12.7599 6.63015C12.1299 6.35015 11.4399 6.18015 10.7099 6.18015C10.4399 6.18015 10.2099 6.20015 9.99991 6.22015C9.95991 6.22015 9.92991 6.22015 9.87991 6.21015C9.95991 5.86015 9.99991 5.50015 9.99991 5.13015C10.0099 2.36015 7.77991 0.120151 5.01991 0.120151C2.25991 0.110151 0.00990762 2.35015 0.00990762 5.11015C0.00990762 6.26015 0.409908 7.30015 1.04991 8.14015C0.869908 8.37015 0.709908 8.61015 0.569908 8.87015C-0.710092 11.3102 0.239908 14.3402 2.67991 15.6202C3.41991 16.0102 4.21991 16.1902 4.99991 16.1902C5.22991 16.1902 5.45991 16.1702 5.67991 16.1402C5.83991 16.1602 5.98991 16.1902 6.15991 16.1902H6.17991C6.74991 16.1902 7.28991 16.0702 7.79991 15.8902C8.03991 15.9702 8.27991 16.0302 8.52991 16.0802Z" fill="black"/>
<path d="M31.3896 4.99997C31.3896 2.23997 29.1496 -3.16066e-05 26.3896 -3.16066e-05C25.9596 -3.16066e-05 25.5396 0.0699684 25.1396 0.179968C24.6796 0.0599684 24.2096 -0.0100316 23.7196 -3.16066e-05C20.9596 0.109968 18.8096 2.42997 18.9096 5.18997C19.0096 7.87997 21.2296 9.99997 23.9096 9.99997H24.0896C24.4596 9.98997 24.8196 9.91997 25.1696 9.82997C25.5596 9.92997 25.9696 9.99997 26.3896 9.99997C29.1496 9.99997 31.3896 7.75997 31.3896 4.99997Z" fill="black"/>
<path d="M55.5002 36.6502C58.1502 36.6502 60.3202 34.5902 60.4902 31.9802C60.5102 31.8802 60.5102 31.7802 60.5302 31.6902C60.5402 31.6502 60.5602 31.6102 60.5702 31.5702C60.7002 31.4302 60.8202 31.2802 60.9302 31.1302C61.0202 31.1002 61.1202 31.0902 61.2102 31.0602C61.2802 31.0302 61.3402 31.0102 61.3902 30.9902C61.6402 30.9802 61.9802 30.9402 62.4302 30.8602C63.2002 30.7002 63.8802 30.3502 64.4602 29.9002C65.9502 29.0402 66.9602 27.4502 66.9602 25.6002C66.9602 24.3502 66.4902 23.2202 65.7302 22.3402C66.3902 21.5802 66.8402 20.6302 66.9402 19.5702C66.9602 19.4702 66.9602 19.3802 66.9802 19.2802C67.0402 19.1002 67.0702 18.9002 67.1102 18.7102C67.2902 18.4202 67.4102 18.2102 67.4802 18.0902C67.5702 18.0002 67.6602 17.9102 67.7302 17.8102C67.8202 17.8102 67.9102 17.8302 68.0002 17.8302C68.4602 17.8302 68.9102 17.7702 69.3702 17.6402C70.1902 17.4102 70.9902 16.9902 71.6802 16.3702C72.1902 16.8202 72.6402 17.0602 73.0002 17.2402C73.3702 17.4202 73.7602 17.5502 74.1502 17.6302C74.3102 17.6802 74.4602 17.7502 74.6202 17.7902L75.1302 17.9102C75.2602 17.9402 75.3802 17.9602 75.5102 17.9802C75.5602 17.9902 75.6002 18.0102 75.6402 18.0202C75.7002 18.0402 75.7602 18.0402 75.8302 18.0502C75.8602 18.1002 75.8902 18.1602 75.9202 18.2102C76.0802 18.4202 76.1602 18.5302 76.2202 18.6002C76.2202 18.6002 76.2202 18.6002 76.2202 18.6102C76.2202 19.7302 76.6102 20.7602 77.2402 21.5902C76.6202 22.4202 76.2302 23.4502 76.2302 24.5702C76.2302 25.1502 76.3502 25.7002 76.5302 26.2202C76.6402 27.5702 77.2902 28.8802 78.4502 29.7702C80.2302 31.0102 81.2702 30.8602 81.7302 30.9502C81.8502 30.9602 81.9602 30.9702 82.0802 30.9702C82.1002 30.9702 82.1102 30.9702 82.1302 30.9702C82.1402 30.9802 82.1502 31.0002 82.1702 31.0102L82.4402 31.2802C82.4402 31.2802 82.5402 31.3502 82.5802 31.4002C82.6302 31.4502 82.6602 31.5102 82.7102 31.5502C82.7502 31.5902 82.7902 31.6102 82.8302 31.6502C83.0002 34.2602 85.1502 36.3402 87.8102 36.3302C90.5702 36.3302 92.8102 34.0802 92.8002 31.3202C92.8002 29.8802 92.1802 28.5902 91.2002 27.6802C91.1202 26.5002 90.6502 25.3402 89.7402 24.4402C89.7002 24.4002 89.6502 24.3702 89.6002 24.3302C89.5602 24.2802 89.5202 24.2302 89.4802 24.1802L89.2102 23.9102C88.3802 23.0802 87.3202 22.6302 86.2402 22.5102C85.9802 22.2502 85.7102 22.0102 85.4002 21.8102C85.3402 21.7202 85.2702 21.6502 85.2102 21.5702C85.8402 20.7302 86.2202 19.7002 86.2202 18.5802C86.2202 17.8602 86.0602 17.1802 85.7802 16.5602C85.7802 16.1302 85.7302 15.6902 85.6102 15.2602C85.4902 14.8402 85.3102 14.4702 85.1002 14.1102C84.9702 13.7702 84.8102 13.4402 84.6002 13.1202C84.2802 12.6602 84.0502 12.3602 83.9702 12.2602C83.1902 11.2002 82.0702 10.5602 80.8702 10.3302C80.5502 9.87019 80.1702 9.45019 79.7102 9.11019C79.7102 9.07019 79.7202 9.03019 79.7202 8.98019C79.7202 8.55019 79.6302 8.14019 79.5202 7.75019C79.4902 7.35019 79.4202 6.94019 79.2802 6.54019C78.9802 5.70019 78.5302 4.74019 77.5502 3.77019C76.6602 2.91019 75.5202 2.47019 74.3702 2.41019C73.4102 1.70019 72.2002 1.31019 70.9202 1.43019C70.5502 1.47019 70.2002 1.55019 69.8602 1.66019C69.6502 1.69019 69.4302 1.72019 69.2202 1.78019C68.8102 1.90019 68.5702 1.98019 68.5102 2.00019C67.7502 2.22019 67.1002 2.62019 66.5502 3.11019C66.5002 3.15019 66.4402 3.18019 66.3902 3.23019L66.2402 3.37019C65.2302 4.28019 64.6802 5.52019 64.6102 6.78019C63.9902 7.61019 63.6302 8.64019 63.6302 9.74019C62.5802 9.78019 61.5302 10.1202 60.6502 10.8402C60.2902 11.1302 60.0002 11.4802 59.7402 11.8402C59.4702 12.1102 59.2202 12.4102 59.0102 12.7502C58.8802 12.9702 58.7902 13.1302 58.7402 13.2202C58.7102 13.2702 58.6902 13.3002 58.6802 13.3102C58.5002 13.5802 58.3602 13.8602 58.2502 14.1502C58.0602 14.4402 57.8902 14.7502 57.7602 15.0802C57.5202 15.6802 57.3702 16.3702 57.2802 17.0402C57.2702 17.0902 57.2402 17.1302 57.2302 17.1802C57.1702 17.4602 56.9802 18.0202 56.9702 19.0602C56.9702 20.0202 57.2602 20.9102 57.7302 21.6802C56.8002 22.0402 56.0402 22.6402 55.4902 23.4002C54.4302 23.7002 53.4702 24.3402 52.7902 25.3102C52.5102 25.7102 52.3202 26.1302 52.1702 26.5702C51.6402 27.1602 51.2202 27.8702 51.0202 28.6902C51.0002 28.7902 51.0002 28.8902 50.9802 28.9902C50.9202 29.1502 50.8402 29.3102 50.7902 29.4802C50.6702 29.9702 50.4902 30.6902 50.4902 31.6602C50.4902 34.4202 52.7302 36.6502 55.4902 36.6502H55.5002Z" fill="black"/>
<path d="M51.3598 68.9001C51.4198 68.9201 51.4598 68.9301 51.5098 68.9501C52.4198 70.1501 53.8498 70.9401 55.4798 70.9401C58.2398 70.9401 60.4798 68.7001 60.4798 65.9401C60.4798 65.3401 60.3598 64.7701 60.1598 64.2301C60.0098 62.6201 59.0798 61.1201 57.5598 60.3001C56.2398 59.6501 55.4898 59.6301 55.0798 59.6001C54.9398 59.5501 54.8098 59.5101 54.7198 59.4801C54.6698 59.4601 54.6298 59.4601 54.5798 59.4501C54.5498 59.4401 54.5398 59.4201 54.5098 59.4001C54.4598 59.3701 54.3998 59.3601 54.3498 59.3401C54.2798 59.2401 54.2298 59.1201 54.1598 59.0201C54.0998 58.9401 54.0298 58.8901 53.9698 58.8101C53.7698 57.2001 52.8198 55.8301 51.4798 55.0701C52.7898 54.3201 53.7298 53.0001 53.9498 51.4401C54.0198 51.3101 54.0898 51.1801 54.1498 51.0401C54.1898 50.9401 54.2098 50.8301 54.2398 50.7301C54.4198 50.6701 54.5998 50.5901 54.7698 50.5101C55.2898 50.2601 55.7198 49.9201 56.1098 49.5401C58.5598 49.2301 60.4798 47.1601 60.4798 44.6101C60.4798 41.8501 58.2498 39.6101 55.4898 39.6001C54.0998 39.6001 52.8498 40.1701 51.9398 41.0801C51.4298 41.1501 50.9098 41.2701 50.4198 41.5101C49.1398 42.1301 48.2498 43.2201 47.8498 44.4801C46.5498 44.9401 45.4398 45.9201 44.8798 47.2901C44.8398 47.4001 44.8198 47.5101 44.7798 47.6301C44.6898 47.7901 44.5998 47.9501 44.5298 48.1201C44.3198 48.6601 44.0098 49.5501 44.0098 50.7401C44.0098 52.6101 45.0498 54.2301 46.5798 55.0801C45.0698 55.9401 44.0398 57.5501 44.0398 59.4301C44.0398 60.6401 44.4998 61.7401 45.2198 62.6101C45.3198 63.4601 45.6198 64.2901 46.1698 65.0201C46.6798 65.7001 47.3298 66.2101 48.0498 66.5401C48.5098 67.2501 49.1298 67.8601 49.9398 68.2801C50.1998 68.4201 50.4698 68.5201 50.7498 68.6001C50.9498 68.7101 51.1498 68.8201 51.3698 68.9001H51.3598Z" fill="black"/>
<path d="M87.8298 73.6298C85.1798 73.6298 83.0298 75.6998 82.8598 78.3098C82.7698 78.4198 82.6798 78.5198 82.5998 78.6498C82.5298 78.7598 82.4998 78.8698 82.4398 78.9798C82.2698 79.0198 82.1098 79.0398 81.9398 79.0898C81.3398 79.2898 80.8198 79.5898 80.3598 79.9698C78.4998 80.2998 76.8998 81.6698 76.3998 83.6198C76.2598 84.1498 76.2398 84.6798 76.2698 85.1998C76.2598 85.3498 76.2298 85.4898 76.2298 85.6398C76.2298 86.7498 76.6098 87.7698 77.2198 88.5998C76.6398 89.3798 76.2898 90.3398 76.2498 91.3798C76.1598 91.4998 76.0698 91.5998 75.9898 91.7298C75.9398 91.8098 75.9198 91.8898 75.8798 91.9698C75.6598 92.0198 75.4298 92.0698 75.2198 92.1498C74.1298 92.2298 73.1298 92.6598 72.3398 93.3398C72.1498 93.4498 71.9698 93.5598 71.7898 93.6898C71.6698 93.5798 71.5398 93.4498 71.4198 93.3598C70.4998 92.6698 69.6798 92.4298 69.1198 92.2998C68.8098 92.2298 68.4998 92.1998 68.1998 92.1898C68.1398 92.1698 68.0798 92.1598 68.0198 92.1398C67.8898 92.0698 67.7598 91.9898 67.6198 91.9298C67.5698 91.9098 67.5198 91.8998 67.4698 91.8898C67.4398 91.8398 67.4198 91.7898 67.3798 91.7398C67.2698 91.5898 67.1298 91.4598 67.0098 91.3198C67.0098 91.1798 67.0498 91.0498 67.0398 90.9198C67.0198 89.7198 66.5598 88.6298 65.8398 87.7798C66.5298 86.9098 66.9598 85.8198 66.9498 84.6198C66.9298 82.9098 66.1098 81.6498 65.4998 81.0198C64.8698 80.3598 64.3498 80.0498 63.9198 79.8198C63.5698 79.6298 63.1998 79.4998 62.8298 79.4098C62.4498 79.2598 62.0498 79.1398 61.6198 79.0798C61.4598 79.0598 61.2998 79.0798 61.1298 79.0698C61.0198 78.9398 60.9198 78.7998 60.7898 78.6798C60.7298 78.6298 60.6698 78.5898 60.6098 78.5398C60.6098 78.5398 60.6098 78.5398 60.6098 78.5298C60.5498 78.2598 60.5098 78.0798 60.4898 77.9898C60.4898 77.9598 60.4698 77.9298 60.4598 77.9098C60.2698 75.3198 58.1298 73.2598 55.4998 73.2598C52.7398 73.2698 50.4998 75.5098 50.5098 78.2698C50.5098 78.6198 50.5498 78.9698 50.6198 79.2998C50.6298 79.5098 50.6398 79.7198 50.6798 79.9398C50.7598 80.3498 50.8398 80.6498 50.8698 80.7898C51.1198 81.8598 51.7098 82.7698 52.4898 83.4398C52.6998 84.3698 53.1798 85.2498 53.9198 85.9498C54.8598 86.8298 56.0398 87.2798 57.2298 87.3098C57.4598 87.5798 57.7298 87.8198 58.0198 88.0298C57.3898 88.8798 57.0198 89.9198 57.0298 91.0498C57.0498 92.3398 57.5598 93.4898 58.3698 94.3698C58.2898 95.4998 58.5798 96.6698 59.2998 97.6498C59.9198 98.4798 60.7298 99.0698 61.6298 99.3998C62.1298 100.14 62.8498 100.74 63.7298 101.13C63.7498 101.28 63.7598 101.44 63.7998 101.58C63.7198 101.89 63.6598 102.22 63.6398 102.56C63.6398 102.58 63.6398 102.6 63.6398 102.62C63.5898 102.95 63.5698 103.29 63.5898 103.64C63.6398 104.23 63.6998 105.26 64.6398 106.6C65.5098 107.92 67.4398 108.74 68.6898 108.74C68.7598 108.74 68.8298 108.74 68.8998 108.74C69.9098 108.74 70.8398 108.44 71.6198 107.93C72.4098 108.45 73.3498 108.76 74.3598 108.76C76.4898 108.76 78.2898 107.42 79.0198 105.54C79.4998 104.77 79.7898 103.87 79.7898 102.89C79.7898 102.28 79.6598 101.7 79.4698 101.16C80.3398 100.67 81.0098 99.9598 81.4498 99.1198C82.7398 98.8198 83.8998 98.0098 84.6298 96.7798C85.0598 96.0498 85.2598 95.2598 85.2898 94.4698C85.8798 93.6498 86.2398 92.6498 86.2398 91.5598C86.2398 90.4698 85.8598 89.4298 85.2498 88.5998C85.2898 88.5498 85.3298 88.5098 85.3698 88.4598C86.4998 88.0098 87.3898 87.1898 87.9198 86.1798C89.1898 85.8998 90.3598 85.1398 91.0898 83.9498C91.5498 83.2198 91.7698 82.4198 91.8198 81.6198C92.4498 80.7798 92.8398 79.7498 92.8398 78.6298C92.8398 75.8698 90.5998 73.6298 87.8398 73.6298H87.8298Z" fill="black"/>
<path d="M97.7596 54.9097C98.7796 53.9897 99.4296 52.6797 99.4296 51.1997C99.4296 50.6097 99.3096 50.0397 99.1196 49.5097C99.0996 49.3897 99.0896 49.2697 99.0596 49.1497L98.8796 48.4897C98.7896 48.1397 98.6696 47.7997 98.5096 47.4697C98.4296 47.2997 98.3196 47.1497 98.2196 46.9897C98.1496 46.8797 98.0996 46.7597 98.0096 46.6497L97.9796 46.6097C97.9796 46.6097 97.9796 46.6097 97.9796 46.5997L95.6096 43.4797C95.5596 43.4097 95.4896 43.3597 95.4296 43.2897C95.3496 43.1997 95.2696 43.1197 95.1896 43.0297C95.0296 42.8697 94.8696 42.7197 94.6996 42.5797C94.6596 42.5497 94.6396 42.5097 94.5996 42.4897C94.5396 42.4497 94.4796 42.4197 94.4196 42.3897C94.2396 42.2697 94.0596 42.1597 93.8796 42.0697C93.7596 42.0097 93.6396 41.9597 93.5196 41.9097C93.3496 41.8397 93.1796 41.7797 92.9996 41.7297C92.8596 41.6897 92.7096 41.6597 92.5596 41.6297C92.4396 41.6097 92.3296 41.5797 92.2096 41.5697C91.3596 40.0297 89.7396 38.9697 87.8496 38.9697C85.0896 38.9697 82.8496 41.2097 82.8496 43.9697C82.8496 44.4697 82.9496 44.9397 83.0796 45.3997C83.1296 46.5097 83.5196 47.6197 84.3196 48.5097C85.3096 49.6197 86.6796 50.1797 88.0596 50.1797C88.0796 50.1797 88.0996 50.1797 88.1296 50.1797L89.5096 51.9897C89.5096 51.9897 89.5296 52.0497 89.5396 52.0797C89.7396 53.1997 90.3096 54.1897 91.1196 54.9197C90.0996 55.8397 89.4496 57.1497 89.4496 58.6297C89.4496 58.7097 89.4696 58.7897 89.4696 58.8697C89.2896 59.0097 89.0996 59.1497 88.9396 59.3197C88.8896 59.3697 88.8596 59.4297 88.8096 59.4897C88.7496 59.5097 88.6796 59.5097 88.6196 59.5297C88.2796 59.6397 87.9696 59.7897 87.6696 59.9597C86.3096 60.0397 84.9796 60.6497 84.0596 61.7997C83.3296 62.7097 82.9896 63.7997 82.9796 64.8797C82.8996 65.2297 82.8496 65.5997 82.8496 65.9697C82.8496 68.7397 85.0896 70.9697 87.8496 70.9697H87.8596C89.4696 70.9697 90.8896 70.1997 91.7996 69.0097C92.6496 68.7197 93.3596 68.2097 93.9196 67.5797C94.7296 67.3397 95.4996 66.9197 96.1296 66.2697C97.1296 65.2297 97.5796 63.8797 97.5196 62.5497C98.6896 61.6297 99.4496 60.2197 99.4496 58.6297C99.4496 57.1497 98.7996 55.8297 97.7796 54.9197L97.7596 54.9097Z" fill="black"/>
<path d="M61.71 60.02C64.4714 60.02 66.71 57.7814 66.71 55.02C66.71 52.2586 64.4714 50.02 61.71 50.02C58.9485 50.02 56.71 52.2586 56.71 55.02C56.71 57.7814 58.9485 60.02 61.71 60.02Z" fill="black"/>
<path d="M71.6699 50.1099C74.4313 50.1099 76.6699 47.8713 76.6699 45.1099C76.6699 42.3484 74.4313 40.1099 71.6699 40.1099C68.9085 40.1099 66.6699 42.3484 66.6699 45.1099C66.6699 47.8713 68.9085 50.1099 71.6699 50.1099Z" fill="black"/>
<path d="M81.6201 60.02C84.3815 60.02 86.6201 57.7814 86.6201 55.02C86.6201 52.2586 84.3815 50.02 81.6201 50.02C78.8587 50.02 76.6201 52.2586 76.6201 55.02C76.6201 57.7814 78.8587 60.02 81.6201 60.02Z" fill="black"/>
<path d="M71.6699 69.9302C74.4299 69.9302 76.6699 67.7002 76.6699 64.9302C76.6699 62.1602 74.4299 59.9302 71.6699 59.9302C68.9099 59.9302 66.6699 62.1702 66.6699 64.9302C66.6699 67.6902 68.9099 69.9302 71.6699 69.9302Z" fill="black"/>
</g>
<defs>
<clipPath id="clip0_2547_7266">
<rect width="99.43" height="108.76" fill="white"/>
</clipPath>
</defs>
</svg>
