<svg width="103" height="121" viewBox="0 0 103 121" fill="none" xmlns="http://www.w3.org/2000/svg">
<g clip-path="url(#clip0_2550_3956)">
<path d="M96.8701 86.45C96.9201 87.31 97.3701 87.71 97.9901 88.29L101.07 91.18C101.42 91.51 102.01 91.99 101.97 92.43L99.2301 95.27L96.9401 97.7L86.4101 87.22C86.1801 86.98 85.7901 86.64 85.6701 86.41C85.5501 86.15 86.0301 85.6 86.3001 85.38C87.3901 84.47 88.2801 83.61 89.2901 82.6C89.9101 81.98 90.9601 81.21 90.7801 80.13L85.7701 75.05C85.1501 74.42 86.0701 73.83 86.3701 73.54L89.8101 70.26C90.4101 69.7 91.3701 68.74 90.3901 67.77L86.3801 63.85C86.1701 63.64 85.5701 63.32 85.6301 63.06C85.6901 62.8 86.0201 62.39 86.2501 62.17L89.5501 59.02C90.1301 58.46 90.8601 58.18 90.7801 57.34C90.6801 56.41 90.0901 56.07 89.4601 55.47L86.0301 52.25C85.8001 52.03 85.4501 51.61 85.4201 51.35C85.3901 51.1 85.9101 50.79 86.1501 50.56L89.4601 47.47C90.0801 46.88 90.7701 46.75 90.7901 45.84C90.8101 44.94 90.2601 44.62 89.6601 44.02L81.3001 35.67C80.7001 35.08 80.4501 34.39 79.5601 34.41C78.7601 34.44 78.4201 35.04 77.8401 35.66L74.4001 39.24C74.0401 39.62 73.3901 39.6 73.1101 39.27L69.8701 35.74C69.3901 35.21 68.3101 33.96 67.3701 34.64C65.4101 36.05 64.2301 38.21 62.2601 39.74L58.5001 36.09C57.9201 35.52 57.2801 34.24 56.2601 34.34C55.4001 34.42 54.7301 35.55 54.1801 36.08L52.8801 37.36L50.8301 39.17C50.4801 39.64 50.6601 40.87 51.0601 41.26L55.0501 45.03L55.6901 45.54C55.8701 45.67 55.7801 46.35 55.5901 46.53L51.6701 50.33C51.1601 50.82 50.5601 51.37 50.5601 52.03C50.5601 52.75 51.2801 53.17 51.7801 53.64L55.6101 57.23C56.3201 57.91 54.9501 58.74 54.5001 59.16C53.2801 60.29 52.0401 61.52 50.9401 62.69C50.0201 63.7 51.2701 64.68 51.8701 65.23C53.3601 66.58 54.5801 67.85 55.9801 69.32L52.1201 73.09C51.3901 73.8 50.2201 74.29 50.8001 75.66C51.0501 76.25 52.0801 76.85 52.6001 77.37L56.0101 80.83L51.4101 85.25C50.8701 85.78 50.6001 86.01 50.6701 87C50.7101 87.51 51.3501 87.97 51.8801 88.45L55.1501 91.39C55.4301 91.64 55.8701 92.16 55.8301 92.45C55.7801 92.75 55.2601 93.13 54.9901 93.39C53.9601 94.38 53.0101 95.34 52.0101 96.39C51.6401 96.79 51.1201 97.47 50.4901 97.48L43.8601 90.91L39.9101 87.01C39.1001 86.21 40.2401 85.33 40.8001 84.78L41.9701 83.61C43.3901 82.2 44.6301 81.67 44.5801 80.17L39.4801 74.98C39.4501 74.29 40.2801 73.65 40.7201 73.2L41.9701 71.91L44.2601 69.64C45.1801 68.74 43.9701 67.54 43.3301 66.94L39.8601 63.73C39.6701 63.56 39.3501 62.92 39.5201 62.72C39.7101 62.51 40.0201 62.21 40.2801 61.96L43.4601 58.92C43.9801 58.43 44.5501 58.04 44.5401 57.38C44.5401 56.46 44.0101 56.13 43.4301 55.55L39.4701 51.64C39.4701 51.15 40.0201 50.73 40.3901 50.39L43.5701 47.36C44.0601 46.89 44.5201 46.52 44.5601 45.89C44.6101 45.07 44.1201 44.7 43.5701 44.17L40.2601 41.04C39.9901 40.78 39.5701 40.42 39.4701 40.1C39.3601 39.78 40.0501 39.3 40.2801 39.04C41.4101 37.75 42.4101 36.65 43.7601 35.6C44.0901 35.34 44.4801 34.73 44.5301 34.37C44.5901 33.96 44.2501 33.15 43.9001 32.87C42.2001 31.44 40.7901 30.14 39.3301 28.38L44.5801 23.08C46.0201 24.42 47.2801 25.65 48.5401 27.05C49.0301 27.6 49.4701 28.09 50.2401 28.22C50.8901 28.34 51.4001 27.71 51.8901 27.19L55.7601 23.18C56.7501 23.44 57.2301 24.25 57.8301 24.9L59.9901 27.16C60.4001 27.59 61.3201 28.33 61.9501 28.26C62.9401 28.16 63.4401 27.05 64.0701 26.48C64.9101 25.7 65.8801 24.87 66.5901 23.97C66.8201 23.68 67.6101 23.06 67.8701 23.31L72.6601 28.05C73.0301 28.42 73.8801 28.32 74.2401 27.94L79.1001 23.04L91.8801 35.88L101.17 45.23L101.87 45.83C102.05 45.98 101.82 46.56 101.64 46.73L98.2401 50.03C97.6801 50.57 97.0001 51.16 96.9301 51.84C96.8101 52.87 97.6001 53.31 98.2401 53.91L101.33 56.81C101.58 57.04 102.08 57.73 101.74 58.07C100.62 59.22 99.6301 60.23 98.4701 61.27C97.7301 61.95 97.0601 62.59 96.6901 63.55C97.0901 64.1 97.4101 64.58 97.7501 64.91L100.31 67.4L102.17 69.26C101.77 69.77 101.12 70.29 100.63 70.76L97.8201 73.48C97.4301 73.85 96.9201 74.38 96.9101 74.8C96.9101 75.26 97.2301 76.01 97.5901 76.31C98.8901 77.39 101.08 79.44 102.12 80.84C100.71 82.31 99.5401 83.5 98.1401 84.81C97.5401 85.37 96.8501 85.64 96.8901 86.5" fill="#90BEFA"/>
<path d="M33.46 34.08L28.99 38.69C28.74 38.95 28.39 39.36 28.1 39.35C27.87 39.35 27.55 39 27.32 38.76L16.71 28.12L20.06 24.73C20.66 24.12 21.17 23.51 21.77 22.99H22.46L33.45 34.08H33.46Z" fill="#90BEFA"/>
<path d="M33.46 11.09L28.99 15.7C28.74 15.96 28.39 16.37 28.1 16.36C27.87 16.36 27.55 16.01 27.32 15.77L16.71 5.13L20.06 1.74C20.66 1.13 21.17 0.52 21.77 0H22.46L33.45 11.09H33.46Z" fill="#90BEFA"/>
<path d="M28.4103 110.18C29.6803 111.63 30.9103 113.09 32.4403 114.24L33.1903 114.81C33.3703 114.94 33.2403 115.59 33.0703 115.77L29.2703 119.74C29.0403 119.98 28.7103 120.27 28.5003 120.36C28.2403 120.47 27.7903 120.02 27.4903 119.73L21.1003 113.35C19.7503 112 18.4603 110.69 16.9703 109.41C16.9403 108.96 17.5003 108.49 17.8603 108.15L20.9503 105.25C21.3903 104.84 21.9403 104.43 22.1003 103.98C22.4103 103.16 22.0803 102.68 21.5303 102.17L17.9703 98.82C17.5703 98.45 17.0803 98.11 16.8103 97.56L20.7003 93.79C21.2303 93.28 22.7403 92.46 22.1003 91.42C20.9603 89.68 18.9203 88.03 17.5103 86.8C17.2703 86.59 17.0403 85.97 17.1103 85.75C17.2103 85.49 17.5703 85.25 17.8703 84.96L20.7303 82.26C21.2503 81.77 22.7603 80.93 22.1303 79.89C21.2203 78.4 18.0403 76.17 16.7903 74.38L19.9303 71.4C20.5803 70.79 21.3803 70 21.9803 69.36C22.9203 68.37 21.4203 67.22 20.8403 66.65L16.7803 62.71L19.6003 60.05C20.3103 59.38 20.7803 58.75 21.7003 58.19C22.0703 57.96 22.3403 57.15 22.2103 56.66C22.1003 56.2 21.5003 55.75 21.0703 55.34L17.5303 52C17.3203 51.8 16.9203 51.52 16.8903 51.3C16.8503 51.04 17.2503 50.63 17.4903 50.4L22.1103 45.97L32.8503 56.64C33.2803 57.07 33.4103 57.62 32.9803 58.04L28.6203 62.39C27.7003 63.31 28.9803 64.46 29.5303 64.98L32.0203 67.36C32.5303 67.85 33.2203 68.36 33.3503 69.11C32.1103 70.37 30.9703 71.56 29.6903 72.68C28.9003 73.36 27.6603 74.45 28.6503 75.56C29.9003 76.95 31.2803 78.29 32.6403 79.61C32.9003 79.87 33.3303 80.21 33.3203 80.48C33.3203 80.88 32.8903 81.22 32.5503 81.52C31.1503 82.77 29.7703 84.12 28.5403 85.5C27.8403 86.3 28.9203 87.39 29.3703 87.86L32.5503 91.19C32.8803 91.53 33.2303 91.89 33.5503 92.35L29.7003 96.11C29.0303 96.77 28.2903 96.91 28.3503 97.95C28.4003 98.86 28.9203 99.23 29.5903 99.88L32.7803 102.92C33.0003 103.14 33.3803 103.81 33.3003 104.1C33.2003 104.4 32.7603 104.73 32.4503 105.03L29.4003 107.99C28.9303 108.45 27.7603 109.46 28.4003 110.19" fill="#90BEFA"/>
<path d="M11.63 95.3699C12.9 96.8199 14.13 98.2799 15.66 99.4299L16.41 99.9999C16.59 100.13 16.46 100.78 16.3 100.96L12.5 104.93C12.27 105.17 11.94 105.46 11.73 105.55C11.47 105.66 11.02 105.21 10.72 104.92L4.33 98.5499C2.98 97.1999 1.7 95.8899 0.2 94.6099C0.17 94.1599 0.73 93.6899 1.09 93.3499L4.18 90.4499C4.62 90.0399 5.17 89.6299 5.33 89.1899C5.64 88.3699 5.31 87.8899 4.76 87.3799L1.2 84.0299C0.8 83.6599 0.31 83.3199 0.04 82.7699L3.93 78.9999C4.46 78.4899 5.97 77.6699 5.33 76.6299C4.19 74.8899 2.15 73.2399 0.74 72.0099C0.5 71.7999 0.27 71.1899 0.34 70.9699C0.44 70.7099 0.8 70.4699 1.1 70.1799L3.96 67.4799C4.48 66.9899 5.99 66.1499 5.36 65.1099C4.45 63.6199 1.27 61.3899 0.02 59.5999L3.16 56.6199C3.81 56.0099 4.61 55.2199 5.21 54.5799C6.15 53.5899 4.65 52.4399 4.07 51.8699L0 47.9299L2.82 45.2799C3.53 44.6099 4 43.9799 4.92 43.4199C5.29 43.1899 5.56 42.3799 5.43 41.8899C5.32 41.4299 4.72 40.9799 4.29 40.5699L0.75 37.2199C0.54 37.0199 0.14 36.7399 0.11 36.5199C0.07 36.2599 0.47 35.8499 0.71 35.6199L5.33 31.1899L16.08 41.8599C16.51 42.2899 16.64 42.8399 16.21 43.2599L11.85 47.6099C10.93 48.5299 12.21 49.6799 12.76 50.1999L15.25 52.5799C15.76 53.0699 16.45 53.5799 16.58 54.3299C15.34 55.5899 14.2 56.7799 12.92 57.8999C12.13 58.5799 10.89 59.6699 11.87 60.7799C13.12 62.1699 14.5 63.5099 15.86 64.8199C16.12 65.0799 16.55 65.4199 16.54 65.6899C16.54 66.0899 16.11 66.4299 15.77 66.7299C14.37 67.9799 12.99 69.3299 11.76 70.7099C11.06 71.5099 12.14 72.5999 12.59 73.0699L15.77 76.3999C16.1 76.7299 16.45 77.0999 16.77 77.5599L12.92 81.3199C12.25 81.9799 11.51 82.1199 11.57 83.1599C11.62 84.0699 12.15 84.4399 12.81 85.0899L16 88.1299C16.22 88.3499 16.6 89.0199 16.52 89.3099C16.42 89.6099 15.98 89.9399 15.67 90.2399L12.62 93.1999C12.15 93.6599 10.98 94.6699 11.62 95.3999" fill="#90BEFA"/>
</g>
<defs>
<clipPath id="clip0_2550_3956">
<rect width="102.15" height="120.38" fill="white"/>
</clipPath>
</defs>
</svg>
