<svg width="664" height="293" viewBox="0 0 664 293" fill="none" xmlns="http://www.w3.org/2000/svg">
<g clip-path="url(#clip0_2561_7712)">
<mask id="mask0_2561_7712" style="mask-type:luminance" maskUnits="userSpaceOnUse" x="0" y="0" width="664" height="293">
<path d="M663.04 0H0V292.25H663.04V0Z" fill="white"/>
</mask>
<g mask="url(#mask0_2561_7712)">
<path d="M287.37 170.941C288.38 172.961 290.65 174.531 291.9 176.491L293.14 178.441C295.85 182.691 295.39 188.011 291.73 191.661C294.08 194.491 294.89 197.351 296.6 199.311L306.39 210.611C308.62 213.191 309.61 216.431 310.02 219.771C310.66 225.221 306.75 228.101 306.98 228.371L307.8 229.281C310.02 231.721 312.17 234.141 314.2 236.681C316.03 238.971 316.96 241.421 317.71 244.231C318.51 247.201 318.21 250.601 316.09 253.051C315.61 253.601 315.18 254.101 315.16 254.671L312.28 257.181C311.53 257.181 310.89 257.841 310.04 258.231C308.86 258.781 307.24 259.121 305.87 259.281C303.19 259.601 296.85 256.311 295.22 254.481L287.15 245.341C284.84 247.521 280.41 248.121 277.6 247.051C274.92 246.041 273.82 245.661 271.35 244.061L258.56 229.501C258.21 229.121 257.06 228.741 256.52 228.461C256.71 229.241 257.06 230.361 257.56 230.921L268.26 243.361C272.09 247.811 274.26 256.851 268.95 261.071L277.05 270.591C278.72 272.571 279.25 275.211 279.88 277.641C280.61 280.381 280.13 283.511 278.4 285.811C277.9 286.471 277.18 286.931 277.25 287.641L274.37 290.151C273.73 290.251 273.16 290.611 272.36 291.021C270.8 291.811 268.55 292.481 266.73 292.161C264.14 291.721 258.96 289.351 257.42 287.621L249.24 278.351C244.98 282.701 235.76 279.371 233.55 276.911L220.87 262.791L217.81 260.861L215.23 258.101C210.67 261.651 205.01 260.871 200.89 257.051C198.99 255.281 197.53 252.791 195.46 251.221C192.9 249.291 190.44 247.721 188.9 244.721C185.76 238.641 188.9 231.931 194.58 229.011C199.42 226.531 202.92 227.671 207.58 230.151C208.09 230.421 209.24 231.071 209.6 231.481L218.21 241.251L219.83 240.491C221.39 239.771 223.22 238.781 225.2 239.081C228.03 239.511 231.84 240.291 233.89 242.561L246.78 256.911C247.17 257.351 248.15 257.741 249.01 258.261C248.78 257.011 248.18 256.001 247.32 254.991L236.83 242.861C235.19 240.961 234.72 238.671 234 236.431C231.98 230.181 236.04 226.781 236.43 225.201C236.5 224.941 235.72 224.651 235.54 224.441L229.44 217.311C228.58 216.301 227.98 214.991 227.21 213.811C226.87 213.271 226.69 212.181 226.42 211.541C224.76 207.521 225.15 203.281 227.97 199.751C230.42 196.681 235.04 193.801 239.1 194.671C242.17 195.331 245.71 196.521 247.84 198.921L256.16 208.301L257.76 207.531C259.32 206.761 261.17 205.891 263.11 206.121C266.25 206.481 269.93 207.431 272.1 209.751L275.67 213.591C276.61 214.591 277.4 215.451 278.23 216.511C280.03 218.811 284.19 224.171 286.95 225.311C286.74 224.041 286.12 223.031 285.25 222.011C281.53 217.661 277.67 213.681 274.26 209.141C272.12 206.311 271.43 202.381 271.46 199.101C271.5 195.821 273.58 194.371 274.36 192.231C274.45 191.981 273.63 191.681 273.41 191.401L267.52 184.531C265.28 181.921 263.38 176.831 263.48 173.501C263.63 168.391 267.33 164.201 271.98 162.381C275.05 161.191 278.53 161.671 281.24 163.261C284.39 165.111 285.84 167.831 287.4 170.961" fill="#90BEFB"/>
<path d="M388.21 93.7904L379.77 162.55C378.03 166.53 375.18 169.38 370.9 169.66C370.05 169.72 369.17 169.76 368.51 170L365.88 169.68C365.38 169.35 364.64 169.06 363.92 168.85C359.75 167.56 357.49 164.13 356.74 159.74L364.85 93.6104L349.4 91.7104C349.18 91.6804 348.53 91.2304 348.47 91.4304L348.12 92.4404C347.68 93.9504 347.31 95.6104 346.65 96.9504C344.78 100.76 340.81 103.01 336.55 102.63L329.66 156.41C329.14 160.53 324.49 163.22 321.21 163.53C319.91 163.65 319.37 163.61 318.61 163.88L315.98 163.56C315.95 163.49 315.42 163.11 315.19 163.06C310.6 162.15 307.29 158.34 306.88 153.35L319.8 48.1104C321.37 44.4904 323.82 41.7204 327.62 41.0104C334.63 39.7104 341.68 42.5904 342.85 50.6704L339.31 79.8304C339.74 79.6704 339.96 79.2704 340.03 78.7604C340.75 73.6304 343.28 69.8604 348.48 68.7404C349.24 68.5604 350.65 68.3204 351.4 68.3904C356.85 69.0104 362.17 69.4204 367.42 70.4904C372.24 71.4804 375.56 75.4604 375.77 80.1004C375.83 81.6004 375.83 82.8504 375.79 84.3904C376.99 83.8804 378.2 84.3504 379.38 84.5704C384.08 85.4304 387.36 88.8504 388.18 93.8204" fill="#90BEFB"/>
<path d="M74.9097 188.469L84.9697 252.069C85.1897 253.489 84.9497 255.099 84.8297 256.399C84.4897 259.889 82.2897 262.819 79.0697 264.229C78.1497 264.629 77.0997 264.839 76.3897 265.389L73.7897 265.799C73.6297 265.709 72.9897 265.529 72.6697 265.539C68.7597 265.749 64.9997 263.929 63.1797 260.259C62.6197 259.129 61.8497 257.879 61.5997 256.289C58.3197 235.719 54.7797 213.379 51.6497 193.599C51.5697 193.099 51.3497 192.789 51.2797 192.829L50.6197 193.129L35.2397 195.579C35.6397 198.699 35.6597 201.759 34.1097 204.419C31.8497 208.329 29.4997 208.439 27.2197 209.629C27.0397 209.729 27.5097 210.269 27.5497 210.549L35.2997 259.659C35.4797 260.819 35.2497 262.139 35.2597 263.329C35.3397 267.109 32.9397 270.539 29.4397 272.099C28.5297 272.519 27.4597 272.699 26.7597 273.259L24.1497 273.669C24.0497 273.559 23.6597 273.399 23.1197 273.439C19.0397 273.699 13.4797 271.069 12.6797 266.049L0.0997157 187.029C-0.640284 182.439 2.94972 178.429 6.50972 176.849C12.7997 174.059 20.6797 176.169 22.5697 182.689C22.9497 184.019 23.2197 185.369 23.7997 186.639C23.5097 182.819 23.3597 179.339 25.7997 176.379C27.2697 174.599 29.3597 173.019 31.7897 172.499C36.9097 171.419 41.9897 170.719 47.2897 169.969C48.3897 169.809 50.0297 170.069 51.0597 170.289C56.5497 171.479 58.8697 175.679 59.5297 180.939C65.0197 179.149 71.1897 180.229 73.8097 186.059L74.8997 188.469H74.9097Z" fill="#90BEFB"/>
<path d="M167.78 184.73C166.75 184.9 165.58 185.03 164.78 185.37C159.7 187.53 157.23 193.02 158.93 198.62L141.1 201.44C140.61 199.68 140.31 198.07 139.63 196.64C137.48 192.07 132.73 189.78 127.72 191.1L123.49 164.49C126.66 163.9 129.44 162.41 131.26 159.82C134.93 154.62 131.62 148.94 133.76 150.02L150.69 147.39C151.26 154.57 156.65 158.85 163.56 158.17L167.77 184.75L167.78 184.73ZM185.97 152.33C183.78 147.58 178.87 145.96 173.94 146.54C173.61 144.86 173.5 142.64 172.9 141.07C170.66 135.06 164.17 133.56 158.58 135.31C158.22 133.67 157.84 132.07 157.16 130.47C155.46 126.55 151.29 123.95 146.74 124.38C141.15 124.89 135.72 125.95 130.04 126.9C128.3 127.19 126.37 128.3 125.08 129.36C121.92 131.92 120.67 135.91 121.7 139.75C121.88 140.45 121.42 141.29 120.85 141.29C119.76 141.29 119 141.47 118.06 141.67C110.72 143.21 108.43 149.94 110.04 156.66C105.23 157.37 100.11 162.34 100.65 167.08C101.73 176.42 103.15 185.83 105.1 195.02C106.24 200.42 112.31 203.01 117.04 202.05L118.03 206.21L119 208.48C119.22 209 119.85 210.01 120.28 210.48C123.92 214.34 128.21 214.79 133.48 213.6C133.35 219.27 137.45 223.94 143.1 224.26C143.98 224.31 144.84 224.26 145.51 224.5L161.48 221.97C161.97 221.59 162.69 221.32 163.42 221.09C169.18 219.28 171.08 213.48 169.98 207.81C173.67 207.55 177.27 206.31 179.7 203.33C180.97 201.78 181.9 199.45 181.87 197.36C181.83 195.53 181.35 193.77 181.21 191.93C186.1 191.5 189.94 188.07 190.79 183.19C190.97 182.14 191.14 180.42 190.96 179.27L187.25 155.83C187.08 154.75 186.41 153.28 185.96 152.34" fill="#90BEFB"/>
<path d="M508.06 4.26006C511.09 7.22006 512.01 11.6101 510.49 15.3801C508.11 21.3601 505.71 21.0401 503.32 24.7801L499.2 31.2201C504.81 34.1601 507.48 40.2701 504.2 46.3701L548.45 75.2201C552.45 77.8301 553.76 83.1101 552.04 87.1501C551.66 88.0401 551.44 88.6301 551.37 89.2801L549.93 91.5001C549.3 91.8601 548.77 92.4801 548.11 93.1501C545.57 95.7601 541.59 96.7501 538.1 95.5901L535.49 94.7301L469.95 52.1501C469.37 51.7201 468.57 50.6101 468.13 50.1501C463.7 45.4101 465.46 38.1001 470.02 33.8801C473.06 31.0601 477.49 29.8701 481.28 31.8101L484.74 33.5901C484.69 33.2601 484.41 32.8101 483.92 32.5201C479.17 29.6501 477.14 23.3201 479.95 18.1201C482.49 13.4301 485.57 8.97006 488.67 4.63006C490.12 2.59006 492.52 1.58006 494.65 0.780058C497.28 -0.209942 500.03 -0.349942 502.75 0.810058C504.54 1.56006 506.65 2.88006 508.07 4.25006" fill="#90BEFB"/>
<path d="M608.68 125.76C608.48 124.67 608.39 123.55 608.4 122.58C609.42 122.57 610.01 122.58 610.8 122.46L626.07 120.04L626.66 122.91L608.68 125.76ZM659.99 123.03C657.24 119.71 653.45 118.86 649.33 119.25C649.39 117.9 649.09 116.39 648.73 114.97C647.05 108.33 640.22 105.98 633.87 108.03C633.4 104.59 632.19 101.19 629.33 99.1103C627.4 97.7003 624.68 96.7603 622.1 97.0803C616.21 97.7903 610.26 98.5203 604.59 99.9403C599.94 101.1 596.95 105.11 596.72 109.6C596.65 111.03 597.08 112.32 597.18 113.88C593.13 113.88 588.96 115.47 586.76 118.79C584.91 121.58 584.43 126.22 585.62 129.28C584.98 129.47 584.01 129.67 583.56 129.88L581.81 130.67C578.24 132.27 576.54 135.61 575.76 139.54L580.32 167.26C581.13 172.23 586.52 175.26 591.02 174.92L592.37 174.82C593.08 174.77 592.49 182.42 598.98 185.68C601.99 187.2 605.41 187.04 608.86 186.31C608.74 191.96 612.83 196.64 618.49 196.96C619.37 197.01 620.21 196.96 620.9 197.2L636.86 194.67C640.32 193.09 640.69 193.33 644.07 190.69C648.29 187.39 648.93 181.45 647.08 176.81C646.1 174.37 644.69 172.29 642.18 171.01C635.03 167.38 627.63 172.27 626.75 172.42L616.46 174.11L615.8 171.36C614.73 166.98 611.16 163.68 606.48 163.37C605.5 163.3 604.36 163.58 603.08 163.67L601.07 150.73L654.01 142.25C658.86 141.47 662.3 137.23 662.75 132.74C662.83 131.86 662.83 131.35 663.05 130.82L662.5 127.33C661.01 125.2 662.43 125.93 660.01 123.02" fill="#90BEFB"/>
<path d="M434.86 117.231C434.66 116.291 434.54 115.441 434.46 114.341L451.41 111.631C451.59 111.531 452.01 111.211 452.07 111.351C452.15 111.511 452.3 111.881 452.36 112.061L453.12 114.331L434.86 117.221V117.231ZM476.03 110.611C475.78 109.191 475.57 107.421 475.09 106.061C472.79 99.6309 466.96 97.4109 460.45 99.5209C459.13 96.2109 459.76 94.5909 456.97 91.5909C455.01 89.4909 451.69 88.1709 448.52 88.5209C442.7 89.1609 436.88 90.0009 431.2 91.2709C426.52 92.3309 423.42 96.4209 423.17 100.821C423.08 102.381 423.15 103.831 423.25 105.311C417.23 105.431 411.72 108.951 411.48 115.501C411.42 117.101 411.93 119.121 412.14 120.781C407.29 121.491 403.14 124.961 402.45 129.911C402.36 130.571 402.09 131.921 402.19 132.561L405.93 156.221C406.16 157.701 406.81 159.291 407.4 160.551C409.54 165.071 414.38 167.181 419.25 166.141C419.75 167.981 419.75 169.991 420.38 171.611C422.75 177.651 429.03 179.251 434.83 177.861C435.66 183.191 438.94 187.991 444.63 188.401C445.58 188.461 446.57 188.331 447.32 188.631L463.28 186.101C467.83 184.141 465.52 185.371 469.37 182.881C474.36 179.661 474.98 175.031 473.79 169.581C473.13 166.621 471.41 163.931 468.62 162.501C461.41 158.781 453.93 163.801 452.93 163.961L442.55 165.631L441.66 161.181C439.63 156.441 434.84 153.891 429.81 155.191L427.75 142.161L480.42 133.691C486.51 132.711 489.83 126.751 489.13 121.201C488.22 113.891 483.13 110.181 476.04 110.631" fill="#90BEFB"/>
</g>
</g>
<defs>
<clipPath id="clip0_2561_7712">
<rect width="663.04" height="292.25" fill="white"/>
</clipPath>
</defs>
</svg>
