<svg width="881" height="258" viewBox="0 0 881 258" fill="none" xmlns="http://www.w3.org/2000/svg">
<g clip-path="url(#clip0_2561_5858)">
<mask id="mask0_2561_5858" style="mask-type:luminance" maskUnits="userSpaceOnUse" x="0" y="0" width="881" height="258">
<path d="M880.03 0H0V257.3H880.03V0Z" fill="white"/>
</mask>
<g mask="url(#mask0_2561_5858)">
<path d="M106.69 7.48V203.32L101.66 203.38L101.38 198.83L57.89 155.42L53.49 155.22V54.15L10.18 10.89V203.33L5 203.41V5H9.71L52.5 47.79C54.62 49.91 56.23 51.68 58.66 53.58L58.68 150.56L101.51 193.29V7.48C101.53 6.18 101.76 5.52 102.45 5.01H106.22C106.47 5.62 106.69 6.4 106.69 7.48Z" fill="#90BEFB"/>
<path d="M528.53 102.26L528.51 203.16C526.61 203.41 525.1 203.43 523.35 203.3V106.77L475.05 58.5898L431.54 58.6298V203.18C429.6 203.4 428.11 203.44 426.36 203.32V7.47977C426.36 6.19977 426.64 5.51977 427.3 5.00977H430.6C431.25 5.47977 431.56 6.32977 431.56 7.38977L431.54 53.4498H479.84L480.19 58.5298L523.43 101.71L528.53 102.26Z" fill="#90BEFB"/>
<path d="M384.31 198.78L384.41 203.37L378.87 203.25L378.69 198.81L335.37 155.57L330.78 155.22V58.6H282.52C281.68 56.77 281.93 54.97 282.83 53.44L330.78 53.42V7.36C330.78 6.3 331.07 5.48 331.72 5H335.02C335.59 5.71 335.98 6.71 335.98 7.85L335.94 53.44H383.83C384.69 55.17 384.69 56.87 383.83 58.6H335.96V150.53L384.3 198.77L384.31 198.78Z" fill="#90BEFB"/>
<path d="M581.27 7.3L581.25 27.54C579.56 28.11 578.05 28.17 576.11 27.83L576.05 7.3C576.05 6.61 576.34 5.53 576.54 5H580.31C580.94 5.45 581.27 6.37 581.27 7.3Z" fill="#90BEFB"/>
<path d="M730.97 103.02V203.18C729.03 203.46 727.48 203.49 725.79 203.18L725.81 106.85L679.88 60.9798L633.99 106.79V203.34C632.22 203.42 630.75 203.38 628.81 203.2V102.08L633.4 101.75L677.17 58.0398L677.42 53.5098H682.33L682.62 58.5198L721.17 96.9898L724.27 100.09C727.82 103.64 730.96 100.52 730.96 103.03" fill="#90BEFB"/>
</g>
<path d="M581.25 53.4395H576.07V203.409H581.25V53.4395Z" fill="#90BEFB"/>
<mask id="mask1_2561_5858" style="mask-type:luminance" maskUnits="userSpaceOnUse" x="0" y="0" width="881" height="258">
<path d="M880.03 0H0V257.3H880.03V0Z" fill="white"/>
</mask>
<g mask="url(#mask1_2561_5858)">
<path d="M822.11 150.32L778.28 106.57L823.93 60.9805L869.82 106.75L869.86 150.2L822.11 150.32ZM875.01 101.94L870.44 101.74L826.65 58.0105L826.4 53.4805L821.43 53.6005L821.21 58.5305L779.15 100.53C777.56 102.12 775.68 101.47 773.83 102.18C771.93 102.89 772.67 107.58 774.79 108.46L821.84 155.47H869.83L869.89 198.89L824.59 244.17C823.43 245.27 821.96 247 820.47 247.13L773.42 247.15C772.5 248.98 772.69 251.25 773.95 252.31L826.29 252.29L826.64 247.27L870.43 203.54L875.02 203.19L875 101.95L875.01 101.94Z" fill="#90BEFB"/>
<path d="M251.67 150.09L205.57 196.13L159.9 150.54V106.3L173.74 92.6399L185.04 81.3699L198.19 68.2199L205.61 60.9999L251.71 107.1L251.67 150.08V150.09ZM251.08 101.02L208.27 58.2699C207.98 56.7199 207.9 55.1499 207.82 53.4199L203.15 53.4799C202.8 54.9299 202.72 56.4799 202.82 58.2899L159.8 101.25C158.39 102.64 154.23 100.64 154.25 103.76V153.45C154.25 154.75 155.56 155.47 156.45 155.51L159.33 155.59L202.63 198.83L202.89 203.32L207.93 203.4C207.97 201.63 207.66 199.69 208.52 198.81L251.8 155.57L254.68 155.51C255.56 155.49 256.88 154.75 256.88 153.45V103.76C256.88 100.58 252.94 102.86 251.09 101.01" fill="#90BEFB"/>
<path d="M101.69 175.339C101.69 172.569 103.93 170.339 106.69 170.339C109.45 170.339 111.69 172.569 111.69 175.339C111.69 178.099 109.45 180.339 106.69 180.339C103.93 180.339 101.69 178.099 101.69 175.339ZM101.69 147.359C101.69 144.599 103.93 142.359 106.69 142.359C109.45 142.359 111.69 144.599 111.69 147.359C111.69 150.119 109.45 152.359 106.69 152.359C103.93 152.359 101.69 150.119 101.69 147.359ZM101.69 119.379C101.69 116.619 103.93 114.379 106.69 114.379C109.45 114.379 111.69 116.619 111.69 119.379C111.69 122.149 109.45 124.379 106.69 124.379C103.93 124.379 101.69 122.149 101.69 119.379ZM101.69 91.4092C101.69 88.6392 103.93 86.4092 106.69 86.4092C109.45 86.4092 111.69 88.6392 111.69 91.4092C111.69 94.1692 109.45 96.4092 106.69 96.4092C103.93 96.4092 101.69 94.1692 101.69 91.4092ZM101.69 63.4292C101.69 60.6692 103.93 58.4292 106.69 58.4292C109.45 58.4292 111.69 60.6692 111.69 63.4292C111.69 66.1892 109.45 68.4292 106.69 68.4292C103.93 68.4292 101.69 66.1892 101.69 63.4292ZM101.69 35.4492C101.69 32.6892 103.93 30.4492 106.69 30.4492C109.45 30.4492 111.69 32.6892 111.69 35.4492C111.69 38.2092 109.45 40.4492 106.69 40.4492C103.93 40.4492 101.69 38.2092 101.69 35.4492Z" fill="black"/>
<path d="M96.66 203.429C96.63 200.669 98.84 198.409 101.6 198.369C104.36 198.339 106.63 200.549 106.66 203.309C106.7 206.069 104.48 208.339 101.72 208.369H101.66C98.93 208.369 96.7 206.169 96.66 203.429Z" fill="black"/>
<path d="M96.4003 199.12C96.2303 196.36 98.3303 193.99 101.08 193.83C103.84 193.66 106.21 195.76 106.38 198.52C106.54 201.27 104.45 203.64 101.69 203.81C101.59 203.82 101.48 203.82 101.38 203.82C98.7603 203.82 96.5603 201.78 96.4003 199.12Z" fill="black"/>
<path d="M76.1099 180.649C74.1499 178.699 74.1499 175.529 76.0999 173.579C78.0499 171.619 81.2199 171.619 83.1699 173.579C85.1299 175.529 85.1299 178.699 83.1799 180.649C82.1999 181.629 80.9199 182.119 79.6399 182.119C78.3599 182.119 77.0799 181.629 76.1099 180.659V180.649Z" fill="black"/>
<path d="M53.2699 160.2C50.5199 160.08 48.3799 157.75 48.4999 154.99C48.6199 152.23 50.9599 150.09 53.7199 150.21C56.4799 150.34 58.6199 152.67 58.4899 155.43C58.3699 158.11 56.1599 160.21 53.4999 160.21C53.4199 160.21 53.3499 160.21 53.2699 160.21V160.2Z" fill="black"/>
<path d="M48.5 121.52C48.5 118.76 50.73 116.52 53.5 116.52C56.26 116.52 58.5 118.76 58.5 121.52C58.5 124.28 56.26 126.52 53.5 126.52C50.73 126.52 48.5 124.28 48.5 121.52ZM48.5 87.8398C48.5 85.0698 50.73 82.8398 53.5 82.8398C56.26 82.8398 58.5 85.0698 58.5 87.8398C58.5 90.5998 56.26 92.8298 53.5 92.8298C50.73 92.8298 48.5 90.5998 48.5 87.8398Z" fill="black"/>
<path d="M28.3098 36.0601C26.3498 34.1101 26.3498 30.9401 28.3098 28.9801C30.2598 27.0301 33.4298 27.0301 35.3798 28.9801C37.3398 30.9301 37.3398 34.1001 35.3898 36.0501C34.4098 37.0301 33.1298 37.5201 31.8498 37.5201C30.5698 37.5201 29.2898 37.0301 28.3198 36.0601H28.3098Z" fill="black"/>
<path d="M5.18018 171.261C5.18018 168.501 7.42018 166.261 10.1802 166.261C12.9402 166.261 15.1802 168.501 15.1802 171.261C15.1802 174.021 12.9402 176.261 10.1802 176.261C7.42018 176.261 5.18018 174.021 5.18018 171.261ZM5.18018 139.191C5.18018 136.421 7.42018 134.191 10.1802 134.191C12.9402 134.191 15.1802 136.421 15.1802 139.191C15.1802 141.951 12.9402 144.181 10.1802 144.181C7.42018 144.181 5.18018 141.951 5.18018 139.191ZM5.18018 107.111C5.18018 104.351 7.42018 102.111 10.1802 102.111C12.9402 102.111 15.1802 104.351 15.1802 107.111C15.1802 109.871 12.9402 112.111 10.1802 112.111C7.42018 112.111 5.18018 109.871 5.18018 107.111ZM5.18018 75.0409C5.18018 72.2809 7.42018 70.0409 10.1802 70.0409C12.9402 70.0409 15.1802 72.2809 15.1802 75.0409C15.1802 77.8009 12.9402 80.0409 10.1802 80.0409C7.42018 80.0409 5.18018 77.8009 5.18018 75.0409ZM5.18018 42.9609C5.18018 40.2009 7.42018 37.9609 10.1802 37.9609C12.9402 37.9609 15.1802 40.2009 15.1802 42.9609C15.1802 45.7209 12.9402 47.9609 10.1802 47.9609C7.42018 47.9609 5.18018 45.7209 5.18018 42.9609Z" fill="black"/>
<path d="M4.86348e-05 203.491C-0.0399514 200.731 2.16005 198.451 4.92005 198.411C7.68005 198.371 9.96005 200.571 10 203.341C10.04 206.101 7.84005 208.371 5.07005 208.411H5.00005C2.27005 208.411 0.0400486 206.221 4.86348e-05 203.491Z" fill="black"/>
<path d="M0 175.07C0 172.31 2.24 170.07 5 170.07C7.76 170.07 10 172.31 10 175.07C10 177.83 7.76 180.07 5 180.07C2.24 180.07 0 177.83 0 175.07ZM0 146.72C0 143.96 2.24 141.72 5 141.72C7.76 141.72 10 143.96 10 146.72C10 149.49 7.76 151.72 5 151.72C2.24 151.72 0 149.49 0 146.72ZM0 118.38C0 115.62 2.24 113.38 5 113.38C7.76 113.38 10 115.62 10 118.38C10 121.14 7.76 123.38 5 123.38C2.24 123.38 0 121.14 0 118.38ZM0 90.0396C0 87.2696 2.24 85.0296 5 85.0296C7.76 85.0296 10 87.2696 10 90.0396C10 92.7996 7.76 95.0296 5 95.0296C2.24 95.0296 0 92.7996 0 90.0396ZM0 61.6896C0 58.9296 2.24 56.6896 5 56.6896C7.76 56.6896 10 58.9296 10 61.6896C10 64.4496 7.76 66.6896 5 66.6896C2.24 66.6896 0 64.4496 0 61.6896ZM0 33.3496C0 30.5896 2.24 28.3496 5 28.3496C7.76 28.3496 10 30.5896 10 33.3496C10 36.1096 7.76 38.3496 5 38.3496C2.24 38.3496 0 36.1096 0 33.3496Z" fill="black"/>
<path d="M4.70996 5C4.70996 2.24 6.94996 0 9.70996 0C12.47 0 14.71 2.24 14.71 5C14.71 7.76 12.47 10 9.70996 10C6.94996 10 4.70996 7.76 4.70996 5Z" fill="black"/>
<path d="M27.5699 29.9309C25.6199 27.9809 25.6199 24.8109 27.5699 22.8609C29.5199 20.9109 32.6899 20.9109 34.6399 22.8609C36.5899 24.8109 36.5899 27.9809 34.6399 29.9309C33.6599 30.9109 32.3799 31.4009 31.0999 31.4009C29.8199 31.4009 28.5399 30.9109 27.5699 29.9309Z" fill="black"/>
<path d="M55.5802 57.5201C53.4002 55.8101 53.0202 52.6701 54.7202 50.5001C56.4202 48.3201 59.5602 47.9401 61.7402 49.6401C63.9102 51.3401 64.3002 54.4901 62.6002 56.6601C61.6102 57.9201 60.1402 58.5801 58.6602 58.5801C57.5802 58.5801 56.4902 58.2301 55.5802 57.5201Z" fill="black"/>
<path d="M53.6699 118.23C53.6699 115.47 55.9099 113.23 58.6699 113.23C61.4299 113.23 63.6699 115.47 63.6699 118.23C63.6699 120.99 61.4299 123.23 58.6699 123.23C55.9099 123.23 53.6699 120.99 53.6699 118.23ZM53.6699 85.9104C53.6699 83.1404 55.8999 80.9004 58.6599 80.9004C61.4299 80.9004 63.6599 83.1404 63.6699 85.9004C63.6699 88.6604 61.4299 90.9004 58.6699 90.9004C55.8999 90.9004 53.6699 88.6704 53.6699 85.9104Z" fill="black"/>
<path d="M76.56 175.46C74.61 173.51 74.6 170.34 76.56 168.39C78.51 166.43 81.68 166.43 83.63 168.39C85.59 170.34 85.59 173.51 83.63 175.46C82.65 176.44 81.37 176.93 80.09 176.93C78.81 176.93 77.54 176.44 76.56 175.47V175.46Z" fill="black"/>
<path d="M96.5 162.319C96.5 159.559 98.74 157.319 101.5 157.319C104.26 157.319 106.5 159.559 106.5 162.319C106.5 165.079 104.26 167.319 101.5 167.319C98.74 167.319 96.5 165.079 96.5 162.319ZM96.5 131.349C96.5 128.589 98.74 126.349 101.5 126.349C104.26 126.349 106.5 128.589 106.5 131.349C106.5 134.109 104.26 136.349 101.5 136.349C98.74 136.349 96.5 134.109 96.5 131.349ZM96.5 100.379C96.5 97.6195 98.74 95.3795 101.5 95.3795C104.26 95.3795 106.5 97.6195 106.5 100.379C106.5 103.139 104.26 105.379 101.5 105.379C98.74 105.379 96.5 103.139 96.5 100.379ZM96.5 69.4095C96.5 66.6495 98.74 64.4095 101.5 64.4095C104.26 64.4095 106.5 66.6495 106.5 69.4095C106.5 72.1695 104.26 74.4095 101.5 74.4095C98.74 74.4095 96.5 72.1695 96.5 69.4095ZM96.5 38.4395C96.5 35.6795 98.74 33.4395 101.5 33.4395C104.26 33.4395 106.5 35.6795 106.5 38.4395C106.5 41.2095 104.26 43.4395 101.5 43.4395C98.74 43.4395 96.5 41.2095 96.5 38.4395Z" fill="black"/>
<path d="M98.4401 7.98972C96.7901 5.76972 97.2501 2.63972 99.4601 0.989723C101.68 -0.660277 104.81 -0.200277 106.46 2.01972C108.11 4.22972 107.65 7.36972 105.43 9.00972C104.53 9.67972 103.49 9.99972 102.45 9.99972C100.92 9.99972 99.4201 9.29972 98.4401 7.98972Z" fill="black"/>
<path d="M101.22 5C101.22 2.24 103.45 0 106.21 0C108.98 0 111.22 2.24 111.22 5C111.22 7.76 108.98 10 106.21 10C103.45 10 101.22 7.76 101.22 5Z" fill="black"/>
<path d="M101.69 7.4707C101.69 4.7107 103.93 2.4707 106.69 2.4707C109.45 2.4707 111.69 4.7107 111.69 7.4707C111.69 10.2407 109.45 12.4707 106.69 12.4707C103.93 12.4707 101.69 10.2407 101.69 7.4707Z" fill="black"/>
<path d="M523.52 169.521C523.52 166.761 525.76 164.521 528.52 164.521C531.28 164.521 533.52 166.761 533.52 169.521C533.52 172.281 531.28 174.521 528.52 174.521C525.76 174.521 523.52 172.281 523.52 169.521ZM523.53 135.891C523.53 133.121 525.76 130.891 528.53 130.891C531.29 130.891 533.52 133.131 533.52 135.891C533.52 138.651 531.29 140.891 528.52 140.891C525.76 140.891 523.53 138.651 523.53 135.891Z" fill="black"/>
<path d="M522.96 208.281C520.21 208.061 518.15 205.651 518.36 202.901C518.58 200.151 520.99 198.091 523.74 198.311C526.49 198.531 528.55 200.931 528.34 203.681C528.13 206.301 525.94 208.291 523.36 208.291C523.23 208.291 523.09 208.291 522.96 208.291V208.281Z" fill="black"/>
<path d="M518.35 171.119C518.35 168.359 520.59 166.119 523.35 166.119C526.11 166.119 528.35 168.359 528.35 171.119C528.35 173.879 526.11 176.119 523.35 176.119C520.59 176.119 518.35 173.879 518.35 171.119ZM518.35 138.939C518.35 136.179 520.59 133.939 523.35 133.939C526.11 133.939 528.35 136.179 528.35 138.939C528.35 141.709 526.11 143.939 523.35 143.939C520.59 143.939 518.35 141.709 518.35 138.939Z" fill="black"/>
<path d="M495.67 86.2201C493.71 84.2701 493.71 81.1001 495.66 79.1401C497.61 77.1901 500.77 77.1801 502.73 79.1401C504.68 81.0901 504.69 84.2501 502.74 86.2101C501.76 87.1801 500.48 87.6801 499.2 87.6801C497.92 87.6801 496.64 87.1901 495.67 86.2201Z" fill="black"/>
<path d="M426.53 58.6291C426.53 55.8691 428.77 53.6191 431.53 53.6191C434.29 53.6191 436.53 55.8591 436.53 58.6191C436.54 61.3791 434.3 63.6191 431.54 63.6191C428.78 63.6191 426.54 61.3891 426.53 58.6291Z" fill="black"/>
<path d="M426.53 174.269C426.53 171.509 428.77 169.269 431.53 169.269C434.3 169.269 436.53 171.509 436.53 174.269C436.53 177.029 434.3 179.269 431.53 179.269C428.77 179.269 426.53 177.029 426.53 174.269ZM426.53 145.359C426.53 142.589 428.77 140.359 431.53 140.359C434.3 140.359 436.53 142.589 436.53 145.359C436.53 148.119 434.3 150.359 431.53 150.359C428.77 150.359 426.53 148.119 426.53 145.359ZM426.53 116.439C426.53 113.679 428.77 111.439 431.53 111.439C434.3 111.439 436.53 113.679 436.53 116.439C436.53 119.209 434.3 121.439 431.53 121.439C428.77 121.439 426.53 119.209 426.53 116.439ZM426.53 87.5293C426.53 84.7693 428.77 82.5293 431.53 82.5293C434.3 82.5293 436.53 84.7693 436.53 87.5293C436.53 90.2993 434.3 92.5293 431.53 92.5293C428.77 92.5293 426.53 90.2993 426.53 87.5293Z" fill="black"/>
<path d="M426.02 208.3C423.26 208.12 421.18 205.73 421.37 202.98C421.55 200.22 423.93 198.14 426.69 198.33C429.44 198.51 431.53 200.9 431.34 203.65C431.16 206.29 428.97 208.31 426.36 208.31C426.24 208.31 426.13 208.31 426.02 208.31V208.3Z" fill="black"/>
<path d="M421.35 175.339C421.35 172.569 423.59 170.339 426.35 170.339C429.11 170.339 431.35 172.569 431.35 175.339C431.35 178.099 429.11 180.339 426.35 180.339C423.59 180.339 421.35 178.099 421.35 175.339ZM421.35 147.359C421.35 144.599 423.59 142.359 426.35 142.359C429.11 142.359 431.35 144.599 431.35 147.359C431.35 150.119 429.11 152.359 426.35 152.359C423.59 152.359 421.35 150.119 421.35 147.359ZM421.35 119.379C421.35 116.619 423.59 114.379 426.35 114.379C429.11 114.379 431.35 116.619 431.35 119.379C431.35 122.149 429.11 124.379 426.35 124.379C423.59 124.379 421.35 122.149 421.35 119.379ZM421.35 91.4092C421.35 88.6392 423.59 86.4092 426.35 86.4092C429.11 86.4092 431.35 88.6392 431.35 91.4092C431.35 94.1692 429.11 96.4092 426.35 96.4092C423.59 96.4092 421.35 94.1692 421.35 91.4092ZM421.35 63.4292C421.35 60.6692 423.59 58.4292 426.35 58.4292C429.11 58.4292 431.35 60.6692 431.35 63.4292C431.35 66.1892 429.11 68.4292 426.35 68.4292C423.59 68.4292 421.35 66.1892 421.35 63.4292ZM421.35 35.4492C421.35 32.6892 423.59 30.4492 426.35 30.4492C429.11 30.4492 431.35 32.6892 431.35 35.4492C431.35 38.2092 429.11 40.4492 426.35 40.4492C423.59 40.4492 421.35 38.2092 421.35 35.4492Z" fill="black"/>
<path d="M423.33 8.04018C421.65 5.85018 422.06 2.72018 424.25 1.03018C426.44 -0.649817 429.58 -0.229817 431.26 1.96018C432.94 4.15018 432.53 7.29018 430.34 8.97018C429.43 9.67018 428.36 10.0002 427.3 10.0002C425.8 10.0002 424.31 9.33018 423.33 8.04018Z" fill="black"/>
<path d="M425.59 5C425.59 2.24 427.83 0 430.59 0C433.35 0 435.59 2.24 435.59 5C435.59 7.76 433.35 10 430.59 10C427.83 10 425.59 7.76 425.59 5Z" fill="black"/>
<path d="M426.55 7.38086C426.55 4.61086 428.79 2.38086 431.55 2.38086C434.32 2.38086 436.55 4.61086 436.55 7.38086C436.55 10.1409 434.32 12.3809 431.55 12.3809C428.79 12.3809 426.55 10.1409 426.55 7.38086Z" fill="black"/>
<path d="M426.55 30.4102C426.55 27.6402 428.79 25.4102 431.55 25.4102C434.31 25.4102 436.55 27.6502 436.54 30.4102C436.54 33.1702 434.3 35.4102 431.54 35.4102C428.78 35.4102 426.54 33.1702 426.55 30.4102Z" fill="black"/>
<path d="M450.68 53.4395C450.68 50.6795 452.92 48.4395 455.69 48.4395C458.45 48.4395 460.68 50.6795 460.68 53.4395C460.68 56.1995 458.45 58.4395 455.69 58.4395C452.92 58.4395 450.68 56.1995 450.68 53.4395Z" fill="black"/>
<path d="M475.2 58.8706C475.01 56.1206 477.09 53.7306 479.84 53.5406C482.6 53.3406 484.99 55.4206 485.18 58.1806C485.37 60.9306 483.29 63.3206 480.54 63.5106C480.42 63.5206 480.3 63.5306 480.19 63.5306C477.58 63.5306 475.38 61.5106 475.2 58.8706Z" fill="black"/>
<path d="M498.28 83.6497C496.32 81.6997 496.32 78.5297 498.27 76.5797C500.22 74.6297 503.39 74.6297 505.34 76.5797C507.3 78.5397 507.3 81.6997 505.35 83.6597C504.37 84.6297 503.09 85.1197 501.81 85.1197C500.53 85.1197 499.25 84.6397 498.28 83.6597V83.6497Z" fill="black"/>
<path d="M528 107.22C525.25 106.93 523.26 104.46 523.56 101.72C523.86 98.9701 526.32 96.9901 529.07 97.2801C531.81 97.5801 533.8 100.04 533.5 102.79C533.23 105.35 531.06 107.25 528.54 107.25C528.36 107.25 528.18 107.25 528 107.22Z" fill="black"/>
<path d="M379.41 203.48C379.35 200.72 381.54 198.43 384.3 198.37C387.06 198.31 389.35 200.5 389.41 203.27C389.47 206.03 387.28 208.31 384.52 208.37H384.41C381.7 208.37 379.47 206.2 379.41 203.48Z" fill="black"/>
<path d="M378.77 208.251C376.01 208.191 373.82 205.911 373.87 203.151C373.94 200.391 376.22 198.201 378.98 198.261C381.74 198.321 383.93 200.601 383.87 203.361C383.81 206.091 381.59 208.251 378.88 208.251H378.77Z" fill="black"/>
<path d="M373.7 199.02C373.59 196.26 375.74 193.93 378.5 193.82C381.26 193.71 383.58 195.86 383.69 198.62C383.8 201.38 381.66 203.7 378.9 203.81C378.83 203.82 378.76 203.82 378.69 203.82C376.03 203.82 373.81 201.71 373.7 199.02Z" fill="black"/>
<path d="M353.51 180.739C351.55 178.789 351.55 175.619 353.51 173.669C355.46 171.709 358.63 171.709 360.58 173.669C362.54 175.619 362.54 178.789 360.59 180.739C359.61 181.719 358.33 182.209 357.05 182.209C355.77 182.209 354.49 181.719 353.52 180.749L353.51 180.739Z" fill="black"/>
<path d="M330.41 160.209C327.65 159.999 325.59 157.599 325.8 154.839C326.01 152.089 328.42 150.029 331.17 150.239C333.93 150.449 335.98 152.859 335.77 155.609C335.57 158.229 333.38 160.229 330.8 160.229C330.67 160.229 330.54 160.219 330.41 160.209Z" fill="black"/>
<path d="M325.79 123.021C325.79 120.261 328.03 118.021 330.79 118.021C333.55 118.021 335.79 120.261 335.79 123.021C335.79 125.781 333.55 128.021 330.79 128.021C328.03 128.021 325.79 125.781 325.79 123.021ZM325.79 90.8105C325.79 88.0505 328.03 85.8105 330.79 85.8105C333.55 85.8105 335.79 88.0505 335.79 90.8105C335.79 93.5705 333.55 95.8105 330.79 95.8105C328.03 95.8105 325.79 93.5705 325.79 90.8105Z" fill="black"/>
<path d="M301.66 58.5996C301.66 55.8396 303.9 53.5996 306.66 53.5996C309.42 53.5996 311.66 55.8396 311.66 58.5996C311.66 61.3596 309.42 63.5996 306.66 63.5996C303.9 63.5996 301.66 61.3596 301.66 58.5996Z" fill="black"/>
<path d="M280.3 57.7497C277.92 56.3397 277.13 53.2797 278.53 50.8997C279.93 48.5197 283 47.7297 285.38 49.1297C287.76 50.5297 288.55 53.5997 287.15 55.9797C286.21 57.5597 284.55 58.4397 282.83 58.4397C281.97 58.4397 281.1 58.2197 280.3 57.7497Z" fill="black"/>
<path d="M301.81 53.4297C301.81 50.6697 304.05 48.4297 306.81 48.4297C309.57 48.4297 311.81 50.6697 311.81 53.4297C311.82 56.1897 309.58 58.4297 306.82 58.4297C304.05 58.4297 301.81 56.1997 301.81 53.4297Z" fill="black"/>
<path d="M325.79 30.3906C325.79 27.6306 328.03 25.3906 330.79 25.3906C333.55 25.3906 335.79 27.6306 335.79 30.3906C335.79 33.1506 333.55 35.3906 330.79 35.3906C328.03 35.3906 325.79 33.1506 325.79 30.3906Z" fill="black"/>
<path d="M327.68 7.93924C326.06 5.69924 326.56 2.57924 328.79 0.959238C331.03 -0.670762 334.15 -0.170762 335.78 2.05924C337.4 4.29924 336.9 7.42924 334.67 9.04924C333.78 9.68924 332.75 9.99924 331.73 9.99924C330.19 9.99924 328.66 9.28924 327.68 7.93924Z" fill="black"/>
<path d="M330.03 5C330.03 2.24 332.27 0 335.03 0C337.79 0 340.03 2.24 340.03 5C340.03 7.76 337.79 10 335.03 10C332.27 10 330.03 7.76 330.03 5Z" fill="black"/>
<path d="M330.99 7.84961C330.99 5.08961 333.23 2.84961 335.99 2.84961C338.75 2.84961 340.99 5.08961 340.99 7.84961C340.99 10.6096 338.75 12.8496 335.99 12.8496C333.23 12.8496 330.99 10.6096 330.99 7.84961Z" fill="black"/>
<path d="M335.97 35.6406C333.2 35.6406 330.97 33.4006 330.97 30.6406C330.97 27.8806 333.21 25.6406 335.97 25.6406C338.74 25.6506 340.97 27.8906 340.97 30.6506C340.97 33.4106 338.73 35.6406 335.97 35.6406Z" fill="black"/>
<path d="M354.89 53.4395C354.89 50.6795 357.14 48.4395 359.9 48.4395C362.66 48.4395 364.89 50.6795 364.89 53.4395C364.89 56.1995 362.66 58.4395 359.9 58.4395C357.14 58.4395 354.89 56.1995 354.89 53.4395Z" fill="black"/>
<path d="M381.6 63.0694C379.13 61.8394 378.13 58.8294 379.37 56.3694C380.61 53.8894 383.61 52.8994 386.08 54.1294C388.55 55.3694 389.55 58.3694 388.31 60.8394C387.44 62.5894 385.67 63.5994 383.84 63.5994C383.09 63.5994 382.32 63.4294 381.6 63.0694Z" fill="black"/>
<path d="M354.91 58.5996C354.91 55.8396 357.14 53.5996 359.9 53.5996C362.67 53.5996 364.9 55.8396 364.9 58.5996C364.9 61.3596 362.67 63.5996 359.9 63.5996C357.14 63.5996 354.91 61.3596 354.91 58.5996Z" fill="black"/>
<path d="M330.97 119.89C330.97 117.13 333.21 114.89 335.97 114.89C338.73 114.89 340.97 117.13 340.97 119.89C340.97 122.65 338.73 124.89 335.97 124.89C333.21 124.89 330.97 122.65 330.97 119.89ZM330.97 89.25C330.97 86.48 333.21 84.25 335.97 84.25C338.73 84.25 340.97 86.48 340.97 89.25C340.97 92.01 338.73 94.25 335.97 94.25C333.21 94.25 330.97 92.01 330.97 89.25Z" fill="black"/>
<path d="M356.61 178.2C354.65 176.25 354.65 173.08 356.6 171.13C358.55 169.17 361.72 169.17 363.67 171.13C365.63 173.08 365.63 176.24 363.68 178.2C362.7 179.18 361.42 179.67 360.14 179.67C358.86 179.67 357.58 179.18 356.61 178.21V178.2Z" fill="black"/>
<path d="M384.42 208.371C381.71 208.371 379.49 206.211 379.42 203.491L379.31 198.901C379.25 196.141 381.43 193.851 384.19 193.781C386.95 193.721 389.24 195.901 389.31 198.661L389.42 203.251C389.48 206.011 387.3 208.301 384.54 208.371C384.5 208.371 384.46 208.371 384.42 208.371Z" fill="black"/>
<path d="M581.24 32.5293C578.48 32.5293 576.25 30.2893 576.25 27.5293C576.25 24.7593 578.49 22.5293 581.25 22.5293C584.02 22.5293 586.25 24.7793 586.25 27.5393C586.25 30.2993 584.01 32.5293 581.25 32.5293H581.24Z" fill="black"/>
<path d="M575.26 32.7498C572.54 32.2898 570.71 29.6998 571.18 26.9798C571.65 24.2598 574.24 22.4298 576.96 22.8998C579.68 23.3698 581.5 25.9598 581.04 28.6798C580.62 31.1098 578.5 32.8298 576.12 32.8298C575.83 32.8298 575.55 32.7998 575.26 32.7498Z" fill="black"/>
<path d="M571.05 7.31078C571.04 4.55078 573.27 2.30078 576.03 2.30078C578.79 2.30078 581.04 4.52078 581.05 7.28078C581.06 10.0408 578.82 12.2908 576.06 12.3008H576.05C573.29 12.3008 571.06 10.0708 571.05 7.31078Z" fill="black"/>
<path d="M574.81 9.69011C572.22 8.73011 570.89 5.86011 571.85 3.27011C572.81 0.680108 575.68 -0.649892 578.27 0.310108C580.86 1.27011 582.18 4.14011 581.23 6.73011C580.48 8.75011 578.57 10.0001 576.54 10.0001C575.96 10.0001 575.38 9.90011 574.81 9.69011Z" fill="black"/>
<path d="M575.31 5C575.31 2.24 577.55 0 580.31 0C583.07 0 585.31 2.24 585.31 5C585.31 7.76 583.07 10 580.31 10C577.55 10 575.31 7.76 575.31 5Z" fill="black"/>
<path d="M576.27 7.30078C576.27 4.54078 578.51 2.30078 581.27 2.30078C584.03 2.30078 586.27 4.54078 586.27 7.30078C586.27 10.0608 584.03 12.3008 581.27 12.3008C578.51 12.3008 576.27 10.0608 576.27 7.30078Z" fill="black"/>
<path d="M725.96 169.79C725.96 167.03 728.2 164.79 730.97 164.79C733.73 164.79 735.96 167.03 735.96 169.79C735.96 172.55 733.73 174.79 730.97 174.79C728.2 174.79 725.96 172.55 725.96 169.79ZM725.96 136.4C725.96 133.64 728.2 131.4 730.97 131.4C733.73 131.4 735.96 133.64 735.96 136.4C735.96 139.17 733.73 141.4 730.97 141.4C728.2 141.4 725.96 139.17 725.96 136.4Z" fill="black"/>
<path d="M724.87 208.09C722.16 207.59 720.36 204.98 720.87 202.26C721.37 199.55 723.98 197.76 726.7 198.26C729.41 198.76 731.2 201.38 730.7 204.09C730.25 206.5 728.15 208.18 725.79 208.18C725.49 208.18 725.18 208.15 724.87 208.09Z" fill="black"/>
<path d="M720.79 171.071C720.79 168.301 723.03 166.071 725.79 166.071C728.55 166.071 730.79 168.311 730.79 171.071C730.79 173.831 728.55 176.071 725.79 176.071C723.03 176.071 720.79 173.831 720.79 171.071ZM725.8 143.951C723.03 143.951 720.8 141.721 720.8 138.951C720.8 136.191 723.04 133.961 725.8 133.961C728.56 133.961 730.8 136.191 730.8 138.961C730.8 141.721 728.56 143.951 725.8 143.951Z" fill="black"/>
<path d="M699.31 87.4502C697.35 85.5002 697.35 82.3302 699.3 80.3802C701.25 78.4202 704.42 78.4202 706.37 80.3802C708.33 82.3302 708.33 85.5002 706.37 87.4502C705.39 88.4302 704.11 88.9202 702.83 88.9202C701.55 88.9202 700.27 88.4302 699.3 87.4602L699.31 87.4502Z" fill="black"/>
<path d="M653.39 87.4096C651.44 85.4596 651.45 82.2996 653.4 80.3396C655.35 78.3896 658.52 78.3996 660.47 80.3396C662.42 82.2896 662.42 85.4596 660.46 87.4096C659.49 88.3796 658.21 88.8696 656.93 88.8696C655.65 88.8696 654.37 88.3796 653.39 87.3996V87.4096Z" fill="black"/>
<path d="M628.99 171.151C628.99 168.391 631.23 166.151 633.99 166.151C636.75 166.151 638.99 168.391 638.99 171.151C638.99 173.911 636.75 176.151 633.99 176.151C631.23 176.151 628.99 173.911 628.99 171.151ZM628.99 138.971C628.99 136.211 631.23 133.971 633.99 133.971C636.75 133.971 638.99 136.211 638.99 138.971C638.99 141.731 636.75 143.971 633.99 143.971C631.23 143.971 628.99 141.731 628.99 138.971Z" fill="black"/>
<path d="M628.35 208.18C625.6 207.92 623.58 205.49 623.83 202.74C624.08 199.99 626.51 197.97 629.26 198.22C632.01 198.47 634.04 200.9 633.79 203.65C633.55 206.25 631.37 208.2 628.81 208.2C628.66 208.2 628.51 208.2 628.35 208.18Z" fill="black"/>
<path d="M623.81 169.489C623.81 166.729 626.04 164.489 628.81 164.489C631.57 164.489 633.81 166.729 633.81 169.489C633.81 172.249 631.57 174.489 628.81 174.489C626.04 174.489 623.81 172.249 623.81 169.489ZM623.81 135.779C623.81 133.019 626.04 130.779 628.81 130.779C631.57 130.779 633.81 133.019 633.81 135.779C633.81 138.549 631.57 140.779 628.81 140.779C626.04 140.779 623.81 138.549 623.81 135.779Z" fill="black"/>
<path d="M628.41 102.109C628.21 99.3494 630.28 96.9594 633.04 96.7594C635.79 96.5594 638.18 98.6294 638.38 101.379C638.59 104.129 636.52 106.529 633.76 106.729C633.64 106.729 633.52 106.729 633.4 106.729C630.8 106.729 628.6 104.729 628.41 102.099V102.109Z" fill="black"/>
<path d="M651.75 83.4192C649.79 81.4692 649.8 78.2992 651.75 76.3492C653.7 74.3992 656.87 74.3992 658.82 76.3492C660.77 78.3092 660.77 81.4792 658.82 83.4292C657.84 84.3992 656.56 84.8892 655.28 84.8892C654 84.8892 652.72 84.3992 651.75 83.4192Z" fill="black"/>
<path d="M677.14 58.4905C674.38 58.3405 672.28 55.9805 672.43 53.2205C672.58 50.4605 674.94 48.3505 677.7 48.5105C680.46 48.6605 682.57 51.0205 682.41 53.7805C682.26 56.4405 680.06 58.5005 677.43 58.5005C677.33 58.5005 677.24 58.5005 677.14 58.5005V58.4905Z" fill="black"/>
<path d="M677.33 53.5C677.33 50.74 679.57 48.5 682.33 48.5C685.09 48.5 687.33 50.74 687.33 53.5C687.33 56.26 685.09 58.5 682.33 58.5C679.57 58.5 677.33 56.26 677.33 53.5Z" fill="black"/>
<path d="M677.63 58.8005C677.47 56.0405 679.57 53.6705 682.33 53.5105C685.09 53.3505 687.45 55.4505 687.61 58.2105C687.78 60.9705 685.67 63.3305 682.92 63.5005H682.62C679.99 63.5005 677.79 61.4505 677.63 58.8005Z" fill="black"/>
<path d="M698.36 81.2802C696.41 79.3302 696.41 76.1602 698.36 74.2102C700.31 72.2502 703.47 72.2502 705.43 74.2102C707.38 76.1602 707.39 79.3202 705.43 81.2802C704.45 82.2602 703.17 82.7502 701.89 82.7502C700.61 82.7502 699.33 82.2602 698.35 81.2902L698.36 81.2802Z" fill="black"/>
<path d="M720.74 103.611C718.78 101.661 718.78 98.4906 720.74 96.5406C722.69 94.5906 725.85 94.5906 727.81 96.5406C729.76 98.4906 729.76 101.661 727.81 103.611C726.83 104.591 725.55 105.081 724.27 105.081C722.99 105.081 721.71 104.591 720.74 103.611Z" fill="black"/>
<path d="M725.96 103.02C725.96 100.26 728.2 98.0195 730.97 98.0195C733.73 98.0195 735.96 100.26 735.96 103.02C735.96 105.78 733.73 108.02 730.97 108.02C728.2 108.02 725.96 105.78 725.96 103.02Z" fill="black"/>
</g>
<path d="M576.25 173.419C576.25 170.659 578.49 168.419 581.25 168.419C584.01 168.419 586.25 170.659 586.25 173.419C586.25 176.179 584.01 178.419 581.25 178.419C578.49 178.419 576.25 176.179 576.25 173.419ZM576.25 143.419C576.25 140.659 578.49 138.419 581.25 138.419C584.01 138.419 586.25 140.659 586.25 143.419C586.25 146.189 584.01 148.419 581.25 148.419C578.49 148.419 576.25 146.189 576.25 143.419ZM576.25 113.429C576.25 110.669 578.49 108.429 581.25 108.429C584.01 108.429 586.25 110.669 586.25 113.429C586.25 116.189 584.01 118.429 581.25 118.429C578.49 118.429 576.25 116.189 576.25 113.429ZM576.25 83.4295C576.25 80.6695 578.49 78.4395 581.25 78.4395C584.01 78.4395 586.25 80.6695 586.25 83.4295C586.25 86.1995 584.01 88.4295 581.25 88.4295C578.49 88.4295 576.25 86.1995 576.25 83.4295Z" fill="black"/>
<path d="M571.07 203.41C571.07 200.65 573.31 198.41 576.07 198.41C578.83 198.41 581.07 200.65 581.07 203.41C581.07 206.17 578.83 208.41 576.07 208.41C573.31 208.41 571.07 206.17 571.07 203.41Z" fill="black"/>
<path d="M571.07 173.419C571.07 170.659 573.31 168.419 576.07 168.419C578.83 168.419 581.07 170.659 581.07 173.419C581.07 176.179 578.83 178.419 576.07 178.419C573.31 178.419 571.07 176.179 571.07 173.419ZM571.07 143.419C571.07 140.659 573.31 138.419 576.07 138.419C578.83 138.419 581.07 140.659 581.07 143.419C581.07 146.189 578.83 148.419 576.07 148.419C573.31 148.419 571.07 146.189 571.07 143.419ZM571.07 113.429C571.07 110.669 573.31 108.429 576.07 108.429C578.83 108.429 581.07 110.669 581.07 113.429C581.07 116.189 578.83 118.429 576.07 118.429C573.31 118.429 571.07 116.189 571.07 113.429ZM571.07 83.4295C571.07 80.6695 573.31 78.4395 576.07 78.4395C578.83 78.4395 581.07 80.6695 581.07 83.4295C581.07 86.1995 578.83 88.4295 576.07 88.4295C573.31 88.4295 571.07 86.1995 571.07 83.4295Z" fill="black"/>
<path d="M576.25 53.4395C576.25 50.6795 578.49 48.4395 581.25 48.4395C584.01 48.4395 586.25 50.6795 586.25 53.4395C586.25 56.1995 584.01 58.4395 581.25 58.4395C578.49 58.4395 576.25 56.1995 576.25 53.4395Z" fill="black"/>
<mask id="mask2_2561_5858" style="mask-type:luminance" maskUnits="userSpaceOnUse" x="0" y="0" width="881" height="258">
<path d="M880.03 0H0V257.3H880.03V0Z" fill="white"/>
</mask>
<g mask="url(#mask2_2561_5858)">
<path d="M870.22 106.739C867.46 106.619 865.32 104.289 865.44 101.529C865.56 98.7689 867.89 96.629 870.65 96.749C873.41 96.869 875.55 99.1989 875.43 101.959C875.32 104.639 873.1 106.739 870.44 106.739H870.22Z" fill="black"/>
<path d="M845.01 83.4195C843.05 81.4595 843.05 78.2995 845 76.3395C846.95 74.3895 850.12 74.3895 852.07 76.3395C854.03 78.2895 854.03 81.4595 852.08 83.4095C851.1 84.3895 849.82 84.8795 848.54 84.8795C847.26 84.8795 845.98 84.3895 845.01 83.4195Z" fill="black"/>
<path d="M821.4 53.759C821.25 50.999 823.36 48.639 826.11 48.489C828.87 48.329 831.23 50.439 831.38 53.199C831.54 55.959 829.43 58.319 826.67 58.469C826.58 58.479 826.48 58.479 826.39 58.479C823.75 58.479 821.55 56.419 821.4 53.759Z" fill="black"/>
<path d="M816.43 53.7193C816.36 50.9493 818.55 48.6593 821.31 48.5993C824.07 48.5293 826.36 50.7193 826.42 53.4793C826.49 56.2393 824.3 58.5293 821.55 58.5993H821.42C818.72 58.5993 816.49 56.4393 816.43 53.7193Z" fill="black"/>
<path d="M820.99 63.5202C818.23 63.4002 816.09 61.0602 816.22 58.3002C816.34 55.5502 818.67 53.4102 821.43 53.5302C824.19 53.6502 826.331 55.9902 826.201 58.7402C826.091 61.4302 823.871 63.5302 821.211 63.5302C821.141 63.5302 821.07 63.5302 820.99 63.5302V63.5202Z" fill="black"/>
<path d="M796.64 83.0598C794.69 81.0998 794.69 77.9398 796.65 75.9898C798.6 74.0398 801.77 74.0398 803.72 75.9898C805.67 77.9498 805.67 81.1098 803.71 83.0598C802.74 84.0398 801.46 84.5198 800.18 84.5198C798.9 84.5198 797.62 84.0398 796.64 83.0598Z" fill="black"/>
<path d="M769.16 103.969C768.17 101.389 769.46 98.4891 772.04 97.5091C774.62 96.5191 777.51 97.8091 778.5 100.389C779.49 102.969 778.2 105.859 775.62 106.839C775.03 107.069 774.431 107.179 773.831 107.179C771.821 107.179 769.92 105.949 769.16 103.969Z" fill="black"/>
<path d="M772.87 113.069C770.32 112.009 769.12 109.079 770.18 106.529C771.24 103.979 774.17 102.779 776.72 103.839C779.27 104.899 780.47 107.829 779.41 110.379C778.61 112.299 776.75 113.459 774.79 113.459C774.15 113.459 773.5 113.329 772.87 113.069Z" fill="black"/>
<path d="M794.78 135.489C792.83 133.539 792.83 130.379 794.78 128.429C796.73 126.469 799.9 126.469 801.85 128.429C803.8 130.379 803.8 133.549 801.85 135.499C800.88 136.479 799.6 136.969 798.31 136.969C797.04 136.969 795.76 136.479 794.78 135.499V135.489Z" fill="black"/>
<path d="M840.83 155.459C840.83 152.699 843.07 150.459 845.83 150.459C848.59 150.459 850.83 152.699 850.83 155.459C850.83 158.219 848.59 160.459 845.83 160.459C843.07 160.459 840.83 158.219 840.83 155.459Z" fill="black"/>
<path d="M864.89 198.889C864.88 196.119 867.12 193.879 869.88 193.879C872.64 193.879 874.88 196.109 874.88 198.869C874.89 201.629 872.65 203.869 869.89 203.879C867.13 203.879 864.89 201.649 864.89 198.889Z" fill="black"/>
<path d="M843.7 225.05C841.75 223.1 841.75 219.93 843.7 217.98C845.65 216.03 848.82 216.03 850.77 217.98C852.72 219.93 852.72 223.1 850.77 225.05C849.79 226.03 848.52 226.52 847.24 226.52C845.96 226.52 844.68 226.03 843.7 225.05Z" fill="black"/>
<path d="M815.49 247.58C815.23 244.83 817.25 242.4 820 242.14C822.75 241.89 825.19 243.91 825.44 246.66C825.7 249.41 823.68 251.85 820.93 252.1C820.77 252.11 820.61 252.12 820.46 252.12C817.91 252.12 815.73 250.17 815.49 247.58Z" fill="black"/>
<path d="M791.94 247.129C791.94 244.369 794.18 242.129 796.94 242.129C799.7 242.129 801.94 244.369 801.94 247.129C801.94 249.889 799.7 252.129 796.94 252.129C794.18 252.129 791.94 249.889 791.94 247.129Z" fill="black"/>
<path d="M770.72 256.12C768.61 254.35 768.34 251.19 770.13 249.08C771.9 246.97 775.06 246.7 777.17 248.48C779.28 250.26 779.55 253.41 777.77 255.53C776.78 256.7 775.37 257.3 773.95 257.3C772.81 257.3 771.66 256.92 770.72 256.12Z" fill="black"/>
<path d="M795.12 252.289C795.12 249.529 797.36 247.289 800.12 247.289C802.88 247.289 805.12 249.529 805.12 252.289C805.12 255.049 802.88 257.289 800.12 257.289C797.36 257.289 795.12 255.059 795.12 252.289Z" fill="black"/>
<path d="M826.29 252.25C823.54 252.05 821.46 249.66 821.66 246.91C821.85 244.15 824.24 242.08 827 242.27C829.75 242.46 831.83 244.85 831.63 247.61C831.45 250.24 829.25 252.26 826.65 252.26C826.53 252.26 826.41 252.26 826.29 252.26V252.25Z" fill="black"/>
<path d="M845 228.929C843.05 226.969 843.06 223.809 845.01 221.859C846.96 219.899 850.13 219.909 852.08 221.859C854.03 223.819 854.03 226.979 852.07 228.929C851.1 229.909 849.82 230.389 848.54 230.389C847.26 230.389 845.98 229.909 845 228.929Z" fill="black"/>
<path d="M870.04 203.559C869.83 200.809 871.89 198.399 874.64 198.189C877.4 197.979 879.8 200.039 880.01 202.789C880.22 205.549 878.16 207.949 875.41 208.159C875.28 208.159 875.15 208.179 875.02 208.179C872.44 208.179 870.24 206.179 870.04 203.559Z" fill="black"/>
<path d="M870.02 169.43C870.02 166.67 872.26 164.43 875.02 164.43C877.78 164.43 880.02 166.67 880.02 169.43C880.02 172.19 877.78 174.43 875.02 174.43C872.26 174.43 870.02 172.19 870.02 169.43ZM870.01 135.69C870.01 132.92 872.25 130.68 875.01 130.68C877.77 130.68 880.01 132.92 880.01 135.68C880.01 138.44 877.78 140.68 875.01 140.68C872.26 140.69 870.01 138.45 870.01 135.69Z" fill="black"/>
<path d="M875.01 106.939C874.94 106.939 874.86 106.939 874.79 106.939L870.23 106.739C867.47 106.619 865.33 104.289 865.45 101.529C865.57 98.7689 867.9 96.629 870.66 96.749L875.22 96.9489C877.98 97.0689 880.12 99.399 880 102.159C879.88 104.849 877.67 106.939 875.01 106.939Z" fill="black"/>
<path d="M796.67 131.98C794.71 130.03 794.71 126.87 796.66 124.91C798.61 122.96 801.78 122.96 803.73 124.91C805.69 126.86 805.69 130.02 803.74 131.98C802.76 132.96 801.481 133.45 800.201 133.45C798.921 133.45 797.64 132.96 796.67 131.98Z" fill="black"/>
<path d="M797.57 87.3097C795.62 85.3497 795.62 82.1897 797.58 80.2397C799.53 78.2797 802.7 78.2897 804.65 80.2397C806.6 82.1997 806.6 85.3597 804.65 87.3097C803.67 88.2897 802.39 88.7697 801.11 88.7697C799.83 88.7697 798.55 88.2897 797.57 87.3097Z" fill="black"/>
<path d="M843.35 87.3995C841.4 85.4495 841.39 82.2895 843.34 80.3295C845.29 78.3795 848.46 78.3695 850.41 80.3295C852.37 82.2795 852.37 85.4495 850.42 87.3995C849.44 88.3795 848.16 88.8695 846.88 88.8695C845.6 88.8695 844.33 88.3895 843.35 87.4095V87.3995Z" fill="black"/>
<path d="M864.87 150.209C864.86 147.449 867.1 145.209 869.86 145.199C872.62 145.199 874.86 147.439 874.87 150.199C874.87 152.959 872.63 155.199 869.87 155.199C867.11 155.199 864.87 152.969 864.87 150.209Z" fill="black"/>
<path d="M840.99 150.27C840.98 147.51 843.22 145.27 845.98 145.26C848.74 145.26 850.98 147.49 850.99 150.25C851 153.01 848.76 155.26 846 155.26H845.99C843.23 155.26 841 153.03 840.99 150.27Z" fill="black"/>
<path d="M226.15 83.1801C224.19 81.2301 224.19 78.0601 226.15 76.1101C228.1 74.1601 231.27 74.1501 233.22 76.1001C235.18 78.0601 235.18 81.2201 233.22 83.1801C232.24 84.1501 230.96 84.6401 229.68 84.6401C228.4 84.6401 227.12 84.1601 226.15 83.1801Z" fill="black"/>
<path d="M202.83 53.6495C202.7 50.8895 204.84 48.5495 207.6 48.4295C210.36 48.2995 212.69 50.4394 212.82 53.1894C212.94 55.9594 210.81 58.2894 208.05 58.4194H207.82C205.16 58.4194 202.95 56.3295 202.83 53.6495Z" fill="black"/>
<path d="M198.16 53.5388C198.12 50.7788 200.33 48.5188 203.09 48.4788C205.85 48.4488 208.12 50.6488 208.15 53.4188C208.19 56.1788 205.98 58.4388 203.22 58.4788H203.15C200.42 58.4788 198.19 56.2788 198.16 53.5388Z" fill="black"/>
<path d="M197.83 58.5595C197.68 55.7995 199.79 53.4495 202.55 53.2995C205.3 53.1395 207.66 55.2595 207.81 58.0095C207.96 60.7695 205.85 63.1295 203.09 63.2795C203 63.2795 202.91 63.2795 202.81 63.2795C200.18 63.2795 197.97 61.2095 197.83 58.5495V58.5595Z" fill="black"/>
<path d="M177.77 83.3001C175.82 81.3501 175.82 78.1801 177.77 76.2301C179.72 74.2801 182.88 74.2801 184.84 76.2301C186.79 78.1801 186.79 81.3501 184.83 83.3001C183.85 84.2701 182.58 84.7601 181.3 84.7601C180.02 84.7601 178.74 84.2701 177.76 83.2901L177.77 83.3001Z" fill="black"/>
<path d="M149.24 103.77C149.24 101 151.48 98.7598 154.24 98.7598C157 98.7598 159.24 101 159.24 103.77C159.24 106.53 157 108.76 154.24 108.76C151.48 108.76 149.24 106.53 149.24 103.77Z" fill="black"/>
<path d="M149.24 128.609C149.24 125.849 151.48 123.609 154.24 123.609C157 123.609 159.24 125.849 159.24 128.609C159.24 131.379 157 133.609 154.24 133.609C151.48 133.609 149.24 131.379 149.24 128.609Z" fill="black"/>
<path d="M156.22 160.519C153.46 160.389 151.32 158.059 151.45 155.299C151.57 152.539 153.9 150.399 156.66 150.529C159.42 150.649 161.56 152.979 161.43 155.739C161.32 158.419 159.11 160.519 156.44 160.519H156.22Z" fill="black"/>
<path d="M159.19 160.599C156.43 160.519 154.25 158.219 154.33 155.469C154.4 152.699 156.7 150.529 159.46 150.599C162.22 150.679 164.4 152.979 164.32 155.729C164.25 158.449 162.03 160.599 159.33 160.599H159.19Z" fill="black"/>
<path d="M177.44 180.76C175.49 178.81 175.49 175.64 177.44 173.69C179.39 171.73 182.55 171.73 184.51 173.68C186.46 175.63 186.46 178.8 184.51 180.75C183.54 181.73 182.26 182.22 180.97 182.22C179.7 182.22 178.42 181.73 177.44 180.76Z" fill="black"/>
<path d="M197.89 203.62C197.73 200.86 199.84 198.5 202.6 198.34C205.35 198.19 207.72 200.29 207.87 203.05C208.03 205.81 205.92 208.17 203.16 208.32C203.06 208.32 202.97 208.32 202.87 208.32C200.24 208.32 198.04 206.27 197.89 203.61V203.62Z" fill="black"/>
<path d="M207.84 208.409C205.08 208.369 202.88 206.089 202.92 203.329C202.97 200.569 205.24 198.369 208 198.409C210.76 198.449 212.97 200.729 212.92 203.489C212.88 206.219 210.65 208.409 207.92 208.409H207.84Z" fill="black"/>
<path d="M205.02 202.399C203.04 200.459 203.01 197.299 204.93 195.319C206.86 193.349 210.03 193.309 212.01 195.239C213.98 197.169 214.02 200.339 212.09 202.309C211.11 203.319 209.81 203.819 208.51 203.819C207.25 203.819 205.99 203.349 205.02 202.399Z" fill="black"/>
<path d="M226.61 180.73C224.66 178.78 224.66 175.61 226.61 173.66C228.56 171.71 231.73 171.71 233.68 173.66C235.63 175.62 235.63 178.79 233.68 180.74C232.7 181.71 231.42 182.2 230.14 182.2C228.86 182.2 227.58 181.71 226.6 180.73H226.61Z" fill="black"/>
<path d="M249.68 155.62C249.62 152.86 251.81 150.58 254.57 150.52C257.33 150.47 259.62 152.66 259.67 155.42C259.73 158.18 257.54 160.47 254.78 160.52H254.67C251.96 160.52 249.73 158.35 249.68 155.62Z" fill="black"/>
<path d="M251.87 153.459C251.87 150.699 254.11 148.459 256.87 148.459C259.63 148.459 261.87 150.699 261.87 153.459C261.87 156.219 259.63 158.459 256.87 158.459C254.11 158.459 251.87 156.219 251.87 153.459Z" fill="black"/>
<path d="M251.87 128.609C251.87 125.849 254.11 123.609 256.87 123.609C259.63 123.609 261.87 125.849 261.87 128.609C261.87 131.379 259.63 133.609 256.87 133.609C254.11 133.609 251.87 131.379 251.87 128.609Z" fill="black"/>
<path d="M247.55 104.55C245.59 102.6 245.6 99.4301 247.55 97.4801C249.5 95.5301 252.67 95.5301 254.62 97.4801C256.57 99.4301 256.57 102.6 254.62 104.55C253.64 105.53 252.36 106.02 251.08 106.02C249.8 106.02 248.52 105.53 247.55 104.55Z" fill="black"/>
<path d="M225.08 176.64C223.13 174.69 223.13 171.52 225.08 169.57C227.03 167.62 230.2 167.62 232.15 169.57C234.1 171.53 234.1 174.69 232.14 176.65C231.17 177.62 229.89 178.11 228.61 178.11C227.33 178.11 226.05 177.62 225.07 176.64H225.08Z" fill="black"/>
<path d="M179.2 176.87C177.24 174.92 177.24 171.75 179.19 169.8C181.14 167.85 184.31 167.84 186.26 169.8C188.22 171.75 188.22 174.92 186.27 176.88C185.29 177.85 184.01 178.34 182.73 178.34C181.45 178.34 180.18 177.86 179.2 176.88V176.87Z" fill="black"/>
<path d="M154.9 106.299C154.9 103.529 157.13 101.299 159.9 101.299C162.66 101.299 164.9 103.529 164.9 106.299C164.9 109.059 162.66 111.299 159.9 111.299C157.13 111.299 154.9 109.059 154.9 106.299Z" fill="black"/>
<path d="M179.2 87.1691C177.26 85.2091 177.27 82.0391 179.23 80.0891C181.19 78.1491 184.36 78.1691 186.3 80.1291C188.25 82.0891 188.23 85.2591 186.27 87.1991C185.3 88.1591 184.02 88.6491 182.75 88.6491C181.46 88.6491 180.18 88.1491 179.2 87.1691Z" fill="black"/>
<path d="M225.12 87.5894C223.17 85.6294 223.17 82.4694 225.12 80.5094C227.08 78.5594 230.24 78.5594 232.19 80.5094C234.15 82.4694 234.15 85.6294 232.19 87.5894C231.22 88.5594 229.94 89.0494 228.66 89.0494C227.38 89.0494 226.1 88.5594 225.12 87.5894Z" fill="black"/>
<path d="M251.67 155.09C248.9 155.09 246.67 152.84 246.67 150.08C246.67 147.32 248.92 145.08 251.68 145.08C254.44 145.08 256.67 147.33 256.67 150.09C256.67 152.85 254.43 155.09 251.67 155.09Z" fill="black"/>
</g>
</g>
<defs>
<clipPath id="clip0_2561_5858">
<rect width="880.03" height="257.3" fill="white"/>
</clipPath>
</defs>
</svg>
