<svg width="191" height="122" viewBox="0 0 191 122" fill="none" xmlns="http://www.w3.org/2000/svg">
<g clip-path="url(#clip0_2561_7407)">
<mask id="mask0_2561_7407" style="mask-type:luminance" maskUnits="userSpaceOnUse" x="0" y="0" width="191" height="122">
<path d="M190.63 0H0V121.62H190.63V0Z" fill="white"/>
</mask>
<g mask="url(#mask0_2561_7407)">
<path d="M190.6 57.01C190.54 57.29 190.22 57.67 189.96 57.8C189.49 58.04 189.04 58.11 188.55 58.16C187.56 58.27 187.68 58.05 186.43 58.14C186.19 58.16 185.98 58.17 185.75 58.14L184.93 58.06C184.07 57.98 183.22 58.06 182.35 58.08L178.15 58.15C177.62 58.15 177.13 58.22 176.6 58.15C176.18 58.1 176.61 58.2 175.89 58.13L175.25 58.07C174.78 58.02 174.3 58.06 173.82 58.07C172.45 58.13 171.07 58.13 169.7 58.07C169.1 58.04 168.55 58.02 167.94 58.08C167.41 58.14 167.09 58.06 166.75 58.14C166.42 58.22 163.93 58.18 163.43 58.14C162.81 58.09 162.18 57.86 161.8 57.47C161.43 57.09 161.3 56.61 161.52 56.17C161.74 55.72 162.12 55.3 162.67 55.29L165.25 55.25C165.57 55.25 165.92 55.1 166.23 55.07C166.88 55 167.46 54.85 168.07 54.66C168.78 54.44 169.48 54.27 170.12 53.82C170.61 53.47 170.97 52.94 171.41 52.53C172.42 51.61 172.52 50.69 172.68 49.38C172.72 49.09 172.84 48.73 172.85 48.44C172.9 47.05 172.9 45.7 172.84 44.31C172.78 43.04 172.82 41.82 172.81 40.55V39.25C172.81 39.25 172.88 38.96 172.88 38.95L172.85 25.45C172.85 24.85 172.81 24.33 172.84 23.74C172.9 22.46 172.93 19.3 172.8 18.09L172.66 16.81L172.35 14.43C172.04 12.02 171.47 12.31 170.6 10.56C170.14 9.65998 169.98 9.57998 169.09 8.98998C168.41 8.53998 167.76 8.07998 167 7.71998C166.67 7.56998 166.27 7.49998 165.91 7.38998C165.34 7.20998 163.61 6.88998 163.01 6.82998L162.19 6.74998C161.63 6.69998 160.89 6.66998 160.35 6.78998L159.31 7.01998L158.42 7.17998C157.76 7.29998 156.52 7.58998 155.95 7.84998C155.65 7.98998 154.87 8.52998 154.25 8.85998C153.77 9.11998 153.19 9.26998 152.78 9.61998L150.81 11.32C150.41 11.66 149.44 12.59 149.16 12.95L148.11 14.3L147.42 15.18C147.37 15.25 145.86 17.87 145.81 17.98L145.05 20.05L144.61 21.06C144.33 21.71 144.26 22.41 144.17 23.14L143.89 25.57V40.71V42.22C143.9 44.12 143.84 45.98 143.89 47.92C143.91 48.69 144.06 49.38 144.12 50.11C144.16 50.56 144.3 50.96 144.5 51.37C144.72 51.84 145.2 52.27 145.54 52.71C146.02 53.34 146.49 53.82 147.26 54.09L148.92 54.67C149.09 54.73 149.28 54.86 149.45 54.89L150.33 55.05L151.14 55.19C152.55 55.44 154.01 54.77 154.96 55.56C155.3 55.84 155.42 56.23 155.41 56.64C155.37 57.75 154.48 58.19 153.51 58.11L152.78 58.04C152.27 57.99 151.79 58 151.28 58.04L150.24 58.13C149.75 58.17 149.27 58.11 148.78 58.1L145.55 58.04C145.33 58.04 145.13 58.03 144.91 58.04L143.3 58.1C143.09 58.11 142.88 58.13 142.67 58.1C141.52 57.95 140.75 57.96 139.58 58.03C138.53 58.09 137.49 58.09 136.45 58.03C135.66 57.98 134.91 58.03 134.12 58.03L128.93 58.09L128.09 58.16C127.24 58.22 126.37 57.76 126.22 56.89C126.08 56.07 126.67 55.27 127.47 55.19C128.89 55.05 128.79 55.36 130.03 55.17L131.49 54.95C131.66 54.92 131.95 54.87 132.11 54.82L133.7 54.3C134.06 54.18 134.49 54 134.79 53.75L135.23 53.38C135.54 53.12 135.85 52.91 136.1 52.59C136.45 52.16 136.89 51.75 137.11 51.22C137.41 50.47 137.52 49.8 137.66 48.99C137.85 47.86 137.71 46.75 137.71 45.66V37.6C137.71 36.96 137.81 36.34 137.71 35.72C137.61 35.06 137.72 34.44 137.72 33.76V21.65L137.71 20.94C137.7 20.5 137.65 20.07 137.71 19.63C137.73 19.47 137.71 19.3 137.71 19.14L137.67 16.99C137.67 16.76 137.38 15.48 137.31 15.14C137.02 13.91 136.99 13.65 136.49 12.44C136.22 11.78 135.9 11.18 135.45 10.62L134.98 10.04C134.01 8.84998 131.8 7.40998 130.28 7.17998L127.63 6.77998C127.13 6.69998 125.35 6.75998 124.9 6.84998L123.46 7.11998C122.75 7.24998 121.48 7.56998 120.85 7.88998C119.94 8.35998 119.05 8.76998 118.1 9.18998C117.9 9.27998 117.57 9.47998 117.4 9.57998C116.64 10.38 115.85 11.02 114.97 11.66C114.72 11.84 113.66 13.11 113.45 13.42L112.73 14.51C112.66 14.62 112.51 14.84 112.41 14.94C111.74 15.63 111.35 16.53 110.9 17.38L109.9 19.29C109.54 19.98 109.48 20.78 109.32 21.55C109.16 22.34 108.78 23.49 108.74 24.01L108.66 25.06L108.63 25.96C108.6 26.68 108.56 27.34 108.63 28.05C108.68 28.54 108.63 29.03 108.61 29.51C108.53 30.96 108.61 32.37 108.61 33.85V45.42C108.61 46.22 108.52 46.97 108.6 47.75C108.7 48.71 108.88 49.6 109.11 50.52C109.25 51.11 109.4 51.62 109.78 52.12C110.44 52.97 111.9 54.06 112.93 54.43C113.86 54.76 113.32 54.7 114.44 54.91C115.34 55.08 116.85 55.23 117.77 55.12C118.22 55.07 118.71 55.09 119.1 55.26C119.71 55.53 120.05 56.12 119.99 56.76C119.94 57.35 119.46 57.86 118.82 58.03C118.32 58.16 117.76 58.09 117.23 58.04C115.89 57.94 115.44 58.11 114.33 58.04L113.13 57.96C112.18 57.9 111.27 57.98 110.32 57.98L104.3 58C104.04 58 103.8 57.98 103.54 57.99L102.5 58.04C100.82 58.13 101.29 58.02 99.8 57.96C98.65 57.92 97.52 57.9 96.37 57.96L95.47 58.01L94.64 58.06C93.38 58.14 90.69 58.29 90.75 56.48C90.76 56.12 90.98 55.68 91.37 55.48C91.6 55.36 92.05 55.19 92.32 55.19L95.18 55.17C95.46 55.17 95.81 55.04 96.09 54.98C97.26 54.73 99.04 54.13 99.93 53.35L101.09 52.32C101.84 51.66 102.01 50.71 102.1 49.75L102.26 47.9C102.33 47.08 102.31 46.25 102.26 45.42C102.17 44.16 102.27 42.95 102.27 41.66V24.48C102.27 22.7 102.16 20.99 102.27 19.24C102.31 18.58 102.27 17.95 102.27 17.29L102.2 13.78C102.19 13.2 102.08 12.66 101.92 12.1L101.5 10.65C101.41 10.33 100.91 9.72998 100.56 9.49998C99.65 8.88998 99.43 8.83998 98.33 8.63998C97.77 8.53998 97.12 8.66998 96.6 8.75998L95.69 8.92998C95.29 8.99998 94.83 8.96998 94.45 9.11998C93.44 9.51998 92.67 10.16 91.98 9.21998C91.68 8.80998 91.4 8.24998 91.47 7.70998C91.55 7.02998 92.14 6.66998 92.72 6.48998C93.25 6.31998 93.76 6.14998 94.27 5.91998C95.38 5.44998 96.41 4.85998 97.65 4.69998C98.38 4.59998 99.07 4.33998 99.67 3.94998C100.69 3.28998 100.59 3.44998 101.67 3.17998C102.38 2.99998 103.06 2.83998 103.71 2.52998C104.21 2.28998 104.7 1.96998 105.22 1.81998C106.34 1.50998 107.38 1.18998 108.43 0.729981L108.78 0.489981L109.73 0.119981C110.29 -0.100019 111.71 -0.300019 112.08 0.269981C112.53 0.959981 111.92 1.66998 111.63 2.41998C111.09 3.79998 111.12 4.63998 110.86 5.41998L110.56 6.31998C110.27 7.20998 109.89 8.03998 109.67 8.94998L109.35 10.27C109.25 10.67 109.15 11.1 108.98 11.46L108.44 12.62C108.12 13.31 107.98 15.03 108.87 15C109.35 14.98 109.71 14.58 109.99 14.25L110.68 13.44C111.37 12.62 111.85 11.68 112.58 10.92L113.31 10.16C114.02 9.41998 114.6 8.62998 115.35 7.92998C115.77 7.54998 116.11 7.07998 116.55 6.73998C117.1 6.29998 117.67 5.93998 118.16 5.42998C118.59 4.97998 119.18 4.75998 119.67 4.37998L120.84 3.46998C121.04 3.30998 122.44 2.79998 123.2 2.32998L123.81 1.94998C124.01 1.82998 124.33 1.65998 124.54 1.59998L125.26 1.38998L126.59 1.00998L127.93 0.629981C129.18 0.269981 131.02 0.319981 132.37 0.369981C132.52 0.369981 133.75 0.499981 133.84 0.529981L135.29 1.01998L137.17 1.66998C137.79 1.88998 139.97 3.40998 140.35 3.88998L141.54 5.37998C142.28 6.30998 142.47 7.44998 142.96 8.36998C144.05 10.4 143.51 11.66 143.98 13.34C144.1 13.77 144.55 14.24 144.99 14.17C146.12 13.98 146.5 12.52 147.05 11.89L147.92 10.89L149.03 9.59998C149.1 9.51998 151.49 7.05998 151.49 7.02998L152.81 5.96998C153.52 5.39998 154.17 4.81998 154.98 4.37998C155.1 4.30998 155.3 4.11998 155.43 4.01998L155.99 3.58998C156.24 3.39998 156.51 3.30998 156.81 3.19998C157.56 2.91998 158.25 2.45998 158.93 2.02998C159.62 1.60998 160.45 1.43998 161.26 1.23998L162.8 0.849981L163.86 0.549981C164.18 0.459981 164.65 0.459981 165 0.439981L165.92 0.369981C167.04 0.289981 168.23 0.299981 169.29 0.629981L170.5 0.999981L172.37 1.59998C173.02 1.80998 173.81 2.32998 174.37 2.74998L175.7 3.74998C176.17 4.10998 176.52 4.62998 176.82 5.14998L177.69 6.60998C178.21 7.47998 178.52 8.41998 178.72 9.45998L178.99 10.9C179.03 11.14 179.23 12.01 179.23 12.01L179.27 15.87C179.29 18.1 179.27 20.29 179.27 22.54L179.24 40.27L179.31 41.03V44.25L179.25 44.71C179.1 45.85 179.25 48.56 179.61 49.86C179.89 50.86 179.79 51.46 180.85 52.46L180.97 52.57C180.97 52.57 181.05 52.64 181.09 52.69C181.72 53.4 182.44 53.95 183.29 54.33L184.08 54.67C184.73 54.96 185.48 54.95 186.18 55.05C186.71 55.13 187.2 55.21 187.73 55.12C188.36 55.02 189.01 55.08 189.63 55.24C190.36 55.42 190.82 56.1 190.66 56.88" fill="#90BEFB"/>
<path d="M117.261 95.8802L116.841 99.4102C116.751 100.22 116.701 100.99 116.581 101.77L116.451 102.62C116.391 103.01 116.331 103.48 116.181 103.83C115.801 104.73 115.411 105.57 115.121 106.51C114.861 107.34 114.681 107.96 114.191 108.72C113.551 109.71 113.401 110.17 112.801 111.14C112.651 111.39 112.371 111.59 112.211 111.81C111.291 113.09 110.231 114.15 109.001 115.12C108.501 115.51 108.011 115.83 107.461 116.13L105.321 117.27C104.711 117.6 104.031 117.69 103.371 117.79L102.581 117.92C101.971 118.02 101.381 118.19 100.741 118.23C99.9609 118.28 99.1809 118.3 98.4109 118.23L97.5909 118.16C97.0709 118.11 96.5609 118.02 96.0409 117.94L94.6009 117.71L93.8909 117.54C91.8509 117.04 92.5009 117 90.9509 116.26L89.8909 115.75C89.3509 115.49 88.9409 114.99 88.4309 114.68C87.7509 114.27 87.2209 113.78 86.7109 113.18C86.4609 112.89 86.0809 112.68 85.8109 112.43C85.1309 111.8 85.0909 111.43 84.7509 111.04L84.3309 110.55C84.1409 110.32 83.9009 110.05 83.7609 109.78L82.9809 108.31C82.6409 107.66 82.3909 107.82 81.8509 106.39C81.7409 106.08 81.6509 105.74 81.5009 105.45L81.0209 104.52C80.3809 103.28 80.3709 102.73 80.0609 101.43C79.9309 100.88 79.7809 100.36 79.6309 99.8402L79.1609 98.2102C78.9309 97.4002 78.7809 96.5502 78.7109 95.6902L78.6409 94.7902L78.5709 93.9702L78.5109 92.6502L78.4909 86.9402C78.4909 86.7402 78.5309 86.4702 78.5509 86.2602L78.9409 82.8302C78.9709 82.5402 79.0409 82.1702 79.1409 81.9102L79.6109 80.6602C79.9109 79.8702 80.0609 79.0602 80.2609 78.2502C80.5709 76.9202 81.1609 76.5202 81.5609 75.4502C81.9209 74.4702 82.4309 73.7102 83.1109 72.9402C83.2309 72.8002 83.5109 72.1202 84.4109 71.2502C84.8109 70.8602 85.1109 70.3502 85.5509 70.0002L87.3209 68.5602C87.6509 68.2902 88.0509 68.1102 88.4209 67.9302C90.4509 66.9202 89.6809 66.9702 92.0309 66.4402C92.5409 66.3202 93.0909 66.2502 93.6309 66.1802L95.2809 65.9602C95.8909 65.8802 96.5609 65.9102 97.1909 65.9402C98.0609 65.9802 98.2509 66.1102 99.1109 66.1802C100.891 66.3102 102.591 66.7302 104.171 67.5502L105.201 68.0802C106.391 68.7002 106.861 69.3102 107.031 69.4002C107.791 69.8102 108.361 70.3902 108.961 71.0002C109.481 71.5202 109.971 72.0202 110.441 72.5802C110.821 73.0302 111.291 73.3902 111.581 73.9102C111.831 74.3702 112.051 74.8202 112.371 75.2202C112.601 75.5102 112.851 75.8202 113.001 76.1502L113.331 76.8602C113.491 77.1902 113.591 77.5402 113.771 77.8502L114.551 79.1902C114.641 79.3402 114.731 79.7002 114.791 79.8902L115.421 81.9502L115.861 83.3202L116.071 84.0302C116.631 85.9302 116.561 85.9202 116.771 87.8202L117.031 90.1602C117.111 90.9202 117.261 91.6602 117.291 92.4302C117.351 93.5902 117.431 94.7502 117.291 95.9102M126.181 90.4302L126.111 89.2402L126.051 88.3402L125.951 87.3402C125.861 86.4702 125.851 85.5602 125.571 84.7402L125.121 83.3702C124.861 82.5902 124.621 81.7602 124.461 80.9302C124.001 78.6402 123.501 78.7002 122.701 76.8302C122.451 76.2402 122.171 75.7002 121.771 75.2102C121.481 74.8502 121.261 74.4302 121.021 74.0102C120.721 73.5002 120.241 73.1102 119.871 72.6402C119.331 71.9602 118.491 70.9102 117.901 70.3302L117.481 69.9202L116.951 69.4202C116.471 68.9702 115.941 68.6302 115.421 68.2402C114.541 67.5602 113.701 66.9502 112.691 66.4802C112.001 66.1602 111.511 65.6102 110.131 65.0002L109.241 64.6102C107.201 63.7202 107.121 63.9302 105.191 63.4402L104.101 63.1602L103.191 62.9502C102.911 62.8802 102.631 62.8702 102.341 62.8302L100.541 62.5602C100.311 62.5302 100.021 62.4902 99.7909 62.4902H95.9109C95.4809 62.4902 95.0409 62.6202 94.6309 62.6902L92.8709 63.0402C92.6109 63.0902 92.3709 63.1902 92.1109 63.2402L88.7609 63.9302C88.3309 64.0202 87.8809 64.2702 87.4909 64.4502L86.4209 64.9502C85.6709 65.3002 84.8809 65.5602 84.1909 65.9902C83.8409 66.2102 83.5209 66.4302 83.1709 66.6202C82.5709 66.9402 81.9509 67.2202 81.4209 67.6402L80.3209 68.5002C80.1209 68.6602 79.8509 68.7802 79.6609 68.9602L78.1609 70.3802C77.7209 70.8002 77.2909 71.1902 76.9109 71.6702L75.1709 73.8202C74.5509 74.5802 74.0909 75.3802 73.6009 76.2102C73.1309 77.0002 72.5909 77.7202 72.3309 78.6002C71.7809 80.4402 71.3309 80.6802 71.0609 81.5102C70.8609 82.1302 70.7909 82.7802 70.6409 83.4202L70.2309 85.1802C69.8709 86.7002 69.6209 88.0802 69.4509 89.6502C69.3109 91.0002 69.3109 91.9602 69.3809 93.3202L69.4709 95.1602C69.5009 95.7102 69.5809 96.2002 69.6809 96.7302L69.8109 97.4402L70.3509 99.8802L70.4909 100.57L70.7109 101.38C71.0209 102.52 71.2409 103.55 71.7909 104.58C72.5709 106.03 72.1809 106.28 73.4409 108.01C73.6109 108.24 73.7309 108.54 73.8609 108.8L74.3609 109.74C74.4709 109.94 74.6909 110.18 74.8509 110.36C75.3009 110.86 75.5909 111.5 76.0909 111.96C77.4409 113.22 77.5509 113.69 79.0009 114.89L80.5109 116.14C80.9609 116.51 81.3509 116.92 81.9109 117.15C83.9809 117.99 83.7609 118.44 84.8209 118.79L85.7109 119.08C86.1609 119.23 86.5909 119.34 87.0009 119.61C88.4709 120.57 89.8309 120.5 91.6209 120.89L93.5909 121.31L95.4709 121.6H99.7309C100.611 121.45 100.791 121.49 101.811 121.29L103.881 120.89L106.011 120.41C106.531 120.29 107.091 120.25 107.551 120L108.651 119.38C109.591 118.85 110.521 118.96 111.481 118.17C112.501 117.32 113.341 117.19 113.941 116.73L114.911 115.98C115.521 115.51 116.081 115.1 116.631 114.56C117.081 114.12 117.601 113.8 117.971 113.28C118.301 112.81 118.751 112.48 119.151 112.07C119.511 111.71 119.811 111.28 120.131 110.88C120.531 110.38 120.861 109.88 121.201 109.32C121.621 108.64 122.191 108.04 122.521 107.3C122.891 106.44 123.221 105.63 123.751 104.85C124.211 104.17 124.311 103.32 124.491 102.53C125.151 99.5002 125.661 101.12 126.051 95.7302L126.121 94.7502L126.191 93.8502C126.281 92.7002 126.261 91.5702 126.191 90.4102" fill="#90BEFB"/>
<path d="M41.3105 37.5996C41.1505 38.4196 40.6505 39.0696 40.0605 39.6396L39.5605 40.1196C39.2205 40.4496 38.8305 40.6796 38.3605 40.7896C38.1405 40.8496 37.8505 40.9496 37.6505 40.9496C36.1305 40.9696 35.0505 41.1296 33.8705 40.2596C32.5605 39.2996 31.9405 39.2396 30.7905 37.8496C30.4405 37.4196 29.5105 36.6396 29.0305 36.3396C28.6205 36.0896 27.5205 35.6296 27.0105 35.4296C26.1705 35.0996 25.2405 35.2796 24.3905 35.5596L23.5905 35.8196C22.8505 36.0596 22.2405 36.5896 21.7805 37.2096C21.4605 37.6396 21.1305 38.0596 20.8605 38.5396C20.2105 39.6796 19.7605 40.9296 19.3905 42.2096C19.2705 42.6496 19.2705 43.1396 19.2105 43.5796L18.9805 45.1396C18.9405 45.4196 18.9105 45.7396 18.8905 46.0296L18.8205 46.8596L18.7505 48.3996L18.6805 55.7896C18.6805 56.4596 18.6205 57.0796 18.6805 57.7396C18.7405 58.4696 18.7405 59.1896 18.6905 59.9296C18.6505 60.5796 18.5405 61.2796 18.8105 61.8796C19.0505 62.4296 19.6105 62.8596 20.2405 62.8596H30.1505C30.5705 62.8596 31.0305 62.7096 31.6405 63.1096C32.2605 63.5196 32.5205 64.5396 31.9405 65.3596C31.6305 65.8096 31.0205 65.8996 30.4705 65.9696C29.6305 66.0896 28.9105 65.8496 27.6205 65.9696C27.0205 66.0296 26.4805 65.9996 25.8905 65.9696C24.7405 65.9196 23.6105 65.9296 22.4605 65.9696C21.0205 66.0196 21.3905 65.7996 20.2705 65.9096C19.3405 65.9996 18.6905 66.6696 18.6505 67.6296C18.6205 68.4896 18.6105 69.3696 18.6605 70.2496C18.7005 70.8596 18.7205 71.4596 18.6805 72.0896C18.6605 72.5596 18.5805 73.0296 18.6305 73.5096C18.7005 74.1596 18.6905 74.7596 18.6605 75.4096C18.5605 77.1396 18.6605 78.8296 18.6605 80.5896L18.6905 98.4396C18.5305 99.1196 18.6605 99.7396 18.6605 100.41V106.86C18.6705 107.1 18.6605 107.37 18.6405 107.59C18.5405 108.83 18.6705 110 18.8105 111.21C18.9305 112.31 19.2805 113.25 20.1305 113.98C20.7305 114.5 21.2705 115.09 22.0105 115.45C23.2905 116.09 23.8505 116.34 25.3405 116.43L26.2505 116.49L28.4905 116.53C28.8405 116.53 29.2505 116.71 29.5605 116.87C30.1005 117.28 30.1905 118.24 29.9805 118.68C29.7105 119.26 29.0305 119.58 28.4205 119.58L22.5405 119.62L19.5105 119.68L17.3005 120L7.58047 120.06C6.90047 120.06 6.29047 120.11 5.62047 120.06C4.44047 119.98 3.28047 120.03 2.07047 120.02C1.17047 120.02 0.180469 119.46 0.0604687 118.46C0.0604687 118.42 -0.00953125 118.3 -0.0195312 118.3V117.85C0.210469 117.38 0.270469 116.59 0.980469 116.24C1.15047 116.15 1.47047 115.98 1.63047 115.95C3.16047 115.68 2.92047 116.3 4.80047 115.96C5.47047 115.84 6.17047 115.85 6.81047 115.62L7.29047 115.45C7.65047 115.32 7.97047 115.21 8.32047 115.06C9.45047 114.55 10.4305 113.73 10.9105 112.55C11.1405 111.99 11.3005 111.34 11.3205 110.72L11.3905 108.01L11.4705 101.43L11.5505 97.6196L11.6205 91.8496L11.7005 86.6096L11.7705 82.3596L11.8405 76.3796L11.9005 74.8996L11.9305 74.0896L11.9805 69.8396C11.9805 69.4896 12.0005 69.1896 11.9805 68.8496L11.9205 67.6096C11.8305 65.9296 10.1005 65.8096 8.78047 65.8996C7.92047 65.9596 7.06047 65.9796 6.22047 65.8996C4.58047 65.7496 2.93047 66.2296 1.81047 65.9496C1.16047 65.7796 0.680469 65.2496 0.590469 64.7096C0.450469 63.9096 0.840469 63.3496 1.51047 63.0396C2.22047 62.7196 2.96047 62.8496 3.52047 62.8496L8.82047 62.8996C9.67047 62.8996 11.0305 63.0096 11.5705 62.1996C11.7905 61.8696 12.0005 61.3996 12.0205 61.0196C12.1105 59.1096 11.8905 57.9996 11.9905 56.0896C12.0105 55.7396 12.0605 55.4196 12.0005 55.0796C11.9005 54.4196 12.0505 53.0096 12.2405 52.3296C12.4605 51.5496 12.5605 50.7896 12.6805 49.9996L12.8305 48.9796C13.2105 46.4196 13.8405 46.1196 14.2705 44.5096C14.6205 43.2496 15.1805 42.2196 15.8205 41.1096C16.2705 40.3196 16.5405 39.4996 17.2105 38.8096C17.4905 38.5196 17.7505 37.5196 18.9005 36.4796C19.0505 36.3396 19.1905 36.1696 19.3305 36.0096L19.7805 35.4796C19.9205 35.3196 20.1205 35.1196 20.2905 34.9696L21.1205 34.1896C21.7905 33.5696 22.1505 33.4796 22.7605 33.0096L23.1905 32.6796C24.5105 31.6696 24.4305 31.9496 25.8005 31.3296L26.6305 30.9496C27.0105 30.7796 27.3505 30.5796 27.7705 30.4396C28.2705 30.2796 28.8405 30.1796 29.3705 30.1396L30.3505 30.0696C31.3505 29.9896 32.7205 29.9096 33.6905 30.0096L35.3705 30.1896C36.0505 30.2596 36.6805 30.4996 37.2505 30.8496L39.1405 32.0296C40.0305 32.5896 41.3105 35.0496 41.4105 36.0296C41.4605 36.5596 41.3705 37.0796 41.2705 37.6096" fill="#90BEFB"/>
<path d="M79.02 52.1097L78.81 52.5697C78.51 53.2197 78.17 53.8997 77.52 54.2697C76.58 54.8097 75.14 54.8897 74.09 54.8497H73.73C73.51 54.8297 73.31 54.8497 73.09 54.8497C72.15 54.8897 71.23 54.8897 70.3 54.8497C69.37 54.7997 68.45 54.7797 67.51 54.8397L66.6 54.8897C65.36 54.9597 64.65 55.1397 63.55 55.6397C62.03 56.3297 61.14 56.1797 59.81 57.1497C59.62 57.2897 59.39 57.4397 59.19 57.5697C58.35 58.0797 56.92 59.1897 56.24 59.8597L55.79 60.3097C54.91 61.1797 54.12 61.7797 53.57 62.9497C53.17 63.7997 53 64.6597 53.21 65.6097V88.9797C53.35 89.5897 53.25 90.1197 53.24 90.7197C53.2 91.8397 53.19 92.9497 53.24 94.0597C53.28 94.9397 53.59 95.7397 53.88 96.5497C54.13 97.2397 54.53 97.8597 55.06 98.3597C55.52 98.7997 57.21 99.8897 57.79 100.11C58.59 100.41 59.47 100.42 60.33 100.52C62.07 100.72 62.37 100.11 63.62 100.67C63.95 100.82 64.37 101.19 64.47 101.58C64.54 101.87 64.54 102.28 64.49 102.6C64.38 103.23 63.79 103.8 63.18 103.93C62.7 104.03 62.25 103.88 61.77 103.88H36.62C36.21 103.88 35.77 103.73 35.48 103.51C34.87 103.04 34.76 102.22 34.99 101.5C35.15 100.99 35.69 100.61 36.25 100.6L39.81 100.57C39.99 100.57 40.29 100.45 40.49 100.43C41.17 100.36 41.75 100.05 42.35 99.7697L43.12 99.4097C43.45 99.2597 43.83 99.0997 44.11 98.8097C44.6 98.3097 45.03 97.7597 45.49 97.2097C45.93 96.6897 46.1 95.9797 46.2 95.2997L46.33 94.2997C46.51 92.9597 46.18 92.2397 46.36 90.6897C46.45 89.9697 46.33 89.3097 46.33 88.5697L46.3 60.6897L46.02 58.1697C45.93 57.3497 45.56 56.6797 45.07 56.0497L44.55 55.3797C43.89 54.5297 42.3 54.4497 41.29 54.5697L40.67 54.6397C38.35 54.9197 39.24 54.9997 37.68 55.6697C37.46 55.7597 36.96 55.7597 36.75 55.6797C35.58 55.1997 34.84 53.5797 35.58 52.5497C35.99 52.1797 36.55 51.9597 37.1 51.8397C38.08 51.6097 38.93 51.1997 39.81 50.7397C40.91 50.1597 42.03 50.2797 43.7 49.4497L44.7 48.9497C45.41 48.5897 47 48.4297 48.3 47.7697C50.18 46.8097 50.68 46.9497 52.4 46.1797L53.38 45.7397C53.86 45.5197 54.33 45.3797 54.85 45.2597C55.42 45.1197 56.03 44.9697 56.51 45.4097C56.89 45.7497 56.87 46.3697 56.63 46.8297C55.75 48.4697 55.63 50.0497 55.08 51.3597C54.74 52.1697 54.41 52.9397 54.17 53.7897C53.91 54.7197 53.62 55.5897 53.14 56.4297C52.85 56.9297 52.51 58.2497 53.32 58.4797C53.59 58.5597 53.98 58.3697 54.21 58.1697L55.1 57.3497C55.87 56.6497 56.67 56.0597 57.42 55.3397C57.75 55.0197 58.09 54.7097 58.45 54.4097L60.28 52.8797L60.82 52.4397C61.22 52.1097 61.69 51.8097 62.07 51.4597C62.75 50.8197 63.43 50.3297 64.27 49.8897C64.98 49.5097 65.58 48.8597 66.68 48.3597C67.05 48.1897 67.36 48.0197 67.71 47.8097L68.37 47.4197C68.62 47.2697 68.91 47.1297 69.18 47.0397L70.35 46.6297C70.86 46.4497 71.34 46.2497 71.86 46.0997C73.2 45.7097 74.94 45.5397 76.26 46.0797C76.8 46.3097 77.3 46.5597 77.82 46.8397C78.27 47.0897 78.54 47.4697 78.78 47.9197C79.56 49.3697 79.73 50.5997 79.02 52.1497" fill="#90BEFB"/>
</g>
</g>
<defs>
<clipPath id="clip0_2561_7407">
<rect width="190.63" height="121.62" fill="white"/>
</clipPath>
</defs>
</svg>
