<svg width="552" height="183" viewBox="0 0 552 183" fill="none" xmlns="http://www.w3.org/2000/svg">
<g clip-path="url(#clip0_2561_20074)">
<mask id="mask0_2561_20074" style="mask-type:luminance" maskUnits="userSpaceOnUse" x="0" y="0" width="552" height="183">
<path d="M551.94 0H0V182.26H551.94V0Z" fill="white"/>
</mask>
<g mask="url(#mask0_2561_20074)">
<path d="M513.031 67.6291C510.961 71.7191 507.701 75.0591 503.771 77.4891C501.551 78.8491 498.961 79.4391 496.331 79.8891C492.381 80.5791 488.181 79.8191 484.421 78.4191C478.711 76.2691 478.161 72.0291 476.241 74.4291C481.511 79.4791 483.591 85.3991 482.871 92.6391C481.991 101.529 476.671 104.999 476.671 106.189C476.671 107.459 485.751 113.709 482.251 128.229C481.611 130.879 479.311 134.929 477.371 136.799C477.071 137.079 476.651 137.629 476.671 137.949C476.691 138.269 477.071 138.799 477.341 139.129C482.131 145.009 483.371 149.079 482.851 156.689C482.611 160.289 481.261 163.399 479.301 166.429C474.981 173.049 466.991 176.459 459.071 175.739C449.251 174.849 441.221 167.819 439.651 157.899C439.261 155.409 439.331 152.579 439.681 150.089C440.251 146.059 441.931 142.599 444.661 139.699C445.091 139.219 445.971 138.099 445.541 137.579C440.141 131.559 438.921 126.619 439.581 118.689C439.661 117.719 439.941 116.469 440.231 115.539C441.711 110.629 443.051 110.089 445.891 106.029L443.741 103.399C439.691 98.4291 438.891 92.6891 439.631 86.4791C440.561 78.6391 446.161 74.9791 445.781 74.1291C445.681 73.8891 445.411 73.5891 445.141 73.2591C441.721 69.0691 440.901 67.7891 439.671 62.2991C439.131 59.9191 439.821 56.7491 439.101 55.5391C440.031 55.1491 440.551 50.4691 440.621 50.2691C441.561 47.3291 444.871 42.9691 447.571 41.0091C453.151 36.9491 457.491 36.0291 464.381 36.6091C468.881 36.9891 473.481 39.7591 476.791 42.8291C477.581 42.9091 478.321 42.1291 478.891 41.6291C481.351 39.4991 484.291 37.8991 487.431 37.0591C489.281 36.5691 491.061 36.5191 492.931 36.4691C497.951 36.2991 502.461 37.8591 506.471 40.7891C509.111 42.7191 511.021 45.1891 512.631 48.0691C515.551 53.3091 515.701 62.4091 513.051 67.6191" fill="#90BEFB"/>
<path d="M541.51 136.529C541.03 137.089 540.1 137.719 540.73 138.519C542.39 140.659 544.16 142.729 545.2 145.249C548.39 152.999 547.17 162.279 541.51 168.569C534.83 175.999 524.25 177.839 515.33 173.679C509.01 170.729 504.58 164.689 503.45 157.739C503.08 155.419 503.35 153.089 503.4 150.519C503.42 149.449 503.9 148.129 504.19 147.149C505.17 143.879 507.13 141.189 509.37 138.669C509.9 138.069 509.44 137.539 509.01 137.059C506.99 134.849 505.3 132.319 504.36 129.439C504.02 128.409 503.55 127.049 503.47 126.009C502.76 117.689 503.8 113.059 509.31 106.789C509.78 106.249 509.69 105.709 509.15 105.159C506.17 102.179 504.16 98.4386 503.51 94.1286C503.14 91.7186 503.33 89.1786 503.41 86.6186C503.46 85.3486 504.78 81.3986 505.55 80.0486C508.18 75.3886 512.83 70.9986 518 69.4586C522.18 68.2086 525.33 67.8886 529.71 68.7986C537.47 70.4086 543.88 76.1786 546.07 83.8686C547.64 89.3886 547.11 95.1086 544.61 100.209C543.55 102.379 540.66 105.659 540.58 105.979C540.3 106.949 543.55 109.339 545.09 113.079C547.47 118.819 547.59 124.959 545.26 130.759C544.41 132.869 543 134.809 541.52 136.539" fill="#90BEFB"/>
<path d="M48.66 121.108C48.59 124.348 48.29 127.188 46.9 130.208C45.65 132.948 43.69 135.448 41.34 137.418C40.3 138.288 39.29 139.288 38.13 139.978C33.91 142.448 28.53 143.268 23.73 142.638C14.07 141.368 6.86 134.208 5.28 124.708C5.18 124.078 5.19 123.448 5.01 123.038V118.938C5.18 118.588 5.24 117.918 5.32 117.288C5.91 112.618 8.39 108.628 11.76 105.128C8.52 101.688 5.99 97.6783 5.29 92.9283C5.2 92.3283 5.22 91.5883 5 91.2783V87.1683C5.05 86.4083 5.29 85.2383 5.48 84.3583C7.09 76.9983 12.11 71.3283 19.07 68.6383C20.35 68.1383 21.64 67.8883 23.02 67.6083C30.91 66.0183 37.89 68.8583 43.23 74.7383L45.05 76.7383C48.33 80.3583 48.96 87.7283 48.45 92.5583C48.1 95.9583 46.83 99.1283 44.83 101.738L43.01 104.098L42.3 104.908C41.4 105.948 48.88 109.468 48.65 121.108" fill="#90BEFB"/>
<path d="M112.611 154.609C111.741 165.519 103.701 173.769 92.6905 174.679C87.6405 175.099 82.6905 173.889 78.5805 171.139C77.5605 170.469 76.5805 169.619 75.6705 168.839L75.0005 168.269C74.8505 168.139 74.3005 168.439 74.1505 168.579C69.1605 173.809 61.3905 175.689 54.3005 174.299C47.5105 172.989 41.8905 168.749 39.0605 162.399C36.9105 157.619 36.7605 155.179 37.1605 149.589C37.2605 148.219 37.8505 146.619 38.2805 145.329C39.6205 141.419 42.0905 138.419 45.2305 135.809C48.2605 133.279 51.9705 131.669 55.9805 131.269C63.6105 130.489 68.7905 132.449 74.4805 137.449C75.7205 138.539 78.8805 131.259 90.8105 131.109C97.9405 131.029 105.161 134.639 109.071 140.669C111.741 144.779 112.991 149.789 112.611 154.599" fill="#90BEFB"/>
<path d="M80.8604 57.1297C80.8604 69.2697 71.0204 79.0897 58.8904 79.0897C46.7604 79.0897 36.9004 69.2597 36.9004 57.1297C36.9004 44.9997 46.7504 35.1797 58.8904 35.1797C71.0304 35.1797 80.8604 45.0097 80.8604 57.1297Z" fill="#90BEFB"/>
<path d="M112.75 89.1292C112.75 101.239 102.91 111.069 90.7898 111.069C78.6698 111.069 68.8398 101.239 68.8398 89.1292C68.8398 77.0192 78.6698 67.1992 90.7898 67.1992C102.91 67.1992 112.75 77.0292 112.75 89.1292Z" fill="#90BEFB"/>
<path d="M203.01 62.5799C201.8 68.4999 200.34 70.8199 196.37 74.8299C191.58 79.6399 185.2 81.1499 178.62 80.4899C173.77 79.9999 169.44 77.8799 166.1 74.3999C165.89 74.1899 165.12 74.1299 164.88 74.2599C163.81 74.8899 166.2 76.4399 167.38 78.0899C173.49 86.6499 172.52 98.6799 164.86 106.49C164.49 106.85 165.4 107.64 165.69 107.96C171.07 113.66 172.78 122.51 170.12 129.97C169.22 132.52 167.98 134.97 166.11 136.93C165.55 137.51 165 138.16 164.71 138.95C166.65 140.78 168.15 142.58 169.2 144.98C173.26 154.26 171.83 163.73 164.18 170.6C163.92 170.83 164.08 171.81 164.21 171.97C163.23 171.99 162.5 172.24 161.73 172.8C158.82 174.94 155.39 175.84 151.71 176.26C146.41 176.89 140.73 175.39 136.42 172.27C131.21 168.51 128.31 162.89 127.63 156.64C126.97 150.53 129.15 144.48 133.16 139.95C133.53 139.55 134.11 138.94 134.06 138.56C134 138.16 133.33 137.64 133 137.26C128.98 132.55 126.93 126.36 127.65 120.16C128.16 115.83 130.01 111.58 132.79 108.44C133.24 107.95 134.55 107.13 134.01 106.52C131.6 103.87 129.83 101.15 128.66 97.7399C126.1 90.2999 127.82 81.9699 133.16 76.1299C135.48 73.5899 133.21 75.3899 129.85 68.6799C126.96 62.9299 126.8 56.6699 129.04 50.6799C130.03 48.0399 131.42 45.8499 133.57 43.8599C134.15 43.3099 133.75 42.0999 133.18 41.5499C131.42 39.8599 130.05 37.9799 129.17 35.6799C128.52 33.9699 127.77 32.0699 127.62 30.1899C127.46 28.1199 127.35 25.9999 127.62 23.8799C128.24 19.0999 130.63 14.4199 134.42 11.4499C137.05 9.38987 139.85 7.97987 142.64 6.15987L146.63 6.08987C148.54 5.05987 150.28 4.77987 152.39 5.14987C154.6 5.53987 156.89 5.83987 158.87 6.83987C160.77 7.79987 162.51 8.73987 164.01 10.1799C165.94 12.0399 167.86 13.8799 169.02 16.4299C172.07 23.1399 172.62 29.6299 169.45 36.5599C168.29 39.1099 166.1 41.0899 165.01 42.7099C164.89 42.8899 165.76 43.2199 165.94 43.0899L167.44 41.8899C168.73 40.8499 169.93 39.9999 171.41 39.2699C172.91 38.5299 174.39 37.6099 176.04 37.2899C179.65 36.5799 183.81 36.5599 187.35 37.5799C194.32 39.5699 200.22 44.6999 202.2 51.7799C203.35 55.8699 203.87 58.4299 203.02 62.5699" fill="#90BEFB"/>
<path d="M233.73 146.51C236.89 154.39 235.12 163.57 229.32 169.69C219.95 179.57 203.1 178.36 195.35 167.25C192.49 163.15 190.97 157.36 191.58 152.34C192.72 142.96 197.78 139.72 198.01 138.76C198.08 138.45 197.64 137.88 197.36 137.61C194.54 134.9 192.97 131.37 192.01 127.61C190.4 121.3 192.27 112.45 197.37 107.91C199.39 106.12 195.36 105.28 193.1 99.1496C190.83 92.9996 190.98 88.4496 193.08 82.3496C193.89 79.9796 195.25 78.2996 196.84 76.4996C200.91 71.8596 205.6 69.4196 211.83 68.9496C219.2 68.3896 226.43 71.5996 230.91 77.4996C232.45 79.5196 233.4 81.7296 234.22 84.1296C236.79 91.6296 234.68 100.08 229.31 105.86C229.05 106.14 228.68 106.51 228.66 106.76C228.62 107.07 229.09 107.57 229.4 107.81C230.79 108.96 231.65 110.47 232.53 112.09C235.34 117.3 236.16 123.29 234.33 128.98C233.35 132.05 231.95 134.9 229.71 137.24C229.32 137.66 228.47 138.53 228.68 139.06C231.14 141.13 232.55 143.61 233.72 146.51" fill="#90BEFB"/>
<path d="M351.5 164.408C350.19 167.118 348.29 169.298 346.05 171.298C342.66 174.338 338.42 175.858 333.78 176.308C321.01 177.538 309.79 167.528 310 155.158L310.02 153.398C310.11 148.108 312.31 143.088 316.12 139.558C316.38 139.318 316.42 138.578 316.29 138.328C316.18 138.068 315.24 137.978 315.02 138.228C309.99 144.078 300.88 145.698 293.61 143.648C291.28 142.988 288.98 142.058 287.14 140.498L284.44 138.198C284.23 138.028 283.39 138.138 283.31 138.338C282.65 139.988 291.17 143.768 289.57 157.848C288.98 163.138 286.26 167.638 282.31 171.208C275.19 177.628 263.63 178.028 255.66 172.828C248.96 168.468 245.81 161.288 246.13 153.438C246.58 142.388 253.57 139.648 252.25 138.108C250.99 136.648 249.69 135.118 248.73 133.378C246.37 129.118 245.65 123.858 246.35 119.098C248.22 106.438 260.28 98.7883 272.86 101.358C279.48 102.708 282.85 107.208 283.89 107.258C284.27 107.268 284.82 106.748 285.18 106.408C293.75 98.7783 307.04 98.9583 314.92 106.968C315.18 107.228 315.68 107.498 315.96 107.458C316.29 107.408 316.5 106.428 316.26 106.168L314.76 104.428C311.42 100.578 310.03 96.0383 309.98 91.0283C309.95 85.9283 311.25 81.2583 314.46 77.3583C318.51 72.4283 323.91 69.2483 330.43 68.9283C338.89 68.5183 347.04 72.6483 351.06 80.1783C354.35 86.3483 354.49 93.6783 351.73 100.088C350.46 103.038 347.22 106.178 347.26 106.758C347.36 108.148 352.2 110.848 353.4 119.218C354.36 125.978 352.65 132.638 347.86 137.568C347.35 138.098 347.09 139.098 347.7 139.678C354.26 146.028 355.27 156.638 351.47 164.428" fill="#90BEFB"/>
<path d="M321.42 62.8185C320.9 65.7985 319.84 68.5685 318.11 71.1285C317.59 71.8685 316.86 72.5885 316.23 73.3185C313.65 76.3085 310.01 78.8985 306.04 79.8785C299.96 81.3785 292.83 80.7685 287.63 77.0285C286.76 76.3985 285.95 75.7985 285.15 75.0985C284.83 74.8085 284.45 74.2985 284.15 74.2385C283.74 74.1685 283.08 74.5685 282.73 74.8985C275.37 82.2685 262.47 82.4385 254.44 76.2285C253.2 75.2585 252.18 74.3885 251.17 73.1485C248.66 70.0085 246.86 66.5385 246.37 62.3685C245.72 56.8585 246.47 51.2585 249.69 46.5785C253.23 41.4585 258.44 38.0385 264.7 37.2185C277.26 35.5685 282.49 43.3185 283.9 43.4185C284.93 43.4985 290.77 35.5085 303.1 37.2185C315.45 38.9185 323.62 50.5285 321.42 62.8185Z" fill="#90BEFB"/>
<path d="M417.46 152.359L417.68 156.329C417.52 163.699 413.87 169.869 407.86 173.949C405.65 175.439 402.79 176.519 400.19 176.859C399.95 176.889 399.48 177.189 399.44 177.259H392.58C388.22 176.469 384.24 174.789 380.89 171.669C371.76 163.179 371.52 148.589 380.67 139.589C378.52 137.429 376.56 134.369 375.15 131.829C375.02 131.599 374.22 131.549 374.25 131.359C374.28 131.169 374.48 130.549 374.42 130.339C373.74 127.899 372.88 125.109 373.25 122.419C373.51 120.559 373.9 118.869 374.63 117.159C375.9 114.179 377.26 111.259 379.52 108.909C379.81 108.609 380.45 108.129 380.47 107.789C380.49 107.449 380.04 106.859 379.73 106.529C371.56 97.8493 372.19 83.7893 380.45 75.9293C385.8 70.8493 392.19 69.2293 399.46 70.1593C404.58 70.8093 409.05 73.5193 412.52 77.3993C415.48 80.7093 417.89 86.6993 417.66 90.9293L417.45 94.5593C417.23 98.4293 414.65 103.989 411.81 106.669C411.54 106.929 411.1 107.479 411.16 107.789C411.22 108.039 411.57 108.489 411.82 108.719C415.2 111.799 417.08 116.829 417.65 121.349C418.02 128.449 416.23 134.239 410.94 139.499C414.44 143.159 417.17 147.349 417.44 152.339" fill="#90BEFB"/>
<path d="M417.77 27.9088C417.77 40.0188 407.94 49.8387 395.82 49.8387C383.7 49.8387 373.87 40.0188 373.87 27.9088C373.87 15.7988 383.7 5.96875 395.82 5.96875C407.94 5.96875 417.77 15.7988 417.77 27.9088Z" fill="#90BEFB"/>
<path d="M499.52 80.1299C498.06 77.7799 498.79 74.6999 501.14 73.2399C503.49 71.7899 506.57 72.5199 508.02 74.8599C509.47 77.2099 508.75 80.2899 506.4 81.7399C505.58 82.2499 504.67 82.4899 503.77 82.4899C502.1 82.4899 500.46 81.6499 499.52 80.1299Z" fill="black"/>
<path d="M491.4 80.7295C490.94 78.0095 492.77 75.4295 495.49 74.9595C498.22 74.4995 500.8 76.3294 501.26 79.0594C501.72 81.7794 499.89 84.3595 497.17 84.8195C496.88 84.8695 496.6 84.8895 496.32 84.8895C493.93 84.8895 491.81 83.1695 491.4 80.7295Z" fill="black"/>
<path d="M482.67 83.0998C480.08 82.1298 478.77 79.2498 479.74 76.6698C480.71 74.0798 483.59 72.7698 486.17 73.7398C488.76 74.7098 490.08 77.5898 489.11 80.1698C488.35 82.1798 486.45 83.4198 484.42 83.4198C483.84 83.4198 483.25 83.3198 482.67 83.0998Z" fill="black"/>
<path d="M473.121 78.3291C470.961 76.6091 470.611 73.4691 472.341 71.3091C474.061 69.1491 477.211 68.7991 479.361 70.5291C481.521 72.2491 481.871 75.3991 480.151 77.5491C479.161 78.7891 477.701 79.4291 476.241 79.4291C475.141 79.4291 474.041 79.0691 473.121 78.3291Z" fill="black"/>
<path d="M482.371 97.619C479.631 97.349 477.621 94.899 477.891 92.149C478.171 89.399 480.62 87.3989 483.36 87.6689C486.11 87.9489 488.121 90.3889 487.851 93.1389C487.591 95.7189 485.421 97.649 482.881 97.649C482.711 97.649 482.541 97.649 482.371 97.619Z" fill="black"/>
<path d="M471.66 106.199C471.66 103.439 473.9 101.199 476.67 101.199C479.42 101.199 481.66 103.439 481.66 106.199C481.66 108.959 479.42 111.199 476.67 111.199C473.9 111.199 471.66 108.959 471.66 106.199Z" fill="black"/>
<path d="M481.06 133.1C478.38 132.45 476.73 129.75 477.38 127.07C478.03 124.38 480.73 122.73 483.41 123.38C486.1 124.03 487.75 126.73 487.1 129.42C486.55 131.71 484.5 133.24 482.24 133.24C481.85 133.24 481.46 133.2 481.06 133.1Z" fill="black"/>
<path d="M473.761 140.279C471.851 138.299 471.901 135.129 473.891 133.209C475.881 131.299 479.041 131.349 480.961 133.339C482.881 135.329 482.821 138.489 480.831 140.409C479.861 141.339 478.611 141.809 477.361 141.809C476.051 141.809 474.741 141.299 473.761 140.279Z" fill="black"/>
<path d="M471.66 137.969C471.75 135.909 472.43 135.139 472.8 134.509C474.37 132.229 477.48 131.649 479.75 133.219C481.82 134.639 482.48 137.339 481.42 139.519C480.76 141.519 478.88 142.969 476.66 142.969C473.9 142.969 471.66 140.729 471.66 137.969Z" fill="black"/>
<path d="M473.49 142.339C473.26 142.059 473 141.729 472.71 141.259C471.23 138.929 471.93 135.839 474.26 134.359C476.59 132.889 479.66 133.579 481.14 135.899C481.14 135.899 481.16 135.929 481.17 135.949C482.94 138.069 482.65 141.219 480.52 142.989C479.59 143.759 478.46 144.139 477.33 144.139C475.9 144.139 474.47 143.529 473.48 142.339H473.49Z" fill="black"/>
<path d="M482.5 161.688C479.74 161.498 477.67 159.108 477.86 156.358C478.05 153.598 480.44 151.518 483.19 151.718C485.95 151.908 488.03 154.298 487.84 157.048C487.65 159.688 485.45 161.698 482.85 161.698C482.74 161.698 482.62 161.698 482.5 161.698V161.688Z" fill="black"/>
<path d="M476.57 170.628C474.25 169.128 473.6 166.028 475.1 163.718C476.6 161.398 479.701 160.738 482.01 162.248C484.33 163.748 484.99 166.848 483.49 169.158C482.53 170.638 480.93 171.438 479.29 171.438C478.36 171.438 477.41 171.178 476.57 170.628Z" fill="black"/>
<path d="M458.61 180.729C455.86 180.479 453.83 178.049 454.09 175.299C454.34 172.549 456.77 170.519 459.52 170.769C462.27 171.029 464.3 173.459 464.05 176.209C463.81 178.799 461.63 180.759 459.07 180.759C458.92 180.759 458.77 180.749 458.61 180.729Z" fill="black"/>
<path d="M434.7 158.7C434.27 155.98 436.13 153.41 438.85 152.98C441.58 152.55 444.14 154.4 444.58 157.13C445.01 159.86 443.15 162.42 440.43 162.85C440.16 162.9 439.9 162.92 439.64 162.92C437.22 162.92 435.1 161.16 434.7 158.7Z" fill="black"/>
<path d="M438.97 155.06C436.24 154.67 434.34 152.14 434.73 149.41C435.12 146.67 437.65 144.77 440.38 145.16C443.12 145.55 445.01 148.08 444.63 150.82C444.27 153.31 442.13 155.11 439.68 155.11C439.45 155.11 439.21 155.09 438.97 155.06Z" fill="black"/>
<path d="M441.22 143.359C439.22 141.469 439.13 138.299 441.02 136.289C442.91 134.289 446.08 134.189 448.09 136.089C450.1 137.989 450.19 141.149 448.29 143.159C447.31 144.199 445.98 144.719 444.66 144.719C443.42 144.719 442.19 144.269 441.22 143.359Z" fill="black"/>
<path d="M441.69 140.799C439.93 138.679 440.22 135.529 442.34 133.759C444.46 131.989 447.61 132.269 449.38 134.399C451.14 136.519 450.86 139.669 448.74 141.439C447.8 142.219 446.67 142.599 445.54 142.599C444.11 142.599 442.68 141.989 441.69 140.799Z" fill="black"/>
<path d="M439.16 123.689C436.41 123.469 434.36 121.049 434.59 118.299C434.82 115.549 437.23 113.499 439.98 113.729C442.73 113.949 444.78 116.369 444.56 119.119C444.34 121.729 442.16 123.709 439.58 123.709C439.44 123.709 439.31 123.709 439.16 123.689Z" fill="black"/>
<path d="M438.77 120.339C436.13 119.539 434.64 116.739 435.44 114.099C436.24 111.459 439.04 109.969 441.68 110.769C444.32 111.579 445.81 114.369 445.01 117.009C444.35 119.169 442.37 120.559 440.23 120.559C439.74 120.559 439.25 120.489 438.77 120.339Z" fill="black"/>
<path d="M443.02 110.15C440.75 108.57 440.2 105.45 441.78 103.19C443.36 100.92 446.48 100.37 448.74 101.95C451.01 103.53 451.56 106.65 449.98 108.91C449.01 110.31 447.45 111.05 445.88 111.05C444.89 111.05 443.89 110.76 443.02 110.15Z" fill="black"/>
<path d="M439.86 106.589C438.11 104.449 438.43 101.299 440.57 99.5492C442.7 97.7992 445.85 98.1192 447.6 100.259C449.35 102.389 449.03 105.549 446.9 107.289C445.97 108.049 444.85 108.419 443.74 108.419C442.29 108.419 440.85 107.789 439.86 106.589Z" fill="black"/>
<path d="M439.03 91.4684C436.29 91.1384 434.33 88.6584 434.65 85.9084C434.97 83.1684 437.46 81.2084 440.2 81.5284C442.94 81.8584 444.91 84.3384 444.58 87.0884C444.28 89.6284 442.12 91.4984 439.62 91.4984C439.43 91.4984 439.23 91.4984 439.03 91.4684Z" fill="black"/>
<path d="M441.2 76.1886C440.08 73.6686 441.2 70.7086 443.72 69.5886C446.24 68.4586 449.2 69.5786 450.33 72.0986C451.46 74.6186 450.33 77.5786 447.81 78.7086C447.15 79.0086 446.45 79.1486 445.77 79.1486C443.86 79.1486 442.03 78.0486 441.2 76.1886Z" fill="black"/>
<path d="M441.55 76.7998C441.55 76.7998 441.42 76.6398 441.27 76.4598C439.51 74.3298 439.81 71.1798 441.94 69.4198C444.07 67.6598 447.22 67.9598 448.98 70.0898C449.07 70.1998 449.2 70.3598 449.39 70.5898C451.1 72.7598 450.74 75.8998 448.57 77.6198C447.65 78.3398 446.56 78.6998 445.47 78.6998C444 78.6998 442.53 78.0498 441.55 76.7998Z" fill="black"/>
<path d="M434.77 63.4185C434.17 60.7185 435.86 58.0485 438.55 57.4385C441.25 56.8285 443.92 58.5285 444.53 61.2185C445.14 63.9185 443.45 66.5885 440.75 67.1985C440.38 67.2785 440.01 67.3185 439.65 67.3185C437.36 67.3185 435.3 65.7385 434.77 63.4185Z" fill="black"/>
<path d="M434.78 58.1193C433.37 55.7393 434.15 52.6693 436.52 51.2593C438.9 49.8493 441.96 50.6193 443.38 52.9993C444.79 55.3693 444.01 58.4293 441.64 59.8493C440.84 60.3293 439.96 60.5593 439.09 60.5593C437.38 60.5593 435.72 59.6793 434.78 58.1193Z" fill="black"/>
<path d="M438.94 54.9997C436.34 54.0797 434.97 51.2297 435.89 48.6197C436.8 46.0197 439.66 44.6497 442.26 45.5697C444.87 46.4897 446.23 49.3497 445.32 51.9497C444.59 53.9997 442.66 55.2897 440.6 55.2897C440.05 55.2897 439.49 55.1997 438.94 54.9997Z" fill="black"/>
<path d="M443.501 43.9601C441.881 41.7301 442.381 38.6001 444.621 36.9801C446.851 35.3601 449.981 35.8601 451.601 38.1001C453.221 40.3401 452.721 43.4601 450.481 45.0801C449.601 45.7201 448.571 46.0301 447.561 46.0301C446.011 46.0301 444.481 45.3101 443.501 43.9601Z" fill="black"/>
<path d="M463.941 41.6085C461.181 41.3785 459.141 38.9585 459.381 36.2085C459.611 33.4585 462.031 31.4185 464.781 31.6485C467.531 31.8785 469.571 34.2985 469.341 37.0485C469.121 39.6585 466.94 41.6285 464.37 41.6285C464.22 41.6285 464.081 41.6285 463.941 41.6085Z" fill="black"/>
<path d="M473.38 46.519C471.35 44.649 471.22 41.479 473.1 39.449C474.97 37.429 478.13 37.299 480.16 39.179C482.19 41.049 482.31 44.209 480.44 46.239C479.45 47.309 478.11 47.849 476.77 47.849C475.55 47.849 474.34 47.409 473.38 46.519Z" fill="black"/>
<path d="M475.12 44.9587C473.29 42.8887 473.491 39.7287 475.561 37.8987C477.631 36.0787 480.78 36.2687 482.62 38.3387C484.44 40.3987 484.25 43.5687 482.18 45.3887C481.23 46.2287 480.05 46.6487 478.87 46.6487C477.49 46.6487 476.11 46.0787 475.12 44.9587Z" fill="black"/>
<path d="M482.58 38.3802C481.86 35.7202 483.44 32.9702 486.1 32.2502C488.77 31.5302 491.51 33.1102 492.23 35.7802C492.95 38.4402 491.37 41.1902 488.71 41.9102C488.27 42.0202 487.83 42.0802 487.4 42.0802C485.2 42.0802 483.18 40.6102 482.58 38.3802Z" fill="black"/>
<path d="M487.901 36.639C487.821 33.879 489.991 31.569 492.741 31.489C495.511 31.399 497.811 33.569 497.901 36.329C497.981 39.089 495.821 41.389 493.061 41.479H492.901C490.211 41.479 487.991 39.349 487.901 36.639Z" fill="black"/>
<path d="M503.5 44.8387C501.26 43.2187 500.78 40.0887 502.4 37.8487C504.03 35.6287 507.16 35.1287 509.39 36.7587C511.62 38.3887 512.11 41.5187 510.48 43.7487C509.5 45.0887 507.98 45.7987 506.44 45.7987C505.42 45.7987 504.38 45.4887 503.5 44.8387Z" fill="black"/>
<path d="M508.24 50.5188C506.89 48.1088 507.75 45.0688 510.16 43.7188C512.57 42.3688 515.62 43.2288 516.96 45.6388C518.31 48.0488 517.45 51.0988 515.04 52.4488C514.27 52.8788 513.43 53.0788 512.61 53.0788C510.86 53.0788 509.15 52.1588 508.24 50.5188Z" fill="black"/>
<path d="M510.76 72.0887C508.29 70.8387 507.31 67.8187 508.57 65.3587C509.82 62.8987 512.83 61.9187 515.29 63.1787C517.75 64.4287 518.73 67.4387 517.48 69.8987C516.6 71.6387 514.84 72.6387 513.02 72.6387C512.26 72.6387 511.48 72.4587 510.76 72.0887Z" fill="black"/>
<path d="M536.8 141.62C535.09 139.44 535.47 136.3 537.64 134.59C539.82 132.89 542.96 133.27 544.66 135.44C546.37 137.61 545.99 140.75 543.82 142.46C542.91 143.18 541.82 143.53 540.74 143.53C539.26 143.53 537.79 142.87 536.8 141.62Z" fill="black"/>
<path d="M540.58 147.159C539.53 144.609 540.74 141.689 543.3 140.629C545.85 139.579 548.77 140.799 549.83 143.349C550.88 145.899 549.66 148.829 547.11 149.879C546.49 150.139 545.84 150.259 545.21 150.259C543.24 150.259 541.37 149.089 540.58 147.159Z" fill="black"/>
<path d="M538.17 172.3C536.12 170.45 535.95 167.29 537.79 165.24C539.63 163.18 542.8 163.01 544.85 164.86C546.91 166.7 547.08 169.86 545.23 171.92C544.24 173.02 542.88 173.58 541.51 173.58C540.32 173.58 539.13 173.15 538.17 172.3Z" fill="black"/>
<path d="M513.22 178.22C510.72 177.05 509.63 174.08 510.8 171.57C511.97 169.07 514.94 167.98 517.44 169.15C519.95 170.32 521.03 173.29 519.87 175.8C519.02 177.62 517.21 178.69 515.33 178.69C514.62 178.69 513.9 178.54 513.22 178.22Z" fill="black"/>
<path d="M498.51 158.549C498.07 155.819 499.92 153.249 502.64 152.809C505.37 152.359 507.94 154.219 508.38 156.939C508.83 159.659 506.98 162.229 504.25 162.679C503.98 162.719 503.71 162.749 503.44 162.749C501.03 162.749 498.91 160.999 498.51 158.549Z" fill="black"/>
<path d="M503.291 155.518C500.531 155.458 498.341 153.168 498.401 150.418C498.461 147.648 500.751 145.468 503.511 145.518C506.271 145.578 508.461 147.868 508.401 150.628C508.341 153.358 506.121 155.518 503.411 155.518H503.291Z" fill="black"/>
<path d="M502.801 151.96C500.151 151.19 498.621 148.41 499.391 145.76C500.161 143.11 502.931 141.58 505.581 142.35C508.241 143.12 509.761 145.89 508.991 148.54C508.361 150.73 506.361 152.15 504.191 152.15C503.731 152.15 503.261 152.09 502.801 151.96Z" fill="black"/>
<path d="M506.04 142.41C503.98 140.57 503.79 137.41 505.63 135.35C507.47 133.28 510.63 133.1 512.69 134.94C514.75 136.78 514.94 139.93 513.1 142C512.11 143.11 510.74 143.67 509.37 143.67C508.18 143.67 506.99 143.26 506.04 142.41Z" fill="black"/>
<path d="M505.22 140.33C503.45 138.28 503.63 135.18 505.65 133.36C507.69 131.5 510.86 131.66 512.71 133.71C512.94 134.01 513.57 134.51 514.19 135.99C515.2 138.55 513.94 141.46 511.37 142.47C510.77 142.71 510.15 142.82 509.54 142.82C507.79 142.82 506.12 141.89 505.22 140.33Z" fill="black"/>
<path d="M499.601 130.988C498.741 128.358 500.181 125.538 502.811 124.688C505.431 123.828 508.251 125.268 509.111 127.898C509.961 130.518 508.531 133.338 505.901 134.198C505.381 134.358 504.861 134.438 504.351 134.438C502.241 134.438 500.281 133.098 499.601 130.988Z" fill="black"/>
<path d="M498.47 126.388C498.27 123.638 500.33 121.238 503.08 121.028C505.83 120.818 508.24 122.878 508.45 125.628C508.65 128.388 506.59 130.788 503.84 130.998C503.71 131.008 503.58 131.008 503.45 131.008C500.86 131.008 498.67 129.008 498.47 126.388Z" fill="black"/>
<path d="M506 110.549C503.93 108.729 503.72 105.569 505.54 103.489C507.36 101.419 510.52 101.209 512.6 103.039C514.67 104.859 514.88 108.019 513.06 110.089C512.07 111.219 510.69 111.789 509.3 111.789C508.13 111.789 506.95 111.379 506 110.549Z" fill="black"/>
<path d="M505.04 108.02C503.66 106.05 503.87 103.32 505.64 101.59C507.62 99.6497 510.78 99.6897 512.71 101.66C513.41 102.38 514.25 103.48 514.54 105.19C514.95 107.92 513.08 110.47 510.35 110.89C510.09 110.93 509.84 110.95 509.59 110.95C507.62 110.95 505.84 109.78 505.04 108.02Z" fill="black"/>
<path d="M498.55 94.8792C498.14 92.1492 500.02 89.5992 502.75 89.1892C505.48 88.7792 508.03 90.6492 508.44 93.3892C508.85 96.1092 506.97 98.6592 504.24 99.0792C503.99 99.1092 503.74 99.1292 503.49 99.1292C501.06 99.1292 498.92 97.3592 498.55 94.8792Z" fill="black"/>
<path d="M503.23 91.6197C500.47 91.5397 498.31 89.2297 498.39 86.4697C498.48 83.7097 500.79 81.5397 503.55 81.6297C506.31 81.7097 508.47 84.0197 508.39 86.7797C508.3 89.4897 506.08 91.6197 503.4 91.6197H503.23Z" fill="black"/>
<path d="M503.06 84.3986C500.66 83.0386 499.82 79.9786 501.18 77.5786C502.55 75.1786 505.6 74.3386 508 75.7086C510.4 77.0686 511.24 80.1286 509.87 82.5286C508.95 84.1386 507.26 85.0486 505.52 85.0486C504.69 85.0486 503.84 84.8386 503.06 84.3986Z" fill="black"/>
<path d="M513.19 70.8888C512.4 68.2388 513.91 65.4588 516.56 64.6688C519.2 63.8788 521.98 65.3888 522.78 68.0288C523.56 70.6788 522.06 73.4588 519.41 74.2488C518.93 74.3888 518.45 74.4588 517.98 74.4588C515.83 74.4588 513.84 73.0588 513.19 70.8888Z" fill="black"/>
<path d="M528.69 73.6984C525.98 73.1384 524.24 70.4984 524.8 67.7884C525.35 65.0884 528 63.3484 530.7 63.8984C533.41 64.4584 535.15 67.0984 534.59 69.8084C534.11 72.1684 532.03 73.7984 529.7 73.7984C529.37 73.7984 529.03 73.7684 528.69 73.6984Z" fill="black"/>
<path d="M541.251 85.2396C540.491 82.5896 542.031 79.8196 544.691 79.0596C547.341 78.3096 550.111 79.8396 550.871 82.4996C551.631 85.1596 550.091 87.9196 547.431 88.6796C546.971 88.8096 546.511 88.8696 546.061 88.8696C543.881 88.8696 541.871 87.4396 541.251 85.2396Z" fill="black"/>
<path d="M542.4 104.7C539.91 103.48 538.89 100.49 540.11 98.0099C541.32 95.5299 544.32 94.5099 546.8 95.7199C549.28 96.9399 550.3 99.9299 549.09 102.41C548.22 104.18 546.44 105.21 544.59 105.21C543.85 105.21 543.1 105.05 542.4 104.7Z" fill="black"/>
<path d="M539.36 110.839C536.68 110.169 535.05 107.459 535.71 104.779C536.37 102.099 539.08 100.469 541.76 101.129C544.45 101.789 546.08 104.499 545.42 107.179C544.85 109.459 542.81 110.979 540.57 110.979C540.17 110.979 539.77 110.939 539.36 110.839Z" fill="black"/>
<path d="M540.45 114.979C539.4 112.429 540.62 109.509 543.17 108.459C545.72 107.399 548.64 108.619 549.7 111.169C550.75 113.719 549.54 116.639 546.99 117.699C546.36 117.959 545.71 118.079 545.08 118.079C543.11 118.079 541.25 116.909 540.45 114.979Z" fill="black"/>
<path d="M543.381 135.388C540.821 134.358 539.581 131.448 540.611 128.888C541.641 126.328 544.551 125.088 547.111 126.118C549.681 127.148 550.921 130.058 549.891 132.618C549.101 134.568 547.231 135.758 545.241 135.758C544.621 135.758 543.991 135.638 543.381 135.388Z" fill="black"/>
<path d="M538.28 140.349C536.17 138.569 535.91 135.409 537.7 133.299C539.48 131.199 542.64 130.939 544.75 132.719C546.85 134.509 547.11 137.659 545.33 139.769C544.34 140.939 542.93 141.539 541.51 141.539C540.37 141.539 539.22 141.149 538.28 140.349Z" fill="black"/>
<path d="M540.74 143.52C540.14 143.52 539.53 143.41 538.94 143.18C536.36 142.19 535.08 139.29 536.07 136.72L536.84 134.73C537.83 132.15 540.73 130.87 543.3 131.86C545.88 132.85 547.16 135.75 546.17 138.32L545.4 140.31C544.64 142.3 542.74 143.51 540.73 143.51L540.74 143.52Z" fill="black"/>
<path d="M44.8101 134.749C42.3001 133.589 41.2101 130.619 42.3601 128.109C43.5201 125.599 46.4901 124.509 49.0001 125.669C51.5101 126.829 52.6001 129.799 51.4401 132.299C50.6001 134.129 48.7901 135.209 46.9001 135.209C46.2001 135.209 45.4901 135.059 44.8101 134.749Z" fill="black"/>
<path d="M37.5006 140.62C35.7306 138.5 36.0106 135.35 38.1306 133.58C40.2506 131.81 43.4006 132.09 45.1806 134.21C46.9506 136.33 46.6606 139.48 44.5406 141.25C43.6106 142.03 42.4706 142.42 41.3406 142.42C39.9106 142.42 38.4906 141.8 37.5006 140.62Z" fill="black"/>
<path d="M33.8202 142.509C32.4202 140.129 33.2102 137.069 35.5902 135.669C37.9702 134.259 41.0402 135.059 42.4302 137.439C43.8402 139.819 43.0402 142.889 40.6602 144.279C39.8602 144.749 38.9902 144.979 38.1302 144.979C36.4202 144.979 34.7502 144.099 33.8202 142.509Z" fill="black"/>
<path d="M23.0798 147.6C20.3398 147.24 18.4098 144.73 18.7698 141.99C19.1298 139.25 21.6398 137.32 24.3698 137.68C27.1098 138.04 29.0398 140.55 28.6898 143.28C28.3598 145.8 26.2098 147.64 23.7398 147.64C23.5198 147.64 23.2998 147.62 23.0798 147.6Z" fill="black"/>
<path d="M0.349787 125.529C-0.110213 122.809 1.72979 120.229 4.44979 119.779C7.16979 119.319 9.74979 121.159 10.2098 123.889C10.6598 126.609 8.81979 129.189 6.09979 129.639C5.81979 129.689 5.53979 129.709 5.26979 129.709C2.86979 129.709 0.749787 127.979 0.349787 125.529Z" fill="black"/>
<path d="M0.219887 124.5C-0.510113 122.11 0.639887 119.5 2.97989 118.47C5.50989 117.35 8.45989 118.5 9.57989 121.02C10.0699 122.22 10.0799 122.9 10.1499 123.33C10.4399 126.07 8.45989 128.54 5.70989 128.84C5.52989 128.86 5.34989 128.87 5.16989 128.87C2.67989 128.87 0.529887 127.01 0.219887 124.5Z" fill="black"/>
<path d="M0 118.939C0 116.179 2.24 113.939 5 113.939C7.76 113.939 10 116.179 10 118.939C10 121.699 7.76 123.939 5 123.939C2.24 123.939 0 121.699 0 118.939Z" fill="black"/>
<path d="M4.47 123.07C1.74 122.67 -0.150003 120.13 0.259997 117.4C0.279997 117.26 0.309997 117 0.349997 116.66C0.699997 113.92 3.21 111.99 5.95 112.34C8.68 112.69 10.62 115.19 10.27 117.93C10.24 118.15 10.21 118.46 10.15 118.86C9.78 121.34 7.65 123.13 5.21 123.13C4.97 123.13 4.72 123.11 4.47 123.07Z" fill="black"/>
<path d="M8.28011 108.729C6.30011 106.819 6.24011 103.649 8.16011 101.669C10.0701 99.6788 13.2401 99.6188 15.2201 101.539C17.2101 103.449 17.2701 106.619 15.3501 108.609C14.3701 109.619 13.0601 110.139 11.7501 110.139C10.5001 110.139 9.25011 109.669 8.28011 108.729Z" fill="black"/>
<path d="M0.340519 93.6592C-0.0594805 90.9292 1.83052 88.3892 4.56052 87.9792C7.29052 87.5792 9.83052 89.4692 10.2305 92.1992C10.6405 94.9392 8.75052 97.4792 6.01052 97.8792C5.77052 97.9192 5.52052 97.9292 5.28052 97.9292C2.84052 97.9292 0.70052 96.1492 0.340519 93.6592Z" fill="black"/>
<path d="M0.260175 92.8885C-0.429825 90.8485 0.260175 88.5085 2.12018 87.1985C4.37018 85.6085 7.49018 86.1485 9.08018 88.3985C10.3002 90.3785 10.0302 91.0685 10.1802 91.6085C10.4502 94.3485 8.44018 96.7985 5.69018 97.0685C5.53018 97.0885 5.36018 97.0985 5.20018 97.0985C2.76018 97.0985 0.650175 95.3185 0.260175 92.8885Z" fill="black"/>
<path d="M0 87.1699C0 84.4099 2.24 82.1699 5 82.1699C7.76 82.1699 10 84.4099 10 87.1699C10 89.9299 7.76 92.1699 5 92.1699C2.24 92.1699 0 89.9299 0 87.1699Z" fill="black"/>
<path d="M4.40044 89.2383C1.71044 88.6483 0.000441886 85.9783 0.600442 83.2783C1.19044 80.5883 3.86044 78.8883 6.56044 79.4783C9.25044 80.0683 10.9604 82.7383 10.3604 85.4383C9.85044 87.7683 7.78044 89.3583 5.49044 89.3583C5.13044 89.3583 4.77044 89.3283 4.40044 89.2383Z" fill="black"/>
<path d="M14.4105 70.4389C13.4105 67.8689 14.6905 64.9689 17.2605 63.9789C19.8405 62.9789 22.7305 64.2589 23.7305 66.8289C24.7305 69.4089 23.4505 72.2989 20.8705 73.2989C20.2805 73.5289 19.6705 73.6389 19.0705 73.6389C17.0605 73.6389 15.1705 72.4289 14.4105 70.4389Z" fill="black"/>
<path d="M18.1199 68.5787C17.5799 65.8687 19.3399 63.2387 22.0499 62.7087C24.7599 62.1687 27.3899 63.9287 27.9199 66.6387C28.4599 69.3487 26.6999 71.9787 23.9899 72.5187C23.6599 72.5787 23.3399 72.6087 23.0199 72.6087C20.6799 72.6087 18.5899 70.9587 18.1199 68.5787Z" fill="black"/>
<path d="M39.5299 78.0983C37.6799 76.0583 37.8299 72.8983 39.8699 71.0383C41.9099 69.1783 45.0799 69.3283 46.9299 71.3783C48.7899 73.4183 48.6399 76.5783 46.5999 78.4383C45.6399 79.3083 44.4399 79.7383 43.2399 79.7383C41.8799 79.7383 40.5199 79.1883 39.5299 78.0983Z" fill="black"/>
<path d="M41.3499 80.0987C39.4899 78.0587 39.6399 74.8887 41.6899 73.0387C43.7299 71.1787 46.8899 71.3387 48.7499 73.3787C50.6099 75.4187 50.4599 78.5887 48.4099 80.4387C47.4499 81.3087 46.2499 81.7387 45.0499 81.7387C43.6899 81.7387 42.3399 81.1887 41.3499 80.0987Z" fill="black"/>
<path d="M47.9404 97.529C45.1904 97.239 43.2004 94.779 43.4804 92.039C43.7704 89.289 46.2304 87.299 48.9704 87.579C51.7204 87.869 53.7104 90.329 53.4304 93.079C53.1604 95.639 50.9904 97.549 48.4704 97.549C48.2904 97.549 48.1204 97.539 47.9404 97.529Z" fill="black"/>
<path d="M41.7898 105.699C39.5998 104.019 39.1898 100.879 40.8698 98.6887C42.5498 96.4987 45.6898 96.0787 47.8798 97.7587C50.0698 99.4387 50.4798 102.579 48.7998 104.769C47.8198 106.059 46.3298 106.729 44.8298 106.729C43.7698 106.729 42.6998 106.389 41.7898 105.699Z" fill="black"/>
<path d="M39.9705 108.06C37.7805 106.38 37.3705 103.24 39.0505 101.05C40.7305 98.8596 43.8705 98.4496 46.0605 100.13C48.2505 101.81 48.6705 104.95 46.9805 107.14C46.0005 108.42 44.5105 109.1 43.0105 109.1C41.9505 109.1 40.8805 108.76 39.9705 108.06Z" fill="black"/>
<path d="M39.03 108.68C36.94 106.87 36.72 103.71 38.54 101.63L38.89 101.22C40.7 99.1398 43.86 98.9198 45.95 100.73C48.03 102.54 48.25 105.7 46.43 107.78L46.08 108.19C45.09 109.33 43.7 109.91 42.31 109.91C41.14 109.91 39.97 109.5 39.03 108.68Z" fill="black"/>
<path d="M48.5797 126.11C45.8197 126.06 43.6197 123.79 43.6597 121.03C43.7097 118.26 45.9897 116.07 48.7497 116.11C51.5097 116.16 53.7097 118.43 53.6597 121.2C53.6197 123.93 51.3897 126.11 48.6597 126.11H48.5797Z" fill="black"/>
<path d="M87.71 175.089C87.48 172.339 89.53 169.919 92.28 169.699C95.03 169.469 97.45 171.519 97.67 174.269C97.9 177.019 95.85 179.439 93.1 179.659C92.96 179.679 92.82 179.679 92.69 179.679C90.11 179.679 87.92 177.699 87.71 175.089Z" fill="black"/>
<path d="M75.8003 175.289C73.5003 173.759 72.8903 170.649 74.4203 168.349C75.9603 166.059 79.0703 165.449 81.3603 166.979C83.6503 168.519 84.2703 171.619 82.7303 173.919C81.7703 175.359 80.1803 176.139 78.5703 176.139C77.6203 176.139 76.6503 175.859 75.8003 175.289Z" fill="black"/>
<path d="M72.4205 172.65C70.3205 170.86 70.0706 167.7 71.8606 165.6C73.6406 163.5 76.8006 163.24 78.9006 165.03C81.0106 166.82 81.2606 169.98 79.4706 172.08C78.4806 173.24 77.0806 173.84 75.6606 173.84C74.5206 173.84 73.3705 173.45 72.4205 172.65Z" fill="black"/>
<path d="M72.0906 172.37L71.7506 172.08C69.6506 170.29 69.3906 167.14 71.1806 165.03C72.9706 162.93 76.1206 162.67 78.2306 164.46L78.5606 164.74C80.6706 166.53 80.9206 169.69 79.1406 171.79C78.1506 172.96 76.7406 173.56 75.3306 173.56C74.1806 173.56 73.0306 173.16 72.0906 172.37Z" fill="black"/>
<path d="M70.4802 171.978C68.6002 169.958 68.7102 166.798 70.7402 164.918C71.2102 164.488 71.4302 164.368 71.6902 164.198C71.9502 164.038 72.1802 163.918 72.4802 163.778C74.9902 162.638 77.9602 163.758 79.1002 166.268C80.1802 168.658 79.2202 171.458 76.9702 172.708C76.1202 173.288 75.1302 173.578 74.1402 173.578C72.8002 173.578 71.4702 173.038 70.4802 171.978Z" fill="black"/>
<path d="M53.3397 179.209C50.6297 178.679 48.8597 176.049 49.3897 173.339C49.9197 170.629 52.5397 168.859 55.2497 169.389C57.9597 169.929 59.7297 172.549 59.1997 175.259C58.7397 177.649 56.6397 179.299 54.2997 179.299C53.9797 179.299 53.6597 179.269 53.3397 179.209Z" fill="black"/>
<path d="M34.4902 164.45C33.3602 161.93 34.4902 158.97 37.0102 157.84C39.5302 156.72 42.4902 157.84 43.6202 160.37C44.7402 162.89 43.6202 165.85 41.0902 166.97C40.4302 167.27 39.7402 167.41 39.0602 167.41C37.1402 167.41 35.3202 166.31 34.4902 164.45Z" fill="black"/>
<path d="M36.8006 154.579C34.0406 154.389 31.9706 151.989 32.1706 149.239C32.3706 146.479 34.7606 144.409 37.5106 144.609C40.2706 144.809 42.3406 147.199 42.1406 149.959C41.9506 152.589 39.7606 154.599 37.1606 154.599C37.0406 154.599 36.9206 154.599 36.8006 154.579Z" fill="black"/>
<path d="M36.6804 150.08C34.0604 149.2 32.6504 146.36 33.5304 143.74C34.4104 141.12 37.2504 139.72 39.8704 140.59C42.4904 141.48 43.8904 144.31 43.0204 146.93C42.3104 149.02 40.3704 150.34 38.2804 150.34C37.7504 150.34 37.2104 150.25 36.6804 150.08Z" fill="black"/>
<path d="M41.3801 139.009C39.6101 136.879 39.9101 133.729 42.0301 131.969C44.1601 130.199 47.3101 130.499 49.0701 132.629C50.8301 134.749 50.5401 137.899 48.4101 139.659C47.4801 140.439 46.3501 140.819 45.2301 140.819C43.7901 140.819 42.3601 140.199 41.3801 139.009Z" fill="black"/>
<path d="M51.0007 131.78C50.7207 129.03 52.7307 126.58 55.4807 126.3C58.2307 126.03 60.6707 128.03 60.9507 130.78C61.2307 133.53 59.2207 135.98 56.4707 136.26C56.3007 136.26 56.1307 136.28 55.9707 136.28C53.4307 136.28 51.2607 134.36 51.0007 131.78Z" fill="black"/>
<path d="M71.1705 141.219C69.1005 139.389 68.9005 136.239 70.7205 134.159C72.5405 132.089 75.7005 131.879 77.7805 133.709C79.8505 135.529 80.0505 138.689 78.2305 140.759C77.2405 141.889 75.8605 142.459 74.4705 142.459C73.3005 142.459 72.1205 142.049 71.1705 141.219Z" fill="black"/>
<path d="M85.8001 131.179C85.7701 128.419 87.9801 126.149 90.7401 126.119C93.5001 126.089 95.7701 128.299 95.8001 131.059C95.8401 133.819 93.6301 136.089 90.8701 136.119H90.8001C88.0701 136.119 85.8401 133.919 85.8001 131.179Z" fill="black"/>
<path d="M104.87 143.399C103.37 141.089 104.03 137.989 106.35 136.489C108.66 134.989 111.76 135.649 113.26 137.969C114.76 140.289 114.1 143.379 111.78 144.879C110.94 145.429 110 145.689 109.07 145.689C107.43 145.689 105.83 144.879 104.87 143.399Z" fill="black"/>
<path d="M112.22 159.599C109.46 159.379 107.41 156.979 107.62 154.229C107.83 151.469 110.24 149.409 112.99 149.629C115.75 149.839 117.81 152.249 117.59 154.999C117.39 157.619 115.2 159.619 112.61 159.619C112.48 159.619 112.35 159.619 112.22 159.599Z" fill="black"/>
<path d="M53.8906 79.0898C53.8906 76.3298 56.1306 74.0898 58.8906 74.0898C61.6506 74.0898 63.8906 76.3298 63.8906 79.0898C63.8906 81.8598 61.6506 84.0898 58.8906 84.0898C56.1306 84.0898 53.8906 81.8598 53.8906 79.0898Z" fill="black"/>
<path d="M31.9004 57.1289C31.9004 54.3689 34.1404 52.1289 36.9004 52.1289C39.6704 52.1289 41.9104 54.3689 41.9104 57.1289C41.9104 59.8889 39.6704 62.1289 36.9004 62.1289C34.1404 62.1289 31.9004 59.8889 31.9004 57.1289Z" fill="black"/>
<path d="M53.8906 35.1797C53.8906 32.4197 56.1306 30.1797 58.8906 30.1797C61.6506 30.1797 63.8906 32.4197 63.8906 35.1797C63.8906 37.9397 61.6506 40.1797 58.8906 40.1797C56.1306 40.1797 53.8906 37.9397 53.8906 35.1797Z" fill="black"/>
<path d="M75.8604 57.1289C75.8604 54.3689 78.1004 52.1289 80.8604 52.1289C83.6204 52.1289 85.8604 54.3689 85.8604 57.1289C85.8604 59.8889 83.6204 62.1289 80.8604 62.1289C78.1004 62.1289 75.8604 59.8889 75.8604 57.1289Z" fill="black"/>
<path d="M85.7803 111.08C85.7803 108.31 88.0203 106.08 90.7803 106.08C93.5403 106.08 95.7803 108.31 95.7803 111.08C95.7803 113.84 93.5403 116.08 90.7803 116.08C88.0203 116.08 85.7803 113.84 85.7803 111.08Z" fill="black"/>
<path d="M63.8301 89.1387C63.8301 86.3787 66.0701 84.1387 68.8301 84.1387C71.5901 84.1387 73.8301 86.3787 73.8301 89.1387C73.8301 91.8987 71.5901 94.1387 68.8301 94.1387C66.0701 94.1387 63.8301 91.8987 63.8301 89.1387Z" fill="black"/>
<path d="M85.7803 67.209C85.7803 64.449 88.0203 62.209 90.7803 62.209C93.5403 62.209 95.7803 64.449 95.7803 67.209C95.7803 69.969 93.5403 72.209 90.7803 72.209C88.0203 72.209 85.7803 69.969 85.7803 67.209Z" fill="black"/>
<path d="M107.74 89.1387C107.74 86.3787 109.98 84.1387 112.74 84.1387C115.5 84.1387 117.74 86.3787 117.74 89.1387C117.74 91.8987 115.5 94.1387 112.74 94.1387C109.98 94.1387 107.74 91.8987 107.74 89.1387Z" fill="black"/>
<path d="M192.851 78.3894C190.881 76.4394 190.871 73.2794 192.811 71.3094C194.751 69.3494 197.921 69.3294 199.881 71.2794C201.841 73.2194 201.861 76.3794 199.921 78.3494C198.941 79.3394 197.661 79.8294 196.371 79.8294C195.101 79.8294 193.831 79.3494 192.851 78.3894Z" fill="black"/>
<path d="M178.12 85.4588C175.37 85.1888 173.37 82.7288 173.65 79.9888C173.92 77.2388 176.38 75.2388 179.12 75.5088C181.87 75.7888 183.87 78.2388 183.59 80.9888C183.33 83.5688 181.16 85.4888 178.62 85.4888C178.45 85.4888 178.29 85.4888 178.12 85.4588Z" fill="black"/>
<path d="M162.49 77.8588C160.58 75.8688 160.64 72.7088 162.63 70.7888C164.63 68.8788 167.79 68.9388 169.7 70.9388C171.61 72.9288 171.55 76.0888 169.56 77.9988C168.59 78.9288 167.34 79.3988 166.09 79.3988C164.78 79.3988 163.47 78.8788 162.49 77.8588Z" fill="black"/>
<path d="M160.541 76.7495C159.161 74.3595 159.991 71.2995 162.381 69.9295C164.781 68.5495 167.831 69.3695 169.211 71.7695C170.591 74.1595 169.761 77.2195 167.361 78.5995C166.581 79.0495 165.721 79.2595 164.881 79.2595C163.151 79.2595 161.461 78.3595 160.541 76.7495Z" fill="black"/>
<path d="M163.311 80.9995C161.701 78.7495 162.221 75.6295 164.471 74.0195C166.721 72.4095 169.841 72.9295 171.441 75.1795C173.051 77.4295 172.531 80.5495 170.281 82.1595C169.401 82.7895 168.381 83.0895 167.381 83.0895C165.821 83.0895 164.281 82.3595 163.311 80.9995Z" fill="black"/>
<path d="M161.35 110.049C159.38 108.119 159.35 104.949 161.28 102.979C163.22 101.009 166.39 100.979 168.36 102.919C170.33 104.849 170.35 108.019 168.42 109.989C167.44 110.989 166.15 111.479 164.85 111.479C163.59 111.479 162.32 111.009 161.35 110.049Z" fill="black"/>
<path d="M162.05 111.389L162.01 111.349C162.01 111.349 161.9 111.239 161.82 111.159C161.66 110.989 161.44 110.759 161.16 110.419C159.43 108.269 159.78 105.129 161.93 103.389C164.07 101.669 167.19 101.999 168.93 104.119V104.139C168.93 104.139 168.95 104.159 168.98 104.179C169.04 104.249 169.13 104.329 169.33 104.539C171.21 106.559 171.11 109.729 169.09 111.609C168.12 112.509 166.9 112.959 165.67 112.959C164.34 112.959 163.02 112.429 162.04 111.389H162.05Z" fill="black"/>
<path d="M168.45 134.68C165.84 133.75 164.48 130.89 165.4 128.29C166.33 125.69 169.19 124.33 171.79 125.26C174.39 126.18 175.76 129.04 174.83 131.64C174.1 133.69 172.18 134.97 170.12 134.97C169.57 134.97 169 134.87 168.45 134.68Z" fill="black"/>
<path d="M162.65 140.529C160.65 138.619 160.59 135.459 162.5 133.459C164.41 131.469 167.58 131.409 169.57 133.319C171.56 135.229 171.63 138.389 169.71 140.389C168.73 141.409 167.42 141.929 166.11 141.929C164.86 141.929 163.62 141.459 162.65 140.529Z" fill="black"/>
<path d="M162.94 143.629C160.36 142.659 159.05 139.779 160.02 137.189C160.99 134.599 163.87 133.299 166.46 134.259C169.04 135.229 170.36 138.119 169.38 140.699C168.63 142.709 166.73 143.949 164.7 143.949C164.12 143.949 163.52 143.849 162.94 143.629Z" fill="black"/>
<path d="M164.61 146.99C163.5 144.46 164.66 141.51 167.18 140.4C169.71 139.29 172.66 140.44 173.77 142.97C174.88 145.5 173.73 148.45 171.2 149.56C170.54 149.85 169.86 149.98 169.19 149.98C167.27 149.98 165.43 148.86 164.61 146.99Z" fill="black"/>
<path d="M160.45 173.939C158.61 171.889 158.78 168.719 160.83 166.879C162.89 165.039 166.05 165.199 167.9 167.259C169.74 169.309 169.57 172.469 167.52 174.319C166.56 175.179 165.37 175.599 164.18 175.599C162.81 175.599 161.44 175.039 160.45 173.939Z" fill="black"/>
<path d="M160.421 175.23C159.751 174.41 159.651 174.02 159.501 173.69C159.371 173.36 159.311 173.13 159.251 172.91C159.141 172.47 159.091 172.09 159.061 171.65C158.851 168.9 160.921 166.5 163.671 166.3C166.261 166.1 168.541 167.92 168.971 170.44C169.571 172.3 169.041 174.41 167.471 175.76C166.521 176.57 165.371 176.97 164.211 176.97C162.811 176.97 161.411 176.38 160.421 175.23Z" fill="black"/>
<path d="M157.69 175.749C156.06 173.519 156.55 170.399 158.78 168.769C161.01 167.139 164.14 167.629 165.77 169.859C167.4 172.089 166.91 175.209 164.68 176.839C163.79 177.489 162.76 177.799 161.74 177.799C160.19 177.799 158.67 177.089 157.69 175.749Z" fill="black"/>
<path d="M146.74 176.84C146.42 174.1 148.4 171.61 151.14 171.3C153.88 170.98 156.36 172.95 156.68 175.7C156.99 178.44 155.02 180.92 152.28 181.23C152.08 181.26 151.89 181.27 151.7 181.27C149.2 181.27 147.03 179.39 146.74 176.84Z" fill="black"/>
<path d="M133.49 176.33C131.25 174.71 130.75 171.58 132.37 169.35C133.99 167.11 137.12 166.61 139.35 168.23C141.59 169.85 142.09 172.98 140.47 175.21C139.49 176.56 137.96 177.28 136.42 177.28C135.4 177.28 134.37 176.97 133.49 176.33Z" fill="black"/>
<path d="M122.66 157.178C122.36 154.438 124.35 151.968 127.1 151.678C129.84 151.378 132.31 153.358 132.6 156.108C132.9 158.858 130.91 161.318 128.17 161.618C127.99 161.638 127.81 161.648 127.62 161.648C125.1 161.648 122.94 159.748 122.66 157.178Z" fill="black"/>
<path d="M129.85 143.7C127.78 141.87 127.59 138.71 129.42 136.64C131.25 134.57 134.41 134.38 136.48 136.21C138.54 138.04 138.74 141.2 136.91 143.26C135.92 144.38 134.54 144.95 133.16 144.95C131.98 144.95 130.8 144.54 129.85 143.7Z" fill="black"/>
<path d="M130.661 143.269C128.671 141.729 128.161 138.989 129.361 136.869C130.061 134.939 131.901 133.559 134.071 133.559C136.831 133.559 139.061 135.799 139.061 138.559C138.961 140.889 138.041 141.799 137.671 142.379C136.691 143.649 135.211 144.319 133.721 144.319C132.651 144.319 131.571 143.969 130.661 143.269Z" fill="black"/>
<path d="M130.01 141.349C129.94 141.269 129.69 141.059 129.2 140.489C127.41 138.389 127.66 135.239 129.76 133.449C131.84 131.679 134.95 131.909 136.74 133.939C136.74 133.939 136.77 133.969 136.8 133.999C136.88 134.069 137.01 134.199 137.18 134.379C139.11 136.349 139.07 139.519 137.08 141.449C136.11 142.389 134.86 142.859 133.6 142.859C132.3 142.859 130.99 142.359 130.01 141.349Z" fill="black"/>
<path d="M127.08 125.128C124.34 124.808 122.37 122.328 122.69 119.578C123.01 116.838 125.49 114.878 128.24 115.198C130.98 115.508 132.94 117.998 132.62 120.738C132.33 123.288 130.16 125.158 127.66 125.158C127.47 125.158 127.27 125.158 127.08 125.128Z" fill="black"/>
<path d="M129.49 112.19C127.42 110.36 127.22 107.2 129.05 105.13C130.88 103.06 134.04 102.86 136.11 104.69C138.18 106.52 138.37 109.68 136.55 111.75C135.56 112.87 134.18 113.44 132.8 113.44C131.62 113.44 130.44 113.03 129.49 112.19Z" fill="black"/>
<path d="M130.29 109.85C128.45 107.79 128.63 104.63 130.69 102.79C132.75 100.95 135.91 101.13 137.75 103.19C139.59 105.25 139.41 108.41 137.35 110.25C136.4 111.1 135.21 111.52 134.02 111.52C132.65 111.52 131.28 110.96 130.29 109.85Z" fill="black"/>
<path d="M123.94 99.3593C123.05 96.7493 124.44 93.9093 127.05 93.0093C129.67 92.1193 132.51 93.5093 133.4 96.1193C134.3 98.7293 132.91 101.579 130.29 102.469C129.75 102.659 129.21 102.749 128.67 102.749C126.59 102.749 124.65 101.439 123.94 99.3593Z" fill="black"/>
<path d="M129.8 79.8184C127.76 77.9584 127.62 74.7984 129.48 72.7584C131.35 70.7184 134.51 70.5784 136.55 72.4384C138.59 74.3084 138.73 77.4684 136.87 79.5084C135.88 80.5884 134.53 81.1384 133.17 81.1384C131.97 81.1384 130.76 80.6984 129.8 79.8184Z" fill="black"/>
<path d="M125.39 70.9196C124.15 68.4496 125.15 65.4496 127.62 64.2096C130.09 62.9796 133.09 63.9796 134.33 66.4496C135.57 68.9196 134.57 71.9196 132.1 73.1596C131.38 73.5196 130.62 73.6896 129.87 73.6896C128.03 73.6896 126.27 72.6696 125.39 70.9196Z" fill="black"/>
<path d="M127.29 55.3694C124.71 54.3994 123.4 51.5194 124.37 48.9294C125.33 46.3494 128.22 45.0394 130.8 46.0094C133.39 46.9694 134.7 49.8494 133.73 52.4394C132.98 54.4494 131.07 55.6894 129.05 55.6894C128.46 55.6894 127.87 55.5894 127.29 55.3694Z" fill="black"/>
<path d="M129.91 47.2601C128.03 45.2401 128.15 42.0701 130.18 40.2001C132.21 38.3201 135.37 38.4401 137.24 40.4701C139.12 42.5001 139 45.6601 136.97 47.5301C136.01 48.4301 134.79 48.8701 133.58 48.8701C132.23 48.8701 130.89 48.3301 129.91 47.2601Z" fill="black"/>
<path d="M129.72 45.1601C127.73 43.2501 127.67 40.0801 129.58 38.0901C131.5 36.1001 134.66 36.0401 136.65 37.9501C138.64 39.8701 138.71 43.0301 136.79 45.0201C135.81 46.0401 134.5 46.5601 133.19 46.5601C131.94 46.5601 130.69 46.0901 129.72 45.1601Z" fill="black"/>
<path d="M124.5 37.4595C123.52 34.8795 124.82 31.9895 127.4 31.0095C129.98 30.0295 132.87 31.3195 133.85 33.9095C134.83 36.4895 133.54 39.3795 130.95 40.3595C130.37 40.5795 129.77 40.6895 129.18 40.6895C127.16 40.6895 125.26 39.4595 124.5 37.4595Z" fill="black"/>
<path d="M122.64 30.5892C122.42 27.8392 124.48 25.4292 127.23 25.2192C129.99 24.9992 132.39 27.0592 132.61 29.8092C132.82 32.5592 130.76 34.9692 128.01 35.1792C127.88 35.1992 127.75 35.1992 127.62 35.1992C125.03 35.1992 122.84 33.2092 122.64 30.5892Z" fill="black"/>
<path d="M126.98 28.8497C124.24 28.4997 122.31 25.9897 122.66 23.2497C123.02 20.5097 125.53 18.5797 128.27 18.9297C131 19.2897 132.93 21.7997 132.58 24.5297C132.25 27.0497 130.11 28.8897 127.63 28.8897C127.41 28.8897 127.2 28.8797 126.98 28.8497Z" fill="black"/>
<path d="M130.48 14.5398C128.78 12.3698 129.16 9.22979 131.33 7.51979C133.51 5.81979 136.65 6.19979 138.35 8.36979C140.06 10.5498 139.68 13.6898 137.5 15.3898C136.59 16.1098 135.5 16.4598 134.42 16.4598C132.94 16.4598 131.47 15.7998 130.48 14.5398Z" fill="black"/>
<path d="M138.45 8.89942C136.94 6.57942 137.6 3.48942 139.91 1.97942C142.22 0.469419 145.32 1.12942 146.83 3.43942C148.33 5.74942 147.68 8.84942 145.36 10.3594C144.52 10.9094 143.58 11.1694 142.64 11.1694C141.01 11.1694 139.41 10.3694 138.45 8.89942Z" fill="black"/>
<path d="M141.63 6.18849C141.58 3.42849 143.78 1.14849 146.54 1.09849C149.3 1.04849 151.58 3.24849 151.62 6.00849C151.67 8.76849 149.47 11.0485 146.71 11.0985H146.62C143.9 11.0985 141.67 8.91849 141.63 6.18849Z" fill="black"/>
<path d="M151.5 10.0892C148.79 9.59924 146.98 6.99924 147.46 4.28924C147.94 1.56924 150.54 -0.240763 153.26 0.239237C155.98 0.729237 157.79 3.31924 157.3 6.03924C156.87 8.45924 154.77 10.1592 152.39 10.1592C152.1 10.1592 151.8 10.1392 151.5 10.0892Z" fill="black"/>
<path d="M156.6 11.3088C154.13 10.0588 153.15 7.04878 154.41 4.58878C155.66 2.12878 158.67 1.14878 161.13 2.39878C163.59 3.64878 164.57 6.65878 163.32 9.11878C162.44 10.8588 160.68 11.8588 158.86 11.8488C158.1 11.8488 157.32 11.6788 156.6 11.3088Z" fill="black"/>
<path d="M160.54 13.7998C158.55 11.8898 158.48 8.71981 160.4 6.72981C162.31 4.72981 165.48 4.66981 167.47 6.57981C169.46 8.48981 169.52 11.6598 167.61 13.6498C166.63 14.6798 165.32 15.1898 164 15.1898C162.76 15.1898 161.51 14.7298 160.54 13.7998Z" fill="black"/>
<path d="M164.45 18.4993C163.32 15.9893 164.43 13.0193 166.95 11.8893C169.46 10.7493 172.43 11.8593 173.56 14.3793C174.7 16.8893 173.59 19.8593 171.07 20.9893C170.4 21.2993 169.7 21.4393 169.01 21.4393C167.11 21.4393 165.29 20.3493 164.45 18.4993Z" fill="black"/>
<path d="M167.37 41.1284C164.86 39.9784 163.751 37.0084 164.891 34.4984C166.041 31.9884 169.011 30.8784 171.521 32.0284C174.031 33.1684 175.141 36.1384 173.991 38.6484C173.151 40.4884 171.341 41.5784 169.441 41.5784C168.751 41.5784 168.04 41.4284 167.37 41.1284Z" fill="black"/>
<path d="M162.2 46.869C159.91 45.319 159.31 42.209 160.86 39.919C162.4 37.639 165.51 37.029 167.8 38.579C170.09 40.129 170.69 43.239 169.14 45.519C168.17 46.949 166.6 47.719 164.99 47.719C164.03 47.719 163.06 47.449 162.2 46.869Z" fill="black"/>
<path d="M162.01 46.2089C160.29 44.0489 160.65 40.8989 162.82 39.1789C164.98 37.4689 168.12 37.8289 169.84 39.9889C171.56 42.1589 171.19 45.2989 169.03 47.0189C168.11 47.7489 167.02 48.0989 165.93 48.0989C164.45 48.0989 162.99 47.4489 162.01 46.2089Z" fill="black"/>
<path d="M162.77 45.6286C161.04 43.4786 161.39 40.3286 163.54 38.5986L164.29 37.9986C166.44 36.2686 169.59 36.6186 171.32 38.7686C173.05 40.9186 172.7 44.0686 170.55 45.7986L169.8 46.3986C168.88 47.1386 167.77 47.4986 166.68 47.4986C165.21 47.4986 163.76 46.8586 162.77 45.6286Z" fill="black"/>
<path d="M166.91 41.5091C165.68 39.0291 166.69 36.0291 169.16 34.8091C171.64 33.5791 174.64 34.5891 175.86 37.0591C177.1 39.5291 176.09 42.5291 173.61 43.7591C172.9 44.1191 172.14 44.2891 171.39 44.2891C169.55 44.2891 167.78 43.2691 166.91 41.5091Z" fill="black"/>
<path d="M171.1 38.25C170.58 35.54 172.35 32.92 175.07 32.4C177.78 31.87 180.4 33.65 180.92 36.36C181.45 39.07 179.67 41.69 176.96 42.22C176.64 42.28 176.32 42.31 176.01 42.31C173.66 42.31 171.57 40.64 171.1 38.25Z" fill="black"/>
<path d="M185.95 42.3983C183.29 41.6283 181.76 38.8683 182.52 36.2083C183.28 33.5583 186.05 32.0183 188.71 32.7883C191.36 33.5483 192.89 36.3183 192.13 38.9683C191.5 41.1683 189.5 42.5883 187.33 42.5883C186.87 42.5883 186.41 42.5283 185.95 42.3983Z" fill="black"/>
<path d="M197.371 53.1399C196.621 50.4899 198.171 47.7299 200.831 46.9799C203.491 46.2299 206.251 47.7799 206.991 50.4499C207.741 53.0999 206.191 55.8599 203.531 56.6099C203.081 56.7399 202.621 56.7999 202.181 56.7999C199.991 56.7999 197.991 55.3499 197.371 53.1399Z" fill="black"/>
<path d="M202.001 67.4796C199.291 66.9296 197.551 64.2796 198.111 61.5796C198.661 58.8696 201.301 57.1296 204.001 57.6796C206.711 58.2396 208.451 60.8796 207.901 63.5896C207.421 65.9496 205.331 67.5796 203.011 67.5796C202.671 67.5796 202.341 67.5496 202.001 67.4796Z" fill="black"/>
<path d="M225.88 173.329C223.88 171.429 223.79 168.259 225.69 166.259C227.59 164.259 230.75 164.169 232.76 166.069C234.76 167.969 234.85 171.129 232.95 173.139C231.96 174.169 230.64 174.699 229.32 174.699C228.08 174.699 226.85 174.239 225.88 173.329Z" fill="black"/>
<path d="M191.25 170.108C189.67 167.838 190.22 164.728 192.49 163.148C194.75 161.568 197.87 162.128 199.45 164.388C201.03 166.658 200.47 169.778 198.21 171.348C197.33 171.958 196.34 172.248 195.35 172.248C193.77 172.248 192.22 171.508 191.25 170.108Z" fill="black"/>
<path d="M190.98 157.298C188.24 156.968 186.28 154.478 186.61 151.738C186.95 148.998 189.43 147.048 192.17 147.368C194.92 147.708 196.87 150.198 196.54 152.938C196.23 155.478 194.08 157.338 191.59 157.338C191.39 157.338 191.18 157.328 190.98 157.298Z" fill="black"/>
<path d="M196.85 143.629C194.17 142.989 192.51 140.299 193.15 137.609C193.79 134.919 196.48 133.259 199.17 133.899C201.85 134.539 203.51 137.239 202.88 139.919C202.33 142.219 200.28 143.769 198.02 143.769C197.63 143.769 197.24 143.719 196.85 143.629Z" fill="black"/>
<path d="M193.72 141.04C191.9 139.11 191.9 136.07 193.76 134.14C195.68 132.15 198.84 132.09 200.83 134.01C201.26 134.43 201.58 134.81 201.97 135.4C203.49 137.71 202.84 140.8 200.53 142.32C199.69 142.87 198.74 143.14 197.8 143.14C196.23 143.14 194.69 142.4 193.72 141.04Z" fill="black"/>
<path d="M187.17 128.849C186.48 126.169 188.1 123.449 190.78 122.769C193.45 122.089 196.17 123.699 196.86 126.379C197.54 129.049 195.92 131.769 193.25 132.459C192.83 132.559 192.42 132.609 192.01 132.609C189.78 132.609 187.74 131.109 187.17 128.849Z" fill="black"/>
<path d="M193.63 111.24C191.8 109.17 191.98 106.01 194.05 104.18C196.11 102.34 199.27 102.52 201.11 104.59C202.94 106.65 202.76 109.81 200.69 111.65C199.74 112.5 198.55 112.91 197.37 112.91C195.99 112.91 194.62 112.35 193.63 111.24Z" fill="black"/>
<path d="M188.41 100.879C187.45 98.2885 188.78 95.4085 191.37 94.4585C193.96 93.4985 196.83 94.8285 197.79 97.4185C198.74 100.009 197.42 102.889 194.83 103.839C194.26 104.049 193.67 104.149 193.1 104.149C191.06 104.149 189.15 102.899 188.41 100.879Z" fill="black"/>
<path d="M191.45 87.0797C188.84 86.1797 187.45 83.3297 188.35 80.7197C189.24 78.1097 192.09 76.7197 194.7 77.6197C197.31 78.5197 198.7 81.3697 197.8 83.9797C197.09 86.0497 195.15 87.3497 193.08 87.3497C192.53 87.3497 191.99 87.2597 191.45 87.0797Z" fill="black"/>
<path d="M193.53 80.2494C191.46 78.4294 191.26 75.2694 193.08 73.1994C194.91 71.1194 198.07 70.9194 200.14 72.7494C202.21 74.5694 202.41 77.7294 200.59 79.7994C199.6 80.9294 198.22 81.4994 196.83 81.4994C195.66 81.4994 194.48 81.0894 193.53 80.2494Z" fill="black"/>
<path d="M206.84 69.3187C206.63 66.5687 208.7 64.1687 211.45 63.9587C214.2 63.7587 216.61 65.8187 216.81 68.5687C217.02 71.3287 214.95 73.7287 212.2 73.9287C212.07 73.9287 211.95 73.9487 211.82 73.9487C209.23 73.9487 207.03 71.9487 206.84 69.3187Z" fill="black"/>
<path d="M226.93 80.52C225.26 78.32 225.68 75.18 227.88 73.51C230.08 71.84 233.22 72.27 234.89 74.47C236.56 76.67 236.13 79.8 233.93 81.47C233.03 82.16 231.96 82.49 230.91 82.49C229.4 82.49 227.91 81.81 226.93 80.52Z" fill="black"/>
<path d="M229.49 85.7401C228.6 83.1301 229.99 80.2901 232.6 79.3901C235.21 78.5001 238.05 79.8901 238.95 82.5001C239.85 85.1101 238.45 87.9601 235.84 88.8501C235.3 89.0401 234.76 89.1201 234.22 89.1201C232.14 89.1201 230.2 87.8201 229.49 85.7401Z" fill="black"/>
<path d="M225.9 109.519C223.88 107.639 223.76 104.469 225.65 102.449C227.53 100.429 230.69 100.309 232.71 102.189C234.74 104.069 234.85 107.239 232.97 109.259C231.99 110.319 230.65 110.859 229.31 110.859C228.09 110.859 226.87 110.409 225.9 109.519Z" fill="black"/>
<path d="M228.23 111.74C225.48 111.51 223.44 109.08 223.68 106.33C223.82 105.05 224.19 104.46 224.42 104.01C224.68 103.57 224.89 103.31 225.07 103.09C226.83 100.96 229.98 100.66 232.11 102.42C234.07 104.04 234.48 106.84 233.16 108.93C232.34 110.62 230.62 111.76 228.66 111.76C228.52 111.76 228.38 111.75 228.23 111.74Z" fill="black"/>
<path d="M226.33 111.759C225.84 111.369 225.49 111.029 225.07 110.519C223.31 108.389 223.62 105.229 225.75 103.479C227.83 101.779 230.87 102.029 232.64 103.999C234.67 105.729 235 108.759 233.35 110.879C232.36 112.149 230.89 112.809 229.4 112.809C228.33 112.809 227.25 112.469 226.33 111.759Z" fill="black"/>
<path d="M228.14 114.48C226.82 112.05 227.72 109.02 230.15 107.7C232.57 106.38 235.61 107.29 236.93 109.71C238.24 112.14 237.34 115.17 234.91 116.49C234.16 116.9 233.34 117.09 232.53 117.09C230.76 117.09 229.04 116.15 228.14 114.48Z" fill="black"/>
<path d="M232.81 133.739C230.18 132.899 228.73 130.089 229.58 127.449C230.42 124.829 233.23 123.379 235.87 124.219C238.49 125.059 239.94 127.879 239.1 130.509C238.41 132.629 236.45 133.989 234.34 133.989C233.83 133.989 233.31 133.909 232.81 133.739Z" fill="black"/>
<path d="M226.271 140.86C224.271 138.95 224.201 135.79 226.101 133.79C228.011 131.8 231.171 131.72 233.171 133.63C235.171 135.54 235.241 138.7 233.341 140.7C232.351 141.73 231.041 142.25 229.721 142.25C228.481 142.25 227.231 141.79 226.271 140.86Z" fill="black"/>
<path d="M224.09 141.009C223.01 138.469 224.2 135.539 226.74 134.459C229.28 133.379 232.22 134.569 233.29 137.109C234.37 139.649 233.19 142.589 230.64 143.669C230 143.929 229.34 144.059 228.69 144.059C226.75 144.059 224.89 142.919 224.09 141.009Z" fill="black"/>
<path d="M229.091 148.379C228.061 145.809 229.311 142.899 231.871 141.869C234.431 140.839 237.341 142.089 238.371 144.649C239.401 147.209 238.161 150.119 235.591 151.149C234.981 151.399 234.351 151.509 233.731 151.509C231.751 151.509 229.871 150.329 229.091 148.379Z" fill="black"/>
<path d="M342.321 174.639C340.471 172.579 340.66 169.419 342.71 167.579C344.77 165.739 347.94 165.919 349.77 167.979C351.62 170.039 351.43 173.199 349.37 175.039C348.42 175.889 347.23 176.309 346.05 176.309C344.67 176.309 343.301 175.739 342.321 174.639Z" fill="black"/>
<path d="M328.801 176.789C328.531 174.049 330.551 171.599 333.291 171.339C336.041 171.069 338.491 173.089 338.751 175.829C339.011 178.579 337.001 181.029 334.251 181.289C334.091 181.299 333.921 181.309 333.761 181.309C331.221 181.309 329.041 179.379 328.801 176.789Z" fill="black"/>
<path d="M309.91 160.159C307.14 160.109 304.95 157.839 304.99 155.079C305.04 152.319 307.32 150.119 310.08 150.159C312.84 150.209 315.04 152.489 314.99 155.249C314.95 157.979 312.72 160.159 309.99 160.159H309.91Z" fill="black"/>
<path d="M309.94 159.279C307.18 159.249 304.97 156.979 305.01 154.219V153.339C305.05 150.579 307.32 148.369 310.08 148.399C312.84 148.439 315.05 150.699 315.02 153.459V154.339C314.97 157.089 312.74 159.279 310 159.279H309.94Z" fill="black"/>
<path d="M312.45 142.959C310.57 140.929 310.7 137.769 312.72 135.899C314.75 134.019 317.91 134.139 319.79 136.169C321.66 138.189 321.54 141.359 319.51 143.229C318.55 144.119 317.33 144.559 316.12 144.559C314.77 144.559 313.43 144.019 312.45 142.959Z" fill="black"/>
<path d="M311.821 140.569C310.581 138.099 311.581 135.089 314.051 133.859C316.521 132.619 319.521 133.629 320.761 136.089C321.991 138.559 320.991 141.569 318.521 142.799C317.811 143.159 317.041 143.329 316.291 143.329C314.461 143.329 312.691 142.319 311.821 140.569Z" fill="black"/>
<path d="M311.73 141.989C309.65 140.169 309.44 137.009 311.26 134.939C313.08 132.849 316.23 132.649 318.31 134.469C320.39 136.279 320.6 139.439 318.78 141.519C317.79 142.649 316.41 143.229 315.02 143.229C313.85 143.229 312.67 142.819 311.73 141.989Z" fill="black"/>
<path d="M292.25 148.45C289.59 147.7 288.05 144.94 288.8 142.28C289.54 139.63 292.31 138.08 294.96 138.83C297.62 139.58 299.17 142.35 298.42 145C297.8 147.21 295.79 148.64 293.62 148.64C293.16 148.64 292.7 148.58 292.25 148.45Z" fill="black"/>
<path d="M283.9 144.299C281.79 142.509 281.54 139.349 283.33 137.249C285.12 135.149 288.28 134.889 290.38 136.679C292.48 138.479 292.74 141.629 290.95 143.729C289.96 144.889 288.55 145.489 287.14 145.489C285.99 145.489 284.84 145.099 283.9 144.299Z" fill="black"/>
<path d="M281.2 142C279.1 140.21 278.85 137.05 280.64 134.95C282.43 132.85 285.59 132.6 287.69 134.39C289.79 136.18 290.04 139.33 288.25 141.44C287.26 142.6 285.86 143.19 284.44 143.19C283.29 143.19 282.14 142.8 281.2 142Z" fill="black"/>
<path d="M281.39 142.949C278.84 141.879 277.63 138.949 278.7 136.399C279.34 134.979 280.12 134.449 280.61 134.089C281.12 133.759 281.49 133.619 281.8 133.499C282.41 133.279 282.83 133.209 283.29 133.149C286.04 132.839 288.51 134.809 288.82 137.549C289.1 139.969 287.6 142.189 285.36 142.889C284.72 143.179 284.02 143.329 283.31 143.329C282.67 143.329 282.01 143.209 281.39 142.949Z" fill="black"/>
<path d="M289.01 162.81C286.26 162.49 284.29 160.01 284.61 157.27C284.92 154.53 287.39 152.56 290.14 152.87C292.88 153.18 294.85 155.66 294.54 158.4C294.25 160.95 292.08 162.84 289.58 162.84C289.39 162.84 289.2 162.83 289.01 162.81Z" fill="black"/>
<path d="M278.61 174.548C276.76 172.498 276.91 169.338 278.96 167.478C281.01 165.628 284.17 165.788 286.03 167.838C287.88 169.888 287.72 173.048 285.67 174.898C284.71 175.768 283.51 176.188 282.32 176.188C280.95 176.188 279.6 175.638 278.61 174.548Z" fill="black"/>
<path d="M252.94 176.999C250.62 175.489 249.97 172.399 251.48 170.079C252.99 167.769 256.09 167.119 258.4 168.629C260.71 170.139 261.37 173.239 259.86 175.549C258.9 177.019 257.3 177.819 255.67 177.819C254.73 177.819 253.78 177.549 252.94 176.999Z" fill="black"/>
<path d="M245.94 158.42C243.18 158.31 241.03 155.98 241.15 153.22C241.26 150.47 243.58 148.32 246.34 148.43C249.1 148.54 251.25 150.87 251.14 153.63C251.03 156.32 248.81 158.43 246.14 158.43C246.08 158.43 246.01 158.42 245.94 158.42Z" fill="black"/>
<path d="M248.46 141.328C246.67 139.228 246.92 136.068 249.02 134.288C251.13 132.488 254.28 132.748 256.07 134.848C257.86 136.948 257.61 140.108 255.5 141.898C254.57 142.698 253.41 143.088 252.27 143.088C250.85 143.088 249.45 142.488 248.46 141.328Z" fill="black"/>
<path d="M244.37 135.779C243.03 133.359 243.91 130.319 246.33 128.989C248.74 127.649 251.78 128.519 253.12 130.939C254.46 133.359 253.58 136.398 251.17 137.728C250.4 138.158 249.57 138.359 248.75 138.359C246.99 138.359 245.28 137.429 244.37 135.779Z" fill="black"/>
<path d="M245.63 124.02C242.9 123.62 241.02 121.07 241.42 118.34C241.83 115.61 244.38 113.73 247.11 114.13C249.84 114.54 251.72 117.08 251.31 119.81C250.95 122.29 248.81 124.08 246.38 124.08C246.13 124.08 245.88 124.06 245.63 124.02Z" fill="black"/>
<path d="M271.88 106.239C269.17 105.679 267.43 103.049 267.98 100.339C268.53 97.6294 271.17 95.8894 273.88 96.4394C276.59 96.9994 278.33 99.6394 277.78 102.339C277.29 104.709 275.21 106.339 272.88 106.339C272.55 106.339 272.21 106.309 271.88 106.239Z" fill="black"/>
<path d="M283.68 112.229C280.92 112.109 278.78 109.769 278.91 107.009C279.03 104.259 281.37 102.119 284.13 102.239C286.89 102.369 289.02 104.709 288.9 107.469C288.78 110.139 286.57 112.239 283.91 112.239C283.83 112.239 283.76 112.239 283.68 112.239V112.229Z" fill="black"/>
<path d="M280.65 109.97C278.96 107.79 279.36 104.65 281.54 102.96C281.54 102.96 281.64 102.87 281.84 102.68C283.9 100.83 287.06 100.99 288.91 103.04C290.76 105.09 290.6 108.25 288.55 110.1C288.41 110.22 288.12 110.51 287.67 110.86C286.76 111.57 285.68 111.91 284.61 111.91C283.12 111.91 281.64 111.24 280.65 109.97Z" fill="black"/>
<path d="M311.38 110.459C309.44 108.489 309.46 105.329 311.43 103.389C313.4 101.449 316.57 101.479 318.5 103.439C320.44 105.409 320.42 108.579 318.45 110.509C317.48 111.469 316.21 111.949 314.94 111.949C313.65 111.949 312.36 111.449 311.38 110.459Z" fill="black"/>
<path d="M311.021 108.03C310.691 105.29 312.651 102.8 315.401 102.48C318.141 102.16 320.621 104.12 320.951 106.86C321.271 109.6 319.301 112.09 316.571 112.41C316.371 112.43 316.171 112.44 315.971 112.44C313.471 112.44 311.311 110.57 311.021 108.03Z" fill="black"/>
<path d="M312.54 109.478C310.71 107.408 310.89 104.248 312.95 102.418C315.02 100.578 318.18 100.768 320.01 102.828C321.85 104.888 321.66 108.048 319.6 109.888C318.65 110.728 317.46 111.148 316.28 111.148C314.9 111.148 313.53 110.588 312.54 109.478Z" fill="black"/>
<path d="M310.991 107.678C309.191 105.588 309.421 102.428 311.521 100.628C313.611 98.8283 316.771 99.0583 318.571 101.148C320.371 103.238 320.141 106.398 318.051 108.198C317.101 109.018 315.941 109.418 314.781 109.418C313.381 109.418 311.981 108.828 310.991 107.678Z" fill="black"/>
<path d="M305 91.0601C304.98 88.3001 307.2 86.0401 309.96 86.0101C312.72 85.9801 314.98 88.2001 315 90.9701C315.03 93.7301 312.81 95.9901 310.05 96.0101H310C307.26 96.0101 305.03 93.8001 305 91.0601Z" fill="black"/>
<path d="M311.31 81.2001C309.17 79.4501 308.87 76.3001 310.63 74.1601C312.38 72.0301 315.53 71.7301 317.66 73.4901C319.79 75.2501 320.1 78.3901 318.34 80.5301C317.35 81.7201 315.92 82.3501 314.48 82.3501C313.36 82.3501 312.24 81.9701 311.31 81.2001Z" fill="black"/>
<path d="M325.46 69.1586C325.33 66.3986 327.46 64.0486 330.21 63.9186C332.97 63.7786 335.32 65.9086 335.45 68.6686C335.58 71.4286 333.46 73.7686 330.7 73.9086H330.45C327.8 73.9086 325.59 71.8286 325.46 69.1586Z" fill="black"/>
<path d="M346.67 82.5198C345.37 80.0798 346.29 77.0498 348.73 75.7598C351.17 74.4598 354.2 75.3798 355.5 77.8198C356.79 80.2598 355.87 83.2798 353.43 84.5798C352.69 84.9798 351.88 85.1698 351.09 85.1698C349.3 85.1698 347.57 84.2098 346.67 82.5198Z" fill="black"/>
<path d="M349.78 104.67C347.25 103.58 346.07 100.64 347.16 98.1C348.25 95.56 351.19 94.39 353.73 95.48C356.27 96.57 357.44 99.51 356.35 102.05C355.54 103.94 353.69 105.07 351.76 105.07C351.1 105.07 350.43 104.94 349.78 104.67Z" fill="black"/>
<path d="M342.29 106.75C342.29 103.99 344.53 101.75 347.29 101.75C350.05 101.75 352.29 103.99 352.29 106.75C352.29 109.51 350.05 111.75 347.29 111.75C344.53 111.75 342.29 109.51 342.29 106.75Z" fill="black"/>
<path d="M348.48 119.91C348.08 117.18 349.98 114.64 352.72 114.26C355.45 113.86 357.99 115.76 358.37 118.49C358.77 121.22 356.87 123.76 354.14 124.15C353.89 124.19 353.65 124.2 353.42 124.2C350.97 124.2 348.84 122.41 348.48 119.91Z" fill="black"/>
<path d="M344.401 141.14C342.421 139.22 342.371 136.05 344.301 134.07C346.211 132.09 349.381 132.04 351.371 133.97C353.351 135.89 353.401 139.05 351.471 141.04C350.491 142.05 349.191 142.55 347.881 142.55C346.631 142.55 345.371 142.09 344.401 141.14Z" fill="black"/>
<path d="M344.25 143.27C342.26 141.35 342.21 138.18 344.12 136.2C346.04 134.21 349.21 134.15 351.2 136.07C353.18 137.98 353.24 141.15 351.32 143.14C350.34 144.16 349.03 144.67 347.72 144.67C346.47 144.67 345.22 144.2 344.25 143.27Z" fill="black"/>
<path d="M349.3 168.909C346.82 167.699 345.79 164.709 347 162.229C348.21 159.749 351.2 158.709 353.69 159.919C356.17 161.129 357.2 164.119 355.99 166.609C355.12 168.389 353.34 169.419 351.49 169.419C350.76 169.419 350.01 169.259 349.3 168.909Z" fill="black"/>
<path d="M315.301 75.2685C313.011 73.7185 312.421 70.6085 313.971 68.3185C315.521 66.0385 318.631 65.4385 320.911 66.9885C323.201 68.5385 323.791 71.6485 322.251 73.9385C321.281 75.3585 319.701 76.1285 318.101 76.1285C317.141 76.1285 316.161 75.8485 315.301 75.2685Z" fill="black"/>
<path d="M312.97 77.1194C310.88 75.3194 310.64 72.1594 312.44 70.0694C314.24 67.9694 317.4 67.7294 319.49 69.5294C321.58 71.3294 321.82 74.4894 320.03 76.5794C319.04 77.7294 317.64 78.3194 316.23 78.3194C315.08 78.3194 313.92 77.9294 312.97 77.1194Z" fill="black"/>
<path d="M301.191 81.0794C300.531 78.3994 302.161 75.6894 304.841 75.0294C307.521 74.3694 310.231 75.9994 310.891 78.6794C311.551 81.3594 309.921 84.0694 307.241 84.7294C306.831 84.8394 306.431 84.8794 306.031 84.8794C303.791 84.8794 301.751 83.3594 301.191 81.0794Z" fill="black"/>
<path d="M284.71 81.0986C282.47 79.4886 281.96 76.3586 283.57 74.1186C285.18 71.8786 288.31 71.3686 290.55 72.9786C292.79 74.5886 293.3 77.7086 291.69 79.9586C290.71 81.3086 289.18 82.0386 287.63 82.0386C286.62 82.0386 285.6 81.7286 284.71 81.0986Z" fill="black"/>
<path d="M281.871 78.8797C279.781 77.0597 279.571 73.8997 281.381 71.8197C283.191 69.7397 286.351 69.5197 288.431 71.3397C290.511 73.1497 290.731 76.3097 288.921 78.3897C287.931 79.5297 286.541 80.1097 285.151 80.1097C283.981 80.1097 282.821 79.6997 281.871 78.8797Z" fill="black"/>
<path d="M281.551 78.5199C279.821 77.4699 278.841 75.4299 279.231 73.3199C279.741 70.6099 282.361 68.8199 285.071 69.3399C286.371 69.6099 286.981 70.0899 287.411 70.3899C287.831 70.6999 288.061 70.9399 288.241 71.1099C290.181 73.0799 290.161 76.2399 288.201 78.1799C287.221 79.1499 285.951 79.6299 284.681 79.6299C283.571 79.6299 282.461 79.2599 281.551 78.5199Z" fill="black"/>
<path d="M279.141 78.3885C277.221 76.4085 277.271 73.2385 279.251 71.3185C279.841 70.7585 280.351 70.4085 281.031 70.0285C283.471 68.7385 286.501 69.6585 287.791 72.0985C289.051 74.4585 288.221 77.3785 285.951 78.7385C285.021 79.5185 283.871 79.9085 282.731 79.9085C281.421 79.9085 280.121 79.3985 279.141 78.3885Z" fill="black"/>
<path d="M251.37 80.19C249.19 78.5 248.79 75.36 250.48 73.18C252.17 70.99 255.31 70.59 257.5 72.28C259.68 73.97 260.08 77.11 258.39 79.3C257.41 80.57 255.93 81.24 254.43 81.24C253.36 81.24 252.29 80.9 251.37 80.19Z" fill="black"/>
<path d="M247.28 76.2884C245.54 74.1384 245.88 70.9884 248.03 69.2584C250.18 67.5284 253.33 67.8684 255.06 70.0184C256.79 72.1584 256.45 75.3084 254.31 77.0484C253.38 77.7884 252.27 78.1484 251.17 78.1484C249.71 78.1484 248.26 77.5184 247.28 76.2884Z" fill="black"/>
<path d="M241.4 62.9592C241.08 60.2192 243.04 57.7292 245.78 57.4092C248.53 57.0892 251.01 59.0492 251.33 61.7892C251.66 64.5392 249.7 67.0192 246.95 67.3392C246.75 67.3692 246.56 67.3792 246.36 67.3792C243.86 67.3792 241.7 65.5092 241.4 62.9592Z" fill="black"/>
<path d="M246.86 50.6996C244.59 49.1396 244.01 46.0296 245.58 43.7496C247.14 41.4796 250.25 40.8996 252.53 42.4696C254.8 44.0296 255.38 47.1396 253.81 49.4196C252.84 50.8296 251.28 51.5896 249.69 51.5896C248.71 51.5896 247.73 51.2996 246.86 50.6996Z" fill="black"/>
<path d="M259.75 37.8798C259.39 35.1398 261.32 32.6298 264.05 32.2698C266.79 31.9098 269.31 33.8398 269.67 36.5698C270.03 39.3098 268.1 41.8198 265.36 42.1798C265.14 42.2098 264.92 42.2298 264.7 42.2298C262.23 42.2298 260.08 40.3898 259.75 37.8798Z" fill="black"/>
<path d="M283.541 48.4183C280.791 48.2183 278.721 45.8183 278.921 43.0683C279.121 40.3083 281.521 38.2383 284.271 38.4483C287.021 38.6483 289.101 41.0383 288.891 43.7983C288.701 46.4283 286.511 48.4283 283.911 48.4283C283.791 48.4283 283.661 48.4283 283.541 48.4183Z" fill="black"/>
<path d="M302.42 42.1785C299.68 41.7985 297.77 39.2785 298.15 36.5385C298.53 33.8085 301.05 31.8985 303.79 32.2685C306.52 32.6485 308.43 35.1685 308.06 37.9085C307.71 40.4085 305.57 42.2285 303.11 42.2285C302.88 42.2285 302.65 42.2085 302.42 42.1785Z" fill="black"/>
<path d="M320.54 67.7397C317.82 67.2597 316.01 64.6597 316.5 61.9397C316.99 59.2197 319.58 57.4197 322.3 57.8997C325.02 58.3897 326.83 60.9797 326.34 63.7097C325.91 66.1197 323.8 67.8197 321.43 67.8197C321.13 67.8197 320.83 67.7997 320.54 67.7397Z" fill="black"/>
<path d="M412.69 156.599C412.53 153.839 414.65 151.479 417.41 151.329C420.17 151.189 422.52 153.299 422.67 156.059C422.82 158.809 420.71 161.169 417.95 161.319C417.85 161.319 417.76 161.319 417.67 161.319C415.03 161.319 412.83 159.249 412.69 156.589V156.599Z" fill="black"/>
<path d="M403.73 176.759C402.18 174.469 402.77 171.359 405.06 169.809C407.34 168.259 410.45 168.859 412 171.139C413.55 173.419 412.96 176.529 410.67 178.079C409.81 178.669 408.84 178.949 407.87 178.949C406.27 178.949 404.69 178.179 403.73 176.759Z" fill="black"/>
<path d="M395.241 177.519C394.881 174.779 396.801 172.269 399.541 171.909C402.281 171.539 404.791 173.469 405.151 176.209C405.511 178.939 403.591 181.459 400.851 181.819C400.631 181.849 400.411 181.859 400.191 181.859C397.721 181.859 395.571 180.029 395.241 177.519Z" fill="black"/>
<path d="M396.671 181.42C394.371 179.89 393.751 176.79 395.281 174.49C395.961 173.54 396.13 173.54 396.33 173.34C396.51 173.2 396.63 173.11 396.74 173.03C396.97 172.88 397.161 172.76 397.411 172.63C399.831 171.31 402.871 172.2 404.191 174.63C405.461 176.97 404.671 179.87 402.441 181.26C401.571 181.92 400.511 182.26 399.441 182.26C398.481 182.26 397.521 181.99 396.671 181.42Z" fill="black"/>
<path d="M387.59 177.26C387.59 174.5 389.82 172.26 392.59 172.26C395.35 172.26 397.58 174.5 397.58 177.26C397.58 180.02 395.35 182.26 392.59 182.26C389.82 182.26 387.59 180.02 387.59 177.26Z" fill="black"/>
<path d="M377.49 175.329C375.47 173.449 375.36 170.289 377.24 168.259C379.12 166.239 382.29 166.139 384.31 168.019C386.33 169.899 386.44 173.059 384.55 175.079C383.57 176.139 382.23 176.669 380.89 176.669C379.67 176.669 378.45 176.229 377.49 175.329Z" fill="black"/>
<path d="M377.11 143.098C375.18 141.128 375.2 137.968 377.17 136.028C379.14 134.098 382.31 134.118 384.25 136.088C386.18 138.058 386.15 141.228 384.18 143.168C383.21 144.118 381.94 144.598 380.68 144.598C379.38 144.598 378.09 144.098 377.11 143.098Z" fill="black"/>
<path d="M370.79 134.259C369.45 131.849 370.32 128.809 372.74 127.469C375.15 126.129 378.19 126.999 379.53 129.419C380.87 131.829 380 134.869 377.58 136.209C376.82 136.639 375.99 136.839 375.17 136.839C373.41 136.839 371.7 135.909 370.79 134.259Z" fill="black"/>
<path d="M373.29 136.399C373.21 136.379 373.05 136.339 372.73 136.229C372.41 136.069 371.94 135.999 370.92 135.139C370.29 134.609 369.24 133.199 369.26 131.369C369.26 128.609 371.49 126.369 374.25 126.369C375.19 126.369 376.06 126.629 376.81 127.069C379.02 128.099 380.2 130.609 379.5 133.019C378.86 135.199 376.86 136.609 374.7 136.609C374.23 136.609 373.76 136.539 373.29 136.399Z" fill="black"/>
<path d="M369.64 131.769C368.85 129.129 370.36 126.339 373.01 125.559C375.65 124.779 378.44 126.289 379.22 128.929C380.01 131.579 378.5 134.359 375.85 135.149C375.38 135.289 374.9 135.359 374.43 135.359C372.27 135.359 370.28 133.949 369.64 131.769Z" fill="black"/>
<path d="M372.57 127.39C369.83 127 367.93 124.47 368.31 121.74C368.7 119 371.23 117.1 373.96 117.49C376.7 117.87 378.6 120.4 378.21 123.13C377.86 125.63 375.72 127.44 373.27 127.44C373.04 127.44 372.8 127.42 372.57 127.39Z" fill="black"/>
<path d="M372.67 121.769C370.13 120.679 368.96 117.739 370.05 115.209C371.14 112.669 374.08 111.499 376.62 112.589C379.15 113.679 380.33 116.619 379.24 119.149C378.42 121.049 376.58 122.179 374.64 122.179C373.99 122.179 373.32 122.049 372.67 121.769Z" fill="black"/>
<path d="M376.071 112.53C374.081 110.62 374.021 107.46 375.931 105.47C377.841 103.47 381.011 103.41 383.001 105.32C384.991 107.24 385.051 110.4 383.141 112.4C382.161 113.42 380.851 113.93 379.541 113.93C378.291 113.93 377.041 113.47 376.071 112.53Z" fill="black"/>
<path d="M376.51 111.92C374.73 110.11 374.61 107.28 376.14 105.33C377.06 103.72 378.84 102.69 380.81 102.82C383.56 103 385.65 105.38 385.47 108.14C385.31 109.79 384.74 110.51 384.42 111.01C384.07 111.5 383.8 111.77 383.58 111.99C382.61 112.94 381.34 113.42 380.08 113.42C378.78 113.42 377.49 112.92 376.51 111.92Z" fill="black"/>
<path d="M376.09 109.969L376.07 109.949C374.2 107.919 374.32 104.759 376.35 102.879C378.37 101.009 381.54 101.129 383.41 103.159C383.68 103.449 383.99 103.809 384.36 104.349C385.9 106.649 385.28 109.759 382.98 111.289C382.13 111.859 381.17 112.129 380.21 112.129C378.62 112.129 377.06 111.379 376.09 109.969Z" fill="black"/>
<path d="M376.84 79.3992C374.94 77.3992 375.02 74.2292 377.02 72.3292C379.02 70.4292 382.18 70.5092 384.08 72.5092C385.99 74.5092 385.91 77.6692 383.91 79.5692C382.94 80.4992 381.7 80.9492 380.46 80.9492C379.14 80.9492 377.82 80.4292 376.84 79.3992Z" fill="black"/>
<path d="M398.85 75.1385C396.11 74.7885 394.17 72.2885 394.52 69.5485C394.86 66.8085 397.37 64.8785 400.11 65.2185C402.84 65.5685 404.78 68.0685 404.44 70.8085C404.12 73.3285 401.97 75.1785 399.49 75.1785C399.27 75.1785 399.06 75.1685 398.85 75.1385Z" fill="black"/>
<path d="M408.811 80.7589C406.971 78.6989 407.151 75.5389 409.201 73.6989C411.261 71.8589 414.421 72.0289 416.261 74.0889C418.101 76.1489 417.931 79.3089 415.871 81.1489C414.911 82.0089 413.731 82.4289 412.541 82.4289C411.171 82.4289 409.801 81.8589 408.811 80.7589Z" fill="black"/>
<path d="M417.42 95.9497C414.66 95.7997 412.54 93.4497 412.69 90.6897C412.83 87.9397 415.18 85.8197 417.94 85.9597C420.7 86.1097 422.82 88.4597 422.67 91.2097C422.53 93.8897 420.33 95.9597 417.68 95.9597C417.59 95.9597 417.51 95.9597 417.42 95.9597V95.9497Z" fill="black"/>
<path d="M417.19 99.5784C414.43 99.4284 412.32 97.0684 412.48 94.3084C412.64 91.5484 415 89.4384 417.75 89.5984C420.51 89.7484 422.62 92.1084 422.47 94.8684C422.31 97.5284 420.11 99.5884 417.48 99.5884C417.39 99.5884 417.29 99.5884 417.19 99.5784Z" fill="black"/>
<path d="M408.19 110.129C406.29 108.119 406.39 104.959 408.4 103.069C410.41 101.169 413.57 101.259 415.47 103.269C417.36 105.279 417.27 108.449 415.26 110.339C414.29 111.249 413.06 111.699 411.83 111.699C410.5 111.699 409.17 111.179 408.19 110.129Z" fill="black"/>
<path d="M406.28 108.849C405.72 106.149 407.45 103.499 410.15 102.929C412.85 102.359 415.5 104.089 416.07 106.789C416.64 109.489 414.91 112.139 412.21 112.709C411.86 112.789 411.51 112.819 411.17 112.819C408.86 112.819 406.78 111.199 406.28 108.849Z" fill="black"/>
<path d="M408.49 112.46C408.05 112.05 407.78 111.74 407.47 111.34C405.8 109.14 406.24 106.01 408.43 104.34C410.6 102.69 413.68 103.09 415.37 105.2C417.25 107.07 417.35 110.1 415.55 112.09C414.57 113.19 413.2 113.75 411.84 113.75C410.64 113.75 409.45 113.32 408.49 112.46Z" fill="black"/>
<path d="M412.71 122C412.36 119.26 414.3 116.76 417.04 116.41C419.78 116.07 422.28 118.01 422.63 120.74C422.97 123.49 421.03 125.99 418.3 126.33C418.08 126.36 417.87 126.37 417.66 126.37C415.18 126.37 413.03 124.53 412.71 122Z" fill="black"/>
<path d="M407.41 143.039C405.46 141.089 405.48 137.919 407.44 135.969C409.4 134.029 412.56 134.039 414.51 135.999C416.45 137.949 416.44 141.119 414.48 143.069C413.51 144.039 412.23 144.519 410.96 144.519C409.67 144.519 408.39 144.029 407.41 143.039Z" fill="black"/>
<path d="M412.47 152.639C412.32 149.879 414.43 147.519 417.19 147.369C419.94 147.219 422.3 149.329 422.46 152.089C422.61 154.839 420.49 157.199 417.74 157.359H417.46C414.82 157.359 412.62 155.299 412.47 152.639Z" fill="black"/>
<path d="M390.82 49.8398C390.82 47.0798 393.06 44.8398 395.82 44.8398C398.58 44.8398 400.82 47.0798 400.82 49.8398C400.82 52.5998 398.58 54.8398 395.82 54.8398C393.06 54.8398 390.82 52.5998 390.82 49.8398Z" fill="black"/>
<path d="M368.87 27.9099C368.87 25.1499 371.11 22.9199 373.87 22.9199C376.63 22.9199 378.87 25.1499 378.87 27.9099C378.87 30.6799 376.63 32.9099 373.87 32.9099C371.11 32.9099 368.87 30.6799 368.87 27.9099Z" fill="black"/>
<path d="M390.82 5.96875C390.82 3.20875 393.06 0.96875 395.82 0.96875C398.58 0.96875 400.82 3.20875 400.82 5.96875C400.82 8.72875 398.58 10.9688 395.82 10.9688C393.06 10.9688 390.82 8.72875 390.82 5.96875Z" fill="black"/>
<path d="M412.771 27.9099C412.771 25.1499 415.011 22.9199 417.771 22.9199C420.531 22.9199 422.771 25.1499 422.771 27.9099C422.771 30.6799 420.531 32.9099 417.771 32.9099C415.011 32.9099 412.771 30.6799 412.771 27.9099Z" fill="black"/>
</g>
</g>
<defs>
<clipPath id="clip0_2561_20074">
<rect width="551.95" height="182.26" fill="white"/>
</clipPath>
</defs>
</svg>
