<svg width="674" height="303" viewBox="0 0 674 303" fill="none" xmlns="http://www.w3.org/2000/svg">
<g clip-path="url(#clip0_2561_7417)">
<mask id="mask0_2561_7417" style="mask-type:luminance" maskUnits="userSpaceOnUse" x="0" y="0" width="674" height="303">
<path d="M673.04 0H0V302.25H673.04V0Z" fill="white"/>
</mask>
<g mask="url(#mask0_2561_7417)">
<path d="M292.37 175.941C293.38 177.961 295.65 179.531 296.9 181.491L298.14 183.441C300.85 187.691 300.39 193.011 296.73 196.661C299.08 199.491 299.89 202.351 301.6 204.311L311.39 215.611C313.62 218.191 314.61 221.431 315.02 224.771C315.66 230.221 311.75 233.101 311.98 233.371L312.8 234.281C315.02 236.721 317.17 239.141 319.2 241.681C321.03 243.971 321.96 246.421 322.71 249.231C323.51 252.201 323.21 255.601 321.09 258.051C320.61 258.601 320.18 259.101 320.16 259.671L317.28 262.181C316.53 262.181 315.89 262.841 315.04 263.231C313.86 263.781 312.24 264.121 310.87 264.281C308.19 264.601 301.85 261.311 300.22 259.481L292.15 250.341C289.84 252.521 285.41 253.121 282.6 252.051C279.92 251.041 278.82 250.661 276.35 249.061L263.56 234.501C263.21 234.121 262.06 233.741 261.52 233.461C261.71 234.241 262.06 235.361 262.56 235.921L273.26 248.361C277.09 252.811 279.26 261.851 273.95 266.071L282.05 275.591C283.72 277.571 284.25 280.211 284.88 282.641C285.61 285.381 285.13 288.511 283.4 290.811C282.9 291.471 282.18 291.931 282.25 292.641L279.37 295.151C278.73 295.251 278.16 295.611 277.36 296.021C275.8 296.811 273.55 297.481 271.73 297.161C269.14 296.721 263.96 294.351 262.42 292.621L254.24 283.351C249.98 287.701 240.76 284.371 238.55 281.911L225.87 267.791L222.81 265.861L220.23 263.101C215.67 266.651 210.01 265.871 205.89 262.051C203.99 260.281 202.53 257.791 200.46 256.221C197.9 254.291 195.44 252.721 193.9 249.721C190.76 243.641 193.9 236.931 199.58 234.011C204.42 231.531 207.92 232.671 212.58 235.151C213.09 235.421 214.24 236.071 214.6 236.481L223.21 246.251L224.83 245.491C226.39 244.771 228.22 243.781 230.2 244.081C233.03 244.511 236.84 245.291 238.89 247.561L251.78 261.911C252.17 262.351 253.15 262.741 254.01 263.261C253.78 262.011 253.18 261.001 252.32 259.991L241.83 247.861C240.19 245.961 239.72 243.671 239 241.431C236.98 235.181 241.04 231.781 241.43 230.201C241.5 229.941 240.72 229.651 240.54 229.441L234.44 222.311C233.58 221.301 232.98 219.991 232.21 218.811C231.87 218.271 231.69 217.181 231.42 216.541C229.76 212.521 230.15 208.281 232.97 204.751C235.42 201.681 240.04 198.801 244.1 199.671C247.17 200.331 250.71 201.521 252.84 203.921L261.16 213.301L262.76 212.531C264.32 211.761 266.17 210.891 268.11 211.121C271.25 211.481 274.93 212.431 277.1 214.751L280.67 218.591C281.61 219.591 282.4 220.451 283.23 221.511C285.03 223.811 289.19 229.171 291.95 230.311C291.74 229.041 291.12 228.031 290.25 227.011C286.53 222.661 282.67 218.681 279.26 214.141C277.12 211.311 276.43 207.381 276.46 204.101C276.5 200.821 278.58 199.371 279.36 197.231C279.45 196.981 278.63 196.681 278.41 196.401L272.52 189.531C270.28 186.921 268.38 181.831 268.48 178.501C268.63 173.391 272.33 169.201 276.98 167.381C280.05 166.191 283.53 166.671 286.24 168.261C289.39 170.111 290.84 172.831 292.4 175.961" fill="#90BEFB"/>
<path d="M393.21 98.7904L384.77 167.55C383.03 171.53 380.18 174.38 375.9 174.66C375.05 174.72 374.17 174.76 373.51 175L370.88 174.68C370.38 174.35 369.64 174.06 368.92 173.85C364.75 172.56 362.49 169.13 361.74 164.74L369.85 98.6104L354.4 96.7104C354.18 96.6804 353.53 96.2304 353.47 96.4304L353.12 97.4404C352.68 98.9504 352.31 100.61 351.65 101.95C349.78 105.76 345.81 108.01 341.55 107.63L334.66 161.41C334.14 165.53 329.49 168.22 326.21 168.53C324.91 168.65 324.37 168.61 323.61 168.88L320.98 168.56C320.95 168.49 320.42 168.11 320.19 168.06C315.6 167.15 312.29 163.34 311.88 158.35L324.8 53.1104C326.37 49.4904 328.82 46.7204 332.62 46.0104C339.63 44.7104 346.68 47.5904 347.85 55.6704L344.31 84.8304C344.74 84.6704 344.96 84.2704 345.03 83.7604C345.75 78.6304 348.28 74.8604 353.48 73.7404C354.24 73.5604 355.65 73.3204 356.4 73.3904C361.85 74.0104 367.17 74.4204 372.42 75.4904C377.24 76.4804 380.56 80.4604 380.77 85.1004C380.83 86.6004 380.83 87.8504 380.79 89.3904C381.99 88.8804 383.2 89.3504 384.38 89.5704C389.08 90.4304 392.36 93.8504 393.18 98.8204" fill="#90BEFB"/>
<path d="M79.9105 193.471L89.9705 257.071C90.1905 258.491 89.9505 260.101 89.8305 261.401C89.4905 264.891 87.2905 267.821 84.0705 269.231C83.1505 269.631 82.1005 269.841 81.3905 270.391L78.7905 270.801C78.6305 270.711 77.9905 270.531 77.6705 270.541C73.7605 270.751 70.0005 268.931 68.1805 265.261C67.6205 264.131 66.8505 262.881 66.6005 261.291C63.3205 240.721 59.7805 218.381 56.6405 198.601C56.5605 198.101 56.3405 197.791 56.2705 197.831L55.6105 198.131L40.2305 200.581C40.6305 203.701 40.6505 206.761 39.1005 209.421C36.8405 213.331 34.4905 213.441 32.2105 214.631C32.0305 214.731 32.5005 215.271 32.5405 215.551L40.2905 264.661C40.4705 265.821 40.2405 267.141 40.2505 268.331C40.3305 272.111 37.9305 275.541 34.4305 277.101C33.5205 277.521 32.4505 277.701 31.7505 278.261L29.1405 278.671C29.0405 278.561 28.6505 278.401 28.1105 278.441C24.0305 278.701 18.4705 276.071 17.6705 271.051L5.11046 192.051C4.37046 187.461 7.96046 183.451 11.5205 181.871C17.8105 179.081 25.6905 181.191 27.5805 187.711C27.9605 189.041 28.2305 190.391 28.8105 191.661C28.5205 187.841 28.3705 184.361 30.8105 181.401C32.2805 179.621 34.3705 178.041 36.8005 177.521C41.9205 176.441 47.0005 175.741 52.3005 174.991C53.4005 174.831 55.0405 175.091 56.0705 175.311C61.5605 176.501 63.8805 180.701 64.5405 185.961C70.0305 184.171 76.2005 185.251 78.8205 191.081L79.9105 193.491V193.471Z" fill="#90BEFB"/>
<path d="M172.78 189.73C171.75 189.9 170.58 190.03 169.78 190.37C164.7 192.53 162.23 198.02 163.93 203.62L146.1 206.44C145.61 204.68 145.31 203.07 144.63 201.64C142.48 197.07 137.73 194.78 132.72 196.1L128.49 169.49C131.66 168.9 134.44 167.41 136.26 164.82C139.93 159.62 136.62 153.94 138.76 155.02L155.69 152.39C156.26 159.57 161.65 163.85 168.56 163.17L172.77 189.75L172.78 189.73ZM190.97 157.33C188.78 152.58 183.87 150.96 178.94 151.54C178.61 149.86 178.5 147.64 177.9 146.07C175.66 140.06 169.17 138.56 163.58 140.31C163.22 138.67 162.84 137.07 162.16 135.47C160.46 131.55 156.29 128.95 151.74 129.38C146.15 129.89 140.72 130.95 135.04 131.9C133.3 132.19 131.37 133.3 130.08 134.36C126.92 136.92 125.67 140.91 126.7 144.75C126.88 145.45 126.42 146.29 125.85 146.29C124.76 146.29 124 146.47 123.06 146.67C115.72 148.21 113.43 154.94 115.04 161.66C110.23 162.37 105.11 167.34 105.65 172.08C106.73 181.42 108.15 190.83 110.1 200.02C111.24 205.42 117.31 208.01 122.04 207.05L123.03 211.21L124 213.48C124.22 214 124.85 215.01 125.28 215.48C128.92 219.34 133.21 219.79 138.48 218.6C138.35 224.27 142.45 228.94 148.1 229.26C148.98 229.31 149.84 229.26 150.51 229.5L166.48 226.97C166.97 226.59 167.69 226.32 168.42 226.09C174.18 224.28 176.08 218.48 174.98 212.81C178.67 212.55 182.27 211.31 184.7 208.33C185.97 206.78 186.9 204.45 186.87 202.36C186.83 200.53 186.35 198.77 186.21 196.93C191.1 196.5 194.94 193.07 195.79 188.19C195.97 187.14 196.14 185.42 195.96 184.27L192.25 160.83C192.08 159.75 191.41 158.28 190.96 157.34" fill="#90BEFB"/>
<path d="M513.06 9.26006C516.09 12.2201 517.01 16.6101 515.49 20.3801C513.11 26.3601 510.7 26.0401 508.32 29.7801L504.2 36.2201C509.81 39.1601 512.48 45.2701 509.2 51.3701L553.45 80.2201C557.45 82.8301 558.76 88.1101 557.04 92.1501C556.66 93.0401 556.44 93.6301 556.37 94.2801L554.93 96.5001C554.3 96.8601 553.77 97.4801 553.11 98.1501C550.57 100.76 546.59 101.75 543.1 100.59L540.49 99.7301L474.95 57.1501C474.37 56.7201 473.57 55.6101 473.13 55.1501C468.7 50.4101 470.46 43.1001 475.02 38.8801C478.06 36.0601 482.49 34.8701 486.28 36.8101L489.74 38.5901C489.69 38.2601 489.41 37.8101 488.92 37.5201C484.17 34.6501 482.14 28.3201 484.95 23.1201C487.49 18.4301 490.57 13.9701 493.67 9.63006C495.12 7.59006 497.52 6.58006 499.65 5.78006C502.28 4.79006 505.03 4.65006 507.75 5.81006C509.54 6.56006 511.65 7.88006 513.07 9.25006" fill="#90BEFB"/>
<path d="M613.68 130.76C613.48 129.67 613.39 128.55 613.4 127.58C614.42 127.57 615.01 127.58 615.8 127.46L631.07 125.04L631.66 127.91L613.68 130.76ZM664.99 128.03C662.24 124.71 658.45 123.86 654.33 124.25C654.39 122.9 654.09 121.39 653.73 119.97C652.05 113.33 645.22 110.98 638.87 113.03C638.4 109.59 637.19 106.19 634.33 104.11C632.4 102.7 629.68 101.76 627.1 102.08C621.21 102.79 615.26 103.52 609.59 104.94C604.94 106.1 601.95 110.11 601.72 114.6C601.65 116.03 602.08 117.32 602.18 118.88C598.13 118.88 593.96 120.47 591.76 123.79C589.91 126.58 589.43 131.22 590.62 134.28C589.98 134.47 589.01 134.67 588.56 134.88L586.81 135.67C583.24 137.27 581.54 140.61 580.76 144.54L585.32 172.26C586.13 177.23 591.52 180.26 596.02 179.92L597.37 179.82C598.08 179.77 597.49 187.42 603.98 190.68C606.99 192.2 610.41 192.04 613.86 191.31C613.74 196.96 617.83 201.64 623.49 201.96C624.37 202.01 625.21 201.96 625.9 202.2L641.86 199.67C645.32 198.09 645.69 198.33 649.07 195.69C653.29 192.39 653.93 186.45 652.08 181.81C651.1 179.37 649.69 177.29 647.18 176.01C640.03 172.38 632.63 177.27 631.75 177.42L621.46 179.11L620.8 176.36C619.73 171.98 616.16 168.68 611.48 168.37C610.5 168.3 609.36 168.58 608.08 168.67L606.07 155.73L659.01 147.25C663.86 146.47 667.3 142.23 667.75 137.74C667.83 136.86 667.83 136.35 668.05 135.82L667.5 132.33C666.01 130.2 667.43 130.93 665.01 128.02" fill="#90BEFB"/>
<path d="M439.86 122.231C439.66 121.291 439.54 120.441 439.46 119.341L456.41 116.631C456.59 116.531 457.01 116.211 457.07 116.351C457.15 116.511 457.3 116.881 457.36 117.061L458.12 119.331L439.86 122.221V122.231ZM481.03 115.611C480.78 114.191 480.57 112.421 480.09 111.061C477.79 104.631 471.96 102.411 465.45 104.521C464.13 101.211 464.76 99.5909 461.97 96.5909C460.01 94.4909 456.69 93.1709 453.52 93.5209C447.7 94.1609 441.88 95.0009 436.2 96.2709C431.52 97.3309 428.42 101.421 428.17 105.821C428.08 107.381 428.15 108.831 428.25 110.311C422.23 110.431 416.72 113.951 416.48 120.501C416.42 122.101 416.93 124.121 417.14 125.781C412.29 126.491 408.14 129.961 407.45 134.911C407.36 135.571 407.09 136.921 407.19 137.561L410.93 161.221C411.16 162.701 411.81 164.291 412.4 165.551C414.54 170.071 419.38 172.181 424.25 171.141C424.75 172.981 424.75 174.991 425.38 176.611C427.75 182.651 434.03 184.251 439.83 182.861C440.66 188.191 443.94 192.991 449.63 193.401C450.58 193.461 451.57 193.331 452.32 193.631L468.28 191.101C472.83 189.141 470.52 190.371 474.37 187.881C479.36 184.661 479.98 180.031 478.79 174.581C478.13 171.621 476.41 168.931 473.62 167.501C466.41 163.781 458.93 168.801 457.93 168.961L447.55 170.631L446.66 166.181C444.63 161.441 439.84 158.891 434.81 160.191L432.75 147.161L485.42 138.691C491.51 137.711 494.83 131.751 494.13 126.201C493.22 118.891 488.13 115.181 481.04 115.631" fill="#90BEFB"/>
<path d="M292.68 184.171C291.2 181.841 291.88 178.751 294.21 177.271C296.54 175.791 299.63 176.471 301.11 178.801C302.6 181.131 301.91 184.221 299.58 185.701C298.75 186.231 297.82 186.491 296.9 186.491C295.25 186.491 293.63 185.671 292.68 184.171Z" fill="black"/>
<path d="M293.91 186.111C292.43 183.781 293.12 180.691 295.45 179.211C297.79 177.731 300.87 178.421 302.35 180.751C303.84 183.081 303.14 186.171 300.81 187.651C299.98 188.181 299.05 188.431 298.14 188.431C296.48 188.431 294.86 187.611 293.91 186.111Z" fill="black"/>
<path d="M293.18 200.191C291.23 198.231 291.24 195.071 293.18 193.121C295.13 191.171 298.3 191.171 300.25 193.121C302.2 195.081 302.2 198.241 300.24 200.201C299.27 201.171 297.99 201.661 296.71 201.661C295.43 201.661 294.15 201.171 293.17 200.191H293.18Z" fill="black"/>
<path d="M297.82 207.59C296 205.5 296.22 202.35 298.31 200.53C300.39 198.72 303.55 198.94 305.36 201.03C307.17 203.11 306.95 206.27 304.87 208.08C303.92 208.91 302.75 209.31 301.59 209.31C300.19 209.31 298.8 208.73 297.82 207.59Z" fill="black"/>
<path d="M307.6 218.881C305.79 216.791 306.02 213.631 308.1 211.831C310.19 210.021 313.35 210.251 315.16 212.331C316.96 214.421 316.74 217.581 314.65 219.381C313.7 220.201 312.54 220.611 311.38 220.611C309.98 220.611 308.59 220.021 307.6 218.881Z" fill="black"/>
<path d="M310.06 225.38C309.72 222.64 311.67 220.14 314.41 219.81C317.15 219.47 319.65 221.42 319.98 224.16C320.32 226.91 318.37 229.4 315.62 229.73C315.42 229.76 315.21 229.77 315.01 229.77C312.52 229.77 310.36 227.91 310.06 225.38Z" fill="black"/>
<path d="M306.97 233.371C306.97 230.611 309.21 228.371 311.97 228.371C314.73 228.371 316.97 230.611 316.97 233.371C316.97 236.131 314.73 238.371 311.97 238.371C309.21 238.371 306.97 236.131 306.97 233.371Z" fill="black"/>
<path d="M309.08 237.63L308.67 237.18C306.82 235.13 306.98 231.97 309.03 230.12C311.08 228.27 314.24 228.42 316.09 230.47L316.5 230.93C318.35 232.98 318.19 236.14 316.14 237.99C315.19 238.86 313.99 239.28 312.79 239.28C311.43 239.28 310.07 238.73 309.08 237.63Z" fill="black"/>
<path d="M315.29 244.811C313.56 242.651 313.91 239.501 316.07 237.781C318.23 236.061 321.38 236.411 323.1 238.571C324.82 240.721 324.47 243.871 322.31 245.591C321.39 246.331 320.29 246.691 319.2 246.691C317.73 246.691 316.28 246.041 315.29 244.811Z" fill="black"/>
<path d="M317.87 250.53C317.16 247.86 318.75 245.12 321.41 244.41C324.08 243.69 326.82 245.28 327.53 247.94C328.25 250.61 326.66 253.35 323.99 254.07C323.56 254.18 323.13 254.24 322.7 254.24C320.49 254.24 318.47 252.76 317.87 250.53Z" fill="black"/>
<path d="M317.83 261.85C315.73 260.05 315.5 256.89 317.3 254.8C319.1 252.7 322.26 252.47 324.35 254.27C326.44 256.07 326.68 259.23 324.88 261.32C323.89 262.47 322.49 263.06 321.09 263.06C319.93 263.06 318.77 262.66 317.83 261.85Z" fill="black"/>
<path d="M319.96 264.681C317.2 264.571 315.05 262.241 315.16 259.481C315.23 257.871 315.88 256.691 316.35 256.001C317.89 253.721 321 253.111 323.29 254.661C325.39 256.071 326.07 258.801 324.98 261.011C324.4 263.141 322.45 264.681 320.16 264.681H319.96Z" fill="black"/>
<path d="M313.5 265.47C311.69 263.38 311.91 260.23 313.99 258.41C316.08 256.6 319.23 256.82 321.05 258.91C322.86 260.99 322.64 264.15 320.55 265.96C319.61 266.78 318.44 267.19 317.28 267.19C315.88 267.19 314.49 266.61 313.5 265.47Z" fill="black"/>
<path d="M310.5 265.35C309.34 262.84 310.42 259.87 312.93 258.71C315.43 257.54 318.41 258.63 319.57 261.13C320.74 263.63 319.65 266.6 317.15 267.77C316.46 268.09 315.75 268.24 315.04 268.24C313.16 268.24 311.35 267.17 310.5 265.35Z" fill="black"/>
<path d="M305.9 264.841C305.59 262.101 307.56 259.621 310.31 259.321C313.05 259.011 315.53 260.981 315.83 263.731C316.14 266.471 314.17 268.951 311.42 269.251C311.23 269.281 311.05 269.291 310.86 269.291C308.35 269.291 306.19 267.401 305.9 264.841Z" fill="black"/>
<path d="M296.471 262.801C294.641 260.731 294.831 257.571 296.901 255.741C298.971 253.911 302.131 254.101 303.961 256.171C305.791 258.231 305.601 261.391 303.531 263.231C302.581 264.071 301.401 264.481 300.221 264.481C298.841 264.481 297.461 263.921 296.471 262.801Z" fill="black"/>
<path d="M288.39 253.66C286.57 251.59 286.76 248.43 288.83 246.6C290.9 244.77 294.06 244.97 295.89 247.04C297.72 249.11 297.52 252.27 295.45 254.09C294.5 254.93 293.32 255.35 292.14 255.35C290.76 255.35 289.38 254.78 288.39 253.66Z" fill="black"/>
<path d="M280.82 256.731C278.24 255.751 276.94 252.871 277.92 250.291C278.9 247.701 281.78 246.401 284.37 247.381C286.95 248.361 288.24 251.251 287.26 253.831C286.51 255.831 284.61 257.061 282.59 257.061C282 257.061 281.4 256.961 280.82 256.731Z" fill="black"/>
<path d="M273.63 253.271C271.31 251.771 270.64 248.681 272.14 246.361C273.63 244.041 276.73 243.371 279.05 244.871C281.37 246.361 282.04 249.461 280.54 251.781C279.58 253.261 277.97 254.071 276.33 254.071C275.4 254.071 274.47 253.811 273.63 253.271Z" fill="black"/>
<path d="M259.79 237.8C257.97 235.73 258.17 232.57 260.25 230.75C262.32 228.92 265.48 229.13 267.3 231.2C269.13 233.28 268.92 236.44 266.85 238.26C265.9 239.1 264.72 239.5 263.55 239.5C262.16 239.5 260.78 238.93 259.79 237.8Z" fill="black"/>
<path d="M259.2 237.9C256.75 236.63 255.8 233.61 257.07 231.16C258.34 228.71 261.37 227.76 263.82 229.03C266.27 230.3 267.22 233.32 265.95 235.77C265.06 237.49 263.31 238.47 261.51 238.47C260.73 238.47 259.94 238.29 259.2 237.9Z" fill="black"/>
<path d="M258.77 239.21C256.96 237.13 257.18 233.97 259.26 232.16C261.34 230.34 264.5 230.56 266.31 232.64C268.13 234.73 267.91 237.88 265.83 239.7C264.88 240.52 263.71 240.93 262.55 240.93C261.15 240.93 259.76 240.35 258.77 239.21Z" fill="black"/>
<path d="M269.45 251.63C267.65 249.53 267.89 246.37 269.98 244.57C272.07 242.77 275.23 243.01 277.03 245.11C278.83 247.2 278.6 250.35 276.5 252.16C275.56 252.97 274.4 253.37 273.25 253.37C271.84 253.37 270.44 252.78 269.45 251.63Z" fill="black"/>
<path d="M270.02 269.189C268.3 267.029 268.66 263.889 270.82 262.169C272.98 260.449 276.13 260.809 277.84 262.969C279.56 265.129 279.21 268.269 277.05 269.989C276.13 270.719 275.03 271.079 273.94 271.079C272.47 271.079 271.01 270.429 270.02 269.189Z" fill="black"/>
<path d="M278.221 278.84C276.431 276.74 276.691 273.58 278.791 271.79C280.891 270 284.051 270.26 285.841 272.36C287.631 274.46 287.371 277.62 285.271 279.41C284.331 280.21 283.181 280.6 282.031 280.6C280.621 280.6 279.211 280 278.221 278.84Z" fill="black"/>
<path d="M280.04 283.921C279.33 281.251 280.94 278.511 283.61 277.811C286.28 277.111 289.01 278.711 289.71 281.381C290.41 284.051 288.81 286.791 286.14 287.491C285.72 287.601 285.29 287.651 284.87 287.651C282.65 287.651 280.63 286.161 280.04 283.921Z" fill="black"/>
<path d="M280.37 294.82C278.17 293.16 277.73 290.02 279.39 287.82C281.05 285.61 284.18 285.17 286.39 286.83C288.59 288.49 289.03 291.62 287.38 293.83C286.39 295.14 284.89 295.82 283.37 295.82C282.33 295.82 281.27 295.5 280.37 294.82Z" fill="black"/>
<path d="M277.24 293.07C277.01 290.32 279.06 287.9 281.81 287.67C284.56 287.44 286.98 289.49 287.21 292.24C287.44 294.99 285.39 297.41 282.64 297.64C282.5 297.64 282.36 297.64 282.22 297.64C279.65 297.64 277.46 295.67 277.24 293.06V293.07Z" fill="black"/>
<path d="M275.571 298.44C273.761 296.36 273.981 293.2 276.061 291.39C278.151 289.58 281.301 289.8 283.121 291.88C284.931 293.96 284.711 297.12 282.621 298.93C281.681 299.76 280.511 300.16 279.341 300.16C277.951 300.16 276.561 299.58 275.571 298.44Z" fill="black"/>
<path d="M272.87 298.291C271.63 295.821 272.62 292.811 275.08 291.571C277.54 290.321 280.55 291.31 281.8 293.77C283.04 296.23 282.06 299.241 279.59 300.491C278.87 300.861 278.1 301.031 277.34 301.031C275.51 301.031 273.75 300.031 272.87 298.291Z" fill="black"/>
<path d="M270.85 302.1C268.13 301.63 266.31 299.04 266.78 296.32C267.25 293.6 269.84 291.77 272.56 292.25C275.28 292.72 277.1 295.31 276.63 298.03C276.21 300.46 274.1 302.17 271.71 302.17C271.43 302.17 271.14 302.15 270.85 302.1Z" fill="black"/>
<path d="M258.66 295.95C256.83 293.89 257.02 290.72 259.08 288.89C261.15 287.06 264.31 287.24 266.14 289.31C267.97 291.38 267.79 294.54 265.72 296.37C264.77 297.22 263.58 297.63 262.4 297.63C261.02 297.63 259.65 297.06 258.66 295.95Z" fill="black"/>
<path d="M250.47 286.66C248.65 284.59 248.85 281.43 250.92 279.61C252.99 277.78 256.15 277.98 257.97 280.05C259.8 282.12 259.6 285.28 257.53 287.11C256.58 287.95 255.4 288.36 254.23 288.36C252.84 288.36 251.46 287.78 250.47 286.66Z" fill="black"/>
<path d="M234.81 285.251C232.97 283.191 233.14 280.031 235.2 278.191C237.26 276.341 240.42 276.521 242.26 278.581C244.1 280.641 243.93 283.791 241.87 285.641C240.92 286.491 239.73 286.911 238.54 286.911C237.17 286.911 235.8 286.351 234.81 285.251Z" fill="black"/>
<path d="M222.131 271.131C220.291 269.081 220.461 265.921 222.511 264.071C224.571 262.221 227.731 262.391 229.571 264.451C231.421 266.501 231.251 269.661 229.191 271.511C228.241 272.371 227.051 272.791 225.861 272.791C224.491 272.791 223.121 272.231 222.131 271.131Z" fill="black"/>
<path d="M220.121 270.08C217.791 268.61 217.091 265.52 218.571 263.19C220.041 260.85 223.131 260.15 225.461 261.63C227.801 263.1 228.491 266.19 227.021 268.53C226.071 270.03 224.451 270.86 222.791 270.86C221.881 270.86 220.951 270.61 220.121 270.08Z" fill="black"/>
<path d="M216.56 266.509C214.68 264.489 214.79 261.329 216.8 259.439C218.82 257.559 221.98 257.669 223.87 259.679C225.75 261.699 225.65 264.869 223.63 266.749C222.67 267.649 221.44 268.099 220.22 268.099C218.88 268.099 217.55 267.559 216.56 266.509Z" fill="black"/>
<path d="M202.47 265.711C200.45 263.831 200.33 260.661 202.21 258.641C204.09 256.611 207.25 256.501 209.27 258.381C211.3 260.251 211.42 263.421 209.54 265.441C208.55 266.501 207.21 267.041 205.87 267.041C204.65 267.041 203.43 266.601 202.47 265.711Z" fill="black"/>
<path d="M197.41 260.19C195.22 258.51 194.79 255.38 196.47 253.18C198.14 250.98 201.28 250.56 203.47 252.23C205.67 253.9 206.09 257.04 204.42 259.24C203.44 260.53 201.95 261.21 200.44 261.21C199.39 261.21 198.32 260.87 197.41 260.19Z" fill="black"/>
<path d="M189.43 251.981C188.17 249.531 189.14 246.511 191.6 245.251C194.06 243.991 197.07 244.961 198.33 247.421C199.59 249.881 198.62 252.891 196.16 254.151C195.43 254.531 194.65 254.701 193.89 254.701C192.07 254.701 190.32 253.711 189.43 251.981Z" fill="black"/>
<path d="M195.121 236.28C193.861 233.82 194.831 230.81 197.281 229.55C199.741 228.29 202.761 229.26 204.011 231.72C205.271 234.18 204.301 237.19 201.851 238.45C201.121 238.82 200.341 239 199.571 239C197.751 239 196.001 238.01 195.121 236.28Z" fill="black"/>
<path d="M210.221 239.551C207.781 238.251 206.861 235.221 208.151 232.781C209.451 230.351 212.481 229.421 214.921 230.721C217.351 232.021 218.281 235.051 216.981 237.491C216.081 239.171 214.351 240.131 212.561 240.131C211.771 240.131 210.961 239.951 210.221 239.551Z" fill="black"/>
<path d="M210.81 239.751C209 237.661 209.22 234.501 211.3 232.691C213.39 230.881 216.54 231.101 218.36 233.181C220.17 235.271 219.95 238.421 217.86 240.241C216.92 241.061 215.75 241.471 214.59 241.471C213.19 241.471 211.8 240.881 210.81 239.751Z" fill="black"/>
<path d="M219.44 249.541C217.62 247.471 217.82 244.311 219.89 242.491C221.96 240.661 225.12 240.861 226.94 242.931C228.77 245.001 228.57 248.161 226.5 249.991C225.55 250.831 224.37 251.241 223.19 251.241C221.81 251.241 220.43 250.661 219.44 249.541Z" fill="black"/>
<path d="M219.47 247.98C218.3 245.48 219.38 242.5 221.88 241.33L222.69 240.95C225.19 239.78 228.17 240.86 229.34 243.37C230.51 245.87 229.43 248.84 226.93 250.01L226.12 250.39C225.43 250.71 224.71 250.86 224 250.86C222.12 250.86 220.32 249.79 219.47 247.98Z" fill="black"/>
<path d="M229.421 249.02C226.691 248.6 224.821 246.04 225.241 243.32C225.661 240.58 228.211 238.71 230.941 239.14C233.671 239.56 235.541 242.11 235.121 244.84C234.741 247.31 232.611 249.08 230.181 249.08C229.931 249.08 229.671 249.06 229.421 249.02Z" fill="black"/>
<path d="M235.171 250.921C233.311 248.871 233.471 245.711 235.521 243.851C237.561 242.001 240.721 242.161 242.581 244.201C244.431 246.251 244.281 249.411 242.231 251.271C241.271 252.131 240.071 252.561 238.871 252.561C237.511 252.561 236.151 252.011 235.171 250.921Z" fill="black"/>
<path d="M248.06 265.25C246.21 263.19 246.38 260.03 248.43 258.19C250.49 256.34 253.65 256.51 255.5 258.57C257.34 260.62 257.17 263.78 255.12 265.63C254.16 266.48 252.97 266.91 251.78 266.91C250.41 266.91 249.04 266.35 248.06 265.25Z" fill="black"/>
<path d="M251.4 267.53C249.04 266.1 248.28 263.03 249.71 260.67C251.14 258.3 254.21 257.54 256.58 258.97C258.94 260.4 259.7 263.47 258.27 265.84C257.33 267.39 255.68 268.25 253.99 268.25C253.1 268.25 252.21 268.02 251.4 267.53Z" fill="black"/>
<path d="M248.49 263.221C246.7 261.121 246.96 257.971 249.06 256.181C251.16 254.381 254.31 254.641 256.11 256.741C257.89 258.841 257.64 261.991 255.54 263.791C254.6 264.591 253.45 264.981 252.3 264.981C250.89 264.981 249.48 264.381 248.49 263.221Z" fill="black"/>
<path d="M238.02 251.12C236.22 249.04 236.44 245.88 238.53 244.07C240.62 242.26 243.78 242.49 245.59 244.58C247.39 246.67 247.17 249.83 245.08 251.63C244.13 252.45 242.97 252.85 241.81 252.85C240.41 252.85 239.01 252.27 238.02 251.12Z" fill="black"/>
<path d="M234.21 242.941C233.37 240.311 234.82 237.501 237.45 236.661C240.08 235.811 242.89 237.261 243.73 239.891C244.57 242.521 243.13 245.341 240.5 246.181C239.99 246.341 239.47 246.421 238.97 246.421C236.85 246.421 234.89 245.071 234.21 242.941Z" fill="black"/>
<path d="M240.21 235.04C237.53 234.38 235.89 231.68 236.54 229C237.2 226.31 239.91 224.67 242.59 225.33C245.27 225.99 246.91 228.69 246.26 231.37C245.7 233.66 243.65 235.19 241.4 235.19C241.01 235.19 240.61 235.14 240.21 235.04Z" fill="black"/>
<path d="M238.38 234.01C238.38 234.01 238.26 233.95 238.05 233.81C237.82 233.64 237.53 233.55 236.75 232.72C234.93 230.63 235.15 227.48 237.23 225.66C239.05 224.07 241.7 224.04 243.55 225.46C243.55 225.46 243.61 225.49 243.65 225.52C246 226.97 246.72 230.05 245.26 232.4C244.31 233.92 242.68 234.76 241.01 234.76C240.11 234.76 239.2 234.52 238.38 234.01Z" fill="black"/>
<path d="M230.61 225.55C228.82 223.45 229.06 220.29 231.16 218.5C233.26 216.7 236.42 216.95 238.21 219.05C240.01 221.14 239.76 224.3 237.66 226.09C236.72 226.9 235.57 227.3 234.41 227.3C233 227.3 231.6 226.7 230.61 225.55Z" fill="black"/>
<path d="M227.99 221.521C226.48 219.211 227.14 216.111 229.45 214.601C231.77 213.101 234.87 213.761 236.37 216.071C237.88 218.381 237.22 221.481 234.91 222.991C234.07 223.541 233.12 223.801 232.19 223.801C230.55 223.801 228.95 223.001 227.99 221.521Z" fill="black"/>
<path d="M226.79 218.439C225.73 215.889 226.94 212.969 229.49 211.909C232.04 210.849 234.97 212.059 236.02 214.609C237.08 217.159 235.87 220.089 233.32 221.149C232.69 221.409 232.04 221.529 231.41 221.529C229.45 221.529 227.58 220.369 226.79 218.439Z" fill="black"/>
<path d="M229.82 208.64C227.67 206.91 227.32 203.77 229.04 201.61C230.77 199.46 233.92 199.11 236.07 200.83C238.23 202.56 238.58 205.71 236.85 207.86C235.86 209.1 234.41 209.74 232.94 209.74C231.85 209.74 230.74 209.38 229.82 208.64Z" fill="black"/>
<path d="M243.04 204.539C240.34 203.969 238.62 201.309 239.19 198.609C239.77 195.909 242.42 194.189 245.12 194.759C247.83 195.339 249.55 197.999 248.97 200.699C248.47 203.039 246.39 204.649 244.09 204.649C243.74 204.649 243.39 204.619 243.04 204.539Z" fill="black"/>
<path d="M249.09 207.23C247.25 205.16 247.44 202 249.5 200.17C251.57 198.33 254.73 198.52 256.56 200.58C258.4 202.64 258.21 205.8 256.15 207.64C255.19 208.49 254.01 208.9 252.83 208.9C251.45 208.9 250.08 208.34 249.09 207.23Z" fill="black"/>
<path d="M257.4 216.6C255.57 214.53 255.76 211.37 257.82 209.54C259.89 207.71 263.05 207.9 264.88 209.97C266.71 212.03 266.52 215.19 264.46 217.03C263.51 217.87 262.32 218.28 261.14 218.28C259.76 218.28 258.39 217.72 257.4 216.6Z" fill="black"/>
<path d="M257.44 215.08C256.24 212.59 257.27 209.6 259.76 208.4L260.56 208.01C263.05 206.81 266.04 207.84 267.24 210.33C268.45 212.82 267.4 215.81 264.92 217.01L264.12 217.4C263.42 217.74 262.67 217.9 261.94 217.9C260.09 217.9 258.3 216.86 257.44 215.08Z" fill="black"/>
<path d="M267.5 216.06C264.76 215.74 262.8 213.26 263.12 210.51C263.44 207.77 265.92 205.81 268.67 206.13C271.41 206.45 273.37 208.93 273.05 211.67C272.75 214.22 270.59 216.09 268.09 216.09C267.9 216.09 267.7 216.08 267.5 216.06Z" fill="black"/>
<path d="M273.42 218.141C271.53 216.121 271.64 212.951 273.66 211.071C275.68 209.191 278.84 209.301 280.73 211.321C282.61 213.341 282.5 216.501 280.48 218.381C279.52 219.281 278.3 219.731 277.07 219.731C275.74 219.731 274.4 219.191 273.42 218.141Z" fill="black"/>
<path d="M276.981 221.97C275.101 219.95 275.22 216.79 277.24 214.91C279.26 213.03 282.43 213.15 284.31 215.17C286.19 217.19 286.071 220.36 284.041 222.24C283.081 223.13 281.861 223.57 280.641 223.57C279.301 223.57 277.961 223.04 276.981 221.97Z" fill="black"/>
<path d="M279.25 224.561C277.56 222.381 277.95 219.241 280.13 217.551C282.31 215.851 285.45 216.25 287.15 218.43C288.84 220.61 288.45 223.751 286.27 225.441C285.36 226.151 284.27 226.501 283.2 226.501C281.71 226.501 280.24 225.831 279.25 224.561Z" fill="black"/>
<path d="M290.02 234.921C287.47 233.861 286.25 230.941 287.31 228.391C288.36 225.831 291.28 224.621 293.84 225.671C296.39 226.731 297.6 229.651 296.55 232.201C295.76 234.131 293.89 235.301 291.93 235.301C291.29 235.301 290.65 235.171 290.02 234.921Z" fill="black"/>
<path d="M286.42 230.251C284.63 228.141 284.88 224.991 286.98 223.201C289.08 221.401 292.23 221.651 294.03 223.751C295.82 225.851 295.57 229.011 293.47 230.801C292.53 231.611 291.37 232.001 290.22 232.001C288.81 232.001 287.41 231.401 286.42 230.251Z" fill="black"/>
<path d="M275.24 217.13C273.58 214.92 274.02 211.79 276.23 210.13C278.44 208.48 281.57 208.92 283.23 211.13C284.89 213.33 284.44 216.47 282.24 218.13C281.34 218.8 280.28 219.13 279.24 219.13C277.72 219.13 276.22 218.44 275.24 217.13Z" fill="black"/>
<path d="M276.4 209.1C273.64 209.08 271.41 206.82 271.43 204.06C271.45 201.3 273.71 199.08 276.47 199.1C279.23 199.12 281.45 201.37 281.43 204.13C281.42 206.88 279.18 209.1 276.44 209.1H276.4Z" fill="black"/>
<path d="M277.621 201.91C275.031 200.97 273.691 198.1 274.641 195.5C275.591 192.91 278.461 191.58 281.061 192.52C283.651 193.47 284.981 196.35 284.031 198.94C283.291 200.96 281.381 202.22 279.341 202.22C278.771 202.22 278.191 202.12 277.621 201.91Z" fill="black"/>
<path d="M276.271 201.011C276.191 200.961 276.041 200.871 275.781 200.691C275.521 200.501 275.161 200.291 274.531 199.551C272.781 197.411 273.101 194.271 275.241 192.521C277.121 190.981 279.791 191.041 281.591 192.541C283.921 194.011 284.631 197.091 283.161 199.431C282.211 200.941 280.581 201.771 278.921 201.771C278.011 201.771 277.091 201.531 276.271 201.011Z" fill="black"/>
<path d="M268.7 192.771C266.9 190.671 267.14 187.521 269.24 185.721C271.34 183.921 274.49 184.161 276.29 186.261C278.09 188.361 277.85 191.511 275.75 193.311C274.81 194.121 273.65 194.521 272.5 194.521C271.09 194.521 269.69 193.921 268.7 192.771Z" fill="black"/>
<path d="M268.31 183.48C265.55 183.4 263.38 181.1 263.46 178.34C263.54 175.58 265.84 173.41 268.6 173.48C271.36 173.56 273.53 175.86 273.45 178.62C273.38 181.34 271.15 183.48 268.46 183.48H268.31Z" fill="black"/>
<path d="M272.31 169.181C271.3 166.611 272.57 163.711 275.14 162.701C277.72 161.701 280.61 162.971 281.62 165.541C282.63 168.111 281.36 171.011 278.78 172.021C278.19 172.251 277.57 172.361 276.96 172.361C274.97 172.361 273.08 171.151 272.31 169.181Z" fill="black"/>
<path d="M283.68 172.56C281.3 171.16 280.5 168.1 281.9 165.71C283.29 163.33 286.36 162.53 288.74 163.93C291.12 165.32 291.92 168.38 290.52 170.77C289.59 172.36 287.92 173.24 286.2 173.24C285.35 173.24 284.48 173.02 283.68 172.56Z" fill="black"/>
<path d="M287.89 178.159C286.66 175.689 287.67 172.689 290.14 171.459C292.62 170.229 295.62 171.239 296.85 173.719C298.08 176.189 297.07 179.189 294.59 180.419C293.88 180.769 293.12 180.939 292.37 180.939C290.53 180.939 288.76 179.919 287.89 178.159Z" fill="black"/>
<path d="M388.37 138.14C385.63 137.81 383.68 135.31 384.02 132.57C384.36 129.83 386.85 127.88 389.59 128.21C392.33 128.55 394.28 131.05 393.94 133.79C393.63 136.32 391.48 138.18 388.99 138.18C388.78 138.18 388.58 138.17 388.37 138.14Z" fill="black"/>
<path d="M370.9 174.991C370.72 172.231 372.81 169.861 375.57 169.681C378.32 169.501 380.7 171.591 380.88 174.341C381.06 177.101 378.97 179.481 376.21 179.651C376.1 179.651 375.99 179.651 375.88 179.651C373.27 179.651 371.07 177.621 370.9 174.981V174.991Z" fill="black"/>
<path d="M368.81 176.72C367.86 174.12 369.2 171.25 371.79 170.3C374.38 169.36 377.25 170.69 378.2 173.29C379.15 175.88 377.81 178.75 375.22 179.7C374.65 179.91 374.07 180 373.5 180C371.46 180 369.55 178.74 368.81 176.72Z" fill="black"/>
<path d="M370.27 179.64C367.53 179.3 365.58 176.81 365.91 174.07C366.25 171.33 368.74 169.38 371.49 169.72C374.23 170.05 376.17 172.55 375.84 175.29C375.53 177.82 373.37 179.68 370.88 179.68C370.68 179.68 370.47 179.67 370.27 179.64Z" fill="black"/>
<path d="M367.5 178.641C364.85 177.861 363.34 175.071 364.12 172.431C364.91 169.781 367.69 168.271 370.34 169.051C372.98 169.841 374.49 172.621 373.71 175.271C373.07 177.441 371.08 178.851 368.92 178.851C368.45 178.851 367.97 178.781 367.5 178.641Z" fill="black"/>
<path d="M356.81 165.561C356.35 162.841 358.19 160.261 360.91 159.801C363.63 159.341 366.21 161.181 366.67 163.901C367.13 166.621 365.3 169.201 362.57 169.661C362.29 169.711 362.01 169.731 361.73 169.731C359.34 169.731 357.22 168.001 356.81 165.561Z" fill="black"/>
<path d="M365.19 136.631C362.45 136.291 360.49 133.801 360.83 131.061C361.17 128.311 363.66 126.371 366.4 126.701C369.14 127.041 371.09 129.531 370.76 132.271C370.45 134.811 368.29 136.671 365.8 136.671C365.6 136.671 365.39 136.651 365.19 136.631Z" fill="black"/>
<path d="M353.79 101.66C351.05 101.33 349.1 98.8297 349.44 96.0897C349.78 93.3497 352.27 91.3997 355.01 91.7397C357.75 92.0797 359.7 94.5697 359.37 97.3097C359.05 99.8497 356.9 101.7 354.41 101.7C354.21 101.7 354 101.7 353.79 101.66Z" fill="black"/>
<path d="M352.04 101.211C349.39 100.411 347.9 97.621 348.7 94.981C349.5 92.341 352.29 90.841 354.93 91.641C357.58 92.441 359.07 95.231 358.27 97.871C357.62 100.041 355.63 101.431 353.48 101.431C353.01 101.431 352.52 101.361 352.04 101.211Z" fill="black"/>
<path d="M351.52 102.16C348.9 101.27 347.51 98.4197 348.41 95.8097L348.58 95.3097C349.48 92.6897 352.32 91.2997 354.93 92.1997C357.55 93.0997 358.94 95.9397 358.04 98.5497L357.87 99.0597C357.16 101.13 355.21 102.44 353.14 102.44C352.6 102.44 352.05 102.35 351.52 102.16Z" fill="black"/>
<path d="M349.45 106.431C346.97 105.211 345.95 102.211 347.18 99.7407C348.39 97.2607 351.39 96.2407 353.87 97.4607C356.35 98.6807 357.37 101.681 356.15 104.151C355.28 105.921 353.5 106.951 351.66 106.951C350.92 106.951 350.16 106.781 349.45 106.431Z" fill="black"/>
<path d="M341.12 112.61C338.37 112.37 336.33 109.94 336.58 107.19C336.82 104.44 339.25 102.41 342 102.65C344.75 102.89 346.78 105.32 346.54 108.07C346.31 110.67 344.12 112.63 341.56 112.63C341.42 112.63 341.27 112.62 341.12 112.61Z" fill="black"/>
<path d="M337.48 139.48C334.74 139.13 332.8 136.62 333.15 133.88C333.5 131.15 336.01 129.21 338.75 129.56C341.49 129.91 343.42 132.41 343.07 135.15C342.75 137.68 340.6 139.52 338.12 139.52C337.91 139.52 337.7 139.5 337.48 139.48Z" fill="black"/>
<path d="M321.24 169C320.98 166.25 322.99 163.81 325.74 163.55C328.49 163.29 330.93 165.31 331.19 168.06C331.45 170.8 329.44 173.25 326.69 173.51C326.53 173.51 326.37 173.53 326.21 173.53C323.66 173.53 321.48 171.59 321.24 169Z" fill="black"/>
<path d="M318.9 170.519C317.99 167.909 319.37 165.059 321.97 164.149C324.58 163.249 327.43 164.619 328.34 167.229C329.25 169.839 327.87 172.689 325.26 173.599C324.72 173.789 324.16 173.879 323.62 173.879C321.55 173.879 319.61 172.589 318.9 170.519Z" fill="black"/>
<path d="M320.38 173.519C317.64 173.179 315.69 170.689 316.03 167.949C316.36 165.199 318.86 163.259 321.6 163.589C324.34 163.929 326.29 166.419 325.95 169.159C325.64 171.699 323.49 173.549 321 173.549C320.79 173.549 320.59 173.539 320.38 173.519Z" fill="black"/>
<path d="M318.14 172.611C316.02 171.651 314.79 169.301 315.32 166.941C315.94 164.251 318.62 162.561 321.31 163.181C322.15 163.381 322.42 163.561 322.71 163.701C322.98 163.841 323.17 163.961 323.34 164.071C325.66 165.571 326.32 168.671 324.81 170.991C323.85 172.461 322.25 173.271 320.61 173.271C319.77 173.271 318.92 173.051 318.14 172.611Z" fill="black"/>
<path d="M306.91 158.749C306.68 155.999 308.72 153.579 311.48 153.359C314.23 153.129 316.64 155.169 316.87 157.929C317.1 160.679 315.05 163.089 312.3 163.319C312.16 163.319 312.02 163.339 311.88 163.339C309.31 163.339 307.12 161.359 306.91 158.749Z" fill="black"/>
<path d="M314.52 136.991C311.78 136.651 309.83 134.161 310.17 131.421C310.5 128.681 313 126.731 315.74 127.071C318.48 127.401 320.43 129.901 320.09 132.641C319.78 135.171 317.62 137.031 315.13 137.031C314.93 137.031 314.72 137.031 314.52 136.991ZM317.74 110.681C315 110.341 313.05 107.851 313.39 105.111C313.72 102.371 316.22 100.421 318.96 100.751C321.7 101.091 323.65 103.591 323.31 106.331C323 108.861 320.84 110.721 318.35 110.721C318.15 110.721 317.95 110.701 317.74 110.681ZM320.97 84.3706C318.23 84.0306 316.28 81.5406 316.62 78.8006C316.95 76.0606 319.45 74.1106 322.19 74.4506C324.93 74.7806 326.88 77.2706 326.54 80.0206C326.23 82.5506 324.07 84.4106 321.58 84.4106C321.38 84.4106 321.18 84.4106 320.97 84.3706Z" fill="black"/>
<path d="M327.72 46.9098C327.21 44.1898 329.01 41.5798 331.72 41.0798C334.43 40.5798 337.04 42.3698 337.55 45.0798C338.05 47.7998 336.26 50.4098 333.54 50.9098C333.24 50.9698 332.93 50.9998 332.63 50.9998C330.26 50.9998 328.16 49.3098 327.72 46.9098Z" fill="black"/>
<path d="M342.92 56.3694C342.52 53.6394 344.42 51.0994 347.15 50.7094C349.88 50.3094 352.42 52.2094 352.81 54.9394C353.21 57.6694 351.31 60.2094 348.58 60.5994C348.34 60.6394 348.1 60.6594 347.86 60.6594C345.41 60.6594 343.28 58.8594 342.92 56.3694Z" fill="black"/>
<path d="M343.72 89.7708C340.98 89.4408 339.02 86.9508 339.36 84.2108C339.69 81.4708 342.18 79.5108 344.92 79.8508C347.67 80.1808 349.62 82.6708 349.29 85.4108C348.98 87.9508 346.82 89.8108 344.33 89.8108C344.13 89.8108 343.92 89.8108 343.72 89.7708Z" fill="black"/>
<path d="M342.25 88.6609C340.11 87.3709 339.28 84.7308 340.21 82.4908C340.83 80.0408 343.22 78.4208 345.77 78.7908C348.51 79.2008 350.39 81.7408 349.99 84.4708C349.88 85.2008 349.66 86.0508 349.11 86.9608C348.18 88.5208 346.52 89.3808 344.83 89.3808C343.95 89.3808 343.06 89.1509 342.25 88.6609Z" fill="black"/>
<path d="M348.61 74.7708C348.03 72.0808 349.74 69.4108 352.44 68.8308C355.14 68.2408 357.8 69.9608 358.38 72.6608C358.97 75.3508 357.26 78.0208 354.56 78.6008C354.2 78.6808 353.84 78.7208 353.49 78.7208C351.19 78.7208 349.12 77.1208 348.61 74.7708Z" fill="black"/>
<path d="M355.88 78.341C353.13 78.041 351.15 75.581 351.45 72.831C351.74 70.091 354.21 68.101 356.96 68.401C359.7 68.701 361.68 71.161 361.39 73.911C361.11 76.471 358.94 78.371 356.42 78.371C356.24 78.371 356.06 78.371 355.88 78.341Z" fill="black"/>
<path d="M371.44 80.3694C368.73 79.8194 366.99 77.1694 367.54 74.4694C368.1 71.7594 370.74 70.0194 373.45 70.5794C376.15 71.1294 377.9 73.7694 377.34 76.4794C376.85 78.8494 374.77 80.4794 372.45 80.4794C372.11 80.4794 371.77 80.4394 371.44 80.3694Z" fill="black"/>
<path d="M375.81 85.301C375.68 82.551 377.82 80.211 380.57 80.081C383.33 79.961 385.67 82.091 385.8 84.851C385.92 87.611 383.79 89.951 381.03 90.081H380.8C378.14 90.081 375.93 87.991 375.81 85.301Z" fill="black"/>
<path d="M380.68 94.3593C377.92 94.2893 375.74 91.9893 375.81 89.2293C375.88 86.4693 378.18 84.2893 380.94 84.3693C383.7 84.4393 385.88 86.7393 385.81 89.4993C385.74 92.2093 383.51 94.3693 380.81 94.3693C380.81 94.3693 380.72 94.3693 380.68 94.3693V94.3593Z" fill="black"/>
<path d="M383.49 94.4606C380.77 93.9506 378.98 91.3406 379.49 88.6306C379.99 85.9206 382.6 84.1306 385.32 84.6306C388.03 85.1406 389.82 87.7506 389.32 90.4606C388.87 92.8706 386.77 94.5506 384.41 94.5506C384.1 94.5506 383.8 94.5206 383.49 94.4606Z" fill="black"/>
<path d="M388.27 99.6105C387.82 96.8905 389.66 94.3105 392.39 93.8705C395.11 93.4205 397.69 95.2605 398.14 97.9805C398.59 100.71 396.74 103.28 394.02 103.73C393.74 103.78 393.47 103.8 393.2 103.8C390.8 103.8 388.67 102.06 388.27 99.6105Z" fill="black"/>
<path d="M79.9905 226.049C79.5605 223.319 81.4205 220.759 84.1505 220.329C86.8805 219.899 89.4405 221.759 89.8705 224.489C90.3005 227.219 88.4405 229.779 85.7105 230.209C85.4505 230.249 85.1805 230.269 84.9205 230.269C82.5105 230.269 80.3805 228.509 79.9905 226.049Z" fill="black"/>
<path d="M89.3198 266.371C86.5698 266.101 84.5698 263.651 84.8398 260.901C85.1198 258.151 87.5598 256.151 90.3098 256.421C93.0598 256.701 95.0599 259.141 94.7899 261.891C94.5299 264.471 92.3598 266.401 89.8198 266.401C89.6598 266.401 89.4898 266.401 89.3198 266.371Z" fill="black"/>
<path d="M79.4798 271.24C78.3698 268.72 79.5198 265.77 82.0398 264.65C84.5698 263.54 87.5198 264.69 88.6398 267.21C89.7498 269.74 88.5998 272.69 86.0698 273.8C85.4198 274.09 84.7298 274.23 84.0598 274.23C82.1398 274.23 80.3098 273.12 79.4798 271.24Z" fill="black"/>
<path d="M77.4197 273.44C75.7297 271.26 76.1297 268.12 78.3197 266.43C80.4997 264.74 83.6397 265.14 85.3297 267.33C87.0197 269.51 86.6197 272.65 84.4397 274.34C83.5297 275.04 82.4497 275.39 81.3797 275.39C79.8897 275.39 78.4097 274.72 77.4197 273.44Z" fill="black"/>
<path d="M73.8401 271.581C73.4101 268.851 75.2701 266.291 77.9901 265.861C80.7201 265.431 83.2801 267.291 83.7101 270.021C84.1401 272.751 82.2801 275.311 79.5601 275.741C79.2901 275.781 79.0301 275.801 78.7701 275.801C76.3501 275.801 74.2301 274.041 73.8401 271.581Z" fill="black"/>
<path d="M72.6705 270.941C72.4505 268.191 74.5005 265.781 77.2605 265.561C80.0105 265.341 82.4205 267.391 82.6405 270.141C82.8605 272.901 80.8105 275.301 78.0605 275.531C77.9205 275.531 77.7805 275.531 77.6505 275.531C75.0705 275.531 72.8805 273.551 72.6705 270.931V270.941Z" fill="black"/>
<path d="M63.6802 267.48C62.4502 265.01 63.4602 262.01 65.9302 260.78C68.4102 259.55 71.4102 260.56 72.6402 263.04C73.8702 265.51 72.8602 268.51 70.3902 269.74C69.6702 270.09 68.9102 270.26 68.1602 270.26C66.3302 270.26 64.5502 269.24 63.6802 267.48Z" fill="black"/>
<path d="M61.6399 262.071C61.2099 259.341 63.0699 256.781 65.7999 256.351C68.5299 255.921 71.0899 257.791 71.5199 260.521C71.9399 263.241 70.0799 265.801 67.3499 266.231C67.0899 266.271 66.8299 266.291 66.5699 266.291C64.1499 266.291 62.0199 264.531 61.6399 262.071Z" fill="black"/>
<path d="M56.6497 230.731C56.2197 228.001 58.0797 225.441 60.7997 225.011C63.5297 224.581 66.0897 226.441 66.5297 229.161C66.9597 231.891 65.0997 234.451 62.3697 234.881C62.1097 234.931 61.8397 234.951 61.5797 234.951C59.1697 234.951 57.0397 233.191 56.6497 230.731Z" fill="black"/>
<path d="M52.36 200.96C51.67 200.1 51.25 199.01 51.25 197.83C51.25 195.06 53.49 192.83 56.25 192.83C57.98 192.87 58.82 193.51 59.34 193.87C59.86 194.28 60.12 194.6 60.34 194.88C60.76 195.44 60.96 195.86 61.14 196.3C62.18 198.86 60.93 201.77 58.37 202.8C57.76 203.05 57.13 203.17 56.5 203.17C54.86 203.17 53.29 202.35 52.36 200.96Z" fill="black"/>
<path d="M51.0397 200.211C49.8997 197.701 50.9997 194.731 53.5097 193.581L53.8397 193.431C56.3497 192.281 59.3197 193.391 60.4697 195.901C61.6197 198.411 60.5097 201.371 57.9997 202.521L57.6697 202.681C56.9997 202.981 56.2897 203.131 55.5997 203.131C53.6997 203.131 51.8897 202.051 51.0397 200.211Z" fill="black"/>
<path d="M35.2698 201.36C34.8398 198.64 36.6998 196.07 39.4298 195.64C42.1498 195.21 44.7198 197.06 45.1498 199.79C45.5798 202.52 43.7298 205.08 40.9998 205.51C40.7298 205.56 40.4698 205.58 40.1998 205.58C37.7898 205.58 35.6698 203.82 35.2698 201.36Z" fill="black"/>
<path d="M36.5604 213.731C34.1704 212.341 33.3704 209.281 34.7604 206.891C36.1604 204.511 39.2204 203.701 41.6104 205.101C43.9904 206.491 44.7904 209.561 43.4004 211.941C42.4704 213.531 40.8004 214.421 39.0804 214.421C38.2204 214.421 37.3504 214.201 36.5604 213.731Z" fill="black"/>
<path d="M27.7698 216.941C26.4898 214.491 27.4398 211.471 29.8898 210.191C32.3298 208.911 35.3498 209.861 36.6298 212.311C37.9098 214.761 36.9598 217.781 34.5198 219.061C33.7798 219.441 32.9898 219.621 32.2098 219.621C30.3998 219.621 28.6598 218.651 27.7698 216.941Z" fill="black"/>
<path d="M27.89 217.43C26.63 215.06 27.47 212.1 29.81 210.75C32.21 209.37 35.26 210.2 36.64 212.59C36.68 212.66 36.78 212.81 36.91 213.09C37.05 213.39 37.27 213.75 37.46 214.74C37.9 217.46 36.05 220.03 33.32 220.47C33.05 220.52 32.78 220.54 32.52 220.54C30.48 220.54 28.65 219.29 27.89 217.43Z" fill="black"/>
<path d="M31.4602 240.879C31.0302 238.149 32.8902 235.589 35.6202 235.159C38.3502 234.729 40.9102 236.589 41.3402 239.319C41.7702 242.039 39.9102 244.609 37.1802 245.029C36.9102 245.079 36.6502 245.099 36.3902 245.099C33.9702 245.099 31.8502 243.339 31.4602 240.879Z" fill="black"/>
<path d="M35.2398 268.391C35.1998 265.631 37.3998 263.361 40.1598 263.321C42.9298 263.281 45.1998 265.481 45.2398 268.251C45.2798 271.011 43.0698 273.281 40.3098 273.321H40.2298C37.5098 273.321 35.2798 271.131 35.2398 268.391Z" fill="black"/>
<path d="M29.85 279.13C28.73 276.6 29.85 273.65 32.38 272.52C34.91 271.4 37.86 272.52 38.99 275.06C40.11 277.58 38.98 280.54 36.45 281.66C35.79 281.95 35.1 282.09 34.42 282.09C32.51 282.09 30.68 280.99 29.85 279.13Z" fill="black"/>
<path d="M27.8198 281.351C26.0998 279.191 26.4698 276.041 28.6298 274.331C30.7998 272.611 33.9398 272.981 35.6598 275.151C37.3698 277.311 37.0098 280.451 34.8398 282.171C33.9198 282.901 32.8298 283.251 31.7398 283.251C30.2598 283.251 28.7998 282.601 27.8198 281.351Z" fill="black"/>
<path d="M24.18 279.45C23.75 276.72 25.61 274.16 28.34 273.72C31.07 273.29 33.63 275.15 34.06 277.88C34.49 280.61 32.63 283.17 29.9 283.6C29.64 283.64 29.37 283.66 29.11 283.66C26.7 283.66 24.57 281.91 24.18 279.45Z" fill="black"/>
<path d="M23.1003 278.71C22.9403 275.95 25.0503 273.59 27.8103 273.44C30.5703 273.28 32.9303 275.39 33.0803 278.15C33.2403 280.9 31.1303 283.26 28.3703 283.42C28.2803 283.43 28.1803 283.43 28.0903 283.43C25.4603 283.43 23.2503 281.37 23.1003 278.71Z" fill="black"/>
<path d="M12.7204 271.821C12.2804 269.091 14.1504 266.531 16.8704 266.101C19.6004 265.671 22.1604 267.531 22.5904 270.261C23.0304 272.981 21.1704 275.551 18.4404 275.981C18.1704 276.021 17.9104 276.041 17.6504 276.041C15.2304 276.041 13.1104 274.281 12.7204 271.821Z" fill="black"/>
<path d="M8.54011 245.491C8.10011 242.761 9.97011 240.201 12.6901 239.771C15.4201 239.331 17.9801 241.191 18.4201 243.921C18.8501 246.651 16.9901 249.211 14.2601 249.641C14.0001 249.681 13.7301 249.701 13.4701 249.701C11.0601 249.701 8.93011 247.951 8.54011 245.491ZM4.34011 219.151C3.91011 216.431 5.77011 213.871 8.50011 213.431C11.2201 213.001 13.7801 214.861 14.2201 217.581C14.6501 220.311 12.7901 222.871 10.0701 223.311C9.80011 223.351 9.54011 223.371 9.27011 223.371C6.86011 223.371 4.73011 221.611 4.34011 219.151Z" fill="black"/>
<path d="M6.94007 183.88C5.82007 181.36 6.95007 178.41 9.48007 177.28C12.0001 176.16 14.9501 177.3 16.0701 179.82C17.2001 182.34 16.0701 185.3 13.5401 186.42C12.8801 186.71 12.1901 186.85 11.5101 186.85C9.59007 186.85 7.77007 185.75 6.94007 183.88Z" fill="black"/>
<path d="M22.7699 189.081C22.0099 186.431 23.5299 183.661 26.1899 182.891C28.8399 182.121 31.6099 183.651 32.3799 186.301C33.1499 188.951 31.6199 191.731 28.9699 192.501C28.4999 192.631 28.0299 192.691 27.5699 192.691C25.3999 192.691 23.4099 191.271 22.7699 189.081Z" fill="black"/>
<path d="M24.2699 193.741C23.1099 191.231 24.2099 188.261 26.7099 187.101C29.2199 185.951 32.1899 187.041 33.3499 189.541C34.5099 192.051 33.4099 195.031 30.9099 196.181C30.2299 196.501 29.5099 196.641 28.8099 196.641C26.9199 196.641 25.1099 195.571 24.2699 193.741Z" fill="black"/>
<path d="M27.62 185.24C25.49 183.49 25.18 180.34 26.93 178.21C28.68 176.07 31.83 175.76 33.97 177.51C36.1 179.26 36.41 182.41 34.66 184.55C33.67 185.75 32.24 186.38 30.79 186.38C29.68 186.38 28.55 186 27.62 185.24Z" fill="black"/>
<path d="M31.8898 178.551C31.3098 175.851 33.0298 173.191 35.7298 172.611C38.4298 172.031 41.0898 173.751 41.6698 176.451C42.2498 179.151 40.5298 181.811 37.8398 182.391C37.4798 182.461 37.1198 182.501 36.7798 182.501C34.4698 182.501 32.3998 180.901 31.8898 178.551Z" fill="black"/>
<path d="M47.3296 175.669C46.9496 172.939 48.8496 170.409 51.5796 170.019C54.3196 169.629 56.8496 171.529 57.2296 174.269C57.6196 176.999 55.7196 179.529 52.9896 179.919C52.7496 179.949 52.5096 179.969 52.2796 179.969C49.8296 179.969 47.6896 178.169 47.3296 175.669Z" fill="black"/>
<path d="M55.0199 180.18C52.3199 179.6 50.5999 176.94 51.1799 174.24C51.7599 171.54 54.4199 169.82 57.1199 170.4C59.8199 170.98 61.5399 173.64 60.9599 176.34C60.4499 178.69 58.3799 180.29 56.0699 180.29C55.7199 180.29 55.3699 180.26 55.0199 180.18Z" fill="black"/>
<path d="M59.5699 186.57C59.2199 183.83 61.1699 181.33 63.9099 180.98C66.6399 180.64 69.1499 182.58 69.4899 185.32C69.8299 188.06 67.8899 190.56 65.1499 190.91C64.9399 190.93 64.7299 190.95 64.5199 190.95C62.0399 190.95 59.8899 189.1 59.5699 186.57Z" fill="black"/>
<path d="M74.2501 193.121C73.1201 190.601 74.2501 187.641 76.7601 186.501C79.2801 185.371 82.2401 186.501 83.3701 189.011C84.5101 191.531 83.3701 194.491 80.8701 195.621C80.2001 195.921 79.5001 196.071 78.8201 196.071C76.9101 196.071 75.0901 194.971 74.2501 193.121Z" fill="black"/>
<path d="M75.3402 195.531C74.2102 193.011 75.3402 190.051 77.8402 188.921C80.3602 187.781 83.3202 188.901 84.4602 191.411C85.5902 193.931 84.4702 196.891 81.9602 198.031C81.2902 198.331 80.5902 198.471 79.9002 198.471C78.0002 198.471 76.1802 197.381 75.3402 195.531Z" fill="black"/>
<path d="M173.97 152.141C173.65 149.401 175.61 146.911 178.35 146.581C181.09 146.261 183.58 148.221 183.9 150.961C184.23 153.711 182.27 156.191 179.52 156.521C179.33 156.541 179.13 156.551 178.93 156.551C176.43 156.551 174.27 154.681 173.97 152.141Z" fill="black"/>
<path d="M173.22 147.861C172.24 145.281 173.54 142.391 176.12 141.411C178.7 140.431 181.59 141.731 182.57 144.311C183.55 146.891 182.25 149.781 179.67 150.761C179.09 150.981 178.49 151.091 177.9 151.091C175.88 151.091 173.98 149.861 173.22 147.861Z" fill="black"/>
<path d="M158.81 141.82C157.98 139.19 159.44 136.38 162.08 135.55C164.71 134.73 167.52 136.19 168.35 138.83C169.17 141.46 167.71 144.27 165.07 145.09C164.57 145.25 164.07 145.33 163.57 145.33C161.45 145.33 159.48 143.96 158.81 141.82Z" fill="black"/>
<path d="M157.56 137.47C156.47 134.94 157.63 132 160.17 130.9C162.7 129.8 165.65 130.97 166.74 133.51C167.84 136.04 166.67 138.98 164.14 140.08C163.49 140.36 162.82 140.49 162.15 140.49C160.22 140.49 158.38 139.36 157.56 137.47Z" fill="black"/>
<path d="M146.77 129.881C146.5 127.131 148.52 124.691 151.26 124.421C154.01 124.161 156.46 126.171 156.72 128.921C156.99 131.661 154.98 134.111 152.23 134.381C152.06 134.381 151.9 134.401 151.74 134.401C149.19 134.401 147.02 132.471 146.77 129.881Z" fill="black"/>
<path d="M130.111 132.74C129.651 130.02 131.491 127.44 134.221 126.99C136.941 126.53 139.521 128.37 139.971 131.1C140.421 133.82 138.581 136.4 135.861 136.85C135.581 136.9 135.311 136.92 135.031 136.92C132.641 136.92 130.521 135.19 130.111 132.74Z" fill="black"/>
<path d="M126.23 137.561C124.47 135.431 124.77 132.281 126.9 130.521C129.03 128.761 132.18 129.071 133.94 131.201C135.7 133.321 135.4 136.481 133.27 138.231C132.33 139.001 131.21 139.381 130.09 139.381C128.65 139.381 127.22 138.761 126.23 137.561Z" fill="black"/>
<path d="M121.87 146.06C121.16 143.39 122.74 140.65 125.41 139.94C128.07 139.22 130.82 140.8 131.53 143.47C132.25 146.13 130.67 148.88 128 149.59C127.56 149.71 127.13 149.76 126.7 149.76C124.49 149.76 122.47 148.29 121.87 146.06Z" fill="black"/>
<path d="M125.85 151.3C123.09 151.3 120.86 149.06 120.86 146.3C120.86 144.51 121.79 142.95 123.2 142.07C124.66 140.71 126.86 140.31 128.76 141.22C131.25 142.42 132.3 145.41 131.1 147.9C130.74 148.64 130.24 149.38 129.4 150.05C128.59 150.71 127.33 151.3 125.87 151.3H125.85Z" fill="black"/>
<path d="M118.17 147.71C117.6 145 119.33 142.35 122.04 141.79C124.74 141.22 127.39 142.95 127.95 145.65C128.52 148.36 126.79 151.01 124.09 151.57C123.74 151.65 123.4 151.68 123.06 151.68C120.74 151.68 118.66 150.06 118.17 147.71Z" fill="black"/>
<path d="M110.18 162.84C109.53 160.15 111.19 157.45 113.88 156.81C116.56 156.17 119.26 157.82 119.9 160.5C120.55 163.19 118.89 165.89 116.2 166.53C115.81 166.63 115.42 166.67 115.03 166.67C112.77 166.67 110.73 165.13 110.18 162.84Z" fill="black"/>
<path d="M100.681 172.65C100.371 169.91 102.341 167.43 105.091 167.12C107.831 166.81 110.311 168.78 110.621 171.53C110.931 174.27 108.961 176.75 106.211 177.06C106.021 177.08 105.831 177.09 105.641 177.09C103.131 177.09 100.971 175.21 100.681 172.65Z" fill="black"/>
<path d="M105.21 201.07C104.64 198.37 106.36 195.71 109.06 195.14C111.76 194.57 114.42 196.29 114.99 198.99C115.56 201.69 113.84 204.35 111.14 204.92C110.79 205 110.44 205.03 110.09 205.03C107.78 205.03 105.71 203.42 105.21 201.07Z" fill="black"/>
<path d="M117.14 208.05C116.6 205.34 118.34 202.7 121.05 202.16C123.76 201.61 126.4 203.36 126.94 206.07C127.49 208.77 125.74 211.41 123.03 211.96C122.7 212.02 122.37 212.06 122.04 212.06C119.71 212.06 117.62 210.42 117.14 208.05Z" fill="black"/>
<path d="M118.17 212.38C117.53 209.69 119.19 207 121.87 206.35C124.56 205.71 127.26 207.37 127.9 210.05C128.54 212.74 126.88 215.44 124.2 216.08C123.81 216.17 123.42 216.22 123.03 216.22C120.77 216.22 118.72 214.67 118.17 212.38Z" fill="black"/>
<path d="M119.4 215.441C118.32 212.901 119.5 209.961 122.04 208.881C124.58 207.801 127.52 208.981 128.6 211.521C129.69 214.071 128.5 217.001 125.96 218.081C125.32 218.361 124.66 218.491 124.01 218.491C122.06 218.491 120.21 217.341 119.4 215.441Z" fill="black"/>
<path d="M121.6 218.861C119.73 216.821 119.88 213.661 121.91 211.801C123.95 209.931 127.12 210.081 128.98 212.111C130.84 214.151 130.7 217.311 128.66 219.181C127.7 220.051 126.49 220.491 125.29 220.491C123.93 220.491 122.58 219.941 121.6 218.861Z" fill="black"/>
<path d="M133.61 219.71C133 217.02 134.69 214.34 137.38 213.73C140.07 213.12 142.75 214.81 143.36 217.5C143.97 220.2 142.28 222.87 139.59 223.48C139.22 223.57 138.84 223.61 138.48 223.61C136.19 223.61 134.13 222.03 133.61 219.71Z" fill="black"/>
<path d="M147.82 234.259C145.06 234.099 142.95 231.739 143.11 228.979C143.27 226.219 145.63 224.119 148.38 224.269C151.14 224.429 153.25 226.789 153.09 229.549C152.94 232.209 150.74 234.259 148.11 234.259H147.82Z" fill="black"/>
<path d="M148.82 234.21C146.22 233.28 144.87 230.42 145.8 227.82C146.73 225.22 149.6 223.87 152.2 224.8C154.8 225.73 156.15 228.59 155.21 231.19C154.48 233.24 152.56 234.51 150.51 234.51C149.95 234.51 149.38 234.41 148.82 234.21Z" fill="black"/>
<path d="M161.54 227.761C161.11 225.031 162.97 222.471 165.7 222.041C168.43 221.601 170.99 223.461 171.42 226.191C171.85 228.921 169.99 231.481 167.26 231.911C167 231.951 166.73 231.971 166.47 231.971C164.06 231.971 161.93 230.221 161.54 227.761Z" fill="black"/>
<path d="M163.65 227.571C162.84 224.931 164.32 222.131 166.96 221.321C169.6 220.511 172.4 221.991 173.21 224.631C174.02 227.271 172.53 230.071 169.89 230.871C169.41 231.031 168.91 231.101 168.42 231.101C166.29 231.101 164.31 229.711 163.65 227.571Z" fill="black"/>
<path d="M170.071 213.771C169.551 211.061 171.311 208.441 174.021 207.911C176.731 207.381 179.361 209.141 179.891 211.851C180.421 214.561 178.651 217.191 175.941 217.721C175.621 217.791 175.291 217.821 174.981 217.821C172.631 217.821 170.541 216.161 170.071 213.771Z" fill="black"/>
<path d="M181.54 212.209C179.41 210.459 179.08 207.309 180.83 205.169C182.58 203.029 185.73 202.709 187.87 204.459C190.01 206.209 190.32 209.359 188.58 211.499C187.59 212.709 186.15 213.329 184.7 213.329C183.59 213.329 182.47 212.969 181.54 212.209Z" fill="black"/>
<path d="M181.87 202.42C181.84 199.66 184.05 197.39 186.81 197.36C189.57 197.32 191.84 199.53 191.87 202.29C191.91 205.05 189.7 207.32 186.94 207.36H186.87C184.14 207.36 181.91 205.16 181.87 202.42Z" fill="black"/>
<path d="M181.23 197.32C181.01 194.57 183.07 192.16 185.82 191.95C188.58 191.73 190.98 193.79 191.2 196.54C191.41 199.3 189.35 201.7 186.6 201.91C186.47 201.93 186.34 201.93 186.2 201.93C183.62 201.93 181.43 199.94 181.23 197.32Z" fill="black"/>
<path d="M194.93 193.12C192.21 192.64 190.39 190.05 190.87 187.33C191.34 184.61 193.93 182.79 196.66 183.27C199.38 183.74 201.2 186.33 200.72 189.06C200.29 191.48 198.18 193.19 195.8 193.19C195.51 193.19 195.22 193.17 194.93 193.12Z" fill="black"/>
<path d="M191.04 185.049C190.61 182.319 192.47 179.759 195.2 179.329C197.92 178.899 200.48 180.759 200.92 183.489C201.35 186.219 199.49 188.779 196.76 189.209C196.49 189.249 196.23 189.269 195.97 189.269C193.55 189.269 191.43 187.509 191.04 185.049Z" fill="black"/>
<path d="M187.32 161.61C186.88 158.88 188.74 156.32 191.47 155.89C194.2 155.46 196.76 157.32 197.19 160.05C197.62 162.78 195.76 165.34 193.04 165.77C192.77 165.81 192.51 165.83 192.25 165.83C189.83 165.83 187.71 164.08 187.32 161.61Z" fill="black"/>
<path d="M186.45 159.48C185.27 156.98 186.33 154 188.83 152.82C191.32 151.63 194.31 152.7 195.49 155.2C196.67 157.69 195.6 160.67 193.11 161.86C192.42 162.18 191.69 162.34 190.97 162.34C189.1 162.34 187.3 161.28 186.45 159.48Z" fill="black"/>
<path d="M165.17 192.31C164.09 189.77 165.29 186.83 167.83 185.76C170.37 184.69 173.31 185.87 174.38 188.42C175.46 190.96 174.27 193.9 171.73 194.97C171.09 195.24 170.43 195.37 169.78 195.37C167.83 195.37 165.98 194.22 165.17 192.31Z" fill="black"/>
<path d="M159.14 205.061C158.34 202.421 159.83 199.631 162.48 198.831C165.12 198.021 167.91 199.521 168.71 202.161C169.51 204.801 168.01 207.601 165.37 208.401C164.89 208.541 164.4 208.611 163.92 208.611C161.77 208.611 159.79 207.221 159.14 205.061Z" fill="black"/>
<path d="M141.16 207.22C140.73 204.49 142.59 201.93 145.32 201.5C148.04 201.06 150.6 202.93 151.04 205.65C151.47 208.38 149.61 210.94 146.88 211.37C146.61 211.42 146.35 211.44 146.09 211.44C143.67 211.44 141.55 209.68 141.16 207.22Z" fill="black"/>
<path d="M140.11 203.761C138.93 201.261 140 198.281 142.5 197.111C145 195.931 147.98 197.001 149.15 199.501C150.33 202.001 149.25 204.981 146.76 206.161C146.07 206.481 145.35 206.631 144.63 206.631C142.76 206.631 140.96 205.571 140.11 203.761Z" fill="black"/>
<path d="M127.89 197.36C127.19 194.68 128.78 191.95 131.45 191.25C134.12 190.55 136.86 192.15 137.56 194.82C138.26 197.49 136.66 200.22 133.99 200.92C133.57 201.03 133.14 201.09 132.72 201.09C130.5 201.09 128.48 199.6 127.89 197.36Z" fill="black"/>
<path d="M123.56 170.26C123.13 167.53 124.98 164.97 127.71 164.54C130.44 164.11 133 165.97 133.43 168.69C133.87 171.42 132.01 173.98 129.28 174.41C129.01 174.46 128.75 174.48 128.49 174.48C126.07 174.48 123.95 172.72 123.56 170.26Z" fill="black"/>
<path d="M133.38 168.891C131.13 167.301 130.59 164.181 132.18 161.931C133.78 159.671 136.89 159.131 139.15 160.731C141.41 162.321 141.94 165.441 140.35 167.691C139.38 169.071 137.83 169.811 136.26 169.811C135.26 169.811 134.26 169.511 133.38 168.891Z" fill="black"/>
<path d="M136.521 159.471C134.051 158.231 133.06 155.221 134.31 152.761C135.55 150.291 138.561 149.301 141.021 150.551C143.491 151.791 144.481 154.801 143.241 157.261C142.361 159.001 140.601 160.011 138.771 160.011C138.011 160.011 137.241 159.841 136.521 159.471Z" fill="black"/>
<path d="M150.771 153.15C150.341 150.42 152.211 147.86 154.941 147.44C157.671 147.01 160.22 148.88 160.65 151.61C161.07 154.34 159.201 156.9 156.481 157.32C156.211 157.36 155.961 157.38 155.701 157.38C153.281 157.38 151.151 155.62 150.771 153.15Z" fill="black"/>
<path d="M163.59 163.641C163.32 160.901 165.33 158.451 168.08 158.181C170.82 157.911 173.27 159.921 173.54 162.661C173.81 165.411 171.81 167.861 169.06 168.131C168.89 168.151 168.73 168.151 168.56 168.151C166.02 168.151 163.85 166.231 163.59 163.641Z" fill="black"/>
<path d="M167.84 190.51C167.41 187.78 169.27 185.22 171.99 184.79C174.72 184.36 177.28 186.22 177.72 188.95C178.15 191.67 176.29 194.24 173.56 194.67C173.29 194.71 173.03 194.73 172.77 194.73C170.36 194.73 168.23 192.97 167.84 190.51Z" fill="black"/>
<path d="M513.63 25.0312C511.07 24.0012 509.82 21.0912 510.85 18.5212C511.88 15.9612 514.79 14.7212 517.35 15.7512C519.92 16.7812 521.16 19.6912 520.13 22.2512C519.35 24.2012 517.47 25.3912 515.49 25.3912C514.87 25.3912 514.24 25.2712 513.63 25.0312Z" fill="black"/>
<path d="M505.631 33.9995C503.311 32.5195 502.621 29.4295 504.111 27.0995C505.591 24.7695 508.681 24.0895 511.011 25.5695C513.341 27.0495 514.021 30.1395 512.541 32.4695C511.591 33.9695 509.971 34.7895 508.321 34.7895C507.401 34.7895 506.471 34.5295 505.631 33.9995Z" fill="black"/>
<path d="M501.5 40.43C499.18 38.95 498.5 35.85 499.99 33.53C501.48 31.2 504.57 30.53 506.9 32.01C509.22 33.5 509.9 36.6 508.41 38.92C507.45 40.41 505.84 41.23 504.19 41.23C503.27 41.23 502.34 40.97 501.5 40.43Z" fill="black"/>
<path d="M506.84 55.791C504.4 54.481 503.49 51.451 504.8 49.021C506.1 46.581 509.13 45.671 511.57 46.971C514 48.281 514.91 51.311 513.61 53.741C512.7 55.421 510.98 56.381 509.2 56.381C508.4 56.381 507.59 56.191 506.84 55.791Z" fill="black"/>
<path d="M528.59 69.9911C526.28 68.4811 525.63 65.3911 527.13 63.0711C528.64 60.7611 531.74 60.1111 534.05 61.6211C536.37 63.1211 537.02 66.2211 535.51 68.5411C534.55 70.0111 532.95 70.8111 531.32 70.8111C530.38 70.8111 529.44 70.5411 528.59 69.9911Z" fill="black"/>
<path d="M555.08 96.7605C552.54 95.6805 551.35 92.7405 552.43 90.2005C553.52 87.6605 556.45 86.4805 558.99 87.5605C561.53 88.6405 562.72 91.5805 561.64 94.1205C560.83 96.0205 558.98 97.1605 557.03 97.1605C556.38 97.1605 555.72 97.0305 555.08 96.7605Z" fill="black"/>
<path d="M555.811 99.2608C553.061 98.9608 551.091 96.4808 551.391 93.7408C551.701 91.0008 554.181 89.0208 556.921 89.3308C559.671 89.6308 561.641 92.1108 561.331 94.8508C561.051 97.4108 558.881 99.2908 556.371 99.2908C556.191 99.2908 556.001 99.2908 555.811 99.2608Z" fill="black"/>
<path d="M552.2 100.71C549.88 99.1997 549.22 96.1097 550.73 93.7897C552.23 91.4797 555.33 90.8197 557.65 92.3197C559.96 93.8297 560.62 96.9197 559.12 99.2397C558.16 100.71 556.55 101.52 554.92 101.52C553.98 101.52 553.04 101.25 552.2 100.71Z" fill="black"/>
<path d="M549.61 101.74C547.63 99.8095 547.6 96.6395 549.53 94.6695C551.46 92.6995 554.63 92.6595 556.6 94.5995C558.58 96.5295 558.61 99.6895 556.68 101.67C555.7 102.67 554.4 103.17 553.1 103.17C551.84 103.17 550.58 102.69 549.61 101.74Z" fill="black"/>
<path d="M541.52 105.349C538.89 104.479 537.48 101.649 538.35 99.0294C539.22 96.4094 542.05 94.9894 544.67 95.8594C547.29 96.7294 548.71 99.5594 547.84 102.179C547.14 104.279 545.19 105.609 543.09 105.609C542.57 105.609 542.04 105.529 541.52 105.349Z" fill="black"/>
<path d="M538.911 104.49C536.291 103.62 534.871 100.8 535.731 98.18C536.601 95.55 539.431 94.13 542.051 95C544.671 95.86 546.101 98.69 545.231 101.31C544.531 103.41 542.581 104.75 540.481 104.75C539.961 104.75 539.431 104.66 538.911 104.49Z" fill="black"/>
<path d="M515.91 89.7495C513.59 88.2395 512.94 85.1395 514.44 82.8295C515.94 80.5095 519.04 79.8495 521.36 81.3595C523.67 82.8595 524.33 85.9595 522.83 88.2795C521.87 89.7495 520.26 90.5495 518.63 90.5495C517.7 90.5495 516.75 90.2895 515.91 89.7495ZM494.06 75.5495C491.75 74.0495 491.09 70.9495 492.59 68.6295C494.1 66.3195 497.2 65.6595 499.51 67.1595C501.83 68.6695 502.48 71.7695 500.98 74.0795C500.02 75.5595 498.42 76.3595 496.78 76.3595C495.85 76.3595 494.9 76.0995 494.06 75.5495Z" fill="black"/>
<path d="M469.5 58.6208C467.6 56.6208 467.68 53.4608 469.67 51.5508C471.67 49.6508 474.83 49.7208 476.74 51.7208C478.65 53.7108 478.57 56.8808 476.57 58.7908C475.61 59.7108 474.36 60.1708 473.12 60.1708C471.8 60.1708 470.49 59.6508 469.5 58.6208Z" fill="black"/>
<path d="M471.351 42.2905C469.471 40.2705 469.591 37.1105 471.611 35.2305C473.641 33.3505 476.801 33.4705 478.681 35.4905C480.561 37.5205 480.441 40.6805 478.411 42.5605C477.451 43.4505 476.231 43.8905 475.021 43.8905C473.671 43.8905 472.331 43.3605 471.351 42.2905Z" fill="black"/>
<path d="M484 41.2796C481.54 40.0196 480.57 37.0096 481.82 34.5496C483.08 32.0896 486.09 31.1196 488.55 32.3696C491.01 33.6296 491.98 36.6396 490.73 39.0996C489.84 40.8296 488.09 41.8296 486.27 41.8296C485.51 41.8296 484.73 41.6496 484 41.2796Z" fill="black"/>
<path d="M487.45 43.0495C484.99 41.7895 484.03 38.7795 485.29 36.3195C486.55 33.8595 489.57 32.8995 492.03 34.1595C494.48 35.4295 495.45 38.4395 494.18 40.8995C493.29 42.6195 491.55 43.6095 489.73 43.6095C488.96 43.6095 488.18 43.4295 487.45 43.0495Z" fill="black"/>
<path d="M485.92 41.5399C483.9 40.0299 483.3 37.2099 484.61 34.9999C486.01 32.6199 489.07 31.8199 491.45 33.2299C492.23 33.6799 492.86 34.2499 493.35 34.8699C495.07 37.0299 494.72 40.1799 492.55 41.8999C491.63 42.6299 490.53 42.9899 489.44 42.9899C488.16 42.9899 486.88 42.4899 485.92 41.5399Z" fill="black"/>
<path d="M482.571 27.53C480.141 26.22 479.231 23.19 480.541 20.76C481.851 18.33 484.891 17.42 487.321 18.73C489.751 20.05 490.651 23.08 489.341 25.51C488.441 27.18 486.721 28.14 484.941 28.14C484.141 28.14 483.321 27.94 482.571 27.53Z" fill="black"/>
<path d="M490.77 13.7104C488.52 12.1104 488 8.99037 489.6 6.74037C491.2 4.49037 494.32 3.97037 496.57 5.57037C498.82 7.17037 499.34 10.3004 497.74 12.5404C496.77 13.9104 495.23 14.6404 493.66 14.6404C492.66 14.6404 491.65 14.3404 490.77 13.7104Z" fill="black"/>
<path d="M494.95 7.55025C493.98 4.97025 495.29 2.09025 497.87 1.12025C500.46 0.140247 503.34 1.45025 504.32 4.03025C505.29 6.62025 503.98 9.50025 501.4 10.4802C500.82 10.6902 500.22 10.8002 499.64 10.8002C497.61 10.8002 495.71 9.56025 494.95 7.55025Z" fill="black"/>
<path d="M505.79 10.4307C503.24 9.3507 502.06 6.4207 503.13 3.8707C504.21 1.3307 507.15 0.150703 509.69 1.2207C512.23 2.3007 513.42 5.2407 512.34 7.7807C511.53 9.6807 509.68 10.8307 507.73 10.8307C507.08 10.8307 506.42 10.7007 505.79 10.4307Z" fill="black"/>
<path d="M509.58 12.8609C507.6 10.9409 507.54 7.78086 509.46 5.79086C511.38 3.81086 514.55 3.75086 516.53 5.67086C518.52 7.59086 518.57 10.7609 516.65 12.7409C515.67 13.7609 514.36 14.2709 513.06 14.2709C511.8 14.2709 510.55 13.8009 509.58 12.8609Z" fill="black"/>
<path d="M649.35 124.721C649.09 121.971 651.11 119.541 653.86 119.271C656.6 119.011 659.04 121.031 659.31 123.781C659.57 126.521 657.55 128.971 654.8 129.231C654.64 129.231 654.48 129.251 654.32 129.251C651.78 129.251 649.6 127.311 649.35 124.721Z" fill="black"/>
<path d="M648.88 121.201C648.2 118.531 649.81 115.801 652.49 115.121C655.16 114.441 657.89 116.051 658.57 118.731C659.25 121.411 657.64 124.131 654.96 124.811C654.55 124.921 654.13 124.971 653.72 124.971C651.49 124.971 649.46 123.461 648.88 121.201Z" fill="black"/>
<path d="M634.11 114.57C633.26 111.94 634.71 109.12 637.33 108.27C639.96 107.42 642.78 108.86 643.63 111.49C644.48 114.12 643.03 116.94 640.41 117.79C639.9 117.95 639.38 118.03 638.87 118.03C636.76 118.03 634.8 116.68 634.11 114.57Z" fill="black"/>
<path d="M631.39 108.151C629.16 106.531 628.66 103.411 630.29 101.171C631.91 98.9408 635.03 98.4408 637.27 100.061C639.5 101.681 640 104.811 638.38 107.041C637.4 108.391 635.87 109.111 634.33 109.111C633.31 109.111 632.28 108.801 631.39 108.151Z" fill="black"/>
<path d="M622.14 102.701C621.8 99.9607 623.74 97.4607 626.48 97.1207C629.22 96.7707 631.72 98.7207 632.06 101.451C632.4 104.201 630.46 106.701 627.72 107.041C627.51 107.071 627.3 107.081 627.09 107.081C624.61 107.081 622.46 105.231 622.14 102.701Z" fill="black"/>
<path d="M604.74 106.151C604.07 103.471 605.7 100.761 608.38 100.091C611.05 99.4206 613.77 101.041 614.44 103.721C615.11 106.401 613.48 109.121 610.8 109.791C610.39 109.891 609.99 109.941 609.59 109.941C607.35 109.941 605.31 108.421 604.74 106.151Z" fill="black"/>
<path d="M601.46 119.59C598.7 119.45 596.58 117.1 596.72 114.34C596.86 111.58 599.21 109.46 601.97 109.6C604.73 109.74 606.85 112.1 606.71 114.85C606.57 117.52 604.36 119.59 601.72 119.59H601.46Z" fill="black"/>
<path d="M597.181 119.2C597.011 116.44 599.101 114.06 601.851 113.89C604.611 113.71 606.991 115.8 607.161 118.56C607.341 121.32 605.241 123.69 602.491 123.87C602.381 123.87 602.271 123.88 602.161 123.88C599.551 123.88 597.351 121.84 597.181 119.2Z" fill="black"/>
<path d="M588.991 127.96C586.681 126.43 586.051 123.33 587.581 121.03C589.101 118.73 592.211 118.1 594.511 119.62C596.811 121.15 597.441 124.25 595.911 126.55C594.951 128 593.361 128.79 591.741 128.79C590.791 128.79 589.831 128.52 588.991 127.96Z" fill="black"/>
<path d="M585.95 136.09C584.94 133.52 586.22 130.62 588.79 129.62C591.36 128.62 594.26 129.9 595.26 132.47C596.27 135.04 594.99 137.94 592.42 138.94C591.82 139.17 591.21 139.28 590.61 139.28C588.61 139.28 586.72 138.07 585.95 136.09Z" fill="black"/>
<path d="M584 136.981C582.84 134.481 583.94 131.501 586.44 130.341C588.95 129.181 591.92 130.271 593.08 132.781C594.24 135.291 593.15 138.261 590.64 139.421C589.96 139.731 589.25 139.881 588.54 139.881C586.66 139.881 584.85 138.811 584 136.981Z" fill="black"/>
<path d="M582.231 137.72C581.101 135.19 582.231 132.24 584.741 131.1L585.621 130.71C588.141 129.58 591.101 130.71 592.231 133.22C593.361 135.74 592.231 138.7 589.721 139.83L588.841 140.23C588.181 140.53 587.481 140.67 586.801 140.67C584.891 140.67 583.061 139.57 582.231 137.72Z" fill="black"/>
<path d="M579.771 149.439C577.061 148.909 575.301 146.269 575.841 143.569C576.381 140.859 579.011 139.099 581.721 139.629C584.421 140.169 586.191 142.799 585.651 145.509C585.171 147.889 583.091 149.539 580.751 149.539C580.431 149.539 580.101 149.509 579.771 149.439Z" fill="black"/>
<path d="M580.37 173.071C579.92 170.351 581.77 167.781 584.49 167.331C587.22 166.881 589.79 168.731 590.24 171.451C590.69 174.171 588.84 176.751 586.12 177.201C585.84 177.241 585.57 177.261 585.3 177.261C582.9 177.261 580.78 175.521 580.37 173.071Z" fill="black"/>
<path d="M591.021 180.3C590.811 177.55 592.871 175.14 595.631 174.94C598.381 174.72 600.781 176.78 600.991 179.54C601.211 182.29 599.151 184.7 596.391 184.9C596.261 184.9 596.131 184.92 596.001 184.92C593.421 184.92 591.221 182.92 591.021 180.3Z" fill="black"/>
<path d="M591.7 180.251C591.49 177.501 593.55 175.091 596.3 174.881L596.98 174.831C599.73 174.621 602.13 176.681 602.34 179.441C602.56 182.191 600.49 184.591 597.74 184.801L597.07 184.851C596.94 184.851 596.81 184.871 596.68 184.871C594.09 184.871 591.9 182.871 591.7 180.251Z" fill="black"/>
<path d="M601.72 195.15C599.25 193.9 598.26 190.9 599.5 188.43C600.74 185.97 603.75 184.97 606.21 186.21C608.68 187.45 609.68 190.46 608.43 192.93C607.55 194.67 605.79 195.68 603.96 195.68C603.21 195.68 602.44 195.51 601.72 195.15Z" fill="black"/>
<path d="M608.95 192.35C608.38 189.65 610.1 187 612.8 186.42C615.5 185.85 618.16 187.57 618.73 190.27C619.31 192.97 617.58 195.63 614.88 196.2C614.53 196.28 614.18 196.31 613.83 196.31C611.52 196.31 609.45 194.7 608.95 192.35Z" fill="black"/>
<path d="M623.18 206.951C620.43 206.791 618.32 204.431 618.47 201.681C618.63 198.921 620.99 196.811 623.75 196.961C626.51 197.121 628.61 199.481 628.46 202.241C628.31 204.901 626.1 206.961 623.47 206.961C623.38 206.961 623.28 206.961 623.18 206.961V206.951Z" fill="black"/>
<path d="M624.22 206.91C621.61 206 620.24 203.15 621.16 200.54C622.07 197.93 624.93 196.56 627.53 197.48C630.14 198.39 631.51 201.25 630.59 203.85C629.87 205.91 627.94 207.2 625.87 207.2C625.32 207.2 624.76 207.11 624.22 206.91Z" fill="black"/>
<path d="M636.901 200.45C636.471 197.72 638.331 195.16 641.051 194.73C643.781 194.3 646.341 196.16 646.771 198.89C647.211 201.61 645.351 204.17 642.621 204.61C642.351 204.65 642.091 204.67 641.831 204.67C639.411 204.67 637.291 202.91 636.901 200.45Z" fill="black"/>
<path d="M645.11 198.77C643.41 196.59 643.79 193.45 645.97 191.75C648.14 190.05 651.28 190.43 652.99 192.61C654.68 194.78 654.3 197.92 652.13 199.62C651.21 200.34 650.13 200.69 649.05 200.69C647.56 200.69 646.09 200.03 645.11 198.77Z" fill="black"/>
<path d="M647.421 183.67C646.391 181.1 647.641 178.19 650.201 177.17C652.771 176.14 655.671 177.39 656.701 179.95C657.731 182.52 656.481 185.43 653.911 186.45C653.311 186.7 652.681 186.81 652.061 186.81C650.081 186.81 648.201 185.62 647.421 183.67Z" fill="black"/>
<path d="M644.891 180.471C642.431 179.221 641.451 176.201 642.701 173.751C643.951 171.281 646.961 170.301 649.431 171.551C651.891 172.811 652.871 175.821 651.611 178.281C650.731 180.011 648.981 181.011 647.151 181.011C646.391 181.011 645.621 180.841 644.891 180.471Z" fill="black"/>
<path d="M626.8 178.279C626.33 175.549 628.15 172.969 630.88 172.499C633.6 172.029 636.191 173.859 636.651 176.579C637.121 179.299 635.301 181.879 632.581 182.349C632.291 182.399 632 182.429 631.72 182.429C629.33 182.429 627.22 180.709 626.8 178.279Z" fill="black"/>
<path d="M616.501 179.93C616.061 177.2 617.901 174.63 620.631 174.18C623.351 173.74 625.921 175.58 626.371 178.31C626.821 181.03 624.971 183.6 622.251 184.05C621.971 184.1 621.701 184.12 621.431 184.12C619.031 184.12 616.911 182.38 616.501 179.93Z" fill="black"/>
<path d="M615.92 177.53C615.27 174.84 616.93 172.15 619.62 171.51C622.3 170.86 625 172.52 625.64 175.21C626.28 177.89 624.63 180.59 621.94 181.23C621.55 181.33 621.16 181.37 620.77 181.37C618.51 181.37 616.46 179.83 615.92 177.53Z" fill="black"/>
<path d="M611.13 173.37C608.37 173.19 606.29 170.8 606.47 168.05C606.66 165.29 609.04 163.21 611.8 163.39C614.55 163.58 616.63 165.96 616.45 168.71C616.28 171.36 614.08 173.38 611.47 173.38C611.36 173.38 611.24 173.38 611.13 173.37Z" fill="black"/>
<path d="M603.08 169.03C602.88 166.28 604.96 163.89 607.71 163.69C610.46 163.5 612.86 165.58 613.05 168.33C613.24 171.08 611.17 173.47 608.41 173.67C608.29 173.68 608.17 173.68 608.06 173.68C605.45 173.68 603.26 171.67 603.08 169.03Z" fill="black"/>
<path d="M601.11 156.51C600.68 153.78 602.55 151.23 605.28 150.8C608.01 150.37 610.56 152.24 610.99 154.97C611.41 157.7 609.55 160.25 606.82 160.68C606.56 160.72 606.3 160.74 606.04 160.74C603.62 160.74 601.49 158.98 601.11 156.51Z" fill="black"/>
<path d="M627.581 152.291C627.151 149.561 629.001 147.001 631.731 146.561C634.461 146.121 637.021 147.981 637.461 150.711C637.891 153.431 636.041 156.001 633.311 156.431C633.041 156.481 632.781 156.501 632.511 156.501C630.101 156.501 627.981 154.751 627.581 152.291Z" fill="black"/>
<path d="M667.231 142.72C664.481 142.44 662.481 139.99 662.761 137.24C663.041 134.49 665.491 132.49 668.241 132.77C670.991 133.05 672.991 135.5 672.711 138.25C672.451 140.83 670.271 142.75 667.741 142.75C667.571 142.75 667.401 142.75 667.231 142.72Z" fill="black"/>
<path d="M667.29 141.741C664.55 141.451 662.56 138.991 662.85 136.241C662.91 135.701 663.05 134.791 663.44 133.871C664.52 131.331 667.45 130.141 669.99 131.221C672.42 132.251 673.61 134.961 672.78 137.421C672.46 139.931 670.32 141.771 667.83 141.771C667.66 141.771 667.48 141.771 667.29 141.741Z" fill="black"/>
<path d="M662.54 133.12C662.11 130.4 663.97 127.83 666.7 127.4C669.43 126.97 671.99 128.83 672.42 131.56C672.85 134.28 670.99 136.85 668.26 137.28C668 137.32 667.74 137.34 667.48 137.34C665.06 137.34 662.94 135.58 662.54 133.12Z" fill="black"/>
<path d="M661.15 131.231C659.38 129.111 659.67 125.951 661.79 124.191C663.91 122.421 667.07 122.711 668.83 124.831C670.6 126.951 670.31 130.111 668.19 131.871C667.25 132.651 666.12 133.031 664.99 133.031C663.56 133.031 662.14 132.421 661.15 131.231Z" fill="black"/>
<path d="M613.33 132.581C610.57 132.541 608.36 130.281 608.4 127.511C608.44 124.751 610.71 122.541 613.47 122.581C616.23 122.621 618.44 124.891 618.4 127.651C618.36 130.391 616.13 132.581 613.4 132.581H613.33Z" fill="black"/>
<path d="M610.86 128.241C610.43 125.511 612.29 122.951 615.02 122.521C617.75 122.091 620.31 123.961 620.74 126.691C621.17 129.411 619.3 131.971 616.58 132.401C616.31 132.441 616.05 132.461 615.79 132.461C613.37 132.461 611.25 130.701 610.86 128.241Z" fill="black"/>
<path d="M626.13 125.829C625.7 123.099 627.56 120.539 630.29 120.109C633.02 119.669 635.58 121.529 636.01 124.259C636.44 126.989 634.58 129.549 631.85 129.979C631.59 130.019 631.32 130.039 631.06 130.039C628.65 130.039 626.52 128.289 626.13 125.829Z" fill="black"/>
<path d="M626.77 128.921C626.21 126.221 627.95 123.581 630.65 123.021C633.35 122.461 636 124.201 636.56 126.901C637.12 129.611 635.38 132.251 632.68 132.811C632.33 132.881 631.99 132.911 631.66 132.911C629.33 132.911 627.25 131.291 626.77 128.921Z" fill="black"/>
<path d="M608.74 131.54C608.31 128.82 610.171 126.26 612.901 125.82C615.631 125.39 618.191 127.25 618.621 129.98C619.051 132.71 617.191 135.27 614.461 135.7C614.201 135.74 613.93 135.76 613.67 135.76C611.26 135.76 609.13 134.01 608.74 131.54Z" fill="black"/>
<path d="M613.68 135.759C611.11 135.759 608.93 133.789 608.7 131.179L608.43 127.999C608.2 125.249 610.24 122.829 612.99 122.589C615.75 122.349 618.16 124.389 618.4 127.149L618.67 130.329C618.9 133.079 616.86 135.5 614.11 135.74C613.97 135.75 613.82 135.759 613.68 135.759Z" fill="black"/>
<path d="M475.37 112.76C474.44 110.16 475.79 107.29 478.38 106.36C480.98 105.42 483.85 106.77 484.78 109.37C485.72 111.97 484.37 114.83 481.77 115.77C481.21 115.97 480.64 116.07 480.08 116.07C478.03 116.07 476.1 114.8 475.37 112.76Z" fill="black"/>
<path d="M460.68 106.07C459.83 103.44 461.27 100.62 463.89 99.7696C466.52 98.9196 469.34 100.36 470.19 102.98C471.04 105.61 469.6 108.43 466.97 109.28C466.46 109.45 465.94 109.53 465.43 109.53C463.32 109.53 461.36 108.18 460.68 106.07Z" fill="black"/>
<path d="M458.29 99.9912C456.41 97.9612 456.53 94.8012 458.56 92.9212C460.59 91.0512 463.75 91.1712 465.63 93.1912C467.5 95.2212 467.38 98.3812 465.35 100.261C464.39 101.151 463.17 101.591 461.96 101.591C460.61 101.591 459.27 101.051 458.29 99.9912Z" fill="black"/>
<path d="M448.54 94.0796C448.23 91.3296 450.21 88.8596 452.96 88.5496C455.7 88.2496 458.17 90.2296 458.48 92.9696C458.78 95.7196 456.8 98.1896 454.06 98.4996C453.87 98.5196 453.69 98.5296 453.5 98.5296C450.99 98.5296 448.82 96.6396 448.54 94.0796Z" fill="black"/>
<path d="M431.31 97.3802C430.71 94.6802 432.4 92.0102 435.1 91.4002C437.79 90.8002 440.47 92.4903 441.07 95.1903C441.67 97.8803 439.98 100.56 437.29 101.16C436.92 101.24 436.55 101.28 436.19 101.28C433.9 101.28 431.83 99.7002 431.31 97.3802Z" fill="black"/>
<path d="M427.88 110.821C425.12 110.661 423.02 108.301 423.17 105.551C423.33 102.791 425.69 100.681 428.44 100.841C431.2 100.991 433.31 103.351 433.15 106.111C433 108.771 430.8 110.831 428.17 110.831C428.07 110.831 427.98 110.831 427.88 110.831V110.821Z" fill="black"/>
<path d="M423.25 110.651C423.07 107.891 425.16 105.511 427.91 105.331C430.67 105.151 433.05 107.231 433.23 109.991C433.41 112.741 431.33 115.121 428.57 115.311C428.46 115.311 428.35 115.311 428.23 115.311C425.62 115.311 423.43 113.281 423.25 110.641V110.651Z" fill="black"/>
<path d="M416.29 125.501C413.53 125.401 411.37 123.081 411.47 120.321C411.57 117.561 413.89 115.411 416.65 115.511C419.41 115.611 421.57 117.931 421.47 120.691C421.37 123.381 419.15 125.501 416.47 125.501H416.29Z" fill="black"/>
<path d="M412.17 126.42C411.82 123.68 413.75 121.18 416.49 120.83C419.23 120.47 421.74 122.41 422.09 125.15C422.44 127.89 420.51 130.39 417.77 130.74C417.55 130.77 417.34 130.78 417.12 130.78C414.65 130.78 412.5 128.94 412.17 126.42Z" fill="black"/>
<path d="M406.74 139.86C404.01 139.48 402.1 136.95 402.49 134.22C402.87 131.48 405.4 129.58 408.13 129.96C410.87 130.34 412.77 132.87 412.39 135.61C412.04 138.11 409.9 139.91 407.44 139.91C407.21 139.91 406.98 139.91 406.74 139.86Z" fill="black"/>
<path d="M402.241 138.34C401.811 135.61 403.671 133.05 406.391 132.62C409.121 132.19 411.681 134.05 412.111 136.78C412.551 139.5 410.681 142.07 407.961 142.5C407.691 142.54 407.431 142.56 407.171 142.56C404.751 142.56 402.631 140.8 402.241 138.34Z" fill="black"/>
<path d="M405.97 162.001C405.54 159.271 407.4 156.711 410.13 156.281C412.86 155.851 415.42 157.711 415.85 160.441C416.28 163.171 414.42 165.731 411.69 166.161C411.43 166.201 411.16 166.221 410.9 166.221C408.49 166.221 406.36 164.461 405.97 162.001Z" fill="black"/>
<path d="M407.84 167.65C406.68 165.15 407.77 162.18 410.28 161.01C412.78 159.86 415.75 160.94 416.91 163.45C418.08 165.96 416.98 168.93 414.48 170.09C413.8 170.4 413.08 170.55 412.38 170.55C410.49 170.55 408.69 169.48 407.84 167.65Z" fill="black"/>
<path d="M419.34 172.191C418.76 169.491 420.48 166.831 423.18 166.251C425.88 165.671 428.54 167.391 429.12 170.091C429.7 172.791 427.98 175.451 425.28 176.031C424.93 176.111 424.57 176.141 424.23 176.141C421.92 176.141 419.85 174.541 419.34 172.191Z" fill="black"/>
<path d="M420.7 178.421C419.69 175.851 420.97 172.951 423.54 171.951C426.12 170.951 429.01 172.221 430.02 174.791C431.02 177.371 429.74 180.261 427.17 181.271C426.57 181.501 425.96 181.611 425.35 181.611C423.35 181.611 421.47 180.401 420.7 178.421Z" fill="black"/>
<path d="M434.941 184.019C434.301 181.339 435.951 178.639 438.641 177.989C441.321 177.349 444.021 178.999 444.671 181.689C445.311 184.369 443.661 187.079 440.971 187.719C440.581 187.809 440.19 187.859 439.8 187.859C437.54 187.859 435.491 186.309 434.941 184.019Z" fill="black"/>
<path d="M449.24 198.39C446.48 198.18 444.41 195.79 444.61 193.04C444.81 190.28 447.21 188.21 449.96 188.41C452.72 188.61 454.79 191.01 454.59 193.76C454.39 196.39 452.2 198.4 449.61 198.4C449.48 198.4 449.36 198.4 449.24 198.4V198.39Z" fill="black"/>
<path d="M450.43 198.27C447.87 197.25 446.62 194.34 447.65 191.77C448.68 189.21 451.59 187.96 454.15 188.99C456.71 190.02 457.96 192.92 456.93 195.49C456.15 197.44 454.27 198.63 452.29 198.63C451.67 198.63 451.04 198.52 450.43 198.27Z" fill="black"/>
<path d="M463.32 191.879C462.88 189.159 464.75 186.589 467.47 186.159C470.2 185.729 472.76 187.589 473.19 190.319C473.62 193.049 471.76 195.609 469.04 196.039C468.77 196.079 468.51 196.099 468.25 196.099C465.83 196.099 463.71 194.349 463.32 191.879Z" fill="black"/>
<path d="M470.15 190.601C468.65 188.281 469.31 185.181 471.62 183.681C473.94 182.181 477.04 182.841 478.54 185.161C480.04 187.481 479.38 190.571 477.06 192.081C476.22 192.621 475.28 192.881 474.35 192.881C472.71 192.881 471.1 192.081 470.15 190.601Z" fill="black"/>
<path d="M473.87 175.64C473.29 172.94 475 170.28 477.7 169.69C480.4 169.1 483.06 170.82 483.65 173.51C484.23 176.21 482.52 178.87 479.82 179.46C479.47 179.54 479.11 179.58 478.76 179.58C476.46 179.58 474.39 177.98 473.87 175.64Z" fill="black"/>
<path d="M471.3 171.941C468.85 170.671 467.89 167.661 469.15 165.201C470.41 162.751 473.43 161.781 475.88 163.051C478.34 164.311 479.31 167.331 478.04 169.781C477.15 171.501 475.4 172.491 473.59 172.491C472.82 172.491 472.04 172.321 471.3 171.941Z" fill="black"/>
<path d="M452.97 169.721C452.54 167.001 454.41 164.441 457.13 164.011C459.86 163.581 462.42 165.441 462.85 168.171C463.28 170.901 461.41 173.461 458.69 173.891C458.42 173.931 458.16 173.951 457.9 173.951C455.48 173.951 453.36 172.191 452.97 169.721Z" fill="black"/>
<path d="M442.59 171.41C442.15 168.68 444.01 166.12 446.74 165.68C449.46 165.24 452.03 167.1 452.47 169.82C452.91 172.55 451.05 175.12 448.32 175.55C448.05 175.6 447.79 175.62 447.52 175.62C445.11 175.62 442.99 173.87 442.59 171.41Z" fill="black"/>
<path d="M441.74 167.15C441.2 164.44 442.95 161.8 445.66 161.26C448.37 160.72 451 162.48 451.54 165.19C452.08 167.89 450.33 170.53 447.62 171.07C447.29 171.14 446.96 171.17 446.64 171.17C444.3 171.17 442.21 169.53 441.74 167.15Z" fill="black"/>
<path d="M429.95 161.44C429.25 158.76 430.86 156.03 433.53 155.34C436.2 154.65 438.93 156.25 439.63 158.92C440.32 161.6 438.72 164.33 436.04 165.02C435.62 165.13 435.2 165.18 434.78 165.18C432.56 165.18 430.53 163.69 429.95 161.44Z" fill="black"/>
<path d="M427.79 147.93C427.36 145.2 429.22 142.64 431.95 142.21C434.68 141.78 437.24 143.64 437.67 146.36C438.1 149.09 436.24 151.65 433.51 152.08C433.25 152.12 432.99 152.15 432.73 152.15C430.31 152.15 428.18 150.39 427.79 147.93Z" fill="black"/>
<path d="M454.12 143.7C453.68 140.98 455.54 138.41 458.26 137.97C460.99 137.54 463.56 139.39 463.99 142.12C464.43 144.85 462.58 147.41 459.85 147.85C459.58 147.89 459.31 147.91 459.05 147.91C456.64 147.91 454.52 146.16 454.12 143.7Z" fill="black"/>
<path d="M489.15 126.8C488.8 124.07 490.75 121.57 493.49 121.22C496.23 120.88 498.73 122.82 499.07 125.56C499.41 128.3 497.47 130.8 494.73 131.15C494.52 131.17 494.31 131.19 494.1 131.19C491.62 131.19 489.46 129.33 489.15 126.8Z" fill="black"/>
<path d="M476.04 115.931C475.87 113.171 477.96 110.801 480.72 110.621C483.47 110.451 485.85 112.541 486.02 115.301C486.2 118.051 484.1 120.431 481.35 120.601C481.24 120.601 481.13 120.601 481.02 120.601C478.41 120.601 476.21 118.571 476.04 115.921V115.931Z" fill="black"/>
<path d="M481.02 120.61C478.7 120.61 476.61 118.98 476.13 116.61L475.2 112.06C474.65 109.35 476.39 106.71 479.09 106.16C481.8 105.61 484.44 107.35 484.99 110.05L485.92 114.6C486.48 117.31 484.73 119.95 482.03 120.5C481.69 120.57 481.35 120.6 481.02 120.6V120.61Z" fill="black"/>
<path d="M434.47 119.68C434.29 116.93 436.37 114.54 439.12 114.36C441.88 114.17 444.26 116.25 444.45 119.01C444.63 121.76 442.55 124.15 439.79 124.33C439.68 124.34 439.56 124.34 439.45 124.34C436.84 124.34 434.65 122.32 434.47 119.68Z" fill="black"/>
<path d="M451.47 117.421C451.04 114.701 452.89 112.131 455.62 111.701C458.35 111.261 460.91 113.121 461.35 115.851C461.78 118.571 459.93 121.141 457.2 121.571C456.93 121.621 456.66 121.641 456.4 121.641C453.99 121.641 451.87 119.881 451.47 117.421Z" fill="black"/>
<path d="M452.461 118.29C451.391 115.75 452.591 112.82 455.141 111.75C457.681 110.68 460.611 111.87 461.681 114.42C462.751 116.97 461.551 119.9 459.011 120.97C458.381 121.23 457.721 121.36 457.071 121.36C455.121 121.36 453.271 120.21 452.461 118.29Z" fill="black"/>
<path d="M452.61 118.64C452.61 118.64 452.61 118.62 452.61 118.6C451.56 116.05 452.78 113.13 455.34 112.08C457.9 111.04 460.82 112.26 461.86 114.82C461.94 115.02 462.02 115.18 462.16 115.63C462.95 118.28 461.45 121.07 458.8 121.86C458.33 122 457.84 122.07 457.37 122.07C455.26 122.07 453.31 120.73 452.62 118.64H452.61Z" fill="black"/>
<path d="M453.37 120.931C452.5 118.311 453.91 115.471 456.53 114.601C459.15 113.731 461.98 115.141 462.86 117.761C463.73 120.381 462.32 123.211 459.7 124.081C459.17 124.261 458.64 124.341 458.11 124.341C456.02 124.341 454.07 123.021 453.37 120.931Z" fill="black"/>
<path d="M434.921 123.02C434.481 120.29 436.351 117.73 439.071 117.3C441.801 116.87 444.361 118.72 444.791 121.45C445.221 124.18 443.371 126.74 440.641 127.17C440.371 127.22 440.111 127.24 439.851 127.24C437.431 127.24 435.311 125.48 434.921 123.02Z" fill="black"/>
<path d="M439.85 127.229C437.38 127.229 435.24 125.399 434.9 122.889L434.51 119.999C434.14 117.259 436.07 114.749 438.8 114.379C441.54 114.009 444.05 115.939 444.42 118.669L444.81 121.559C445.18 124.299 443.25 126.809 440.52 127.179C440.3 127.209 440.07 127.219 439.85 127.219V127.229Z" fill="black"/>
</g>
</g>
<defs>
<clipPath id="clip0_2561_7417">
<rect width="673.04" height="302.25" fill="white"/>
</clipPath>
</defs>
</svg>
