<svg width="586" height="95" viewBox="0 0 586 95" fill="none" xmlns="http://www.w3.org/2000/svg">
<g clip-path="url(#clip0_2561_6776)">
<mask id="mask0_2561_6776" style="mask-type:luminance" maskUnits="userSpaceOnUse" x="0" y="0" width="586" height="95">
<path d="M585.35 0H0V94.36H585.35V0Z" fill="white"/>
</mask>
<g mask="url(#mask0_2561_6776)">
<path d="M585.35 47.0996V48.3396C584.87 49.6896 584.47 51.1396 583.41 52.2896C582.94 52.7996 582.01 53.1296 581.39 53.4296C580.1 54.0596 578.9 53.5596 577.78 52.8796C576.92 52.3596 576.27 51.7796 575.95 50.7496C574.96 47.5296 574.75 47.1796 576.74 43.6296C576.9 41.0496 576.72 38.3896 575.56 36.0296C574.85 34.5896 573.68 33.4496 572.61 32.2196C572.05 31.5796 571.15 31.1696 570.42 30.6996C569.06 29.8096 567.77 28.8596 566.25 28.2896C564.02 27.4596 561.89 26.4196 559.54 26.1496L557.38 25.9096C555.98 25.7496 554.69 25.7496 553.28 25.8896C551.61 26.0496 549.76 25.8896 548.24 26.7996C543.95 29.3596 544.69 29.7496 542.65 33.8096C542.1 34.8896 541.83 36.7296 542.51 37.8096L544.09 40.3096L545.49 43.1996C546.4 45.0796 548.16 46.3396 549.51 47.8096C550.3 48.6796 550.88 49.2396 551.93 49.7496C553.09 50.3096 554.88 51.8896 556.45 52.8696C557.3 53.3996 557.9 54.6096 558.81 55.0396C560.13 55.6596 561.08 56.2996 562.13 57.2996C563.28 58.3996 564.4 59.4796 565.49 60.6796C566.48 61.7796 567.58 62.7796 568.3 64.0696L569.66 66.4696L570.56 68.7496C571.09 70.0996 571.9 71.1396 571.89 72.6596L571.87 73.9096L571.76 78.9796C571.73 80.5996 571.22 81.9496 570.38 83.2796L568.95 85.5596C568.48 86.3096 568.05 87.0096 567.44 87.6396C566.91 88.1996 566.41 88.9296 565.79 89.3496C564.99 89.8796 564.17 90.5697 563.36 90.9697C562.28 91.4997 561.29 91.9097 560.27 92.5497C559.01 93.3597 554.56 93.5997 552.96 94.3297H551C549.3 94.1997 547.65 93.7996 545.94 93.4296C544.27 93.0696 542.86 92.6996 541.33 91.9196C540.44 91.4696 539.34 91.2797 538.49 90.6597C537.16 89.6897 535.73 89.6696 533.11 87.6796L531.79 86.6796L529.53 84.8396L528.05 83.4797C525.59 81.2297 524.5 79.5396 522.91 76.6996C522.23 75.5096 521.77 74.4496 521.46 73.1296C521.16 71.8596 520.54 70.6396 520.56 69.2896L520.63 63.9596L520.78 61.2296C520.82 60.5196 521.29 59.4796 521.79 58.9696C522.56 58.1896 523.67 58.2996 524.59 58.7196C525.3 59.0296 525.87 59.8096 526.06 60.7896C526.25 61.8696 525.81 62.9096 525.63 63.9896C525.38 65.4996 525.91 67.0496 526.31 68.4996C526.59 69.5196 526.63 70.6996 527.13 71.5896C528.03 73.2096 528.89 74.7596 530.06 76.1396C530.76 76.9596 531.41 77.9396 532.21 78.6296C533.7 79.9096 535.29 80.9697 536.88 82.1497C537.9 82.9097 539.05 83.3096 540.18 83.8596C543.56 85.5096 544.15 85.4496 547.72 86.1096C549.4 86.4296 550.95 86.6796 552.67 86.4196C554.65 86.1196 555.75 86.7596 557.9 85.7696L560.61 84.5196C562.12 83.8196 565.87 80.7196 565.51 78.6296C565.35 77.6696 565.62 76.7596 565.98 75.9196C566.53 74.6496 565.91 73.4296 565.5 72.2596C564.02 68.0096 560.84 65.5996 557.47 62.8296L555.6 61.2896L551.97 58.6996C548.11 55.9396 545.07 53.3096 541.81 49.8496C541.06 49.0596 540.59 48.0796 539.96 47.2396C538.6 45.4196 537.62 43.5696 536.87 41.4196C536.25 39.6296 535.71 38.0196 535.86 36.0296C536.16 32.4596 534.78 32.7196 536.88 29.3996L538.39 27.0196C540.05 24.3896 540.03 24.2996 542.37 22.0696C542.9 21.5696 543.88 21.3096 544.48 20.8496C546.29 19.4996 549.38 17.7996 551.71 17.7696C554.02 17.7396 554.37 16.9796 557 17.2396C559.25 18.7196 561.23 17.6296 563.48 18.9696C565.54 20.1896 566.28 19.5696 568.28 20.5796C569.24 21.0696 570.26 21.4596 571.14 22.0196C571.93 22.5396 572.59 22.8696 573.48 23.2596C575.26 24.0196 576.67 25.4796 578.12 26.7396C581.55 29.6796 583.02 31.8796 583.88 36.3196C584.16 37.7796 584.64 39.1596 585.08 40.5796C585.7 42.6496 584.11 43.9896 585.35 47.0896" fill="#90BEFB"/>
<path d="M172.99 35.1691C172.63 35.8591 172.36 36.6991 171.94 37.3191C171.6 37.8291 171.07 38.3191 170.86 38.8891C170.54 39.7391 170.22 40.3991 169.71 41.1391C169.27 41.7791 169.03 42.6191 168.7 43.3391L167.369 46.2891L165.6 50.5591L161.869 58.5091L160.399 61.8491L158.57 65.8591C158.24 66.5591 158.06 67.3991 157.72 68.0791L155.45 72.5591C155.33 72.8091 155.24 73.4291 155.1 73.6491C154.42 74.7691 153.989 75.9891 153.479 77.1791C152.569 79.3691 151.71 81.5091 150.67 83.6091L149.259 86.4691L147.95 89.0391C147.37 90.1491 146.93 92.4691 145.74 93.0191C145.01 93.3591 144.039 93.4991 143.429 92.9591C143.119 92.6891 142.69 91.9091 142.66 91.4891C142.36 87.9991 141.199 87.0791 143.009 85.5091L144.32 84.3791C145.21 83.6091 145.579 82.7791 146.039 81.7591C146.769 80.1291 147.79 78.6391 148.21 76.8591C148.41 75.9991 148.55 74.9891 148.97 74.2291L151.06 70.4491C151.57 69.5491 151.96 68.6291 152.35 67.6191C152.5 67.2291 152.939 66.6591 153.039 66.2691C153.399 64.9391 153.9 63.9191 154.52 62.7491L155.59 60.7591C157.12 57.8891 155.42 59.7291 157.34 55.7691L158.34 53.7191C158.55 53.2991 159.27 52.8091 159.38 52.3491C159.66 51.2191 159.929 50.2391 160.369 49.1991L161.7 45.9791C163.12 42.5391 162.04 44.8191 162.84 41.3691C163.51 40.4591 165.02 36.6691 163.89 36.2191C163.09 35.8891 162.29 36.8691 161.49 37.6991L158.259 41.0591L155.979 43.3891L152.31 46.9791C151.32 47.9391 150.49 48.9591 149.52 49.8991L144.83 54.4791C143.47 55.8091 142.19 57.1391 140.91 58.5491L139.05 60.6091L136.95 62.9591L135.55 64.5791C134.74 65.5091 133.899 66.3491 132.979 67.1591L131.85 68.1591C130.39 69.4391 129.82 69.9891 128.63 71.5391C125.35 75.7991 119.14 76.7791 114.92 73.3091L113.36 72.0191C110.87 69.9691 110.639 67.3691 110.699 64.4891L110.8 58.6391L110.94 56.8391L111.71 50.6891C111.61 51.1191 111.5 42.3591 111.55 42.3591C111.21 40.3291 111.68 38.4391 111.75 36.4191C111.87 33.1291 111.85 29.9591 111.75 26.6591C111.71 25.5791 111.31 24.3191 111.12 23.2491C111.09 23.0391 110.51 22.8091 110.32 22.8891C108.84 23.4791 108.96 25.5491 108.14 27.0891C107.62 28.0691 107.24 29.0291 106.78 30.0091L105.36 33.0291C104.79 34.2391 104.35 35.4591 103.85 36.6891C103.45 37.6691 103.03 38.5991 102.74 39.6391C102.44 40.7191 101.81 41.5791 101.47 42.6391L100.66 45.2091C99.9695 47.3991 98.9895 49.3491 98.5195 51.6291C98.3995 52.2191 98.0695 52.9691 97.7895 53.5091C97.1395 54.8091 96.6995 56.0091 96.2895 57.3791C96.0495 58.1591 95.2395 58.8591 95.0695 59.6591L94.3995 62.7691L93.1695 66.1491C92.6695 67.5191 91.4895 68.3691 90.4495 69.2591C87.7195 71.6091 83.6195 69.9891 81.7095 66.9791C81.3495 66.4191 80.7595 65.6991 80.6995 65.0491L80.5395 63.3991C80.3995 61.8091 81.0995 60.2691 81.7995 58.8791C82.9095 56.6791 84.9695 54.6691 86.4395 51.9891L87.8895 49.3491C88.3795 48.4491 88.8095 47.6091 89.3995 46.7491C90.1095 45.6991 90.6495 44.5591 91.2695 43.4391L94.2495 38.1091L95.1595 35.2591L96.4095 32.9391C97.6695 30.5991 98.3695 28.5291 99.6295 26.1991C100.219 25.1191 100.57 24.1891 100.92 22.9891C101.36 21.4191 102.58 20.1291 103.18 18.5791C103.5 17.7491 103.62 16.6391 104.08 15.9291C104.88 14.7091 105.16 13.5391 105.73 12.1991L106.46 10.5191C106.73 9.89907 107.489 5.74907 109.559 3.46907C110.789 2.10907 112.08 0.629073 113.94 0.249073C117.39 -0.460927 118.2 0.319073 120.56 2.09907C121.13 2.52907 121.21 3.54907 121.55 4.09907C123.17 6.72907 122.95 8.70907 122.65 11.7191L122.41 14.2091C122.2 16.2891 121.68 18.3091 121.59 20.4191L121.45 23.4391L121.34 26.2391L121.3 28.4191C121.26 30.0791 120.98 31.5891 120.94 33.2291L120.82 37.4691L120.44 40.4991C120.17 42.7391 120.66 41.9991 120.29 45.2991C120.12 46.7591 120.01 48.1091 119.91 49.5591C119.75 52.2391 119.38 53.3191 119.44 55.7991C119.45 56.4491 119.35 57.1291 119.32 57.7591C119.25 59.2691 119.26 60.6491 119.28 62.2191C119.28 62.5991 119.63 63.2291 119.79 63.6291C120.24 64.7291 121.62 65.4291 122.66 64.6791L127.2 61.4091C127.84 60.9491 128.709 60.4691 129.259 59.8991C131.859 57.1091 134.459 54.4991 137.399 52.0491C138.629 51.0291 139.829 49.9791 140.899 48.7991C142.409 47.1491 143.99 45.7891 145.61 44.2591L150.92 39.2491C152.04 38.1891 153.069 37.1691 154.149 36.0691L155.3 34.8991C156.37 33.8091 157.41 32.5991 158.58 31.6491C159.65 30.7791 160.569 30.1191 161.229 28.8791C161.709 27.9891 162.34 27.0191 162.97 26.2391C164.7 24.1091 167.49 23.7791 169.96 24.5091C171.02 24.8291 171.72 25.1691 172.47 25.9691C173.31 26.8491 174.03 27.7591 174.21 29.0391C174.49 31.1691 173.999 33.2591 173.009 35.1691" fill="#90BEFB"/>
<path d="M76.3198 26.6C76.1898 28.77 74.5098 30.56 72.4998 31.16C70.0998 31.87 68.4298 31.17 66.4598 29.82L64.8598 28.72C63.8698 28.04 62.6398 27.73 61.5298 27.24L58.0498 25.73L51.7898 22.9L48.2798 21.27C46.9998 20.68 45.8198 20.17 44.4998 19.67C42.6298 18.96 40.9798 17.67 38.9698 17.25C36.6598 17.77 34.8498 19.33 33.6398 21.32L31.8798 24.22C31.3498 25.08 30.9098 25.95 30.4698 26.88L29.0398 29.9L27.5898 33.06C27.2598 33.79 26.7698 34.67 26.9498 35.46C27.3198 37.19 29.2498 37.08 30.9298 38.1C31.6998 38.57 32.6498 38.77 33.4498 39.15C34.6098 39.71 35.6598 40.11 36.8698 40.56C39.7698 41.62 41.5798 42.58 44.4398 43.65L50.7398 46.02C52.5298 46.69 56.2098 46.15 58.8698 48.93C59.2498 49.32 59.5898 49.94 59.8698 50.41C60.7998 51.89 60.8298 53.59 60.0098 55.12C60.0098 55.88 59.7698 56.82 59.1298 57.2C58.1398 57.8 57.2198 58.33 56.1498 58.71C54.8398 59.16 53.1798 59.07 52.1198 58.19C50.8398 57.14 49.6598 56.08 48.2498 55.25C45.2098 53.44 44.4398 53.55 41.7198 52L38.8998 50.38C38.1298 49.93 37.3398 49.53 36.4998 49.26C35.3998 48.9 34.4098 48.42 33.3498 48C32.3098 47.6 31.4098 47.16 30.4198 46.64C29.5298 46.16 28.5598 45.83 27.6698 45.29C27.0498 44.9 26.2498 44.69 25.6798 44.23C24.7398 43.48 23.2198 42.99 22.3398 44.16C20.5698 46.48 20.2598 47.65 18.9798 50.47L18.1098 52.38C17.4098 53.92 16.6798 55.31 16.0498 56.9C15.5798 58.09 14.9698 59.24 14.4298 60.4C13.0698 63.32 15.9698 65.82 18.0798 67.65C19.3098 68.71 20.9098 69.16 22.3798 69.77C24.0098 70.45 25.5998 71.12 27.1098 71.93L30.0298 73.5C30.7098 73.87 31.2798 74.52 32.0898 74.6C34.8898 74.9 35.4598 76.43 37.3898 76.37C38.0298 76.36 39.0698 75.15 39.7098 75.6C40.2998 76.02 39.9698 76.98 41.2498 77.74C43.9898 79.36 45.9198 79.03 48.0598 82.67C48.4498 83.32 48.9398 83.95 49.2998 84.64C49.3698 87.17 49.4998 86.63 48.4398 88.11C47.6598 89.21 46.7298 89.59 45.4398 89.84C40.6798 90.73 39.4498 89.41 35.5698 87.67C31.6998 85.92 33.6598 84.03 31.9698 83.44C30.4298 82.91 28.6298 84.43 27.7498 83.79L25.5498 82.21C23.8598 82.11 22.4898 81.43 20.9698 80.78C19.6898 80.23 18.3498 79.72 17.0198 79.24C16.0398 78.88 15.1398 78.64 14.2298 78.05C13.3798 77.5 12.5798 76.65 11.6898 76.2L8.36978 74.54C7.21978 73.97 6.03978 73.61 4.89978 72.97C2.86978 71.84 1.00978 70.35 0.269776 68C-0.250224 66.38 -0.000224233 64.32 0.839776 62.85L2.00978 60.8C2.39978 60.1 2.91978 59.4 3.20978 58.68C4.53978 55.36 6.17978 55.03 7.74978 49.14C8.08978 47.87 8.84978 46.78 9.31978 45.59L10.9998 41.39C11.2898 40.66 11.5798 40 11.9698 39.31C12.4698 38.43 12.6998 37.41 13.0698 36.48L14.5598 32.81L15.6098 30.74L16.9298 27.28L18.4698 23.13C18.8598 22.09 19.2298 21.1 19.7898 20.13C20.1598 19.51 20.2798 18.88 20.3498 18.15L20.5398 16.02C20.6298 14.97 20.7098 14.03 20.5298 12.97C20.3698 12.04 20.6898 11.09 20.7898 10.13C20.9398 8.82004 20.7298 7.42004 21.3298 6.16004C23.1898 2.24004 24.8698 0.84004 29.2698 1.36004C30.7298 1.54004 31.9098 2.26004 32.8898 3.27004C35.4298 5.92004 36.4598 5.70004 37.6498 6.85004C38.4998 7.67004 39.3998 7.92004 40.4298 8.38004C43.5898 9.79004 46.7198 10.93 50.0398 11.95C51.2198 12.31 55.8898 14.22 57.1298 14.8C57.7398 15.08 58.3098 15.45 58.9598 15.61C59.8898 15.85 60.6898 16.21 61.5498 16.6L63.8998 17.65C64.9898 18.15 65.9498 18.76 67.1298 19.03C68.3298 19.3 69.4798 19.67 70.7098 19.86C73.2898 20.23 75.6598 21.69 76.3498 24.39C76.4898 24.96 76.3598 26 76.3298 26.6" fill="#90BEFB"/>
<path d="M424.56 43.0688C423.65 44.4688 423.78 45.9488 421.73 45.8788C421.01 45.8588 420.29 45.4688 419.88 44.7588L418.88 43.0488C418.32 42.0788 417.43 40.9688 417.56 39.7888L417.89 36.7788C418.1 34.8888 416.29 31.6688 415.77 29.8188C415.56 29.0488 415.04 28.4888 414.49 27.9088C411.89 25.1788 411.13 24.0788 407.78 21.9788C406.15 20.9588 403.46 19.8088 401.57 19.2588C400.31 18.8988 399.15 18.2488 397.78 18.2688C396.96 18.2688 396.09 18.0088 395.27 17.9788C392.53 17.8788 389.64 17.8488 386.96 18.3788C385.67 18.6288 381.84 19.9788 380.5 20.5488C379.62 20.9188 378.96 21.4688 378.2 22.0288C376.07 23.5588 374.02 25.1088 372.18 27.0288C371.4 27.8488 370.54 28.6288 369.89 29.5388C369.24 30.4488 368.88 31.6088 368.32 32.5988L366.96 34.9688C366.31 36.0988 365.73 37.3688 365.29 38.5988C364.84 39.8588 364.67 41.0488 363.85 42.1888C363.08 43.2688 363.49 44.7788 363.55 46.0188C363.73 49.3688 363.19 50.8888 363.59 53.2988C363.85 54.8788 363.72 55.4388 364.01 56.8488C364.4 58.7788 365.81 60.3388 366.41 62.1388C366.99 63.8288 367.58 65.1088 368.84 66.3788C370.32 67.8888 371.05 69.2288 373.05 70.8788C377.21 74.3188 375.77 72.4588 378.6 74.2088C379.33 74.6588 380.14 74.7288 380.97 74.9288C382.05 75.1788 383.11 75.7888 384.28 75.8388C386.1 75.8988 388 76.3388 389.73 75.8288L392.84 74.9088C394.1 74.5288 396.95 74.5488 400.46 72.2088C401.44 71.5488 402.3 70.8988 403.2 70.1288C406.55 67.2088 405.56 67.2488 407.75 64.3688C408.14 63.8488 408.17 62.9588 407.94 62.3088C407.52 61.1588 404.25 59.9888 403.02 59.5888C402.29 59.3588 401.59 58.8888 400.89 58.5788L397.12 56.9588C393.26 55.2888 391.05 57.5188 387.96 53.4688C387.39 52.7188 386.73 52.1488 386.57 51.1088C386.21 48.8888 386.06 47.4088 387.45 45.6788C388.16 44.7888 388.87 43.9388 390 43.5888C392.02 42.9588 392.7 42.2288 395.63 43.8888C398.06 45.2788 398.5 46.5288 402.3 48.5888L404.38 49.7188C406 50.5988 406.88 51.2188 408.36 51.8288C409.93 52.4788 411.41 53.2988 413.08 53.6288C414.11 53.8388 415.03 54.2188 415.97 54.6788C417.71 55.5288 419.81 57.6388 419.83 59.6988C419.83 61.1788 418.86 62.1988 418.18 63.3688C417.6 64.3588 416.93 65.3888 416.47 66.4288L414.79 70.2888C414.3 71.4088 413.81 72.5688 413.45 73.7188C413 75.1288 412.33 76.2688 411.82 77.6688L410.92 80.1188C410.89 80.1888 408.45 84.1088 408.24 85.2788C407.47 89.5888 406.4 89.5688 404.63 92.5288C404.17 93.2988 403.2 93.7488 402.29 93.3988C401.71 93.1788 401.53 92.4588 401.31 91.9188C400.86 90.8788 400.26 89.9188 399.63 88.9888C397.71 86.1688 401.39 82.7288 397.54 83.8388C396.48 84.1488 395.53 84.3688 394.48 84.5488L391.74 85.0288C390.04 85.3288 388.35 85.6488 386.56 85.4888C381.78 85.0388 379.64 84.7188 375.51 82.4788L372.72 80.9688C371.65 80.3788 370.66 79.5088 369.63 78.7788C367.8 77.4888 366.21 76.0788 364.79 74.3688C364.41 73.9188 363.83 73.4688 363.53 72.9988L360.91 68.8388C360.19 67.6988 359.31 66.6988 358.79 65.4588L357.68 62.8288C356.37 59.7288 357.7 60.8488 356.15 56.1788C354.67 51.7588 356 51.8488 355.52 48.9788C355.39 48.1788 355.48 47.3788 355.52 46.5788C355.58 45.2488 355.85 44.1888 356.39 42.9288C356.78 42.0288 356.28 40.6788 356.57 39.7288C356.95 38.4788 357.07 37.4488 357.08 36.0988C357.08 35.5088 357.64 34.7188 357.89 34.1588C358.7 32.3688 360.14 29.4288 361.21 27.8488L362.57 25.8188C363.28 24.7688 363.88 23.5988 364.76 22.6788L369.52 17.6388C370.32 16.7888 371.32 15.9288 372.35 15.3388L376.07 13.1988L377.98 12.1188L381 10.4688C381.85 9.99877 382.94 10.0488 383.88 9.76877L387.29 8.73877C389.34 8.11877 392.45 8.22877 394.59 8.35877C396.42 8.46877 398 9.10877 399.69 9.66877C401.03 10.1088 402.24 10.5488 403.53 11.2288C404.07 11.5088 404.94 11.6088 405.44 11.9688C407.67 13.5888 406.7 12.2588 409.67 13.9788C410.69 14.5688 411.75 15.2588 412.81 15.7888C415.04 16.9088 416.76 18.3588 418.37 20.2288C419.25 21.2588 420.25 22.1288 420.97 23.3188C421.46 24.1188 421.97 24.9188 422.5 25.6888C424.53 28.6688 423.95 29.3088 424.93 32.1688C425.32 33.2788 425.49 34.3388 425.66 35.5188L426.19 39.3388C426.38 40.7288 425.29 42.0488 424.59 43.1188" fill="#90BEFB"/>
<path d="M513.46 29.6394C513.29 30.6494 512.77 31.2194 512.12 31.8994C511.25 32.7994 510.39 33.4694 508.98 33.4494C507.84 33.4294 506.55 33.2694 505.63 32.5194L503.66 30.9194C502.98 30.3594 502.26 30.0494 501.5 29.6794L498.05 27.9794C496.79 27.3694 495.67 26.3594 494.4 25.8194C493.2 25.3094 492.13 24.8494 491.02 24.1794C490.09 23.6194 489.06 23.0694 488.04 22.7294C486.94 22.3694 486.1 21.8794 485.07 21.4094L482.51 20.2294C481.86 19.9294 479.12 18.2094 477.47 17.5994C476.54 17.2594 475.59 16.8994 474.74 16.4394C472.16 15.0494 470.77 17.3194 469.06 19.6994C468.64 20.2894 468.43 21.1994 467.95 21.7594C467.27 22.5694 466.98 23.5094 466.47 24.3994C465.91 25.3694 465.41 26.2794 464.93 27.3194L463.58 30.1794L462.63 32.1994C462.11 33.2994 461.71 34.2794 461.14 35.3794C460.69 36.2294 460.15 37.3694 459.8 38.2394C459.66 39.3294 461.13 39.7994 461.93 40.0394C464.9 40.9894 467.61 42.1494 470.4 43.4894L475.68 46.0294L479.11 47.5594L482.66 49.1394L488.59 51.4394L490.6 51.5494C491.89 51.6194 493.12 52.5394 494.22 53.2994C495.27 54.0094 495.52 55.7494 495.15 56.9194C494.53 58.8294 492.07 59.9494 490.3 58.9794C489.22 58.3794 488.62 57.1594 487.65 56.4794C484.86 54.5594 484.22 54.9194 482.51 53.9594C481.69 53.5094 478.22 51.9194 477.47 51.7194C476.54 51.4794 475.84 51.0594 475.01 50.6394L471.59 48.8994C471.59 48.8994 464.8 45.9094 464.8 45.8894L462.09 44.9494C460.4 44.3594 458.21 42.3794 457.19 44.5594L455.36 48.4494L454.06 51.4294C452.99 53.8694 452.23 55.1794 451.24 57.5094L448.12 64.8194L446.53 67.6794C446.23 68.2094 446.25 69.0094 446.77 69.3494L449.51 71.1094C450.22 71.5694 451.15 71.9794 451.94 72.3594L454.84 73.7694L456.35 74.4094L459.78 76.3294C460.81 76.9094 461.66 77.2394 462.83 77.6094C464.11 78.0294 466.91 79.5994 467.96 80.0094C469.3 80.5194 473.29 82.3094 474.43 82.9794C475.17 83.4194 476.11 83.5794 476.94 83.8794C477.9 84.2194 478.94 84.8694 479.94 84.8694C481.23 84.8694 482.02 85.2294 482.78 86.2394C483.05 86.5694 483.84 86.9194 484.2 87.2594C484.91 87.9394 485.15 89.2694 484.68 90.0794C483.95 91.3294 482.58 91.3494 481.37 91.2094C480.08 91.0594 479.17 90.6194 478.14 89.9294C477.13 89.2494 471.26 86.0694 470.76 85.9094L468.63 85.2394C468.76 85.2394 460.23 81.3694 460.23 81.3494C459.32 80.9794 458.61 80.5594 457.78 80.0494C456.96 79.5394 455.92 79.3094 455.06 78.8594L453.28 77.9294C451.68 77.0994 450.06 76.5394 448.35 75.9194L445.78 74.9894C444.96 74.6894 444.16 74.4194 443.44 73.9594C442.22 73.1694 440.16 71.6994 439.81 70.3294C439.57 69.3494 440.05 68.4894 440.58 67.7494L441.79 66.0694C442.93 64.4894 444.3 62.3294 445.09 60.5094C445.69 59.1194 446.1 57.6894 446.82 56.3594C449.05 52.2694 447.34 51.9694 450.31 47.9594C451.06 46.9494 451.61 45.6494 452.12 44.4694C452.45 43.7094 452.51 42.7494 452.9 42.0294C453.29 41.3094 453.69 40.6394 453.96 39.9094L454.74 37.8394C455.67 35.3794 456.75 33.1394 458.06 30.8394C458.7 29.7294 458.55 28.0794 460.2 25.3394C460.81 24.3294 461.1 23.2494 461.44 22.1294C461.79 20.9894 462.41 20.0294 462.84 18.9294L463.59 16.9894L464.95 14.2394L466.67 10.9894C467 10.3794 467.47 9.78942 467.87 9.19942C468.35 8.49942 469.2 7.99942 469.93 7.94942C470.81 7.89942 471.62 8.30942 472.18 8.96942C473.86 10.9194 475.47 10.7994 476.79 11.4994C477.87 12.0694 478.91 12.4494 480 12.9494L483.66 14.6194C484.4 14.9594 485.17 15.2594 485.98 15.4594C488.9 16.1694 487.15 16.6594 490.63 17.2794C491.28 17.3994 492.04 17.9594 492.7 18.1194C494.23 18.5094 495.81 18.6794 497.21 19.3694C498.28 19.8994 499.32 20.2194 500.44 20.6094C502.01 21.1594 503.46 21.6394 505.11 21.9794L509.32 22.8494C510.63 23.1194 511.36 23.5494 512.18 24.4994C512.84 25.2494 513.4 25.8594 513.51 26.9594C513.61 27.8394 513.58 28.6994 513.44 29.5894" fill="#90BEFB"/>
<path d="M336.129 39.7296L334.899 42.9596C334.519 43.9496 332.369 46.6496 331.799 46.9796L329.879 48.0596C329.169 48.4596 328.54 48.8396 327.7 48.9496C327.14 49.0196 326.409 49.3396 325.789 49.3696C324.029 49.4496 322.409 49.4896 320.779 49.3496L318.539 49.1596C317.289 49.0496 316.199 48.8296 315.309 47.9196C314.419 47.0096 313.019 47.2596 311.939 46.7996L307.729 44.9796C306.879 44.6196 306.11 44.1596 305.17 43.9896C304.37 43.8396 303.739 43.2596 303.039 42.9696C301.939 42.5196 300.969 42.1696 299.929 41.5896C299.369 41.2796 298.669 41.1696 297.989 40.9796C297.529 40.8496 296.999 40.4096 296.529 40.1796C295.139 39.5096 293.699 38.8296 292.579 37.6996C292.329 37.4396 292.359 36.5196 292.509 36.1596C293.129 34.7596 293.739 33.2096 294.239 31.7196C294.579 30.7196 296.64 27.5696 296.92 26.7796L298.339 22.8496C298.679 21.8896 299.129 21.1196 299.729 20.2896C300.949 18.5696 299.769 18.5396 301.869 15.4996C302.249 14.9496 302.379 14.0196 303.089 13.7196C304.129 13.2796 305.309 13.5596 306.239 14.1596C307.179 14.7496 308.169 15.0596 309.179 15.4996L312.179 16.7796C314.849 17.9196 317.279 18.5496 319.689 19.9196L324.759 22.8096C325.489 23.2296 326.229 23.4496 326.939 23.8596L329.679 25.4096L331.499 26.4796C332.729 27.2096 334.879 30.0996 335.729 31.4196C336.859 33.1496 336.809 38.0096 336.129 39.7596M343.719 34.1296C343.619 33.2096 343.719 32.3696 343.259 31.5296C342.709 30.5196 342.44 29.4196 341.95 28.3596C341.42 27.2096 340.24 26.3396 339.64 25.2496C338.95 24.0296 337.999 23.3996 336.999 22.4696L334.349 20.0096L332.489 19.0296L330.059 17.1696C328.669 16.1096 327.059 15.5496 325.489 14.7896C324.209 14.1596 322.979 13.8496 321.679 13.2496L319.909 12.4296C319.159 12.0796 318.179 12.2096 317.509 11.7696C316.019 10.8096 314.599 9.85957 312.929 9.26957C311.879 8.88957 311.019 8.37957 310.039 7.85957C307.929 6.72957 305.549 6.10957 303.109 5.72957C302.259 5.59957 301.029 5.93957 300.379 6.26957C298.479 7.24957 298.669 8.79957 298.209 10.0696L297.329 12.4996C296.919 13.6196 296.26 14.4896 295.95 15.6096L295.339 17.8296C294.599 20.4596 292.819 22.6696 291.679 25.1896L290.619 27.5296L287.39 34.5996C287.05 35.3396 286.399 35.9996 285.909 36.7096L284.719 38.4696C283.999 39.5196 283.679 43.1796 282.299 44.8196C281.769 45.4696 281.539 46.4396 281.119 47.1796C280.629 48.0296 280.219 48.7696 279.899 49.7196C279.669 50.3996 279.019 51.0396 278.739 51.6796C277.609 54.2196 277.269 53.9396 276.769 55.2596C276.069 57.1396 275.199 58.8096 274.219 60.5496L272.629 63.3696C272.079 64.3396 271.719 65.1896 271.019 66.0696C270.499 66.7296 270.109 67.7496 269.739 68.4796C269.089 69.7696 269.609 70.8596 270.249 71.8896C271.089 73.2496 272.129 73.9896 273.579 74.5196C274.659 74.9196 275.499 75.1396 276.619 74.4796C278.619 73.3196 279.879 71.4796 280.089 69.0696L280.279 67.0196C280.389 65.7096 280.73 64.7196 281.39 63.6096C281.75 62.9996 281.989 62.1696 282.239 61.4696L283.229 58.7296C283.499 57.9996 283.629 57.1496 283.969 56.4196C285.709 52.6696 284.58 52.8196 286.2 50.7996C286.73 50.1496 286.88 49.0596 287.2 48.2596C287.68 47.0696 287.999 45.9896 288.309 44.7096C288.379 44.4096 288.779 43.9796 289.049 43.9096C289.719 43.7496 292.299 44.9496 293.089 45.3696L295.529 46.6796C296.429 47.1596 297.269 47.6996 298.219 48.0896L302.289 49.7396L304.999 51.0796C305.579 51.3696 306.119 51.6996 306.689 52.0396C307.259 52.3696 308.12 52.3396 308.7 52.7396L309.95 53.5896L314.609 55.1596C315.329 55.3996 316.339 55.5596 316.899 56.0296C318.899 57.7596 320.029 58.7896 320.729 61.4996C321.369 63.9796 321.119 66.5896 320.519 69.1096C320.209 70.3796 320.04 71.6796 319.67 72.8996C319.05 74.9596 318.449 76.8496 318.339 79.0296C316.579 82.0596 317.95 81.5496 316.14 84.3096C314.21 87.2496 315.09 91.8896 317.92 92.3496C319.37 92.5796 320.859 91.6396 321.409 90.2296C322.599 87.1296 321.739 86.1096 322.059 84.7296L322.499 82.8196C322.759 81.7196 323.819 78.2596 324.239 77.2396C324.829 75.7596 325.149 74.3196 325.539 72.8196C325.899 71.4396 326.689 70.2196 326.739 68.7196C326.789 67.1996 326.809 65.7096 326.749 64.1296C326.709 63.0396 326.069 61.9296 325.819 60.8996C325.559 59.8296 325.34 58.8496 324.89 57.8796C324.73 57.5196 324.589 57.0696 324.759 56.7296C324.879 56.4796 325.379 56.2396 325.749 56.1696C329.799 55.4496 329.47 56.3796 332.67 54.5596C337.21 51.9796 339.169 50.6296 341.369 45.6196C341.799 44.6296 342.719 43.8296 342.779 42.6296C342.969 38.7896 344.329 39.7796 343.739 34.1196" fill="#90BEFB"/>
<path d="M260.88 32.0587C260.55 33.8387 259.45 34.6887 258.21 35.6587C256.87 36.7087 255.85 37.0787 254.14 36.8787C252.86 36.7287 251.88 36.6887 250.72 35.9687C249.89 35.4487 248.96 35.0687 248.18 34.4087C247.74 34.0287 246.92 33.7987 246.53 33.4287C245.85 32.7987 245.28 32.2887 244.55 31.8087L242.07 30.1787C241.5 29.8087 240.94 29.4187 240.33 29.0887L236.86 27.2087L234.37 25.9587C233.29 25.4287 232.36 24.7787 231.29 24.2487L227.73 22.4787C226.43 21.8387 224.69 20.5287 223.18 21.0987C220.47 22.1187 219.14 24.3887 217.91 26.7587C217.2 28.1187 216.32 29.2587 215.98 30.8487C215.71 32.1787 214.96 33.2587 214.22 34.3787C213.9 34.8587 213.72 35.5887 213.43 36.0887C213.07 36.7087 212.71 37.3587 212.53 38.0087C212.29 38.8387 212.86 39.3087 213.52 39.5187C214.38 39.8087 215.08 40.2887 215.85 40.7387C216.42 41.0687 217.19 41.2787 217.72 41.7087C218.62 42.4387 219.54 42.6987 220.75 42.6487C221.3 42.6287 221.84 43.3187 222.32 43.4987C223.3 43.8687 224.3 44.0287 225.33 44.2687C226.23 44.4887 226.99 45.3287 227.84 45.6087C228.99 45.9887 230.04 46.3387 231.16 46.7587L233.15 47.4987C233.98 47.7987 234.8 48.1687 235.66 48.3087L238.53 48.7887C240.87 49.1787 242.19 49.8887 243.77 51.6187C244.82 52.7687 245.85 54.0987 245.59 55.7387C245.27 57.6987 244.45 59.3387 243.14 60.7787C242.28 61.7387 241.03 61.9387 239.77 62.0887C238.67 62.2287 237.69 62.2187 236.64 61.7487C236.2 61.5587 235.53 61.3887 235.16 61.1087C234.46 60.5987 233.62 60.2287 232.99 59.7187C231.31 58.3387 229.43 57.5687 227.61 56.5087C226.29 55.7387 225.35 55.0287 223.77 54.5987C221.09 53.8687 218.46 51.4987 216 50.5787C215.35 50.3387 214.74 49.5887 214.08 49.4787C213.34 49.3687 212.51 49.3587 211.98 48.8987C210.97 48.0287 209.85 47.0687 208.54 47.6187C207.1 48.2087 207.68 50.8287 206.25 51.9687C204.07 53.7187 205.23 53.6387 204.14 55.9287L202.3 59.7887C201.68 61.1087 201.2 62.5487 200.85 64.0287C200.58 65.1887 201.33 66.9087 202.24 67.5987C203.69 68.7187 205.03 69.7387 206.62 70.5587L208.25 71.4087C208.57 71.5687 209.02 71.9987 209.32 72.1187L213.92 73.9587L216.21 75.0387C216.97 75.3887 217.69 75.8187 218.41 76.1987L221.95 78.0187C222.74 78.4287 223.46 79.0987 224.32 79.3687L226.75 80.1587C227.8 80.5087 228.64 80.9687 229.72 81.3187C230.19 81.4687 230.69 82.0687 231.09 82.3487C232.06 83.0487 232.57 83.8287 232.8 84.9987C232.92 85.6287 233.53 86.5087 233.33 87.1987C232.92 88.6187 231.83 89.5987 230.93 90.6887L230.04 91.7587C229.15 92.8387 228.18 93.6387 226.71 93.7887C225.64 93.9087 224.98 92.9687 224.63 91.9987C223.29 92.4387 222.07 92.5587 220.8 91.9487C220.01 91.5687 218.96 91.4087 218.2 90.9887C217.05 90.3687 216.03 89.8287 214.79 89.4087C214.07 89.1687 213.31 88.4687 212.6 88.2987C211.3 87.9987 210.31 87.5687 209.17 86.8787C207.76 86.0287 206.08 85.7587 204.47 85.3387C202.85 84.8987 199.07 82.4287 197.31 81.4387C196.81 81.1587 196.26 80.4787 195.69 80.3087C194.67 80.0087 193.95 79.4987 193.07 78.9987L190.33 77.4687C188.88 76.6487 187.34 76.0287 186.08 74.9487C182.29 71.6987 183.45 70.0087 183.67 67.0087C183.75 65.8787 184.35 65.0387 184.92 64.1287C185.78 62.7587 186.43 61.1787 187.51 59.9787C189.43 57.8387 188.29 57.1487 189.39 55.8087C190.09 54.9787 190.18 54.0387 190.58 53.0287L191.71 50.1587C192.15 49.0387 192.47 48.0987 193.1 47.0487C193.44 46.4787 193.26 45.5087 193.32 44.7787C193.4 43.9287 193.78 42.8187 193.13 42.1087C192.28 41.1887 191.44 40.3287 190.98 39.0887C190.34 37.3287 191.21 35.2987 192.86 34.4187C195.63 32.9587 197.62 33.7987 198.96 30.1687L200.36 26.3987C200.56 25.8487 200.85 25.3087 200.96 24.7187C201.3 22.8987 201.78 21.2987 202.31 19.4987C202.66 18.3287 202.58 13.2887 202.5 11.7587C202.42 10.2687 202.12 8.7487 203.07 7.4187L204.91 4.8287C206.03 3.2587 207.79 2.2887 209.49 1.4287C210.29 1.0187 211.28 1.0987 212.14 1.0387C213.42 0.968695 214.28 1.3987 215.25 2.0587C220.3 5.5287 220.04 7.51869 226.44 10.6487C227.52 11.1787 228.46 11.7487 229.64 12.0687C230.14 12.1987 230.66 12.6587 231.12 12.8587C232.96 13.6387 234.72 14.4087 236.58 15.0687L240.51 16.4587C241.58 16.8387 242.56 17.1687 243.6 17.6387C244.34 17.9687 245.16 18.0887 245.91 18.4187L247.6 19.1487C248.48 19.5387 249.38 19.6887 250.21 20.1287C253.15 21.6487 252.1 20.0087 255.8 22.3487C256.84 22.9987 257.93 23.4687 258.63 24.5287C259.06 25.1787 259.79 25.8887 260.04 26.5987C260.43 27.6587 260.75 28.5787 261.2 29.5787C261.56 30.3987 261.04 31.3187 260.9 32.0587" fill="#90BEFB"/>
</g>
</g>
<defs>
<clipPath id="clip0_2561_6776">
<rect width="585.35" height="94.36" fill="white"/>
</clipPath>
</defs>
</svg>
