<svg width="229" height="217" viewBox="0 0 229 217" fill="none" xmlns="http://www.w3.org/2000/svg">
<g clip-path="url(#clip0_2561_11467)">
<mask id="mask0_2561_11467" style="mask-type:luminance" maskUnits="userSpaceOnUse" x="0" y="0" width="229" height="217">
<path d="M228.19 0H0V216.62H228.19V0Z" fill="white"/>
</mask>
<g mask="url(#mask0_2561_11467)">
<path d="M131.51 197.71C129.29 201.14 132 198.53 128.23 203.06C127.58 203.83 126.9 204.45 126.17 205.1L123.88 207.17C123.14 207.84 122.21 208.23 121.29 208.71C118.3 210.28 115.46 212.1 112.22 213.08C108.92 214.09 105.7 214.44 102.33 214.73L97.5 215.15L89.93 215.88C88.96 215.98 87.83 216 86.8 216.04L80.99 216.23C78.74 216.3 76.65 216.24 74.43 216.53C73.37 216.67 72.11 216.64 71.05 216.53C65.1 215.9 61.38 216.68 55.88 214.27L51.78 212.48C50.59 211.96 49.58 210.75 48.39 210.13C47.55 209.7 46.33 209.51 45.64 209.02C44.86 208.47 44.39 208.24 43.4 208.16L40.42 207.92C32.53 210.93 32.13 211.36 23.98 210.22C22.22 209.97 20.83 209.88 19.49 208.4L16.67 207.26C15.12 206.63 14.35 205.08 13.25 203.93C11.83 202.44 10.74 200.8 9.59 199.12C7.43 195.98 6.05 190.97 5.78 187.2L5.42 182.31C4.97 176.17 4.92 168.54 5.44 162.43L5.67 159.75L5.95 154.68C6.2 150.07 6.77 145.62 6.57 140.98C6.5 139.56 6.67 138.04 6.53 136.65C6.2 133.37 6.06 130.3 5.96 127.01C5.91 125.33 5.96 123.79 5.89 122.11L5.72 118.02L5.81 111.15L5.94 105.3L6.23 97.6905C6.33 95.0205 6.4 92.6605 6.84 90.0405C7.13 88.3205 6.97 86.3905 7.09 84.6305L7.64 76.8605C7.96 72.2005 7.52 73.5605 7.15 70.3405L6.37 63.3105C5.77 57.9605 3.92 52.9505 2.81 47.6805L2.1 44.3005L1.26 40.1205C0.66 37.1705 0.67 35.3105 0 32.9605V31.5105C0.22 30.9905 0.23 30.3005 0.29 29.5805L0.6 25.7105C0.67 24.8105 1.17 23.4805 1.56 22.6505L3.66 18.2105C3.98 17.5205 4.92 17.0705 5.5 16.5605C8.49 13.9105 7.47 15.3505 10.43 13.2305H11.4L12.59 13.9805C12.87 14.1605 12.99 14.9705 13.21 15.2205C13.45 15.5105 14.23 15.6105 14.73 15.6905C15.91 17.4305 16.12 19.6105 16.33 21.6505L17.4 32.0905C17.57 33.7805 17.86 35.4605 18.42 37.0505C19.1 38.9705 19.13 41.0005 19.67 42.8805C20.32 45.1205 21.32 47.0705 21.19 49.5405C21.13 50.8105 21.99 52.1305 22.25 53.3805C23.03 57.0805 23.91 60.6905 24.41 64.4605C25.33 71.4305 24.81 83.9905 24.13 91.0805L23.5 97.6805C23.04 102.47 22.53 107.07 22.72 111.87L23 119.34L23.66 131.36C23.73 132.65 23.9 133.93 23.92 135.22L24.08 148.7C24.1 150.59 24.29 152.36 24.11 154.23C23.95 155.93 23.66 157.6 23.6 159.3C23.52 161.93 23.1 164.59 23.17 167.2C23.25 170.32 23.94 173.19 23.32 176.39C23.09 177.61 23.19 178.97 23.14 180.21C23.07 182.13 23.24 183.89 23.42 185.75C23.65 188.03 23.85 190 25.96 191.38C28.06 192.77 30.46 193.74 32.85 194.65C36.79 196.14 35.7 196.34 41.13 196.11C42.42 194.76 43.67 193.75 45.29 192.96C46.39 192.43 48.11 192.18 48.93 191.27C50.58 189.42 52.67 184.94 54.73 187.05C55.42 187.76 56.3 188.45 56.87 189.23C59.51 192.9 59.49 195.98 62.7 197.27C65.33 198.32 66.33 197.63 70.09 197.75C73.72 197.87 77.15 197.4 80.76 197.24L88.99 196.88L92.45 196.74L99.43 196.19C101.67 196.02 103.69 196.05 105.86 195.33C108.63 194.41 108.41 195.3 112.72 193.27L117.17 191.17C118.29 190.64 119.44 190.19 120.63 189.73C121.49 189.4 122.82 189.37 123.5 188.77C124.24 188.11 124.73 187.95 125.66 188.38C127.73 189.35 130.15 189.42 130.29 190.54C130.33 190.88 130.02 191.6 129.86 191.99C129.49 192.93 131.69 193.48 131.48 194.71C131.42 195.06 130.92 195.49 130.55 195.8C130.92 196.02 131.41 196.3 131.66 196.48C131.9 196.66 131.73 197.45 131.56 197.71" fill="#90BEFB"/>
<path d="M123.15 162.881C123.1 165.901 122.01 168.661 121.18 171.471C120.77 172.891 120.33 173.881 119.34 175.021C118.71 175.751 118.28 176.901 117.67 177.751C116.67 179.141 114.99 180.061 113.9 181.351C112.39 183.171 110.43 183.911 108.05 183.041C107.54 182.861 106.37 182.841 105.92 182.461C105.05 181.741 104.71 180.641 104.14 179.731C103.63 178.911 104.13 177.821 103.91 176.961L103.03 173.581C102.47 171.461 101.47 169.551 102.19 167.161L101.61 164.611C101.96 162.881 101.69 161.381 100.6 160.011C100.29 159.611 99.9499 158.471 99.4699 158.311C98.3599 157.941 98.5599 156.871 98.0399 156.251C96.3999 154.291 93.4699 153.441 90.9399 153.501L86.1099 153.601C84.5899 153.631 83.3299 153.441 81.8599 153.841C81.2099 154.011 80.1799 153.861 79.5999 153.961C78.1899 154.221 69.4999 155.321 68.8499 155.201C67.0599 154.871 65.1599 154.061 63.7699 153.031C62.6199 152.181 62.0299 151.161 60.2599 151.301C59.7099 151.341 58.9699 150.651 58.5299 150.251L56.1499 148.161C55.1699 147.301 55.7799 146.641 56.0499 145.871C57.0399 143.101 58.9799 141.661 61.4699 140.351C63.5999 139.231 65.5399 137.821 67.7899 136.781C69.5899 135.951 71.2999 134.611 73.2199 134.171L78.4299 132.981C79.5099 132.731 80.8099 132.701 81.9799 132.621L88.7399 132.121L95.5599 132.051C96.0299 132.051 96.8799 132.331 97.3699 132.371C98.8499 132.511 100.08 132.861 101.49 133.331C102.89 133.811 104.48 134.011 105.78 134.681L108.54 136.111C109.11 136.401 109.86 137.251 110.39 137.751L112.76 139.981C113.38 140.561 114.31 141.041 114.86 141.721L116.71 144.011C117.3 144.741 117.95 145.701 118.44 146.531L119.83 148.851C120.25 149.551 120.82 150.411 121.13 151.171C122.62 154.791 123.24 158.911 123.16 162.871" fill="#90BEFB"/>
<path d="M228.19 126.8V132.53L227.64 133.52C227.1 134.51 226.78 135.55 226.5 136.74L223.02 138.72L220.26 140.33C219.66 140.68 218.64 141.04 217.89 141.27C215.24 142.09 213.41 141.29 212.19 141.92H206.37C205.77 141.31 204.29 141.22 202.01 140.21C198.97 138.86 199.48 140 196.46 138.01C194.93 137.01 193.41 136.22 191.89 135.28L188.18 133L184.07 130.66C181.89 129.42 180.43 128.56 178.29 127.45L174.46 125.46L168.37 122.42L163.91 120.27C162.82 119.75 161.74 119.33 160.63 118.9L155.97 117.08C154.93 116.67 153.94 116.06 152.92 115.57C149.78 114.04 146.68 112.62 143.76 110.69C143.01 110.19 142.07 109.68 141.47 109.18C140.58 108.43 140 107.92 138.89 107.49C137.83 107.07 137.01 105.77 136 105.19C134.19 104.16 132.7 102.98 131.1 101.63L128.71 99.6404L126.84 98.4204C123.37 94.5404 121.61 93.4304 118.42 89.0104L116.49 86.3404C113.35 81.9904 114.76 83.6804 113 79.8904C112.63 79.0904 112.08 78.1404 112.08 77.2904C112.08 75.9104 111.12 75.1504 110.77 74.0304C109.96 71.4704 109.97 68.6804 109.34 66.0304C108.98 64.4804 108.9 62.9804 108.74 61.4704C108.2 56.5004 109.32 58.2604 109.5 52.6404C109.57 50.6704 108.18 46.4604 108.53 44.2704L109.38 38.9704C109.55 37.9204 109.9 36.9604 110.22 35.9604L110.99 33.5804C111.39 32.3404 111.77 31.2604 112.32 30.0404C113.54 27.3304 113.87 24.1404 115.6 22.5104C117.42 20.7904 116.68 19.2904 117.91 17.5704C118.84 16.2804 120.18 15.2504 120.92 13.8904C121.73 12.4004 122.35 10.9604 123.85 9.97044C124.92 8.26044 126.31 6.89044 127.7 5.35044C128.35 4.62044 128.74 3.46044 129.78 3.12044C132.24 2.30044 131.62 1.32044 136.31 0.720443C137.11 -0.0495569 138.1 -0.199557 139.12 0.360443C141.69 1.76044 142.24 2.04044 143.64 4.43044L144.69 6.21044C144.98 6.70044 144.6 7.75044 144.44 8.45044C144.18 9.62044 144.71 11.0004 144.36 12.1504C144.15 12.8504 143.17 13.6604 143.1 14.3704C142.95 15.8804 142.45 16.8204 141.46 17.9304C141.05 18.3904 140.85 19.5504 140.5 20.0604L138.43 23.0804L134.76 28.2704C134.15 29.1404 133.42 30.1604 133.05 31.1004L131.69 34.6104C130.59 37.4504 129.55 41.7904 129.55 44.7704L129.51 63.7404C129.51 65.2204 129.71 66.8804 130.07 68.2404L131.09 72.0904C131.55 73.8504 132.48 75.3904 133.35 77.0004C134.24 78.6504 137.04 81.3204 138.53 82.4804C139.45 83.2004 140.46 83.8004 141.29 84.5904C142.19 85.4304 142.94 86.5404 144.01 87.1904C146.22 88.5404 148.23 89.9504 150.14 91.7004C151.43 92.8804 152.7 93.6204 154.28 94.4004L157.49 95.9904C158.58 96.5304 159.67 97.2504 160.79 97.6704L163.8 98.8204L168.88 100.78C170.41 101.37 171.84 102.16 173.34 102.86L181.58 106.68L183.71 107.73C185.36 108.54 189.88 109.71 191.13 110.46L198.49 114.91C200.38 116.05 201.8 117.83 203.89 118.68C205.99 119.53 204.5 119.88 208.56 121.36C218.28 124.91 218.51 120.51 223.07 123.18C223.77 123.59 225.24 123.7 226.03 124.06C226.31 124.5 226.64 125.1 226.89 125.38L228.19 126.82V126.8Z" fill="#90BEFB"/>
<path d="M190 56.2303C189.7 56.4903 188.86 56.8303 188.46 56.7103C187.56 56.4403 186.63 57.1803 186.56 58.0603C186.52 58.5803 186.97 59.4003 187.24 59.9803C184.85 63.2503 187.01 63.8603 183.3 65.2103C182.11 65.6403 179.16 67.0403 179.48 68.7603L177.79 69.2803C176.16 69.7803 174.29 69.7803 172.7 69.8503C171.92 69.8803 170.94 70.3403 170.14 70.1403C169.24 69.9103 168.83 70.2603 168.13 70.7903C167.37 71.3703 166.07 71.5203 165.06 71.7903L162.18 72.5603C157.87 73.7103 153.06 72.2203 150.2 68.7703C149.51 67.9403 148.94 66.9403 148.32 66.0503C147.15 64.3803 147.49 62.3703 147.83 60.4603C148.05 59.2203 147.96 57.7603 148.67 56.7003C149.86 54.9503 151.12 53.3303 151.58 51.2003C151.68 50.7303 151.46 49.6003 151.79 49.2703C152.52 48.5503 153.03 47.7203 153.59 46.9103L155.58 44.0603C156.87 42.2103 158.99 38.1603 157.57 36.0703C157.18 35.4903 155.99 35.1303 155.24 35.0903L149.8 34.8403C148.46 35.9003 147.27 35.2903 146.3 34.3103C145.42 33.4303 145.17 32.7703 145.15 31.4903C145.13 30.1903 144.95 29.0403 145.93 27.9703C148.17 25.5303 146.91 26.2003 148.81 23.4503C149.74 22.1003 150.98 21.4703 152.43 20.7903C153.67 20.2003 154.77 19.7103 156.2 19.6903C158.2 19.6603 160.25 19.2803 162.24 19.4603L167.59 19.9503C168.83 20.0703 169.74 20.4203 170.62 21.2903C171.49 22.1603 172.83 22.8803 173.77 23.6603C174.73 25.1803 174.75 27.2003 175.05 28.9103C175.23 29.9603 175.39 30.9503 175.08 31.9803C174.76 33.0803 174.71 34.3403 174.33 35.3803C171.96 41.7803 171.88 39.8503 169.59 44.1903C168.98 45.3503 167.71 46.5603 166.56 47.2003C165.2 47.9503 164.39 49.1003 163.42 50.2803L161.04 53.1703C160.21 54.1803 159.18 54.9603 158.21 55.9503C157.74 56.4403 157.46 57.5603 157.1 58.2003C156.6 59.0703 156.36 60.0803 156.9 60.9403C158.46 63.4603 163.28 61.2403 165.45 59.7603L168.35 57.7803C169.13 57.2503 169.76 56.6303 170.45 56.0003C171.19 55.3303 171.85 54.8903 172.38 53.9503C172.78 53.2503 173.95 52.9003 174.77 52.8403C175.22 52.1803 175.68 51.4803 176.25 50.8303C176.66 50.3903 178.14 50.8303 178.69 51.0203C179.05 50.5403 179.49 49.9203 179.91 49.4603C180.19 49.1603 181.08 50.0403 181.46 50.2403C182.23 50.6403 183.75 51.2003 184.21 51.9303C185.64 54.2003 185.52 52.3803 186.64 54.1903C187.71 54.3103 189.16 54.5303 190.24 54.8303C190.33 55.3403 190.25 56.0403 190 56.2603" fill="#90BEFB"/>
</g>
</g>
<defs>
<clipPath id="clip0_2561_11467">
<rect width="228.19" height="216.62" fill="white"/>
</clipPath>
</defs>
</svg>
