<svg width="239" height="227" viewBox="0 0 239 227" fill="none" xmlns="http://www.w3.org/2000/svg">
<g clip-path="url(#clip0_2561_11171)">
<mask id="mask0_2561_11171" style="mask-type:luminance" maskUnits="userSpaceOnUse" x="0" y="0" width="239" height="227">
<path d="M238.19 0H0V226.62H238.19V0Z" fill="white"/>
</mask>
<g mask="url(#mask0_2561_11171)">
<path d="M136.51 202.711C134.29 206.131 137 203.531 133.23 208.061C132.58 208.831 131.9 209.451 131.17 210.101L128.88 212.171C128.14 212.841 127.21 213.231 126.29 213.711C123.3 215.281 120.46 217.101 117.22 218.081C113.92 219.091 110.7 219.441 107.33 219.731L102.5 220.151L94.93 220.881C93.96 220.981 92.83 221.001 91.8 221.041L85.99 221.231C83.74 221.301 81.65 221.241 79.43 221.531C78.37 221.671 77.11 221.641 76.05 221.531C70.1 220.901 66.38 221.681 60.88 219.271L56.78 217.481C55.59 216.961 54.58 215.751 53.39 215.131C52.55 214.701 51.33 214.511 50.64 214.021C49.86 213.471 49.39 213.241 48.4 213.161L45.42 212.921C37.53 215.931 37.13 216.361 28.98 215.221C27.22 214.971 25.83 214.881 24.49 213.401L21.67 212.261C20.12 211.631 19.35 210.081 18.25 208.931C16.83 207.441 15.74 205.801 14.59 204.121C12.43 200.981 11.05 195.971 10.78 192.201L10.42 187.321C9.97 181.181 9.92 173.551 10.44 167.441L10.67 164.761L10.95 159.691C11.2 155.081 11.77 150.631 11.57 145.991C11.5 144.571 11.67 143.051 11.53 141.661C11.2 138.381 11.06 135.301 10.96 132.021C10.91 130.341 10.96 128.801 10.89 127.121L10.72 123.031L10.81 116.161L10.94 110.311L11.23 102.701C11.33 100.031 11.4 97.6707 11.84 95.0507C12.13 93.3307 11.97 91.4007 12.09 89.6407L12.64 81.8707C12.96 77.2107 12.52 78.5707 12.15 75.3507L11.37 68.3207C10.77 62.9707 8.92 57.9607 7.81 52.6907L7.1 49.3107L6.26 45.1307C5.66 42.1607 5.67 40.2907 5 37.9407V36.4907C5.22 35.9707 5.23 35.2807 5.29 34.5607L5.6 30.6907C5.67 29.7907 6.17 28.4607 6.56 27.6407L8.66 23.2007C8.98 22.5107 9.92 22.0607 10.5 21.5507C13.49 18.9007 12.47 20.3407 15.43 18.2207H16.4L17.59 18.9707C17.87 19.1407 17.99 19.9607 18.21 20.2107C18.45 20.5007 19.23 20.6007 19.73 20.6807C20.91 22.4207 21.12 24.6007 21.33 26.6407L22.4 37.0807C22.57 38.7707 22.86 40.4507 23.42 42.0407C24.1 43.9607 24.13 45.9907 24.67 47.8707C25.32 50.1107 26.32 52.0607 26.19 54.5307C26.13 55.8007 26.99 57.1207 27.25 58.3707C28.03 62.0707 28.91 65.6807 29.41 69.4507C30.33 76.4207 29.81 88.9807 29.13 96.0707L28.5 102.671C28.04 107.461 27.53 112.061 27.72 116.861L28 124.331L28.66 136.351C28.73 137.641 28.9 138.921 28.92 140.211L29.08 153.691C29.1 155.581 29.29 157.351 29.11 159.221C28.95 160.921 28.66 162.591 28.6 164.291C28.52 166.921 28.1 169.581 28.17 172.191C28.25 175.311 28.94 178.181 28.32 181.381C28.09 182.601 28.19 183.961 28.14 185.201C28.07 187.121 28.24 188.881 28.42 190.741C28.65 193.021 28.85 194.991 30.96 196.371C33.06 197.761 35.46 198.731 37.85 199.641C41.79 201.131 40.7 201.331 46.13 201.101C47.42 199.751 48.67 198.741 50.29 197.951C51.39 197.421 53.11 197.171 53.93 196.261C55.58 194.411 57.67 189.931 59.73 192.041C60.42 192.751 61.3 193.441 61.87 194.221C64.51 197.891 64.49 200.971 67.7 202.261C70.33 203.311 71.33 202.621 75.09 202.741C78.72 202.861 82.15 202.391 85.76 202.231L93.99 201.871L97.45 201.731L104.43 201.181C106.67 201.011 108.69 201.051 110.86 200.321C113.63 199.401 113.41 200.291 117.72 198.261L122.17 196.161C123.29 195.631 124.44 195.181 125.63 194.721C126.49 194.391 127.82 194.361 128.5 193.761C129.24 193.101 129.73 192.941 130.66 193.371C132.73 194.341 135.15 194.411 135.29 195.531C135.33 195.871 135.02 196.591 134.86 196.981C134.49 197.921 136.69 198.471 136.48 199.701C136.42 200.051 135.92 200.481 135.55 200.791C135.92 201.011 136.41 201.291 136.66 201.471C136.9 201.651 136.73 202.441 136.56 202.701" fill="#90BEFB"/>
<path d="M128.15 167.881C128.1 170.901 127.01 173.661 126.18 176.471C125.77 177.891 125.33 178.881 124.34 180.021C123.71 180.751 123.28 181.901 122.67 182.751C121.67 184.141 119.99 185.061 118.9 186.351C117.39 188.171 115.43 188.911 113.05 188.041C112.54 187.851 111.37 187.841 110.92 187.461C110.05 186.741 109.71 185.641 109.14 184.731C108.63 183.911 109.13 182.821 108.91 181.961L108.03 178.581C107.47 176.461 106.47 174.551 107.19 172.161L106.61 169.611C106.96 167.881 106.69 166.381 105.6 165.011C105.29 164.611 104.95 163.471 104.47 163.311C103.36 162.941 103.56 161.871 103.04 161.251C101.4 159.291 98.4699 158.441 95.9399 158.501L91.1099 158.601C89.5899 158.631 88.3299 158.441 86.8599 158.841C86.2099 159.011 85.1799 158.861 84.5999 158.961C83.1899 159.221 74.4999 160.321 73.8499 160.201C72.0599 159.871 70.1599 159.061 68.7699 158.031C67.6199 157.181 67.0299 156.161 65.2599 156.301C64.7099 156.341 63.9699 155.651 63.5299 155.251L61.1499 153.161C60.1699 152.301 60.7799 151.641 61.0499 150.871C62.0399 148.101 63.9799 146.661 66.4699 145.351C68.5999 144.231 70.5399 142.821 72.7899 141.791C74.5899 140.961 76.2999 139.621 78.2199 139.181L83.4299 137.991C84.5099 137.741 85.8099 137.711 86.9799 137.631L93.7399 137.131L100.56 137.061C101.03 137.061 101.88 137.341 102.37 137.381C103.85 137.521 105.08 137.871 106.49 138.341C107.89 138.821 109.48 139.021 110.78 139.691L113.54 141.121C114.11 141.411 114.86 142.261 115.39 142.751L117.76 144.981C118.38 145.561 119.31 146.041 119.86 146.721L121.71 149.011C122.3 149.741 122.95 150.701 123.44 151.531L124.83 153.851C125.25 154.551 125.82 155.411 126.13 156.171C127.62 159.791 128.24 163.911 128.16 167.871" fill="#90BEFB"/>
<path d="M233.19 131.8V137.53L232.64 138.52C232.1 139.51 231.78 140.55 231.5 141.74L228.02 143.72L225.26 145.33C224.66 145.68 223.64 146.04 222.89 146.27C220.24 147.09 218.41 146.29 217.19 146.92H211.37C210.77 146.31 209.29 146.22 207.01 145.21C203.97 143.86 204.48 145 201.46 143.01C199.93 142.01 198.41 141.22 196.89 140.28L193.18 138L189.07 135.66C186.89 134.42 185.43 133.56 183.29 132.45L179.46 130.46L173.37 127.42L168.91 125.27C167.82 124.75 166.74 124.33 165.63 123.9L160.97 122.08C159.93 121.67 158.94 121.06 157.92 120.57C154.78 119.04 151.68 117.62 148.76 115.69C148.01 115.19 147.07 114.68 146.47 114.18C145.58 113.43 145 112.92 143.89 112.49C142.83 112.07 142.01 110.77 141 110.19C139.19 109.16 137.7 107.98 136.1 106.63L133.71 104.64L131.84 103.42C128.36 99.5404 126.61 98.4304 123.42 94.0104L121.49 91.3404C118.35 86.9904 119.76 88.6804 118 84.8904C117.63 84.0904 117.08 83.1404 117.08 82.2904C117.08 80.9104 116.12 80.1504 115.77 79.0304C114.96 76.4704 114.97 73.6804 114.34 71.0304C113.98 69.4804 113.9 67.9804 113.74 66.4704C113.2 61.5004 114.32 63.2604 114.5 57.6404C114.57 55.6704 113.18 51.4604 113.53 49.2704L114.38 43.9704C114.55 42.9204 114.9 41.9604 115.22 40.9604L115.99 38.5804C116.39 37.3404 116.77 36.2604 117.32 35.0404C118.54 32.3304 118.87 29.1404 120.6 27.5104C122.42 25.7904 121.68 24.2904 122.91 22.5704C123.84 21.2804 125.18 20.2504 125.92 18.8904C126.73 17.4004 127.35 15.9604 128.85 14.9704C129.92 13.2604 131.31 11.8904 132.7 10.3504C133.35 9.62044 133.74 8.46044 134.78 8.12044C137.24 7.30044 136.62 6.32044 141.31 5.72044C142.11 4.95044 143.1 4.80044 144.12 5.36044C146.69 6.76044 147.24 7.04044 148.64 9.43044L149.69 11.2104C149.98 11.7004 149.6 12.7504 149.44 13.4504C149.18 14.6204 149.71 16.0004 149.36 17.1504C149.15 17.8504 148.17 18.6604 148.1 19.3704C147.95 20.8804 147.45 21.8204 146.46 22.9304C146.05 23.3904 145.85 24.5504 145.5 25.0604L143.43 28.0804L139.76 33.2704C139.15 34.1404 138.42 35.1604 138.05 36.1004L136.69 39.6104C135.59 42.4504 134.55 46.7904 134.55 49.7704L134.51 68.7404C134.51 70.2204 134.71 71.8804 135.07 73.2404L136.09 77.0904C136.55 78.8504 137.48 80.3904 138.35 82.0004C139.24 83.6504 142.04 86.3204 143.53 87.4804C144.45 88.2004 145.46 88.8004 146.29 89.5904C147.19 90.4304 147.94 91.5404 149.01 92.1904C151.22 93.5404 153.23 94.9504 155.14 96.7004C156.43 97.8804 157.7 98.6204 159.28 99.4004L162.49 100.99C163.58 101.53 164.67 102.25 165.79 102.67L168.8 103.82L173.88 105.78C175.41 106.37 176.84 107.16 178.34 107.86L186.58 111.68L188.71 112.73C190.36 113.54 194.88 114.71 196.13 115.46L203.49 119.91C205.38 121.05 206.8 122.83 208.89 123.68C210.99 124.53 209.5 124.88 213.56 126.36C223.28 129.91 223.51 125.51 228.07 128.18C228.77 128.59 230.24 128.7 231.03 129.06C231.31 129.5 231.64 130.1 231.89 130.38L233.19 131.82V131.8Z" fill="#90BEFB"/>
<path d="M195.01 61.2303C194.71 61.4903 193.87 61.8303 193.47 61.7103C192.57 61.4403 191.64 62.1803 191.57 63.0603C191.53 63.5803 191.98 64.4003 192.25 64.9803C189.86 68.2503 192.02 68.8603 188.31 70.2103C187.12 70.6403 184.17 72.0403 184.49 73.7603L182.8 74.2803C181.17 74.7803 179.3 74.7803 177.71 74.8503C176.93 74.8803 175.95 75.3403 175.15 75.1403C174.25 74.9103 173.84 75.2603 173.14 75.7903C172.38 76.3703 171.08 76.5203 170.07 76.7903L167.19 77.5603C162.88 78.7103 158.07 77.2203 155.21 73.7703C154.52 72.9403 153.95 71.9403 153.33 71.0503C152.16 69.3803 152.5 67.3703 152.84 65.4603C153.06 64.2203 152.97 62.7603 153.68 61.7003C154.87 59.9503 156.13 58.3303 156.59 56.2003C156.69 55.7303 156.47 54.6003 156.8 54.2703C157.53 53.5503 158.04 52.7203 158.6 51.9103L160.59 49.0603C161.88 47.2103 164 43.1603 162.58 41.0703C162.19 40.4903 161 40.1303 160.25 40.0903L154.81 39.8403C153.47 40.9003 152.28 40.2903 151.31 39.3103C150.43 38.4303 150.18 37.7703 150.16 36.4903C150.14 35.1903 149.96 34.0403 150.94 32.9703C153.18 30.5303 151.92 31.2003 153.82 28.4503C154.75 27.1003 155.99 26.4703 157.44 25.7903C158.68 25.2003 159.78 24.7103 161.21 24.6903C163.21 24.6603 165.26 24.2803 167.25 24.4603L172.6 24.9503C173.84 25.0703 174.75 25.4203 175.63 26.2903C176.5 27.1603 177.84 27.8803 178.78 28.6603C179.74 30.1803 179.76 32.2003 180.06 33.9103C180.24 34.9603 180.4 35.9503 180.09 36.9803C179.77 38.0803 179.72 39.3403 179.34 40.3803C176.97 46.7803 176.89 44.8503 174.6 49.1903C173.99 50.3503 172.72 51.5603 171.57 52.2003C170.21 52.9503 169.4 54.1003 168.43 55.2803L166.05 58.1703C165.22 59.1803 164.19 59.9603 163.22 60.9503C162.75 61.4403 162.47 62.5603 162.11 63.2003C161.61 64.0703 161.37 65.0803 161.91 65.9403C163.47 68.4603 168.29 66.2403 170.46 64.7603L173.36 62.7803C174.14 62.2503 174.77 61.6303 175.46 61.0003C176.2 60.3303 176.86 59.8903 177.39 58.9503C177.79 58.2503 178.96 57.9003 179.78 57.8403C180.23 57.1803 180.69 56.4803 181.26 55.8303C181.67 55.3903 183.15 55.8303 183.7 56.0203C184.06 55.5403 184.5 54.9203 184.92 54.4603C185.2 54.1603 186.09 55.0403 186.47 55.2403C187.24 55.6403 188.76 56.2003 189.22 56.9303C190.65 59.2003 190.53 57.3803 191.65 59.1903C192.72 59.3103 194.17 59.5303 195.25 59.8303C195.34 60.3403 195.26 61.0403 195.01 61.2603" fill="#90BEFB"/>
<path d="M130.04 211.909C127.91 210.139 127.62 206.989 129.39 204.869C131.15 202.739 134.3 202.449 136.43 204.219C138.55 205.979 138.84 209.129 137.08 211.259C136.09 212.449 134.67 213.059 133.23 213.059C132.1 213.059 130.97 212.679 130.04 211.909Z" fill="black"/>
<path d="M127.47 213.451C125.62 211.411 125.77 208.241 127.83 206.391C129.88 204.541 133.04 204.701 134.89 206.751C136.74 208.801 136.58 211.961 134.53 213.811C133.57 214.681 132.37 215.101 131.18 215.101C129.82 215.101 128.45 214.551 127.47 213.451Z" fill="black"/>
<path d="M125.17 215.521C123.33 213.471 123.49 210.311 125.54 208.461C127.59 206.611 130.75 206.771 132.6 208.821C134.45 210.871 134.29 214.031 132.24 215.881C131.28 216.741 130.09 217.171 128.89 217.171C127.53 217.171 126.16 216.611 125.17 215.521Z" fill="black"/>
<path d="M121.88 216.06C120.58 213.62 121.51 210.59 123.95 209.29C126.4 208 129.42 208.93 130.71 211.37C132.01 213.81 131.08 216.84 128.64 218.13C127.89 218.53 127.09 218.72 126.3 218.72C124.51 218.72 122.78 217.75 121.88 216.06Z" fill="black"/>
<path d="M112.45 219.55C111.64 216.9 113.13 214.11 115.77 213.3C118.41 212.5 121.2 213.99 122.01 216.63C122.82 219.27 121.33 222.06 118.69 222.87C118.2 223.02 117.71 223.09 117.23 223.09C115.09 223.09 113.1 221.7 112.45 219.55Z" fill="black"/>
<path d="M102.35 220.169C102.11 217.419 104.15 214.999 106.9 214.759C109.65 214.519 112.08 216.559 112.32 219.309C112.56 222.059 110.52 224.489 107.77 224.719C107.62 224.739 107.47 224.739 107.33 224.739C104.76 224.739 102.58 222.779 102.35 220.169Z" fill="black"/>
<path d="M97.5197 220.589C97.2897 217.839 99.3197 215.409 102.08 215.179C104.83 214.939 107.25 216.979 107.49 219.729C107.72 222.479 105.68 224.899 102.93 225.139C102.79 225.139 102.64 225.159 102.5 225.159C99.9297 225.159 97.7497 223.189 97.5197 220.589Z" fill="black"/>
<path d="M89.9504 221.361C89.6904 218.611 91.7004 216.171 94.4504 215.911C97.2004 215.641 99.6404 217.661 99.9104 220.411C100.17 223.161 98.1604 225.601 95.4104 225.861C95.2404 225.881 95.0804 225.891 94.9204 225.891C92.3804 225.891 90.2004 223.951 89.9504 221.361Z" fill="black"/>
<path d="M86.7996 221.21C86.7096 218.45 88.8696 216.14 91.6296 216.04C94.3896 215.95 96.6996 218.11 96.7996 220.87C96.8896 223.63 94.7296 225.94 91.9696 226.04H91.7996C89.1096 226.04 86.8896 223.92 86.7996 221.21Z" fill="black"/>
<path d="M80.99 221.4C80.9 218.64 83.06 216.32 85.82 216.24C88.59 216.14 90.9 218.31 90.99 221.07C91.07 223.83 88.91 226.14 86.15 226.23H85.98C83.3 226.23 81.08 224.1 80.99 221.4Z" fill="black"/>
<path d="M74.4698 222.17C74.1098 219.43 76.0498 216.92 78.7898 216.57C81.5298 216.22 84.0298 218.15 84.3798 220.89C84.7398 223.63 82.7998 226.13 80.0598 226.49C79.8498 226.52 79.6298 226.53 79.4198 226.53C76.9398 226.53 74.7898 224.69 74.4698 222.17Z" fill="black"/>
<path d="M75.5302 226.5C72.7802 226.22 70.7902 223.76 71.0702 221.02C71.3502 218.27 73.8002 216.27 76.5502 216.55C79.3002 216.84 81.3002 219.29 81.0102 222.04C80.7502 224.61 78.5802 226.53 76.0502 226.53C75.8802 226.53 75.7002 226.53 75.5302 226.5Z" fill="black"/>
<path d="M58.87 223.851C56.33 222.741 55.18 219.791 56.29 217.261C57.39 214.731 60.34 213.581 62.87 214.681C65.4 215.791 66.55 218.741 65.45 221.271C64.63 223.151 62.79 224.271 60.87 224.271C60.2 224.271 59.52 224.131 58.87 223.851Z" fill="black"/>
<path d="M54.7699 222.06C52.2399 220.95 51.0799 218 52.1899 215.47C53.2999 212.94 56.2399 211.79 58.7699 212.89C61.2999 214 62.4599 216.95 61.3499 219.48C60.5299 221.36 58.6899 222.48 56.7699 222.48C56.0999 222.48 55.4199 222.34 54.7699 222.06Z" fill="black"/>
<path d="M51.0598 219.561C48.6198 218.281 47.6698 215.261 48.9498 212.811C50.2298 210.361 53.2498 209.421 55.6998 210.701C58.1398 211.981 59.0898 215.001 57.8098 217.441C56.9198 219.151 55.1798 220.131 53.3798 220.131C52.5998 220.131 51.7998 219.951 51.0598 219.561Z" fill="black"/>
<path d="M47.7304 218.09C45.4804 216.49 44.9504 213.37 46.5504 211.12C48.1504 208.87 51.2704 208.34 53.5204 209.94C55.7704 211.54 56.3004 214.66 54.7004 216.91C53.7304 218.28 52.1904 219.02 50.6204 219.02C49.6204 219.02 48.6104 218.72 47.7304 218.09Z" fill="black"/>
<path d="M47.98 218.14C45.23 217.91 43.18 215.5 43.4 212.75C43.62 210 46.04 207.95 48.79 208.17C51.54 208.39 53.59 210.8 53.37 213.56C53.15 216.17 50.97 218.15 48.39 218.15C48.25 218.15 48.12 218.15 47.98 218.15V218.14Z" fill="black"/>
<path d="M45.0005 217.89C42.2505 217.67 40.2005 215.26 40.4205 212.51C40.6405 209.76 43.0505 207.71 45.8005 207.93C48.5605 208.15 50.6105 210.56 50.3905 213.31C50.1705 215.93 47.9905 217.91 45.4105 217.91C45.2705 217.91 45.1405 217.91 45.0005 217.89Z" fill="black"/>
<path d="M28.2701 220.16C25.5401 219.77 23.6301 217.25 24.0101 214.51C24.4001 211.78 26.9301 209.87 29.6601 210.26C32.4001 210.64 34.3001 213.17 33.9201 215.91C33.5701 218.4 31.4301 220.21 28.9701 220.21C28.7401 220.21 28.5101 220.19 28.2701 220.16Z" fill="black"/>
<path d="M20.76 216.729C18.92 214.679 19.08 211.519 21.14 209.669C23.19 207.819 26.35 207.989 28.2 210.039C30.05 212.099 29.88 215.259 27.82 217.099C26.87 217.969 25.67 218.389 24.48 218.389C23.11 218.389 21.75 217.829 20.76 216.729Z" fill="black"/>
<path d="M19.7902 216.891C17.2302 215.851 15.9902 212.941 17.0302 210.381C18.0602 207.821 20.9702 206.581 23.5302 207.611C26.0902 208.651 27.3302 211.561 26.3002 214.121C25.5102 216.071 23.6402 217.251 21.6602 217.251C21.0402 217.251 20.4002 217.131 19.7902 216.891Z" fill="black"/>
<path d="M14.6105 212.35C12.7205 210.35 12.8005 207.18 14.8105 205.29C16.8205 203.39 19.9805 203.48 21.8805 205.49C23.7805 207.49 23.6905 210.66 21.6805 212.55C20.7105 213.47 19.4805 213.92 18.2505 213.92C16.9205 213.92 15.6005 213.39 14.6105 212.35Z" fill="black"/>
<path d="M10.47 206.949C8.90003 204.669 9.48003 201.559 11.76 199.989C14.03 198.429 17.14 199.009 18.71 201.279C20.27 203.559 19.7 206.669 17.42 208.229C16.56 208.829 15.57 209.109 14.59 209.109C13 209.109 11.44 208.359 10.47 206.949Z" fill="black"/>
<path d="M5.78972 192.561C5.58972 189.811 7.65972 187.411 10.4197 187.211C13.1697 187.011 15.5697 189.081 15.7597 191.841C15.9597 194.591 13.8897 196.981 11.1397 197.191C11.0197 197.191 10.8897 197.191 10.7697 197.191C8.17972 197.191 5.97972 195.181 5.78972 192.551V192.561Z" fill="black"/>
<path d="M5.43035 187.679C5.23035 184.929 7.30035 182.529 10.0503 182.329C12.8103 182.119 15.2003 184.189 15.4103 186.949C15.6103 189.699 13.5403 192.099 10.7903 192.299C10.6603 192.309 10.5403 192.309 10.4103 192.309C7.82035 192.309 5.63035 190.309 5.43035 187.679Z" fill="black"/>
<path d="M10.0096 172.421C7.25961 172.181 5.21961 169.761 5.45961 167.011C5.69961 164.261 8.11961 162.221 10.8696 162.461C13.6196 162.691 15.6596 165.111 15.4196 167.871C15.1996 170.471 13.0096 172.441 10.4396 172.441C10.2996 172.441 10.1596 172.441 10.0096 172.421Z" fill="black"/>
<path d="M10.2401 169.741C7.49008 169.511 5.45008 167.091 5.69008 164.341C5.92008 161.581 8.34008 159.541 11.0901 159.781C13.8401 160.011 15.8801 162.431 15.6501 165.181C15.4301 167.791 13.2501 169.761 10.6801 169.761C10.5301 169.761 10.3901 169.761 10.2401 169.741Z" fill="black"/>
<path d="M10.6699 164.68C7.90991 164.53 5.79991 162.17 5.94991 159.41C6.09991 156.66 8.45991 154.54 11.2199 154.7C13.9699 154.85 16.0899 157.2 15.9399 159.96C15.7899 162.63 13.5899 164.69 10.9499 164.69C10.8599 164.69 10.7699 164.69 10.6699 164.69V164.68Z" fill="black"/>
<path d="M6.57008 146.22C6.44008 143.46 8.58008 141.12 11.3401 141C14.1001 140.87 16.4301 143.01 16.5601 145.77C16.6801 148.53 14.5501 150.86 11.7901 150.99H11.5601C8.90008 150.99 6.69008 148.9 6.57008 146.22Z" fill="black"/>
<path d="M6.5496 142.17C6.2696 139.43 8.26959 136.97 11.0096 136.69C13.7596 136.41 16.2196 138.41 16.4996 141.16C16.7696 143.91 14.7696 146.36 12.0296 146.64C11.8596 146.66 11.6896 146.66 11.5196 146.66C8.9796 146.66 6.8096 144.74 6.5496 142.17Z" fill="black"/>
<path d="M5.96015 132.159C5.88015 129.399 8.05015 127.099 10.8202 127.029C13.5802 126.949 15.8802 129.119 15.9502 131.879C16.0302 134.639 13.8602 136.939 11.1002 137.019H10.9502C8.25015 137.019 6.03015 134.879 5.96015 132.159Z" fill="black"/>
<path d="M5.90032 127.33C5.78032 124.58 7.92032 122.24 10.6803 122.13C13.4403 122.01 15.7703 124.16 15.8903 126.92C16.0003 129.67 13.8603 132.01 11.1003 132.12C11.0303 132.12 10.9603 132.12 10.8903 132.12C8.22032 132.12 6.01032 130.01 5.90032 127.32V127.33Z" fill="black"/>
<path d="M5.71988 123.249C5.60988 120.489 7.74988 118.159 10.5099 118.039C13.2599 117.929 15.5999 120.069 15.7099 122.829C15.8299 125.589 13.6899 127.919 10.9299 128.029C10.8499 128.029 10.7799 128.029 10.7099 128.029C8.04988 128.029 5.83988 125.919 5.71988 123.239V123.249Z" fill="black"/>
<path d="M10.8503 115.319C8.09029 115.269 5.89029 112.989 5.94029 110.229C5.99029 107.469 8.27029 105.269 11.0303 105.319C13.7903 105.369 15.9903 107.639 15.9403 110.399C15.8903 113.139 13.6603 115.319 10.9403 115.319H10.8503Z" fill="black"/>
<path d="M11.0404 107.71C8.28037 107.6 6.13037 105.28 6.24037 102.52C6.34037 99.7604 8.66037 97.6104 11.4204 97.7104C14.1804 97.8204 16.3304 100.14 16.2304 102.9C16.1304 105.6 13.9104 107.71 11.2404 107.71H11.0404Z" fill="black"/>
<path d="M11.0203 99.9891C8.29032 99.5291 6.45032 96.9491 6.91032 94.2291C7.37032 91.5091 9.95032 89.6691 12.6703 90.1291C15.4003 90.5891 17.2303 93.1691 16.7803 95.8891C16.3603 98.3291 14.2503 100.059 11.8503 100.059C11.5803 100.059 11.3003 100.039 11.0203 99.9891Z" fill="black"/>
<path d="M11.7497 94.6393C8.99972 94.4493 6.91972 92.0693 7.09972 89.3093C7.28972 86.5593 9.67972 84.4793 12.4297 84.6593C15.1897 84.8493 17.2697 87.2393 17.0797 89.9893C16.8997 92.6293 14.6997 94.6493 12.0997 94.6493C11.9897 94.6493 11.8697 94.6493 11.7497 94.6493V94.6393Z" fill="black"/>
<path d="M12.2898 86.871C9.52979 86.681 7.45979 84.291 7.64979 81.531C7.84979 78.781 10.2298 76.701 12.9898 76.891C15.7398 77.091 17.8198 79.481 17.6298 82.231C17.4398 84.871 15.2498 86.881 12.6398 86.881C12.5298 86.881 12.4098 86.881 12.2898 86.881V86.871Z" fill="black"/>
<path d="M7.17959 75.9194C6.87959 73.1694 8.8496 70.6994 11.5996 70.3894C14.3396 70.0794 16.8096 72.0594 17.1196 74.7994C17.4296 77.5394 15.4496 80.0194 12.7096 80.3294C12.5196 80.3494 12.3296 80.3594 12.1496 80.3594C9.63959 80.3594 7.46959 78.4694 7.17959 75.9194Z" fill="black"/>
<path d="M6.40013 68.8801C6.09013 66.1301 8.07013 63.6601 10.8201 63.3601C13.5601 63.0501 16.0301 65.0301 16.3401 67.7701C16.6401 70.5201 14.6701 72.9901 11.9201 73.2901C11.7301 73.3101 11.5501 73.3301 11.3601 73.3301C8.85013 73.3301 6.69013 71.4301 6.40013 68.8801Z" fill="black"/>
<path d="M2.92012 53.7298C2.35012 51.0198 4.08012 48.3698 6.79012 47.8098C9.49012 47.2398 12.1401 48.9698 12.7101 51.6698C13.2701 54.3698 11.5401 57.0198 8.84013 57.5898C8.49013 57.6598 8.15012 57.6998 7.81012 57.6998C5.49012 57.6998 3.41012 56.0798 2.92012 53.7298Z" fill="black"/>
<path d="M2.20973 50.3504C1.63973 47.6504 3.37973 44.9904 6.07973 44.4304C8.77973 43.8604 11.4297 45.6004 11.9997 48.3004C12.5697 51.0004 10.8297 53.6504 8.12973 54.2204C7.78973 54.2904 7.43973 54.3204 7.09973 54.3204C4.78973 54.3204 2.70973 52.7104 2.20973 50.3504Z" fill="black"/>
<path d="M1.35993 46.1404C0.819935 43.4304 2.55993 40.7904 5.26993 40.2404C7.97993 39.7004 10.6199 41.4504 11.1599 44.1604C11.7099 46.8604 9.95993 49.5004 7.24993 50.0504C6.91993 50.1104 6.58993 50.1504 6.25993 50.1504C3.92993 50.1504 1.83993 48.5104 1.35993 46.1404Z" fill="black"/>
<path d="M0.199951 39.3292C-0.560049 36.6792 0.979951 33.9092 3.62995 33.1492C6.27995 32.3892 9.04995 33.9292 9.80995 36.5792C10.57 39.2392 9.02995 41.9992 6.37995 42.7692C5.91995 42.8992 5.45995 42.9592 4.99995 42.9592C2.82995 42.9592 0.819951 41.5292 0.199951 39.3292Z" fill="black"/>
<path d="M0 37.2395V36.5195C0 33.7495 2.24 31.5195 5 31.5195C7.76 31.5195 10 33.7495 10 36.5195V37.2395C10 39.9995 7.76 42.2395 5 42.2395C2.24 42.2395 0 39.9995 0 37.2395Z" fill="black"/>
<path d="M4.70002 40.5296C1.96002 40.2496 -0.0399752 37.7996 0.240025 35.0496C0.260025 34.9096 0.270025 34.5996 0.310025 34.1696C0.530025 31.4196 2.95002 29.3696 5.70002 29.5996C8.46002 29.8296 10.5 32.2396 10.28 34.9896C10.25 35.2396 10.24 35.5996 10.19 36.0696C9.92002 38.6396 7.75002 40.5596 5.22002 40.5596C5.05002 40.5596 4.88002 40.5496 4.70002 40.5296Z" fill="black"/>
<path d="M5.19969 35.6891C2.44969 35.4691 0.39969 33.0591 0.61969 30.3091C0.84969 27.5491 3.25969 25.5091 6.00969 25.7291C8.75969 25.9491 10.8097 28.3591 10.5897 31.1191C10.3797 33.7291 8.18969 35.7091 5.60969 35.7091C5.47969 35.7091 5.33969 35.7091 5.19969 35.6891Z" fill="black"/>
<path d="M4.43967 32.1903C1.93967 31.0203 0.859668 28.0403 2.02967 25.5403C3.19967 23.0403 6.17967 21.9603 8.67967 23.1303C11.1797 24.3003 12.2597 27.2803 11.0897 29.7803C10.2397 31.5903 8.43967 32.6603 6.55967 32.6603C5.84967 32.6603 5.12967 32.5103 4.43967 32.1903Z" fill="black"/>
<path d="M6.52046 27.7293C4.03046 26.5493 2.96046 23.5693 4.14046 21.0693C5.32046 18.5793 8.30046 17.5093 10.8005 18.6893C13.3005 19.8793 14.3605 22.8493 13.1805 25.3493C12.3305 27.1593 10.5305 28.2193 8.66046 28.2193C7.94046 28.2193 7.21046 28.0593 6.52046 27.7293Z" fill="black"/>
<path d="M6.7696 24.8907C4.9296 22.8207 5.1096 19.6607 7.1696 17.8207C9.2396 15.9907 12.3996 16.1707 14.2296 18.2307C16.0696 20.2907 15.8896 23.4507 13.8296 25.2907C12.8696 26.1407 11.6896 26.5607 10.4996 26.5607C9.1296 26.5607 7.7596 25.9907 6.7696 24.8907Z" fill="black"/>
<path d="M11.3702 21.1408C9.76024 18.9008 10.2702 15.7808 12.5102 14.1608C14.7502 12.5508 17.8802 13.0708 19.4902 15.3108C21.1002 17.5608 20.5902 20.6808 18.3402 22.2908C17.4602 22.9208 16.4402 23.2308 15.4302 23.2308C13.8802 23.2308 12.3402 22.5008 11.3702 21.1408Z" fill="black"/>
<path d="M15.9102 23.2305C13.1502 23.2305 10.9102 20.9905 10.9102 18.2305C10.9102 15.4705 13.1502 13.2305 15.9102 13.2305H16.4002C19.1602 13.2305 21.4002 15.4705 21.4002 18.2305C21.4002 20.9905 19.1602 23.2305 16.4002 23.2305C13.1502 23.2305 16.4002 23.2305 15.9102 23.2305Z" fill="black"/>
<path d="M14.9195 23.2109L14.3195 22.8309C11.9895 21.3609 11.2895 18.2709 12.7595 15.9309C14.2295 13.6009 17.3195 12.9009 19.6595 14.3709L20.2495 14.7509C22.5895 16.2209 23.2895 19.3009 21.8095 21.6409C20.8595 23.1509 19.2395 23.9809 17.5795 23.9809C16.6695 23.9809 15.7495 23.7309 14.9195 23.2109Z" fill="black"/>
<path d="M14.4197 23.4903C13.6797 22.5803 13.5697 22.1403 13.4197 21.8203C13.2997 21.5103 13.2397 21.3303 13.2097 21.2503C12.2797 18.6503 13.6397 15.7903 16.2397 14.8703C18.8297 13.9403 21.6897 15.2903 22.6197 17.8703C23.6897 19.8903 23.2697 22.4403 21.4797 23.9903C20.5297 24.8103 19.3597 25.2203 18.1997 25.2103C16.7997 25.2103 15.4097 24.6303 14.4197 23.4903Z" fill="black"/>
<path d="M18.8897 25.62C18.7497 25.59 18.3497 25.54 17.7797 25.41C15.0997 24.78 13.4297 22.09 14.0597 19.4C14.6897 16.71 17.3797 15.04 20.0697 15.67C20.0697 15.67 20.2297 15.7 20.5497 15.75C23.2697 16.21 25.1097 18.79 24.6497 21.52C24.2397 23.96 22.1197 25.69 19.7297 25.69C19.4497 25.69 19.1697 25.66 18.8897 25.62Z" fill="black"/>
<path d="M16.3397 27.1704C16.0597 24.4204 18.0497 21.9604 20.7997 21.6804C23.5497 21.3904 26.0097 23.3804 26.2897 26.1304C26.5797 28.8804 24.5797 31.3404 21.8397 31.6204C21.6597 31.6404 21.4897 31.6504 21.3097 31.6504C18.7797 31.6504 16.6097 29.7404 16.3397 27.1704Z" fill="black"/>
<path d="M17.4195 37.6001C17.1295 34.8501 19.1295 32.3901 21.8795 32.1101C24.6295 31.8301 27.0795 33.8301 27.3595 36.5701C27.6495 39.3201 25.6495 41.7801 22.8995 42.0601C22.7295 42.0801 22.5495 42.0901 22.3795 42.0901C19.8495 42.0901 17.6795 40.1701 17.4195 37.6001Z" fill="black"/>
<path d="M18.6997 43.7203C17.7797 41.1203 19.1397 38.2603 21.7397 37.3403C24.3397 36.4203 27.1997 37.7803 28.1197 40.3803C29.0397 42.9903 27.6797 45.8403 25.0797 46.7703C24.5297 46.9603 23.9597 47.0503 23.4097 47.0503C21.3497 47.0503 19.4197 45.7703 18.6997 43.7203Z" fill="black"/>
<path d="M19.8497 49.2596C19.0997 46.5996 20.6297 43.8296 23.2897 43.0796C25.9397 42.3196 28.7097 43.8496 29.4697 46.5096C30.2297 49.1596 28.6897 51.9296 26.0397 52.6896C25.5797 52.8196 25.1097 52.8796 24.6597 52.8796C22.4797 52.8796 20.4797 51.4496 19.8497 49.2596Z" fill="black"/>
<path d="M25.9202 59.5405C23.1602 59.3905 21.0502 57.0405 21.1902 54.2805C21.3402 51.5205 23.6902 49.4005 26.4502 49.5505C29.2002 49.6905 31.3202 52.0505 31.1802 54.8105C31.0302 57.4705 28.8302 59.5405 26.1902 59.5405H25.9202Z" fill="black"/>
<path d="M22.3499 59.3898C21.7899 56.6898 23.5299 54.0398 26.2299 53.4798C28.9299 52.9198 31.5799 54.6598 32.1399 57.3698C32.6999 60.0698 30.9599 62.7198 28.2599 63.2798C27.9199 63.3498 27.5799 63.3798 27.2399 63.3798C24.9199 63.3798 22.8399 61.7598 22.3499 59.3898Z" fill="black"/>
<path d="M24.4397 70.1204C24.0797 67.3804 26.0097 64.8704 28.7397 64.5004C31.4797 64.1404 33.9997 66.0604 34.3597 68.8004C34.7197 71.5404 32.7997 74.0504 30.0597 74.4204C29.8397 74.4504 29.6197 74.4604 29.3997 74.4604C26.9297 74.4604 24.7797 72.6304 24.4397 70.1204Z" fill="black"/>
<path d="M28.6398 101.061C25.8898 100.791 23.8798 98.3508 24.1398 95.6008C24.4098 92.8508 26.8498 90.8408 29.5998 91.1008C32.3498 91.3708 34.3598 93.8108 34.0998 96.5608C33.8498 99.1408 31.6698 101.081 29.1298 101.081C28.9698 101.081 28.7998 101.081 28.6398 101.061Z" fill="black"/>
<path d="M28.0099 107.66C25.2599 107.4 23.2499 104.96 23.5099 102.21C23.7699 99.4601 26.2099 97.4501 28.9599 97.7101C31.7099 97.9701 33.7299 100.41 33.4699 103.16C33.2199 105.75 31.0399 107.69 28.4999 107.69C28.3399 107.69 28.1699 107.69 28.0099 107.66Z" fill="black"/>
<path d="M22.7101 117.061C22.6001 114.301 24.7601 111.981 27.5201 111.881C30.2801 111.771 32.6001 113.931 32.7001 116.691C32.8001 119.451 30.6501 121.771 27.8901 121.871H27.7001C25.0201 121.871 22.8101 119.761 22.7101 117.061Z" fill="black"/>
<path d="M22.9904 124.53C22.8804 121.77 25.0403 119.44 27.8003 119.35C30.5603 119.24 32.8703 121.4 32.9803 124.15C33.0803 126.92 30.9304 129.24 28.1704 129.34H27.9803C25.3003 129.34 23.0904 127.22 22.9904 124.53Z" fill="black"/>
<path d="M23.6501 136.63C23.5001 133.87 25.6101 131.52 28.3701 131.37C31.1201 131.21 33.4801 133.33 33.6301 136.08C33.7801 138.84 31.6701 141.2 28.9101 141.35C28.8201 141.35 28.7201 141.35 28.6301 141.35C26.0001 141.35 23.7901 139.29 23.6501 136.62V136.63Z" fill="black"/>
<path d="M23.8999 140.279C23.8599 137.519 26.0699 135.249 28.8399 135.219C31.5999 135.189 33.86 137.399 33.9 140.159C33.93 142.919 31.7199 145.189 28.9599 145.219H28.8899C26.1599 145.219 23.9299 143.019 23.8999 140.279Z" fill="black"/>
<path d="M24.0501 153.76C24.0201 151 26.2401 148.73 29.0001 148.7C31.7601 148.67 34.0201 150.88 34.0501 153.64C34.0801 156.4 31.8701 158.67 29.1101 158.7H29.0501C26.3201 158.7 24.0901 156.5 24.0501 153.76Z" fill="black"/>
<path d="M28.6101 164.209C25.8601 163.939 23.8401 161.499 24.1101 158.759C24.3701 156.009 26.8101 153.989 29.5601 154.249C32.3101 154.509 34.3201 156.949 34.0601 159.699C33.8101 162.289 31.6401 164.229 29.0901 164.229C28.9301 164.229 28.7701 164.219 28.6101 164.209Z" fill="black"/>
<path d="M28.4099 169.29C25.6499 169.2 23.4899 166.89 23.5799 164.13C23.6699 161.37 25.9799 159.21 28.7399 159.3C31.4999 159.39 33.6599 161.7 33.5699 164.46C33.4799 167.17 31.2599 169.3 28.5799 169.3C28.5199 169.3 28.4599 169.3 28.4099 169.3V169.29Z" fill="black"/>
<path d="M23.1496 172.331C23.0696 169.571 25.2496 167.271 28.0096 167.201C30.7696 167.131 33.0696 169.311 33.1396 172.071C33.2096 174.831 31.0396 177.121 28.2796 177.191C28.2796 177.191 28.1896 177.191 28.1396 177.191C25.4396 177.191 23.2196 175.031 23.1496 172.321V172.331Z" fill="black"/>
<path d="M27.3397 186.29C24.6297 185.77 22.8597 183.151 23.3897 180.441C23.9097 177.721 26.5297 175.95 29.2497 176.48C31.9597 177 33.7297 179.63 33.1997 182.34C32.7397 184.73 30.6497 186.39 28.2997 186.39C27.9897 186.39 27.6697 186.36 27.3397 186.29Z" fill="black"/>
<path d="M27.9296 190.201C25.1696 190.091 23.0196 187.781 23.1196 185.011C23.2196 182.261 25.5496 180.101 28.2996 180.201C31.0596 180.311 33.2196 182.631 33.1096 185.391C33.0096 188.081 30.7996 190.201 28.1196 190.201H27.9296Z" fill="black"/>
<path d="M23.4305 191.24C23.1505 188.49 25.1505 186.04 27.9005 185.77C30.6505 185.49 33.1005 187.49 33.3805 190.24C33.6505 192.99 31.6505 195.44 28.9005 195.72C28.7305 195.73 28.5705 195.74 28.4005 195.74C25.8605 195.74 23.6905 193.82 23.4305 191.24Z" fill="black"/>
<path d="M28.2 200.551C25.89 199.041 25.24 195.951 26.75 193.641C28.26 191.321 31.36 190.671 33.67 192.191C35.98 193.701 36.63 196.791 35.12 199.101C34.16 200.571 32.57 201.371 30.94 201.371C30 201.371 29.05 201.111 28.2 200.551Z" fill="black"/>
<path d="M36.0501 204.309C33.4701 203.329 32.1701 200.439 33.1601 197.859C34.1401 195.279 37.0301 193.979 39.6101 194.959C42.1901 195.949 43.4901 198.829 42.5001 201.409C41.7401 203.409 39.8401 204.639 37.8301 204.639C37.2401 204.639 36.6401 204.529 36.0501 204.309Z" fill="black"/>
<path d="M41.12 201.3C41 198.55 43.14 196.22 45.9 196.1C48.66 195.98 50.99 198.13 51.11 200.88C51.22 203.64 49.08 205.97 46.32 206.09C46.25 206.09 46.18 206.1 46.1 206.1C43.44 206.1 41.23 203.99 41.12 201.3Z" fill="black"/>
<path d="M45.7702 200.13C44.5702 197.64 45.6102 194.65 48.0902 193.45C50.5802 192.24 53.5702 193.28 54.7702 195.76C55.9802 198.25 54.9402 201.24 52.4502 202.44C51.7502 202.79 51.0102 202.95 50.2802 202.95C48.4202 202.95 46.6402 201.91 45.7702 200.13Z" fill="black"/>
<path d="M50.5798 199.99C48.5198 198.15 48.3398 194.99 50.1798 192.93C52.0198 190.87 55.1698 190.69 57.2398 192.52C59.2998 194.36 59.4798 197.52 57.6398 199.58C56.6598 200.69 55.2898 201.26 53.9098 201.26C52.7298 201.26 51.5398 200.84 50.5798 199.99Z" fill="black"/>
<path d="M56.1297 195.519C54.1997 193.549 54.2397 190.379 56.2197 188.449C58.1997 186.519 61.3597 186.569 63.2897 188.539C65.2197 190.519 65.1797 193.689 63.1997 195.619C62.2297 196.559 60.9697 197.029 59.7097 197.029C58.4097 197.029 57.1097 196.529 56.1297 195.519Z" fill="black"/>
<path d="M57.7902 197.14C56.1802 194.89 56.6902 191.77 58.9302 190.16C61.1702 188.54 64.2902 189.05 65.9102 191.29C67.5202 193.53 67.0102 196.66 64.7702 198.27C63.8802 198.91 62.8602 199.22 61.8502 199.22C60.3002 199.22 58.7702 198.49 57.7902 197.14Z" fill="black"/>
<path d="M65.8098 206.89C63.2398 205.86 61.9998 202.95 63.0398 200.39C64.0698 197.82 66.9798 196.58 69.5398 197.62C72.1098 198.65 73.3398 201.56 72.3098 204.12C71.5298 206.07 69.6498 207.26 67.6698 207.26C67.0498 207.26 66.4198 207.14 65.8098 206.89Z" fill="black"/>
<path d="M74.9001 207.73C72.1401 207.64 69.9801 205.33 70.0701 202.56C70.1601 199.81 72.4701 197.64 75.2301 197.74C77.9901 197.83 80.1601 200.14 80.0601 202.9C79.9701 205.6 77.7501 207.73 75.0701 207.73H74.9001Z" fill="black"/>
<path d="M80.7304 202.44C80.6104 199.68 82.7504 197.35 85.5104 197.22C88.2704 197.1 90.6004 199.24 90.7204 202C90.8504 204.76 88.7104 207.09 85.9504 207.21C85.8804 207.21 85.8004 207.21 85.7204 207.21C83.0704 207.21 80.8504 205.11 80.7304 202.43V202.44Z" fill="black"/>
<path d="M88.9697 202.08C88.8497 199.32 90.9897 196.98 93.7497 196.86C96.5097 196.74 98.8397 198.88 98.9597 201.64C99.0797 204.4 96.9397 206.73 94.1797 206.85C94.1097 206.85 94.0397 206.85 93.9597 206.85C91.2997 206.85 89.0897 204.75 88.9697 202.07V202.08Z" fill="black"/>
<path d="M92.4201 201.921C92.3101 199.161 94.4601 196.831 97.2201 196.721C99.9801 196.611 102.3 198.751 102.42 201.511C102.53 204.271 100.38 206.601 97.6301 206.711C97.5601 206.711 97.4901 206.711 97.4201 206.711C94.7501 206.711 92.5401 204.601 92.4201 201.911V201.921Z" fill="black"/>
<path d="M99.4102 201.56C99.2002 198.81 101.26 196.4 104.01 196.19C106.76 195.97 109.17 198.03 109.38 200.78C109.6 203.53 107.54 205.94 104.79 206.15C104.65 206.17 104.52 206.17 104.39 206.17C101.81 206.17 99.6202 204.18 99.4102 201.56Z" fill="black"/>
<path d="M106.08 201.899C105.21 199.279 106.62 196.449 109.24 195.569C111.86 194.699 114.69 196.109 115.57 198.729C116.44 201.349 115.03 204.179 112.41 205.059C111.89 205.229 111.35 205.309 110.83 205.309C108.73 205.309 106.78 203.989 106.08 201.899Z" fill="black"/>
<path d="M113.16 200.39C111.99 197.89 113.06 194.91 115.56 193.73C118.05 192.56 121.03 193.63 122.21 196.13C123.38 198.63 122.32 201.6 119.82 202.78C119.13 203.1 118.4 203.26 117.69 203.26C115.81 203.26 114.01 202.2 113.16 200.39Z" fill="black"/>
<path d="M117.61 198.29C116.43 195.8 117.5 192.82 120 191.64C122.49 190.46 125.47 191.52 126.65 194.02C127.83 196.52 126.77 199.5 124.27 200.68C123.58 201 122.85 201.16 122.14 201.16C120.26 201.16 118.47 200.1 117.61 198.29Z" fill="black"/>
<path d="M120.92 196.509C119.93 193.929 121.21 191.04 123.79 190.05C126.37 189.06 129.26 190.339 130.26 192.919C131.25 195.499 129.96 198.39 127.38 199.38C126.79 199.61 126.19 199.719 125.59 199.719C123.58 199.719 121.69 198.499 120.92 196.509Z" fill="black"/>
<path d="M124.72 197.081C122.89 195.021 123.07 191.861 125.14 190.021C127.2 188.191 130.36 188.371 132.2 190.441C134.03 192.501 133.84 195.661 131.78 197.491C130.83 198.341 129.64 198.761 128.46 198.761C127.08 198.761 125.71 198.191 124.72 197.081Z" fill="black"/>
<path d="M128.48 197.889C125.98 196.709 124.91 193.729 126.09 191.229C127.27 188.739 130.26 187.669 132.75 188.849C135.25 190.029 136.32 193.009 135.14 195.509C134.28 197.309 132.49 198.369 130.61 198.369C129.9 198.369 129.17 198.219 128.48 197.889Z" fill="black"/>
<path d="M130.28 196.14C129.95 193.4 131.9 190.91 134.64 190.57C137.38 190.24 139.87 192.19 140.21 194.93C140.54 197.67 138.59 200.16 135.85 200.5C135.64 200.52 135.44 200.53 135.24 200.53C132.75 200.53 130.59 198.67 130.28 196.14Z" fill="black"/>
<path d="M132.96 201.631C130.4 200.611 129.15 197.701 130.17 195.141C130.27 194.891 130.34 194.711 130.37 194.621C131.28 192.021 134.13 190.641 136.74 191.561C139.35 192.471 140.72 195.321 139.81 197.931C139.65 198.371 139.51 198.701 139.46 198.841C138.68 200.801 136.8 201.991 134.81 201.991C134.2 201.991 133.57 201.871 132.96 201.631Z" fill="black"/>
<path d="M135.59 204.631C132.87 204.171 131.04 201.581 131.51 198.861C131.98 196.141 134.56 194.311 137.29 194.781C140.01 195.251 141.83 197.831 141.36 200.561C140.95 202.991 138.83 204.711 136.44 204.711C136.16 204.711 135.87 204.681 135.59 204.631Z" fill="black"/>
<path d="M131.65 203.989C129.89 201.859 130.19 198.709 132.31 196.949C132.38 196.889 132.43 196.849 132.46 196.819C134.39 194.839 137.55 194.809 139.53 196.739C141.51 198.669 141.54 201.829 139.61 203.809C139.21 204.209 138.9 204.469 138.68 204.649C137.75 205.419 136.62 205.799 135.49 205.799C134.06 205.799 132.63 205.179 131.64 203.989H131.65Z" fill="black"/>
<path d="M133.71 205.549C133.71 205.549 133.59 205.479 133.51 205.419C131.13 204.009 130.36 200.939 131.77 198.569C133.18 196.199 136.25 195.419 138.62 196.829C138.89 196.999 139.14 197.139 139.54 197.429C141.78 199.039 142.28 202.169 140.67 204.399C139.69 205.759 138.16 206.479 136.61 206.479C135.6 206.479 134.59 206.179 133.71 205.549Z" fill="black"/>
<path d="M133.81 206.919C131.76 205.609 130.99 203.039 131.87 200.859C132.49 198.399 134.9 196.759 137.46 197.149C140.19 197.559 142.07 200.109 141.65 202.839C141.59 203.259 141.5 203.619 141.38 203.999C141.25 204.379 141.13 204.749 140.72 205.409C139.77 206.899 138.15 207.709 136.51 207.709C135.58 207.709 134.65 207.449 133.81 206.919Z" fill="black"/>
<path d="M133.24 213.07C132.35 213.07 131.45 212.83 130.64 212.34C128.28 210.9 127.54 207.82 128.98 205.47L132.25 200.12C133.69 197.76 136.77 197.02 139.12 198.46C141.48 199.9 142.22 202.98 140.78 205.33L137.51 210.68C136.57 212.22 134.92 213.07 133.24 213.07Z" fill="black"/>
<path d="M124.77 181.269C122.12 180.489 120.6 177.699 121.38 175.049C122.17 172.409 124.95 170.889 127.6 171.669C130.24 172.459 131.76 175.239 130.98 177.879C130.33 180.059 128.34 181.469 126.18 181.469C125.71 181.469 125.24 181.409 124.77 181.269Z" fill="black"/>
<path d="M121.07 183.8C118.98 181.99 118.75 178.83 120.56 176.75C122.37 174.66 125.53 174.43 127.61 176.24C129.7 178.05 129.93 181.21 128.12 183.29C127.13 184.44 125.74 185.02 124.34 185.02C123.18 185.02 122.01 184.62 121.07 183.8Z" fill="black"/>
<path d="M119.77 186.82C117.52 185.21 117 182.09 118.61 179.84C120.21 177.6 123.33 177.08 125.58 178.68C127.83 180.29 128.35 183.41 126.74 185.66C125.77 187.02 124.23 187.75 122.67 187.75C121.66 187.75 120.65 187.45 119.77 186.82Z" fill="black"/>
<path d="M115.69 190.18C113.57 188.4 113.3 185.25 115.08 183.13C116.85 181.02 120.01 180.75 122.12 182.52C124.23 184.3 124.51 187.45 122.73 189.56C121.75 190.74 120.33 191.35 118.9 191.35C117.77 191.35 116.63 190.97 115.69 190.18Z" fill="black"/>
<path d="M111.34 192.739C108.75 191.799 107.41 188.929 108.35 186.329C109.3 183.739 112.17 182.399 114.76 183.339C117.36 184.289 118.7 187.149 117.75 189.749C117.01 191.779 115.1 193.039 113.05 193.039C112.49 193.039 111.91 192.949 111.34 192.739Z" fill="black"/>
<path d="M107.73 191.31C105.61 189.54 105.32 186.39 107.09 184.26C108.85 182.14 112.01 181.85 114.13 183.62C116.25 185.39 116.54 188.54 114.77 190.66C113.78 191.85 112.36 192.46 110.92 192.46C109.8 192.46 108.66 192.08 107.73 191.31Z" fill="black"/>
<path d="M104.89 187.36C103.44 185 104.17 181.92 106.52 180.48C108.87 179.03 111.96 179.76 113.41 182.11C114.85 184.46 114.12 187.54 111.77 188.99C110.95 189.49 110.05 189.73 109.15 189.73C107.47 189.73 105.84 188.89 104.89 187.36Z" fill="black"/>
<path d="M104.08 183.219C103.38 180.549 104.99 177.819 107.66 177.129C110.33 176.429 113.06 178.029 113.75 180.699C114.45 183.379 112.85 186.099 110.17 186.799C109.75 186.909 109.33 186.959 108.91 186.959C106.69 186.959 104.66 185.469 104.08 183.219Z" fill="black"/>
<path d="M103.2 179.85C102.5 177.18 104.09 174.45 106.76 173.75C109.44 173.05 112.17 174.65 112.87 177.32C113.57 179.99 111.97 182.72 109.3 183.42C108.87 183.53 108.45 183.59 108.03 183.59C105.81 183.59 103.78 182.1 103.2 179.85Z" fill="black"/>
<path d="M105.75 176.959C103.1 176.159 101.61 173.369 102.4 170.729C103.2 168.089 105.98 166.589 108.63 167.389C111.27 168.179 112.77 170.969 111.98 173.609C111.32 175.779 109.34 177.169 107.19 177.169C106.71 177.169 106.23 177.099 105.75 176.959Z" fill="black"/>
<path d="M101.73 170.729C101.12 168.039 102.8 165.359 105.5 164.749C108.19 164.129 110.87 165.819 111.48 168.509C112.1 171.199 110.41 173.879 107.72 174.489C107.34 174.579 106.97 174.619 106.6 174.619C104.32 174.619 102.26 173.049 101.73 170.729Z" fill="black"/>
<path d="M101.67 168.12C99.9602 165.96 100.33 162.81 102.49 161.1C104.66 159.39 107.81 159.75 109.52 161.92C111.23 164.08 110.87 167.23 108.7 168.94C107.78 169.67 106.69 170.02 105.6 170.02C104.12 170.02 102.66 169.37 101.67 168.12Z" fill="black"/>
<path d="M102.93 168.08C100.3 167.23 98.86 164.41 99.71 161.78C100.55 159.16 103.37 157.72 106 158.56C108.63 159.41 110.07 162.23 109.22 164.86C108.54 166.98 106.58 168.32 104.47 168.32C103.96 168.32 103.44 168.24 102.93 168.08Z" fill="black"/>
<path d="M99.1998 164.469C97.4298 162.349 97.7098 159.199 99.8298 157.429C101.95 155.659 105.1 155.939 106.87 158.059C108.64 160.179 108.36 163.329 106.24 165.099C105.3 165.879 104.17 166.259 103.04 166.259C101.61 166.259 100.19 165.649 99.1998 164.469Z" fill="black"/>
<path d="M90.9401 158.639C90.8701 155.879 93.0501 153.579 95.8001 153.509C98.5701 153.439 100.86 155.619 100.94 158.379C101.01 161.139 98.8301 163.439 96.0701 163.509H95.9301C93.2301 163.509 91.0101 161.359 90.9401 158.639Z" fill="black"/>
<path d="M86.1096 158.71C86.0496 155.95 88.2396 153.67 90.9996 153.61C93.7596 153.56 96.0496 155.75 96.0996 158.51C96.1596 161.27 93.9696 163.55 91.2096 163.61H91.0996C88.3896 163.61 86.1596 161.44 86.1096 158.71Z" fill="black"/>
<path d="M82.0305 160.15C81.3105 157.48 82.8905 154.74 85.5505 154.02C88.2205 153.3 90.9605 154.88 91.6905 157.54C92.4005 160.21 90.8305 162.96 88.1605 163.68C87.7205 163.79 87.2905 163.85 86.8605 163.85C84.6505 163.85 82.6305 162.38 82.0305 160.15Z" fill="black"/>
<path d="M79.6699 159.861C79.1799 157.141 80.9899 154.541 83.7099 154.051C86.4199 153.561 89.0299 155.371 89.5199 158.091C90.0099 160.801 88.1999 163.401 85.4799 163.891C85.1799 163.951 84.8799 163.971 84.5899 163.971C82.2199 163.971 80.1099 162.281 79.6699 159.861Z" fill="black"/>
<path d="M72.9896 165.141C70.2696 164.661 68.4496 162.071 68.9196 159.351C69.3996 156.631 71.9796 154.811 74.6996 155.281C77.4296 155.761 79.2496 158.351 78.7696 161.071C78.3496 163.501 76.2396 165.211 73.8496 165.211C73.5696 165.211 73.2796 165.191 72.9896 165.141Z" fill="black"/>
<path d="M65.8103 162.07C63.5803 160.44 63.1103 157.31 64.7403 155.08C66.3803 152.86 69.5103 152.38 71.7303 154.02C73.9503 155.65 74.4303 158.78 72.8003 161C71.8203 162.34 70.3003 163.05 68.7703 163.04C67.7403 163.04 66.7003 162.73 65.8103 162.07Z" fill="black"/>
<path d="M60.2798 156.711C60.0598 153.961 62.1198 151.551 64.8698 151.331C67.6198 151.111 70.0298 153.171 70.2498 155.921C70.4698 158.671 68.4098 161.081 65.6598 161.301C65.5198 161.311 65.3898 161.311 65.2598 161.311C62.6698 161.311 60.4898 159.331 60.2798 156.711Z" fill="black"/>
<path d="M60.2099 159.001C58.1499 157.171 57.9599 154.011 59.7899 151.951C61.6299 149.881 64.7899 149.691 66.8499 151.531C68.9099 153.361 69.0999 156.521 67.2699 158.591C66.2799 159.701 64.9099 160.271 63.5299 160.271C62.3499 160.271 61.1599 159.851 60.2099 159.001Z" fill="black"/>
<path d="M57.86 156.939C55.78 155.119 55.57 151.959 57.39 149.879C59.21 147.809 62.37 147.599 64.45 149.419C66.52 151.239 66.73 154.399 64.91 156.479C63.92 157.599 62.54 158.179 61.15 158.179C59.98 158.179 58.8 157.769 57.86 156.939Z" fill="black"/>
<path d="M59.3902 155.611C56.7902 154.701 55.4202 151.841 56.3302 149.241C57.2502 146.631 60.1002 145.261 62.7102 146.181C65.3102 147.091 66.6802 149.941 65.7702 152.551C65.0502 154.611 63.1102 155.891 61.0502 155.891C60.5002 155.891 59.9402 155.801 59.3902 155.611Z" fill="black"/>
<path d="M62.0504 147.7C60.7604 145.26 61.7004 142.23 64.1404 140.95C66.5804 139.66 69.6104 140.6 70.9004 143.04C72.1804 145.48 71.2404 148.51 68.8004 149.8C68.0604 150.19 67.2604 150.37 66.4804 150.37C64.6804 150.37 62.9404 149.4 62.0504 147.7Z" fill="black"/>
<path d="M68.2401 143.891C67.0901 141.381 68.1901 138.411 70.7001 137.261C73.2101 136.111 76.1801 137.211 77.3301 139.721C78.4801 142.231 77.3801 145.201 74.8701 146.351C74.2001 146.661 73.4901 146.811 72.7901 146.811C70.9001 146.811 69.0801 145.731 68.2401 143.891Z" fill="black"/>
<path d="M73.3396 140.32C72.7196 137.63 74.3996 134.94 77.0896 134.32C79.7796 133.71 82.4696 135.39 83.0896 138.08C83.6996 140.77 82.0296 143.45 79.3296 144.07C78.9496 144.16 78.5796 144.2 78.2096 144.2C75.9296 144.2 73.8696 142.63 73.3396 140.32Z" fill="black"/>
<path d="M78.5401 139.121C77.9301 136.431 79.6101 133.751 82.3001 133.131C84.9901 132.511 87.6701 134.191 88.2901 136.891C88.9101 139.581 87.2301 142.261 84.5401 142.881C84.1601 142.961 83.7801 143.001 83.4101 143.001C81.1301 143.001 79.0701 141.441 78.5401 139.121Z" fill="black"/>
<path d="M81.9802 138.011C81.7802 135.251 83.8402 132.861 86.6002 132.651C89.3502 132.461 91.7502 134.521 91.9502 137.281C92.1502 140.031 90.0802 142.431 87.3302 142.631C87.2002 142.641 87.0802 142.641 86.9502 142.641C84.3602 142.641 82.1702 140.641 81.9802 138.011Z" fill="black"/>
<path d="M88.74 137.51C88.54 134.76 90.6 132.36 93.36 132.16C96.11 131.96 98.51 134.03 98.71 136.78C98.91 139.53 96.84 141.93 94.09 142.13C93.97 142.14 93.84 142.15 93.72 142.15C91.12 142.15 88.93 140.14 88.74 137.51Z" fill="black"/>
<path d="M95.5403 137.13C95.5103 134.36 97.7303 132.1 100.49 132.08C103.25 132.05 105.51 134.27 105.54 137.03C105.57 139.79 103.35 142.05 100.59 142.07H100.54C97.8003 142.07 95.5703 139.87 95.5403 137.13Z" fill="black"/>
<path d="M101.9 142.379C101.01 142.279 100.64 142.149 100.34 142.089C97.6404 141.479 95.9604 138.799 96.5704 136.109C97.1804 133.419 99.8604 131.729 102.56 132.339C102.7 132.379 102.82 132.399 102.89 132.419C102.89 132.419 102.92 132.429 102.93 132.429C105.61 132.739 107.57 135.139 107.33 137.839C107.1 140.439 104.91 142.399 102.35 142.399C102.2 142.399 102.05 142.399 101.9 142.379Z" fill="black"/>
<path d="M104.87 143.1C102.26 142.21 100.85 139.38 101.73 136.76C102.62 134.14 105.45 132.74 108.07 133.62C110.69 134.51 112.09 137.34 111.21 139.96C110.5 142.04 108.56 143.36 106.47 143.36C105.94 143.36 105.4 143.28 104.87 143.1Z" fill="black"/>
<path d="M108.47 144.16C106.02 142.89 105.06 139.88 106.32 137.42C107.59 134.97 110.6 134 113.06 135.27C115.51 136.54 116.48 139.55 115.21 142.01C114.32 143.73 112.57 144.71 110.76 144.71C109.99 144.71 109.2 144.54 108.47 144.16Z" fill="black"/>
<path d="M111.24 145.579C108.78 144.319 107.82 141.299 109.08 138.849C110.35 136.389 113.36 135.429 115.82 136.699C118.27 137.959 119.24 140.969 117.97 143.429C117.09 145.149 115.34 146.139 113.52 146.139C112.75 146.139 111.97 145.959 111.24 145.579Z" fill="black"/>
<path d="M111.93 146.4C109.93 144.5 109.84 141.34 111.74 139.34C113.64 137.33 116.81 137.24 118.81 139.14C120.82 141.04 120.9 144.21 119 146.21C118.02 147.25 116.7 147.77 115.37 147.77C114.14 147.77 112.9 147.32 111.93 146.4Z" fill="black"/>
<path d="M114.33 148.64C112.31 146.75 112.21 143.59 114.1 141.58C115.99 139.56 119.16 139.46 121.17 141.35C123.18 143.24 123.28 146.41 121.39 148.42C120.41 149.47 119.08 150 117.75 150C116.52 150 115.29 149.55 114.33 148.64Z" fill="black"/>
<path d="M115.95 149.87C114.22 147.72 114.56 144.57 116.71 142.84C118.86 141.11 122.01 141.45 123.74 143.6C125.47 145.75 125.13 148.9 122.98 150.63C122.05 151.37 120.95 151.73 119.85 151.73C118.38 151.73 116.94 151.1 115.95 149.87Z" fill="black"/>
<path d="M117.81 152.17C116.07 150.02 116.41 146.88 118.55 145.14C120.7 143.4 123.85 143.73 125.59 145.88C127.32 148.03 126.99 151.18 124.84 152.91C123.92 153.66 122.8 154.03 121.7 154.03C120.24 154.03 118.8 153.39 117.81 152.17Z" fill="black"/>
<path d="M119.13 154.09C117.72 151.71 118.51 148.65 120.89 147.24C123.26 145.83 126.33 146.62 127.74 149C129.14 151.38 128.35 154.44 125.98 155.85C125.18 156.32 124.3 156.55 123.44 156.55C121.73 156.55 120.06 155.67 119.13 154.09Z" fill="black"/>
<path d="M120.52 156.431C119.11 154.051 119.88 150.991 122.25 149.571C124.62 148.151 127.69 148.931 129.11 151.301C130.52 153.671 129.75 156.741 127.38 158.151C126.57 158.631 125.69 158.861 124.82 158.861C123.12 158.861 121.46 157.991 120.52 156.431Z" fill="black"/>
<path d="M121.5 158.09C120.45 155.54 121.66 152.61 124.21 151.56C126.76 150.5 129.68 151.72 130.74 154.27C131.8 156.82 130.58 159.74 128.03 160.8C127.41 161.06 126.76 161.18 126.12 161.18C124.16 161.18 122.3 160.02 121.5 158.09Z" fill="black"/>
<path d="M128.05 172.88C125.29 172.82 123.1 170.54 123.15 167.78C123.21 165.02 125.49 162.82 128.25 162.88C131.01 162.94 133.2 165.22 133.15 167.98C133.09 170.71 130.87 172.88 128.15 172.88H128.05Z" fill="black"/>
<path d="M126.19 181.47C125.82 181.47 125.45 181.43 125.07 181.34C122.38 180.73 120.69 178.05 121.31 175.35L123.27 166.76C123.88 164.07 126.56 162.39 129.26 163C131.95 163.61 133.64 166.29 133.02 168.99L131.06 177.58C130.53 179.9 128.47 181.47 126.19 181.47Z" fill="black"/>
<path d="M228.19 137.529C228.19 134.769 230.43 132.529 233.19 132.529C235.96 132.529 238.19 134.769 238.19 137.529C238.19 140.289 235.96 142.529 233.19 142.529C230.43 142.529 228.19 140.289 228.19 137.529Z" fill="black"/>
<path d="M230.24 142.91C227.82 141.58 226.93 138.54 228.26 136.12L228.54 135.62C229.87 133.2 232.9 132.32 235.33 133.64C237.75 134.97 238.63 138.02 237.3 140.43L237.03 140.93C236.12 142.59 234.41 143.53 232.64 143.53C231.83 143.53 231 143.33 230.24 142.91Z" fill="black"/>
<path d="M230.35 146.609C227.66 145.969 226 143.269 226.64 140.589C227.28 137.899 229.98 136.239 232.66 136.879C235.35 137.519 237.01 140.209 236.37 142.899C235.82 145.199 233.77 146.749 231.51 146.749C231.13 146.749 230.74 146.699 230.35 146.609Z" fill="black"/>
<path d="M223.68 146.19C222.32 143.79 223.16 140.74 225.56 139.37C227.96 138.01 231.01 138.85 232.38 141.25C233.74 143.65 232.9 146.7 230.5 148.07C229.72 148.51 228.87 148.72 228.03 148.72C226.29 148.72 224.6 147.81 223.68 146.19Z" fill="black"/>
<path d="M220.94 147.839C219.55 145.449 220.37 142.389 222.76 140.999C225.14 139.609 228.2 140.429 229.59 142.819C230.98 145.199 230.16 148.259 227.78 149.649C226.99 150.109 226.12 150.329 225.27 150.329C223.55 150.329 221.87 149.429 220.94 147.839Z" fill="black"/>
<path d="M218.12 147.729C217.31 145.089 218.79 142.289 221.43 141.479C224.06 140.669 226.86 142.149 227.67 144.789C228.49 147.429 227 150.229 224.36 151.039C223.87 151.189 223.38 151.269 222.89 151.269C220.76 151.269 218.78 149.879 218.12 147.729Z" fill="black"/>
<path d="M212.76 149.219C211.49 146.769 212.44 143.749 214.89 142.479C217.34 141.209 220.36 142.159 221.63 144.609C222.9 147.059 221.95 150.079 219.5 151.349C218.76 151.739 217.98 151.919 217.2 151.919C215.4 151.919 213.65 150.929 212.76 149.219Z" fill="black"/>
<path d="M206.38 146.92C206.38 144.15 208.61 141.91 211.37 141.91C214.14 141.91 216.38 144.15 216.38 146.92C216.38 149.68 214.14 151.92 211.37 151.92C208.61 151.92 206.38 149.68 206.38 146.92Z" fill="black"/>
<path d="M204.99 149.77C202.46 148.65 201.33 145.69 202.45 143.17C203.58 140.64 206.53 139.51 209.05 140.63C211.58 141.75 212.71 144.71 211.59 147.23C210.76 149.09 208.93 150.2 207.02 150.2C206.34 150.2 205.65 150.06 204.99 149.77Z" fill="black"/>
<path d="M198.72 147.179C196.41 145.659 195.78 142.559 197.29 140.249C198.81 137.939 201.91 137.299 204.22 138.819C206.52 140.339 207.16 143.439 205.65 145.749C204.68 147.209 203.09 147.999 201.46 147.999C200.52 147.999 199.57 147.729 198.72 147.179Z" fill="black"/>
<path d="M194.28 144.529C191.93 143.089 191.19 140.009 192.63 137.659C194.08 135.299 197.16 134.569 199.51 136.009C201.87 137.449 202.6 140.529 201.16 142.889C200.21 144.419 198.57 145.269 196.89 145.269C196 145.269 195.1 145.029 194.28 144.529Z" fill="black"/>
<path d="M190.56 142.251C188.21 140.811 187.48 137.731 188.92 135.371C190.37 133.021 193.45 132.281 195.8 133.731C198.15 135.171 198.89 138.251 197.44 140.611C196.5 142.141 194.86 142.991 193.18 142.991C192.28 142.991 191.38 142.751 190.56 142.251Z" fill="black"/>
<path d="M186.6 139.99C184.2 138.62 183.36 135.57 184.73 133.17C186.1 130.77 189.15 129.94 191.55 131.3C193.95 132.67 194.79 135.72 193.42 138.12C192.5 139.74 190.81 140.65 189.07 140.65C188.23 140.65 187.38 140.44 186.6 139.99Z" fill="black"/>
<path d="M180.99 136.88C178.54 135.6 177.58 132.59 178.86 130.14C180.13 127.68 183.15 126.73 185.6 128C188.05 129.27 189 132.28 187.73 134.74C186.84 136.45 185.1 137.44 183.29 137.44C182.52 137.44 181.73 137.26 180.99 136.88Z" fill="black"/>
<path d="M177.16 134.89C174.71 133.62 173.75 130.61 175.02 128.15C176.29 125.7 179.31 124.74 181.76 126.01C184.21 127.28 185.17 130.3 183.9 132.75C183.01 134.47 181.27 135.45 179.46 135.45C178.68 135.45 177.9 135.27 177.16 134.89Z" fill="black"/>
<path d="M171.14 131.88C168.67 130.64 167.66 127.64 168.9 125.17C170.14 122.7 173.14 121.7 175.61 122.93C178.08 124.17 179.08 127.17 177.84 129.64C176.97 131.39 175.2 132.41 173.37 132.41C172.62 132.41 171.85 132.24 171.14 131.88Z" fill="black"/>
<path d="M166.75 129.77C164.26 128.57 163.21 125.58 164.41 123.09C165.61 120.6 168.6 119.56 171.09 120.75C173.57 121.95 174.62 124.94 173.42 127.43C172.56 129.22 170.77 130.26 168.91 130.26C168.18 130.26 167.44 130.1 166.75 129.77Z" fill="black"/>
<path d="M163.81 128.54C161.24 127.53 159.97 124.63 160.98 122.06C161.99 119.49 164.89 118.22 167.47 119.23C170.03 120.24 171.3 123.14 170.29 125.71C169.52 127.68 167.63 128.89 165.64 128.89C165.03 128.89 164.41 128.77 163.81 128.54Z" fill="black"/>
<path d="M159.16 126.72C156.59 125.72 155.32 122.82 156.32 120.24C157.33 117.67 160.23 116.4 162.8 117.41C165.37 118.41 166.64 121.31 165.64 123.89C164.86 125.86 162.98 127.07 160.98 127.07C160.37 127.07 159.76 126.95 159.16 126.72Z" fill="black"/>
<path d="M155.76 125.059C153.27 123.859 152.23 120.869 153.43 118.379C154.63 115.889 157.62 114.849 160.11 116.049C162.59 117.249 163.63 120.229 162.44 122.719C161.57 124.509 159.79 125.549 157.93 125.549C157.2 125.549 156.46 125.389 155.76 125.059Z" fill="black"/>
<path d="M146.01 119.84C143.71 118.32 143.08 115.22 144.6 112.91C146.12 110.61 149.23 109.98 151.53 111.5C153.84 113.02 154.46 116.13 152.94 118.43C151.98 119.88 150.39 120.67 148.77 120.67C147.82 120.67 146.86 120.4 146.01 119.84Z" fill="black"/>
<path d="M143.27 117.99C141.15 116.23 140.87 113.07 142.64 110.95C144.41 108.83 147.56 108.55 149.68 110.32C151.8 112.09 152.09 115.24 150.32 117.36C149.33 118.54 147.91 119.16 146.47 119.16C145.34 119.16 144.21 118.77 143.27 117.99Z" fill="black"/>
<path d="M142.09 117.131C139.52 116.131 138.24 113.231 139.24 110.661C140.23 108.081 143.13 106.811 145.7 107.801C148.28 108.801 149.56 111.701 148.56 114.271C147.79 116.251 145.9 117.471 143.9 117.471C143.3 117.471 142.68 117.361 142.09 117.131Z" fill="black"/>
<path d="M138.52 114.501C136.13 113.131 135.3 110.071 136.68 107.681C138.05 105.281 141.11 104.461 143.5 105.831C145.9 107.211 146.72 110.271 145.35 112.661C144.42 114.271 142.74 115.171 141.01 115.171C140.16 115.171 139.31 114.961 138.52 114.501Z" fill="black"/>
<path d="M132.89 110.439C130.78 108.669 130.5 105.519 132.27 103.399C134.05 101.279 137.2 101.009 139.32 102.779C141.43 104.549 141.71 107.709 139.94 109.819C138.95 110.999 137.53 111.609 136.1 111.609C134.97 111.609 133.83 111.229 132.89 110.439Z" fill="black"/>
<path d="M130.52 108.461C128.4 106.691 128.11 103.541 129.88 101.421C131.65 99.3006 134.8 99.0106 136.93 100.781C139.04 102.551 139.33 105.701 137.56 107.831C136.57 109.011 135.15 109.621 133.72 109.621C132.59 109.621 131.45 109.241 130.52 108.461Z" fill="black"/>
<path d="M129.11 107.58C126.8 106.07 126.16 102.97 127.67 100.66C129.18 98.3503 132.28 97.7003 134.59 99.2203C136.9 100.73 137.55 103.83 136.04 106.14C135.07 107.6 133.48 108.4 131.85 108.4C130.91 108.4 129.96 108.13 129.11 107.58Z" fill="black"/>
<path d="M119.38 96.9191C117.76 94.6791 118.27 91.5491 120.51 89.9391C122.75 88.3191 125.87 88.8191 127.49 91.0591C129.1 93.2991 128.6 96.4291 126.36 98.0391C125.48 98.6791 124.45 98.9891 123.44 98.9891C121.89 98.9891 120.36 98.2691 119.38 96.9191Z" fill="black"/>
<path d="M117.45 94.2492C115.84 92.0192 116.34 88.8892 118.57 87.2692C120.81 85.6492 123.93 86.1492 125.55 88.3892C127.17 90.6292 126.67 93.7492 124.43 95.3692C123.55 96.0092 122.53 96.3192 121.51 96.3192C119.96 96.3192 118.43 95.5992 117.45 94.2492Z" fill="black"/>
<path d="M113.48 86.9691C112.32 84.4591 113.41 81.4891 115.92 80.3291C118.42 79.1691 121.4 80.2591 122.55 82.7691C123.72 85.2691 122.63 88.2391 120.12 89.3991C119.44 89.7191 118.73 89.8691 118.02 89.8691C116.13 89.8691 114.33 88.7891 113.48 86.9691Z" fill="black"/>
<path d="M112.1 82.2598C112.1 79.4998 114.34 77.2598 117.1 77.2598C119.86 77.2598 122.1 79.4998 122.1 82.2598C122.1 85.0198 119.86 87.2598 117.1 87.2598C114.34 87.2598 112.1 85.0198 112.1 82.2598Z" fill="black"/>
<path d="M111.02 80.5099C110.18 77.8699 111.65 75.0699 114.28 74.2299C116.92 73.3999 119.72 74.8699 120.55 77.4999C121.38 80.1299 119.92 82.9399 117.29 83.7699C116.79 83.9299 116.28 83.9999 115.78 83.9999C113.66 83.9999 111.69 82.6399 111.02 80.5099Z" fill="black"/>
<path d="M109.5 72.1496C108.86 69.4596 110.52 66.7696 113.21 66.1296C115.9 65.4996 118.59 67.1596 119.23 69.8496C119.86 72.5396 118.2 75.2296 115.51 75.8596C115.12 75.9596 114.74 75.9996 114.35 75.9996C112.09 75.9996 110.04 74.4496 109.5 72.1496Z" fill="black"/>
<path d="M108.79 66.9694C108.49 64.2294 110.48 61.7594 113.23 61.4694C115.97 61.1694 118.44 63.1594 118.73 65.8994C119.03 68.6494 117.04 71.1094 114.3 71.4094C114.11 71.4294 113.93 71.4394 113.75 71.4394C111.23 71.4394 109.06 69.5394 108.79 66.9694Z" fill="black"/>
<path d="M114.35 62.6001C111.59 62.5201 109.43 60.2101 109.52 57.4501C109.61 54.6901 111.92 52.5201 114.68 52.6101C117.44 52.7001 119.61 55.0101 119.52 57.7701C119.43 60.4801 117.21 62.6101 114.53 62.6101C114.47 62.6101 114.41 62.6101 114.35 62.6101V62.6001Z" fill="black"/>
<path d="M112.76 54.1691C110.03 53.7291 108.18 51.1691 108.62 48.4391C109.05 45.7091 111.62 43.8591 114.35 44.2991C117.07 44.7391 118.93 47.3091 118.49 50.0291C118.09 52.4891 115.97 54.2391 113.56 54.2391C113.29 54.2391 113.03 54.2191 112.76 54.1691Z" fill="black"/>
<path d="M113.61 48.87C110.89 48.43 109.03 45.87 109.47 43.14C109.91 40.42 112.47 38.56 115.2 39C117.93 39.44 119.78 42.01 119.34 44.73C118.95 47.19 116.82 48.94 114.41 48.94C114.15 48.94 113.88 48.92 113.61 48.87Z" fill="black"/>
<path d="M113.72 45.6804C111.09 44.8404 109.64 42.0204 110.48 39.3904C111.33 36.7704 114.15 35.3204 116.78 36.1604C119.4 37.0104 120.85 39.8204 120 42.4504C119.32 44.5704 117.36 45.9204 115.25 45.9204C114.74 45.9204 114.22 45.8504 113.72 45.6804Z" fill="black"/>
<path d="M114.48 43.3003C111.85 42.4503 110.41 39.6303 111.25 37.0103C112.1 34.3803 114.92 32.9303 117.55 33.7803C120.18 34.6303 121.62 37.4503 120.77 40.0703C120.09 42.1903 118.13 43.5403 116.01 43.5403C115.51 43.5403 114.99 43.4603 114.48 43.3003Z" fill="black"/>
<path d="M115.3 39.5704C112.78 38.4404 111.65 35.4804 112.78 32.9604C113.91 30.4404 116.87 29.3104 119.39 30.4404C121.9 31.5704 123.03 34.5304 121.9 37.0504C121.07 38.9004 119.25 40.0104 117.34 40.0104C116.66 40.0104 115.96 39.8604 115.3 39.5704Z" fill="black"/>
<path d="M116.99 30.9101C115.09 28.9001 115.18 25.7401 117.18 23.8401C119.19 21.9401 122.35 22.0301 124.25 24.0301C126.15 26.0401 126.06 29.2001 124.06 31.1001C123.09 32.0201 121.86 32.4701 120.62 32.4701C119.3 32.4701 117.97 31.9501 116.99 30.9101Z" fill="black"/>
<path d="M120.02 26.5996C117.77 24.9896 117.26 21.8696 118.86 19.6196C120.47 17.3796 123.59 16.8596 125.84 18.4596C128.08 20.0696 128.6 23.1896 127 25.4396C126.02 26.8096 124.49 27.5296 122.93 27.5296C121.92 27.5296 120.9 27.2296 120.02 26.5996Z" fill="black"/>
<path d="M123.55 23.2497C121.12 21.9297 120.22 18.8997 121.54 16.4697C122.86 14.0497 125.89 13.1397 128.32 14.4597C130.75 15.7797 131.65 18.8097 130.33 21.2397C129.43 22.9097 127.71 23.8597 125.93 23.8597C125.13 23.8597 124.31 23.6597 123.55 23.2497Z" fill="black"/>
<path d="M124.69 17.6905C123.17 15.3805 123.81 12.2805 126.11 10.7605C128.42 9.2405 131.52 9.8805 133.04 12.1905C134.56 14.4905 133.92 17.6005 131.61 19.1105C130.76 19.6705 129.81 19.9405 128.87 19.9405C127.24 19.9405 125.65 19.1505 124.69 17.6905Z" fill="black"/>
<path d="M129.36 14.0309C127.31 12.1809 127.14 9.02091 128.99 6.97091C130.84 4.92091 134 4.75091 136.05 6.60091C138.1 8.45091 138.27 11.6109 136.42 13.6709C135.43 14.7609 134.07 15.3209 132.7 15.3209C131.51 15.3209 130.31 14.9009 129.36 14.0309Z" fill="black"/>
<path d="M130.04 9.6499C129.18 7.0299 130.61 4.1999 133.23 3.3399C135.85 2.4799 138.68 3.9099 139.54 6.5299C140.4 9.1599 138.97 11.9799 136.35 12.8399C135.83 13.0099 135.3 13.0899 134.79 13.0899C132.68 13.0899 130.73 11.7599 130.04 9.6499Z" fill="black"/>
<path d="M136.36 6.32007C136.01 3.59007 137.95 1.08007 140.69 0.730069C143.43 0.390069 145.93 2.33007 146.28 5.07007C146.63 7.81007 144.69 10.3101 141.95 10.6601C141.74 10.6801 141.52 10.7001 141.32 10.7001C138.83 10.7001 136.68 8.85007 136.36 6.32007Z" fill="black"/>
<path d="M141.71 9.71001C139.29 8.38001 138.41 5.34001 139.74 2.92001C141.08 0.500014 144.12 -0.379986 146.54 0.950014C148.95 2.28001 149.84 5.33001 148.51 7.74001C147.59 9.40001 145.88 10.34 144.12 10.33C143.3 10.33 142.48 10.14 141.71 9.71001Z" fill="black"/>
<path d="M144.33 11.9401C142.93 9.56007 143.73 6.49007 146.11 5.10007C148.5 3.70007 151.56 4.49007 152.96 6.88007C154.36 9.26007 153.56 12.3201 151.18 13.7201C150.38 14.1901 149.51 14.4101 148.65 14.4101C146.94 14.4101 145.26 13.5201 144.33 11.9401Z" fill="black"/>
<path d="M145.38 13.7207C143.98 11.3307 144.78 8.27067 147.17 6.88067C149.55 5.48067 152.61 6.28067 154.01 8.67067C155.4 11.0507 154.6 14.1107 152.22 15.5107C151.42 15.9707 150.55 16.1907 149.7 16.1907C147.98 16.1907 146.31 15.3107 145.38 13.7207Z" fill="black"/>
<path d="M148.34 18.3103C145.65 17.7003 143.96 15.0203 144.57 12.3303C145.18 9.63031 147.85 7.94031 150.55 8.55031C153.24 9.16031 154.93 11.8403 154.32 14.5303C153.8 16.8503 151.73 18.4303 149.45 18.4303C149.08 18.4303 148.71 18.3903 148.34 18.3103Z" fill="black"/>
<path d="M147.92 21.9092C145.27 21.1092 143.78 18.3092 144.59 15.6692C145.39 13.0292 148.18 11.5392 150.82 12.3392C153.46 13.1392 154.96 15.9292 154.15 18.5792C153.5 20.7292 151.52 22.1192 149.37 22.1192C148.89 22.1192 148.4 22.0492 147.92 21.9092Z" fill="black"/>
<path d="M147.65 24.3203C144.9 24.0603 142.88 21.6303 143.13 18.8803C143.39 16.1303 145.82 14.1003 148.58 14.3603C151.32 14.6203 153.35 17.0603 153.09 19.8103C152.85 22.4003 150.67 24.3403 148.12 24.3403C147.96 24.3403 147.8 24.3403 147.65 24.3203Z" fill="black"/>
<path d="M143.15 26.6306C141.09 24.8006 140.9 21.6406 142.74 19.5706C144.57 17.5106 147.73 17.3306 149.8 19.1606C151.86 21.0006 152.05 24.1606 150.21 26.2206C149.22 27.3306 147.85 27.9006 146.47 27.9006C145.29 27.9006 144.1 27.4806 143.15 26.6306Z" fill="black"/>
<path d="M142.65 29.1297C140.38 27.5497 139.83 24.4397 141.4 22.1697C142.98 19.9097 146.1 19.3497 148.37 20.9297C150.63 22.4997 151.19 25.6197 149.61 27.8897C148.64 29.2797 147.09 30.0297 145.51 30.0297C144.52 30.0297 143.52 29.7397 142.65 29.1297Z" fill="black"/>
<path d="M140.61 32.17C138.33 30.61 137.75 27.5 139.32 25.22C140.88 22.94 143.99 22.36 146.27 23.93C148.54 25.49 149.12 28.6 147.56 30.88C146.59 32.29 145.02 33.05 143.43 33.05C142.46 33.05 141.47 32.76 140.61 32.17Z" fill="black"/>
<path d="M136.88 37.3193C134.62 35.7193 134.09 32.5993 135.68 30.3493C137.28 28.0993 140.4 27.5593 142.65 29.1593C144.91 30.7493 145.44 33.8793 143.84 36.1293C142.87 37.5093 141.33 38.2393 139.76 38.2393C138.76 38.2393 137.75 37.9393 136.88 37.3193Z" fill="black"/>
<path d="M136.26 40.7391C133.68 39.7391 132.4 36.8491 133.39 34.2691C134.38 31.6891 137.27 30.4091 139.85 31.3991C142.43 32.3891 143.71 35.2891 142.72 37.8591C141.96 39.8491 140.06 41.0691 138.05 41.0691C137.46 41.0691 136.85 40.9591 136.26 40.7391Z" fill="black"/>
<path d="M134.89 44.2304C132.31 43.2404 131.04 40.3404 132.04 37.7704C133.03 35.1904 135.93 33.9104 138.51 34.9104C141.08 35.9104 142.36 38.8104 141.36 41.3804C140.59 43.3604 138.7 44.5804 136.7 44.5804C136.09 44.5804 135.48 44.4704 134.89 44.2304Z" fill="black"/>
<path d="M134.55 54.7305C131.79 54.7305 129.55 52.4905 129.56 49.7305C129.56 46.9705 131.8 44.7305 134.56 44.7305C137.32 44.7305 139.56 46.9805 139.56 49.7405C139.55 52.5005 137.31 54.7305 134.55 54.7305Z" fill="black"/>
<path d="M134.5 73.711C131.74 73.711 129.51 71.461 129.52 68.701C129.52 65.931 131.76 63.701 134.52 63.711C137.29 63.711 139.52 65.961 139.51 68.721C139.51 71.481 137.27 73.711 134.51 73.711H134.5Z" fill="black"/>
<path d="M130.24 74.4796C129.53 71.8196 131.12 69.0796 133.79 68.3696C136.46 67.6596 139.2 69.2596 139.9 71.9296C140.61 74.5896 139.02 77.3296 136.35 78.0396C135.92 78.1496 135.49 78.2096 135.07 78.2096C132.85 78.2096 130.83 76.7296 130.24 74.4796Z" fill="black"/>
<path d="M131.25 78.3293C130.54 75.6593 132.14 72.9193 134.81 72.2193C137.48 71.5093 140.21 73.1093 140.92 75.7793C141.63 78.4393 140.03 81.1793 137.36 81.8893C136.94 81.9993 136.51 82.0493 136.08 82.0493C133.87 82.0493 131.84 80.5693 131.25 78.3293Z" fill="black"/>
<path d="M133.95 84.3401C132.64 81.9101 133.54 78.8701 135.98 77.5601C138.4 76.2501 141.44 77.1601 142.75 79.5901C144.06 82.0201 143.15 85.0501 140.72 86.3601C139.97 86.7701 139.16 86.9601 138.35 86.9601C136.58 86.9601 134.85 86.0101 133.95 84.3401Z" fill="black"/>
<path d="M140.46 91.3896C138.28 89.6896 137.89 86.5496 139.59 84.3696C141.29 82.1896 144.43 81.7996 146.61 83.4996C148.79 85.1996 149.17 88.3396 147.47 90.5196C146.49 91.7796 145.02 92.4396 143.53 92.4396C142.45 92.4396 141.37 92.0996 140.46 91.3896Z" fill="black"/>
<path d="M142.89 93.2094C140.87 91.3194 140.76 88.1594 142.64 86.1394C144.52 84.1194 147.69 84.0094 149.71 85.8894C151.73 87.7794 151.84 90.9394 149.95 92.9594C148.97 94.0194 147.63 94.5494 146.3 94.5494C145.07 94.5494 143.85 94.0994 142.89 93.2094Z" fill="black"/>
<path d="M146.42 96.4207C144.06 94.9807 143.31 91.9107 144.75 89.5507C146.19 87.1907 149.26 86.4407 151.62 87.8807C153.98 89.3207 154.72 92.3907 153.29 94.7507C152.35 96.3007 150.7 97.1507 149.02 97.1507C148.13 97.1507 147.23 96.9107 146.42 96.4207Z" fill="black"/>
<path d="M151.78 100.35C149.74 98.4897 149.6 95.3297 151.46 93.2897C153.32 91.2497 156.49 91.1097 158.53 92.9697C160.56 94.8297 160.71 97.9997 158.84 100.04C157.86 101.11 156.51 101.66 155.15 101.66C153.95 101.66 152.74 101.23 151.78 100.35Z" fill="black"/>
<path d="M157.07 103.839C154.6 102.619 153.59 99.6192 154.81 97.1392C156.04 94.6692 159.04 93.6592 161.51 94.8892C163.99 96.1092 165 99.1092 163.77 101.589C162.9 103.349 161.13 104.369 159.29 104.369C158.54 104.369 157.78 104.199 157.07 103.839Z" fill="black"/>
<path d="M160.28 105.441C157.81 104.211 156.8 101.211 158.02 98.7408C159.25 96.2608 162.25 95.2508 164.72 96.4808C167.2 97.7008 168.21 100.701 166.98 103.181C166.11 104.941 164.34 105.961 162.5 105.961C161.75 105.961 160.99 105.791 160.28 105.441Z" fill="black"/>
<path d="M164.02 107.311C161.44 106.331 160.14 103.441 161.13 100.861C162.11 98.2805 165 96.9905 167.58 97.9705C170.16 98.9505 171.45 101.841 170.47 104.421C169.71 106.421 167.81 107.641 165.8 107.641C165.21 107.641 164.6 107.531 164.02 107.311Z" fill="black"/>
<path d="M167.02 108.459C164.44 107.479 163.15 104.589 164.13 102.009C165.12 99.4291 168.01 98.1291 170.59 99.1191C173.17 100.099 174.46 102.989 173.48 105.569C172.72 107.569 170.82 108.789 168.81 108.789C168.21 108.789 167.61 108.679 167.02 108.459Z" fill="black"/>
<path d="M172.09 110.421C169.51 109.421 168.23 106.531 169.22 103.951C170.22 101.381 173.11 100.091 175.69 101.091C178.26 102.081 179.55 104.971 178.55 107.551C177.79 109.531 175.9 110.751 173.89 110.751C173.29 110.751 172.68 110.641 172.09 110.421Z" fill="black"/>
<path d="M176.23 112.36C173.73 111.2 172.64 108.22 173.81 105.72C174.98 103.22 177.95 102.13 180.46 103.3C182.96 104.47 184.04 107.44 182.88 109.94C182.03 111.76 180.22 112.83 178.34 112.83C177.63 112.83 176.91 112.68 176.23 112.36Z" fill="black"/>
<path d="M184.48 116.19C181.97 115.03 180.89 112.05 182.05 109.55C183.21 107.04 186.18 105.95 188.69 107.12C191.19 108.28 192.28 111.25 191.12 113.76C190.28 115.58 188.47 116.65 186.58 116.65C185.88 116.65 185.16 116.5 184.48 116.19Z" fill="black"/>
<path d="M186.51 117.191C184.03 115.971 183.01 112.971 184.23 110.491C185.45 108.021 188.45 107.001 190.92 108.221C193.4 109.431 194.42 112.431 193.2 114.911C192.33 116.681 190.56 117.701 188.71 117.701C187.97 117.701 187.22 117.541 186.51 117.191Z" fill="black"/>
<path d="M193.55 119.71C191.18 118.28 190.42 115.21 191.85 112.85C193.28 110.48 196.36 109.73 198.72 111.16C201.08 112.59 201.84 115.66 200.41 118.02C199.47 119.58 197.82 120.44 196.13 120.44C195.25 120.44 194.36 120.2 193.55 119.71Z" fill="black"/>
<path d="M200.9 124.161C198.54 122.731 197.78 119.661 199.21 117.291C200.64 114.931 203.72 114.181 206.08 115.601C208.44 117.031 209.2 120.111 207.77 122.471C206.83 124.021 205.18 124.881 203.48 124.881C202.6 124.881 201.71 124.651 200.9 124.161Z" fill="black"/>
<path d="M207.01 128.28C204.45 127.24 203.22 124.33 204.26 121.77C205.3 119.21 208.21 117.98 210.77 119.02C213.33 120.06 214.56 122.97 213.52 125.53C212.74 127.47 210.86 128.65 208.89 128.65C208.26 128.65 207.63 128.53 207.01 128.28Z" fill="black"/>
<path d="M211.85 131.03C209.26 130.09 207.92 127.22 208.86 124.62C209.81 122.03 212.68 120.69 215.27 121.63C217.87 122.58 219.2 125.45 218.26 128.04C217.53 130.07 215.61 131.33 213.56 131.33C213 131.33 212.42 131.24 211.85 131.03Z" fill="black"/>
<path d="M225.54 132.47C223.16 131.07 222.36 128 223.75 125.62C225.15 123.24 228.22 122.44 230.6 123.84C232.98 125.23 233.78 128.3 232.38 130.68C231.45 132.27 229.78 133.15 228.06 133.15C227.21 133.15 226.33 132.93 225.54 132.47Z" fill="black"/>
<path d="M228.93 133.579C226.42 132.419 225.33 129.449 226.49 126.939C227.64 124.439 230.61 123.339 233.12 124.489C235.63 125.649 236.72 128.619 235.57 131.129C234.72 132.959 232.91 134.039 231.02 134.039C230.32 134.039 229.61 133.889 228.93 133.579Z" fill="black"/>
<path d="M228.21 133.74C227.59 133.04 227.41 132.68 227.18 132.34C225.73 129.98 226.46 126.9 228.81 125.45C231.16 124.01 234.24 124.74 235.69 127.08C235.69 127.08 235.74 127.16 235.76 127.19C237.43 129.22 237.24 132.23 235.27 134.03C234.31 134.92 233.1 135.36 231.89 135.36C230.54 135.36 229.2 134.81 228.21 133.74Z" fill="black"/>
<path d="M229.48 135.149L228.83 134.429C226.98 132.379 227.14 129.219 229.19 127.369C231.24 125.519 234.4 125.679 236.25 127.729L236.9 128.449C238.76 130.499 238.59 133.659 236.55 135.509C235.59 136.369 234.39 136.799 233.2 136.799C231.83 136.799 230.47 136.239 229.48 135.149Z" fill="black"/>
<path d="M233.2 142.531C230.44 142.531 228.2 140.301 228.2 137.541V131.811C228.18 129.051 230.42 126.811 233.18 126.801C235.94 126.801 238.18 129.031 238.18 131.791V137.521C238.19 140.281 235.96 142.521 233.2 142.531Z" fill="black"/>
<path d="M191.98 66.4802C189.34 65.6602 187.87 62.8502 188.69 60.2202C189.51 57.5802 192.32 56.1102 194.95 56.9302C197.59 57.7502 199.06 60.5602 198.24 63.1902C197.57 65.3302 195.6 66.7102 193.47 66.7102C192.97 66.7102 192.47 66.6302 191.98 66.4802Z" fill="black"/>
<path d="M191.16 68.0401C188.41 67.8201 186.35 65.4101 186.58 62.6601C186.8 59.9001 189.21 57.8501 191.96 58.0801C194.72 58.3001 196.77 60.7101 196.54 63.4601C196.33 66.0801 194.15 68.0601 191.57 68.0601C191.43 68.0601 191.29 68.0601 191.16 68.0401Z" fill="black"/>
<path d="M187.7 67.0706C186.55 64.5606 187.65 61.5906 190.16 60.4406C192.66 59.2806 195.63 60.3806 196.79 62.8906C197.94 65.4006 196.84 68.3706 194.33 69.5206C193.65 69.8306 192.94 69.9806 192.24 69.9806C190.35 69.9806 188.54 68.9006 187.7 67.0706Z" fill="black"/>
<path d="M183.6 71.9194C182.66 69.3294 183.99 66.4594 186.59 65.5094C189.18 64.5694 192.05 65.9094 193 68.4994C193.94 71.0994 192.6 73.9694 190.01 74.9094C189.44 75.1194 188.87 75.2094 188.3 75.2094C186.26 75.2094 184.34 73.9494 183.6 71.9194Z" fill="black"/>
<path d="M179.55 74.6509C179.06 71.9309 180.86 69.3309 183.58 68.8409C186.3 68.3409 188.9 70.1509 189.39 72.8609C189.88 75.5809 188.09 78.1809 185.37 78.6809C185.06 78.7309 184.76 78.7609 184.47 78.7609C182.1 78.7609 179.99 77.0709 179.55 74.6509Z" fill="black"/>
<path d="M178.01 75.7501C177.19 73.1101 178.67 70.3201 181.31 69.5001L182.15 69.2401C184.79 68.4301 187.59 69.9001 188.41 72.5401C189.22 75.1801 187.74 77.9801 185.11 78.8001L184.26 79.0601C183.77 79.2101 183.27 79.2801 182.79 79.2801C180.65 79.2801 178.67 77.9001 178.01 75.7501Z" fill="black"/>
<path d="M172.7 75.0498C172.58 72.2898 174.73 69.9598 177.49 69.8498C180.25 69.7398 182.57 71.8798 182.69 74.6398C182.8 77.3998 180.66 79.7298 177.9 79.8398C177.83 79.8498 177.76 79.8498 177.69 79.8498C175.02 79.8498 172.81 77.7398 172.7 75.0498Z" fill="black"/>
<path d="M173.89 79.9805C171.22 79.2905 169.6 76.5605 170.29 73.8905C170.98 71.2105 173.7 69.6005 176.38 70.2905C179.05 70.9805 180.67 73.7005 179.98 76.3805C179.4 78.6305 177.37 80.1305 175.14 80.1305C174.73 80.1305 174.31 80.0805 173.89 79.9805Z" fill="black"/>
<path d="M169.15 78.8108C167.48 76.6108 167.91 73.4708 170.1 71.8008C172.3 70.1308 175.44 70.5508 177.11 72.7508C178.78 74.9508 178.36 78.0908 176.16 79.7608C175.25 80.4508 174.19 80.7808 173.13 80.7808C171.63 80.7808 170.14 80.1008 169.15 78.8108Z" fill="black"/>
<path d="M165.23 78.0794C164.52 75.4094 166.1 72.6694 168.76 71.9494C171.43 71.2294 174.17 72.8094 174.89 75.4794C175.61 78.1394 174.03 80.8894 171.36 81.5994C170.93 81.7194 170.49 81.7794 170.06 81.7794C167.85 81.7794 165.84 80.3094 165.23 78.0794Z" fill="black"/>
<path d="M162.36 78.8409C161.64 76.1709 163.23 73.4309 165.89 72.7109C168.56 72.0009 171.3 73.5809 172.02 76.2509C172.73 78.9209 171.15 81.6609 168.48 82.3709C168.05 82.4909 167.61 82.5509 167.18 82.5509C164.98 82.5509 162.96 81.0709 162.36 78.8409Z" fill="black"/>
<path d="M151.36 76.9392C149.6 74.8192 149.89 71.6592 152.02 69.8992C154.14 68.1392 157.3 68.4392 159.06 70.5592C160.82 72.6892 160.53 75.8392 158.4 77.5992C157.47 78.3792 156.34 78.7492 155.21 78.7492C153.77 78.7492 152.35 78.1392 151.36 76.9392Z" fill="black"/>
<path d="M149.23 73.8897C147.65 71.6197 148.21 68.5097 150.48 66.9297C152.74 65.3497 155.86 65.9097 157.44 68.1697C159.01 70.4397 158.46 73.5497 156.19 75.1297C155.32 75.7397 154.32 76.0297 153.34 76.0297C151.76 76.0297 150.2 75.2797 149.23 73.8897Z" fill="black"/>
<path d="M151.97 70.3702C149.26 69.8902 147.44 67.3002 147.91 64.5802C148.39 61.8602 150.99 60.0402 153.71 60.5202C156.43 61.0002 158.24 63.5902 157.76 66.3102C157.34 68.7402 155.23 70.4402 152.84 70.4402C152.56 70.4402 152.27 70.4202 151.97 70.3702Z" fill="black"/>
<path d="M150.89 65.8309C148.6 64.2909 147.99 61.1809 149.54 58.8909C151.08 56.6009 154.19 56.0009 156.48 57.5409C158.77 59.0909 159.37 62.1909 157.83 64.4809C156.86 65.9109 155.29 66.6909 153.68 66.6909C152.72 66.6909 151.74 66.4109 150.89 65.8309Z" fill="black"/>
<path d="M155.53 61.07C152.83 60.48 151.12 57.82 151.71 55.12C152.3 52.42 154.96 50.71 157.66 51.3C160.36 51.89 162.07 54.55 161.48 57.25C160.97 59.59 158.9 61.19 156.6 61.19C156.25 61.19 155.89 61.15 155.53 61.07Z" fill="black"/>
<path d="M151.61 55.1991C151.62 54.8791 151.61 54.4791 151.71 53.8191C151.85 53.1991 151.97 52.0991 153.27 50.7191C155.22 48.7691 158.39 48.7691 160.34 50.7291C161.69 52.0791 162.1 53.9991 161.59 55.7091C161.33 58.2291 159.2 60.1991 156.61 60.1991C153.85 60.1991 151.61 57.9591 151.61 55.1991Z" fill="black"/>
<path d="M155.76 56.0197C153.49 54.4497 152.91 51.3397 154.48 49.0597C156.05 46.7897 159.16 46.2197 161.44 47.7797C163.71 49.3497 164.28 52.4697 162.72 54.7397C161.75 56.1497 160.18 56.8997 158.6 56.8997C157.62 56.8997 156.63 56.6097 155.76 56.0197Z" fill="black"/>
<path d="M157.73 53.1492C155.46 51.5692 154.91 48.4492 156.49 46.1892C158.07 43.9292 161.19 43.3692 163.45 44.9492C165.72 46.5392 166.27 49.6492 164.69 51.9092C163.72 53.3092 162.16 54.0492 160.58 54.0492C159.6 54.0492 158.6 53.7592 157.73 53.1492Z" fill="black"/>
<path d="M158.44 43.8601C156.89 41.5801 157.48 38.4701 159.77 36.9201C162.05 35.3701 165.16 35.9701 166.71 38.2501C168.26 40.5401 167.67 43.6401 165.38 45.2001C164.52 45.7801 163.55 46.0601 162.58 46.0601C160.98 46.0601 159.41 45.2901 158.44 43.8601Z" fill="black"/>
<path d="M160 45.0699C157.25 44.9399 155.12 42.5999 155.25 39.8399C155.38 37.0799 157.73 34.9499 160.49 35.0799C163.25 35.2199 165.37 37.5599 165.24 40.3199C165.11 42.9899 162.9 45.0799 160.25 45.0799C160.17 45.0799 160.09 45.0799 160 45.0799V45.0699Z" fill="black"/>
<path d="M154.58 44.8296C151.82 44.7096 149.69 42.3696 149.82 39.6096C149.94 36.8496 152.28 34.7096 155.04 34.8396C157.8 34.9696 159.93 37.2996 159.8 40.0596C159.68 42.7396 157.47 44.8396 154.81 44.8396C154.74 44.8396 154.66 44.8396 154.58 44.8396V44.8296Z" fill="black"/>
<path d="M147.78 42.8491C145.82 40.8991 145.82 37.7291 147.78 35.7691C149.73 33.8191 152.9 33.8191 154.85 35.7691C156.8 37.7191 156.81 40.8891 154.86 42.8391C153.88 43.8191 152.6 44.3091 151.32 44.3091C150.04 44.3091 148.76 43.8191 147.79 42.8491H147.78Z" fill="black"/>
<path d="M145.16 36.5894C145.1 33.8294 147.29 31.5394 150.05 31.4794C152.81 31.4294 155.1 33.6194 155.16 36.3794C155.21 39.1394 153.02 41.4294 150.26 41.4794H150.15C147.44 41.4794 145.21 39.3094 145.16 36.5894Z" fill="black"/>
<path d="M147.56 36.65C145.52 34.78 145.38 31.62 147.25 29.58C149.12 27.55 152.28 27.41 154.31 29.28C156.35 31.14 156.49 34.31 154.62 36.34C153.63 37.42 152.29 37.96 150.93 37.96C149.73 37.96 148.52 37.53 147.56 36.65Z" fill="black"/>
<path d="M150.97 32.5503C148.7 30.9803 148.13 27.8703 149.7 25.6003C151.27 23.3303 154.38 22.7603 156.66 24.3303C158.93 25.8903 159.5 29.0103 157.93 31.2803C156.96 32.6903 155.4 33.4403 153.81 33.4403C152.83 33.4403 151.84 33.1503 150.97 32.5503Z" fill="black"/>
<path d="M152.91 27.9094C151.74 25.4094 152.81 22.4394 155.31 21.2594C157.81 20.0794 160.79 21.1494 161.96 23.6494C163.14 26.1494 162.06 29.1294 159.57 30.3094C158.88 30.6294 158.15 30.7794 157.44 30.7794C155.56 30.7794 153.76 29.7194 152.91 27.9094Z" fill="black"/>
<path d="M156.21 24.7502C156.17 21.9902 158.38 19.7202 161.14 19.6802C163.9 19.6402 166.17 21.8502 166.21 24.6102C166.25 27.3702 164.04 29.6402 161.28 29.6802H161.21C158.48 29.6802 156.25 27.4802 156.21 24.7502Z" fill="black"/>
<path d="M166.79 29.4301C164.04 29.1801 162.02 26.7401 162.28 23.9901C162.53 21.2401 164.96 19.2201 167.71 19.4701C170.46 19.7301 172.49 22.1701 172.23 24.9101C171.99 27.5101 169.81 29.4501 167.26 29.4501C167.11 29.4501 166.95 29.4501 166.79 29.4301Z" fill="black"/>
<path d="M172.15 29.9204C169.4 29.6704 167.37 27.2304 167.62 24.4804C167.87 21.7304 170.3 19.7104 173.05 19.9604C175.8 20.2104 177.83 22.6404 177.58 25.3904C177.34 27.9904 175.16 29.9404 172.6 29.9404C172.45 29.9404 172.3 29.9404 172.15 29.9204Z" fill="black"/>
<path d="M172.1 29.8197C170.15 27.8797 170.14 24.7097 172.08 22.7497C174.03 20.7897 177.2 20.7797 179.16 22.7297C181.12 24.6797 181.12 27.8497 179.18 29.7997C178.2 30.7897 176.91 31.2797 175.63 31.2797C174.35 31.2797 173.08 30.7897 172.1 29.8197Z" fill="black"/>
<path d="M175.59 32.5009C173.47 30.7409 173.16 27.5909 174.92 25.4609C176.68 23.3309 179.83 23.0309 181.96 24.7909C184.09 26.5509 184.39 29.7009 182.63 31.8309C181.64 33.0209 180.21 33.6409 178.77 33.6409C177.65 33.6409 176.53 33.2709 175.59 32.5009Z" fill="black"/>
<path d="M175.13 34.7504C174.66 32.0304 176.48 29.4404 179.2 28.9704C181.92 28.5004 184.51 30.3204 184.98 33.0404C185.46 35.7604 183.63 38.3504 180.91 38.8204C180.62 38.8704 180.33 38.9004 180.05 38.9004C177.67 38.9004 175.55 37.1804 175.13 34.7504Z" fill="black"/>
<path d="M178.65 41.75C176 40.96 174.5 38.17 175.3 35.53C176.1 32.88 178.88 31.38 181.53 32.18C184.17 32.97 185.67 35.76 184.88 38.41C184.23 40.57 182.24 41.97 180.09 41.97C179.61 41.97 179.13 41.9 178.65 41.75Z" fill="black"/>
<path d="M177.61 45.0601C175.02 44.1101 173.69 41.2301 174.64 38.6401C175.59 36.0501 178.47 34.7201 181.06 35.6701C183.65 36.6301 184.98 39.5001 184.03 42.0901C183.29 44.1101 181.37 45.3701 179.33 45.3701C178.76 45.3701 178.18 45.2701 177.61 45.0601Z" fill="black"/>
<path d="M172.25 53.5895C169.81 52.2995 168.88 49.2695 170.17 46.8295C171.47 44.3895 174.5 43.4595 176.93 44.7595C179.37 46.0495 180.3 49.0795 179.01 51.5195C178.11 53.2095 176.38 54.1695 174.59 54.1695C173.8 54.1695 172.99 53.9895 172.25 53.5895Z" fill="black"/>
<path d="M167.18 54.5795C165.85 52.1595 166.74 49.1195 169.16 47.7895C171.58 46.4595 174.62 47.3495 175.95 49.7695C177.28 52.1895 176.39 55.2295 173.97 56.5595C173.2 56.9795 172.38 57.1795 171.57 57.1795C169.8 57.1795 168.09 56.2395 167.18 54.5795Z" fill="black"/>
<path d="M165.23 59.1105C163.1 57.3405 162.81 54.1905 164.57 52.0705C166.33 49.9405 169.49 49.6405 171.61 51.4105C173.74 53.1705 174.03 56.3205 172.27 58.4505C171.28 59.6405 169.86 60.2605 168.42 60.2605C167.29 60.2605 166.16 59.8805 165.23 59.1105Z" fill="black"/>
<path d="M162.87 62.0106C160.74 60.2606 160.43 57.1106 162.18 54.9706C163.94 52.8406 167.09 52.5306 169.22 54.2806C171.35 56.0306 171.66 59.1906 169.91 61.3206C168.92 62.5206 167.49 63.1406 166.04 63.1406C164.93 63.1406 163.8 62.7706 162.87 62.0106Z" fill="black"/>
<path d="M159.73 64.4998C157.75 62.5798 157.71 59.4098 159.64 57.4298C161.57 55.4598 164.73 55.4098 166.71 57.3398C168.68 59.2698 168.72 62.4398 166.8 64.4098C165.82 65.4198 164.52 65.9198 163.22 65.9198C161.96 65.9198 160.7 65.4498 159.73 64.4998Z" fill="black"/>
<path d="M159.67 67.5401C157.26 66.2001 156.39 63.1501 157.74 60.7401C159.08 58.3301 162.13 57.4601 164.54 58.8101C166.95 60.1501 167.82 63.2001 166.47 65.6101C165.56 67.2501 163.86 68.1801 162.1 68.1801C161.28 68.1801 160.44 67.9701 159.67 67.5401Z" fill="black"/>
<path d="M157.66 68.5604C156.2 66.2204 156.92 63.1304 159.25 61.6704C161.6 60.2104 164.68 60.9204 166.14 63.2704C167.61 65.6104 166.89 68.6904 164.55 70.1504C163.73 70.6704 162.81 70.9104 161.91 70.9104C160.24 70.9104 158.61 70.0804 157.66 68.5604Z" fill="black"/>
<path d="M166.32 67.5508C164.77 65.2708 165.35 62.1608 167.63 60.6008C169.91 59.0408 173.02 59.6308 174.58 61.9108C176.14 64.1908 175.55 67.3008 173.27 68.8608C172.41 69.4508 171.43 69.7308 170.46 69.7308C168.86 69.7308 167.29 68.9708 166.32 67.5508Z" fill="black"/>
<path d="M169.22 65.5706C167.66 63.2806 168.26 60.1806 170.54 58.6206C172.82 57.0706 175.93 57.6606 177.49 59.9406C179.04 62.2206 178.45 65.3306 176.17 66.8906C175.3 67.4706 174.33 67.7606 173.36 67.7606C171.76 67.7606 170.19 66.9906 169.22 65.5706Z" fill="black"/>
<path d="M171.74 64.3295C169.89 62.2795 170.05 59.1195 172.1 57.2695C174.14 55.4195 177.31 55.5795 179.16 57.6295C181.01 59.6795 180.85 62.8395 178.8 64.6895C177.85 65.5495 176.65 65.9795 175.45 65.9795C174.09 65.9795 172.73 65.4195 171.74 64.3295Z" fill="black"/>
<path d="M174.9 63.2703C172.5 61.8903 171.67 58.8403 173.05 56.4403C174.42 54.0503 177.47 53.2203 179.87 54.5903C182.26 55.9603 183.1 59.0203 181.72 61.4103C180.8 63.0303 179.11 63.9303 177.38 63.9303C176.54 63.9303 175.68 63.7203 174.9 63.2703Z" fill="black"/>
<path d="M174.79 58.1891C174.58 55.4391 176.64 53.0391 179.4 52.8291C182.15 52.6191 184.55 54.6891 184.76 57.4391C184.97 60.1891 182.9 62.5891 180.15 62.7991C180.02 62.8091 179.89 62.8091 179.77 62.8091C177.18 62.8091 174.98 60.8191 174.79 58.1891Z" fill="black"/>
<path d="M177.95 59.5607C175.88 57.7307 175.68 54.5807 177.5 52.5007C179.32 50.4307 182.48 50.2207 184.56 52.0507C186.63 53.8707 186.83 57.0307 185.01 59.1007C184.02 60.2307 182.64 60.8007 181.25 60.8007C180.08 60.8007 178.9 60.3907 177.95 59.5607Z" fill="black"/>
<path d="M182.16 60.7505C179.53 59.8905 178.09 57.0705 178.94 54.4505C179.8 51.8205 182.62 50.3805 185.24 51.2305C187.87 52.0805 189.31 54.9005 188.45 57.5305C187.77 59.6505 185.81 60.9905 183.7 60.9905C183.19 60.9905 182.67 60.9105 182.16 60.7505Z" fill="black"/>
<path d="M181.26 59.1703C179.07 57.5003 178.64 54.3603 180.32 52.1603C180.57 51.8303 180.86 51.4603 181.23 51.0503C183.1 49.0203 186.26 48.8703 188.3 50.7403C190.33 52.6003 190.47 55.7703 188.61 57.8003C188.57 57.8503 188.43 58.0203 188.27 58.2203C187.29 59.5203 185.8 60.1903 184.29 60.1903C183.23 60.1903 182.17 59.8603 181.26 59.1703Z" fill="black"/>
<path d="M184.14 59.6303C183.52 59.3003 183.35 59.1303 183.15 59.0003C182.98 58.8703 182.87 58.7803 182.84 58.7603C180.59 57.1703 180.06 54.0403 181.65 51.7903C183.25 49.5403 186.37 49.0103 188.63 50.6003C188.86 50.7703 189.02 50.9003 189.11 50.9603C191.32 52.3403 192.13 55.2103 190.89 57.5503C190 59.2403 188.26 60.2103 186.47 60.2103C185.68 60.2103 184.88 60.0303 184.14 59.6303Z" fill="black"/>
<path d="M184.99 59.561C183.52 57.221 184.22 54.141 186.56 52.661C188.9 51.191 191.98 51.901 193.45 54.231C194.93 56.571 194.22 59.661 191.88 61.131C191.06 61.651 190.14 61.901 189.23 61.901C187.56 61.901 185.94 61.071 184.99 59.561Z" fill="black"/>
<path d="M187.4 61.7805C185.95 59.4305 186.67 56.3505 189.02 54.9005C191.37 53.4505 194.45 54.1705 195.9 56.5205C197.36 58.8705 196.63 61.9505 194.28 63.4105C193.46 63.9105 192.55 64.1505 191.66 64.1505C189.98 64.1505 188.34 63.3105 187.4 61.7805Z" fill="black"/>
<path d="M193.91 64.6096C191.25 63.8696 189.69 61.1096 190.43 58.4496C191.17 55.7896 193.93 54.2396 196.59 54.9796C199.25 55.7196 200.81 58.4796 200.07 61.1396C199.45 63.3496 197.44 64.7996 195.25 64.7996C194.81 64.7996 194.36 64.7396 193.91 64.6096Z" fill="black"/>
<path d="M191.2 64.4697C189.89 62.9297 189.67 60.8297 190.48 59.1097C191.15 56.8397 193.38 55.2997 195.82 55.5697C198.56 55.8797 200.54 58.3497 200.24 61.0897C200.18 61.5497 200.1 62.0297 199.88 62.6597C199.64 63.2697 199.31 64.0997 198.25 65.0397C197.31 65.8397 196.16 66.2297 195.01 66.2297C193.6 66.2297 192.19 65.6297 191.2 64.4697Z" fill="black"/>
<path d="M193.47 66.7098C191.34 66.7098 189.36 65.3398 188.7 63.1898C187.88 60.5498 189.35 57.7498 191.99 56.9298L193.52 56.4498C196.16 55.6298 198.96 57.0998 199.78 59.7398C200.6 62.3798 199.13 65.1798 196.49 65.9998L194.96 66.4798C194.47 66.6298 193.97 66.7098 193.48 66.7098H193.47Z" fill="black"/>
</g>
</g>
<defs>
<clipPath id="clip0_2561_11171">
<rect width="238.2" height="226.62" fill="white"/>
</clipPath>
</defs>
</svg>
