<svg width="576" height="429" viewBox="0 0 576 429" fill="none" xmlns="http://www.w3.org/2000/svg">
<g clip-path="url(#clip0_2561_15479)">
<mask id="mask0_2561_15479" style="mask-type:luminance" maskUnits="userSpaceOnUse" x="0" y="0" width="576" height="429">
<path d="M575.69 0H0V428.17H575.69V0Z" fill="white"/>
</mask>
<g mask="url(#mask0_2561_15479)">
<path d="M470.31 78.88C469.29 83.35 468.54 87.88 465.71 91.49C462.84 95.12 458.47 99.39 453.57 99.38L432.56 99.31C429.83 99.31 427.63 97.31 427.63 94.38L427.61 25.6C427.61 24.55 429.18 23.05 430.03 22.82C432.16 22.22 434.73 22.14 436.78 22.69L449.87 22.87C451.97 22.9 454.24 23.32 456.29 23.69C462.74 24.84 466.98 32.08 468.83 37.93C469.85 41.16 470.96 44.22 471.06 47.67L471.33 57.07C471.5 62.57 471.46 73.89 470.31 78.9M484.33 56.24L483.63 51.49C483.23 48.82 484.25 42.07 482.03 34.2L479.38 24.76C478.68 22.26 477.58 19.79 476.68 17.26C476.03 15.44 475.1 13.89 474.08 12.27C471.93 8.82 469.75 5.5 466.26 3.23C463.87 1.7 461.34 0.03 458.24 0.03L417.62 0C416.32 0 415.25 2.53 415.24 3.6L415.06 20.61C415.04 21.93 415.06 23.09 415.06 24.43L415.08 47.46C415.08 49.01 415.05 50.36 415.06 51.91L415.28 67.07V72.27L415.3 105.28V109.11L415.4 149.94L415.47 182.47L415.25 189.74C415.18 192.64 415.22 195.49 415.47 198.46C415.74 201.63 415.09 206.3 416.75 207.61C418.82 209.24 425.64 209.63 427.14 207.34C428.26 205.67 427.67 204.09 427.67 202.39L427.49 160.64L427.36 156.5C427.28 153.9 427.41 151.48 427.44 148.86L427.76 124.2C427.79 122.07 429.96 120.61 431.55 120.58C436.77 120.45 437.64 121.37 441.04 120.76C444.06 120.24 464.47 123.99 471.42 113.21L474.4 108.56C478.15 102.71 479.97 96.34 481.17 89.57C481.74 86.43 482.95 83.43 483.09 80.1C483.22 76.92 483.56 73.85 483.91 70.61C484.24 67.63 484.74 58.71 484.36 56.22" fill="#90BEFB"/>
<path d="M174.34 204.299L173.91 209.169L172.93 218.519C172.36 223.919 171.75 224.189 171.25 229.959C170.37 240.029 167.82 238.809 167.75 244.109C167.68 248.009 165.82 250.899 164.45 254.349C163.33 257.119 162.48 259.849 160.95 262.449C157.75 267.889 153.35 274.299 147.66 277.099C143.67 279.079 137.51 281.689 133.3 280.849L126.46 279.519C123.54 278.939 117.72 275.139 115.46 272.729C111.94 269.009 109.11 264.929 106.24 260.739C104.39 258.039 103.39 255.289 102.22 252.319L98.2899 242.269C97.0599 239.139 96.5599 236.179 95.7099 232.849L93.7899 225.299L91.8399 212.449C91.4199 209.619 90.9699 206.859 90.7599 203.979L90.4399 199.579L90.0099 192.009L89.8099 183.189L89.4099 176.389C89.2099 172.859 89.1799 169.449 89.3399 165.899L89.6399 159.279L90.0399 154.409C90.3599 150.729 90.3899 146.959 90.0399 143.309C89.9599 142.579 90.2899 140.919 90.5599 140.169C92.6099 134.369 91.6399 127.679 93.8799 119.529L96.6299 109.489L100.65 96.3494C101.67 93.0094 105.12 86.7494 107.12 83.7094L111.39 77.1694C116.54 69.3194 126 64.1794 135.53 64.3294C141.43 64.4294 146.65 67.3494 151.27 70.8194C154.77 73.4494 157.54 76.9894 159.64 80.7894C160.77 82.8394 162.17 84.8294 163.04 86.9294L166.22 94.5994L168.02 100.819C168.72 103.289 169.65 105.519 170.07 108.059C170.74 111.929 171.1 115.599 171.3 119.499C171.62 125.119 174.63 128.499 170.7 130.489C168.12 131.789 164.65 132.459 162.08 130.639C159.38 128.739 159.96 118.799 158.03 113.569L154.8 104.849C153.05 100.099 150.57 96.5294 146.68 93.3494C143.88 91.0494 141.26 88.0294 137.59 87.4794C133.01 86.7594 128.69 87.8494 125.24 90.6594C120.6 92.6894 117.59 96.6294 115.25 101.049L112.91 105.449C111.59 107.929 110.73 110.489 109.74 113.169C106.56 121.919 104.74 131.109 103.54 140.409L102.24 150.469C101.97 152.589 102.02 154.689 101.91 156.839L101.64 161.669C101.29 167.909 101.54 174.029 101.74 180.209L102.11 191.859L104.31 208.329C104.58 210.279 104.48 212.279 104.98 214.109L107.18 222.199C110.15 233.139 111.27 238.439 118.4 247.789C120.82 250.959 123.67 253.419 127.17 255.479C128.8 256.449 130.7 256.879 132.54 257.259C136.41 258.039 139.54 257.189 142.58 254.959C146.81 251.829 149.08 250.159 151.75 245.269C154.72 239.799 156.79 234.919 158.05 228.779C158.47 226.709 159.95 224.509 159.82 222.339C159.7 220.569 159.42 218.919 160 217.219C163.13 208.279 160.22 206.699 162.32 201.499C163.37 198.869 169.04 199.429 172.09 199.719C174.02 199.899 174.49 202.869 174.36 204.289" fill="#90BEFB"/>
<path d="M361.66 99.9101C359.44 102.66 352.99 110.18 350.65 112.12L339.48 121.37C338.13 122.49 336.7 123.34 335.28 124.35L326.48 130.67L316.83 137.44C312.98 140.14 311.83 140.54 308.08 143.08L302.36 146.95L295.41 151.2C294.18 151.95 293.14 152.93 291.86 153.67L287.51 156.12C286.11 156.89 284.99 157.85 283.59 158.62L276.39 162.64C274.54 163.67 272.67 164.76 270.86 165.86L264.62 169.66L259.57 172.58L249.28 178.62L244.41 181.32L239.81 183.97L235.51 186.5L229.74 189.92L222.55 193.94L217.31 196.71L212.84 198.94C211.02 199.86 209.37 200.76 207.6 201.71L199.8 205.9L193.81 209.13C191.68 210.3 189.32 211.73 187.09 212.65C184.42 213.75 182.17 214.83 179.64 216.1L171.62 220.07L164.32 223.7L153.17 228.89C151.14 229.84 149.09 230.66 147.12 231.66C144.32 233.08 141.57 233.91 138.75 235.34L134.88 237.29L127.76 240.17L119.19 243.64L113.49 246.24L103.07 250.27C100.14 251.42 97.0996 252.37 94.0496 253.29L81.4996 257.09L71.7496 259.79C68.9296 260.57 65.8796 260.97 62.8996 261.31L53.8996 262.38C51.4196 262.66 48.5796 261.53 46.6996 260.36C43.6296 258.44 43.9196 254.29 46.3996 252.06C47.6296 250.94 48.4296 249.57 49.5396 248.34C51.7896 245.76 54.2596 243.19 56.8796 240.99L61.8796 236.77L66.6796 232.73C68.1796 231.46 69.8996 230.35 71.5796 229.23C74.7296 227.11 77.5796 224.48 80.8196 222.66C83.1996 221.31 85.2396 219.92 87.3196 218.19C89.0196 216.77 90.7996 215.57 92.6396 214.31L97.1296 211.21C101.1 208.46 105.27 206.37 109.3 203.82L115.92 199.6C118.39 198.03 120.97 196.9 123.44 195.18C125.97 193.41 128.59 192.06 131.26 190.53L137.1 187.18L142.82 183.73L150.29 179.16C153.86 177.38 157.48 175.66 160.88 173.37C162.83 172.05 164.65 171.09 166.75 170C168.62 169.05 170.49 167.9 172.3 166.83L179.35 162.66L184 160.16L188.34 157.73L195.78 153.99C197.98 152.89 199.95 151.92 202.05 150.69L208.14 147.14C210.22 145.92 212.69 145.02 214.86 143.92L221.8 140.37C223.05 139.74 224.77 139.22 225.9 138.47C227.15 137.65 228.23 136.72 229.62 136.2C231.84 135.38 233.82 134.35 235.94 133.43C241.78 130.91 244.69 128.9 250.16 126.46L256.58 123.61L264.57 119.66C266.9 118.53 269.12 117.46 271.52 116.56L277.71 114.28L285.06 111.2C287.91 110 290.08 108 293.33 107.5C294.68 107.28 296.1 106.17 297.37 105.62C304.91 102.39 309.14 102.27 314.99 99.2201C316.92 98.2001 319.41 97.9401 321.58 97.3901C324.36 96.6701 327.08 95.4701 329.9 95.0401C332.88 94.5901 335.59 94.2201 338.42 93.0601C340.27 92.2801 342.25 91.7901 344.32 91.7301L352.47 91.4501C355.86 91.3301 358.94 90.9301 361.71 93.3401C362.56 94.0701 363.38 95.4601 363.36 96.5901C363.36 97.8301 362.53 98.9401 361.73 99.9401M407.16 73.9501C406.34 70.6501 403.19 68.0801 399.46 67.8001C395.63 67.5001 391.59 67.1201 387.67 67.7201L375.72 69.5401C373.77 69.8401 371.83 69.6701 370.03 70.3601C368.13 71.0901 366.3 71.8401 364.33 72.1901C361.45 72.7101 358.95 73.7201 356.11 74.4101L346.47 76.7901C346.47 76.7901 333.86 81.3801 332.96 81.7901L332.93 81.8101L326.84 83.5401L318.9 86.8701C316.68 87.8001 314.6 88.7701 312.23 89.3401C310.13 89.8601 308.34 91.0701 306.38 91.8101L297.31 95.1801C294.51 96.2301 291.94 97.4001 289.32 98.8001C287.62 99.7201 285.77 100.37 283.97 101.12L277.72 103.67L264.08 109.9C260.23 111.67 256.43 113.15 252.68 114.95L247.21 117.55L241.66 120.67L237.62 122.64C235.82 123.52 233.8 124.23 232.05 125.14L224.95 128.89L218.9 132.02L211.9 135.42C210.48 136.1 209.15 136.89 207.66 137.49C206.04 138.12 204.86 139.04 203.42 140.11C202.02 141.16 199.75 141.48 198.22 142.41L192.68 145.76C190.35 147.18 188.08 148.03 185.58 149.16C183.88 149.94 181.98 151.16 180.26 152.11C175.16 154.94 170.94 156.61 166.77 159L159.88 162.93C155.91 165.21 151.03 168.3 147.38 169.98C144.4 171.36 141.81 173.1 138.94 174.68L132.54 178.21L126.75 181.21C124.22 182.51 122.17 183.91 120.05 185.71C117.7 187.69 114.73 188.48 112.23 190.03L105.59 194.18L100.19 197.18L84.6696 206.85L77.6796 211.42L73.7596 213.9L67.9196 217.67C65.8196 219.02 63.8796 220.22 61.6296 221.42C58.8096 222.94 56.3796 225.15 53.7796 227L45.7896 232.7L37.3896 238.64C35.4196 240.02 33.8196 242.24 31.7996 243.44C26.7796 246.41 22.9596 250.06 18.6596 253.96L14.0796 258.15C11.2596 260.7 4.18956 268.72 1.87956 271.95C1.25956 272.8 0.899556 274.38 0.529556 275.35C-0.370444 277.63 -0.200444 279.77 1.14956 281.85C2.22956 283.53 4.32956 284.67 6.74956 284.98L11.6396 285.65H17.2396C23.2596 285.07 29.1996 284.47 35.2596 282.95C37.7296 282.35 40.1396 281.95 42.6296 281.47C46.1096 280.8 49.3496 279.37 52.7196 278.54C56.9196 277.49 60.6396 276.2 64.7396 274.87L75.0296 271.54C79.4496 270.09 83.5496 268.52 87.7996 266.64C91.3696 265.04 94.9396 263.99 98.5196 262.49L104.67 259.91L109.94 257.67L117.44 254.77L127.34 250.68L135.31 247.08L142.58 243.58L150.1 240.28C152.23 239.35 154.3 237.91 156.37 237.04C158.92 235.96 161.19 235.04 163.61 233.76C165.99 232.48 168.56 231.16 171.05 230.08C174.02 228.8 176.69 227.7 179.47 226C181.27 224.9 183.17 223.78 185.09 222.86C186.81 222.03 188.92 221.73 190.56 220.68C192.81 219.26 195.19 218.38 197.53 217.21L209.32 211.34L217.34 206.64L221.36 204.65L227.23 201.77C228.88 200.94 230.33 199.85 232.02 198.95L241.42 193.95C243.25 192.97 244.74 191.72 246.57 190.72L249.9 188.9C251.45 188.07 253.3 187.45 254.8 186.57L259.6 183.72L266.24 179.98L271.51 176.86C275.93 174.26 280.46 172.08 284.77 169.32C288.74 166.77 292.57 164.62 296.64 162.47C298.84 161.3 300.91 159.7 303.01 158.4L315.05 150.86C316.75 149.81 318.5 148.68 320.29 147.73C324.21 145.65 327.71 143.31 331.44 140.89L342.36 133.79L348.35 129.81L355.05 125.26L360.45 121.51L380.36 106.69L388.31 99.5001C391.26 96.8301 394.2 94.8801 396.88 91.9601C399.85 88.7401 402.6 85.7401 404.95 82.0201C406.52 79.5501 407.99 77.2501 407.15 73.9401" fill="#90BEFB"/>
<path d="M574.809 7.89048L573.479 12.3205L570.309 23.4905C569.579 26.0905 567.889 28.4405 567.709 31.1805C567.509 34.0305 566.729 36.4005 565.389 39.1005C564.569 40.7305 564.719 42.9205 564.269 44.6205C562.369 52.0105 559.999 59.0105 557.629 66.2805C557.409 66.9805 557.059 68.1605 556.999 68.7605C556.549 72.6605 555.049 75.7505 554.019 79.4105L547.369 102.9C545.039 111.15 542.719 115.69 541.379 125.33C541.149 127.01 541.529 128.48 541.529 130.23L541.629 199.97C541.629 202.49 542.779 204.97 541.009 207.19C539.459 209.18 530.519 209.23 530.489 205.99L530.189 177.08L529.859 124.31C529.839 120.83 528.579 117.73 527.689 114.51C527.239 112.79 526.959 110.99 526.389 109.36C525.619 107.11 524.609 104.98 524.019 102.69C524.019 102.66 523.999 102.64 523.999 102.61C523.999 102.63 524.019 102.64 523.999 102.66C523.619 101.44 517.659 80.1705 518.879 82.8405L516.509 76.9905C516.509 76.6105 513.209 63.4305 512.889 62.4805L509.619 52.6405C509.449 51.8405 503.219 30.5805 503.569 33.1505L502.299 26.4105C502.029 25.0405 497.019 8.97048 496.229 6.44048C495.759 4.94048 495.879 3.12048 497.559 2.24048C499.909 1.02048 507.859 0.260477 509.999 6.38048C511.529 10.7805 512.319 15.4205 513.619 19.9305C514.299 22.3605 515.039 24.6505 515.549 27.1205C516.119 29.7905 516.969 32.2005 517.829 34.7905C519.109 38.6905 520.049 42.6605 521.169 46.6105L524.299 57.7505L527.099 68.6405L529.329 76.4305L532.149 87.2205C532.569 88.8705 532.319 93.1105 534.469 94.3905C534.839 94.6105 535.889 94.4405 536.269 94.2405C539.299 92.5405 539.949 89.5005 540.099 86.3505C540.479 77.9605 544.949 72.2305 546.249 64.3105C546.949 60.0205 547.749 55.9905 549.299 52.0405C550.729 48.3605 551.779 44.6705 552.949 40.8905C553.879 37.9205 554.479 35.1205 554.899 31.9705C555.119 30.3205 556.569 28.5905 556.969 26.9905L560.699 11.9205L562.579 4.98048C563.799 0.490477 573.329 0.760477 575.199 3.13048C576.229 4.41048 575.179 6.56048 574.769 7.92048" fill="#90BEFB"/>
<path d="M534.469 221.281V225.681L533.719 226.951C532.319 229.321 531.449 231.651 530.579 234.301C529.599 237.371 526.929 239.701 525.149 242.251L522.599 245.851C522.169 246.471 521.649 248.121 521.119 248.671L513.669 256.411L508.479 262.031L504.379 266.411C503.149 267.741 501.659 268.961 500.459 270.381C499.779 271.201 499.089 271.971 498.339 272.681L494.869 275.981C490.729 279.901 488.969 277.661 480.029 278.831C479.109 278.961 477.849 278.311 477.429 277.601C477.059 276.981 477.479 275.471 478.099 274.881L483.839 269.361L486.389 266.361C488.689 263.661 491.259 261.371 493.309 258.491L497.439 252.641L501.279 246.451C502.509 244.481 502.909 242.301 502.199 239.861C501.679 238.091 499.899 236.741 497.999 235.731C495.249 234.261 492.899 234.111 489.849 235.081C488.129 235.631 485.579 234.911 483.709 235.331C480.139 236.111 476.619 236.811 473.239 238.061L467.069 240.351C464.119 241.451 461.139 242.571 458.279 243.951L450.809 247.601C446.059 249.921 441.509 252.321 436.989 254.991L431.949 257.961L426.249 261.431C425.449 261.911 418.959 266.071 418.479 266.421L413.349 270.091L408.019 273.961L403.169 277.461C399.919 279.811 396.519 281.581 393.419 284.131L389.689 287.201C385.139 290.951 384.289 291.031 379.699 294.791L371.999 301.081C369.529 303.101 367.219 305.001 364.959 307.251C364.079 308.131 363.239 309.021 362.239 309.771L357.719 313.221L352.019 317.891L343.629 324.761L336.139 332.031L334.019 333.461L326.299 340.961L323.009 343.711C319.459 346.681 316.459 350.131 313.269 353.481L307.799 359.271L305.819 361.241L298.579 369.991C296.879 372.031 294.999 373.961 293.649 376.161L287.199 386.581L285.629 389.831C284.499 392.201 283.059 394.651 283.429 397.121C284.049 401.191 286.509 404.021 290.449 404.361C293.449 404.611 296.189 404.791 299.099 404.131L309.289 401.811C312.089 401.181 315.279 400.541 317.709 399.091C320.059 397.691 322.249 396.741 324.679 395.591L331.979 392.101L337.719 389.081C340.319 387.731 342.939 386.361 345.309 384.761C347.889 383.031 350.259 381.081 352.909 379.591C356.629 377.491 360.099 375.471 363.459 372.901L367.559 369.781L376.759 362.981L389.879 352.941C392.329 351.071 394.229 348.791 396.729 347.001L403.969 341.801C405.339 340.821 406.469 338.601 405.269 337.011C403.719 334.981 398.729 336.681 397.649 336.691L377.189 336.741C376.459 336.741 375.409 336.111 375.019 335.521C374.649 334.951 375.239 333.421 375.849 332.941L381.189 328.641C384.309 326.121 387.119 323.541 389.979 320.671C392.029 318.621 394.309 317.001 396.629 315.321C398.179 314.201 399.649 313.531 401.669 313.531L433.949 313.461C435.119 313.461 436.199 313.281 437.369 313.391C443.939 314.041 444.369 312.771 449.909 313.211C450.329 313.241 451.059 313.981 451.179 314.341C451.799 316.311 447.849 318.891 446.049 320.331L442.479 323.151L437.259 327.471L430.239 333.341L423.299 339.911L419.029 343.731C416.849 345.681 414.739 347.631 412.289 349.351C410.569 350.571 408.809 351.601 407.239 353.071L400.889 359.091L396.319 362.931L391.869 366.851L381.849 374.921L371.709 384.691L358.289 396.091C354.719 399.121 351.299 401.991 347.889 405.231C344.289 408.631 340.419 411.261 336.669 414.421L327.569 422.111C326.869 422.691 319.299 424.681 318.119 422.241C317.849 421.661 318.149 420.011 318.699 419.541L325.349 413.891L329.139 410.471C329.639 410.001 336.359 402.951 333.319 402.601C331.699 402.421 330.689 403.231 329.299 403.921L326.079 405.471C323.129 406.901 320.979 409.901 317.879 411.151C315.079 412.271 312.579 413.481 309.809 414.721L302.619 417.941L294.949 421.431C292.549 422.511 289.909 422.901 287.509 424.081C285.079 425.261 275.439 426.751 272.459 428.201H266.059L259.589 426.651C255.539 425.671 252.069 422.581 251.789 418.111C251.709 416.661 252.339 414.641 252.469 413.041C252.889 407.521 256.539 400.691 259.509 396.121L263.439 390.071L265.359 387.191C268.439 382.541 269.449 382.711 272.659 378.101C276.759 372.251 281.359 367.281 286.679 362.491C287.949 361.361 288.979 359.661 290.159 358.451L298.729 349.751L312.089 337.181C312.939 336.361 313.619 335.551 314.519 334.811L322.239 328.491C324.959 326.261 327.459 323.971 330.039 321.551L333.989 317.871C336.369 315.621 338.839 313.381 341.479 311.381C344.159 309.331 346.869 307.681 349.179 305.091C350.709 303.391 353.549 301.141 355.429 299.741L362.079 294.791C362.849 294.221 363.949 293.591 364.669 292.991C368.849 289.471 372.689 285.841 377.269 282.851C378.689 281.931 379.919 281.021 381.239 280.021L385.569 276.751L391.119 272.721L395.239 269.701L403.539 263.951C406.789 261.701 409.739 259.521 413.139 257.501C414.639 256.601 416.259 255.471 417.609 254.421C419.309 253.091 420.879 252.171 422.749 251.051L435.169 243.561L440.149 240.541L446.219 237.041C448.189 235.891 450.119 235.161 452.069 234.051L456.839 231.351L461.709 229.001L468.879 225.331L474.129 223.411C476.479 222.541 482.369 218.891 488.269 217.571C495.909 215.891 493.099 214.851 501.639 213.651C504.239 213.281 506.729 212.471 509.229 211.721C512.449 210.741 515.549 211.101 518.869 211.221L524.399 211.421C526.499 211.501 528.449 213.191 530.299 214.291C532.869 215.811 533.629 218.681 534.449 221.291" fill="#90BEFB"/>
<path d="M436.24 219.031L427.87 226.321L417.62 234.811C416.02 236.141 414.37 237.461 412.85 238.891C409.5 242.031 405.95 244.611 402.55 247.781L399.05 251.051L394.66 254.671C387.61 260.491 381.24 266.721 373.93 272.291C372.83 273.141 371.66 274.391 370.65 275.371L364.31 281.441L357.41 286.931L353.21 290.731L350.63 292.951L346.85 296.001C345.63 296.981 344.38 298.071 343.23 299.121L339.06 302.941L333.44 308.121C331.07 310.291 328.79 312.241 326.24 314.121C325.47 314.691 324.34 315.351 323.69 315.921L316.87 321.941L308.05 329.931L302.25 334.531C300.88 335.601 299.62 336.951 298.25 338.121L282.14 351.971C280.64 353.251 278.99 354.451 277.32 355.541C274.72 357.211 273.1 359.471 270.89 361.491L257.5 373.631L250.46 379.021L240.06 388.621C236.98 391.451 232.74 394.391 231.24 395.821L223.3 403.461C220.85 405.811 218.3 407.731 215.66 409.851L211.46 413.231L206.03 417.421L201.48 421.621C199.66 423.301 196.63 424.051 194.14 424.121C193.34 424.151 192.14 423.751 191.37 423.891C189.5 424.221 186.69 424.671 185.35 423.491C183.17 421.571 184.93 419.171 186.27 417.691L190.1 413.471L193.74 409.431C194.42 408.681 194.97 407.061 195.61 406.191L202.05 397.401L205.39 393.131L210.41 386.561C211.18 385.581 211.88 384.561 212.59 383.531L217.21 376.981C220.86 371.781 224.63 366.961 228.61 362.041L233.28 356.301C234.76 354.451 236 352.631 237.26 350.681C241.15 344.711 244.3 342.231 247.55 337.341L250.75 332.541C251.87 330.861 255.69 326.621 257.35 324.371L261.27 319.101C263.05 316.681 265.42 314.631 266.87 312.011C270.75 304.971 273.57 303.791 276.72 299.071L280.25 293.771C281.15 292.421 282.23 291.251 283.32 290.031L286.3 286.611L291.22 279.941L296.65 273.751C297.38 272.921 302.89 269.161 300.94 265.761C299.67 263.541 295.55 266.891 294.05 268.741C292.93 270.121 291.7 271.171 290.48 272.391C289.08 273.771 287.76 275.241 286.25 276.561L277.43 284.111L272.29 288.161L269.44 290.961C267.91 292.461 266.34 293.981 264.66 295.361L255.64 302.731L236.2 320.001C233.52 322.381 230.65 324.221 228.06 326.651L222.49 331.941L218.82 334.591C216.8 336.061 215.35 338.111 213.47 339.641L209.93 342.541L202.58 348.761L194.89 355.501L192.84 357.431L188.22 361.231L183.83 364.811C180.93 367.161 178.11 369.461 175.39 371.931L168.24 378.471L159.67 385.841L151.42 393.141L144.52 399.071C142.6 400.701 140.84 402.611 138.85 404.141C135.58 406.681 132.2 408.831 129.28 411.831C125.6 415.651 118.51 423.581 113.11 424.001L106.06 424.551C104.58 424.671 102.52 424.101 102.93 422.151C103.21 420.681 105.01 419.611 106.1 418.601L111.83 413.151C114.78 410.361 118.85 407.551 122.53 404.281L130.17 397.491L136.47 392.171L142.79 386.521C147.49 382.301 149.48 381.621 153.74 377.051C156.57 374.031 159.76 371.431 162.88 368.611C164.7 366.961 166.5 365.661 168.45 364.191C172.1 361.471 175.15 358.171 178.69 355.251C181.16 353.201 183.12 350.601 185.64 348.751L189.63 345.801C193.86 342.681 197.48 339.151 201.47 335.681L206.81 331.031C207.64 330.311 208.46 329.381 209.26 328.711L215.63 323.461L224.32 316.571L230.87 310.301C233.9 307.401 238.29 304.831 240.71 302.561L248.15 295.591L253.62 290.271C254.9 289.041 256.24 287.791 257.67 286.751L261.87 283.771C263.69 282.471 265.27 281.071 266.84 279.501L271.04 275.301L279.48 268.111L288.48 260.791C291.28 258.511 293.91 256.121 296.57 253.671L300.11 250.401C303.28 247.471 306.38 244.761 309.73 242.051L317.25 235.951L325.67 228.461L332.66 222.591L337.23 219.101C338.96 217.771 341.26 215.621 343.65 215.751C346.37 215.881 348.9 216.881 351.64 216.321C352.89 216.051 354.78 215.671 355.51 216.951C356.26 218.271 355.26 219.771 354.48 220.771L350.9 225.241L348.08 228.811C346.8 230.441 345.61 231.861 344.56 233.731C343.19 236.211 336.46 243.751 335.61 245.021L330.62 252.471C329.49 254.151 327.95 255.401 326.64 256.921C324.84 258.991 323.25 261.271 321.7 263.561C319.85 266.291 317.97 268.811 316 271.461L309.01 280.831L304.34 286.551C300.94 290.731 301.14 292.041 296.72 296.911C295.15 298.631 293.85 300.481 292.49 302.331L289.44 306.481L282.39 315.371L276.87 322.651L273.3 327.091C272.4 328.211 271.33 329.511 270.55 330.671C268.8 333.251 267.37 335.841 265 337.991C261.98 340.741 262.11 343.241 257.23 348.961L250.04 357.401C248.44 359.281 247.02 361.201 245.2 362.941C243.3 364.771 236.71 371.431 239.53 373.711C241.01 374.911 244.35 372.011 245.55 370.881C248.27 368.331 250.8 365.781 253.32 363.081C260.64 355.211 264.92 353.461 271.34 347.521L275.51 343.651C279.59 339.861 283.73 336.561 287.9 332.911L296.69 325.241C299.02 323.211 301.29 321.411 303.69 319.461L308.33 315.721L313.01 311.621L318.84 306.671L323.86 302.051C326.73 299.401 329.51 296.901 332.53 294.401L341.73 286.761L347.47 281.341L357.56 272.641L370.43 261.921L376.23 256.521C378.66 254.251 381.46 252.491 383.92 250.181L390.27 244.231L396.62 238.891L411.38 226.521L414.35 223.871L419.62 218.821C422.47 216.091 425.95 215.941 429.74 215.571L435.08 215.051C435.73 214.981 436.98 215.871 437.2 216.431C437.47 217.061 436.9 218.431 436.28 218.981" fill="#90BEFB"/>
<path d="M318.73 219.51C316.38 221.01 314.55 222.68 312.53 224.55L310.45 226.48C304.91 231.62 302.76 232.55 298.05 236.8L292.78 241.55L286.51 247.24L282.44 250.84L277.87 254.64C276.29 255.98 274.78 257.07 273.07 258.31C271.32 259.56 269.78 261.39 268.13 262.88L263.7 266.87L260.1 270.04L254.1 275.19L245.45 282.63L237.65 289.57L233.47 292.97C230.2 295.64 227.05 298.22 223.95 301.02L218.27 306.17L212.3 311.74C209.72 314.17 207.03 316.34 204.21 318.46C201.07 320.79 198.49 323.25 195.71 325.91C192.16 329.31 188.11 331.9 184.45 335.06L176.51 341.96C170.79 346.91 169.42 349.28 163.3 353.9C159.38 356.87 155.95 360.05 152.26 363.24L143.67 370.64L129.63 382.24L122.71 388.84L117.49 393.31L103.45 405.62C100.12 408.55 97.1298 411.45 93.5798 414.11C90.2298 416.59 87.2898 419.15 84.2898 422C82.9098 423.32 80.7898 424.57 78.9898 424.4C71.9998 423.72 70.6998 426.22 67.9898 424.25C67.0698 423.6 66.9698 421.47 67.8398 420.86C70.3098 419.16 72.2298 417.26 74.4798 415.44C77.8698 412.72 81.4198 410.54 84.3798 407.29C85.9998 405.5 88.0998 404.14 89.8998 402.4C94.4498 398.05 99.0998 394.15 104.14 390.36C106.89 388.31 108.93 385.82 111.23 383.41C113.47 381.09 116.02 379.16 118.4 376.97C121.28 374.35 124.27 371.93 127.37 369.6C128.94 368.42 130.42 367.35 131.82 366.03L138.84 359.43C140.04 358.31 141.37 357.15 142.66 356.08L147.03 352.48L152.93 347.53C154.55 346.16 156.05 344.86 157.73 343.58C161.11 341 163.7 337.88 167.03 335.26L175.33 328.79L182.17 322.4C185 319.75 187.62 317.01 190.72 314.61L196.59 310.06C197.62 309.24 198.71 308.48 199.69 307.56L205.26 302.31C208.76 298.99 212.48 296.04 216.26 292.96L222.88 287.58L231.03 279.79C234.78 276.19 238.83 273.27 242.95 270.12C246.23 267.6 249 264.78 252.04 262.05L260.28 254.6C263.28 251.88 266.22 249.46 269.48 247.05C271.18 245.8 275.45 241.35 278.23 239.06L283.06 235.11C285.66 232.98 288.16 230.98 290.63 228.66C291.4 227.94 292.38 227.08 293.21 226.48C296.86 223.83 300 221.19 303.25 218.08C304.58 216.78 307.35 216.03 309.05 216.28C316.72 217.36 318.09 213.98 319.89 216.93C320.34 217.65 319.56 218.98 318.72 219.53" fill="#90BEFB"/>
</g>
</g>
<defs>
<clipPath id="clip0_2561_15479">
<rect width="575.69" height="428.17" fill="white"/>
</clipPath>
</defs>
</svg>
