<svg width="487" height="384" viewBox="0 0 487 384" fill="none" xmlns="http://www.w3.org/2000/svg">
<g clip-path="url(#clip0_2561_9586)">
<mask id="mask0_2561_9586" style="mask-type:luminance" maskUnits="userSpaceOnUse" x="0" y="0" width="487" height="384">
<path d="M486.66 0H0V383.61H486.66V0Z" fill="white"/>
</mask>
<g mask="url(#mask0_2561_9586)">
<path d="M234.34 185.769C219.28 189.079 225.36 201.569 221.36 201.129L215.2 200.469C215.86 193.599 211.48 186.239 204.14 185.579C201.24 185.329 198.2 185.989 195.52 185.849L188.49 185.469C186.44 185.359 184.82 185.959 182.93 186.839C180.22 178.439 184.43 177.119 178.88 166.609C185.31 160.289 184.79 152.019 181.59 144.219C189.09 146.599 187.04 141.999 193.55 144.249C200.09 146.519 199.85 142.139 204.77 144.089C207.97 145.369 210.27 144.799 213.53 143.709L220.89 144.889L227.98 143.079C228.42 146.259 229.02 149.129 230.8 150.719C233.21 152.879 236.27 152.909 239.83 152.799C241.69 158.379 232.44 162.679 239.31 174.619L244.32 177.469C239.04 178.149 235.15 180.539 234.33 185.789M287.01 206.439C286.11 196.889 287.34 188.729 275.46 185.529C278.83 176.689 276.66 164.319 265.63 162.479C266.12 155.199 267.85 158.759 266.59 150.739C265.6 144.499 261.33 140.089 254.93 139.459C256.3 136.069 256.55 133.569 256.71 130.509C257.12 123.009 252.36 116.469 244.01 116.439C247.51 110.909 248.12 103.929 244.53 98.5394C240.56 92.5694 232.4 92.5694 226.63 95.9394C222.71 85.2094 226.55 85.3494 224.58 78.6894C223.02 73.3494 218.59 70.4494 213.22 70.6694C209.83 70.8094 207.25 71.8794 203.97 73.8494C204.6 69.4994 203.61 65.6094 200.25 63.9694C196.94 62.3794 194.12 62.8694 190.92 65.7794L191.5 60.1994C191.77 57.5194 190.73 53.9894 189.17 51.8194C185.64 46.8894 179.18 47.2494 174.39 48.7794C170.78 47.6294 166.18 47.5494 162.43 48.7494C158.1 47.5494 151.78 46.6994 148.08 51.0794C144.08 55.8194 143.67 63.1794 147.89 67.9994C151.59 72.2394 157.86 72.5394 162.48 70.1594C165.9 71.9394 169.71 72.2694 173.1 70.5994C174.74 69.7794 177.31 71.0694 177.51 73.0394C177.89 77.2294 180.8 79.9094 185.12 79.5794C187.17 79.4394 188.82 78.8694 190.7 77.3394C193.79 79.9394 198.45 80.2394 202.11 78.1894C200.58 83.4194 201.15 90.5594 206.08 93.6294C208.93 95.4094 210.24 96.0094 211.12 99.4894C212.16 103.729 217.66 105.319 222.15 103.379C222.53 105.709 222.48 108.749 222.01 110.939C219.25 109.839 217.74 109.519 215.28 109.409C211.01 109.219 208.35 111.709 207.45 115.759C206.14 117.209 202.44 117.869 200.47 117.159C197.05 115.979 194.31 117.569 190.89 117.239L183.69 116.579C177.06 115.949 172.58 121.949 172.25 128.429C172.17 130.179 172.3 131.799 172.5 134.179C168.45 131.639 163.91 130.919 160.02 133.849C156.19 131.389 150.41 131.059 147.37 134.749C144.47 138.309 144.69 143.239 145.81 147.479C147.84 155.199 157.47 151.529 157.58 153.639C157.99 160.289 153.99 151.069 145.92 156.709C140.75 160.349 141.46 171.219 144.96 174.889C149.07 179.159 155.58 175.159 154.98 178.999C153.97 185.159 157.86 189.889 162.67 192.909C164.37 195.259 164.64 199.859 168.55 200.929C170.17 201.339 173.18 201.369 174.93 201.389C175.75 208.419 177.42 214.749 184.95 217.269C187.93 218.279 192.2 217.489 195.46 217.159C196.91 220.059 198.01 224.279 201.65 225.289C204.88 226.189 208.25 225.429 211.72 225.349C215.36 225.239 219.36 226.089 222.62 225.189C226.45 224.149 227.3 220.229 228.4 216.869C228.73 215.969 231.11 217.009 232.12 217.279C235.51 218.179 239.4 217.439 242.93 217.529L251.44 217.689C254.89 217.769 258.09 214.619 260.55 212.189C264.71 216.679 266.85 215.669 267.72 219.549C268.79 224.309 272.62 225.789 276.89 225.789C281.16 225.759 284.64 224.999 286.53 220.589C288.45 216.179 287.49 211.339 287.02 206.489" fill="#90BEFB"/>
<path d="M180 166.439C178.3 167.319 174.33 167.319 172.91 166.389L170.61 164.909C170.12 164.579 169 166.279 168.42 166.499C166.56 167.179 162.89 167.349 161.11 166.419C157.99 164.719 156.59 161.109 157.06 157.739C157.47 154.509 159.44 152.239 162.02 151.089C165.3 149.609 167.9 151.529 170.59 153.139C172.81 151.719 175.65 150.019 178.12 150.729C180.67 151.439 182.61 152.839 183.54 155.769C184.72 159.549 183.95 164.419 180.01 166.449" fill="#90BEFB"/>
<path d="M173.69 305.249C173.61 310.889 172.65 316.339 167.56 319.679C163.37 322.419 158.61 321.539 153.71 321.269C149.93 321.019 146.07 323.319 139.45 319.459C138.57 323.269 137.48 327.559 133.59 328.989C130.5 330.139 126.28 329.179 123 329.209L111.17 329.289L101.01 329.479C100.79 331.339 100.68 333.699 100.68 335.889C108.1 338.299 111.11 345.169 110.59 352.399C110.4 355.079 110.56 358.009 109.93 360.199C108.4 365.569 105 368.469 99.9896 370.219C96.4096 377.009 97.9096 375.179 92.1096 378.619H84.9096C81.6496 376.289 79.2696 376.979 77.7696 370.649C76.4296 365.039 76.7796 359.839 79.4096 354.389C73.0896 354.689 69.6896 351.049 68.4296 345.819C67.0896 340.259 67.9096 335.169 71.1996 330.029L65.8896 329.289C57.5396 328.109 57.4596 311.769 62.7396 306.379C61.4496 303.719 56.6596 306.929 53.3496 303.289C48.3696 297.819 49.2996 289.109 53.2896 283.639C53.6196 283.179 53.3496 281.289 52.7996 281.179C50.0896 280.739 42.4196 281.919 41.2796 273.099C39.8796 262.259 47.3796 258.649 44.6496 257.279C41.7996 255.829 37.9996 258.159 34.6296 254.159C32.9896 252.219 32.3296 249.669 32.2496 246.959C31.9196 236.529 37.0996 240.689 35.4296 231.709C32.0596 232.829 28.7496 232.779 26.3696 230.529C21.7696 226.209 22.3696 218.729 26.5296 214.269L26.4496 206.659C23.5496 208.409 21.4896 208.599 18.5896 207.289C13.2496 204.909 13.1696 196.259 17.1096 190.999L17.8196 182.209C15.5696 183.309 11.4996 184.209 8.7596 182.589C4.6496 180.209 3.7796 173.719 6.7896 170.159C8.3196 168.349 9.1696 166.899 8.8196 164.299C8.3496 160.599 9.3696 156.849 11.8296 154.609C14.5396 152.119 17.4396 151.489 21.3796 151.759C27.3496 152.139 31.4796 157.559 31.2096 163.669C31.0996 165.809 30.6396 167.689 30.0596 169.799C33.2396 167.469 36.1596 166.159 39.1996 167.529C41.8796 168.709 43.4696 171.279 43.9596 174.399C49.7096 176.259 53.2096 181.049 52.9396 187.269C52.7196 192.279 51.3196 197.289 45.7896 198.899C52.1996 204.619 52.6096 212.939 48.4696 220.029C52.2196 220.989 55.8896 221.839 57.9096 224.489C62.3396 230.349 62.0396 236.999 58.9196 243.379C63.8196 243.929 67.4096 246.199 69.2396 250.009C71.6996 255.159 71.7796 260.469 69.2696 266.219C79.8396 268.379 81.7796 277.119 80.4696 286.069C82.1096 292.119 83.9196 289.409 88.8696 294.969C91.2996 290.779 96.0396 289.299 100.61 289.359C110.3 289.439 114.08 295.789 114.65 304.439C116.92 304.299 120.62 305.479 122.86 305.539C126.61 305.619 129.49 303.159 133.54 305.599L133.21 294.869C132.85 283.699 135.32 289.259 136.36 281.099C136.72 278.249 136.63 275.899 136.25 273.019C135.18 264.589 136.85 265.159 139.29 259.359C141.48 254.099 130.61 260.019 127.88 251.859C125.99 246.279 126.92 240.659 130.67 236.589L130.34 232.019L126.67 232.399C123.49 232.699 119.2 229.879 118.49 226.709C116.33 216.859 121.2 217.049 121.06 212.909C120.9 208.279 121.61 203.659 125.19 200.509C128.97 197.169 135.98 196.429 140.33 199.389C147.12 204.019 147.67 213.429 143.01 219.869L148.84 221.789C155.93 224.119 157.82 236.219 153.79 243.029C156.2 243.909 159.51 244.779 161.32 246.509C167.31 252.229 167.18 265.309 160.83 270.519C164.77 279.609 163.46 276.809 163.62 286.809L162.09 289.489C170.49 290.749 173.8 297.729 173.67 305.279" fill="#90BEFB"/>
<path d="M123.7 191.179C122.2 195.889 119.16 199.499 113.44 199.859C112.7 204.599 109.66 207.829 105.45 208.129C101.12 208.459 97.8704 205.059 97.0704 200.469C96.5004 197.069 98.3004 193.819 100.55 190.839L100.69 182.629C90.4504 185.199 91.1904 180.769 89.8504 181.259C89.0604 181.559 86.1304 184.979 80.5704 182.959C79.2004 182.469 77.0704 179.889 76.7404 178.499C74.6004 169.249 71.3504 178.769 61.7104 174.339C59.4904 174.779 55.9604 175.849 53.4704 175.519C47.2304 174.729 44.0804 169.439 44.0304 163.699C44.0004 157.349 48.0304 151.789 54.7604 151.739C56.8404 151.739 59.4704 152.339 61.2204 152.889C64.9204 151.489 69.5204 151.389 73.1604 152.949C74.6104 152.489 76.5804 151.939 78.3304 151.769C84.9504 151.109 90.7304 156.309 90.2404 162.989L89.7504 169.259C92.5704 167.919 94.5704 166.709 96.8104 167.039C102.42 167.859 103.16 173.169 103.63 177.739C108.94 173.139 117.12 173.499 121.61 178.949C124.32 182.259 125.03 187.109 123.72 191.209" fill="#90BEFB"/>
<path d="M366.83 295.619C366.04 300.929 362.31 303.529 357.19 303.369C353 303.229 348.48 302.359 347.2 297.239C346.32 293.739 346.1 288.319 347.42 284.429C348.1 282.379 349.39 280.729 349.58 279.009C347.36 278.899 345.15 279.039 343.72 278.679C335.81 276.709 335.95 262.909 340.38 257.549C340.74 257.139 341.09 255.359 340.6 255.169C337.78 254.099 334.39 255.309 331.32 252.679C328.64 250.349 328.42 244.629 328.77 240.769C329.45 233.129 332.88 237.619 331.34 230.369C327.92 230.419 324.08 230.639 322.03 228.179C318.03 223.419 318.88 216.139 322.39 211.429L322.72 205.299C317.79 207.159 312.98 205.349 311.31 201.029C309.56 196.459 310.22 191.609 313.91 188.189L313.88 180.279C310.84 182.389 307.8 182.359 304.93 180.219C299.87 176.529 300.71 169.159 304.66 164.839L305.15 155.809C302.96 157.179 298.91 157.729 296.2 156.329C293.71 155.069 292.45 151.869 292.29 149.429C292.1 146.529 293.82 143.739 296.1 141.709L295.91 136.859C295.72 131.739 298.4 126.789 303.63 125.719C305.38 125.359 308.78 125.229 310.55 125.719C318.35 127.909 320.54 136.829 316.9 143.899C319.12 142.499 321.12 141.049 322.92 140.559C325.03 140.009 327.65 142.069 329.49 143.019C331.79 142.279 334.31 139.729 337.05 140.719C343.43 142.989 343.29 146.439 342.61 152.709C336.72 158.289 344.94 166.919 333.19 172.669C339.32 179.379 339.9 185.319 335.79 193.989C339.7 194.459 343.07 195.389 345.29 198.449C349.18 203.819 349.31 210.359 346.3 217.009C354.57 217.779 358.56 224.669 358.04 232.389C357.85 235.209 357.79 237.559 356.48 240.029C363.74 240.879 367.98 246.739 368.11 253.799C368.16 256.619 367.73 259.659 367.18 263.019C372.25 264.439 376.46 268.029 377.64 273.699C379.58 283.389 377.18 292.479 366.83 295.629" fill="#90BEFB"/>
<path d="M357.5 165.7C356.6 170.6 353.94 172.71 349.73 172.65C346.12 172.62 343 171.06 342.69 166.98C342.55 165.06 340.28 162.79 338.28 163.61C334.97 164.95 331.27 165.39 327.77 163.55C323.2 161.14 320.85 155.37 322.1 149.56C323.3 144.17 327.57 140.01 333.43 140.91L339.29 141.84C340.71 142.06 348.1 137.87 354.24 145.15C357.36 148.9 356.07 153.44 355.85 158.18C355.93 160.18 357.87 163.49 357.49 165.68" fill="#90BEFB"/>
<path d="M481.66 203.96V206.56C481.2 211.24 477.96 220.77 471.18 220.82C468.58 220.82 465.24 221.23 463.02 220.66L458.78 219.59C457.88 223.72 456.64 227.39 452.46 228.54C449.42 229.39 445.45 228.51 442.33 228.59C438.44 228.73 434.83 228.75 430.86 228.62C427.41 228.51 423.2 229.25 419.88 228.48C415.83 227.52 416.16 222.59 413.8 220.71C401.12 210.42 408.13 203.55 403.53 204.5C394.63 206.36 395.21 197.22 391.57 195.06C382.76 189.78 386.2 181.13 384.59 180.58C383.22 180.11 374.16 181.87 372.98 173.46C371.72 164.29 373.42 164.67 375.96 158.65C378.26 153.2 366 160.18 363.94 149.67C363.06 145.1 363.69 140.42 366.46 136.78C367.25 135.66 366.79 132.24 366.54 131.06C362.19 132.81 358.08 131.44 355.76 127.53C354.06 124.71 354.61 120.08 355.54 116.77L357.7 114.17L357.48 106.61C353.68 107.98 350.8 107.9 348.5 105.62C344.2 101.41 344.15 94.89 348.97 90.92L349.13 81.5C347.57 82.27 346.26 82.68 344.56 82.84C335.5 83.66 338.32 74.46 334.7 73.7C332.81 73.29 326.76 77.4 320.33 72.6C317.76 70.71 316.36 67.32 316.11 63.73C315.67 56.8 320.19 50.84 327.36 51.11C327.17 48.07 329.52 45.64 331.3 43.91C330.89 40.27 330.18 36.44 332.31 32.99C335.92 27.08 345.4 26.56 349.8 31.18C351.94 33.37 352.48 36.13 352.51 39.45C352.59 45.42 348.59 50.45 341.7 50.29C343.59 53.74 349.75 49.8 355.22 51.63C359.57 53.11 359.57 49.61 367.13 51.6C368.85 52.06 369.32 52.04 371.02 51.57C373.98 50.8 377.54 51.49 380.55 51.46L391.97 51.38C395.89 51.35 399.8 51.22 403.99 51.46C407.3 51.62 411.79 50.47 414.89 51.6C421.93 54.17 423.21 62.44 420.8 68.05C417.38 76.07 410.65 74.32 404.32 74.29C400.57 74.26 396.3 74.24 392.58 74.21C388.64 74.18 385.24 75.03 381.11 73.96C378.48 73.3 374.4 76.62 371.12 74.21C369.89 73.31 367.83 73.53 366.36 74.89C370.11 77.08 371.23 79.54 372.27 83.24C373.61 87.87 371.94 92.03 368.9 96.9C374.51 96.65 379.14 98.9 381.25 103.66C383.47 108.7 383.25 114.28 379.83 118.8C380.02 119.13 381.42 120.12 381.88 120.14C386.67 120.39 390.56 123.95 391.73 128.65C392.88 133.3 392.72 137.85 390.14 142.31C393.56 143.49 397.01 144.28 398.96 146.85C402.98 152.19 403.2 159.06 400.66 165.6C415.14 169.46 410.9 179.12 412.95 189.58C416.51 189.01 419 188.65 421.98 188.81C429.67 189.25 434.24 196.31 433.86 203.57L442.24 204.99C445.94 204.2 449.14 203.54 453.33 204.58C453 198.83 455.06 193.27 459.71 190.67C464.56 187.99 469.95 188.12 474.71 190.64C479.8 193.32 480.73 198.71 481.66 203.92" fill="#90BEFB"/>
<path d="M340.25 22.8197C338.64 25.3097 335.24 25.5597 332.48 26.0797C331.9 28.2997 331.08 31.4697 329.5 32.6197C327.14 34.3397 324.46 34.7597 321.29 33.1697C319.32 32.1597 318.28 28.9297 318.47 26.8497C318.69 24.4397 320.47 22.0897 322.63 20.7697L322.14 15.2097C321.73 10.7797 323.95 7.37974 328.05 5.87974C331.31 4.64974 334.67 4.58974 337.82 6.44974C343.13 9.59974 344.31 16.5497 340.26 22.8197" fill="#90BEFB"/>
<path d="M274.16 190.349C271.5 189.629 269.92 186.889 270.64 184.219C271.35 181.559 274.1 179.979 276.77 180.699C279.43 181.409 281.01 184.159 280.29 186.829C279.69 189.059 277.67 190.529 275.47 190.529C275.04 190.529 274.6 190.469 274.16 190.349Z" fill="black"/>
<path d="M264.821 167.41C262.091 166.96 260.251 164.38 260.701 161.66C261.161 158.93 263.731 157.09 266.461 157.54C269.181 158 271.021 160.57 270.571 163.3C270.161 165.74 268.041 167.48 265.641 167.48C265.371 167.48 265.091 167.46 264.821 167.41Z" fill="black"/>
<path d="M261.66 151.51C261.23 148.78 263.09 146.22 265.82 145.79C268.55 145.36 271.11 147.23 271.53 149.96C271.96 152.68 270.1 155.24 267.37 155.67C267.11 155.71 266.85 155.73 266.59 155.73C264.17 155.73 262.04 153.97 261.66 151.51Z" fill="black"/>
<path d="M254.44 144.429C251.69 144.159 249.69 141.71 249.96 138.96C250.23 136.21 252.68 134.209 255.42 134.479C258.17 134.749 260.18 137.2 259.91 139.94C259.65 142.53 257.48 144.449 254.94 144.449C254.78 144.449 254.61 144.449 254.44 144.429Z" fill="black"/>
<path d="M256.44 135.499C253.69 135.349 251.57 132.989 251.72 130.229C251.87 127.479 254.22 125.359 256.98 125.509C259.74 125.659 261.85 128.009 261.71 130.769C261.56 133.439 259.36 135.499 256.72 135.499H256.44Z" fill="black"/>
<path d="M243.99 121.43C241.23 121.43 239 119.18 239.01 116.42C239.01 113.66 241.27 111.42 244.03 111.43C246.79 111.43 249.02 113.69 249.01 116.45C249 119.21 246.77 121.43 244.01 121.43H243.99Z" fill="black"/>
<path d="M240.37 101.3C238.84 99.0004 239.46 95.8904 241.76 94.3704C244.06 92.8404 247.17 93.4604 248.7 95.7604C250.22 98.0604 249.6 101.16 247.3 102.69C246.45 103.26 245.49 103.53 244.54 103.53C242.92 103.53 241.33 102.75 240.37 101.3Z" fill="black"/>
<path d="M222.31 98.45C220.92 96.06 221.73 93 224.11 91.61C226.5 90.22 229.56 91.02 230.95 93.41C232.34 95.8 231.53 98.86 229.15 100.25C228.35 100.71 227.49 100.93 226.63 100.93C224.91 100.93 223.24 100.04 222.31 98.45Z" fill="black"/>
<path d="M219.781 80.099C219.001 77.459 220.511 74.669 223.161 73.889C225.811 73.109 228.591 74.619 229.371 77.259C230.161 79.909 228.641 82.689 225.991 83.479C225.521 83.619 225.041 83.689 224.571 83.689C222.421 83.689 220.431 82.279 219.781 80.099Z" fill="black"/>
<path d="M208.22 70.8689C208.1 68.1089 210.25 65.7789 213.01 65.6689C215.77 65.5489 218.1 67.6989 218.21 70.4589C218.32 73.2089 216.18 75.5389 213.42 75.6589H213.21C210.54 75.6589 208.33 73.5489 208.22 70.8689Z" fill="black"/>
<path d="M199.67 76.41C198.25 74.04 199.02 70.97 201.39 69.55C203.76 68.13 206.83 68.9 208.25 71.27C209.67 73.63 208.9 76.7 206.54 78.12C205.73 78.61 204.84 78.84 203.97 78.84C202.27 78.84 200.61 77.97 199.67 76.41Z" fill="black"/>
<path d="M198.05 68.4501C195.57 67.2401 194.54 64.2501 195.75 61.7601C196.96 59.2801 199.95 58.2501 202.43 59.4601C204.91 60.6701 205.95 63.6701 204.73 66.1501C203.87 67.9301 202.09 68.9601 200.24 68.9601C199.5 68.9601 198.75 68.7901 198.05 68.4501Z" fill="black"/>
<path d="M187.2 69.1192C185.35 67.0692 185.5 63.9092 187.55 62.0592C189.6 60.1992 192.76 60.3592 194.61 62.4092C196.46 64.4492 196.31 67.6092 194.26 69.4692C193.3 70.3392 192.1 70.7592 190.91 70.7592C189.54 70.7592 188.19 70.2092 187.2 69.1192Z" fill="black"/>
<path d="M190.97 65.15C188.22 64.87 186.23 62.41 186.51 59.67C186.79 56.92 189.25 54.92 192 55.2C194.74 55.49 196.74 57.95 196.45 60.69C196.19 63.26 194.02 65.18 191.49 65.18C191.32 65.18 191.14 65.18 190.97 65.15Z" fill="black"/>
<path d="M185.1 54.7301C183.48 52.4901 183.99 49.3601 186.23 47.7501C188.47 46.1301 191.59 46.6401 193.21 48.8801C194.83 51.1201 194.32 54.2401 192.08 55.8601C191.2 56.5001 190.17 56.8001 189.16 56.8001C187.61 56.8001 186.08 56.0801 185.1 54.7301Z" fill="black"/>
<path d="M169.611 50.2902C168.771 47.6502 170.221 44.8402 172.851 44.0002C175.481 43.1602 178.291 44.6102 179.141 47.2402C179.971 49.8702 178.531 52.6902 175.891 53.5202C175.391 53.6902 174.871 53.7602 174.371 53.7602C172.251 53.7602 170.291 52.4102 169.611 50.2902Z" fill="black"/>
<path d="M157.651 50.2689C156.811 47.6289 158.251 44.8189 160.881 43.9689C163.511 43.1289 166.331 44.5789 167.171 47.2089C168.011 49.8389 166.571 52.6489 163.941 53.4989C163.431 53.6589 162.921 53.7389 162.411 53.7389C160.291 53.7389 158.331 52.3889 157.651 50.2689Z" fill="black"/>
<path d="M144.84 54.8795C142.73 53.0995 142.46 49.9495 144.24 47.8395C146.03 45.7295 149.18 45.4595 151.29 47.2395C153.4 49.0195 153.67 52.1795 151.89 54.2895C150.9 55.4595 149.49 56.0595 148.06 56.0595C146.93 56.0595 145.78 55.6795 144.84 54.8795Z" fill="black"/>
<path d="M144.11 71.2691C142.29 69.1991 142.5 66.0291 144.58 64.2191C146.66 62.3991 149.82 62.6091 151.64 64.6891C153.46 66.7591 153.24 69.9191 151.17 71.7391C150.22 72.5691 149.05 72.9791 147.88 72.9791C146.49 72.9791 145.1 72.3991 144.11 71.2691Z" fill="black"/>
<path d="M158.02 72.4294C156.75 69.9694 157.72 66.9594 160.18 65.6994C162.63 64.4294 165.65 65.3994 166.91 67.8494C168.17 70.3094 167.21 73.3294 164.75 74.5894C164.02 74.9694 163.24 75.1394 162.47 75.1394C160.65 75.1394 158.9 74.1494 158.02 72.4294Z" fill="black"/>
<path d="M168.6 72.7896C167.38 70.3096 168.4 67.3096 170.88 66.0896C173.35 64.8696 176.35 65.8896 177.57 68.3696C178.79 70.8496 177.77 73.8496 175.29 75.0696C174.58 75.4196 173.83 75.5796 173.09 75.5796C171.24 75.5796 169.47 74.5596 168.6 72.7896Z" fill="black"/>
<path d="M172.51 73.4998C172.25 70.7498 174.26 68.3098 177.01 68.0398C179.76 67.7698 182.2 69.7898 182.47 72.5298C182.73 75.2798 180.72 77.7298 177.98 77.9898C177.81 78.0098 177.65 78.0198 177.49 78.0198C174.94 78.0198 172.77 76.0898 172.51 73.4998Z" fill="black"/>
<path d="M180.12 79.9394C179.91 77.1894 181.96 74.7894 184.72 74.5694C187.47 74.3594 189.88 76.4194 190.09 79.1694C190.3 81.9294 188.24 84.3294 185.49 84.5394C185.36 84.5394 185.23 84.5594 185.1 84.5594C182.51 84.5594 180.32 82.5594 180.12 79.9394Z" fill="black"/>
<path d="M186.801 80.4596C185.071 78.3196 185.391 75.1696 187.541 73.4296C189.681 71.6896 192.831 72.0196 194.571 74.1596C196.311 76.3096 195.981 79.4596 193.841 81.1996C192.911 81.9496 191.801 82.3096 190.691 82.3096C189.231 82.3096 187.791 81.6796 186.801 80.4596Z" fill="black"/>
<path d="M197.74 80.5989C196.39 78.1889 197.25 75.1489 199.66 73.7989C202.07 72.4489 205.12 73.3089 206.47 75.7189C207.81 78.1289 206.95 81.1789 204.54 82.5289C203.77 82.9589 202.93 83.1589 202.11 83.1589C200.36 83.1589 198.65 82.2389 197.74 80.5989Z" fill="black"/>
<path d="M203.43 97.8494C201.09 96.3894 200.37 93.2994 201.83 90.9594C203.28 88.6194 206.37 87.8994 208.71 89.3594C211.06 90.8194 211.77 93.8994 210.32 96.2394C209.37 97.7594 207.74 98.5994 206.07 98.5994C205.16 98.5994 204.25 98.3594 203.43 97.8494Z" fill="black"/>
<path d="M206.26 100.68C205.59 98.0101 207.21 95.2901 209.89 94.6101C212.56 93.9401 215.281 95.5601 215.961 98.2401C216.631 100.92 215.01 103.63 212.33 104.31C211.92 104.41 211.511 104.46 211.101 104.46C208.871 104.46 206.83 102.95 206.26 100.68Z" fill="black"/>
<path d="M217.55 105.339C216.45 102.799 217.62 99.8595 220.15 98.7595C222.68 97.6595 225.63 98.8295 226.73 101.359C227.83 103.889 226.66 106.839 224.13 107.929C223.48 108.209 222.8 108.349 222.14 108.349C220.21 108.349 218.37 107.219 217.55 105.339Z" fill="black"/>
<path d="M220.97 115.789C218.27 115.219 216.54 112.569 217.11 109.869C217.68 107.169 220.34 105.439 223.04 106.009C225.74 106.589 227.47 109.239 226.89 111.939C226.39 114.289 224.32 115.899 222.01 115.899C221.67 115.899 221.32 115.869 220.97 115.789Z" fill="black"/>
<path d="M215.05 114.371C212.29 114.241 210.15 111.911 210.27 109.151C210.4 106.391 212.73 104.251 215.49 104.381C218.25 104.501 220.39 106.831 220.26 109.591C220.14 112.271 217.93 114.371 215.27 114.371H215.05Z" fill="black"/>
<path d="M206.35 120.599C203.66 119.999 201.96 117.329 202.56 114.629C203.16 111.939 205.83 110.239 208.53 110.839C211.22 111.439 212.92 114.109 212.32 116.809C211.8 119.139 209.74 120.719 207.45 120.719C207.09 120.719 206.72 120.679 206.35 120.599Z" fill="black"/>
<path d="M198.76 121.82C196.17 120.88 194.82 118.02 195.76 115.42C196.7 112.82 199.56 111.48 202.16 112.41C204.75 113.35 206.1 116.22 205.16 118.81C204.43 120.85 202.51 122.12 200.46 122.12C199.9 122.12 199.32 122.02 198.76 121.82Z" fill="black"/>
<path d="M190.4 122.17C187.65 121.91 185.64 119.46 185.9 116.72C186.17 113.97 188.61 111.96 191.36 112.22C194.11 112.49 196.12 114.93 195.85 117.68C195.61 120.26 193.43 122.2 190.89 122.2C190.72 122.2 190.56 122.2 190.4 122.17Z" fill="black"/>
<path d="M183.23 121.52C180.47 121.27 178.45 118.84 178.7 116.09C178.95 113.34 181.38 111.31 184.13 111.56C186.88 111.81 188.91 114.25 188.66 117C188.42 119.59 186.24 121.54 183.69 121.54C183.54 121.54 183.38 121.53 183.23 121.52Z" fill="black"/>
<path d="M171.98 133.389C169.22 133.249 167.1 130.899 167.24 128.139C167.38 125.379 169.73 123.259 172.49 123.399C175.25 123.539 177.37 125.889 177.23 128.649C177.1 131.319 174.89 133.399 172.24 133.399C172.15 133.399 172.07 133.399 171.98 133.399V133.389Z" fill="black"/>
<path d="M167.501 134.541C167.281 131.791 169.331 129.381 172.091 129.161C174.841 128.941 177.251 130.991 177.471 133.741C177.691 136.501 175.631 138.911 172.881 139.131C172.741 139.131 172.611 139.131 172.471 139.131C169.891 139.131 167.711 137.151 167.501 134.531V134.541Z" fill="black"/>
<path d="M156.01 136.83C154.35 134.62 154.79 131.48 156.99 129.82C159.2 128.16 162.33 128.6 163.99 130.81C165.66 133.01 165.22 136.15 163.01 137.81C162.11 138.49 161.05 138.82 160 138.82C158.49 138.82 156.99 138.13 156.01 136.83Z" fill="black"/>
<path d="M144.181 138.579C142.051 136.829 141.741 133.679 143.491 131.539C145.241 129.409 148.391 129.099 150.531 130.859C152.661 132.609 152.971 135.759 151.221 137.889C150.231 139.099 148.801 139.719 147.351 139.719C146.231 139.719 145.111 139.349 144.181 138.579Z" fill="black"/>
<path d="M140.961 148.73C140.251 146.06 141.85 143.32 144.51 142.61C147.18 141.91 149.921 143.5 150.631 146.17C151.331 148.84 149.741 151.58 147.071 152.28C146.641 152.39 146.21 152.45 145.79 152.45C143.58 152.45 141.551 150.97 140.961 148.73Z" fill="black"/>
<path d="M152.57 153.87C152.43 151.11 154.55 148.76 157.3 148.61C160.06 148.47 162.41 150.59 162.56 153.35C162.7 156.1 160.58 158.46 157.83 158.6C157.74 158.6 157.65 158.6 157.56 158.6C154.92 158.6 152.71 156.53 152.57 153.86V153.87Z" fill="black"/>
<path d="M141.8 159.529C140.22 157.269 140.78 154.149 143.04 152.569C145.3 150.989 148.42 151.539 150 153.809C151.58 156.079 151.03 159.189 148.76 160.769C147.89 161.379 146.89 161.669 145.91 161.669C144.33 161.669 142.77 160.929 141.8 159.529Z" fill="black"/>
<path d="M141.33 178.3C139.42 176.31 139.5 173.14 141.49 171.23C143.49 169.33 146.65 169.4 148.56 171.39C150.47 173.39 150.4 176.56 148.4 178.46C147.43 179.39 146.19 179.85 144.95 179.85C143.63 179.85 142.31 179.33 141.33 178.3Z" fill="black"/>
<path d="M154.181 183.889C151.461 183.459 149.591 180.899 150.021 178.169C150.451 175.449 153.021 173.579 155.741 174.009C158.471 174.449 160.331 177.009 159.901 179.739C159.511 182.199 157.391 183.959 154.971 183.959C154.711 183.959 154.451 183.939 154.181 183.889Z" fill="black"/>
<path d="M160 197.1C157.66 195.64 156.95 192.55 158.41 190.21C159.88 187.87 162.97 187.16 165.31 188.62C167.65 190.08 168.36 193.17 166.9 195.51C165.95 197.03 164.32 197.86 162.65 197.86C161.75 197.86 160.83 197.62 160 197.1Z" fill="black"/>
<path d="M167.22 205.71C164.56 204.98 162.99 202.23 163.72 199.57C164.44 196.9 167.19 195.33 169.86 196.06C172.52 196.78 174.09 199.53 173.36 202.2C172.76 204.42 170.74 205.88 168.54 205.88C168.11 205.88 167.67 205.83 167.22 205.71Z" fill="black"/>
<path d="M174.84 206.34C172.08 206.3 169.88 204.03 169.92 201.27C169.96 198.51 172.24 196.3 175 196.35C177.76 196.39 179.96 198.66 179.92 201.42C179.88 204.16 177.65 206.35 174.92 206.35C174.92 206.35 174.87 206.35 174.84 206.35V206.34Z" fill="black"/>
<path d="M183.35 221.96C180.73 221.09 179.32 218.25 180.2 215.63C181.07 213.02 183.91 211.61 186.53 212.48C189.14 213.36 190.56 216.19 189.68 218.81C188.98 220.9 187.03 222.22 184.94 222.22C184.41 222.22 183.88 222.14 183.35 221.96Z" fill="black"/>
<path d="M190.47 217.619C190.2 214.869 192.2 212.419 194.95 212.139C197.69 211.859 200.15 213.859 200.42 216.609C200.7 219.359 198.7 221.809 195.95 222.089C195.78 222.109 195.61 222.109 195.44 222.109C192.91 222.109 190.74 220.189 190.47 217.619Z" fill="black"/>
<path d="M200.3 230.06C197.64 229.32 196.08 226.56 196.82 223.9C197.56 221.25 200.31 219.69 202.98 220.43C205.64 221.17 207.2 223.92 206.46 226.58C205.84 228.8 203.83 230.25 201.64 230.25C201.2 230.25 200.75 230.19 200.3 230.06Z" fill="black"/>
<path d="M206.71 225.42C206.65 222.65 208.84 220.36 211.6 220.3C214.36 220.24 216.64 222.43 216.71 225.19C216.77 227.95 214.59 230.24 211.83 230.3H211.71C209 230.3 206.77 228.14 206.71 225.42Z" fill="black"/>
<path d="M217.79 226.471C217.05 223.811 218.61 221.051 221.27 220.321C223.93 219.581 226.68 221.141 227.42 223.801C228.16 226.461 226.6 229.221 223.94 229.951C223.49 230.081 223.04 230.141 222.6 230.141C220.41 230.141 218.4 228.681 217.79 226.471Z" fill="black"/>
<path d="M226.83 221.57C224.21 220.71 222.77 217.89 223.63 215.26C224.48 212.64 227.3 211.2 229.93 212.06C232.55 212.91 233.99 215.73 233.14 218.36C232.45 220.47 230.49 221.81 228.38 221.81C227.87 221.81 227.35 221.74 226.83 221.57Z" fill="black"/>
<path d="M230.8 222.049C228.13 221.329 226.56 218.579 227.28 215.919C228 213.249 230.75 211.679 233.41 212.399C236.08 213.119 237.65 215.869 236.93 218.529C236.33 220.759 234.31 222.229 232.11 222.219C231.67 222.219 231.23 222.169 230.8 222.049Z" fill="black"/>
<path d="M242.79 222.47C240.03 222.4 237.85 220.1 237.92 217.34C237.99 214.58 240.28 212.4 243.04 212.47C245.8 212.54 247.98 214.84 247.91 217.6C247.84 220.31 245.62 222.47 242.92 222.47H242.79Z" fill="black"/>
<path d="M251.331 222.63C248.571 222.58 246.381 220.3 246.431 217.54C246.491 214.78 248.771 212.58 251.531 212.64C254.291 212.69 256.481 214.97 256.431 217.73C256.381 220.46 254.151 222.63 251.431 222.63H251.331Z" fill="black"/>
<path d="M256.99 215.649C255.05 213.679 255.07 210.519 257.03 208.579C258.99 206.639 262.16 206.659 264.1 208.619C266.04 210.579 266.02 213.749 264.06 215.689C263.08 216.649 261.81 217.129 260.55 217.129C259.26 217.129 257.97 216.639 256.99 215.649Z" fill="black"/>
<path d="M262.84 220.59C262.23 217.9 263.93 215.22 266.62 214.62C269.31 214.01 271.99 215.71 272.59 218.4C273.2 221.09 271.51 223.77 268.81 224.37C268.44 224.46 268.07 224.5 267.71 224.5C265.42 224.5 263.36 222.92 262.84 220.59Z" fill="black"/>
<path d="M271.89 225.74C271.89 222.98 274.13 220.74 276.89 220.74C279.65 220.74 281.89 222.98 281.89 225.74C281.89 228.5 279.65 230.74 276.89 230.74C274.13 230.74 271.89 228.5 271.89 225.74Z" fill="black"/>
<path d="M284.55 225.13C282.01 224.04 280.84 221.1 281.93 218.56C283.02 216.03 285.96 214.85 288.5 215.94C291.03 217.03 292.21 219.97 291.12 222.51C290.31 224.4 288.46 225.54 286.52 225.54C285.87 225.54 285.2 225.41 284.55 225.13Z" fill="black"/>
<path d="M282.04 206.92C281.78 204.17 283.79 201.73 286.54 201.46C289.29 201.2 291.73 203.21 291.99 205.96C292.26 208.71 290.24 211.15 287.5 211.42C287.33 211.42 287.17 211.44 287.01 211.44C284.46 211.44 282.29 209.5 282.04 206.92Z" fill="black"/>
<path d="M220.81 206.099C218.07 205.779 216.09 203.309 216.4 200.559C216.72 197.819 219.19 195.849 221.94 196.159C224.68 196.469 226.65 198.949 226.34 201.689C226.05 204.239 223.89 206.129 221.38 206.129C221.19 206.129 221 206.119 220.81 206.099Z" fill="black"/>
<path d="M214.69 205.441C211.94 205.151 209.95 202.691 210.24 199.941C210.54 197.201 213 195.211 215.74 195.501C218.49 195.791 220.48 198.251 220.19 201.001C219.91 203.571 217.74 205.471 215.22 205.471C215.04 205.471 214.87 205.471 214.69 205.441Z" fill="black"/>
<path d="M203.71 190.559C200.96 190.309 198.93 187.889 199.17 185.129C199.42 182.379 201.85 180.349 204.6 180.599C207.35 180.839 209.38 183.269 209.14 186.019C208.9 188.619 206.72 190.579 204.16 190.579C204.01 190.579 203.86 190.579 203.71 190.559Z" fill="black"/>
<path d="M195.29 190.85C192.53 190.71 190.4 188.36 190.54 185.61C190.67 182.85 193.02 180.72 195.78 180.86C198.54 180.99 200.66 183.34 200.52 186.1C200.39 188.77 198.19 190.85 195.54 190.85H195.29Z" fill="black"/>
<path d="M188.23 190.46C185.47 190.31 183.35 187.96 183.5 185.2C183.65 182.44 186.01 180.33 188.77 180.48C191.52 180.63 193.64 182.98 193.49 185.74C193.34 188.41 191.14 190.47 188.5 190.47C188.41 190.47 188.32 190.47 188.23 190.47V190.46Z" fill="black"/>
<path d="M178.4 188.94C177.24 186.43 178.33 183.46 180.84 182.3C183.35 181.14 186.32 182.23 187.48 184.74C188.64 187.24 187.55 190.21 185.04 191.37C184.36 191.69 183.65 191.84 182.94 191.84C181.06 191.84 179.25 190.76 178.4 188.94Z" fill="black"/>
<path d="M174.47 168.95C173.18 166.51 174.11 163.48 176.55 162.19C178.99 160.9 182.02 161.83 183.31 164.27C184.6 166.71 183.67 169.74 181.23 171.03C180.48 171.42 179.68 171.61 178.9 171.61C177.1 171.61 175.37 170.64 174.47 168.95Z" fill="black"/>
<path d="M176.97 146.12C175.93 143.56 177.14 140.64 179.7 139.59C182.25 138.54 185.17 139.76 186.22 142.32C187.27 144.87 186.05 147.79 183.5 148.84C182.88 149.1 182.23 149.22 181.6 149.22C179.63 149.22 177.77 148.05 176.97 146.12Z" fill="black"/>
<path d="M191.94 148.97C189.32 148.07 187.93 145.23 188.84 142.62C189.73 140 192.58 138.62 195.19 139.51C197.8 140.42 199.19 143.26 198.29 145.87C197.57 147.94 195.64 149.25 193.56 149.25C193.02 149.25 192.47 149.16 191.94 148.97Z" fill="black"/>
<path d="M202.95 148.73C200.38 147.72 199.12 144.82 200.13 142.25C201.14 139.68 204.05 138.42 206.62 139.43C209.19 140.44 210.45 143.34 209.44 145.91C208.66 147.88 206.78 149.08 204.78 149.08C204.17 149.08 203.55 148.97 202.95 148.73Z" fill="black"/>
<path d="M208.8 145.289C207.92 142.669 209.33 139.839 211.95 138.959C214.57 138.079 217.4 139.489 218.28 142.099C219.16 144.719 217.75 147.549 215.14 148.439C214.61 148.609 214.07 148.699 213.54 148.699C211.45 148.699 209.51 147.379 208.8 145.289Z" fill="black"/>
<path d="M220.12 149.809C217.39 149.369 215.53 146.809 215.97 144.079C216.41 141.359 218.97 139.499 221.7 139.939C224.43 140.369 226.28 142.939 225.85 145.669C225.45 148.129 223.33 149.879 220.92 149.879C220.65 149.879 220.39 149.849 220.12 149.809Z" fill="black"/>
<path d="M223.15 144.3C222.47 141.63 224.09 138.91 226.76 138.22C229.44 137.54 232.16 139.16 232.84 141.83C233.52 144.51 231.91 147.23 229.23 147.91C228.82 148.02 228.4 148.07 228 148.07C225.76 148.07 223.73 146.56 223.15 144.3Z" fill="black"/>
<path d="M227.49 154.441C225.43 152.601 225.25 149.431 227.09 147.371C228.93 145.321 232.09 145.141 234.15 146.981C236.21 148.821 236.39 151.981 234.55 154.041C233.56 155.141 232.19 155.711 230.82 155.711C229.63 155.711 228.44 155.291 227.49 154.441Z" fill="black"/>
<path d="M234.85 152.94C234.77 150.18 236.93 147.87 239.69 147.79C242.46 147.7 244.76 149.87 244.85 152.63C244.94 155.39 242.77 157.7 240.01 157.78H239.85C237.16 157.78 234.94 155.65 234.85 152.94Z" fill="black"/>
<path d="M235 177.099C233.62 174.709 234.44 171.649 236.84 170.269C239.23 168.889 242.29 169.709 243.66 172.109C245.04 174.499 244.22 177.559 241.82 178.939C241.04 179.389 240.18 179.599 239.34 179.599C237.61 179.599 235.92 178.699 235 177.099Z" fill="black"/>
<path d="M241.87 181.8C239.47 180.43 238.63 177.38 239.99 174.98C241.36 172.58 244.41 171.74 246.81 173.1C249.21 174.47 250.05 177.52 248.69 179.92C247.77 181.54 246.07 182.45 244.33 182.45C243.5 182.45 242.65 182.24 241.87 181.8Z" fill="black"/>
<path d="M233.58 190.711C230.85 190.281 228.98 187.731 229.41 185.001C229.83 182.271 232.39 180.411 235.12 180.831C237.85 181.261 239.72 183.821 239.29 186.541C238.9 189.011 236.78 190.771 234.36 190.771C234.1 190.771 233.84 190.751 233.58 190.711Z" fill="black"/>
<path d="M170.18 170.569C167.87 169.049 167.22 165.959 168.73 163.639C170.24 161.329 173.34 160.679 175.65 162.189C177.96 163.699 178.61 166.799 177.1 169.109C176.15 170.579 174.54 171.379 172.91 171.379C171.97 171.379 171.03 171.119 170.18 170.569Z" fill="black"/>
<path d="M167.91 169.111C165.59 167.611 164.92 164.521 166.41 162.201C167.9 159.881 171 159.201 173.32 160.691C175.64 162.191 176.32 165.281 174.82 167.601C173.87 169.091 172.26 169.901 170.61 169.901C169.69 169.901 168.75 169.641 167.91 169.111Z" fill="black"/>
<path d="M163.76 168.28C162.77 165.71 164.06 162.81 166.63 161.82C169.21 160.83 172.1 162.12 173.1 164.69C174.09 167.27 172.8 170.16 170.22 171.16C169.63 171.38 169.03 171.49 168.43 171.49C166.42 171.49 164.53 170.27 163.76 168.28Z" fill="black"/>
<path d="M158.8 170.84C156.35 169.56 155.41 166.54 156.69 164.09C157.97 161.64 160.99 160.7 163.43 161.98C165.88 163.25 166.83 166.27 165.55 168.72C164.66 170.43 162.92 171.41 161.12 171.41C160.34 171.41 159.54 171.22 158.8 170.84Z" fill="black"/>
<path d="M156.38 162.681C153.65 162.301 151.73 159.781 152.11 157.041C152.49 154.311 155.02 152.401 157.76 152.781C160.49 153.161 162.4 155.681 162.02 158.421C161.67 160.921 159.53 162.731 157.08 162.731C156.85 162.731 156.62 162.711 156.38 162.681Z" fill="black"/>
<path d="M157.46 153.121C156.33 150.591 157.46 147.641 159.98 146.511C162.5 145.381 165.46 146.511 166.59 149.041C167.72 151.561 166.58 154.521 164.06 155.641C163.4 155.941 162.71 156.081 162.03 156.081C160.12 156.081 158.29 154.971 157.46 153.121Z" fill="black"/>
<path d="M168.01 157.409C165.64 155.989 164.88 152.909 166.31 150.549C167.73 148.179 170.81 147.419 173.17 148.849C175.54 150.269 176.3 153.349 174.87 155.709C173.93 157.269 172.28 158.129 170.59 158.129C169.71 158.129 168.82 157.899 168.01 157.409Z" fill="black"/>
<path d="M176.73 155.52C174.08 154.76 172.55 151.98 173.32 149.33C174.08 146.68 176.86 145.15 179.51 145.92C182.16 146.69 183.69 149.46 182.92 152.11C182.29 154.3 180.29 155.72 178.12 155.72C177.66 155.72 177.19 155.66 176.73 155.52Z" fill="black"/>
<path d="M178.77 157.27C177.94 154.64 179.39 151.83 182.02 150.99C184.65 150.16 187.46 151.61 188.3 154.24C189.14 156.87 187.69 159.68 185.06 160.52C184.55 160.68 184.04 160.76 183.54 160.76C181.42 160.76 179.45 159.4 178.77 157.27Z" fill="black"/>
<path d="M175.56 168.72C174.3 166.26 175.27 163.25 177.72 161.99C180.18 160.72 183.19 161.69 184.46 164.15C185.72 166.6 184.75 169.62 182.29 170.88C181.56 171.26 180.78 171.44 180.01 171.44C178.2 171.44 176.45 170.44 175.56 168.72Z" fill="black"/>
<path d="M163.38 322.419C161.87 320.109 162.51 317.009 164.82 315.489C167.13 313.979 170.23 314.619 171.74 316.929C173.26 319.239 172.61 322.339 170.3 323.849C169.46 324.409 168.51 324.669 167.57 324.669C165.94 324.669 164.34 323.879 163.38 322.419Z" fill="black"/>
<path d="M153.43 326.25C150.67 326.1 148.56 323.74 148.72 320.98C148.87 318.22 151.23 316.11 153.99 316.27C156.75 316.42 158.86 318.78 158.7 321.54C158.55 324.2 156.35 326.26 153.71 326.26C153.62 326.26 153.52 326.26 153.43 326.26V326.25Z" fill="black"/>
<path d="M136.93 323.769C134.54 322.379 133.74 319.319 135.13 316.939C136.52 314.549 139.58 313.739 141.97 315.129C144.35 316.529 145.16 319.589 143.77 321.969C142.84 323.569 141.16 324.449 139.44 324.449C138.59 324.449 137.72 324.229 136.93 323.769Z" fill="black"/>
<path d="M128.9 330.699C127.95 328.109 129.28 325.239 131.87 324.289C134.46 323.339 137.33 324.669 138.29 327.259C139.24 329.849 137.91 332.719 135.31 333.679C134.74 333.879 134.16 333.979 133.59 333.979C131.55 333.979 129.64 332.729 128.9 330.699Z" fill="black"/>
<path d="M118 329.199C118 326.439 120.24 324.199 123 324.199C125.76 324.199 128 326.439 128 329.199C128 331.959 125.76 334.199 123 334.199C120.24 334.199 118 331.959 118 329.199Z" fill="black"/>
<path d="M106.17 329.319C106.15 326.559 108.37 324.299 111.13 324.279C113.9 324.259 116.15 326.479 116.17 329.249C116.19 332.009 113.97 334.259 111.2 334.279H111.17C108.42 334.279 106.19 332.069 106.17 329.319Z" fill="black"/>
<path d="M96.0198 329.56C95.9598 326.8 98.1598 324.53 100.92 324.47C103.68 324.42 105.96 326.62 106.01 329.38C106.07 332.14 103.87 334.42 101.11 334.47H101.01C98.2898 334.47 96.0698 332.29 96.0198 329.56Z" fill="black"/>
<path d="M95.6797 335.879C95.6797 333.119 97.9297 330.879 100.69 330.879C103.45 330.879 105.69 333.119 105.69 335.879C105.69 338.639 103.45 340.879 100.69 340.879C97.9297 340.879 95.6797 338.639 95.6797 335.879Z" fill="black"/>
<path d="M110.24 357.37C107.48 357.17 105.41 354.78 105.61 352.03C105.81 349.27 108.2 347.2 110.96 347.4C113.71 347.6 115.78 349.99 115.58 352.75C115.39 355.38 113.2 357.39 110.6 357.39C110.48 357.39 110.36 357.39 110.24 357.37Z" fill="black"/>
<path d="M108.56 364.99C105.9 364.23 104.37 361.46 105.14 358.8C105.9 356.15 108.67 354.62 111.32 355.38C113.98 356.15 115.51 358.92 114.74 361.57C114.11 363.76 112.11 365.19 109.94 365.19C109.48 365.19 109.02 365.13 108.56 364.99Z" fill="black"/>
<path d="M95.2803 371.859C94.3703 369.249 95.7502 366.399 98.3502 365.479C100.96 364.569 103.81 365.949 104.72 368.559C105.63 371.159 104.26 374.009 101.65 374.919C101.11 375.119 100.55 375.209 100 375.209C97.9403 375.209 96.0003 373.919 95.2803 371.859Z" fill="black"/>
<path d="M87.8205 381.159C86.4105 378.789 87.1905 375.719 89.5605 374.309C91.9405 372.899 95.0105 373.679 96.4205 376.059C97.8305 378.429 97.0505 381.499 94.6705 382.909C93.8705 383.389 92.9905 383.609 92.1305 383.609C90.4205 383.609 88.7505 382.739 87.8205 381.159Z" fill="black"/>
<path d="M79.9199 378.609C79.9199 375.849 82.1599 373.609 84.9199 373.609C87.6799 373.609 89.9199 375.849 89.9199 378.609C89.9199 381.369 87.6799 383.609 84.9199 383.609C82.1599 383.609 79.9199 381.369 79.9199 378.609Z" fill="black"/>
<path d="M72.9097 371.8C72.2697 369.12 73.9297 366.42 76.6197 365.78C79.2997 365.14 81.9997 366.8 82.6397 369.48C83.2797 372.17 81.6197 374.87 78.9297 375.51C78.5397 375.6 78.1497 375.64 77.7697 375.64C75.5097 375.64 73.4597 374.1 72.9097 371.8Z" fill="black"/>
<path d="M77.2504 358.889C74.7604 357.689 73.7204 354.699 74.9204 352.209C76.1104 349.719 79.1004 348.679 81.5904 349.879C84.0804 351.079 85.1204 354.069 83.9204 356.559C83.0604 358.339 81.2704 359.389 79.4104 359.389C78.6904 359.389 77.9504 359.229 77.2504 358.889Z" fill="black"/>
<path d="M63.5805 346.99C62.9305 344.3 64.5904 341.6 67.2704 340.96C69.9604 340.31 72.6505 341.96 73.3005 344.65C73.9505 347.33 72.3005 350.03 69.6105 350.68C69.2205 350.77 68.8205 350.82 68.4405 350.82C66.1805 350.82 64.1305 349.28 63.5805 346.99Z" fill="black"/>
<path d="M68.5204 334.239C66.1904 332.749 65.5104 329.659 66.9904 327.329C68.4804 324.999 71.5704 324.319 73.9004 325.809C76.2204 327.289 76.9104 330.379 75.4204 332.709C74.4704 334.209 72.8504 335.019 71.2004 335.019C70.2804 335.019 69.3504 334.769 68.5204 334.239Z" fill="black"/>
<path d="M65.1998 334.229C62.4698 333.849 60.5598 331.329 60.9398 328.589C61.3198 325.859 63.8498 323.949 66.5798 324.329C69.3198 324.709 71.2298 327.239 70.8498 329.969C70.4998 332.469 68.3598 334.279 65.8998 334.279C65.6698 334.279 65.4398 334.279 65.1998 334.229Z" fill="black"/>
<path d="M59.2497 309.939C57.2697 308.009 57.2397 304.849 59.1697 302.869C61.1097 300.899 64.2697 300.869 66.2397 302.799C68.2197 304.729 68.2497 307.889 66.3197 309.869C65.3397 310.869 64.0397 311.369 62.7497 311.369C61.4797 311.369 60.2197 310.899 59.2497 309.939Z" fill="black"/>
<path d="M49.6605 306.64C47.8005 304.6 47.9505 301.44 49.9905 299.58C52.0305 297.72 55.2005 297.87 57.0605 299.91C58.9205 301.95 58.7605 305.12 56.7205 306.97C55.7605 307.85 54.5605 308.28 53.3605 308.28C52.0005 308.28 50.6505 307.73 49.6605 306.64Z" fill="black"/>
<path d="M50.3605 287.66C48.1205 286.03 47.6405 282.9 49.2605 280.67C50.8905 278.44 54.0205 277.959 56.2505 279.579C58.4805 281.209 58.9705 284.34 57.3405 286.57C56.3605 287.91 54.8405 288.619 53.3005 288.619C52.2805 288.619 51.2505 288.31 50.3605 287.66Z" fill="black"/>
<path d="M51.8202 286.059C49.1202 285.519 47.3602 282.879 47.9102 280.169C48.4502 277.469 51.0902 275.709 53.7902 276.259C56.5002 276.799 58.2602 279.429 57.7102 282.139C57.2302 284.519 55.1502 286.159 52.8102 286.159C52.4902 286.159 52.1602 286.129 51.8202 286.059Z" fill="black"/>
<path d="M36.3303 273.729C35.9703 270.989 37.9003 268.479 40.6403 268.129C43.3803 267.769 45.8903 269.699 46.2403 272.439C46.6003 275.169 44.6703 277.679 41.9303 278.039C41.7103 278.069 41.5003 278.079 41.2803 278.079C38.8103 278.079 36.6603 276.249 36.3303 273.729Z" fill="black"/>
<path d="M42.4104 261.73C39.9404 260.49 38.9504 257.49 40.1804 255.02C41.4204 252.55 44.4204 251.55 46.8904 252.79C49.3604 254.03 50.3604 257.03 49.1204 259.5C48.2404 261.25 46.4804 262.26 44.6504 262.26C43.9004 262.26 43.1304 262.09 42.4104 261.73Z" fill="black"/>
<path d="M30.8098 257.359C29.0298 255.249 29.2998 252.099 31.4098 250.319C33.5198 248.539 36.6798 248.799 38.4598 250.919C40.2398 253.029 39.9698 256.179 37.8598 257.959C36.9198 258.749 35.7698 259.139 34.6398 259.139C33.2098 259.139 31.7998 258.539 30.8098 257.359Z" fill="black"/>
<path d="M27.2502 247.1C27.1702 244.34 29.3402 242.03 32.1002 241.95C34.8602 241.86 37.1602 244.03 37.2502 246.79C37.3302 249.55 35.1702 251.85 32.4102 251.94H32.2502C29.5602 251.94 27.3402 249.8 27.2502 247.1Z" fill="black"/>
<path d="M30.5105 232.61C30.0105 229.89 31.8005 227.28 34.5105 226.78C37.2305 226.27 39.8405 228.06 40.3405 230.78C40.8505 233.49 39.0605 236.1 36.3405 236.61C36.0305 236.67 35.7205 236.69 35.4205 236.69C33.0605 236.69 30.9605 235.01 30.5105 232.61Z" fill="black"/>
<path d="M22.9398 234.159C20.9298 232.259 20.8298 229.099 22.7298 227.089C24.6198 225.079 27.7798 224.979 29.7898 226.879C31.8098 228.769 31.8998 231.929 29.9998 233.939C29.0198 234.989 27.6898 235.519 26.3698 235.519C25.1398 235.519 23.8998 235.069 22.9398 234.159Z" fill="black"/>
<path d="M23.1199 217.91C21.0999 216.03 20.9899 212.87 22.8699 210.84C24.7599 208.83 27.9199 208.71 29.9399 210.6C31.9599 212.48 32.0699 215.65 30.1899 217.67C29.1999 218.72 27.8699 219.26 26.5299 219.26C25.3099 219.26 24.0799 218.81 23.1199 217.91Z" fill="black"/>
<path d="M21.4505 206.701C21.4205 203.941 23.6305 201.671 26.4005 201.651C29.1605 201.621 31.4205 203.831 31.4505 206.591C31.4805 209.351 29.2705 211.621 26.5005 211.651H26.4505C23.7105 211.651 21.4805 209.441 21.4505 206.701Z" fill="black"/>
<path d="M16.5297 211.83C14.0097 210.69 12.8997 207.73 14.0397 205.21C15.1797 202.7 18.1397 201.58 20.6597 202.72C23.1697 203.86 24.2897 206.82 23.1497 209.34C22.3097 211.18 20.4897 212.28 18.5897 212.28C17.8997 212.28 17.1997 212.13 16.5297 211.83Z" fill="black"/>
<path d="M14.1099 194.99C11.8999 193.33 11.4599 190.2 13.1099 187.99C14.7699 185.78 17.9099 185.33 20.1099 186.99C22.3199 188.65 22.7699 191.78 21.1099 193.99C20.1299 195.3 18.6299 195.99 17.1099 195.99C16.0599 195.99 15.0099 195.66 14.1099 194.99Z" fill="black"/>
<path d="M17.4204 187.181C14.6704 186.961 12.6204 184.551 12.8404 181.801C13.0604 179.041 15.4804 176.991 18.2304 177.221C20.9804 177.441 23.0304 179.851 22.8104 182.601C22.6004 185.221 20.4104 187.201 17.8404 187.201C17.7004 187.201 17.5604 187.201 17.4204 187.181Z" fill="black"/>
<path d="M6.23036 186.891C3.85036 185.491 3.05036 182.421 4.46036 180.051C5.86036 177.671 8.92036 176.871 11.3004 178.281C13.6804 179.681 14.4704 182.741 13.0704 185.121C12.1404 186.711 10.4704 187.591 8.76036 187.591C7.90036 187.591 7.02036 187.361 6.23036 186.891Z" fill="black"/>
<path d="M3.56007 173.969C1.46007 172.189 1.19007 169.029 2.98007 166.929C4.76007 164.819 7.92007 164.559 10.0201 166.339C12.1301 168.119 12.3901 171.279 10.6101 173.389C9.62007 174.549 8.21007 175.159 6.79007 175.159C5.65007 175.159 4.50007 174.769 3.56007 173.969Z" fill="black"/>
<path d="M3.87023 164.981C3.49023 162.241 5.41023 159.721 8.14023 159.341C10.8802 158.971 13.4002 160.891 13.7702 163.621C14.1502 166.361 12.2302 168.881 9.50023 169.251C9.27023 169.291 9.04023 169.301 8.81023 169.301C6.35023 169.301 4.21023 167.481 3.87023 164.981Z" fill="black"/>
<path d="M8.13018 157.98C6.27018 155.93 6.42018 152.77 8.46018 150.91C10.5002 149.05 13.6702 149.2 15.5302 151.24C17.3902 153.28 17.2402 156.45 15.1902 158.31C14.2402 159.18 13.0302 159.61 11.8302 159.61C10.4702 159.61 9.12018 159.06 8.13018 157.98Z" fill="black"/>
<path d="M21.0397 156.75C18.2897 156.56 16.2097 154.17 16.3997 151.42C16.5897 148.66 18.9697 146.58 21.7297 146.77C24.4797 146.96 26.5597 149.35 26.3697 152.1C26.1897 154.74 23.9897 156.76 21.3897 156.76C21.2697 156.76 21.1597 156.76 21.0397 156.76V156.75Z" fill="black"/>
<path d="M30.9805 168.659C28.2205 168.539 26.0905 166.199 26.2205 163.439C26.3405 160.679 28.6805 158.549 31.4405 158.669C34.2005 158.799 36.3305 161.139 36.2105 163.899C36.0805 166.579 33.8705 168.669 31.2205 168.669C31.1405 168.669 31.0605 168.669 30.9805 168.659Z" fill="black"/>
<path d="M28.7504 174.62C26.0804 173.9 24.5104 171.15 25.2404 168.49C25.9604 165.82 28.7104 164.25 31.3804 164.97C34.0404 165.7 35.6104 168.45 34.8904 171.12C34.2804 173.34 32.2604 174.8 30.0704 174.8C29.6304 174.8 29.1904 174.74 28.7504 174.62Z" fill="black"/>
<path d="M37.1503 172.089C34.6303 170.949 33.5103 167.989 34.6503 165.469C35.7803 162.949 38.7403 161.839 41.2603 162.969C43.7803 164.109 44.9003 167.069 43.7603 169.579C42.9303 171.429 41.1103 172.529 39.2003 172.529C38.5103 172.529 37.8103 172.389 37.1503 172.089Z" fill="black"/>
<path d="M39.0305 175.18C38.6005 172.45 40.4605 169.89 43.1905 169.46C45.9105 169.03 48.4805 170.89 48.9105 173.62C49.3405 176.35 47.4705 178.91 44.7505 179.34C44.4805 179.38 44.2205 179.4 43.9605 179.4C41.5505 179.4 39.4205 177.64 39.0305 175.18Z" fill="black"/>
<path d="M52.7301 192.26C49.9701 192.14 47.8301 189.81 47.9501 187.05C48.0701 184.29 50.4001 182.15 53.1601 182.27C55.9201 182.39 58.0601 184.72 57.9401 187.48C57.8301 190.16 55.6101 192.26 52.9501 192.26H52.7301Z" fill="black"/>
<path d="M40.9999 200.3C40.2299 197.65 41.7499 194.87 44.3999 194.1C47.0499 193.32 49.8299 194.85 50.5999 197.5C51.3799 200.15 49.8499 202.92 47.1999 203.7C46.7299 203.83 46.2599 203.9 45.7999 203.9C43.6299 203.9 41.6399 202.48 40.9999 200.3Z" fill="black"/>
<path d="M45.9701 224.349C43.5801 222.959 42.7701 219.899 44.1601 217.509C45.5601 215.129 48.6201 214.319 51.0001 215.709C53.3901 217.099 54.1901 220.169 52.8001 222.549C51.8801 224.139 50.2001 225.029 48.4801 225.029C47.6301 225.029 46.7601 224.809 45.9701 224.349Z" fill="black"/>
<path d="M53.9502 227.53C52.2802 225.33 52.7002 222.19 54.9002 220.52C57.0902 218.84 60.2302 219.26 61.9102 221.46C63.5802 223.66 63.1602 226.79 60.9602 228.47C60.0602 229.16 58.9902 229.49 57.9302 229.49C56.4302 229.49 54.9402 228.82 53.9502 227.53Z" fill="black"/>
<path d="M56.7404 247.87C54.2604 246.66 53.2404 243.66 54.4504 241.18C55.6604 238.7 58.6604 237.67 61.1404 238.89C63.6204 240.1 64.6504 243.1 63.4304 245.58C62.5604 247.35 60.7904 248.38 58.9404 248.38C58.2004 248.38 57.4504 248.22 56.7404 247.87Z" fill="black"/>
<path d="M64.7602 252.18C63.5602 249.69 64.6002 246.7 67.0902 245.5C69.5802 244.3 72.5702 245.35 73.7602 247.84C74.9602 250.32 73.9202 253.31 71.4302 254.51C70.7302 254.85 69.9902 255.01 69.2602 255.01C67.4102 255.01 65.6202 253.97 64.7602 252.18Z" fill="black"/>
<path d="M67.2801 270.79C64.7501 269.68 63.6001 266.73 64.7101 264.21C65.8201 261.68 68.7601 260.52 71.3001 261.63C73.8201 262.74 74.9801 265.69 73.8701 268.22C73.0501 270.09 71.2101 271.21 69.2901 271.21C68.6201 271.21 67.9401 271.08 67.2801 270.79Z" fill="black"/>
<path d="M79.7597 291.01C77.0297 290.6 75.1397 288.07 75.5397 285.33C75.9397 282.6 78.4797 280.71 81.2097 281.11C83.9397 281.51 85.8297 284.05 85.4297 286.78C85.0697 289.27 82.9297 291.06 80.4897 291.06C80.2497 291.06 80.0097 291.04 79.7597 291.01Z" fill="black"/>
<path d="M85.1602 298.279C83.3202 296.219 83.5002 293.059 85.5602 291.219C87.6202 289.389 90.7902 289.569 92.6202 291.629C94.4602 293.689 94.2802 296.849 92.2102 298.689C91.2602 299.539 90.0702 299.959 88.8902 299.959C87.5202 299.959 86.1502 299.389 85.1602 298.279Z" fill="black"/>
<path d="M100.57 294.34C97.8102 294.31 95.6002 292.04 95.6302 289.28C95.6702 286.51 97.9402 284.31 100.7 284.34C103.46 284.38 105.67 286.64 105.63 289.41C105.6 292.15 103.36 294.34 100.63 294.34H100.57Z" fill="black"/>
<path d="M109.69 304.76C109.5 302 111.59 299.62 114.34 299.44C117.1 299.25 119.48 301.34 119.66 304.09C119.85 306.85 117.76 309.23 115.01 309.41C114.9 309.42 114.78 309.42 114.67 309.42C112.06 309.42 109.86 307.4 109.69 304.76Z" fill="black"/>
<path d="M122.77 310.519C120 310.449 117.82 308.159 117.89 305.399C117.96 302.639 120.25 300.459 123.01 300.519C125.77 300.589 127.95 302.879 127.88 305.639C127.82 308.359 125.59 310.519 122.89 310.519H122.77Z" fill="black"/>
<path d="M130.99 309.859C128.62 308.439 127.85 305.359 129.28 302.999C130.7 300.629 133.77 299.869 136.14 301.289C138.51 302.709 139.27 305.789 137.85 308.149C136.91 309.709 135.25 310.579 133.56 310.579C132.68 310.579 131.79 310.349 130.99 309.859Z" fill="black"/>
<path d="M128.24 295C128.15 292.24 130.32 289.93 133.08 289.85C135.84 289.76 138.15 291.93 138.23 294.69C138.32 297.45 136.15 299.76 133.39 299.84C133.33 299.84 133.28 299.84 133.23 299.84C130.54 299.84 128.32 297.7 128.24 294.99V295Z" fill="black"/>
<path d="M135.75 286.039C133.01 285.689 131.07 283.179 131.42 280.439C131.77 277.709 134.27 275.769 137.01 276.119C139.75 276.469 141.69 278.969 141.34 281.709C141.02 284.229 138.87 286.079 136.39 286.079C136.18 286.079 135.97 286.059 135.75 286.039Z" fill="black"/>
<path d="M131.32 273.659C130.95 270.919 132.88 268.409 135.61 268.039C138.35 267.679 140.86 269.599 141.23 272.339C141.59 275.079 139.67 277.589 136.93 277.959C136.71 277.989 136.48 277.999 136.26 277.999C133.8 277.999 131.65 276.179 131.32 273.659Z" fill="black"/>
<path d="M137.38 263.949C134.83 262.879 133.63 259.949 134.7 257.409C135.77 254.859 138.7 253.659 141.25 254.729C143.79 255.799 144.99 258.729 143.92 261.279C143.12 263.189 141.26 264.339 139.31 264.339C138.66 264.339 138.01 264.219 137.38 263.949Z" fill="black"/>
<path d="M123.16 253.43C122.28 250.81 123.69 247.98 126.31 247.1C128.92 246.22 131.76 247.63 132.64 250.25C133.52 252.87 132.1 255.7 129.49 256.58C128.96 256.76 128.42 256.84 127.89 256.84C125.8 256.84 123.86 255.52 123.16 253.43Z" fill="black"/>
<path d="M127.3 240.25C125.27 238.38 125.14 235.21 127.01 233.18C128.88 231.15 132.04 231.02 134.07 232.89C136.11 234.76 136.24 237.92 134.37 239.95C133.38 241.02 132.04 241.57 130.69 241.57C129.48 241.57 128.26 241.13 127.3 240.25Z" fill="black"/>
<path d="M125.37 232.359C125.17 229.599 127.25 227.209 130 227.009C132.76 226.809 135.15 228.879 135.35 231.629C135.55 234.389 133.48 236.779 130.72 236.979C130.6 236.979 130.48 236.979 130.36 236.979C127.76 236.979 125.56 234.979 125.37 232.349V232.359Z" fill="black"/>
<path d="M121.72 232.899C121.43 230.149 123.43 227.689 126.17 227.399C128.92 227.119 131.38 229.109 131.66 231.859C131.95 234.609 129.96 237.069 127.21 237.349C127.03 237.369 126.86 237.379 126.68 237.379C124.16 237.379 121.99 235.469 121.72 232.899Z" fill="black"/>
<path d="M113.63 227.78C113.03 225.08 114.72 222.41 117.41 221.8C120.11 221.2 122.78 222.9 123.39 225.59C123.99 228.28 122.29 230.96 119.6 231.56C119.23 231.64 118.86 231.68 118.5 231.68C116.21 231.68 114.15 230.1 113.63 227.78Z" fill="black"/>
<path d="M116.08 213.059C115.99 210.299 118.15 207.989 120.91 207.889C123.67 207.799 125.98 209.959 126.08 212.709C126.17 215.479 124.01 217.789 121.25 217.879C121.19 217.879 121.13 217.879 121.07 217.879C118.39 217.879 116.18 215.749 116.08 213.049V213.059Z" fill="black"/>
<path d="M121.46 203.789C119.64 201.709 119.84 198.549 121.92 196.729C123.99 194.909 127.15 195.109 128.97 197.189C130.79 199.259 130.59 202.419 128.51 204.239C127.56 205.079 126.39 205.489 125.22 205.489C123.83 205.489 122.45 204.909 121.46 203.789Z" fill="black"/>
<path d="M137.54 203.5C135.26 201.95 134.67 198.84 136.22 196.55C137.77 194.27 140.88 193.68 143.16 195.23C145.45 196.78 146.04 199.89 144.49 202.18C143.52 203.6 141.95 204.37 140.35 204.37C139.38 204.37 138.4 204.09 137.54 203.5Z" fill="black"/>
<path d="M140.1 223.891C137.87 222.271 137.37 219.151 138.98 216.911C140.6 214.671 143.73 214.171 145.97 215.791C148.2 217.411 148.71 220.541 147.08 222.771C146.11 224.121 144.58 224.841 143.03 224.841C142.02 224.841 140.99 224.531 140.1 223.891Z" fill="black"/>
<path d="M147.3 226.509C144.68 225.639 143.25 222.819 144.12 220.189C144.98 217.569 147.8 216.139 150.43 217.009C153.05 217.869 154.48 220.689 153.61 223.319C152.92 225.419 150.97 226.759 148.87 226.759C148.35 226.759 147.82 226.679 147.3 226.509Z" fill="black"/>
<path d="M151.28 247.31C148.9 245.9 148.11 242.84 149.51 240.46C150.92 238.08 153.98 237.29 156.36 238.69C158.74 240.1 159.53 243.16 158.12 245.54C157.19 247.12 155.53 248 153.81 248C152.95 248 152.08 247.78 151.28 247.31Z" fill="black"/>
<path d="M157.89 250.09C155.9 248.18 155.82 245.02 157.73 243.02C159.64 241.03 162.81 240.95 164.8 242.86C166.8 244.77 166.87 247.93 164.96 249.93C163.98 250.96 162.66 251.48 161.35 251.48C160.1 251.48 158.86 251.02 157.89 250.09Z" fill="black"/>
<path d="M156.99 273.65C155.24 271.52 155.55 268.36 157.69 266.62C159.82 264.87 162.97 265.18 164.72 267.31C166.47 269.45 166.16 272.6 164.02 274.35C163.1 275.11 161.97 275.48 160.86 275.48C159.41 275.48 157.98 274.86 156.99 273.65Z" fill="black"/>
<path d="M158.65 286.85C158.6 284.09 160.8 281.82 163.56 281.77C166.33 281.72 168.6 283.93 168.65 286.69C168.69 289.45 166.49 291.72 163.73 291.77H163.64C160.92 291.77 158.69 289.58 158.65 286.85Z" fill="black"/>
<path d="M159.63 293.79C157.24 292.42 156.4 289.369 157.77 286.969C159.14 284.569 162.2 283.739 164.6 285.109C166.99 286.479 167.83 289.539 166.46 291.929C165.53 293.549 163.85 294.45 162.11 294.45C161.27 294.45 160.42 294.24 159.63 293.79Z" fill="black"/>
<path d="M173.6 310.249C170.84 310.189 168.64 307.909 168.69 305.149C168.75 302.389 171.03 300.199 173.79 300.249C176.55 300.299 178.75 302.579 178.69 305.349C178.64 308.069 176.42 310.249 173.7 310.249H173.6Z" fill="black"/>
<path d="M108.45 200.169C108.28 197.409 110.38 195.039 113.13 194.869C115.89 194.699 118.26 196.789 118.43 199.549C118.6 202.299 116.51 204.679 113.75 204.849C113.65 204.849 113.54 204.849 113.44 204.849C110.82 204.849 108.62 202.809 108.45 200.159V200.169Z" fill="black"/>
<path d="M100.46 208.48C100.26 205.73 102.34 203.33 105.09 203.14C107.85 202.94 110.24 205.01 110.44 207.77C110.64 210.52 108.56 212.91 105.81 213.11C105.69 213.11 105.57 213.13 105.45 213.13C102.85 213.13 100.65 211.12 100.46 208.48Z" fill="black"/>
<path d="M92.1404 201.311C91.6804 198.591 93.5004 196.001 96.2204 195.531C98.9404 195.061 101.53 196.891 102 199.611C102.47 202.331 100.65 204.921 97.9204 205.381C97.6304 205.441 97.3504 205.461 97.0604 205.461C94.6804 205.461 92.5704 203.741 92.1404 201.311Z" fill="black"/>
<path d="M97.5404 194.82C95.3404 193.16 94.8904 190.02 96.5504 187.82C98.2204 185.61 101.35 185.17 103.56 186.83C105.76 188.49 106.21 191.63 104.55 193.83C103.56 195.14 102.06 195.83 100.55 195.83C99.5004 195.83 98.4404 195.5 97.5404 194.82Z" fill="black"/>
<path d="M100.6 187.61C97.8403 187.57 95.6403 185.29 95.6903 182.53C95.7303 179.77 98.0103 177.57 100.77 177.61C103.53 177.66 105.73 179.93 105.69 182.69C105.64 185.43 103.41 187.61 100.69 187.61H100.6Z" fill="black"/>
<path d="M85.1506 182.959C84.2006 180.369 85.5306 177.499 88.1206 176.549C90.7106 175.599 93.5906 176.929 94.5406 179.519C95.4906 182.109 94.1606 184.979 91.5706 185.929C91.0006 186.139 90.4206 186.239 89.8506 186.239C87.8106 186.239 85.9006 184.989 85.1506 182.959Z" fill="black"/>
<path d="M78.8598 187.639C76.2598 186.689 74.9298 183.819 75.8698 181.229C76.8198 178.629 79.6898 177.299 82.2798 178.239C84.8698 179.189 86.2098 182.059 85.2598 184.649C84.5198 186.679 82.6098 187.939 80.5698 187.939C79.9998 187.939 79.4198 187.839 78.8598 187.639Z" fill="black"/>
<path d="M71.87 179.62C71.23 176.93 72.9 174.24 75.59 173.61C78.28 172.98 80.97 174.65 81.6 177.33C82.23 180.02 80.57 182.71 77.88 183.34C77.49 183.44 77.11 183.48 76.73 183.48C74.46 183.48 72.41 181.92 71.87 179.62Z" fill="black"/>
<path d="M59.6201 178.86C57.1101 177.71 56.0101 174.74 57.1601 172.23C58.3201 169.72 61.2901 168.62 63.8001 169.77C66.3001 170.93 67.4001 173.9 66.2501 176.41C65.4001 178.24 63.5901 179.32 61.7001 179.32C61.0001 179.32 60.2901 179.17 59.6201 178.86Z" fill="black"/>
<path d="M52.8102 180.449C50.0702 180.089 48.1502 177.569 48.5102 174.839C48.8702 172.099 51.3902 170.179 54.1202 170.539C56.8602 170.899 58.7902 173.409 58.4202 176.149C58.0902 178.669 55.9402 180.499 53.4702 180.499C53.2502 180.499 53.0302 180.479 52.8102 180.449Z" fill="black"/>
<path d="M39.0197 163.72C38.9997 160.96 41.2097 158.69 43.9797 158.67C46.7397 158.64 48.9997 160.86 49.0197 163.62C49.0497 166.38 46.8297 168.64 44.0697 168.67H44.0197C41.2797 168.67 39.0497 166.46 39.0197 163.72Z" fill="black"/>
<path d="M49.7501 151.749C49.7301 148.979 51.9501 146.729 54.7101 146.709C57.4701 146.679 59.7301 148.899 59.7501 151.669C59.7801 154.429 57.5501 156.679 54.7901 156.709H54.7501C52.0101 156.709 49.7801 154.489 49.7501 151.749Z" fill="black"/>
<path d="M59.7201 157.631C57.0901 156.811 55.6201 154.001 56.4401 151.371C57.2601 148.731 60.0701 147.261 62.7001 148.081C65.3401 148.911 66.8101 151.711 65.9801 154.351C65.3201 156.491 63.3401 157.861 61.2101 157.861C60.7201 157.861 60.2201 157.781 59.7201 157.631Z" fill="black"/>
<path d="M71.1797 157.51C68.6397 156.42 67.4597 153.48 68.5497 150.94C69.6397 148.4 72.5797 147.23 75.1197 148.32C77.6597 149.4 78.8297 152.34 77.7397 154.88C76.9297 156.78 75.0897 157.91 73.1497 157.91C72.4897 157.91 71.8197 157.78 71.1797 157.51Z" fill="black"/>
<path d="M73.3403 152.199C73.0903 149.449 75.1103 147.009 77.8603 146.759C80.6103 146.499 83.0403 148.519 83.3003 151.269C83.5603 154.019 81.5303 156.459 78.7903 156.709C78.6303 156.729 78.4703 156.739 78.3203 156.739C75.7603 156.739 73.5903 154.789 73.3403 152.199Z" fill="black"/>
<path d="M89.86 167.94C87.1 167.74 85.04 165.34 85.24 162.59C85.45 159.83 87.85 157.76 90.6 157.97C93.35 158.18 95.42 160.58 95.22 163.33C95.02 165.96 92.83 167.96 90.24 167.96C90.11 167.96 89.98 167.95 89.86 167.94Z" fill="black"/>
<path d="M89.3405 174.211C86.5905 173.991 84.5305 171.591 84.7505 168.831C84.9705 166.081 87.3805 164.021 90.1305 164.241C92.8805 164.461 94.9405 166.871 94.7205 169.621C94.5105 172.241 92.3205 174.231 89.7405 174.231C89.6105 174.231 89.4805 174.231 89.3405 174.211Z" fill="black"/>
<path d="M96.0703 171.949C93.3403 171.549 91.4503 169.009 91.8503 166.279C92.2503 163.549 94.8003 161.659 97.5303 162.059C100.26 162.459 102.15 164.999 101.74 167.739C101.38 170.219 99.2403 172.009 96.8103 172.009C96.5603 172.009 96.3203 171.989 96.0703 171.949Z" fill="black"/>
<path d="M98.6404 178.219C98.3604 175.469 100.36 173.019 103.11 172.739C105.86 172.459 108.31 174.459 108.59 177.209C108.87 179.949 106.87 182.409 104.12 182.689C103.95 182.709 103.78 182.709 103.61 182.709C101.07 182.709 98.9004 180.789 98.6404 178.219Z" fill="black"/>
<path d="M117.74 182.09C115.98 179.96 116.29 176.81 118.42 175.06C120.55 173.3 123.7 173.61 125.46 175.74C127.21 177.87 126.91 181.02 124.78 182.77C123.85 183.54 122.72 183.92 121.6 183.92C120.16 183.92 118.73 183.29 117.74 182.09Z" fill="black"/>
<path d="M122.18 195.94C119.55 195.1 118.1 192.28 118.95 189.65C119.79 187.03 122.6 185.58 125.23 186.42C127.86 187.26 129.31 190.08 128.47 192.71C127.79 194.83 125.83 196.18 123.71 196.18C123.2 196.18 122.69 196.1 122.18 195.94Z" fill="black"/>
<path d="M357.03 308.369C354.27 308.279 352.11 305.969 352.2 303.209C352.28 300.449 354.59 298.289 357.35 298.369C360.12 298.459 362.28 300.769 362.19 303.529C362.1 306.229 359.88 308.369 357.2 308.369H357.03Z" fill="black"/>
<path d="M342.35 298.459C341.68 295.779 343.3 293.059 345.98 292.389C348.66 291.709 351.38 293.339 352.05 296.019C352.72 298.699 351.1 301.409 348.42 302.089C348.01 302.189 347.6 302.239 347.2 302.239C344.96 302.239 342.92 300.719 342.35 298.459Z" fill="black"/>
<path d="M345.82 289.159C343.2 288.279 341.8 285.439 342.69 282.819C343.57 280.209 346.41 278.809 349.03 279.689C351.64 280.569 353.04 283.409 352.16 286.029C351.45 288.119 349.51 289.429 347.42 289.429C346.89 289.429 346.35 289.339 345.82 289.159Z" fill="black"/>
<path d="M349.03 283.98C346.29 283.67 344.31 281.2 344.62 278.45C344.92 275.71 347.39 273.73 350.14 274.04C352.88 274.34 354.86 276.82 354.55 279.56C354.27 282.12 352.1 284.01 349.59 284.01C349.4 284.01 349.22 284.01 349.03 283.98Z" fill="black"/>
<path d="M342.51 283.53C339.83 282.86 338.21 280.14 338.88 277.46C339.55 274.79 342.26 273.16 344.94 273.83C347.62 274.5 349.25 277.22 348.58 279.89C348.01 282.16 345.97 283.68 343.73 283.68C343.33 283.68 342.92 283.63 342.51 283.53Z" fill="black"/>
<path d="M337.2 261.399C335.07 259.639 334.77 256.489 336.53 254.359C338.29 252.229 341.44 251.929 343.57 253.689C345.7 255.449 346 258.599 344.24 260.729C343.25 261.929 341.82 262.539 340.38 262.539C339.26 262.539 338.13 262.169 337.2 261.399Z" fill="black"/>
<path d="M338.79 259.82C336.22 258.82 334.94 255.93 335.94 253.35C336.95 250.78 339.84 249.5 342.42 250.5C344.99 251.5 346.27 254.4 345.27 256.97C344.5 258.96 342.61 260.17 340.61 260.17C340 260.17 339.39 260.06 338.79 259.82Z" fill="black"/>
<path d="M328.07 256.469C325.97 254.669 325.73 251.509 327.53 249.419C329.33 247.319 332.48 247.079 334.58 248.879C336.68 250.669 336.92 253.829 335.12 255.929C334.13 257.079 332.73 257.669 331.32 257.669C330.17 257.669 329.01 257.279 328.07 256.469Z" fill="black"/>
<path d="M328.32 245.74C325.57 245.49 323.55 243.06 323.8 240.31C324.05 237.56 326.49 235.53 329.24 235.79C331.99 236.04 334.01 238.47 333.76 241.22C333.52 243.81 331.34 245.76 328.79 245.76C328.63 245.76 328.48 245.76 328.32 245.74Z" fill="black"/>
<path d="M326.46 231.39C325.89 228.69 327.62 226.04 330.32 225.47C333.03 224.9 335.68 226.63 336.24 229.33C336.82 232.04 335.09 234.69 332.38 235.25C332.04 235.33 331.69 235.36 331.35 235.36C329.03 235.36 326.96 233.75 326.46 231.39Z" fill="black"/>
<path d="M318.2 231.369C316.44 229.249 316.72 226.099 318.84 224.329C320.96 222.559 324.12 222.849 325.89 224.969C327.65 227.089 327.37 230.249 325.24 232.009C324.31 232.789 323.18 233.169 322.05 233.169C320.62 233.169 319.19 232.559 318.2 231.369Z" fill="black"/>
<path d="M319.42 215.43C317.2 213.78 316.74 210.65 318.39 208.43C320.04 206.22 323.17 205.76 325.39 207.41C327.6 209.06 328.06 212.19 326.41 214.41C325.43 215.72 323.92 216.42 322.4 216.42C321.36 216.42 320.31 216.1 319.42 215.43Z" fill="black"/>
<path d="M322.46 210.28C319.7 210.13 317.59 207.78 317.74 205.02C317.88 202.26 320.24 200.15 323 200.29C325.75 200.44 327.87 202.8 327.72 205.55C327.58 208.22 325.37 210.29 322.74 210.29C322.65 210.29 322.55 210.29 322.46 210.28Z" fill="black"/>
<path d="M306.65 202.82C305.65 200.25 306.94 197.35 309.51 196.35C312.09 195.36 314.98 196.64 315.98 199.21C316.97 201.79 315.69 204.68 313.12 205.68C312.53 205.91 311.92 206.02 311.32 206.02C309.31 206.02 307.42 204.8 306.65 202.82Z" fill="black"/>
<path d="M310.25 191.569C308.37 189.549 308.49 186.379 310.52 184.509C312.55 182.629 315.71 182.759 317.58 184.779C319.46 186.809 319.34 189.969 317.31 191.849C316.35 192.739 315.13 193.179 313.92 193.179C312.57 193.179 311.23 192.639 310.25 191.569Z" fill="black"/>
<path d="M308.89 180.28C308.89 177.53 311.11 175.28 313.87 175.27C316.63 175.27 318.88 177.49 318.89 180.25C318.9 183.01 316.67 185.26 313.91 185.27H313.89C311.14 185.27 308.9 183.04 308.89 180.28Z" fill="black"/>
<path d="M301.96 184.23C299.74 182.58 299.27 179.45 300.92 177.23C302.57 175.02 305.7 174.55 307.92 176.2C310.13 177.84 310.6 180.97 308.95 183.19C307.97 184.51 306.46 185.21 304.93 185.21C303.9 185.21 302.85 184.89 301.96 184.23Z" fill="black"/>
<path d="M301.29 168.52C299.25 166.66 299.11 163.5 300.97 161.46C302.83 159.42 305.99 159.28 308.03 161.14C310.07 163 310.22 166.16 308.36 168.2C307.37 169.28 306.02 169.83 304.66 169.83C303.46 169.83 302.25 169.4 301.29 168.52Z" fill="black"/>
<path d="M304.88 160.79C302.13 160.64 300.01 158.28 300.16 155.52C300.31 152.76 302.67 150.65 305.43 150.8C308.19 150.95 310.3 153.31 310.15 156.07C310 158.73 307.8 160.79 305.16 160.79H304.88Z" fill="black"/>
<path d="M293.91 160.761C291.46 159.501 290.49 156.481 291.76 154.021C293.03 151.571 296.04 150.611 298.5 151.871C300.95 153.141 301.91 156.151 300.65 158.611C299.76 160.331 298.01 161.321 296.2 161.321C295.43 161.321 294.65 161.141 293.91 160.761Z" fill="black"/>
<path d="M287.3 149.75C287.12 147 289.2 144.61 291.96 144.43C294.71 144.24 297.09 146.33 297.28 149.08C297.46 151.84 295.38 154.22 292.62 154.41C292.51 154.41 292.4 154.42 292.29 154.42C289.68 154.42 287.48 152.39 287.3 149.75Z" fill="black"/>
<path d="M292.36 145.029C290.53 142.959 290.71 139.799 292.77 137.959C294.83 136.129 297.99 136.309 299.83 138.369C301.67 140.429 301.48 143.589 299.42 145.429C298.47 146.279 297.28 146.699 296.1 146.699C294.72 146.699 293.35 146.129 292.36 145.029Z" fill="black"/>
<path d="M290.91 137.05C290.8 134.29 292.95 131.96 295.7 131.86C298.46 131.75 300.79 133.89 300.9 136.65C301.01 139.41 298.86 141.74 296.1 141.85H295.9C293.23 141.85 291.02 139.74 290.91 137.05Z" fill="black"/>
<path d="M298.72 126.71C298.17 124.01 299.92 121.37 302.62 120.81C305.33 120.26 307.97 122.01 308.52 124.71C309.08 127.42 307.33 130.06 304.62 130.61C304.29 130.68 303.95 130.71 303.62 130.71C301.29 130.71 299.21 129.08 298.72 126.71Z" fill="black"/>
<path d="M309.21 130.529C306.55 129.789 304.99 127.029 305.73 124.369C306.47 121.709 309.23 120.149 311.89 120.889C314.55 121.639 316.11 124.389 315.37 127.049C314.75 129.259 312.74 130.709 310.55 130.709C310.11 130.709 309.66 130.649 309.21 130.529Z" fill="black"/>
<path d="M314.61 148.33C312.15 147.07 311.19 144.05 312.46 141.59C313.72 139.14 316.74 138.18 319.19 139.45C321.64 140.71 322.61 143.73 321.34 146.18C320.46 147.9 318.71 148.89 316.9 148.89C316.12 148.89 315.34 148.71 314.61 148.33Z" fill="black"/>
<path d="M318.1 141.86C317.37 139.2 318.94 136.45 321.61 135.72C324.27 135 327.02 136.57 327.75 139.24C328.47 141.9 326.9 144.65 324.24 145.37C323.8 145.49 323.35 145.55 322.92 145.55C320.72 145.55 318.7 144.09 318.1 141.86Z" fill="black"/>
<path d="M327.18 147.439C324.73 146.169 323.78 143.139 325.06 140.699C326.34 138.249 329.36 137.299 331.81 138.579C334.26 139.859 335.2 142.879 333.92 145.329C333.03 147.039 331.29 148.009 329.49 148.009C328.71 148.009 327.92 147.829 327.18 147.439Z" fill="black"/>
<path d="M335.35 145.42C332.76 144.48 331.41 141.62 332.34 139.02C333.28 136.42 336.14 135.07 338.74 136.01C341.34 136.94 342.69 139.81 341.75 142.41C341.02 144.44 339.1 145.71 337.05 145.71C336.48 145.71 335.91 145.62 335.35 145.42Z" fill="black"/>
<path d="M342.061 157.669C339.321 157.369 337.331 154.909 337.631 152.159C337.931 149.419 340.4 147.429 343.15 147.729C345.89 148.029 347.871 150.499 347.571 153.249C347.301 155.799 345.13 157.699 342.61 157.699C342.43 157.699 342.251 157.699 342.061 157.669Z" fill="black"/>
<path d="M328.7 174.859C327.48 172.379 328.51 169.379 330.99 168.169C333.47 166.959 336.46 167.979 337.68 170.459C338.89 172.939 337.87 175.929 335.38 177.149C334.68 177.499 333.93 177.659 333.19 177.659C331.34 177.659 329.57 176.629 328.7 174.859Z" fill="black"/>
<path d="M333.65 198.499C331.15 197.319 330.09 194.339 331.27 191.839C332.45 189.349 335.43 188.279 337.93 189.459C340.42 190.639 341.49 193.619 340.31 196.119C339.45 197.929 337.66 198.979 335.78 198.979C335.07 198.979 334.34 198.829 333.65 198.499Z" fill="black"/>
<path d="M341.24 201.379C339.62 199.139 340.121 196.009 342.351 194.389C344.591 192.769 347.71 193.279 349.34 195.509C350.96 197.749 350.45 200.869 348.22 202.489C347.33 203.129 346.311 203.439 345.291 203.439C343.741 203.439 342.21 202.729 341.24 201.379Z" fill="black"/>
<path d="M344.24 221.56C341.72 220.42 340.61 217.46 341.74 214.95C342.88 212.43 345.84 211.31 348.36 212.45C350.88 213.59 351.99 216.55 350.85 219.07C350.02 220.91 348.2 222.01 346.3 222.01C345.61 222.01 344.91 221.86 344.24 221.56Z" fill="black"/>
<path d="M357.71 237.381C354.95 237.191 352.87 234.811 353.05 232.051C353.24 229.301 355.62 227.211 358.38 227.401C361.13 227.581 363.22 229.971 363.03 232.721C362.86 235.361 360.66 237.391 358.05 237.391C357.94 237.391 357.82 237.391 357.71 237.391V237.381Z" fill="black"/>
<path d="M354.13 244.439C351.69 243.139 350.77 240.109 352.07 237.669C353.37 235.229 356.4 234.309 358.84 235.609C361.27 236.909 362.19 239.939 360.89 242.379C359.99 244.069 358.27 245.029 356.48 245.029C355.68 245.029 354.88 244.839 354.13 244.439Z" fill="black"/>
<path d="M363.12 253.89C363.06 251.13 365.26 248.85 368.02 248.79C370.78 248.74 373.06 250.94 373.12 253.7C373.17 256.46 370.97 258.74 368.21 258.79H368.11C365.4 258.79 363.17 256.62 363.12 253.89Z" fill="black"/>
<path d="M366.38 267.959C363.66 267.509 361.81 264.939 362.25 262.219C362.7 259.489 365.27 257.639 367.99 258.089C370.72 258.529 372.57 261.099 372.12 263.819C371.72 266.279 369.6 268.019 367.19 268.019C366.93 268.019 366.65 267.999 366.38 267.959Z" fill="black"/>
<path d="M372.75 274.711C372.19 272.011 373.92 269.361 376.63 268.801C379.33 268.241 381.98 269.971 382.54 272.681C383.1 275.381 381.36 278.031 378.66 278.591C378.31 278.661 377.97 278.701 377.63 278.701C375.32 278.701 373.24 277.071 372.75 274.711Z" fill="black"/>
<path d="M362.05 297.079C361.24 294.439 362.73 291.639 365.38 290.839C368.02 290.039 370.81 291.529 371.61 294.169C372.42 296.809 370.93 299.599 368.29 300.409C367.8 300.549 367.31 300.619 366.83 300.619C364.69 300.619 362.7 299.239 362.05 297.079Z" fill="black"/>
<path d="M349.64 177.649C346.88 177.599 344.68 175.319 344.73 172.559C344.78 169.799 347.06 167.599 349.83 167.649C352.59 167.699 354.78 169.979 354.73 172.739C354.68 175.469 352.45 177.649 349.74 177.649H349.64Z" fill="black"/>
<path d="M337.71 167.349C337.51 164.599 339.58 162.199 342.33 161.999C345.08 161.789 347.48 163.859 347.68 166.619C347.89 169.369 345.82 171.769 343.06 171.969C342.94 171.969 342.81 171.969 342.69 171.969C340.1 171.969 337.9 169.969 337.71 167.339V167.349Z" fill="black"/>
<path d="M333.66 165.51C332.61 162.96 333.84 160.04 336.39 158.99C338.95 157.94 341.87 159.16 342.91 161.72C343.96 164.27 342.74 167.19 340.19 168.24C339.57 168.5 338.92 168.62 338.29 168.62C336.32 168.62 334.46 167.45 333.66 165.51Z" fill="black"/>
<path d="M325.46 167.99C323.01 166.71 322.07 163.69 323.35 161.24C324.63 158.8 327.65 157.85 330.1 159.13C332.55 160.41 333.49 163.43 332.21 165.88C331.31 167.59 329.58 168.56 327.77 168.56C326.99 168.56 326.2 168.38 325.46 167.99Z" fill="black"/>
<path d="M321.05 154.46C318.35 153.87 316.64 151.21 317.23 148.51C317.81 145.82 320.47 144.1 323.17 144.69C325.87 145.27 327.58 147.93 327 150.63C326.49 152.97 324.42 154.57 322.12 154.57C321.77 154.57 321.41 154.54 321.05 154.46Z" fill="black"/>
<path d="M332.68 145.869C329.95 145.439 328.08 142.889 328.5 140.159C328.93 137.429 331.48 135.559 334.21 135.979C336.94 136.409 338.81 138.959 338.39 141.689C338.01 144.159 335.88 145.929 333.45 145.929C333.2 145.929 332.94 145.909 332.68 145.869Z" fill="black"/>
<path d="M338.52 146.79C335.79 146.36 333.93 143.79 334.36 141.07C334.8 138.34 337.36 136.48 340.09 136.92C342.81 137.35 344.67 139.91 344.24 142.64C343.85 145.1 341.73 146.86 339.31 146.85C339.05 146.85 338.78 146.83 338.52 146.79Z" fill="black"/>
<path d="M350.42 148.38C348.65 146.27 348.92 143.12 351.03 141.34C353.14 139.56 356.3 139.83 358.07 141.95C359.85 144.06 359.58 147.21 357.47 148.99C356.53 149.78 355.39 150.17 354.25 150.17C352.83 150.17 351.41 149.56 350.42 148.38Z" fill="black"/>
<path d="M355.64 163.189C352.88 163.059 350.75 160.729 350.87 157.969C351 155.209 353.34 153.069 356.09 153.199C358.85 153.329 360.98 155.659 360.86 158.419C360.74 161.099 358.53 163.199 355.87 163.199C355.79 163.199 355.71 163.199 355.64 163.199V163.189Z" fill="black"/>
<path d="M356.64 170.62C353.92 170.14 352.11 167.55 352.58 164.83C353.06 162.11 355.65 160.3 358.37 160.77C361.09 161.25 362.91 163.84 362.43 166.56C362.01 168.99 359.9 170.7 357.51 170.7C357.23 170.7 356.94 170.67 356.64 170.62Z" fill="black"/>
<path d="M476.67 206.561C476.67 203.791 478.91 201.561 481.67 201.561C484.43 201.561 486.67 203.791 486.67 206.561C486.67 209.321 484.43 211.561 481.67 211.561C478.91 211.561 476.67 209.321 476.67 206.561Z" fill="black"/>
<path d="M466.18 220.86C466.16 218.1 468.38 215.84 471.14 215.82C473.9 215.8 476.16 218.02 476.18 220.78C476.21 223.54 473.98 225.8 471.22 225.82H471.18C468.44 225.82 466.2 223.61 466.18 220.86Z" fill="black"/>
<path d="M461.78 225.5C459.1 224.8 457.5 222.08 458.19 219.41C458.87 216.73 461.6 215.12 464.28 215.82C466.95 216.51 468.56 219.23 467.87 221.9C467.28 224.16 465.25 225.66 463.03 225.66C462.61 225.66 462.19 225.61 461.78 225.5Z" fill="black"/>
<path d="M457.56 224.439C454.88 223.759 453.26 221.049 453.93 218.369C454.61 215.689 457.32 214.069 460 214.739C462.68 215.409 464.3 218.129 463.63 220.809C463.06 223.079 461.02 224.589 458.78 224.589C458.38 224.589 457.97 224.539 457.56 224.439Z" fill="black"/>
<path d="M447.64 229.86C446.91 227.2 448.47 224.45 451.13 223.72C453.8 222.98 456.55 224.55 457.28 227.21C458.01 229.88 456.45 232.63 453.78 233.36C453.34 233.48 452.89 233.54 452.46 233.54C450.26 233.54 448.25 232.08 447.64 229.86Z" fill="black"/>
<path d="M437.33 228.73C437.26 225.97 439.43 223.67 442.19 223.6C444.95 223.52 447.25 225.69 447.33 228.45C447.4 231.22 445.23 233.52 442.47 233.59H442.33C439.63 233.59 437.41 231.44 437.33 228.73Z" fill="black"/>
<path d="M430.69 233.62C427.93 233.52 425.77 231.21 425.86 228.45C425.96 225.69 428.28 223.53 431.03 223.62C433.8 223.72 435.95 226.03 435.86 228.79C435.76 231.5 433.55 233.62 430.87 233.62H430.69Z" fill="black"/>
<path d="M418.75 233.35C416.06 232.73 414.39 230.04 415.01 227.35C415.64 224.66 418.32 222.99 421.01 223.61C423.7 224.24 425.38 226.93 424.75 229.61C424.22 231.92 422.16 233.48 419.89 233.48C419.51 233.48 419.13 233.44 418.75 233.35Z" fill="black"/>
<path d="M410.68 224.609C408.52 222.879 408.18 219.729 409.91 217.579C411.64 215.429 414.79 215.079 416.94 216.809C419.09 218.539 419.44 221.689 417.71 223.839C416.72 225.069 415.27 225.709 413.8 225.709C412.71 225.709 411.6 225.349 410.68 224.609Z" fill="black"/>
<path d="M398.65 205.519C398.08 202.819 399.82 200.169 402.52 199.609C405.23 199.049 407.87 200.779 408.44 203.489C409 206.189 407.26 208.839 404.56 209.399C404.21 209.469 403.87 209.509 403.53 209.509C401.22 209.509 399.14 207.879 398.65 205.519Z" fill="black"/>
<path d="M389.02 199.359C386.65 197.949 385.87 194.879 387.28 192.499C388.69 190.129 391.76 189.349 394.13 190.759C396.51 192.169 397.29 195.239 395.88 197.619C394.94 199.189 393.28 200.059 391.57 200.059C390.7 200.059 389.82 199.829 389.02 199.359Z" fill="black"/>
<path d="M382.99 185.309C380.38 184.429 378.98 181.589 379.86 178.969C380.75 176.359 383.59 174.959 386.21 175.839C388.82 176.729 390.22 179.569 389.33 182.189C388.63 184.269 386.68 185.579 384.6 185.579C384.07 185.579 383.52 185.489 382.99 185.309Z" fill="black"/>
<path d="M368.041 174.149C367.661 171.419 369.561 168.889 372.301 168.509C375.031 168.129 377.561 170.039 377.941 172.769C378.331 175.499 376.421 178.029 373.681 178.409C373.451 178.449 373.221 178.459 372.981 178.459C370.531 178.459 368.391 176.659 368.041 174.149Z" fill="black"/>
<path d="M374.03 163.259C371.48 162.179 370.3 159.249 371.37 156.709C372.44 154.159 375.38 152.969 377.92 154.049C380.47 155.119 381.65 158.059 380.58 160.599C379.77 162.509 377.92 163.659 375.97 163.659C375.32 163.659 374.66 163.529 374.03 163.259Z" fill="black"/>
<path d="M359.05 150.63C358.52 147.92 360.29 145.3 363 144.77C365.71 144.24 368.34 146.01 368.87 148.72C369.39 151.43 367.63 154.05 364.92 154.58C364.59 154.64 364.27 154.68 363.95 154.67C361.61 154.67 359.52 153.02 359.05 150.63Z" fill="black"/>
<path d="M363.45 140.759C361.26 139.089 360.82 135.959 362.49 133.759C364.16 131.559 367.3 131.129 369.5 132.799C371.7 134.469 372.13 137.599 370.46 139.799C369.48 141.099 367.98 141.779 366.47 141.779C365.42 141.779 364.36 141.449 363.45 140.759Z" fill="black"/>
<path d="M361.66 132.089C361.1 129.389 362.83 126.729 365.53 126.169C368.23 125.599 370.88 127.329 371.45 130.029C372.02 132.729 370.29 135.379 367.59 135.949C367.24 136.029 366.89 136.059 366.55 136.059C364.24 136.059 362.16 134.439 361.66 132.089Z" fill="black"/>
<path d="M351.47 130.079C350.07 127.709 350.85 124.639 353.22 123.229C355.59 121.819 358.66 122.599 360.07 124.979C361.48 127.349 360.7 130.419 358.33 131.829C357.53 132.299 356.65 132.529 355.78 132.529C354.07 132.529 352.41 131.659 351.47 130.079Z" fill="black"/>
<path d="M354.2 121.58C351.54 120.83 349.99 118.07 350.74 115.42C351.49 112.76 354.25 111.21 356.91 111.96C359.57 112.71 361.12 115.47 360.37 118.13C359.74 120.33 357.74 121.77 355.56 121.77C355.11 121.77 354.65 121.71 354.2 121.58Z" fill="black"/>
<path d="M354.52 118.009C352.4 116.249 352.11 113.089 353.87 110.969C355.64 108.849 358.79 108.559 360.91 110.329C363.04 112.089 363.33 115.249 361.56 117.369C360.57 118.559 359.15 119.169 357.71 119.169C356.59 119.169 355.45 118.789 354.52 118.009Z" fill="black"/>
<path d="M352.5 106.759C352.42 103.999 354.59 101.699 357.35 101.619C360.11 101.539 362.42 103.709 362.49 106.469C362.58 109.229 360.4 111.529 357.64 111.609H357.49C354.8 111.609 352.58 109.469 352.5 106.759Z" fill="black"/>
<path d="M345 109.19C343.04 107.25 343.02 104.08 344.96 102.12C346.9 100.15 350.07 100.13 352.03 102.07C354 104.02 354.02 107.18 352.07 109.15C351.1 110.13 349.81 110.63 348.52 110.63C347.25 110.63 345.98 110.15 345 109.19Z" fill="black"/>
<path d="M345.12 94.1098C343.37 91.9798 343.67 88.8298 345.8 87.0698C347.93 85.3198 351.09 85.6198 352.84 87.7498C354.6 89.8798 354.3 93.0298 352.16 94.7898C351.23 95.5598 350.11 95.9298 348.99 95.9298C347.55 95.9298 346.11 95.3098 345.12 94.1098Z" fill="black"/>
<path d="M349.06 86.5103C346.3 86.4603 344.1 84.1903 344.15 81.4303C344.2 78.6703 346.47 76.4703 349.24 76.5103C352 76.5603 354.2 78.8403 354.15 81.6003C354.1 84.3303 351.87 86.5103 349.15 86.5103H349.06Z" fill="black"/>
<path d="M339.6 83.3398C339.34 80.5898 341.35 78.1498 344.09 77.8798C346.84 77.6098 349.29 79.6198 349.55 82.3698C349.82 85.1198 347.81 87.5598 345.06 87.8298C344.9 87.8498 344.73 87.8598 344.57 87.8598C342.03 87.8598 339.85 85.9198 339.6 83.3398Z" fill="black"/>
<path d="M333.68 78.6C330.98 78.03 329.26 75.37 329.83 72.67C330.4 69.97 333.06 68.25 335.76 68.82C338.46 69.4 340.19 72.05 339.61 74.75C339.11 77.1 337.04 78.71 334.73 78.71C334.38 78.71 334.03 78.68 333.68 78.6Z" fill="black"/>
<path d="M317.37 76.6297C315.15 74.9797 314.69 71.8397 316.34 69.6297C317.99 67.4197 321.12 66.9597 323.34 68.5997C325.55 70.2497 326.01 73.3897 324.36 75.5997C323.38 76.9197 321.87 77.6197 320.35 77.6197C319.31 77.6197 318.26 77.2897 317.37 76.6297Z" fill="black"/>
<path d="M311.15 64.0901C310.96 61.3401 313.04 58.9501 315.79 58.7601C318.55 58.5701 320.93 60.6501 321.13 63.4001C321.31 66.1601 319.23 68.5501 316.48 68.7401C316.36 68.7501 316.25 68.7501 316.13 68.7501C313.53 68.7501 311.33 66.7301 311.15 64.0901Z" fill="black"/>
<path d="M327.2 56.1303C324.44 56.0303 322.29 53.7103 322.39 50.9503C322.49 48.1903 324.81 46.0303 327.57 46.1303C330.33 46.2303 332.48 48.5503 332.38 51.3103C332.28 54.0103 330.07 56.1303 327.39 56.1303H327.2Z" fill="black"/>
<path d="M327.74 47.4097C325.82 45.4197 325.86 42.2597 327.85 40.3397C329.83 38.4097 333 38.4697 334.92 40.4497C336.84 42.4297 336.79 45.5997 334.81 47.5197C333.84 48.4597 332.58 48.9297 331.33 48.9297C330.02 48.9297 328.72 48.4197 327.74 47.4097Z" fill="black"/>
<path d="M329.71 37.2593C327.36 35.8093 326.64 32.7193 328.09 30.3793C329.54 28.0293 332.62 27.2993 334.97 28.7493C337.32 30.2093 338.05 33.2893 336.59 35.6393C335.65 37.1693 334.01 38.0093 332.33 38.0093C331.44 38.0093 330.53 37.7693 329.71 37.2593Z" fill="black"/>
<path d="M346.21 34.65C344.31 32.65 344.39 29.48 346.38 27.58C348.39 25.67 351.55 25.75 353.45 27.75C355.36 29.75 355.28 32.92 353.28 34.82C352.31 35.74 351.07 36.2 349.83 36.2C348.51 36.2 347.19 35.68 346.21 34.65Z" fill="black"/>
<path d="M347.54 39.509C347.52 36.749 349.74 34.4891 352.5 34.4691C355.26 34.4391 357.52 36.659 357.54 39.419C357.57 42.179 355.35 44.4391 352.59 44.4691H352.54C349.8 44.4691 347.57 42.259 347.54 39.509Z" fill="black"/>
<path d="M341.6 55.3002C338.84 55.2302 336.66 52.9302 336.73 50.1702C336.81 47.4102 339.1 45.2402 341.87 45.3102C344.63 45.3802 346.8 47.6802 346.73 50.4402C346.65 53.1602 344.43 55.3102 341.74 55.3102C341.74 55.3102 341.64 55.3102 341.6 55.3102V55.3002Z" fill="black"/>
<path d="M353.67 56.3903C351.05 55.5103 349.63 52.6803 350.51 50.0603C351.39 47.4403 354.22 46.0303 356.84 46.9103C359.46 47.7803 360.87 50.6103 359.99 53.2303C359.3 55.3303 357.35 56.6503 355.25 56.6503C354.73 56.6503 354.19 56.5603 353.67 56.3903Z" fill="black"/>
<path d="M365.88 56.4603C363.21 55.7503 361.62 53.0103 362.33 50.3403C363.03 47.6703 365.77 46.0803 368.44 46.7903C371.11 47.4903 372.7 50.2303 372 52.9003C371.4 55.1403 369.38 56.6203 367.16 56.6203C366.74 56.6203 366.31 56.5703 365.88 56.4603Z" fill="black"/>
<path d="M366.23 52.9188C365.5 50.2488 367.06 47.4988 369.72 46.7688C372.38 46.0388 375.14 47.6088 375.87 50.2688C376.6 52.9288 375.04 55.6788 372.37 56.4088C371.93 56.5388 371.48 56.5888 371.04 56.5888C368.85 56.5888 366.84 55.1388 366.23 52.9188Z" fill="black"/>
<path d="M375.57 51.5591C375.53 48.7991 377.73 46.5291 380.49 46.4791C383.25 46.4391 385.53 48.6391 385.57 51.3991C385.62 54.1591 383.42 56.4391 380.65 56.4791H380.57C377.85 56.4791 375.62 54.2991 375.57 51.5591Z" fill="black"/>
<path d="M386.99 51.4405C386.97 48.6705 389.19 46.4205 391.95 46.4005C394.71 46.3805 396.97 48.6005 396.99 51.3605C397.01 54.1305 394.79 56.3805 392.03 56.4005H391.99C389.24 56.4005 387.01 54.1805 386.99 51.4405Z" fill="black"/>
<path d="M403.71 56.469C400.96 56.309 398.85 53.949 399.02 51.189C399.18 48.429 401.54 46.329 404.3 46.489C407.06 46.649 409.16 49.019 409 51.779C408.84 54.429 406.64 56.479 404.01 56.479C403.91 56.479 403.81 56.479 403.71 56.479V56.469Z" fill="black"/>
<path d="M413.19 56.3195C410.6 55.3795 409.26 52.5095 410.2 49.9095C411.15 47.3195 414.01 45.9795 416.61 46.9195C419.2 47.8595 420.54 50.7295 419.6 53.3295C418.86 55.3595 416.94 56.6195 414.9 56.6195C414.33 56.6195 413.76 56.5295 413.19 56.3195Z" fill="black"/>
<path d="M418.84 72.67C416.31 71.58 415.13 68.64 416.22 66.1C417.31 63.56 420.25 62.39 422.79 63.48C425.32 64.57 426.5 67.51 425.41 70.04C424.6 71.94 422.75 73.07 420.81 73.07C420.15 73.07 419.49 72.94 418.84 72.67Z" fill="black"/>
<path d="M404.31 79.3106C401.55 79.3106 399.32 77.0606 399.33 74.2906C399.35 71.5306 401.59 69.3006 404.36 69.3106C407.12 69.3106 409.35 71.5706 409.34 74.3306C409.32 77.0906 407.09 79.3106 404.34 79.3106H404.31Z" fill="black"/>
<path d="M392.56 79.2306C389.79 79.2106 387.57 76.9606 387.59 74.1906C387.61 71.4306 389.87 69.2106 392.63 69.2306C395.39 69.2506 397.61 71.5106 397.59 74.2706C397.57 77.0206 395.34 79.2306 392.59 79.2306H392.56Z" fill="black"/>
<path d="M379.87 78.8202C377.2 78.1302 375.59 75.4102 376.28 72.7302C376.97 70.0602 379.7 68.4502 382.38 69.1402C385.05 69.8402 386.65 72.5602 385.96 75.2402C385.38 77.4902 383.35 78.9902 381.13 78.9902C380.71 78.9902 380.29 78.9302 379.87 78.8202Z" fill="black"/>
<path d="M368.17 78.2597C365.95 76.6297 365.46 73.4997 367.1 71.2697C368.73 69.0497 371.86 68.5597 374.09 70.1997C376.32 71.8297 376.8 74.9597 375.16 77.1897C374.18 78.5197 372.67 79.2297 371.13 79.2297C370.1 79.2297 369.06 78.9197 368.17 78.2597Z" fill="black"/>
<path d="M362.7 78.309C360.82 76.289 360.94 73.119 362.97 71.249C365 69.369 368.16 69.489 370.03 71.519C371.91 73.539 371.79 76.709 369.76 78.579C368.8 79.469 367.58 79.919 366.37 79.919C365.02 79.919 363.68 79.379 362.7 78.309Z" fill="black"/>
<path d="M367.47 84.6207C366.72 81.9607 368.27 79.2007 370.93 78.4507C373.58 77.7007 376.35 79.2507 377.09 81.9107C377.84 84.5707 376.29 87.3307 373.64 88.0807C373.18 88.2107 372.73 88.2707 372.28 88.2707C370.09 88.2707 368.09 86.8207 367.47 84.6207Z" fill="black"/>
<path d="M366.27 101.17C363.93 99.7097 363.21 96.6197 364.67 94.2797C366.13 91.9397 369.21 91.2197 371.56 92.6797C373.9 94.1397 374.62 97.2297 373.16 99.5697C372.21 101.09 370.58 101.92 368.91 101.92C368 101.92 367.09 101.68 366.27 101.17Z" fill="black"/>
<path d="M376.691 105.71C375.571 103.18 376.711 100.23 379.231 99.1103C381.761 98.0003 384.71 99.1403 385.83 101.66C386.95 104.19 385.811 107.14 383.281 108.26C382.631 108.55 381.941 108.69 381.261 108.69C379.341 108.69 377.511 107.58 376.691 105.71Z" fill="black"/>
<path d="M376.82 122.809C374.62 121.139 374.18 118.009 375.85 115.809C377.52 113.599 380.65 113.169 382.85 114.839C385.05 116.499 385.49 119.639 383.82 121.839C382.84 123.139 381.34 123.819 379.83 123.819C378.78 123.819 377.72 123.489 376.82 122.809Z" fill="black"/>
<path d="M381.61 125.16C378.85 125 376.74 122.64 376.9 119.89C377.05 117.13 379.41 115.02 382.16 115.17C384.92 115.33 387.03 117.69 386.88 120.44C386.73 123.1 384.53 125.16 381.89 125.16H381.61Z" fill="black"/>
<path d="M386.89 129.89C386.22 127.21 387.85 124.5 390.53 123.83C393.21 123.16 395.92 124.79 396.59 127.46C397.26 130.14 395.63 132.86 392.95 133.53C392.55 133.63 392.14 133.68 391.74 133.68C389.5 133.68 387.46 132.16 386.89 129.89Z" fill="black"/>
<path d="M387.66 146.67C385.27 145.29 384.45 142.23 385.82 139.84C387.2 137.45 390.26 136.63 392.65 138.01C395.05 139.39 395.86 142.45 394.48 144.84C393.56 146.44 391.88 147.34 390.15 147.34C389.3 147.34 388.44 147.12 387.66 146.67Z" fill="black"/>
<path d="M394.98 149.9C393.32 147.69 393.75 144.56 395.96 142.89C398.16 141.23 401.29 141.66 402.96 143.87C404.63 146.07 404.19 149.21 401.98 150.87C401.08 151.55 400.02 151.88 398.97 151.88C397.46 151.88 395.96 151.2 394.98 149.9Z" fill="black"/>
<path d="M398.86 170.289C396.28 169.289 395.01 166.389 396.01 163.819C397.01 161.249 399.91 159.969 402.48 160.969C405.06 161.969 406.33 164.869 405.33 167.449C404.56 169.419 402.67 170.629 400.67 170.629C400.06 170.629 399.45 170.519 398.86 170.289Z" fill="black"/>
<path d="M408.05 190.579C407.52 187.869 409.28 185.239 412 184.709C414.7 184.179 417.33 185.939 417.86 188.649C418.4 191.359 416.63 193.989 413.92 194.519C413.6 194.579 413.27 194.609 412.95 194.609C410.61 194.609 408.52 192.959 408.05 190.579Z" fill="black"/>
<path d="M421.71 193.839C418.96 193.689 416.85 191.329 417 188.569C417.15 185.809 419.51 183.699 422.27 183.849C425.03 184.009 427.14 186.369 426.98 189.119C426.84 191.789 424.63 193.849 421.99 193.849C421.9 193.849 421.81 193.849 421.71 193.849V193.839Z" fill="black"/>
<path d="M433.61 208.589C430.86 208.449 428.74 206.099 428.88 203.339C429.02 200.579 431.37 198.459 434.13 198.609C436.89 198.749 439.01 201.099 438.87 203.859C438.73 206.529 436.52 208.599 433.88 208.599C433.79 208.599 433.7 208.599 433.61 208.599V208.589Z" fill="black"/>
<path d="M441.41 209.96C438.69 209.49 436.85 206.91 437.32 204.19C437.78 201.47 440.36 199.63 443.08 200.09C445.81 200.56 447.64 203.14 447.18 205.86C446.76 208.3 444.65 210.03 442.25 210.03C441.97 210.03 441.69 210 441.41 209.96Z" fill="black"/>
<path d="M452.13 209.47C449.45 208.8 447.82 206.09 448.48 203.41C449.15 200.73 451.86 199.1 454.54 199.76C457.22 200.43 458.85 203.14 458.19 205.82C457.62 208.1 455.58 209.62 453.34 209.62C452.94 209.62 452.54 209.57 452.13 209.47Z" fill="black"/>
<path d="M455.35 193.149C454 190.729 454.86 187.689 457.28 186.339C459.68 184.999 462.73 185.859 464.08 188.269C465.42 190.679 464.56 193.729 462.15 195.069C461.38 195.499 460.54 195.709 459.72 195.709C457.96 195.709 456.26 194.789 455.35 193.149Z" fill="black"/>
<path d="M472.38 195.1C469.94 193.81 469 190.79 470.29 188.35C471.58 185.9 474.61 184.97 477.05 186.26C479.49 187.55 480.42 190.57 479.14 193.02C478.24 194.71 476.5 195.68 474.71 195.68C473.92 195.68 473.12 195.49 472.38 195.1Z" fill="black"/>
<path d="M476.74 204.839C476.26 202.119 478.07 199.519 480.79 199.039C483.51 198.549 486.1 200.359 486.59 203.079C487.07 205.789 485.27 208.389 482.55 208.879C482.25 208.929 481.95 208.959 481.66 208.959C479.28 208.959 477.18 207.259 476.74 204.839Z" fill="black"/>
<path d="M481.67 211.559C478.92 211.559 476.68 209.329 476.67 206.579V203.979C476.65 201.219 478.88 198.969 481.64 198.959H481.66C484.41 198.959 486.65 201.189 486.66 203.939V206.539C486.68 209.299 484.45 211.549 481.69 211.559H481.67Z" fill="black"/>
<path d="M327.56 27.01C327.05 24.29 328.84 21.68 331.55 21.17C334.26 20.65 336.88 22.44 337.39 25.15C337.9 27.87 336.12 30.48 333.41 30.99C333.09 31.05 332.78 31.08 332.47 31.08C330.12 31.08 328.02 29.41 327.56 27.01Z" fill="black"/>
<path d="M325.45 35.5491C323.83 33.3191 324.33 30.1891 326.56 28.5691C328.8 26.9491 331.92 27.4591 333.55 29.6891C335.16 31.9291 334.66 35.0491 332.43 36.6691C331.54 37.3091 330.52 37.6191 329.5 37.6191C327.95 37.6191 326.42 36.8991 325.45 35.5491Z" fill="black"/>
<path d="M319.04 37.6404C316.57 36.4104 315.58 33.4004 316.81 30.9304C318.05 28.4604 321.05 27.4604 323.52 28.7004C325.99 29.9304 326.99 32.9404 325.75 35.4104C324.88 37.1604 323.11 38.1704 321.28 38.1704C320.53 38.1704 319.76 38.0004 319.04 37.6404Z" fill="black"/>
<path d="M318.01 31.8304C315.26 31.5804 313.23 29.1504 313.48 26.4004C313.73 23.6504 316.16 21.6204 318.91 21.8704C321.66 22.1204 323.69 24.5504 323.44 27.3004C323.21 29.9004 321.03 31.8504 318.47 31.8504C318.32 31.8504 318.17 31.8504 318.01 31.8304Z" fill="black"/>
<path d="M318.35 23.3698C316.91 21.0098 317.66 17.9298 320.03 16.4998C322.38 15.0598 325.46 15.8098 326.9 18.1698C328.33 20.5298 327.58 23.6098 325.22 25.0398C324.41 25.5398 323.51 25.7698 322.63 25.7698C320.94 25.7698 319.29 24.9198 318.35 23.3698Z" fill="black"/>
<path d="M317.15 15.6602C316.9 12.9102 318.94 10.4802 321.69 10.2302C324.44 9.9902 326.86 12.0202 327.11 14.7702C327.35 17.5202 325.32 19.9502 322.57 20.1902C322.42 20.2102 322.27 20.2102 322.12 20.2102C319.56 20.2102 317.38 18.2502 317.15 15.6602Z" fill="black"/>
<path d="M323.35 7.59975C322.4 5.00975 323.73 2.13975 326.32 1.17975C328.91 0.229752 331.79 1.55975 332.74 4.15975C333.69 6.74975 332.36 9.61975 329.76 10.5698C329.2 10.7798 328.62 10.8798 328.04 10.8798C326 10.8798 324.09 9.61975 323.35 7.59975Z" fill="black"/>
<path d="M335.27 10.7605C332.89 9.35048 332.11 6.28048 333.51 3.91048C334.92 1.53048 337.98 0.740478 340.36 2.15048C342.74 3.55048 343.52 6.62048 342.12 9.00048C341.19 10.5805 339.52 11.4505 337.81 11.4505C336.95 11.4505 336.07 11.2305 335.27 10.7605Z" fill="black"/>
<path d="M337.54 27.0189C335.22 25.5189 334.55 22.4289 336.05 20.1089C337.55 17.7889 340.65 17.1189 342.97 18.6189C345.28 20.1189 345.95 23.2189 344.45 25.5389C343.49 27.0189 341.89 27.8189 340.25 27.8189C339.32 27.8189 338.38 27.5589 337.54 27.0189Z" fill="black"/>
</g>
</g>
<defs>
<clipPath id="clip0_2561_9586">
<rect width="486.67" height="383.61" fill="white"/>
</clipPath>
</defs>
</svg>
