<svg width="542" height="82" viewBox="0 0 542 82" fill="none" xmlns="http://www.w3.org/2000/svg">
<g clip-path="url(#clip0_2561_7725)">
<mask id="mask0_2561_7725" style="mask-type:luminance" maskUnits="userSpaceOnUse" x="0" y="0" width="542" height="82">
<path d="M541.5 0H0V81.2H541.5V0Z" fill="white"/>
</mask>
<g mask="url(#mask0_2561_7725)">
<path d="M161.97 5.01L161.95 5.05H161.99C161.99 5.05 161.98 5.02 161.97 5.01ZM201.57 5C201.57 5 201.55 5.03 201.55 5.05H201.59L201.57 5Z" fill="#90BEFB"/>
<path d="M536.5 41.7001V43.0501C535.76 43.4201 535.02 43.3301 534.06 43.3301L508.93 43.3001C507.9 43.3001 507.6 44.0301 507.57 44.9101C506.92 60.7401 494.94 73.8901 479.14 75.9501C478.67 76.0101 478.25 76.0801 478.06 76.1901H471.57C469.99 76.1901 468.29 75.6201 466.63 75.2101C452.78 71.7601 442.64 59.3701 442.02 45.1701C441.8 44.7301 441.88 43.3301 442.62 43.3301L470.42 43.3101C470.54 26.3401 483.24 12.3001 500.06 10.5301C509.44 9.75013 518.01 12.3801 525.15 18.5301C532.08 24.5001 535.65 32.8401 536.51 41.7101" fill="#90BEFB"/>
<path d="M433.11 7.47031H413.38V72.4203H410.95C410.62 72.0003 410.4 71.4903 410.4 70.7603L410.42 10.5403C410.49 9.44031 410.44 8.57031 410.38 7.47031H390.4L390.54 5.32031H432.98C433.08 6.16031 433.11 6.74031 433.11 7.47031Z" fill="#90BEFB"/>
<path d="M259.59 72.4302L256.86 73.0802C255.57 71.2002 255.76 70.2102 254.68 67.4402L252.48 61.8102L251.37 58.5602L249.68 54.1002L248.04 49.8202C247.48 48.3402 246.86 46.8702 246.37 45.3402C245.91 43.9002 245.28 42.6902 244.79 41.2402L243.61 37.8102L240.67 30.2202C240.29 29.2502 240.25 28.1702 239.56 27.2402C239.12 26.6602 239.02 26.0002 238.81 25.2602C237.92 22.1702 236.98 20.5202 235.86 17.3802L234.83 14.5102C234.15 12.5902 232.8 17.1702 232.76 17.3202C232.22 19.0002 231.59 20.6102 230.97 22.2302L229.41 26.3402L228.34 29.3602L226.99 32.9102L225.82 35.6502L224.47 39.7202C224.21 40.4902 223.84 41.2502 223.54 42.0102C222.23 45.3202 221.74 47.6202 220.32 50.4102C219.63 53.2002 219.31 52.1302 220.04 54.6902C220.25 55.4202 220.47 56.0102 220.79 56.6602C222.52 60.1902 221.13 57.7102 222.4 60.9702L224.06 65.2602C225.17 68.1102 225.45 69.6102 226.76 72.4202L223.85 73.0502L222.38 68.9102C222 67.8402 221.75 66.8102 221.16 65.7902C220.81 65.1902 220.64 64.5002 220.41 63.8202L218.99 59.6002C218.85 59.2002 218.7 58.7502 218.55 58.5202C218.37 58.2402 217.36 58.3902 217.26 58.6902L216.42 61.3002L214.93 65.2102C213.93 67.8302 213.2 70.3202 212.02 73.0302L209.49 72.5202C209.15 72.0802 209.49 70.9602 209.82 70.5002C210.57 69.4602 210.85 68.3902 211.23 67.2402L211.89 65.2102L214.89 57.2202C215.19 56.4402 215.37 55.5602 215.76 54.8902C216.55 53.5502 216.64 52.4702 215.72 51.1802C215.34 50.6402 215.15 49.7702 214.9 49.0902L212.94 43.8002L211.3 39.2302C210.78 37.7902 210.24 36.5002 209.57 35.0102C209.29 34.3902 209.07 33.3402 208.8 32.6202L207.31 28.6502L205.94 25.1202L205.12 22.7402L203.48 18.6402L202.19 14.6402C202.11 14.3902 201.54 14.0602 201.34 14.1402C201.09 14.2402 200.86 14.6502 200.74 15.0302L199.63 18.2402L197.89 22.8802L195.53 29.2802L193.01 36.0302L192.2 38.1702L183.36 61.9502C183.01 62.9102 183.95 64.2002 184.21 64.9602L186.06 70.3002C186.3 71.0002 186.6 71.6602 186.99 72.5402L184.36 73.2002L181.74 66.3302L179.12 73.1902L176.53 72.5402L177.69 69.4402L180.29 62.3702L171.29 38.1602L170.49 36.0102L167.97 29.2602L165.61 22.8702L163.87 18.2202L162.75 15.0302C162.64 14.7002 162.49 14.3802 162.38 14.1902C162.27 14.0002 161.43 14.2702 161.36 14.4802L160.02 18.6002C159.54 20.0702 158.85 21.2402 158.39 22.6302L157.57 25.1002L156.2 28.6302L154.64 32.7802C154.43 33.3502 154.23 34.3202 154 34.8202C153.33 36.3502 152.75 37.7002 152.21 39.2002L150.57 43.7702L148.61 49.0602C148.35 49.7502 148.17 50.6002 147.79 51.1502C146.94 52.3702 146.92 53.4002 147.66 54.6702C148.14 55.4802 148.34 56.4702 148.69 57.3802L151.63 65.1702L152.29 67.2002C153.59 71.1902 154.44 70.6902 154.07 72.4802L151.58 73.0202C150.28 70.4602 149.6 67.6902 148.54 65.0202C148.03 63.7402 147.53 62.5502 147.12 61.2902L146.18 58.4402C146.03 58.3602 145.21 58.3002 144.98 58.4702C144.76 58.6402 144.68 59.1502 144.54 59.5502L143.11 63.7702C142.91 64.3602 142.76 65.0602 142.47 65.5602C141.82 66.6602 141.55 67.7202 141.15 68.8602L139.69 72.9802L136.79 72.4202C137.3 71.2502 137.6 70.4502 137.97 69.4102L139.47 65.2202L141.13 60.9302C142.4 57.6702 141.01 60.1702 142.74 56.6202C143.44 55.1802 144.14 53.2502 143.64 51.6602L143.24 50.3602C142.45 48.9802 142.01 47.6202 141.51 46.1002C140.68 43.6002 139.64 41.3802 139.08 39.6902L137.73 35.6202L136.55 32.8702L135.2 29.3202L134.13 26.3002L132.57 22.1902C131.95 20.5602 131.34 18.9602 130.78 17.2802L129.97 14.8802C129.85 14.5302 128.97 13.8902 128.84 14.2402L127.69 17.3602L126.48 20.4802C125.87 22.0502 125.21 23.6302 124.75 25.2202C124.54 25.9602 124.44 26.6202 124 27.2002C123.31 28.1202 123.27 29.2102 122.89 30.1802L119.95 37.7702L118.77 41.2002C118.27 42.6502 117.65 43.8602 117.19 45.3002C116.71 46.8202 116.09 48.3002 115.52 49.7802L113.88 54.0602L112.28 58.3502L110.39 63.5602L108.43 68.6402C107.4 71.3102 108.42 70.1102 106.81 73.0002L103.97 72.4202L105.86 67.5802L106.81 64.7602L108.2 61.3702L111.97 51.1302C112.48 49.7402 112.93 48.5202 113.59 47.0702C113.96 46.2602 114.22 45.0202 114.58 44.0702L117.71 35.8502C118.15 34.7002 118.57 33.7002 119 32.5202L121.25 26.3702L122.84 22.2602C123.1 21.6002 123.14 20.8902 123.47 20.1602L124.99 16.7202C125.82 14.8402 126.3 12.9602 126.99 11.0902L129.06 5.46023C130.26 6.00023 130.06 7.27023 130.43 8.26023L133.54 16.5302L134.42 19.1702C134.95 20.7702 135.61 22.1002 136.19 23.6302L137.79 27.8502C138.27 29.1302 138.7 30.3902 139.18 31.6502L140.89 36.1502L141.7 38.5702L143.23 42.4302L144.84 47.2902C144.96 47.6402 145.99 48.1402 146.13 47.7602L146.93 45.4802L147.61 43.3802L149.04 40.0702C149.67 38.6102 150.03 37.1102 150.6 35.6202L152.32 31.1202C152.57 30.4702 152.77 29.8502 152.99 29.1202C153.27 28.1902 153.84 27.2502 154.17 26.3202L156.35 20.3402L157.95 16.2402C158.2 15.6002 158.42 14.9802 158.61 14.2502C158.89 13.1602 159.54 12.0702 159.9 11.0602L162 5.04023L162.02 5.00023C162.02 5.00023 162.03 5.03023 162.04 5.04023C162.58 6.22023 162.86 7.03023 163.17 8.03023L163.89 10.3202L165.22 13.3902L167.38 19.4202C168.05 21.2902 168.67 23.1102 169.41 25.0002L170.89 28.7702C171.63 30.6602 172.19 32.5102 172.93 34.3702C173.61 36.0702 174.21 37.7502 174.77 39.5102C175.08 40.4902 175.49 41.3002 175.85 42.2702L178.32 48.9902L179.91 53.0902C180.85 55.5302 180.14 55.0802 181.83 58.0302C183.52 55.0802 182.81 55.5302 183.75 53.0902L185.34 48.9902L187.81 42.2702C188.16 41.3002 188.58 40.4902 188.89 39.5102C189.45 37.7502 190.05 36.0702 190.73 34.3702C191.47 32.5202 192.03 30.6602 192.77 28.7702L194.25 25.0002C194.99 23.1102 195.6 21.2902 196.28 19.4202L198.44 13.3902L199.78 10.3202L200.49 8.04023C200.81 7.03023 201.09 6.23023 201.62 5.04023C201.62 5.02023 201.64 5.01023 201.64 4.99023L201.66 5.04023L203.69 10.8802C204.06 11.9502 204.75 13.0902 205.04 14.2502C205.23 14.9802 205.45 15.6002 205.7 16.2402L207.3 20.3402L209.47 26.3202C209.81 27.2502 210.37 28.1902 210.65 29.1202C210.87 29.8502 211.07 30.4702 211.32 31.1202L213.03 35.6102C213.6 37.1002 213.96 38.6002 214.59 40.0602L216.02 43.3702L216.71 45.4802L217.51 47.8702C218.61 48.1402 218.81 47.1802 219.05 46.4402L220.46 42.2002L221.91 38.5702L222.73 36.1402C223.25 34.5902 223.82 33.1502 224.44 31.6402C224.95 30.3902 225.35 29.1102 225.83 27.8402L227.43 23.6202C228.01 22.0902 228.67 20.7602 229.2 19.1602L230.08 16.5202L233.14 8.44023C233.53 7.41023 233.28 6.03023 234.56 5.45023L236.63 11.0802C237.32 12.9502 237.8 14.8302 238.63 16.7102L240.15 20.1602C240.5 20.9502 240.56 21.7002 240.84 22.4202L242.51 26.7202L244.61 32.5102C245.04 33.6902 245.47 34.6902 245.9 35.8402L249.03 44.0602C249.4 45.0202 249.66 46.2502 250.03 47.0702C250.69 48.5202 251.13 49.7402 251.64 51.1302L255.42 61.3702L256.8 64.7602L257.75 67.5902L259.63 72.4102L259.59 72.4302Z" fill="#90BEFB"/>
</g>
<path d="M287.29 6.13086H268.35V71.8909H287.29V6.13086Z" fill="#90BEFB"/>
<path d="M333.83 7.4707H291.08V10.1707H333.83V7.4707Z" fill="#90BEFB"/>
<path d="M333.83 37.9297H291.08V40.6197H333.83V37.9297Z" fill="#90BEFB"/>
<path d="M334.1 69.1895H291.35V71.8895H334.1V69.1895Z" fill="#90BEFB"/>
<path d="M380.65 29.5801H377.94V72.4301H380.65V29.5801Z" fill="#90BEFB"/>
<path d="M347.64 29.5801H344.93V72.4301H347.64V29.5801Z" fill="#90BEFB"/>
<mask id="mask1_2561_7725" style="mask-type:luminance" maskUnits="userSpaceOnUse" x="0" y="0" width="542" height="82">
<path d="M541.5 0H0V81.2H541.5V0Z" fill="white"/>
</mask>
<g mask="url(#mask1_2561_7725)">
<path d="M380.34 24.6905L345.53 24.7205C345 24.7205 344.56 24.1205 344.6 23.6705C345.05 18.9905 346.82 14.8805 350.22 11.6005C355.34 6.67052 362.69 5.33052 369.6 7.93052C379.88 11.8005 382.03 24.6805 380.34 24.6905Z" fill="#90BEFB"/>
<path d="M107.99 42.2095C107.99 60.3095 93.2599 74.9795 75.0899 74.9795C56.9199 74.9795 42.1899 60.3095 42.1899 42.2095C42.1899 24.1095 56.9199 9.43945 75.0999 9.43945C93.2799 9.43945 108 24.1095 108 42.2095" fill="#90BEFB"/>
<path d="M37.5699 74.9001C17.4899 74.7301 2.45989 57.1501 5.35989 37.2801C7.56989 22.0701 20.5299 10.3001 36.1099 9.55012C36.4799 9.53012 37.0199 9.37012 37.2699 9.47012C37.5799 9.58012 37.9199 10.3401 37.8699 10.6801L37.6499 12.2501C23.0299 12.7501 10.9799 22.6601 8.27989 37.0901C4.98989 54.6701 19.3899 70.6801 33.3199 71.7601L37.2099 72.0601C38.1499 72.1301 37.9399 74.1401 37.5599 74.9101" fill="#90BEFB"/>
<path d="M199.92 9.77945C197.31 8.86945 195.93 6.01945 196.83 3.40945C196.98 2.99945 197.11 2.75945 197.12 2.73945C198.39 0.27945 201.4 -0.68055 203.86 0.57945C206.16 1.76945 207.15 4.48945 206.23 6.83945C205.47 8.81945 203.58 10.0494 201.56 10.0494C201.01 10.0494 200.46 9.95945 199.92 9.77945Z" fill="black"/>
<path d="M201.57 10.0508C198.81 10.0508 196.58 7.81078 196.58 5.05078C196.58 2.29078 198.81 0.0507812 201.57 0.0507812H201.59C204.35 0.0507812 206.59 2.29078 206.59 5.05078C206.59 7.81078 204.35 10.0508 201.59 10.0508C198.81 10.0508 201.59 10.0508 201.57 10.0508Z" fill="black"/>
<path d="M196.85 6.6399V6.6199C195.95 3.9999 197.35 1.1599 199.96 0.2699C202.58 -0.6201 205.42 0.7799 206.31 3.3899V3.4099C207.21 6.0299 205.81 8.8699 203.2 9.7599C202.67 9.9399 202.12 10.0299 201.58 10.0299C199.5 10.0299 197.56 8.7199 196.85 6.6399Z" fill="black"/>
<path d="M201.57 10.0502C201.17 10.0502 200.77 10.0002 200.37 9.90019C197.69 9.24019 196.05 6.53019 196.71 3.85019C197.37 1.17019 200.09 -0.489806 202.77 0.170194C205.45 0.830194 207.1 3.52019 206.43 6.20019V6.25019C205.86 8.53019 203.81 10.0502 201.57 10.0502Z" fill="black"/>
<path d="M160.21 9.73985C157.62 8.77985 156.3 5.89985 157.27 3.30985V3.28985C158.24 0.699853 161.12 -0.620147 163.71 0.349853C166.3 1.30985 167.61 4.18985 166.65 6.77985V6.79985C165.89 8.80985 163.98 10.0499 161.95 10.0499C161.38 10.0499 160.79 9.94985 160.21 9.73985Z" fill="black"/>
<path d="M161.97 10.0508C159.21 10.0508 156.97 7.81078 156.97 5.05078C156.97 2.29078 159.21 0.0507812 161.97 0.0507812H161.99C164.75 0.0507812 166.99 2.29078 166.99 5.05078C166.99 7.81078 164.75 10.0508 161.99 10.0508C159.21 10.0508 161.99 10.0508 161.97 10.0508Z" fill="black"/>
<path d="M157.47 7.17958C157.47 7.17958 157.44 7.12958 157.43 7.10958C156.31 4.68958 157.3 1.77958 159.7 0.559576C162.16 -0.700424 165.17 0.279576 166.42 2.73958C166.53 2.93958 166.6 3.10958 166.65 3.23958C167.64 5.81958 166.35 8.70958 163.77 9.69958C163.18 9.92958 162.57 10.0296 161.98 10.0296C160.09 10.0296 158.31 8.95958 157.47 7.17958Z" fill="black"/>
<path d="M161.97 10.0501C161.73 10.0501 161.49 10.0301 161.24 10.0001C158.51 9.60008 156.62 7.06008 157.02 4.33008C157.42 1.60008 159.96 -0.319922 162.69 0.0800784C165.42 0.480078 167.32 3.00008 166.92 5.73008V5.77008C166.55 8.26008 164.41 10.0501 161.97 10.0501Z" fill="black"/>
<path d="M531.5 43.0509V42.3809C531.5 39.6209 533.74 37.3809 536.5 37.3809C539.26 37.3809 541.5 39.6209 541.5 42.3809V43.0509C541.5 45.8209 539.26 48.0509 536.5 48.0509C533.74 48.0509 531.5 45.8209 531.5 43.0509Z" fill="black"/>
<path d="M529.06 43.3398C529.06 40.5798 531.3 38.3398 534.06 38.3398C536.82 38.3398 539.06 40.5798 539.06 43.3398C539.06 46.0998 536.82 48.3398 534.06 48.3398C531.3 48.3398 529.06 46.0998 529.06 43.3398Z" fill="black"/>
<path d="M508.92 48.3205C506.16 48.3105 503.92 46.0705 503.92 43.3105C503.93 40.5505 506.17 38.3105 508.93 38.3105C511.69 38.3205 513.93 40.5605 513.93 43.3205C513.92 46.0805 511.69 48.3205 508.93 48.3205H508.92Z" fill="black"/>
<path d="M507.36 49.9201C504.6 49.8001 502.45 47.4801 502.57 44.7201C502.68 41.9601 505.01 39.8101 507.77 39.9201C510.53 40.0401 512.67 42.3701 512.56 45.1301C512.45 47.8201 510.23 49.9201 507.56 49.9201H507.36Z" fill="black"/>
<path d="M495.63 69.3191C493.6 67.4491 493.46 64.2891 495.32 62.2491C497.19 60.2091 500.35 60.0791 502.39 61.9391C504.43 63.8091 504.56 66.9691 502.7 69.0091C501.71 70.0791 500.36 70.6291 499.01 70.6291C497.8 70.6291 496.59 70.1891 495.63 69.3191Z" fill="black"/>
<path d="M473.75 78.7406C472.35 76.3606 473.14 73.3006 475.52 71.9006C476.78 71.2206 477.22 71.2506 477.67 71.1306C480.39 70.6306 483 72.4206 483.5 75.1306C483.99 77.7606 482.33 80.2906 479.76 80.9106C479.2 81.1106 478.63 81.2006 478.06 81.2006C476.35 81.2006 474.68 80.3206 473.75 78.7406Z" fill="black"/>
<path d="M466.56 76.1992C466.56 73.4392 468.8 71.1992 471.56 71.1992C474.32 71.1992 476.56 73.4392 476.56 76.1992C476.56 78.9692 474.32 81.1992 471.56 81.1992C468.8 81.1992 466.56 78.9692 466.56 76.1992Z" fill="black"/>
<path d="M465.41 80.0706C462.73 79.4006 461.1 76.6906 461.77 74.0106C462.43 71.3406 465.14 69.7006 467.82 70.3706C470.5 71.0306 472.14 73.7506 471.47 76.4206C470.91 78.7006 468.87 80.2206 466.62 80.2206C466.22 80.2206 465.82 80.1706 465.41 80.0706Z" fill="black"/>
<path d="M437.02 45.3906C436.9 42.6306 439.04 40.3006 441.8 40.1806C444.56 40.0606 446.89 42.2006 447.01 44.9606C447.13 47.7206 444.99 50.0506 442.23 50.1706C442.15 50.1706 442.08 50.1706 442.01 50.1706C439.35 50.1706 437.13 48.0706 437.02 45.3806V45.3906Z" fill="black"/>
<path d="M437.62 43.3301C437.62 40.5701 439.85 38.3301 442.61 38.3301C445.38 38.3301 447.61 40.5701 447.61 43.3301C447.61 46.0901 445.38 48.3301 442.61 48.3301C439.85 48.3301 437.62 46.0901 437.62 43.3301Z" fill="black"/>
<path d="M465.41 43.3203C465.41 40.5603 467.65 38.3203 470.41 38.3203C473.17 38.3103 475.41 40.5503 475.41 43.3103C475.41 46.0703 473.18 48.3103 470.42 48.3103C467.66 48.3203 465.42 46.0803 465.41 43.3203Z" fill="black"/>
<path d="M475.6 24.9492C473.55 23.0992 473.39 19.9392 475.24 17.8892C477.09 15.8392 480.26 15.6792 482.3 17.5292C484.36 19.3792 484.52 22.5392 482.67 24.5892C481.68 25.6892 480.32 26.2392 478.95 26.2392C477.76 26.2392 476.56 25.8192 475.6 24.9492Z" fill="black"/>
<path d="M521.88 22.3196C519.78 20.5096 519.55 17.3596 521.35 15.2596C523.15 13.1696 526.31 12.9396 528.4 14.7396C530.49 16.5396 530.73 19.6996 528.93 21.7896C527.94 22.9396 526.54 23.5296 525.14 23.5296C523.98 23.5296 522.82 23.1296 521.88 22.3196Z" fill="black"/>
<path d="M531.52 42.1894C531.26 39.4394 533.27 36.9994 536.02 36.7294C538.77 36.4594 541.21 38.4694 541.48 41.2194C541.74 43.9694 539.73 46.4194 536.98 46.6794C536.82 46.6994 536.66 46.7094 536.49 46.7094C533.95 46.7094 531.78 44.7694 531.52 42.1894Z" fill="black"/>
<path d="M536.51 48.0492C533.77 48.0492 531.53 45.8392 531.51 43.0892V41.7392C531.48 38.9792 533.7 36.7192 536.46 36.6992H536.5C539.24 36.6992 541.48 38.9092 541.5 41.6592V43.0092C541.53 45.7692 539.31 48.0292 536.55 48.0492H536.51Z" fill="black"/>
<path d="M408.39 7.48047C408.39 4.72047 410.63 2.48047 413.39 2.48047C416.15 2.48047 418.39 4.72047 418.39 7.48047C418.39 10.2405 416.15 12.4805 413.39 12.4805C410.63 12.4805 408.39 10.2405 408.39 7.48047Z" fill="black"/>
<path d="M408.39 39.959C408.39 37.189 410.63 34.959 413.39 34.959C416.15 34.959 418.39 37.189 418.39 39.959C418.39 42.719 416.15 44.949 413.39 44.949C410.63 44.949 408.39 42.719 408.39 39.959Z" fill="black"/>
<path d="M405.95 72.4297C405.95 69.6697 408.19 67.4297 410.95 67.4297C413.71 67.4297 415.95 69.6697 415.95 72.4297C415.95 75.1897 413.71 77.4297 410.95 77.4297C408.19 77.4297 405.95 75.1897 405.95 72.4297Z" fill="black"/>
<path d="M405.77 73.1695C405.51 72.3795 405.4 71.5495 405.4 70.7695C405.4 68.0095 407.65 65.7695 410.41 65.7695C413.07 65.7695 415.25 67.8595 415.4 70.4995C416 73.0195 414.56 75.6095 412.05 76.4095C411.54 76.5695 411.03 76.6495 410.53 76.6495C408.41 76.6495 406.45 75.2895 405.77 73.1695Z" fill="black"/>
<path d="M410.41 45.6602C407.65 45.6602 405.41 43.4202 405.41 40.6602C405.42 37.9002 407.65 35.6602 410.41 35.6602C413.18 35.6602 415.41 37.9002 415.41 40.6602C415.41 43.4202 413.18 45.6602 410.42 45.6602H410.41Z" fill="black"/>
<path d="M405.39 7.69944C405.27 4.94944 407.4 2.60944 410.16 2.47944C412.92 2.35944 415.26 4.48944 415.38 7.24944C415.51 10.0094 413.37 12.3494 410.61 12.4694C410.53 12.4694 410.46 12.4694 410.38 12.4694C407.72 12.4694 405.51 10.3694 405.39 7.68944V7.69944Z" fill="black"/>
<path d="M385.4 7.48047C385.4 4.72047 387.64 2.48047 390.41 2.48047C393.17 2.48047 395.41 4.72047 395.41 7.48047C395.41 10.2405 393.17 12.4805 390.41 12.4805C387.64 12.4805 385.4 10.2405 385.4 7.48047Z" fill="black"/>
<path d="M390.23 10.32C387.47 10.14 385.38 7.75999 385.55 5.00999C385.73 2.24999 388.1 0.15999 390.86 0.32999C393.61 0.50999 395.7 2.87999 395.53 5.63999C395.36 8.28999 393.16 10.33 390.54 10.32H390.23Z" fill="black"/>
<path d="M427.98 5.32031C427.98 2.56031 430.22 0.320312 432.98 0.320312C435.74 0.320312 437.98 2.56031 437.98 5.32031C437.98 8.08031 435.74 10.3203 432.98 10.3203C430.22 10.3203 427.98 8.08031 427.98 5.32031Z" fill="black"/>
<path d="M428.11 7.48047C428.11 4.71047 430.35 2.48047 433.11 2.48047C435.87 2.48047 438.11 4.71047 438.11 7.48047C438.11 10.2405 435.87 12.4805 433.11 12.4805C430.35 12.4805 428.11 10.2405 428.11 7.48047Z" fill="black"/>
<path d="M252 74.2393C251.35 71.5593 253.01 68.8593 255.7 68.2193C258.38 67.5793 261.08 69.2393 261.72 71.9193C262.36 74.6093 260.71 77.3093 258.02 77.9493C257.63 78.0393 257.24 78.0793 256.85 78.0793C254.59 78.0793 252.54 76.5393 252 74.2393Z" fill="black"/>
<path d="M250.03 69.269C249.02 66.699 250.29 63.799 252.87 62.789C255.44 61.779 258.33 63.059 259.34 65.629C260.35 68.199 259.08 71.099 256.5 72.109C255.91 72.339 255.29 72.449 254.69 72.449C252.69 72.449 250.8 71.239 250.03 69.269Z" fill="black"/>
<path d="M247.83 63.6296C246.82 61.0596 248.09 58.1595 250.66 57.1595C253.24 56.1495 256.14 57.4196 257.14 59.9896C258.14 62.5696 256.87 65.4596 254.3 66.4696C253.7 66.6996 253.09 66.8195 252.48 66.8195C250.48 66.8195 248.6 65.6096 247.83 63.6296Z" fill="black"/>
<path d="M244.98 55.81C244.04 53.22 245.37 50.35 247.97 49.4C250.56 48.46 253.43 49.8 254.38 52.39C255.32 54.99 253.98 57.86 251.39 58.8C250.82 59.01 250.25 59.1 249.68 59.1C247.64 59.1 245.72 57.84 244.98 55.81Z" fill="black"/>
<path d="M243.37 51.6005C242.39 49.0205 243.68 46.1305 246.26 45.1505C248.84 44.1605 251.73 45.4605 252.71 48.0305C253.7 50.6105 252.4 53.5105 249.83 54.4905C249.24 54.7105 248.64 54.8205 248.05 54.8205C246.03 54.8205 244.13 53.5905 243.37 51.6005Z" fill="black"/>
<path d="M241.61 46.8593C240.77 44.2293 242.23 41.4193 244.86 40.5793C247.49 39.7393 250.3 41.1993 251.14 43.8293C251.98 46.4593 250.52 49.2693 247.89 50.1093C247.39 50.2693 246.88 50.3493 246.37 50.3493C244.25 50.3493 242.29 48.9893 241.61 46.8593Z" fill="black"/>
<path d="M240.06 42.8701C239.17 40.2601 240.55 37.4201 243.17 36.5201C245.78 35.6201 248.62 37.0101 249.52 39.6201C250.42 42.2301 249.03 45.0801 246.42 45.9701C245.88 46.1601 245.33 46.2501 244.79 46.2501C242.71 46.2501 240.78 44.9401 240.06 42.8701Z" fill="black"/>
<path d="M238.88 39.4496C237.98 36.8296 239.37 33.9896 241.98 33.0896C244.59 32.1896 247.43 33.5696 248.33 36.1796C249.23 38.7896 247.85 41.6396 245.24 42.5396C244.7 42.7296 244.15 42.8196 243.6 42.8196C241.53 42.8196 239.6 41.5196 238.88 39.4496Z" fill="black"/>
<path d="M236 32.03C235 29.46 236.28 26.57 238.86 25.57C241.43 24.57 244.33 25.84 245.32 28.42C246.32 30.99 245.05 33.89 242.47 34.89C241.88 35.12 241.27 35.23 240.67 35.23C238.66 35.23 236.77 34.02 236 32.03Z" fill="black"/>
<path d="M235.55 30.2499C233.9 28.0399 234.34 24.9099 236.55 23.2499C238.76 21.5899 241.89 22.0399 243.55 24.2499C245.21 26.4599 244.76 29.5899 242.55 31.2499C241.65 31.9299 240.6 32.2499 239.56 32.2499C238.04 32.2499 236.53 31.5599 235.55 30.2499Z" fill="black"/>
<path d="M234 26.6596C233.23 24.0096 234.76 21.2396 237.41 20.4696C240.06 19.6996 242.83 21.2196 243.6 23.8796C244.37 26.5296 242.85 29.2996 240.2 30.0696C239.73 30.2096 239.26 30.2696 238.8 30.2696C236.63 30.2696 234.64 28.8496 234 26.6596Z" fill="black"/>
<path d="M231.15 19.0804C230.22 16.4804 231.57 13.6104 234.17 12.6904C236.77 11.7604 239.63 13.1104 240.56 15.7104C241.49 18.3104 240.14 21.1704 237.54 22.1004C236.98 22.3004 236.41 22.4004 235.85 22.4004C233.8 22.4004 231.88 21.1204 231.15 19.0804Z" fill="black"/>
<path d="M230.12 16.2003C229.19 13.6103 230.55 10.7403 233.15 9.81026C235.75 8.89026 238.61 10.2403 239.54 12.8403C240.47 15.4403 239.11 18.3003 236.51 19.2303C235.96 19.4303 235.39 19.5303 234.83 19.5303C232.78 19.5303 230.85 18.2503 230.12 16.2003Z" fill="black"/>
<path d="M231.46 22.1599C228.79 21.4399 227.21 18.6999 227.93 16.0399C228.65 13.3699 231.39 11.7899 234.06 12.5099C236.72 13.2199 238.3 15.9699 237.59 18.6299C236.99 20.8599 234.97 22.3399 232.76 22.3399C232.33 22.3399 231.9 22.2799 231.46 22.1599Z" fill="black"/>
<path d="M229.19 26.9201C226.61 25.9301 225.32 23.0501 226.3 20.4601C227.28 17.8801 230.17 16.5901 232.75 17.5701C235.33 18.5501 236.63 21.4401 235.64 24.0201C234.88 26.0201 232.99 27.2501 230.97 27.2501C230.38 27.2501 229.78 27.1401 229.19 26.9201Z" fill="black"/>
<path d="M227.64 31.0204C225.06 30.0504 223.76 27.1604 224.74 24.5704C225.72 21.9904 228.6 20.6904 231.19 21.6704C233.77 22.6504 235.07 25.5404 234.09 28.1204C233.33 30.1204 231.43 31.3504 229.41 31.3504C228.82 31.3504 228.22 31.2404 227.64 31.0204Z" fill="black"/>
<path d="M224.01 40.3308C221.44 39.3308 220.16 36.4408 221.15 33.8608C222.14 31.2908 225.04 30.0108 227.62 31.0008C230.19 32.0008 231.47 34.8908 230.48 37.4708C229.71 39.4508 227.82 40.6708 225.81 40.6708C225.21 40.6708 224.61 40.5608 224.01 40.3308Z" fill="black"/>
<path d="M222.9 44.4902C220.28 43.6202 218.85 40.7902 219.72 38.1702C220.59 35.5402 223.41 34.1202 226.04 34.9902C228.66 35.8602 230.08 38.6802 229.22 41.3102C228.52 43.4102 226.57 44.7402 224.47 44.7402C223.95 44.7402 223.42 44.6602 222.9 44.4902Z" fill="black"/>
<path d="M221.7 46.6793C219.13 45.6593 217.87 42.7593 218.89 40.1893C219.91 37.6193 222.81 36.3593 225.38 37.3793C227.95 38.3993 229.2 41.2993 228.19 43.8693C227.41 45.8293 225.53 47.0293 223.54 47.0293C222.93 47.0293 222.3 46.9193 221.7 46.6793Z" fill="black"/>
<path d="M218.06 54.8791C215.6 53.6291 214.62 50.6191 215.87 48.1591C217.12 45.6991 220.13 44.7191 222.59 45.9691C225.05 47.2191 226.03 50.2291 224.78 52.6891C223.9 54.4291 222.14 55.4291 220.32 55.4291C219.56 55.4291 218.79 55.2491 218.06 54.8791Z" fill="black"/>
<path d="M215.24 56.0899C214.48 53.4299 216.01 50.6599 218.67 49.8999C221.32 49.1399 224.09 50.6699 224.85 53.3299C225.61 55.9799 224.08 58.7499 221.43 59.5099C220.96 59.6499 220.5 59.7099 220.04 59.7099C217.87 59.7099 215.87 58.2799 215.24 56.0899Z" fill="black"/>
<path d="M216.31 58.8791C215.09 56.3991 216.12 53.4091 218.6 52.1891C221.07 50.9691 224.07 51.9991 225.29 54.4791C226.5 56.9491 225.48 59.9491 223 61.1691C222.29 61.5191 221.54 61.6791 220.8 61.6791C218.96 61.6791 217.18 60.6491 216.31 58.8791Z" fill="black"/>
<path d="M217.75 62.7997C216.75 60.2197 218.02 57.3197 220.6 56.3297C223.17 55.3297 226.07 56.5997 227.07 59.1797C228.07 61.7497 226.79 64.6497 224.22 65.6497C223.62 65.8797 223.01 65.9897 222.41 65.9897C220.41 65.9897 218.51 64.7797 217.75 62.7997Z" fill="black"/>
<path d="M219.41 67.0797C218.41 64.5097 219.69 61.6097 222.26 60.6097C224.83 59.6097 227.73 60.8897 228.73 63.4597C229.73 66.0397 228.46 68.9297 225.88 69.9297C225.29 70.1597 224.67 70.2697 224.07 70.2697C222.07 70.2697 220.18 69.0597 219.41 67.0797Z" fill="black"/>
<path d="M222.24 74.5399C221.07 72.0299 222.16 69.0599 224.66 67.8999C227.17 66.7299 230.14 67.8199 231.31 70.3199C232.47 72.8299 231.38 75.7999 228.88 76.9599C228.19 77.2799 227.48 77.4299 226.77 77.4299C224.89 77.4299 223.08 76.3599 222.24 74.5399Z" fill="black"/>
<path d="M218.97 74.1092C218.39 71.4092 220.1 68.7492 222.81 68.1692C225.51 67.5892 228.17 69.3092 228.75 71.9992C229.32 74.6992 227.61 77.3592 224.91 77.9392C224.55 78.0192 224.2 78.0592 223.85 78.0592C221.55 78.0592 219.47 76.4492 218.97 74.1092Z" fill="black"/>
<path d="M217.68 70.5897C216.75 67.9797 218.12 65.1297 220.72 64.1997C223.32 63.2797 226.18 64.6397 227.1 67.2397C228.02 69.8497 226.66 72.7097 224.06 73.6297C223.51 73.8197 222.94 73.9197 222.39 73.9197C220.33 73.9197 218.4 72.6397 217.68 70.5897Z" fill="black"/>
<path d="M216.85 68.3196C215.46 65.9296 216.27 62.8696 218.65 61.4796C221.04 60.0796 224.1 60.8896 225.49 63.2796C226.88 65.6596 226.07 68.7196 223.69 70.1096C222.9 70.5796 222.03 70.7996 221.18 70.7996C219.45 70.7996 217.78 69.9096 216.85 68.3196Z" fill="black"/>
<path d="M215.67 65.3894C214.81 62.7694 216.23 59.9394 218.85 59.0694C221.47 58.2094 224.3 59.6294 225.17 62.2494C226.03 64.8794 224.61 67.6994 221.99 68.5694C221.47 68.7394 220.94 68.8194 220.42 68.8194C218.32 68.8194 216.37 67.4894 215.67 65.3894Z" fill="black"/>
<path d="M214.26 61.1895C213.38 58.5695 214.79 55.7395 217.41 54.8595C220.03 53.9795 222.86 55.3895 223.74 58.0095C224.62 60.6295 223.21 63.4595 220.59 64.3395C220.06 64.5195 219.53 64.5995 219 64.5995C216.91 64.5995 214.96 63.2795 214.26 61.1895Z" fill="black"/>
<path d="M214.17 60.9094C212.94 58.6594 213.62 55.7994 215.79 54.3594C218.09 52.8294 221.2 53.4594 222.72 55.7594C223.21 56.5194 223.32 56.8994 223.48 57.2694C224.46 59.8494 223.17 62.7394 220.59 63.7194C220 63.9494 219.4 64.0494 218.81 64.0494C216.82 64.0494 214.95 62.8594 214.17 60.9094Z" fill="black"/>
<path d="M215.73 63.4607C213.11 62.6107 211.67 59.7907 212.52 57.1607C213.45 54.7707 214.72 54.3607 215.37 53.9807C216.09 53.6507 216.63 53.5307 217.2 53.4407C219.93 53.0607 222.46 54.9707 222.84 57.7007C223.16 60.0107 221.85 62.1707 219.79 63.0207C219.03 63.4607 218.17 63.7007 217.27 63.7007C216.76 63.7007 216.25 63.6207 215.73 63.4607Z" fill="black"/>
<path d="M214.9 66.0698C212.27 65.2198 210.83 62.4098 211.67 59.7798C212.52 57.1498 215.34 55.6998 217.96 56.5498C220.59 57.3998 222.04 60.2098 221.19 62.8398C220.51 64.9598 218.55 66.3098 216.43 66.3098C215.93 66.3098 215.41 66.2298 214.9 66.0698Z" fill="black"/>
<path d="M213.16 69.8908C210.58 68.9008 209.29 66.0108 210.27 63.4308C211.26 60.8508 214.15 59.5608 216.72 60.5408C219.3 61.5308 220.6 64.4208 219.61 67.0008C218.85 68.9908 216.95 70.2208 214.94 70.2208C214.35 70.2208 213.74 70.1108 213.16 69.8908Z" fill="black"/>
<path d="M210.03 77.6202C207.5 76.5102 206.34 73.5702 207.45 71.0302C208.55 68.5002 211.5 67.3502 214.03 68.4502C216.56 69.5502 217.72 72.5002 216.62 75.0302C215.79 76.9102 213.96 78.0302 212.03 78.0302C211.36 78.0302 210.68 77.9002 210.03 77.6202Z" fill="black"/>
<path d="M208.51 77.4206C205.81 76.8706 204.06 74.2306 204.61 71.5306C205.15 68.8206 207.79 67.0706 210.5 67.6206C213.2 68.1706 214.95 70.8106 214.41 73.5106C213.93 75.8806 211.84 77.5206 209.51 77.5206C209.18 77.5206 208.85 77.4906 208.51 77.4206Z" fill="black"/>
<path d="M206.89 74.5397C204.66 72.9197 204.17 69.7897 205.8 67.5597C207.43 65.3197 210.55 64.8397 212.78 66.4597C215.02 68.0897 215.5 71.2197 213.88 73.4497C212.9 74.7897 211.38 75.4997 209.83 75.4997C208.81 75.4997 207.78 75.1897 206.89 74.5397Z" fill="black"/>
<path d="M209.7 71.9993C207.07 71.1393 205.64 68.3093 206.49 65.6893C207.35 63.0693 210.17 61.6293 212.8 62.4893C215.42 63.3393 216.85 66.1693 216 68.7893C215.31 70.8993 213.35 72.2393 211.25 72.2393C210.73 72.2393 210.21 72.1593 209.7 71.9993Z" fill="black"/>
<path d="M210.36 69.959C207.73 69.109 206.3 66.279 207.16 63.659C208.02 61.029 210.84 59.599 213.46 60.459C216.09 61.319 217.52 64.139 216.66 66.769C215.97 68.869 214.02 70.209 211.91 70.209C211.4 70.209 210.87 70.129 210.36 69.959Z" fill="black"/>
<path d="M213.15 61.9098C210.56 60.9398 209.26 58.0498 210.23 55.4698C211.2 52.8798 214.08 51.5698 216.67 52.5498C219.25 53.5098 220.56 56.3998 219.59 58.9798C218.84 60.9898 216.93 62.2298 214.91 62.2298C214.32 62.2298 213.73 62.1198 213.15 61.9098Z" fill="black"/>
<path d="M213.23 59.2004C210.85 57.7904 210.07 54.7204 211.48 52.3504C212.89 49.9704 215.96 49.1904 218.33 50.6004C220.71 52.0104 221.49 55.0804 220.08 57.4504C219.14 59.0304 217.48 59.9004 215.77 59.9004C214.9 59.9004 214.03 59.6704 213.23 59.2004Z" fill="black"/>
<path d="M211.66 54.0896C210.06 51.8396 210.59 48.7196 212.84 47.1196C215.09 45.5096 218.21 46.0396 219.81 48.2896C221.41 50.5396 220.89 53.6596 218.64 55.2596C217.76 55.8896 216.75 56.1896 215.74 56.1896C214.18 56.1896 212.64 55.4596 211.66 54.0896Z" fill="black"/>
<path d="M210.23 50.8206C209.27 48.2306 210.6 45.3606 213.19 44.4006C215.79 43.4506 218.66 44.7806 219.61 47.3706C220.56 49.9606 219.24 52.8406 216.64 53.7906C216.07 54.0006 215.49 54.1006 214.92 54.1006C212.88 54.1006 210.97 52.8506 210.23 50.8206Z" fill="black"/>
<path d="M208.27 45.55C207.31 42.96 208.63 40.08 211.22 39.12C213.81 38.16 216.69 39.48 217.65 42.07C218.61 44.66 217.28 47.54 214.7 48.5C214.12 48.71 213.54 48.81 212.96 48.81C210.93 48.81 209.02 47.56 208.27 45.55Z" fill="black"/>
<path d="M206.61 40.9302C205.68 38.3302 207.03 35.4702 209.63 34.5302C212.23 33.6002 215.09 34.9502 216.03 37.5502C216.96 40.1502 215.61 43.0102 213.01 43.9502C212.45 44.1502 211.88 44.2402 211.32 44.2402C209.27 44.2402 207.35 42.9702 206.61 40.9302Z" fill="black"/>
<path d="M205.03 37.0603C203.9 34.5403 205.04 31.5803 207.56 30.4503C210.08 29.3303 213.04 30.4703 214.16 32.9903C215.28 35.5103 214.15 38.4703 211.63 39.5903C210.97 39.8803 210.28 40.0203 209.6 40.0203C207.68 40.0203 205.86 38.9203 205.03 37.0603Z" fill="black"/>
<path d="M204.14 34.4094C203.16 31.8194 204.46 28.9394 207.05 27.9594C209.63 26.9794 212.51 28.2794 213.49 30.8594C214.47 33.4394 213.17 36.3294 210.59 37.3094C210.01 37.5294 209.41 37.6294 208.82 37.6294C206.8 37.6294 204.9 36.3994 204.14 34.4094Z" fill="black"/>
<path d="M202.64 30.4201C201.67 27.8401 202.98 24.9501 205.56 23.9801C208.15 23.0101 211.03 24.3201 212.01 26.9001C212.98 29.4801 211.67 32.3701 209.08 33.3401C208.5 33.5601 207.91 33.6601 207.32 33.6601C205.3 33.6601 203.4 32.4301 202.64 30.4201Z" fill="black"/>
<path d="M198.83 20.4305C197.85 17.8505 199.15 14.9605 201.73 13.9705C204.31 12.9905 207.2 14.2805 208.18 16.8605C209.16 19.4405 207.87 22.3305 205.29 23.3205C204.7 23.5405 204.1 23.6505 203.51 23.6505C201.49 23.6505 199.6 22.4205 198.83 20.4305Z" fill="black"/>
<path d="M197.46 16.1797C196.62 13.5497 198.06 10.7297 200.69 9.88967C203.32 9.03967 206.13 10.4897 206.98 13.1197C207.83 15.7397 206.38 18.5597 203.75 19.4097C203.24 19.5697 202.73 19.6497 202.22 19.6497C200.1 19.6497 198.14 18.2997 197.46 16.1797Z" fill="black"/>
<path d="M196.69 15.8898C195.72 13.2998 197.04 10.4298 199.63 9.45979C202.22 8.49979 205.1 9.81979 206.06 12.4098C207.02 14.9998 205.71 17.8698 203.12 18.8398C202.54 19.0498 201.95 19.1498 201.38 19.1498C199.35 19.1498 197.44 17.9098 196.69 15.8898Z" fill="black"/>
<path d="M199.15 19.7696C196.53 18.8696 195.14 16.0296 196.04 13.4096C196.19 12.9796 196.37 12.5196 196.71 11.9596C198.13 9.5996 201.2 8.8296 203.57 10.2496C205.85 11.6196 206.65 14.5196 205.43 16.8496C204.66 18.8096 202.78 20.0396 200.77 20.0396C200.23 20.0396 199.68 19.9496 199.15 19.7696Z" fill="black"/>
<path d="M198.03 22.9693C195.42 22.0693 194.03 19.2193 194.93 16.6093C195.84 13.9993 198.68 12.6193 201.29 13.5193C203.9 14.4193 205.29 17.2593 204.38 19.8693C203.67 21.9493 201.73 23.2393 199.66 23.2393C199.12 23.2393 198.57 23.1593 198.03 22.9693Z" fill="black"/>
<path d="M190.49 42.8603C187.9 41.9003 186.58 39.0203 187.54 36.4303C188.51 33.8403 191.39 32.5303 193.98 33.4903C196.56 34.4603 197.88 37.3403 196.91 39.9203C196.17 41.9303 194.26 43.1803 192.23 43.1803C191.65 43.1803 191.06 43.0803 190.49 42.8603Z" fill="black"/>
<path d="M181.65 66.6403C179.06 65.6803 177.74 62.8103 178.71 60.2203C179.67 57.6303 182.55 56.3103 185.14 57.2703C187.72 58.2303 189.04 61.1103 188.08 63.7003C187.33 65.7103 185.42 66.9603 183.39 66.9603C182.81 66.9603 182.23 66.8603 181.65 66.6403Z" fill="black"/>
<path d="M179.52 66.609C178.62 64.009 179.99 61.159 182.6 60.249C185.21 59.339 188.06 60.719 188.97 63.319C189.88 65.929 188.5 68.779 185.89 69.689C185.35 69.879 184.79 69.969 184.25 69.969C182.18 69.969 180.24 68.679 179.52 66.609Z" fill="black"/>
<path d="M181.38 71.9499C180.47 69.3399 181.85 66.4899 184.46 65.5799C187.07 64.6799 189.92 66.0599 190.83 68.6599C191.73 71.2699 190.35 74.1199 187.75 75.0299C187.2 75.2199 186.65 75.3099 186.1 75.3099C184.03 75.3099 182.1 74.0099 181.38 71.9499Z" fill="black"/>
<path d="M182.44 74.5405C181.34 72.0005 182.51 69.0605 185.04 67.9605C187.57 66.8605 190.52 68.0305 191.61 70.5705C192.71 73.1005 191.55 76.0405 189.01 77.1405C188.37 77.4205 187.69 77.5505 187.03 77.5505C185.1 77.5505 183.26 76.4205 182.44 74.5405Z" fill="black"/>
<path d="M179.55 74.4399C178.88 71.7599 180.5 69.0499 183.17 68.3699C185.85 67.6899 188.57 69.3099 189.25 71.9899C189.92 74.6699 188.3 77.3899 185.62 78.0599C185.21 78.1699 184.8 78.2199 184.39 78.2199C182.16 78.2199 180.12 76.7099 179.55 74.4399Z" fill="black"/>
<path d="M177.11 68.1297C176.12 65.5497 177.41 62.6597 179.99 61.6697C182.57 60.6897 185.46 61.9797 186.44 64.5597C187.43 67.1397 186.14 70.0297 183.56 71.0197C182.97 71.2397 182.37 71.3497 181.77 71.3497C179.76 71.3497 177.87 70.1197 177.11 68.1297Z" fill="black"/>
<path d="M177.37 77.8804C174.78 76.8904 173.49 74.0004 174.48 71.4204C175.47 68.8404 178.36 67.5504 180.94 68.5404C183.52 69.5204 184.81 72.4104 183.82 75.0004C183.06 76.9904 181.16 78.2104 179.15 78.2104C178.56 78.2104 177.95 78.1004 177.37 77.8804Z" fill="black"/>
<path d="M175.34 77.4091C172.67 76.7391 171.04 74.0291 171.71 71.3491C172.38 68.6691 175.09 67.0391 177.77 67.7091C180.45 68.3791 182.08 71.0891 181.41 73.7691C180.84 76.0391 178.8 77.5591 176.56 77.5591C176.16 77.5591 175.75 77.5091 175.34 77.4091Z" fill="black"/>
<path d="M178.58 67.0799C175.99 66.1199 174.67 63.2499 175.63 60.6599C176.59 58.0599 179.46 56.7399 182.05 57.6999C184.64 58.6599 185.97 61.5299 185.01 64.1199C184.26 66.1399 182.35 67.3899 180.32 67.3899C179.74 67.3899 179.16 67.2899 178.58 67.0799Z" fill="black"/>
<path d="M167.42 42.059C166.45 39.469 167.77 36.589 170.36 35.629C172.95 34.669 175.83 35.979 176.79 38.569C177.75 41.159 176.44 44.039 173.85 44.999C173.27 45.219 172.68 45.319 172.1 45.319C170.08 45.319 168.17 44.069 167.42 42.059Z" fill="black"/>
<path d="M158.05 16.7102C157.13 14.1102 158.51 11.2502 161.11 10.3302C163.72 9.42021 166.57 10.7902 167.49 13.3902C168.4 16.0002 167.03 18.8502 164.43 19.7702C163.88 19.9602 163.32 20.0502 162.77 20.0502C160.7 20.0502 158.77 18.7702 158.05 16.7102Z" fill="black"/>
<path d="M158.02 16.62C158.02 16.62 158.02 16.6 158.02 16.59C156.73 14.23 157.56 11.25 159.9 9.88998C162.29 8.49998 165.35 9.31998 166.74 11.71C166.96 12.1 167.08 12.36 167.2 12.63C168.3 15.16 167.14 18.11 164.61 19.21C163.96 19.49 163.28 19.63 162.62 19.63C160.69 19.63 158.85 18.5 158.03 16.62H158.02Z" fill="black"/>
<path d="M159.84 19.2594C157.21 18.4094 155.78 15.5894 156.63 12.9594C157.07 11.6894 157.65 11.1594 158.03 10.7794C158.42 10.4094 158.73 10.2194 158.99 10.0494C159.52 9.74938 159.91 9.58938 160.34 9.44938C162.97 8.60938 165.78 10.0594 166.62 12.6894C167.37 15.0194 166.32 17.4894 164.24 18.6094C163.42 19.1894 162.42 19.5094 161.39 19.5094C160.87 19.5094 160.35 19.4294 159.84 19.2594Z" fill="black"/>
<path d="M158.5 23.3792C155.88 22.5292 154.44 19.7092 155.29 17.0792C156.14 14.4592 158.96 13.0192 161.59 13.8692C164.22 14.7192 165.66 17.5492 164.8 20.1692C164.12 22.2892 162.16 23.6292 160.05 23.6292C159.54 23.6292 159.02 23.5492 158.5 23.3792Z" fill="black"/>
<path d="M156.84 27.41C154.22 26.54 152.8 23.71 153.67 21.09C154.54 18.47 157.37 17.05 159.99 17.92C162.61 18.79 164.03 21.62 163.16 24.24C162.46 26.33 160.51 27.66 158.42 27.66C157.89 27.66 157.36 27.58 156.84 27.41Z" fill="black"/>
<path d="M156.02 29.8798C153.4 28.9998 151.98 26.1698 152.85 23.5498C153.72 20.9298 156.55 19.5198 159.17 20.3898C161.79 21.2598 163.21 24.0898 162.34 26.7098C161.64 28.7998 159.69 30.1298 157.59 30.1298C157.07 30.1298 156.54 30.0498 156.02 29.8798Z" fill="black"/>
<path d="M154.41 33.3204C151.84 32.3204 150.56 29.4304 151.56 26.8504C152.56 24.2804 155.46 23.0004 158.03 24.0004C160.61 25.0004 161.88 27.9004 160.88 30.4704C160.12 32.4504 158.22 33.6704 156.22 33.6704C155.62 33.6704 155.01 33.5604 154.41 33.3204Z" fill="black"/>
<path d="M152.9 37.4995C150.32 36.5295 149.01 33.6395 149.98 31.0595C150.95 28.4695 153.84 27.1695 156.42 28.1395C159.01 29.1095 160.31 31.9895 159.34 34.5695C158.59 36.5795 156.68 37.8195 154.66 37.8195C154.08 37.8195 153.48 37.7195 152.9 37.4995Z" fill="black"/>
<path d="M152.01 39.4404C149.49 38.3304 148.34 35.3804 149.44 32.8504C150.55 30.3204 153.5 29.1704 156.03 30.2804C158.56 31.3904 159.71 34.3404 158.6 36.8704C157.78 38.7504 155.94 39.8604 154.02 39.8604C153.35 39.8604 152.67 39.7304 152.01 39.4404Z" fill="black"/>
<path d="M150.54 43.9402C147.95 43.0102 146.59 40.1502 147.52 37.5502C148.46 34.9502 151.32 33.6002 153.92 34.5302C156.52 35.4602 157.87 38.3202 156.94 40.9202C156.2 42.9702 154.28 44.2402 152.23 44.2402C151.67 44.2402 151.1 44.1402 150.54 43.9402Z" fill="black"/>
<path d="M148.9 48.5106C146.3 47.5806 144.95 44.7206 145.88 42.1206C146.82 39.5206 149.68 38.1706 152.28 39.1006C154.88 40.0306 156.23 42.9006 155.29 45.5006C154.56 47.5406 152.64 48.8106 150.59 48.8106C150.03 48.8106 149.46 48.7106 148.9 48.5106Z" fill="black"/>
<path d="M146.9 53.789C144.31 52.829 142.98 49.949 143.94 47.359C144.9 44.769 147.78 43.449 150.37 44.409C152.96 45.369 154.28 48.239 153.32 50.829C152.58 52.849 150.66 54.099 148.63 54.099C148.05 54.099 147.47 53.999 146.9 53.789Z" fill="black"/>
<path d="M144.97 55.3097C142.7 53.7397 142.13 50.6297 143.69 48.3597C145.26 46.0797 148.38 45.5097 150.65 47.0797C152.92 48.6397 153.49 51.7597 151.92 54.0297C150.96 55.4397 149.39 56.1897 147.8 56.1897C146.82 56.1897 145.84 55.9097 144.97 55.3097Z" fill="black"/>
<path d="M143.36 57.229C141.97 54.849 142.77 51.779 145.16 50.389C147.54 48.999 150.6 49.809 152 52.189C153.39 54.579 152.58 57.639 150.19 59.029C149.4 59.489 148.54 59.709 147.68 59.709C145.96 59.709 144.29 58.819 143.36 57.229Z" fill="black"/>
<path d="M144.03 59.1799C143.05 56.5999 144.36 53.7099 146.95 52.7399C149.53 51.7699 152.41 53.0799 153.38 55.6599C154.36 58.2499 153.05 61.1299 150.46 62.0999C149.88 62.3199 149.29 62.4199 148.7 62.4199C146.68 62.4199 144.78 61.1899 144.03 59.1799Z" fill="black"/>
<path d="M146.96 66.9701C145.99 64.3901 147.29 61.5101 149.88 60.5301C152.46 59.5601 155.34 60.8601 156.32 63.4501C157.29 66.0301 155.98 68.9201 153.4 69.8901C152.82 70.1101 152.23 70.2101 151.64 70.2101C149.62 70.2101 147.72 68.9801 146.96 66.9701Z" fill="black"/>
<path d="M147.55 68.7893C146.69 66.1693 148.12 63.3493 150.75 62.4893C153.37 61.6293 156.2 63.0693 157.05 65.6893C157.91 68.3093 156.48 71.1393 153.85 71.9993C153.34 72.1593 152.81 72.2393 152.3 72.2393C150.2 72.2393 148.24 70.8993 147.55 68.7893Z" fill="black"/>
<path d="M153.06 77.4097C150.35 76.8497 148.62 74.1997 149.18 71.4997C149.75 68.7997 152.4 67.0597 155.1 67.6297C157.8 68.1897 159.54 70.8397 158.97 73.5397C158.48 75.8997 156.4 77.5197 154.09 77.5197C153.75 77.5197 153.4 77.4897 153.06 77.4097Z" fill="black"/>
<path d="M146.71 74.1196C146.12 71.4196 147.84 68.7596 150.53 68.1696C153.23 67.5896 155.9 69.2996 156.48 71.9996C157.06 74.6896 155.35 77.3596 152.65 77.9396C152.3 78.0196 151.94 78.0596 151.59 78.0596C149.29 78.0596 147.21 76.4596 146.71 74.1196Z" fill="black"/>
<path d="M143.9 66.9102C142.88 64.3402 144.13 61.4402 146.7 60.4202C149.27 59.3902 152.17 60.6502 153.19 63.2102C154.22 65.7802 152.96 68.6802 150.4 69.7102C149.79 69.9502 149.17 70.0602 148.55 70.0602C146.56 70.0602 144.68 68.8702 143.9 66.9102Z" fill="black"/>
<path d="M142.38 62.9008C141.51 60.2808 142.94 57.4508 145.56 56.5908C148.18 55.7208 151.01 57.1508 151.87 59.7708C152.74 62.3908 151.31 65.2208 148.69 66.0808C148.17 66.2608 147.64 66.3408 147.12 66.3408C145.02 66.3408 143.07 65.0008 142.38 62.9008Z" fill="black"/>
<path d="M141.44 60.0492C140.58 57.4292 142 54.5992 144.62 53.7392C147.25 52.8692 150.07 54.2992 150.94 56.9292C151.8 59.5492 150.37 62.3692 147.75 63.2392C147.23 63.4092 146.7 63.4892 146.19 63.4892C144.09 63.4892 142.13 62.1592 141.44 60.0492Z" fill="black"/>
<path d="M141.05 61.6102C139.35 59.4302 139.73 56.2902 141.91 54.5902C143.22 53.6402 143.88 53.6402 144.39 53.5102C144.9 53.4202 145.25 53.4102 145.59 53.4102C148.35 53.4102 150.58 55.6502 150.58 58.4102C150.58 60.9502 148.69 63.0502 146.23 63.3702C145.82 63.4702 145.41 63.5202 144.99 63.5202C143.51 63.5202 142.04 62.8702 141.05 61.6102Z" fill="black"/>
<path d="M142.95 64.3408C140.34 63.4608 138.94 60.6408 139.81 58.0308C139.81 58.0308 139.82 57.9908 139.83 57.9508C139.85 57.8708 139.89 57.7408 139.95 57.5508C140.77 54.9108 143.57 53.4408 146.21 54.2708C148.85 55.0908 150.32 57.8908 149.49 60.5308C149.49 60.5308 149.44 60.7508 149.29 61.2008C148.58 63.2908 146.64 64.6108 144.55 64.6108C144.02 64.6108 143.48 64.5208 142.95 64.3408Z" fill="black"/>
<path d="M141.51 68.5601C138.9 67.6701 137.5 64.8301 138.38 62.2201C139.27 59.6001 142.11 58.2001 144.73 59.0901C147.34 59.9801 148.74 62.8101 147.86 65.4301C147.15 67.5101 145.2 68.8201 143.12 68.8201C142.59 68.8201 142.05 68.7401 141.51 68.5601Z" fill="black"/>
<path d="M139.94 69.9205C137.62 68.5605 136.81 65.6205 138.06 63.2705C138.06 63.2705 138.07 63.2305 138.08 63.2005C138.92 60.5705 141.74 59.1305 144.37 59.9805C147 60.8205 148.45 63.6405 147.6 66.2705C147.45 66.7105 147.26 67.3305 146.78 68.1505C145.85 69.7305 144.18 70.6205 142.47 70.6205C141.61 70.6205 140.74 70.3905 139.94 69.9205Z" fill="black"/>
<path d="M139.49 73.6295C136.88 72.7095 135.52 69.8495 136.44 67.2495C137.36 64.6495 140.22 63.2795 142.82 64.2095C145.43 65.1295 146.79 67.9795 145.87 70.5895C145.14 72.6395 143.21 73.9195 141.15 73.9195C140.6 73.9195 140.04 73.8295 139.49 73.6295Z" fill="black"/>
<path d="M138.03 77.7605C135.43 76.8405 134.06 73.9805 134.98 71.3805C135.9 68.7705 138.76 67.4105 141.36 68.3305C143.97 69.2505 145.33 72.1005 144.41 74.7105C143.69 76.7605 141.76 78.0405 139.7 78.0405C139.15 78.0405 138.58 77.9505 138.03 77.7605Z" fill="black"/>
<path d="M135.85 77.3892C133.14 76.8692 131.36 74.2492 131.88 71.5292C132.41 68.8192 135.03 67.0492 137.74 67.5692C140.45 68.0892 142.23 70.7192 141.7 73.4292C141.24 75.8192 139.15 77.4792 136.8 77.4792C136.49 77.4792 136.17 77.4492 135.85 77.3892Z" fill="black"/>
<path d="M136.28 74.1707C133.68 73.2407 132.34 70.3807 133.27 67.7807C134.2 65.1807 137.06 63.8307 139.66 64.7607C142.26 65.6907 143.61 68.5607 142.68 71.1607C141.95 73.2007 140.02 74.4707 137.97 74.4707C137.41 74.4707 136.84 74.3707 136.28 74.1707Z" fill="black"/>
<path d="M137.79 69.9793C135.19 69.0493 133.84 66.1893 134.77 63.5893C135.7 60.9893 138.56 59.6393 141.16 60.5693C143.76 61.4993 145.12 64.3593 144.19 66.9593C143.45 68.9993 141.53 70.2793 139.48 70.2793C138.92 70.2793 138.35 70.1793 137.79 69.9793Z" fill="black"/>
<path d="M139.33 65.6504C136.76 64.6504 135.48 61.7504 136.48 59.1804C137.47 56.6104 140.37 55.3304 142.95 56.3304C145.52 57.3204 146.8 60.2204 145.8 62.7904C145.03 64.7804 143.14 65.9904 141.14 65.9904C140.54 65.9904 139.93 65.8804 139.33 65.6504Z" fill="black"/>
<path d="M140.56 61.1708C138.08 59.9608 137.05 56.9608 138.26 54.4808C139.47 52.0008 142.46 50.9708 144.94 52.1808C147.43 53.3908 148.46 56.3908 147.24 58.8708C146.38 60.6408 144.6 61.6808 142.74 61.6808C142.01 61.6808 141.26 61.5108 140.56 61.1708Z" fill="black"/>
<path d="M138.88 53.2C138.06 50.56 139.52 47.76 142.16 46.94C144.8 46.12 147.6 47.59 148.42 50.23C149.24 52.86 147.77 55.66 145.14 56.48C144.64 56.64 144.14 56.71 143.65 56.71C141.52 56.71 139.54 55.34 138.88 53.2Z" fill="black"/>
<path d="M138.67 52.5406L138.47 51.8905C137.65 49.2605 139.12 46.4506 141.76 45.6306C144.39 44.8106 147.2 46.2905 148.02 48.9205L148.22 49.5705C149.04 52.2106 147.57 55.0106 144.93 55.8306C144.44 55.9906 143.94 56.0606 143.45 56.0606C141.32 56.0606 139.34 54.6906 138.67 52.5406Z" fill="black"/>
<path d="M136.76 47.7195C135.9 45.0995 137.32 42.2695 139.94 41.3995C142.56 40.5395 145.39 41.9595 146.26 44.5795C147.13 47.1995 145.7 50.0295 143.08 50.8995C142.56 51.0695 142.03 51.1495 141.51 51.1495C139.41 51.1495 137.46 49.8195 136.76 47.7195Z" fill="black"/>
<path d="M134.33 41.2993C133.47 38.6793 134.89 35.8493 137.51 34.9893C140.14 34.1193 142.96 35.5493 143.83 38.1693C144.7 40.7893 143.27 43.6193 140.65 44.4793C140.13 44.6593 139.6 44.7393 139.08 44.7393C136.98 44.7393 135.03 43.3993 134.33 41.2993Z" fill="black"/>
<path d="M132.99 37.229C132.12 34.609 133.55 31.779 136.17 30.919C138.79 30.049 141.62 31.479 142.48 34.099C143.35 36.719 141.93 39.549 139.3 40.409C138.78 40.589 138.25 40.669 137.73 40.669C135.64 40.669 133.68 39.339 132.99 37.229Z" fill="black"/>
<path d="M129.47 28.1497C128.47 25.5797 129.76 22.6797 132.33 21.6897C134.91 20.6897 137.8 21.9697 138.8 24.5497C139.79 27.1197 138.51 30.0197 135.94 31.0097C135.34 31.2397 134.73 31.3497 134.14 31.3497C132.13 31.3497 130.24 30.1397 129.47 28.1497Z" fill="black"/>
<path d="M127.9 24.0208C126.92 21.4408 128.22 18.5508 130.8 17.5708C133.38 16.5908 136.27 17.8908 137.25 20.4708C138.23 23.0508 136.93 25.9408 134.35 26.9208C133.77 27.1408 133.17 27.2508 132.58 27.2508C130.56 27.2508 128.66 26.0208 127.9 24.0208Z" fill="black"/>
<path d="M126.04 18.93C125.16 16.31 126.57 13.47 129.19 12.59C131.81 11.72 134.64 13.12 135.52 15.74C136.4 18.36 134.99 21.19 132.37 22.07C131.85 22.25 131.31 22.34 130.78 22.34C128.69 22.34 126.74 21.02 126.04 18.93Z" fill="black"/>
<path d="M125.23 16.5297C124.35 13.9097 125.76 11.0797 128.37 10.1897C130.99 9.30968 133.83 10.7197 134.71 13.3297C135.59 15.9497 134.19 18.7897 131.57 19.6697C131.04 19.8497 130.5 19.9297 129.97 19.9297C127.88 19.9297 125.94 18.6197 125.23 16.5297Z" fill="black"/>
<path d="M127.11 18.9791C124.52 18.0291 123.19 15.1491 124.15 12.5591C125.11 9.96906 127.99 8.64906 130.57 9.59906C133.17 10.5591 134.49 13.4391 133.53 16.0291C132.78 18.0391 130.87 19.2891 128.84 19.2891C128.26 19.2891 127.68 19.1891 127.11 18.9791Z" fill="black"/>
<path d="M125.95 22.0996C123.36 21.1396 122.04 18.2596 123 15.6696C123.96 13.0796 126.83 11.7596 129.42 12.7196C132.01 13.6796 133.33 16.5596 132.37 19.1496C131.63 21.1596 129.72 22.4096 127.68 22.4096C127.11 22.4096 126.52 22.3096 125.95 22.0996Z" fill="black"/>
<path d="M124.66 25.1907C122.09 24.1907 120.81 21.2907 121.81 18.7207C122.81 16.1407 125.71 14.8707 128.29 15.8707C130.86 16.8707 132.13 19.7707 131.13 22.3407C130.37 24.3207 128.47 25.5307 126.47 25.5307C125.87 25.5307 125.25 25.4207 124.66 25.1907Z" fill="black"/>
<path d="M123.36 30.0705C120.71 29.3105 119.18 26.5405 119.94 23.8905C120.7 21.2305 123.47 19.7005 126.13 20.4605C128.78 21.2305 130.31 24.0005 129.55 26.6605C128.92 28.8505 126.92 30.2705 124.75 30.2705C124.29 30.2705 123.82 30.2105 123.36 30.0705Z" fill="black"/>
<path d="M120.98 31.2501C118.78 29.5801 118.34 26.4501 120 24.2401C121.66 22.0401 124.8 21.6001 127 23.2601C129.21 24.9201 129.65 28.0501 127.99 30.2601C127 31.5701 125.51 32.2501 123.99 32.2501C122.94 32.2501 121.89 31.9201 120.98 31.2501Z" fill="black"/>
<path d="M121.07 34.89C118.5 33.89 117.22 30.99 118.22 28.42C119.22 25.84 122.12 24.57 124.69 25.57C127.27 26.57 128.54 29.46 127.54 32.04C126.78 34.02 124.89 35.23 122.89 35.23C122.28 35.23 121.67 35.12 121.07 34.89Z" fill="black"/>
<path d="M118.13 42.4806C115.56 41.4806 114.28 38.5806 115.28 36.0106C116.28 33.4306 119.17 32.1506 121.75 33.1506C124.32 34.1506 125.6 37.0506 124.6 39.6206C123.83 41.6006 121.94 42.8206 119.94 42.8206C119.34 42.8206 118.72 42.7106 118.13 42.4806Z" fill="black"/>
<path d="M117.13 45.9701C114.52 45.0801 113.13 42.2301 114.03 39.6201C114.93 37.0101 117.77 35.6201 120.38 36.5201C123 37.4201 124.39 40.2601 123.49 42.8701C122.78 44.9501 120.84 46.2501 118.76 46.2501C118.22 46.2501 117.67 46.1601 117.13 45.9701Z" fill="black"/>
<path d="M115.66 50.1102C113.03 49.2702 111.57 46.4602 112.41 43.8302C113.25 41.1902 116.06 39.7402 118.69 40.5802C121.32 41.4202 122.78 44.2302 121.94 46.8602C121.26 48.9902 119.3 50.3402 117.18 50.3402C116.67 50.3402 116.16 50.2702 115.66 50.1102Z" fill="black"/>
<path d="M113.71 54.4897C111.14 53.4997 109.85 50.6097 110.83 48.0297C111.82 45.4497 114.71 44.1597 117.29 45.1497C119.87 46.1397 121.16 49.0297 120.17 51.6097C119.41 53.5997 117.51 54.8197 115.5 54.8197C114.91 54.8197 114.3 54.7097 113.71 54.4897Z" fill="black"/>
<path d="M112.08 58.7695C109.5 57.7895 108.21 54.8995 109.2 52.3195C110.18 49.7395 113.07 48.4495 115.65 49.4295C118.23 50.4195 119.52 53.3095 118.54 55.8895C117.78 57.8795 115.88 59.0995 113.87 59.0995C113.27 59.0995 112.67 58.9995 112.08 58.7695Z" fill="black"/>
<path d="M108.65 68.2897C106.06 67.3397 104.73 64.4697 105.68 61.8697C106.63 59.2797 109.51 57.9497 112.1 58.9097C114.69 59.8597 116.02 62.7297 115.06 65.3297C114.32 67.3497 112.41 68.5997 110.37 68.5997C109.8 68.5997 109.22 68.4997 108.65 68.2897Z" fill="black"/>
<path d="M106.61 73.3406C104.03 72.3406 102.75 69.4506 103.75 66.8706C104.74 64.3006 107.64 63.0206 110.21 64.0106C112.79 65.0106 114.07 67.9006 113.07 70.4806C112.31 72.4606 110.42 73.6806 108.41 73.6806C107.81 73.6806 107.2 73.5706 106.61 73.3406Z" fill="black"/>
<path d="M104.36 77.4091C101.95 76.0691 101.08 73.0191 102.42 70.6091C103.76 68.1991 106.81 67.319 109.22 68.669C111.63 70.009 112.51 73.0491 111.16 75.4691C110.25 77.1091 108.55 78.0391 106.79 78.0391C105.97 78.0391 105.13 77.8391 104.36 77.4091Z" fill="black"/>
<path d="M102.95 77.3595C100.24 76.7995 98.4999 74.1595 99.0599 71.4495C99.6099 68.7495 102.25 66.9995 104.96 67.5595C107.66 68.1095 109.4 70.7495 108.85 73.4595C108.37 75.8295 106.28 77.4595 103.96 77.4595C103.62 77.4595 103.29 77.4195 102.95 77.3595Z" fill="black"/>
<path d="M106.39 66.0698C103.81 65.0798 102.52 62.1898 103.51 59.6098C104.49 57.0298 107.38 55.7398 109.96 56.7298C112.54 57.7098 113.83 60.5998 112.85 63.1798C112.09 65.1698 110.19 66.3998 108.18 66.3998C107.58 66.3998 106.98 66.2898 106.39 66.0698Z" fill="black"/>
<path d="M110.22 55.8405C107.63 54.8905 106.3 52.0105 107.26 49.4205C108.21 46.8305 111.09 45.5005 113.68 46.4605C116.27 47.4205 117.6 50.2905 116.64 52.8805C115.9 54.9005 113.98 56.1505 111.95 56.1505C111.38 56.1505 110.79 56.0505 110.22 55.8405Z" fill="black"/>
<path d="M111.5 51.6404C108.98 50.5004 107.87 47.5404 109.01 45.0204C110.15 42.5104 113.11 41.3904 115.63 42.5304C118.14 43.6704 119.26 46.6404 118.12 49.1504C117.28 51.0004 115.46 52.0904 113.56 52.0904C112.87 52.0904 112.17 51.9404 111.5 51.6404Z" fill="black"/>
<path d="M112.77 48.75C110.19 47.77 108.9 44.88 109.89 42.3C110.87 39.72 113.76 38.43 116.34 39.41C118.92 40.4 120.21 43.29 119.23 45.87C118.47 47.86 116.57 49.08 114.55 49.08C113.96 49.08 113.36 48.98 112.77 48.75Z" fill="black"/>
<path d="M115.91 40.5293C113.33 39.5493 112.04 36.6593 113.02 34.0793C114 31.4993 116.89 30.2093 119.47 31.1893C122.05 32.1693 123.35 35.0593 122.36 37.6393C121.6 39.6393 119.7 40.8593 117.69 40.8593C117.1 40.8593 116.5 40.7593 115.91 40.5293Z" fill="black"/>
<path d="M117.26 37.23C114.67 36.28 113.34 33.41 114.28 30.81C115.23 28.22 118.1 26.89 120.7 27.84C123.29 28.78 124.62 31.66 123.68 34.25C122.93 36.28 121.02 37.53 118.98 37.53C118.41 37.53 117.83 37.44 117.26 37.23Z" fill="black"/>
<path d="M119.51 31.0795C116.92 30.1295 115.58 27.2595 116.53 24.6695C117.48 22.0695 120.35 20.7395 122.95 21.6895C125.54 22.6395 126.87 25.5095 125.92 28.1095C125.18 30.1295 123.27 31.3895 121.23 31.3895C120.66 31.3895 120.08 31.2895 119.51 31.0795Z" fill="black"/>
<path d="M121.01 26.9395C118.44 25.9395 117.16 23.0495 118.16 20.4695C119.16 17.8995 122.05 16.6195 124.63 17.6195C127.2 18.6095 128.48 21.5095 127.48 24.0895C126.72 26.0695 124.82 27.2795 122.82 27.2795C122.22 27.2795 121.61 27.1695 121.01 26.9395Z" fill="black"/>
<path d="M121.43 24.749C118.9 23.629 117.76 20.679 118.88 18.149C119.99 15.629 122.95 14.479 125.47 15.599C128 16.719 129.14 19.669 128.02 22.189C127.2 24.059 125.37 25.179 123.45 25.179C122.77 25.179 122.09 25.039 121.43 24.749Z" fill="black"/>
<path d="M122.95 21.3095C120.43 20.1895 119.28 17.2395 120.39 14.7195C121.5 12.1895 124.45 11.0395 126.98 12.1495C129.51 13.2695 130.65 16.2195 129.54 18.7395C128.72 20.6195 126.89 21.7295 124.96 21.7295C124.29 21.7295 123.61 21.5895 122.95 21.3095Z" fill="black"/>
<path d="M125.23 15.7906C122.64 14.8306 121.32 11.9606 122.27 9.37056C123.23 6.78056 126.1 5.45056 128.69 6.40056C131.28 7.36056 132.61 10.2306 131.65 12.8206C130.91 14.8506 129 16.1006 126.96 16.1006C126.39 16.1006 125.81 16.0006 125.23 15.7906Z" fill="black"/>
<path d="M127.31 10.1508C124.72 9.20083 123.39 6.33083 124.35 3.74083C125.3 1.14083 128.17 -0.179172 130.76 0.770828C133.36 1.73083 134.68 4.60083 133.73 7.19083C132.98 9.21083 131.07 10.4608 129.04 10.4608C128.46 10.4608 127.88 10.3608 127.31 10.1508Z" fill="black"/>
<path d="M125.73 10.0198C124.75 7.43975 126.06 4.54975 128.64 3.57975C131.23 2.60975 134.11 3.91975 135.08 6.49975C136.06 9.07975 134.75 11.9698 132.16 12.9398C131.58 13.1598 130.99 13.2598 130.4 13.2598C128.38 13.2598 126.48 12.0298 125.73 10.0198Z" fill="black"/>
<path d="M128.83 18.2892C127.86 15.7092 129.17 12.8192 131.76 11.8492C134.34 10.8792 137.22 12.1892 138.19 14.7792C139.17 17.3592 137.86 20.2392 135.27 21.2192C134.69 21.4292 134.1 21.5392 133.51 21.5392C131.49 21.5392 129.59 20.2992 128.83 18.2892Z" fill="black"/>
<path d="M129.65 20.7508C128.78 18.1308 130.19 15.3008 132.81 14.4308C135.43 13.5608 138.26 14.9708 139.14 17.5908C140.01 20.2108 138.59 23.0408 135.97 23.9208C135.45 24.0908 134.92 24.1708 134.39 24.1708C132.3 24.1708 130.35 22.8508 129.65 20.7508Z" fill="black"/>
<path d="M131.49 25.4094C130.51 22.8294 131.81 19.9394 134.39 18.9594C136.97 17.9794 139.86 19.2794 140.84 21.8594C141.82 24.4394 140.52 27.3294 137.94 28.3094C137.36 28.5294 136.76 28.6394 136.17 28.6394C134.15 28.6394 132.25 27.4094 131.49 25.4094Z" fill="black"/>
<path d="M133.09 29.6301C132.11 27.0501 133.41 24.1701 135.99 23.1901C138.58 22.2001 141.46 23.5101 142.44 26.0901C143.42 28.6701 142.12 31.5501 139.54 32.5301C138.96 32.7601 138.36 32.8601 137.77 32.8601C135.75 32.8601 133.85 31.6301 133.09 29.6301Z" fill="black"/>
<path d="M134.48 33.4294C133.5 30.8394 134.81 27.9594 137.39 26.9794C139.98 26.0094 142.86 27.3094 143.83 29.8994C144.81 32.4794 143.5 35.3594 140.92 36.3394C140.34 36.5594 139.74 36.6594 139.16 36.6594C137.14 36.6594 135.23 35.4294 134.48 33.4294Z" fill="black"/>
<path d="M136.2 37.9399C135.22 35.3599 136.51 32.4699 139.09 31.4899C141.67 30.5099 144.56 31.7999 145.54 34.3899C146.53 36.9699 145.23 39.8599 142.65 40.8399C142.06 41.0599 141.46 41.1599 140.87 41.1599C138.86 41.1599 136.96 39.9399 136.2 37.9399Z" fill="black"/>
<path d="M136.94 40.169C136.06 37.549 137.47 34.719 140.09 33.839C142.71 32.959 145.55 34.379 146.42 36.989C147.3 39.609 145.89 42.449 143.27 43.319C142.74 43.499 142.21 43.579 141.68 43.579C139.59 43.579 137.64 42.259 136.94 40.169Z" fill="black"/>
<path d="M138.56 44.2795C137.54 41.7095 138.8 38.8095 141.37 37.7895C143.93 36.7695 146.84 38.0295 147.86 40.5995C148.87 43.1695 147.61 46.0695 145.05 47.0895C144.44 47.3295 143.82 47.4395 143.21 47.4395C141.22 47.4395 139.33 46.2395 138.56 44.2795Z" fill="black"/>
<path d="M140.07 48.8708C139.2 46.2508 140.62 43.4208 143.24 42.5508C145.86 41.6808 148.69 43.1008 149.56 45.7208C150.43 48.3408 149.01 51.1708 146.39 52.0408C145.87 52.2208 145.34 52.3008 144.82 52.3008C142.72 52.3008 140.77 50.9708 140.07 48.8708Z" fill="black"/>
<path d="M144.43 52.4793C141.83 51.5493 140.47 48.6893 141.39 46.0893C142.32 43.4893 145.18 42.1293 147.78 43.0493C150.38 43.9793 151.74 46.8393 150.81 49.4393C150.09 51.4893 148.16 52.7693 146.1 52.7693C145.55 52.7693 144.98 52.6693 144.43 52.4793Z" fill="black"/>
<path d="M145.25 50.1998C142.64 49.2898 141.27 46.4398 142.18 43.8298C143.09 41.2198 145.94 39.8498 148.55 40.7598C151.16 41.6698 152.53 44.5298 151.62 47.1298C150.9 49.1898 148.97 50.4798 146.9 50.4798C146.35 50.4798 145.8 50.3898 145.25 50.1998Z" fill="black"/>
<path d="M146.04 48.139C143.41 47.289 141.97 44.469 142.83 41.839C143.68 39.219 146.5 37.779 149.12 38.629C151.75 39.479 153.19 42.299 152.34 44.929C151.65 47.039 149.69 48.389 147.58 48.389C147.07 48.389 146.55 48.309 146.04 48.139Z" fill="black"/>
<path d="M147.03 44.6699C144.49 43.5699 143.33 40.6299 144.42 38.0899C145.52 35.5599 148.46 34.3899 151 35.4899C153.53 36.5899 154.7 39.5299 153.6 42.0599C152.79 43.9499 150.94 45.0799 149.01 45.0799C148.35 45.0799 147.67 44.9499 147.03 44.6699Z" fill="black"/>
<path d="M148.79 40.2997C146.21 39.3197 144.91 36.4297 145.9 33.8497C146.88 31.2697 149.77 29.9697 152.35 30.9497C154.93 31.9397 156.22 34.8197 155.24 37.3997C154.48 39.3997 152.59 40.6297 150.57 40.6297C149.98 40.6297 149.38 40.5197 148.79 40.2997Z" fill="black"/>
<path d="M150.5 35.8007C147.92 34.8207 146.63 31.9307 147.61 29.3507C148.6 26.7707 151.49 25.4807 154.07 26.4607C156.65 27.4407 157.94 30.3307 156.96 32.9107C156.2 34.9107 154.3 36.1307 152.28 36.1307C151.69 36.1307 151.09 36.0307 150.5 35.8007Z" fill="black"/>
<path d="M151.53 33.9307C148.88 33.1407 147.37 30.3507 148.16 27.7107C148.95 25.0607 151.73 23.5507 154.38 24.3407C157.02 25.1307 158.53 27.9107 157.75 30.5607C157.1 32.7307 155.11 34.1307 152.95 34.1307C152.48 34.1307 152 34.0707 151.53 33.9307Z" fill="black"/>
<path d="M152.44 31.0304C149.84 30.0904 148.49 27.2304 149.43 24.6304C150.37 22.0304 153.24 20.6904 155.84 21.6304C158.43 22.5704 159.78 25.4304 158.84 28.0304C158.1 30.0704 156.18 31.3304 154.14 31.3304C153.57 31.3304 153 31.2404 152.44 31.0304Z" fill="black"/>
<path d="M154.6 25.0492C152.01 24.0992 150.67 21.2392 151.61 18.6392C152.55 16.0392 155.42 14.6992 158.02 15.6492C160.62 16.5892 161.95 19.4592 161.01 22.0592C160.27 24.0892 158.36 25.3492 156.31 25.3492C155.75 25.3492 155.17 25.2492 154.6 25.0492Z" fill="black"/>
<path d="M156.09 20.909C153.52 19.899 152.25 16.999 153.26 14.429C154.27 11.859 157.17 10.589 159.74 11.599C162.31 12.599 163.58 15.499 162.57 18.069C161.8 20.049 159.91 21.249 157.91 21.249C157.31 21.249 156.69 21.139 156.09 20.909Z" fill="black"/>
<path d="M157.33 19.1008C154.66 18.4208 153.05 15.7008 153.73 13.0208C154.41 10.3508 157.13 8.73077 159.81 9.42077C162.48 10.1008 164.1 12.8208 163.42 15.5008C162.84 17.7608 160.81 19.2608 158.58 19.2608C158.17 19.2608 157.75 19.2108 157.33 19.1008Z" fill="black"/>
<path d="M158.21 15.7896C155.6 14.8796 154.22 12.0296 155.14 9.41965C156.05 6.80965 158.9 5.43965 161.51 6.34965C164.11 7.25965 165.49 10.1096 164.58 12.7196C163.85 14.7796 161.92 16.0696 159.86 16.0696C159.31 16.0696 158.75 15.9796 158.21 15.7896Z" fill="black"/>
<path d="M160.31 9.77899C157.7 8.85899 156.32 6.00899 157.24 3.40899C158.14 0.798987 160.99 -0.581013 163.6 0.328987C166.21 1.23899 167.59 4.08899 166.68 6.69899C165.96 8.75899 164.02 10.049 161.96 10.049C161.41 10.049 160.85 9.95899 160.31 9.77899Z" fill="black"/>
<path d="M160.22 9.71917C157.63 8.74917 156.32 5.87917 157.28 3.28917V3.26917C158.25 0.67917 161.13 -0.64083 163.72 0.31917C166.3 1.28917 167.62 4.16917 166.66 6.75917V6.77917C165.9 8.78917 163.99 10.0292 161.96 10.0292C161.38 10.0292 160.79 9.92917 160.22 9.71917Z" fill="black"/>
<path d="M157.54 7.31998C157.54 7.31998 157.52 7.27998 157.51 7.26998C156.29 4.81998 157.25 1.83998 159.69 0.589982C162.14 -0.680018 165.16 0.289982 166.42 2.73998C166.51 2.90998 166.57 3.03998 166.57 3.04998C167.68 5.57998 166.52 8.52998 164 9.62998C163.34 9.91998 162.66 10.05 161.99 10.05C160.16 10.05 158.41 9.03998 157.54 7.31998Z" fill="black"/>
<path d="M158.35 9.53008C157.53 6.90008 159 4.09008 161.63 3.27008C164.27 2.45008 167.07 3.92008 167.9 6.56008C168.72 9.20008 167.24 12.0001 164.61 12.8201C164.11 12.9801 163.61 13.0501 163.12 13.0501C160.99 13.0501 159.01 11.6701 158.35 9.53008Z" fill="black"/>
<path d="M159.06 11.8292C158.24 9.18921 159.71 6.38921 162.34 5.55921C164.98 4.73921 167.78 6.20921 168.61 8.83921C169.43 11.4792 167.97 14.2792 165.33 15.1092C164.83 15.2592 164.33 15.3392 163.83 15.3392C161.7 15.3392 159.73 13.9692 159.06 11.8292Z" fill="black"/>
<path d="M160.58 15.3997C159.48 12.8697 160.64 9.9197 163.18 8.8197C165.71 7.7197 168.66 8.8797 169.76 11.4097C170.86 13.9397 169.69 16.8897 167.16 17.9897C166.51 18.2697 165.84 18.4097 165.17 18.4097C163.24 18.4097 161.4 17.2797 160.58 15.3997Z" fill="black"/>
<path d="M162.62 21.1195C161.69 18.5195 163.04 15.6595 165.64 14.7295C168.24 13.7995 171.1 15.1495 172.04 17.7495C172.97 20.3495 171.62 23.2095 169.02 24.1395C168.46 24.3395 167.89 24.4395 167.33 24.4395C165.28 24.4395 163.36 23.1695 162.62 21.1195Z" fill="black"/>
<path d="M164.7 26.8391C163.69 24.2591 164.96 21.3591 167.54 20.3591C170.11 19.3591 173.01 20.6291 174.01 23.1991C175.02 25.7691 173.75 28.6691 171.18 29.6791C170.58 29.9091 169.96 30.0191 169.36 30.0191C167.36 30.0191 165.47 28.8091 164.7 26.8391Z" fill="black"/>
<path d="M166.18 30.6103C165.17 28.0403 166.44 25.1403 169.01 24.1303C171.58 23.1203 174.48 24.3903 175.49 26.9603C176.5 29.5303 175.23 32.4303 172.66 33.4403C172.06 33.6703 171.44 33.7903 170.84 33.7903C168.84 33.7903 166.95 32.5803 166.18 30.6103Z" fill="black"/>
<path d="M168.23 36.2403C167.21 33.6703 168.45 30.7603 171.02 29.7403C173.58 28.7203 176.49 29.9703 177.52 32.5303C178.54 35.1003 177.29 38.0003 174.73 39.0303C174.12 39.2703 173.49 39.3803 172.87 39.3803C170.89 39.3803 169.01 38.1903 168.23 36.2403Z" fill="black"/>
<path d="M169.95 41.0499C169.11 38.4099 170.56 35.5999 173.19 34.7599C175.82 33.9199 178.64 35.3699 179.48 38.0099C180.32 40.6399 178.86 43.4499 176.23 44.2899C175.73 44.4499 175.22 44.5299 174.71 44.5299C172.59 44.5299 170.63 43.1699 169.95 41.0499Z" fill="black"/>
<path d="M171.1 43.9999C170.15 41.3999 171.48 38.5299 174.08 37.5899C176.67 36.6399 179.54 37.9699 180.49 40.5699C181.44 43.1599 180.1 46.0299 177.51 46.9799C176.94 47.1899 176.36 47.2799 175.79 47.2799C173.75 47.2799 171.84 46.0299 171.1 43.9999Z" fill="black"/>
<path d="M173.57 50.7307C172.62 48.1307 173.94 45.2607 176.54 44.3107C179.13 43.3607 182 44.6907 182.95 47.2807C183.91 49.8707 182.58 52.7407 179.98 53.7007C179.42 53.9007 178.83 54.0007 178.26 54.0007C176.22 54.0007 174.31 52.7507 173.57 50.7307Z" fill="black"/>
<path d="M175.19 54.9096C174.19 52.3396 175.47 49.4496 178.05 48.4496C180.62 47.4496 183.52 48.7296 184.52 51.2996C185.51 53.8796 184.23 56.7696 181.66 57.7696C181.07 57.9996 180.46 58.1096 179.86 58.1096C177.85 58.1096 175.96 56.8996 175.19 54.9096Z" fill="black"/>
<path d="M177.44 60.5297C176.06 58.1397 176.89 55.0797 179.29 53.7097C181.68 52.3397 184.74 53.1597 186.11 55.5597C187.49 57.9597 186.66 61.0097 184.26 62.3897C183.48 62.8297 182.62 63.0497 181.78 63.0497C180.05 63.0497 178.36 62.1497 177.44 60.5297Z" fill="black"/>
<path d="M181.89 57.7708C179.31 56.7708 178.03 53.8708 179.03 51.3008C180.04 48.7208 182.93 47.4508 185.51 48.4508C188.08 49.4508 189.36 52.3408 188.36 54.9208C187.59 56.9008 185.7 58.1108 183.7 58.1108C183.09 58.1108 182.48 58.0008 181.89 57.7708Z" fill="black"/>
<path d="M183.48 53.6601C180.9 52.6701 179.63 49.7701 180.62 47.2001C181.62 44.6201 184.51 43.3401 187.09 44.3401C189.66 45.3401 190.94 48.2301 189.95 50.8101C189.18 52.7901 187.29 54.0001 185.28 54.0001C184.68 54.0001 184.07 53.9001 183.48 53.6601Z" fill="black"/>
<path d="M186.03 46.9792C183.44 46.0192 182.11 43.1492 183.06 40.5592C184.01 37.9592 186.89 36.6392 189.48 37.5892C192.07 38.5392 193.4 41.4092 192.45 44.0092C191.71 46.0292 189.79 47.2792 187.75 47.2792C187.18 47.2792 186.6 47.1792 186.03 46.9792Z" fill="black"/>
<path d="M187.31 44.2899C184.68 43.4399 183.23 40.6299 184.07 37.9999C184.91 35.3699 187.73 33.9199 190.36 34.7599C192.99 35.6099 194.44 38.4199 193.6 41.0499C192.92 43.1699 190.95 44.5299 188.83 44.5299C188.33 44.5299 187.82 44.4499 187.31 44.2899Z" fill="black"/>
<path d="M188.82 39.0296C186.25 37.9996 185.01 35.0896 186.03 32.5296C187.06 29.9596 189.97 28.7196 192.53 29.7396C195.09 30.7696 196.34 33.6796 195.31 36.2396C194.53 38.1896 192.66 39.3896 190.67 39.3896C190.05 39.3896 189.43 39.2696 188.82 39.0296Z" fill="black"/>
<path d="M190.88 33.4397C188.31 32.4197 187.05 29.5197 188.06 26.9497C189.07 24.3797 191.98 23.1197 194.55 24.1297C197.12 25.1397 198.38 28.0497 197.37 30.6197C196.59 32.5797 194.71 33.7897 192.71 33.7897C192.1 33.7897 191.48 33.6697 190.88 33.4397Z" fill="black"/>
<path d="M192.36 29.6707C189.79 28.6607 188.53 25.7607 189.54 23.1907C190.54 20.6207 193.44 19.3507 196.02 20.3607C198.59 21.3707 199.85 24.2707 198.85 26.8407C198.07 28.8107 196.18 30.0207 194.19 30.0207C193.58 30.0207 192.96 29.9107 192.36 29.6707Z" fill="black"/>
<path d="M194.53 24.1395C191.93 23.2095 190.58 20.3495 191.51 17.7495C192.44 15.1495 195.3 13.7995 197.9 14.7295C200.5 15.6595 201.85 18.5195 200.92 21.1195C200.19 23.1595 198.27 24.4395 196.22 24.4395C195.66 24.4395 195.09 24.3395 194.53 24.1395Z" fill="black"/>
<path d="M196.69 18.1102C194.09 17.1802 192.74 14.3202 193.67 11.7202C194.6 9.12016 197.47 7.77016 200.06 8.70016C202.66 9.63016 204.02 12.4902 203.09 15.0902C202.35 17.1302 200.43 18.4102 198.38 18.4102C197.82 18.4102 197.25 18.3102 196.69 18.1102Z" fill="black"/>
<path d="M197.72 14.9196C195.19 13.8196 194.03 10.8696 195.13 8.3396C196.23 5.8096 199.17 4.6496 201.71 5.7396C204.24 6.8496 205.4 9.7896 204.3 12.3196C203.48 14.2096 201.64 15.3296 199.71 15.3296C199.05 15.3296 198.37 15.1996 197.72 14.9196Z" fill="black"/>
<path d="M198.94 12.8206C196.3 12.0006 194.83 9.20059 195.65 6.56059C196.47 3.92059 199.28 2.45059 201.92 3.28059C204.55 4.10059 206.02 6.90059 205.2 9.54059C204.53 11.6806 202.56 13.0506 200.43 13.0506C199.94 13.0506 199.43 12.9806 198.94 12.8206Z" fill="black"/>
<path d="M199.51 9.60898C196.99 8.47898 195.87 5.51898 197 2.99898C198.13 0.478981 201.08 -0.64102 203.6 0.48898C206.12 1.61898 207.25 4.57898 206.12 7.09898C205.28 8.94898 203.46 10.049 201.55 10.049C200.87 10.049 200.17 9.90898 199.51 9.60898Z" fill="black"/>
<path d="M199.3 9.48967C196.91 8.26967 195.92 5.39967 197 2.98967C198.07 0.559669 200.86 -0.62033 203.37 0.33967C205.95 1.31967 207.24 4.20967 206.25 6.78967C206.16 7.02967 206.1 7.14967 206.03 7.28967C205.14 9.02967 203.39 10.0297 201.57 10.0297C200.8 10.0297 200.03 9.85967 199.3 9.48967Z" fill="black"/>
<path d="M196.84 6.60935V6.57935C195.98 3.95935 197.41 1.13935 200.03 0.279349C202.66 -0.580651 205.48 0.849349 206.34 3.46935V3.49935C207.21 6.11935 205.77 8.93935 203.15 9.80935C202.63 9.96935 202.11 10.0593 201.59 10.0593C199.49 10.0593 197.53 8.71935 196.84 6.60935Z" fill="black"/>
<path d="M198.9 12.5308C197.99 9.92078 199.37 7.07078 201.98 6.17078C204.59 5.26078 207.44 6.64078 208.34 9.25078C209.25 11.8608 207.87 14.7108 205.26 15.6108C204.71 15.8008 204.16 15.8908 203.62 15.8908C201.55 15.8908 199.61 14.6008 198.9 12.5308Z" fill="black"/>
<path d="M200.13 15.5094C199.45 12.8294 201.05 10.1094 203.73 9.41944C206.41 8.72944 209.13 10.3394 209.82 13.0194C210.51 15.6894 208.89 18.4094 206.22 19.0994C205.8 19.2094 205.38 19.2594 204.97 19.2594C202.74 19.2594 200.71 17.7594 200.13 15.5094Z" fill="black"/>
<path d="M200.98 18.0696C199.97 15.4996 201.24 12.5996 203.81 11.5896C206.38 10.5896 209.28 11.8596 210.29 14.4296C211.3 16.9996 210.03 19.8996 207.45 20.9096C206.86 21.1396 206.24 21.2496 205.64 21.2496C203.64 21.2496 201.75 20.0496 200.98 18.0696Z" fill="black"/>
<path d="M202.58 22.1707C201.58 19.6007 202.84 16.7007 205.41 15.6907C207.98 14.6807 210.89 15.9507 211.9 18.5307C212.9 21.0907 211.63 24.0007 209.06 25.0007C208.46 25.2407 207.85 25.3507 207.24 25.3507C205.24 25.3507 203.36 24.1407 202.58 22.1707Z" fill="black"/>
<path d="M204.71 28.0405C203.77 25.4405 205.11 22.5705 207.7 21.6305C210.3 20.6905 213.17 22.0305 214.11 24.6205C215.05 27.2205 213.71 30.0905 211.11 31.0305C210.55 31.2405 209.98 31.3305 209.41 31.3305C207.37 31.3305 205.45 30.0705 204.71 28.0405Z" fill="black"/>
<path d="M205.81 30.5789C205.01 27.9389 206.5 25.1489 209.14 24.3489C211.78 23.5489 214.58 25.0389 215.38 27.6789C216.18 30.3189 214.69 33.1089 212.05 33.9189C211.56 34.0589 211.07 34.1289 210.59 34.1289C208.45 34.1289 206.47 32.7389 205.81 30.5789Z" fill="black"/>
<path d="M206.59 32.93C205.6 30.35 206.89 27.46 209.47 26.47C212.05 25.48 214.94 26.77 215.93 29.35C216.92 31.92 215.63 34.82 213.05 35.8C212.46 36.03 211.86 36.14 211.26 36.14C209.25 36.14 207.35 34.91 206.59 32.93Z" fill="black"/>
<path d="M208.31 37.4103C207.32 34.8303 208.61 31.9403 211.19 30.9603C213.77 29.9703 216.66 31.2603 217.65 33.8403C218.64 36.4203 217.34 39.3103 214.76 40.3003C214.18 40.5203 213.57 40.6303 212.98 40.6303C210.97 40.6303 209.07 39.4003 208.31 37.4103Z" fill="black"/>
<path d="M209.95 42.0599C208.85 39.5299 210.02 36.5899 212.55 35.4899C215.09 34.3899 218.03 35.5599 219.13 38.0899C220.22 40.6299 219.05 43.5699 216.52 44.6699C215.88 44.9499 215.2 45.0799 214.54 45.0799C212.61 45.0799 210.76 43.9499 209.95 42.0599Z" fill="black"/>
<path d="M211.37 45.3606C210.28 42.8306 211.45 39.8806 213.98 38.7906C216.52 37.7006 219.46 38.8706 220.56 41.4106C221.65 43.9406 220.48 46.8806 217.94 47.9806C217.3 48.2506 216.62 48.3906 215.96 48.3906C214.03 48.3906 212.19 47.2506 211.37 45.3606Z" fill="black"/>
<path d="M211.91 47.0593C211.04 44.4293 212.47 41.6093 215.09 40.7393C217.71 39.8793 220.54 41.2993 221.4 43.9293C222.27 46.5493 220.84 49.3793 218.22 50.2393C217.7 50.4093 217.17 50.4893 216.66 50.4893C214.56 50.4893 212.6 49.1593 211.91 47.0593Z" fill="black"/>
<path d="M212.72 49.4799C211.84 46.8599 213.25 44.0199 215.86 43.1399C218.48 42.2599 221.32 43.6599 222.2 46.2799C223.08 48.8999 221.67 51.7399 219.06 52.6199C218.53 52.7999 217.99 52.8799 217.46 52.8799C215.37 52.8799 213.43 51.5599 212.72 49.4799Z" fill="black"/>
<path d="M217.43 51.1993C214.8 50.3193 213.39 47.4893 214.26 44.8693C215.13 42.2493 217.96 40.8293 220.58 41.6993C223.2 42.5793 224.62 45.4093 223.75 48.0293C223.05 50.1293 221.1 51.4493 219 51.4493C218.48 51.4493 217.95 51.3693 217.43 51.1993Z" fill="black"/>
<path d="M218.83 46.9598C216.21 46.0798 214.8 43.2499 215.67 40.6299C216.55 38.0099 219.38 36.5999 222 37.4699C224.62 38.3499 226.03 41.1798 225.16 43.7998C224.46 45.8898 222.51 47.2199 220.42 47.2199C219.89 47.2199 219.36 47.1298 218.83 46.9598Z" fill="black"/>
<path d="M220.01 43.2293C217.45 42.2093 216.2 39.2993 217.22 36.7393C218.24 34.1693 221.15 32.9193 223.71 33.9393C226.28 34.9593 227.53 37.8693 226.51 40.4393C225.73 42.3993 223.85 43.5893 221.86 43.5893C221.25 43.5893 220.62 43.4693 220.01 43.2293Z" fill="black"/>
<path d="M221.08 40.9C218.46 40.02 217.06 37.18 217.95 34.56C218.83 31.94 221.67 30.54 224.28 31.43C226.9 32.31 228.3 35.15 227.42 37.76C226.72 39.85 224.77 41.16 222.68 41.16C222.15 41.16 221.61 41.08 221.08 40.9Z" fill="black"/>
<path d="M222.49 36.2892C219.94 35.2392 218.72 32.3192 219.76 29.7692C220.81 27.2092 223.73 25.9892 226.28 27.0292C228.84 28.0792 230.06 30.9992 229.02 33.5592C228.22 35.4892 226.36 36.6592 224.39 36.6592C223.76 36.6592 223.11 36.5392 222.49 36.2892Z" fill="black"/>
<path d="M224.01 32.5301C221.42 31.5601 220.12 28.6701 221.1 26.0901C222.08 23.5101 224.97 22.2001 227.55 23.1901C230.13 24.1601 231.43 27.0501 230.46 29.6301C229.7 31.6301 227.8 32.8601 225.78 32.8601C225.19 32.8601 224.59 32.7601 224.01 32.5301Z" fill="black"/>
<path d="M225.61 28.3094C223.03 27.3294 221.73 24.4394 222.71 21.8594C223.69 19.2794 226.58 17.9794 229.16 18.9594C231.74 19.9394 233.04 22.8294 232.06 25.4094C231.3 27.4094 229.4 28.6394 227.38 28.6394C226.79 28.6394 226.19 28.5294 225.61 28.3094Z" fill="black"/>
<path d="M227.57 23.9198C224.95 23.0498 223.54 20.2198 224.41 17.5998C225.28 14.9798 228.11 13.5598 230.73 14.4298C233.35 15.3098 234.77 18.1398 233.9 20.7597C233.2 22.8497 231.25 24.1798 229.15 24.1798C228.63 24.1798 228.1 24.0998 227.57 23.9198Z" fill="black"/>
<path d="M228.45 21.2792C225.83 20.4092 224.42 17.5792 225.29 14.9492C226.16 12.3392 229 10.9192 231.61 11.7892C234.24 12.6692 235.65 15.4992 234.78 18.1192C234.08 20.2092 232.13 21.5392 230.04 21.5392C229.51 21.5392 228.98 21.4492 228.45 21.2792Z" fill="black"/>
<path d="M231.32 13.1297C228.74 12.1497 227.44 9.25975 228.42 6.67975C229.4 4.09975 232.28 2.79975 234.86 3.77975C237.45 4.75975 238.75 7.63975 237.77 10.2297C237.01 12.2197 235.11 13.4597 233.09 13.4597C232.5 13.4597 231.91 13.3497 231.32 13.1297Z" fill="black"/>
<path d="M229.96 7.52926C228.82 5.01926 229.94 2.04926 232.45 0.909259C234.97 -0.23074 237.93 0.88926 239.07 3.39926C240.21 5.91926 239.1 8.87926 236.58 10.0193C235.91 10.3193 235.21 10.4693 234.52 10.4693C232.62 10.4693 230.8 9.37926 229.96 7.52926Z" fill="black"/>
<path d="M231.89 12.8206C230.94 10.2306 232.27 7.35056 234.86 6.40056C237.45 5.45056 240.32 6.78056 241.28 9.37056C242.23 11.9606 240.9 14.8406 238.31 15.7906C237.74 16.0006 237.16 16.1006 236.58 16.1006C234.55 16.1006 232.63 14.8406 231.89 12.8206Z" fill="black"/>
<path d="M234 18.7395C232.89 16.2195 234.04 13.2595 236.57 12.1495C239.09 11.0395 242.04 12.1895 243.16 14.7195C244.27 17.2395 243.12 20.1895 240.59 21.3095C239.94 21.5895 239.26 21.7295 238.58 21.7295C236.66 21.7295 234.83 20.6095 234 18.7395Z" fill="black"/>
<path d="M235.52 22.1909C234.41 19.6609 235.56 16.7109 238.08 15.6009C240.61 14.4909 243.56 15.6409 244.67 18.1609C245.79 20.6909 244.64 23.6409 242.11 24.7509C241.46 25.0409 240.77 25.1809 240.1 25.1809C238.18 25.1809 236.35 24.0609 235.52 22.1909Z" fill="black"/>
<path d="M236.13 24.2603C235.12 21.6903 236.39 18.7903 238.97 17.7803C241.54 16.7803 244.44 18.0403 245.44 20.6203C246.45 23.1903 245.18 26.0903 242.61 27.0903C242.01 27.3303 241.39 27.4403 240.79 27.4403C238.79 27.4403 236.9 26.2303 236.13 24.2603Z" fill="black"/>
<path d="M237.8 28.5497C236.8 25.9797 238.07 23.0797 240.65 22.0797C243.22 21.0797 246.12 22.3497 247.12 24.9297C248.12 27.4997 246.85 30.3997 244.28 31.3997C243.68 31.6297 243.07 31.7397 242.46 31.7397C240.46 31.7397 238.57 30.5297 237.8 28.5497Z" fill="black"/>
<path d="M239.86 34.2396C238.92 31.6396 240.26 28.7696 242.86 27.8296C245.45 26.8896 248.32 28.2296 249.26 30.8296C250.2 33.4196 248.86 36.2896 246.27 37.2296C245.71 37.4396 245.13 37.5296 244.56 37.5296C242.52 37.5296 240.6 36.2696 239.86 34.2396Z" fill="black"/>
<path d="M241.18 37.6393C240.2 35.0593 241.5 32.1693 244.08 31.1893C246.66 30.2093 249.55 31.4993 250.53 34.0793C251.51 36.6593 250.21 39.5493 247.63 40.5293C247.05 40.7593 246.45 40.8593 245.85 40.8593C243.84 40.8593 241.94 39.6393 241.18 37.6393Z" fill="black"/>
<path d="M244.32 45.86C243.33 43.28 244.63 40.39 247.21 39.41C249.79 38.43 252.68 39.72 253.66 42.3C254.64 44.88 253.35 47.77 250.77 48.75C250.18 48.98 249.58 49.08 248.99 49.08C246.97 49.08 245.08 47.86 244.32 45.86Z" fill="black"/>
<path d="M245.42 49.1302C244.29 46.6102 245.42 43.6502 247.94 42.5302C250.46 41.4002 253.42 42.5302 254.55 45.0502C255.68 47.5702 254.55 50.5302 252.03 51.6502C251.36 51.9502 250.67 52.0902 249.99 52.0902C248.07 52.0902 246.25 50.9902 245.42 49.1302Z" fill="black"/>
<path d="M246.91 52.8804C245.95 50.2904 247.27 47.4204 249.86 46.4604C252.45 45.5104 255.33 46.8304 256.29 49.4204C257.24 52.0104 255.92 54.8904 253.33 55.8404C252.76 56.0504 252.17 56.1504 251.6 56.1504C249.56 56.1504 247.65 54.9004 246.91 52.8804Z" fill="black"/>
<path d="M250.68 63.1306C249.73 60.5306 251.05 57.6606 253.64 56.7006C256.24 55.7506 259.11 57.0706 260.06 59.6606C261.02 62.2606 259.69 65.1306 257.1 66.0906C256.53 66.3006 255.95 66.4006 255.37 66.4006C253.34 66.4006 251.43 65.1506 250.68 63.1306Z" fill="black"/>
<path d="M252.13 66.6707C251.08 64.1207 252.32 61.2007 254.87 60.1607C257.43 59.1207 260.35 60.3507 261.39 62.9007C262.43 65.4607 261.2 68.3807 258.64 69.4207C258.02 69.6707 257.39 69.7907 256.76 69.7907C254.78 69.7907 252.91 68.6107 252.13 66.6707Z" fill="black"/>
<path d="M254.9 74.1691C253.94 71.5791 255.26 68.6991 257.85 67.7391C260.44 66.7791 263.32 68.0991 264.28 70.6891C265.24 73.2791 263.92 76.1591 261.33 77.1191C260.76 77.3291 260.17 77.4291 259.59 77.4291C257.56 77.4291 255.65 76.1891 254.9 74.1691Z" fill="black"/>
<path d="M256.86 78.0796C254.6 78.0796 252.55 76.5396 252 74.2396C251.36 71.5496 253.01 68.8596 255.7 68.2096L258.42 67.5596C261.11 66.9196 263.8 68.5696 264.45 71.2596C265.1 73.9497 263.44 76.6396 260.75 77.2896L258.03 77.9397C257.64 78.0297 257.25 78.0796 256.86 78.0796Z" fill="black"/>
</g>
<path d="M282.3 39.0098C282.3 36.2498 284.54 34.0098 287.3 34.0098C290.06 34.0098 292.3 36.2498 292.3 39.0098C292.3 41.7698 290.06 44.0098 287.3 44.0098C284.54 44.0098 282.3 41.7698 282.3 39.0098Z" fill="black"/>
<mask id="mask2_2561_7725" style="mask-type:luminance" maskUnits="userSpaceOnUse" x="0" y="0" width="542" height="82">
<path d="M541.5 0H0V81.2H541.5V0Z" fill="white"/>
</mask>
<g mask="url(#mask2_2561_7725)">
<path d="M263.36 71.8906C263.36 69.1306 265.6 66.8906 268.36 66.8906C271.12 66.8906 273.36 69.1306 273.36 71.8906C273.36 74.6506 271.12 76.8906 268.36 76.8906C265.6 76.8906 263.36 74.6506 263.36 71.8906Z" fill="black"/>
</g>
<path d="M263.36 39.0098C263.36 36.2498 265.6 34.0098 268.36 34.0098C271.12 34.0098 273.36 36.2498 273.36 39.0098C273.36 41.7698 271.12 44.0098 268.36 44.0098C265.6 44.0098 263.36 41.7698 263.36 39.0098Z" fill="black"/>
<mask id="mask3_2561_7725" style="mask-type:luminance" maskUnits="userSpaceOnUse" x="0" y="0" width="542" height="82">
<path d="M541.5 0H0V81.2H541.5V0Z" fill="white"/>
</mask>
<g mask="url(#mask3_2561_7725)">
<path d="M282.3 6.13086C282.3 3.37086 284.54 1.13086 287.3 1.13086C290.06 1.13086 292.3 3.37086 292.3 6.13086C292.3 8.89086 290.06 11.1309 287.3 11.1309C284.54 11.1309 282.3 8.89086 282.3 6.13086Z" fill="black"/>
<path d="M328.84 10.1699C328.84 7.40992 331.08 5.16992 333.84 5.16992C336.6 5.16992 338.84 7.40992 338.84 10.1699C338.84 12.9299 336.6 15.1699 333.84 15.1699C331.08 15.1699 328.84 12.9299 328.84 10.1699Z" fill="black"/>
<path d="M286.09 10.1699C286.09 7.40992 288.32 5.16992 291.09 5.16992C293.85 5.16992 296.09 7.40992 296.09 10.1699C296.09 12.9299 293.85 15.1699 291.09 15.1699C288.32 15.1699 286.09 12.9299 286.09 10.1699Z" fill="black"/>
<path d="M286.09 7.48047C286.09 4.72047 288.33 2.48047 291.09 2.48047C293.85 2.48047 296.09 4.72047 296.09 7.48047C296.09 10.2405 293.85 12.4805 291.09 12.4805C288.33 12.4805 286.09 10.2405 286.09 7.48047Z" fill="black"/>
<path d="M328.84 7.48047C328.84 4.72047 331.08 2.48047 333.84 2.48047C336.6 2.48047 338.84 4.72047 338.84 7.48047C338.84 10.2405 336.6 12.4805 333.84 12.4805C331.08 12.4805 328.84 10.2405 328.84 7.48047Z" fill="black"/>
</g>
<path d="M328.84 40.6309C328.84 37.8709 331.08 35.6309 333.84 35.6309C336.6 35.6309 338.84 37.8709 338.84 40.6309C338.84 43.3909 336.6 45.6309 333.84 45.6309C331.08 45.6309 328.84 43.3909 328.84 40.6309Z" fill="black"/>
<path d="M286.09 40.6309C286.09 37.8709 288.33 35.6309 291.09 35.6309C293.85 35.6309 296.09 37.8709 296.09 40.6309C296.09 43.3909 293.85 45.6309 291.09 45.6309C288.33 45.6309 286.09 43.3909 286.09 40.6309Z" fill="black"/>
<path d="M286.09 37.9297C286.09 35.1697 288.32 32.9297 291.09 32.9297C293.85 32.9297 296.09 35.1697 296.09 37.9297C296.09 40.6897 293.85 42.9297 291.09 42.9297C288.32 42.9297 286.09 40.6897 286.09 37.9297Z" fill="black"/>
<path d="M328.84 37.9297C328.84 35.1697 331.08 32.9297 333.84 32.9297C336.6 32.9297 338.84 35.1697 338.84 37.9297C338.84 40.6897 336.6 42.9297 333.84 42.9297C331.08 42.9297 328.84 40.6897 328.84 37.9297Z" fill="black"/>
<mask id="mask4_2561_7725" style="mask-type:luminance" maskUnits="userSpaceOnUse" x="0" y="0" width="542" height="82">
<path d="M541.5 0H0V81.2H541.5V0Z" fill="white"/>
</mask>
<g mask="url(#mask4_2561_7725)">
<path d="M329.11 71.8887C329.11 69.1287 331.35 66.8887 334.11 66.8887C336.87 66.8887 339.11 69.1287 339.11 71.8887C339.11 74.6487 336.87 76.8887 334.11 76.8887C331.35 76.8887 329.11 74.6487 329.11 71.8887Z" fill="black"/>
<path d="M286.36 71.8887C286.36 69.1287 288.59 66.8887 291.36 66.8887C294.12 66.8887 296.36 69.1287 296.36 71.8887C296.36 74.6487 294.12 76.8887 291.36 76.8887C288.59 76.8887 286.36 74.6487 286.36 71.8887Z" fill="black"/>
<path d="M286.36 69.1992C286.36 66.4292 288.59 64.1992 291.36 64.1992C294.12 64.1992 296.36 66.4292 296.36 69.1992C296.36 71.9592 294.12 74.1992 291.36 74.1992C288.59 74.1992 286.36 71.9592 286.36 69.1992Z" fill="black"/>
<path d="M329.11 69.1992C329.11 66.4292 331.35 64.1992 334.11 64.1992C336.87 64.1992 339.11 66.4292 339.11 69.1992C339.11 71.9592 336.87 74.1992 334.11 74.1992C331.35 74.1992 329.11 71.9592 329.11 69.1992Z" fill="black"/>
<path d="M375.65 72.4297C375.65 69.6697 377.89 67.4297 380.65 67.4297C383.41 67.4297 385.65 69.6697 385.65 72.4297C385.65 75.1897 383.41 77.4297 380.65 77.4297C377.89 77.4297 375.65 75.1897 375.65 72.4297Z" fill="black"/>
<path d="M372.94 72.4297C372.94 69.6697 375.18 67.4297 377.94 67.4297C380.7 67.4297 382.94 69.6697 382.94 72.4297C382.94 75.1897 380.7 77.4297 377.94 77.4297C375.18 77.4297 372.94 75.1897 372.94 72.4297Z" fill="black"/>
</g>
<path d="M372.94 29.5801C372.94 26.8201 375.18 24.5801 377.94 24.5801C380.71 24.5801 382.94 26.8201 382.94 29.5801C382.94 32.3401 380.71 34.5801 377.94 34.5801C375.18 34.5801 372.94 32.3401 372.94 29.5801Z" fill="black"/>
<path d="M375.65 29.5801C375.65 26.8201 377.89 24.5801 380.65 24.5801C383.41 24.5801 385.65 26.8201 385.65 29.5801C385.65 32.3401 383.41 34.5801 380.65 34.5801C377.89 34.5801 375.65 32.3401 375.65 29.5801Z" fill="black"/>
<mask id="mask5_2561_7725" style="mask-type:luminance" maskUnits="userSpaceOnUse" x="0" y="0" width="542" height="82">
<path d="M541.5 0H0V81.2H541.5V0Z" fill="white"/>
</mask>
<g mask="url(#mask5_2561_7725)">
<path d="M342.64 72.4297C342.64 69.6697 344.88 67.4297 347.64 67.4297C350.4 67.4297 352.64 69.6697 352.64 72.4297C352.64 75.1897 350.4 77.4297 347.64 77.4297C344.88 77.4297 342.64 75.1897 342.64 72.4297Z" fill="black"/>
<path d="M339.93 72.4297C339.93 69.6697 342.17 67.4297 344.93 67.4297C347.69 67.4297 349.93 69.6697 349.93 72.4297C349.93 75.1897 347.69 77.4297 344.93 77.4297C342.17 77.4297 339.93 75.1897 339.93 72.4297Z" fill="black"/>
</g>
<path d="M339.93 29.5801C339.93 26.8201 342.17 24.5801 344.93 24.5801C347.69 24.5801 349.93 26.8201 349.93 29.5801C349.93 32.3401 347.69 34.5801 344.93 34.5801C342.17 34.5801 339.93 32.3401 339.93 29.5801Z" fill="black"/>
<path d="M342.64 29.5801C342.64 26.8201 344.88 24.5801 347.64 24.5801C350.4 24.5801 352.64 26.8201 352.64 29.5801C352.64 32.3401 350.4 34.5801 347.64 34.5801C344.88 34.5801 342.64 32.3401 342.64 29.5801Z" fill="black"/>
<mask id="mask6_2561_7725" style="mask-type:luminance" maskUnits="userSpaceOnUse" x="0" y="0" width="542" height="82">
<path d="M541.5 0H0V81.2H541.5V0Z" fill="white"/>
</mask>
<g mask="url(#mask6_2561_7725)">
<path d="M340.53 24.7305C340.53 21.9705 342.77 19.7305 345.53 19.7305C348.29 19.7305 350.53 21.9605 350.53 24.7205C350.54 27.4805 348.3 29.7205 345.54 29.7305C342.78 29.7305 340.54 27.4905 340.53 24.7305Z" fill="black"/>
<path d="M344.13 28.6604C341.38 28.3904 339.37 25.9504 339.63 23.2004C339.89 20.4504 342.33 18.4404 345.08 18.7004C347.83 18.9604 349.84 21.4004 349.59 24.1504C349.34 26.7404 347.16 28.6804 344.61 28.6804C344.46 28.6804 344.29 28.6804 344.13 28.6604Z" fill="black"/>
<path d="M346.63 15.0807C344.71 13.0907 344.77 9.9307 346.76 8.0107C348.74 6.0907 351.91 6.1507 353.83 8.1307C355.74 10.1207 355.69 13.2907 353.7 15.2007C352.73 16.1407 351.48 16.6107 350.23 16.6107C348.92 16.6107 347.61 16.1007 346.63 15.0807Z" fill="black"/>
<path d="M367.84 12.6209C365.26 11.6409 363.95 8.76087 364.92 6.17087C365.9 3.59087 368.78 2.28087 371.37 3.26087C373.95 4.23087 375.26 7.11087 374.28 9.70087C373.53 11.7009 371.62 12.9409 369.6 12.9409C369.02 12.9409 368.42 12.8309 367.84 12.6209Z" fill="black"/>
<path d="M375.35 24.7114C375.34 21.9414 377.57 19.7014 380.33 19.6914C383.09 19.6814 385.34 21.9214 385.35 24.6814C385.35 27.4414 383.12 29.6814 380.36 29.6914H380.34C377.59 29.6914 375.35 27.4614 375.35 24.7114Z" fill="black"/>
<path d="M94.8 68.9307C92.85 66.9707 92.86 63.8107 94.82 61.8607C96.77 59.9207 99.94 59.9207 101.89 61.8807C103.83 63.8407 103.82 67.0107 101.87 68.9507C100.89 69.9207 99.61 70.4107 98.34 70.4107C97.06 70.4107 95.77 69.9107 94.8 68.9307Z" fill="black"/>
<path d="M48.3298 68.9507C46.3698 67.0107 46.3598 63.8407 48.3098 61.8807C50.2598 59.9207 53.4198 59.9207 55.3798 61.8607C57.3398 63.8107 57.3498 66.9707 55.3998 68.9307C54.4298 69.9107 53.1398 70.4107 51.8598 70.4107C50.5798 70.4107 49.3098 69.9207 48.3298 68.9507Z" fill="black"/>
<path d="M48.3098 22.5399C46.3598 20.5799 46.3698 17.4199 48.3298 15.4699C50.2898 13.5199 53.4498 13.5299 55.3998 15.4899C57.3498 17.4499 57.3398 20.6099 55.3798 22.5599C54.4098 23.5299 53.1298 24.0199 51.8598 24.0199C50.5698 24.0199 49.2898 23.5199 48.3098 22.5399Z" fill="black"/>
<path d="M94.82 22.5601C92.86 20.6201 92.85 17.4501 94.8 15.4901C96.74 13.5301 99.91 13.5301 101.87 15.4701C103.82 17.4201 103.83 20.5801 101.89 22.5401C100.91 23.5201 99.63 24.0201 98.34 24.0201C97.07 24.0201 95.79 23.5301 94.82 22.5601Z" fill="black"/>
<path d="M9.04984 66.7314C7.25984 64.6314 7.49984 61.4714 9.59984 59.6814C11.6998 57.8814 14.8498 58.1314 16.6498 60.2314C18.4398 62.3314 18.1998 65.4814 16.0998 67.2814C15.1598 68.0814 13.9998 68.4814 12.8498 68.4814C11.4398 68.4814 10.0398 67.8814 9.04984 66.7314Z" fill="black"/>
<path d="M31.1199 9.79057C30.9899 7.03057 33.1199 4.69057 35.8699 4.55057C38.6299 4.42057 40.9699 6.55057 41.1099 9.31057C41.2399 12.0606 39.1099 14.4106 36.3599 14.5406C36.2699 14.5406 36.1899 14.5406 36.1099 14.5406C33.4599 14.5406 31.2499 12.4506 31.1199 9.78057V9.79057Z" fill="black"/>
<path d="M35.5101 14.1403C32.9301 13.1603 31.6301 10.2803 32.6001 7.69026C33.5801 5.11026 36.4601 3.81026 39.0401 4.78026C41.6301 5.76026 42.9301 8.65026 41.9501 11.2303C41.2001 13.2303 39.3001 14.4603 37.2801 14.4603C36.6901 14.4603 36.0901 14.3603 35.5101 14.1403Z" fill="black"/>
<path d="M37.1998 15.6316C34.4698 15.2516 32.5498 12.7316 32.9298 10.0016C33.2998 7.26162 35.8198 5.35162 38.5598 5.72162C41.2898 6.09162 43.2098 8.61162 42.8298 11.3516C42.4898 13.8616 40.3498 15.6716 37.8898 15.6716C37.6598 15.6716 37.4298 15.6716 37.1998 15.6316Z" fill="black"/>
<path d="M36.9899 17.2008C34.2499 16.8308 32.3399 14.3108 32.7099 11.5708L32.8199 10.7908C33.1899 8.05085 35.7099 6.13085 38.4499 6.51085C41.1799 6.88085 43.0999 9.40085 42.7199 12.1308L42.6199 12.9208C42.2799 15.4308 40.1299 17.2508 37.6699 17.2508C37.4399 17.2508 37.2199 17.2308 36.9899 17.2008Z" fill="black"/>
<path d="M7.37999 42.0008C4.65999 41.4908 2.87999 38.8808 3.37999 36.1608C3.88999 33.4508 6.49999 31.6608 9.21999 32.1708C11.93 32.6808 13.72 35.2908 13.21 38.0008C12.76 40.4108 10.66 42.0908 8.29999 42.0908C7.99999 42.0908 7.68999 42.0608 7.37999 42.0008Z" fill="black"/>
<path d="M9.57978 62.5602C7.95978 60.3202 8.47978 57.2002 10.7098 55.5802C12.9498 53.9702 16.0798 54.4802 17.6898 56.7202C19.3098 58.9602 18.7998 62.0802 16.5598 63.7002C15.6698 64.3402 14.6498 64.6402 13.6398 64.6402C12.0898 64.6402 10.5598 63.9202 9.57978 62.5602Z" fill="black"/>
<path d="M36.8402 77.0414C34.0802 76.8214 32.0202 74.4214 32.2402 71.6714C32.4502 68.9114 34.8602 66.8614 37.6102 67.0714C40.3702 67.2814 42.4202 69.6914 42.2102 72.4414C42.0002 75.0614 39.8202 77.0514 37.2302 77.0514C37.1002 77.0514 36.9702 77.0514 36.8402 77.0514V77.0414Z" fill="black"/>
<path d="M35.3898 79.4013C32.9098 78.2013 31.8698 75.2113 33.0798 72.7213C34.2798 70.2413 37.2698 69.2013 39.7598 70.4113C42.2398 71.6113 43.2798 74.6113 42.0698 77.0913C41.2098 78.8713 39.4298 79.9113 37.5698 79.9113C36.8398 79.9113 36.0898 79.7513 35.3898 79.4013Z" fill="black"/>
</g>
</g>
<defs>
<clipPath id="clip0_2561_7725">
<rect width="541.51" height="81.2" fill="white"/>
</clipPath>
</defs>
</svg>
