<svg width="712" height="299" viewBox="0 0 712 299" fill="none" xmlns="http://www.w3.org/2000/svg">
<g clip-path="url(#clip0_2561_22256)">
<mask id="mask0_2561_22256" style="mask-type:luminance" maskUnits="userSpaceOnUse" x="10" y="0" width="702" height="299">
<path d="M711.87 0H10V298.65H711.87V0Z" fill="white"/>
</mask>
<g mask="url(#mask0_2561_22256)">
<path d="M52.51 186.161C52.51 186.591 52.46 187.521 52.09 187.591C51.51 187.681 47.03 187.501 45.12 187.551C44.48 187.571 43.63 187.761 43.3 187.391C42.85 186.901 42.65 186.151 42.7 185.511C42.87 183.781 42.91 182.341 42.89 180.601C42.89 179.621 43.23 177.931 42.17 177.301C40.89 176.531 39.13 177.051 37.78 177.041L34.7 177.021C34.02 177.021 33.08 177.171 32.69 176.761C32.23 176.281 32.03 175.541 32.05 174.921L32.14 169.751C32.17 168.781 32.51 166.901 31.15 166.371L22.14 166.211C21.35 166.211 21.44 164.631 21.44 164.061L21.48 157.271C21.48 156.391 20.71 155.671 19.89 155.681L12.01 155.661C11.1 155.661 10.6 154.961 10.68 154.071C10.75 153.191 10.73 152.411 10.72 151.541L10.68 148.541C10.68 147.701 11.13 146.321 10.51 145.661C9.46998 144.561 8.15998 144.991 6.88998 145.001L1.46998 145.071C0.99998 145.071 0.0499805 144.261 0.0599805 143.841L0.10998 142.411L0.0799805 140.291V135.841L-0.0200195 124.871C-0.0200195 124.501 0.27998 123.681 0.57998 123.701L1.78998 123.781L9.16998 124.011C11 124.071 10.7 121.631 10.69 120.561L10.62 114.611C10.62 114.211 10.62 113.671 10.77 113.411C10.93 113.161 11.64 112.981 11.94 113.001L18.33 113.121C19.21 113.151 20.26 113.441 20.81 112.871C21.41 112.251 21.7 111.251 21.62 110.381C21.43 108.661 21.44 107.191 21.52 105.491C21.58 104.491 21.06 103.151 21.81 102.231L29.13 102.521C29.98 102.561 30.86 102.641 31.38 102.261C32.35 101.531 32.35 101.001 32.33 100.001L32.13 93.231L32.06 92.221C32.06 91.981 32.74 91.611 33.01 91.611L39.3 91.651C40.39 91.651 41.75 91.801 42.68 91.301C43.17 90.351 43.12 88.951 43.1 87.931L42.96 82.851C42.93 82.351 42.6 81.111 43.29 80.951C44.37 80.701 45.49 80.951 46.51 80.921C47.76 80.891 48.89 80.891 50.15 80.961L52.41 81.081C54.12 80.221 53.92 78.701 53.81 77.311C53.62 74.931 53.7 72.781 53.69 70.181C55.1 69.961 56.18 70.141 57.37 70.131C59.11 70.101 60.88 69.991 62.68 70.341C63.26 70.451 64.45 69.471 64.62 68.841C64.75 68.321 64.53 67.481 64.51 66.751L64.37 60.781C64.37 60.351 64.47 59.601 64.78 59.401C65.03 59.241 65.63 59.351 66.03 59.361L72.17 59.521C73 59.541 73.91 59.671 74.43 59.241C75.15 58.661 75.33 58.021 75.31 57.241L75.19 50.411C75.19 49.941 75 49.011 75.37 48.841C76.51 48.271 82.96 48.931 84.68 48.541L85.1 48.971L84.92 56.391C84.9 57.381 84.72 58.281 85.44 59.091C86.08 59.781 87.09 59.641 88.08 59.551C91.01 59.291 92.68 59.641 95.28 59.161L95.92 59.801C95.55 61.991 95.65 64.241 95.52 66.591C95.48 67.631 95.29 68.681 95.89 69.461C96.63 70.431 97.63 70.191 98.69 70.171L104.42 70.051C104.91 70.051 105.55 69.891 105.85 70.091C106.13 70.291 106.48 71.111 106.46 71.481L106.28 77.621C106.25 78.661 105.95 79.731 106.86 80.511C107.49 81.051 108.6 80.841 109.51 80.801C112 80.671 114.17 80.701 116.91 80.801H116.98V80.871L117.02 87.851C117.02 88.821 116.49 91.071 118.03 91.341C120.16 91.701 122.59 91.561 124.77 91.461C125.7 91.411 126.87 91.061 127.65 91.811L127.69 112.431C124.56 112.291 121.82 112.331 119.11 112.541C118.78 112.571 118.03 112.241 117.99 111.951C117.96 111.721 117.92 111.281 117.93 110.971L117.98 105.621C117.98 104.501 118.52 102.731 117.11 101.971C116.08 101.421 114.35 101.851 113.17 101.841L110.37 101.821C109.44 101.821 108.17 102.171 107.33 101.501L107.28 92.451C107.28 91.921 106.47 91.101 105.95 91.101L96.72 91.071L96.69 82.271C96.69 81.451 96.34 80.511 95.27 80.501L86.3 80.451C85.76 79.841 85.87 78.781 85.91 78.041C86.03 75.621 86.08 73.221 86.04 70.781C84.6 68.861 82.01 70.211 77.64 69.761C76.68 69.651 74.38 69.471 74.28 71.051C74.09 74.081 74.18 77.061 74.25 80.241C73.2 80.831 72.07 80.541 70.87 80.541L66.67 80.511C65.77 80.511 63.45 80.331 63.43 81.861L63.34 99.211C63.34 100.111 63.02 101.001 63.69 101.641C64.28 102.221 65.19 102.351 66.04 102.341H73.01C74.07 102.341 74.06 103.691 74.04 104.301C73.99 106.761 73.94 109.141 74.09 111.471C74.18 112.941 75.9 113.201 76.83 113.121C80.99 112.751 79.35 113.321 83.49 112.971C84.03 112.931 84.84 113.921 84.75 114.481C84.46 116.131 84.8 117.961 84.77 119.611C84.75 120.691 84.06 123.221 85.81 123.531C88.14 123.931 90.79 123.731 93.2 123.661C93.97 123.661 94.95 123.431 95.32 124.551C95.5 125.111 95.3 130.501 95.32 131.501L95.35 142.721C95.35 143.271 95.55 144.751 94.81 144.751L87.49 144.781C86.85 144.781 85.68 144.711 85.69 143.821L85.73 138.041C85.73 136.881 86.2 135.521 85.36 134.451C84.79 133.701 83.62 134.061 82.83 134.081L77.15 134.191C76.58 134.191 75.11 134.211 75.11 133.441L75.09 125.091C75.09 124.451 74.79 123.291 73.92 123.301L65.84 123.501C65.42 123.501 64.48 123.091 64.34 122.721C64.2 122.351 64.38 121.601 64.39 121.071L64.5 114.061C64.52 113.051 63.53 112.661 62.69 112.671L54.79 112.711C54.09 112.711 53.6 111.991 53.61 111.321L53.7 106.191C53.73 105.101 54.19 103.601 53.48 102.611C52.72 101.551 51.19 102.021 50.17 102.041C48.34 102.081 46.64 102.081 44.84 101.991C43.88 101.941 43.12 102.011 42.36 102.681C41.7 103.271 41.91 104.211 41.93 105.131L42.05 111.301C42.05 111.721 42.01 112.431 41.8 112.701C41.59 112.951 40.81 112.791 40.39 112.801C38.41 112.841 36.42 113.011 34.49 112.741C33.47 112.591 32.56 112.531 31.77 113.301C31.18 113.881 31.17 115.021 31.19 115.951L31.28 121.881L31.34 123.091C31.34 123.331 30.64 123.721 30.33 123.711L22.65 123.451C21.32 123.411 20.48 124.311 20.5 125.481L20.53 127.601L20.33 142.441C20.31 143.341 20.1 144.211 20.86 144.901C21.3 145.311 22.3 145.391 23.03 145.371L29.21 145.281C29.71 145.261 30.51 145.281 30.83 145.521C31.15 145.771 31.27 146.641 31.24 147.131C31.03 149.681 30.86 152.251 31.13 154.701C31.28 156.161 32.67 156.131 33.69 156.041C35.48 155.861 37.82 155.981 39.52 156.011C40.06 156.011 41.67 155.791 41.71 156.421C41.89 158.691 41.88 160.841 41.75 163.061C41.69 164.041 41.25 166.351 42.81 166.601C45.77 166.861 48.89 166.641 51.92 166.681L56.16 166.721C57.93 166.741 62.01 166.481 62.65 166.841C62.99 167.031 63.28 167.931 63.28 168.341L63.23 176.511C62.42 177.211 61.17 177.051 60.25 177.031L54.03 176.951C51.87 176.911 52.52 180.001 52.52 181.081V186.191L52.51 186.161Z" fill="#90BEFB"/>
<path d="M457.49 185.2L435.78 206.85L435.7 206.92C435.7 206.92 435.64 206.87 435.61 206.85C433.62 205.03 432.12 203.55 430.47 201.78C429.81 201.08 428.94 199.63 427.59 200.1C426.55 200.46 425.62 201.83 424.84 202.61L422.58 204.91C421.99 205.5 421.34 206.6 420.31 206.69L414.09 200.47C413.38 199.76 412.36 199.92 411.69 200.66L407.4 205.33C407.05 205.72 406.56 206.22 406.24 206.47C405.93 206.72 404.99 206.27 404.7 205.99L398.57 199.97C397.99 199.57 396.67 200.57 396.24 201.07C395.11 202.4 393.94 203.57 392.72 204.76C392.01 205.46 391.42 206.4 390.24 206.61L377.16 193.59C376.75 193.19 375.76 192.53 375.93 192.03L382.29 185.28L387.81 190.77C388.51 191.47 389.29 192.67 390.63 192.38C391.22 192.26 391.91 191.08 392.34 190.62L396.5 186.33C396.79 186.04 397.33 185.57 397.66 185.53C398 185.48 398.42 186.18 398.7 186.46L402.6 190.38C403.41 191.21 404.23 192.56 405.62 192.55C407.4 190.86 409.11 189.18 410.73 187.39L412.53 185.41C413.63 186.25 414.4 186.96 415.27 187.9L419.03 191.9C419.3 192.19 420.12 192.55 420.46 192.47C420.8 192.4 421.35 192 421.64 191.67L427.37 185.3L432.88 190.76C433.53 191.41 434.76 192.93 435.78 192.37L441.04 187.03C441.85 186.2 443.61 184.93 442.4 183.58C440.36 181.28 437.36 178.67 436.34 177.5C436.11 177.26 436.53 176.45 436.8 176.17L442.32 170.65C443.07 169.9 442.98 168.65 442.16 167.95C440.11 166.19 438.15 164.42 436.38 162.29C435.82 161.61 437.08 160.83 437.49 160.43C439.27 158.77 441.11 156.96 442.73 155.12C443.18 153.84 441.83 152.52 440.89 151.89C440.1 151.36 439.61 150.49 438.97 149.85L430.52 141.29C429.82 140.59 428.63 138.75 427.42 139.64C425.67 140.92 424.05 142.69 422.56 144.35C421.98 144.99 421.31 146.13 420.33 146.13L415.45 141.24C414.81 140.6 413.61 138.67 412.41 139.61C410.48 141.12 408.78 142.98 407.07 144.79C406.62 145.27 405.69 146.62 404.83 145.9C403.35 144.66 402.19 143.17 400.79 141.77L382.44 123.3L379.17 119.96L377.82 118.56C377.19 117.91 376 117.23 375.93 116.26C377.49 114.58 378.88 113.13 380.52 111.69C381.48 110.84 383.06 109.87 382.4 108.25C382.08 107.44 380.77 106.54 380.14 105.86C378.9 104.53 377.62 103.32 376.32 102.14C375.22 101.14 376.72 100.2 377.37 99.5899L380.81 96.3199C381.55 95.6299 383.46 94.1099 382.26 92.8899L375.73 86.3099C377.7 83.9999 379.58 82.1799 381.83 80.3299C382.66 79.6499 383.11 78.5099 382.24 77.6399L375.67 70.9699L381.05 65.4499L381.83 64.5399C382.03 64.2999 382.97 64.5299 383.26 64.8099L397.24 78.8199L390.82 85.5899C389.58 86.8899 391.37 88.3599 392.08 89.0299L395.98 92.7299C396.29 93.0199 396.76 93.5099 396.91 93.8199C397.09 94.1799 396.6 94.9999 396.27 95.3099L391.84 99.6299C391.1 100.36 390.54 100.83 390.51 101.81C390.48 102.99 391.2 103.41 391.97 104.17L397.34 109.36C395.54 111.28 393.92 112.95 392.12 114.57C391.31 115.3 390.67 115.83 390.52 116.77C390.27 118.23 391.28 118.44 392.15 119.3L402.79 129.96C403.59 130.77 404.94 132.71 406.27 131.29L408.8 128.55L412.27 124.71L417.68 130.12C418.29 130.73 419.51 132.5 420.61 131.62C422.34 130.23 423.93 128.52 425.48 126.89C425.99 126.35 426.52 125.29 427.3 125.09C427.92 124.93 428.84 125.9 429.24 126.32L432.09 129.27C432.92 130.12 433.74 131.34 434.83 131.85C435.83 132.33 436.47 131.1 436.96 130.57C438.4 129.03 439.8 127.63 441.33 126.21C441.78 125.78 442.33 125.25 442.54 124.83C443.35 123.27 442.39 122.74 441.48 121.91C439.58 120.17 437.85 118.4 436 116.45L441.49 111.08C442.11 110.47 442.65 110.18 442.67 109.19C442.68 107.94 442.31 107.58 441.51 106.9C440.83 106.35 436.05 101.91 436.23 101.23L438.83 98.5399C439.76 97.5799 440.46 96.6599 441.6 95.8499C442.26 95.3599 443.23 94.0499 442.7 93.1799C441.99 92.0299 440.8 91.1899 439.92 90.2899L436.04 86.1999L442.21 79.9899C442.85 79.3399 443.11 78.1599 442.27 77.3199L436.78 71.7499C436.55 71.5199 436.18 70.9399 436.2 70.6499C436.24 70.2999 436.8 69.9399 437.2 69.5999C438.74 68.2499 440.2 66.5999 441.59 65.0399C441.83 64.7599 442.65 64.4299 443 64.4599C443.34 64.4999 443.74 65.0199 444.09 65.3699L449.96 71.1899L455.35 76.6199C456.1 77.3699 457.06 77.9999 457.36 79.2099L450.73 85.8199C450.05 87.2199 451.74 88.2699 452.48 88.9999L457.36 93.8299C457.22 94.7599 456.28 95.3399 455.72 95.9199L451.87 99.8599C451.34 100.4 450.83 100.87 450.67 101.59C450.37 102.98 452.06 103.82 454.12 105.98L455.61 107.54C455.95 107.89 456.91 108.5 457.18 109.01C457.56 109.71 456.42 110.59 455.92 111.06L451.91 114.91C451.23 115.55 450.43 116.71 450.7 117.74L456.64 123.26C456.94 123.55 457.54 124.59 457.22 124.9L452.5 129.55C451.79 130.25 450.26 131.14 450.65 132.55C452.31 134.32 454.22 136.2 456.02 137.93C456.45 138.33 457.73 139.21 457.17 139.82C456.23 140.88 455.36 141.87 454.42 142.77L451.18 145.91C450.53 146.55 450.54 147.79 451.18 148.43L456.64 153.87C456.93 154.16 456.91 155.16 456.63 155.45L450.74 161.38C450.33 161.79 450.95 163.17 451.37 163.59L457.41 169.63C457.36 170.52 456.38 171.24 455.83 171.77L451.35 176.04C450.86 176.5 450.56 177.39 450.74 178.04C450.95 178.77 451.59 179.22 452.22 179.79C454.06 181.49 455.77 183.22 457.53 185.13" fill="#90BEFB"/>
<path d="M693.19 119.94L688.61 124.73C687.93 125.44 687.2 126.43 686.38 126.96L679.55 120.05L673.08 113.62C672.62 113.16 672.13 112.74 671.73 112.11L676.75 107.15C677.53 106.39 678.84 105.63 678.33 104.11C678.04 103.27 676.84 102.53 676.15 101.88L671.67 97.6004C671.16 96.6004 672.66 95.8104 673.2 95.2804L677.66 90.9604C678.27 90.3704 678.81 89.0704 678.02 88.2704L672.79 83.0304C672.19 82.4204 671.71 81.4404 672.53 80.8204C675.57 78.5004 674.48 78.3504 676.91 76.4904C677.71 75.8804 678.4 75.2404 678.41 74.2604C678.42 73.2704 677.66 72.6704 676.93 72.0304L674.4 69.7504C673.31 68.7604 672.26 67.9104 671.38 66.5804L677.07 61.3604C677.73 60.7504 678.5 60.1804 678.45 59.3204C678.4 58.2104 677.61 57.7704 676.9 57.0604L671.18 51.3904L666.39 46.4504C665.5 45.5404 663.99 43.7504 662.59 45.1204C660.95 46.7304 659.35 48.4604 657.46 49.8804C656.43 50.6604 655.46 52.3004 656.72 53.4004C660 56.2404 658.72 55.7004 661.6 58.2804C661.99 58.6304 662.51 59.2104 662.58 59.6104C662.67 60.1604 662.19 60.9204 661.74 61.3004C660.26 62.5504 658.96 63.7004 657.66 65.0804C657.37 65.3804 657.13 65.8704 656.88 66.0204C656.57 66.2104 655.65 65.9304 655.35 65.6304L650.02 60.2704C649.64 59.8904 648.27 59.4404 647.89 59.8304L642.82 64.9104C642.47 65.2604 642.19 65.9004 641.86 66.0104C641.42 66.1704 640.57 65.8604 640.22 65.5204L634.99 60.2404C634.63 59.8804 633.29 59.4604 632.86 59.8804L627.74 64.8504C626.96 65.6004 626.16 66.0304 626.11 67.0904C626.07 68.1504 626.62 68.8704 627.41 69.5904L629.91 71.8904C630.91 72.8204 632.05 73.5204 632.74 74.8704C632.98 75.3304 631.93 76.1304 631.56 76.4704L628.76 79.1004C627.93 79.8804 626.54 80.7504 626.12 81.7704C625.51 83.2504 627.01 84.2304 627.85 85.0104L632.15 88.9904C632.46 89.2804 633 90.1304 632.76 90.3804C632.53 90.6204 632.08 91.0304 631.73 91.3404L627.45 95.1604C626.6 95.9204 626.09 96.5604 626.07 97.6304C626.05 98.7604 626.91 99.0804 627.7 99.8404L632.79 104.81C633.09 105.42 631.83 106.21 631.41 106.6L627.69 110.08C626.84 110.88 626.13 111.27 626.06 112.27C625.96 113.86 626.72 113.96 627.68 114.85L631.86 118.77C632.18 119.07 632.8 119.49 632.84 119.85C632.88 120.26 632.28 120.86 631.91 121.23L628.28 124.78C627.77 125.27 627.07 126.24 626.5 126.51C625.25 127.1 624.85 125.75 624.27 125.16L612.71 113.62C612.32 113.22 611.23 112.34 611.85 111.71C613.39 110.07 614.87 108.54 616.56 107.08C617.66 106.14 618.96 104.72 617.61 103.41L612.99 98.9404C612.51 98.4904 611.36 97.8504 611.81 96.9104C612.15 96.1804 613.02 95.4404 613.58 94.8104C614.69 93.5304 615.87 92.3204 617.23 91.2404C617.63 90.9304 618.23 89.9104 618.28 89.4104C618.14 88.2604 617.03 87.4304 616.25 86.7304C614.67 85.3204 613.31 83.9404 611.83 82.3804C611.27 81.7904 612.29 80.8504 612.69 80.4604L617.08 76.1404C617.55 75.6804 618.27 75.0904 618.28 74.5404C618.29 73.8904 617.75 72.9804 617.24 72.5504C616.29 71.7704 611.4 67.5604 611.66 66.3204L615.21 62.8504L617.93 60.3904C618.78 58.5704 617.25 57.7504 616.25 56.7204L612.4 52.7604C612.12 52.4804 611.61 51.8504 611.7 51.5104C611.85 50.9304 615.78 47.1804 616.68 46.3904C617.49 45.6804 618.09 45.2904 618.16 44.3304C618.24 43.0504 617.62 42.8704 616.82 42.0904L612.24 37.6504C612.05 37.4804 611.75 37.0104 611.7 36.7904C611.65 36.4904 612.01 35.9504 612.25 35.7104L615.85 32.0304C616.84 31.0204 618.63 29.8804 618.18 28.1304L614.16 24.3504L612.46 22.7504C612.15 22.4604 611.76 22.1004 611.7 21.8104C611.62 21.4604 611.95 20.6504 612.24 20.3804L614.73 18.0504C615.58 17.2604 619.14 14.6504 618.16 13.3604C617.93 13.0604 617.31 12.6204 616.97 12.3004L611.79 7.23037C611.56 7.00037 611.1 6.32037 611.26 6.05037C611.43 5.79037 611.95 5.36037 612.22 5.09037L616.51 0.960374C616.91 0.560374 617.44 0.0703743 617.9 0.0203743C618.49 -0.0396257 618.88 0.480374 619.34 0.930374L631.64 13.1804C631.99 13.5404 632.63 13.9804 632.73 14.3904C632.82 14.7704 632.1 15.3004 631.77 15.6004L627.65 19.2504C626.8 20.0004 626.14 20.5104 626.05 21.4804C625.93 22.9104 626.79 23.1904 627.69 24.0304C629.54 25.7604 631.17 27.4104 633.07 29.4004L627.59 34.5904C626.86 35.2804 626 35.6904 625.93 36.8404C625.85 37.9504 626.79 38.4204 627.56 39.1704L637.91 49.4804C638.6 50.1604 639.15 51.1904 640.01 51.5304C641.12 51.9704 641.71 51.3204 642.33 50.6804C643.82 49.1404 645.31 47.6904 646.9 46.2504C647.71 45.5204 648.2 45.1204 648.19 43.9704C648.16 42.9904 647.5 42.6204 646.73 41.8804L641.82 37.1704C641.78 36.7704 642.04 35.9404 642.32 35.6704L646.78 31.1404C647.18 30.7404 647.79 29.4004 648.58 30.1404C650.21 31.6804 651.68 33.1404 653.24 34.8504C653.94 35.6104 655.37 37.3404 656.68 36.1804C658.41 34.6404 660.13 32.8604 661.77 31.1504C662.16 30.7504 662.56 30.0404 662.97 30.0004C664.41 29.8504 665.08 31.5804 665.46 31.9404L689.24 55.7704L691.03 57.6504C691.64 58.3004 692.89 58.9504 692.96 60.0004L688.52 64.4204L686.97 65.9004C686.57 66.2904 685.83 67.5304 686.29 67.9904L692.94 74.7204C692.99 75.3704 692.1 76.1304 691.66 76.5504L686.28 81.6804C685.82 83.1804 687.34 84.2004 688.18 84.9804C689.88 86.5604 691.33 87.9804 692.86 89.7404C693.31 90.2504 691.96 91.1704 691.57 91.5304C689.93 93.0104 687.8 95.0204 686.41 96.6104C685.45 98.0004 687.36 99.1804 688.04 99.8304L692.32 103.98C692.52 104.17 692.82 104.62 692.86 104.86C692.91 105.15 692.57 105.74 692.35 105.95L687.89 110.24C687.35 110.75 686.34 111.4 686.28 112.12C686.14 113.65 687.33 114.2 688.21 114.99C689.94 116.57 691.4 118.07 693.18 119.95" fill="#90BEFB"/>
<path d="M591.9 247.981C591.96 249.111 592.55 249.621 593.36 250.381L597.38 254.151C597.84 254.581 598.61 255.201 598.56 255.781L594.98 259.481L591.99 262.651L578.25 248.971C577.95 248.661 577.44 248.211 577.29 247.911C577.13 247.571 577.76 246.861 578.12 246.571C579.55 245.381 580.71 244.251 582.02 242.941C582.83 242.131 584.2 241.131 583.96 239.711L577.42 233.081C576.61 232.251 577.81 231.491 578.21 231.101L582.7 226.821C583.48 226.091 584.74 224.831 583.46 223.571L578.23 218.451C577.96 218.171 577.18 217.761 577.25 217.421C577.33 217.081 577.76 216.541 578.06 216.261L582.37 212.141C583.13 211.401 584.08 211.041 583.97 209.951C583.84 208.741 583.07 208.291 582.24 207.511L577.76 203.301C577.46 203.011 577 202.461 576.96 202.121C576.92 201.791 577.6 201.381 577.91 201.081L582.23 197.051C583.04 196.291 583.95 196.111 583.97 194.921C584 193.741 583.28 193.331 582.49 192.541L571.58 181.641C570.8 180.861 570.47 179.961 569.31 179.991C568.27 180.031 567.82 180.821 567.07 181.621L562.58 186.301C562.11 186.801 561.27 186.761 560.89 186.341L556.66 181.741C556.03 181.051 554.62 179.411 553.39 180.301C550.82 182.141 549.28 184.961 546.72 186.961L541.81 182.191C541.05 181.441 540.22 179.771 538.88 179.901C537.75 180.001 536.88 181.481 536.16 182.181L534.46 183.861L531.78 186.221C531.33 186.831 531.55 188.441 532.08 188.951L537.29 193.871L538.13 194.531C538.37 194.701 538.24 195.581 537.99 195.821L532.87 200.781C532.21 201.421 531.42 202.141 531.42 202.991C531.42 203.931 532.36 204.481 533.01 205.091L538.02 209.771C538.95 210.661 537.16 211.751 536.57 212.291C534.98 213.771 533.35 215.371 531.93 216.901C530.73 218.211 532.35 219.501 533.14 220.221C535.08 221.981 536.68 223.641 538.51 225.561L533.47 230.481C532.52 231.411 530.99 232.051 531.74 233.831C532.06 234.611 533.42 235.381 534.09 236.061L538.55 240.581L532.54 246.351C531.84 247.041 531.48 247.341 531.58 248.641C531.63 249.301 532.47 249.901 533.16 250.531L537.43 254.371C537.79 254.701 538.37 255.371 538.32 255.761C538.26 256.151 537.58 256.651 537.22 256.991C535.87 258.281 534.63 259.531 533.33 260.911C532.84 261.441 532.17 262.321 531.35 262.341L522.69 253.771L517.53 248.681C516.48 247.641 517.97 246.491 518.69 245.761L520.22 244.231C522.07 242.391 523.69 241.701 523.63 239.741L516.97 232.971C516.93 232.071 518.01 231.231 518.58 230.641L520.22 228.951L523.21 225.981C524.41 224.801 522.83 223.241 522 222.451L517.47 218.261C517.22 218.041 516.81 217.201 517.03 216.951C517.28 216.681 517.68 216.291 518.02 215.961L522.17 211.991C522.85 211.351 523.6 210.841 523.58 209.981C523.57 208.781 522.89 208.351 522.13 207.591L516.96 202.481C516.96 201.841 517.67 201.291 518.16 200.841L522.32 196.881C522.96 196.271 523.56 195.781 523.61 194.961C523.67 193.881 523.03 193.411 522.32 192.721L518 188.631C517.65 188.291 517.1 187.821 516.97 187.401C516.83 186.991 517.72 186.361 518.02 186.011C519.5 184.331 520.8 182.891 522.56 181.521C522.98 181.181 523.5 180.381 523.56 179.921C523.64 179.381 523.2 178.331 522.73 177.951C520.51 176.091 518.68 174.381 516.76 172.091L523.62 165.171C525.5 166.921 527.15 168.521 528.79 170.351C529.43 171.061 530 171.711 531.01 171.881C531.86 172.031 532.52 171.221 533.16 170.541L538.22 165.311C539.51 165.651 540.13 166.711 540.92 167.551L543.74 170.501C544.28 171.061 545.48 172.031 546.29 171.941C547.58 171.821 548.23 170.361 549.06 169.611C550.16 168.601 551.42 167.511 552.35 166.331C552.65 165.951 553.68 165.141 554.01 165.471L560.27 171.651C560.76 172.141 561.86 172.001 562.33 171.511L568.67 165.121L585.35 181.891L597.48 194.091L598.39 194.871C598.63 195.071 598.33 195.821 598.09 196.051L593.65 200.361C592.92 201.061 592.04 201.841 591.93 202.731C591.77 204.071 592.81 204.641 593.65 205.431L597.68 209.221C598.01 209.521 598.66 210.421 598.22 210.871C596.76 212.371 595.47 213.691 593.95 215.051C592.99 215.941 592.11 216.781 591.62 218.031C592.15 218.741 592.56 219.371 593.01 219.811L596.35 223.061L598.78 225.491C598.25 226.151 597.4 226.831 596.76 227.441L593.09 230.991C592.58 231.481 591.91 232.171 591.9 232.721C591.89 233.321 592.31 234.301 592.79 234.681C594.49 236.101 597.34 238.771 598.7 240.601C596.86 242.511 595.33 244.071 593.51 245.781C592.72 246.521 591.82 246.871 591.88 247.981" fill="#90BEFB"/>
<path d="M216.83 190.12L220.72 194.19C220.86 195.03 219.61 195.76 219.12 196.24L212.65 202.67L199.52 215.99C198.96 216.23 197.81 215.68 197.46 215.21C196.45 213.87 195.41 212.93 194.22 211.82C193.27 210.94 192.48 209.37 190.9 209.34L184.19 215.92C183.38 216.72 182.4 215.22 181.94 214.77L176.66 209.49C176.02 209.04 174.78 210.04 174.31 210.53L171.52 213.42L169.36 215.53C169.18 215.71 168.75 216.01 168.52 216.06C168.23 216.13 167.68 215.76 167.41 215.5L152.68 200.87L138.29 186.75C138.1 186.57 137.85 185.81 138.01 185.62L142.15 181.49C142.95 180.69 145.22 178.96 144.58 177.65C144.42 177.29 143.8 176.9 143.43 176.54L137.57 170.75C139.51 168.46 141.48 166.57 143.7 164.73C144.61 163.98 145.06 162.68 144.08 161.75C141.98 159.78 139.8 157.87 137.92 155.6C137.28 154.85 138.73 154 139.16 153.56L143.18 149.53C143.79 148.92 144.66 148.29 144.68 147.55C144.74 145.61 143.24 145.48 142.01 144.11C140.83 142.81 139.66 141.65 138.33 140.56C138.12 140.37 137.7 139.77 137.82 139.53C137.95 139.29 138.32 138.74 138.52 138.55L141.99 135.12L144.33 132.89C144.82 132.43 144.63 131.34 144.17 130.86L137.81 124.45C137.86 123.56 138.87 122.94 139.42 122.36L143.07 118.52C143.38 118.18 143.71 117.86 143.95 117.68C144.2 117.51 144.98 117.88 145.28 118.19L158.55 131.39C158.81 131.66 159.53 131.96 159.46 132.25C159.41 132.6 159.03 133.3 158.78 133.54L153.72 138.17C153.24 138.62 152.78 139.27 152.71 139.78C152.58 140.56 152.97 141.31 153.52 141.82C155.68 143.77 157.57 145.7 159.66 147.89L153.11 154.36C152.61 154.85 152.4 156.2 152.96 156.7L155.2 158.73C156.7 160.08 158.08 161.42 159.39 163.02C159.87 163.61 158.39 164.52 157.96 164.92L153.36 169.26C151.35 171.16 153.95 173.04 154.16 173.24L158.86 177.85C159.06 178.04 159.36 178.5 159.41 178.73C159.5 179.02 159.09 179.54 158.82 179.76C157.93 180.48 157.25 181.2 156.45 181.96L153.7 184.61C153.05 185.24 152.3 186.11 152.84 187.29C153.19 188.04 154.34 188.82 155.02 189.47L156.71 191.1L165.72 200.07C166.33 200.69 166.82 201.62 167.62 201.63C168.76 201.64 169.32 200.98 170.02 200.25L174.11 195.94C174.41 195.63 174.7 195.23 174.92 195.04C175.19 194.8 176.17 195.1 176.45 195.39L180.7 199.77C181.26 200.35 181.79 201.05 182.39 201.31C183.84 201.95 184.37 201.15 185.14 200.37L190.42 195.04C190.76 194.7 191.86 195.44 192.18 195.79L196.64 200.61C197.5 201.54 198.68 202.05 199.67 201.07C201.75 199.01 203.95 196.9 205.89 194.72C207.03 193.43 205.11 192.14 204.39 191.48C202.46 189.69 200.87 188.06 198.93 186.02C200.92 183.92 202.57 182.22 204.52 180.46C205.23 179.82 205.85 179.28 205.96 178.39C206.1 177.15 205.2 176.85 204.41 176.11L199.6 171.55C199.09 171.08 199.28 170.2 199.76 169.72L204.34 165.3C205.02 164.64 206.87 163.32 205.7 162.12L199.35 155.61C198.77 155.02 199.8 154.06 200.23 153.65L204.65 149.41C205.34 148.75 206.01 148.47 205.98 147.51C205.93 146.43 205.4 145.98 204.65 145.27L200.34 141.18C199.95 140.82 199.25 140.39 199.21 139.99C199.16 139.54 199.55 138.74 199.87 138.43L204.54 134.05C205.22 133.41 205.84 132.8 205.94 131.92C206.05 130.87 205.13 130.37 204.34 129.67C202.61 128.14 200.95 126.48 199.38 124.76C198.6 123.92 200.03 122.97 200.49 122.53C201.82 121.28 203.17 119.94 204.39 118.64C204.77 118.24 205.76 117.15 206.37 117.76L220.99 132.34C219.13 134.27 217.42 136.02 215.47 137.8C214.57 138.61 212.92 140.04 214.38 141.37L216.98 143.75L220.07 146.65C220.39 146.96 220.76 147.29 220.91 147.54C221.08 147.85 220.62 148.68 220.35 148.93L216.4 152.5C215.75 153.1 214.55 153.9 214.13 154.65C213.27 156.2 214.82 157.25 215.77 158.1C217.53 159.7 218.99 161.18 220.7 162.97C220.68 163.8 219.65 164.52 219.07 165.05C217.41 166.55 215.72 168.15 214.24 169.78C213 171.14 214.8 172.46 215.6 173.23L221.37 178.77L218.14 181.79L215.59 184.07C214.69 184.88 213.1 186.17 214.25 187.58C214.93 188.4 216.01 189.28 216.77 190.07" fill="#90BEFB"/>
<path d="M592.82 81.2898C593.12 82.1398 593.03 83.1298 592.94 84.0198C592.57 87.9098 593.05 87.2998 592.75 91.0598L585.1 90.9398C584.06 90.9098 583.36 90.9398 582.6 91.6898C581.88 92.4098 582.14 93.1598 582.17 94.2098L582.3 99.9198V100.9C582.32 101.17 581.56 101.52 581.29 101.51L574.73 101.47C573.8 101.47 572.95 101.23 572.31 101.82C571.46 102.6 571.54 103.35 571.57 104.4L571.69 109.9C571.69 110.41 571.89 111.73 571.37 111.88C569.95 112.31 568.65 112.05 567.29 112.05L557.94 112.09L551.77 112.13C551.45 112.13 550.78 112.01 550.58 111.78C550.4 111.56 550.53 110.96 550.54 110.57L550.75 104.39C550.79 103.41 550.94 102.57 550.27 101.93C549.5 101.2 548.76 101.21 547.78 101.26L540.08 101.58C540.02 98.9698 539.99 96.5498 540.08 94.0298C540.11 93.2098 540.26 92.3398 539.94 91.7498C539.43 90.8498 538.55 90.5698 537.6 90.6098L531.87 90.8398C531.06 90.8798 530.3 90.9398 529.43 90.6798L529.52 83.2498C529.53 82.3898 529.65 81.5198 529.26 80.9898C528.52 80.0198 528 79.9798 526.99 80.0498C524.55 80.2098 522 80.2098 519.66 80.0998C518.22 80.0398 518.51 78.4698 518.55 77.7498C518.66 75.3098 518.69 72.8998 518.55 70.5798C518.47 69.0998 516.6 69.2498 515.81 69.2698L510.26 69.4398C509.55 69.4598 508.86 69.5998 508.42 69.2298C507.68 68.6098 507.97 67.9698 507.97 67.1298L508 59.8998C508 59.0898 506.33 58.4898 505.59 58.5398C504.42 58.6098 497.49 59.1698 497.25 58.3298C497.18 58.0598 497.15 57.5798 497.16 57.1998L497.27 53.3398C497.31 52.1498 497.64 50.5298 497.35 49.3998C496.92 47.6998 495.02 47.9198 493.77 47.9498L488.43 48.0998C487.89 48.0998 486.99 48.0998 486.62 47.7498C486.27 47.3998 486.57 41.7298 486.62 40.6398C486.68 39.6598 486.62 38.7398 486.08 38.1698C485.24 37.2598 484.43 37.5298 483.35 37.5198L477.82 37.4798C477.24 37.4798 476.09 37.6198 475.65 37.1198L475.69 27.8398H495.88C496.96 27.8398 496.69 29.6198 496.67 30.2598L496.55 35.1098C496.52 36.1798 496.15 37.6898 497.38 38.3698C498.27 38.8598 499.73 38.4998 500.73 38.4798L505.42 38.3198C505.85 38.3198 506.47 38.2898 506.83 38.3498C507.21 38.4098 507.4 39.3598 507.41 39.7598L507.53 45.0898C507.56 46.2098 506.87 48.0698 508.21 48.8498C509.37 49.5098 511.22 49.1498 512.57 49.1598L526.18 49.2698C527.01 49.2698 528.01 49.5998 528.64 48.9998C529.74 47.9398 529.36 46.7398 529.33 45.4998L529.23 40.1598C529.23 39.7598 529.4 39.0198 529.65 38.7498C529.9 38.4998 530.62 38.3598 531.07 38.3598L543.17 38.4398C545.03 38.4598 546.82 38.6398 548.68 38.3698C549.1 38.3098 550.01 38.4898 550.22 38.7898C550.44 39.0798 550.13 39.9398 550.12 40.3698L550.03 47.1498C550.03 47.4998 549.47 48.2898 549.14 48.2998C546.44 48.3598 543.89 48.3298 541.25 48.1298C540.71 48.0898 539.74 48.4998 539.51 48.9198C539.25 49.3498 539.36 50.1798 539.37 50.7798L539.5 58.6698C536.78 58.7498 534.43 58.7798 531.91 58.6498C531.17 58.6098 530.15 58.4598 529.66 58.8098C528.95 59.2898 528.74 60.1898 528.77 60.9398L528.89 65.2398L528.79 68.7698C528.74 70.5598 530.73 70.5498 531.85 70.4898C534.32 70.3598 536.44 70.3698 538.97 70.4498C539.56 70.4498 539.55 71.9098 539.49 72.4398C539.21 75.7698 539.81 75.5198 539.32 78.3798C539.16 79.2998 539.36 80.7598 540.59 81.0698C541.82 81.3798 543.29 81.0998 544.55 81.0998H548C548.59 81.0998 550.11 80.6798 550.14 81.7198L550.33 88.1298C550.37 89.1898 549.68 91.2498 551.2 91.9498L559.63 91.9198L567.12 91.9398C568.26 91.9398 570.02 92.2198 571.01 91.8398C572.58 91.2298 571.96 89.4098 571.91 88.3198C571.86 86.8998 571.69 82.4898 572.16 81.6098C572.28 81.3798 572.94 81.1698 573.24 81.1698L589.16 81.2698C590.38 81.2698 591.52 81.1398 592.81 81.3198" fill="#90BEFB"/>
<path d="M374.46 164.709C373.92 165.589 373.2 166.109 372.53 166.789L369.39 170.009C368.85 170.559 368.2 171.119 367.36 171.409L362.85 166.829C361.99 165.949 361.4 164.759 359.83 164.739C359.21 164.739 358.59 165.779 358.13 166.239L353.66 170.779C353.41 171.039 352.52 171.289 352.16 171.229L346.15 165.219C345.5 164.569 344.52 164.619 343.91 165.219L338.9 170.139C338.41 170.609 337.69 171.039 337.5 171.639C337.35 172.139 337.62 173.179 338.01 173.569L344.34 179.959L338.12 186.239C337.14 187.229 332.73 181.929 332 181.059C331.51 180.499 330.2 179.269 329.35 180.099L324.03 185.269C323.27 186.009 322.52 186.279 322.54 187.309C322.55 188.399 323.02 188.889 323.79 189.609L328.25 193.869C328.55 194.159 329.04 194.759 329.04 195.109C329.04 195.459 328.49 195.939 328.16 196.249L324.03 200.249C323.4 200.849 322.69 201.379 322.62 201.999C322.47 203.259 322.76 203.839 323.52 204.549L328 208.739C328.43 209.139 329.4 210.149 328.89 210.689C327.31 212.339 326 213.689 324.18 215.299C323.29 216.089 321.64 217.679 322.93 218.979L329.19 225.339C327.4 227.229 325.76 228.889 323.86 230.659C323.17 231.279 321.75 232.649 322.8 233.789C324.6 235.749 326.49 237.599 328.46 239.539C328.72 239.789 329.06 240.579 329.02 240.929C328.98 241.289 328.34 241.619 328.01 241.939L324.09 245.869C323.65 246.309 322.74 247.309 322.02 246.909L307.63 232.529L312.08 228.129L314.18 226.199C315.58 224.919 313.78 223.479 312.89 222.689C311.99 221.899 307.38 217.849 307.96 217.059C308.76 215.999 312.63 212.379 314 211.179C314.36 210.869 314.63 209.799 314.58 209.209C314.53 208.679 313.68 208.209 313.17 207.719L308.71 203.469L307.93 202.809C307.7 202.619 308.09 201.859 308.33 201.609L312.45 197.389C313.34 196.489 314.9 195.649 314.55 193.999L309.21 188.669C308.79 188.229 307.42 187.309 308 186.729L312.41 182.309C313.11 181.609 314.35 180.719 314.52 179.759C314.81 178.219 313.34 177.649 312.56 176.869L308.59 173.019C308.31 172.739 307.8 172.109 307.89 171.779C307.96 171.439 308.44 170.939 308.77 170.649L310.67 168.939C312.56 167.229 313.54 165.559 314.4 165.519C314.95 165.479 315.43 165.949 315.85 166.379L319.97 170.669C320.61 171.319 321.08 171.859 321.89 171.959C323.13 172.119 323.39 171.469 324.13 170.659C325.41 169.239 326.77 167.909 328.17 166.629C328.7 166.149 329.37 165.779 329.53 165.329C329.71 164.839 329.57 163.629 329.18 163.249L322.66 156.829L328.57 150.809C328.76 150.619 329.21 150.319 329.43 150.279C329.72 150.229 330.32 150.569 330.54 150.789L334.66 155.099C335.24 155.699 335.75 156.529 336.35 156.639C337.4 156.839 338.29 156.449 338.88 155.739C339.27 155.279 344.51 149.229 345.1 150.379L351.22 156.529H353.17L358.43 150.949C358.86 150.499 359.74 150.019 360.24 150.519L374.44 164.709H374.46Z" fill="#90BEFB"/>
<path d="M493.99 185.98L488.16 192C487.83 192.34 487.38 192.88 487 192.86C486.7 192.86 486.29 192.4 485.99 192.1L472.14 178.21L476.52 173.78C477.31 172.98 477.97 172.19 478.75 171.5H479.65L494.01 185.98H493.99Z" fill="#90BEFB"/>
<path d="M487.41 285.33C489.08 287.22 490.68 289.14 492.67 290.64L493.65 291.38C493.89 291.55 493.71 292.39 493.5 292.63L488.54 297.81C488.24 298.12 487.81 298.5 487.54 298.62C487.2 298.77 486.61 298.18 486.23 297.79L477.88 289.47C476.12 287.71 474.44 286 472.49 284.33C472.45 283.74 473.18 283.13 473.65 282.69L477.68 278.9C478.25 278.36 478.97 277.82 479.18 277.25C479.58 276.17 479.15 275.56 478.44 274.89L473.8 270.52C473.27 270.03 472.64 269.59 472.29 268.87L477.37 263.95C478.06 263.29 480.04 262.21 479.2 260.86C477.71 258.59 475.05 256.43 473.21 254.83C472.9 254.55 472.6 253.75 472.69 253.47C472.81 253.13 473.29 252.82 473.68 252.44L477.41 248.91C478.08 248.27 480.06 247.17 479.24 245.82C478.05 243.87 473.9 240.96 472.27 238.62L476.38 234.73C477.23 233.93 478.27 232.9 479.06 232.06C480.29 230.77 478.33 229.27 477.57 228.52L472.26 223.38L475.94 219.91C476.87 219.03 477.48 218.21 478.68 217.48C479.17 217.18 479.52 216.13 479.34 215.48C479.19 214.88 478.41 214.29 477.85 213.75L473.23 209.38C472.95 209.12 472.43 208.75 472.39 208.47C472.34 208.13 472.87 207.59 473.18 207.29L479.21 201.51L493.24 215.44C493.8 216 493.97 216.72 493.41 217.27L487.72 222.95C486.52 224.15 488.2 225.65 488.91 226.33L492.16 229.43C492.82 230.07 493.72 230.73 493.9 231.72C492.28 233.36 490.8 234.91 489.12 236.38C488.09 237.27 486.47 238.69 487.76 240.13C489.39 241.95 491.19 243.7 492.97 245.41C493.31 245.75 493.87 246.2 493.86 246.55C493.86 247.08 493.3 247.51 492.86 247.91C491.03 249.54 489.23 251.3 487.63 253.1C486.72 254.14 488.13 255.57 488.72 256.18L492.87 260.52C493.29 260.96 493.76 261.43 494.17 262.03L489.14 266.94C488.26 267.8 487.3 267.98 487.38 269.34C487.44 270.53 488.13 271.02 488.99 271.86L493.16 275.83C493.45 276.12 493.95 276.99 493.84 277.37C493.71 277.76 493.14 278.2 492.73 278.58L488.75 282.45C488.14 283.05 486.61 284.36 487.45 285.33" fill="#90BEFB"/>
<path d="M665.66 155.33L661.67 164.43C662.09 165.32 663.32 165.53 664.13 165.85L668.92 167.78C669.77 168.12 671.53 168.75 670.84 170.3L667.13 178.66C667.66 179.13 668.33 179.41 668.92 179.66C671.15 180.61 673.29 181.51 675.64 182.29C675.97 182.81 676.34 183.87 676.41 184.55C674.92 186.96 673.82 189.63 672.82 192.31C672.11 194.23 670.23 193.35 669.11 192.71C668.08 192.13 662.86 189.56 662.32 189.73C661.98 189.83 661.73 190.52 661.54 190.95L659.19 196.63C658.87 197.4 658.62 198.24 658.01 198.58C657.05 199.11 656.3 198.85 655.41 198.4L649.3 195.37C649.03 195.23 648.32 195.06 648.09 195.25C647.28 195.9 645.13 201.65 644.57 203.17C644.41 203.59 643.72 204.28 643.3 204.39C642.81 204.51 642.13 204.07 641.59 203.82L629.05 198.12C627.88 197.59 627.02 196.99 625.62 196.7C625 196.58 624.35 195.51 624.18 194.7C624.06 194.13 624.65 193.33 625.04 192.6L626.72 189.39C627.33 188.25 627.78 187.13 628.36 185.85L625.35 184.51C623.76 183.79 622.31 183.15 620.6 182.61C619.66 182.33 618.26 181.22 618.81 180.11L622.15 173.44C622.4 172.94 622.77 172.26 622.61 171.85C622.37 171.25 621.61 171.1 621 170.84L614.32 168.1C613.88 167.92 613.15 167.04 613.19 166.59C613.23 166.13 613.69 165.47 613.95 164.9L617.23 157.82C617.43 157.4 618.79 157.03 619.24 157.2C620.51 157.89 626.47 160.89 627.39 160.61C628.01 160.42 630.49 154.24 630.97 153C631.18 152.45 632.46 151.46 633.01 151.71L639.81 154.72C640.18 154.89 640.59 155.31 640.89 155.34C641.25 155.36 642 154.81 642.15 154.47L645.48 146.94C647.57 145.36 648.77 147.06 649.95 147.58L658.73 151.45C660.37 152.16 661.85 152.91 663.62 153.44C664.41 153.68 665.43 154.46 665.63 155.3M681.34 171.22C682.27 169.62 683 168.12 683.78 166.48L684.69 164.56L684.58 164.28C682.4 163.19 680.21 162.16 677.78 161.23C676.6 160.78 674.86 159.9 675.59 158.17C676.49 156.07 677.52 153.94 678.58 151.88C678.91 151.22 679.39 150.29 678.49 149.86C675.87 148.63 673.04 147.61 670.76 146.26C669.27 145.38 670.29 143.78 670.67 143.01L673.05 138.05C673.29 137.54 673.76 136.9 673.68 136.51C673.58 136.07 672.9 135.53 672.46 135.33L663.54 131.3L658.14 128.91C656.86 128.34 655.95 127.53 654.37 127.57L650.93 135.92C650.71 136.46 649.19 136.91 648.65 136.62C646.02 135.23 643.3 133.94 640.47 132.81L637.38 139.85C637.1 140.49 636.88 141.37 636.41 141.68C635.68 142.16 634.78 142.16 634.04 141.79L628.11 138.92C627.6 138.67 626.37 137.95 626.02 138.69C625.1 140.65 624.31 142.4 623.51 144.37C623.17 145.17 622.91 146.48 622.41 146.98C621.28 148.12 620.5 147.39 619.65 146.99L613.24 144.01C612.78 143.8 612.03 143.98 611.81 144.48L608.2 152.37C607.58 153.73 605.92 152.59 605.21 152.26L598.28 149.01L594.72 156.43L595.59 158.56L601.09 160.87C602.1 161.3 602.87 161.53 603.31 162.59C603.73 163.57 603.11 164.24 602.59 165.25C601.78 166.85 600.8 168.78 600.38 170.35C599.86 172.28 601.62 173.09 602.89 173.53C604.51 174.09 606.45 174.94 607.97 175.62C608.49 175.85 608.99 177.27 608.83 177.8C608.02 180.07 604.47 185.06 606.61 187.11C608.53 187.95 610.64 188.91 612.63 189.65C613.6 190 614.05 190.23 614.32 191.43C614.47 192.06 614.01 192.82 613.65 193.59L611.1 198.99L612.09 201.36L648.49 217.5C649.46 217.93 649.8 216.69 650 216.22L652.93 209.44C653.14 208.97 654.12 208.33 654.57 208.33C655.03 208.33 655.72 208.81 656.25 209.05L661.63 211.58C662.07 211.79 662.6 212.2 662.95 212.13C663.3 212.07 663.91 211.45 664.06 211.1L666.22 205.93C666.63 204.94 666.98 203.01 668.51 203.04C670.1 203.06 671.71 204.32 673.14 204.98L679.87 208.13C681.38 208.84 682.75 209.55 684.33 210.2C685.16 210.55 686.59 211.02 686.92 211.87C687.46 213.27 686.29 214.48 685.82 215.6L685.07 217.39L683.85 220.14C683.62 220.66 683.6 221.52 684.2 221.78L689.52 224.08C690.49 224.5 692.16 224.65 692.68 225.74C693.27 226.97 691.99 228.27 691.52 229.28L688.71 235.41C689.64 235.98 690.62 236.38 691.66 236.84L694.06 237.89L697.19 239.05C698.94 239.69 697.97 241.89 697.33 243.01C696.42 244.59 695.74 246.18 695.13 247.85C694.78 248.76 694.54 249.7 693.6 249.98C692.65 250.27 691.85 249.79 690.99 249.4L685.57 246.92C685.18 246.75 684.48 246.28 684.14 246.4C683.79 246.53 683.6 247.37 683.43 247.76L681.2 252.6C680.72 253.66 680.5 255.05 679.11 255.57C678.42 255.83 677.39 255.05 676.77 254.74C674.49 253.63 672.51 252.77 669.93 251.7L666.78 258.73C666.39 259.63 665.87 260.69 664.88 261.22L655.86 257.24C654.81 259.4 653.94 261.38 653.09 263.54C652.67 264.58 652.24 266.01 650.99 266.37L644.25 263.57C643.62 263.3 642.48 262.36 641.78 262.83L639.39 267.68C638.78 268.92 638.18 270.06 637.81 271.5L642.45 273.43L648.57 276.16L655.62 279.2C655.92 279.32 656.47 279.81 656.75 279.7C657.07 279.56 657.46 278.94 657.58 278.55C658.67 274.74 659.14 276.14 660.25 272.24C660.45 271.53 661.15 270.78 661.85 270.55C662.65 270.3 663.43 270.97 664.21 271.32L671.04 274.42L674.06 267.71C674.48 266.76 674.77 265.13 676.34 265.17C677.5 265.19 678.89 266.16 679.97 266.66L685.04 269.03L687.55 263.72C688.48 261.75 689.01 258.91 691.19 259.9L697.55 262.77C697.9 262.93 698.8 263.65 699.16 263.34C699.96 262.66 700.24 261.38 700.72 260.32L711.02 237.06L711.9 235.33L711.69 234.77L704.96 232.02C704.08 231.66 702.08 231.01 702.75 229.26C703.64 226.96 705.04 224.4 706.1 222.13C706.28 221.77 706.18 220.8 705.86 220.64C705.59 220.52 705.14 220.31 704.75 220.15L699.62 218.03C698.55 217.58 696.5 217.03 697.15 215.27C698.01 212.96 699.1 210.62 700.21 208.32C700.42 207.9 700.81 206.87 700.11 206.56L692.42 203.12C691.94 202.9 691.47 201.73 691.67 201.28L694.68 194.78C695 194.11 695.41 193.4 695.27 192.74C695.18 192.29 694.3 191.86 693.77 191.71C692.54 191.34 691.55 190.86 690.4 190.33C688.12 189.32 686.9 189.45 686.43 187.51C686.26 186.86 686.76 186.12 687.12 185.37C688.23 183.05 689.22 180.81 690.09 178.56L689.98 178.28L682.94 175.3C682.09 174.93 681.18 174.52 680.89 173.62C680.65 172.87 680.95 171.93 681.36 171.23" fill="#90BEFB"/>
<path d="M250.84 70.9404L257.25 64.5204C258.04 63.7304 259.62 64.8204 260.18 65.4204L264.49 70.0904C264.76 70.3804 265.62 70.7204 265.95 70.6704C266.29 70.6104 266.73 70.1604 267.06 69.8104L271.08 65.6904C271.63 65.1104 272.14 64.2504 272.84 64.2804C273.72 64.3104 274.42 64.7404 275.02 65.3404L279.83 70.1504C280.1 70.4304 280.89 70.7604 281.24 70.7104C281.59 70.6504 281.94 70.0604 282.27 69.7104L286.12 65.7304C286.62 65.2104 287.13 64.4804 287.66 64.3704C288.32 64.2204 289.44 64.4604 289.8 64.9004C290.88 66.1804 291.93 67.2004 293.03 68.3504L298.21 73.6904C299.42 74.9404 300.51 76.0704 301.91 77.2104C302.41 77.6104 302.8 78.5204 302.79 79.1704C302.78 79.9804 302.18 80.5704 301.44 81.2104C299.74 82.7004 298.34 84.1604 296.83 85.7704C296.28 86.3704 294.94 87.0004 294.26 86.3204L289.14 81.1904C288.84 80.8904 288.5 80.1804 288.14 80.1604C287.68 80.1604 286.88 80.5004 286.56 80.8504L282.09 85.6804C281.58 86.2304 280.05 87.0104 279.42 86.4304C277.6 84.7304 275.99 83.1004 274.3 81.3104C273.95 80.9304 273.52 80.2104 273.11 80.1704C272.65 80.1204 271.91 80.5204 271.56 80.8804C269.71 82.7604 267.89 84.6804 265.98 86.3404C264.68 87.4704 263.36 85.5804 262.68 84.8904L252 74.1904C251.3 73.4904 249.67 72.1004 250.82 70.9504M303.69 125.97C302.49 124.77 298.83 129.21 297.73 130.43C297.08 131.16 295.77 132.98 294.41 131.87C292.78 130.5 291.01 128.63 289.49 127.03C289.04 126.54 288 125.12 287.24 125.88L281.62 131.42C281.27 131.77 280.53 132.18 280.07 132.15C279.66 132.13 279.01 131.65 278.64 131.27L274.31 126.85C273.98 126.52 273.7 125.92 273.37 125.79C273.05 125.67 272.13 125.91 271.87 126.17C270.33 127.68 268.74 129.26 267.28 130.85C266.47 131.75 265.2 132.95 264.04 131.68L261.86 129.3L258.61 126.02L255.3 122.73L250.93 118.44C249.68 117.21 251.46 115.81 252.28 115.05C254.12 113.36 255.57 111.88 257.45 109.91C255.5 107.86 253.9 106.23 252.01 104.48C251.31 103.83 250.48 103.3 250.51 102.26C250.55 101.36 251.15 100.78 251.86 100.17C253.84 98.5104 255.54 96.4304 257.39 94.5804C258.77 93.8304 259.87 95.6704 260.62 96.4304L265.6 101.5L270.06 97.0604C270.82 96.3104 271.69 94.7104 272.78 94.5104C274.29 94.2204 275.12 95.9204 275.95 96.7604L280.33 101.15C281.02 101.84 281.76 100.56 282.14 100.15L286.23 95.8204C287.04 94.9704 288.5 93.8204 289.68 95.1304L294.8 100.76C295.04 101.02 295.89 101.4 296.19 101.21C296.44 101.06 296.73 100.6 297 100.31L301.09 96.0004C301.62 95.4404 302.07 94.6504 302.61 94.5904C303.19 94.5304 304.4 94.6604 304.72 95.0804C306.42 97.2204 308.4 99.4204 310.55 101.32C311.64 101.32 312.25 100.04 312.91 99.4304L316.65 95.9304C317 95.6004 317.73 94.5304 317.4 94.1904C315.62 92.3604 314.13 90.8204 312.32 89.2504C311.56 88.5704 310.87 87.9504 310.74 87.0004C310.6 85.8504 311.6 85.5104 312.35 84.8004L316.63 80.6604C316.99 80.3104 317.49 79.8804 317.49 79.5304C317.49 79.2404 317.16 78.5504 316.9 78.3204L312.32 74.2004C311.63 73.5904 310 72.2404 310.96 71.1004C312.74 69.0104 314.82 67.2004 316.91 65.3704C317.16 65.1604 317.56 64.5304 317.46 64.2604C317.37 63.9704 317.03 63.5104 316.77 63.2604L313.42 60.0104L310.67 57.3404L309.27 56.0304L304.16 50.9404C303.78 50.5604 302.83 49.5304 302.24 50.0904C300.63 51.6004 299.2 53.0304 297.73 54.6304C297.19 55.2204 296.63 55.9804 296.06 56.2104C295.31 56.5004 294.23 56.2404 293.76 55.7204C291.75 53.5704 289.97 51.8104 287.7 49.6504C285.77 51.4504 284.3 52.8704 282.71 54.6404C282.02 55.4204 281.02 56.7604 279.76 56.5104C278.4 55.5804 273.68 50.1804 273.08 50.0304C271.75 49.6904 268.4 54.3404 265.77 56.1904C264.38 57.1704 263.03 55.1004 262.37 54.3604C261.01 52.8404 259.6 51.4304 258.16 50.1404C257.3 49.3604 256.36 50.7804 255.84 51.3204C254.46 52.7704 252.64 54.7004 250.95 56.1104C249.65 57.2104 248.3 55.4004 247.65 54.6704C246.12 52.9704 244.78 51.6404 243.11 50.0804C242.62 49.6004 241.51 50.4904 241.17 50.8904C239.57 52.8204 237.88 54.2804 235.81 56.0604C236.71 57.0904 237.57 58.1004 238.5 58.9904L241.72 62.0704C242.26 62.6004 242.75 63.2704 242.75 63.9504C242.75 64.5104 242.34 65.3004 241.91 65.6604L240.23 67.0604C238.62 68.4104 237.36 69.8104 235.84 71.4404L241.85 77.5004C242.73 78.3604 243.11 79.3704 242.14 80.3504L235.91 86.6304C237.76 88.8604 239.55 90.5704 241.73 92.3204C242.59 93.0204 243.26 94.4604 242.26 95.4704L235.84 101.95C237.62 103.79 239.29 105.59 241.16 107.21C241.95 107.9 242.71 108.22 242.76 109.18C242.81 110.39 242.32 110.78 241.55 111.51L235.78 116.9L241.3 122.42C241.99 123.12 242.65 123.57 242.75 124.45C242.9 125.71 242.24 125.94 241.45 126.69L237.15 130.78C236.83 131.09 236.4 131.51 236.17 131.78C235.96 132.02 236.36 132.83 236.61 133.08L249.35 145.81C249.69 146.15 250.28 146.56 250.63 146.56C250.99 146.55 251.64 146.15 251.93 145.86L256.38 141.28C257.02 140.62 257.27 139.77 258.66 140.22C259.57 140.52 260.26 141.55 260.97 142.33C262.25 143.73 263.64 145.1 264.99 146.39C265.93 147.29 266.73 146.11 267.24 145.58L271.39 141.29C272 140.65 272.52 140.06 273.46 140.14C274.06 140.19 274.66 140.75 275.24 141.33L280.06 146.24C280.31 146.49 281.27 146.7 281.47 146.48L282.27 145.58L286.24 141.44C286.84 140.81 287.33 140.19 288.17 140.15C289.08 140.11 289.6 140.65 290.21 141.3L294.33 145.64C294.69 146.02 295.26 146.65 295.67 146.7C296.05 146.75 296.7 146.17 296.98 145.89L301.1 141.58C301.66 140.99 302.21 140.24 302.9 140.18C303.8 140.08 304.39 140.42 304.94 140.97L309.53 145.73C309.94 146.16 310.43 146.64 310.98 146.59C311.42 146.55 311.99 146.07 312.38 145.68L315.85 142.23C316.53 141.55 317.39 140.95 317.55 139.91L303.68 126.03L303.69 125.97Z" fill="#90BEFB"/>
</g>
</g>
<defs>
<clipPath id="clip0_2561_22256">
<rect width="711.87" height="298.65" fill="white"/>
</clipPath>
</defs>
</svg>
