<svg width="599" height="504" viewBox="0 0 599 504" fill="none" xmlns="http://www.w3.org/2000/svg">
<g clip-path="url(#clip0_2550_905)">
<path d="M110.57 398.28V436.95C110.57 437.8 110.43 438.62 110.15 438.91C109.79 439.29 108.83 439.6 108.29 439.55L103.77 439.23C102.68 439.16 100.27 440.03 99.7502 438.36L98.0802 432.98L96.0902 426.88L94.9002 423.02C94.2402 420.85 92.0602 411.46 89.9002 412.34C88.3902 414.03 89.3502 416.19 89.3502 418.08L89.3802 438.94C88.1902 439.82 86.9002 439.28 85.7102 439.28C84.7002 439.28 83.1302 439.71 82.4202 439.29C80.8102 438.37 81.6502 436.99 81.6502 435.73V399.61C81.6502 398.64 81.0302 396.73 82.7802 396.64C85.5502 396.51 88.4202 396.53 91.3602 396.68C92.1902 396.72 92.8902 398.57 93.0102 399.4C93.2202 400.73 93.8802 402.45 94.3702 403.94L96.3702 410.02C96.8602 411.53 97.4202 413.32 97.8002 414.86C98.4302 417.44 98.7902 419.96 100.22 422.34C100.51 422.86 101.4 424.08 102 423.26C102.88 422.06 102.95 420.25 102.87 418.74L102.59 414.03C102.39 410.66 102.59 407.44 102.56 403.99L102.53 397.7C102.52 397.29 103.51 396.55 103.94 396.55H109.78C110.09 396.93 110.55 397.82 110.55 398.27" fill="#90BEFA"/>
<path d="M81.1898 242.64L81.2698 266.01C81.2798 267.28 80.1498 268.31 78.9698 268.11L76.9398 267.76C74.7398 268.25 72.5998 268.32 70.5998 267.47C69.4498 263 69.1598 263.47 67.7598 258.72L65.9998 252.78L64.0098 246.09C63.5598 244.56 62.1198 240.98 60.9998 240.52C59.5598 239.93 59.5898 246.01 60.1498 247.3V267.41C59.0698 268.42 57.4198 268.05 56.1198 268C55.0098 267.96 53.5698 268.48 52.6898 267.52C51.8498 266.62 51.9598 265.17 52.4198 264.01V228.61C51.8298 227.52 52.1098 225.73 53.0498 225.1L62.4898 225.2C63.2798 226.78 63.8098 228.42 64.3198 230.13L65.8998 235.25L67.9998 241.22C70.0898 247.18 67.3698 242.83 71.0898 251.19C71.2298 251.5 71.7598 252 72.0698 252.11C74.4598 252.96 73.3198 243.81 73.2998 243.32L73.2598 232.31C73.2598 231.76 73.6098 230.67 73.5298 230.21C73.2898 228.92 72.9798 227.09 73.5298 225.83C74.0098 224.72 75.4098 225.07 76.2298 225.1L79.6698 225.17C80.4498 225.2 81.3398 225.94 81.3198 226.81L81.1798 233.88L81.0798 237.63L81.1798 242.66L81.1898 242.64Z" fill="#90BEFA"/>
<path d="M328.56 190C326.08 190.1 323.37 190.11 320.86 189.93C319.81 189.85 319.38 187.86 319.12 187.06L317.26 181.19L315.73 176.4C315.14 174.55 314.41 172.96 313.95 171.09L312.73 166.19C312.37 164.73 311.41 163.66 310.43 162.26C309.83 163 309.35 163.83 309.35 164.56L309.38 186.36C309.39 187.38 310.09 189.48 308.44 189.85C307.01 190.16 302.83 190.56 301.71 189.14C301.28 188.58 301.63 187.71 301.63 186.94L301.66 147.84C302.89 146.73 304.39 147.24 305.85 147.22L311.94 147.12L312.99 150.24L314.64 155.34C316.14 160.03 317.51 164.51 318.81 169.31C319.26 170.98 320.34 172.67 321.26 174.23C321.6 174.8 322.8 173.5 322.8 172.9V148.43C322.8 147.83 323.54 147.1 324.05 147.1H328.61C329.1 147.09 330.01 147.48 330.51 147.93L330.57 186.33C330.57 187.84 331.06 189.9 328.55 190.01" fill="#90BEFA"/>
<path d="M315.69 249.36C315.35 249.85 314.15 250.47 313.56 250.38L310.84 250.02C308.99 250.23 307.2 250.83 305.49 249.91C304.76 249.5 304.86 247.87 304.59 247.17C303.51 244.37 302.59 241.75 301.72 238.92L300.15 233.73C299.73 232.34 299.07 230.96 298.76 229.49C298.26 227.08 297.46 224.83 295.96 222.85C293.86 223.35 294.6 227.4 294.6 227.29L294.66 249.85C293.37 250.61 287.52 250.87 286.96 249.25V208.77C286.95 208.1 287.66 207.4 288.22 207.4H296.05C297.03 207.41 297.75 208.23 297.98 209.12C298.65 211.63 299.17 214.12 300.08 216.47C301.73 220.77 303.05 224.86 304.06 229.32C304.2 229.98 306.22 235.28 307.14 234.84C307.39 234.71 308.09 234.04 308.09 233.64V208.82C308.1 207.71 308.82 207.22 309.7 207.29C313.98 207.68 314.07 206.48 315.82 208.2L315.85 246.97C315.85 247.87 316.09 248.75 315.68 249.38" fill="#90BEFA"/>
<path d="M589.29 369.13C588.74 372.46 586.56 376.96 582.6 377.18C577.32 377.47 575.7 373.55 574.72 369.61C573.15 363.36 573.17 357.88 575.03 351.66C575.42 350.33 575.79 348.94 576.71 347.98C578.26 346.4 579.9 345.39 582.13 344.91C588.88 347.53 588.93 350.64 589.83 356.96C590.38 360.78 589.91 365.33 589.3 369.13M597.04 350.06C595.84 347.26 594.49 344.45 592.15 342.51C588.58 339.56 586.04 339.3 581.75 339.12C578.24 338.97 575.48 340.03 572.61 341.79C568.86 344.09 566.84 348.96 566.1 353.2C565.86 354.59 565.29 356.17 565.27 357.6C565.24 360.2 565.02 362.78 565.41 365.26L566.1 369.53C566.94 374.82 570.22 380.53 575.38 382.31C579.79 383.82 584 383.89 588.23 382.31C589.94 381.68 591.31 380.91 592.58 379.55C593.7 378.35 595 377.14 595.63 375.64L597.24 371.82C598.16 369.62 597.84 366.42 598.49 364.68V357.62C597.8 355.2 598.07 352.45 597.03 350.05" fill="#90BEFA"/>
<path d="M589.94 305.55L589.8 307.97C589.53 312.26 588.68 317.52 584.68 319.66C582.78 320.7 581.05 320.56 579.08 319.65C576.36 318.4 575.42 315.06 574.64 312.27C572.85 306.01 573.38 297.51 576.25 291.81C576.84 290.66 577.71 289.93 578.69 289.19C580.71 287.68 582.55 287.44 584.68 288.94C587.37 290.83 588.64 292.82 589.2 296.16L589.94 300.57C589.74 302.24 589.77 303.9 589.94 305.54M596.8 292.61C595.41 288.42 592.92 285.36 588.82 283.29C586.68 282.21 583.95 282.14 581.39 282.07C572.89 281.87 567.01 288.51 566.13 296.16C566 297.32 565.37 298.76 565.33 299.91C565.22 302.86 565.15 305.68 565.4 308.59C565.5 309.65 565.95 311.01 566.12 312.13C566.75 316.27 567.79 318.63 570.25 321.76C571.86 323.8 574.16 324.84 576.58 325.6C579.96 326.64 583.02 326.64 586.47 325.84C591.8 324.58 594.81 321.16 596.73 316.18C598.58 311.38 597.32 312.55 598.51 307.97V300.24C597.15 294.93 598.75 298.41 596.82 292.61" fill="#90BEFA"/>
<path d="M589.93 249.62L589.26 255.39C589.09 256.8 588.63 258.18 587.65 259.38C586.8 261.77 584.65 262.91 582.19 263.23C578.66 263.69 575.34 259.81 574.88 256.02C574.71 254.58 573.86 252.95 573.76 251.54C573.61 248.92 573.63 246.5 573.65 243.83C573.66 242.23 574.45 240.53 574.74 239C575.23 236.52 575.75 234.52 577.79 232.83C579.47 231.44 582.13 230.32 584.4 231.58C586.07 232.52 588.04 234.63 588.61 236.51C589.72 240.09 590.35 245.89 589.93 249.63M596.48 234.86C596.03 233.85 595.61 232.87 595.04 231.88C591.19 225.06 583.25 223.9 576.14 225.89C570.41 227.5 566.77 233.52 566.13 239.46C566.02 240.59 565.36 242.05 565.3 243.14L565.1 247.62C565.06 248.54 565.14 250.22 565.34 251.18L566.77 258.28C567.33 261.04 570.44 265.48 573.14 267.13C577.13 269.57 581.93 269.41 586.37 268.73C591.59 267.92 594.91 264.11 596.58 259.35C596.89 258.45 597.5 257.47 597.66 256.48C597.93 254.76 598.16 253.25 598.5 251.61V244.22C597.35 239.46 598.75 239.89 596.48 234.88" fill="#90BEFA"/>
<path d="M406.3 195.87C405.81 198.99 405.04 202.27 402.91 204.48C400.75 206.69 396.71 206.65 394.73 204.86C393.64 203.88 392.25 202.16 391.87 200.81C391.34 198.88 390.82 197.11 390.71 195.17L390.5 191.28C390.44 190.15 390.32 189.18 390.47 188.07C391.16 183.24 390.67 177.88 396.06 174.45C397.39 173.6 400.02 173.9 401.32 174.77C402.73 175.69 404.16 177.12 404.79 178.68C407 184.14 407.21 190.01 406.29 195.87M414.27 181.35C413.7 177.61 411.36 173.49 408.43 171.03C405.35 168.41 404.59 169.32 401.71 168.02H396.01C393.52 168.02 388.03 170.67 385.99 173.79C384.53 176.03 383.22 178.76 382.81 181.39C382.22 185.32 381.59 189.08 382.05 193C382.4 196.02 382.47 199.09 383.58 201.84C385.71 207.16 389.39 211.33 395.38 212.05C399.18 212.5 403.09 212.51 406.69 210.41C410.12 208.39 413.05 204.56 413.94 200.54C414.53 197.92 414.7 195.39 415.02 192.77C415.48 188.93 414.85 185.18 414.26 181.36" fill="#90BEFA"/>
<path d="M551.72 201.23C551.02 203.47 548.84 205.61 546.25 206.17C540.89 207.35 537.67 200.08 537.5 196.54C537.36 193.57 537.12 183.83 537.93 181.6L539.19 178.18C539.53 177.27 540.23 176.56 540.91 175.93C542.37 174.59 543.7 173.82 545.84 174C548.68 174.24 548.53 175.04 550.99 177.54C551.98 179.78 553.08 182.33 553.09 184.77L553.16 194.57C553.18 196.84 552.43 199.01 551.72 201.23ZM559.59 176.99C559.03 175.66 558.04 174.25 557.17 173C556.44 171.96 554.93 170.8 553.82 170.09C552.12 169.01 550.05 168.73 548.14 168.02H542.43L539.25 168.9C538.09 169.22 537.04 170.01 536.04 170.66C534.46 171.7 533.39 172.82 532.37 174.48C531.32 176.19 530.23 177.88 529.84 179.95C529.56 181.5 529.11 183.21 529.06 184.77C528.95 188.06 528.89 191.25 529.12 194.49L529.37 198.28C529.57 201.21 532.11 206.23 534.49 208.43C537.19 210.95 540.06 212.21 543.77 212.13C545.04 212.1 546.56 212.35 547.89 212.17C554.33 211.27 558.48 207.42 560.35 201.31C562.56 194.13 562.55 183.95 559.59 176.99Z" fill="#90BEFA"/>
<path d="M434.98 161.88C430.39 161.82 428.23 156.57 427.69 152.89C427.14 149.28 427.16 145.15 427.33 141.48C427.53 137.35 428.17 136.64 429.67 132.81C432.78 130.71 431.9 129.7 435.31 129.62C437.02 129.58 437.96 130.21 439.17 131.24C441.87 133.55 442.94 137.6 443.16 141.14C443.57 147.19 443.97 162 434.98 161.88ZM451.3 138.84C451.26 137.72 450.7 136.19 450.47 135.03C450.09 133.01 447.88 129.14 446.48 127.95C442.36 124.48 443.2 125.43 438.65 123.69H432.27C426.84 124.82 422.17 128.28 420.45 133.67C419.31 137.24 418.77 140.46 418.68 144.13C418.57 148.26 418.86 154.42 420.61 158.2C423.17 163.73 425.26 165.97 430.96 167.54C433.47 168.21 435.78 167.99 438.34 167.71C442.12 167.32 445.73 165.33 447.78 162.04C449.74 158.89 451.28 155.37 451.36 151.58C451.44 147.21 451.46 143.16 451.29 138.84" fill="#90BEFA"/>
<path d="M381.82 111.49C377.23 111.43 375.07 106.18 374.53 102.5C373.98 98.89 374 94.76 374.17 91.09C374.37 86.96 375.01 86.25 376.51 82.42C379.62 80.32 378.74 79.31 382.15 79.23C383.86 79.19 384.8 79.82 386.01 80.85C388.71 83.16 389.78 87.21 390 90.75C390.41 96.8 390.81 111.61 381.82 111.49ZM398.14 88.44C398.1 87.32 397.54 85.79 397.31 84.63C396.93 82.61 394.72 78.74 393.32 77.55C389.2 74.08 390.04 75.03 385.49 73.29H379.11C373.68 74.42 369.01 77.88 367.29 83.27C366.15 86.84 365.61 90.06 365.52 93.73C365.41 97.86 365.7 104.02 367.45 107.8C370.01 113.33 372.1 115.57 377.8 117.14C380.31 117.81 382.62 117.59 385.18 117.31C388.96 116.92 392.57 114.93 394.62 111.64C396.58 108.49 398.12 104.97 398.2 101.18C398.28 96.81 398.3 92.76 398.13 88.44" fill="#90BEFA"/>
<path d="M291.9 38.19C287.31 38.13 285.15 32.88 284.61 29.2C284.06 25.59 284.08 21.46 284.25 17.79C284.45 13.66 285.09 12.95 286.59 9.12C289.7 7.02 288.82 6.01 292.23 5.93C293.94 5.89 294.88 6.52 296.09 7.55C298.79 9.86 299.86 13.91 300.08 17.45C300.49 23.5 300.89 38.31 291.9 38.19ZM308.23 15.15C308.19 14.03 307.63 12.5 307.4 11.34C307.02 9.32 304.81 5.45 303.41 4.26C299.29 0.79 300.13 1.74 295.58 0H289.2C283.77 1.13 279.1 4.59 277.38 9.98C276.24 13.55 275.7 16.77 275.61 20.44C275.5 24.57 275.79 30.73 277.54 34.51C280.1 40.04 282.19 42.28 287.89 43.85C290.4 44.52 292.71 44.3 295.27 44.02C299.05 43.63 302.66 41.64 304.71 38.35C306.67 35.2 308.21 31.68 308.29 27.89C308.37 23.52 308.39 19.47 308.22 15.15" fill="#90BEFA"/>
<path d="M479.77 149.84C479.62 152.98 479.34 155.58 477.63 158.28C476.55 159.99 475.21 161.33 473.44 161.75C463.14 164.27 462.35 144.57 465.04 136.02C466.13 132.55 469.2 128.84 472.98 129.78C475.64 130.44 477.24 132.8 478.61 135.14C479.67 136.95 479.53 139.03 479.73 141.15C480.02 144.08 479.91 146.93 479.77 149.85M487.95 137.76C487.19 133.27 484.42 128.1 480.28 125.76C478.59 124.81 476.53 124.22 474.6 123.69H469.22C463.61 124.73 460.54 127.19 457.71 132.39C456.79 134.06 455.71 139.28 455.57 141.28C455.4 143.95 455.32 150.87 455.92 153.11L457.07 157.42C458.32 162.12 462.61 166.7 467.92 167.64C476.64 169.18 484.09 166.07 486.79 157.29C487.11 156.25 487.9 154.95 487.98 153.93L488.26 150.5C488.5 147.71 488.41 140.49 487.95 137.76Z" fill="#90BEFA"/>
<path d="M516.56 76.0199L516.42 78.3299C516.21 82.0099 514.01 88.9599 508.89 89.3399C504.49 89.6599 501.09 84.4399 500.84 79.8199L500.55 74.6299C500.47 72.9899 500.37 71.5299 500.54 69.8999C500.99 65.3499 500.69 61.4999 505.54 58.0099C508.44 55.9099 512.14 57.5599 513.94 60.3899C516.68 64.6599 516.85 71.0699 516.57 76.0299M517.82 53.7099C515.94 52.2799 513.42 51.5699 511.07 51.1499H506.04C503.62 51.7499 501.01 52.0999 499.08 53.9099C498.39 54.5499 497.26 55.2099 496.71 55.9399C494.62 58.6699 492.51 61.8899 492.38 65.3199L492.14 71.5799C491.96 76.4999 491.76 81.3799 493.83 85.7599C495.27 88.8399 496.91 91.7699 499.99 93.3899C503.34 95.1399 506.84 95.6999 510.53 95.3399C521.77 94.2499 524.98 83.7599 524.9 73.9799C524.83 66.4899 524.17 58.5599 517.8 53.7199" fill="#90BEFA"/>
<path d="M516.56 241.78L516.42 244.09C516.21 247.77 514.01 254.72 508.89 255.1C504.49 255.42 501.09 250.2 500.84 245.58L500.55 240.39C500.47 238.75 500.37 237.29 500.54 235.66C500.99 231.11 500.69 227.26 505.54 223.77C508.44 221.67 512.14 223.32 513.94 226.15C516.68 230.42 516.85 236.83 516.57 241.79M517.82 219.46C515.94 218.03 513.42 217.32 511.07 216.9H506.04C503.62 217.5 501.01 217.85 499.08 219.66C498.39 220.3 497.26 220.96 496.71 221.69C494.62 224.42 492.51 227.64 492.38 231.07L492.14 237.33C491.96 242.25 491.76 247.13 493.83 251.51C495.27 254.59 496.91 257.52 499.99 259.14C503.34 260.89 506.84 261.45 510.53 261.09C521.77 260 524.98 249.51 524.9 239.73C524.83 232.24 524.17 224.31 517.8 219.47" fill="#90BEFA"/>
<path d="M220.51 321.36C220.59 322.44 221.08 325.01 219.22 325.25C216.84 325.54 214.18 325.42 211.64 325.4C210.39 325.4 209.51 324.25 209.26 323.12C208.88 321.33 208.21 319.77 207.68 318.07L206.14 313.18L203.93 305.98C203.13 303.4 203.12 300.21 200.71 298.22C199.8 298.35 199.04 299.8 199.16 300.88L199.51 304.34L199.57 323.97C199.57 324.45 198.59 325.4 198.14 325.4L193.51 325.43C192.94 325.43 191.52 324.74 191.52 323.99V283.92C191.51 283.4 192.49 282.45 192.93 282.45L201.78 282.51C202.61 283.46 202.77 284.88 203.12 286.01L204.97 291.95C205.49 293.59 206.29 295.17 206.72 296.86L208.19 302.81C208.51 304.08 210.37 310.26 212.19 309.68C213.73 307.61 212.72 305.12 212.71 302.9L212.64 283.77C212.63 283.21 213.42 282.41 213.93 282.41L219.42 282.49C220.09 282.5 220.79 284.09 220.78 284.73L220.54 292.35C220.39 297.64 220.29 302.92 220.51 308.24C220.78 314.48 220.05 315.51 220.51 321.34" fill="#90BEFA"/>
<path d="M183.32 260.65C181.88 261.62 180.02 261.03 178.34 260.83C176.97 260.68 173.75 262.12 173 259.79L170.96 253.38L169.21 247.78L166.87 240.05L165.12 235.11C164.92 234.58 164.46 233.93 163.91 233.42C162.8 234.68 162.59 236.07 162.61 237.63V258.06C163.11 258.66 163.06 260.85 162.19 260.96C160.34 261.2 158.49 261.16 156.65 261.09C155.33 261.05 154.45 260.07 154.52 258.79L154.86 253.03L154.9 221.92C154.3 221.04 154.38 218.5 155.74 218.35C158.43 218.04 161.47 218.17 164.25 218.18C164.83 218.18 165.68 219.15 165.82 219.71C166.44 222.22 167.53 224.68 168.28 227.2L170.23 233.68L171.87 238.75L173.54 244.01C173.69 244.5 174.94 245.02 175.33 244.95C176.98 243.94 175.81 239.59 175.79 238.3L175.73 228.6C177.06 225.97 173.88 218.14 177.34 218.16H183.47C184.13 219.49 183.79 220.76 183.79 222.21L183.76 257.24C184.1 258.39 184.14 260.1 183.31 260.66" fill="#90BEFA"/>
<path d="M369.97 250.36C369.66 252.82 369.79 255.54 368.58 257.89C367.67 259.7 366.54 261.5 364.95 262.44C363.35 263.41 361 263.34 359.43 262.66C356.52 261.43 355.45 258.67 354.68 255.9C353.13 250.2 353.25 243.41 354.89 237.73C356.22 233.09 360.39 229.55 364.26 231.55C366.49 232.7 367.56 234.6 368.59 236.69C369.65 238.86 369.77 241.13 369.92 243.55C370.06 245.85 370.26 248.04 369.96 250.36M378.37 242.78C378.19 240.43 377.89 238.23 376.93 236.09C376.22 231.65 370.82 226.29 366.61 225.55C361.46 224.65 356.26 224.71 352.02 228.1C349.81 229.86 348.06 232.31 347.22 235C346.42 237.55 345.57 240.2 345.4 242.84C344.95 249.95 345.16 252.86 347.29 259.39C349.56 266.31 354.56 269.29 361.75 269.11C365.84 269.01 369.98 268.52 372.92 265.26C378.69 258.88 378.88 250.91 378.37 242.79" fill="#90BEFA"/>
<path d="M146.05 159.81C143.67 160.02 141.26 159.98 138.63 159.92C137.31 159.89 136.24 158.84 135.94 157.82L133.7 150.31C132.73 147.08 129.92 139.7 129.77 136.77C129.67 134.84 128.61 132.86 126.42 133.17C125.37 134.09 125.87 135.91 125.92 137.1L126.14 142.81L126.17 146.52C126.18 148.47 126.53 150.47 126.21 152.4C125.92 154.08 126.03 155.52 126.34 157.29C126.47 158.05 125.81 159.82 125.01 159.85L119.55 159.99C119.03 159.99 118.29 159.23 118.29 158.56V118.71C118.3 118.29 118.72 117.09 119.13 117.04C120.12 116.93 122.22 117.11 123.27 117.1L128.26 117C129.63 119.76 130.46 122.11 131.23 124.95L132.67 130.2L134.1 133.73C134.46 134.64 136.77 145.15 138.24 144.15C140.44 142.67 139.18 137.88 139.18 135.47V117.74C139.43 116.66 141.21 117.1 141.91 117.08C143.31 117.07 144.99 116.8 146.26 117.16C147.66 117.58 147.76 119.29 147.17 120.41V156.15C147.83 157.33 147.65 159.64 146.05 159.78" fill="#90BEFA"/>
<path d="M226.62 57.5099C224.24 57.7199 221.83 57.6799 219.2 57.6199C217.88 57.5899 216.81 56.5399 216.51 55.5199L214.27 48.0099C213.3 44.7799 210.49 37.3999 210.34 34.4699C210.24 32.5399 209.18 30.5599 206.99 30.8699C205.94 31.7899 206.44 33.6099 206.49 34.7999L206.71 40.5099L206.74 44.2199C206.75 46.1699 207.1 48.1699 206.78 50.0999C206.49 51.7799 206.6 53.2199 206.91 54.9899C207.04 55.7499 206.38 57.5199 205.58 57.5499L200.12 57.6899C199.6 57.6899 198.86 56.9299 198.86 56.2599V16.4299C198.87 16.0099 199.29 14.8099 199.7 14.7599C200.69 14.6499 202.79 14.8299 203.84 14.8199L208.83 14.7199C210.2 17.4799 211.03 19.8299 211.8 22.6699L213.24 27.9199L214.67 31.4499C215.03 32.3599 217.34 42.8699 218.81 41.8699C221.01 40.3899 219.75 35.5999 219.75 33.1899V15.4599C220 14.3799 221.78 14.8199 222.48 14.7999C223.88 14.7899 225.56 14.5199 226.83 14.8799C228.23 15.2999 228.33 17.0099 227.74 18.1299V53.8699C228.4 55.0499 228.22 57.3599 226.62 57.4999" fill="#90BEFA"/>
<path d="M110.57 169.92V208.96C110.57 209.72 109.98 211.27 109.3 211.27L102.77 211.34C101.96 211.34 100.31 210.96 99.7499 210.49C98.7699 205.97 98.2699 206.01 96.9899 201.67L95.3899 196.21C94.7599 194.08 93.7499 192.11 93.3999 189.87C93.0499 187.6 91.9299 185.42 90.3899 183.67C88.3999 185.24 89.3399 187.48 89.3399 189.54L89.3699 210.81C88.0999 211.86 86.4599 210.99 85.1799 211.13C84.0599 211.27 82.8699 211.42 82.0699 210.88C80.9399 210.1 81.6499 209.02 81.6499 207.87V171.41C81.6499 170.49 81.0199 168.48 82.7999 168.44L89.7199 168.31C92.9099 168.25 92.6199 170.69 93.7699 174.11L95.4799 179.16C96.0699 180.9 96.6999 182.48 97.1499 184.23L98.6899 190.14C99.0299 191.41 100.1 194.86 101.38 195.31C103.62 196.09 102.67 187.23 102.58 186.15C102.48 184.92 102.61 183.55 102.61 182.36L102.48 169.98C102.48 169.36 103.52 168.36 104.15 168.36H108.94C109.6 168.36 110.58 168.96 110.58 169.94" fill="#90BEFA"/>
<path d="M29.1302 105.66V144.7C29.1302 145.46 28.5402 147.01 27.8602 147.01L21.3402 147.08C20.5302 147.08 18.8802 146.7 18.3202 146.23C17.3402 141.71 16.8402 141.75 15.5602 137.41L13.9602 131.95C13.3302 129.82 12.3202 127.85 11.9702 125.61C11.6202 123.34 10.5002 121.16 8.96017 119.41C6.97017 120.98 7.91017 123.22 7.91017 125.28L7.94017 146.55C6.67017 147.6 5.03017 146.73 3.75017 146.87C2.63017 147.01 1.44017 147.16 0.640168 146.62C-0.489832 145.84 0.220168 144.76 0.220168 143.61V107.15C0.220168 106.23 -0.409832 104.22 1.37017 104.18L8.29017 104.05C11.4802 103.99 11.1902 106.43 12.3402 109.85L14.0502 114.9C14.6402 116.64 15.2702 118.22 15.7202 119.97L17.2602 125.88C17.6002 127.15 18.6702 130.6 19.9502 131.05C22.1902 131.83 21.2402 122.97 21.1502 121.89C21.0502 120.66 21.1802 119.29 21.1802 118.1L21.0502 105.72C21.0502 105.1 22.0902 104.1 22.7202 104.1H27.5102C28.1702 104.1 29.1502 104.7 29.1502 105.68" fill="#90BEFA"/>
<path d="M308.36 270.89V310.08C308.36 311.4 307.24 312.26 305.87 312.19L300.28 311.94C299.54 311.91 298.15 312.32 297.72 311.38C297.27 310.39 297.06 309.28 296.74 308.26L294.15 300.45L292.81 296.05L290.51 288.24C290.2 287.19 289.17 285.59 288.49 284.64C288.22 284.42 287.22 285.37 287.22 285.76L287.18 311.33C286.41 312.45 280.03 312.67 279.49 311.02V270.54C279.48 269.87 280.19 269.15 280.76 269.15L289.48 269.19C290.59 270.14 291.72 275.87 292.5 278.04C293.33 280.34 294.19 282.44 294.82 284.79L296.56 291.13C296.81 292.07 298.83 297.14 299.75 296.7C300.02 296.57 300.6 295.82 300.6 295.51V270.55C300.61 269.84 301.33 269.16 301.87 269.16H306.7C307.55 269.17 308.34 269.92 308.34 270.88" fill="#90BEFA"/>
<path d="M368.95 313.87C368.45 315.63 367.17 317.22 366.16 318.9C363.18 320.66 360.78 321.13 357.84 318.83C356.61 317.86 355.51 315.86 355.18 314.32C354.8 312.6 353.93 310.9 353.82 309.26C353.58 305.89 353.71 302.67 353.69 299.32C354.53 296.27 354.99 293.23 356.91 290.64C357.47 289.9 358.9 289.04 359.68 288.57C361.65 287.34 363.39 288.08 365.07 289.19C366.51 290.16 367.6 291.23 368.02 293.01C368.96 294.28 369.53 295.73 369.67 297.35L369.98 300.81C370.36 305.19 370.18 309.57 368.93 313.87M376.22 291.21C375.27 288.93 373.99 286.52 371.81 285.2C370.77 284.57 369.55 283.66 368.42 283.2C364.6 281.66 360.08 281.69 356.1 282.91C354.67 283.34 353.06 284.42 351.84 285.32C345.64 289.88 344.7 301.91 345.46 308.94C345.98 313.85 347.69 319.05 351.13 322.59C354.38 325.94 361.15 326.94 365.65 326.01C371.06 324.89 374.96 321.3 376.7 316.08C377.57 313.49 378.28 310.98 378.45 308.17C378.83 301.8 378.67 297.05 376.22 291.21Z" fill="#90BEFA"/>
<path d="M257.33 340.88L257.3 382.03C254.79 382.86 251.98 382.42 249.64 382.2C249.07 382.14 247.3 382.45 246.95 381.98C245.66 380.16 245.37 378.14 244.77 376.18L243.44 371.8L241.24 365.37L239.66 359.84C239.51 359.28 239.38 355.28 237.07 355.64C235.57 355.88 236.27 361.31 236.36 362.44C236.58 365.86 236.58 369.27 236.4 372.76C236.29 375.14 236.16 377.39 236.5 379.76C236.7 381.16 235.9 382.46 234.5 382.46L229.38 382.5C228.83 382.5 228.11 381.77 228.11 381.11V340.87C228.11 340.17 228.81 339.53 229.4 339.51L236.16 339.44C237.5 339.43 238.27 339.33 238.92 340.9L240.04 343.67L243.15 353.72L245.18 359.76C245.78 361.57 246.26 363.11 246.58 365.08C246.68 365.63 247.29 366.33 247.78 366.44C250.13 366.96 249.08 359.52 249.08 358.53L248.9 342.16C248.9 341.36 249.36 339.58 250.22 339.57L256.09 339.47C256.59 339.46 257.35 340.23 257.35 340.87" fill="#90BEFA"/>
<path d="M329.38 336.69V376.59C329.37 377.25 327.92 377.96 327.27 377.96H320.98C320.42 377.95 318.89 377.67 318.73 377.15L317.62 373.58L315.42 367L313.6 361.08C313.03 359.2 312.24 357.45 311.91 355.48C311.56 353.49 310.76 351.63 309.25 350.2C307.44 351.98 308.14 354.15 308.16 356.16L308.22 377.41C307.31 378.19 301.42 378.21 300.52 377.4L300.49 338.04C300.49 337 300.25 335.65 301.25 335H310.27C311.34 335.01 311.43 336.92 311.64 337.62L312.68 340.85C313.46 343.27 314.25 345.5 315.03 347.92L316.84 353.53C317.27 354.86 317.34 356.65 317.93 357.84C319.26 360.5 319.58 362.15 320.44 362.57C320.73 362.71 321.63 361.88 321.63 361.39L321.71 335.11L327.76 334.93C328.6 334.9 329.4 335.77 329.4 336.67" fill="#90BEFA"/>
<path d="M369.85 365.01C369.93 368.79 368.88 372.54 366.41 375.45C365.23 376.84 363.97 377.09 362.46 377.19C359.56 377.39 357.29 376.03 356 373.4C352.96 367.2 353.12 358.82 354.84 352.06C355.64 348.88 357.7 345.76 361.45 345.16C364.77 344.63 367.53 347.83 368.63 350.73C369.53 353.07 369.83 354.9 369.95 357.34C370.06 359.9 370.38 362.44 369.85 365.01ZM378.11 354.04C376.93 349.88 375.9 346.11 372.86 343.17C367.55 338.03 357.79 337.75 352.18 342.08C350.15 343.63 348.22 346.08 347.35 348.54C345.25 354.53 344.81 360.33 345.5 366.63C345.71 368.59 346.35 370.66 346.9 372.59C347.87 376.01 349.78 378.29 352.29 380.49C357.4 384.96 371.49 385.39 376.09 374.6C377.41 371.49 378.32 368.64 378.44 365.23C378.55 362.57 378.76 356.35 378.1 354.04" fill="#90BEFA"/>
<path d="M132.91 380.06C132.92 381.03 131.85 382.05 130.91 382.05L123.53 382.01C122.38 382.01 121.89 381.1 121.72 380.12C121.5 378.82 121.02 377.74 120.63 376.52L118.82 370.92L116.87 364.54L114.45 356.52C114.18 355.64 112.91 354.69 112.18 354.87C110.84 356.7 111.62 359 111.62 361L111.69 381.32C110.88 382.19 109.34 382.05 108.2 381.92C107.3 381.82 105.61 382.31 104.84 381.89C103.44 381.16 103.45 379.23 103.99 377.91V342.51C103.32 341.52 103.68 339.25 105.01 339.18C107.84 339.03 110.55 339.03 113.37 339.17C115.54 339.28 115.51 344.71 116.77 346.73L118.8 353.07L120.13 357.19C120.52 358.41 120.52 360.24 121.03 361.33L122.5 364.59C122.75 365.12 123.3 365.99 123.79 366.35C126.65 365.05 124.18 356.39 125.06 353.51C124.88 351.77 124.92 350.05 124.89 348.29L124.78 342.06C124.77 341.15 124.91 339.76 125.54 339.11L131.42 339.08C131.9 339.07 132.88 340.02 132.88 340.58L132.82 372.03L132.79 375L132.9 380.07L132.91 380.06Z" fill="#90BEFA"/>
<path d="M110.59 284.86V323.99C110.58 324.45 109.6 325.39 109.11 325.39L103.54 325.43C102.31 325.44 100.87 325.33 99.9001 324.65C99.2801 324.2 99.2701 322.51 99.0501 321.84L96.8901 315.52L95.3601 310.33C94.7201 308.12 93.7401 306.02 93.3401 303.71C92.9601 301.5 92.0801 299.22 90.1301 297.97C88.3101 299.76 89.3601 301.96 89.3601 303.98L89.4001 324.02C89.4001 325.08 88.3201 325.66 87.4401 325.41C85.3401 324.82 81.7301 326.22 81.7101 324.32L81.6501 286.2C81.6501 285.08 80.9101 283.16 82.5301 282.57L91.3101 282.53C93.0501 283.44 94.1501 289.74 95.1301 292.6L97.3001 298.86C99.2901 304.66 96.7401 300.36 100.65 309.01C100.78 309.26 101.74 309.54 101.92 309.35C104.05 306.96 101.98 300.22 102.66 296.06C102.88 294.73 102.67 293.55 102.6 292.17C102.45 289.54 102.49 286.53 102.52 283.94C102.52 283.48 103.07 282.65 103.4 282.46C103.79 282.25 104.62 282.36 105.23 282.39L108.27 282.49C108.76 282.52 109.63 282.67 109.94 282.94C110.36 283.3 110.57 284.09 110.57 284.9" fill="#90BEFA"/>
<path d="M330.17 439.02C329.37 439.68 328.08 439.26 327.15 439.31L322.15 439.58C320.6 439.66 319.7 438.98 319.43 437.49C319.15 435.96 318.46 434.47 317.99 433L315.75 425.86C315.09 423.77 314.53 421.84 313.73 419.74C312.85 417.42 313.67 416.52 310.78 412.19C309.97 412.34 309.38 413.25 309.38 414.04L309.35 439C308.1 439.94 306.59 439.32 305.36 439.31C304.03 439.31 302.76 439.97 301.65 438.74V397.59C301.65 397.09 302.84 396.55 303.33 396.55L311.04 396.58C311.73 396.58 312.36 397.49 312.53 398.05L313.68 401.93C315.32 407.5 316.4 409.35 317.95 415.43C318.94 419.32 319.17 420.39 321.53 424.14C322.1 423.89 322.8 423.02 322.8 422.35V397.89C322.8 397.29 323.54 396.56 324.05 396.56H328.61C329.1 396.55 330 396.94 330.51 397.39L330.55 435.91C330.55 437.16 330.94 438.37 330.16 439.03" fill="#90BEFA"/>
<path d="M293.92 438.74C292.14 440.77 291.12 438.36 285.78 439.48C285.25 439.59 283.9 439.45 283.54 439.05C283.13 438.6 282.78 437.57 282.55 436.78L280.87 431.31L278.76 425.08L277.56 420.57C276.96 418.34 276.05 415.77 275.24 413.65C275.09 413.23 274.26 412.7 273.9 412.6C271.66 411.97 272.67 419.91 272.67 419.84L272.77 438.77C272.27 439.37 270.96 439.62 270.26 439.41C268.66 438.93 264.74 440.32 264.74 438.4L264.71 398.27C264.71 397.32 265.49 396.53 266.39 396.55L274.12 396.58C274.78 396.59 275.83 397.73 276.01 398.37L277.17 402.61L279.1 408.08L280.56 413.02C281.11 414.87 281.88 416.46 282.14 418.44C282.39 420.26 283.09 422.26 284.69 423.31C286.89 424.78 286.06 416.55 286.01 416.55L285.87 399.64C285.23 398.72 285.66 396.73 286.93 396.66L290.92 396.45C291.75 396.41 293.92 396.06 293.92 397.63V438.74Z" fill="#90BEFA"/>
<path d="M545.74 434.33C542.59 434.72 539.83 432.24 538.71 429.08C538.16 427.55 537.58 425.94 537.49 424.26C537.31 420.33 537.32 416.42 537.5 412.51C537.64 409.41 538.63 406.66 540.57 404.5C542.71 402.12 545.44 401.45 548.2 403.21C549.8 404.23 551.18 405.53 551.77 407.4C552.37 409.29 552.93 411.14 553.04 413.15C553.39 419.84 554.3 433.26 545.73 434.32M558.96 403.92C557.66 401.65 556.09 399.47 553.88 398.28C550.77 396.61 547.87 396.04 544.44 396.17C541.95 396.25 539.68 396.49 537.59 397.77C533.5 400.29 532.34 401.77 530.44 406.49C529.92 407.81 529.43 409.22 529.31 410.64L529.09 413.38C528.8 416.81 528.94 420.21 529.13 423.62C529.34 427.13 529.89 430.44 531.87 433.27C533.58 435.71 535.29 438.14 538.17 439.08C541.38 440.12 544.65 441.15 548.01 440.34C550.29 439.79 554.55 438.46 555.99 436.74C557.73 434.68 559.32 432.59 560.11 430.09C560.64 428.37 561.29 426.51 561.45 424.77L561.83 420.75C562.29 415.84 561.45 408.25 558.96 403.93" fill="#90BEFA"/>
<path d="M479.68 484.74C479.15 489.37 480.76 488.65 477.12 494.41C476.38 495.6 474.57 497.03 473.13 497.31C471.18 497.7 468.82 496.82 467.56 495.56C466.01 494.05 465.52 492.23 464.9 490.34C464.27 488.38 463.77 486.49 463.81 484.4L463.94 476.7C463.98 474.33 464.81 471.95 465.72 469.74C466.73 467.28 469.3 465.54 471.95 465.05C473.2 465.33 475.45 466.2 476.29 467.21C480.17 471.91 479.22 473.3 479.76 477.63C480.07 480.05 479.97 482.29 479.69 484.74M487.88 473.08C485.98 464.25 480.28 458.64 470.91 459.11C468.4 459.24 466.32 459.66 464.19 460.89C462.93 461.62 461.61 462.32 460.65 463.41C458.91 465.38 457.53 467.54 456.84 470.03C454.99 476.62 454.85 484.63 456.57 491.27C457.41 494.53 457.73 495.34 459.8 498.1C461.65 500.56 463.82 501.92 466.8 502.69C471.83 503.99 471.55 503.87 476.62 502.79C480.26 502.02 482.77 500.19 484.75 497.15C485.45 496.07 486.08 494.94 486.51 493.58C487.17 491.49 488.26 489.35 488.32 487.11C488.39 483.68 488.5 475.98 487.87 473.08" fill="#90BEFA"/>
<path d="M400.49 430.35C399.19 432.04 397.47 433.74 394.95 433.49C391.66 433.14 389.15 430.18 388.28 427.25C386.57 421.44 387.1 413.56 388.13 407.52C388.33 406.43 391.57 400.58 396.03 401.39C397.26 401.61 399 402.57 399.87 403.45C404.52 408.18 404.43 425.25 400.5 430.36M411.65 414.24L410.89 407.92C410.75 406.79 410.19 405.75 409.78 404.74C408.21 400.95 405.78 398.26 402.07 396.54C400.15 395.66 398.23 395.12 395.95 395.25C393.7 395.36 391.18 395.08 389.07 396.15C384.25 398.59 383.04 399.83 380.71 404.52C379.65 406.68 379.39 408.74 379.03 411.02C378.36 415.39 378.41 419.49 379.04 423.87C379.33 425.89 379.56 427.72 380.44 429.57C383.21 435.35 384.17 436.88 390.37 438.85C395.68 440.54 402.58 439.14 406.36 435.18C409.48 431.92 410.74 428.35 411.19 423.81C411.51 420.59 412.02 417.44 411.64 414.23" fill="#90BEFA"/>
<path d="M516.72 420.78C516.27 424.92 515.75 431.21 511.76 433.44C509.62 434.64 507.6 434.9 505.64 433.57C503.38 432.03 501.33 429.31 501.1 426.5L500.67 421.05C500.46 418.45 500.35 415.98 500.71 413.36L501.27 409.36C501.59 407.13 503.47 404.99 505.06 403.65C507.4 401.69 509.88 401.86 512.27 403.66C514.94 405.69 515.99 409.22 516.37 412.59L516.68 415.33C516.88 417.16 516.9 418.93 516.71 420.78M523.91 408.04C523.24 405.23 521.77 402.86 519.92 400.56C518.95 399.36 517.39 398.56 516.08 397.73C513.92 396.36 511.7 396.15 509.18 396.18C506.35 396.19 503.68 396.33 501.23 397.65C497.84 399.47 495.28 401.99 494.16 405.73C492.79 408.21 492.09 410.83 492.42 413.71C491.76 416.71 492.14 419.73 492.25 422.73C492.35 425.68 492.81 428.13 493.99 430.89C495.45 434.25 497.55 437.65 501.31 438.98C506.46 440.81 508.51 441.11 513.87 439.72C518.99 438.39 522.54 433.6 523.8 428.94C525.48 422.72 525.4 414.31 523.91 408.04Z" fill="#90BEFA"/>
<path d="M443.11 444.92C442.93 447.79 442.4 450.63 440.69 453.07C439.42 454.86 437.32 456.46 434.95 456.25C432.21 456.03 430.03 453.8 428.89 451.35C427.21 447.78 427.18 443.87 427.22 439.91C427.25 436.42 427.3 433.23 428.45 430.02C429.4 427.37 431.27 424.7 434.32 424.21C437.67 423.66 440.63 426.16 441.73 429.11C442.6 431.48 443 433.66 443.2 436.12C443.51 439.07 443.3 441.93 443.12 444.91M448.87 425.66C446.62 421.77 442.93 418.66 438.29 418.18C433.08 417.65 430.24 418.18 425.89 420.71C421.7 423.13 419.18 430.45 418.97 434.68C418.79 438.33 418.79 441.89 418.91 445.63C418.99 447.88 419.88 450.14 420.55 452.34C421.28 454.75 422.85 456.85 424.61 458.68C426.63 460.77 432.09 462.5 435.31 462.46C436.74 462.45 438.07 462.14 439.38 461.84C443.74 460.86 446.91 458.48 449.01 454.55C451.25 450.38 451.5 445.69 451.52 440.9V437.58C451.52 433.35 451.02 429.33 448.87 425.65" fill="#90BEFA"/>
</g>
<defs>
<clipPath id="clip0_2550_905">
<rect width="598.5" height="503.63" fill="white"/>
</clipPath>
</defs>
</svg>
