<svg width="381" height="443" viewBox="0 0 381 443" fill="none" xmlns="http://www.w3.org/2000/svg">
<g clip-path="url(#clip0_2561_20067)">
<mask id="mask0_2561_20067" style="mask-type:luminance" maskUnits="userSpaceOnUse" x="0" y="0" width="381" height="443">
<path d="M380.27 0H0V442.67H380.27V0Z" fill="white"/>
</mask>
<g mask="url(#mask0_2561_20067)">
<path d="M266.07 219.71C265.19 220.05 263.97 219.63 262.99 219.67L253.3 219.98L238.5 220.49C237.48 220.52 236.34 220.9 235.31 221C233.96 221.14 232.41 221.82 231.86 223.1C231.65 223.55 232.15 224.51 232.52 224.77C235.09 226.6 238.15 226.32 241.5 226.63L249.86 227.42L251.64 227.55V228.02L249.61 228.18C247.37 228.37 245.19 228.18 242.95 228.18L233.5 228.14C232.82 228.14 232.21 229.1 232.18 229.7C232.11 231.16 232.64 232.3 233.45 233.15C234.57 234.29 235.84 234.27 237.35 234.46L242.57 235.09C245.06 235.39 247.45 235.57 249.96 235.81L258.55 236.64L265.38 237.29C264.76 237.74 264.16 237.78 263.43 237.78L232.05 237.8C232.15 239.09 232.3 240.25 232.54 241.22C233.51 242.41 235.18 242.06 236.49 242.33C238.01 242.66 239.41 242.89 240.89 243.16L244.58 243.82L250.18 244.75L253.6 245.35V245.99L251.44 246.05C246.62 246.19 240.34 246.81 235.99 245.31C235.22 245.05 234.25 244.74 233.45 245.11C232.75 245.43 230.71 248.3 232.81 250.11C233.75 250.93 234.78 251 236.04 251.12L245.32 252.02L249.61 252.59C251.69 252.86 253.62 252.97 255.7 253.34C258 253.74 260.36 253.38 262.49 254.66C265.32 256.36 252.13 254.62 252.28 254.63L247.28 254.29C242.02 253.94 237.4 252.44 232.16 254.68C230.62 257.25 233.61 260.04 236.06 260.35L242.85 261.201L247.98 261.66C250.26 261.87 252.27 262.25 254.6 262.43C254.9 262.46 261.27 263.34 259.85 263.74C259.74 263.77 259.35 263.91 259.22 263.91L255.38 264.07C252.19 264.2 249.29 263.7 246.17 263.41L238.62 262.701C237.6 262.601 231.95 262.16 232.12 263.52C232.22 264.28 232.4 265.27 232.75 265.8C234.2 267.98 236.53 269.221 239.13 269.701C244.49 270.681 249.85 270.801 255.34 271.171C256.35 271.241 257.27 271.52 258.01 272.29C256.29 272.55 254.7 272.561 252.99 272.391L246.32 271.71C242.34 271.31 238.54 270.78 234.55 271.24C232.47 271.48 230.86 274.44 232.17 276.02C234.08 277.25 236.89 276.97 239.06 277.31L242.83 277.91L248.19 278.65C248.32 278.67 256.79 279.631 255.58 280.451C255.47 280.521 255.13 280.77 254.92 280.77H242.08C239.02 280.77 238.07 279.531 234.04 279.921C233.05 280.011 231.74 281.16 231.59 282.13C231.23 284.56 233.31 285.94 235.42 285.99C241.91 286.12 238.72 285.53 244.81 287.05L248.12 287.88L252.09 288.88L255.29 289.671L255.41 290.27L251.41 289.76C250.5 289.64 249.48 289.6 248.54 289.51L240.18 288.73L232.89 288.22C232.36 288.19 231.68 289.44 231.63 289.98C231.59 290.52 232.02 291.39 232.49 291.93C233.73 293.36 235.56 293.58 237.32 293.96L241.85 294.96L245.51 295.76L249.55 296.641L253.66 297.53L256.4 298.11L259.17 298.75L261.94 299.25C262.04 299.26 262.34 299.48 262.43 299.51C264.37 300.38 256.93 299.37 256.93 299.37L248.82 298.36L240.72 297.59C238.11 297.34 235.48 297.49 232.89 297.58C231.46 297.62 231.62 300.61 231.91 301.22C232.05 301.53 232.67 301.75 233.1 301.86L236.95 302.79L240.73 303.66L244.35 304.49L248.59 305.451L251.81 306.171L255.83 307.08L259.97 308.06C259.97 308.06 259.84 308.3 259.71 308.54C258.31 308.5 257.03 308.41 255.62 308.22L250.29 307.51C248.56 307.27 246.92 307.08 245.21 306.81L240.99 306.15L233.62 305.79C232.77 305.75 231.81 306.251 231.58 306.891C230.41 310.171 237.83 311.92 240.25 312.48L243.67 313.26L246.69 313.891L251.18 314.85C253.39 315.32 249.02 316.45 244.66 315.32L241.85 314.59L237.86 313.62C236.36 313.26 234.46 312.8 233 313.37C231.66 313.88 231.54 315.72 232.18 316.75C233.14 318.28 234.5 319.32 236.27 319.82L239.48 320.73L242.97 321.66L245.41 322.31L261.29 326.52C263.82 327.18 260.03 327.151 259.07 326.951L254.79 326L250.49 325.05L246.45 324.171L242.32 323.31C239.97 322.81 235.14 322.1 233.04 322.48C231.85 322.7 231.32 323.9 231.57 324.96C231.96 326.61 233.32 327.52 234.83 328.1C236.78 328.85 239.06 329.44 241.17 329.86L245.77 330.78L250.14 331.641L253.86 332.53C254.08 332.58 254.43 333.03 254.47 333.24C254.72 334.68 250.35 333.54 249.62 333.38L245.57 332.46L241.71 331.58L237.48 330.671L233.36 329.94C233.07 329.89 232.4 330.07 232.26 330.3C231.87 330.92 232.5 334.57 233.13 335.5C233.66 336.31 235.21 336.46 236.07 336.68L238.59 337.32L242.13 338.21L245.48 339.06L248.79 339.921L252.08 340.8L255.59 341.75L259.12 342.701C259.93 342.911 261.07 342.8 261.54 343.85C261.68 344.16 260.92 344.39 260.61 344.32C259.04 343.96 257.7 343.73 256.16 343.44L253.19 342.86L248.71 342.12L243.57 341.28C241.09 340.88 238.91 340.53 236.78 339.11C235.51 338.26 234.14 338.37 233.03 339.23C231.63 340.31 231.34 341.85 232.32 343.36C233.26 344.8 234.83 345.29 236.47 345.79L255.68 351.68L259.36 352.81C258.87 353.12 258.11 353.26 257.51 353.15L252.62 352.16C251.5 351.94 250.28 351.59 249.16 351.28L245.85 350.35L243.03 349.56C240.27 348.8 236.5 347.89 233.64 348.03C232.66 348.09 231.11 349.001 231 350.171C231.45 351.171 232.89 352.64 234.08 353.1L249.31 358.97C247.61 359.9 245.78 359.27 244.15 358.63L237.2 355.921C236.62 355.691 235.55 355.49 234.93 355.4C233.51 355.19 232.64 356.63 232.1 357.69C231.59 358.66 230.89 359.17 229.91 359.72C219.13 365.77 207.86 370.65 196.1 374.43L193.28 375.33L190.45 376.171L186.78 377.171C185.71 377.461 184.7 377.681 183.6 377.921C182.09 378.261 180.46 378.92 178.93 378.66L175.88 378.16L175.23 380.38C173.91 380.27 174.08 378.83 172.87 378.54C170.9 378.05 170.8 383.38 163.83 380.72C160.98 379.62 158.52 380.09 156.69 382.5C156.3 381.75 155.91 380.92 155.35 380.29C154.89 379.76 153.41 380.25 152.96 380.72L150.58 383.18L148.87 379.81C146.16 378.41 145.04 380.95 143.6 381.23C142.81 381.37 143.96 379.1 142.42 378.23C141.97 377.98 140.88 378.12 140.36 378.49L136.31 381.4L135.17 375.9L128.57 382.23L124.94 385.69C124.86 385.76 124.41 385.96 124.37 385.87C124.33 385.77 124.24 385.51 124.2 385.36C126.44 381.21 130.27 380.931 131.49 376.171C131.71 375.331 131.59 374.39 130.98 373.75C129.88 372.58 127.95 374.14 126.81 374.22L126.47 371.81C124.45 369.76 122.25 372.16 119.94 368.72C118.41 366.44 115.34 369.54 115.63 367.58L115.92 365.52C115.98 365.13 115.64 364.25 115.32 364.04C114.39 363.44 113.2 364.11 112.31 363.44C111.66 362.95 112.29 361.69 111.71 360.65C111.28 359.87 109.38 360.54 108.47 360.04C107.81 358.28 109.15 356.401 108.02 355.421C107.21 354.731 105.82 355.771 105.11 354.951C104.35 354.071 106.07 352.46 105.65 350.81C104.18 350.22 102.3 352.18 100.8 351.19L103.04 348.35C103.19 348.15 103.01 347.37 102.79 347.31L101.64 347.02L98.5396 346.16C98.2796 346.08 97.8696 345.8 97.8196 345.57C97.5796 344.45 100.75 345.29 100.47 342.66C100.19 339.99 96.5296 341.45 95.5996 340.55C97.0796 339.33 98.2896 338.561 99.2696 337.201C99.8796 336.361 99.1296 335.06 98.1496 334.78C94.8296 333.84 88.1996 339.6 85.2796 339.27C85.1396 339.26 85.0596 338.68 85.1796 338.6C89.4296 335.69 97.2496 334.08 96.7996 330.56C96.4496 327.81 92.3996 329.55 91.9196 328.4L94.7396 326.65C95.5996 326.11 96.3296 325.02 96.4496 323.96C96.6196 322.29 93.9196 322.87 92.1796 322.15C92.0596 322.1 91.7296 321.56 91.8296 321.5C93.1696 320.59 93.8296 321.11 95.0896 319.71C95.2096 315.72 94.8896 311.98 95.3496 308.11L96.0096 302.28C96.2296 300.46 97.0196 296.131 97.4596 294.391L98.4096 290.61C99.0896 287.91 100.59 283.96 101.68 281.33C102.78 278.67 104.21 276.42 106.02 274.19L112.12 266.68C113.44 265.07 114.83 263.38 116.71 262.47C117.32 262.18 118.67 262.2 118.93 261.43C119.08 260.98 118.8 259.941 118.68 259.391C118.4 258.121 121.08 259.95 122.72 257.15C124.35 254.38 126.72 256.1 127.55 253.94L127.12 252.06L127.23 251.58C134.39 252.39 134.73 246.42 140.12 243.73C141.63 242.99 143.05 242.15 144.64 241.51C146.48 240.78 148.89 242.27 149.9 240.24C150.25 239.54 150.11 238.82 149.64 238.09C149.49 237.84 149.72 236.94 150 237.04C151.68 237.69 153.41 238.29 155.07 237.49C156.25 236.91 156.46 234.98 156.42 233.97C156.34 232.34 159.25 236.07 161.77 235.31C163.53 234.78 163.04 232.37 163.55 231.19C164.07 229.98 167.9 232.7 171.77 231.61C173.02 231.26 172.14 229.29 171.53 228.56C170.11 226.87 168.14 226.92 168.95 226.64L169.47 226.46C169.87 226.32 170.72 226.96 171.15 227.08L174.46 227.99C175.42 228.25 177.22 228.24 178.11 227.95C179.51 227.47 179.95 225.74 179.41 224.64C179.29 224.39 179.54 223.65 179.78 223.67C181.76 223.85 187.22 227.37 188.44 226.07C189.56 224.87 189.42 223.35 188.71 222.01C187.98 220.65 185.46 219.23 185.94 219.07C187.02 218.72 188.69 219.59 189.81 220.12L193.48 221.83C194.21 222.17 195.58 222.32 196.47 222.18C198.07 221.91 199.07 219.3 198.56 217.9C198.16 216.79 194.91 216.83 193.08 215.1L193.13 214.4L199.67 216.96C202.01 217.89 204.65 218.52 207.34 218.76C207.99 218.83 209.64 218.28 209.36 217.44C208.25 214.14 204.6 212.28 203.92 211.18C203.37 210.29 206.53 211.39 207.03 211.63L215.28 215.67C216.09 216.07 217.35 216.46 218.19 216.63C222.58 214.22 214.38 207.99 213.49 205.79C218.64 207.16 223.58 213.78 228.89 212.59C229.39 212.48 230.33 211.74 230.55 211.29C231.96 208.46 227.23 203.64 225.52 201.47L226.1 200.83C230.39 201.52 232.46 207.91 233.37 208.78C235.11 210.45 239.22 209.05 241.4 209.05H260.41C260.67 209.05 261.24 209.32 261.16 209.38C261.05 209.45 260.7 209.65 260.56 209.67L257.86 210.11L253.41 210.96C251.06 211.42 246.9 210.71 242.87 211.08L238.68 211.47C236.98 211.62 231.92 212.17 231.47 213.98C230.72 216.93 235.96 217.56 237.88 217.72L245.8 218.34L256.29 218.52L265.75 218.62C265.98 218.62 266.44 218.94 266.56 219.06C266.69 219.19 266.24 219.66 266.08 219.72M317.46 170.13C316.99 169.43 316.31 168.7 315.51 168.43C314.88 168.21 314.01 167.88 313.43 167.88L300.58 167.92L293.04 168.61C291.23 168.77 289.62 168.72 287.76 168.9L281.17 169.57C280.99 169.59 280.4 169.17 280.52 169.1C280.6 169.06 280.85 168.87 280.93 168.86L282.03 168.71L285.86 167.87C285.95 167.85 286.14 167.82 286.29 167.79L286.76 167.72L287.24 167.64L292.34 166.72C292.88 166.62 293.84 166.23 294.37 166.22C298.04 166.18 301.46 165.93 305.09 165.47C307.71 165.14 310.19 164.98 312.8 164.46C314.26 164.17 316.21 164.44 317.39 163.21C318.04 162.51 317.56 160.22 316.79 159.66C313.11 156.96 303.61 158.54 299.27 158.89L294.3 159.28C291.53 159.5 284.16 160.67 281.75 159.69C281.65 159.66 281.92 159.34 282.02 159.33L282.52 159.29L283.64 159.16L298.4 156.9L304.26 155.97L308.41 155.34L313.39 154.58C315.86 154.21 317.56 154.23 317.59 152.52C317.62 150.82 316.95 149.48 315.21 149.01C312 148.14 306.63 149 303.42 149.21L297.42 149.6C292.5 149.93 287.8 150.48 282.81 150.36L278.61 150.25C278.47 150.24 277.96 149.81 278.08 149.77L278.47 149.61C278.56 149.58 278.88 149.45 279.01 149.42L282.95 148.79L286.99 148.34L293.88 147.38L299.47 146.66L302.46 146.14C304.25 145.82 305.9 145.64 307.7 145.35L311.16 144.78L314.67 144.05C315.41 143.9 316.37 143.5 317.14 143.11C317.84 142.75 317.57 141.36 317.46 140.66C316.93 137.16 312.66 137.92 309.46 137.96C307.17 138 305.1 138.36 302.87 138.69L296.65 139.63L290.9 140.38C289.94 140.5 282.97 141.12 283.67 139.88C283.8 139.64 284.33 139.21 284.63 139.16L288.73 138.41L294.59 137.45L301.13 136.48L306.39 135.7L312.55 134.73C313.89 134.51 315.08 134.25 316.41 133.89C317.25 133.67 317.59 133.04 317.51 132.16L317.35 130.06C317.34 129.88 316.87 129.3 316.64 129.29C313.87 129.14 306.89 129.26 304.1 129.6C301.32 129.94 298.68 130.06 295.93 130.35L289.88 130.98L278.69 131.97C277.08 132.12 276.04 131.51 276.42 131.38C276.51 131.35 276.88 131.22 277 131.2L292.26 128.69L297.74 127.84L304.08 126.83L308.32 126.1C309.45 125.9 310.62 125.77 311.72 125.51L315.74 124.56C316.27 124.44 317.19 123.86 317.53 123.46C318.49 122.33 316.88 118.87 314.97 118.82C312.4 118.73 309.95 119.24 307.42 119.57L301.47 120.35L294.82 121.2L286.99 122.05L283.23 122.38C283.09 122.39 282.58 122.19 282.47 122.14C282.36 122.07 282.45 121.85 282.5 121.59L286.5 120.73L290.43 119.93L295.01 119.05L299.61 118.18L304.03 117.33L308.79 116.4C310.05 116.16 311.21 115.92 312.48 115.58C314.02 115.19 315.97 115.02 317.13 113.92C318.17 112.94 317.17 109.31 317.21 109.37C316.68 108.6 308.91 109.75 307.53 109.93L301.78 110.69L295.1 111.58L288.28 112.39L285.54 112.73C285.43 112.73 285.07 112.4 284.97 112.32L285.32 111.98C285.9 111.87 286.46 111.8 286.93 111.66L290.84 110.64L292.26 110.27L295.59 109.42L298.69 108.61L302.02 107.75L305.96 106.73L308.85 105.99L312.4 105.06C313.71 104.73 315.29 104.49 316.28 103.73L317.2 101.1C317.3 100.82 317.34 100.18 317.28 99.9305C317.2 99.6705 316.56 99.4305 316.24 99.4505L311.39 99.7605L308.37 100.3C306.57 100.62 304.89 100.8 303.08 101.05L299.33 101.57L293.82 102.37C292.72 102.52 283.87 103.87 284.42 102.52L289.34 101.25L293.83 100.27L298.7 99.3305L302.87 98.5305L306.75 97.7205L309.18 97.0905C311.81 96.4005 314.86 95.6005 316.77 93.6005C317.27 93.0905 317.52 91.8305 317.59 91.0805C317.69 90.1305 316.85 89.6605 315.98 89.7305C314.27 89.8805 312.47 89.8005 310.81 90.0605L304.25 91.0805L299.34 91.9405L294.89 92.7105L289.58 93.6405C286.75 94.1305 285.96 94.3705 283.18 94.4505C283.02 94.4605 283.15 93.8205 283.23 93.6505C284.4 93.1605 286.28 92.6405 287.68 92.3205L291.56 91.4305L294.96 90.6605L299 89.7305L302.81 88.8405L306.17 88.0205L309.3 87.2105C311.35 86.6805 313.39 85.9805 315.3 85.2005C318.28 83.9905 317.73 80.4805 317.1 80.2605C314.83 79.4905 309.3 80.5205 306.79 80.9605L303.81 81.4705L299.85 82.2505L295.71 83.0605L290.41 84.0705C288.74 84.3905 285.51 85.1505 284.19 84.5805C284.06 84.5205 284.24 83.9705 284.49 83.9005L299.6 79.8005L303.54 78.7105L306.21 77.9805L309.52 77.0805L313.22 76.0505C313.98 75.8405 315.86 75.7005 316.17 74.8605C316.39 74.2805 318.16 69.4705 316.67 69.6505C315.56 69.7805 314.37 70.1805 313.29 70.4505L309.65 71.3105L305.6 72.2405L301.96 73.0005L295.72 74.1705C294.96 74.3105 293.67 74.2705 293.11 73.9905C292.96 73.9105 293.47 73.4105 293.65 73.3705L299.02 72.0605L302.3 71.3505L305.92 70.5205L309.28 69.6705C312.32 68.9105 315.76 67.7705 317.56 65.1505C317.79 64.8105 317.98 63.9005 317.84 63.5205C317.26 61.9305 312.35 62.2305 313.3 61.3405L316.08 58.7405C316.61 58.2405 316.61 56.7705 315.81 56.6905C310.89 56.2805 307.8 57.4605 306.08 57.4805C305.37 57.4805 306.32 56.1205 308.11 55.8105C310.39 55.4305 313.99 55.0605 313.85 52.7705C313.71 50.3505 310.33 50.4705 308.79 50.0705C309.4 48.5305 311.72 48.1005 311.57 46.5105C311.33 44.0805 307.33 44.6405 305.59 45.0305L302.05 45.8205L293.72 47.9105C293.51 47.9605 292.91 47.7005 292.79 47.6705C292.22 47.5505 294.19 46.6405 294.26 46.6005C301.24 44.2505 307.61 45.3705 306.75 40.1705C306.51 38.7605 303.92 38.5705 303.22 38.7105L300.55 39.2805L293.78 40.8805C294.32 37.6405 302.47 40.7105 301.68 34.5505C301.56 33.5605 300.55 31.7405 299.28 32.2205L290.92 35.3805C288.04 36.4705 286.93 36.6705 284.04 37.3205C283.16 37.5205 282.21 36.4405 287.39 34.8405L291.79 33.4705C293.15 33.0605 294.47 32.3405 295.41 31.3005C296.18 30.4305 296.22 28.5905 295.02 28.0605C293.19 27.2505 291 28.0405 289.12 28.5905L285.47 29.6705C285.23 29.7405 284.62 29.7705 284.4 29.7705C284.23 29.7705 284.15 29.1205 284.29 29.0205C286.33 27.6005 288.22 27.7005 288.37 25.4505C288.44 24.5005 288.15 23.6705 287.6 23.1905C287.15 22.8005 286.17 22.4305 285.51 22.6305C283.31 23.3105 281.31 23.9405 279.2 24.7305L270.88 27.8905C269.63 28.3605 268.43 28.7205 267.11 29.1105C264.02 30.0605 264.03 29.1905 264.54 29.0105C264.66 28.9705 265.05 28.8705 265.18 28.8105L275.61 24.2405C277.19 23.5505 278.12 21.5605 279.23 20.3505L279.71 19.8305C279.81 19.7205 279.48 19.1405 279.33 19.1405C277.71 19.1005 278.36 19.4705 276.43 19.7405C274.72 19.9805 273.19 20.2705 271.52 20.5705L268.77 21.0705C268.6 21.0905 268.24 21.1905 268.02 21.2305C267.29 21.4105 267.13 20.4105 270.37 19.0205C271.24 18.6405 271.79 17.7605 271.86 16.9205C271.94 16.0805 271.42 14.9505 270.49 14.7505C268.5 14.3505 266.64 14.8905 264.79 15.4705L257.75 17.6405L257.04 17.8505C256.91 17.8805 256.58 17.4605 256.67 17.3405C258.1 15.4805 260.48 15.6405 260.89 13.6505C261.05 12.8805 260.03 11.5005 259.27 11.3505C257.54 10.9905 255.88 11.4005 254.27 12.0505L245.07 15.6905C244.68 15.8405 240.55 17.2905 241.07 16.1505C242.38 13.2205 249.37 14.9205 248.92 9.62049C248.84 8.66049 248.07 7.10049 246.65 6.94049C245.71 7.09049 244.33 7.53049 243.4 7.98049L233.18 12.9005C230.9 13.9905 228.76 14.7305 226.25 15.4705C226.03 15.5405 225.5 15.1205 225.65 14.9805C228.8 11.9505 237.45 10.8305 236.85 6.78049C236.72 5.87049 235.85 4.95049 234.61 4.79049C233.04 4.59049 231.28 5.14049 229.84 5.92049L221.71 10.3505C218.58 12.0605 215.6 13.8305 212.25 15.0105C212.18 14.7205 212.13 14.4105 212.14 14.3005L218.8 9.87049C220.31 8.86049 225.77 4.88049 223.48 3.01049C222.03 1.82049 220.33 2.42049 218.84 3.26049L204.85 11.2405C203.51 12.0005 202.17 12.6005 200.76 13.2105C199.45 13.7905 199.42 13.9405 198.11 13.8605C197.96 13.8505 198.26 13.1305 198.39 13.0205C201.78 10.1005 207.46 7.95049 208.91 5.38049C210.01 3.44049 208.45 1.61049 207.71 1.24049C206.05 0.41049 197.97 6.05049 195.96 7.34049L185.6 14.0005C185.47 14.0905 180.36 17.0705 181.21 15.9105L181.46 15.5605C182.09 14.7105 182.91 13.9305 183.78 13.2305L188.54 9.36049C190.37 7.88049 194.88 3.84049 193.53 1.59049C193.14 0.96049 192.17 -0.17951 191.31 -0.0295102C189.66 0.26049 188.22 1.43049 186.94 2.51049L178.71 9.52049C178.28 9.88049 172.15 15.2405 172.74 13.5705C172.97 12.9205 173.42 12.2205 173.91 11.7205L178.8 6.71049C179.41 6.08049 181.93 1.79049 179.8 0.96049C179.31 0.76049 178.55 0.92049 177.98 1.09049C173.51 2.45049 173.64 4.41049 169.79 7.75049C169.62 7.89049 169.02 7.89049 168.85 7.82049C168.72 7.75049 168.49 7.19049 168.55 7.05049L169.53 4.65049C170.18 3.05049 167.36 1.01049 161.63 7.81049L159.36 10.5005C157.79 12.3605 156.51 14.1105 154.71 16.0005C154.57 15.6405 154.47 15.0105 154.58 14.8105L157.23 10.1605C157.96 8.87049 158.74 7.45049 158.31 5.86049C158.09 5.08049 156.49 4.50049 155.76 4.64049C154.87 4.80049 153.94 5.37049 153.37 6.08049C152.62 7.04049 151.83 7.88049 151.19 8.90049L145.24 18.3705C145.14 18.5205 144.85 18.8805 144.75 19.0105C144.65 19.1405 144.14 19.0305 144.15 18.8705C144.19 18.2905 144.68 16.8405 145 15.4205L146.14 10.2805C146.34 9.39049 147.09 7.83049 146.51 7.02049C145.28 5.33049 142.6 8.09049 141.88 9.25049C140.04 12.2905 138.61 15.3705 137.47 18.7305L135.96 23.2005C135.89 23.3805 135.38 23.6105 135.2 23.5305C133.97 22.8805 135.3 21.5605 135.31 19.4205L135.34 12.6505C135.34 11.5905 134.83 10.2405 133.98 9.60049C131.89 8.02049 128.49 16.4905 128.38 18.9405L128.08 25.6105C126.29 23.9205 125.8 19.9605 125.09 17.5405C124.83 16.6605 123.68 12.9405 123.06 12.7505C121.59 12.2905 119.85 13.3905 119.57 14.8505C119.03 17.7705 119.59 20.6505 120.26 23.4905L121.1 27.0705C121.15 27.2605 120.94 27.8105 120.86 27.7905C119.72 26.3605 110.17 14.0905 108.63 16.9205C107.34 19.2805 112.54 28.7505 112.48 29.3705C112.46 29.6005 111.59 29.6405 111.35 29.4505L104.83 23.9205C103.35 22.6605 98.7096 18.3505 97.1796 20.5705C95.5796 22.9005 99.2196 26.4605 100.86 28.3705L102.17 29.8905C102.3 30.0305 102.54 30.7105 102.35 30.6805C102.21 30.6605 101.53 30.6105 101.39 30.5505C96.9296 28.4905 94.1796 26.3305 89.5096 24.2405C88.2196 23.6705 86.4396 23.7405 85.5796 24.7505C83.6996 26.9505 91.1996 31.8005 90.6096 31.9805C89.2496 32.4205 88.8096 32.2205 86.9696 31.5805L84.2496 30.6205C82.2096 29.9105 77.3996 27.8305 76.1396 29.2805C75.6596 29.8305 75.4196 30.6605 75.4196 31.4505C75.4096 33.5605 76.7996 33.6005 77.8296 34.2205C78.5596 34.6605 76.2496 35.7805 72.6496 34.3705L70.0196 33.3305L67.9296 32.4405C67.4296 32.2205 66.5096 32.2305 66.0596 32.5005C64.3296 33.5505 65.2296 36.3005 65.8996 38.0505C64.4096 38.7905 62.9296 37.9805 61.4496 37.6905L57.2196 36.8705C56.4996 36.7305 55.4096 37.0705 55.2396 37.9105C54.9996 38.9805 54.9996 40.2105 55.1896 41.3605C55.3196 42.2105 56.4596 42.7005 57.1896 42.7705L59.3596 42.9505C60.8196 43.0805 62.2796 43.0605 63.3996 44.1505C62.4296 44.4805 61.6896 44.1705 60.8496 44.0805C55.6296 43.5305 52.3796 43.6705 47.0696 42.9805L46.9496 46.5505C46.8496 49.2705 42.7696 46.9105 39.0996 48.0905C37.7696 48.5305 37.2296 50.4205 37.3196 51.5105C37.5596 54.1505 28.3596 52.0205 29.0596 54.6705L29.7096 57.1605L25.5496 57.4905C24.3196 57.5905 23.0096 58.5305 22.5896 59.8705C22.1696 61.1905 22.5096 62.6605 22.5796 64.2005C22.6496 65.5605 18.8996 63.8505 16.5196 65.5205C15.1796 66.4605 17.5196 68.7605 16.8796 69.0605L14.3896 68.8405C12.6896 68.7005 11.1496 69.4805 10.2296 70.9205L11.5796 73.8705C11.2396 74.1505 10.4696 74.3505 9.92962 74.2705C8.26962 74.0205 6.19962 75.0805 6.30962 76.9605C6.37962 78.0005 6.74962 79.0205 6.98962 80.1405L5.46962 80.3505C4.50962 80.4705 3.72962 80.8205 2.95962 81.5205C1.66962 82.7205 3.94962 84.5905 3.02962 85.2505C2.29962 85.7605 0.36962 85.8905 0.43962 87.2805C0.50962 88.5105 1.70962 88.4905 2.17962 89.6205C2.43962 90.2205 0.38962 89.6305 0.06962 90.5805C-0.41038 91.9505 0.46962 93.2805 1.57962 93.9605C3.29962 95.0205 5.09962 95.2305 7.06962 95.5705C14.2096 96.7905 17.1296 95.1005 24.3196 97.5105C22.7896 98.6805 21.1896 97.8405 19.6096 97.8405C16.0796 97.8305 12.6796 97.7305 9.13962 97.5005L4.71962 97.2105C3.58962 97.1405 2.22962 96.8105 1.09962 97.2005C0.36962 97.4605 0.35962 99.2405 0.53962 99.9505C1.11962 102.1 5.42962 103.07 7.03962 103.12C10.7296 103.25 14.2996 103.07 17.9096 103.59L21.5696 104.11L27.1396 105.07C31.5496 105.83 36.2496 106.28 40.6596 105.95C40.9196 105.93 41.4996 105.9 41.4696 106.1C41.2296 107.44 38.3596 108.27 37.4296 108.21C35.3896 108.09 31.0796 106.97 29.7396 106.84C26.9996 106.56 24.3396 106.63 21.5796 106.64L1.52962 106.71C0.86962 109.12 2.37962 111.42 4.70962 112.34C7.70962 113.53 11.0496 113.56 14.3896 113.46C17.0596 113.38 19.5496 113.39 22.2096 113.55C26.2296 113.78 27.2896 114.99 28.1796 115.15C32.6796 116.01 36.1396 114.65 38.7696 115.82C35.3096 117 31.9796 117.24 28.4596 116.84L19.9696 115.93C17.6296 115.68 15.4596 115.35 13.1396 115.2L7.78962 114.85C6.71962 114.78 5.07962 115.11 4.09962 115.55C2.16962 116.42 1.65962 119.12 2.62962 120.86C3.07962 121.66 4.18962 121 4.67962 122.01C4.92962 122.54 2.38962 121.98 2.10962 123.71C1.52962 127.15 6.52962 127.41 9.39962 127.6L14.6396 127.96L17.4796 128.21L22.7396 128.44L40.8096 128.59H57.0696L73.6896 128.46L79.9896 128.21L83.5496 127.89L90.6896 127.38C91.4896 127.33 92.8596 126.8 93.5696 126.4C96.2596 124.86 95.6096 119.9 94.0196 118.59C90.9996 116.11 83.6796 115.34 79.6996 115.24L71.3196 115.01C70.1996 114.99 68.5796 114.51 67.4596 114.27L63.2896 113.35C62.7596 113.26 63.1396 113.07 63.6796 112.78L65.5796 113L71.8896 113.04L91.9796 113.09C93.4996 113.09 94.5096 112.44 94.9796 110.92C95.2496 110.07 95.4496 108.38 94.7196 107.74C93.2096 107.34 91.6596 106.89 90.1796 106.74L82.8696 105.95L69.7996 104.87L64.5796 104.63L61.4096 104.38C60.0596 104.27 56.0896 104.63 57.1596 103.5C57.6696 102.96 59.2396 103.3 60.1496 103.32C64.2996 103.33 68.2596 103.45 72.4096 103.84L78.9396 104.44C81.3396 104.66 83.6196 104.73 85.9996 104.79C88.0396 104.83 95.9296 104.61 96.2996 102.4C96.7896 99.4805 87.9396 98.2505 85.9996 98.1405L74.9196 97.5105L62.4296 97.0605C62.1396 97.0505 61.6096 96.5505 61.7496 96.4405C61.8996 96.3305 62.3496 96.0405 62.5396 96.0505L68.9496 96.1105L69.4696 96.2005L71.6596 96.2805L75.0496 96.6805L81.5896 96.9305C85.8496 97.0805 89.9796 97.3105 94.2196 96.9605C95.3096 96.8705 95.9996 96.0005 96.3096 95.0405C96.5996 94.1605 96.7796 92.7505 95.6896 92.3205C94.3196 91.7705 92.6596 91.8405 91.1996 91.6105L83.7796 90.4605C83.8296 90.4205 83.9596 90.3005 84.0796 90.2105C84.1996 90.1805 84.5196 90.0905 84.5596 90.0905H86.7596L88.8696 90.0805H89.3896L93.5696 90.0905H94.0896H94.6096H95.1596C95.5696 90.0905 95.6596 90.0705 96.1496 89.9005C97.1096 88.1605 96.0996 85.7505 94.1096 85.2805C93.9596 85.2505 93.7596 85.2005 93.7196 85.1805L93.2996 85.0405L92.8196 84.8805C91.6496 85.0505 87.8596 85.6905 86.8396 84.9305L86.1896 84.4605C86.0596 84.3605 86.3496 84.0505 86.5196 84.0505L87.2796 84.0905L90.8896 84.3605C92.0596 84.4505 93.2196 84.5405 94.3596 84.3305L96.1596 83.9805C97.4496 83.7405 98.5696 82.7505 98.3396 81.5505C98.0496 80.0105 97.2596 79.3705 95.6296 79.4505C92.4396 79.6105 88.9296 78.2605 90.7396 78.2505H96.4696C97.1596 78.2305 98.0896 78.3305 98.5396 78.0005C99.6796 69.6905 101.43 65.8505 105.13 58.5905C106.26 56.3805 107.95 54.5205 109.36 52.4305C110.02 51.4405 110.93 50.7505 111.83 49.9805C112.83 49.1205 113.69 47.9205 114.78 47.1705C117.14 45.5605 119.57 44.0005 122.17 42.9105C124.04 42.1305 125.86 41.3405 127.79 40.9005L131.89 39.9305C136.49 38.8405 142.61 38.4105 147.43 38.2205C157.2 37.8305 154.12 38.7205 161.54 39.7705C163.41 40.0405 165.83 36.3605 166.58 37.5505C167.22 38.5705 165.37 39.4905 166.06 40.7905C167.65 41.5605 169.88 39.9205 171.92 39.6705C175.97 41.1505 178.48 43.2305 182.9 44.4205C183.73 44.0905 184.35 43.8405 185.13 43.5805C186.62 43.0905 186.57 46.2205 187.96 46.8405C189.5 47.5405 190.44 46.2105 192.87 45.9405C194.32 45.7805 194.9 50.2905 197.8 49.4905L200.02 48.8905C200.23 48.8205 200.74 48.6805 200.71 48.8405L200.61 49.4805C200.52 50.0305 199.77 50.1805 200.02 51.6805C200.11 52.1605 201.09 52.4705 201.66 52.5205L203.65 52.7305C204.05 52.7605 204.77 52.9805 205.04 53.2105C205.32 53.4405 205.4 54.2905 205.37 54.6805L205.34 55.3305C205.32 55.6105 205.45 56.2505 205.61 56.4605C206.24 57.3005 209.18 56.2705 209.88 56.1205L212.51 55.5305C212.69 55.4905 213.03 55.7405 213 55.8905C212.97 55.9905 212.91 56.3905 212.85 56.4705L211.77 57.6605C211.77 57.6605 211.59 58.1505 211.57 58.2305C213.4 61.5405 217.07 59.3205 217.43 60.7905C216.58 62.0205 216.54 63.5705 217.92 64.5805C218.66 65.1105 220.4 65.3405 221.29 65.3105C222.35 65.8105 220.58 66.9905 221.31 68.2105C221.57 68.6305 222.41 69.1005 222.95 69.0805L227.93 68.8705C227.78 69.3205 227.62 69.7105 227.49 69.7505L225.22 70.6305C225.01 70.7105 224.7 71.1005 224.65 71.3205C224.37 72.5705 227.91 73.9705 229.06 74.6305L228.41 77.6805C228.81 80.2705 229.64 82.5805 231.17 84.6405C232.22 86.0705 233.96 85.3605 233.87 85.9305C233.72 86.8305 232.78 86.4405 231.04 87.7105C230.43 88.1605 230.6 89.5205 231.07 90.0505C232.33 91.5205 235.01 91.0705 237.2 90.6805L241.44 89.9205C241.73 89.8705 242.33 90.5605 242.13 90.7505C240.04 92.5005 236.4 91.5005 233.39 92.8405C231.22 93.8105 231.48 97.9905 232.16 98.4105C232.8 98.8105 234.63 98.2105 236.52 97.9405L241.76 97.1805L247.18 96.3005C248.51 96.0805 248.78 96.0005 250.13 96.1205C250.24 96.1305 249.98 96.6105 249.88 96.6405L248.15 97.1605L236.86 100.53L235.12 101.12C234.22 101.42 232.98 101.54 232.27 102.24C231.56 102.93 231.37 104.57 231.84 105.48C232.2 106.18 233.67 106.43 234.41 106.34L238.44 105.87C240.19 105.66 241.89 105.39 243.66 105.1L249.54 104.13L255.04 103.3C257.47 102.93 258.64 103.5 257.52 103.72L253.94 104.48L242.47 107.13L238.25 108.1C237.3 108.32 236.59 108.61 235.85 109.22C234.87 110.04 230.71 113.66 232.16 114.9C233 115.61 235.56 115.32 236.73 115.07L240.87 114.19L244.31 113.47C246.4 113.02 248.49 112.75 250.65 112.67L257.58 112.45V113.15L254.13 113.87L249.22 114.92L245.74 115.66L242.29 116.41L238 117.35C236.93 117.59 235.68 117.84 234.69 118.22C233.72 118.6 233.44 120.43 232.96 121.21C232.46 122.02 231.88 123.31 232.64 123.99C234.6 124.08 236.7 124.29 238.6 123.96L243.92 123L248.72 122.07C250.69 121.68 252.54 121.46 254.58 121.34C255.54 121.29 257.09 120.95 257.81 121.7C257.94 121.83 258.02 122.37 257.83 122.39L256.86 122.53L253.42 123.01L247.75 123.86L242.58 124.75L238 125.59C236.5 125.87 232.87 126.51 232.02 127.49C231.67 127.89 231.65 128.68 231.65 129.34C231.65 130.6 232.37 131.9 233.85 131.98C236.7 132.12 239.64 132.28 242.5 131.78L245.75 131.21C247.43 130.9 249.03 130.74 250.72 130.46L255.91 129.59L262.73 128.55C264.99 128.21 266.74 128.85 265.34 129.13L261.95 129.78L249.58 132.54L245.35 133.48L241.46 134.35L237.61 135.22C236.02 135.58 234.31 135.74 232.81 136.56C231.88 137.06 231.62 138.8 231.63 139.86C231.65 141.7 236.61 140.99 238.13 140.9C240.6 140.75 242.97 140.43 245.43 140.08L252.76 139.05C253.82 138.9 254.88 138.96 256.07 139.04C255.26 139.89 254.41 139.74 253.51 139.93L247.34 141.28L242.84 142.28C240.23 142.86 235.54 142.27 233.06 143.47C231.52 144.2 231.69 145.86 232.11 147.13C232.4 148.01 232.82 148.6 233.63 148.87C235.34 149.42 236.67 147.95 238.15 147.95L258.87 147.84L259.17 148.3C257.58 149.35 256.21 149.36 254.52 149.6L248.09 150.48L244.36 151.05L237.82 151.9C235.13 152.25 232.64 151.8 231.98 152.84C231.62 153.4 231.77 154.21 231.95 154.91C233.15 159.85 240.77 156.33 244.31 156.3L259.52 156.21C261.77 156.2 264.5 156.89 261.84 157.22L254.86 158.11C252.31 158.44 249.96 158.61 247.46 158.84L242.33 159.31L236.93 160.21L234.91 160.74C233.89 161.02 232.65 161.52 232.22 162.23C231.6 163.22 231.46 164.61 232.07 165.51C232.46 166.09 233.37 165.9 233.95 165.9L250.36 165.87C251.2 165.87 251.8 165.96 252.88 166.07L252.86 166.58L249.67 167.19C241.91 168.66 242.97 167.35 236.54 167.94C235.84 168.01 234.58 168.6 233.98 168.99C232.07 170.22 231.51 173.28 231.96 173.82C232.78 174.76 235.1 174.78 236.53 174.78C239.96 174.77 243.3 174.9 246.67 174.67L251.02 174.35L260.05 174.19C261.16 174.17 261.62 173.49 262.85 174.57C263.91 175.5 258.62 175.57 258.47 175.58L246.94 176.33C243.68 176.54 240.54 176.79 237.29 177.27C235.69 177.51 234.14 177.54 232.76 178.57C232.15 179.01 231.55 180.35 231.64 181.11C231.8 182.61 233.32 183.5 234.71 183.57C238.39 183.79 241.8 183.44 245.52 182.96C246.7 182.81 258.54 182.01 257.69 183.19C256.57 184.75 250.19 185.13 248 185.11C243.98 185.06 240.05 185.02 236 185.44C235.52 185.48 232.59 186.49 232.33 187.79C232.12 190.14 232.57 192.52 233.04 194.81C233.29 196.08 232.48 198 231.02 197.82C229.54 197.65 228.17 196.35 227.04 195.44L224.26 193.21C222.52 191.81 217.95 187.98 215.97 189.27C213.74 190.71 215.47 194.95 216.87 196.94L220.6 202.2C220.5 202.42 220.33 202.57 220.05 202.68L207.2 195.38C204.91 194.08 201.37 192.06 198.88 191.96C198.17 191.94 197.57 193.41 197.74 194.04C198.25 195.97 199.31 197.37 200.69 198.82L205.77 204.13C205.92 204.29 205.97 205.08 205.81 205.04L205.18 204.92C203.09 204.52 201.18 203.5 199.28 202.48L188.76 196.79C188.26 196.53 187.47 196.32 186.85 196.07C184.95 195.33 181.3 195.51 181.69 197.73C181.89 198.9 183.29 200.27 184.28 201.06L190.94 206.37C191.09 206.49 191.3 206.99 191.16 207.08C191.02 207.17 190.55 207.29 190.38 207.22L188.1 206.37L174.76 200.87L172.05 199.9C170.83 199.47 168.28 198.64 167.19 199.37C166.5 199.83 167.57 202.81 168.91 203.88C169.93 204.71 170.86 205.41 172.05 206.04C172.48 206.27 177.93 209.1 177.05 209.7C176.28 210.22 173.94 209.45 172.89 209.06L158.64 203.71C157.76 203.37 156.78 203.27 155.8 203.03C155.04 202.85 154.1 203.17 153.5 203.64C153.09 203.98 152.5 205.06 152.78 205.62C153.42 206.9 154.76 207.62 155.97 208.23L159.11 209.83L162.89 211.87L162.43 212.53C161.01 212.4 159.93 212.18 158.66 211.8L155.46 210.84L146.84 207.84L143.65 206.82C142.29 206.38 140.65 205.83 139.31 206.55C138.92 211.88 142.59 212.27 145.89 213.34C146.3 213.47 148.32 215.2 146.82 214.82L143.2 213.89L140.37 213.04L137.55 212.16L134.77 211.28L131.96 210.47C130.43 210.03 129.15 209.66 127.45 209.87C127.43 212.86 126.49 215.14 129.39 215.71C130.43 215.91 135.08 216.7 135.1 218.06C133.64 217.82 132.19 217.48 130.63 217.07L126.96 216.09L123.64 215.21L120.52 214.38C119.59 214.13 118.35 213.82 117.37 213.86C115.59 213.93 115.07 216.19 115.78 217.53C116.02 217.98 116.1 218.84 116.02 219.35C113.15 219.51 114.34 218.82 110.09 218.43C108.41 218.28 106.58 218.11 105.03 218.79C103.53 219.45 103.65 221.31 104.2 222.55C104.98 224.27 101.09 223.15 100.87 223.12L97.8396 222.6C96.6496 222.39 95.2396 222.36 94.2796 223.21C93.5996 223.82 93.3296 224.9 93.5096 225.77C93.7496 227.03 95.2796 227.25 95.8996 227.56C96.0196 227.63 95.4996 228.01 95.3396 227.99C92.4696 227.56 89.2596 227.29 86.3396 227.09C85.6496 227.05 84.6196 226.73 84.1896 227.23C83.5996 227.94 83.6996 229.11 84.1396 229.91C84.9896 231.45 86.8796 231.25 88.1796 232.35C87.8596 232.85 87.8096 232.93 87.6896 233.03C85.7896 232.64 84.5096 232.38 82.9196 231.89L80.1096 231.01C79.1096 230.7 77.4396 230.5 76.4596 230.76C74.8596 231.17 74.8396 233.2 75.4596 234.33C75.5896 234.57 75.0396 235.16 74.7696 235.16L72.1396 235.13C70.1596 235.12 68.1396 235.33 66.5696 236.59C65.7096 237.3 66.0896 238.89 67.1296 239.37L69.3396 240.39C69.4696 240.46 69.4896 241.02 69.4496 241.16C69.4196 241.25 69.1096 241.36 68.9896 241.34L64.8496 241.23C63.0596 241.18 61.3496 240.75 59.5896 241.38C58.8396 241.65 58.5396 242.89 58.1296 243.58C57.0596 245.38 53.1896 244.32 51.7596 246.79C51.3196 247.52 51.2996 248.76 51.8096 249.38C52.4296 250.14 54.0396 249.7 53.8196 250.57C53.5296 251.7 45.5896 249.4 45.1596 252.49C44.9396 253.99 47.1796 255.6 45.2296 255.63L40.0796 255.7C39.1896 258.53 42.2396 260.48 39.5596 260.5L33.8796 260.52C33.3796 261.65 35.4696 265.11 34.0696 265.06C32.2896 264.99 30.9496 265.18 29.5396 266.18V268.82C29.5496 269.34 29.4396 270.22 29.1296 270.52C28.0796 271.48 26.3396 270.49 25.3596 272.08C24.5796 273.37 26.7796 275.49 25.5596 275.84C24.7896 276.06 23.8596 276.07 23.2696 276.33C21.3096 277.22 20.1496 279.17 19.4096 281.15C18.0196 284.92 19.7696 288.32 18.1596 287.99C16.2696 287.62 13.9596 288.61 14.1896 289.65C14.5996 291.45 16.0796 292.62 17.3796 293.81C17.3996 293.93 17.4396 294.23 17.4596 294.32L14.4996 295.19L12.5496 295.77C12.4596 296.16 12.7196 297.03 12.9996 297.33L15.0596 299.6C14.0796 300.5 9.94962 298.74 9.70962 301.48C9.57962 302.9 9.70962 304.55 9.11962 305.86C8.69962 306.8 7.66962 307.55 7.32962 308.54C6.91962 309.74 9.51962 310.501 9.10962 310.951L8.66962 311.41C8.12962 311.99 7.72962 312.55 7.35962 313.34C6.88962 314.31 6.98962 316.11 8.34962 316.46C10.8296 317.09 13.4396 314.97 14.2996 317.13L8.34962 317.83C7.56962 317.93 6.63962 318.58 6.24962 319.1C5.78962 319.7 5.61962 320.89 6.11962 321.58C6.51962 322.17 7.65962 322.331 8.41962 322.421L10.6796 322.671C10.8096 322.681 11.1896 322.97 11.3096 323.04C11.7596 323.29 4.98962 324 5.12962 326.59C5.23962 328.52 8.72962 329.29 8.40962 329.58C7.01962 330.82 4.91962 331.38 4.26962 333.52C4.12962 334 4.61962 334.88 4.99962 335.18C5.36962 335.47 6.32962 335.63 6.81962 335.54L12.2896 334.6L15.6796 333.84L19.4796 332.921L22.8296 332.08L26.3796 331.19L29.7396 330.34L34.1296 329.32C35.4396 329 36.8096 328.17 38.2296 329.08L10.8396 338.02C8.03962 338.92 6.58962 338.97 5.27962 342.28C4.91962 343.21 5.86962 344.59 6.84962 344.63C8.20962 344.68 9.49962 344.21 10.7796 343.88L14.0796 343.04L17.8496 342.08L21.1996 341.24L24.6996 340.36L27.8596 339.55L31.7896 338.55L34.9296 337.74L38.0696 336.94L40.8196 336.23C41.8096 335.98 42.8996 335.38 43.9296 336.03L9.70962 350.21C8.60962 350.67 7.27962 350.94 6.68962 352.03C6.18962 352.94 7.08962 355.43 8.14962 355.47L12.0796 354.76C13.2596 354.55 14.4896 354.19 15.6196 353.87L18.2496 353.09L21.2096 352.15L33.1796 347.921L36.3496 346.9L38.9896 346.141C41.2996 345.481 43.5996 345.01 45.9496 344.54C46.1296 345.01 46.2096 345.23 46.1296 345.11L44.2896 345.96L38.8596 348.36L23.5596 354.48C19.3696 356.15 15.4296 357.99 11.5196 360.18C9.87962 361.11 6.89962 363.54 7.73962 365.49C8.38962 367.02 11.8996 366.45 12.7196 366.19L15.1196 365.43C20.8296 363.61 26.1296 361.18 31.5796 358.66C36.8796 356.22 42.0196 353.99 47.5096 352.1C48.3196 351.82 49.0996 351.601 49.8996 351.891C37.4996 359.991 24.2296 364.09 11.9596 371.93C11.4696 372.25 10.9896 373.05 10.9396 373.52C10.8696 373.98 11.2096 374.85 11.5596 375.11C13.1696 376.32 14.8096 376.1 16.5296 375.51C17.6796 375.11 18.8796 374.81 20.0396 374.32C29.0596 370.46 36.7496 364.54 45.9896 362.07C46.1696 362.03 46.6396 362.18 46.7996 362.23C47.9896 362.72 37.5096 368.78 36.5796 369.25L27.6696 373.75C24.6396 375.27 15.2296 379.95 14.6796 383.25C14.4096 384.88 16.2296 385.76 17.5296 385.75C18.9396 385.73 20.0496 385.501 21.2496 384.951C23.1296 384.101 24.9196 383.28 26.7196 382.24L40.2596 374.391L44.4296 372.26C45.4596 371.74 46.2996 371.25 47.5096 371.38C45.7896 374.25 38.8396 378.27 36.0696 379.79L31.1696 382.5C27.0796 384.77 23.1896 387.24 19.8796 390.5C18.9296 391.45 18.5396 393.441 19.7596 394.201C21.9896 395.581 30.5596 390.35 32.9296 388.99L45.2396 381.951C45.9696 381.541 46.7196 381.25 47.5496 381.69C44.8196 384.12 42.0596 385.95 39.1396 387.83L33.5696 391.421C31.3296 392.861 29.2796 394.36 27.1896 396.04C25.7796 397.16 24.5496 398.52 23.7296 400.22C23.3896 400.91 24.2196 402.56 24.8596 402.96C26.0796 402.67 27.4896 402.38 28.5496 401.87C37.0496 397.84 44.3696 391.89 52.8196 387.33C52.6596 388.81 51.3796 389.42 50.4096 390.22L43.5196 395.9C40.6896 398.23 37.7996 400.11 34.6096 401.88C29.0696 404.96 29.6996 409.82 30.8296 409.94C32.3396 410.11 36.4096 408.09 38.0896 406.97C45.4496 402.06 51.0696 397.2 58.6096 392.74L59.8196 392.891L54.0496 398.08L49.0196 402.49C46.3696 404.8 43.7996 406.93 40.7296 408.79C39.6396 409.44 38.1596 410.18 37.5596 411.34C36.8096 412.79 36.8496 416.86 38.4096 417.05C39.8196 417.21 44.5896 413.87 45.9596 412.71L54.2196 405.76C56.7996 403.58 59.9896 401.24 62.9296 399.79C63.0796 399.71 63.8996 399.71 63.8496 399.84C63.7796 399.97 63.5996 400.44 63.4796 400.56L60.5196 403.32L48.8496 412.671C47.4796 413.771 41.8396 418.63 43.8696 420.52L44.8096 421.391C46.4796 422.941 49.0696 420.37 50.3796 419.46C53.4696 417.33 56.2996 415.02 59.1496 412.57L64.0996 408.34L69.2796 404.13C69.6496 403.84 74.5196 399.6 74.7196 400.77C74.7796 401.12 74.2396 401.71 73.9696 401.98L66.0796 409.78L59.8296 415.29L52.6496 421.24C52.1396 421.67 52.0496 422.48 51.9896 423.26L51.7096 426.69C51.6896 426.97 52.0596 427.621 52.3196 427.641C52.5796 427.651 53.2396 427.61 53.4696 427.48L54.3596 426.99C55.7796 426.22 59.5696 423.25 61.0496 422.01L64.0396 419.52L72.6796 411.951L75.5696 409.3L79.6396 405.4C79.8496 405.19 80.6796 404.93 80.9296 405.03C81.1596 405.12 80.8896 405.81 80.7096 405.99L80.0096 406.65L79.7096 406.94L77.7396 408.91L70.8996 415.88L65.8696 421.06L62.8496 424.07C62.7696 424.13 62.6696 424.25 62.5796 424.35L59.7996 427.46C59.7496 427.51 59.4396 427.73 59.3996 427.79C58.7396 428.63 59.1296 430.12 60.2996 430.86C61.0396 431.34 62.4196 431.33 63.2596 430.79C65.8796 429.15 68.1096 427.35 70.2996 425.27L72.7296 422.97L76.1296 419.55L77.6696 418.26L82.4096 413.52C82.9696 412.96 83.9996 412.08 84.7296 411.98C86.3496 411.87 80.8096 418.24 80.5696 418.52C79.5596 419.69 78.4996 420.8 77.3296 421.82C74.0596 424.72 68.9896 429.65 67.3996 433.52C67.0296 434.41 68.3696 435.36 69.0696 435.46C70.8396 434.85 72.4996 434.131 73.7496 432.891L79.5596 427.171L81.1996 425.71L87.1696 419.88L94.1396 413.03C94.2896 412.88 94.8596 412.82 94.9996 412.96C95.2396 413.21 94.8896 413.72 94.6496 414L82.7196 427.44L76.3896 434.61C76.3096 434.69 75.9896 434.91 75.9796 434.96L75.6796 436.4C75.4596 437.44 79.1296 438.44 82.1296 435.52L86.9496 430.84L97.3796 420.74C97.4896 420.64 97.8896 420.35 98.0396 420.23C98.1396 420.15 98.2296 420.521 98.1696 420.641L97.9896 421.08L97.8396 421.451C97.2796 422.781 91.8296 429.07 90.5196 430.57L90.2696 430.86C90.1996 430.94 90.1196 431.04 89.9996 431.19C88.6596 432.93 84.0396 438.461 86.0096 440.391C86.9296 441.281 88.1196 440.55 88.9696 439.79C91.6196 437.38 93.9896 434.91 96.3696 432.24L99.5696 428.641C99.9096 428.261 104.53 423.08 104.61 424.77L104.64 425.34C104.66 425.81 102.88 427.38 102.22 428.15L97.9596 433.08C96.4996 434.78 95.3096 436.65 94.4296 438.69C93.8496 440.02 94.3396 441.27 95.5596 442.06C96.1096 442.41 97.0796 442.58 97.7296 442.43C98.2196 442.31 98.6096 441.37 98.9996 440.94L102.25 437.36L108.25 430.03L110.21 427.75C110.42 427.51 111.02 427.06 111.3 426.93C111.55 426.81 112 427.56 111.85 427.79L111.24 428.76C111.24 428.76 110.9 429.02 110.86 429.05L109.54 430.54C109.49 430.59 109.37 430.77 109.3 430.84C107 433.74 104.54 436.32 103.07 439.77C102.79 440.42 102.98 441.93 103.58 442.27C104.92 443.01 106.65 442.58 107.7 441.53C108.57 440.66 109.56 439.82 110.28 438.87L113.68 434.41L115.5 432.02C115.89 431.51 116.58 430.64 117.22 431.03C117.82 434.55 109.62 438.35 112.39 441.86C113.4 443.15 115.13 442.28 115.77 441.72C120.92 437.26 122.3 434.01 125.65 430.63L126.46 429.82C126.62 429.66 127.08 429.68 126.99 429.97C126.9 430.26 126.81 430.62 126.77 430.69L124.5 434.24C123.26 436.19 122.05 438.09 121.4 440.3C121.02 441.61 122.72 442.61 124 442.41C127.86 441.82 129.61 434.58 133.63 430.72C133.81 430.54 134.34 430.94 134.33 431.19C134.32 431.28 134.26 431.84 134.22 431.9L131.69 435.66C130.62 437.24 130.57 439.44 131.89 440.59C133.31 441.82 136.16 438.43 136.86 437.49L139.09 434.46L139.96 433.27C141.22 433.11 139.02 436.51 139.56 439.13C140.01 441.3 145.25 438.691 146.59 434.171C146.78 433.551 146.6 433.08 147.1 432.75C147.25 432.65 147.68 432.9 147.72 433.08L147.91 433.86C147.91 433.91 147.82 434.21 147.79 434.33L147.66 434.84C147.57 435.2 147.7 436.1 148.03 436.3C152.86 439.11 156.34 428.6 156.74 429.75L157.03 430.63C157.03 430.63 157.08 430.92 157.11 431.04L157.2 431.56C157.25 431.89 157.57 432.52 157.83 432.68C157.88 432.71 158.44 432.76 158.6 432.75C161.89 432.55 164.19 429.35 164.79 426.05L165.37 425.82L168 427.85C168.41 428.18 169.31 428.87 169.86 428.35C170.25 427.47 170.65 426.52 170.99 425.58L171.84 423.29L172.82 420.58C172.91 420.33 173.21 419.87 173.39 419.72C173.57 419.58 174.07 419.81 174.15 420.03C174.67 421.37 173.57 422.791 174.6 423.641C176.11 424.901 178.46 423.71 179.54 422.1C181.38 419.36 181.25 416.22 182.1 416.21C182.27 416.21 182.6 416.58 182.62 416.77L182.65 417.25L182.68 417.75C182.71 418.09 182.68 418.35 182.84 418.66L183.03 419C183.55 420 185.35 419.73 185.72 419.41L186 419.18C187.09 418.28 188.41 415.22 188.87 413.96L189.03 413.49C189.03 413.49 189.13 413.281 189.18 413.171L189.35 412.82L189.52 412.46L189.59 412L189.68 411.5C189.73 411.23 190.01 410.63 190.26 410.5C190.47 410.39 191.02 410.67 191.06 410.9L191.21 412.04C191.31 412.72 191.57 413.38 192.08 413.55C195.61 414.73 196.46 409.451 196.75 407.391L196.83 406.87C196.88 406.5 197.26 405.73 197.56 405.52C198.5 404.87 198.97 408.36 200.68 408.33C201.45 408.32 202.41 407.58 202.98 406.74C204.55 404.43 204.23 400.011 204.9 400.201L207.2 400.891C209.42 401.561 210.91 399.65 211.27 398.21L212.12 394.79C212.74 392.31 214.83 394.19 217.63 393.26C218.65 392.92 219.33 391.07 219.33 390.08V386.171C220.29 386.191 220.83 386.621 222.51 386.921C224.5 387.281 226.25 385.34 226.27 383.4L226.31 379.86C226.31 379.52 226.32 379.14 226.34 378.93C226.45 377.87 230.93 380.79 231.15 378.8L231.95 371.6C232 371.09 232.25 370.6 232.52 370.63L233.56 370.8C233.56 370.8 233.87 371.05 233.91 371.07L236.23 372.3C236.31 372.33 236.8 372.25 236.89 372.23C237.15 370.72 237.43 369.29 237.58 367.68L238.01 362.61C238.03 362.44 238.63 361.901 238.76 361.951L240.79 362.54L244.21 363.56L246.62 364.29L249.87 365.27L288.6 376.94L291.85 377.94L294.5 378.72L297.73 379.65C297.92 379.7 298.36 379.91 298.54 379.99C298.7 380.07 298.83 380.57 298.66 380.58H297.54C297.49 380.59 297.2 380.66 297.07 380.68L296.63 380.76C296.56 380.77 292.54 380.55 291.46 380.54L273.71 380.31L259.92 380.35C259.82 380.35 259.52 380.36 259.44 380.37L253.47 381.51C250.87 382.01 248.91 381.93 246.19 381.69C243.07 381.42 240.03 381.61 236.91 381.96C235.83 382.08 233.29 382.28 233.23 384.02C233.18 385.22 234.12 386.94 235.59 386.94H313.77C313.32 387.89 312.7 387.94 311.94 388.25L283.36 399.63L281.89 400.22L246.03 414.54C244.76 415.05 243.93 416.871 243.74 417.951C243.35 420.251 248.61 419.89 250.25 419.4L252.89 418.61L255.71 417.77L259.13 416.75L261.29 416.04L263.81 415.171L276.42 410.53L293.61 404.01L303.76 400.56L306.35 399.75L309.01 398.951L316.39 397.05C316.57 397.01 316.95 397.46 316.85 397.5C316.67 397.58 316.29 397.71 316.04 397.87L302.1 407.13L276.99 423.84L273.05 426.46L269.12 429.07L268.83 429.28L268.52 429.51L268.19 429.74C266.46 430.95 265.64 430.97 265.6 432.63L265.58 433.19C265.56 434.17 266.05 435 266.8 435.63C267.72 436.4 268.6 436.09 269.56 435.55L283.64 427.66L316.62 409.19L327.45 403.1C327.41 403.7 327.36 403.75 327.09 403.98L298.54 428.4L296.83 429.86L295 431.43C294.32 432.01 293.51 432.66 293.04 433.36C292.05 434.84 292.51 436.36 293.73 437.5C294.03 437.79 294.92 438.22 295.41 438.18L303.47 432L303.94 431.63L304.27 431.37L304.6 431.12L304.89 430.891L312.89 424.73L342.71 401.76C343.29 401.31 343.84 401.881 343.69 402.421C343.31 403.721 342.63 403.86 342.06 404.53L335.3 412.41L331.8 416.48L328.18 420.68L321.24 428.701C320.71 429.321 320.22 429.89 320.47 430.73C320.8 431.79 320.96 433.01 321.85 433.61C322.27 433.89 323.53 433.82 324.01 433.47C328.42 430.22 332.52 426.331 336.12 422.141L347.11 409.34L352.05 404.07C352.79 403.28 353.4 402.59 354.28 401.85L357.34 399.31C357.7 399 358.33 399.81 358.2 400.04L357.48 401.25C355.32 404.89 345.88 421.5 346.01 424.79L346.03 425.35C346.04 425.65 346.04 426.51 346.33 426.56L347.63 426.76C350.54 427.22 357.32 417.54 358.78 415.22L366.27 403.391C368 400.651 369.85 398.191 371.9 395.701L372.52 394.94C372.63 394.81 373.14 394.92 373.15 395.08C373.18 395.42 373.12 396.13 373.06 396.41L372.12 401.24L371.23 405.09L370.38 408.641L369.55 412.28C369.19 413.87 368.71 415.38 368.97 416.93C372.49 417.99 374.1 414.92 374.88 412.29L375.72 409.49L376.58 406.19L377.39 402.8L378.34 398.25L379.18 393.65L379.9 389.02C380.3 386.39 380.53 383.61 380.03 381.02C379.86 380.09 378.22 380.19 377.71 380.54C376.4 381.4 375.37 382.491 374.55 383.701L371.05 388.9C370.79 389.29 369.99 389.99 369.82 389.48C369.39 388.19 370.54 387.28 371.07 386.3C371.75 385.04 371.82 383.64 370.66 382.75C370.36 382.51 369.99 382.25 369.76 382.12C369.58 382.01 369.03 382.34 368.83 382.5L365.27 385.41C364.86 385.76 364.55 385.991 364.17 386.421L363.92 386.701C363.76 386.891 363.08 387.29 363.03 387.06L362.8 386.15C362.79 386.08 362.82 385.76 362.84 385.59L362.91 385.1L362.98 384.62L363.05 384.171C363.12 383.711 363.2 383.94 363.01 383.31C361.63 382.17 358.11 383.51 357.39 384.3L357.13 384.58L356.88 384.85L356.63 385.11L356.36 385.391C356.14 385.611 355.38 386.27 355.24 386C355.11 385.74 354.9 385.14 354.83 384.86L354.7 384.34C354.54 383.73 353.94 382.87 353.28 382.88C352.32 382.9 351.42 382.98 350.74 383.32L347.53 384.94C345.04 386.21 343.3 381.63 339.43 383.28L335.03 385.171C334.06 385.581 333.35 385.2 332.85 384.27L331.83 382.36C331.58 381.89 330.27 381.61 329.67 381.61L323.68 381.57C322.97 381.56 321.99 381.32 321.25 381.21C316.9 380.58 318.05 375.85 315.21 374.18C313 372.87 310.66 371.97 308.2 371.24L305.54 370.43L302.72 369.65L298.95 368.68L295.62 367.83L292.26 367L288.7 366.07L285.61 365.19C285.19 365.07 284.57 362.79 290.82 364.36L294.76 365.35L297.9 366.141L301.05 366.94L305.23 367.96L308.61 368.72L312.79 369.57C313.9 369.79 317.39 370.44 317.59 369.03C318.05 365.98 317.21 364.51 314.59 363.81L311.72 363.05L308.43 362.15L305.57 361.36L301.9 360.34L299.03 359.56L291.36 357.44L287.67 356.43C286.33 356.06 283.6 355.62 284.26 354.98L284.97 354.28C284.97 354.28 285.43 354.201 285.49 354.201H286.02L286.56 354.19C286.67 354.19 287.02 354.21 287.09 354.22L291.22 355.07C291.31 355.08 291.71 355.1 291.78 355.13L295.52 356.08L299.65 357.13L303.81 358.19L306.29 358.671C309.72 359.331 313.02 359.51 316.56 359.41C316.76 359.41 317.12 359.32 317.26 359.24C317.6 359.05 317.5 356.6 317.27 355.61C317.15 355.09 315.72 354.96 315.2 354.79L312.18 353.9L308.91 352.951L306.09 352.141L302.85 351.201L300 350.36L297.35 349.59L293.55 348.5L287.23 346.74C287.2 346.62 287.12 346.41 287.12 346.41C287.38 346.28 287.63 346.15 287.68 346.15H289.4C289.55 346.14 289.75 346.161 289.93 346.171L290.46 346.201L290.97 346.23L291.46 346.25C291.55 346.25 291.78 346.28 291.83 346.29L292.31 346.391L292.77 346.48L293.19 346.57L293.63 346.68L294.03 346.78L294.47 346.891C294.59 346.921 294.81 346.98 294.87 346.98L295.34 347.04L295.77 347.08L296.22 347.13L296.71 347.201L297.22 347.27C297.3 347.27 297.57 347.34 297.62 347.36L298.03 347.48L298.42 347.6L298.83 347.72L299.28 347.85C299.33 347.87 299.59 347.92 299.64 347.93L300.13 347.98L300.62 348.05L301.1 348.12L301.52 348.171L301.9 348.31L302.28 348.44L302.66 348.57L303.06 348.72C303.13 348.74 303.39 348.76 303.51 348.77L303.98 348.84L304.43 348.9L304.89 348.951C305.07 348.971 305.54 349.09 305.71 349.15L306.13 349.3L306.52 349.43C306.64 349.47 306.86 349.55 306.91 349.55L307.38 349.62L307.83 349.69L308.26 349.76L308.76 349.83C308.84 349.84 309.03 349.88 309.19 349.93L309.58 350.04L309.98 350.16L310.38 350.29L310.83 350.43L311.64 350.61L312.12 350.641L312.64 350.671L313.14 350.701L313.59 350.74L314 350.77L314.4 350.8C314.4 350.8 315.22 350.67 315.25 350.66L315.66 350.51C315.71 350.5 315.93 350.34 315.98 350.3L316.27 350.05L316.55 349.81L316.86 349.57C317.11 349.35 317.14 349.29 317.31 348.96L317.48 348.61L317.64 348.27C317.76 348.04 317.92 347.7 317.93 347.44V346.921C317.94 346.701 317.72 346.29 317.57 346.15L317.31 345.9C316.84 345.47 316.88 345.5 316.31 345.29L315.93 345.15L315.55 345.01L315.18 344.87L314.81 344.72L314.43 344.57C314.35 344.54 314.14 344.52 313.99 344.48L313.57 344.391C313.44 344.361 313.23 344.32 313.18 344.3L312.6 344.06L287.92 338.04L287.14 337.87L288.12 337.15C288.12 337.15 288.5 337.05 288.58 337.04L288.99 336.951L289.45 336.85C289.55 336.83 289.74 336.8 289.87 336.78L290.41 336.72L290.93 336.65C291 336.64 291.49 336.58 291.64 336.62L307.47 339.94L308.02 340.05C308.11 340.07 308.3 340.1 308.44 340.13L308.96 340.201L309.45 340.27C309.84 340.32 309.9 340.331 310.28 340.451L310.68 340.58L311.07 340.701L311.48 340.82L311.88 340.93C311.98 340.95 312.2 340.95 312.36 340.97L312.85 341.02L313.3 341.07L313.74 341.12C315.29 341.33 317.27 340.48 317.4 339.22C317.77 335.91 310.82 333.66 308.18 333L303.6 331.85L303.21 331.72L301.76 331.391H301.75C301.75 331.391 301.14 331.3 300.83 331.24L296 330.22L292.34 329.48L283.52 327.53C284.12 327.13 284.94 327.01 285.71 327.08L294.06 327.891C295.2 328.001 296.3 328.02 297.42 328.21C302.55 329.1 302.88 328.49 309.3 329.96L312.53 330.69C313.77 330.97 318.18 331.7 318.22 329.63C318.24 327.41 316.27 325.84 314.19 325.19L311.86 324.47L309.31 323.83L305.11 322.84L300.82 321.94L296.91 321.12L292.2 320.13L288.48 319.36L284.6 318.52C283.71 318.32 283.06 318.14 282.05 317.68C283.11 316.69 289.75 317.85 291.28 318.08L296.07 318.81L299.8 319.37L305.47 320.27C307.37 320.56 309.14 320.83 311.04 320.97L314.42 321.22C315.48 321.3 316.51 321.44 317.59 320.59C318.63 319.77 317.58 316.371 313.5 315.391L309.91 314.52L305.85 313.671L301.25 312.72L297.38 311.921L292.84 310.951L289.51 310.16C289.33 310.12 288.84 309.86 288.7 309.75C288.48 309.61 288.84 309.17 289.17 309.11L290.18 308.891C290.27 308.871 290.53 308.86 290.68 308.85L291.18 308.81C293.78 308.61 299.18 309.57 301.88 310.13C307.37 311.27 306.68 311.18 312.47 311.62C313.6 311.71 315.54 311.38 316.59 311.28C317.79 311.16 318.09 308.61 317.07 307.78C315.66 306.65 314.17 306.17 312.53 305.69L310.29 305.05L308.07 304.47L304.49 303.62L299.78 302.61L296.07 301.86L291.9 301.03L289.19 300.51L284.79 299.66L280.45 298.84L276.66 298.12L275.82 297.96C275.65 297.93 275.21 297.65 275.37 297.59C277.71 296.53 286.83 298.19 287.14 298.16L287.98 298.09L293.25 298.94L300.09 300L305.02 300.71L309.55 301.16L311.77 301.41C313.11 301.55 314.34 301.64 315.64 301.15C316.47 300.83 317.37 300.311 317.56 299.671C318.76 295.631 311.12 294.11 308.16 293.59L302.77 292.63L297.02 291.85L289.92 290.9L284.75 290.04L280.85 289.25C279.73 289.03 278.62 288.53 277.57 288.03C278.77 287.66 279.73 288.01 280.82 288.11L288.05 288.82L294.82 289.68C297.22 289.98 299.48 290.18 301.87 290.43L307.47 291.02L316.31 291.12C317.63 291.14 318.02 288.971 317.25 287.421C316.83 286.561 315.78 286.09 314.7 285.79L311.21 284.81C310.08 284.49 308.95 284.22 307.8 284.01L302.24 283.04L298.47 282.49L292.24 281.73L285.63 280.921C283.4 280.651 280.4 280.24 278.34 279.79C278.16 279.75 278.23 278.961 278.43 278.921L279.23 278.75C280.15 278.54 285.64 279.04 286.99 279.22L293.74 280.07L300.06 280.78L305.63 281.46C309.24 281.9 312.96 281.77 316.55 281.69C316.95 281.69 317.72 280.98 317.76 280.61C317.94 279.06 317.15 277.22 315.66 276.58C313.39 275.62 311.18 275.12 308.71 274.72L303.73 273.921L297.5 273.09L289.65 272.08L283.81 271.33C282.02 271.1 279.67 270.83 278.21 270.01C276.5 269.06 290.52 270.24 290.86 270.26C295.29 270.6 297.34 271.06 301.89 271.31C301.94 271.31 302.33 271.42 302.41 271.43C306.35 271.97 310.45 271.97 314.52 271.93C315.43 271.92 317.05 271.96 317.35 271.31C318 269.93 317.45 268.21 316.38 267.52C312.56 265.05 303.83 264.51 299.08 264.06L292.01 263.37C291.14 263.28 283.47 262.91 283.47 262.12V261.41C285.12 260.9 286.84 261.18 288.64 261.27L297.03 261.66C300.8 261.84 304.39 262.37 308.12 262.53C310.96 262.65 313.64 262.74 316.5 262.53C317 262.5 317.72 261.79 317.74 261.26C317.79 259.48 316.91 257.44 315.32 256.59C312.72 255.19 309.78 255.38 306.95 255.66C304.78 255.87 301.09 255.45 298.89 255.08L293.72 254.22L289.32 253.47L286.07 252.83C286.07 252.83 281.45 252.1 282.94 251.5C283.02 251.47 283.36 251.4 283.45 251.4H285.76C287.02 251.39 288.22 251.49 289.43 251.6L289.93 251.64C293.28 251.95 296.5 251.9 299.79 252.28C302.01 252.53 304.16 252.76 306.39 252.75L313.51 252.71C314.26 252.71 315.33 252.25 316.15 251.87C317.38 251.28 318.12 248.9 317.4 247.77C316.58 246.52 314.93 246.7 313.76 246.53L309.5 245.9L300.65 245.04L295.67 244.67L285.85 243.83C284.43 243.7 283.07 243.35 281.6 243.14C279.67 242.87 278.94 241.87 279.39 241.65L279.79 241.46C281.27 240.77 284.7 242.44 286.06 242.64C288.37 242.99 290.69 242.98 293.08 242.99L313.71 243.03C315.77 243.04 317.26 241.6 317.88 239.75C318.78 237.02 314.21 237 312.95 236.83L308.46 236.23C308.36 236.21 295.58 235.28 295.16 235.28L290.71 235.2C289.35 235.2 288.11 234.94 286.81 234.61L283.95 233.9L284.34 233.36L315.47 233.33C317.51 232.67 317.86 229.27 317.56 228.61C317.42 228.32 316.71 228.11 316.33 228.05L309.6 227.07C307.82 226.81 306.12 226.59 304.34 226.34L299.38 225.66C294.86 225.04 290.43 226.27 285.62 225.03C283.63 224.53 282.87 224.92 281.68 224.22C281.54 224.13 282.02 223.7 282.34 223.7L310.52 223.68C311.46 223.68 312.5 223.15 313.31 222.93C314.3 222.67 315.2 222.1 316.13 221.55C317.31 220.84 318.53 218.67 317.23 217.58C316.49 216.97 314.9 217.04 314 216.99L307.78 216.67L300.9 216.08L288.88 215.45C286.3 215.31 283.89 215.13 281.29 215.13H274.33C274.13 215.12 273.7 214.93 273.53 214.85C273.37 214.76 273.73 214.06 273.91 214.06L296.34 213.93L301.65 213.64L310.8 213.16L314.53 212.51C315.43 212.36 316.32 212.15 316.93 211.53C317.68 210.77 318.01 207.68 316.69 207.56L309.61 206.96C305.37 206.6 301.3 206.45 297.07 206.22L291.25 205.89L283.58 205.59L271.58 205.48C271.36 205.48 270.76 205 270.87 204.93C270.94 204.89 271.1 204.75 271.21 204.65L271.54 204.39L293.32 204.33L296.74 204.11L300.89 203.91C304.1 203.76 314.89 203.72 317.03 201.87C317.51 201.46 317.78 199.28 317.31 198.5C317.15 198.24 316.44 197.99 316.12 197.97L312.41 197.79L293.89 196.96C291.08 196.84 288.53 196.98 285.72 196.54V196.16L286.32 196.06C286.47 196.04 286.66 196.02 286.78 196.01L287.34 195.96L287.86 195.92L288.33 195.88L288.76 195.84L289.2 195.81L289.7 195.77L290.21 195.73L290.72 195.65L297.62 194.63C297.69 194.62 298 194.5 298.1 194.48L298.56 194.36L298.94 194.27C299.03 194.25 299.23 194.25 299.39 194.24L299.89 194.22L300.44 194.19C300.59 194.18 300.79 194.17 300.9 194.16L301.37 194.08L301.79 194.02L302.26 193.95L302.72 193.88L303.16 193.8L303.61 193.71C303.69 193.7 303.96 193.68 304.06 193.68H306.18L308.79 193.69C308.88 193.69 309.13 193.74 309.24 193.76L309.68 193.83L310.15 193.91L310.65 193.99C310.73 194 311.05 193.99 311.14 193.98L311.64 193.91L312.09 193.84L312.51 193.79L312.98 193.73L313.49 193.67L313.96 193.6C314.1 193.58 314.24 193.56 314.39 193.53L314.84 193.44L315.32 193.36L315.8 193.27C315.97 193.25 316.36 193.09 316.49 192.95L316.75 192.68L317.28 192.15C317.28 192.15 317.45 191.81 317.46 191.75L317.54 191.3L317.59 190.93C317.61 190.81 317.55 190.33 317.52 190.16L317.44 189.73L317.37 189.28C317.34 189.12 317.08 188.7 316.99 188.56L316.78 188.23L316.57 187.9L316.31 187.3L293.65 187.26H291.01L290.49 187.27H289.97L289.45 187.28H288.92L288.4 187.3H287.94C287.88 187.3 287.64 187.22 287.49 187.18L287.05 187.07L286.92 186.86C287.21 186.66 287.33 186.56 287.6 186.53L288.08 186.49L300.95 185.3C301.03 185.29 301.3 185.3 301.47 185.3H302C302.38 185.3 302.63 185.31 302.98 185.22L303.4 185.12C303.54 185.09 303.76 185.03 303.86 185.02L307.64 184.49C308.96 184.29 318.3 184.92 317.66 180.75C317.37 178.83 316.93 179.02 315.9 177.6L300.69 177.58L292.32 177.66C293.36 177.65 290.92 177.66 291.3 177.21C292.24 176.79 293.42 176.73 294.64 176.56L298.22 176.04L302.19 175.49C303.81 175.27 305.33 175.08 306.97 174.79L310.65 174.18C312.63 173.84 314.41 173.77 316.4 173.28" fill="#90BEFB"/>
</g>
</g>
<defs>
<clipPath id="clip0_2561_20067">
<rect width="380.27" height="442.67" fill="white"/>
</clipPath>
</defs>
</svg>
