<svg width="515" height="105" viewBox="0 0 515 105" fill="none" xmlns="http://www.w3.org/2000/svg">
<g clip-path="url(#clip0_2561_5583)">
<mask id="mask0_2561_5583" style="mask-type:luminance" maskUnits="userSpaceOnUse" x="0" y="0" width="515" height="105">
<path d="M514.36 0H0V104.72H514.36V0Z" fill="white"/>
</mask>
<g mask="url(#mask0_2561_5583)">
<path d="M293.49 25.8406L293.36 28.0806C293.03 28.6606 292.72 29.2606 292.62 29.9606L292.44 31.2706L291.84 33.6706C291.77 33.9306 291.87 34.5006 291.88 34.7906C291.39 35.6306 291.29 36.5406 291.1 37.4606L290.66 39.6806L289.83 42.2206C289.51 43.1706 289.46 44.1406 289.35 45.1006C289.09 47.3306 288.89 45.9506 288.77 48.4106C288.72 49.2406 288.47 50.1406 288.19 50.9806L287.51 53.0406C287.36 53.5006 287.45 54.2506 287.25 54.7406C286.12 57.5306 287.66 57.1606 286.67 58.0906C286.23 58.5006 286.34 59.0206 286.21 59.5106L285.32 62.7406C284.62 65.2906 285.41 63.4206 284.71 65.6406C284.33 66.1206 284.04 66.8006 283.91 67.4306L283.54 69.1806L283.32 70.5106C283.19 71.3206 283.02 72.0106 282.92 72.8206C282.89 73.1106 282.8 73.5406 282.73 73.8606L282.27 76.0806C281.94 77.6406 281.56 79.0506 281.33 80.6606C281.24 81.2606 280.91 82.1506 280.77 82.7206C280.7 82.9706 280.23 83.3106 280.05 83.5106C279.98 85.2106 276.61 85.8706 275.43 85.4106C273.39 84.6306 273.17 83.7006 272.49 82.0906C272.36 81.7806 272.19 81.4506 272.09 81.1506C271.9 80.5006 271.43 79.9306 271.22 79.3406C270.97 78.6206 270.65 78.1306 270.28 77.4406C269.87 76.6706 269.98 75.2706 268.76 74.8006C269.14 73.1606 268.23 73.6906 267.94 71.7906C267.82 71.0306 267.26 70.3306 266.99 69.6006C266.77 69.0006 266.73 68.1906 266.44 67.6506C266.18 67.1806 265.98 66.8006 265.77 66.3406L264.09 62.5106L263.5 60.8106C263.36 60.3906 262.78 59.9406 262.65 59.5706L262.42 58.9006C262.36 58.7406 261.9 58.8106 261.56 58.8106C261.73 58.1706 261.69 57.6606 261.18 57.2306C260.17 56.3906 261.6 56.2306 261.35 55.2306C261.29 54.9906 260.81 54.7306 260.62 54.5706C260.67 54.0606 260.06 51.8406 259.55 51.5606L259.76 50.5406C259.44 49.8706 259.41 49.2006 259.09 48.5306L258.2 46.6106C258.02 46.2306 258.26 45.4606 258.22 45.0106L255.18 37.2006C254.54 38.1306 254.55 38.9706 254.35 39.8906L253.89 42.1106L253.06 44.6306L252.49 47.8506C252.4 48.3706 252.37 48.7706 252.2 49.2806C251.98 49.9806 252.01 50.8206 251.91 51.6006C251.55 54.4006 251.41 52.2006 251.07 54.4206C250.96 55.1006 250.54 55.7206 250.6 56.4306C250.68 57.4706 250 57.6006 250 59.2006C250.1 59.8006 250.25 60.2806 249.82 60.7306C249.39 61.1806 249.47 61.7206 249.32 62.2806L248.94 63.6906L248.64 64.9906L248.16 66.4106C248.25 66.8806 248.26 67.2106 248.16 67.6406C247.75 69.2206 247.47 68.0906 247.14 69.8706L246.57 72.9606C246.5 73.3506 246.27 73.8906 246.26 74.2506C246.17 76.1606 246 75.9906 245.8 77.0606L245.44 78.9706C245.19 80.2906 244.91 81.5206 244.61 82.8406L244.23 84.5106C244.09 85.1306 243.67 85.5206 243.41 85.9806C242.92 86.8506 242.58 87.4506 241.49 87.7606C240.38 88.0706 239.95 88.2006 238.63 87.9606L236.94 86.9906C236.69 86.6706 236.29 86.0406 236.12 85.6306L235.39 83.8806C235.13 83.2506 234.82 82.6706 234.48 82.0406C234.2 81.5206 234.21 80.8006 233.68 80.3906C232.96 79.8206 233.95 78.8006 231.92 77.2206C232.26 76.4106 231.64 75.8306 231.43 75.1906C231.12 74.2306 230.86 73.3106 230.3 72.4306C230.1 72.1106 229.97 71.6306 229.96 71.2506C229.94 70.5006 229.46 70.0406 229.21 69.4506L228.27 67.2606C227.92 66.4506 227.49 65.6606 227.21 64.8206C226.44 62.5106 226.58 63.2906 225.53 61.4206L224.88 61.3806C224.73 59.6206 224.94 60.6106 224.14 59.4306C223.9 59.0806 224.82 58.2206 224.59 57.7206C224.49 57.5206 224.05 57.3106 223.87 57.1706C223.91 56.2306 223.33 54.7706 222.74 54.0106C223.24 52.3506 222.57 53.2606 222.34 51.4006C222.11 49.5006 221.15 50.0106 221.23 48.2406L220.85 47.2406C220.99 46.7306 220.71 46.5206 220.55 46.1306L219.85 44.5206L218.98 41.8206C218.42 40.0906 217.38 38.6306 216.9 36.9306L216.43 36.1106L215.26 32.9706C215.11 32.5706 215.03 32.0706 214.82 31.6906C214.37 30.8906 214.61 29.8606 215.43 29.2906L216.79 28.3606C217.11 28.1406 217.78 28.6406 218.15 28.7406C219.38 29.0806 219.97 30.0106 220.43 31.1506L221.08 32.7906C221.57 34.0306 222.26 35.1906 222.66 36.5006L223.23 38.4006C223.32 38.7106 223.44 39.0006 223.56 39.3006L224.65 42.0906C224.84 42.5906 224.96 43.0606 225.16 43.5806L226.81 48.0306L227.7 50.3506C227.94 50.9906 228 51.6706 228.36 52.2906L229.2 53.7606C230.17 55.4506 229.36 54.9906 230.02 56.2906L230.64 57.5206C230.9 58.0506 231.15 58.3106 231.64 58.6606L232.67 59.3906C232.77 59.4606 232.88 59.6606 232.85 59.7706C232.83 59.8806 232.64 60.1706 232.56 60.1006L232.16 59.8106L231.94 59.6506C231.87 59.5906 231.68 59.8206 231.72 59.9006C231.76 59.9806 231.92 60.1806 231.95 60.2606L232.44 61.8206C232.56 62.1906 232.59 62.8206 232.73 63.1406C233.76 65.6406 233.04 64.5206 233.81 66.7606L234.67 69.2506C234.82 69.6806 235.03 69.9806 235.23 70.4006L237.1 74.3006C237.44 75.0006 237.74 75.5706 238.04 76.3306C238.16 76.6406 238.51 77.0806 238.71 77.3806L239.71 77.0706C240.54 76.0206 240.92 74.7906 241.15 73.4806C241.44 71.8106 241.68 71.9206 241.98 70.1006C242.06 69.5906 242.15 69.1706 242.25 68.7006L242.58 67.2706C242.67 66.8906 242.72 66.4906 242.76 66.1406L243.03 64.1306C243.08 63.7806 243.25 63.2206 243.35 62.8106C243.5 62.1606 243.29 61.4706 243.36 60.8806C243.48 60.0606 244.43 58.0006 244.31 57.3306C244.09 56.0706 245.48 55.7906 244.86 54.4806L245.47 52.2906C245.87 50.8206 245.85 50.4406 246.27 48.8106L246.76 46.9106L247.21 45.1206C247.52 43.9006 247.81 42.4306 248.09 41.6406L248.77 39.7306C248.93 39.3006 248.85 38.8306 248.86 38.3406C248.86 37.8506 249.6 37.3406 249.1 36.7006L249.61 35.2306C249.33 34.2906 249.73 33.6606 249.94 32.8106L250.63 30.0806L251.24 28.0106C251.37 27.5706 251.47 27.1306 251.77 26.8706C252.1 26.5806 252.59 26.6306 252.94 26.5106C253.69 26.2606 254.33 26.0906 255.17 26.3506C256.99 26.9106 256.35 27.2606 257.02 28.8206L259.29 34.1006C259.45 34.4706 259.71 34.8406 259.84 35.2206L260.25 36.3706L261.46 39.4706C262.13 41.1906 261.87 41.0306 262.82 43.2706C263.16 44.0806 263.36 44.9606 263.71 45.7706L264.52 47.6406C264.86 48.4206 264.88 49.1606 265.27 49.8806L265.97 51.1806C266.12 51.4606 266.43 51.9906 266.51 52.2806L266.97 54.0106C267.05 54.3006 267.35 54.6206 267.47 54.8806C268.02 55.9706 268.47 57.0806 268.88 58.2406L269.5 59.9706C269.48 60.5206 269.72 60.9006 269.85 61.3806L270.53 63.8006C271.13 65.9306 271.31 66.2506 272.19 68.1606L273.8 71.6406C273.97 72.0006 274.34 72.3806 274.45 72.7606C274.69 73.6006 275.06 74.3506 275.59 74.9306C275.88 74.7206 276.4 74.6006 276.57 74.4206C277 73.9806 277.47 73.1106 277.62 72.4606L278.2 69.8806C278.37 69.1106 278.68 68.3806 278.81 67.5606C278.9 67.0106 279.01 66.5206 279.12 65.9806L279.47 64.3106L279.7 63.0006C279.8 62.4706 279.72 61.7406 279.93 61.2806C280.43 60.2106 279.95 59.0806 280.24 58.0506C280.42 57.4106 280.68 56.6506 280.88 56.0306C281.08 55.4506 281.25 55.2206 281.1 54.5706C280.87 53.6006 282.55 52.9906 281.61 52.0106C281.89 51.3306 282.06 50.5306 282.26 49.7306C282.33 49.4706 282.48 49.0906 282.53 48.7906L282.96 46.3506C283.01 46.0506 283.38 45.5106 283.47 45.2306C283.49 44.3806 283.95 42.5006 284.28 41.7406C284.44 41.3606 284.37 40.7406 284.48 40.4206L284.83 39.3306L285.82 36.4906L285.46 35.8906C286.01 35.4006 286.07 34.8406 285.93 34.0806L286.43 32.6206C286.22 31.6906 286.51 30.9806 286.76 30.1606C286.91 29.6706 287.06 29.1206 287.18 28.6106L287.5 27.3506L288.02 25.4706C288.19 24.8706 288.34 24.4506 288.94 24.1106C289.19 23.9706 289.48 23.9906 289.8 24.0406L290.79 24.1806C291.42 23.8506 292.11 23.6806 292.69 24.0706C293.43 24.5606 293.57 24.9806 293.52 25.8606" fill="#90BEFB"/>
<path d="M175.28 56.6292C173.89 58.1192 174.35 57.4892 172.65 57.7592C172.22 57.8292 171.6 58.0192 171.23 58.0292H169.56L168.7 58.0492C168.22 58.2492 165.37 58.2192 165.42 58.2092C164.87 58.2992 164.24 58.4492 163.69 58.4692L162.33 58.5192L160.68 58.5892C159.95 58.6192 159.28 58.6692 158.5 58.6392C157.97 58.6192 157.41 58.7692 156.94 58.9992C156.23 58.9992 155.6 59.0392 154.94 59.1092C154.62 59.1392 153.97 58.8892 153.64 58.9392L152 59.1892C151.6 59.2492 151.13 59.2392 150.77 59.2392C148.32 59.2692 149.97 59.7892 147.76 59.6292C147.31 59.5992 146.63 59.6392 146.15 59.6792L144.9 59.7792C144.35 59.8292 143.88 59.8592 143.27 59.8492L142.41 60.1292L140.98 60.1792C140.21 60.2092 139.5 60.0392 138.76 60.2892L137.67 59.9892C137.05 60.2592 136.41 60.1792 135.79 59.9292C135.24 59.7092 134.34 59.5992 134.3 58.6892C134.28 58.3192 134.58 57.7292 134.77 57.2892L134.52 56.3292L135.68 53.2792C135.34 52.1492 136.05 51.2492 136.46 50.2692C136.8 49.4592 136.97 48.5992 137.67 47.9892L137.85 47.1892L139.18 45.1592C139.59 44.5292 140.22 44.0092 140.74 43.4792L142 42.1992C142.32 41.8892 143.04 41.6392 143.42 41.3792C144.18 40.8392 144.52 40.8092 145.87 39.8592C146.3 39.5592 146.8 39.4392 147.26 39.2192C149.16 38.3292 149.58 38.0092 151.72 37.9192C151.9 37.9192 152.18 37.5792 152.3 37.6092L152.93 37.7892L153.38 37.3792C153.69 37.0992 154.2 37.9292 154.77 37.3492C156.47 37.6092 156.79 37.3092 157.89 37.5092C158.37 37.5892 158.91 37.5792 159.32 37.8292C159.73 38.0692 160.42 38.0792 160.78 38.2592C161.2 38.4692 161.37 38.6592 161.97 38.6592C162.8 38.6592 163.84 39.1192 164.48 39.6492C166.78 41.5492 166.29 40.1292 167.99 41.8492C168.45 42.3292 168.81 42.8092 168.95 43.4392C169.55 43.5992 169.79 44.0792 170.14 44.4792C170.61 44.9892 171.07 45.4092 171.42 46.0392L172.49 47.9592L173.45 49.7792L174.56 52.1992C174.81 52.7492 175.07 53.0792 175.23 53.6892L175.63 55.1392C175.79 55.7292 175.71 56.1192 175.26 56.5992M182.38 56.9492C181.82 56.5992 182.24 55.9692 182.2 55.5692L182.04 53.9292C181.97 53.1692 181.23 51.4392 180.86 50.5992L180.26 49.2192L179.61 47.9592L178.78 46.1592C178.57 45.7092 178.71 45.2192 178.1 44.9592C177.79 44.8192 177.72 44.2692 177.57 43.9792C176.59 42.1992 177 42.0792 176.11 41.5792L174.93 39.7592C174.54 39.1492 174.25 38.6292 173.57 38.3992C173.23 38.2892 172.85 37.6992 172.58 37.4992L171.39 36.6392L170.1 35.7592C169.13 35.0892 168.23 34.5292 167.14 34.0992L165.15 33.3192C164.68 33.1392 164.13 32.8292 163.87 32.4792C163.42 31.8692 162.96 32.1892 162.43 32.1292L158.97 31.7992C158.63 31.7692 158.13 31.5292 157.72 31.5592L155.94 31.6792C154.43 31.7692 154.52 31.6792 152.62 31.7692C152.53 31.7692 149.88 32.2492 149.57 32.3192L148.18 32.6492L147.06 32.9092C146.68 32.9992 146.32 33.1792 145.93 33.3692C145.17 33.7392 143.52 34.2592 143.4 34.2692L140.7 35.6592L139.81 36.2592L138.03 37.2592C137.62 37.4892 137.35 38.1692 136.97 38.4892L135.35 39.8492C134.67 40.4192 134.52 41.5492 133.89 42.1492C133.53 42.4992 133.32 42.7192 133.1 43.1692C132.79 43.8392 132.34 44.4592 132.02 45.1192L130.24 48.7892L129.4 51.0692C129.46 51.0692 128.77 54.0792 128.71 54.0792L128.54 55.7492L128.2 57.2092C128.07 57.7592 128.7 58.2292 128.24 58.8292C127.89 59.2792 128.28 59.8292 128.3 60.3292C128.3 60.7292 128.2 61.3092 128.2 61.7692L128.16 63.3892C128.14 63.9692 128.36 64.4192 128.36 65.0192C128.35 68.2792 128.54 65.9392 128.62 68.1492C128.64 68.6992 128.95 69.4792 129.07 69.9592C128.69 70.4692 129.15 70.8392 129.17 71.1992C129.38 73.9792 130.45 74.4192 130.88 77.4992C130.98 77.7092 131.22 78.1492 131.31 78.3792L131.77 79.6092C131.96 80.1192 132.08 80.8892 132.41 81.2792C132.73 81.6592 133.01 81.9292 133.13 82.3692C133.56 83.7792 134.64 84.5192 134.89 84.9292C135.25 85.5192 135.44 85.9892 135.97 86.4892C136.28 86.7892 136.51 87.4192 136.8 87.7492L137.49 88.5592C137.65 88.7392 138.1 88.9892 138.29 89.1892L139.36 90.2492C140.27 91.1492 140.59 91.1592 141.61 91.6992C142.06 92.3592 142.6 92.4892 143.3 92.7392C145.76 93.5892 146.13 94.1092 148.56 94.3592C149.33 94.4392 150.17 94.8192 151.04 94.8792L153.52 95.0592C153.43 95.0592 155.83 94.5092 156.55 94.9392L157.64 94.6692C158.13 95.2692 158.66 94.7092 159.14 94.6792L160.72 94.5692L161.4 94.5392C161.52 94.5392 161.59 94.3192 161.72 94.0692L163.06 94.5292L163.59 94.1092C164.04 94.4992 164.49 93.7992 164.82 93.8292C165.29 93.8892 165.72 93.8892 166.18 93.6392L167.66 92.8292C168.15 92.5592 169.01 92.7192 169.25 91.9892L169.84 92.1492C169.95 92.1792 170.09 91.8292 170.19 91.7692C171.36 91.1692 171.49 91.3792 171.92 90.7892C172.48 90.5392 173.34 90.1792 173.95 89.8192L174.73 89.6192C174.92 88.9292 175.55 88.3992 176.25 88.3092C176.9 87.3292 177.58 86.4692 178.33 85.5392C179.7 83.8692 179.1 84.2292 180.47 82.1692C180.98 81.3992 181.3 80.4992 181.75 79.6792C182.05 79.1192 182.18 78.4692 182.35 77.8392C182.68 76.6492 182.97 75.7292 182.58 74.6592C182.27 73.8192 181.85 73.4392 181 73.1792C179.45 72.6792 177.97 72.7092 176.96 74.2292C175.94 75.7692 175.23 77.3492 174.88 79.1692C174.63 80.4892 174 80.0292 173.28 81.4892C173.01 82.0292 172.76 82.4192 172.3 82.7492L169.82 84.5492L168.9 85.2192C168.28 85.6692 167.57 85.8192 166.87 86.1292L165.71 86.6392C164.19 87.3192 161.87 88.1692 160.3 88.2492C159.51 88.2892 158.84 88.4792 158.03 88.1592C157.63 87.9992 157.13 88.1792 156.67 88.2192C154.38 88.4392 155.1 87.6292 153.68 88.0192C152.37 88.1692 151.67 87.2992 150.19 87.7192L148.12 86.7192C147.95 86.6392 147.73 86.5792 147.51 86.5192C144.44 85.5892 146.67 85.9092 144.65 85.1092C144.37 84.9992 143.97 84.5692 143.67 84.3992C142.87 83.9292 142.32 83.3392 141.74 82.6392C141.36 82.1892 140.89 81.7392 140.57 81.2792L139.27 79.3992C138.9 78.8692 138.6 78.3792 138.13 77.8192C137.72 77.3292 137.58 76.5092 137.28 75.9292C136.89 75.1992 136.59 74.4992 136.49 73.7192C136.34 73.6192 136.12 73.4992 136.12 73.3892C136.12 73.2692 136.14 72.9592 136.12 72.8392L135.88 71.7192C135.82 71.3992 135.42 70.3992 135.11 69.1192C134.92 68.3592 134.49 67.5392 135.08 66.7392C135.35 66.3692 136.26 66.5092 136.65 66.3492C137.1 66.1492 137.52 65.9292 138.04 66.0492L138.89 65.4592C139.34 66.1592 139.82 65.5192 140.23 65.5492C140.77 65.5892 141.34 65.5492 141.9 65.5692L143.83 65.6492C143.45 65.6292 149.16 65.2192 149.39 65.2092L152.1 64.8992L154.31 64.8292C154.78 64.8192 155.43 64.7992 155.9 64.7292L158.98 64.3492C159.34 64.3092 159.68 64.2992 160.04 64.2892L162.38 64.1992H164.03L165.47 64.1692C166.09 64.1492 166.55 64.0992 167.15 64.0692L168.61 63.9992C169.18 63.9692 169.85 63.7492 170.36 63.7392C172.78 63.6692 174.49 63.3192 176.25 63.3392L177.88 63.3592C179.01 63.3692 180.22 63.4792 181.29 62.7292C183.03 61.5092 182.78 59.6292 182.33 57.8892L182.45 56.9992L182.38 56.9492Z" fill="#90BEFB"/>
<path d="M512.88 39.7605L512.28 41.1905C512.49 41.6105 512.47 41.9205 512.53 42.3105C512.68 43.1305 512.85 43.8705 512.54 44.6205C512.84 44.9905 512.87 45.4005 512.78 45.8505L513.07 46.4405C512.74 46.9605 513 49.1805 513.61 49.1805L512.99 50.5105C512.85 50.8105 513.27 51.3505 513.28 51.6405L513.38 53.1505L513.22 53.9105C513.18 54.1005 513.47 54.3505 513.68 54.5805C513.67 54.8005 513.56 55.2605 513.46 55.5305C513.26 56.0305 513.6 56.2405 513.98 56.5805C513.99 56.9605 514 57.7205 513.97 58.1605C513.82 60.8305 514.6 58.9605 514.29 62.5605C514.25 62.9905 514.15 63.3105 514.21 63.7705C514.29 64.3905 514.07 65.4305 513.49 65.8105C513.18 66.0005 512.55 66.3205 512.15 66.3205L510.27 66.3505C509.53 66.3505 509.31 66.2405 508.98 65.7005C508.68 65.2005 508.41 64.7905 508.44 64.0805C508.48 63.2805 507.28 63.3105 507.88 62.8305C508.02 62.7205 508.24 62.4305 508.18 62.3005L507.85 61.6005C508.15 61.1705 508.05 60.5605 507.7 60.1205L507.81 59.0005C507.17 58.1505 508.22 58.0905 507.51 55.5705C507.47 55.4105 507.29 55.1005 507.35 54.9805C507.56 54.6005 507.59 53.9805 507.2 53.6105C507.01 53.4405 507.42 52.9405 507.42 52.7005L507.4 49.5105C507.4 48.9705 507.36 48.6305 507.31 48.1705C507.26 47.6405 507.43 47.0005 507.28 46.3605L506.82 44.3605C506.81 44.2905 506.53 44.1405 506.46 44.1205C506.19 44.0205 507.28 43.5805 506.9 42.1605C506.22 39.6005 507.22 41.4605 506.28 39.3205C506.14 39.0105 506.03 38.3105 506 37.9705C506.13 37.3705 506.17 36.7705 506.01 36.1305L505.67 34.7105L506.14 33.3105C505.65 32.8005 506.04 32.8805 505.74 30.9905C505.66 30.5005 505.91 29.6305 505.71 29.2205C505.41 28.6405 505.4 28.3905 505.38 27.7505C505.36 26.9905 504.93 25.4505 504.63 24.6905L504.2 23.5805L503.27 21.3705C503.09 20.9605 502.47 20.2505 502.1 19.9805C501.64 19.6805 501.07 19.5405 501.02 18.9405C500.96 18.1405 500.33 18.0405 499.84 17.5705C499.56 17.3105 499.2 16.9905 498.84 16.9905C498.17 16.9905 498.92 16.5605 497.66 15.6205C496.94 15.0905 496.21 14.9905 495.37 14.6905L493.91 14.1705C493.39 13.9805 492.89 13.8905 492.25 13.9105L490.33 13.9905C489.42 14.0305 488.56 13.8905 487.71 14.5105L486.14 14.3105L484.16 15.0205L481.07 16.3505L480.72 16.9905C479.46 17.3805 478.75 18.4105 477.98 19.3305C477.36 20.0605 476.81 20.7805 476.5 21.6805C476.39 21.9705 475.82 22.3505 475.87 22.7305C475.94 23.2505 475.31 23.2605 475.17 23.5405L473.7 26.5105C473.62 26.6305 473.17 26.7205 473.16 26.8705C473.16 27.0205 473.29 27.4205 473.26 27.5705C473.16 28.0805 472.69 28.9905 472.73 29.5505C472.76 29.9705 472.9 30.4905 472.73 30.7705C472.35 31.4305 472.23 31.9705 472.54 32.6505C472.76 33.1205 472.27 33.8005 472.32 34.2305L472.51 35.9405C472.6 36.7705 473.08 37.6805 472.84 38.1705C472.59 38.6905 472.79 38.9405 472.86 39.4305C473 40.3605 472.71 42.3805 473.03 43.7505C472.86 43.6005 473.08 45.8805 473.08 45.8905L473.28 47.4705L473.45 48.4205L473.68 50.1505C473.75 50.6305 473.84 51.0605 473.68 51.5205C473.28 52.6105 474 51.8505 473.77 54.5305C473.62 56.4305 474.22 54.5505 474.08 57.5505C474.05 58.2205 474.05 58.5805 474.27 59.2105C474.44 59.7205 474.42 60.4405 474.56 60.9905C474.69 61.5205 474.75 61.9305 474.52 62.4405C474.33 62.8805 474.48 63.3605 474.52 63.8505L474.64 65.4905C474.71 66.4405 474.09 67.4605 473.74 68.3405C473.28 68.5105 472.67 68.8605 472.35 68.8105L471.5 68.6805C470.89 68.5905 470.18 68.3505 469.7 67.9705C468.08 66.6805 469.25 67.3805 468.29 65.3905C468.56 64.5605 468.36 63.7705 467.87 63.1605C468.13 61.9805 468.18 60.6105 468.18 59.3005C468.18 58.8105 468.6 58.0705 468.35 57.6405L467.98 57.0105C467.89 56.8605 468.17 56.5405 468.32 56.2605L467.86 55.2505C467.79 54.9605 468.01 54.3505 467.99 54.0105C467.93 52.8105 467.89 51.6505 467.65 50.5105C467.57 50.1305 467.34 49.6305 467.28 49.2005L467.12 47.9905C467.09 47.7505 466.87 47.2805 466.88 47.0305L466.94 45.5005C466.96 45.0805 466.96 43.0405 466.56 42.8105C466.55 42.4605 466.7 41.7505 466.66 41.3905L466.5 40.1005C466.45 39.7105 466.12 39.3805 466.51 38.9405L466.01 37.6905C466.47 37.1505 466.28 36.7305 466.21 36.1805L465.92 33.8805C465.74 32.4705 465.77 31.9905 465.8 30.5705C465.82 29.5005 465.1 28.5505 465.38 27.8105C465.04 26.6705 464.89 25.6705 465.04 24.4505C465.23 22.8305 465.15 20.2605 464.96 18.6705L464.7 16.5005C464.55 15.2405 464.41 14.1405 464.73 12.9305C464.94 12.1205 465.26 11.7905 466.17 11.7205L467.09 11.6505C468.74 11.5305 469.14 11.4105 470.32 12.7205C470.11 13.5705 470.59 16.8905 472.05 16.5805L473.15 16.3505C473.81 14.8805 473.34 16.3605 474.99 14.6505C475.21 14.4205 477.13 12.6505 477.13 12.6505L479.16 11.5005C479.74 11.1605 480.39 10.8205 481.03 10.6205L483.54 9.84047C484.18 9.63047 484.71 9.47047 485.41 9.36047L487.63 8.99047L488.95 8.80047C489.26 8.76047 489.88 8.79047 490.26 8.78047L492.05 8.73047L494.54 8.88047C494.99 8.91047 495.36 8.76047 495.76 9.01047C497.07 9.85047 496.99 8.89047 498.49 9.79047C499.94 9.65047 501.18 10.2405 501.87 11.5805C504.52 11.6205 503.68 12.9805 505.61 13.7305C505.94 13.8605 506 14.0705 506.11 14.4005C506.65 15.8805 507.16 15.4505 507.82 16.6005L508.51 17.7805L509.11 18.8305C509.18 18.8905 509.34 19.0205 509.4 19.0705C509.49 19.1405 509.45 19.4105 509.41 19.6105C509.37 19.7805 509.69 20.1005 509.74 20.2805C510.37 22.6905 510.35 21.1305 510.89 23.6505L511.11 24.6805C511.28 25.4605 510.9 26.4505 511.77 27.0005C511.4 27.6205 511.85 28.0605 511.89 28.6405C511.92 29.1105 511.65 30.3305 512.25 32.0105L511.8 32.6905C512.8 33.8005 511.8 33.9705 512.14 34.5405L512.44 35.0305C512.51 35.1505 511.89 35.8405 512.14 36.0605L512.51 36.3805L512.72 36.5605C512.77 36.6005 512.68 36.7405 512.61 36.8405C511.83 37.9905 513.3 37.6405 512.5 38.8405L512.87 39.8005L512.88 39.7605Z" fill="#90BEFB"/>
<path d="M126.36 37.3001C126.36 37.8001 126.35 38.3201 126.28 38.7401L126.09 40.0001C126.03 40.3901 125.55 40.9601 125.4 41.4001C124.34 44.4901 125.53 42.3701 124.75 44.3901C124.49 45.0601 124.25 45.7701 124.13 46.4701C124.02 47.1001 123.63 47.6801 123.47 48.2901C123.24 49.1401 123.17 49.9601 122.91 50.7801C122.05 53.4901 121.2 54.8801 120.68 57.3901L120.34 59.0101C119.88 61.2001 119.41 61.6901 118.89 63.7101C118.35 65.8601 117.95 64.5601 118.21 66.0101C118.29 66.4501 118 67.0201 117.82 67.4801L117.22 69.0001C117.21 69.1401 117.42 69.5701 117.31 69.6601L116.94 69.9701C116.85 70.0501 116.96 70.3601 116.94 70.4901C116.42 71.4401 116.06 73.0001 115.83 74.1601C115.71 74.8201 115.36 75.4101 115.15 76.0001C114.8 76.9801 114.39 77.9101 114.01 78.9101L113.07 81.4601C112.95 81.7901 113.07 82.3601 112.97 82.6701L112.11 85.5501L111.61 87.2001L111.38 88.9501C111.24 90.0301 110.41 90.9901 110.3 92.1001C110.1 94.3201 109.92 92.9501 109.47 95.4101C107.38 96.2101 109.53 96.7301 106.49 97.6701C104.61 98.2401 103.45 98.3401 101.78 97.4801C101.31 97.2401 100.86 97.1301 100.53 96.6701C99.6904 95.4401 99.5004 94.6901 98.6504 93.2301C98.3304 92.6801 97.8704 92.3601 97.8004 91.6301C97.7704 91.3201 97.3604 91.0301 97.2304 90.7501L96.3904 88.9401C96.2104 88.5601 95.6804 88.0301 95.4604 87.6801C95.3504 87.5101 95.3004 86.9801 95.2204 86.8001C94.9004 86.1101 94.2404 85.4401 94.0204 84.7601C93.1604 82.1601 92.7404 83.0601 92.6004 81.3601C92.5404 80.6901 92.0104 80.3101 91.7604 79.8301L90.9604 78.3201C90.4304 77.3201 89.8204 76.3601 89.4204 75.3301C89.3004 75.0001 89.3404 74.6101 89.0204 74.2901C88.5904 73.8701 88.4504 73.3401 88.3304 72.7701L87.5004 71.6801L86.6704 71.2301C86.6604 70.7201 86.5104 70.3601 85.9604 70.2001L86.2804 69.3301C86.2304 69.0601 86.1604 68.4701 86.0404 68.2201L85.3004 66.6901L84.7404 65.5801C83.8004 63.7001 84.5804 64.7801 83.6204 62.3901C83.5204 62.1501 83.4504 61.8001 83.3804 61.5701C83.1304 60.8201 82.4104 60.1001 82.2304 59.3001L82.0204 58.3801C81.9204 57.9701 81.8504 57.4701 81.7804 57.0301L81.1804 56.6401L80.4304 54.9701L80.0004 53.8401C79.8304 53.4001 79.6204 52.9701 79.4704 52.5501C79.2104 51.8001 78.9604 51.2201 78.5404 50.5501L77.6904 49.1801L76.1704 46.2401C76.0004 45.9101 75.8304 45.4301 75.6804 45.0701L74.6404 42.7201C74.4604 42.3101 74.0404 41.9001 74.1504 41.4801C74.2604 41.0301 74.5104 40.6601 74.8804 40.3501C75.8004 39.5801 75.1704 40.4801 76.4304 39.4901C77.1804 38.8901 78.1004 39.4901 78.8204 39.6901C80.1404 40.0701 80.6404 40.9601 81.1904 42.0501C81.4204 42.5201 81.7004 42.9401 81.8804 43.4901C82.1904 44.4201 83.1704 45.6401 83.7804 47.2201L84.4704 49.0001C84.5904 49.3201 84.7504 49.6401 84.9104 49.9901L86.0204 52.4701C86.2204 52.9401 86.3504 53.3901 86.5704 53.8701L87.8804 56.6201L88.8304 58.9301C89.0704 59.5201 89.4904 60.3101 89.7604 60.8301C89.8804 61.0701 89.8604 61.6101 90.0004 61.8501L91.0504 63.7301L91.6004 64.5701C91.8104 64.8801 91.9104 65.2401 92.0804 65.6101L92.9204 67.5301C93.0304 67.7901 93.4504 68.1601 93.5804 68.4901C93.9204 69.4101 94.4404 68.8601 95.0104 69.3601L94.5704 70.1401C94.4704 70.3101 94.9204 70.7701 94.9004 71.0001C94.8704 71.4901 95.4104 72.3501 95.5504 72.8101C95.7304 73.4101 95.6804 73.8001 96.1104 74.4001C96.4004 74.8001 96.5204 75.6901 96.7204 76.2301L97.2204 77.6101L98.4004 80.3001L99.8504 82.7201C100.08 83.1001 100.21 83.5301 100.48 83.9201L101.26 85.0101C101.57 85.4201 101.62 85.9801 101.91 86.3901L102.67 87.4201C102.93 88.0401 103.29 88.6601 104.13 88.6801C104.5 88.4001 104.78 87.8101 105.03 87.3401C105.9 85.7101 106.52 84.0801 107.04 82.3201C107.25 81.6101 107.68 80.8301 107.72 80.1501C107.75 79.6601 107.86 79.3801 108 78.9201L108.63 76.8201C109.49 73.9201 108.79 75.9601 109.28 73.9601C109.39 73.4901 109.58 72.8201 109.63 72.3701C109.74 71.2901 109.73 70.3701 110.19 69.3501C111.19 67.0801 110.79 67.3601 111.77 65.2801C111.55 65.2001 112.31 62.5301 112.27 62.6201C113.26 60.8301 112.48 61.7701 113.28 59.6401C113.53 58.9801 113.78 58.2901 113.96 57.6301L114.35 56.1801C114.59 55.3201 114.84 54.5401 115.14 53.6901L115.62 52.3201C115.76 51.8901 115.88 51.4301 116.06 51.0001C116.37 50.2701 116.89 49.4801 117.02 48.7301L117.27 47.4101C117.35 46.9601 117.24 46.4201 117.51 45.9401C117.78 45.4701 117.91 44.9201 117.78 44.4001C117.63 43.7701 118.14 43.3701 118.27 42.9301C118.47 42.2901 118.71 41.7301 118.89 41.1101L119.25 39.8801L120.07 37.6901C120.44 36.7101 121.31 36.3901 122.38 36.6401C123.25 36.8401 124.26 36.5801 125.2 36.4301C125.59 36.3701 126.41 36.9501 126.41 37.3401" fill="#90BEFB"/>
<path d="M399.93 20.3898C399.86 20.7898 399.46 21.5298 399.21 21.9598C399.1 22.1598 398.47 22.0198 398.24 22.0598C397.52 22.1498 396.69 22.3698 395.98 22.4198C393.94 22.5498 395.76 22.9498 392.38 22.8298C391.89 23.2498 391.36 23.5798 390.87 23.9098C389.98 24.5098 390.24 25.8598 390.29 26.7298L390.46 29.6298C390.49 30.1498 390.54 30.5998 390.61 31.0798C390.72 31.8798 390.59 32.8198 390.85 33.6298C391.01 34.1398 391.05 34.5098 391.03 35.0398L390.97 36.6498L391.23 40.0098C391.27 40.5598 391.3 41.0498 391.23 41.6398C390.76 45.5298 391.55 42.8098 391.36 45.4098C391.33 45.8598 391.41 46.6198 391.46 47.1098L391.57 48.3198L391.82 51.6698C391.9 52.7098 392.28 53.2198 392.11 54.9098C392.07 55.2998 392.6 55.8198 392.01 56.2698L392.51 57.3598C392.18 57.9098 392.27 58.2798 392.36 58.7898L392.91 61.9698C393.01 62.5098 393 63.0598 393.16 63.5998L393.59 65.0598L393.98 66.3498C394.18 67.0398 394.39 67.3298 394.89 67.7598C395.53 68.3198 396.12 68.8298 396.87 69.1698C397.5 69.4498 398.1 69.8198 398.78 69.8198L400.45 69.8498C400.85 69.8598 401.23 69.8898 401.6 69.9998C402.76 70.3498 402.82 71.5098 402.62 72.4798C402.52 72.9898 402.64 73.9698 401.9 74.0198C401.41 74.0498 401.12 74.0898 400.7 74.4498C400.39 74.7098 399.56 74.4698 399.21 74.5698C398.55 74.7598 398.04 74.9698 397.37 74.8398C395.82 74.5398 393.38 75.3498 390.32 71.9298C390.06 71.6398 389.81 71.1898 389.53 70.8098C389.01 70.1198 388.53 68.2898 388.28 67.3998C388.14 66.9298 387.91 66.5798 388.14 66.0598C388.47 65.3198 387.87 64.9398 387.73 63.7198C387.69 63.2598 387.73 62.7398 387.49 62.3098C387.19 61.7498 387.39 60.9498 387.29 60.3498C387.24 60.0398 386.93 59.6098 387.05 59.2398C387.19 58.7898 387.08 58.4798 386.74 58.1098L387.12 57.0898C386.58 56.8198 386.62 56.0998 386.67 55.6698C386.69 55.4998 386.33 55.1498 386.37 54.9798C386.42 54.7998 386.56 54.5098 386.71 54.2198L386.51 53.5598L386.36 51.8098L386.21 50.0398C386.17 49.5998 386.14 49.2998 385.87 48.8298L386.26 47.7998C385.66 47.3798 386.06 46.8298 386.02 46.2798C385.93 44.7898 385.73 44.3698 385.77 43.1998C385.82 41.7998 385.46 41.1898 385.37 39.8998L385.26 38.4198L385.17 37.0698L384.96 36.4998L384.86 35.0198L384.79 32.8098C384.79 32.5098 384.52 30.1598 384.47 29.9198C384.35 29.2898 384.32 28.7398 384.34 28.0898C384.42 25.1998 384.11 26.5598 384.11 24.8198C384.11 24.3998 383.56 23.6298 383.14 23.4698L381.02 23.8298L380.28 24.4898L379.64 23.6998C379 24.0998 378.56 23.8498 377.95 23.7798C377.58 23.7298 377.01 24.0298 376.57 23.8798C375.1 23.3498 375.55 21.4598 375.48 20.9798C375.39 20.3998 375.39 20.1098 375.67 19.5798C376.27 18.4298 378.13 18.4598 378.84 18.3398C381.12 17.9598 378.83 18.4798 381.73 18.3398C382.28 18.3098 383.11 17.6598 383.28 17.1898L383.77 15.8498C383.94 15.3998 383.54 14.6098 383.33 14.0698C383.21 13.7498 383.61 13.0898 383.57 12.7598L383.4 11.2698C383.35 10.7998 383.3 10.3298 383.25 9.79984L383.11 8.19984C383.02 7.15984 382.87 6.18984 383.99 5.40984C384.88 4.79984 386.62 4.59984 387.65 5.34984C388.44 5.92984 388.8 7.12984 388.9 8.04984C388.97 8.78984 389.33 9.54984 389.29 10.1898C389.25 10.7698 389.2 11.1698 389.29 11.7298L389.53 13.1498C389.2 14.6198 389.42 16.4198 391.01 16.9498C391.19 17.0198 391.5 17.4898 391.65 17.4098L392.2 17.1398C392.32 17.0698 392.66 17.3598 392.8 17.3398C393.35 17.2498 394.11 17.2298 394.64 17.2298C395.1 17.2298 395.44 16.4698 396.08 17.1198C396.32 17.3698 396.99 17.0398 397.34 17.0498C397.92 17.0698 398.55 17.2698 399.2 17.4398C399.4 17.8098 399.7 18.4598 399.75 18.8298L399.93 20.3898Z" fill="#90BEFB"/>
<path d="M372.17 22.1201C372.25 22.8701 372.02 23.4801 371.54 24.1201C371.34 24.3801 370.7 24.1701 370.43 24.2301L369.14 24.4801C368.79 24.5501 368.47 24.7401 368.11 24.6301C367.66 24.4901 367.33 24.7401 366.96 24.9701L364.64 24.9901C363.1 26.5001 362.41 25.6001 362.59 28.7701L362.72 30.9501C362.75 31.4501 362.83 31.8801 362.81 32.3801C362.8 32.6201 362.91 33.1301 362.94 33.3601C362.84 34.4601 363.01 35.4101 363.3 36.4601C363.41 36.8601 363.22 37.4901 363.48 37.9701L363.15 39.0701C363.37 39.5701 363.47 39.9501 363.49 40.4201L363.53 41.6201C363.55 42.2201 363.64 42.9301 363.58 43.4801L363.42 44.8801C363.34 45.6201 363.5 46.2801 363.91 46.9101L363.58 47.5701L363.8 49.2901C363.86 49.7901 363.83 50.1301 363.89 50.6601L364.06 52.0601C364.13 52.6601 364.06 53.2901 364.14 53.8001C364.2 54.2001 364.34 54.6401 364.37 55.0401L364.52 57.0801C364.55 57.5901 364.54 58.1101 364.52 58.6301C364.51 59.0101 364.95 59.6201 364.58 60.1201C364.42 60.3401 364.84 60.9501 364.84 61.2201C364.84 61.6001 364.86 62.1601 364.96 62.5301L365.36 64.0701C365.09 64.8101 365.7 66.5801 365.99 67.3201C366.19 67.8201 366.33 68.6201 366.49 69.1701C366.56 69.4101 367.06 69.7101 367.23 69.8901C368.18 70.9401 370.02 72.0101 371.5 72.0301L373.29 72.0501C373.66 72.0701 374.33 72.3801 374.74 72.5501C375.32 75.1001 374.95 73.4001 374.91 75.4201C374.9 75.7501 374.48 76.2601 374.13 76.2401C373.6 76.2001 373.4 76.2801 373.09 76.5901C372.73 76.9401 371.92 76.6401 371.51 76.7601C370.86 76.9601 370.37 77.0901 369.69 77.0101C367.65 76.7501 366.9 77.4301 364.23 75.4901C363.67 75.0801 362.99 74.5701 362.63 74.0501L362.05 73.2201C361.23 72.0701 360.9 70.6601 360.54 69.3201C360.46 69.0401 360.26 68.6501 360.42 68.4101C360.82 67.7901 360.48 67.4801 360.32 66.9201L360 65.8601L360.14 64.9001C359.72 64.6101 359.73 64.3601 359.7 63.9301L359.6 62.4701C359.57 62.0801 359.14 61.5501 359.51 61.1001C359.65 60.9001 359.16 60.3601 359.08 60.1901L359.46 59.1901C358.73 58.8901 359.02 58.4401 358.96 57.9501C358.89 57.4101 358.76 56.9001 358.96 56.4201L358.61 52.8301L358.52 51.7401C358.48 51.2701 357.98 50.6501 358.61 50.1301L358.17 49.3201C358.53 48.6701 358.31 48.1401 358.26 47.4901C358.22 46.9601 358.22 46.4901 358 46.0401L358.29 45.0501C357.94 44.6501 357.86 44.1801 358.21 43.7301L357.75 43.0001L357.73 41.9401C357.65 41.5101 357.69 41.0401 357.64 40.7001L357.49 39.3801L357.27 37.8001C357.2 37.3701 357.18 36.9501 357.17 36.5001L357.08 34.3101C357.06 33.8401 357.15 33.4001 357.03 32.9001L356.67 31.3701V29.4001C356.67 28.4801 356.61 25.6201 355.29 25.7401L353.62 25.8901L352.53 26.7001C352.39 26.3601 352.09 25.8501 351.84 25.9701C351.29 26.2401 350.79 25.9701 350.29 25.9701C349.6 25.9801 348.93 26.3501 348.35 25.7301C347.71 25.0501 347.77 24.1901 347.81 23.2801C347.84 22.6001 347.67 21.9901 348.32 21.4001C348.8 20.9501 349.84 20.7601 350.55 20.6301L351.89 20.3801L353.39 20.5201C354.03 20.5901 354.45 20.5201 354.95 20.1401C355.53 19.7101 355.69 19.2401 355.91 18.5701C356.04 18.1701 356.26 17.8101 356.09 17.3401C355.18 14.7701 356.09 16.3001 355.82 14.1801L355.63 12.7301L355.51 11.2401C355.46 10.7301 355.56 10.1801 355.41 9.60006C355.24 8.91006 355.6 8.05006 356.26 7.57006C357.25 6.87006 359.08 6.75006 360.13 7.59006C360.82 8.14006 361.14 9.32006 361.24 10.1301C361.31 10.8001 361.63 11.5301 361.64 12.1201C361.64 12.7701 361.57 14.6501 361.98 15.2901C361.56 15.9701 361.67 16.7201 361.97 17.4701C362.76 19.4601 362.12 18.1001 363.95 19.5801L364.5 19.2801C364.62 19.2101 364.97 19.5401 365.12 19.5201C365.61 19.4101 366.42 19.2001 366.97 19.5501L367.81 18.9701C368.49 19.4601 369.04 19.4701 369.81 19.1201L371.64 19.6501L372.08 20.9301L372.2 22.1001L372.17 22.1201Z" fill="#90BEFB"/>
<path d="M325.79 22.6806C324.88 25.6906 325.28 25.1606 323.79 25.4706C322.91 25.6506 321.98 25.8506 321.12 26.1006C320.5 26.2806 319.88 26.8106 319.19 26.6806C318.61 26.5706 318.15 26.6406 317.68 26.9806C317.08 27.4206 316.35 27.6206 315.72 27.9906C315.17 28.3106 314.6 28.8606 313.98 29.1706C312.61 29.8606 313.09 30.4506 311.95 31.8606C311.54 32.2106 311.16 32.6406 310.95 33.2306L310.12 35.6606C309.94 36.1806 309.44 36.4706 309.91 37.1406C308.68 39.9706 308.99 40.1306 309.21 42.9706C309.5 46.8606 310.64 45.5306 310.78 46.4306C310.93 47.3606 309.99 47.5806 309.86 48.4006C310.4 48.9506 310.23 49.4006 310.05 50.0206L309.99 51.1906L309.89 52.9706C309.86 53.4006 310.44 53.9506 309.89 54.4706L310.12 55.5506C309.9 55.6806 310.48 58.0006 310.63 58.0006L310.88 60.5206C310.95 61.2306 310.64 61.8006 310.95 62.5306C311.11 62.9206 310.65 63.7006 310.71 64.0906C311.08 66.2706 310.22 65.0306 310.67 66.8406C310.67 66.8306 310.96 69.3806 310.68 69.3906L310.78 70.1706C310.78 70.7606 310.82 71.2606 310.89 71.8406C310.95 72.3506 310.88 73.0206 311.13 73.5106C311.55 74.3206 311.35 75.0306 311.22 75.7906C311.32 76.1706 311.44 76.7806 311.47 77.2206L311.59 78.7406C311.67 79.8006 311.62 81.1406 310.51 81.7106C308.36 82.2606 309.38 81.6506 307.46 82.1106C307.04 82.2106 306.19 81.8806 306.03 81.4806L305.59 80.4006C305.63 79.9006 305.48 79.4106 305.44 79.0506C305.38 78.4206 305.56 77.8206 305.28 77.1506L304.76 75.9106C304.62 75.5706 304.54 75.2006 304.44 74.8306C304.14 73.7306 303.74 72.8106 303.94 71.5906L304.32 69.3006C304.23 69.1506 304 68.8706 304.02 68.7206C304.04 68.5806 304.19 68.4106 304.34 68.1506C304.64 67.6406 303.97 67.1006 304.45 65.5006C304.28 65.0406 304.17 64.6306 304.17 64.1606L304.14 62.9906L303.74 62.2406C303.79 62.0206 303.89 61.6606 303.92 61.4706C303.95 61.2906 303.52 61.0106 303.4 60.8306C303.65 60.2006 303.7 59.5206 303.43 58.9006C303.04 58.0106 303.5 57.0606 303.53 56.2106C303.56 55.6006 303.31 54.8706 303.41 54.2306C303.51 53.5106 303.3 52.8206 303.24 52.1006C303.17 51.3206 303.31 49.9906 302.51 49.0406C301.06 47.3106 302.78 46.3406 302.67 45.0606C302.62 44.5006 302.7 44.0506 302.67 43.5106L302.6 41.6206C302.58 41.1206 302.59 40.5106 302.49 40.0406L302.19 38.5506C302.1 38.0906 302.19 37.6506 302.19 37.1806C302.19 36.6806 302.16 36.0406 302.13 35.5606L302.05 34.0206C302 33.0206 301.89 31.9406 301.76 30.9006L301.52 29.0106C301.46 28.5306 300.87 27.8606 300.69 27.4506C300.8 26.9906 300.91 26.5206 300.69 26.0806L300.92 25.0706C300.7 24.5806 300.72 24.2506 300.88 23.8206C301.27 22.8006 301.9 22.1306 303.03 22.3806C303.84 22.5606 304.7 22.3506 305.56 22.1606C306 22.3006 306.67 22.5706 307.06 22.7606C307.27 23.1006 307.59 23.6906 307.9 23.7306C308.53 23.6106 309.14 23.3806 309.63 23.6106L310.24 23.8906C310.39 23.9606 310.66 23.5506 310.77 23.4206C311.14 23.4206 311.63 23.4206 311.92 23.2506L313.12 22.5806L314.74 21.6606C315.64 21.1606 316.64 20.6106 317.7 20.3806L320.5 19.7606C321.64 19.5006 323.07 19.5206 324.12 20.0806C324.59 20.3306 325.14 21.0006 325.43 21.4206C325.5 21.7806 325.62 22.2806 325.75 22.6706" fill="#90BEFB"/>
<path d="M212.21 30.7591L212.55 31.6491L212 32.6991L210 33.3391L207.56 33.6291L205.28 34.3391L203.82 34.8391C202.2 35.3991 201.24 36.6691 200.15 37.5991L199.36 38.2791L198.62 39.8391L197.68 42.0691C197.43 42.6591 197.03 43.1391 196.91 43.7591C196.4 46.3191 195.73 45.9991 196.34 47.2391L195.95 48.2991C196.18 48.9991 196.1 49.5891 196.11 50.2891V51.9591L196.12 53.7591L196.24 56.5291C196.3 57.9691 196.6 59.1891 196.59 59.2791L196.51 62.3491C196.47 63.7891 196.73 65.9691 197.07 67.4091C197.46 69.0791 197.92 69.6991 197.97 71.2691C197.98 71.6391 198.08 71.9391 198.18 72.3491C198.32 72.8991 198.26 73.7891 198.32 74.3891L198.76 74.8491C198.88 74.9691 198.67 75.3491 198.57 75.5391C198.47 75.7291 198.46 76.2691 198.38 76.4791C198.12 77.1491 197.94 77.7391 198.32 78.4791L198.25 79.7391C198.67 80.4191 198.64 81.1091 198.66 81.8591L198.71 83.5391L198.73 84.9491L198.94 85.6191C198.54 87.4691 199.64 87.5391 197.94 90.0791L196.86 90.5191L194.95 90.2691C194.27 90.1791 193.31 90.4391 193.07 89.6091C192.99 89.3091 193.05 88.8091 192.61 88.4991L192.57 87.6191L192.14 86.9891C192.03 86.8291 192.38 86.4291 192.52 86.2491C192.35 85.7591 191.95 84.9791 191.91 84.4991L191.78 83.1191L191.67 81.6191C191.56 80.1191 191.75 80.1091 191.47 78.3291C191.35 77.5991 191.25 76.8991 190.9 76.1691C190.77 75.8791 190.92 75.2191 190.89 74.8991C190.71 73.4291 190.86 72.1391 190.96 70.7091L191.09 68.8891C191.12 68.4891 191.01 67.7491 190.96 67.3091L190.71 65.4191C190.65 64.9491 190.61 64.5591 190.59 64.0691L190.35 63.0591L190.21 61.8791C190.1 61.0091 190.04 60.1391 190.01 59.2791L189.98 58.2891L189.88 55.8391L189.8 54.3691L189.69 52.4691C189.62 51.2691 189.55 50.1091 189.34 48.9291L189.08 47.4491C188.95 46.7191 188.79 45.8291 188.81 45.1691L188.89 42.7491C188.9 42.2891 189.33 41.7891 188.65 41.3991L188.9 40.5091C188.68 40.1291 188.57 39.7591 188.7 39.3991C189.14 38.1991 188.42 37.1591 188.27 36.0991C188.17 35.3391 188.17 34.5191 188.01 33.7491L187.77 32.5091C187.65 31.8591 188.31 30.6291 189.03 30.4991L190.58 30.1891C190.7 30.1691 191.06 30.2791 191.18 30.2691C191.32 30.2691 191.44 30.0291 191.59 29.8091L193.15 29.6391C195.39 31.4391 194.09 32.8291 195.52 33.1391L195.23 33.4791C194.75 34.0291 196.63 33.7491 197.14 32.4091L198.21 31.3791C198.6 30.9991 199.32 30.7191 199.65 30.3391C200.55 28.8691 200.84 30.5091 202.28 28.7691C203.29 28.6091 204.47 28.4591 205.38 28.1391C205.95 27.9391 206.32 27.9491 206.93 28.0991C207.31 27.8191 207.87 27.2491 208.51 27.4291L209.22 27.0391C211.93 27.7991 211.26 27.2391 212.01 29.0091C212.24 29.5391 212.73 30.1191 212.17 30.7291" fill="#90BEFB"/>
<path d="M342.35 47.4391C342.33 47.6091 342.6 47.8991 342.77 48.0591C342.67 48.5891 342.42 49.3591 342.39 49.9291L342.3 51.7791C342.26 52.5891 342.62 54.7291 342.63 56.5591C342.63 56.8091 343 57.2891 342.87 57.4891C342.29 58.4091 342.63 57.8191 342.9 59.6791C342.98 60.1991 342.97 60.8191 342.86 61.3191C343.68 62.9391 342.51 62.1791 342.99 63.9691L342.83 65.0091C343.32 65.5391 342.98 66.0691 342.99 66.6991C343.05 69.3091 343.51 67.7391 343.37 69.6891L343.64 70.2591C343.71 70.3791 343.55 70.6391 343.43 70.8291C342.92 71.6391 343.72 71.1891 343.58 72.3291C343.55 72.6191 343.64 72.9091 343.77 73.2891L344.2 74.5591C344.18 75.0491 343.95 75.6691 344.28 76.1991L344.07 77.3691C344.21 77.9291 344.27 78.3191 344.01 78.7691C343.75 79.2191 343.37 79.4891 342.84 79.6791L341.22 80.2391C340.62 80.4491 340.29 80.4791 339.67 80.2891C337.47 79.6291 338.22 78.9591 337.55 76.3891L337.28 75.3491C337.13 74.7691 337.62 73.9191 337.5 73.3091C337.31 72.3691 337.11 71.5391 336.87 70.6291C336.7 69.9591 336.8 69.2091 336.86 68.4991L336.95 67.4091C336.91 66.9391 336.9 66.2791 336.83 65.8391L336.54 64.0791C336.48 63.7291 336.52 63.2491 336.59 62.9391C336.11 61.8291 336.36 60.3491 336.29 59.6391L335.94 55.7091L335.63 52.2691C335.6 51.9091 335.61 51.3591 335.63 50.9591L335.66 50.4391C335.66 50.3091 335.23 50.1791 335.22 50.0591L335.42 48.8891L335.12 47.4291C335.01 46.8791 334.83 46.2591 335.16 45.7591C335.45 45.3191 335.05 44.8791 335.06 44.5591C335.09 43.9091 335.14 43.3191 335.01 42.6491L334.55 40.2091C334.47 39.8091 334.45 39.1691 334.42 38.7291L334.23 35.7791C334.18 35.0191 334.25 34.0891 334.29 33.2891C334.4 30.9891 333.98 30.7291 333.97 30.2191C333.95 29.7091 334.01 29.1891 333.9 28.6891C333.8 28.2291 333.67 27.7891 333.63 27.3691L333.4 25.1891L333.13 24.7291C333.16 24.2791 333.1 23.8591 333.01 23.3791C333 23.0691 333.12 22.3291 333.31 22.0591L334.05 20.9991C335.01 19.6391 337.11 19.9391 338.56 20.1091C338.97 20.4691 339.69 21.0891 339.87 21.5391L340.53 23.1291C340.27 23.9991 340.62 24.8391 341.12 25.4591C341.02 25.7291 340.96 26.0691 340.97 26.3691L340.94 27.0591C341.44 28.9991 340.11 28.0291 341 29.6791C341.09 29.8491 340.89 30.3191 340.91 30.5091L341.04 32.2491C341.35 32.9091 341.92 33.4091 341.5 34.2991C341.24 34.8291 341.49 35.4891 341.47 36.0691L341.44 37.5391C341.43 38.1691 341.48 38.6191 341.79 39.1791L341.4 40.7791C341.36 40.9391 341.79 41.3191 341.71 41.4691L341.31 42.1791C341.48 42.6191 341.68 43.1491 341.76 43.5891L342 44.9291L342.21 46.1991C342.26 46.5391 342.41 47.1191 342.36 47.4491" fill="#90BEFB"/>
<path d="M339.41 5.77994C339.4 6.65994 339.74 7.66994 339.13 8.44994C339.49 9.15994 339.33 10.5499 338.25 10.9199C337.22 11.2799 335.23 11.8699 334.27 11.4699L332.94 10.9099C331.87 10.4599 331.95 9.27994 331.89 8.50994C331.72 6.20994 331.36 6.83994 331.39 3.68994C331.41 1.97994 331.23 1.40994 332.59 0.679939C333.66 0.0999388 334.66 -0.110061 335.9 0.0499388C336.57 0.139939 337.41 0.149939 338.04 0.309939C338.94 0.539939 339.22 1.68994 339.28 2.41994L339.45 4.36994C339.49 4.78994 339.41 5.32994 339.41 5.76994" fill="#90BEFB"/>
<path d="M409.95 34.5092C410.25 33.4892 410.75 32.3892 410.97 31.3192C411.08 30.7892 411.01 30.2392 411.23 29.7492L411.97 28.0392C412.2 27.4992 412.33 26.9392 412.72 26.4492C413.07 25.9992 413.88 23.9292 414.83 22.9392L416.14 21.5692L417.37 20.2592C417.71 19.8992 418.4 19.6992 418.83 19.4392L419.81 18.8592L421.35 17.8692C422.47 17.1492 425.76 15.7492 427.18 15.9892C427.33 15.9092 427.6 15.7392 427.72 15.6592C427.87 15.5692 428.24 15.7892 428.43 15.8592C428.55 15.7192 428.73 15.4892 428.88 15.3992C429.05 15.2992 429.54 15.5892 429.73 15.5392C430.04 15.4492 430.49 15.3192 430.83 15.3992C432.64 15.8092 432.27 14.9492 436.28 16.3592C436.71 16.5092 436.95 16.7392 437.5 16.7192C439.19 16.6392 440.27 18.3792 441.59 18.7492C442.97 19.1292 443.9 20.2892 444.56 21.4892C444.78 21.8792 445.63 21.9592 445.5 22.7192C446.51 22.9692 446.71 23.8992 447.16 24.6792C447.55 25.3592 447.97 26.0092 448.31 26.7192L450.05 30.3192C450.32 30.8792 450.65 31.3592 450.76 32.0592C450.86 32.6492 451.37 33.4692 451.06 34.0692C450.81 34.5492 450.26 35.1192 449.86 35.4992L448.1 35.7892C447.02 35.9692 445.91 36.0392 444.79 36.0592C443.4 36.0892 442.91 36.2492 441.46 36.2192C439.91 36.1792 440.83 36.4292 438.34 36.5092L436.8 36.5692L435.18 36.6892C434.45 36.7392 433.53 36.5192 432.87 36.8292C432.33 37.0792 432 36.9992 431.44 36.9992H429.1C428.15 36.9992 427.59 37.3492 426.26 37.2392C425.93 37.2092 425.2 37.3092 424.9 37.4292C424.23 37.6992 423.9 37.6492 423.19 37.6392C422.76 37.6392 422.11 37.6792 421.64 37.7092L420.27 37.8192L418.7 37.9392L417.1 38.1292C414.84 38.3992 416.16 37.8692 414.26 38.2892C413.97 38.2492 413.36 37.9692 413.09 38.0492C412.47 38.2292 411.91 38.1992 411.31 37.9392C410.8 37.7292 409.89 37.6092 409.72 36.8592C409.52 36.0192 410.52 35.5392 409.95 34.4892M412.08 44.3092C412.46 44.1392 412.97 44.0092 413.34 43.9792C413.59 43.9692 414.1 43.4292 414.3 43.5892C414.73 43.9292 415.27 43.5592 415.59 43.5592H417.24L419.29 43.6392C419.82 43.6592 420.26 43.5792 420.77 43.5192C422.04 43.3592 423.3 43.2592 424.59 43.2092C425.99 43.1492 426.05 42.9992 427.09 42.9092L428.31 42.8092C428.7 42.7692 429.33 42.9192 429.72 42.8692C430.29 42.7892 430.71 42.8392 431.26 42.7492L433.4 42.4192L434.77 42.3392L436.52 42.2292C437.84 42.1492 439.45 42.2592 440.04 42.1892C440.62 42.1292 441.08 42.0192 441.62 42.2292L442.51 41.9692C443.26 42.2592 444.99 41.7392 445.68 41.7192C448.05 41.6392 449.97 41.3092 451.69 41.3092H453.19C454.37 41.3092 455.53 41.4692 456.63 40.7192C457.76 39.9492 458.22 38.5892 458.02 37.2692L457.8 35.9192C457.73 35.4592 457.66 34.8392 457.63 34.3592L457.53 32.7192C457.47 31.8092 457.35 30.9692 456.96 30.1092L455.82 27.5992L455.14 26.1292L454.27 24.2592C453.98 23.6292 453.72 23.0692 453.23 22.5292L452.55 21.0992C452.38 20.7392 452.22 20.0892 451.95 19.9092C451.53 19.6292 451.41 19.4892 451.24 18.9992C451.11 18.6292 450.48 18.1692 450.33 17.7992C450.08 17.1592 449.77 16.9492 449.26 16.5392L446.74 14.5392L445.51 13.7192C445.11 13.4492 444.59 13.1292 444.17 12.8992L442.71 12.1192L440.76 11.4192L439.49 10.8192C439.21 9.89921 438.42 10.1992 437.85 10.1392L434.49 9.79921C434.15 9.75921 433.63 9.53921 433.23 9.56921L431.42 9.66921C430.6 9.71921 428.34 9.67921 427.98 9.74921L425.63 10.1792L424.51 10.4392C423.72 10.6192 422.82 10.6992 422.09 10.9992C421.37 11.2992 420.7 11.7092 419.96 11.9292L418.73 12.2892C418.36 12.3992 417.84 12.7192 417.46 12.9292L416.23 13.5992C414.71 14.4192 415.02 14.5392 413.38 15.2492C412.95 15.4292 412.7 16.2192 412.35 16.4992L411.18 17.4392C410.17 18.2592 410 19.4292 409.42 20.0192C408.98 20.4692 408.7 20.6392 408.47 21.2192C408.25 21.7692 407.64 22.3492 407.48 22.8892C407.36 23.2592 407.29 23.5892 407.13 23.8892C406.6 24.8692 405.99 25.8092 405.63 26.8492C405.42 27.4592 405.11 28.1492 404.95 28.7392C404.64 29.8592 404.29 31.0692 404.12 32.2492L403.7 35.2092C403.61 35.8392 404.08 36.6292 403.44 37.2692L403.75 38.5192C403.55 39.0392 403.66 39.2992 403.64 39.7992L403.58 41.4492C403.63 41.1092 403.86 44.9892 403.79 44.5192C404.1 46.6292 403.8 45.9792 404.47 47.9292C404.4 48.1192 404.15 48.5192 404.26 48.6392L404.7 49.1192C404.61 51.4492 404.65 50.1592 405.34 52.1992C405.61 52.9992 406.05 53.8492 406.12 54.6592C406.16 55.1292 406.17 55.3192 406.41 55.7292C406.63 56.1092 406.76 56.6492 406.95 57.0692C407.11 57.4192 407.44 57.8992 407.41 58.2292C407.34 59.1292 408.1 59.4292 408.33 60.0092C408.79 61.1592 409.45 62.0192 410.3 62.9292C410.56 63.2092 410.68 63.9592 411.08 64.2692C412.07 65.0192 411.68 65.4292 412.92 66.5792L413.71 67.3092C414.6 68.1392 415.78 69.2292 416.85 69.6292C417.22 70.1092 417.84 70.5292 418.55 70.7092C421.31 71.4092 420.79 71.9492 424 72.3792C424.95 72.4992 425.91 72.9492 426.93 72.9092C427.53 72.8892 428.3 73.0892 428.82 72.9892C429.99 72.7492 430.98 72.7492 432.14 72.8692C432.58 72.9192 433.17 72.5392 433.63 73.0092L434.61 72.6092C436.41 72.7492 434.81 72.5092 436.76 72.5792C436.88 72.5792 436.94 72.3492 437.05 72.1192C437.38 72.1392 438.07 72.4292 438.4 72.3492L439.47 72.0892L440.96 71.8092C441.34 71.7392 442 71.3292 442.4 71.1192C444.23 70.1492 443.38 71.2592 444.56 70.0792H445.25C445.59 69.7292 446.41 69.3192 446.84 69.1892C446.99 69.1492 447.24 68.7992 447.36 68.7492L448.86 68.0892C449.21 67.9392 449.69 67.7192 450.02 67.5992C450.39 67.0392 450.71 66.5392 451.45 66.2692C451.97 66.0892 452.31 65.2392 452.66 64.7992L454.12 62.9892C455.16 61.7092 454.39 62.1592 455.91 60.1392C456.37 59.5392 456.55 58.6392 456.93 57.9792C457.28 57.3692 457.49 56.7992 457.67 56.1092C457.97 54.9392 458.41 53.7592 457.94 52.5992C457.67 51.9392 457.27 51.4292 456.58 51.2392C454.9 50.7792 454.41 50.6392 452.86 51.4992C451.87 52.8092 451.08 54.1792 450.62 55.7792C449.62 59.2792 450.31 56.9092 448.36 59.9292C447.61 61.0992 446.23 61.7892 445.07 62.6192L443.59 63.6792C443.29 63.8992 442.52 63.9292 442.19 64.1392C441.82 64.3692 441.36 64.4792 441.01 64.6692C439.98 65.1992 438.97 65.5292 437.86 65.8492C437.1 66.0592 436.57 66.3092 435.71 66.2192C435.32 66.1792 434.61 66.5292 434.21 66.3792C433.4 66.0792 432.75 66.1492 431.96 66.1692C429.13 66.2392 430.58 65.6692 429.08 66.0792C426.81 65.9092 428.29 65.6792 425.48 65.5592C424.67 65.5292 423.87 64.7892 423.14 64.5692L422.12 64.2592C421.91 64.1992 421.43 64.0992 421.3 63.9292C421 63.5192 420.29 63.3292 419.98 63.0892L418.45 61.9592C417.46 61.2192 415.73 59.0092 415 57.9292L414.27 56.8592C413.61 55.8792 413.12 55.0592 412.66 53.9792L411.73 51.7692C411.59 51.4492 411.52 51.2792 411.48 50.8892C411.22 48.6192 410.74 48.8692 410.52 47.2892C410.4 46.4492 409.73 45.5592 410.48 44.7192C410.76 44.4092 411.69 44.4992 412.07 44.3392" fill="#90BEFB"/>
<path d="M64.2302 50.1997C64.1902 50.3297 63.9702 50.5097 63.8702 50.5597C63.7702 50.6097 63.5402 50.3097 63.5302 50.1897C63.4502 48.8397 62.3902 48.9597 62.2602 48.3297C62.2102 48.0797 62.9702 47.1797 62.7002 47.3097L63.2402 47.0697L62.9702 46.7397C62.9002 46.6497 62.6602 46.9397 62.5102 47.0497C62.3402 46.9497 62.1302 46.1997 62.3002 45.9797L62.9202 45.1797C63.6402 46.4597 64.1302 46.0397 64.3802 46.7297C64.4502 46.9197 64.2802 47.2897 64.1302 47.5797L64.8102 48.4697L64.2302 50.1797V50.1997ZM58.8602 35.3297L58.0002 35.5197C57.0202 35.5697 56.6802 34.5597 56.2002 33.9897C55.7902 33.5097 55.3002 33.2197 55.0502 32.5897C54.8602 32.1297 54.4402 31.7697 54.1602 31.4097L53.2502 30.2397C52.0602 28.6997 52.1102 29.4697 50.1002 27.4697C49.4402 26.8197 48.8702 26.2197 47.9302 25.9397C47.1502 24.9397 45.9502 24.2897 44.7502 23.8797C43.6202 22.1497 43.7402 23.7197 42.5602 21.6197C42.4902 21.4997 42.3002 21.2497 42.2202 21.1297C42.0202 20.8197 43.5602 18.9197 44.0502 18.5797L45.4202 18.8597C45.6302 18.8997 46.1902 18.6897 46.4002 18.7797C46.7702 18.9597 47.3002 18.8397 47.6702 18.8897C48.0702 18.9497 49.3302 19.2697 49.8102 19.6497C50.1102 19.8897 50.6502 20.2497 50.9302 20.5097C51.5402 21.0697 52.0702 21.5297 52.6902 22.0397C52.9502 22.2497 52.9102 22.9197 53.5402 23.0097C54.1502 23.0997 54.6002 23.6097 54.6302 24.2597L55.3902 24.6497C55.5402 25.2497 56.2002 25.6897 56.4002 26.1597C56.7302 26.9397 57.1402 27.9897 57.7802 28.6197C59.1502 29.9497 59.9502 33.8297 58.8602 35.3397M59.1902 61.6197C59.0002 61.9297 59.1902 62.3897 59.3902 62.6997C58.8902 63.2697 58.9602 63.8697 59.0302 64.5297L59.1902 66.2997C59.2102 66.5997 59.0102 67.1697 59.1502 67.4697C59.5202 68.2797 59.0502 68.9097 59.0302 69.5897C59.0102 70.0697 59.1502 70.6897 59.0702 71.1997L58.7902 72.9297L58.3202 74.8697L58.0102 76.2797C57.7402 77.4897 57.1402 77.6997 56.7302 79.1497C56.3302 80.4997 54.8602 81.5097 53.9502 82.9697C53.7302 83.3197 52.9002 83.6497 52.7302 84.0297C52.3502 84.9097 51.7402 85.0197 51.0302 85.4597C50.6202 85.7197 50.0302 86.2297 49.4602 86.2597C47.7802 86.9797 48.1902 87.6297 47.0002 87.4897C46.5102 87.4297 45.9302 87.9797 45.4702 88.1697C44.3202 88.6397 43.5802 88.8097 42.2802 89.2697C41.4002 89.5797 40.4902 89.7797 39.5902 90.0597C39.2102 90.1697 38.8702 90.1797 38.4402 90.2297C36.1802 90.4797 37.1102 90.6397 34.9202 90.4897C34.6502 90.4697 34.0402 90.7497 33.8202 90.6097C33.4502 90.3897 32.9902 90.0997 32.6202 90.0997C31.8002 90.0997 31.2602 89.6797 30.5602 89.4597C29.8602 89.2597 29.2402 89.0597 28.7002 88.4997L27.6702 87.9897C26.7402 87.5397 25.9502 87.0597 25.1802 86.3497C24.6602 85.8697 23.6902 85.6597 23.2402 85.1597C22.8502 84.7297 22.5902 84.4397 22.1702 84.1097C21.7902 83.8097 21.3602 83.1997 20.9802 82.9997C20.3702 82.6897 20.2402 82.4297 19.8802 81.8797L19.2602 80.9297C18.1902 79.2997 18.6402 78.8597 17.4702 78.3297L16.8802 77.0997L17.0502 76.5197C17.0902 76.3897 16.7702 76.1297 16.7502 75.9797C16.6802 75.2297 16.5002 74.2397 16.0402 73.6297C15.5802 73.0297 15.9202 72.5997 15.8702 72.0497L15.6802 69.6397L15.3702 68.1697C15.3902 68.2497 15.5902 66.6297 14.4402 65.9697C13.9002 65.6597 13.2202 65.0297 12.5102 65.4597C12.1502 65.6897 11.6202 66.1397 11.3002 66.4097C11.3002 67.0297 10.9502 67.5597 10.6602 67.9597C10.8002 68.6497 10.7702 69.3297 10.1602 69.9297L10.3802 70.8497C10.0802 71.3097 10.1702 71.6597 10.2502 72.1797C10.4802 73.6397 9.78024 73.9397 10.7702 75.8497L10.5202 76.5697C10.8002 76.8097 11.0702 76.9897 11.1502 77.1797C11.2202 77.3697 11.1102 77.8497 11.1202 78.0997C11.1202 78.4197 11.4102 79.0697 11.2602 79.3197C11.0602 79.6797 10.9202 79.8997 11.0602 80.3397C11.1702 80.6697 11.5602 80.8397 11.8102 80.9397L12.2302 82.1897C12.3402 82.5197 12.5502 83.0097 12.6802 83.2397C12.7302 83.3197 13.1502 83.1797 13.1902 83.2697C13.2402 83.3797 13.3202 83.7097 13.4102 83.8297L14.5902 85.4097C16.8302 88.3997 17.2402 86.8497 18.4802 89.2797C19.9702 90.3097 21.3202 90.8597 22.9502 91.8997L24.3602 92.8097C24.8602 93.1397 25.2302 93.4897 25.8702 93.6397L26.6002 94.0197C27.4502 93.8397 28.1102 94.5597 29.2302 94.7497C32.0102 95.2397 29.7402 95.3197 33.1402 95.7997C33.8902 95.9097 34.6702 95.7997 35.3202 96.1197C35.6102 95.6897 36.0702 95.4697 36.6302 95.4197L38.3502 95.2497L39.2202 95.0097C39.7002 95.4197 40.1402 95.0697 40.6202 94.9597L42.4802 94.4997L46.1402 93.5597C46.6702 93.4197 47.0202 93.2797 47.6302 93.4297L48.3502 92.7497L49.3902 93.0197C49.5702 93.0697 50.0802 93.0097 50.0402 93.1297C49.9302 93.6397 49.9602 94.0697 50.0502 94.5497L49.5702 94.4797C49.4602 94.4697 49.3602 94.7597 49.2802 94.8697C48.6902 95.6197 46.8202 96.9797 45.9902 97.0097L45.7002 97.4097C45.6202 97.5197 45.1902 97.3297 45.0302 97.3397L43.6502 98.0297C43.2102 97.5797 42.9002 98.1197 42.5302 98.1497C41.3702 98.2597 40.1302 98.5997 38.9502 98.5897H36.9502C36.1302 98.5697 35.4702 98.3897 34.6402 98.5097C31.7302 98.9297 33.0202 97.7397 31.6902 98.7397C29.4902 97.9797 30.4002 98.4897 28.8102 98.2697C26.6302 97.9697 27.0702 97.4097 26.1102 97.7797C25.7302 97.9197 25.4402 97.6597 25.1302 97.5597L23.8302 97.1297C20.5102 96.0297 20.2402 94.9297 18.6302 94.1797C17.9202 93.8497 17.2002 93.4397 16.9502 92.6497L16.3702 92.5497C16.2602 92.5297 16.2302 92.2597 16.1402 92.0397C16.0102 91.6897 15.2202 91.3597 15.0702 91.0197C14.8302 90.4797 14.6102 89.9297 14.2602 89.4597L14.1902 88.7497C14.0702 88.6897 13.8802 88.4397 13.6602 88.0997C13.5902 87.9797 13.5202 87.8597 13.4502 87.7297C13.3802 87.6097 13.3002 87.4697 13.2302 87.3297C13.1802 87.2397 13.1302 87.1497 13.0902 87.0597C13.0502 86.9797 13.0102 86.9097 12.9702 86.8297C12.8502 86.5997 12.7502 86.3797 12.6702 86.1897C12.6302 86.1197 12.6002 86.0497 12.5802 85.9897C12.5802 85.9797 12.5702 85.9697 12.5602 85.9497C12.5302 85.8997 12.5202 85.8497 12.5002 85.8097C12.5002 85.7897 12.4902 85.7697 12.4802 85.7597C12.4602 85.7097 12.4502 85.6697 12.4502 85.6497C12.4502 85.6497 12.4502 85.6497 12.4602 85.6497L11.6402 84.4197L11.5502 83.3797L11.7402 82.9097L10.4902 81.9897C10.8202 80.3497 9.77023 80.6297 9.89023 79.3897L8.70023 78.4797L8.79023 77.4797L8.15023 76.4797C7.86023 76.0297 7.70023 75.7597 7.80023 75.1397C7.90023 74.5597 7.23023 73.7397 7.25023 73.2097C7.29023 72.2497 7.29023 71.1397 6.77023 70.1097C6.83023 69.8797 6.98023 69.5097 7.14023 69.1697C6.39023 68.6397 6.50023 67.7897 6.36023 67.0697L5.90023 64.7997C5.50023 62.8797 5.47023 64.4697 6.07023 61.9797C5.91023 61.7297 5.68023 61.3097 5.79023 61.0997C6.70023 59.4797 5.21023 59.3497 6.67023 56.7297C6.55023 56.2297 6.46023 55.5797 6.73023 55.0297C6.90023 54.6597 6.95023 53.9197 7.22023 53.6097C7.68023 53.0697 7.55023 52.2897 7.70023 51.5197C7.97023 50.1597 8.44023 48.7497 8.96023 47.4297C9.23023 46.7197 9.50024 46.8397 10.0202 44.5197C10.4102 42.8297 10.4702 43.9197 11.3602 41.6997L11.9802 40.1397L12.5602 38.7497C12.8402 38.0897 12.9502 37.4197 13.6302 37.0497L13.4302 36.3897C13.3902 36.2297 13.8302 36.0097 13.9202 35.8597L14.8302 34.2497C14.9002 34.1397 14.8302 33.7097 14.8602 33.5897C14.8902 33.4597 15.2302 33.4397 15.3702 33.3797C15.7402 32.6697 16.2902 31.9697 16.7702 31.3097C17.0702 30.8997 17.2202 30.2197 17.5702 29.8097L18.5202 28.6697L19.1702 27.8597C20.2602 26.5097 20.4602 27.1297 20.8602 25.8697C20.9902 25.4597 21.4602 25.3297 21.7302 25.0997C22.1602 24.7097 22.3502 24.0697 23.0802 24.0897L23.5802 23.5397C25.7502 23.1997 24.8902 22.0597 26.4802 22.8497C27.9202 21.8697 28.3502 22.8097 30.1402 23.5497L29.7802 24.6097C31.0502 25.5497 29.8402 26.7597 29.7302 28.1697C29.6802 28.8697 29.7802 29.3397 29.4802 29.9597C29.3702 30.1797 29.4002 30.5797 29.4002 30.8697V32.3597L29.3702 34.1597C29.3702 34.7697 29.4402 35.5697 29.5302 36.1597C28.7302 37.7497 29.7802 37.4097 29.5802 38.2397C29.3602 39.1797 29.7002 40.0897 29.8402 40.9097C29.9502 41.5897 29.8702 42.1597 30.2502 42.7997C30.4702 43.1797 30.6002 43.7197 31.0102 44.0097C31.5102 44.3797 31.7102 45.0997 32.1002 45.4597L34.0202 47.2797C34.2602 47.4597 34.8502 47.6497 35.1602 47.8397L36.2202 48.4997L38.0202 49.3397C38.1702 49.4097 39.8502 49.5297 41.1402 50.0297C41.3902 50.1297 41.8902 49.9197 42.1302 49.8497C42.5802 49.9097 43.1002 49.9097 43.6002 49.8697L45.2002 49.7397L46.8502 49.6097C48.7402 49.4697 47.5302 49.6497 49.3802 49.1097C50.5802 48.7597 51.8602 48.4097 53.0302 48.1797C53.3402 48.1197 53.9602 48.2197 54.2602 48.2097C54.9002 48.1797 55.3502 48.4397 55.8002 48.8197C57.3602 50.1697 56.3502 50.5297 57.5602 51.4797C58.1102 51.9097 56.8102 51.5997 58.1002 54.1697C58.7202 55.4097 59.0202 56.6397 59.2902 57.9797C59.4202 58.6397 59.3602 59.1597 59.2902 59.8197C59.2202 60.3697 59.5902 61.0097 59.2102 61.6397M35.5302 29.9397L35.9702 29.5397C35.7502 28.8497 36.1902 28.1897 36.8302 27.7797C37.4802 27.3597 38.5802 26.8897 39.2102 27.6597C39.4402 27.6997 39.9902 27.7397 40.1502 27.8797C40.5702 28.3797 41.4102 28.7697 41.9802 29.1097L43.1702 29.8097L44.3302 30.5397C44.9202 30.9097 45.4602 31.3297 46.0202 31.7897C46.4102 32.1097 47.0802 32.1697 47.5302 32.4497C48.1502 32.8397 48.6402 33.6397 49.1702 34.1897C49.7802 34.8097 50.1602 35.5097 50.6402 36.2397C50.6402 36.2397 51.4902 36.8697 51.6802 37.9497C51.7002 38.1097 51.4502 38.2997 51.2302 38.5497C51.0802 38.7197 51.5002 39.1097 51.6602 39.3397C52.0502 39.8597 51.4102 40.5397 51.2002 40.9797C50.8802 41.6197 50.5102 41.9697 49.8402 41.9797C49.5202 42.1697 48.9602 42.7697 48.5902 42.7597C46.8202 42.6997 47.6502 43.5297 44.9802 43.5097H43.7602C42.8502 43.4997 42.0902 43.5397 41.2702 43.1097C40.4002 42.6597 39.3302 42.4097 38.6202 41.7097C38.2102 41.2997 37.8702 41.0097 37.2902 40.7897L37.0002 39.7497C36.5602 39.3297 36.3302 38.9497 36.1802 38.3997L35.9302 37.4697C35.7002 36.6197 35.4102 35.7097 35.4402 34.8697C35.4402 34.6297 35.2502 34.1597 35.2402 33.9297C35.1602 31.5197 35.6502 32.6497 35.6702 30.5197C35.6702 30.3797 35.4202 30.0297 35.5202 29.9297M85.6802 10.6197C85.3702 9.47966 84.0702 9.20966 83.1902 9.60966C81.8802 10.1897 81.2302 11.0797 80.4402 12.1297L78.6802 14.4897L76.9402 16.8497C76.5802 17.3397 75.9702 17.8797 75.5402 18.3897L74.5502 19.5897C73.8902 20.3797 73.0702 21.0197 72.6102 21.9597C72.1102 22.9997 71.2602 23.7997 70.7002 24.8197C69.8302 26.3897 68.4402 27.5297 66.8102 28.2897C66.0502 27.8597 65.1702 27.6897 64.5302 27.1497C63.8502 26.5697 63.2402 25.7097 62.7602 24.9397C62.5402 24.5897 62.5302 23.9997 62.1902 23.6497C61.4802 22.9297 61.6302 22.1297 60.6502 20.7497L59.8902 19.6897L58.9602 18.3697C58.2902 17.4297 57.2302 16.7597 56.3602 16.0197L54.9902 14.8497C54.2602 14.2297 53.6602 13.7697 52.7002 13.4497C52.3402 13.3297 51.9102 13.3397 51.5502 13.2697C51.0802 13.1797 50.6002 13.0797 50.0302 13.0197C49.2902 12.9397 48.5502 12.2497 47.7602 12.4297C47.0602 12.5897 45.5402 12.4097 45.3402 12.1297H45.1902L44.2002 12.4597C43.7302 12.6097 43.3702 12.6297 42.8502 12.6897L41.5102 12.8397C41.0502 12.8997 40.1702 13.2797 39.7902 13.5597C39.3902 13.9697 39.0702 14.2797 38.6802 14.5897L36.5602 16.2297C36.0402 16.6397 35.4702 17.1897 34.6202 16.9097L33.4802 17.2797C32.0902 17.7397 31.9402 17.0897 30.1102 16.9497C29.4302 16.8997 27.7302 17.0197 27.6802 16.9897C26.3602 16.3697 26.8602 17.6197 25.4602 17.0197C23.0802 18.0797 23.5002 17.4797 20.8302 19.0897C20.3702 19.3697 19.9002 19.8697 19.3302 20.1697C18.7102 20.4897 18.2602 20.9797 17.7602 21.4197C17.3402 21.7897 16.9902 22.3697 16.5902 22.8097C16.3202 23.1097 15.5502 23.2597 15.4002 23.8497C15.2002 24.6197 14.3002 24.8397 14.0302 25.5697C13.7102 26.4897 13.5402 25.2097 13.2202 27.0497C12.6402 27.2697 12.4902 27.7997 12.2202 28.2797L11.4902 29.5897C11.3602 29.8297 11.1702 30.3297 11.0102 30.5497C10.5402 31.2097 10.0502 31.9397 9.67023 32.6897C9.19023 33.6197 8.46023 34.3897 7.91023 35.3097C6.61023 37.5197 7.74023 36.3897 6.86023 37.8197C6.13023 39.0097 6.12023 39.1897 5.54023 40.3497C5.54023 41.0297 4.82023 42.7397 4.47023 43.6097L4.01023 44.7397C3.09023 47.0597 3.70023 47.2697 3.37023 48.0497C3.06023 48.7797 2.80023 49.4697 2.90023 50.2597L2.43023 50.6597C2.30023 50.7697 2.53023 51.2497 2.51023 51.4197C2.44023 51.8197 2.26023 52.4797 2.11023 52.8797C1.72023 53.9397 1.91023 54.1097 1.35023 55.4297C1.54023 56.3097 1.33023 57.0297 1.00023 57.8197C0.830234 58.2297 0.730234 58.8397 0.520234 59.1997C-0.289766 60.5997 1.48023 59.9797 -0.00976562 61.7897L0.270234 65.3197C0.580234 65.3897 0.450234 65.9297 0.540234 66.1297C1.84023 68.7197 0.560234 68.5397 1.22023 71.5897C0.710234 72.1697 1.53023 72.7597 1.51023 73.1897C1.49023 73.7397 1.32023 74.3197 1.80023 74.8097C1.62023 75.0697 1.40023 75.3697 1.35023 75.5597C1.30023 75.7497 1.59023 76.1397 1.73023 76.3297C1.30023 76.8797 1.64023 77.4197 1.76023 77.9697C1.94023 78.7597 2.12023 79.2797 2.67023 79.9097C3.35023 82.2097 2.74023 81.0097 4.18023 82.5697L4.52023 83.8497L4.94023 84.9897L5.59023 86.3697L6.16023 87.5697C6.46023 88.2097 6.66023 88.8997 6.91023 89.4997L7.79023 91.6597C8.07023 92.3597 8.64023 93.0497 8.95023 93.7497C9.14023 94.1697 9.23023 94.2597 9.62023 94.4897C10.4502 94.9597 10.4002 96.1997 12.4102 97.6097L13.9902 98.7297C14.1302 98.8197 14.7202 98.6997 14.7402 98.8397L14.7902 99.5297C14.8002 99.7997 15.3902 99.9697 15.7302 99.9997C16.1002 100.03 16.4502 100.47 16.7202 100.57L18.1902 101.15C18.6002 101.31 19.2902 101.45 19.5302 101.79C19.7902 102.18 19.9502 102.45 20.4502 102.38C20.8902 102.32 21.3802 102.71 21.7002 102.75C22.1902 102.81 22.5302 102.87 23.0202 103.05C23.7002 103.31 24.3902 103.47 25.0502 103.79C25.6102 104.07 26.4202 103.9 27.0302 104.1C27.5102 104.25 27.9502 104.23 28.3202 104.1C29.6102 104.48 30.8102 104.51 32.1702 104.56L34.5502 104.65C35.1902 104.67 35.8302 104.79 36.4902 104.75C37.3902 104.7 39.1102 104.45 39.3602 104.46C39.9602 104.5 40.2602 104.46 40.8102 104.32C41.5502 104.13 42.4902 104.57 43.0602 103.64L43.3902 104.18C44.2102 103.65 45.1102 103.69 45.9902 103.42C46.5902 103.24 47.3702 103.03 47.9302 102.78L50.7702 101.51C50.9202 101.2 51.2402 100.87 51.6202 100.73L53.1302 100.18C53.4802 100.05 53.8402 99.2797 54.1402 99.0897L54.9902 98.7897L55.9802 97.8697L57.4902 96.2397L57.7002 95.6397C58.3702 95.2397 59.0702 94.4397 59.4902 93.8197L60.4402 92.4397C60.7902 91.9397 61.3502 91.3997 61.6102 90.8797L62.2302 89.6097C62.6702 88.6997 63.2102 87.9397 63.8602 87.1397C64.2502 84.9197 64.7402 85.9297 65.0302 85.4397C65.1302 85.2597 65.1202 84.7697 65.2002 84.5697L66.0302 82.4997C66.8402 80.4497 67.2202 80.9997 67.2802 79.4897C67.2902 79.0897 67.9402 78.5197 67.9802 78.0497C68.0402 77.3997 68.5202 76.8497 68.6502 76.3197C68.8402 75.5397 68.9902 74.9397 69.3602 74.2497C69.5202 73.9497 70.0802 72.4497 69.7102 71.9397C70.1002 71.5397 70.4002 71.0797 70.2002 70.5297L70.6002 69.3797C70.8102 68.8097 70.6102 68.2697 70.5902 67.6797L70.5502 66.4797C70.5302 66.1297 70.6102 65.7697 70.7002 65.3897L71.2202 63.3797C71.2902 63.1097 70.8402 62.5397 71.1902 62.2097C71.3802 62.0197 71.0702 61.4197 70.9402 61.2097C71.1202 60.4497 71.1802 59.5797 71.1602 58.8097L71.1002 57.1097C71.0602 55.8297 70.9702 54.5897 70.7902 53.3197L70.6602 52.3997C70.6302 52.2397 70.9102 51.8597 70.9402 51.6797C71.0602 50.7997 71.1802 49.5697 71.2302 48.7397C71.2302 48.5997 70.9902 48.2697 71.0602 48.1797L71.4202 47.6997L70.7002 46.0197C70.5302 45.6197 70.4602 45.2997 70.3802 44.8897C69.9002 42.4297 69.1502 43.3197 69.4302 41.3297C69.2902 41.1697 69.0002 40.6797 69.1102 40.5297L69.6702 39.7397L69.1802 39.3497C69.0402 39.2397 69.2402 38.7897 69.2702 38.6097L69.4602 37.6997L70.6502 35.9397L71.6302 34.5897C72.0502 34.0097 72.9502 33.6597 73.0102 32.7497L73.9502 32.4197L75.6702 28.5097C76.5302 26.5597 77.0302 27.6097 76.9102 25.8897C78.3002 24.7197 77.6102 24.3797 79.2302 22.9397L80.5502 21.7697L81.8402 20.4997C82.2102 20.1397 82.7502 19.6197 83.0902 19.2597C83.6302 18.1597 84.3002 16.9797 84.8902 16.0397C84.9502 15.7497 85.1202 15.1797 85.2102 14.9197L85.5702 13.8097C85.9802 12.5497 86.0102 11.8697 85.7002 10.6997" fill="#90BEFB"/>
</g>
</g>
<defs>
<clipPath id="clip0_2561_5583">
<rect width="514.36" height="104.73" fill="white"/>
</clipPath>
</defs>
</svg>
