<svg width="452" height="103" viewBox="0 0 452 103" fill="none" xmlns="http://www.w3.org/2000/svg">
<g clip-path="url(#clip0_2561_11029)">
<mask id="mask0_2561_11029" style="mask-type:luminance" maskUnits="userSpaceOnUse" x="0" y="0" width="452" height="103">
<path d="M451.64 0H0V102.29H451.64V0Z" fill="white"/>
</mask>
<g mask="url(#mask0_2561_11029)">
<path d="M198.9 39.6207C198.07 42.9007 195.8 45.5707 192.56 46.7007C191.4 47.1107 190.24 47.5607 188.92 47.5607L164.88 47.5907C164.17 47.5907 163.54 46.9707 163.54 46.2607V27.1907C163.53 26.5907 163.74 25.6307 164.46 25.4707H189.56C190.31 25.4707 191.13 25.7907 191.77 26.0007C195.33 27.1707 197.9 29.6707 198.87 33.3307C199.5 35.7207 199.52 37.1907 198.9 39.6207ZM211.86 33.8607C211.8 32.3707 211.48 31.0407 211.06 29.6507C210.74 28.5607 210.44 27.6007 209.9 26.6307L209.07 25.1307C208.36 23.8507 207.52 22.7207 206.51 21.6307C204.06 18.9807 198.71 16.2007 195.39 15.6507L191.25 14.9707H151.79C151.09 14.9807 150.94 16.0807 151.14 16.5907V86.9507C151.43 87.7007 152.32 87.4807 152.88 87.4707C155.25 87.4207 157.53 87.3907 159.86 87.5007C160.93 87.5507 161.99 87.6507 163.07 87.5207C163.58 87.4507 163.73 86.5707 163.53 86.1207V59.4407C163.53 58.9307 164.01 58.2607 164.41 58.1007L191.16 58.0707C192.03 58.0707 192.91 57.7507 193.79 57.6307C197.56 57.1307 201.09 55.5707 204.22 53.4407C205 52.9107 205.65 52.3007 206.33 51.6507C206.41 51.5807 208.24 49.2807 208.25 49.2807C209.1 47.9107 209.85 46.5607 210.56 45.1007C210.87 44.4707 210.94 43.6507 211.17 42.9707C212.11 40.2107 211.99 36.8007 211.88 33.8707" fill="#90BEFB"/>
<path d="M279.18 15.2801L266.47 27.8901L246.77 47.4301L239.15 54.9401H229.45V87.4301H217.39C216.8 87.3201 216.72 86.3101 216.95 85.8201L216.92 52.2401V49.8701V21.9001C216.92 21.1501 216.8 20.5701 216.88 19.8301C216.99 18.8601 216.96 17.8601 216.9 16.8701C216.86 16.3201 216.56 15.5401 217.16 15.1301H229.15C229.62 15.1301 229.75 15.7701 229.75 16.1401V42.9101C229.75 44.1001 230.75 44.4601 231.59 44.5001C232.81 44.5501 233.6 44.1901 234.42 43.3401L236.24 41.4501L237.74 39.9201C238.25 39.4001 238.75 38.9401 239.23 38.4001L240.12 37.4001C240.48 37.0001 241 36.6401 241.35 36.2001C241.86 35.5601 242.45 35.1201 243.01 34.5401L246.78 30.6401L249.27 28.1401L251.43 25.9801C252.09 25.3301 252.72 24.7001 253.36 24.0201L255.04 22.2401C255.52 21.7301 255.95 21.2601 256.49 20.8001C257.36 20.0501 258.92 18.5001 259.64 17.6301C260.43 16.6701 261.17 15.6601 262.38 15.1201L277.7 15.1001C278.22 15.1001 278.73 14.8401 279.19 15.2901" fill="#90BEFB"/>
</g>
<path d="M296.14 15.0996H283.61V87.8496H296.14V15.0996Z" fill="#90BEFB"/>
<mask id="mask1_2561_11029" style="mask-type:luminance" maskUnits="userSpaceOnUse" x="0" y="0" width="452" height="103">
<path d="M451.64 0H0V102.29H451.64V0Z" fill="white"/>
</mask>
<g mask="url(#mask1_2561_11029)">
<path d="M451.64 49.6094V50.4694C451.64 62.6694 451.62 74.9394 451.47 87.2494C451.47 87.4794 451.25 87.8494 451.08 87.8494C449.77 87.8494 448.61 87.8894 447.37 87.7794C446.13 87.6694 444.99 87.6794 443.72 87.8394C443.31 87.8894 442.41 87.9094 442.21 87.5294C441.9 86.9194 441.87 86.1994 441.81 85.5594L441.67 84.2394C441.53 82.8194 441.77 81.0494 440.54 81.0894C440.15 81.0994 439.38 81.3694 439.07 81.6094C438.08 83.1694 436.69 84.1994 435.15 85.1994C433.44 86.2994 432.02 86.9394 430.04 87.5694C429.57 87.7294 429.01 87.9594 428.55 88.0294C427.39 88.2094 426.41 88.4894 425.27 88.7994C425.27 88.7994 424.72 88.8494 424.17 88.9094C424.13 88.9094 424.12 88.9094 424.14 88.9094C424.03 88.9194 423.91 88.9294 423.79 88.9494C423.74 88.9494 423.73 88.9494 423.76 88.9494C423.68 88.9594 423.6 88.9694 423.53 88.9794C423.43 88.9794 423.38 88.9894 423.37 88.9894C423.29 88.9994 423.22 89.0094 423.15 89.0194C422.68 89.0694 422.38 89.1094 422.41 89.1094C419.79 89.1494 415.38 89.2494 412.95 88.7694L410.12 88.2094C407.2 87.6294 406.14 87.1494 403.46 86.0994C401.39 85.2894 398.36 83.2194 396.63 81.8294L395.35 80.7994L394.1 79.7594C393.68 79.4094 393.3 79.0194 392.97 78.5694L390.21 74.8494C389.09 73.3494 387.55 70.6794 386.91 68.9894L386.03 66.6694C385.66 65.6994 385.42 64.6794 385.14 63.6694C384.86 62.6594 384.72 61.6094 384.49 60.5494C384.15 58.9794 383.8 57.4794 383.75 55.8394C383.65 53.0494 383.64 50.2894 383.75 47.4994C383.82 45.6794 384.13 43.9794 384.51 42.2394C384.72 41.2594 384.88 40.2994 385.15 39.3794L386.18 35.8994C386.43 35.0494 386.79 34.1494 387.22 33.3594L388.98 30.1194C389.25 29.6194 389.5 29.1294 389.84 28.6794L392.4 25.3094C393.97 23.2394 394.85 22.7694 396.83 21.1194C399.09 19.2394 401.61 17.9494 404.25 16.7094C405.91 15.9394 408.16 15.1294 409.95 14.7894L413.32 14.1394C414.07 13.9994 414.73 13.8594 415.52 13.8894C416.2 13.9094 416.86 13.8194 417.53 13.7894C419.17 13.7294 420.79 13.6894 422.43 13.7894L424.59 13.9294C425.86 14.0094 427.08 14.4194 428.33 14.6094C429.3 14.7594 430.28 14.9094 431.18 15.2294L433.31 15.9894C434.97 16.5794 436.48 17.4494 438.01 18.3094C439.17 18.9594 440.2 19.7494 441.19 20.5994L442.43 21.6694C443.76 22.8294 444.98 23.9994 445.95 25.4994L447.88 28.4694C448.83 29.9394 449.3 31.3894 450 32.3894C450.22 32.7194 450.29 33.0394 450.07 33.3794C449.88 33.6494 449.52 33.4794 449.18 33.4794L436.7 33.4494C435.87 33.1594 435.3 31.3194 434.25 30.3094L431.95 28.1094C431.11 27.3094 428.99 26.1494 427.8 25.6294C425.68 24.6994 424.34 24.4494 422.02 24.1994L420.72 24.0594C420.06 23.9894 419.45 23.9694 418.8 24.0294C414.74 24.3794 412.57 24.8494 408.96 26.7394C407.27 27.6194 406.16 28.5194 404.73 29.7094C403.04 31.1294 401.76 32.6994 400.7 34.6394C400.57 34.8794 400.26 35.2194 400.12 35.4794L399.17 37.2294L398.33 39.1594C397.57 40.8994 397.11 42.2094 396.74 44.0694L396.27 46.3594C396.11 47.1394 396.11 47.8994 396.04 48.7194L395.88 50.5594C395.83 51.2094 395.84 51.7894 395.88 52.4394L396.04 54.8794C396.08 55.4894 396.15 56.0794 396.27 56.6694L396.71 58.8394C396.84 59.5094 396.91 60.2294 397.15 60.8694L398.1 63.3994L399.27 66.1194C399.27 66.1194 401.38 69.6494 401.6 69.9694C402.94 71.9894 407.17 75.6594 409.51 76.6694L412.05 77.7594C413.06 78.1894 414.26 78.2594 415.36 78.4894C417.57 78.9494 419.74 79.0594 421.99 78.7794C423.79 78.5494 425.56 78.2694 427.25 77.6994C430.7 76.5494 431.7 75.5594 434.28 73.2194C436.22 71.4594 436.5 70.5494 437.62 68.1994C437.94 67.5194 438.25 66.8694 438.45 66.1494C438.94 64.4294 439.41 62.7494 439.54 60.9794C439.59 60.3394 439.17 59.5394 438.64 59.2294H421.72C421.23 59.2294 420.49 59.6394 420.21 58.9694C419.99 58.4294 420.2 57.5494 420.17 56.9694C420.07 54.6194 420.39 55.6094 420.17 52.8694C420.09 51.7794 420.11 50.7194 420.1 49.5994C420.1 49.1394 420.52 48.8094 420.96 48.8594L422.58 49.0194H449.3C449.98 49.0194 450.63 48.7694 451.25 48.9394L451.63 49.6094H451.64Z" fill="#90BEFB"/>
<path d="M372.86 87.8095C372.72 87.9095 372.32 87.7095 372.13 87.7095H359.5C358.73 86.7095 358.02 85.7495 357.31 84.7295L355 81.4195L353.89 79.7995L352.98 78.5195L352.17 77.1695L349.69 73.6195C348.97 72.5795 348.24 71.6295 347.55 70.5795L345.31 67.2095L342.57 63.3195L341.45 61.6895L340.4 60.1695L338.62 57.4795L336.62 54.5995L335.73 53.3295L333.97 50.7895L331.17 46.3995C330.68 45.6195 330.2 44.9195 329.65 44.1695C329.27 43.6495 328.98 43.0695 328.67 42.5595C327.94 41.3795 327.17 40.2695 326.55 39.0495L324.75 35.5295C324.4 34.8495 323.93 34.1395 323.1 34.0895C322.56 34.0495 322.1 34.5195 322.18 35.0595L322.44 36.7795L322.61 39.6595L322.73 41.6695L322.89 45.6595L322.93 82.7695L322.91 83.8195C322.89 84.9395 322.96 86.1195 322.9 87.1895C322.85 87.9295 322.03 87.7195 321.62 87.7195H311.9C311.58 87.7195 311.17 87.8895 310.93 87.6995C310.2 87.1095 310.74 85.8495 310.68 84.6895C310.66 84.1095 310.48 83.5295 310.61 82.9995C310.75 82.4195 310.59 81.9295 310.59 81.3595V70.3495C310.59 69.8195 310.71 69.3595 310.62 68.8295C310.52 68.3095 310.54 67.7295 310.63 67.1995C310.79 66.2595 310.56 65.3495 310.61 64.3995L310.72 62.1795L310.62 59.9595L310.64 56.7895V53.4995C310.64 52.8495 310.66 52.2495 310.6 51.5995C310.53 50.8595 310.52 50.0595 310.6 49.3395C310.69 48.5695 310.62 47.9095 310.6 47.1395C310.51 44.6495 310.51 42.1895 310.6 39.6995C310.62 38.9295 310.69 38.2695 310.6 37.4995C310.38 35.6795 310.73 35.4695 310.6 33.4795C310.41 30.5595 310.75 29.7195 310.6 27.0195C310.52 25.4395 310.53 23.8595 310.59 22.2695C310.62 21.4695 310.79 20.6795 310.63 19.8895C310.49 19.1995 310.68 18.5095 310.63 17.8195L310.53 16.0695C310.51 15.6595 310.82 15.1995 311.25 15.2095L313.13 15.2595C314.75 15.3095 315.37 15.1495 317.3 15.2595C318.04 15.3095 320.49 15.3295 321.23 15.2595C322.3 15.1595 324.19 14.9695 324.84 15.8995L325.96 17.4995L327.26 19.3995L328.09 20.5495L329.15 22.1095L332.92 27.6695C333.45 28.4495 334.07 29.1395 334.56 29.9195L335.39 31.2495L336.37 32.7095L338.39 35.5895L339.57 37.3095C340.17 38.1795 340.74 39.0095 341.34 39.8695L342.63 41.7195L343.91 43.5995L346.3 47.1195C346.56 47.5095 347.01 47.9095 347.24 48.2895L348.28 50.0095L350.3 52.9995L353.12 57.2795L354.35 59.1895C355.14 60.4095 355.89 61.5995 356.59 62.8595L358.69 66.6495L359.72 68.4095C359.95 68.8095 360.88 69.0195 361.36 68.9695C361.91 68.7795 361.36 66.3695 361.27 65.2595L361.15 63.7995L361.05 60.3795C360.99 58.1695 361.25 58.7995 360.91 56.9395C360.8 56.3595 360.95 55.9095 360.95 55.3095V17.5795C360.95 16.9395 360.67 16.3095 360.89 15.7895C361.18 15.0895 361.7 15.1095 362.3 15.1695L363.54 15.2995C364.15 15.3595 364.69 15.2895 365.29 15.2795L372.16 15.2095C372.57 15.2095 373.11 14.8995 373.29 15.6395C373.38 16.0095 373.34 16.6995 373.27 17.1895C373.11 18.1295 373.27 19.0195 373.32 19.9895C373.35 20.7195 373.07 21.5195 373.25 22.2395C373.45 23.0695 373.23 23.8995 373.26 24.7195C373.3 25.7495 373.31 26.7195 373.26 27.7395C373.23 28.5295 373.47 29.2495 373.19 30.0895V82.4895C373.19 83.0695 373.4 83.4895 373.27 84.0395C372.9 85.5995 373.94 87.1095 372.89 87.8095" fill="#90BEFB"/>
<path d="M129.15 52.7901C128.6 54.8601 129.59 54.5101 128.88 56.5601C128.6 57.3701 128.56 58.0901 128.5 58.9801C128.47 59.4701 128.04 60.1101 127.94 60.6201C127.77 61.4501 127.62 62.2401 127.26 62.9901L125.9 65.7801C125.54 66.5201 125.32 67.1901 124.71 67.8001C124.19 68.3201 123.95 69.0601 123.62 69.7601C123.47 70.0801 122.98 70.4101 122.73 70.7001C120.68 73.0201 119.08 74.8801 116.04 76.0501L113.6 76.9901C112.54 77.4001 111.5 77.7101 110.39 77.9501C109.83 78.0701 109.09 78.3601 108.56 78.3301L106.66 78.2301C106.05 78.2001 105.51 78.1401 104.91 78.1201L102.48 78.0501C101.51 78.0301 97.2296 76.6401 96.4696 76.1901L94.9096 75.2501C94.4796 75.0001 94.0296 74.5601 93.5696 74.3101C90.2396 72.5401 91.0596 71.7601 88.3296 70.0001C86.3696 67.3301 85.1996 65.0701 84.1696 61.8401C82.9996 58.2201 82.3396 54.3001 82.5296 50.5301L82.6396 48.4401C82.6796 47.6201 82.8896 46.7901 83.0396 45.9701C83.7696 41.9201 85.3296 37.0401 87.9696 33.7901L89.4596 31.9701C90.8696 30.2401 92.9796 28.4801 94.9396 27.4101L96.9996 26.2801C97.8196 25.8401 98.7496 25.6401 99.6496 25.3301C101.41 24.7101 103.28 24.4101 105.14 24.6601L107.55 24.9801C108.4 25.0901 109.42 24.8401 110.23 25.0901L111.96 25.6201C113.07 25.9601 114.25 26.0701 115.25 26.6501L118.11 28.2901L120 29.6701C120.95 30.3701 121.79 31.0401 122.39 32.0401C122.74 32.6201 123.39 33.1701 123.67 33.7101C124.04 34.4401 124.28 35.0401 124.79 35.6701C125.39 36.4101 126.14 37.2701 126.39 38.1801C126.66 39.1501 127.05 39.8701 127.45 40.7701C128.2 42.4501 128.57 44.3301 128.96 46.1701C129.07 46.7001 129.2 49.4801 129.22 50.2601C129.24 51.0901 129.37 51.9801 129.16 52.7901M142.85 50.6301C142.88 49.7201 142.92 49.0301 142.71 48.1201C142.6 47.6601 142.67 46.9701 142.6 46.4901L142.3 44.4701C141.84 41.3401 141.28 40.2301 140.82 37.6101C140.64 36.6101 140.02 35.7301 139.67 34.7801C139.31 33.8201 138.95 32.9801 138.46 32.1001L137.59 30.5301C136.93 29.3601 136.4 28.1801 135.24 27.3701C134.62 25.8901 133.42 24.9101 132.4 23.7701C131.88 23.1901 131.52 22.5501 130.92 22.0701L129.41 20.8301C127.42 19.2201 128.49 20.4501 126.61 19.0301C124.7 17.5901 124.07 17.6601 121.86 16.4501C121.05 16.0101 120.02 15.8401 119.27 15.3001C117.92 14.3301 116.65 14.6701 114.46 14.1901C113.9 14.0601 113.31 13.6101 112.71 13.6701C110.66 13.9001 111.33 12.8001 109.69 13.3601C109.37 13.4701 108.89 13.6101 108.53 13.6101L102.8 13.7101C100.52 13.7501 94.9296 15.0201 92.5096 15.9201C89.9896 16.8701 87.6896 18.0801 85.4296 19.4601C84.0496 20.3001 82.0596 21.9201 80.9496 23.0501L78.5996 25.4501C77.0096 27.0801 75.0596 30.1901 74.0696 32.3201L73.1596 34.2701C72.6696 35.3301 72.2396 36.3601 71.8996 37.4701L71.2896 39.4601C70.6096 41.6901 70.1996 43.8901 70.0096 46.2201L69.8496 48.0801C69.6596 50.2901 69.6496 52.5101 69.8196 54.7701L69.9796 56.7401C70.2696 60.4201 71.5296 65.3901 73.0596 68.7301L74.1496 71.1001C74.4096 71.6801 74.7296 72.2201 75.0696 72.7601L76.0696 74.3401C78.7596 78.5601 83.0396 82.5001 87.4096 84.8701L89.1796 85.8301C90.2396 86.4101 92.6396 87.4001 93.7796 87.6801L96.6796 88.4101C98.0396 88.7501 100.68 89.2101 102.03 89.2301L107.8 89.2901C108.59 89.3001 109.44 89.6901 110.09 89.9901H111.39C112.38 88.9001 112.84 89.9601 115.3 88.8601C115.98 88.5501 116.72 88.6601 117.4 88.4701C121.76 87.2901 120.56 87.0601 124.14 85.7201C124.71 85.5101 125.87 84.4801 127.19 83.7501C128.1 83.2501 128.85 82.4201 129.69 81.8401C130.46 81.3101 131.06 80.9001 131.59 80.0901C131.88 79.6401 132.55 79.2801 132.94 78.8601C133.72 78.0301 134.46 77.1501 135.15 76.2101C135.49 75.7601 135.73 75.1401 136.12 74.7401C137.82 73.0301 136.76 72.9901 138.39 71.4001C138.79 69.8201 140.18 67.4901 140.43 66.4001C141.16 63.1701 142.37 61.2801 142.54 57.9401C142.56 57.4201 142.81 56.7401 142.75 56.2401C142.67 55.5301 142.71 55.0101 142.73 54.3301L142.84 50.6301H142.85Z" fill="#90BEFB"/>
<path d="M23.4298 29.4398C23.6598 29.1698 24.1998 28.8998 24.4998 28.6498C26.2598 27.1698 28.1798 26.0998 30.4698 25.6898L32.3298 25.3498L33.6398 25.1098C35.1698 24.8398 37.7398 24.6098 39.2798 24.8398C39.6098 24.8898 40.2398 24.7998 40.5398 24.8898L42.7698 25.5298C43.4398 25.7198 44.3398 25.5798 44.9398 25.9598C46.9998 27.2398 46.2798 26.2398 47.7798 27.7398C48.2298 28.1998 48.7598 28.6798 49.2598 29.0998C50.0198 29.7198 50.8898 30.1098 51.1398 31.2598C50.2298 31.3898 49.3598 31.3298 48.4698 31.2198C46.5598 30.9898 46.8698 31.5698 44.2998 31.2198C42.0898 30.9198 41.9898 31.8998 40.1198 31.2698C39.4598 31.0498 38.7298 31.3198 38.1098 31.2898C36.7798 31.2198 35.5098 31.1198 34.1898 31.2698C33.2698 31.3698 32.3298 31.3498 31.4098 31.2698C28.5298 30.9898 27.3298 31.5498 25.0298 31.2798C22.6298 30.9998 21.8398 31.8698 21.5598 31.2698C21.2998 30.7098 22.2298 30.8598 23.4298 29.4298M13.6798 47.1798C13.7498 45.4498 14.5498 42.2098 15.0798 40.5098C15.6898 38.6098 17.3698 34.7998 18.6298 33.2998C19.3398 32.4698 20.6598 32.3398 21.6898 32.3498C23.5598 32.3698 25.3198 32.2798 27.1198 32.4198C28.1498 32.4998 29.0798 32.3998 30.1098 32.3998L49.2998 32.3598C49.5598 32.3598 49.8898 32.4398 50.1198 32.4098C53.4298 32.0198 52.0098 32.9998 55.3298 32.9798L67.8798 32.8998C68.4598 32.8998 68.7898 32.2598 68.6198 31.7698C68.1798 30.4798 67.9298 29.1398 68.1198 27.7998C68.4298 25.6498 67.8698 25.0098 68.0998 22.7198L68.2498 21.2598C68.5598 18.1798 67.6498 18.3098 68.2298 14.9498C68.3898 14.0498 68.3298 13.2298 68.2598 12.3298C68.0698 9.90978 68.3598 8.73978 68.2598 6.71978L68.1598 4.56978C68.0598 4.49978 67.6798 4.50978 67.5698 4.61978C67.4698 4.69978 67.3498 5.01978 67.3398 5.14978L67.2898 11.9098C67.2898 12.6998 67.2098 13.4298 67.2898 14.2298L67.4498 15.7298C67.5798 17.0698 67.4298 18.3298 67.2298 19.6998C67.0998 20.5098 67.5098 21.8698 67.3098 23.8498C67.0498 26.4598 67.6298 25.8498 67.4998 27.8598C67.4898 28.0298 66.9998 28.2898 66.8798 28.1798C66.2398 27.6198 66.3498 26.8798 65.0898 25.2798L63.7498 23.5798C63.5198 23.2898 63.2798 22.6898 63.0298 22.4598L61.6198 21.1098C61.0898 20.5898 60.6098 20.1498 60.0198 19.6798C59.6098 19.3498 59.2498 18.7598 58.8098 18.4798L54.4098 15.6298C53.8498 15.2698 53.0698 15.0698 52.4098 14.7898C51.2498 14.2898 50.0898 13.7798 48.8698 13.4698L46.6998 12.9098C46.1898 12.7698 45.5398 12.6598 44.9998 12.5898L40.5298 11.9898L35.8498 11.8798C34.9498 11.8598 34.1898 11.8198 33.2898 11.9698L31.1998 12.3298C30.7898 12.3998 30.3298 12.4298 29.9098 12.4598C29.0998 12.5298 28.4198 12.7598 27.6498 12.9498L25.1798 13.5598C20.4998 14.7198 21.9998 14.8298 18.9998 15.9198C18.1398 16.2398 17.4198 17.0998 16.5298 17.5198L14.6098 18.4398C14.2698 19.2098 12.2598 20.6798 11.5298 21.0398C11.1298 21.2398 10.8798 21.7098 10.6398 22.1698C10.5098 22.4298 9.91976 22.6998 9.72976 22.9398C8.94976 23.9398 8.26977 24.9098 7.52977 25.9298L6.80977 26.9298L4.89977 29.4898C3.87977 30.8598 4.37977 31.5098 3.23977 31.5598C2.79977 31.1198 0.879766 31.1898 0.299766 31.3898L0.00976562 32.2398C1.96977 32.9498 2.55977 31.7598 3.44977 32.2998C3.71977 32.4698 4.20977 32.9998 4.12977 33.3098C3.62977 35.3798 3.08977 36.0898 2.39977 38.5298C2.10977 39.5798 1.68977 40.5798 1.53977 41.6798L1.15977 44.4198L0.899766 46.6198C0.849766 47.0498 0.729766 47.5998 0.719766 48.0198C0.669766 50.0998 0.619766 52.9298 0.849766 54.9198L1.11977 57.2298C1.47977 60.2898 2.05977 62.8598 3.11977 65.7198C3.65977 67.1698 4.18977 68.5398 4.83977 69.9298C7.29977 75.1498 10.9998 79.3198 15.6998 82.5998C17.6598 83.9698 19.6698 85.0098 21.8198 86.0098C22.1798 86.1798 22.6798 86.2398 23.0498 86.3698C23.9998 86.7098 24.8898 87.0498 25.8698 87.2798L29.3498 88.0698C31.5398 88.5698 37.9198 88.6698 40.2698 88.5098L42.0198 88.3998C42.9098 88.3498 43.8498 88.2498 44.7098 88.0598L46.7998 87.5998C48.9698 87.1098 51.3798 86.4098 53.3298 85.3498L55.3798 84.2298C58.7998 82.3698 63.0698 78.2598 64.9698 74.9898L66.0298 73.1598C67.2198 71.1098 67.2398 70.5198 68.2098 68.5598C68.2998 68.3798 68.3498 68.0498 68.2798 67.9098C68.2098 67.7898 67.8998 67.5698 67.7598 67.5698H54.9898C54.3798 67.5798 54.0998 68.3898 53.8698 68.7498L52.9598 70.1798C50.4498 74.1298 46.7998 76.4198 42.2498 77.4798C39.4798 78.1198 36.7598 78.2698 33.9298 77.8498C30.6198 77.3598 28.6898 76.8198 25.7498 75.2098C21.8298 73.0498 18.7598 69.4398 16.7398 65.4798C14.0798 60.2598 13.3498 54.9798 13.6098 49.1698L13.6898 47.1798H13.6798Z" fill="#90BEFB"/>
<path d="M239.37 80.8196C251.27 80.9596 249.53 80.1896 257.13 80.0696L260.36 79.0196C259.86 79.0196 259.33 78.9996 258.83 78.9996C248.25 78.7296 245.14 79.7296 233.91 79.6096L226.72 79.5196C211.61 79.3596 212.24 80.8496 195.73 80.2596C191.31 80.0996 187.28 80.2896 182.89 80.4996C170.99 81.0796 165.27 80.7396 155.35 81.1296L144.78 81.5396C144.43 81.7196 144.49 82.3496 145.02 82.5196C145.43 82.6696 147 82.8496 147.61 82.8396L180.81 82.1596C184.7 82.0796 188.26 82.1296 192.18 81.9096L199.54 81.4796C206.14 81.1096 212.32 81.2196 219.01 81.3996C222.99 81.5196 229.64 80.6996 239.36 80.8096" fill="#90BEFB"/>
<path d="M148.94 83.1301C142.96 93.4201 144.49 92.2801 140.84 98.9501L140.17 102.28C140.42 101.85 140.69 101.39 140.94 100.96C146.38 91.8901 147.04 88.6801 152.68 78.9701L156.29 72.7501C163.88 59.6801 162.26 59.4901 170.91 45.4201C173.23 41.6501 175.04 38.0501 177.02 34.1201C182.37 23.4801 185.48 18.6701 190.03 9.84009L194.88 0.440091C194.9 0.0500908 194.32 -0.209909 193.9 0.170091C193.57 0.460091 192.64 1.73009 192.34 2.27009L176.58 31.4901C174.73 34.9101 172.94 37.9901 171.2 41.5101L167.95 48.1301C165.02 54.0501 161.88 59.3801 158.43 65.1101C156.37 68.5101 153.81 74.7101 148.93 83.1201" fill="#90BEFB"/>
<path d="M385.19 29.4407C404.26 29.5807 401.47 28.8107 413.64 28.6907L418.82 27.6407C418.02 27.6407 417.17 27.6207 416.37 27.6207C399.42 27.3507 394.43 28.3507 376.45 28.2307L364.93 28.1407C340.71 27.9707 341.73 29.4707 315.29 28.8807C308.21 28.7207 301.74 28.9107 294.72 29.1207C275.66 29.7007 266.5 29.3607 250.6 29.7507L233.66 30.1607C233.1 30.3407 233.2 30.9707 234.05 31.1407C234.71 31.2907 237.22 31.4607 238.21 31.4607L291.39 30.7807C297.62 30.7007 303.33 30.7507 309.6 30.5307L321.39 30.1007C331.96 29.7307 341.87 29.8407 352.59 30.0307C358.96 30.1507 369.62 29.3307 385.2 29.4407" fill="#90BEFB"/>
</g>
</g>
<defs>
<clipPath id="clip0_2561_11029">
<rect width="451.64" height="102.29" fill="white"/>
</clipPath>
</defs>
</svg>
