<svg width="871" height="354" viewBox="0 0 871 354" fill="none" xmlns="http://www.w3.org/2000/svg">
<g clip-path="url(#clip0_2561_10458)">
<mask id="mask0_2561_10458" style="mask-type:luminance" maskUnits="userSpaceOnUse" x="0" y="0" width="871" height="354">
<path d="M870.7 0H0V353.81H870.7V0Z" fill="white"/>
</mask>
<g mask="url(#mask0_2561_10458)">
<path d="M544.85 274.73C540.15 281.52 533.78 286.66 527.35 292.1C526.18 293.1 524.96 293.84 523.66 293.07L525.61 256.21L526.32 242.1L526.8 233C539.74 232.27 548.97 245.17 549.11 257.27C549.18 263.52 548.46 269.49 544.85 274.74M182.41 36.3004L181.37 52.1604L180.25 67.3503C179.82 72.9703 179.32 78.2504 176.71 83.3304L173.55 83.7703C173.65 84.4803 174.04 86.1804 173.63 86.6204C173.09 87.1904 171.1 87.3904 170.38 87.7304C169.29 88.2504 168.19 88.8203 167.29 88.9203C166.02 89.0703 164.94 88.1603 163.96 87.1303L160.52 87.9203C154.07 83.9003 151.8 80.9103 150.03 73.9903L145.64 56.7304L142.69 44.1203C142.43 43.0103 143.67 40.8503 144.07 39.7603L147.92 29.3803C149.71 24.5603 151.17 19.2203 154.06 14.9103C154.7 13.9703 156.22 12.5503 157.11 11.6803C158.57 10.2303 161.2 8.90035 163.09 8.32035C173.5 5.17035 182.46 14.9303 182.75 22.6203C182.92 27.2403 182.72 31.7604 182.42 36.3204M853.14 195.59L849.34 190.56L846.44 186.99L839.42 178.42L819.16 153.4L836.82 141.82L840.02 139.73L866.3 122.49C868.29 121.19 869.13 119.05 868.28 117.56C867.23 115.72 864.88 114.18 862.81 115.49L852.32 122.11L849.44 124.03L834.19 133.99C827.31 138.47 821.94 142.42 814.04 147.11L813.93 100.97L806.3 101.29V151.82L790.08 157.88L782.87 160.55L772.08 164.55L727.32 181.31L645.72 211.55L614.84 223.06L601.91 227.89L558.07 244.26C557.16 244.6 555.04 245.84 554.49 244.52C550.92 235.82 544.32 228.85 535.13 226.13C529.95 224.6 524.11 225.35 518.96 225.37C519.16 227.79 519.12 229.6 519 231.82L518.58 239.21L517.86 251.85L517.47 263.5L516.99 273.56L516.62 281.15C516.49 283.71 516.41 286.14 516.07 288.61C515.82 290.42 516.85 292.53 515.04 294.04L486.35 275.41L483.12 273.33L463.12 260.22L460.54 258.61L359.52 193.05L292.9 149.72L259.13 127.74L240.03 115.37L205.97 93.1604L187.4 81.1804C186.74 80.7504 186.61 78.8804 186.71 78.0804C188.17 66.4204 189.37 55.1104 189.85 43.4104L190.28 32.9504L190.49 24.2803L190.24 17.5603C189.88 16.9103 189.21 15.8203 188.85 14.9303C184.76 4.89035 174.46 -1.48965 163.48 0.300349C155.79 1.56035 148.5 6.41035 145.66 13.6903L136.02 38.4304C134.33 39.2504 132.07 39.5103 130.28 40.0103L116.49 43.7504L68.7898 56.2704C69.4898 46.0904 70.7198 36.7303 72.4398 26.9703L64.3098 25.8403L63.4898 33.2004L62.5398 39.1104L61.9698 45.2904L58.6598 70.8204L55.2698 97.3904C55.2298 97.7504 54.5798 98.6404 54.3198 98.4704C54.0498 98.3104 53.2998 97.6604 53.1898 97.2304L46.7398 70.9004L42.9698 55.6604L41.7598 50.1504L40.4798 45.1703C39.8698 42.7903 38.3998 41.0103 35.8998 41.1903C34.1498 41.3303 32.4498 43.1504 32.0598 45.4004L28.6198 65.2604L25.5998 81.5104L22.2798 98.9004C22.2098 99.2704 21.3198 100.06 21.1398 99.8403C20.9698 99.6303 20.4198 98.9604 20.3598 98.6804L16.8198 77.8503L16.1698 74.1904L14.6398 65.4404L13.1398 57.0204L12.2998 51.5204C11.3198 45.1704 9.59977 39.0204 9.09977 32.6604C9.01977 31.7604 9.01977 31.2003 8.77977 30.3703L7.36977 25.3403L0.349774 26.7303C-0.360226 27.3103 0.339774 29.2103 0.549774 30.3603L3.32977 46.2603L6.94977 66.6104L10.3598 85.9704L17.3398 125.94L25.2098 125.86L33.4298 82.0203L36.0098 67.5104C36.0498 67.2604 36.7098 66.7103 36.9198 66.6703C37.1298 66.6303 37.7598 67.2304 37.9398 67.9104L47.8398 107.79L51.6898 123.79C52.2498 126.13 53.6398 127.87 55.8398 127.72C58.2698 127.57 59.3998 126.01 59.7198 123.49L62.1498 104.4L65.9098 75.7904L67.2498 64.7904L84.8598 60.1203L135.16 46.8404C136.21 49.4904 136.53 51.9504 137.14 54.4304L142.99 78.5303C143.96 82.5103 146.69 86.2603 149.2 89.4203L151.73 92.6003C156.14 94.4403 161.2 96.1503 165.49 97.5203C166.34 96.6303 167.49 96.1704 168.36 96.3704L171.37 97.0504C178.02 92.6204 176.28 96.7603 183.54 88.0903L282.38 152.3L336.24 187.28L399.7 228.48L472.35 275.7C473.49 276.43 474.32 277.04 475.45 277.77L515.02 303.45C515.5 306.22 515.19 308.63 515.09 311.21L514.8 318.56L514.48 325.93L513.28 353.52L520.75 353.79L521.23 345.41L522.11 330.04L522.8 312.66C522.82 312.15 524.09 311.54 524.35 311.83C524.54 312.04 524.86 312.43 525.16 312.85L547.06 343.88L553.59 339.52L545.89 328.26L543.73 325.24L527.13 301.87C538.26 294.09 552.91 282.28 555.92 269.22C556.81 263.74 557.34 259.01 556.65 253.15L560.82 251.62L572.64 247.15L609.45 233.45L621.34 229.02L629.8 225.9L726 189.84L732.39 187.69L740.62 184.7L748.6 181.69L757.38 178.38L767.72 174.56L774.99 171.89L778.98 170.64L790.69 165.99L800.3 162.41L805.93 160.32C806.65 162.91 806.14 165.04 806.19 167.39L806.37 175.42V214.7L813.97 214.68L813.99 161.83C813.99 161.49 815.44 161.41 815.75 161.82L864.49 222.25C866.93 220.66 868.53 219.32 870.75 217.43L853.2 195.61L853.14 195.59Z" fill="#90BEFB"/>
<path d="M68.8598 135.91L68.2498 137.39L66.1098 134.11C65.7498 133.54 66.0298 131.99 66.2398 131.52C66.7198 135.4 69.2798 134.93 68.8598 135.9" fill="#90BEFB"/>
</g>
</g>
<defs>
<clipPath id="clip0_2561_10458">
<rect width="870.7" height="353.81" fill="white"/>
</clipPath>
</defs>
</svg>
