<svg width="177" height="252" viewBox="0 0 177 252" fill="none" xmlns="http://www.w3.org/2000/svg">
<g clip-path="url(#clip0_2561_16853)">
<mask id="mask0_2561_16853" style="mask-type:luminance" maskUnits="userSpaceOnUse" x="0" y="0" width="177" height="252">
<path d="M176.7 0H0V251.86H176.7V0Z" fill="white"/>
</mask>
<g mask="url(#mask0_2561_16853)">
<path d="M15.21 85.4406C15.61 84.8206 17.52 85.3206 18.04 85.7706C20.49 89.4306 22.06 93.0206 21.56 98.1506C18.49 97.7006 20.16 95.1606 16.05 90.5906C14.98 89.3806 14.39 86.8106 15.22 85.4306M24.62 5.42056C25.45 5.47056 27.38 4.59056 27.28 3.83056C27.16 3.02056 26.38 1.74056 25.88 1.38056C25.29 0.950564 23.81 1.38056 22.77 1.38056L1.77 1.43056L0 3.12056V14.5006C0.07 14.5006 0.57 15.4506 0.59 15.9006L0.61 25.4006C5.67 24.5006 3.7 20.9606 11.99 21.2406C14.79 21.3406 21.19 21.2906 22.3 25.7106C22.51 26.5206 21.92 28.2806 21.33 28.8906C16.13 34.3806 7.72 35.1406 2.16 29.9806C1.54 29.4206 0.64 28.9206 0 28.7306V33.8606C6.72 38.0206 6.18 32.2006 15.35 39.7106C16.25 40.4206 16.28 43.3906 15.52 44.3206C13.93 46.3406 8.01 48.4106 5.04 47.1206C3.04 46.2606 1.12 45.7406 0 47.5006V64.0106C3.35 65.5506 0.45 63.8206 8.29 60.2606C12.4 58.3806 16.77 58.0306 20.5 61.5006C21.97 62.8806 20.93 65.9206 19.29 67.3506C14.32 71.7206 7.67 75.3606 1.54 70.0106L0 71.9706V93.5906C2.47 95.4706 2.61 89.1706 6.03 88.9806C12.28 88.6206 16.22 99.3406 19 104.231L21.16 108.061C21.16 108.351 25.29 119.111 22.75 119.081L14.43 106.301C13.46 104.781 11.2 102.621 9.73 101.621C2.34 100.031 -0.39 118.391 0.68 123.291C5.34 122.621 -0.0299997 113.981 10.21 109.341C14.06 110.531 20.33 121.361 21.83 124.551C23.09 127.191 23.94 129.421 25.37 131.771C26.37 129.441 26.56 127.751 26.27 125.451C25.99 123.261 26.75 120.821 26.75 118.661L26.8 82.3806L18.7 82.1206C17.13 82.0706 14.07 80.7706 13.09 79.5506C11.43 77.4606 13.11 74.5406 14.99 73.2306C21.24 68.8606 27.04 73.0206 26.89 68.1006L26.65 59.7106C22.97 57.8606 19.52 56.3106 17.38 52.7506C16.76 51.7006 17.74 49.3306 18.5 48.5206C21.02 45.8406 23.37 47.5906 26.79 46.6406L26.77 16.4606C22.14 15.6506 20.4 20.5706 12.99 17.3606C11.9 16.8806 10.47 15.6306 10.31 14.6306C9.36 9.14056 19.12 5.05056 24.61 5.41056" fill="#90BEFB"/>
<path d="M26.8695 187.021L26.7295 214.181C23.1895 214.011 19.6295 214.301 17.9595 217.321C15.7695 221.291 22.1195 224.571 24.7995 226.021C25.6095 226.471 26.8895 227.871 26.8695 228.941L26.6095 237.451C26.5595 238.381 23.6595 238.261 22.6695 238.281C18.1495 238.331 10.3895 242.961 12.7595 246.551C13.1395 247.121 14.1895 247.971 14.8995 248.211L21.6495 250.561L25.1695 248.941C25.6495 248.731 26.6895 250.561 26.2895 250.961C24.1495 253.081 22.6495 250.721 18.9995 251.291C16.1195 251.761 13.8895 251.911 11.1595 251.461C3.45953 250.151 4.85953 253.461 0.0195312 250.061V238.681C1.77953 235.451 3.69953 240.221 6.88953 240.301C12.5695 240.401 19.9795 235.691 21.4795 231.861C21.8095 231.011 20.9795 228.891 20.0995 228.301C17.5795 226.521 14.2795 226.591 11.1195 226.951C3.34953 227.801 2.30953 235.311 0.0195312 230.161V214.811C2.77953 212.911 11.4695 217.951 15.7195 211.171C16.8395 209.391 15.3195 206.921 13.4895 205.781C6.56953 201.461 2.26953 204.121 0.0195312 201.151V197.731C3.86953 195.921 0.919531 200.391 10.8495 200.681C16.3895 200.851 23.1095 197.971 22.2995 192.891C21.8695 190.301 11.9695 184.811 2.05953 192.461C1.55953 192.841 0.209531 191.991 0.0195312 191.491V148.251C1.86953 144.261 -1.17047 144.451 3.12953 138.771C3.95953 137.701 3.79953 134.561 4.45953 133.381C8.37953 126.231 7.06953 123.621 10.6395 123.161C14.2995 122.731 16.1995 125.681 18.6495 129.241L22.2395 134.421C23.6895 136.511 26.0895 131.071 26.7295 149.291C24.8995 147.491 24.5195 146.341 23.5195 144.591C21.1695 140.481 18.5995 136.041 15.0095 132.731C14.1595 131.951 11.0195 132.021 10.3795 133.061C9.02953 135.271 6.45953 138.591 5.74953 141.211C4.10953 147.321 1.84953 160.601 4.50953 165.731C4.64953 165.991 6.02953 165.661 6.09953 165.371L8.13953 155.941C8.75953 153.061 10.1095 144.651 14.0295 144.681C17.1395 144.731 20.1095 148.961 21.7795 151.051C22.5195 152.001 24.1295 153.261 24.5795 154.351L26.9995 160.121C27.6395 161.691 27.3995 163.471 26.2895 165.181L21.3195 159.291C20.4195 158.251 18.6095 157.151 17.4195 157.201C12.6395 157.391 8.10953 165.521 9.47953 168.011C9.80953 168.601 11.1695 169.321 11.8995 169.321L22.2095 169.271L26.0595 167.511C29.8895 177.231 19.9495 170.121 12.6395 176.851C11.1695 178.231 8.90953 181.031 10.7895 183.031C13.8095 186.211 19.6295 186.951 23.1695 184.601C24.4295 183.771 25.5895 183.271 26.6095 183.981C27.5095 184.601 26.8695 185.951 26.8695 187.051" fill="#90BEFB"/>
<path d="M140.94 132.35C139.82 137.65 131.75 145.32 127.45 143.45C125.88 142.76 124.19 139.77 124.53 138.29C125.67 133.16 129.16 129.86 133.13 126.89C134.94 125.54 137.12 125.32 139.07 126.37C140.9 127.37 141.45 130.08 140.95 132.36M157.22 142.66L142.32 127.91C138.47 124.11 136.43 119.55 133.89 121.97C130.61 125.06 124.74 130.67 120.65 128.27C119.2 127.44 117.61 125.23 118.06 123.42C119.22 118.69 122.81 116.43 126.35 113.89C127.39 112.13 125.16 110.25 123.97 109.26C117.63 104.06 118.13 102.2 112.95 98.5697L113.24 102.78C113.67 108.89 105.8 117.94 101.72 116.47C97.8905 115.09 98.5105 109.72 99.4905 106.97C100.54 104 105.55 96.2497 108.97 97.2497L110.32 97.6297C110.56 97.6997 110.68 96.2997 110.51 96.1297L101.96 87.5497C101.56 87.1897 99.7305 87.7397 99.2305 88.2097L90.6505 96.4297C89.2705 97.7397 80.1005 105.27 82.5705 106.51C82.9505 106.7 84.0705 106.44 84.3305 106.13L88.3705 101.59C89.8405 99.9297 93.0005 98.1397 94.9805 98.8297C98.7605 100.11 98.7605 104.6 97.0905 107.34C95.5705 109.81 93.9505 111.59 92.0105 113.9C90.8705 115.4 93.6005 117.61 94.6205 118.56L98.7305 122.34L106.36 120.04C108.69 119.33 112.25 121.42 112.8 123.77C113.99 128.71 105.81 129.57 109.36 133.08L128.68 152.28C131.82 155.37 131.58 144.77 139.8 142.14C142.96 141.12 145.12 144.85 144.89 147.68C144.08 157.56 135.58 159.25 138.24 162.39C138.76 162.98 140.81 163.15 141.4 162.58L150.64 153.81L157.32 147.56C157.84 147.06 158.6 145.78 158.63 145.11C158.63 144.42 157.85 143.28 157.25 142.69" fill="#90BEFB"/>
<path d="M121.6 26.21C125.71 30.68 130.68 45.03 137.45 44.91C140.25 44.84 141.92 40.59 142.13 38.16C142.68 32.2 145.93 29.08 147.21 21.72C148.21 15.92 148.59 10.48 152.72 5.83C153.38 5.05 155.43 4.1 156.43 4.17C161.25 4.46 167.74 17.71 169.36 21.8L171.45 27.12C172.12 28.81 172.38 31.16 170.29 32.01C167.25 26.47 164.21 21.32 159.74 17.26C157.91 15.62 155.34 17.28 154.39 18.97L151.3 24.46C149.45 27.76 148.52 30.54 147.9 34.32L146.69 41.83C146.12 45.27 144.98 55.82 140.23 57.54C134.48 59.61 130.06 49.65 127.64 45.23L125.62 41.6L123.77 38.3C122.75 36.49 122.75 33.43 122.23 31.29C121.8 29.51 121.45 28.3 121.61 26.23M120.49 72.54C119.97 72.73 118.45 72.21 118.11 71.73L113.03 64.41C111.6 62.34 109.82 59.78 106.88 59.73C105.55 59.71 103.55 62.11 103.06 63.29C98.8999 73.06 102.89 74.58 97.9799 79.73C96.6299 78.19 96.0999 76.26 96.2199 74.27L96.7399 65.67C96.9299 62.18 100.57 47.45 105.17 47.38C106.6 47.38 108.81 48.31 109.66 49.54L115.81 58.28C117.21 60.25 118.09 62.49 119.11 64.7C119.58 65.7 123.1 71.57 120.49 72.54ZM88.7399 76.96C87.0999 79.17 83.6599 79.62 81.6099 77.53C77.7399 73.61 76.5499 69.52 73.2199 64.3C70.3699 59.88 68.7799 55.13 68.7499 49.57C71.0999 50.64 71.6299 52.73 72.8099 54.51L77.4199 61.35C78.6799 63.23 81.1999 66.44 83.5999 66.03C87.4999 65.36 89.0599 61.35 89.6799 57.93L92.7399 53.08L94.6199 39.51C95.1899 35.28 97.0399 25.94 101.84 25.28C105.62 24.73 108.61 29.27 110.42 32.29L117 43.39C119.21 47.07 119.78 51.61 119.61 56.15C118.28 55.01 117.45 53.8 116.64 52.25C115.5 50.02 114.03 48.07 112.67 46.02C110.75 43.12 107.63 38.2 103.93 37.73C102.91 37.59 101.67 39.06 100.91 40.15C95.99 47.28 100.13 46.61 96.2799 54.86C92.7399 62.39 94.3999 69.35 88.7199 76.96M120.7 10.89C121.06 10.22 122.89 10.84 123.24 11.41L126.4 16.31C127.75 18.42 128.78 20.06 130.89 21.63C131.94 22.41 134.24 23.6 135.31 22.89C141.77 18.54 138.23 9.85 142.51 4.03C143.32 2.91 145.67 5.24 145.48 6.5L144.46 13.96C143.89 18.14 143.91 21.78 142.37 25.65C141.68 27.31 140.33 36.32 134.89 35.61C131.85 35.21 126.1 26.6 124.6 23.28L121.99 17.51C120.54 15.7 119.57 12.97 120.71 10.91M163.18 59.64C155.79 62.85 158.76 73.78 155.05 78.62C154.77 78.98 152.98 78.91 152.79 78.48C150.7 73.47 153.55 60.97 155.09 55.55C155.61 53.79 158.68 47.45 161.62 47.4C167.18 47.28 172.5 60.06 175.35 65.15C177.35 62.87 175.35 60.83 175.21 58.64L174.85 52.77L172.78 51.49L169.1 46.03C167.53 43.7 163.61 37.64 160.52 37.81C155.81 38.1 154.2 48.05 153.51 52.23C153.18 54.11 151.49 55.96 151.04 57.53C149.12 64.16 148.38 76.23 142.3 78.58C137.07 80.62 131.35 68.22 129.33 64.04C126 57.2 126.41 55.82 123.77 49.74C123.1 48.2 122.77 46.67 124.01 45.7L126.89 50.57L131.93 59.15C133.78 62.26 135.64 65.8 139.84 65.95C142.1 66.04 143.33 63.72 144.19 61.77C145.23 59.37 146.54 57.33 147.75 55.14C150.34 50.48 149.63 44.73 150.77 39.7L152.34 32.83C153.08 29.55 154.76 26.32 158.23 24.97C162.44 23.31 168.97 36.07 170.77 39.25C173.86 44.71 171.25 40.6 173.5 45.33C174.62 47.66 175.99 37.82 176.07 37.82L176.12 1.61C174.86 -0.580001 166.95 -0.690001 167.78 2.37C168.92 6.55 172.56 10.19 170.32 15.06L168.51 10.26C166.78 8.45 165.9 6.79 165.21 4.15L161.72 0.279999L146.66 0.489999C145.64 0.489999 144.17 3.03 142.74 1.75C142.17 1.25 140.75 0.659999 140.2 0.989999C137.78 2.44 135.64 14.01 128.87 9.78C122.36 5.72 122.62 0.439999 120.34 0.419999L113.62 0.299999C113 0.299999 111.67 1.35 111.74 1.87C112.1 4.86 116.18 8.33 114.07 13.8C112.69 12.28 111.91 10.95 111.17 9.29L108.72 3.73C108.2 2.59 106.22 0.429999 104.92 0.379999C99.7899 0.259999 95.1499 0.139999 90.2799 0.589999C88.9699 0.709999 87.3299 1.71 86.0299 1.14C82.0599 -0.570001 82.6099 3.11 79.8499 7.79C78.1899 10.59 73.8599 11.92 71.4399 9.19C67.7999 5.08 68.6799 4.79 65.3099 1.42C64.0999 2.25 63.8399 3.89 64.3099 5.44C66.3999 12.31 70.3699 18.44 76.0899 22.64C78.2999 24.26 80.4399 22.47 81.4799 20.81C84.5699 15.75 81.7899 15.54 85.8299 5.46C85.9699 5.08 87.1099 4.48 87.4899 4.39C90.8199 3.54 87.3699 25.51 85.9699 28.17L83.5899 32.59C82.4699 34.7 79.6699 36.84 77.3899 34.99C76.1299 33.97 73.7099 31.97 72.9499 30.62L65.4699 17.17C62.2599 19.48 67.1799 23.44 66.1799 30.79C74.5699 37.85 70.8399 36.14 75.2999 41.24C76.7199 42.86 78.94 45.54 81.41 45.11C88.21 41.55 84.9499 35.96 88.4899 28.83C89.4199 26.93 90.5599 25.41 90.8199 23.2C91.4599 18.16 93.8399 3.46 100.56 4.14C102.27 4.33 103.77 5.52 104.84 7.13C106.62 9.79 108.43 12.38 109.85 15.11L113.67 22.29C114.62 24.07 114.91 25.83 115.5 28.04C116.02 30.11 117.54 33.62 118.33 35.72C118.52 36.19 117.05 37 116.83 36.53C116.64 36.15 116.19 35.06 115.93 34.65L108.92 23.6C107.3 21.08 103.31 15.07 99.9399 17.09C97.3299 18.68 96.3499 22.08 95.3799 25L92.6499 28.47L90.9599 37.95C89.9899 43.3 90.1999 48.12 87.7099 53.23C86.6899 55.3 84.7199 59.03 81.7699 58.01C78.1299 56.75 76.2299 52.59 74.0999 49.84C72.2899 47.51 71.3199 45.49 70.0799 42.81L67.6799 37.58C67.5399 37.25 66.2299 37.15 66.1099 37.48C64.8699 40.9 66.1099 39.78 65.1799 43.23C64.2299 46.84 64.4199 52.59 64.7499 56.3C65.1099 60.05 64.7499 63.83 64.8199 67.8L65.1099 81.51C65.1799 82.91 70.9099 83.48 72.0199 82.77C72.5699 82.41 73.1599 80.61 72.9199 80.01L70.9899 75.64C70.1399 73.64 69.4499 71.65 70.7799 69.6C72.2499 71.88 74.1499 74 75.2199 76.47C76.1899 79.01 76.7199 82.6 80.4499 82.72C84.6599 82.82 88.9599 82.82 93.4499 82.7C94.7599 82.68 97.0899 80.97 98.2999 81.18C99.2999 81.35 100.82 81.82 101.36 81.47C102.55 80.69 106.68 69.95 110.84 72.16C118.8 76.41 117.66 82.85 121.91 82.8L129.16 82.73C130.49 76.69 124.79 77.55 126.85 69.33C128.77 70.87 129.11 72.49 130.1 74.2C131.24 76.17 132.22 78.05 132.48 80.38C133.55 83.94 146.5 82.8 150.3 82.59C151.44 82.54 153.63 81.28 154.62 81.76C159.82 84.21 158.04 77.53 163.22 73.28C164.38 72.3 167.43 72.21 168.68 73.07C171.51 75.02 173.08 77.89 174.93 80.74C181.25 79.62 167.52 58.98 163.14 59.67" fill="#90BEFB"/>
<path d="M122.24 200.09C121.95 197.93 120.98 196.08 121.72 193.46L131.01 208.67C132.15 210.55 135.64 213.09 137.69 212.38C141.64 210.95 142.2 206.44 142.56 202.88C142.85 200.15 144.91 197.77 145.53 195.25L147.12 188.79C148.14 184.66 149.8 172.47 155.98 171.52C160.16 170.88 165.32 180.83 167.24 184.52C169.59 189.11 171.73 193.88 171.97 199.18C169.48 200.37 169.26 196.71 165.91 192.05C164.1 189.58 160.33 183.16 156.81 184.35C155.62 184.75 154.48 186.16 153.84 187.44C149.04 197.06 148.57 195 147.28 205.02L146.33 212.51C145.85 216.41 143.15 225.36 138.68 225.46C133.36 225.58 126.75 211.63 124.59 207.52C123.33 205.14 122.64 202.98 122.24 200.11M119.94 240.55C116.57 239.96 116.47 234.02 109.06 227.7C108.09 226.87 105.38 227.22 104.71 228.17C97.8896 237.91 103.57 242.4 98.0996 246.7C96.0996 246.13 96.4096 243.78 96.2896 242.14C95.8596 235.77 97.0296 230.19 98.8596 224.32C99.3796 222.63 100.83 215.29 105.23 214.74C106.75 214.55 108.63 215.64 109.58 216.88C114.14 222.84 119.82 232.09 121.51 239.07C121.63 239.55 120.39 240.64 119.94 240.54M93.3296 233.75L91.2396 240.12C90.2896 243 88.2896 245.8 85.4396 246.63C80.9996 247.89 74.8196 234.82 72.9196 231.35C70.5896 227.1 68.9496 222.65 68.9296 217.5C70.1396 217.81 71.4496 218.71 71.9696 219.73C73.3496 222.56 81.6896 237.91 85.6296 233.15C86.6296 231.94 87.8196 230.42 88.3896 229.21L92.0196 221.27C94.8496 215.07 92.8795 209.49 96.3396 199.44C97.3895 196.37 99.3296 192.69 102.47 192.1C103.52 191.89 105.42 193.08 106.18 194.1C109.86 199.09 118.2 210.9 118.94 216.43L120.06 224.98L113.07 214.1C111.24 211.27 109.72 208.52 106.87 206.45C105.68 205.59 103.21 205.14 102.17 206.33C101.01 207.66 99.1796 209.96 98.9896 211.49C98.2496 217.57 96.4496 222.42 94.2896 228.1C93.7896 229.43 93.8396 232.23 93.3396 233.75M120.46 178.27C124 178.15 122.86 178.77 126.54 184.04C128.04 186.23 129.68 188.63 132.03 189.86C134.24 191 136.21 190.12 137.61 188.1C141.48 182.56 138.35 175.84 143.31 170.92C147.11 174.08 144.62 177.31 144.38 182.89C144.24 186.74 143.5 189.78 142.26 193.44C141.05 197.15 140.31 201.69 136.01 203.35C133.54 204.3 128.86 197.72 127.53 195.51L124.8 191.07C123.54 189 122.73 186.75 121.81 184.73C120.76 182.52 119.67 180.62 120.46 178.27ZM171.38 234.42L168.36 230.43C167.1 228.79 164.56 226.29 162.09 227.63C160.16 228.68 158.62 231.67 158.26 233.86C157.9 235.9 156.15 247.5 153.67 246.67C150.27 245.53 153.2 232.99 153.65 229.61C154.08 226.54 154.1 224.29 155.65 221.75C156.91 219.68 158 217.69 159.45 215.79C161.94 212.46 166.84 217.98 168.17 219.85C173.25 226.95 171.59 227.36 175.92 232.56C176.89 226.79 174.59 227.02 174.8 219.28C172.73 218.59 171.88 217.62 170.83 216.1L167.55 211.3C166.22 209.35 161.4 204.05 158.59 205.91C154.74 208.5 154.22 221.62 150.94 225.32L149.02 234.28C148.21 238.08 146.86 242.98 144.12 245.45C142.41 246.99 139.7 247.3 138.01 245.4C134.4 241.36 129.55 233.14 127.86 228.17L125.27 220.57C124.51 218.36 122.82 216.25 124.25 213.7L133.71 229.33C134.88 231.23 137.8 234.08 139.77 233.87C143.86 233.01 144.12 228.74 145.71 225.93C146.49 224.53 148.13 222.91 148.44 221.37C149.13 217.88 149.79 214.74 150.24 211.32C150.91 206.16 151.98 197.97 155.59 194.33C156.49 193.43 158.16 192.1 159.18 192.19C163.1 192.55 168.66 203.1 170.54 206.75L173.58 212.74C175.31 213.76 176.05 204.33 176.05 204.5L176.12 168.86C173.7 166.89 170.08 166.93 167.88 169.17L169.9 175.54C170.59 177.75 171.61 179.89 170.57 182.29L166.51 174.5C165.32 172.2 164.89 170.27 162.28 168.73C159.43 167.02 156.13 167.76 152.68 167.97L146.81 168.33C143.03 172.16 139.37 166.5 138.11 171.23C137.4 173.87 135.64 177.07 132.88 177.86C129.48 178.81 126.32 176.1 124.68 173.54L121.43 168.48L114.54 167.58C113.8 167.49 112 168.51 111.9 169.24C111.62 171.69 116.34 176.77 114.06 181.76L109.83 173.99C108.64 171.8 107.81 168.88 104.93 168.05C101.89 167.15 98.4196 167.76 95.1696 168.03L87.2096 168.65C86.1896 168.75 83.3396 167.89 82.9296 168.84L80.6696 174.26C79.8896 176.11 77.6496 177.8 76.0896 177.92C71.9496 178.25 69.2896 175.24 67.4196 171.43C64.4696 165.51 60.6196 174.31 72.1696 186.68C73.5496 188.15 75.6096 191.12 77.8696 190.72C82.3596 189.94 82.9296 185.52 83.4996 182C83.7796 180.15 85.1396 171.4 86.9196 172.02C89.7496 172.99 88.8696 179.86 88.5396 182.45C87.7996 188.15 85.9696 200.84 80.2196 203.36C75.3496 205.5 67.5296 188.51 65.6296 184.99C62.0696 187.79 66.7496 187.77 66.0996 197.8C66.0796 198.18 66.1696 199.56 66.5296 199.63L67.9596 199.94L71.2596 202.84C72.7596 205.57 78.7896 215.41 82.7796 212.13C85.7296 209.68 86.4396 205.57 86.9096 201.96C87.3596 198.59 89.3096 195.47 90.1196 192.22L93.6396 178.01C94.3796 175.11 96.6796 172.33 99.8596 171.59C104.73 170.47 113.69 189.65 115.04 193.74L117.46 201.08C117.63 201.58 117.91 202.67 118.03 203.19C118.13 203.55 116.41 203.4 116.18 202.98C113.38 198.11 108.79 190.7 104.85 186.09C102.95 183.86 99.7695 184.24 98.3396 186.02C96.6796 188.06 96.1096 189.99 95.2496 192.39C94.6296 194.17 92.1396 196.33 91.9196 198.31L90.8796 207.6C90.3296 212.45 88.7896 224.33 83.0896 225.51C80.6196 226.03 78.4996 223.78 77.1996 221.97C74.9196 218.79 72.8796 215.6 70.9996 212.23L67.1496 205.24C64.0396 208.88 65.1796 215.31 64.7496 221.52C64.6496 223.21 64.6996 224.66 64.7696 226.37C65.0496 232.76 65.0296 239.01 64.8396 245.45C64.7896 246.52 64.2196 248.49 64.9396 249.23C66.6996 251.06 73.8296 251.61 72.7796 248.42C71.8496 245.52 67.6196 236.21 70.9696 236.47L75.2196 244.33C76.4996 246.71 76.5996 249.08 79.9996 250.18C82.9896 251.15 86.6496 250.34 90.0296 250.32C92.6396 250.3 94.5896 250.46 97.0396 248.97L101.82 249.61C103.27 246 106.43 237.59 111.39 240.2C120.63 245.07 116.28 251.06 124.34 250.3L129.31 249.82C128.88 242.64 125.98 243.55 126.48 237.09L128.12 237.11L129.88 242.15C131.35 243.72 131.85 245.79 132.73 247.45C134.89 251.51 140.86 251.04 144.8 250.14L149.77 250.59C153.79 246.77 158.04 252.3 159.11 247.38C159.87 243.79 164.55 237.43 168.59 240.73C174.29 245.43 171.68 245.46 175.69 248.71C179.04 245.6 172.96 236.59 171.37 234.48" fill="#90BEFB"/>
</g>
</g>
<defs>
<clipPath id="clip0_2561_16853">
<rect width="176.7" height="251.86" fill="white"/>
</clipPath>
</defs>
</svg>
