<svg width="171" height="152" viewBox="0 0 171 152" fill="none" xmlns="http://www.w3.org/2000/svg">
<g clip-path="url(#clip0_2561_14491)">
<mask id="mask0_2561_14491" style="mask-type:luminance" maskUnits="userSpaceOnUse" x="0" y="0" width="171" height="152">
<path d="M170.16 0H0V151.17H170.16V0Z" fill="white"/>
</mask>
<g mask="url(#mask0_2561_14491)">
<path d="M121.09 0.00046875L122.32 0.840469C122.79 2.16047 123.66 3.52047 123.99 4.92047C124.49 7.02047 125.13 8.60047 126.75 10.1005L129.45 12.6005L136.01 17.3405L147.44 25.4405C148.83 26.4205 150.03 27.3805 151.56 28.1605C152.5 28.6405 153.24 29.5205 154.09 30.0905L166.68 38.6705C168.41 39.8505 170.3 41.0005 170.14 43.5105C170.05 45.0605 168.62 46.8505 166.99 47.1005L164.88 47.4205C161.05 48.0105 162.86 46.7805 158.99 47.8505C157.9 48.1505 156.58 47.8105 155.47 47.5705C152.91 47.0305 152.58 46.5105 150.79 47.2505C150.15 47.5205 149.2 47.1205 148.49 47.0005C143.27 46.1005 141 47.8705 135.21 46.9705C133.46 46.7005 133.05 47.9405 130.31 47.5505L127.19 47.0905C126.27 46.9505 125.27 46.3705 124.3 46.3805C122.88 46.3905 121.3 46.8305 119.96 46.5205C114.82 45.3305 115.39 47.5705 110.81 46.6005C108.95 46.2105 105.53 45.8505 104.97 48.0205C104.61 49.4205 107.64 50.9305 108.68 51.6005L110.38 52.7005L125.73 63.1105C126.36 63.5305 127.14 63.8705 127.79 64.2605L129.82 65.4505C131.46 66.4105 133.27 66.8305 135.01 67.4705C136.74 68.1105 138.36 68.5705 140.17 68.8805C141.97 69.1805 143.63 69.7005 145.47 69.3205C146.18 69.1805 147.43 68.8805 147.96 69.5505C148.56 70.3005 148.17 71.5605 148 72.4305C147.64 74.3105 147.32 76.1905 146.42 77.8905C145.51 79.6005 143.87 80.4905 142.41 81.5405C141.45 82.2305 139.58 84.8905 138.05 83.4305C136.43 81.8805 137.71 79.9505 136.2 78.1705C132.99 74.3905 135.75 76.5605 130.82 71.5305C129.74 70.4205 128.53 69.3605 127.3 68.4005L124.45 66.1905L122.25 64.4505L116.31 60.1705C115.22 59.3905 114.23 58.4805 113.03 57.8805C111.91 57.3205 109.67 55.2705 107.06 53.7405C104.73 52.3905 104.17 51.4205 101.19 49.7005C99.9097 48.9605 98.5197 48.7205 97.1597 48.3705C95.5397 47.9505 94.0797 47.6705 92.3997 47.6005C91.5897 47.5705 90.7597 47.3605 89.8597 47.2405C89.2897 47.1605 88.4297 46.6505 88.1297 46.0505C87.1197 43.9805 89.8197 40.7805 90.8197 39.1505C91.8497 37.4805 93.0897 36.3105 94.6797 35.3005C96.4297 34.1905 98.1097 33.5805 100.22 33.6505L104.5 33.7905C105.33 33.8205 106.36 34.3605 107.16 34.2905C108.31 34.2005 109.25 34.1505 110.3 34.6405C112.37 35.6305 112.85 33.5605 115.04 34.0405C116.42 34.3405 117.68 34.2805 119.08 34.3505L121.71 34.4605C123.56 34.5505 125.53 33.8005 127.37 34.1405C128.91 34.4305 130.13 34.4505 131.7 34.1005L135.05 35.0405C136.93 35.5705 143.6 34.2905 145.35 34.7905C146.66 35.1705 147.92 35.4005 149.28 35.3305C149.68 35.3105 150.66 35.4405 150.89 35.1305L152.07 33.4705C151.89 32.0505 150.7 31.7905 149.74 31.1505L137.4 22.8605L132.67 19.8305L131.17 18.9805C129.65 18.1005 128.18 16.8005 126.44 16.4905C124.03 16.0505 121.8 15.5405 119.43 14.9505C117.86 14.5605 116.23 14.4405 114.6 14.2405C114.13 14.1905 113.11 14.2905 112.77 14.0105C111.11 12.6605 111.09 10.4805 112.24 8.81047C114.57 5.43047 113.38 5.54047 116.16 2.89047C118.13 1.00047 117.82 0.210469 121.13 -0.0195312" fill="#90BEFB"/>
<path d="M63.5498 82.441C64.0898 86.281 62.4598 85.251 61.0598 90.881L60.5898 92.811C58.9998 93.921 58.0698 95.381 57.3298 97.121C56.9098 98.091 55.9298 98.841 55.3498 99.671C54.5098 100.891 53.7698 101.901 52.3198 102.491C50.8498 103.091 49.8498 104.451 48.5798 105.371C47.4598 106.181 46.1898 106.721 45.1998 107.531L40.0598 109.561L37.9298 110.011C32.9198 109.661 33.1598 110.651 27.2998 110.631C26.5098 110.631 25.6998 109.881 25.0898 109.431C24.3298 108.851 23.5898 108.851 22.6798 108.811C21.4498 108.751 19.8898 108.311 18.8998 107.551C14.4198 104.051 15.1198 106.701 12.1798 103.351C10.9698 101.961 9.81982 100.661 8.77982 99.141C6.06982 95.161 3.96982 92.301 2.52982 87.701L1.63982 84.861C1.10982 83.141 1.02982 81.321 0.609821 79.571C0.169821 77.571 0.00982095 73.401 -0.000179049 71.271C-0.010179 69.861 0.219821 68.601 1.05982 67.471C2.70982 65.261 0.0498209 64.401 3.80982 59.681C5.68982 57.331 4.00982 56.481 6.50982 54.311C7.46982 53.481 8.16982 52.601 8.90982 51.591C9.45982 50.841 10.4498 50.261 11.0798 49.591C12.3898 48.221 13.7198 47.261 15.3498 46.311L17.8698 44.841C19.9698 43.621 22.3298 42.911 24.6898 42.151L27.7398 41.161C29.7698 40.501 32.0298 39.981 33.5898 38.471C34.7698 37.331 35.9098 36.791 37.5698 36.871C38.6098 36.931 39.5698 37.171 40.3398 38.061L42.9298 41.031C43.5798 41.781 44.1198 42.681 44.9198 43.251C45.7398 43.841 46.2198 44.551 46.5498 45.541C47.5298 48.371 48.1898 47.951 48.5898 49.991C48.8098 51.061 48.5198 52.171 47.4998 52.591C46.5398 52.991 45.7598 52.051 44.9698 51.881C42.4198 51.361 40.7098 51.121 38.7698 49.101C37.7698 48.051 36.2298 47.901 35.0298 47.251C33.5198 46.431 32.2298 45.361 30.5098 45.251C27.9098 45.081 25.6098 45.591 23.1898 46.461C21.8798 46.931 20.4698 47.201 19.3398 48.111L16.4498 50.431C15.3898 51.281 14.1398 52.001 13.5098 53.261C13.0598 54.161 12.7398 55.331 11.9898 55.991C10.8198 56.991 10.2198 58.101 9.97982 59.611C9.45982 62.871 10.1398 60.701 9.28982 63.851C8.65982 66.201 8.98982 68.751 9.72982 71.041L10.7798 74.321C11.5898 76.811 15.0998 85.821 16.3298 87.931C16.9098 88.921 17.7898 89.751 18.5398 90.631C21.5798 94.151 20.9998 92.121 22.8698 94.221C25.2798 96.931 28.0898 95.891 29.2898 96.661C30.9998 97.751 32.6198 98.111 34.6298 97.741C36.1298 97.461 37.8198 97.611 39.3398 97.241C42.9998 96.341 47.6198 94.421 50.7198 92.221C51.8698 91.391 52.9298 90.401 53.9498 89.391C54.7898 88.561 55.1798 87.301 55.7098 86.251C56.1398 85.401 57.2898 84.941 57.8098 84.221L60.1698 80.971C60.4998 80.511 61.2298 79.781 61.7498 79.881C63.1698 80.131 63.3798 81.321 63.5398 82.421" fill="#90BEFB"/>
<path d="M85.4998 114.12C86.5398 113.88 87.4998 114.8 87.8798 115.67L96.4298 124.74C97.7798 126.17 98.3498 128.35 97.6698 130.17C97.3498 131.03 96.1198 131.68 95.2998 131.8C93.9598 132 92.9398 132.4 91.7898 133.05C90.6698 133.67 89.4998 134.15 88.3398 134.66C86.5798 135.44 84.9398 135.93 83.0098 136.13C82.1598 136.21 81.2298 137.05 80.4398 137.37C78.7798 138.03 77.3198 138.75 75.8798 139.74C75.0098 140.35 74.0698 140.19 73.1598 139.71C72.4098 139.31 71.8798 138.23 72.5698 137.43C74.1298 135.62 75.0498 133.58 76.1698 131.44C76.9698 129.92 78.0998 128.61 78.7698 126.98C79.2298 125.86 79.2898 124.74 79.4698 123.53C79.6898 122.15 81.0898 121.09 81.6998 119.85L83.4698 116.27C83.8898 115.43 84.5998 114.33 85.5198 114.11M85.7298 81.2298L84.7098 84.6998C84.3898 85.7798 83.7798 86.8698 83.5198 87.9598C83.2398 89.1898 82.9198 90.1898 82.1798 91.2398C81.4598 92.2898 81.1298 93.5698 80.6798 94.7798C80.1998 96.0598 79.4298 97.3098 79.1598 98.6298C78.8398 100.17 78.3298 101.44 77.5098 102.81C76.9698 103.7 76.5298 104.64 76.0598 105.59C75.4198 106.87 74.5198 108.05 74.2098 109.44C73.5198 112.55 72.1498 115.1 70.3998 117.78C69.8298 118.67 69.6498 119.86 68.9998 120.71L66.9598 123.39L65.8398 126.13C65.4598 127.07 64.6498 127.8 64.1998 128.69C63.2998 130.48 62.4298 132.13 61.4198 133.85C60.8898 134.76 60.3898 135.76 60.2298 136.82L59.5798 141.25C59.2898 143.19 60.0498 144.22 61.2798 145.61C63.8198 148.51 64.3898 149.31 68.3598 151.02C69.4698 151.5 70.5298 150.79 70.8198 149.69L71.4898 147.18C72.6398 145.39 74.4598 144.5 76.3498 143.74C78.0998 143.04 79.6998 142.29 81.3598 141.46C82.8898 140.68 84.4998 140.28 86.1798 140.2C87.0798 140.16 87.8098 139.82 88.6298 139.48C89.5698 139.08 90.7398 138.86 91.5798 138.32C93.2498 137.24 94.8698 136.36 96.7598 135.94L103.15 132.82C104.27 132.27 105.34 131.57 106.51 131.14C108.45 130.41 110.37 129.58 112.39 129.27C118.32 128.38 114.28 127.49 123.11 126.65C124.56 126.51 125.85 126.52 127.34 126.66C128.25 126.75 129.38 126.08 130.32 126.07C131.2 126.07 131.98 126.1 132.52 125.38C133.8 123.67 131.77 121.28 130.49 119.97C130.06 119.53 129.68 118.92 129.29 118.47C128.01 117.01 126.75 115.68 125.34 114.3C124.46 113.42 121.6 111.73 120.21 112.75C118.89 113.69 119.76 114.74 118.76 117.28C118.26 118.52 117.97 119.89 117.11 120.97C116.32 121.95 115.08 122.42 114.08 123.12C111.8 124.73 109.39 125.8 106.81 126.76C105.17 127.37 103.84 127.4 102.55 125.97L98.8998 121.96C96.8898 119.75 95.5498 118.69 93.2998 116.1C91.1698 113.63 89.1098 111.73 89.0498 108.51C88.9398 102.3 89.4598 104.41 90.4598 101.36C91.3898 98.4998 92.5898 97.3798 94.9298 95.6898L99.5198 94.5698C100.17 94.4098 101.2 94.3598 101.57 93.7498C102.67 91.9098 101.84 90.0098 100.55 88.5598L96.4398 83.9398C95.3698 82.7498 94.2798 81.6698 93.1598 80.5398C91.4198 78.7498 89.6698 77.2598 86.9698 77.5198C85.3798 77.6698 86.0598 80.1098 85.7298 81.2398" fill="#90BEFB"/>
</g>
</g>
<defs>
<clipPath id="clip0_2561_14491">
<rect width="170.16" height="151.17" fill="white"/>
</clipPath>
</defs>
</svg>
