<svg width="305" height="245" viewBox="0 0 305 245" fill="none" xmlns="http://www.w3.org/2000/svg">
<g clip-path="url(#clip0_2550_3600)">
<path d="M304.74 78.64C304.55 79.26 305.04 80.38 304.78 81.88C305.09 82.39 304.99 82.81 304.87 83.35L304.28 85.84C304.15 86.4 303.99 86.94 303.82 87.47C303.57 88.29 303.51 89.19 302.64 89.64C302.71 90.37 301.99 90.59 301.66 91.07L300.49 92.7C299.71 93.8 299.14 94.77 297.84 95.44C297.53 95.61 296.42 97.12 294.22 98.27C293.58 98.6 293.15 98.78 292.6 99.25C292.08 99.7 291.18 99.9 290.56 100.23C289.13 100.98 288.24 100.56 287.45 100.91C284.91 102.05 287.27 100.74 284.49 101.52C284.26 101.58 281.62 102.51 281.82 102.59L281.64 102.63C280.39 102.43 279.11 103.13 277.78 103.2L275.62 103.32C274.19 103.4 272.77 103.26 271.36 103.13C270.59 103.06 267.42 102.39 266.45 102.19C265.96 102.08 265.46 101.89 264.96 101.73C262.86 101.07 262.1 101.12 260.22 99.57L258.72 98.33C258.41 98.08 256.48 96.07 256.24 95.71C255.75 95.01 255.43 94.15 254.89 93.5C254.49 93.04 253.87 92.51 253.66 91.99L253.09 90.61C252.95 90.27 252.79 89.68 252.68 89.25L252.35 87.88C252.76 86.57 254.15 86.09 255.41 86.05C255.85 86.03 256.55 85.8 256.9 85.85C257.62 85.94 257.9 85.92 258.65 85.58C258.78 85.81 258.97 86.58 259.14 86.85L260 88.11C261.8 90.77 259.45 88.61 263.52 92.63C265.48 94.57 264.48 92.55 266.34 94.66C266.61 94.97 267.49 95.07 267.86 95.27C268.9 95.84 269.86 96.2 271.03 96.48L272.73 96.88C274.94 97.41 274.35 96.56 276.91 97.38C277.48 97.4 278.44 97.02 279.02 97.08C279.68 97.15 280.06 97.22 280.51 96.6L281.37 96.82C281.75 96.3 282.17 96.24 282.75 96.46C283.92 96.89 283.49 95.33 284.87 95.98C285.95 95.46 287.25 94.78 288.31 94.12C291.23 92.32 289.6 93.95 291.82 92.49C293.8 91.19 293.26 90.85 294.67 89.78C295.11 89.44 295.3 88.94 295.59 88.6C296.39 87.67 296.97 86.9 297.25 85.66L297.71 83.56C297.81 83.13 298.08 82.4 297.95 82.05C297.89 81.87 297.24 81.65 297.31 81.49C297.39 81.35 297.63 81 297.68 80.84C298.05 79.7 297.28 78.32 296.99 77.23C296.66 75.97 296.13 75.13 295.11 74.4C294.4 73.89 294.22 72.76 292.27 72.26C291.33 72.02 290.47 71.81 289.53 71.63C288.21 71.38 286.89 70.92 285.53 70.91C284.48 70.91 283.51 70.95 282.44 70.73C281.86 70.61 281.43 70.75 280.84 70.82C279.89 70.92 278.81 70.54 277.8 70.51C277.47 70.51 276.78 70.74 276.45 70.72C275.66 70.65 274.74 70.43 273.99 70.51C273.41 70.57 272.91 70.99 272.29 70.63C271.89 70.4 271.36 70.83 270.96 70.83H268.21C267.53 70.82 267.04 70.89 266.43 70.76L264.83 70.41C263.62 70.14 262.8 70.28 261.46 69.8C258.27 68.65 257.78 69.65 257.04 68.98C255.69 67.73 255.57 68.79 253.84 67.62L252.89 66.98C251.91 66.31 250.94 65.79 250.28 64.7C250.05 64.31 249.63 63.71 249.31 63.5C248.37 62.85 249.08 63.01 247.92 60.87C247.33 59.79 246.99 58.72 247.3 57.48L246.48 56.58C246.63 55.85 246.56 55.38 246.57 54.72C246.6 52.36 247.05 51.94 246.83 50.22C246.94 49.56 247.05 48.58 247.41 47.9L248.7 45.51C249.85 43.37 249.13 44.81 250.64 42.66C251.17 41.9 251.69 41.24 252.46 40.66C253.88 39.6 252.93 39.6 254.85 38.49C257.18 37.14 255.56 36.84 261.13 34.92L263.32 34.16C263.82 34.15 264.45 34.15 264.94 33.98L268.73 32.68C270.76 31.98 273.57 31.7 275.71 32.08C277.06 32.32 278.41 32.67 279.72 32.8C283.65 33.19 281.57 33.34 284.44 34.14L286.01 34.58C286.73 34.78 287.29 35.36 287.93 35.77C288.54 36.15 288.88 36.54 289.43 37.01L291.31 38.65L292.38 39.87L293.23 41.13C294.24 42.63 295.38 44.08 295.36 45.92C295.34 48.33 293.16 47.53 292.32 48.31C287.62 48.2 289.37 44.84 284.2 41.69C280.59 39.48 283.65 40.92 280.09 39.61C279.38 39.35 278.75 39.19 278.02 39.05C276.85 38.83 275.65 38.43 274.44 38.65C273.6 38.8 272.78 38.47 272.07 38.53C270.32 38.66 268.72 39.24 267.09 39.48C264.99 39.79 264.08 40.25 262.3 41.17L260.72 42L259.25 42.91C256.48 44.62 255.39 45.45 254.01 48.55C253.86 48.89 254.01 49.76 253.79 50.05C252.66 51.57 253.86 52.03 252.78 54.42C253.63 56.76 253.51 55.41 253.97 57.35C254.32 58.82 255.63 60.09 256.84 61.02L258.56 62.34C260.75 64.03 263.76 63.68 265.24 64.09C266.47 64.42 267.71 64.18 269.8 64.32C270.31 64.35 270.96 64.21 271.41 64.21C272.43 64.21 273.37 64.29 274.4 64.15C274.93 64.08 275.72 64.13 276.16 64C276.88 63.78 277.16 63.67 277.83 63.9C278.73 64.2 279.77 63.9 280.75 63.87C281.42 63.85 282.35 64.24 282.99 64.09C283.5 63.97 283.92 63.85 284.38 63.91L286.19 64.17C286.59 64.23 287.46 63.89 287.88 63.88L290.45 64.42C290.65 64.51 294.52 65.79 294.78 65.98C295.66 66.6 296.64 67 297.68 67.38C300.3 68.95 302.44 71.97 303.46 74.88C303.65 75.4 303.63 75.94 304.18 76.17L304.72 78.62L304.74 78.64Z" fill="#90BEFA"/>
<path d="M168.07 44.4401C168.07 43.7301 167.46 43.4101 167.14 42.9101C166.47 41.8801 166.25 40.2801 165.77 39.1401C165.68 38.9401 165.16 38.4901 165.09 38.2501L164.44 35.7701C164.18 34.7901 164.06 34.0201 163.98 33.0201C163.95 32.6201 163.67 31.9801 163.67 31.5101C163.64 30.7201 163.44 29.8001 163.53 29.1001L163.81 26.9601C163.9 26.2801 163.95 25.7401 163.99 25.0201C164.02 24.5901 164.51 23.9001 164.7 23.4501L165.26 22.0701L165.94 20.2201C166.18 19.5701 166.47 19.0501 166.82 18.4701L167.98 16.5201C169.11 14.6101 169.27 15.6101 170.31 13.7401C170.63 13.6001 170.91 12.9901 171.13 12.8001C171.56 12.4901 172.06 12.2801 172.3 11.7901C172.7 11.4601 173.54 11.1401 173.93 10.7901C175.76 9.1201 177.15 9.1201 178.91 8.4001C180.03 7.9501 181.07 7.2901 182.34 7.3301C185.67 7.4401 185.47 6.4301 187.45 6.9701L189.32 7.4801C191.79 8.1501 191.06 7.4101 194.08 8.7001C194.88 9.0401 195.66 9.3501 196.43 9.7501L200.23 11.7201C200.9 12.0701 201.58 12.3001 202.19 12.7901L203.64 13.9601C204.17 14.3801 204.05 14.8801 204.03 15.4301C203.97 16.6501 203.48 17.2801 202.63 18.1001C200.44 20.2401 201.14 19.3501 199 21.1801L197.3 22.6401L196.11 23.6501L194.68 24.9601C194.27 25.3301 193.85 25.6801 193.41 26.0501L192.06 27.1601L190.39 28.5201C189.04 29.6201 189.27 30.0301 188.81 30.2001C188.23 30.4101 187.78 31.1801 187.29 31.4801C184.58 33.1801 186.78 31.7701 184.89 33.4001L183.66 34.4601L182.62 35.3601C182.22 36.0301 181.81 36.3601 181.21 36.8601L179.86 37.9601C178.94 38.7101 178.04 39.4701 177.24 40.2701L176.15 41.3501C175.79 41.7001 175.43 42.0401 175 42.2901C174.42 42.6301 173.99 43.0701 173.47 43.4601C173.02 43.7901 172.39 43.9901 171.94 44.4601C171.37 45.0601 169.36 45.9401 168.39 45.3201C168.21 45.2101 168.06 44.6901 168.06 44.4701M175.64 50.0601C175.94 49.6801 176.15 49.4001 176.57 49.1001L176.97 48.0601C177.72 48.1201 178.1 47.7101 178.11 47.0401L179.17 46.6701C179.42 45.9401 180.05 45.8501 180.6 45.4901C182.91 43.9701 182.73 43.5301 184.25 42.3001C185.45 41.3201 186.57 40.3401 187.69 39.2601L188.64 38.3501C189.18 37.8201 189.85 37.4301 190.45 36.9301L191.85 35.7901L193.54 34.0201L194.67 33.0501L196.01 31.9001C197.11 30.9601 198.35 30.2501 199.4 29.2901L200.16 28.6001L201.33 27.6401C202.04 27.0601 202.79 26.4901 203.38 25.7801C203.96 25.1101 204.63 24.6501 205.33 24.0701C206.91 22.7801 206.91 22.3501 208.33 21.4601L209.26 20.5101C209.82 20.2801 210.13 20.0401 210.55 19.7001C212.81 17.8501 214.33 16.6101 212.91 13.4901L211.59 12.2301C211.26 11.9101 210.86 11.6001 210.53 11.2001L209.19 9.6101L208.15 8.4901C206.71 6.9401 204.82 6.4001 203.35 5.4101C202.94 5.1401 202.47 4.9401 202.06 4.7301L199.75 3.5401C199.42 3.3701 199.27 2.8701 198.67 3.0001C198.14 3.1201 197.73 2.7201 197.29 2.4701L195.84 1.6501C195.45 1.4301 192.84 0.680101 192.11 0.490101C191.73 0.400101 191.05 -0.0398986 190.68 0.0401014C189.79 0.220101 189.2 0.100101 188.33 0.0201014C187.84 -0.0298986 187.12 0.0401014 186.59 0.0601014L185.05 0.110101C184.55 0.130101 183.77 0.160101 183.31 0.250101L181.23 0.670101C180.67 0.780101 180.1 0.990101 179.5 1.1801C176.85 1.9901 176.67 0.640102 175.7 2.2101C174.54 2.5401 173.53 3.2201 172.63 4.0101L171.64 4.3501L169.51 6.0401L167.93 7.2601C167.48 7.6101 167.08 8.0701 166.56 8.3001C165.37 9.9801 165.16 9.7501 163.69 11.6201C161.08 14.8901 162.72 12.8101 160.8 15.7801C160.6 16.0901 160.18 16.5401 160.03 16.8301L158.78 19.3201L157.47 22.6001C157.12 23.4801 156.96 24.1001 157.18 25.0501C155.92 27.7701 156.98 28.7801 156.79 30.4201C156.72 31.0301 156.7 31.2901 156.78 31.8801L157.03 33.9501V33.9701C157.13 34.3001 158.05 38.9201 157.9 38.4801C158.23 39.4501 158.44 40.5501 158.82 41.4201L160.33 44.8401C160.8 45.9001 161.64 46.8201 161.92 47.9901C162.4 48.0901 162.96 48.6101 162.95 49.0501C162.95 49.9901 163.64 49.9901 164 50.5201L165.31 52.4401C165.75 53.0801 166.22 53.5701 166.71 54.1301C167.99 55.5701 167.45 55.3301 168.98 56.7401L171.14 58.7301C171.47 59.0401 171.63 59.5201 172.23 59.7601L173.78 61.2501C173.07 60.5701 178.39 64.3901 178.53 64.5501C178.52 64.5501 178.51 64.5501 178.51 64.5501C181.44 66.1701 180.16 66.0401 183.05 67.0601C183.73 67.3101 184.39 67.8201 185.17 67.9701C187.36 68.3801 186.95 68.5101 189.29 69.1401L190.92 69.5801C191.24 69.6701 191.59 69.7101 191.94 69.7401C193.52 69.8901 195.15 70.2001 196.71 69.8601C198.87 69.4101 196.34 70.4101 199.43 69.5901L201.51 69.0401C202.87 68.6701 204.2 68.4201 205.23 67.3001C206.7 67.1801 207.79 66.3601 208.95 65.5901C210.98 64.2501 211.19 63.7201 211.93 63.2001L213.79 61.8501C214.38 61.4301 214.71 61.1601 215.19 60.5801C215.47 60.2501 216.09 59.7901 216.47 59.4601L216.94 59.0501C217.05 58.9601 216.96 58.6401 216.94 58.4201L218.35 57.7601C220.22 55.9801 218.81 56.4001 220.33 55.6101L220.96 54.3601L221.57 53.0601C221.75 52.6801 222.61 52.2001 222.31 51.5801L222.87 51.1101L223.85 48.8701L224.58 47.2601L225.49 45.3801C225.44 44.5801 225.49 43.9401 226.03 43.2901C226.18 42.8601 226.08 41.9701 226.1 41.4501L226.18 38.5301C226.2 37.9301 226.15 37.3301 225.93 36.7301C225.75 36.2501 225.92 35.6701 225.86 35.2201C225.59 33.0101 225.15 30.7601 224.15 28.8301L223.33 27.2701L221.75 26.3301C220.33 26.4501 219.01 26.8501 217.96 27.8701L217.31 29.4601L217.78 33.0601C217.96 34.4001 219.05 35.6001 219.04 36.9801C219.04 38.0101 219.04 39.2301 219.1 40.2501C218.7 42.1501 217.88 44.8801 217.13 46.7101C217.06 46.8901 215.84 48.2901 215.14 50.1601C214.87 50.9001 214 51.5401 213.61 52.2101C213.09 53.1001 212.63 53.6001 211.82 54.1901C211.39 54.5001 210.97 55.2401 210.44 55.3801C208.71 55.8601 208.93 57.0201 207.09 57.5901C206.52 57.7701 206.12 58.3701 205.71 58.5801C204.47 59.2201 203.37 59.7701 202.18 60.5101C201.52 60.9101 200.43 60.8901 199.69 61.1501L198.25 61.6401C197.73 61.8101 197.24 61.8501 196.73 61.9001C193.21 62.2601 191.58 62.0001 188.14 60.9101L185.89 60.2001C184.71 59.8301 183.71 59.3701 182.62 58.7001L180.45 57.3501C180.12 57.1401 179.78 56.9901 179.48 56.7201L178.51 55.8601C176.56 54.1301 177.98 55.8401 176.16 54.1301C175.41 53.4301 174.2 53.0101 174.36 51.7201L175.61 50.1201L175.64 50.0601Z" fill="#90BEFA"/>
<path d="M119.74 104.97C119.37 105.27 119.62 106.02 119.5 106.31C118.94 107.6 118.42 108.86 117.57 109.98L116.57 111.29C116.24 111.72 116.08 112.15 115.78 112.55C114.9 113.74 113.19 115.09 111.99 115.98L110.67 116.95C110.24 117.26 109.23 117.36 108.9 117.68C108.2 118.36 107.59 118.09 106.84 118.28C104.73 118.79 102.77 119.3 100.53 119.24L98.2597 119.16C95.9297 119.08 96.5197 119.37 94.9997 118.92C94.2697 118.7 93.3597 118.71 92.6497 118.46C92.2597 118.32 91.9997 118.3 91.5997 118.38C90.6697 118.08 89.5297 117.66 88.6397 117.15C85.3997 115.3 86.9997 117.15 83.2697 113.91C80.4697 111.47 78.7697 108.24 78.8397 104.58L78.8697 103.26C78.8897 102.19 79.1497 101.05 79.8797 100.22C79.8797 100.22 80.9597 98.3 80.9697 98.27C81.4597 97.63 81.9297 96.98 82.2997 96.28C82.5297 95.86 83.1397 95.14 83.5397 94.86C86.6297 92.71 88.4797 94.12 88.7497 92.4L90.6097 92.59C90.7897 91.81 91.4797 92.1 91.9197 91.93L93.1497 91.45C93.4797 91.32 93.8597 91.12 94.1897 91.05C94.3197 91.02 94.6897 90.97 95.1397 90.92C95.2397 90.91 95.3497 90.9 95.4597 90.89C96.1397 90.82 96.9197 90.74 97.4097 90.69C97.4997 90.69 97.5897 90.67 97.6597 90.67C97.7397 90.67 97.7997 90.66 97.8597 90.65C97.9197 90.65 97.9697 90.64 97.9997 90.64C98.0497 90.64 98.0797 90.63 98.0797 90.63L99.7997 90.72C100.62 90.77 101.99 89.83 102.86 90.7L104.33 90.42C104.77 90.34 105.23 90.59 105.64 90.55L106.9 90.42C107.79 90.33 108.76 90.14 109.64 90.15H111.47C112.33 90.17 113.19 90.06 114.04 89.99L116.9 89.74L118.51 89.99C119.12 90.09 119.55 90.38 120.05 90.68C121.33 91.42 121.81 92.79 121.36 94.13C121.46 94.53 121.45 95.11 121.37 95.6C121.25 96.31 121.45 96.95 120.85 97.51C121.42 98 120.92 98.65 120.96 99.15C121.04 100.62 120.96 101.98 120.05 103.2C120.01 103.71 120.28 104.58 119.73 105M125.18 121.05L125.27 118.04C125.29 117.42 124.92 116.74 125.62 116.23L125.41 115.28L125.71 113.36C125.79 112.84 125.84 112.42 125.89 111.92L126.13 109.39C126.21 108.5 126.42 107.52 126.56 106.58L126.87 104.68C126.96 104.1 127.02 103.6 127.07 103.03L127.23 101.1C127.28 100.51 127.49 100.03 127.16 99.44L127.6 98.24C127.1 97.74 127.78 97.1 127.73 96.72C127.61 95.92 127.63 95.45 127.87 94.71C128.1 93.97 127.92 92.85 128.27 92.1C128.98 90.61 128.42 90.86 128.66 88.67L128.84 87.02C128.96 86 129.26 84.96 129.19 83.9C129.05 81.86 129.66 83.83 129.59 80.66C129.57 79.97 129.72 79.48 129.96 78.78C130.16 78.19 129.78 77.17 129.88 76.57C130.43 73.34 129.58 75.1 130.11 72.65C129.91 71.98 129.79 71.36 129.65 70.56C128.73 65.63 128.75 69.23 128.12 66.45C128.02 66.01 126.59 63.72 126.27 63.33C125.89 62.87 125.46 62.56 125.28 61.97C125.21 61.73 125.05 61.26 124.85 61.25L123.96 61.18L123.39 60.4C118.79 59.26 120.45 57.86 118.34 57.48C116.85 57.21 116.98 56.63 115.86 56.23L113.98 55.56C113.66 55.44 112.88 55.48 112.54 55.42L110.44 55.02C109.6 54.86 108.64 55.36 107.74 55.22L106.29 54.98L104.07 54.6L100.07 54.5C99.6397 54.49 99.2997 54.29 98.9097 54.32L95.3397 54.55C94.8597 54.58 94.1597 54.48 93.8197 54.63C93.5297 54.76 93.2197 55 93.0797 54.89L92.5097 54.47L91.3697 54.9C91.0897 55.57 90.5997 56.29 89.8697 56.43C86.3697 57.08 89.5097 57.46 86.3897 58.23L85.4297 58.83C84.2697 59.55 83.6297 60.91 82.7397 61.96C82.3597 62.41 81.3797 62.77 81.1597 63.33C80.4097 65.27 79.7597 67.02 78.5697 68.75L78.6197 69.99C78.1697 70.91 78.1497 72.45 79.1997 73.08C79.7397 73.4 80.7597 73.73 81.4097 73.88C84.5997 73.24 84.4697 73.08 85.8397 70.67L87.1197 68.42L87.9697 67.02C88.2197 66.6 88.7097 65.93 88.9997 65.57C89.7497 65.3 90.2997 64.68 90.9097 64.32L92.7297 63.3C93.0697 63.11 93.6097 62.83 94.0597 62.75L95.7597 62.43C96.2897 62.32 96.5997 62.19 97.1697 62.16C98.1997 62.08 99.2397 61.81 100.28 61.67L103.05 61.29L103.77 61.65C104.08 61.51 104.5 61.31 104.68 61.42L105.31 61.82C105.86 61.63 106.43 61.65 107 61.78L111.26 62.77C112.15 62.98 113.02 63.04 113.9 63.61C115.85 64.88 115.19 63.19 117.72 65.26L119.32 66.55C120.02 67.9 121.28 68.34 121.84 70.16C121.99 70.61 122.11 71.18 122.28 71.62C122.68 72.66 122.7 73.8 122.9 74.88C123.07 75.79 122.96 76.62 122.55 77.58L123.5 78.79C122.52 79.06 122.65 79.54 122.4 80.17C122.18 80.74 122.05 81.18 122.08 81.84C122.1 82.77 120.1 82.67 119.36 83.14C118.65 83.12 118.06 83.23 117.28 83.42C116.52 83.6 115.42 83.25 114.63 83.36C113.45 83.52 112.43 83.49 111.29 83.44C110.52 83.4 108.05 83.63 106.8 83.66L103.76 83.73C103.17 83.73 102.58 83.98 101.93 83.9L100.48 83.73L97.8597 84.02C97.2697 84.08 96.7397 84.07 96.1197 84.1L94.4897 84.18L92.8897 84.28C92.7497 84.29 92.4097 84.13 92.3097 84.2C92.1997 84.28 91.9297 84.47 91.8097 84.56C90.3297 84.57 87.4197 85.3 86.0997 85.85L83.4397 86.95L82.1997 87.46L80.5197 88.34C79.5097 88.87 78.6297 89.16 77.7797 89.87C75.9797 91.39 76.2597 91.15 74.8897 93.18C74.1097 94.32 73.0997 95.79 72.7897 97.21L72.2897 99.39C72.1897 99.85 72.0497 100.46 71.9797 100.9L71.6897 102.91C71.5897 103.66 71.7197 104.6 71.6597 105.38C71.5497 106.61 71.8397 107.6 72.0897 108.75C72.2297 109.4 72.3697 109.98 72.6097 110.63L73.3597 112.64C73.8097 113.86 75.2197 115.65 76.2697 116.51C76.7497 116.9 77.0797 117.65 77.4697 118.08L78.5897 119.36C78.9997 119.82 79.7297 120.4 80.2297 120.75C81.0497 120.61 81.4997 120.96 81.8297 121.6L83.1797 122.11C83.6497 122.28 84.1997 122.44 84.5897 122.65C85.2197 123.01 85.6497 123.39 86.3797 123.58L87.5597 123.88C88.4797 124.12 89.4297 124.64 90.3897 124.73C93.6197 125.01 91.8197 125.39 93.6697 125.15C94.2297 125.07 94.9897 125.52 95.5997 125.03L96.3897 125.62L97.8397 125.34C98.3597 125.24 98.8497 125.31 99.4197 125.36C100.06 125.42 100.98 125.09 101.68 125.24C102.12 125.33 102.44 125.33 102.82 125.28L104.87 125L107.98 124.58C108.37 124.53 108.86 124.22 109.19 124.12C110.79 123.63 112.16 123.06 113.65 122.33L114.78 121.77C115.08 121.62 115.83 121.57 116.2 121.54C117.75 121.45 117.64 123.69 119.06 125.94C119.73 127.01 121.05 126.72 122.09 126.68C122.89 126.65 124.25 126.93 124.65 126.07L125.15 122.5C125.2 122.16 125.17 121.47 125.18 121.08" fill="#90BEFA"/>
<path d="M169.69 101.88C169.55 102.95 169.7 103.91 169.78 104.95C169.99 107.51 170.14 106.3 169.91 108.55C169.84 109.27 170.06 109.6 170.29 110.13C170.65 110.93 170.54 111.51 171.55 111.75C172 111.86 172.65 112.15 173.17 112.15H176.28C178.42 112.15 177.81 112.47 179.18 112.18C182.24 112.77 181.09 111.77 184.38 112.21C187.08 112.57 185.41 112.16 187.92 112.32C188.78 112.38 189.75 112.36 190.59 112.52C191.91 112.76 193.31 113.01 194.52 112.53C195 112.74 195.6 112.76 196.14 112.77H197.95L199.74 112.79L201.31 112.84C201.87 112.86 202.41 112.82 203 112.79L205.01 112.7L206.87 112.85L208.59 112.79L210.71 112.9L214.07 112.6C214.59 112.55 215.27 112.74 215.88 112.6L217.82 112.13C219.81 111.66 219.71 112.09 220.79 111C221.41 110.37 222.24 109.86 222.6 109.03C222.9 108.35 223.55 107.59 223.61 106.9L223.77 105.19C223.82 104.57 223.76 103.76 224.44 103.52C224.86 103.38 225.07 103.15 225.39 102.79C225.63 102.5 226.47 102.93 226.84 102.95C227.24 102.97 227.74 102.97 228.08 103.19C228.38 103.39 228.35 104.03 228.47 104.36C229.34 106.84 228.41 104.71 228.89 107.63C229 108.3 228.62 109.29 228.6 110.05C228.58 111.01 228.57 112 228.05 112.75C227.12 114.09 226.35 115.6 224.91 116.4L223.76 117.04C222.43 117.78 220.95 117.97 219.44 118.32C218.83 118.46 218.2 118.15 217.64 118.13C216.63 118.08 215.6 118.95 214.55 118.25C213.7 119.1 212.67 118.54 211.7 118.61C211.15 118.65 210.52 119.11 209.9 118.61L209.03 119.11C208.51 118.31 207.91 118.82 207.29 118.89C206.75 118.96 206.13 118.77 205.62 119.16L204.67 118.71L202.73 118.77C202.1 118.79 201.49 118.75 200.78 118.72C200.39 118.69 199.87 119.04 199.46 118.66C199.21 118.78 198.65 119.18 198.4 119.05L197.48 118.56C196.98 118.96 196.35 119.06 195.89 118.54L194.65 118.81C194.08 118.49 193.55 118.75 193.11 118.71C190.98 118.49 189.92 118.73 187.71 118.75H185.93C184.9 118.76 184 118.93 182.86 118.87L180.38 118.75H179.12C178.16 118.77 177.08 118.89 176.13 118.84C174.88 118.76 169.59 117.92 169.72 120.12C169.75 120.67 169.95 121.28 169.78 121.94L170.48 123.04L169.65 123.74C169.81 124.11 170.04 124.45 169.95 124.62L169.47 125.5C169.2 126.01 169.87 127.03 169.33 127.58C168.97 127.94 167.99 128.34 167.53 128.21C166.75 128.01 166.23 127.9 165.46 128.1L164.33 127.43C164.01 126.73 163.56 125.7 163.67 124.96C164.06 122.2 163.28 125.55 163.83 121.88C163.97 120.9 163.99 119.46 162.9 118.95L161.18 118.14C160.45 117.8 159.37 119.12 157.79 118.12L156.09 118.17C154.92 118.2 151.07 118.39 150.29 117.76C148.62 116.41 149.29 113.33 149.92 112.83C150.78 112.14 152.06 111.95 153.12 111.84L155.38 111.61C156.18 111.77 156.68 111.77 157.47 111.73L158.95 111.65C159.63 111.91 160.27 111.94 160.96 111.88C162.89 111.73 163.72 110.65 163.85 108.93L163.97 107.3C164.03 106.55 163.93 105.88 163.85 105.19C163.77 104.55 164.68 103.82 164.02 103.03L164.69 101.05L167.3 100.64C168.26 100.48 169.67 101.38 169.74 101.86" fill="#90BEFA"/>
<path d="M40.9699 185.66C40.6799 186.71 39.6399 187.14 38.8399 187.62C37.9199 188.19 37.4299 188.8 36.2699 188.12C35.8199 187.85 34.9199 187.68 34.3799 187.46C33.8299 187.22 33.3899 187.05 32.8899 186.89L31.7599 186.52C31.0799 186.3 30.5699 186.18 29.8599 186.07C28.4499 185.86 28.2699 185.19 25.0199 185.65C24.9099 185.67 24.5899 185.42 24.5199 185.49L24.1099 185.87L22.6699 187.16C21.7399 188 20.3499 187.8 19.4199 187.87C17.7399 188.98 16.2599 189.03 14.5799 190.69L12.9999 192.24C12.7099 192.51 12.4399 192.95 12.1999 193.24L11.4099 194.22L10.2499 195.6C9.98989 195.9 9.94989 196.21 9.76989 196.59L8.85989 198.42L8.38989 200.2C8.26989 200.66 8.14989 201.06 7.96989 201.59L8.18989 202.76C7.49989 203.35 7.79989 204.2 7.63989 204.94C7.46989 205.75 7.52989 206.52 7.48989 207.37C7.40989 208.68 7.25989 209.75 7.71989 211.11C7.84989 211.51 7.77989 212.34 7.98989 212.83C8.75989 214.65 7.52989 214.31 8.80989 217L9.63989 218.75L10.5699 220.5C11.1499 221.59 12.0099 222.53 12.6599 223.58C13.1599 224.41 13.5799 225.24 14.1799 226.08C14.4099 226.41 14.9099 226.73 15.1399 227C15.9299 227.88 16.8199 228.74 17.9699 229.26C18.0699 229.3 20.9199 232.55 22.6299 233.64L24.1299 234.61C24.5699 234.89 25.2399 235.24 25.6899 235.41L27.4599 236.06C29.7099 236.89 27.6399 236.69 30.8499 237.28L31.7999 236.72C31.9499 237.17 31.9999 237.5 32.1799 237.57C32.3599 237.64 32.8199 237.71 32.9999 237.8C33.5499 238.03 34.0399 238.31 34.6399 238.07C35.8599 237.6 35.0299 238.71 37.7699 238.34C39.8699 238.06 39.2199 238.56 42.2499 237.71L44.4599 237.09C45.1899 236.88 45.8899 235.8 46.6999 235.71C47.4599 235.64 47.7399 235.1 48.2699 234.74C49.0999 234.18 49.9699 233.78 50.6899 232.93C51.2199 232.3 51.9299 231.96 52.6699 231.61C54.0699 228.81 53.8399 230.2 54.7599 228.77C55.2599 228.01 56.0599 226.86 56.2299 225.8L57.0099 224.82C56.9399 224.28 57.0899 224 57.3999 223.53C57.8199 222.89 57.7999 221.93 57.9999 221.21L58.3399 219.94C58.5599 219.14 58.5199 218.41 58.5199 217.52C58.5199 215.62 58.5499 214.61 57.4799 212.62L56.7699 211.29C56.5199 210.84 56.4399 209.66 56.7499 209.25C57.1099 208.78 57.5599 208.19 57.8999 207.8C58.2999 207.33 58.7599 207.19 58.9899 206.5C59.1199 206.1 59.8599 206.64 60.1699 206.65C61.0999 206.69 62.1499 206.97 62.2999 208.17C62.3799 208.82 62.9599 209.6 63.1199 210.22L63.8599 213.05L64.6699 216.13C64.9899 217.36 64.9299 218.47 64.8799 219.68C64.8199 220.97 64.6999 221.56 64.1699 222.85L63.7099 223.96C63.4999 224.47 63.3499 225 62.9499 225.41C61.1199 227.3 62.4499 226.97 61.4499 228.64L60.2699 230.61C59.1499 232.48 58.9099 233.19 56.8199 234.77C56.5799 234.95 56.1299 235.47 55.9799 235.78C55.3399 237.15 54.6099 236.84 52.6699 238.36L50.8299 239.8C49.5399 240.81 48.3299 241.64 46.7199 242.19L45.0299 242.76C44.5899 243.42 44.1099 243.44 43.4499 243.55C42.6699 243.68 41.9699 244.34 41.1099 243.7L40.4799 244.52C38.6499 243.99 37.7099 244.78 35.5199 244.67L33.7299 244.57C33.2499 244.55 32.6199 244.39 32.1299 244.31L30.1199 243.98C29.5799 243.89 29.0599 243.67 28.4699 243.61C27.6299 243.53 26.8299 242.9 25.9899 242.77C25.1799 242.64 24.5599 242.35 23.8499 241.9L22.2699 240.9C21.6299 240.5 20.9799 240.12 20.3199 239.75C19.9099 239.52 19.6399 239.2 19.2499 238.96L17.7999 238.08C17.0699 237.63 16.5799 237.1 15.8099 236.69L15.2799 235.9C14.9599 235.92 14.4299 235.92 14.2699 235.72L13.3999 234.64C13.1399 234.33 12.6399 234.03 12.4199 233.79L10.8599 232.06L10.0999 231.11L8.87989 229.71C8.05989 228.77 7.22989 227.53 6.73989 226.32C5.12989 225.96 6.70989 225.01 4.47989 223.67L3.93989 221.74C3.54989 221.56 3.18989 221.31 3.06989 220.96L2.25989 218.73C1.86989 217.65 1.67989 216.61 1.34989 215.51L0.919891 214.06C-0.100109 210.61 0.639891 212.61 0.199891 210.23C0.0698906 209.55 -0.120109 208.86 0.0898906 208.18C0.279891 207.56 0.0498906 206.74 0.159891 206.23C0.279891 205.71 0.389891 205.5 0.319891 205.02C0.129891 203.71 0.779891 200.06 1.10989 198.73L1.41989 197.47C1.52989 197.01 1.58989 196.51 1.82989 196.12L3.21989 193.81L4.05989 192.58C6.55989 188.92 4.83989 191.85 6.52989 189.74L7.99989 187.91C10.2299 185.12 10.3699 186.58 11.0699 184.91C11.5099 184.82 12.0699 184.62 12.3799 184.23C12.9899 183.46 14.0599 183.32 14.7799 182.8C15.2699 182.44 15.7099 182.11 16.2499 181.81L17.5299 181.12C17.6799 181.03 17.9999 180.56 18.2099 180.51C19.4099 180.17 21.1999 179.68 22.5099 179.39C24.4499 178.98 24.2999 178.74 25.9699 178.55C26.6899 178.73 27.3099 178.88 28.0099 178.89C29.7299 178.92 32.9999 179.39 34.4299 180L35.7899 180.59C36.3399 180.82 37.3199 180.87 37.7099 181.32C38.4699 182.19 39.1299 182.66 40.1899 182.96L41.4499 183.31C42.8899 183.78 43.3299 185.4 42.7399 186.53C42.4899 187.02 41.9499 187.26 41.3899 187.28C41.3099 186.93 41.4099 186.55 41.6699 186.19C41.8199 185.97 41.1099 185.47 40.9699 185.69" fill="#90BEFA"/>
<path d="M40.7801 85.3699C40.5201 85.9999 40.2501 86.1299 39.6701 86.4499L38.4201 87.1299L35.7501 87.8899L33.3201 89.0999L31.5401 90.0599C30.4501 90.6499 29.6001 91.5899 28.8501 92.5899L27.2701 94.7199L26.6501 96.5299C26.3701 97.3699 26.3601 98.3799 26.0501 99.1299C25.2001 101.17 25.8401 100.5 25.2501 103.28C25.1101 103.96 25.0001 104.42 25.3801 105.1L25.3101 106.69C25.7801 107.35 25.6201 108 25.7401 108.65L26.0201 110.23L26.4701 112.85C26.6901 114.14 26.9601 115.45 27.2701 116.64C27.5501 117.72 28.0401 118.69 28.1101 119.84C28.2801 122.82 29.0201 125.88 30.2901 128.55L31.0101 130.04C31.3501 130.76 31.4501 131.78 31.7501 132.55C32.0301 133.27 32.2401 133.91 32.2201 134.71L33.0701 135.88L32.8101 137.44C32.6701 138.29 32.9301 138.98 33.1401 139.82C33.9101 142.85 33.6701 140.57 34.3701 144.22L34.7501 146.19L35.0901 147.75L35.4901 149.37C35.7501 150.41 35.4701 151.7 34.8801 152.63C34.6101 153.06 33.5801 153.36 33.1201 153.33C30.9501 153.21 31.0001 153.91 29.9801 153.44C29.6201 153.28 29.4001 152.8 29.2001 152.38L28.4101 150.74L28.0601 150.13C27.9801 150 28.2301 149.64 28.3501 149.39C27.3301 147.42 27.4901 148.28 26.9501 145.97L26.5901 144.4C26.2101 142.8 26.2501 142.25 25.8001 140.62C24.9601 137.58 24.4701 139.47 24.5501 136.87C24.3801 136.25 24.1401 135.59 24.1001 134.94L23.9201 132.34L23.6601 130.28C23.6001 129.8 23.4001 129.01 23.2501 128.53L22.6501 126.49L22.2701 125.07C22.1101 124.5 21.8801 123.82 21.6701 123.23C21.1501 121.84 20.9701 120.48 20.6701 119.05L19.8601 115.13L19.3601 112.92C19.1201 111.9 18.8301 109.92 18.6301 109.41L17.9701 107.72L17.1401 105.14C16.8601 104.28 16.8401 103.54 16.8301 102.64C16.8101 102.06 16.2801 101.35 16.7501 100.69L16.0901 99.7299L16.2601 98.9699L15.8201 98.2999C15.9701 97.5099 15.3201 94.8899 14.6601 94.2199C14.4501 93.7299 14.6001 92.6099 14.3601 92.1199L13.5401 90.4099C13.2601 89.8299 13.5401 88.5599 14.1201 88.1399C14.6801 87.7299 15.6801 87.3899 16.2901 87.1999C16.4501 87.1499 16.9001 87.3999 16.9701 87.2699L17.3601 86.6699C17.5801 86.3299 18.6001 86.0799 18.9601 86.2799C19.3801 86.5199 20.0501 87.0399 20.3601 87.3599L22.0001 90.7399L23.0501 90.0199C24.8501 87.3599 24.0601 88.0999 26.2901 85.8999C26.7001 85.4999 26.7401 84.7899 27.6301 84.7899C28.3001 84.7899 28.6601 84.0699 28.9801 83.5999L30.1801 83.2099C31.1701 82.8899 32.2301 82.5899 32.9701 81.8999C33.2501 81.9299 33.8401 81.9699 34.0701 81.9399C34.4601 81.4099 35.0901 81.1299 35.6701 80.8699C36.3401 80.5599 36.8001 80.4499 37.6201 80.5399C38.1201 80.5999 38.6401 80.6499 39.0401 80.8399C39.4001 81.0099 39.5301 81.8099 39.7901 82.0699C40.4001 82.6899 40.4301 83.2099 40.4001 84.0099C40.3901 84.3799 40.9301 84.9799 40.7801 85.3499" fill="#90BEFA"/>
<path d="M142.13 170.37C142.17 172.03 141.31 172.76 139.99 173.33C139.54 173.53 139.32 174.62 138.55 174.29C138.7 174.8 136.44 176.88 135.95 176.61L135.21 177.71C133.95 177.62 134.43 178.95 134.02 179.02L133.17 179.16C133 179.74 132.57 180.34 131.86 180.23L131.61 181.06C130.83 181.54 130.14 182.57 129.67 183.24C129.45 183.55 128.42 183.49 128.3 183.93C127.81 185.67 127.31 183.93 126.64 185.76C125.57 186.07 125 187.06 123.85 187.96L121.87 189.5L120.85 190.49C120.78 190.57 118.77 192.1 118.54 192.86L117.29 193.38C117.35 194.36 116.42 194.25 115.91 194.55C115.5 194.79 115.36 195.94 114.4 195.63L113.66 196.59C112.18 196.75 112.19 198.17 110.34 198.39C108.56 197.09 108.25 195.9 107.51 194.26C107.17 193.52 106.53 192.85 106.41 192.01C106.09 189.91 105.48 189.02 105.42 188.76C105.3 188.18 105.21 187.54 105.06 186.98L104.68 185.52C104.49 184.84 104.92 183.91 104.81 183.16C104.68 182.25 104.13 181.15 104.4 180.28C104.62 179.57 105 178.85 105.08 178.26C105.29 176.81 105.7 175.76 106.25 174.47L106.92 172.88C107.88 170.62 108.72 170.29 110.64 168.57L110.93 167.76C111 167.58 111.65 167.59 111.76 167.39C112.02 166.88 112.93 166.55 113.38 166.26C114.13 165.77 114.67 165.12 115.55 164.76C117.39 164 117.14 163.57 118.75 163.15L120.32 162.73C120.67 162.64 121.39 162.51 121.79 162.52L124.35 162.56C124.8 162.56 125.29 162.67 125.74 162.72C126.56 162.8 127.31 162.79 128.12 163.05C130.64 163.87 131.25 163.41 134.05 164.81C134.61 165.08 135.03 165.28 135.56 165.46C135.86 165.59 136.42 165.99 136.76 166.18L138.04 166.89C138.7 167.26 142.09 169.64 142.16 170.36M148.67 166.83L146.61 164.93C146.19 164.55 146.13 163.94 145.32 164.21L144.98 163.23C143.17 162.64 142.88 161.52 141.61 160.99C140.94 160.72 140.2 160.26 139.51 159.91L137.4 158.84C136.58 158.42 135.98 158.08 135.12 157.86C134.33 157.66 133.48 157.07 132.67 156.96C132.3 156.9 131.93 156.86 131.64 156.73L130.26 156.07L128.89 156.18C128.2 155.52 127.36 155.88 126.67 155.81C126.06 155.74 125.48 155.58 124.86 155.69L123.19 155.99L121.03 156.15C120.02 156.22 119.05 156.46 118.06 156.74L115.98 157.34C115.31 157.53 114.88 157.99 114.36 158.28C112.35 159.39 112.02 159.47 110.1 161.11L108.31 162.62C107.89 162.99 106.95 163.2 106.58 163.57L105.28 164.84C104.84 165.26 104.47 165.77 104.07 166.24L103.14 167.31C101.73 168.96 102.59 168.57 101.45 170.27C101.08 170.83 100.55 171.41 100.4 172C99.9599 173.78 98.8099 175.18 98.7099 175.72L98.1399 178.75C97.3499 182.91 98.0999 180.14 97.6699 184.02L98.0199 185.32L98.3799 188.03C98.4399 188.48 98.7099 189.25 98.8199 189.68C98.7399 190.86 98.9599 191.91 99.3199 193.03L99.8299 194.59C100.03 195.18 99.7899 196.1 100.73 196.34L101.26 197.84C101.44 198.37 101.69 198.74 101.99 199.28L103.24 201.58L104.65 203.69C105.48 204.95 107.08 206.46 108.29 207.81L109.48 209.14L110.28 209.83L111.85 211.36C112.39 211.88 113.06 212.61 113.63 213.01L115.34 214.17L117.8 216.03C118.68 216.7 120.24 216.67 120.78 217.98C124.1 218.9 122.03 218.82 125.24 219.76C125.6 219.87 127.16 220.9 129.49 220.58C129.95 221.33 130.73 221.36 131.52 221.07C132.29 220.79 133.25 221.56 133.94 221.43C136.4 220.98 134.21 221.99 138.36 220.79C139.49 220.47 139.33 221 141.81 219.95C141.99 219.97 142.43 220.38 142.54 220.25L143.1 219.62L144.4 219.32C145.37 218.08 144.8 218.9 146.8 217.88C149.14 216.68 147.27 216.55 149.47 216.27L150.59 215.03C151.42 215.03 151.76 214.25 152.28 213.94C153.23 213.39 155.71 211.98 155.4 210.61C155.65 210.54 156.17 210.35 156.3 210.14L157.13 208.9C157.41 208.47 157.94 207.85 158.11 207.47C158.42 206.74 158.79 206.26 159.18 205.58L160.37 203.52C160.61 203.11 160.89 202.4 161.04 201.95L162.07 198.96C162.18 198.61 162.17 198.02 162.47 197.75C163.16 197.11 162.93 196.57 162.94 195.85C162.98 192.26 163.59 193.28 163.11 190.98L162.58 188.46C162.45 187.83 162.33 187.31 162.12 186.66C161.24 183.84 161.28 180.13 158.04 180.22C157.56 180.22 156.6 180.51 156.22 180.83L154.96 181.9C154.24 182.51 154.02 184.1 153.92 185.01C153.88 185.27 154.47 185.76 154.53 186.01C154.82 187.11 154.3 186.86 155.34 189.4C155.72 190.31 156.11 191.05 155.45 192L155.97 192.86C155.78 193.69 155.72 194.33 155.66 195.03L155.45 197.22C155.4 197.73 154.86 198.4 154.51 198.88C155.69 201.1 152.8 200.86 153.61 202.34C153.8 202.93 151.81 205.56 151.05 206.12C150.78 206.32 150.41 206.97 150.15 207.22L148.3 208.87C148.07 209.07 147.45 209.16 147.02 209.2C146.63 209.24 146.66 210 146.46 210.19L145.3 211.33L143.35 211.95C143.1 212.02 142.9 212.71 142.7 212.9C142.2 213.4 141.07 213.03 140.54 212.77L137.95 213.39C136.57 212.44 136.9 214.48 135.24 213.52L133.48 213.84C132.68 213.32 131.96 213.31 131.08 213.27L128.67 213.14C128.19 213.12 127.56 212.86 127.01 213.18C125.97 211.24 125.69 212.83 124.51 211.36C123.89 211.79 122.24 210.42 121.27 209.95C120.32 209.48 119.69 209.15 118.87 208.48C117.13 207.05 116.84 207.46 115.4 205.57C115.03 205.08 114.34 204.6 114.56 203.76L116.1 202.41L117.43 201.25C117.81 200.91 118.34 200.57 118.81 200.33C119.42 199.44 120.24 198.27 121.31 197.95L121.47 197.34C121.51 197.22 121.92 197.18 122.07 197.22C122.81 197.4 123.06 196.57 123.48 196.19L125.27 194.56L126.08 194.23C126.26 194.16 126.23 193.52 126.41 193.47L127.15 193.26C127.31 193.21 127.31 192.64 127.45 192.54L129 191.47C129.73 190.97 130.28 190.37 130.97 189.85L132.24 188.88C132.71 188.52 133.42 188.16 133.8 187.78L134.61 186.96C134.35 186.57 135.98 185.23 136.29 185C138.21 183.58 136.82 184.13 138.35 183.61C138.93 183.41 139.93 182.92 140.35 182.47L141.76 180.97C142.5 180.19 143.55 179.26 144.33 178.7C144.49 178.59 144.55 178.08 144.7 178.04C146.31 177.6 145.57 177.36 146.37 176.8C147.14 176.26 147.72 175.9 148.15 175.04L149.93 173.64C150.4 173.27 150.62 172.78 151.06 172.3C151.59 171.72 151.22 170.85 151.04 170.17C150.82 169.38 150.41 168.95 149.89 168.35C149.5 167.9 149.13 167.32 148.64 166.87" fill="#90BEFA"/>
</g>
<defs>
<clipPath id="clip0_2550_3600">
<rect width="304.99" height="244.7" fill="white"/>
</clipPath>
</defs>
</svg>
