<svg width="272" height="259" viewBox="0 0 272 259" fill="none" xmlns="http://www.w3.org/2000/svg">
<g clip-path="url(#clip0_2561_20365)">
<mask id="mask0_2561_20365" style="mask-type:luminance" maskUnits="userSpaceOnUse" x="0" y="0" width="272" height="259">
<path d="M271.9 0H0V258.6H271.9V0Z" fill="white"/>
</mask>
<g mask="url(#mask0_2561_20365)">
<path d="M106 164.988L105.25 175.138L104.72 184.088C104.43 189.148 103.44 193.488 102.27 198.448L99.1798 211.388C98.4598 214.528 95.3398 217.038 93.5898 219.728C88.0198 228.278 77.4198 227.138 67.0098 226.708C63.9198 226.578 61.4698 224.708 59.5798 222.628C49.8898 211.868 48.6598 211.388 46.7898 197.808L45.6198 189.178C44.5298 181.058 43.2198 173.458 42.8798 165.288C42.6098 158.658 42.3498 152.078 42.9098 145.528L43.5498 137.988C45.7298 133.248 47.2298 128.828 47.3098 123.788L54.2898 109.458C57.0598 103.728 68.0098 100.828 74.1298 100.238C81.3698 99.5685 89.3898 102.878 93.8698 108.498L98.5298 114.358C99.6798 115.768 99.9398 119.048 100.9 120.698C102.34 123.148 103.16 125.228 103.46 127.968L105.59 147.548C106.25 153.568 106.47 158.948 106.01 164.998M143 150.228L142.6 140.668C142.52 138.588 142.31 135.258 141.72 133.478C137.64 120.988 137.78 116.028 132.16 105.968C119.91 83.9185 121.67 93.2585 114.69 83.9985C112 80.4585 106.73 79.7085 103.13 77.7385C94.0498 72.7885 88.9898 74.1185 77.1598 72.9185C70.1598 72.1985 70.4498 73.1585 63.0198 73.5585C57.1298 73.8485 51.9098 74.6785 46.4798 76.9685C44.1598 77.9585 41.7398 78.9085 39.7698 80.4285L31.4898 86.8485L24.9098 91.9385C23.4698 93.0285 22.7798 96.4085 21.4698 97.8785C12.6798 107.808 16.4898 105.598 11.5098 117.238C9.72977 121.368 9.32976 126.188 8.22976 130.578C7.31976 134.228 6.46977 137.748 5.77977 141.468L5.00977 150.308V178.358C6.12977 182.778 6.46977 187.358 7.02977 192.418C7.21977 194.068 8.48977 196.738 8.51977 198.248C8.72977 205.068 11.8198 210.258 14.2998 216.098C17.1798 222.938 20.3998 228.748 25.7798 234.178L31.4798 239.958C33.5098 242.008 35.7198 243.208 38.2998 244.648C40.7198 246.008 42.8598 247.418 45.6798 248.028C47.8098 248.478 49.7798 249.488 51.8598 250.048L64.9698 253.588H85.3698C90.2498 252.388 95.0098 251.008 99.9698 249.118C107.46 246.238 107.43 248.268 111.26 243.578C121.27 236.018 118.27 240.648 125.03 231.328C129.96 224.508 133.5 220.778 135.92 211.728L141.06 192.708C141.7 190.368 142.55 187.168 142.58 184.718L143.01 159.948C143.06 156.568 143.14 153.608 143.01 150.228" fill="#90BEFB"/>
<path d="M266.91 45.9286C266.91 48.7486 265.15 51.9486 264.09 54.7686C262.54 58.8386 259.43 61.4586 256.18 64.1986C251.12 68.4886 247.68 69.1786 240.33 69.5486C233.91 69.8686 228.72 69.8386 224.45 64.6686C223.57 63.5986 222.77 61.6286 223.17 60.2486C224.02 57.4786 229.06 57.0486 232.36 57.5586C236.3 58.1986 242.03 57.3986 244.24 53.5386L246.29 45.3586C247.52 40.5086 244.9 35.5086 240.86 32.4386C237.82 30.1186 234.92 27.5886 230.68 28.6286C225.75 27.0886 220.08 28.4386 216.54 32.1986C210.97 33.9086 208.44 38.8086 207.38 44.1886C204.88 56.8986 208.92 51.0586 206.37 62.8586C205.76 65.7586 206.24 68.3986 206.29 71.2786L206.61 82.8386C206.64 83.9886 209.06 84.9186 210.31 84.6986C224.03 82.3286 220.24 86.6686 230.93 83.4686C232.87 82.8786 235.78 84.0286 236.34 85.6286C237.27 88.3186 235.83 90.0786 233.86 91.5386L225.76 97.5586C221.31 100.859 216.81 104.219 211.48 106.139C209.16 106.969 206.53 107.599 206.53 111.009L206.5 219.549C205.17 223.729 208.52 226.259 211.03 228.629L218.78 235.929C220.22 237.259 221.07 239.179 222.83 239.849C224.85 240.599 227.44 242.109 228.05 244.059C229.38 248.319 221.92 251.089 215.32 249.279C210.79 247.999 206.61 248.689 202.06 248.929C195.27 249.279 188.56 249.249 181.82 248.959L177.72 248.769C171.41 248.499 165.49 248.209 159.16 249.569C156.36 250.159 150.93 250.179 149.65 246.989C147.52 241.639 152.18 242.939 160.62 234.369L169.44 225.419C171.06 223.799 171.06 221.129 170.45 218.889C169.73 216.279 170.69 213.459 170.69 210.819L170.96 176.489V171.299C170.99 163.199 170.72 155.319 171.04 147.299C171.14 145.169 171.12 143.329 171.04 141.199C170.72 132.169 170.69 123.169 171.04 114.139C171.17 110.889 172.21 107.769 167.82 106.519C164.92 105.669 156.66 100.229 153.52 98.1586L141.91 90.5186C140.63 89.6686 140.29 85.5386 141.4 84.4986C143.8 82.3186 147.82 83.5886 150.78 84.2286C154.08 84.9486 157.57 84.6586 160.88 84.3086C165.91 83.7486 169.54 84.5786 170.98 83.1386C171.43 82.6886 171.59 80.9786 171.35 80.3386C170.18 77.2186 171.11 74.2386 171.19 71.0986L171.7 50.9086C171.78 47.0986 172.63 42.6786 173.99 39.2686L177.32 30.9586C178.28 28.5586 179.77 25.2086 181.39 23.1586C187.2 15.8586 195.19 11.2786 203.87 7.97863C211.7 5.01863 220.36 4.77863 228.53 5.12863C236.44 5.47863 242.49 8.34863 248.93 12.1586C252.92 14.4986 255.67 16.3386 258.36 20.2586C260.62 23.5386 263.58 25.8286 264.17 30.4086C264.57 33.4186 266.91 36.8786 266.91 40.0286L266.94 45.9386L266.91 45.9286Z" fill="#90BEFB"/>
<path d="M137.61 140.87C137.49 138.12 139.64 135.78 142.4 135.67C145.15 135.56 147.48 137.7 147.6 140.46C147.71 143.22 145.57 145.55 142.81 145.66C142.74 145.66 142.67 145.67 142.6 145.67C139.94 145.67 137.72 143.56 137.61 140.87Z" fill="black"/>
<path d="M136.97 135.029C136.11 132.409 137.54 129.579 140.16 128.719C142.79 127.859 145.62 129.289 146.48 131.919C147.34 134.539 145.9 137.359 143.28 138.219C142.76 138.389 142.24 138.469 141.72 138.469C139.62 138.469 137.66 137.139 136.97 135.029Z" fill="black"/>
<path d="M127.8 108.399C126.45 105.989 127.31 102.939 129.73 101.589C132.14 100.249 135.18 101.109 136.53 103.519C137.87 105.929 137.01 108.979 134.6 110.329C133.83 110.759 132.99 110.959 132.17 110.959C130.41 110.959 128.71 110.039 127.8 108.399Z" fill="black"/>
<path d="M110.7 86.9999C109.03 84.7899 109.48 81.6499 111.68 79.9899C113.89 78.3299 117.02 78.7699 118.68 80.9799C120.34 83.1799 119.9 86.3199 117.7 87.9799C116.8 88.6599 115.74 88.9899 114.69 88.9899C113.18 88.9899 111.68 88.2999 110.7 86.9999Z" fill="black"/>
<path d="M100.73 82.1102C98.2998 80.7902 97.4198 77.7502 98.7398 75.3202C100.07 72.9002 103.11 72.0102 105.53 73.3402C107.95 74.6702 108.84 77.7102 107.52 80.1302C106.61 81.7902 104.89 82.7302 103.12 82.7302C102.31 82.7302 101.49 82.5302 100.73 82.1102Z" fill="black"/>
<path d="M76.6602 77.8784C73.9102 77.5984 71.9102 75.1484 72.1902 72.3984C72.4602 69.6584 74.9102 67.6484 77.6602 67.9284C80.4102 68.2084 82.4102 70.6584 82.1402 73.4084C81.8702 75.9884 79.7002 77.9084 77.1702 77.9084C77.0002 77.9084 76.8302 77.9084 76.6602 77.8784Z" fill="black"/>
<path d="M58.0203 73.8185C57.8803 71.0585 59.9903 68.6985 62.7503 68.5485C65.5003 68.3985 67.8603 70.5185 68.0103 73.2785C68.1603 76.0385 66.0403 78.3885 63.2903 78.5385C63.1903 78.5385 63.1003 78.5385 63.0103 78.5385C60.3703 78.5385 58.1703 76.4685 58.0203 73.8085V73.8185Z" fill="black"/>
<path d="M41.8695 78.9C40.7995 76.35 41.9895 73.42 44.5295 72.35C47.0795 71.28 50.0095 72.47 51.0795 75.01C52.1495 77.56 50.9595 80.49 48.4195 81.56C47.7795 81.83 47.1295 81.96 46.4795 81.96C44.5295 81.96 42.6795 80.81 41.8695 78.9Z" fill="black"/>
<path d="M35.7995 83.4699C34.1195 81.2799 34.5295 78.1399 36.7195 76.4599C38.8995 74.7699 42.0395 75.1799 43.7195 77.3699C45.4095 79.5499 45.0095 82.6899 42.8195 84.3799C41.9095 85.0799 40.8395 85.4199 39.7695 85.4199C38.2695 85.4199 36.7895 84.7499 35.7995 83.4699Z" fill="black"/>
<path d="M27.5299 89.8984C25.8399 87.7184 26.2299 84.5784 28.4199 82.8784C30.5999 81.1884 33.7399 81.5884 35.4299 83.7684C37.1199 85.9484 36.7299 89.0984 34.5499 90.7884C33.6299 91.4984 32.5599 91.8384 31.4899 91.8384C29.9899 91.8384 28.5199 91.1684 27.5299 89.8984Z" fill="black"/>
<path d="M20.9497 94.9795C19.2597 92.7995 19.6597 89.6595 21.8397 87.9695C24.0297 86.2795 27.1697 86.6795 28.8597 88.8695C30.5497 91.0495 30.1397 94.1895 27.9597 95.8795C27.0497 96.5795 25.9797 96.9195 24.9097 96.9195C23.4097 96.9195 21.9297 96.2595 20.9497 94.9795Z" fill="black"/>
<path d="M18.1399 101.599C16.0799 99.7594 15.8999 96.5994 17.7299 94.5394C19.5699 92.4794 22.7299 92.2894 24.7899 94.1294C26.8499 95.9694 27.0399 99.1294 25.1999 101.189C24.2099 102.299 22.8399 102.859 21.4599 102.859C20.2799 102.859 19.0899 102.449 18.1399 101.599Z" fill="black"/>
<path d="M9.54005 121.819C7.00005 120.739 5.82005 117.799 6.91005 115.259C7.99005 112.719 10.9301 111.539 13.4701 112.629C16.0101 113.719 17.1901 116.649 16.1001 119.189C15.2901 121.089 13.4401 122.229 11.5001 122.229C10.8501 122.229 10.1801 122.099 9.54005 121.819Z" fill="black"/>
<path d="M7.03034 135.42C4.35034 134.76 2.71034 132.05 3.38034 129.37C4.04034 126.69 6.75034 125.05 9.43034 125.72C12.1103 126.38 13.7503 129.1 13.0803 131.78C12.5203 134.05 10.4803 135.57 8.23034 135.57C7.84034 135.57 7.43034 135.52 7.03034 135.42Z" fill="black"/>
<path d="M4.85987 146.38C2.14987 145.87 0.34987 143.27 0.85987 140.55C1.36987 137.83 3.97987 136.04 6.68987 136.55C9.40987 137.05 11.1999 139.67 10.6899 142.38C10.2399 144.79 8.14987 146.47 5.77987 146.47C5.47987 146.47 5.16987 146.44 4.85987 146.38Z" fill="black"/>
<path d="M4.57016 155.29C1.82016 155.05 -0.219841 152.62 0.0201593 149.87C0.270159 147.12 2.69016 145.09 5.44016 145.33C8.19016 145.57 10.2302 147.99 9.99016 150.74C9.76016 153.35 7.57016 155.31 5.01016 155.31C4.86016 155.31 4.72016 155.31 4.57016 155.29Z" fill="black"/>
<path d="M0 178.36C0 175.59 2.23 173.35 4.99 173.35C7.76 173.35 9.99 175.59 9.99 178.36C9.99 181.11 7.76 183.35 4.99 183.35C2.23 183.35 0 181.11 0 178.36Z" fill="black"/>
<path d="M2.06033 192.96C1.76033 190.22 3.74033 187.75 6.48033 187.45C9.23033 187.15 11.7003 189.13 12.0003 191.87C12.3003 194.62 10.3203 197.09 7.58033 197.39C7.39033 197.41 7.21033 197.42 7.02033 197.42C4.51033 197.42 2.34033 195.52 2.06033 192.96Z" fill="black"/>
<path d="M3.52007 198.329C3.48007 195.569 5.68007 193.289 8.44007 193.249C11.2001 193.209 13.4801 195.409 13.5201 198.169C13.5601 200.929 11.3601 203.209 8.60007 203.249H8.52007C5.80007 203.249 3.56007 201.069 3.52007 198.329Z" fill="black"/>
<path d="M9.69997 218.05C8.61997 215.51 9.79997 212.57 12.35 211.5C14.89 210.41 17.83 211.6 18.9 214.15C19.98 216.69 18.8 219.62 16.26 220.7C15.62 220.97 14.96 221.1 14.31 221.1C12.36 221.1 10.51 219.96 9.69997 218.05Z" fill="black"/>
<path d="M22.2296 237.699C20.2796 235.739 20.2996 232.569 22.2596 230.629C24.2296 228.689 27.3896 228.699 29.3296 230.659C31.2796 232.619 31.2596 235.789 29.2996 237.729C28.3196 238.699 27.0496 239.179 25.7796 239.179C24.4896 239.179 23.2096 238.689 22.2296 237.699Z" fill="black"/>
<path d="M27.9199 243.468C25.9799 241.508 25.9999 238.338 27.9699 236.398C29.9399 234.458 33.0999 234.478 35.0399 236.448C36.9799 238.418 36.9599 241.578 34.9899 243.518C34.0199 244.478 32.7499 244.958 31.4799 244.958C30.1899 244.958 28.8999 244.458 27.9199 243.468Z" fill="black"/>
<path d="M35.8702 249.02C33.4602 247.67 32.5902 244.63 33.9302 242.22C35.2702 239.8 38.3202 238.94 40.7302 240.28C43.1402 241.63 44.0102 244.67 42.6702 247.08C41.7502 248.72 40.0502 249.65 38.2902 249.65C37.4702 249.65 36.6402 249.45 35.8702 249.02Z" fill="black"/>
<path d="M44.6198 252.92C41.9198 252.33 40.1998 249.67 40.7898 246.97C41.3798 244.27 44.0398 242.56 46.7398 243.15C49.4398 243.73 51.1498 246.4 50.5598 249.09C50.0498 251.43 47.9798 253.03 45.6798 253.03C45.3298 253.03 44.9698 253 44.6198 252.92Z" fill="black"/>
<path d="M50.5604 254.879C47.8904 254.169 46.3104 251.419 47.0304 248.759C47.7504 246.089 50.4904 244.509 53.1604 245.229C55.8204 245.949 57.4004 248.689 56.6804 251.359C56.0904 253.589 54.0704 255.059 51.8604 255.059C51.4304 255.059 50.9904 254.999 50.5604 254.879Z" fill="black"/>
<path d="M63.6501 258.43C60.9901 257.7 59.4101 254.96 60.1401 252.29C60.8601 249.63 63.6001 248.05 66.2701 248.77C68.9301 249.49 70.5101 252.24 69.7901 254.9C69.1901 257.13 67.1701 258.6 64.9601 258.6C64.5301 258.6 64.0901 258.54 63.6501 258.43Z" fill="black"/>
<path d="M80.3604 253.6C80.3604 250.84 82.6004 248.6 85.3604 248.6C88.1204 248.6 90.3604 250.84 90.3604 253.6C90.3604 256.36 88.1204 258.6 85.3604 258.6C82.6004 258.6 80.3604 256.36 80.3604 253.6Z" fill="black"/>
<path d="M95.29 250.909C94.3 248.329 95.6 245.439 98.18 244.449C100.76 243.469 103.64 244.759 104.63 247.339C105.62 249.919 104.32 252.809 101.74 253.789C101.16 254.019 100.55 254.119 99.96 254.119C97.95 254.119 96.05 252.899 95.29 250.909Z" fill="black"/>
<path d="M108.09 247.449C105.95 245.699 105.64 242.549 107.38 240.419C109.13 238.279 112.28 237.969 114.42 239.719C116.56 241.459 116.87 244.609 115.12 246.749C114.13 247.959 112.7 248.579 111.25 248.579C110.14 248.579 109.02 248.209 108.09 247.449Z" fill="black"/>
<path d="M122.09 235.379C119.85 233.749 119.35 230.629 120.98 228.399C122.6 226.159 125.73 225.659 127.96 227.289C130.19 228.909 130.69 232.039 129.07 234.269C128.09 235.619 126.57 236.329 125.02 236.329C124 236.329 122.98 236.019 122.09 235.379Z" fill="black"/>
<path d="M134.63 216.56C131.96 215.84 130.37 213.11 131.09 210.44C131.8 207.77 134.54 206.18 137.21 206.9C139.88 207.61 141.46 210.35 140.75 213.02C140.15 215.26 138.13 216.73 135.92 216.73C135.49 216.73 135.06 216.68 134.63 216.56Z" fill="black"/>
<path d="M139.75 197.539C137.09 196.819 135.51 194.069 136.23 191.409C136.95 188.739 139.7 187.159 142.36 187.879C145.03 188.599 146.6 191.349 145.89 194.009C145.28 196.249 143.26 197.709 141.06 197.709C140.63 197.709 140.19 197.659 139.75 197.539Z" fill="black"/>
<path d="M142.52 189.719C139.76 189.689 137.55 187.429 137.58 184.669C137.6 181.909 139.86 179.689 142.63 179.719C145.39 179.749 147.6 182.009 147.58 184.769C147.55 187.519 145.31 189.719 142.57 189.719H142.52Z" fill="black"/>
<path d="M142.92 164.95C140.15 164.9 137.96 162.62 138 159.87C138.05 157.1 140.33 154.9 143.09 154.95C145.85 155 148.05 157.28 148 160.04C147.95 162.77 145.72 164.95 143 164.95H142.92Z" fill="black"/>
<path d="M138.01 150.42C137.9 147.66 140.05 145.34 142.81 145.23C145.57 145.13 147.89 147.27 148 150.04C148.11 152.79 145.96 155.12 143.2 155.23H143.01C140.33 155.23 138.11 153.12 138.01 150.42Z" fill="black"/>
<path d="M104.89 180.118C102.14 179.918 100.07 177.518 100.27 174.768C100.48 172.008 102.87 169.938 105.63 170.138C108.38 170.348 110.45 172.738 110.25 175.498C110.05 178.128 107.86 180.128 105.27 180.128C105.15 180.128 105.02 180.128 104.89 180.128V180.118Z" fill="black"/>
<path d="M104.43 189.069C101.68 188.909 99.5701 186.539 99.7401 183.779C99.9001 181.029 102.27 178.929 105.02 179.089C107.78 179.249 109.89 181.619 109.72 184.379C109.56 187.029 107.36 189.079 104.74 189.079C104.64 189.079 104.53 189.079 104.43 189.069Z" fill="black"/>
<path d="M101.13 203.299C98.4401 202.669 96.7701 199.969 97.4101 197.289C98.0501 194.599 100.74 192.939 103.43 193.569C106.12 194.209 107.78 196.899 107.14 199.589C106.6 201.889 104.55 203.439 102.28 203.439C101.9 203.439 101.51 203.399 101.13 203.299Z" fill="black"/>
<path d="M98.0204 216.24C95.3404 215.6 93.6805 212.91 94.3305 210.22C94.9705 207.54 97.6604 205.88 100.35 206.52C103.03 207.16 104.69 209.86 104.05 212.54C103.5 214.84 101.45 216.38 99.1905 216.38C98.8105 216.38 98.4204 216.34 98.0204 216.24Z" fill="black"/>
<path d="M90.8602 223.909C88.5502 222.399 87.9002 219.299 89.4102 216.979C90.9202 214.669 94.0202 214.019 96.3302 215.529C98.6402 217.039 99.2902 220.139 97.7802 222.449C96.8202 223.919 95.2202 224.719 93.5902 224.719C92.6502 224.719 91.7102 224.459 90.8602 223.909Z" fill="black"/>
<path d="M66.8104 231.699C64.0504 231.579 61.9004 229.249 62.0204 226.489C62.1304 223.729 64.4604 221.589 67.2204 221.699C69.9804 221.809 72.1204 224.139 72.0104 226.899C71.9004 229.589 69.6804 231.699 67.0104 231.699H66.8104Z" fill="black"/>
<path d="M55.8796 225.99C54.0196 223.94 54.1796 220.78 56.2196 218.92C58.2596 217.07 61.4196 217.22 63.2796 219.26C65.1396 221.3 64.9896 224.47 62.9496 226.32C61.9896 227.19 60.7796 227.62 59.5796 227.62C58.2196 227.62 56.8696 227.07 55.8796 225.99Z" fill="black"/>
<path d="M41.8398 198.479C41.4698 195.739 43.3798 193.219 46.1198 192.839C48.8498 192.469 51.3698 194.379 51.7498 197.119C52.1298 199.849 50.2098 202.369 47.4798 202.749C47.2498 202.779 47.0198 202.799 46.7898 202.799C44.3298 202.799 42.1898 200.979 41.8398 198.479Z" fill="black"/>
<path d="M40.6699 189.84C40.2999 187.11 42.2099 184.59 44.9499 184.21C47.6899 183.84 50.2099 185.76 50.5799 188.5C50.9499 191.23 49.0299 193.75 46.2999 194.12C46.0699 194.15 45.8399 194.17 45.6199 194.17C43.1599 194.17 41.0099 192.35 40.6699 189.84Z" fill="black"/>
<path d="M37.8896 165.489C37.7696 162.729 39.9096 160.399 42.6696 160.279C45.4296 160.169 47.7596 162.309 47.8796 165.069C47.9896 167.829 45.8496 170.159 43.0896 170.269C43.0196 170.269 42.9496 170.269 42.8796 170.269C40.2096 170.269 37.9996 168.169 37.8896 165.479V165.489Z" fill="black"/>
<path d="M42.4803 150.489C39.7303 150.259 37.6903 147.839 37.9303 145.079C38.1603 142.339 40.5903 140.299 43.3303 140.529C46.0903 140.769 48.1303 143.189 47.8903 145.939C47.6703 148.549 45.4803 150.509 42.9103 150.509C42.7703 150.509 42.6303 150.509 42.4803 150.489Z" fill="black"/>
<path d="M43.1197 142.96C40.3697 142.72 38.3297 140.3 38.5597 137.55C38.7997 134.8 41.2197 132.76 43.9697 133C46.7197 133.23 48.7597 135.65 48.5297 138.4C48.3097 141.01 46.1197 142.98 43.5497 142.98C43.4097 142.98 43.2697 142.98 43.1197 142.96Z" fill="black"/>
<path d="M47.2203 128.78C44.4603 128.74 42.2603 126.46 42.3003 123.7C42.3503 120.94 44.6203 118.74 47.3803 118.78C50.1403 118.82 52.3403 121.1 52.3003 123.86C52.2603 126.59 50.0303 128.78 47.3003 128.78H47.2203Z" fill="black"/>
<path d="M52.09 113.94C49.61 112.73 48.58 109.74 49.78 107.26C50.99 104.78 53.99 103.75 56.47 104.95C58.95 106.16 59.98 109.16 58.77 111.64C57.91 113.42 56.13 114.45 54.28 114.45C53.54 114.45 52.8 114.29 52.09 113.94Z" fill="black"/>
<path d="M69.1502 100.709C68.8802 97.9586 70.9002 95.5186 73.6502 95.2586C76.4002 94.9886 78.8402 97.0086 79.1002 99.7586C79.3602 102.509 77.3502 104.949 74.6002 105.209C74.4402 105.229 74.2702 105.229 74.1102 105.229C71.5702 105.229 69.3902 103.299 69.1502 100.709Z" fill="black"/>
<path d="M89.9497 111.6C88.2297 109.45 88.5797 106.3 90.7397 104.58C92.8997 102.86 96.0497 103.21 97.7697 105.37C99.4897 107.54 99.1397 110.68 96.9797 112.4C96.0597 113.13 94.9597 113.49 93.8597 113.49C92.3897 113.49 90.9397 112.84 89.9497 111.6Z" fill="black"/>
<path d="M94.6099 117.46C92.8899 115.3 93.2499 112.16 95.4099 110.44C97.5699 108.72 100.71 109.07 102.43 111.24C104.15 113.4 103.8 116.54 101.64 118.26C100.71 119 99.6199 119.35 98.5299 119.35C97.0499 119.35 95.5999 118.71 94.6099 117.46Z" fill="black"/>
<path d="M96.5703 123.199C95.1803 120.819 95.9903 117.749 98.3803 116.369C100.77 114.979 103.83 115.789 105.21 118.179C106.6 120.559 105.79 123.619 103.4 125.009C102.61 125.469 101.75 125.689 100.9 125.689C99.1703 125.689 97.5003 124.799 96.5703 123.199Z" fill="black"/>
<path d="M98.4803 128.489C98.1903 125.739 100.17 123.279 102.92 122.989C105.67 122.699 108.13 124.689 108.42 127.429C108.71 130.179 106.72 132.639 103.98 132.929C103.8 132.949 103.62 132.959 103.44 132.959C100.92 132.959 98.7503 131.059 98.4803 128.489Z" fill="black"/>
<path d="M100.61 148.079C100.31 145.339 102.29 142.869 105.04 142.569C107.79 142.269 110.25 144.249 110.55 146.999C110.85 149.739 108.87 152.209 106.12 152.509C105.94 152.529 105.76 152.539 105.58 152.539C103.06 152.539 100.89 150.639 100.61 148.079Z" fill="black"/>
<path d="M105.64 169.969C102.88 169.759 100.81 167.359 101.02 164.609C101.23 161.859 103.62 159.789 106.38 159.999C109.13 160.199 111.2 162.599 110.99 165.349C110.8 167.979 108.6 169.979 106.01 169.979C105.89 169.979 105.76 169.979 105.64 169.979V169.969Z" fill="black"/>
<path d="M262.32 59.4488C259.74 58.4688 258.43 55.5888 259.41 52.9988C260.38 50.4188 263.27 49.1188 265.85 50.0888C268.43 51.0588 269.74 53.9488 268.76 56.5288C268.01 58.5388 266.11 59.7688 264.09 59.7688C263.5 59.7688 262.9 59.6688 262.32 59.4488Z" fill="black"/>
<path d="M252.35 67.4184C250.57 65.3084 250.84 62.1584 252.95 60.3684C255.06 58.5884 258.22 58.8584 260 60.9684C261.78 63.0784 261.51 66.2384 259.4 68.0184C258.46 68.8084 257.32 69.1984 256.18 69.1984C254.76 69.1984 253.34 68.5884 252.35 67.4184Z" fill="black"/>
<path d="M235.34 69.7986C235.19 67.0386 237.32 64.6986 240.08 64.5486C242.83 64.4186 245.18 66.5386 245.32 69.2986C245.46 72.0486 243.34 74.3986 240.58 74.5386C240.49 74.5386 240.41 74.5386 240.32 74.5386C237.68 74.5386 235.47 72.4686 235.34 69.7886V69.7986Z" fill="black"/>
<path d="M220.6 67.8602C218.84 65.7302 219.14 62.5702 221.27 60.8202C223.4 59.0602 226.55 59.3602 228.31 61.4902C230.07 63.6302 229.76 66.7802 227.63 68.5302C226.7 69.3002 225.58 69.6802 224.46 69.6802C223.02 69.6802 221.58 69.0602 220.6 67.8602Z" fill="black"/>
<path d="M221.78 65.0495C219.13 64.2895 217.6 61.5095 218.37 58.8595C219.14 56.2095 221.92 54.6795 224.57 55.4595C227.22 56.2195 228.75 58.9995 227.98 61.6495C227.34 63.8295 225.35 65.2495 223.18 65.2495C222.72 65.2495 222.24 65.1895 221.78 65.0495Z" fill="black"/>
<path d="M231.6 62.5092C228.87 62.0892 227 59.5292 227.42 56.7992C227.84 54.0792 230.39 52.1992 233.12 52.6192C235.85 53.0392 237.73 55.5892 237.3 58.3292C236.93 60.7992 234.8 62.5592 232.37 62.5592C232.12 62.5592 231.86 62.5592 231.6 62.5092Z" fill="black"/>
<path d="M241.76 57.8793C239.36 56.5093 238.53 53.4593 239.9 51.0593C241.28 48.6593 244.33 47.8293 246.73 49.1993C249.13 50.5793 249.95 53.6293 248.58 56.0293C247.66 57.6393 245.97 58.5393 244.24 58.5393C243.4 58.5393 242.54 58.3293 241.76 57.8793Z" fill="black"/>
<path d="M245.08 50.2199C242.4 49.5399 240.77 46.8299 241.44 44.1499C242.12 41.4699 244.83 39.8399 247.51 40.5099C250.19 41.1899 251.81 43.8999 251.14 46.5799C250.57 48.8499 248.54 50.3699 246.3 50.3699C245.9 50.3699 245.49 50.3199 245.08 50.2199Z" fill="black"/>
<path d="M237.84 36.4295C235.64 34.7695 235.21 31.6295 236.87 29.4295C238.54 27.2295 241.68 26.7895 243.88 28.4595C246.08 30.1195 246.51 33.2595 244.85 35.4595C243.86 36.7595 242.37 37.4495 240.86 37.4495C239.81 37.4495 238.75 37.1195 237.84 36.4295Z" fill="black"/>
<path d="M225.83 29.8288C225.17 27.1488 226.81 24.4388 229.49 23.7788C232.18 23.1188 234.88 24.7588 235.54 27.4488C236.2 30.1288 234.56 32.8388 231.88 33.4988C231.48 33.5888 231.08 33.6388 230.68 33.6388C228.43 33.6388 226.39 32.1088 225.83 29.8288Z" fill="black"/>
<path d="M213.11 35.8486C211.1 33.9486 211.01 30.7886 212.91 28.7786C214.8 26.7686 217.97 26.6786 219.97 28.5686C221.98 30.4586 222.07 33.6286 220.18 35.6386C219.19 36.6786 217.87 37.2086 216.54 37.2086C215.31 37.2086 214.08 36.7586 213.11 35.8486Z" fill="black"/>
<path d="M206.41 49.0988C203.7 48.5588 201.94 45.9288 202.47 43.2188C203.01 40.5088 205.64 38.7488 208.35 39.2888C211.06 39.8188 212.82 42.4588 212.29 45.1588C211.81 47.5388 209.72 49.1988 207.39 49.1988C207.06 49.1988 206.74 49.1588 206.41 49.0988Z" fill="black"/>
<path d="M205.31 67.7502C202.61 67.1702 200.9 64.5002 201.48 61.8002C202.07 59.1102 204.73 57.4002 207.43 57.9802C210.13 58.5602 211.84 61.2202 211.26 63.9202C210.75 66.2702 208.67 67.8702 206.37 67.8702C206.02 67.8702 205.66 67.8302 205.31 67.7502Z" fill="black"/>
<path d="M201.29 71.3801C201.23 68.6101 203.43 66.3401 206.19 66.2801C208.95 66.2301 211.23 68.4301 211.29 71.1901C211.34 73.9501 209.14 76.2301 206.38 76.2801H206.28C203.57 76.2801 201.34 74.1001 201.29 71.3801Z" fill="black"/>
<path d="M201.61 82.9795C201.53 80.2195 203.71 77.9195 206.47 77.8395C209.23 77.7695 211.53 79.9395 211.6 82.6995C211.68 85.4595 209.5 87.7595 206.75 87.8395H206.6C203.91 87.8395 201.69 85.6895 201.61 82.9795Z" fill="black"/>
<path d="M205.38 85.5292C204.92 82.8092 206.76 80.2292 209.48 79.7692C212.2 79.3192 214.79 81.1492 215.24 83.8792C215.7 86.5992 213.86 89.1792 211.14 89.6392C210.86 89.6792 210.58 89.7092 210.31 89.7092C207.91 89.7092 205.79 87.9792 205.38 85.5292Z" fill="black"/>
<path d="M226.13 84.9192C225.34 82.2692 226.85 79.4792 229.49 78.6892C232.14 77.8992 234.92 79.3992 235.71 82.0492C236.51 84.6892 235 87.4792 232.36 88.2692C231.88 88.4192 231.4 88.4792 230.92 88.4792C228.77 88.4792 226.78 87.0792 226.13 84.9192Z" fill="black"/>
<path d="M231.62 87.2901C230.7 84.6801 232.07 81.8301 234.68 80.9201C237.28 80.0101 240.14 81.3801 241.05 83.9801C241.96 86.5901 240.59 89.4501 237.98 90.3601C237.44 90.5501 236.88 90.6401 236.33 90.6401C234.27 90.6401 232.34 89.3501 231.62 87.2901Z" fill="black"/>
<path d="M229.84 94.5285C228.2 92.3185 228.65 89.1886 230.87 87.5386C233.09 85.8886 236.22 86.3486 237.87 88.5686C239.52 90.7786 239.05 93.9185 236.84 95.5585C235.94 96.2285 234.9 96.5486 233.86 96.5486C232.33 96.5486 230.82 95.8485 229.84 94.5285Z" fill="black"/>
<path d="M221.74 100.55C220.1 98.34 220.56 95.2 222.78 93.56C224.99 91.91 228.12 92.37 229.77 94.59C231.42 96.8 230.96 99.94 228.74 101.58C227.84 102.25 226.8 102.57 225.76 102.57C224.23 102.57 222.73 101.87 221.74 100.55Z" fill="black"/>
<path d="M206.78 107.84C205.84 105.24 207.19 102.37 209.79 101.44C212.39 100.51 215.25 101.85 216.19 104.45C217.12 107.05 215.77 109.92 213.17 110.85C212.61 111.05 212.04 111.15 211.48 111.15C209.43 111.15 207.51 109.88 206.78 107.84Z" fill="black"/>
<path d="M201.53 111.02C201.53 108.26 203.77 106.02 206.53 106.02C209.29 106.02 211.53 108.26 211.53 111.02C211.53 113.78 209.29 116.02 206.53 116.02C203.77 116.02 201.53 113.78 201.53 111.02Z" fill="black"/>
<path d="M206.5 197.418C203.74 197.418 201.5 195.178 201.51 192.418C201.51 189.658 203.75 187.418 206.51 187.418C209.27 187.418 211.51 189.668 211.51 192.428C211.51 195.188 209.27 197.418 206.51 197.418H206.5ZM201.51 165.288C201.52 162.528 203.75 160.288 206.52 160.288C209.28 160.288 211.52 162.528 211.51 165.288C211.51 168.048 209.27 170.288 206.51 170.288C203.75 170.288 201.51 168.048 201.51 165.288ZM206.52 143.148C203.76 143.148 201.52 140.918 201.52 138.148C201.52 135.388 203.76 133.148 206.52 133.148C209.28 133.148 211.52 135.398 211.52 138.148C211.52 140.918 209.28 143.148 206.53 143.148H206.52Z" fill="black"/>
<path d="M207.59 232.27C205.59 230.37 205.5 227.21 207.4 225.2C209.29 223.2 212.46 223.11 214.47 225.01C216.47 226.91 216.56 230.07 214.66 232.08C213.68 233.12 212.36 233.64 211.03 233.64C209.8 233.64 208.56 233.19 207.59 232.27Z" fill="black"/>
<path d="M215.35 239.579C213.34 237.689 213.25 234.519 215.14 232.509C217.03 230.499 220.2 230.409 222.21 232.299C224.22 234.199 224.31 237.359 222.42 239.369C221.44 240.409 220.11 240.939 218.78 240.939C217.55 240.939 216.32 240.489 215.35 239.579Z" fill="black"/>
<path d="M221.06 244.53C218.48 243.55 217.17 240.67 218.15 238.08C219.13 235.5 222.02 234.2 224.6 235.18C227.18 236.16 228.48 239.04 227.5 241.63C226.74 243.63 224.84 244.86 222.82 244.86C222.24 244.86 221.64 244.75 221.06 244.53Z" fill="black"/>
<path d="M223.28 245.559C222.45 242.929 223.92 240.119 226.55 239.289C229.18 238.469 231.99 239.929 232.82 242.569C233.65 245.199 232.18 248.009 229.55 248.829C229.05 248.989 228.54 249.069 228.05 249.069C225.92 249.069 223.95 247.699 223.28 245.559Z" fill="black"/>
<path d="M213.99 254.11C211.33 253.38 209.77 250.62 210.5 247.96C211.23 245.3 213.98 243.73 216.64 244.46C219.3 245.19 220.87 247.94 220.14 250.61C219.53 252.83 217.52 254.29 215.32 254.29C214.88 254.29 214.44 254.23 213.99 254.11Z" fill="black"/>
<path d="M197.06 249.2C196.91 246.44 199.03 244.09 201.79 243.94C204.55 243.8 206.9 245.92 207.04 248.67C207.19 251.43 205.07 253.79 202.31 253.93C202.22 253.93 202.13 253.93 202.04 253.93C199.4 253.93 197.2 251.86 197.06 249.19V249.2Z" fill="black"/>
<path d="M181.59 253.96C178.84 253.84 176.69 251.5 176.81 248.74C176.93 245.99 179.27 243.85 182.03 243.97C184.79 244.09 186.92 246.42 186.8 249.18C186.69 251.87 184.47 253.97 181.81 253.96H181.59Z" fill="black"/>
<path d="M177.48 253.78C174.72 253.65 172.59 251.31 172.71 248.55C172.84 245.79 175.17 243.66 177.93 243.78C180.69 243.91 182.83 246.25 182.7 249.01C182.58 251.68 180.37 253.78 177.71 253.78H177.48Z" fill="black"/>
<path d="M154.25 250.619C153.67 247.919 155.4 245.269 158.09 244.689C160.8 244.109 163.45 245.829 164.03 248.529C164.61 251.229 162.89 253.889 160.19 254.459C159.84 254.539 159.48 254.579 159.14 254.579C156.83 254.579 154.76 252.969 154.25 250.619Z" fill="black"/>
<path d="M144.99 248.849C143.97 246.279 145.21 243.369 147.78 242.349C150.34 241.319 153.26 242.569 154.28 245.139C155.3 247.699 154.06 250.609 151.49 251.629C150.88 251.879 150.25 251.989 149.63 251.989C147.65 251.989 145.77 250.799 144.99 248.849Z" fill="black"/>
<path d="M157.1 237.93C155.14 236 155.11 232.83 157.05 230.86C158.98 228.89 162.15 228.87 164.11 230.8C166.08 232.74 166.11 235.91 164.17 237.88C163.19 238.87 161.9 239.37 160.61 239.37C159.34 239.37 158.07 238.89 157.1 237.93Z" fill="black"/>
<path d="M165.92 228.979C163.95 227.039 163.93 223.879 165.86 221.909C167.8 219.939 170.97 219.919 172.93 221.859C174.9 223.789 174.92 226.959 172.99 228.929C172.01 229.919 170.72 230.419 169.43 230.419C168.16 230.419 166.89 229.939 165.92 228.979Z" fill="black"/>
<path d="M165.62 220.22C164.88 217.55 166.45 214.8 169.11 214.07C171.78 213.34 174.53 214.91 175.26 217.57C175.99 220.23 174.42 222.99 171.76 223.72C171.31 223.84 170.87 223.89 170.43 223.89C168.24 223.89 166.23 222.44 165.62 220.22Z" fill="black"/>
<path d="M165.68 210.818C165.68 208.058 167.91 205.818 170.68 205.818C173.44 205.818 175.68 208.058 175.68 210.818C175.68 213.588 173.44 215.818 170.68 215.818C167.91 215.818 165.68 213.588 165.68 210.818Z" fill="black"/>
<path d="M170.9 181.488C168.14 181.468 165.92 179.208 165.94 176.448C165.97 173.688 168.22 171.468 170.98 171.488C173.74 171.508 175.96 173.768 175.94 176.528C175.92 179.278 173.68 181.488 170.94 181.488H170.9Z" fill="black"/>
<path d="M165.94 171.299C165.94 168.529 168.18 166.289 170.94 166.289C173.7 166.289 175.94 168.529 175.94 171.299C175.94 174.059 173.7 176.299 170.94 176.299C168.18 176.299 165.94 174.059 165.94 171.299Z" fill="black"/>
<path d="M170.82 152.289C168.06 152.189 165.92 149.859 166.03 147.099C166.14 144.339 168.46 142.189 171.22 142.299C173.98 142.409 176.13 144.739 176.02 147.499C175.91 150.189 173.7 152.299 171.03 152.299C170.96 152.299 170.89 152.299 170.82 152.299V152.289Z" fill="black"/>
<path d="M166.03 141.389C165.92 138.619 168.08 136.309 170.84 136.199C173.6 136.099 175.92 138.249 176.02 141.009C176.12 143.769 173.97 146.089 171.21 146.189C171.15 146.189 171.08 146.189 171.02 146.189C168.34 146.189 166.13 144.069 166.03 141.379V141.389Z" fill="black"/>
<path d="M170.83 119.14C168.07 119.03 165.92 116.7 166.03 113.95C166.13 111.19 168.46 109.04 171.22 109.14C173.97 109.25 176.12 111.57 176.02 114.33C175.91 117.03 173.7 119.14 171.02 119.14H170.83Z" fill="black"/>
<path d="M166.43 111.33C163.77 110.57 162.23 107.81 162.99 105.15C163.75 102.49 166.51 100.95 169.17 101.71C171.82 102.47 173.36 105.23 172.61 107.89C171.98 110.09 169.98 111.52 167.8 111.52C167.35 111.52 166.89 111.46 166.43 111.33Z" fill="black"/>
<path d="M150.74 102.33C148.44 100.8 147.8 97.6997 149.33 95.3997C150.85 93.0997 153.95 92.4597 156.25 93.9797C158.56 95.5097 159.19 98.6098 157.67 100.91C156.71 102.37 155.11 103.16 153.49 103.16C152.55 103.16 151.59 102.89 150.74 102.33Z" fill="black"/>
<path d="M139.14 94.6897C136.83 93.1697 136.19 90.0697 137.71 87.7597C139.22 85.4597 142.32 84.8197 144.63 86.3297C146.94 87.8497 147.58 90.9597 146.06 93.2597C145.1 94.7197 143.5 95.5097 141.88 95.5097C140.94 95.5097 139.98 95.2497 139.14 94.6897Z" fill="black"/>
<path d="M137.72 87.9001C135.84 85.8801 135.95 82.7101 137.97 80.8301C139.99 78.9501 143.16 79.0701 145.04 81.0901C146.92 83.1101 146.81 86.2701 144.78 88.1501C143.82 89.0501 142.6 89.4901 141.38 89.4901C140.04 89.4901 138.7 88.9601 137.72 87.9001Z" fill="black"/>
<path d="M149.69 89.1086C146.99 88.5286 145.28 85.8686 145.87 83.1686C146.45 80.4686 149.11 78.7486 151.81 79.3386C154.51 79.9186 156.22 82.5886 155.64 85.2886C155.13 87.6286 153.06 89.2286 150.76 89.2286C150.41 89.2286 150.05 89.1886 149.69 89.1086Z" fill="black"/>
<path d="M155.87 84.819C155.59 82.079 157.58 79.619 160.33 79.329C163.07 79.049 165.53 81.039 165.82 83.789C166.11 86.529 164.11 88.989 161.37 89.279C161.19 89.299 161.01 89.309 160.84 89.309C158.31 89.309 156.14 87.399 155.87 84.819Z" fill="black"/>
<path d="M167.41 86.6692C165.46 84.7092 165.46 81.5492 167.41 79.5992C169.36 77.6492 172.53 77.6492 174.48 79.5992C176.43 81.5492 176.43 84.7092 174.48 86.6692C173.5 87.6492 172.22 88.1292 170.94 88.1292C169.66 88.1292 168.38 87.6492 167.41 86.6692Z" fill="black"/>
<path d="M166.63 82.0792C165.67 79.4792 166.99 76.6092 169.58 75.6492C172.17 74.6892 175.04 76.0092 176 78.5992C176.97 81.1892 175.64 84.0592 173.06 85.0292C172.48 85.2392 171.89 85.3392 171.32 85.3392C169.28 85.3392 167.37 84.0892 166.63 82.0792Z" fill="black"/>
<path d="M171.03 76.0893C168.27 76.0193 166.09 73.7293 166.16 70.9693C166.23 68.2093 168.52 66.0293 171.28 66.0993C174.05 66.1693 176.22 68.4593 176.15 71.2193C176.08 73.9393 173.86 76.0993 171.16 76.0993C171.16 76.0993 171.07 76.0993 171.03 76.0993V76.0893Z" fill="black"/>
<path d="M171.54 55.8998C168.78 55.8298 166.59 53.5398 166.66 50.7798C166.73 48.0198 169.03 45.8398 171.79 45.9098C174.55 45.9798 176.73 48.2698 176.66 51.0298C176.59 53.7498 174.37 55.8998 171.66 55.8998H171.54Z" fill="black"/>
<path d="M172.1 43.909C169.54 42.889 168.29 39.979 169.31 37.419C170.33 34.849 173.24 33.599 175.8 34.619C178.37 35.649 179.62 38.549 178.6 41.119C177.82 43.069 175.94 44.269 173.95 44.269C173.34 44.269 172.71 44.149 172.1 43.909Z" fill="black"/>
<path d="M175.42 35.5994C172.86 34.5694 171.61 31.6594 172.64 29.0994C173.67 26.5294 176.58 25.2894 179.14 26.3194C181.71 27.3394 182.95 30.2494 181.92 32.8194C181.14 34.7694 179.26 35.9594 177.28 35.9594C176.66 35.9594 176.03 35.8394 175.42 35.5994Z" fill="black"/>
<path d="M178.25 27.0689C176.09 25.3589 175.72 22.2089 177.44 20.0489C179.15 17.8789 182.29 17.5189 184.46 19.2289C186.62 20.9489 186.99 24.0889 185.28 26.2489C184.29 27.4989 182.83 28.1489 181.35 28.1489C180.27 28.1489 179.17 27.7989 178.25 27.0689Z" fill="black"/>
<path d="M199.16 9.7488C198.18 7.1688 199.48 4.2788 202.06 3.2988C204.64 2.3088 207.53 3.6088 208.51 6.1888C209.49 8.7688 208.19 11.6588 205.61 12.6388C205.03 12.8688 204.43 12.9688 203.84 12.9688C201.82 12.9688 199.92 11.7388 199.16 9.7488Z" fill="black"/>
<path d="M228.29 10.1093C225.53 9.99929 223.39 7.66929 223.51 4.90929C223.62 2.14929 225.95 0.00929184 228.72 0.119292C231.48 0.239292 233.61 2.56929 233.49 5.32929C233.38 8.01929 231.17 10.1193 228.51 10.1193C228.43 10.1193 228.36 10.1193 228.29 10.1093Z" fill="black"/>
<path d="M246.36 16.4497C243.98 15.0497 243.19 11.9797 244.6 9.6097C246 7.2297 249.07 6.4397 251.45 7.8497C253.82 9.2497 254.61 12.3197 253.21 14.6897C252.27 16.2697 250.61 17.1497 248.9 17.1497C248.03 17.1497 247.16 16.9297 246.36 16.4497Z" fill="black"/>
<path d="M254.21 23.0792C252.65 20.7992 253.23 17.6892 255.5 16.1292C257.78 14.5592 260.89 15.1392 262.45 17.4192C264.02 19.6892 263.44 22.8092 261.16 24.3692C260.3 24.9592 259.31 25.2492 258.34 25.2492C256.75 25.2492 255.18 24.4892 254.21 23.0792Z" fill="black"/>
<path d="M259.18 31.0294C258.83 28.2894 260.77 25.7894 263.51 25.4394C266.24 25.0894 268.75 27.0194 269.1 29.7594C269.45 32.4994 267.51 34.9994 264.77 35.3594C264.56 35.3794 264.34 35.3994 264.13 35.3994C261.65 35.3994 259.5 33.5594 259.18 31.0294Z" fill="black"/>
<path d="M261.88 40.0098C261.88 37.2498 264.12 35.0098 266.88 35.0098C269.65 35.0098 271.88 37.2498 271.88 40.0098C271.88 42.7698 269.65 45.0098 266.88 45.0098C264.12 45.0098 261.88 42.7698 261.88 40.0098Z" fill="black"/>
<path d="M261.91 45.95C261.91 43.19 264.12 40.94 266.89 40.92C269.65 40.91 271.9 43.14 271.91 45.9C271.91 48.66 269.69 50.91 266.93 50.93H266.91C264.16 50.93 261.92 48.7 261.91 45.95Z" fill="black"/>
</g>
</g>
<defs>
<clipPath id="clip0_2561_20365">
<rect width="271.91" height="258.6" fill="white"/>
</clipPath>
</defs>
</svg>
