<svg width="532" height="72" viewBox="0 0 532 72" fill="none" xmlns="http://www.w3.org/2000/svg">
<g clip-path="url(#clip0_2561_8064)">
<mask id="mask0_2561_8064" style="mask-type:luminance" maskUnits="userSpaceOnUse" x="0" y="0" width="532" height="72">
<path d="M531.5 0H0V71.2H531.5V0Z" fill="white"/>
</mask>
<g mask="url(#mask0_2561_8064)">
<path d="M156.97 0L156.95 0.04H156.99C156.99 0.04 156.98 0.01 156.97 0ZM196.57 0C196.57 0 196.55 0.03 196.55 0.05H196.59L196.57 0Z" fill="#90BEFB"/>
<path d="M531.5 36.7004V38.0504C530.76 38.4204 530.02 38.3304 529.06 38.3304L503.93 38.3004C502.9 38.3004 502.6 39.0304 502.57 39.9104C501.92 55.7404 489.94 68.8904 474.14 70.9504C473.67 71.0104 473.25 71.0804 473.06 71.1904H466.57C464.99 71.1904 463.29 70.6204 461.63 70.2104C447.78 66.7604 437.64 54.3704 437.02 40.1604C436.8 39.7204 436.88 38.3204 437.62 38.3204L465.42 38.3004C465.54 21.3304 478.24 7.29037 495.06 5.52037C504.44 4.74037 513.01 7.37037 520.15 13.5204C527.08 19.4904 530.65 27.8304 531.51 36.7004" fill="#90BEFB"/>
<path d="M428.11 2.47031H408.38V67.4203H405.95C405.62 67.0003 405.4 66.4903 405.4 65.7603L405.42 5.54031C405.49 4.44031 405.44 3.57031 405.38 2.47031H385.4L385.54 0.320312H427.98C428.08 1.16031 428.11 1.74031 428.11 2.47031Z" fill="#90BEFB"/>
<path d="M254.59 67.43L251.86 68.08C250.57 66.2 250.76 65.21 249.68 62.45L247.48 56.82L246.37 53.57L244.68 49.11L243.04 44.83C242.48 43.35 241.86 41.88 241.37 40.35C240.91 38.91 240.28 37.7 239.79 36.25L238.61 32.82L235.67 25.23C235.29 24.26 235.25 23.18 234.56 22.25C234.12 21.67 234.02 21.01 233.81 20.27C232.92 17.18 231.98 15.53 230.86 12.39L229.83 9.52C229.15 7.6 227.8 12.18 227.76 12.33C227.22 14.01 226.59 15.62 225.97 17.24L224.41 21.35L223.34 24.37L221.99 27.92L220.82 30.66L219.47 34.73C219.21 35.5 218.84 36.26 218.54 37.02C217.23 40.33 216.74 42.63 215.32 45.42C214.63 48.21 214.31 47.14 215.04 49.7C215.25 50.43 215.47 51.02 215.79 51.67C217.52 55.2 216.13 52.72 217.4 55.98L219.06 60.27C220.17 63.13 220.45 64.62 221.76 67.43L218.85 68.06L217.38 63.92C217 62.85 216.75 61.81 216.16 60.8C215.81 60.2 215.64 59.51 215.41 58.83L213.99 54.61C213.85 54.21 213.7 53.76 213.55 53.53C213.37 53.25 212.36 53.4 212.26 53.7L211.42 56.31L209.93 60.22C208.93 62.84 208.2 65.33 207.02 68.04L204.49 67.53C204.15 67.09 204.49 65.97 204.82 65.51C205.57 64.48 205.85 63.4 206.23 62.25L206.89 60.22L209.89 52.23C210.18 51.45 210.36 50.57 210.76 49.9C211.55 48.56 211.64 47.48 210.72 46.19C210.34 45.65 210.15 44.78 209.9 44.1L207.94 38.81L206.3 34.24C205.78 32.8 205.24 31.51 204.57 30.02C204.29 29.4 204.07 28.35 203.79 27.63L202.3 23.66L200.94 20.13L200.12 17.75L198.48 13.65L197.19 9.65C197.11 9.4 196.54 9.07 196.34 9.15C196.09 9.25 195.86 9.66 195.74 10.04L194.63 13.25L192.89 17.89L190.53 24.29L188.01 31.04L187.2 33.18L178.36 56.96C178.01 57.92 178.95 59.21 179.21 59.97L181.07 65.31C181.31 66.01 181.61 66.67 181.99 67.55L179.36 68.22L176.74 61.35L174.12 68.21L171.53 67.56L172.69 64.46L175.29 57.39L166.29 33.18L165.49 31.03L162.97 24.28L160.61 17.89L158.87 13.24L157.75 10.05C157.64 9.72 157.49 9.4 157.38 9.21C157.27 9.02 156.43 9.29 156.36 9.5L155.02 13.62C154.54 15.09 153.85 16.26 153.39 17.65L152.57 20.12L151.2 23.65L149.64 27.8C149.43 28.37 149.22 29.34 149 29.84C148.33 31.37 147.75 32.72 147.21 34.22L145.57 38.79L143.61 44.08C143.35 44.77 143.17 45.62 142.79 46.17C141.94 47.39 141.92 48.42 142.66 49.69C143.14 50.5 143.34 51.49 143.69 52.4L146.62 60.19L147.28 62.22C148.58 66.21 149.43 65.71 149.06 67.5L146.57 68.04C145.27 65.48 144.59 62.71 143.53 60.04C143.02 58.76 142.52 57.57 142.11 56.31L141.17 53.46C141.02 53.38 140.19 53.32 139.97 53.49C139.75 53.66 139.67 54.17 139.53 54.57L138.1 58.79C137.9 59.38 137.75 60.08 137.45 60.58C136.8 61.68 136.54 62.74 136.13 63.88L134.67 68L131.77 67.44C132.28 66.26 132.58 65.47 132.95 64.43L134.45 60.24L136.11 55.95C137.38 52.69 135.99 55.19 137.72 51.64C138.42 50.2 139.12 48.27 138.62 46.68L138.22 45.38C137.42 44 136.99 42.64 136.49 41.12C135.66 38.62 134.62 36.4 134.06 34.71L132.72 30.64L131.54 27.89L130.19 24.34L129.12 21.32L127.56 17.21C126.94 15.58 126.33 13.98 125.76 12.3L124.95 9.9C124.83 9.55 123.95 8.91 123.82 9.26L122.67 12.38L121.46 15.5C120.85 17.07 120.19 18.65 119.73 20.24C119.52 20.98 119.42 21.64 118.98 22.22C118.29 23.14 118.25 24.23 117.87 25.2L114.93 32.79L113.75 36.22C113.25 37.67 112.63 38.88 112.17 40.32C111.69 41.84 111.07 43.32 110.5 44.8L108.86 49.08L107.26 53.37L105.37 58.58L103.41 63.65C102.38 66.32 103.4 65.12 101.79 68.01L98.9502 67.43L100.84 62.59L101.79 59.77L103.18 56.38L106.95 46.14C107.46 44.75 107.91 43.53 108.57 42.08C108.94 41.27 109.2 40.03 109.56 39.08L112.69 30.86C113.13 29.71 113.55 28.71 113.98 27.53L116.23 21.38L117.82 17.27C118.08 16.61 118.12 15.9 118.45 15.17L119.97 11.73C120.8 9.85 121.28 7.97 121.97 6.1L124.04 0.47C125.24 1.01 125.04 2.28 125.41 3.27L128.52 11.54L129.4 14.18C129.93 15.78 130.59 17.11 131.17 18.64L132.77 22.86C133.25 24.14 133.68 25.4 134.16 26.66L135.87 31.16L136.68 33.58L138.21 37.44L139.82 42.3C139.94 42.65 140.97 43.15 141.11 42.77L141.91 40.49L142.59 38.39L144.02 35.08C144.65 33.62 145.01 32.12 145.58 30.63L147.3 26.13C147.55 25.48 147.75 24.86 147.97 24.13C148.25 23.2 148.82 22.26 149.15 21.33L151.32 15.35L152.93 11.25C153.18 10.6 153.4 9.99 153.58 9.26C153.86 8.17 154.51 7.08 154.87 6.07L156.95 0.05L156.97 0.01C156.97 0.01 156.98 0.04 156.99 0.05C157.52 1.23 157.81 2.04 158.12 3.04L158.84 5.33L160.17 8.4L162.33 14.43C163 16.3 163.62 18.12 164.36 20.01L165.84 23.78C166.58 25.67 167.14 27.52 167.88 29.38C168.56 31.08 169.16 32.76 169.72 34.52C170.03 35.5 170.44 36.31 170.8 37.28L173.27 44L174.86 48.1C175.8 50.54 175.09 50.09 176.78 53.04C178.47 50.09 177.76 50.54 178.7 48.1L180.29 44L182.76 37.28C183.11 36.31 183.53 35.5 183.84 34.52C184.4 32.76 185 31.08 185.68 29.38C186.42 27.53 186.98 25.67 187.72 23.78L189.19 20.01C189.93 18.12 190.55 16.3 191.22 14.43L193.38 8.4L194.72 5.33L195.43 3.05C195.75 2.04 196.03 1.24 196.56 0.05C196.56 0.03 196.58 0.02 196.58 0L196.6 0.05L198.63 5.89C199 6.96 199.69 8.1 199.98 9.26C200.17 9.99 200.38 10.61 200.64 11.25L202.24 15.35L204.41 21.33C204.75 22.26 205.31 23.2 205.59 24.13C205.81 24.86 206.01 25.48 206.26 26.13L207.98 30.62C208.55 32.11 208.91 33.61 209.54 35.07L210.97 38.38L211.66 40.49L212.46 42.88C213.56 43.15 213.75 42.19 214 41.45L215.41 37.21L216.86 33.58L217.68 31.15C218.2 29.6 218.77 28.16 219.39 26.65C219.9 25.4 220.3 24.12 220.78 22.85L222.38 18.63C222.96 17.1 223.62 15.77 224.15 14.17L225.03 11.53L228.09 3.45C228.48 2.42 228.23 1.04 229.51 0.46L231.58 6.09C232.27 7.96 232.75 9.84 233.58 11.72L235.1 15.17C235.45 15.96 235.51 16.71 235.79 17.43L237.46 21.73L239.56 27.52C239.99 28.7 240.41 29.7 240.85 30.85L243.98 39.07C244.35 40.03 244.61 41.26 244.98 42.08C245.64 43.53 246.08 44.75 246.59 46.14L250.37 56.38L251.75 59.77L252.7 62.6L254.58 67.42L254.59 67.43Z" fill="#90BEFB"/>
</g>
<path d="M282.29 1.13086H263.35V66.8909H282.29V1.13086Z" fill="#90BEFB"/>
<path d="M328.83 2.4707H286.08V5.1707H328.83V2.4707Z" fill="#90BEFB"/>
<path d="M328.83 32.9297H286.08V35.6197H328.83V32.9297Z" fill="#90BEFB"/>
<path d="M329.1 64.1895H286.35V66.8895H329.1V64.1895Z" fill="#90BEFB"/>
<path d="M375.65 24.5703H372.94V67.4203H375.65V24.5703Z" fill="#90BEFB"/>
<path d="M342.64 24.5703H339.93V67.4203H342.64V24.5703Z" fill="#90BEFB"/>
<mask id="mask1_2561_8064" style="mask-type:luminance" maskUnits="userSpaceOnUse" x="0" y="0" width="532" height="72">
<path d="M531.5 0H0V71.2H531.5V0Z" fill="white"/>
</mask>
<g mask="url(#mask1_2561_8064)">
<path d="M375.34 19.6905L340.53 19.7205C340 19.7205 339.56 19.1205 339.6 18.6705C340.05 13.9905 341.82 9.88052 345.22 6.60052C350.34 1.67052 357.69 0.330518 364.6 2.93052C374.88 6.80052 377.03 19.6805 375.34 19.6905Z" fill="#90BEFB"/>
<path d="M102.99 37.2097C102.99 55.3097 88.2599 69.9797 70.0899 69.9797C51.9199 69.9797 37.1899 55.3097 37.1899 37.2097C37.1899 19.1097 51.9199 4.42969 70.0999 4.42969C88.2799 4.42969 103 19.0997 103 37.1997" fill="#90BEFB"/>
<path d="M32.5699 69.9004C12.4899 69.7304 -2.54011 52.1603 0.359889 32.2803C2.56989 17.0703 15.5199 5.29035 31.1099 4.54035C31.4799 4.52035 32.0199 4.36035 32.2699 4.46035C32.5799 4.57035 32.9199 5.33035 32.8699 5.67035L32.6499 7.24035C18.0299 7.74035 5.97989 17.6504 3.27989 32.0804C-0.000111341 49.6604 14.3999 65.6704 28.3299 66.7504L32.2199 67.0504C33.1599 67.1204 32.9499 69.1304 32.5699 69.9004Z" fill="#90BEFB"/>
</g>
</g>
<defs>
<clipPath id="clip0_2561_8064">
<rect width="531.5" height="71.2" fill="white"/>
</clipPath>
</defs>
</svg>
