<svg width="226" height="181" viewBox="0 0 226 181" fill="none" xmlns="http://www.w3.org/2000/svg">
<g clip-path="url(#clip0_2561_10018)">
<path d="M36.51 155.799L27.21 140.679L21.07 124.139L21.1 106.519L21.92 89.0693L28.46 72.9193L37.03 57.8493L53.48 52.8593L70.16 57.5693L80.01 72.2293L83.51 89.3393L86.91 106.509L85.77 124.109L79.31 140.489L69.16 154.269L53.48 159.609L36.5 155.819L36.51 155.799ZM35.83 35.8293L21.2 44.3493L12.66 58.7793L5.14 73.5293L2.83 89.9993L0 106.509L1.98 123.139L3.85 139.889L11.94 154.659L21.53 168.289L36.35 175.749L52.43 179.199L53.48 180.769L54.52 179.069L70.79 176.239L84.79 167.569L95.79 155.089L101.09 139.269L106.79 123.359L105.22 106.499L104.99 89.8693L102.11 73.4193L94.5 58.6493L84.26 46.0293L70.87 36.5793L54.54 33.7693L53.49 34.5293L52.42 33.0293L35.84 35.8093L35.83 35.8293Z" fill="#90BEFB"/>
<path d="M199.76 0L182.33 2.16L166.08 8.24L155.88 21.3L150.92 37.42L135.1 38.22L119.26 37.66L118.94 56.9L135.1 57.01L151.07 56.63L151.77 73.65L149.7 90.62L152.2 107.58L150.89 124.54L151.64 141.49L152.5 158.45L150.15 176.48L172.82 176.19L172.26 158.45L173.58 141.48L171.26 124.52L173.67 107.56L173.02 90.61L172.64 73.65L171.98 56.46L189.87 56.06L207.54 56.6L225.11 56.61L224.74 38.04L207.53 36.09L189.87 39.15L172.07 37.88L180.89 21.99L199.76 21.95L224.45 19.65L224.88 2L199.76 0Z" fill="#90BEFB"/>
</g>
<defs>
<clipPath id="clip0_2561_10018">
<rect width="225.11" height="180.78" fill="white"/>
</clipPath>
</defs>
</svg>
