<svg width="542" height="173" viewBox="0 0 542 173" fill="none" xmlns="http://www.w3.org/2000/svg">
<g clip-path="url(#clip0_2561_20347)">
<mask id="mask0_2561_20347" style="mask-type:luminance" maskUnits="userSpaceOnUse" x="0" y="0" width="542" height="173">
<path d="M541.94 0H0V172.26H541.94V0Z" fill="white"/>
</mask>
<g mask="url(#mask0_2561_20347)">
<path d="M508.02 62.6291C505.95 66.7191 502.69 70.0591 498.76 72.4891C496.54 73.8491 493.95 74.4391 491.32 74.8891C487.37 75.5791 483.17 74.8191 479.41 73.4191C473.7 71.2691 473.15 67.0291 471.23 69.4291C476.5 74.4791 478.58 80.3991 477.86 87.6391C476.98 96.5291 471.65 99.9991 471.65 101.189C471.65 102.459 480.73 108.709 477.23 123.229C476.59 125.879 474.29 129.929 472.35 131.799C472.05 132.079 471.63 132.629 471.65 132.949C471.67 133.269 472.05 133.799 472.32 134.129C477.11 140.009 478.35 144.079 477.83 151.689C477.59 155.289 476.24 158.399 474.28 161.429C469.96 168.049 461.97 171.459 454.05 170.739C444.23 169.849 436.2 162.819 434.63 152.899C434.24 150.409 434.31 147.579 434.66 145.089C435.23 141.059 436.91 137.599 439.64 134.699C440.07 134.219 440.95 133.099 440.52 132.579C435.12 126.559 433.9 121.619 434.56 113.689C434.64 112.719 434.92 111.469 435.21 110.539C436.7 105.629 438.03 105.089 440.87 101.029L438.72 98.3991C434.67 93.4291 433.87 87.6891 434.61 81.4791C435.54 73.6391 441.13 69.9791 440.76 69.1291C440.66 68.8891 440.39 68.5891 440.12 68.2591C436.7 64.0691 435.88 62.7891 434.65 57.2991C434.11 54.9191 434.8 51.7491 434.08 50.5391C435.01 50.1491 435.53 45.4691 435.6 45.2691C436.54 42.3291 439.85 37.9691 442.55 36.0091C448.13 31.9491 452.47 31.0291 459.36 31.6091C463.86 31.9891 468.46 34.7591 471.77 37.8291C472.56 37.9091 473.3 37.1291 473.87 36.6291C476.33 34.4991 479.27 32.8991 482.41 32.0591C484.26 31.5691 486.04 31.5191 487.91 31.4691C492.93 31.2991 497.44 32.8591 501.45 35.7891C504.09 37.7191 506 40.1891 507.61 43.0691C510.54 48.3191 510.68 57.4091 508.03 62.6191" fill="#90BEFB"/>
<path d="M536.51 131.531C536.03 132.091 535.1 132.721 535.73 133.521C537.39 135.661 539.16 137.731 540.2 140.251C543.39 148.001 542.17 157.281 536.51 163.571C529.83 171.001 519.25 172.841 510.33 168.681C504.01 165.731 499.58 159.691 498.45 152.741C498.08 150.421 498.35 148.091 498.4 145.521C498.42 144.451 498.9 143.131 499.19 142.151C500.17 138.881 502.13 136.191 504.37 133.671C504.9 133.071 504.44 132.541 504.01 132.061C501.99 129.851 500.3 127.321 499.36 124.441C499.02 123.411 498.55 122.051 498.47 121.011C497.76 112.691 498.8 108.061 504.31 101.791C504.78 101.251 504.69 100.711 504.15 100.161C501.17 97.1806 499.16 93.4406 498.51 89.1306C498.14 86.7206 498.33 84.1806 498.41 81.6206C498.46 80.3506 499.78 76.4006 500.55 75.0506C503.18 70.3906 507.83 66.0006 513 64.4606C517.18 63.2106 520.33 62.8906 524.71 63.8006C532.47 65.4106 538.88 71.1806 541.07 78.8706C542.64 84.3906 542.11 90.1106 539.61 95.2106C538.55 97.3806 535.66 100.661 535.58 100.981C535.3 101.951 538.55 104.341 540.09 108.081C542.47 113.821 542.59 119.961 540.26 125.761C539.41 127.871 538 129.811 536.52 131.541" fill="#90BEFB"/>
<path d="M43.66 116.11C43.59 119.35 43.29 122.19 41.9 125.21C40.65 127.95 38.69 130.45 36.34 132.42C35.3 133.29 34.29 134.29 33.13 134.98C28.91 137.45 23.53 138.27 18.73 137.64C9.07 136.37 1.86 129.21 0.28 119.71C0.18 119.08 0.19 118.45 0.01 118.04V113.94C0.18 113.59 0.24 112.92 0.32 112.29C0.91 107.62 3.39 103.63 6.76 100.13C3.52 96.6902 0.99 92.6802 0.29 87.9302C0.2 87.3302 0.22 86.5902 0 86.2802V82.1702C0.05 81.4102 0.29 80.2402 0.48 79.3602C2.09 72.0002 7.11 66.3302 14.07 63.6402C15.35 63.1402 16.64 62.8902 18.02 62.6102C25.91 61.0202 32.89 63.8602 38.23 69.7402L40.05 71.7402C43.33 75.3602 43.96 82.7302 43.45 87.5602C43.1 90.9602 41.83 94.1302 39.83 96.7402L38.01 99.1002L37.3 99.9102C36.4 100.95 43.88 104.47 43.65 116.11" fill="#90BEFB"/>
<path d="M107.61 149.609C106.74 160.519 98.6996 168.769 87.6896 169.679C82.6396 170.099 77.6896 168.889 73.5796 166.139C72.5596 165.469 71.5796 164.619 70.6696 163.839L69.9996 163.269C69.8496 163.139 69.2996 163.439 69.1496 163.579C64.1596 168.809 56.3896 170.689 49.2996 169.299C42.5096 167.989 36.8896 163.749 34.0596 157.409C31.9096 152.629 31.7596 150.189 32.1596 144.599C32.2596 143.229 32.8496 141.629 33.2796 140.339C34.6196 136.429 37.0896 133.429 40.2296 130.819C43.2596 128.289 46.9696 126.679 50.9796 126.279C58.6096 125.499 63.7896 127.459 69.4796 132.459C70.7196 133.549 73.8796 126.269 85.8096 126.119C92.9396 126.039 100.16 129.649 104.07 135.679C106.74 139.789 107.99 144.799 107.61 149.609Z" fill="#90BEFB"/>
<path d="M75.8604 52.1297C75.8604 64.2697 66.0204 74.0897 53.8904 74.0897C41.7604 74.0897 31.9004 64.2597 31.9004 52.1297C31.9004 39.9997 41.7504 30.1797 53.8904 30.1797C66.0304 30.1797 75.8604 40.0097 75.8604 52.1297Z" fill="#90BEFB"/>
<path d="M107.74 84.1292C107.74 96.2392 97.9001 106.069 85.7801 106.069C73.6601 106.069 63.8301 96.2392 63.8301 84.1292C63.8301 72.0192 73.6601 62.1992 85.7801 62.1992C97.9001 62.1992 107.74 72.0292 107.74 84.1292Z" fill="#90BEFB"/>
<path d="M198 57.5799C196.79 63.4999 195.33 65.8199 191.36 69.8299C186.57 74.6399 180.18 76.1499 173.61 75.4899C168.76 74.9999 164.43 72.8799 161.09 69.3999C160.88 69.1899 160.11 69.1299 159.87 69.2599C158.8 69.8899 161.19 71.4399 162.37 73.0899C168.48 81.6499 167.51 93.6799 159.84 101.49C159.47 101.85 160.38 102.64 160.67 102.96C166.05 108.66 167.75 117.51 165.1 124.97C164.2 127.52 162.96 129.97 161.09 131.93C160.53 132.51 159.98 133.16 159.69 133.95C161.63 135.78 163.13 137.58 164.18 139.98C168.24 149.26 166.81 158.73 159.16 165.6C158.9 165.83 159.06 166.81 159.19 166.97C158.21 166.99 157.48 167.24 156.71 167.8C153.8 169.94 150.37 170.84 146.69 171.26C141.39 171.89 135.71 170.39 131.4 167.27C126.19 163.51 123.29 157.89 122.61 151.64C121.95 145.53 124.13 139.48 128.14 134.95C128.51 134.55 129.09 133.94 129.04 133.56C128.98 133.16 128.31 132.64 127.98 132.26C123.96 127.55 121.91 121.36 122.63 115.16C123.14 110.83 124.99 106.58 127.77 103.44C128.22 102.95 129.53 102.13 128.99 101.52C126.58 98.8699 124.81 96.1499 123.64 92.7399C121.08 85.2999 122.81 76.9699 128.14 71.1299C130.46 68.5899 128.19 70.3899 124.83 63.6799C121.94 57.9299 121.78 51.6699 124.02 45.6799C125.01 43.0399 126.4 40.8499 128.55 38.8599C129.13 38.3099 128.73 37.0999 128.16 36.5499C126.4 34.8599 125.03 32.9799 124.15 30.6799C123.5 28.9699 122.75 27.0699 122.6 25.1899C122.44 23.1199 122.33 20.9999 122.6 18.8799C123.22 14.0999 125.61 9.41987 129.4 6.44987C132.03 4.38987 134.83 2.97987 137.61 1.15987L141.6 1.08987C143.51 0.0598692 145.25 -0.220131 147.36 0.149869C149.57 0.539869 151.86 0.839869 153.84 1.83987C155.74 2.79987 157.49 3.73987 158.98 5.17987C160.91 7.03987 162.83 8.87987 163.99 11.4299C167.04 18.1399 167.59 24.6299 164.42 31.5599C163.26 34.1099 161.07 36.0899 159.98 37.7099C159.86 37.8899 160.74 38.2199 160.91 38.0899L162.41 36.8899C163.7 35.8499 164.9 34.9999 166.37 34.2699C167.87 33.5299 169.35 32.6099 171 32.2899C174.61 31.5799 178.77 31.5599 182.31 32.5799C189.28 34.5699 195.18 39.6999 197.16 46.7799C198.31 50.8699 198.83 53.4299 197.98 57.5699" fill="#90BEFB"/>
<path d="M228.73 141.51C231.89 149.39 230.12 158.57 224.32 164.69C214.95 174.57 198.1 173.36 190.35 162.25C187.49 158.15 185.97 152.36 186.58 147.34C187.72 137.96 192.78 134.72 193.01 133.76C193.08 133.45 192.64 132.88 192.36 132.61C189.54 129.9 187.97 126.37 187.01 122.61C185.4 116.3 187.27 107.45 192.37 102.91C194.39 101.12 190.36 100.28 188.1 94.1496C185.83 87.9996 185.98 83.4496 188.08 77.3496C188.89 74.9796 190.25 73.2996 191.84 71.4996C195.91 66.8596 200.6 64.4196 206.83 63.9496C214.2 63.3896 221.43 66.5996 225.91 72.4996C227.45 74.5196 228.4 76.7296 229.22 79.1296C231.79 86.6296 229.68 95.0796 224.31 100.86C224.05 101.14 223.68 101.51 223.66 101.76C223.62 102.07 224.09 102.57 224.4 102.81C225.79 103.96 226.65 105.47 227.53 107.1C230.34 112.31 231.16 118.3 229.33 123.99C228.35 127.06 226.95 129.91 224.71 132.25C224.32 132.67 223.47 133.54 223.68 134.07C226.14 136.14 227.55 138.62 228.72 141.52" fill="#90BEFB"/>
<path d="M346.49 159.41C345.18 162.12 343.28 164.3 341.04 166.3C337.65 169.34 333.41 170.86 328.77 171.31C316 172.54 304.78 162.53 304.99 150.16L305.01 148.4C305.1 143.11 307.3 138.09 311.11 134.56C311.37 134.32 311.41 133.58 311.28 133.33C311.17 133.07 310.23 132.98 310.01 133.23C304.98 139.08 295.87 140.7 288.6 138.65C286.27 137.99 283.97 137.06 282.13 135.5L279.43 133.2C279.22 133.03 278.38 133.14 278.3 133.34C277.64 134.99 286.16 138.77 284.56 152.85C283.97 158.14 281.25 162.64 277.3 166.21C270.18 172.63 258.62 173.03 250.65 167.83C243.95 163.47 240.8 156.29 241.12 148.44C241.57 137.39 248.56 134.65 247.24 133.11C245.98 131.65 244.68 130.12 243.72 128.38C241.36 124.12 240.64 118.86 241.34 114.1C243.21 101.44 255.27 93.7902 267.85 96.3602C274.47 97.7102 277.84 102.21 278.88 102.26C279.26 102.27 279.81 101.75 280.17 101.41C288.74 93.7802 302.03 93.9602 309.91 101.97C310.17 102.23 310.68 102.5 310.95 102.46C311.28 102.41 311.49 101.43 311.25 101.17L309.75 99.4302C306.41 95.5802 305.02 91.0402 304.97 86.0302C304.94 80.9302 306.24 76.2602 309.45 72.3602C313.49 67.4302 318.9 64.2502 325.42 63.9302C333.88 63.5202 342.03 67.6502 346.05 75.1802C349.34 81.3502 349.48 88.6802 346.72 95.0902C345.45 98.0402 342.21 101.18 342.25 101.76C342.35 103.15 347.19 105.85 348.39 114.22C349.35 120.98 347.64 127.64 342.85 132.57C342.34 133.1 342.08 134.1 342.69 134.68C349.25 141.03 350.26 151.64 346.46 159.43" fill="#90BEFB"/>
<path d="M316.42 57.8205C315.9 60.8005 314.84 63.5705 313.11 66.1305C312.59 66.8705 311.86 67.5905 311.23 68.3205C308.65 71.3105 305.01 73.9005 301.04 74.8805C294.96 76.3805 287.83 75.7705 282.63 72.0305C281.76 71.4005 280.95 70.8005 280.15 70.1005C279.83 69.8105 279.45 69.3005 279.15 69.2405C278.74 69.1705 278.08 69.5705 277.73 69.9005C270.37 77.2705 257.47 77.4405 249.44 71.2305C248.2 70.2605 247.18 69.3905 246.17 68.1505C243.66 65.0105 241.86 61.5405 241.37 57.3705C240.72 51.8605 241.47 46.2605 244.69 41.5805C248.23 36.4605 253.44 33.0405 259.7 32.2205C272.26 30.5705 277.49 38.3205 278.9 38.4205C279.93 38.5005 285.77 30.5105 298.1 32.2205C310.45 33.9205 318.62 45.5305 316.42 57.8205Z" fill="#90BEFB"/>
<path d="M412.46 147.359L412.68 151.329C412.52 158.699 408.87 164.869 402.86 168.949C400.65 170.439 397.79 171.519 395.19 171.859C394.95 171.889 394.48 172.189 394.44 172.259H387.58C383.22 171.469 379.24 169.789 375.89 166.669C366.76 158.179 366.52 143.589 375.67 134.589C373.52 132.429 371.56 129.369 370.15 126.829C370.02 126.599 369.22 126.549 369.25 126.359C369.28 126.169 369.48 125.549 369.42 125.339C368.74 122.899 367.88 120.109 368.25 117.419C368.51 115.559 368.9 113.869 369.63 112.159C370.9 109.179 372.26 106.259 374.52 103.909C374.81 103.609 375.45 103.129 375.47 102.789C375.49 102.449 375.04 101.859 374.73 101.529C366.56 92.8493 367.19 78.7893 375.45 70.9293C380.8 65.8493 387.19 64.2293 394.46 65.1593C399.58 65.8093 404.05 68.5193 407.52 72.3993C410.48 75.7093 412.89 81.6993 412.66 85.9293L412.45 89.5593C412.23 93.4293 409.65 98.9893 406.81 101.669C406.54 101.929 406.1 102.479 406.16 102.789C406.22 103.039 406.57 103.489 406.82 103.719C410.2 106.799 412.08 111.829 412.65 116.349C413.02 123.449 411.23 129.239 405.94 134.499C409.44 138.159 412.17 142.349 412.44 147.339" fill="#90BEFB"/>
<path d="M412.77 22.9107C412.77 35.0207 402.94 44.8407 390.82 44.8407C378.7 44.8407 368.87 35.0207 368.87 22.9107C368.87 10.8007 378.69 0.970703 390.82 0.970703C402.95 0.970703 412.77 10.8007 412.77 22.9107Z" fill="#90BEFB"/>
</g>
</g>
<defs>
<clipPath id="clip0_2561_20347">
<rect width="541.94" height="172.26" fill="white"/>
</clipPath>
</defs>
</svg>
