<svg width="387" height="160" viewBox="0 0 387 160" fill="none" xmlns="http://www.w3.org/2000/svg">
<g clip-path="url(#clip0_2561_14256)">
<mask id="mask0_2561_14256" style="mask-type:luminance" maskUnits="userSpaceOnUse" x="0" y="0" width="387" height="160">
<path d="M386.87 0H0V159.14H386.87V0Z" fill="white"/>
</mask>
<g mask="url(#mask0_2561_14256)">
<path d="M51.66 94L49.25 99.36L47.89 102.26L46.77 104.4C46.42 105.06 46.06 105.62 45.66 106.25C43.07 110.28 41.23 112.23 36.94 114.43C35.51 115.16 34.05 115.32 32.46 115.33C27.93 115.37 25.26 113.04 22.41 109.93C21.49 108.92 21.08 107.77 20.53 106.56C19.84 105.05 18.99 103.69 18.61 102.04C18.28 100.65 17.86 99.31 17.71 97.88L17.38 94.74C17.09 92.07 17.5 89.32 18.03 86.66C18.13 86.19 19.43 83.88 19.91 83.45C20.55 82.87 21.24 82.34 21.98 81.91C23.06 81.28 24.5 81.41 25.61 81.97L28.27 83.31C28.78 83.57 29.25 84.09 29.72 84.38C30.79 85.05 31.72 85.74 32.67 86.56C33.51 87.28 34.47 87.81 35.38 88.41C36.4 89.09 37.39 89.65 38.59 89.95C39.34 90.14 40.08 90.35 40.86 90.46L42.53 90.7C42.98 90.77 43.54 90.8 44.01 90.66C47.2 89.72 48.04 89.04 50.28 86.47C50.44 86.29 50.93 86.17 51.13 86.23C51.33 86.29 51.62 86.68 51.63 86.9L51.68 90.65L51.9 92.54C51.95 92.93 51.83 93.66 51.68 94.02M126.26 112.03C124.68 110.15 123.2 108.32 121.83 106.27C120.33 104.02 119.34 101.6 118.82 98.95C118.6 97.85 118.39 96.73 118.33 95.6L118.21 93.45C118.1 91.58 118.19 89.74 118.23 87.88L118.36 82.34C118.37 81.63 118.54 79.24 117.98 78.75C117.72 75.34 118.59 75.91 117.94 71.73C117.83 71.03 117.94 70.19 117.88 69.48L117.76 68.12C117.63 66.63 117.18 65.26 116.67 63.87C116.44 63.24 116.27 62.47 115.92 61.93C115.43 61.18 114.9 60.48 114.23 59.83C112.78 58.41 110.43 57.79 108.45 58.42C106.24 59.12 104.62 61.97 103.61 63.24L102.79 64.28C100.21 67.55 100.03 68.99 98.08 72.17C97.54 73.05 96.93 73.95 96.54 74.89C96.06 76.03 95.6 77.01 95 78.08C94.27 79.37 93.62 80.75 93.06 82.13C92.61 83.24 92.12 84.19 91.61 85.27L90.25 88.09C89.8 89.03 89.19 91.09 88.54 90.77C87.56 90.29 88.61 87.97 88.92 87.15C89.62 85.27 89.97 83.33 90.56 81.41C91.17 79.46 91.61 77.59 91.97 75.57C92.09 74.88 92.38 74.19 92.59 73.52C93.01 72.19 93.3 70.87 93.52 69.48L94.11 65.76C94.29 64.57 94.58 63.38 94.63 62.15C94.73 59.55 94.76 56.97 94.62 54.36C94.52 52.55 93.93 50.89 93.56 49.17C93.27 47.86 92.85 46.71 92.18 45.55C91.88 45.04 91.61 44.16 91.1 43.87L88.87 42.57C87.73 41.91 86.33 41.58 85.05 42.01C84.22 42.29 83.53 42.91 82.78 43.33C81.23 44.21 81.53 44.58 80.47 45.85C79.71 46.76 79.66 47.99 79.11 48.97L77.48 51.87C76.93 52.85 76.44 53.76 75.93 54.77C75.34 55.93 74.67 57.05 74.01 58.17L73.01 59.86L71.04 63.26C70.45 64.29 69.74 65.24 69.08 66.26C68.88 66.57 68.48 66.89 68.3 67.2L66.14 70.96C65.64 71.82 65.08 72.58 64.68 73.52C64.36 74.29 63.84 75 63.11 75.45C62.57 75.79 62.43 74.39 62.46 74.01C62.5 73.36 61.93 66.18 61.9 66L61.31 63.03C61.04 61.66 60.88 60.31 60.55 58.97L60 56.81L59.08 54.01C58.77 53.08 58.68 52.1 58.21 51.26C57.43 49.86 57.03 48.43 56.29 47.54C54.92 45.89 54.85 45.43 52.92 44.06C52.15 43.51 51.09 43.24 50.11 43.24L42.4 43.22L41.06 43.37L38.9 43.5L37.44 43.62C35.52 43.78 34.4 44.26 31.8 44.44L30.18 44.56L27.1 44.97L25.62 45.09L20.69 45.88L19.05 46.17L12.94 47.19L8.67 48.25C8.04 48.41 7.45 48.93 6.9 49.27C6.21 49.71 5.45 50.06 4.83 50.57L3.34 51.78C2.84 52.18 2.52 52.95 2.09 53.45C0.45 55.32 0.68 56.51 0 58.73V59.53L0.43 61.23C0.79 62.67 1.49 63.89 2.34 65.11C3.42 66.67 5.74 68.12 7.66 68.53C8.89 68.79 10.11 69.32 11.41 69.29C13.7 69.23 15.07 68.61 17.19 68.35C18.04 68.24 18.93 68.1 19.76 67.85C21.71 67.26 23.59 66.78 25.57 66.29C27.13 65.9 28.58 65.29 30.19 65.16C34.37 64.83 34.11 64.1 37.95 63.64C39.55 63.44 40.44 63.47 41.32 64.92C41.47 66.16 40.95 69.3 40.65 70.53C40.3 71.98 40.02 73.48 40.41 74.96C40.57 75.55 40.75 76.17 40.8 76.79C39.56 76.75 39.01 75.9 38.26 75.2C37.48 74.48 36.58 73.8 35.67 73.28C34.81 72.79 34.12 72.26 33.33 71.69C32.45 71.05 31.33 70.73 30.33 70.26C28.69 69.49 26.91 69.23 25.1 69.01C23.74 68.85 22.74 68.96 21.39 69.36C20.37 69.66 19.22 69.69 18.23 70.1L15.4 71.28C14.99 71.45 14.6 71.73 14.26 72.01C13.75 72.43 13.1 72.75 12.62 73.19C11.81 73.93 11.08 74.67 10.32 75.46C9.65 76.15 9.28 77.11 8.72 77.89C8.05 78.81 7.61 79.73 7.22 80.83L6.72 82.2C6.09 83.95 5.56 85.68 5.38 87.55L5.05 90.95C4.71 94.48 5.29 100.85 6.15 104.33C6.26 104.8 6.48 105.28 6.66 105.72C7.08 106.73 7.14 107.91 7.64 108.89L9.72 112.99C10.12 113.76 10.69 114.53 11.18 115.27C12.39 117.1 14.04 118.95 15.5 120.58C17.89 123.24 20.2 124.46 23.43 125.96L25.97 127.14C26.56 127.41 27.39 127.54 28.03 127.59L29.93 127.74C30.79 127.81 31.74 128.04 32.54 127.97L36.11 127.63C39.78 127.28 39.53 126.43 41.43 125.85C42.42 125.55 43.23 124.98 44.13 124.55C45.31 123.99 46.23 123.39 47.18 122.48L49.86 119.91C50.28 119.51 50.67 119.03 51.05 118.56C51.53 117.98 52.15 117.51 52.6 116.91L54.08 114.92C54.16 114.81 54.44 114.68 54.55 114.67C55.01 114.61 55.29 115.66 55.27 116.08C54.93 117.35 54.95 118.6 55.24 119.87C55.34 120.29 55.31 120.89 55.37 121.33L55.62 122.97L55.78 124.29C55.92 125.44 56.45 127.34 57.32 128.16C58.18 128.98 59.15 129.77 60.29 130.24C61.56 130.76 63.24 130.69 64.47 130.1C65.28 129.71 66.06 129.14 66.65 128.57C68.72 126.58 68.16 124.32 67.92 121.99L67.54 118.31C67.33 116.24 66.97 115.76 66.85 113.82L66.71 111.8L66.59 110.19L66.44 108.18C66.33 106.71 66 105.32 65.79 103.87L65.63 102.81C65.5 101.95 66.09 101.42 66.59 100.82C67.67 99.53 68.44 97.97 68.74 96.3C69 94.81 69.51 93.49 70.02 92.09L71.67 87.57C72 86.65 72.34 85.8 72.83 84.95C73.21 84.32 73.34 83.63 73.7 82.97L74.95 80.67C75.45 79.75 75.59 78.75 76.24 77.89C76.58 77.45 76.75 76.89 77.02 76.4L78.63 73.45C78.83 73.1 79.41 72.66 79.75 72.79C80.56 73.86 78.69 77.91 78.37 79.06L77.29 82.94C76.83 84.6 76.56 86.28 76.28 87.98C76.16 88.7 75.96 89.33 75.79 90.03C75.39 91.68 75.12 93.34 74.88 95.04L74 101.34L73.42 105.82L72.98 109.91L72.56 113.4L72.41 115.27L72.19 117.41L71.83 121.21C71.73 122.22 71.91 123.23 71.76 124.26L71.53 125.85L71.47 128.93C71.46 129.41 71.4 129.93 71.34 130.43C71.06 132.82 71.37 134.92 73.26 136.58C74.17 137.38 75.33 138 76.45 138.3C77.81 138.65 78.98 138.38 80.16 137.88C81.08 137.48 81.78 136.97 82.37 136.16L82.94 135.38C83.35 134.82 83.47 134.13 83.51 133.42C83.66 131.04 84.5 130.59 84.85 128.62C85.53 124.86 86.23 124.83 86.59 123.12C86.92 121.59 87.37 120.21 88.07 118.82L89.46 116.05L91.1 112.6C91.53 111.69 91.86 110.74 92.48 109.93C92.97 109.29 93.2 108.5 93.58 107.81L95.13 104.94C95.82 103.67 96.67 102.52 97.32 101.23L98.57 98.72C99.12 97.62 99.76 96.69 100.27 95.58C100.7 94.66 101.23 93.79 101.47 92.79C101.69 91.9 102.2 91.23 102.6 90.44C103.38 88.87 104.01 87.28 104.66 85.64C104.85 85.14 105.05 84.5 105.49 84.19C105.6 84.11 106 84.15 106.08 84.26C106.17 84.39 106.34 84.71 106.35 84.89L106.47 88.77L106.8 91.67L107.62 97.28C107.76 98.24 107.84 99.24 108.12 100.13C108.59 101.66 109 103.05 109.27 104.64C109.51 106.02 110.45 106.94 110.63 109.83C110.73 111.34 110.74 112.93 111.3 114.38C112.17 116.66 113.03 118.69 114.45 120.63C114.92 121.27 115.6 121.81 116.16 122.38C118.44 122.16 120.62 123.64 122.9 122.73C124.92 121.93 124.93 119.56 127.8 117.08C129.63 115.5 127.55 113.49 126.28 111.98" fill="#90BEFB"/>
<path d="M167.99 86.4197C167.48 87.3897 167.1 88.4197 166.78 89.5097C166.54 90.3197 165.89 91.0097 165.61 91.7597C165.17 92.9597 164.62 93.9197 164 94.9997C163.45 95.9597 163.26 97.0297 162.42 97.8897C162.06 98.2597 161.87 98.9897 161.55 99.3997C161.05 100.05 160.66 100.64 160.23 101.33C159.9 101.87 159.34 102.32 158.91 102.81C158.31 103.5 157.66 104.07 156.92 104.59L155.35 105.69L153.61 106.92C153.04 107.32 149.76 107.82 148.86 107.89C148.1 107.95 147.23 107.58 146.47 107.56C145.43 107.52 144.46 107.35 143.65 106.72L141.15 104.81C139.85 103.81 137.83 101.93 137.51 100.27C136.59 99.5397 136.37 98.4297 135.93 97.4197C135.2 95.7697 134.73 94.1797 134.45 92.3797C134.1 90.0497 133.4 86.8197 133.64 84.4097C133.84 82.4097 133.93 80.3697 134.69 78.4597C135.14 77.3197 135.85 76.1497 136.79 75.3697C137.38 74.8797 138.24 74.5797 138.91 74.2897C139.93 73.8497 140.89 74.0397 141.82 74.4897C142.51 74.8197 143.32 75.0597 143.94 75.4597C144.61 75.8997 145.17 76.3897 145.88 76.7497C146.56 77.0897 147.05 77.7397 147.66 78.1597L149.81 79.6397L152.12 81.2297C152.71 81.6397 153.38 81.8597 154.03 82.1397C155.63 82.8297 157.15 83.2797 158.94 83.1397C159.72 83.0797 160.65 83.2097 161.38 82.8897C161.94 82.6497 163.94 81.6197 164.24 81.3397L166.57 79.0897C166.71 78.9497 167.12 78.8197 167.3 78.8197C167.51 78.8197 167.85 79.2297 167.86 79.4697L167.95 82.6097C168.01 84.6297 168.72 85.0397 167.98 86.4197M183.98 114.9L183.63 111.55L183.49 109.92L182.84 104.04L182.74 102.81L182.47 100.26L182.32 98.8097L182.17 96.9297L182.05 95.7097L181.97 93.5997L181.86 92.2397L181.56 89.3697C181.34 87.3497 181.1 85.4097 180.7 83.3897C180.53 82.5097 180.49 81.6197 180.39 80.7197L179.87 76.0497C179.81 75.4997 179.82 74.9697 179.74 74.4197C179.53 72.8397 179.2 71.3297 179.08 69.7397L178.95 67.9997L178.84 66.5097L178.74 64.5197L178.71 63.5897L178.44 60.7797C178.14 57.7197 177.43 56.2197 177.26 53.8597C177.16 52.6397 176.78 51.5697 176.44 50.3897L175.86 48.4197C175.13 45.9297 175.61 46.3097 174.4 43.4397C173.93 42.3197 173.43 41.2597 172.79 40.2197C172.31 39.4297 171.69 38.8397 171 38.2297C167.84 35.4197 168.08 35.8497 164.45 35.4997C163.83 35.4397 163.29 35.4897 162.67 35.4997L158.53 35.5797C158.15 35.5897 157.7 35.6297 157.32 35.6997L151.83 36.6097L150.06 36.7597L145.78 37.2897C143.91 37.5197 142.09 37.6497 140.26 37.9497C139 38.1597 137.8 38.3797 136.51 38.4997C134.39 38.6997 132.41 39.1997 130.33 39.6797C127.8 40.2597 126.95 39.9897 124.51 41.1097L122.37 42.0897C121.71 42.3897 121.2 43.0697 120.63 43.5297C119.75 44.2397 118.21 45.9197 117.69 46.9197C116.85 48.5097 116.08 50.9097 116.42 52.6897C116.69 54.0697 117.15 55.4097 117.84 56.6297C118.42 57.6497 119.38 58.4097 120.21 59.2197C121.04 60.0297 121.94 60.4697 123 60.8697C124.54 61.4597 125.98 61.7597 127.66 61.7297C128.02 61.7197 128.51 61.8197 128.89 61.7597C129.65 61.6497 130.29 61.4897 131.01 61.2997C132.65 60.8697 134.29 60.5097 135.97 60.2397C137.45 59.9997 138.78 59.6397 140.22 59.2697C142.23 58.7497 144.21 58.4997 146.17 57.8097C147.58 57.3097 149.06 57.2597 150.52 56.9097L154.21 56.0397C155.46 55.7397 156.88 56.0197 157.41 57.2997C157.54 57.6097 157.68 58.2597 157.71 58.5997L156.73 64.0897C156.29 65.1497 156.17 66.3397 156.69 67.4097C156.91 67.8797 157.73 69.2597 157.05 69.5497C156.4 69.8297 155.51 68.8097 155.1 68.3297C153.72 66.6897 151.43 65.4397 149.59 64.4297C148.52 63.8397 147.54 63.1297 146.34 62.7297C144.76 61.4497 141.31 61.4697 139.35 61.6097L137.99 61.6997C136.5 61.7997 135.18 62.3397 133.81 62.8597C131.63 63.6897 129.83 64.8697 128.11 66.4397C126.99 67.4597 126.2 68.7197 125.36 69.9897C124.09 71.9197 124.43 72.4297 123.96 74.7097L123.06 79.0497C122.45 81.9697 122.36 85.0997 122.49 88.1097C122.53 88.8697 122.53 89.6497 122.63 90.3897L123.07 93.5697C123.52 96.9097 125.33 104.02 126.97 106.89C127.83 108.4 128.78 109.89 129.97 111.15L130.89 112.12L133.83 115.08C133.94 115.19 136.15 116.69 136.74 117.13C137.43 117.64 138.39 117.82 139.13 118.23C141.73 119.67 141.36 119.14 144.35 119.99C146.54 120.61 148.96 120.82 151.18 120.33L153.84 119.73C155.83 119.28 157.89 118.72 159.63 117.62L162.57 115.74C163.11 115.39 165.17 113.58 165.75 113.02L166.76 112.05C167.19 111.64 167.54 111.19 167.89 110.73L170.23 107.59C170.37 107.41 170.85 107.23 171.04 107.29C171.23 107.36 171.53 107.75 171.53 107.96L171.59 112.37L171.95 115.6C172.06 116.56 171.85 117.59 172.34 118.43C172.92 119.45 173.43 120.54 174.22 121.37C175.14 122.33 176.43 122.82 177.74 122.91C178.19 122.94 178.79 122.71 179.25 122.64L181.11 122.36C181.5 122.3 181.69 122.15 182.01 121.9C183.25 120.93 184.39 119.62 184.24 117.91L183.99 114.95L183.98 114.9Z" fill="#90BEFB"/>
<path d="M262.57 135.099L262.24 137.829C262.06 139.289 261.9 140.739 261.43 142.129L260.75 144.109C260.31 145.409 259.91 146.619 259.22 147.819C258.88 148.409 258.74 149.209 258.33 149.749L256.03 152.819C254.94 154.279 253.52 155.299 252.06 156.349C251.2 156.969 250.46 157.449 249.44 157.779C248.33 158.139 247.3 158.789 246.13 158.989C245.76 159.059 245.33 159.009 245.06 159.149H241.04C235.8 158.039 233.82 157.559 229.06 155.179C228 154.649 226.95 154.239 225.94 153.589C224.72 152.809 223.47 151.979 222.16 151.389C220.72 150.749 219.42 150.169 218.3 149.019C217.61 148.309 216.67 147.889 215.72 147.569C214.81 146.909 213.82 146.459 212.84 145.879C211.97 145.379 211.2 144.779 210.17 144.549C208.87 144.249 207.73 143.759 206.61 143.019C206.13 142.699 205.74 142.269 205.36 141.859C204.49 140.929 204.08 139.939 203.97 138.629C203.9 137.749 204.03 135.769 204.38 135.099C205.76 132.499 208.83 130.369 212 131.579C212.61 131.819 213.17 132.279 213.77 132.449C214.72 132.719 215.51 133.029 216.34 133.539C217 133.949 217.76 134.179 218.41 134.559L221.2 136.199C222.13 136.749 223.09 137.229 224.03 137.799L226.86 139.509L230.3 141.559C231.09 142.039 231.86 142.409 232.67 142.829L234.42 143.729C235.26 144.159 236.23 144.279 237.05 144.739C240.31 146.559 239.3 145.349 242.43 146.589C244.53 147.419 246.17 145.119 247.3 143.669C247.84 142.979 248.3 142.399 248.51 141.509C248.72 140.629 249.07 139.819 249.43 138.949C250.26 136.989 250.34 131.679 250.12 129.799L249.95 128.239C249.75 126.399 249.48 124.769 248.9 123.019C248.18 120.859 247.75 118.659 246.63 116.629L244.73 113.199C244.55 112.869 244.29 112.519 244.14 112.199C243.74 111.279 243.37 110.339 242.66 109.639L241.04 108.039L239.33 106.259C238.79 105.699 238.21 105.229 237.56 104.789L235.12 103.089C233.33 101.839 232.59 102.109 230.88 101.169C229.95 100.659 228.94 100.589 227.91 100.479C226.95 100.379 226.06 100.239 225.07 100.269C222.62 100.329 221.36 99.8785 219.61 97.9485C219.08 97.3685 218.89 96.4385 218.31 95.9185C217.54 95.2285 216.75 94.6686 216.04 93.8586C215.17 92.8786 214.39 91.4786 214.39 90.1086C214.39 88.7186 215.22 87.5386 215.89 86.4086C216.13 86.0086 216.57 85.7386 216.84 85.3286C217.85 83.8186 216.71 82.4286 216.51 80.3286C216.41 79.1886 216.09 78.1785 215.87 77.0585C215.72 76.2785 215.87 75.3586 215.8 74.5486L215.63 72.6685C215.52 71.4885 215.37 70.3786 215.41 69.1786C215.42 68.7886 215.32 68.3486 215.31 67.9686L215.23 62.8986C215.22 62.2486 215.19 61.6686 215.23 61.0186L215.37 58.8286C215.43 57.9386 215.38 56.9885 215.48 56.0985L215.73 53.9285L215.83 52.6986C215.9 51.8286 216.36 51.0786 216.82 50.3586C217.46 49.3686 218.01 48.2886 219.05 47.6286C220.04 46.9886 221.29 46.5885 222.47 46.5885C223.1 46.5885 223.74 46.8585 224.31 47.0085C225.23 47.2485 225.86 47.7885 226.52 48.4385C227.22 49.1185 227.72 49.7885 227.99 50.7585C229.09 54.5285 227.82 54.3586 227.61 58.6086L227.51 60.7585C227.47 61.7685 227.44 62.7985 227.54 63.7785C227.62 64.5985 227.65 65.3985 227.54 66.1985C227.43 66.9885 227.54 67.7286 227.57 68.5386L227.64 70.4086L227.78 71.8686L227.91 73.2286C228.1 75.1786 227.7 76.1686 228.88 76.6586C229.14 76.6186 229.64 76.3586 229.82 76.1486L230.77 75.0386C231.12 74.6286 231.5 74.2685 231.91 73.8885L233.71 72.2085C234.62 71.3585 235.64 70.6686 236.42 69.6886L237.84 67.8986C238.22 67.4086 238.63 66.9985 239.02 66.5185L240.62 64.4986C240.84 64.2186 241.13 63.9085 241.32 63.6185L243.23 60.6786L244.08 58.4486C244.98 56.0886 246.33 54.1986 246.79 50.9486L247.15 48.4185L247.22 45.3385C247.23 44.7485 248.07 43.1685 248.45 42.5685C249.36 41.1285 251.51 39.4786 253.33 39.5786C256.78 39.7786 258.81 41.9386 259.75 45.0786C259.99 45.8986 259.9 46.6685 259.8 47.4785C259.52 49.7785 259.7 49.7585 259.17 52.2085C259.01 52.9485 258.86 53.7385 258.77 54.4785C258.6 55.9285 258.13 57.1485 257.67 58.5285L256.63 61.6385C256.42 62.2785 255.84 62.7986 255.64 63.4486C255.34 64.4286 254.87 65.1885 254.35 66.0585L253.09 68.1685L251.93 69.9585C251.43 70.7385 250.83 71.4585 250.29 72.1985L248.35 74.8385C247.71 75.7085 246.77 76.3686 246.08 77.2286C245.35 78.1286 243.82 79.8986 242.98 80.5686C242.49 80.9586 242.09 81.3585 241.64 81.7785L239.04 84.1586C237.87 85.2286 236.21 86.5285 234.83 87.3385C234.49 87.5385 233.99 87.9486 234.02 88.3686C234.1 89.4786 235.98 89.1785 238.19 90.3785L241.4 92.1385C242.45 92.7085 247.29 96.4985 248.02 97.3085L250.17 99.6985L251.2 100.829C251.7 101.379 252.05 102.139 252.52 102.719C253.56 103.989 254.89 105.889 255.7 107.319L256.47 108.689C257.18 109.959 257.9 111.269 258.39 112.629C258.84 113.889 259.2 115.019 259.8 116.199C260.33 117.229 260.33 118.509 260.7 119.609L261.31 121.419C262.12 123.819 262.14 126.359 262.38 128.889L262.52 130.349C262.68 131.939 262.69 133.549 262.5 135.119" fill="#90BEFB"/>
<path d="M219.86 9.80921C219.2 10.8292 218.56 11.9092 217.96 12.9692L216.61 15.3692L214.97 18.3192L214.02 20.7192C213.47 22.0992 212.94 23.3292 212.53 24.7592C212.01 26.5592 211.39 28.2692 211.08 30.1392C210.73 32.2292 210.2 34.1992 210.06 36.3192C209.96 37.6692 209.66 39.2092 209.53 41.0092L209.42 42.6292L209.28 44.7592L209.15 46.7792L209.08 49.8692L208.95 52.1592C208.81 54.5992 208.5 55.2292 208.39 57.6292C208.37 57.9992 208.33 58.4592 208.27 58.8292L207.77 62.0692C207.59 63.2492 207.51 64.4192 207.24 65.5592L206.66 68.0492L205.65 74.0192C205.22 76.5892 204.48 78.9792 203.51 81.3992C203.32 81.8892 203.18 82.4592 203.08 82.9792C202.86 84.1792 202.28 85.2192 201.93 86.3792C201.53 87.7292 201.43 89.1092 200.85 90.4192C200.57 91.0492 200.37 91.7492 200.19 92.4392L198.7 98.0192C198.44 98.9892 198.18 100.029 198.07 101.009C197.92 102.459 197.55 103.679 197.18 105.099C196.84 106.389 196.91 107.799 196.47 109.129C196.3 109.639 196.31 110.429 196.72 110.749C197.27 111.179 197.79 110.749 198.24 110.469C200.23 109.269 203.84 107.369 206.09 108.559L207.88 109.509C208.75 109.969 209.1 110.429 209.6 111.219C210.51 112.659 211.37 114.229 210.87 116.119C210.56 117.289 209.88 118.549 208.99 119.339C207.82 120.369 206.41 121.069 205 121.659L201.97 122.939C200.69 123.479 199.26 123.569 197.89 123.829C196.88 124.029 195.85 124.229 194.87 124.079L193.22 123.839C192.17 123.689 191.16 123.529 190.26 123.039C189.27 121.649 188.3 120.369 187.2 119.099C186.31 118.079 185.79 116.959 185.6 115.589C185.35 113.829 185.32 112.019 185.53 110.209L185.84 107.559L186.07 106.079L186.78 102.329L187.17 100.449L189.56 90.1592L190.72 84.6092L191.37 80.8592C191.67 79.1492 191.88 77.4892 192.05 75.7792L192.32 72.8192C192.36 72.3492 192.45 72.0792 192.63 71.6692C193.2 70.4192 193.42 69.0492 193.64 67.6992L194.38 63.0392L194.65 61.3192C194.77 60.5492 194.81 59.8192 194.91 59.0492L195.36 55.6592C195.41 55.2392 195.44 54.7392 195.48 54.3092L195.76 50.5792L195.9 48.6992L196.03 46.9592L196.16 45.2192L196.31 42.9492L196.43 41.0592C196.48 40.3092 196.49 39.5392 196.63 38.7692C196.88 37.2892 197.04 35.8692 197.22 34.3892L197.85 29.1192C198.16 26.5192 200.11 19.9592 201.24 17.6392C201.66 16.7692 202.05 15.9492 202.39 15.0492C202.72 14.1892 203.25 13.4892 203.6 12.6392L204.46 10.5392L206.06 7.69921C206.57 6.79921 207.16 6.04921 207.66 5.12921C208.42 3.73921 209.63 2.64921 210.73 1.52921C212.9 -0.68079 216.68 -0.280789 218.62 1.48921C219.22 2.02921 219.56 2.87921 220.11 3.45921C220.82 4.19921 220.99 5.08921 221.05 6.03921C221.14 7.52921 220.6 8.62921 219.83 9.82921" fill="#90BEFB"/>
<path d="M312.22 41.9786C312.17 42.5786 311.58 43.3986 311.13 43.7486C309.34 45.1686 306.58 45.0486 304.47 44.6386L302.59 44.2686C301.71 44.0986 300.68 44.3786 299.83 44.1486C298.21 43.7186 297.52 43.7086 295.98 43.0786C294.28 42.3786 292.49 42.1886 290.68 41.8086L287.49 41.1286L284.85 40.6586C283.22 40.3786 281.13 39.7186 280.31 41.6686C279.51 43.5686 278.5 46.7986 278.38 48.8386C278.24 51.0386 278.26 52.8786 278.69 55.0086L279.53 59.1386C279.67 59.8086 280.13 60.4586 280.36 61.0986L281.63 64.5386C281.79 64.9786 282.31 65.5386 282.42 65.9486C282.77 67.1886 283.51 67.7586 284.45 68.4086C285.41 69.0686 286.25 69.6186 287.43 69.8786C288.41 70.0986 289.36 70.2486 290.37 70.3086C292.39 70.4186 294 70.7686 296.04 71.1786C296.59 71.2886 297.06 71.7886 297.47 72.1486L299.21 73.6486C299.48 73.8886 299.77 74.0886 300.12 74.2686L300.56 75.7586L302.23 80.9386C302.88 82.9586 302.45 82.9886 302.65 84.9486C302.95 87.7086 303.43 90.3386 304.08 93.0286C304.31 93.9886 304.33 94.8986 304.39 95.8586L304.49 97.4786L304.69 99.3886C304.9 101.369 304.67 104.519 304.27 106.539C304.01 107.839 303.45 109.109 302.76 110.249C301.99 111.499 300.93 112.489 299.87 113.529C299.05 114.339 297.94 114.649 296.87 115.099C292.88 116.739 288.69 115.569 285.29 113.189L282.53 111.259C281.86 110.789 281.31 110.259 280.7 109.719L279.7 108.839C277.48 106.879 275.81 104.349 274.41 101.699C273.59 100.149 273.48 98.3486 272.94 96.6986C272.33 94.8286 272.78 94.7686 272.16 93.1886C271.18 90.6786 268.09 91.3086 266.11 89.3186C265.37 88.5786 264.26 87.2086 264.24 86.1286C264.19 83.0386 264.08 83.0686 265.89 80.9386C268.43 77.9286 273.56 78.2786 276.34 80.7086C277.64 81.1186 278.62 81.9086 279.58 82.8286C279.9 83.1386 280.35 83.4386 280.64 83.7886C282.8 86.3786 284.14 88.9686 284.74 92.3186L285.1 94.3486C285.42 96.1586 285.97 96.9586 287.1 98.2386L288.67 100.039C289.35 100.819 290.08 101.609 290.99 102.149C291.43 102.409 292.04 101.849 292 101.409L291.91 100.199L291.78 98.4386L291.55 96.6786C291.3 94.8086 291.33 93.0386 291 91.1886C290.8 90.0686 290.63 88.9486 290.59 87.8086L290.48 84.4186C290.46 83.8186 290.04 82.9386 289.42 82.8186L285.51 82.0286L283.45 81.6786C282.43 81.5086 281.5 81.1286 280.62 80.6086C279.03 79.6886 277.03 78.4486 275.68 77.2186L274.56 76.2086C273.63 75.3686 272.99 74.2986 272.25 73.2886C271.49 72.2586 270.95 71.1786 270.36 70.0786C269.78 69.0086 269.35 67.9586 268.87 66.8386C268.24 65.3886 267.51 64.0386 267.3 62.4086C267.09 60.7786 266.69 59.2286 266.37 57.6086C266.24 56.9286 265.9 54.5086 265.9 53.9286V46.6986C265.9 46.3186 265.95 45.7386 266.03 45.3686L267.04 41.0386C267.27 40.0186 267.55 39.0186 267.97 38.0586C268.47 36.9186 268.77 35.8386 269.17 34.6486C269.58 33.3986 270.32 32.0786 271.17 31.0786C271.84 30.2986 272.93 29.9586 273.7 29.3086C274.51 28.6386 275.45 28.4986 276.43 28.2586C279.25 27.5586 282.34 27.0086 285.2 27.6186L287.21 28.0486L292.11 28.9286C293.57 29.1886 294.88 29.8986 296.35 30.1386C297.36 30.2986 298.39 30.3386 299.34 30.6686L303.91 32.2686L306.01 33.2386C306.76 33.5886 307.55 33.7886 308.22 34.2486C310.23 35.6486 309.63 34.9986 310.95 37.4286C311.71 38.8086 312.36 40.3386 312.24 41.9986" fill="#90BEFB"/>
<path d="M385.01 40.6601C383.15 41.4701 381.18 41.4101 379.21 41.0101L377.54 40.6701C376.55 40.4601 375.42 40.7901 374.47 40.5101C374.08 40.3901 373.73 40.2501 373.32 40.2001C372.05 40.0401 370.96 39.4801 369.75 39.0901C368.01 38.5301 366.2 38.3501 364.42 37.9701L361.36 37.3201L358.26 36.7801C356.57 36.4901 355.52 36.7801 354.93 38.3501C353.53 42.0901 352.74 45.1201 353.11 49.1601C353.19 50.0501 354.16 55.2001 354.41 55.7901L355.39 58.1101C355.99 59.5301 356.39 60.9201 357.16 62.2601C357.52 62.9001 357.68 63.7401 358.34 64.1401C359.12 64.6201 359.8 65.2301 360.63 65.6401C361.73 66.1901 363.07 66.5101 364.31 66.6001L366.34 66.7501L370.24 67.4001C371.06 67.5401 371.66 67.9501 372.25 68.4801L374.25 70.2601L374.94 70.6601C375.04 71.0801 375.14 71.5701 375.29 72.0001L377.04 77.3701C377.29 78.1201 377.4 78.8401 377.35 79.6301C377.27 80.9101 377.57 82.1201 377.71 83.3901C378.04 86.5201 378.87 88.5501 379.06 90.8901L379.19 92.5101L379.33 94.2601C379.36 94.6401 379.45 95.1001 379.46 95.4701C379.54 98.2601 379.6 101.22 378.79 103.88C378.56 104.64 378.2 105.33 377.86 106.06C377.26 107.35 375.41 109.3 374.32 110.13C372.87 111.24 371.04 111.67 369.32 112.14C368.27 112.23 367.38 112.23 366.26 112.13C363.85 111.78 361.8 110.64 359.84 109.36L358.62 108.56L356.37 106.91C355.3 106.13 354.44 105.1 353.53 104.14C352.39 102.93 350.49 100.29 349.57 98.8201C349.07 98.0101 348.76 97.0901 348.51 96.1301L347.38 91.6501C347.21 90.9801 347.28 90.1301 346.97 89.5101C346.32 88.2101 345.08 87.5601 343.76 87.2201C342.33 86.8601 341.23 86.0701 340.32 85.0301C339.33 83.9001 338.94 82.7201 338.94 81.2501C338.94 79.7801 339.34 78.7601 340.26 77.6801C341.74 75.9601 343.82 74.8801 346.15 75.1201C347.74 75.2801 349.3 75.5801 350.57 76.6401C351.08 77.0701 351.83 77.2401 352.41 77.6101C355.09 79.3301 357.03 81.7901 358.34 84.6801C359.02 86.1901 359.3 87.7401 359.71 89.3701C359.84 91.1001 360.32 92.8001 361.48 94.1301L362.93 95.8001C363.7 96.6801 364.52 97.4701 365.39 98.2801C365.56 98.4401 366.01 98.5501 366.21 98.5001C367.02 98.2601 366.7 96.9201 366.66 96.2601C366.61 95.5701 366.57 94.9201 366.48 94.2501C366.28 92.8801 366.25 91.6001 366.16 90.2201C366.09 89.1501 365.8 88.0701 365.68 87.0001L365.32 83.7501L365.24 80.7101C365.22 80.2301 364.81 79.3001 364.28 79.1701C362.86 78.8201 361.49 78.5701 360.05 78.3101L358.22 77.9901C355.35 77.4901 350.49 73.9701 348.73 71.7901L347.76 70.5901C346.8 69.4101 345.94 67.9101 345.24 66.5401C344.84 65.7701 344.39 65.0401 344.08 64.2301C343.87 63.6801 343.7 63.1101 343.42 62.5901C342.87 61.5601 342.38 60.5701 342.19 59.4001L341.75 56.7401C341.35 54.2601 340.75 51.9301 340.65 49.4201C340.59 47.9101 340.58 46.4501 340.63 44.9201C340.64 44.5501 340.75 44.0901 340.74 43.7101C340.7 42.5601 340.84 41.5301 341.09 40.4301L342.08 36.1701L343.46 32.5401C343.93 31.3101 344.12 30.1401 344.86 29.0501C345.18 28.5701 345.4 27.7601 345.88 27.4201L348.41 25.6401C349.31 25.0101 350.23 24.8401 351.28 24.5701C354.15 23.8301 357.12 23.3701 360.05 23.9801L362.06 24.4001L367.06 25.3101C368.51 25.5701 369.83 26.3501 371.31 26.4901C373.03 26.6601 374.5 27.2001 376.12 27.7401L378.55 28.5501L382.3 30.2001C383 30.5101 383.76 31.1201 384.41 31.5601C385.96 33.8201 388.79 39.0201 385.04 40.6401" fill="#90BEFB"/>
<path d="M335.26 94.9395C334.99 96.3395 334.76 97.6195 334.29 98.9695C333.54 101.13 333.09 103.36 332.79 105.63C332.63 106.88 332.49 108.15 331.77 109.21C330.89 110.5 329.69 111.59 328.25 112.24C327 112.8 325.37 112.78 324.17 112.1C322.02 110.88 319.46 108.23 319.85 105.55L320.09 103.92C320.27 102.66 320.35 101.41 320.63 100.19L321.31 97.2095C321.71 95.4695 322.03 93.7995 322.14 92.0295L322.27 89.8995C322.33 88.9295 322.39 87.8795 322.27 86.9295C321.82 83.2595 319.44 80.0295 318.62 77.0595L317.98 74.7195C317.34 72.3895 316.77 70.1195 316.41 67.7095L316.05 65.2895L315.93 63.9395L315.84 60.4795C315.82 59.7195 315.82 59.0495 315.84 58.2895L315.94 53.6495L316.03 51.5995L316.14 49.8595L316.25 48.3695L316.54 44.2395L316.65 40.5595C316.69 39.0695 316.75 37.5995 316.65 36.1195C316.57 34.8695 316.54 33.5895 316.64 32.3995C316.74 31.2895 317.42 30.6495 318.07 29.9095C318.77 29.0995 319.47 28.4595 320.47 27.9995C321.71 27.4395 323.06 27.0695 324.37 27.6295C325.67 28.1795 326.84 28.9195 327.76 30.0295C328.56 30.9995 329.19 32.3595 329.14 33.6295C329.03 36.1795 329.31 35.8995 329.32 37.1495L329.37 43.1895C329.37 43.8295 329.55 44.5395 329.47 45.1995C329.34 46.2195 329.31 47.1695 329.42 48.1895C329.74 51.2295 328.76 55.1195 328.56 58.5895L328.45 60.6095C328.4 61.4995 328.38 62.4095 328.45 63.2895L328.59 65.3095C328.7 66.8495 328.85 68.3095 328.81 69.8595C328.77 71.0895 328.81 72.2795 329.08 73.4895C329.58 75.7495 330.28 77.8995 331.27 79.9795L334.05 85.7995C334.34 86.4095 334.68 86.9995 334.91 87.6295C335.26 88.5495 335.26 89.6195 335.48 90.5495C335.84 92.0895 335.61 93.4595 335.32 94.9595" fill="#90BEFB"/>
<path d="M333.72 11.3895C333.39 13.3495 332.46 15.1295 330.91 16.3695C330.15 16.9795 329.42 17.5595 328.5 17.8395C326.32 18.4895 325.38 19.1795 323.14 18.8695C321.24 18.6095 319.87 18.0995 318.17 17.2895C317.5 16.9695 316.97 16.4295 316.44 15.9495C315.89 15.4595 315.48 14.8995 315.19 14.2195C314.63 12.9395 313.46 11.0095 313.93 9.69953C314.39 8.42953 315.12 7.18953 316.06 6.20953C316.33 5.93953 316.89 5.69953 317.23 5.51953C318.63 4.79953 319.54 4.03953 320.72 3.06953C321.24 2.62953 322.12 2.45953 322.75 2.16953C323.52 1.81953 324.2 1.56953 325.03 1.26953L327.99 2.22953C328.87 2.30953 329.63 2.71953 330.3 3.27953C330.84 3.72953 331.42 4.12953 331.91 4.61953C333.76 6.46953 334.16 8.88953 333.73 11.3895" fill="#90BEFB"/>
</g>
</g>
<defs>
<clipPath id="clip0_2561_14256">
<rect width="386.87" height="159.14" fill="white"/>
</clipPath>
</defs>
</svg>
