<svg width="881" height="364" viewBox="0 0 881 364" fill="none" xmlns="http://www.w3.org/2000/svg">
<g clip-path="url(#clip0_2561_10297)">
<mask id="mask0_2561_10297" style="mask-type:luminance" maskUnits="userSpaceOnUse" x="0" y="0" width="881" height="364">
<path d="M880.7 0H0V363.81H880.7V0Z" fill="white"/>
</mask>
<g mask="url(#mask0_2561_10297)">
<path d="M549.85 279.72C545.15 286.51 538.78 291.65 532.35 297.09C531.18 298.09 529.96 298.83 528.66 298.06L530.61 261.2L531.32 247.09L531.8 237.99C544.74 237.26 553.97 250.16 554.11 262.26C554.18 268.51 553.46 274.48 549.85 279.73M187.41 41.3004L186.37 57.1604L185.25 72.3503C184.82 77.9703 184.32 83.2504 181.71 88.3304L178.55 88.7703C178.65 89.4803 179.04 91.1804 178.63 91.6204C178.09 92.1904 176.1 92.3904 175.38 92.7304C174.29 93.2504 173.19 93.8203 172.29 93.9203C171.02 94.0703 169.94 93.1603 168.96 92.1303L165.52 92.9203C159.07 88.9003 156.8 85.9103 155.03 78.9903L150.64 61.7304L147.69 49.1203C147.43 48.0103 148.67 45.8503 149.07 44.7603L152.92 34.3804C154.71 29.5603 156.17 24.2203 159.06 19.9103C159.7 18.9703 161.22 17.5503 162.11 16.6803C163.57 15.2303 166.2 13.9003 168.09 13.3203C178.5 10.1703 187.46 19.9303 187.75 27.6203C187.92 32.2403 187.72 36.7604 187.42 41.3204M858.14 200.59L854.34 195.56L851.44 191.99L844.42 183.42L824.16 158.4L841.82 146.82L845.02 144.73L871.3 127.49C873.29 126.19 874.13 124.05 873.28 122.56C872.23 120.72 869.88 119.18 867.81 120.49L857.32 127.11L854.44 129.03L839.19 138.99C832.31 143.47 826.94 147.42 819.04 152.11L818.93 105.97L811.3 106.29V156.82L795.08 162.88L787.87 165.55L777.08 169.55L732.32 186.31L650.72 216.55L619.84 228.06L606.91 232.89L563.07 249.26C562.16 249.6 560.04 250.84 559.49 249.52C555.92 240.82 549.32 233.85 540.13 231.13C534.95 229.6 529.11 230.35 523.96 230.37C524.16 232.79 524.12 234.6 524 236.82L523.58 244.21L522.86 256.85L522.47 268.5L521.99 278.56L521.62 286.15C521.49 288.71 521.41 291.14 521.07 293.61C520.82 295.42 521.85 297.53 520.04 299.04L491.35 280.41L488.12 278.33L468.12 265.22L465.54 263.61L364.52 198.05L297.9 154.72L264.13 132.74L245.03 120.37L210.97 98.1604L192.4 86.1804C191.74 85.7504 191.61 83.8804 191.71 83.0804C193.17 71.4204 194.37 60.1104 194.85 48.4104L195.28 37.9504L195.49 29.2803L195.24 22.5603C194.88 21.9103 194.21 20.8203 193.85 19.9303C189.76 9.89035 179.46 3.51035 168.48 5.30035C160.79 6.56035 153.5 11.4103 150.66 18.6903L141.02 43.4304C139.33 44.2504 137.07 44.5103 135.28 45.0103L121.49 48.7504L73.7898 61.2704C74.4898 51.0904 75.7198 41.7303 77.4398 31.9703L69.3098 30.8403L68.4898 38.2004L67.5398 44.1104L66.9698 50.2904L63.6598 75.8204L60.2698 102.39C60.2298 102.75 59.5798 103.64 59.3198 103.47C59.0498 103.31 58.2998 102.66 58.1898 102.23L51.7398 75.9004L47.9698 60.6604L46.7598 55.1504L45.4798 50.1703C44.8698 47.7903 43.3998 46.0103 40.8998 46.1903C39.1498 46.3303 37.4498 48.1504 37.0598 50.4004L33.6198 70.2604L30.5998 86.5104L27.2798 103.9C27.2098 104.27 26.3198 105.06 26.1398 104.84C25.9698 104.63 25.4198 103.96 25.3598 103.68L21.8198 82.8503L21.1698 79.1904L19.6398 70.4404L18.1398 62.0204L17.2998 56.5204C16.3198 50.1704 14.5998 44.0204 14.0998 37.6604C14.0198 36.7604 14.0198 36.2003 13.7798 35.3703L12.3698 30.3403L5.34977 31.7303C4.63977 32.3103 5.33977 34.2103 5.54977 35.3603L8.32977 51.2603L11.9498 71.6104L15.3598 90.9704L22.3398 130.94L30.2098 130.86L38.4298 87.0203L41.0098 72.5104C41.0498 72.2604 41.7098 71.7103 41.9198 71.6703C42.1298 71.6303 42.7598 72.2304 42.9398 72.9104L52.8398 112.79L56.6898 128.79C57.2498 131.13 58.6398 132.87 60.8398 132.72C63.2698 132.57 64.3998 131.01 64.7198 128.49L67.1498 109.4L70.9098 80.7904L72.2498 69.7904L89.8598 65.1204L140.16 51.8404C141.21 54.4904 141.53 56.9504 142.14 59.4304L147.99 83.5303C148.96 87.5103 151.69 91.2603 154.2 94.4203L156.73 97.6003C161.14 99.4403 166.2 101.15 170.49 102.52C171.34 101.63 172.49 101.17 173.36 101.37L176.37 102.05C183.02 97.6204 181.28 101.76 188.54 93.0903L287.38 157.3L341.24 192.28L404.7 233.48L477.35 280.7C478.49 281.43 479.32 282.04 480.45 282.77L520.02 308.45C520.5 311.22 520.19 313.63 520.09 316.21L519.8 323.56L519.48 330.93L518.28 358.52L525.75 358.79L526.23 350.41L527.11 335.04L527.8 317.66C527.82 317.15 529.09 316.54 529.35 316.83C529.54 317.04 529.86 317.43 530.16 317.85L552.06 348.88L558.59 344.52L550.89 333.26L548.73 330.24L532.13 306.87C543.26 299.09 557.91 287.28 560.92 274.22C561.81 268.74 562.34 264.01 561.65 258.15L565.82 256.62L577.64 252.15L614.45 238.45L626.34 234.02L634.8 230.9L731 194.84L737.39 192.69L745.62 189.7L753.6 186.69L762.38 183.38L772.72 179.56L779.99 176.89L783.98 175.64L795.69 170.99L805.3 167.41L810.93 165.32C811.65 167.91 811.14 170.04 811.19 172.39L811.37 180.42V219.7L818.97 219.68L818.99 166.83C818.99 166.49 820.44 166.41 820.75 166.82L869.49 227.25C871.93 225.66 873.53 224.32 875.75 222.43L858.2 200.61L858.14 200.59Z" fill="#90BEFB"/>
<path d="M73.8598 140.91L73.2498 142.39L71.1098 139.11C70.7498 138.54 71.0298 136.99 71.2398 136.52C71.7198 140.4 74.2798 139.93 73.8598 140.9" fill="#90BEFB"/>
</g>
<mask id="mask1_2561_10297" style="mask-type:luminance" maskUnits="userSpaceOnUse" x="0" y="0" width="881" height="364">
<path d="M880.7 0H0V363.81H880.7V0Z" fill="white"/>
</mask>
<g mask="url(#mask1_2561_10297)">
<path d="M837.25 182.63C835.52 180.48 835.86 177.34 838.01 175.6C840.16 173.87 843.31 174.21 845.04 176.36C846.78 178.51 846.44 181.66 844.28 183.39C843.36 184.14 842.25 184.5 841.15 184.5C839.69 184.5 838.24 183.86 837.25 182.63Z" fill="black"/>
<path d="M840.83 147.47C839.32 145.16 839.96 142.06 842.27 140.55C844.58 139.03 847.68 139.68 849.2 141.99C850.71 144.3 850.07 147.39 847.76 148.91C846.91 149.46 845.96 149.73 845.02 149.73C843.39 149.73 841.79 148.93 840.83 147.47Z" fill="black"/>
<path d="M867.109 130.23C865.599 127.93 866.239 124.83 868.549 123.31C870.859 121.8 873.959 122.44 875.479 124.75C876.989 127.06 876.349 130.16 874.039 131.67C873.189 132.23 872.239 132.49 871.299 132.49C869.669 132.49 868.069 131.7 867.109 130.23Z" fill="black"/>
<path d="M868.92 125.019C867.56 122.609 868.41 119.559 870.82 118.209C873.22 116.849 876.27 117.689 877.63 120.099C878.99 122.499 878.14 125.549 875.74 126.909C874.96 127.349 874.12 127.559 873.28 127.559C871.54 127.559 869.84 126.649 868.92 125.019Z" fill="black"/>
<path d="M863.579 123.15C862.109 120.82 862.809 117.73 865.149 116.26C867.479 114.79 870.569 115.49 872.039 117.82C873.509 120.16 872.809 123.25 870.469 124.72C869.649 125.24 868.729 125.49 867.819 125.49C866.149 125.49 864.529 124.66 863.579 123.15Z" fill="black"/>
<path d="M853.09 129.77C851.62 127.44 852.32 124.35 854.65 122.88C856.99 121.4 860.08 122.1 861.55 124.44C863.02 126.77 862.33 129.86 859.99 131.33C859.16 131.86 858.24 132.11 857.33 132.11C855.67 132.11 854.04 131.28 853.09 129.77Z" fill="black"/>
<path d="M850.28 131.8C848.75 129.5 849.37 126.39 851.67 124.86C853.97 123.33 857.069 123.96 858.599 126.25C860.129 128.56 859.51 131.66 857.21 133.19C856.36 133.75 855.4 134.03 854.45 134.03C852.83 134.03 851.24 133.24 850.28 131.8Z" fill="black"/>
<path d="M835 141.719C833.49 139.399 834.14 136.309 836.45 134.799C838.76 133.289 841.87 133.939 843.38 136.249C844.88 138.559 844.23 141.659 841.92 143.169C841.08 143.719 840.13 143.989 839.19 143.989C837.56 143.989 835.96 143.189 835 141.719Z" fill="black"/>
<path d="M814.739 154.66C813.329 152.28 814.109 149.21 816.479 147.8C818.859 146.39 821.929 147.17 823.339 149.55C824.749 151.92 823.959 154.99 821.589 156.4C820.789 156.88 819.909 157.1 819.039 157.1C817.329 157.1 815.669 156.23 814.739 154.66Z" fill="black"/>
<path d="M813.979 129.039C813.979 126.279 816.209 124.039 818.969 124.029C821.729 124.029 823.969 126.259 823.979 129.019C823.979 131.779 821.75 134.019 818.99 134.029C816.23 134.029 814 131.799 813.99 129.039H813.979Z" fill="black"/>
<path d="M806.3 106.479C806.19 103.719 808.33 101.399 811.09 101.279C813.85 101.169 816.18 103.309 816.29 106.069C816.41 108.829 814.27 111.159 811.51 111.269C811.44 111.269 811.37 111.269 811.3 111.269C808.63 111.269 806.42 109.159 806.3 106.469V106.479Z" fill="black"/>
<path d="M806.31 131.539C806.31 128.779 808.54 126.539 811.3 126.539C814.07 126.539 816.3 128.769 816.31 131.539C816.31 134.299 814.07 136.539 811.31 136.539C808.54 136.539 806.31 134.299 806.31 131.539Z" fill="black"/>
<path d="M631.42 223.749C630.46 221.159 631.78 218.279 634.37 217.319C636.95 216.349 639.83 217.669 640.79 220.259C641.76 222.849 640.44 225.729 637.85 226.689C637.28 226.899 636.69 227.009 636.11 227.009C634.08 227.009 632.17 225.759 631.42 223.749ZM660.62 212.879C659.66 210.289 660.98 207.409 663.56 206.449C666.15 205.489 669.03 206.799 669.99 209.389C670.96 211.979 669.64 214.859 667.05 215.819C666.48 216.039 665.89 216.139 665.31 216.139C663.28 216.139 661.37 214.889 660.62 212.879ZM689.82 202.009C688.86 199.429 690.18 196.549 692.77 195.579C695.35 194.619 698.23 195.939 699.19 198.529C700.16 201.109 698.84 203.989 696.25 204.959C695.68 205.169 695.09 205.269 694.51 205.269C692.48 205.269 690.57 204.029 689.82 202.009ZM719.02 191.149C718.06 188.559 719.38 185.679 721.96 184.719C724.55 183.749 727.43 185.069 728.4 187.659C729.36 190.249 728.04 193.129 725.45 194.089C724.88 194.299 724.29 194.399 723.71 194.399C721.68 194.399 719.77 193.159 719.02 191.149ZM748.22 180.279C747.26 177.689 748.58 174.819 751.17 173.849C753.75 172.889 756.63 174.199 757.59 176.789C758.56 179.379 757.24 182.259 754.65 183.219C754.08 183.439 753.49 183.539 752.91 183.539C750.88 183.539 748.97 182.289 748.22 180.279ZM777.42 169.409C776.46 166.829 777.78 163.949 780.37 162.979C782.96 162.019 785.83 163.339 786.8 165.919C787.76 168.509 786.44 171.389 783.85 172.349C783.28 172.569 782.69 172.669 782.11 172.669C780.08 172.669 778.17 171.429 777.42 169.409Z" fill="black"/>
<path d="M580.3 242.809C579.33 240.219 580.65 237.339 583.24 236.369C585.82 235.409 588.7 236.719 589.67 239.309C590.63 241.889 589.32 244.769 586.73 245.739C586.16 245.959 585.57 246.059 584.99 246.059C582.96 246.059 581.05 244.819 580.3 242.809Z" fill="black"/>
<path d="M554.87 251.429C553.8 248.879 555.01 245.959 557.55 244.889C560.1 243.829 563.03 245.029 564.09 247.579C565.16 250.129 563.96 253.049 561.41 254.119C560.78 254.379 560.12 254.509 559.48 254.509C557.53 254.509 555.67 253.349 554.87 251.429Z" fill="black"/>
<path d="M538.7 235.911C536.05 235.131 534.54 232.351 535.32 229.701C536.11 227.051 538.89 225.541 541.54 226.321C544.18 227.111 545.7 229.891 544.91 232.541C544.27 234.711 542.28 236.121 540.12 236.121C539.65 236.121 539.17 236.051 538.7 235.911Z" fill="black"/>
<path d="M518.939 230.379C518.939 227.619 521.159 225.369 523.919 225.359C526.689 225.359 528.929 227.579 528.939 230.339C528.959 233.099 526.729 235.349 523.969 235.359H523.949C521.189 235.359 518.959 233.139 518.939 230.379Z" fill="black"/>
<path d="M523.71 241.81C520.96 241.66 518.84 239.3 519 236.54C519.15 233.79 521.5 231.67 524.26 231.82C527.02 231.97 529.13 234.33 528.98 237.09C528.83 239.75 526.63 241.82 523.99 241.82C523.9 241.82 523.81 241.82 523.71 241.82V241.81Z" fill="black"/>
<path d="M523.29 249.19C520.53 249.04 518.42 246.68 518.58 243.92C518.73 241.16 521.09 239.05 523.85 239.21C526.61 239.37 528.72 241.73 528.56 244.48C528.42 247.14 526.21 249.2 523.58 249.2C523.48 249.2 523.39 249.2 523.29 249.2V249.19Z" fill="black"/>
<path d="M521.74 283.541C518.98 283.411 516.85 281.071 516.98 278.311C517.1 275.551 519.45 273.421 522.2 273.551C524.96 273.681 527.09 276.021 526.97 278.781C526.84 281.461 524.63 283.541 521.98 283.541H521.74Z" fill="black"/>
<path d="M521.349 291.13C518.589 291 516.469 288.65 516.599 285.89C516.739 283.13 519.089 281.01 521.839 281.14C524.599 281.28 526.729 283.62 526.589 286.38C526.459 289.06 524.249 291.14 521.609 291.14C521.519 291.14 521.439 291.13 521.349 291.13Z" fill="black"/>
<path d="M520.37 298.55C517.64 298.18 515.72 295.66 516.1 292.92C516.47 290.18 518.99 288.27 521.73 288.64C524.46 289.02 526.38 291.54 526.01 294.28C525.66 296.78 523.52 298.6 521.06 298.6C520.83 298.6 520.6 298.58 520.37 298.55Z" fill="black"/>
<path d="M516.19 302.239C514.41 300.129 514.69 296.969 516.81 295.199C518.93 293.429 522.079 293.709 523.859 295.829C525.629 297.939 525.349 301.099 523.229 302.869C522.289 303.649 521.16 304.029 520.02 304.029C518.59 304.029 517.18 303.419 516.19 302.239Z" fill="black"/>
<path d="M488.61 284.6C486.29 283.1 485.64 280 487.14 277.68C488.64 275.37 491.74 274.71 494.06 276.21C496.37 277.72 497.03 280.81 495.53 283.13C494.57 284.6 492.96 285.41 491.33 285.41C490.39 285.41 489.45 285.15 488.61 284.6Z" fill="black"/>
<path d="M463.12 268.031C460.8 266.521 460.15 263.431 461.65 261.111C463.16 258.801 466.25 258.141 468.57 259.641C470.89 261.151 471.54 264.251 470.04 266.561C469.08 268.041 467.48 268.841 465.84 268.841C464.91 268.841 463.96 268.581 463.12 268.031ZM437.63 251.461C435.32 249.961 434.66 246.861 436.16 244.541C437.67 242.231 440.77 241.571 443.08 243.081C445.4 244.581 446.05 247.681 444.55 249.991C443.59 251.471 441.99 252.271 440.35 252.271C439.42 252.271 438.47 252.011 437.63 251.461ZM412.14 234.901C409.83 233.391 409.17 230.291 410.68 227.981C412.18 225.661 415.28 225.001 417.59 226.511C419.91 228.021 420.56 231.111 419.06 233.431C418.1 234.901 416.5 235.701 414.86 235.701C413.93 235.701 412.98 235.441 412.14 234.901ZM386.65 218.331C384.34 216.821 383.68 213.721 385.19 211.411C386.69 209.101 389.79 208.441 392.1 209.941C394.42 211.451 395.08 214.541 393.57 216.861C392.61 218.331 391.01 219.141 389.37 219.141C388.44 219.141 387.49 218.871 386.65 218.331ZM361.17 201.761C358.85 200.261 358.19 197.161 359.7 194.841C361.2 192.531 364.3 191.871 366.62 193.371C368.93 194.881 369.59 197.981 368.08 200.291C367.13 201.771 365.52 202.571 363.89 202.571C362.95 202.571 362.01 202.311 361.17 201.761ZM335.68 185.191C333.36 183.691 332.71 180.591 334.21 178.271C335.72 175.961 338.81 175.301 341.13 176.811C343.44 178.311 344.1 181.411 342.59 183.721C341.64 185.201 340.03 186.001 338.4 186.001C337.46 186.001 336.52 185.741 335.68 185.191ZM310.19 168.621C307.87 167.121 307.22 164.021 308.72 161.711C310.23 159.391 313.32 158.731 315.64 160.241C317.96 161.741 318.61 164.841 317.11 167.161C316.15 168.631 314.54 169.431 312.91 169.431C311.97 169.431 311.03 169.171 310.19 168.621ZM284.7 152.061C282.39 150.551 281.73 147.451 283.23 145.141C284.74 142.821 287.84 142.171 290.15 143.671C292.46 145.171 293.12 148.271 291.62 150.591C290.66 152.061 289.06 152.861 287.42 152.861C286.49 152.861 285.54 152.601 284.7 152.061ZM259.21 135.491C256.9 133.981 256.24 130.891 257.75 128.571C259.25 126.251 262.35 125.601 264.66 127.101C266.98 128.611 267.63 131.701 266.13 134.021C265.17 135.491 263.57 136.301 261.93 136.301C261 136.301 260.05 136.031 259.21 135.491ZM233.72 118.921C231.41 117.411 230.75 114.321 232.25 112.001C233.76 109.691 236.86 109.031 239.17 110.531C241.49 112.041 242.14 115.141 240.64 117.451C239.68 118.931 238.08 119.731 236.44 119.731C235.51 119.731 234.56 119.471 233.72 118.921Z" fill="black"/>
<path d="M189.67 90.3803C187.35 88.8903 186.69 85.7903 188.18 83.4703C189.68 81.1503 192.77 80.4803 195.09 81.9803C197.41 83.4703 198.08 86.5703 196.58 88.8903C195.63 90.3703 194.02 91.1803 192.38 91.1803C191.45 91.1803 190.51 90.9203 189.67 90.3803Z" fill="black"/>
<path d="M191.09 88.0404C188.35 87.7104 186.4 85.2204 186.73 82.4804C187.06 79.7404 189.55 77.7804 192.29 78.1204C195.04 78.4504 196.99 80.9404 196.66 83.6804C196.35 86.2204 194.19 88.0804 191.7 88.0804C191.5 88.0804 191.3 88.0804 191.09 88.0404Z" fill="black"/>
<path d="M194.63 53.4003C191.87 53.2903 189.73 50.9603 189.84 48.2003C189.96 45.4403 192.29 43.3003 195.04 43.4103C197.8 43.5303 199.95 45.8603 199.83 48.6203C199.72 51.3003 197.51 53.4103 194.85 53.4103C194.78 53.4103 194.7 53.4103 194.63 53.4103V53.4003Z" fill="black"/>
<path d="M195.06 42.9394C192.3 42.8294 190.16 40.4994 190.27 37.7394C190.38 34.9794 192.71 32.8394 195.47 32.9494C198.23 33.0594 200.37 35.3894 200.26 38.1494C200.15 40.8394 197.94 42.9394 195.27 42.9394H195.06Z" fill="black"/>
<path d="M195.35 34.269C192.59 34.209 190.41 31.919 190.48 29.159C190.54 26.389 192.83 24.209 195.59 24.279C198.35 24.339 200.54 26.629 200.47 29.389C200.41 32.119 198.18 34.279 195.47 34.279C195.47 34.279 195.39 34.279 195.35 34.279V34.269Z" fill="black"/>
<path d="M190.23 22.75C190.12 19.99 192.27 17.67 195.04 17.56C197.79 17.46 200.11 19.61 200.22 22.37C200.32 25.13 198.17 27.45 195.41 27.56H195.22C192.54 27.56 190.33 25.44 190.23 22.75Z" fill="black"/>
<path d="M189.2 21.8187C188.16 19.2587 189.38 16.3387 191.94 15.2987C194.5 14.2587 197.42 15.4787 198.46 18.0387C199.5 20.5987 198.28 23.5087 195.72 24.5587C195.1 24.8087 194.46 24.9287 193.83 24.9287C191.86 24.9287 189.99 23.7587 189.2 21.8187Z" fill="black"/>
<path d="M163.53 6.09964C163.08 3.36964 164.94 0.809637 167.66 0.359637C170.39 -0.0803628 172.96 1.76964 173.4 4.49964C173.84 7.22964 171.99 9.78964 169.26 10.2296C168.99 10.2796 168.72 10.2996 168.45 10.2996C166.05 10.2996 163.93 8.55964 163.53 6.09964Z" fill="black"/>
<path d="M148.83 23.3489C146.26 22.3489 144.99 19.4489 145.99 16.8789C146.99 14.2989 149.89 13.0289 152.46 14.0289C155.04 15.0389 156.31 17.9389 155.3 20.5089C154.54 22.4789 152.65 23.6889 150.65 23.6889C150.04 23.6889 149.43 23.5789 148.83 23.3489Z" fill="black"/>
<path d="M139.189 48.0899C136.609 47.0899 135.339 44.1899 136.339 41.6199C137.349 39.0499 140.25 37.7699 142.82 38.7699C145.39 39.7799 146.67 42.6699 145.66 45.2499C144.89 47.2299 142.999 48.4399 140.999 48.4299C140.399 48.4299 139.779 48.3199 139.189 48.0899Z" fill="black"/>
<path d="M130.439 46.3494C129.709 43.6794 131.269 40.9294 133.929 40.1894C136.589 39.4594 139.339 41.0194 140.079 43.6794C140.819 46.3394 139.259 49.0894 136.599 49.8294C136.149 49.9494 135.699 50.0094 135.259 50.0094C133.069 50.0094 131.059 48.5594 130.439 46.3494Z" fill="black"/>
<path d="M116.65 50.0489C115.93 47.3889 117.5 44.6389 120.17 43.9189C122.83 43.1989 125.58 44.7689 126.3 47.4389C127.02 50.0989 125.45 52.8489 122.79 53.5689C122.35 53.6889 121.91 53.7489 121.48 53.7489C119.27 53.7489 117.26 52.2789 116.65 50.0489Z" fill="black"/>
<path d="M92.7894 56.2803C92.0894 53.6103 93.6894 50.8803 96.3594 50.1703C99.0294 49.4703 101.759 51.0703 102.459 53.7403C103.159 56.4103 101.569 59.1403 98.8994 59.8503C98.4694 59.9603 98.0394 60.0103 97.6194 60.0103C95.4094 60.0103 93.3794 58.5203 92.7894 56.2803Z" fill="black"/>
<path d="M76.5597 36.8898C73.8397 36.4198 72.0197 33.8198 72.4997 31.0998C72.9797 28.3798 75.5797 26.5698 78.2897 27.0498C81.0097 27.5298 82.8297 30.1198 82.3497 32.8398C81.9197 35.2698 79.8097 36.9698 77.4297 36.9698C77.1397 36.9698 76.8497 36.9498 76.5597 36.8898Z" fill="black"/>
<path d="M68.6102 35.8C65.8702 35.42 63.9602 32.89 64.3402 30.16C64.7202 27.42 67.2502 25.51 69.9802 25.89C72.7202 26.27 74.6302 28.79 74.2502 31.53C73.9002 34.03 71.7602 35.85 69.3002 35.85C69.0702 35.85 68.8402 35.83 68.6102 35.8Z" fill="black"/>
<path d="M65.8396 58.2987C63.0996 57.9487 61.1596 55.4487 61.5096 52.7087C61.8496 49.9687 64.3496 48.0287 67.0896 48.3687C69.8296 48.7187 71.7696 51.2187 71.4296 53.9587C71.1096 56.4887 68.9596 58.3387 66.4696 58.3287C66.2696 58.3287 66.0596 58.3287 65.8396 58.2987Z" fill="black"/>
<path d="M59.6198 107.359C56.8798 107.009 54.9498 104.499 55.2898 101.769C55.6398 99.0292 58.1498 97.0892 60.8898 97.4392C63.6298 97.7892 65.5598 100.289 65.2198 103.029C64.8898 105.549 62.7398 107.399 60.2598 107.399C60.0498 107.399 59.8398 107.379 59.6198 107.359Z" fill="black"/>
<path d="M56.7001 107.75C54.3401 106.32 53.5901 103.24 55.0301 100.88C56.4701 98.5202 59.5401 97.7802 61.9001 99.2102C64.2601 100.65 65.0101 103.72 63.5701 106.08C62.6301 107.63 60.9801 108.48 59.3001 108.48C58.4101 108.48 57.5101 108.25 56.7001 107.75Z" fill="black"/>
<path d="M55.0695 106.429C54.8295 106.179 54.5695 105.899 54.2795 105.489C53.9995 105.059 53.6295 104.559 53.3295 103.479C52.6495 100.799 54.2595 98.0788 56.9395 97.3988C59.1695 96.8288 61.4295 97.8588 62.5195 99.7688C64.1495 101.749 64.0095 104.689 62.1395 106.519C61.1695 107.469 59.9095 107.939 58.6495 107.939C57.3495 107.939 56.0495 107.429 55.0695 106.429Z" fill="black"/>
<path d="M46.8602 77.1001C46.2002 74.4201 47.8502 71.7101 50.5302 71.0601C53.2102 70.4001 55.9202 72.0401 56.5802 74.7201C57.2302 77.4001 55.5902 80.1101 52.9102 80.7701C52.5102 80.8701 52.1102 80.9101 51.7202 80.9101C49.4702 80.9101 47.4202 79.3801 46.8602 77.1001Z" fill="black"/>
<path d="M41.88 56.3192C41.24 53.6392 42.89 50.9392 45.58 50.2992C48.26 49.6492 50.96 51.3092 51.61 53.9892C52.25 56.6792 50.59 59.3792 47.91 60.0192C47.52 60.1192 47.13 60.1592 46.74 60.1592C44.48 60.1592 42.43 58.6192 41.88 56.3192Z" fill="black"/>
<path d="M40.6197 51.4294C39.9297 48.7594 41.5397 46.0294 44.2097 45.3394C46.8897 44.6494 49.6097 46.2594 50.2997 48.9294C50.9897 51.6094 49.3797 54.3394 46.7097 55.0194C46.2897 55.1294 45.8697 55.1794 45.4597 55.1794C43.2297 55.1794 41.1997 53.6894 40.6197 51.4294Z" fill="black"/>
<path d="M35.8903 46.5704C35.6903 43.8204 37.7603 41.4204 40.5203 41.2204C43.2703 41.0204 45.6703 43.0904 45.8703 45.8404C46.0703 48.5904 44.0003 50.9904 41.2503 51.1904C41.1203 51.1904 41.0003 51.2104 40.8803 51.2104C38.2803 51.2104 36.0903 49.2004 35.8903 46.5704Z" fill="black"/>
<path d="M36.1801 55.3389C33.4601 54.8589 31.6401 52.2689 32.1101 49.5489C32.5901 46.8289 35.1801 45.0089 37.9001 45.4889C40.6201 45.9689 42.4401 48.5589 41.9601 51.2789C41.5401 53.6989 39.4301 55.4089 37.0401 55.4089C36.7601 55.4089 36.4701 55.3889 36.1801 55.3389Z" fill="black"/>
<path d="M32.7396 75.1995C30.0196 74.7295 28.1996 72.1395 28.6696 69.4195C29.1396 66.6895 31.7296 64.8695 34.4496 65.3395C37.1696 65.8095 38.9896 68.3995 38.5196 71.1195C38.0996 73.5595 35.9896 75.2695 33.5996 75.2695C33.3196 75.2695 33.0296 75.2495 32.7396 75.1995Z" fill="black"/>
<path d="M29.66 91.4394C26.94 90.9294 25.15 88.3194 25.66 85.5994C26.16 82.8894 28.77 81.0994 31.49 81.5994C34.2 82.1094 35.99 84.7194 35.49 87.4294C35.04 89.8394 32.94 91.5194 30.58 91.5194C30.28 91.5194 29.97 91.4894 29.66 91.4394Z" fill="black"/>
<path d="M26.3103 108.82C23.6003 108.3 21.8203 105.68 22.3403 102.97C22.8603 100.26 25.4703 98.4804 28.1903 99.0004C30.9003 99.5204 32.6803 102.14 32.1603 104.85C31.7003 107.24 29.6103 108.91 27.2603 108.91C26.9503 108.91 26.6303 108.88 26.3103 108.82Z" fill="black"/>
<path d="M22.1695 107.92C20.4695 105.74 20.8595 102.6 23.0395 100.91C25.2195 99.2098 28.3595 99.5998 30.0595 101.78C31.7495 103.96 31.3595 107.1 29.1795 108.8C28.2695 109.51 27.1895 109.85 26.1095 109.85C24.6295 109.85 23.1495 109.19 22.1695 107.92Z" fill="black"/>
<path d="M21.6297 107.231C21.4897 107.041 21.3297 106.821 21.1397 106.491C20.9597 106.121 20.6797 105.801 20.4197 104.591C19.9197 101.881 21.7097 99.2706 24.4297 98.7706C26.7097 98.3506 28.9197 99.5606 29.8597 101.561C31.3097 103.781 30.7797 106.781 28.6097 108.351C27.7197 108.991 26.6997 109.301 25.6797 109.301C24.1297 109.301 22.5997 108.581 21.6297 107.231Z" fill="black"/>
<path d="M16.8599 83.7002C16.3999 80.9802 18.2299 78.3902 20.9499 77.9302C23.6799 77.4702 26.2599 79.3002 26.7199 82.0202C27.1899 84.7402 25.3499 87.3302 22.6299 87.7902C22.3499 87.8402 22.0699 87.8602 21.7899 87.8602C19.3899 87.8602 17.2799 86.1402 16.8599 83.7002Z" fill="black"/>
<path d="M13.1894 62.9002C12.7094 60.1802 14.5194 57.5902 17.2394 57.1002C19.9594 56.6202 22.5594 58.4402 23.0294 61.1602C23.5194 63.8802 21.6994 66.4702 18.9794 66.9502C18.6894 67.0002 18.3894 67.0302 18.0994 67.0302C15.7294 67.0302 13.6194 65.3202 13.1894 62.9002Z" fill="black"/>
<path d="M12.3294 57.2802C11.9094 54.5602 13.7794 52.0002 16.5094 51.5902C19.2394 51.1702 21.7894 53.0402 22.2094 55.7702C22.6294 58.5002 20.7494 61.0502 18.0194 61.4702C17.7694 61.5102 17.5094 61.5302 17.2594 61.5302C14.8294 61.5302 12.6994 59.7602 12.3294 57.2802Z" fill="black"/>
<path d="M9.08022 38.0589C8.87022 35.3089 10.9202 32.8989 13.6702 32.6789C16.4302 32.4689 18.8402 34.5189 19.0502 37.2689C19.2702 40.0289 17.2102 42.4389 14.4602 42.6489C14.3302 42.6489 14.1902 42.6689 14.0602 42.6689C11.4802 42.6689 9.29022 40.6789 9.08022 38.0589Z" fill="black"/>
<path d="M8.95024 36.7701C8.18024 34.1201 9.71024 31.3401 12.3602 30.5801C15.0102 29.8101 17.7902 31.3401 18.5502 33.9901C19.3202 36.6401 17.7902 39.4101 15.1402 40.1801C14.6802 40.3201 14.2102 40.3801 13.7502 40.3801C11.5802 40.3801 9.58024 38.9601 8.95024 36.7701Z" fill="black"/>
<path d="M7.51967 31.7005C6.77967 29.0405 8.32967 26.2805 10.9797 25.5405C13.6397 24.7905 16.3997 26.3405 17.1497 29.0005C17.8997 31.6605 16.3497 34.4205 13.6897 35.1605C13.2397 35.2905 12.7797 35.3505 12.3297 35.3505C10.1497 35.3505 8.13967 33.9105 7.51967 31.7005Z" fill="black"/>
<path d="M0.409892 32.7096C-0.130108 30.0096 1.62989 27.3696 4.33989 26.8396C7.04989 26.2996 9.67989 28.0596 10.2199 30.7696C10.7499 33.4796 8.98989 36.1096 6.28989 36.6496C5.95989 36.7096 5.62989 36.7396 5.30989 36.7396C2.96989 36.7396 0.879892 35.0896 0.409892 32.7096Z" fill="black"/>
<path d="M0.590223 36.2706C0.0902227 33.5606 1.89022 30.9506 4.61022 30.4506C7.33022 29.9506 9.93022 31.7506 10.4302 34.4706C10.9302 37.1806 9.13022 39.7906 6.41022 40.2906C6.11022 40.3406 5.80022 40.3706 5.50022 40.3706C3.14022 40.3706 1.03022 38.6806 0.590223 36.2706Z" fill="black"/>
<path d="M3.36977 52.1299C2.88977 49.4099 4.70977 46.8199 7.42977 46.3399C10.1498 45.8699 12.7398 47.6799 13.2198 50.4099C13.6998 53.1299 11.8798 55.7198 9.15977 56.1898C8.85977 56.2398 8.57977 56.2699 8.28977 56.2699C5.90977 56.2699 3.78977 54.5599 3.36977 52.1299Z" fill="black"/>
<path d="M12.7097 105.259C12.2297 102.539 14.0397 99.9392 16.7697 99.4692C19.4797 98.9892 22.0797 100.809 22.5497 103.519C23.0297 106.249 21.2197 108.839 18.4897 109.319C18.1997 109.369 17.9097 109.389 17.6197 109.389C15.2397 109.389 13.1297 107.679 12.7097 105.259ZM8.03969 78.6892C7.55969 75.9792 9.37969 73.3792 12.0997 72.9092C14.8197 72.4292 17.4097 74.2392 17.8897 76.9592C18.3597 79.6792 16.5497 82.2692 13.8297 82.7592C13.5297 82.8092 13.2397 82.8292 12.9597 82.8292C10.5697 82.8292 8.45969 81.1192 8.03969 78.6892Z" fill="black"/>
<path d="M25.1603 130.929C25.1403 128.159 27.3603 125.899 30.1203 125.879C32.8803 125.849 35.1403 128.069 35.1703 130.829C35.1903 133.589 32.9703 135.849 30.2103 135.879H30.1703C27.4203 135.879 25.1903 133.669 25.1603 130.929Z" fill="black"/>
<path d="M37.4596 91.95C34.7496 91.44 32.9596 88.83 33.4696 86.11C33.9796 83.4 36.5896 81.61 39.2996 82.12C42.0196 82.63 43.8096 85.24 43.2996 87.96C42.8496 90.36 40.7496 92.03 38.3896 92.03C38.0796 92.03 37.7796 92.01 37.4596 91.95Z" fill="black"/>
<path d="M40.0797 77.4503C37.3697 76.9703 35.5497 74.3703 36.0397 71.6503C36.5197 68.9403 39.1097 67.1203 41.8297 67.6003C44.5497 68.0903 46.3697 70.6803 45.8797 73.4003C45.4497 75.8203 43.3397 77.5303 40.9597 77.5303C40.6697 77.5303 40.3797 77.5003 40.0797 77.4503Z" fill="black"/>
<path d="M37.6198 75.3688C35.7798 73.3088 35.9498 70.1488 38.0098 68.3088C38.2698 68.0688 38.5198 67.8688 38.8498 67.6488C39.2598 67.4388 39.3898 67.1588 40.8698 66.7788C43.5798 66.2288 46.2198 67.9788 46.7698 70.6788C47.2098 72.8488 46.1798 74.9788 44.3598 76.0188C43.4598 76.6988 42.3998 77.0288 41.3398 77.0288C39.9698 77.0288 38.6098 76.4688 37.6198 75.3688Z" fill="black"/>
<path d="M38.2597 74.7992C36.9197 72.6392 37.4197 69.7692 39.4797 68.1992C41.6797 66.5292 44.8197 66.9492 46.4897 69.1492C46.9597 69.7892 47.4197 70.5392 47.7297 71.6692C48.4197 74.3392 46.8097 77.0692 44.1397 77.7592C43.7197 77.8692 43.2997 77.9192 42.8797 77.9192C40.8697 77.9192 39.0197 76.6992 38.2597 74.7992Z" fill="black"/>
<path d="M47.9301 114C47.2601 111.32 48.9001 108.61 51.5801 107.94C54.2601 107.28 56.9701 108.91 57.6301 111.59C58.3001 114.27 56.6701 116.98 53.9901 117.65C53.5801 117.75 53.1801 117.8 52.7801 117.8C50.5401 117.8 48.4901 116.28 47.9301 114Z" fill="black"/>
<path d="M51.7695 129.959C51.1195 127.279 52.7695 124.579 55.4595 123.929C58.1495 123.289 60.8395 124.939 61.4895 127.629C62.1295 130.309 60.4795 133.009 57.7995 133.649C57.3995 133.749 57.0095 133.789 56.6195 133.789C54.3595 133.789 52.3195 132.249 51.7695 129.959Z" fill="black"/>
<path d="M55.7904 133.071C55.6004 130.321 57.6804 127.931 60.4404 127.741C63.1904 127.551 65.5804 129.631 65.7704 132.381C65.9604 135.141 63.8804 137.531 61.1304 137.721C61.0104 137.721 60.8904 137.731 60.7804 137.731C58.1704 137.731 55.9704 135.711 55.7904 133.071Z" fill="black"/>
<path d="M64.0398 133.459C61.2998 133.109 59.3598 130.609 59.6998 127.879C60.0398 125.139 62.5398 123.189 65.2798 123.539C68.0198 123.879 69.9598 126.379 69.6198 129.119C69.2998 131.649 67.1498 133.499 64.6698 133.499C64.4598 133.499 64.2498 133.499 64.0398 133.459Z" fill="black"/>
<path d="M66.4597 114.369C63.7197 114.019 61.7797 111.519 62.1297 108.779C62.4797 106.039 64.9897 104.099 67.7197 104.449C70.4597 104.799 72.3997 107.299 72.0497 110.039C71.7297 112.569 69.5797 114.409 67.0997 114.409C66.8897 114.409 66.6797 114.409 66.4597 114.369Z" fill="black"/>
<path d="M71.5495 74.7598C68.8095 74.3998 66.8795 71.8998 67.2295 69.1598C67.5795 66.4198 70.0895 64.4898 72.8295 64.8398C75.5595 65.1898 77.4995 67.6998 77.1495 70.4398C76.8195 72.9598 74.6795 74.7998 72.1995 74.7998C71.9895 74.7998 71.7695 74.7798 71.5495 74.7598Z" fill="black"/>
<path d="M84.96 66.41C84.26 63.74 85.85 61.01 88.52 60.3C91.18 59.59 93.92 61.18 94.63 63.85C95.34 66.52 93.75 69.26 91.08 69.96C90.65 70.08 90.22 70.13 89.79 70.13C87.58 70.13 85.56 68.65 84.96 66.41Z" fill="black"/>
<path d="M110.109 59.7695C109.409 57.0995 110.999 54.3595 113.669 53.6495C116.339 52.9495 119.069 54.5395 119.779 57.2095C120.479 59.8795 118.889 62.6195 116.219 63.3195C115.789 63.4395 115.359 63.4895 114.939 63.4895C112.729 63.4895 110.699 62.0095 110.109 59.7695Z" fill="black"/>
<path d="M137.22 60.64C136.56 57.96 138.2 55.25 140.88 54.59C143.56 53.93 146.27 55.56 146.93 58.24C147.59 60.92 145.96 63.63 143.28 64.3C142.88 64.4 142.47 64.44 142.07 64.44C139.83 64.44 137.79 62.92 137.22 60.64Z" fill="black"/>
<path d="M143.07 84.7192C142.42 82.0392 144.06 79.3292 146.75 78.6792C149.43 78.0292 152.13 79.6692 152.79 82.3592C153.44 85.0392 151.79 87.7393 149.11 88.3993C148.71 88.4893 148.32 88.5392 147.93 88.5392C145.67 88.5392 143.63 87.0092 143.07 84.7192Z" fill="black"/>
<path d="M150.22 97.539C148.51 95.369 148.87 92.229 151.04 90.509C153.2 88.799 156.34 89.159 158.06 91.319C159.78 93.489 159.41 96.639 157.25 98.349C156.33 99.079 155.23 99.429 154.14 99.429C152.67 99.429 151.21 98.779 150.22 97.539Z" fill="black"/>
<path d="M152.76 100.729C151.04 98.5687 151.4 95.4187 153.56 93.6987C155.71 91.9787 158.86 92.3287 160.58 94.4887C162.3 96.6487 161.95 99.7987 159.79 101.519C158.87 102.249 157.77 102.609 156.68 102.609C155.21 102.609 153.75 101.959 152.76 100.729Z" fill="black"/>
<path d="M168.92 107.29C166.28 106.45 164.83 103.64 165.67 101.01C166.51 98.3797 169.33 96.9297 171.96 97.7697C174.59 98.5997 176.04 101.42 175.2 104.05C174.52 106.18 172.56 107.53 170.44 107.53C169.93 107.53 169.42 107.45 168.92 107.29Z" fill="black"/>
<path d="M172.2 106.26C169.51 105.64 167.82 102.97 168.43 100.28C169.04 97.5795 171.72 95.8895 174.41 96.4995C177.1 97.1095 178.79 99.7895 178.18 102.48C177.66 104.8 175.6 106.38 173.31 106.38C172.95 106.38 172.58 106.34 172.2 106.26Z" fill="black"/>
<path d="M175.219 106.939C172.529 106.329 170.829 103.649 171.439 100.959C172.049 98.2687 174.719 96.5687 177.419 97.1787C180.109 97.7887 181.799 100.459 181.199 103.149C180.669 105.479 178.609 107.059 176.319 107.059C175.959 107.059 175.589 107.019 175.219 106.939Z" fill="black"/>
<path d="M185.28 96.9302C183.16 95.1502 182.89 92.0002 184.66 89.8802C186.43 87.7702 189.59 87.4902 191.7 89.2602C193.82 91.0402 194.1 94.1902 192.33 96.3002C191.34 97.4902 189.92 98.1002 188.49 98.1002C187.36 98.1002 186.22 97.7102 185.28 96.9302Z" fill="black"/>
<path d="M259.9 145.45C257.58 143.94 256.93 140.84 258.43 138.53C259.94 136.21 263.03 135.56 265.35 137.06C267.66 138.56 268.32 141.66 266.82 143.98C265.86 145.45 264.25 146.25 262.62 146.25C261.69 146.25 260.74 145.99 259.9 145.45ZM235.19 129.39C232.87 127.89 232.22 124.79 233.72 122.48C235.23 120.16 238.32 119.5 240.64 121.01C242.95 122.51 243.61 125.61 242.11 127.93C241.15 129.4 239.55 130.2 237.91 130.2C236.98 130.2 236.03 129.94 235.19 129.39ZM210.48 113.34C208.16 111.83 207.51 108.74 209.01 106.42C210.52 104.11 213.61 103.45 215.93 104.96C218.25 106.46 218.9 109.56 217.4 111.87C216.44 113.35 214.84 114.15 213.2 114.15C212.27 114.15 211.32 113.89 210.48 113.34Z" fill="black"/>
<path d="M378.46 222.44C376.14 220.94 375.48 217.84 376.99 215.52C378.49 213.21 381.59 212.55 383.91 214.06C386.22 215.56 386.88 218.66 385.38 220.97C384.42 222.45 382.81 223.25 381.18 223.25C380.24 223.25 379.3 222.99 378.46 222.44ZM355 207.21C352.68 205.7 352.02 202.61 353.53 200.29C355.03 197.97 358.13 197.31 360.44 198.82C362.76 200.32 363.42 203.42 361.91 205.74C360.96 207.21 359.35 208.02 357.72 208.01C356.78 208.01 355.84 207.75 355 207.21ZM331.54 191.97C329.22 190.47 328.56 187.37 330.07 185.06C331.57 182.74 334.67 182.08 336.98 183.58C339.3 185.09 339.96 188.19 338.45 190.5C337.49 191.98 335.89 192.78 334.25 192.78C333.32 192.78 332.38 192.52 331.54 191.97ZM308.07 176.74C305.76 175.23 305.1 172.14 306.6 169.82C308.11 167.5 311.2 166.85 313.52 168.35C315.84 169.85 316.49 172.95 314.99 175.27C314.03 176.74 312.43 177.54 310.79 177.54C309.86 177.54 308.91 177.28 308.07 176.74Z" fill="black"/>
<path d="M450.36 269.151C448.04 267.651 447.38 264.551 448.89 262.241C450.39 259.921 453.49 259.271 455.81 260.771C458.12 262.271 458.78 265.371 457.27 267.691C456.32 269.161 454.71 269.961 453.08 269.961C452.14 269.961 451.2 269.701 450.36 269.151ZM426.14 253.421C423.82 251.911 423.17 248.811 424.67 246.501C426.18 244.191 429.27 243.531 431.59 245.031C433.9 246.541 434.56 249.641 433.05 251.951C432.1 253.421 430.5 254.221 428.86 254.221C427.93 254.221 426.98 253.961 426.14 253.421Z" fill="black"/>
<path d="M477.67 286.959C475.35 285.459 474.699 282.359 476.209 280.039C477.709 277.729 480.809 277.069 483.129 278.579C485.439 280.089 486.089 283.189 484.589 285.499C483.629 286.969 482.03 287.769 480.39 287.769C479.46 287.769 478.51 287.509 477.67 286.959Z" fill="black"/>
<path d="M497.46 299.809C495.14 298.309 494.48 295.209 495.99 292.889C497.49 290.579 500.59 289.919 502.9 291.419C505.22 292.929 505.88 296.019 504.38 298.339C503.42 299.809 501.81 300.619 500.17 300.619C499.24 300.619 498.3 300.359 497.46 299.809Z" fill="black"/>
<path d="M519.84 321.21C517.08 321.11 514.93 318.78 515.04 316.03C515.14 313.27 517.46 311.12 520.22 311.22C522.98 311.33 525.13 313.64 525.03 316.41C524.92 319.1 522.71 321.22 520.03 321.22C519.97 321.22 519.91 321.22 519.84 321.22V321.21Z" fill="black"/>
<path d="M519.55 328.57C516.79 328.46 514.64 326.14 514.75 323.37C514.86 320.62 517.18 318.46 519.94 318.57C522.7 318.68 524.85 321 524.74 323.76C524.64 326.46 522.42 328.57 519.75 328.57H519.55Z" fill="black"/>
<path d="M518.009 363.53C515.249 363.41 513.109 361.08 513.229 358.32C513.349 355.56 515.679 353.42 518.439 353.54C521.199 353.66 523.339 355.99 523.219 358.75C523.099 361.44 520.889 363.53 518.229 363.53H518.009Z" fill="black"/>
<path d="M525.52 363.81C522.75 363.7 520.6 361.39 520.7 358.63C520.8 355.87 523.12 353.71 525.88 353.81C528.64 353.91 530.8 356.23 530.69 358.99C530.6 361.69 528.38 363.81 525.7 363.81H525.52Z" fill="black"/>
<path d="M526.77 340.039C524.01 339.889 521.91 337.529 522.06 334.769C522.22 332.009 524.58 329.899 527.34 330.059C530.1 330.219 532.21 332.579 532.05 335.339C531.9 337.989 529.69 340.049 527.06 340.049C526.97 340.049 526.87 340.049 526.77 340.049V340.039Z" fill="black"/>
<path d="M527.55 322.67C524.79 322.56 522.64 320.23 522.75 317.47C522.86 314.71 525.18 312.57 527.95 312.68C530.71 312.79 532.85 315.11 532.74 317.87C532.64 320.56 530.42 322.67 527.75 322.67H527.55Z" fill="black"/>
<path d="M525.54 320.15C523.72 318.08 523.91 314.92 525.98 313.1C528.05 311.27 531.21 311.46 533.04 313.53C534.87 315.6 534.67 318.76 532.6 320.59C531.65 321.43 530.47 321.84 529.29 321.84C527.91 321.84 526.53 321.27 525.54 320.15Z" fill="black"/>
<path d="M526.02 320.739C525.96 320.659 525.88 320.549 525.79 320.449C524.08 318.279 524.44 315.139 526.6 313.419C528.77 311.709 531.91 312.069 533.63 314.229C533.8 314.449 533.99 314.689 534.19 314.979C535.78 317.229 535.24 320.349 532.99 321.949C532.11 322.559 531.1 322.859 530.11 322.859C528.54 322.859 526.99 322.119 526.02 320.739Z" fill="black"/>
<path d="M547.92 351.779C546.33 349.519 546.87 346.399 549.12 344.809C551.38 343.209 554.5 343.749 556.09 346.009C557.69 348.269 557.15 351.379 554.89 352.979C554.01 353.599 553.01 353.889 552.01 353.889C550.44 353.889 548.9 353.159 547.92 351.779Z" fill="black"/>
<path d="M554.38 347.309C552.84 345.009 553.46 341.909 555.76 340.369C558.06 338.839 561.16 339.459 562.7 341.749C564.23 344.049 563.61 347.149 561.32 348.689C560.46 349.259 559.5 349.529 558.54 349.529C556.93 349.529 555.34 348.749 554.38 347.309Z" fill="black"/>
<path d="M544.56 333.079C542.99 330.809 543.56 327.689 545.83 326.129C548.11 324.559 551.22 325.129 552.79 327.399C554.36 329.679 553.79 332.789 551.51 334.359C550.65 334.959 549.66 335.239 548.68 335.239C547.09 335.239 545.53 334.489 544.56 333.079Z" fill="black"/>
<path d="M528 309.759C526.4 307.509 526.93 304.389 529.18 302.789C531.43 301.189 534.55 301.719 536.15 303.979C537.75 306.229 537.22 309.349 534.97 310.939C534.09 311.569 533.08 311.869 532.08 311.869C530.51 311.869 528.97 311.139 528 309.759Z" fill="black"/>
<path d="M559.74 279.09C557.05 278.47 555.37 275.79 555.99 273.1C556.61 270.4 559.29 268.73 561.98 269.34C564.67 269.96 566.35 272.64 565.74 275.34C565.2 277.65 563.14 279.22 560.87 279.22C560.5 279.22 560.12 279.17 559.74 279.09Z" fill="black"/>
<path d="M556.63 258.729C556.31 255.979 558.27 253.499 561.01 253.169C563.75 252.849 566.24 254.809 566.56 257.559C566.88 260.299 564.92 262.779 562.18 263.109C561.98 263.129 561.78 263.139 561.59 263.139C559.09 263.139 556.93 261.269 556.63 258.729Z" fill="black"/>
<path d="M561.08 258.33C560.13 255.74 561.449 252.86 564.039 251.91C566.639 250.96 569.51 252.29 570.46 254.88C571.42 257.47 570.09 260.35 567.49 261.3C566.92 261.51 566.34 261.61 565.77 261.61C563.73 261.61 561.82 260.35 561.08 258.33Z" fill="black"/>
<path d="M587.85 248.381C586.89 245.801 588.21 242.911 590.79 241.951C593.38 240.991 596.26 242.311 597.22 244.891C598.19 247.481 596.87 250.361 594.29 251.331C593.71 251.541 593.12 251.641 592.54 251.641C590.51 251.641 588.6 250.401 587.85 248.381ZM614.62 238.421C613.66 235.831 614.97 232.951 617.56 231.991C620.15 231.021 623.03 232.341 623.99 234.921C624.96 237.511 623.64 240.391 621.06 241.361C620.48 241.571 619.89 241.671 619.31 241.671C617.28 241.671 615.37 240.431 614.62 238.421ZM641.39 228.451C640.43 225.861 641.74 222.981 644.33 222.021C646.92 221.051 649.8 222.371 650.76 224.961C651.73 227.551 650.41 230.431 647.82 231.391C647.25 231.601 646.66 231.711 646.08 231.711C644.05 231.711 642.14 230.461 641.39 228.451ZM668.16 218.481C667.2 215.891 668.51 213.011 671.1 212.051C673.69 211.091 676.57 212.401 677.53 214.991C678.5 217.581 677.18 220.461 674.59 221.421C674.02 221.641 673.43 221.741 672.85 221.741C670.82 221.741 668.91 220.491 668.16 218.481ZM694.93 208.511C693.97 205.931 695.28 203.051 697.87 202.081C700.46 201.121 703.34 202.441 704.3 205.021C705.27 207.611 703.95 210.491 701.36 211.461C700.79 211.671 700.2 211.771 699.62 211.771C697.59 211.771 695.68 210.531 694.93 208.511ZM721.7 198.551C720.74 195.961 722.05 193.081 724.64 192.121C727.23 191.151 730.11 192.471 731.07 195.061C732.04 197.641 730.72 200.521 728.13 201.491C727.56 201.701 726.97 201.801 726.39 201.801C724.36 201.801 722.45 200.561 721.7 198.551ZM748.47 188.581C747.51 185.991 748.82 183.111 751.41 182.151C754 181.191 756.88 182.501 757.84 185.091C758.81 187.681 757.49 190.561 754.9 191.521C754.33 191.731 753.74 191.841 753.16 191.841C751.13 191.841 749.22 190.591 748.47 188.581Z" fill="black"/>
<path d="M779.14 177.11C778.32 174.48 779.79 171.67 782.42 170.85C785.06 170.02 787.86 171.48 788.69 174.12C789.51 176.76 788.05 179.56 785.41 180.39C784.91 180.54 784.41 180.62 783.91 180.62C781.79 180.62 779.81 179.25 779.14 177.11Z" fill="black"/>
<path d="M800.58 169.19C799.58 166.61 800.86 163.72 803.44 162.72C806.02 161.73 808.91 163.01 809.91 165.58C810.9 168.16 809.62 171.06 807.04 172.05C806.45 172.28 805.84 172.39 805.24 172.39C803.23 172.39 801.34 171.17 800.58 169.19Z" fill="black"/>
<path d="M806.19 167.04C805.23 164.45 806.54 161.57 809.13 160.61C811.72 159.65 814.6 160.97 815.56 163.55C816.52 166.14 815.2 169.02 812.61 169.98C812.04 170.2 811.45 170.3 810.87 170.3C808.84 170.3 806.93 169.05 806.19 167.04Z" fill="black"/>
<path d="M806.14 172.481C806.07 169.721 808.26 167.431 811.02 167.361C813.78 167.301 816.07 169.481 816.14 172.241C816.2 175.001 814.01 177.301 811.26 177.361H811.13C808.43 177.361 806.2 175.201 806.14 172.481Z" fill="black"/>
<path d="M806.31 180.51C806.25 177.74 808.44 175.46 811.2 175.39C813.96 175.33 816.25 177.52 816.31 180.29C816.37 183.05 814.18 185.33 811.42 185.39C811.42 185.39 811.35 185.39 811.31 185.39C808.6 185.39 806.37 183.22 806.31 180.5V180.51Z" fill="black"/>
<path d="M806.32 219.68C806.32 216.92 808.56 214.68 811.32 214.68C814.08 214.68 816.32 216.91 816.32 219.68C816.32 222.44 814.09 224.68 811.32 224.68C808.56 224.68 806.32 222.44 806.32 219.68Z" fill="black"/>
<path d="M813.92 219.67C813.91 216.91 816.14 214.66 818.9 214.66C821.66 214.66 823.91 216.88 823.92 219.64C823.92 222.4 821.69 224.65 818.93 224.66C816.17 224.66 813.93 222.43 813.93 219.67H813.92Z" fill="black"/>
<path d="M818.93 198.23C816.16 198.23 813.92 195.99 813.93 193.23C813.93 190.47 816.17 188.23 818.93 188.23C821.69 188.23 823.93 190.47 823.93 193.23C823.93 195.99 821.69 198.23 818.93 198.23Z" fill="black"/>
<path d="M818.81 171.42C816.5 170.96 814.78 168.91 814.8 166.47C814.83 163.71 817.09 161.49 819.86 161.52C820.4 161.52 820.95 161.58 821.68 161.78C822.38 162.01 823.41 162.26 824.63 163.71C826.34 165.88 825.96 169.03 823.79 170.73C822.87 171.45 821.78 171.8 820.7 171.8C820.06 171.8 819.41 171.67 818.81 171.42Z" fill="black"/>
<path d="M849.3 210.22C847.57 208.07 847.91 204.93 850.05 203.19C852.21 201.46 855.35 201.79 857.09 203.94C858.82 206.09 858.48 209.24 856.33 210.98C855.41 211.72 854.3 212.08 853.2 212.08C851.74 212.08 850.29 211.45 849.3 210.22ZM833.06 190.08C831.32 187.93 831.66 184.78 833.81 183.05C835.96 181.31 839.11 181.65 840.84 183.8C842.57 185.95 842.24 189.1 840.09 190.83C839.16 191.58 838.05 191.94 836.95 191.94C835.49 191.94 834.04 191.3 833.06 190.08Z" fill="black"/>
<path d="M871.9 225.66C870.11 223.57 870.35 220.41 872.44 218.61C874.54 216.81 877.7 217.06 879.49 219.15C881.29 221.25 881.05 224.4 878.95 226.2C878.01 227.01 876.85 227.41 875.7 227.41C874.29 227.41 872.89 226.81 871.9 225.66Z" fill="black"/>
<path d="M854.25 203.72C852.52 201.57 852.86 198.43 855.01 196.69C857.16 194.96 860.31 195.31 862.04 197.46C863.77 199.61 863.43 202.75 861.28 204.49C860.35 205.23 859.25 205.59 858.15 205.59C856.69 205.59 855.24 204.95 854.25 203.72Z" fill="black"/>
<path d="M186.04 62.1392C183.29 61.9592 181.2 59.5792 181.38 56.8192C181.56 54.0692 183.94 51.9792 186.7 52.1592C189.45 52.3392 191.54 54.7292 191.36 57.4792C191.18 60.1292 188.99 62.1492 186.37 62.1492C186.26 62.1492 186.15 62.1492 186.04 62.1492V62.1392Z" fill="black"/>
<path d="M184.879 77.3293C182.129 77.1193 180.059 74.7293 180.259 71.9693C180.469 69.2193 182.859 67.1493 185.619 67.3493C188.369 67.5593 190.439 69.9493 190.239 72.7093C190.039 75.3393 187.849 77.3393 185.259 77.3393C185.129 77.3393 185.009 77.3393 184.879 77.3393V77.3293Z" fill="black"/>
<path d="M179.429 92.7606C176.969 91.5006 175.999 88.4905 177.269 86.0305C178.529 83.5805 181.539 82.6106 183.999 83.8706C186.449 85.1306 187.419 88.1405 186.159 90.6005C185.269 92.3305 183.519 93.3205 181.709 93.3205C180.939 93.3205 180.159 93.1406 179.429 92.7606Z" fill="black"/>
<path d="M173.6 89.4401C173.22 86.7101 175.13 84.1801 177.87 83.8001C180.6 83.4201 183.13 85.3301 183.51 88.0701C183.89 90.8101 181.98 93.3301 179.24 93.7101C179.01 93.7401 178.78 93.7601 178.55 93.7601C176.09 93.7601 173.95 91.9501 173.6 89.4401Z" fill="black"/>
<path d="M175.18 95.2188C173.18 93.3188 173.11 90.1488 175.01 88.1488C176.92 86.1588 180.08 86.0788 182.08 87.9788C184.08 89.8888 184.16 93.0588 182.25 95.0488C181.27 96.0788 179.95 96.5988 178.63 96.5988C177.39 96.5988 176.15 96.1488 175.18 95.2188Z" fill="black"/>
<path d="M170.85 94.8393C169.68 92.3393 170.75 89.3593 173.25 88.1793C175.75 87.0093 178.73 88.0893 179.9 90.5793C181.08 93.0793 180 96.0593 177.5 97.2293C176.82 97.5593 176.09 97.7093 175.38 97.7093C173.5 97.7093 171.7 96.6493 170.85 94.8393Z" fill="black"/>
<path d="M167.33 94.5189C166.99 91.7789 168.93 89.2789 171.67 88.9389C174.41 88.5989 176.91 90.5489 177.25 93.2889C177.59 96.0289 175.64 98.5289 172.9 98.8689C172.7 98.8889 172.49 98.9089 172.28 98.9089C169.79 98.9089 167.64 97.0489 167.33 94.5189Z" fill="black"/>
<path d="M165.34 95.5798C163.44 93.5798 163.5 90.4198 165.5 88.5098C167.49 86.5998 170.66 86.6698 172.57 88.6598C174.48 90.6498 174.41 93.8198 172.41 95.7298C171.44 96.6598 170.2 97.1198 168.95 97.1198C167.64 97.1198 166.33 96.5998 165.34 95.5798Z" fill="black"/>
<path d="M160.64 94.0294C160.03 91.3294 161.71 88.6494 164.4 88.0294C167.09 87.4194 169.77 89.0994 170.39 91.7894C171.01 94.4794 169.33 97.1594 166.63 97.7794C166.26 97.8694 165.88 97.9094 165.51 97.9094C163.23 97.9094 161.17 96.3394 160.64 94.0294Z" fill="black"/>
<path d="M150.19 80.2101C149.5 77.5401 151.12 74.8201 153.79 74.1401C156.47 73.4601 159.19 75.0701 159.88 77.7501C160.56 80.4201 158.94 83.1401 156.26 83.8301C155.85 83.9301 155.43 83.9801 155.03 83.9801C152.79 83.9801 150.76 82.4801 150.19 80.2101Z" fill="black"/>
<path d="M145.79 62.9603C145.11 60.2803 146.73 57.5603 149.4 56.8803C152.08 56.2003 154.8 57.8103 155.48 60.4903C156.16 63.1603 154.54 65.8903 151.87 66.5703C151.45 66.6703 151.04 66.7203 150.63 66.7203C148.4 66.7203 146.36 65.2203 145.79 62.9603Z" fill="black"/>
<path d="M142.819 50.2503C142.189 47.5603 143.859 44.8703 146.549 44.2403C149.239 43.6103 151.929 45.2803 152.559 47.9703C153.179 50.6603 151.509 53.3503 148.829 53.9803C148.439 54.0703 148.059 54.1103 147.689 54.1103C145.409 54.1103 143.359 52.5503 142.819 50.2503Z" fill="black"/>
<path d="M147.33 49.4402C144.74 48.4802 143.42 45.6002 144.38 43.0102C145.34 40.4302 148.21 39.1002 150.8 40.0602C153.39 41.0202 154.72 43.8902 153.76 46.4802C153.01 48.5002 151.1 49.7502 149.07 49.7502C148.49 49.7502 147.91 49.6502 147.33 49.4402Z" fill="black"/>
<path d="M151.18 39.0594C148.59 38.0994 147.27 35.2194 148.23 32.6294C149.19 30.0494 152.06 28.7194 154.65 29.6794C157.24 30.6394 158.56 33.5194 157.6 36.1094C156.85 38.1294 154.95 39.3694 152.91 39.3694C152.34 39.3694 151.75 39.2694 151.18 39.0594Z" fill="black"/>
<path d="M156.269 24.0587C153.979 22.5187 153.359 19.4187 154.889 17.1187C156.429 14.8187 159.529 14.2087 161.829 15.7387C164.119 17.2687 164.739 20.3787 163.209 22.6687C162.249 24.1187 160.659 24.8987 159.039 24.8987C158.089 24.8987 157.129 24.6187 156.269 24.0587Z" fill="black"/>
<path d="M158.54 20.1799C156.6 18.2099 156.62 15.0399 158.58 13.0999C160.55 11.1699 163.72 11.1899 165.66 13.1499C167.6 15.1199 167.58 18.2799 165.61 20.2199C164.63 21.1899 163.37 21.6599 162.1 21.6599C160.81 21.6599 159.52 21.1699 158.54 20.1799Z" fill="black"/>
<path d="M163.3 14.7595C162.49 12.1195 163.97 9.32951 166.61 8.51951C169.25 7.70951 172.05 9.19951 172.86 11.8395C173.67 14.4695 172.18 17.2695 169.54 18.0795C169.06 18.2295 168.57 18.2995 168.08 18.2995C165.94 18.2995 163.96 16.9195 163.3 14.7595Z" fill="black"/>
<path d="M182.74 27.779C182.64 25.029 184.79 22.709 187.55 22.599C190.31 22.499 192.63 24.659 192.74 27.409C192.84 30.169 190.68 32.489 187.92 32.599H187.74C185.06 32.599 182.84 30.479 182.74 27.779Z" fill="black"/>
<path d="M187.09 46.2896C184.33 46.1096 182.24 43.7296 182.42 40.9696C182.6 38.2196 184.97 36.1296 187.73 36.3096C190.49 36.4896 192.58 38.8596 192.4 41.6196C192.23 44.2596 190.03 46.2996 187.42 46.2996C187.31 46.2996 187.2 46.2996 187.09 46.2996V46.2896Z" fill="black"/>
<path d="M528.53 300.319C526.75 298.209 527.01 295.059 529.12 293.269C531.23 291.489 534.39 291.759 536.17 293.869C537.95 295.979 537.68 299.129 535.57 300.909C534.64 301.709 533.49 302.089 532.35 302.089C530.93 302.089 529.52 301.489 528.53 300.319Z" fill="black"/>
<path d="M526.1 302.349C523.73 300.939 522.95 297.879 524.36 295.499C525.77 293.129 528.84 292.349 531.21 293.759C533.59 295.179 534.36 298.239 532.95 300.619C532.02 302.189 530.36 303.059 528.65 303.059C527.78 303.059 526.9 302.829 526.1 302.349Z" fill="black"/>
<path d="M530.34 266.19C527.59 266.05 525.47 263.69 525.61 260.93C525.76 258.18 528.11 256.06 530.87 256.2C533.63 256.35 535.75 258.7 535.6 261.46C535.46 264.13 533.25 266.2 530.61 266.2C530.52 266.2 530.43 266.2 530.34 266.2V266.19Z" fill="black"/>
<path d="M531.07 252.081C528.31 251.941 526.19 249.591 526.32 246.831C526.46 244.071 528.81 241.951 531.57 242.091C534.33 242.231 536.45 244.581 536.31 247.331C536.18 250.011 533.97 252.081 531.32 252.081H531.07Z" fill="black"/>
<path d="M531.54 242.98C528.78 242.83 526.66 240.48 526.81 237.72C526.95 234.97 529.31 232.85 532.07 233C534.82 233.14 536.94 235.5 536.79 238.25C536.65 240.92 534.45 242.99 531.81 242.99C531.72 242.99 531.63 242.99 531.54 242.99V242.98Z" fill="black"/>
<path d="M549.11 262.32C549.08 259.56 551.29 257.29 554.05 257.26C556.81 257.23 559.08 259.44 559.11 262.2C559.14 264.96 556.93 267.23 554.17 267.26H554.11C551.37 267.26 549.14 265.06 549.11 262.32Z" fill="black"/>
<path d="M547.01 283.839C544.74 282.279 544.17 279.159 545.73 276.889C547.3 274.609 550.41 274.039 552.68 275.609C554.96 277.179 555.53 280.289 553.97 282.559C553 283.969 551.43 284.729 549.84 284.729C548.87 284.729 547.88 284.439 547.01 283.839Z" fill="black"/>
<path d="M71.3297 147.01C68.7797 145.95 67.5697 143.02 68.6397 140.47L68.9397 139.73C69.9997 137.18 72.9297 135.98 75.4797 137.04C78.0297 138.1 79.2397 141.03 78.1697 143.58L77.8697 144.31C77.0697 146.23 75.2097 147.39 73.2497 147.39C72.6097 147.39 71.9597 147.27 71.3297 147.01Z" fill="black"/>
<path d="M66.9297 141.849C65.4197 139.529 66.0697 136.439 68.3797 134.929C70.6997 133.419 73.7897 134.069 75.2997 136.389C76.8097 138.699 76.1597 141.799 73.8397 143.299C72.9997 143.849 72.0597 144.119 71.1197 144.119C69.4897 144.119 67.8797 143.319 66.9297 141.849Z" fill="black"/>
<path d="M69.2402 141.111C66.7102 140.001 65.5602 137.061 66.6602 134.531C67.7702 132.001 70.7202 130.841 73.2502 131.951C75.7802 133.061 76.9302 136.001 75.8302 138.531C75.0002 140.411 73.1702 141.531 71.2402 141.531C70.5702 141.531 69.8902 141.401 69.2402 141.111Z" fill="black"/>
<path d="M71.8994 145.51C69.3594 144.43 68.1794 141.49 69.2694 138.95C70.3494 136.41 73.2894 135.23 75.8294 136.31C78.3694 137.4 79.5494 140.34 78.4594 142.87C77.6494 144.78 75.8094 145.92 73.8594 145.92C73.2094 145.92 72.5394 145.79 71.8994 145.51Z" fill="black"/>
<path d="M73.2598 147.389C72.6298 147.389 71.9898 147.269 71.3698 147.019C68.8098 145.979 67.5898 143.059 68.6298 140.499L69.2298 139.019C70.2698 136.459 73.1898 135.239 75.7498 136.279C78.3098 137.319 79.5298 140.239 78.4898 142.799L77.8898 144.279C77.0998 146.219 75.2298 147.389 73.2598 147.389Z" fill="black"/>
</g>
</g>
<defs>
<clipPath id="clip0_2561_10297">
<rect width="880.7" height="363.81" fill="white"/>
</clipPath>
</defs>
</svg>
