<svg width="220" height="130" viewBox="0 0 220 130" fill="none" xmlns="http://www.w3.org/2000/svg">
<g clip-path="url(#clip0_2561_9568)">
<mask id="mask0_2561_9568" style="mask-type:luminance" maskUnits="userSpaceOnUse" x="0" y="0" width="220" height="130">
<path d="M219.04 0H0V129.35H219.04V0Z" fill="white"/>
</mask>
<g mask="url(#mask0_2561_9568)">
<path d="M55.6903 40.7699C55.6603 40.8499 55.6903 41.1099 55.6203 41.1399L55.2403 41.2999C54.9003 41.4399 54.5003 41.6999 54.1103 41.6399C53.4003 41.5199 52.9303 41.4699 52.2203 41.6799C51.7303 41.5699 51.2603 41.5799 50.7403 41.5799H49.9403C49.5703 41.5799 49.1903 41.4899 48.8403 41.4599C48.5303 41.4399 48.1903 41.6599 47.8703 41.3899L47.3403 41.5699C47.0403 41.2399 46.6303 41.2399 46.2803 41.4999L45.4803 41.2299C45.3103 41.1699 45.0403 41.0299 44.8603 41.0799C43.8503 41.3099 42.9103 41.2699 41.9103 41.1699C41.4903 41.1299 41.1303 41.2399 40.7503 40.8599L40.3603 41.2299C38.9103 41.3899 39.1203 40.7899 37.8303 41.0999C37.6203 41.0499 37.2503 40.9199 37.0603 40.9299L36.1103 40.9899C35.8303 41.0099 35.5503 41.1399 35.3003 40.8999C35.1803 40.7899 34.8203 40.6999 34.7303 40.8199C34.1903 41.5299 34.3203 41.0899 32.9903 41.0199C31.4103 40.9299 31.1203 40.5699 29.7803 40.9999C29.5103 41.0899 29.3703 41.2599 29.0903 41.0699L28.2203 40.4999L28.1703 39.4899C28.1703 39.2899 28.1403 39.0799 28.2703 38.9399C28.5103 38.6799 28.4403 38.3799 28.5703 38.0899L28.8803 37.3699C29.0003 37.1099 28.9903 36.7699 28.9403 36.4899C29.0203 36.3999 29.2103 36.1899 29.2203 36.0699C29.2203 35.8099 29.3603 35.6199 29.4503 35.4199L29.7603 34.6699C29.8503 34.4499 30.0103 34.2899 30.1203 34.0699L30.5003 33.2599C30.6303 32.9799 30.8903 32.7499 30.9503 32.4499C31.0303 32.0699 31.2803 32.0099 31.5103 31.7799C32.1203 31.1599 32.2303 30.3699 33.1403 30.0599L33.4603 29.5199C33.8603 29.4299 34.0803 29.1499 34.3803 28.9399L34.9803 28.4999L36.3903 27.5899C37.4103 26.9199 36.8003 27.6699 37.4703 27.0199L37.7303 27.0599C37.8003 27.0699 37.9003 26.8899 37.9803 26.8699C39.5003 26.3699 38.5603 26.8199 39.4103 26.4999L40.0503 26.2599C40.1303 26.3699 40.2103 26.4999 40.3503 26.7499L40.8903 26.3299C41.0603 26.1999 41.5103 26.2899 41.7503 26.2899H42.7003C43.1303 26.2999 43.5203 26.3299 43.9003 26.3499C44.4103 26.3799 44.7903 26.3699 45.2903 26.5199C45.6703 26.6399 46.1503 26.6099 46.5503 26.8099C48.2403 27.6399 47.1903 26.8099 48.6503 28.1299C49.9603 29.3099 49.1303 28.1899 49.8503 29.5299C50.0403 29.8799 50.2203 29.8999 50.5703 29.9799C51.1603 30.1099 51.2603 30.9299 51.6303 31.2699C51.9703 31.5799 52.3303 31.7699 52.5903 32.1699C52.6903 32.3299 52.9403 32.4799 53.0803 32.6399C53.8903 33.5799 53.3403 33.8099 54.2203 34.4899C54.2703 34.6699 54.3703 34.9699 54.4403 35.1299L54.6903 35.7099C54.7703 35.8799 54.9403 36.1699 54.9903 36.3499C55.0703 36.6699 55.1703 37.1099 55.3103 37.4599C55.5603 38.0999 55.7003 38.9999 56.0303 39.7199L55.7103 40.7599L55.6903 40.7699ZM44.0603 43.2999C43.9903 43.3899 43.6903 43.4499 43.6203 43.3599C43.5303 43.2299 43.5303 42.8699 43.6603 42.7899C43.7403 42.7399 43.9803 42.8299 44.0403 42.8999C44.1103 42.9899 44.1303 43.2199 44.0603 43.2999ZM60.4103 43.0899C60.5103 42.6499 60.6003 42.3099 60.3803 41.8699L60.4603 41.3499C60.1403 40.8199 60.0203 39.5699 59.9503 38.9499C59.8903 38.4299 59.7403 37.9399 59.8903 37.4299C59.4503 36.6299 59.4903 36.1499 59.2103 35.3499C59.0003 35.1499 58.9703 35.0099 58.9103 34.7299C58.8303 34.3899 58.5103 33.9899 58.4603 33.6599C58.4103 33.3499 58.3403 33.2899 58.1403 33.0399C57.9303 32.7799 57.6203 32.1899 57.5803 31.8699C57.5103 31.3399 57.3303 31.1999 57.0503 30.8099L56.3903 29.8999L56.1003 29.2299C55.4903 27.8199 55.0003 28.8599 54.8803 27.7299L54.4003 27.4099C54.2303 27.0599 53.9103 26.7799 53.5403 26.5799C53.2903 26.4499 53.0603 26.1499 52.8303 25.9599C52.6603 25.8199 52.5403 25.6799 52.3903 25.4899C52.2203 25.2899 51.7303 25.2499 51.5103 25.0499C51.1303 24.6999 50.7103 24.5099 50.2803 24.2599C49.9603 24.0699 49.7303 23.9299 49.3403 23.8499C48.3803 23.6499 47.6803 23.0799 46.7503 22.8799C46.5203 22.8299 46.1003 22.8999 45.9203 22.7499C45.5003 22.3899 45.0803 22.4999 44.5803 22.5099C43.6003 22.5099 43.2803 22.4499 42.1903 22.4199H41.5903H41.0003L38.9503 22.6799C38.6403 22.7199 38.3803 22.8099 38.0303 22.7399C37.7003 22.6799 37.3303 23.0699 36.9903 23.1299C35.5203 23.3699 35.4503 23.6599 35.2503 23.7299L34.4803 23.9799C34.0103 24.1299 33.6703 24.4099 33.1803 24.5199L32.8203 24.9299L32.1403 25.2999C31.5903 25.5999 31.2603 26.0599 30.9203 26.4299C30.9203 26.4299 29.8703 26.9999 29.1203 27.7399C28.8403 28.0099 28.6303 28.3899 28.3503 28.7099C27.6603 29.4799 28.0603 29.6599 27.1903 30.3499C26.6703 31.1999 26.1203 32.4799 25.6103 33.2999C25.2303 33.9099 24.8003 34.6499 25.0703 35.4699L24.6203 36.2699L24.4603 37.4099C24.4403 37.5899 24.3303 37.8099 24.2503 37.9799L23.9603 38.6399C24.2803 40.0399 23.2903 40.0199 23.6303 40.9599L23.4703 41.7899C23.9703 42.5799 23.6303 42.5999 23.3703 43.1399C23.3203 43.2399 23.5603 43.4899 23.5403 43.5999L23.3203 44.7899C23.5503 45.2099 23.5503 45.5899 23.5703 46.0499C23.5803 46.3299 23.8103 46.6799 23.6703 46.9599C23.1703 48.0099 24.2303 47.5999 23.7203 48.7999C23.8903 49.0299 24.0303 49.3099 24.0903 49.5699C24.3503 50.6299 23.9203 50.0099 24.2503 51.2099C24.4803 51.4299 24.4703 51.6299 24.5203 51.9399C24.5903 52.3999 24.7503 52.9099 24.8803 53.3499C25.2503 53.4199 25.4203 53.6599 25.3703 54.0299C25.3503 54.1399 25.5503 54.3299 25.5903 54.4499L25.8703 55.2599L26.5803 55.8599C26.5403 56.4199 26.8903 56.8799 27.3303 57.1699L27.4603 57.5999C27.6303 57.8199 27.8603 58.0499 27.9503 58.2799C28.3503 59.2899 28.7703 58.9399 29.4903 59.9399C29.7103 60.2499 29.8403 60.6199 30.2103 60.7399C30.9803 60.9999 31.4303 61.7599 31.8203 62.0099L32.8503 62.6499C33.0603 62.7799 33.1103 62.9399 33.2403 63.1699C33.4103 63.4499 33.9303 63.5199 34.2303 63.6599C35.2203 64.1299 34.6803 64.1799 35.9003 64.2699C36.2003 64.2899 36.4403 64.3299 36.6703 64.4799C37.2503 64.8399 37.1303 64.3199 38.0803 64.6699C39.0103 64.9999 38.3903 64.4999 39.2803 64.8199C40.9103 65.3999 39.7203 64.7899 40.7903 65.1099L41.5603 65.3399L42.0403 65.1699C42.4103 65.2799 42.7403 65.2699 43.0803 65.0999L43.7503 65.2599C44.0303 65.0299 44.2603 65.1599 44.5503 65.2299C45.2003 65.1899 45.8003 64.7499 46.4203 65.0599C46.5603 65.0399 46.8903 64.9499 47.0303 64.8799C47.9603 64.3899 47.8303 64.7599 49.1503 64.2299C49.4803 64.0999 49.6503 64.0499 50.0403 64.1199C51.0803 63.8499 51.6203 63.1999 52.5403 62.9999C52.8703 62.9299 53.0503 62.6699 53.3003 62.5099C53.7003 62.2499 54.6803 61.6299 54.8803 61.1899L55.5303 60.9799C56.3603 59.2699 56.2303 60.4599 57.1503 58.6799L57.9903 57.0599L58.3503 56.2899C58.6103 55.7299 58.8903 55.2399 59.0003 54.6499L59.3203 54.1599C59.5603 53.7999 59.4603 53.0399 59.3903 52.6599C59.3003 52.1999 59.0903 52.0599 58.6403 51.9799C58.0803 51.8699 57.3703 51.8499 56.8803 52.1299C56.6603 52.2599 56.4103 52.3199 56.1903 52.4299L55.4603 52.7899C55.3503 53.1999 55.1603 53.5799 54.9503 53.9399L54.5903 54.5499L54.2103 55.1099C54.0503 55.3399 54.0403 55.7499 53.8503 55.9399C53.5003 56.2999 53.3803 56.6799 53.1803 57.1399C52.6903 57.7699 52.5203 57.7699 51.9003 58.4999C51.7603 58.6699 51.3303 58.7299 51.2403 58.9899C51.1303 59.3299 50.8103 59.2899 50.6003 59.4499L49.6103 60.1899C49.4403 60.3199 49.2703 60.4999 49.0703 60.5999C48.6403 60.8299 48.1803 60.8899 47.7403 61.0399C47.2503 61.1999 46.8103 61.4899 45.9203 61.2799L44.9303 61.7199C44.4503 61.3199 43.9603 61.4199 43.4303 61.5599L42.5203 61.5099C42.4203 61.5099 42.1503 61.4299 42.0703 61.4699C41.6403 61.6799 41.0803 61.6299 40.6803 61.3799C40.2303 61.5399 39.7903 61.2499 39.0703 61.0699C38.7403 60.9899 38.2403 61.0399 37.9803 60.8099C37.6003 60.4699 37.2303 60.2399 36.7403 60.1099C36.6103 60.0799 36.3703 59.9199 36.2303 59.9299C35.9303 59.9499 35.8303 59.6799 35.6603 59.5499L34.8703 58.9799C34.3603 58.6099 33.6903 58.3599 33.2803 57.8699C33.0903 57.6499 32.9403 57.4699 32.7503 57.2799L31.8303 56.3599C31.2203 55.7499 31.3603 55.4399 30.6503 54.6799C30.3503 54.3599 30.2203 54.0599 30.0303 53.6799L29.1003 51.9499C28.8703 51.5199 28.4503 49.7199 28.3403 49.1699C28.2803 48.8599 27.9603 48.6199 28.1303 48.2699C28.2503 48.0299 28.2303 47.7599 28.0703 47.5299C27.8803 47.2699 27.8703 46.9699 27.8003 46.6499C27.7603 46.4599 27.6103 46.1299 27.7003 45.9399C27.9003 45.4899 28.3203 45.3699 28.7903 45.3399C28.9503 45.3299 29.0903 45.1699 29.2203 45.0199C29.3403 44.8899 29.7403 45.0199 29.9303 45.0099L30.8803 44.9399C31.2203 44.9099 32.2303 44.9599 32.5303 44.9999C32.8903 45.0399 33.0703 45.0699 33.3103 44.7199C33.6903 44.7499 34.2203 44.8699 34.5803 44.8299C34.8703 44.7999 35.1103 44.6699 35.4003 44.7599C36.1703 44.9999 35.7503 44.4199 36.7703 44.7599C37.4303 44.9799 37.1703 44.3699 38.3003 45.0399L38.7803 44.8199C39.0203 44.8899 39.2603 44.9499 39.5003 44.9599L40.7103 45.0199C41.1303 45.0399 41.5703 45.0899 41.9503 45.1599C43.0503 44.8299 42.1103 45.2699 43.4903 45.1699C43.6803 45.1599 44.0003 45.2299 44.1503 45.1499C44.4303 45.0099 44.5703 45.0199 44.8503 45.1499C45.0403 45.2299 45.3603 45.1799 45.5903 45.1799H46.7003C47.0503 45.1699 47.4403 45.2099 47.8203 45.2299L48.7603 45.2699C49.1403 45.2899 49.3503 45.3699 49.7603 45.2499C50.1203 45.1399 50.6203 45.4699 50.9803 45.4299C51.2803 45.3899 51.5003 45.3699 51.7703 45.4799C52.4403 45.7699 52.1503 45.0199 53.1803 45.5899C53.7403 45.8999 54.0803 45.4299 54.6903 45.4099C55.0303 45.6399 55.2703 45.4199 55.6003 45.3499C55.8903 45.2899 56.2903 45.5899 56.6203 45.3999C57.0403 45.1699 57.4903 45.1699 57.9603 45.2999L58.5603 45.1499C58.9503 45.3999 59.8203 45.1299 60.0903 44.7999L60.5403 44.2299C60.7903 43.9199 60.3903 43.4599 60.4603 43.1499" fill="#90BEFB"/>
<path d="M127.89 35.9007C127.8 35.7807 127.8 35.4207 127.93 35.3407C128.01 35.2907 128.25 35.3807 128.31 35.4507C128.38 35.5407 128.39 35.7607 128.32 35.8507C128.25 35.9407 127.95 35.9907 127.89 35.9007Z" fill="#90BEFB"/>
<path d="M214.21 28.1813L213.5 28.8913C213.15 29.2513 212.8 29.1113 212.38 29.1213C212.09 29.1213 211.69 29.2813 211.37 29.2513L210.4 29.1713C208.81 29.0513 209.44 29.2613 208.08 29.1213C207.82 29.0913 207.46 29.1713 207.2 28.9913C207.04 28.9913 206.79 29.1213 206.61 29.2113L206.04 29.0813C205.68 29.1413 205.4 29.1013 205.06 29.0813L203.09 29.0313L202.26 28.9613C202.02 28.9413 201.66 29.0913 201.45 29.1813C201.02 29.0813 200.6 29.0013 200.11 29.1513C199.89 29.1213 199.48 28.9013 199.26 28.9213L198.16 29.0213C197.84 29.0513 197.53 28.9813 197.27 28.9813H196.5C196.19 28.9913 195.9 29.2713 195.51 29.1113C195.07 28.9313 194.94 29.2713 194.27 29.0313L192.11 29.0613C191.75 29.0613 190.66 29.2213 190.18 29.0613C189.93 28.9813 189.69 28.9913 189.41 29.0613C189.18 29.1213 188.93 28.9613 188.69 28.8713C188.37 28.7613 187.88 28.9113 187.57 28.7913C187.27 28.6613 187.05 28.5513 186.71 28.5013L186.23 27.9613C186.27 27.5413 186.45 27.2113 186.67 26.8413L186.56 26.2213C186.85 25.5113 187.19 24.8613 187.44 24.1513C187.53 23.9013 187.47 23.5213 187.6 23.2713L187.92 22.6913C188.15 22.2713 188.34 21.9613 188.5 21.4813C188.57 21.2613 188.94 20.9613 189.11 20.7813C189.19 20.6913 189.22 20.3913 189.28 20.2913L190.07 19.1913C190.32 18.8313 190.61 18.6313 190.93 18.3613C191.15 18.1813 191.35 17.9213 191.6 17.7513C191.87 17.5713 192.08 17.3213 192.31 17.0913C192.91 16.8113 192.98 16.8013 193.6 16.4913C193.78 16.4013 194.04 16.3413 194.23 16.2313C194.74 15.9413 195.25 15.6013 195.79 15.4213C196.04 15.3413 196.24 15.3113 196.46 15.2013C196.47 15.2013 196.51 15.1813 196.56 15.1713C196.56 15.1713 196.58 15.1713 196.59 15.1613C196.61 15.1613 196.64 15.1413 196.66 15.1413C196.69 15.1413 196.72 15.1213 196.76 15.1113C196.87 15.0813 197.01 15.0413 197.15 15.0013C197.23 14.9813 197.3 14.9513 197.37 14.9313C197.51 14.8913 197.63 14.8513 197.7 14.8313C197.72 14.8313 197.73 14.8213 197.74 14.8213C197.76 14.8113 197.76 14.8113 197.74 14.8113L199.24 14.7013C199.51 14.6813 199.7 14.5413 199.95 14.7713L200.27 14.4713C200.34 14.4013 200.6 14.5113 200.67 14.5813C200.88 14.7713 201.04 14.5313 201.23 14.5613L202.48 14.7513C202.82 14.8013 203 14.7413 203.33 14.8813C203.52 14.9613 203.95 14.9013 204.11 15.0413C204.44 15.3213 204.83 15.3313 205.18 15.4813C205.45 15.6013 205.63 15.7913 206.01 15.8313C207.21 15.9313 207.83 17.1013 208.72 17.4413C209.63 17.7913 210.04 18.4913 210.42 19.3113C210.56 19.6213 211.12 19.8013 211.1 20.2513C211.26 20.3613 211.55 20.5313 211.62 20.6813L212.19 21.8913C212.39 22.3213 212.61 22.7113 212.78 23.1413L213.73 25.6313C213.87 25.9813 214.04 26.2913 214.1 26.7013C214.17 27.2013 214.37 27.7013 214.27 28.2113M218.58 29.7713C218.51 29.4513 218.75 29.0613 218.44 28.7813L218.7 28.1313L218.53 27.5713C218.63 27.2713 218.62 26.9313 218.5 26.6413C218.47 26.5613 218.47 26.3013 218.44 26.2113L218.03 24.9413L217.71 24.0913C217.58 23.7413 217.46 23.4013 217.33 23.0513L216.82 21.7213C216.7 21.4113 216.81 21.1113 216.45 20.8713C216.18 20.6913 216.17 20.3113 216.07 20.0513C216.01 19.8813 215.82 19.6313 215.82 19.4613C215.82 18.9613 215.44 18.7813 215.25 18.4113L214.88 17.6913L214.51 17.1913C214.45 16.7913 214.25 16.5213 213.91 16.3213C213.63 16.1513 213.39 15.8313 213.14 15.5813C212.14 14.5913 212.46 15.0313 211.59 14.2713C211.34 14.0513 210.98 13.8013 210.68 13.6013L209.68 12.9513C209.59 12.8913 207.89 12.2713 207.57 11.7713C207.34 11.4113 206.96 11.2213 206.56 11.4113C205.85 11.1813 205.12 11.1313 204.36 11.0313C204.16 11.0113 203.85 10.7713 203.64 10.7613L202.26 10.7113C202.01 10.7113 201.67 10.8113 201.44 10.7213C201.16 10.6113 200.9 10.5513 200.63 10.6613C200.42 10.7513 200.11 10.5413 199.94 10.5713L199.23 10.7113L198.41 10.7413C198.03 10.7513 197.75 10.8713 197.42 10.9113L196.53 11.0113C196.01 11.0713 195.71 11.2213 195.24 11.4113C195 11.5113 194.73 11.5513 194.48 11.6213C194.17 11.7113 193.93 11.8313 193.57 11.8113L192.99 12.0713L192.33 12.3613C192.07 12.4813 191.69 12.5613 191.54 12.7413C191.45 12.8513 191.18 12.9113 191.08 12.9713L190.51 13.2913C190.33 13.3913 190.09 13.4613 189.88 13.5313C189.54 13.6513 189.38 14.1413 189.12 14.3213L188.36 14.8513C188.18 14.9813 187.97 15.0513 187.85 15.2313C187.53 15.6913 187.26 16.2613 186.86 16.6013C186.58 16.8413 186.44 16.9413 186.27 17.2613C186.06 17.6413 185.62 17.9913 185.48 18.4113C185.24 19.1213 185.1 19.0813 184.68 19.7813L184.2 20.5913L183.63 21.8613C183.57 22.0013 183.35 22.1813 183.33 22.3313C183.21 23.3513 182.77 24.1213 182.73 24.3513L182.55 25.4513L182.25 26.4913C182.2 26.7813 182.52 27.1813 182.19 27.5013C181.87 27.8113 182.16 28.1913 182.14 28.5313C182.11 28.8513 181.89 29.2113 181.96 29.5713C182.03 29.9313 181.82 30.3513 181.86 30.6613C182 31.8213 181.8 32.3313 181.86 32.7913C181.91 33.1813 181.98 33.4013 181.91 33.8213C181.88 34.0113 181.96 34.4013 182.03 34.6013C182.33 35.4813 181.63 35.2413 182.15 35.7813C182.36 36.0013 181.97 36.2013 182.26 37.1713L182.48 37.9113C182.65 38.4613 182.88 39.0413 182.87 39.6213C182.87 39.9713 182.97 40.1313 183.07 40.4613L183.44 41.6813C183.55 42.0413 183.54 42.5113 183.75 42.8213C183.91 43.0513 184.13 43.2513 184.17 43.5113C184.33 44.5313 185.09 45.0313 185.33 45.5313C185.44 45.7713 185.48 46.0513 185.66 46.2613C186.26 46.9713 186.33 47.5013 186.79 47.9913L187.33 48.5513L187.98 49.2813L188.33 49.6013L188.28 49.7413C188.28 49.7413 188.27 49.8913 188.29 49.8813L188.51 49.8013C188.83 49.6813 188.65 50.3513 189.32 50.1713C189.45 50.6513 189.83 50.8913 190.3 51.0313C190.86 51.1913 190.9 51.4513 191.69 51.6013C192.36 52.2613 193.86 52.4313 193.89 52.4413C196.13 53.3013 195.3 52.7213 196.9 53.1913C197.5 53.3613 197.35 53.0513 198.6 53.1013C198.94 53.1113 199.29 53.4013 199.64 53.2613C199.94 53.1513 200.2 53.2113 200.38 53.4413H200.62C200.87 53.0913 201.23 53.2613 201.59 53.3213C201.9 53.3713 202.23 53.0813 202.56 53.4013L202.81 53.0213C203.12 53.0913 203.38 53.1913 203.69 53.3713L204.05 53.1113C204.33 53.2613 204.59 53.2213 204.8 52.9713L205.47 53.0613L206.54 52.6513C206.71 52.5813 206.91 52.3013 207.15 52.4113C207.53 52.5813 207.71 52.0713 207.94 52.0713C209.04 52.0713 207.84 52.0813 209.26 51.6713C209.49 51.6013 209.61 51.4113 209.84 51.3313L210.97 50.9713C211.33 50.5113 211.73 50.9513 211.89 50.5513C212.15 49.8813 212.84 50.0913 213.3 49.4013C213.51 49.0913 213.77 48.8713 214.02 48.5913L214.77 47.7713C214.98 47.5413 215.15 47.3713 215.29 47.0713L215.57 46.4913C216.35 45.9213 216.31 45.4613 216.91 44.5613C217.2 44.1313 217.34 43.7213 217.52 43.2313C217.75 42.6113 218.11 41.7413 217.89 41.1013C217.74 40.6713 217.62 40.2413 217.13 40.0713C216.93 40.0013 216.64 39.7813 216.45 39.7613L215.73 39.6613C215.42 39.6213 215.25 39.6613 215.01 39.7613C214.54 39.9513 214.26 40.1913 213.98 40.6013L213.63 41.1113C212.7 42.4713 212.89 42.5313 212.26 44.0513C212.18 44.2413 211.95 44.3313 211.79 44.4713C211.24 44.9513 211.08 45.4913 210.86 45.6513L210.11 46.2113C209.95 46.3313 209.66 46.4813 209.48 46.5813L208.65 47.0413L207.59 47.6713C207.39 47.7913 206.99 47.7913 206.71 47.8313L206.29 48.1213C205.87 48.1013 205.52 48.2213 205.22 48.4813L204.81 48.5713L203.62 48.8313C203.13 48.9413 202.72 48.9713 202.23 48.9813C201.56 49.0013 200.99 48.9813 200.34 48.7213C200.08 48.8013 198.79 48.7013 198.68 48.6313C197.96 48.2113 197.84 48.7213 197.09 48.4013C196.54 48.1613 195.98 48.0613 195.39 48.0113C194.85 47.9613 194.43 47.4513 193.96 47.2613L193.22 46.9613L192.64 46.7113C192.46 46.4013 192.22 46.2613 191.86 46.1013C191.63 45.9913 191.38 45.5913 191.15 45.4413C190.89 45.2813 190.7 45.1613 190.52 44.9413C189.91 44.1913 190.54 44.7913 189.95 44.1413C189.72 43.8913 189.49 43.5813 189.32 43.2913L188.51 41.9313C188.3 41.5713 188.16 41.2213 187.88 40.8713C187.57 40.4813 187.54 39.8713 187.35 39.4213L187.04 38.6613C186.97 38.5013 186.96 38.2113 186.96 38.0213L186.72 37.7513C186.66 37.6813 186.77 37.4513 186.76 37.3613L186.64 36.5113C186.49 35.4213 186.15 35.6913 186.33 34.9213L186.05 33.9513L186.32 33.2013L187.05 33.0213C187.31 33.0513 187.47 33.0713 187.67 32.9413C188.12 32.6413 188.24 33.1713 188.65 32.7313C188.77 32.6113 188.94 32.5813 189.06 32.6613C189.18 32.7413 189.29 32.8213 189.36 32.8413C189.6 32.9113 189.75 32.4013 190.16 32.7013C190.37 32.8613 190.57 32.8513 190.81 32.7213C191.02 32.6013 191.29 32.8813 191.47 32.8913L192.83 32.9613C193.19 32.9813 194.07 32.8613 194.89 32.9013L196.31 32.9613C196.68 32.9713 198.32 32.7613 198.88 32.9213C199.24 33.0213 199.56 32.9613 199.91 32.9713C200.3 32.9713 200.65 33.0113 201.04 32.9613C201.29 32.9313 201.59 32.8813 201.82 32.8813H202.8L204.06 32.9313C204.47 32.9313 204.86 32.9513 205.25 32.9913L206.39 33.1113C206.62 33.1313 206.88 32.9613 207.16 33.1113C207.37 33.2213 207.65 33.0913 207.9 33.1113L208.67 33.1613C208.84 33.1713 210.52 33.0813 210.42 33.0613C212.6 33.3813 211.86 32.9013 213.7 33.1813L214.22 33.0013C214.53 33.2813 214.79 33.2513 215.16 33.1913C215.99 33.2013 215.67 33.5013 216.64 33.1613C217.03 33.4013 217.31 33.1013 217.59 32.9513C218.08 32.7013 218.31 32.3913 218.51 31.9013C218.68 31.5013 218.7 31.2113 218.69 30.7713C218.68 30.4413 218.69 30.1313 218.61 29.7913" fill="#90BEFB"/>
<path d="M182.12 87.0902C182.28 88.3402 180.82 88.6902 179.81 88.7102L178.78 88.7302C178.26 88.7402 178.01 88.3602 177.65 87.9602C177.39 87.6702 177.44 87.3602 177.44 87.0002C177.44 86.4402 177.52 85.6202 177.7 85.1302C177.63 85.0002 177.51 84.7702 177.47 84.6502C177.44 84.5302 177.63 84.3002 177.72 84.1702L177.61 83.1702C177.44 83.0202 177.39 82.8902 177.47 82.6902L177.68 82.1602C177.41 81.8202 177.44 81.5302 177.66 81.1702C177.77 81.0002 177.7 79.8202 177.67 79.5002C177.55 78.2702 177.8 78.6402 177.67 77.2002C177.63 76.7502 177.64 76.3202 177.53 75.8802C177.44 75.5502 177.51 75.2802 177.67 74.9602L177.42 74.3602C177.59 74.0602 177.61 73.7902 177.42 73.5002L177.54 72.7502C177.47 72.3802 177.53 72.0702 177.57 71.7202C177.59 71.5002 177.29 71.2202 177.54 70.9602C177.68 70.8102 177.85 70.4202 177.78 70.2502C177.37 69.2602 178.08 69.8902 177.67 68.5302C177.72 68.3102 177.99 67.9102 177.95 67.6802C177.89 67.3102 177.93 67.0302 177.93 66.7002L177.91 65.8102C177.91 65.4602 177.89 65.0302 177.84 64.6902C177.82 64.5802 177.63 64.3702 177.66 64.2602C177.75 63.9302 177.77 63.5902 177.77 63.2802V62.2302C177.78 61.8702 177.75 61.5502 177.72 61.2102C177.69 60.8902 178.06 60.4202 177.53 60.1902C177.64 60.0502 177.77 59.8102 177.71 59.7102C177.57 59.4802 177.64 59.1202 177.59 58.9302L177.35 58.0402L176.93 56.7502C176.58 55.7002 176.19 55.2602 175.56 54.2702C175.32 53.8902 174.87 53.6102 174.6 53.2802C174.03 52.6102 173.46 52.1102 172.6 51.8902C172.27 51.8002 171.95 51.7302 171.6 51.7902C170.15 52.0502 170.03 50.7702 169.44 51.0702C168.85 51.3802 168.74 50.7002 168.44 50.8802C168 51.1402 168.18 51.1802 167.58 50.9502C166.88 51.2402 166.68 51.1402 165.98 51.3902L165.38 51.6002C165.2 51.6702 164.85 51.7002 164.7 51.7802L163.67 52.2702C163.4 52.4002 163.15 52.5802 162.88 52.7402C162.77 52.8102 162.47 52.8602 162.42 52.9802C162.33 53.2102 162.17 53.4202 161.9 53.4402C161.62 53.4702 161.49 53.8102 161.3 53.9402C160.72 54.3502 160.42 54.8802 160.04 55.4302C159.8 55.7702 159.57 56.1202 159.35 56.5002C159.18 56.7802 158.84 56.9302 158.75 57.3302C158.69 57.6102 158.32 57.9002 158.3 58.2102L158.23 59.1702C158.22 59.3902 158.04 59.6802 157.94 59.8202C157.63 60.2902 157.61 60.6202 157.66 61.1802C157.7 61.5402 157.43 62.0702 157.4 62.4802L157.33 63.4302C157.3 63.8602 157.26 64.2402 157.2 64.6402C157.15 64.9902 157.33 65.4102 157.06 65.7502L157.24 66.3002C156.89 67.6802 157.11 66.9802 157.02 68.3802C156.89 70.3602 157.12 69.2902 157.04 70.5302C156.97 71.5802 157.16 71.8002 157.01 72.4502C156.97 72.6102 157.12 72.9302 157.13 73.0802C157.09 73.4402 156.88 73.8402 156.86 74.1902C156.84 74.5602 157.11 75.0002 157.04 75.3502C156.97 75.6802 156.96 75.8802 157.02 76.2102C157.05 76.4002 156.92 76.7702 156.93 76.9702L157.01 77.9302C157.04 78.2702 157.01 78.6102 157.02 78.9502C157.03 79.3902 157.02 79.7102 156.87 80.1302L156.91 81.2002L157.2 81.9002C157.02 82.7402 157.44 82.1102 157.25 83.2902C157.2 83.6302 157.26 83.8702 157.45 84.1802C157.02 85.4102 157.22 84.5202 157.26 85.8902C157.28 86.4502 157.32 87.0502 157.3 87.6202C156.16 88.4502 156.87 88.3702 155.94 88.3002C154.08 88.1602 153.61 88.7502 153.01 87.5402C152.87 87.2602 152.79 87.0702 152.96 86.7202L152.55 85.9102C152.37 85.5602 152.82 85.7202 152.82 85.3502V84.7902C152.68 84.4702 152.77 84.2602 152.8 83.9202L152.89 82.8202C152.91 82.5402 153 82.3502 152.92 82.0702L152.69 81.1802L152.92 80.4002C152.83 79.7302 152.76 78.7302 153.06 78.1402L152.81 77.6102C153.16 77.2302 153.08 76.8502 153.03 76.3902C153.01 76.1902 153.11 75.8502 153.05 75.6602C152.93 75.2702 152.77 74.3302 152.9 73.9302L152.87 73.4602C152.85 73.1402 152.81 72.9002 152.7 72.5802L152.93 71.7002L152.75 71.0202C153.22 70.1402 152.49 70.6002 153.06 69.5702C152.67 68.7802 153.14 69.0202 153.12 67.9802L153.1 67.2102C153.1 66.8302 153.04 66.5402 153.22 66.2102C153.27 66.1202 153.36 65.8902 153.31 65.8102C153.26 65.7302 153.1 65.6202 153.03 65.5602L153.05 64.4702C153.05 64.1402 153.19 63.8502 153.11 63.5002C153.01 63.0702 153.17 62.5202 153.03 62.1102C152.93 61.8502 152.86 61.6802 152.85 61.4302L152.82 60.4002C152.8 59.6102 152.67 59.2502 152.49 58.4902C152.45 58.3202 152.23 58.1102 152.06 57.9602C152.18 57.4602 152.1 56.8902 151.73 56.4902C151.22 55.9302 151.27 55.3302 150.31 54.1702C150.16 53.9902 149.85 53.8602 149.74 53.6302C149.5 53.1602 149.11 52.9202 148.67 52.7002C148.42 52.5702 148.14 52.3302 147.88 52.2402C147.56 52.1202 147.27 52.0102 146.97 51.8602C146.59 51.6602 146.31 51.5702 145.86 51.7402C145.72 51.7902 145.68 51.4502 145.61 51.3602C145.31 50.9602 144.65 51.0502 144.19 51.2202C143.66 51.4102 142.97 50.8002 142.85 50.9402L142.65 51.1702L142.16 51.0902C141.82 51.2702 141.49 51.2502 141.13 51.1802L140.44 51.4702C140.22 51.5602 139.96 51.6402 139.72 51.7102C139.56 51.7602 139.3 52.0702 139.12 52.1002C138.66 52.1702 138.35 52.3502 137.97 52.5602C137.64 52.7502 137.28 52.8702 137.21 53.3402L136.63 53.4302C136.46 53.4602 136.3 53.8102 136.21 54.0202C136.14 54.1902 135.78 54.3102 135.7 54.4402L135.32 55.0402C135.22 55.2002 134.93 55.4302 134.85 55.5902L134.31 56.8102C134.22 57.0202 134.1 57.2302 133.98 57.4502L133.88 58.0502C133.65 58.3102 133.65 58.5802 133.76 58.9402C133.72 59.1602 133.43 59.5402 133.4 59.7702L133.31 60.5902C133.27 60.9502 133.1 61.3502 132.98 61.7002C133.4 62.7102 132.86 61.7502 132.93 63.5902C132.94 63.8702 132.77 64.1702 133.14 64.3402C133.05 64.6702 132.94 65.0102 132.91 65.3402C132.9 65.5402 133.02 65.8302 132.93 66.0002C132.57 66.6302 133.32 66.6202 132.88 67.3302C132.67 67.6702 132.64 68.0702 132.74 68.4602L132.57 69.0102C132.8 69.3302 132.66 69.7102 132.7 70.0402C132.78 70.6402 132.74 71.6602 132.6 72.2702C133.14 73.0902 132.32 72.9202 132.64 73.6402C132.82 74.0302 132.64 74.3202 132.61 74.6902C132.54 75.3502 132.65 76.0102 132.56 76.6702L132.52 76.9902C132.57 77.3602 132.49 77.6702 132.52 78.0402L132.61 79.0302C132.64 79.3202 132.52 79.6002 132.64 79.8502C132.9 80.3902 132.42 80.5402 132.57 80.7402L132.77 81.0102L132.74 81.9102C132.7 83.1902 132.98 82.3002 132.99 83.6902C132.99 83.9802 132.97 84.3102 133.01 84.6602L132.94 85.2602C133.31 86.6602 132.45 86.5502 132.7 87.5102C132.72 87.5802 132.74 87.7902 132.68 87.8202C132.45 87.9602 132.01 88.1802 131.67 88.1702L131.19 88.3702C130.18 87.9402 131.04 88.5502 129.51 88.1602C129.24 88.0902 128.79 88.2302 128.75 87.8002C128.64 86.6702 128.09 86.8502 128.66 86.2702L128.4 85.5902L128.66 85.1402C128.05 84.4502 129.13 84.3002 128.61 83.7802C128.14 83.3202 129.17 83.2902 128.46 82.5002C128.29 82.3202 128.52 82.0502 128.54 81.8502C128.56 81.5002 128.59 81.1502 128.59 80.8402C128.59 80.5302 128.56 80.2802 128.67 79.9702C128.77 79.6902 128.61 79.3502 128.66 79.0502L128.78 78.3702L128.7 77.5602L128.66 76.6402C128.65 76.2902 128.59 75.9902 128.59 75.6402V74.5602C128.61 74.2502 128.31 74.0302 128.65 73.7102C128.78 73.5802 128.68 73.2902 128.54 73.1102C128.42 72.9502 128.54 72.6102 128.54 72.3902C128.54 72.2002 128.45 71.8802 128.54 71.7502C129.12 70.9302 128.05 71.1902 128.67 70.3002L128.49 69.8102L128.7 69.2602L128.58 68.3602C128.81 68.0302 128.88 67.7402 128.72 67.3502L128.88 66.6702C128.32 65.9502 129.12 66.0102 128.82 65.2802C128.69 64.9702 128.75 64.6602 128.76 64.3402L128.8 63.4202L128.75 62.4902C128.72 61.9102 128.67 61.3102 128.75 60.7202C128.79 60.4602 128.77 60.2602 128.63 60.0602C128.32 59.6302 128.75 59.0602 128.64 58.6602C128.55 58.3402 128.37 58.0002 128.6 57.7202C128.71 57.5902 128.52 57.2102 128.52 57.0602C128.52 56.0902 128.35 56.0002 128.7 55.5102C128.97 55.1202 128.79 54.7602 128.76 54.3802C128.74 54.0302 128.8 53.6602 128.68 53.3202L128.47 52.7502L128.64 52.0802C127.71 51.1302 129.21 51.0102 127.97 50.2902L128.23 49.7502L127.99 49.1302L128.43 48.2802C128.51 48.1302 128.78 47.9002 128.92 47.7702C129.23 47.9902 129.52 47.9102 129.83 47.9102C130.23 47.9102 130.63 48.0302 131.01 47.7402L131.58 48.0202L132.03 47.7602L132.69 48.3102C132.43 49.6002 133.1 49.6402 133.05 49.8102L132.94 50.1902C132.92 50.2802 133.18 50.4002 133.16 50.4902C133.07 51.1002 132.97 50.7202 133.02 51.1402C133.02 51.2102 133.28 51.2302 133.33 51.1802L134.02 50.4902C134.47 50.0402 134.83 49.9902 135.53 49.8102L135.95 49.4602C137.3 48.3602 135.93 49.1002 137.58 48.1502C137.8 48.0302 138.03 47.9502 138.26 47.8402C138.41 47.7702 138.57 47.7702 138.75 47.7402C139.18 47.6702 139.6 47.4702 140.05 47.5002L141.52 47.5802C141.81 47.6002 142.07 47.5502 142.36 47.5302C142.63 47.5102 142.98 47.6602 143.3 47.5902L144.02 47.4202L144.63 47.5602C144.9 47.3202 145.29 47.3602 145.54 47.5202C145.66 47.5902 145.96 47.4702 146.09 47.4702C146.51 47.5002 147.04 47.5802 147.45 47.6802C147.62 47.7202 147.91 48.0102 148.06 47.9902C148.31 47.9702 148.55 47.9402 148.74 48.0602C149.84 48.7002 150.62 48.7102 151.19 49.4602C151.88 49.4602 152.23 49.9602 152.66 50.3702L153.65 51.3002C153.99 51.6202 154.51 51.8402 154.67 52.3302C154.88 52.9702 155.2 53.5602 155.86 53.8902C156.09 54.0102 156.36 53.6702 156.4 53.4302C156.56 52.6002 157.09 52.8202 157.47 52.1202C157.65 51.7902 157.91 51.6802 158.21 51.4802C158.45 51.3102 158.61 50.8802 158.89 50.7602C159.23 50.6102 159.4 50.3902 159.68 50.1602C159.79 50.0702 160.88 49.5102 160.99 49.3402C161.15 49.0902 161.41 49.1402 161.58 49.0302C162.11 48.6902 162.61 48.3902 163.2 48.1602C163.52 48.0302 164.27 47.7002 164.66 47.6202C164.92 47.5702 165.12 47.5202 165.36 47.3902C166.09 47.3402 166.03 47.0202 166.51 47.4402C167.05 47.3802 167.67 47.4202 168.12 47.4802C168.35 47.5102 168.7 47.3102 168.97 47.5302C169.11 47.6402 169.51 47.4502 169.67 47.4002L170.35 47.5502C170.59 47.4602 170.84 47.3902 171.05 47.5002C171.4 47.6902 171.7 47.5602 172.06 47.5802C172.61 47.6002 173.18 48.0102 173.73 48.0702C174.11 48.1102 174.35 48.1902 174.67 48.3402C175.12 48.5502 175.55 48.6602 175.86 49.0902C176.06 49.3502 176.43 49.5102 176.65 49.7202C176.92 49.9702 177.11 50.1302 177.44 50.3202C177.62 50.4202 177.81 50.7702 178.01 50.9002C178.35 51.1302 178.54 51.4302 178.79 51.7302C179.4 52.4902 179.8 53.4102 179.78 53.4102L180.4 54.2402L180.34 54.7002C180.76 54.9902 180.78 55.4602 180.86 55.9002C180.93 56.3002 181.2 56.7302 181.15 57.1302C181.08 57.7002 181.3 58.2302 181.35 58.7802C181.38 59.2102 181.15 59.6602 181.65 59.9902L181.46 60.8302C181.52 61.2802 181.75 61.7602 181.73 62.1502C181.71 62.4202 181.56 62.6902 181.66 62.9402L181.97 63.7402L182.02 64.6002L181.84 65.4302C182.2 65.7002 181.9 65.9902 181.9 66.2602C181.93 67.6802 182.03 68.3102 181.84 69.7402C181.8 70.0402 182.14 70.4102 181.72 70.6902L181.98 71.2502C181.78 71.6102 181.96 71.9102 181.96 72.2502V73.3002C181.97 73.4402 181.81 73.7702 181.88 73.8802C182.35 74.6602 181.57 74.8302 181.86 75.2402C182.23 75.7802 181.44 75.7902 181.7 76.6902C181.88 77.2902 181.4 77.3302 181.79 77.8702C181.98 78.1302 181.51 78.1102 181.79 79.0102L181.64 79.6602C182.06 80.4202 181.45 80.4702 181.67 80.8102C181.83 81.0502 181.71 81.4302 181.67 81.7202C181.61 82.2302 182.05 82.8002 181.88 83.3302C181.8 83.5802 181.76 83.7802 181.91 84.0502C181.98 84.1802 181.81 84.4902 181.8 84.6502C181.78 84.8402 181.87 85.1502 181.84 85.3102C181.76 85.6402 181.86 85.8102 181.89 86.0902L182.02 87.1002L182.12 87.0902Z" fill="#90BEFB"/>
<path d="M93.4304 83.3611C93.2504 83.6511 93.1204 83.8611 92.7604 83.9811C92.1104 84.2011 91.7104 83.8511 91.7704 83.6711C91.9304 83.1511 92.3204 83.5011 92.4104 83.2511C92.4404 83.1711 92.3604 82.9811 92.2804 82.9711C92.2004 82.9611 92.0604 83.0511 91.9804 83.1111C91.5504 83.4011 91.0704 83.1111 90.6104 83.0111C90.2704 82.9311 89.8504 83.0011 89.5604 82.7811C89.1804 82.4911 89.0404 82.0011 88.8104 81.6211C88.5904 81.2711 88.4404 80.9611 88.3104 80.5711L87.9204 80.0311C87.6904 79.7211 87.5904 79.4711 87.4304 79.1511C87.3104 78.9111 86.8504 78.6411 86.7704 78.3311C86.6404 77.8311 85.7604 77.1111 85.3504 76.8111C85.1904 76.7011 84.9604 76.6711 84.8804 76.4711L84.3804 76.3811C84.1004 76.3311 83.8704 76.3811 83.6004 76.4911C83.4404 76.5511 83.0904 76.3311 82.9104 76.3111C82.2504 76.2511 82.6804 76.1511 81.8204 75.4611L80.6004 75.1811C80.4904 75.1611 80.3204 74.9211 80.2004 74.9211C79.9304 74.9211 79.5704 74.8611 79.3104 74.8011C79.1804 74.7711 78.8604 74.8711 78.7504 74.7911C78.5204 74.6211 78.3404 74.7611 78.1104 74.7911C76.8804 75.0111 76.8204 74.6711 76.3604 75.0911L76.0704 74.9311C76.0004 74.8911 75.8204 75.0711 75.7404 75.0811C75.2604 75.1711 74.7404 75.1711 74.2604 75.3011C74.1504 75.3311 73.9904 75.5611 72.9504 75.8311C72.7204 75.8911 72.4904 76.2511 72.2604 76.3411C71.9904 76.4511 71.8604 76.5811 71.6704 76.7311C71.4704 76.8911 71.1604 76.9311 71.0604 77.2311C70.9404 77.5611 70.5904 77.5811 70.4004 77.7711L69.7504 78.3911C69.6104 78.5311 69.2204 78.6111 69.1204 78.7711C68.9304 79.0511 68.8104 79.4011 68.5804 79.5811C67.7904 80.1811 67.7804 80.3211 67.3704 81.0411L66.6404 82.3111C66.1504 83.1611 66.0304 82.7911 65.8604 83.4311C65.8004 83.6611 65.7004 83.8211 65.5704 84.0311C65.4204 84.2511 65.4104 84.6311 65.3204 84.9011L65.0804 85.6211C65.0104 85.8411 65.0004 86.1311 64.9504 86.3611L64.7604 87.2011C64.7104 87.4211 64.6904 87.6411 64.6904 87.8711V88.6011C64.6904 88.7911 64.5004 89.1411 64.4304 89.3611C64.1804 90.2711 64.6204 89.5311 64.2704 90.6911C64.5104 90.9911 64.3304 91.4511 64.4104 91.7511L64.6504 92.7311C64.9904 94.1611 64.6804 94.9411 65.0904 96.7911L65.2504 97.5011C65.3704 98.0411 65.7104 99.0311 66.0604 99.4811C66.1304 99.6011 66.2204 99.9011 66.2704 100.051C66.6004 100.281 66.6704 100.621 66.6804 101.001C66.8304 101.161 67.1004 101.411 67.1904 101.581L67.3304 101.841C67.4104 101.991 67.8604 101.691 67.9704 101.901C68.0104 101.971 67.9904 102.171 67.9604 102.251C67.6304 103.011 68.1104 102.481 68.3604 103.411C68.4304 103.661 68.9104 103.801 69.0104 103.991C69.1604 104.271 69.2704 104.491 69.5204 104.691C69.7204 104.851 69.9204 105.061 70.1304 105.181C70.9304 105.661 70.5904 105.761 72.2904 106.611L73.3204 107.121C73.6004 107.261 74.5304 107.251 75.1104 107.461C75.3604 107.901 75.7904 107.561 76.0304 107.621C76.5704 107.751 77.0204 107.811 77.5904 107.781L78.3804 107.751L79.3004 107.971L80.2504 107.671C80.8104 107.491 81.2804 107.831 82.7504 107.011C83.1204 106.801 83.5304 106.751 83.9004 106.601C84.0804 106.531 84.3004 106.341 84.5604 106.251C84.8904 106.141 85.2104 105.841 85.5104 105.641L86.0404 105.271C86.2604 105.121 86.6204 104.891 86.7904 104.711L87.9004 103.551C88.0304 103.411 88.2204 103.101 88.3404 102.901C88.5504 102.541 88.6404 102.081 88.7804 101.671L88.9904 101.031C89.0804 100.751 89.0804 100.481 89.2604 100.241C89.8804 99.4011 90.0704 99.6111 90.4004 99.5611C90.7704 99.5011 91.1204 99.1711 91.5404 99.4911L91.9804 99.1711L92.6104 99.4711C92.7304 99.5311 92.8904 99.5911 92.9604 99.6511C93.0304 99.7211 93.0304 99.9511 93.0004 100.051C92.9404 100.261 93.0304 100.401 93.1004 100.581C93.2804 101.051 92.8204 101.521 92.7104 101.951C92.5704 102.481 92.4004 102.871 92.1604 103.341L91.8904 103.871L91.6404 104.351L91.2004 105.271C91.0604 105.571 90.8604 105.841 90.7104 106.121L90.3604 106.741C90.1804 107.051 89.7204 107.271 89.5604 107.511C89.2604 107.931 89.0804 108.121 88.5804 108.371C88.4004 108.461 88.1504 108.671 87.9204 108.761L87.3604 109.001C87.1204 109.101 86.8404 109.341 86.5804 109.381C86.1104 109.461 85.5404 109.411 85.1904 109.761C84.9504 110.001 84.7704 110.101 84.4304 110.221L83.4604 110.561C83.1904 110.661 82.9604 110.671 82.7004 110.771C80.4504 111.651 80.5604 110.771 78.7004 111.401C78.3304 111.531 77.9204 111.241 77.5604 111.191C77.2604 111.141 76.9204 111.111 76.6304 111.101C76.3704 111.101 76.0704 111.181 75.8204 111.081C75.2504 110.861 74.8504 111.301 72.8904 110.631L72.1304 110.371C71.7104 110.231 71.3604 110.111 70.9004 110.091C70.7104 110.091 70.5404 109.881 70.4104 109.811C69.9704 109.581 69.4404 109.501 69.2504 108.971L68.7104 109.111C68.3804 108.641 67.9904 108.291 67.5104 107.991L66.6304 107.431C66.4004 107.281 66.2704 106.981 66.0904 106.801C65.8304 106.541 65.4504 106.401 65.3504 106.001L64.9704 105.681C64.6404 104.631 64.3304 105.351 64.0404 104.351C64.0004 104.201 63.7004 104.001 63.6204 103.851L62.8304 102.391C62.7604 102.251 62.5204 102.131 62.4704 101.961C62.4104 101.741 62.3704 101.491 62.3104 101.321C61.8204 100.041 61.9804 99.9511 61.4304 98.6911C61.3704 98.5511 61.3904 98.3211 61.3504 98.1911C61.2204 97.7111 61.0904 97.2611 61.0304 96.7511C60.8804 95.6411 60.4104 95.9311 60.8704 95.3111L60.4404 94.8511L60.4104 93.8711C60.4104 93.7911 60.5404 93.5911 60.5204 93.5211C60.5004 93.4311 60.4004 93.3411 60.2904 93.2111L60.4504 92.7111C60.1804 92.2311 60.2904 91.7511 60.3704 91.2811C60.4004 91.0911 60.3804 90.8311 60.4504 90.6411C60.6804 90.0611 60.0004 90.1211 60.4004 89.6211C60.5704 89.4111 60.5904 89.1211 60.4204 88.8811C60.2304 88.6111 60.6504 88.5211 60.7504 87.6811C60.2504 86.9711 61.1704 86.6211 60.8804 85.9311C60.6804 85.4611 61.0304 85.1511 61.1004 84.7811C61.1904 84.3111 61.2204 83.8511 61.3904 83.3711C61.5204 83.0111 61.8004 82.6311 61.8604 82.2811C61.9104 81.9411 61.9104 81.7211 62.0904 81.4311C62.8004 80.2111 62.7204 80.7911 62.7104 80.1611C62.7104 80.0911 62.9104 80.0111 62.9404 79.9511C63.3304 79.1511 63.1804 79.0511 63.4904 78.6911L63.9004 78.2011C64.0004 78.0811 64.2304 77.8711 64.2904 77.7411C65.0004 76.2711 65.4404 76.8211 65.7004 75.8711L66.1504 75.6811C66.2204 75.4411 66.3204 75.3511 66.4804 75.2011L67.0204 74.7111C67.3004 74.4511 67.5804 74.1311 67.8904 73.9311C68.1104 73.7811 68.3704 73.7211 68.4804 73.4811C68.6304 73.1411 69.0004 73.1311 69.2404 72.9511L69.8704 72.4711C70.1604 72.2511 70.3704 72.1311 70.7204 72.0211C71.7104 71.7211 71.4004 71.6911 72.6604 71.4211L73.9104 71.1511C74.0304 71.1211 74.2804 71.0311 74.4104 71.0711C74.7004 71.1711 75.0604 71.0511 75.3704 71.0111L76.4904 70.8411C77.4404 70.7011 77.1804 70.8511 77.9204 70.6811C78.3804 70.8411 78.8304 70.8611 79.2804 70.6211C80.0204 71.3311 79.6304 70.6011 81.1404 71.0311C81.3204 71.0811 81.5804 71.2511 81.7404 71.2311C82.0604 71.1911 82.3404 71.2611 82.6604 71.3211L83.5904 71.4911C83.9404 71.5511 84.2504 71.5811 84.5604 71.7411L85.9404 72.4411L86.9704 73.0011C87.8304 73.4711 88.0404 73.2111 88.7204 74.1611C88.9004 74.4111 89.2304 74.6611 89.4504 74.9111L90.3004 75.8311C90.7504 76.3211 90.7404 76.5711 91.2704 77.0911C91.4604 77.2711 91.5404 77.5111 91.6504 77.7611L91.9304 78.3611C92.2204 78.9911 92.8404 79.5511 92.6304 80.1011C92.7104 81.1311 93.0404 81.0311 93.2304 81.7111C93.8004 82.1411 93.8404 82.7911 93.4604 83.3811" fill="#90BEFB"/>
<path d="M124.57 20.0105C124.48 20.3605 124.49 20.6705 124.51 21.0205L124.56 21.9105C124.58 22.2205 124.2 22.6105 124.49 22.9805C124.18 24.1305 124.46 23.7205 124.13 25.0405L123.93 25.8305C123.83 26.2105 123.79 26.6105 123.72 27.0105L123.55 28.0505C123.51 28.3105 123.39 28.6205 123.31 28.9105C122.74 31.0005 122.89 29.9205 122.48 30.6805C122.03 31.4905 121.75 32.0305 121.09 32.7505L120.05 33.8905C119.69 34.2905 119.17 34.4905 118.74 34.7505L117.59 35.4405C117.33 35.5905 117.09 35.7905 116.82 35.9305L116.19 36.2405C116.28 36.1805 116.07 36.2405 115.77 36.3405C115.66 36.3805 115.54 36.4105 115.42 36.4605C115.37 36.4805 115.32 36.4905 115.28 36.5105C115.21 36.5305 115.13 36.5605 115.07 36.5805C115 36.6005 114.94 36.6305 114.88 36.6505C114.84 36.6605 114.8 36.6805 114.77 36.6905C114.74 36.7005 114.7 36.7105 114.68 36.7205C114.61 36.7505 114.57 36.7605 114.56 36.7705C113.69 37.1705 112.84 37.1905 111.89 37.2705C111.55 37.3005 111.19 37.3405 110.84 37.3605C110.15 37.3905 109.47 37.4805 108.79 37.1205L108.28 37.2105C107.84 36.9805 107.41 36.8105 106.99 36.6305C106.62 36.4805 106.4 36.4105 105.98 36.4705C105.62 36.5205 105.18 36.1605 104.86 36.0005C104.53 35.8405 104.26 35.7005 103.97 35.5105C103.7 35.3405 103.37 35.2105 103.11 35.0105C102.31 34.4205 102.85 34.5905 102.15 34.0505C101.97 33.9105 101.7 33.7105 101.56 33.5505L100.63 32.4805L100.11 31.8805C99.8899 31.6205 99.7899 31.3305 99.6699 31.0305L98.9199 29.3105L98.5599 28.3205C98.2299 27.4305 97.9999 26.6305 97.8399 25.6705L97.6299 24.3905L97.5199 23.6705C97.6199 23.2705 97.5099 22.9405 97.4599 22.5505C97.4299 22.2605 97.5999 21.8805 97.2799 21.6405C96.9299 21.3805 97.7199 21.0405 97.3199 20.6505C97.1599 20.5005 97.2599 20.2405 97.2299 20.0805C97.1199 19.6105 97.2999 19.2905 97.3599 18.8605L97.6099 17.1105C97.6799 16.5805 97.9199 16.1205 97.9499 15.6005L98.0299 14.3905C98.0299 14.3905 98.0399 14.3605 98.0599 14.3005C98.0699 14.2605 98.0899 14.2005 98.1099 14.1405C98.1299 14.0705 98.1599 13.9905 98.1799 13.9105C98.2099 13.8005 98.2499 13.6705 98.2899 13.5405C98.3099 13.4705 98.3299 13.4105 98.3499 13.3405C98.5199 12.7905 98.7099 12.2005 98.7899 12.0605C99.4399 10.8705 98.7799 11.7205 99.4599 10.6605L99.8899 9.98054C100.1 9.65054 100.38 9.42054 100.66 9.14054C101.07 8.72054 101.34 8.15054 101.73 7.91054C102 7.74054 102.22 7.42054 102.46 7.23054L103.16 6.70054C103.82 6.21054 103.78 6.88054 104.23 5.70054L104.76 5.68054C104.91 5.25054 105.29 5.16054 105.68 5.07054L106.17 4.85054L106.45 4.49054C107.1 4.94054 107.28 4.18054 108.9 4.38054C109.05 4.40054 109.38 4.28054 109.51 4.36054C110.15 4.77054 110.13 4.00054 110.58 4.32054C111.11 4.69054 110.98 3.78054 111.75 3.95054L112.48 4.11054C112.62 4.12054 112.93 3.87054 113.01 4.09054L113.13 4.38054C113.22 4.61054 113.6 4.05054 113.71 4.16054L113.97 4.42054C114.32 4.18054 114.64 4.19054 114.97 4.50054C115.11 4.63054 115.46 4.73054 115.65 4.83054C115.9 4.97054 116.1 5.05054 116.41 5.04054L116.83 5.42054C117.33 5.43054 117.66 5.73054 117.74 6.25054C118 6.08054 118.28 6.22054 118.41 6.36054C118.48 6.45054 118.77 6.44054 118.86 6.48054L119.72 6.89054C119.94 7.29054 120.22 7.59054 120.61 7.84054C120.82 7.97054 120.81 8.33054 120.93 8.49054C121.04 8.63054 121.33 8.79054 121.43 8.99054C121.59 9.28054 121.77 9.45054 122.08 9.55054L122.25 10.9605L122.66 11.3405C122.7 11.6505 122.8 11.8405 122.96 12.0905L123.6 13.1005C123.54 13.8905 123.73 13.2705 123.93 14.2505C124.01 14.6305 124.03 14.9305 124.04 15.3105C124.1 16.6405 124.37 16.1105 124.47 17.2905L124.54 18.1805C124.58 18.6205 124.58 19.0005 124.55 19.4405C124.55 19.5805 124.64 19.8705 124.6 20.0105M128.13 18.4205C128.13 17.9705 128.07 17.5605 128.05 17.1305L128.01 16.0005C128 15.6205 127.93 15.2005 128.01 14.8205L128.15 14.0705C128.04 14.0005 127.84 13.8605 127.85 13.7705C127.85 13.2905 127.73 12.7305 127.61 12.2905L127.78 11.7905L127.27 11.8605C127.32 11.5505 127.21 11.2405 126.96 11.0405L127.02 10.5905C126.43 9.85054 126.24 9.31054 126 8.46054C125.97 8.36054 125.24 7.46054 125.21 6.96054C125.06 6.80054 124.77 6.54054 124.57 6.35054L124.4 5.97054C123.96 5.71054 123.75 5.26054 123.52 4.84054C123.23 4.73054 122.92 4.54054 122.68 4.34054L121.92 3.74054C121.22 3.18054 121.11 3.24054 120.45 2.75054L119.98 2.41054C119.83 2.30054 119.57 2.16054 119.4 2.06054L118.8 1.75054C118.36 1.52054 117.94 1.53054 117.28 1.22054L116.19 0.710542L115.7 0.980542C115.49 0.550542 115.17 0.610542 114.83 0.490542C114.48 0.380542 114.17 0.320542 113.78 0.260542L112.82 0.120542C112.57 0.0805425 112.26 0.100542 112.03 0.100542C111.86 0.100542 111.56 -0.0394575 111.39 -0.00945752C110.56 0.140542 109.82 0.170542 108.98 0.150542L108.52 0.300543C108.11 0.180543 106.92 0.240542 106.63 0.600542L105.49 0.670542C105.38 0.810542 105.27 0.970543 105.17 1.00054C105.09 1.02054 104.9 0.920542 104.8 0.880542C104.49 1.02054 104.13 1.22054 103.81 1.33054L103.27 1.52054L102.63 1.76054L102.03 1.97054C101.95 2.31054 101.6 2.25054 101.37 2.38054C101.14 2.51054 101.03 3.03054 100.69 3.09054C99.5799 3.27054 100.57 3.45054 99.5299 3.78054C99.4499 3.85054 99.3599 4.15054 99.2599 4.24054L98.0999 5.28054C97.9499 5.41054 97.8399 5.63054 97.6699 5.73054C97.3399 5.94054 97.2399 6.22054 97.1599 6.60054L96.7199 7.10054C96.0199 7.90054 96.4999 7.98054 95.7299 9.23054C95.5199 9.57054 95.4299 10.0605 95.1999 10.3605C94.8899 10.7305 94.8499 11.0805 94.8099 11.5405C94.7799 11.7205 94.6799 12.0705 94.6299 12.2605L94.3499 13.2005L94.0599 14.0005C94.0799 14.5005 93.8999 14.9205 93.8099 15.4005C93.8099 15.6705 93.8499 16.0505 93.8099 16.3505L93.5599 18.0805C93.5199 18.3605 93.7799 18.6505 93.5299 18.9905C93.2799 19.3305 93.3999 19.7805 93.3999 20.1605C93.3999 20.6205 93.3499 21.3205 93.5799 21.7705L93.4399 22.2905C93.5399 22.5405 93.5599 22.7605 93.5899 23.0305L93.6799 23.7305C93.7199 24.0305 93.6899 24.2005 93.7699 24.5005C93.8599 24.8605 93.8599 25.2905 93.9799 25.6705C94.3099 26.7105 94.1799 27.4505 94.6999 28.8605L95.1899 30.1405C95.2899 30.4105 95.4199 30.7105 95.5299 30.9705C95.5899 31.1105 95.9299 31.1105 95.8199 31.4105C95.7599 31.5905 95.9399 31.7305 96.0399 31.8805C96.5399 32.6405 96.1399 32.3205 96.6399 33.1005L97.1999 33.9805C97.3999 34.2905 98.4499 35.5805 98.6999 35.8405L99.1699 36.3305C99.5799 36.7505 99.9299 37.1305 100.41 37.4805C100.7 37.6905 101 37.9205 101.31 38.0905L102.83 38.9005C102.98 38.9805 104.19 39.4705 104.42 39.5505C105.27 39.8405 105.17 39.5405 105.96 39.9805C106.35 40.2005 106.87 40.1405 107.3 40.2205L108.9 40.5105C109.45 40.6105 110.38 40.4605 111.13 40.4505C112.43 40.4205 112.55 40.5705 113.8 40.3605C114.1 40.3105 114.55 40.1805 114.81 40.1605C115.39 40.1405 115.74 40.1005 116.23 39.9005L116.9 39.6305C117.33 39.4605 117.82 39.4105 118.2 39.1605C118.43 39.0105 118.64 38.9105 118.88 38.7805L119.46 38.4705L120.05 38.0005C120.13 37.9405 120.47 38.0505 120.52 37.9605L120.69 37.6705C120.98 37.7405 121.18 37.7405 121.4 37.6205C121.58 37.5205 121.65 37.2105 121.78 37.1105C122.33 36.6905 122.89 36.2705 123.19 35.6905L123.59 35.7705L123.5 35.1605C123.88 35.1605 124.11 34.9805 124.13 34.6605C124.15 34.3605 124.52 34.3305 124.61 34.1905C124.71 34.0305 124.82 33.6605 125.05 33.6005C125.14 33.5805 125.14 33.2805 125.2 33.2105L125.73 32.5005C125.69 32.0105 125.86 31.6005 126.12 31.2105C126.35 30.8605 126.46 30.4205 126.62 30.0205C126.95 29.1605 126.59 29.6405 127.12 28.6105C127.26 28.3305 127.23 28.1405 127.09 27.8905C127.36 27.3805 127.58 26.8205 127.7 26.2505C127.96 24.9805 127.64 25.5305 127.93 24.3605C128.03 23.9705 127.9 23.4605 128.02 23.0705C128.17 22.5905 128.09 20.3005 128.1 19.6805L128.12 18.4205H128.13Z" fill="#90BEFB"/>
<path d="M219.04 17.8105L218.38 18.1405C218.38 18.1405 218.4 18.1305 218.41 18.1205L219.04 17.8105Z" fill="#90BEFB"/>
<path d="M31.19 107.1C31.4 107.51 31.27 107.88 31.28 108.31C31.29 108.72 31.31 109.1 31.28 109.5C31.2 110.71 31.36 110.2 31.04 111.39C30.75 112.47 31.37 112.21 30.56 112.78L30.66 113.43C30.43 113.67 30.37 113.88 30.31 114.17L30.16 114.92C29.95 115.98 29.52 115.9 29.63 116.68C29.72 117.27 29.21 117.66 29.06 118.13C28.97 118.4 28.92 118.68 28.79 118.92L28.21 120.01C28.02 120.37 27.99 120.48 27.56 120.62C27.28 120.71 27 121.16 26.79 121.38L26.12 122.1L25.71 122.25C25.5 122.65 25.19 122.95 24.78 123.15L23.85 123.63C23.62 123.75 23.43 123.82 23.2 123.96C22.93 124.12 22.57 124.19 22.26 124.32C22.03 124.42 21.67 124.65 21.45 124.64C21.38 124.64 21.25 124.45 21.19 124.47C21.12 124.49 21.02 124.55 20.91 124.63C20.37 125 18.67 125.46 18.02 125.17C17.76 125.05 17.57 125.08 17.25 125.11C16.91 125.15 16.36 124.97 16.03 124.98C15.3 125.24 14.77 124.94 14.12 124.7L13.29 124.4C13.08 124.32 12.84 124.26 12.59 124.19C12.41 123.8 12.03 123.48 11.57 123.5C11.1 123.52 11.04 123.21 10.78 122.99C10.49 122.75 10.07 122.72 9.87 122.27C9.77 122.04 9.31 121.87 9.17 121.67C8.91 121.21 8.73 120.81 8.36 120.46L7.94 120.07C7.81 119.96 7.75 119.62 7.62 119.46C7.36 119.14 7.2 118.8 7.04 118.43L6.45 117.1L5.85 115.96C5.13 114.6 6.04 115.48 5.41 114.23C5.29 113.98 5.18 113.48 5.17 113.18C5.16 112.75 5.08 112.53 4.95 112.18L4.55 111.09C4.95 110.68 4.41 110.33 4.35 109.61C4.47 109.21 4.43 108.98 4.27 108.62C4.09 108.24 4.22 107.7 4.23 107.29V106.7C4.23 106.41 4.25 106.17 4.29 105.89L4.55 103.92C4.63 103.33 4.66 102.5 5.04 101.94C4.75 101.29 5.02 100.86 5.26 100.1C5.39 99.6802 5.56 99.3602 5.75 98.9902L6.18 98.1602C6.38 97.7802 6.53 97.4302 6.79 97.0802C7.41 96.2102 6.83 97.2902 7.47 96.1002C7.52 96.0002 7.54 95.6902 7.63 95.6202L8.24 95.1102L9.07 94.2302C9.13 94.1702 9.1 93.8702 9.18 93.8602C9.26 93.8602 9.41 93.8602 9.55 93.8902C9.66 93.6002 9.91 93.3502 10.25 93.2302L10.48 92.6602C11.13 92.1602 11.87 91.8602 12.6 91.5002L13.25 91.1902C13.43 91.1002 13.64 91.0802 13.86 91.1102C14.18 90.6902 14.79 90.4401 15.3 90.6301C15.8 90.1001 15.49 90.4302 16.61 90.3602C16.96 90.3402 17.25 90.2702 17.56 90.0402C18.08 90.5002 18.74 90.5302 19.38 90.4302C19.81 90.3602 20.24 90.6902 20.65 90.7102C20.78 90.7102 21.11 90.6102 21.23 90.6502C21.35 90.6902 21.48 90.8702 21.57 91.0102C22.01 91.7302 22.22 90.7102 22.97 91.6502C23.8 91.7002 24.55 92.0401 25.14 92.6301C25.3 92.7901 25.71 92.8202 25.74 93.1502L26.25 93.3002C26.37 93.3302 26.42 93.6402 26.49 93.7502C26.72 94.0802 27.04 94.3202 27.32 94.6002C28.18 95.4302 27.76 95.2302 28.41 96.2102C28.58 96.4702 28.71 96.7202 28.83 97.0002L29.25 97.9402C29.73 99.0002 29.95 99.1702 30.33 100.29C30.38 100.43 30.46 100.6 30.47 100.75C30.55 102.16 30.85 102.43 30.96 103.04C31.01 103.3 31.01 103.69 31.05 103.97L31.25 105.42C31.32 105.95 30.91 106.7 31.12 107.13M35.69 107.61L35.66 106.42C35.66 106.09 35.66 105.78 35.61 105.43L35.5 104.53C35.47 104.29 35.66 104.04 35.5 103.86C35.24 103.56 35.37 103.32 35.57 103.03L35.24 102.16C35.2 102.05 35.03 101.79 35.12 101.69C35.78 100.93 34.69 100.93 35.1 100.36C35.2 100.23 35.12 100 35.05 99.8302L34.72 98.9602C34.55 98.5302 34.76 97.5101 34.01 96.9501C33.52 96.5901 34.03 96.1902 32.99 95.2102C32.67 94.9202 32.59 94.6602 32.57 94.2502L32.19 93.7602C31.86 93.3302 31.63 92.8902 31.38 92.4302C31.21 92.1202 30.91 91.9202 30.68 91.6802C30.39 91.3702 30.19 90.8802 29.92 90.5302C29.43 90.4602 29.11 90.1801 29.03 89.6301L28.48 89.5802C28.25 89.2302 27.94 89.0102 27.62 88.7502C27.43 88.6002 27.29 88.5302 27.06 88.4102L26.17 87.9702C26 87.8802 25.81 87.8002 25.67 87.6702C24.77 86.8102 24.66 87.5402 24.23 87.2202L23.48 86.6602L22.66 86.6402L22.14 85.9802L21.69 86.1802C21.5 86.2702 21.28 86.3802 21.08 86.4902C21.01 86.4002 20.81 86.1302 20.69 86.1702C20.54 86.2202 20.37 86.3002 20.31 86.2502L20 86.0201C19.88 86.0901 19.72 86.2501 19.61 86.2701C19.49 86.3001 19.23 86.1902 19.1 86.1402L18.26 85.8102C17.89 85.6702 17.71 86.2802 17.57 86.1802C17.21 85.9402 17.44 85.7502 17.08 85.5302C16.82 85.3802 15.88 85.8702 15.63 86.0402C15.3 86.2602 14.99 86.4202 14.6 86.0802L13.72 86.5201C13.63 86.5601 13.49 86.6302 13.42 86.6602C13.34 86.6902 13.19 86.5002 13.1 86.4102L12.16 86.8801C11.83 87.0401 11.6 87.0601 11.25 87.0201C10.84 86.9701 10.64 87.5102 10.34 87.6702L9.17 88.2602L8.49 88.6301L7.83 89.0702L7.51 89.2001C7.42 89.2401 7.42 89.4702 7.4 89.6002C6.19 90.1002 6.6 90.5802 5.52 90.9602C5.41 91.0002 5.12 91.2002 5.07 91.1002L4.76 90.4302C4.61 90.1002 4.6 89.7902 4.71 89.4402C4.86 89.0002 4.67 88.1302 4.52 87.6902C4.86 86.9302 4.29 86.9202 4.69 86.3002C5.03 85.7702 4.51 85.6602 4.54 85.4902C4.56 85.4202 4.61 85.2602 4.65 85.1702L4.92 84.5702C4.88 84.4802 4.79 84.3002 4.78 84.2102C4.76 84.1202 4.88 83.9702 4.97 83.8102L4.73 83.3002C4.82 83.0602 4.83 82.8902 4.83 82.6502L4.85 81.7902C4.85 81.4102 5.17 80.8102 5.02 80.3602L4.74 79.5002C4.87 79.2402 4.97 78.9902 4.82 78.7302C4.53 78.2202 4.91 78.1201 4.84 77.0201L4.79 76.2102C4.52 75.8802 4.44 75.6102 4.52 75.1702C4.5 74.9602 4.11 74.7902 3.93 74.6802C3.66 74.5002 3.42 74.4702 3.1 74.3702L2.41 74.1602L1.44 74.4202C1.06 74.5202 0.68 75.1202 0.58 75.4602C0.55 75.5502 0.66 75.8402 0.57 75.9202C0.36 76.1102 0.46 76.5602 0.53 76.8302C0.03 77.4802 0.65 77.6001 0.31 77.8401L0.08 78.0002C0.03 78.0402 0.1 78.2502 0.15 78.3102C0.31 78.4702 0.11 78.8202 0.13 79.0002C0.17 79.3402 0.21 79.7502 0.21 80.1002C0.21 80.3802 0.47 80.7302 0.12 80.9902L0.28 81.5602C0.34 81.8002 0.32 82.0002 0.1 82.1102L0.22 82.8702C-0.11 83.4302 0.52 83.8602 0.29 83.9902L0 84.1802V85.3702L0.18 85.6902C0.23 85.7902 0.36 86.0102 0.33 86.1202C0.3 86.2202 0.18 86.3502 0.06 86.5102L0.36 87.0802L0 87.5201V89.4302C0.41 90.5102 -0.24 90.6102 0.34 91.3102L0.06 91.8202L0.33 92.4501C0.25 92.8501 0.26 93.1302 0.28 93.5102C0.29 93.7102 0.2 94.0301 0.31 94.2001C0.67 94.8101 -0.18 94.7102 0.16 95.1702C0.3 95.3602 0.44 95.6602 0.39 95.8502L0.19 96.5702C0.09 96.9302 0.1 97.2802 0.1 97.6502V99.0002C0.11 99.2802 0.1 99.5302 0.21 99.8202L0.1 100.41C0.32 101.26 -0.14 101.33 0.25 101.75C0.46 101.98 0.37 102.1 0.26 102.36C0.16 102.6 0.39 103.03 0.36 103.28C0.26 104.04 0.52 104.52 0.51 105.8V106.71C0.51 106.97 0.49 107.31 0.44 107.56C0.37 107.88 0.37 108.14 0.34 108.46L0.25 109.49C0.22 109.85 0.23 110.19 0.23 110.55C0.23 111.16 0.09 111.96 0.34 112.75C0.45 113.09 0.45 113.66 0.36 114.01C0.28 114.33 0.27 114.52 0.29 114.85L0.38 115.88C0.41 116.23 0.45 116.64 0.45 116.98L0.43 118.41C0.42 119.15 0.69 119.43 0.55 119.59C0.28 119.9 0.52 120.28 0.5 120.54C0.48 120.82 0.4 121.09 0.45 121.39C0.67 122.85 0.2 122.65 0.36 123.31L0.52 123.95C0.56 124.12 0.51 124.5 0.43 124.66C0.23 125.03 0.45 125.49 0.43 125.8C0.39 126.18 0.36 126.42 0.46 126.83C0.52 127.06 0.34 127.41 0.51 127.69C0.68 127.97 1.42 128.38 1.69 128.41C2.53 128.49 3.35 128.58 4.14 128.25C4.36 128.16 4.61 127.68 4.62 127.44C4.64 127.11 4.81 126.89 4.83 126.59L4.93 125.57L5.19 125.02C5.41 124.56 6.4 125.02 6.72 125.18C7.2 125.4 7.55 125.72 7.94 126.04C8.19 126.24 8.68 126.31 8.67 126.76L9.28 127.1C9.56 127.25 9.93 127.56 10.18 127.66C11.12 128.02 10.79 127.75 11.99 128.55L12.4 128.48C12.49 128.47 12.59 128.7 12.7 128.73C15.35 129.42 13.7 128.79 15.28 129.13L16.12 129.32L16.51 129.09C16.98 129.4 17.46 129.43 17.95 129.26C18.51 129.06 19.13 129.22 19.69 129.31C20.71 129.18 21.07 128.74 21.97 128.89C22.4 128.96 22.46 128.54 23.4 128.43L24.58 128.3C24.78 127.79 25.21 127.73 25.65 127.53C25.92 127.4 26.17 127.18 26.53 127.16C26.77 127.15 26.82 127 26.96 126.85C27.92 125.8 27.98 126.05 29.06 125.45C29.57 125.16 29.73 124.65 30.4 124.23L30.65 123.61L31.1 123.28L31.37 122.61C31.76 122.5 32.57 121.09 32.59 121.07L33.2 120.27C34.03 119.19 33.36 119.53 33.79 118.63C33.97 118.25 34.11 117.88 34.27 117.49C34.37 117.26 34.76 117.18 34.51 116.75C34.42 116.6 34.58 116.33 34.63 116.15L34.98 114.9C35.05 114.64 35.1 114.44 35.26 114.17L35.2 113.53C35.46 113.33 35.37 113.14 35.37 112.85C35.37 112.58 35.44 112.27 35.46 111.99L35.52 111.1L35.59 110.08C35.61 109.76 35.74 109.41 35.55 109.08C35.5 108.99 35.74 108.22 35.73 107.61" fill="#90BEFB"/>
<path d="M93.3604 28.7105V26.5605L93.5404 26.8805C93.6004 26.9805 93.7204 27.2005 93.6904 27.3105C93.6604 27.4105 93.5403 27.5405 93.4203 27.7005L93.7204 28.2605L93.3604 28.7105Z" fill="#90BEFB"/>
</g>
</g>
<defs>
<clipPath id="clip0_2561_9568">
<rect width="219.04" height="129.35" fill="white"/>
</clipPath>
</defs>
</svg>
