<svg width="431" height="230" viewBox="0 0 431 230" fill="none" xmlns="http://www.w3.org/2000/svg">
<g clip-path="url(#clip0_2561_18285)">
<mask id="mask0_2561_18285" style="mask-type:luminance" maskUnits="userSpaceOnUse" x="0" y="0" width="431" height="230">
<path d="M430.58 0H0V229.54H430.58V0Z" fill="white"/>
</mask>
<g mask="url(#mask0_2561_18285)">
<path d="M244.48 2.23L244.46 34.98C244.46 36.55 242.88 36.55 242.04 36.53L235.57 36.38C234.98 35.43 234.79 34.23 234.46 33.24L232.88 28.54L231.55 24.1C231.06 22.45 230.24 20.88 229.96 19.19C229.59 17 228.9 15.15 227.22 13.49C226.43 14.31 226.27 15.17 226.32 16.18L226.58 21.09L226.63 35.81C226.04 36.79 224.8 36.59 223.92 36.53C221.54 36.38 219.8 36.85 219.8 35.34V0.93L220.9 0H227.48C227.94 0.27 228.95 0.82 229.11 1.35L230.3 5.17L231.61 9.09C232.12 10.62 232.72 12.05 233.12 13.63L234.33 18.46C234.5 19.17 235.87 23.25 236.87 22.77C237.11 22.66 237.6 22.07 237.6 21.79L237.62 0.91L238.98 0.01H243.09C244.1 0.41 244.47 1.03 244.47 2.23" fill="#90BEFB"/>
<path d="M275.47 33.6102C275.47 34.5802 275.9 35.4802 275.02 36.2002C274.41 36.7002 273.57 36.5202 272.65 36.5002L267.25 36.4002C266.76 36.2802 265.9 35.3802 265.77 34.9002L264.74 31.2202L263.32 26.8402L261.72 21.8902C261.11 20.0302 260.67 18.3402 260.43 16.3502C260.3 15.2602 258.96 13.4502 257.94 14.1902C256.75 15.0502 257.54 17.0002 257.56 18.1302L257.71 27.3302C257.76 30.1402 257.61 31.6502 257.63 34.8002C257.64 35.9102 256.92 36.8002 255.67 36.6102C254.48 36.4302 253.4 36.4302 252.05 36.6402C251.34 36.7502 250.75 35.5502 250.75 34.8102C250.78 32.5402 250.74 30.4602 250.89 28.2202C250.96 26.9902 251.08 25.5802 250.87 24.3702C250.81 24.0702 251.04 23.3002 251.04 22.9902C251.07 19.3602 251.12 15.8302 250.92 12.2002C250.73 8.74023 250.77 4.88023 250.82 1.48023C250.82 1.02023 251.45 0.240234 251.62 -0.00976562H259.01C260.12 0.800234 261.41 5.19023 261.88 6.78023L263.12 11.0302C263.85 13.5102 264.73 15.7602 265.45 18.2902C265.77 19.4202 266.73 22.8602 267.64 22.9502C267.98 22.9802 268.6 22.2302 268.6 21.8902V4.48023C268.05 2.88023 268.2 1.22023 269.15 0.0102344H274.07C274.58 0.330234 275.17 0.700234 275.47 1.04023C275.89 1.50023 275.45 2.47023 275.45 3.05023L275.47 33.6202V33.6102Z" fill="#90BEFB"/>
<path d="M86.8104 31.5098C86.9104 32.8098 86.9204 34.3298 86.7804 35.4598C86.5704 37.0398 85.0004 36.4798 84.0704 36.4798L63.3004 36.4498C62.8004 36.4498 62.2004 35.8398 62.2004 35.4198V31.7298C62.2104 29.2598 66.8004 31.0198 69.3504 30.4698C70.4604 30.2298 71.2904 29.3998 71.2804 28.2398L71.1804 21.1598C71.1704 20.4798 71.1804 19.8398 71.1804 19.1198L71.2504 8.49977C71.2604 7.98977 70.8404 6.89977 70.4704 6.54977C69.5904 5.68977 67.9804 5.92977 66.9204 5.96977L63.5404 6.06977C62.8904 6.08977 62.2104 5.33977 62.2104 4.72977L62.1904 1.30977C62.1904 0.849766 62.6904 0.279766 63.6804 0.279766C68.8604 0.249766 79.0004 0.459766 84.1404 0.00976562H85.2404L86.7004 0.619766L86.9304 3.60977C87.0004 4.43977 86.8404 5.86977 85.7504 5.97977C84.4304 6.08977 83.1004 6.13977 81.6804 5.89977C80.5304 5.70977 77.9104 5.87977 77.9004 7.72977L77.8204 28.4998C77.8204 29.6098 78.5204 30.5098 79.7404 30.4798L84.4604 30.3998C85.2004 30.3798 86.7304 30.5698 86.8104 31.5198" fill="#90BEFB"/>
<path d="M148.69 35.5598C148.56 36.5398 146.87 36.8198 146.07 36.4398L126.41 36.4598C125.94 36.4698 125.18 36.7098 124.89 36.4798C124.65 36.2898 124.18 35.6298 124.17 35.2698L124.15 32.0498C124.15 31.1998 124.95 30.4198 125.8 30.4198H131.3C131.78 30.4298 132.92 29.8098 132.92 29.3198L132.89 7.45977C132.89 5.68977 130.68 5.69977 129.57 5.87977C128.21 6.10977 126.89 6.05977 125.54 6.02977C124.41 5.99977 124.08 4.79977 124.12 3.87977L124.29 0.759766L125.55 0.00976562H147.47L148.72 0.779766C148.87 2.12977 148.98 3.79977 148.69 4.99977C148.31 6.51977 146.69 5.86977 145.78 5.88977L141.66 6.03977C141.04 6.05977 140.11 6.60977 140.11 7.47977L140.09 28.5198C140.09 29.2698 140.57 30.1498 141.1 30.4398C141.77 30.8098 142.64 30.5498 143.42 30.5298L146.71 30.4398C147.17 30.4198 148.01 30.5798 148.31 30.8198C149.18 31.5298 148.9 34.3498 148.74 35.5698" fill="#90BEFB"/>
<path d="M179.81 31.7395L179.74 35.3395C179.74 35.7395 179.22 36.4295 178.89 36.6395C178.57 36.8595 177.6 36.4695 177.19 36.4695L156.5 36.4295C155.74 36.4295 155.12 35.7995 155.12 35.1095L155.1 32.3095C155.1 31.2595 155.72 30.4895 156.88 30.4695L162.8 30.3795C163.44 30.3695 164.16 29.4395 164.16 28.7095V8.24953C164.17 3.97953 157.22 7.12953 155.11 5.51953L155.16 0.689531L157.04 0.0195312H178.69C180.3 0.599531 179.92 4.53953 179.41 5.96953C176.52 6.60953 172.32 4.36953 170.82 7.48953L170.73 28.2295C170.72 31.0595 174.36 30.6895 175.97 30.5195C177.18 30.3795 179.83 29.9895 179.81 31.7495" fill="#90BEFB"/>
<path d="M55.0101 36.4098L34.0001 36.4698C33.2801 36.4698 32.3501 36.7198 31.8001 36.3198C31.4101 36.0498 31.0001 35.0598 31.0501 34.5798L31.2501 32.0298C31.5801 28.0098 38.6801 32.7898 39.9001 29.2098L39.9801 8.04977C39.9801 6.21977 38.1501 5.61977 36.7801 5.77977C34.7501 6.00977 31.5101 6.65977 31.1201 4.83977C31.0301 4.35977 31.0201 0.499766 32.0701 0.00976562H54.5501L55.7901 0.779766C55.9401 2.12977 56.0701 3.78977 55.7401 5.02977C55.3901 6.36977 53.7401 5.90977 52.8701 5.84977C50.9601 5.72977 46.8801 5.12977 46.8801 7.97977V28.7598C46.8701 29.6598 47.6601 30.3898 48.5001 30.4098L54.7201 30.5098C56.5001 30.5498 56.2401 35.9798 55.0201 36.4198" fill="#90BEFB"/>
<path d="M117.62 31.49L117.51 35.6C117.49 36.58 115.77 37 115.06 36.43L96.2604 36.47C95.4404 36.48 94.4204 36.7 93.8304 36.15C92.8604 35.26 92.8904 31.43 93.8004 30.79C94.9204 29.99 96.3803 30.57 97.5703 30.55C98.4203 30.53 99.2003 30.53 100.03 30.58C101.2 30.68 101.97 29.59 101.97 28.48L101.92 7.54C101.92 6.68 100.71 5.69 100.09 5.8C99.0203 6.01 98.0304 5.97 96.9804 5.87C95.9904 5.77 94.2704 6.65 93.5404 5.32C92.8504 4.1 93.1504 2.01 93.4104 0.61L95.6403 0H116.75C118.22 0.29 117.59 4.82 117.21 5.94C114.78 6.52 111.09 4.86 109.45 6.4C107.95 9.94 109.75 10.16 108.83 14.24C109.22 16.17 109.01 18.06 108.89 20C108.75 22.23 108.63 27.85 109.29 29.63C109.8 30.99 111.65 30.51 112.62 30.49L116.53 30.36C116.93 30.35 117.64 31.06 117.63 31.48" fill="#90BEFB"/>
<path d="M209.86 36.3803L202.81 36.5103H200.87H189.16C188.54 36.5103 187.62 36.8203 187.12 36.4903C185.38 35.3103 186.14 32.0003 186.77 30.8303C187.23 30.0103 188.71 30.6603 189.35 30.6003C192.45 30.2703 193.37 31.3903 194.61 29.7403C195.18 28.9703 194.93 28.0003 194.93 27.0503L194.89 8.2203C194.88 3.6503 189.44 7.1903 186.97 5.7203C185.64 4.6703 186.09 2.2503 186.27 0.910304L187.74 0.0103038H188.81C188.81 0.0103038 188.82 0.00030382 188.83 0.0103038H208.02C208.02 0.0103038 208.04 0.00030382 208.04 0.0103038H209.39L210.63 0.750304L210.8 3.6303C210.84 4.2403 210.59 5.2903 210.21 5.6303C209.41 6.3303 208.08 5.8103 205.27 5.9303C204.71 5.9503 203.72 5.7203 203.19 5.9203C200.92 6.7803 202.29 12.8303 201.8 16.5103C201.64 17.6903 201.82 18.8403 201.9 20.0403C202.04 22.1103 202.03 24.2003 201.91 26.2903C201.84 27.5503 201.43 28.8803 202.47 29.9903C203.43 31.0103 206.3 30.1703 209.54 30.5203C211.46 30.7103 210.98 36.1003 209.86 36.3803Z" fill="#90BEFB"/>
<path d="M24.64 31.5L24.7 35.38C24.7 35.85 24.07 36.44 23.58 36.44H3.02C2.13 36.86 0.47 36.43 0.36 35.29C0.15 33.28 -0.23 30.43 1.89 30.42L7.99 30.39C8.56 30.38 9.05 29.09 9.05 28.52L9.02 9.07C9.02 8.14 9.08 6.85 8.21 6.34C4.96 4.4 1.1 8.05 0 4.12V0H23.56C24.69 0.59 24.68 1.43 24.72 2.8C24.75 3.68 25.17 5.65 23.72 5.9C20.13 6.54 17.67 5.08 16.66 6.52C15.65 7.96 15.92 9.63 16.08 11.27C16.52 15.5 15.7 15.61 16.07 19.77C16.23 21.62 16.23 23.56 16.09 25.46C15.97 26.93 15.6 28.58 16.4 29.91C17.09 31.03 18.47 30.49 19.45 30.47L23.04 30.39C23.52 30.38 24.63 31.03 24.64 31.5Z" fill="#90BEFB"/>
<path d="M365.53 186.47C363.95 187.06 362.2 186.63 360.57 186.54L357.63 186.36C356.78 186.02 356.4 184.6 356.16 183.79L354.98 179.78C353.38 174.36 351.96 171.5 350.71 165.61C350.62 165.19 350.36 164.63 350.13 164.39C349.91 164.14 348.9 164.25 348.67 164.55C347.97 165.48 348.43 167.3 348.43 168.47L348.45 185.78C347.67 187.14 345.87 186.66 344.65 186.58C343.8 186.52 342 187.28 341.43 186.03V151.21C341.42 149.82 343.24 150.08 343.94 150.18C348.37 150.82 349.73 149.16 350.53 151.09C351.93 154.46 352.86 158.03 354 161.56L355.94 167.58C356.73 170.02 356.99 172.61 357.96 172.84C358.45 172.95 359.16 172.19 359.16 171.58L359.14 159.36C359.14 156.88 359.28 155.73 359.13 153.32C359.08 152.57 358.63 150.66 359.9 150.46C361.66 150.19 363.83 150.3 365.74 150.35C367.09 152.65 365.66 154.03 366.14 158.77C366.28 160.13 366.24 161.31 366.21 162.67L366.16 164.44C366.12 166.59 366.14 168.69 366.16 170.83C366.21 174.19 366.49 177.01 366.23 180.14C366.12 181.41 366.06 182.42 366.29 183.75C366.42 184.55 366.43 186.14 365.54 186.47" fill="#90BEFB"/>
<path d="M303.65 45.3098V80.0898C303.65 81.4498 301.88 81.0298 301.2 81.0298L294.89 80.9498C293.78 79.0698 293.4 76.9498 292.73 74.8598L290.99 69.4798L289.1 63.1398L287.79 59.5598C287.56 58.9298 287.23 58.4198 286.78 57.8998C285 59.4898 285.75 63.6598 285.75 64.5698L285.85 79.6198C285.85 80.0898 285.58 80.9198 285.21 81.0798C284.86 81.2298 284.11 81.1398 283.57 81.0598C282.36 80.8798 280.79 81.1398 279.68 80.8098C278.43 80.4398 278.54 78.5998 278.98 77.6198L278.95 47.9098C278.95 47.1098 278.6 46.2898 279.01 45.5298C279.99 43.6798 282.19 45.2998 285.59 44.5898C286.66 44.3598 287.94 44.8398 288.29 45.8698L290.21 51.6398L292.98 60.4398C293.4 61.7898 293.84 63.0298 294.18 64.4398C294.45 65.5298 294.91 67.0298 296.27 67.1498C296.9 67.0198 297.17 65.5398 297.08 64.8398L296.67 61.8398C296.58 61.1098 296.69 60.3098 296.73 59.5298C296.85 55.7298 296.84 51.9898 296.74 48.1698C296.72 47.2198 296.2 46.0498 296.97 45.2298C297.7 44.4398 298.91 44.4198 299.94 44.7098C301.86 45.2198 302.4 43.7198 303.64 45.2998" fill="#90BEFB"/>
<path d="M337.38 124.091V155.241C337.37 156.791 335.53 156.501 334.58 156.491L328.92 156.361C327.89 156.341 327.57 153.731 327.06 152.151L325.7 148.001L324.25 143.421C323.62 141.441 323.04 139.671 322.68 137.561C322.52 136.621 321.38 133.981 320.29 133.941C320.04 133.931 319.56 134.551 319.56 134.911L319.6 153.271C319.6 154.011 319.86 154.781 319.64 155.431C318.99 157.271 317.3 156.291 314.67 156.471C314.09 156.501 312.72 156.041 312.72 155.251V120.901C313.87 119.911 315.4 119.801 316.81 120.021C320.08 120.561 321.53 119.081 322.34 121.841L323.44 125.561C324.62 129.581 325.44 130.871 326.37 134.741C326.94 137.141 327.65 141.581 330.06 143.121C330.73 142.311 330.86 141.531 330.84 140.511L330.74 136.201L330.69 133.351L330.71 126.531C330.71 125.351 330.82 124.171 330.6 122.941C330.43 121.961 330.43 120.801 331.33 120.111C331.76 119.781 332.93 120.121 333.59 120.161C334.38 120.211 335.69 119.661 336.46 120.161C337.84 121.061 337.8 122.751 337.39 124.091" fill="#90BEFB"/>
<path d="M244.49 179.741C244.51 180.271 243.83 181.191 243.26 181.241C240.48 181.461 238 181.391 235.28 180.991L234.38 177.931L233.07 173.791L231.7 169.411L229.58 162.261C229.16 160.861 228.56 159.281 227.43 158.411C225.93 158.101 226.31 163.611 226.64 164.441L226.67 179.561C226.67 180.851 225.6 181.551 224.48 181.291C223.65 181.111 222.87 181.081 221.94 181.321C221.32 181.481 219.81 181.161 219.81 180.201V147.451C219.25 146.721 219.66 144.971 220.63 144.971L228.06 144.931C228.62 144.921 229.26 146.001 229.39 146.521C229.84 148.421 230.38 150.021 230.97 151.811L232.24 155.741C232.8 157.451 233.37 159.211 233.82 160.961C234.24 162.621 234.44 164.061 235.32 165.591C235.66 166.201 235.99 167.201 236.64 167.541C237.95 167.761 238.14 163.161 237.65 162.151L237.6 147.661C237.6 146.741 237.13 145.971 237.89 145.281C239.47 143.851 239.89 145.311 241.91 144.791C243.09 144.491 244.48 145.201 244.48 146.581V172.761C244.21 173.511 244.38 174.101 244.39 174.831L244.5 179.741H244.49Z" fill="#90BEFB"/>
<path d="M244.46 98.1095V131.69C244.45 133.06 242.99 132.98 242.08 132.96L235.93 132.8C235.32 132.79 234.84 131.65 234.75 131.09C234.54 129.84 234.11 128.85 233.74 127.71L232.15 122.75L230.5 117.53C229.65 114.83 229.46 111.62 227.11 109.99C226.45 110.74 226.24 111.59 226.3 112.6L226.56 116.7L226.63 131.5C226.64 132.33 225.84 133.19 225.06 133.05C223.96 132.86 222.96 132.82 221.91 133.06C220.85 133.31 219.77 132.67 219.77 131.46V97.3695C220.65 96.2795 221.69 96.3295 222.93 96.5895C225.97 97.2295 226.02 95.8495 228.29 96.8195C228.9 97.0695 229.35 98.0995 229.58 98.9395C230.16 101.12 230.75 103.23 231.44 105.33L233.23 110.69C233.68 112.03 233.92 113.26 234.19 114.7C234.26 115.08 235.94 119.93 236.82 119.13C238.42 117.64 237.63 115.67 237.63 113.93V97.3095C237.62 96.4895 239.17 96.3295 239.72 96.4495C240.81 96.6895 241.72 96.6595 242.73 96.5295C243.66 96.4195 244.43 97.1495 244.43 98.0995" fill="#90BEFB"/>
<path d="M244.4 78.8797C244.39 79.8397 244.19 80.6697 244.4 81.8197C244.63 82.9997 244.23 84.7297 242.94 84.7297H237.03C235.77 84.7197 235.02 84.2997 234.89 82.9497C234.79 81.8497 234.02 80.6497 233.71 79.5997L232.12 74.3297L230.46 68.8297C229.96 67.2097 228.64 62.1197 227.07 61.8397C225.89 61.6097 226.48 67.0897 226.51 67.7997C226.74 71.8597 226.68 75.8697 226.57 79.9697C226.51 82.3697 226.91 83.5897 226.25 84.3597C225.93 84.7397 224.89 84.9297 224.34 84.8197C221.82 84.3097 220.92 85.6197 219.93 84.1097C219.52 83.4897 219.77 82.8497 219.77 82.0997L219.82 48.9097C220.62 47.8597 222.12 48.3297 223.1 48.2897C225.08 48.2097 226.79 48.1097 228.75 48.5797L231.65 57.5197L233.11 61.8197C234.84 66.8697 233.21 65.6797 236.41 71.2097C238.45 70.1397 237.69 68.1597 237.69 66.4997L237.59 50.1397C237.59 49.2797 237.99 48.2597 238.96 48.2397L242.62 48.2197C243.02 48.2097 243.84 48.4797 244.07 48.7897C244.31 49.0997 244.51 49.9497 244.49 50.3497L244.38 53.4497L244.27 56.4597C244.2 58.6397 244.25 60.7197 244.34 62.9097C244.58 68.2197 244.5 73.4997 244.41 78.8997" fill="#90BEFB"/>
<path d="M244.42 204.93L244.45 228.11C244.45 229.47 243.01 229.4 242.07 229.38L235.91 229.23C235.43 229.22 235.03 228.13 234.88 227.66L233.64 223.72L232.32 219.55L230.63 214.09C229.87 211.59 229.41 209.13 227.83 206.99C227.72 206.83 227.26 206.44 227.09 206.52C225.9 207.03 226.44 210.93 226.53 212.07C226.72 214.72 226.59 217.27 226.59 219.94V221.88L226.66 227.89C226.67 228.86 225.73 229.67 224.8 229.46C223.81 229.22 222.64 229.22 221.63 229.47C221.12 229.61 219.8 229.09 219.8 228.41V193.96C219.8 192.41 223.54 193.38 226.32 193.01C227.91 192.8 228.99 193.35 229.43 195.04C229.84 196.64 230.4 198.33 230.94 199.95L232.37 204.29C232.85 205.73 233.3 207.23 233.71 208.75C234.36 211.12 234.5 213.85 236.54 215.66C238.24 215.46 237.67 211.1 237.67 211.09L237.6 193.73C239.22 192.23 238.95 193.45 243.12 192.91C243.71 192.84 244.46 193.81 244.44 194.51L244.4 202.68V204.91L244.42 204.93Z" fill="#90BEFB"/>
<path d="M399.39 215.011C400.01 220.461 398.92 220.851 399.41 226.221C399.5 227.161 399.99 229.351 398.4 229.431C396.57 229.511 394.54 228.971 392.6 229.441C391.96 229.601 390.52 229.431 390.29 228.801C389.78 227.411 389.33 226.211 388.97 224.881C387.9 220.971 387.06 219.531 386.1 215.961C385.76 214.681 383.95 206.561 382.43 206.871C380.57 207.271 381.42 211.971 381.42 212.311L381.58 226.481C381.59 227.531 382.16 229.501 380.32 229.381C379.11 229.311 377.33 229.251 376.06 229.441C375.64 229.501 374.64 228.871 374.64 228.421V194.501C374.64 194.041 375.06 193.141 375.45 193.141L380.35 193.041C381.36 193.031 382.18 192.651 383.09 193.231C383.68 193.611 384.41 194.561 384.57 195.441C384.91 197.281 385.56 198.751 386.1 200.491L387.5 205.091C388.88 209.591 388.49 207.071 389.52 212.171C390.02 214.661 391.68 215.991 392.17 215.121C393.15 213.381 392.51 211.561 392.5 209.771L392.37 195.621C392.36 194.981 392.11 194.261 392.42 193.791C393.04 192.801 395.03 193.121 397.94 192.891C399.02 192.801 399.61 194.321 399.59 195.241L399.5 201.881C399.48 203.181 399.13 204.621 399.34 205.961C400.03 210.481 398.87 210.591 399.36 214.991" fill="#90BEFB"/>
<path d="M430.16 228.96C429.77 229.51 428.51 229.3 427.87 229.3L421.44 229.27L420.4 226.24L418.53 220.42L416.8 215C416.35 213.57 415.89 212.32 415.57 210.78C415.28 209.4 414.45 207.91 413.59 206.73C411.94 206.41 412.49 211.32 412.57 212.25C412.67 213.52 412.62 214.6 412.56 215.87C412.4 219.71 412.46 223.47 412.5 227.33C412.51 227.84 412.55 228.49 412.43 228.83C412.28 229.23 411.3 229.58 410.86 229.49C407.9 228.89 406.39 230.12 405.73 228.61C405.49 228.06 405.83 227 405.83 226.38V197.01C405.84 195.75 405.02 194.21 406.41 193.17L414.55 193.12C415.17 194.67 415.76 196.06 416.14 197.54C416.69 199.66 417.35 201.53 418.1 203.57C419.83 208.3 420.06 212.56 422.84 216.35C423.35 215.64 423.7 215.07 423.7 214.44V194.17C423.7 192.48 427.85 193.07 429.66 193.21C430.33 193.27 430.69 194.92 430.51 195.54C430.19 196.64 430.42 197.97 430.46 199.14C430.53 200.55 430.11 202.03 430.36 203.43C430.53 204.36 430.43 205.12 430.38 206.05C430.22 209.1 430.2 212.19 430.38 215.25C430.65 219.6 430.11 220.4 430.32 225.41C430.38 226.58 430.95 227.83 430.15 228.94" fill="#90BEFB"/>
<path d="M429.65 36.2998L424.27 36.5198C423.39 36.5498 422.6 36.7698 421.81 36.3098C421.2 35.9598 420.88 35.1098 420.64 34.3098L418.62 27.7898L416.95 22.5498C416.33 20.6198 415.76 18.8898 415.28 16.8398C414.99 15.6298 414.08 14.4698 413.28 13.2198C411.85 15.0098 412.66 19.2898 412.59 21.0798C412.5 23.4098 412.42 25.5998 412.64 27.8298C412.41 29.7398 412.35 31.6898 412.63 33.5298C412.78 34.5598 412.8 35.5198 412.08 36.1998C411.35 36.8698 410.39 36.6498 409.38 36.5698L406.7 36.3498C405.8 36.2798 405.49 34.8298 405.68 34.0498C406 32.7798 405.9 31.3498 405.67 30.1698C405.7 29.9398 405.89 29.2398 405.89 28.9998L405.84 6.97977C405.84 5.53977 405.9 4.25977 405.76 2.85977C405.69 2.13977 405.53 0.789766 406.23 0.479766L407.26 0.00976562H413.84C414.78 0.439766 415.1 1.26977 415.42 2.29977L416.93 7.12977C418.06 10.7998 419.31 14.2698 420.21 18.0398C420.46 19.0898 421.8 22.4798 422.88 23.1998C423.33 22.6698 423.7 22.1798 423.7 21.6098V1.15977C423.7 0.819766 424.34 0.139766 424.52 0.00976562H428.91C431.26 1.01977 430.31 2.39977 430.31 4.41977L430.33 23.7698C430.33 24.4798 430.48 25.1898 430.4 25.8698C430.23 27.3098 430.25 32.1698 430.51 33.7098C430.64 34.4198 430.51 36.2698 429.63 36.2998" fill="#90BEFB"/>
<path d="M430.54 147.649C430.31 149.109 430.21 152.689 430.43 154.109C430.57 154.999 430.36 155.849 430.36 156.889V177.649C430.37 178.799 431.05 180.789 429.23 181.149C426.76 181.619 424 181.319 421.39 180.989L420.35 177.789L416.69 166.399C416.44 165.619 416.03 164.789 415.88 163.979C415.52 161.919 414.9 159.889 413.64 158.239C413.12 158.269 412.47 158.989 412.47 159.469V176.049C412.97 177.809 412.92 179.569 412 181.189L408.61 181.379C407.73 181.439 406.67 181.229 406.17 180.669C405.53 179.969 405.43 178.869 405.87 177.909L405.82 155.899C405.81 154.529 405.59 153.359 405.79 151.979C406.35 148.049 404.97 146.689 406.12 145.309C406.9 144.399 407.87 144.789 408.98 144.819L414.12 144.949C414.55 144.959 415.1 145.839 415.22 146.239L416.07 149.199C417.34 153.629 419.08 157.519 419.97 161.439C420.33 163.039 420.75 164.329 421.44 165.759L422.59 168.089C423.08 167.879 423.71 167.279 423.71 166.789V146.019C423.71 144.249 425.07 145.099 428.67 144.749C430.2 144.599 430.76 146.339 430.54 147.659" fill="#90BEFB"/>
<path d="M430.55 82.4807C430.63 83.0607 430.36 84.0207 429.9 84.4007C429.48 84.7407 428.51 84.7207 427.82 84.7107L421.37 84.6107C420.97 83.2507 420.66 82.1207 420.27 80.9307L416.91 70.6007C416.48 69.2607 416.01 68.0207 415.7 66.6207C415.34 64.9407 414.67 63.2107 413.58 61.8607C411.91 61.4507 412.51 66.9307 412.57 67.8807C412.63 68.7807 412.59 69.5707 412.56 70.4807C412.41 74.2107 412.43 77.8607 412.51 81.6307C412.53 82.5607 412.89 83.5707 412.19 84.2707C411.48 84.9607 410.33 84.8907 409.32 84.8507C408.33 84.8207 407.02 85.0407 406.27 84.3507C405.17 83.3407 405.84 82.1607 405.85 81.0007V56.7407C405.85 56.0507 405.71 55.3807 405.78 54.7407C406.12 51.6907 404.95 48.7007 406.6 48.4107C409.14 47.9807 411.95 48.1607 414.45 48.6807C414.93 48.7807 415.27 50.0407 415.41 50.5007L416.63 54.7707C417.6 58.1407 419.08 61.2307 419.82 64.6707C420.32 67.0307 421.18 69.3207 422.5 71.3707C423.47 71.1507 423.77 70.1607 423.76 69.3307L423.74 67.1007L423.71 49.0607C423.7 48.4307 424.82 48.1507 425.31 48.2107C428.2 48.5807 428.93 47.7007 429.88 48.7107C430.38 49.2407 430.65 50.0907 430.47 50.8707C430.22 51.9607 430.4 52.9607 430.39 54.0107L430.32 60.8707C430.3 62.8707 430.19 64.8707 430.37 66.8107C430.49 68.1907 430.51 69.3307 430.37 70.7207C430.21 72.2907 430.32 73.9407 430.32 75.5407C430.31 77.8707 430.17 80.0707 430.54 82.4807" fill="#90BEFB"/>
<path d="M429.89 132.49C428.71 133.52 426.79 133.03 425.35 132.95L421.83 132.73C420.86 132.67 420.79 130.97 420.56 130.25L416.8 118.37C416.51 117.47 416.02 116.45 415.87 115.51C415.52 113.36 414.91 111.6 413.28 109.98C412.93 110.36 412.46 111.05 412.46 111.47L412.48 124.92C412.48 125.38 412.8 126.35 412.71 126.77C412.48 127.97 412.34 129.08 412.63 130.26C412.82 131.04 412.75 132.71 411.61 132.8C410.07 132.91 408.25 132.91 406.8 132.8C405.34 132.69 405.83 131.13 405.83 130.36L405.79 114.01C405.78 112.66 405.71 111.46 405.78 110.11C405.95 106.65 405.92 103.25 405.81 99.7999C405.78 98.7799 405.28 97.6199 406.27 96.7699C407.02 96.1299 408.25 96.6499 409.16 96.6599L414.78 96.7599L415.76 100.04L416.82 103.64L419.05 110.15L420.43 115.38C420.61 116.09 422.35 120.08 422.97 119.73C423.19 119.61 423.67 119 423.67 118.75L423.64 100.03C423.64 98.6899 423.16 96.5899 425.15 96.5799C425.9 96.5699 426.99 96.7199 427.88 96.5099C428.65 96.3299 429.61 96.5799 430.04 97.1399C430.86 98.1999 430.34 99.2299 430.34 100.35L430.36 118.59C430.36 119.86 430.47 120.95 430.38 122.2C430.22 124.39 430.24 126.52 430.33 128.76C430.38 129.89 430.91 131.58 429.87 132.5" fill="#90BEFB"/>
<path d="M117.71 81.6105C117.74 82.4905 117.82 83.3505 117.46 84.0705C117 84.9505 116.02 84.7005 115.08 84.7005L96.5201 84.7305C95.3701 84.7305 93.6101 85.2405 93.2501 83.4405C93.1001 82.6805 93.1201 81.1705 93.2301 80.3905C93.6201 77.5505 96.3101 79.2905 100.91 78.8005C101.71 78.7205 101.96 76.9405 101.96 76.1805L101.94 56.4505C101.94 55.7905 101.3 54.3005 100.59 54.3005L94.3701 54.2205C93.9601 54.2205 93.1901 53.4705 93.1901 53.0905L93.1701 49.8705C93.1701 49.0105 93.9801 48.2105 94.7901 48.2105C96.7701 48.2105 98.5301 48.2205 100.42 48.3705C105.68 48.7605 107.58 48.1305 111.55 48.3805C113.26 48.4905 115.56 47.6305 117.11 48.6705C118.14 50.0605 118.17 52.6505 117.12 54.1505L110.7 54.2705C109.93 54.2805 109.23 54.9105 109.06 55.6305C108.24 59.1405 109.44 59.2105 109.01 63.0105C108.82 64.6705 108.69 66.2005 108.91 67.8405C109.12 69.4605 107.88 78.7705 110.18 78.8205L116.62 78.9705C117.99 78.9905 117.66 80.8705 117.69 81.6105" fill="#90BEFB"/>
<path d="M117.06 175.32C118.1 176.87 118.2 178.85 117.36 180.6C117.09 181.16 116.08 181.29 115.46 181.27L111.53 181.24L108.73 181.16C105.93 181.08 103.16 181.08 100.32 181.14L97.8899 181.19C96.4399 181.22 94.7799 181.84 93.4899 180.69C93.1299 179.97 93.1799 178.48 93.1499 177.52C93.1099 176.51 93.2999 175.6 94.4599 175.44C98.0599 174.95 99.7999 176.02 100.88 175.36C101.3 175.1 101.93 174.22 101.93 173.62V152.39C101.91 150.8 100.12 150.49 99.0699 150.75C97.8899 151.04 93.57 151.53 93.26 149.5C93.1 148.49 93.0899 146.81 93.2799 145.92C93.6299 144.31 95.2599 144.83 96.2399 144.85L115.08 144.88C115.81 144.89 116.53 144.56 117.03 145.03C118.28 146.21 118 149.04 117.33 150.19C116.22 152.13 112.37 149.53 109.56 151.28C108.99 151.63 108.76 153.16 108.77 153.91C108.79 156.65 108.74 159.15 108.92 161.77C109.06 163.73 109.14 165.65 109 167.67C108.85 169.91 108.38 172.44 109.32 174.53C109.94 175.9 111.81 175.41 112.87 175.4L117.04 175.33L117.06 175.32Z" fill="#90BEFB"/>
<path d="M117.32 132.41C117.01 133.02 115.77 133.14 115.1 132.86H95.9299C95.0299 133.29 93.3799 132.85 93.2699 131.72C93.1199 130.3 92.6999 127.06 94.7999 127.09L99.2199 127.16C99.7499 127.17 100.54 127.31 100.9 127.1C101.25 126.91 101.93 126.04 101.93 125.63L101.96 104.63C101.96 104.06 101.42 102.56 100.84 102.54C98.8099 102.46 97.0599 102.46 95.0599 102.48C94.2499 102.49 93.1899 102.1 93.1799 101.1C93.1799 100.03 93.1799 98.6095 93.2499 97.7095C94.0399 96.2195 95.7299 96.1795 97.0799 96.7195L111.84 96.6595L115.63 96.4095C118.38 96.2295 118.1 100.92 117.35 101.95C115.88 104.01 109.56 100.74 109.1 103.84L108.83 105.73C108.99 106.96 109.16 108.05 108.95 109.2C108.39 112.35 109.48 112.41 108.98 116.4C108.8 117.79 108.85 118.94 108.97 120.31C109.11 122.04 109.06 123.7 109.07 125.51C109.08 128.89 116.19 125.77 117.41 127.57C117.9 129.19 118.13 130.84 117.31 132.44" fill="#90BEFB"/>
<path d="M148.78 224.56V228.04C148.79 229.32 147.25 229.8 146.29 229.27H126.62C126.01 229.61 124.38 229.4 124.28 228.63C124.13 227.51 123.85 224.22 124.7 223.65C125 223.46 125.64 223.46 126.11 223.47L131.31 223.54C132.11 223.55 132.91 222.71 132.91 221.8L132.89 200.56C132.88 198.83 130.7 198.88 129.59 199.02C128.21 199.2 126.67 199.17 125.25 199.11C124.77 199.1 124.13 198 124.14 197.52L124.21 194.24C124.23 193.09 125.74 192.59 126.69 193.11H145.25C146.42 192.71 147.92 192.79 148.79 193.71L148.86 197.28C148.91 199.95 144.94 199.19 142.76 198.88C141.8 198.74 140.09 199.22 140.09 200.57L140.05 221.86C140.05 222.74 140.86 223.53 141.68 223.53L146.96 223.51C147.49 223.5 148.79 224.02 148.79 224.56" fill="#90BEFB"/>
<path d="M210.56 228.56C210.26 229.66 208.55 229.74 207.68 229.27L189.12 229.3C188.32 229.3 187.51 229.62 186.89 229.13C185.63 228.15 185.85 224.81 186.79 223.66C190.16 222.84 194.62 225.12 195 221.68C195.07 221.06 194.89 220.3 194.89 219.68L194.84 200.24C194.83 197.78 187.63 199.46 186.83 199.03C185.95 197.38 185.72 195.44 186.5 193.76C186.9 192.88 188.26 192.73 189.11 193.13L200.6 193.07H202.59L209.62 193.14C209.96 193.14 210.73 193.91 210.74 194.25L210.78 197.21C210.84 200.8 204.62 198.19 202.8 199.29C201.79 199.9 201.68 202.19 201.86 203.64C202.07 205.27 201.96 206.92 201.84 208.59C201.41 214.22 201.98 216.14 201.98 221.07C201.99 221.96 202.11 222.96 202.8 223.38C203.53 223.83 204.43 223.67 205.31 223.64L208.55 223.51C209.46 223.48 210.49 223.58 210.65 224.74C210.8 225.86 210.86 227.41 210.55 228.55" fill="#90BEFB"/>
<path d="M55.87 224.601L55.95 228.221C55.95 228.551 55.41 229.261 54.93 229.261L33.77 229.291C33.02 229.291 31.49 229.951 31.36 228.571L31.12 226.021C31.03 225.051 31.02 223.621 32.4 223.551C33.68 223.491 35.11 223.491 36.43 223.571C37.23 223.631 38.02 223.791 38.69 223.481C39.23 223.241 40 222.351 40 221.591L39.92 200.311C38.84 197.381 33.32 199.981 31.8 198.811C30.85 198.081 30.37 194.501 31.77 193.211C32.41 192.611 33.18 193.071 34 193.071L55.16 193.101C56.17 193.941 56.45 198.571 54.91 198.941C51.21 199.811 49.31 197.561 46.89 200.081V221.511C46.88 222.231 47.5 223.171 47.96 223.441C49.18 224.151 55.83 222.481 55.87 224.571" fill="#90BEFB"/>
<path d="M24.1801 229.131C23.4901 229.791 22.6901 229.311 21.8601 229.311L3.2801 229.261C2.5001 229.641 0.680104 229.661 0.420104 228.591C0.150104 227.421 0.230104 225.941 0.330104 224.601C0.440104 223.021 5.1101 223.591 7.9201 223.421C8.6901 223.371 9.0501 221.751 9.0501 221.071L9.0301 200.851C9.0201 196.771 1.0501 200.821 0.440104 198.201C0.150104 197.011 0.210104 195.261 0.380104 194.081C0.550104 192.861 1.9501 193.101 2.7601 193.101L23.8401 193.171C25.0601 193.171 24.8001 195.141 24.7501 195.871L24.6101 198.081C24.5201 199.511 21.2401 199.181 20.3401 199.071C19.1401 198.941 17.6901 198.541 16.6801 199.421C15.8701 200.121 15.7401 201.661 15.9201 202.721C16.2801 204.911 15.9801 206.831 16.0001 209.031L16.0201 211.511C16.0401 212.681 16.1801 213.741 16.0201 214.881C15.8301 216.301 15.9101 217.731 16.0301 219.111C15.7401 220.441 15.8401 222.771 17.0001 223.411C18.2001 224.081 20.1001 223.231 23.3901 223.631C25.7801 223.921 24.6401 228.711 24.1801 229.151" fill="#90BEFB"/>
<path d="M117.71 226.651L117.49 228.641C117.35 229.981 116.04 229.301 115.32 229.291L94.5598 229.271C93.8198 229.271 93.1698 228.641 93.1798 227.961V225.141C93.1898 224.371 93.9898 223.491 94.7998 223.521L99.1698 223.621C99.7398 223.631 100.53 223.821 100.95 223.551C101.36 223.311 101.94 222.441 101.93 221.821L101.86 200.341C101.85 197.311 93.1598 201.091 93.1798 197.541V194.691C93.1898 194.191 93.7998 193.371 94.1998 193.091C94.7298 192.721 95.6298 193.081 96.2698 193.081H115.04C115.67 193.081 116.37 192.771 116.88 193.101C117.3 193.371 117.71 194.241 117.7 194.821L117.65 197.371C117.64 197.911 117.42 198.901 116.98 198.981C116.32 199.091 112.94 199.071 111.75 198.921C110.94 198.821 109.84 199.201 109.09 199.741C108.5 205.391 109.02 209.091 108.92 214.741C108.89 216.681 109.25 218.551 108.86 220.491L109.23 222.801C111.09 224.571 113.04 223.061 116.41 223.601C117.87 223.831 117.84 225.581 117.72 226.641" fill="#90BEFB"/>
<path d="M179.81 224.561L179.76 228.101C179.75 228.461 179.3 229.131 179.05 229.301C178.75 229.491 178.08 229.301 177.56 229.301L155.85 229.241C154.9 229.241 155.03 227.591 155.04 227.061L155.13 224.351C155.14 224.051 155.93 223.551 156.24 223.551L162.97 223.481C163.52 223.421 164.15 222.111 164.15 221.501V200.851C164.15 200.321 163.38 199.381 162.95 199.271C158.52 198.221 159.12 200.151 155.17 198.461L155.09 194.441C155.08 193.761 155.76 193.121 156.48 193.121L177.56 193.101C178.07 193.101 178.73 193.011 179.06 193.151C179.39 193.271 179.78 194.101 179.78 194.501V197.811C179.78 198.621 178.99 199.261 178.16 199.201L173.82 198.901C171.78 198.761 170.72 200.081 170.72 201.871V221.321C170.73 222.611 171.62 223.541 172.91 223.531L178.74 223.511C179.14 223.511 179.81 224.151 179.8 224.561" fill="#90BEFB"/>
<path d="M86.6299 228.72C86.2299 229.74 84.9299 229.3 83.9899 229.3L62.2299 229.24L62.1799 224.57C62.1799 224.15 62.8399 223.5 63.2299 223.51L69.0999 223.54C70.0999 223.54 71.2399 222.76 71.2399 221.52V200.32C68.2599 197.31 66.4499 200.3 62.2599 198.53L62.1699 194.13C62.1699 193.73 62.8099 193.11 63.2899 193.11L83.7999 193.06C84.9099 193.06 86.5899 192.48 86.8099 194.35C86.8999 195.17 86.8899 196.44 86.8799 197.52C86.8799 201.14 79.0599 197.21 77.8699 200.33L77.8999 221.81C77.8999 223.76 80.4599 223.86 81.6899 223.65C83.0999 223.42 84.3999 223.48 85.7499 223.58C87.5199 223.71 86.8699 228.11 86.6299 228.71" fill="#90BEFB"/>
</g>
</g>
<defs>
<clipPath id="clip0_2561_18285">
<rect width="430.58" height="229.54" fill="white"/>
</clipPath>
</defs>
</svg>
