<svg width="201" height="236" viewBox="0 0 201 236" fill="none" xmlns="http://www.w3.org/2000/svg">
<g clip-path="url(#clip0_2550_1619)">
<path d="M179.24 33.8998C178.79 34.5398 178.17 34.8098 178.41 35.7998C178.7 37.0498 176.93 37.3698 176.42 37.6398C176.26 37.7198 176.28 38.1698 176.34 38.4198C176.56 39.4198 175.7 39.2598 174.76 39.8098C173.95 40.2698 173.17 41.0898 172.21 41.0498C170.47 40.9798 171.7 42.1798 170.02 42.3598C167.44 42.6398 168.06 43.1698 165.74 42.8698C163.75 42.6198 164.49 43.8298 163.14 43.8598C161.73 43.8798 162.29 42.2998 160.8 42.5398C160.26 42.6298 160.23 43.1598 160.07 43.7898C159.97 44.1898 158.99 43.9698 158.79 43.6398C157.69 41.8298 156.41 43.5098 152.83 42.0098C152.34 41.7998 151.87 41.0498 151.53 40.6398C151.01 40.0398 149.29 40.2498 149.23 38.4798C149.23 38.2498 148.8 37.8498 148.54 37.8498C147.54 37.8498 147.14 36.6798 146.66 36.0598C146.2 35.4798 144.91 35.6598 144.78 34.6298L145.22 33.4698C144.3 33.0198 143.08 33.5298 142.74 32.8598C142.59 32.5498 142.68 32.0198 142.83 31.6998C144.08 28.8998 144.69 30.6498 145.79 27.4898C146.78 27.1098 147.42 26.3898 148.11 25.6398C148.61 25.0998 149.18 24.6498 149.78 24.0698C150.09 23.7698 150.81 23.7798 151.4 23.7498L152.24 22.4198C153.33 22.3598 154.42 22.0998 155.31 21.4398C156.71 20.3998 157.56 22.0598 158.24 21.6098C158.55 21.4098 158.67 19.8298 159.58 20.0298C160.46 20.2398 161.05 20.7198 161.8 21.2998C162.05 21.1298 162.36 20.7898 162.66 20.3998C163.74 20.4898 164.97 20.8198 166.09 21.2298L167.89 20.9098C168.75 20.7598 170.76 22.1398 171.25 23.0098C172.23 24.7198 173.69 23.2598 174.54 23.9098C175.26 24.4498 174.7 25.8798 176.15 25.9998C177.07 26.0698 177.25 26.5698 177.61 27.2798L178.44 28.9398C178.32 29.4798 178.08 30.1098 178.46 30.5098C179.29 31.3598 179.96 32.8498 179.22 33.8998M200.28 34.6498L200.1 33.3098L200.89 32.1998C199.26 30.7298 200.7 30.2698 199.75 28.9698C199.64 28.8198 199.42 28.3198 199.55 28.1998L200.21 27.5798C200.46 26.1398 199.11 24.8698 200.87 23.2398L200.19 21.8598C199.94 21.3598 200 20.1298 200.23 19.6098C200.51 18.9798 201.28 18.3598 200.62 17.6498C199.03 15.9498 200.74 15.1998 200.56 13.0298C198.86 11.1398 201.13 10.4398 200.29 7.65982C200.2 7.35982 200 6.81982 200.1 6.58982C200.2 6.36982 200.56 6.04982 200.77 5.80982L200.58 3.61982C200.34 1.02982 197.94 2.17982 196.62 1.41982L195.29 1.95982C192.29 1.06982 192.22 2.08982 189.99 1.67982C187.58 1.22982 188.13 2.28982 185.92 1.78982C185.4 1.66982 184.88 1.69982 184.34 1.73982L182.18 1.88982C181.36 1.94982 180.53 1.65982 179.72 1.97982C177.79 2.75982 177.19 0.939816 176.06 1.51982C174.8 2.16982 173.6 2.05982 172.31 1.62982C171.89 1.69982 171.14 1.89982 170.76 1.90982C167.67 1.28982 167.42 2.92982 164.79 1.70982L163.35 2.36982C162.1 1.96982 160.33 1.72982 159.98 0.569816L159.83 0.0598164C159.79 -0.0701836 159.25 0.0598164 159.29 0.0998164C159.48 0.549816 159.66 0.969816 159.63 1.28982C159.5 2.71982 156.44 1.88982 156.21 1.89982C154.4 1.97982 152.9 2.96982 151.56 0.739816C150.83 1.98982 149.26 2.42982 148.17 1.60982C147.67 1.23982 147.21 1.06982 146.66 1.50982C145.82 2.17982 144.73 2.07982 144.03 1.25982C143.2 0.309816 142.49 2.81982 140.42 1.61982C138.96 0.779816 138.7 2.78982 136.72 1.61982L135.8 1.06982C134.63 0.379816 134.81 1.79982 133.55 1.92982C132.74 2.00982 132.11 1.17982 131.42 0.859816C130.83 0.579816 130.79 1.93982 129.5 1.89982C129.19 1.89982 128.66 1.57982 128.49 1.24982C128.23 0.729816 127.41 0.0598164 126.95 0.559816C126.6 0.939816 126.48 1.77982 125.76 1.73982C125.04 1.69982 124.42 1.16982 123.72 0.709816C122.86 0.749816 123.32 2.37982 122.82 2.64982C122.63 2.74982 122.17 2.82982 121.89 2.85982L121.32 2.91982C121.17 2.93982 121.44 3.47982 121.6 3.55982C122.88 4.15982 123.36 6.01982 122.94 7.23982C122.72 7.88982 121.92 7.42982 121.31 7.94982C120.81 8.37982 122.38 8.01982 122.68 9.91982C122.87 11.0898 122.78 11.9198 121.55 12.4698C121.42 13.7998 122.56 13.1498 122.95 16.0698C122.79 16.4598 122.17 16.9998 121.76 17.3198L122.38 19.1798C123.18 21.5998 121.32 21.0598 122.07 23.0598C123.45 26.7498 121.69 25.3898 122.04 27.3398L122.56 30.1798L121.72 31.5498L122.18 32.7498L122.01 34.3098C121.94 35.0198 121.76 35.8398 122.03 36.4698C122.41 37.3698 122.26 38.0798 121.72 38.8898L121.93 40.5798C122.32 43.7098 121.65 43.0898 121.59 45.9498C121.87 46.4098 122.12 46.8198 122.08 47.2698C122 48.1798 120.83 47.9898 120.77 48.7298C120.7 49.5698 121.81 49.2498 122.18 51.3898C122.52 53.4198 120.78 51.9898 121.55 54.2498L122.01 55.6198C122.52 57.1298 120.69 56.8298 121 57.5598L121.73 59.3198C122.07 60.1198 122.82 61.0398 121.96 61.7798C121.73 61.9698 121.26 62.2898 121.17 62.5398C120.92 63.2598 122.57 64.6098 121.95 65.7198C121.75 66.0798 121.14 66.5798 121.21 66.9598C121.71 69.5098 121.72 69.5098 121.4 71.7298C121.27 72.6298 121.86 73.9098 121.38 74.7598C120.91 75.5798 121 75.9798 121.43 76.8698C121.54 77.6898 121.53 78.8598 121.56 79.7998C121.62 81.3798 121.98 82.5098 121.26 82.9698C120.84 83.2498 120.36 83.2898 119.68 83.3798C119.78 83.7998 120.26 84.0098 120.77 84.0698L121.31 84.1298C121.59 84.1698 121.51 85.6398 121.59 86.6398C121.61 86.9298 121.67 87.3498 121.59 87.5498C121.51 87.7398 121.05 87.9498 120.82 87.9498L119.7 87.9898C119.66 88.4798 120.05 88.8298 120.54 88.9198C121.65 89.0898 121.42 89.6998 121.67 91.3598C121.83 92.4598 121.3 93.0298 120.03 93.3098L120.99 94.0898C121.7 94.6598 121.79 95.9598 121.65 96.8998C121.57 97.4398 120.9 97.5798 120.36 97.7798C120.15 97.8598 120.36 98.4298 120.61 98.4698C121.21 98.5598 121.77 96.8098 123.95 98.3998C124.44 98.7498 125.08 98.7798 125.47 98.3798C127 96.8198 128.09 98.8998 129.1 98.7998C131.7 96.7298 131.44 99.2298 134.28 97.9798C134.7 97.9998 135.4 98.3098 135.88 98.4998L137.02 98.3698C137.51 98.7298 137.97 98.7098 138.43 98.4698C139.52 97.8698 140.71 98.8398 141.73 98.7598C142.82 98.6798 143.86 98.2998 145 98.6398L146.49 98.1798C146.86 98.0598 147.57 98.5298 147.91 98.7998L149.28 98.9498C149.87 99.0098 150.36 99.8598 150.7 100.31H151.06C151.61 99.9998 151.51 98.9398 151.97 98.7698C152.67 98.4998 154.13 99.2098 154.46 99.1898C156.79 99.0798 156.84 98.5898 158.9 99.6998C159.46 99.3398 160.15 98.8898 160.86 99.0698L162.95 99.5798C164.43 98.2698 165.32 98.5998 166.86 99.5998L167.88 99.0198C168.64 98.5898 169.75 98.9298 170.53 99.2498C172.1 99.8998 171.95 98.1798 173.98 99.0398C174.53 99.2698 175.45 99.3398 175.91 99.0598C177.56 98.0398 178.01 99.4398 180.05 99.5998C182.57 98.2698 181.86 100.35 185.21 98.8898L187.54 99.4198C187.7 99.4498 188.08 99.5798 188.09 99.7298L188.12 100.3H189.02C188.95 100.06 188.89 99.7598 188.92 99.5598C188.96 99.3698 189.51 99.1898 189.74 99.1998L191.52 99.2998L193.33 99.3698C193.85 99.3898 194.53 99.2598 195.08 99.2098C195.89 99.1398 196.5 99.5898 196.53 100.3H197.78C197.68 99.7898 198.15 99.3098 198.75 99.3298C199.21 99.3398 199.69 99.2698 199.92 98.9398C200.2 98.5398 199.97 97.8698 199.55 97.6598C198.88 97.3198 198.59 96.9698 198.64 96.2798C198.68 95.6498 199.06 95.3598 199.86 95.1198C199.93 94.6798 199.93 93.7798 199.86 93.2798L198.6 92.3498C198.83 90.7698 200.93 89.3198 199.3 87.8398C198.82 87.3998 198.61 86.8298 199.11 86.2298C200.79 84.1798 199.23 83.4498 199.39 82.8898C199.58 82.2298 200.88 82.6398 200.85 82.1698C200.81 81.3998 199.36 81.3998 199.52 80.5298L199.79 78.9998C199.86 78.5998 199.28 77.7798 199.66 77.4198L200.59 77.0898L199.23 75.9398C199.1 75.2198 198.87 74.4898 198.1 74.4098C196.53 74.2498 197.05 73.0198 196.44 72.2098C195.67 71.1698 194.99 72.8998 192.41 71.8998C191.63 71.5898 191.04 71.4698 190.34 70.6298C190.06 71.8098 189.23 72.1998 188.15 71.9698L186.72 71.6598C185.17 73.7698 184.18 72.0598 183.34 72.7998C182.38 73.6598 181.58 74.6898 180.56 75.3698C179.73 75.9298 178.01 76.8898 177.49 78.2198C176.69 80.2998 175.27 78.9298 174.8 80.9198C174.57 81.8798 173.57 81.9598 172.76 82.1098L171.94 82.2598C171.72 82.2998 171.73 82.8998 171.6 83.1098C170.62 84.6798 168.59 85.2798 166.82 84.7298C166.19 84.5298 165.69 85.0698 165.39 85.4598C164.69 86.3898 163.38 86.0898 162.73 85.2098C162.56 84.9898 161.99 84.6498 161.74 84.7498C160.76 85.1298 160.81 86.1798 159.24 85.3298C157.02 84.1198 156.87 86.0898 155.29 85.1398C153.63 84.1398 153.63 85.1398 151.43 84.9598C150.18 84.8498 149.51 84.4098 148.94 83.3298C148.64 82.7598 147.41 82.7698 146.8 82.7298C144.76 82.6098 144.76 81.2698 143.08 80.1598C142.07 79.4998 141.31 80.1198 140.54 76.8498C140.27 75.7098 143.22 77.0698 142.85 75.8998C142.01 75.1398 140.65 76.3198 140.37 74.6698C140.03 72.6798 139.65 72.7198 140.42 71.5498C140.53 70.9898 140.47 70.0298 140.52 69.3698C140.62 68.1898 141.62 67.4398 142.14 66.5598C142.47 65.9798 142.27 65.1598 143.08 64.7198C143.99 64.2298 143.2 62.6198 145.13 61.8198L145.64 60.5998C146.1 59.6298 147.18 60.2898 147.83 60.1698C148.96 59.9598 149.82 59.3298 151.05 59.9498C152.34 60.6098 153.09 58.9098 155.06 59.8298C156.67 60.5798 156.72 59.1698 159.28 59.8998C159.97 60.0898 160.46 59.8798 161.04 59.4998C161.75 59.0398 162.6 59.5198 163.35 59.7498C165.09 60.2898 166.31 59.2498 167.6 60.1198C168.3 60.5998 168.85 60.3098 169.58 60.1698C170.83 59.9198 172.23 60.1398 173.56 59.9898C174.72 59.8598 176.05 60.0998 177.01 60.7298L177.64 61.1498C178.15 61.4898 178.01 60.2498 179.86 60.2198L182.11 60.1898C182.62 60.1898 183.21 60.6798 183.8 60.6198C185.58 60.4298 185.4 61.8098 187.31 60.7398C189.01 59.7798 189.48 61.3098 189.98 61.1398C190.45 60.9698 191.75 59.4998 193.44 61.1898C194.34 62.0998 194.44 60.6098 195.74 60.4098C196.87 60.2498 197.73 61.5198 198.32 61.4098C199.03 61.2698 199.16 60.1598 199.85 59.3298L200.25 58.8398C200.72 58.2798 199.17 57.8398 199.15 56.9198C199.14 56.3798 199.43 55.8798 199.72 55.3598C199.93 54.9298 200.02 53.8998 199.97 53.3998C199.72 52.9798 199.28 52.4898 199.31 52.1198C199.35 51.6198 199.64 51.1798 199.91 50.7698C200.19 50.3498 200.19 49.2298 199.9 48.8398C199.3 48.0098 199.16 47.3498 199.74 46.4498C200.23 45.6698 200.25 44.1698 199.85 43.3798C199.66 43.0198 199.48 42.6598 199.61 42.3898C199.81 41.9898 200.09 41.9198 200.69 42.2698C200.72 42.1998 200.77 42.0698 200.82 41.9598C200.31 41.6798 200.04 41.1798 200.05 40.5898L200.13 38.1998C202.08 37.1798 199.33 36.7898 200.28 34.6298" fill="#90BEFB"/>
<path d="M178.03 158.13C178.11 159.97 179.66 159.28 179.32 160.79C178.86 162.86 177.73 162.48 178.85 164.16C180.06 165.99 176.39 167.38 178.99 169.05C179.86 169.61 178.48 170.42 178.5 171.28L178.56 175.38C178.58 177.08 178.4 178.38 178.57 179.57C178.61 179.82 179.08 180.35 179 180.58C178.7 181.31 178.59 182.3 178.76 183.15L178.39 184.5C179.58 188.87 177.57 188.23 178.68 190.54C177.46 192.51 178.9 191.51 178.03 193.92C177.86 194.39 178.46 195.29 178.42 195.77C177.79 199.38 177.14 198.42 178.94 201.95C176.72 203.49 177.98 204.34 178.15 206.85C177.39 207.95 177.56 209.23 178.36 210.2C177.73 211.98 177.5 213.19 178.23 214.8C177.75 216.17 177.26 218.67 178.54 219.94L177.98 221.16L177.88 223.47C177.85 224.16 178.75 224.63 179.33 225.1C178.84 225.32 178.35 225.52 178.05 225.7C177.11 226.25 178.73 227.84 177.83 229.63C177.26 230.79 178.07 230.94 178.03 233.03C179.07 234.7 177.09 234.13 177.79 235.83C175.82 235.81 173.84 235.93 171.95 235.73C171.24 235.66 170.91 235.47 170.15 235.73C169.64 235.91 168.55 235.92 168.05 235.73C167.24 235.44 166.82 235.42 165.98 235.71C165.46 235.89 164.29 235.96 163.78 235.71C162.72 235.18 162.3 233.9 162.36 232.84L160.76 231.9C161.26 231.62 161.54 231.57 161.99 231.48C162.83 231.31 162.74 230.17 162.63 229.55C162.33 227.89 160.97 228.6 160.83 228.15C160.52 227.14 161.11 227.96 162.24 227.43C163.11 227.02 161.67 225.41 162.69 221.85C162.83 221.36 162.57 220.74 162.44 220.18C162.3 219.54 163.07 218.75 162.43 216.31C161.68 213.47 163.03 216.5 162.6 212.24C162.35 209.72 161.14 211.02 162.29 209.28C163.16 207.98 161.83 206.23 162.29 205.53C162.6 205.06 163.04 204.4 162.86 203.75L162.05 200.94L163.06 199.44C162.98 198.4 162.54 197.46 161.92 196.57C161.28 195.64 162.69 195.82 162.94 195.02C163.08 194.58 162.53 192.03 161.99 191.29L162.58 190.69C163.16 190.09 163.07 189.61 162.88 188.88L162.16 186.19C163.07 185.39 163.07 184.32 162.43 183.38C162.68 182.98 162.65 179 162.64 179.11L162.86 177.42C162.64 176.52 162.31 173.81 162.37 173.11C162.63 170.11 161.15 169.08 159.6 167.08C159.3 166.7 159.27 165.8 158.85 165.46L155.83 163C155.83 163 154.39 160.01 151.76 160.4C151.05 160.5 151.1 159.94 150.74 159.21C150.54 158.81 148.8 159.99 147.38 158.72C147.01 158.39 146.43 158.15 145.92 158.27C142.76 159.04 142.55 156.52 140.76 158.86C139.78 157.38 137.39 157.29 136.51 158.4C135.11 158.21 134.07 158.8 133.09 159.77C132.44 160.42 131.65 161.12 131.06 161.84C130.55 162.45 129.16 161.9 129.04 163.42C129.01 163.79 128.58 164.15 128.23 164.09C127.77 164.02 127.41 164.02 127.03 164.16C126.19 164.48 126.71 166.09 125.72 166.11C125.34 166.11 124.85 166.09 124.71 166.25C123.99 167.11 124.64 167.91 123.37 168.08C121.86 168.29 122.47 169.69 122.12 170.16C121.72 170.7 120.29 169.92 120.17 171.32C120.09 172.24 119.56 172.4 118.79 172.69C118 173 117.6 174.05 117.07 174.68C115.08 176.99 117.78 177.19 116.79 179.05C115.61 181.27 116.97 181.81 117.29 182.49C117.37 182.67 116.93 183.1 116.89 183.3L116.58 184.79C116.5 185.19 116.32 185.77 116.42 186.13C116.65 186.97 117.96 187.05 117.84 187.67C117.7 188.42 116.62 187.66 116.5 189.2C116.46 189.82 116.28 190.72 116.44 191.28C116.54 191.63 117.36 191.86 117.67 192.01C117.79 192.08 117.86 192.57 117.72 192.6L117.06 192.73C116.8 192.79 116.43 192.83 116.31 192.97C116.17 193.13 116.23 193.64 116.35 193.82C116.84 194.58 116.37 195.29 116.28 196.01L116.03 197.99C115.96 198.52 116.53 199.38 116.5 199.96C116.34 203.23 115.58 202.36 116.41 203.85C116.69 204.34 116.62 205.51 116.45 206.11C116.35 206.48 115.53 206.94 115.64 207.42C115.8 208.02 116.18 208.55 116.52 209.14C116.49 209.61 116.37 210.58 116.25 211.04C114.71 213.72 117.86 213.03 116.29 215.38C115.6 216.42 115.95 217.71 116.54 218.73L115.83 221.34C115.57 222.34 116.1 223.09 116.82 223.68C117.02 223.9 116.69 224.58 116.48 224.83C115.5 225.93 115.62 227.47 116.79 228.29C116.93 228.39 117.2 228.81 117.08 228.93L116.55 229.47C115.96 230.07 115.82 231.5 116.2 232.24C116.59 232.98 116.66 233.4 116.26 234.13C116.07 234.47 115.75 235.09 115.54 235.36C115.36 235.6 114.58 235.49 114.3 235.39C111.58 234.43 111.48 236.4 110.02 235.39C109.29 234.88 107.39 234.63 106.98 235.88C105.78 235.72 105.7 234.25 104.05 235.4C103.71 235.63 102.92 235.87 102.52 236C101.86 235.48 101.25 235.25 100.48 235.03C100.25 234.5 99.9702 233.62 99.6402 233.08C98.1802 230.67 100.49 231.48 99.4302 228.79L99.2702 227.51C99.2502 227.31 98.9202 226.85 98.9902 226.66C99.0502 226.47 99.2802 226.18 99.4602 225.95C100.01 225.24 99.5902 224.4 99.4602 223.62L99.1602 221.76C100.79 220.05 98.5002 220.06 99.7102 217.45C100.54 215.65 98.7802 214.8 99.5602 213.77C100.04 213.15 99.8402 212.81 99.6202 212.14C99.4702 211.69 99.5802 210.69 99.4602 210.22C99.0302 209.47 99.2102 209.03 99.5502 208.35C99.8402 207.76 99.8002 206.4 99.5702 205.81C99.2602 204.99 98.8202 204.42 99.6402 203.73C100.13 203.31 100.05 202.72 99.9402 202.04C99.8502 201.54 99.9002 200.77 99.5802 200.46C99.1802 200.05 99.0102 199.63 99.3302 199.21C101.04 196.96 98.2902 195.58 99.3602 194.79C100.08 194.25 100.28 193.57 100.17 192.71C100.11 192.19 100.15 191.58 99.5702 191.26C99.1802 191.05 98.9402 190.37 99.3202 190.1L100.28 189.42C100.65 188.76 100.26 188.02 100.13 187.36C99.6402 184.9 100.03 185.92 100.38 184.24C99.1502 182 100.54 182.28 99.7702 180.49C100.17 180.06 100.43 179.53 100.28 179L99.6202 176.66C101.59 174.53 99.1502 174.03 100.45 172.25C101.13 171.33 100.7 170.3 100.12 169.41C99.4502 168.36 102.47 167.69 99.7502 164.29C100.59 163.8 101.28 163.21 101.08 162.25C100.9 161.37 100.42 160.75 99.9302 159.93C99.3802 159.01 101.74 159.07 100.71 156.55C99.9602 154.72 101.34 154.94 101.03 153.02L100.64 150.57C101.56 147.95 100.05 147.25 100.68 145.66C101.5 143.58 101.37 146.1 100.9 142.14C100.78 141.16 98.8502 142.14 99.2402 140.74C99.7802 140.8 100.26 140.87 100.53 140.81C100.84 140.74 101.22 139.96 101.12 139.65L100.44 137.61L102.08 135.96C102.31 135.74 103.15 136.06 103.5 136.06L108.22 136.14C108.64 136.14 109.35 136.84 109.75 136.54C110.85 135.73 112.09 135.65 113.19 136.39C114.18 137.06 114.95 135.15 116.71 136.62C117.03 136.89 117.99 136.89 118.31 136.65C118.67 136.39 119.15 136.05 119.47 136.05C120.71 136.01 120.61 137.06 121.81 137.19C122.72 137.29 122.92 136.18 123.62 136.06C124.35 135.93 125.3 137.34 125.96 136.96L127.5 136.07C128.87 136.44 129.43 137.87 131.21 136.79C132.36 136.1 132.78 137.25 135.27 136.91C135.8 136.84 136.26 136.9 136.79 136.91L141.22 137.01C141.47 137.01 142 137.15 142.23 137.11C144.1 136.74 145.94 136.77 147.81 136.83C148.55 136.84 149.39 136.76 150.11 136.87C151.08 137.03 151.83 137.03 152.77 136.7C153.38 136.5 154.15 136.72 154.85 136.78C155.57 136.84 156.44 136.55 157.14 136.65C159.39 136.97 160.56 136.45 161.46 136.56C162.59 136.71 163.66 136.42 164.74 136.46C166.2 136.51 167.58 136.68 169.11 136.54C169.78 136.48 170.82 136.75 171.39 137.05C171.7 137.21 172.23 137.74 172.5 137.7L173.68 137.05C176.05 137.17 178.34 135.28 179.06 137.66C179.22 138.21 179.15 138.64 178.89 139.23C178.61 139.85 179.54 141.48 179.13 143.18L178.51 143.79C178.34 143.96 178.53 144.61 178.71 144.78C179.46 145.51 179.48 146.69 178.72 147.43C177.68 148.46 179.62 149.47 179.53 150.47C179.5 150.81 179.08 151.29 178.79 151.62C178.11 152.39 177.69 153.69 178.51 154.45C178.82 154.74 179.32 155.02 179.37 155.33C179.59 156.67 177.91 156.56 177.97 158.14" fill="#90BEFB"/>
<path d="M59.5498 122.41V125.72L59.4898 127.25L59.3698 129.44C58.6198 130.98 58.2398 132.44 58.0598 134.11C57.8398 136.06 58.5298 135.72 57.9698 137.36L55.9798 137.92C56.1098 138.46 56.3498 139.3 56.0598 139.56C55.4198 140.1 55.1898 140.66 55.2798 141.55C55.3198 141.93 54.5598 142.58 54.4298 142.95C53.9998 144.11 53.8298 145.35 52.7498 146.14C52.3498 146.43 51.5298 146.87 51.2598 147.27C50.7198 149.02 49.3098 150.16 47.4498 150.31C46.6798 150.93 47.1398 152.3 45.0998 152.24C43.2298 152.19 43.8698 153.37 41.3198 152.85C41.0398 152.79 40.6598 153.27 40.3798 153.58C39.9398 154.07 39.0198 153.78 38.5498 153.42C37.5998 152.7 36.6598 152.34 35.4098 152.42C34.2498 152.49 32.7198 152.22 31.9398 151.27C31.5998 150.87 31.4498 149.94 30.8698 149.9C29.5098 149.8 29.6798 148.51 29.0798 147.83C28.4898 147.16 27.3798 146.7 27.4498 145.55C25.9898 143.94 26.4498 145.92 25.4398 143.06C25.2298 142.46 24.4498 142.15 24.0098 141.63C23.6598 141.22 23.3298 139 23.4998 138.85C23.6398 138.73 23.9198 138.6 24.1698 138.5L24.6098 138.31C24.7098 138.27 24.6898 137.97 24.6098 137.91C23.9998 137.53 23.6198 138.25 23.1298 137.8C22.5798 137.27 23.2498 135.72 22.4798 135.32C21.3698 134.74 20.5998 133.1 21.5498 132.14C21.8298 131.86 22.8598 132.09 22.8898 131.25C22.9298 130.05 21.1298 130.82 20.8498 129.08L20.5698 127.37C20.4698 126.74 20.6998 126.26 21.3798 125.95C20.5898 125.34 20.3598 124.73 20.3498 123.81C20.3498 123.44 20.0998 122.59 20.2998 122.28C20.6698 121.71 21.5598 121.79 22.1998 121.8C21.5698 121.48 20.8698 121.09 20.6198 120.61C20.2198 119.8 20.4498 119.15 20.6498 118.36C21.0098 116.93 22.4098 117.43 22.2198 116.55C22.0998 116.03 20.7598 116.15 20.7198 115.15C20.6498 113.33 22.4498 114 22.2098 112.01C21.8698 109.41 24.1898 110.23 23.3498 108.74C22.4398 107.14 24.5398 107.14 24.1698 105.46C23.9398 104.39 24.6598 104.35 25.1698 103.86C26.0198 103.05 26.5198 101.72 27.1998 100.75C28.8498 98.3501 27.4798 99.0601 29.2198 97.9001C29.8098 97.5001 30.5398 96.8901 31.0698 96.4401C31.3998 95.2201 32.2398 94.6701 33.4898 94.8801C33.6298 94.9001 33.9198 94.9401 34.0398 94.9501C34.4198 94.9801 34.6598 93.7001 35.1098 93.4701C37.9798 93.5201 38.4198 91.9301 39.9198 92.9001C40.6398 93.3601 41.4198 93.1901 42.2898 93.1201C43.3998 93.0401 44.8798 93.3501 45.8298 93.9401C46.4298 94.3101 46.6298 95.3101 47.4698 95.3701L48.6898 95.2001C49.3798 95.1001 49.9998 95.5601 49.9198 96.3101C49.7898 97.6101 51.3998 96.5101 51.8798 98.2901C52.2598 99.7301 53.3298 99.3301 53.5598 99.7801C53.9698 100.62 53.1898 100.56 54.5698 102.44L54.3798 104.12L55.7498 104.49L56.4298 106.12L57.2698 108.25L58.0798 109.05C58.5298 109.49 57.2998 110.74 57.7198 111.38C60.1898 115.23 58.2398 114.4 59.2198 116.37C58.9698 117 58.8498 117.95 59.2498 118.55C60.1398 119.89 59.5598 121.11 59.5498 122.43M80.4098 108.51C80.4098 108.3 80.1598 107.88 79.9498 107.77C78.4798 107.06 79.4498 106.24 78.9898 104.99C78.8798 104.68 78.7098 104.3 78.7598 104.09C78.8598 103.56 79.7498 103.26 79.6598 103.1L79.3498 102.61C79.0698 102.17 78.7098 101.65 78.7298 101.18C78.7798 99.9901 79.9198 99.8301 79.9798 99.1801C80.0598 98.3401 77.9298 98.0701 79.0298 95.8001L79.6298 94.5801C80.2298 93.3501 78.9598 93.8901 78.6698 92.4801C78.5998 92.0801 78.8598 91.5001 79.2398 91.2101C80.3598 90.3301 80.1398 88.7701 79.7798 88.3101C79.5298 87.9701 79.1798 87.5001 79.2998 87.2901L79.8698 86.3201L79.9998 84.7801C79.9198 84.1001 79.4498 83.2201 79.2198 82.4901L79.9398 81.9101C80.3298 81.5901 79.1598 79.5101 80.3798 77.7201C79.3498 75.6101 80.5798 75.7301 80.0798 75.0301C79.4498 74.1301 77.9398 75.1901 77.1198 73.4201C77.0498 73.2601 76.8198 73.0501 76.6998 72.9701C76.0998 72.6301 76.5898 74.9701 74.6398 74.8501C73.7298 74.7901 72.9798 74.5901 72.4998 73.5701C72.1298 74.5001 71.4798 74.5701 70.6998 74.6501C69.6898 74.7701 69.0298 74.2801 68.3898 73.4401C67.9898 73.8601 67.4598 74.4501 66.9498 74.4501C65.6298 74.4201 64.6198 73.1201 64.0498 73.5601C63.8798 73.6901 63.7098 73.9501 63.4698 74.2201C62.9998 74.7401 61.9898 74.4301 61.5098 73.9801C60.9398 73.4501 60.1098 73.3701 59.5398 73.8001C58.7298 74.4101 58.1698 73.9501 57.4698 73.5201C56.9898 73.2401 55.7898 73.2801 55.2998 73.5101C55.0298 73.6401 54.7298 74.1701 54.4898 74.1101L53.3498 73.8401C52.8998 73.7401 52.0198 73.9001 51.4798 74.0001C49.6298 74.3701 49.5998 73.4901 47.3298 73.3401C44.8898 75.1601 45.3698 73.0701 42.9298 73.8601C41.8198 74.2101 40.6998 73.6301 39.5698 73.5801C39.1298 73.5701 38.4598 73.7101 37.9898 73.7801C37.0498 73.9101 36.1498 73.8301 35.2198 73.8501L32.0598 73.8801C30.8698 73.8801 29.8098 74.1301 28.6398 74.0101L26.3898 73.7801C25.6298 73.7101 24.7498 74.1401 24.0298 74.0401C22.8698 73.8901 21.8598 73.8501 20.7398 74.0301C19.1398 74.1301 18.5298 72.9001 17.3298 73.4901C15.5998 74.3501 15.6598 72.7401 13.6798 73.5701C12.5998 74.0201 11.4398 73.5401 10.7798 72.6401L9.58977 72.6701C9.39977 73.4001 8.92977 73.6801 8.34977 73.7401C7.57977 73.8301 7.20977 73.4701 6.95977 72.6501H5.44977C5.14977 73.3701 4.53977 73.8101 3.78977 73.4901L2.52977 72.9501C1.79977 73.5501 2.46977 74.6301 2.22977 75.2101C1.88977 76.0501 1.42977 76.5101 1.77977 77.4801C2.04977 78.2201 1.55977 79.2201 0.769766 79.2001C0.469766 79.1901 0.199766 79.2001 0.00976562 79.2601V79.4401C0.469766 79.4001 1.45977 79.6301 1.53977 80.1901C1.99977 83.1001 1.04977 83.0401 1.25977 84.2601L1.76977 87.2901C1.92977 88.2101 0.689766 87.9601 1.10977 89.5701L1.77977 92.1001C0.229766 95.7801 2.73977 95.8001 0.889766 98.0301L1.39977 99.7301C2.22977 102.46 0.829766 100.86 1.19977 103.96L1.46977 106.31L0.929766 107.99C2.10977 111.83 0.889766 111.45 0.949766 113.58L1.02977 116.18C1.04977 116.82 1.78977 117.42 1.37977 118.24C1.15977 118.69 0.649766 119.14 0.00976562 119.31V119.85C1.43977 119.76 1.87977 122.95 0.899766 123.84C0.899766 126.45 2.41977 127.7 0.299766 129.09C0.739766 129.73 0.829766 130.39 1.04977 131.02C1.39977 132.05 1.80977 133.13 0.979766 134.11L0.959766 135.83C1.67977 136.96 1.50977 138.11 0.459766 138.99L1.55977 141.8C1.98977 142.91 -0.530234 142.98 0.989766 146.23C1.49977 147.31 0.269766 147.4 0.169766 148.01C-0.00023438 148.97 1.06977 148.2 0.809766 150.79L0.589766 153.09C0.679766 153.51 1.02977 154.29 1.02977 154.68V156.37C1.01977 157.74 0.119766 157.03 0.829766 159.31C0.889766 159.51 0.839766 160 0.739766 160.17C0.629766 160.34 0.239766 160.44 0.0197656 160.44V161.69C0.179766 161.64 0.719766 162.03 0.719766 162.28L0.699766 164.94C0.699766 165.32 0.559766 165.99 0.489766 166.4L1.23977 168.84C1.29977 169.05 0.979766 169.55 0.769766 169.56H0.0197656V170.64C0.999766 170.68 0.699766 171.99 1.49977 172.36C2.46977 172.81 3.64977 171.37 4.86977 172.36C6.52977 173.71 6.79977 171.3 8.77977 172.26C10.4198 173.06 11.2998 171.45 13.4998 172.57C16.0698 172.44 15.6298 171.69 17.5098 172.49C19.8098 172.98 20.2998 171.96 22.3598 172.75C24.9798 171.03 25.9698 173.95 26.7398 172.96C27.5898 171.87 28.6798 172.85 30.7998 172.97C32.2198 172.19 33.6898 172.77 35.1398 173.01C36.1798 173.18 37.4498 172.27 38.5698 172.91C39.1498 173.25 39.7298 173.07 40.3798 172.86C41.2298 172.58 42.2198 172.88 43.1598 172.9C43.5598 172.9 44.3198 172.5 44.7398 172.57C45.4298 172.7 46.2498 173.11 46.8198 172.98C48.1498 172.67 50.2398 172.73 51.4798 173.23C53.6698 172.5 53.9698 173.43 55.0998 173.23C55.9698 173.08 56.5598 173.19 57.3398 173.33C58.1698 173.48 59.1698 172.96 59.9898 173.74C60.6198 173.49 61.3698 173.16 61.9198 173.09C64.5998 173.7 65.4098 172.73 66.7098 172.82C67.2698 172.86 68.0198 173.39 68.5098 173.25C69.2898 173.02 69.9398 172.82 70.6898 172.97C73.9298 173.58 73.2398 171.98 74.6498 172.75C76.9598 174.03 77.3598 171.84 79.1298 172.56C79.1898 172.4 78.9098 171.73 78.8898 171.41L78.6998 168.78L80.0398 168.11L78.4998 167.47C78.0398 165.21 79.6198 164.5 78.5998 162.72C78.2898 162.17 78.5798 161.35 78.5298 160.77C78.4598 159.96 78.3798 159.37 78.9498 158.72L78.3098 155.72C78.1398 154.94 79.1998 154.48 79.7198 154.4C79.8698 154.38 80.3198 153.98 80.2098 153.87C79.6698 153.3 78.8298 153.52 78.3598 152.88C78.0498 152.47 78.1398 151.8 78.1898 151.28C78.3598 149.52 79.1398 150.06 79.3698 149.23C79.4998 148.76 78.1998 148.9 78.2398 147.39L78.2998 145.25L79.0498 144.21C78.5198 143.57 78.0598 142.91 77.9798 142.16C77.9398 141.78 78.5098 141.21 78.7298 140.83C78.9498 140.43 78.7698 139.5 78.4498 139.15C77.7298 138.34 78.3298 137.58 78.4998 136.75C78.6598 135.98 78.7798 134.81 78.7898 134.09C78.7898 133.37 77.7698 132.74 78.3898 131.89C78.6998 131.46 79.0098 130.52 78.8498 130.02C78.4998 128.92 78.6998 128.15 78.8798 127.1C78.9998 126.42 79.0598 125.8 79.2698 125.09C79.3598 124.79 79.2198 124.34 78.9798 124.17C77.5198 123.1 79.4398 122.22 79.0798 121.51C78.2898 119.92 79.3998 120.14 78.7598 119C77.6498 117.06 80.2998 118.38 78.6898 114.43C78.5898 114.2 78.5698 113.59 78.6898 113.41C79.0098 112.95 79.5898 113.25 80.0598 112.76C80.5398 112.25 78.2998 111.89 78.6598 110.29C79.1098 108.24 80.3898 109.28 80.4498 108.48" fill="#90BEFB"/>
</g>
<defs>
<clipPath id="clip0_2550_1619">
<rect width="200.89" height="236" fill="white"/>
</clipPath>
</defs>
</svg>
