<svg width="147" height="243" viewBox="0 0 147 243" fill="none" xmlns="http://www.w3.org/2000/svg">
<g clip-path="url(#clip0_2561_11162)">
<mask id="mask0_2561_11162" style="mask-type:luminance" maskUnits="userSpaceOnUse" x="0" y="0" width="147" height="243">
<path d="M146.33 0H0V242.87H146.33V0Z" fill="white"/>
</mask>
<g mask="url(#mask0_2561_11162)">
<path d="M146.33 152.42V152.61C146.01 152.7 145.64 152.71 145.19 152.71H135.03H133.36H131.46L129.26 152.72L128.76 151.57L128.35 150.39C128.06 149.56 127.78 149.2 127.63 148.4C127.6 148.21 127.43 147.99 127.34 147.79L126.92 146.84L126.41 145.46L125.94 144.27L125.52 143.14L125.06 141.85C124.96 141.58 124.85 141.31 124.74 141.04L124.25 139.83L123.78 138.72L123.43 137.71L122.94 136.47L122.23 134.53L121.85 133.59L121.44 132.57L120.85 131.03L119.89 128.5L119.39 127.18L119.01 126.19C118.87 125.82 118.65 125.47 118.6 125.08C118.57 124.87 118.48 124.67 118.23 124.47C117.97 124.55 117.78 124.71 117.8 124.84C118 126.66 117.94 128.44 117.92 130.28V131.95V134.77V144.9V146.84V150.11L117.95 152.68C117.3 152.73 116.79 152.71 116.18 152.71H101.67C101.09 152.75 100.49 152.77 99.9399 152.65V73.9198H116.74C117.01 73.9198 117.25 74.1698 117.17 74.2498L117.51 74.9898L117.89 76.0698L118.39 77.3098L118.83 78.4498L119.27 79.6198L119.99 81.5398L120.43 82.7198L121.09 84.2998L121.52 85.4498L123.05 89.5098L123.45 90.5098L123.95 91.7198L124.3 92.6398L125.45 95.7598L125.87 96.8698L126.26 97.7998L126.81 99.1698L127.17 100.01C127.63 101.07 127.28 101.36 127.98 102.18C128.25 102.1 128.42 101.96 128.41 101.84V98.6998L128.36 97.0498V91.6898L128.37 88.5798V81.8598V80.8298V78.6998V75.9798C128.37 75.3798 128.39 74.8098 128.35 74.1998C128.35 74.1298 128.39 73.9798 128.51 73.9498C128.63 73.9198 128.93 73.9098 129.11 73.9198H131.71L146.13 73.9498C146.3 100.2 146.31 126.32 146.31 152.45" fill="#90BEFB"/>
<path d="M41.04 150.49V227.82C41.04 229.61 40.55 231.18 39.94 232.8C37.77 238.53 32.51 242.2 26.52 242.87H14.55C6.76 242.03 0.92 236.28 0 228.48V14.59C0.61 8.69004 4.15 3.54004 9.66 1.28004C11.38 0.570041 13.1 4.05582e-05 14.99 4.05582e-05H25.66C33.71 -0.0199594 41.02 7.36004 41.02 14.99L41.04 92.32C41.04 92.63 40.74 92.98 40.49 92.98H23.21C23.08 92.98 22.73 92.98 22.73 92.66V18.82C22.73 18.25 22.37 18.05 22.03 18.05L18.75 18.07C18.62 18.07 18.33 18.01 18.33 18.92V223.93C18.33 224.52 18.51 224.78 18.71 224.78L21.92 224.8C22.36 224.8 22.73 224.51 22.73 223.98V150.71C22.73 150.47 22.75 150.26 22.8 150.14C22.85 150.02 23.19 149.91 23.35 149.91H40.49C40.75 149.91 41.04 150.18 41.04 150.5" fill="#90BEFB"/>
<path d="M71.8698 97.111H67.3998V40.181H71.8698V97.111ZM90.1198 37.041C90.1198 29.871 83.2398 22.541 75.4998 22.281C71.5898 22.151 67.7398 22.021 63.8398 22.281C55.4498 22.851 49.1298 29.811 49.1298 38.121L49.0898 152.031C49.0898 152.431 49.4498 152.731 49.7898 152.731H66.4998C66.7298 152.721 67.0398 152.671 67.1498 152.581C67.2698 152.491 67.3998 152.181 67.3998 151.961V115.921C67.3998 115.541 67.5998 115.211 67.9398 115.211H71.2498C71.5298 115.211 71.8598 115.391 71.8598 115.871V151.951C71.8598 152.371 72.1198 152.721 72.5598 152.721H89.5298C89.9198 152.721 90.1798 152.321 90.1798 151.931L90.1098 37.031L90.1198 37.041Z" fill="#90BEFB"/>
</g>
</g>
<defs>
<clipPath id="clip0_2561_11162">
<rect width="146.33" height="242.87" fill="white"/>
</clipPath>
</defs>
</svg>
