<svg width="181" height="162" viewBox="0 0 181 162" fill="none" xmlns="http://www.w3.org/2000/svg">
<g clip-path="url(#clip0_2561_14270)">
<mask id="mask0_2561_14270" style="mask-type:luminance" maskUnits="userSpaceOnUse" x="0" y="0" width="181" height="162">
<path d="M180.16 0H0V161.17H180.16V0Z" fill="white"/>
</mask>
<g mask="url(#mask0_2561_14270)">
<path d="M126.09 5.00047L127.32 5.84047C127.79 7.16047 128.66 8.52047 128.99 9.92047C129.49 12.0205 130.13 13.6005 131.75 15.1005L134.45 17.6005L141.01 22.3405L152.44 30.4405C153.83 31.4205 155.03 32.3805 156.56 33.1605C157.5 33.6405 158.24 34.5205 159.09 35.0905L171.68 43.6705C173.41 44.8505 175.3 46.0005 175.14 48.5105C175.05 50.0605 173.62 51.8505 171.99 52.1005L169.88 52.4205C166.05 53.0105 167.86 51.7805 163.99 52.8505C162.9 53.1505 161.58 52.8105 160.47 52.5705C157.91 52.0305 157.58 51.5105 155.79 52.2505C155.15 52.5205 154.2 52.1205 153.49 52.0005C148.27 51.1005 146 52.8705 140.21 51.9705C138.46 51.7005 138.05 52.9405 135.31 52.5505L132.19 52.0905C131.27 51.9505 130.27 51.3705 129.3 51.3805C127.88 51.3905 126.3 51.8305 124.96 51.5205C119.82 50.3305 120.39 52.5705 115.81 51.6005C113.95 51.2105 110.53 50.8505 109.97 53.0205C109.61 54.4205 112.64 55.9305 113.68 56.6005L115.38 57.7005L130.73 68.1105C131.36 68.5305 132.14 68.8705 132.79 69.2605L134.82 70.4505C136.46 71.4105 138.27 71.8305 140.01 72.4705C141.74 73.1105 143.36 73.5705 145.17 73.8805C146.97 74.1805 148.63 74.7005 150.47 74.3205C151.18 74.1805 152.43 73.8805 152.96 74.5505C153.56 75.3005 153.17 76.5605 153 77.4305C152.64 79.3105 152.32 81.1905 151.42 82.8905C150.51 84.6005 148.87 85.4905 147.41 86.5405C146.45 87.2305 144.58 89.8905 143.05 88.4305C141.43 86.8805 142.71 84.9505 141.2 83.1705C137.99 79.3905 140.75 81.5605 135.82 76.5305C134.74 75.4205 133.53 74.3605 132.3 73.4005L129.45 71.1905L127.25 69.4505L121.31 65.1705C120.22 64.3905 119.23 63.4805 118.03 62.8805C116.91 62.3205 114.67 60.2705 112.06 58.7405C109.73 57.3905 109.17 56.4205 106.19 54.7005C104.91 53.9605 103.52 53.7205 102.16 53.3705C100.54 52.9505 99.0801 52.6705 97.4001 52.6005C96.5901 52.5705 95.7601 52.3605 94.8601 52.2405C94.2901 52.1605 93.4301 51.6505 93.1301 51.0505C92.1201 48.9805 94.8201 45.7805 95.8201 44.1505C96.8501 42.4805 98.0901 41.3105 99.6801 40.3005C101.43 39.1905 103.11 38.5805 105.22 38.6505L109.5 38.7905C110.33 38.8205 111.36 39.3605 112.16 39.2905C113.31 39.2005 114.25 39.1505 115.3 39.6405C117.37 40.6305 117.85 38.5605 120.04 39.0405C121.42 39.3405 122.68 39.2805 124.08 39.3505L126.71 39.4605C128.56 39.5505 130.53 38.8005 132.37 39.1405C133.91 39.4305 135.13 39.4505 136.7 39.1005L140.05 40.0405C141.93 40.5705 148.6 39.2905 150.35 39.7905C151.66 40.1705 152.92 40.4005 154.28 40.3305C154.68 40.3105 155.66 40.4405 155.89 40.1305L157.07 38.4705C156.89 37.0505 155.7 36.7905 154.74 36.1505L142.4 27.8605L137.67 24.8305L136.17 23.9805C134.65 23.1005 133.18 21.8005 131.44 21.4905C129.03 21.0505 126.8 20.5405 124.43 19.9505C122.86 19.5605 121.23 19.4405 119.6 19.2405C119.13 19.1905 118.11 19.2905 117.77 19.0105C116.11 17.6605 116.09 15.4805 117.24 13.8105C119.57 10.4305 118.38 10.5405 121.16 7.89047C123.13 6.00047 122.82 5.21047 126.13 4.98047" fill="#90BEFB"/>
<path d="M68.5601 87.4406C69.1001 91.2806 67.4701 90.2506 66.0701 95.8806L65.6001 97.8106C64.0101 98.9206 63.0801 100.381 62.3401 102.121C61.9201 103.091 60.9401 103.841 60.3601 104.671C59.5201 105.891 58.7801 106.901 57.3301 107.491C55.8601 108.091 54.8601 109.451 53.5901 110.371C52.4701 111.181 51.2001 111.721 50.2101 112.531L45.0701 114.561L42.9401 115.011C37.9301 114.661 38.1701 115.651 32.3101 115.631C31.5201 115.631 30.7101 114.881 30.1001 114.431C29.3401 113.851 28.6001 113.851 27.6901 113.811C26.4601 113.751 24.9001 113.311 23.9101 112.551C19.4301 109.051 20.1301 111.701 17.1901 108.351C15.9801 106.961 14.8301 105.661 13.7901 104.141C11.0801 100.161 8.98006 97.3006 7.54006 92.7006L6.65006 89.8606C6.12006 88.1406 6.04006 86.3206 5.62006 84.5706C5.15006 82.5906 5.00006 78.4206 4.99006 76.2906C4.98006 74.8806 5.21006 73.6206 6.05006 72.4906C7.70006 70.2806 5.04006 69.4206 8.80006 64.7006C10.6801 62.3506 9.00006 61.5006 11.5001 59.3306C12.4601 58.5006 13.1601 57.6206 13.9001 56.6106C14.4501 55.8606 15.4401 55.2806 16.0701 54.6106C17.3801 53.2406 18.7101 52.2806 20.3401 51.3306L22.8601 49.8606C24.9601 48.6406 27.3201 47.9306 29.6801 47.1706L32.7301 46.1806C34.7601 45.5206 37.0201 45.0006 38.5901 43.4906C39.7701 42.3506 40.9001 41.8106 42.5701 41.8906C43.6101 41.9506 44.5701 42.1906 45.3401 43.0806L47.9301 46.0506C48.5701 46.8006 49.1201 47.7006 49.9201 48.2706C50.7401 48.8606 51.2201 49.5706 51.5501 50.5606C52.5301 53.3906 53.1801 52.9706 53.5901 55.0106C53.8101 56.0806 53.5201 57.1906 52.5001 57.6106C51.5401 58.0106 50.7601 57.0706 49.9701 56.9006C47.4201 56.3806 45.7101 56.1406 43.7701 54.1206C42.7701 53.0706 41.2301 52.9206 40.0301 52.2706C38.5201 51.4506 37.2301 50.3806 35.5101 50.2706C32.9101 50.1006 30.6101 50.6106 28.1901 51.4806C26.8801 51.9506 25.4701 52.2206 24.3401 53.1306L21.4501 55.4506C20.3901 56.3006 19.1401 57.0206 18.5101 58.2806C18.0601 59.1806 17.7401 60.3506 16.9901 61.0106C15.8201 62.0106 15.2201 63.1206 14.9801 64.6306C14.4601 67.8906 15.1401 65.7206 14.2901 68.8706C13.6601 71.2206 13.9901 73.7706 14.7301 76.0606L15.7801 79.3406C16.5901 81.8306 20.1001 90.8406 21.3301 92.9506C21.9101 93.9406 22.7901 94.7706 23.5401 95.6506C26.5801 99.1706 26.0001 97.1406 27.8701 99.2406C30.2801 101.951 33.0901 100.911 34.2901 101.681C36.0001 102.771 37.6201 103.131 39.6301 102.761C41.1301 102.481 42.8201 102.631 44.3401 102.261C48.0001 101.361 52.6201 99.4406 55.7201 97.2406C56.8701 96.4206 57.9301 95.4206 58.9601 94.4206C59.8001 93.5906 60.1901 92.3306 60.7201 91.2806C61.1501 90.4306 62.3001 89.9706 62.8201 89.2506L65.1801 86.0006C65.5101 85.5406 66.2401 84.8106 66.7601 84.9106C68.1801 85.1606 68.3901 86.3506 68.5501 87.4506" fill="#90BEFB"/>
<path d="M90.5002 119.12C91.5402 118.88 92.5002 119.8 92.8802 120.67L101.43 129.74C102.78 131.17 103.35 133.35 102.67 135.17C102.35 136.03 101.12 136.68 100.3 136.8C98.9603 137 97.9402 137.4 96.7902 138.05C95.6702 138.67 94.5002 139.15 93.3402 139.66C91.5802 140.44 89.9402 140.93 88.0102 141.13C87.1602 141.21 86.2302 142.05 85.4402 142.37C83.7802 143.03 82.3202 143.75 80.8802 144.74C80.0102 145.35 79.0703 145.19 78.1603 144.71C77.4103 144.31 76.8802 143.23 77.5702 142.43C79.1302 140.62 80.0502 138.58 81.1702 136.44C81.9702 134.92 83.1002 133.61 83.7702 131.98C84.2302 130.86 84.2902 129.74 84.4702 128.53C84.6902 127.15 86.0902 126.09 86.7002 124.85L88.4702 121.27C88.8902 120.43 89.6002 119.33 90.5202 119.11M90.7302 86.2298L89.7102 89.6998C89.3902 90.7798 88.7802 91.8698 88.5202 92.9598C88.2402 94.1898 87.9202 95.1898 87.1802 96.2398C86.4602 97.2898 86.1302 98.5698 85.6802 99.7798C85.2002 101.06 84.4302 102.31 84.1602 103.63C83.8402 105.17 83.3302 106.44 82.5102 107.81C81.9702 108.7 81.5302 109.64 81.0602 110.59C80.4202 111.87 79.5202 113.05 79.2102 114.44C78.5202 117.55 77.1502 120.1 75.4002 122.78C74.8302 123.67 74.6502 124.86 74.0002 125.71L71.9602 128.39L70.8402 131.13C70.4602 132.07 69.6502 132.8 69.2002 133.69C68.3002 135.48 67.4302 137.13 66.4202 138.85C65.8902 139.76 65.3902 140.76 65.2302 141.82L64.5802 146.25C64.2902 148.19 65.0502 149.22 66.2802 150.61C68.8202 153.51 69.3902 154.31 73.3602 156.02C74.4702 156.5 75.5302 155.79 75.8202 154.69L76.4902 152.18C77.6402 150.39 79.4602 149.5 81.3502 148.74C83.1002 148.04 84.7002 147.29 86.3602 146.46C87.8902 145.68 89.5002 145.28 91.1802 145.2C92.0802 145.16 92.8102 144.82 93.6302 144.48C94.5702 144.08 95.7402 143.86 96.5802 143.32C98.2502 142.24 99.8703 141.36 101.76 140.94L108.15 137.82C109.27 137.27 110.34 136.57 111.51 136.14C113.45 135.41 115.37 134.58 117.39 134.27C123.32 133.38 119.28 132.49 128.11 131.65C129.56 131.51 130.85 131.52 132.34 131.66C133.25 131.75 134.38 131.08 135.32 131.07C136.2 131.07 136.98 131.1 137.52 130.38C138.8 128.67 136.77 126.28 135.49 124.97C135.06 124.53 134.68 123.92 134.29 123.47C133.01 122.01 131.75 120.68 130.34 119.3C129.46 118.42 126.6 116.73 125.21 117.75C123.89 118.69 124.76 119.74 123.76 122.28C123.26 123.52 122.97 124.89 122.11 125.97C121.32 126.95 120.08 127.42 119.08 128.12C116.8 129.73 114.39 130.8 111.81 131.76C110.17 132.37 108.84 132.4 107.55 130.97L103.9 126.96C101.89 124.75 100.55 123.69 98.3003 121.1C96.1703 118.63 94.1102 116.73 94.0502 113.51C93.9402 107.3 94.4602 109.41 95.4602 106.36C96.3902 103.5 97.5902 102.38 99.9302 100.69L104.52 99.5698C105.17 99.4098 106.2 99.3598 106.57 98.7498C107.67 96.9098 106.84 95.0098 105.55 93.5598L101.44 88.9398C100.37 87.7498 99.2803 86.6698 98.1603 85.5398C96.4203 83.7498 94.6702 82.2598 91.9702 82.5198C90.3802 82.6698 91.0602 85.1098 90.7302 86.2398" fill="#90BEFB"/>
<path d="M124.49 9.96987L123.87 9.53987C121.6 7.97987 121.02 4.86987 122.58 2.58987C124.15 0.319873 127.26 -0.260127 129.54 1.29987L130.15 1.71987C132.43 3.27987 133 6.39987 131.44 8.66987C130.47 10.0899 128.9 10.8399 127.31 10.8399C126.34 10.8399 125.35 10.5599 124.49 9.96987Z" fill="black"/>
<path d="M124.13 11.0896C123.49 8.40965 125.14 5.70965 127.83 5.05965C130.51 4.41965 133.21 6.06965 133.85 8.75965C134.5 11.4496 132.84 14.1396 130.16 14.7896C129.76 14.8796 129.37 14.9296 128.98 14.9296C126.73 14.9296 124.68 13.3796 124.13 11.0896Z" fill="black"/>
<path d="M128.36 18.7807C126.33 16.9007 126.21 13.7407 128.09 11.7107C129.96 9.6907 133.12 9.5707 135.15 11.4407C137.18 13.3207 137.3 16.4807 135.42 18.5107C134.44 19.5707 133.1 20.1107 131.75 20.1107C130.54 20.1107 129.32 19.6707 128.36 18.7807Z" fill="black"/>
<path d="M131.06 21.2801C129.04 19.4101 128.91 16.2501 130.79 14.2201C132.66 12.1901 135.82 12.0701 137.85 13.9501C139.88 15.8201 140 18.9801 138.13 21.0101C137.14 22.0801 135.8 22.6201 134.46 22.6201C133.24 22.6201 132.03 22.1801 131.06 21.2801Z" fill="black"/>
<path d="M138.1 26.4095C135.86 24.7895 135.35 21.6695 136.97 19.4195C138.58 17.1895 141.71 16.6795 143.95 18.2995C146.19 19.9095 146.69 23.0395 145.08 25.2795C144.1 26.6295 142.57 27.3495 141.02 27.3495C140 27.3495 138.98 27.0395 138.1 26.4095Z" fill="black"/>
<path d="M149.56 34.5295C147.31 32.9395 146.78 29.8195 148.37 27.5595C149.97 25.3095 153.09 24.7795 155.34 26.3795C157.6 27.9695 158.13 31.0895 156.53 33.3495C155.56 34.7195 154.02 35.4595 152.45 35.4595C151.45 35.4595 150.44 35.1595 149.56 34.5295Z" fill="black"/>
<path d="M154.29 37.6297C151.83 36.3697 150.87 33.3497 152.13 30.8997C153.39 28.4397 156.4 27.4697 158.86 28.7297C161.32 29.9897 162.28 33.0097 161.02 35.4597C160.14 37.1897 158.39 38.1797 156.57 38.1797C155.8 38.1797 155.02 37.9997 154.29 37.6297Z" fill="black"/>
<path d="M156.31 39.2604C154.02 37.7104 153.41 34.6004 154.96 32.3104C156.5 30.0204 159.61 29.4204 161.9 30.9704C164.19 32.5104 164.79 35.6204 163.25 37.9104C162.28 39.3404 160.7 40.1104 159.1 40.1104C158.14 40.1104 157.16 39.8304 156.31 39.2604Z" fill="black"/>
<path d="M168.88 47.8202C166.6 46.2702 166 43.1602 167.56 40.8702C169.11 38.5902 172.22 38.0002 174.51 39.5502C176.79 41.1102 177.38 44.2202 175.83 46.5002C174.86 47.9202 173.29 48.6902 171.69 48.6902C170.72 48.6902 169.74 48.4102 168.88 47.8202Z" fill="black"/>
<path d="M174.85 53.5201C172.09 53.3501 169.99 50.9701 170.16 48.2201C170.34 45.4601 172.71 43.3601 175.46 43.5401C178.22 43.7101 180.31 46.0801 180.15 48.8401C179.98 51.4901 177.78 53.5301 175.16 53.5301C175.06 53.5301 174.95 53.5301 174.85 53.5301V53.5201Z" fill="black"/>
<path d="M167.06 52.8594C166.65 50.1294 168.53 47.5794 171.26 47.1694C173.99 46.7594 176.54 48.6394 176.95 51.3794C177.35 54.1094 175.47 56.6494 172.74 57.0594C172.49 57.0994 172.24 57.1194 171.99 57.1194C169.56 57.1194 167.43 55.3394 167.06 52.8594Z" fill="black"/>
<path d="M164.95 53.1901C164.53 50.4601 166.41 47.9101 169.14 47.5001C171.87 47.0801 174.42 48.9601 174.83 51.6901C175.25 54.4201 173.37 56.9701 170.64 57.3801C170.38 57.4201 170.13 57.4401 169.88 57.4401C167.45 57.4401 165.32 55.6601 164.95 53.1901Z" fill="black"/>
<path d="M159.18 54.2003C158.44 51.5403 160.01 48.7803 162.67 48.0503C165.33 47.3103 168.08 48.8803 168.82 51.5403C169.55 54.2003 167.99 56.9503 165.33 57.6903C164.88 57.8103 164.44 57.8703 164 57.8703C161.8 57.8703 159.79 56.4203 159.18 54.2003Z" fill="black"/>
<path d="M159.43 57.4707C156.74 56.9007 155.01 54.2507 155.59 51.5407C156.16 48.8507 158.81 47.1207 161.52 47.6907C164.22 48.2707 165.94 50.9207 165.37 53.6207C164.87 55.9707 162.79 57.5807 160.48 57.5807C160.14 57.5807 159.79 57.5507 159.43 57.4707Z" fill="black"/>
<path d="M151.18 54.1898C150.12 51.6398 151.33 48.7098 153.87 47.6498C156.42 46.5898 159.35 47.7998 160.41 50.3398C161.47 52.8998 160.27 55.8198 157.72 56.8798C157.09 57.1498 156.44 57.2698 155.8 57.2698C153.84 57.2698 151.98 56.1098 151.18 54.1898Z" fill="black"/>
<path d="M152.65 56.9492C149.93 56.4692 148.1 53.8892 148.57 51.1692C149.04 48.4492 151.63 46.6192 154.35 47.0892C157.07 47.5592 158.89 50.1492 158.42 52.8692C158 55.2992 155.89 57.0192 153.5 57.0192C153.22 57.0192 152.93 56.9992 152.65 56.9492Z" fill="black"/>
<path d="M139.44 56.9294C136.71 56.4994 134.85 53.9494 135.27 51.2194C135.7 48.4894 138.25 46.6194 140.98 47.0394C143.71 47.4694 145.58 50.0294 145.15 52.7494C144.77 55.2194 142.64 56.9894 140.22 56.9894C139.96 56.9894 139.7 56.9694 139.44 56.9294Z" fill="black"/>
<path d="M134.59 57.5098C131.86 57.1098 129.97 54.5798 130.37 51.8398C130.76 49.1098 133.3 47.2198 136.03 47.6198C138.77 48.0098 140.66 50.5498 140.26 53.2798C139.9 55.7698 137.76 57.5698 135.32 57.5698C135.08 57.5698 134.84 57.5498 134.59 57.5098Z" fill="black"/>
<path d="M131.46 57.0494C128.73 56.6494 126.84 54.1094 127.25 51.3694C127.65 48.6394 130.19 46.7494 132.92 47.1594C135.66 47.5594 137.54 50.0994 137.14 52.8294C136.77 55.3194 134.64 57.0994 132.2 57.0994C131.96 57.0994 131.71 57.0994 131.46 57.0494Z" fill="black"/>
<path d="M124.31 51.4004C124.31 48.6404 126.55 46.4004 129.31 46.4004C132.07 46.4004 134.31 48.6404 134.31 51.4004C134.31 54.1604 132.07 56.4004 129.31 56.4004C126.55 56.4004 124.31 54.1604 124.31 51.4004Z" fill="black"/>
<path d="M123.83 56.4103C121.15 55.7803 119.47 53.1003 120.1 50.4103C120.72 47.7203 123.41 46.0503 126.1 46.6703C128.79 47.3003 130.46 49.9803 129.84 52.6703C129.3 54.9803 127.24 56.5403 124.97 56.5403C124.59 56.5403 124.21 56.5003 123.83 56.4103Z" fill="black"/>
<path d="M114.78 56.5101C112.08 55.9401 110.35 53.2902 110.92 50.5902C111.49 47.8802 114.14 46.1602 116.85 46.7302C119.55 47.3002 121.28 49.9502 120.71 52.6502C120.21 55.0102 118.13 56.6202 115.81 56.6202C115.47 56.6202 115.13 56.5801 114.78 56.5101Z" fill="black"/>
<path d="M108.73 57.8807C106.05 57.2007 104.44 54.4707 105.13 51.8007C105.82 49.1207 108.54 47.5107 111.22 48.2007C113.89 48.8807 115.5 51.6107 114.81 54.2807C114.23 56.5407 112.2 58.0407 109.98 58.0407C109.57 58.0407 109.15 57.9907 108.73 57.8807Z" fill="black"/>
<path d="M110.97 60.8203C108.65 59.3203 107.98 56.2303 109.48 53.9103C110.97 51.5803 114.07 50.9203 116.39 52.4203C118.71 53.9103 119.38 57.0003 117.88 59.3303C116.92 60.8103 115.32 61.6203 113.67 61.6203C112.75 61.6203 111.81 61.3603 110.97 60.8203Z" fill="black"/>
<path d="M112.66 61.9197C110.34 60.4097 109.68 57.3197 111.19 54.9997C112.69 52.6797 115.79 52.0197 118.1 53.5297C120.42 55.0297 121.08 58.1297 119.57 60.4397C118.61 61.9197 117.01 62.7197 115.37 62.7197C114.44 62.7197 113.5 62.4597 112.66 61.9197Z" fill="black"/>
<path d="M127.93 72.2709C125.64 70.7209 125.04 67.6209 126.59 65.3309C128.15 63.0409 131.25 62.4509 133.54 64.0009C135.83 65.5509 136.42 68.6609 134.87 70.9409C133.9 72.3709 132.33 73.1409 130.73 73.1409C129.76 73.1409 128.79 72.8609 127.93 72.2709Z" fill="black"/>
<path d="M130.26 73.5909C127.88 72.2009 127.08 69.1309 128.48 66.7509C129.88 64.3709 132.94 63.5709 135.32 64.9709C137.71 66.3709 138.5 69.4309 137.1 71.8109C136.17 73.4009 134.5 74.2809 132.79 74.2809C131.93 74.2809 131.06 74.0609 130.26 73.5909Z" fill="black"/>
<path d="M132.29 74.7803C129.91 73.3903 129.11 70.3203 130.51 67.9403C131.91 65.5603 134.97 64.7603 137.35 66.1603C139.73 67.5603 140.53 70.6303 139.13 73.0003C138.2 74.5903 136.53 75.4703 134.82 75.4703C133.96 75.4703 133.08 75.2503 132.29 74.7803Z" fill="black"/>
<path d="M138.29 77.191C135.7 76.241 134.37 73.3609 135.32 70.7709C136.27 68.1809 139.15 66.851 141.74 67.801C144.33 68.751 145.66 71.6309 144.71 74.2209C143.97 76.2409 142.05 77.5009 140.02 77.5009C139.44 77.5009 138.86 77.401 138.29 77.191Z" fill="black"/>
<path d="M144.33 78.8292C141.61 78.3692 139.78 75.7792 140.24 73.0592C140.7 70.3392 143.29 68.5092 146.01 68.9692C148.73 69.4392 150.56 72.0192 150.1 74.7392C149.68 77.1792 147.57 78.8992 145.18 78.8992C144.9 78.8992 144.61 78.8792 144.33 78.8292Z" fill="black"/>
<path d="M145.57 75.3396C145.02 72.6296 146.78 69.9896 149.48 69.4396C152.19 68.8996 154.83 70.6496 155.38 73.3596C155.92 76.0596 154.17 78.6996 151.46 79.2496C151.13 79.3096 150.79 79.3496 150.47 79.3496C148.14 79.3496 146.05 77.7096 145.57 75.3396Z" fill="black"/>
<path d="M149.05 77.6897C147.33 75.5397 147.68 72.3897 149.84 70.6697C152 68.9397 155.14 69.2897 156.86 71.4497C158.59 73.6097 158.24 76.7497 156.08 78.4797C155.16 79.2097 154.06 79.5697 152.96 79.5697C151.5 79.5697 150.04 78.9297 149.05 77.6897Z" fill="black"/>
<path d="M152.04 82.3593C149.33 81.8293 147.56 79.1993 148.09 76.4893C148.62 73.7793 151.25 72.0193 153.96 72.5493C156.67 73.0693 158.43 75.6993 157.91 78.4093C157.44 80.7993 155.35 82.4493 153 82.4493C152.69 82.4493 152.36 82.4193 152.04 82.3593Z" fill="black"/>
<path d="M149.08 87.3292C146.64 86.0392 145.71 83.0092 146.99 80.5692C148.29 78.1292 151.31 77.1992 153.75 78.4892C156.19 79.7792 157.13 82.7992 155.84 85.2392C154.94 86.9392 153.21 87.9092 151.41 87.9092C150.62 87.9092 149.83 87.7192 149.08 87.3292Z" fill="black"/>
<path d="M143.34 89.4799C141.73 87.2399 142.24 84.1199 144.48 82.5099C146.72 80.8899 149.85 81.3999 151.46 83.6399C153.07 85.8799 152.57 89.0099 150.32 90.6199C149.44 91.2599 148.42 91.5598 147.41 91.5598C145.85 91.5598 144.32 90.8399 143.34 89.4799Z" fill="black"/>
<path d="M139.59 92.0706C137.59 90.1606 137.52 87.0006 139.43 85.0006C141.34 83.0006 144.5 82.9306 146.5 84.8406C148.49 86.7506 148.56 89.9106 146.66 91.9106C145.68 92.9406 144.36 93.4506 143.04 93.4506C141.8 93.4506 140.56 92.9906 139.59 92.0706Z" fill="black"/>
<path d="M137.38 86.4309C135.59 84.3309 135.85 81.1709 137.95 79.3909C140.05 77.6009 143.21 77.8509 145 79.9609C146.79 82.0609 146.53 85.2109 144.43 87.0009C143.49 87.8009 142.34 88.1909 141.19 88.1909C139.78 88.1909 138.37 87.6009 137.38 86.4309Z" fill="black"/>
<path d="M132.24 80.0505C130.3 78.0805 130.34 74.9205 132.31 72.9805C134.28 71.0505 137.44 71.0805 139.38 73.0505C141.31 75.0305 141.28 78.1905 139.31 80.1205C138.34 81.0805 137.07 81.5505 135.81 81.5505C134.51 81.5505 133.22 81.0505 132.24 80.0505Z" fill="black"/>
<path d="M129.2 77.3605C127.03 75.6505 126.65 72.5105 128.35 70.3405C130.06 68.1705 133.2 67.7905 135.37 69.4905C137.55 71.1905 137.93 74.3405 136.22 76.5105C135.23 77.7705 133.77 78.4205 132.28 78.4205C131.2 78.4205 130.12 78.0805 129.2 77.3605Z" fill="black"/>
<path d="M126.37 75.1705C124.19 73.4805 123.79 70.3405 125.48 68.1605C127.17 65.9705 130.31 65.5705 132.49 67.2605C134.68 68.9505 135.08 72.0905 133.39 74.2705C132.4 75.5505 130.92 76.2205 129.43 76.2205C128.36 76.2205 127.28 75.8805 126.37 75.1705Z" fill="black"/>
<path d="M124.13 73.3993C121.97 71.6893 121.6 68.5493 123.31 66.3793C125.02 64.2093 128.17 63.8393 130.33 65.5593C132.5 67.2693 132.87 70.4093 131.15 72.5793C130.17 73.8293 128.71 74.4793 127.23 74.4793C126.14 74.4793 125.05 74.1293 124.13 73.3993Z" fill="black"/>
<path d="M118.37 69.2607C116.13 67.6507 115.62 64.5207 117.23 62.2807C118.85 60.0407 121.97 59.5307 124.21 61.1407C126.45 62.7507 126.96 65.8807 125.35 68.1207C124.37 69.4807 122.84 70.2007 121.29 70.2007C120.28 70.2007 119.25 69.9007 118.37 69.2607Z" fill="black"/>
<path d="M115.78 67.3901C113.31 66.1601 112.3 63.1601 113.54 60.6801C114.77 58.2101 117.77 57.2101 120.24 58.4401C122.71 59.6701 123.71 62.6701 122.48 65.1401C121.61 66.9001 119.84 67.9101 118 67.9101C117.26 67.9101 116.49 67.7501 115.78 67.3901Z" fill="black"/>
<path d="M109.51 63.0905C107.13 61.7005 106.32 58.6405 107.72 56.2505C109.11 53.8705 112.17 53.0605 114.56 54.4605C116.94 55.8505 117.74 58.9105 116.35 61.3005C115.42 62.8905 113.75 63.7805 112.03 63.7805C111.17 63.7805 110.3 63.5605 109.51 63.0905Z" fill="black"/>
<path d="M103.67 59.0695C101.28 57.6895 100.45 54.6395 101.83 52.2395C103.2 49.8495 106.26 49.0295 108.65 50.3995C111.05 51.7795 111.87 54.8395 110.49 57.2295C109.57 58.8395 107.89 59.7395 106.16 59.7395C105.31 59.7395 104.46 59.5195 103.67 59.0695Z" fill="black"/>
<path d="M100.87 58.25C98.2001 57.55 96.6001 54.82 97.3001 52.15C97.9901 49.48 100.72 47.87 103.4 48.57C106.07 49.27 107.67 52 106.97 54.67C106.39 56.92 104.36 58.41 102.14 58.41C101.72 58.41 101.3 58.36 100.87 58.25Z" fill="black"/>
<path d="M97.1598 57.6308C94.3998 57.5208 92.2598 55.1908 92.3798 52.4308C92.4898 49.6708 94.8198 47.5308 97.5798 47.6408C100.34 47.7608 102.48 50.0908 102.37 52.8508C102.25 55.5308 100.04 57.6408 97.3798 57.6408C97.2998 57.6408 97.2298 57.6408 97.1598 57.6408V57.6308Z" fill="black"/>
<path d="M94.1402 57.2294C91.4102 56.8494 89.4902 54.3294 89.8702 51.5894C90.2502 48.8594 92.7702 46.9394 95.5102 47.3194C98.2502 47.6994 100.16 50.2194 99.7802 52.9594C99.4302 55.4594 97.2902 57.2794 94.8302 57.2794C94.6002 57.2794 94.3702 57.2594 94.1402 57.2294Z" fill="black"/>
<path d="M88.61 53.2895C87.39 50.8095 88.42 47.8195 90.9 46.5995C93.37 45.3795 96.37 46.4095 97.59 48.8795C98.8 51.3595 97.78 54.3595 95.3 55.5695C94.59 55.9195 93.84 56.0895 93.1 56.0895C91.25 56.0895 89.48 55.0595 88.61 53.2895Z" fill="black"/>
<path d="M93.17 48.4496C90.81 46.9996 90.08 43.9296 91.52 41.5696C92.97 39.2196 96.05 38.4896 98.4 39.9296C100.76 41.3796 101.49 44.4596 100.05 46.8096C99.1 48.3496 97.46 49.1896 95.78 49.1896C94.89 49.1896 93.98 48.9496 93.17 48.4496Z" fill="black"/>
<path d="M95.4299 43.0203C93.9499 40.6903 94.6299 37.6003 96.9699 36.1203C99.2899 34.6303 102.39 35.3303 103.87 37.6503C105.35 39.9803 104.66 43.0703 102.33 44.5503C101.5 45.0803 100.57 45.3403 99.6499 45.3403C97.9999 45.3403 96.3799 44.5203 95.4299 43.0203Z" fill="black"/>
<path d="M105.01 43.6808C102.25 43.5908 100.09 41.2808 100.19 38.5208C100.28 35.7508 102.6 33.5908 105.36 33.6908C108.12 33.7808 110.28 36.1008 110.18 38.8608C110.09 41.5608 107.87 43.6908 105.19 43.6908C105.13 43.6908 105.07 43.6908 105.01 43.6908V43.6808Z" fill="black"/>
<path d="M109.3 43.8208C106.54 43.7308 104.38 41.4208 104.46 38.6608C104.56 35.9008 106.86 33.7408 109.62 33.8308C112.38 33.9108 114.55 36.2208 114.46 38.9808C114.37 41.6908 112.15 43.8208 109.46 43.8208H109.3Z" fill="black"/>
<path d="M107.15 39.8205C106.88 37.0705 108.89 34.6205 111.64 34.3505C114.39 34.0805 116.83 36.0905 117.1 38.8305C117.38 41.5805 115.37 44.0305 112.62 44.3005C112.45 44.3205 112.29 44.3205 112.12 44.3205C109.58 44.3205 107.41 42.3905 107.15 39.8205Z" fill="black"/>
<path d="M113.14 44.1997C110.64 43.0197 109.57 40.0397 110.74 37.5497C111.92 35.0497 114.9 33.9797 117.4 35.1497C119.9 36.3297 120.97 39.3097 119.79 41.8097C118.94 43.6197 117.14 44.6797 115.26 44.6797C114.55 44.6797 113.82 44.5197 113.14 44.1997Z" fill="black"/>
<path d="M118.93 43.96C116.23 43.37 114.53 40.7001 115.12 38.0001C115.72 35.3101 118.38 33.6001 121.08 34.2001C123.78 34.7901 125.48 37.4501 124.89 40.1501C124.38 42.4901 122.31 44.0801 120.02 44.0801C119.66 44.0801 119.3 44.04 118.93 43.96Z" fill="black"/>
<path d="M123.83 44.3796C121.07 44.2596 118.93 41.9196 119.06 39.1596C119.18 36.4096 121.51 34.2696 124.27 34.3896C127.03 34.5196 129.17 36.8496 129.04 39.6096C128.93 42.2896 126.71 44.3896 124.05 44.3896C123.98 44.3896 123.9 44.3896 123.83 44.3896V44.3796Z" fill="black"/>
<path d="M126.47 44.4909C123.71 44.3809 121.57 42.0409 121.68 39.2909C121.8 36.5309 124.13 34.3809 126.89 34.5009C129.65 34.6209 131.79 36.9509 131.68 39.7109C131.56 42.3909 129.35 44.5009 126.69 44.5009C126.62 44.5009 126.54 44.4909 126.47 44.4909Z" fill="black"/>
<path d="M131.42 44.0899C128.71 43.5799 126.92 40.9699 127.43 38.2599C127.94 35.5399 130.55 33.7599 133.26 34.2599C135.98 34.7699 137.77 37.3899 137.26 40.0999C136.81 42.4999 134.71 44.1799 132.35 44.1799C132.05 44.1799 131.73 44.1499 131.42 44.0899Z" fill="black"/>
<path d="M131.79 40.2393C131.19 37.5393 132.87 34.8693 135.57 34.2593C138.26 33.6493 140.94 35.3393 141.55 38.0293C142.16 40.7293 140.47 43.3993 137.77 44.0093C137.4 44.0993 137.03 44.1393 136.67 44.1393C134.38 44.1393 132.32 42.5593 131.79 40.2393Z" fill="black"/>
<path d="M138.67 44.8893C136.01 44.1393 134.46 41.3793 135.21 38.7193C135.95 36.0593 138.71 34.5093 141.37 35.2593C144.03 35.9993 145.58 38.7693 144.84 41.4193C144.22 43.6293 142.21 45.0693 140.03 45.0693C139.58 45.0693 139.12 45.0093 138.67 44.8893Z" fill="black"/>
<path d="M148.94 44.6311C146.28 43.8711 144.75 41.1011 145.51 38.4411C146.28 35.7911 149.05 34.2611 151.7 35.0211C154.36 35.7911 155.89 38.5611 155.13 41.2111C154.49 43.4011 152.49 44.8311 150.32 44.8311C149.86 44.8311 149.4 44.7711 148.94 44.6311Z" fill="black"/>
<path d="M149.25 40.6109C149.12 37.8509 151.24 35.5109 154 35.3709C156.76 35.2409 159.1 37.3609 159.24 40.1209C159.37 42.8809 157.25 45.2209 154.49 45.3609C154.41 45.3609 154.33 45.3609 154.24 45.3609C151.59 45.3609 149.38 43.2809 149.25 40.6009V40.6109Z" fill="black"/>
<path d="M150.08 40.4798C150.03 37.9998 151.79 35.9098 154.15 35.4598C155.66 34.9198 157.4 35.0998 158.8 36.1198C161.03 37.7398 161.52 40.8698 159.9 43.1098C158.59 44.7698 157.35 44.9998 156.69 45.1998C155.98 45.3598 155.54 45.3598 155.18 45.3698C155.18 45.3698 155.11 45.3798 155.08 45.3798C152.36 45.3798 150.13 43.1998 150.08 40.4798Z" fill="black"/>
<path d="M154.15 42.5808C151.89 40.9908 151.35 37.8708 152.95 35.6208C154.54 33.3608 157.66 32.8208 159.91 34.4108C162.17 36.0108 162.71 39.1308 161.12 41.3808C160.14 42.7608 158.6 43.5008 157.03 43.5008C156.03 43.5008 155.02 43.2008 154.15 42.5808Z" fill="black"/>
<path d="M151.94 40.3502C149.64 38.8202 149.01 35.7202 150.54 33.4202C152.06 31.1202 155.17 30.4902 157.47 32.0102C159.77 33.5402 160.4 36.6402 158.87 38.9402C157.91 40.4002 156.32 41.1802 154.7 41.1802C153.75 41.1802 152.79 40.9102 151.94 40.3502Z" fill="black"/>
<path d="M139.58 32.0404C137.29 30.5104 136.67 27.4004 138.22 25.1004C139.76 22.8104 142.86 22.2104 145.16 23.7404C147.45 25.2804 148.06 28.3904 146.52 30.6804C145.55 32.1204 143.97 32.8904 142.36 32.8904C141.4 32.8904 140.43 32.6204 139.58 32.0404Z" fill="black"/>
<path d="M134.94 29.0696C132.62 27.5796 131.94 24.4896 133.43 22.1596C134.93 19.8396 138.02 19.1596 140.34 20.6496C142.67 22.1496 143.34 25.2396 141.85 27.5596C140.89 29.0496 139.28 29.8596 137.64 29.8596C136.71 29.8596 135.78 29.6096 134.94 29.0696Z" fill="black"/>
<path d="M134.43 28.7901L133.68 28.3701C131.28 27.0001 130.43 23.9601 131.79 21.5501C133.15 19.1501 136.2 18.3001 138.6 19.6601L139.35 20.0801C141.76 21.4401 142.6 24.4901 141.24 26.9001C140.32 28.5201 138.63 29.4401 136.89 29.4401C136.05 29.4401 135.21 29.2301 134.43 28.7901Z" fill="black"/>
<path d="M130.54 26.4502C127.82 25.9702 126 23.3802 126.48 20.6602C126.96 17.9402 129.55 16.1202 132.27 16.6002C134.99 17.0802 136.81 19.6702 136.33 22.3902C135.91 24.8102 133.8 26.5202 131.42 26.5202C131.13 26.5202 130.84 26.5002 130.54 26.4502Z" fill="black"/>
<path d="M123.18 24.831C120.5 24.161 118.88 21.451 119.54 18.771C120.21 16.091 122.92 14.461 125.6 15.131C128.28 15.791 129.91 18.511 129.25 21.191C128.68 23.461 126.64 24.981 124.4 24.981C124 24.981 123.59 24.931 123.18 24.831Z" fill="black"/>
<path d="M118.96 24.2301C116.21 23.8901 114.27 21.4001 114.6 18.6601C114.94 15.9201 117.43 13.9701 120.17 14.3001C122.91 14.6401 124.86 17.1301 124.53 19.8801C124.22 22.4101 122.06 24.2701 119.57 24.2701C119.37 24.2701 119.16 24.2701 118.96 24.2301Z" fill="black"/>
<path d="M118.43 24.2393C118.12 24.2193 117.73 24.2093 117.16 24.0993C116.6 23.9593 115.78 23.8493 114.58 22.9193C112.44 21.1793 112.11 18.0293 113.85 15.8893C115.19 14.2393 117.36 13.6693 119.27 14.2793C121.81 14.6093 123.73 16.8293 123.63 19.4393C123.52 22.1293 121.3 24.2393 118.64 24.2393H118.43Z" fill="black"/>
<path d="M114.38 17.95C112.1 16.39 111.52 13.28 113.09 11C114.65 8.73003 117.76 8.15003 120.04 9.71003C122.31 11.28 122.89 14.39 121.33 16.67C120.36 18.08 118.8 18.84 117.21 18.83C116.23 18.83 115.24 18.55 114.38 17.95Z" fill="black"/>
<path d="M117.51 11.3599C115.6 9.3699 115.68 6.1999 117.68 4.2999C119.68 2.3899 122.84 2.4699 124.74 4.4599C126.65 6.4599 126.57 9.6299 124.58 11.5399C123.61 12.4599 122.37 12.9199 121.13 12.9199C119.81 12.9199 118.49 12.3999 117.51 11.3599Z" fill="black"/>
<path d="M121.11 5.35009C120.91 2.59009 122.99 0.210094 125.74 0.0100941C128.5 -0.179906 130.89 1.90009 131.08 4.65009C131.27 7.41009 129.19 9.80009 126.44 9.99009C126.32 10.0001 126.21 10.0001 126.09 10.0001C123.49 10.0001 121.29 7.99009 121.11 5.35009Z" fill="black"/>
<path d="M127.32 10.8506C126.35 10.8506 125.37 10.5706 124.51 9.98055L123.27 9.14055C120.99 7.59055 120.4 4.47055 121.95 2.19055C123.5 -0.0894465 126.62 -0.679447 128.9 0.870553L130.14 1.71055C132.42 3.26055 133.01 6.38055 131.46 8.66055C130.49 10.0806 128.92 10.8406 127.32 10.8406V10.8506Z" fill="black"/>
<path d="M64.8601 100.73C62.1801 100.06 60.5501 97.3497 61.2101 94.6697C61.8801 91.9897 64.5901 90.3597 67.2701 91.0197C69.9501 91.6897 71.5901 94.3997 70.9201 97.0797C70.3601 99.3597 68.3101 100.88 66.0701 100.88C65.6701 100.88 65.2701 100.83 64.8601 100.73Z" fill="black"/>
<path d="M64.4198 102.659C61.7298 102.009 60.0898 99.2995 60.7398 96.6195L60.9698 95.6595C61.6198 92.9795 64.3298 91.3295 67.0098 91.9795C69.6998 92.6295 71.3398 95.3395 70.6898 98.0195L70.4598 98.9795C69.8998 101.269 67.8598 102.799 65.5998 102.799C65.2098 102.799 64.8198 102.759 64.4198 102.659Z" fill="black"/>
<path d="M60.3802 106.71C57.8402 105.63 56.6602 102.69 57.7402 100.15C58.8202 97.6097 61.7602 96.4297 64.3002 97.5097C66.8402 98.5897 68.0202 101.53 66.9402 104.07C66.1302 105.97 64.2802 107.11 62.3302 107.11C61.6802 107.11 61.0202 106.99 60.3802 106.71Z" fill="black"/>
<path d="M57.4901 108.76C55.2301 107.18 54.6701 104.06 56.2601 101.79C57.8401 99.5296 60.9601 98.9796 63.2201 100.57C65.4801 102.15 66.0401 105.27 64.4501 107.53C63.4801 108.92 61.9301 109.66 60.3501 109.66C59.3601 109.66 58.3601 109.37 57.4901 108.76Z" fill="black"/>
<path d="M52.6998 109.36C51.6598 106.81 52.8898 103.89 55.4398 102.85C57.9998 101.81 60.9198 103.04 61.9598 105.6C62.9998 108.16 61.7698 111.07 59.2098 112.11C58.5998 112.36 57.9598 112.48 57.3298 112.48C55.3598 112.48 53.4898 111.31 52.6998 109.36Z" fill="black"/>
<path d="M49.56 113.31C47.93 111.08 48.41 107.95 50.64 106.32C52.87 104.7 56 105.18 57.63 107.41C59.26 109.64 58.77 112.77 56.54 114.4C55.65 115.05 54.62 115.36 53.6 115.36C52.05 115.36 50.53 114.65 49.56 113.31Z" fill="black"/>
<path d="M46.34 115.681C44.59 113.541 44.91 110.401 47.04 108.651C49.18 106.901 52.33 107.221 54.08 109.361C55.83 111.501 55.51 114.651 53.37 116.391C52.44 117.151 51.32 117.521 50.21 117.521C48.76 117.521 47.32 116.891 46.34 115.681Z" fill="black"/>
<path d="M40.4202 116.379C39.4102 113.809 40.6702 110.899 43.2402 109.889C45.8102 108.879 48.7102 110.139 49.7202 112.709C50.7302 115.279 49.4702 118.189 46.9002 119.199C46.3002 119.439 45.6802 119.549 45.0702 119.549C43.0702 119.549 41.1902 118.349 40.4202 116.379Z" fill="black"/>
<path d="M38.05 116.031C37.48 113.331 39.21 110.671 41.91 110.101C44.61 109.531 47.27 111.261 47.84 113.961C48.41 116.661 46.68 119.311 43.98 119.881C43.63 119.961 43.28 119.991 42.94 119.991C40.62 119.991 38.55 118.381 38.05 116.031Z" fill="black"/>
<path d="M27.3101 115.609C27.3101 112.849 29.5501 110.609 32.3101 110.609C35.0701 110.609 37.3101 112.849 37.3101 115.609C37.3101 118.369 35.0701 120.609 32.3101 120.609C29.5501 120.609 27.3101 118.369 27.3101 115.609Z" fill="black"/>
<path d="M27.1 118.4C24.9 116.74 24.45 113.61 26.11 111.4C27.77 109.19 30.91 108.75 33.11 110.41C35.32 112.07 35.76 115.21 34.1 117.41C33.12 118.72 31.62 119.41 30.1 119.41C29.06 119.41 28 119.08 27.1 118.4Z" fill="black"/>
<path d="M27.46 118.781C24.7 118.651 22.57 116.311 22.7 113.551C22.83 110.801 25.17 108.661 27.93 108.791C30.69 108.921 32.82 111.261 32.69 114.021C32.56 116.701 30.35 118.791 27.7 118.791C27.62 118.791 27.54 118.791 27.46 118.781Z" fill="black"/>
<path d="M20.85 116.481C18.67 114.791 18.27 111.651 19.96 109.471C21.65 107.281 24.79 106.881 26.97 108.571C29.16 110.271 29.56 113.411 27.87 115.591C26.88 116.861 25.4 117.531 23.91 117.531C22.84 117.531 21.76 117.191 20.85 116.481Z" fill="black"/>
<path d="M13.4402 111.621C11.6202 109.551 11.8202 106.391 13.9002 104.561C15.9802 102.741 19.1402 102.951 20.9602 105.031C22.7802 107.101 22.5702 110.261 20.4902 112.081C19.5502 112.921 18.3702 113.331 17.2002 113.331C15.8102 113.331 14.4302 112.751 13.4402 111.621Z" fill="black"/>
<path d="M9.67013 106.929C8.11013 104.649 8.70013 101.539 10.9801 99.9895C13.2601 98.4295 16.3701 99.0195 17.9301 101.299C19.4901 103.579 18.9001 106.689 16.6201 108.249C15.7501 108.839 14.7701 109.119 13.8001 109.119C12.2101 109.119 10.6401 108.349 9.67013 106.929Z" fill="black"/>
<path d="M2.7801 94.1696C1.9501 91.5396 3.4201 88.7296 6.0601 87.9096C8.6901 87.0796 11.5001 88.5496 12.3201 91.1796C13.1501 93.8196 11.6801 96.6196 9.0501 97.4496C8.5501 97.5996 8.0501 97.6796 7.5501 97.6796C5.4201 97.6796 3.4501 96.3096 2.7801 94.1696Z" fill="black"/>
<path d="M1.89015 91.3397C1.07015 88.6997 2.53015 85.8997 5.17015 85.0697C7.80015 84.2397 10.6101 85.7097 11.4301 88.3397C12.2601 90.9797 10.7901 93.7797 8.16015 94.6097C7.66015 94.7697 7.16015 94.8397 6.66015 94.8397C4.54015 94.8397 2.56015 93.4697 1.89015 91.3397Z" fill="black"/>
<path d="M0.770012 85.7004C0.130012 83.0104 1.79001 80.3204 4.48001 79.6804C7.17001 79.0504 9.86001 80.7104 10.5 83.3904C11.14 86.0804 9.48001 88.7804 6.79001 89.4104C6.40001 89.5004 6.01001 89.5504 5.63001 89.5504C3.36001 89.5504 1.31001 88.0004 0.770012 85.7004Z" fill="black"/>
<path d="M0 76.2995C0 73.5395 2.22 71.2895 4.98 71.2695C7.74 71.2695 9.99 73.4895 10 76.2495C10.01 79.0095 7.79 81.2595 5.02 81.2695H5C2.25 81.2695 0.02 79.0495 0 76.2995Z" fill="black"/>
<path d="M3.07987 76.491C0.859874 74.841 0.409874 71.711 2.04987 69.491C3.69987 67.281 6.82987 66.821 9.04987 68.461C11.2599 70.111 11.7199 73.251 10.0799 75.461C9.09987 76.781 7.58987 77.481 6.05987 77.481C5.01987 77.481 3.97987 77.161 3.07987 76.491Z" fill="black"/>
<path d="M5.70015 68.591C3.54015 66.881 3.19015 63.731 4.91015 61.571C6.63015 59.411 9.77015 59.051 11.9301 60.771C14.0901 62.491 14.4501 65.641 12.7301 67.801C11.7401 69.041 10.2901 69.691 8.81015 69.691C7.72015 69.691 6.62015 69.331 5.70015 68.591Z" fill="black"/>
<path d="M7.74004 62.6003C5.93004 60.5103 6.15004 57.3503 8.23004 55.5403C10.31 53.7303 13.47 53.9503 15.29 56.0303C17.1 58.1103 16.88 61.2703 14.8 63.0803C13.85 63.9103 12.68 64.3103 11.52 64.3103C10.12 64.3103 8.73004 63.7303 7.74004 62.6003Z" fill="black"/>
<path d="M10.9598 60.6193C8.72981 58.9893 8.24981 55.8593 9.87981 53.6293C11.5198 51.4093 14.6398 50.9193 16.8698 52.5493C19.0998 54.1893 19.5798 57.3093 17.9498 59.5393C16.9698 60.8793 15.4498 61.5893 13.9098 61.5893C12.8898 61.5893 11.8498 61.2693 10.9598 60.6193Z" fill="black"/>
<path d="M12.6501 58.2201C10.6501 56.3301 10.5601 53.1601 12.4501 51.1601C14.3501 49.1501 17.5201 49.0601 19.5201 50.9601C21.5301 52.8601 21.6201 56.0201 19.7201 58.0301C18.7401 59.0701 17.4101 59.5901 16.0901 59.5901C14.8501 59.5901 13.6201 59.1401 12.6501 58.2201Z" fill="black"/>
<path d="M16.03 53.8093C14.65 51.4293 15.47 48.3593 17.86 46.9793C20.25 45.5993 23.31 46.4093 24.69 48.7993C26.07 51.1893 25.25 54.2493 22.86 55.6393C22.08 56.0893 21.21 56.3093 20.36 56.3093C18.64 56.3093 16.96 55.4193 16.03 53.8093Z" fill="black"/>
<path d="M18.56 52.3495C17.17 49.9695 17.98 46.9095 20.37 45.5195C22.75 44.1295 25.82 44.9395 27.21 47.3295C28.59 49.7095 27.78 52.7695 25.4 54.1595C24.61 54.6195 23.74 54.8395 22.89 54.8395C21.17 54.8395 19.49 53.9495 18.56 52.3495Z" fill="black"/>
<path d="M24.94 48.6897C24.09 46.0697 25.53 43.2397 28.15 42.3897C30.78 41.5397 33.6001 42.9697 34.4501 45.5997C35.3101 48.2297 33.87 51.0497 31.24 51.8997C30.73 52.0697 30.2101 52.1497 29.7001 52.1497C27.5901 52.1497 25.63 50.7997 24.94 48.6897Z" fill="black"/>
<path d="M28 47.6994C27.14 45.0694 28.58 42.2494 31.2 41.3994C33.83 40.5394 36.65 41.9794 37.5 44.5994C38.36 47.2294 36.93 50.0494 34.3 50.9094C33.79 51.0694 33.26 51.1494 32.75 51.1494C30.65 51.1494 28.68 49.8094 28 47.6994Z" fill="black"/>
<path d="M35.0102 46.9303C33.0902 44.9403 33.1502 41.7803 35.1302 39.8603C37.1202 37.9403 40.2902 38.0003 42.2002 39.9803C44.1202 41.9703 44.0602 45.1303 42.0802 47.0503C41.1102 47.9903 39.8602 48.4603 38.6102 48.4603C37.3002 48.4603 35.9902 47.9503 35.0102 46.9303Z" fill="black"/>
<path d="M42.3301 46.8498C39.5701 46.7198 37.45 44.3698 37.59 41.6098C37.73 38.8498 40.0701 36.7298 42.8301 36.8698C45.5901 37.0098 47.7201 39.3498 47.5801 42.1098C47.4401 44.7898 45.23 46.8598 42.59 46.8598C42.5 46.8598 42.4201 46.8598 42.3301 46.8598V46.8498Z" fill="black"/>
<path d="M41.5701 46.3295C39.7701 44.2295 39.9901 41.0795 42.0801 39.2695C44.1701 37.4595 47.3301 37.6895 49.1301 39.7795C50.9401 41.8695 50.7101 45.0295 48.6301 46.8295C47.6801 47.6495 46.5101 48.0495 45.3501 48.0495C43.9501 48.0495 42.5601 47.4695 41.5701 46.3295Z" fill="black"/>
<path d="M44.1702 49.3007C42.3602 47.2207 42.5702 44.0607 44.6602 42.2507C46.7402 40.4407 49.9002 40.6508 51.7102 42.7408C53.5202 44.8208 53.3102 47.9808 51.2302 49.7908C50.2802 50.6208 49.1102 51.0208 47.9402 51.0208C46.5502 51.0208 45.1602 50.4407 44.1702 49.3007Z" fill="black"/>
<path d="M47.0102 52.2995C44.7702 50.6895 44.2602 47.5595 45.8702 45.3195C47.4902 43.0795 50.6102 42.5695 52.8502 44.1895C55.0902 45.7995 55.6002 48.9195 53.9902 51.1695C53.0102 52.5195 51.4802 53.2395 49.9302 53.2395C48.9102 53.2395 47.8902 52.9395 47.0102 52.2995Z" fill="black"/>
<path d="M46.82 52.1192C45.94 49.4992 47.35 46.6692 49.97 45.7892C52.59 44.9092 55.42 46.3192 56.3 48.9392C57.18 51.5492 55.77 54.3892 53.16 55.2692C52.63 55.4492 52.09 55.5292 51.56 55.5292C49.47 55.5292 47.53 54.2092 46.82 52.1192Z" fill="black"/>
<path d="M48.6999 55.9508C48.1599 53.2408 49.9199 50.6108 52.6299 50.0708C55.3399 49.5408 57.9699 51.3007 58.5099 54.0107C59.0399 56.7207 57.2799 59.3508 54.5699 59.8808C54.2399 59.9508 53.9199 59.9808 53.5899 59.9808C51.2599 59.9808 49.1699 58.3308 48.6999 55.9508Z" fill="black"/>
<path d="M47.89 59.4809C46.84 56.9209 48.06 54.0009 50.61 52.9509C53.17 51.9009 56.09 53.1209 57.14 55.6809C58.19 58.2309 56.97 61.1509 54.41 62.2009C53.79 62.4609 53.14 62.5809 52.51 62.5809C50.54 62.5809 48.68 61.4109 47.89 59.4809Z" fill="black"/>
<path d="M48.9499 61.7597C46.2499 61.1997 44.5199 58.5497 45.0799 55.8397C45.6499 53.1397 48.2999 51.4097 50.9999 51.9797C53.6999 52.5397 55.4399 55.1897 54.8699 57.8897C54.3799 60.2497 52.2999 61.8697 49.9799 61.8697C49.6399 61.8697 49.2999 61.8397 48.9499 61.7597Z" fill="black"/>
<path d="M40.1698 57.5601C38.2598 55.5701 38.3198 52.4101 40.3098 50.4901C42.2898 48.5801 45.4598 48.6301 47.3798 50.6201C49.2898 52.6101 49.2298 55.7701 47.2398 57.6901C46.2698 58.6301 45.0198 59.0901 43.7798 59.0901C42.4598 59.0901 41.1598 58.5801 40.1698 57.5601Z" fill="black"/>
<path d="M37.67 56.6505C35.24 55.3505 34.32 52.3205 35.63 49.8805C36.93 47.4505 39.96 46.5405 42.39 47.8405C44.83 49.1405 45.74 52.1705 44.44 54.6105C43.54 56.2905 41.81 57.2505 40.03 57.2505C39.23 57.2505 38.42 57.0605 37.67 56.6505Z" fill="black"/>
<path d="M35.1901 55.2409C32.4301 55.0609 30.3401 52.6709 30.5301 49.9209C30.7101 47.1609 33.0901 45.0809 35.8501 45.2609C38.6001 45.4409 40.6901 47.8209 40.5101 50.5809C40.3301 53.2209 38.1301 55.2509 35.5201 55.2509C35.4101 55.2509 35.3001 55.2509 35.1901 55.2409Z" fill="black"/>
<path d="M23.4799 53.1509C22.5499 50.5509 23.8999 47.6909 26.4999 46.7509C29.0999 45.8209 31.9599 47.1709 32.8999 49.7709C33.8299 52.3709 32.4799 55.2309 29.8799 56.1709C29.3199 56.3709 28.7499 56.4609 28.1899 56.4609C26.1399 56.4609 24.2199 55.1909 23.4799 53.1509Z" fill="black"/>
<path d="M20.4499 56.2396C18.7099 54.0896 19.0499 50.9396 21.2099 49.2096C23.3599 47.4796 26.5099 47.8196 28.2399 49.9696C29.9699 52.1296 29.6299 55.2696 27.4799 56.9996C26.5499 57.7496 25.4399 58.1096 24.3399 58.1096C22.8799 58.1096 21.4299 57.4696 20.4499 56.2396Z" fill="black"/>
<path d="M17.5499 58.5591C15.8199 56.3991 16.1699 53.2591 18.3199 51.5291C20.4699 49.7991 23.6199 50.1391 25.3499 52.2991C27.0799 54.4491 26.7299 57.5991 24.5799 59.3291C23.6599 60.0691 22.5499 60.4291 21.4499 60.4291C19.9899 60.4291 18.5399 59.7891 17.5499 58.5591Z" fill="black"/>
<path d="M16.2698 62.7303C13.7998 61.4903 12.7998 58.4903 14.0398 56.0203C15.2798 53.5503 18.2798 52.5503 20.7498 53.7903C23.2198 55.0303 24.2198 58.0303 22.9798 60.5003C22.0998 62.2503 20.3398 63.2602 18.5098 63.2602C17.7598 63.2602 16.9898 63.0903 16.2698 62.7303Z" fill="black"/>
<path d="M13.2298 64.2798C11.4098 62.2098 11.6198 59.0498 13.6898 57.2298C15.7698 55.4098 18.9298 55.6198 20.7498 57.6898C22.5698 59.7698 22.3598 62.9298 20.2798 64.7498C19.3298 65.5798 18.1598 65.9898 16.9898 65.9898C15.5998 65.9898 14.2198 65.4098 13.2298 64.2798Z" fill="black"/>
<path d="M14.1798 69.5402C11.4498 69.1002 9.59981 66.5302 10.0398 63.8102C10.4898 61.0802 13.0498 59.2302 15.7798 59.6702C18.5098 60.1102 20.3598 62.6802 19.9098 65.4102C19.5198 67.8602 17.3898 69.6102 14.9898 69.6102C14.7198 69.6102 14.4498 69.5902 14.1798 69.5402Z" fill="black"/>
<path d="M12.9901 73.6704C10.3201 72.9504 8.74013 70.2104 9.46013 67.5404C10.1801 64.8704 12.9301 63.3004 15.6001 64.0204C18.2601 64.7404 19.8401 67.4804 19.1201 70.1504C18.5101 72.3804 16.5001 73.8504 14.2901 73.8504C13.8601 73.8504 13.4201 73.7904 12.9901 73.6704Z" fill="black"/>
<path d="M9.96976 77.5693C9.11976 74.9493 10.5598 72.1293 13.1898 71.2793C15.8198 70.4293 18.6398 71.8693 19.4798 74.4993C20.3298 77.1293 18.8898 79.9493 16.2598 80.7893C15.7498 80.9593 15.2298 81.0393 14.7198 81.0393C12.6098 81.0393 10.6498 79.6893 9.96976 77.5693Z" fill="black"/>
<path d="M11.02 80.8409C10.17 78.2109 11.62 75.4009 14.25 74.5509C16.88 73.7109 19.7 75.1609 20.54 77.7909C21.38 80.4209 19.94 83.2309 17.31 84.0809C16.8 84.2409 16.28 84.3209 15.78 84.3209C13.66 84.3209 11.7 82.9609 11.02 80.8409Z" fill="black"/>
<path d="M17.0102 95.45C15.6202 93.06 16.4302 90 18.8202 88.61C21.2002 87.22 24.2602 88.02 25.6502 90.41C27.0402 92.8 26.2402 95.86 23.8502 97.25C23.0602 97.71 22.1902 97.93 21.3402 97.93C19.6202 97.93 17.9402 97.04 17.0102 95.45Z" fill="black"/>
<path d="M19.7601 98.8892C17.9601 96.7992 18.1901 93.6392 20.2801 91.8392C22.3701 90.0392 25.5301 90.2692 27.3301 92.3592C29.1401 94.4492 28.9001 97.5992 26.8101 99.4092C25.8701 100.219 24.7001 100.629 23.5501 100.629C22.1401 100.629 20.7501 100.039 19.7601 98.8892Z" fill="black"/>
<path d="M24.1298 102.54C22.2998 100.47 22.4898 97.3105 24.5598 95.4805C26.6198 93.6405 29.7798 93.8405 31.6098 95.9005C33.4498 97.9705 33.2598 101.13 31.1898 102.96C30.2398 103.81 29.0498 104.22 27.8798 104.22C26.4898 104.22 25.1198 103.65 24.1298 102.54Z" fill="black"/>
<path d="M31.5998 105.869C29.2698 104.379 28.5898 101.289 30.0798 98.9595C31.5698 96.6295 34.6598 95.9495 36.9898 97.4495C39.3098 98.9295 39.9898 102.019 38.4998 104.349C37.5498 105.839 35.9398 106.659 34.2898 106.659C33.3698 106.659 32.4298 106.399 31.5998 105.869Z" fill="black"/>
<path d="M34.7098 103.631C34.2198 100.921 36.0198 98.3106 38.7398 97.8206C41.4498 97.3306 44.0598 99.1306 44.5498 101.851C45.0398 104.571 43.2398 107.171 40.5198 107.661C40.2198 107.721 39.9198 107.741 39.6198 107.741C37.2498 107.741 35.1498 106.051 34.7098 103.631Z" fill="black"/>
<path d="M39.48 103.43C38.83 100.74 40.48 98.0402 43.16 97.3902C45.85 96.7402 48.55 98.3802 49.2 101.07C49.85 103.75 48.21 106.45 45.52 107.1C45.13 107.2 44.73 107.25 44.34 107.25C42.09 107.25 40.04 105.71 39.48 103.43Z" fill="black"/>
<path d="M51.65 100.12C50.05 97.8704 50.58 94.7504 52.83 93.1504C55.08 91.5504 58.21 92.0804 59.8 94.3404C61.4 96.5904 60.87 99.7104 58.62 101.31C57.74 101.93 56.73 102.23 55.73 102.23C54.16 102.23 52.62 101.5 51.65 100.12Z" fill="black"/>
<path d="M55.3799 97.9008C53.4499 95.9308 53.4899 92.7608 55.4599 90.8308C57.4399 88.9008 60.5999 88.9308 62.5299 90.9108C64.4599 92.8808 64.4299 96.0508 62.4599 97.9808C61.4799 98.9308 60.2199 99.4108 58.9599 99.4108C57.6599 99.4108 56.3699 98.9008 55.3799 97.9008Z" fill="black"/>
<path d="M58.46 95.7302C56 94.4802 55.01 91.4802 56.26 89.0102C57.5 86.5402 60.51 85.5602 62.98 86.8002C65.44 88.0502 66.43 91.0602 65.18 93.5202C64.3 95.2602 62.54 96.2702 60.72 96.2702C59.96 96.2702 59.19 96.0902 58.46 95.7302Z" fill="black"/>
<path d="M59.88 93.2797C57.65 91.6597 57.15 88.5397 58.78 86.2997C60.4 84.0697 63.53 83.5697 65.76 85.1897C67.99 86.8197 68.49 89.9397 66.87 92.1797C65.89 93.5197 64.37 94.2397 62.82 94.2397C61.8 94.2397 60.77 93.9297 59.88 93.2797Z" fill="black"/>
<path d="M62.2499 90.0306C60.0199 88.4106 59.5199 85.2806 61.1399 83.0506C62.7599 80.8106 65.8899 80.3206 68.1199 81.9406C70.3599 83.5606 70.8499 86.6906 69.2299 88.9206C68.2599 90.2706 66.7299 90.9906 65.1799 90.9906C64.1699 90.9906 63.1399 90.6806 62.2499 90.0306Z" fill="black"/>
<path d="M65.7599 89.7909C63.0499 89.2409 61.3099 86.6009 61.8699 83.8909C62.4199 81.1909 65.0699 79.4409 67.7699 80.0009C70.4799 80.5609 72.2199 83.2009 71.6599 85.9109C71.1799 88.2709 69.0999 89.9009 66.7699 89.9009C66.4399 89.9009 66.0999 89.8709 65.7599 89.7909Z" fill="black"/>
<path d="M63.6098 88.1504C63.2098 85.4204 65.1098 82.8804 67.8398 82.4904C70.5798 82.1004 73.1098 83.9904 73.4998 86.7304C73.8998 89.4604 71.9998 91.9904 69.2698 92.3904C69.0298 92.4204 68.7898 92.4404 68.5498 92.4404C66.0998 92.4404 63.9598 90.6404 63.6098 88.1504Z" fill="black"/>
<path d="M88.3002 94.4898C85.6502 93.7098 84.1402 90.9398 84.9202 88.2898C85.6902 85.6398 88.4702 84.1198 91.1202 84.8998C93.7702 85.6798 95.2902 88.4498 94.5102 91.0998C93.8702 93.2798 91.8802 94.6998 89.7102 94.6998C89.2502 94.6998 88.7702 94.6298 88.3002 94.4898Z" fill="black"/>
<path d="M87.3902 97.8294C84.7102 97.1994 83.0302 94.5194 83.6502 91.8294C84.2802 89.1394 86.9702 87.4594 89.6502 88.0894C92.3502 88.7094 94.0202 91.3994 93.3902 94.0894C92.8602 96.3994 90.8002 97.9594 88.5302 97.9594C88.1602 97.9594 87.7702 97.9194 87.3902 97.8294Z" fill="black"/>
<path d="M84.3101 100.34C82.0501 98.7496 81.5101 95.6296 83.0901 93.3696C84.6801 91.1096 87.8001 90.5596 90.0601 92.1496C92.3201 93.7396 92.8701 96.8596 91.2801 99.1196C90.3101 100.5 88.7601 101.24 87.1801 101.24C86.1901 101.24 85.1901 100.95 84.3101 100.34Z" fill="black"/>
<path d="M83.9401 104.46C81.3501 103.5 80.0401 100.62 81.0001 98.03C81.9601 95.44 84.8401 94.13 87.4301 95.09C90.0201 96.06 91.3401 98.94 90.3701 101.52C89.6201 103.54 87.7101 104.78 85.6901 104.78C85.1101 104.78 84.5201 104.68 83.9401 104.46Z" fill="black"/>
<path d="M83.1801 108.541C80.4801 107.991 78.7201 105.361 79.2701 102.651C79.8101 99.9406 82.4501 98.1906 85.1501 98.7306C87.8601 99.2706 89.6201 101.911 89.0701 104.621C88.5901 106.991 86.5101 108.631 84.1801 108.631C83.8501 108.631 83.5201 108.601 83.1801 108.541Z" fill="black"/>
<path d="M79.9401 112.101C77.5801 110.681 76.8101 107.611 78.2301 105.241C79.6501 102.871 82.7201 102.101 85.0901 103.521C87.4601 104.941 88.2301 108.011 86.8101 110.381C85.8701 111.941 84.2101 112.811 82.5101 112.811C81.6401 112.811 80.7501 112.581 79.9401 112.101Z" fill="black"/>
<path d="M78.8501 115.07C76.3701 113.84 75.3601 110.84 76.5901 108.37C77.8201 105.89 80.8201 104.88 83.2901 106.11C85.7701 107.34 86.7801 110.34 85.5501 112.81C84.6701 114.57 82.9101 115.59 81.0701 115.59C80.3201 115.59 79.5601 115.42 78.8501 115.07Z" fill="black"/>
<path d="M78.1502 119.319C75.4502 118.729 73.7402 116.059 74.3402 113.369C74.9302 110.669 77.6002 108.959 80.3002 109.559C83.0002 110.149 84.7002 112.819 84.1002 115.519C83.5902 117.849 81.5202 119.439 79.2302 119.439C78.8702 119.439 78.5102 119.399 78.1502 119.319Z" fill="black"/>
<path d="M72.68 126.96C70.37 125.45 69.72 122.35 71.23 120.04C72.75 117.73 75.84 117.08 78.16 118.59C80.47 120.1 81.11 123.2 79.6 125.51C78.64 126.98 77.04 127.78 75.41 127.78C74.47 127.78 73.52 127.51 72.68 126.96Z" fill="black"/>
<path d="M70.9701 129.68C68.7801 128 68.3701 124.86 70.0401 122.67C71.7201 120.47 74.8601 120.06 77.0501 121.74C79.2401 123.42 79.6601 126.56 77.9801 128.75C76.9901 130.03 75.5101 130.71 74.0101 130.71C72.9501 130.71 71.8801 130.37 70.9701 129.68Z" fill="black"/>
<path d="M68.9499 132.361C66.7499 130.691 66.3199 127.551 67.9999 125.361C69.6699 123.161 72.7999 122.731 74.9999 124.401C77.1999 126.071 77.6299 129.211 75.9599 131.411C74.9699 132.701 73.4799 133.381 71.9699 133.381C70.9199 133.381 69.8499 133.051 68.9499 132.361Z" fill="black"/>
<path d="M68.9699 135.76C66.4099 134.72 65.1899 131.8 66.2299 129.24C67.2699 126.68 70.1899 125.45 72.7399 126.5C75.2999 127.54 76.5299 130.46 75.4899 133.01C74.6999 134.95 72.8299 136.13 70.8599 136.13C70.2299 136.13 69.5899 136.01 68.9699 135.76Z" fill="black"/>
<path d="M66.9501 138.151C64.4901 136.901 63.5001 133.891 64.7601 131.431C66.0001 128.961 69.0101 127.981 71.4701 129.231C73.9401 130.481 74.9201 133.491 73.6701 135.951C72.7901 137.691 71.0301 138.691 69.2101 138.691C68.4501 138.691 67.6801 138.521 66.9501 138.151Z" fill="black"/>
<path d="M63.9101 143.171C61.5301 141.771 60.7301 138.711 62.1201 136.331C63.5101 133.941 66.5801 133.141 68.9601 134.541C71.3401 135.931 72.1501 138.991 70.7501 141.371C69.8201 142.971 68.1501 143.851 66.4301 143.851C65.5701 143.851 64.7101 143.631 63.9101 143.171Z" fill="black"/>
<path d="M64.4998 146.77C61.7698 146.36 59.8898 143.81 60.2998 141.08C60.7098 138.35 63.2598 136.47 65.9898 136.88C68.7198 137.29 70.5998 139.84 70.1898 142.57C69.8198 145.05 67.6798 146.83 65.2498 146.83C64.9998 146.83 64.7498 146.81 64.4998 146.77Z" fill="black"/>
<path d="M63.8598 151.199C61.1298 150.799 59.2398 148.25 59.6398 145.52C60.0498 142.79 62.5898 140.909 65.3198 141.309C68.0498 141.709 69.9398 144.249 69.5398 146.979C69.1698 149.469 67.0298 151.25 64.5998 151.25C64.3498 151.25 64.1098 151.239 63.8598 151.199Z" fill="black"/>
<path d="M62.5301 153.909C60.7101 151.839 60.9101 148.679 62.9901 146.859C65.0601 145.039 68.2201 145.239 70.0401 147.309C71.8601 149.389 71.6601 152.539 69.5901 154.369C68.6401 155.199 67.4601 155.609 66.2901 155.609C64.9001 155.609 63.5201 155.039 62.5301 153.909Z" fill="black"/>
<path d="M71.4002 160.62C68.8602 159.52 67.6802 156.58 68.7802 154.04C69.8702 151.51 72.8101 150.33 75.3401 151.42C77.8801 152.52 79.0502 155.46 77.9602 158C77.1502 159.89 75.3002 161.02 73.3602 161.02C72.7102 161.02 72.0402 160.89 71.4002 160.62Z" fill="black"/>
<path d="M74.5502 159.531C71.8802 158.811 70.2902 156.071 71.0002 153.411C71.7102 150.741 74.4502 149.151 77.1202 149.861C79.7902 150.571 81.3702 153.311 80.6602 155.981C80.0702 158.221 78.0402 159.701 75.8302 159.701C75.4102 159.701 74.9802 159.641 74.5502 159.531Z" fill="black"/>
<path d="M75.2099 157.021C72.5399 156.301 70.9599 153.561 71.6799 150.891C72.3899 148.231 75.1299 146.641 77.7999 147.361C80.4699 148.081 82.0499 150.821 81.3299 153.481C80.7299 155.721 78.7199 157.191 76.5099 157.191C76.0799 157.191 75.6399 157.131 75.2099 157.021Z" fill="black"/>
<path d="M76.7302 150.611C75.7002 148.051 76.9402 145.131 79.5002 144.111C82.0702 143.081 84.9802 144.321 86.0102 146.881C87.0402 149.441 85.7902 152.351 83.2302 153.391C82.6202 153.631 81.9902 153.751 81.3702 153.751C79.3902 153.751 77.5102 152.561 76.7302 150.611Z" fill="black"/>
<path d="M81.9101 148.72C80.6601 146.26 81.6501 143.25 84.1201 142C86.5801 140.75 89.5901 141.74 90.8301 144.2C92.0801 146.67 91.0901 149.67 88.6301 150.92C87.9101 151.29 87.1401 151.46 86.3801 151.46C84.5501 151.46 82.7901 150.46 81.9101 148.72Z" fill="black"/>
<path d="M86.2 145.451C86.07 142.691 88.2 140.341 90.95 140.211C93.71 140.081 96.05 142.201 96.19 144.961C96.32 147.721 94.2 150.061 91.44 150.201H91.19C88.54 150.201 86.33 148.121 86.2 145.451Z" fill="black"/>
<path d="M89.0502 146.451C87.9602 143.911 89.1402 140.971 91.6802 139.881C94.2102 138.791 97.1502 139.971 98.2402 142.511C99.3302 145.051 98.1502 147.991 95.6102 149.071C94.9702 149.351 94.3002 149.481 93.6502 149.481C91.7102 149.481 89.8602 148.341 89.0502 146.451Z" fill="black"/>
<path d="M92.3899 146.03C90.8999 143.71 91.5699 140.61 93.8899 139.12C96.2099 137.63 99.3099 138.29 100.8 140.62C102.3 142.94 101.63 146.03 99.3099 147.53C98.4699 148.07 97.5299 148.32 96.5999 148.32C94.9599 148.32 93.3499 147.51 92.3899 146.03Z" fill="black"/>
<path d="M96.9002 142.02C96.3002 139.33 98.0002 136.66 100.7 136.06C103.4 135.46 106.07 137.16 106.67 139.86C107.26 142.56 105.56 145.23 102.86 145.83C102.5 145.91 102.14 145.94 101.78 145.94C99.4902 145.94 97.4202 144.35 96.9002 142.02Z" fill="black"/>
<path d="M103.68 140.021C102.47 137.531 103.49 134.541 105.97 133.331C108.46 132.121 111.45 133.141 112.66 135.631C113.87 138.111 112.85 141.101 110.36 142.321C109.66 142.661 108.91 142.821 108.17 142.821C106.32 142.821 104.54 141.791 103.68 140.021Z" fill="black"/>
<path d="M106.84 137.879C105.87 135.299 107.19 132.419 109.77 131.449C112.36 130.489 115.24 131.799 116.21 134.389C117.18 136.969 115.86 139.849 113.27 140.819C112.7 141.039 112.11 141.139 111.53 141.139C109.5 141.139 107.59 139.899 106.84 137.879Z" fill="black"/>
<path d="M112.46 135.01C112.05 132.29 113.93 129.74 116.66 129.33C119.39 128.91 121.94 130.79 122.35 133.52C122.76 136.25 120.88 138.8 118.15 139.21C117.9 139.25 117.65 139.27 117.4 139.27C114.96 139.27 112.83 137.49 112.46 135.01Z" fill="black"/>
<path d="M123.14 132.131C122.88 129.381 124.9 126.931 127.65 126.671C130.4 126.411 132.84 128.431 133.1 131.181C133.36 133.931 131.35 136.371 128.6 136.631C128.44 136.631 128.28 136.651 128.12 136.651C125.57 136.651 123.39 134.711 123.14 132.131Z" fill="black"/>
<path d="M131.88 136.64C129.13 136.37 127.12 133.93 127.38 131.18C127.64 128.43 130.09 126.42 132.84 126.69C135.58 126.95 137.6 129.39 137.33 132.14C137.08 134.72 134.91 136.66 132.36 136.66C132.2 136.66 132.04 136.66 131.88 136.64Z" fill="black"/>
<path d="M130.33 131.1C130.31 128.34 132.54 126.09 135.3 126.07C138.06 126.05 140.31 128.28 140.33 131.04C140.35 133.8 138.12 136.05 135.36 136.07H135.33C132.58 136.07 130.35 133.85 130.33 131.1Z" fill="black"/>
<path d="M134.53 134.381C132.32 132.721 131.87 129.591 133.53 127.381C135.18 125.171 138.32 124.721 140.53 126.371C142.74 128.031 143.19 131.161 141.53 133.371C140.55 134.681 139.05 135.381 137.52 135.381C136.48 135.381 135.43 135.051 134.53 134.381Z" fill="black"/>
<path d="M131.92 128.46C129.99 126.48 130.03 123.32 132 121.39C133.98 119.46 137.15 119.5 139.07 121.48C141 123.45 140.97 126.62 138.99 128.55C138.02 129.5 136.76 129.97 135.5 129.97C134.2 129.97 132.9 129.46 131.92 128.46Z" fill="black"/>
<path d="M130.88 127.229C130.66 126.929 130.54 126.759 130.53 126.759C128.71 124.679 128.93 121.519 131.01 119.709C133.09 117.889 136.25 118.099 138.06 120.179C138.47 120.649 138.71 120.999 138.89 121.229C140.54 123.449 140.09 126.579 137.88 128.229C136.98 128.909 135.93 129.229 134.89 129.229C133.37 129.229 131.86 128.539 130.88 127.229Z" fill="black"/>
<path d="M126.85 122.87C124.88 120.94 124.85 117.77 126.78 115.8C128.71 113.83 131.88 113.79 133.85 115.73C135.82 117.66 135.85 120.83 133.92 122.8C132.94 123.8 131.65 124.3 130.35 124.3C129.09 124.3 127.82 123.82 126.85 122.87Z" fill="black"/>
<path d="M121.18 120.7C119.55 118.47 120.04 115.34 122.27 113.71C124.5 112.09 127.63 112.57 129.26 114.8C130.88 117.03 130.39 120.16 128.17 121.79C127.28 122.44 126.24 122.75 125.22 122.75C123.68 122.75 122.16 122.04 121.18 120.7Z" fill="black"/>
<path d="M121.93 126.919C119.36 125.909 118.1 123.009 119.12 120.439C120.13 117.869 123.04 116.609 125.6 117.629C128.17 118.639 129.43 121.549 128.42 124.109C127.64 126.079 125.76 127.279 123.77 127.279C123.16 127.279 122.53 127.159 121.93 126.919Z" fill="black"/>
<path d="M118.99 129.86C116.83 128.14 116.49 124.99 118.22 122.84C119.95 120.68 123.09 120.34 125.24 122.07C127.4 123.79 127.75 126.94 126.02 129.09C125.03 130.33 123.58 130.96 122.12 130.96C121.02 130.96 119.91 130.6 118.99 129.86Z" fill="black"/>
<path d="M115 131C113.41 128.74 113.95 125.63 116.21 124.03C118.46 122.44 121.58 122.98 123.17 125.24C124.76 127.5 124.22 130.62 121.97 132.21C121.09 132.82 120.09 133.12 119.09 133.12C117.52 133.12 115.97 132.38 115 131Z" fill="black"/>
<path d="M107.13 133.489C106.17 130.909 107.5 128.029 110.08 127.069C112.67 126.109 115.55 127.429 116.51 130.019C117.47 132.609 116.15 135.479 113.56 136.449C112.99 136.659 112.4 136.759 111.83 136.759C109.79 136.759 107.88 135.509 107.13 133.489Z" fill="black"/>
<path d="M103.86 134.32C102 132.28 102.16 129.12 104.2 127.26C106.25 125.41 109.41 125.56 111.26 127.61C113.12 129.65 112.96 132.82 110.92 134.67C109.96 135.54 108.76 135.97 107.56 135.97C106.2 135.97 104.84 135.41 103.86 134.32Z" fill="black"/>
<path d="M100.21 130.319C98.3498 128.269 98.4998 125.109 100.54 123.249C102.59 121.399 105.75 121.539 107.61 123.589C109.46 125.629 109.32 128.799 107.27 130.649C106.31 131.519 105.11 131.949 103.91 131.949C102.55 131.949 101.19 131.399 100.21 130.319Z" fill="black"/>
<path d="M94.5301 124.369C92.7201 122.279 92.9401 119.129 95.0301 117.309C97.1101 115.499 100.27 115.729 102.08 117.809C103.89 119.899 103.67 123.059 101.59 124.869C100.64 125.689 99.4701 126.089 98.3101 126.089C96.9101 126.089 95.5201 125.509 94.5301 124.369Z" fill="black"/>
<path d="M89.0599 113.591C89.0099 110.831 91.1999 108.551 93.9699 108.501C96.7299 108.451 99.0099 110.651 99.0599 113.411C99.1099 116.171 96.9099 118.451 94.1499 118.501H94.0499C91.3299 118.501 89.0999 116.311 89.0599 113.591Z" fill="black"/>
<path d="M93.8998 111.091C91.2798 110.231 89.8598 107.401 90.7198 104.781C91.5798 102.161 94.4098 100.731 97.0298 101.601C99.6598 102.461 101.08 105.291 100.22 107.911C99.5198 110.011 97.5698 111.351 95.4698 111.351C94.9498 111.351 94.4198 111.261 93.8998 111.091Z" fill="black"/>
<path d="M95.88 103.6C94.27 101.36 94.78 98.2301 97.02 96.6201C99.26 95.0101 102.38 95.5101 104 97.7601C105.61 100 105.1 103.12 102.86 104.73C101.98 105.37 100.96 105.68 99.94 105.68C98.39 105.68 96.86 104.96 95.88 103.6Z" fill="black"/>
<path d="M99.6698 100.741C99.0098 98.0608 100.66 95.3508 103.34 94.7008C106.02 94.0508 108.73 95.6908 109.38 98.3708C110.04 101.051 108.39 103.761 105.71 104.421C105.31 104.511 104.91 104.561 104.52 104.561C102.27 104.561 100.23 103.031 99.6698 100.741Z" fill="black"/>
<path d="M104.01 103.029C101.64 101.619 100.87 98.5494 102.28 96.1694C103.69 93.7994 106.76 93.0294 109.13 94.4394C111.51 95.8494 112.28 98.9194 110.87 101.289C109.94 102.859 108.27 103.739 106.57 103.739C105.7 103.739 104.82 103.509 104.01 103.029Z" fill="black"/>
<path d="M101.83 96.8794C99.9901 94.8094 100.17 91.6494 102.23 89.8194C104.3 87.9794 107.46 88.1594 109.29 90.2194C111.13 92.2794 110.95 95.4494 108.89 97.2794C107.93 98.1294 106.74 98.5494 105.56 98.5494C104.18 98.5494 102.81 97.9794 101.83 96.8794Z" fill="black"/>
<path d="M97.7099 92.2593C95.8799 90.1993 96.0599 87.0293 98.1199 85.1993C100.18 83.3593 103.35 83.5393 105.18 85.6093C107.02 87.6693 106.84 90.8293 104.77 92.6693C103.82 93.5193 102.63 93.9293 101.45 93.9293C100.07 93.9293 98.6999 93.3693 97.7099 92.2593Z" fill="black"/>
<path d="M94.6001 89.0308C92.6701 87.0508 92.7001 83.8908 94.6701 81.9608C96.6401 80.0208 99.8101 80.0608 101.74 82.0308C103.67 84.0008 103.64 87.1708 101.67 89.1008C100.7 90.0508 99.4301 90.5308 98.1701 90.5308C96.8701 90.5308 95.5801 90.0308 94.6001 89.0308Z" fill="black"/>
<path d="M86.9902 82.9808C86.7402 80.2308 88.7602 77.7908 91.5102 77.5308C94.2602 77.2808 96.6902 79.2908 96.9502 82.0408C97.2102 84.7908 95.1902 87.2308 92.4402 87.4908C92.2802 87.5008 92.1202 87.5108 91.9602 87.5108C89.4102 87.5108 87.2402 85.5708 86.9902 82.9808Z" fill="black"/>
<path d="M89.3002 91.0192C86.6502 90.2292 85.1502 87.4492 85.9402 84.7992C86.7302 82.1492 89.5102 80.6492 92.1602 81.4392C94.8102 82.2292 96.3101 85.0092 95.5201 87.6592C94.8801 89.8292 92.8902 91.2292 90.7402 91.2292C90.2602 91.2292 89.7802 91.1592 89.3002 91.0192Z" fill="black"/>
<path d="M89.7202 94.7002C89.2602 94.7002 88.7902 94.6402 88.3202 94.5002C85.6702 93.7302 84.1402 90.9602 84.9102 88.3002L85.9202 84.8302C86.6902 82.1802 89.4602 80.6502 92.1202 81.4302C94.7702 82.2002 96.3002 84.9702 95.5302 87.6302L94.5202 91.1002C93.8802 93.2802 91.8902 94.7002 89.7202 94.7002Z" fill="black"/>
<path d="M88.2701 122.64C87.1901 120.1 88.3701 117.16 90.9001 116.07C93.4401 114.99 96.3801 116.17 97.4701 118.71C98.5501 121.24 97.3801 124.19 94.8401 125.27C94.2001 125.54 93.5301 125.67 92.8701 125.67C90.9301 125.67 89.0801 124.54 88.2701 122.64Z" fill="black"/>
<path d="M97.7801 133.171C95.8901 131.161 95.9801 128.001 97.9901 126.101C100 124.211 103.16 124.311 105.06 126.321C106.95 128.321 106.86 131.491 104.85 133.381C103.88 134.291 102.65 134.741 101.42 134.741C100.09 134.741 98.7601 134.221 97.7801 133.171Z" fill="black"/>
<path d="M100.89 139.85C98.3099 138.88 96.9999 135.99 97.9699 133.41C98.9499 130.83 101.84 129.52 104.42 130.49C107 131.47 108.31 134.35 107.33 136.93C106.58 138.94 104.67 140.17 102.65 140.17C102.07 140.17 101.47 140.07 100.89 139.85Z" fill="black"/>
<path d="M95.3401 137.54C94.9301 134.8 96.8201 132.26 99.5501 131.85C102.28 131.45 104.82 133.34 105.23 136.07C105.63 138.8 103.75 141.34 101.02 141.75C100.77 141.78 100.52 141.8 100.28 141.8C97.8401 141.8 95.7101 140.02 95.3401 137.54Z" fill="black"/>
<path d="M92.4199 140.519C91.0599 138.109 91.9099 135.059 94.3099 133.699C96.7099 132.339 99.7599 133.189 101.13 135.589C102.49 137.989 101.64 141.039 99.2399 142.409C98.4599 142.849 97.6099 143.059 96.7799 143.059C95.0399 143.059 93.3399 142.139 92.4199 140.519Z" fill="black"/>
<path d="M88.75 141.7C87.64 139.17 88.77 136.22 91.3 135.1C93.82 133.98 96.78 135.1 97.89 137.64C99.02 140.16 97.88 143.12 95.35 144.24C94.69 144.53 94.01 144.67 93.33 144.67C91.41 144.67 89.58 143.56 88.75 141.7Z" fill="black"/>
<path d="M83.0199 141.651C82.7399 138.911 84.7299 136.451 87.4799 136.161C90.2299 135.881 92.6799 137.871 92.9699 140.621C93.2599 143.371 91.2599 145.821 88.5199 146.111C88.3399 146.131 88.1599 146.141 87.9899 146.141C85.4599 146.141 83.2899 144.221 83.0199 141.651Z" fill="black"/>
<path d="M80.7702 144.211C79.7602 141.641 81.0102 138.741 83.5802 137.721C86.1502 136.711 89.0602 137.961 90.0702 140.531C91.0902 143.101 89.8302 146.011 87.2602 147.021C86.6602 147.261 86.0402 147.371 85.4202 147.371C83.4302 147.371 81.5502 146.171 80.7702 144.211Z" fill="black"/>
<path d="M76.7401 147.581C75.1701 145.301 75.7501 142.181 78.0201 140.621C80.3001 139.061 83.4101 139.631 84.9801 141.911C86.5401 144.181 85.9701 147.301 83.6901 148.861C82.8301 149.461 81.8401 149.741 80.8601 149.741C79.2701 149.741 77.7101 148.981 76.7401 147.581Z" fill="black"/>
<path d="M75.8298 149.15C73.3798 147.88 72.4198 144.86 73.6998 142.4C74.9698 139.96 77.9898 139 80.4398 140.27C82.8898 141.55 83.8398 144.57 82.5698 147.02C81.6798 148.73 79.9398 149.71 78.1298 149.71C77.3498 149.71 76.5698 149.53 75.8298 149.15Z" fill="black"/>
<path d="M74.2701 146.21C72.1901 144.41 71.9601 141.25 73.7601 139.16C75.5701 137.07 78.7201 136.84 80.8101 138.65C82.9001 140.45 83.1301 143.61 81.3301 145.7C80.3401 146.84 78.9501 147.43 77.5401 147.43C76.3801 147.43 75.2201 147.03 74.2701 146.21Z" fill="black"/>
<path d="M78.82 140.871C76.37 139.601 75.43 136.581 76.71 134.131C77.99 131.681 81 130.731 83.45 132.011C85.9 133.291 86.85 136.311 85.57 138.761C84.68 140.471 82.94 141.441 81.14 141.441C80.36 141.441 79.56 141.261 78.82 140.871Z" fill="black"/>
<path d="M81.83 136.601C79.28 135.551 78.07 132.631 79.12 130.071C80.18 127.521 83.1 126.311 85.65 127.361C88.21 128.421 89.41 131.351 88.36 133.901C87.56 135.821 85.7 136.991 83.74 136.991C83.1 136.991 82.45 136.861 81.83 136.601Z" fill="black"/>
<path d="M83.7 133.481C80.97 133.071 79.09 130.531 79.5 127.801C79.91 125.071 82.45 123.181 85.18 123.591C87.91 124.001 89.8 126.541 89.39 129.271C89.02 131.761 86.88 133.541 84.45 133.541C84.2 133.541 83.95 133.521 83.7 133.481Z" fill="black"/>
<path d="M84.4701 129.341C81.9901 128.121 80.9701 125.121 82.1901 122.641C83.4201 120.171 86.4101 119.151 88.8901 120.371C91.3701 121.591 92.3801 124.591 91.1601 127.071C90.2901 128.831 88.5201 129.861 86.6701 129.861C85.9301 129.861 85.1801 129.691 84.4701 129.341Z" fill="black"/>
<path d="M86.2302 125.761C83.7502 124.541 82.7402 121.541 83.9602 119.061C85.1802 116.591 88.1802 115.571 90.6502 116.791C93.1302 118.011 94.1502 121.011 92.9302 123.491C92.0502 125.251 90.2802 126.281 88.4402 126.281C87.7002 126.281 86.9402 126.111 86.2302 125.761Z" fill="black"/>
<path d="M85.6199 120.25C84.9999 117.56 86.6799 114.87 89.3699 114.25C92.0599 113.62 94.7399 115.3 95.3699 117.99C95.9899 120.68 94.3099 123.37 91.6199 123.99C91.2399 124.08 90.8599 124.12 90.4899 124.12C88.2199 124.12 86.1599 122.56 85.6199 120.25Z" fill="black"/>
<path d="M92.8801 125.67C91.9501 125.67 91.0001 125.41 90.1601 124.86L87.7701 123.31C85.4601 121.8 84.8001 118.71 86.3001 116.39C87.8101 114.07 90.9001 113.42 93.2201 114.92L95.6101 116.47C97.9201 117.98 98.5801 121.07 97.0801 123.39C96.1201 124.86 94.5201 125.67 92.8801 125.67Z" fill="black"/>
</g>
</g>
<defs>
<clipPath id="clip0_2561_14270">
<rect width="180.16" height="161.17" fill="white"/>
</clipPath>
</defs>
</svg>
