<svg width="135" height="69" viewBox="0 0 135 69" fill="none" xmlns="http://www.w3.org/2000/svg">
<g clip-path="url(#clip0_2561_5842)">
<mask id="mask0_2561_5842" style="mask-type:luminance" maskUnits="userSpaceOnUse" x="0" y="0" width="135" height="69">
<path d="M134.77 0H0V68.53H134.77V0Z" fill="white"/>
</mask>
<g mask="url(#mask0_2561_5842)">
<path d="M56.6496 37.8601L53.6196 42.9601C58.6196 45.9401 60.2696 52.4301 57.2996 57.4301C55.8596 59.8501 53.5596 61.5701 50.8296 62.2701C48.6196 62.8301 46.3396 62.6701 44.2696 61.8301L43.9096 20.9801L62.6196 20.8201L62.5696 14.8901L43.8596 15.0501L43.7996 7.83008L37.8696 7.88008L37.9296 15.1001L32.5596 15.1501L32.6096 21.0801L37.9796 21.0301L38.3496 63.6901C38.3496 64.7201 38.9096 65.6801 39.7996 66.2101C42.4296 67.7701 45.3596 68.5601 48.3396 68.5301C49.6596 68.5201 50.9796 68.3501 52.2896 68.0201C56.5596 66.9301 60.1496 64.2501 62.3996 60.4701C67.0496 52.6501 64.4696 42.5201 56.6596 37.8701L56.6496 37.8601Z" fill="#90BEFB"/>
</g>
<path d="M114.59 42.8395L114.54 36.3395L108.61 36.3895L108.87 66.3995L114.8 66.3495L114.65 49.3295L134.77 40.1595L132.31 34.7695L114.59 42.8395Z" fill="#90BEFB"/>
<mask id="mask1_2561_5842" style="mask-type:luminance" maskUnits="userSpaceOnUse" x="0" y="0" width="135" height="69">
<path d="M134.77 0H0V68.53H134.77V0Z" fill="white"/>
</mask>
<g mask="url(#mask1_2561_5842)">
<path d="M130.3 18.7704L121.55 9.94035C121.55 9.94035 121.53 9.92035 121.52 9.91035C121.08 9.47035 120.83 8.89035 120.83 8.27035C120.83 7.65035 121.06 7.06035 121.5 6.62035C121.93 6.18035 122.52 5.93035 123.14 5.93035C123.73 5.93035 124.29 6.14035 124.72 6.54035C124.83 6.70035 125.24 7.31035 125.89 8.80035L131.32 6.42035C130.43 4.40035 129.63 3.03035 128.92 2.35035C127.35 0.810353 125.28 -0.0196468 123.09 0.000353169C120.89 0.0203532 118.82 0.900353 117.28 2.47035C115.73 4.04035 114.89 6.12035 114.91 8.33035C114.93 10.5304 115.8 12.5804 117.36 14.1304L126.11 22.9604C126.11 22.9604 126.13 22.9804 126.14 22.9904C126.58 23.4304 126.83 24.0104 126.84 24.6304C126.84 25.2504 126.61 25.8404 126.17 26.2804C125.74 26.7204 125.15 26.9704 124.53 26.9704C123.91 26.9704 123.32 26.7404 122.88 26.3004C122.75 26.1704 122.8 26.1904 122.72 26.1404C122.53 25.9104 121.92 25.1504 121.03 23.4004L115.75 26.1004C117.17 28.8804 118.23 30.1004 118.8 30.6104C120.36 32.1104 122.41 32.9204 124.58 32.9004C126.78 32.8804 128.85 32.0004 130.39 30.4304C131.94 28.8604 132.77 26.7804 132.76 24.5704C132.74 22.3704 131.87 20.3104 130.31 18.7704H130.3Z" fill="#90BEFB"/>
<path d="M87.7296 14.7205C88.9696 10.3205 93.0096 7.06049 97.7996 7.02049C102.6 6.98049 106.68 10.1505 108 14.5305L87.7196 14.7205H87.7296ZM97.7596 1.09049C88.6696 1.17049 81.3396 8.63049 81.4196 17.7205L84.4696 17.7005L81.4196 17.7705C81.4896 20.7605 82.4396 23.7205 84.1696 26.3405C86.5996 30.0205 90.3096 32.5305 94.6196 33.4105C95.7796 33.6505 96.9496 33.7605 98.1096 33.7505C101.25 33.7205 104.32 32.7905 107.01 31.0205L103.75 26.0705C101.4 27.6205 98.5796 28.1705 95.8096 27.6005C93.0496 27.0305 90.6696 25.4205 89.1196 23.0705C88.6096 22.2905 88.2096 21.4805 87.9196 20.6405L111.46 20.4205C113.1 20.4105 114.41 19.0705 114.4 17.4305C114.32 8.34049 106.86 1.01049 97.7696 1.09049H97.7596Z" fill="#90BEFB"/>
<path d="M84.7097 36.0608C80.6997 36.0908 77.0297 37.5708 74.1797 39.9908L73.8997 7.55078L67.9697 7.60078L68.4897 67.6208L74.4197 67.5708L74.2897 52.6408C74.2397 46.8208 78.9297 42.0408 84.7597 41.9908C90.5797 41.9408 95.3597 46.6308 95.4097 52.4608L95.5397 67.3908L101.47 67.3408L101.34 52.4108C101.26 43.3208 93.7997 35.9908 84.7097 36.0708" fill="#90BEFB"/>
<path d="M16.5997 42.9696C10.7697 43.0196 5.97967 38.3196 5.92967 32.4896C5.87967 26.6596 10.5797 21.8696 16.4097 21.8196C22.2397 21.7696 27.0297 26.4696 27.0797 32.3096C27.1297 38.1396 22.4297 42.9296 16.5897 42.9796M16.3597 15.8896C7.25967 15.9596 -0.0803288 23.4296 -0.000328773 32.5296C0.0796712 41.6296 7.54967 48.9696 16.6497 48.8896C25.7497 48.8096 33.0897 41.3396 33.0097 32.2396C32.9297 23.1396 25.4597 15.7996 16.3597 15.8796" fill="#90BEFB"/>
</g>
</g>
<defs>
<clipPath id="clip0_2561_5842">
<rect width="134.77" height="68.53" fill="white"/>
</clipPath>
</defs>
</svg>
