<svg width="334" height="289" viewBox="0 0 334 289" fill="none" xmlns="http://www.w3.org/2000/svg">
<g clip-path="url(#clip0_2561_14733)">
<mask id="mask0_2561_14733" style="mask-type:luminance" maskUnits="userSpaceOnUse" x="0" y="0" width="334" height="289">
<path d="M333.14 0H0V288.56H333.14V0Z" fill="white"/>
</mask>
<g mask="url(#mask0_2561_14733)">
<path d="M286.35 30.32C286.35 23.17 292.14 17.37 299.29 17.37C306.44 17.37 312.24 23.17 312.24 30.32C312.24 37.47 306.44 43.26 299.29 43.26C292.14 43.26 286.35 37.46 286.35 30.32ZM254.82 86.83C247.64 86.83 241.82 81.01 241.82 73.83C241.82 66.65 247.64 60.84 254.82 60.84C262 60.84 267.81 66.66 267.81 73.83C267.81 81 262 86.83 254.82 86.83ZM149.81 183.36C149.27 189.34 147.63 194.9 144.85 200.21C143.83 202.15 142.63 203.81 141.33 205.58C139.11 208.59 136.42 210.99 133.54 213.38C130.81 215.65 127.73 217.22 124.54 218.75C123.21 219.39 118.26 221.02 116.92 221.25L112.81 221.97C111.27 222.23 110.13 221.94 109.05 220.65L107.38 218.66C106.74 217.89 106.1 217.26 105.41 216.68L103.32 214.93L101.72 213.62C99.5 211.8 93.92 208.89 91.08 207.94C86.47 206.39 81.67 205.41 76.78 205.54C73.61 205.63 73.36 203.79 71.66 201C67.81 194.62 65.68 185.22 66.31 177.85C66.54 175.05 66.98 171.44 67.85 168.84L68.75 166.12C70.42 161.11 73.27 156.75 76.78 152.75C82.48 146.25 91.05 141.25 99.53 139.58L103.91 138.73C106.54 138.21 109.29 138.54 112.02 138.69C113.77 138.78 115.53 139.29 117.29 139.57C119.16 139.85 120.86 140.51 122.61 141.17C126.39 142.61 130.26 144.44 133.36 147C134.91 148.28 136.52 149.41 137.89 150.84C140.57 153.62 142.87 156.49 144.7 159.88C147.2 164.49 148.94 169.33 149.48 174.57C149.79 177.58 150.08 180.38 149.81 183.36ZM107.86 31.05C130.96 31.05 149.69 49.78 149.69 72.88C149.69 95.98 130.96 114.71 107.86 114.71C84.76 114.71 66.02 95.98 66.02 72.88C66.02 49.78 84.75 31.05 107.86 31.05ZM288.6 68.65C288.69 65.4 293.57 61.02 296.7 61L321.77 60.86C323.25 60.85 324.57 60.17 325.8 59.64C326.9 59.17 327.67 58.56 328.56 57.8C331.21 55.52 332.51 52.45 333.13 49.16V12.47L332.9 12.24C332.9 5.17 326.09 -0.7 319.08 0.29C318.74 0.34 318.06 0.1 318.02 0H310.35C310.44 0 310.15 0.24 309.81 0.24L281.71 0.28C280.51 0.28 279.93 0.41 278.89 0.32C276.05 0.06 273.06 0.96 270.7 2.56C268.7 3.91 267.37 5.88 266.34 8.05C265.88 9.02 265.85 10.29 265.56 11.34C265.3 12.25 265.13 13.05 265.49 13.98L265.51 35.92L264.36 38.43C263.77 39.72 262.64 40.58 261.62 41.42C259.72 42.99 257.83 43.23 255.39 43.24L251.61 43.26C250.71 43.26 249.51 43.64 248.7 43.18C248.34 42.95 248.04 41.95 248.1 41.53C248.47 38.69 247.53 33.73 246.75 30.78C245.98 27.91 246 27.83 244.79 25.05C241.97 18.56 238.83 14.58 233.62 9.81C229.06 5.64 221.4 1.71 215.13 0.9C212.25 -0.2 210.91 0.61 209.38 0H205.3C205.14 0.1 204.64 0.25 204.4 0.24C201.21 0.11 198.07 0.86 195.06 1.75C188.81 3.58 183.2 6.77 178.58 11.41C178.3 11.69 177.73 12.02 177.37 12.03C177.06 12.03 176.72 11.44 176.43 11.11C174.35 8.78 172 6.67 169.25 5.15C167.37 4.11 163.17 2.03 161.28 1.66L156.82 0.78C153.66 0.16 150.54 0.67 147.68 0.56C143.28 0.38 140.67 0.59 136.45 0.56L130.4 0.53L100.78 0.51C99.72 0.51 98.74 0.88 97.71 0.63C96.73 0.39 95.72 0.49 94.71 0.68L93.56 0.55C92.46 0.7 91.38 0.8 90.29 0.6C89.26 0.42 88.32 0.58 87.28 0.64C85.22 0.77 83.17 0.67 81.09 0.67H79.36L53.97 0.8L48.36 0.92L31.57 1.08L13.45 1.19C13.02 1.19 12.19 0.86 11.71 0.7C9.38001 1.61 6.97001 1.14 4.58001 0.8L1.03001 1.29C-0.0599854 1.44 0.290015 2.45 0.390015 3.26C0.460015 3.84 0.0800146 4.93 0.120015 5.53L0.340015 8.62C0.400015 9.45 0.370015 10.2 0.340015 11.05C0.150015 14.5 0.340015 16.58 0.340015 19.97V34.71C0.320015 35.34 0.360015 35.88 0.340015 36.52L0.230015 39.81C0.220015 40 0.460015 40.49 0.610015 40.6C0.800015 40.73 1.23001 40.71 1.61001 40.65C2.19001 40.56 2.82001 40.67 3.44001 40.69C6.53001 40.81 9.58001 40.83 12.7 40.69C13.3 40.66 14.01 40.47 14.62 40.48L20.37 40.59C21.18 40.59 22.16 41.08 22.89 41.37C28.29 43.57 32.08 48.61 32.55 54.52C32.69 56.28 32.72 58.16 32.53 59.92C32.4 61.15 32.6 62.11 32.6 63.38L32.68 132.56L32.75 135.74L32.7 138.84C32.66 141.35 32.59 143.8 32.71 146.27C32.76 147.37 33.01 148.43 32.74 149.51C32.42 150.8 32.87 152.18 32.8 153.48C32.64 156.17 32.71 158.73 32.73 161.4L32.75 165.49V170.04C32.75 171.28 32.69 172.43 32.79 173.66C33.13 177.79 32.55 178.65 32.73 181.84C32.9 185.01 32.63 183.83 32.7 186.83C32.75 189.09 33.06 189.55 32.8 192.07C32.65 193.47 32.66 194.77 32.7 196.14L32.78 199.08C32.83 200.88 32.23 203.82 31.31 205.37L30.32 207.05C29.07 209.16 27.19 210.64 25.15 211.96C21.3 214.44 16.54 213.87 11.84 213.96C10.11 214 8.34001 213.82 6.61001 214.03C3.27002 214.46 1.39001 213.44 0.750015 214.32C0.0800146 215.25 0.890015 215.48 0.610015 217.62C0.440015 218.89 0.580015 220.16 0.560015 221.42L0.380015 233.47C0.350015 235.99 -0.359985 238.62 0.260015 241.02L0.710015 242.75L0.780015 253.07C1.49001 253.95 2.67001 253.21 3.39001 253.31C5.44001 253.58 7.28001 253.75 9.38001 253.81C10.43 253.84 11.55 253.35 12.53 253.34L32.57 253.21C33.53 253.21 34.81 252.52 35.57 253.48C36.32 254.43 36.26 256.04 36.61 257.21L37.62 260.54C37.84 261.27 38.13 262.14 38.43 262.81L39.47 265.15C41.01 268.61 43.18 271.68 45.62 274.55C49.86 279.56 55.91 283.67 62.08 285.9C64.55 286.8 66.97 287.66 69.56 287.97C72.03 288.27 74.43 288.57 76.82 288.57C83.37 288.59 90.1 286.82 95.92 283.89C98.73 282.47 101.23 280.68 103.71 278.76C104.68 278 105.45 277.15 106.25 276.26L108.75 273.48C109.26 272.92 109.71 272.35 110.15 271.74C113.53 267.06 115.54 263.04 116.93 257.39C117.21 256.28 117.48 255.27 117.68 254.08C117.79 253.46 118.19 252.54 119.03 252.54L138.86 252.52L139.97 252.42L141.82 252.36L154.69 252.23C155.44 252.23 156.34 252.13 157.11 252.03C167.97 250.58 176.94 243.8 181.85 234.12C183.18 231.51 185.08 226.22 185.09 223.48L185.13 193.3L185.06 190.68C184.96 186.91 185.33 184.77 185.08 180.37C184.91 177.35 185.34 175.75 185.08 173.19C184.94 171.76 185.08 170.48 185.04 169.06L184.92 165.49L184.99 161.68L185.01 158.3C185.02 156.75 184.82 155.19 185.06 153.63C185.25 152.4 185.06 151.13 185.06 149.92C185.07 148.91 185.1 148.01 184.99 146.99C184.7 144.14 185.2 144.44 185.06 141.04L184.96 138.53L184.9 91.67V90.16L184.93 78.41C184.93 78.14 184.97 77.7 185.01 77.51C185.06 77.33 185.66 77.23 185.86 77.34L188.47 78.71C194.34 81.8 201.08 83.12 207.69 83.03C208.15 83.03 208.75 83.09 209.17 83.03L212.05 82.68C214.76 82.36 217.5 81.52 220.13 80.82C220.43 80.74 221.18 81.06 221.3 81.33C221.42 81.6 221.21 82.21 221.21 82.6L221.14 90.13C221.11 94.15 222.43 97.55 225.48 100.25C228.2 102.65 230.18 103.59 234.09 103.62L237.96 103.65C239.74 103.65 241.43 103.58 243.18 103.65C246.08 103.78 248.56 103.48 252.29 103.68C253.3 103.74 254.19 103.68 255.21 103.68L271.64 103.66L273.83 103.68L278.12 103.65L281.1 103.67L283.73 103.69C284.56 103.7 285.33 103.75 286.2 103.75H288.02C289.29 103.75 290.4 103.8 291.67 103.7C293.47 103.56 295.33 103.56 297.13 103.68C298.09 103.74 298.96 103.91 299.9 103.71C301.11 103.45 302.41 103.8 303.6 103.75C304.89 103.7 306.04 103.55 307.3 103.75C308.09 103.88 309.01 103.88 309.81 103.75C310.75 103.6 311.58 103.73 312.53 103.77C315.55 103.9 318.52 103.91 321.51 103.73C323.96 103.58 326.34 103.55 328.8 103.68L331.11 103.8C331.91 103.84 332.58 103.87 333.13 103.37V101.95C333.13 101.95 333.14 101.95 333.13 101.93V88.98C333.13 88.98 333.14 88.96 333.13 88.96V85.62C333.02 85.56 332.34 85.12 332.05 85.12L306.13 85.16C305.48 85.16 304.79 85.31 304.25 85.26C300.05 84.91 299.25 85.71 296.26 85.05C293.63 84.47 291.38 82.85 289.93 80.63C288.75 78.83 288.39 76.65 288.45 74.56L288.6 68.66V68.65Z" fill="#90BEFB"/>
</g>
</g>
<defs>
<clipPath id="clip0_2561_14733">
<rect width="333.14" height="288.56" fill="white"/>
</clipPath>
</defs>
</svg>
