<svg width="1052" height="177" viewBox="0 0 1052 177" fill="none" xmlns="http://www.w3.org/2000/svg">
<g clip-path="url(#clip0_2561_22229)">
<mask id="mask0_2561_22229" style="mask-type:luminance" maskUnits="userSpaceOnUse" x="0" y="0" width="1052" height="177">
<path d="M1051.12 0H0V176.58H1051.12V0Z" fill="white"/>
</mask>
<g mask="url(#mask0_2561_22229)">
<path d="M703.65 78.5617L701.34 88.3917L699.14 96.4916C698.42 99.1616 697.28 101.552 697.29 104.472C697.29 106.762 695.96 109.102 695.78 111.302L695.37 116.162L694.35 125.482L693.74 132.352C693.52 134.752 693.51 136.812 693.78 139.292C693.89 140.212 693.28 142.072 693.55 143.002C694.02 144.542 693.77 146.412 692.44 147.292C691.92 147.632 690.86 146.322 690.86 145.732L691.02 134.062L691.45 128.072L691.86 122.472L692.24 118.172C692.74 112.472 694.05 105.062 695.57 99.6117L698.21 90.2016L700.11 83.5317C700.76 81.3117 701.2 79.3017 701.4 76.9917C701.87 71.4317 701.97 68.4217 699.84 63.3617C698.12 59.3117 695.38 56.3517 691.86 53.6417C687.84 50.5617 682.45 57.5817 681.17 60.4717C678.39 66.7817 675.11 83.6216 674.63 90.7016L674.27 95.9017L673.89 105.512C673.73 109.402 673.55 113.362 673.84 117.272C674.02 119.532 674.25 121.612 673.77 123.832C673.61 124.572 674.09 126.022 674.09 126.812L674.13 139.582C674.13 140.062 673.05 141.182 672.64 140.942C672.23 140.712 671.56 139.762 671.56 139.242C671.54 136.912 671.42 134.432 671.31 132.182L670.95 123.462L670.02 112.902C669.07 102.162 670.83 89.1217 670.14 80.4117L669.69 74.9217C669.57 73.1817 668.92 71.5117 668.4 69.9017C666.43 63.8417 666.52 63.8917 662.21 59.6117C660.79 58.2117 658.34 58.3917 656.56 59.1817C655.18 59.7917 652.76 61.6217 653.08 63.6517C653.62 66.9717 655.07 70.1417 655.14 73.5117C655.23 77.2917 655.41 80.9316 655.03 84.5916L654.46 89.9916L654.12 108.552L653.74 119.022L653.36 123.772L652.88 129.382C652.72 131.412 652.83 133.762 652.45 135.962L650.17 149.192C650.08 149.712 649.35 150.462 648.93 150.482C645.11 150.732 645.2 137.482 646.46 134.842L649.44 135.992C650.32 134.572 650.34 132.872 650.52 131.042L651.24 123.372L651.62 116.032L651.94 98.2416L652.42 93.0817L652.74 83.8416C652.86 80.7616 653.03 77.9817 652.85 74.8917C652.78 73.5817 653.44 70.6617 651.4 70.5017C648.8 71.3417 648.98 74.7317 648.71 76.9717L647.9 83.3917L647.06 91.5317L646.72 96.3416L646.42 108.682C646.37 111.242 646.35 113.522 646.42 116.102L646.69 124.642C646.78 127.562 647.08 130.242 646.96 133.342C645.29 131.642 645.38 129.452 645.2 127.192L644.75 121.612C644.59 119.672 644.25 117.682 644.64 115.802C644.85 114.762 643.98 91.3817 644.55 87.3217L645.73 79.1317C646.16 76.0617 646.99 73.1417 647.95 70.2517L649.38 66.0417C649.65 65.2517 649.74 63.3017 649.4 62.5417C642.87 54.6017 631.18 62.7217 626.7 68.7617L622.32 74.7017C620.21 77.5317 618.75 80.5317 617.25 83.7617C616.57 85.2117 615.29 86.6117 614.58 87.9617C612.19 92.4217 610.96 97.2316 609.4 102.022C607.79 106.932 606.21 106.862 605.17 112.802C604.43 117.012 603.7 121.232 603.61 125.422C603.57 126.852 603.61 128.022 603.36 129.532C602.03 137.242 603.23 139.342 601.07 145.972C598.54 146.792 600.24 135.192 600.44 132.832C600.62 130.772 600.8 128.872 601.44 126.952C603.2 121.622 602.66 116.062 603.9 110.652C606.12 100.932 610.12 91.9517 614.12 82.8717C615.09 80.6817 616.86 78.8517 617.97 76.8117C621.92 69.4817 629.88 59.0417 638 56.5617C641.16 55.6117 644.81 55.9117 647.23 57.8017C648.38 58.6617 649.44 59.4717 650.82 59.7417C651.9 59.9717 653.44 58.5217 654.48 57.8717C658.91 55.0917 663.82 57.3817 666.76 61.1017C669.47 64.5117 670.9 68.1317 670.78 72.5617C670.76 73.4217 672.59 75.4317 673.22 74.5017C674.91 72.0117 675.16 68.8717 676.21 66.1617L677.77 62.1217C678.76 59.5917 680.08 57.1317 681.72 54.9717C682.94 53.3417 684.75 52.6717 686.63 52.1017C688.42 51.5417 689.86 51.8117 691.49 52.1517C699.4 53.8217 703.56 61.8017 703.81 69.2417L704.01 74.9117C704.05 75.8217 703.89 77.6217 703.65 78.5717M700.19 53.2317C697.39 50.3817 693.88 48.6917 690.08 48.2517C683.32 47.4217 677.94 53.3817 675.75 58.9217L673.92 63.6017C673.72 64.0717 673.1 64.6917 672.63 64.6617C671.09 64.5217 672.54 62.2217 668.65 58.3717C665.98 55.7217 662.61 53.2417 658.63 53.0317C655.96 52.8917 653.88 54.6117 651.49 55.8417C649.71 56.7717 647.4 53.1517 644.08 52.9417L640.87 52.7417C636.87 52.4917 633.27 54.7517 630.13 57.1517C623.35 62.4017 618.37 69.1317 614.56 76.7717C614.38 77.1517 613.56 78.1517 613.2 77.9417C612.84 77.7417 612.27 77.3517 611.89 77.1017C607.91 83.4317 612.09 85.2616 608.11 88.1716L607 87.1517L604.51 92.2416C604.13 93.0516 604.91 95.0216 604.74 95.9216C603.48 102.902 601.89 104.262 600.51 111.812L599.27 118.682L597.82 127.052L596.98 146.542C596.93 147.852 596.89 148.752 597.81 149.712C599.23 151.252 601.14 151.812 603.01 150.952C604.64 150.202 605.39 148.562 605.32 146.572C605.27 144.942 605.53 143.402 605.59 141.782L605.89 132.992C606.18 124.782 607.24 116.602 610.19 108.982L614.01 99.1517C614.75 97.2717 614.75 95.2417 615.66 93.4317L617.79 89.1117C620.43 83.8617 623.3 79.1217 626.52 74.2417C629.89 69.1717 636.88 61.5817 643.39 62.4917C644.82 62.6917 646.58 64.2516 645.92 65.5917C644.72 68.0117 644.31 70.3417 643.66 72.9617C643.07 75.3317 642.23 77.6617 641.99 80.1517L641.52 85.1517L641.11 91.5717C640.72 97.6017 641.07 103.482 641.2 109.432L641.59 127.432L642.09 133.012L642.45 144.292C642.5 145.832 644.24 154.822 648.67 155.082C651.95 155.302 653.69 149.432 654.05 147.282L655.95 135.782C656.36 133.222 656.43 130.632 656.59 128.072L656.89 122.922L657.16 117.942L657.5 103.362L657.93 93.4817L658.41 85.7917C658.7 81.0417 658.66 76.3217 658.48 71.5217C658.32 67.4517 654.95 63.4317 657.85 62.1617C659.48 61.4417 661.49 62.3217 662.28 63.8617C663.07 65.4017 664.41 67.3417 664.72 68.9717C665.35 72.2517 666.37 75.4817 666.57 78.7217C666.96 85.0117 666.86 91.1817 666.55 97.3717C666.37 100.902 666.19 104.362 666.44 107.902L666.89 114.342L667.3 119.062C667.46 120.942 667.53 122.742 667.62 124.642L667.92 131.472L668.33 139.742C668.46 142.502 670.55 145.462 673.87 144.942C675.73 144.672 677.49 142.052 677.51 140.192C677.58 128.842 676.49 115.352 677.21 104.472L677.62 98.0117L678.05 90.7117C678.12 89.3817 678.28 87.7917 678.5 86.5017L680.79 72.6417C681.19 70.2017 682.08 67.5817 682.76 65.0017C683.3 63.0317 684.62 61.1617 685.58 59.2817C686.6 57.3117 689.2 55.8017 691.3 57.3117C695.75 60.5217 697.79 65.2417 698.24 70.6217C698.46 73.0117 697.52 81.0617 696.82 83.4117L694.22 92.0317C691.57 100.872 689.29 109.752 688.73 119.042L688.39 124.652L688.01 132.612C687.78 137.612 687.63 142.652 688.05 147.582C688.25 149.862 691.31 151.852 693.23 151.112C694.52 150.612 696.24 148.942 696.76 147.832L697.16 140.982L697.46 124.022L697.91 117.582C698.11 114.732 698.91 112.202 699.54 109.422L700.51 105.242L700.91 107.952L701.84 103.542C703.22 97.0117 705.75 90.7517 706.32 84.0817L706.93 76.8717C707.75 67.0417 707.2 60.4317 700.13 53.2417" fill="#90BEFB"/>
<path d="M525.961 43.9608C524.761 45.7308 521.261 42.5808 517.711 41.1608L510.361 38.2208C509.161 37.7508 507.801 37.2208 506.591 36.8408C492.531 32.4508 488.961 31.3708 474.081 29.4208C472.161 29.1708 469.971 29.1108 468.071 29.0408L458.821 28.6608C452.651 28.4308 446.111 28.0308 439.971 29.7408C434.791 31.1908 430.141 33.7208 426.271 37.4108C423.881 39.6908 422.151 42.4508 419.961 44.8708C418.511 46.5008 417.311 48.1708 416.011 50.0908C415.651 50.6108 416.391 52.3008 417.031 52.3508C422.101 52.8708 427.951 51.9008 432.861 50.4808C435.641 49.6908 438.651 49.1708 440.961 47.3808L445.211 44.1008C445.431 43.9208 446.541 43.9008 446.791 43.8008C447.151 43.6808 447.691 44.9808 447.441 45.2708C442.011 51.4608 445.181 45.6608 439.411 54.8608C438.011 57.0708 437.331 59.2908 436.741 61.7608C435.971 64.8608 435.161 67.6808 435.311 71.0108C435.361 72.0708 435.041 73.3408 435.021 74.4408L434.731 88.8808L433.331 99.6908C433.261 100.211 432.091 101.141 431.631 101.111C431.151 101.061 430.501 100.201 430.341 99.6008C427.451 89.5008 420.551 87.0508 411.941 83.1208C411.061 82.7208 409.651 82.5808 408.871 82.8708C408.101 83.1608 407.021 84.6808 407.021 85.7408L406.881 109.591C406.881 110.721 406.411 112.301 406.501 113.451C406.821 118.561 406.001 123.151 405.391 128.151C405.211 129.711 405.101 139.971 405.121 142.261L405.211 150.901C405.211 152.101 403.811 154.161 402.701 154.681C394.201 158.681 393.911 155.221 388.251 158.371C387.251 158.931 385.491 159.211 384.471 158.711C383.381 158.151 383.971 156.771 384.041 155.891C384.381 152.041 383.901 148.431 383.901 144.521L383.761 88.6308C383.761 87.1908 384.501 85.3808 384.391 84.2008C383.761 77.3708 373.901 81.1908 370.651 81.8308L363.661 83.2508C360.341 83.9108 357.831 87.1408 357.191 90.3308C356.961 91.5008 356.261 92.8208 355.431 93.3408C353.601 92.5508 353.691 90.6108 354.031 89.0008C354.711 85.8808 355.091 82.9008 355.611 79.8008L356.401 75.0708C357.231 70.1408 357.891 65.2608 358.301 60.2608L358.681 55.8708C358.841 53.9208 358.991 51.5308 358.611 49.5408C357.961 46.0308 353.251 43.6608 354.141 39.3008C354.251 38.8208 355.181 38.0108 355.651 37.9008C357.531 37.4508 359.241 42.3508 359.901 44.0308C360.901 46.5408 362.251 47.9008 364.741 48.8008C371.301 51.1908 382.891 52.3108 390.131 52.0808C394.081 46.3208 395.371 40.6608 399.221 34.9208L402.861 29.5208C406.611 23.9408 411.541 18.5308 416.611 14.0108C420.721 10.3308 425.671 7.48076 430.901 5.65076C433.251 4.84076 440.281 3.17076 442.611 3.17076H459.451C461.531 3.17076 473.971 5.86076 476.681 6.60076L482.451 8.18076L486.201 9.72076H486.221C486.511 9.72076 492.511 11.1608 497.431 13.2008L502.651 15.3708C508.571 17.8508 519.561 25.0908 521.951 31.3108L524.191 37.1408C524.751 38.6108 524.641 40.3708 525.781 41.7008C526.161 42.1308 526.261 43.4908 525.961 43.9408M519.401 22.7408C516.751 20.0108 513.841 17.9908 510.521 16.0508C507.291 14.1708 504.151 12.2708 500.641 10.9608L496.841 9.56076L490.421 7.35076L480.921 4.37076L475.291 2.70076C471.511 1.57076 467.781 1.27076 463.851 0.800759L459.331 0.250759C454.171 -0.359241 439.661 0.160759 433.971 1.36076C414.411 5.54076 397.641 28.2808 390.151 45.5408C389.581 46.8308 389.041 48.0908 388.091 48.5308C386.741 49.1708 385.561 48.8908 384.131 48.7808L378.141 48.3108C373.891 47.9708 369.621 47.2708 365.661 45.6008C361.791 43.9708 363.901 39.8408 358.131 35.1508C356.361 33.7008 354.631 32.9408 352.551 34.9008C351.261 36.1208 351.031 38.4908 350.941 40.4408C350.761 44.9608 353.581 46.2308 355.641 50.8608C356.361 56.2808 355.251 61.1908 354.391 66.4208L352.181 79.7108C351.521 83.6908 351.091 87.4908 350.601 91.5608C350.221 94.7708 353.361 98.4408 356.521 97.4408C358.941 96.6508 359.661 93.7808 360.121 91.5608C360.571 89.3708 362.251 87.0608 364.411 86.5608C369.221 85.4308 375.531 83.6708 380.171 84.4408C381.371 84.6408 380.941 86.8608 380.851 87.6908L380.421 91.9808C380.201 93.9908 379.991 96.0308 379.991 97.9908L379.951 119.491C379.951 121.571 380.561 123.811 380.221 125.911C379.831 128.471 380.041 130.721 380.131 133.261L380.511 145.421C380.621 148.771 381.011 152.501 380.461 155.751C380.061 158.141 379.351 159.481 381.461 161.341C383.111 162.811 384.811 163.381 387.141 162.291C389.091 161.381 391.571 160.941 393.791 160.431L399.011 159.231C401.951 158.551 404.981 157.531 407.111 155.211L408.671 151.641L408.791 129.801L409.241 124.641L409.541 119.481L409.851 113.511L410.261 105.731C410.331 104.331 409.811 102.541 410.101 101.141C410.761 97.9708 409.221 91.3808 410.241 87.6708C411.171 85.8408 413.761 87.3108 414.871 87.8908L420.321 90.6908C424.191 92.6808 426.181 96.6408 427.011 100.871C427.241 102.141 428.531 103.871 429.431 104.671C431.241 106.321 433.481 105.751 434.861 103.881C436.491 101.671 436.991 98.7708 437.251 95.9908L437.901 89.0308L438.241 82.9908L438.541 73.2408C439.281 49.8408 451.521 49.5508 451.591 44.3008C451.611 42.3508 449.041 40.3908 447.211 39.8408C444.861 39.1208 442.211 43.8908 436.881 45.8808C434.841 46.6308 432.541 47.5708 430.461 47.9208L422.611 49.3008C421.891 49.3708 421.891 46.9908 422.381 46.4508L426.521 42.0008C428.831 39.5108 431.131 37.0508 434.251 35.5308C435.521 34.9208 437.231 33.7208 438.461 33.4708L445.741 32.0208C449.201 31.3408 456.391 31.3708 460.101 31.7008L479.831 33.4008C486.451 33.9908 503.971 39.1608 510.621 41.7408L514.981 43.4308C517.541 44.4308 519.961 45.7808 521.971 47.5708C524.091 49.4508 526.291 48.5208 528.011 46.6408C528.921 45.6508 530.131 44.3808 530.561 43.0708C524.771 33.3108 528.461 31.9908 519.391 22.7508" fill="#90BEFB"/>
<path d="M286.25 136.201C286.03 136.681 284.37 136.901 284.03 136.521C281.16 133.541 278.95 129.961 277.23 126.191C274.68 120.631 273.82 114.861 272.93 108.831C272.5 105.871 271.67 103.021 271.62 99.9711L271.32 83.9011L271 78.6511C270.95 77.8111 270.25 76.5311 269.55 76.4611C268.65 76.3911 267.58 77.0011 267.13 77.7211L263.58 83.5111C261.57 86.7911 259.78 90.0211 258.22 93.3411L253.52 103.241C252.71 104.941 252.05 106.561 251.17 108.211L248.95 112.441L245.78 118.271L240.98 127.131L236.73 135.431C234.83 139.141 233.49 143.091 232.03 147.051C230.54 151.161 229.82 158.171 228.19 158.961C227.78 159.181 226.59 158.321 226.49 157.851C226.13 156.201 226.51 153.921 226.63 152.171L227.03 146.541L227.5 139.281C227.68 136.381 227.61 133.541 227.97 130.671L229.49 118.671L231.28 107.711C231.71 105.061 232.2 102.531 232.84 99.9111L234.56 93.0111L238.76 76.5811C239.39 74.1211 239.87 71.4311 240.01 68.8711L240.33 62.8111L240.1 58.9211C240.05 57.9311 239.78 56.7011 238.95 56.4511C237.89 56.1111 236.85 56.8311 236.37 57.7811C235.17 60.1511 233.99 62.2111 232.62 64.4511L220.12 85.0011C216.32 91.2411 213.86 97.8011 211.42 104.721L209.41 110.421C207.9 114.721 207.35 106.671 207.98 104.721C208.91 101.921 209.67 99.5411 210.67 96.9411C212.52 92.1711 217.72 82.4711 220.59 78.0911L224.14 72.6711L230.4 62.2011L235.15 54.0411C236.23 52.2111 236.58 49.6111 238.7 48.4611C241.64 46.8311 243.31 55.9211 243.44 57.6211L243.8 62.8711C243.89 64.0511 243.62 65.7811 243.51 67.1211C243.17 72.0711 242.02 76.7111 240.77 81.4511L238.71 89.3011C238.03 91.8611 237.1 94.4311 236.61 97.0611L232.38 120.771C232.15 122.101 232.2 123.751 232.06 125.091L231.49 130.651C231.38 131.651 231.4 133.631 232.51 133.911C233.71 134.221 235 132.621 235.34 131.531C236.31 128.391 237.83 125.901 239.39 123.101L244.79 113.431C249.47 105.021 253.5 96.6311 257.49 87.8911C258.26 86.1911 263.69 77.0811 264.97 75.1911C266.28 73.2411 267.57 70.7111 269.54 69.4511C271.1 68.4611 272.23 70.8911 272.48 72.0111L273.84 77.9611C274.36 80.2411 273.89 83.0711 274.18 85.4711C274.91 91.7611 274.05 92.5211 275.15 99.8311L276.26 107.331L278.48 118.791C278.95 121.141 279.48 123.201 280.6 125.351C282.23 128.541 283.76 131.361 285.98 134.241C286.36 134.741 286.48 135.691 286.29 136.161M287.95 131.411C283.77 126.101 281.55 119.221 280.46 112.601L278.9 103.201C278.26 99.3111 277.82 95.4911 277.55 91.6211L277.14 85.5811L276.91 77.9011L276.57 74.0111C276.3 71.2111 275.21 68.6011 273.04 66.8611C267.89 62.7511 263.09 71.6811 260.72 75.7011L256.9 82.2311C253.83 87.4711 252.97 90.6911 250.32 95.8411L246.2 103.781L243.4 109.141L237.52 120.191C237.36 120.461 236.66 120.891 236.43 120.841C235.01 120.501 236.07 116.141 236.25 115.301L239.1 100.971C239.78 97.5811 240.7 94.4111 241.63 91.0711L243.85 83.0011C245.16 78.3211 245.73 73.6611 246.49 68.8011C247.6 61.5211 246.9 54.1311 243.92 47.4811C243.22 45.9011 241.14 44.5211 239.83 44.4311C238.2 44.3211 236.35 45.2011 235.4 46.6011C233.07 50.0611 231.4 53.7211 229.37 57.3411L225.19 64.7611C219.92 74.1711 214.61 79.8611 210.06 90.8111C209.7 91.6511 208.84 92.3711 208.1 92.7811C205.81 99.7911 202.99 107.641 205 115.051C206.02 118.761 211.83 113.511 212.42 111.821L214.23 106.641C215.58 102.801 216.94 99.2011 218.5 95.4011C220.9 89.5911 224.35 84.5211 227.52 79.0811L234.82 66.6011C235.25 65.8611 236.13 65.3111 237.11 65.3811C237.02 68.4111 236.52 71.1711 235.93 74.1011C233.46 86.0411 228.67 99.6911 227.23 111.311L225.26 127.361L223.88 140.561L223.38 147.391L223.13 153.361C223.02 155.931 222.45 158.671 223.9 161.001C224.51 161.971 226.48 163.081 227.59 163.151C232.47 163.491 233.22 154.631 234.28 151.461L236.95 143.371C238.03 140.131 239.62 136.971 241.18 133.961L243.38 129.711L248.4 120.151L251 115.421C253.4 111.061 255.3 106.611 257.51 102.131L264.04 88.8811L266.16 85.0811C266.34 84.7711 267.15 84.0211 267.38 84.2511C267.59 84.4711 267.99 85.2211 267.99 85.5411L268.08 97.5711C268.08 98.5411 268.37 99.9911 268.51 101.001L269.93 111.021C270.38 114.161 270.76 117.051 271.6 120.131C273.64 127.551 277.05 134.281 282.66 139.641C283.79 140.701 286.1 141.471 287.32 140.571C290.57 138.221 290.15 134.201 287.95 131.411Z" fill="#90BEFB"/>
<path d="M887.43 16.7503C885.03 19.7303 881.42 20.4103 877.94 18.4203C877.19 17.9703 876.31 17.2003 876.22 16.6303C875.84 14.3703 878.01 14.6603 880.92 12.0403C881.71 11.3003 882.84 10.4803 883.82 10.5003C885.7 10.5203 888.18 13.1903 888.37 14.1603C888.51 14.8203 887.87 16.2003 887.42 16.7603M889.37 9.47025C886.59 6.71025 882.63 5.94025 879.47 8.56025C877.96 9.80025 876.28 11.1403 874.52 12.0403C872.21 13.2103 871.42 15.3203 872.58 17.5503C876.38 24.7603 886.87 23.0403 889.24 19.9503C890.55 18.2303 891.93 16.5803 891.8 14.5503C891.68 12.6703 890.74 10.8403 889.36 9.48025" fill="#90BEFB"/>
<path d="M198.43 152.371C197.3 152.621 195.92 151.471 195.11 150.611C191.04 146.181 191.45 143.121 189.44 143.041C187.72 142.991 187.2 144.671 183.59 146.881C174.86 152.241 165.12 151.351 155.58 148.821C154.11 148.441 151.62 148.571 150.56 147.471C145.41 142.111 143.6 144.301 136.46 135.191C132.68 130.331 131.08 124.251 129.86 118.231C129.04 114.121 128.01 110.251 127.87 106.051L127.64 98.9313L127.21 94.1413L126.74 89.0113C126.43 85.6913 126.33 82.7013 127.17 79.4213C127.89 76.6013 128.84 73.7313 131.38 72.0113C137.73 67.6913 136.79 67.9613 144.45 64.9413C155.96 60.3913 161.4 63.4913 172.03 62.6613C176.91 62.2813 182.82 61.8513 187.06 64.5813C187.9 65.1413 189.19 65.4813 190 65.1213C190.79 64.7613 191.76 63.3513 191.77 62.3113L191.97 51.0813C191.97 50.5613 192.92 49.5213 193.4 49.3813C196.34 48.5213 195.03 57.5213 195.03 58.2413L194.64 91.7713L194.23 106.401L193.78 115.851L193.3 123.951C193.12 127.111 193.32 130.321 192.89 133.471C192.07 139.261 194.22 144.861 198.23 149.201C198.61 149.611 199.04 150.241 199.25 150.621C199.45 151.001 198.89 152.271 198.41 152.361M122.55 71.2513C120.52 69.7113 122.76 68.6713 124.04 63.2713C124.31 62.0913 124.38 60.7113 123.72 59.7913C122.12 57.6413 116.35 58.3213 114.41 58.9813C110.72 60.2513 107.79 63.1913 105.53 66.4413C100.83 73.2013 97.3505 80.5213 93.4105 87.8013C91.8905 90.6313 90.6905 93.3613 89.3605 96.2613L86.9605 101.551C83.9105 108.261 80.9205 114.731 79.5905 122.051C79.1805 124.271 78.6605 126.441 78.0705 128.611L75.7005 137.401C75.0905 139.661 74.5705 141.791 73.6405 144.031C73.3505 144.731 73.1405 145.841 73.3905 146.431C74.1305 148.011 78.0705 148.101 79.5905 148.031C82.3205 147.921 84.6805 148.071 87.4105 148.141L92.4705 148.271L104.99 150.371C105.56 150.461 106.44 151.161 106.71 151.611C107 152.131 106.49 153.891 105.92 153.741C103.1 153.061 100.16 152.631 97.3505 152.361C95.3205 152.161 93.1405 151.391 91.1105 151.371L74.0005 151.281C72.6905 151.261 70.4805 152.551 69.2805 152.371C62.3605 151.421 66.5405 151.941 59.3305 152.421C56.6905 152.601 53.9305 152.551 51.2105 152.511C50.5805 152.511 49.7405 151.181 49.8105 150.591C49.8805 150.021 51.0705 149.191 51.7505 149.171L63.1905 149.031C64.7905 148.991 67.0305 147.861 67.3505 146.381L68.6405 140.251L78.4105 112.801C79.4505 109.911 79.6105 106.761 80.2205 103.801L82.0105 95.1913C82.4205 93.2913 82.5105 91.4113 82.7505 89.4313L83.7205 81.0713C84.2905 76.0713 84.0105 70.9913 83.7605 65.9413C83.5105 61.1913 81.4505 58.4113 83.4905 56.6213C83.9705 56.1913 85.5905 56.7313 85.7505 57.5713C87.7605 67.7213 87.5305 72.8313 87.2605 83.3613C87.2105 85.2413 85.5205 87.0913 87.3505 89.3013C89.0305 91.3413 92.1405 83.6013 92.6205 82.6513L94.6605 78.6913L97.0605 74.2413C99.4105 69.9413 102.53 65.0613 105.81 61.4513C108.64 58.3713 112.62 56.3213 116.8 55.3513C120.33 54.5413 124.49 55.3513 127.74 56.8213C128.85 58.6713 128.06 61.4113 127.47 63.2813C126.99 64.8413 124.87 73.0313 122.56 71.2613M196.91 141.131C196.41 139.251 196.12 136.881 196.28 135.001C196.46 132.781 196.3 131.041 196.37 128.891L196.6 122.941L196.87 118.171L197.25 108.921L197.68 93.5513L198.09 75.8913L198.5 58.3213C198.57 55.2713 199 52.1913 198.55 49.1213C198.14 46.1613 193.91 44.8013 191.43 46.0713C190.17 46.7313 188.95 48.6013 188.92 49.9813L188.78 59.4113C188.76 60.5013 186.91 60.9713 186 60.5213C179.65 57.4013 174.92 59.8413 166.85 59.1213C162.74 58.7613 156.88 58.9613 152.68 59.4813C146.75 60.2313 141.01 62.4413 135.81 65.2513C133.64 66.4213 132.17 68.3013 129.28 68.4813L131.43 60.8413C132.27 57.8813 131.13 53.2913 127.72 52.7413C119.54 51.4113 112.76 51.4313 106.22 56.7913C102.4 59.9313 99.5705 63.5713 97.0905 67.8713L92.2505 76.2413C92.1105 76.5113 91.1705 77.2413 90.9605 77.0313C90.7305 76.8013 90.3505 76.0613 90.3505 75.7013L90.2805 63.7013C90.2605 62.6213 89.8705 61.1013 89.7205 59.9713C89.3605 57.1413 88.2505 54.3013 85.8505 52.7113C84.0605 51.5413 82.4105 52.8713 81.1305 54.0713C79.8705 55.2413 79.1405 56.6313 79.5705 58.5913C80.5905 63.2513 81.4005 71.7713 81.0205 76.1513L80.5305 81.7113L79.8705 87.4813C79.4905 90.6913 78.7405 93.7213 78.1105 96.9313L75.5305 109.791C74.9905 112.501 74.2005 114.871 73.2905 117.451L71.3705 122.881L69.2405 128.421L67.0905 134.001L65.2305 139.111C64.6405 140.781 64.7105 143.451 63.7405 144.811C62.3205 146.821 59.5605 145.601 57.6805 145.711L52.1205 146.071C49.1405 146.251 46.8805 147.091 46.0905 149.941C45.5305 151.931 47.2005 155.391 49.8705 155.481C53.5105 155.611 57.0205 155.591 60.6605 155.461C62.8305 155.391 65.1405 154.711 67.2405 155.411C72.9605 157.271 71.0205 154.141 77.3905 154.211L88.6005 154.351C91.6105 154.401 100.7 156.141 103.97 156.901C106.62 157.531 108.4 157.631 110.26 154.781C110.67 154.131 111.18 152.541 110.96 151.621C110.62 150.221 107.14 147.731 105.11 147.211C96.7905 145.131 88.6005 144.541 79.9705 144.881C79.2505 144.901 78.1205 144.631 77.7605 144.231C77.3805 143.841 77.3705 142.531 77.6005 142.021C79.1405 138.451 80.8505 131.961 81.7205 128.031C82.5405 124.351 82.8005 120.531 83.9605 116.971C85.3905 112.591 87.5805 108.631 89.3905 104.381C91.5205 99.3913 93.6405 94.5513 96.1105 89.6813L97.5605 86.8113C100.68 80.6413 103.82 74.7613 107.62 68.9513C109.97 65.3313 113.2 62.4613 117.41 61.0613C118.09 60.8513 119.67 61.1713 120.05 61.6913C120.39 62.1213 120.54 63.4113 120.36 63.9913L118.82 68.8913C117.89 71.8713 119.81 74.4713 122.64 75.2213C126.39 76.2113 122.95 78.1313 123.38 85.1413L123.74 91.1813C123.85 92.8313 124.15 94.7313 124.17 96.3613C124.22 107.051 125.39 117.301 128.74 127.601C130.8 133.911 134.69 139.691 140.04 143.651L147.02 148.821C148.17 149.661 149.4 151.961 150.98 151.981C154.76 152.031 157.79 152.661 161.45 153.701C162.62 154.041 164.66 153.771 165.97 153.971C167.98 154.261 169.7 154.241 171.67 154.041C177.95 153.411 182.09 152.011 187.25 148.391C190.48 146.131 189.65 152.981 197.65 156.281C198.82 156.761 200.38 155.401 201.22 154.671C206.87 149.811 198.39 146.871 196.88 141.151" fill="#90BEFB"/>
<path d="M341.121 62.641C340.981 62.961 339.671 62.891 339.381 62.601L334.131 57.221C333.831 56.901 335.261 56.131 335.711 56.131C338.151 56.181 342.581 59.591 341.131 62.641M326.001 54.321C322.951 53.301 319.761 52.351 316.601 51.771L305.881 49.801C302.511 49.191 298.391 49.161 296.181 52.351C295.071 53.961 294.371 56.351 293.581 58.271C292.151 61.801 292.181 65.481 292.041 69.241C291.771 76.591 293.241 83.281 296.401 89.901C304.221 106.311 316.821 97.661 321.921 105.341C323.601 107.871 323.341 111.241 323.601 114.321L324.031 119.051L325.611 128.931L325.811 132.301C326.041 136.501 326.581 140.231 323.961 143.941C321.701 147.151 318.171 148.711 314.221 147.081C306.921 144.081 300.181 137.071 297.621 129.401C297.261 125.221 296.171 121.371 293.191 118.321C290.971 116.061 285.681 115.311 287.091 113.421C288.851 111.091 294.031 114.641 295.611 116.041C298.861 118.931 299.751 123.281 300.601 127.361C301.961 133.901 310.071 143.101 317.191 144.361C322.731 143.031 322.711 138.441 322.391 134.031L321.841 125.961L320.641 115.561C320.301 112.531 320.281 109.181 318.241 106.741C316.631 104.781 313.881 104.591 311.481 104.431C300.941 103.681 294.411 95.791 291.361 86.461L289.421 80.541C289.041 79.411 288.741 77.111 288.741 75.751V62.801C288.721 58.051 290.551 58.351 291.361 54.321C291.771 52.281 292.561 49.981 294.321 48.621C298.591 45.341 304.181 45.661 309.361 46.811L324.571 50.151C327.101 50.711 329.381 51.891 330.171 54.961C328.791 55.281 327.481 54.821 326.031 54.331M344.541 60.241C343.891 59.111 343.701 57.981 344.001 56.551C338.331 54.081 332.601 51.941 327.411 48.701C325.491 47.501 323.811 46.731 321.621 46.191L313.281 44.161C306.091 42.401 299.581 41.201 292.661 45.361C290.371 46.741 289.311 49.561 288.541 51.891L286.081 59.351C285.221 61.971 285.261 64.731 285.171 67.581C284.871 78.251 287.181 88.811 293.401 97.631C294.801 99.601 296.911 101.381 298.731 102.971C306.751 110.091 316.551 104.761 316.931 112.281C317.091 115.741 317.831 119.061 318.191 122.551L318.661 127.251L318.931 133.191C319.021 135.561 319.581 137.961 318.371 140.151C317.991 140.811 316.241 141.211 315.631 140.781C313.011 138.921 310.561 137.181 308.461 135.061C301.001 127.511 306.221 120.571 296.701 112.721C294.731 111.111 292.161 109.811 289.441 109.221C286.321 108.561 282.501 112.231 283.451 115.231C284.241 117.721 287.401 118.621 289.351 119.661C296.751 123.591 291.071 133.811 303.751 144.011C307.011 146.631 309.951 149.591 314.261 150.631C315.211 150.861 316.951 151.261 317.881 151.201C321.591 150.971 324.681 148.871 326.781 145.841C330.291 140.751 329.611 132.121 328.451 126.131C327.391 120.661 326.931 115.641 326.841 110.031C326.801 108.071 325.491 105.491 324.691 103.881C322.771 99.991 319.471 98.551 315.381 98.281L311.521 98.051C306.051 97.691 302.271 94.211 300.031 89.711C298.741 87.131 297.591 84.801 296.861 82.051C294.831 74.481 294.221 66.931 296.841 59.421C297.431 57.721 297.791 55.941 298.791 54.361C300.781 51.241 311.931 54.091 315.401 54.931L322.341 56.651C324.581 57.191 326.641 58.001 328.781 58.801C332.461 60.181 334.161 61.271 336.401 64.541C337.781 66.571 340.651 67.361 342.591 66.191C344.511 65.041 345.871 62.461 344.581 60.241" fill="#90BEFB"/>
<path d="M598.51 43.9616C598.02 45.5016 595.91 53.7016 593.6 51.9416C591.59 50.3816 593.82 49.3616 595.09 43.9616C595.38 42.7616 595.43 41.4016 594.77 40.4816C593.17 38.3316 587.4 38.9916 585.48 39.6616C581.77 40.9316 578.85 43.8716 576.6 47.1216C571.88 53.9016 568.4 61.2116 564.48 68.5016C562.94 71.3316 561.74 74.0416 560.43 76.9616L558.01 82.2516C554.98 88.9616 551.97 95.4116 550.64 102.752C550.24 104.972 549.71 107.132 549.12 109.312L546.75 118.082C546.14 120.362 545.64 122.492 544.69 124.732C544.4 125.432 544.19 126.542 544.46 127.112C545.19 128.712 549.14 128.782 550.66 128.722C553.37 128.612 555.74 128.742 558.46 128.812L563.53 128.952L576.05 131.052C576.61 131.142 577.5 131.842 577.75 132.272C578.05 132.792 577.53 134.552 576.96 134.422C576.92 134.402 576.87 134.372 576.78 134.352C576.69 134.332 576.58 134.302 576.44 134.262C576.15 134.212 575.79 134.132 575.35 134.052C574.56 133.912 573.56 133.742 572.46 133.582C572.28 133.552 572.08 133.512 571.9 133.492C571.27 133.382 570.63 133.292 569.98 133.202C569.69 133.162 569.39 133.112 569.1 133.072C568.76 133.022 568.44 132.962 568.11 132.932C567.86 132.892 567.61 132.862 567.36 132.822C566.82 132.732 566.32 132.662 565.84 132.612C565.5 132.562 565.18 132.522 564.87 132.472C564.53 132.422 564.21 132.382 563.92 132.342C563.85 132.342 563.76 132.322 563.67 132.302C563.58 132.282 563.49 132.262 563.42 132.262C563.26 132.242 563.12 132.222 562.97 132.192C562.43 132.102 562.13 132.062 562.13 132.052L545.04 131.942C543.73 131.942 541.54 133.212 540.32 133.052C533.42 132.082 537.58 132.602 530.39 133.102C527.74 133.282 524.99 133.232 522.25 133.192C521.62 133.192 520.78 131.842 520.85 131.272C520.92 130.702 522.11 129.872 522.79 129.852L534.25 129.692C535.83 129.672 538.07 128.542 538.39 127.042L539.7 120.932L549.47 93.4616C550.49 90.5716 550.65 87.4316 551.28 84.4616L553.07 75.8516C553.46 73.9516 553.55 72.0816 553.79 70.0916L554.76 61.7316C555.35 56.7316 555.06 51.6716 554.8 46.6116C554.55 41.8816 552.49 39.0616 554.53 37.2916C555.01 36.8616 556.63 37.4016 556.81 38.2216C558.8 48.3916 558.57 53.5016 558.3 64.0116C558.25 65.9116 556.58 67.7416 558.39 69.9616C560.08 71.9916 563.18 64.2616 563.66 63.3116L565.71 59.3316L568.13 54.8816C570.46 50.5816 573.58 45.7016 576.86 42.1116C579.69 39.0116 583.68 36.9616 587.87 36.0116C591.39 35.2016 595.55 36.0116 598.81 37.4616C599.9 39.3216 599.11 42.0716 598.52 43.9316M598.78 33.3916L593.29 32.8016C581.51 31.5416 573.58 39.1116 568.15 48.5316L563.33 56.9016C563.17 57.1916 562.24 57.9216 562.02 57.6916C561.8 57.4616 561.41 56.7216 561.41 56.3816L561.34 44.3816C561.34 43.2916 560.93 41.7616 560.78 40.6516C560.44 37.8016 559.31 34.9816 556.91 33.3916C555.13 32.2116 553.47 33.5516 552.19 34.7416C550.93 35.9216 550.2 37.3216 550.63 39.2816C551.65 43.9416 552.46 52.4616 552.08 56.8316L551.61 62.3916L550.93 68.1516C550.55 71.3616 549.82 74.3916 549.17 77.6216L546.59 90.4816C546.05 93.1916 545.28 95.5416 544.37 98.1216L542.43 103.552L540.3 109.112L538.15 114.692L536.29 119.802C535.7 121.452 535.77 124.142 534.8 125.502C533.38 127.512 530.64 126.272 528.74 126.402L523.18 126.742C520.22 126.942 517.94 127.762 517.16 130.612C516.6 132.622 518.27 136.082 520.94 136.172C524.6 136.282 528.1 136.282 531.74 136.152C533.91 136.082 536.24 135.402 538.32 136.082C544.04 137.942 542.1 134.812 548.47 134.902L559.7 135.042C562.69 135.082 571.8 136.832 575.05 137.592C577.69 138.222 579.53 138.242 581.2 135.642C581.65 134.962 582.17 133.672 582.11 132.642C582 131.062 578.26 128.462 576.53 128.012C568.12 125.802 559.78 125.232 551.05 125.552C550.33 125.592 549.22 125.302 548.84 124.922C548.46 124.532 548.46 123.222 548.68 122.712C550.24 119.142 551.93 112.652 552.8 108.722C553.63 105.042 553.88 101.212 555.04 97.6616C556.47 93.2716 558.66 89.3216 560.47 85.0716C562.62 80.0716 564.72 75.2416 567.19 70.3716L568.64 67.5016C571.53 61.7816 574.43 56.3616 577.84 50.9116C580.42 46.7916 583.67 43.2716 588.51 41.7516C589.19 41.5416 590.75 41.8616 591.13 42.3616C591.47 42.8116 591.63 44.1216 591.42 44.7616L589.84 49.6216C589.39 51.0016 589.93 53.1216 590.77 54.1016C591.5 54.9816 593.44 56.3416 594.66 55.7916C596.9 54.7716 597.73 52.2816 598.84 50.3716C600.83 46.9416 602.45 43.6816 602.71 39.5716C602.85 37.1716 601.45 33.6516 598.76 33.3816" fill="#90BEFB"/>
<path d="M859.941 53.0708C859.761 53.9008 858.741 54.4508 857.861 54.6708L852.751 56.0008C850.371 56.6108 847.801 56.7708 845.111 57.1108C843.571 57.3108 836.751 55.0508 835.621 57.8608C833.811 62.3408 832.431 66.9308 830.901 71.5808L829.001 77.3908L826.901 83.3808L824.941 89.6608L822.231 98.1408L820.761 102.231L818.271 110.031L816.241 117.721C815.151 121.931 814.481 126.081 813.861 130.221C813.031 135.691 813.341 140.531 815.921 145.521C816.241 146.161 815.941 147.911 815.311 148.211C814.561 148.601 813.001 147.981 812.511 147.041C808.391 138.921 810.811 130.651 812.371 121.951C813.631 114.921 814.951 108.291 817.461 101.621C818.771 98.1408 820.151 94.7508 821.171 91.1808C823.181 84.1708 825.151 77.4408 827.681 70.5908C829.061 66.9008 830.231 63.2008 831.071 59.4008C831.451 57.6808 829.401 56.8408 828.171 56.8208C826.121 56.7808 824.441 56.6608 822.521 56.4808L817.791 56.0808L812.571 55.6308C808.571 55.2908 804.251 56.3808 803.551 53.5908C805.411 51.3808 808.191 52.2408 810.581 52.3508L817.631 52.6908C821.811 52.8908 825.681 53.4608 829.861 54.2008C833.181 54.7708 834.381 48.8908 834.831 47.5308C835.711 44.8408 836.871 42.2808 837.991 39.6008C841.081 32.3208 844.411 25.3308 849.021 18.8708C849.901 17.6208 851.261 15.7908 852.981 16.6608C854.131 17.2508 853.271 19.3508 852.571 20.1708C849.771 23.3808 846.261 29.3308 844.501 33.2208L840.361 42.4008C839.191 44.9808 835.881 52.0808 837.711 53.8008C839.541 55.5008 841.261 54.0708 843.991 53.8408L847.991 53.4808C856.521 52.7308 853.671 49.8208 856.351 49.4308C857.841 49.2108 860.301 51.5608 859.951 53.0508M856.211 45.6608C853.721 45.7008 852.821 48.2608 851.141 49.3008C849.611 50.2308 842.851 50.8808 842.141 50.5008C841.711 50.2808 841.051 49.2408 841.151 48.7808L847.531 34.4208C849.221 30.6408 851.671 27.2708 853.901 23.7108C855.011 21.9408 857.111 20.4508 857.201 18.0308C857.291 15.7908 854.641 12.7008 852.271 12.7808C849.291 12.8708 847.211 15.5608 845.741 17.6908C840.061 25.8708 833.651 40.2108 830.591 49.8608C829.191 50.7008 827.131 50.2208 825.531 50.0608L820.811 49.6308L814.341 49.2008C810.921 48.9908 807.471 49.0608 804.031 49.1508C801.731 49.2208 800.161 51.7908 800.071 53.5608C799.981 55.8208 801.361 57.6808 803.691 58.5508C805.631 59.2708 807.961 58.8008 810.041 58.8408C811.711 58.8808 813.501 58.9308 815.201 59.0708L820.381 59.5008L825.901 59.9508C827.591 60.0908 827.121 62.1708 826.781 63.1908L822.231 76.6608L820.221 83.2208L817.391 92.0308L813.321 103.861C811.991 107.731 811.131 111.541 810.341 115.531L806.921 132.781C806.511 134.821 806.741 136.851 806.871 138.841C807.171 143.791 808.451 148.771 812.571 151.681C815.991 154.101 819.381 148.831 819.491 148.241C820.671 142.071 811.941 144.261 821.031 112.951C822.251 108.771 823.291 104.721 824.671 100.601L830.521 83.1908L832.801 76.0008L835.331 68.2708L837.091 62.7808C838.701 57.7908 841.211 60.8808 847.241 60.0708C851.431 59.5008 855.581 59.2308 859.491 57.6508C861.321 56.9008 863.631 54.8708 863.561 52.7708C863.441 49.1508 859.781 45.6308 856.231 45.6708" fill="#90BEFB"/>
<path d="M887.68 133.741C886.62 137.761 887.72 140.721 884.63 140.631C883.34 140.591 882.84 139.391 883.12 137.921L884.91 128.951L886.51 120.681C887.66 114.651 885.09 108.561 882.67 103.231C877.79 92.5611 877.38 85.5911 877.86 73.9511L878.15 67.1511L878.53 62.3411L879 53.7511C879.3 48.3011 878.16 47.0811 878.95 45.4711C879.22 44.9511 880.9 44.5211 881.37 44.9311C883.11 46.4711 881.46 53.6111 882.03 58.4511C882.3 60.7511 882.12 62.7011 882.03 65.0111L881.76 71.7511L881.33 75.6811C881.06 78.2111 881.24 80.4911 881.33 83.0511L881.53 88.9711C881.8 97.2711 890.42 108.611 890.89 116.011C891.27 122.201 889.21 127.901 887.68 133.731M884.56 86.4211C884.4 82.9911 884.4 79.6411 884.65 76.3211L885.15 69.9011C885.85 61.0211 884.25 55.5211 885.1 48.2611C885.46 45.0011 884.85 41.0711 880.83 40.7511C877.23 40.4511 874.72 44.2511 875.47 47.8011C875.99 50.1911 875.7 52.3411 875.59 54.7211L875.3 61.0511L874.92 64.9911L874.42 73.5611C873.94 81.5611 874.33 91.2411 877.34 98.6811L879.96 105.141C881.13 107.991 882.56 110.901 883.01 113.981C883.69 118.731 882.79 123.341 881.74 127.951C880.97 131.291 880.38 134.301 879.8 137.741C879.28 140.881 881.72 144.661 885.52 144.321C888.43 144.071 889.82 141.251 890.16 138.961C891.34 131.091 892.46 130.711 893.69 122.191C896.06 105.981 885.21 100.761 884.54 86.4211" fill="#90BEFB"/>
<path d="M473.33 89.1099L468.79 94.5099L466.69 97.8099C464.14 96.8099 472.82 85.2199 474.51 86.8899C474.58 87.7199 473.92 88.4199 473.33 89.1099ZM464.62 102.81C464.19 103.89 463.87 105.63 463.36 106.66C460.74 112.15 462 112.24 460.13 113.71C458.75 111.06 462.26 104.22 463.61 101.8L465.44 98.4799C466.64 100.42 465.21 101.3 464.62 102.8M463 150.27C464.7 155.45 466.98 159.97 471.21 163.59C472 164.25 472.7 165.31 473.36 166.46C470.53 166.96 468.97 165.46 467.23 164.09C458.89 157.62 457.83 150.3 457.05 140.22C456.37 131.15 457.87 130.97 457.71 123.78C457.66 121.18 457.89 119.01 458.64 116.41C458.8 116.52 459.45 117.22 459.45 117.54L459.56 130.97L459.95 137.12C460.24 141.6 461.62 146.03 463 150.27ZM504.59 141.2C502.62 140.37 502.87 133.88 502.82 131.5L501.35 134.28C500.44 132.56 500.27 131.43 500.31 129.8C500.35 127.07 500.17 124.53 500.08 121.87L499.72 110.57L498.14 103.16C496.99 97.7799 496.35 94.4999 494.3 89.5099C492.47 85.0799 491.75 83.1299 488.2 79.5899C487.52 78.9099 486.32 78.0099 485.49 78.0099C484.52 77.9899 483.57 78.8699 482.73 79.6999C480.9 81.5499 477.87 79.7199 473.05 83.2999C471.63 84.3399 469.77 85.6099 468.66 86.9799C464.52 92.0599 461.94 97.8999 459.05 103.67C458.15 105.48 457.54 107.06 457.17 109.12C456.6 112.29 455.68 115.43 455.32 118.66L454.44 126.39C453.99 130.44 453.47 137.36 454.03 141.17L454.96 147.39C455.62 151.93 455.93 155.55 458.99 159.82C461.57 163.42 464.6 166.33 468.55 168.39C469.77 169.04 471.13 169.7 472.5 169.97L478.97 171.28C481.57 171.8 484.58 170.67 487.06 169.88C491.24 168.57 494.54 164.95 496.55 161.15C498.23 158.01 499.97 155.9 498.41 152.88C498.18 152.43 496.55 152.38 496.31 152.84C495.34 154.67 494.52 157.29 493.53 158.92C491.32 162.58 488.08 165.07 484.08 165.45C479.6 165.86 475.92 164.45 473.05 161.27C470.74 158.72 468.37 156.14 467.29 152.84L465.03 146.01C464.22 143.53 463.86 141.04 463.52 138.46L462.69 132.38C462.44 130.39 462.67 128.24 462.56 126.3C462.33 121.57 463.71 114.86 465.22 110.22L466.89 105.02C468.02 101.58 478.04 83.4099 483.82 86.0599C488.75 88.3399 491.75 92.6999 492.02 98.1299C492.11 99.9799 492.76 101.79 492.83 103.71L493.15 111.19C493.47 119.19 498.03 131 496.68 142.89C496.52 144.33 496.21 145.17 497.52 146.1C498.29 146.62 499.92 146.5 500.1 145.11C500.37 142.92 500.62 140.97 501.28 138.87C503.22 140.36 503.56 142.1 503.22 143.91L501.23 154.54C500.96 156.03 500.06 158 499.56 159.63C497.95 164.88 494.13 170.57 488.44 171.97C476.05 175.02 467.12 172.97 458.49 163.29C456.61 161.17 455.75 158.2 454.69 155.54C453.92 153.64 453.59 151.63 453.16 149.6C451.83 143.34 451.44 138.43 451.78 131.88L452.19 124.13L453.3 116.89C453.6 114.81 453.77 113.03 454.47 111.1C455.03 109.56 455.35 107.93 455.83 106.35L457.18 102.12C459.3 95.4499 463.51 89.9999 468.01 84.5999C470.57 81.5299 474.3 79.7899 477.42 77.3199C480.34 75.0199 483.61 74.2299 487.03 76.0099C489.41 77.2499 491.14 78.9699 492.59 81.2799C493.24 82.2799 494.28 83.4899 494.74 84.6499C495.89 87.4799 496.95 90.1399 497.91 93.0199C500.03 99.2799 499.56 100.07 501.46 106.24C502.57 109.86 502.73 113.84 503.04 117.61L503.42 122.47L503.9 126.79L506.43 117.63L505.84 113.9L505.12 108.27C504.67 104.74 504.04 101.35 502.93 97.9899L500.62 90.8899C498.54 84.5199 495.56 78.2699 490.27 74.2799C484.68 70.0799 478.76 71.4699 473.97 75.5399C469.54 79.3199 464.66 82.1399 461.65 87.4099C460.39 89.6299 458.41 91.7499 457.31 94.0999C453.01 103.37 452.97 103.19 450.5 113.18C449.19 118.44 448.42 123.46 448.67 128.96C448.69 129.16 447.97 134.48 448.37 140.01L448.71 144.83C449.03 149.33 450.25 153.74 451.92 157.83C456.19 168.3 464.54 174.79 475.77 176.55H482.66C486.68 175.72 490.82 175.35 494.28 172.69C500.56 167.88 504.23 159.38 505.18 151.71L505.84 146.49C506.09 144.45 505.93 142.02 508.05 140.91C509.43 140.19 510.69 139.06 510.92 137.38C509.54 138.31 506.47 141.95 504.57 141.16" fill="#90BEFB"/>
<path d="M491.26 147.76C490.69 150.56 490.27 153.53 488.28 155.72C486.34 157.85 483.83 160.29 481.02 159.75C474.28 158.49 470.21 144.65 468.88 138.81C468.32 136.28 468.16 133.56 467.79 130.88C467.41 128.26 467.74 125.61 467.97 122.92C468.44 117.54 470.01 112.66 472.24 107.8L474.14 103.68C476.04 99.5403 478.05 95.2503 481.94 92.4403C486.62 92.8503 487.59 104.27 487.66 107.63L487.95 120.67C487.99 122.64 488.97 124.65 489.35 126.52C490.55 132.58 492.42 142.08 491.27 147.77M492.45 125.99C489.56 116.16 492.79 116.02 491.28 107.47C489.94 99.7603 490.74 95.6203 485.36 90.5403C484.37 89.6103 483.46 88.7303 482.03 88.9103C479.63 89.2203 476.09 93.7703 474.86 95.7203C471.51 101.05 469.05 106.46 466.9 112.32C465.74 115.53 465.61 118.99 464.95 122.43C464.43 125.12 463.78 127.68 464.45 130.39C464.86 132 464.95 133.65 465.2 135.29L466.17 141.51C466.44 143.32 467.19 144.97 467.8 146.64C470.4 153.9 472.1 158.29 478.94 162.89C481.24 164.43 482.9 163.57 484.89 162.53C488.06 160.88 490.59 158.85 492.31 155.64C493.46 153.51 494.36 151.36 494.57 148.84C495.14 142.08 494.37 132.58 492.45 125.98" fill="#90BEFB"/>
<path d="M515.24 33.9301C506.87 30.3401 499.69 28.2801 490.51 26.1501C488.25 25.6101 486.05 25.0601 483.73 24.8101L472.2 23.5001C469.24 23.1801 466.16 23.2901 463.09 23.1201C450.45 22.4401 437.5 22.0101 426.73 29.2001C421.91 32.4101 418.52 36.4401 415.23 41.0001C412.07 45.3801 408.72 49.2301 405.24 53.3901C404.29 54.5401 404.77 56.9401 405.62 57.8401C406.82 59.0901 408.52 59.7901 410.34 59.2601C415.04 57.8601 415.47 58.9401 421.57 58.1701L430.18 57.0901C430.68 57.0201 431.67 57.2001 432.04 57.4801C432.51 57.8401 432.02 58.9901 431.79 59.7001C430.77 62.7101 430.01 65.9901 429.82 69.2001L429.44 75.2601C429.24 78.3401 429.55 81.5701 429.1 84.5701C428.87 86.1101 426.37 84.7001 425.73 84.0001C423.63 81.6901 420.49 80.2501 417.36 79.3201L408.84 76.7601C403.41 75.1301 401.45 81.0601 401.45 81.3201L401.29 109.17L400.93 113.47L400.63 118.2L400.22 123.79L399.79 130.21C399.43 135.54 399.63 140.79 399.77 146.06C399.84 148.37 399.61 150.22 396.81 150.67C393.31 151.24 391.86 152.63 390.32 151.85C389.85 151.64 389.39 150.56 389.37 150.02L389.12 141.16L388.71 124C388.51 115.95 388.28 107.97 388.67 99.9701L389.12 91.3301C389.5 83.7301 392.08 69.6901 394.25 62.1901C394.45 61.5601 394.64 59.9501 395.09 59.5001L398.89 55.6101C399.86 54.6201 399.84 52.8701 399.16 51.8301C397.94 50.0001 398.51 48.7501 399.32 47.0601C402.84 39.7401 407.93 30.9001 413.38 25.0601C415.5 22.8001 417.5 20.4901 419.96 18.6601C430.61 10.7201 432.24 10.7201 445.08 8.94011C448.58 8.46011 452.04 8.80011 455.59 9.14011L461.19 9.71011C465.42 10.1401 469.6 10.7701 473.69 11.7201C485.24 14.4101 489.36 15.4901 500.28 20.3801C504.92 22.4401 514.97 28.7501 516.36 32.9501C516.49 33.2701 515.64 34.1001 515.25 33.9401M521.71 34.6901L519.65 31.8701C518.84 30.7801 518.02 29.4301 517.05 28.4801L513.34 24.9101C511.4 23.0301 506.01 19.5101 503.53 18.3801L497.61 15.6501C496.34 15.0601 495.12 14.4701 493.77 13.9301L490.15 12.5101C488.48 11.8501 486.33 11.1501 484.66 10.8101L473.45 8.57011L468.95 7.73011C465.08 7.01011 461.37 6.30011 457.49 5.94011L453.4 5.56011C449.98 5.24011 443.79 5.56011 440.51 6.15011C436.94 6.80011 429.5 8.72011 426.59 10.3501C416.85 15.8001 409.11 24.0001 403.28 33.3901C401.29 36.6001 399.53 39.3801 397.95 42.7301C395.89 47.1101 393.74 48.4501 395.62 52.7401C396.41 54.5301 392.89 53.8501 391.48 59.4101C390.35 63.8201 389.22 68.0501 388.4 72.5401L386.14 84.7901C385.41 88.7001 385.93 92.9101 385.71 96.9601C385.21 106.02 385.6 114.91 385.67 124.04L385.9 152.97C388.75 157.15 389.88 155.01 394.09 154.78C397.48 154.6 401.78 153.54 402.82 149.74C403.46 147.41 402.86 144.36 403.18 141.87C403.5 139.27 402.7 133.12 403.13 129.8L403.4 127.67C403.15 128.8 404.69 109.56 404.69 112.39L404.99 95.2301C405.06 91.7201 405.35 88.3101 405.08 84.8101C404.97 83.6401 404.72 82.1601 405.35 81.3101C407.45 78.6001 411.25 80.7901 414.87 81.8301C419.69 83.2101 425.38 86.8001 428.8 90.4501C429.39 91.0801 430.66 91.3801 431.51 90.9501C432.07 90.6801 432.28 89.4401 432.32 88.6401L432.61 83.8001L432.9 69.4401C432.92 68.4201 435.11 58.7001 435.72 57.6101C436.44 56.3201 437.51 54.2901 435.88 53.3201C433.71 52.0101 431.25 53.5401 429.07 53.9101C425.91 54.4301 418.22 55.4201 415.32 54.8801C411.34 54.1601 412.58 56.3901 409.6 55.8501C409.21 55.7801 408.56 54.6501 408.83 54.3101L419.55 40.7001C423.69 35.4301 428.46 31.0301 434.65 28.7001C436.87 27.8601 439.54 26.8701 441.93 26.8701L474.71 26.8901C477.26 26.8901 479.82 27.6401 482.24 27.8801C486.4 28.2701 490.13 29.2101 494.07 30.3001L502.48 32.6501C504.6 33.2401 506.5 34.0101 508.56 34.7501L514.28 36.7601L518.58 38.2101C519.64 38.5701 521 38.6401 521.61 37.9101C522.4 36.9801 522.33 35.5401 521.7 34.7001" fill="#90BEFB"/>
<path d="M384.91 60.5598C381.81 68.9698 385.77 74.6198 378.19 75.4098L372.86 75.9498C370.37 76.1998 367.88 76.3398 365.54 77.2898C364.57 77.6898 363.57 77.9198 362.83 77.3798C362.06 76.8398 362.26 75.5498 362.4 74.5798L363.67 66.7098C364.15 63.6598 364.44 60.8298 364.42 57.6398C364.42 57.1898 364.76 56.2198 365.01 55.8598C365.33 55.4498 366.66 55.4798 367.16 55.6998C371.81 57.6598 378.22 57.9598 383.39 57.6898C384.57 57.6198 385.29 59.4798 384.9 60.5598M388.58 55.7698C387.07 53.8298 382.12 55.0198 377.84 54.4998C373.66 53.9798 369.72 53.2098 365.79 51.9898C364.95 51.7398 363.76 51.1498 363.19 51.4698C362.58 51.8098 361.81 53.0498 361.74 53.7098L361.27 58.5498C360.8 63.5198 360.23 68.3998 359.26 73.3098C358.74 75.9298 357.22 78.6398 359.39 81.2498C360.29 82.3398 361.85 81.3198 363.03 80.7998C365.65 79.6698 375.76 79.6198 382.97 77.5398C387.08 76.3598 385.28 70.7998 386.38 66.7998L388.71 58.3198C388.89 57.6598 388.96 56.2598 388.59 55.7698" fill="#90BEFB"/>
<path d="M1047.67 123.321C1047.47 123.791 1045.8 124.021 1045.39 123.591C1042.74 120.831 1040.35 117.051 1038.65 113.301C1036.12 107.761 1035.26 101.991 1034.36 95.9611C1033.91 93.0011 1033.09 90.1511 1033.03 87.0811L1032.73 71.0111L1032.41 65.7711C1032.37 64.9311 1031.67 63.6611 1030.97 63.5811C1030.07 63.5111 1028.98 64.1011 1028.53 64.8411L1025 70.6111C1022.99 73.8911 1021.2 77.1211 1019.62 80.4611L1014.94 90.3611C1014.13 92.0611 1013.45 93.6811 1012.59 95.3111L1010.37 99.5411L1007.2 105.391L1002.38 114.251L998.13 122.551C996.23 126.261 994.88 130.191 993.43 134.171C991.94 138.281 991.24 145.271 989.61 146.081C989.2 146.281 988.01 145.441 987.91 144.951C987.55 143.321 987.91 141.041 988.03 139.271L988.44 133.661L988.89 126.381C989.09 123.491 989 120.641 989.36 117.791L990.89 105.791L992.7 94.8311C993.13 92.1811 993.6 89.6511 994.26 87.0311L995.98 80.1311L1000.18 63.7011C1000.81 61.2411 1001.29 58.5511 1001.42 55.9911L1001.74 49.9311L1001.53 46.0411C1001.46 45.0411 1001.19 43.8211 1000.38 43.5511C999.3 43.2111 998.27 43.9411 997.78 44.8911C996.58 47.2611 995.39 49.3211 994.03 51.5611L981.55 72.1111C977.75 78.3511 975.27 84.9111 972.85 91.8211L970.84 97.5411C969.33 101.841 968.76 93.7711 969.41 91.8411C970.33 89.0211 971.1 86.6611 972.1 84.0611C973.93 79.2911 979.13 69.5911 982 65.2111L985.55 59.7811L991.83 49.3111L996.58 41.1711C997.66 39.3411 998.01 36.7411 1000.11 35.5711C1003.07 33.9611 1004.74 43.0311 1004.84 44.7511L1005.22 50.0011C1005.29 51.1711 1005.02 52.9111 1004.93 54.2511C1004.57 59.2011 1003.44 63.8411 1002.19 68.5811L1000.13 76.4211C999.45 79.0011 998.5 81.5711 998.03 84.2011L993.8 107.911C993.57 109.241 993.6 110.891 993.48 112.211L992.91 117.791C992.8 118.791 992.82 120.751 993.91 121.041C995.13 121.361 996.42 119.751 996.76 118.671C997.73 115.531 999.25 113.041 1000.81 110.241L1006.19 100.571C1010.89 92.1611 1014.91 83.7711 1018.9 75.0211C1019.67 73.3311 1025.11 64.2311 1026.36 62.3411C1027.69 60.3711 1028.98 57.8411 1030.93 56.6011C1032.51 55.6111 1033.62 58.0411 1033.89 59.1611L1035.25 65.1111C1035.77 67.3911 1035.3 70.2211 1035.59 72.6211C1036.33 78.9111 1035.45 79.6711 1036.54 86.9811L1037.67 94.4811L1039.89 105.941C1040.34 108.291 1040.9 110.351 1041.99 112.481C1043.64 115.691 1045.15 118.511 1047.39 121.391C1047.77 121.891 1047.89 122.841 1047.68 123.311M923.46 75.0711C922.08 72.4211 925.59 65.5811 926.92 63.1611L928.75 59.8611C929.95 61.7811 928.53 62.6811 927.93 64.1611C927.5 65.2411 927.19 66.9811 926.69 68.0311C924.07 73.5011 925.31 73.5911 923.46 75.0611M921.04 85.1611C920.97 82.5411 921.2 80.3911 921.95 77.7911C922.13 77.8811 922.76 78.5811 922.76 78.9011L922.89 92.3511L923.27 98.4811C923.56 102.981 924.94 107.391 926.32 111.621C928.02 116.801 930.3 121.321 934.53 124.941C935.32 125.621 936.02 126.681 936.68 127.831C933.86 128.311 932.29 126.811 930.55 125.451C922.23 118.981 921.15 111.661 920.38 101.581C919.68 92.5111 921.21 92.3311 921.04 85.1511M937.84 48.2411C937.89 49.0611 937.23 49.7611 936.64 50.4611L932.1 55.8611L930 59.1611C927.47 58.1611 936.13 46.5711 937.84 48.2411ZM936.35 44.6711C934.95 45.7111 933.09 46.9811 931.97 48.3511C927.81 53.4211 925.23 59.2711 922.36 65.0411C921.45 66.8511 920.85 68.4311 920.48 70.4911C919.91 73.6611 918.99 76.8011 918.62 80.0311L917.74 87.7811C917.29 91.8111 916.77 98.7511 917.35 102.561L918.26 108.761C918.94 113.321 919.25 116.921 922.29 121.191C924.87 124.791 927.9 127.701 931.85 129.761C933.07 130.411 934.45 131.091 935.79 131.361L942.64 132.691C945.1 133.171 948.04 131.951 950.35 131.261C954.46 130.021 957.88 126.291 959.84 122.541C960.97 120.351 962.53 118.311 962.33 115.711C962.28 114.991 961.38 113.881 960.81 113.811C958.08 113.491 959.38 119.571 953.21 124.461C948.75 127.991 941.84 127.701 937.77 123.941C934.79 121.161 932 118.271 930.76 114.561L928.36 107.391C927.53 104.931 927.18 102.441 926.84 99.8611L926.03 93.7611C925.76 91.7711 925.99 89.6211 925.9 87.7011C925.74 84.6211 926.12 82.0911 926.76 79.0011C927.3 76.4911 927.32 74.0511 928.55 71.6111C929.27 70.1811 929.45 68.2011 930.09 66.7011C933.25 59.3711 937.51 52.7511 943.54 47.5711C946.05 45.4411 954.86 50.2611 955.32 59.5111C955.41 61.3611 956.06 63.1711 956.13 65.0911L956.45 72.5711C956.68 78.1111 959.39 86.8811 960 95.6811C960.22 98.6411 960.34 101.711 959.93 104.631C959.75 105.901 959.82 106.671 960.81 107.481C961.42 107.961 963.14 107.861 963.3 106.821L964.41 100.331C966.96 101.671 966.78 104.111 966.35 106.391L964.56 115.881C964.24 117.551 961.94 123.721 960.83 125.711C958.84 129.311 955.81 132.361 951.77 133.371C939.31 136.441 930.47 134.361 921.81 124.691C919.25 121.841 917.31 115.041 916.48 111.031C915.17 104.681 914.76 99.9111 915.12 93.2911L915.53 85.5411L916.62 78.3111C916.94 76.2111 917.1 74.4411 917.78 72.5011C918.34 70.9811 918.66 69.3311 919.16 67.7511L920.49 63.5411C922.61 56.8511 926.84 51.4011 931.34 46.0211C933.9 42.9511 937.63 41.2011 940.75 38.7411C943.67 36.4311 946.94 35.6411 950.36 37.4111C952.73 38.6511 954.45 40.3711 955.9 42.6811C956.55 43.7011 957.59 44.9011 958.05 46.0511C959.2 48.8811 960.26 51.5411 961.24 54.4411C963.32 60.6111 962.92 61.6311 964.88 67.9811C965.65 70.4911 965.9 73.4111 966.12 76.1011L966.52 80.8511L966.93 86.1011C967.2 89.2611 966.16 92.4811 964.85 95.6411C963.69 94.3711 963.58 92.8211 963.59 91.1711C963.63 88.4511 963.46 85.8811 963.38 83.2311L963 71.9311L961.42 64.5211C960.29 59.1611 959.64 55.8611 957.6 50.8911C955.77 46.4411 955.04 44.5111 951.49 40.9611C950.81 40.2811 949.61 39.3811 948.78 39.3811C947.81 39.3811 946.86 40.2611 946.04 41.0811C944.19 42.9111 941.16 41.0811 936.34 44.6711M1049.39 118.531C1045.21 113.221 1042.99 106.341 1041.89 99.7211L1040.33 90.3111C1039.68 86.4411 1039.24 82.6011 1038.99 78.7311L1038.58 72.7111L1038.35 65.0311L1037.99 61.1411C1037.74 58.3411 1036.63 55.7111 1034.46 53.9911C1029.33 49.8811 1024.51 58.8011 1022.16 62.8311L1018.32 69.3611C1015.25 74.6011 1014.41 77.8211 1011.74 82.9711L1007.63 90.9111L1004.81 96.2711L999 107.171C998.78 107.581 998.09 107.981 997.85 107.941C996.42 107.731 997.51 103.191 997.65 102.421L1000.52 88.0711C1001.2 84.7011 1002.12 81.5111 1003.03 78.1711L1005.27 70.1011C1006.56 65.4611 1007.13 60.7411 1007.91 55.9311C1008.86 49.9911 1008.41 44.3311 1006.87 38.5911C1006.26 36.3511 1005.49 34.2111 1003.73 32.6511C1001.58 30.7711 998.46 31.3611 996.81 33.7411C994.44 37.2011 992.72 41.0211 990.64 44.7111L986.62 51.8611C981.04 61.7611 976.15 66.7811 971.16 78.4711L970.69 79.5611C970.58 79.7911 969.61 79.3111 969.58 79.0611L969.11 74.8811L968.43 69.6311C967.98 66.1211 967.35 62.7111 966.26 59.3511L963.95 52.2511C961.85 45.8711 958.98 39.6611 953.51 35.6111C948.36 31.7911 941.57 32.3111 937.52 37.1511C932.44 40.1511 928.2 43.8611 925 48.7311C923.37 51.1911 921.65 53.5011 920.34 56.0811C915.52 65.5511 911.36 80.1811 911.98 90.6511C912.02 91.1511 911.59 92.3911 911.59 92.9311C911.54 95.5511 911.5 98.6711 911.68 101.361L912.02 106.181C912.34 110.681 913.56 115.111 915.23 119.181C920.43 131.931 932.39 139.341 946.16 137.721C950.25 137.241 954.25 136.551 957.58 134.041C963.91 129.271 967.48 120.751 968.5 113.061L969.13 108.221C969.34 106.571 969.13 104.011 970.62 102.891L973.54 100.671C975.21 94.2711 977.43 88.5711 979.92 82.4911C982.31 76.6811 985.77 71.5911 988.94 66.1511L996.24 53.6911C996.67 52.9411 997.55 52.4011 998.54 52.4711C998.45 55.5011 997.95 58.2611 997.34 61.1711C994.81 73.4211 990.08 86.7111 988.59 98.8111L986.67 114.451L985.31 127.631L984.81 134.481L984.56 140.451C984.45 143.071 983.79 145.651 985.37 148.121C985.98 149.111 988.1 150.311 989.31 150.251C994.01 150.021 994.58 141.911 995.71 138.521L998.36 130.451C999.44 127.191 1001.05 124.031 1002.61 121.031L1004.82 116.781L1009.82 107.221L1012.42 102.491C1013.95 99.7611 1015.33 97.0411 1016.65 94.1711L1019.34 88.2911L1022.44 81.9111C1022.82 81.1211 1027.94 70.3411 1028.77 71.2811C1028.88 71.3911 1029.36 71.9611 1029.36 72.2111L1029.5 84.5511C1029.52 85.7311 1029.77 87.0311 1029.91 88.0811L1031.35 98.1011C1031.8 101.241 1032.17 104.111 1033.02 107.191C1035.05 114.631 1038.45 121.361 1044.08 126.701C1045.19 127.781 1047.52 128.551 1048.74 127.651C1051.98 125.281 1051.55 121.281 1049.37 118.491" fill="#90BEFB"/>
<path d="M954.57 109.122C954 111.922 953.58 114.902 951.59 117.102C949.67 119.222 947.16 121.652 944.33 121.122C937.59 119.862 933.53 106.022 932.21 100.182C931.64 97.6516 931.47 94.9416 931.1 92.2516C930.72 89.6316 931.05 86.9816 931.28 84.2916C931.75 78.9116 933.32 74.0316 935.55 69.1716L937.45 65.0616C939.37 60.9016 941.38 56.6116 945.27 53.8016C949.93 54.2116 950.92 65.6316 950.99 68.9916L951.26 82.0316C951.3 84.0016 952.28 86.0116 952.66 87.8816C953.86 93.9616 955.75 103.462 954.58 109.132M955.75 87.3716C952.88 77.5416 956.09 77.4016 954.6 68.8516C953.26 61.1416 954.06 56.9816 948.68 51.9216C947.68 50.9716 946.78 50.0916 945.34 50.2716C942.94 50.5916 939.41 55.1316 938.17 57.1016C934.8 62.4116 932.36 67.8216 930.21 73.7016C929.03 76.9116 928.9 80.3716 928.24 83.8016C927.72 86.5116 927.09 89.0516 927.76 91.7616C928.16 93.3916 928.24 95.0216 928.49 96.6716L929.46 102.892C929.75 104.682 930.48 106.332 931.09 108.022C933.71 115.272 935.41 119.662 942.24 124.252C944.52 125.792 946.19 124.932 948.19 123.892C951.35 122.242 953.89 120.232 955.6 117.022C956.75 114.872 957.64 112.722 957.86 110.212C958.45 103.452 957.68 93.9516 955.74 87.3616" fill="#90BEFB"/>
<path d="M188.09 82.9807L187.87 91.5906L187.46 98.4906L187.1 104.891L186.85 109.231L186.51 122.721C186.44 125.521 186.21 128.261 186.33 131.081C186.53 136.191 183.26 139.581 179.05 142.141C176.41 143.751 174.17 144.091 171.16 144.091L166.93 144.071C162.98 144.071 159.42 143.661 155.83 141.491C153.5 140.091 152.64 136.921 151.51 134.421L149.21 129.361C145.46 121.171 143.87 110.751 146.81 102.011L148.26 97.7607L151.22 91.3906C152.73 88.1806 154.29 85.2607 156.44 82.4107C160.04 77.6207 165.57 71.0606 171.88 69.8606C173.71 69.5206 176.13 70.5807 177.92 71.0807C180.7 71.8507 187.53 73.8207 188.25 76.6907C188.77 78.7307 188.14 80.9006 188.09 82.9706M189.81 72.6306C185.31 69.5806 180.38 67.7007 174.98 66.8007C168.44 65.6907 163.24 70.0306 158.84 74.4906C157.41 75.9406 155.95 77.3607 154.75 79.0507C150.71 84.6407 147.42 90.6306 144.91 97.0706C141.11 106.861 140.68 117.711 144.8 127.391C147.04 132.641 148.83 138.131 152.08 142.861C153.66 145.151 157.1 145.421 159.47 146.191C165.21 148.091 172.63 148.251 178.3 145.871C182.24 144.201 186.03 142.001 187.98 137.891C188.54 136.671 189.52 134.501 189.56 133.191L189.92 120.921L190.35 107.221L190.69 98.2206L190.85 94.0206L191.14 83.8307L191.5 77.7506C191.61 76.1006 191.32 73.6306 189.81 72.6006" fill="#90BEFB"/>
<path d="M137.32 98.0215C136.71 100.171 137.3 102.411 135.54 104.261C134.79 103.611 133.78 102.301 133.78 101.211L133.85 81.3815C133.87 75.3015 144.34 71.9815 148.82 70.4815C150.22 70.0115 151.8 68.7815 152.98 70.6215C145.68 78.5615 140.21 87.7315 137.31 98.0215M160.76 66.2615C160.58 65.8815 159.58 65.2715 159.06 65.3415C154.59 66.0015 149.56 66.7415 145.2 68.2315C143.05 68.9815 141.04 70.0615 138.94 70.9515C133.58 73.2115 129.9 78.0215 130.3 84.2915L130.68 90.2615L130.93 101.751C130.97 103.991 131.83 106.251 132.38 108.371L134.35 115.951C134.48 116.401 135.03 117.081 135.41 117.311C135.77 117.541 137.17 117.291 137.35 116.861C138.91 113.091 136.63 107.771 141.99 94.5915L143.75 90.2315C145.1 86.9315 149.94 79.1815 152.39 76.2215L156.35 71.4915C157.7 69.8815 161.76 68.1715 160.76 66.2415" fill="#90BEFB"/>
<path d="M780.59 144.951C780.37 144.411 779.37 143.501 778.8 143.481C777.1 143.431 776.58 145.111 772.97 147.321C764.22 152.681 754.48 151.791 744.96 149.261C743.47 148.881 741 149.011 739.94 147.911C734.79 142.551 732.96 144.741 725.84 135.631C722.04 130.771 720.44 124.691 719.24 118.671C718.42 114.561 717.39 110.691 717.25 106.491L717.02 99.371L716.59 94.581L716.11 89.451C715.81 86.131 715.72 83.141 716.56 79.861C717.28 77.041 718.23 74.171 720.76 72.451C727.11 68.131 726.19 68.401 733.85 65.381C745.36 60.831 750.8 63.931 761.43 63.101C766.29 62.721 772.22 62.291 776.44 65.021C777.28 65.581 778.57 65.921 779.4 65.561C780.19 65.201 781.14 63.791 781.16 62.741L781.36 51.511C781.38 50.991 782.33 49.951 782.79 49.811C785.75 48.951 784.44 57.931 784.42 58.671L784.04 92.201L783.61 106.831L783.18 116.281L782.68 124.371C782.48 127.561 782.82 130.721 782.27 133.951C781.28 139.831 784.05 146.091 788.19 150.231C788.46 150.501 788.66 151.521 788.66 151.861C788.77 154.371 783.58 152.311 780.61 144.941M786.26 141.561C785.78 139.681 785.47 137.311 785.63 135.431C785.83 133.211 785.65 131.471 785.74 129.321L785.97 123.371L786.24 118.601L786.6 109.351L787.05 93.981L787.46 76.321L787.87 58.751C787.94 55.701 788.35 52.621 787.92 49.551C787.51 46.591 783.26 45.231 780.8 46.501C779.35 47.271 778.27 49.211 778.25 50.791L778.14 59.861C778.14 60.931 776.24 61.401 775.36 60.951C769.01 57.831 764.26 60.271 756.19 59.551C745.61 58.621 734.37 60.281 725.2 65.741L718.89 69.491C717.06 70.581 714.96 73.871 714.07 75.911C712.73 78.981 712.69 86.421 712.99 90.111L713.49 96.101L713.85 106.021C714.12 113.481 715.73 120.491 717.99 127.701C720.02 134.141 723.98 140.071 729.4 144.091L736.39 149.251C737.52 150.091 738.78 152.391 740.34 152.411C744.14 152.451 747.12 153.111 751.01 154.151C752.21 154.461 754.18 154.221 755.35 154.401C757.34 154.701 759.08 154.671 761.03 154.471C767.32 153.831 771.45 152.441 776.61 148.821C779.84 146.561 779.03 153.411 787.03 156.711C788.19 157.191 789.74 155.831 790.6 155.101C796.23 150.241 787.77 147.301 786.24 141.581" fill="#90BEFB"/>
<path d="M777.45 83.3903L777.22 92.0103L776.81 98.9003L776.47 105.32L776.2 109.66L775.86 123.15C775.79 125.95 775.57 128.69 775.68 131.51C775.9 136.62 772.61 140.01 768.4 142.57C765.76 144.18 763.52 144.53 760.51 144.53L756.28 144.51C752.33 144.51 748.79 144.1 745.18 141.93C742.87 140.53 742.01 137.36 740.88 134.86L738.57 129.8C734.82 121.61 733.23 111.19 736.18 102.45L737.62 98.2003L740.6 91.8303C742.09 88.6203 743.65 85.7003 745.8 82.8503C749.42 78.0603 754.93 71.5003 761.24 70.3003C763.07 69.9403 765.49 71.0203 767.28 71.5203C770.06 72.2903 776.91 74.2603 777.63 77.1203C778.13 79.1803 777.52 81.3503 777.47 83.4003M779.16 73.0603C774.68 70.0103 769.73 68.1303 764.35 67.2303C757.79 66.1203 752.59 70.4603 748.21 74.9203C746.76 76.3703 745.31 77.7903 744.1 79.4603C740.07 85.0703 736.77 91.0603 734.27 97.5003C730.47 107.29 730.04 118.14 734.15 127.82C736.39 133.07 738.18 138.56 741.45 143.29C743.03 145.58 746.47 145.86 748.82 146.63C754.56 148.53 762 148.69 767.67 146.31C771.62 144.64 775.38 142.42 777.34 138.31C777.91 137.11 778.9 134.94 778.94 133.63L779.3 121.36L779.71 107.66L780.07 98.6603L780.23 94.4603L780.52 84.2703L780.88 78.1903C780.97 76.5403 780.68 74.0703 779.18 73.0403" fill="#90BEFB"/>
<path d="M726.691 98.4507C726.081 100.601 726.671 102.841 724.901 104.691C724.161 104.041 723.161 102.731 723.161 101.641L723.211 81.8107C723.231 75.7307 733.701 72.4107 738.201 70.9107C739.581 70.4407 741.161 69.2107 742.361 71.0507C735.061 78.9907 729.591 88.1607 726.691 98.4507ZM750.131 66.6907C749.931 66.3107 748.931 65.6907 748.431 65.7707C743.961 66.4307 738.921 67.1707 734.551 68.6607C732.401 69.4107 730.411 70.4907 728.311 71.3807C722.951 73.6407 719.251 78.4507 719.651 84.7207L720.031 90.6907L720.281 102.181C720.331 104.421 721.191 106.681 721.751 108.801L723.721 116.381C723.851 116.831 724.401 117.511 724.761 117.741C725.141 117.971 726.521 117.721 726.721 117.271C728.281 113.541 725.991 108.201 731.351 95.0207L733.121 90.6607C734.471 87.3607 739.311 79.6107 741.761 76.6507L745.711 71.9207C747.061 70.3107 751.131 68.6007 750.141 66.6707" fill="#90BEFB"/>
<path d="M59.8003 56.9206C59.6003 57.7406 58.5803 58.3006 57.7003 58.5306L52.6103 59.8406C50.2103 60.4706 47.6403 60.6306 44.9503 60.9706C43.4303 61.1706 36.5903 58.9106 35.4603 61.7206C33.6503 66.2006 32.2703 70.7806 30.7403 75.4206L28.8403 81.2506L26.7403 87.2406L24.7903 93.5006L22.0803 101.981L20.6103 106.091L18.1203 113.871L16.1103 121.581C15.0003 125.781 14.3503 129.941 13.7203 134.061C12.8803 139.551 13.1803 144.391 15.7603 149.361C16.1003 150.001 15.7803 151.741 15.1703 152.071C14.4003 152.451 12.8403 151.821 12.3503 150.891C8.24027 142.771 10.6503 134.521 12.2103 125.801C13.4703 118.791 14.7903 112.151 17.3003 105.471C18.6103 101.991 19.9903 98.6006 21.0103 95.0506C23.0203 88.0206 24.9903 81.3106 27.5403 74.4606C28.9003 70.7506 30.0903 67.0606 30.9103 63.2506C31.3003 61.5306 29.2403 60.7006 28.0103 60.6906C25.9603 60.6406 24.2803 60.5106 22.3603 60.3506L17.6303 59.9406L12.4103 59.4906C8.41027 59.1506 4.11027 60.2406 3.39027 57.4606C5.27027 55.2506 8.05027 56.1006 10.4203 56.2006L17.4703 56.5406C21.6503 56.7406 25.5203 57.3306 29.7003 58.0506C33.0203 58.6206 34.2203 52.7606 34.6703 51.4006C35.5503 48.7106 36.7103 46.1306 37.8403 43.4706C40.9103 36.1706 44.2403 29.1806 48.8503 22.7206C49.7303 21.4806 51.0903 19.6406 52.8303 20.5306C53.9803 21.1206 53.1203 23.2006 52.4003 24.0306C49.6003 27.2606 46.0903 33.2106 44.3303 37.0806L40.1903 46.2606C39.0103 48.8906 35.7103 55.9106 37.5503 57.6806C39.3103 59.3806 41.1703 57.9306 43.8103 57.7006L47.8103 57.3606C56.3303 56.5906 53.4603 53.7606 56.1603 53.2906C57.6003 53.0606 60.1203 55.4106 59.7803 56.9106M56.0603 49.5306C53.5903 49.5506 52.6703 52.1106 50.9903 53.1506C49.4103 54.1206 42.7403 54.6206 42.2603 54.5106C41.7003 54.3906 40.9703 53.2206 40.9903 52.6106L47.3903 38.2706C49.0803 34.4906 51.5303 31.1206 53.7603 27.5806C54.8703 25.8006 56.9703 24.3006 57.0603 21.8806C57.1703 19.6606 54.5003 16.5506 52.1303 16.6406C49.1503 16.7306 47.0903 19.4206 45.6003 21.5406C39.9903 29.6306 33.6003 43.8606 30.5403 53.4806C29.5503 54.7306 27.2403 54.0906 25.7503 53.9506L20.6803 53.5006L14.6003 53.0906C10.7603 52.8206 7.07027 52.9106 3.11027 53.0506C2.09027 53.4306 0.710273 55.1306 0.0302734 55.9506V59.3806C3.45027 64.1106 6.22027 62.5506 9.89027 62.6606C11.6103 62.7106 13.3503 62.7906 15.0703 62.9306L20.2503 63.3406L25.7703 63.8106C27.4603 63.9306 26.9903 66.0106 26.6503 67.0406L22.1103 80.5106L20.1003 87.0906L17.2703 95.8806L13.1803 107.731C11.8503 111.581 11.0103 115.401 10.2003 119.391L6.78027 136.641C6.37027 138.701 6.60027 140.711 6.73027 142.701C7.04027 147.671 8.31027 152.631 12.4503 155.561C14.0103 156.651 15.1903 156.491 16.5703 155.291C17.5703 154.411 18.9203 153.461 19.2403 152.461C21.2003 146.431 11.5503 148.981 20.9103 116.811C22.1103 112.631 23.1503 108.581 24.5303 104.471L30.3803 87.0606L32.6703 79.8706L35.1803 72.1206L36.9603 66.6506C38.5603 61.6606 41.0803 64.7506 47.1103 63.9206C51.2903 63.3606 55.4503 63.0806 59.3403 61.5006C61.2903 60.7106 63.6403 58.5406 63.4303 56.4106C63.0503 52.8206 59.5803 49.4906 56.0803 49.5406" fill="#90BEFB"/>
</g>
</g>
<defs>
<clipPath id="clip0_2561_22229">
<rect width="1051.12" height="176.58" fill="white"/>
</clipPath>
</defs>
</svg>
