<svg width="804" height="312" viewBox="0 0 804 312" fill="none" xmlns="http://www.w3.org/2000/svg">
<g clip-path="url(#clip0_2550_6474)">
<path d="M620.57 67.26C619.03 68.04 617.54 67.16 616.83 66.05C615.98 64.7 616.08 63.32 617.17 61.88C618.42 60.23 621.9 56.1 624 56.73C624.73 56.94 625.81 57.88 625.99 58.68C626.89 62.37 622.46 66.31 620.57 67.27M651.07 79.16C649.53 79.16 645.76 86.78 642.64 82.82C640.96 80.7 643.78 76.88 645.64 75C646.72 73.89 645.13 72.76 644.37 72.1C643.42 71.27 642.32 70.09 641.19 69.74C638.86 70.86 636.38 71.43 634.27 70.27C633.67 69.94 633.19 68.63 633.22 67.96C633.28 66.46 636.89 64.79 635.6 63.49L626.52 54.48C625.75 53.71 624.94 53.17 624.31 52.19C623.97 51.64 622.66 51.12 622.46 51.66C621.41 54.42 618.64 58.99 615.33 57.3C612.53 55.85 615.3 48.83 618.56 46.96C618.62 46.29 617.93 45.22 617.38 45.22C616.7 45.24 615.9 45.65 615.42 46.17C613.33 48.4 611.31 50.41 609.06 52.52C607.94 53.56 607 55.08 605.47 55.75C603.8 56.5 602.62 52.77 601.1 53.15C599.75 53.48 600.3 54.53 598.57 57.28C598.24 57.78 595.41 62.21 595.05 61.22C595.75 60.02 596.19 59.34 596.54 58.33L598.15 53.75C598.58 52.5 600.01 51.46 598.45 49.91L593.94 45.4C593.58 45.04 592.2 45.56 591.83 45.94L588.37 49.47C589.64 50.58 590.7 48.26 592.98 48.39C595.54 49.14 596.1 51.84 595.44 54.11L593.8 59.7C593.53 60.65 593.23 62.05 592.8 62.79L591.28 65.47C590.43 66.96 589.51 68.3 588.46 69.94C587.76 69.39 587.75 68.5 588.13 67.69C589.47 64.86 592.02 57.51 589.95 55.42C587.64 53.07 581.54 57.24 579.36 58.98C577.81 60.22 575.99 60.97 575.26 63.22L579.86 60.47C581.23 59.64 582.89 58.72 584.46 58.29C585.84 57.92 586.98 59.5 587.45 60.35C587.99 61.35 587.98 62.88 587.52 64C586.02 67.71 587.76 66.89 585.58 71.97C584.44 74.66 585.28 73.85 583.4 75.19C583.24 75.3 583.61 76 583.7 76.02L588.21 72.9C590.46 71.33 592.08 69.07 594.02 67.09L603.83 57.14C604.17 56.8 605.44 56.4 605.91 56.63L616.79 67.55C617.59 68.35 618.14 69.43 619.1 70.08C620.97 71.38 622.35 66.54 626.79 66.05C628.07 65.91 629.55 66.54 630.03 67.49C631.24 69.91 627.71 73.21 625.56 74.41C625.2 74.61 624.85 75.73 625.12 76.05C625.72 76.79 628.62 79.03 631.65 82.74C632.18 83.38 633.06 83.64 633.73 83.34C631.27 79.78 635.89 74.57 638.2 73.37C639.31 72.8 640.69 73.8 641.29 74.61C643.3 77.36 639.74 82.97 637.11 84.26L634.62 84.97C635.18 85.8 635.56 86.37 636.04 86.84L640.47 91.03L645.4 86.36L647.38 84.5C648.59 83.35 650.46 81.55 651.58 80.32C651.78 80.11 651.34 79.18 651.07 79.18" fill="#90BEFA"/>
<path d="M381.8 124.56C382.14 125.7 381.57 127.27 380.82 127.82C377.67 130.15 369.49 123.17 371.57 119.7C372.12 118.76 374.35 117.44 376.59 118.9C378.78 120.34 381.03 121.95 381.8 124.55M387.09 111.74C385.91 110.57 384.61 108.81 383.19 107.98C381.8 107.15 381.01 109.15 380.36 109.8L372.39 117.9C370.1 120.23 368.75 120.46 368.77 121.7C368.81 123 370.08 122.87 371.99 126.26C372.77 127.64 373.46 129.21 372.62 130.79C372.18 131.63 370.94 132.2 370.06 132.17C369.08 132.14 368.2 131.57 367.36 130.9C364.16 128.35 364.85 126.9 363.53 126.67C362.68 126.51 361.58 128.52 360.18 129.86L354.9 134.94C359.95 135.82 358.36 133.82 363 137.28C364.34 138.28 365.88 139.44 365.75 141.29C365.65 142.77 364.2 143.64 363.05 143.92C361.74 144.23 360.62 143.53 359.39 142.98C356.67 141.76 354.42 140.36 353.51 136.83C352.86 137.13 352.03 137.86 351.45 138.55C350.47 139.73 349.31 140.8 348.3 141.87C347.33 142.89 349 143.96 349.58 144.47C350.85 145.61 351.9 146.69 353.05 147.89L355.23 150.15L358.19 153.27C358.47 153.56 359.4 153.56 359.54 153.26C359.65 153.02 359.55 152.29 359.33 152.09L356.58 149.76C355.3 148.65 354.27 146 355.94 144.78C357.43 143.67 360.17 144.52 361.41 145.56L363.72 147.5C364.02 147.76 364.84 148.24 365.14 148.03C365.48 147.76 365.95 147.29 366.29 146.92L369.31 143.57L367.97 139.46C367.34 137.51 368.6 135.08 370.96 135.2C372.07 135.24 373.07 136.58 373.79 137.42C374.53 138.27 375.67 137.5 376.31 136.79C378.77 134.06 381.15 131.48 383.87 129L386.93 126.24C387.19 126.01 387.41 125.16 387.3 124.84C386.84 123.49 385.66 124.74 382.4 121.28C381.75 120.58 380.62 119.53 380.85 118.53C381.32 116.52 383.67 115.67 385.55 116.14C392.3 117.82 390.62 122.31 394.63 119.1L387.1 111.73L387.09 111.74Z" fill="#90BEFA"/>
<path d="M278.79 87C278.39 89.9 279.34 90.57 278.89 96.24C278.69 98.67 278.49 100.8 277.92 103.63C275.98 102.09 277.15 101.82 275.17 98.4C274.16 96.65 269.6 88.26 267.03 91.3C263.78 95.09 265.01 97.41 263.11 101.58C262.14 100.46 262.27 99.56 262.47 98.43C263.08 94.84 263.59 91.33 265.03 88.01C265.54 86.86 266.9 86.13 267.95 86.12C269.07 86.12 270.21 86.92 270.91 87.96L273.49 91.82C274.17 92.83 274.74 93.7 275.64 94.77C277.11 92.89 274.4 87.71 273.46 86.14C271.35 82.65 269.59 77.81 266.34 78.5C264.49 78.88 264.59 81.87 262.65 81.62L262.73 77.11C262.76 75.96 264.67 75.63 265.58 75.89C269.04 76.84 268.51 74.51 271.89 77.43L273.57 80.79L275.04 84.05C277.3 81.74 273.2 78.44 274.47 76.26C275.42 76.03 277.35 75.95 278.19 76.26C279.68 76.84 278.79 78.91 278.87 79.89C279.07 82.35 279.11 84.54 278.79 87.02" fill="#90BEFA"/>
<path d="M582.88 76.9399L579.58 81.2799C578.8 82.3099 578.18 83.3599 576.92 84.0999C576.09 82.7599 577.36 82.0899 577.66 81.0799C578.57 77.9899 581.75 69.7799 576.66 69.2799C575.32 69.1499 573.51 70.4499 572.32 70.9599C569.47 72.2099 567.21 73.8899 564.99 75.9599C563.78 77.0999 562.4 78.2199 561.5 79.5999C561.02 80.3599 560.75 80.6099 560.08 80.9099C559.54 81.1399 558.03 79.9299 558.51 79.3899C560.92 76.7399 563.36 74.2799 566 71.8899L568.97 69.1699L570.17 69.8199C570.9 69.4799 572.01 69.0499 572.66 68.6499L578 65.3799C579.03 64.7499 580.62 64.3399 581.6 65.1999C584.8 67.9799 579.91 75.6499 582.88 76.9399Z" fill="#90BEFA"/>
<path d="M421.38 174.91C418.26 178.13 414.9 175.28 409.92 175.14L408.91 176.45L405.08 172.99C404.13 172.14 402.6 171.84 402.67 170.09C406.29 171.41 414.24 175.09 416.71 171.44C417.49 170.3 416.88 168.82 416.24 167.65L413.68 162.97C411.57 159.13 405.44 154.36 405.32 153.42C405.26 152.99 405.85 152.1 406.25 152.12C406.82 152.18 407.5 152.63 407.93 153.09L414.35 159.67C417.07 162.46 416.97 161.71 416.91 163.81C416.84 166.06 418.63 167.74 419.7 169.62L421.31 172.47C421.6 172.97 421.5 174.38 421.38 174.92" fill="#90BEFA"/>
<path d="M411.06 165.84C409.62 168.5 406.42 169.57 403.7 167.46C398.19 168.46 394.23 162.63 397.39 163.97C399.87 165.01 403.26 164.53 404.59 162.03C405.77 159.82 402.57 157.49 402.78 155.88C402.82 155.57 403.61 155.05 403.9 155.17C404.27 155.31 404.68 155.92 405 156.35L409.44 162.19C410.11 163.07 410.55 164.64 411.05 165.83" fill="#90BEFA"/>
<path d="M574.79 79.93C572.41 86.18 576.09 84.86 570.51 90.44L569.77 89.51C571.42 87.19 571.38 83.72 569.16 82.09C566 79.77 562.77 84.54 561.71 83.07C561.41 82.66 561.75 81.68 562.17 81.39C563.85 80.29 565.27 79.3 566.78 78.06C568.55 76.62 570.72 75.24 573.21 75.74C574.21 76.44 575.26 78.7 574.79 79.92" fill="#90BEFA"/>
<path d="M714.54 99.3999C713.3 100.42 711.52 100.27 709.96 100.1L704.07 99.3999C699.67 98.8899 701.68 98.6199 696.6 94.9999L696.05 94.6199C695.88 94.4899 696.26 93.7699 696.39 93.7899C699.78 96.0999 702.06 95.8799 706.71 97.1099C708.22 97.5099 709.91 96.6799 710.5 95.3299C711.37 93.3399 710.24 91.6899 709.46 90.0199C708.04 87.0199 706.26 84.5499 703.96 82.1899C702.78 80.9599 701.64 79.6699 700.4 78.5899C700 78.2499 699.32 77.8399 699.26 77.4699C699.2 77.0999 699.56 76.3999 699.86 76.1799C700.16 75.9599 701.13 76.2199 701.44 76.5199L705.6 80.5899C709.9 84.7899 708.67 84.8499 712.69 88.0899L711.25 88.4699C710.31 88.7099 712.64 91.8399 713.53 93.4199L715.01 96.0399C715.65 97.1799 715.74 98.4299 714.55 99.3999" fill="#90BEFA"/>
<path d="M718.46 26.9201C719.13 30.0901 723.97 34.6901 726.55 33.5701C727.49 33.1601 728.5 31.3601 728.3 30.4801C727.62 27.4001 725.52 25.4301 723.15 23.6501C722.07 22.8401 720.76 22.7101 719.59 23.3401C718.49 23.9401 718.17 25.5601 718.47 26.9301M708.71 33.1001L717.64 24.2601C719.95 21.9801 721.17 19.2501 722.69 20.7001C724.65 22.5501 728.17 25.9101 730.62 24.4701C731.49 23.9701 732.44 22.6501 732.17 21.5701C731.47 18.7401 729.32 17.3901 727.2 15.8601C726.57 14.8101 727.91 13.6801 728.62 13.0801C732.42 9.96007 732.12 8.85007 735.23 6.67007L735.06 9.19007C734.8 12.8501 739.52 18.2701 741.96 17.3901C744.25 16.5601 743.88 13.3501 743.3 11.6901C742.67 9.91007 739.67 5.27007 737.62 5.87007L736.81 6.10007C736.67 6.14007 736.6 5.30007 736.7 5.20007L741.82 0.0600667C742.06 -0.149933 743.16 0.170067 743.46 0.460067L748.6 5.39007C749.43 6.17007 754.92 10.6901 753.44 11.4301C753.21 11.5401 752.54 11.3901 752.39 11.2001L749.97 8.48007C749.09 7.48007 747.19 6.42007 746.01 6.83007C743.75 7.60007 743.75 10.2901 744.74 11.9301C745.65 13.4101 746.62 14.4801 747.79 15.8601C748.47 16.7601 746.84 18.0801 746.22 18.6501L743.76 20.9101L739.19 19.5301C737.79 19.1001 735.66 20.3601 735.33 21.7601C734.62 24.7201 739.52 25.2301 737.4 27.3401L725.83 38.8401C723.95 40.6901 724.09 34.3401 719.17 32.7601C717.28 32.1501 715.98 34.3801 716.12 36.0801C716.6 42.0001 721.7 43.0101 720.11 44.8901C719.8 45.2501 718.57 45.3401 718.22 45.0001L712.68 39.7501L708.68 36.0101C708.37 35.7101 707.91 34.9401 707.9 34.5401C707.9 34.1301 708.37 33.4401 708.73 33.0901" fill="#90BEFA"/>
<path d="M204.19 95.0199C202.55 95.8499 200.95 94.9099 200.18 93.7099C199.26 92.2699 199.36 90.7899 200.53 89.2399C201.88 87.4699 205.62 83.0199 207.87 83.6999C208.66 83.9299 209.81 84.9399 210.03 85.7999C210.99 89.7499 206.24 93.9999 204.19 95.0199ZM237.14 107.93C235.66 106.84 231.74 115.88 228.09 111.97C225.93 109.66 229.07 105.38 231.12 103.33C232.3 102.15 230.58 100.93 229.76 100.23C228.77 99.3699 227.53 97.9799 226.38 97.7099C223.9 98.7499 221.9 99.5299 219.27 98.4699C218.54 98.1999 217.85 96.9599 217.8 96.1299C217.66 94.0199 221.82 92.4399 220.34 90.9799L210.58 81.2799C209.75 80.4499 208.88 79.8899 208.23 78.8299C207.85 78.2299 206.44 77.6699 206.23 78.2499C205.07 81.3399 201.87 86.4199 198.38 84.1699C195.75 82.4699 198.55 75.1599 201.97 73.3599C202 72.8199 201.65 71.9399 201.36 71.4299H199.53C197.05 74.1399 194.47 76.7399 191.64 79.3699C190.43 80.4899 189.47 82.2599 187.73 82.7199C186.02 83.1499 184.89 79.4799 183.3 79.8599C181.83 80.2099 182.44 81.3399 180.56 84.2899C180.21 84.8599 177.18 89.5699 176.8 88.5399C177.59 87.1499 178.07 86.3699 178.5 85.1599L180.12 80.5299C180.63 79.1099 182.05 78.0999 180.46 76.4299L175.7 71.4299H174.23L169.58 75.8799C170.6 77.3199 173.16 73.9199 175.02 74.8399C177.59 76.1299 177.83 78.5999 177.19 80.8799L175.46 86.9099C175.17 87.9299 174.85 89.4299 174.39 90.2299L172.75 93.1099C171.82 94.7099 170.85 96.1499 169.71 97.8999C168.96 97.2999 168.95 96.3599 169.36 95.4999C170.8 92.4599 173.55 84.5699 171.33 82.3199C168.84 79.7999 162.29 84.2599 159.95 86.1399C158.28 87.4699 156.31 88.2599 155.55 90.6999L160.47 87.7499C161.97 86.8499 163.71 85.8899 165.44 85.3999C166.76 85.0199 168.01 86.5599 168.48 87.3699C169.18 88.5299 169.25 90.2599 168.71 91.5299C167.11 95.3699 168.97 94.5999 166.63 100.09C165.42 102.93 166.28 102.15 164.29 103.55C164.11 103.67 164.52 104.42 164.61 104.44L169.44 101.09C171.87 99.4199 173.6 96.9899 175.7 94.8499L186.22 84.1799C186.6 83.7799 187.98 83.3499 188.42 83.6299L200.32 95.5399C200.59 95.7999 201.99 98.2899 203.39 98.2799C205.06 98.2499 206.72 94.1799 210.87 93.7499C212.25 93.5999 213.85 94.2499 214.36 95.2799C215.68 97.9099 211.85 101.44 209.59 102.71C209.25 102.89 208.86 103.87 208.99 104.21C209.16 104.62 209.68 105.07 210.18 105.51C212.38 107.39 214.26 109.41 216.11 111.67C216.66 112.36 217.62 112.63 218.33 112.3C215.68 108.49 220.69 102.8 223.16 101.63C224.8 100.85 227.17 102.84 227.11 104.67C227 108.08 224.97 111.43 222.03 113.33L219.28 114.03C219.81 114.9 220.33 115.62 221.01 116.25L225.57 120.58L230.69 115.73L232.98 113.54C234.52 112.09 238.56 108.98 237.14 107.96" fill="#90BEFA"/>
<path d="M9.79 89.8699C10.05 89.4699 11.27 89.7899 11.61 90.0799C13.18 92.4299 14.19 94.7399 13.87 98.0499C11.9 97.7599 12.97 96.1199 10.32 93.1899C9.63 92.4099 9.25 90.7599 9.78 89.8699M15.84 38.3699C16.38 38.3999 17.61 37.8299 17.55 37.3499C17.47 36.8299 16.97 35.9999 16.65 35.7699C16.27 35.4999 15.32 35.7699 14.65 35.7699L1.13 35.7999L0 36.8799V44.1999C0 44.1999 0.37 44.8099 0.38 45.0999L0.4 51.2199C3.66 50.6399 2.39 48.3599 7.72 48.5399C9.52 48.5999 13.64 48.5699 14.36 51.4199C14.5 51.9399 14.12 53.0699 13.73 53.4699C10.38 56.9999 4.97 57.4899 1.39 54.1699C0.99 53.7999 0.41 53.4799 0 53.3599V56.6599C4.33 59.3399 3.98 55.5899 9.88 60.4199C10.46 60.8799 10.48 62.7899 9.99 63.3899C8.97 64.6899 5.16 66.0199 3.25 65.1899C1.97 64.6399 0.73 64.2999 0.01 65.4299V76.0599C2.17 77.0499 0.3 75.9399 5.35 73.6399C8 72.4299 10.81 72.1999 13.21 74.4299C14.16 75.3199 13.49 77.2699 12.43 78.1899C9.23 80.9999 4.95 83.3399 1.01 79.8999L0 81.1999V95.1099C1.59 96.3199 1.68 92.2699 3.88 92.1399C7.9 91.9099 10.44 98.8099 12.23 101.96L13.62 104.42C13.62 104.6 16.28 111.53 14.64 111.52L9.29 103.29C8.66 102.31 7.21 100.92 6.26 100.28C1.5 99.2599 -0.25 111.08 0.43 114.23C3.43 113.8 -0.0300002 108.24 6.56 105.25C9.04 106.02 13.07 112.99 14.04 115.04C14.85 116.74 15.4 118.17 16.32 119.69C16.96 118.19 17.09 117.11 16.9 115.62C16.72 114.21 17.21 112.64 17.21 111.25L17.24 87.8999L12.02 87.7299C11.01 87.6999 9.04 86.8599 8.41 86.0799C7.34 84.7299 8.43 82.8499 9.63 82.0099C13.65 79.1999 17.38 81.8699 17.29 78.7099L17.14 73.3099C14.77 72.1199 12.55 71.1199 11.18 68.8299C10.78 68.1599 11.41 66.6299 11.9 66.1099C13.52 64.3799 15.04 65.5099 17.24 64.8999L17.22 45.4799C14.24 44.9599 13.12 48.1299 8.35 46.0599C7.65 45.7499 6.73 44.9399 6.62 44.2999C6.01 40.7699 12.29 38.1399 15.83 38.3699" fill="#90BEFA"/>
<path d="M17.3002 193.72L17.2102 211.2C14.9302 211.09 12.6402 211.28 11.5702 213.22C10.1602 215.77 14.2502 217.88 15.9702 218.82C16.4902 219.11 17.3102 220.01 17.3002 220.7L17.1302 226.17C17.1002 226.77 15.2302 226.69 14.5902 226.71C11.6902 226.74 6.68023 229.72 8.21023 232.03C8.45023 232.4 9.13023 232.95 9.59023 233.1L13.9302 234.61L16.1902 233.57C16.5002 233.43 17.1702 234.61 16.9102 234.87C15.5302 236.23 14.5702 234.72 12.2202 235.08C10.3702 235.39 8.93023 235.48 7.17023 235.19C2.22023 234.35 3.12023 236.47 0.000234375 234.29V226.96C1.13023 224.88 2.37023 227.95 4.42023 228C8.08023 228.06 12.8502 225.03 13.8102 222.57C14.0202 222.02 13.4902 220.66 12.9202 220.28C11.3002 219.13 9.17023 219.18 7.14023 219.41C2.14023 219.96 1.47023 224.79 0.000234375 221.47V211.59C1.77023 210.37 7.37023 213.61 10.1102 209.25C10.8302 208.1 9.85023 206.51 8.67023 205.78C4.22023 203 1.45023 204.71 0.000234375 202.8V200.6C2.48023 199.44 0.580235 202.31 6.97023 202.5C10.5302 202.61 14.8602 200.76 14.3402 197.48C14.0602 195.81 7.69023 192.28 1.31023 197.2C0.990234 197.44 0.120234 196.89 -0.00976562 196.57V168.74C1.18023 166.17 -0.769766 166.29 1.99023 162.64C2.52023 161.95 2.42023 159.93 2.85023 159.17C5.37023 154.57 4.53023 152.89 6.83023 152.6C9.19023 152.32 10.4102 154.22 11.9802 156.51L14.2902 159.84C15.2202 161.19 16.7702 157.68 17.1802 169.41C16.0002 168.25 15.7602 167.51 15.1202 166.38C13.6102 163.73 11.9502 160.87 9.64023 158.75C9.09023 158.25 7.07023 158.29 6.66023 158.97C5.79023 160.39 4.14023 162.53 3.68023 164.21C2.62023 168.14 1.17023 176.69 2.88023 179.99C2.97023 180.16 3.86023 179.94 3.90023 179.76L5.22023 173.69C5.62023 171.84 6.49023 166.43 9.01023 166.44C11.0102 166.47 12.9202 169.19 13.9902 170.54C14.4602 171.15 15.5002 171.96 15.8002 172.66L17.3602 176.38C17.7702 177.39 17.6202 178.54 16.9002 179.64L13.7002 175.85C13.1202 175.18 11.9602 174.47 11.1902 174.5C8.12023 174.62 5.20023 179.85 6.08023 181.46C6.29023 181.84 7.17023 182.3 7.64023 182.3L14.2802 182.27L16.7602 181.14C19.2202 187.39 12.8302 182.82 8.12023 187.15C7.17023 188.04 5.72023 189.84 6.93023 191.13C8.87023 193.18 12.6202 193.65 14.9002 192.14C15.7102 191.6 16.4602 191.28 17.1202 191.74C17.7002 192.14 17.2902 193.01 17.2902 193.71" fill="#90BEFA"/>
<path d="M514.06 63.5601C513.2 63.3501 512 62.6301 511.17 62.1701C509.93 61.5101 509.55 59.9401 510.47 58.7401C513.19 55.1801 520.69 54.0901 523.94 59.0601C521.94 62.4301 518.07 64.6001 514.06 63.5601ZM517.19 69.9001C514.68 73.1701 510.9 73.7201 506.94 73.7701C504.17 76.3501 496.89 75.3001 496.6 71.9801C496.36 69.2401 502.38 67.0401 505.58 67.8701L510.09 65.7701C512.49 64.6501 515.43 65.0701 517.25 67.0201C518.06 67.8801 517.8 69.1001 517.19 69.8901M502.46 84.8901C501.48 84.5501 500.96 83.8501 500.61 82.9201C499.23 79.3901 497.64 80.5301 497.78 77.9801C497.81 77.5501 498.91 76.7601 499.29 77.0001C501.68 78.5301 502.97 82.0601 502.46 84.8901ZM488.9 66.1401C488.84 63.4001 492.11 61.8901 494.24 60.8301C497.02 59.4501 501.24 59.8201 502.6 63.1101C501.88 65.6001 499.14 67.2401 496.85 68.3101C493.41 69.9201 488.96 68.3901 488.9 66.1401ZM477.8 49.7601C478.09 47.9301 482.24 45.2601 486.27 47.2401C486.73 47.4501 487.95 46.9801 488.12 46.5101C488.87 44.5501 490.37 44.5401 492.13 44.8601C494.07 45.2301 499.68 46.6901 498.83 49.4601C497.96 52.2601 494.17 53.4701 491.64 52.4601C491.09 52.2501 490.37 52.0201 489.97 52.0001C489.53 51.9701 488.88 52.6701 488.64 53.1301C486.64 57.0601 477.32 52.7501 477.8 49.7701M475.23 62.4201C474.39 61.9301 473.85 60.9701 473.9 59.9101C474.02 56.9701 480.81 54.0501 485.38 56.7601C486.14 57.2201 487.52 58.0301 487.55 58.9201C487.64 61.5701 481.34 66.0201 475.22 62.4201M475.05 37.5101C474.62 36.7601 474.53 35.1701 475.06 34.6101C477.48 32.1201 480.2 30.3101 483.56 30.6301C485.41 30.8001 487.9 31.4101 487.75 33.7501C487.48 38.1801 477.06 40.9101 475.04 37.5101M490.69 37.6701C492.63 36.2201 494.3 35.7601 496.73 35.8701C498.93 35.9801 501.32 35.9801 502.66 38.1001C503.53 39.4801 502.63 41.6001 500.96 41.9801C497.61 45.4401 488.51 43.0001 489.03 39.9001C489.2 38.8901 489.93 38.2201 490.68 37.6701M502.22 25.7401L505.78 25.6001C508.72 24.1201 516.03 23.8901 516.56 27.0201C516.93 29.2101 513.29 30.7701 511.3 31.4501C510.18 31.8301 508.15 31.2201 507.06 31.7401C503.76 33.3501 500.9 34.7201 497.55 33.6101C496.74 33.3301 495.76 32.7101 495.52 32.1301C493.96 28.5201 500.84 25.7801 502.22 25.7401ZM506.67 59.2901C506.32 60.5701 504.07 60.3301 503.41 59.6701L500.34 56.6001C499.94 56.2001 499.88 54.7601 500.13 54.3201C501.32 52.1901 505.05 51.4101 506.6 53.5101C507.3 54.9601 507.14 57.5801 506.68 59.2901M513 43.2001C514.15 45.3701 510.23 47.8001 508.09 47.1501C505.41 46.3501 505.41 42.0101 506.61 39.7001C507.56 37.8801 511.79 40.9501 513 43.2001ZM524.24 55.5701C523.06 53.5201 522.16 55.6901 518 53.7801C516.59 53.1401 513.58 52.0401 514.07 49.8001C514.62 47.2001 518.73 45.9301 521.07 46.7401C522.05 47.0901 523.21 47.4401 524.01 47.0901C524.53 45.6701 523.93 43.8801 524.01 42.5001L524.3 36.9901C524.35 36.1001 524.36 35.3701 523.9 34.5701C520.8 38.1001 517.08 39.8301 512.68 38.6101C511.66 38.3201 510.72 37.3201 510.6 36.4201C510.48 35.4401 510.95 34.4301 511.79 33.7601C514.94 31.3001 519.65 28.5901 522.85 32.0801C523.08 32.3401 524.2 32.8001 524.24 32.4901C524.29 32.0301 524.33 31.4701 524.32 31.0401L524.23 24.8901C524.18 21.9701 520.99 23.5301 514.86 22.9201C511.65 22.5801 508.56 22.8101 505.3 22.9201C496.63 23.2301 487.97 23.4701 479.32 22.9301L473.65 22.5901C472.99 22.5601 472.12 22.6201 471.57 22.7601C471.14 22.8701 470.96 24.0501 471.07 24.5201L476.97 24.5801C477.84 24.6001 479.36 25.5901 479.94 26.2601C480.28 26.6601 480.43 28.1601 480.06 28.5201C478.01 30.4901 475.56 31.8101 472.48 31.5201C471.91 31.4701 470.75 32.1001 470.77 32.6201L470.82 35.0101C470.84 36.1101 470.35 38.3001 471.55 38.9901C472.99 39.8001 479.26 43.0901 476.4 45.7301C474.08 47.8901 472.33 46.8601 471.51 47.1401C470.3 47.5401 470.67 51.1201 470.79 52.3201C471.59 59.3701 470.22 55.0701 470.99 62.3701C471.16 63.8501 470.09 65.1701 471.01 66.5401C471.18 66.8001 472.34 66.8001 472.63 66.5501C475.08 64.5001 480.34 64.4101 481.67 68.0801C481.36 70.6601 478.61 72.3001 476.38 73.0501C472.31 74.4401 471.29 72.6701 470.69 74.5301C470.54 75.0301 471.23 76.1301 471.81 76.1301L486.75 76.2401C488.57 76.2501 489.38 78.3501 488.97 79.7301C488.7 80.6601 488.63 81.8401 488.77 82.7301C489.96 84.0301 491.11 78.1701 493.83 79.4401C496.57 80.7101 497.88 83.6801 499.23 86.1401L502.24 91.6001C502.39 91.8901 504.64 97.2401 503.04 98.0201L500.65 94.6401L498.43 91.3701C497.6 90.1601 495.71 87.4901 494.36 87.4701C493.87 87.4701 492.79 87.9601 492.43 88.3401C490.12 90.8501 489.62 94.0901 489.19 97.3301C488.95 99.2901 488.61 101.73 488.62 103.49C488.8 103.6 489.74 103.7 489.78 103.49L489.95 102.22C490.36 99.3501 490.75 96.8101 492.41 94.5601C493.08 93.6701 494.77 92.4601 495.94 93.1101C497.65 94.0401 498.97 95.8501 499.87 97.5301C502.38 102.18 502.21 99.3201 504.63 107.39C506.47 105.1 505.7 101.96 505.98 98.8901C506.64 91.9901 505.78 95.0801 506.13 90.0101C506.34 86.9801 506.36 84.1101 506.11 80.9701C506.02 79.6401 505.56 76.4901 507.88 76.3501C512.8 76.0601 517.73 76.2101 522.79 76.2001C523.46 76.2001 524.24 75.4101 524.24 74.7801L524.36 63.0201C524.36 61.8401 524.54 56.0501 524.25 55.5401" fill="#90BEFA"/>
<path d="M275.74 190.69L274.13 187.22C273.27 185.74 271.33 184.5 271.96 182.2C272.42 181.89 273.83 182.21 274.29 182.66C274.93 183.3 275.05 184.6 275.28 185.53C275.72 187.24 277.19 188.54 275.74 190.68M278.5 180.02C276.02 180.66 273.82 180.28 271.68 179.16C270.39 178.5 269.89 176.9 270.79 175.81C274.6 171.16 279.66 173.9 279.8 171.3C279.83 170.6 279.72 169.51 279.65 168.67C279.6 168.03 280.05 166.38 279.45 165.96L274.71 162.58C273.75 161.91 273.64 159.89 274.08 159.11C275.85 155.96 280.66 158.91 279.85 154.92C279.54 153.34 279.91 152.26 279.8 150.68L279.62 147.53C279.53 146.12 280.78 137.3 278.54 137.88C275.63 138.64 272.62 139.76 269.73 137.76C268.42 136.86 268.71 134.69 270.08 133.62C272.08 132.08 276.26 130.15 279.01 130.78C279.8 130.46 279.96 128.17 279.25 127.81L274.02 128.21C272.26 128.35 269.22 129.13 268.38 127.25C267.58 125.49 270.35 122.24 271.74 121.12C273.07 120.05 274.88 120.91 275.81 121.88L279.17 125.37C282.49 123.9 273.62 110.31 270.28 113.03C268.37 114.61 268.05 117.19 267.64 119.51L266.66 125.17C266.58 125.58 266.14 126.24 265.8 126.38C263.75 127.17 264.59 120.2 264.67 119.16L264.98 114.28C265.81 112.11 266.51 110.15 267.06 107.84C267.36 107.11 268.34 105.68 268.96 105.18C271.68 102.86 274.39 107.24 275.64 109.4L279.05 115.33C279.14 115.48 279.78 115.5 279.78 115.33C279.78 115.22 279.78 114.79 279.77 114.69L278.53 107.58C276.43 106.65 276.91 106.34 274.77 103.18C273.84 101.79 270.55 96.9399 268.58 98.5899C267.62 99.3899 266.19 102.08 266.03 103.93C265.59 108.58 262.47 108.21 262.44 115.84L262.36 144.33L266.14 141.76C268.97 139.86 276.6 140.86 276.71 144.04C276.8 146.98 270.65 149.77 266.89 148.4C265.35 147.83 264.25 146.72 262.53 145.8C262.13 147.01 262.18 148.6 262.87 149.58C265.73 149.32 272.26 151.25 272.61 153.95C272.76 155.24 271.92 156.09 270.85 156.78C265.38 160.27 265.83 156.09 262.33 157.21L262.3 169.2C263.51 169.05 264.38 168.48 265.15 167.53C265.94 166.54 267.25 166.37 268.33 165.94C270.61 165.05 272.25 164.75 274.51 166.2C274.92 166.46 275.73 166.99 276.02 167.36C276.31 167.73 276.07 168.93 275.76 169.33C274.37 171.12 272.52 172.31 270.53 173.29C266 175.49 263.56 171.49 262.64 172.53C262.5 172.7 262.29 173.26 262.29 173.49L262.35 188.34C263.82 187.47 264.17 186.64 264.84 185.46C265.63 184.08 268.08 184.04 269.2 185.32C271.36 187.75 274.43 193.43 275.7 196.47C276.62 198.64 277.24 202.04 276.14 201.79C274.26 201.35 273.75 196.53 269.17 193.1C268.05 192.26 266.65 192.53 265.91 193.57C265.62 193.98 264.83 194.82 264.64 195.33C264.03 196.95 260.82 207.92 262.67 209.29C264.96 205.18 263.48 202.06 267.01 198.3C269.87 195.24 274.49 203.97 275.68 205.93C276.28 206.91 277.12 207.57 277.16 208.87C277.21 209.99 277.76 211.03 278.63 211.33C278.92 210.15 279.36 209.17 279.41 208.23L279.65 202.85C279.73 201.24 280.02 199.74 279.74 198.19C279.27 195.35 279.77 192.45 279.71 189.66C279.66 186.89 279.36 184.37 279.91 181.59C280.05 180.86 279.19 179.85 278.5 180.03" fill="#90BEFA"/>
<path d="M416.46 216.93C415.96 217.76 415.02 218.24 414.36 218.21C411.7 218.12 410.16 213.79 409.77 211.59C409.28 208.81 411.01 205.14 413.75 204.51C418.15 206.86 418.98 212.8 416.46 216.93ZM448.07 204.27C447.63 203.92 446.49 204.19 446.16 204.61C445.03 206.02 446.45 206.81 446.53 211.58C446.56 213.74 446.09 215.62 445.66 217.68L444.7 222.34C444.64 222.71 442.42 226.64 440.69 226.85C437.91 227.19 433.78 219.48 432.63 216.86L430.84 212.79C430.55 212.13 430.01 210.56 430.95 210.56C433.2 210.56 434.02 214.6 437.25 217.47C438.15 218.28 440.39 219.21 441.2 218.08C443.22 215.25 443.45 211.78 444.17 208.48C444.35 207.7 444.95 206.38 445.18 205.63C445.3 205.22 444.75 204.22 444.31 204.22C443.96 204.22 443.02 204.39 442.72 204.5C442.29 206.81 441.18 208.89 439.37 210.34C436.1 212.99 432.38 204.93 430.67 203.86L409.32 203.91C408.66 205.73 408.72 206.91 408.6 208.76C408.51 210.44 407.01 212.95 405.66 213.88C404.02 215 402.6 213.28 401.85 212.2C400.43 210.18 400.31 207.41 401.56 205.72C401.83 205.34 401.59 203.9 401.19 203.9H389.25C389.54 205.18 390.21 205.72 390.98 206.58C394.79 210.85 393.37 217.48 390.54 217.5C387.73 217.53 385.86 213.48 384.97 211C383.56 207.04 385.93 207.07 386.64 203.92L372.49 203.89C372.05 203.87 371.21 204.56 371.25 204.91C371.68 207.34 374.38 210.94 373.15 213.78L370 208.03C369.34 206.84 368.67 204.44 367.05 204.1C365.14 203.7 363.03 203.89 360.95 203.9C358.57 203.9 358.9 207.98 359.59 209.88L361.5 207.6C361.96 207.06 363.06 206.38 363.73 206.39C366.33 206.44 368.72 211.31 369.85 213.35C371.62 216.5 373.41 219.34 374.21 222.95C374.32 223.44 374.1 224.49 373.72 224.46C373.34 224.45 372.54 224.06 372.3 223.63C371.15 221.55 366.43 213.06 363.71 214.71C363.19 215.02 362.18 215.87 361.9 216.5C359.52 221.88 359.26 223.55 359.61 229.13L360.83 226.07L362.53 221.82C362.84 221.06 363.92 220.17 364.61 220C367.27 219.31 369.11 222.77 370.57 224.8C372.21 227.03 373.93 230.52 374.5 233.03C374.56 233.34 375.29 233.75 375.46 233.6C376.7 232.35 376.82 226.09 376.76 224.01C376.68 221.29 379.37 222.05 378.4 218.34C377.85 216.24 378.66 213.63 380.34 212.25C381.62 211.21 383.37 212.22 384.09 213.38C385.54 215.73 386.05 218.07 386.02 221.04H392.26C393.01 221.04 393.53 219.11 394.02 218.5C394.81 217.49 395.87 216.44 396.91 215.46C397.58 214.85 399.45 215.18 400.15 215.81C402.11 217.57 400.73 220.61 401.85 221.01C402.42 221.22 403.27 221.18 403.99 221.16C408.85 221.04 413.58 221.01 418.44 221.19C419.13 221.22 420.24 221.44 420.73 220.91C422.08 219.49 418.44 218.2 420.16 212.74C420.4 211.98 420.94 211.07 421.51 210.63C421.97 210.25 423.39 210.11 423.91 210.55C429.35 215.11 427.67 220.67 428.45 220.9C429.81 221.31 431.89 220.56 432.58 221.94C432.86 222.51 432.9 223.91 432.96 224.65C434.55 225.18 435.36 226.32 436.09 227.82C436.9 229.47 439.42 232.88 441.6 232.79C443.31 232.71 443.68 230.94 444.28 229.89L445.73 227.3C445.55 220.89 447.58 225.82 448.38 216.31C448.61 213.56 448.73 211 448.79 208.27C448.81 206.89 449.6 205.39 448.09 204.25" fill="#90BEFA"/>
<path d="M435.16 248.92C436.83 249.93 436.78 251.67 437.61 253.03C438.27 254.12 439.55 255.08 439.51 256.58C439.49 257.1 438.15 258.05 437.75 257.65C436.22 256.12 434.45 250.97 435.17 248.92M445.9 293.99C444.34 293.38 441.22 290.49 442.66 288.81C444.02 287.22 445.93 287.22 447.77 286.84C449.09 286.55 448.31 284.96 448.37 283.95L448.61 280.49C448.72 278.96 448.17 277.52 448.41 276.15C449.34 270.78 447.69 273.8 448.62 268.66C448.68 268.34 448.53 267.6 448.33 267.39C447.46 266.4 444 270.4 439.68 268.12C439.04 267.78 438.2 266.93 437.94 266.36C436.84 263.88 441.37 260.35 446.87 260.66C447.53 260.71 448.72 259.58 448.7 258.84L448.55 250.43L446.26 253.63C445.86 254.18 444.76 254.87 444.09 254.85C441.57 254.77 439.17 249.9 437.91 247.57L436.3 244.63C435.05 242.32 433.88 237.84 433.45 235.07H434.63C434.97 236 435.33 237.21 435.78 237.91L437.94 241.4C438.95 243.02 442.16 248.19 444.68 246.05C446.96 244.11 448.59 237.52 448.56 234.58L448.53 230.53L446.41 236.45C445.8 238.16 444.53 241.28 442.59 241.33C439.03 241.41 433.28 229.71 432.48 226.08L431.49 231.86C430.99 234.7 431.14 237.26 431.26 240.18C431.38 242.75 430.76 245.43 431.2 248.06C431.4 249.21 431.34 250.4 431.32 251.56L431.27 257.74L431.22 263.26C431.19 266.32 431.74 269.65 431.01 272.71C430.9 273.12 431.39 274.12 431.62 274.19C434.68 270.55 439.13 269.48 443.41 271.42C444.08 271.73 444.92 272.31 445.22 272.81C445.53 273.32 445.36 274.8 445.01 275.32C442.36 279.17 434.8 279.59 431.51 275.2C431.17 275.84 430.97 277.08 431 277.97C431.02 278.55 431.92 279.44 432.61 279.51C435.59 279.83 441.51 280.55 441.39 284.28C441.37 285.06 440.4 286.13 439.48 286.68C435.63 288.99 431.1 285 431.28 288.59C431.43 291.56 431.36 295.06 431.19 297.87C431.18 298.11 431.37 299.15 431.59 299.05C431.79 298.93 432.46 298.59 432.68 298.36C437.3 293.54 444.23 294.51 444.98 297.56C445.15 298.17 444.61 299.47 444.06 299.93C440.51 302.84 438.82 304.12 434.21 303.31L432.51 301.98C432.28 301.8 431.61 301.58 431.39 301.78C430.33 302.73 432.06 304.38 431.25 307.7C431.07 308.46 430.98 310.59 431.88 310.64L437.66 310.93C440.03 311.05 442.17 311.13 444.53 310.96C445.71 310.88 447.48 311.88 448.23 310.23C446.09 308.14 446.4 310.95 442.5 309.62C441.37 309.24 439.13 308.3 439.33 306.82C439.71 303.91 443 302.51 445.74 302.75C446.41 302.81 448.22 302.35 448.39 301.66C448.66 300.45 448.7 299 448.74 298.05C448.85 295.82 447.91 294.75 445.93 293.98" fill="#90BEFA"/>
<path d="M279.64 228.46C279.29 228.55 278.54 228.12 278.37 227.82L276.57 224.81C275.62 223.24 274.43 221.8 272.87 220.82C271.58 220.01 270.16 220.35 269.32 221.8C266.43 226.86 268.68 230.26 265.83 233.24C263.12 231.62 265.39 226.27 264.91 222.14L266.1 218.82C266.38 218.09 267.83 212.43 270.31 212.12C273.44 211.74 277.91 221.16 279.18 223.73C279.47 224.34 281.58 227.98 279.64 228.47M332 217.81H318.02C317.87 220.01 320.45 220.39 320.86 223.42C321.21 225.97 321 231.37 318.11 232.07C317.33 232.27 315.91 231.79 315.39 231.14C312.44 227.47 312.41 221.57 315.97 218.03C315.01 217.56 312.35 217.63 312.02 219.09C311.48 221.48 312 224.15 310.28 226.14C309.52 227.03 308.54 227.84 307.62 227.79C306.58 227.76 305.46 227.3 305.1 226.44C302.27 219.8 306.17 220.48 304.43 217.85L293.63 217.8C293.37 217.8 292.61 218.21 292.68 218.4C293.54 220.28 294.61 219.23 296.15 223.97C296.7 225.67 296.94 227.06 296.45 228.89C296.13 230.05 294.74 232.16 293.3 231.55C289.51 229.94 285.47 222.68 290.16 217.88L279.17 217.77C278.65 216.53 278.09 215.54 277.34 214.53L274.83 211.2C274.48 210.74 270.9 204.59 268.7 206.4C267.68 207.24 266.24 209.49 266.13 210.82C265.9 213.63 265.14 215.21 263.67 217.44C262.2 219.66 261.7 235.16 262.92 235.01L264.25 234.83L268.27 234.52C269.11 232.24 270.7 228.48 273.13 228.37C276.33 228.22 279 234.7 280.04 235.11C280.45 235.26 281.83 234.74 281.77 234.3L281.31 230.95C281.02 228.87 282.37 225.48 285.06 225.98C287.19 226.38 288.91 229.63 289.01 231.62C289.07 233 289.07 234.5 289.79 235.34C293.83 235.26 296.05 236.4 297.6 232.6C298.2 231.18 299.01 230.18 300.38 229.39C301.25 228.89 302.83 229.16 303.58 229.88C305.42 231.67 303.37 235.2 305.68 235.16L311.08 235.07C313.18 235.04 315.15 235.21 317.33 235.28L322.82 235.45C323.26 235.46 324.29 234.69 324.18 234.27C323.03 230.11 321.95 229.68 323.91 225.42C324.2 224.79 325.59 224.27 326.29 224.34C327.88 224.46 329.41 226.97 330.19 228.39C332.42 232.53 329.99 235.29 332.12 235.5C332.56 235.53 333.79 234.93 333.79 234.49L333.84 218.71C333.38 218.31 332.46 217.81 332.01 217.81" fill="#90BEFA"/>
<path d="M365.97 264.76C364.92 266.21 366.32 267.45 367.5 268.08C371.6 270.3 374.84 266.75 376.02 267.35C376.33 267.52 376.77 268.33 376.77 268.68L376.74 286.85L372.84 287.23C372.06 287.31 370.82 288.47 370.56 289.2C370.22 290.15 370.82 291.75 371.64 292.43C375.56 295.55 376.92 294.69 376.81 297.68L376.63 302.45C373.11 301.82 369.27 303.4 367.45 305.69C367.11 306.12 367.01 307.56 367.34 307.85C373.06 312.77 375.49 307.59 376.42 309.95C376.59 310.39 375.85 311.31 375.37 311.23L373.12 310.83C370.66 311.3 368.53 311.21 366.08 310.89C364.18 310.66 361.77 311.06 360.07 310.61C358.37 310.18 359.53 307.83 359.47 306.82C359.38 305.23 358.75 303.49 359.84 302.29C361.16 302.73 362.9 303.91 364.15 303.73C367.16 303.29 369.91 301.93 371.92 299.86C372.91 298.85 373.11 296.65 371.81 295.96C369.56 294.77 366.55 294.68 364.15 295.78C362.47 296.56 361.18 297.71 359.56 298.75C359.32 297.63 359.33 296.84 359.39 295.77C359.5 293.78 359.44 291.75 359.31 289.71C359.26 288.88 358.77 286.74 360.33 286.94L364.32 287.44C366.25 287.69 369.35 286.37 369.37 284.11C369.37 281.02 364.11 280.01 361.65 279.69C360.78 279.57 359.45 279.2 359.19 278.34C358.98 277.68 359.4 276.29 359.73 275.63C362.88 279.22 368.86 279.02 372.03 276.44C372.98 275.66 373.6 274.94 373.53 273.61C373.47 272.62 372.47 271.99 371.36 271.49C367.22 269.61 362.57 270.43 359.71 273.94C359.16 272.46 359.36 271.4 359.4 270.13C359.54 265.27 359.67 260.48 359.29 255.69C358.88 250.26 359.29 245.12 360.15 239.71L361.82 238.36L362.66 233.7C362.95 231.99 363.56 229.54 365.12 228.67C366.99 227.63 368.88 229.25 369.77 230.58L371.86 233.73C374.08 237.05 375.99 237.49 375.97 238.99C375.92 243.41 377.19 243.64 376.96 245.26C376.91 245.54 375.98 245.84 375.83 245.63C374.67 243.89 370.72 233.46 366.73 234.24C366.16 234.35 365.29 235.02 364.93 235.66C362.83 239.36 362.3 240.32 361.84 245.05C361.83 245.08 361.15 256.33 362.38 255.17C365.68 250.38 363.34 245.15 367.41 242.46C368.3 241.86 369.72 242.81 370.42 243.47C373.13 246.01 375.02 248.72 376.52 252.09C377.16 253.54 377.24 255.15 376.28 256.19C374.4 253.76 372.44 250.15 369.63 250.3C367.38 250.44 364.57 254.69 365.47 257.11C365.7 257.71 367 258.09 367.58 258.09H373.16C373.98 258.08 375.24 257.43 376.08 257.02C376.92 257.48 377.24 260.22 375.85 260.45C372.2 261.09 369.47 259.94 365.96 264.76" fill="#90BEFA"/>
<path d="M494.65 196.5L496.97 192.8C497.43 192.05 498.73 191.33 499.43 191.39C502.11 191.57 504.29 194.91 505.58 197.35C504.48 199.03 502.7 199.49 500.7 198.97C499.05 199.12 497.34 199.29 495.85 198.97C494.73 198.74 494.14 197.3 494.64 196.49M497.12 249.27C496.57 248.92 496.54 247.18 496.97 246.7C499.22 244.13 502.31 242.97 505.92 243.58C506.3 240.05 507.3 236.68 504.25 235.51C502.41 234.81 500.15 233.29 500.12 231.04C500.09 228.88 502.47 227.74 504.43 228.12C505.29 228.29 506.28 227.48 506.28 226.68L506.2 208.71C506.18 208.11 504.2 208.39 503.77 208.83C502.19 210.47 496 210.42 495.33 207.15C494.99 205.48 496.69 204.15 497.88 203.27C500.08 201.65 502.82 201.92 505.34 201.54C506.99 201.29 505.89 199 505.97 198.1C506.09 196.46 506.49 194.66 506.03 193.22C505.23 190.65 503.63 188.91 502.07 186.87C501.17 185.68 499.33 183 497.36 183.37C495.33 183.74 494.24 187.99 493.95 189.7L493.19 194.15C493.01 195.25 492.64 196.66 492.17 197.45C490.64 196.9 490.73 195.57 490.79 194.42L491.08 187.46C491.22 184.19 493.08 177.87 495.45 175.68C495.94 175.22 497.58 175.14 498.1 175.54C502.55 178.9 502.9 183.43 506.2 186.81L505.71 182.65C505.13 177.77 504.43 178.64 500.27 172.99C499.29 171.66 497.87 169.37 496.13 169.23C493.39 169.02 492.92 173.22 492.57 174.17C491.32 177.66 489.8 180.87 489.07 184.55C488.87 185.56 489.04 187.06 488.9 188.13C488.7 189.8 488.75 191.27 488.81 192.89L488.92 196.61C489.01 199.58 489.1 210.34 488.69 212.73C488.55 213.52 488.78 214.52 489.19 214.98C491.53 212.93 493.55 211.74 496.59 211.36C498.23 211.16 502.14 212.78 502.81 213.88C503.07 214.31 503.01 215.71 502.72 216.19C500 220.62 492.53 219.55 491.36 218.5C490.53 217.75 489.71 217.09 488.76 217.09C488.58 217.85 488.58 219.32 488.93 219.84C489.92 221.31 497.17 220.39 498.84 224.5C499.36 225.77 498.11 227.1 497.03 227.7C493.01 229.92 489.75 226.68 488.86 228.89C488.65 229.39 488.91 230.43 488.92 231.06L489.07 239.98C489.87 239.48 490.61 238.99 491.29 238.44C495.63 234.94 501.52 235.73 502.45 238.35C502.66 238.93 502.3 240.45 501.76 240.86C497.65 244.01 493.75 247.11 489.19 242.71L488.79 248.46C488.7 249.99 488.62 252.41 490.87 252.18C492.57 252.01 494.37 251.8 496.12 252.1C498.03 252.44 499.88 251.87 501.87 252.01L505.03 252.22C505.41 252.25 506.15 251.29 505.92 251.01C504.08 248.87 503.56 253.46 497.11 249.27" fill="#90BEFA"/>
<path d="M494.65 119.06L496.97 115.36C497.43 114.61 498.73 113.89 499.43 113.95C502.11 114.13 504.29 117.47 505.58 119.91C504.48 121.59 502.7 122.05 500.7 121.53C499.05 121.68 497.34 121.85 495.85 121.53C494.73 121.3 494.14 119.86 494.64 119.05M497.12 171.83C496.57 171.48 496.54 169.73 496.97 169.26C499.22 166.69 502.31 165.53 505.92 166.14C506.3 162.61 507.3 159.24 504.25 158.07C502.41 157.37 500.15 155.85 500.12 153.61C500.09 151.45 502.47 150.31 504.43 150.69C505.29 150.86 506.28 150.05 506.28 149.25L506.2 131.28C506.18 130.68 504.2 130.96 503.77 131.4C502.19 133.04 496 132.99 495.33 129.72C494.99 128.05 496.69 126.72 497.88 125.84C500.08 124.22 502.82 124.49 505.34 124.11C506.99 123.87 505.89 121.57 505.97 120.67C506.09 119.03 506.49 117.23 506.03 115.79C505.23 113.22 503.63 111.48 502.07 109.44C501.17 108.25 499.33 105.57 497.36 105.94C495.33 106.31 494.24 110.56 493.95 112.27L493.19 116.72C493.01 117.82 492.64 119.23 492.17 120.02C490.64 119.47 490.73 118.14 490.79 116.99L491.08 110.03C491.22 106.76 493.08 100.44 495.45 98.2601C495.94 97.8001 497.58 97.7201 498.1 98.1201C502.55 101.48 502.9 106.01 506.2 109.39L505.71 105.23C505.13 100.35 504.43 101.22 500.27 95.5701C499.29 94.2401 497.87 91.9501 496.13 91.8101C493.39 91.6001 492.92 95.8001 492.57 96.7501C491.32 100.24 489.8 103.45 489.07 107.13C488.87 108.14 489.04 109.64 488.9 110.71C488.7 112.38 488.75 113.84 488.81 115.47L488.92 119.19C489.01 122.16 489.1 132.92 488.69 135.31C488.55 136.11 488.78 137.1 489.19 137.56C491.53 135.51 493.55 134.32 496.59 133.94C498.23 133.74 502.14 135.36 502.81 136.46C503.07 136.89 503.01 138.3 502.72 138.77C500 143.2 492.53 142.13 491.36 141.08C490.53 140.33 489.71 139.67 488.76 139.67C488.58 140.43 488.58 141.9 488.93 142.42C489.92 143.89 497.17 142.97 498.84 147.08C499.36 148.35 498.11 149.68 497.03 150.28C493.01 152.5 489.75 149.26 488.86 151.47C488.65 151.98 488.91 153.01 488.92 153.64L489.07 162.56C489.87 162.05 490.61 161.57 491.29 161.02C495.63 157.52 501.52 158.31 502.45 160.93C502.66 161.51 502.3 163.03 501.76 163.44C497.65 166.59 493.75 169.69 489.19 165.29L488.79 171.04C488.7 172.57 488.62 174.98 490.87 174.75C492.57 174.58 494.37 174.37 496.12 174.67C498.03 175.01 499.88 174.44 501.87 174.58L505.03 174.79C505.41 174.82 506.15 173.86 505.92 173.58C504.08 171.44 503.56 176.03 497.11 171.84" fill="#90BEFA"/>
<path d="M653.26 218.23C654.65 219.68 655.46 221.36 654.38 223.09C653.46 224.57 651.43 225.44 649.49 224.34C646.48 222.63 642.81 219.52 643.63 216.05C643.81 215.24 644.91 214.14 645.99 214.14C649.15 214.17 651.27 216.17 653.27 218.22M678.35 196.78L668.78 187.3C668.52 187.04 667.36 187.09 667.43 187.35L667.72 188.47C669.92 189.82 674.1 194.05 671.97 196.21C669.45 198.78 665.72 196 663.7 193.92C663.24 193.43 662.17 192.88 661.53 192.97L657.55 197.02C656.3 198.29 659.22 201.72 658.74 203.64C658.34 205.23 657.21 206.33 656.05 206.48C653.08 206.89 652.69 203.74 650.97 203.84C650.48 203.87 649.9 204.79 649.49 205.22L641.49 213.34C639.61 215.24 636.96 216.72 637.56 217.96C637.79 218.45 643.05 219.75 644.46 224.05C645 225.67 642.87 227.14 641.4 227.22C638.05 227.39 635.44 225.34 632.96 223.03C632.41 222.51 630.53 223 630.32 223.69C629.91 224.99 631.73 225.63 632.43 226.23C636.73 229.96 638.07 232.51 641.93 235.74C642.63 236.32 644.39 235.16 644.85 234.59C646.87 232.1 649.35 229.76 651.69 227.54L656.98 222.51C657.39 222.13 657.9 221.16 657.82 220.61C657.74 220.12 656.99 219.62 656.38 219.13C655.39 218.34 654.64 216.96 653.87 215.84C652.74 214.17 652.43 212.12 654.05 210.73C655.53 209.46 657.35 209.72 659.01 211.14C662.05 213.74 662.01 215.6 663.08 215.71C663.94 215.79 664.82 214.52 666.41 212.96L672.24 207.26L671.54 206.4C667.76 208.63 660.67 203.39 660.87 199.63C660.93 198.47 663.26 197.38 664.31 197.49C667.86 197.83 673.82 200.64 673.68 205.15C674.63 204.75 675.33 204.02 676.07 203.15C677.16 201.88 678.59 200.66 679.73 199.54C680.92 198.36 679.12 197.54 678.37 196.8" fill="#90BEFA"/>
<path d="M586.3 124.54C585.7 124.98 585.26 126.82 585.7 127.43C587.05 129.31 588.8 130.18 590.64 131.44C591.83 132.25 591.33 134.36 591.5 135.68C591.64 136.63 591.78 137.71 591.32 138.23C589.61 140.16 589.39 136.81 583.55 140.98C582.95 141.41 582.37 142.25 582.25 142.88C582.1 143.6 582.75 144.72 583.5 145.07C587.21 146.8 588.9 145.31 591.34 146.25C591.69 146.39 591.34 147.7 590.91 147.72C584.29 147.97 582.65 147.32 576.35 147.43C575.56 147.44 574.53 146.85 574.55 146.02L574.64 138.37L578.97 140.01C582.72 139.81 587.03 137.93 588.13 134.21C587.43 131.33 583.34 130.78 580.99 131.7C578.8 132.54 577.21 133.34 575.59 134.87L575.12 135.31C575 135.43 574.58 134.65 574.58 134.38V123.28C575.71 123.22 576.65 123.42 577.67 123.75C581.05 124.85 585.45 122.02 584.83 119.87C584.6 119.06 583.73 118.33 582.96 117.82C578.48 114.87 575.8 117.42 574.46 115.04C574 114.23 574.09 112.78 574.89 112.01C578.93 116.6 588.35 114.33 588.59 110.99C588.67 109.98 588.42 108.56 587.55 108.18C584.4 106.76 581.07 106.74 577.81 107.83L575.36 110.12C573.85 110.09 574.49 108.64 574.5 107.8C574.59 104.14 574.61 100.61 574.48 96.9601C574.46 96.2901 574.28 95.3401 574.54 94.9101C574.8 94.5001 575.9 93.9001 576.44 93.9801C583.89 95.0701 584.27 93.3201 590.49 94.1501C590.98 94.2101 591.85 95.1701 591.85 95.6501C591.87 96.1401 590.9 96.9001 590.4 96.8901C586.19 96.6801 580.84 99.1701 581.06 102.16C581.12 103.05 582.53 104.73 583.4 104.84C584.98 105.04 587.19 105.01 588.6 104.76C589.41 104.21 590.47 103.54 591.31 104.03L591.62 109.61C591.83 113.68 591.21 115.07 591.57 120.62C591.62 121.35 591.8 122.29 591.59 122.84C590.93 124.57 589.01 122.59 586.3 124.57" fill="#90BEFA"/>
<path d="M144.16 155.05C143.55 155.49 143.12 157.33 143.55 157.93C144.91 159.81 146.67 160.7 148.51 161.94C149.69 162.75 149.2 164.88 149.37 166.18C149.49 167.13 149.65 168.23 149.17 168.75C147.47 170.68 147.24 167.31 141.42 171.5C140.81 171.93 140.23 172.77 140.11 173.38C139.97 174.11 140.61 175.23 141.38 175.58C145.1 177.29 146.78 175.82 149.21 176.76C149.56 176.88 149.21 178.21 148.78 178.23C142.17 178.48 140.54 177.83 134.22 177.94C133.43 177.95 132.42 177.34 132.42 176.53L132.51 168.88L136.84 170.5C140.6 170.3 144.91 168.42 146 164.72C145.31 161.83 141.23 161.29 138.86 162.2C136.67 163.04 135.08 163.84 133.46 165.38L133 165.82C132.86 165.93 132.45 165.16 132.45 164.81V153.79C133.6 153.73 134.53 153.93 135.55 154.26C138.92 155.36 143.33 152.52 142.71 150.38C142.47 149.55 141.59 148.82 140.83 148.31C136.35 145.36 133.7 147.94 132.33 145.53C131.89 144.77 131.98 143.27 132.76 142.52C136.83 147.12 146.25 144.81 146.48 141.5C146.54 140.46 146.31 139.07 145.42 138.67C142.29 137.26 138.94 137.23 135.69 138.33L133.24 140.61C131.71 140.64 132.35 139.11 132.38 138.3C132.47 134.63 132.47 131.11 132.36 127.46C132.33 126.79 132.15 125.82 132.41 125.41C132.67 125 133.77 124.4 134.31 124.48C141.76 125.57 142.15 123.82 148.38 124.63C148.85 124.69 149.73 125.67 149.74 126.14C149.74 126.61 148.79 127.39 148.29 127.36C144.08 127.16 138.72 129.64 138.93 132.65C138.99 133.52 140.38 135.2 141.3 135.33C142.81 135.53 145.06 135.5 146.48 135.25C147.27 134.7 148.33 134.01 149.17 134.52L149.47 140.1C149.7 144.15 149.06 145.56 149.42 151.09C149.47 151.84 149.65 152.77 149.45 153.31C148.79 155.05 146.83 153.08 144.16 155.05Z" fill="#90BEFA"/>
<path d="M618.54 234.84C618.75 235.28 617.42 236.63 617.03 236.23L610.33 229.59C609.98 229.24 609.43 228.31 609.01 228.03C607.86 227.24 606.75 226.13 606.32 225.05C606.93 224.61 607.56 224.22 607.54 223.87C607.52 223.53 606.81 223.01 606.61 222.68L602.13 215.43C601.35 214.19 600.71 212.62 601.73 211.38C602.97 209.88 604.8 210.08 606.47 210.29L612.75 211.12C613.13 211.17 613.94 210.95 614.02 210.72L612.72 208.88C611.18 208.67 609.69 207.09 608.33 206.79L598.91 204.74C597.21 204.37 594.93 205.6 594.4 207.34C593.96 208.78 594.93 210.4 595.65 211.61L598.02 215.56C599.15 217.46 601.23 218.59 601.97 221C597.52 217.47 590.74 209.9 590.26 204.25C591.39 199.59 598.67 202.32 602.1 203.42C603.55 203.88 604.82 205.15 606.55 203.66C604.59 202.15 602.57 200.86 600.3 199.65C599.2 199.04 597.61 198.9 596.37 198.47C593.94 197.63 586.11 194.74 584.33 197.9C583.2 199.89 584.62 201.46 585.11 203.7C583.95 203.42 579.19 199.42 580.43 198.18L585.55 193.03C586.68 191.88 588.06 192.75 588.91 193.46C588.83 193.38 595.07 195.86 595.71 195.46C595.43 193.82 594.17 193.84 593.2 193.18C589.32 190.58 590.28 192.58 588.89 191.1C587.99 190.14 590.76 187.68 591.83 186.97C592.56 187.31 593.39 187.92 593.86 188.48C595.1 189.95 596.43 191.03 597.79 192.32L603.77 198.04C608.92 202.96 609.29 203.33 613.7 209.05C615.67 211.62 619.75 213.61 621.12 216.34C617.16 215.15 613.73 213.83 609.67 213.44C608.42 213.3 606.09 215.08 606.06 216.24C606 218.03 607.21 219.62 607.82 221.07C609.27 224.51 611.49 226.96 613.91 229.67L617.35 233.52C617.81 234.03 618.34 234.44 618.54 234.82" fill="#90BEFA"/>
<path d="M454 187.58C454.03 188.83 451.6 189.8 449.92 191.94C449.26 192.78 448.51 193.55 447.7 193.67C446.43 193.84 445.83 193.36 444.61 192.63C444.32 192.45 438.32 190.47 438.08 191.24L440.8 193.06C444.15 195.31 444.81 194.45 445.23 195.8C445.6 197.02 442.45 200.4 440.86 198.83L428.7 186.81L426.3 184.45C425.03 183.21 421.24 178.85 420.61 177.05L425.14 179.44C426.75 180.28 428.46 180.36 430.28 180.6C432.3 180.87 434.32 181.61 436.34 181.67C438.02 181.73 440.06 180.05 439.7 178.31C438.97 174.62 436.44 172.21 434.65 168.42C438.41 170.29 442.3 176.92 443.85 181.28C444.2 182.26 443.21 183.65 442.57 184.18C441.65 184.98 440.29 184.79 439.01 184.65L435.66 184.3C434.59 183.77 433.69 183.41 432.56 183.23C430.8 182.92 429.41 181.23 427.48 182.2C428.69 183.15 429.77 184.33 430.86 184.97C432.15 185.73 433.89 186.64 435.19 187.08L440.77 188.93L445.82 190.25C447.82 190.78 450.15 189.07 450.5 187.07L449.09 182.68C450.65 183.49 453.98 186.67 454 187.59" fill="#90BEFA"/>
<path d="M243.82 171.29L243.99 176.46C244.04 177.8 242.66 178.51 241.41 178.22C237.04 177.21 236.93 179.72 234.77 176.78C231.94 172.94 234.11 174.06 231.04 171L230.53 169.43C229.95 172.32 230.9 174.71 232.49 177.31C230.84 178.32 228.68 178.47 227.01 177.59C225.89 177.01 226.66 175.47 226.66 174.55L226.77 154.87L227.09 151.58C227.23 150.1 227.18 148.9 228.04 147.79C228.67 148.78 228.77 149.79 229.17 150.65C229.83 152.1 230.52 153.69 231.36 155.01L233.26 157.91C234.13 159.26 236.07 162.07 237.6 162.19C238.15 162.24 239.17 161.67 239.68 161.21C242.02 159.07 241.58 155.23 243.7 151.58C244.57 156.95 243.61 158.63 242.23 163.49C241.86 164.76 240.44 166.75 239.17 167.16C236.69 168 233.8 163.12 232.73 161.29L230.19 156.87C228.94 157.93 229.09 159.68 230.04 161.11C231.48 163.28 229.78 162.2 231.63 165.51C233.45 168.8 237.98 179.03 241.62 174.21L243.82 171.31V171.29Z" fill="#90BEFA"/>
<path d="M244.09 135.38C243.83 142.49 241.63 142.89 240.1 149.13C239.66 150.9 239.18 153.4 236.86 153.59C235.41 153.73 233.77 151.97 232.99 150.82L231.02 147.88C230.18 146.59 228.94 145.36 227.64 144.12L227.27 140.36C226.92 138.91 226.55 137.81 226.86 136.43C229.58 139.06 231.97 147.56 236.07 147.58C236.77 147.58 237.86 146.71 238.3 145.88L240.87 141.12C241.16 140.57 240.93 139.09 241.07 138.28C241.61 135.27 241.97 131.2 241.7 128.4C241.67 128.09 241.01 127.21 240.83 127.38C237.31 130.71 239.81 137.26 235.57 139.42C232.79 140.83 223.89 128.38 227.1 126.01C229.87 128.9 227.99 127.86 230.94 130.52C232.19 131.65 234.1 131.91 235.5 130.55C236.51 129.56 237.2 127.89 237.6 126.62C238.24 124.63 239.53 124.88 241.06 124.91L243.8 124.94C244.72 128.49 244.26 131.9 244.12 135.38" fill="#90BEFA"/>
<path d="M685.86 175.68L686.03 180.86C686.06 182.19 684.68 182.91 683.45 182.62C679.08 181.6 678.97 184.12 676.8 181.18C673.99 177.33 676.16 178.44 673.07 175.4L672.56 173.82C671.99 176.71 672.93 179.08 674.52 181.68C672.87 182.69 670.73 182.84 669.05 181.96C667.95 181.38 668.7 179.83 668.71 178.92L668.82 159.24L669.13 155.95C669.28 154.47 669.22 153.29 670.09 152.16C670.7 153.15 670.81 154.16 671.21 155.04C671.88 156.49 672.57 158.07 673.41 159.38L675.29 162.28C676.16 163.64 678.1 166.46 679.63 166.56C680.2 166.61 681.21 166.05 681.71 165.58C684.05 163.44 683.62 159.62 685.73 155.95C686.62 161.32 685.65 163 684.26 167.86C683.91 169.13 682.47 171.12 681.22 171.54C678.74 172.37 675.84 167.5 674.78 165.65L672.24 161.25C670.99 162.29 671.14 164.05 672.09 165.49C673.53 167.66 671.83 166.56 673.68 169.88C675.47 173.12 680.04 183.41 683.67 178.6L685.87 175.68H685.86Z" fill="#90BEFA"/>
<path d="M686.14 139.79C685.86 146.89 683.68 147.28 682.13 153.52C681.69 155.29 681.23 157.79 678.9 158C677.43 158.12 675.8 156.38 675.03 155.22L673.06 152.28C672.2 151 670.97 149.77 669.67 148.52L669.3 144.76C668.95 143.32 668.58 142.21 668.9 140.84C671.62 143.46 674.01 151.96 678.09 151.97C678.81 151.97 679.89 151.1 680.34 150.29L682.89 145.52C683.2 144.97 682.97 143.49 683.1 142.69C683.62 139.68 683.97 135.46 683.73 132.83C683.68 132.51 683.03 131.62 682.86 131.77C679.36 135.04 681.82 141.66 677.58 143.81C674.8 145.22 665.91 132.78 669.12 130.41C671.89 133.29 670.01 132.24 672.96 134.91C674.21 136.06 676.13 136.3 677.5 134.94C678.51 133.96 679.2 132.29 679.61 131.01C680.25 129.02 681.52 129.27 683.05 129.3L685.8 129.35C686.7 132.9 686.24 136.29 686.12 139.79" fill="#90BEFA"/>
<path d="M164.1 105.7L160.55 110.36C159.71 111.45 159.07 112.59 157.69 113.37C156.82 111.95 158.16 111.21 158.48 110.14C159.47 106.82 162.87 97.9799 157.41 97.4499C155.97 97.3099 154.03 98.7199 152.76 99.2699C149.69 100.6 147.27 102.4 144.88 104.64C143.56 105.86 142.1 107.07 141.13 108.54C140.59 109.35 140.3 109.64 139.59 109.95C139.01 110.21 137.4 108.89 137.92 108.33C140.51 105.49 143.14 102.84 145.95 100.27L149.16 97.3299L150.45 98.0499C151.21 97.6699 152.41 97.2199 153.11 96.7799L158.85 93.2799C159.97 92.5899 161.66 92.1499 162.73 93.0699C166.17 96.0499 160.89 104.31 164.09 105.7" fill="#90BEFA"/>
<path d="M628.09 223.4L624.36 222.96C621.84 222.65 619.15 224.14 619.39 227.07C619.66 230.47 621.94 231.34 621.29 232.88C621.12 233.29 619.73 233.28 619.44 232.85L615.95 227.68C614.68 225.8 612.77 223.84 612.71 221.47C612.68 219.79 615.49 218.43 616.78 218.73C621.75 219.97 621.95 218.27 627.27 221.54C627.76 221.83 628 222.6 628.1 223.39" fill="#90BEFA"/>
<path d="M155.43 108.9C152.86 115.63 156.81 114.21 150.83 120.2L150.02 119.21C151.79 116.7 151.75 112.99 149.36 111.23C145.98 108.74 142.48 113.86 141.36 112.3C141.04 111.84 141.42 110.79 141.87 110.49C143.67 109.31 145.19 108.24 146.83 106.9C148.71 105.37 151.05 103.89 153.74 104.41C154.8 105.16 155.93 107.61 155.44 108.91" fill="#90BEFA"/>
<path d="M737.01 90.0301C736.29 90.9301 734.47 91.9101 733.4 91.8001C732.02 91.6601 730.52 90.8201 729.39 90.9301C722.55 91.5401 722.08 86.1701 720.2 87.6601C719.92 87.8701 719.39 88.6101 719.39 89.0101L719.36 97.7C716.21 98.02 713.67 96.1601 710.31 98.6601C709.71 99.1201 709.26 100.69 709.42 101.49C709.57 102.19 710.47 103.05 711.36 103.55C715.79 106.03 719.39 103.92 719.79 106.78C719.88 107.44 719.59 108.78 719.13 109.2L716.84 107.23C711.84 106.13 710.81 105.87 706.84 108.25C705.68 108.95 705.16 110.15 705.43 111.42C706.1 114.71 713.93 114.94 716.84 112.72L719.29 110.85C720.05 111.84 719.5 112.85 719.49 113.92L719.11 140.44C719.08 142.18 715.43 151.73 715.1 153.74C714.95 154.67 714.49 155.65 713.98 155.96C710.78 157.87 707.82 153.08 706.5 150.45C704.99 147.42 703.67 150.4 702.71 143.97L702.05 139.67C703.43 140.27 703.95 141.08 704.48 142.3C705.87 145.51 708.09 148.74 710.89 150.83C713.87 150.26 714.94 147.33 715.65 144.87C716.28 142.7 716.72 140.94 717 138.74C717.32 136.06 718.38 129.79 716.59 128.07C716.35 127.84 715.63 128.77 715.58 129.17C715.11 132.35 714.36 136.02 713.51 139.4C713.08 141.08 711.91 142.66 709.95 142.23C708.41 141.91 707.41 140.35 706.39 139.26C704.49 137.27 703.04 135.35 702.32 132.62L701.71 130.33C701.63 130.04 702.09 129.25 702.37 129.17C703.81 128.79 704.63 133.04 707.74 134.16C710.06 134.99 711.64 132.97 712.6 131.22C713.1 130.32 714.18 128.6 713.59 127.81C712.55 125.53 705.62 127.63 702.6 126.98C702.17 126.63 701.94 125.18 702.19 124.7C702.45 124.23 703.67 123.98 704.25 124.07C707.95 124.58 714.47 121.21 712.54 117.88C710.93 115.11 706.3 115.75 703.5 117.37C703.12 117.6 702.12 117.16 702.14 116.79V98.2301C704.45 97.0401 707 98 708.15 95.77C708.53 95.01 708.1 93.54 707.43 92.85C703.47 88.84 702.06 91.1801 702.09 85.9801C702.09 84.8601 702.14 83.3301 702.64 82.5501C704.72 82.2401 706.62 82.0101 708.51 81.3601C709.89 80.8801 711.92 79.28 711.45 77.71C710.85 75.71 708.22 74.47 706.25 74.31L703.51 75.3701C703.19 75.5101 702.36 74.8 702.41 74.45C702.58 72.95 705.02 73.6901 706.51 73.6401C709.83 73.5201 713.12 73.55 716.43 73.78C717.21 73.84 719.2 73.4001 719.27 74.7301C719.41 77.4701 719.38 79.7 719.32 82.74C716.22 81.96 715.42 79.5901 711.75 81.6901C709.66 82.9001 707.15 83.8501 705.85 86.0501C705.31 86.9401 706.28 88.3601 706.87 88.8201C707.77 89.5101 708.94 89.71 710.17 89.74C714.36 89.86 716.04 88.2401 719.48 85.5801C722.03 87.7801 728.53 88.6101 730.47 85.0401C732.24 81.7501 727.47 79.79 728.68 77.53C728.93 77.07 730.29 77.16 730.55 77.64C732.34 81.08 738.79 87.8201 737 90.0401" fill="#90BEFA"/>
<path d="M709.84 180.58C707.1 181.39 705.48 176.31 705.76 173.79C706.77 173.88 707.38 174.34 707.84 175.11L710.12 178.98C710.3 179.29 710.18 180.49 709.84 180.58ZM717.04 215.39C717.73 215.89 718.58 216.48 719.24 216.84C719.93 215.8 719.93 214.7 719.41 213.93C718.91 213.18 717.88 213.03 716.78 213.03C714 213.03 709.24 211.3 709.38 208.09C709.44 206.64 713.36 203.72 717.32 205.61C717.85 205.87 719.17 205.66 719.46 205.21C719.78 204.75 719.58 203.74 719.52 202.99C719.32 200.64 719.34 198.26 719.47 195.85C719.52 194.99 719.53 194.17 719.18 193.51C715.34 196.8 710.98 199.44 706.43 196.25C705.88 195.85 705.62 194.28 705.91 193.67C706.69 192.03 710.48 189.78 712.67 189.16C715.22 188.43 716.94 189.04 719.31 191.06L719.46 178.34C719.48 177.48 719.89 175.95 719.6 175.28C719.51 175.1 718.56 174.78 718.45 174.96L718.01 175.89C717.44 177.05 716.4 178.99 714.6 178.54C713.15 178.17 711.71 176.37 710.93 175.01C709.11 171.84 703.18 162.53 705.14 159.46L710.29 167.2C711.13 168.48 712.25 169.83 713.91 170.23C716.28 170.8 718.16 165.52 718.34 164.54L719.73 157.03C719.9 156.11 719.84 154.89 718.94 154.31C716.71 157.55 719.35 157.69 716.39 162.46C715.87 163.3 715.21 164.28 714.56 164.57C711.56 165.87 708.98 161.16 707.25 158.53C706.48 157.37 705.8 156.28 705.25 155.03L703.34 150.67C702.64 152.12 702.51 153.48 702.42 154.94L702.22 158.52L702.16 181.98C702.14 184.7 710.05 179.7 711.75 186.29C707.51 191.92 705.02 188.74 702.18 190.8L702.13 195.91C702.1 198.39 705.49 197.52 708.22 201.61C708.69 202.33 708.1 203.83 707.41 204.41C705.99 205.63 704.24 205.79 702.19 205.85L702.08 222.88C702.08 223.58 701.96 224.49 702.29 224.85C702.6 225.16 703.84 225.26 704.22 224.99C706.65 223.26 710.35 222.87 712.51 225.51C713.17 226.35 712.79 228.31 712.01 229.07C706.83 234.09 700.51 230.45 702.38 234.12C702.96 235.3 704.52 234.76 705.53 234.75L718.91 234.61C720.01 234.06 719.51 232.56 719.48 231.67C719.37 228.01 719.37 224.48 719.45 220.83C719.48 219.94 720.23 218.95 718.93 218.37C715.9 222.44 710.81 223.52 706.5 220.72C705.71 220.22 705.31 219.13 705.43 218.03C705.77 214.96 713.5 212.83 717.07 215.4" fill="#90BEFA"/>
<path d="M769.69 111.11C769.78 111.54 769.34 112.47 768.99 112.82L764.78 117.04C763.25 118.55 763.34 117.8 758.56 116C757 115.42 755.56 114.96 753.88 114.55C753.54 116.61 755.52 116.35 756.59 117.01C757.71 117.71 758.7 118.57 760.01 118.68C760.48 118.73 761.29 119.46 761.25 119.87C761.14 121.06 758.99 123.07 757.44 123.51L746.89 113.08C744.61 110.82 742.04 108.86 740.13 106.3L738.1 103.56C737.38 102.61 736.72 101.82 735.85 101.05L735.13 100.41C734.93 100.24 735.65 99.52 735.76 99.62C736.27 100.14 737.24 101.22 737.76 101.61L741.31 103.57L751.37 105.7C752.5 105.94 754.21 105.04 754.78 104.26C757.06 101.11 751.63 95.47 750.09 92.04C751.39 92.47 751.94 93.13 752.78 94.07C755.72 97.36 758.55 101.03 759.63 105.51C760.04 107.22 757.81 108.87 756.24 108.91C754.37 108.97 752.75 108.44 751.06 107.93L745.63 106.29C744.88 106.06 744.05 106.15 743.6 106.61C745.5 108.17 747.04 109.24 748.89 110.42C750.07 111.17 750.91 111.6 752.44 111.67C755.36 111.82 756.87 113.96 762.79 113.96C764.62 113.96 766.83 112.06 766.17 110.38C765.65 109.05 765.25 108.27 765.21 106.8C768.09 108.31 765.85 107.72 768.56 109.77C769.05 110.15 769.63 110.67 769.71 111.1" fill="#90BEFA"/>
<path d="M543.37 128C543.61 127.59 544.84 127.91 545.19 128.2C546.75 130.55 547.77 132.86 547.44 136.17C545.48 135.88 546.55 134.24 543.91 131.31C543.21 130.53 542.82 128.88 543.38 128.01M543.22 120.12C547.12 117.49 550.93 119.61 550.88 117.21L550.74 111.43C548.46 110.3 546.61 109.35 545.01 107.42C544.28 106.52 544.83 104.94 545.5 104.24C547.43 102.17 549.35 103.95 550.84 102.79L550.81 83.5701C547.75 83.1301 546.74 86.2201 541.96 84.1701C541.24 83.8601 540.32 83.0501 540.22 82.4101C539.79 79.9301 542.57 78.2401 544.79 77.3501C549 75.6501 550.69 77.1501 551.11 75.6101C551.23 75.1701 550.64 74.1301 550.24 73.8801C549.84 73.6401 548.92 73.8701 548.27 73.8701L534.4 73.9301C533.76 74.7601 533.47 76.1201 533.51 77.1701L533.86 83.7601L534.03 89.3901C537.39 88.5001 536.14 86.4901 541.32 86.6701C543.25 86.7301 545.19 86.6401 546.73 87.8901C547.31 88.3501 547.97 89.2801 548 89.8501C548.03 90.5201 547.49 91.4601 546.95 91.9601C543.14 95.5501 537.48 95.4501 533.87 91.2601C533.5 92.2801 533.3 94.3901 533.99 94.9901C537.86 97.2401 537.95 93.9501 543.46 98.5401C544.06 99.0301 544.07 100.91 543.58 101.54C542.46 102.9 538.66 104.42 535.72 102.92C535.28 102.69 533.95 102.81 533.82 103.26C533.5 104.5 534.02 110.14 533.67 113.17C533.62 113.6 533.78 114.49 534.13 114.58C535.2 114.9 534.99 113.55 538.95 111.78C541.64 110.57 544.94 110.31 547.02 112.97C548.98 115.46 540.64 121.41 536.84 119.42L534.13 118C533.61 119.74 533.43 121.21 533.73 122.91C534.48 127.24 533.01 128.37 533.73 133.69C535.72 133.29 535.43 129.64 538.45 130.28C541.42 130.92 544.46 137.27 545.8 140.1C546.15 140.82 547.02 141.92 547.22 142.59L548.5 146.75C548.82 147.82 548.9 148.65 548.21 149.65L543.64 142.59C542.49 140.82 540.03 136.98 537.68 138.89C536.27 140.05 535.4 141.93 534.94 143.77L534.08 147.26C533.7 148.82 533.96 150.58 534 152.38C537.01 151.94 533.54 146.39 540.15 143.39C542.63 144.17 546.63 151.1 547.63 153.19C548.4 154.78 548.88 156.16 549.89 157.82C550.5 156.5 550.67 155.31 550.47 153.75C550.32 152.46 550.76 150.97 550.76 149.7L550.81 126.09C548.1 125.6 543.73 126.7 541.83 123.93C541.05 122.77 542.12 120.86 543.21 120.14" fill="#90BEFA"/>
<path d="M550.88 193.35L550.79 210.83C548.5 210.72 546.22 210.91 545.15 212.85C543.7 215.5 548.09 217.64 549.81 218.6C550.31 218.89 550.9 219.96 550.88 220.7L550.76 225.81C550.38 226.37 548.94 226.33 548.24 226.34C545.82 226.39 541.16 228.53 541.6 231.13C541.69 231.71 542.52 232.52 543.18 232.75L547.52 234.25L549.77 233.21C550.11 233.06 550.76 234.25 550.49 234.51C549.11 235.87 548.12 234.34 545.8 234.74C540.17 235.7 541.72 234.17 537.22 234.75C536.21 234.89 533.83 235.21 533.69 233.51C533.64 232.76 533.26 225.63 534.19 225.83C535.8 226.15 536.62 227.6 538 227.63C542.79 227.71 550 222.37 546.5 219.91C544.57 218.55 542.17 218.82 539.76 219.21C536.58 219.73 533.75 224.82 533.78 220.71L533.8 216.72C533.8 215.19 533.82 213.89 533.68 212.3C533.36 208.35 539.34 214.17 543.54 209.13C544.53 207.95 543.62 206.36 542.5 205.58C537.84 202.35 533.63 204.55 533.54 201.82C533.51 201.15 533.8 200.25 534.26 199.63C536.43 201.66 538.28 202.2 540.96 202.15C544.31 202.09 548.48 200.32 547.93 197.1C547.79 196.31 546.66 195.57 545.62 195.13C541.51 193.31 537.97 194.59 534.34 197.13C533.16 196.14 533.99 194.82 533.93 193.63C533.81 191.44 533.38 189.38 533.82 187.27C534.11 185.85 533.74 184.43 533.7 182.99C533.49 176.31 533.46 172.13 534.05 165.5C534.16 164.32 534.72 163.47 535.5 162.5C536.07 161.8 535.99 159.87 536.39 159.03C537.11 157.52 537.87 156.28 538.26 154.7C538.55 153.49 539.16 152.5 540.11 152.3C541.49 152.02 542.65 152.35 543.46 153.39L545.62 156.13C546.32 157.02 547.2 158.75 547.93 159.42C548.94 160.31 550.04 160.23 550.19 161.81C550.42 164.29 550.72 166.4 550.8 169.07C549.61 167.88 549.36 167.16 548.72 166.03C547.21 163.39 545.56 160.52 543.26 158.4C542.71 157.9 540.69 157.94 540.31 158.55C536.75 164.36 537.14 162.86 535.95 170.74C535.66 172.71 535.58 177.36 536.32 179.44C536.41 179.68 537.44 179.73 537.5 179.42L538.85 173.33C539.25 171.53 540.03 166.51 542.32 166.13C544.4 165.78 546.51 168.78 547.63 170.18C548.1 170.78 549.14 171.62 549.44 172.3L551 176.02C551.41 177.01 551.24 178.18 550.53 179.26L547.18 175.31C545.94 173.86 543.69 173.69 542.29 175.25C541.14 176.53 538.82 179.49 539.74 181.09C539.95 181.47 540.83 181.93 541.28 181.93H547.93L550.27 180.8C551.23 181.27 551.26 184.07 550.03 184.26C546.94 184.75 543.94 184.63 541.57 186.97C540.71 187.81 539.41 189.58 540.56 190.76C542.53 192.81 546.23 193.28 548.54 191.77C549.18 191.36 550.01 190.99 550.5 191.2C551.39 191.58 550.93 192.53 550.93 193.34" fill="#90BEFA"/>
<path d="M211.21 213.85C212.62 215.29 213.41 216.99 212.34 218.71C211.41 220.19 209.39 221.06 207.45 219.96C204.44 218.23 200.77 215.14 201.58 211.67C201.78 210.86 202.86 209.76 203.93 209.76C207.11 209.77 209.22 211.79 211.21 213.84M236.32 192.38L226.75 182.9C226.48 182.64 225.31 182.7 225.39 182.96L225.7 184.08C227.89 185.43 232.08 189.65 229.95 191.82C227.43 194.39 223.68 191.59 221.68 189.51C221.21 189.04 220.14 188.47 219.49 188.58L215.51 192.62C214.26 193.91 217.18 197.28 216.7 199.26C216.32 200.84 215.19 201.94 214.01 202.1C211.04 202.51 210.66 199.36 208.93 199.46C208.46 199.49 207.88 200.41 207.45 200.82L199.45 208.95C197.6 210.83 194.91 212.33 195.52 213.57C195.76 214.06 201.01 215.36 202.42 219.64C202.96 221.28 200.85 222.74 199.36 222.82C196.03 222.99 193.41 220.94 190.93 218.61C190.38 218.11 188.48 218.58 188.27 219.3C187.9 220.54 189.68 221.23 190.38 221.82C194.68 225.52 195.98 228.06 199.89 231.33C200.58 231.91 202.34 230.75 202.79 230.18C204.81 227.69 207.3 225.33 209.63 223.13L214.94 218.1C215.35 217.7 215.84 216.77 215.77 216.19C215.71 215.7 214.96 215.2 214.35 214.72C213.34 213.92 212.59 212.55 211.83 211.42C210.7 209.75 210.41 207.7 212.01 206.33C213.49 205.06 215.31 205.32 216.98 206.74C220.02 209.34 219.96 211.2 221.05 211.3C221.89 211.39 222.78 210.12 224.38 208.55L230.19 202.86L229.5 201.99C225.71 204.22 218.63 198.99 218.81 195.22C218.87 194.06 221.21 192.99 222.27 193.08C225.82 193.42 231.77 196.23 231.63 200.76C232.58 200.36 233.28 199.63 234.03 198.76C235.12 197.49 236.54 196.25 237.67 195.15C238.88 193.96 237.06 193.13 236.32 192.4" fill="#90BEFA"/>
<path d="M176.5 230.45C176.73 230.88 175.4 232.24 175 231.84L168.3 225.19C167.95 224.84 167.38 223.92 166.97 223.63C165.84 222.85 164.71 221.73 164.29 220.66C164.89 220.22 165.53 219.82 165.5 219.48C165.49 219.14 164.78 218.61 164.58 218.29L160.08 211.03C159.32 209.79 158.66 208.23 159.7 206.98C160.94 205.5 162.76 205.7 164.44 205.91L170.71 206.72C171.01 206.75 171.69 206.6 172.04 206.43L170.69 204.5C169.13 204.25 167.68 202.71 166.29 202.4L156.89 200.35C155.18 199.98 152.91 201.19 152.36 202.95C151.92 204.39 152.91 206.01 153.63 207.22L155.98 211.17C157.11 213.05 159.19 214.2 159.94 216.6C155.51 213.11 148.69 205.48 148.23 199.86C149.36 195.21 156.63 197.93 160.05 199.03C161.5 199.5 162.77 200.76 164.51 199.29C162.55 197.78 160.53 196.49 158.26 195.27C157.14 194.67 155.57 194.52 154.31 194.09C151.89 193.26 144.06 190.37 142.27 193.54C141.15 195.51 142.58 197.09 143.07 199.34C141.89 199.05 137.14 195.04 138.37 193.8L143.49 188.65C144.62 187.52 146 188.37 146.87 189.08C146.78 189.02 153.02 191.48 153.67 191.1C153.38 189.46 152.11 189.46 151.15 188.82C147.27 186.22 148.23 188.21 146.84 186.72C145.95 185.77 148.71 183.31 149.78 182.59C150.51 182.93 151.34 183.55 151.81 184.12C153.05 185.59 154.39 186.66 155.74 187.96L161.72 193.68C166.87 198.6 167.24 198.96 171.65 204.69C173.62 207.24 177.71 209.25 179.07 211.98C175.11 210.79 171.7 209.47 167.63 209.06C166.38 208.94 164.05 210.71 164.01 211.87C163.96 213.66 165.17 215.25 165.78 216.7C167.23 220.14 169.43 222.57 171.87 225.29L175.31 229.13C175.77 229.65 176.29 230.06 176.49 230.45" fill="#90BEFA"/>
<path d="M186.06 219.01L182.31 218.55C179.79 218.26 177.1 219.74 177.34 222.68C177.63 226.08 179.89 226.93 179.25 228.49C179.08 228.89 177.67 228.89 177.43 228.5L173.9 223.29C172.65 221.41 170.73 219.44 170.67 217.07C170.62 215.4 173.45 214.03 174.72 214.35C179.69 215.57 179.89 213.89 185.21 217.15C185.7 217.46 185.96 218.22 186.05 219.02" fill="#90BEFA"/>
<path d="M88.0299 211.49C87.3099 214.9 82.1099 219.84 79.3399 218.63C78.3299 218.19 77.2399 216.26 77.4599 215.31C78.1899 212.01 80.4399 209.88 82.9999 207.97C84.1599 207.1 85.5699 206.96 86.8199 207.63C87.9999 208.27 88.3499 210.02 88.0299 211.48M98.4999 218.13L88.9099 208.63C86.4299 206.18 85.1199 203.25 83.4799 204.81C81.3699 206.8 77.5899 210.41 74.9599 208.86C74.0299 208.32 72.9999 206.9 73.2899 205.74C74.0399 202.7 76.3499 201.24 78.6299 199.61C79.2999 198.48 77.8699 197.27 77.0999 196.63C73.0199 193.28 73.3399 192.09 69.9999 189.75L70.1799 192.46C70.4599 196.39 65.3899 202.22 62.7599 201.27C60.2999 200.38 60.6999 196.93 61.3199 195.15C61.9899 193.24 65.2199 188.25 67.4199 188.9L68.2899 189.14C68.4399 189.19 68.5199 188.28 68.4099 188.18L62.8999 182.66C62.6399 182.43 61.4599 182.78 61.1399 183.09L55.6199 188.38C54.7299 189.22 48.8299 194.07 50.4199 194.86C50.6599 194.98 51.3799 194.81 51.5499 194.62L54.1499 191.7C55.0999 190.63 57.1299 189.48 58.3999 189.93C60.8299 190.76 60.8299 193.65 59.7599 195.41C58.7799 197 57.7399 198.15 56.4899 199.63C55.7599 200.59 57.5199 202.02 58.1699 202.63L60.8199 205.06L65.7299 203.58C67.2299 203.12 69.5199 204.47 69.8699 205.98C70.6299 209.16 65.3699 209.71 67.6499 211.97L80.0799 224.33C82.0999 226.32 81.9499 219.5 87.2399 217.8C89.2699 217.14 90.6699 219.54 90.5099 221.36C89.9899 227.72 84.5199 228.81 86.2299 230.83C86.5699 231.21 87.8799 231.32 88.2599 230.95L94.2099 225.31L98.5099 221.29C98.8499 220.97 99.3399 220.14 99.3499 219.71C99.3499 219.27 98.8499 218.53 98.4599 218.15" fill="#90BEFA"/>
<path d="M61.54 162.91C62.26 166.32 67.46 171.26 70.23 170.05C71.24 169.61 72.33 167.68 72.11 166.73C71.38 163.43 69.13 161.3 66.57 159.39C65.41 158.52 64 158.38 62.75 159.05C61.57 159.69 61.22 161.44 61.54 162.9M51.07 169.55L60.66 160.05C63.14 157.6 64.45 154.67 66.09 156.23C68.2 158.22 71.98 161.83 74.61 160.28C75.54 159.74 76.57 158.32 76.28 157.16C75.53 154.12 73.22 152.66 70.94 151.03C70.27 149.9 71.7 148.69 72.47 148.05C76.55 144.7 76.23 143.51 79.57 141.17L79.39 143.88C79.11 147.81 84.18 153.64 86.81 152.69C89.27 151.8 88.87 148.35 88.25 146.57C87.58 144.66 84.35 139.67 82.15 140.32L81.28 140.56C81.13 140.61 81.05 139.7 81.16 139.6L86.66 134.08C86.92 133.85 88.1 134.2 88.42 134.51L93.94 139.8C94.83 140.64 100.73 145.49 99.14 146.28C98.9 146.4 98.18 146.23 98.01 146.04L95.41 143.12C94.46 142.05 92.43 140.9 91.16 141.35C88.73 142.18 88.73 145.07 89.8 146.83C90.78 148.42 91.82 149.57 93.07 151.05C93.8 152.01 92.05 153.44 91.39 154.05L88.74 156.48L83.83 155C82.33 154.54 80.04 155.89 79.69 157.4C78.92 160.58 84.19 161.13 81.91 163.39L69.48 175.75C67.46 177.74 67.61 170.92 62.32 169.22C60.29 168.56 58.9 170.96 59.05 172.78C59.57 179.14 65.04 180.23 63.33 182.25C62.99 182.63 61.68 182.74 61.3 182.37L55.35 176.73L51.05 172.71C50.71 172.39 50.22 171.56 50.21 171.14C50.21 170.7 50.72 169.96 51.1 169.58" fill="#90BEFA"/>
<path d="M88.0299 114.33C87.3099 117.74 82.1099 122.68 79.3399 121.47C78.3299 121.03 77.2399 119.1 77.4599 118.15C78.1899 114.85 80.4399 112.72 82.9999 110.81C84.1599 109.94 85.5699 109.8 86.8199 110.47C87.9999 111.11 88.3499 112.86 88.0299 114.32M98.4999 120.97L88.9099 111.47C86.4299 109.02 85.1199 106.09 83.4799 107.65C81.3699 109.64 77.5899 113.25 74.9599 111.7C74.0299 111.16 72.9999 109.74 73.2899 108.58C74.0399 105.54 76.3499 104.08 78.6299 102.45C79.2999 101.32 77.8699 100.11 77.0999 99.47C73.0199 96.12 73.3399 94.93 69.9999 92.59L70.1799 95.3C70.4599 99.23 65.3899 105.06 62.7599 104.11C60.2999 103.22 60.6999 99.77 61.3199 97.99C61.9899 96.08 65.2199 91.09 67.4199 91.74L68.2899 91.98C68.4399 92.03 68.5199 91.12 68.4099 91.02L62.8999 85.5C62.6399 85.27 61.4599 85.62 61.1399 85.93L55.6199 91.22C54.7299 92.06 48.8299 96.91 50.4199 97.7C50.6599 97.82 51.3799 97.65 51.5499 97.46L54.1499 94.54C55.0999 93.47 57.1299 92.32 58.3999 92.77C60.8299 93.6 60.8299 96.49 59.7599 98.25C58.7799 99.84 57.7399 100.99 56.4899 102.47C55.7599 103.43 57.5199 104.86 58.1699 105.47L60.8199 107.9L65.7299 106.42C67.2299 105.96 69.5199 107.31 69.8699 108.82C70.6299 112 65.3699 112.55 67.6499 114.81L80.0799 127.17C82.0999 129.16 81.9499 122.34 87.2399 120.64C89.2699 119.98 90.6699 122.38 90.5099 124.2C89.9899 130.56 84.5199 131.65 86.2299 133.67C86.5699 134.05 87.8799 134.16 88.2599 133.79L94.2099 128.15L98.5099 124.13C98.8499 123.81 99.3399 122.98 99.3499 122.56C99.3499 122.12 98.8499 121.38 98.4599 121" fill="#90BEFA"/>
<path d="M75.5802 48.83C78.2302 51.71 81.4202 60.94 85.7802 60.87C87.5802 60.82 88.6602 58.09 88.7902 56.53C89.1402 52.69 91.2402 50.69 92.0602 45.95C92.7002 42.22 92.9502 38.72 95.6102 35.72C96.0402 35.21 97.3502 34.6 98.0002 34.65C101.1 34.83 105.28 43.37 106.32 46L107.67 49.42C108.1 50.51 108.27 52.02 106.92 52.57C104.96 49.01 103.01 45.69 100.13 43.07C98.9502 42.01 97.3002 43.09 96.6902 44.17L94.7002 47.7C93.5102 49.82 92.9102 51.61 92.5102 54.05L91.7302 58.88C91.3602 61.1 90.6302 67.89 87.5702 68.99C83.8702 70.32 81.0302 63.91 79.4702 61.07L78.1702 58.73L76.9802 56.61C76.3202 55.45 76.3202 53.47 75.9902 52.1C75.7102 50.95 75.4902 50.17 75.5902 48.84M74.8602 78.65C74.5202 78.77 73.5402 78.44 73.3302 78.13L70.0602 73.42C69.1402 72.09 67.9902 70.44 66.1002 70.41C65.2402 70.4 63.9602 71.94 63.6402 72.7C60.9602 78.99 63.5302 79.96 60.3702 83.28C59.5002 82.29 59.1602 81.05 59.2402 79.76L59.5802 74.22C59.7002 71.97 62.0402 62.49 65.0102 62.44C65.9302 62.44 67.3502 63.04 67.9002 63.83L71.8602 69.46C72.7602 70.73 73.3302 72.17 73.9802 73.59C74.2902 74.23 76.5502 78.01 74.8702 78.64M54.4302 81.49C53.3702 82.91 51.1602 83.2 49.8402 81.86C47.3502 79.34 46.5802 76.71 44.4402 73.34C42.6102 70.5 41.5802 67.44 41.5702 63.86C43.0802 64.55 43.4202 65.89 44.1902 67.04L47.1602 71.44C47.9702 72.65 49.5902 74.71 51.1402 74.45C53.6502 74.02 54.6602 71.44 55.0602 69.24L57.0302 66.12L58.2402 57.39C58.6102 54.67 59.8002 48.66 62.8902 48.23C65.3202 47.88 67.2502 50.8 68.4102 52.74L72.6502 59.88C74.0702 62.25 74.4402 65.17 74.3302 68.09C73.4702 67.36 72.9402 66.58 72.4202 65.58C71.6902 64.14 70.7402 62.89 69.8702 61.57C68.6302 59.7 66.6302 56.54 64.2402 56.23C63.5802 56.14 62.7902 57.09 62.3002 57.79C59.1302 62.38 61.7902 61.95 59.3202 67.25C57.0402 72.1 58.1102 76.58 54.4602 81.47M75.0002 38.96C75.2302 38.53 76.4102 38.93 76.6402 39.3L78.6702 42.45C79.5402 43.81 80.2002 44.87 81.5602 45.88C82.2302 46.39 83.7202 47.15 84.4002 46.69C88.5602 43.89 86.2802 38.3 89.0302 34.55C89.5502 33.83 91.0602 35.33 90.9402 36.14L90.2802 40.94C89.9102 43.63 89.9302 45.97 88.9302 48.46C88.4902 49.53 87.6102 55.33 84.1102 54.87C82.1502 54.61 78.4502 49.07 77.4902 46.93L75.8102 43.21C74.8802 42.05 74.2502 40.29 74.9802 38.96M102.34 70.34C97.5802 72.41 99.5002 79.44 97.1102 82.56C96.9302 82.79 95.7802 82.74 95.6602 82.47C94.3102 79.24 96.1502 71.2 97.1402 67.71C97.4802 66.58 99.4502 62.5 101.34 62.47C104.92 62.39 108.34 70.62 110.18 73.89C111.46 72.42 110.18 71.11 110.09 69.7L109.86 65.92L108.53 65.09L106.16 61.57C105.15 60.07 102.63 56.17 100.64 56.28C97.6102 56.46 96.5702 62.87 96.1302 65.56C95.9202 66.77 94.8302 67.96 94.5402 68.97C93.3002 73.24 92.8302 81 88.9102 82.52C85.5502 83.84 81.8602 75.85 80.5602 73.16C78.4202 68.76 78.6802 67.87 76.9802 63.95C76.5502 62.96 76.3402 61.98 77.1302 61.35L78.9802 64.48L82.2202 70C83.4102 72 84.6102 74.28 87.3102 74.37C88.7602 74.43 89.5602 72.93 90.1102 71.68C90.7802 70.14 91.6202 68.82 92.4002 67.41C94.0702 64.41 93.6102 60.71 94.3402 57.47L95.3502 53.05C95.8202 50.94 96.9102 48.86 99.1402 47.99C101.85 46.92 106.05 55.13 107.21 57.18C109.2 60.7 107.52 58.05 108.97 61.09C109.69 62.59 110.58 56.26 110.62 56.26L110.65 32.96C109.84 31.55 104.75 31.48 105.28 33.45C106.01 36.14 108.35 38.48 106.92 41.62L105.76 38.53C104.64 37.37 104.08 36.3 103.63 34.6L101.38 32.11L91.6902 32.25C91.0302 32.25 90.0802 33.89 89.1702 33.06C88.8002 32.74 87.8902 32.36 87.5302 32.57C85.9702 33.5 84.5902 40.95 80.2402 38.23C76.0502 35.62 76.2202 32.22 74.7502 32.21L70.4202 32.13C70.0202 32.13 69.1702 32.8 69.2102 33.14C69.4402 35.07 72.0702 37.3 70.7102 40.82C69.8202 39.84 69.3202 38.98 68.8402 37.91L67.2702 34.33C66.9302 33.6 65.6602 32.2 64.8202 32.17C61.5202 32.09 58.5402 32.02 55.4002 32.31C54.5602 32.39 53.5002 33.03 52.6602 32.66C50.1102 31.56 50.4602 33.93 48.6802 36.94C47.6102 38.74 44.8302 39.6 43.2702 37.84C40.9302 35.19 41.5002 35.01 39.3202 32.84C38.5402 33.38 38.3702 34.43 38.6802 35.42C40.0302 39.84 42.5802 43.79 46.2702 46.49C47.6902 47.53 49.0702 46.38 49.7402 45.31C51.7302 42.05 49.9402 41.92 52.5402 35.43C52.6302 35.19 53.3702 34.8 53.6102 34.74C55.7502 34.19 53.5302 48.33 52.6302 50.05L51.1002 52.9C50.3802 54.26 48.5802 55.64 47.1102 54.44C46.3002 53.78 44.7402 52.5 44.2502 51.63L39.4302 42.98C37.3702 44.46 40.5302 47.02 39.8902 51.74C45.2902 56.28 42.8902 55.18 45.7602 58.47C46.6802 59.51 48.1002 61.24 49.6902 60.96C54.0602 58.67 51.9702 55.07 54.2502 50.48C54.8502 49.26 55.5802 48.28 55.7502 46.86C56.1602 43.62 57.6902 34.15 62.0202 34.6C63.1202 34.72 64.0802 35.49 64.7702 36.53C65.9202 38.24 67.0802 39.91 68.0002 41.67L70.4602 46.29C71.0702 47.44 71.2502 48.57 71.6402 49.99C71.9802 51.32 72.9602 53.58 73.4602 54.93C73.5802 55.24 72.6302 55.76 72.5002 55.45C72.3802 55.2 72.0902 54.5 71.9202 54.24L67.4102 47.13C66.3702 45.51 63.8002 41.64 61.6302 42.94C59.9502 43.97 59.3202 46.15 58.6902 48.03L56.9302 50.26L55.8502 56.36C55.2202 59.8 55.3602 62.9 53.7502 66.19C53.0902 67.52 51.8202 69.92 49.9302 69.26C47.5902 68.45 46.3702 65.77 44.9902 64C43.8302 62.5 43.2002 61.2 42.4102 59.47L40.8702 56.11C40.7802 55.9 39.9402 55.83 39.8602 56.05C39.0602 58.25 39.8602 57.53 39.2602 59.75C38.6502 62.07 38.7702 65.77 38.9802 68.16C39.2102 70.58 38.9802 73.01 39.0302 75.56L39.2102 84.38C39.2602 85.28 42.9402 85.65 43.6602 85.19C44.0102 84.96 44.3902 83.8 44.2402 83.42L43.0002 80.61C42.4502 79.32 42.0102 78.04 42.8602 76.72C43.8102 78.19 45.0302 79.55 45.7202 81.14C46.3502 82.78 46.6802 85.09 49.0902 85.16C51.8002 85.22 54.5602 85.22 57.4502 85.14C58.2902 85.13 59.7902 84.02 60.5702 84.16C61.2102 84.27 62.1902 84.57 62.5402 84.34C63.3002 83.84 65.9602 76.92 68.6402 78.35C73.7602 81.09 73.0302 85.23 75.7702 85.2L80.4302 85.16C81.2902 81.28 77.6202 81.83 78.9502 76.54C80.1902 77.53 80.4002 78.57 81.0502 79.67C81.7802 80.94 82.4102 82.15 82.5802 83.65C83.2702 85.94 91.6002 85.21 94.0502 85.07C94.7802 85.04 96.1902 84.23 96.8302 84.53C100.18 86.1 99.0302 81.81 102.37 79.07C103.12 78.44 105.08 78.38 105.89 78.93C107.71 80.18 108.72 82.03 109.91 83.87C113.98 83.15 105.14 69.86 102.33 70.31" fill="#90BEFA"/>
<path d="M75.9896 252.18C75.8096 250.79 75.1796 249.6 75.6496 247.91L81.6296 257.7C82.3596 258.91 84.6096 260.54 85.9296 260.09C88.4696 259.17 88.8296 256.27 89.0596 253.97C89.2396 252.21 90.5696 250.68 90.9696 249.06L91.9996 244.9C92.6596 242.24 93.7296 234.39 97.6996 233.78C100.39 233.37 103.71 239.77 104.95 242.15C106.46 245.1 107.84 248.17 107.99 251.58C106.38 252.34 106.25 249.99 104.09 246.99C102.93 245.4 100.5 241.27 98.2296 242.04C97.4696 242.3 96.7296 243.2 96.3196 244.03C93.2296 250.22 92.9196 248.89 92.0996 255.35L91.4896 260.17C91.1796 262.68 89.4396 268.44 86.5696 268.51C83.1396 268.59 78.8896 259.61 77.4996 256.96C76.6896 255.43 76.2496 254.04 75.9896 252.19M74.5096 278.22C72.3396 277.84 72.2796 274.02 67.5096 269.95C66.8796 269.42 65.1396 269.64 64.7096 270.26C60.3196 276.53 63.9796 279.42 60.4596 282.19C59.1796 281.82 59.3796 280.31 59.2996 279.25C59.0296 275.15 59.7696 271.56 60.9496 267.78C61.2896 266.69 62.2196 261.97 65.0496 261.62C66.0296 261.5 67.2396 262.2 67.8496 263C70.7896 266.84 74.4396 272.79 75.5296 277.28C75.6096 277.59 74.8096 278.29 74.5196 278.23M57.3796 273.85L56.0296 277.95C55.4196 279.8 54.1296 281.6 52.2996 282.14C49.4396 282.95 45.4596 274.54 44.2396 272.31C42.7396 269.57 41.6896 266.71 41.6696 263.39C42.4496 263.59 43.2896 264.17 43.6296 264.83C44.5196 266.65 49.8796 276.53 52.4196 273.47C53.0596 272.69 53.8296 271.71 54.1896 270.93L56.5296 265.82C58.3496 261.83 57.0796 258.24 59.3096 251.77C59.9796 249.8 61.2396 247.43 63.2496 247.04C63.9196 246.9 65.1496 247.67 65.6396 248.33C68.0096 251.54 73.3796 259.14 73.8496 262.7L74.5696 268.21L70.0696 261.21C68.8896 259.39 67.9096 257.62 66.0796 256.29C65.3196 255.74 63.7196 255.45 63.0496 256.21C62.2996 257.07 61.1196 258.55 60.9996 259.53C60.5296 263.45 59.3596 266.56 57.9696 270.22C57.6496 271.08 57.6796 272.88 57.3596 273.86M74.8396 238.14C77.1196 238.06 76.3896 238.46 78.7596 241.86C79.7196 243.27 80.7796 244.81 82.2896 245.61C83.7096 246.34 84.9796 245.78 85.8796 244.48C88.3696 240.92 86.3496 236.59 89.5496 233.42C91.9996 235.45 90.3896 237.53 90.2396 241.13C90.1496 243.61 89.6696 245.57 88.8796 247.92C88.0996 250.31 87.6296 253.23 84.8596 254.3C83.2696 254.91 80.2596 250.68 79.3996 249.25L77.6396 246.39C76.8296 245.06 76.3096 243.61 75.7096 242.31C75.0396 240.89 74.3296 239.66 74.8396 238.15M107.61 274.27L105.67 271.7C104.86 270.64 103.22 269.04 101.63 269.89C100.39 270.56 99.3996 272.49 99.1696 273.9C98.9396 275.22 97.8096 282.68 96.2196 282.14C94.0296 281.41 95.9096 273.33 96.2096 271.16C96.4796 269.19 96.4996 267.73 97.4896 266.1C98.2996 264.77 98.9996 263.48 99.9396 262.26C101.55 260.12 104.7 263.67 105.55 264.88C108.82 269.45 107.75 269.71 110.54 273.06C111.17 269.34 109.68 269.5 109.82 264.51C108.49 264.07 107.94 263.44 107.27 262.46L105.16 259.37C104.3 258.12 101.2 254.71 99.3996 255.9C96.9196 257.57 96.5896 266.01 94.4796 268.39L93.2396 274.16C92.7196 276.61 91.8496 279.76 90.0896 281.35C88.9896 282.34 87.2496 282.54 86.1596 281.32C83.8396 278.72 80.7196 273.43 79.6296 270.23L77.9596 265.34C77.4696 263.92 76.3896 262.56 77.2996 260.92L83.3896 270.98C84.1396 272.2 86.0196 274.04 87.2896 273.9C89.9196 273.35 90.0896 270.6 91.1096 268.79C91.6096 267.89 92.6696 266.85 92.8696 265.85C93.3096 263.6 93.7396 261.58 94.0296 259.38C94.4596 256.06 95.1496 250.79 97.4696 248.45C98.0496 247.87 99.1196 247.01 99.7796 247.07C102.3 247.3 105.88 254.09 107.09 256.44L109.05 260.29C110.17 260.95 110.64 254.88 110.64 254.98L110.69 232.04C109.13 230.77 106.81 230.8 105.38 232.24L106.68 236.34C107.12 237.76 107.78 239.14 107.11 240.68L104.49 235.66C103.73 234.18 103.45 232.94 101.77 231.95C99.9396 230.85 97.8096 231.32 95.5896 231.46L91.8096 231.69C89.3796 234.15 87.0196 230.51 86.2096 233.55C85.7496 235.25 84.6196 237.31 82.8496 237.82C80.6596 238.43 78.6296 236.69 77.5696 235.04L75.4696 231.78L71.0396 231.2C70.5696 231.14 69.3996 231.8 69.3396 232.27C69.1596 233.84 72.1996 237.12 70.7296 240.33L68.0096 235.33C67.2496 233.92 66.7096 232.04 64.8596 231.51C62.8996 230.93 60.6696 231.33 58.5696 231.5L53.4496 231.9C52.7896 231.96 50.9596 231.41 50.6996 232.02L49.2496 235.51C48.7496 236.7 47.3096 237.79 46.2996 237.87C43.6396 238.08 41.9296 236.14 40.7196 233.7C38.8196 229.89 36.3496 235.55 43.7796 243.52C44.6696 244.47 45.9996 246.38 47.4496 246.12C50.3396 245.61 50.7096 242.77 51.0696 240.51C51.2496 239.32 52.1296 233.69 53.2696 234.09C55.0896 234.72 54.5196 239.14 54.3096 240.8C53.8396 244.47 52.6596 252.64 48.9596 254.26C45.8296 255.64 40.7896 244.7 39.5696 242.44C37.2796 244.25 40.2896 244.23 39.8796 250.68C39.8696 250.92 39.9296 251.81 40.1596 251.86L41.0796 252.06L43.2096 253.92C44.1696 255.68 48.0596 262.01 50.6296 259.9C52.5296 258.32 52.9796 255.68 53.2896 253.35C53.5796 251.18 54.8296 249.18 55.3496 247.08L57.6096 237.93C58.0796 236.07 59.5696 234.28 61.6196 233.8C64.7496 233.08 70.5196 245.42 71.3896 248.05L72.9496 252.77C73.0596 253.09 73.2396 253.79 73.3196 254.13C73.3796 254.36 72.2796 254.27 72.1296 253.99C70.3296 250.85 67.3696 246.08 64.8396 243.12C63.6196 241.68 61.5696 241.93 60.6496 243.07C59.5796 244.38 59.2096 245.62 58.6596 247.17C58.2596 248.32 56.6596 249.71 56.5196 250.98L55.8496 256.96C55.4996 260.08 54.4996 267.73 50.8296 268.49C49.2396 268.83 47.8796 267.37 47.0396 266.21C45.5696 264.16 44.2596 262.11 43.0496 259.94L40.5696 255.44C38.5696 257.78 39.2996 261.92 39.0296 265.92C38.9696 267.01 38.9996 267.94 39.0396 269.04C39.2196 273.15 39.2096 277.18 39.0896 281.32C39.0596 282.01 38.6896 283.28 39.1496 283.75C40.2796 284.93 44.8696 285.28 44.1996 283.23C43.5996 281.37 40.8796 275.37 43.0396 275.54L45.7796 280.6C46.5996 282.13 46.6696 283.66 48.8496 284.36C50.7796 284.99 53.1296 284.47 55.2996 284.45C56.9796 284.44 58.2396 284.54 59.8096 283.58L62.8796 283.99C63.8096 281.67 65.8496 276.25 69.0396 277.93C74.9896 281.06 72.1896 284.92 77.3696 284.43L80.5696 284.12C80.2896 279.5 78.4296 280.08 78.7496 275.92L79.8096 275.94L80.9396 279.18C81.8896 280.19 82.2096 281.52 82.7796 282.59C84.1696 285.21 88.0096 284.9 90.5496 284.32L93.7496 284.61C96.3296 282.15 99.0696 285.71 99.7596 282.55C100.25 280.24 103.26 276.14 105.86 278.27C109.53 281.3 107.85 281.31 110.43 283.41C112.59 281.41 108.67 275.61 107.65 274.25" fill="#90BEFA"/>
<path d="M803.45 52.76C802.73 53.66 800.91 54.64 799.84 54.53C798.46 54.39 796.96 53.55 795.83 53.66C788.99 54.27 788.52 48.9 786.64 50.39C786.37 50.6 785.83 51.34 785.83 51.74L785.8 60.42C782.65 60.74 780.11 58.88 776.75 61.38C776.15 61.84 775.7 63.41 775.86 64.21C776.01 64.91 776.91 65.77 777.8 66.27C782.23 68.75 785.83 66.64 786.23 69.5C786.32 70.16 786.03 71.5 785.57 71.92L783.28 69.95C778.28 68.85 777.25 68.59 773.28 70.97C772.12 71.67 771.6 72.87 771.87 74.14C772.54 77.43 780.37 77.66 783.28 75.44L785.73 73.57C786.49 74.56 785.94 75.57 785.93 76.64L785.55 103.16C785.52 104.9 781.87 114.45 781.54 116.46C781.39 117.39 780.93 118.37 780.42 118.68C777.22 120.59 774.26 115.8 772.94 113.17C771.43 110.14 770.11 113.12 769.15 106.69L768.49 102.39C769.87 102.99 770.39 103.8 770.92 105.02C772.31 108.23 774.53 111.46 777.33 113.55C780.31 112.98 781.38 110.05 782.09 107.59C782.72 105.42 783.16 103.66 783.44 101.46C783.76 98.78 784.82 92.51 783.03 90.79C782.79 90.56 782.07 91.49 782.02 91.89C781.55 95.07 780.8 98.74 779.95 102.12C779.52 103.8 778.35 105.38 776.39 104.95C774.85 104.63 773.85 103.07 772.83 101.98C770.93 99.99 769.48 98.06 768.76 95.34L768.15 93.05C768.07 92.76 768.53 91.96 768.81 91.89C770.25 91.51 771.07 95.76 774.18 96.88C776.5 97.71 778.08 95.69 779.04 93.94C779.54 93.04 780.62 91.33 780.03 90.53C778.99 88.25 772.06 90.35 769.04 89.7C768.61 89.35 768.38 87.9 768.63 87.42C768.89 86.95 770.11 86.7 770.69 86.79C774.39 87.29 780.9 83.93 778.98 80.6C777.37 77.83 772.74 78.47 769.94 80.09C769.56 80.32 768.56 79.88 768.58 79.51V60.95C770.89 59.76 773.44 60.72 774.59 58.49C774.97 57.73 774.54 56.26 773.87 55.57C769.91 51.56 768.5 53.9 768.53 48.7C768.53 47.58 768.58 46.05 769.08 45.27C771.16 44.96 773.06 44.73 774.95 44.08C776.33 43.61 778.36 42 777.89 40.43C777.29 38.43 774.66 37.19 772.69 37.04L769.95 38.09C769.63 38.23 768.8 37.52 768.85 37.17C769.02 35.67 771.46 36.41 772.95 36.36C776.27 36.24 779.56 36.27 782.87 36.5C783.65 36.56 785.64 36.12 785.71 37.45C785.85 40.19 785.82 42.42 785.76 45.46C782.66 44.68 781.86 42.31 778.19 44.41C776.1 45.62 773.59 46.57 772.29 48.77C771.75 49.66 772.72 51.08 773.31 51.54C774.21 52.23 775.38 52.43 776.61 52.46C780.8 52.58 782.48 50.96 785.92 48.3C788.47 50.5 794.97 51.33 796.91 47.76C798.68 44.47 793.91 42.51 795.12 40.25C795.36 39.79 796.73 39.88 796.99 40.36C798.78 43.8 805.23 50.54 803.44 52.76" fill="#90BEFA"/>
<path d="M776.27 143.32C773.53 144.13 771.91 139.05 772.19 136.53C773.2 136.62 773.81 137.08 774.27 137.85L776.55 141.72C776.73 142.03 776.61 143.23 776.27 143.32ZM783.47 178.13C784.16 178.64 785.01 179.22 785.67 179.58C786.36 178.54 786.36 177.44 785.84 176.67C785.34 175.92 784.31 175.77 783.21 175.77C780.43 175.77 775.67 174.04 775.81 170.83C775.87 169.38 779.79 166.46 783.75 168.35C784.28 168.61 785.6 168.4 785.89 167.95C786.21 167.49 786.01 166.48 785.95 165.73C785.75 163.38 785.77 161 785.9 158.59C785.95 157.73 785.96 156.91 785.61 156.25C781.77 159.54 777.41 162.18 772.86 158.99C772.31 158.59 772.05 157.02 772.34 156.41C773.12 154.77 776.91 152.53 779.1 151.9C781.65 151.17 783.37 151.78 785.74 153.8L785.89 141.08C785.91 140.22 786.32 138.69 786.03 138.02C785.94 137.84 784.99 137.52 784.88 137.7L784.44 138.63C783.87 139.79 782.83 141.73 781.03 141.28C779.58 140.91 778.14 139.11 777.36 137.75C775.54 134.58 769.61 125.27 771.57 122.2L776.72 129.94C777.56 131.22 778.68 132.57 780.34 132.97C782.71 133.54 784.59 128.26 784.77 127.28L786.16 119.77C786.33 118.85 786.27 117.63 785.37 117.05C783.14 120.29 785.78 120.43 782.82 125.2C782.3 126.04 781.64 127.02 780.99 127.31C777.99 128.61 775.41 123.9 773.68 121.27C772.91 120.11 772.23 119.02 771.68 117.77L769.77 113.41C769.07 114.86 768.94 116.22 768.85 117.68L768.65 121.26L768.59 144.72C768.57 147.44 776.48 142.44 778.18 149.03C773.94 154.66 771.45 151.48 768.61 153.54L768.56 158.65C768.53 161.13 771.92 160.26 774.65 164.35C775.12 165.07 774.53 166.57 773.84 167.15C772.42 168.37 770.67 168.53 768.62 168.59L768.51 185.63C768.51 186.33 768.39 187.24 768.72 187.6C769.03 187.9 770.27 188.01 770.65 187.74C773.08 186.01 776.78 185.62 778.94 188.26C779.6 189.1 779.22 191.06 778.44 191.82C773.26 196.84 766.94 193.2 768.81 196.87C769.39 198.05 770.95 197.51 771.96 197.5L785.34 197.36C786.44 196.81 785.94 195.31 785.91 194.42C785.8 190.77 785.8 187.23 785.88 183.58C785.91 182.69 786.66 181.7 785.36 181.12C782.33 185.19 777.24 186.27 772.93 183.48C772.14 182.98 771.74 181.89 771.86 180.79C772.2 177.72 779.93 175.59 783.5 178.16" fill="#90BEFA"/>
</g>
<defs>
<clipPath id="clip0_2550_6474">
<rect width="803.76" height="311.22" fill="white"/>
</clipPath>
</defs>
</svg>
