<svg width="227" height="454" viewBox="0 0 227 454" fill="none" xmlns="http://www.w3.org/2000/svg">
<g clip-path="url(#clip0_2547_4692)">
<path d="M226.77 88V96.56C226.59 98.46 226.53 100.6 226.47 102.85C226.43 104.49 226.22 105.98 226.1 107.52C225.9 110.02 225.73 112.68 225.62 115.28C225.45 119.02 225.25 122.58 225.05 126.35L224.51 136.3C224.41 138.19 224.08 139.94 224.08 142.03C224.08 144.24 224.1 146.73 223.94 148.82C223.19 158.73 223 168.29 222.32 177.15L221.86 183.24L221.03 199.67C220.96 201.07 221.13 203.03 220.76 204.22C220.63 204.65 220.54 206.33 220.6 206.9C220.87 209.45 220.37 211.46 220.25 213.52L219.91 219.54C219.84 220.7 219.89 222.47 219.8 223.58C219.58 226.44 219.44 228.93 219.31 231.79C219.07 236.61 218.8 241.35 218.46 246.06C218.31 248.09 218.07 249.93 218.07 252.02C218.07 254.56 217.71 256.81 217.61 259.22C217.55 260.88 217.65 262.85 217.52 264.54C216.91 272.72 216.94 267.97 216.83 275.83C216.81 277.66 216.6 279.27 216.51 281.01L216.1 288.7C215.91 292.2 215.54 295.27 215.54 298.81C215.54 301.64 215.31 304.51 215.03 307.18C214.57 311.58 214.43 315.94 214.33 320.65C214.3 321.75 214.12 323.24 214.06 324.35C213.9 327.52 213.81 330.71 213.55 333.68C213.33 336.28 213.12 338.6 212.98 341.24L212.71 346.35C212.6 348.5 212.25 350.6 212.04 352.68C211.64 356.62 211.09 361.02 210.17 363.44C208.85 366.89 207.38 367.62 205.83 365.73C204.91 364.61 204.05 362.43 203.87 358.68C203.23 357.09 203.13 354.64 202.87 352.28L202.33 347.42L201.85 341.95C201.54 338.45 201.52 334.88 201.1 331.44C200.81 329.1 200.82 326.45 200.66 323.91C200.53 321.86 200.26 319.93 200.26 317.81C200.26 314.13 199.97 310.74 199.82 307.18C199.71 304.59 199.66 302.69 199.31 300.3C199.17 299.33 199.26 297.06 199.22 295.81L199.02 288.75C198.91 285.01 198.41 281.62 198.17 278C197.89 273.6 198.02 268.96 197.52 264.7C197.33 263.08 197.34 261.19 197.22 259.55C196.98 256.41 196.57 253.6 196.64 250.16C196.69 247.42 196.41 244.75 196.26 242.06L195.66 231.59C195.42 227.47 195.48 223.21 195.08 219.3C194.68 215.4 194.52 211.49 194.4 207.36C194.31 204.11 194.01 201.11 193.84 197.8C193.67 194.55 193.37 190.37 193.03 187.49C192.97 187.01 193.06 185.72 193.07 185.29C192.81 181.38 192.5 177.31 191.89 173.21L191.13 183.89C191.07 184.82 190.93 185.99 190.89 186.92L190.12 202.53C190.07 203.59 190.18 205.35 190.01 206.18C189.78 207.31 189.62 208.63 189.72 209.81C189.94 212.42 189.53 213.93 189.37 216.11C189.1 219.66 188.95 226.12 188.89 226.74C188.64 229.49 188.57 232.09 188.42 234.83L187.77 246.27C187.65 248.47 187.34 250.71 187.26 252.92C187.14 256.16 186.97 259.1 186.67 262.13C186.71 263.23 186.79 265.01 186.69 266.24L186.31 271.28C186.19 272.83 185.93 274.38 185.97 276.02C186.03 278.81 185.77 281.05 185.63 283.76L185.27 290.81C185.12 293.76 184.75 296.54 184.71 299.54C184.67 302.44 184.63 305.34 184.32 308.08C183.75 313.09 183.69 318.09 183.41 323.33L183.03 330.29C182.62 337.8 182.38 339.29 181.97 346.37C181.86 348.24 181.81 349.98 181.6 351.73L180.82 358.35C180.26 363.08 179.69 365.78 178.42 367.81L177.35 369.52H176.12L174.72 368.08C173.72 367.06 173.38 364.17 172.9 361.49C172.5 359.29 172.25 357.48 171.99 354.95L171.39 349.11L170.96 344.27C170.71 341.47 170.72 338.55 170.41 335.83C170.07 332.85 170.08 329.86 169.83 326.77L169.48 322.59C169.55 323.42 168.89 306.4 168.72 305.27C168.41 303.18 168.4 301.72 168.36 299.42C168.31 296.48 168.22 293.52 168.12 290.56C168 287.11 167.51 284 167.31 280.64C167.05 276.31 167.14 271.83 166.68 267.65C166.49 265.87 166.5 263.78 166.36 262.12C166.08 258.78 165.71 255.86 165.76 252.12C165.8 249.44 165.5 246.64 165.35 244.01L165.06 238.81C164.85 235.16 164.66 231.71 164.57 227.99C164.51 225.58 164.34 223.32 164.13 221.02C163.5 214.01 163.72 212.45 163.3 205.63L162.68 195.46C162.49 192.3 162.19 189.58 162.17 186.21C162.17 185.11 162.03 183.6 161.97 182.45L161.69 177.3C161.53 174.34 161.39 171.74 161.08 168.86C160.98 167.94 160.75 160.6 160.7 158.92C160.65 157.09 160.44 155.05 160.33 153.18L159.91 146.16L159.6 139.4C159.44 135.96 159.28 132.43 159.02 129.18C158.78 126.23 158.65 123.72 158.51 120.66L157.94 108.37C157.52 99.28 157.32 106.08 157.29 96.55L157.26 86.73C157.24 80.96 157.55 78.89 158.06 73.74C158.72 67.06 160.28 61.71 162.39 63.73L164.04 69.15L165.18 80.37C165.13 80.37 165.85 95.32 165.76 94.81C166.24 99.01 166.33 102.95 166.39 107.45C166.41 109.29 166.79 111.37 166.86 113.25C166.95 115.76 166.98 118.18 167.13 120.53C167.3 123.23 167.6 125.9 167.57 128.68C167.54 131.1 167.67 132.79 168 134.91C168.15 135.84 168.54 144.64 168.61 146.64L168.82 152.28C169.19 162.36 169.58 159.4 169.6 168.25C169.6 170.78 169.96 172.87 170.03 175.3L170.21 182.46C170.29 185.57 170.73 188.26 170.77 191.47C170.81 194.71 171.09 197.72 171.26 200.88C171.36 202.68 171.37 204.5 171.55 206.2C172.2 212.37 171.67 213.54 172.3 218.92C172.62 221.67 172.46 224.82 172.68 227.57C173.09 232.73 173.27 237.54 173.39 242.9C173.44 245.25 173.85 247.95 173.68 250.32C173.61 251.28 173.64 253.43 173.81 254.25C174.49 257.68 174.24 262.18 174.47 265.91L175.07 275.67C175.32 279.79 175.81 283.6 175.93 287.87C175.98 289.64 176.1 292.48 176.73 292.76C177.21 292.97 177.45 290.08 177.6 288.79L177.97 285.67C177.91 282.56 178.06 280.15 178.26 277.3L179.02 266.46C179.27 262.88 179.45 259.55 179.54 255.83C179.63 252 180.07 248.35 180.24 244.6L180.59 236.71C180.78 232.45 180.76 227.97 181.08 223.78C181.26 221.41 181.41 219.24 181.53 216.82L181.86 209.75C182.05 205.71 181.99 201.66 182.59 196.58C183.11 192.21 182.91 187.53 183 182.88C183.22 181.18 183.37 179.22 183.53 177.27L184.02 171.21L184.34 162.49C184.46 159.33 184.43 156.83 184.69 153.68C185.5 143.74 185.23 137.75 185.58 132.79C185.8 129.63 186.21 126.58 186.32 123.4L186.49 118.12L186.94 107.8C187 106.35 187.29 104.63 187.3 103.11C187.32 100.91 187.39 98.8 187.6 96.82C188.02 92.79 188.01 88.87 188.17 84.73C188.35 80.22 188.8 75.84 189.2 71.45C189.34 69.91 189.71 67.94 190.01 66.74C190.58 64.49 191.55 63.22 192.39 63.32C193.27 64.79 194.22 66.24 194.68 69.51C194.91 71.1 195.29 73.09 195.38 74.56L195.77 80.69L195.9 84.76L196.63 98.73C197.02 106.08 197.61 104.62 197.89 114.36C198.04 119.75 198.44 120.99 198.47 126.28C198.5 133.27 198.75 127.77 199.18 136.75L199.47 142.98L199.73 150.01C199.86 153.39 200.05 156.42 200.36 159.67C200.6 162.14 200.46 165.04 200.54 167.68C200.6 169.59 200.85 171.46 200.98 173.4C201.11 175.26 200.94 177.73 201.09 179.55C201.92 189.16 201.45 188.95 202.13 197.68C202.23 198.91 202.19 200.8 202.31 201.98C202.9 208.27 202.81 213.01 203.03 214.57C203.46 217.68 203.33 221.26 203.56 224.51C203.94 229.94 204.18 235.06 204.3 240.67C204.35 243.03 204.85 245.43 204.54 248.14C204.46 248.88 204.58 250.48 204.68 251.27C205.96 261.4 204.87 260.16 205.39 264.7C205.7 267.43 205.77 270.19 205.94 273.06C206.18 276.99 206.69 280.71 206.8 284.82C206.86 287.06 206.95 289.56 207.69 290.39C208.1 289.58 208.38 287.54 208.56 285.91C209.18 279.96 208.7 280.6 208.96 277.15L209.45 270.68L209.97 262.76C210.55 253.95 210.16 255.02 210.93 245.43C211.11 243.16 211.14 241.06 211.25 238.74L211.58 231.74L211.77 224.55C211.83 222.29 212.11 220.24 212.21 218.1L212.71 206.98C212.82 204.67 212.8 202.5 212.97 200.29C213.07 199.05 213.09 197.39 213.22 196.26C214.31 186.85 213.55 183.37 213.92 179.95C214.12 178.09 214.22 176.73 214.39 174.72L214.89 168.49C215.17 165.03 215.1 156.73 215.52 151.53C216.42 140.41 216 133.23 216.77 126.28C217.11 123.16 217.17 120.04 217.31 116.8L217.78 105.48C217.85 103.75 218.16 101.9 218.18 100.15C218.21 98.09 218.25 95.98 218.46 94.09C218.89 90.16 218.84 86.4 219.01 82.38C219.21 77.84 219.63 73.45 220.04 69.01C220.21 67.18 220.61 64.99 220.98 63.65C221.38 62.2 222.04 61.55 222.57 60.84C223.09 60.13 223.51 61.09 223.94 61.88C225.01 63.79 225.41 65.44 225.92 69.41C226.05 70.37 226.28 71.64 226.33 72.57L226.6 77.92C226.77 81.31 226.5 84.86 226.77 87.99" fill="black"/>
<path d="M133.06 222L133.01 237.03L132.71 246.48C132.61 249.7 132.71 252.84 132.51 255.94C132.07 263.11 132.42 267.61 131.6 280.45L131 289.78C130.84 292.28 130.74 295.09 130.51 297.46L129.03 313.1C128.98 313.61 127.47 324.63 127.41 324.92L126.14 331.5L125.56 333.45L124.13 338.63C123.52 340.84 122.82 341.05 122.06 342.19L120.89 343.94C120.39 344.7 119.57 344.33 119.05 343.67C118.33 342.76 117.83 341.11 117.08 342.42C116.69 341.16 116.31 339.78 115.92 338.87C113.99 334.27 115.42 336.17 113.57 330.35C113.35 329.65 113.15 327.18 112.94 326.37C112.17 323.49 111.87 319.98 111.4 316.38C110.94 312.85 110.49 309.62 110.16 305.77C109.93 303.12 109.66 300.55 109.53 297.74C109.09 287.94 109.14 292.23 108.65 283.84C108.56 282.19 108.27 280.05 108.26 278.41C108.25 275.14 107.99 272.44 107.9 269.39L107.57 258.33C107.43 253.84 107.32 249.53 106.96 245.33C107 241.12 107 237.06 106.98 232.87L106.92 218.94V191.44C106.92 185.54 106.55 179.42 107.02 173.76C107.31 170.35 107.53 167.68 107.43 163.81C107.38 161.73 107.62 159 107.67 156.8C107.72 154.82 107.65 152.15 107.85 150.55C108.2 147.79 108.17 145.36 108.34 142.53L108.93 132.7C109.03 130.97 109.29 128.95 109.34 127.23C109.46 123.24 109.69 120.01 110.14 116.5C110.31 115.15 110.34 112.56 110.53 111.31C111.63 103.84 111 104.98 112.01 100.11C112.4 98.22 112.79 96.19 113.1 94.06C113.38 92.16 113.71 90.73 114.05 89.07C114.42 87.24 114.65 86.05 115.23 85.05C115.68 84.28 116.12 82.05 116.59 80.96C118.44 78.99 120.43 78.25 122.3 80.33C122.95 81.05 123.56 82.76 124.23 83.73C124.65 84.35 124.92 86.64 125.25 87.84L125.94 90.32C126.18 92.86 126.95 94.34 127.26 96.43L128.7 106.29C129.18 109.6 129.46 113.69 129.81 117.35L130.42 123.67C130.83 127.95 131.1 132.44 131.39 136.93L131.86 144.25C132.48 153.8 131.84 160.73 132.73 166.29C132.25 172.1 132.92 177.29 132.94 182.94L133.05 214.37C133.05 216.96 133.05 219.38 133.05 221.95M141.67 195.29L141.48 184.01C141.39 178.65 141.29 173.47 141.38 168.15C141.44 164.46 141.32 161.12 141.02 157.61C140.69 153.75 140.98 145.44 140.76 139.23C140.66 136.37 140.13 133.98 140.17 130.88C140.21 128.06 139.93 125.71 139.8 123L139.25 112.32L138.65 102.92L137.93 93.33C137.56 88.41 137.11 84.02 136.62 79.43L135.51 69.2C135.39 68.11 135.05 66.9 134.95 65.76C134.53 61.27 133.6 55.62 132.87 51.9L131.82 46.55C131.48 44.84 131.22 43.23 130.82 41.85L129.48 37.24C128.74 34.69 128.13 30.92 127.14 29.83C126.6 29.23 126.08 28.59 125.56 27.64L124.58 25.82C123.76 24.3 122.76 22.75 121.87 22.75H117.89L116.02 24.76C114.92 25.94 113.15 28.5 112.27 31.11L110.49 36.36C110 37.78 109.59 40.05 109.16 41.85C108.21 45.77 107.52 49.25 106.75 53.81L105.05 63.85C104.63 66.3 104.47 69.64 104.16 72.45L103.38 79.64C103.22 81.14 102.79 82.83 102.72 84.48C102.56 88.27 102.32 91.37 101.97 94.8C101.56 98.91 101.34 103.1 101.05 107.32C100.63 113.6 100.26 119.59 100.21 126.19C100.19 129.3 99.9005 131.98 99.7105 134.94C98.9605 145.98 99.3705 151.78 98.9205 158.73C98.6905 162.25 98.6705 165.31 98.7305 169.01C98.7705 172.21 98.5505 175.67 98.4205 178.89C98.2305 183.41 98.3205 187.85 98.3105 192.44L98.2505 208.68C98.2205 216.02 98.2505 223.11 98.2905 230.5L98.3405 241.58L98.7305 247.56L98.7705 258.56L99.1705 268.54C99.3105 272.02 99.2505 275.28 99.3905 278.71C99.8705 290.18 100.04 287.66 100.31 300.12C100.4 304.17 100.55 307.48 100.9 311.2C101.19 314.26 101.22 317.82 101.39 321.18C101.57 324.73 101.95 328.03 102.24 331.44C102.61 335.69 102.87 340.09 103.36 344.04L104 349.19L105.05 358.09C105.32 360.37 105.63 362.38 105.95 364.52C107.14 372.53 107.65 373.18 107.92 374.76C108.56 378.58 109.3 380.78 110.08 383.59C110.72 385.92 111.29 388.09 111.99 390.09C112.72 392.17 113.31 394.05 114.15 395.3L115.81 397.77C117.24 399.9 118.59 399.82 120.05 399.69C120.75 399.63 121.42 400.21 122.16 399.57L124.45 397.6C125.15 397 125.72 395.65 126.36 394.46C127.02 393.23 127.59 392.27 128.17 390.35L129.41 386.27L130.67 381.42C131.18 379.47 131.7 378.15 132.11 375.71C132.58 372.88 133.07 370.36 133.6 367.7L133.91 364.61C134.39 362.82 134.58 360.51 134.88 358.31L136.12 349.25C136.37 347.43 136.43 345.21 136.61 343.3C137 339.28 137.45 335.58 137.75 331.42L138.54 320.75C138.72 318.33 138.8 316.23 138.98 313.68L139.56 305.57C139.71 303.43 139.64 301.08 139.83 299.14C140.47 292.87 139.97 290.77 140.34 286.33C140.9 279.72 140.86 273.41 140.93 266.52C140.96 263.37 141.38 259.99 141.38 256.55V237.62L141.58 230.04L141.67 222.99C141.71 219.51 141.76 216.01 141.75 212.51L141.69 195.29H141.67Z" fill="black"/>
<path d="M35.1203 331.37C34.9503 337.64 34.6503 343.27 34.6403 349.66C34.6103 358.32 34.1603 366.45 33.6403 374.58C33.4403 377.63 33.3103 380.9 33.1703 384.08C33.0003 387.85 32.7203 391.01 32.4503 394.51L31.5403 406.06C31.2803 409.37 30.9903 411.93 30.4203 414.06L30.0903 418.42C29.5503 420.33 29.2603 422.45 29.0903 425.88C27.5803 431.41 28.3603 431.57 27.1803 435.48L25.5703 440.82C25.1103 442.35 24.7203 444.04 24.1603 444.71C23.8303 445.1 23.5303 446.29 23.2303 446.97C22.3903 448.85 21.5403 450.25 20.6203 451.52C20.3403 451.91 19.7503 450.67 19.5003 451.14C18.1003 454.9 18.8903 451.42 16.9403 453.52C16.6803 453.8 16.1803 451.89 15.9203 451.77C15.1903 451.49 14.5103 451.18 13.7603 450.48C13.3203 450.05 12.6703 450.27 12.3403 448.83C10.3203 440.2 10.3103 445.89 8.59027 436.74L6.43027 425.21C5.81027 421.89 5.32027 418.2 4.89027 414.14L4.11027 406.8C3.92027 404.99 3.74027 402.74 3.57027 400.88L2.77027 392.1C2.35027 387.59 2.31027 382.89 1.87027 378.41C1.14027 370.98 1.01027 362.57 0.660273 354.53C0.470273 350.2 0.350273 346.71 0.410273 342.19C0.430273 340.34 0.220273 337.47 0.180273 335.43C0.120273 332.29 0.180273 329.3 0.0302734 326.62V321.19C0.730273 315.3 0.0502735 316.77 0.640273 305.25C0.870273 300.71 1.29027 297.59 1.83027 294.08C2.20027 291.68 2.46027 289.46 3.07027 288.55C3.85027 287.39 4.52027 287.77 5.13027 290.6C5.98027 294.56 6.51027 299.23 6.63027 305.4L7.28027 310.45L7.82027 328.14L8.29027 332.17C8.39027 335.12 8.45027 338.09 8.60027 340.79L9.27027 353.07L10.1203 364.34C10.5003 369.43 11.2103 374.17 11.9303 378.14L13.2303 385.29C13.6003 387.35 14.4303 388.53 14.9603 389.88C15.5803 391.48 18.0703 391.79 18.4903 391.32L20.6103 388.88C21.0003 388.44 21.4303 385.78 21.7803 384.7C22.0103 384.01 22.4203 383.68 22.5703 382.68L23.2603 378.02C23.4803 376.58 25.0203 369.59 25.3103 364.5C25.8303 355.18 26.3603 354.69 26.5303 348.69C26.8103 338.43 26.9803 341.22 27.0503 331.44C27.0903 325.65 27.1303 316.1 26.9303 310.78L26.4603 298.04C26.3203 294.37 25.8403 291.14 25.4703 287.88C25.2303 285.73 25.1503 282.18 24.8503 280.39L23.6903 273.52C23.4003 271.8 21.5603 264.5 21.0503 262.92C20.5103 261.21 19.9603 259.2 19.3903 257.88L16.0903 250.18C15.2003 248.11 14.3303 246.5 13.4803 243.91C12.9203 242.19 12.5003 239.9 11.9203 238.24L10.8203 235.11C10.2603 233.51 9.82027 231.53 9.25027 229.95C8.53027 227.96 8.13027 223.96 7.58027 220.9C7.35027 219.63 6.84027 219.18 6.71027 217.27C6.53027 214.52 6.07027 213.26 5.76027 211.35L4.80027 205.52L4.59027 201.3C3.43027 195.52 2.70027 182.81 2.42027 174.68C2.30027 171.3 1.99027 168.02 1.85027 164.7L1.21027 150.44C1.01027 145.93 1.19027 140.89 1.19027 136.19C1.19027 130.95 0.980274 125.67 1.07027 120.55C1.15027 115.75 1.20027 111.47 1.17027 106.63C1.07027 94 1.47027 84.97 2.10027 73.16C2.59027 63.98 2.83027 59.59 3.58027 50.67C3.74027 48.8 3.83027 46.35 4.03027 44.58L5.14027 34.64C5.34027 32.84 5.62027 30.04 5.88027 28.62L7.63027 19.05C8.29027 15.44 8.83027 17.13 9.57027 10.68L10.5703 9.95003C12.0103 2.14003 13.6403 -0.00996532 15.7203 3.46789e-05L19.3503 0.0200347C21.4203 0.0500347 23.1803 4.48003 24.7903 10.34L26.3603 16.01C27.0303 18.43 28.2103 25.9 28.6503 29.58L30.6903 46.58C30.9603 48.85 31.0303 51.93 31.2303 54.65C31.3503 55.81 31.7203 57.67 31.8803 58.83L32.2003 69.33L32.6303 82.97L32.9603 87.44C33.0603 88.75 33.0403 114.88 33.0003 118.21C32.9803 119.83 32.7303 122.37 32.6303 123.98L32.1603 132.38C31.9503 136.1 31.5903 138.99 30.9103 140.77L30.4103 144.8C29.8503 145.58 29.2103 145.6 28.6503 144.71C27.7203 137.65 27.6303 141.41 27.0303 132.79L26.0803 119.14C25.8303 115.55 25.5603 113.05 25.4203 109.15C25.2703 105.12 25.0203 100.96 24.8003 96.95C24.6203 93.61 24.3203 90.32 24.0503 87.19L22.8103 73.02C22.5803 70.43 21.8903 68.8 21.5503 66.78C20.8103 62.33 19.9903 60.51 18.8903 59.91C15.2103 57.93 17.1303 58.81 14.0203 61.61C13.4703 62.11 13.0303 64.95 12.5703 66.37C12.1103 67.76 11.6903 68.85 11.3903 71.11L10.4703 77.94C9.51027 85.09 10.1403 85.99 8.91027 93.14C8.46027 95.73 9.13027 101.92 8.69027 109.94C8.51027 113.26 8.59027 116.02 8.69027 119.34L8.97027 128.99C9.06027 132.29 9.19027 135.25 9.55027 138.04C10.2103 143.25 10.1503 146.95 10.9103 150.67L12.3403 157.73C12.5903 158.99 12.9003 161.31 13.1803 162.18C13.9403 164.47 14.6503 166.61 15.4103 168.51L17.5603 173.9C18.0303 175.08 18.5403 176.68 19.0003 177.63C20.2403 180.19 21.1803 182.48 22.3403 186.16C22.8503 187.81 23.5503 188.64 24.0303 190.46L25.6803 196.77C26.0703 198.26 26.3803 200.97 26.8503 202.05C27.1503 202.73 27.6103 203.52 27.7303 204.79C27.9703 207.3 28.2103 208.7 28.7203 209.09C29.1603 209.42 29.1603 212.43 29.4003 213.7C31.4203 224.73 32.1903 230.79 33.0903 245.55L33.8503 257.88C34.1403 262.57 34.4803 267.39 34.5603 272.34L34.7703 284.69L35.0103 293.63C35.1903 300.37 35.1803 307.09 35.1503 313.98C35.1303 319.72 35.2703 325.79 35.1303 331.37" fill="black"/>
<path d="M91.3798 340.69C91.3398 347.47 90.7398 349.8 90.4898 354.4C90.3998 355.98 90.1398 357.36 89.9198 358.78C89.5298 361.22 89.1098 363.2 88.4998 365.05C88.1898 365.96 87.7798 367.23 87.2998 367.37C85.5398 367.85 83.9298 367.89 82.2398 367.85L77.9898 367.76L63.5798 367.73C61.3098 367.73 59.9598 359.47 59.1598 353C58.9998 351.72 58.5198 350.18 58.4798 348.75C58.4098 345.69 58.4298 342.74 58.3198 339.78C57.8998 329.59 58.7298 325.67 58.7298 316.94V291.8L58.7198 287.19V276.59L58.7298 265.59V218.7V206.61V202.07V173.22L58.7098 164.21V150.48V120.86V103.46V94.4999C58.7098 92.1899 58.6198 89.8499 58.7698 87.5399L59.0998 82.2899C59.2498 79.8799 59.2798 78.0099 59.5998 75.8099C59.8298 74.2199 59.8698 71.7799 60.2298 70.4199C60.6198 68.9299 60.9498 66.8299 61.3898 65.6399C62.3898 62.8799 63.9398 63.5699 64.9298 65.8999C65.3698 66.9399 65.6198 68.7499 65.9398 70.0099C66.7798 73.2899 67.0398 76.9999 67.1698 81.3599C67.2298 83.4799 67.6198 85.8499 67.6098 88.0499V95.7399V101.97L67.6398 234.57L67.6098 253.6C67.5998 262.59 67.5898 271.42 67.5998 280.43V297.42V303.09C67.5998 306.87 67.6098 310.55 67.8098 314.16C67.9398 316.62 68.4598 317.74 69.0998 318.02C71.3798 319.01 73.6198 318.23 75.7298 318.57C76.8498 318.76 77.9098 318.47 79.0298 318.41L80.3998 318.33C81.5198 318.27 85.9198 318.24 86.7898 318.76C88.0998 319.53 89.3198 324.02 90.0698 327.9C90.4798 330.01 90.5398 332.88 90.7498 335.31C90.8998 337.01 91.3798 338.83 91.3698 340.69" fill="black"/>
</g>
<defs>
<clipPath id="clip0_2547_4692">
<rect width="226.77" height="453.54" fill="white"/>
</clipPath>
</defs>
</svg>
