<svg width="205" height="310" viewBox="0 0 205 310" fill="none" xmlns="http://www.w3.org/2000/svg">
<g clip-path="url(#clip0_2561_10285)">
<path d="M150.32 234.061H75.4404V254.791H150.32V234.061Z" fill="#90BEFB"/>
<mask id="mask0_2561_10285" style="mask-type:luminance" maskUnits="userSpaceOnUse" x="0" y="0" width="205" height="310">
<path d="M204.09 0H0V309.33H204.09V0Z" fill="white"/>
</mask>
<g mask="url(#mask0_2561_10285)">
<path d="M75.0205 235.362V308.672C74.4205 309.442 73.5405 309.242 72.7605 309.252L69.4205 309.292C67.7905 309.312 66.2205 309.352 64.6305 309.242C63.1705 309.142 61.7405 309.182 60.2705 309.212L58.4605 309.252C57.7305 309.262 57.1805 309.272 56.3805 309.232C55.9905 309.432 54.5705 309.362 54.5705 308.552L54.5405 254.662H5.23047C4.50047 254.652 3.88047 254.682 3.19047 254.712C1.82047 254.422 0.760469 255.262 -0.00953125 254.082V234.892C0.170469 234.552 0.360469 234.192 0.860469 234.192H55.5905C54.7505 233.702 54.4605 233.372 54.5305 232.522C54.6705 230.832 54.3305 229.202 54.1605 227.512L54.0105 225.982L53.1705 222.062C52.7705 220.182 51.5205 215.712 50.7505 214.042L48.8705 209.942C47.7305 207.462 46.2205 205.262 44.7305 202.982C44.0205 201.892 41.8505 199.162 40.9705 198.222L39.0305 196.132C37.9605 194.982 36.8605 193.982 35.6705 192.952C34.8705 192.262 34.1105 191.532 33.2505 190.932L32.3505 190.292L30.6005 188.982C28.2405 187.202 22.9705 184.442 20.0805 183.352L16.2105 181.902C15.5105 181.632 14.8105 181.452 14.0805 181.232C13.2805 180.992 12.5305 180.902 11.6905 180.702L10.5405 180.422L7.87047 180.002C7.45047 179.932 6.95047 179.872 6.52047 179.832L4.43047 179.662C3.48047 179.582 2.60047 179.502 1.65047 179.522C0.960469 179.532 0.320469 179.352 -0.0195312 178.822V158.932H4.02047L7.82047 159.452L10.3905 159.552C11.2905 159.582 12.1405 160.042 13.0605 160.042C13.8305 160.032 14.4905 160.232 15.2305 160.362C16.1305 160.522 17.0105 160.662 17.9205 160.882L20.3705 161.492C22.1105 161.922 23.7305 162.562 25.4305 163.112L26.8005 163.552L28.7505 164.262C29.7505 164.622 30.6705 165.062 31.6405 165.522L35.7105 167.482C37.2205 168.212 38.5905 169.092 40.0305 169.972L42.4505 171.452C43.4405 172.062 44.3005 172.842 45.2405 173.512C45.5705 173.742 45.9305 173.952 46.2305 174.202L47.8005 175.412L49.4205 176.872L50.4305 177.652L54.1105 181.222L56.6205 183.992C60.1405 187.882 63.5805 192.882 66.0505 197.542C67.0005 199.342 67.9605 201.032 68.7105 202.932C68.8405 203.272 68.9505 203.742 69.1105 204.062C70.6105 207.242 71.7005 210.482 72.4805 213.922L72.9005 215.762C73.0705 216.492 73.2105 217.162 73.3905 217.912L73.9805 220.452C74.1805 221.342 74.2205 222.162 74.3905 223.082C74.5005 223.612 74.4705 224.322 74.5405 224.872L74.8305 227.382C75.0705 229.402 75.0305 231.112 74.9905 233.232C74.9905 233.712 74.2505 233.792 73.7705 234.052C74.5105 234.332 75.0205 234.532 75.0205 235.342" fill="#90BEFB"/>
<path d="M199.531 152.601V225.551C199.461 226.181 198.501 226.431 198.081 226.351C197.741 226.291 197.431 226.401 197.121 226.401H186.481C186.111 226.401 185.761 226.331 185.411 226.361C184.441 226.451 183.481 226.411 182.491 226.381L180.741 226.341C180.351 226.331 179.931 226.431 179.561 226.281C179.271 226.161 178.921 225.871 178.921 225.401V171.361C178.921 171.231 178.901 170.991 178.851 171.021C178.781 171.061 178.611 171.171 178.551 171.241C177.741 172.241 176.701 171.741 174.661 171.951C173.841 172.031 172.941 171.951 172.141 172.101L168.821 172.701L166.471 173.231C165.231 173.511 164.031 173.811 162.801 174.171L161.081 174.681C160.601 174.821 160.011 175.021 159.571 175.221L155.731 176.951L153.001 178.281C151.621 178.961 150.391 179.891 149.041 180.711C146.821 182.061 144.881 183.721 142.871 185.381C141.641 186.401 138.051 190.071 137.031 191.361L134.911 194.001C134.051 195.081 133.661 195.731 132.931 196.851L131.661 198.811C130.451 200.691 130.151 201.611 129.211 203.591L128.491 205.091L127.961 206.221C127.771 206.631 127.551 207.171 127.411 207.601L126.821 209.391C126.671 209.831 126.541 210.331 126.411 210.791L125.941 212.541C125.681 213.471 125.431 214.391 125.241 215.331L124.881 217.061C124.741 217.731 124.691 218.481 124.591 219.201L124.191 221.981C124.051 223.001 123.981 223.981 124.141 224.991C124.231 225.621 123.871 226.411 123.041 226.411H109.471L108.331 226.381L107.081 226.401H104.871C103.921 226.411 103.511 225.581 103.561 224.761L103.701 222.671C103.761 221.671 103.681 220.631 103.791 219.661L104.141 216.681C104.321 215.231 104.611 212.941 104.911 211.601L105.391 209.401L106.101 206.491L106.621 204.371C106.901 203.221 107.621 201.021 108.071 199.891L108.781 198.121L109.311 196.831L110.001 195.161C110.421 194.141 110.831 193.151 111.351 192.191L112.371 190.271C113.581 188.011 114.821 185.881 116.281 183.761C116.601 183.301 116.841 182.741 117.201 182.291L121.751 176.551L124.471 173.701C125.111 173.031 125.761 172.391 126.431 171.761L128.781 169.531L130.081 168.451L133.011 166.101C134.231 165.131 135.501 164.341 136.781 163.481C140.711 160.861 145.401 158.391 149.811 156.711C152.531 155.671 155.131 154.601 158.001 153.961L160.601 153.371L162.941 152.801L165.011 152.451C165.521 152.371 166.001 152.201 166.501 152.141L170.951 151.601C171.431 151.541 172.001 151.511 172.481 151.491L174.921 151.371L177.521 151.281C177.951 151.271 178.281 151.481 178.521 151.801L178.691 152.021C178.911 152.301 179.221 150.761 180.571 151.311H198.761C199.291 151.321 199.491 152.161 199.491 152.601" fill="#90BEFB"/>
<path d="M102.77 226.321C102.4 226.511 101.73 226.361 101.27 226.361L99.69 226.381L96.9 226.411H86.1C85.72 226.411 85.23 226.191 84.86 226.321C84.21 226.521 83.18 226.421 82.89 225.681V151.931C83.12 151.581 83.54 151.411 83.98 151.151C83.37 150.981 82.87 150.801 82.88 150.201V149.051L82.89 76.9406C82.89 76.5206 83.2 76.2505 83.45 76.0605H102.8C103.02 76.2205 103.35 76.5505 103.35 76.9505V150.161C103.35 150.851 102.87 150.911 102.24 151.171C102.87 151.431 103.35 151.491 103.35 152.181V224.711C103.35 225.371 103.48 225.951 102.77 226.321Z" fill="#90BEFB"/>
<path d="M149.551 36.2308C149.791 33.5308 150.501 30.5308 152.071 28.3408L153.301 26.6308C153.431 26.4608 153.651 26.0408 153.831 25.8708C155.051 24.7108 156.481 23.5508 157.991 22.5808C159.011 21.9208 162.401 20.8108 163.741 20.6908L165.141 20.5708C167.491 20.3608 170.301 20.7008 172.531 21.5008C173.161 21.7208 174.981 22.4808 175.381 22.7808L177.321 24.2108C179.071 25.5008 181.101 28.0708 181.921 30.0208C182.811 32.1508 183.361 34.2308 183.471 36.5408C183.491 36.9708 183.531 37.3908 183.831 37.6708C183.851 37.7008 183.881 37.7208 183.911 37.7508C183.971 37.7908 184.041 37.8308 184.121 37.8708C184.201 37.9008 184.291 37.9408 184.391 37.9608C184.381 37.9908 184.341 38.0708 184.241 38.2008H149.221C148.801 38.2008 148.571 38.0308 148.491 37.9808C149.511 37.8108 149.451 37.0808 149.531 36.2408M129.961 38.0708C129.781 38.2108 129.221 38.5008 129.221 38.7908V112.151C129.221 112.611 129.511 112.881 129.931 112.881H148.481C148.961 112.881 149.301 112.721 149.541 112.401V58.6508L202.821 58.6408C203.371 58.6408 203.751 58.5208 203.971 58.0708V38.7808C203.971 38.4908 203.631 38.2508 203.371 38.2308L203.111 38.0208C204.611 37.5708 203.711 35.7908 203.831 34.0308C203.911 32.8908 203.661 31.9508 203.371 30.8708C203.191 30.1608 203.281 29.3308 202.941 28.6508C202.691 28.1408 202.671 27.5108 202.511 26.9708L201.821 24.7708C201.291 23.0508 200.461 21.5908 199.661 20.0108C198.561 17.8308 197.251 15.9208 195.731 14.0408C195.451 13.7008 195.191 13.2508 194.871 12.9308L191.751 9.77076C190.861 8.86076 189.761 8.16076 188.751 7.34076C186.451 5.48076 183.671 4.09076 180.951 2.78076C179.451 2.06076 177.831 1.64076 176.221 1.25076L174.681 0.870758L171.391 0.250758C170.971 0.170758 170.441 0.120758 170.011 0.100758L167.671 0.0107576C166.841 -0.0292424 166.111 -0.0192424 165.281 0.0107576L162.721 0.120758C161.521 0.170758 156.211 1.31076 154.991 1.73076C153.861 2.11076 152.691 2.44076 151.641 2.99076L147.801 5.01076C146.831 5.52076 145.891 6.12076 145.021 6.79076L142.971 8.37076C141.781 9.28076 140.751 10.3008 139.711 11.3908L138.361 12.8108C137.381 13.8308 134.111 18.3908 133.551 19.6408L131.261 24.7608C130.771 25.8608 130.091 28.5808 129.861 29.8508L129.451 32.1108C129.391 32.4508 129.261 32.9908 129.261 33.3208L129.231 37.1008C129.231 37.4808 129.651 37.8308 129.981 38.0708" fill="#90BEFB"/>
</g>
<path d="M204.09 113.301H129.21V133.751H204.09V113.301Z" fill="#90BEFB"/>
</g>
<defs>
<clipPath id="clip0_2561_10285">
<rect width="204.09" height="309.33" fill="white"/>
</clipPath>
</defs>
</svg>
