<svg width="157" height="253" viewBox="0 0 157 253" fill="none" xmlns="http://www.w3.org/2000/svg">
<g clip-path="url(#clip0_2561_11049)">
<mask id="mask0_2561_11049" style="mask-type:luminance" maskUnits="userSpaceOnUse" x="0" y="0" width="157" height="253">
<path d="M156.33 0H0V252.87H156.33V0Z" fill="white"/>
</mask>
<g mask="url(#mask0_2561_11049)">
<path d="M151.33 157.42V157.61C151.01 157.7 150.64 157.71 150.19 157.71H140.03H138.36H136.46L134.26 157.72L133.76 156.57L133.35 155.39C133.06 154.56 132.78 154.2 132.63 153.4C132.6 153.21 132.43 152.99 132.34 152.79L131.92 151.84L131.41 150.46L130.93 149.27L130.51 148.14L130.05 146.85C129.95 146.58 129.84 146.31 129.73 146.04L129.24 144.83L128.77 143.72L128.42 142.71L127.93 141.47L127.22 139.53L126.84 138.59L126.43 137.57L125.84 136.03L124.88 133.5L124.38 132.18L124 131.19C123.86 130.82 123.64 130.47 123.59 130.08C123.56 129.87 123.47 129.67 123.22 129.47C122.96 129.55 122.77 129.71 122.79 129.84C122.99 131.66 122.93 133.44 122.91 135.28V136.95V139.77V149.9V151.84V155.11L122.94 157.68C122.29 157.73 121.78 157.71 121.17 157.71H106.66C106.08 157.75 105.48 157.77 104.93 157.65V78.9198H121.73C122 78.9198 122.24 79.1698 122.16 79.2498L122.5 79.9898L122.88 81.0698L123.38 82.3098L123.82 83.4498L124.26 84.6198L124.98 86.5398L125.42 87.7198L126.08 89.2998L126.51 90.4498L128.04 94.5098L128.44 95.5098L128.94 96.7198L129.29 97.6398L130.44 100.76L130.86 101.87L131.25 102.8L131.8 104.17L132.16 105.01C132.62 106.07 132.27 106.36 132.97 107.18C133.24 107.1 133.41 106.96 133.4 106.84V103.7L133.35 102.05V96.6898L133.36 93.5798V86.8598V85.8298V83.6998V80.9798C133.36 80.3798 133.38 79.8098 133.34 79.1998C133.34 79.1298 133.38 78.9798 133.5 78.9498C133.62 78.9198 133.92 78.9098 134.1 78.9198H136.7L151.12 78.9498C151.29 105.2 151.3 131.32 151.3 157.45" fill="#90BEFB"/>
<path d="M46.04 155.49V232.82C46.04 234.61 45.55 236.18 44.94 237.8C42.77 243.53 37.51 247.2 31.52 247.87H19.55C11.76 247.03 5.92 241.28 5 233.48V19.5898C5.61 13.6898 9.15 8.52981 14.65 6.27981C16.38 5.56981 18.1 5.00981 19.99 5.00981H30.66C38.71 4.98981 46.02 12.3698 46.02 19.9998L46.04 97.3298C46.04 97.6398 45.74 97.9898 45.49 97.9898H28.21C28.08 97.9898 27.73 97.9898 27.73 97.6698V23.8098C27.73 23.2398 27.37 23.0398 27.03 23.0398L23.75 23.0598C23.62 23.0598 23.33 22.9998 23.33 23.9098V228.92C23.33 229.51 23.51 229.77 23.71 229.77L26.92 229.79C27.36 229.79 27.73 229.5 27.73 228.97V155.7C27.73 155.46 27.75 155.25 27.8 155.13C27.85 155.01 28.19 154.9 28.35 154.9H45.49C45.75 154.9 46.04 155.17 46.04 155.49Z" fill="#90BEFB"/>
<path d="M76.8698 102.111H72.3998V45.181H76.8698V102.111ZM95.1198 42.041C95.1198 34.871 88.2398 27.541 80.4998 27.281C76.5898 27.151 72.7398 27.021 68.8398 27.281C60.4498 27.851 54.1298 34.811 54.1298 43.121L54.0898 157.031C54.0898 157.431 54.4498 157.731 54.7898 157.731H71.4998C71.7298 157.721 72.0398 157.671 72.1498 157.581C72.2698 157.491 72.3998 157.181 72.3998 156.961V120.921C72.3998 120.541 72.5998 120.211 72.9398 120.211H76.2498C76.5298 120.211 76.8598 120.391 76.8598 120.871V156.951C76.8598 157.371 77.1198 157.721 77.5598 157.721H94.5298C94.9198 157.721 95.1798 157.321 95.1798 156.931L95.1098 42.031L95.1198 42.041Z" fill="#90BEFB"/>
<path d="M146.33 157.61V157.51C146.33 154.75 148.57 152.51 151.33 152.51C154.09 152.51 156.33 154.75 156.33 157.51V157.61C156.33 160.37 154.09 162.61 151.33 162.61C148.57 162.61 146.33 160.37 146.33 157.61Z" fill="black"/>
<path d="M145.19 157.71C145.19 154.94 147.43 152.71 150.19 152.71C150.38 152.71 150.46 152.71 150.46 152.71C153.22 152.55 155.59 154.64 155.75 157.4C155.92 160.16 153.82 162.53 151.07 162.69C150.69 162.72 150.41 162.71 150.19 162.72C147.43 162.72 145.19 160.48 145.19 157.72V157.71Z" fill="black"/>
<path d="M140.03 162.699C137.27 162.689 135.03 160.449 135.04 157.689C135.04 154.929 137.28 152.689 140.04 152.699C142.8 152.699 145.04 154.939 145.04 157.699C145.03 160.459 142.8 162.699 140.03 162.699Z" fill="black"/>
<path d="M129.27 157.731C129.27 154.971 131.5 152.721 134.26 152.711C137.02 152.711 139.27 154.941 139.27 157.701C139.28 160.461 137.05 162.701 134.29 162.711H134.27C131.52 162.711 129.28 160.481 129.27 157.731Z" fill="black"/>
<path d="M129.43 159.12L129.19 158.55C128.09 156.01 129.26 153.07 131.8 151.98C134.33 150.88 137.27 152.05 138.37 154.58L138.62 155.16C139.71 157.69 138.54 160.63 136.01 161.73C135.36 162.01 134.69 162.14 134.03 162.14C132.09 162.14 130.25 161.01 129.43 159.12Z" fill="black"/>
<path d="M128.85 157.601L128.64 157.011C127.75 154.401 129.13 151.561 131.74 150.661C134.35 149.761 137.2 151.151 138.1 153.761L138.3 154.351C139.2 156.961 137.81 159.811 135.2 160.701C134.66 160.891 134.12 160.981 133.58 160.981C131.5 160.981 129.56 159.681 128.85 157.601Z" fill="black"/>
<path d="M127.74 154.32C127.23 151.61 129.01 148.99 131.73 148.48C134.44 147.97 137.05 149.75 137.57 152.46C138.08 155.18 136.29 157.79 133.58 158.3C133.27 158.36 132.95 158.39 132.64 158.39C130.29 158.39 128.19 156.72 127.74 154.32Z" fill="black"/>
<path d="M128.13 155.47C128.13 155.47 128.03 155.32 127.82 154.85C126.67 152.34 127.78 149.38 130.29 148.23C132.8 147.08 135.76 148.19 136.91 150.69H136.92C138.24 153.12 137.34 156.15 134.91 157.47C134.15 157.88 133.33 158.08 132.53 158.08C130.75 158.08 129.04 157.13 128.13 155.47Z" fill="black"/>
<path d="M127.58 154.321L127.37 153.851C126.25 151.321 127.4 148.371 129.92 147.251C132.45 146.141 135.4 147.281 136.52 149.801L136.73 150.281C137.84 152.811 136.7 155.761 134.17 156.871C133.52 157.161 132.83 157.301 132.16 157.301C130.24 157.301 128.41 156.191 127.58 154.321Z" fill="black"/>
<path d="M125.86 149.89C124.88 147.31 126.17 144.42 128.76 143.44C131.34 142.46 134.23 143.76 135.21 146.34C136.19 148.92 134.89 151.81 132.31 152.79C131.73 153.01 131.12 153.12 130.53 153.12C128.52 153.12 126.62 151.89 125.86 149.89Z" fill="black"/>
<path d="M125.59 149.141L125.36 148.501C124.44 145.901 125.8 143.041 128.41 142.121C131.01 141.191 133.87 142.551 134.79 145.151L135.02 145.801C135.94 148.401 134.58 151.261 131.98 152.181C131.42 152.381 130.86 152.471 130.31 152.471C128.25 152.471 126.32 151.191 125.59 149.141Z" fill="black"/>
<path d="M125.27 148.251C125.23 148.151 125.19 148.041 125.13 147.911C124.09 145.351 125.31 142.431 127.87 141.391C130.43 140.351 133.35 141.571 134.39 144.131C134.45 144.271 134.51 144.421 134.58 144.591C135.59 147.161 134.32 150.071 131.75 151.081C131.15 151.311 130.53 151.421 129.93 151.421C127.93 151.421 126.04 150.221 125.27 148.251Z" fill="black"/>
<path d="M124.88 147.289L124.64 146.679C123.6 144.119 124.84 141.209 127.4 140.169C129.97 139.139 132.88 140.379 133.91 142.939L134.15 143.539C135.19 146.109 133.95 149.019 131.39 150.049C130.78 150.299 130.14 150.419 129.52 150.419C127.54 150.419 125.67 149.229 124.88 147.289Z" fill="black"/>
<path d="M124.44 146.2L124.2 145.65C123.12 143.1 124.31 140.17 126.86 139.09C129.4 138.02 132.33 139.21 133.41 141.75L133.65 142.31C134.72 144.85 133.53 147.78 130.99 148.86C130.35 149.13 129.69 149.25 129.04 149.25C127.09 149.25 125.24 148.11 124.44 146.2Z" fill="black"/>
<path d="M119.73 133.95C118.75 131.37 120.04 128.48 122.62 127.49C125.2 126.51 128.09 127.8 129.07 130.38C130.06 132.96 128.77 135.85 126.18 136.84C125.6 137.06 124.99 137.17 124.4 137.17C122.39 137.17 120.49 135.94 119.73 133.95Z" fill="black"/>
<path d="M119.55 133.48L119.36 132.99C118.36 130.41 119.64 127.52 122.21 126.52C124.79 125.52 127.68 126.8 128.68 129.37L128.87 129.86C129.87 132.44 128.59 135.34 126.02 136.33C125.43 136.56 124.81 136.67 124.21 136.67C122.21 136.67 120.32 135.46 119.55 133.48Z" fill="black"/>
<path d="M119.19 132.631C119.05 132.281 118.76 131.621 118.64 130.641C118.33 127.891 120.3 125.411 123.05 125.101C125.59 124.821 127.91 126.491 128.48 128.921C129.38 131.391 128.21 134.161 125.77 135.221C125.12 135.511 124.45 135.641 123.78 135.641C121.85 135.641 120.01 134.511 119.19 132.631Z" fill="black"/>
<path d="M119.7 132.99C117.88 131.17 117.73 128.23 119.42 126.23C121.2 124.12 124.35 123.86 126.46 125.64C126.83 125.95 127.26 126.38 127.65 126.96C129.18 129.26 128.56 132.36 126.26 133.89C125.4 134.46 124.44 134.73 123.49 134.73C122.07 134.73 120.67 134.12 119.7 132.99Z" fill="black"/>
<path d="M117.81 129.83C117.8 128.71 118.21 127.64 118.68 126.95C119.16 126.24 119.65 125.81 120.07 125.51C122.32 123.91 125.44 124.44 127.04 126.69C128.29 128.45 128.24 130.74 127.09 132.42C126.21 133.87 124.62 134.83 122.81 134.83C120.05 134.83 117.81 132.59 117.81 129.83Z" fill="black"/>
<path d="M122.88 140.27C120.12 140.24 117.9 137.98 117.93 135.22C117.96 132.46 120.22 130.24 122.98 130.27C125.74 130.3 127.96 132.56 127.93 135.32C127.9 138.06 125.67 140.27 122.93 140.27H122.88Z" fill="black"/>
<path d="M122.87 141.94C120.11 141.92 117.89 139.66 117.92 136.9V136.06C117.95 133.3 120.21 131.08 122.97 131.11C125.73 131.13 127.95 133.39 127.92 136.15V136.99C127.89 139.73 125.66 141.94 122.92 141.94H122.87Z" fill="black"/>
<path d="M117.93 155.11C117.93 152.35 120.17 150.11 122.93 150.1C125.69 150.1 127.93 152.34 127.93 155.1C127.94 157.86 125.7 160.1 122.94 160.1C120.18 160.1 117.94 157.87 117.93 155.11Z" fill="black"/>
<path d="M117.96 157.72C117.93 154.96 120.14 152.7 122.91 152.67C125.67 152.64 127.93 154.86 127.96 157.62C127.99 160.38 125.78 162.64 123.02 162.67H122.96C120.23 162.67 117.99 160.47 117.96 157.72Z" fill="black"/>
<path d="M121.19 162.699C118.43 162.699 116.19 160.459 116.19 157.699C116.19 154.939 118.43 152.699 121.19 152.699H122.08C124.84 152.699 127.08 154.939 127.08 157.699C127.08 160.459 124.84 162.699 122.08 162.699H121.19Z" fill="black"/>
<path d="M108.9 157.699C108.9 154.939 111.14 152.699 113.9 152.699C116.67 152.699 118.9 154.939 118.9 157.699C118.9 160.459 116.67 162.699 113.9 162.699C111.14 162.699 108.9 160.459 108.9 157.699Z" fill="black"/>
<path d="M106.67 162.689C103.91 162.689 101.68 160.449 101.68 157.689C101.68 154.919 103.92 152.689 106.68 152.689C109.44 152.689 111.68 154.929 111.68 157.689C111.68 160.449 109.44 162.689 106.68 162.689H106.67Z" fill="black"/>
<path d="M105.74 162.719C105.2 162.719 104.59 162.669 103.88 162.519C101.19 161.929 99.4798 159.269 100.06 156.569C100.64 153.909 103.23 152.209 105.89 152.719C108.64 152.769 110.85 155.029 110.81 157.789C110.77 160.529 108.54 162.719 105.82 162.719H105.74Z" fill="black"/>
<path d="M99.9502 131.39C99.9502 128.63 102.18 126.39 104.95 126.39C107.71 126.39 109.95 128.63 109.95 131.39C109.95 134.15 107.71 136.39 104.95 136.39C102.18 136.39 99.9502 134.15 99.9502 131.39ZM99.9502 105.15C99.9502 102.38 102.18 100.15 104.95 100.15C107.71 100.15 109.95 102.38 109.95 105.15C109.95 107.91 107.71 110.15 104.95 110.15C102.18 110.15 99.9502 107.91 99.9502 105.15Z" fill="black"/>
<path d="M116.75 78.9004C116.75 76.1404 118.98 73.9004 121.74 73.9004C124.5 73.9004 126.74 76.1404 126.74 78.9004C126.74 81.6604 124.5 83.9004 121.74 83.9004C118.98 83.9004 116.75 81.6604 116.75 78.9004Z" fill="black"/>
<path d="M118.6 82.7302C116.67 80.7602 116.7 77.5902 118.67 75.6602C120.64 73.7302 123.81 73.7602 125.74 75.7302C127.68 77.7102 127.64 80.8702 125.67 82.8002C124.7 83.7602 123.43 84.2302 122.17 84.2302C120.87 84.2302 119.58 83.7302 118.6 82.7302Z" fill="black"/>
<path d="M117.96 82.0399L117.79 81.6799C116.65 79.1599 117.75 76.1999 120.26 75.0499C122.77 73.8999 125.74 75.0099 126.89 77.5199L127.05 77.8899C128.2 80.3999 127.1 83.3699 124.59 84.5099C123.91 84.8199 123.21 84.9699 122.51 84.9699C120.61 84.9699 118.8 83.8799 117.96 82.0399Z" fill="black"/>
<path d="M118.16 82.6902L117.97 82.1501C117.06 79.5401 118.44 76.6901 121.05 75.7801C123.66 74.8801 126.51 76.2501 127.42 78.8601L127.6 79.4001C128.51 82.0101 127.14 84.8601 124.53 85.7701C123.98 85.9601 123.43 86.0502 122.88 86.0502C120.81 86.0502 118.88 84.7502 118.16 82.6902Z" fill="black"/>
<path d="M127.15 105.93C126.15 103.36 127.43 100.46 130.01 99.4597C132.58 98.4697 135.48 99.7497 136.47 102.33C137.47 104.9 136.19 107.8 133.61 108.79C133.02 109.02 132.41 109.13 131.81 109.13C129.81 109.13 127.91 107.91 127.15 105.93Z" fill="black"/>
<path d="M127.58 106.949L127.4 106.529C126.3 103.989 127.48 101.049 130.01 99.959C132.55 98.859 135.49 100.039 136.58 102.569L136.76 102.989C137.86 105.529 136.68 108.469 134.15 109.559C133.5 109.839 132.83 109.969 132.17 109.969C130.23 109.969 128.39 108.839 127.58 106.949Z" fill="black"/>
<path d="M129.2 110.41C127.39 108.32 127.62 105.16 129.71 103.36C131.79 101.55 134.95 101.77 136.76 103.86C138.57 105.95 138.34 109.1 136.26 110.91C135.31 111.73 134.14 112.13 132.98 112.13C131.58 112.13 130.19 111.55 129.2 110.41Z" fill="black"/>
<path d="M129.06 109.759C127.85 107.899 128.02 105.539 129.33 103.899C130.24 102.619 131.73 101.789 133.41 101.789C136.18 101.789 138.41 104.029 138.41 106.789C138.41 108.209 137.84 109.289 137.35 109.919C136.85 110.579 136.39 110.929 135.99 111.199C135.14 111.749 134.19 112.009 133.25 112.009C131.62 112.009 130.02 111.219 129.06 109.759Z" fill="black"/>
<path d="M128.4 103.68C128.39 100.92 130.61 98.6703 133.38 98.6603C136.14 98.6403 138.39 100.87 138.4 103.63C138.41 106.39 136.18 108.64 133.42 108.65H133.4C130.65 108.65 128.41 106.43 128.4 103.68Z" fill="black"/>
<path d="M128.4 83.6602C128.4 80.9002 130.64 78.6602 133.4 78.6602C136.16 78.6602 138.4 80.9002 138.4 83.6602C138.4 86.4202 136.16 88.6602 133.4 88.6602C130.64 88.6602 128.4 86.4202 128.4 83.6602Z" fill="black"/>
<path d="M128.39 80.9593C128.39 78.1993 130.62 75.9493 133.38 75.9493C136.14 75.9393 138.39 78.1693 138.39 80.9293C138.4 83.6993 136.17 85.9393 133.4 85.9493H133.39C130.64 85.9493 128.4 83.7193 128.39 80.9593Z" fill="black"/>
<path d="M128.4 80.0608C128.4 79.8208 128.39 79.6708 128.38 79.5708C128.17 76.8108 130.22 74.4108 132.97 74.1808C135.73 73.9708 138.13 76.0208 138.35 78.7708C138.39 79.2808 138.4 79.7108 138.4 80.0608C138.4 82.8208 136.16 85.0608 133.4 85.0608C130.64 85.0608 128.4 82.8208 128.4 80.0608Z" fill="black"/>
<path d="M130.88 83.33C128.5 81.94 127.7 78.87 129.09 76.49C129.54 75.68 130.61 74.48 132.34 74.06C135.03 73.4 137.73 75.04 138.39 77.73C138.87 79.7 138.11 81.68 136.61 82.86C135.71 83.61 134.57 84.02 133.4 84.02C132.55 84.02 131.68 83.79 130.88 83.33Z" fill="black"/>
<path d="M134 83.8808C131.24 83.8108 129.06 81.5108 129.14 78.7408C129.21 75.9908 131.51 73.8108 134.28 73.8908C137.03 73.9608 139.21 76.2608 139.13 79.0208C139.06 81.7408 136.83 83.8908 134.14 83.8908C134.09 83.8908 134.04 83.8908 134 83.8908V83.8808Z" fill="black"/>
<path d="M136.71 83.8907C133.96 83.8907 131.72 81.6407 131.73 78.8807C131.74 76.1207 133.98 73.8807 136.74 73.8907C139.51 73.8907 141.74 76.1507 141.73 78.9107C141.72 81.6607 139.49 83.8907 136.73 83.8907H136.71Z" fill="black"/>
<path d="M151.14 83.9102C148.38 83.9102 146.15 81.6702 146.15 78.9102C146.15 76.1402 148.4 73.9102 151.16 73.9102C153.92 73.9102 156.16 76.1602 156.15 78.9202C156.15 81.6802 153.91 83.9102 151.15 83.9102H151.14Z" fill="black"/>
<path d="M146.32 131.25C146.32 128.49 148.56 126.25 151.32 126.25C154.08 126.25 156.32 128.48 156.32 131.25C156.32 134.01 154.09 136.25 151.33 136.25C148.56 136.25 146.32 134.02 146.32 131.25ZM146.27 105.1C146.26 102.33 148.5 100.09 151.26 100.08C154.02 100.07 156.27 102.31 156.27 105.07C156.28 107.83 154.05 110.07 151.29 110.08H151.28C148.52 110.08 146.28 107.86 146.27 105.1Z" fill="black"/>
<path d="M151.34 162.609C148.7 162.609 146.49 160.539 146.35 157.869V157.679C146.2 154.919 148.31 152.569 151.07 152.429C153.82 152.259 156.18 154.399 156.32 157.159V157.349C156.47 160.109 154.36 162.459 151.6 162.599C151.51 162.599 151.42 162.599 151.34 162.599V162.609Z" fill="black"/>
<path d="M41.04 207.05C41.04 204.28 43.28 202.05 46.04 202.05C48.8 202.05 51.04 204.29 51.04 207.05C51.04 209.81 48.8 212.05 46.04 212.05C43.28 212.05 41.04 209.81 41.04 207.05ZM41.04 181.27C41.04 178.51 43.28 176.27 46.04 176.27C48.8 176.27 51.04 178.51 51.04 181.27C51.04 184.03 48.8 186.27 46.04 186.27C43.28 186.27 41.04 184.03 41.04 181.27Z" fill="black"/>
<path d="M43.1801 242.48C40.5901 241.5 39.2901 238.62 40.2601 236.04C41.2401 233.45 44.1201 232.15 46.7101 233.12C49.2901 234.1 50.6001 236.98 49.6201 239.56C48.8601 241.57 46.9601 242.8 44.9401 242.8C44.3501 242.8 43.7601 242.7 43.1801 242.48Z" fill="black"/>
<path d="M26.55 248.419C26.24 245.669 28.22 243.199 30.97 242.889C33.71 242.589 36.18 244.569 36.49 247.309C36.79 250.059 34.82 252.529 32.07 252.839C31.88 252.859 31.7 252.869 31.51 252.869C29 252.869 26.84 250.969 26.55 248.419Z" fill="black"/>
<path d="M14.5498 247.859C14.5498 245.099 16.7898 242.869 19.5598 242.869C22.3198 242.869 24.5498 245.099 24.5498 247.859C24.5498 250.629 22.3198 252.869 19.5598 252.869C16.7898 252.869 14.5498 250.629 14.5498 247.859Z" fill="black"/>
<path d="M0.0401582 234.061C-0.289842 231.321 1.67016 228.831 4.41016 228.511C7.16016 228.191 9.64016 230.151 9.97016 232.891C10.2902 235.631 8.33016 238.121 5.59016 238.441C5.39016 238.461 5.19016 238.481 5.00016 238.481C2.50016 238.481 0.340158 236.611 0.0401582 234.061Z" fill="black"/>
<path d="M0 202.921C0 200.161 2.24 197.921 5 197.921C7.76 197.921 10 200.161 10 202.921C10 205.681 7.76 207.921 5 207.921C2.24 207.921 0 205.681 0 202.921ZM0 172.371C0 169.601 2.24 167.371 5 167.371C7.76 167.371 10 169.601 10 172.371C10 175.131 7.76 177.371 5 177.371C2.24 177.371 0 175.131 0 172.371ZM0 141.811C0 139.051 2.24 136.811 5 136.811C7.76 136.811 10 139.051 10 141.811C10 144.571 7.76 146.811 5 146.811C2.24 146.811 0 144.571 0 141.811ZM0 111.261C0 108.491 2.24 106.251 5 106.251C7.76 106.251 10 108.491 10 111.261C10 114.021 7.76 116.251 5 116.251C2.24 116.251 0 114.021 0 111.261ZM0 80.7006C0 77.9406 2.24 75.7006 5 75.7006C7.76 75.7006 10 77.9406 10 80.7006C10 83.4606 7.76 85.7006 5 85.7006C2.24 85.7006 0 83.4606 0 80.7006ZM0 50.1506C0 47.3806 2.24 45.1406 5 45.1406C7.76 45.1406 10 47.3806 10 50.1506C10 52.9106 7.76 55.1406 5 55.1406C2.24 55.1406 0 52.9106 0 50.1506Z" fill="black"/>
<path d="M10.03 8.17072C8.97999 5.62072 10.2 2.70072 12.76 1.65072C15.31 0.600721 18.23 1.83072 19.28 4.38072C20.33 6.94072 19.1 9.85072 16.55 10.9007C15.93 11.1607 15.29 11.2807 14.66 11.2807C12.69 11.2807 10.82 10.1107 10.03 8.17072Z" fill="black"/>
<path d="M14.9902 5.01C14.9902 2.24 17.2302 0 19.9902 0C22.7502 0 24.9902 2.24 24.9902 5.01C24.9902 7.77 22.7502 10.01 19.9902 10.01C17.2302 10.01 14.9902 7.77 14.9902 5.01Z" fill="black"/>
<path d="M25.6602 5.00003C25.6602 2.24003 27.9002 3.33523e-05 30.6602 3.33523e-05C33.4202 -0.00996665 35.6602 2.23003 35.6602 4.99003C35.6702 7.76003 33.4302 10 30.6702 10C27.9002 10 25.6602 7.76003 25.6602 5.00003Z" fill="black"/>
<path d="M41.0298 20C41.0298 17.24 43.2598 15 46.0198 15C48.7798 15 51.0198 17.23 51.0198 20C51.0298 22.76 48.7898 25 46.0198 25C43.2598 25 41.0298 22.76 41.0298 20Z" fill="black"/>
<path d="M41.0398 71.5593C41.0398 68.7993 43.2798 66.5593 46.0398 66.5493C48.7998 66.5493 51.0398 68.7893 51.0398 71.5493C51.0398 74.3193 48.7998 76.5493 46.0398 76.5593C43.2798 76.5593 41.0398 74.3193 41.0398 71.5593ZM41.0298 45.7793C41.0298 43.0193 43.2698 40.7793 46.0298 40.7793C48.7898 40.7793 51.0298 43.0093 51.0298 45.7693C51.0298 48.5393 48.7898 50.7693 46.0298 50.7793C43.2698 50.7793 41.0298 48.5393 41.0298 45.7793Z" fill="black"/>
<path d="M40.4902 97.9895C40.4902 96.0995 41.5502 94.4395 43.1102 93.5995C44.8802 92.4195 47.2702 92.4595 49.0102 93.8695C51.1702 95.5895 51.5102 98.7395 49.7802 100.889C49.0002 101.729 48.1102 102.839 45.4902 102.989C42.7302 102.989 40.4902 100.749 40.4902 97.9895Z" fill="black"/>
<path d="M23.2198 97.9902C23.2198 95.2302 25.4498 92.9902 28.2198 92.9902C30.9798 92.9902 33.2198 95.2302 33.2198 97.9902C33.2198 100.75 30.9798 102.99 28.2098 102.99C25.4498 102.99 23.2098 100.75 23.2198 97.9902Z" fill="black"/>
<path d="M25.6998 102.43C25.0698 102.13 24.2298 101.54 23.6198 100.61C22.9898 99.6899 22.7198 98.5499 22.7398 97.6699C22.7398 94.9099 24.9798 92.6699 27.7398 92.6699C29.6298 92.6699 31.2698 93.7199 32.1198 95.2699C33.0198 96.6899 33.1798 98.5199 32.3898 100.13C31.5198 101.91 29.7398 102.94 27.8898 102.94C27.1598 102.94 26.4098 102.78 25.6998 102.43Z" fill="black"/>
<path d="M22.7402 60.74C22.7402 57.98 24.9802 55.75 27.7402 55.75C30.5002 55.75 32.7402 57.98 32.7402 60.74C32.7402 63.5 30.5002 65.75 27.7402 65.75C24.9802 65.75 22.7402 63.5 22.7402 60.74Z" fill="black"/>
<path d="M25.35 27.7496C23.42 27.0496 22.04 25.2096 22.04 23.0396C22.04 20.2796 24.28 18.0396 27.04 18.0396C28.31 18.0196 30.09 18.5296 31.36 20.0096C33.16 22.0996 32.92 25.2596 30.82 27.0596C29.88 27.8696 28.72 28.2596 27.57 28.2596C26.8 28.2596 26.04 28.0896 25.35 27.7496Z" fill="black"/>
<path d="M18.7599 23.1005C18.7399 20.3305 20.9599 18.0805 23.7299 18.0605C26.4899 18.0605 28.7399 20.2705 28.7599 23.0305C28.7799 25.7905 26.5499 28.0505 23.7899 28.0605H23.7499C21.0099 28.0605 18.7799 25.8505 18.7599 23.1005Z" fill="black"/>
<path d="M18.3398 23.9107C18.3398 23.4007 18.3598 22.8507 18.5498 22.1207C19.2398 19.4507 21.9798 17.8407 24.6498 18.5407C27.1498 19.1907 28.7098 21.6207 28.3298 24.1207C28.2298 26.7907 26.0298 28.9107 23.3398 28.9107C20.5698 28.9107 18.3398 26.6707 18.3398 23.9107Z" fill="black"/>
<path d="M18.3398 199.629C18.3398 196.869 20.5798 194.629 23.3398 194.629C26.0998 194.629 28.3398 196.869 28.3398 199.629C28.3398 202.399 26.0998 204.629 23.3398 204.629C20.5798 204.629 18.3398 202.399 18.3398 199.629ZM18.3398 170.349C18.3398 167.589 20.5798 165.349 23.3398 165.349C26.0998 165.349 28.3398 167.589 28.3398 170.349C28.3398 173.109 26.0998 175.349 23.3398 175.349C20.5798 175.349 18.3398 173.109 18.3398 170.349ZM18.3398 141.059C18.3398 138.299 20.5798 136.059 23.3398 136.059C26.0998 136.059 28.3398 138.299 28.3398 141.059C28.3398 143.819 26.0998 146.059 23.3398 146.059C20.5798 146.059 18.3398 143.819 18.3398 141.059ZM18.3398 111.769C18.3398 109.009 20.5798 106.769 23.3398 106.769C26.0998 106.769 28.3398 109.009 28.3398 111.769C28.3398 114.539 26.0998 116.769 23.3398 116.769C20.5798 116.769 18.3398 114.539 18.3398 111.769ZM18.3398 82.4892C18.3398 79.7292 20.5798 77.4892 23.3398 77.4892C26.0998 77.4892 28.3398 79.7292 28.3398 82.4892C28.3398 85.2492 26.0998 87.4892 23.3398 87.4892C20.5798 87.4892 18.3398 85.2492 18.3398 82.4892ZM18.3398 53.1992C18.3398 50.4392 20.5798 48.1992 23.3398 48.1992C26.0998 48.1992 28.3398 50.4392 28.3398 53.1992C28.3398 55.9592 26.0998 58.1992 23.3398 58.1992C20.5798 58.1992 18.3398 55.9592 18.3398 53.1992Z" fill="black"/>
<path d="M23.6 234.77C22.18 234.77 20.72 234.02 19.94 233.16C19.12 232.3 18.79 231.46 18.59 230.79C17.83 228.14 19.37 225.37 22.03 224.61C23.99 224.05 26.02 224.75 27.24 226.22C28.18 227.16 28.75 228.46 28.71 229.88C28.66 232.6 26.43 234.77 23.72 234.77H23.6Z" fill="black"/>
<path d="M26.8801 234.789C24.1301 234.769 21.9001 232.519 21.9201 229.759C21.9401 226.999 24.2001 224.769 26.9601 224.789C29.7201 224.819 31.9401 227.069 31.9201 229.829C31.9001 232.579 29.6701 234.789 26.9201 234.789H26.8801Z" fill="black"/>
<path d="M23.9702 233.1C22.4602 231.58 22.1202 229.34 22.9602 227.5C23.5902 225.46 25.4902 223.98 27.7402 223.98C30.5002 223.98 32.7302 226.22 32.7302 228.98C32.7602 230.37 32.1802 232 31.0402 233.1C30.0702 234.08 28.7902 234.57 27.5102 234.57C26.2302 234.57 24.9502 234.08 23.9702 233.1Z" fill="black"/>
<path d="M22.73 192.34C22.73 189.58 24.97 187.34 27.73 187.34C30.5 187.34 32.73 189.58 32.73 192.34C32.73 195.1 30.5 197.34 27.73 197.34C24.97 197.34 22.73 195.1 22.73 192.34Z" fill="black"/>
<path d="M27.2801 160.391C24.5301 160.131 22.5101 157.691 22.7701 154.941C22.8301 154.541 22.8301 154.071 23.2501 153.071C24.3901 150.551 27.3601 149.441 29.8701 150.581C32.1101 151.591 33.2301 154.041 32.6601 156.341C32.2201 158.701 30.1501 160.411 27.7501 160.411C27.6001 160.411 27.4401 160.411 27.2801 160.391Z" fill="black"/>
<path d="M23.3499 156.64C22.4199 154.04 23.7799 151.18 26.3799 150.26C26.9499 150.08 27.3099 149.93 28.3599 149.9C31.1199 149.9 33.3599 152.14 33.3599 154.9C33.3599 157.37 31.5799 159.41 29.2399 159.83C28.8499 159.92 28.4499 159.97 28.0599 159.97C26.0099 159.97 24.0799 158.69 23.3499 156.64Z" fill="black"/>
<path d="M40.5 154.9C40.5 152.14 42.74 149.9 45.49 149.9C48.26 149.9 50.5 152.14 50.5 154.9C50.5 157.66 48.26 159.9 45.49 159.9C42.74 159.9 40.5 157.66 40.5 154.9Z" fill="black"/>
<path d="M41.33 157.171C40.45 155.241 40.87 152.881 42.53 151.381C44.58 149.531 47.74 149.691 49.59 151.741C50.39 152.631 51.03 153.881 51.04 155.491C51.04 158.251 48.8 160.491 46.04 160.491C43.87 160.491 42.02 159.101 41.33 157.171Z" fill="black"/>
<path d="M80.3298 32.2701C77.5698 32.1801 75.4098 29.8701 75.4998 27.1101C75.5898 24.3501 77.8998 22.1901 80.6598 22.2801C83.4198 22.3701 85.5798 24.6801 85.4898 27.4401C85.3998 30.1501 83.1798 32.2801 80.4998 32.2801C80.4398 32.2801 80.3898 32.2801 80.3298 32.2801V32.2701Z" fill="black"/>
<path d="M63.8502 27.6102C63.6702 24.8602 65.7502 22.4802 68.5102 22.2902C71.2602 22.1102 73.6502 24.1902 73.8302 26.9402C74.0102 29.7002 71.9302 32.0802 69.1802 32.2702C69.0602 32.2702 68.9502 32.2702 68.8402 32.2702C66.2302 32.2702 64.0302 30.2402 63.8502 27.6002V27.6102Z" fill="black"/>
<path d="M54.1299 48.1191C51.3699 48.1191 49.1299 45.8791 49.1299 43.1191C49.1299 40.3591 51.3699 38.1191 54.1299 38.1191C56.8899 38.1191 59.1299 40.3591 59.1299 43.1191C59.1299 45.8791 56.8899 48.1191 54.1299 48.1191Z" fill="black"/>
<path d="M49.1001 128.55C49.1001 125.79 51.3401 123.55 54.1001 123.55C56.8601 123.55 59.1001 125.79 59.1001 128.55C59.1001 131.32 56.8601 133.55 54.1001 133.55C51.3401 133.55 49.1001 131.31 49.1001 128.55ZM54.1101 105.07C51.3501 105.07 49.1101 102.83 49.1101 100.07C49.1101 97.3098 51.3501 95.0698 54.1101 95.0698C56.8701 95.0798 59.1101 97.3098 59.1101 100.07C59.1101 102.84 56.8701 105.07 54.1101 105.07ZM49.1201 71.5898C49.1201 68.8298 51.3601 66.5898 54.1201 66.5898C56.8801 66.5898 59.1201 68.8398 59.1201 71.5998C59.1201 74.3598 56.8801 76.5898 54.1201 76.5898C51.3601 76.5898 49.1201 74.3598 49.1201 71.5898Z" fill="black"/>
<path d="M50.7899 161.08C48.8299 159.14 48.7999 155.97 50.7399 154C52.2899 152.43 54.6299 152.1 56.5099 153.03C58.4299 153.73 59.7899 155.57 59.7899 157.72C59.7899 160.49 57.5499 162.72 54.7899 162.72C53.1399 162.7 51.8399 162.08 50.7899 161.08Z" fill="black"/>
<path d="M66.5 157.721C66.5 154.961 68.74 152.721 71.49 152.711C74.26 152.711 76.5 154.951 76.5 157.711C76.5 160.471 74.26 162.711 71.5 162.711C68.74 162.711 66.5 160.481 66.5 157.721Z" fill="black"/>
<path d="M66.9098 158.55C66.4698 156.03 67.9998 153.61 70.3998 152.9C72.4398 152.13 74.8298 152.77 76.1898 154.62C77.8198 156.85 77.3298 159.98 75.1098 161.61C74.3498 162.14 73.9098 162.27 73.5498 162.4C73.1998 162.51 72.9398 162.57 72.6998 162.61C72.4098 162.66 72.1198 162.68 71.8298 162.68C69.4498 162.68 67.3398 160.98 66.9098 158.55Z" fill="black"/>
<path d="M70.6 161.981C68.21 161.101 66.89 158.571 67.46 156.151C67.85 153.771 69.91 151.961 72.4 151.961C75.16 151.961 77.4 154.191 77.4 156.961C77.38 157.951 77.21 158.471 77.02 159.021C76.28 161.041 74.37 162.291 72.33 162.291C71.76 162.291 71.17 162.191 70.6 161.981Z" fill="black"/>
<path d="M67.3999 120.92C67.3999 118.15 69.6399 115.91 72.3999 115.91C75.1599 115.91 77.3999 118.15 77.3999 120.92C77.3999 123.68 75.1599 125.91 72.3999 125.91C69.6399 125.91 67.3999 123.68 67.3999 120.92Z" fill="black"/>
<path d="M69.7599 124.609C67.4599 123.079 66.8399 119.979 68.3599 117.679C69.0999 116.419 71.0399 115.149 72.9399 115.209C75.7099 115.209 77.9499 117.449 77.9499 120.209C77.9499 122.169 76.8199 123.859 75.1799 124.679C74.3799 125.179 73.4599 125.439 72.5199 125.439C71.5699 125.439 70.6099 125.169 69.7599 124.609Z" fill="black"/>
<path d="M71.2598 120.211C71.2498 117.451 73.4898 115.211 76.2498 115.211C79.0098 115.211 81.2498 117.431 81.2598 120.191C81.2598 122.961 79.0298 125.201 76.2698 125.201H76.2498C73.4998 125.201 71.2598 122.971 71.2598 120.211Z" fill="black"/>
<path d="M72.0599 122.241C71.3099 120.341 71.7699 118.111 73.3799 116.671C75.4399 114.831 78.5999 115.011 80.4399 117.071C81.4099 118.121 81.8999 119.651 81.8699 120.871C81.8699 123.631 79.6299 125.871 76.8699 125.871C74.5799 125.871 72.6599 124.331 72.0599 122.241Z" fill="black"/>
<path d="M71.8701 156.949C71.8701 154.189 74.1101 151.949 76.8701 151.949C79.6301 151.949 81.8701 154.189 81.8701 156.949C81.8701 159.719 79.6301 161.949 76.8701 161.949C74.1101 161.949 71.8701 159.719 71.8701 156.949Z" fill="black"/>
<path d="M73.2598 160.75C71.4598 158.66 71.6998 155.5 73.7998 153.7C75.3798 152.34 77.5698 152.15 79.3198 153.03C81.2198 153.74 82.5698 155.57 82.5698 157.72C82.5698 160.48 80.3298 162.72 77.5698 162.72H77.4498C75.9498 162.72 74.2298 161.94 73.2598 160.75Z" fill="black"/>
<path d="M89.5498 157.721C89.5398 154.961 91.7798 152.721 94.5398 152.721C97.3098 152.721 99.5398 154.961 99.5498 157.721C99.5498 160.481 97.3098 162.721 94.5498 162.721C91.7798 162.721 89.5498 160.481 89.5498 157.721Z" fill="black"/>
<path d="M92.0499 161.48C90.1999 160.11 89.5599 157.7 90.3599 155.65C90.9199 153.51 92.8699 151.93 95.1899 151.93C97.9499 151.93 100.19 154.17 100.19 156.93C100.17 158.21 99.8399 159.32 99.0499 160.43C98.0599 161.76 96.5499 162.46 95.0199 162.46C93.9899 162.46 92.9399 162.14 92.0499 161.48Z" fill="black"/>
<path d="M90.1701 128.21C90.1701 125.45 92.4101 123.21 95.1701 123.21C97.9301 123.21 100.17 125.44 100.17 128.2C100.17 130.96 97.9401 133.21 95.1801 133.21C92.4201 133.21 90.1701 130.97 90.1701 128.21ZM90.1601 99.4898C90.1501 96.7198 92.3901 94.4798 95.1501 94.4798C97.9201 94.4798 100.15 96.7198 100.16 99.4798C100.16 102.24 97.9201 104.48 95.1601 104.48C92.4001 104.48 90.1601 102.25 90.1601 99.4898ZM90.1401 70.7598C90.1401 67.9998 92.3801 65.7598 95.1401 65.7598C97.9001 65.7598 100.14 67.9898 100.14 70.7498C100.14 73.5198 97.9001 75.7598 95.1401 75.7598C92.3801 75.7598 90.1401 73.5198 90.1401 70.7598Z" fill="black"/>
<path d="M67.3999 102.109C67.3999 99.3494 69.6399 97.1094 72.3999 97.1094C75.1599 97.1094 77.3999 99.3494 77.3999 102.109C77.3999 104.869 75.1599 107.109 72.3999 107.109C69.6399 107.109 67.3999 104.869 67.3999 102.109Z" fill="black"/>
<path d="M67.3999 73.6504C67.3999 70.8804 69.6399 68.6504 72.3999 68.6504C75.1599 68.6504 77.3999 70.8804 77.3999 73.6504C77.3999 76.4104 75.1599 78.6504 72.3999 78.6504C69.6399 78.6504 67.3999 76.4104 67.3999 73.6504Z" fill="black"/>
<path d="M71.8701 45.1797C71.8701 42.4197 74.1101 40.1797 76.8701 40.1797C79.6301 40.1797 81.8701 42.4197 81.8701 45.1797C81.8701 47.9397 79.6301 50.1797 76.8701 50.1797C74.1101 50.1797 71.8701 47.9397 71.8701 45.1797Z" fill="black"/>
<path d="M71.8701 73.6504C71.8701 70.8804 74.1101 68.6504 76.8701 68.6504C79.6301 68.6504 81.8701 70.8804 81.8701 73.6504C81.8701 76.4104 79.6301 78.6504 76.8701 78.6504C74.1101 78.6504 71.8701 76.4104 71.8701 73.6504Z" fill="black"/>
<path d="M76.8702 107.109H72.4102C69.6502 107.109 67.4102 104.869 67.4102 102.109C67.4102 99.3494 69.6502 97.1094 72.4102 97.1094H76.8702C79.6302 97.1094 81.8702 99.3494 81.8702 102.109C81.8702 104.869 79.6302 107.109 76.8702 107.109Z" fill="black"/>
</g>
</g>
<defs>
<clipPath id="clip0_2561_11049">
<rect width="156.34" height="252.87" fill="white"/>
</clipPath>
</defs>
</svg>
