<svg width="215" height="320" viewBox="0 0 215 320" fill="none" xmlns="http://www.w3.org/2000/svg">
<g clip-path="url(#clip0_2561_10022)">
<path d="M155.32 239.061H80.4404V259.791H155.32V239.061Z" fill="#90BEFB"/>
<mask id="mask0_2561_10022" style="mask-type:luminance" maskUnits="userSpaceOnUse" x="0" y="0" width="215" height="320">
<path d="M214.09 0H0V319.33H214.09V0Z" fill="white"/>
</mask>
<g mask="url(#mask0_2561_10022)">
<path d="M80.0305 240.362V313.672C79.4305 314.442 78.5505 314.242 77.7705 314.252L74.4305 314.292C72.8005 314.312 71.2305 314.352 69.6405 314.242C68.1805 314.142 66.7505 314.182 65.2805 314.212L63.4705 314.252C62.7405 314.262 62.1905 314.272 61.3905 314.232C61.0005 314.432 59.5805 314.362 59.5805 313.552L59.5505 259.662H10.2305C9.50047 259.652 8.88047 259.682 8.19047 259.712C6.82047 259.422 5.76047 260.262 4.99047 259.082V239.892C5.17047 239.552 5.36047 239.192 5.86047 239.192H60.5905C59.7505 238.702 59.4605 238.372 59.5305 237.522C59.6705 235.832 59.3305 234.202 59.1605 232.512L59.0105 230.982L58.1705 227.062C57.7705 225.182 56.5205 220.712 55.7505 219.042L53.8705 214.942C52.7305 212.462 51.2205 210.262 49.7305 207.982C49.0205 206.892 46.8505 204.162 45.9705 203.222L44.0305 201.132C42.9605 199.982 41.8605 198.982 40.6705 197.952C39.8705 197.262 39.1105 196.532 38.2505 195.932L37.3505 195.292L35.6005 193.982C33.2405 192.202 27.9705 189.442 25.0805 188.352L21.2105 186.902C20.5105 186.632 19.8105 186.452 19.0805 186.232C18.2805 185.992 17.5305 185.902 16.6905 185.702L15.5405 185.422L12.8705 185.002C12.4505 184.932 11.9505 184.872 11.5205 184.832L9.43047 184.662C8.48047 184.582 7.60047 184.502 6.65047 184.522C5.96047 184.532 5.32047 184.352 4.98047 183.822V163.932H9.02047L12.8205 164.452L15.3905 164.552C16.2905 164.582 17.1405 165.042 18.0605 165.042C18.8305 165.032 19.4905 165.232 20.2305 165.362C21.1305 165.522 22.0105 165.662 22.9205 165.882L25.3705 166.492C27.1105 166.922 28.7305 167.562 30.4305 168.112L31.8005 168.552L33.7505 169.262C34.7505 169.622 35.6705 170.062 36.6405 170.522L40.7105 172.482C42.2205 173.212 43.5905 174.092 45.0305 174.972L47.4505 176.452C48.4405 177.062 49.3005 177.842 50.2405 178.512C50.5705 178.742 50.9305 178.952 51.2305 179.202L52.8005 180.412L54.4205 181.872L55.4305 182.652L59.1105 186.222L61.6205 188.992C65.1405 192.882 68.5805 197.882 71.0505 202.542C72.0005 204.342 72.9605 206.032 73.7105 207.932C73.8405 208.272 73.9505 208.742 74.1105 209.062C75.6105 212.242 76.7005 215.482 77.4805 218.922L77.9005 220.762C78.0705 221.492 78.2105 222.162 78.3905 222.912L78.9805 225.452C79.1805 226.342 79.2205 227.162 79.3905 228.082C79.5005 228.612 79.4705 229.322 79.5405 229.872L79.8305 232.382C80.0705 234.402 80.0305 236.112 79.9905 238.232C79.9905 238.712 79.2505 238.792 78.7705 239.052C79.5105 239.332 80.0205 239.532 80.0205 240.342" fill="#90BEFB"/>
<path d="M204.531 157.601V230.551C204.461 231.181 203.501 231.431 203.081 231.351C202.741 231.291 202.431 231.401 202.121 231.401H191.481C191.111 231.401 190.761 231.331 190.411 231.361C189.441 231.451 188.481 231.411 187.491 231.381L185.741 231.341C185.351 231.331 184.931 231.431 184.561 231.281C184.271 231.161 183.921 230.871 183.921 230.401V176.361C183.921 176.231 183.901 175.991 183.851 176.021C183.781 176.061 183.611 176.171 183.551 176.241C182.741 177.241 181.701 176.741 179.661 176.951C178.841 177.031 177.941 176.951 177.141 177.101L173.821 177.701L171.471 178.231C170.231 178.511 169.031 178.811 167.801 179.171L166.081 179.681C165.601 179.821 165.011 180.021 164.571 180.221L160.731 181.951L158.001 183.281C156.621 183.961 155.391 184.891 154.041 185.711C151.821 187.061 149.881 188.721 147.871 190.381C146.641 191.401 143.051 195.071 142.031 196.361L139.911 199.001C139.051 200.081 138.661 200.731 137.931 201.851L136.661 203.811C135.451 205.691 135.151 206.611 134.211 208.591L133.491 210.091L132.961 211.221C132.771 211.631 132.551 212.171 132.411 212.601L131.821 214.391C131.671 214.831 131.541 215.331 131.411 215.791L130.941 217.541C130.681 218.471 130.431 219.391 130.241 220.331L129.871 222.061C129.731 222.731 129.681 223.481 129.581 224.201L129.181 226.981C129.041 228.001 128.971 228.981 129.131 229.991C129.221 230.621 128.861 231.411 128.031 231.411H114.461L113.321 231.381L112.071 231.401H109.861C108.911 231.411 108.501 230.581 108.551 229.761L108.691 227.671C108.751 226.671 108.671 225.631 108.781 224.661L109.131 221.681C109.311 220.231 109.601 217.941 109.901 216.601L110.381 214.401L111.091 211.491L111.611 209.371C111.891 208.221 112.611 206.021 113.061 204.891L113.771 203.121L114.301 201.831L114.991 200.161C115.411 199.141 115.821 198.151 116.341 197.191L117.361 195.271C118.571 193.011 119.811 190.881 121.271 188.761C121.591 188.301 121.831 187.741 122.191 187.291L126.741 181.551L129.461 178.701C130.101 178.031 130.751 177.391 131.421 176.761L133.771 174.531L135.071 173.451L138.001 171.101C139.221 170.131 140.491 169.341 141.771 168.481C145.701 165.861 150.391 163.391 154.801 161.711C157.521 160.671 160.121 159.601 162.991 158.961L165.591 158.371L167.931 157.801L170.001 157.451C170.511 157.371 170.991 157.201 171.491 157.141L175.941 156.601C176.421 156.541 176.991 156.511 177.471 156.491L179.911 156.371L182.511 156.281C182.941 156.271 183.271 156.481 183.511 156.801L183.681 157.021C183.901 157.301 184.211 155.761 185.561 156.311H203.751C204.281 156.321 204.481 157.161 204.481 157.601" fill="#90BEFB"/>
<path d="M107.77 231.321C107.4 231.511 106.73 231.361 106.27 231.361L104.69 231.381L101.9 231.411H91.1C90.72 231.411 90.23 231.191 89.86 231.321C89.21 231.521 88.18 231.421 87.89 230.681V156.931C88.12 156.581 88.54 156.411 88.98 156.151C88.37 155.981 87.87 155.801 87.88 155.201V154.051L87.89 81.9406C87.89 81.5206 88.2 81.2505 88.45 81.0605H107.8C108.02 81.2205 108.35 81.5505 108.35 81.9505V155.161C108.35 155.851 107.87 155.911 107.24 156.171C107.87 156.431 108.35 156.491 108.35 157.181V229.711C108.35 230.371 108.48 230.951 107.77 231.321Z" fill="#90BEFB"/>
<path d="M154.551 41.2308C154.791 38.5308 155.501 35.5308 157.071 33.3408L158.301 31.6308C158.431 31.4608 158.651 31.0408 158.831 30.8708C160.051 29.7108 161.481 28.5508 162.991 27.5808C164.011 26.9208 167.401 25.8108 168.741 25.6908L170.141 25.5708C172.491 25.3608 175.301 25.7008 177.531 26.5008C178.161 26.7208 179.981 27.4808 180.381 27.7808L182.321 29.2108C184.071 30.5008 186.101 33.0708 186.921 35.0208C187.811 37.1508 188.361 39.2308 188.471 41.5408C188.491 41.9708 188.531 42.3908 188.831 42.6708C188.851 42.7008 188.881 42.7208 188.911 42.7508C188.971 42.7908 189.041 42.8308 189.121 42.8708C189.201 42.9008 189.291 42.9408 189.391 42.9608C189.381 42.9908 189.341 43.0708 189.241 43.2008H154.221C153.801 43.2008 153.571 43.0308 153.491 42.9808C154.511 42.8108 154.451 42.0808 154.531 41.2408M134.961 43.0708C134.781 43.2108 134.221 43.5008 134.221 43.7908V117.151C134.221 117.611 134.511 117.881 134.931 117.881H153.481C153.961 117.881 154.301 117.721 154.541 117.401V63.6508L207.821 63.6408C208.371 63.6408 208.751 63.5208 208.971 63.0708V43.7808C208.971 43.4908 208.631 43.2508 208.371 43.2308L208.111 43.0208C209.611 42.5708 208.711 40.7908 208.831 39.0308C208.911 37.8908 208.661 36.9508 208.371 35.8708C208.191 35.1608 208.281 34.3308 207.941 33.6508C207.691 33.1408 207.671 32.5108 207.511 31.9708L206.821 29.7708C206.291 28.0508 205.461 26.5908 204.661 25.0108C203.561 22.8308 202.251 20.9208 200.731 19.0408C200.451 18.7008 200.191 18.2508 199.871 17.9308L196.751 14.7708C195.861 13.8608 194.761 13.1608 193.751 12.3408C191.451 10.4808 188.671 9.09076 185.951 7.78076C184.451 7.06076 182.831 6.64076 181.221 6.25076L179.681 5.87076L176.391 5.25076C175.971 5.17076 175.441 5.12076 175.011 5.10076L172.671 5.01076C171.841 4.97076 171.111 4.98076 170.281 5.01076L167.721 5.12076C166.521 5.17076 161.211 6.31076 159.991 6.73076C158.861 7.11076 157.691 7.44076 156.641 7.99076L152.801 10.0108C151.831 10.5208 150.891 11.1208 150.021 11.7908L147.971 13.3708C146.781 14.2808 145.751 15.3008 144.711 16.3908L143.361 17.8108C142.381 18.8308 139.111 23.3908 138.551 24.6408L136.261 29.7608C135.771 30.8608 135.091 33.5808 134.861 34.8508L134.451 37.1108C134.391 37.4508 134.261 37.9908 134.261 38.3208L134.231 42.1008C134.231 42.4808 134.651 42.8308 134.981 43.0708" fill="#90BEFB"/>
</g>
<path d="M209.09 118.301H134.21V138.751H209.09V118.301Z" fill="#90BEFB"/>
<path d="M150.32 259.789C150.32 257.019 152.56 254.779 155.32 254.779C158.08 254.779 160.32 257.019 160.32 259.789C160.32 262.549 158.08 264.779 155.32 264.779C152.56 264.779 150.32 262.549 150.32 259.789Z" fill="black"/>
<path d="M112.88 259.789C112.88 257.019 115.12 254.779 117.88 254.779C120.64 254.779 122.88 257.019 122.88 259.789C122.88 262.549 120.64 264.779 117.88 264.779C115.12 264.779 112.88 262.549 112.88 259.789Z" fill="black"/>
<path d="M75.4404 239.061C75.4404 236.301 77.6804 234.061 80.4404 234.061C83.2004 234.061 85.4404 236.301 85.4404 239.061C85.4404 241.821 83.2004 244.061 80.4404 244.061C77.6804 244.061 75.4404 241.821 75.4404 239.061Z" fill="black"/>
<path d="M112.88 239.061C112.88 236.301 115.11 234.061 117.88 234.061C120.64 234.061 122.88 236.301 122.88 239.061C122.88 241.821 120.64 244.061 117.88 244.061C115.11 244.061 112.88 241.821 112.88 239.061Z" fill="black"/>
<mask id="mask1_2561_10022" style="mask-type:luminance" maskUnits="userSpaceOnUse" x="0" y="0" width="215" height="320">
<path d="M214.09 0H0V319.33H214.09V0Z" fill="white"/>
</mask>
<g mask="url(#mask1_2561_10022)">
<path d="M75.0195 277.01C75.0195 274.25 77.2595 272.01 80.0195 272.01C82.7895 272.01 85.0195 274.25 85.0195 277.01C85.0195 279.77 82.7795 282.01 80.0195 282.01C77.2595 282.01 75.0195 279.77 75.0195 277.01Z" fill="black"/>
<path d="M72.7695 314.25C72.7695 311.49 75.0095 309.25 77.7695 309.25C80.5295 309.25 82.7695 311.49 82.7695 314.25C82.7695 317.01 80.5295 319.25 77.7695 319.25C75.0095 319.25 72.7695 317.01 72.7695 314.25Z" fill="black"/>
<path d="M69.43 314.35C69.4 311.59 71.61 309.33 74.37 309.29C77.13 309.25 79.4 311.46 79.43 314.23C79.47 316.99 77.26 319.25 74.5 319.29H74.43C71.7 319.29 69.47 317.09 69.43 314.35Z" fill="black"/>
<path d="M69.2997 319.23C66.5397 319.04 64.4597 316.65 64.6497 313.9C64.8497 311.14 67.2297 309.06 69.9897 309.25C72.7397 309.45 74.8197 311.83 74.6297 314.59C74.4497 317.23 72.2497 319.25 69.6497 319.25C69.5297 319.25 69.4097 319.25 69.2997 319.23Z" fill="black"/>
<path d="M60.2801 314.31C60.2301 311.55 62.4301 309.27 65.1901 309.21C67.9501 309.16 70.2301 311.36 70.2801 314.12C70.3301 316.88 68.1301 319.16 65.3701 319.21C65.3701 319.21 65.3101 319.21 65.2801 319.21C62.5601 319.21 60.3301 317.03 60.2801 314.3V314.31Z" fill="black"/>
<path d="M58.47 314.37C58.41 311.61 60.6 309.32 63.36 309.26L64.26 309.24C67.02 309.17 69.31 311.36 69.37 314.12C69.43 316.88 67.25 319.17 64.49 319.23L63.58 319.25C63.58 319.25 63.51 319.25 63.47 319.25C60.76 319.25 58.53 317.08 58.47 314.36V314.37Z" fill="black"/>
<path d="M61.1301 319.23C58.3701 319.08 56.2601 316.73 56.4001 313.97C56.5401 311.21 58.9001 309.09 61.6601 309.24C64.4101 309.38 66.5301 311.74 66.3901 314.49C66.2401 317.16 64.0401 319.23 61.4001 319.23H61.1301Z" fill="black"/>
<path d="M54.5801 313.551C54.5801 310.791 56.8201 308.551 59.5801 308.551C62.3401 308.551 64.5801 310.791 64.5801 313.551C64.5801 316.311 62.3401 318.551 59.5801 318.551C56.8201 318.551 54.5801 316.311 54.5801 313.551Z" fill="black"/>
<path d="M54.5703 286.61C54.5603 283.85 56.8003 281.61 59.5603 281.6C62.3303 281.6 64.5603 283.84 64.5703 286.6C64.5703 289.36 62.3303 291.6 59.5703 291.6C56.8103 291.6 54.5703 289.37 54.5703 286.61Z" fill="black"/>
<path d="M29.8896 259.65C29.8896 256.89 32.1296 254.66 34.8896 254.66C37.6496 254.66 39.8896 256.9 39.8896 259.66C39.8896 262.42 37.6496 264.66 34.8896 264.66C32.1296 264.66 29.8896 262.42 29.8896 259.65Z" fill="black"/>
<path d="M3.20968 259.969C3.06968 257.209 5.18968 254.859 7.93968 254.719C10.6997 254.579 13.0497 256.699 13.1897 259.459C13.3297 262.219 11.2097 264.569 8.44968 264.709H8.19968C5.54968 264.709 3.33968 262.639 3.20968 259.969Z" fill="black"/>
<path d="M0.809993 261.809C-0.700007 259.499 -0.0400071 256.399 2.27999 254.899C4.58999 253.389 7.68999 254.049 9.18999 256.359C10.7 258.679 10.04 261.769 7.72999 263.279C6.88999 263.829 5.93999 264.089 5.00999 264.089C3.36999 264.089 1.76999 263.289 0.809993 261.809Z" fill="black"/>
<path d="M0 239.891C0 237.131 2.24 234.891 5 234.891C7.76 234.891 10 237.131 10 239.891C10 242.661 7.76 244.891 5 244.891C2.24 244.891 0 242.661 0 239.891Z" fill="black"/>
<path d="M1.68973 242.83C-0.210275 240.81 -0.110275 237.65 1.89973 235.76C2.73973 234.88 4.49973 234.13 5.86973 234.2C8.62973 234.2 10.8697 236.43 10.8697 239.2C10.8697 241.44 9.39973 243.33 7.36973 243.97C6.71973 244.26 6.01973 244.4 5.32973 244.4C3.99973 244.4 2.66973 243.87 1.68973 242.83Z" fill="black"/>
<path d="M28.2305 239.199C28.2305 236.439 30.4705 234.199 33.2305 234.199C36.0005 234.199 38.2305 236.439 38.2305 239.199C38.2305 241.959 36.0005 244.199 33.2305 244.199C30.4705 244.199 28.2305 241.959 28.2305 239.199Z" fill="black"/>
<path d="M59.0899 242.51C56.3399 242.25 54.3099 239.82 54.5599 237.07C54.8099 234.32 57.2499 232.3 59.9999 232.55C62.7399 232.8 64.7699 235.23 64.5199 237.98C64.2799 240.58 62.0999 242.53 59.5499 242.53C59.3899 242.53 59.2399 242.53 59.0899 242.51Z" fill="black"/>
<path d="M54.2 233C53.93 230.25 55.95 227.81 58.7 227.54C61.45 227.28 63.89 229.29 64.15 232.04C64.42 234.79 62.41 237.23 59.66 237.5C59.49 237.5 59.33 237.52 59.17 237.52C56.63 237.52 54.45 235.58 54.2 233Z" fill="black"/>
<path d="M54.1303 232.231L54.0603 231.471C53.7903 228.721 55.8103 226.271 58.5503 226.011C61.3103 225.751 63.7503 227.761 64.0103 230.511L64.0803 231.281C64.3403 234.031 62.3303 236.471 59.5803 236.731C59.4203 236.751 59.2603 236.751 59.1003 236.751C56.5503 236.751 54.3703 234.821 54.1303 232.231Z" fill="black"/>
<path d="M53.3103 228.109C52.7303 225.409 54.4603 222.759 57.1603 222.179C59.8603 221.609 62.5103 223.329 63.0903 226.029C63.6603 228.729 61.9403 231.389 59.2403 231.959C58.8903 232.039 58.5303 232.069 58.1903 232.069C55.8803 232.069 53.8103 230.459 53.3103 228.109Z" fill="black"/>
<path d="M51.2396 221.141C50.0796 218.631 51.1796 215.661 53.6796 214.511C56.1896 213.351 59.1596 214.451 60.3196 216.961C61.4696 219.471 60.3796 222.441 57.8696 223.591C57.1896 223.901 56.4796 224.051 55.7796 224.051C53.8896 224.051 52.0796 222.971 51.2396 221.141Z" fill="black"/>
<path d="M49.3503 217.039C48.2003 214.529 49.2903 211.559 51.8003 210.409C54.3103 209.249 57.2803 210.349 58.4303 212.859C59.5903 215.369 58.4903 218.339 55.9803 219.489C55.3103 219.799 54.6003 219.949 53.9003 219.949C52.0003 219.949 50.1903 218.869 49.3503 217.039Z" fill="black"/>
<path d="M45.5696 210.74C44.0596 208.44 44.6896 205.34 46.9996 203.82C49.3096 202.3 52.4096 202.94 53.9296 205.24C55.4496 207.55 54.8096 210.65 52.4996 212.17C51.6496 212.73 50.6996 212.99 49.7596 212.99C48.1296 212.99 46.5296 212.2 45.5696 210.74Z" fill="black"/>
<path d="M42.3195 206.631C40.4495 204.601 40.5695 201.441 42.5995 199.561C44.6195 197.691 47.7795 197.811 49.6595 199.841C51.5395 201.861 51.4095 205.021 49.3895 206.901C48.4295 207.791 47.2095 208.231 45.9895 208.231C44.6495 208.231 43.3095 207.691 42.3195 206.631Z" fill="black"/>
<path d="M40.3897 204.54C38.5097 202.52 38.6297 199.35 40.6497 197.48C42.6797 195.6 45.8397 195.721 47.7197 197.741C49.5997 199.771 49.4797 202.93 47.4497 204.81C46.4897 205.7 45.2697 206.141 44.0497 206.141C42.7097 206.141 41.3697 205.61 40.3897 204.54Z" fill="black"/>
<path d="M37.4102 201.741C35.3302 199.921 35.1102 196.771 36.9202 194.681C38.7302 192.601 41.8902 192.381 43.9802 194.191C46.0602 196.001 46.2802 199.161 44.4702 201.241C43.4802 202.381 42.0902 202.961 40.6902 202.961C39.5302 202.961 38.3602 202.561 37.4102 201.741Z" fill="black"/>
<path d="M35.4097 200.05C33.1397 198.47 32.5897 195.35 34.1697 193.08C35.7497 190.82 38.8697 190.26 41.1297 191.84C43.3997 193.43 43.9497 196.54 42.3697 198.81C41.3997 200.2 39.8497 200.95 38.2697 200.95C37.2797 200.95 36.2797 200.65 35.4097 200.05Z" fill="black"/>
<path d="M34.9297 199.7L34.4797 199.39C32.2297 197.79 31.6997 194.67 33.2897 192.42C34.8897 190.16 38.0097 189.63 40.2597 191.23L40.7097 191.55C42.9597 193.14 43.4997 196.26 41.8997 198.52C40.9297 199.89 39.3797 200.63 37.8197 200.63C36.8197 200.63 35.8097 200.33 34.9297 199.7Z" fill="black"/>
<path d="M32.6299 197.991C30.4099 196.341 29.9698 193.201 31.6298 190.991C33.2798 188.791 36.4199 188.341 38.6299 190.001C40.8399 191.651 41.2799 194.791 39.6299 197.001C38.6399 198.311 37.1398 199.001 35.6198 199.001C34.5798 199.001 33.5199 198.671 32.6299 197.991Z" fill="black"/>
<path d="M23.3396 193.05C20.7596 192.08 19.4496 189.19 20.4196 186.61C21.3896 184.02 24.2796 182.72 26.8596 183.69C29.4496 184.66 30.7496 187.54 29.7796 190.13C29.0296 192.13 27.1296 193.37 25.0996 193.37C24.5196 193.37 23.9196 193.27 23.3396 193.05Z" fill="black"/>
<path d="M19.4803 191.6C16.8903 190.63 15.5803 187.75 16.5503 185.17C17.5203 182.58 20.4003 181.27 22.9903 182.24C25.5703 183.2 26.8803 186.08 25.9203 188.67C25.1703 190.68 23.2603 191.92 21.2303 191.92C20.6503 191.92 20.0603 191.82 19.4803 191.6Z" fill="black"/>
<path d="M17.6596 191.04C15.0096 190.24 13.5196 187.45 14.3196 184.8C15.1196 182.16 17.9096 180.67 20.5496 181.47C23.1996 182.27 24.6896 185.06 23.8896 187.7C23.2396 189.86 21.2496 191.25 19.0996 191.25C18.6296 191.25 18.1396 191.18 17.6596 191.04Z" fill="black"/>
<path d="M15.5302 190.581C12.8502 189.921 11.2002 187.221 11.8602 184.531C12.5102 181.851 15.2102 180.211 17.9002 180.861C20.5802 181.511 22.2302 184.221 21.5702 186.901C21.0202 189.191 18.9702 190.721 16.7202 190.721C16.3302 190.721 15.9302 190.671 15.5302 190.581Z" fill="black"/>
<path d="M14.9401 190.43L14.3601 190.29C11.6801 189.62 10.0501 186.91 10.7101 184.23C11.3801 181.55 14.0901 179.91 16.7701 180.58L17.3401 180.72C20.0201 181.39 21.6601 184.1 20.9901 186.78C20.4301 189.06 18.3901 190.58 16.1401 190.58C15.7501 190.58 15.3401 190.53 14.9401 190.43Z" fill="black"/>
<path d="M12.13 189.961C9.39996 189.531 7.52996 186.971 7.95996 184.241C8.37996 181.521 10.94 179.651 13.67 180.081C16.39 180.501 18.26 183.061 17.84 185.791C17.45 188.251 15.33 190.021 12.91 190.021C12.65 190.021 12.39 190.001 12.13 189.961Z" fill="black"/>
<path d="M11.6 189.88C11.45 189.86 11.28 189.84 11.12 189.83C8.36996 189.59 6.32996 187.17 6.56996 184.41C6.80996 181.66 9.22996 179.63 11.98 179.86C12.25 179.89 12.54 179.92 12.86 179.96C15.6 180.31 17.53 182.81 17.19 185.55C16.86 188.08 14.71 189.92 12.23 189.92C12.02 189.92 11.81 189.92 11.6 189.88Z" fill="black"/>
<path d="M9.04035 189.649C6.29035 189.429 4.25035 187.009 4.47035 184.259C4.70035 181.509 7.12035 179.459 9.87035 179.689C12.6203 179.919 14.6703 182.339 14.4403 185.089C14.2203 187.699 12.0403 189.669 9.47035 189.669C9.33035 189.669 9.19035 189.669 9.04035 189.649Z" fill="black"/>
<path d="M1.67987 184.669C1.59987 181.899 3.77987 179.609 6.53987 179.539C9.29987 179.459 11.5999 181.639 11.6699 184.399C11.7399 187.159 9.56987 189.459 6.80987 189.529H6.66987C3.96987 189.529 1.74987 187.379 1.67987 184.669Z" fill="black"/>
<path d="M4.06996 189.11C2.94996 188.73 1.64996 187.88 0.809963 186.57C-0.690037 184.26 -0.0400374 181.16 2.26996 179.65C4.21996 178.38 6.73996 178.64 8.37996 180.15C10.34 181.37 11.25 183.82 10.45 186.07C9.71996 188.12 7.79996 189.4 5.73996 189.4C5.18996 189.4 4.61996 189.31 4.06996 189.11Z" fill="black"/>
<path d="M0 163.949C0 161.189 2.24 158.949 5 158.949C7.76 158.949 10 161.189 10 163.949C10 166.709 7.76 168.949 5 168.949C2.24 168.949 0 166.709 0 163.949Z" fill="black"/>
<path d="M4.04004 163.949C4.04004 161.189 6.28004 158.949 9.04004 158.949C11.8 158.949 14.04 161.189 14.04 163.949C14.04 166.709 11.8 168.949 9.04004 168.949C6.28004 168.949 4.04004 166.709 4.04004 163.949Z" fill="black"/>
<path d="M12.1696 169.42C9.42963 169.04 7.50963 166.53 7.87963 163.79C8.25963 161.06 10.7696 159.14 13.5096 159.51C16.2496 159.88 18.1696 162.401 17.7996 165.131C17.4496 167.641 15.3096 169.461 12.8496 169.461C12.6196 169.461 12.3996 169.46 12.1696 169.42Z" fill="black"/>
<path d="M15.2196 169.56C12.4596 169.45 10.3096 167.13 10.4096 164.37C10.5196 161.61 12.8396 159.46 15.5996 159.57C18.3596 159.67 20.5096 162 20.3996 164.75C20.2996 167.45 18.0896 169.56 15.4196 169.56H15.2196Z" fill="black"/>
<path d="M13.0801 165.051C13.0801 162.291 15.3101 160.051 18.0801 160.051C20.8401 160.051 23.0801 162.291 23.0801 165.051C23.0801 167.811 20.8401 170.051 18.0801 170.051C15.3101 170.051 13.0801 167.811 13.0801 165.051Z" fill="black"/>
<path d="M19.3603 170.29C16.6503 169.8 14.8403 167.2 15.3203 164.49C15.8103 161.77 18.4103 159.96 21.1303 160.44C23.8503 160.93 25.6503 163.53 25.1703 166.25C24.7303 168.67 22.6303 170.37 20.2503 170.37C19.9603 170.37 19.6603 170.34 19.3603 170.29Z" fill="black"/>
<path d="M21.7202 170.741C19.0402 170.071 17.4102 167.361 18.0802 164.681C18.7502 162.001 21.4602 160.371 24.1402 161.041C26.8202 161.711 28.4502 164.421 27.7902 167.101C27.2202 169.371 25.1802 170.891 22.9402 170.891C22.5402 170.891 22.1302 170.841 21.7202 170.741Z" fill="black"/>
<path d="M24.1801 171.351C21.5001 170.681 19.8701 167.97 20.5401 165.29C21.2001 162.61 23.9201 160.98 26.5901 161.65C29.2701 162.32 30.9101 165.031 30.2401 167.711C29.6701 169.981 27.6301 171.5 25.3901 171.5C24.9901 171.5 24.5801 171.451 24.1801 171.351Z" fill="black"/>
<path d="M28.9005 172.88C26.2705 172.02 24.8405 169.2 25.6905 166.58C26.5405 163.95 29.3705 162.51 31.9905 163.37C34.6205 164.22 36.0505 167.04 35.2005 169.67C34.5105 171.78 32.5505 173.13 30.4405 173.13C29.9305 173.13 29.4105 173.05 28.9005 172.88Z" fill="black"/>
<path d="M30.2903 173.32L29.6003 173.11C26.9703 172.26 25.5303 169.45 26.3703 166.82C27.2103 164.19 30.0303 162.74 32.6603 163.58L33.3403 163.8C35.9703 164.65 37.4203 167.46 36.5803 170.09C35.8903 172.21 33.9303 173.56 31.8203 173.56C31.3103 173.56 30.7903 173.49 30.2903 173.32Z" fill="black"/>
<path d="M32.0599 173.97C29.4699 173.03 28.1299 170.16 29.0699 167.57C30.0099 164.97 32.8799 163.63 35.4699 164.57C38.0699 165.51 39.4099 168.38 38.4699 170.98C37.7299 173.01 35.8099 174.27 33.7699 174.27C33.1999 174.27 32.6299 174.18 32.0599 173.97Z" fill="black"/>
<path d="M34.4904 175.05C32.0004 173.85 30.9604 170.86 32.1504 168.37C33.3504 165.89 36.3304 164.83 38.8204 166.03C41.3104 167.22 42.3604 170.21 41.1604 172.7C40.3104 174.49 38.5204 175.54 36.6504 175.54C35.9304 175.54 35.1904 175.38 34.4904 175.05Z" fill="black"/>
<path d="M38.5602 177.001C36.0702 175.801 35.0202 172.811 36.2202 170.321C37.4202 167.841 40.4002 166.791 42.8902 167.991C45.3802 169.181 46.4302 172.171 45.2302 174.661C44.3702 176.451 42.5802 177.491 40.7202 177.491C39.9902 177.491 39.2502 177.331 38.5602 177.001Z" fill="black"/>
<path d="M42.4201 179.241C40.0701 177.791 39.3401 174.711 40.7801 172.361C42.2301 170.011 45.3102 169.271 47.6602 170.721C50.0102 172.171 50.7501 175.251 49.3001 177.601C48.3501 179.141 46.7202 179.981 45.0402 179.981C44.1402 179.981 43.2401 179.741 42.4201 179.241Z" fill="black"/>
<path d="M44.8502 180.73C42.5002 179.29 41.7602 176.21 43.2002 173.85C44.6502 171.5 47.7202 170.76 50.0802 172.2C52.4302 173.65 53.1702 176.72 51.7302 179.08C50.7802 180.62 49.1402 181.47 47.4602 181.47C46.5702 181.47 45.6702 181.23 44.8502 180.73Z" fill="black"/>
<path d="M47.3702 182.611C45.1202 181.021 44.5802 177.901 46.1702 175.641C47.7602 173.391 50.8802 172.851 53.1402 174.441C55.3902 176.031 55.9302 179.151 54.3402 181.411C53.3702 182.791 51.8202 183.531 50.2502 183.531C49.2602 183.531 48.2502 183.231 47.3702 182.611Z" fill="black"/>
<path d="M48.1401 183.13C48.1401 183.13 48.1201 183.11 47.9701 183.01C45.6801 181.47 45.0601 178.37 46.6001 176.07C48.1401 173.78 51.2501 173.17 53.5401 174.71C53.7401 174.84 54.0101 175.02 54.3501 175.29C56.5201 177.01 56.8801 180.15 55.1701 182.31C54.1801 183.56 52.7201 184.21 51.2401 184.21C50.1601 184.21 49.0601 183.86 48.1401 183.13Z" fill="black"/>
<path d="M49.77 184.381L48.99 183.781C46.8 182.101 46.39 178.961 48.07 176.771C49.75 174.581 52.89 174.161 55.08 175.851L55.86 176.451C58.05 178.131 58.47 181.271 56.78 183.461C55.8 184.741 54.31 185.421 52.81 185.421C51.75 185.421 50.68 185.081 49.77 184.381Z" fill="black"/>
<path d="M51.0998 185.589C49.0498 183.749 48.8798 180.59 50.7298 178.53C52.5798 176.48 55.7398 176.31 57.7898 178.16C59.8398 180.01 60.0098 183.17 58.1598 185.22C57.1698 186.32 55.8098 186.88 54.4398 186.88C53.2498 186.88 52.0498 186.449 51.0998 185.589Z" fill="black"/>
<path d="M52.4204 186.62L51.9104 186.23C49.7204 184.55 49.3004 181.41 50.9804 179.22C52.6704 177.03 55.8004 176.62 58.0004 178.3L58.5004 178.69C60.6904 180.37 61.1104 183.51 59.4304 185.7C58.4404 186.98 56.9604 187.66 55.4604 187.66C54.3904 187.66 53.3204 187.32 52.4204 186.62Z" fill="black"/>
<path d="M55.6597 189.811C53.6797 187.891 53.6297 184.731 55.5497 182.741C57.4697 180.761 60.6397 180.711 62.6197 182.631C64.5997 184.551 64.6497 187.721 62.7297 189.701C61.7497 190.711 60.4497 191.221 59.1397 191.221C57.8897 191.221 56.6297 190.751 55.6597 189.811Z" fill="black"/>
<path d="M57.9404 192.351C56.0904 190.301 56.2504 187.141 58.3004 185.291C60.3504 183.431 63.5104 183.601 65.3604 185.651C67.2104 187.691 67.0504 190.851 65.0004 192.711C64.0404 193.571 62.8504 194.001 61.6504 194.001C60.2904 194.001 58.9304 193.441 57.9404 192.351Z" fill="black"/>
<path d="M66.65 204.88C65.36 202.44 66.3 199.42 68.74 198.13C71.18 196.84 74.2 197.77 75.49 200.21C76.79 202.65 75.85 205.68 73.41 206.97C72.67 207.36 71.87 207.55 71.08 207.55C69.29 207.55 67.55 206.58 66.65 204.88Z" fill="black"/>
<path d="M69.0799 209.77C68.0699 207.2 69.3299 204.3 71.8999 203.29C74.4699 202.28 77.3799 203.54 78.3899 206.11C79.3999 208.68 78.1299 211.58 75.5599 212.6C74.9599 212.83 74.3399 212.94 73.7299 212.94C71.7399 212.94 69.8499 211.74 69.0799 209.77Z" fill="black"/>
<path d="M69.6503 211.28C69.3603 210.69 69.2503 210.31 69.1603 210.03C68.3203 207.4 69.7703 204.59 72.4003 203.75C75.0303 202.91 77.8503 204.36 78.6803 206.99C78.6803 206.99 78.6903 207.02 78.7003 207.03C79.7903 209.47 78.7703 212.36 76.3503 213.56C75.6303 213.91 74.8803 214.07 74.1403 214.07C72.2903 214.07 70.5203 213.05 69.6503 211.28Z" fill="black"/>
<path d="M72.6301 220.03C72.0101 217.34 73.7001 214.66 76.4001 214.05C79.0901 213.44 81.7701 215.13 82.3801 217.82C82.9901 220.52 81.3001 223.19 78.6101 223.8C78.2401 223.89 77.8601 223.93 77.5001 223.93C75.2101 223.93 73.1501 222.35 72.6301 220.03Z" fill="black"/>
<path d="M73.0396 221.87L72.8296 220.96C72.2196 218.26 73.9096 215.59 76.5996 214.97C79.2996 214.36 81.9696 216.05 82.5896 218.74L82.7996 219.66C83.4096 222.35 81.7196 225.03 79.0296 225.64C78.6496 225.73 78.2796 225.77 77.9196 225.77C75.6296 225.77 73.5696 224.2 73.0396 221.87Z" fill="black"/>
<path d="M73.5398 224.041C72.9198 221.351 74.5998 218.661 77.2898 218.051C79.9798 217.431 82.6598 219.111 83.2798 221.801C83.8998 224.491 82.2198 227.171 79.5298 227.791C79.1498 227.881 78.7698 227.921 78.3998 227.921C76.1298 227.921 74.0698 226.351 73.5398 224.041Z" fill="black"/>
<path d="M74.1199 226.58C73.4999 223.89 75.1799 221.21 77.8699 220.59C80.5599 219.97 83.2499 221.64 83.8599 224.33C84.4899 227.02 82.8099 229.71 80.1199 230.33C79.7399 230.42 79.3599 230.46 78.9899 230.46C76.7099 230.46 74.6499 228.9 74.1199 226.58Z" fill="black"/>
<path d="M74.4901 229.011C73.9801 226.301 75.7701 223.691 78.4901 223.181C81.2001 222.671 83.8101 224.461 84.3201 227.171C84.8301 229.891 83.0401 232.501 80.3201 233.011C80.0101 233.071 79.7001 233.091 79.4001 233.091C77.0401 233.091 74.9401 231.421 74.4901 229.011Z" fill="black"/>
<path d="M74.5797 230.451C74.5197 229.891 74.5097 229.501 74.4997 229.241C74.3597 226.481 76.4797 224.141 79.2397 224.001C81.9997 223.861 84.3497 225.981 84.4797 228.741C84.4997 229.101 84.5197 229.321 84.5197 229.321C84.8297 232.071 82.8597 234.541 80.1097 234.851C79.9197 234.881 79.7297 234.891 79.5397 234.891C77.0297 234.891 74.8697 233.001 74.5797 230.451Z" fill="black"/>
<path d="M74.8701 232.971C74.5601 230.231 76.5201 227.741 79.2601 227.431C82.0101 227.111 84.4901 229.071 84.8101 231.821C85.1301 234.561 83.1601 237.041 80.4201 237.361C80.2201 237.381 80.0301 237.391 79.8301 237.391C77.3301 237.391 75.1701 235.511 74.8701 232.971Z" fill="black"/>
<path d="M79.9 243.239C77.14 243.189 74.95 240.909 75.01 238.149C75.06 235.389 77.34 233.189 80.1 233.249C82.86 233.299 85.06 235.579 85 238.349C84.95 241.069 82.72 243.239 80.01 243.239H79.9Z" fill="black"/>
<path d="M74.38 241.45C73.07 239.03 73.97 235.99 76.39 234.68C77.06 234.32 77.4301 234.22 77.5501 234.17C80.1001 233.09 83.03 234.28 84.1 236.83C85.18 239.37 83.9801 242.31 81.4401 243.38C81.2001 243.48 81.04 243.54 80.96 243.57C80.26 243.91 79.52 244.07 78.78 244.07C77.01 244.07 75.29 243.12 74.38 241.45Z" fill="black"/>
<path d="M75.2603 241.88C74.3303 240.17 74.4503 237.99 75.7503 236.37C77.4803 234.21 80.6203 233.86 82.7803 235.59C83.3903 236.07 84.0803 236.86 84.4803 237.77C84.9003 238.69 85.0303 239.61 85.0203 240.36C85.0203 243.12 82.7903 245.36 80.0203 245.36C77.8003 245.36 75.9103 243.9 75.2603 241.88Z" fill="black"/>
<path d="M199.53 194.07C199.53 191.31 201.77 189.07 204.53 189.07C207.29 189.07 209.53 191.31 209.53 194.07C209.53 196.84 207.29 199.08 204.53 199.08C201.77 199.08 199.53 196.83 199.53 194.07Z" fill="black"/>
<path d="M202.14 236.26C199.43 235.74 197.65 233.12 198.17 230.41C198.69 227.7 201.32 225.92 204.03 226.44C206.74 226.96 208.52 229.59 207.99 232.3C207.53 234.69 205.44 236.35 203.09 236.35C202.78 236.35 202.46 236.32 202.14 236.26Z" fill="black"/>
<path d="M197.13 231.4C197.13 228.72 199.23 226.53 201.88 226.4C201.88 226.4 201.96 226.4 202.01 226.4C204.76 226.07 207.24 228.03 207.57 230.77C207.9 233.51 205.94 236 203.2 236.33C203.2 236.33 202.85 236.4 202.13 236.41C199.36 236.41 197.13 234.17 197.13 231.41V231.4Z" fill="black"/>
<path d="M186.49 231.391C186.49 228.631 188.73 226.391 191.49 226.391C194.25 226.391 196.49 228.631 196.49 231.391C196.49 234.161 194.25 236.391 191.49 236.391C188.72 236.391 186.49 234.151 186.49 231.391Z" fill="black"/>
<path d="M185.45 231.879C185.16 229.129 187.16 226.679 189.9 226.389C192.65 226.099 195.11 228.099 195.39 230.849C195.68 233.589 193.68 236.049 190.94 236.339C190.76 236.349 190.59 236.359 190.41 236.359C187.88 236.359 185.71 234.449 185.45 231.879Z" fill="black"/>
<path d="M187.38 236.39C184.62 236.32 182.44 234.03 182.5 231.27C182.57 228.51 184.86 226.32 187.62 226.39C190.38 226.45 192.57 228.74 192.5 231.51C192.44 234.23 190.21 236.39 187.5 236.39H187.38Z" fill="black"/>
<path d="M186.53 236.37L185.65 236.35C182.89 236.29 180.7 234.01 180.76 231.25C180.81 228.49 183.1 226.3 185.86 226.35L186.73 226.37C189.49 226.43 191.68 228.71 191.63 231.47C191.57 234.19 189.35 236.37 186.63 236.37H186.53Z" fill="black"/>
<path d="M182.67 235.909C180.11 234.859 178.9 231.929 179.96 229.379C181.01 226.829 183.94 225.619 186.49 226.669C189.04 227.729 190.26 230.649 189.2 233.199C188.4 235.129 186.54 236.299 184.58 236.299C183.94 236.299 183.29 236.169 182.67 235.909Z" fill="black"/>
<path d="M180.18 234.03C179.47 233.16 178.92 231.8 178.94 230.42C178.94 227.66 181.17 225.42 183.93 225.42C186.22 225.42 188.15 226.96 188.75 229.06C189.58 231.08 189 233.49 187.19 234.9C186.28 235.61 185.2 235.95 184.12 235.95C182.64 235.95 181.16 235.29 180.18 234.03Z" fill="black"/>
<path d="M178.94 203.4C178.94 200.64 181.17 198.4 183.93 198.4C186.7 198.4 188.93 200.64 188.93 203.4C188.93 206.16 186.7 208.4 183.93 208.4C181.17 208.4 178.94 206.16 178.94 203.4Z" fill="black"/>
<path d="M179.22 177.881C178.99 177.311 178.86 176.691 178.86 176.041C178.86 173.281 181.1 171.041 183.87 171.041C184.89 171.041 185.91 171.391 186.57 171.831C187.25 172.271 187.64 172.731 187.91 173.081C188.42 173.811 188.54 174.231 188.66 174.541C188.84 175.131 188.85 175.371 188.89 175.591C189.23 178.331 187.28 180.821 184.54 181.161C184.33 181.191 184.12 181.201 183.92 181.201C181.8 181.201 179.92 179.851 179.22 177.881Z" fill="black"/>
<path d="M180.44 180.17C178.28 178.44 177.93 175.29 179.66 173.14C180.47 172.2 180.64 172.23 180.84 172.05C183.1 170.46 186.22 171.01 187.8 173.27C189.32 175.44 188.88 178.38 186.86 180.02C185.93 180.84 184.75 181.26 183.56 181.26C182.47 181.26 181.36 180.9 180.44 180.17Z" fill="black"/>
<path d="M174.7 177.481C174.42 174.731 176.42 172.281 179.16 171.991C181.91 171.711 184.37 173.711 184.65 176.451C184.93 179.201 182.94 181.661 180.19 181.941C180.02 181.961 179.84 181.971 179.67 181.971C177.14 181.971 174.97 180.061 174.7 177.481Z" fill="black"/>
<path d="M172.24 178.01C171.74 175.29 173.54 172.69 176.26 172.19C178.97 171.7 181.58 173.5 182.07 176.22C182.57 178.93 180.77 181.53 178.05 182.03C177.75 182.09 177.45 182.11 177.15 182.11C174.78 182.11 172.68 180.42 172.24 178.01Z" fill="black"/>
<path d="M168.92 178.61C168.42 175.9 170.22 173.29 172.94 172.8C175.65 172.3 178.26 174.1 178.76 176.82C179.25 179.53 177.45 182.14 174.73 182.64C174.43 182.69 174.13 182.72 173.83 182.72C171.46 182.72 169.36 181.03 168.92 178.61Z" fill="black"/>
<path d="M166.61 179.341C166 176.641 167.7 173.971 170.39 173.361C173.09 172.761 175.76 174.461 176.36 177.151C176.97 179.841 175.27 182.521 172.58 183.121C172.21 183.211 171.84 183.251 171.48 183.251C169.19 183.251 167.13 181.661 166.61 179.341Z" fill="black"/>
<path d="M163.02 180.601C162.24 177.951 163.75 175.171 166.4 174.391C169.05 173.611 171.83 175.121 172.61 177.771C173.39 180.421 171.88 183.201 169.23 183.981C168.76 184.121 168.28 184.181 167.81 184.181C165.65 184.181 163.66 182.771 163.02 180.601Z" fill="black"/>
<path d="M161.3 181.121C160.52 178.471 162.03 175.691 164.68 174.901L165.53 174.641C168.18 173.861 170.96 175.371 171.75 178.021C172.53 180.671 171.02 183.451 168.38 184.231L167.52 184.491C167.04 184.631 166.56 184.701 166.09 184.701C163.93 184.701 161.94 183.291 161.3 181.121Z" fill="black"/>
<path d="M160.02 182.29C158.89 179.77 160.02 176.81 162.53 175.67C162.92 175.5 163.3 175.35 163.69 175.22C166.29 174.31 169.14 175.69 170.05 178.3C170.96 180.9 169.58 183.75 166.97 184.66C166.83 184.71 166.69 184.77 166.64 184.79C165.97 185.09 165.27 185.23 164.58 185.23C162.68 185.23 160.86 184.14 160.02 182.29Z" fill="black"/>
<path d="M156.18 184.031C155.05 181.511 156.18 178.551 158.68 177.411C161.2 176.271 164.16 177.391 165.3 179.911C166.44 182.431 165.32 185.391 162.8 186.521C162.13 186.831 161.43 186.971 160.74 186.971C158.84 186.971 157.02 185.871 156.18 184.031Z" fill="black"/>
<path d="M153.52 185.49C152.3 183.01 153.33 180.02 155.82 178.81C158.3 177.6 161.29 178.63 162.5 181.11C163.72 183.59 162.68 186.58 160.2 187.8C159.5 188.14 158.75 188.3 158.01 188.3C156.16 188.3 154.38 187.27 153.52 185.49Z" fill="black"/>
<path d="M149.78 188.321C148.35 185.951 149.1 182.881 151.47 181.451C153.83 180.021 156.9 180.781 158.33 183.141C159.76 185.501 159.01 188.571 156.64 190.001C155.83 190.491 154.94 190.731 154.06 190.731C152.37 190.731 150.72 189.871 149.78 188.321Z" fill="black"/>
<path d="M144.04 193.59C142.27 191.46 142.57 188.31 144.69 186.55C146.82 184.78 149.97 185.08 151.74 187.2C153.5 189.33 153.21 192.48 151.08 194.25C150.15 195.02 149.01 195.4 147.89 195.4C146.45 195.4 145.03 194.78 144.04 193.59Z" fill="black"/>
<path d="M138.92 200.271C136.76 198.551 136.42 195.401 138.14 193.251C139.87 191.091 143.02 190.741 145.17 192.471C147.33 194.201 147.68 197.341 145.95 199.501C144.96 200.731 143.51 201.371 142.04 201.371C140.95 201.371 139.84 201.011 138.92 200.271Z" fill="black"/>
<path d="M136.8 202.91C134.64 201.18 134.3 198.04 136.03 195.88C137.76 193.73 140.9 193.38 143.06 195.11C145.21 196.84 145.55 199.99 143.83 202.14C142.84 203.37 141.39 204.01 139.92 204.01C138.83 204.01 137.72 203.65 136.8 202.91Z" fill="black"/>
<path d="M135.25 206.07C132.92 204.58 132.25 201.48 133.75 199.16C135.24 196.84 138.33 196.17 140.65 197.66C142.98 199.15 143.65 202.24 142.16 204.57C141.2 206.06 139.59 206.87 137.95 206.87C137.02 206.87 136.08 206.61 135.25 206.07Z" fill="black"/>
<path d="M133.97 208.021C131.65 206.521 130.99 203.431 132.48 201.111C133.98 198.791 137.08 198.121 139.4 199.621C141.72 201.121 142.38 204.211 140.89 206.531C139.93 208.011 138.32 208.821 136.68 208.821C135.75 208.821 134.81 208.561 133.97 208.021Z" fill="black"/>
<path d="M132.09 213.12C129.6 211.93 128.54 208.95 129.72 206.45C130.91 203.96 133.89 202.9 136.38 204.08C138.88 205.27 139.94 208.25 138.75 210.75C137.9 212.55 136.1 213.6 134.23 213.6C133.51 213.6 132.78 213.45 132.09 213.12Z" fill="black"/>
<path d="M131.37 214.61C128.87 213.43 127.82 210.44 129.01 207.95L129.36 207.2C130.56 204.71 133.54 203.65 136.03 204.84C138.52 206.03 139.58 209.01 138.39 211.5L138.03 212.26C137.18 214.05 135.38 215.1 133.52 215.1C132.79 215.1 132.06 214.95 131.37 214.61Z" fill="black"/>
<path d="M130.83 215.74C128.34 214.56 127.28 211.57 128.47 209.08L128.74 208.52C129.93 206.02 132.91 204.96 135.4 206.15C137.9 207.34 138.95 210.32 137.77 212.82L137.5 213.38C136.64 215.18 134.85 216.23 132.98 216.23C132.26 216.23 131.53 216.07 130.83 215.74Z" fill="black"/>
<path d="M130.9 217.36C128.27 216.51 126.83 213.7 127.68 211.07C127.8 210.69 127.92 210.36 128.06 210.03C129.09 207.47 132 206.24 134.56 207.27C137.12 208.31 138.36 211.22 137.32 213.78C137.26 213.94 137.21 214.08 137.19 214.14C136.51 216.26 134.55 217.61 132.43 217.6C131.93 217.6 131.41 217.53 130.9 217.36Z" fill="black"/>
<path d="M130.29 219.141C127.67 218.281 126.24 215.461 127.1 212.831L127.39 211.941C128.25 209.311 131.07 207.891 133.7 208.751C136.32 209.611 137.75 212.431 136.89 215.051L136.6 215.951C135.91 218.061 133.95 219.391 131.85 219.391C131.33 219.391 130.81 219.311 130.29 219.141Z" fill="black"/>
<path d="M130.11 220.611C127.45 219.881 125.89 217.121 126.62 214.461C126.68 214.251 126.75 214.001 126.82 213.741C127.56 211.081 130.32 209.531 132.98 210.271C135.64 211.021 137.2 213.781 136.45 216.441C136.39 216.651 136.33 216.891 136.26 217.121C135.65 219.341 133.64 220.801 131.44 220.801C131 220.801 130.56 220.741 130.11 220.611Z" fill="black"/>
<path d="M129.68 222.37C127.01 221.65 125.43 218.91 126.14 216.24L126.38 215.37C127.09 212.7 129.84 211.12 132.5 211.84C135.17 212.55 136.75 215.3 136.04 217.96L135.8 218.83C135.2 221.07 133.18 222.54 130.97 222.54C130.55 222.54 130.11 222.49 129.68 222.37Z" fill="black"/>
<path d="M129.23 225.221C126.53 224.651 124.81 222.001 125.38 219.301C125.95 216.591 128.6 214.871 131.31 215.441C134.01 216.011 135.73 218.661 135.16 221.361C134.66 223.721 132.59 225.331 130.27 225.331C129.93 225.331 129.58 225.301 129.23 225.221Z" fill="black"/>
<path d="M128.87 226.95C126.17 226.38 124.44 223.73 125.01 221.03L125.2 220.16C125.77 217.46 128.42 215.73 131.12 216.3C133.82 216.87 135.55 219.53 134.98 222.23L134.8 223.09C134.3 225.45 132.22 227.06 129.91 227.06C129.57 227.06 129.22 227.02 128.87 226.95Z" fill="black"/>
<path d="M128.89 229.141C126.16 228.741 124.27 226.201 124.67 223.471C125.07 220.741 127.61 218.851 130.34 219.251C133.07 219.651 134.96 222.191 134.56 224.921C134.2 227.411 132.06 229.201 129.62 229.201C129.38 229.201 129.14 229.181 128.89 229.141Z" fill="black"/>
<path d="M128.52 231.931C125.79 231.541 123.88 229.011 124.27 226.281C124.66 223.551 127.18 221.641 129.92 222.031C132.65 222.411 134.56 224.941 134.17 227.681C133.82 230.181 131.68 231.981 129.23 231.981C128.99 231.981 128.76 231.961 128.52 231.931Z" fill="black"/>
<path d="M124.22 230.741C123.81 228.011 125.68 225.461 128.41 225.051C131.14 224.631 133.69 226.501 134.11 229.231C134.53 231.961 132.65 234.511 129.92 234.931C129.67 234.971 129.41 234.991 129.16 234.991C126.73 234.991 124.6 233.221 124.22 230.741Z" fill="black"/>
<path d="M123.07 231.41C123.07 228.65 125.31 226.41 128.07 226.41C130.83 226.41 133.07 228.65 133.07 231.41C133.07 234.17 130.83 236.41 128.07 236.41C125.31 236.41 123.07 234.17 123.07 231.41Z" fill="black"/>
<path d="M109.5 231.4C109.5 228.64 111.74 226.4 114.51 226.4C117.27 226.4 119.51 228.65 119.5 231.41C119.5 234.17 117.26 236.4 114.5 236.4C111.74 236.4 109.5 234.16 109.5 231.4Z" fill="black"/>
<path d="M113.83 236.39H113.26C110.5 236.32 108.31 234.04 108.37 231.28C108.42 228.52 110.71 226.33 113.47 226.38H114.04C116.8 226.45 118.99 228.73 118.93 231.5C118.88 234.22 116.65 236.39 113.93 236.39H113.83Z" fill="black"/>
<path d="M107.12 231.491C107.07 228.731 109.27 226.451 112.03 226.411L112.66 226.391C115.42 226.351 117.69 228.551 117.74 231.311C117.79 234.071 115.59 236.341 112.83 236.391H112.2C112.2 236.391 112.15 236.391 112.12 236.391C109.4 236.391 107.17 234.211 107.12 231.481V231.491Z" fill="black"/>
<path d="M104.91 231.44C104.89 228.68 107.12 226.43 109.88 226.41C112.64 226.41 114.89 228.63 114.91 231.39C114.91 234.15 112.7 236.4 109.93 236.42H109.91C107.16 236.42 104.92 234.19 104.91 231.44Z" fill="black"/>
<path d="M108.31 234.75C105.55 234.59 103.45 232.23 103.61 229.47C103.77 226.71 106.14 224.61 108.9 224.77C111.65 224.93 113.76 227.3 113.6 230.06C113.44 232.71 111.24 234.76 108.61 234.76C108.51 234.76 108.41 234.76 108.31 234.76V234.75Z" fill="black"/>
<path d="M108.41 232.66C105.65 232.47 103.57 230.09 103.76 227.33C103.94 224.58 106.32 222.49 109.08 222.68C111.83 222.86 113.92 225.25 113.73 228C113.55 230.64 111.36 232.67 108.75 232.67C108.64 232.67 108.52 232.67 108.41 232.67V232.66Z" fill="black"/>
<path d="M108.24 229.621C105.5 229.291 103.54 226.801 103.87 224.061C104.2 221.321 106.69 219.361 109.43 219.691C112.17 220.021 114.13 222.511 113.8 225.251C113.49 227.791 111.34 229.661 108.84 229.661C108.64 229.661 108.44 229.661 108.24 229.621Z" fill="black"/>
<path d="M108.6 226.65C105.86 226.32 103.9 223.83 104.22 221.09C104.55 218.35 107.04 216.39 109.78 216.72C112.52 217.04 114.48 219.53 114.15 222.27C113.85 224.81 111.69 226.68 109.2 226.68C109 226.68 108.8 226.68 108.6 226.65Z" fill="black"/>
<path d="M108.89 221.49C106.19 220.89 104.48 218.23 105.07 215.53C105.66 212.83 108.32 211.13 111.02 211.72C113.72 212.31 115.43 214.97 114.84 217.67C114.33 220.01 112.26 221.6 109.96 221.6C109.61 221.6 109.25 221.56 108.89 221.49Z" fill="black"/>
<path d="M109.37 219.289C106.67 218.689 104.96 216.029 105.55 213.329C106.14 210.629 108.81 208.929 111.51 209.519C114.21 210.109 115.91 212.779 115.32 215.479C114.81 217.809 112.74 219.399 110.44 219.399C110.09 219.399 109.73 219.369 109.37 219.289Z" fill="black"/>
<path d="M109.96 216.35C107.28 215.69 105.64 212.99 106.29 210.3C106.95 207.62 109.66 205.98 112.34 206.64C115.02 207.3 116.66 210.01 116.01 212.69C115.45 214.97 113.4 216.5 111.15 216.5C110.76 216.5 110.36 216.45 109.96 216.35Z" fill="black"/>
<path d="M110.49 214.231C107.8 213.581 106.16 210.871 106.81 208.191C107.46 205.511 110.16 203.861 112.85 204.511C115.53 205.171 117.18 207.871 116.53 210.551C115.97 212.841 113.93 214.371 111.67 214.371C111.28 214.371 110.88 214.331 110.49 214.231Z" fill="black"/>
<path d="M111.24 209.531C108.68 208.491 107.45 205.581 108.48 203.021C109.52 200.461 112.43 199.221 114.99 200.261C117.55 201.291 118.79 204.211 117.75 206.771C116.97 208.721 115.09 209.901 113.11 209.901C112.49 209.901 111.86 209.781 111.24 209.531Z" fill="black"/>
<path d="M111.61 208.65C109.05 207.62 107.8 204.72 108.83 202.15L109.18 201.26C110.2 198.7 113.12 197.45 115.68 198.48C118.24 199.5 119.49 202.41 118.47 204.97L118.11 205.86C117.33 207.82 115.45 209.01 113.47 209.01C112.85 209.01 112.22 208.89 111.61 208.65Z" fill="black"/>
<path d="M112.18 207.091C109.63 206.041 108.41 203.111 109.47 200.561L109.74 199.921C110.79 197.371 113.72 196.151 116.27 197.211C118.82 198.271 120.03 201.191 118.98 203.741L118.71 204.391C117.91 206.311 116.05 207.481 114.09 207.481C113.45 207.481 112.81 207.351 112.18 207.091Z" fill="black"/>
<path d="M112.79 205.62C110.24 204.56 109.03 201.63 110.08 199.08L110.43 198.25C111.49 195.7 114.41 194.49 116.96 195.54C119.51 196.6 120.72 199.52 119.67 202.07L119.32 202.91C118.52 204.84 116.66 206 114.7 206C114.06 206 113.41 205.87 112.79 205.62Z" fill="black"/>
<path d="M114.03 201.6C111.6 200.29 110.68 197.27 111.99 194.83C113.29 192.39 116.32 191.48 118.76 192.78C121.19 194.08 122.11 197.12 120.8 199.55C119.9 201.23 118.18 202.19 116.39 202.19C115.59 202.19 114.79 202 114.03 201.6Z" fill="black"/>
<path d="M115.07 199.691C112.63 198.391 111.7 195.361 113 192.921C114.29 190.491 117.32 189.561 119.76 190.851C122.2 192.151 123.13 195.181 121.83 197.621C120.93 199.311 119.2 200.271 117.41 200.271C116.62 200.271 115.82 200.081 115.07 199.691Z" fill="black"/>
<path d="M118.49 192.88C116.22 191.32 115.64 188.21 117.2 185.93C118.77 183.65 121.88 183.08 124.16 184.64C126.43 186.2 127.01 189.32 125.45 191.59C124.47 193 122.91 193.76 121.32 193.76C120.34 193.76 119.36 193.48 118.49 192.88Z" fill="black"/>
<path d="M119.29 192.361C116.89 190.991 116.06 187.931 117.43 185.531C117.6 185.241 117.86 184.771 118.3 184.211C120 182.031 123.15 181.651 125.32 183.351C127.48 185.041 127.87 188.141 126.22 190.321C126.22 190.321 126.16 190.411 126.11 190.501C125.19 192.111 123.5 193.021 121.77 193.021C120.93 193.021 120.07 192.801 119.29 192.361Z" fill="black"/>
<path d="M123.68 185.47C121.52 183.75 121.15 180.6 122.87 178.44C124.58 176.28 127.73 175.91 129.89 177.62C132.06 179.34 132.42 182.48 130.71 184.65C129.72 185.89 128.26 186.54 126.78 186.54C125.7 186.54 124.6 186.19 123.68 185.47Z" fill="black"/>
<path d="M126.05 182.32C124.05 180.41 123.98 177.25 125.89 175.25C127.79 173.25 130.96 173.17 132.96 175.08C134.95 176.98 135.03 180.15 133.12 182.15C132.14 183.18 130.82 183.7 129.51 183.7C128.26 183.7 127.02 183.24 126.05 182.32Z" fill="black"/>
<path d="M127.82 180.18C125.93 178.17 126.03 175.01 128.04 173.11C130.06 171.22 133.22 171.32 135.11 173.34C137 175.35 136.9 178.51 134.89 180.41C133.92 181.31 132.69 181.76 131.47 181.76C130.13 181.76 128.81 181.23 127.82 180.18Z" fill="black"/>
<path d="M130.18 177.971C128.29 175.971 128.37 172.801 130.37 170.901C132.38 169.001 135.54 169.091 137.44 171.091C139.34 173.101 139.26 176.261 137.26 178.161C136.29 179.081 135.05 179.531 133.81 179.531C132.49 179.531 131.17 179.011 130.18 177.971Z" fill="black"/>
<path d="M130.62 177.191C128.86 175.071 129.14 171.921 131.26 170.151L131.91 169.611C134.03 167.841 137.18 168.121 138.95 170.241C140.72 172.361 140.44 175.521 138.32 177.291L137.67 177.831C136.73 178.611 135.6 178.991 134.47 178.991C133.04 178.991 131.61 178.381 130.62 177.191Z" fill="black"/>
<path d="M134.15 174.22C132.42 172.07 132.77 168.92 134.92 167.19C137.08 165.47 140.22 165.82 141.95 167.97C143.68 170.13 143.33 173.27 141.18 175C140.25 175.74 139.15 176.1 138.05 176.1C136.59 176.1 135.13 175.46 134.15 174.22Z" fill="black"/>
<path d="M137.66 171.25C136.13 168.95 136.75 165.85 139.05 164.32C141.35 162.79 144.46 163.41 145.98 165.71C147.51 168.01 146.89 171.12 144.59 172.64C143.74 173.21 142.77 173.48 141.82 173.48C140.21 173.48 138.62 172.7 137.66 171.25Z" fill="black"/>
<path d="M150.18 163.491C149.2 160.911 150.49 158.021 153.08 157.041C155.65 156.061 158.55 157.351 159.53 159.931C160.51 162.511 159.21 165.401 156.63 166.381C156.05 166.611 155.45 166.711 154.85 166.711C152.84 166.711 150.94 165.491 150.18 163.491Z" fill="black"/>
<path d="M158.17 160.06C157.56 157.36 159.26 154.69 161.95 154.08C164.65 153.48 167.32 155.17 167.93 157.87C168.53 160.56 166.83 163.23 164.14 163.84C163.77 163.92 163.4 163.96 163.04 163.96C160.75 163.96 158.69 162.38 158.17 160.06Z" fill="black"/>
<path d="M160.77 159.47C160.17 156.78 161.86 154.1 164.55 153.5C167.25 152.89 169.92 154.58 170.53 157.28C171.13 159.97 169.44 162.65 166.75 163.25C166.38 163.34 166.01 163.38 165.64 163.38C163.36 163.38 161.3 161.8 160.77 159.47Z" fill="black"/>
<path d="M163.13 158.991C162.47 156.311 164.11 153.601 166.79 152.941C169.48 152.291 172.19 153.931 172.84 156.611C173.5 159.291 171.86 162.001 169.18 162.661C168.78 162.761 168.38 162.801 167.98 162.801C165.73 162.801 163.69 161.271 163.13 158.991Z" fill="black"/>
<path d="M165.12 158.28C164.66 155.56 166.5 152.98 169.22 152.52C171.95 152.06 174.53 153.9 174.98 156.62C175.44 159.35 173.6 161.93 170.88 162.38C170.6 162.43 170.32 162.45 170.05 162.45C167.65 162.45 165.53 160.72 165.12 158.28Z" fill="black"/>
<path d="M165.94 158.479C165.28 155.799 166.93 153.089 169.61 152.439C169.88 152.369 170.31 152.259 170.91 152.179C173.65 151.829 176.15 153.769 176.5 156.499C176.85 159.229 174.93 161.73 172.21 162.1C172.21 162.1 172.11 162.119 171.99 162.149C171.59 162.249 171.2 162.289 170.8 162.289C168.55 162.289 166.51 160.759 165.95 158.479H165.94Z" fill="black"/>
<path d="M171.03 157.2C170.7 154.46 172.65 151.97 175.39 151.64C178.14 151.31 180.62 153.26 180.96 156C181.29 158.74 179.34 161.23 176.6 161.56C176.39 161.59 176.19 161.6 175.99 161.6C173.49 161.6 171.34 159.74 171.03 157.2Z" fill="black"/>
<path d="M171.77 156.861C171.58 154.111 173.66 151.731 176.42 151.541C176.75 151.521 177.04 151.511 177.27 151.501C180.03 151.361 182.38 153.491 182.51 156.251C182.65 159.001 180.52 161.351 177.76 161.481C177.52 161.501 177.29 161.511 177.09 161.521C176.97 161.521 176.86 161.521 176.75 161.521C174.14 161.521 171.94 159.501 171.77 156.851V156.861Z" fill="black"/>
<path d="M174.96 156.611C174.83 153.851 176.96 151.511 179.72 151.381C182.48 151.251 184.82 153.381 184.95 156.141C185.08 158.901 182.95 161.241 180.19 161.371H179.95C177.3 161.371 175.09 159.291 174.96 156.611Z" fill="black"/>
<path d="M177.56 156.46C177.47 153.7 179.63 151.38 182.39 151.29C185.14 151.19 187.46 153.35 187.56 156.11C187.65 158.87 185.5 161.18 182.74 161.28H182.56C179.88 161.28 177.66 159.16 177.56 156.46Z" fill="black"/>
<path d="M180.05 160.36C178.15 158.89 177.55 156.21 178.73 154.03C180.05 151.6 183.09 150.7 185.51 152.02C186.4 152.5 187.04 153.13 187.51 153.72C189.21 155.9 188.81 159.04 186.64 160.74C185.72 161.45 184.64 161.8 183.57 161.8C182.28 161.8 181.01 161.31 180.05 160.36Z" fill="black"/>
<path d="M179.77 160.06L179.68 159.95C178 157.76 178.41 154.62 180.6 152.94C182.79 151.26 185.93 151.67 187.61 153.86L187.7 153.97C189.38 156.16 188.97 159.3 186.78 160.98C185.87 161.68 184.8 162.02 183.74 162.02C182.24 162.02 180.75 161.35 179.77 160.06Z" fill="black"/>
<path d="M183.72 160.94C181.17 159.89 179.94 156.97 180.99 154.42C182.04 151.86 184.96 150.64 187.51 151.68C190.07 152.73 191.29 155.65 190.24 158.21C189.45 160.14 187.58 161.31 185.61 161.31C184.98 161.31 184.34 161.19 183.72 160.94Z" fill="black"/>
<path d="M203.81 161.32C201.05 161.32 198.81 159.08 198.81 156.32C198.81 153.56 201.05 151.32 203.81 151.32C206.57 151.32 208.81 153.56 208.81 156.32C208.81 159.08 206.57 161.32 203.81 161.32Z" fill="black"/>
<path d="M199.56 158.17C198.89 155.77 200.09 153.19 202.44 152.2C204.99 151.14 207.92 152.33 208.99 154.88C209.43 155.99 209.51 156.71 209.53 157.6C209.53 160.36 207.3 162.6 204.53 162.6C201.97 162.6 199.85 160.66 199.56 158.17Z" fill="black"/>
<path d="M106.74 236.389C106.51 236.379 106.35 236.369 106.27 236.359C103.51 236.359 101.28 234.119 101.28 231.359C101.28 228.599 103.52 226.359 106.28 226.359C106.94 226.359 107.27 226.419 107.32 226.409C110.08 226.569 112.18 228.939 112.02 231.689C111.87 234.349 109.67 236.399 107.04 236.399C106.94 236.399 106.84 236.399 106.74 236.399V236.389Z" fill="black"/>
<path d="M99.6998 231.46C99.6598 228.7 101.86 226.43 104.62 226.38H105.41C108.17 226.32 110.44 228.53 110.49 231.29C110.53 234.05 108.33 236.32 105.57 236.37H104.78C104.78 236.37 104.72 236.37 104.7 236.37C101.97 236.37 99.7398 234.18 99.6998 231.45V231.46Z" fill="black"/>
<path d="M96.9105 231.46C96.8805 228.7 99.1005 226.44 101.85 226.41C104.62 226.38 106.88 228.6 106.91 231.36C106.94 234.12 104.72 236.38 101.96 236.41H101.91C99.1705 236.41 96.9405 234.2 96.9105 231.46Z" fill="black"/>
<path d="M86.1104 231.42C86.1104 228.66 88.3504 226.42 91.1104 226.42C93.8704 226.42 96.1104 228.65 96.1104 231.41C96.1104 234.17 93.8804 236.41 91.1204 236.41C88.3504 236.41 86.1204 234.18 86.1104 231.42Z" fill="black"/>
<path d="M85.1202 232.879C84.2602 230.259 85.6902 227.429 88.3102 226.569C90.9302 225.709 93.7602 227.129 94.6202 229.749C95.4902 232.379 94.0602 235.199 91.4402 236.059C90.9202 236.239 90.3902 236.319 89.8702 236.319C87.7702 236.319 85.8202 234.979 85.1202 232.879Z" fill="black"/>
<path d="M83.2603 232.531C82.2303 229.971 83.4803 227.061 86.0503 226.041C88.6103 225.011 91.5203 226.261 92.5403 228.831C93.5703 231.391 92.3203 234.301 89.7503 235.321C89.1503 235.571 88.5203 235.681 87.9003 235.681C85.9203 235.681 84.0403 234.491 83.2603 232.531Z" fill="black"/>
<path d="M82.9004 193.801C82.9004 191.041 85.1404 188.801 87.9004 188.801C90.6604 188.801 92.9004 191.041 92.9004 193.801C92.9004 196.561 90.6604 198.801 87.9004 198.801C85.1404 198.801 82.9004 196.561 82.9004 193.801Z" fill="black"/>
<path d="M84.1297 159.08C82.6897 156.73 83.4397 153.65 85.7997 152.21C86.2197 151.96 86.3997 151.87 86.4097 151.86C88.7797 150.43 91.8497 151.2 93.2797 153.57C94.6997 155.93 93.9297 159.01 91.5597 160.43C91.3597 160.55 91.2097 160.63 91.1097 160.69C91.0097 160.74 91.0097 160.75 91.0097 160.75C90.1897 161.24 89.2897 161.48 88.4097 161.48C86.7197 161.48 85.0697 160.63 84.1297 159.08Z" fill="black"/>
<path d="M85.56 160.079C84.97 159.699 84.21 159.049 83.66 158.099C83.1 157.159 82.88 156.049 82.89 155.189C82.89 152.429 85.13 150.189 87.89 150.189C89.92 150.189 91.67 151.399 92.45 153.139C93.48 154.729 93.55 156.839 92.47 158.539C91.51 160.039 89.9 160.859 88.24 160.859C87.33 160.859 86.4 160.599 85.56 160.079Z" fill="black"/>
<path d="M87.8697 159.621C85.0997 159.601 82.8797 157.351 82.8897 154.591V154.021C82.9097 151.251 85.1597 149.031 87.9197 149.041C90.6797 149.061 92.9097 151.311 92.8897 154.071V154.641C92.8897 157.391 90.6397 159.621 87.8897 159.621H87.8697Z" fill="black"/>
<path d="M82.9004 117.99C82.9004 115.23 85.1404 112.99 87.9004 112.99C90.6604 112.99 92.9004 115.23 92.9004 117.99C92.9004 120.75 90.6604 122.99 87.9004 122.99C85.1404 122.99 82.9004 120.75 82.9004 117.99Z" fill="black"/>
<path d="M85.1404 85.4907C82.9004 83.8707 82.4004 80.7507 84.0104 78.5107C84.6404 77.6607 85.2004 77.2707 85.4204 77.0907C87.6104 75.4107 90.7504 75.8307 92.4304 78.0207C94.0404 80.1407 93.7204 83.1307 91.7304 84.8407C90.7604 85.8807 89.4204 86.4307 88.0604 86.4307C87.0504 86.4307 86.0304 86.1307 85.1404 85.4907Z" fill="black"/>
<path d="M102.8 81.0605C102.8 78.3005 105.04 76.0605 107.8 76.0605C110.56 76.0605 112.8 78.3005 112.8 81.0605C112.8 83.8205 110.56 86.0605 107.8 86.0605C105.04 86.0605 102.8 83.8205 102.8 81.0605Z" fill="black"/>
<path d="M103.53 83.2895C102.68 81.1595 103.4 78.6495 105.38 77.3095C107.66 75.7595 110.77 76.3495 112.32 78.6395C112.8 79.3495 113.35 80.4695 113.35 81.9495C113.35 84.7195 111.12 86.9495 108.35 86.9495C106.06 86.9495 104.12 85.3995 103.53 83.2895Z" fill="black"/>
<path d="M103.36 118.561C103.36 115.801 105.6 113.561 108.36 113.561C111.12 113.561 113.36 115.801 113.36 118.561C113.36 121.321 111.12 123.561 108.36 123.561C105.6 123.561 103.36 121.321 103.36 118.561Z" fill="black"/>
<path d="M102.61 158.051C101.58 155.491 102.81 152.571 105.37 151.541C105.54 151.471 105.68 151.421 105.76 151.391C108.07 150.221 110.92 151.021 112.28 153.271C113.71 155.631 112.95 158.701 110.59 160.131C109.51 160.741 109.16 160.761 109.12 160.811C108.51 161.051 107.87 161.171 107.25 161.171C105.27 161.171 103.4 159.991 102.61 158.051Z" fill="black"/>
<path d="M103.74 159.11C102.79 157.56 102.72 155.54 103.74 153.88C105.18 151.52 108.26 150.79 110.61 152.23C111.21 152.58 112.07 153.3 112.63 154.32C113.2 155.33 113.36 156.4 113.35 157.18C113.35 159.94 111.12 162.18 108.35 162.18C106.28 162.18 104.5 160.92 103.74 159.11Z" fill="black"/>
<path d="M103.36 193.449C103.36 190.689 105.6 188.449 108.36 188.449C111.12 188.449 113.36 190.679 113.36 193.449C113.36 196.209 111.12 198.449 108.36 198.449C105.6 198.449 103.36 196.209 103.36 193.449Z" fill="black"/>
<path d="M103.33 233.611C102.32 231.651 102.73 229.331 104.18 227.841C105.29 226.191 107.33 225.301 109.39 225.741C112.09 226.321 113.8 228.981 113.22 231.681C113.08 232.361 112.74 233.261 112.14 234.041C111.55 234.821 110.76 235.411 110.06 235.761C109.33 236.141 108.55 236.321 107.78 236.321C105.97 236.321 104.22 235.331 103.33 233.611Z" fill="black"/>
<path d="M106.29 236.36C103.59 236.36 101.37 234.21 101.29 231.5C101.21 228.74 103.39 226.44 106.15 226.36L107.64 226.32C110.37 226.26 112.7 228.42 112.78 231.18C112.86 233.94 110.68 236.24 107.92 236.32L106.43 236.36C106.43 236.36 106.34 236.36 106.29 236.36Z" fill="black"/>
<path d="M129.22 43.7794C129.26 41.9894 129.99 40.9994 130.4 40.4494C130.86 39.8894 131.2 39.6294 131.47 39.4194C133.65 37.7294 136.79 38.1294 138.48 40.3094C139.93 42.1894 139.84 44.7794 138.39 46.5394C137.5 47.8894 135.96 48.7894 134.22 48.7894C131.46 48.7894 129.22 46.5494 129.22 43.7794Z" fill="black"/>
<path d="M129.22 80.4707C129.22 77.7107 131.46 75.4707 134.22 75.4707C136.98 75.4707 139.22 77.7107 139.22 80.4707C139.22 83.2307 136.98 85.4707 134.22 85.4707C131.45 85.4707 129.22 83.2307 129.22 80.4707Z" fill="black"/>
<path d="M130.8 121.14C128.89 119.16 128.95 115.99 130.93 114.08C132.45 112.62 134.66 112.3 136.47 113.12C138.47 113.77 139.93 115.66 139.93 117.88C139.93 120.64 137.69 122.88 134.93 122.88H134.86C133.55 122.88 131.96 122.36 130.8 121.14Z" fill="black"/>
<path d="M153.47 122.891C150.71 122.891 148.47 120.651 148.47 117.891C148.47 115.131 150.71 112.891 153.47 112.891C156.24 112.891 158.47 115.131 158.47 117.891C158.47 120.651 156.24 122.891 153.47 122.891Z" fill="black"/>
<path d="M149.47 119.751C148.51 117.521 149.3 114.981 151.22 113.651C152.97 112.101 155.64 111.951 157.57 113.431C159.77 115.111 160.18 118.251 158.5 120.441C157.92 121.221 157 121.961 156.04 122.361C155.39 122.641 154.72 122.771 154.06 122.771C152.13 122.771 150.28 121.641 149.47 119.751Z" fill="black"/>
<path d="M154.54 95.5195C151.78 95.5195 149.54 93.2795 149.54 90.5195C149.54 87.7595 151.78 85.5195 154.54 85.5195C157.3 85.5195 159.54 87.7595 159.54 90.5195C159.54 93.2895 157.3 95.5195 154.54 95.5195Z" fill="black"/>
<path d="M176.18 63.6406C176.18 60.8806 178.41 58.6406 181.18 58.6406C183.94 58.6406 186.18 60.8806 186.18 63.6406C186.18 66.4006 183.94 68.6406 181.18 68.6406C178.42 68.6406 176.18 66.4006 176.18 63.6406Z" fill="black"/>
<path d="M203.86 65.4511C203 63.3911 203.63 61.0812 205.25 59.7112C206.71 58.0912 209.12 57.5712 211.17 58.5812C213.65 59.8112 214.67 62.8111 213.44 65.2811C212.92 66.4411 211.64 67.6912 210.4 68.1512C209.77 68.4112 209.12 68.5311 208.48 68.5311C206.52 68.5311 204.66 67.3711 203.86 65.4511Z" fill="black"/>
<path d="M203.95 43.7795C203.95 41.0095 206.19 38.7695 208.95 38.7695C211.71 38.7695 213.95 41.0095 213.95 43.7695C213.95 46.5295 211.71 48.7695 208.95 48.7695C206.19 48.7695 203.95 46.5395 203.95 43.7795Z" fill="black"/>
<path d="M206.53 47.8796C204.56 47.0996 203.22 45.1196 203.37 42.8896C203.56 40.1296 205.94 38.0496 208.7 38.2296C210.27 38.3896 211.11 38.8896 212.01 39.5996C214.1 41.3896 214.35 44.5496 212.55 46.6496C211.56 47.8096 210.16 48.3996 208.75 48.3996C207.99 48.3996 207.23 48.2296 206.53 47.8796Z" fill="black"/>
<path d="M205.09 46.9999L204.96 46.8999C202.81 45.1699 202.48 42.0199 204.22 39.8699C205.95 37.7199 209.1 37.3899 211.25 39.1299L211.38 39.2299C213.53 40.9699 213.86 44.1199 212.12 46.2599C211.13 47.4799 209.69 48.1199 208.23 48.1199C207.13 48.1199 206.01 47.7499 205.09 46.9999Z" fill="black"/>
<path d="M208.48 44.0104C205.73 43.8204 203.65 41.4404 203.84 38.6804C204.02 35.9304 206.41 33.8504 209.17 34.0304C211.92 34.2204 214 36.6104 213.81 39.3604C213.63 42.0004 211.44 44.0204 208.83 44.0204C208.72 44.0204 208.6 44.0204 208.48 44.0104Z" fill="black"/>
<path d="M203.53 37.1592C202.82 34.4892 204.4 31.7492 207.07 31.0292C209.73 30.3192 212.48 31.8992 213.19 34.5692C213.91 37.2292 212.32 39.9792 209.66 40.6892C209.22 40.8092 208.79 40.8592 208.36 40.8592C206.15 40.8592 204.13 39.3892 203.53 37.1592Z" fill="black"/>
<path d="M203.45 35.8501C202.23 33.3701 203.24 30.3801 205.72 29.1501C208.2 27.9301 211.19 28.9501 212.42 31.4301C213.64 33.9101 212.62 36.9101 210.14 38.1301C209.43 38.4801 208.68 38.6401 207.93 38.6401C206.09 38.6401 204.32 37.6201 203.45 35.8501Z" fill="black"/>
<path d="M202.78 33.781C202.73 33.561 202.71 33.431 202.7 33.381C201.93 30.761 203.4 28.001 206.02 27.191C208.66 26.371 211.46 27.851 212.27 30.491C212.49 31.221 212.55 31.671 212.59 31.851C213.12 34.561 211.36 37.191 208.65 37.721C208.32 37.781 208 37.811 207.68 37.811C205.34 37.811 203.25 36.161 202.78 33.781Z" fill="black"/>
<path d="M202.03 31.2496C201.21 28.6196 202.68 25.8096 205.31 24.9896C207.95 24.1596 210.75 25.6296 211.58 28.2696C212.4 30.8996 210.93 33.7096 208.3 34.5296C207.8 34.6896 207.3 34.7596 206.8 34.7596C204.67 34.7596 202.7 33.3896 202.03 31.2496Z" fill="black"/>
<path d="M200.18 27.2693C198.93 24.7993 199.92 21.7893 202.38 20.5393C204.84 19.2893 207.85 20.2793 209.1 22.7393C210.35 25.1993 209.37 28.2093 206.91 29.4593C206.18 29.8293 205.41 29.9993 204.65 29.9993C202.82 29.9993 201.06 28.9993 200.18 27.2693Z" fill="black"/>
<path d="M196.82 22.1794C195.09 20.0294 195.42 16.8794 197.57 15.1394C199.71 13.4094 202.86 13.7394 204.6 15.8894C206.33 18.0394 206 21.1894 203.85 22.9194C202.93 23.6694 201.81 24.0294 200.71 24.0294C199.25 24.0294 197.81 23.3994 196.82 22.1794Z" fill="black"/>
<path d="M196.23 21.3903C196.23 21.3903 196.2 21.3403 196.19 21.3303C194.35 19.3503 194.41 16.2603 196.35 14.3603C198.32 12.4203 201.49 12.4503 203.42 14.4203C203.89 14.9003 204.16 15.2803 204.35 15.5503C205.96 17.7903 205.45 20.9203 203.21 22.5303C202.33 23.1603 201.31 23.4703 200.3 23.4703C198.74 23.4703 197.21 22.7503 196.23 21.3903Z" fill="black"/>
<path d="M193.18 18.2809C191.24 16.3209 191.26 13.1509 193.22 11.2109C195.19 9.2709 198.36 9.2909 200.3 11.2609C202.23 13.2209 202.21 16.3909 200.25 18.3309C199.27 19.2909 198.01 19.7709 196.74 19.7709C195.45 19.7709 194.16 19.2709 193.18 18.2809Z" fill="black"/>
<path d="M190.59 16.2398C188.44 14.5098 188.11 11.3598 189.84 9.20985C191.57 7.05985 194.72 6.71985 196.87 8.44985C199.02 10.1798 199.35 13.3298 197.62 15.4798C196.64 16.7098 195.19 17.3398 193.73 17.3398C192.63 17.3398 191.52 16.9798 190.59 16.2398Z" fill="black"/>
<path d="M183.76 12.29C181.27 11.09 180.23 8.10001 181.43 5.61001C182.63 3.13001 185.62 2.08001 188.11 3.28001C190.59 4.48001 191.64 7.47001 190.44 9.95001C189.58 11.74 187.79 12.79 185.93 12.79C185.2 12.79 184.46 12.63 183.76 12.29Z" fill="black"/>
<path d="M180.03 11.1194C177.35 10.4694 175.7 7.76936 176.35 5.08936C176.99 2.39936 179.69 0.749363 182.38 1.39936C185.06 2.04936 186.71 4.74936 186.07 7.42936C185.51 9.71936 183.47 11.2594 181.21 11.2594C180.82 11.2594 180.43 11.2194 180.03 11.1194Z" fill="black"/>
<path d="M179.25 10.9305L178.48 10.7405C175.8 10.0905 174.15 7.38049 174.8 4.70049C175.46 2.02049 178.16 0.370489 180.85 1.02049L181.62 1.21049C184.3 1.86049 185.94 4.57049 185.29 7.25049C184.73 9.54049 182.69 11.0705 180.44 11.0705C180.05 11.0705 179.65 11.0205 179.25 10.9305Z" fill="black"/>
<path d="M175.44 10.1708C172.73 9.66084 170.94 7.05083 171.46 4.33083C171.97 1.62083 174.58 -0.159165 177.29 0.350835C180.01 0.860835 181.79 3.47083 181.28 6.19083C180.83 8.59084 178.73 10.2608 176.38 10.2608C176.07 10.2608 175.76 10.2308 175.44 10.1708Z" fill="black"/>
<path d="M175.17 10.1405C175.06 10.1305 174.92 10.1205 174.81 10.1105C172.05 10.0105 169.89 7.69052 169.99 4.94052C170.09 2.18052 172.41 0.0205243 175.17 0.120524C175.49 0.120524 175.83 0.150524 176.19 0.190524C178.94 0.480524 180.94 2.93052 180.65 5.68052C180.39 8.25052 178.22 10.1605 175.69 10.1605C175.51 10.1605 175.34 10.1605 175.17 10.1405Z" fill="black"/>
<path d="M172.45 10.0194C169.69 9.90943 167.55 7.58943 167.65 4.82943C167.76 2.06943 170.09 -0.0805698 172.85 0.0294302C175.61 0.13943 177.76 2.45943 177.64 5.21943C177.54 7.90943 175.32 10.0294 172.65 10.0194H172.45Z" fill="black"/>
<path d="M165.26 5.2502C165.14 2.4902 167.28 0.160201 170.04 0.0302005C172.8 -0.0897995 175.13 2.0502 175.26 4.8102C175.38 7.5702 173.24 9.9002 170.48 10.0202C170.41 10.0202 170.33 10.0202 170.25 10.0202C167.6 10.0202 165.39 7.9302 165.26 5.2402V5.2502Z" fill="black"/>
<path d="M162.7 5.34955C162.58 2.58955 164.72 0.259554 167.48 0.139554C170.24 0.0195544 172.57 2.16955 172.69 4.92955C172.81 7.68955 170.67 10.0196 167.91 10.1296C167.84 10.1396 167.76 10.1396 167.69 10.1396C165.03 10.1396 162.81 8.03955 162.7 5.34955Z" fill="black"/>
<path d="M155.23 8.37003C154.34 5.75003 155.73 2.91003 158.34 2.02003C160.95 1.12003 163.8 2.51003 164.69 5.13003C165.59 7.74003 164.2 10.58 161.58 11.48C161.05 11.66 160.5 11.75 159.96 11.75C157.89 11.75 155.94 10.44 155.23 8.37003Z" fill="black"/>
<path d="M152.19 10.3301C150.91 7.88015 151.85 4.86015 154.29 3.58015C156.74 2.29015 159.76 3.24015 161.04 5.69015C162.33 8.13015 161.38 11.1501 158.94 12.4301C158.2 12.8201 157.4 13.0101 156.62 13.0101C154.82 13.0101 153.08 12.0301 152.19 10.3301Z" fill="black"/>
<path d="M148.36 12.3502C147.07 9.91021 148.01 6.89021 150.45 5.60021C152.89 4.31021 155.92 5.25021 157.21 7.69021C158.49 10.1402 157.56 13.1602 155.11 14.4502C154.37 14.8402 153.57 15.0302 152.79 15.0302C150.99 15.0302 149.25 14.0502 148.36 12.3502Z" fill="black"/>
<path d="M146.05 14.8603C144.36 12.6803 144.76 9.54035 146.94 7.85035C149.13 6.16035 152.27 6.56035 153.96 8.75035C155.65 10.9303 155.25 14.0703 153.06 15.7603C152.15 16.4603 151.08 16.8103 150.01 16.8103C148.51 16.8103 147.03 16.1403 146.05 14.8603Z" fill="black"/>
<path d="M143.99 16.431C142.3 14.241 142.71 11.101 144.9 9.42098C147.09 7.73098 150.23 8.15098 151.91 10.341C153.6 12.521 153.18 15.661 151 17.351C150.09 18.051 149.02 18.381 147.95 18.381C146.45 18.381 144.97 17.711 143.99 16.431Z" fill="black"/>
<path d="M141.23 20.0193C139.24 18.1093 139.16 14.9393 141.07 12.9493C142.98 10.9493 146.15 10.8793 148.14 12.7793C150.14 14.6893 150.21 17.8493 148.31 19.8493C147.32 20.8793 146.01 21.3993 144.69 21.3993C143.45 21.3993 142.2 20.9393 141.23 20.0193Z" fill="black"/>
<path d="M139.89 21.4294C137.89 19.5294 137.81 16.3594 139.72 14.3594L140.39 13.6494C142.3 11.6594 145.47 11.5794 147.46 13.4894C149.46 15.3994 149.54 18.5594 147.63 20.5594L146.96 21.2694C145.97 22.2994 144.66 22.8194 143.34 22.8194C142.1 22.8194 140.85 22.3594 139.89 21.4294Z" fill="black"/>
<path d="M136.47 29.2008C133.95 28.0708 132.83 25.1008 133.96 22.5908C135.1 20.0708 138.06 18.9508 140.58 20.0808C143.09 21.2208 144.22 24.1808 143.08 26.7008C142.25 28.5508 140.43 29.6408 138.52 29.6408C137.83 29.6408 137.13 29.5008 136.47 29.2008Z" fill="black"/>
<path d="M134.19 34.3203C131.67 33.1903 130.54 30.2303 131.67 27.7103C132.8 25.2003 135.76 24.0703 138.28 25.2003C140.79 26.3303 141.92 29.2803 140.79 31.8003C139.96 33.6603 138.14 34.7603 136.23 34.7603C135.55 34.7603 134.85 34.6203 134.19 34.3203Z" fill="black"/>
<path d="M133.96 39.7806C131.24 39.3006 129.43 36.7006 129.91 33.9806C130.39 31.2606 132.98 29.4506 135.7 29.9306C138.42 30.4106 140.24 33.0006 139.76 35.7206C139.33 38.1506 137.22 39.8506 134.84 39.8506C134.55 39.8506 134.26 39.8306 133.96 39.7806Z" fill="black"/>
<path d="M133.54 42.0294C130.82 41.5394 129.02 38.9395 129.51 36.2195C129.99 33.5095 132.6 31.6994 135.31 32.1894C138.03 32.6794 139.84 35.2795 139.35 37.9995C138.91 40.4095 136.81 42.1095 134.43 42.1095C134.14 42.1095 133.84 42.0794 133.54 42.0294Z" fill="black"/>
<path d="M129.23 38.3094C129.25 37.5094 129.34 37.1494 129.39 36.8194C129.88 34.0994 132.49 32.2994 135.2 32.7894C137.92 33.2794 139.72 35.8794 139.23 38.5994V38.6194C139.07 41.2394 136.89 43.3094 134.24 43.3094C131.47 43.3094 129.23 41.0794 129.23 38.3094Z" fill="black"/>
<path d="M134.17 47.0997C131.4 47.0697 129.18 44.8197 129.21 42.0597C129.23 39.2897 131.49 37.0797 134.25 37.0997C137.01 37.1197 139.23 39.3797 139.21 42.1397C139.18 44.8897 136.95 47.0997 134.21 47.0997H134.17Z" fill="black"/>
<path d="M132.03 47.1108C131.77 46.9208 131.36 46.6308 130.82 46.0608C128.94 44.0408 129.05 40.8808 131.07 38.9908C133.02 37.1808 136.03 37.2208 137.93 39.0408C140.14 40.6708 140.62 43.7808 139.01 46.0008C138.03 47.3508 136.51 48.0708 134.96 48.0708C133.94 48.0708 132.91 47.7608 132.03 47.1108Z" fill="black"/>
<path d="M134.23 48.7898C132.93 48.7898 131.64 48.2898 130.66 47.2898C128.73 45.3198 128.75 42.1498 130.72 40.2198L131.45 39.4998C133.42 37.5698 136.58 37.5898 138.52 39.5698C140.45 41.5398 140.43 44.7098 138.45 46.6398L137.72 47.3598C136.75 48.3198 135.48 48.7898 134.22 48.7898H134.23Z" fill="black"/>
<path d="M154.16 37.411C151.91 35.801 151.4 32.681 153 30.431C154.61 28.181 157.73 27.671 159.97 29.271C162.22 30.881 162.74 34.001 161.14 36.241C160.16 37.611 158.62 38.341 157.06 38.341C156.06 38.341 155.04 38.041 154.16 37.411Z" fill="black"/>
<path d="M155.38 35.6905C153.14 34.0905 152.62 30.9605 154.23 28.7205C155.83 26.4705 158.96 25.9505 161.2 27.5605C163.45 29.1705 163.97 32.2905 162.36 34.5405C161.38 35.9005 159.85 36.6305 158.29 36.6305C157.28 36.6305 156.26 36.3205 155.38 35.6905Z" fill="black"/>
<path d="M155.86 35.46C153.53 33.98 152.84 30.89 154.32 28.56C154.51 28.29 154.63 28.01 155.32 27.29C157.3 25.36 160.47 25.4 162.4 27.37C164.19 29.21 164.28 32.08 162.7 34.03C161.73 35.46 160.15 36.24 158.54 36.24C157.62 36.24 156.69 35.99 155.86 35.46Z" fill="black"/>
<path d="M158.77 30.2803C157.28 27.9503 157.95 24.8603 160.28 23.3703C162.61 21.8803 165.7 22.5603 167.19 24.8803C168.68 27.2003 168 30.3003 165.68 31.7903C164.84 32.3203 163.91 32.5803 162.98 32.5803C161.34 32.5803 159.72 31.7703 158.77 30.2803Z" fill="black"/>
<path d="M163.75 26.1403C163.51 23.3903 165.53 20.9503 168.28 20.7103C171.03 20.4603 173.47 22.4903 173.71 25.2403C173.96 27.9903 171.93 30.4203 169.18 30.6703C169.03 30.6703 168.88 30.6903 168.73 30.6903C166.17 30.6903 163.99 28.7303 163.75 26.1403Z" fill="black"/>
<path d="M164.46 26.0603C164.22 23.3103 166.26 20.8803 169.01 20.6403L169.71 20.5803C172.46 20.3503 174.88 22.3803 175.12 25.1403C175.36 27.8903 173.32 30.3103 170.57 30.5503L169.86 30.6103C169.72 30.6103 169.57 30.6303 169.43 30.6303C166.86 30.6303 164.68 28.6603 164.46 26.0603Z" fill="black"/>
<path d="M175.85 31.1998C173.25 30.2798 171.89 27.4198 172.82 24.8198C173.74 22.2198 176.6 20.8598 179.2 21.7798C181.81 22.7098 183.16 25.5598 182.24 28.1698C181.51 30.2198 179.59 31.4898 177.53 31.4898C176.97 31.4898 176.41 31.3998 175.85 31.1998Z" fill="black"/>
<path d="M177.41 31.7894C175.19 30.1394 174.72 27.0094 176.36 24.7894C178.01 22.5694 181.14 22.1094 183.36 23.7494C185.58 25.3894 186.04 28.5194 184.4 30.7394C183.42 32.0694 181.91 32.7694 180.38 32.7694C179.35 32.7694 178.3 32.4494 177.41 31.7894Z" fill="black"/>
<path d="M179.35 33.22C177.13 31.58 176.66 28.45 178.29 26.23C179.93 24.01 183.06 23.53 185.29 25.17C187.51 26.81 187.98 29.94 186.35 32.16C185.36 33.49 183.85 34.2 182.32 34.2C181.29 34.2 180.25 33.88 179.35 33.22Z" fill="black"/>
<path d="M182.31 36.9393C181.24 34.3893 182.44 31.4593 184.99 30.3893C187.53 29.3193 190.46 30.5193 191.53 33.0693C192.6 35.6093 191.4 38.5393 188.86 39.6093C188.22 39.8793 187.57 39.9993 186.93 39.9993C184.97 39.9993 183.11 38.8493 182.31 36.9393Z" fill="black"/>
<path d="M183.48 41.7611C183.35 39.0111 185.48 36.6611 188.23 36.5311C190.99 36.4011 193.34 38.5211 193.47 41.2811C193.6 44.0411 191.47 46.3911 188.72 46.5211H188.47C185.82 46.5211 183.61 44.4411 183.48 41.7611Z" fill="black"/>
<path d="M185.4 46.2905C184.39 45.3505 183.88 44.1305 183.69 43.3405C183.02 40.6705 184.65 37.9505 187.33 37.2805C189.68 36.6905 192.06 37.8705 193.06 39.9805C194.26 41.8705 194.07 44.3905 192.47 46.0805C191.49 47.1305 190.16 47.6605 188.83 47.6605C187.6 47.6605 186.37 47.2005 185.4 46.2905Z" fill="black"/>
<path d="M185.7 46.5594L185.66 46.5194C183.54 44.7394 183.27 41.5894 185.04 39.4794C186.82 37.3594 189.98 37.0894 192.09 38.8694L192.13 38.8994C194.25 40.6794 194.52 43.8294 192.74 45.9494C191.75 47.1194 190.34 47.7294 188.91 47.7294C187.78 47.7294 186.63 47.3494 185.7 46.5594Z" fill="black"/>
<path d="M184.07 43.951C183.4 41.271 185.03 38.551 187.71 37.881C190.39 37.211 193.1 38.841 193.77 41.521C194.44 44.201 192.81 46.921 190.13 47.591C189.73 47.691 189.32 47.741 188.92 47.741C186.68 47.741 184.64 46.221 184.07 43.951Z" fill="black"/>
<path d="M187.09 47.4195C186.86 47.3095 186.71 47.2295 186.64 47.1895C184.21 45.8695 183.31 42.8395 184.63 40.4095C185.92 38.0195 188.89 37.1195 191.29 38.3395C193.73 39.5095 194.8 42.4095 193.69 44.8895C192.86 46.7495 191.04 47.8495 189.13 47.8495C188.44 47.8495 187.75 47.7095 187.09 47.4195Z" fill="black"/>
<path d="M188.35 47.8301C188 47.7601 187.76 47.6701 187.65 47.6401C185.04 46.7501 183.64 43.9001 184.53 41.2901C185.41 38.7201 188.17 37.3301 190.75 38.1301C193.28 38.8301 194.85 41.4001 194.29 44.0001C193.79 46.3401 191.71 47.9501 189.41 47.9501C189.06 47.9501 188.7 47.9101 188.35 47.8301Z" fill="black"/>
<path d="M186.54 47.3902C184.23 45.8902 183.56 42.7902 185.06 40.4802C185.09 40.4302 185.1 40.4002 185.11 40.4002C186.55 38.1102 189.57 37.3802 191.91 38.7802C194.28 40.2002 195.04 43.2702 193.62 45.6402C193.49 45.8502 193.46 45.9002 193.46 45.9002C192.5 47.3802 190.89 48.1902 189.25 48.1902C188.32 48.1902 187.38 47.9302 186.54 47.3902Z" fill="black"/>
<path d="M149.24 43.1895C149.24 40.4295 151.48 38.1895 154.24 38.1895C157 38.1895 159.24 40.4295 159.24 43.1895C159.24 45.9495 157 48.1895 154.24 48.1895C151.48 48.1895 149.24 45.9495 149.24 43.1895Z" fill="black"/>
<path d="M152.44 47.9306C151.72 47.7206 151.12 47.3706 150.87 47.2106C148.53 45.7606 147.81 42.6806 149.26 40.3306C150.67 38.0706 153.58 37.3206 155.89 38.5706C158.15 39.5706 159.37 42.1106 158.65 44.5506C158.01 46.7306 156.02 48.1406 153.86 48.1406C153.39 48.1406 152.92 48.0706 152.44 47.9306Z" fill="black"/>
<path d="M154.1 46.2094C151.35 45.9494 149.32 43.5194 149.57 40.7694C149.82 38.0194 152.26 35.9994 155.01 36.2494C157.76 36.4994 159.78 38.9294 159.53 41.6794C159.29 44.2794 157.11 46.2294 154.56 46.2294C154.4 46.2294 154.25 46.2194 154.1 46.2094Z" fill="black"/>
<path d="M204.09 138.75C204.09 135.98 206.33 133.75 209.09 133.75C211.85 133.75 214.09 135.98 214.09 138.75C214.09 141.51 211.85 143.75 209.09 143.75C206.33 143.75 204.09 141.51 204.09 138.75Z" fill="black"/>
</g>
<path d="M166.65 138.75C166.65 135.98 168.89 133.75 171.65 133.75C174.41 133.75 176.65 135.98 176.65 138.75C176.65 141.51 174.41 143.75 171.65 143.75C168.89 143.75 166.65 141.51 166.65 138.75Z" fill="black"/>
<path d="M129.21 118.301C129.21 115.541 131.45 113.301 134.21 113.301C136.97 113.301 139.21 115.541 139.21 118.301C139.21 121.061 136.97 123.301 134.21 123.301C131.45 123.301 129.21 121.061 129.21 118.301Z" fill="black"/>
<path d="M166.65 118.301C166.65 115.541 168.89 113.301 171.65 113.301C174.41 113.301 176.65 115.541 176.65 118.301C176.65 121.061 174.41 123.301 171.65 123.301C168.89 123.301 166.65 121.061 166.65 118.301Z" fill="black"/>
</g>
<defs>
<clipPath id="clip0_2561_10022">
<rect width="214.09" height="319.33" fill="white"/>
</clipPath>
</defs>
</svg>
