<svg width="871" height="248" viewBox="0 0 871 248" fill="none" xmlns="http://www.w3.org/2000/svg">
<g clip-path="url(#clip0_2561_6011)">
<mask id="mask0_2561_6011" style="mask-type:luminance" maskUnits="userSpaceOnUse" x="0" y="0" width="871" height="248">
<path d="M870.03 0H0V247.3H870.03V0Z" fill="white"/>
</mask>
<g mask="url(#mask0_2561_6011)">
<path d="M101.69 2.47V198.31L96.66 198.37L96.38 193.82L52.89 150.41L48.49 150.21V49.15L5.18 5.89V198.33L0 198.41V0H4.71L47.5 42.79C49.62 44.91 51.23 46.68 53.66 48.58L53.68 145.56L96.51 188.29V2.47C96.53 1.17 96.76 0.51 97.45 0H101.22C101.47 0.61 101.69 1.39 101.69 2.47Z" fill="#90BEFB"/>
<path d="M523.53 97.25L523.51 198.15C521.61 198.4 520.1 198.42 518.35 198.29V101.76L470.05 53.58L426.54 53.62V198.17C424.6 198.39 423.11 198.43 421.36 198.31V2.47C421.36 1.19 421.64 0.51 422.3 0H425.6C426.25 0.47 426.56 1.32 426.56 2.38L426.54 48.44H474.84L475.19 53.52L518.43 96.7L523.53 97.25Z" fill="#90BEFB"/>
<path d="M379.31 193.78L379.41 198.37L373.87 198.25L373.69 193.81L330.37 150.57L325.78 150.22V53.6H277.52C276.68 51.77 276.93 49.97 277.83 48.44L325.78 48.42V2.36C325.78 1.3 326.07 0.48 326.72 0H330.02C330.59 0.71 330.98 1.71 330.98 2.85L330.94 48.44H378.83C379.69 50.17 379.69 51.87 378.83 53.6H330.96V145.53L379.3 193.77L379.31 193.78Z" fill="#90BEFB"/>
<path d="M576.27 2.3L576.25 22.54C574.56 23.11 573.05 23.17 571.11 22.83L571.05 2.3C571.05 1.61 571.34 0.53 571.54 0H575.31C575.94 0.45 576.27 1.37 576.27 2.3Z" fill="#90BEFB"/>
<path d="M725.97 98.0198V198.18C724.03 198.46 722.48 198.49 720.79 198.18L720.81 101.85L674.88 55.9798L628.99 101.79V198.34C627.22 198.42 625.75 198.38 623.81 198.2V97.0798L628.4 96.7498L672.17 53.0398L672.42 48.5098H677.33L677.62 53.5198L716.17 91.9898L719.27 95.0898C722.82 98.6398 725.96 95.5198 725.96 98.0298" fill="#90BEFB"/>
</g>
<mask id="mask1_2561_6011" style="mask-type:luminance" maskUnits="userSpaceOnUse" x="0" y="0" width="871" height="248">
<path d="M870.03 0H0V247.3H870.03V0Z" fill="white"/>
</mask>
<g mask="url(#mask1_2561_6011)">
<path d="M817.11 145.32L773.28 101.57L818.93 55.9805L864.82 101.75L864.86 145.2L817.11 145.32ZM870.01 96.9405L865.44 96.7405L821.65 53.0105L821.4 48.4805L816.43 48.6005L816.21 53.5305L774.15 95.5305C772.56 97.1205 770.68 96.4705 768.83 97.1805C766.93 97.8905 767.67 102.58 769.79 103.46L816.84 150.47H864.83L864.89 193.89L819.59 239.17C818.43 240.27 816.96 242 815.47 242.13L768.42 242.15C767.5 243.98 767.69 246.25 768.95 247.31L821.29 247.29L821.64 242.27L865.43 198.54L870.02 198.19L870 96.9505L870.01 96.9405Z" fill="#90BEFB"/>
<path d="M246.67 145.08L200.57 191.12L154.9 145.53V101.29L168.74 87.6299L180.04 76.3599L193.19 63.2099L200.61 55.9899L246.71 102.09L246.67 145.07V145.08ZM246.08 96.0199L203.27 53.2699C202.98 51.7199 202.9 50.1499 202.82 48.4199L198.15 48.4799C197.8 49.9299 197.72 51.4799 197.82 53.2899L154.8 96.2499C153.39 97.6399 149.23 95.6399 149.25 98.7599V148.45C149.25 149.75 150.56 150.47 151.45 150.51L154.33 150.59L197.63 193.83L197.89 198.32L202.93 198.4C202.97 196.63 202.66 194.69 203.52 193.81L246.8 150.57L249.68 150.51C250.56 150.49 251.88 149.75 251.88 148.45V98.7599C251.88 95.5799 247.94 97.8599 246.09 96.0099" fill="#90BEFB"/>
</g>
</g>
<defs>
<clipPath id="clip0_2561_6011">
<rect width="870.03" height="247.3" fill="white"/>
</clipPath>
</defs>
</svg>
