<svg width="262" height="249" viewBox="0 0 262 249" fill="none" xmlns="http://www.w3.org/2000/svg">
<g clip-path="url(#clip0_2561_20491)">
<mask id="mask0_2561_20491" style="mask-type:luminance" maskUnits="userSpaceOnUse" x="0" y="0" width="262" height="249">
<path d="M261.9 0H0V248.6H261.9V0Z" fill="white"/>
</mask>
<g mask="url(#mask0_2561_20491)">
<path d="M101 159.99L100.25 170.14L99.7198 179.09C99.4298 184.15 98.4398 188.49 97.2698 193.45L94.1798 206.39C93.4598 209.53 90.3398 212.04 88.5898 214.73C83.0198 223.28 72.4198 222.14 62.0098 221.71C58.9198 221.58 56.4698 219.71 54.5798 217.63C44.8898 206.87 43.6598 206.39 41.7898 192.81L40.6198 184.18C39.5298 176.06 38.2198 168.46 37.8798 160.29C37.6098 153.66 37.3498 147.08 37.9098 140.53L38.5498 132.99C40.7298 128.25 42.2298 123.83 42.3098 118.79L49.2898 104.46C52.0598 98.7304 63.0098 95.8304 69.1298 95.2404C76.3698 94.5704 84.3898 97.8804 88.8698 103.5L93.5298 109.36C94.6798 110.77 94.9398 114.05 95.8998 115.7C97.3398 118.15 98.1598 120.23 98.4598 122.97L100.59 142.55C101.25 148.57 101.47 153.95 101.01 160M138 145.23L137.6 135.67C137.52 133.59 137.31 130.26 136.72 128.48C132.64 115.99 132.78 111.03 127.16 100.97C114.91 78.9204 116.67 88.2604 109.69 79.0004C107 75.4604 101.73 74.7104 98.1298 72.7404C89.0498 67.7904 83.9898 69.1204 72.1598 67.9204C65.1598 67.2004 65.4498 68.1604 58.0198 68.5604C52.1298 68.8504 46.9098 69.6804 41.4798 71.9704C39.1598 72.9604 36.7398 73.9104 34.7698 75.4304L26.4898 81.8504L19.9098 86.9404C18.4698 88.0304 17.7798 91.4104 16.4698 92.8804C7.67976 102.81 11.4898 100.6 6.50977 112.24C4.72977 116.37 4.32977 121.19 3.22977 125.58C2.31977 129.23 1.46977 132.75 0.779766 136.47L0.00976562 145.31V173.36C1.12977 177.78 1.46977 182.36 2.02977 187.42C2.21977 189.07 3.48977 191.74 3.51977 193.25C3.72977 200.07 6.81977 205.26 9.29977 211.1C12.1798 217.94 15.3998 223.75 20.7798 229.18L26.4798 234.96C28.5098 237.01 30.7198 238.21 33.2998 239.65C35.7198 241.01 37.8598 242.42 40.6798 243.03C42.8098 243.48 44.7798 244.49 46.8598 245.05L59.9698 248.59H80.3698C85.2498 247.39 90.0098 246.01 94.9698 244.12C102.46 241.24 102.43 243.27 106.26 238.58C116.27 231.02 113.27 235.65 120.03 226.33C124.96 219.51 128.5 215.78 130.92 206.73L136.06 187.71C136.7 185.37 137.55 182.17 137.58 179.72L138.01 154.95C138.06 151.57 138.14 148.61 138.01 145.23" fill="#90BEFB"/>
<path d="M261.9 40.9307C261.9 43.7507 260.14 46.9507 259.08 49.7707C257.53 53.8407 254.42 56.4607 251.17 59.2007C246.11 63.4907 242.67 64.1807 235.32 64.5507C228.9 64.8707 223.71 64.8407 219.44 59.6707C218.56 58.6007 217.76 56.6307 218.16 55.2507C219.01 52.4807 224.05 52.0507 227.35 52.5607C231.29 53.2007 237.02 52.4007 239.23 48.5407L241.28 40.3607C242.51 35.5107 239.89 30.5107 235.85 27.4407C232.81 25.1207 229.91 22.5907 225.67 23.6307C220.74 22.0907 215.07 23.4407 211.53 27.2007C205.96 28.9107 203.43 33.8107 202.37 39.1907C199.87 51.9007 203.91 46.0607 201.36 57.8607C200.75 60.7607 201.23 63.4007 201.28 66.2807L201.6 77.8407C201.63 78.9907 204.05 79.9207 205.3 79.7007C219.02 77.3307 215.23 81.6707 225.92 78.4707C227.86 77.8807 230.77 79.0307 231.33 80.6307C232.26 83.3207 230.82 85.0807 228.85 86.5407L220.75 92.5607C216.3 95.8607 211.8 99.2207 206.47 101.141C204.15 101.971 201.52 102.601 201.52 106.011L201.49 214.551C200.16 218.731 203.51 221.261 206.02 223.631L213.77 230.931C215.21 232.261 216.06 234.181 217.82 234.851C219.84 235.601 222.43 237.111 223.04 239.061C224.37 243.321 216.91 246.091 210.31 244.281C205.78 243.001 201.6 243.691 197.05 243.931C190.26 244.281 183.55 244.251 176.81 243.961L172.71 243.771C166.4 243.501 160.48 243.211 154.15 244.571C151.35 245.161 145.92 245.181 144.64 241.991C142.51 236.641 147.17 237.941 155.61 229.371L164.43 220.421C166.05 218.801 166.05 216.131 165.44 213.891C164.72 211.281 165.68 208.461 165.68 205.821L165.95 171.491V166.301C165.98 158.201 165.71 150.321 166.03 142.301C166.13 140.171 166.11 138.331 166.03 136.201C165.71 127.171 165.68 118.171 166.03 109.141C166.16 105.891 167.2 102.771 162.81 101.521C159.91 100.671 151.65 95.2307 148.51 93.1607L136.9 85.5207C135.62 84.6707 135.28 80.5407 136.39 79.5007C138.79 77.3207 142.81 78.5907 145.77 79.2307C149.07 79.9507 152.56 79.6607 155.87 79.3107C160.9 78.7507 164.53 79.5807 165.97 78.1407C166.42 77.6907 166.58 75.9807 166.34 75.3407C165.17 72.2207 166.1 69.2407 166.18 66.1007L166.69 45.9107C166.77 42.1007 167.62 37.6807 168.98 34.2707L172.31 25.9607C173.27 23.5607 174.76 20.2107 176.38 18.1607C182.19 10.8607 190.18 6.28072 198.86 2.98072C206.66 0.0107155 215.32 -0.229285 223.5 0.120715C231.41 0.470715 237.46 3.34072 243.9 7.15072C247.89 9.49072 250.64 11.3307 253.33 15.2507C255.59 18.5307 258.55 20.8207 259.14 25.4007C259.54 28.4107 261.88 31.8707 261.88 35.0207L261.91 40.9307H261.9Z" fill="#90BEFB"/>
</g>
</g>
<defs>
<clipPath id="clip0_2561_20491">
<rect width="261.9" height="248.6" fill="white"/>
</clipPath>
</defs>
</svg>
