<svg width="544" height="344" viewBox="0 0 544 344" fill="none" xmlns="http://www.w3.org/2000/svg">
<g clip-path="url(#clip0_2561_12022)">
<path d="M86.91 96.5395L86.28 166.52L84.79 166.51L85.42 96.5195L86.91 96.5395Z" fill="#90BEFB"/>
<path d="M259.1 115.48H244.28V165.44H259.1V115.48Z" fill="#90BEFB"/>
<path d="M259.11 110.799L244.45 110.859L244.54 97.7891L259.04 97.8291L259.11 110.799Z" fill="#90BEFB"/>
<path d="M138.71 96.5508L138.4 166.341L136.96 166.331L137.26 96.5508H138.71Z" fill="#90BEFB"/>
<path d="M242.69 96.3498L242.43 166.72L240.92 166.71L241.16 96.3398L242.69 96.3498Z" fill="#90BEFB"/>
<path d="M193.1 97.5195H191.66V166.51H193.1V97.5195Z" fill="#90BEFB"/>
<mask id="mask0_2561_12022" style="mask-type:luminance" maskUnits="userSpaceOnUse" x="0" y="0" width="544" height="344">
<path d="M543.58 0H0V343.52H543.58V0Z" fill="white"/>
</mask>
<g mask="url(#mask0_2561_12022)">
<path d="M239.45 163.929C239.47 164.979 239.92 165.979 238.29 166.529C238.14 163.149 238.33 160.019 238.33 156.579L238.31 123.319L238.23 111.889V98.1891C238.23 97.9591 238.51 97.3291 238.63 97.1691C238.79 96.9591 239.33 97.5191 239.59 97.8091L239.5 136.579C239.5 139.139 239.47 141.459 239.3 144.069C239.21 145.369 239.32 146.769 239.33 148.089L239.35 152.389V159.399L239.44 163.929H239.45Z" fill="#90BEFB"/>
</g>
<path d="M190.65 96.1094H189.44V166.159H190.65V96.1094Z" fill="#90BEFB"/>
<mask id="mask1_2561_12022" style="mask-type:luminance" maskUnits="userSpaceOnUse" x="0" y="0" width="544" height="344">
<path d="M543.58 0H0V343.52H543.58V0Z" fill="white"/>
</mask>
<g mask="url(#mask1_2561_12022)">
<path d="M462.38 84.8709L363.92 183.421C363.77 183.571 363.31 183.831 363.18 183.891C362.98 183.991 362.81 183.411 362.7 183.041L377.81 167.751L339.79 167.561L263.56 167.471C263.26 167.471 262.43 166.731 262.65 166.561C262.88 166.371 263.56 166.041 263.88 166.041L273.57 166.161L280.93 166.181L291.01 166.211L369.4 166.311C372.75 166.311 375.63 166.501 379.01 166.691L429.76 115.911L408.5 115.591L385.07 115.351L332.47 115.171L292.22 115.071C291.69 115.071 291.14 114.691 291.01 114.491C290.84 114.231 291.55 113.621 291.95 113.621L301.54 113.761L350.42 113.951L395.72 114.171L420.25 114.361L430.94 114.541L433.21 112.401L432.86 111.861L426.39 111.691L410.07 111.501L357.82 111.311L315.52 111.111L294.57 110.971L280.11 110.991L279.92 110.141C279.9 110.011 280.41 109.791 280.55 109.791L316.74 109.891L367.78 110.091L402.41 110.291L432.84 110.401L434.87 110.741L447.55 97.8609L380.14 97.7109L354.64 97.4909L328.45 97.3009L290.72 97.1209L283.28 97.0509L262.18 96.9609L262.22 109.721L278.13 109.601C278.38 109.601 279.08 109.911 279.06 110.031L278.96 110.791L262.41 110.821C262.17 111.461 262.17 112.821 262.39 113.691L275.7 113.621C275.91 113.621 276.42 114.091 276.53 114.201C276.7 114.361 275.91 114.871 275.59 114.871L262.18 114.851L262.15 165.231C262.15 165.801 261.81 166.421 261.66 166.631C261.51 166.821 260.73 166.141 260.73 165.881L260.87 156.241L260.91 150.421L260.96 96.5609C261.71 96.1709 262.74 95.7509 263.5 95.7509L302.71 95.8809L331.74 96.0809L372.21 96.2709L429.19 96.4609L448.83 96.6309L454.42 91.1609L461.05 84.5009C461.19 84.3509 461.74 84.0509 461.93 83.9809C462.11 83.9009 462.21 84.3009 462.4 84.8409" fill="#90BEFB"/>
<path d="M289.671 114.94L283.021 114.85C282.761 114.85 281.921 114.4 282.091 114.24C282.271 114.08 282.841 113.65 283.101 113.65H288.971C289.251 113.65 289.881 113.88 290.081 113.94C290.281 114.01 289.941 114.95 289.671 114.95" fill="#90BEFB"/>
</g>
<path d="M281.14 113.65H277.32V114.87H281.14V113.65Z" fill="#90BEFB"/>
<mask id="mask2_2561_12022" style="mask-type:luminance" maskUnits="userSpaceOnUse" x="0" y="0" width="544" height="344">
<path d="M543.58 0H0V343.52H543.58V0Z" fill="white"/>
</mask>
<g mask="url(#mask2_2561_12022)">
<path d="M122.26 140.75C122.11 147.07 119.73 153.37 112.97 154.28C109.4 154.75 105.42 153.35 103.47 149.96C99.1202 142.37 100.34 128.98 109.3 126.76C112.72 125.91 116.23 126.79 118.55 129.25C121.52 132.38 122.37 136.53 122.26 140.75ZM136.28 135.9C135.51 131.63 134.6 127.44 132.05 123.85C130.05 121.05 127.34 118.41 124.07 116.97C116.3 113.52 107.14 113.64 99.6902 117.5C92.2702 121.34 88.1902 128.27 87.2402 136.32C86.9002 139.22 86.8502 141.83 87.3302 144.7C89.2102 155.92 94.7102 163.65 106.41 165.89C111.92 166.95 117.85 165.98 123.02 163.41C131.01 159.45 135.44 152.48 136.21 143.91C136.45 141.23 136.77 138.63 136.28 135.9Z" fill="#90BEFB"/>
<path d="M174.981 143.58C174.041 149.52 168.891 153.81 162.591 152.36C154.121 150.42 154.121 137.83 156.281 132.38C158.411 127.01 164.581 124.54 169.701 127.27C175.221 130.2 175.861 137.94 174.981 143.59M188.471 141.27L188.611 115.87C184.381 115.48 180.201 115.53 176.121 115.75C176.031 117.39 175.971 118.36 175.631 120C169.391 114.22 161.461 113.18 153.891 116.66C146.441 120.09 141.981 129.13 141.441 137.61C140.691 136.21 141.021 134.67 141.041 133L141.301 110.47L141.381 102.97L141.461 98.2102C141.461 97.9402 141.301 97.3002 141.241 97.0902C141.191 96.8902 140.361 97.2602 140.351 97.5202L140.171 109.6L140.031 133.06L139.841 164.57C139.841 165.65 139.221 167 140.991 167.14L141.041 147.32C141.041 145.5 140.621 143.75 141.301 141.96C141.951 147.46 143.331 152.44 146.671 156.87C151.291 163.01 159.001 165.29 166.381 163.11C169.591 162.17 172.201 160.49 175.201 158.54C175.951 162.83 174.961 167.15 172.451 170.32C170.461 172.83 167.741 173.48 164.761 173.46C161.091 173.43 158.111 171.99 156.741 168.45L143.281 168.81C144.331 174.86 147.111 180.34 153.381 181.9C160.241 183.59 166.881 183.43 173.651 182.12C181.221 180.65 187.361 174.51 188.001 166.57C188.691 158.08 188.411 149.81 188.451 141.27" fill="#90BEFB"/>
<path d="M237.61 133.831L237.59 139.151L237.35 164.711L227.07 164.911C225.93 164.931 224.83 164.951 223.77 164.681V137.521C223.77 135.881 223.57 134.231 223.3 132.651C222.61 128.511 218.87 125.991 214.65 126.961C207.63 128.581 207.83 134.501 207.86 139.551L207.97 159.751C207.97 161.611 208.09 163.221 207.95 165.041L194.16 164.991L193.69 141.981V117.781C193.69 117.231 194.46 116.551 194.88 116.541L206.62 116.181L207.32 120.131C213.25 114.981 221.14 113.431 228.36 116.161C235.82 118.981 237.62 126.541 237.59 133.831" fill="#90BEFB"/>
<path d="M267.92 213.591L246 235.051C247.31 231.411 250.5 229.381 253.08 226.821L271.62 208.371L279.79 200.181L291.17 188.501C291.96 187.691 293.02 187.311 294.02 187.421L279.12 202.341L272.58 208.851L267.9 213.601L267.92 213.591Z" fill="#90BEFB"/>
<path d="M375.96 318.291L356.55 337.341L353.19 340.501C352.75 340.911 351.81 340.491 351.24 339.931L342.83 331.581L351.56 323.001C355.03 319.591 364.04 311.321 366.11 307.671C367.9 304.511 366.96 301.061 363.94 298.781C361.02 296.571 356.76 296.131 353.76 298.811C346.18 305.581 339.28 312.771 331.9 320.401L322.17 310.601L327.67 304.451L356.24 276.371L365.73 285.251L363.3 288.461C373.94 288.731 385.42 300.311 381.13 310.601C379.98 313.371 378.22 316.071 375.97 318.281" fill="#90BEFB"/>
</g>
<path d="M369.53 262.52L320.16 310.72L319.17 309.71L368.54 261.51L369.53 262.52Z" fill="#90BEFB"/>
<mask id="mask3_2561_12022" style="mask-type:luminance" maskUnits="userSpaceOnUse" x="0" y="0" width="544" height="344">
<path d="M543.58 0H0V343.52H543.58V0Z" fill="white"/>
</mask>
<g mask="url(#mask3_2561_12022)">
<path d="M266.52 253.68C262.63 250.08 254.63 244.18 255.05 238.6C255.27 235.74 256.92 233.19 259.01 231.11L278.17 212.14L274.25 208.19L281.91 200.22C285.55 202.44 285.02 205.35 287.34 202.97L296.33 193.76L306.25 203.55L300.71 209.2L296.22 213.71L301.27 219.05L293.32 226.94L287.99 221.92L272.73 237.03C271.69 238.06 270.12 239.88 270.72 241.29C271.45 242.98 272.76 244.22 274.21 245.85L266.53 253.7L266.52 253.68Z" fill="#90BEFB"/>
</g>
<path d="M305.1 222.554L270.206 257.254L280.374 267.479L315.268 232.779L305.1 222.554Z" fill="#90BEFB"/>
<mask id="mask4_2561_12022" style="mask-type:luminance" maskUnits="userSpaceOnUse" x="0" y="0" width="544" height="344">
<path d="M543.58 0H0V343.52H543.58V0Z" fill="white"/>
</mask>
<g mask="url(#mask4_2561_12022)">
<path d="M318.92 228.89L314.08 224.02L309.22 219.05L317.84 210.6C319.23 211.85 320.27 212.88 321.54 214.15L327.58 220.23L318.93 228.89H318.92Z" fill="#90BEFB"/>
</g>
<path d="M280.73 269.76L279.8 268.83L329.36 219.82L330.3 220.76L280.73 269.76Z" fill="#90BEFB"/>
<mask id="mask5_2561_12022" style="mask-type:luminance" maskUnits="userSpaceOnUse" x="0" y="0" width="544" height="344">
<path d="M543.58 0H0V343.52H543.58V0Z" fill="white"/>
</mask>
<g mask="url(#mask5_2561_12022)">
<path d="M332.9 223.03L328.52 227.13L310.5 244.71C305.89 249.2 300.87 252.1 296.14 258.48L283.68 270.48C283.43 270.72 282.85 271.05 282.67 271.12C282.44 271.23 282.34 270.16 282.54 269.96L290.54 262.16L297.16 256.01C299.98 253.39 302.64 250.88 305.25 248.06C308.51 244.55 311.82 241.56 315.33 238.15L331.91 222.07C332.12 221.86 332.87 221.8 333.1 221.82C333.33 221.84 333.1 222.82 332.89 223.02" fill="#90BEFB"/>
</g>
<path d="M268.91 257.74L267.94 256.75L317.69 207.5L318.67 208.5L268.91 257.74Z" fill="#90BEFB"/>
<mask id="mask6_2561_12022" style="mask-type:luminance" maskUnits="userSpaceOnUse" x="0" y="0" width="544" height="344">
<path d="M543.58 0H0V343.52H543.58V0Z" fill="white"/>
</mask>
<g mask="url(#mask6_2561_12022)">
<path d="M266.58 255.91C266.31 256.2 265.75 256.52 265.59 256.61C265.41 256.7 265.02 255.89 265.16 255.75L270.56 250.49L284.01 237.06L313.82 207.32L314.57 206.55C314.75 206.36 315.23 207.05 315.28 207.3L309.2 213.25L302.26 220.05L294.82 227.6L288.92 233.79L283.77 238.93C277.54 245.16 272.24 249.84 266.57 255.92" fill="#90BEFB"/>
</g>
<path d="M351.93 342.709L352.71 343.519L402.29 295.239L401.51 294.439L351.93 342.709Z" fill="#90BEFB"/>
<path d="M368.264 258.039L343.667 281.916L344.573 282.849L369.169 258.971L368.264 258.039Z" fill="#90BEFB"/>
<mask id="mask7_2561_12022" style="mask-type:luminance" maskUnits="userSpaceOnUse" x="0" y="0" width="544" height="344">
<path d="M543.58 0H0V343.52H543.58V0Z" fill="white"/>
</mask>
<g mask="url(#mask7_2561_12022)">
<path d="M329.04 298.11L319.43 307.46C318.93 307.64 318.44 307.77 318.19 307.75C317.94 307.74 318.26 306.86 318.44 306.69L328.49 296.98C331.21 294.36 333.79 291.97 336.85 289.99C334.28 292.93 331.75 295.48 329.05 298.11" fill="#90BEFB"/>
<path d="M344.2 282.929L342.01 284.949L342.59 283.349C342.73 282.989 343.56 282.879 344.2 282.929Z" fill="#90BEFB"/>
<path d="M311.1 282.2C307.78 280 305.62 275.79 306.84 271.77C309.31 263.6 319.73 254.67 327.7 259.79C330.61 261.66 332.61 264.78 332.39 268.27C332.25 270.42 331.46 272.98 330.19 274.77C326.06 280.55 318.33 286.97 311.09 282.2M344.37 263.29C342.54 257.36 338.54 252.68 333.49 249.21C323.49 242.34 311.49 244.09 302.95 252.62L299.42 256.14C296.83 258.72 295.17 262.25 294 265.69C289.25 279.64 300.18 293.38 313.04 296.13C319.2 297.44 325.19 296.62 330.6 293.08C340.32 286.72 348.11 275.31 344.38 263.29" fill="#90BEFB"/>
</g>
<path d="M36.47 14.9902H35.04V85.4902H36.47V14.9902Z" fill="#90BEFB"/>
<path d="M86.8404 14.4609H85.4004V84.7209H86.8404V14.4609Z" fill="#90BEFB"/>
<mask id="mask8_2561_12022" style="mask-type:luminance" maskUnits="userSpaceOnUse" x="0" y="0" width="544" height="344">
<path d="M543.58 0H0V343.52H543.58V0Z" fill="white"/>
</mask>
<g mask="url(#mask8_2561_12022)">
<path d="M54.7699 45.6497C57.0099 43.8297 59.8999 43.2397 62.7299 43.7997C67.1199 44.7597 70.5099 47.7597 70.7299 52.9997L51.6299 53.1197C51.3799 49.8897 52.7499 47.3097 54.7699 45.6497ZM74.9599 62.5097L84.5199 62.3497C85.0599 52.8897 83.0399 42.1597 74.6899 36.7697C70.9599 34.3497 66.7199 32.9397 62.1399 32.9297C57.2399 32.9297 52.2599 33.5397 48.0099 36.0897C37.1399 42.6097 35.6699 56.6897 38.5799 68.0997C40.8999 77.2297 48.2099 83.7197 57.6199 84.7397C68.8699 85.9597 80.8999 80.8197 84.1099 68.6797C79.3899 68.3897 75.0299 68.4797 70.2999 68.7497C68.4499 72.2097 65.2599 73.7397 61.2599 73.5397C55.4099 73.2397 50.9899 68.7497 51.3599 62.7597L74.9699 62.5197L74.9599 62.5097Z" fill="#90BEFB"/>
<path d="M176.75 41.3204L176.19 42.2404L125.58 86.2703C124.72 87.0203 124.34 86.9604 124.18 86.9604C122.1 86.8904 130.21 81.5703 130.24 80.5603C123.41 84.5403 115.77 85.6004 108.12 83.6204C103.07 82.3104 99.11 79.3103 96.06 74.9903C92.52 69.9803 91.69 63.8704 91.77 57.7204C91.84 52.1204 92.87 47.3204 95.61 42.0504C93.2 43.2404 92.14 45.5504 89.92 46.3704C89.77 46.4304 89.76 45.4304 90.01 45.2104C94.57 41.4704 100.69 35.9504 105.74 31.5004L141.21 0.320354C141.35 0.190354 141.84 -0.0496459 141.95 0.0203541C142.06 0.100354 142.23 0.220354 142.36 0.280354C142.55 0.370354 142.19 0.970354 142.01 1.12035L104.84 33.7604C110.19 31.9904 114.66 31.5304 119.87 31.9504C130.21 32.7904 138.42 40.6504 138.63 51.1504L124.51 51.1304C123.83 49.0904 123.31 47.2404 121.96 45.8804C119.77 43.6704 116.66 43.1504 113.58 43.8904C111.16 44.4704 108.7 46.5704 107.66 49.3504C105.14 56.0704 105.04 69.2703 112.45 72.1303C115.53 73.3103 119.07 73.3204 121.55 71.2604C123.48 69.6404 124.19 66.9503 124.62 64.4903L138.72 64.6303C138.72 69.6603 136.18 73.5403 133.88 77.5903L175.57 41.3104C176.05 40.8904 176.87 41.1404 176.75 41.3304" fill="#90BEFB"/>
<path d="M1.80998 31.0405L1.63998 47.7005L1.66998 80.6606L1.62998 196.291L1.49998 227.511L0.00998133 228.051V179.341C0.00998133 179.341 0.00998133 179.341 0.00998133 179.311V100.091C-1.86687e-05 83.3805 0.339981 66.4905 0.549981 49.3305L0.759981 31.7205C0.839981 25.9605 0.269981 20.3105 1.28998 14.3105C2.52998 20.0005 1.86998 25.4905 1.80998 31.0405Z" fill="#90BEFB"/>
<path d="M33.2195 157.74L33.1195 226.83L32.9195 275.04L32.8095 320.92C32.8095 321.23 32.6295 321.98 32.5895 322.17H31.6195C31.1995 315.09 31.4695 308.06 31.4895 300.7L31.6995 243.4L31.8495 199.93V187.27L31.7795 157.36C31.7795 157.02 32.4095 156.24 32.6295 156.4C32.7995 156.52 33.2195 157.02 33.2095 157.75" fill="#90BEFB"/>
<path d="M31.2699 32.2804L31.2099 46.0204C28.3799 45.8204 25.8399 45.4504 23.3899 46.1104C16.0299 48.1104 16.3699 56.5904 16.5699 63.1204C16.7899 70.1604 16.8399 76.8404 16.4299 83.8904L4.19992 83.9404C3.75992 83.9404 2.97992 83.8304 2.84992 83.6304C2.67992 83.3604 2.42992 82.6104 2.42992 82.2204V48.9104L2.66992 44.8804L2.41992 34.3304C3.34992 34.0604 4.43992 33.7504 5.21992 33.7504L15.9699 33.8404L16.4299 38.0704C20.9499 34.5304 25.3799 31.9904 31.2499 32.2804" fill="#90BEFB"/>
</g>
<path d="M33.22 15.4297H31.79V156.71H33.22V15.4297Z" fill="#90BEFB"/>
<mask id="mask9_2561_12022" style="mask-type:luminance" maskUnits="userSpaceOnUse" x="0" y="0" width="544" height="344">
<path d="M543.58 0H0V343.52H543.58V0Z" fill="white"/>
</mask>
<g mask="url(#mask9_2561_12022)">
<path d="M441.75 273.72C441.57 273.55 441.52 272.76 441.73 272.58L449.99 264.96L451.43 263.62C454.36 260.9 457.09 258.09 460.18 255.62C462.21 254 463.89 252.14 465.79 250.42C467.69 248.68 469.47 247.04 471.28 245.23C474.89 241.59 478.64 238.35 482.32 234.88L484.9 232.46L509.02 209.75L487.15 205.9C487.28 205.31 487.37 204.9 487.6 204.82C487.78 204.76 488.3 204.7 488.54 204.75L499.08 206.57L507.33 207.99C507.88 208.08 508.23 208.09 508.61 207.55L478.79 175.57C478.62 175.39 478.38 174.75 478.36 174.64L479.05 173.99C479.16 174.01 479.76 174.29 479.97 174.52L510.14 206.96C511.29 208.19 512.03 209.24 513.18 210.32C516.26 213.18 518.76 216.33 521.64 219.45L543.58 243.23C543.46 243.47 543.11 244.08 542.99 244.03C542.38 243.78 541.23 243.05 540.76 242.46L538.44 239.59L512.21 211.42C511.99 211.18 511.15 211.53 511.14 211.77C510.96 214.29 510.41 216.94 509.92 219.31C509.88 219.52 509.09 220.21 509.01 220.03C508.94 219.86 508.58 219.28 508.61 219.07L509.69 212.4L509.1 211.92L443.05 273.51C442.67 273.87 441.96 273.92 441.74 273.71" fill="#90BEFB"/>
<path d="M506.901 233.11C506.791 232.89 506.521 232.28 506.571 232.04L508.241 221.13C508.281 220.88 509.121 220.16 509.211 220.37L509.701 221.39L507.861 232.78C507.821 233.03 507.011 233.27 506.911 233.11" fill="#90BEFB"/>
</g>
</g>
<defs>
<clipPath id="clip0_2561_12022">
<rect width="543.58" height="343.52" fill="white"/>
</clipPath>
</defs>
</svg>
