<svg width="344" height="299" viewBox="0 0 344 299" fill="none" xmlns="http://www.w3.org/2000/svg">
<g clip-path="url(#clip0_2561_14500)">
<mask id="mask0_2561_14500" style="mask-type:luminance" maskUnits="userSpaceOnUse" x="0" y="0" width="344" height="299">
<path d="M343.14 0H0V298.56H343.14V0Z" fill="white"/>
</mask>
<g mask="url(#mask0_2561_14500)">
<path d="M291.35 35.32C291.35 28.17 297.14 22.37 304.29 22.37C311.44 22.37 317.24 28.17 317.24 35.32C317.24 42.47 311.44 48.26 304.29 48.26C297.14 48.26 291.35 42.46 291.35 35.32ZM259.82 91.83C252.64 91.83 246.82 86.01 246.82 78.83C246.82 71.65 252.64 65.84 259.82 65.84C267 65.84 272.81 71.66 272.81 78.83C272.81 86 267 91.83 259.82 91.83ZM154.81 188.36C154.27 194.34 152.63 199.9 149.85 205.21C148.83 207.15 147.63 208.81 146.33 210.58C144.11 213.59 141.42 215.99 138.54 218.38C135.81 220.65 132.73 222.22 129.54 223.75C128.21 224.39 123.26 226.02 121.92 226.25L117.81 226.97C116.27 227.23 115.13 226.94 114.05 225.65L112.38 223.66C111.74 222.89 111.1 222.26 110.41 221.68L108.32 219.93L106.72 218.62C104.5 216.8 98.92 213.89 96.08 212.94C91.47 211.39 86.67 210.41 81.78 210.54C78.61 210.63 78.36 208.79 76.66 206C72.81 199.62 70.68 190.22 71.31 182.85C71.54 180.05 71.98 176.44 72.85 173.84L73.75 171.12C75.42 166.11 78.27 161.75 81.78 157.75C87.48 151.25 96.05 146.25 104.53 144.58L108.91 143.73C111.54 143.21 114.29 143.54 117.02 143.69C118.77 143.78 120.53 144.29 122.29 144.57C124.16 144.85 125.86 145.51 127.61 146.17C131.39 147.61 135.26 149.44 138.36 152C139.91 153.28 141.52 154.41 142.89 155.84C145.57 158.62 147.87 161.49 149.7 164.88C152.2 169.49 153.94 174.33 154.48 179.57C154.79 182.58 155.08 185.38 154.81 188.36ZM112.86 36.05C135.96 36.05 154.69 54.78 154.69 77.88C154.69 100.98 135.96 119.71 112.86 119.71C89.76 119.71 71.02 100.98 71.02 77.88C71.02 54.78 89.75 36.05 112.86 36.05ZM293.6 73.65C293.69 70.4 298.57 66.02 301.7 66L326.77 65.86C328.25 65.85 329.57 65.17 330.8 64.64C331.9 64.17 332.67 63.56 333.56 62.8C336.21 60.52 337.51 57.45 338.13 54.16V17.47L337.9 17.24C337.9 10.17 331.09 4.3 324.08 5.29C323.74 5.34 323.06 5.1 323.02 5H315.35C315.44 5 315.15 5.24 314.81 5.24L286.71 5.28C285.51 5.28 284.93 5.41 283.89 5.32C281.05 5.06 278.06 5.96 275.7 7.56C273.7 8.91 272.37 10.88 271.34 13.05C270.88 14.02 270.85 15.29 270.56 16.34C270.3 17.25 270.13 18.05 270.49 18.98L270.51 40.92L269.36 43.43C268.77 44.72 267.64 45.58 266.62 46.42C264.72 47.99 262.83 48.23 260.39 48.24L256.61 48.26C255.71 48.26 254.51 48.64 253.7 48.18C253.34 47.95 253.04 46.95 253.1 46.53C253.47 43.69 252.53 38.73 251.75 35.78C250.98 32.91 251 32.83 249.79 30.05C246.97 23.56 243.83 19.58 238.62 14.81C234.06 10.64 226.4 6.71 220.13 5.9C217.25 4.8 215.91 5.61 214.38 5H210.3C210.14 5.1 209.64 5.25 209.4 5.24C206.21 5.11 203.07 5.86 200.06 6.75C193.81 8.58 188.2 11.77 183.58 16.41C183.3 16.69 182.73 17.02 182.37 17.03C182.06 17.03 181.72 16.44 181.43 16.11C179.35 13.78 177 11.67 174.25 10.15C172.37 9.11 168.17 7.03 166.28 6.66L161.82 5.78C158.66 5.16 155.54 5.67 152.68 5.56C148.28 5.38 145.67 5.59 141.45 5.56L135.4 5.53L105.78 5.51C104.72 5.51 103.74 5.88 102.71 5.63C101.73 5.39 100.72 5.49 99.71 5.68L98.56 5.55C97.46 5.7 96.38 5.8 95.29 5.6C94.26 5.42 93.32 5.58 92.28 5.64C90.22 5.77 88.17 5.67 86.09 5.67H84.36L58.97 5.8L53.36 5.92L36.57 6.08L18.45 6.19C18.02 6.19 17.19 5.86 16.71 5.7C14.38 6.61 11.97 6.14 9.58001 5.8L6.03001 6.29C4.94001 6.44 5.29001 7.45 5.39001 8.26C5.46001 8.84 5.08001 9.93 5.12001 10.53L5.34001 13.62C5.40001 14.45 5.37001 15.2 5.34001 16.05C5.15001 19.5 5.34001 21.58 5.34001 24.97V39.71C5.32001 40.34 5.36001 40.88 5.34001 41.52L5.23001 44.81C5.22001 45 5.46001 45.49 5.61001 45.6C5.80001 45.73 6.23001 45.71 6.61001 45.65C7.19001 45.56 7.82001 45.67 8.44001 45.69C11.53 45.81 14.58 45.83 17.7 45.69C18.3 45.66 19.01 45.47 19.62 45.48L25.37 45.59C26.18 45.59 27.16 46.08 27.89 46.37C33.29 48.57 37.08 53.61 37.55 59.52C37.69 61.28 37.72 63.16 37.53 64.92C37.4 66.15 37.6 67.11 37.6 68.38L37.68 137.56L37.75 140.74L37.7 143.84C37.66 146.35 37.59 148.8 37.71 151.27C37.76 152.37 38.01 153.43 37.74 154.51C37.42 155.8 37.87 157.18 37.8 158.48C37.64 161.17 37.71 163.73 37.73 166.4L37.75 170.49V175.04C37.75 176.28 37.69 177.43 37.79 178.66C38.13 182.79 37.55 183.65 37.73 186.84C37.9 190.01 37.63 188.83 37.7 191.83C37.75 194.09 38.06 194.55 37.8 197.07C37.65 198.47 37.66 199.77 37.7 201.14L37.78 204.08C37.83 205.88 37.23 208.82 36.31 210.37L35.32 212.05C34.07 214.16 32.19 215.64 30.15 216.96C26.3 219.44 21.54 218.87 16.84 218.96C15.11 219 13.34 218.82 11.61 219.03C8.27001 219.46 6.39001 218.44 5.75001 219.32C5.08001 220.25 5.89001 220.48 5.61001 222.62C5.44001 223.89 5.58001 225.16 5.56001 226.42L5.38001 238.47C5.35001 240.99 4.64001 243.62 5.26001 246.02L5.71001 247.75L5.78001 258.07C6.49001 258.95 7.67001 258.21 8.39001 258.31C10.44 258.58 12.28 258.75 14.38 258.81C15.43 258.84 16.55 258.35 17.53 258.34L37.57 258.21C38.53 258.21 39.81 257.52 40.57 258.48C41.32 259.43 41.26 261.04 41.61 262.21L42.62 265.54C42.84 266.27 43.13 267.14 43.43 267.81L44.47 270.15C46.01 273.61 48.18 276.68 50.62 279.55C54.86 284.56 60.91 288.67 67.08 290.9C69.55 291.8 71.97 292.66 74.56 292.97C77.03 293.27 79.43 293.57 81.82 293.57C88.37 293.59 95.1 291.82 100.92 288.89C103.73 287.47 106.23 285.68 108.71 283.76C109.68 283 110.45 282.15 111.25 281.26L113.75 278.48C114.26 277.92 114.71 277.35 115.15 276.74C118.53 272.06 120.54 268.04 121.93 262.39C122.21 261.28 122.48 260.27 122.68 259.08C122.79 258.46 123.19 257.54 124.03 257.54L143.86 257.52L144.97 257.42L146.82 257.36L159.69 257.23C160.44 257.23 161.34 257.13 162.11 257.03C172.97 255.58 181.94 248.8 186.85 239.12C188.18 236.51 190.08 231.22 190.09 228.48L190.13 198.3L190.06 195.68C189.96 191.91 190.33 189.77 190.08 185.37C189.91 182.35 190.34 180.75 190.08 178.19C189.94 176.76 190.08 175.48 190.04 174.06L189.92 170.49L189.99 166.68L190.01 163.3C190.02 161.75 189.82 160.19 190.06 158.63C190.25 157.4 190.06 156.13 190.06 154.92C190.07 153.91 190.1 153.01 189.99 151.99C189.7 149.14 190.2 149.44 190.06 146.04L189.96 143.53L189.9 96.67V95.16L189.93 83.41C189.93 83.14 189.97 82.7 190.01 82.51C190.06 82.33 190.66 82.23 190.86 82.34L193.47 83.71C199.34 86.8 206.08 88.12 212.69 88.03C213.15 88.03 213.75 88.09 214.17 88.03L217.05 87.68C219.76 87.36 222.5 86.52 225.13 85.82C225.43 85.74 226.18 86.06 226.3 86.33C226.42 86.6 226.21 87.21 226.21 87.6L226.14 95.13C226.11 99.15 227.43 102.55 230.48 105.25C233.2 107.65 235.18 108.59 239.09 108.62L242.96 108.65C244.74 108.65 246.43 108.58 248.18 108.65C251.08 108.78 253.56 108.48 257.29 108.68C258.3 108.74 259.19 108.68 260.21 108.68L276.64 108.66L278.83 108.68L283.12 108.65L286.1 108.67L288.73 108.69C289.56 108.7 290.33 108.75 291.2 108.75H293.02C294.29 108.75 295.4 108.8 296.67 108.7C298.47 108.56 300.33 108.56 302.13 108.68C303.09 108.74 303.96 108.91 304.9 108.71C306.11 108.45 307.41 108.8 308.6 108.75C309.89 108.7 311.04 108.55 312.3 108.75C313.09 108.88 314.01 108.88 314.81 108.75C315.75 108.6 316.58 108.73 317.53 108.77C320.55 108.9 323.52 108.91 326.51 108.73C328.96 108.58 331.34 108.55 333.8 108.68L336.11 108.8C336.91 108.84 337.58 108.87 338.13 108.37V106.95C338.13 106.95 338.14 106.95 338.13 106.93V93.98C338.13 93.98 338.14 93.96 338.13 93.96V90.62C338.02 90.56 337.34 90.12 337.05 90.12L311.13 90.16C310.48 90.16 309.79 90.31 309.25 90.26C305.05 89.91 304.25 90.71 301.26 90.05C298.63 89.47 296.38 87.85 294.93 85.63C293.75 83.83 293.39 81.65 293.45 79.56L293.6 73.66V73.65Z" fill="#90BEFB"/>
<path d="M296.7 66.0401C296.7 63.2801 298.91 61.0201 301.67 61.0001C304.43 60.9801 306.69 63.2101 306.7 65.9701C306.72 68.7301 304.5 70.9801 301.74 71.0001H301.71C298.96 71.0001 296.72 68.7901 296.7 66.0401Z" fill="black"/>
<path d="M321.77 65.8894C321.76 63.1294 323.98 60.8794 326.75 60.8594C329.51 60.8594 331.76 63.0694 331.77 65.8294C331.79 68.5994 329.56 70.8494 326.8 70.8594H326.77C324.02 70.8594 321.79 68.6394 321.77 65.8894Z" fill="black"/>
<path d="M326.21 66.6203C325.12 64.0903 326.289 61.1403 328.829 60.0503C331.359 58.9603 334.3 60.1303 335.4 62.6703C336.49 65.2003 335.32 68.1403 332.78 69.2403C332.14 69.5103 331.47 69.6503 330.81 69.6503C328.87 69.6503 327.03 68.5103 326.21 66.6203Z" fill="black"/>
<path d="M329.76 66.0492C327.97 63.9492 328.22 60.7892 330.32 58.9992C332.42 57.2092 335.58 57.4592 337.37 59.5592C339.16 61.6592 338.91 64.8192 336.81 66.6092C335.87 67.4092 334.71 67.8092 333.57 67.8092C332.15 67.8092 330.75 67.2092 329.76 66.0492Z" fill="black"/>
<path d="M337.21 59.0793C334.49 58.5593 332.71 55.9493 333.22 53.2393C333.73 50.5193 336.34 48.7393 339.06 49.2493C341.77 49.7593 343.56 52.3693 343.05 55.0893C342.59 57.4893 340.5 59.1593 338.14 59.1593C337.83 59.1593 337.52 59.1393 337.21 59.0793Z" fill="black"/>
<path d="M333.13 17.4707C333.13 14.7107 335.37 12.4707 338.13 12.4707C340.9 12.4707 343.14 14.7107 343.14 17.4707C343.14 20.2307 340.9 22.4707 338.13 22.4707C335.37 22.4707 333.13 20.2307 333.13 17.4707Z" fill="black"/>
<path d="M334.479 20.8905L334.369 20.7805C332.409 18.8205 332.409 15.6605 334.369 13.7105C336.319 11.7605 339.489 11.7605 341.439 13.7105L341.559 13.8205C343.509 15.7705 343.509 18.9405 341.559 20.8905C340.579 21.8705 339.299 22.3605 338.019 22.3605C336.739 22.3605 335.459 21.8705 334.479 20.8905Z" fill="black"/>
<path d="M319.13 5.99981C318.74 3.25981 320.65 0.72981 323.38 0.33981C326.11 -0.0501895 328.65 1.84981 329.03 4.58981C329.42 7.31981 327.52 9.84981 324.79 10.2398C324.55 10.2798 324.31 10.2898 324.07 10.2898C321.63 10.2898 319.49 8.48981 319.13 5.99981Z" fill="black"/>
<path d="M322.22 10.0605C321.73 9.9105 321.39 9.8205 320.71 9.4605C320.46 9.3105 320.17 9.1805 319.62 8.6705C319.32 8.3605 318.85 7.9605 318.39 6.8905C317.35 4.3305 318.58 1.4105 321.14 0.370496C322.55 -0.199504 324.07 -0.0895044 325.33 0.570496C327.69 1.4705 329.03 4.0405 328.36 6.5405C327.75 8.7705 325.73 10.2305 323.53 10.2305C323.1 10.2305 322.66 10.1805 322.22 10.0605Z" fill="black"/>
<path d="M310.35 5.01C310.35 2.24 312.59 0 315.35 0C318.11 0 320.36 2.24 320.36 5.01C320.36 7.77 318.11 10 315.35 10C312.59 10 310.35 7.77 310.35 5.01Z" fill="black"/>
<path d="M309.81 5.24038C309.81 2.76038 311.63 0.690375 314.02 0.310375C316.38 -0.239625 318.86 1.01038 319.78 3.34038C320.79 5.91038 319.53 8.81037 316.97 9.83037C316.4 10.0504 315.7 10.2404 314.81 10.2404C312.05 10.2404 309.81 8.01038 309.81 5.24038Z" fill="black"/>
<path d="M281.71 5.2893C281.71 2.5293 283.95 0.289297 286.71 0.279297C289.47 0.279297 291.71 2.5093 291.71 5.2793C291.71 8.0393 289.48 10.2793 286.72 10.2893C283.96 10.2893 281.72 8.0493 281.71 5.2893Z" fill="black"/>
<path d="M283.46 10.2995C280.71 10.0695 278.67 7.63949 278.91 4.88949C279.15 2.13949 281.57 0.0994952 284.32 0.339495C287.08 0.579495 289.11 2.9995 288.87 5.7595C288.65 8.3595 286.47 10.3195 283.9 10.3195C283.76 10.3195 283.61 10.3195 283.46 10.2995Z" fill="black"/>
<path d="M271.56 10.3691C270.02 8.07909 270.61 4.96909 272.9 3.41909C275.19 1.87909 278.29 2.46909 279.84 4.75909C281.39 7.03909 280.79 10.1591 278.51 11.6991C277.65 12.2891 276.67 12.5591 275.71 12.5591C274.11 12.5591 272.53 11.7891 271.56 10.3691Z" fill="black"/>
<path d="M269.2 17.5709C266.7 16.3909 265.64 13.4009 266.83 10.9109C268.01 8.41093 270.99 7.35093 273.49 8.54093C275.98 9.72093 277.04 12.7009 275.86 15.2009C275 17.0009 273.21 18.0609 271.34 18.0609C270.62 18.0609 269.89 17.9009 269.2 17.5709Z" fill="black"/>
<path d="M269.23 21.1596C266.57 20.4296 265.01 17.6796 265.74 15.0096C266.48 12.3496 269.23 10.7896 271.89 11.5296C274.56 12.2596 276.12 15.0096 275.38 17.6796C274.77 19.8896 272.76 21.3496 270.57 21.3496C270.13 21.3496 269.68 21.2896 269.23 21.1596Z" fill="black"/>
<path d="M265.83 20.7906C264.83 18.2206 266.11 15.3206 268.69 14.3206C271.27 13.3206 274.16 14.6006 275.15 17.1806C276.15 19.7506 274.88 22.6506 272.3 23.6506C271.7 23.8806 271.09 23.9906 270.49 23.9906C268.49 23.9906 266.6 22.7706 265.83 20.7906Z" fill="black"/>
<path d="M265.51 40.9299C265.51 38.1699 267.75 35.9299 270.51 35.9199C273.27 35.9199 275.51 38.1599 275.51 40.9199C275.52 43.6799 273.28 45.9199 270.52 45.9199C267.76 45.9299 265.52 43.6899 265.51 40.9299Z" fill="black"/>
<path d="M267.28 47.9796C264.77 46.8296 263.67 43.8596 264.82 41.3496C265.97 38.8396 268.93 37.7396 271.45 38.8896C273.96 40.0396 275.06 43.0096 273.91 45.5196C273.07 47.3496 271.25 48.4296 269.36 48.4296C268.66 48.4296 267.96 48.2896 267.28 47.9796Z" fill="black"/>
<path d="M262.76 49.5992C261.01 47.4692 261.31 44.3192 263.45 42.5592C265.58 40.8092 268.73 41.1092 270.49 43.2492C272.24 45.3792 271.93 48.5292 269.8 50.2892C268.87 51.0492 267.74 51.4292 266.62 51.4292C265.18 51.4292 263.75 50.7992 262.76 49.5992Z" fill="black"/>
<path d="M255.39 48.2602C255.39 45.5002 257.61 43.2502 260.38 43.2402C263.13 43.2402 265.38 45.4602 265.39 48.2202C265.4 50.9902 263.17 53.2302 260.41 53.2402H260.39C257.64 53.2402 255.41 51.0202 255.39 48.2602Z" fill="black"/>
<path d="M251.61 48.2898C251.6 45.5298 253.83 43.2798 256.59 43.2598C259.35 43.2498 261.6 45.4798 261.61 48.2398C261.63 50.9998 259.4 53.2498 256.64 53.2598H256.62C253.86 53.2598 251.63 51.0398 251.61 48.2898Z" fill="black"/>
<path d="M251.24 52.54C248.84 51.18 247.99 48.13 249.35 45.72C250.71 43.32 253.76 42.47 256.16 43.83C258.57 45.19 259.41 48.24 258.06 50.65C257.14 52.27 255.44 53.19 253.7 53.19C252.86 53.19 252.02 52.98 251.24 52.54Z" fill="black"/>
<path d="M252.37 51.4791C249.64 51.0691 247.75 48.5291 248.16 45.7991C248.57 43.0691 251.11 41.1791 253.84 41.5891C256.57 41.9891 258.45 44.5391 258.05 47.2691C257.68 49.7491 255.55 51.5391 253.11 51.5391C252.86 51.5391 252.62 51.5191 252.37 51.4791Z" fill="black"/>
<path d="M246.919 37.0604C246.209 34.3904 247.809 31.6604 250.469 30.9504C253.139 30.2404 255.879 31.8304 256.589 34.5004C257.289 37.1704 255.699 39.9104 253.029 40.6204C252.599 40.7304 252.169 40.7804 251.749 40.7804C249.539 40.7804 247.509 39.3004 246.919 37.0604Z" fill="black"/>
<path d="M245.21 32.0501C244.11 29.5201 245.26 26.5701 247.8 25.4701C250.33 24.3701 253.28 25.5301 254.38 28.0601C255.48 30.5901 254.32 33.5401 251.79 34.6401C251.14 34.9201 250.46 35.0601 249.8 35.0601C247.87 35.0601 246.03 33.9301 245.21 32.0501Z" fill="black"/>
<path d="M235.25 18.5006C233.21 16.6406 233.07 13.4706 234.93 11.4406C236.8 9.40056 239.96 9.26056 242 11.1306C244.04 12.9906 244.17 16.1506 242.31 18.1906C241.33 19.2706 239.98 19.8106 238.62 19.8106C237.42 19.8106 236.21 19.3806 235.25 18.5006Z" fill="black"/>
<path d="M219.49 10.8594C216.75 10.5094 214.82 7.99944 215.17 5.25944C215.53 2.51944 218.04 0.589443 220.77 0.949443C223.51 1.29944 225.45 3.80944 225.09 6.54944C224.77 9.05944 222.62 10.8994 220.14 10.8994C219.93 10.8994 219.71 10.8994 219.49 10.8594Z" fill="black"/>
<path d="M212.53 9.65068C209.96 8.62068 208.71 5.71068 209.74 3.15068C210.76 0.580681 213.68 -0.659319 216.24 0.360681C218.8 1.38068 220.05 4.30068 219.03 6.86068C218.25 8.82068 216.37 10.0107 214.38 10.0107C213.76 10.0107 213.14 9.89068 212.53 9.65068Z" fill="black"/>
<path d="M205.3 5.01C205.3 2.24 207.54 0 210.3 0C213.06 0 215.3 2.24 215.3 5.01C215.3 7.77 213.06 10 210.3 10C207.54 10 205.3 7.77 205.3 5.01Z" fill="black"/>
<path d="M204.399 5.24023C204.399 2.48023 206.639 0.240234 209.399 0.240234C212.169 0.240234 214.399 2.48023 214.399 5.24023C214.399 8.01023 212.169 10.2402 209.399 10.2402C206.639 10.2402 204.399 8.01023 204.399 5.24023Z" fill="black"/>
<path d="M195.27 8.16924C194.49 5.51924 196 2.73924 198.65 1.95924C201.3 1.17924 204.07 2.68924 204.86 5.33924C205.64 7.97924 204.13 10.7692 201.48 11.5492C201.01 11.6892 200.53 11.7592 200.06 11.7592C197.9 11.7592 195.91 10.3492 195.27 8.16924Z" fill="black"/>
<path d="M180.05 19.9603C178.1 18.0103 178.09 14.8403 180.05 12.8803C182 10.9303 185.17 10.9203 187.12 12.8803C189.08 14.8303 189.09 18.0003 187.14 19.9503C186.16 20.9303 184.88 21.4203 183.59 21.4203C182.32 21.4203 181.04 20.9403 180.06 19.9703L180.05 19.9603Z" fill="black"/>
<path d="M177.37 17.1699C177.31 14.7999 178.91 12.7699 181.11 12.1999C183.45 11.2199 186.19 12.1599 187.42 14.4399C188.74 16.8699 187.83 19.8999 185.4 21.2199C184.73 21.5299 184.13 21.9299 182.51 22.0299H182.37C179.67 22.0299 177.45 19.8799 177.37 17.1699Z" fill="black"/>
<path d="M177.97 19.7999C177.82 19.6099 177.72 19.4699 177.66 19.3999C175.85 17.3199 176.06 14.1699 178.14 12.3499C180.22 10.5299 183.37 10.7399 185.19 12.8199C185.6 13.2899 185.72 13.4899 185.73 13.4799C187.47 15.6199 187.15 18.7699 185.01 20.5199C184.08 21.2699 182.96 21.6399 181.85 21.6399C180.4 21.6399 178.96 21.0099 177.97 19.7999Z" fill="black"/>
<path d="M171.84 14.5294C169.42 13.1894 168.54 10.1494 169.88 7.72941C171.21 5.31941 174.26 4.43941 176.67 5.77941C179.09 7.10941 179.97 10.1494 178.63 12.5694C177.72 14.2194 176.01 15.1494 174.25 15.1494C173.43 15.1494 172.6 14.9494 171.84 14.5294Z" fill="black"/>
<path d="M165.32 11.5691C162.61 11.0391 160.85 8.40909 161.38 5.69909C161.91 2.98909 164.54 1.21909 167.25 1.75909C169.95 2.28909 171.72 4.90909 171.19 7.62909C170.72 10.0091 168.63 11.6591 166.29 11.6591C165.97 11.6591 165.65 11.6291 165.32 11.5691Z" fill="black"/>
<path d="M160.86 10.6902C158.15 10.1502 156.38 7.52021 156.92 4.81021C157.45 2.11021 160.08 0.340206 162.79 0.880206C165.5 1.41021 167.27 4.04021 166.73 6.75021C166.26 9.13021 164.17 10.7802 161.83 10.7802C161.51 10.7802 161.18 10.7502 160.86 10.6902Z" fill="black"/>
<path d="M152.49 10.5604C149.73 10.4504 147.58 8.13045 147.69 5.37045C147.8 2.61045 150.12 0.460446 152.88 0.570446C155.64 0.680446 157.79 3.00045 157.68 5.76045C157.57 8.45045 155.36 10.5604 152.69 10.5604H152.49Z" fill="black"/>
<path d="M141.42 10.5607C138.66 10.5507 136.43 8.29068 136.45 5.53068C136.47 2.77068 138.73 0.54068 141.49 0.56068C144.25 0.58068 146.47 2.84068 146.45 5.60068C146.43 8.35068 144.2 10.5607 141.46 10.5607H141.42Z" fill="black"/>
<path d="M135.379 10.5293C132.619 10.5293 130.389 8.26933 130.399 5.50933C130.419 2.74933 132.669 0.51933 135.429 0.52933C138.189 0.54933 140.419 2.79933 140.399 5.55933C140.389 8.30933 138.159 10.5293 135.409 10.5293H135.379Z" fill="black"/>
<path d="M105.78 10.5098C103.02 10.5098 100.78 8.26977 100.78 5.50977C100.79 2.74977 103.03 0.509766 105.79 0.509766C108.55 0.509766 110.78 2.75977 110.78 5.51977C110.78 8.27977 108.55 10.5098 105.79 10.5098H105.78Z" fill="black"/>
<path d="M101.53 10.4902C98.8502 9.84017 97.2002 7.13017 97.8602 4.45017C98.5102 1.77017 101.22 0.120167 103.9 0.780167C106.58 1.43017 108.22 4.13017 107.57 6.82017C107.01 9.10017 104.97 10.6402 102.72 10.6402C102.33 10.6402 101.93 10.5902 101.53 10.4902Z" fill="black"/>
<path d="M94.7997 6.60039C94.2897 3.89039 96.0797 1.28039 98.7897 0.77039C101.51 0.26039 104.12 2.05039 104.63 4.76039C105.14 7.48039 103.35 10.0904 100.63 10.6004C100.32 10.6604 100.01 10.6804 99.7097 10.6804C97.3497 10.6804 95.2497 9.01039 94.7997 6.60039Z" fill="black"/>
<path d="M98.5795 10.5907L98.0095 10.5207C95.2595 10.2107 93.2895 7.74069 93.5995 5.00069C93.8995 2.25069 96.3695 0.280693 99.1195 0.590693L99.6895 0.650693C102.439 0.960693 104.409 3.43069 104.109 6.17069C103.819 8.73069 101.659 10.6207 99.1395 10.6207C98.9595 10.6207 98.7695 10.6207 98.5795 10.5907Z" fill="black"/>
<path d="M94.3896 10.5199C91.6696 10.0199 89.8796 7.40993 90.3796 4.69993C90.8796 1.97993 93.4896 0.179933 96.1996 0.689933C98.9096 1.18993 100.71 3.79993 100.21 6.50993C99.7596 8.91993 97.6696 10.5999 95.2996 10.5999C94.9996 10.5999 94.6896 10.5799 94.3896 10.5199Z" fill="black"/>
<path d="M87.2898 5.92916C87.1298 3.17916 89.2398 0.819156 91.9898 0.649156C94.7498 0.489156 97.1098 2.59916 97.2698 5.34916C97.4298 8.10916 95.3298 10.4792 92.5698 10.6392H92.2798C89.6498 10.6392 87.4498 8.58916 87.2898 5.92916Z" fill="black"/>
<path d="M81.0898 5.66969C81.0898 2.90969 83.3298 0.679688 86.0898 0.679688C88.8598 0.679688 91.0898 2.90969 91.0898 5.66969C91.0898 8.43969 88.8598 10.6697 86.0898 10.6697C83.3298 10.6697 81.0898 8.43969 81.0898 5.66969Z" fill="black"/>
<path d="M79.3604 5.70982C79.3504 2.94982 81.5804 0.699821 84.3304 0.679821H85.2004C87.9604 0.659821 90.2104 2.88982 90.2304 5.64982C90.2304 8.40982 88.0204 10.6598 85.2604 10.6798H84.3604C81.6104 10.6798 79.3804 8.45982 79.3604 5.70982Z" fill="black"/>
<path d="M55.47 5.92904C55.44 3.15904 57.66 0.90904 60.43 0.87904C63.19 0.85904 65.45 3.07904 65.47 5.83904C65.49 8.59904 63.27 10.859 60.51 10.879H60.47C57.72 10.879 55.49 8.66904 55.47 5.92904Z" fill="black"/>
<path d="M13.4502 6.21945C13.4502 3.45945 15.6602 1.20945 18.4202 1.18945C21.1802 1.18945 23.4402 3.39945 23.4502 6.15945C23.4702 8.91945 21.2502 11.1795 18.4902 11.1895H18.4502C15.7102 11.1895 13.4702 8.97945 13.4502 6.21945Z" fill="black"/>
<path d="M16.0497 10.7599C15.5897 10.6099 15.2297 10.4799 15.1197 10.4399C12.4997 9.55991 11.0997 6.71991 11.9797 4.10991C12.8597 1.48991 15.6897 0.0799116 18.3097 0.969912C18.6697 1.08991 18.9297 1.17991 19.0897 1.23991C21.7297 2.07991 23.1797 4.88991 22.3297 7.51991C21.6497 9.64991 19.6897 10.9999 17.5697 10.9999C17.0697 10.9999 16.5497 10.9199 16.0497 10.7599Z" fill="black"/>
<path d="M8.87964 10.7494C6.14964 10.3694 4.23964 7.82936 4.62964 5.09936C5.01964 2.35936 7.54964 0.469358 10.2896 0.849358C13.0196 1.23936 14.9196 3.77936 14.5296 6.50936C14.1796 9.00936 12.0396 10.8094 9.58964 10.8094C9.35964 10.8094 9.11964 10.7894 8.87964 10.7494Z" fill="black"/>
<path d="M1.0799 6.97918C0.6999 4.23918 2.6099 1.71918 5.3499 1.33918C8.0799 0.959177 10.6099 2.86918 10.9899 5.60918C11.3699 8.34918 9.4499 10.8692 6.7199 11.2492C6.4899 11.2792 6.2599 11.2892 6.0299 11.2892C3.5699 11.2892 1.4199 9.47918 1.0799 6.97918Z" fill="black"/>
<path d="M0.430116 8.87008C0.100116 6.13008 2.04012 3.64008 4.79012 3.30008C7.53012 2.97008 10.0201 4.92008 10.3601 7.66008C10.6901 10.4001 8.74012 12.8901 6.00012 13.2301C5.80012 13.2501 5.59012 13.2601 5.39012 13.2601C2.90012 13.2601 0.740116 11.4101 0.430116 8.87008Z" fill="black"/>
<path d="M0.129901 10.861C-0.050099 8.10097 2.0499 5.72097 4.7999 5.54097C7.5599 5.37097 9.9399 7.45097 10.1099 10.211C10.2899 12.971 8.1999 15.341 5.4399 15.521C5.3299 15.521 5.2199 15.521 5.1099 15.521C2.4999 15.531 0.299901 13.501 0.129901 10.861Z" fill="black"/>
<path d="M0.360034 13.9803C0.160034 11.2303 2.23003 8.83031 4.99003 8.64031C7.74003 8.44031 10.13 10.5103 10.33 13.2703C10.53 16.0203 8.45003 18.4203 5.70003 18.6103C5.58003 18.6103 5.46003 18.6103 5.34003 18.6103C2.74003 18.6103 0.550034 16.6003 0.360034 13.9703V13.9803Z" fill="black"/>
<path d="M5.10012 21.0503C2.34012 20.9203 0.21012 18.5703 0.34012 15.8203C0.47012 13.0603 2.81012 10.9303 5.57012 11.0603C8.33012 11.1903 10.4601 13.5403 10.3301 16.2903C10.2001 18.9703 7.99012 21.0503 5.34012 21.0503H5.10012Z" fill="black"/>
<path d="M0.330078 24.9705C0.330078 22.2105 2.57008 19.9805 5.33008 19.9805C8.10008 19.9805 10.3301 22.2105 10.3301 24.9705C10.3301 27.7405 8.10008 29.9705 5.33008 29.9705C2.57008 29.9705 0.330078 27.7405 0.330078 24.9705Z" fill="black"/>
<path d="M5.31982 44.7107C2.55982 44.7107 0.319824 42.4707 0.319824 39.7107C0.319824 36.9507 2.56982 34.7107 5.32982 34.7207C8.08982 34.7207 10.3298 36.9507 10.3198 39.7207C10.3198 42.4707 8.08982 44.7107 5.32982 44.7107H5.31982Z" fill="black"/>
<path d="M5.15975 46.5207C2.40975 46.4307 0.239748 44.1207 0.339748 41.3507C0.429748 38.6007 2.73975 36.4307 5.49975 36.5307C8.25975 36.6207 10.4297 38.9307 10.3297 41.6907C10.2397 44.3907 8.01975 46.5207 5.33975 46.5207H5.15975Z" fill="black"/>
<path d="M5.05999 49.8091C2.29999 49.7191 0.129987 47.4091 0.219987 44.6491C0.319987 41.8891 2.62999 39.7291 5.38999 39.8191C8.14999 39.9091 10.31 42.2191 10.22 44.9791C10.13 47.6791 7.90999 49.8191 5.21999 49.8191C5.21999 49.8191 5.10999 49.8191 5.05999 49.8191V49.8091Z" fill="black"/>
<path d="M2.65983 49.6503C1.73983 48.9303 1.57983 48.5703 1.32983 48.2503C1.11983 47.9303 0.979835 47.6803 0.849835 47.4103C-0.350165 44.9203 0.699835 41.9303 3.17983 40.7303C5.51983 39.6103 8.28983 40.4603 9.60983 42.6203C10.8898 44.3303 10.9698 46.7303 9.64983 48.5503C8.66983 49.8903 7.13983 50.6103 5.59983 50.6103C4.57983 50.6103 3.54983 50.2903 2.65983 49.6503Z" fill="black"/>
<path d="M1.09967 45.7598C1.05967 43.0498 3.19967 40.8098 5.88967 40.6998C8.58967 40.3198 11.1097 42.1698 11.5397 44.8698C11.9697 47.5998 10.1097 50.1598 7.37967 50.5898C7.02967 50.6498 6.64967 50.6898 6.15967 50.6998H6.08967C3.35967 50.6998 1.12967 48.4998 1.09967 45.7598Z" fill="black"/>
<path d="M8.26985 50.6905C7.72985 50.6705 7.37985 50.6305 7.19985 50.6205C4.43985 50.4405 2.34985 48.0705 2.52985 45.3105C2.70985 42.5605 5.07985 40.4705 7.83985 40.6405C8.26985 40.6705 8.51985 40.7005 8.58985 40.7005C11.3498 40.7805 13.5198 43.1005 13.4298 45.8505C13.3498 48.5605 11.1298 50.6905 8.43985 50.6905H8.26985Z" fill="black"/>
<path d="M12.6999 45.9293C12.5599 43.1693 14.6899 40.8193 17.4499 40.6893C20.2099 40.5593 22.5499 42.6793 22.6899 45.4393C22.8199 48.1993 20.6899 50.5393 17.9399 50.6793H17.6799C15.0399 50.6793 12.8299 48.5993 12.6999 45.9293Z" fill="black"/>
<path d="M14.6104 45.4707C14.6104 42.7107 16.8504 40.4707 19.6104 40.4707C22.3804 40.4707 24.6104 42.7107 24.6104 45.4707C24.6104 48.2407 22.3804 50.4707 19.6104 50.4707C16.8504 50.4707 14.6104 48.2407 14.6104 45.4707Z" fill="black"/>
<path d="M25.2702 50.5809C22.5102 50.5309 20.3102 48.2509 20.3602 45.4909C20.4202 42.7309 22.7002 40.5309 25.4602 40.5809C28.2202 40.6409 30.4102 42.9209 30.3602 45.6809C30.3102 48.4109 28.0802 50.5809 25.3702 50.5809H25.2702Z" fill="black"/>
<path d="M26.0503 51.0093C23.4803 49.9993 22.2203 47.0893 23.2303 44.5193C24.2503 41.9593 27.1603 40.6993 29.7203 41.7193C32.2903 42.7293 33.5503 45.6393 32.5303 48.1993C31.7603 50.1693 29.8803 51.3693 27.8803 51.3693C27.2703 51.3693 26.6503 51.2493 26.0503 51.0093Z" fill="black"/>
<path d="M32.56 59.9098C32.34 57.1598 34.4 54.7498 37.15 54.5298C39.9 54.3098 42.31 56.3698 42.53 59.1198C42.74 61.8698 40.69 64.2798 37.94 64.4998C37.81 64.5098 37.67 64.5198 37.54 64.5198C34.96 64.5198 32.77 62.5298 32.56 59.9098Z" fill="black"/>
<path d="M36.9797 69.8901C34.2397 69.5901 32.2597 67.1201 32.5497 64.3701C32.8497 61.6301 35.3197 59.6401 38.0597 59.9401C40.8097 60.2401 42.7897 62.7101 42.4897 65.4501C42.2097 68.0201 40.0497 69.9201 37.5297 69.9101C37.3497 69.9101 37.1697 69.9101 36.9797 69.8901Z" fill="black"/>
<path d="M32.5898 68.3691C32.5898 65.6091 34.8298 63.3691 37.5898 63.3691C40.3498 63.3691 42.5998 65.6091 42.5998 68.3691C42.5998 71.1391 40.3498 73.3691 37.5898 73.3691C34.8298 73.3691 32.5898 71.1391 32.5898 68.3691Z" fill="black"/>
<path d="M32.6299 102.971C32.6299 100.211 34.8699 97.9709 37.6299 97.9609C40.3899 97.9609 42.6299 100.201 42.6299 102.961C42.6299 105.721 40.3999 107.961 37.6399 107.961C34.8799 107.971 32.6399 105.731 32.6299 102.971Z" fill="black"/>
<path d="M32.7395 140.85C32.6795 138.08 34.8695 135.8 37.6295 135.73C40.3895 135.67 42.6795 137.86 42.7395 140.62C42.7995 143.38 40.6195 145.67 37.8495 145.73C37.8495 145.73 37.7795 145.73 37.7395 145.73C35.0295 145.73 32.8095 143.56 32.7395 140.84V140.85Z" fill="black"/>
<path d="M37.61 148.831C34.85 148.791 32.65 146.511 32.69 143.751C32.74 140.991 35.01 138.791 37.77 138.831C40.54 138.881 42.74 141.151 42.69 143.911C42.65 146.651 40.42 148.831 37.7 148.831H37.61Z" fill="black"/>
<path d="M32.7098 151.509C32.5798 148.749 34.6998 146.399 37.4598 146.269C40.2198 146.139 42.5598 148.269 42.6998 151.019C42.8298 153.779 40.6998 156.119 37.9398 156.259H37.6998C35.0498 156.259 32.8398 154.179 32.7098 151.509Z" fill="black"/>
<path d="M36.53 159.361C33.85 158.691 32.22 155.981 32.88 153.301C33.55 150.621 36.26 148.991 38.94 149.651C41.62 150.311 43.25 153.031 42.59 155.711C42.02 157.981 39.98 159.511 37.74 159.511C37.34 159.511 36.94 159.461 36.53 159.361Z" fill="black"/>
<path d="M37.5195 163.47C34.7595 163.31 32.6495 160.95 32.7995 158.2C32.9595 155.44 35.3095 153.33 38.0695 153.48C40.8295 153.64 42.9395 155.99 42.7895 158.75C42.6395 161.41 40.4295 163.47 37.7995 163.47H37.5195Z" fill="black"/>
<path d="M32.7199 166.431C32.6999 163.671 34.9199 161.411 37.6799 161.391C40.4499 161.371 42.6999 163.591 42.7199 166.351C42.7399 169.121 40.5199 171.371 37.7599 171.391H37.7199C34.9799 171.391 32.7499 169.181 32.7199 166.431Z" fill="black"/>
<path d="M32.7402 170.51C32.7402 167.75 34.9602 165.5 37.7202 165.48C40.4802 165.48 42.7302 167.7 42.7402 170.46C42.7602 173.22 40.5302 175.47 37.7702 175.48H37.7402C34.9902 175.48 32.7602 173.26 32.7402 170.51Z" fill="black"/>
<path d="M32.7402 175.029C32.7402 172.269 34.9802 170.029 37.7402 170.029C40.5102 170.029 42.7402 172.269 42.7402 175.029C42.7402 177.799 40.5102 180.029 37.7402 180.029C34.9802 180.029 32.7402 177.799 32.7402 175.029Z" fill="black"/>
<path d="M32.8004 179.06C32.5804 176.31 34.6304 173.89 37.3804 173.67C40.1304 173.45 42.5404 175.5 42.7704 178.25C42.9904 181 40.9404 183.41 38.1904 183.64C38.0504 183.64 37.9104 183.64 37.7804 183.64C35.2004 183.64 33.0104 181.66 32.8004 179.05V179.06Z" fill="black"/>
<path d="M32.7302 187.121C32.5802 184.361 34.6802 182.001 37.4402 181.841C40.1902 181.681 42.5602 183.791 42.7202 186.551C42.8702 189.311 40.7602 191.671 38.0102 191.821C37.9102 191.821 37.8102 191.821 37.7202 191.821C35.0902 191.821 32.8802 189.771 32.7302 187.111V187.121Z" fill="black"/>
<path d="M32.6897 191.929C32.6297 189.169 34.8197 186.889 37.5797 186.829C40.3397 186.769 42.6297 188.949 42.6897 191.709C42.7497 194.469 40.5597 196.759 37.7997 196.819H37.6897C34.9797 196.819 32.7497 194.649 32.6897 191.929Z" fill="black"/>
<path d="M37.2802 202.041C34.5302 201.751 32.5402 199.301 32.8202 196.551C33.1002 193.801 35.5602 191.811 38.3102 192.091C41.0502 192.371 43.0502 194.831 42.7702 197.581C42.5002 200.151 40.3302 202.071 37.8002 202.061C37.6302 202.061 37.4502 202.061 37.2802 202.041Z" fill="black"/>
<path d="M32.6901 201.281C32.6201 198.521 34.7901 196.221 37.5501 196.141C40.3101 196.061 42.6101 198.231 42.6901 200.991C42.7701 203.751 40.6001 206.051 37.8401 206.131H37.6901C34.9901 206.131 32.7701 203.991 32.6901 201.281Z" fill="black"/>
<path d="M32.7702 204.21C32.7002 201.45 34.8802 199.15 37.6402 199.08C40.4002 199 42.7002 201.18 42.7702 203.94C42.8402 206.7 40.6702 209 37.9102 209.07H37.7702C35.0702 209.07 32.8502 206.92 32.7702 204.21Z" fill="black"/>
<path d="M33.7498 214.659C31.3698 213.249 30.5898 210.179 31.9998 207.809C33.4198 205.429 36.4898 204.649 38.8598 206.059C41.2298 207.479 42.0098 210.539 40.5998 212.919C39.6698 214.489 38.0098 215.359 36.2998 215.359C35.4298 215.359 34.5498 215.139 33.7498 214.659Z" fill="black"/>
<path d="M32.7696 216.35C30.3996 214.95 29.5996 211.88 31.0096 209.51L31.4996 208.67C32.9096 206.28 35.9696 205.49 38.3496 206.9C40.7196 208.3 41.5196 211.36 40.1196 213.74L39.6196 214.58C38.6896 216.16 37.0196 217.04 35.3096 217.04C34.4396 217.04 33.5696 216.82 32.7696 216.35Z" fill="black"/>
<path d="M25.95 219.67C24.45 217.35 25.11 214.26 27.43 212.76C29.74 211.25 32.84 211.92 34.34 214.23C35.84 216.55 35.18 219.65 32.86 221.15C32.02 221.69 31.08 221.96 30.15 221.95C28.51 221.95 26.9 221.15 25.95 219.67Z" fill="black"/>
<path d="M11.8299 219.04C11.7799 216.28 13.9799 214 16.7399 213.95C19.4999 213.9 21.7799 216.1 21.8299 218.86C21.8799 221.63 19.6799 223.9 16.9199 223.95H16.8299C14.1099 223.95 11.8899 221.77 11.8299 219.04Z" fill="black"/>
<path d="M6.63992 219.63C6.30992 216.88 8.25992 214.39 10.9999 214.06C13.7399 213.73 16.2299 215.68 16.5699 218.42C16.8999 221.16 14.9499 223.65 12.2099 223.99C11.9999 224.01 11.7999 224.02 11.5999 224.02C9.09992 224.02 6.94992 222.16 6.63992 219.63Z" fill="black"/>
<path d="M2.7998 223.349C0.569801 221.729 0.0798007 218.599 1.7098 216.369C3.3298 214.139 6.4598 213.649 8.6898 215.269C10.9198 216.899 11.4098 220.029 9.7798 222.259C8.8098 223.599 7.2798 224.309 5.7398 224.309C4.7198 224.309 3.6898 223.999 2.7998 223.349Z" fill="black"/>
<path d="M4.94982 227.57C2.20982 227.21 0.289824 224.7 0.649824 221.96C1.00982 219.23 3.51982 217.3 6.24982 217.66C8.98982 218.01 10.9198 220.52 10.5598 223.27C10.2298 225.78 8.07982 227.62 5.60982 227.62C5.38982 227.62 5.16982 227.6 4.94982 227.57Z" fill="black"/>
<path d="M5.46985 231.411C2.70985 231.371 0.509853 229.091 0.549853 226.331C0.599853 223.571 2.87985 221.371 5.63985 221.421C8.39985 221.461 10.5999 223.741 10.5499 226.501C10.5099 229.231 8.27985 231.411 5.54985 231.411H5.46985Z" fill="black"/>
<path d="M5.29968 243.46C2.53968 243.42 0.329675 241.15 0.369675 238.39C0.419675 235.63 2.68968 233.42 5.44968 233.46C8.20968 233.51 10.4197 235.78 10.3697 238.54C10.3297 241.27 8.09968 243.46 5.37968 243.46H5.29968Z" fill="black"/>
<path d="M0.409712 247.259C-0.280288 244.589 1.32971 241.859 3.99971 241.169C6.67971 240.479 9.39971 242.089 10.0997 244.769C10.7797 247.439 9.17971 250.159 6.49971 250.849C6.07971 250.959 5.65971 251.009 5.24971 251.009C3.01971 251.009 0.989712 249.519 0.409712 247.259Z" fill="black"/>
<path d="M0.869951 249.01L0.639951 248.14C-0.0600488 245.47 1.53995 242.74 4.21995 242.04C6.88995 241.35 9.61995 242.94 10.32 245.62L10.54 246.48C11.24 249.15 9.63995 251.89 6.96995 252.58C6.53995 252.69 6.11995 252.74 5.69995 252.74C3.47995 252.74 1.44995 251.25 0.869951 249.01Z" fill="black"/>
<path d="M0.770053 258.101C0.760053 255.341 2.98005 253.081 5.74005 253.061C8.50005 253.051 10.7501 255.271 10.7701 258.031C10.7901 260.791 8.57005 263.041 5.81005 263.061H5.77005C3.03005 263.061 0.790053 260.851 0.770053 258.101Z" fill="black"/>
<path d="M7.6699 263.25C4.9399 262.86 3.0399 260.32 3.4399 257.59C3.8299 254.86 6.3699 252.96 9.0999 253.36C11.8299 253.75 13.7299 256.29 13.3299 259.02C12.9699 261.51 10.8399 263.3 8.3899 263.3C8.1499 263.3 7.9099 263.3 7.6699 263.25Z" fill="black"/>
<path d="M14.2296 263.801C11.4696 263.721 9.28964 261.421 9.37964 258.661C9.44964 255.901 11.7596 253.731 14.5196 253.811C17.2796 253.891 19.4496 256.191 19.3696 258.951C19.2896 261.661 17.0696 263.811 14.3696 263.811C14.3696 263.811 14.2796 263.811 14.2296 263.801Z" fill="black"/>
<path d="M12.5197 258.38C12.4997 255.62 14.7097 253.36 17.4697 253.33C20.2397 253.31 22.4997 255.52 22.5197 258.29C22.5497 261.05 20.3397 263.31 17.5697 263.33H17.5197C14.7797 263.33 12.5497 261.13 12.5197 258.38Z" fill="black"/>
<path d="M32.5597 258.229C32.5397 255.479 34.7697 253.219 37.5297 253.199C40.2897 253.199 42.5497 255.409 42.5597 258.169C42.5797 260.929 40.3597 263.189 37.5997 263.199H37.5597C34.8197 263.199 32.5797 260.979 32.5597 258.229Z" fill="black"/>
<path d="M36.6401 261.57C34.9301 259.41 35.2901 256.26 37.4601 254.55C39.6301 252.84 42.7701 253.21 44.4901 255.37C46.2001 257.54 45.8301 260.68 43.6601 262.39C42.7401 263.12 41.6501 263.47 40.5601 263.47C39.0901 263.47 37.6301 262.82 36.6401 261.57Z" fill="black"/>
<path d="M36.8095 263.629C36.0195 260.989 37.5295 258.199 40.1695 257.409C42.8195 256.619 45.5995 258.129 46.3895 260.769C47.1795 263.419 45.6795 266.209 43.0295 266.999C42.5595 267.139 42.0795 267.209 41.5995 267.209C39.4495 267.209 37.4595 265.799 36.8095 263.629Z" fill="black"/>
<path d="M37.8304 266.979C37.0304 264.339 38.5204 261.549 41.1604 260.749C43.8104 259.949 46.6004 261.439 47.4004 264.079C48.2004 266.719 46.7104 269.519 44.0604 270.319C43.5804 270.469 43.0904 270.539 42.6104 270.539C40.4704 270.539 38.4804 269.139 37.8304 266.979Z" fill="black"/>
<path d="M38.8601 269.839C37.7301 267.319 38.8601 264.359 41.3901 263.239C43.9001 262.109 46.8601 263.239 47.9901 265.769C49.1201 268.289 47.9901 271.239 45.4601 272.369C44.8001 272.669 44.1101 272.809 43.4301 272.809C41.5101 272.809 39.6901 271.699 38.8601 269.839Z" fill="black"/>
<path d="M39.9002 272.169C38.7702 269.649 39.9002 266.699 42.4302 265.569C44.9502 264.449 47.9102 265.589 49.0302 268.109C50.1502 270.639 49.0302 273.589 46.5002 274.709C45.8302 275.009 45.1502 275.149 44.4702 275.149C42.5502 275.149 40.7202 274.039 39.9002 272.169Z" fill="black"/>
<path d="M46.7995 282.781C45.0195 280.681 45.2695 277.521 47.3695 275.741C49.4795 273.941 52.6295 274.201 54.4195 276.311C56.2095 278.411 55.9595 281.561 53.8495 283.351C52.9095 284.151 51.7595 284.541 50.6195 284.541C49.1995 284.541 47.7895 283.941 46.7995 282.781Z" fill="black"/>
<path d="M65.3696 295.6C62.7696 294.66 61.4296 291.79 62.3696 289.19C63.3096 286.6 66.1796 285.25 68.7696 286.19C71.3696 287.13 72.7196 290 71.7696 292.6C71.0396 294.63 69.1196 295.89 67.0796 295.89C66.5096 295.89 65.9296 295.8 65.3696 295.6Z" fill="black"/>
<path d="M73.9601 297.929C71.2101 297.599 69.2601 295.109 69.5901 292.369C69.9201 289.629 72.4101 287.669 75.1501 287.999C77.8901 288.329 79.8501 290.819 79.5201 293.559C79.2101 296.099 77.0601 297.959 74.5601 297.959C74.3601 297.959 74.1601 297.959 73.9601 297.929Z" fill="black"/>
<path d="M76.8096 293.561C76.8096 290.801 79.0496 288.561 81.8096 288.561C84.5796 288.561 86.8096 290.801 86.8096 293.561C86.8096 296.331 84.5796 298.561 81.8096 298.561C79.0496 298.561 76.8096 296.331 76.8096 293.561Z" fill="black"/>
<path d="M96.4503 291.129C95.2003 288.669 96.2003 285.659 98.6603 284.419C101.13 283.179 104.14 284.169 105.38 286.639C106.62 289.099 105.63 292.109 103.16 293.349C102.44 293.709 101.67 293.889 100.92 293.889C99.0903 293.889 97.3303 292.879 96.4503 291.129Z" fill="black"/>
<path d="M104.75 286.81C103.06 284.63 103.46 281.49 105.64 279.8C107.83 278.11 110.97 278.51 112.66 280.69C114.35 282.88 113.95 286.02 111.76 287.71C110.85 288.41 109.78 288.75 108.71 288.75C107.21 288.75 105.74 288.09 104.75 286.81Z" fill="black"/>
<path d="M107.9 284.97C105.85 283.13 105.68 279.96 107.52 277.91C109.37 275.86 112.53 275.69 114.58 277.54C116.64 279.38 116.81 282.54 114.96 284.6C113.97 285.7 112.61 286.26 111.24 286.26C110.05 286.26 108.86 285.83 107.9 284.97Z" fill="black"/>
<path d="M110.4 282.189C108.35 280.349 108.18 277.179 110.03 275.129C111.87 273.079 115.03 272.909 117.09 274.759C119.14 276.599 119.31 279.759 117.46 281.819C116.47 282.919 115.11 283.469 113.74 283.469C112.55 283.469 111.35 283.049 110.4 282.189Z" fill="black"/>
<path d="M112.23 280.791C109.98 279.181 109.47 276.061 111.08 273.821C112.69 271.581 115.82 271.061 118.06 272.671C120.3 274.281 120.82 277.411 119.2 279.651C118.23 281.011 116.7 281.731 115.14 281.731C114.13 281.731 113.11 281.431 112.23 280.791Z" fill="black"/>
<path d="M120.73 267.241C118.05 266.581 116.41 263.871 117.07 261.191C117.73 258.511 120.43 256.871 123.12 257.531C125.8 258.191 127.44 260.901 126.78 263.581C126.22 265.861 124.18 267.391 121.93 267.391C121.53 267.391 121.13 267.341 120.73 267.241Z" fill="black"/>
<path d="M121.84 264.001C119.12 263.551 117.29 260.971 117.74 258.251C118.2 255.521 120.78 253.681 123.5 254.141C126.23 254.601 128.06 257.181 127.6 259.901C127.19 262.341 125.08 264.071 122.68 264.071C122.4 264.071 122.12 264.051 121.84 264.001Z" fill="black"/>
<path d="M119.02 257.529C119.02 254.769 121.26 252.529 124.02 252.529C126.78 252.529 129.02 254.769 129.02 257.529C129.02 260.289 126.78 262.529 124.02 262.529C121.26 262.529 119.02 260.289 119.02 257.529Z" fill="black"/>
<path d="M138.85 257.52C138.85 254.76 141.09 252.52 143.85 252.52C146.61 252.52 148.85 254.75 148.85 257.51C148.86 260.27 146.62 262.51 143.86 262.51C141.1 262.51 138.86 260.28 138.85 257.52Z" fill="black"/>
<path d="M139.43 257.919C139.18 255.169 141.2 252.739 143.95 252.479L144.51 252.429C147.26 252.179 149.69 254.209 149.94 256.959C150.19 259.709 148.17 262.139 145.42 262.389L144.87 262.439C144.71 262.459 144.56 262.459 144.4 262.459C141.85 262.459 139.67 260.509 139.43 257.919Z" fill="black"/>
<path d="M140.889 257.55C140.799 254.79 142.959 252.48 145.729 252.39L146.649 252.36C149.409 252.27 151.719 254.43 151.809 257.19C151.899 259.95 149.739 262.26 146.979 262.35L146.049 262.38H145.879C143.199 262.38 140.979 260.25 140.889 257.55Z" fill="black"/>
<path d="M154.69 257.271C154.66 254.511 156.87 252.251 159.63 252.221C162.4 252.201 164.66 254.411 164.68 257.171C164.71 259.931 162.49 262.191 159.73 262.221H159.68C156.94 262.221 154.71 260.021 154.69 257.271Z" fill="black"/>
<path d="M157.15 257.671C156.79 254.931 158.72 252.421 161.46 252.071C164.19 251.711 166.7 253.641 167.06 256.381C167.42 259.121 165.49 261.631 162.75 261.981C162.53 262.011 162.31 262.021 162.09 262.021C159.62 262.021 157.47 260.191 157.15 257.671Z" fill="black"/>
<path d="M184.58 243.571C182.12 242.321 181.14 239.311 182.39 236.851C183.63 234.391 186.64 233.401 189.11 234.651C191.57 235.901 192.55 238.911 191.3 241.381C190.42 243.111 188.66 244.121 186.84 244.121C186.08 244.121 185.31 243.941 184.58 243.571Z" fill="black"/>
<path d="M190.07 233.471C187.31 233.461 185.07 231.221 185.08 228.451C185.09 225.691 187.34 223.461 190.1 223.471C192.86 223.471 195.09 225.731 195.08 228.491C195.08 231.251 192.84 233.471 190.08 233.471H190.07Z" fill="black"/>
<path d="M190.12 203.289C187.36 203.289 185.12 201.049 185.12 198.289C185.13 195.529 187.37 193.289 190.13 193.289C192.89 193.289 195.13 195.539 195.13 198.299C195.12 201.059 192.88 203.289 190.12 203.289Z" fill="black"/>
<path d="M185.06 195.81C184.98 193.05 187.16 190.75 189.92 190.68C192.68 190.6 194.98 192.78 195.05 195.54C195.13 198.3 192.95 200.6 190.19 200.67H190.05C187.35 200.67 185.13 198.52 185.06 195.81Z" fill="black"/>
<path d="M185.08 185.651C184.93 182.891 187.03 180.531 189.79 180.371C192.55 180.221 194.91 182.321 195.06 185.081C195.22 187.841 193.12 190.201 190.36 190.351C190.26 190.351 190.16 190.351 190.07 190.351C187.43 190.351 185.23 188.301 185.08 185.641V185.651Z" fill="black"/>
<path d="M185.1 178.69C184.82 175.94 186.82 173.49 189.57 173.21C192.32 172.93 194.77 174.93 195.05 177.68C195.33 180.43 193.33 182.88 190.58 183.16C190.41 183.18 190.24 183.18 190.07 183.18C187.53 183.18 185.36 181.27 185.1 178.69Z" fill="black"/>
<path d="M185.03 174.201C184.96 171.431 187.13 169.141 189.89 169.061C192.65 168.981 194.95 171.151 195.03 173.911C195.11 176.671 192.94 178.971 190.18 179.051H190.03C187.33 179.051 185.11 176.901 185.03 174.201Z" fill="black"/>
<path d="M184.92 170.65C184.82 167.89 186.99 165.58 189.75 165.49C192.5 165.39 194.82 167.56 194.91 170.32C195 173.08 192.84 175.39 190.08 175.48H189.91C187.23 175.48 185.01 173.35 184.92 170.65Z" fill="black"/>
<path d="M189.89 171.671C187.13 171.621 184.93 169.351 184.98 166.581C185.03 163.821 187.32 161.621 190.08 161.671C192.84 161.731 195.03 164.011 194.98 166.771C194.93 169.501 192.71 171.671 189.99 171.671H189.89Z" fill="black"/>
<path d="M189.98 168.289C187.21 168.289 184.99 166.019 185 163.259C185.02 160.499 187.27 158.279 190.03 158.289C192.79 158.309 195.02 160.559 195 163.319C194.99 166.079 192.75 168.299 190 168.299H189.98V168.289Z" fill="black"/>
<path d="M189.29 163.56C186.56 163.14 184.69 160.59 185.11 157.86C185.53 155.13 188.09 153.26 190.82 153.68C193.55 154.1 195.42 156.66 194.99 159.39C194.61 161.86 192.49 163.62 190.06 163.62C189.81 163.62 189.55 163.6 189.29 163.56Z" fill="black"/>
<path d="M189.99 159.911C187.23 159.871 185.02 157.601 185.06 154.841C185.11 152.071 187.38 149.871 190.14 149.911C192.9 149.961 195.11 152.231 195.06 154.991C195.02 157.721 192.79 159.921 190.06 159.911H189.99Z" fill="black"/>
<path d="M185.02 152.53C184.72 149.78 186.71 147.31 189.45 147.02C192.2 146.72 194.67 148.7 194.97 151.44C195.26 154.19 193.28 156.66 190.53 156.95C190.35 156.97 190.17 156.98 189.99 156.98C187.47 156.98 185.3 155.09 185.02 152.53Z" fill="black"/>
<path d="M185.07 146.239C184.95 143.479 187.1 141.149 189.86 141.039C192.62 140.929 194.95 143.069 195.06 145.829C195.17 148.589 193.03 150.919 190.26 151.029H190.06C187.39 151.029 185.18 148.929 185.07 146.239Z" fill="black"/>
<path d="M184.97 143.719C184.86 140.969 187 138.639 189.76 138.529C192.52 138.419 194.85 140.559 194.96 143.319C195.07 146.079 192.92 148.409 190.16 148.519H189.95C187.29 148.519 185.08 146.409 184.97 143.719Z" fill="black"/>
<path d="M184.93 119.35C184.93 116.59 187.16 114.34 189.93 114.34C192.69 114.34 194.93 116.57 194.93 119.33C194.94 122.09 192.7 124.34 189.94 124.34C187.18 124.34 184.94 122.11 184.93 119.35Z" fill="black"/>
<path d="M189.92 88.4004C187.16 88.4004 184.93 86.1504 184.93 83.3904C184.94 80.6304 187.19 78.4004 189.95 78.4004C192.71 78.4004 194.94 80.6604 194.93 83.4204C194.93 86.1704 192.69 88.4004 189.93 88.4004H189.92Z" fill="black"/>
<path d="M189.5 87.9307C186.75 87.6807 184.73 85.2507 184.97 82.5007C185.01 82.2007 185.02 81.9907 185.12 81.4907C185.68 78.7907 188.32 77.0507 191.03 77.6107C193.68 78.1607 195.4 80.7107 194.94 83.3707C194.94 83.3707 194.94 83.3907 194.93 83.4107C194.7 86.0007 192.52 87.9507 189.96 87.9507C189.81 87.9507 189.66 87.9507 189.5 87.9307Z" fill="black"/>
<path d="M188.46 86.7196C186.04 85.3896 185.15 82.3596 186.48 79.9296C187.8 77.5096 190.84 76.6196 193.26 77.9496C195.69 79.2696 196.57 82.3096 195.25 84.7296C194.34 86.3896 192.63 87.3296 190.86 87.3296C190.05 87.3296 189.23 87.1396 188.46 86.7196Z" fill="black"/>
<path d="M191.15 88.1296C188.71 86.8496 187.76 83.8296 189.05 81.3796C190.33 78.9296 193.35 77.9896 195.8 79.2796C198.24 80.5596 199.18 83.5796 197.9 86.0296C197.01 87.7296 195.27 88.6996 193.47 88.6996C192.69 88.6996 191.89 88.5196 191.15 88.1296Z" fill="black"/>
<path d="M207.69 88.0901C207.65 85.3301 209.86 83.0601 212.62 83.0201C215.38 82.9801 217.66 85.1901 217.69 87.9501C217.73 90.7101 215.52 92.9901 212.76 93.0201H212.69C209.96 93.0201 207.73 90.8301 207.69 88.0901Z" fill="black"/>
<path d="M209.21 88.6193C208.88 85.8693 210.85 83.3893 213.59 83.0693C216.33 82.7393 218.82 84.7093 219.14 87.4493C219.46 90.1893 217.5 92.6793 214.76 92.9993C214.56 93.0193 214.36 93.0293 214.17 93.0293C211.67 93.0293 209.51 91.1593 209.21 88.6193Z" fill="black"/>
<path d="M212.09 88.29C211.76 85.55 213.71 83.05 216.45 82.72C219.19 82.39 221.68 84.34 222.02 87.08C222.35 89.82 220.4 92.31 217.66 92.65C217.45 92.67 217.25 92.68 217.05 92.68C214.56 92.68 212.4 90.82 212.09 88.29Z" fill="black"/>
<path d="M220.3 87.1095C219.59 84.4395 221.18 81.6995 223.85 80.9895C226.51 80.2795 229.25 81.8695 229.97 84.5395C230.68 87.1995 229.09 89.9395 226.42 90.6495C225.99 90.7695 225.56 90.8195 225.13 90.8195C222.92 90.8195 220.9 89.3495 220.3 87.1095Z" fill="black"/>
<path d="M223.07 90.1495C221.06 88.8495 220.21 86.2595 221.18 83.9795C222.26 81.4395 225.2 80.2595 227.74 81.3495C228.16 81.5295 228.56 81.7295 229.04 82.0795C229.51 82.4595 230.14 82.8295 230.86 84.2795C232 86.7995 230.86 89.7595 228.35 90.8895C227.69 91.1895 226.99 91.3295 226.31 91.3295C225.12 91.3295 223.97 90.9095 223.07 90.1495Z" fill="black"/>
<path d="M221.21 87.6003C221.23 86.6203 221.36 86.2803 221.36 86.1503C221.81 83.4303 224.39 81.5803 227.11 82.0303C229.84 82.4903 231.68 85.0603 231.23 87.7803C231.22 87.8603 231.21 87.9303 231.2 87.9703C231.01 90.5603 228.85 92.6003 226.21 92.6003C223.45 92.6003 221.21 90.3703 221.21 87.6003Z" fill="black"/>
<path d="M226.1 100.129C223.33 100.109 221.12 97.849 221.14 95.089C221.17 92.329 223.43 90.109 226.19 90.129C228.95 90.159 231.17 92.419 231.14 95.179C231.12 97.929 228.89 100.129 226.15 100.129H226.1Z" fill="black"/>
<path d="M227.17 109.001C225.1 107.171 224.91 104.011 226.74 101.941C228.57 99.8706 231.73 99.6806 233.8 101.511C235.87 103.341 236.06 106.501 234.23 108.571C233.24 109.681 231.86 110.251 230.48 110.251C229.3 110.251 228.12 109.841 227.17 109.001Z" fill="black"/>
<path d="M239.06 113.619C236.29 113.599 234.07 111.349 234.09 108.589C234.11 105.819 236.37 103.599 239.13 103.619C241.89 103.649 244.11 105.899 244.09 108.659C244.07 111.409 241.84 113.619 239.09 113.619H239.06Z" fill="black"/>
<path d="M242.93 113.651C240.16 113.631 237.94 111.381 237.96 108.621C237.98 105.861 240.24 103.631 243 103.651C245.76 103.681 247.98 105.931 247.96 108.691C247.94 111.441 245.71 113.651 242.96 113.651H242.93Z" fill="black"/>
<path d="M247.98 113.65C245.22 113.54 243.08 111.21 243.19 108.45C243.3 105.7 245.62 103.55 248.38 103.66C251.14 103.77 253.29 106.09 253.18 108.85C253.07 111.54 250.85 113.66 248.19 113.66C248.12 113.66 248.05 113.66 247.98 113.66V113.65Z" fill="black"/>
<path d="M257.029 113.679C254.269 113.529 252.149 111.179 252.299 108.419C252.449 105.659 254.799 103.539 257.559 103.689C260.319 103.839 262.429 106.189 262.289 108.949C262.149 111.619 259.939 113.679 257.299 113.679H257.029Z" fill="black"/>
<path d="M255.21 108.67C255.21 105.91 257.45 103.68 260.21 103.68C262.98 103.68 265.21 105.91 265.21 108.67C265.21 111.43 262.98 113.67 260.21 113.67C257.45 113.67 255.21 111.43 255.21 108.67Z" fill="black"/>
<path d="M271.64 108.66C271.64 105.9 273.88 103.66 276.64 103.65C279.4 103.65 281.64 105.89 281.65 108.65C281.65 111.41 279.41 113.65 276.65 113.65C273.89 113.65 271.65 111.42 271.64 108.66Z" fill="black"/>
<path d="M286.1 113.66C283.34 113.66 281.1 111.42 281.1 108.66C281.11 105.9 283.35 103.66 286.11 103.66C288.87 103.66 291.11 105.91 291.1 108.67C291.1 111.43 288.86 113.66 286.1 113.66Z" fill="black"/>
<path d="M288.7 113.68C285.93 113.66 283.71 111.41 283.74 108.65C283.75 105.89 286.01 103.66 288.77 103.68C291.53 103.71 293.76 105.96 293.73 108.72C293.71 111.47 291.48 113.68 288.74 113.68H288.7Z" fill="black"/>
<path d="M286.21 108.74C286.21 105.98 288.44 103.74 291.2 103.74C293.96 103.74 296.2 105.98 296.2 108.74C296.2 111.51 293.96 113.74 291.2 113.74C288.44 113.74 286.21 111.51 286.21 108.74Z" fill="black"/>
<path d="M292.11 113.74C289.35 113.74 287.11 111.51 287.11 108.74C287.11 105.98 289.35 103.74 292.11 103.74H293.02C295.79 103.74 298.02 105.98 298.02 108.74C298.02 111.51 295.79 113.74 293.02 113.74C289.35 113.74 293.02 113.74 292.11 113.74Z" fill="black"/>
<path d="M291.69 109.09C291.47 106.34 293.52 103.93 296.27 103.71C299.03 103.49 301.44 105.54 301.66 108.3C301.88 111.05 299.83 113.46 297.07 113.68C296.94 113.68 296.8 113.68 296.67 113.68C294.09 113.68 291.9 111.7 291.69 109.08V109.09Z" fill="black"/>
<path d="M301.8 113.66C299.04 113.48 296.96 111.09 297.14 108.34C297.33 105.59 299.71 103.5 302.47 103.69C305.22 103.87 307.31 106.25 307.12 109.01C306.94 111.65 304.75 113.68 302.13 113.68C302.02 113.68 301.91 113.67 301.8 113.66Z" fill="black"/>
<path d="M300.009 109.75C299.439 107.05 301.159 104.39 303.849 103.81C306.559 103.23 309.209 104.95 309.789 107.65C310.369 110.36 308.649 113.01 305.949 113.59C305.599 113.67 305.239 113.7 304.899 113.7C302.589 113.7 300.519 112.1 300.009 109.75Z" fill="black"/>
<path d="M303.61 108.98C303.48 106.22 305.61 103.88 308.37 103.75C311.12 103.62 313.47 105.75 313.6 108.51C313.73 111.26 311.6 113.61 308.84 113.74H308.6C305.95 113.74 303.74 111.66 303.61 108.98Z" fill="black"/>
<path d="M311.52 113.681C308.79 113.251 306.93 110.691 307.37 107.961C307.8 105.231 310.36 103.371 313.09 103.811C315.82 104.241 317.68 106.801 317.24 109.531C316.85 111.991 314.72 113.751 312.31 113.751C312.05 113.751 311.78 113.721 311.52 113.681Z" fill="black"/>
<path d="M309.88 109.55C309.43 106.83 311.28 104.26 314 103.81C316.73 103.36 319.3 105.21 319.75 107.94C320.19 110.66 318.35 113.23 315.62 113.68C315.35 113.72 315.07 113.74 314.8 113.74C312.4 113.74 310.28 112 309.88 109.55Z" fill="black"/>
<path d="M317.32 113.76C314.56 113.64 312.42 111.31 312.54 108.55C312.66 105.79 314.99 103.65 317.75 103.77C320.51 103.89 322.65 106.22 322.53 108.98C322.41 111.66 320.2 113.76 317.54 113.76H317.32Z" fill="black"/>
<path d="M321.52 109.019C321.36 106.269 323.46 103.899 326.22 103.729C328.97 103.569 331.34 105.669 331.51 108.429C331.67 111.179 329.57 113.549 326.81 113.719H326.51C323.88 113.719 321.68 111.679 321.52 109.019Z" fill="black"/>
<path d="M333.53 113.669C330.78 113.519 328.66 111.159 328.81 108.409C328.96 105.649 331.32 103.529 334.07 103.679C336.83 103.829 338.94 106.179 338.8 108.939C338.65 111.609 336.45 113.679 333.81 113.679C333.72 113.679 333.63 113.669 333.53 113.669Z" fill="black"/>
<path d="M335.86 113.79C333.1 113.64 330.98 111.29 331.12 108.54C331.26 105.78 333.61 103.66 336.37 103.8C339.13 103.94 341.25 106.29 341.11 109.05C340.97 111.72 338.76 113.79 336.12 113.79H335.86Z" fill="black"/>
<path d="M334.439 111.731C332.579 109.691 332.719 106.531 334.759 104.671C336.799 102.811 339.959 102.951 341.829 104.991C343.689 107.031 343.539 110.191 341.509 112.061C340.549 112.931 339.339 113.361 338.139 113.361C336.779 113.361 335.429 112.811 334.439 111.731Z" fill="black"/>
<path d="M333.14 107.649V106.939C333.14 104.179 335.37 101.939 338.13 101.939C340.89 101.939 343.13 104.179 343.13 106.939V107.649C343.13 110.409 340.89 112.649 338.13 112.649C335.37 112.649 333.14 110.409 333.14 107.649Z" fill="black"/>
<path d="M333.6 109.03C332.45 106.51 333.54 103.54 336.05 102.38C338.56 101.23 341.53 102.32 342.68 104.83C343.84 107.35 342.74 110.32 340.24 111.48C339.56 111.79 338.85 111.94 338.14 111.94C336.25 111.94 334.44 110.86 333.6 109.03Z" fill="black"/>
<path d="M333.13 93.9705C333.13 91.2105 335.37 88.9805 338.14 88.9805C340.89 88.9805 343.13 91.2105 343.13 93.9705C343.13 96.7405 340.89 98.9705 338.14 98.9705C335.37 98.9705 333.13 96.7405 333.13 93.9705Z" fill="black"/>
<path d="M334.34 97.2102C332.54 95.1102 332.78 91.9502 334.88 90.1602C336.98 88.3602 340.13 88.6002 341.93 90.7002C343.73 92.8102 343.49 95.9602 341.39 97.7602C340.45 98.5602 339.29 98.9602 338.14 98.9602C336.73 98.9602 335.33 98.3702 334.34 97.2102Z" fill="black"/>
<path d="M333.13 90.6094C333.13 87.8494 335.37 85.6094 338.14 85.6094C340.9 85.6094 343.13 87.8494 343.13 90.6094C343.13 93.3794 340.9 95.6094 338.14 95.6094C335.37 95.6094 333.13 93.3794 333.13 90.6094Z" fill="black"/>
<path d="M335.65 94.9094C333.57 94.3094 332.05 92.3894 332.05 90.1094C332.05 87.3494 334.29 85.1094 337.05 85.1094C338.27 85.1494 338.7 85.3794 339.09 85.5094C339.46 85.6494 339.7 85.7694 339.9 85.8694C342.36 87.1294 343.32 90.1494 342.06 92.5994C341.17 94.3194 339.42 95.3194 337.61 95.3194C336.95 95.3194 336.29 95.1894 335.65 94.9094Z" fill="black"/>
<path d="M306.13 90.1604C306.13 87.4004 308.37 85.1604 311.13 85.1504C313.89 85.1504 316.13 87.3804 316.13 90.1404C316.13 92.9104 313.9 95.1504 311.14 95.1504C308.38 95.1504 306.14 92.9204 306.13 90.1604Z" fill="black"/>
<path d="M308.81 95.2293C306.06 94.9893 304.03 92.5593 304.27 89.8093C304.52 87.0593 306.94 85.0293 309.7 85.2693C312.45 85.5193 314.48 87.9493 314.23 90.6993C314 93.2993 311.82 95.2493 309.26 95.2493C309.12 95.2493 308.96 95.2493 308.81 95.2293Z" fill="black"/>
<path d="M300.19 94.9199C297.49 94.3299 295.78 91.6599 296.38 88.9599C296.98 86.2699 299.65 84.5699 302.34 85.1599C305.04 85.7599 306.74 88.4299 306.15 91.1199C305.63 93.4499 303.56 95.0399 301.27 95.0399C300.91 95.0399 300.55 95.0099 300.19 94.9199Z" fill="black"/>
<path d="M290.75 88.3595C289.24 86.0495 289.89 82.9495 292.2 81.4395C294.51 79.9295 297.61 80.5795 299.12 82.8895C300.63 85.1995 299.98 88.2995 297.67 89.8095C296.82 90.3595 295.88 90.6295 294.94 90.6295C293.31 90.6295 291.71 89.8295 290.75 88.3595Z" fill="black"/>
<path d="M293.3 84.5493C290.54 84.4693 288.37 82.1593 288.46 79.3993C288.54 76.6393 290.84 74.4693 293.61 74.5593C296.36 74.6393 298.53 76.9493 298.45 79.7093C298.37 82.4093 296.15 84.5593 293.46 84.5593C293.41 84.5593 293.36 84.5493 293.3 84.5493Z" fill="black"/>
<path d="M293.48 78.6498C290.72 78.5798 288.53 76.2898 288.6 73.5298C288.67 70.7698 290.97 68.5898 293.73 68.6598C296.49 68.7298 298.67 71.0198 298.6 73.7798C298.53 76.4998 296.31 78.6498 293.61 78.6498H293.48Z" fill="black"/>
<path d="M138.9 51.8391C136.95 49.8891 136.95 46.7191 138.9 44.7691C140.86 42.8191 144.02 42.8191 145.98 44.7691C147.93 46.7191 147.93 49.8891 145.98 51.8391C145 52.8191 143.72 53.3091 142.44 53.3091C141.16 53.3091 139.88 52.8191 138.9 51.8391Z" fill="black"/>
<path d="M138.9 111.001C136.95 109.041 136.95 105.881 138.9 103.931C140.86 101.971 144.02 101.971 145.98 103.931C147.93 105.881 147.93 109.041 145.98 111.001C145 111.971 143.72 112.461 142.44 112.461C141.16 112.461 139.88 111.971 138.9 111.001Z" fill="black"/>
<path d="M79.7398 111.001C77.7898 109.051 77.7898 105.881 79.7398 103.931C81.6998 101.971 84.8598 101.971 86.8198 103.931C88.7698 105.881 88.7698 109.051 86.8198 111.001C85.8398 111.981 84.5598 112.471 83.2798 112.471C81.9998 112.471 80.7198 111.981 79.7398 111.001Z" fill="black"/>
<path d="M79.7398 51.8408C77.7898 49.8908 77.7898 46.7208 79.7398 44.7708C81.6998 42.8108 84.8598 42.8108 86.8098 44.7708C88.7698 46.7208 88.7698 49.8908 86.8098 51.8408C85.8398 52.8208 84.5598 53.3108 83.2798 53.3108C81.9998 53.3108 80.7198 52.8208 79.7398 51.8408Z" fill="black"/>
<path d="M147.53 209.641C145.09 208.361 144.14 205.341 145.43 202.901C146.7 200.451 149.73 199.501 152.17 200.781C154.62 202.071 155.56 205.091 154.28 207.531C153.39 209.241 151.65 210.211 149.85 210.211C149.07 210.211 148.27 210.031 147.53 209.641Z" fill="black"/>
<path d="M143.37 214.611C141.15 212.981 140.67 209.851 142.3 207.621C143.94 205.401 147.07 204.921 149.29 206.551C151.52 208.191 152 211.321 150.36 213.541C149.38 214.881 147.87 215.581 146.33 215.581C145.3 215.581 144.27 215.271 143.37 214.611Z" fill="black"/>
<path d="M134.69 221.58C132.93 219.45 133.23 216.3 135.35 214.53C137.48 212.77 140.63 213.07 142.39 215.19C144.16 217.32 143.86 220.47 141.74 222.23C140.8 223.01 139.67 223.38 138.55 223.38C137.11 223.38 135.68 222.77 134.69 221.58Z" fill="black"/>
<path d="M125.04 225.92C123.84 223.43 124.89 220.44 127.38 219.25C129.87 218.05 132.85 219.1 134.05 221.59C135.25 224.08 134.2 227.07 131.71 228.26C131.01 228.6 130.27 228.76 129.55 228.76C127.69 228.76 125.9 227.71 125.04 225.92Z" fill="black"/>
<path d="M117 227.1C116.53 224.38 118.35 221.79 121.08 221.33C123.8 220.86 126.38 222.68 126.85 225.41C127.32 228.13 125.49 230.71 122.77 231.18C122.48 231.23 122.2 231.26 121.92 231.26C119.53 231.26 117.41 229.54 117 227.1Z" fill="black"/>
<path d="M112.89 227.839C112.41 225.119 114.23 222.529 116.95 222.049C119.67 221.569 122.26 223.389 122.74 226.109C123.22 228.829 121.4 231.419 118.68 231.899C118.38 231.949 118.1 231.979 117.81 231.979C115.43 231.979 113.32 230.269 112.89 227.839Z" fill="black"/>
<path d="M110.22 228.861C108.45 226.751 108.73 223.591 110.84 221.821C112.96 220.051 116.11 220.331 117.89 222.441C119.66 224.561 119.38 227.711 117.26 229.491C116.33 230.271 115.19 230.651 114.06 230.651C112.63 230.651 111.21 230.041 110.22 228.861Z" fill="black"/>
<path d="M108.55 226.88C106.78 224.76 107.05 221.61 109.17 219.83C111.28 218.06 114.44 218.33 116.21 220.45C117.99 222.56 117.71 225.72 115.6 227.49C114.66 228.28 113.52 228.66 112.39 228.66C110.96 228.66 109.54 228.06 108.55 226.88Z" fill="black"/>
<path d="M107.19 225.511C105.08 223.731 104.81 220.581 106.59 218.461C108.36 216.351 111.52 216.081 113.63 217.861C115.75 219.631 116.02 222.791 114.24 224.901C113.25 226.081 111.84 226.681 110.41 226.681C109.27 226.681 108.13 226.301 107.19 225.511Z" fill="black"/>
<path d="M105.11 223.77C103 222 102.72 218.84 104.49 216.72C106.26 214.61 109.42 214.33 111.53 216.1C113.65 217.87 113.93 221.03 112.16 223.14C111.17 224.33 109.75 224.93 108.32 224.93C107.19 224.93 106.05 224.55 105.11 223.77Z" fill="black"/>
<path d="M103.56 222.489C101.42 220.739 101.11 217.589 102.85 215.449C104.61 213.319 107.76 212.999 109.89 214.759C112.03 216.509 112.34 219.649 110.59 221.789C109.6 222.999 108.17 223.619 106.72 223.619C105.61 223.619 104.48 223.249 103.56 222.489Z" fill="black"/>
<path d="M94.5 217.69C91.88 216.81 90.47 213.98 91.34 211.36C92.22 208.74 95.05 207.33 97.67 208.2C100.29 209.08 101.7 211.91 100.83 214.53C100.13 216.62 98.17 217.95 96.08 217.95C95.56 217.95 95.02 217.86 94.5 217.69Z" fill="black"/>
<path d="M76.7902 210.681C76.7102 207.921 78.8902 205.621 81.6502 205.541C84.4102 205.471 86.7102 207.651 86.7802 210.411C86.8602 213.171 84.6802 215.471 81.9202 215.541H81.7802C79.0802 215.541 76.8602 213.391 76.7902 210.681Z" fill="black"/>
<path d="M72.4 208.6C70.96 206.25 71.7 203.17 74.06 201.73C76.42 200.3 79.49 201.04 80.93 203.4C82.37 205.76 81.62 208.84 79.27 210.27C78.45 210.77 77.56 211.01 76.67 211.01C74.98 211.01 73.34 210.15 72.4 208.6Z" fill="black"/>
<path d="M70.8897 187.839C68.1297 187.599 66.0897 185.179 66.3297 182.429C66.5697 179.679 68.9897 177.639 71.7397 177.869C74.4897 178.109 76.5297 180.529 76.2897 183.279C76.0697 185.889 73.8897 187.849 71.3197 187.849C71.1797 187.849 71.0297 187.849 70.8897 187.839Z" fill="black"/>
<path d="M71.2596 178.591C68.6496 177.711 67.2396 174.881 68.1096 172.261C68.9896 169.641 71.8196 168.231 74.4396 169.101C77.0596 169.981 78.4696 172.811 77.5896 175.431C76.8896 177.521 74.9496 178.851 72.8496 178.851C72.3296 178.851 71.7896 178.761 71.2596 178.591Z" fill="black"/>
<path d="M72.1798 175.871C69.5598 175.011 68.1398 172.181 69.0098 169.551C69.8698 166.931 72.6998 165.511 75.3198 166.381C77.9498 167.241 79.3698 170.071 78.4998 172.691C77.8098 174.791 75.8498 176.131 73.7598 176.131C73.2398 176.131 72.6998 176.041 72.1798 175.871Z" fill="black"/>
<path d="M78.4902 161.511C76.4102 159.691 76.2002 156.531 78.0302 154.461C79.8502 152.381 83.0102 152.181 85.0802 154.001C87.1602 155.821 87.3602 158.981 85.5402 161.051C84.5502 162.181 83.1702 162.761 81.7802 162.761C80.6102 162.761 79.4302 162.351 78.4902 161.511Z" fill="black"/>
<path d="M99.6303 145.549C99.1003 142.839 100.86 140.209 103.57 139.679C106.28 139.139 108.91 140.909 109.44 143.619C109.97 146.329 108.21 148.959 105.5 149.489C105.17 149.559 104.85 149.589 104.53 149.589C102.19 149.589 100.1 147.929 99.6303 145.549Z" fill="black"/>
<path d="M104 144.679C103.48 141.979 105.25 139.349 107.96 138.819C110.67 138.299 113.29 140.069 113.82 142.779C114.35 145.489 112.58 148.109 109.87 148.639C109.54 148.699 109.22 148.729 108.91 148.729C106.56 148.729 104.47 147.069 104 144.679Z" fill="black"/>
<path d="M116.75 148.691C113.99 148.531 111.88 146.181 112.03 143.421C112.18 140.671 114.54 138.551 117.3 138.701C120.05 138.851 122.17 141.211 122.01 143.971C121.87 146.631 119.66 148.691 117.03 148.691H116.75Z" fill="black"/>
<path d="M121.51 149.51C118.78 149.08 116.92 146.52 117.36 143.79C117.79 141.06 120.35 139.2 123.08 139.63C125.81 140.07 127.66 142.63 127.23 145.36C126.84 147.82 124.72 149.57 122.3 149.57C122.04 149.57 121.78 149.55 121.51 149.51Z" fill="black"/>
<path d="M125.84 150.85C123.26 149.87 121.96 146.99 122.94 144.41C123.91 141.82 126.8 140.52 129.38 141.5C131.96 142.47 133.27 145.36 132.29 147.94C131.54 149.94 129.63 151.18 127.61 151.18C127.03 151.18 126.43 151.07 125.84 150.85Z" fill="black"/>
<path d="M135.18 155.86C133.05 154.1 132.75 150.95 134.51 148.82C136.27 146.69 139.42 146.39 141.55 148.15C143.67 149.91 143.97 153.06 142.22 155.19C141.23 156.39 139.8 157 138.36 157C137.24 157 136.11 156.63 135.18 155.86Z" fill="black"/>
<path d="M139.28 159.299C137.37 157.299 137.44 154.139 139.44 152.229C141.43 150.319 144.6 150.389 146.51 152.389C148.42 154.379 148.35 157.549 146.35 159.459C145.38 160.379 144.14 160.839 142.9 160.839C141.58 160.839 140.27 160.329 139.28 159.299Z" fill="black"/>
<path d="M145.31 167.26C143.99 164.83 144.9 161.8 147.33 160.48C149.76 159.17 152.79 160.08 154.1 162.51C155.42 164.94 154.51 167.97 152.08 169.28C151.32 169.69 150.51 169.89 149.71 169.89C147.93 169.89 146.21 168.93 145.31 167.26Z" fill="black"/>
<path d="M149.51 180.09C149.23 177.34 151.22 174.88 153.97 174.6C156.72 174.32 159.17 176.31 159.46 179.06C159.74 181.81 157.74 184.27 155 184.55C154.82 184.57 154.65 184.57 154.48 184.57C151.95 184.57 149.77 182.66 149.51 180.09Z" fill="black"/>
<path d="M154.36 193.34C151.61 193.09 149.59 190.66 149.83 187.92C150.08 185.16 152.51 183.13 155.26 183.38C158.01 183.63 160.04 186.06 159.79 188.81C159.56 191.41 157.38 193.36 154.82 193.36C154.67 193.36 154.52 193.36 154.36 193.34Z" fill="black"/>
<path d="M241.82 78.8301C241.82 76.0701 244.06 73.8301 246.82 73.8301C249.59 73.8301 251.82 76.0701 251.82 78.8301C251.82 81.6001 249.59 83.8301 246.82 83.8301C244.06 83.8301 241.82 81.6001 241.82 78.8301Z" fill="black"/>
<path d="M254.82 65.8496C254.82 63.0796 257.06 60.8496 259.82 60.8496C262.58 60.8496 264.82 63.0796 264.82 65.8496C264.82 68.5996 262.58 70.8496 259.82 70.8496C257.06 70.8496 254.82 68.5996 254.82 65.8496Z" fill="black"/>
<path d="M267.82 78.8301C267.82 76.0701 270.05 73.8301 272.81 73.8301C275.57 73.8301 277.81 76.0701 277.81 78.8301C277.81 81.6001 275.57 83.8301 272.81 83.8301C270.05 83.8301 267.82 81.6001 267.82 78.8301Z" fill="black"/>
<path d="M254.82 91.8301C254.82 89.0701 257.06 86.8301 259.82 86.8301C262.59 86.8301 264.82 89.0701 264.82 91.8301C264.82 94.6001 262.59 96.8301 259.82 96.8301C257.06 96.8301 254.82 94.6001 254.82 91.8301Z" fill="black"/>
<path d="M299.29 22.3691C299.29 19.6091 301.53 17.3691 304.29 17.3691C307.06 17.3691 309.29 19.6091 309.29 22.3691C309.29 25.1391 307.06 27.3691 304.29 27.3691C301.53 27.3691 299.29 25.1391 299.29 22.3691Z" fill="black"/>
<path d="M312.24 35.3203C312.24 32.5603 314.48 30.3203 317.24 30.3203C320 30.3203 322.24 32.5603 322.24 35.3203C322.24 38.0803 320 40.3203 317.24 40.3203C314.48 40.3203 312.24 38.0803 312.24 35.3203Z" fill="black"/>
<path d="M299.3 48.2598C299.3 45.4998 301.53 43.2598 304.29 43.2598C307.06 43.2598 309.29 45.4998 309.29 48.2598C309.29 51.0298 307.06 53.2598 304.29 53.2598C301.53 53.2598 299.3 51.0298 299.3 48.2598Z" fill="black"/>
<path d="M286.35 35.3203C286.35 32.5603 288.59 30.3203 291.35 30.3203C294.11 30.3203 296.35 32.5603 296.35 35.3203C296.35 38.0803 294.11 40.3203 291.35 40.3203C288.59 40.3203 286.35 38.0803 286.35 35.3203Z" fill="black"/>
</g>
</g>
<defs>
<clipPath id="clip0_2561_14500">
<rect width="343.14" height="298.56" fill="white"/>
</clipPath>
</defs>
</svg>
