<svg width="236" height="191" viewBox="0 0 236 191" fill="none" xmlns="http://www.w3.org/2000/svg">
<g clip-path="url(#clip0_2561_9922)">
<path d="M91.9195 111.511L88.5195 94.3405L85.0195 77.2305L75.1695 62.5705L58.4895 57.8605L42.0395 62.8505L33.4695 77.9205L26.9295 94.0705L26.1095 111.521L26.0795 129.141L32.2195 145.681L41.5095 160.801L58.4895 164.591L74.1695 159.251L84.3195 145.471L90.7795 129.091L91.9195 111.491V111.511ZM59.5295 184.081L58.4895 185.781L57.4395 184.211L41.3595 180.761L26.5395 173.301L16.9495 159.671L8.86953 144.901L6.99953 128.151L5.01953 111.521L7.84953 95.0105L10.1595 78.5405L17.6795 63.7905L26.2195 49.3605L40.8495 40.8405L57.4395 38.0605L58.5095 39.5605L59.5595 38.8005L75.8895 41.6105L89.2795 51.0605L99.5195 63.6805L107.13 78.4505L110.01 94.9005L110.24 111.531L111.81 128.391L106.11 144.301L100.82 160.121L89.8195 172.601L75.8195 181.271L59.5495 184.101L59.5295 184.081Z" fill="#90BEFB"/>
<path d="M177.07 42.88L194.87 44.16L212.54 41.09L229.74 43.04L230.12 61.61L212.54 61.6L194.87 61.06L176.98 61.46L177.64 78.65L178.02 95.61L178.67 112.56L176.26 129.52L178.58 146.48L177.26 163.45L177.82 181.19L155.15 181.48L157.51 163.45L156.64 146.49L155.89 129.54L157.2 112.58L154.7 95.62L156.77 78.65L156.07 61.63L140.1 62.01L123.94 61.9L124.26 42.66L140.1 43.22L155.93 42.42L160.89 26.3L171.08 13.25L187.34 7.16L204.76 5L229.88 7L229.45 24.65L204.76 26.95L185.9 26.99L177.07 42.88Z" fill="#90BEFB"/>
<mask id="mask0_2561_9922" style="mask-type:luminance" maskUnits="userSpaceOnUse" x="0" y="0" width="236" height="191">
<path d="M235.12 0H0V190.78H235.12V0Z" fill="white"/>
</mask>
<g mask="url(#mask0_2561_9922)">
<path d="M55.8606 190.029C53.5106 188.589 52.7806 185.509 54.2206 183.159C55.6706 180.809 58.7506 180.069 61.1006 181.509C63.4506 182.959 64.1906 186.039 62.7406 188.389C61.8006 189.929 60.1606 190.779 58.4806 190.779C57.5806 190.779 56.6806 190.539 55.8606 190.029Z" fill="black"/>
<path d="M53.8007 187.758L53.2707 186.968C51.7407 184.678 52.3607 181.568 54.6607 180.038C56.9607 178.508 60.0707 179.128 61.6007 181.428L62.1207 182.218C63.6507 184.518 63.0307 187.618 60.7307 189.148C59.8807 189.718 58.9207 189.988 57.9607 189.988C56.3507 189.988 54.7607 189.208 53.8007 187.758Z" fill="black"/>
<path d="M40.3002 185.639C37.6002 185.059 35.8802 182.399 36.4602 179.699C37.0402 176.999 39.7002 175.279 42.4002 175.859C45.1002 176.439 46.8202 179.099 46.2402 181.799C45.7402 184.139 43.6602 185.749 41.3602 185.749C41.0102 185.749 40.6602 185.709 40.3002 185.639Z" fill="black"/>
<path d="M24.2906 177.75C21.8206 176.51 20.8306 173.51 22.0706 171.04C23.3106 168.57 26.3106 167.58 28.7806 168.82C31.2506 170.07 32.2406 173.07 31.0006 175.54C30.1206 177.28 28.3606 178.29 26.5306 178.29C25.7806 178.29 25.0106 178.12 24.2906 177.75Z" fill="black"/>
<path d="M12.8502 162.539C11.2602 160.279 11.8002 157.159 14.0602 155.569C16.3202 153.979 19.4402 154.519 21.0302 156.779C22.6202 159.039 22.0702 162.159 19.8202 163.749C18.9402 164.359 17.9402 164.659 16.9402 164.659C15.3702 164.659 13.8202 163.919 12.8502 162.539Z" fill="black"/>
<path d="M4.47012 147.29C3.14012 144.87 4.03012 141.83 6.45012 140.5C8.88012 139.18 11.9201 140.06 13.2401 142.49C14.5701 144.91 13.6801 147.95 11.2601 149.27C10.4901 149.69 9.67012 149.89 8.86012 149.89C7.09012 149.89 5.38012 148.95 4.47012 147.29Z" fill="black"/>
<path d="M0.0302856 112.08C-0.279714 109.34 1.68029 106.86 4.43029 106.54C7.17029 106.23 9.65029 108.19 9.97029 110.94C10.2803 113.68 8.32029 116.16 5.57029 116.48C5.38029 116.5 5.18029 116.51 4.99029 116.51C2.49029 116.51 0.330286 114.63 0.0302856 112.08Z" fill="black"/>
<path d="M9.3702 83.4689C6.6402 83.0489 4.7702 80.4889 5.2002 77.7589C5.6202 75.0289 8.1802 73.1589 10.9102 73.5889C13.6402 74.0089 15.5102 76.5689 15.0802 79.2989C14.6902 81.7689 12.5702 83.5289 10.1402 83.5289C9.8902 83.5289 9.6302 83.5089 9.3702 83.4689Z" fill="black"/>
<path d="M15.3807 68.2391C12.9207 66.9891 11.9507 63.9691 13.2007 61.5091C14.4507 59.0491 17.4607 58.0691 19.9207 59.3291C22.3807 60.5791 23.3607 63.5991 22.1107 66.0591C21.2307 67.7891 19.4707 68.7791 17.6507 68.7791C16.8907 68.7791 16.1107 68.6091 15.3807 68.2391Z" fill="black"/>
</g>
<path d="M23.6502 53.6509C21.2702 52.2509 20.4902 49.1809 21.8902 46.8109C23.3002 44.4309 26.3602 43.6409 28.7402 45.0509C31.1202 46.4509 31.9002 49.5209 30.5002 51.9009C29.5602 53.4809 27.9002 54.3509 26.1902 54.3509C25.3202 54.3509 24.4502 54.1309 23.6502 53.6509Z" fill="black"/>
<path d="M36.5101 43.3501C35.1201 40.9601 35.9301 37.9001 38.3101 36.5101C40.7001 35.1201 43.7601 35.9301 45.1501 38.3101C46.5401 40.7001 45.7301 43.7601 43.3401 45.1501C42.5501 45.6101 41.6901 45.8301 40.8301 45.8301C39.1101 45.8301 37.4401 44.9401 36.5101 43.3501Z" fill="black"/>
<path d="M52.4797 38.8693C52.0197 36.1493 53.8597 33.5693 56.5797 33.1193C59.3097 32.6593 61.8897 34.4993 62.3397 37.2193C62.7997 39.9393 60.9597 42.5193 58.2397 42.9793C57.9597 43.0193 57.6797 43.0493 57.3997 43.0493C55.0097 43.0493 52.8897 41.3193 52.4797 38.8693Z" fill="black"/>
<path d="M54.4199 42.4505L53.8799 41.7005C52.2699 39.4605 52.7899 36.3305 55.0399 34.7305C57.2799 33.1205 60.4099 33.6405 62.0099 35.8905L62.5499 36.6305C64.1499 38.8805 63.6399 42.0005 61.3899 43.6105C60.5099 44.2405 59.4899 44.5405 58.4899 44.5405C56.9299 44.5405 55.3899 43.8205 54.4199 42.4505Z" fill="black"/>
<path d="M54.9696 42.1101C53.3396 39.8801 53.8296 36.7501 56.0596 35.1201L56.5796 34.7401C58.8096 33.1101 61.9396 33.6001 63.5696 35.8301C65.1996 38.0601 64.7096 41.1901 62.4796 42.8201L61.9596 43.2001C61.0696 43.8501 60.0296 44.1601 59.0096 44.1601C57.4696 44.1601 55.9496 43.4501 54.9696 42.1101Z" fill="black"/>
<path d="M75.0205 46.5095C72.2905 46.0395 70.4705 43.4596 70.9305 40.7396C71.4005 38.0196 73.9905 36.1895 76.7105 36.6595C79.4305 37.1195 81.2605 39.7095 80.7905 42.4295C80.3705 44.8695 78.2605 46.5896 75.8705 46.5896C75.5905 46.5896 75.3005 46.5595 75.0205 46.5095Z" fill="black"/>
<path d="M86.3702 55.1204C84.1202 53.5304 83.5802 50.4104 85.1702 48.1504C86.7602 45.9004 89.8802 45.3604 92.1402 46.9504C94.3902 48.5504 94.9301 51.6604 93.3401 53.9204C92.3701 55.3004 90.8202 56.0404 89.2502 56.0404C88.2502 56.0404 87.2502 55.7404 86.3702 55.1204Z" fill="black"/>
<path d="M95.6104 66.8104C93.8704 64.6704 94.2004 61.5204 96.3504 59.7804C98.4904 58.0404 101.64 58.3604 103.38 60.5104C105.12 62.6604 104.79 65.8004 102.65 67.5404C101.72 68.3004 100.61 68.6604 99.5004 68.6604C98.0404 68.6604 96.6004 68.0304 95.6104 66.8104Z" fill="black"/>
<path d="M102.66 80.7203C101.4 78.2703 102.36 75.2503 104.82 73.9903C107.27 72.7203 110.29 73.6803 111.55 76.1403C112.82 78.5903 111.85 81.6103 109.4 82.8803C108.67 83.2503 107.88 83.4303 107.11 83.4303C105.3 83.4303 103.55 82.4403 102.66 80.7203Z" fill="black"/>
<path d="M105.06 95.7392C104.59 93.0192 106.4 90.4292 109.13 89.9492C111.85 89.4792 114.44 91.2892 114.91 94.0092C115.39 96.7292 113.57 99.3192 110.85 99.7992C110.56 99.8492 110.27 99.8792 109.98 99.8792C107.6 99.8792 105.49 98.1692 105.06 95.7392Z" fill="black"/>
<path d="M105.22 111.58C105.18 108.82 107.38 106.55 110.14 106.51C112.91 106.47 115.18 108.68 115.21 111.44C115.25 114.2 113.04 116.47 110.28 116.51H110.21C107.48 116.51 105.25 114.32 105.22 111.58Z" fill="black"/>
<path d="M106.81 128.839C106.55 126.089 108.57 123.649 111.32 123.399C114.07 123.139 116.51 125.159 116.77 127.909C117.02 130.659 115 133.099 112.25 133.349C112.09 133.369 111.94 133.369 111.78 133.369C109.23 133.369 107.05 131.429 106.81 128.839Z" fill="black"/>
<path d="M99.1502 164.821C96.5402 163.921 95.1602 161.071 96.0702 158.461C96.9702 155.851 99.8202 154.471 102.43 155.371C105.04 156.281 106.42 159.131 105.51 161.731C104.8 163.801 102.86 165.101 100.79 165.101C100.25 165.101 99.6902 165.011 99.1502 164.821Z" fill="black"/>
<mask id="mask1_2561_9922" style="mask-type:luminance" maskUnits="userSpaceOnUse" x="0" y="0" width="236" height="191">
<path d="M235.12 0H0V190.78H235.12V0Z" fill="white"/>
</mask>
<g mask="url(#mask1_2561_9922)">
<path d="M86.4898 176.329C84.4198 174.509 84.2198 171.349 86.0398 169.279C87.8698 167.199 91.0298 166.999 93.0998 168.829C95.1698 170.649 95.3698 173.809 93.5498 175.879C92.5598 177.009 91.1798 177.579 89.7898 177.579C88.6198 177.579 87.4398 177.169 86.4898 176.329Z" fill="black"/>
<path d="M71.5499 183.88C70.0899 181.54 70.8199 178.46 73.1599 177C75.5099 175.55 78.5899 176.27 80.0499 178.62C81.4999 180.97 80.7799 184.05 78.4299 185.5C77.6099 186.01 76.6999 186.25 75.7999 186.25C74.1299 186.25 72.4899 185.41 71.5499 183.88Z" fill="black"/>
<path d="M54.5999 184.94C54.1199 182.21 55.9499 179.62 58.6699 179.15C61.3899 178.68 63.9799 180.5 64.4499 183.22C64.9199 185.94 63.0999 188.53 60.3799 189.01C60.0899 189.06 59.7999 189.08 59.5199 189.08C57.1299 189.08 55.0199 187.37 54.5999 184.94Z" fill="black"/>
<path d="M58.4903 190.78C57.6003 190.78 56.7103 190.54 55.9003 190.05C53.5403 188.61 52.7903 185.54 54.2303 183.18L55.2603 181.48C56.7003 179.12 59.7703 178.37 62.1303 179.81C64.4903 181.25 65.2403 184.32 63.8003 186.68L62.7703 188.38C61.8303 189.93 60.1803 190.78 58.4903 190.78Z" fill="black"/>
</g>
<path d="M80.1196 78.2105C79.5696 75.5005 81.3196 72.8705 84.0296 72.3205C86.7396 71.7805 89.3696 73.5305 89.9196 76.2405C90.4596 78.9405 88.7096 81.5805 85.9996 82.1205C85.6696 82.1905 85.3396 82.2205 85.0096 82.2205C82.6796 82.2205 80.5896 80.5805 80.1196 78.2105Z" fill="black"/>
<path d="M71.0204 65.3503C69.4704 63.0603 70.0804 59.9503 72.3804 58.4103C74.6704 56.8703 77.7804 57.4803 79.3104 59.7803C80.8604 62.0703 80.2404 65.1703 77.9504 66.7103C77.1004 67.2903 76.1304 67.5703 75.1704 67.5703C73.5604 67.5703 71.9804 66.7903 71.0204 65.3503Z" fill="black"/>
<path d="M57.1202 62.6593C54.4602 61.9093 52.9202 59.1493 53.6702 56.4893C54.4202 53.8293 57.1802 52.2893 59.8402 53.0393C62.5002 53.7893 64.0402 56.5493 63.2902 59.2093C62.6702 61.4093 60.6702 62.8493 58.4902 62.8493C58.0402 62.8493 57.5802 62.7893 57.1202 62.6593Z" fill="black"/>
<path d="M37.2503 64.2999C36.4503 61.6499 37.9403 58.8599 40.5803 58.0599C43.2203 57.2599 46.0103 58.7499 46.8203 61.3899C47.6203 64.0299 46.1303 66.8299 43.4803 67.6299C43.0003 67.7799 42.5103 67.8499 42.0303 67.8499C39.8903 67.8499 37.9003 66.4599 37.2503 64.2999Z" fill="black"/>
<path d="M30.9897 82.2599C28.5897 80.8899 27.7497 77.8399 29.1197 75.4399C30.4797 73.0399 33.5397 72.1999 35.9397 73.5699C38.3397 74.9299 39.1797 77.9799 37.8097 80.3799C36.8897 81.9999 35.1997 82.9099 33.4597 82.9099C32.6197 82.9099 31.7697 82.6999 30.9897 82.2599Z" fill="black"/>
<path d="M25.0497 98.6901C22.4897 97.6601 21.2597 94.7401 22.2897 92.1801C23.3297 89.6201 26.2397 88.3901 28.7997 89.4301C31.3597 90.4601 32.5997 93.3801 31.5597 95.9401C30.7697 97.8801 28.8997 99.0601 26.9297 99.0601C26.2997 99.0601 25.6697 98.9401 25.0497 98.6901Z" fill="black"/>
<path d="M25.95 134.13C23.19 134.06 21 131.77 21.07 129.01C21.14 126.25 23.43 124.07 26.19 124.13C28.95 124.2 31.14 126.49 31.07 129.25C31 131.97 28.78 134.13 26.08 134.13H25.95Z" fill="black"/>
<path d="M27.5203 147.419C26.5603 144.829 27.8803 141.949 30.4703 140.989C33.0603 140.029 35.9403 141.349 36.9003 143.939C37.8603 146.529 36.5403 149.399 33.9503 150.359C33.3803 150.579 32.7903 150.679 32.2103 150.679C30.1803 150.679 28.2703 149.429 27.5203 147.419Z" fill="black"/>
<path d="M37.2504 163.421C35.8004 161.071 36.5404 157.991 38.8904 156.541C41.2404 155.101 44.3204 155.831 45.7704 158.181C47.2104 160.531 46.4804 163.611 44.1204 165.061C43.3104 165.561 42.4004 165.801 41.5104 165.801C39.8304 165.801 38.1904 164.951 37.2504 163.421Z" fill="black"/>
<path d="M57.39 169.48C54.7 168.87 53 166.2 53.6 163.51C54.2 160.81 56.88 159.11 59.57 159.72C62.27 160.32 63.96 162.99 63.36 165.69C62.84 168.02 60.78 169.6 58.49 169.6C58.12 169.6 57.76 169.56 57.39 169.48Z" fill="black"/>
<path d="M69.4301 160.87C68.5401 158.26 69.9401 155.42 72.5501 154.53C75.1701 153.64 78.0101 155.04 78.9001 157.65C79.7901 160.26 78.3901 163.1 75.7701 163.99C75.2401 164.17 74.7001 164.26 74.1601 164.26C72.0801 164.26 70.1401 162.95 69.4301 160.87Z" fill="black"/>
<path d="M81.3502 149.51C79.1302 147.87 78.6502 144.74 80.2902 142.52C81.9302 140.29 85.0602 139.82 87.2802 141.46C89.5002 143.1 89.9802 146.23 88.3402 148.45C87.3602 149.78 85.8502 150.48 84.3102 150.48C83.2802 150.48 82.2402 150.17 81.3502 149.51Z" fill="black"/>
<path d="M88.9399 133.76C86.3699 132.75 85.1099 129.84 86.1199 127.27C87.1299 124.71 90.0399 123.44 92.6099 124.46C95.1799 125.47 96.4399 128.37 95.4199 130.94C94.6499 132.91 92.7599 134.11 90.7699 134.11C90.1599 134.11 89.5399 134 88.9399 133.76Z" fill="black"/>
<path d="M91.5897 116.501C88.8397 116.321 86.7498 113.941 86.9298 111.181C87.0998 108.431 89.4798 106.341 92.2398 106.521C94.9998 106.701 97.0798 109.081 96.8998 111.831C96.7298 114.481 94.5298 116.511 91.9198 116.511C91.8098 116.511 91.6997 116.511 91.5897 116.511V116.501Z" fill="black"/>
<path d="M194.51 49.1396C191.75 48.9396 189.68 46.5496 189.88 43.7996C190.08 41.0396 192.47 38.9696 195.22 39.1696C197.98 39.3596 200.05 41.7596 199.85 44.5096C199.67 47.1396 197.47 49.1496 194.87 49.1496C194.75 49.1496 194.63 49.1496 194.51 49.1396Z" fill="black"/>
<path d="M207.61 41.9399C207.14 39.2199 208.96 36.6299 211.68 36.1599C214.4 35.6899 216.99 37.5099 217.46 40.2299C217.93 42.9499 216.11 45.5399 213.39 46.0099C213.1 46.0599 212.81 46.0899 212.53 46.0899C210.14 46.0899 208.03 44.3699 207.61 41.9399Z" fill="black"/>
<mask id="mask2_2561_9922" style="mask-type:luminance" maskUnits="userSpaceOnUse" x="0" y="0" width="236" height="191">
<path d="M235.12 0H0V190.78H235.12V0Z" fill="white"/>
</mask>
<g mask="url(#mask2_2561_9922)">
<path d="M229.17 48.0092C226.43 47.6992 224.46 45.2192 224.77 42.4792C225.08 39.7292 227.56 37.7592 230.3 38.0692C233.04 38.3792 235.02 40.8592 234.71 43.5992C234.42 46.1492 232.25 48.0392 229.74 48.0392C229.56 48.0392 229.36 48.0392 229.17 48.0092Z" fill="black"/>
<path d="M225.12 61.7086C225.06 58.9486 227.25 56.6586 230.01 56.6086C232.77 56.5486 235.06 58.7386 235.11 61.4986C235.17 64.2686 232.98 66.5486 230.22 66.6086H230.11C227.4 66.6086 225.17 64.4286 225.12 61.7086Z" fill="black"/>
</g>
<path d="M194.79 66.0591C192.03 66.0091 189.83 63.7391 189.87 60.9791C189.91 58.2191 192.19 56.0191 194.95 56.0591C197.71 56.0991 199.91 58.3691 199.87 61.1291C199.83 63.8691 197.6 66.0591 194.87 66.0591H194.79Z" fill="black"/>
<path d="M171.98 61.5702C171.92 58.8102 174.11 56.5202 176.87 56.4602C179.63 56.4002 181.92 58.5902 181.98 61.3502C182.04 64.1102 179.85 66.3902 177.09 66.4602H176.98C174.27 66.4602 172.05 64.2902 171.98 61.5702Z" fill="black"/>
<path d="M172.83 87.1705C172.74 84.4105 174.9 82.1005 177.66 82.0105C180.42 81.9205 182.73 84.0805 182.82 86.8505C182.91 89.6105 180.75 91.9205 177.99 92.0105H177.82C175.14 92.0105 172.92 89.8805 172.83 87.1705Z" fill="black"/>
<path d="M175.56 134.47C172.82 134.08 170.92 131.55 171.31 128.82C171.7 126.08 174.23 124.18 176.96 124.57C179.7 124.96 181.6 127.49 181.21 130.22C180.86 132.72 178.72 134.52 176.27 134.52C176.03 134.52 175.8 134.5 175.56 134.47Z" fill="black"/>
<path d="M173.63 147.16C173.25 144.42 175.17 141.9 177.9 141.53C180.64 141.15 183.16 143.07 183.53 145.8C183.91 148.54 181.99 151.06 179.26 151.44C179.03 151.47 178.8 151.48 178.57 151.48C176.11 151.48 173.97 149.67 173.63 147.16Z" fill="black"/>
<path d="M176.87 168.43C174.12 168.22 172.06 165.81 172.27 163.06C172.49 160.31 174.89 158.25 177.65 158.46C180.4 158.67 182.46 161.08 182.24 163.83C182.04 166.45 179.85 168.45 177.26 168.45C177.13 168.45 177 168.45 176.87 168.43Z" fill="black"/>
<mask id="mask3_2561_9922" style="mask-type:luminance" maskUnits="userSpaceOnUse" x="0" y="0" width="236" height="191">
<path d="M235.12 0H0V190.78H235.12V0Z" fill="white"/>
</mask>
<g mask="url(#mask3_2561_9922)">
<path d="M172.82 181.35C172.74 178.59 174.9 176.27 177.66 176.19C180.42 176.1 182.73 178.27 182.82 181.03C182.91 183.79 180.74 186.09 177.98 186.18H177.82C175.13 186.18 172.91 184.05 172.82 181.35Z" fill="black"/>
<path d="M150.15 181.541C150.11 178.781 152.32 176.511 155.08 176.481C157.85 176.441 160.11 178.651 160.15 181.411C160.18 184.171 157.97 186.441 155.21 186.481H155.15C152.42 186.481 150.18 184.281 150.15 181.541Z" fill="black"/>
<path d="M156.85 168.41C154.12 168.05 152.19 165.54 152.55 162.8C152.9 160.07 155.41 158.14 158.15 158.5C160.89 158.85 162.82 161.36 162.46 164.1C162.13 166.62 159.98 168.45 157.51 168.45C157.29 168.45 157.07 168.45 156.85 168.41Z" fill="black"/>
</g>
<path d="M150.89 129.771C150.76 127.021 152.89 124.681 155.65 124.541C158.41 124.411 160.75 126.541 160.88 129.301C161.01 132.061 158.88 134.401 156.12 134.531C156.04 134.531 155.96 134.531 155.88 134.531C153.23 134.531 151.02 132.441 150.89 129.761V129.771Z" fill="black"/>
<path d="M156.81 117.561C154.06 117.351 152 114.941 152.21 112.191C152.43 109.441 154.83 107.381 157.58 107.591C160.34 107.811 162.4 110.211 162.18 112.961C161.98 115.581 159.79 117.581 157.21 117.581C157.08 117.581 156.94 117.581 156.81 117.561Z" fill="black"/>
<path d="M149.76 96.3406C149.35 93.6106 151.24 91.0706 153.97 90.6706C156.71 90.2706 159.25 92.1606 159.65 94.8906C160.05 97.6206 158.16 100.161 155.43 100.561C155.18 100.601 154.94 100.621 154.69 100.621C152.25 100.621 150.12 98.8306 149.76 96.3406Z" fill="black"/>
<path d="M156.17 83.6108C153.42 83.2808 151.47 80.7908 151.81 78.0408C152.14 75.3008 154.63 73.3508 157.38 73.6908C160.12 74.0208 162.07 76.5208 161.73 79.2608C161.43 81.7908 159.27 83.6508 156.78 83.6508C156.58 83.6508 156.37 83.6408 156.17 83.6108Z" fill="black"/>
<path d="M151.07 61.8291C150.96 59.0691 153.1 56.7391 155.86 56.6291C158.62 56.5191 160.95 58.6591 161.06 61.4191C161.18 64.1791 159.03 66.5091 156.27 66.6191C156.2 66.6191 156.13 66.6191 156.06 66.6191C153.4 66.6191 151.18 64.5091 151.07 61.8191V61.8291Z" fill="black"/>
<path d="M135.1 62.1292C135.04 59.3692 137.22 57.0792 139.98 57.0192C142.74 56.9492 145.03 59.1292 145.1 61.8892C145.16 64.6492 142.98 66.9392 140.22 67.0092H140.1C137.39 67.0092 135.17 64.8492 135.1 62.1292Z" fill="black"/>
<path d="M123.91 66.9005C121.14 66.8805 118.92 64.6305 118.94 61.8705C118.96 59.1105 121.21 56.8805 123.97 56.9005C126.74 56.9205 128.96 59.1805 128.94 61.9405C128.92 64.6905 126.69 66.9005 123.94 66.9005H123.91Z" fill="black"/>
<path d="M124.18 47.659C121.42 47.609 119.22 45.339 119.26 42.569C119.31 39.809 121.58 37.609 124.35 37.659C127.11 37.699 129.31 39.979 129.26 42.739C129.21 45.469 126.99 47.659 124.26 47.659H124.18Z" fill="black"/>
<path d="M139.92 48.2201C137.16 48.1201 135.01 45.8001 135.1 43.0401C135.2 40.2801 137.52 38.1201 140.28 38.2201C143.04 38.3201 145.19 40.6401 145.1 43.4001C145 46.1001 142.78 48.2201 140.11 48.2201H139.92Z" fill="black"/>
<path d="M150.93 42.6704C150.79 39.9104 152.91 37.5604 155.67 37.4304C158.43 37.2904 160.78 39.4104 160.92 42.1704C161.06 44.9204 158.94 47.2704 156.18 47.4104C156.09 47.4104 156.01 47.4104 155.92 47.4104C153.27 47.4104 151.07 45.3304 150.93 42.6604V42.6704Z" fill="black"/>
<path d="M159.41 31.0804C156.78 30.2704 155.29 27.4704 156.11 24.8304C156.92 22.1904 159.72 20.7104 162.36 21.5204C165 22.3304 166.48 25.1304 165.66 27.7704C165 29.9204 163.02 31.3004 160.88 31.3004C160.4 31.3004 159.9 31.2304 159.41 31.0804Z" fill="black"/>
<mask id="mask4_2561_9922" style="mask-type:luminance" maskUnits="userSpaceOnUse" x="0" y="0" width="236" height="191">
<path d="M235.12 0H0V190.78H235.12V0Z" fill="white"/>
</mask>
<g mask="url(#mask4_2561_9922)">
<path d="M168 17.1901C165.83 15.4901 165.44 12.3401 167.14 10.1701C168.84 7.99005 171.98 7.61005 174.16 9.30005C176.33 11.0001 176.72 14.1501 175.02 16.3201C174.04 17.5801 172.56 18.2401 171.08 18.2401C170 18.2401 168.92 17.9001 168 17.1901Z" fill="black"/>
<path d="M182.65 8.91093C181.69 6.32093 182.99 3.44093 185.58 2.47093C188.17 1.51093 191.05 2.82093 192.02 5.40093C192.99 7.99093 191.68 10.8709 189.09 11.8409C188.51 12.0509 187.92 12.1609 187.33 12.1609C185.31 12.1609 183.4 10.9209 182.65 8.91093Z" fill="black"/>
<path d="M199.8 5.61062C199.46 2.87062 201.41 0.380616 204.15 0.0406163C206.89 -0.299384 209.38 1.64062 209.73 4.38062C210.06 7.12062 208.12 9.62062 205.38 9.96062C205.17 9.99062 204.96 10.0006 204.75 10.0006C202.27 10.0006 200.12 8.14062 199.8 5.61062Z" fill="black"/>
<path d="M229.48 11.9802C226.73 11.7602 224.68 9.35024 224.9 6.60024C225.11 3.85024 227.52 1.79024 230.28 2.01024C233.03 2.23024 235.08 4.64024 234.86 7.39024C234.66 10.0102 232.47 12.0002 229.88 12.0002C229.75 12.0002 229.62 12.0002 229.48 11.9802Z" fill="black"/>
<path d="M229.33 29.6401C226.57 29.5801 224.39 27.2801 224.45 24.5201C224.52 21.7601 226.81 19.5801 229.58 19.6501C232.34 19.7101 234.52 22.0101 234.45 24.7701C234.39 27.4901 232.16 29.6501 229.45 29.6501C229.45 29.6501 229.37 29.6501 229.33 29.6401Z" fill="black"/>
<path d="M199.78 27.4201C199.53 24.6701 201.55 22.2301 204.3 21.9701C207.05 21.7201 209.48 23.7401 209.74 26.4901C210 29.2401 207.98 31.6801 205.23 31.9301C205.07 31.9501 204.91 31.9501 204.76 31.9501C202.2 31.9501 200.02 30.0101 199.78 27.4201Z" fill="black"/>
</g>
<path d="M180.89 27.0002C180.89 24.2402 183.12 22.0002 185.88 21.9902C188.64 21.9902 190.89 24.2202 190.89 26.9802C190.9 29.7402 188.67 31.9902 185.9 31.9902C183.14 31.9902 180.9 29.7602 180.89 27.0002Z" fill="black"/>
<path d="M174.64 47.2504C172.22 45.9104 171.35 42.8604 172.69 40.4504C174.04 38.0304 177.08 37.1704 179.5 38.5104C181.91 39.8504 182.78 42.8904 181.44 45.3004C180.52 46.9504 178.82 47.8804 177.06 47.8804C176.24 47.8804 175.41 47.6704 174.64 47.2504Z" fill="black"/>
</g>
<defs>
<clipPath id="clip0_2561_9922">
<rect width="235.12" height="190.78" fill="white"/>
</clipPath>
</defs>
</svg>
