<svg width="477" height="374" viewBox="0 0 477 374" fill="none" xmlns="http://www.w3.org/2000/svg">
<g clip-path="url(#clip0_2561_9908)">
<mask id="mask0_2561_9908" style="mask-type:luminance" maskUnits="userSpaceOnUse" x="0" y="0" width="477" height="374">
<path d="M476.66 0H0V373.61H476.66V0Z" fill="white"/>
</mask>
<g mask="url(#mask0_2561_9908)">
<path d="M229.339 180.769C214.279 184.079 220.359 196.569 216.359 196.129L210.199 195.469C210.859 188.599 206.479 181.239 199.139 180.579C196.239 180.329 193.199 180.989 190.519 180.849L183.489 180.469C181.439 180.359 179.819 180.959 177.929 181.839C175.219 173.439 179.429 172.119 173.879 161.609C180.309 155.289 179.789 147.019 176.589 139.219C184.089 141.599 182.039 136.999 188.549 139.249C195.089 141.519 194.849 137.139 199.769 139.089C202.969 140.369 205.269 139.799 208.529 138.709L215.889 139.889L222.979 138.079C223.419 141.259 224.019 144.129 225.799 145.719C228.209 147.879 231.269 147.909 234.829 147.799C236.689 153.379 227.439 157.679 234.309 169.619L239.319 172.469C234.039 173.149 230.149 175.539 229.329 180.789M282.009 201.439C281.109 191.889 282.339 183.729 270.459 180.529C273.829 171.689 271.659 159.319 260.629 157.479C261.119 150.199 262.849 153.759 261.589 145.739C260.599 139.499 256.329 135.089 249.929 134.459C251.299 131.069 251.549 128.569 251.709 125.509C252.119 118.009 247.359 111.469 239.009 111.439C242.509 105.909 243.119 98.9294 239.529 93.5394C235.559 87.5694 227.399 87.5694 221.629 90.9394C217.709 80.2094 221.549 80.3494 219.579 73.6894C218.019 68.3494 213.589 65.4494 208.219 65.6694C204.829 65.8094 202.249 66.8794 198.969 68.8494C199.599 64.4994 198.609 60.6094 195.249 58.9694C191.939 57.3794 189.119 57.8694 185.919 60.7794L186.499 55.1994C186.769 52.5194 185.729 48.9894 184.169 46.8194C180.639 41.8894 174.179 42.2494 169.389 43.7794C165.779 42.6294 161.179 42.5494 157.429 43.7494C153.099 42.5494 146.779 41.6994 143.079 46.0794C139.079 50.8194 138.669 58.1794 142.889 62.9994C146.589 67.2394 152.859 67.5394 157.479 65.1594C160.899 66.9394 164.709 67.2694 168.099 65.5994C169.739 64.7794 172.309 66.0694 172.509 68.0394C172.889 72.2294 175.799 74.9094 180.119 74.5794C182.169 74.4394 183.819 73.8694 185.699 72.3394C188.789 74.9394 193.449 75.2394 197.109 73.1894C195.579 78.4194 196.149 85.5594 201.079 88.6294C203.929 90.4094 205.239 91.0094 206.119 94.4894C207.159 98.7294 212.659 100.319 217.149 98.3794C217.529 100.709 217.479 103.749 217.009 105.939C214.249 104.839 212.739 104.519 210.279 104.409C206.009 104.219 203.349 106.709 202.449 110.759C201.139 112.209 197.439 112.869 195.469 112.159C192.049 110.979 189.309 112.569 185.889 112.239L178.689 111.579C172.059 110.949 167.579 116.949 167.249 123.429C167.169 125.179 167.299 126.799 167.499 129.179C163.449 126.639 158.909 125.919 155.019 128.849C151.189 126.389 145.409 126.059 142.369 129.749C139.469 133.309 139.689 138.239 140.809 142.479C142.839 150.199 152.469 146.529 152.579 148.639C152.989 155.289 148.989 146.069 140.919 151.709C135.749 155.349 136.459 166.219 139.959 169.889C144.069 174.159 150.579 170.159 149.979 173.999C148.969 180.159 152.859 184.889 157.669 187.909C159.369 190.259 159.639 194.859 163.549 195.929C165.169 196.339 168.179 196.369 169.929 196.389C170.749 203.419 172.419 209.749 179.949 212.269C182.929 213.279 187.199 212.489 190.459 212.159C191.909 215.059 193.009 219.279 196.649 220.289C199.879 221.189 203.249 220.429 206.719 220.349C210.359 220.239 214.359 221.089 217.619 220.189C221.449 219.149 222.299 215.229 223.399 211.869C223.729 210.969 226.109 212.009 227.119 212.279C230.509 213.179 234.399 212.439 237.929 212.529L246.439 212.689C249.889 212.769 253.089 209.619 255.549 207.189C259.709 211.679 261.849 210.669 262.719 214.549C263.789 219.309 267.619 220.789 271.889 220.789C276.159 220.759 279.639 219.999 281.529 215.589C283.449 211.179 282.489 206.339 282.019 201.489" fill="#90BEFB"/>
<path d="M175 161.439C173.3 162.319 169.33 162.319 167.91 161.389L165.61 159.909C165.12 159.579 164 161.279 163.42 161.499C161.56 162.179 157.89 162.349 156.11 161.419C152.99 159.719 151.59 156.109 152.06 152.739C152.47 149.509 154.44 147.239 157.02 146.089C160.3 144.609 162.9 146.529 165.59 148.139C167.81 146.719 170.65 145.019 173.12 145.729C175.67 146.439 177.61 147.839 178.54 150.769C179.72 154.549 178.95 159.419 175.01 161.449" fill="#90BEFB"/>
<path d="M168.69 300.249C168.61 305.889 167.65 311.339 162.56 314.679C158.37 317.419 153.61 316.539 148.71 316.269C144.93 316.019 141.07 318.319 134.45 314.459C133.57 318.269 132.48 322.559 128.59 323.989C125.5 325.139 121.28 324.179 118 324.209L106.17 324.289L96.0096 324.479C95.7896 326.339 95.6796 328.699 95.6796 330.889C103.1 333.299 106.11 340.169 105.59 347.399C105.4 350.079 105.56 353.009 104.93 355.199C103.4 360.569 99.9996 363.469 94.9896 365.219C91.4096 372.009 92.9096 370.179 87.1096 373.619H79.9096C76.6496 371.289 74.2696 371.979 72.7696 365.649C71.4296 360.039 71.7796 354.839 74.4096 349.389C68.0896 349.689 64.6896 346.049 63.4296 340.819C62.0896 335.259 62.9096 330.169 66.1996 325.029L60.8896 324.289C52.5396 323.109 52.4596 306.769 57.7396 301.379C56.4496 298.719 51.6596 301.929 48.3496 298.289C43.3696 292.819 44.2996 284.109 48.2896 278.639C48.6196 278.179 48.3496 276.289 47.7996 276.179C45.0896 275.739 37.4196 276.919 36.2796 268.099C34.8796 257.259 42.3796 253.649 39.6496 252.279C36.7996 250.829 32.9996 253.159 29.6296 249.159C27.9896 247.219 27.3296 244.669 27.2496 241.959C26.9196 231.529 32.0996 235.689 30.4296 226.709C27.0596 227.829 23.7496 227.779 21.3696 225.529C16.7696 221.209 17.3696 213.729 21.5296 209.269L21.4496 201.659C18.5496 203.409 16.4896 203.599 13.5896 202.289C8.2496 199.909 8.1696 191.259 12.1096 185.999L12.8196 177.209C10.5696 178.309 6.4996 179.209 3.7596 177.589C-0.350402 175.209 -1.2204 168.719 1.7896 165.159C3.3196 163.349 4.1696 161.899 3.8196 159.299C3.3496 155.599 4.3696 151.849 6.8296 149.609C9.5396 147.119 12.4396 146.489 16.3796 146.759C22.3496 147.139 26.4796 152.559 26.2096 158.669C26.0996 160.809 25.6396 162.689 25.0596 164.799C28.2396 162.469 31.1596 161.159 34.1996 162.529C36.8796 163.709 38.4696 166.279 38.9596 169.399C44.7096 171.259 48.2096 176.049 47.9396 182.269C47.7196 187.279 46.3196 192.289 40.7896 193.899C47.1996 199.619 47.6096 207.939 43.4696 215.029C47.2196 215.989 50.8896 216.839 52.9096 219.489C57.3396 225.349 57.0396 231.999 53.9196 238.379C58.8196 238.929 62.4096 241.199 64.2396 245.009C66.6996 250.159 66.7796 255.469 64.2696 261.219C74.8396 263.379 76.7796 272.119 75.4696 281.069C77.1096 287.119 78.9196 284.409 83.8696 289.969C86.2996 285.779 91.0396 284.299 95.6096 284.359C105.3 284.439 109.08 290.789 109.65 299.439C111.92 299.299 115.62 300.479 117.86 300.539C121.61 300.619 124.48 298.159 128.54 300.599L128.21 289.869C127.85 278.699 130.32 284.259 131.36 276.099C131.72 273.249 131.63 270.899 131.25 268.019C130.18 259.589 131.85 260.159 134.29 254.359C136.48 249.099 125.61 255.019 122.88 246.859C120.99 241.279 121.92 235.659 125.67 231.579L125.34 227.009L121.67 227.389C118.49 227.689 114.2 224.869 113.49 221.699C111.33 211.849 116.2 212.039 116.06 207.899C115.9 203.269 116.61 198.649 120.19 195.499C123.97 192.159 130.98 191.419 135.33 194.379C142.12 199.009 142.67 208.419 138.01 214.859L143.84 216.779C150.93 219.109 152.82 231.209 148.79 238.019C151.2 238.899 154.51 239.769 156.32 241.499C162.31 247.219 162.18 260.299 155.83 265.509C159.77 274.599 158.46 271.799 158.62 281.799L157.09 284.479C165.49 285.739 168.8 292.719 168.67 300.269" fill="#90BEFB"/>
<path d="M118.699 186.179C117.199 190.889 114.159 194.499 108.439 194.859C107.699 199.599 104.659 202.829 100.449 203.129C96.1195 203.459 92.8695 200.059 92.0695 195.469C91.4995 192.069 93.2995 188.819 95.5495 185.839L95.6895 177.629C85.4495 180.199 86.1895 175.769 84.8495 176.259C84.0595 176.559 81.1295 179.979 75.5695 177.959C74.1995 177.469 72.0695 174.889 71.7395 173.499C69.5995 164.249 66.3495 173.769 56.7095 169.339C54.4895 169.779 50.9595 170.849 48.4695 170.519C42.2295 169.729 39.0795 164.439 39.0295 158.699C38.9995 152.349 43.0295 146.789 49.7595 146.739C51.8395 146.739 54.4695 147.339 56.2195 147.889C59.9195 146.489 64.5195 146.389 68.1595 147.949C69.6095 147.489 71.5795 146.939 73.3295 146.769C79.9495 146.109 85.7295 151.309 85.2395 157.989L84.7495 164.259C87.5695 162.919 89.5695 161.709 91.8095 162.039C97.4195 162.859 98.1595 168.169 98.6295 172.739C103.939 168.139 112.119 168.499 116.609 173.949C119.319 177.259 120.029 182.109 118.719 186.209" fill="#90BEFB"/>
<path d="M361.83 290.619C361.04 295.929 357.31 298.529 352.19 298.369C348 298.229 343.48 297.359 342.2 292.239C341.32 288.739 341.1 283.319 342.42 279.429C343.1 277.379 344.39 275.729 344.58 274.009C342.36 273.899 340.15 274.039 338.72 273.679C330.81 271.709 330.95 257.909 335.38 252.549C335.74 252.139 336.09 250.359 335.6 250.169C332.78 249.099 329.39 250.309 326.32 247.679C323.64 245.349 323.42 239.629 323.77 235.769C324.45 228.129 327.88 232.619 326.34 225.369C322.92 225.419 319.08 225.639 317.03 223.179C313.03 218.419 313.88 211.139 317.39 206.429L317.72 200.299C312.79 202.159 307.98 200.349 306.31 196.029C304.56 191.459 305.22 186.609 308.91 183.189L308.88 175.279C305.84 177.389 302.8 177.359 299.93 175.219C294.87 171.529 295.71 164.159 299.66 159.839L300.15 150.809C297.96 152.179 293.91 152.729 291.2 151.329C288.71 150.069 287.45 146.869 287.29 144.429C287.1 141.529 288.82 138.739 291.1 136.709L290.91 131.859C290.72 126.739 293.4 121.789 298.63 120.719C300.38 120.359 303.78 120.229 305.55 120.719C313.35 122.909 315.54 131.829 311.9 138.899C314.12 137.499 316.12 136.049 317.92 135.559C320.03 135.009 322.65 137.069 324.49 138.019C326.79 137.279 329.31 134.729 332.05 135.719C338.43 137.989 338.29 141.439 337.61 147.709C331.72 153.289 339.94 161.919 328.19 167.669C334.32 174.379 334.9 180.319 330.79 188.989C334.7 189.459 338.07 190.389 340.29 193.449C344.18 198.819 344.31 205.359 341.3 212.009C349.57 212.779 353.56 219.669 353.04 227.389C352.85 230.209 352.79 232.559 351.48 235.029C358.74 235.879 362.98 241.739 363.11 248.799C363.16 251.619 362.73 254.659 362.18 258.019C367.25 259.439 371.46 263.029 372.64 268.699C374.58 278.389 372.18 287.479 361.83 290.629" fill="#90BEFB"/>
<path d="M352.5 160.7C351.6 165.6 348.94 167.71 344.73 167.65C341.12 167.62 338 166.06 337.69 161.98C337.55 160.06 335.28 157.79 333.28 158.61C329.97 159.95 326.27 160.39 322.77 158.55C318.2 156.14 315.85 150.37 317.1 144.56C318.3 139.17 322.57 135.01 328.43 135.91L334.29 136.84C335.71 137.06 343.1 132.87 349.24 140.15C352.36 143.9 351.07 148.44 350.85 153.18C350.93 155.18 352.87 158.49 352.49 160.68" fill="#90BEFB"/>
<path d="M476.66 198.96V201.56C476.2 206.24 472.96 215.77 466.18 215.82C463.58 215.82 460.24 216.23 458.02 215.66L453.78 214.59C452.88 218.72 451.64 222.39 447.46 223.54C444.42 224.39 440.45 223.51 437.33 223.59C433.44 223.73 429.83 223.75 425.86 223.62C422.41 223.51 418.2 224.25 414.88 223.48C410.83 222.52 411.16 217.59 408.8 215.71C396.12 205.42 403.13 198.55 398.53 199.5C389.63 201.36 390.21 192.22 386.57 190.06C377.76 184.78 381.2 176.13 379.59 175.58C378.22 175.11 369.16 176.87 367.98 168.46C366.72 159.29 368.42 159.67 370.96 153.65C373.26 148.2 361 155.18 358.94 144.67C358.06 140.1 358.69 135.42 361.46 131.78C362.25 130.66 361.79 127.24 361.54 126.06C357.19 127.81 353.08 126.44 350.76 122.53C349.06 119.71 349.61 115.08 350.54 111.77L352.7 109.17L352.48 101.61C348.68 102.98 345.8 102.9 343.5 100.62C339.2 96.41 339.15 89.89 343.97 85.92L344.13 76.5C342.57 77.27 341.26 77.68 339.56 77.84C330.5 78.66 333.32 69.46 329.7 68.7C327.81 68.29 321.76 72.4 315.33 67.6C312.76 65.71 311.36 62.32 311.11 58.73C310.67 51.8 315.19 45.84 322.36 46.11C322.17 43.07 324.52 40.64 326.3 38.91C325.89 35.27 325.18 31.44 327.31 27.99C330.92 22.08 340.4 21.56 344.8 26.18C346.94 28.37 347.48 31.13 347.51 34.45C347.59 40.42 343.59 45.45 336.7 45.29C338.59 48.74 344.75 44.8 350.22 46.63C354.57 48.11 354.57 44.61 362.13 46.6C363.85 47.06 364.32 47.04 366.02 46.57C368.98 45.8 372.54 46.49 375.55 46.46L386.97 46.38C390.89 46.35 394.8 46.22 398.99 46.46C402.3 46.62 406.79 45.47 409.89 46.6C416.93 49.17 418.21 57.44 415.8 63.05C412.38 71.07 405.65 69.32 399.32 69.29C395.57 69.26 391.3 69.24 387.58 69.21C383.64 69.18 380.24 70.03 376.11 68.96C373.48 68.3 369.4 71.62 366.12 69.21C364.89 68.31 362.83 68.53 361.36 69.89C365.11 72.08 366.23 74.54 367.27 78.24C368.61 82.87 366.94 87.03 363.9 91.9C369.51 91.65 374.14 93.9 376.25 98.66C378.47 103.7 378.25 109.28 374.83 113.8C375.02 114.13 376.42 115.12 376.88 115.14C381.67 115.39 385.56 118.95 386.73 123.65C387.88 128.3 387.72 132.85 385.14 137.31C388.56 138.49 392.01 139.28 393.96 141.85C397.98 147.19 398.2 154.06 395.66 160.6C410.14 164.46 405.9 174.12 407.95 184.58C411.51 184.01 414 183.65 416.98 183.81C424.67 184.25 429.24 191.31 428.86 198.57L437.24 199.99C440.94 199.2 444.14 198.54 448.33 199.58C448 193.83 450.06 188.27 454.71 185.67C459.56 182.99 464.95 183.12 469.71 185.64C474.8 188.32 475.73 193.71 476.66 198.92" fill="#90BEFB"/>
<path d="M335.249 17.8295C333.639 20.3195 330.239 20.5695 327.479 21.0895C326.899 23.3095 326.079 26.4795 324.499 27.6295C322.139 29.3495 319.459 29.7695 316.289 28.1795C314.319 27.1695 313.279 23.9395 313.469 21.8595C313.689 19.4495 315.469 17.0995 317.629 15.7795L317.139 10.2195C316.729 5.78951 318.949 2.38951 323.049 0.889507C326.309 -0.340493 329.669 -0.400493 332.819 1.45951C338.129 4.60951 339.309 11.5595 335.259 17.8295" fill="#90BEFB"/>
</g>
</g>
<defs>
<clipPath id="clip0_2561_9908">
<rect width="476.66" height="373.61" fill="white"/>
</clipPath>
</defs>
</svg>
