<svg width="376" height="363" viewBox="0 0 376 363" fill="none" xmlns="http://www.w3.org/2000/svg">
<g clip-path="url(#clip0_2547_4644)">
<path d="M375.92 236.57V238.36C375.68 239.83 375.33 241.2 374.76 242.56C374.36 245.56 373.09 248.1 371.24 250.43C369.64 252.44 369.6 253.04 367.13 254.32C366.76 254.51 365.8 254.48 365.37 254.34C364.55 254.07 364.13 252.76 364.4 251.83C365.26 248.99 367.18 247.79 367.69 245.64L368.9 240.58C369.42 238.43 369.47 236.47 368.94 234.3L367.85 229.84C367.67 229.12 367.48 228.31 367.15 227.68L365.97 225.4C365.52 224.52 363.99 223.07 363.98 221.4C363.98 220.65 364.65 219.79 365.42 219.67C365.96 219.59 366.84 219.57 367.27 219.67C368.94 220.23 369.58 221.65 370.44 222.91L372.83 226.46C373.97 228.17 374.44 230.1 374.89 232.1L375.92 236.57Z" fill="black"/>
<path d="M183.25 89.2098C184 90.3498 184.48 91.7998 183.93 93.1298C183.71 93.6598 183.01 94.1498 182.56 94.2198C181.51 94.3698 180.18 93.3298 179.58 92.5198L178.05 90.4398L176.97 89.0398C176.55 88.4998 176.12 88.0198 175.73 87.3998C174.15 84.8898 173.04 82.0398 172.76 79.0198C172.64 77.6698 172.64 74.0998 172.92 72.8198C173.26 71.2498 173.52 69.7198 174.07 68.2298C174.26 67.6898 176.03 64.6198 176.38 64.1598C177.29 62.9598 178.29 61.9298 179.27 60.7798C180.26 59.6098 181.4 57.9598 183.03 58.3898C183.43 58.4998 184.01 59.0098 184.18 59.5098C184.63 60.8598 184.03 62.1198 183.27 63.1698L182.36 64.4298C181.43 65.7198 180.41 68.0098 179.96 69.6598C179.31 72.0298 179.45 78.0898 179.57 80.7298C179.63 82.2798 180.51 85.0198 181.19 86.0598L183.26 89.2098H183.25Z" fill="black"/>
<path d="M155.97 254.22C154.81 255 153.44 254.35 152.56 253.53C149.74 250.89 146.91 246.89 146.08 243.07C145.79 241.7 145.74 240.29 145.55 238.88C145.39 237.66 145.41 236.53 145.52 235.32L145.71 233.16C146.08 229.12 149.09 224.37 151.84 221.42C152.52 220.69 153.28 220.25 154.33 219.89C154.89 219.71 156.05 220.18 156.3 220.81C157.38 223.44 153.7 226.31 152.68 231.39C152.19 233.83 151.61 235.95 151.97 238.35L152.68 243.17C153.35 247.74 156.1 249.39 156.55 251.87C156.68 252.62 156.66 253.75 155.96 254.22" fill="black"/>
<path d="M352.98 194.06C352.57 194.86 351.87 195.41 350.65 195.5C349.96 195.54 348.7 195.18 348.17 194.58C347.14 193.4 346.88 191.81 346.21 190.48C345.62 189.31 344.95 188.23 344.47 187.05C344.07 186.05 343.69 185.15 343.24 184.19L342.21 181.98L340.83 178.92C340.23 177.58 339.69 176.26 339.05 174.98L336.85 170.53C336.48 169.79 336.11 168.98 335.71 168.28L334.33 165.89C333.49 164.42 333.68 162.25 335.25 161.31C336.19 160.74 337.58 161.17 338.43 161.59C340.76 162.77 341.38 165 342.2 167.35L343.22 170.25L343.8 171.94C344.25 173.26 344.69 174.54 345.35 175.8C346.41 177.8 347.23 179.82 348.2 181.86L349.24 184.03L350.24 186.26C350.63 187.15 351.04 188.08 351.48 188.9L352.68 191.18C353.22 192.19 353.45 193.09 352.96 194.05" fill="black"/>
<path d="M328.37 96.4098C326.96 97.3598 325.14 97.5398 323.39 97.3798L321.14 97.1698C319.91 97.0598 318.8 97.1498 317.56 97.1698L306.57 97.2998C305.16 97.3098 303.8 97.0898 302.41 96.6798C302.03 96.2198 301.58 95.6598 301.27 95.1298C300.81 94.3398 301.37 93.1998 302.07 92.5598C303.65 91.1398 306 90.8998 308.12 91.3298H317.86C320.41 90.9298 322.87 91.2098 325.4 91.4798C326.46 91.5898 327.62 91.6898 328.48 92.3998C329.65 93.3498 329.66 95.5198 328.35 96.3898" fill="black"/>
<path d="M246.1 310C245.56 310.65 244.27 311.26 243.36 311.29C240.88 311.36 238.58 311.35 236.14 311.23C233.01 311.09 229.94 311.12 226.78 311.19C224.74 311.23 222.41 311.96 220.12 311.05C219.16 310.66 218.42 309.84 218.26 309.03C218.04 307.94 218.37 306.97 219.23 306.2C220.02 305.49 221.36 305.43 222.49 305.44C224.36 305.45 226.14 305.4 227.94 305.54C229.51 305.67 231 305.62 232.59 305.54C235.97 305.38 239.34 305.41 242.74 305.52C243.92 305.56 245.29 305.89 245.99 306.65C246.92 307.66 247.08 308.87 246.12 310.02" fill="black"/>
<path d="M301.49 310.16C300.71 310.8 299.46 311.26 298.44 311.28C294.81 311.35 291.28 311.39 287.67 311.25C286.29 311.2 285 311.19 283.62 311.25L280.31 311.39C278.38 311.48 276.61 311.7 274.71 310.41C273.87 309.85 273.65 308.51 274 307.5C274.33 306.55 275.3 305.8 276.43 305.68C281.56 305.12 281.58 305.77 285.32 305.52C287.19 305.39 289.1 305.39 290.97 305.52C294.62 305.77 294.9 305.13 299.72 305.66C300.72 305.77 301.65 306.43 302.01 307.24C302.4 308.16 302.39 309.44 301.5 310.17" fill="black"/>
<path d="M298.12 21.5498C297.99 23.2198 296.64 24.2698 294.94 24.3698C292.88 24.4998 290.91 24.4798 288.93 24.3498C287.42 24.2498 285.91 24.1898 284.39 24.3098L281.86 24.4898C280.18 24.6098 278.33 23.6298 278.19 21.7498C278.05 19.8798 279.8 18.6898 281.46 18.6298C282.27 18.5998 282.91 18.6598 283.7 18.6698L295.85 18.8498C297.21 18.8598 298.21 20.4298 298.11 21.5598" fill="black"/>
<path d="M324.35 23.5398C323.32 24.2798 322.1 24.5298 320.78 24.4598L318.12 24.3198C316.21 24.2198 314.31 24.2298 312.41 24.3198L309.38 24.4698C308.13 24.5398 307.07 24.2698 306.11 23.3398C305.23 22.4798 305.18 20.6898 306.09 19.8098C306.98 18.9598 308.02 18.7198 309.19 18.7198L321.8 18.7598C323.03 18.7598 324.43 19.3498 325.12 20.1898C326.12 21.4298 325.42 22.7598 324.35 23.5298" fill="black"/>
<path d="M242.33 129.1C242.1 130.75 240.29 131.67 238.83 131.77C237.62 131.86 236.46 131.59 235.31 131.54C233.35 131.46 231.41 131.43 229.43 131.54L226.94 131.69C225.61 131.76 224.52 131.44 223.35 130.74C222.64 130.31 222.35 129.34 222.55 128.46C223.03 126.18 226.6 126.02 228.55 126.12L231.23 126.26C232.54 126.33 233.85 126.33 235.16 126.27C236.92 126.19 238.66 125.82 240.31 126.5C241.32 126.92 242.51 127.93 242.34 129.09" fill="black"/>
<path d="M219.34 201.87C219.34 203.09 218.53 204.03 217.28 204.48C216.38 204.79 215.46 205.12 214.37 205.03L212.11 204.85L194.15 204.76C193.34 204.76 192.11 204.25 191.57 203.86C190.81 203.32 190.33 202.29 190.36 201.44C190.6 200.95 191.07 200.21 191.39 199.78C192.13 199.45 193.08 199.13 193.93 199.12L207.47 199.06C208.36 199.06 209.11 198.9 210.02 199.05C210.66 199.15 211.46 199.12 212.12 199.07L214.8 198.9C216.53 198.79 219.33 199.6 219.32 201.88" fill="black"/>
<path d="M181.19 189.55C179.78 191.89 179.89 192.34 178.68 194.53L177.67 196.35C177.12 197.35 176.7 198.24 175.94 199.18C175.03 199.66 173.63 199.95 172.7 199.26C170.99 197.64 171.32 196.6 172.17 194.65C173.08 192.58 173.48 190.48 174.06 188.27C175.02 186.28 176.92 184.46 179.32 184.67C180.09 184.74 181.17 185.47 181.57 186.04C182.43 187.22 181.81 188.51 181.19 189.54" fill="black"/>
<path d="M264.13 296.58L262.67 299.04L261.99 300.19C260.9 302.04 259.85 306.11 257.26 306.48C255.67 306.71 253.99 304.32 254.8 301.88L255.83 298.79L256.92 295.47C257.89 293.72 257.54 293.28 259.3 292.15C260.26 291.53 264.02 291.2 264.79 293.07C265.27 294.24 264.72 295.58 264.12 296.59" fill="black"/>
<path d="M319.35 137.69C318.83 138.36 318.3 138.9 317.59 139.47C316.08 140.68 313.88 140.71 312.45 139.49C311.72 138.87 310.86 138.25 310.37 137.49C309.36 135.88 310.12 133.97 311.32 132.76C312.99 131.07 315.3 129.62 317.57 131.33C318.19 131.79 318.75 132.24 319.25 132.88C320.33 134.25 320.39 136.32 319.34 137.71" fill="black"/>
<path d="M180.6 270.83V272.25C180.57 274.24 180.5 276.19 179.97 278.06C179.63 279.27 178.81 280 177.42 279.97C176.69 279.95 176.27 279.7 175.9 279.21C175.53 278.7 175.08 278.12 174.97 277.48L174.28 273.49C173.92 271.45 174.09 269.28 175.32 267.53C175.51 267.27 176.06 266.84 176.32 266.64C177.1 266.05 177.96 266.11 178.78 266.58C180.24 267.44 180.62 269.18 180.61 270.83" fill="black"/>
<path d="M240.67 34.5598C239.49 35.0998 238.24 33.8198 237.64 33.0098L236.65 31.6698C236.15 30.9998 235.74 30.2898 235.39 29.5298L234.24 26.9298C233.93 26.2298 233.5 25.5298 233.12 24.8298C232.17 23.4198 231.57 21.3398 230.76 19.7198C229.89 17.9598 229 16.3298 228.27 14.5398L227.18 11.8698L226.29 9.73977C226.02 9.08977 225.56 8.44977 225.24 7.81977L224.56 6.48977C223.8 4.98977 223.39 3.31977 224 1.67977C224.3 0.849766 225.12 0.299766 225.88 0.00976562H226.24L227.02 0.349766C228.87 1.14977 229.77 4.56977 230.78 6.68977L231.71 8.59977L233.35 12.1698L234.23 13.9398L235.37 16.5398L236.43 18.7098C236.88 19.6198 237.34 20.5598 237.72 21.4998L238.72 23.8998C239.19 25.0298 239.75 26.0298 240.36 27.0798L241.02 28.2298C241.96 29.8598 243.06 33.4598 240.68 34.5698" fill="black"/>
<path d="M210.06 20.8698V22.3198C209.99 26.7598 209.44 30.4098 206.85 34.1498L205.39 36.2498L204.39 37.7498C203.42 39.1998 201.14 40.4298 200.08 40.2498C199.69 40.1898 199 39.5398 198.85 39.1798C198.14 37.4198 200.55 34.4498 201.6 32.1398L202.55 30.0498C203.55 27.8598 203.49 25.3998 203.64 23.0498C203.68 22.3398 203.79 21.6498 203.68 20.9898L203.11 17.4398C202.78 15.3098 200.84 10.8698 199.59 9.17977L198.59 7.82977C198.31 7.46977 198.28 6.37977 198.51 5.94977C199.61 4.01977 202.51 5.33977 203.37 6.41977L204.58 7.92977L205.38 8.89977C206.59 10.3798 207.59 11.9098 208.26 13.6998L209.13 16.0398C209.73 17.6498 210.09 19.1298 210.07 20.8498" fill="black"/>
<path d="M264.91 29.7498C263.39 32.5598 259.85 33.5698 256.92 32.7098C255.57 31.2198 255.22 29.3798 255.66 27.4498C256.03 25.8398 257.33 24.8298 258.65 24.0398C260.69 22.8098 262.11 23.5098 263.94 25.1198C265.19 26.2098 265.84 28.0298 264.91 29.7498Z" fill="black"/>
<path d="M208.51 116.04C207.48 117.2 205.5 117.45 204.18 117.03C203.44 116.79 203.14 116.43 202.65 115.97C200.98 114.39 198 113.95 197.41 111.83C196.88 109.95 198.32 107.98 200.04 107.48C201.62 107.02 203.52 108.47 204.58 109.41L205.62 110.34L206.99 111.67C207.85 112.5 209.73 114.7 208.52 116.04" fill="black"/>
<path d="M292.53 241.89C292.35 242.82 291.98 243.82 291.59 244.69L290 248.26C289.56 249.26 288.03 251.12 287.25 252.11C286.23 253.39 284.33 254.97 282.53 254.28C281.12 252.9 281.49 252.27 282.23 250.65C282.73 249.53 283.96 248.54 284.44 247.02L285.58 243.49C286.27 241.33 286.41 239.18 286.38 236.92C286.35 234.58 286.38 232.19 285.35 230.11L284.1 227.6C283.76 226.94 283.44 226.23 283.06 225.61L282.32 224.38C281.84 223.58 281.32 222.87 280.94 222.01C280.39 220.79 280.6 219.18 281.81 218.48C283.42 217.56 285.34 219.41 286.23 220.67C287.15 221.96 288.22 223.21 289.26 224.38C289.51 224.67 289.93 225.35 290.09 225.67C291.31 228.03 292.66 231.23 292.75 233.88C292.82 235.82 292.88 240.2 292.54 241.9" fill="black"/>
<path d="M264.57 244.8C264.32 245.17 263.8 245.86 263.45 246.11L262.28 246.93C261.54 247.45 260.51 247.47 259.59 247.48C258.04 247.5 257.14 246.74 256.34 245.52C255.57 244.36 255.27 243.13 255.6 241.68C255.87 240.51 256.78 239.59 257.9 238.81C259.34 237.81 261.21 237.76 262.69 238.83C263.43 239.37 264.41 239.92 264.75 240.8C265.26 242.12 265.35 243.62 264.56 244.8" fill="black"/>
<path d="M265.2 136.05C264.73 137.78 264.44 137.77 263.23 139.05C261.74 140.62 259.46 140.77 257.9 139.22C256.33 137.66 254.83 136 256.17 133.78C256.94 132.5 257.97 131.27 259.37 130.8C260.89 130.29 262.2 130.73 263.35 131.63C264.7 132.69 265.67 134.31 265.2 136.05Z" fill="black"/>
<path d="M209.76 296.99L209.07 298.07C208.16 299.48 206.18 301.21 204.33 300.87C203.51 300.72 202.45 300.07 201.88 299.5L200.97 298.59C200 296.83 200.08 293.17 202.04 292.13C203.67 291.26 205.65 291.23 207.4 292.06C208.43 292.56 209.32 293.82 209.74 294.93C209.94 295.45 209.81 296.43 209.76 296.98" fill="black"/>
<path d="M318.83 298.61C317.45 300.28 315.49 300.92 313.44 300.1C312.48 299.71 311.82 298.91 311.22 298.03C309.87 296.03 310.72 293.37 312.55 292.15C314.43 290.91 317.66 291.01 319.22 293.23C320.36 294.85 320.01 297.17 318.82 298.61" fill="black"/>
<path d="M290.82 85.3698C288.65 86.9898 284.85 86.2398 283.69 83.6598C283.12 82.3898 283.24 80.7298 284.03 79.5598C285.06 78.0098 284.7 78.4498 286.18 77.3998C286.63 77.0798 287.53 77.0698 288.13 77.0398C289.11 76.9598 289.75 77.3998 290.46 77.9498C292.77 79.7398 293.11 83.2998 290.82 85.3698Z" fill="black"/>
<path d="M347.73 81.6798C347.73 84.1698 345.71 86.1898 343.22 86.1898C340.73 86.1898 338.71 84.1798 338.71 81.6798C338.71 79.1798 340.73 77.1698 343.22 77.1698C345.71 77.1698 347.73 79.1798 347.73 81.6798Z" fill="black"/>
<path d="M346.83 30.6398C346.06 31.6998 345.07 32.5998 343.62 32.6598C341.81 32.7298 340.2 31.7098 339.22 30.2898C338.46 29.1898 338.11 27.9398 338.77 26.7298C339.65 25.1198 341.14 23.8098 343.16 23.8098C344.11 23.8098 345.43 24.3498 346.23 24.8798C346.5 25.0698 346.94 25.6598 347.12 25.9398C348.12 27.3998 347.8 29.3098 346.83 30.6498" fill="black"/>
<path d="M372.99 63.0298C372.59 63.9898 371.73 64.5498 370.67 64.8498C370.14 64.9998 369.12 64.5398 368.74 64.0898C368.08 63.2998 367.65 62.1998 367.59 61.1498C367.49 59.4498 367.49 57.7798 367.59 56.1098C367.7 54.4398 369.11 53.1698 370.62 53.2198C372.29 53.2598 373.42 54.5298 373.57 56.2198L373.72 57.8298C373.88 59.5598 373.63 61.4798 372.98 63.0198" fill="black"/>
<path d="M235.21 220.7L235.03 222.49C234.89 223.89 234.76 225.98 232.74 226.23C231.75 226.35 231.01 225.97 230.27 225.35C229.41 224.61 229.47 223.39 229.4 222.28L229.24 219.6C229.11 217.47 229.64 216.1 231.28 214.83C233.21 214.65 233.96 214.76 234.78 216.57C235.4 217.95 235.35 219.23 235.2 220.69" fill="black"/>
<path d="M291.36 114.95C291.34 115.38 290.82 115.96 290.32 116.19C289.44 116.57 288.5 116.28 287.67 115.92L284.55 114.57C283.43 114.08 282.12 113.55 281.32 112.73C280.22 111.6 280.44 110.05 281.57 109.24C282.71 108.42 283.88 108.9 285.01 109.41C285.8 109.77 286.54 110.12 287.27 110.54L289.33 111.74C290.3 112.31 291.41 113.89 291.35 114.95" fill="black"/>
<path d="M345.98 272.25C345.98 274.41 345.48 278.08 342.82 278C339.9 277.92 340.29 272.89 340.72 270.76C340.97 269.5 343.02 268.03 344.43 268.92C345.63 269.67 345.98 270.91 345.98 272.25Z" fill="black"/>
<path d="M266.65 200.19C265.4 201.69 263.36 200.74 262.37 199.57L260.73 197.61L259.82 196.53C258.21 194.6 258.28 194.2 257.54 192.01C256.45 188.81 255.29 188.06 255.48 184.11C255.55 182.52 255.26 180.79 255.85 179.29L257 176.36C257.35 175.48 257.73 174.69 258.02 173.81C258.62 171.95 259.75 170.42 261.03 168.98C262 167.89 263.92 165.43 265.7 166.49C268.68 168.26 264.54 171.97 263.72 175.24C263.13 177.59 261.97 179.79 261.93 182.52C261.88 184.88 262.23 187.31 262.93 189.52L263.85 192.39C264.13 193.28 264.59 194.27 265.06 195.05L266.25 196.98C266.72 197.73 267.38 199.3 266.64 200.19" fill="black"/>
<path d="M70.8299 91.4498C71.1699 92.2998 70.9699 93.0998 70.4099 93.6798C69.3999 94.7098 67.6199 93.8998 66.6199 93.0098C66.1999 92.6298 65.8299 92.2598 65.3999 91.8098L64.4899 90.8398L62.6399 89.0398C61.9699 88.3898 61.3399 87.2498 61.0799 86.2998C60.2499 83.3098 59.5399 82.1998 59.0699 78.9998C58.6899 76.3998 59.9399 72.3898 60.7299 69.8598C61.8199 66.3598 62.4999 65.7798 64.6699 62.8498C65.2699 62.0298 66.2599 60.9798 67.0699 60.2498C67.5299 59.8398 68.5199 59.5398 69.2299 59.3998C69.8699 59.2798 70.8799 59.8498 71.2499 60.3198C71.8199 61.0598 71.4899 62.0798 70.9499 62.7398C68.6599 65.5398 67.2499 68.6998 66.5399 72.2498C66.3399 73.2498 65.9199 74.2398 65.8599 75.2898C65.7899 76.6698 65.7099 78.1198 65.8699 79.5198C66.1199 81.5798 67.1699 83.4398 67.7499 85.3898C68.9299 89.3498 69.3599 87.8598 70.8199 91.4398" fill="black"/>
<path d="M95.2199 138.55C94.9699 139.12 94.7799 139.84 94.4999 140.34L93.2699 142.48C93.0399 142.89 92.6699 143.39 92.3999 143.76C91.2099 145.43 89.5299 148.17 87.2499 147.82C86.7099 147.74 86.0699 147.29 85.8699 146.92C85.5899 146.41 85.4499 145.46 85.7399 144.95L87.5999 141.68C88.0699 140.84 88.3799 139.91 88.6799 139.01L89.7099 135.89C90.2399 134.3 90.3899 132.56 90.5199 130.8C90.6899 128.41 89.7199 126.11 89.2799 123.74C88.8799 121.6 88.0199 119.25 86.5999 117.57C85.4799 116.24 84.6699 114.43 85.7099 112.76C86.3099 111.81 88.0999 112.11 89.3499 113.26C89.7699 113.64 90.1499 114 90.5199 114.41L91.6899 115.74L92.6099 116.79C93.8699 118.25 94.6799 119.84 95.2599 121.66C96.1399 124.39 96.6399 126.74 96.9799 129.58C97.2999 132.25 96.2799 136.06 95.2299 138.53" fill="black"/>
<path d="M70.6999 198.7C70.9699 199.39 71.2299 200.28 70.3799 200.97C68.8199 202.22 66.7099 200.78 65.5999 199.27L64.0199 197.09C63.6899 196.64 63.2899 196.13 62.9299 195.71C61.2499 193.69 61.3499 193 60.7299 190.91L59.4199 186.54C58.9099 184.84 58.8399 183.16 59.4199 181.45L60.7599 177.45C61.4399 173.85 62.6299 173.08 64.3499 170.69L65.3199 169.34C66.1299 168.16 68.9599 165.61 70.2699 166.9C71.6799 168.28 70.8299 170.31 69.9399 171.61L68.9799 173.01C68.4399 173.8 68.0399 174.62 67.7499 175.55L66.4299 179.94C65.3999 183.38 65.3199 183.98 66.3199 187.84C66.9399 190.26 66.9499 191.5 68.3099 193.93L69.5799 196.22C70.0299 197.02 70.3499 197.8 70.6999 198.7Z" fill="black"/>
<path d="M41.0099 293.09C41.1899 296.08 40.4199 298.97 38.9299 301.53L38.0199 303.11C37.1199 304.66 36.7799 305.21 35.5599 306.55C34.4799 307.73 32.5499 309.48 30.8499 308.56C29.2099 307.67 30.1099 305.21 30.9999 304.18L31.7599 303.29C32.5599 302.35 32.7999 301.19 33.2499 300.11C34.2799 297.63 34.6599 295.23 34.6599 292.53C34.6599 291.12 34.8399 289.73 34.6099 288.27C34.1299 285.28 34.1899 284.86 32.7899 281.99L31.4699 279.24C30.9699 278.21 30.1699 277.29 29.9499 276.12C29.7799 275.23 30.7199 274.3 31.5299 274.19C32.8799 274.01 33.8799 274.76 34.7399 275.63C35.4299 276.34 36.6999 277.62 37.1499 278.39L38.8899 281.34C40.4399 283.97 40.9199 286.23 41.0799 289.34C41.1499 290.6 41.2999 291.83 40.9999 293.09" fill="black"/>
<path d="M96.8399 238.88L95.8099 244.63C95.4099 246.88 93.9699 248.62 92.7899 250.48C91.5799 252.36 90.3999 253.6 88.6099 255.11C87.7399 255.85 86.3299 255.8 85.8299 254.93C85.1399 253.72 85.8199 252.59 86.3399 251.55C87.4699 249.26 89.0299 246.15 89.6099 243.79C90.0899 241.81 90.5199 237.76 90.3699 235.75C90.2599 234.16 89.7699 232.77 89.3399 231.27C88.2499 227.6 87.8899 227.42 85.9799 224.21C85.1799 222.86 84.8599 220.13 86.2699 219.44C88.3799 218.41 91.4599 222.51 92.7099 224.1L94.2899 226.1C95.7499 227.96 95.8199 230.9 96.5099 233.31C97.0499 235.15 97.1799 236.92 96.8299 238.87" fill="black"/>
<path d="M98.8899 303.56C97.8999 303.44 96.6199 302.39 96.2399 301.57L94.9999 298.91L93.9099 296.62L92.8699 294.42L92.1199 292.49L91.0899 290.47C90.5799 289.46 89.5299 287.52 89.1299 286.42C88.8199 285.56 88.5099 284.81 88.1399 284L86.9199 281.29L85.8999 279.13L84.7999 276.65C83.8799 274.58 82.8099 273.89 82.6299 271.33C82.5899 270.76 82.9999 269.69 83.4099 269.32C84.1999 268.6 85.6299 268.68 86.4399 269.26C86.7599 269.48 87.2999 269.88 87.4999 270.15C88.1699 270.99 89.4099 273.22 89.8699 274.2L90.9399 276.52L92.3499 279.76L93.3199 282C93.7199 282.93 94.1099 283.77 94.5699 284.69C94.7999 285.15 94.9799 285.75 95.1799 286.24L96.2099 288.78C96.5899 289.73 97.2699 290.58 97.7899 291.5C98.3399 292.48 98.6099 293.7 99.0499 294.8C100.2 297.6 99.9499 295.95 101.22 299.08C102.13 301.32 100.6 303.76 98.8899 303.56Z" fill="black"/>
<path d="M14.2199 186.96C14.1999 188 13.7099 189.03 13.4199 190.02C12.4699 193.21 11.1899 195.58 9.04993 198L6.61993 200.74C5.90993 201.53 5.01993 202.1 3.87993 201.92L2.78993 201.09C2.30993 199.85 2.82993 198.77 3.41993 197.73L4.82993 195.22L5.63993 193.88C8.62993 188.9 8.00993 177.73 5.63993 174.36L3.93993 171.95C3.31993 171.07 2.09993 167.7 3.77993 166.51C5.34993 165.39 7.74993 168.27 8.48993 169.36L10.0799 171.69L11.0699 173.19L12.1999 175.1C13.0599 176.57 14.0999 180.17 14.1799 181.82C14.2799 183.54 14.2499 185.2 14.2199 186.96Z" fill="black"/>
<path d="M18.2699 248.68C17.7699 249.22 17.0099 249.44 16.2099 249.42C12.5599 249.32 12.7999 246 11.7699 244L10.0199 240.62L7.59993 235L6.41993 232.29C6.00993 231.35 5.61993 230.5 5.11993 229.64L4.11993 227.94C4.01993 227.76 2.92993 224.51 2.38993 223.63L0.94993 221.29C-0.0700698 220.1 -0.45007 217.39 0.77993 216.08C1.42993 215.38 2.81993 215.25 3.63993 215.74L4.75993 216.42C5.06993 216.87 5.56993 217.47 5.73993 217.9L7.19993 221.48C7.36993 221.9 7.67993 222.31 7.91993 222.72C9.93993 226.21 9.24993 226.1 10.4199 228.42L11.7299 231.01L12.7899 233.02C13.2399 233.86 13.7599 234.73 14.1099 235.62L15.1599 238.33C15.4299 239.02 15.7199 239.65 16.0499 240.31L16.8999 241.99C17.4499 242.72 18.7699 245.93 18.9199 246.75C19.0499 247.44 18.7299 248.24 18.2999 248.7" fill="black"/>
<path d="M18.2899 141.64C17.6599 142.41 16.5999 142.84 15.5599 142.39C14.7899 142.06 13.7699 140.9 13.4699 140.31L12.3299 138.03L11.0699 135.41L10.0699 133.16L8.62993 130.13L7.70993 128.18L5.67993 123.23C5.54993 122.91 5.20993 122.43 5.02993 122.11C3.45993 119.43 3.34993 118.01 2.28993 116.15C1.76993 115.23 1.07993 114.45 0.61993 113.52C-0.0400699 112.14 -0.0600699 110.27 0.63993 109.01C1.28993 107.84 2.57993 107.67 3.59993 108.21C6.13993 109.56 6.07993 112.34 7.52993 114.98L8.68993 117.05C9.09993 117.79 9.45993 118.54 9.80993 119.32L11.1099 122.12L12.2199 124.78L13.3399 127.21L14.4599 129.65L18.6699 138.75C19.1499 139.78 18.8599 140.93 18.2699 141.65" fill="black"/>
<path d="M11.8299 85.8698C10.3699 87.0498 8.41993 87.2898 6.86993 86.2298C4.79993 84.8098 3.74993 82.1798 5.28993 80.0098C5.59993 79.5698 6.32993 79.0098 6.75993 78.7098C9.23993 76.9498 12.1799 78.5198 13.4299 80.5398C14.6499 82.4798 13.3499 84.6498 11.8399 85.8698" fill="black"/>
<path d="M38.7799 59.9698C38.6099 61.4498 38.3499 62.8998 37.2499 64.1398C36.7999 64.6498 35.8199 64.6998 35.2099 64.4298C34.7199 64.2198 34.0899 63.5198 33.9999 62.8498L33.5699 59.5198C33.4199 58.3898 33.8599 57.0098 34.4299 55.9898C34.9299 55.0898 36.2999 54.9298 37.1899 55.2398C38.9699 55.8398 38.9699 58.3898 38.7899 59.9798" fill="black"/>
<path d="M69.8699 345.12C69.7699 347.24 69.0499 349.24 68.3499 351.26C67.6999 353.15 67.1499 354.69 65.8899 356.33L64.6499 357.96C63.7899 359.09 62.4299 360.63 61.3199 361.6C60.5699 362.27 59.2799 362.45 58.5899 361.71C58.0199 361.1 57.6299 360.45 57.8499 359.66C58.4399 357.62 60.0299 356.26 60.5699 354.99C61.8999 351.82 61.9099 350.01 62.8499 347.28C63.6899 344.83 63.2699 342.55 62.4099 340.2C61.0899 336.59 61.2599 335.28 58.8799 332.5C57.5099 330.9 56.7499 328.71 57.4899 326.69C57.9299 325.52 59.6399 325.39 60.5799 326.16C61.4399 326.88 63.8399 328.99 64.3399 329.82L65.1599 331.18L66.6499 333.28C66.9299 333.67 67.4199 334.51 67.5599 334.96L68.9399 339.47C69.4999 341.32 69.5699 343.2 69.8599 345.11" fill="black"/>
<path d="M100.03 328.58C98.1399 331.03 98.7699 331.52 97.3099 334.57C96.9299 335.35 96.4299 336.13 96.1199 336.93L95.1799 339.36C94.8099 340.33 94.4399 341.19 93.9799 342.11L92.8099 344.49L91.4599 347.44L90.8099 348.76C89.6899 351.04 88.6999 353.62 87.5799 355.53C86.7199 357.01 84.6899 357.53 83.2999 356.3C83.0799 356.11 82.7399 355.4 82.6799 355.09C82.1099 352.64 83.5999 350.96 84.6199 348.97L85.9499 346.37L87.0899 344.13L88.1799 341.47L89.2499 338.96L90.5899 335.84L91.6899 333.2L92.7499 331.05L93.8299 328.91L95.0799 326.42L96.2899 324.03C96.5399 323.55 97.1299 322.88 97.5299 322.55C98.6799 321.6 100.16 321.71 101.03 322.85C102.52 324.82 101.33 326.93 100.06 328.59" fill="black"/>
</g>
<defs>
<clipPath id="clip0_2547_4644">
<rect width="375.92" height="362.19" fill="white"/>
</clipPath>
</defs>
</svg>
