<svg width="601" height="400" viewBox="0 0 601 400" fill="none" xmlns="http://www.w3.org/2000/svg">
<g clip-path="url(#clip0_2547_3136)">
<path d="M353.32 69.5799C352.42 70.3599 350.94 70.2499 349.96 69.5799C349.64 64.3699 348.79 59.3699 346.14 54.7999C341.98 47.6399 335.6 48.0199 327.74 48.5199L327.77 138.98C327.77 142.64 330.75 145.06 333.79 145.6L338.56 146.46C339.23 146.72 339.2 148.61 338.7 149.52H307.63C307.04 148.83 307.02 146.76 307.73 146.46C309.7 146.04 311.69 145.76 313.64 145.24C316.44 144.5 318.68 141.99 318.68 138.67L318.72 48.5699C312.73 48.1099 306.48 47.5799 302.31 51.7999C297.5 56.6799 297.02 63.3199 296.05 69.8999C295.09 70.1599 293.92 70.0699 292.75 69.6099V44.1899H353.31V69.5699L353.32 69.5799Z" fill="black"/>
<path d="M429.8 105.31L399 105.34C396.31 100.13 402.24 103.32 407.1 99.96C408.76 98.82 409.91 96.37 409.91 94.04V11.41C409.91 8.69001 408.52 6.14001 406.46 4.95001C404.15 3.61001 401.62 3.58001 399.04 3.16001C398.22 3.02001 398.21 0.32001 399.04 0.0100098L427.83 0.0600098C429.2 0.0600098 430.46 -0.35999 430.51 1.33001C430.6 4.15001 428.79 2.83001 424.05 4.29001C421.39 5.11001 419.19 7.44001 419.19 10.66L419.17 93.71C419.17 96.09 420.08 98.52 421.73 99.89C424.77 102.4 428.8 101.29 430.32 102.71C430.77 103.12 430.47 105.32 429.81 105.32" fill="black"/>
<path d="M600.19 172.81C599.96 173.41 598.85 173.87 597.93 173.92C594.07 174.14 591.15 176.84 591.15 181L591.05 277.91C591.05 279.17 587.72 278.82 587.29 277.8L547.46 183.5L547.09 265.71C547.78 269.51 550.11 271.95 553.92 272.11C554.65 272.28 555.75 272.66 556.09 273.16C556.45 273.71 556.26 275.41 555.55 275.71H533.59C531.07 270.5 536.92 273.5 540.24 269.76C541.34 268.52 542.04 266.39 542.04 264.46L542.02 181C542.02 176.77 538.78 173.95 534.98 173.82C534.23 173.8 533.28 173.5 533.19 173.04C533.06 172.39 533.03 171.19 533.3 170.7C533.58 170.22 535.07 170.4 535.7 170.4L551.49 170.45L585.82 251.61C586.8 228.01 585.85 206.07 586.32 183.7L585.67 178.81C583.25 172.13 577.56 174.81 577.09 172.9C576.95 172.35 576.97 171.33 577.19 170.84C577.42 170.34 578.84 170.39 579.45 170.39L599.53 170.43C600.22 170.43 600.48 172.12 600.2 172.81" fill="black"/>
<path d="M510.62 182.2C509.98 194.02 508.23 210.29 500.38 219.52C495.83 224.87 488.32 225.82 482.64 221.29C476.01 215.99 473.48 204.92 472.37 196.91C471.54 190.9 470.91 184.96 470.93 178.9L470.97 167.34C470.99 158.69 472.05 150.26 474.14 141.89C475.53 136.35 477.64 131.3 481.17 126.98C486.17 120.87 494.71 120.57 500.07 126.39C508.84 135.91 510.01 154.1 510.75 166.52C511.07 171.85 510.9 176.87 510.61 182.2M519.37 152.32C517.64 141.87 513.53 131.06 505.81 123.79C501.3 119.54 495.73 117.64 489.52 117.94C475.78 118.6 468.09 131.61 464.47 143.39C460.17 157.39 459.94 176.22 461.83 190.78C463.3 202.09 467.22 214.61 475.76 222.53C483.13 229.36 494.27 230.48 502.91 225C512.54 218.88 517.47 204.98 519.3 194.37C521.73 180.37 521.69 166.33 519.37 152.31" fill="black"/>
<path d="M211.41 396.78L149.65 396.8C148.81 395.98 148.81 394.08 149.52 393.37C152.42 392.98 155.57 392.81 157.64 390.4C158.41 389.51 159.21 387.5 159.21 386.04L159.19 302.54C159.19 300.23 158.03 297.86 156.4 296.62C154.46 295.15 151.91 295.2 149.64 294.76C148.81 294.59 148.78 291.62 149.62 291.49L209.23 291.47L209.25 316.81C208.63 317.63 206.71 317.37 206.03 316.69C205.74 311.78 205.31 307.12 203.11 302.71C201.21 298.91 197.24 296.52 192.92 296.04C186.5 295.32 180.2 295.43 173.79 295.97C170.47 296.26 168.06 298.83 168.05 302.26L167.99 337.4C167.99 337.9 168.59 339.11 169.11 339.11C174.23 339.16 179.6 339.23 184.67 338.73C196.54 337.58 192.97 325.26 195.47 324.7C196.29 324.51 198.07 324.6 198.07 325.68V358.16C197.52 358.97 195.16 359.1 194.83 358.35L193.55 351.83C192.65 347.22 189.4 344.14 184.49 343.68C179.18 343.17 174.31 343.18 169.04 343.32C168.28 343.34 168 344.94 168 345.68L168.07 385.95C168.07 389.75 170.96 392.32 174.51 392.36L189.01 392.51C195.94 392.59 202.64 390.33 205.41 383.56C206.99 379.69 207.62 375.74 207.93 371.53C207.99 370.71 208.28 369.51 208.86 369.32C209.55 369.09 210.88 369.27 211.36 369.87L211.38 396.77L211.41 396.78Z" fill="black"/>
<path d="M223.19 176.42L203.19 176.46L214.97 131.27L225.76 175.62C226.03 176.73 223.94 176.41 223.19 176.42ZM251.85 216.83C247.14 215.47 244.15 211.64 242.98 207L218.87 112.24C218.1 111.57 215.28 111.25 214.99 112.33L190.04 207.6C189.1 211.19 186.71 214.35 183.74 215.91C182.69 216.46 181.75 216.81 181.56 217.48C181.35 218.25 181.62 219.94 182.34 219.94L203.38 219.91C204.12 219.55 204.27 217.17 203.53 216.96L197.82 215.33C195.15 213.81 194.41 211.38 194.99 208.41L202.22 180.73L227.27 180.75L234.13 209.2C234.36 212.08 233.57 213.88 231.37 215.25C229.54 215.85 227.61 216.38 225.65 216.9C224.83 217.11 224.79 219.86 225.78 219.91L251.83 219.93C252.43 219.14 252.5 217.26 251.85 216.81" fill="black"/>
<path d="M100.3 260.45L90.2498 260.33L90.2798 222.79C90.2798 217.33 96.9698 217.16 100.3 217.07C108.08 216.87 116.24 219.31 119.55 226.95C122.38 233.5 122.64 240.95 119.99 247.81C116.74 256.23 108.98 260.57 100.31 260.46M139.4 314.88C134.5 313.66 130.39 310.73 128.23 305.87L109.56 263.79C118.68 261.13 126.77 257.34 130.14 248.16C134.05 237.55 131.85 223.59 120.81 217.35C116.38 214.85 111.33 213.06 106.03 213.04L71.9198 212.91C71.3998 213.64 71.3698 215.66 72.0798 215.85C74.4698 216.51 76.8698 216.3 78.7998 217.89C80.5498 219.34 81.4098 221.97 81.4098 224.45V306.69C81.4098 308.85 80.7598 311.2 79.3198 312.56C75.8298 315.88 70.9998 313.3 71.4598 316.93C71.6098 318.07 72.6198 318.07 73.8598 318.07H99.5698C99.8498 317.09 99.8298 315.73 99.4998 315.1L95.0398 314.2C92.5198 313.69 90.3198 311.21 90.3198 308.26L90.2298 264.91C93.7498 264.62 96.9398 264.53 100.5 265C108.75 282.84 116.09 300.07 122.71 317.99L135.4 318.08C136.71 318.08 138.26 318.41 139.53 317.97C140.37 317.68 140.21 315.11 139.39 314.88" fill="black"/>
<path d="M57.0902 364.17C54.6302 379.15 48.9101 400.13 29.9202 399.6C24.5502 399.45 19.6502 397.55 15.6002 393.95C2.46015 382.26 -0.319849 359.46 0.0301512 342.81C0.370151 326.16 3.28015 307.32 15.6102 295.13C21.3002 289.5 29.0902 287.59 36.6802 290.19C44.0202 292.7 46.5502 297.12 48.4602 297.3C48.8402 297.34 49.6902 296.67 49.8102 296.28L51.1302 292.11C51.3802 291.31 53.8602 291.49 54.4602 292.27L54.4102 321.67C53.7102 322.52 51.3402 322.54 50.9502 321.7C49.1902 312.01 45.1402 299.06 35.7102 294.54C30.7302 292.15 25.2302 293.34 21.4502 297.41C12.9402 306.58 10.7402 324.08 10.2702 336.29C9.78015 349.2 10.1002 362.04 13.6202 374.41C15.8602 382.26 20.7402 392.56 29.7002 393.95C33.8102 394.58 37.7102 392.91 40.8502 390.19C48.3401 383.69 51.3602 372.8 53.4502 363.12C54.5902 363.2 55.7602 363.56 57.0902 364.15" fill="black"/>
</g>
<defs>
<clipPath id="clip0_2547_3136">
<rect width="600.3" height="399.61" fill="white"/>
</clipPath>
</defs>
</svg>
