<svg width="795" height="270" viewBox="0 0 795 270" fill="none" xmlns="http://www.w3.org/2000/svg">
<g clip-path="url(#clip0_2552_6362)">
<mask id="mask0_2552_6362" style="mask-type:luminance" maskUnits="userSpaceOnUse" x="0" y="0" width="795" height="270">
<path d="M794.54 0H0V269.7H794.54V0Z" fill="white"/>
</mask>
<g mask="url(#mask0_2552_6362)">
<path d="M794.52 43.62L794.54 48.04C794 48.95 793.97 50.07 793.88 51.15C793.84 51.62 793.55 51.92 793.28 52.24C792.91 52.68 792.67 53.26 792.37 53.75L791.86 54.61C791.61 55.03 791.19 55.41 790.86 55.8C790.3 56.45 789.67 56.92 789.01 57.45L787.78 58.44C787.5 58.66 787.23 59.17 786.83 59.13C786.18 59.07 785.78 59.19 785.31 59.54C784.56 60.12 783.61 60.4 782.76 60.79C780.73 61.72 781.77 60.97 779.74 61.22C779.31 61.27 778.86 61.31 778.45 61.43C774.25 62.68 772.09 61.22 769.74 61.23C769.16 61.23 768.54 61.42 767.94 61.2L765.81 60.42L764.33 59.89C764.01 59.78 763.6 59.68 763.31 59.53C761.82 58.75 762.91 59.73 760.91 58.91C759.56 58.36 760.07 58.07 757.99 57.07C756.87 56.53 756.33 55.42 755.9 54.39C755.55 53.52 755.54 52.67 755.59 51.73C755.61 51.28 755.57 50.72 755.55 50.21L755.48 48.43C755.37 45.97 755.11 45.83 755.23 43.19C755.27 42.29 756.56 41.46 756.74 41.46H758.26C758.54 41.63 759.01 42 759.24 42.2L759.67 43.79C759.82 44.35 759.9 44.96 760.09 45.48C760.09 45.48 760.09 45.47 760.09 45.46C760.09 45.46 760.09 45.47 760.09 45.49C760.22 45.9 761.49 49.53 761.36 48.74L761.72 50.33C761.79 50.63 762.24 50.82 762.45 51.07C762.76 51.43 763.11 51.85 763.35 52.25C765.11 55.15 766.85 55.3 768.17 56.5C768.54 56.84 768.88 57.05 769.3 57.28C770.03 57.68 770.66 57.85 771.5 57.86C772.56 57.88 773.66 58.33 774.75 58.29C775.52 58.26 776.2 58.22 776.97 58.29C777.68 58.36 778.39 57.96 779.08 57.83C780.11 57.65 780.33 58.05 781.45 57.44L782.71 56.74L783.51 55.81C783.96 55.28 785.1 55.61 785.36 54.32C785.43 53.98 785.84 53.41 786.13 53.18C786.54 52.86 786.82 52.59 787.02 52.15L787.55 50.99C788.06 49.86 788.25 48.55 788.21 47.32C788.13 44.71 788.17 46.23 787.73 44.27C787.58 43.61 787.12 43.07 786.81 42.47C786.41 41.71 785.99 41.05 785.27 40.52C784.8 38.21 783.55 38.71 782.88 37.65C782.6 37.22 782.03 36.99 781.71 36.62C781.35 36.21 781.01 36.18 780.57 35.93C779.93 35.56 779.18 35.1 778.61 34.67C778.08 34.26 777.9 33.79 777.01 33.86C776.44 33.91 775.8 33.3 775.26 33.08C774.91 32.93 774.4 32.85 774.19 32.58C773.73 31.98 773.2 31.74 772.55 31.43C772.09 31.21 771.69 31.04 771.2 30.88C768.97 30.15 768.99 29.36 768.13 29.04C767.76 28.9 767.09 28.99 766.85 28.65C765.53 26.8 765.42 27.39 763.74 25.96C761.9 24.39 762.13 23.38 761.2 22.6C760.29 21.84 760.48 21.75 759.94 20.52L759.84 18.82C759.81 18.23 759.77 17.7 759.38 17.2V13.88C759.66 13.28 759.82 12.7 759.85 12.03L759.91 10.53C760.15 10.08 760.41 9.59998 760.67 9.16998C760.91 8.76998 761.37 8.43998 761.6 8.01998C762.03 7.21998 762.48 6.49998 763.11 5.84998L764.46 4.44998C766.29 3.72998 766.14 2.97998 768.19 2.05998C769.87 1.30998 769.83 2.12998 770.85 1.22998C771.15 0.95998 771.74 1.04998 772.08 0.88998C773.96 0.0999804 774.27 0.62998 776.06 -1.95317e-05L780.17 -0.0200195C780.59 0.18998 781.12 0.14998 781.62 0.23998C783.6 0.59998 783.58 0.0699804 784.73 0.78998C785.56 1.30998 786.34 0.58998 787.24 1.49998C787.41 1.62998 787.86 1.71998 788.08 1.73998C788.79 1.38998 789.46 1.75998 790.07 2.12998C790.62 2.46998 791.23 2.59998 791.66 3.08998C792.77 4.35998 793.18 4.00998 793.09 5.08998L792.96 6.54998L792.79 8.05998L792.73 10.96C792.69 12.66 792.87 12.19 792.33 14.03C792.24 14.33 791.71 14.83 791.38 14.82C790.79 14.8 790.2 14.8 789.64 14.73C788.53 14.58 788.17 12.27 788.13 11.42C788.08 10.53 787.68 9.79998 787.19 9.08998C785.99 7.37998 785.81 8.59998 784.86 6.64998L783.85 5.91998C782.83 5.88998 780.7 4.86998 779.87 4.78998C778.46 4.64998 777.1 4.73998 775.67 4.77998C775.43 4.77998 775 4.93998 774.74 4.98998C774.09 5.11998 773.55 5.43998 772.99 5.77998L771.73 5.85998C770.99 5.89998 770.72 6.31998 770.33 6.83998C770.04 7.22998 769.43 7.76998 769.02 7.95998C768.11 8.37998 768.07 8.97998 767.78 9.79998C767.52 10.53 766.67 11.07 766.49 13.52C766.44 14.24 766.4 14.9 766.53 15.63C766.6 16.01 766.45 16.61 766.57 16.96C767.05 18.35 767.59 19.64 768.36 20.88C768.56 21.22 769.84 22.35 770.2 22.6L772.31 24.08C772.53 24.23 772.9 24.37 773.09 24.57C773.31 24.81 773.62 25.27 773.95 25.25C774.74 25.2 775.16 25.55 775.79 25.89L777.68 26.93C778.07 27.14 778.33 27.52 778.83 27.46C779.39 27.39 779.73 27.64 780.05 28.06C780.27 28.33 780.73 28.52 781.05 28.71L782.11 29.32L784.36 30.23C784.8 31.31 785.78 31.92 786.92 32.01L787.64 32.85L788.87 33.86C789.16 34.1 789.4 34.37 789.66 34.66L790.37 35.43C790.8 35.91 791.42 36.31 791.76 36.85L792.3 37.69C792.71 38.33 793.06 38.95 793.55 39.52C794.02 40.06 793.72 40.97 794.16 42.51L794.43 43.48C794.43 43.48 794.5 43.63 794.51 43.63" fill="#90BEFB"/>
<path d="M681.31 195.44L681.22 197.9L681.16 201.52C681.14 202.71 680.86 203.88 680.31 204.97C678.6 204.96 678.63 205.56 677.18 205.56H670.8L669.29 205.28L664.8 205.23L660.37 205.13L641.54 205.17C639.73 205.42 638.3 205.37 636.52 205.4C636.01 205.4 635.5 205.31 635.07 205C635.42 204.26 636.04 203.98 636.68 203.65C636.86 203.56 637.17 203.24 637.36 203.22C638.58 203.11 639.55 202.4 640.29 201.45C640.55 201.12 641.21 200.97 641.6 200.79C642.32 200.45 642.38 199.38 642.59 198.72L643.08 198.16C643.21 197.82 643.24 197.32 643.39 197.01C644.17 195.43 643.8 195.11 643.99 194.44C644.15 193.87 644.4 193.38 644.42 192.78L644.52 190.12L644.41 161.05L644.3 159.46C644.25 158.69 644.32 157.3 643.99 156.5C643.18 154.53 644.16 155.17 643.21 153.68C643.02 153.38 642.94 152.86 642.78 152.53L642.29 151.54C641.85 150.65 641.12 150.05 640.31 149.52C639.81 149.2 639.4 149.05 638.76 149.03C638.48 149.03 638.07 148.79 637.78 148.71C637.29 148.58 636.92 148.4 636.47 148.2L635.15 147.6C634.56 147.33 634.6 146.33 635.04 145.89C635.23 145.7 635.74 145.57 635.98 145.6C636.95 145.75 637.8 145.79 638.75 145.83L640.02 145.89L640.98 145.99L660.92 145.87L664.19 145.73L667.6 145.65L668.7 145.48L674.9 145.44C675.19 145.44 675.55 145.55 675.89 145.61L676.48 146.93C676.59 147.19 676.55 147.55 676.52 147.86C676.44 148.68 676.58 149.55 676.45 150.34C676.29 151.3 676.31 152.27 676.19 153.22L676.12 153.76L676.1 156.07C676.1 156.31 675.62 156.61 675.44 156.75C674.69 157.35 672.61 154.67 672.93 155.25L672.12 153.77C671.96 153.48 670.46 152.54 669.76 151.56C669.35 150.99 668.48 151.13 667.89 151.02L666.63 150.79C665.42 150.57 664.26 150.28 663.02 150.23L661.54 150.16C659.95 150.09 658.4 150.1 656.83 150.2C655.44 150.29 654.11 150.66 652.91 151.35C652.48 151.6 652.05 152.11 651.79 152.51L651.28 153.3C650.8 154.04 650.35 154.98 650.32 155.88L650.26 158.58C650.24 159.24 650.16 159.89 650.26 160.55C650.3 160.8 650.21 161.11 650.21 161.37L650.25 171.86C650.25 172.17 650.45 172.74 650.66 172.92C650.89 173.11 651.37 173.36 651.63 173.42C652.35 173.45 653.03 173.45 653.71 173.39C655.11 173.27 654.02 173.49 655.84 173.35L657.23 173.24C657.66 173.21 658.08 172.92 658.51 172.84C660.81 172.42 661.14 173.27 662.9 172.13C663.8 171.55 664.85 171.11 665.38 170.07C665.56 169.72 665.81 169.39 666.02 169.03L666.59 168.03L667.76 166.35C667.97 166.04 668.72 165.85 668.98 166.11C669.85 167 669.97 168.22 669.8 169.37C669.54 171.12 669.43 170.14 669.2 172.39L669.1 173.37L668.35 175.6C668.16 176.14 668.2 176.7 667.92 177.19C667.58 177.77 667.8 178.52 667.62 179.12C666.66 182.37 667.55 182.61 666.97 184.46C666.89 184.73 666.37 184.75 666.15 184.78C665.46 184.87 665.19 184.55 664.95 184.01C664.73 183.51 664.22 180.86 663.38 179.89L662.55 178.93C662.12 178.44 659.89 176.98 659.4 176.97L654 176.85C653.63 176.84 650.9 176.35 650.43 177.53C650.34 177.76 650.24 178.12 650.32 178.36C650.45 178.77 650.31 179.08 650.32 179.49L650.36 191.95C650.36 192.06 650.43 192.31 650.44 192.41C650.36 192.84 650.42 193.31 650.44 193.78L650.51 195.22L651.12 197.11C651.31 197.69 651.51 198.05 651.87 198.5L653.24 200.2C653.4 200.4 653.57 200.99 653.86 200.99C655.93 201.06 655.25 201.63 656.5 201.75L657.37 201.83L663.23 201.87C665.94 201.89 667.72 201.72 670.36 201.01C671.04 200.83 671.87 201.05 672.51 200.59C673.14 200.14 673.94 199.73 674.45 199.19C674.83 198.79 675.11 198.4 675.53 198.01C675.95 197.63 676.06 196.87 676.44 196.42C676.83 195.94 677.03 195.45 676.94 194.81C676.81 193.97 677.1 193.28 677.37 192.55C677.55 192.05 677.66 191.69 678.08 191.31C678.39 191.03 678.69 190.62 679.05 190.41C679.58 190.1 680.13 190.28 680.55 190.57C681.02 190.9 681.14 191.34 681.18 191.95L681.3 193.74C681.34 194.32 681.33 194.85 681.31 195.44Z" fill="#90BEFB"/>
<path d="M413.96 150.18C413.96 151.2 412.3 151.12 411.57 151.13L403 151.17C402.38 151.17 401.73 151.03 401.12 151.09C400.42 151.16 400.07 150.91 399.67 150.39C399.57 150.26 399.28 150.08 399.22 149.92C399.04 149.44 400.06 147.77 400.31 147.26L401.01 145.85C401.28 145.3 401.64 144.94 401.5 144.23C401.4 143.74 401.55 143.24 401.87 142.83C402.08 142.56 402.04 142.05 402.18 141.76C402.66 140.73 403.3 139.8 403.47 138.65C403.52 138.34 403.41 137.83 403.54 137.58L404.26 136.14C404.48 135.69 404.87 135.26 404.89 134.68C404.89 134.45 405.32 134.18 405.41 133.97C405.6 133.52 405.92 133.34 406.4 133.34C408.16 133.34 407.76 134.71 408.93 136.22C409.45 136.89 409.24 137.74 409.47 138.49L410.09 139.93C410.49 140.87 411.31 141.34 411.81 143.55C411.98 144.32 412.02 145.06 412.65 145.6C412.72 146.77 413.97 147.93 413.97 148.38V150.17L413.96 150.18ZM436.73 180.13L435.69 179.13C435.42 178.87 435.11 178.51 434.83 178.2L434.59 176.97L434.28 176.56C434.02 176.21 433.78 175.96 433.46 175.65C433 175.19 432.79 174.42 432.45 173.85C431.3 171.99 432.37 173.64 431.52 171.2C430.54 168.39 430.57 169.76 430 168.24C429.88 167.92 429.5 167.48 429.48 167.14C429.38 165.83 428.63 164.93 428.16 163.78L427.57 162.36C426.93 160.82 427.71 161.32 426.77 160C425.57 158.32 426.19 158.44 425.37 157.52C424.92 157.02 424.85 156.55 424.82 155.9C424.79 155.26 424.33 154.62 424.14 154.01C423.49 151.94 422.66 152.47 422.7 150.65C422.7 150.24 422.25 149.76 422.13 149.4C421.92 148.76 421.56 148.38 421.28 147.8L420.72 146.67C420.52 146.27 420.56 145.75 420.43 145.34C420.29 144.88 420.17 144.23 419.93 143.87L419.14 142.63C418.93 142.3 418.75 141.77 418.53 141.48C416.87 139.29 418.15 139.71 416.67 136.88L415.73 135.07C414.92 133.5 415.83 134.18 414.95 132.61C414.76 132.26 414.58 131.94 414.34 131.63C413.98 131.16 413.83 130.58 413.57 130.07C413.3 129.53 413.09 129.14 413.11 128.5C413.14 127.74 412.51 127.16 412.17 126.55C411.99 126.23 411.93 125.7 411.64 125.51C410.26 124.58 411.18 124.11 410.16 123.59C409.69 123.34 409.27 123 408.81 122.74C408.48 122.55 407.61 122.55 407.26 122.72C404.13 124.22 404.7 125.64 403.2 127.81C402.86 128.31 402.68 128.85 402.46 129.4C402.31 129.77 401.94 130.09 402.07 130.56C402.26 131.26 401.79 131.7 401.58 132.25C401.35 132.84 401.18 133.42 400.88 133.99L400.15 135.44C400.11 136.43 399.89 137.27 399.51 138.18C398.9 139.67 399.01 138.2 398.04 141.27C397.66 142.48 397.91 142.89 397.59 143.41C396.68 144.92 397.47 144.17 396.41 145.91C395.02 148.17 395.69 148.54 395.31 149.25L394.61 150.56C394.39 150.98 394.3 151.36 394.18 151.83C394.02 152.46 393.39 153.04 393.45 153.77C393.54 155.12 393.01 155.55 392.4 156.92C392.24 157.29 391.88 157.56 391.7 157.89C391.45 158.34 391.49 158.99 391.16 159.48C390.85 159.95 391.11 160.7 390.89 161.2L389.52 164.26L389.04 165.1L388.42 166.62C388.33 166.84 388.25 167.31 388.26 167.56C388.28 168.16 388.05 168.46 387.81 168.93L387.17 170.2C387 170.54 386.99 171.15 386.77 171.45C385.65 172.96 386.63 172.75 385.78 174.57C384.57 177.15 385.28 175.29 384.22 177.15C383.95 177.62 383.72 178.02 383.53 178.56L382.79 179.39L381.69 180.37C381.29 180.72 381.02 180.89 380.49 180.9C379.75 180.92 379.41 181.67 379.42 182.36C379.42 182.72 379.53 183.33 379.99 183.37C382.57 183.59 382.25 182.99 384.11 182.89C385.31 182.83 386.5 182.89 387.71 182.9L392.29 182.96L393.47 183.03C394.39 183.08 395.58 183.42 396.29 183.38L397.7 183.31L398.59 182.97C398.79 182.89 399.06 182.77 399.13 182.62C399.4 182.1 398.7 181.06 398.34 180.88C397.77 180.61 397.09 180.94 396.52 180.76C394.42 180.1 394.96 179.82 393.7 179.47C393.42 179.39 393.15 179.12 392.87 178.95C392.39 178.63 391.66 178.51 391.32 177.99C390.07 176.14 390.14 174.85 390.96 172.93C391.23 172.29 391.43 171.68 391.76 171.07C392.8 169.17 391.84 168.98 393.44 166.14C393.96 165.24 394.29 164.27 394.71 163.28C394.8 163.06 394.65 162.51 394.74 162.28L395.19 161.04C395.35 160.61 395.46 160.07 395.72 159.69C396.13 159.1 396.32 158.53 396.56 157.86C396.73 157.37 396.94 156.93 396.95 156.38C396.96 155.27 398.62 154.59 399.09 154.59L414.39 154.52C414.75 154.52 415.18 154.61 415.56 154.64C415.8 154.84 416.22 155.27 416.4 155.57L417.65 157.67C417.97 158.21 418.22 158.88 418.47 159.49C418.68 159.97 418.47 160.68 418.86 161.13C419.88 162.32 419.18 162.08 420.47 164.15C420.67 164.47 420.66 165.09 420.89 165.4C421.77 166.61 420.89 166.34 421.66 167.9C421.91 168.4 422.18 168.81 422.54 169.27C422.85 169.67 422.92 170.49 423.25 170.82C423.85 171.44 423.63 171.99 423.81 172.68C424.27 174.47 424.47 176.3 423.53 178.01C423.37 178.3 422.99 178.51 422.65 178.58C422.12 178.7 421.79 179.03 421.34 179.29C419.44 180.42 419.72 179.77 418.29 180.7H416.83C416.71 180.7 416.38 180.85 416.34 180.96L415.9 182.29C416.23 183.1 417.03 183.44 417.91 183.33L419.25 183.18C420.07 183.08 420.82 182.86 421.64 182.84L426.16 182.73C427.9 182.68 429.61 182.65 431.37 182.68C431.7 182.68 432.09 182.77 432.43 182.76C434.86 182.64 434.56 183.34 437.28 183.2C438.01 183.16 438.75 183.09 439.21 182.41C438.63 179.81 437.82 181.23 436.72 180.16" fill="#90BEFB"/>
<path d="M305.26 110.19L305.21 114.88C305.19 116.71 303.26 117.97 302.09 117.97L294.94 118L292.73 117.72C292.07 117.64 291.47 117.76 290.81 117.83C290.35 117.88 289.79 117.68 289.32 117.67L285.48 117.6L279.27 117.53C275.61 117.49 271.98 117.45 268.33 117.57L265.32 117.67L264.25 117.75C263.75 117.79 263.17 117.95 262.69 117.93C262.03 117.9 261.44 117.83 260.78 117.87C260.25 117.9 259.62 117.63 259.67 117.05C260.24 115.89 260.91 116.43 261.68 115.72C262.14 115.3 262.59 114.97 263.19 114.79C263.58 114.67 263.84 114.41 264.14 114.17C264.69 113.75 265.2 113.35 265.69 112.88C266.45 112.17 266.61 111.71 267 110.79C267.41 109.82 267.87 108.81 268.02 107.73C268.15 106.8 268.57 105.91 268.58 104.97L268.63 98.7801C268.63 98.2301 268.79 97.6801 268.86 97.1201C268.88 96.9201 268.8 96.6401 268.8 96.4101L268.76 80.5001C268.76 79.6401 268.84 78.8901 268.74 78.0401C268.67 77.4401 268.55 76.8201 268.54 76.2101L268.44 70.5701C268.43 70.0501 268.3 69.4201 268.19 68.9301L267.67 66.7001C267.56 66.2501 267.34 65.7901 267.15 65.3601C266.6 64.1001 266.54 64.4101 266.06 63.0601C265.41 62.5701 264.59 62.2701 264.02 61.7501C263.56 61.3301 263.22 61.0501 262.58 60.9301C261.98 60.8101 261.41 60.4401 260.74 60.6201C260.38 60.7101 259.76 60.7301 259.55 60.3301L258.92 59.1501C259.06 58.2701 259.8 57.8901 260.57 58.0001L262.23 58.2401L263.82 58.4401C264.27 58.4901 264.79 58.5701 265.28 58.5701L284.07 58.4601L287.5 58.3401C288.27 58.3101 289.02 58.1001 289.83 58.1601C290.97 58.2501 292.17 57.8601 293.4 57.8501L299.41 57.8201C299.82 57.8201 300.35 58.3101 300.66 58.5801C300.7 59.3901 300.72 60.2301 300.66 61.0201C300.51 62.7401 300.68 62.3301 300.68 63.8301V65.4901C300.68 66.5101 300.91 68.5601 299.86 69.1001C299.54 69.2601 298.76 69.2401 298.54 68.9901L297.78 68.1401C296.7 66.9301 297.23 67.3401 296.53 66.1301C296.1 65.3801 295.46 64.9501 294.6 64.7901L293.84 64.1001C293.29 63.8701 292.81 63.6601 292.31 63.4101L291.23 62.8801C290.94 62.7401 290.32 62.6001 289.95 62.6001L279.86 62.6401C277.4 62.5901 277.78 63.3401 276.78 64.2301C275.09 65.7301 274.66 66.1901 274.85 68.6401C274.89 69.2001 274.56 70.7901 274.56 71.5701C274.56 72.0201 274.54 72.4201 274.54 72.8701L274.48 77.0701C274.48 77.8001 274.4 78.4501 274.5 79.1801C274.6 79.9401 274.48 80.4801 274.5 81.5201L274.56 84.2401C274.57 84.6301 274.84 85.1701 275.08 85.4701C275.5 86.0001 276.15 86.0301 276.76 86.0201L278.52 85.9701C279.1 85.9601 279.64 86.0101 280.25 85.8801C280.59 85.8101 280.96 85.8501 281.27 85.8201C282.13 85.7501 282.96 85.5901 283.81 85.4401C284.61 85.2901 285.95 84.6701 287.03 84.3501C287.61 84.1801 288.11 84.0901 288.6 83.6601C288.91 83.3901 289.32 82.9901 289.52 82.6401L290.28 81.3601C290.73 80.6001 290.48 80.0901 291.61 79.1901C291.98 78.9001 292.46 78.4301 293.05 78.7501C293.35 78.9101 293.78 79.4401 293.92 79.7901C294.19 80.4401 293.99 81.1201 293.88 81.7401L293.68 82.8201L293.45 84.0701C293.37 84.5201 293.52 85.1701 293.37 85.5801L293.01 86.5701L292.56 87.7901C292.44 88.1101 292.44 88.5701 292.29 88.9001C291.97 89.6201 291.38 92.8501 291.37 93.4201L291.34 95.3101L291.23 96.6501C291.2 97.0901 291.01 97.4201 290.66 97.5101C290.17 97.6301 289.89 97.4701 289.61 97.0601C289.03 96.2101 288.72 94.9801 288.52 93.9201C288.44 93.5101 288.01 93.2101 287.84 92.8501C287.6 92.3101 287.69 91.3001 287.07 90.9901C286.22 90.6701 285.4 90.4201 284.62 89.9301C284.22 89.6801 283.64 89.7101 283.16 89.5901C282.68 89.4701 282.7 89.0801 281.31 89.0601L278.98 89.0301C277.46 89.0101 278.08 88.5601 276.31 88.8701C275.43 89.0201 274.72 89.4801 274.62 90.5101C274.37 93.0801 274.5 94.7501 274.56 97.3401L274.68 102.91L274.76 104.56C274.78 105.01 275.06 105.58 275.03 106.02C274.95 107.14 274.9 108.19 275.19 109.29C275.3 109.71 275.56 110.08 275.81 110.45C276.08 110.83 276.23 111.49 276.59 111.75C277.01 112.05 277.29 112.29 277.63 112.64C278.66 113.71 280.38 114.23 281.83 114.45C284.63 114.88 284.78 114.33 287.31 114.54C287.9 114.59 288.43 114.63 289.02 114.54L292.17 114.02C293.1 113.87 293.81 113.76 294.68 113.41L296.33 112.74C296.69 112.59 297.14 112.34 297.47 112.24C298.07 112.06 298.53 112.05 298.96 111.54C299.3 111.14 299.65 110.73 299.69 110.16C299.89 109.94 300.25 109.59 300.4 109.37L301.34 107.21C302.19 105.26 301.36 104.86 301.95 103.95C302.17 103.62 302.35 103.27 302.58 102.97C302.92 102.53 305.08 102.46 305.16 103.17L305.38 105.41L305.51 106.47C305.66 107.75 305.29 108.96 305.28 110.24" fill="#90BEFB"/>
<path d="M560.7 31.7C560.64 32.11 560.64 32.67 560.44 33C560.02 33.71 559.26 33.96 558.51 33.9C557.95 33.86 556.93 33.45 556.82 32.74C556.5 30.54 557.43 28.79 555.38 27.15C554.88 26.75 554.49 26.39 554.17 25.82L553.25 25.27C552.86 25.04 552.47 24.82 551.99 24.86C550.23 25 549.35 24.32 547.63 24.29L543.48 24.22C542.73 24.21 542.08 24.28 541.4 24.68C541.16 24.83 540.58 25.01 540.42 25.25C540.22 25.92 539.97 26.59 539.92 27.24L539.72 29.57L539.64 35.18C539.63 36.11 539.49 37.2 539.67 38.18C539.58 38.75 539.63 39.28 539.67 39.88C539.69 40.21 539.57 40.66 539.64 41C539.76 41.55 539.68 42.07 539.67 42.62L539.65 43.88C539.63 45.32 539.61 46.74 539.68 48.18C539.71 48.75 539.72 49.29 539.71 49.87L539.69 51.04C539.66 52.31 539.65 53.54 539.71 54.8C539.77 56.06 539.6 55.91 539.71 57.13C539.76 57.67 539.76 59.11 539.72 59.67C539.66 60.54 539.74 61.38 539.75 62.25L539.88 70.29L540.45 72.83C540.99 75.2 541.19 73.77 542.01 76.18C542.21 76.76 543.13 76.75 543.58 76.99C544.6 77.56 545.54 78.06 546.62 78.48C547.06 78.65 547.13 79.25 547 79.62C546.84 80.08 546.41 80.3 545.89 80.28C544.83 80.25 543.77 80.44 542.75 80.24L541.04 79.89C540.7 79.82 540.3 79.79 539.97 79.79L532.5 79.82C532.17 79.82 531.76 79.81 531.42 79.93L530.3 80.33L527.22 80.36C527.05 80.08 526.8 79.62 526.8 79.35C526.8 78.55 527.46 78.42 527.98 78.16C528.29 78 528.65 77.75 528.93 77.54C530.5 76.36 531.01 77.25 531.83 74.65L532.43 74L533.72 71.15L533.52 26.17C533.52 25.18 531.9 24.6 531.2 24.35L526.38 24.4C525.47 24.4 524.08 25.15 522.36 25C521.76 24.95 521.47 25.16 521.01 25.49L519.23 26.76C518.59 27.22 517.86 29.04 517.5 29.75C517.16 30.41 517.08 31.02 517.1 31.79C517.11 32.35 516.9 32.99 516.8 33.53C516.7 34.04 516.4 34.08 515.97 34.12C515.46 34.17 513.68 34.33 513.66 33.49C513.65 32.75 513.6 32.11 513.58 31.41L513.46 27.07L513.32 25.71L513.16 24.3C513.1 23.76 513.03 23.19 513.11 22.67L513.34 21.12C513.92 20.76 514.46 20.48 515.11 20.2C515.29 20.12 515.72 20.28 515.93 20.27H521.15L522.26 20.45L526.71 20.48L528.46 20.73L533.6 20.77C534.05 20.77 534.44 20.77 534.88 20.77C537.05 20.68 538.56 20.77 540.59 20.74L547.5 20.65C547.95 20.65 548.42 20.31 550.38 20.43C551.01 20.47 551.72 20.17 552.36 20.16L556.03 20.09C556.34 20.09 556.61 20.05 556.93 20.09C558.58 20.25 557.93 19.65 559.99 20.6C560.28 20.73 560.79 20.84 560.8 21.29V28.63C560.81 29.12 560.72 29.53 560.81 30.03C560.91 30.57 560.75 31.16 560.68 31.73" fill="#90BEFB"/>
<path d="M158.529 182.13C157.829 182.48 157.179 182.46 156.439 182.63L154.669 183.01L152.829 183.22C152.249 183.13 151.679 183.17 151.069 183.22C149.769 183.33 148.489 183.26 147.229 182.98C146.719 182.86 146.359 182.32 145.949 182.08L144.809 181.4C143.999 180.92 144.289 180.88 143.879 179.91C143.879 178.03 143.819 176.24 143.899 174.39C143.949 173.25 143.979 172.13 143.899 170.98C143.869 170.58 143.839 170.22 143.909 169.82C144.029 169.11 143.979 168.41 144.059 167.72C144.209 166.4 144.439 165.08 144.459 163.77C144.469 162.97 144.879 162.55 145.439 162.08C145.939 161.66 146.079 160.85 146.549 160.37C146.969 159.95 147.629 159.93 148.169 159.77C149.799 159.3 149.249 159.16 151.039 158.95C153.039 158.72 153.459 158.2 155.259 158.47C155.559 158.51 155.879 158.56 156.179 158.63C157.379 158.95 158.989 159.03 159.019 159.04L161.289 159.81L162.489 159.87C163.069 159.9 163.399 160.52 163.839 160.82C164.659 161.37 165.059 161.86 165.619 162.21C166.549 162.77 167.249 163.48 167.669 164.5L168.189 165.79L168.819 167.26C169.459 168.77 169.619 170.27 169.469 171.92C169.419 172.51 169.429 173.15 169.219 173.69L168.599 175.3L167.869 177.12C167.589 177.83 166.979 178.6 166.299 178.95C165.819 179.2 165.479 179.33 165.179 179.78C164.849 180.28 164.149 180.48 163.699 180.79C162.949 181.32 162.349 181.44 161.379 181.46C160.769 181.48 160.199 181.98 159.559 181.94C159.229 181.92 158.769 182 158.499 182.13M182.019 213.05C181.809 212.86 181.389 212.58 181.319 212.33C180.919 210.98 179.899 212.01 178.859 209.69C178.779 209.55 178.369 209.46 178.229 209.37C177.369 208.83 176.839 207.9 176.319 207.09C174.169 205.19 174.709 204.62 172.409 202.56C171.139 201.43 172.259 200.94 171.089 200.38C170.689 200.19 169.599 199.27 169.539 198.81C169.439 198.04 168.899 197.74 168.509 197.18L167.809 196.19C167.319 195.5 166.809 194.88 166.319 194.2C165.939 193.69 165.499 193.28 165.059 192.81C164.739 192.46 164.669 191.73 164.249 191.43L163.169 190.68C162.999 190.56 162.729 190.2 162.609 189.99C162.529 188.21 161.439 189.13 160.859 186.78C160.779 186.42 160.429 186.04 160.579 185.62C160.729 185.22 161.009 184.74 161.319 184.49L162.029 183.92L163.089 183.07C163.609 182.65 164.849 182.99 166.689 181.83L167.809 181.13C169.549 180.04 168.549 181.11 169.909 179.97C170.269 179.67 170.709 179.44 171.079 179.12L172.129 178.21C172.459 177.92 172.719 177.7 172.999 177.38L173.749 176.55C174.459 175.75 174.299 175.27 175.099 174.24C175.359 173.9 175.569 173.69 175.629 173.26C175.729 172.55 176.219 171.83 176.259 171.11C176.359 169.42 176.289 167.79 176.279 166.08C176.279 165.8 175.749 163.85 175.619 163.4C175.289 162.3 174.919 162.87 174.359 161.42C174.009 160.51 173.019 159.43 172.309 158.78L171.209 157.79L169.769 156.69C169.279 156.31 168.919 156.05 168.239 156.09C167.839 156.11 167.499 155.58 167.149 155.44C166.459 155.15 165.759 154.92 165.029 154.69C163.769 153.79 163.499 154.32 161.859 153.53L139.629 153.57C138.349 153.57 137.149 153.59 135.919 153.46L132.369 153.05C131.569 152.96 130.789 153.01 129.969 153.06C129.519 153.09 128.729 153.48 128.749 154C128.779 154.65 129.619 155.46 130.259 155.51L131.749 155.62C132.289 155.66 132.739 155.75 133.109 156.21C135.079 156.77 134.639 157.62 135.839 157.91C136.039 157.96 136.299 158.32 136.469 158.49C137.009 158.99 137.409 159.52 137.559 160.26L138.049 162.58L138.209 164.26L138.349 166.37L138.429 168.15L138.509 169.62L138.609 178.66C138.609 179.22 138.609 179.7 138.609 180.27L138.589 189.82C138.589 190.2 138.479 190.56 138.559 190.92C138.729 191.74 138.559 192.5 138.449 193.32C138.319 194.31 138.569 194.72 138.229 196.03C138.329 196.61 138.279 197.07 138.259 197.62C138.219 198.84 138.179 199.98 138.059 201.2C138.039 201.39 138.109 201.76 138.079 201.95L137.749 203.96L137.699 205.51C137.659 206.62 135.979 207.66 135.299 208.57L135.049 209.38C134.689 209.56 134.289 209.68 133.859 209.77C133.459 209.86 133.149 210.27 132.799 210.47C131.449 211.27 131.219 210.85 129.979 211.68C129.819 211.79 129.609 211.98 129.609 212.12C129.609 212.63 130.319 213.1 130.489 213.1C131.159 213.12 131.919 213.15 132.559 213.06L134.059 212.85C134.709 212.76 135.309 212.73 135.969 212.68L137.139 212.59L145.549 212.55L146.609 212.63C147.439 212.7 148.209 212.71 149.039 212.79L150.749 212.97C151.979 213.1 153.259 213.03 154.479 212.98C155.049 212.95 155.269 212.2 155.259 211.76C155.249 211.29 155.099 210.72 154.639 210.58L152.379 209.87C150.779 209.36 150.769 209.96 149.139 209.42C148.979 209.29 148.699 208.99 148.539 208.9C147.979 208.57 147.519 208.25 147.009 207.88C145.449 206.74 144.139 204.77 144.059 202.82L143.949 199.84L143.829 190.25C143.829 189.89 143.799 189.59 143.819 189.24L143.889 187.49C143.919 186.87 144.209 186.19 144.809 185.9C145.669 185.49 147.329 185.43 148.379 185.52L149.659 185.64C150.269 185.7 150.969 185.55 151.519 185.9L153.419 187.1C153.519 187.89 154.029 187.91 154.509 188.29C155.079 188.75 155.709 189.41 156.069 190.06L156.679 191.16C156.899 191.55 157.169 192.13 157.529 192.39C157.969 192.7 158.339 192.89 158.309 193.53C158.289 194.07 158.609 194.35 158.959 194.67C159.879 195.5 160.019 196.2 160.919 197.01C160.969 197.92 162.149 199.71 163.069 200.02C163.939 201.29 163.039 201.13 164.209 202.06C164.359 202.18 164.609 202.51 164.719 202.67L165.419 203.72L166.159 204.83C166.629 205.54 167.159 206.1 167.769 206.71C167.909 207.18 168.399 208.01 168.749 208.26L169.789 209.02C170.069 209.22 170.419 210.65 171.279 210.85C171.919 211 172.159 211.34 172.409 211.9C172.699 212.56 173.569 212.93 174.219 213.07C174.759 213.18 174.899 213.49 175.159 213.87C175.549 214.44 176.309 214.69 176.899 215.07C177.249 215.29 177.649 215.77 178.089 215.72C178.679 215.64 179.119 215.54 179.619 215.94C179.919 216.19 180.409 216.23 180.799 216.32C181.969 216.59 185.069 217.67 184.949 215.83C184.189 214.44 182.949 213.95 181.949 213.04" fill="#90BEFB"/>
<path d="M54.4899 256.6C54.1999 257.37 53.7099 257.99 53.3199 258.7C53.0899 259.12 52.9599 259.56 52.6599 259.93C52.4599 260.17 52.2999 260.52 52.0499 260.69C51.8199 260.85 51.3399 261 51.2199 261.2C50.6999 262.11 50.5999 262.85 49.9999 262.95C48.3299 263.23 48.9499 264.57 47.4399 265.04C46.9299 265.2 46.5499 265.56 46.1099 265.81C45.2799 266.27 44.5199 266.66 43.8199 267.35C43.6499 267.52 43.1699 267.59 42.9299 267.71C42.5099 267.93 42.0499 268.22 41.5799 268.14C40.6399 267.97 39.9899 268.5 39.1799 268.67L36.8899 269.15C36.5899 269.21 36.2199 269.32 35.9299 269.36L34.1599 269.6L32.0799 269.68C31.5799 269.7 31.1799 269.71 30.6799 269.68L28.6099 269.61L27.3099 269.44C26.5599 269.34 25.8499 269.16 25.0899 269.07L24.4099 268.98L23.4299 268.8L20.4799 268.1C19.9199 268.36 19.3899 268.15 18.8999 267.87C18.3599 267.56 17.7199 267.39 17.1899 267.05C16.1399 266.37 15.1299 265.66 13.8999 265.32C13.5999 265.24 13.3199 265.17 13.0599 265C11.1499 263.77 11.7599 263.28 10.2699 263.03C9.27987 262.86 9.73987 261.46 7.81987 260.94C7.44987 260.84 7.38987 260.29 7.23987 259.96C6.44987 258.3 5.45987 258.75 5.12987 257.07L4.10987 255.75C3.78987 255.33 3.71987 254.85 3.30987 254.52C2.11987 253.57 3.17987 252.89 2.32987 251.59C1.94987 251.01 1.76987 250.4 1.52987 249.75C1.33987 249.23 1.02987 248.72 0.91987 248.18L0.71987 247.23L0.62987 244.95L0.39987 243.06C0.33987 242.51 0.05987 241.91 0.03987 241.35C-0.01013 239.97 -0.02013 238.65 0.03987 237.28C0.05987 236.72 0.32987 236.11 0.37987 235.57L0.57987 233.76L0.63987 231.47C1.26987 230.44 1.11987 229.84 1.53987 229.02C1.81987 228.47 2.00987 227.95 2.22987 227.38C2.40987 226.9 2.66987 226.54 2.60987 225.98C2.47987 224.87 3.55987 224.65 3.82987 224.09C4.02987 223.66 4.27987 223.35 4.50987 222.96C4.99987 222.13 5.72987 220.14 6.46987 219.86C7.18987 219.59 6.74987 219.31 7.65987 218.12C8.59987 216.9 8.86987 217.85 9.34987 216.65C9.70987 215.77 10.5899 215.44 11.3199 215.05C12.7399 213.33 12.9499 213.49 14.5099 212.72C15.0099 212.47 15.4999 212.18 15.9899 211.89C16.4399 211.63 16.7699 211.05 17.2599 210.87C17.7699 210.68 18.4399 210.78 18.8899 210.48C20.1399 209.65 19.4099 210.4 20.8599 209.6C21.6099 209.19 22.4899 209.03 23.3099 208.77C23.5399 208.7 25.9199 208.01 25.9199 208L37.9199 207.94C38.2599 207.94 38.6499 207.97 38.9099 208.1C39.5499 208.42 40.1599 208.43 40.8199 208.64L42.6799 209.23C43.2199 209.4 43.6199 209.48 44.1099 209.72L45.3899 210.35C46.0799 210.69 47.1699 210.57 48.0499 211.45C49.8099 213.22 49.7899 212.33 50.8399 213.53C51.0999 213.83 51.3999 214.22 51.6699 214.46C53.5599 216.21 52.3299 217.69 52.3199 218.74L52.2999 224.21C52.2999 224.7 52.0599 225.35 51.6999 225.68C51.3599 226 49.4999 225.94 49.0899 225.76C48.6799 225.23 48.3899 224.62 47.9299 224.17C47.5899 223.83 47.6099 223.57 47.4199 223.06L46.9499 221.82C46.6399 221 47.5699 222.12 46.0999 219.32C45.8799 218.9 45.3099 218.59 45.0699 218.18C44.8199 217.76 44.5999 217.3 44.3299 216.9L43.1399 216.32C41.8699 215.7 41.7799 214.43 40.0299 214.18C39.0299 214.03 38.1399 213.76 37.1999 213.43C36.7799 213.28 36.2699 213.26 35.8599 213.15C34.5999 212.82 33.2899 212.67 32.0199 212.78C30.1199 212.93 29.1899 212.59 27.9099 212.81C26.8999 212.99 25.8999 213.16 24.9099 213.43L23.1599 213.91C22.6899 214.03 22.1999 214.32 21.7199 214.22C21.0999 214.1 20.8799 214.48 20.4299 214.75L18.5799 215.85C18.2999 216.01 17.9899 216.52 17.6999 216.62C16.1799 216.69 16.5199 217.25 15.1299 218.41C14.1599 219.21 14.0299 218.41 13.5899 219.66C12.8599 221.76 10.9999 220.63 10.6599 223.73C10.4499 223.95 10.0699 224.22 9.94987 224.47L9.05987 226.13C8.89987 226.43 8.58987 226.74 8.67987 227.1C8.84987 227.79 8.51987 228.14 8.23987 228.68C7.77987 229.57 7.39987 230.57 7.14987 231.56C6.48987 234.21 6.36987 235.83 6.47987 238.53L6.57987 240.79L6.78987 242.08C6.91987 242.86 7.19987 243.62 7.36987 244.4C7.49987 244.95 7.71987 245.43 7.91987 245.97C8.07987 246.39 8.10987 247.01 8.41987 247.34C8.93987 247.89 8.56987 248.65 8.83987 249.2L10.1299 251.8C11.3999 252.98 10.2499 252.48 11.3099 254.19C11.5699 254.61 11.9299 254.78 12.3599 255.06C12.7699 255.34 13.0299 255.96 13.3599 256.37C14.3299 257.59 15.4599 258.69 16.6899 259.64C17.1299 259.99 17.6599 260.34 17.9999 260.75C19.1099 262.11 19.7199 261.18 20.3299 261.89C21.6299 263.4 20.8599 262.25 22.3999 263.41C23.4699 264.22 24.5799 263.95 25.0699 264.14L26.3299 264.62L30.0699 265.41C30.6799 265.54 33.4299 265.55 34.2599 265.5L35.7499 265.42C36.3599 265.39 36.9299 265.14 37.5299 265.01L39.2099 264.65L40.3399 264.13C41.0899 263.79 41.9999 263.88 42.7399 263.44L44.6499 262.3L45.2199 261.5C47.5399 261.36 46.4599 260.13 47.9699 259.5C49.9999 258.65 49.2099 257.71 49.8399 257.21C50.4599 256.72 50.7399 256.22 51.0799 255.55C51.2699 255.18 51.4999 254.81 51.7399 254.41C51.9899 254 52.7599 253.66 53.2599 253.71C53.9799 253.79 54.6299 254.4 54.8199 255.07C54.9699 255.59 54.6499 256.15 54.4799 256.61" fill="#90BEFB"/>
</g>
</g>
<defs>
<clipPath id="clip0_2552_6362">
<rect width="794.54" height="269.7" fill="white"/>
</clipPath>
</defs>
</svg>
