<svg width="203" height="555" viewBox="0 0 203 555" fill="none" xmlns="http://www.w3.org/2000/svg">
<g clip-path="url(#clip0_2552_5425)">
<path d="M98.888 393.381L91.6074 446.877L106.896 448.958L114.177 395.461L98.888 393.381Z" fill="#90BEFB"/>
<mask id="mask0_2552_5425" style="mask-type:luminance" maskUnits="userSpaceOnUse" x="0" y="0" width="203" height="555">
<path d="M202.73 0H0V554.26H202.73V0Z" fill="white"/>
</mask>
<g mask="url(#mask0_2552_5425)">
<path d="M87.4801 466.65C88.1701 461.54 92.8801 457.96 98.0001 458.66C103.12 459.36 106.7 464.06 106 469.17C105.31 474.27 100.59 477.85 95.4801 477.15C90.3701 476.45 86.7901 471.75 87.4801 466.64" fill="#90BEFB"/>
<path d="M50.8599 372.37L35.8999 370.34L41.5299 329.02L41.3099 328.48L43.3299 313.68C43.9299 314.01 44.6499 313.85 45.2799 313.97C47.8099 314.46 47.6999 314.27 49.7499 314.58L51.4299 314.83L52.5999 314.92L82.3699 318.97L83.4799 319.2L84.7999 319.4C85.9999 319.58 87.1699 319.76 88.3899 319.86C88.5999 319.88 88.9399 319.92 89.1399 319.96C90.2999 320.2 91.4399 320.28 92.5999 320.44L95.4799 320.83C95.9299 320.89 96.4699 320.92 96.9499 320.99L98.5099 321.23L99.6599 321.32L129.58 325.38C129.96 325.43 130.21 325.58 130.41 325.78L130.36 326.18H130.35L128.52 339.65V339.66L128.46 340.07C128.22 340.13 127.93 340.14 127.58 340.09L104.09 336.89C103.86 336.86 103.53 337 103.32 337.13L99.7399 363.77L97.7699 378.74L82.9499 376.71L88.5999 335.24C88.5399 335.03 88.2899 334.74 88.0499 334.71L56.7599 330.45C56.5299 330.42 56.2499 330.75 56.2299 330.97L52.7199 356.73C52.6599 357.11 52.6899 357.36 52.8499 357.69L50.8599 372.35V372.37Z" fill="#90BEFB"/>
<path d="M32.88 554.24L0 507.72C0.05 507.62 0.24 507.38 0.38 507.28L12.05 499.04L26.85 520.04L28.18 522.41C28.82 523.56 29.72 524.42 30.77 525.26C34.23 528.05 39.27 529.2 43.51 527.82C45.97 527.02 47.1 526.38 49.2 524.62C50.1 523.87 51.41 522.15 51.99 521.06C52.73 519.66 53.21 518.11 53.46 516.57C53.54 516.06 53.52 515.53 53.55 515.04C53.76 511.68 52.53 508.6 50.54 505.89C50.33 505.6 50.07 505.38 49.74 505.16L34.28 483.29L46.92 474.37L80.08 521.29L67.75 530.02C67.57 530.15 67.34 530.16 66.97 530.28L33.21 554.14C33.01 554.28 32.92 554.23 32.87 554.22" fill="#90BEFB"/>
<path d="M33.8 441.39C31.46 440.43 29.54 438.98 27.85 437.12C26.83 435.99 26.12 434.77 25.45 433.41C24.68 431.83 24.26 430.19 24.27 428.34C24.27 427.66 24.18 426.9 24.28 426.28C24.58 424.51 25.06 422.74 25.94 421.19C28.36 416.92 33.15 414.1 38 413.6C39.44 413.45 41.44 413.37 42.85 413.74C45.57 414.45 48.22 415.55 50.21 417.55C50.81 418.16 51.45 418.74 51.94 419.38C53.95 422.09 54.67 424.19 54.92 427.46C55.07 429.55 54.85 430.9 54.16 432.86C53.75 434.02 53.29 435.08 52.59 436.12C49.29 441.03 43.51 443.36 37.73 442.58C36.5 442.42 34.92 441.86 33.79 441.39M38.07 457.8L39.52 457.91C40.11 457.95 40.72 457.86 41.32 457.83C44.94 457.64 48.43 456.99 51.71 455.48C52.68 455.03 53.57 454.67 54.47 454.12C60.15 450.71 63.78 446.34 66.32 440.16C67.66 436.9 68.25 432.74 68.62 429.16C68.62 429.16 68.73 426.23 68.73 426.19L68.6 423.74C68.49 421.51 67.36 417.28 66.42 415.14C64.78 411.42 62.16 407.76 59 405.17C56.53 403.14 53.93 401.52 50.89 400.43C49.85 400.05 48.82 399.61 47.74 399.33C46.83 399.09 44.79 398.7 43.95 398.61L41.87 398.39L40.3 398.29C38.62 398.19 36.97 398.42 35.28 398.62C33.87 398.79 32.53 399.12 31.14 399.47C30.25 399.69 29.4 400.12 28.51 400.44C26.28 401.25 23 403.17 21.27 404.78C20.61 405.4 19.88 405.94 19.26 406.62C15.62 410.53 13.05 415.2 11.84 420.53L11.42 422.41C11.17 423.52 11.02 424.64 10.95 425.8C10.56 432.36 11.24 437.38 14.28 443.23C14.78 444.2 16.39 446.6 17.14 447.48C20.35 451.21 24.25 454.05 28.91 455.73C29.95 456.1 30.98 456.6 32.05 456.82L34.13 457.25C35.42 457.51 36.73 457.68 38.04 457.77" fill="#90BEFB"/>
<path d="M113.7 92.0199C113.63 91.8199 113.57 91.4399 113.64 91.2299L122.55 66.7599C122.66 66.4599 122.95 66.1799 123.13 66.0999C124 66.3299 124.81 66.8599 125.58 67.3299C127.4 68.4399 128.83 69.8099 129.95 71.6099C130.56 72.5799 131.13 73.5299 131.43 74.6799L131.95 76.6299C132.01 76.8899 132.01 77.4099 132.04 77.6999C132.39 82.5199 131.01 86.2499 127.4 89.5299C123.93 92.6899 118.05 93.9699 113.7 92.0399M114.85 107.59L117.01 107.71C120.62 107.92 125.29 107.14 128.66 105.77C131.06 104.79 132.36 104.05 134.53 102.7C134.97 102.43 135.39 102.02 135.82 101.68C137.27 100.53 138.64 99.4099 139.82 97.9599C142.81 94.2399 144.33 91.8099 145.77 87.1399C146.95 83.2799 147.2 78.6899 146.62 74.7399C145.72 68.4899 142.47 62.3199 137.86 58.0899L136.88 57.1899C134.66 55.1599 131.99 53.7699 129.19 52.5499C127.07 51.6299 124.96 51.0199 122.76 50.2299L102.97 43.1199C102.71 43.4099 102.78 43.7899 102.67 44.0899L98.0602 56.7899C98.4602 57.3299 99.1002 57.2199 99.6402 57.4199L107.74 60.3599C108.16 60.5099 108.61 60.8499 108.97 61.0999L99.6902 86.5899C99.4602 86.6699 99.1002 86.7399 98.8402 86.6399L89.2502 83.1299C89.0802 83.0699 88.7702 82.8199 88.6102 82.8699C88.4502 82.9199 88.4102 83.2299 88.3302 83.4399L85.5302 91.2399L85.2702 92.1799C84.8902 93.5999 84.3402 94.9399 83.7402 96.2899L114.84 107.6L114.85 107.59Z" fill="#90BEFB"/>
<path d="M194.88 57.72L189.7 54.78L188.28 54.09L180.62 49.8L176.96 47.75L171.34 44.63L168.16 42.89L163.2 40.12L156.31 36.32L152.03 33.93L147.21 31.3L144.24 29.59C144.37 28.93 144.44 28.56 144.49 28.05L144.65 26.59L146.18 15.14C146.21 14.95 146.41 14.53 146.36 14.34C146.28 14.01 146.4 13.38 146.91 13.26L151.18 12.3L152.25 12.05L157.22 10.84L163.05 9.43999L170.6 7.63999L172.65 7.16999L179.99 5.42999L186.76 3.78999L189.57 3.17999L194.22 2.01999L196.15 1.58999L197.75 1.19999L202.71 -0.0100098L200.56 15.86C199.96 15.93 199.56 16.04 199.08 16.13L191.98 17.53L190.56 17.86L184.97 18.95L181.76 19.64L180.55 19.87L175.75 20.82L172.96 21.43L168.35 22.33L163.45 23.38C163.32 23.4 163.06 23.68 162.99 23.79C162.91 23.91 163.2 24.25 163.33 24.31L167.45 26.36L174.62 30.02L175.63 30.52L178.83 32.22L181.61 33.6L182.61 34.1L185.32 35.55L188.33 37.06L194.5 40.24L197.07 41.5L194.87 57.68L194.88 57.72Z" fill="#90BEFB"/>
</g>
<path d="M81.6115 160.236L79.6104 174.941L94.4733 176.964L96.4745 162.259L81.6115 160.236Z" fill="#90BEFB"/>
<mask id="mask1_2552_5425" style="mask-type:luminance" maskUnits="userSpaceOnUse" x="0" y="0" width="203" height="555">
<path d="M202.73 0H0V554.26H202.73V0Z" fill="white"/>
</mask>
<g mask="url(#mask1_2552_5425)">
<path d="M102.86 236.04L100.91 250.29L54.1001 243.93L56.0801 229.22L71.2101 231.28C71.7201 231.4 72.0101 231.14 72.1701 230.65L75.2701 207.91C75.2401 207.7 75.0901 207.28 74.9101 207.25L63.9701 205.76L65.9601 191.34C66.0001 191.01 66.5101 191.27 66.7201 191.29L91.0501 194.6C91.4001 194.65 91.6201 194.54 91.9101 194.78L86.7801 232.5C86.7401 232.8 86.9601 233.41 87.2301 233.45L102.49 235.53C102.65 235.67 102.78 235.83 102.87 236.04" fill="#90BEFB"/>
<path d="M136.95 181.55C137.1 180.08 137.8 178.61 138.64 177.39C139.92 175.53 141.8 174.2 143.94 173.73C145.1 173.48 146.27 173.17 147.43 173.37C149.05 173.65 150.55 174.38 151.91 175.26C152.2 175.45 152.44 175.98 152.87 175.89C153.15 175.83 153.05 175.31 152.84 175.03L127.18 141.3C127.02 140.8 127.47 140.91 127.69 140.74L136.54 133.98L137.57 133.18L138.86 132.11L146.26 141.91L158.75 158.33L171.45 174.95L159.62 183.95L155.2 178.15L154.69 178.09C154.22 178.03 155.08 179.6 155.1 179.7C155.35 180.65 155.48 181.55 155.6 182.52C155.77 183.97 155.23 185.37 154.69 186.73C154.41 187.43 154 188 153.52 188.59C151.91 190.61 149.66 191.85 147.11 192.02C145.98 192.1 144.78 192.14 143.71 191.75C142.39 191.27 141.1 190.71 140.06 189.75C139.78 189.49 139.51 189.17 139.24 188.88C137.48 187.07 136.67 184.08 136.94 181.56" fill="#90BEFB"/>
<path d="M157.31 273.17C160.01 277.42 160.09 283.26 158.03 287.73C157.06 289.84 155.6 291.46 153.74 293.03L152.16 294.37C151.31 295.08 150.19 295.63 149.16 296.12C146.87 297.21 144.38 297.28 141.89 297.06C141 296.98 140.13 296.7 139.25 296.45C137.27 295.9 135.57 294.97 133.96 293.73C130.88 291.36 129.22 288.75 128.24 285C127.73 283.04 127.72 280.61 128.09 278.66C128.69 275.51 129.92 273.54 132.02 271.21C132.59 270.58 133.36 270.11 134.01 269.53L135.4 268.31C136.19 267.62 137.08 267.22 138.02 266.79C139.87 265.96 141.74 265.63 143.75 265.61C146.51 265.58 147.82 265.9 150.44 266.95C153.41 268.14 155.58 270.48 157.28 273.16M182.64 281.26L181.08 279.44L179.7 277.82C179.17 277.2 178.6 276.66 178.08 275.99L151.86 241.53C151.41 241.26 151.02 241.8 150.75 242C150.03 242.53 149.55 242.89 148.82 243.44L139.5 250.5L142.36 254.3C142.48 254.46 142.32 255.01 142.15 255.01C141.36 255.05 141.32 254.8 139.92 254.7C138.49 254.6 137.1 254.53 135.66 254.78C130.49 255.69 126.76 257.74 122.72 261.16C122.67 261.2 120.69 263.06 120.65 263.09L119.04 264.92C118.68 265.33 118.3 265.88 117.98 266.36C114.46 271.53 113.03 275.89 112.79 282.09C112.76 283 112.86 283.85 112.94 284.75C113.21 287.83 113.95 290.71 115.23 293.53L115.71 294.61C116.26 295.83 116.84 296.92 117.6 298.02L118.81 299.76L120.43 301.71C122.44 304.15 126.42 307.22 129.21 308.61C132.47 310.23 135.81 311.27 139.42 311.54C141.47 311.69 143.39 311.7 145.42 311.38C147.22 311.08 148.92 310.77 150.64 310.13L151.81 309.69C153.93 308.9 155.92 307.98 157.77 306.66L160.91 304.41C161.23 304.18 161.58 303.98 161.85 303.7L162.98 302.53C164.62 300.84 165.27 299.82 166.5 297.85C167.94 295.54 168.51 293.16 169.06 290.5C169.35 289.11 172.18 292.75 172.54 293.17L185.03 283.69L182.66 281.23L182.64 281.26Z" fill="#90BEFB"/>
</g>
</g>
<defs>
<clipPath id="clip0_2552_5425">
<rect width="202.73" height="554.26" fill="white"/>
</clipPath>
</defs>
</svg>
