<svg width="213" height="565" viewBox="0 0 213 565" fill="none" xmlns="http://www.w3.org/2000/svg">
<g clip-path="url(#clip0_2552_5125)">
<path d="M103.887 398.38L96.606 451.877L111.895 453.958L119.176 400.461L103.887 398.38Z" fill="#90BEFB"/>
<mask id="mask0_2552_5125" style="mask-type:luminance" maskUnits="userSpaceOnUse" x="0" y="0" width="213" height="565">
<path d="M212.73 0H0V564.26H212.73V0Z" fill="white"/>
</mask>
<g mask="url(#mask0_2552_5125)">
<path d="M92.4797 471.65C93.1697 466.54 97.8797 462.96 103 463.66C108.12 464.36 111.7 469.06 111 474.17C110.31 479.27 105.59 482.85 100.48 482.15C95.3697 481.45 91.7897 476.75 92.4797 471.64" fill="#90BEFB"/>
<path d="M55.8599 377.37L40.8999 375.34L46.5299 334.02L46.3099 333.48L48.3299 318.68C48.9299 319.01 49.6499 318.85 50.2799 318.97C52.8099 319.46 52.6999 319.27 54.7499 319.58L56.4299 319.83L57.5999 319.92L87.3699 323.97L88.4799 324.2L89.7999 324.4C90.9999 324.58 92.1699 324.76 93.3899 324.86C93.5999 324.88 93.9399 324.92 94.1399 324.96C95.2999 325.2 96.4399 325.28 97.5999 325.44L100.48 325.83C100.93 325.89 101.47 325.92 101.95 325.99L103.51 326.23L104.66 326.32L134.58 330.38C134.96 330.43 135.21 330.58 135.41 330.78L135.36 331.18H135.35L133.52 344.65V344.66L133.46 345.07C133.22 345.13 132.93 345.14 132.58 345.09L109.09 341.89C108.86 341.86 108.53 342 108.32 342.13L104.74 368.77L102.77 383.74L87.9499 381.71L93.5999 340.24C93.5399 340.03 93.2899 339.74 93.0499 339.71L61.7599 335.45C61.5299 335.42 61.2499 335.75 61.2299 335.97L57.7199 361.73C57.6599 362.11 57.6899 362.36 57.8499 362.69L55.8599 377.35V377.37Z" fill="#90BEFB"/>
<path d="M37.8798 559.24L5.00977 512.72C5.05977 512.62 5.24977 512.38 5.38977 512.28L17.0598 504.04L31.8598 525.04L33.1898 527.41C33.8298 528.56 34.7298 529.42 35.7798 530.26C39.2398 533.05 44.2798 534.2 48.5198 532.82C50.9798 532.02 52.1098 531.38 54.2098 529.62C55.1098 528.87 56.4198 527.15 56.9998 526.06C57.7398 524.66 58.2198 523.11 58.4698 521.57C58.5498 521.06 58.5298 520.53 58.5598 520.04C58.7698 516.68 57.5398 513.6 55.5498 510.89C55.3398 510.6 55.0798 510.38 54.7498 510.16L39.2898 488.29L51.9298 479.37L85.0898 526.29L72.7598 535.02C72.5798 535.15 72.3498 535.16 71.9798 535.28L38.2198 559.14C38.0198 559.28 37.9298 559.23 37.8798 559.22" fill="#90BEFB"/>
<path d="M38.8 446.39C36.46 445.43 34.54 443.98 32.85 442.12C31.83 440.99 31.12 439.77 30.45 438.41C29.68 436.83 29.26 435.19 29.27 433.34C29.27 432.66 29.18 431.9 29.28 431.28C29.58 429.51 30.06 427.74 30.94 426.19C33.36 421.92 38.15 419.1 43 418.6C44.44 418.45 46.44 418.37 47.85 418.74C50.57 419.45 53.22 420.55 55.21 422.55C55.81 423.16 56.45 423.74 56.94 424.38C58.95 427.09 59.67 429.19 59.92 432.46C60.07 434.55 59.85 435.9 59.16 437.86C58.75 439.02 58.29 440.08 57.59 441.12C54.29 446.03 48.51 448.36 42.73 447.58C41.5 447.42 39.92 446.86 38.79 446.39M43.07 462.8L44.52 462.91C45.11 462.95 45.72 462.86 46.32 462.83C49.94 462.64 53.43 461.99 56.71 460.48C57.68 460.03 58.57 459.67 59.47 459.12C65.15 455.71 68.78 451.34 71.32 445.16C72.66 441.9 73.25 437.74 73.62 434.16C73.62 434.16 73.73 431.23 73.73 431.19L73.6 428.74C73.49 426.51 72.36 422.28 71.42 420.14C69.78 416.42 67.16 412.76 64 410.17C61.53 408.14 58.93 406.52 55.89 405.43C54.85 405.05 53.82 404.61 52.74 404.33C51.83 404.09 49.79 403.7 48.95 403.61L46.87 403.39L45.3 403.29C43.62 403.19 41.97 403.42 40.28 403.62C38.87 403.79 37.53 404.12 36.14 404.47C35.25 404.69 34.4 405.12 33.51 405.44C31.28 406.25 28 408.17 26.27 409.78C25.61 410.4 24.88 410.94 24.26 411.62C20.62 415.53 18.05 420.2 16.84 425.53L16.42 427.41C16.17 428.52 16.02 429.64 15.95 430.8C15.56 437.36 16.24 442.38 19.28 448.23C19.78 449.2 21.39 451.6 22.14 452.48C25.35 456.21 29.25 459.05 33.91 460.73C34.95 461.1 35.98 461.6 37.05 461.82L39.13 462.25C40.42 462.51 41.73 462.68 43.04 462.77" fill="#90BEFB"/>
<path d="M118.7 97.0199C118.63 96.8199 118.57 96.4399 118.64 96.2299L127.55 71.7599C127.66 71.4599 127.95 71.1799 128.13 71.0999C129 71.3299 129.81 71.8599 130.58 72.3299C132.4 73.4399 133.83 74.8099 134.95 76.6099C135.56 77.5799 136.13 78.5299 136.43 79.6799L136.95 81.6299C137.01 81.8899 137.01 82.4099 137.04 82.6999C137.39 87.5199 136.01 91.2499 132.4 94.5299C128.93 97.6899 123.05 98.9699 118.7 97.0399M119.85 112.59L122.01 112.71C125.62 112.92 130.29 112.14 133.66 110.77C136.06 109.79 137.36 109.05 139.53 107.7C139.97 107.43 140.39 107.02 140.82 106.68C142.27 105.53 143.64 104.41 144.82 102.96C147.81 99.2399 149.33 96.8099 150.77 92.1399C151.95 88.2799 152.2 83.6899 151.62 79.7399C150.72 73.4899 147.47 67.3199 142.86 63.0899L141.88 62.1899C139.66 60.1599 136.99 58.7699 134.19 57.5499C132.07 56.6299 129.96 56.0199 127.76 55.2299L107.97 48.1199C107.71 48.4099 107.78 48.7899 107.67 49.0899L103.06 61.7899C103.46 62.3299 104.1 62.2199 104.64 62.4199L112.74 65.3599C113.16 65.5099 113.61 65.8499 113.97 66.0999L104.69 91.5899C104.46 91.6699 104.1 91.7399 103.84 91.6399L94.2497 88.1299C94.0797 88.0699 93.7697 87.8199 93.6097 87.8699C93.4497 87.9199 93.4098 88.2299 93.3298 88.4399L90.5297 96.2399L90.2697 97.1799C89.8897 98.5999 89.3397 99.9399 88.7397 101.29L119.84 112.6L119.85 112.59Z" fill="#90BEFB"/>
<path d="M199.88 62.72L194.7 59.78L193.28 59.09L185.62 54.8L181.96 52.75L176.34 49.63L173.16 47.89L168.2 45.12L161.31 41.32L157.03 38.93L152.21 36.3L149.24 34.59C149.37 33.93 149.44 33.56 149.49 33.05L149.65 31.59L151.18 20.14C151.21 19.95 151.41 19.53 151.36 19.34C151.28 19.01 151.4 18.38 151.91 18.26L156.18 17.3L157.25 17.05L162.22 15.84L168.05 14.44L175.6 12.64L177.65 12.17L184.99 10.43L191.76 8.78999L194.57 8.17999L199.22 7.01999L201.15 6.58999L202.75 6.19999L207.71 4.98999L205.56 20.86C204.96 20.93 204.56 21.04 204.08 21.13L196.98 22.53L195.56 22.86L189.97 23.95L186.76 24.64L185.55 24.87L180.75 25.82L177.96 26.43L173.35 27.33L168.45 28.38C168.32 28.4 168.06 28.68 167.99 28.79C167.91 28.91 168.2 29.25 168.33 29.31L172.45 31.36L179.62 35.02L180.63 35.52L183.83 37.22L186.61 38.6L187.61 39.1L190.32 40.55L193.33 42.06L199.5 45.24L202.07 46.5L199.87 62.68L199.88 62.72Z" fill="#90BEFB"/>
</g>
<path d="M86.6101 165.236L84.6089 179.941L99.4719 181.964L101.473 167.259L86.6101 165.236Z" fill="#90BEFB"/>
<mask id="mask1_2552_5125" style="mask-type:luminance" maskUnits="userSpaceOnUse" x="0" y="0" width="213" height="565">
<path d="M212.73 0H0V564.26H212.73V0Z" fill="white"/>
</mask>
<g mask="url(#mask1_2552_5125)">
<path d="M107.86 241.04L105.91 255.29L59.1001 248.93L61.0801 234.22L76.2101 236.28C76.7201 236.4 77.0101 236.14 77.1701 235.65L80.2701 212.91C80.2401 212.7 80.0901 212.28 79.9101 212.25L68.9701 210.76L70.9601 196.34C71.0001 196.01 71.5101 196.27 71.7201 196.29L96.0501 199.6C96.4001 199.65 96.6201 199.54 96.9101 199.78L91.7801 237.5C91.7401 237.8 91.9601 238.41 92.2301 238.45L107.49 240.53C107.65 240.67 107.78 240.83 107.87 241.04" fill="#90BEFB"/>
<path d="M141.95 186.55C142.1 185.08 142.8 183.61 143.64 182.39C144.92 180.53 146.8 179.2 148.94 178.73C150.1 178.48 151.27 178.17 152.43 178.37C154.05 178.65 155.55 179.38 156.91 180.26C157.2 180.45 157.44 180.98 157.87 180.89C158.15 180.83 158.05 180.31 157.84 180.03L132.18 146.3C132.02 145.8 132.47 145.91 132.69 145.74L141.54 138.98L142.57 138.18L143.86 137.11L151.26 146.91L163.75 163.33L176.45 179.95L164.62 188.95L160.2 183.15L159.69 183.09C159.22 183.03 160.08 184.6 160.1 184.7C160.35 185.65 160.48 186.55 160.6 187.52C160.77 188.97 160.23 190.37 159.69 191.73C159.41 192.43 159 193 158.52 193.59C156.91 195.61 154.66 196.85 152.11 197.02C150.98 197.1 149.78 197.14 148.71 196.75C147.39 196.27 146.1 195.71 145.06 194.75C144.78 194.49 144.51 194.17 144.24 193.88C142.48 192.07 141.67 189.08 141.94 186.56" fill="#90BEFB"/>
<path d="M162.31 278.17C165.01 282.42 165.09 288.26 163.03 292.73C162.06 294.84 160.6 296.46 158.74 298.03L157.16 299.37C156.31 300.08 155.19 300.63 154.16 301.12C151.87 302.21 149.38 302.28 146.89 302.06C146 301.98 145.13 301.7 144.25 301.45C142.27 300.9 140.57 299.97 138.96 298.73C135.88 296.36 134.22 293.75 133.24 290C132.73 288.04 132.72 285.61 133.09 283.66C133.69 280.51 134.92 278.54 137.02 276.21C137.59 275.58 138.36 275.11 139.01 274.53L140.4 273.31C141.19 272.62 142.08 272.22 143.02 271.79C144.87 270.96 146.74 270.63 148.75 270.61C151.51 270.58 152.82 270.9 155.44 271.95C158.41 273.14 160.58 275.48 162.28 278.16M187.64 286.26L186.08 284.44L184.7 282.82C184.17 282.2 183.6 281.66 183.08 280.99L156.86 246.53C156.41 246.26 156.02 246.8 155.75 247C155.03 247.53 154.55 247.89 153.82 248.44L144.5 255.5L147.36 259.3C147.48 259.46 147.32 260.01 147.15 260.01C146.36 260.05 146.32 259.8 144.92 259.7C143.49 259.6 142.1 259.53 140.66 259.78C135.49 260.69 131.76 262.74 127.72 266.16C127.67 266.2 125.69 268.06 125.65 268.09L124.04 269.92C123.68 270.33 123.3 270.88 122.98 271.36C119.46 276.53 118.03 280.89 117.79 287.09C117.76 288 117.86 288.85 117.94 289.75C118.21 292.83 118.95 295.71 120.23 298.53L120.71 299.61C121.26 300.83 121.84 301.92 122.6 303.02L123.81 304.76L125.43 306.71C127.44 309.15 131.42 312.22 134.21 313.61C137.47 315.23 140.81 316.27 144.42 316.54C146.47 316.69 148.39 316.7 150.42 316.38C152.22 316.08 153.92 315.77 155.64 315.13L156.81 314.69C158.93 313.9 160.92 312.98 162.77 311.66L165.91 309.41C166.23 309.18 166.58 308.98 166.85 308.7L167.98 307.53C169.62 305.84 170.27 304.82 171.5 302.85C172.94 300.54 173.51 298.16 174.06 295.5C174.35 294.11 177.18 297.75 177.54 298.17L190.03 288.69L187.66 286.23L187.64 286.26Z" fill="#90BEFB"/>
</g>
<path d="M99.57 430.08C96.83 429.71 94.92 427.18 95.29 424.45C95.66 421.71 98.18 419.8 100.92 420.17C103.65 420.54 105.57 423.06 105.2 425.8C104.86 428.3 102.71 430.12 100.25 430.12C100.03 430.12 99.8 430.11 99.57 430.08Z" fill="black"/>
<path d="M118.5 405.41C115.76 405.03 113.85 402.52 114.22 399.78C114.59 397.04 117.11 395.13 119.85 395.5C122.58 395.87 124.5 398.39 124.13 401.13C123.79 403.63 121.64 405.45 119.18 405.45C118.96 405.45 118.73 405.44 118.5 405.41Z" fill="black"/>
<path d="M114.86 432.16C112.12 431.79 110.21 429.27 110.58 426.53C110.95 423.79 113.47 421.88 116.21 422.25C118.94 422.62 120.86 425.14 120.49 427.88C120.15 430.39 118 432.2 115.54 432.2C115.32 432.2 115.09 432.19 114.86 432.16Z" fill="black"/>
<path d="M95.9298 456.83C93.1898 456.45 91.2798 453.94 91.6498 451.2C92.0198 448.46 94.5398 446.55 97.2798 446.92C100.01 447.29 101.93 449.81 101.56 452.55C101.22 455.05 99.0698 456.87 96.6098 456.87C96.3898 456.87 96.1598 456.86 95.9298 456.83Z" fill="black"/>
<mask id="mask2_2552_5125" style="mask-type:luminance" maskUnits="userSpaceOnUse" x="0" y="0" width="213" height="565">
<path d="M212.73 0H0V564.26H212.73V0Z" fill="white"/>
</mask>
<g mask="url(#mask2_2552_5125)">
<path d="M102.33 468.62C99.5903 468.24 97.6703 465.72 98.0403 462.99C98.4203 460.25 100.94 458.33 103.67 458.71C106.41 459.08 108.33 461.6 107.95 464.34C107.61 466.84 105.47 468.66 103.01 468.66C102.78 468.66 102.55 468.65 102.33 468.62Z" fill="black"/>
<path d="M110.33 479.13C107.59 478.76 105.68 476.24 106.05 473.5C106.42 470.76 108.94 468.85 111.68 469.22C114.41 469.59 116.33 472.11 115.96 474.85C115.62 477.36 113.47 479.17 111.01 479.17C110.79 479.17 110.56 479.17 110.33 479.13Z" fill="black"/>
<path d="M99.8102 487.11C97.0702 486.74 95.1602 484.22 95.5302 481.49C95.9002 478.75 98.4202 476.83 101.16 477.21C103.89 477.58 105.81 480.1 105.44 482.83C105.1 485.34 102.95 487.16 100.49 487.16C100.26 487.16 100.04 487.14 99.8102 487.11Z" fill="black"/>
<path d="M91.8102 476.61C89.0702 476.24 87.1602 473.72 87.5302 470.98C87.9002 468.24 90.4202 466.33 93.1602 466.7C95.8902 467.07 97.8102 469.59 97.4402 472.33C97.1002 474.84 94.9502 476.66 92.4902 476.66C92.2602 476.66 92.0402 476.64 91.8102 476.61Z" fill="black"/>
<path d="M40.2299 380.29C37.4999 379.92 35.5799 377.4 35.9499 374.67C36.3199 371.93 38.8399 370.01 41.5799 370.38C44.3099 370.75 46.2299 373.27 45.8599 376.01C45.5199 378.52 43.3799 380.34 40.9099 380.34C40.6899 380.34 40.4599 380.32 40.2299 380.29Z" fill="black"/>
<path d="M45.86 338.97C43.12 338.6 41.21 336.08 41.58 333.34C41.96 330.61 44.47 328.69 47.21 329.06C49.95 329.44 51.86 331.96 51.49 334.69C51.15 337.2 49 339.02 46.54 339.02C46.32 339.02 46.09 339 45.86 338.97Z" fill="black"/>
<path d="M41.7899 335.61L41.6799 335.34C40.6499 332.78 41.8899 329.87 44.4499 328.84C47.0099 327.81 49.9299 329.05 50.9599 331.61L51.0599 331.88C52.0999 334.44 50.8499 337.35 48.2899 338.39C47.6799 338.63 47.0499 338.75 46.4299 338.75C44.4499 338.75 42.5699 337.56 41.7899 335.61Z" fill="black"/>
<path d="M47.6601 323.63C44.9301 323.26 43.0101 320.74 43.3801 318C43.7601 315.27 46.2801 313.35 49.0101 313.72C51.7501 314.1 53.6601 316.62 53.2901 319.35C52.9501 321.86 50.8101 323.68 48.3401 323.68C48.1201 323.68 47.8901 323.66 47.6601 323.63Z" fill="black"/>
<path d="M49.5201 323.91C49.4401 323.91 49.2801 323.9 49.0601 323.89C46.3001 323.76 44.1701 321.42 44.3001 318.66C44.4401 315.9 46.7801 313.77 49.5401 313.91C49.6201 313.91 50.1701 313.87 51.2501 314.06C53.9601 314.59 55.7201 317.22 55.1901 319.93C54.7301 322.31 52.6301 323.97 50.2901 323.97C50.0401 323.97 49.7801 323.95 49.5201 323.91Z" fill="black"/>
<path d="M54.01 324.52C51.28 324.11 49.4 321.56 49.81 318.83C50.23 316.1 52.77 314.22 55.51 314.63C58.24 315.04 60.11 317.59 59.7 320.32C59.33 322.8 57.2 324.58 54.76 324.58C54.52 324.58 54.26 324.56 54.01 324.52Z" fill="black"/>
<path d="M55.7101 324.77L54.8701 324.65C52.1401 324.25 50.2501 321.71 50.6501 318.97C51.0501 316.24 53.5901 314.35 56.3201 314.75L57.1601 314.87C59.9001 315.28 61.7901 317.82 61.3801 320.55C61.0201 323.03 58.8901 324.82 56.4501 324.82C56.2001 324.82 55.9601 324.82 55.7101 324.77Z" fill="black"/>
<path d="M57.2101 324.9L56.6301 324.85C53.8701 324.63 51.8201 322.22 52.0401 319.47C52.2601 316.72 54.6701 314.67 57.4201 314.89L58.0101 314.93C60.7601 315.15 62.8101 317.56 62.5901 320.32C62.3901 322.93 60.2001 324.92 57.6201 324.92C57.4801 324.92 57.3501 324.92 57.2101 324.9Z" fill="black"/>
<path d="M86.7101 328.92C83.9701 328.55 82.0601 326.03 82.4301 323.29C82.8001 320.56 85.3201 318.64 88.0601 319.01C90.7901 319.39 92.7101 321.91 92.3401 324.64C91.9901 327.15 89.8501 328.97 87.3901 328.97C87.1601 328.97 86.9401 328.95 86.7101 328.92Z" fill="black"/>
<path d="M87.4699 329.09L86.9199 328.98C84.2199 328.42 82.4799 325.77 83.0399 323.07C83.5999 320.37 86.2499 318.63 88.9499 319.19L89.4999 319.3C92.2099 319.86 93.9499 322.51 93.3899 325.21C92.8999 327.57 90.8199 329.2 88.4999 329.2C88.1599 329.2 87.8199 329.16 87.4699 329.09Z" fill="black"/>
<path d="M89.0602 329.34L88.4002 329.24C85.6702 328.83 83.7902 326.28 84.2002 323.55C84.6102 320.82 87.1602 318.94 89.8902 319.35L90.5502 319.45C93.2802 319.86 95.1602 322.41 94.7502 325.14C94.3802 327.62 92.2502 329.39 89.8102 329.39C89.5702 329.39 89.3202 329.37 89.0602 329.34Z" fill="black"/>
<path d="M92.9902 329.84C90.2402 329.62 88.1902 327.2 88.4102 324.45C88.6402 321.7 91.0602 319.65 93.8102 319.87C96.5602 320.1 98.6102 322.51 98.3802 325.27C98.1702 327.88 95.9802 329.86 93.4102 329.86C93.2702 329.86 93.1302 329.86 92.9902 329.84Z" fill="black"/>
<path d="M93.1401 329.86C93.1401 329.86 93.1301 329.86 93.1201 329.86C90.3901 329.51 88.4601 327 88.8201 324.26C89.1701 321.52 91.6801 319.59 94.4201 319.95C94.6601 319.98 94.8901 320.01 95.2301 320.09C97.9301 320.69 99.6301 323.36 99.0301 326.05C98.5101 328.38 96.4401 329.97 94.1501 329.97C93.8201 329.97 93.4801 329.94 93.1401 329.87V329.86Z" fill="black"/>
<path d="M96.9403 330.4C94.2003 330.03 92.2803 327.51 92.6603 324.77C93.0303 322.03 95.5503 320.12 98.2803 320.49C101.02 320.86 102.94 323.38 102.57 326.12C102.22 328.62 100.08 330.44 97.6203 330.44C97.4003 330.44 97.1703 330.44 96.9403 330.4Z" fill="black"/>
<path d="M99.81 330.79C97.08 330.42 95.16 327.9 95.53 325.16C95.91 322.42 98.43 320.51 101.16 320.88C103.9 321.25 105.81 323.77 105.44 326.51C105.1 329.02 102.96 330.84 100.49 330.84C100.27 330.84 100.04 330.82 99.81 330.79Z" fill="black"/>
<path d="M101.22 330.94C101.13 330.94 100.97 330.91 100.76 330.89C98.0102 330.64 95.9902 328.2 96.2402 325.45C96.5002 322.7 98.9302 320.68 101.68 320.94C101.97 320.96 102.3 321 102.69 321.05C105.42 321.46 107.3 324 106.9 326.73C106.53 329.22 104.39 331 101.96 331C101.71 331 101.47 330.98 101.22 330.94Z" fill="black"/>
<path d="M102.76 331.18L101.98 331.06C99.2501 330.65 97.3701 328.1 97.7901 325.37C98.2001 322.64 100.75 320.76 103.48 321.17L104.26 321.29C106.99 321.7 108.87 324.25 108.45 326.98C108.08 329.46 105.95 331.24 103.52 331.24C103.27 331.24 103.01 331.22 102.76 331.18Z" fill="black"/>
<path d="M104.29 331.31L103.72 331.26C100.96 331.06 98.8998 328.66 99.0998 325.91C99.3098 323.15 101.71 321.08 104.46 321.29L105.04 321.33C107.79 321.54 109.86 323.94 109.65 326.69C109.46 329.32 107.26 331.32 104.67 331.32C104.54 331.32 104.42 331.32 104.29 331.32V331.31Z" fill="black"/>
<path d="M133.91 335.33C131.18 334.96 129.26 332.44 129.63 329.71C130 326.97 132.52 325.05 135.26 325.43C137.99 325.8 139.91 328.32 139.54 331.05C139.2 333.56 137.05 335.38 134.59 335.38C134.37 335.38 134.14 335.38 133.91 335.33Z" fill="black"/>
<path d="M132.27 334.68C130.22 333.32 129.43 330.62 130.53 328.34C131.73 325.85 134.72 324.81 137.2 326C137.92 326.34 138.56 326.84 139.02 327.32C140.93 329.31 140.87 332.47 138.88 334.39C137.91 335.32 136.66 335.78 135.41 335.78C134.3 335.78 133.19 335.41 132.27 334.68Z" fill="black"/>
<path d="M134.69 336.14C131.96 335.78 130.04 333.26 130.4 330.52L130.43 330.32C130.79 327.59 133.31 325.66 136.05 326.03C138.78 326.39 140.7 328.91 140.34 331.65L140.31 331.85C139.98 334.36 137.83 336.19 135.36 336.19C135.14 336.19 134.92 336.17 134.69 336.14Z" fill="black"/>
<path d="M135.35 336.19C132.59 336.19 130.35 333.95 130.35 331.19C130.35 328.43 132.59 326.19 135.35 326.19C138.11 326.19 140.35 328.43 140.35 331.19C140.35 333.95 138.11 336.19 135.35 336.19Z" fill="black"/>
<path d="M131.47 334.35C129.72 332.21 130.04 329.06 132.18 327.32H132.19C134.32 325.57 137.47 325.89 139.22 328.03C140.97 330.17 140.65 333.32 138.51 335.06C137.58 335.82 136.46 336.19 135.35 336.19C133.9 336.19 132.46 335.56 131.47 334.35Z" fill="black"/>
<path d="M135.35 336.19C132.59 336.19 130.35 333.95 130.35 331.19C130.35 328.43 132.59 326.19 135.35 326.19C138.11 326.19 140.35 328.43 140.35 331.19C140.35 333.95 138.11 336.19 135.35 336.19Z" fill="black"/>
<path d="M130.35 331.2C130.35 328.43 132.59 326.19 135.35 326.19C138.11 326.19 140.35 328.43 140.35 331.19C140.35 333.96 138.11 336.2 135.35 336.2C132.59 336.2 130.35 333.96 130.35 331.2Z" fill="black"/>
<path d="M132.84 349.62C130.11 349.25 128.19 346.73 128.56 343.99C128.93 341.25 131.45 339.34 134.19 339.71C136.93 340.08 138.84 342.6 138.47 345.34C138.13 347.84 135.99 349.66 133.52 349.66C133.3 349.66 133.07 349.65 132.84 349.62Z" fill="black"/>
<path d="M132.69 349.61C129.97 349.15 128.13 346.58 128.58 343.85C129.04 341.12 131.61 339.28 134.34 339.74C137.06 340.19 138.9 342.77 138.45 345.49C138.04 347.94 135.92 349.68 133.52 349.68C133.25 349.68 132.97 349.65 132.69 349.61Z" fill="black"/>
<path d="M133.52 349.68C130.76 349.68 128.52 347.44 128.52 344.68C128.52 341.92 130.76 339.68 133.52 339.68C136.28 339.68 138.52 341.92 138.52 344.68C138.52 347.44 136.28 349.68 133.52 349.68Z" fill="black"/>
<path d="M132.79 350.04C130.05 349.67 128.14 347.14 128.51 344.41L128.54 344.2C128.91 341.47 131.44 339.55 134.17 339.93C136.91 340.3 138.82 342.82 138.45 345.56L138.42 345.76C138.08 348.27 135.93 350.09 133.47 350.09C133.25 350.09 133.02 350.07 132.79 350.04Z" fill="black"/>
<path d="M131.89 350.06C129.16 349.68 127.25 347.15 127.63 344.42C128.02 341.68 130.54 339.78 133.28 340.16C136.01 340.54 137.92 343.07 137.54 345.8C137.19 348.3 135.05 350.11 132.59 350.11C132.36 350.11 132.13 350.11 131.89 350.06Z" fill="black"/>
<path d="M108.42 346.87C105.69 346.49 103.77 343.98 104.14 341.24C104.51 338.5 107.03 336.59 109.77 336.96C112.51 337.33 114.42 339.85 114.05 342.59C113.71 345.09 111.57 346.91 109.1 346.91C108.88 346.91 108.65 346.9 108.42 346.87Z" fill="black"/>
<path d="M104.05 344.74C102.62 342.39 103.37 339.31 105.73 337.87C106.14 337.63 106.53 337.44 107.05 337.25C109.66 336.34 112.51 337.72 113.42 340.33C114.29 342.84 113.05 345.57 110.63 346.58C109.9 346.97 109.11 347.15 108.33 347.15C106.64 347.15 104.99 346.29 104.05 344.74Z" fill="black"/>
<path d="M104.08 373.74C101.35 373.37 99.4201 370.86 99.7901 368.12C100.16 365.38 102.68 363.46 105.41 363.83C108.15 364.2 110.07 366.72 109.7 369.45C109.37 371.96 107.22 373.79 104.75 373.79C104.53 373.79 104.31 373.77 104.08 373.74Z" fill="black"/>
<path d="M102.13 388.72C99.39 388.36 97.47 385.85 97.83 383.11C98.19 380.37 100.7 378.44 103.43 378.8C106.17 379.16 108.1 381.67 107.74 384.41C107.41 386.93 105.26 388.76 102.79 388.76C102.57 388.76 102.35 388.74 102.13 388.72Z" fill="black"/>
<path d="M87.2802 386.68C84.5502 386.31 82.6402 383.79 83.0102 381.05C83.3802 378.32 85.9002 376.4 88.6402 376.77C91.3802 377.15 93.2902 379.67 92.9202 382.41C92.5702 384.91 90.4302 386.73 87.9702 386.73C87.7402 386.73 87.5202 386.72 87.2802 386.68Z" fill="black"/>
<path d="M92.9401 345.22C90.2001 344.84 88.2901 342.32 88.6601 339.59C89.0301 336.85 91.5501 334.94 94.2901 335.31C97.0201 335.68 98.9401 338.2 98.5701 340.94C98.2301 343.45 96.0801 345.26 93.6201 345.26C93.3901 345.26 93.1701 345.26 92.9401 345.22Z" fill="black"/>
<path d="M90.7298 344.15C88.9298 343.2 87.8198 341.2 88.1098 339.06C88.4798 336.33 90.9998 334.41 93.7298 334.78C95.5998 335.1 96.3298 335.84 96.9598 336.41C98.8998 338.37 98.8898 341.54 96.9198 343.48C95.9498 344.45 94.6798 344.93 93.3998 344.93C92.4698 344.93 91.5398 344.67 90.7298 344.15Z" fill="black"/>
<path d="M61.1003 340.43C58.3603 340.05 56.4503 337.53 56.8203 334.8C57.1903 332.06 59.7103 330.15 62.4503 330.52C65.1803 330.89 67.1003 333.41 66.7303 336.15C66.3903 338.65 64.2403 340.47 61.7803 340.47C61.5603 340.47 61.3303 340.47 61.1003 340.43Z" fill="black"/>
<path d="M60.5503 340.94C57.8103 340.56 55.9003 338.03 56.2903 335.3C56.6003 333.59 57.1303 332.99 57.8103 332.19C59.7103 330.19 62.8803 330.12 64.8803 332.02C66.6003 333.67 66.9003 336.25 65.7203 338.22C64.8803 339.89 63.1603 340.99 61.2503 340.99C61.0103 340.99 60.7803 340.97 60.5503 340.94Z" fill="black"/>
<path d="M57.0602 366.71C54.3202 366.33 52.4102 363.81 52.7802 361.08C53.1502 358.34 55.6702 356.43 58.4102 356.8C61.1402 357.17 63.0602 359.69 62.6902 362.43C62.3402 364.93 60.2002 366.75 57.7402 366.75C57.5102 366.75 57.2902 366.74 57.0602 366.71Z" fill="black"/>
<path d="M53.37 364.9C53.1 364.37 52.83 363.6 52.75 362.82C52.43 360.08 54.39 357.59 57.14 357.27C59.65 356.98 61.94 358.61 62.56 360.99C63.43 363.37 62.38 366.07 60.05 367.2C59.34 367.55 58.6 367.71 57.86 367.71C56.01 367.71 54.23 366.68 53.37 364.9Z" fill="black"/>
<path d="M55.1901 382.32C52.4501 381.95 50.5401 379.43 50.9101 376.69C51.2801 373.96 53.8001 372.04 56.5401 372.41C59.2701 372.79 61.1901 375.31 60.8201 378.04C60.4801 380.55 58.3301 382.37 55.8701 382.37C55.6501 382.37 55.4201 382.35 55.1901 382.32Z" fill="black"/>
<path d="M17.3498 538.86C15.7598 536.61 16.2998 533.49 18.5498 531.89C20.8098 530.3 23.9298 530.84 25.5198 533.09C27.1098 535.35 26.5798 538.47 24.3198 540.06C23.4498 540.68 22.4398 540.98 21.4398 540.98C19.8698 540.98 18.3298 540.24 17.3498 538.86Z" fill="black"/>
<path d="M1.96004 516.32C-0.149956 514.55 -0.439956 511.4 1.34004 509.28C1.58004 509.01 1.77004 508.73 2.48004 508.2C4.74004 506.6 7.86004 507.13 9.46004 509.38C10.92 511.45 10.6 514.25 8.79004 515.93C7.82004 516.95 6.50004 517.48 5.17004 517.48C4.04004 517.48 2.90004 517.1 1.96004 516.32Z" fill="black"/>
<path d="M12.9602 506.92C11.3702 504.67 11.9102 501.55 14.1602 499.96C16.4202 498.36 19.5402 498.9 21.1302 501.16C22.7202 503.41 22.1802 506.53 19.9302 508.13C19.0502 508.74 18.0502 509.04 17.0502 509.04C15.4802 509.04 13.9302 508.3 12.9602 506.92Z" fill="black"/>
<path d="M27.7599 527.92C26.1699 525.67 26.7099 522.55 28.9699 520.96C31.2199 519.37 34.3399 519.91 35.9299 522.16C37.5199 524.42 36.9799 527.54 34.7199 529.13C33.8499 529.75 32.8399 530.04 31.8499 530.04C30.2799 530.04 28.7299 529.31 27.7599 527.92Z" fill="black"/>
<path d="M28.8101 529.86C27.4701 527.45 28.3201 524.41 30.7301 523.06C33.1401 521.71 36.1901 522.56 37.5401 524.97C38.8901 527.38 38.0301 530.43 35.6201 531.78C34.8501 532.21 34.0101 532.42 33.1801 532.42C31.4301 532.42 29.7301 531.5 28.8101 529.86Z" fill="black"/>
<path d="M32.6402 534.17C30.4902 532.44 30.1402 529.29 31.8702 527.14C33.6002 524.99 36.7502 524.64 38.9002 526.37C41.0502 528.1 41.4002 531.25 39.6702 533.4C38.6802 534.63 37.2302 535.27 35.7702 535.27C34.6702 535.27 33.5602 534.91 32.6402 534.17Z" fill="black"/>
<path d="M43.7501 534.38C42.9001 531.75 44.3401 528.93 46.9601 528.08C49.5901 527.22 52.4101 528.66 53.2601 531.29C54.1201 533.91 52.6801 536.74 50.0501 537.59C49.5401 537.76 49.0201 537.84 48.5101 537.84C46.4001 537.84 44.4401 536.49 43.7501 534.38Z" fill="black"/>
<path d="M50.3602 532.84C48.5902 530.72 48.8802 527.56 51.0002 525.79C53.1202 524.03 56.2702 524.31 58.0402 526.43C59.8102 528.55 59.5202 531.7 57.4002 533.47C56.4702 534.25 55.3302 534.63 54.2002 534.63C52.7702 534.63 51.3502 534.02 50.3602 532.84Z" fill="black"/>
<path d="M54.6401 530.49C52.2001 529.19 51.2801 526.16 52.5801 523.72C53.8801 521.28 56.9101 520.36 59.3401 521.66C61.7801 522.96 62.7001 525.99 61.4001 528.42C60.5001 530.11 58.7701 531.07 56.9901 531.07C56.1901 531.07 55.3901 530.88 54.6401 530.49Z" fill="black"/>
<path d="M57.6501 526.52C54.9201 526.07 53.0801 523.49 53.5301 520.77C53.9801 518.04 56.5601 516.2 59.2901 516.65C62.0101 517.11 63.8501 519.68 63.4001 522.41C62.9901 524.85 60.8701 526.59 58.4701 526.59C58.2001 526.59 57.9201 526.56 57.6501 526.52Z" fill="black"/>
<path d="M58.3601 525.82C55.6001 525.73 53.4401 523.42 53.5301 520.66C53.5401 520.47 53.5401 520.17 53.5701 519.73C53.7501 516.97 56.1401 514.89 58.8901 515.07C61.6501 515.26 63.7301 517.64 63.5501 520.39C63.5501 520.39 63.5401 520.66 63.5301 520.99C63.4401 523.69 61.2201 525.82 58.5401 525.82H58.3601Z" fill="black"/>
<path d="M51.52 513.86C49.88 511.64 50.37 508.51 52.59 506.87C54.82 505.24 57.95 505.72 59.58 507.95C61.21 510.18 60.73 513.31 58.5 514.94C57.61 515.59 56.58 515.91 55.55 515.91C54.01 515.91 52.49 515.2 51.52 513.86Z" fill="black"/>
<path d="M51.94 514.31C49.66 512.76 49.06 509.66 50.61 507.37C52.16 505.09 55.27 504.49 57.55 506.04C57.83 506.23 58.16 506.46 58.51 506.77C60.57 508.61 60.75 511.77 58.92 513.83C57.93 514.94 56.56 515.51 55.18 515.51C54.03 515.51 52.88 515.11 51.94 514.31Z" fill="black"/>
<path d="M35.2101 491.2C33.6101 488.94 34.1501 485.82 36.4001 484.23C38.6601 482.63 41.7801 483.17 43.3701 485.42C44.9701 487.68 44.4301 490.8 42.1801 492.39C41.3001 493.01 40.2901 493.31 39.2901 493.31C37.7301 493.31 36.1801 492.58 35.2101 491.2Z" fill="black"/>
<path d="M47.8502 482.27C46.2502 480.02 46.7902 476.9 49.0402 475.3C51.3002 473.71 54.4202 474.25 56.0102 476.5C57.6102 478.76 57.0702 481.88 54.8102 483.47C53.9402 484.09 52.9302 484.39 51.9302 484.39C50.3602 484.39 48.8202 483.65 47.8502 482.27Z" fill="black"/>
<path d="M64.4202 505.73C62.8302 503.48 63.3702 500.36 65.6202 498.76C67.8802 497.17 71.0001 497.7 72.5901 499.96C74.1801 502.21 73.6502 505.33 71.3902 506.93C70.5202 507.55 69.5102 507.85 68.5102 507.85C66.9402 507.85 65.4002 507.11 64.4202 505.73Z" fill="black"/>
<path d="M68.6798 537.93C67.0798 535.68 67.6198 532.55 69.8698 530.96C72.1198 529.36 75.2398 529.89 76.8398 532.15C78.4398 534.4 77.8998 537.52 75.6498 539.12C74.7698 539.74 73.7598 540.04 72.7698 540.04C71.1998 540.04 69.6598 539.3 68.6798 537.93Z" fill="black"/>
<path d="M67.2202 536.84C66.3702 534.22 67.8103 531.4 70.4403 530.54C70.7803 530.43 71.0602 530.37 71.0802 530.36C73.7502 529.64 76.4902 531.23 77.2102 533.89C77.9202 536.56 76.3402 539.3 73.6702 540.02C73.5702 540.04 73.5303 540.06 73.5103 540.06C73.0003 540.22 72.4803 540.3 71.9803 540.3C69.8703 540.3 67.9102 538.96 67.2202 536.84Z" fill="black"/>
<path d="M34.1301 562.05C32.5401 559.79 33.0801 556.67 35.3301 555.08C37.5901 553.48 40.7101 554.02 42.3001 556.28C43.8901 558.53 43.3601 561.65 41.1001 563.24C40.2301 563.86 39.2201 564.16 38.2201 564.16C36.6501 564.16 35.1101 563.42 34.1301 562.05Z" fill="black"/>
<path d="M36.6902 564.1C34.0102 563.45 32.3602 560.74 33.0102 558.06C33.6702 555.37 36.3702 553.73 39.0502 554.38C41.7402 555.03 43.3802 557.73 42.7302 560.42C42.1802 562.7 40.1302 564.24 37.8802 564.24C37.4902 564.24 37.0902 564.19 36.6902 564.1Z" fill="black"/>
<path d="M44.1501 467.9L43.4201 467.85C40.6701 467.64 38.6001 465.24 38.8101 462.49C39.0101 459.73 41.4101 457.67 44.1701 457.87L44.8901 457.93C47.6501 458.13 49.7101 460.53 49.5101 463.29C49.3101 465.91 47.1201 467.91 44.5301 467.91C44.4001 467.91 44.2701 467.91 44.1501 467.9Z" fill="black"/>
<path d="M40.4301 463.26C40.2401 460.5 42.3101 458.11 45.0701 457.92C45.2701 457.9 45.5901 457.87 46.0601 457.84C48.8101 457.7 51.1601 459.82 51.3101 462.57C51.4501 465.33 49.3401 467.68 46.5801 467.83C46.4401 467.83 46.1701 467.86 45.7701 467.89C45.6501 467.89 45.5301 467.89 45.4101 467.89C42.8101 467.89 40.6201 465.88 40.4301 463.25V463.26Z" fill="black"/>
<path d="M52.1701 462.57C51.0101 460.06 52.1101 457.09 54.6201 455.94C57.1301 454.79 60.1001 455.89 61.2501 458.39C62.4101 460.9 61.3101 463.87 58.8001 465.03C58.1201 465.34 57.4101 465.48 56.7101 465.48C54.8201 465.48 53.0101 464.4 52.1701 462.57Z" fill="black"/>
<path d="M55.1902 461.71C53.7602 459.35 54.5202 456.27 56.8902 454.85C59.2502 453.42 62.3202 454.18 63.7502 456.54C65.1802 458.91 64.4202 461.98 62.0602 463.41C61.2502 463.89 60.3602 464.13 59.4802 464.13C57.7802 464.13 56.1302 463.27 55.1902 461.71Z" fill="black"/>
<path d="M69.4201 449.79C66.8701 448.74 65.6501 445.82 66.7001 443.26C67.7501 440.71 70.6801 439.49 73.2301 440.54C75.7801 441.6 77.0001 444.52 75.9501 447.07C75.1501 449 73.2901 450.17 71.3201 450.17C70.6901 450.17 70.0401 450.05 69.4201 449.79Z" fill="black"/>
<path d="M73.11 439.14C70.36 438.85 68.36 436.4 68.65 433.65C68.94 430.9 71.4 428.91 74.14 429.2C76.89 429.48 78.88 431.94 78.6 434.69C78.33 437.26 76.16 439.17 73.63 439.17C73.46 439.17 73.28 439.17 73.11 439.14Z" fill="black"/>
<path d="M72.9601 436.14C70.2301 435.71 68.3701 433.16 68.8001 430.43C69.2201 427.7 71.7801 425.83 74.5101 426.26C77.2401 426.69 79.1101 429.25 78.6801 431.98C78.2901 434.44 76.1601 436.2 73.7401 436.2C73.4901 436.2 73.2201 436.18 72.9601 436.14Z" fill="black"/>
<path d="M68.6198 429.01C68.4798 426.25 70.5998 423.9 73.3598 423.76C76.1198 423.62 78.4698 425.74 78.5998 428.5C78.7398 431.26 76.6198 433.61 73.8698 433.75C73.7798 433.75 73.6898 433.75 73.6098 433.75C70.9598 433.75 68.7498 431.67 68.6198 429V429.01Z" fill="black"/>
<path d="M66.8499 422.18C65.7399 419.65 66.8799 416.7 69.4099 415.59C71.9399 414.47 74.8899 415.62 75.9999 418.14C77.1199 420.67 75.9699 423.62 73.4499 424.74C72.7899 425.03 72.1099 425.16 71.4299 425.16C69.5099 425.16 67.6799 424.05 66.8499 422.18Z" fill="black"/>
<path d="M60.8403 414.06C58.7003 412.31 58.3903 409.16 60.1503 407.02C61.9003 404.89 65.0503 404.58 67.1803 406.33C69.3203 408.08 69.6303 411.23 67.8803 413.37C66.8903 414.57 65.4503 415.19 64.0103 415.19C62.8903 415.19 61.7703 414.82 60.8403 414.06Z" fill="black"/>
<path d="M54.2202 410.17C51.6202 409.24 50.2702 406.38 51.2002 403.78C52.1302 401.18 54.9902 399.82 57.5902 400.75C60.1902 401.68 61.5402 404.54 60.6102 407.14C59.8802 409.19 57.9602 410.46 55.9102 410.46C55.3502 410.46 54.7802 410.37 54.2202 410.17Z" fill="black"/>
<path d="M51.4903 409.19C48.8203 408.49 47.2203 405.76 47.9203 403.09C48.6203 400.42 51.3503 398.82 54.0303 399.52C56.7003 400.22 58.2903 402.95 57.5903 405.63C57.0003 407.87 54.9803 409.36 52.7603 409.36C52.3403 409.36 51.9103 409.31 51.4903 409.19Z" fill="black"/>
<path d="M48.46 408.61C45.71 408.33 43.71 405.88 43.99 403.13C44.27 400.39 46.73 398.39 49.47 398.67C52.22 398.95 54.22 401.4 53.94 404.15C53.68 406.72 51.51 408.64 48.97 408.64C48.81 408.64 48.63 408.63 48.46 408.61Z" fill="black"/>
<path d="M46.3702 408.4C43.6202 408.11 41.6302 405.65 41.9202 402.9C42.2102 400.16 44.6702 398.16 47.4102 398.45C50.1602 398.74 52.1502 401.2 51.8602 403.94C51.5902 406.51 49.4202 408.42 46.9002 408.42C46.7202 408.42 46.5502 408.42 46.3702 408.4Z" fill="black"/>
<path d="M45.7999 408.37L45.0199 408.32C42.2599 408.15 40.1599 405.78 40.3299 403.02C40.4999 400.27 42.8699 398.17 45.6199 398.34L46.4099 398.38C49.1599 398.55 51.2599 400.92 51.0899 403.68C50.9299 406.33 48.7299 408.38 46.1099 408.38C46.0099 408.38 45.8999 408.38 45.7999 408.38V408.37Z" fill="black"/>
<path d="M35.34 404.25C35.01 401.51 36.97 399.02 39.71 398.69C42.45 398.37 44.94 400.32 45.27 403.07C45.6 405.81 43.64 408.3 40.9 408.62C40.69 408.65 40.49 408.66 40.3 408.66C37.8 408.66 35.64 406.79 35.34 404.25Z" fill="black"/>
<path d="M31.3201 405.74C30.6401 403.06 32.2601 400.34 34.9301 399.66C37.6101 398.98 40.3301 400.6 41.0101 403.27C41.6901 405.95 40.0701 408.67 37.4001 409.35C36.9801 409.46 36.5701 409.51 36.1601 409.51C33.9301 409.51 31.8901 408 31.3201 405.74Z" fill="black"/>
<path d="M28.8299 407.18C27.8899 404.58 29.2399 401.71 31.8299 400.78C34.4299 399.84 37.2999 401.19 38.2299 403.78C39.1699 406.38 37.8299 409.24 35.2299 410.18C34.6699 410.39 34.0999 410.48 33.5299 410.48C31.4799 410.48 29.5599 409.21 28.8299 407.18Z" fill="black"/>
<path d="M22.6402 413.23C20.7502 411.21 20.8602 408.05 22.8802 406.16C24.9002 404.28 28.0602 404.39 29.9502 406.4C31.8302 408.42 31.7202 411.58 29.7102 413.47C28.7402 414.37 27.5202 414.82 26.2902 414.82C24.9602 414.82 23.6202 414.28 22.6402 413.23Z" fill="black"/>
<path d="M20.9 415.34C18.86 413.47 18.73 410.31 20.6 408.28C22.46 406.24 25.63 406.1 27.66 407.97C29.69 409.84 29.83 413 27.97 415.04C26.98 416.11 25.63 416.66 24.28 416.66C23.07 416.66 21.86 416.22 20.9 415.34Z" fill="black"/>
<path d="M15.7603 430.45C13.0603 429.84 11.3803 427.16 11.9903 424.46C12.6003 421.77 15.2703 420.08 17.9703 420.69C20.6603 421.3 22.3503 423.98 21.7403 426.68C21.2103 429 19.1503 430.57 16.8703 430.57C16.5003 430.57 16.1303 430.53 15.7603 430.45Z" fill="black"/>
<path d="M15.3399 432.33C12.6499 431.72 10.9599 429.05 11.5599 426.35L11.7699 425.41C12.3799 422.72 15.0499 421.02 17.7499 421.63C20.4399 422.24 22.1399 424.91 21.5299 427.6L21.3199 428.54C20.7999 430.87 18.7299 432.45 16.4499 432.45C16.0799 432.45 15.7099 432.41 15.3399 432.33Z" fill="black"/>
<path d="M15.6802 435.83C12.9202 435.67 10.8202 433.31 10.9802 430.55C11.1402 427.79 13.5102 425.69 16.2702 425.85C19.0202 426.01 21.1202 428.38 20.9602 431.14C20.8102 433.79 18.6002 435.84 15.9802 435.84C15.8802 435.84 15.7802 435.84 15.6802 435.84V435.83Z" fill="black"/>
<path d="M14.8702 450.57C13.5902 448.12 14.5502 445.1 17.0002 443.83C19.4502 442.56 22.4702 443.51 23.7402 445.96C25.0102 448.41 24.0602 451.43 21.6102 452.7C20.8702 453.09 20.0802 453.27 19.3102 453.27C17.5002 453.27 15.7602 452.29 14.8702 450.57Z" fill="black"/>
<path d="M18.36 455.77C16.57 453.67 16.82 450.52 18.91 448.72C21.01 446.93 24.17 447.17 25.96 449.27C27.76 451.37 27.51 454.53 25.41 456.32C24.47 457.13 23.32 457.52 22.17 457.52C20.76 457.52 19.35 456.93 18.36 455.77Z" fill="black"/>
<path d="M32.2499 465.47C29.6499 464.54 28.2999 461.68 29.2299 459.08C30.1599 456.48 33.0199 455.13 35.6199 456.06C38.2199 456.99 39.5699 459.85 38.6399 462.45C37.9099 464.49 35.9899 465.77 33.9399 465.77C33.3799 465.77 32.8099 465.67 32.2499 465.47Z" fill="black"/>
<path d="M36.0902 466.75C33.3802 466.21 31.6302 463.57 32.1802 460.86C32.7302 458.15 35.3702 456.41 38.0702 456.95C40.7802 457.5 42.5302 460.14 41.9802 462.85C41.5002 465.22 39.4202 466.85 37.0902 466.85C36.7602 466.85 36.4202 466.82 36.0902 466.75Z" fill="black"/>
<path d="M38.1499 467.18C35.4499 466.62 33.7099 463.98 34.2699 461.27C34.8299 458.57 37.4699 456.83 40.1799 457.39C42.8799 457.95 44.6199 460.6 44.0599 463.3C43.5699 465.66 41.4899 467.29 39.1699 467.29C38.8299 467.29 38.4899 467.25 38.1499 467.18Z" fill="black"/>
<path d="M42.7102 467.79C39.9502 467.59 37.8802 465.2 38.0802 462.44C38.2802 459.69 40.6802 457.62 43.4302 457.82C46.1902 458.02 48.2602 460.41 48.0602 463.17C47.8602 465.8 45.6702 467.81 43.0802 467.81C42.9502 467.81 42.8302 467.8 42.7102 467.79Z" fill="black"/>
<path d="M44.54 467.91C44.42 467.91 44.29 467.91 44.17 467.9L42.71 467.79C39.96 467.59 37.89 465.19 38.09 462.44C38.29 459.69 40.69 457.62 43.44 457.82L44.9 457.93C47.65 458.13 49.72 460.53 49.52 463.28C49.33 465.91 47.13 467.91 44.54 467.91Z" fill="black"/>
<path d="M29.1402 445.48C27.2902 443.43 27.4402 440.27 29.4902 438.42C31.5302 436.56 34.7002 436.72 36.5502 438.76C38.4102 440.81 38.2502 443.97 36.2102 445.82C35.2502 446.69 34.0502 447.12 32.8502 447.12C31.4902 447.12 30.1302 446.57 29.1402 445.48Z" fill="black"/>
<path d="M25.9602 440.62C24.7402 438.14 25.7602 435.15 28.2402 433.93C30.7202 432.71 33.7202 433.73 34.9302 436.21C36.1502 438.68 35.1302 441.68 32.6602 442.9C31.9502 443.25 31.1902 443.41 30.4502 443.41C28.6102 443.41 26.8302 442.39 25.9602 440.62Z" fill="black"/>
<path d="M29.2501 438.34C26.4801 438.34 24.2601 436.08 24.2701 433.32C24.2801 430.56 26.5301 428.33 29.2901 428.34C32.0501 428.35 34.2801 430.6 34.2701 433.36C34.2601 436.12 32.0201 438.34 29.2701 438.34H29.2501Z" fill="black"/>
<path d="M28.4599 436.21C25.7399 435.76 23.8999 433.18 24.3499 430.46C24.7999 427.73 27.3799 425.89 30.0999 426.35C32.8299 426.8 34.6699 429.38 34.2099 432.1C33.8099 434.55 31.6899 436.28 29.2899 436.28C29.0199 436.28 28.7399 436.26 28.4599 436.21Z" fill="black"/>
<path d="M28.4698 430.54C26.0698 429.18 25.2298 426.13 26.5898 423.72C27.9498 421.32 30.9998 420.48 33.3998 421.84C35.8098 423.2 36.6498 426.25 35.2898 428.65C34.3698 430.28 32.6798 431.19 30.9298 431.19C30.0998 431.19 29.2498 430.98 28.4698 430.54Z" fill="black"/>
<path d="M38.0198 419.12C37.7398 416.37 39.7398 413.91 42.4798 413.63C45.2298 413.35 47.6898 415.34 47.9698 418.09C48.2498 420.84 46.2598 423.29 43.5098 423.58C43.3398 423.58 43.1598 423.6 42.9898 423.6C40.4598 423.6 38.2898 421.69 38.0198 419.12Z" fill="black"/>
<path d="M46.5803 423.57C43.9003 422.87 42.3103 420.14 43.0103 417.47C43.7103 414.79 46.4503 413.2 49.1203 413.9C51.7903 414.61 53.3803 417.34 52.6803 420.01C52.0903 422.26 50.0703 423.74 47.8503 423.74C47.4303 423.74 47.0003 423.69 46.5803 423.57Z" fill="black"/>
<path d="M51.67 426.08C49.72 424.13 49.72 420.96 51.67 419.01C53.62 417.06 56.78 417.06 58.74 419.02C60.69 420.97 60.69 424.14 58.73 426.09C57.76 427.06 56.48 427.55 55.2 427.55C53.92 427.55 52.64 427.06 51.66 426.08H51.67Z" fill="black"/>
<path d="M52.9401 427.39C51.2801 425.18 51.7201 422.05 53.9301 420.38C56.1401 418.72 59.2701 419.17 60.9301 421.38C62.5901 423.58 62.1501 426.72 59.9401 428.38C59.0401 429.05 57.9901 429.38 56.9401 429.38C55.4201 429.38 53.9201 428.69 52.9401 427.39Z" fill="black"/>
<path d="M54.9399 432.84C54.7199 430.09 56.7799 427.69 59.5399 427.47C62.2899 427.26 64.6899 429.32 64.9099 432.08C65.1199 434.83 63.0599 437.23 60.3099 437.45C60.1799 437.45 60.0499 437.45 59.9199 437.45C57.3299 437.45 55.1399 435.46 54.9399 432.83V432.84Z" fill="black"/>
<path d="M57.5 442.57C54.9 441.66 53.53 438.8 54.45 436.2C55.36 433.59 58.22 432.22 60.82 433.14C63.43 434.06 64.8 436.91 63.88 439.52C63.16 441.57 61.23 442.86 59.16 442.86C58.61 442.86 58.05 442.77 57.5 442.57Z" fill="black"/>
<path d="M54.8001 445.27C52.5101 443.72 51.9001 440.61 53.4501 438.32C54.9901 436.04 58.1001 435.43 60.3901 436.97C62.6801 438.52 63.2801 441.63 61.7401 443.92C60.7701 445.35 59.1901 446.12 57.5901 446.12C56.6301 446.12 55.6501 445.84 54.8001 445.27Z" fill="black"/>
<path d="M42.0698 452.54C39.3398 452.17 37.4098 449.65 37.7798 446.92C38.1498 444.18 40.6598 442.26 43.3998 442.63C46.1398 442.99 48.0598 445.51 47.6898 448.25C47.3598 450.76 45.2098 452.58 42.7398 452.58C42.5198 452.58 42.2998 452.57 42.0698 452.54Z" fill="black"/>
<path d="M36.9001 451.02C34.3401 449.97 33.1201 447.05 34.1701 444.49C35.2201 441.94 38.1501 440.72 40.7001 441.77C43.2501 442.82 44.4701 445.74 43.4201 448.3C42.6301 450.23 40.7601 451.4 38.7901 451.4C38.1601 451.4 37.5201 451.28 36.9001 451.02Z" fill="black"/>
<path d="M38.7902 451.39C37.7802 451.39 36.7602 451.08 35.8702 450.45L29.9302 446.18C27.6902 444.57 27.1802 441.44 28.7902 439.2C30.4002 436.96 33.5302 436.45 35.7702 438.06L41.7102 442.33C43.9502 443.94 44.4602 447.07 42.8502 449.31C41.8702 450.67 40.3402 451.39 38.7902 451.39Z" fill="black"/>
<path d="M121.74 117.71C118.98 117.55 116.87 115.19 117.03 112.44C117.18 109.68 119.54 107.57 122.3 107.72C125.06 107.88 127.17 110.24 127.01 113C126.86 115.66 124.65 117.72 122.02 117.72C121.93 117.72 121.83 117.72 121.74 117.72V117.71Z" fill="black"/>
<path d="M129.03 112.66C127.99 110.1 129.23 107.19 131.78 106.15C134.34 105.11 137.26 106.34 138.3 108.9C139.34 111.46 138.1 114.37 135.55 115.41C134.93 115.66 134.29 115.78 133.67 115.78C131.69 115.78 129.82 114.6 129.03 112.66Z" fill="black"/>
<path d="M135.29 110.36C133.83 108.01 134.54 104.93 136.89 103.47C139.23 102.01 142.32 102.72 143.78 105.07C145.24 107.41 144.52 110.5 142.18 111.96C141.35 112.47 140.44 112.71 139.54 112.71C137.87 112.71 136.24 111.88 135.29 110.36Z" fill="black"/>
<path d="M136.35 110.42C134.58 108.3 134.87 105.15 136.99 103.38C137.15 103.25 137.4 103.03 137.77 102.74C139.95 101.05 143.09 101.45 144.78 103.64C146.47 105.82 146.07 108.96 143.89 110.65C143.83 110.69 143.66 110.84 143.39 111.06C142.46 111.84 141.32 112.22 140.19 112.22C138.76 112.22 137.34 111.61 136.35 110.42Z" fill="black"/>
<path d="M141.68 106.86C139.53 105.13 139.2 101.98 140.93 99.8298C142.67 97.6798 145.82 97.3498 147.96 99.0798C150.11 100.82 150.45 103.96 148.71 106.11C147.73 107.34 146.28 107.97 144.82 107.97C143.72 107.97 142.61 107.61 141.68 106.86Z" fill="black"/>
<path d="M149.3 96.93C146.66 96.12 145.18 93.32 145.99 90.68C146.8 88.04 149.6 86.56 152.24 87.37C154.88 88.18 156.36 90.98 155.55 93.62C154.89 95.77 152.91 97.15 150.77 97.15C150.29 97.15 149.79 97.08 149.3 96.93Z" fill="black"/>
<path d="M146.68 80.47C146.28 77.74 148.17 75.2 150.9 74.8C153.64 74.4 156.17 76.29 156.57 79.03C156.97 81.76 155.08 84.3 152.35 84.7C152.1 84.73 151.86 84.75 151.62 84.75C149.18 84.75 147.04 82.96 146.68 80.47Z" fill="black"/>
<path d="M139.48 66.7799C137.45 64.9099 137.31 61.7499 139.18 59.7099C141.04 57.6799 144.21 57.5399 146.24 59.4099C148.28 61.2799 148.41 64.4399 146.54 66.4799C145.56 67.5499 144.21 68.0899 142.86 68.0899C141.65 68.0899 140.44 67.6599 139.48 66.7799Z" fill="black"/>
<path d="M138.99 66.3198L138.49 65.8698C136.46 63.9998 136.33 60.8398 138.2 58.8098C140.07 56.7798 143.23 56.6398 145.26 58.5098L145.75 58.9598C147.79 60.8298 147.92 63.9898 146.05 66.0298C145.06 67.0998 143.72 67.6398 142.37 67.6398C141.16 67.6398 139.95 67.2098 138.99 66.3198Z" fill="black"/>
<path d="M132.19 62.1298C129.66 61.0298 128.5 58.0798 129.61 55.5498C130.71 53.0198 133.66 51.8598 136.19 52.9598C138.72 54.0698 139.88 57.0098 138.77 59.5398C137.95 61.4298 136.12 62.5498 134.19 62.5498C133.52 62.5498 132.84 62.4098 132.19 62.1298Z" fill="black"/>
<path d="M126.06 59.9298C123.46 58.9898 122.12 56.1198 123.06 53.5298C124 50.9298 126.86 49.5798 129.46 50.5198C132.06 51.4598 133.4 54.3298 132.46 56.9298C131.73 58.9598 129.81 60.2298 127.76 60.2298C127.2 60.2298 126.62 60.1298 126.06 59.9298Z" fill="black"/>
<path d="M106.28 52.8199C103.68 51.8799 102.33 49.0199 103.27 46.4199C104.2 43.8199 107.06 42.4699 109.66 43.4099C112.26 44.3399 113.61 47.1999 112.68 49.7999C111.94 51.8399 110.02 53.1099 107.97 53.1099C107.41 53.1099 106.84 53.0199 106.28 52.8199Z" fill="black"/>
<path d="M105.96 53.7798C103.53 52.8898 102.21 50.3298 102.82 47.8798C102.82 47.8198 102.84 47.7498 102.85 47.6598C103.36 44.9398 105.97 43.1498 108.69 43.6598C111.39 44.1698 113.18 46.7598 112.69 49.4698C112.69 49.4698 112.68 49.5598 112.66 49.6398C112.63 49.8398 112.57 50.2298 112.37 50.7898C111.63 52.8198 109.71 54.0798 107.67 54.0798C107.1 54.0798 106.52 53.9798 105.96 53.7798Z" fill="black"/>
<path d="M101.35 66.4799C98.7599 65.5399 97.4199 62.6699 98.3599 60.0699C99.2999 57.4799 102.17 56.1399 104.77 57.0799C107.36 58.0199 108.7 60.8899 107.76 63.4799C107.02 65.5199 105.1 66.7799 103.06 66.7799C102.49 66.7799 101.92 66.6799 101.35 66.4799Z" fill="black"/>
<path d="M103.22 67.1999C103.11 67.1799 102.91 67.1499 102.63 67.0799C99.9399 66.4399 98.2799 63.7399 98.9199 61.0599C99.5599 58.3899 102.23 56.7399 104.9 57.3499C104.9 57.3499 105 57.3499 105.12 57.3799C105.35 57.4299 105.77 57.4999 106.35 57.7099C108.95 58.6599 110.28 61.5299 109.34 64.1199C108.59 66.1499 106.68 67.4099 104.64 67.4099C104.17 67.4099 103.69 67.3399 103.22 67.1999Z" fill="black"/>
<path d="M111.04 70.04C108.44 69.1 107.1 66.24 108.04 63.64C108.98 61.05 111.85 59.7 114.44 60.64C117.04 61.58 118.38 64.45 117.44 67.05C116.7 69.08 114.79 70.35 112.74 70.35C112.18 70.35 111.6 70.25 111.04 70.04Z" fill="black"/>
<path d="M111.12 70.19C110.89 70.03 110.75 69.93 110.71 69.9C108.37 68.43 107.67 65.34 109.15 63.01C110.62 60.67 113.71 59.97 116.05 61.45C116.43 61.69 116.69 61.88 116.82 61.97C119.09 63.55 119.65 66.67 118.08 68.93C117.11 70.33 115.55 71.08 113.97 71.08C112.98 71.08 111.99 70.79 111.12 70.19Z" fill="black"/>
<path d="M102.98 96.27C100.39 95.33 99.0499 92.46 99.9999 89.86C100.94 87.27 103.81 85.93 106.4 86.87C109 87.82 110.34 90.69 109.39 93.28C108.65 95.31 106.74 96.57 104.7 96.57C104.13 96.57 103.55 96.48 102.98 96.27Z" fill="black"/>
<path d="M102.13 96.33C99.5402 95.38 98.2002 92.51 99.1402 89.92C100.09 87.32 102.95 85.98 105.55 86.93C108.15 87.87 109.48 90.74 108.54 93.33C107.8 95.37 105.88 96.63 103.84 96.63C103.27 96.63 102.69 96.53 102.13 96.33Z" fill="black"/>
<path d="M92.5302 92.8098C89.9402 91.8598 88.6102 88.9898 89.5602 86.3998C90.5102 83.8098 93.3802 82.4698 95.9702 83.4198C98.5602 84.3698 99.9002 87.2398 98.9502 89.8398C98.2102 91.8598 96.2902 93.1198 94.2502 93.1198C93.6802 93.1198 93.1002 93.0198 92.5302 92.8098Z" fill="black"/>
<path d="M88.8803 89.4699C87.9903 86.8499 89.3903 84.0099 92.0003 83.1199C94.6203 82.2399 97.4603 83.6399 98.3503 86.2499C99.2303 88.8699 97.8303 91.6999 95.2203 92.5899C94.6903 92.7699 94.1403 92.8599 93.6103 92.8599C91.5303 92.8599 89.5803 91.5499 88.8803 89.4699Z" fill="black"/>
<path d="M91.7201 93.1599C89.1401 92.2799 87.7501 89.5099 88.5701 86.9199C88.5801 86.8599 88.6201 86.7399 88.6801 86.5399C89.5501 83.9199 92.3901 82.4999 95.0101 83.3699C97.6001 84.2299 99.0201 87.0199 98.1901 89.6199C98.1801 89.6899 98.1401 89.8199 98.0701 90.0399C97.3601 92.1199 95.4201 93.4299 93.3301 93.4299C92.8001 93.4299 92.2501 93.3399 91.7201 93.1599Z" fill="black"/>
<path d="M88.85 100.94C86.25 100.01 84.9 97.1499 85.83 94.5399C86.76 91.9499 89.63 90.5899 92.22 91.5199C94.82 92.4599 96.18 95.3199 95.25 97.9199C94.51 99.9599 92.59 101.23 90.54 101.23C89.98 101.23 89.41 101.14 88.85 100.94Z" fill="black"/>
<path d="M88.9699 102C86.3099 101.28 84.7399 98.5298 85.4599 95.8698L85.5899 95.3898C86.3099 92.7298 89.0599 91.1598 91.7199 91.8798C94.3899 92.5998 95.9599 95.3498 95.2399 98.0098L95.1099 98.4798C94.4999 100.71 92.4899 102.18 90.2899 102.18C89.8499 102.18 89.4099 102.12 88.9699 102Z" fill="black"/>
<path d="M86.7099 105.84C84.1899 104.72 83.0599 101.76 84.1899 99.2399C85.3199 96.7199 88.2699 95.5899 90.7899 96.7199C93.3099 97.8499 94.4399 100.8 93.3099 103.33C92.4799 105.18 90.6599 106.28 88.7499 106.28C88.0699 106.28 87.3699 106.14 86.7099 105.84Z" fill="black"/>
<path d="M118.14 117.29C115.55 116.35 114.21 113.48 115.15 110.89C116.1 108.29 118.97 106.95 121.56 107.9C124.16 108.84 125.5 111.71 124.55 114.3C123.81 116.33 121.9 117.6 119.85 117.6C119.29 117.6 118.71 117.5 118.14 117.29Z" fill="black"/>
<path d="M122.03 117.72C121.94 117.72 121.84 117.72 121.74 117.72L119.57 117.6C116.81 117.44 114.7 115.08 114.86 112.33C115.02 109.57 117.37 107.46 120.13 107.62L122.3 107.74C125.06 107.9 127.17 110.26 127.01 113.01C126.86 115.67 124.65 117.73 122.02 117.73L122.03 117.72Z" fill="black"/>
<path d="M116.94 100.93C114.34 99.9899 113 97.1199 113.94 94.5199C114.88 91.9299 117.75 90.5899 120.35 91.5299C122.94 92.4699 124.28 95.3399 123.34 97.9299C122.6 99.9699 120.69 101.23 118.64 101.23C118.07 101.23 117.5 101.13 116.94 100.93Z" fill="black"/>
<path d="M125.84 76.4499C123.24 75.5099 121.9 72.6399 122.85 70.0499C123.79 67.4499 126.66 66.1099 129.26 67.0599C131.85 67.9999 133.19 70.8699 132.25 73.4699C131.51 75.4999 129.59 76.7599 127.55 76.7599C126.98 76.7599 126.4 76.6599 125.84 76.4499Z" fill="black"/>
<path d="M124.49 75.1399C122.41 73.3199 122.2 70.1599 124.02 68.0899C124.58 67.5099 124.95 67.0599 126.21 66.4899C128.75 65.4199 131.68 66.6199 132.75 69.1699C133.66 71.3499 132.91 73.8199 131.07 75.1499C130.14 75.9599 128.96 76.3799 127.78 76.3799C126.61 76.3799 125.44 75.9699 124.49 75.1399Z" fill="black"/>
<path d="M127.99 76.6C125.63 75.16 124.88 72.09 126.31 69.73C127.75 67.37 130.82 66.62 133.18 68.05C135.54 69.48 136.29 72.56 134.86 74.92C133.92 76.47 132.27 77.33 130.58 77.33C129.7 77.33 128.8 77.09 127.99 76.6Z" fill="black"/>
<path d="M130.71 79.2399C129.25 76.8999 129.97 73.8099 132.32 72.3599C134.66 70.8999 137.74 71.6199 139.2 73.9599C140.66 76.3099 139.94 79.3899 137.6 80.8499C136.78 81.3599 135.86 81.5999 134.96 81.5999C133.29 81.5999 131.66 80.7599 130.71 79.2399Z" fill="black"/>
<path d="M131.61 80.9498C130.9 78.2798 132.49 75.5398 135.16 74.8398C137.83 74.1298 140.56 75.7198 141.27 78.3898C141.98 81.0598 140.39 83.7998 137.72 84.4998C137.29 84.6198 136.86 84.6698 136.43 84.6698C134.22 84.6698 132.2 83.1898 131.61 80.9498Z" fill="black"/>
<path d="M132.13 82.91C131.42 80.24 133 77.5 135.67 76.79C138.34 76.07 141.08 77.66 141.79 80.33C142.5 82.99 140.92 85.73 138.25 86.45C137.82 86.56 137.38 86.62 136.96 86.62C134.75 86.62 132.73 85.14 132.13 82.91Z" fill="black"/>
<path d="M132.06 83.0999C132.03 82.7299 132.03 82.5399 132.03 82.3999C131.89 79.6499 134.01 77.2999 136.77 77.1599C139.52 77.0199 141.87 79.1399 142.01 81.8999C142.02 82.0299 142.02 82.1399 142.03 82.2099V82.2899C142.25 85.0399 140.2 87.4499 137.45 87.6699C137.31 87.6799 137.17 87.6899 137.04 87.6899C134.46 87.6899 132.27 85.7099 132.06 83.0999Z" fill="black"/>
<path d="M128.7 97.8699C126.85 95.8299 127 92.6699 129.04 90.8099C131.09 88.9599 134.25 89.1099 136.11 91.1499C137.96 93.1999 137.81 96.3599 135.76 98.2199C134.81 99.0899 133.6 99.5099 132.41 99.5099C131.04 99.5099 129.69 98.9599 128.7 97.8699Z" fill="black"/>
<path d="M116.67 101.59C114.15 100.48 113.01 97.5199 114.13 94.9999C115.24 92.4699 118.2 91.3299 120.72 92.4499C123.25 93.5699 124.39 96.5199 123.27 99.0499C122.44 100.91 120.61 102.02 118.7 102.02C118.02 102.02 117.33 101.89 116.67 101.59Z" fill="black"/>
<path d="M118.7 102.02C116.08 102.02 113.87 99.97 113.71 97.32L113.66 96.53C113.5 93.77 115.6 91.41 118.35 91.24C121.11 91.08 123.47 93.18 123.64 95.93L123.69 96.72C123.85 99.48 121.75 101.84 119 102.01C118.9 102.01 118.8 102.01 118.7 102.01V102.02Z" fill="black"/>
<path d="M192.23 64.1298C189.83 62.7698 188.99 59.7198 190.35 57.3198C191.71 54.9098 194.76 54.0698 197.16 55.4298C199.57 56.7898 200.41 59.8398 199.05 62.2398C198.13 63.8698 196.44 64.7798 194.69 64.7798C193.86 64.7798 193.01 64.5698 192.23 64.1298Z" fill="black"/>
<path d="M191.81 63.9298L191.1 63.5898C188.61 62.3898 187.58 59.3998 188.78 56.9098C189.99 54.4298 192.98 53.3898 195.46 54.5898L196.17 54.9398C198.66 56.1398 199.69 59.1298 198.49 61.6198C197.63 63.3998 195.84 64.4398 193.99 64.4398C193.26 64.4398 192.51 64.2798 191.81 63.9298Z" fill="black"/>
<path d="M170.33 52.0798C167.91 50.7298 167.04 47.6898 168.38 45.2798C169.72 42.8598 172.76 41.9898 175.18 43.3298C177.59 44.6698 178.46 47.7098 177.12 50.1298C176.21 51.7798 174.5 52.6998 172.75 52.6998C171.93 52.6998 171.09 52.4998 170.33 52.0798Z" fill="black"/>
<path d="M146.75 38.93C144.36 37.55 143.54 34.49 144.92 32.1C146.3 29.71 149.36 28.89 151.75 30.27C154.15 31.65 154.96 34.71 153.58 37.1C152.66 38.7 150.98 39.6 149.25 39.6C148.4 39.6 147.54 39.38 146.75 38.93Z" fill="black"/>
<path d="M148.55 38.7598C145.83 38.2898 144 35.6998 144.47 32.9798C144.5 32.8098 144.51 32.7298 144.53 32.5598C144.81 29.8098 147.26 27.8098 150 28.0798C152.75 28.3598 154.76 30.8098 154.48 33.5598C154.44 33.9398 154.39 34.3298 154.33 34.6798C153.91 37.1198 151.79 38.8298 149.4 38.8298C149.12 38.8298 148.84 38.8098 148.55 38.7598Z" fill="black"/>
<path d="M149.02 37.29C146.28 36.98 144.31 34.5 144.62 31.76L144.7 31.03C145.01 28.28 147.49 26.31 150.23 26.62C152.98 26.93 154.95 29.41 154.64 32.15L154.55 32.89C154.26 35.44 152.1 37.33 149.59 37.32C149.4 37.32 149.21 37.32 149.02 37.29Z" fill="black"/>
<path d="M150.53 25.0999C147.8 24.7299 145.87 22.2199 146.24 19.4799C146.61 16.7399 149.12 14.8199 151.86 15.1899C154.59 15.5499 156.52 18.0699 156.15 20.8099C155.82 23.3199 153.67 25.1399 151.2 25.1399C150.98 25.1399 150.76 25.1299 150.53 25.0999Z" fill="black"/>
<path d="M146.5 20.45C145.89 17.76 147.58 15.08 150.27 14.46C152.96 13.85 155.64 15.54 156.25 18.23C156.87 20.92 155.18 23.6 152.49 24.22C152.11 24.3 151.74 24.34 151.37 24.34C149.09 24.34 147.03 22.77 146.5 20.45Z" fill="black"/>
<path d="M149.48 23.2899C146.94 22.1999 145.76 19.2699 146.84 16.7299C147.29 15.5199 148.72 13.8299 150.82 13.3799C153.52 12.7699 156.19 14.4699 156.8 17.1599C157.24 19.1099 156.47 21.0599 154.98 22.2199C154.05 23.1599 152.77 23.6899 151.44 23.6899C150.79 23.6899 150.12 23.5599 149.48 23.2899Z" fill="black"/>
<path d="M151.31 18.3999C150.71 15.6999 152.4 13.0299 155.09 12.4199C157.79 11.8099 160.46 13.5099 161.07 16.1999C161.68 18.8999 159.98 21.5699 157.29 22.1799C156.92 22.2599 156.55 22.2999 156.19 22.2999C153.9 22.2999 151.84 20.7199 151.31 18.3999Z" fill="black"/>
<path d="M177.1 12.3099C176.46 9.61989 178.11 6.92989 180.8 6.28989C183.48 5.63989 186.18 7.29989 186.82 9.98989C187.46 12.6799 185.81 15.3699 183.12 16.0099C182.73 16.1099 182.34 16.1499 181.95 16.1499C179.69 16.1499 177.64 14.6099 177.1 12.3099Z" fill="black"/>
<path d="M204.9 25.8199C202.16 25.4499 200.25 22.9299 200.62 20.1999C200.99 17.4599 203.51 15.5399 206.25 15.9099C208.98 16.2899 210.9 18.8099 210.53 21.5399C210.19 24.0499 208.04 25.8699 205.58 25.8699C205.36 25.8699 205.13 25.8499 204.9 25.8199Z" fill="black"/>
<path d="M199.18 22.0998C198.65 19.3898 200.42 16.7598 203.13 16.2298C203.29 16.2098 203.51 16.1598 203.85 16.0898C206.56 15.5498 209.19 17.3098 209.73 20.0198C210.27 22.7298 208.51 25.3598 205.8 25.8998C205.64 25.9298 205.4 25.9798 205.04 26.0498C204.72 26.1198 204.4 26.1498 204.08 26.1498C201.74 26.1498 199.64 24.4898 199.18 22.0998Z" fill="black"/>
<path d="M192.08 23.5098C191.55 20.8098 193.31 18.1798 196.02 17.6398C198.73 17.1098 201.36 18.8698 201.89 21.5798C202.43 24.2898 200.66 26.9198 197.95 27.4498C197.63 27.5198 197.3 27.5498 196.98 27.5498C194.64 27.5498 192.55 25.8998 192.08 23.5098Z" fill="black"/>
<path d="M168.46 28.35C167.91 25.64 169.65 23 172.36 22.45C175.06 21.9 177.71 23.65 178.25 26.35C178.8 29.06 177.06 31.7 174.35 32.25C174.01 32.32 173.68 32.35 173.35 32.35C171.02 32.35 168.94 30.72 168.46 28.35Z" fill="black"/>
<path d="M163.56 29.45C162.98 26.75 164.7 24.09 167.4 23.51C170.1 22.93 172.76 24.65 173.34 27.35C173.92 30.05 172.2 32.71 169.5 33.29C169.14 33.37 168.79 33.4 168.44 33.4C166.14 33.4 164.06 31.8 163.56 29.45Z" fill="black"/>
<path d="M165.26 32.9998C162.95 31.4898 162.29 28.3998 163.8 26.0798C164.27 25.3998 164.4 25.3098 164.74 24.9598C166.74 23.0498 169.9 23.1298 171.81 25.1198C173.65 27.0498 173.65 30.0798 171.84 31.9998C170.87 33.1798 169.44 33.8098 167.98 33.8098C167.05 33.8098 166.1 33.5498 165.26 32.9998Z" fill="black"/>
<path d="M166.13 33.8299C165.3 33.3899 165.07 33.1299 164.78 32.8799C164.52 32.6399 164.32 32.4099 164.11 32.1399C162.44 29.9399 162.86 26.7999 165.06 25.1299C167.08 23.5999 169.88 23.8299 171.62 25.5699C173.28 27.0199 173.83 29.4499 172.82 31.5299C171.95 33.2999 170.18 34.3299 168.32 34.3299C167.59 34.3299 166.84 34.1699 166.13 33.8299Z" fill="black"/>
<path d="M170.22 35.86C167.75 34.63 166.75 31.63 167.98 29.16C169.21 26.69 172.21 25.68 174.68 26.91C177.15 28.14 178.16 31.14 176.93 33.62C176.05 35.37 174.29 36.39 172.45 36.39C171.7 36.39 170.94 36.22 170.22 35.86Z" fill="black"/>
<path d="M199.8 50.99C197.34 49.73 196.37 46.72 197.63 44.26C198.88 41.8 201.9 40.83 204.36 42.09C206.81 43.35 207.79 46.36 206.53 48.82C205.65 50.55 203.89 51.54 202.07 51.54C201.31 51.54 200.53 51.36 199.8 50.99Z" fill="black"/>
<path d="M199.21 67.67C196.47 67.3 194.56 64.78 194.93 62.05C195.3 59.31 197.82 57.39 200.55 57.76C203.29 58.14 205.21 60.65 204.84 63.39C204.5 65.9 202.35 67.72 199.89 67.72C199.67 67.72 199.44 67.7 199.21 67.67Z" fill="black"/>
</g>
<path d="M98.79 186.92C96.06 186.55 94.14 184.03 94.51 181.29C94.89 178.55 97.41 176.64 100.14 177.01C102.88 177.38 104.8 179.9 104.42 182.64C104.08 185.15 101.94 186.96 99.48 186.96C99.25 186.96 99.02 186.96 98.79 186.92Z" fill="black"/>
<path d="M83.9298 184.89C81.1898 184.52 79.2798 182 79.6498 179.27C80.0198 176.53 82.5398 174.62 85.2798 174.99C88.0198 175.36 89.9298 177.88 89.5598 180.62C89.2198 183.12 87.0798 184.94 84.6098 184.94C84.3898 184.94 84.1598 184.94 83.9298 184.89Z" fill="black"/>
<path d="M85.9301 170.19C83.2001 169.82 81.2801 167.3 81.6501 164.56C82.0301 161.82 84.5501 159.91 87.2801 160.28C90.0201 160.65 91.9301 163.17 91.5601 165.91C91.2201 168.42 89.0801 170.24 86.6101 170.24C86.3901 170.24 86.1601 170.22 85.9301 170.19Z" fill="black"/>
<path d="M100.8 172.21C98.0601 171.84 96.1401 169.32 96.5201 166.58C96.8901 163.85 99.4101 161.93 102.14 162.31C104.88 162.68 106.8 165.2 106.42 167.93C106.08 170.44 103.94 172.26 101.48 172.26C101.25 172.26 101.03 172.24 100.8 172.21Z" fill="black"/>
<mask id="mask3_2552_5125" style="mask-type:luminance" maskUnits="userSpaceOnUse" x="0" y="0" width="213" height="565">
<path d="M212.73 0H0V564.26H212.73V0Z" fill="white"/>
</mask>
<g mask="url(#mask3_2552_5125)">
<path d="M105.24 260.25C102.5 259.88 100.58 257.36 100.96 254.62C101.33 251.89 103.85 249.97 106.59 250.34C109.32 250.72 111.24 253.24 110.87 255.97C110.52 258.48 108.38 260.3 105.92 260.3C105.69 260.3 105.47 260.28 105.24 260.25Z" fill="black"/>
<path d="M81.83 257.07C79.1 256.7 77.18 254.18 77.55 251.44C77.93 248.71 80.45 246.79 83.18 247.16C85.92 247.53 87.83 250.05 87.46 252.79C87.12 255.3 84.98 257.12 82.52 257.12C82.29 257.12 82.06 257.1 81.83 257.07Z" fill="black"/>
<path d="M60.4101 239.18C57.6801 238.81 55.7601 236.3 56.1301 233.56C56.4901 230.82 59.0101 228.9 61.7501 229.27C64.4801 229.64 66.4001 232.16 66.0401 234.89C65.7001 237.4 63.5501 239.23 61.0901 239.23C60.8601 239.23 60.6401 239.21 60.4101 239.18Z" fill="black"/>
<path d="M75.5402 241.24C72.8002 240.87 70.8902 238.35 71.2602 235.61C71.6302 232.87 74.1502 230.96 76.8902 231.33C79.6202 231.7 81.5402 234.22 81.1702 236.96C80.8202 239.47 78.6802 241.29 76.2202 241.29C75.9902 241.29 75.7702 241.27 75.5402 241.24Z" fill="black"/>
<path d="M72.8201 239.18C71.4901 237.39 71.5301 235.01 72.7601 233.29C73.8801 231.21 76.3501 230.15 78.6801 230.89C81.3101 231.72 82.7701 234.53 81.9301 237.16C81.6701 237.96 81.1901 239.15 79.8201 240.2C78.9201 240.87 77.8701 241.19 76.8301 241.19C75.3101 241.19 73.8001 240.5 72.8201 239.18Z" fill="black"/>
<path d="M79.59 217.87C76.85 217.49 74.94 214.97 75.31 212.24C75.68 209.5 78.2 207.59 80.94 207.96C83.67 208.33 85.59 210.85 85.22 213.59C84.88 216.09 82.73 217.91 80.27 217.91C80.04 217.91 79.82 217.9 79.59 217.87Z" fill="black"/>
<path d="M76.2603 215.67C75.2703 214.62 74.7403 213.14 74.9503 211.59C75.3203 208.86 77.8303 206.93 80.5703 207.3C82.6203 207.64 83.4403 208.66 83.9103 209.18C84.3703 209.76 84.5603 210.17 84.7303 210.53C85.8403 213.06 84.6903 216.01 82.1603 217.12C81.5103 217.41 80.8303 217.54 80.1603 217.54C78.6603 217.54 77.2103 216.86 76.2603 215.67Z" fill="black"/>
<path d="M68.3 215.72C65.56 215.35 63.64 212.83 64.01 210.09C64.39 207.36 66.91 205.44 69.64 205.81C72.38 206.19 74.3 208.7 73.92 211.44C73.58 213.95 71.44 215.77 68.98 215.77C68.75 215.77 68.52 215.75 68.3 215.72Z" fill="black"/>
<path d="M70.2699 201.3C67.5399 200.92 65.6299 198.4 65.9999 195.66C66.3799 192.93 68.8999 191.02 71.6399 191.39C74.3699 191.77 76.29 194.29 75.91 197.03C75.56 199.53 73.4199 201.35 70.9599 201.35C70.7399 201.35 70.5099 201.33 70.2699 201.3Z" fill="black"/>
<path d="M71.0102 201.25C70.4602 201.16 70.2502 201.09 70.1502 201.06C67.5602 200.45 65.8902 197.91 66.3802 195.28C66.8902 192.56 69.5002 190.77 72.2102 191.28C72.5402 191.34 72.7502 191.4 72.8702 191.44C75.3602 192.03 77.0302 194.42 76.6602 197C76.3102 199.5 74.1702 201.3 71.7202 201.3C71.4902 201.3 71.2502 201.3 71.0102 201.25Z" fill="black"/>
<path d="M95.3703 204.57C92.6303 204.19 90.7203 201.67 91.0903 198.94C91.4603 196.2 93.9803 194.28 96.7203 194.66C99.4503 195.03 101.37 197.55 101 200.29C100.66 202.79 98.5103 204.61 96.0503 204.61C95.8303 204.61 95.6003 204.61 95.3703 204.57Z" fill="black"/>
<path d="M94.8301 204.35C92.7701 203.62 91.3501 201.6 91.5001 199.31C91.6801 196.55 94.0601 194.46 96.8101 194.64C97.5301 194.62 99.2501 195.13 100.15 196C102.25 197.79 102.49 200.95 100.7 203.05C99.7101 204.2 98.3101 204.79 96.9001 204.79C96.1901 204.79 95.4901 204.65 94.8301 204.35Z" fill="black"/>
<path d="M91.0903 242.47C88.3603 242.1 86.4403 239.58 86.8103 236.84C87.1803 234.1 89.7003 232.19 92.4403 232.56C95.1803 232.93 97.0903 235.45 96.7203 238.19C96.3803 240.7 94.2303 242.52 91.7703 242.52C91.5503 242.52 91.3203 242.5 91.0903 242.47Z" fill="black"/>
<path d="M91.5099 243.41C89.5499 243.08 88.6699 242.09 88.1599 241.51C87.6499 240.88 87.4199 240.39 87.2199 239.92C86.1899 237.35 87.4399 234.44 89.9999 233.42C92.1199 232.57 94.4799 233.27 95.8099 234.99C96.8399 236.06 97.3899 237.58 97.1599 239.17C96.8099 241.66 94.6699 243.46 92.2199 243.46C91.9899 243.46 91.7499 243.46 91.5099 243.41Z" fill="black"/>
<path d="M106.8 245.49C104.06 245.12 102.15 242.6 102.52 239.87C102.89 237.13 105.41 235.21 108.15 235.58C110.88 235.96 112.8 238.48 112.43 241.21C112.09 243.72 109.94 245.54 107.48 245.54C107.26 245.54 107.03 245.53 106.8 245.49Z" fill="black"/>
<path d="M103.5 243.5C102.08 241.32 102.57 238.38 104.67 236.79C106.87 235.12 110.01 235.55 111.68 237.75C111.94 238.09 112.18 238.49 112.37 238.89C113.56 241.38 112.51 244.37 110.01 245.56C109.32 245.89 108.58 246.05 107.86 246.05C106.1 246.05 104.41 245.11 103.5 243.5Z" fill="black"/>
<path d="M140.81 186.51C138.53 184.94 137.95 181.83 139.52 179.55C141.08 177.28 144.2 176.7 146.47 178.27C148.75 179.83 149.32 182.95 147.76 185.22C146.79 186.63 145.22 187.39 143.63 187.39C142.66 187.39 141.67 187.1 140.81 186.51Z" fill="black"/>
<path d="M144.05 179.78C143.47 177.08 145.19 174.42 147.89 173.84C150.59 173.26 153.25 174.98 153.83 177.68C154.41 180.38 152.69 183.04 149.99 183.62C149.64 183.7 149.29 183.73 148.94 183.73C146.63 183.73 144.56 182.13 144.05 179.78Z" fill="black"/>
<path d="M151.58 183.3C148.86 182.82 147.03 180.24 147.5 177.52C147.98 174.8 150.56 172.97 153.28 173.44C156.01 173.91 157.83 176.5 157.36 179.22C156.94 181.66 154.82 183.37 152.44 183.37C152.15 183.37 151.87 183.35 151.58 183.3Z" fill="black"/>
<path d="M154.19 184.45C151.87 182.95 151.22 179.85 152.72 177.53C154.23 175.22 157.32 174.56 159.64 176.07C161.95 177.57 162.61 180.67 161.11 182.98C160.15 184.46 158.54 185.26 156.91 185.26C155.97 185.26 155.03 185 154.19 184.45Z" fill="black"/>
<path d="M152.98 181.9C152.42 179.2 154.16 176.55 156.86 175.99C159.56 175.43 162.21 177.17 162.77 179.87C163.33 182.58 161.59 185.22 158.89 185.78C158.54 185.85 158.2 185.89 157.87 185.89C155.55 185.89 153.46 184.26 152.98 181.9Z" fill="black"/>
<path d="M153.35 182.22C152.32 180.12 152.88 177.51 154.82 176.05C157.02 174.37 160.15 174.8 161.82 177C162.47 177.9 162.77 178.61 162.96 179.65C163.42 182.37 161.58 184.95 158.86 185.4C158.58 185.45 158.3 185.47 158.03 185.47C155.94 185.47 154.07 184.17 153.35 182.22Z" fill="black"/>
<path d="M128.21 149.32C126.53 147.12 126.96 143.99 129.16 142.32C131.36 140.64 134.49 141.07 136.16 143.27C137.84 145.47 137.41 148.6 135.21 150.28C134.31 150.96 133.24 151.3 132.19 151.3C130.68 151.3 129.19 150.62 128.21 149.32Z" fill="black"/>
<path d="M127.9 148.32C126.57 145.9 127.45 142.85 129.86 141.52C130.25 141.32 130.53 141.2 130.71 141.14C132.77 140.25 135.25 140.84 136.67 142.71C138.34 144.9 137.92 148.04 135.72 149.71C134.94 150.27 134.4 150.47 134.11 150.55C133.52 150.79 132.9 150.9 132.28 150.9C130.52 150.9 128.81 149.97 127.9 148.32Z" fill="black"/>
<path d="M137.57 142.01C135.89 139.81 136.31 136.68 138.5 135C140.7 133.32 143.84 133.74 145.51 135.94C147.19 138.13 146.77 141.27 144.58 142.95C143.67 143.64 142.6 143.97 141.54 143.97C140.04 143.97 138.55 143.3 137.57 142.01Z" fill="black"/>
<path d="M139.97 140.24C138.24 138.09 138.57 134.95 140.72 133.21C142.87 131.48 146.02 131.82 147.75 133.97C149.49 136.12 149.15 139.26 147 141C146.08 141.74 144.97 142.11 143.87 142.11C142.4 142.11 140.96 141.47 139.97 140.24Z" fill="black"/>
<path d="M156.18 161.55C154.51 159.35 154.93 156.22 157.13 154.54C159.33 152.87 162.46 153.3 164.14 155.5C165.81 157.69 165.38 160.83 163.18 162.5C162.28 163.19 161.21 163.52 160.16 163.52C158.65 163.52 157.16 162.84 156.18 161.55Z" fill="black"/>
<path d="M160.64 191.96C158.97 189.77 159.39 186.63 161.59 184.96C163.79 183.29 166.93 183.71 168.6 185.91C170.27 188.11 169.84 191.25 167.64 192.92C166.74 193.61 165.68 193.94 164.62 193.94C163.11 193.94 161.62 193.26 160.64 191.96Z" fill="black"/>
<path d="M156.22 186.17C154.55 183.97 154.97 180.83 157.17 179.16C159.37 177.49 162.5 177.91 164.18 180.11C165.85 182.31 165.43 185.44 163.23 187.12C162.33 187.81 161.26 188.14 160.21 188.14C158.7 188.14 157.21 187.46 156.22 186.17Z" fill="black"/>
<path d="M159.35 188.07L159.1 188.04C156.36 187.71 154.4 185.23 154.73 182.48C155.06 179.74 157.55 177.79 160.29 178.11L160.54 178.15C163.28 178.47 165.24 180.96 164.91 183.7C164.61 186.24 162.45 188.11 159.96 188.11C159.76 188.11 159.56 188.11 159.35 188.07Z" fill="black"/>
<path d="M155.53 186.7C155.53 186.7 155.49 186.62 155.47 186.58C155.38 186.38 155.25 186.11 155.1 185.75C154.06 183.2 155.29 180.28 157.84 179.23C160.4 178.19 163.32 179.42 164.36 181.97C164.4 182.08 164.47 182.2 164.64 182.57C164.69 182.7 164.71 182.64 164.92 183.33C165.67 185.99 164.12 188.75 161.46 189.5C161.01 189.62 160.55 189.68 160.1 189.68C158.15 189.68 156.33 188.53 155.53 186.7Z" fill="black"/>
<path d="M155.64 188.1C155.32 185.35 157.27 182.87 160.02 182.54C162.76 182.21 165.25 184.17 165.57 186.91C165.9 189.65 163.94 192.14 161.2 192.47C161 192.49 160.8 192.51 160.6 192.51C158.11 192.51 155.95 190.64 155.64 188.1Z" fill="black"/>
<path d="M157.89 196.37C155.31 195.37 154.04 192.47 155.04 189.9C156.05 187.32 158.95 186.05 161.52 187.06C164.09 188.06 165.36 190.96 164.36 193.53C163.59 195.51 161.7 196.71 159.7 196.71C159.1 196.71 158.48 196.6 157.89 196.37Z" fill="black"/>
<path d="M155.4 197.47C153.24 195.74 152.91 192.59 154.64 190.44C156.37 188.29 159.52 187.95 161.67 189.68C163.82 191.41 164.16 194.56 162.43 196.71C161.44 197.94 159.99 198.57 158.53 198.57C157.43 198.57 156.32 198.21 155.4 197.47Z" fill="black"/>
<path d="M147.13 197.34C146.95 194.58 149.03 192.2 151.79 192.01C154.54 191.83 156.93 193.92 157.11 196.67C157.29 199.43 155.21 201.81 152.46 201.99C152.34 202 152.23 202 152.12 202C149.51 202 147.31 199.98 147.13 197.34Z" fill="black"/>
<path d="M147.02 201.43C144.42 200.49 143.08 197.62 144.02 195.03C144.96 192.43 147.83 191.09 150.42 192.03C153.02 192.97 154.36 195.84 153.42 198.43C152.68 200.47 150.77 201.73 148.72 201.73C148.15 201.73 147.58 201.64 147.02 201.43Z" fill="black"/>
<path d="M141.68 198.41C139.65 196.54 139.52 193.38 141.39 191.35C143.26 189.31 146.43 189.19 148.46 191.06C150.49 192.93 150.62 196.09 148.74 198.12C147.76 199.19 146.42 199.74 145.07 199.74C143.86 199.74 142.64 199.3 141.68 198.41Z" fill="black"/>
<path d="M140.96 197.68C140.8 197.5 140.69 197.39 140.66 197.35C138.74 195.37 138.79 192.2 140.77 190.28C142.75 188.36 145.91 188.41 147.84 190.39C148.07 190.63 148.23 190.82 148.34 190.93C150.21 192.97 150.06 196.14 148.03 198C147.07 198.87 145.86 199.31 144.65 199.31C143.3 199.31 141.95 198.76 140.96 197.68Z" fill="black"/>
<path d="M141.42 191.52C138.68 191.24 136.68 188.78 136.97 186.03C137.26 183.28 139.72 181.29 142.46 181.58C145.21 181.87 147.21 184.33 146.92 187.07C146.65 189.64 144.48 191.55 141.95 191.55C141.78 191.55 141.6 191.55 141.42 191.52Z" fill="black"/>
<path d="M141.94 191.55C141.31 191.55 140.67 191.43 140.05 191.18C137.49 190.13 136.27 187.21 137.32 184.66L139.02 180.5C140.07 177.94 142.99 176.72 145.54 177.77C148.1 178.82 149.32 181.74 148.27 184.29L146.57 188.45C145.78 190.39 143.91 191.56 141.94 191.56V191.55Z" fill="black"/>
<path d="M182.28 287.69C180.48 285.6 180.72 282.44 182.82 280.64C184.91 278.85 188.07 279.09 189.87 281.19C191.67 283.28 191.42 286.44 189.33 288.24C188.38 289.04 187.23 289.44 186.08 289.44C184.67 289.44 183.27 288.85 182.28 287.69Z" fill="black"/>
<path d="M180.89 286.08C179.09 283.98 179.34 280.83 181.43 279.03C183.53 277.23 186.69 277.47 188.48 279.57C190.28 281.67 190.04 284.82 187.94 286.62C187 287.43 185.84 287.82 184.69 287.82C183.28 287.82 181.88 287.23 180.89 286.08Z" fill="black"/>
<path d="M179.09 284.02C177.42 281.82 177.85 278.68 180.05 277.01C182.25 275.34 185.38 275.77 187.05 277.97C188.72 280.16 188.3 283.3 186.1 284.97C185.19 285.66 184.13 285.99 183.08 285.99C181.57 285.99 180.08 285.31 179.09 284.02Z" fill="black"/>
<path d="M152.87 249.56C151.2 247.37 151.62 244.23 153.82 242.56C156.02 240.88 159.16 241.31 160.83 243.51C162.5 245.71 162.08 248.84 159.88 250.51C158.97 251.2 157.91 251.54 156.85 251.54C155.35 251.54 153.85 250.86 152.87 249.56Z" fill="black"/>
<path d="M151.7 249.96C150.12 247.8 150.53 244.79 152.59 243.12C152.59 243.12 152.6 243.11 152.6 243.1C152.74 242.98 153 242.73 153.5 242.4C155.81 240.89 158.9 241.53 160.42 243.84C161.87 246.05 161.34 248.99 159.26 250.57C159.18 250.64 159.02 250.79 158.69 251.04C157.8 251.69 156.77 252 155.74 252C154.2 252 152.68 251.3 151.7 249.96Z" fill="black"/>
<path d="M149.83 251.47C148.16 249.27 148.59 246.13 150.79 244.46C152.99 242.79 156.12 243.22 157.79 245.42C159.46 247.62 159.04 250.76 156.84 252.43C155.93 253.11 154.87 253.45 153.81 253.45C152.31 253.45 150.81 252.76 149.83 251.47Z" fill="black"/>
<path d="M140.51 258.53C138.84 256.33 139.27 253.19 141.48 251.52C143.67 249.86 146.81 250.29 148.48 252.49C150.15 254.69 149.71 257.83 147.52 259.49C146.61 260.18 145.55 260.51 144.5 260.51C142.99 260.51 141.49 259.83 140.51 258.53Z" fill="black"/>
<path d="M143.36 262.32C141.7 260.11 142.14 256.98 144.35 255.32C146.56 253.66 149.69 254.1 151.35 256.3C153.01 258.51 152.57 261.64 150.36 263.31C149.46 263.98 148.41 264.31 147.36 264.31C145.84 264.31 144.35 263.62 143.36 262.32Z" fill="black"/>
<path d="M142.15 260.19C142.11 258.99 142.49 257.88 143.16 257C144.32 255.2 146.55 254.29 148.71 254.89C151.37 255.64 152.92 258.39 152.18 261.05C152.07 261.43 151.94 261.79 151.71 262.23C151.46 262.66 151.18 263.2 150.31 263.92C149.73 264.37 148.73 264.97 147.31 265.02H147.14C144.45 265.02 142.23 262.89 142.15 260.19Z" fill="black"/>
<path d="M144.56 264.7C141.81 264.51 139.73 262.12 139.93 259.37C140.12 256.61 142.51 254.54 145.27 254.73C148.02 254.92 150.1 257.31 149.9 260.07C149.72 262.7 147.52 264.72 144.92 264.72C144.8 264.72 144.68 264.72 144.56 264.7Z" fill="black"/>
<path d="M135.73 260.66C135.25 257.94 137.07 255.35 139.79 254.88C142.52 254.4 145.1 256.22 145.58 258.94C146.05 261.66 144.23 264.25 141.51 264.73C141.22 264.78 140.93 264.8 140.65 264.8C138.26 264.8 136.15 263.09 135.73 260.66Z" fill="black"/>
<path d="M123.89 269.41C122.11 267.3 122.38 264.14 124.49 262.36C126.6 260.58 129.75 260.85 131.53 262.95C133.31 265.06 133.05 268.22 130.94 270C130 270.79 128.85 271.18 127.71 271.18C126.29 271.18 124.88 270.58 123.89 269.41Z" fill="black"/>
<path d="M121.69 271.17C120 268.98 120.4 265.84 122.59 264.15C124.77 262.46 127.91 262.87 129.6 265.05C131.29 267.24 130.89 270.38 128.7 272.06C127.79 272.77 126.71 273.11 125.65 273.11C124.15 273.11 122.67 272.44 121.69 271.17Z" fill="black"/>
<path d="M120.74 273.7C118.66 271.87 118.46 268.71 120.28 266.64C122.1 264.57 125.26 264.36 127.33 266.18C129.41 268.01 129.61 271.17 127.79 273.24C126.8 274.36 125.42 274.94 124.03 274.94C122.86 274.94 121.68 274.53 120.74 273.7Z" fill="black"/>
<path d="M120.18 275.52C117.89 273.97 117.29 270.86 118.83 268.58C119 268.34 119.19 268.04 119.42 267.72C121.04 265.48 124.16 264.97 126.41 266.58C128.65 268.2 129.16 271.32 127.54 273.56C127.42 273.73 127.27 273.95 127.12 274.17C126.16 275.6 124.58 276.38 122.97 276.38C122.01 276.38 121.04 276.1 120.18 275.52Z" fill="black"/>
<path d="M117.59 292.1C114.83 292 112.68 289.67 112.79 286.91C112.89 284.16 115.22 282 117.98 282.11C120.74 282.21 122.89 284.54 122.78 287.3C122.68 289.99 120.46 292.11 117.79 292.11C117.72 292.11 117.66 292.11 117.59 292.11V292.1Z" fill="black"/>
<path d="M112.95 290.2C112.72 287.45 114.75 285.03 117.5 284.79C120.25 284.55 122.68 286.59 122.92 289.34C123.15 292.09 121.12 294.51 118.37 294.75C118.22 294.75 118.07 294.77 117.93 294.77C115.36 294.77 113.18 292.81 112.95 290.2Z" fill="black"/>
<path d="M115.66 300.61C114.53 298.09 115.65 295.13 118.17 293.99C120.68 292.86 123.64 293.99 124.78 296.5C125.91 299.02 124.79 301.98 122.28 303.11C121.61 303.41 120.91 303.55 120.22 303.55C118.32 303.55 116.5 302.46 115.66 300.61Z" fill="black"/>
<path d="M116.14 301.67L115.9 301.13C114.77 298.61 115.9 295.65 118.43 294.53C120.95 293.41 123.91 294.54 125.03 297.06L125.27 297.6C126.4 300.13 125.26 303.08 122.74 304.21C122.08 304.5 121.39 304.64 120.71 304.64C118.79 304.64 116.97 303.53 116.14 301.67Z" fill="black"/>
<path d="M118.48 305.89C116.91 303.62 117.48 300.51 119.75 298.93C122.02 297.37 125.13 297.93 126.71 300.2C128.28 302.47 127.71 305.59 125.44 307.16C124.57 307.76 123.58 308.05 122.6 308.05C121.01 308.05 119.45 307.3 118.48 305.89Z" fill="black"/>
<path d="M119.69 307.64C118.12 305.37 118.68 302.25 120.95 300.68C123.22 299.11 126.34 299.67 127.91 301.94C129.48 304.21 128.92 307.33 126.65 308.9C125.78 309.5 124.79 309.79 123.81 309.79C122.22 309.79 120.66 309.04 119.69 307.64Z" fill="black"/>
<path d="M121.57 309.93C119.81 307.81 120.1 304.65 122.23 302.89C124.35 301.13 127.5 301.42 129.27 303.55C131.03 305.67 130.73 308.83 128.61 310.59C127.67 311.36 126.54 311.74 125.42 311.74C123.98 311.74 122.56 311.12 121.57 309.93Z" fill="black"/>
<path d="M131.97 318.11C129.5 316.88 128.49 313.88 129.72 311.41C130.95 308.94 133.95 307.93 136.42 309.16C138.9 310.39 139.9 313.39 138.67 315.87C137.8 317.62 136.03 318.64 134.19 318.64C133.44 318.64 132.68 318.47 131.97 318.11Z" fill="black"/>
<path d="M144.04 321.55C141.28 321.35 139.21 318.95 139.41 316.2C139.62 313.44 142.01 311.38 144.77 311.58C147.52 311.78 149.59 314.18 149.39 316.93C149.2 319.56 147 321.56 144.41 321.56C144.29 321.56 144.16 321.56 144.04 321.55Z" fill="black"/>
<path d="M145.46 317.2C145.02 314.47 146.87 311.9 149.6 311.46C152.32 311.02 154.89 312.87 155.33 315.6C155.77 318.33 153.92 320.89 151.19 321.34C150.92 321.38 150.66 321.4 150.39 321.4C147.98 321.4 145.86 319.65 145.46 317.2Z" fill="black"/>
<path d="M150.93 316.9C149.97 314.31 151.28 311.43 153.87 310.46C156.46 309.5 159.34 310.82 160.3 313.41C161.26 316 159.95 318.87 157.36 319.84C156.78 320.05 156.19 320.15 155.62 320.15C153.59 320.15 151.68 318.91 150.93 316.9Z" fill="black"/>
<path d="M151.51 316.68C150.55 314.1 151.86 311.22 154.45 310.25L155.03 310.03C157.62 309.07 160.5 310.38 161.46 312.97C162.43 315.56 161.12 318.44 158.53 319.4L157.95 319.62C157.37 319.83 156.78 319.94 156.2 319.94C154.17 319.94 152.26 318.69 151.51 316.68Z" fill="black"/>
<path d="M158.67 314.6C157.06 312.35 157.58 309.23 159.82 307.62C162.07 306.01 165.19 306.53 166.8 308.77C168.41 311.02 167.89 314.14 165.65 315.75C164.77 316.38 163.75 316.68 162.74 316.68C161.18 316.68 159.65 315.96 158.67 314.6Z" fill="black"/>
<path d="M161.82 312.34C160.21 310.1 160.73 306.98 162.97 305.37C165.22 303.76 168.34 304.28 169.95 306.52C171.55 308.77 171.03 311.89 168.79 313.5C167.91 314.13 166.89 314.44 165.88 314.44C164.33 314.44 162.79 313.71 161.82 312.34Z" fill="black"/>
<path d="M162.28 311.99C160.7 309.75 161.21 306.66 163.43 305.05C165.38 303.25 168.43 303.29 170.33 305.17C172.3 307.12 172.32 310.28 170.37 312.25C169.91 312.71 169.51 312.99 169.26 313.18C168.38 313.8 167.37 314.1 166.37 314.1C164.8 314.1 163.26 313.37 162.28 311.99Z" fill="black"/>
<path d="M163.91 311.74C161.92 309.82 161.87 306.66 163.79 304.67L164.35 304.09C166.27 302.1 169.44 302.04 171.42 303.96C173.41 305.88 173.46 309.04 171.55 311.03L170.98 311.62C170 312.63 168.69 313.14 167.38 313.14C166.13 313.14 164.88 312.68 163.91 311.74Z" fill="black"/>
<path d="M168.82 307.12C166.48 305.66 165.77 302.57 167.23 300.23C168.69 297.89 171.78 297.18 174.12 298.64C176.46 300.1 177.17 303.19 175.71 305.53C174.76 307.05 173.13 307.88 171.46 307.88C170.56 307.88 169.64 307.64 168.82 307.12Z" fill="black"/>
<path d="M173.01 300.42C170.31 299.86 168.57 297.21 169.14 294.51C169.7 291.81 172.35 290.07 175.05 290.64C177.76 291.2 179.49 293.85 178.93 296.55C178.43 298.91 176.35 300.53 174.04 300.53C173.7 300.53 173.36 300.5 173.01 300.42Z" fill="black"/>
<path d="M173.74 301.48C171.93 299.4 172.15 296.24 174.23 294.43C176.31 292.62 179.47 292.84 181.28 294.92C183.1 297 182.88 300.16 180.8 301.97C179.85 302.8 178.68 303.2 177.52 303.2C176.12 303.2 174.73 302.62 173.74 301.48Z" fill="black"/>
<path d="M186.03 291.74C184.36 289.54 184.78 286.4 186.98 284.73C189.18 283.07 192.32 283.49 193.99 285.69C195.66 287.89 195.23 291.03 193.03 292.7C192.13 293.39 191.06 293.72 190.01 293.72C188.5 293.72 187.01 293.04 186.03 291.74Z" fill="black"/>
<path d="M184.04 289.73C182.12 287.75 182.17 284.58 184.16 282.66C186.15 280.75 189.31 280.8 191.23 282.79C193.15 284.77 193.1 287.94 191.11 289.86C190.14 290.79 188.88 291.26 187.63 291.26C186.33 291.26 185.02 290.75 184.04 289.73Z" fill="black"/>
<path d="M187.64 291.26C186.23 291.26 184.82 290.66 183.83 289.5L182.28 287.68C180.49 285.58 180.74 282.42 182.84 280.63C184.94 278.84 188.1 279.09 189.89 281.19L191.44 283.01C193.23 285.11 192.98 288.27 190.88 290.06C189.94 290.86 188.79 291.25 187.64 291.25V291.26Z" fill="black"/>
<path d="M160.94 297.27C158.43 296.12 157.33 293.15 158.49 290.64C159.64 288.13 162.61 287.03 165.12 288.19C167.62 289.34 168.72 292.31 167.57 294.82C166.72 296.65 164.91 297.73 163.02 297.73C162.32 297.73 161.61 297.59 160.94 297.27Z" fill="black"/>
<path d="M154.92 301.25C153.14 299.14 153.4 295.99 155.51 294.21C157.63 292.43 160.78 292.69 162.56 294.8C164.34 296.91 164.08 300.07 161.97 301.85C161.03 302.64 159.88 303.03 158.74 303.03C157.32 303.03 155.91 302.43 154.92 301.25Z" fill="black"/>
<path d="M153.34 302.59C151.56 300.48 151.82 297.33 153.93 295.55C156.04 293.76 159.2 294.03 160.98 296.14C162.76 298.25 162.49 301.41 160.38 303.19C159.44 303.98 158.3 304.37 157.16 304.37C155.74 304.37 154.32 303.76 153.34 302.59Z" fill="black"/>
<path d="M149.65 303.28C148.46 300.79 149.51 297.8 152 296.61C154.49 295.42 157.48 296.47 158.67 298.96C159.86 301.45 158.81 304.43 156.32 305.63C155.63 305.96 154.89 306.12 154.17 306.12C152.3 306.12 150.51 305.07 149.65 303.28Z" fill="black"/>
<path d="M146.46 307.04C143.7 306.8 141.67 304.38 141.91 301.63C142.15 298.87 144.57 296.84 147.32 297.08C150.08 297.32 152.11 299.74 151.87 302.5C151.64 305.1 149.46 307.06 146.89 307.06C146.75 307.06 146.6 307.06 146.46 307.04Z" fill="black"/>
<path d="M142.88 306.26C140.23 305.5 138.69 302.73 139.44 300.08C140.2 297.42 142.97 295.88 145.62 296.64C148.28 297.4 149.82 300.16 149.06 302.82C148.44 305.02 146.43 306.45 144.26 306.45C143.8 306.45 143.34 306.39 142.88 306.26Z" fill="black"/>
<path d="M135.91 302.68C133.72 300.99 133.32 297.85 135.01 295.67C136.7 293.48 139.84 293.08 142.03 294.77C144.21 296.46 144.61 299.6 142.92 301.79C141.94 303.06 140.46 303.73 138.96 303.73C137.9 303.73 136.82 303.39 135.91 302.68Z" fill="black"/>
<path d="M128.41 291.27C127.71 288.6 129.31 285.86 131.98 285.16C134.65 284.46 137.38 286.06 138.08 288.73C138.79 291.4 137.19 294.13 134.52 294.83C134.09 294.94 133.67 295 133.25 295C131.03 295 129 293.51 128.41 291.27Z" fill="black"/>
<path d="M132.16 288.56C129.45 288.04 127.67 285.42 128.19 282.71C128.71 280 131.33 278.22 134.04 278.74C136.76 279.27 138.53 281.89 138.01 284.6C137.55 286.99 135.46 288.66 133.11 288.66C132.79 288.66 132.48 288.63 132.16 288.56Z" fill="black"/>
<path d="M133.68 279.91C131.63 278.06 131.47 274.9 133.32 272.85C135.18 270.8 138.34 270.64 140.39 272.5C142.43 274.35 142.59 277.51 140.74 279.56C139.75 280.65 138.39 281.2 137.03 281.2C135.83 281.2 134.63 280.78 133.68 279.91Z" fill="black"/>
<path d="M135.28 277.84C133.45 275.77 133.64 272.61 135.71 270.78C137.78 268.95 140.94 269.15 142.77 271.21C144.6 273.28 144.4 276.44 142.34 278.27C141.38 279.11 140.2 279.53 139.03 279.53C137.64 279.53 136.27 278.96 135.28 277.84Z" fill="black"/>
<path d="M135.95 277.21C134.14 275.12 134.35 271.97 136.43 270.15L137.13 269.54C139.21 267.73 142.37 267.94 144.19 270.02C146 272.1 145.79 275.26 143.71 277.08L143.01 277.69C142.06 278.51 140.89 278.92 139.72 278.92C138.33 278.92 136.94 278.34 135.95 277.21Z" fill="black"/>
<path d="M138.48 273.86C137.34 271.34 138.46 268.38 140.97 267.24C143.49 266.1 146.45 267.22 147.59 269.73C148.73 272.25 147.61 275.21 145.1 276.35C144.43 276.65 143.73 276.79 143.04 276.79C141.13 276.79 139.32 275.7 138.48 273.86Z" fill="black"/>
<path d="M143.77 270.65C143.75 267.89 145.97 265.64 148.73 265.61C151.49 265.59 153.75 267.81 153.77 270.57C153.79 273.33 151.57 275.59 148.81 275.61H148.77C146.03 275.61 143.79 273.4 143.77 270.65Z" fill="black"/>
<path d="M153.6 276.6C151.04 275.57 149.79 272.66 150.82 270.1C151.85 267.53 154.76 266.29 157.32 267.32C159.89 268.34 161.13 271.25 160.1 273.82C159.32 275.77 157.44 276.96 155.46 276.96C154.84 276.96 154.21 276.84 153.6 276.6Z" fill="black"/>
<path d="M158.09 280.85C156.6 278.52 157.29 275.43 159.62 273.95C161.95 272.47 165.04 273.16 166.52 275.49C168.01 277.82 167.32 280.91 164.99 282.39C164.16 282.92 163.23 283.17 162.31 283.17C160.66 283.17 159.04 282.35 158.09 280.85Z" fill="black"/>
</g>
</g>
<defs>
<clipPath id="clip0_2552_5125">
<rect width="212.73" height="564.26" fill="white"/>
</clipPath>
</defs>
</svg>
