<svg width="334" height="195" viewBox="0 0 334 195" fill="none" xmlns="http://www.w3.org/2000/svg">
<path d="M260.84 104.43C260.84 104.51 260.69 104.66 260.62 104.66H248.44V64.36H243.77C243.66 64.36 243.46 64.3 243.39 64.36C243.3 64.43 243.29 64.63 243.36 64.81V104.64L228.82 104.66V33.31C228.78 33.17 228.73 33.1 228.77 33.07L229 32.88H253.77C254.19 32.88 254.62 33 255.01 33.06C256.54 33.28 257.94 33.85 259 35.02C260.21 36.36 260.59 38.32 260.72 40.09L260.83 41.49V104.44L260.84 104.43Z" fill="#90BEFB"/>
<path d="M32.01 130.23V172.89C32.01 173.21 31.55 173.34 31.31 173.21H14.85C14.57 173.21 14.37 173.33 14.18 173.11C14.06 172.96 14.14 172.76 14.14 172.51V153.84C13.92 153.73 13.77 153.79 13.55 153.79H9.58C9.44 153.79 9.07 153.66 9.07 153.92V193.77C9.07 194.01 8.88 194.19 8.68 194.19H0.58C0.35 194.19 0.15 194.11 0 193.99V122.4C0 122.4 0.23 122.3 0.31 122.3H24.87C25.19 122.3 25.58 122.37 25.85 122.43L27.07 122.66C28.12 122.86 28.96 123.39 29.78 124.05C30.95 124.99 31.62 127.28 31.81 128.73L32.01 130.23Z" fill="#90BEFB"/>
<path d="M59.7904 89.29C64.0504 89.29 67.5104 92.74 67.5104 97C67.5104 101.26 64.0604 104.71 59.7904 104.71C55.5204 104.71 52.0804 101.26 52.0804 97C52.0804 92.74 55.5304 89.29 59.7904 89.29ZM74.8604 119.96H53.8004L53.0104 119.92C52.8504 119.92 52.4904 119.84 52.3804 119.92C52.2304 120.03 52.4004 120.41 52.4004 120.56V123.95C52.4004 124.32 52.2404 124.71 52.3604 125.09C52.4404 125.36 52.4304 125.8 52.2004 126H45.3904C45.2404 126 44.9904 125.94 44.9104 125.85C44.8304 125.77 44.8004 125.49 44.8404 125.36C44.9104 125.1 44.8204 124.87 44.8204 124.61V113.04C44.8004 112.63 44.8404 112.31 45.0504 111.96H75.5804C75.7304 111.65 75.5504 111.43 75.5504 111.14V57.67L75.5804 56.95L75.5104 55.14C75.4204 52.86 74.8504 50.65 73.7204 48.66C72.8404 47.11 71.5604 46.02 69.9704 45.27C68.8904 44.76 67.7604 44.63 66.5304 44.37L45.0604 44.41C43.5004 44.41 42.0104 44.88 40.6304 45.45C38.8904 46.18 37.4804 47.29 36.2904 48.72C34.6404 50.7 33.7104 52.99 33.5104 55.57C33.4804 55.93 33.4004 56.3 33.4004 56.69V128.08C33.5904 129.73 33.7004 131.3 34.2804 132.83C35.1904 135.27 36.8304 137.35 39.2004 138.43C39.8204 138.72 40.4404 139 41.0804 139.18C41.8004 139.4 43.9904 139.84 44.6504 139.84H66.6404C68.5304 139.6 70.1904 139.03 71.6904 137.92C72.5704 137.28 73.7004 135.77 74.1504 134.7C74.6504 133.51 75.0604 132.26 75.2604 130.97C75.3704 130.31 75.5204 129.64 75.5304 128.98L75.6104 121.05L75.6604 119.88C75.4404 119.83 75.2004 119.94 74.9004 119.94" fill="#90BEFB"/>
<path d="M109.47 56.67H86.6698V70.99C86.6698 71.35 86.7498 71.63 86.4498 71.88H78.0898C77.9398 71.88 77.7398 71.76 77.5898 71.64L77.6098 7.93C77.6098 6.21 78.5498 4.57 79.4998 3.31C80.6798 1.73 82.7598 0.49 84.7098 0.19L85.9298 0L101.75 0.04C102.95 0.04 104.17 0.47 105.16 1.01C106.57 1.78 107.66 2.91 108.47 4.25C108.98 5.09 109.41 5.94 109.5 6.92C109.54 7.34 109.7 7.77 109.7 8.22V44.64C109.7 44.94 109.64 45.13 109.48 45.35H97.6098C97.3998 45.35 97.2098 45.16 97.2098 44.95V31.84C97.3598 31.63 97.3298 31.38 97.1298 31.3H92.1398L92.1498 50.62H109.34C109.53 50.62 109.71 50.91 109.71 51.03V56.18C109.66 56.36 109.59 56.5 109.47 56.67Z" fill="#90BEFB"/>
<path d="M180.37 93.99C180.37 94.17 180.26 94.42 180.15 94.45C180 94.49 179.76 94.45 179.57 94.45C179.32 94.43 179.11 94.42 178.8 94.42H163.22C162.97 94.42 162.76 94.59 162.59 94.39C162.42 94.19 162.5 94.02 162.5 93.71V74.98L157.84 74.99C157.71 74.99 157.58 74.99 157.46 75C157.32 75.02 157.42 75.26 157.42 75.43V115.05C157.35 115.23 157.2 115.38 157.02 115.38H148.34V43.5H173.11L174.1 43.61L175.32 43.86C176.48 44.1 177.45 44.63 178.33 45.47C179.04 46.15 179.44 47.15 179.75 48.11C180.11 49.21 180.18 50.28 180.36 51.47V94L180.37 93.99Z" fill="#90BEFB"/>
<path d="M209.37 137.02C213.63 137.02 217.08 140.47 217.08 144.72C217.08 148.97 213.63 152.43 209.37 152.43C205.11 152.43 201.66 148.98 201.66 144.72C201.66 140.46 205.11 137.02 209.37 137.02ZM194.93 159.69H225.17V104.56C224.98 103.83 225.15 103.16 225.04 102.47L224.75 100.51C224.65 99.8599 224.17 98.4099 223.92 97.7399C223.15 95.6699 221.65 93.9999 219.61 93.0799C218.61 92.6199 217.41 92.1499 216.22 92.1599H194.49C191 92.1799 187.19 94.3499 185.22 97.2599C183.52 99.7699 183.23 101.42 182.91 104.48V175.48C182.91 175.83 183.01 176.17 183.04 176.47L183.12 177.47C183.17 178.12 183.33 178.78 183.49 179.42C184.1 182.02 185.83 184.73 188.29 185.95C190.05 186.83 192.02 187.55 194.08 187.56L216.24 187.59C217.08 187.59 217.88 187.26 218.63 187.03C221.55 186.15 223.37 183.86 224.22 181C224.52 180.02 224.79 179.07 224.9 178.05C224.99 177.22 224.97 176.44 225.06 175.6L225.15 174.82V167.68C225.12 167.55 224.71 167.7 224.42 167.7H203.48L202.78 167.68C202.33 167.66 201.9 167.52 201.91 167.71L201.93 168.02L201.95 173.38C201.95 173.49 201.76 173.76 201.65 173.76H194.43V160.11C194.46 159.82 194.63 159.71 194.94 159.71" fill="#90BEFB"/>
<path d="M118.59 58.81C118.59 55.32 121.42 52.49 124.92 52.49C128.42 52.49 131.24 55.32 131.24 58.81C131.24 62.3 128.41 65.13 124.92 65.13C121.43 65.13 118.59 62.3 118.59 58.81ZM143.97 79.17C142.93 79.2 141.9 79.23 140.89 79.14C139.76 79.03 138.66 79.18 137.52 79.15C136.73 79.12 135.97 79.1 135.2 79.12L134.17 79.14L132.97 79.16C132.62 79.16 132.22 79.21 131.89 79.14C131.7 79.11 131.17 79.05 131.17 79.4V105.88C131.17 105.98 131.3 106.18 131.23 106.22C131.18 106.25 131.02 106.31 130.95 106.31H128.63V71.1L136.97 71.07C137.56 71.07 138.12 70.88 138.7 70.83C142.32 70.06 144.89 67.66 145.45 63.91C145.51 63.52 145.69 63.07 145.69 62.67L145.66 53.01C145.66 51.63 145.14 50.27 144.53 49.09C143.82 47.72 142.13 46.06 140.71 45.4C139.47 44.83 138.12 44.24 136.69 44.24H121.09C118.42 44.26 116.16 45.78 114.92 48.05C114.2 49.36 114.04 50.75 113.8 52.25V108.72C114.24 111.66 116.23 114.25 118.9 115.38C119.68 115.71 120.63 116.05 121.55 116.05H138.94C140.32 116.05 141.44 115.23 142.39 114.44C143 113.94 143.39 113.36 143.85 112.75C144.82 111.46 145.37 110.05 145.72 108.42V79.24C145.13 78.96 144.55 79.17 143.97 79.18" fill="#90BEFB"/>
<path d="M282.46 82.9H297V107.54C296.74 109.34 296.1 110.91 295.05 112.34C294.55 113.02 294.1 113.61 293.41 114.15C292.61 114.78 291.58 115.53 290.42 115.53H272.55C271.32 115.53 270.11 114.93 269.14 114.36C267.73 113.54 266.06 111.72 265.57 110.19C265.29 109.33 265 108.46 265 107.49V52.03C265 50.11 265.87 48.39 267.03 47C267.91 45.95 268.95 45.25 270.16 44.64C270.62 44.4 272.44 43.98 272.84 43.98L290.23 44C291.67 44 292.85 44.9 293.82 45.77C295.27 47.08 296.96 50.07 296.96 52.01L297.03 80.23C297.03 80.48 296.95 80.8 296.79 80.87C296.34 81.05 295.97 80.85 295.53 80.85H283.18C282.94 80.85 282.75 80.96 282.56 80.8C282.42 80.68 282.47 80.5 282.47 80.23V54.94V53.73H279.86C279.82 54.16 279.85 54.55 279.91 54.91C279.93 55.05 279.83 55.35 279.83 55.5V68.34L279.85 69.15L279.89 70.86C279.91 71.62 279.89 72.36 279.87 73.15L279.84 74.12V85.43L279.86 86.4C279.88 87.17 279.91 87.89 279.89 88.66L279.85 90.39V91.2V104.04C279.85 104.45 279.96 104.82 279.85 105.23C279.82 105.34 279.85 105.67 279.92 105.76C279.99 105.85 280.21 105.85 280.36 105.84C281.06 105.79 281.68 105.81 282.45 105.84L282.47 104.59V82.88L282.46 82.9Z" fill="#90BEFB"/>
<path d="M305.87 104.59C305.87 101.09 308.71 98.26 312.2 98.26C315.69 98.26 318.53 101.09 318.53 104.59C318.53 108.09 315.7 110.91 312.2 110.91C308.7 110.91 305.87 108.08 305.87 104.59ZM318.48 125.14V152.08C317.95 152.17 317.5 152.08 317.02 152.05C316.66 152.02 316.27 152.27 315.95 152.02V116.84L324.87 116.76C326.81 116.74 328.49 115.87 330.02 114.79C331.83 113.35 332.93 110.43 332.99 108.2C333.08 105.09 333.07 102.02 332.99 98.91C332.96 97.57 332.53 96.32 331.97 95.14C330.93 92.93 328.58 91.06 326.16 90.44C325.59 90.3 324.94 90.02 324.33 90.02L307.97 90.05C306.64 90.05 305.26 90.73 304.26 91.45C302.5 92.73 301.62 94.65 301.32 96.72C301.26 97.11 301.12 97.52 301.12 97.95V152.59C301.12 153.85 301.01 154.45 301.39 155.77C301.98 157.77 303.35 159.39 305.09 160.55C306.36 161.4 306.91 161.4 308.37 161.78L326.48 161.76C329.64 161.76 332.98 156.52 332.98 154.13L333.03 124.93H318.73C318.64 124.92 318.51 125.07 318.49 125.13" fill="#90BEFB"/>
</svg>
