<svg width="344" height="205" viewBox="0 0 344 205" fill="none" xmlns="http://www.w3.org/2000/svg">
<path d="M265.84 109.429C265.84 109.509 265.69 109.659 265.62 109.659H253.44V69.3589H248.77C248.66 69.3589 248.46 69.2989 248.39 69.3589C248.3 69.4289 248.29 69.6289 248.36 69.8089V109.639L233.82 109.659V38.3089C233.78 38.1689 233.73 38.0989 233.77 38.0689L234 37.8789H258.77C259.19 37.8789 259.62 37.9989 260.01 38.0589C261.54 38.2789 262.94 38.8489 264 40.0189C265.21 41.3589 265.59 43.3189 265.72 45.0889L265.83 46.4889V109.439L265.84 109.429Z" fill="#90BEFB"/>
<path d="M37.01 135.219V177.879C37.01 178.199 36.55 178.329 36.31 178.199H19.85C19.57 178.199 19.37 178.319 19.18 178.099C19.06 177.949 19.14 177.749 19.14 177.499V158.829C18.92 158.719 18.77 158.779 18.55 158.779H14.58C14.44 158.779 14.07 158.649 14.07 158.909V198.759C14.07 198.999 13.88 199.179 13.68 199.179H5.58C5.35 199.179 5.15 199.099 5 198.979V127.389C5 127.389 5.23 127.289 5.31 127.289H29.87C30.19 127.289 30.58 127.359 30.85 127.419L32.07 127.649C33.12 127.849 33.96 128.379 34.78 129.039C35.95 129.979 36.62 132.269 36.81 133.719L37.01 135.219Z" fill="#90BEFB"/>
<path d="M64.8004 94.2889C69.0604 94.2889 72.5204 97.7389 72.5204 101.999C72.5204 106.259 69.0704 109.709 64.8004 109.709C60.5304 109.709 57.0904 106.259 57.0904 101.999C57.0904 97.7389 60.5404 94.2889 64.8004 94.2889ZM79.8604 124.959H58.8004L58.0104 124.919C57.8504 124.919 57.4904 124.839 57.3804 124.919C57.2304 125.029 57.4004 125.409 57.4004 125.559V128.949C57.4004 129.319 57.2404 129.709 57.3604 130.089C57.4404 130.359 57.4304 130.799 57.2004 130.999H50.3904C50.2404 130.999 49.9904 130.939 49.9104 130.849C49.8304 130.769 49.8004 130.489 49.8404 130.359C49.9104 130.099 49.8204 129.869 49.8204 129.609V118.039C49.8004 117.629 49.8404 117.309 50.0504 116.959H80.5804C80.7304 116.649 80.5504 116.429 80.5504 116.139V62.6689L80.5804 61.9489L80.5104 60.1389C80.4204 57.8589 79.8504 55.6489 78.7204 53.6589C77.8404 52.1089 76.5604 51.0189 74.9704 50.2689C73.8904 49.7589 72.7604 49.6289 71.5304 49.3689L50.0604 49.4089C48.5004 49.4089 47.0104 49.8789 45.6304 50.4489C43.8904 51.1789 42.4804 52.2889 41.2904 53.7189C39.6404 55.6989 38.7104 57.9889 38.5104 60.5689C38.4804 60.9289 38.4004 61.2989 38.4004 61.6889V133.079C38.5904 134.729 38.7004 136.299 39.2804 137.829C40.1904 140.269 41.8304 142.349 44.2004 143.429C44.8204 143.719 45.4404 143.999 46.0804 144.179C46.8004 144.399 48.9904 144.839 49.6504 144.839H71.6404C73.5304 144.599 75.1904 144.029 76.6904 142.919C77.5704 142.279 78.7004 140.769 79.1504 139.699C79.6504 138.509 80.0604 137.259 80.2604 135.969C80.3704 135.309 80.5204 134.639 80.5304 133.979L80.6104 126.049L80.6604 124.879C80.4404 124.829 80.2004 124.939 79.9004 124.939" fill="#90BEFB"/>
<path d="M114.47 61.6688H91.6698V75.9888C91.6698 76.3488 91.7498 76.6288 91.4498 76.8788H83.0898C82.9398 76.8788 82.7398 76.7588 82.5898 76.6388L82.6199 12.9288C82.6199 11.2088 83.5598 9.56878 84.5098 8.30878C85.6898 6.72878 87.7698 5.48878 89.7198 5.18878L90.9398 4.99878L106.76 5.03878C107.96 5.03878 109.18 5.46878 110.17 6.00878C111.58 6.77878 112.67 7.90878 113.48 9.24878C113.99 10.0888 114.42 10.9388 114.51 11.9188C114.55 12.3388 114.71 12.7688 114.71 13.2188V49.6388C114.71 49.9388 114.65 50.1288 114.49 50.3488H102.62C102.41 50.3488 102.22 50.1588 102.22 49.9488V36.8388C102.37 36.6288 102.34 36.3788 102.14 36.2988H97.1498L97.1599 55.6188H114.35C114.54 55.6188 114.72 55.9088 114.72 56.0288V61.1788C114.67 61.3588 114.6 61.4988 114.48 61.6688" fill="#90BEFB"/>
<path d="M185.37 98.9888C185.37 99.1688 185.26 99.4188 185.15 99.4488C185 99.4888 184.76 99.4488 184.57 99.4488C184.32 99.4288 184.11 99.4188 183.8 99.4188H168.22C167.97 99.4188 167.76 99.5888 167.59 99.3888C167.42 99.1888 167.5 99.0188 167.5 98.7088V79.9788L162.84 79.9888C162.71 79.9888 162.58 79.9888 162.46 79.9988C162.32 80.0188 162.42 80.2588 162.42 80.4288V120.049C162.35 120.229 162.2 120.379 162.02 120.379H153.34V48.4988H178.11L179.1 48.6088L180.32 48.8588C181.48 49.0988 182.45 49.6288 183.33 50.4688C184.04 51.1488 184.44 52.1488 184.75 53.1088C185.11 54.2088 185.18 55.2788 185.36 56.4688V98.9988L185.37 98.9888Z" fill="#90BEFB"/>
<path d="M214.37 142.019C218.63 142.019 222.08 145.469 222.08 149.719C222.08 153.969 218.63 157.429 214.37 157.429C210.11 157.429 206.66 153.979 206.66 149.719C206.66 145.459 210.11 142.019 214.37 142.019ZM199.93 164.689H230.17V109.559C229.98 108.829 230.15 108.159 230.04 107.469L229.75 105.509C229.65 104.859 229.17 103.409 228.92 102.739C228.15 100.669 226.65 98.9988 224.61 98.0788C223.61 97.6188 222.41 97.1488 221.22 97.1588H199.49C196 97.1788 192.19 99.3488 190.22 102.259C188.52 104.769 188.23 106.419 187.91 109.479V180.479C187.91 180.829 188.01 181.169 188.04 181.469L188.12 182.469C188.17 183.119 188.34 183.779 188.49 184.419C189.1 187.019 190.83 189.729 193.29 190.949C195.05 191.829 197.02 192.549 199.08 192.559L221.24 192.589C222.08 192.589 222.88 192.259 223.63 192.029C226.55 191.149 228.37 188.859 229.22 185.999C229.52 185.019 229.79 184.069 229.9 183.049C229.99 182.219 229.97 181.439 230.06 180.599L230.15 179.819V172.679C230.12 172.549 229.71 172.699 229.42 172.699H208.48L207.78 172.679C207.33 172.659 206.9 172.519 206.91 172.709L206.93 173.019L206.95 178.379C206.95 178.489 206.76 178.759 206.65 178.759H199.43V165.109C199.46 164.819 199.63 164.709 199.94 164.709" fill="#90BEFB"/>
<path d="M123.59 63.8089C123.59 60.3189 126.42 57.4889 129.92 57.4889C133.42 57.4889 136.24 60.3189 136.24 63.8089C136.24 67.2989 133.41 70.1289 129.92 70.1289C126.43 70.1289 123.59 67.2989 123.59 63.8089ZM148.97 84.1689C147.93 84.1989 146.9 84.2289 145.89 84.1389C144.76 84.0289 143.66 84.1789 142.52 84.1489C141.73 84.1189 140.97 84.0989 140.2 84.1189L139.17 84.1389L137.97 84.1589C137.62 84.1589 137.22 84.2089 136.89 84.1389C136.7 84.1089 136.17 84.0489 136.17 84.3989V110.879C136.17 110.979 136.3 111.179 136.23 111.219C136.18 111.249 136.02 111.309 135.95 111.309H133.63V76.0989L141.97 76.0689C142.56 76.0689 143.12 75.8789 143.7 75.8289C147.32 75.0589 149.89 72.6589 150.45 68.9089C150.51 68.5189 150.69 68.0689 150.69 67.6689L150.66 58.0089C150.66 56.6289 150.14 55.2689 149.53 54.0889C148.82 52.7189 147.13 51.0589 145.71 50.3989C144.47 49.8289 143.12 49.2389 141.69 49.2389H126.09C123.42 49.2589 121.16 50.7789 119.92 53.0489C119.2 54.3589 119.04 55.7489 118.8 57.2489V113.719C119.24 116.659 121.23 119.249 123.9 120.379C124.68 120.709 125.63 121.049 126.55 121.049H143.94C145.32 121.049 146.44 120.229 147.39 119.439C148 118.939 148.39 118.359 148.85 117.749C149.82 116.459 150.37 115.049 150.72 113.419V84.2389C150.13 83.9589 149.55 84.1689 148.97 84.1789" fill="#90BEFB"/>
<path d="M287.46 87.8989H302V112.539C301.74 114.339 301.1 115.909 300.05 117.339C299.55 118.019 299.1 118.609 298.41 119.149C297.61 119.779 296.58 120.529 295.42 120.529H277.55C276.32 120.529 275.11 119.929 274.14 119.359C272.73 118.539 271.06 116.719 270.57 115.189C270.29 114.329 270 113.459 270 112.489V57.0289C270 55.1089 270.87 53.3889 272.03 51.9989C272.91 50.9489 273.95 50.2489 275.16 49.6389C275.62 49.3989 277.44 48.9789 277.84 48.9789L295.23 48.9989C296.67 48.9989 297.85 49.8989 298.82 50.7689C300.27 52.0789 301.96 55.0689 301.96 57.0089L302.03 85.2289C302.03 85.4789 301.95 85.7989 301.79 85.8689C301.34 86.0489 300.97 85.8489 300.53 85.8489H288.18C287.94 85.8489 287.75 85.9589 287.56 85.7989C287.42 85.6789 287.47 85.4989 287.47 85.2289V59.9389V58.7289H284.86C284.82 59.1589 284.85 59.5489 284.91 59.9089C284.93 60.0489 284.83 60.3489 284.83 60.4989V73.3389L284.85 74.1489L284.89 75.8489C284.91 76.6189 284.89 77.3489 284.87 78.1389L284.84 79.1089V90.4189L284.86 91.3889C284.88 92.1589 284.91 92.8789 284.89 93.6489L284.85 95.3789V96.1889V109.029C284.85 109.439 284.96 109.809 284.85 110.219C284.82 110.329 284.85 110.659 284.92 110.749C284.99 110.839 285.21 110.839 285.36 110.829C286.06 110.779 286.68 110.799 287.45 110.829L287.47 109.579V87.8689L287.46 87.8989Z" fill="#90BEFB"/>
<path d="M310.87 109.589C310.87 106.089 313.71 103.259 317.2 103.259C320.69 103.259 323.53 106.089 323.53 109.589C323.53 113.089 320.7 115.909 317.2 115.909C313.7 115.909 310.87 113.079 310.87 109.589ZM323.48 130.139V157.079C322.95 157.169 322.5 157.079 322.02 157.049C321.66 157.019 321.27 157.269 320.95 157.019V121.839L329.87 121.759C331.81 121.739 333.49 120.869 335.02 119.789C336.83 118.349 337.93 115.429 337.99 113.199C338.08 110.089 338.07 107.019 337.99 103.909C337.96 102.569 337.53 101.319 336.97 100.139C335.93 97.9288 333.58 96.0588 331.16 95.4388C330.59 95.2988 329.94 95.0188 329.33 95.0188L312.97 95.0488C311.64 95.0488 310.26 95.7288 309.26 96.4488C307.5 97.7288 306.62 99.6488 306.32 101.719C306.26 102.109 306.12 102.519 306.12 102.949V157.589C306.12 158.849 306.01 159.449 306.39 160.769C306.98 162.769 308.35 164.389 310.09 165.549C311.36 166.399 311.91 166.399 313.37 166.779L331.48 166.759C334.64 166.759 337.98 161.519 337.98 159.129L338.03 129.929H323.73C323.64 129.919 323.51 130.069 323.49 130.129" fill="#90BEFB"/>
<path d="M260.62 109.659C260.62 107.849 261.58 106.259 263.02 105.379C264.91 104.149 267.47 104.309 269.19 105.929C271.2 107.829 271.29 110.989 269.39 112.999C269.11 113.289 268.83 113.549 268.38 113.839C267.89 114.099 267.33 114.579 265.62 114.659C262.86 114.659 260.62 112.419 260.62 109.659Z" fill="black"/>
<path d="M248.44 109.659C248.44 106.899 250.68 104.659 253.44 104.659C256.2 104.659 258.44 106.899 258.44 109.659C258.44 112.419 256.2 114.659 253.44 114.659C250.68 114.659 248.44 112.419 248.44 109.659Z" fill="black"/>
<path d="M248.43 69.3589C248.43 66.5989 250.67 64.3589 253.43 64.3589C256.2 64.3589 258.43 66.5989 258.44 69.3589C258.44 72.1189 256.2 74.3589 253.43 74.3589C250.67 74.3589 248.43 72.1189 248.43 69.3589Z" fill="black"/>
<path d="M243.77 69.3689C243.77 66.6089 246.01 64.3689 248.77 64.3589C251.53 64.3589 253.77 66.5989 253.77 69.3589C253.77 72.1189 251.54 74.3589 248.78 74.3589C246.02 74.3689 243.78 72.1289 243.77 69.3689Z" fill="black"/>
<path d="M244.28 72.1889C242.71 69.9189 243.28 66.8089 245.56 65.2389C247.83 63.6689 250.94 64.2389 252.51 66.5189C254.08 68.7889 253.51 71.8989 251.23 73.4689C250.37 74.0689 249.38 74.3589 248.4 74.3589C246.81 74.3589 245.25 73.5989 244.28 72.1889Z" fill="black"/>
<path d="M243.75 71.7189C243.46 71.0189 243.33 70.3989 243.32 69.6389C243.28 66.8789 245.49 64.6089 248.25 64.5689C250.72 64.5389 252.8 66.2989 253.23 68.6489C253.79 70.9989 252.58 73.4689 250.28 74.4189C249.65 74.6789 249.01 74.8089 248.37 74.8089C246.41 74.8089 244.54 73.6489 243.75 71.7189Z" fill="black"/>
<path d="M243.37 109.639C243.37 106.879 245.6 104.639 248.37 104.639C251.13 104.639 253.37 106.879 253.37 109.639C253.37 112.399 251.13 114.639 248.37 114.639C245.6 114.639 243.37 112.399 243.37 109.639Z" fill="black"/>
<path d="M228.82 109.659C228.82 106.899 231.06 104.659 233.82 104.659C236.58 104.659 238.82 106.889 238.82 109.649C238.83 112.409 236.59 114.649 233.83 114.659C231.07 114.659 228.83 112.419 228.82 109.659Z" fill="black"/>
<path d="M228.82 73.9789C228.82 71.2189 231.06 68.9789 233.82 68.9789C236.58 68.9789 238.82 71.2189 238.82 73.9789C238.82 76.7389 236.58 78.9789 233.82 78.9789C231.06 78.9789 228.82 76.7389 228.82 73.9789Z" fill="black"/>
<path d="M230 41.3488C228.19 39.2688 228.4 36.1088 230.49 34.2988C232.57 32.4788 235.73 32.6988 237.54 34.7788C239.35 36.8588 239.14 40.0188 237.06 41.8288C236.11 42.6588 234.94 43.0588 233.77 43.0588C232.38 43.0588 230.99 42.4788 230 41.3488Z" fill="black"/>
<path d="M230.03 41.1589C228.27 39.0289 228.57 35.8789 230.7 34.1189L230.81 34.0189C232.94 32.2589 236.09 32.5589 237.85 34.6889C239.61 36.8189 239.31 39.9689 237.18 41.7289L237.07 41.8289C236.14 42.5989 235.01 42.9689 233.89 42.9689C232.45 42.9689 231.02 42.3489 230.03 41.1589Z" fill="black"/>
<path d="M258.77 42.8789C256.01 42.8789 253.77 40.6389 253.77 37.8789C253.77 35.1189 256.01 32.8789 258.77 32.8789C261.53 32.8789 263.77 35.1189 263.77 37.8789C263.77 40.6389 261.53 42.8789 258.77 42.8789Z" fill="black"/>
<path d="M259.28 42.9989C258.87 42.9389 258.63 42.8889 258.53 42.8689C255.81 42.3889 253.99 39.7989 254.47 37.0789C254.94 34.3589 257.54 32.5389 260.26 33.0189C260.58 33.0789 260.74 33.1089 260.74 33.1089C263.47 33.5089 265.36 36.0589 264.96 38.7889C264.59 41.2689 262.45 43.0589 260.02 43.0589C259.77 43.0589 259.52 43.0389 259.28 42.9989Z" fill="black"/>
<path d="M260.29 43.3689C258.44 41.3189 258.6 38.1589 260.64 36.3089C262.69 34.4589 265.86 34.6089 267.71 36.6589C269.56 38.7089 269.4 41.8689 267.35 43.7189C266.4 44.5889 265.2 45.0189 264 45.0189C262.64 45.0189 261.28 44.4589 260.29 43.3689Z" fill="black"/>
<path d="M260.74 45.4689C260.52 42.7189 262.58 40.3089 265.33 40.0989C268.09 39.8789 270.49 41.9389 270.71 44.6889C270.92 47.4389 268.87 49.8489 266.11 50.0589C265.98 50.0789 265.85 50.0789 265.71 50.0789C263.13 50.0789 260.95 48.0889 260.74 45.4689Z" fill="black"/>
<path d="M260.85 46.8688L260.79 46.1688C260.58 43.4188 262.63 41.0088 265.39 40.7988C268.14 40.5788 270.55 42.6388 270.76 45.3888L270.82 46.0888C271.03 48.8388 268.98 51.2488 266.22 51.4688C266.09 51.4788 265.96 51.4788 265.83 51.4788C263.24 51.4788 261.05 49.4888 260.85 46.8688Z" fill="black"/>
<path d="M260.84 77.9589C260.84 75.1889 263.07 72.9489 265.84 72.9489C268.6 72.9489 270.84 75.1889 270.84 77.9489C270.84 80.7189 268.6 82.9589 265.84 82.9589C263.07 82.9589 260.84 80.7189 260.84 77.9589Z" fill="black"/>
<path d="M265.63 114.659C264.42 114.659 263.21 114.219 262.24 113.339C260.21 111.469 260.08 108.309 261.95 106.279L262.16 106.049C264.03 104.019 267.19 103.889 269.23 105.759C271.26 107.629 271.39 110.789 269.52 112.819L269.31 113.049C268.32 114.119 266.98 114.659 265.63 114.659Z" fill="black"/>
<path d="M32.0098 177.879C32.0098 175.119 34.2498 172.879 37.0098 172.879C39.7698 172.879 42.0098 175.119 42.0098 177.879C42.0098 180.639 39.7698 182.879 37.0098 182.879C34.2498 182.879 32.0098 180.639 32.0098 177.879Z" fill="black"/>
<path d="M33.9403 182.599C31.5103 181.289 30.6003 178.249 31.9203 175.819C33.2303 173.389 36.2703 172.489 38.6903 173.799C41.1203 175.119 42.0303 178.149 40.7103 180.579C39.8103 182.249 38.0903 183.199 36.3103 183.199C35.5103 183.199 34.6903 183.009 33.9403 182.599Z" fill="black"/>
<path d="M14.8496 178.209C14.8496 175.449 17.0896 173.209 19.8496 173.209C22.6096 173.209 24.8496 175.439 24.8496 178.199C24.8496 180.969 22.6196 183.199 19.8496 183.209C17.0896 183.209 14.8496 180.969 14.8496 178.209Z" fill="black"/>
<path d="M15.3801 181.349C13.5901 179.249 13.8401 176.099 15.9401 174.299C18.0401 172.509 21.1901 172.759 22.9901 174.859C24.7801 176.959 24.5301 180.109 22.4301 181.909C21.4901 182.709 20.3401 183.099 19.1901 183.099C17.7801 183.099 16.3701 182.509 15.3801 181.349Z" fill="black"/>
<path d="M18.6898 182.789C15.9398 182.549 13.9098 180.129 14.1398 177.379C14.1498 177.309 14.1498 177.269 14.1598 177.229C14.2998 174.599 16.4798 172.499 19.1498 172.499C21.9098 172.499 24.1498 174.739 24.1498 177.499C24.1498 177.879 24.1198 178.139 24.1098 178.239C23.8798 180.839 21.6998 182.809 19.1298 182.809C18.9898 182.809 18.8398 182.799 18.6898 182.789Z" fill="black"/>
<path d="M14.1504 158.829C14.1504 156.069 16.3904 153.829 19.1504 153.829C21.9204 153.829 24.1504 156.069 24.1504 158.829C24.1504 161.599 21.9104 163.829 19.1504 163.829C16.3904 163.829 14.1504 161.589 14.1504 158.829Z" fill="black"/>
<path d="M13.5596 158.779C13.5596 156.069 15.6996 153.869 18.3896 153.779C18.4696 153.779 18.6296 153.779 18.8596 153.759C21.6196 153.759 23.8596 155.999 23.8596 158.769C23.8596 161.459 21.7196 163.659 19.0496 163.759C18.9496 163.769 18.7796 163.779 18.5496 163.779C15.7896 163.779 13.5596 161.539 13.5596 158.779Z" fill="black"/>
<path d="M9.58984 158.779C9.58984 156.019 11.8298 153.779 14.5898 153.779C17.3498 153.779 19.5898 156.019 19.5898 158.779C19.5898 161.539 17.3498 163.779 14.5898 163.779C11.8298 163.779 9.58984 161.539 9.58984 158.779Z" fill="black"/>
<path d="M9.07967 158.909C9.06967 158.289 9.18967 157.449 9.60967 156.609C10.0197 155.759 10.7397 155.009 11.4297 154.579C12.8597 153.719 13.7797 153.779 14.2897 153.749C17.0497 153.749 19.2897 155.989 19.2897 158.749C19.2897 160.399 18.4897 161.859 17.2497 162.769C16.3897 163.479 15.2797 163.909 14.0797 163.909C11.3097 163.909 9.07967 161.669 9.07967 158.909Z" fill="black"/>
<path d="M9.08008 198.759C9.08008 195.999 11.3201 193.759 14.0801 193.759C16.8401 193.759 19.0801 195.999 19.0801 198.759C19.0801 201.519 16.8401 203.759 14.0801 203.759C11.3201 203.759 9.08008 201.519 9.08008 198.759Z" fill="black"/>
<path d="M8.69043 199.169C8.69043 197.079 9.97043 195.289 11.7904 194.539C13.5904 193.669 15.8104 193.939 17.3704 195.379C19.3904 197.259 19.5104 200.419 17.6304 202.449C16.6704 203.479 15.2904 204.159 13.6904 204.169C10.9204 204.169 8.69043 201.929 8.69043 199.169Z" fill="black"/>
<path d="M0.580078 199.169C0.580078 196.409 2.82008 194.169 5.58008 194.169C8.34008 194.169 10.5801 196.409 10.5801 199.169C10.5801 201.929 8.34008 204.169 5.58008 204.169C2.82008 204.169 0.580078 201.929 0.580078 199.169Z" fill="black"/>
<path d="M3.67006 203.859C3.07006 203.649 2.46006 203.349 1.86006 202.869C-0.289944 201.139 -0.619944 197.989 1.11006 195.839C2.68006 193.889 5.41006 193.429 7.51006 194.649C9.71006 195.749 10.8201 198.329 10.0101 200.719C9.31006 202.809 7.36006 204.129 5.28006 204.119C4.74006 204.119 4.20006 204.039 3.67006 203.859Z" fill="black"/>
<path d="M0 163.179C0 160.419 2.24 158.179 5 158.179C7.76 158.179 10 160.419 10 163.179C10 165.939 7.76 168.179 5 168.179C2.24 168.179 0 165.939 0 163.179Z" fill="black"/>
<path d="M0.429664 128.979C-0.480336 126.369 0.899664 123.519 3.49966 122.609C3.64966 122.559 3.80966 122.509 4.03966 122.449C4.29966 122.389 4.54966 122.309 5.30966 122.289C8.06966 122.289 10.3097 124.529 10.3097 127.289C10.3097 129.689 8.61966 131.699 6.35966 132.179C5.95966 132.279 5.54966 132.329 5.14966 132.329C3.08966 132.329 1.14966 131.039 0.429664 128.979Z" fill="black"/>
<path d="M24.8604 127.289C24.8704 124.529 27.1004 122.289 29.8704 122.299C32.6304 122.299 34.8704 124.529 34.8604 127.299C34.8604 130.059 32.6304 132.299 29.8604 132.299C27.1004 132.299 24.8604 130.059 24.8604 127.289Z" fill="black"/>
<path d="M29.9199 132.329C29.7999 132.309 29.7099 132.289 29.6599 132.289C26.9299 131.899 25.0199 129.369 25.4099 126.639C25.7899 123.899 28.3199 121.999 31.0599 122.379C31.3599 122.429 31.6099 122.469 31.7799 122.499C34.4899 123.019 36.2799 125.629 35.7599 128.349C35.3099 130.739 33.2099 132.419 30.8499 132.419C30.5499 132.419 30.2299 132.389 29.9199 132.329Z" fill="black"/>
<path d="M31.1302 132.559L30.5202 132.439C27.8102 131.929 26.0302 129.309 26.5502 126.599C27.0602 123.879 29.6802 122.099 32.3902 122.619L33.0002 122.739C35.7202 123.249 37.5002 125.869 36.9802 128.579C36.5202 130.979 34.4302 132.649 32.0702 132.649C31.7602 132.649 31.4502 132.619 31.1302 132.559Z" fill="black"/>
<path d="M31.6396 132.929C29.4896 131.189 29.1496 128.039 30.8896 125.899C32.6196 123.749 35.7696 123.409 37.9196 125.149C40.0696 126.879 40.3996 130.029 38.6696 132.179C37.6796 133.399 36.2296 134.039 34.7796 134.039C33.6696 134.039 32.5596 133.669 31.6396 132.929Z" fill="black"/>
<path d="M31.8598 134.369C31.4998 131.629 33.4198 129.119 36.1598 128.759C38.8998 128.399 41.4098 130.329 41.7698 133.069C42.1298 135.809 40.1998 138.319 37.4598 138.679C37.2398 138.709 37.0198 138.719 36.8098 138.719C34.3298 138.719 32.1898 136.889 31.8598 134.369Z" fill="black"/>
<path d="M32.0604 135.879L31.9504 135.129C31.5904 132.389 33.5204 129.879 36.2504 129.509C38.9904 129.149 41.5104 131.079 41.8704 133.809L41.9704 134.569C42.3304 137.299 40.4104 139.819 37.6704 140.179C37.4504 140.209 37.2204 140.219 37.0104 140.219C34.5404 140.219 32.3904 138.399 32.0604 135.879Z" fill="black"/>
<path d="M58.7998 129.949C56.0398 129.949 53.7998 127.709 53.7998 124.949C53.7998 122.189 56.0398 119.949 58.8098 119.949C61.5698 119.949 63.8098 122.189 63.7998 124.949C63.7998 127.709 61.5698 129.949 58.8098 129.949H58.7998Z" fill="black"/>
<path d="M58.1805 129.929L57.7905 129.909C55.0305 129.779 52.9005 127.439 53.0205 124.689C53.1505 121.929 55.4905 119.789 58.2505 119.919L58.6405 119.939C61.4005 120.069 63.5305 122.399 63.4105 125.159C63.2805 127.839 61.0705 129.929 58.4205 129.929H58.1805Z" fill="black"/>
<path d="M53.4402 127.989C51.7402 125.809 52.1402 122.669 54.3202 120.969C56.5002 119.279 59.6402 119.679 61.3302 121.849C63.0302 124.039 62.6302 127.179 60.4502 128.869C59.5402 129.579 58.4602 129.919 57.3902 129.919C55.9002 129.919 54.4202 129.259 53.4402 127.989Z" fill="black"/>
<path d="M52.4603 126.339C52.4603 126.339 52.4403 126.219 52.4203 126.139C51.9203 123.419 53.7203 120.819 56.4403 120.319C59.1503 119.819 61.7603 121.619 62.2603 124.329C62.2803 124.489 62.3803 124.669 62.4003 125.559C62.4003 128.319 60.1603 130.559 57.4003 130.559C54.9003 130.559 52.8403 128.729 52.4603 126.339Z" fill="black"/>
<path d="M57.3797 133.959C54.6197 133.949 52.3896 131.709 52.3896 128.939C52.3996 126.179 54.6397 123.949 57.3997 123.949C60.1697 123.959 62.3996 126.199 62.3896 128.969C62.3896 131.719 60.1496 133.959 57.3896 133.959H57.3797Z" fill="black"/>
<path d="M52.5801 131.559C51.7701 128.919 53.2601 126.119 55.9001 125.309C58.5401 124.499 61.3301 125.989 62.1401 128.629C62.9501 131.269 61.4601 134.069 58.8201 134.869C58.3401 135.019 57.8401 135.099 57.3601 135.099C55.2201 135.099 53.2401 133.709 52.5801 131.559Z" fill="black"/>
<path d="M53.4097 134.269C52.0297 132.669 51.8397 130.449 52.7597 128.689C53.5897 126.629 55.7397 125.309 58.0397 125.609C60.7797 125.969 62.7097 128.479 62.3497 131.219C62.2097 132.109 61.9297 133.459 60.4597 134.789C59.5197 135.599 58.3597 135.999 57.1997 135.999C55.7997 135.999 54.3997 135.409 53.4097 134.269Z" fill="black"/>
<path d="M45.3799 131.019C45.3799 128.249 47.6199 126.009 50.3799 126.009C53.1399 126.009 55.3799 128.239 55.3799 130.999C55.3899 133.759 53.1499 136.009 50.3899 136.009C47.6299 136.009 45.3899 133.779 45.3799 131.019Z" fill="black"/>
<path d="M48.64 135.739C48.06 135.469 47.53 135.539 46.14 134.139C44.32 132.059 44.53 128.899 46.61 127.079C48.26 125.639 50.58 125.479 52.38 126.499C54.53 127.579 55.64 130.089 54.9 132.459C54.23 134.599 52.26 135.969 50.13 135.969C49.64 135.969 49.13 135.889 48.64 135.739Z" fill="black"/>
<path d="M48.4099 135.149C45.7599 134.369 44.2499 131.589 45.0399 128.939C45.8199 126.289 48.5999 124.779 51.2499 125.559C53.8899 126.349 55.4099 129.129 54.6199 131.779C53.9799 133.949 51.9899 135.359 49.8299 135.359C49.3599 135.359 48.8799 135.289 48.4099 135.149Z" fill="black"/>
<path d="M44.8696 130.519C44.8696 130.519 44.8696 130.449 44.8596 130.389C44.8396 130.239 44.8096 129.969 44.8096 129.609C44.8096 126.849 47.0496 124.609 49.8096 124.609C52.4696 124.609 54.6496 126.689 54.7996 129.309C54.7996 129.309 54.8096 129.389 54.8196 129.449C55.1096 132.199 53.1196 134.659 50.3696 134.959C50.1996 134.979 50.0196 134.979 49.8396 134.979C47.3196 134.979 45.1496 133.079 44.8696 130.519Z" fill="black"/>
<path d="M44.7998 118.049C44.7898 115.289 47.0298 113.049 49.7898 113.039C52.5498 113.039 54.7898 115.279 54.7998 118.039C54.7998 120.799 52.5598 123.039 49.7998 123.039C47.0398 123.039 44.7998 120.809 44.7998 118.049Z" fill="black"/>
<path d="M48.8701 122.389C46.1601 121.849 44.4001 119.219 44.9301 116.509C45.0601 115.829 45.3601 115.029 45.7501 114.389C47.1701 112.019 50.2401 111.249 52.6101 112.669C54.8201 113.999 55.6401 116.749 54.5901 119.029C53.9201 121.099 51.9901 122.489 49.8401 122.489C49.5201 122.489 49.1901 122.449 48.8701 122.389Z" fill="black"/>
<path d="M75.5801 116.959C75.5801 114.199 77.8101 111.959 80.5801 111.959C83.3401 111.959 85.5701 114.199 85.5701 116.959C85.5701 119.719 83.3401 121.959 80.5801 121.959C77.8101 121.959 75.5801 119.719 75.5801 116.959Z" fill="black"/>
<path d="M75.7198 117.569C75.7198 117.569 75.6998 117.479 75.6798 117.399C75.6398 117.169 75.5498 116.719 75.5498 116.139C75.5498 113.379 77.7898 111.139 80.5498 111.139C83.0898 111.139 85.1898 113.029 85.4998 115.489C85.4998 115.489 85.5198 115.569 85.5298 115.619C86.0398 118.339 84.2598 120.949 81.5498 121.459C81.2298 121.519 80.9198 121.549 80.6098 121.549C78.2898 121.549 76.2098 119.919 75.7198 117.569Z" fill="black"/>
<path d="M75.5498 89.3989C75.5498 86.6389 77.7898 84.3989 80.5498 84.3989C83.3098 84.3989 85.5498 86.6389 85.5498 89.3989C85.5498 92.1589 83.3098 94.3989 80.5498 94.3989C77.7898 94.3989 75.5498 92.1589 75.5498 89.3989Z" fill="black"/>
<path d="M80.3903 67.3089C77.6303 67.2089 75.4703 64.8989 75.5603 62.1389V61.7789C75.6703 59.0189 77.9803 56.8589 80.7403 56.9489C83.5003 57.0489 85.6603 59.3589 85.5703 62.1189V62.4789C85.4703 65.1789 83.2503 67.3089 80.5603 67.3089H80.3903Z" fill="black"/>
<path d="M75.5401 61.2488L75.5001 60.3388C75.3901 57.5788 77.5401 55.2488 80.3001 55.1388C83.0501 55.0288 85.3801 57.1688 85.4901 59.9288L85.5301 60.8388C85.6401 63.5988 83.5001 65.9288 80.7401 66.0388H80.5301C77.8601 66.0388 75.6501 63.9388 75.5401 61.2488Z" fill="black"/>
<path d="M74.3605 56.1388C72.9905 53.7488 73.8205 50.6888 76.2205 49.3188C78.6205 47.9488 81.6705 48.7788 83.0505 51.1788C84.4205 53.5788 83.5805 56.6288 81.1905 57.9988C80.4005 58.4488 79.5505 58.6588 78.7105 58.6588C76.9705 58.6588 75.2905 57.7588 74.3605 56.1388Z" fill="black"/>
<path d="M72.8203 54.7889C70.3203 53.6089 69.2503 50.6289 70.4303 48.1289C71.6103 45.6389 74.5903 44.5689 77.0903 45.7489C79.5903 46.9289 80.6503 49.9089 79.4703 52.3989C78.6203 54.2089 76.8203 55.2689 74.9503 55.2689C74.2303 55.2689 73.5103 55.1089 72.8203 54.7889Z" fill="black"/>
<path d="M70.4803 54.2588C67.7803 53.6888 66.0503 51.0389 66.6203 48.3289C67.2003 45.6289 69.8503 43.8988 72.5503 44.4788C75.2503 45.0488 76.9803 47.6988 76.4103 50.4088C75.9103 52.7588 73.8303 54.3688 71.5203 54.3688C71.1803 54.3688 70.8303 54.3288 70.4803 54.2588Z" fill="black"/>
<path d="M45.04 49.4189C45.04 46.6589 47.27 44.4189 50.03 44.4089C52.79 44.4089 55.04 46.6389 55.04 49.3989C55.05 52.1589 52.81 54.3989 50.05 54.4089H50.04C47.28 54.4089 45.05 52.1789 45.04 49.4189Z" fill="black"/>
<path d="M40.9998 52.3688C39.9398 49.8288 41.1398 46.8988 43.6898 45.8288C46.2398 44.7688 49.1698 45.9788 50.2298 48.5288C51.2898 51.0788 50.0898 53.9988 47.5398 55.0688C46.9098 55.3288 46.2598 55.4488 45.6198 55.4488C43.6598 55.4488 41.7998 54.2888 40.9998 52.3688Z" fill="black"/>
<path d="M38.0701 57.5688C35.9501 55.8088 35.6601 52.6488 37.4301 50.5288C39.1901 48.4088 42.3401 48.1188 44.4701 49.8788C46.5901 51.6388 46.8801 54.7988 45.1201 56.9188C44.1301 58.1088 42.7001 58.7288 41.2701 58.7288C40.1401 58.7288 39.0101 58.3488 38.0701 57.5688Z" fill="black"/>
<path d="M38.1001 65.5589C35.3501 65.3489 33.2901 62.9489 33.5001 60.1989C33.7101 57.4389 36.1201 55.3789 38.8701 55.5889C41.6201 55.8089 43.6801 58.2089 43.4701 60.9589C43.2701 63.5889 41.0801 65.5789 38.4901 65.5789C38.3701 65.5789 38.2401 65.5789 38.1001 65.5589Z" fill="black"/>
<path d="M33.3799 61.6888C33.3799 61.1688 33.4299 60.7788 33.4599 60.5388C33.7899 57.7988 36.2799 55.8388 39.0199 56.1688C41.7599 56.4988 43.7199 58.9888 43.3899 61.7288C43.3899 61.7288 43.3799 61.7688 43.3799 61.7788C43.3399 64.4988 41.1199 66.6988 38.3799 66.6988C35.6199 66.6988 33.3799 64.4588 33.3799 61.6888Z" fill="black"/>
<path d="M33.3799 97.3889C33.3799 94.6289 35.6199 92.3889 38.3799 92.3889C41.1399 92.3889 43.3799 94.6289 43.3799 97.3889C43.3799 100.149 41.1399 102.389 38.3799 102.389C35.6199 102.389 33.3799 100.149 33.3799 97.3889Z" fill="black"/>
<path d="M34.5802 139.599C33.6002 137.009 34.9102 134.129 37.4902 133.149C40.0702 132.179 42.9602 133.479 43.9302 136.069C44.9102 138.649 43.6102 141.529 41.0202 142.509C40.4402 142.729 39.8402 142.829 39.2602 142.829C37.2402 142.829 35.3402 141.599 34.5802 139.599Z" fill="black"/>
<path d="M42.0898 147.979C39.5798 146.829 38.4798 143.859 39.6298 141.349C40.7798 138.839 43.7498 137.739 46.2598 138.889C48.7698 140.039 49.8698 142.999 48.7198 145.519C47.8798 147.349 46.0698 148.429 44.1698 148.429C43.4698 148.429 42.7698 148.289 42.0898 147.979Z" fill="black"/>
<path d="M44.6502 148.979C42.0002 148.209 40.4802 145.429 41.2602 142.779C42.0302 140.129 44.8102 138.609 47.4602 139.389C50.1102 140.159 51.6302 142.939 50.8502 145.589C50.2102 147.769 48.2202 149.189 46.0602 149.189C45.5902 149.189 45.1202 149.119 44.6502 148.979Z" fill="black"/>
<path d="M44.6299 144.849C44.6299 142.089 46.8599 139.849 49.6299 139.849C52.3899 139.849 54.6299 142.089 54.6299 144.849C54.6299 147.609 52.3899 149.849 49.6299 149.849C46.8599 149.849 44.6299 147.609 44.6299 144.849Z" fill="black"/>
<path d="M66.6104 144.849C66.6104 142.089 68.8504 139.849 71.6204 139.849C74.3804 139.849 76.6104 142.089 76.6104 144.849C76.6104 147.609 74.3704 149.849 71.6104 149.849C68.8504 149.849 66.6104 147.609 66.6104 144.849Z" fill="black"/>
<path d="M72.6397 145.899C70.9997 143.669 71.4697 140.539 73.6997 138.909C75.9197 137.269 79.0497 137.739 80.6897 139.969C82.3197 142.189 81.8497 145.319 79.6297 146.959C78.7297 147.619 77.6997 147.929 76.6697 147.929C75.1297 147.929 73.6197 147.229 72.6397 145.899Z" fill="black"/>
<path d="M77.2002 144.329C74.6502 143.269 73.4402 140.339 74.5002 137.789C75.5602 135.239 78.4902 134.039 81.0402 135.099C83.5902 136.159 84.8002 139.089 83.7402 141.639C82.9302 143.559 81.0802 144.719 79.1202 144.719C78.4802 144.719 77.8302 144.589 77.2002 144.329Z" fill="black"/>
<path d="M79.4596 140.929C76.7296 140.499 74.8596 137.949 75.2796 135.219C75.6996 132.489 78.2596 130.619 80.9896 131.039C83.7196 131.459 85.5896 134.019 85.1696 136.749C84.7896 139.219 82.6596 140.979 80.2296 140.979C79.9796 140.979 79.7196 140.969 79.4596 140.929Z" fill="black"/>
<path d="M80.4296 138.989C77.6696 138.959 75.4596 136.689 75.4996 133.929C75.5296 131.169 77.7996 128.959 80.5596 128.999C83.3196 129.029 85.5296 131.299 85.4996 134.059C85.4596 136.799 83.2296 138.999 80.4996 138.999C80.4996 138.999 80.4596 138.999 80.4296 138.989Z" fill="black"/>
<path d="M80.5304 131.069C77.7704 131.039 75.5504 128.779 75.5804 126.019C75.6004 123.259 77.8604 121.039 80.6204 121.069C83.3804 121.089 85.6004 123.349 85.5804 126.109C85.5504 128.859 83.3104 131.069 80.5804 131.069H80.5304Z" fill="black"/>
<path d="M80.41 130.479C77.65 130.369 75.5 128.049 75.6 125.289L75.62 124.709C75.73 121.949 78.05 119.789 80.81 119.899C83.57 119.999 85.72 122.319 85.62 125.079L85.59 125.669C85.49 128.359 83.28 130.479 80.6 130.479H80.41Z" fill="black"/>
<path d="M74.8604 124.959C74.8604 122.319 76.9003 120.159 79.4903 119.969C82.1703 119.559 84.7003 121.369 85.1703 124.059C85.6403 126.779 83.8103 129.369 81.0903 129.839C81.0903 129.839 80.5804 129.949 79.8604 129.959C77.1004 129.959 74.8604 127.719 74.8604 124.959Z" fill="black"/>
<path d="M67.5098 101.999C67.5098 99.2388 69.7498 96.9988 72.5098 96.9988C75.2698 96.9988 77.5098 99.2388 77.5098 101.999C77.5098 104.759 75.2698 106.999 72.5098 106.999C69.7498 106.999 67.5098 104.759 67.5098 101.999Z" fill="black"/>
<path d="M59.7998 109.709C59.7998 106.949 62.0298 104.709 64.7998 104.709C67.5598 104.709 69.7998 106.949 69.7998 109.709C69.7998 112.469 67.5598 114.709 64.7998 114.709C62.0298 114.709 59.7998 112.469 59.7998 109.709Z" fill="black"/>
<path d="M52.0801 101.999C52.0801 99.2388 54.3201 96.9988 57.0801 96.9988C59.8401 96.9988 62.0801 99.2388 62.0801 101.999C62.0801 104.759 59.8401 106.999 57.0801 106.999C54.3201 106.999 52.0801 104.759 52.0801 101.999Z" fill="black"/>
<path d="M59.7998 94.2888C59.7998 91.5288 62.0298 89.2888 64.7998 89.2888C67.5598 89.2888 69.7998 91.5288 69.7998 94.2888C69.7998 97.0488 67.5598 99.2888 64.7998 99.2888C62.0298 99.2888 59.7998 97.0488 59.7998 94.2888Z" fill="black"/>
<path d="M86.6699 61.6689C86.6699 58.8989 88.9099 56.6589 91.6699 56.6589C94.4299 56.6589 96.6699 58.8989 96.6699 61.6689C96.6699 64.4289 94.4299 66.6689 91.6699 66.6689C88.9099 66.6689 86.6699 64.4289 86.6699 61.6689Z" fill="black"/>
<path d="M86.6797 75.9889C86.6797 73.2289 88.9097 70.9889 91.6697 70.9789C94.4397 70.9789 96.6697 73.2189 96.6797 75.9789C96.6797 78.7389 94.4397 80.9789 91.6797 80.9789C88.9197 80.9789 86.6797 78.7489 86.6797 75.9889Z" fill="black"/>
<path d="M87.61 80.0788C86.2 78.3888 86.09 76.0388 87.19 74.2588C88.1 72.3988 90.13 71.2288 92.31 71.5088C95.05 71.8588 96.99 74.3588 96.64 77.0988C96.59 78.0788 95.76 79.8988 94.65 80.7188C93.72 81.4988 92.58 81.8788 91.45 81.8788C90.02 81.8788 88.6 81.2688 87.61 80.0788Z" fill="black"/>
<path d="M78.0898 76.8789C78.0898 74.1189 80.3198 71.8789 83.0798 71.8789C85.8498 71.8789 88.0898 74.1189 88.0898 76.8789C88.0898 79.6389 85.8498 81.8789 83.0798 81.8789C80.3198 81.8789 78.0898 79.6389 78.0898 76.8789Z" fill="black"/>
<path d="M80.4798 81.2088C79.9798 80.9388 79.6498 80.6988 79.3398 80.4388C77.2398 78.6388 76.9898 75.4888 78.7898 73.3888C80.4998 71.3888 83.4498 71.0688 85.5398 72.5988C87.6898 73.9888 88.4598 76.8188 87.2398 79.1288C86.3398 80.8288 84.6098 81.7988 82.8198 81.7988C82.0298 81.7988 81.2298 81.6088 80.4798 81.2088Z" fill="black"/>
<path d="M82.5996 49.7788C79.8396 49.7788 77.5996 47.5388 77.5996 44.7788C77.5996 42.0188 79.8396 39.7788 82.5996 39.7788C85.3596 39.7788 87.5996 42.0188 87.5996 44.7788C87.5996 47.5388 85.3596 49.7788 82.5996 49.7788Z" fill="black"/>
<path d="M81.4999 12.2989C79.2899 10.6489 78.8399 7.50888 80.4999 5.29888C82.1599 3.08888 85.2999 2.64887 87.4999 4.30887C89.7099 5.96887 90.1599 9.09888 88.4999 11.3089C87.5199 12.6189 86.0199 13.3089 84.4999 13.3089C83.4499 13.3089 82.3999 12.9789 81.4999 12.2989Z" fill="black"/>
<path d="M84.7602 5.93888C84.3502 3.20888 86.2302 0.658881 88.9602 0.238881C91.6902 -0.171119 94.2402 1.70888 94.6502 4.42888C95.0702 7.15888 93.1902 9.70888 90.4602 10.1289C90.2102 10.1689 89.9502 10.1889 89.7002 10.1889C87.2702 10.1889 85.1402 8.40888 84.7602 5.93888Z" fill="black"/>
<path d="M85.3802 5.84893C84.9602 3.11893 86.8302 0.568926 89.5602 0.148926L90.1702 0.058926C92.9002 -0.361074 95.4502 1.50893 95.8702 4.23893C96.2902 6.96893 94.4202 9.51893 91.6902 9.93893L91.0802 10.0289C90.8202 10.0689 90.5702 10.0889 90.3102 10.0889C87.8902 10.0889 85.7602 8.31893 85.3802 5.84893Z" fill="black"/>
<path d="M106.74 10.0389C103.98 10.0289 101.75 7.78885 101.76 5.02885C101.76 2.25885 104.01 0.0288519 106.77 0.0388519C109.53 0.0388519 111.76 2.28885 111.76 5.04885C111.75 7.80885 109.51 10.0389 106.76 10.0389H106.74Z" fill="black"/>
<path d="M107.78 10.4089C105.35 9.08891 104.45 6.04891 105.77 3.62891C107.09 1.19891 110.12 0.298909 112.55 1.61891C114.98 2.92891 115.88 5.96891 114.56 8.39891C113.65 10.0689 111.94 11.0089 110.16 11.0089C109.36 11.0089 108.54 10.8189 107.78 10.4089Z" fill="black"/>
<path d="M109.19 11.8289C107.77 9.46888 108.53 6.39888 110.89 4.96888C113.25 3.53888 116.33 4.29888 117.75 6.66888C119.18 9.02888 118.42 12.0989 116.06 13.5289C115.25 14.0189 114.36 14.2489 113.48 14.2489C111.78 14.2489 110.13 13.3889 109.19 11.8289Z" fill="black"/>
<path d="M109.52 12.3989C109.26 9.64889 111.28 7.20889 114.03 6.94889C116.78 6.67889 119.22 8.69889 119.48 11.4489C119.74 14.1989 117.73 16.6389 114.98 16.8989C114.82 16.8989 114.65 16.9189 114.5 16.9189C111.95 16.9189 109.77 14.9789 109.52 12.3989Z" fill="black"/>
<path d="M109.71 13.5189C109.19 10.8289 110.93 8.21887 113.61 7.66887C116.32 7.11887 118.96 8.85887 119.52 11.5689C119.57 11.8589 119.7 12.4089 119.7 13.2189C119.7 15.9789 117.46 18.2189 114.7 18.2189C112.04 18.2189 109.86 16.1389 109.71 13.5189Z" fill="black"/>
<path d="M109.71 49.6389C109.71 46.8789 111.94 44.6389 114.71 44.6389C117.47 44.6389 119.71 46.8789 119.71 49.6389C119.71 52.3989 117.47 54.6389 114.71 54.6389C111.94 54.6389 109.71 52.4089 109.71 49.6389Z" fill="black"/>
<path d="M111.47 54.3488C109.43 52.7988 108.9 49.9988 110.16 47.8388C111.22 45.6488 113.73 44.5088 116.12 45.2388C118.76 46.0488 120.25 48.8388 119.44 51.4788C119.22 52.2388 118.8 52.9388 118.48 53.3588C117.49 54.6588 115.99 55.3488 114.48 55.3488C113.43 55.3488 112.37 55.0188 111.47 54.3488Z" fill="black"/>
<path d="M97.6104 50.3489C97.6104 47.5889 99.8504 45.3489 102.61 45.3489C105.37 45.3489 107.61 47.5889 107.61 50.3489C107.61 53.1089 105.37 55.3489 102.61 55.3489C99.8504 55.3489 97.6104 53.1089 97.6104 50.3489Z" fill="black"/>
<path d="M98.81 53.7889C97.89 52.8589 97.22 51.5689 97.21 49.9489C97.21 47.1889 99.45 44.9489 102.21 44.9489C104.31 44.9489 106.12 46.2589 106.85 48.0989C107.72 49.9389 107.4 52.2089 105.88 53.7489C104.91 54.7389 103.62 55.2289 102.33 55.2289C101.06 55.2289 99.79 54.7489 98.81 53.7889Z" fill="black"/>
<path d="M102.21 41.8389C99.45 41.8389 97.21 39.5989 97.21 36.8389C97.21 34.0789 99.45 31.8389 102.21 31.8389C104.98 31.8389 107.21 34.0789 107.21 36.8389C107.21 39.6089 104.97 41.8389 102.21 41.8389Z" fill="black"/>
<path d="M98.2295 39.4389C97.1595 38.1089 96.7995 36.2489 97.4495 34.5289C98.4195 31.9489 101.31 30.6489 103.89 31.6189C104.77 31.9489 105.67 32.5889 106.28 33.4289C106.9 34.2689 107.21 35.2389 107.28 36.0889C107.54 38.8289 105.51 41.2689 102.76 41.5189C102.61 41.5389 102.45 41.5389 102.3 41.5389C100.64 41.5389 99.1495 40.7189 98.2295 39.4389Z" fill="black"/>
<path d="M92.1397 36.3288C92.1297 33.5588 94.3597 31.3188 97.1197 31.3088C99.8797 31.3088 102.13 33.5388 102.14 36.2988C102.14 39.0588 99.9097 41.3088 97.1497 41.3088H97.1297C94.3797 41.3088 92.1397 39.0788 92.1397 36.3288Z" fill="black"/>
<path d="M92.1504 55.6189C92.1504 52.8589 94.3804 50.6189 97.1504 50.6189C99.9104 50.6089 102.15 52.8489 102.15 55.6089C102.15 58.3689 99.9104 60.6089 97.1504 60.6189C94.3904 60.6189 92.1504 58.3789 92.1504 55.6189Z" fill="black"/>
<path d="M114.34 60.6189C111.58 60.6189 109.34 58.3789 109.34 55.6189C109.34 52.8589 111.58 50.6189 114.34 50.6189C117.1 50.6189 119.34 52.8589 119.34 55.6189C119.34 58.3789 117.1 60.6189 114.34 60.6189Z" fill="black"/>
<path d="M110.12 58.0188C109.09 55.9888 109.56 53.4488 111.38 51.9188C113.5 50.1588 116.65 50.4388 118.42 52.5588C118.76 52.9688 119 53.3488 119.21 53.8088C119.41 54.3088 119.67 54.7488 119.71 56.0188C119.71 58.7788 117.47 61.0188 114.7 61.0188C112.65 61.0188 110.89 59.7888 110.12 58.0188Z" fill="black"/>
<path d="M109.71 61.1789C109.71 58.4189 111.94 56.1789 114.71 56.1689C117.47 56.1689 119.71 58.4089 119.71 61.1689C119.71 63.9289 117.48 66.1689 114.71 66.1689C111.95 66.1689 109.71 63.9389 109.71 61.1789Z" fill="black"/>
<path d="M111.68 65.8088C109.44 64.2988 108.81 61.2988 110.22 59.0288C111.5 56.6888 114.41 55.7488 116.82 56.9488C119.3 58.1688 120.31 61.1688 119.09 63.6388C118.96 63.9088 118.79 64.1988 118.62 64.4588C117.65 65.8888 116.07 66.6688 114.47 66.6588C113.51 66.6588 112.53 66.3888 111.68 65.8088Z" fill="black"/>
<path d="M180.36 100.889C179.85 99.1889 180.28 97.4389 181.36 96.1789C182.72 94.4289 185.14 93.7389 187.28 94.6489C189.82 95.7389 190.99 98.6789 189.91 101.219C189.73 101.609 189.53 101.999 189.14 102.499C188.73 102.959 188.18 103.699 186.59 104.239C186.11 104.379 185.62 104.449 185.15 104.449C183 104.449 181.01 103.049 180.36 100.889Z" fill="black"/>
<path d="M184.56 104.459C184.31 104.439 184.15 104.419 184.11 104.419C181.36 104.169 179.33 101.739 179.59 98.9888C179.84 96.2388 182.27 94.2088 185.02 94.4588C185.09 94.4588 185.14 94.4588 185.16 94.4788C187.91 94.6388 190.01 97.0088 189.85 99.7688C189.69 102.419 187.48 104.469 184.86 104.469C184.76 104.469 184.66 104.469 184.56 104.469V104.459Z" fill="black"/>
<path d="M184.01 104.419C183.93 104.409 183.88 104.409 183.8 104.409C181.04 104.409 178.8 102.169 178.8 99.4089C178.8 96.6489 181.04 94.4089 183.8 94.4089C184.01 94.4089 184.2 94.4189 184.35 94.4189C187.11 94.5189 189.27 96.8289 189.18 99.5889C189.09 102.289 186.87 104.419 184.19 104.419H184.01Z" fill="black"/>
<path d="M163.22 99.4089C163.22 96.6489 165.46 94.4089 168.22 94.4089C170.99 94.4089 173.22 96.6489 173.22 99.4089C173.22 102.169 170.99 104.409 168.22 104.409C165.46 104.409 163.22 102.169 163.22 99.4089Z" fill="black"/>
<path d="M163.75 102.579C161.98 100.449 162.27 97.2989 164.4 95.5389C166.52 93.7689 169.67 94.0589 171.44 96.1789C173.2 98.3089 172.91 101.459 170.79 103.229C169.86 103.999 168.72 104.379 167.6 104.379C166.16 104.379 164.74 103.769 163.75 102.579Z" fill="black"/>
<path d="M167.37 104.049C164.61 103.989 162.43 101.709 162.49 98.9489C162.49 98.7489 162.5 98.6289 162.51 98.5589C162.58 95.8689 164.79 93.6989 167.5 93.6989C170.27 93.6989 172.5 95.9389 172.5 98.7089C172.5 98.9889 172.49 99.1889 172.48 99.2789C172.36 101.949 170.16 104.059 167.49 104.059C167.49 104.059 167.41 104.059 167.37 104.049Z" fill="black"/>
<path d="M167.51 84.9689C164.75 84.9689 162.51 82.7289 162.51 79.9689C162.51 77.2089 164.75 74.9689 167.51 74.9689C170.28 74.9689 172.51 77.2089 172.51 79.9689C172.51 82.7389 170.27 84.9689 167.51 84.9689Z" fill="black"/>
<path d="M157.85 79.9989C157.84 77.2389 160.07 74.9889 162.83 74.9789C165.6 74.9789 167.84 77.2089 167.85 79.9689C167.85 82.7289 165.62 84.9789 162.86 84.9789H162.85C160.09 84.9789 157.85 82.7489 157.85 79.9989Z" fill="black"/>
<path d="M157.49 80.4888C157.22 77.7388 159.23 75.2888 161.97 75.0188C162.22 74.9988 162.39 74.9888 162.51 74.9888C165.27 74.9088 167.57 77.0788 167.65 79.8388C167.74 82.5788 165.59 84.8688 162.86 84.9788C162.73 84.9788 162.59 84.9988 162.46 84.9988C159.92 84.9988 157.75 83.0688 157.49 80.4888Z" fill="black"/>
<path d="M157.46 80.9389C157.46 80.9389 157.45 80.8789 157.45 80.8489C157.08 78.1089 159.01 75.5989 161.75 75.2389C164.47 74.8789 166.98 76.7889 167.36 79.5089V79.5689C167.38 79.7089 167.43 79.9489 167.43 80.4289C167.43 83.1889 165.19 85.4289 162.43 85.4289C159.84 85.4289 157.71 83.4589 157.46 80.9389Z" fill="black"/>
<path d="M157.44 120.049C157.44 117.289 159.67 115.049 162.43 115.049C165.2 115.049 167.43 117.289 167.43 120.049C167.43 122.809 165.2 125.049 162.44 125.049C159.67 125.049 157.44 122.809 157.44 120.049Z" fill="black"/>
<path d="M157.04 120.379C157.04 118.259 158.35 116.449 160.21 115.719C162.13 114.849 164.48 115.259 165.98 116.899C167.84 118.939 167.69 122.109 165.66 123.969C164.87 124.689 163.63 125.369 162.04 125.379C159.27 125.379 157.04 123.139 157.04 120.379Z" fill="black"/>
<path d="M153.35 125.369C150.59 125.359 148.35 123.119 148.36 120.359C148.36 117.599 150.6 115.359 153.36 115.369C156.12 115.369 158.36 117.609 158.35 120.369C158.35 123.129 156.11 125.369 153.36 125.369H153.35Z" fill="black"/>
<path d="M148.36 84.4288C148.36 81.6688 150.6 79.4288 153.36 79.4288C156.12 79.4288 158.36 81.6688 158.36 84.4288C158.36 87.1988 156.12 89.4288 153.36 89.4288C150.6 89.4288 148.36 87.1988 148.36 84.4288Z" fill="black"/>
<path d="M173.13 48.4988C173.13 45.7388 175.36 43.4988 178.12 43.4988C180.89 43.4988 183.12 45.7388 183.13 48.4988C183.13 51.2588 180.89 53.4988 178.13 53.4988C175.36 53.4988 173.13 51.2588 173.13 48.4988Z" fill="black"/>
<path d="M178.56 53.5789L178.07 53.5189C175.32 53.2189 173.34 50.7389 173.65 47.9989C173.96 45.2489 176.43 43.2789 179.17 43.5789L179.67 43.6389C182.41 43.9489 184.39 46.4189 184.08 49.1589C183.8 51.7189 181.63 53.6089 179.12 53.6089C178.93 53.6089 178.75 53.6089 178.56 53.5789Z" fill="black"/>
<path d="M179.33 53.7589L178.72 53.6289C176.02 53.0789 174.27 50.4389 174.82 47.7289C175.37 45.0289 178.02 43.2789 180.72 43.8289L181.33 43.9589C184.03 44.5089 185.78 47.1489 185.23 49.8589C184.75 52.2189 182.66 53.8589 180.34 53.8589C180 53.8589 179.67 53.8189 179.33 53.7589Z" fill="black"/>
<path d="M179.88 54.0789C177.89 52.1789 177.81 49.0089 179.72 47.0089C181.62 45.0089 184.79 44.9389 186.79 46.8489C188.79 48.7489 188.86 51.9189 186.95 53.9089C185.97 54.9389 184.65 55.4589 183.34 55.4589C182.09 55.4589 180.85 54.9989 179.88 54.0789Z" fill="black"/>
<path d="M180.01 54.6589C179.15 52.0289 180.58 49.2089 183.2 48.3489C185.83 47.4889 188.65 48.9189 189.51 51.5489C190.37 54.1689 188.94 56.9989 186.32 57.8489C185.8 58.0189 185.27 58.0989 184.76 58.0989C182.65 58.0989 180.7 56.7689 180.01 54.6589Z" fill="black"/>
<path d="M180.42 57.2088C180.01 54.4788 181.89 51.9288 184.62 51.5188C187.35 51.1088 189.9 52.9788 190.31 55.7088C190.72 58.4388 188.85 60.9888 186.12 61.4088C185.86 61.4488 185.61 61.4588 185.36 61.4588C182.93 61.4588 180.8 59.6888 180.42 57.2088Z" fill="black"/>
<path d="M180.37 98.9889C180.37 96.2289 182.61 93.9889 185.37 93.9889C188.13 93.9889 190.37 96.2289 190.37 98.9889C190.37 101.749 188.13 103.989 185.37 103.989C182.61 103.989 180.37 101.749 180.37 98.9889Z" fill="black"/>
<path d="M185.15 104.449C184.44 104.449 183.73 104.299 183.05 103.979C180.55 102.819 179.46 99.8389 180.62 97.3389L180.83 96.8789C181.99 94.3789 184.97 93.2889 187.47 94.4489C189.97 95.6089 191.06 98.5889 189.9 101.089L189.69 101.549C188.84 103.369 187.04 104.439 185.15 104.439V104.449Z" fill="black"/>
<path d="M225.17 164.679C225.17 161.919 227.4 159.679 230.17 159.679C232.93 159.679 235.17 161.919 235.17 164.679C235.17 167.439 232.93 169.679 230.17 169.679C227.41 169.679 225.17 167.439 225.17 164.679Z" fill="black"/>
<path d="M225.17 137.119C225.17 134.359 227.41 132.119 230.17 132.119C232.93 132.119 235.17 134.359 235.17 137.119C235.17 139.879 232.93 142.119 230.17 142.119C227.41 142.119 225.17 139.879 225.17 137.119Z" fill="black"/>
<path d="M225.1 108.219C224.68 105.489 226.55 102.939 229.28 102.519C232.01 102.099 234.56 103.969 234.98 106.699C235.4 109.429 233.53 111.989 230.8 112.399C230.54 112.439 230.29 112.459 230.04 112.459C227.61 112.459 225.48 110.689 225.1 108.219Z" fill="black"/>
<path d="M224.95 107.219L224.8 106.239C224.4 103.509 226.28 100.959 229.01 100.559C231.74 100.149 234.29 102.029 234.69 104.759L234.84 105.739C235.25 108.479 233.36 111.019 230.63 111.429C230.38 111.459 230.13 111.479 229.89 111.479C227.45 111.479 225.32 109.699 224.95 107.219Z" fill="black"/>
<path d="M224.23 104.469C223.27 101.879 224.58 98.9989 227.17 98.0389C229.76 97.0789 232.64 98.3889 233.6 100.979C234.57 103.569 233.25 106.449 230.66 107.409C230.09 107.629 229.5 107.729 228.92 107.729C226.89 107.729 224.98 106.479 224.23 104.469Z" fill="black"/>
<path d="M222.54 102.609C220.03 101.469 218.92 98.5089 220.06 95.9889C221.2 93.4789 224.17 92.3689 226.68 93.5089C229.19 94.6589 230.3 97.6189 229.16 100.139C228.32 101.979 226.51 103.069 224.61 103.069C223.92 103.069 223.21 102.919 222.54 102.609Z" fill="black"/>
<path d="M216.22 97.1389C216.22 94.3789 218.46 92.1389 221.22 92.1389C223.98 92.1389 226.22 94.3789 226.22 97.1389C226.22 99.8989 223.98 102.139 221.22 102.139C218.46 102.139 216.22 99.8989 216.22 97.1389Z" fill="black"/>
<path d="M194.49 97.1589C194.49 94.3889 196.73 92.1489 199.49 92.1489C202.25 92.1489 204.49 94.3889 204.49 97.1489C204.49 99.9089 202.26 102.149 199.49 102.149C196.73 102.149 194.49 99.9189 194.49 97.1589Z" fill="black"/>
<path d="M187.41 106.369C185.13 104.819 184.53 101.709 186.08 99.4288C187.63 97.1388 190.74 96.5488 193.03 98.0988C195.31 99.6488 195.91 102.759 194.36 105.049C193.39 106.469 191.82 107.239 190.21 107.239C189.25 107.239 188.27 106.959 187.41 106.369Z" fill="black"/>
<path d="M187.39 114.429C184.64 114.139 182.65 111.679 182.94 108.929C183.22 106.179 185.68 104.189 188.43 104.479C191.18 104.769 193.17 107.229 192.88 109.979C192.61 112.549 190.44 114.459 187.92 114.459C187.74 114.459 187.56 114.449 187.39 114.429Z" fill="black"/>
<path d="M182.91 144.949C182.91 142.189 185.15 139.949 187.91 139.949C190.67 139.949 192.91 142.189 192.91 144.949C192.91 147.719 190.67 149.949 187.91 149.949C185.15 149.949 182.91 147.719 182.91 144.949Z" fill="black"/>
<path d="M183.06 181.979C183.06 181.979 183.05 181.879 183.03 181.779C182.57 179.049 184.41 176.479 187.13 176.019C189.86 175.559 192.43 177.399 192.89 180.119C192.9 180.209 192.97 180.469 193.02 181.029C193.25 183.779 191.2 186.199 188.45 186.429C188.31 186.439 188.17 186.449 188.03 186.449C185.5 186.449 183.34 184.529 183.06 181.979Z" fill="black"/>
<path d="M183.13 182.849L183.09 182.359C182.87 179.599 184.91 177.189 187.67 176.959C190.42 176.739 192.83 178.779 193.06 181.539L193.1 182.039C193.32 184.789 191.28 187.199 188.53 187.429C188.39 187.439 188.25 187.449 188.11 187.449C185.53 187.449 183.35 185.469 183.13 182.849Z" fill="black"/>
<path d="M183.62 185.559C183.55 185.259 183.46 184.879 183.36 184.429C182.81 181.719 184.56 179.079 187.27 178.529C189.97 177.979 192.61 179.729 193.16 182.429C193.2 182.629 193.27 182.899 193.35 183.239C193.99 185.919 192.33 188.619 189.65 189.259C189.26 189.359 188.87 189.399 188.48 189.399C186.22 189.399 184.17 187.859 183.62 185.559Z" fill="black"/>
<path d="M191.06 195.399C188.59 194.169 187.58 191.169 188.81 188.699C190.05 186.229 193.05 185.219 195.52 186.449C197.99 187.679 199 190.679 197.77 193.159C196.89 194.909 195.12 195.929 193.29 195.929C192.54 195.929 191.78 195.759 191.06 195.399Z" fill="black"/>
<path d="M199.07 197.529C196.31 197.529 194.07 195.289 194.08 192.529C194.09 189.759 196.33 187.529 199.09 187.529C201.85 187.539 204.08 189.779 204.08 192.539C204.07 195.299 201.84 197.529 199.08 197.529H199.07Z" fill="black"/>
<path d="M221.23 197.559C218.47 197.559 216.24 195.319 216.24 192.559C216.24 189.799 218.49 187.559 221.25 187.559C224.01 187.559 226.25 189.809 226.24 192.569C226.24 195.329 224 197.559 221.24 197.559H221.23Z" fill="black"/>
<path d="M218.84 193.439C218.05 190.789 219.55 188.009 222.2 187.209C224.84 186.419 227.63 187.919 228.42 190.559C229.22 193.209 227.72 195.999 225.07 196.789C224.59 196.929 224.11 196.999 223.63 196.999C221.48 196.999 219.49 195.609 218.84 193.439Z" fill="black"/>
<path d="M227.8 190.759C225.15 189.969 223.65 187.179 224.44 184.539C225.23 181.889 228.01 180.389 230.66 181.179C233.3 181.969 234.81 184.749 234.02 187.399C233.37 189.569 231.38 190.969 229.23 190.969C228.76 190.969 228.27 190.899 227.8 190.759Z" fill="black"/>
<path d="M229.33 187.989C226.59 187.669 224.62 185.189 224.94 182.449C225.26 179.699 227.75 177.739 230.49 178.059C233.23 178.379 235.2 180.859 234.88 183.599C234.58 186.149 232.42 188.019 229.92 188.019C229.72 188.019 229.53 188.009 229.33 187.989Z" fill="black"/>
<path d="M229.52 185.539C226.77 185.239 224.8 182.759 225.1 180.019C225.41 177.269 227.89 175.299 230.63 175.609C233.37 175.909 235.35 178.389 235.04 181.129C234.76 183.689 232.59 185.579 230.08 185.579C229.89 185.579 229.71 185.559 229.52 185.539Z" fill="black"/>
<path d="M229.57 185.159C226.82 184.849 224.84 182.379 225.15 179.639L225.19 179.249C225.49 176.499 227.96 174.519 230.71 174.829C233.45 175.129 235.43 177.599 235.13 180.349L235.09 180.739C234.8 183.289 232.64 185.189 230.12 185.189C229.94 185.189 229.75 185.179 229.57 185.159Z" fill="black"/>
<path d="M225.16 172.659C225.16 169.899 227.4 167.659 230.16 167.659C232.92 167.659 235.16 169.899 235.16 172.659C235.16 175.419 232.92 177.659 230.16 177.659C227.4 177.659 225.16 175.419 225.16 172.659Z" fill="black"/>
<path d="M224.43 172.679C224.43 170.049 226.47 167.889 229.05 167.689C231.76 167.279 234.3 169.119 234.74 171.829C235.18 174.559 233.33 177.129 230.61 177.569C230.49 177.579 230.19 177.669 229.43 177.679C226.67 177.679 224.43 175.439 224.43 172.679Z" fill="black"/>
<path d="M203.49 172.679C203.49 169.919 205.73 167.679 208.49 167.679C211.25 167.679 213.49 169.919 213.49 172.679C213.49 175.439 211.25 177.679 208.49 177.679C205.73 177.679 203.49 175.439 203.49 172.679Z" fill="black"/>
<path d="M207.96 177.659H207.61C204.85 177.559 202.69 175.239 202.79 172.479C202.88 169.719 205.2 167.559 207.96 167.659H208.31C211.07 167.769 213.23 170.079 213.13 172.839C213.04 175.539 210.82 177.669 208.14 177.669C208.08 177.669 208.02 177.659 207.96 177.659Z" fill="black"/>
<path d="M201.91 172.689C201.91 169.929 204.15 167.689 206.91 167.689C209.68 167.689 211.91 169.929 211.91 172.689C211.91 175.449 209.68 177.689 206.91 177.689C204.15 177.689 201.91 175.449 201.91 172.689Z" fill="black"/>
<path d="M201.94 173.249V173.099C201.78 170.339 203.9 167.989 206.66 167.849C209.42 167.699 211.77 169.819 211.92 172.579V172.729C212.07 175.489 209.95 177.839 207.19 177.979C207.1 177.979 207.01 177.979 206.93 177.979C204.29 177.979 202.08 175.909 201.94 173.239V173.249Z" fill="black"/>
<path d="M201.95 178.359C201.94 175.599 204.17 173.359 206.93 173.349C209.69 173.339 211.94 175.569 211.95 178.329C211.96 181.099 209.72 183.339 206.96 183.349H206.95C204.19 183.349 201.96 181.119 201.95 178.359Z" fill="black"/>
<path d="M201.64 178.729C201.64 177.109 202.42 175.659 203.62 174.749C205.36 173.279 207.94 173.149 209.84 174.579C212.05 176.229 212.49 179.369 210.84 181.579C210.62 181.849 210.39 182.139 209.93 182.529C209.44 182.849 208.81 183.619 206.64 183.729C203.88 183.729 201.64 181.489 201.64 178.729Z" fill="black"/>
<path d="M199.42 183.719C196.66 183.719 194.42 181.469 194.43 178.709C194.43 175.949 196.67 173.709 199.43 173.719C202.19 173.719 204.43 175.969 204.42 178.729C204.42 181.489 202.18 183.719 199.42 183.719Z" fill="black"/>
<path d="M194.42 165.079C194.42 162.319 196.66 160.079 199.42 160.079C202.18 160.079 204.42 162.319 204.42 165.079C204.42 167.839 202.18 170.079 199.42 170.079C196.66 170.079 194.42 167.849 194.42 165.079Z" fill="black"/>
<path d="M195.45 167.589C193.89 165.309 194.48 162.199 196.76 160.639C198.09 159.759 199.23 159.699 199.93 159.689C202.69 159.689 204.93 161.919 204.93 164.689C204.93 167.109 203.21 169.129 200.92 169.589C200.48 169.709 200.03 169.769 199.58 169.769C197.99 169.769 196.42 169.009 195.45 167.589Z" fill="black"/>
<path d="M217.08 149.719C217.08 146.959 219.32 144.719 222.08 144.719C224.84 144.719 227.08 146.959 227.08 149.719C227.08 152.479 224.84 154.719 222.08 154.719C219.32 154.719 217.08 152.479 217.08 149.719Z" fill="black"/>
<path d="M209.37 157.429C209.37 154.669 211.6 152.429 214.37 152.429C217.13 152.429 219.37 154.669 219.37 157.429C219.37 160.189 217.13 162.429 214.37 162.429C211.6 162.429 209.37 160.189 209.37 157.429Z" fill="black"/>
<path d="M201.65 149.719C201.65 146.959 203.89 144.719 206.65 144.719C209.42 144.719 211.65 146.959 211.65 149.719C211.65 152.489 209.42 154.719 206.65 154.719C203.89 154.719 201.65 152.489 201.65 149.719Z" fill="black"/>
<path d="M209.37 142.019C209.37 139.259 211.61 137.019 214.37 137.019C217.13 137.019 219.37 139.259 219.37 142.019C219.37 144.779 217.13 147.019 214.37 147.019C211.61 147.019 209.37 144.779 209.37 142.019Z" fill="black"/>
<path d="M145.43 89.1189C142.68 88.8589 140.65 86.4289 140.91 83.6789C141.16 80.9289 143.6 78.8989 146.35 79.1589C149.1 79.4089 151.12 81.8489 150.87 84.5989C150.62 87.1889 148.45 89.1389 145.89 89.1389C145.74 89.1389 145.58 89.1289 145.43 89.1189Z" fill="black"/>
<path d="M142.4 89.1488C139.64 89.0788 137.46 86.7888 137.52 84.0288C137.59 81.2688 139.88 79.0788 142.64 79.1488C145.4 79.2188 147.59 81.5088 147.52 84.2688C147.46 86.9888 145.23 89.1488 142.53 89.1488H142.4Z" fill="black"/>
<path d="M135.21 84.2588C135.13 81.4988 137.31 79.1988 140.07 79.1188C142.83 79.0488 145.13 81.2288 145.2 83.9888C145.28 86.7488 143.1 89.0488 140.34 89.1188H140.2C137.5 89.1188 135.28 86.9688 135.21 84.2588Z" fill="black"/>
<path d="M134.18 84.2389C134.12 81.4789 136.32 79.1889 139.08 79.1389H139.59C142.36 79.0789 144.64 81.2789 144.69 84.0389C144.74 86.7989 142.55 89.0789 139.78 89.1289H139.27C139.27 89.1289 139.21 89.1389 139.17 89.1389C136.46 89.1389 134.23 86.9689 134.18 84.2389Z" fill="black"/>
<path d="M132.98 84.2388C132.93 81.4788 135.13 79.2088 137.89 79.1588H138.49C141.25 79.1088 143.53 81.3088 143.57 84.0688C143.62 86.8288 141.42 89.1088 138.66 89.1488H138.06C138.06 89.1488 138 89.1488 137.97 89.1488C135.25 89.1488 133.02 86.9688 132.98 84.2288V84.2388Z" fill="black"/>
<path d="M135.99 89.0589C133.27 88.5589 131.48 85.9489 131.98 83.2389C132.48 80.5189 135.09 78.7289 137.81 79.2289C140.52 79.7289 142.32 82.3389 141.81 85.0589C141.37 87.4589 139.27 89.1489 136.9 89.1489C136.6 89.1489 136.29 89.1189 135.99 89.0589Z" fill="black"/>
<path d="M131.18 84.3989C131.1 83.0289 131.98 81.1589 133.1 80.3489C134.18 79.4889 135.07 79.3089 135.67 79.1989C138.39 78.7589 140.96 80.6089 141.4 83.3389C141.69 85.1089 141 86.8089 139.74 87.9089C138.84 88.8289 137.57 89.3989 136.18 89.3989C133.42 89.3989 131.18 87.1589 131.18 84.3989Z" fill="black"/>
<path d="M136.18 115.879C133.41 115.879 131.18 113.639 131.18 110.879C131.18 108.119 133.41 105.879 136.18 105.879C138.94 105.879 141.18 108.119 141.18 110.879C141.18 113.639 138.94 115.879 136.18 115.879Z" fill="black"/>
<path d="M131.93 113.739C130.54 111.349 131.34 108.289 133.73 106.899C136.11 105.509 139.17 106.309 140.57 108.699C141.96 111.079 141.15 114.149 138.76 115.539C137.97 115.999 137.11 116.219 136.25 116.219C134.53 116.219 132.86 115.329 131.93 113.739Z" fill="black"/>
<path d="M130.96 111.309C130.96 108.899 132.66 106.889 134.93 106.419C137.39 105.819 139.96 107.169 140.82 109.609C141.74 112.219 140.38 115.069 137.77 115.989C137.41 116.079 137.27 116.249 135.96 116.309C133.2 116.309 130.96 114.069 130.96 111.309Z" fill="black"/>
<path d="M133.61 116.299C130.85 116.299 128.62 114.039 128.64 111.269C128.65 108.509 130.9 106.289 133.66 106.299C136.42 106.309 138.65 108.559 138.64 111.329C138.62 114.079 136.39 116.299 133.64 116.299H133.61Z" fill="black"/>
<path d="M128.64 76.0989C128.64 73.3389 130.88 71.0989 133.64 71.0989C136.4 71.0989 138.64 73.3389 138.64 76.0989C138.64 78.8589 136.4 81.0989 133.64 81.0989C130.88 81.0989 128.64 78.8589 128.64 76.0989Z" fill="black"/>
<path d="M136.98 76.0888C136.97 73.3288 139.2 71.0788 141.96 71.0688C144.72 71.0688 146.97 73.2889 146.98 76.0489C146.99 78.8089 144.76 81.0588 142 81.0688H141.98C139.22 81.0688 136.99 78.8388 136.98 76.0888Z" fill="black"/>
<path d="M137.93 76.8889C137.42 74.1689 139.21 71.5589 141.92 71.0489C142.14 71.0089 142.57 70.9089 143.23 70.8489C145.98 70.5789 148.42 72.5889 148.69 75.3389C148.95 78.0789 146.95 80.5189 144.21 80.7989C144.21 80.7989 144.18 80.7989 144.14 80.8089C144.07 80.8089 143.95 80.8389 143.77 80.8789C143.46 80.9389 143.15 80.9689 142.84 80.9689C140.48 80.9689 138.38 79.2889 137.93 76.8889Z" fill="black"/>
<path d="M149.72 73.8489C146.99 73.4389 145.11 70.8989 145.51 68.1589C145.92 65.4289 148.46 63.5489 151.19 63.9489C153.93 64.3589 155.81 66.8989 155.41 69.6289C155.04 72.1189 152.9 73.8989 150.47 73.8989C150.22 73.8989 149.97 73.8789 149.72 73.8489Z" fill="black"/>
<path d="M149.39 73.1289C146.75 72.4689 145.13 69.8289 145.72 67.1889C145.95 64.6489 148.09 62.6489 150.7 62.6489C153.46 62.6489 155.7 64.8889 155.7 67.6489C155.69 68.5989 155.53 69.1589 155.45 69.4889C154.89 71.7589 152.85 73.2789 150.6 73.2789C150.2 73.2789 149.8 73.2289 149.39 73.1289Z" fill="black"/>
<path d="M145.67 58.0089C145.66 55.2489 147.89 52.9989 150.65 52.9889C153.41 52.9889 155.66 55.2089 155.67 57.9789C155.68 60.7389 153.44 62.9789 150.68 62.9889H150.67C147.91 62.9889 145.68 60.7589 145.67 58.0089Z" fill="black"/>
<path d="M145.09 56.3789C143.82 53.9289 144.78 50.9089 147.23 49.6289C149.68 48.3589 152.7 49.3189 153.97 51.7689C155.24 54.2189 154.29 57.2389 151.84 58.5089C151.1 58.8889 150.31 59.0689 149.54 59.0689C147.73 59.0689 145.98 58.0889 145.09 56.3789Z" fill="black"/>
<path d="M143.61 54.9088C141.1 53.7488 140.02 50.7688 141.18 48.2688C142.35 45.7688 145.32 44.6788 147.82 45.8388C150.33 47.0088 151.41 49.9788 150.25 52.4888C149.4 54.3088 147.6 55.3788 145.71 55.3788C145.01 55.3788 144.29 55.2288 143.61 54.9088Z" fill="black"/>
<path d="M136.7 49.2189C136.7 46.4589 138.94 44.2189 141.7 44.2189C144.46 44.2189 146.7 46.4589 146.7 49.2189C146.7 51.9789 144.46 54.2189 141.7 54.2189C138.94 54.2189 136.7 51.9789 136.7 49.2189Z" fill="black"/>
<path d="M121.1 49.2289C121.09 46.4689 123.33 44.2289 126.09 44.2289C128.85 44.2289 131.09 46.4589 131.1 49.2289C131.1 51.9889 128.86 54.2289 126.1 54.2289C123.34 54.2289 121.1 51.9989 121.1 49.2289Z" fill="black"/>
<path d="M117.53 57.4088C115.1 56.0888 114.22 53.0488 115.54 50.6188C116.87 48.1988 119.91 47.3088 122.33 48.6388C124.75 49.9688 125.64 52.9988 124.31 55.4288C123.41 57.0888 121.69 58.0288 119.92 58.0288C119.11 58.0288 118.29 57.8288 117.53 57.4088Z" fill="black"/>
<path d="M117.99 62.1589C115.26 61.7089 113.42 59.1289 113.87 56.4089C114.32 53.6789 116.9 51.8389 119.62 52.2889C122.35 52.7389 124.19 55.3189 123.74 58.0389C123.33 60.4889 121.21 62.2289 118.81 62.2289C118.54 62.2289 118.27 62.1989 117.99 62.1589Z" fill="black"/>
<path d="M113.81 85.4589C113.81 82.6989 116.04 80.4589 118.81 80.4589C121.57 80.4589 123.81 82.6989 123.81 85.4589C123.81 88.2189 121.57 90.4589 118.81 90.4589C116.04 90.4589 113.81 88.2189 113.81 85.4589Z" fill="black"/>
<path d="M121.94 124.949C119.4 123.869 118.22 120.939 119.3 118.399C120.38 115.859 123.32 114.669 125.86 115.749C128.4 116.839 129.59 119.769 128.5 122.309C127.69 124.219 125.85 125.359 123.9 125.359C123.25 125.359 122.58 125.229 121.94 124.949Z" fill="black"/>
<path d="M121.56 121.029C121.56 118.269 123.79 116.029 126.56 116.029C129.32 116.029 131.56 118.269 131.56 121.029C131.56 123.789 129.32 126.029 126.56 126.029C123.79 126.029 121.56 123.789 121.56 121.029Z" fill="black"/>
<path d="M138.94 121.029C138.94 118.269 141.18 116.029 143.94 116.029C146.7 116.029 148.94 118.259 148.94 121.019C148.94 123.789 146.7 126.029 143.94 126.029C141.18 126.029 138.94 123.789 138.94 121.029Z" fill="black"/>
<path d="M143.54 122.609C141.78 120.479 142.08 117.329 144.21 115.569C146.34 113.809 149.49 114.109 151.25 116.239C153.01 118.369 152.71 121.519 150.58 123.279C149.65 124.049 148.52 124.419 147.4 124.419C145.96 124.419 144.53 123.809 143.54 122.609Z" fill="black"/>
<path d="M145.86 121.739C143.65 120.089 143.19 116.959 144.84 114.739C146.49 112.529 149.63 112.069 151.84 113.719C154.05 115.369 154.51 118.509 152.86 120.719C151.88 122.039 150.37 122.729 148.85 122.729C147.81 122.729 146.76 122.409 145.86 121.739Z" fill="black"/>
<path d="M149.68 118.289C146.98 117.719 145.25 115.069 145.83 112.369C146.4 109.659 149.06 107.939 151.76 108.509C154.46 109.079 156.18 111.739 155.61 114.439C155.11 116.789 153.04 118.399 150.73 118.399C150.38 118.399 150.03 118.369 149.68 118.289Z" fill="black"/>
<path d="M145.72 84.2289C145.72 81.4689 147.96 79.2289 150.72 79.2289C153.48 79.2289 155.72 81.4689 155.72 84.2289C155.72 86.9889 153.48 89.2289 150.72 89.2289C147.96 89.2289 145.72 86.9889 145.72 84.2289Z" fill="black"/>
<path d="M143.97 84.3089C143.89 81.5589 146.06 79.2589 148.81 79.1689C148.93 79.1489 149.17 79.1189 149.53 79.0989C152.29 78.9189 154.67 81.0089 154.84 83.7589C155.02 86.5189 152.94 88.8889 150.19 89.0689C150.19 89.0689 150.1 89.0789 150.01 89.0989C149.84 89.1189 149.54 89.1489 149.11 89.1689H148.97C146.27 89.1689 144.05 87.0189 143.97 84.3089Z" fill="black"/>
<path d="M148.97 89.1689C148.97 89.1689 148.93 89.1689 148.91 89.1689L145.84 89.1389C143.08 89.1089 140.86 86.8489 140.89 84.0889C140.92 81.3289 143.2 79.0889 145.94 79.1389L149.01 79.1689C151.77 79.1989 153.99 81.4589 153.96 84.2189C153.93 86.9589 151.7 89.1689 148.96 89.1689H148.97Z" fill="black"/>
<path d="M124.91 57.4789C124.91 54.7189 127.15 52.4789 129.91 52.4789C132.67 52.4789 134.91 54.7189 134.91 57.4789C134.91 60.2489 132.67 62.4789 129.91 62.4789C127.15 62.4789 124.91 60.2489 124.91 57.4789Z" fill="black"/>
<path d="M131.24 63.8088C131.24 61.0488 133.48 58.8088 136.24 58.8088C139 58.8088 141.24 61.0488 141.24 63.8088C141.24 66.5688 139 68.8088 136.24 68.8088C133.48 68.8088 131.24 66.5688 131.24 63.8088Z" fill="black"/>
<path d="M124.91 70.1289C124.91 67.3689 127.15 65.1289 129.91 65.1289C132.67 65.1289 134.91 67.3689 134.91 70.1289C134.91 72.8889 132.67 75.1289 129.91 75.1289C127.15 75.1289 124.91 72.8889 124.91 70.1289Z" fill="black"/>
<path d="M118.59 63.8088C118.59 61.0488 120.82 58.8088 123.59 58.8088C126.35 58.8088 128.59 61.0488 128.59 63.8088C128.59 66.5688 126.35 68.8088 123.59 68.8088C120.82 68.8088 118.59 66.5688 118.59 63.8088Z" fill="black"/>
<path d="M123.59 68.8088C122.31 68.8088 121.03 68.3188 120.05 67.3388C118.1 65.3888 118.1 62.2188 120.05 60.2688L126.39 53.9488C128.34 51.9988 131.51 51.9988 133.46 53.9488C135.41 55.8988 135.41 59.0688 133.46 61.0188L127.12 67.3388C126.14 68.3088 124.87 68.7988 123.59 68.7988V68.8088Z" fill="black"/>
<path d="M297 87.8989C297 85.1389 299.24 82.8989 302 82.8989C304.76 82.8989 307 85.1389 307 87.8989C307 90.6589 304.76 92.8989 302 92.8989C299.24 92.8989 297 90.6589 297 87.8989Z" fill="black"/>
<path d="M297 112.539C297 109.779 299.24 107.539 302 107.539C304.76 107.539 307 109.779 307 112.539C307 115.309 304.76 117.539 302 117.539C299.24 117.539 297 115.309 297 112.539Z" fill="black"/>
<path d="M297.09 121.369C294.87 119.739 294.39 116.609 296.02 114.389C297.65 112.159 300.78 111.679 303.01 113.309C305.23 114.949 305.71 118.079 304.08 120.299C303.1 121.639 301.58 122.339 300.05 122.339C299.02 122.339 297.98 122.029 297.09 121.369Z" fill="black"/>
<path d="M294.47 122.229C292.77 120.059 293.16 116.919 295.33 115.219C297.51 113.509 300.65 113.899 302.35 116.069C304.05 118.249 303.67 121.389 301.49 123.089C300.58 123.809 299.49 124.159 298.41 124.159C296.93 124.159 295.46 123.499 294.47 122.229Z" fill="black"/>
<path d="M290.42 120.539C290.42 117.779 292.66 115.539 295.42 115.539C298.18 115.539 300.42 117.779 300.42 120.539C300.42 123.299 298.18 125.539 295.42 125.539C292.66 125.539 290.42 123.299 290.42 120.539Z" fill="black"/>
<path d="M277.55 125.529C274.79 125.529 272.55 123.289 272.55 120.529C272.55 117.769 274.79 115.529 277.55 115.529C280.31 115.529 282.55 117.769 282.55 120.529C282.55 123.289 280.31 125.529 277.55 125.529Z" fill="black"/>
<path d="M271.62 123.689C269.24 122.299 268.43 119.229 269.82 116.849C271.22 114.469 274.28 113.659 276.66 115.049C279.05 116.449 279.85 119.509 278.46 121.889C277.53 123.479 275.86 124.369 274.14 124.369C273.28 124.369 272.41 124.149 271.62 123.689Z" fill="black"/>
<path d="M265.82 116.739C264.97 114.109 266.41 111.289 269.04 110.439C271.66 109.589 274.48 111.039 275.33 113.659C276.18 116.289 274.74 119.109 272.11 119.959C271.6 120.119 271.08 120.199 270.57 120.199C268.46 120.199 266.5 118.849 265.82 116.739Z" fill="black"/>
<path d="M265 112.499C265 109.739 267.24 107.499 270 107.499C272.76 107.499 275 109.739 275 112.499C275 115.269 272.76 117.499 270 117.499C267.24 117.499 265 115.269 265 112.499Z" fill="black"/>
<path d="M265 84.7688C265 82.0088 267.24 79.7688 270 79.7688C272.77 79.7688 275.01 82.0088 275 84.7688C275 87.5388 272.76 89.7788 270 89.7788C267.24 89.7788 265 87.5288 265 84.7688Z" fill="black"/>
<path d="M268.82 55.8488C266.7 54.0788 266.42 50.9188 268.19 48.8088C269.96 46.6888 273.11 46.4088 275.23 48.1788C277.35 49.9488 277.63 53.0988 275.86 55.2188C274.87 56.3988 273.45 57.0088 272.02 57.0088C270.89 57.0088 269.75 56.6288 268.82 55.8488Z" fill="black"/>
<path d="M270.7 51.9188C269.45 49.4488 270.43 46.4388 272.89 45.1888C275.35 43.9388 278.36 44.9188 279.62 47.3788C280.87 49.8388 279.89 52.8488 277.42 54.1088C276.7 54.4788 275.92 54.6488 275.16 54.6488C273.34 54.6488 271.58 53.6488 270.7 51.9188Z" fill="black"/>
<path d="M272.84 48.9889C272.84 46.2289 275.08 43.9889 277.84 43.9889C280.6 43.9889 282.84 46.2289 282.84 48.9889C282.84 51.7489 280.6 53.9889 277.84 53.9889C275.08 53.9889 272.84 51.7489 272.84 48.9889Z" fill="black"/>
<path d="M295.22 54.0188C292.46 54.0088 290.22 51.7688 290.23 49.0088C290.23 46.2488 292.47 44.0088 295.23 44.0088C297.99 44.0188 300.23 46.2588 300.23 49.0188C300.22 51.7788 297.98 54.0188 295.22 54.0188Z" fill="black"/>
<path d="M295.47 54.5089C293.42 52.6589 293.25 49.4989 295.09 47.4389C296.94 45.3889 300.1 45.2189 302.15 47.0589C304.21 48.9089 304.38 52.0689 302.53 54.1189C301.55 55.2189 300.18 55.7789 298.81 55.7789C297.62 55.7789 296.43 55.3589 295.47 54.5089Z" fill="black"/>
<path d="M296.95 57.0388C296.95 54.2788 299.18 52.0388 301.94 52.0288C304.7 52.0288 306.95 54.2588 306.95 57.0188C306.96 59.7788 304.73 62.0188 301.96 62.0288H301.95C299.2 62.0288 296.96 59.7988 296.95 57.0388Z" fill="black"/>
<path d="M297.02 85.2589C297.01 82.4889 299.25 80.2489 302.01 80.2389C304.77 80.2389 307.01 82.4689 307.02 85.2289C307.03 87.9889 304.79 90.2389 302.03 90.2389H302.02C299.26 90.2389 297.03 88.0089 297.02 85.2589Z" fill="black"/>
<path d="M297.17 87.8189C296.48 86.1689 296.73 84.3689 297.69 83.0089C298.83 81.1189 301.14 80.1489 303.36 80.7889C306.01 81.5589 307.54 84.3289 306.77 86.9889C306.65 87.3989 306.49 87.8489 306.12 88.4489C305.74 89.0189 305.11 89.8789 303.71 90.4889C303.08 90.7589 302.43 90.8789 301.78 90.8789C299.83 90.8789 297.97 89.7289 297.17 87.8189Z" fill="black"/>
<path d="M300.46 90.8889C300.33 90.8689 300.22 90.8589 300.16 90.8389C297.57 90.6589 295.52 88.4989 295.52 85.8589C295.52 83.0989 297.76 80.8589 300.52 80.8589C301.3 80.8589 301.76 80.9789 301.86 80.9889C304.59 81.3789 306.48 83.8989 306.11 86.6289C305.76 89.1289 303.62 90.9389 301.16 90.9389C300.93 90.9389 300.7 90.9189 300.46 90.8889Z" fill="black"/>
<path d="M283.18 85.8589C283.18 83.0989 285.41 80.8589 288.18 80.8589C290.94 80.8589 293.18 83.0989 293.18 85.8589C293.18 88.6189 290.94 90.8589 288.18 90.8589C285.41 90.8589 283.18 88.6189 283.18 85.8589Z" fill="black"/>
<path d="M284.32 89.6189C282.21 87.8389 281.95 84.6789 283.74 82.5789C285.53 80.4689 288.68 80.2089 290.79 81.9989C292.89 83.7789 293.15 86.9389 291.37 89.0389C290.38 90.2089 288.97 90.8089 287.55 90.8089C286.41 90.8089 285.26 90.4189 284.32 89.6189Z" fill="black"/>
<path d="M282.45 85.5389C282.45 85.3089 282.46 85.2089 282.46 85.1789C282.5 82.4389 284.72 80.2389 287.46 80.2389C290.22 80.2389 292.46 82.4789 292.46 85.2389C292.46 85.4589 292.45 85.5789 292.45 85.6089C292.41 88.3389 290.19 90.5389 287.45 90.5389C284.69 90.5389 282.45 88.2989 282.45 85.5389Z" fill="black"/>
<path d="M282.46 59.9489C282.46 57.1789 284.69 54.9489 287.45 54.9489C290.22 54.9489 292.46 57.1789 292.46 59.9389C292.46 62.7089 290.22 64.9388 287.46 64.9488C284.69 64.9488 282.46 62.7089 282.46 59.9489Z" fill="black"/>
<path d="M287.41 64.3388C284.65 64.3088 282.43 62.0488 282.46 59.2888V58.6888C282.49 55.9288 284.76 53.7088 287.52 53.7388C290.28 53.7588 292.49 56.0188 292.47 58.7888V59.3888C292.44 62.1288 290.2 64.3388 287.46 64.3388H287.41Z" fill="black"/>
<path d="M279.86 58.7489C279.85 55.9889 282.09 53.7389 284.85 53.7389C287.61 53.7389 289.85 55.9689 289.86 58.7289C289.86 61.4989 287.63 63.7389 284.86 63.7389H284.85C282.1 63.7389 279.86 61.5089 279.86 58.7489Z" fill="black"/>
<path d="M279.98 60.7688C279.91 60.3888 279.87 59.9888 279.85 59.5488C279.72 56.7888 281.86 54.4588 284.62 54.3288C287.37 54.2088 289.69 56.3288 289.83 59.0688C290.3 61.7888 288.48 64.3688 285.76 64.8388C285.47 64.8888 285.18 64.9088 284.9 64.9088C282.51 64.9088 280.4 63.1988 279.98 60.7688Z" fill="black"/>
<path d="M279.83 60.5088C279.87 59.4188 279.98 59.3088 279.97 59.2188C280.52 56.5088 283.16 54.7588 285.86 55.3088C288.55 55.8488 290.3 58.4588 289.79 61.1388C289.48 63.5988 287.37 65.5088 284.83 65.5088C282.07 65.5088 279.83 63.2688 279.83 60.5088Z" fill="black"/>
<path d="M279.84 73.3489C279.84 70.5889 282.07 68.3489 284.84 68.3489C287.6 68.3489 289.84 70.5789 289.84 73.3389C289.84 76.1089 287.61 78.3489 284.84 78.3489C282.08 78.3489 279.84 76.1189 279.84 73.3489Z" fill="black"/>
<path d="M279.85 74.2088V73.7988C279.82 71.0388 282.03 68.7788 284.79 68.7488C287.55 68.7188 289.82 70.9388 289.84 73.6988V74.0988C289.88 76.8688 287.66 79.1288 284.9 79.1588H284.85C282.11 79.1588 279.88 76.9488 279.85 74.2088Z" fill="black"/>
<path d="M279.89 75.9689L279.87 75.1089C279.81 72.3489 282 70.0689 284.76 70.0089C287.52 69.9489 289.81 72.1389 289.87 74.8989V75.7489C289.94 78.5089 287.75 80.7989 284.99 80.8589H284.88C282.17 80.8589 279.94 78.6889 279.89 75.9689Z" fill="black"/>
<path d="M284.74 83.1489C281.98 83.0789 279.8 80.7789 279.87 78.0189C279.94 75.2589 282.23 73.0789 284.99 73.1489C287.75 73.2189 289.93 75.5189 289.86 78.2789C289.79 80.9889 287.57 83.1489 284.87 83.1489H284.74Z" fill="black"/>
<path d="M284.69 84.1189C281.93 84.0389 279.76 81.7389 279.84 78.9789V78.4889C279.93 75.7289 282.23 73.5589 284.99 73.6389C287.75 73.7189 289.93 76.0189 289.85 78.7789L289.83 79.2589C289.76 81.9789 287.53 84.1189 284.84 84.1189H284.69Z" fill="black"/>
<path d="M279.84 90.4288C279.84 87.6688 282.07 85.4288 284.84 85.4288C287.6 85.4288 289.84 87.6688 289.84 90.4288C289.84 93.1888 287.6 95.4288 284.84 95.4288C282.07 95.4288 279.84 93.1888 279.84 90.4288Z" fill="black"/>
<path d="M279.86 91.5289V91.0389C279.78 88.2789 281.97 85.9889 284.73 85.9189C287.49 85.8489 289.78 88.0289 289.85 90.7889V91.2789C289.93 94.0389 287.74 96.3289 284.98 96.3989H284.86C282.15 96.3989 279.93 94.2389 279.86 91.5289Z" fill="black"/>
<path d="M284.77 98.6689C282.01 98.5989 279.82 96.2989 279.9 93.5389C279.96 90.7789 282.26 88.5989 285.02 88.6689C287.78 88.7389 289.96 91.0389 289.89 93.7989C289.82 96.5089 287.6 98.6689 284.9 98.6689H284.77Z" fill="black"/>
<path d="M284.72 100.399C281.96 100.329 279.78 98.0289 279.85 95.2689L279.87 94.4089C279.94 91.6489 282.24 89.4689 285 89.5389C287.76 89.6089 289.94 91.8989 289.87 94.6589L289.85 95.5189C289.78 98.2389 287.55 100.399 284.85 100.399H284.72Z" fill="black"/>
<path d="M284.79 101.199C282.03 101.179 279.81 98.9189 279.84 96.1489V95.7489C279.87 92.9889 282.13 90.7689 284.89 90.7989C287.65 90.8289 289.87 93.0889 289.84 95.8489V96.2489C289.81 98.9989 287.58 101.199 284.84 101.199H284.79Z" fill="black"/>
<path d="M279.84 109.049C279.84 106.279 282.08 104.049 284.84 104.049C287.6 104.049 289.84 106.279 289.84 109.049C289.84 111.809 287.6 114.049 284.84 114.049C282.08 114.049 279.84 111.809 279.84 109.049Z" fill="black"/>
<path d="M283.41 115.029C280.76 114.249 279.25 111.459 280.04 108.819C280.82 106.169 283.61 104.659 286.25 105.439C288.9 106.229 290.41 109.009 289.63 111.659C288.98 113.829 286.99 115.239 284.83 115.239C284.36 115.239 283.88 115.169 283.41 115.029Z" fill="black"/>
<path d="M281.05 113.949C280.24 112.889 280.19 112.409 280.05 112.029C279.94 111.649 279.9 111.399 279.87 111.159C279.51 108.419 281.44 105.909 284.18 105.549C286.69 105.219 289 106.809 289.65 109.179C290.28 111.089 289.73 113.269 288.09 114.619C287.16 115.389 286.03 115.769 284.91 115.769C283.47 115.769 282.04 115.149 281.05 113.949Z" fill="black"/>
<path d="M280.35 111.159C280.18 108.409 282.28 106.029 285.03 105.859C287.79 105.689 290.16 107.779 290.33 110.539C290.51 113.299 288.41 115.669 285.66 115.839C285.55 115.849 285.44 115.849 285.34 115.849C282.72 115.849 280.52 113.809 280.35 111.159Z" fill="black"/>
<path d="M287.2 115.849C284.44 115.719 282.31 113.369 282.44 110.619C282.57 107.859 284.92 105.729 287.67 105.859C290.43 105.999 292.56 108.339 292.43 111.099C292.3 113.769 290.09 115.859 287.44 115.859C287.36 115.859 287.28 115.859 287.2 115.859V115.849Z" fill="black"/>
<path d="M287.35 115.229C284.59 115.179 282.4 112.899 282.45 110.139V109.519C282.51 106.749 284.79 104.559 287.56 104.609C290.32 104.669 292.51 106.949 292.46 109.709V110.329C292.39 113.059 290.17 115.229 287.45 115.229H287.35Z" fill="black"/>
<path d="M282.46 87.8989C282.46 85.1389 284.7 82.8989 287.46 82.8989C290.23 82.8989 292.46 85.1389 292.46 87.8989C292.46 90.6589 290.22 92.8989 287.46 92.8989C284.7 92.8989 282.46 90.6589 282.46 87.8989Z" fill="black"/>
<path d="M318.48 157.079C318.48 154.319 320.72 152.079 323.48 152.079C326.24 152.079 328.48 154.319 328.48 157.079C328.48 159.839 326.24 162.079 323.48 162.079C320.72 162.079 318.48 159.839 318.48 157.079Z" fill="black"/>
<path d="M322.46 162.099C321.98 162.069 321.73 162.039 321.67 162.039C318.92 161.849 316.84 159.459 317.03 156.709C317.21 153.949 319.6 151.869 322.36 152.059C322.8 152.099 323.02 152.119 323.03 152.119C325.79 152.279 327.9 154.649 327.74 157.399C327.58 160.059 325.38 162.109 322.75 162.109C322.65 162.109 322.55 162.109 322.46 162.109V162.099Z" fill="black"/>
<path d="M317.89 160.979C315.7 159.299 315.29 156.159 316.98 153.969C318.66 151.779 321.8 151.379 323.99 153.059C326.18 154.749 326.59 157.889 324.9 160.069C323.91 161.349 322.43 162.019 320.94 162.019C319.87 162.019 318.8 161.679 317.89 160.979Z" fill="black"/>
<path d="M315.94 121.839C315.94 119.079 318.18 116.839 320.94 116.839C323.7 116.839 325.94 119.079 325.94 121.839C325.94 124.599 323.7 126.839 320.94 126.839C318.18 126.839 315.94 124.599 315.94 121.839Z" fill="black"/>
<path d="M324.86 121.809C324.83 119.049 327.05 116.789 329.81 116.759C332.57 116.739 334.83 118.949 334.86 121.719C334.88 124.479 332.66 126.739 329.9 126.759H329.86C327.12 126.759 324.88 124.549 324.86 121.809Z" fill="black"/>
<path d="M330.93 122.689C329.33 120.439 329.85 117.319 332.1 115.719C334.35 114.109 337.47 114.639 339.07 116.889C340.68 119.139 340.15 122.259 337.9 123.859C337.02 124.489 336.01 124.789 335.01 124.789C333.44 124.789 331.91 124.059 330.93 122.689Z" fill="black"/>
<path d="M337.83 118.199C335.07 118.119 332.9 115.819 332.97 113.059C333.05 110.299 335.35 108.129 338.11 108.199C340.87 108.279 343.05 110.579 342.97 113.339C342.89 116.049 340.67 118.199 337.97 118.199H337.83Z" fill="black"/>
<path d="M332.98 104.029C332.91 101.269 335.1 98.9789 337.86 98.9189C340.62 98.8489 342.91 101.039 342.97 103.799C343.04 106.559 340.86 108.849 338.09 108.909H337.97C335.27 108.909 333.04 106.749 332.98 104.029Z" fill="black"/>
<path d="M332.43 102.279C331.25 99.7789 332.32 96.7989 334.82 95.6189C337.32 94.4389 340.3 95.5089 341.48 98.0089C342.65 100.509 341.59 103.489 339.09 104.669C338.4 104.989 337.67 105.149 336.96 105.149C335.08 105.149 333.29 104.089 332.43 102.279Z" fill="black"/>
<path d="M329.9 100.279C327.23 99.5989 325.62 96.8689 326.3 94.1989C326.99 91.5189 329.72 89.9089 332.39 90.5989C335.07 91.2889 336.68 94.0089 335.99 96.6889C335.41 98.9389 333.38 100.439 331.15 100.439C330.74 100.439 330.32 100.389 329.9 100.279Z" fill="black"/>
<path d="M328.95 99.9988C326.36 99.8188 324.32 97.6588 324.32 95.0188C324.32 92.2588 326.55 90.0188 329.32 90.0188C330.38 90.0188 331.11 90.2288 331.6 90.3588C334.26 91.1088 335.8 93.8688 335.05 96.5288C334.43 98.7388 332.43 100.179 330.24 100.179C329.82 100.179 329.38 100.119 328.95 99.9988Z" fill="black"/>
<path d="M307.95 95.0588C307.95 92.2888 310.18 90.0488 312.95 90.0488C315.71 90.0488 317.95 92.2788 317.95 95.0388C317.96 97.7988 315.72 100.039 312.96 100.049H312.95C310.2 100.049 307.96 97.8088 307.95 95.0588Z" fill="black"/>
<path d="M305.2 99.3889C303.58 97.1589 304.07 94.0289 306.3 92.4089C308.54 90.7789 311.67 91.2789 313.29 93.5089C314.91 95.7389 314.42 98.8689 312.18 100.489C311.3 101.139 310.27 101.449 309.25 101.449C307.7 101.449 306.18 100.739 305.2 99.3889Z" fill="black"/>
<path d="M305.57 106.669C302.84 106.269 300.95 103.729 301.36 100.989C301.76 98.2588 304.3 96.3688 307.03 96.7788C309.76 97.1788 311.65 99.7188 311.25 102.449C310.88 104.939 308.75 106.719 306.31 106.719C306.07 106.719 305.82 106.719 305.57 106.669Z" fill="black"/>
<path d="M301.11 102.949C301.11 102.209 301.22 101.679 301.27 101.369C301.81 98.6589 304.44 96.8889 307.15 97.4289C309.83 97.9589 311.59 100.549 311.1 103.229C310.95 105.859 308.77 107.949 306.11 107.949C303.35 107.949 301.11 105.709 301.11 102.949Z" fill="black"/>
<path d="M306.1 135.269C303.34 135.269 301.1 133.029 301.1 130.269C301.1 127.509 303.34 125.269 306.1 125.269C308.87 125.269 311.1 127.509 311.1 130.269C311.1 133.029 308.87 135.269 306.11 135.269H306.1Z" fill="black"/>
<path d="M301.58 162.169C300.8 159.519 302.32 156.749 304.97 155.969C307.62 155.189 310.4 156.709 311.18 159.359C311.95 161.999 310.44 164.779 307.79 165.559C307.32 165.699 306.85 165.769 306.38 165.769C304.22 165.769 302.22 164.349 301.58 162.169Z" fill="black"/>
<path d="M307.3 169.699C305 168.159 304.39 165.059 305.92 162.759C307.46 160.469 310.56 159.849 312.86 161.389C315.15 162.919 315.77 166.029 314.23 168.319C313.27 169.769 311.69 170.549 310.07 170.549C309.12 170.549 308.15 170.269 307.3 169.699Z" fill="black"/>
<path d="M312.11 171.619C309.44 170.929 307.83 168.209 308.51 165.529C309.2 162.849 311.92 161.239 314.6 161.929C317.27 162.619 318.89 165.339 318.2 168.019C317.62 170.269 315.59 171.769 313.36 171.769C312.95 171.769 312.53 171.719 312.11 171.619Z" fill="black"/>
<path d="M326.47 166.759C326.47 163.999 328.71 161.759 331.47 161.759C334.23 161.759 336.47 163.989 336.47 166.749C336.47 169.509 334.24 171.749 331.48 171.759C328.71 171.759 326.47 169.519 326.47 166.759Z" fill="black"/>
<path d="M337.96 164.129C335.2 164.129 332.97 161.879 332.97 159.119C332.98 156.359 335.22 154.119 337.98 154.129C340.74 154.129 342.98 156.379 342.97 159.139C342.97 161.899 340.73 164.129 337.97 164.129H337.96Z" fill="black"/>
<path d="M338.01 134.929C335.25 134.929 333.02 132.689 333.02 129.929C333.03 127.159 335.27 124.929 338.03 124.929C340.79 124.939 343.02 127.179 343.02 129.939C343.02 132.699 340.78 134.929 338.02 134.929H338.01Z" fill="black"/>
<path d="M323.71 134.919C320.95 134.919 318.72 132.679 318.72 129.919C318.72 127.159 320.96 124.919 323.72 124.919C326.48 124.919 328.72 127.159 328.72 129.929C328.72 132.689 326.48 134.919 323.72 134.919H323.71Z" fill="black"/>
<path d="M322.21 134.969C319.54 134.269 317.94 131.539 318.64 128.869C318.98 127.729 319.23 127.519 319.44 127.169C319.65 126.879 319.85 126.649 320.12 126.389C322.12 124.479 325.28 124.549 327.19 126.549C328.89 128.329 329.02 131.039 327.61 132.959C326.68 134.309 325.14 135.139 323.48 135.139C323.06 135.139 322.64 135.079 322.21 134.969Z" fill="black"/>
<path d="M312.2 103.259C312.2 100.499 314.44 98.2588 317.2 98.2588C319.96 98.2588 322.2 100.499 322.2 103.259C322.2 106.029 319.96 108.259 317.2 108.259C314.44 108.259 312.2 106.029 312.2 103.259Z" fill="black"/>
<path d="M318.53 109.589C318.53 106.829 320.76 104.589 323.53 104.589C326.29 104.589 328.53 106.829 328.53 109.589C328.53 112.349 326.29 114.589 323.53 114.589C320.76 114.589 318.53 112.349 318.53 109.589Z" fill="black"/>
<path d="M312.2 115.909C312.2 113.149 314.44 110.909 317.2 110.909C319.96 110.909 322.2 113.149 322.2 115.909C322.2 118.669 319.96 120.909 317.2 120.909C314.44 120.909 312.2 118.669 312.2 115.909Z" fill="black"/>
<path d="M305.87 109.589C305.87 106.829 308.11 104.589 310.87 104.589C313.63 104.589 315.87 106.829 315.87 109.589C315.87 112.349 313.63 114.589 310.87 114.589C308.11 114.589 305.87 112.349 305.87 109.589Z" fill="black"/>
<path d="M310.87 114.589C309.59 114.589 308.31 114.099 307.33 113.119C305.38 111.159 305.38 107.999 307.33 106.049L313.67 99.7188C315.62 97.7688 318.79 97.7688 320.74 99.7188C322.69 101.679 322.69 104.839 320.74 106.789L314.4 113.119C313.42 114.089 312.15 114.579 310.87 114.579V114.589Z" fill="black"/>
</svg>
