<svg width="236" height="290" viewBox="0 0 236 290" fill="none" xmlns="http://www.w3.org/2000/svg">
<path d="M114.97 198.35H92.71V176.09H114.97V198.35ZM143.54 198.35H121.28V176.09H143.54V198.35ZM172.11 198.35H149.85V176.09H172.11V198.35ZM200.68 198.35H178.42V176.09H200.68V198.35ZM27.26 284.07H5V261.81H27.26V284.07ZM46.53 255.5H24.27V233.24H46.53V255.5ZM65.8 226.92H43.54V204.66H65.8V226.92ZM85.07 198.35H62.81V176.09H85.07V198.35ZM104.34 169.78H82.08V147.52H104.34V169.78ZM123.61 141.54H101.35V119.28H123.61V141.54ZM142.88 112.97H120.62V90.71H142.88V112.97ZM162.15 84.4H139.89V62.14H162.15V84.4ZM181.41 55.83H159.15V33.57H181.41V55.83ZM202.01 27.26H178.42V5H202.01V27.26ZM230.58 27.26H208.32V5H230.58V27.26ZM230.58 55.83H208.32V33.57H230.58V55.83ZM230.58 284.07H208.32V261.81H230.58V284.07ZM230.58 255.5H208.32V233.24H230.58V255.5ZM230.58 226.92H208.32V204.66H230.58V226.92ZM230.58 198.35H208.32V176.09H230.58V198.35ZM230.58 169.78H208.32V147.52H230.58V169.78ZM230.58 141.54H208.32V119.28H230.58V141.54ZM230.58 112.97H208.32V90.71H230.58V112.97ZM230.58 84.4H208.32V62.14H230.58V84.4Z" fill="#90BEFB"/>
<path d="M225.58 84.4C225.58 81.64 227.82 79.4 230.58 79.4C233.35 79.4 235.59 81.64 235.59 84.4C235.59 87.16 233.35 89.4 230.58 89.4C227.82 89.4 225.58 87.16 225.58 84.4Z" fill="black"/>
<path d="M203.33 84.4C203.33 81.64 205.56 79.4 208.32 79.4C211.09 79.4 213.33 81.64 213.33 84.4C213.33 87.16 211.09 89.4 208.32 89.4C205.56 89.4 203.33 87.16 203.33 84.4Z" fill="black"/>
<path d="M203.33 62.14C203.33 59.38 205.56 57.14 208.32 57.14C211.09 57.14 213.33 59.38 213.33 62.14C213.33 64.9 211.09 67.14 208.32 67.14C205.56 67.14 203.33 64.9 203.33 62.14Z" fill="black"/>
<path d="M225.58 62.14C225.58 59.38 227.82 57.14 230.58 57.14C233.34 57.14 235.58 59.38 235.58 62.14C235.58 64.9 233.34 67.14 230.58 67.14C227.82 67.14 225.58 64.9 225.58 62.14Z" fill="black"/>
<path d="M225.58 112.97C225.58 110.21 227.82 107.97 230.58 107.97C233.35 107.97 235.58 110.21 235.58 112.97C235.58 115.73 233.35 117.97 230.58 117.97C227.82 117.97 225.58 115.73 225.58 112.97Z" fill="black"/>
<path d="M203.32 112.97C203.32 110.21 205.56 107.97 208.32 107.97C211.09 107.97 213.33 110.21 213.33 112.97C213.33 115.73 211.09 117.97 208.32 117.97C205.56 117.97 203.32 115.73 203.32 112.97Z" fill="black"/>
<path d="M203.33 90.71C203.33 87.95 205.56 85.71 208.33 85.71C211.09 85.71 213.33 87.95 213.33 90.71C213.33 93.47 211.09 95.71 208.33 95.71C205.56 95.71 203.33 93.47 203.33 90.71Z" fill="black"/>
<path d="M225.58 90.71C225.58 87.95 227.82 85.71 230.58 85.71C233.35 85.71 235.58 87.95 235.58 90.71C235.58 93.47 233.35 95.71 230.58 95.71C227.82 95.71 225.58 93.47 225.58 90.71Z" fill="black"/>
<path d="M225.58 141.54C225.58 138.78 227.82 136.54 230.58 136.54C233.35 136.54 235.58 138.78 235.58 141.54C235.58 144.3 233.35 146.54 230.58 146.54C227.82 146.54 225.58 144.3 225.58 141.54Z" fill="black"/>
<path d="M203.33 141.54C203.33 138.78 205.56 136.54 208.33 136.54C211.09 136.54 213.33 138.78 213.33 141.54C213.33 144.3 211.09 146.54 208.33 146.54C205.56 146.54 203.33 144.3 203.33 141.54Z" fill="black"/>
<path d="M203.32 119.28C203.32 116.52 205.56 114.28 208.32 114.28C211.09 114.28 213.33 116.52 213.33 119.28C213.33 122.04 211.09 124.28 208.32 124.28C205.56 124.28 203.32 122.04 203.32 119.28Z" fill="black"/>
<path d="M225.58 119.28C225.58 116.52 227.82 114.28 230.58 114.28C233.35 114.28 235.58 116.52 235.58 119.28C235.58 122.04 233.35 124.28 230.58 124.28C227.82 124.28 225.58 122.04 225.58 119.28Z" fill="black"/>
<path d="M225.58 169.78C225.58 167.02 227.82 164.78 230.58 164.78C233.35 164.78 235.58 167.02 235.58 169.78C235.58 172.54 233.35 174.78 230.58 174.78C227.82 174.78 225.58 172.54 225.58 169.78Z" fill="black"/>
<path d="M203.33 169.78C203.33 167.02 205.56 164.78 208.33 164.78C211.09 164.78 213.33 167.02 213.33 169.78C213.33 172.54 211.09 174.78 208.33 174.78C205.56 174.78 203.33 172.54 203.33 169.78Z" fill="black"/>
<path d="M203.32 147.52C203.32 144.76 205.56 142.52 208.33 142.52C211.09 142.52 213.33 144.76 213.33 147.52C213.33 150.28 211.09 152.52 208.33 152.52C205.56 152.52 203.32 150.28 203.32 147.52Z" fill="black"/>
<path d="M225.58 147.52C225.58 144.76 227.82 142.52 230.58 142.52C233.35 142.52 235.58 144.76 235.58 147.52C235.58 150.28 233.35 152.52 230.58 152.52C227.82 152.52 225.58 150.28 225.58 147.52Z" fill="black"/>
<path d="M225.58 198.35C225.58 195.59 227.82 193.35 230.58 193.35C233.35 193.35 235.58 195.59 235.58 198.35C235.58 201.11 233.35 203.35 230.58 203.35C227.82 203.35 225.58 201.11 225.58 198.35Z" fill="black"/>
<path d="M203.33 198.35C203.33 195.59 205.56 193.35 208.32 193.35C211.09 193.35 213.33 195.59 213.33 198.35C213.33 201.11 211.09 203.35 208.32 203.35C205.56 203.35 203.33 201.11 203.33 198.35Z" fill="black"/>
<path d="M203.32 176.09C203.32 173.33 205.56 171.09 208.33 171.09C211.09 171.09 213.32 173.33 213.32 176.09C213.32 178.85 211.09 181.09 208.33 181.09C205.56 181.09 203.32 178.85 203.32 176.09Z" fill="black"/>
<path d="M225.58 176.09C225.58 173.33 227.82 171.09 230.58 171.09C233.35 171.09 235.58 173.33 235.58 176.09C235.58 178.85 233.35 181.09 230.58 181.09C227.82 181.09 225.58 178.85 225.58 176.09Z" fill="black"/>
<path d="M225.58 226.92C225.58 224.16 227.82 221.92 230.58 221.92C233.35 221.92 235.58 224.16 235.58 226.92C235.58 229.68 233.35 231.92 230.58 231.92C227.82 231.92 225.58 229.68 225.58 226.92Z" fill="black"/>
<path d="M203.33 226.92C203.33 224.16 205.56 221.92 208.33 221.92C211.09 221.92 213.33 224.16 213.33 226.92C213.33 229.68 211.09 231.92 208.33 231.92C205.56 231.92 203.33 229.68 203.33 226.92Z" fill="black"/>
<path d="M203.33 204.66C203.33 201.9 205.56 199.67 208.32 199.67C211.09 199.67 213.33 201.9 213.33 204.66C213.33 207.42 211.09 209.66 208.32 209.66C205.56 209.66 203.33 207.42 203.33 204.66Z" fill="black"/>
<path d="M225.58 204.66C225.58 201.9 227.82 199.67 230.58 199.67C233.35 199.67 235.58 201.9 235.58 204.66C235.58 207.42 233.35 209.66 230.58 209.66C227.82 209.66 225.58 207.42 225.58 204.66Z" fill="black"/>
<path d="M225.58 255.49C225.58 252.73 227.82 250.5 230.59 250.5C233.34 250.5 235.58 252.73 235.58 255.49C235.58 258.26 233.34 260.5 230.59 260.5C227.82 260.5 225.58 258.26 225.58 255.49Z" fill="black"/>
<path d="M203.32 255.49C203.32 252.73 205.56 250.5 208.33 250.5C211.09 250.5 213.33 252.73 213.33 255.49C213.33 258.26 211.09 260.5 208.33 260.5C205.56 260.5 203.32 258.26 203.32 255.49Z" fill="black"/>
<path d="M203.33 233.24C203.33 230.47 205.56 228.24 208.33 228.24C211.09 228.24 213.33 230.47 213.33 233.24C213.33 236 211.09 238.24 208.33 238.24C205.56 238.24 203.33 236 203.33 233.24Z" fill="black"/>
<path d="M225.58 233.24C225.58 230.47 227.82 228.24 230.58 228.24C233.35 228.24 235.58 230.47 235.58 233.24C235.58 236 233.35 238.24 230.58 238.24C227.82 238.24 225.58 236 225.58 233.24Z" fill="black"/>
<path d="M225.58 284.07C225.58 281.3 227.82 279.07 230.58 279.07C233.34 279.07 235.58 281.3 235.58 284.07C235.58 286.83 233.34 289.07 230.58 289.07C227.82 289.07 225.58 286.83 225.58 284.07Z" fill="black"/>
<path d="M203.33 284.07C203.33 281.3 205.56 279.07 208.33 279.07C211.09 279.07 213.32 281.3 213.32 284.07C213.32 286.83 211.09 289.07 208.33 289.07C205.56 289.07 203.33 286.83 203.33 284.07Z" fill="black"/>
<path d="M203.33 261.81C203.33 259.05 205.56 256.81 208.32 256.81C211.09 256.81 213.33 259.05 213.33 261.81C213.33 264.57 211.09 266.81 208.32 266.81C205.56 266.81 203.33 264.57 203.33 261.81Z" fill="black"/>
<path d="M225.58 261.81C225.58 259.05 227.82 256.81 230.59 256.81C233.35 256.81 235.58 259.05 235.58 261.81C235.58 264.57 233.35 266.81 230.59 266.81C227.82 266.81 225.58 264.57 225.58 261.81Z" fill="black"/>
<path d="M225.58 55.8301C225.58 53.0701 227.82 50.8301 230.58 50.8301C233.35 50.8301 235.58 53.0701 235.58 55.8301C235.58 58.5901 233.35 60.8301 230.58 60.8301C227.82 60.8301 225.58 58.5901 225.58 55.8301Z" fill="black"/>
<path d="M203.33 55.8301C203.33 53.0701 205.56 50.8301 208.32 50.8301C211.09 50.8301 213.33 53.0701 213.33 55.8301C213.33 58.5901 211.09 60.8301 208.32 60.8301C205.56 60.8301 203.33 58.5901 203.33 55.8301Z" fill="black"/>
<path d="M203.32 33.5701C203.32 30.8101 205.56 28.5701 208.32 28.5701C211.09 28.5701 213.33 30.8101 213.33 33.5701C213.33 36.3301 211.09 38.5701 208.32 38.5701C205.56 38.5701 203.32 36.3301 203.32 33.5701Z" fill="black"/>
<path d="M225.58 33.57C225.58 30.81 227.82 28.57 230.58 28.57C233.35 28.57 235.58 30.81 235.58 33.57C235.58 36.33 233.35 38.57 230.58 38.57C227.82 38.57 225.58 36.33 225.58 33.57Z" fill="black"/>
<path d="M225.58 27.26C225.58 24.5 227.82 22.26 230.58 22.26C233.35 22.26 235.58 24.5 235.58 27.26C235.58 30.02 233.35 32.26 230.58 32.26C227.82 32.26 225.58 30.02 225.58 27.26Z" fill="black"/>
<path d="M203.33 27.26C203.33 24.5 205.56 22.26 208.33 22.26C211.09 22.26 213.33 24.5 213.33 27.26C213.33 30.02 211.09 32.26 208.33 32.26C205.56 32.26 203.33 30.02 203.33 27.26Z" fill="black"/>
<path d="M203.33 5C203.33 2.24 205.56 0 208.33 0C211.09 0 213.32 2.24 213.32 5C213.32 7.76 211.09 10 208.33 10C205.56 10 203.33 7.76 203.33 5Z" fill="black"/>
<path d="M225.58 5C225.58 2.24 227.82 0 230.58 0C233.35 0 235.58 2.24 235.58 5C235.58 7.76 233.35 10 230.58 10C227.82 10 225.58 7.76 225.58 5Z" fill="black"/>
<path d="M197.01 27.26C197.01 24.5 199.25 22.26 202.01 22.26C204.77 22.26 207.01 24.5 207.01 27.26C207.01 30.02 204.77 32.26 202.01 32.26C199.25 32.26 197.01 30.02 197.01 27.26Z" fill="black"/>
<path d="M173.42 27.26C173.42 24.5 175.66 22.26 178.42 22.26C181.19 22.26 183.42 24.5 183.42 27.26C183.42 30.02 181.19 32.26 178.42 32.26C175.66 32.26 173.42 30.02 173.42 27.26Z" fill="black"/>
<path d="M173.42 5C173.42 2.24 175.66 0 178.43 0C181.19 0 183.42 2.24 183.42 5C183.42 7.76 181.19 10 178.43 10C175.66 10 173.42 7.76 173.42 5Z" fill="black"/>
<path d="M197.01 5C197.01 2.24 199.25 0 202.01 0C204.77 0 207.01 2.24 207.01 5C207.01 7.76 204.77 10 202.01 10C199.25 10 197.01 7.76 197.01 5Z" fill="black"/>
<path d="M176.41 55.8301C176.41 53.0701 178.65 50.8301 181.42 50.8301C184.18 50.8301 186.41 53.0701 186.41 55.8301C186.41 58.5901 184.18 60.8301 181.42 60.8301C178.65 60.8301 176.41 58.5901 176.41 55.8301Z" fill="black"/>
<path d="M154.15 55.8301C154.15 53.0701 156.4 50.8301 159.16 50.8301C161.92 50.8301 164.16 53.0701 164.16 55.8301C164.16 58.5901 161.92 60.8301 159.16 60.8301C156.4 60.8301 154.15 58.5901 154.15 55.8301Z" fill="black"/>
<path d="M154.16 33.5701C154.16 30.8101 156.39 28.5701 159.16 28.5701C161.92 28.5701 164.16 30.8101 164.16 33.5701C164.16 36.3301 161.92 38.5701 159.16 38.5701C156.39 38.5701 154.16 36.3301 154.16 33.5701Z" fill="black"/>
<path d="M176.41 33.5701C176.41 30.8101 178.65 28.5701 181.41 28.5701C184.18 28.5701 186.41 30.8101 186.41 33.5701C186.41 36.3301 184.18 38.5701 181.41 38.5701C178.65 38.5701 176.41 36.3301 176.41 33.5701Z" fill="black"/>
<path d="M157.15 84.4C157.15 81.64 159.38 79.4 162.15 79.4C164.91 79.4 167.15 81.64 167.15 84.4C167.15 87.16 164.91 89.4 162.15 89.4C159.38 89.4 157.15 87.16 157.15 84.4Z" fill="black"/>
<path d="M134.89 84.4C134.89 81.64 137.12 79.4 139.89 79.4C142.65 79.4 144.89 81.64 144.89 84.4C144.89 87.16 142.65 89.4 139.89 89.4C137.12 89.4 134.89 87.16 134.89 84.4Z" fill="black"/>
<path d="M134.89 62.14C134.89 59.38 137.12 57.14 139.89 57.14C142.65 57.14 144.89 59.38 144.89 62.14C144.89 64.9 142.65 67.14 139.89 67.14C137.12 67.14 134.89 64.9 134.89 62.14Z" fill="black"/>
<path d="M157.15 62.14C157.15 59.38 159.39 57.14 162.15 57.14C164.91 57.14 167.15 59.38 167.15 62.14C167.15 64.9 164.91 67.14 162.15 67.14C159.39 67.14 157.15 64.9 157.15 62.14Z" fill="black"/>
<path d="M137.88 112.97C137.88 110.21 140.12 107.97 142.88 107.97C145.64 107.97 147.88 110.21 147.88 112.97C147.88 115.73 145.64 117.97 142.88 117.97C140.12 117.97 137.88 115.73 137.88 112.97Z" fill="black"/>
<path d="M115.62 112.97C115.62 110.21 117.86 107.97 120.62 107.97C123.38 107.97 125.62 110.21 125.62 112.97C125.62 115.73 123.38 117.97 120.62 117.97C117.86 117.97 115.62 115.73 115.62 112.97Z" fill="black"/>
<path d="M115.62 90.71C115.62 87.95 117.86 85.71 120.62 85.71C123.38 85.71 125.62 87.95 125.62 90.71C125.62 93.47 123.38 95.71 120.62 95.71C117.86 95.71 115.62 93.47 115.62 90.71Z" fill="black"/>
<path d="M137.88 90.71C137.88 87.95 140.12 85.71 142.88 85.71C145.64 85.71 147.88 87.95 147.88 90.71C147.88 93.47 145.64 95.71 142.88 95.71C140.12 95.71 137.88 93.47 137.88 90.71Z" fill="black"/>
<path d="M118.61 141.54C118.61 138.78 120.85 136.54 123.61 136.54C126.37 136.54 128.61 138.78 128.61 141.54C128.61 144.3 126.37 146.54 123.61 146.54C120.85 146.54 118.61 144.3 118.61 141.54Z" fill="black"/>
<path d="M96.3501 141.54C96.3501 138.78 98.5901 136.54 101.35 136.54C104.11 136.54 106.35 138.78 106.35 141.54C106.35 144.3 104.11 146.54 101.35 146.54C98.5901 146.54 96.3501 144.3 96.3501 141.54Z" fill="black"/>
<path d="M96.3501 119.28C96.3501 116.52 98.5901 114.28 101.35 114.28C104.11 114.28 106.35 116.52 106.35 119.28C106.35 122.04 104.11 124.28 101.35 124.28C98.5901 124.28 96.3501 122.04 96.3501 119.28Z" fill="black"/>
<path d="M118.61 119.28C118.61 116.52 120.85 114.28 123.61 114.28C126.37 114.28 128.61 116.52 128.61 119.28C128.61 122.04 126.37 124.28 123.61 124.28C120.85 124.28 118.61 122.04 118.61 119.28Z" fill="black"/>
<path d="M99.3398 169.78C99.3398 167.02 101.58 164.78 104.34 164.78C107.1 164.78 109.34 167.02 109.34 169.78C109.34 172.54 107.1 174.78 104.34 174.78C101.58 174.78 99.3398 172.54 99.3398 169.78Z" fill="black"/>
<path d="M77.0801 169.78C77.0801 167.02 79.3201 164.78 82.0801 164.78C84.8401 164.78 87.0801 167.02 87.0801 169.78C87.0801 172.54 84.8401 174.78 82.0801 174.78C79.3201 174.78 77.0801 172.54 77.0801 169.78Z" fill="black"/>
<path d="M77.0801 147.52C77.0801 144.76 79.3201 142.52 82.0801 142.52C84.8401 142.52 87.0801 144.76 87.0801 147.52C87.0801 150.28 84.8401 152.52 82.0801 152.52C79.3201 152.52 77.0801 150.28 77.0801 147.52Z" fill="black"/>
<path d="M99.3398 147.52C99.3398 144.76 101.58 142.52 104.34 142.52C107.1 142.52 109.34 144.76 109.34 147.52C109.34 150.28 107.1 152.52 104.34 152.52C101.58 152.52 99.3398 150.28 99.3398 147.52Z" fill="black"/>
<path d="M80.0698 198.35C80.0698 195.59 82.3098 193.35 85.0698 193.35C87.8298 193.35 90.0698 195.59 90.0698 198.35C90.0698 201.11 87.8298 203.35 85.0698 203.35C82.3098 203.35 80.0698 201.11 80.0698 198.35Z" fill="black"/>
<path d="M57.8101 198.35C57.8101 195.59 60.0501 193.35 62.8101 193.35C65.5701 193.35 67.8101 195.59 67.8101 198.35C67.8101 201.11 65.5701 203.35 62.8101 203.35C60.0501 203.35 57.8101 201.11 57.8101 198.35Z" fill="black"/>
<path d="M57.8101 176.09C57.8101 173.33 60.0501 171.09 62.8101 171.09C65.5701 171.09 67.8101 173.33 67.8101 176.09C67.8101 178.85 65.5701 181.09 62.8101 181.09C60.0501 181.09 57.8101 178.85 57.8101 176.09Z" fill="black"/>
<path d="M80.0698 176.09C80.0698 173.33 82.3098 171.09 85.0698 171.09C87.8298 171.09 90.0698 173.33 90.0698 176.09C90.0698 178.85 87.8298 181.09 85.0698 181.09C82.3098 181.09 80.0698 178.85 80.0698 176.09Z" fill="black"/>
<path d="M60.7998 226.92C60.7998 224.16 63.0398 221.92 65.7998 221.92C68.5598 221.92 70.7998 224.16 70.7998 226.92C70.7998 229.68 68.5598 231.92 65.7998 231.92C63.0398 231.92 60.7998 229.68 60.7998 226.92Z" fill="black"/>
<path d="M38.54 226.92C38.54 224.16 40.78 221.92 43.54 221.92C46.3 221.92 48.54 224.16 48.54 226.92C48.54 229.68 46.3 231.92 43.54 231.92C40.78 231.92 38.54 229.68 38.54 226.92Z" fill="black"/>
<path d="M38.54 204.66C38.54 201.9 40.78 199.67 43.54 199.67C46.3 199.67 48.54 201.9 48.54 204.66C48.54 207.42 46.3 209.66 43.54 209.66C40.78 209.66 38.54 207.42 38.54 204.66Z" fill="black"/>
<path d="M60.7998 204.66C60.7998 201.9 63.0398 199.67 65.7998 199.67C68.5598 199.67 70.7998 201.9 70.7998 204.66C70.7998 207.42 68.5598 209.66 65.7998 209.66C63.0398 209.66 60.7998 207.42 60.7998 204.66Z" fill="black"/>
<path d="M41.5298 255.49C41.5298 252.73 43.7698 250.5 46.5298 250.5C49.2898 250.5 51.5298 252.73 51.5298 255.49C51.5298 258.26 49.2898 260.5 46.5298 260.5C43.7698 260.5 41.5298 258.26 41.5298 255.49Z" fill="black"/>
<path d="M19.27 255.49C19.27 252.73 21.51 250.5 24.27 250.5C27.03 250.5 29.27 252.73 29.27 255.49C29.27 258.26 27.03 260.5 24.27 260.5C21.51 260.5 19.27 258.26 19.27 255.49Z" fill="black"/>
<path d="M19.27 233.24C19.27 230.47 21.51 228.24 24.27 228.24C27.03 228.24 29.27 230.47 29.27 233.24C29.27 236 27.03 238.24 24.27 238.24C21.51 238.24 19.27 236 19.27 233.24Z" fill="black"/>
<path d="M41.5298 233.24C41.5298 230.47 43.7698 228.24 46.5298 228.24C49.2898 228.24 51.5298 230.47 51.5298 233.24C51.5298 236 49.2898 238.24 46.5298 238.24C43.7698 238.24 41.5298 236 41.5298 233.24Z" fill="black"/>
<path d="M22.26 284.07C22.26 281.3 24.5 279.07 27.26 279.07C30.02 279.07 32.26 281.3 32.26 284.07C32.26 286.83 30.02 289.07 27.26 289.07C24.5 289.07 22.26 286.83 22.26 284.07Z" fill="black"/>
<path d="M0 284.07C0 281.3 2.24 279.07 5 279.07C7.76 279.07 10 281.3 10 284.07C10 286.83 7.76 289.07 5 289.07C2.24 289.07 0 286.83 0 284.07Z" fill="black"/>
<path d="M0 261.81C0 259.05 2.24 256.81 5 256.81C7.76 256.81 10 259.05 10 261.81C10 264.57 7.76 266.81 5 266.81C2.24 266.81 0 264.57 0 261.81Z" fill="black"/>
<path d="M22.26 261.81C22.26 259.05 24.5 256.81 27.26 256.81C30.02 256.81 32.26 259.05 32.26 261.81C32.26 264.57 30.02 266.81 27.26 266.81C24.5 266.81 22.26 264.57 22.26 261.81Z" fill="black"/>
<path d="M195.68 198.35C195.68 195.59 197.92 193.35 200.68 193.35C203.45 193.35 205.68 195.59 205.68 198.35C205.68 201.11 203.45 203.35 200.68 203.35C197.92 203.35 195.68 201.11 195.68 198.35Z" fill="black"/>
<path d="M173.43 198.35C173.43 195.59 175.66 193.35 178.43 193.35C181.19 193.35 183.42 195.59 183.42 198.35C183.42 201.11 181.19 203.35 178.43 203.35C175.66 203.35 173.43 201.11 173.43 198.35Z" fill="black"/>
<path d="M173.42 176.09C173.42 173.33 175.66 171.09 178.42 171.09C181.19 171.09 183.42 173.33 183.42 176.09C183.42 178.85 181.19 181.09 178.42 181.09C175.66 181.09 173.42 178.85 173.42 176.09Z" fill="black"/>
<path d="M195.68 176.09C195.68 173.33 197.92 171.09 200.68 171.09C203.45 171.09 205.68 173.33 205.68 176.09C205.68 178.85 203.45 181.09 200.68 181.09C197.92 181.09 195.68 178.85 195.68 176.09Z" fill="black"/>
<path d="M167.11 198.35C167.11 195.59 169.35 193.35 172.11 193.35C174.87 193.35 177.11 195.59 177.11 198.35C177.11 201.11 174.87 203.35 172.11 203.35C169.35 203.35 167.11 201.11 167.11 198.35Z" fill="black"/>
<path d="M144.85 198.35C144.85 195.59 147.09 193.35 149.85 193.35C152.61 193.35 154.85 195.59 154.85 198.35C154.85 201.11 152.61 203.35 149.85 203.35C147.09 203.35 144.85 201.11 144.85 198.35Z" fill="black"/>
<path d="M144.85 176.09C144.85 173.33 147.09 171.09 149.85 171.09C152.61 171.09 154.85 173.33 154.85 176.09C154.85 178.85 152.61 181.09 149.85 181.09C147.09 181.09 144.85 178.85 144.85 176.09Z" fill="black"/>
<path d="M167.11 176.09C167.11 173.33 169.35 171.09 172.11 171.09C174.87 171.09 177.11 173.33 177.11 176.09C177.11 178.85 174.87 181.09 172.11 181.09C169.35 181.09 167.11 178.85 167.11 176.09Z" fill="black"/>
<path d="M138.54 198.35C138.54 195.59 140.78 193.35 143.54 193.35C146.3 193.35 148.54 195.59 148.54 198.35C148.54 201.11 146.3 203.35 143.54 203.35C140.78 203.35 138.54 201.11 138.54 198.35Z" fill="black"/>
<path d="M116.28 198.35C116.28 195.59 118.52 193.35 121.28 193.35C124.04 193.35 126.28 195.59 126.28 198.35C126.28 201.11 124.04 203.35 121.28 203.35C118.52 203.35 116.28 201.11 116.28 198.35Z" fill="black"/>
<path d="M116.28 176.09C116.28 173.33 118.52 171.09 121.28 171.09C124.04 171.09 126.28 173.33 126.28 176.09C126.28 178.85 124.04 181.09 121.28 181.09C118.52 181.09 116.28 178.85 116.28 176.09Z" fill="black"/>
<path d="M138.54 176.09C138.54 173.33 140.78 171.09 143.54 171.09C146.3 171.09 148.54 173.33 148.54 176.09C148.54 178.85 146.3 181.09 143.54 181.09C140.78 181.09 138.54 178.85 138.54 176.09Z" fill="black"/>
<path d="M109.97 198.35C109.97 195.59 112.21 193.35 114.97 193.35C117.73 193.35 119.97 195.59 119.97 198.35C119.97 201.11 117.73 203.35 114.97 203.35C112.21 203.35 109.97 201.11 109.97 198.35Z" fill="black"/>
<path d="M87.71 198.35C87.71 195.59 89.95 193.35 92.71 193.35C95.47 193.35 97.71 195.59 97.71 198.35C97.71 201.11 95.47 203.35 92.71 203.35C89.95 203.35 87.71 201.11 87.71 198.35Z" fill="black"/>
<path d="M87.71 176.09C87.71 173.33 89.95 171.09 92.71 171.09C95.47 171.09 97.71 173.33 97.71 176.09C97.71 178.85 95.47 181.09 92.71 181.09C89.95 181.09 87.71 178.85 87.71 176.09Z" fill="black"/>
<path d="M109.97 176.09C109.97 173.33 112.21 171.09 114.97 171.09C117.73 171.09 119.97 173.33 119.97 176.09C119.97 178.85 117.73 181.09 114.97 181.09C112.21 181.09 109.97 178.85 109.97 176.09Z" fill="black"/>
</svg>
