<svg width="342" height="288" viewBox="0 0 342 288" fill="none" xmlns="http://www.w3.org/2000/svg">
<path d="M180.245 255.96L179.645 260.86C179.495 262.13 179.415 263.52 179.115 264.74L176.735 274.25C176.245 276.2 175.725 278.04 174.865 279.98C174.135 281.61 172.335 283.91 170.875 284.69C168.145 286.16 166.205 283.78 165.295 281.79C162.155 274.99 160.285 269.03 159.735 261.55L159.495 258.28L159.205 253.42C159.155 252.55 158.605 251.49 158.215 250.49C157.145 251.9 157.115 253.27 156.965 254.8L156.505 259.58C156.075 264.09 154.925 266.12 154.715 269.64C154.595 271.71 154.035 273.45 153.295 275.4C152.085 278.56 151.425 279.62 149.565 282.52C148.525 284.13 146.825 285.73 144.655 284.82C143.705 284.43 141.705 280.88 141.125 279.61C139.915 276.99 138.805 274.39 138.535 271.45C138.085 266.3 136.995 268.15 136.745 264L136.535 260.63L135.225 250.69L134.975 247.88L134.725 245.1C134.375 241.35 135.405 239.58 133.285 238.18C131.975 237.31 131.075 236.1 130.305 234.76C128.595 231.79 128.085 229.85 127.565 226.43L126.965 222.4C126.355 218.28 126.465 216.37 125.905 212.38L125.325 208.24C125.175 207.21 125.045 206.02 125.025 204.95L124.855 197.24C124.825 195.92 124.575 194.56 124.875 193.35C125.295 191.64 123.935 191.01 123.035 189.97C121.625 188.33 120.445 186.38 119.455 184.46C117.745 181.18 116.905 177.92 116.495 174.28C116.335 172.78 115.925 171.23 115.625 169.73L114.795 165.56C114.415 163.68 114.085 161.76 113.905 159.83L113.655 157.06L113.355 153.47L113.115 150.65C112.965 148.91 113.015 147 113.075 145.2C114.125 144.23 115.615 143.32 116.295 142.13L118.035 139.08C118.755 137.82 119.105 136.26 119.665 134.87C120.935 131.68 121.715 128.52 122.065 125.1L122.795 118.26C123.065 115.69 123.595 108.14 123.535 105.83C123.385 99.2501 125.215 97.7201 122.645 94.3101L120.215 91.1001C119.625 90.3301 119.175 89.3701 118.705 88.4901C117.515 86.3101 116.955 84.1901 116.495 81.7601L115.405 75.9701L114.325 71.5701C113.455 68.0101 113.065 64.4001 112.785 60.6901L112.515 57.0901L112.265 54.0401L111.945 50.6401C111.675 47.9001 114.845 49.9801 116.445 45.5201L118.725 39.2501C119.475 37.1801 120.465 35.0401 120.855 32.8701L122.065 25.7301L122.425 22.1901L122.475 21.5001C122.475 21.4001 122.695 21.3701 122.745 21.4501C122.815 21.5901 122.965 21.9901 122.985 22.1801L124.625 33.3901C124.875 35.1701 125.735 36.8201 125.905 38.6801C126.045 40.1201 126.505 41.5001 126.865 42.8801C127.235 44.2801 127.725 45.3501 128.675 46.3901C129.405 47.1801 130.145 48.1701 131.025 48.7201C131.815 49.2101 132.585 49.6301 132.385 50.7001C132.025 52.6501 132.235 54.5201 132.325 56.5201L132.485 60.0801L132.735 63.4701C133.235 70.3901 134.715 75.4101 136.545 82.0101C137.045 83.7901 137.675 85.4301 138.025 87.2401C139.025 92.5801 143.725 94.4801 143.745 96.6401L143.825 106.09C143.835 106.9 143.985 108.01 144.105 108.84L144.565 112.19L145.695 119.65C146.065 122.11 146.665 124.43 147.325 126.86L148.795 132.29C149.265 134.02 149.555 135.54 150.365 137.14C151.625 139.66 152.975 141.87 155.005 143.98C155.465 144.46 156.765 145.16 156.765 145.95V152.92C156.755 153.67 156.745 154.64 156.675 155.33L156.095 161.35L155.205 167.84L154.195 175.38C153.595 179.84 150.985 183.77 149.085 187.8C148.485 189.07 148.095 189.85 146.435 190.03C145.875 190.09 144.855 190.58 144.595 191.06C144.275 191.66 144.455 192.71 144.475 193.38L144.695 199.85L144.975 203.43C145.205 206.39 145.625 209.21 146.255 212.14L147.585 218.35L149.455 227C150.225 230.63 152.385 233.65 154.375 236.66C154.955 237.54 155.465 238.15 156.315 238.61C157.845 239.41 159.045 239.08 160.005 237.79C163.785 232.7 165.395 228.73 166.035 222.29C166.195 220.69 166.585 219.27 167.015 217.72C168.225 213.28 167.835 210.71 169.105 206.66C170.505 208.61 169.815 210.47 170.125 212.44L171.095 218.61C171.535 221.33 171.925 223.94 172.925 226.47L174.795 231.23C175.785 233.76 176.075 235.67 178.385 237.65L180.835 239.76C180.935 246.48 181.055 249.19 180.225 255.94" fill="#90BEFB"/>
<path d="M239.726 224.7L239.546 230.96L239.336 234.04L238.656 240.44C238.476 242.2 238.286 243.79 237.856 245.51C236.766 249.89 236.466 252.56 235.346 256.82C234.476 260.16 233.276 263.36 230.346 265.5C229.806 265.89 228.726 265.88 228.096 265.53C226.556 264.69 225.706 263.25 225.006 261.67L223.586 258.45L222.126 254.59C221.536 253.02 221.386 251.25 220.956 249.61C220.226 246.8 219.796 244.17 219.936 241.21C219.986 240.23 219.396 228.42 218.136 229.61C216.616 231.03 217.066 233.12 216.816 235.1L215.916 242.49L215.756 245.1C215.656 246.86 214.946 248.53 214.616 250.25C213.776 254.66 212.266 263.6 207.766 265.64C203.796 265.66 204.026 264.24 202.976 262.34C201.986 260.56 201.396 258.76 200.676 256.85C199.276 253.13 198.216 249.48 197.876 245.49L197.426 240.11L197.156 236.79C196.986 234.7 196.626 232.8 196.656 230.69C196.676 229.75 196.516 228.81 196.476 227.9C196.356 225.29 196.386 222.57 196.466 219.96C197.646 218.92 200.936 215.59 201.396 214.36L203.106 209.73C203.576 208.46 203.526 206.81 203.846 205.47C204.386 203.24 204.766 201.07 205.186 198.82L205.886 195.11L206.576 189.96L207.076 186.3L207.316 179.31L207.556 172.84C207.946 171.88 209.536 171.1 210.126 170.25L211.976 167.62C213.756 165.08 213.966 162.14 214.786 159.26L215.996 154.96C216.846 151.97 216.866 147.29 218.356 147.47C218.946 148.48 219.096 149.53 219.156 150.63L219.286 153.16C219.386 155.2 219.946 156.94 220.596 158.83L221.796 162.35C222.216 163.56 222.746 164.67 223.276 165.84C224.186 167.83 225.716 171.71 228.016 172.26C229.266 172.95 228.756 178.89 228.916 181.66L229.196 186.38L229.466 191.08C229.546 192.34 229.606 193.67 229.776 194.92L230.356 199.04C230.776 202.01 231.336 204.98 232.396 207.75L234.536 213.34C234.976 214.48 235.376 215.52 235.976 216.61C237.656 219.6 239.606 217.86 239.676 221.86L239.736 224.68L239.726 224.7Z" fill="#90BEFB"/>
<path d="M285.085 236.88C279.385 242.22 280.895 240.74 278.655 247.57L277.505 251.09C276.815 253.21 276.255 255.3 275.885 257.58L275.135 262.19C275.115 262.39 274.745 262.8 274.625 262.89C274.475 263.03 274.095 262.47 274.075 262.27C273.105 255.14 272.055 252.21 269.965 245.68C268.845 242.17 267.405 238.85 263.755 237.35C263.745 234.83 263.795 232.6 263.645 230.26L263.375 226.02L263.135 222.4L262.855 217.41C262.535 211.67 261.675 207.52 259.935 202.11C259.365 200.34 258.745 198.79 258.415 196.92C258.025 194.74 256.655 192.44 254.715 191.35C253.085 190.45 252.405 189.18 252.835 187.41L252.515 181.58L252.295 175.41L251.535 168.92C251.185 165.88 250.765 162.72 249.845 159.81L248.375 155.19L246.295 149.04C244.595 144.06 241.435 143.89 241.385 142.11L241.185 135.01L240.905 129.74C240.685 125.49 240.065 121.41 239.355 117.15C238.855 114.22 236.745 106.08 235.835 103.03C235.015 100.26 232.325 95.4199 229.135 95.6399C225.125 95.8999 222.625 103.69 221.475 107.02L219.925 111.48C219.185 113.64 219.265 118.34 218.435 120.51C218.365 120.71 217.785 120.07 217.755 119.86C217.325 117.39 216.575 114.66 215.855 112.19C214.655 108.04 213.735 101.95 211.235 98.7499C210.215 97.4299 209.025 96.3899 207.795 95.1699C207.785 93.0099 207.665 90.8399 207.865 88.6399L208.115 85.8299L208.415 81.1299C208.465 80.3399 208.575 79.4499 208.675 78.6599C209.415 72.8699 208.995 70.4299 210.485 64.4199L211.805 59.0899C212.195 57.4799 213.145 55.9699 213.685 54.3799C214.925 50.7999 213.925 51.5699 218.355 48.7899C218.675 48.3999 219.105 47.3299 219.105 46.8299L219.195 39.6199L219.395 37.1199C219.515 35.5399 219.785 34.1499 219.835 32.5899L220.045 25.7799L220.285 22.3999C220.385 20.8999 221.175 19.3499 221.425 17.8799C221.715 16.1499 222.035 14.5899 222.635 12.9599L225.325 5.55993C225.865 4.06993 227.755 1.75993 229.575 2.21993C232.485 2.95993 234.105 6.23993 234.855 8.89993C235.445 10.9699 235.925 12.7199 236.235 14.7899L236.665 17.7099L238.445 24.9299L238.715 27.1899L239.285 31.8599C239.415 32.9099 239.505 34.0899 239.565 35.1499L239.855 40.1299L239.955 46.4599C239.995 48.5499 241.565 49.5799 242.825 50.8199C245.155 53.1199 245.035 53.1699 245.795 55.6499L247.535 61.4099C247.865 62.5299 248.265 63.6599 248.485 64.7899L249.535 70.0799L250.885 77.6399C251.235 79.5999 250.945 81.7799 251.105 83.7899L251.435 88.1999L251.605 94.0699C251.745 98.4599 256.125 97.2599 257.275 102.24C257.855 104.68 258.405 106.93 259.185 109.29C259.665 110.79 260.015 112.19 260.255 113.77C260.695 116.57 261.575 119.28 261.755 122.12L261.985 125.74L262.275 130.98L262.425 138.46C262.445 139.51 262.705 140.79 262.605 141.73C262.435 143.46 263.125 143.84 264.305 144.68C265.195 145.3 266.345 146.38 267.225 147.17C268.255 149.62 268.855 152.06 269.555 154.59C269.975 156.07 270.815 157.51 271.105 159.04C271.305 160.04 271.235 161.29 271.555 162.24C273.035 166.51 272.805 169.29 273.215 173.94C273.525 177.45 273.275 177.87 273.635 181.15L273.895 183.66C274.345 187.81 272.985 190.51 275.435 191.6C278.785 193.08 279.605 196.67 280.275 199.84C280.575 201.24 281.175 202.64 281.615 204.02C282.135 205.7 282.415 207.34 282.785 209C283.435 211.84 283.895 214.5 284.075 217.42L284.285 220.5L284.585 225.19L284.785 228.52L284.965 231.59C285.065 233.32 285.065 235.02 285.075 236.88" fill="#90BEFB"/>
<path d="M341.575 174.21C341.035 176.45 341.365 178.89 341.205 181.33L340.925 185.28L340.375 190.53L340.145 193.63L339.205 200.59C338.625 204.85 337.645 208.58 335.725 212.4L334.065 215.72C333.635 216.56 333.055 217.43 332.205 217.72C329.335 218.71 330.485 220.78 330.285 224.07L330.015 228.78L329.715 234.59L329.435 237.93L329.195 240.74L328.685 245.5C328.295 249.2 327.635 252 326.545 255.58C324.475 262.34 325.035 258.62 323.255 263.15C322.685 264.59 320.945 266.03 319.395 265.4C317.455 264.63 316.735 262.52 315.725 260.96C314.105 258.49 313.115 256.02 312.905 252.98C312.655 249.15 311.325 246.71 310.925 242.64L310.565 239.05L310.345 236.8C310.215 235.46 310.075 234.21 309.845 232.88L309.195 229.08H307.995C307.645 230.47 307.485 231.81 307.395 233.23L307.165 236.57L306.515 243.87C306.185 247.54 305.405 251.01 304.105 254.46C303.675 255.6 303.425 256.91 302.845 257.95C300.955 261.39 301.435 263.28 298.735 264.9C295.975 266.57 294.695 263.99 292.905 262.78C291.105 258.89 290.315 254.8 289.465 250.63C288.995 248.31 288.155 246.12 287.815 243.73C287.345 240.43 287.015 237.16 286.695 233.79L286.265 229.25C286.105 227.59 286.125 225.82 286.235 224.11C286.435 221.07 285.505 221.15 286.175 219.86C286.455 219.33 289.765 218.42 290.955 214.56C292.385 209.94 294.055 208.03 294.665 204.65L296.735 193.27C297.105 193.73 297.315 194.23 297.465 194.82L299.005 200.8C299.645 203.32 300.255 205.64 300.705 208.24C301.015 210.1 302.025 211.84 302.735 213.58C303.705 215.91 306.535 219.51 308.855 219.32C310.625 219.18 312.315 217.91 313.025 216.33L316.585 208.53C317.535 206.45 317.565 204 317.895 201.77L318.405 198.35L318.995 193.46L319.825 184.62L320.425 179.2L320.745 174.76C320.805 173.96 319.935 172.15 320.985 171.71C322.585 171.05 323.405 170.21 324.205 168.71C324.865 167.47 325.675 166.26 326.125 164.89C326.655 163.26 327.525 161.86 328.145 160.28C329.855 156.01 329.735 149.46 330.895 144.57C332.005 146.31 331.575 147.89 331.935 149.57L333.165 155.12C333.605 157.16 333.315 159.21 334.155 161.12C335.535 164.2 335.625 166.32 337.625 168.23C339.755 170.24 338.305 170.31 341.575 172.57V174.23V174.21Z" fill="#90BEFB"/>
<path d="M339.445 96.0401L337.265 98.7201C336.615 99.5201 336.125 100.62 335.745 101.59L333.685 106.7C333.375 107.49 333.325 112.1 333.005 113.27L331.085 120.39C330.165 119.15 330.395 117.94 330.185 116.62C328.715 107.16 328.075 104.09 322.755 95.8701C320.995 95.6001 320.265 94.1601 320.575 92.5001C320.885 90.8401 320.745 89.2401 320.625 87.5301L320.345 83.9501C320.175 81.6601 320.245 79.5801 319.655 77.3701C318.715 73.8901 319.065 69.8901 318.105 64.5301C317.505 61.2001 316.975 57.9801 315.425 54.8801C314.755 53.5601 313.945 52.3301 313.405 50.8801C312.545 48.6601 309.195 46.0301 306.885 48.1801C305.225 49.7301 303.295 51.6501 302.395 53.8201C300.145 59.2801 300.525 61.1201 298.605 66.1201C298.015 67.6701 298.285 69.6601 296.775 70.7901L295.465 65.5801C294.735 62.6801 294.215 59.9801 292.895 57.2501C290.705 52.6901 291.545 49.7501 286.805 47.5601C285.695 47.0401 286.405 45.3901 286.355 44.6001C286.145 41.2301 286.495 36.4101 286.955 32.9801C287.485 29.1501 287.665 25.3701 288.415 21.6401C288.805 19.7301 289.385 17.9901 289.825 16.0701L291.505 8.78007C292.115 6.16007 293.155 4.31007 295.495 2.88007C296.355 2.35007 296.925 1.98007 298.065 2.54007C299.425 3.22007 300.425 4.23007 300.955 5.76007C301.645 7.75007 303.955 12.9801 304.125 13.6201C306.155 21.3301 306.745 24.9701 307.205 32.9601L307.435 37.1701C307.485 37.9301 307.665 39.3101 308.125 39.8001C309.275 40.3501 310.155 38.8901 310.195 37.8001L310.395 30.8501L310.895 26.6001C311.065 25.1301 311.415 23.6501 311.705 22.1901L313.865 10.9501C314.465 7.78007 316.415 4.08007 319.055 2.23007C323.175 0.0500746 326.025 12.2801 326.505 13.5201L327.565 16.1901C327.895 20.4801 328.825 22.4501 329.085 26.8601L329.325 30.7801L329.595 34.1201L329.735 44.8901L330.015 46.9901C330.265 48.8101 331.635 49.0201 332.685 49.9701C334.885 51.9201 338.455 61.0401 338.805 64.5401L339.105 67.3601L339.875 73.1401L340.175 76.7501L340.715 82.8401L340.985 87.0301C341.075 88.4601 340.895 90.3001 341.155 91.5701C341.615 93.7801 341.195 94.7901 339.455 96.0801" fill="#90BEFB"/>
<path d="M66.9152 153.26L66.6052 159.57L66.3552 164.61C66.1352 168.92 64.1952 177.94 62.6852 181.97C62.0052 183.78 61.5852 185.42 61.0252 187.39C58.3052 193.07 55.3852 190.04 55.3952 195.45C55.4052 198.45 55.3852 201.28 55.2752 204.22L55.0052 211.43C54.8452 215.75 53.9752 219.85 53.0252 224.07C52.7252 225.39 52.5152 226.72 52.1352 227.97L49.8152 235.66C48.6852 239.39 44.6152 239.74 44.5952 241.7L44.5152 249.78C44.5052 251.08 44.4152 252.6 44.2252 253.89L42.8752 263.35C42.5552 265.58 42.2152 267.9 41.5552 270.03L40.2452 274.23L39.2552 277.86C38.3852 281 38.1152 282.27 35.7152 284.92C34.9352 285.79 34.1252 287.09 32.8652 287.34C27.7352 285.06 29.3452 283.63 26.9152 279.35C26.1952 278.08 25.9552 276.39 25.3552 275.05C24.8152 273.83 24.5352 272.74 24.2752 271.39L23.2752 266.14L22.5352 258.02L22.2052 254.18C22.1152 253.11 21.8252 252.04 20.9652 251.36C19.6352 252.4 19.7552 254.02 19.6052 255.58L19.3052 258.59L19.0552 261.12L18.5552 265.57C18.2652 268.07 17.8252 270.48 17.3052 272.99C16.9452 274.69 16.0952 276.36 15.5452 278.06C14.9752 279.87 13.4652 282.78 12.3952 284.79C11.4752 286.54 9.0652 288.09 7.2552 286.44C6.4052 285.67 5.5152 284.18 4.9252 283.08C3.0052 279.53 2.4952 275.69 2.0552 271.77C1.8352 269.86 1.5252 268 1.4052 266.12L1.1652 261.95L0.875197 258.62L0.625197 255.81L0.445197 248.39C0.425197 247.19 0.315197 246.22 0.455197 244.99L0.0251968 242.59C-0.224803 241.18 1.4552 240.94 1.9852 240.13C3.1652 238.3 4.2752 236.44 5.1552 234.45C6.3952 231.67 7.1652 226.32 7.4052 223.17L7.6752 219.84C7.8252 217.9 7.9452 216.13 9.1552 214.27C10.5452 218.38 9.8952 217.99 10.8452 222.23L11.8252 226.55C12.4952 229.57 13.2152 232.71 15.0752 235.21C17.4652 238.4 15.7952 237.78 19.2252 240.28C19.9852 240.83 22.1152 241.4 22.9352 240.53C25.1952 238.17 27.0552 235.37 28.1752 232.2C29.8252 227.57 29.7652 222.56 30.6752 217.74C30.9452 216.3 31.2652 214.92 31.4052 213.48L31.6452 210.95L31.9352 207.36L32.1552 204.03L32.3152 200.96L32.4452 194.03C32.4552 193.12 31.8752 192.48 31.0852 192.05C29.7452 191.35 29.0852 189.91 28.4552 188.56C25.4952 182.41 23.7752 178.08 23.2052 171.07L22.9152 167.47L21.7252 162.71L21.1752 157.49L20.8852 153.27C20.7452 151.09 20.7852 148.99 20.8052 146.75C21.1552 146.22 22.4152 145.79 22.7652 145.34C23.9352 143.84 25.1652 142.05 25.9752 140.31C29.6552 132.42 29.3152 127.12 30.3452 118.85L31.0252 113.46L31.4752 108.67L31.6252 97.47L34.3652 95.55C35.1852 94.24 35.9452 93.27 36.8052 92.07C37.3752 91.3 37.8952 90.19 38.4452 89.27C39.4052 87.67 39.5652 85.71 40.0152 83.89L41.2152 78.99C41.8952 76.25 42.6452 73.62 42.9852 70.8L43.4552 66.94L43.6852 63.31L43.9852 58.04C44.0652 56.48 44.1852 54.56 44.1352 53.21C44.0652 51.37 44.0552 51.03 45.3452 49.84C48.6952 46.78 50.5352 42.05 51.3552 37.63L52.4452 31.76L53.4252 25.92L53.6952 23.16C53.7952 22.12 53.7952 21.28 54.4452 20.29C55.0552 21.86 55.1452 23.37 55.2152 25.11L55.4652 31.21C55.5752 34.07 56.7852 36.78 57.5752 39.48C57.9752 40.86 58.5552 41.98 59.1652 43.21L61.5452 48.04C62.4352 49.83 64.4652 50.43 66.3852 50.95C66.4952 52.06 66.3152 53.1 66.2952 54.2L66.0952 62.67L64.9452 69.72C64.6652 71.38 64.5952 72.92 64.2152 74.57L62.2552 83.15C60.9052 89.11 60.6752 91.99 55.5352 96.12C53.8552 97.46 54.3552 100.04 54.4852 101.79L54.7752 105.94L55.0852 112.03L55.3152 115.14L55.4852 120.89L55.7152 123.72C56.0352 127.64 57.6552 133.54 59.2052 137.11L61.7252 142.93C62.6052 144.95 64.9852 145.91 66.9552 146.81C67.0652 148.97 67.0252 151.1 66.9152 153.22" fill="#90BEFB"/>
<path d="M110.835 47.94C110.155 48.48 108.925 48.98 108.435 49.64C105.185 53.97 106.115 52.6 104.365 58.65L102.305 65.8C101.915 67.19 101.115 68.54 101.115 70.05C101.115 71.31 101.015 72.32 100.675 73.51C100.205 72.51 99.7952 71.62 99.6552 70.75C99.0852 67.26 97.9252 64.21 96.7452 60.94L94.4552 54.6C93.8352 52.84 93.0652 51.39 91.3552 50.43C90.6952 49.08 89.3152 47.51 87.5752 47.83C85.8152 48.15 83.8252 49.85 83.2052 51.52C82.6952 52.94 82.2152 53.97 81.5652 55.25C80.5052 57.32 79.6552 59.48 78.8852 61.72C77.0952 66.85 77.7452 71.14 76.6252 76.26C75.0952 73.74 76.5952 70.84 75.0952 65.84C74.5252 63.92 74.3352 62.13 74.1052 60.11C73.8652 58.07 73.1452 56 72.6252 53.98C72.1152 51.95 69.5552 48.66 67.5752 47.89C66.9652 47.34 67.5152 45.88 67.5252 45.08L67.6552 24.15C67.6652 23.14 68.1452 21.84 68.2452 20.83L68.8152 15.25C69.0352 13.07 69.4152 10.7 70.1652 8.65L71.4452 5.2C71.9852 3.71 73.4752 0.74 74.7852 0H76.1652C78.3052 1.09 77.5652 1.66 80.0552 4.99C80.6652 5.82 81.0052 6.86 81.4152 7.81C82.3052 9.84 83.0752 11.73 83.2552 13.97C83.4252 16.13 83.9552 18.16 84.3652 20.3L86.0552 29.1C86.2952 30.39 85.9152 39.02 87.9352 39.09C89.2852 39.15 89.2052 35.67 89.2652 34.63L89.5152 29.89L90.0152 24.63C90.2952 21.68 90.7852 18.82 91.6252 16.01C91.9252 15 92.0552 13.83 92.3952 12.88L93.9052 8.81L94.9252 5.38C95.6252 2.95 97.8152 1.31 100.055 0.3C100.825 0.27 104.235 4.63 104.395 5.23L105.675 9.84C106.295 12.09 107.075 14.28 107.445 16.6C108.185 21.28 108.965 19.6 109.285 24.76C109.425 27.09 109.785 29.27 110.155 31.61C110.365 32.97 110.205 34.57 110.315 35.97L110.585 39.07L110.875 44.06C110.945 45.3 111.365 46.79 110.825 47.94" fill="#90BEFB"/>
<path d="M111.595 145.75C108.475 148.49 106.185 151.26 105.365 155.42C104.145 161.62 102.365 166.39 102.075 172.36C102.015 173.7 101.695 175.03 101.285 176.45C100.415 175.27 100.615 173.93 100.555 172.48L100.405 168.61C100.335 167.03 99.8154 165.78 99.3954 164.31C98.5954 161.52 97.8254 158.93 96.5754 156.28C96.0054 155.07 95.3754 153.66 94.9554 152.42C94.5054 151.08 94.3454 149.99 93.3654 148.92C91.5954 146.97 88.7554 144.72 86.2054 147.11C82.0954 150.97 84.2554 150.18 82.6954 153.27C80.6554 157.34 79.1254 161.5 78.3154 166.01C78.0054 167.69 77.8454 169.18 77.1854 170.85C76.5254 169.13 76.2454 167.51 76.0654 165.63C75.9054 164.1 75.4654 162.61 75.1554 161.11C74.0854 155.93 74.3954 155.9 72.6554 150.75C71.8754 148.4 69.8254 146.99 68.0954 145.39C67.5554 143.77 68.0354 141.74 67.9954 140.12C67.9754 138.93 68.0154 137.91 68.0554 136.74L68.2254 129.28L68.4954 124.83L68.7654 119.55C68.7754 119.35 70.2054 109.74 70.2254 109.68L72.0954 102.98C72.5654 101.27 73.7754 99.3799 74.9254 98.1599C77.0554 95.9399 79.6854 100.15 80.5154 101.68L82.1954 104.75C82.9254 106.08 82.8054 107.76 83.2354 109.29L84.0954 112.4C84.6254 114.3 84.8654 115.9 85.4854 117.74C86.0454 119.38 86.2554 121.39 86.4354 123.15L86.9554 128.16L87.2354 131.2C87.4454 133.56 87.0254 135.84 88.4354 138.13C89.3254 136.77 89.7554 135.24 89.8454 133.71L90.1454 129.27L90.4254 125.99C90.6054 123.83 90.7454 121.72 91.2354 119.61L92.8154 112.64C93.1454 111.15 93.8054 109.78 94.2554 108.31C94.9454 106.09 94.7254 103.61 96.3254 101.67C96.9354 100.93 100.135 97.2899 100.995 97.6699C101.975 98.1099 104.055 99.9699 104.635 101.71L105.745 105.05L107.615 110.65C108.105 112.13 108.495 113.54 108.795 115.07L109.925 120.83C110.165 122.07 110.245 123.27 110.365 124.55L110.635 127.32C110.785 128.89 110.805 130.41 110.875 132.05C110.955 134.21 111.315 136.31 111.565 138.47C111.715 139.8 111.655 141.14 111.725 142.56C111.775 143.47 112.345 145.1 111.625 145.74" fill="#90BEFB"/>
</svg>
