<svg width="83" height="85" viewBox="0 0 83 85" fill="none" xmlns="http://www.w3.org/2000/svg">
<path d="M5.00227 49.05C5.48227 49.97 8.62227 49.52 9.80227 49.51L22.2723 49.48C23.6923 49.48 25.0923 49.88 26.3823 49.11C26.6523 48.95 26.9223 48.36 26.8623 48.09C26.8023 47.85 26.3823 47.42 26.1223 47.41L23.6423 47.33C22.7023 47.3 21.6723 46.62 21.4623 45.72C21.1823 44.51 21.7423 43.4 22.3023 42.39L23.7923 39.74L25.3223 36.86L26.7423 34.14L27.9023 32.06L29.4123 29.3L30.9923 26.29L32.1023 24.28L33.7023 21.32L34.9323 18.99L36.3723 16.32C36.9023 15.34 37.3423 14.37 37.9023 13.41L39.2323 11.16C40.0123 9.83002 41.1023 8.50002 42.6623 7.98002C43.5723 7.68002 44.7923 7.42002 45.7223 7.46002C46.8423 7.51002 48.0123 7.65002 48.5723 6.47002C48.6723 6.26002 48.7723 5.72002 48.6423 5.52002C48.5223 5.34002 48.2223 5.16002 47.9823 5.02002H28.3323L28.0223 5.14002C27.5823 5.30002 27.1323 5.59002 26.9523 5.96002C26.7823 6.32002 26.8123 7.02002 27.1023 7.24002C27.6823 7.68002 28.3123 7.51002 28.9723 7.44002C30.0723 7.31002 31.4623 7.69002 32.1123 8.62002C32.5923 9.32002 32.3323 10.34 31.9723 11.02L30.8423 13.16L29.4023 15.86L27.8923 18.63L26.6623 20.93L25.1623 23.72L23.8023 26.22L22.3923 28.78C22.0323 29.43 21.7223 30.06 21.3623 30.71L20.3723 32.49L18.8523 35.39L17.6223 37.72L16.2023 40.29L14.8023 42.71C14.0223 44.06 13.5223 45.21 12.0223 46.17C8.30227 48.52 6.35227 46.57 5.11227 47.98C4.87227 48.26 4.86227 48.81 5.01227 49.1" fill="#90BEFB"/>
<path d="M77.6922 62.3699V64.7399L77.5422 65.7799C77.4022 66.7199 76.9722 67.5999 76.7622 68.4799C76.4822 69.6399 76.0922 70.5399 75.5122 71.5399C75.0722 72.2999 74.7022 73.0599 74.1422 73.7299C72.6422 75.5399 70.9422 76.9799 68.8622 78.0699C67.9122 78.5699 67.0222 78.9899 65.9422 79.1699C64.7522 79.3699 63.6022 79.6499 62.3922 79.4599C61.2022 79.2799 59.9622 79.1799 58.8522 78.6999C57.8322 78.2599 56.8422 77.7599 55.9222 77.1999L53.3422 75.6299C52.4222 75.0699 51.2422 74.7199 50.3222 75.4899C48.3222 77.1499 49.2922 76.5099 48.4622 78.7899C48.2622 79.3299 47.5222 79.5099 47.0922 79.3299C46.6022 79.1299 46.3122 78.6199 46.3422 78.0599L46.4822 75.9599C46.5422 75.1099 46.2422 74.2299 46.4422 73.3699C46.6922 72.2099 46.2022 70.0499 46.4422 67.5999C46.5522 66.4599 46.4622 65.3999 46.4422 64.2499L46.3422 58.3899C46.3322 57.7799 46.1922 57.1099 46.6522 56.5799C46.8722 56.3199 47.6222 56.2299 47.9622 56.3999C48.2522 56.5499 48.6422 57.0099 48.6922 57.3999L48.9122 59.2699C49.1822 61.4999 50.7822 65.9199 51.8922 68.1099C53.2322 70.7299 54.7022 72.9599 57.2622 74.5099C57.9922 74.9499 58.7922 75.2599 59.5922 75.5999C61.0222 76.1999 64.0922 76.3299 65.7022 75.4799C68.3422 74.0899 68.1622 73.9699 69.7222 71.8299C70.2422 71.0999 70.6422 70.4099 70.7922 69.4899C70.8922 68.8999 71.0722 68.2499 71.1322 67.6599C71.2522 66.3999 71.3722 65.1099 71.1522 63.8599L70.6622 61.0299C70.5222 60.2299 70.3622 59.5599 69.9922 58.8599L68.7522 56.5399C68.2422 55.5799 67.1322 54.1399 66.3922 53.2799C65.4222 52.1399 64.3122 51.1399 63.1822 50.1599L61.8322 48.9999L59.7522 47.3599C58.4322 46.3099 56.9822 45.4499 55.7422 44.2799L52.9422 41.6299C52.0722 40.7999 51.3822 39.8399 50.6322 38.8899C48.3522 36.0099 49.1622 36.4999 47.7822 33.9299C46.9022 32.2699 46.0522 26.9999 46.4422 25.0099L47.2922 20.6099C47.3922 20.0799 47.7222 19.5599 47.9722 19.0899C49.6622 15.8099 52.2422 13.0799 55.9222 12.0899C57.2122 11.7399 58.4522 11.4999 59.8222 11.5499C60.8222 11.5899 61.8322 11.5499 62.7822 11.8599C63.6922 12.1699 64.6822 12.3799 65.5222 12.8199C66.4522 13.3099 67.3022 13.8499 68.1622 14.4699C69.0822 15.1399 70.3022 15.8699 71.4522 15.1699C72.5522 14.4899 72.3422 12.6099 73.4322 11.7699C73.6722 11.5899 74.3922 11.5999 74.5922 11.8199C75.2822 12.5499 75.0722 13.4799 74.8522 14.3399C74.6122 15.2999 74.8222 16.3399 74.8022 17.2899C74.7722 18.1699 74.8222 18.9699 74.8322 19.8499L74.9322 28.3999L75.0822 31.0599C75.1222 31.7999 75.3222 32.6399 74.7522 33.2799C74.2922 33.7999 73.4722 33.5499 73.0522 32.9899C72.6122 32.3899 72.5922 31.5399 72.4622 30.7899L72.1322 28.9399C71.9322 27.8099 71.5922 26.8399 71.1322 25.7999C70.7922 25.0499 70.5922 24.1699 70.2022 23.4599L69.0922 21.4499C68.1422 19.7099 66.7622 18.1999 65.1222 17.0199C64.3322 16.4399 61.8222 15.1699 60.7222 15.2599C59.8722 15.3399 59.0022 15.3799 58.2222 15.6099C56.3022 16.1899 54.8922 17.6899 53.8222 19.2899C53.3122 20.0499 53.0622 20.7799 52.9122 21.6699L52.6622 23.1999C52.5622 23.8499 52.5622 24.5099 52.6422 25.1699L52.9322 27.4199C53.0422 28.2499 53.2822 29.0499 53.6622 29.7999L54.4722 31.3699L56.1322 34.0099C56.3922 34.4299 56.8622 34.8699 57.1922 35.2799C57.8422 36.0899 58.5422 36.7699 59.3022 37.4599L60.9122 38.9299L64.0622 41.4099L69.6422 46.0199C71.4622 47.5299 74.4822 50.9199 75.3422 53.1899C75.5122 53.6199 75.9722 54.1399 76.1222 54.5699C76.7422 56.4899 77.5422 59.6199 77.5522 61.6099C77.5522 61.8999 77.5922 62.1599 77.6922 62.3399" fill="#90BEFB"/>
<path d="M4.80287 49.54C4.78287 46.78 7.00287 44.52 9.77287 44.51C12.5329 44.49 14.7829 46.72 14.8029 49.48C14.8029 52.24 12.5929 54.49 9.83287 54.51H9.79287C7.05287 54.51 4.81287 52.29 4.80287 49.54Z" fill="black"/>
<path d="M17.2725 49.49C17.2725 46.73 19.4925 44.49 22.2525 44.48C25.0225 44.48 27.2625 46.71 27.2725 49.47C27.2725 52.23 25.0425 54.47 22.2825 54.48H22.2725C19.5125 54.48 17.2725 52.25 17.2725 49.49Z" fill="black"/>
<path d="M22.0829 51.67C20.6729 49.3 21.4429 46.23 23.8129 44.82C26.1829 43.4 29.2529 44.17 30.6729 46.54C32.0829 48.91 31.3129 51.98 28.9429 53.4C28.1429 53.88 27.2529 54.11 26.3829 54.11C24.6829 54.11 23.0229 53.24 22.0829 51.67Z" fill="black"/>
<path d="M22.0027 49.3199C21.3227 46.6399 22.9427 43.9199 25.6227 43.2399C28.2927 42.5599 31.0227 44.1799 31.6927 46.8499C32.3827 49.5299 30.7627 52.2499 28.0827 52.9299C27.6727 53.0399 27.2527 53.0899 26.8527 53.0899C24.6127 53.0899 22.5827 51.5799 22.0027 49.3199Z" fill="black"/>
<path d="M23.8829 51.88C22.1929 51.04 21.0629 49.28 21.1129 47.28C21.1929 44.52 23.4829 42.34 26.2429 42.41C27.6629 42.48 28.3429 42.89 28.8629 43.17C29.3729 43.47 29.7029 43.75 30.0129 44.04C32.0129 45.95 32.0829 49.11 30.1829 51.11C29.1929 52.14 27.8829 52.66 26.5629 52.66C25.6329 52.66 24.6929 52.4 23.8829 51.88Z" fill="black"/>
<path d="M23.4724 52.33C20.7124 52.24 18.5524 49.93 18.6424 47.17C18.7324 44.41 21.0424 42.24 23.8024 42.33C26.5624 42.42 28.7224 44.73 28.6324 47.49C28.5424 50.2 26.3224 52.33 23.6424 52.33H23.4724Z" fill="black"/>
<path d="M16.5824 46.8499C15.9624 44.1599 17.6324 41.4699 20.3224 40.8399C23.0124 40.2199 25.7024 41.8899 26.3224 44.5799C26.9524 47.2699 25.2724 49.9599 22.5824 50.5799C22.2024 50.6699 21.8224 50.7199 21.4524 50.7199C19.1824 50.7099 17.1224 49.1499 16.5824 46.8499Z" fill="black"/>
<path d="M19.8525 46.7399C17.4425 45.3899 16.5825 42.3499 17.9425 39.9399C19.2925 37.5299 22.3325 36.6699 24.7425 38.0199C27.1525 39.3699 28.0125 42.4199 26.6625 44.8299C25.7425 46.4599 24.0425 47.3799 22.2925 47.3799C21.4725 47.3799 20.6325 47.1799 19.8525 46.7399Z" fill="black"/>
<path d="M21.3422 44.0899C18.9322 42.7399 18.0822 39.6899 19.4322 37.2799C20.7822 34.8699 23.8322 34.0199 26.2422 35.3699C28.6522 36.7299 29.5022 39.7699 28.1522 42.1799C27.2322 43.8099 25.5322 44.7299 23.7822 44.7299C22.9522 44.7299 22.1122 44.5299 21.3422 44.0899Z" fill="black"/>
<path d="M32.5626 23.39C30.1326 22.08 29.2126 19.05 30.5226 16.62C31.8326 14.18 34.8626 13.27 37.2926 14.58C39.7326 15.88 40.6426 18.91 39.3326 21.35C38.4326 23.03 36.7026 23.98 34.9226 23.98C34.1226 23.98 33.3126 23.79 32.5626 23.39Z" fill="black"/>
<path d="M34.0022 20.7099C31.5622 19.3999 30.6622 16.3699 31.9722 13.9399C33.2822 11.5099 36.3122 10.5999 38.7422 11.9099C41.1722 13.2199 42.0822 16.2499 40.7722 18.6799C39.8722 20.3599 38.1422 21.3099 36.3622 21.3099C35.5622 21.3099 34.7522 21.1199 34.0022 20.7099Z" fill="black"/>
<path d="M35.3523 17.7C32.9723 16.29 32.1923 13.22 33.6023 10.85C35.0223 8.47001 38.0923 7.69001 40.4623 9.10001C42.8323 10.51 43.6123 13.58 42.2023 15.95C41.2723 17.53 39.6023 18.4 37.9023 18.4C37.0323 18.4 36.1523 18.17 35.3523 17.7Z" fill="black"/>
<path d="M36.6927 15.4499C34.3127 14.0499 33.5227 10.9799 34.9327 8.60994C36.3427 6.22994 39.4027 5.43994 41.7827 6.84994C44.1627 8.25994 44.9427 11.3199 43.5427 13.6999C42.6027 15.2799 40.9427 16.1499 39.2327 16.1499C38.3627 16.1499 37.4927 15.9299 36.6927 15.4499Z" fill="black"/>
<path d="M37.923 9.57C37.053 6.95 38.453 4.11 41.073 3.23C43.693 2.35 46.523 3.76 47.403 6.38C48.283 9 46.883 11.83 44.263 12.71C43.733 12.89 43.193 12.97 42.663 12.97C40.583 12.97 38.633 11.65 37.923 9.57Z" fill="black"/>
<path d="M45.5226 12.44C42.7626 12.33 40.6226 9.99998 40.7326 7.23998C40.8426 4.47998 43.1726 2.33998 45.9326 2.44998C48.6926 2.56998 50.8326 4.88998 50.7226 7.64998C50.6126 10.34 48.4026 12.45 45.7326 12.45C45.6626 12.45 45.5926 12.45 45.5226 12.44Z" fill="black"/>
<path d="M46.4524 10.9899C43.9524 9.81994 42.8724 6.83994 44.0424 4.33994C45.2124 1.83994 48.1924 0.759937 50.6924 1.92994C53.1924 3.09994 54.2724 6.06994 53.1024 8.57994C52.2524 10.3899 50.4524 11.4599 48.5724 11.4599C47.8624 11.4599 47.1424 11.3099 46.4524 10.9899Z" fill="black"/>
<path d="M44.393 8.12992C42.943 5.76992 43.683 2.68992 46.033 1.24992C48.383 -0.20008 51.463 0.539921 52.913 2.88992C54.353 5.23992 53.623 8.31992 51.273 9.76992C50.453 10.2699 49.553 10.5099 48.653 10.5099C46.973 10.5099 45.333 9.65992 44.393 8.12992Z" fill="black"/>
<path d="M45.5229 9.35998C45.5229 9.35998 45.4529 9.30998 45.3829 9.26998C43.0329 7.82998 42.2829 4.75998 43.7229 2.39998C45.1629 0.0399795 48.2429 -0.700021 50.5929 0.739979C50.6829 0.789979 50.8729 0.899979 51.1629 1.09998C53.4429 2.64998 54.0329 5.75998 52.4729 8.03998C51.5029 9.45998 49.9329 10.23 48.3429 10.23C47.3729 10.23 46.3929 9.93998 45.5229 9.35998Z" fill="black"/>
<path d="M47.1123 10C44.3523 10 42.1123 7.76 42.1123 5C42.1123 2.24 44.3523 0 47.1123 0H47.5523C50.3123 0 52.5523 2.24 52.5523 5C52.5523 7.76 50.3123 10 47.5523 10C44.3523 10 47.5523 10 47.1123 10Z" fill="black"/>
<path d="M47.1025 10C44.3425 10 42.1025 7.76 42.1025 5C42.1025 2.24 44.3425 0 47.1025 0H47.1125C49.8725 0 52.1125 2.24 52.1125 5C52.1125 7.76 49.8725 10 47.1125 10C44.3425 10 47.1125 10 47.1025 10Z" fill="black"/>
<path d="M25.2529 5C25.2529 2.24 27.4929 0 30.2529 0C33.0129 0 35.2529 2.24 35.2529 5C35.2529 7.76 33.0129 10 30.2529 10C27.4929 10 25.2529 7.76 25.2529 5Z" fill="black"/>
<path d="M30.2422 10C27.4822 10 25.2422 7.76 25.2422 5C25.2422 2.24 27.4822 0 30.2422 0C33.0122 0 35.2522 2.24 35.2522 5C35.2522 7.76 33.0122 10 30.2422 10Z" fill="black"/>
<path d="M28.3328 10C25.5728 10 23.3428 7.76 23.3428 5C23.3428 2.24 25.5728 0 28.3328 0H29.2928C32.0528 0 34.2928 2.24 34.2928 5C34.2928 7.76 32.0528 10 29.2928 10C25.5728 10 29.2928 10 28.3328 10Z" fill="black"/>
<path d="M23.3627 6.94C22.3627 4.36 23.6427 1.47 26.2127 0.460005L26.3727 0.410005C28.9427 -0.599995 31.8427 0.680005 32.8427 3.26C33.8427 5.83 32.5627 8.73 29.9927 9.73L29.8327 9.79C29.2327 10.02 28.6227 10.13 28.0227 10.13C26.0227 10.13 24.1327 8.92 23.3627 6.94Z" fill="black"/>
<path d="M24.7029 10.4099C22.2429 9.16993 21.2429 6.16993 22.4829 3.69993C23.1029 2.48993 23.8629 1.84993 24.5129 1.36993C26.7629 -0.23007 29.8829 0.28993 31.4829 2.53993C32.9529 4.59993 32.6329 7.37993 30.8529 9.06993C29.8929 10.2699 28.4429 10.9499 26.9429 10.9499C26.1929 10.9499 25.4229 10.7799 24.7029 10.4099Z" fill="black"/>
<path d="M24.1231 11.23C23.0131 10.38 22.5531 9.47996 22.2831 8.79996C22.0131 8.10996 21.9131 7.54996 21.8731 7.01996C21.6431 4.26996 23.6931 1.84996 26.4431 1.62996C28.7831 1.43996 30.8731 2.87996 31.5831 4.99996C32.3931 6.62996 32.2731 8.63996 31.1231 10.2C30.1331 11.52 28.6331 12.22 27.1031 12.22C26.0631 12.22 25.0131 11.9 24.1231 11.23Z" fill="black"/>
<path d="M24.0027 7.97993C23.6927 5.22993 25.6727 2.75993 28.4127 2.44993C31.1527 2.13993 33.6327 4.11993 33.9427 6.85993C34.2527 9.59993 32.2727 12.0799 29.5327 12.3899C29.3427 12.4099 29.1527 12.4199 28.9627 12.4199C26.4527 12.4199 24.2927 10.5299 24.0027 7.97993Z" fill="black"/>
<path d="M27.9924 11.4399C26.4224 9.16994 26.9924 6.04994 29.2624 4.48994C31.5424 2.91994 34.6524 3.48994 36.2224 5.75994C37.7924 8.02994 37.2224 11.1499 34.9424 12.7199C34.0824 13.3099 33.0924 13.5999 32.1124 13.5999C30.5224 13.5999 28.9624 12.8499 27.9924 11.4399Z" fill="black"/>
<path d="M29.6423 15.4199C27.1923 14.1299 26.2623 11.1099 27.5523 8.66993C28.8423 6.21993 31.8623 5.28993 34.3023 6.57993C36.7523 7.85993 37.6823 10.8899 36.3923 13.3299C35.5023 15.0299 33.7623 15.9999 31.9723 15.9999C31.1823 15.9999 30.3823 15.8099 29.6423 15.4199Z" fill="black"/>
<path d="M28.4926 17.5499C26.0526 16.2599 25.1226 13.2299 26.4226 10.7899C27.7126 8.34993 30.7426 7.41993 33.1826 8.71993C35.6226 10.0099 36.5526 13.0399 35.2526 15.4799C34.3626 17.1699 32.6226 18.1399 30.8326 18.1399C30.0426 18.1399 29.2426 17.9499 28.4926 17.5499Z" fill="black"/>
<path d="M21.4328 30.6C19.0028 29.29 18.0928 26.26 19.4028 23.83C20.7128 21.39 23.7428 20.49 26.1728 21.79C28.6028 23.1 29.5128 26.14 28.2028 28.57C27.3028 30.24 25.5828 31.2 23.8028 31.2C23.0028 31.2 22.1828 31 21.4328 30.6Z" fill="black"/>
<path d="M19.9728 33.1299C17.5628 31.7999 16.6828 28.7599 18.0128 26.3399C19.3428 23.9199 22.3928 23.0399 24.8028 24.3699C27.2228 25.7099 28.1028 28.7499 26.7728 31.1699C25.8628 32.8199 24.1528 33.7499 22.3828 33.7499C21.5728 33.7499 20.7428 33.5499 19.9728 33.1299Z" fill="black"/>
<path d="M18.8927 35.0299C16.4927 33.6699 15.6427 30.6199 17.0127 28.2099C18.3727 25.8099 21.4227 24.9699 23.8227 26.3299C26.2227 27.6999 27.0727 30.7499 25.7027 33.1499C24.7827 34.7699 23.0927 35.6799 21.3527 35.6799C20.5127 35.6799 19.6727 35.4699 18.8927 35.0299Z" fill="black"/>
<path d="M17.923 36.82C15.513 35.47 14.653 32.42 16.003 30.01C17.353 27.61 20.393 26.74 22.803 28.09C25.213 29.44 26.073 32.49 24.733 34.9C23.813 36.53 22.113 37.46 20.363 37.46C19.533 37.46 18.693 37.25 17.923 36.82Z" fill="black"/>
<path d="M13.8423 44.67C11.4123 43.37 10.4923 40.34 11.7923 37.9C13.0923 35.46 16.1223 34.54 18.5523 35.85C20.9923 37.15 21.9123 40.17 20.6123 42.61C19.7123 44.3 17.9823 45.26 16.1923 45.26C15.4023 45.26 14.5923 45.07 13.8423 44.67Z" fill="black"/>
<path d="M12.2826 46.9899C9.89262 45.5999 9.08262 42.5399 10.4726 40.1599C11.8626 37.7699 14.9226 36.9599 17.3126 38.3499C19.6926 39.7399 20.5026 42.7999 19.1126 45.1799C18.1926 46.7799 16.5126 47.6699 14.7926 47.6699C13.9426 47.6699 13.0726 47.4499 12.2826 46.9899Z" fill="black"/>
<path d="M7.79218 48.81C6.31218 46.48 6.99218 43.39 9.32218 41.91C11.6522 40.43 14.7422 41.11 16.2322 43.44C17.7122 45.77 17.0222 48.86 14.6922 50.35C13.8622 50.87 12.9322 51.13 12.0122 51.13C10.3622 51.13 8.74218 50.31 7.79218 48.81Z" fill="black"/>
<path d="M1.79292 51.6799C-0.277079 49.8499 -0.477079 46.6899 1.35292 44.6199C3.18292 42.5499 6.34292 42.3599 8.41292 44.1799C10.4829 46.0099 10.6729 49.1699 8.84292 51.2399C7.85292 52.3599 6.48292 52.9299 5.09292 52.9299C3.92292 52.9299 2.74292 52.5199 1.79292 51.6799Z" fill="black"/>
<path d="M0.562834 51.35C-0.707166 48.89 0.252834 45.88 2.70283 44.61C5.15283 43.34 8.17283 44.3 9.44283 46.75C10.7128 49.2 9.75283 52.22 7.30283 53.49C6.56283 53.87 5.78283 54.05 5.00283 54.05C3.19283 54.05 1.45283 53.06 0.562834 51.35Z" fill="black"/>
<path d="M9.81263 54.51C9.65263 54.51 9.49263 54.51 9.33263 54.49L4.52263 54.03C1.77263 53.77 -0.237369 51.32 0.0226308 48.57C0.282631 45.82 2.73263 43.81 5.48263 44.07L10.2926 44.53C13.0426 44.79 15.0526 47.24 14.7926 49.99C14.5426 52.58 12.3626 54.51 9.82263 54.51H9.81263Z" fill="black"/>
<path d="M72.6826 64.73C72.6826 61.97 74.9226 59.73 77.6826 59.73C80.4526 59.73 82.6826 61.97 82.6826 64.73C82.6826 67.49 80.4526 69.73 77.6826 69.73C74.9226 69.73 72.6826 67.49 72.6826 64.73Z" fill="black"/>
<path d="M76.8027 70.72C74.0727 70.32 72.1827 67.77 72.5827 65.04L72.6627 64.52C73.0727 61.79 75.6127 59.9 78.3427 60.31C81.0727 60.71 82.9627 63.26 82.5527 65.99L82.4827 66.51C82.1127 68.99 79.9727 70.78 77.5327 70.78C77.2927 70.78 77.0527 70.76 76.8027 70.72Z" fill="black"/>
<path d="M75.5622 73.33C72.8822 72.67 71.2422 69.97 71.8922 67.28C72.5522 64.6 75.2522 62.96 77.9422 63.62C80.6222 64.27 82.2622 66.98 81.6022 69.66C81.0522 71.95 79.0022 73.47 76.7522 73.47C76.3622 73.47 75.9622 73.43 75.5622 73.33Z" fill="black"/>
<path d="M72.9822 75.85C70.5922 74.46 69.7922 71.4 71.1822 69.01C72.5722 66.63 75.6322 65.82 78.0122 67.21C80.4022 68.6 81.2122 71.66 79.8222 74.05C78.8922 75.64 77.2122 76.53 75.4922 76.53C74.6422 76.53 73.7722 76.31 72.9822 75.85Z" fill="black"/>
<path d="M70.9322 77.57C68.8122 75.81 68.5122 72.66 70.2722 70.53C72.0322 68.41 75.1922 68.11 77.3122 69.87C79.4422 71.63 79.7322 74.79 77.9722 76.91C76.9822 78.11 75.5622 78.72 74.1222 78.72C73.0022 78.72 71.8722 78.35 70.9322 77.57Z" fill="black"/>
<path d="M64.4222 80.39C63.1322 77.94 64.0722 74.92 66.5222 73.63C68.9622 72.35 71.9822 73.29 73.2722 75.73C74.5622 78.18 73.6122 81.2 71.1722 82.49C70.4322 82.88 69.6322 83.06 68.8522 83.06C67.0522 83.06 65.3122 82.09 64.4222 80.39Z" fill="black"/>
<path d="M60.9925 79.9801C60.5425 77.2501 62.3825 74.6801 65.1025 74.2201C67.8325 73.7701 70.4025 75.6101 70.8625 78.3401C71.3125 81.0601 69.4725 83.6401 66.7425 84.0901C66.4625 84.1401 66.1925 84.1601 65.9225 84.1601C63.5225 84.1601 61.4025 82.4201 60.9925 79.9801Z" fill="black"/>
<path d="M61.6224 84.39C58.8924 83.97 57.0224 81.42 57.4324 78.7C57.8524 75.97 60.4024 74.09 63.1324 74.5C65.8624 74.92 67.7324 77.47 67.3224 80.2C66.9424 82.67 64.8124 84.45 62.3824 84.45C62.1324 84.45 61.8824 84.43 61.6224 84.39Z" fill="black"/>
<path d="M56.8225 83.26C54.2925 82.14 53.1525 79.19 54.2625 76.67C55.3825 74.14 58.3325 72.99 60.8625 74.11C63.3825 75.22 64.5325 78.17 63.4125 80.7C62.5925 82.57 60.7625 83.68 58.8425 83.68C58.1625 83.68 57.4825 83.55 56.8225 83.26Z" fill="black"/>
<path d="M53.3022 81.45C50.9422 80.01 50.2022 76.93 51.6422 74.58C53.0822 72.22 56.1622 71.48 58.5122 72.92C60.8722 74.36 61.6122 77.44 60.1722 79.79C59.2322 81.33 57.5922 82.19 55.9022 82.19C55.0122 82.19 54.1122 81.95 53.3022 81.45Z" fill="black"/>
<path d="M50.7322 79.89C48.3722 78.45 47.6222 75.38 49.0522 73.02C50.4922 70.66 53.5622 69.91 55.9222 71.34C58.2822 72.78 59.0322 75.85 57.6022 78.21C56.6522 79.76 55.0122 80.62 53.3222 80.62C52.4422 80.62 51.5422 80.38 50.7322 79.89Z" fill="black"/>
<path d="M46.4624 78.67C44.6924 76.55 44.9824 73.39 47.1124 71.63C49.2324 69.86 52.3824 70.15 54.1524 72.28C55.9124 74.4 55.6324 77.55 53.5024 79.32C52.5724 80.09 51.4324 80.47 50.3124 80.47C48.8724 80.47 47.4524 79.86 46.4624 78.67Z" fill="black"/>
<path d="M46.7329 83.47C44.1429 82.53 42.8029 79.66 43.7529 77.06C44.6929 74.47 47.5629 73.13 50.1629 74.08C52.7529 75.02 54.0929 77.89 53.1429 80.49C52.4029 82.52 50.4929 83.78 48.4429 83.78C47.8829 83.78 47.3029 83.68 46.7329 83.47Z" fill="black"/>
<path d="M45.1724 83.94C42.6224 82.89 41.4024 79.97 42.4424 77.41C43.4924 74.86 46.4124 73.64 48.9724 74.68C51.5224 75.73 52.7424 78.65 51.7024 81.21C50.9124 83.14 49.0424 84.31 47.0724 84.31C46.4424 84.31 45.8024 84.19 45.1724 83.94Z" fill="black"/>
<path d="M46.0228 83.0299C43.2728 82.8599 41.1728 80.4899 41.3328 77.7299C41.5028 74.9799 43.8728 72.8799 46.6328 73.0499C49.3828 73.2099 51.4828 75.5799 51.3228 78.3399C51.1528 80.9899 48.9528 83.0399 46.3328 83.0399C46.2328 83.0399 46.1328 83.0399 46.0228 83.0399V83.0299Z" fill="black"/>
<path d="M46.1427 80.93C43.3827 80.75 41.2927 78.37 41.4727 75.62C41.6527 72.86 44.0327 70.77 46.7827 70.95C49.5427 71.13 51.6327 73.51 51.4527 76.26C51.2827 78.91 49.0827 80.94 46.4727 80.94C46.3627 80.94 46.2527 80.94 46.1427 80.94V80.93Z" fill="black"/>
<path d="M45.3423 78.2401C42.6423 77.6401 40.9423 74.9701 41.5423 72.2701C42.1323 69.5801 44.8023 67.8701 47.5023 68.4701C50.2023 69.0701 51.9023 71.7401 51.3023 74.4301C50.7823 76.7701 48.7223 78.3501 46.4223 78.3501C46.0623 78.3501 45.7023 78.3201 45.3423 78.2401Z" fill="black"/>
<path d="M45.943 72.56C43.193 72.29 41.183 69.85 41.453 67.1C41.723 64.35 44.163 62.34 46.913 62.61C49.663 62.88 51.673 65.33 51.403 68.07C51.153 70.66 48.973 72.59 46.433 72.59C46.273 72.59 46.103 72.59 45.943 72.56Z" fill="black"/>
<path d="M41.4224 64.32C41.3824 61.56 43.5924 59.28 46.3524 59.24C49.1124 59.2 51.3824 61.4 51.4224 64.16C51.4724 66.93 49.2624 69.2 46.5024 69.24H46.4224C43.7024 69.24 41.4724 67.05 41.4224 64.32Z" fill="black"/>
<path d="M41.3329 58.46C41.2829 55.7 43.4829 53.42 46.2429 53.38C49.0029 53.33 51.2829 55.53 51.3229 58.29C51.3729 61.05 49.1729 63.33 46.4129 63.38H46.3229C43.6029 63.38 41.3729 61.19 41.3329 58.46Z" fill="black"/>
<path d="M45.9429 62.42C43.1929 62.22 41.1229 59.83 41.3229 57.07C41.3629 56.14 41.7729 54.5 42.8829 53.27C44.7029 51.19 47.8629 50.98 49.9329 52.8C51.6829 54.34 52.1129 56.82 51.1129 58.8C50.5129 60.92 48.5629 62.43 46.3129 62.43C46.1929 62.43 46.0729 62.43 45.9429 62.42Z" fill="black"/>
<path d="M45.723 60.86C43.243 59.63 42.243 56.63 43.473 54.16C44.703 51.69 47.703 50.68 50.173 51.91C52.653 53.14 53.653 56.14 52.423 58.61C51.553 60.37 49.783 61.39 47.943 61.39C47.193 61.39 46.433 61.22 45.723 60.86Z" fill="black"/>
<path d="M44.0025 59.17C42.8625 57.02 43.4225 54.31 45.4225 52.81C47.6325 51.16 50.7725 51.61 52.4225 53.82C52.8925 54.49 53.4125 55.25 53.6425 56.76C53.9925 59.5 52.0525 62 49.3125 62.35C49.1025 62.38 48.8825 62.39 48.6725 62.39C46.5925 62.39 44.7325 61.08 44.0025 59.17Z" fill="black"/>
<path d="M43.9425 59.85L43.8225 58.92C43.5025 56.18 45.4525 53.69 48.2025 53.36C50.9425 53.03 53.4325 54.99 53.7525 57.73L53.8725 58.66C54.1925 61.41 52.2425 63.9 49.4925 64.22C49.2925 64.25 49.0925 64.26 48.9025 64.26C46.4025 64.26 44.2425 62.39 43.9425 59.85Z" fill="black"/>
<path d="M47.4222 70.36C46.1722 67.9 47.1522 64.89 49.6122 63.64C52.0822 62.39 55.0922 63.37 56.3322 65.84C57.5822 68.3 56.6022 71.31 54.1422 72.56C53.4122 72.93 52.6422 73.1 51.8822 73.1C50.0622 73.1 48.3022 72.1 47.4222 70.36Z" fill="black"/>
<path d="M54.6623 78.78C52.3023 77.35 51.5423 74.28 52.9723 71.92C54.4023 69.55 57.4723 68.79 59.8323 70.22C62.2023 71.65 62.9623 74.72 61.5323 77.08C60.5923 78.64 58.9423 79.5 57.2423 79.5C56.3623 79.5 55.4723 79.27 54.6623 78.78Z" fill="black"/>
<path d="M57.6222 80.1899C55.0722 79.1099 53.8922 76.1699 54.9822 73.6299C56.0622 71.0899 59.0022 69.9099 61.5422 70.9899C64.0822 72.0699 65.2622 75.0099 64.1822 77.5499C63.3722 79.4499 61.5222 80.5899 59.5822 80.5899C58.9222 80.5899 58.2622 80.4599 57.6222 80.1899Z" fill="black"/>
<path d="M61.2731 77.7999C59.9831 75.3599 60.9231 72.3399 63.3631 71.0499C65.8031 69.7599 68.8231 70.6999 70.1131 73.1399C71.4031 75.5899 70.4631 78.6099 68.0231 79.8999C67.2831 80.2899 66.4831 80.4699 65.6931 80.4699C63.9031 80.4699 62.1631 79.4999 61.2731 77.7999Z" fill="black"/>
<path d="M66.7724 75.87C64.5424 74.25 64.0424 71.12 65.6624 68.89C67.2824 66.65 70.4024 66.15 72.6424 67.77C74.8824 69.39 75.3824 72.52 73.7524 74.75C72.7824 76.1 71.2524 76.82 69.7024 76.82C68.6824 76.82 67.6624 76.51 66.7724 75.87Z" fill="black"/>
<path d="M69.943 74.41C67.223 73.95 65.393 71.37 65.853 68.65C66.313 65.93 68.893 64.09 71.623 64.55C74.343 65.02 76.173 67.6 75.713 70.32C75.293 72.76 73.183 74.48 70.783 74.48C70.513 74.48 70.223 74.46 69.943 74.41Z" fill="black"/>
<path d="M69.943 73.47C67.243 72.9 65.503 70.25 66.073 67.55C66.123 67.29 66.143 67.19 66.143 67.19C66.403 64.44 68.833 62.42 71.583 62.68C74.333 62.93 76.353 65.37 76.093 68.12C76.033 68.76 75.933 69.23 75.863 69.59C75.373 71.95 73.293 73.57 70.973 73.57C70.633 73.57 70.293 73.54 69.943 73.47Z" fill="black"/>
<path d="M66.2126 64.71C65.7426 61.99 67.5626 59.4 70.2826 58.93C73.0026 58.46 75.5926 60.28 76.0626 63.01C76.5326 65.73 74.7126 68.31 71.9926 68.79C71.7026 68.84 71.4126 68.86 71.1326 68.86C68.7426 68.86 66.6326 67.15 66.2126 64.71Z" fill="black"/>
<path d="M65.7223 61.89C65.2423 59.17 67.0623 56.58 69.7823 56.11C72.5123 55.63 75.0923 57.45 75.5723 60.17C76.0423 62.9 74.2223 65.48 71.5023 65.96C71.2123 66.01 70.9223 66.03 70.6423 66.03C68.2523 66.03 66.1423 64.32 65.7223 61.89Z" fill="black"/>
<path d="M65.5628 61.22C64.2628 58.79 65.1828 55.76 67.6128 54.45C70.0528 53.15 73.0828 54.07 74.3828 56.5C75.6828 58.94 74.7628 61.97 72.3328 63.27C71.5828 63.67 70.7728 63.86 69.9828 63.86C68.1928 63.86 66.4628 62.91 65.5628 61.22Z" fill="black"/>
<path d="M64.3223 58.9C63.0223 56.47 63.9423 53.44 66.3823 52.14C68.8123 50.83 71.8423 51.75 73.1423 54.19C74.4423 56.63 73.5223 59.66 71.0923 60.96C70.3423 61.36 69.5323 61.55 68.7423 61.55C66.9523 61.55 65.2223 60.59 64.3223 58.9Z" fill="black"/>
<path d="M62.5831 56.54C60.7831 54.44 61.0231 51.29 63.1231 49.49C65.2231 47.69 68.3731 47.94 70.1731 50.03C71.9731 52.13 71.7231 55.29 69.6331 57.08C68.6831 57.89 67.5331 58.29 66.3831 58.29C64.9731 58.29 63.5731 57.69 62.5831 56.54Z" fill="black"/>
<path d="M59.9031 53.96C57.8131 52.16 57.5731 49 59.3731 46.91C61.1731 44.82 64.3331 44.58 66.4231 46.38C68.5231 48.18 68.7631 51.34 66.9531 53.43C65.9731 54.58 64.5731 55.17 63.1631 55.17C62.0131 55.17 60.8531 54.77 59.9031 53.96Z" fill="black"/>
<path d="M59.2325 53.3899L58.5625 52.8099C56.4625 51.0099 56.2225 47.8499 58.0225 45.7599C59.8225 43.6599 62.9725 43.4199 65.0725 45.2199L65.7425 45.7999C67.8425 47.5999 68.0825 50.7499 66.2825 52.8499C65.2925 53.9999 63.8925 54.5899 62.4925 54.5899C61.3325 54.5899 60.1725 54.1899 59.2325 53.3899Z" fill="black"/>
<path d="M56.6429 51.3C54.4729 49.59 54.1029 46.44 55.8129 44.28C57.5229 42.11 60.6729 41.74 62.8329 43.45C65.0029 45.16 65.3729 48.3 63.6629 50.47C62.6829 51.72 61.2129 52.37 59.7329 52.37C58.6529 52.37 57.5629 52.02 56.6429 51.3Z" fill="black"/>
<path d="M52.2929 47.92C50.2829 46.03 50.2029 42.86 52.0929 40.86C53.9929 38.85 57.1629 38.76 59.1629 40.66C61.1729 42.56 61.2629 45.72 59.3629 47.73C58.3829 48.77 57.0529 49.29 55.7329 49.29C54.4929 49.29 53.2629 48.84 52.2929 47.92Z" fill="black"/>
<path d="M49.493 45.27C47.493 43.38 47.403 40.21 49.303 38.21C51.203 36.2 54.363 36.11 56.373 38.01C58.373 39.91 58.463 43.08 56.563 45.08C55.583 46.12 54.253 46.64 52.933 46.64C51.703 46.64 50.463 46.19 49.493 45.27Z" fill="black"/>
<path d="M46.7023 42.01C44.9923 39.85 45.3523 36.71 47.5123 34.99C49.6823 33.27 52.8223 33.64 54.5423 35.8C56.2523 37.97 55.8923 41.11 53.7223 42.83C52.8123 43.55 51.7123 43.91 50.6223 43.91C49.1523 43.91 47.6923 43.26 46.7023 42.01Z" fill="black"/>
<path d="M43.3623 36.31C42.0623 33.87 42.9823 30.84 45.4223 29.54C47.8523 28.24 50.8823 29.15 52.1823 31.59C53.4823 34.02 52.5723 37.05 50.1323 38.36C49.3823 38.76 48.5723 38.95 47.7823 38.95C45.9923 38.95 44.2723 37.99 43.3623 36.31Z" fill="black"/>
<path d="M45.4831 29.9399C42.7731 29.4099 40.9931 26.7899 41.5231 24.0699C42.0531 21.3599 44.6731 19.5899 47.3831 20.1199C50.0931 20.6499 51.8631 23.2699 51.3431 25.9799C50.8731 28.3699 48.7831 30.0299 46.4431 30.0299C46.1231 30.0299 45.8031 29.9999 45.4831 29.9399Z" fill="black"/>
<path d="M46.3329 25.53C43.6229 25.01 41.8529 22.39 42.3729 19.68C42.8929 16.96 45.5129 15.19 48.2329 15.71C50.9429 16.24 52.7129 18.86 52.1929 21.57C51.7329 23.96 49.6329 25.62 47.2929 25.62C46.9729 25.62 46.6529 25.59 46.3329 25.53Z" fill="black"/>
<path d="M45.343 24.32C42.873 23.1 41.863 20.1 43.083 17.62C43.323 17.15 43.493 16.86 43.533 16.78C44.813 14.34 47.843 13.4 50.283 14.68C52.733 15.96 53.673 18.99 52.383 21.43C52.183 21.82 52.063 22.02 52.043 22.06C51.173 23.82 49.403 24.84 47.563 24.84C46.813 24.84 46.063 24.67 45.343 24.32Z" fill="black"/>
<path d="M51.0829 13.41C50.3629 10.75 51.9329 8 54.6029 7.28C57.2729 6.56 60.0129 8.14 60.7329 10.8C61.4529 13.47 59.8829 16.21 57.2129 16.93C56.7729 17.05 56.3329 17.11 55.9029 17.11C53.7029 17.11 51.6829 15.64 51.0829 13.41Z" fill="black"/>
<path d="M59.6229 16.56C56.8629 16.46 54.7129 14.14 54.8129 11.38C54.9129 8.62 57.2329 6.47 59.9929 6.57C62.7529 6.67 64.9029 8.99 64.8029 11.75C64.7029 14.45 62.4929 16.57 59.8129 16.57C59.7529 16.57 59.6929 16.57 59.6229 16.57V16.56Z" fill="black"/>
<path d="M61.1826 16.62C58.5626 15.75 57.1526 12.92 58.0226 10.3C58.8926 7.67996 61.7226 6.25996 64.3426 7.13996C66.9626 8.00996 68.3826 10.84 67.5126 13.46C66.8126 15.56 64.8626 16.88 62.7626 16.88C62.2426 16.88 61.7126 16.8 61.1826 16.62Z" fill="black"/>
<path d="M63.1726 17.2599C60.7226 15.9699 59.7926 12.9399 61.0826 10.4999C62.3826 8.05994 65.4026 7.12994 67.8426 8.41994C70.2826 9.70994 71.2226 12.7399 69.9226 15.1799C69.0326 16.8699 67.2926 17.8399 65.5026 17.8399C64.7126 17.8399 63.9126 17.6599 63.1726 17.2599Z" fill="black"/>
<path d="M65.2028 18.54C62.9728 16.91 62.4728 13.78 64.1028 11.55C65.7228 9.31996 68.8528 8.81996 71.0828 10.45C73.3228 12.07 73.8128 15.2 72.1828 17.44C71.2028 18.78 69.6828 19.49 68.1428 19.49C67.1228 19.49 66.0928 19.18 65.2028 18.54Z" fill="black"/>
<path d="M67.1723 17.81C65.7323 15.45 66.4623 12.38 68.8223 10.93C71.1723 9.48997 74.2523 10.23 75.6923 12.58C77.1423 14.93 76.4023 18.01 74.0523 19.46C73.2323 19.96 72.3323 20.2 71.4423 20.2C69.7523 20.2 68.1123 19.35 67.1723 17.81Z" fill="black"/>
<path d="M69.4425 14.83C67.7625 12.64 68.1925 9.50001 70.3825 7.83001C72.5825 6.15001 75.7125 6.57002 77.3925 8.77002C79.0625 10.96 78.6425 14.1 76.4525 15.78C75.5425 16.47 74.4825 16.8 73.4225 16.8C71.9125 16.8 70.4225 16.12 69.4425 14.83Z" fill="black"/>
<path d="M72.8423 16.54C70.5923 16 68.9523 13.95 69.0123 11.55C69.0723 8.78998 71.3723 6.60998 74.1323 6.67998C74.6123 6.67998 75.0923 6.73998 75.7223 6.91998C76.3423 7.11998 77.1923 7.35998 78.2723 8.47998C80.1323 10.52 79.9923 13.68 77.9523 15.54C76.9923 16.42 75.7823 16.85 74.5823 16.85C73.9923 16.85 73.4023 16.74 72.8423 16.54Z" fill="black"/>
<path d="M73.5826 19.21C70.9126 18.52 69.3026 15.79 70.0026 13.12C70.6926 10.44 73.4226 8.83996 76.0926 9.52996C78.7726 10.22 80.3726 12.95 79.6826 15.62C79.0926 17.88 77.0726 19.37 74.8426 19.37C74.4326 19.37 74.0026 19.32 73.5826 19.21Z" fill="black"/>
<path d="M74.6522 22.32C71.8922 22.24 69.7122 19.94 69.7922 17.18C69.8722 14.42 72.1722 12.24 74.9322 12.32C77.6922 12.4 79.8622 14.7 79.7922 17.46C79.7122 20.17 77.4922 22.32 74.7922 22.32H74.6522Z" fill="black"/>
<path d="M69.8228 19.9399C69.7828 17.1799 71.9928 14.9099 74.7528 14.8799C77.5128 14.8399 79.7828 17.0499 79.8228 19.8099C79.8628 22.5699 77.6528 24.8399 74.8928 24.8799H74.8228C72.0928 24.8799 69.8628 22.6799 69.8228 19.9399Z" fill="black"/>
<path d="M69.9222 28.49C69.8922 25.72 72.1022 23.46 74.8622 23.43C77.6222 23.4 79.8822 25.61 79.9222 28.37C79.9522 31.13 77.7422 33.4 74.9722 33.43H74.9222C72.1822 33.43 69.9522 31.23 69.9222 28.49Z" fill="black"/>
<path d="M70.073 31.3699C69.923 28.6099 72.033 26.2499 74.793 26.0999C77.553 25.9499 79.913 28.0599 80.063 30.8099C80.213 33.5699 78.103 35.9299 75.343 36.0799C75.253 36.0799 75.153 36.0799 75.063 36.0799C72.433 36.0799 70.223 34.0199 70.073 31.3599V31.3699Z" fill="black"/>
<path d="M71.4326 37.06C69.3626 35.23 69.1626 32.07 70.9926 30C72.8226 27.93 75.9926 27.74 78.0526 29.57C80.1226 31.4 80.3126 34.56 78.4826 36.63C77.5026 37.74 76.1226 38.31 74.7426 38.31C73.5626 38.31 72.3826 37.9 71.4326 37.06Z" fill="black"/>
<path d="M72.6322 38.42C71.0822 38.01 69.9322 37.19 69.0222 35.99C67.3822 33.77 67.8522 30.64 70.0722 29C71.9622 27.6 74.5222 27.73 76.2522 29.18C78.1922 30.24 79.2522 32.52 78.6922 34.77C78.1322 37.04 76.0822 38.57 73.8422 38.57C73.4422 38.57 73.0422 38.52 72.6322 38.42Z" fill="black"/>
<path d="M67.5222 31.67C67.0522 28.95 68.8722 26.37 71.5922 25.89C74.3122 25.42 76.9022 27.24 77.3722 29.96C77.8522 32.69 76.0222 35.27 73.3022 35.75C73.0122 35.8 72.7322 35.82 72.4422 35.82C70.0622 35.82 67.9422 34.11 67.5222 31.67Z" fill="black"/>
<path d="M67.3631 30.76L67.2031 29.84C66.7231 27.12 68.5331 24.53 71.2531 24.05C73.9731 23.57 76.5731 25.38 77.0431 28.1L77.2131 29.03C77.6931 31.74 75.8731 34.34 73.1531 34.82C72.8631 34.87 72.5731 34.9 72.2831 34.9C69.9031 34.9 67.7931 33.19 67.3631 30.76Z" fill="black"/>
<path d="M66.5528 27.87C65.4328 25.35 66.5728 22.39 69.0928 21.27C71.6128 20.14 74.5728 21.28 75.6928 23.8C76.8128 26.32 75.6928 29.28 73.1628 30.4C72.5028 30.7 71.8028 30.84 71.1328 30.84C69.2128 30.84 67.3828 29.73 66.5528 27.87Z" fill="black"/>
<path d="M65.8029 25.88C64.4929 23.45 65.3929 20.42 67.8129 19.1C70.2429 17.78 73.2829 18.68 74.5929 21.11C75.9129 23.53 75.0129 26.57 72.5829 27.89C71.8329 28.3 71.0129 28.49 70.2029 28.49C68.4329 28.49 66.7129 27.55 65.8029 25.88Z" fill="black"/>
<path d="M64.7127 23.8899C63.3827 21.4699 64.2627 18.4299 66.6827 17.0999C69.0927 15.7699 72.1427 16.6499 73.4727 19.0699C74.8027 21.4799 73.9227 24.5199 71.5027 25.8599C70.7427 26.2799 69.9127 26.4799 69.0927 26.4799C67.3327 26.4799 65.6227 25.5399 64.7127 23.8899Z" fill="black"/>
<path d="M62.1922 21.1C59.9522 19.49 59.4522 16.36 61.0622 14.12C62.6822 11.88 65.8022 11.38 68.0422 13C70.2822 14.61 70.7922 17.74 69.1722 19.98C68.1922 21.33 66.6622 22.05 65.1122 22.05C64.1022 22.05 63.0722 21.74 62.1922 21.1Z" fill="black"/>
<path d="M55.7325 15.7099C55.5025 12.9599 57.5425 10.5399 60.2925 10.3099C63.0425 10.0799 65.4625 12.1199 65.6925 14.8699C65.9325 17.6199 63.8825 20.0399 61.1325 20.2799C60.9925 20.2799 60.8525 20.2799 60.7025 20.2799C58.1325 20.2799 55.9525 18.3099 55.7325 15.6999V15.7099Z" fill="black"/>
<path d="M53.4329 17.1C52.6329 14.46 54.1229 11.67 56.7629 10.86C59.4029 10.06 62.1929 11.54 63.0029 14.19C63.8129 16.83 62.3229 19.62 59.6729 20.43C59.1929 20.58 58.7029 20.65 58.2129 20.65C56.0729 20.65 54.0929 19.26 53.4329 17.1Z" fill="black"/>
<path d="M51.0425 23.49C48.7425 21.95 48.1325 18.84 49.6625 16.55C51.2025 14.25 54.3025 13.64 56.6025 15.17C58.8925 16.71 59.5125 19.81 57.9725 22.11C57.0125 23.55 55.4325 24.33 53.8125 24.33C52.8625 24.33 51.8925 24.06 51.0425 23.49Z" fill="black"/>
<path d="M52.1028 26.65C49.3728 26.2 47.5328 23.62 47.9828 20.9C48.4328 18.17 51.0028 16.33 53.7328 16.78C56.4528 17.23 58.2927 19.8 57.8427 22.53C57.4427 24.98 55.3228 26.71 52.9228 26.71C52.6528 26.71 52.3728 26.69 52.1028 26.65Z" fill="black"/>
<path d="M51.8528 28.17C49.1228 27.72 47.2828 25.15 47.7328 22.43L47.8528 21.66C48.3028 18.94 50.8728 17.09 53.6028 17.54C56.3228 17.99 58.1727 20.57 57.7227 23.29L57.5927 24.05C57.1927 26.5 55.0728 28.24 52.6728 28.24C52.3928 28.24 52.1228 28.22 51.8528 28.17Z" fill="black"/>
<path d="M47.6723 25.82C47.3323 23.07 49.2823 20.58 52.0323 20.24C54.7723 19.91 57.2623 21.86 57.6023 24.6C57.9323 27.34 55.9823 29.83 53.2423 30.17C53.0423 30.19 52.8323 30.21 52.6323 30.21C50.1423 30.21 47.9823 28.35 47.6723 25.82Z" fill="black"/>
<path d="M47.9727 28.0999C47.6127 25.3599 49.5527 22.8499 52.2827 22.4999C55.0227 22.1399 57.5327 24.0799 57.8827 26.8199C58.2427 29.5499 56.3027 32.0599 53.5627 32.4099C53.3527 32.4399 53.1327 32.4499 52.9227 32.4499C50.4427 32.4499 48.2927 30.6199 47.9727 28.0999Z" fill="black"/>
<path d="M49.1927 32.1C47.9427 29.64 48.9227 26.63 51.3827 25.38C53.8427 24.12 56.8527 25.1 58.1127 27.56C59.3627 30.03 58.3827 33.03 55.9227 34.29C55.1927 34.66 54.4227 34.83 53.6527 34.83C51.8327 34.83 50.0827 33.84 49.1927 32.1Z" fill="black"/>
<path d="M50.0124 33.69L49.6124 32.91C48.3424 30.45 49.3124 27.44 51.7624 26.17C54.2224 24.91 57.2324 25.87 58.5024 28.33L58.9024 29.12C60.1724 31.57 59.2024 34.59 56.7524 35.85C56.0124 36.23 55.2324 36.41 54.4624 36.41C52.6524 36.41 50.9024 35.42 50.0124 33.69Z" fill="black"/>
<path d="M51.8929 36.71C50.4229 34.37 51.1229 31.29 53.4629 29.82C55.8029 28.35 58.8829 29.05 60.3529 31.39C61.8229 33.72 61.1229 36.81 58.7829 38.28C57.9629 38.8 57.0429 39.05 56.1329 39.05C54.4729 39.05 52.8429 38.22 51.8929 36.71Z" fill="black"/>
<path d="M53.2827 38.45C53.2827 38.45 53.1527 38.3 52.9127 38.03C51.0727 35.97 51.2427 32.81 53.3027 30.97C55.3627 29.13 58.5227 29.3 60.3627 31.36C60.4927 31.51 60.7327 31.76 61.0827 32.19C62.8127 34.34 62.4627 37.49 60.3127 39.21C59.3927 39.96 58.2827 40.32 57.1827 40.32C55.7227 40.32 54.2727 39.68 53.2827 38.45Z" fill="black"/>
<path d="M55.9328 41.19C53.8928 39.34 53.7428 36.17 55.6028 34.13C57.4528 32.09 60.6228 31.94 62.6628 33.8C64.7028 35.66 64.8528 38.82 62.9928 40.86C62.0028 41.95 60.6528 42.5 59.2928 42.5C58.0928 42.5 56.8928 42.07 55.9328 41.19Z" fill="black"/>
<path d="M57.5329 42.6599C55.4929 40.7899 55.3529 37.6299 57.2129 35.5899C59.0829 33.5599 62.2429 33.4199 64.2829 35.2799C66.3129 37.1499 66.4529 40.3099 64.5929 42.3499C63.6029 43.4199 62.2529 43.9699 60.9029 43.9699C59.6929 43.9699 58.4829 43.5399 57.5329 42.6599Z" fill="black"/>
<path d="M60.9623 45.38C58.7923 43.67 58.4223 40.53 60.1323 38.36C61.8323 36.19 64.9823 35.82 67.1523 37.52C69.3223 39.23 69.6923 42.38 67.9923 44.55C67.0023 45.8 65.5323 46.45 64.0523 46.45C62.9723 46.45 61.8823 46.1 60.9623 45.38Z" fill="black"/>
<path d="M66.4623 49.9199C64.3223 48.1599 64.0223 45.0099 65.7823 42.8799C67.5423 40.7499 70.6923 40.4499 72.8223 42.1999C74.9523 43.9599 75.2523 47.1099 73.4923 49.2399C72.5023 50.4399 71.0723 51.0599 69.6323 51.0599C68.5123 51.0599 67.3923 50.6899 66.4623 49.9199Z" fill="black"/>
<path d="M70.673 55.02C69.693 52.44 70.973 49.55 73.553 48.56C76.133 47.57 79.023 48.86 80.013 51.43C81.003 54.01 79.713 56.9 77.143 57.89C76.553 58.12 75.943 58.23 75.353 58.23C73.343 58.23 71.443 57.01 70.673 55.02Z" fill="black"/>
<path d="M71.5625 56.66V56.65C70.0525 54.34 70.7025 51.24 73.0125 49.73C75.3225 48.22 78.4225 48.86 79.9325 51.17C80.0925 51.46 80.4625 51.87 80.8825 53.04C81.7425 55.67 80.3125 58.49 77.6925 59.36C77.1725 59.53 76.6525 59.61 76.1325 59.61C74.2025 59.61 72.3925 58.48 71.5725 56.66H71.5625Z" fill="black"/>
<path d="M72.5529 61.67C72.5329 58.91 74.7629 56.66 77.5229 56.64C80.2829 56.62 82.5329 58.85 82.5529 61.61C82.5729 64.37 80.3429 66.62 77.5829 66.64H77.5529C74.8029 66.64 72.5729 64.42 72.5529 61.67Z" fill="black"/>
<path d="M73.2829 64.7399C72.8429 63.8999 72.7329 63.3099 72.6429 62.8299C72.1929 60.1099 74.0329 57.5299 76.7629 57.0799C79.3229 56.6499 81.7529 58.2599 82.4129 60.7199C83.2029 62.9999 82.2529 65.5899 80.0629 66.7699C79.3029 67.1799 78.4929 67.3699 77.6929 67.3699C75.9129 67.3699 74.1929 66.4199 73.2829 64.7399Z" fill="black"/>
<path d="M77.7023 69.73C74.9523 69.73 72.7123 67.51 72.7023 64.75V62.38C72.6823 59.62 74.9123 57.37 77.6723 57.36H77.6923C80.4423 57.36 82.6823 59.58 82.6923 62.34V64.71C82.7123 67.47 80.4823 69.72 77.7223 69.73H77.7023Z" fill="black"/>
</svg>
