<svg width="323" height="291" viewBox="0 0 323 291" fill="none" xmlns="http://www.w3.org/2000/svg">
<path d="M43.69 98.6199C44.15 98.0899 44.77 97.6899 45.38 97.2999C46.75 96.4299 47.9 96.3599 49.17 97.5399C50.75 98.9999 51.8 100.35 50.87 102.47C50.18 104.04 49.21 104.93 47.4 105.41C45.9 105.8 44.8 104.81 43.85 103.84C42.29 102.24 42.19 100.34 43.68 98.6099M83 219.63C82.25 216.63 82.8 217.13 81.95 213.57C81.59 212.06 81.27 210.73 80.6 209.26C77.13 201.68 73.31 203.49 68.08 201.85C66.69 201.41 65.42 201.09 63.99 200.8C62.58 200.5 61.17 199.97 59.74 199.81C57.76 199.59 56.07 199.01 54.18 198.44C52.73 198 51.16 198 49.91 197.06C49.27 196.57 48.57 196.15 47.88 195.87C46.61 197.29 44.82 198.27 43.23 197.42C41.43 196.47 40 194.73 40.27 192.65C40.42 191.43 41.74 189.91 42.8 189.52L43.96 189.1C44.26 188.99 44.25 188.08 44.11 187.77C43.61 186.6 43.46 185.43 43.31 184.19L42.8 179.83C42.64 178.52 42.72 177.32 42.88 175.98L43.23 172.92C43.41 171.38 43.66 169.9 43.95 168.35C44.12 167.51 44.72 166.61 45 165.89C45.87 163.75 46.94 162.06 48.4 160.29L52.2 155.68L54.15 153.27L56.56 150.32C57.92 148.65 57.94 148.03 59.08 145.46C60.25 142.82 60.4 139.89 60.66 137.06C61.08 132.24 60.83 129.57 59.68 124.78C58.98 121.88 57.8 119.29 55.9 117.09C54.6 115.58 53 115.09 51.07 115.16C50.02 115.21 49.42 115.4 48.66 116.12C46.24 118.42 46.23 118.53 45.12 121.3C44.47 122.92 43.8 124.47 43.43 126.2C42.94 128.43 42.33 130.51 41.76 132.7L39.84 140C39.48 141.41 38.86 142.69 38.64 144.12C38.12 147.61 34.96 153.13 30.9 153.74C29.11 154.01 26.52 151.73 25.74 150.59C25.24 149.87 24.75 149.11 24.34 148.36C23.87 147.48 22.34 143.71 22.19 142.96C20.62 135.57 20.99 131.37 22.43 124.04C22.63 123.01 23.44 121.93 23.81 120.92C24.19 119.89 24.83 119.03 25.33 118.18C26.76 115.77 28.99 114.97 31.67 114.79C32.79 114.72 33.93 113.95 35.3 114.18C36.27 114.34 37.46 113.74 38.42 113.59L45.2 112.54C46.94 112.27 48.48 112.26 50.19 111.85C51.47 111.53 52.99 111.49 54.34 111.26L59.44 110.44L64.03 109.72L67.05 109.26L72.56 108.42C74.95 108.06 75.52 107.66 77.35 105.76C78.14 104.95 78.68 104.14 78.98 103.01C79.17 102.34 79.68 101.61 79.95 100.95C81.41 97.2199 82.08 90.0999 81.58 86.1899C81.13 82.6499 80.92 81.3799 79.87 77.9299C79.57 76.9599 79.01 75.9099 78.57 74.9099C78.09 73.7899 76.89 72.4399 75.84 71.5499C74.95 70.7799 73.27 70.3599 72.1 70.4399C71 70.5299 70.02 70.3899 68.95 70.3999C64.89 70.4299 60.64 71.0199 57.19 70.6299C55.64 70.4599 54.04 70.6599 52.47 70.6999L41.71 70.9399L28.18 71.1799L15.09 71.3999C13.92 71.4199 12.79 71.6799 11.64 71.4399C9.97 71.0999 8.4 71.4299 6.76 71.9499C2.4 73.3399 0 84.4399 0 86.6299V95.5499C0.97 97.7699 0.46 99.5199 1.19 101.77C2.29 105.12 1.25 106.08 2.71 107.12C3.1 107.4 4.02 107.13 4.65 107.1C5.87 107.03 7.17 108.21 7.62 109.08C8.25 110.32 8.47 112.15 7.77 113.14C6.83 114.47 5.82 114.83 4.44 115.12C2.82 115.45 4.4 118.04 4.33 120.58C4.3 121.63 4.9 122.49 4.97 123.52L5.22 127.64C5.34 129.47 6.18 131.1 6.53 133.03L7.27 137.1L8.03 141.69L8.88 146.61C9.05 147.62 9 148.56 9.34 149.52C9.59 150.2 9.63 150.96 9.74 151.7L10.68 157.33L11.33 160.71L11.82 163.89L12.71 169.19L13.47 173.83L14.48 179.91L15.18 184.58L15.69 186.69L16.68 192.86L17.47 197.44L18.52 203.53L18.94 206.59C19.15 208.15 19.57 209.56 19.81 211.09L20.59 215.95L21.61 222.28L22.11 224.95C23.03 229.89 22.74 231.42 24.93 236.22C25.57 237.61 26.33 238.82 27.28 240.01C29.67 242.99 33.86 241.82 37 241.89C39.12 241.94 41.11 241.95 43.22 241.91L54.76 241.65L75.26 241.39C77.15 241.37 79.61 237.77 80.47 235.94C82.24 232.18 82.96 228.33 83.06 224.14C83.1 222.6 83.37 221.14 82.99 219.58" fill="#90BEFB"/>
<path d="M309.48 67.01C308.98 69.11 307.31 70.29 305.34 70.83C304.81 72.57 305.3 74.24 305.41 76.03C305.73 81.19 304.92 82.18 305.35 87.09C305.54 89.22 305.53 91.45 305.38 93.62C305.09 97.81 305.75 96.39 305.38 99.45C305.19 100.98 305.74 106.39 305.38 109.16L304.31 117.23C304.11 118.76 303.34 120.09 302.69 121.44C301.54 123.78 300.34 125.9 297.37 125.95L286.26 126.17C283.81 126.22 281.64 126.28 279.4 125.91C277.65 125.63 276.54 125.21 275.62 123.66C274.89 122.4 274.64 121.56 275.25 119.97C275.53 119.24 274.68 117.8 274.53 116.95L273.66 111.98C273.13 108.99 274.54 105.81 271.97 104.65C270.5 103.99 269.51 102.84 269.37 101.05C269.22 99.09 270.93 97.07 272.87 96.52C273.88 94.66 273.66 92.78 273.39 90.79C272.83 86.53 274.37 85.36 271.57 84.29C270.28 83.81 269.25 82.03 269.25 80.66C269.26 78.39 270.87 76.89 272.95 76.41C273.66 72.18 272.61 73.53 273.25 68.86C273.49 67.13 272.78 64.55 273.15 60.53C273.44 57.43 273.63 54.28 274.67 51.38L275.84 48.13C276.34 46.75 278.84 43.73 280.24 43.71L290.64 43.51C291.63 43.5 292.52 43.46 293.53 43.47C295.67 43.49 297.96 42.92 299.92 44.35C300.88 45.05 301.47 46.41 302.12 47.45C303.67 49.95 304.92 55.99 304.69 58.84C304.51 61.08 305.76 62.14 307.64 62.79C308.87 63.22 309.79 65.71 309.48 66.97M279.34 135.47C278.57 136.68 277.02 138.02 275.19 137.77C273.14 137.49 271.55 135.41 271.53 133.47C271.51 131.65 272.93 129.81 274.5 129.4C275.74 129.07 276.74 128.95 277.79 129.53C279.05 130.22 280.78 133.2 279.35 135.47M288.64 27.27C290.88 25.59 292.41 24.99 294.74 26.9C295.99 27.91 296.1 29.24 296.06 30.9C296.01 32.98 293.26 34.4 291.31 34.19C290.17 34.06 288.92 33.29 288.15 32.02C287.32 30.66 287.63 28.67 288.64 27.27ZM322.05 108.74C322.07 106.32 322.1 104.16 321.97 101.83C321.88 100.58 321.89 99.48 321.96 98.21C322.34 91.29 321.49 86.77 321.91 80.63C322.02 79.03 322.01 77.61 321.92 76C321.73 72.45 321.76 68.91 321.9 65.35C321.94 64.09 322.16 62.97 321.86 61.71C321.55 60.37 321.62 59.05 321.51 57.64C321.29 54.81 320.1 48.7 318.52 46.41L311.02 35.54C310.8 35.22 310.48 34.55 310.16 34.49C308.87 34.25 308.58 37.87 305.17 36.74C303.31 36.12 301.67 34.06 302 31.99C302.28 30.29 303.73 28.32 305.46 28.4L307.77 28.51C307.66 27.23 307.55 26.13 307.23 25.03C306.81 23.58 306.58 22.3 306.28 20.82C306.08 19.78 305.67 18.68 305.45 17.61L304.24 12.09L303.37 8.43C302.79 6.01 301.5 2.15 299.39 0.82L298.09 0H296.81L295.37 0.7C294.37 1.19 293.16 3.27 292.09 4.7L290.66 6.62C290.08 7.38 290.3 7.98 290.45 8.89C290.66 10.16 289.22 11.96 287.96 12.21C286.2 12.58 285.47 13.44 284.5 14.8C283.58 16.07 282.35 17.2 281.31 18.46C280.66 19.24 280.21 20.53 279.5 21.16C278.54 22 278.07 22.73 277.49 23.9C277.06 24.76 275.42 25.74 275.95 27.04C276.84 28.23 277.75 29.46 277.41 31.2C277.15 32.51 276.07 33.63 274.76 34.31C271.27 36.1 271.88 31.49 269 35.21L267.32 37.37L265.48 39.85L263.63 42.34L261.85 44.66C260.54 46.38 258.81 48.84 258.5 51C258.34 52.15 258.97 52.62 259.95 52.99C260.74 53.3 261.14 54.44 261.47 55.23C261.93 56.34 261.86 57.15 261.33 58.15C259.35 61.85 256.51 59.36 256.69 62.21L256.93 65.85L257.06 69.65C257.08 70.17 257.86 71.09 258.24 71.5C259.92 71.65 261.32 72.9 261.71 74.29C262.74 77.96 259.74 78.82 259.2 79.44C258.97 79.71 259.14 80.54 259.22 80.92L259.98 84.34L260.77 88.74L261.75 93.33L262.53 97.37L263.65 103.15L264.6 107.88L265.56 112.47C265.79 113.6 265.95 114.71 266.2 115.86L267.05 120L267.88 125.05L268.78 129.44L269.82 134.09C270.1 135.34 270.3 136.42 271.14 137.46C273.28 140.12 271.14 140.56 271.6 142.83L272.26 146.12L272.97 150.03C273.04 150.43 273.93 154.78 274.24 154.4C274.9 153.6 276.36 150.45 279.39 151.47C280.56 151.85 281.69 152.74 282.27 153.94C282.82 155.1 282.72 157 281.89 158.12C281.22 159.05 279.8 159.73 278.67 159.94C277.08 160.24 276.08 158.54 275.21 158.16C274.09 157.69 275.52 161.97 275.5 161.87C276.05 163.95 276.83 165.81 277.98 167.59C279.14 169.38 280.63 170.15 282.83 170.03L287.63 169.77C289.13 169.7 290.63 169.64 292.03 169.64L298.39 169.69C299.09 169.69 300.26 168.95 300.67 168.48L301.88 167.04C302.49 166.31 302.81 165.2 303.23 164.29C304 162.63 304.57 161.1 305.15 159.24C305.47 158.21 306.96 156.78 306.12 155.55C304.74 153.53 304.35 150.7 306.58 149.01C308.7 147.41 309.72 149.67 310.91 143.66C311.08 142.79 310.56 142.08 310.12 141.31C309.72 140.56 309.66 138.87 310.13 138.08C311.49 135.75 312.44 136.02 314.45 134.98C314.97 133.2 315.77 131.73 316.35 130.01L317.45 126.73C317.9 125.38 318.66 124.29 318.96 122.9C319.79 118.99 320.56 119.77 321.24 115.35C321.42 114.16 319.18 113.06 321.16 110.57C321.52 110.11 322.11 109.27 322.11 108.75" fill="#90BEFB"/>
<path d="M131.61 157.9C129.97 155.25 128.97 158.88 125.75 155.8C123.68 153.83 124.87 150.42 126.09 149.44C127.07 148.65 128.58 147.67 129.93 148.34C132.26 149.51 132.21 150.64 133.86 151.72C136.19 151.69 137.43 151.67 139.07 153.64C140.56 155.45 140.31 157.62 138.64 159.2C137.87 159.91 137.17 160.31 136.21 160.51C133.87 161.02 132.91 160.01 131.6 157.9M154.17 222.66C153.91 221.31 153.7 220.01 153.22 218.74C152.7 217.38 151.57 214.48 150.79 213.49L147.42 209.12L145.33 206.92L140.43 200.84C139.42 199.58 138.5 197.34 138.07 195.87L136.81 191.7L136.54 187.87C136.45 186.58 136.3 185.65 136.34 184.39L136.46 179.83C136.51 177.63 137.21 175.51 137.62 173.37L139.66 168.97C139.89 168.47 140.62 167.54 140.99 167.09L143.2 164.4L144.51 162.68L148.62 157.6L149.77 156.19C152.61 152.69 149.39 153.38 150.9 150.48C152.75 146.92 153.2 149.88 153.87 144.5L154.25 141.41V116.33L154.01 114.24C153.7 111.62 151.9 114.23 150.45 111.96L149.46 110.42C148.43 108.81 148.95 107.3 150.06 105.95C150.8 105.06 151.41 104.19 152.82 104.6C154.58 105.11 153.88 100.82 154.13 98.45C154.34 96.38 154.2 94.59 154 92.55C153.65 89.04 154.17 89.02 153.14 85.35C152.22 82.09 151.26 78.84 148.77 76.32C148.2 75.75 147.07 75.23 146.32 74.77C145.38 74.18 144.72 74.59 143.88 74.97C142.76 75.47 141.82 75.92 141.09 76.86C139.24 79.21 137.78 82.33 137.34 85.38C137.13 86.85 136.37 88.18 136.01 89.62L134.58 95.36L132.78 102.44C132.1 105.13 130.93 108.58 129.28 110.7L127.4 113.14L125.81 115.13L124.51 116.67C123.8 117.51 122.87 118.35 122.24 119.19C121.61 120.02 121.11 120.96 120.43 121.76L118.9 123.59L117.65 126.63C117.33 127.42 116.7 128.05 116.56 128.9C116.14 131.64 115.73 134.22 115.51 136.98L115.29 139.81C115.12 141.89 115.22 143.94 115.34 146.03C115.54 149.2 115.54 152.39 115.36 155.57C115.29 156.93 115.35 158.11 115.36 159.47L115.56 171.91C115.58 173.27 115.63 174.45 115.56 175.81C115.39 178.85 115.43 181.87 115.51 184.95C115.52 185.64 115.78 186.56 115.71 187.24C115.51 189.39 116.15 191.19 116.57 193.2C116.83 194.39 117.03 195.51 117.49 196.66L118.68 199.57L119.43 201.18L120.5 203.45L121.94 206.52L124.15 210.75C126.41 210.83 127.8 208.98 129.9 211.88C130.88 213.22 131.3 214.47 130.84 216.16C130.52 217.37 129.62 217.91 128.75 218.7C127.69 219.68 129.15 221.4 129.56 222.31L130.61 224.65L131.81 227.28L133.06 229.85L134.04 231.96L135.42 234.91L136.49 237.17L137.71 239.76L138.91 242.27L140.07 244.58C140.88 246.19 142.03 247.52 143.61 248.48C145.75 249.79 148.25 248.94 149.87 247.16C153.32 243.37 154.24 237.02 154.65 232C154.92 228.84 154.69 225.83 154.12 222.73" fill="#90BEFB"/>
<path d="M243.54 274.58C243.44 277.98 242.73 281.04 241.69 284.19C241.04 286.16 240.31 288 238.53 289.27C237.52 289.99 235.92 290.54 234.82 289.61C234.5 289.33 233.78 288.73 233.52 288.4C231.32 285.48 229.8 280 229.51 276.27L229.28 273.44C229.17 272.16 229.09 270.92 229.12 269.61C229.18 265.85 228.35 265.94 228.51 262.29C228.73 257.09 227.85 255.45 227.88 252.28C227.88 251.36 227.96 250.58 227.88 249.72L227.64 246.86C227.5 245.33 227.48 243.63 227.67 242.1C227.83 240.81 228.49 239.41 227.86 238.14C227.27 236.95 226.91 235.78 227.04 234.39C227.21 232.64 226.72 230.99 226.63 229.3L226.31 223.69C226.06 219.11 224.49 212.01 221.13 208.98C218.6 206.71 216.92 208.05 215.06 208.06L204.09 208.15C201.75 208.16 200.23 208.08 198.56 210C195.98 212.97 194.25 220.7 194.17 223.9L194.02 231.46L193.7 236.04L193.48 245.51L193.24 253.67L192.95 257.74L192.69 264.37L192.48 273.1L191.91 279.38C191.81 280.48 191.44 281.51 190.69 282.49C190.47 285.61 189.5 288.19 187.24 290.29C186.91 290.6 185.88 290.88 185.34 290.98C184.51 291.15 183.46 290.31 182.9 289.78C181.32 288.25 180.54 286.56 179.89 284.53C179.01 281.79 178.32 277.54 178.14 274.57C178.07 273.35 177.86 271.97 177.92 270.74C178.06 267.71 178.38 264.62 178.95 261.56L181.71 246.97L182.84 239.65L184.68 230.29C185.04 228.43 185.26 226.63 185.55 224.75L186.6 218.02C186.84 216.53 186.97 215.12 187.36 213.65C188.6 208.93 187.9 210.07 188.6 207.19C189.01 205.44 189.45 203.77 189.51 201.98C189.54 201.2 189.68 200.23 190.48 200.11C191.95 201.61 194.11 202.06 195.72 200.81C196.85 199.94 198.02 198.99 197.87 197.45C197.64 194.97 194.8 192.12 193.08 193.35C192.69 193.64 191.59 194.09 191.27 193.65C190.58 192.72 191.38 191.65 191.47 190.72C191.91 186.4 191.9 183.17 191.73 178.79C191.7 178.07 191.34 177.03 191.22 176.27C190.6 172.21 189.75 169.58 187.34 166.11L181.59 157.83C180.93 156.87 179.26 154.05 179 153.17C178.68 152.02 178.21 150.86 178 149.82L177.11 145.25C176.64 142.92 177.05 140.32 176.87 136.92C176.77 134.89 178.18 127.62 179.18 125.73L180.9 122.45C181.36 122.08 182.33 121.36 182.82 121.09C184 120.43 185.94 121.42 186.66 122.3C188.06 124 189.1 126.41 189.6 128.41L190.82 133.34L191.76 137.3L192.72 141.71C193 142.98 193.41 144.25 193.58 145.59C193.69 146.49 192.63 147.2 192.21 147.74C191.22 149.01 191.9 150.66 192.68 151.84C193.54 153.14 194.95 153.68 196.28 154.42C197.1 155.96 198.8 158.4 200.87 158.5C204.17 158.66 207.5 158.72 210.84 158.46C213.52 158.25 216.11 158.58 218.78 158.16C220.06 157.96 221.59 156.17 222.2 155.16C224.47 151.34 224.54 148.07 225.54 143.81L227.37 135.99C227.88 133.84 227.84 131.56 228.51 129.43C229.27 127.01 230.15 124.64 231.02 122.32C232.83 121.35 231.61 120.99 233.68 120.11C235.86 119.17 237.56 120.81 238.7 122.48C239.36 123.43 239.64 124.44 240 125.57L240.94 128.44C241.65 130.64 241.8 132.83 241.93 135.16C242.26 141.04 242.11 149.13 239.07 154.34L237.19 157.57C236.61 158.56 235.94 159.58 235.3 160.51L233.52 163.1L232.01 165.41C228.99 170.01 228.29 174.34 227.92 179.73C227.77 181.99 227.73 184.17 228.09 186.45C228.25 187.48 228.22 188.76 228.43 189.72L229.24 193.51C229.64 195.37 230.52 197.35 231.63 198.99L238.15 208.53C239.94 211.14 241.17 213.59 241.82 216.69C242.1 218.03 242.6 219.41 242.75 220.81L243.04 223.53L243.25 233.02C243.29 235 243.47 236.96 243.26 238.91C243.05 240.87 243.23 242.79 243.26 244.77L243.5 258.54C243.6 263.94 243.69 269.24 243.53 274.62" fill="#90BEFB"/>
</svg>
