<svg width="226" height="280" viewBox="0 0 226 280" fill="none" xmlns="http://www.w3.org/2000/svg">
<path d="M0 279.07H22.26V256.81H0V279.07ZM203.32 279.07H225.58V256.81H203.32V279.07ZM19.27 250.5H41.53V228.24H19.27V250.5ZM203.32 250.5H225.58V228.24H203.32V250.5ZM38.54 221.93H60.8V199.67H38.54V221.93ZM203.32 221.93H225.58V199.67H203.32V221.93ZM57.81 193.36H80.07V171.1H57.81V193.36ZM87.71 193.36H109.97V171.1H87.71V193.36ZM116.28 193.36H138.54V171.1H116.28V193.36ZM144.85 193.36H167.11V171.1H144.85V193.36ZM173.42 193.36H195.68V171.1H173.42V193.36ZM203.32 193.36H225.58V171.1H203.32V193.36ZM77.08 164.79H99.34V142.53H77.08V164.79ZM203.32 164.79H225.58V142.53H203.32V164.79ZM96.35 136.55H118.61V114.29H96.35V136.55ZM203.32 136.55H225.58V114.29H203.32V136.55ZM115.61 107.98H137.87V85.72H115.61V107.98ZM203.32 107.98H225.58V85.72H203.32V107.98ZM134.88 79.4H157.14V57.14H134.88V79.4ZM203.32 79.4H225.58V57.14H203.32V79.4ZM154.15 50.83H176.41V28.57H154.15V50.83ZM203.32 50.83H225.58V28.57H203.32V50.83ZM173.42 22.26H197.01V0H173.42V22.26ZM203.32 22.26H225.58V0H203.32V22.26Z" fill="#90BEFB"/>
</svg>
