<svg width="73" height="75" viewBox="0 0 73 75" fill="none" xmlns="http://www.w3.org/2000/svg">
<path d="M0.0891837 44.03C0.569184 44.95 3.70918 44.5 4.88918 44.49L17.3592 44.46C18.7792 44.46 20.1792 44.86 21.4692 44.09C21.7392 43.93 22.0092 43.34 21.9492 43.07C21.8892 42.83 21.4692 42.4 21.2092 42.39L18.7292 42.31C17.7892 42.28 16.7592 41.6 16.5492 40.7C16.2692 39.49 16.8292 38.38 17.3892 37.37L18.8792 34.72L20.4092 31.84L21.8292 29.12L22.9892 27.04L24.4992 24.28L26.0792 21.27L27.1892 19.26L28.7892 16.3L30.0192 13.97L31.4592 11.3C31.9892 10.32 32.4292 9.35 32.9892 8.39L34.3192 6.14C35.0992 4.81 36.1892 3.48 37.7492 2.96C38.6592 2.66 39.8792 2.4 40.8092 2.44C41.9292 2.49 43.0992 2.63 43.6592 1.45C43.7592 1.24 43.8592 0.7 43.7292 0.5C43.6092 0.32 43.3092 0.14 43.0692 0H23.4192L23.1092 0.12C22.6692 0.28 22.2192 0.57 22.0392 0.94C21.8692 1.3 21.8992 2 22.1892 2.22C22.7692 2.66 23.3992 2.49 24.0592 2.42C25.1592 2.29 26.5492 2.67 27.1992 3.6C27.6792 4.3 27.4192 5.32 27.0592 6L25.9292 8.14L24.4892 10.84L22.9792 13.61L21.7492 15.91L20.2492 18.7L18.8892 21.2L17.4792 23.76C17.1192 24.41 16.8092 25.04 16.4492 25.69L15.4592 27.47L13.9392 30.37L12.7092 32.7L11.2892 35.27L9.88918 37.69C9.10918 39.04 8.60918 40.19 7.10918 41.15C3.39918 43.5 1.43918 41.55 0.199184 42.96C-0.0408163 43.24 -0.0508163 43.79 0.0991837 44.07" fill="#90BEFB"/>
<path d="M72.7791 57.3599V59.7299L72.6291 60.7699C72.4891 61.7099 72.0591 62.5899 71.8491 63.4699C71.5691 64.6299 71.1791 65.5299 70.5991 66.5299C70.1591 67.2899 69.7891 68.0499 69.2291 68.7199C67.7291 70.5299 66.0291 71.9699 63.9491 73.0599C62.9991 73.5599 62.1091 73.9799 61.0291 74.1599C59.8391 74.3599 58.6891 74.6399 57.4791 74.4499C56.2891 74.2699 55.0491 74.1699 53.9391 73.6899C52.9191 73.2499 51.9291 72.7499 51.0091 72.1899L48.4291 70.6199C47.5091 70.0599 46.3291 69.7099 45.4091 70.4799C43.4091 72.1399 44.3791 71.4999 43.5491 73.7799C43.3491 74.3199 42.6091 74.4999 42.1791 74.3199C41.6891 74.1199 41.3991 73.6099 41.4291 73.0499L41.5691 70.9499C41.6291 70.0999 41.3291 69.2199 41.5291 68.3599C41.7791 67.1999 41.2891 65.0399 41.5291 62.5899C41.6391 61.4499 41.5491 60.3899 41.5291 59.2399L41.4291 53.3699C41.4191 52.7599 41.2791 52.0899 41.7391 51.5599C41.9591 51.2999 42.7091 51.2099 43.0491 51.3799C43.3391 51.5299 43.7291 51.9899 43.7791 52.3799L43.9991 54.2499C44.2691 56.4799 45.8691 60.8999 46.9791 63.0899C48.3191 65.7099 49.7891 67.9399 52.3491 69.4899C53.0791 69.9299 53.8791 70.2399 54.6791 70.5799C56.1091 71.1799 59.1791 71.3099 60.7891 70.4599C63.4291 69.0699 63.2491 68.9499 64.8091 66.8099C65.3291 66.0799 65.7291 65.3899 65.8791 64.4699C65.9791 63.8799 66.1591 63.2299 66.2191 62.6399C66.3391 61.3799 66.4591 60.0899 66.2391 58.8499L65.7491 56.0199C65.6091 55.2199 65.4491 54.5499 65.0791 53.8499L63.8391 51.5299C63.3291 50.5699 62.2191 49.1299 61.4791 48.2699C60.5091 47.1299 59.3991 46.1299 58.2691 45.1499L56.9191 43.9899L54.8391 42.3499C53.5191 41.2999 52.0691 40.4399 50.8291 39.2699L48.0291 36.6199C47.1591 35.7899 46.4691 34.8299 45.7191 33.8799C43.4391 30.9999 44.2491 31.4899 42.8691 28.9199C41.9891 27.2599 41.1391 21.9899 41.5291 19.9999L42.3791 15.5999C42.4791 15.0699 42.8091 14.5499 43.0591 14.0799C44.7491 10.7999 47.3291 8.06991 51.0091 7.07991C52.2991 6.72991 53.5391 6.48991 54.9091 6.53991C55.9091 6.57991 56.9191 6.53991 57.8691 6.84991C58.7791 7.15991 59.7691 7.36991 60.6091 7.80991C61.5391 8.29991 62.3891 8.83991 63.2491 9.45991C64.1691 10.1299 65.3891 10.8599 66.5391 10.1599C67.6391 9.47991 67.4291 7.59991 68.5191 6.75991C68.7591 6.57991 69.4791 6.58991 69.6791 6.80991C70.3691 7.53991 70.1591 8.46991 69.9391 9.32991C69.6991 10.2899 69.9091 11.3299 69.8891 12.2799C69.8591 13.1599 69.9091 13.9599 69.9191 14.8399L70.0191 23.3899L70.1691 26.0499C70.2091 26.7899 70.4091 27.6299 69.8391 28.2699C69.3791 28.7899 68.5591 28.5399 68.1391 27.9799C67.6991 27.3799 67.6791 26.5299 67.5491 25.7799L67.2191 23.9299C67.0191 22.7999 66.6791 21.8299 66.2191 20.7899C65.8791 20.0399 65.6791 19.1599 65.2891 18.4499L64.1791 16.4399C63.2291 14.6999 61.8491 13.1899 60.2091 12.0099C59.4191 11.4299 56.9091 10.1599 55.8091 10.2499C54.9591 10.3299 54.0891 10.3699 53.3091 10.5999C51.3891 11.1799 49.9791 12.6799 48.9091 14.2799C48.3991 15.0399 48.1491 15.7699 47.9991 16.6599L47.7491 18.1899C47.6491 18.8399 47.6491 19.4999 47.7291 20.1599L48.0191 22.4099C48.1291 23.2399 48.3691 24.0399 48.7491 24.7899L49.5591 26.3599L51.2191 28.9999C51.4791 29.4199 51.9491 29.8599 52.2791 30.2699C52.9291 31.0799 53.6291 31.7599 54.3891 32.4499L55.9991 33.9199L59.1491 36.3999L64.7291 41.0099C66.5491 42.5199 69.5691 45.9099 70.4291 48.1799C70.5991 48.6099 71.0591 49.1299 71.2091 49.5599C71.8291 51.4799 72.6291 54.6099 72.6391 56.5999C72.6391 56.8899 72.6791 57.1499 72.7791 57.3299" fill="#90BEFB"/>
</svg>
