<svg width="355" height="355" viewBox="0 0 355 355" fill="none" xmlns="http://www.w3.org/2000/svg">
<path d="M268.974 100.215C268.714 98.7747 268.124 97.2947 268.114 95.9047L267.994 81.7147C267.984 80.5747 267.634 79.2947 267.904 78.2047C268.244 76.8547 267.924 75.9547 267.464 74.7147C267.054 73.6247 268.184 72.2847 268.194 71.1547L268.354 60.1947C268.414 56.3647 271.474 52.9047 275.384 52.7847C276.484 52.7547 277.674 53.1247 278.714 52.9847C279.914 52.8147 280.444 53.4147 281.104 54.2347L282.844 55.7147C284.764 57.3347 284.184 62.4547 284.174 64.6547L284.094 91.8247C284.424 93.0747 284.214 94.2247 284.344 95.4947C284.494 96.9747 285.204 98.4547 285.744 99.8047C286.614 101.965 287.784 103.665 289.294 105.405C290.854 107.195 292.014 109.455 294.294 110.415L296.834 111.485L300.314 113.145C301.624 113.765 302.964 113.815 304.364 114.005C308.934 114.645 313.144 113.725 317.154 111.585C318.504 110.865 319.894 110.545 321.034 109.405C322.044 108.395 323.034 107.425 323.924 106.305L325.594 104.175C326.884 102.535 327.724 100.795 328.534 98.8547C329.274 97.0947 329.794 95.4647 329.564 93.4547C329.434 92.3847 329.774 91.2347 329.774 90.1247L329.814 58.8647C329.814 57.6347 330.584 56.6147 331.164 55.7147C331.784 54.7547 332.684 54.2447 333.544 53.6147C335.214 52.3847 336.774 52.1147 338.844 52.4047C341.134 52.7347 343.004 53.6647 344.464 55.5247C345.234 56.5047 345.844 57.4447 345.934 58.7747L346.164 61.8847C346.424 65.5047 345.794 66.2647 346.204 70.2247C346.374 71.8847 346.284 73.4547 346.204 75.1347C346.024 78.9247 346.024 82.7247 346.184 86.5647C346.454 92.6947 346.094 96.7247 344.294 102.525L342.864 107.135C341.964 110.025 340.434 111.155 339.374 112.825L337.914 115.135C337.034 116.525 335.844 117.645 334.714 118.865C334.364 119.245 329.774 123.105 329.124 123.565C324.134 127.085 318.104 129.185 312.014 129.975C309.384 130.315 307.064 130.555 304.494 130.305C302.234 130.085 299.924 130.045 297.694 129.235L291.054 126.805C289.104 126.095 287.464 124.925 285.724 123.955C284.654 123.355 283.814 122.625 282.874 121.835C282.054 121.135 281.084 120.525 280.314 119.725L276.294 115.515C273.304 112.385 274.124 111.985 272.974 110.825C271.964 109.815 271.664 108.705 271.164 107.445C270.234 105.075 269.434 102.835 268.964 100.205" fill="#90BEFB"/>
<path d="M169.033 22.1148C159.963 13.0448 145.243 13.0648 136.153 22.1548C127.063 31.2448 127.043 45.9648 136.113 55.0348C145.183 64.1048 159.903 64.0848 168.993 54.9948C178.083 45.9048 178.103 31.1848 169.033 22.1148ZM127.433 9.32475C127.503 9.32475 127.963 9.13475 128.073 9.00475C129.233 7.60475 131.033 6.57475 132.583 5.66475C135.903 3.73475 137.233 2.95475 140.963 1.83475C144.413 0.794751 147.793 0.0547513 151.373 0.00475134C156.373 -0.0652487 161.033 0.634751 165.713 2.33475C170.063 3.91475 173.153 5.79475 176.763 8.74475L178.643 10.2848C179.433 10.9348 180.073 11.5648 180.713 12.3548L182.103 14.0848L183.953 16.4448C185.613 18.5548 186.913 20.7448 187.923 23.2448C190.513 29.6448 190.533 30.7748 191.183 37.5848C191.403 39.9348 190.863 42.1648 190.643 44.4948C190.343 47.5348 189.123 50.8148 188.033 53.6748C187.333 55.5248 186.383 57.0548 185.283 58.7348C181.033 65.2348 178.283 67.8248 171.643 71.8948C170.343 72.6948 169.233 73.3848 167.833 73.9448L164.663 75.2148L162.423 75.9248C160.443 76.5548 157.323 77.0748 155.213 77.0848H150.163C149.293 77.0948 148.213 76.9747 147.353 76.8447L144.163 76.3748C143.543 76.2848 142.753 75.8748 142.123 75.7348C140.873 75.4348 139.783 74.9748 138.613 74.5448C136.693 73.8348 135.033 73.0448 133.273 71.9048C132.033 71.0948 130.533 70.6648 129.393 69.6348L127.373 67.8148C124.863 65.5548 121.513 62.3048 119.963 59.3848C119.483 58.4848 119.073 57.5448 118.483 56.7448C117.503 55.4048 117.163 54.0048 116.593 52.5048C116.123 51.2748 115.573 50.0548 115.253 48.7048L114.523 45.5548C113.723 42.1048 113.733 37.1048 114.243 33.5848C115.013 28.3548 117.033 22.6948 119.883 18.2748L122.503 14.2048L127.393 9.31475L127.433 9.32475Z" fill="#90BEFB"/>
<path d="M37.8935 97.4947C39.2335 97.3647 40.6435 98.0147 41.8635 98.3947C43.0235 98.7547 43.7735 99.5647 44.5035 100.465C47.0235 103.565 46.2635 109.395 42.6235 111.665C40.5335 112.965 38.3235 113.045 35.8935 113.055C31.7335 113.065 24.4135 116.875 22.1935 119.605L18.6135 123.995C17.6735 125.145 16.7235 127.215 18.0535 128.365C19.1635 129.325 20.8235 128.615 22.1435 128.615L51.0135 128.645C53.1235 128.645 54.8635 128.345 56.9335 127.715C57.6835 127.485 58.8435 127.985 59.6435 128.065C61.0835 128.205 62.4735 128.085 63.8635 128.105C65.2535 128.125 66.6435 128.195 68.0135 128.075C71.3235 127.765 73.0635 128.365 75.0735 130.705C76.4235 132.275 77.4135 133.715 77.4735 135.955C77.5735 139.205 77.3535 140.635 76.7335 143.895C76.0835 147.305 73.9635 152.635 72.2635 155.725C71.1535 157.735 69.6335 159.435 68.3035 161.325C67.1235 163.005 65.8635 164.455 64.1635 165.675C63.2635 166.325 62.5335 167.135 61.5835 167.755L57.7935 170.195C56.5535 170.995 55.5535 171.755 54.0835 172.095C53.0535 172.335 52.0335 172.875 51.0035 173.205C48.2535 174.085 45.4935 174.635 42.6035 175.045C41.9235 175.145 41.1435 175.095 40.4035 175.145C38.9735 175.245 37.2535 175.765 35.8935 175.115C34.1035 174.255 32.4935 172.825 31.2935 171.325C30.2835 170.055 30.4335 168.355 30.3435 166.895C30.1235 163.365 32.1635 161.525 34.7835 159.735C37.0935 158.155 38.5835 159.765 44.1735 158.175C46.9935 157.375 49.3635 155.955 51.7635 154.425C55.9735 151.735 55.6435 150.135 58.4135 147.435C58.7835 147.075 58.9635 146.225 58.9535 145.655C58.8935 143.415 54.6935 144.375 54.6435 144.375L38.4535 144.445C37.6935 144.445 36.9635 144.815 36.2535 144.305C35.3235 143.625 34.2235 143.405 33.0435 143.495L30.5735 143.675C26.9235 143.945 23.0035 143.575 19.4335 143.675C15.3135 143.795 11.3535 143.795 7.23349 143.675C3.81349 143.575 0.583488 141.175 0.133488 137.725C-0.376512 133.785 0.663488 128.105 1.75349 124.275C2.07349 123.155 2.65349 122.015 3.07349 120.935C6.21349 112.895 12.9935 105.665 20.7035 101.785C21.7035 101.285 22.5435 100.555 23.7035 100.365C24.6435 100.205 25.5135 99.8647 26.3835 99.4747C28.1935 98.6547 33.7335 97.9247 35.9535 97.7047L37.9335 97.5147L37.8935 97.4947Z" fill="#90BEFB"/>
<path d="M322.313 204.975C320.873 204.415 319.453 204.485 318.043 204.365C315.233 204.135 312.583 204.265 309.903 205.215C306.943 206.255 304.223 207.565 301.853 209.675C300.533 210.845 299.203 212.065 298.103 213.445C296.503 215.455 295.113 217.675 294.313 220.095C293.733 221.875 293.103 223.685 293.093 225.585L292.993 259.785C292.993 261.425 291.523 263.295 290.413 264.245C289.583 264.945 288.483 265.465 287.423 265.795C282.983 267.145 278.003 263.725 277.993 258.855L277.923 225.395C277.923 224.155 278.903 218.845 279.293 217.355C281.533 208.815 285.803 203.225 292.273 197.465C294.333 195.625 298.973 193.015 301.623 192.045C308.493 189.525 311.943 188.835 319.293 189.185C324.123 189.425 330.083 191.315 334.413 193.445C336.443 194.445 340.203 197.095 341.893 198.675L344.773 201.365C347.683 204.085 349.823 207.955 351.603 211.475C352.253 212.755 352.583 214.085 353.063 215.415C353.953 217.955 354.613 220.355 354.733 223.085C354.823 225.045 355.113 229.015 354.373 230.645C352.883 233.935 349.473 235.585 346.073 235.035C343.563 234.625 341.773 233.195 340.703 230.975C340.283 230.095 339.733 229.225 339.713 228.195L339.633 223.805C339.523 217.495 332.573 209.795 325.933 206.385C324.853 205.825 323.583 205.475 322.333 204.985" fill="#90BEFB"/>
<path d="M244.534 339.275C247.994 339.285 250.854 342.175 251.554 345.425C252.444 349.505 249.264 354.255 244.754 354.265L210.494 354.345C209.254 354.345 202.984 353.185 201.604 352.725C196.744 351.085 192.154 348.925 188.354 345.485L186.354 343.675C179.544 337.505 175.654 328.775 174.644 319.665C174.364 317.175 174.564 314.685 174.664 312.235C174.804 308.725 176.264 304.395 177.534 301.035C179.664 295.415 183.894 290.275 188.364 286.255C189.404 285.315 190.624 284.495 191.794 283.695C193.284 282.675 194.874 281.975 196.444 281.185C197.534 280.635 198.524 280.085 199.714 279.805C204.944 278.545 201.174 278.625 208.214 277.835C210.794 277.545 213.324 277.405 215.824 278.015C216.884 278.275 217.614 279.065 218.324 279.745C219.544 280.905 220.254 282.135 220.534 283.845C221.014 286.755 219.774 290.105 217.104 291.405C216.034 291.925 214.964 292.635 213.774 292.725C212.284 292.835 210.794 292.625 209.334 292.815C205.054 293.385 200.064 296.335 196.944 299.305C195.184 300.985 193.054 304.085 191.914 306.265C191.224 307.595 190.794 309.035 190.274 310.455C189.694 312.045 189.554 317.385 189.914 319.485C190.934 325.315 194.244 330.565 198.854 334.265C201.684 336.535 206.954 339.135 210.434 339.155L244.494 339.275H244.534Z" fill="#90BEFB"/>
<path d="M59.6232 293.595C60.0532 293.295 60.7032 292.565 60.7432 291.845C60.8432 289.845 60.8432 287.935 60.7432 285.925C60.7032 285.135 60.4932 284.275 60.6532 283.515C60.8432 282.615 60.7132 281.835 60.6532 280.835C60.5232 277.705 60.5132 274.685 60.6532 271.675C60.7132 270.335 60.8432 269.155 60.6332 267.805C60.5132 267.005 60.5332 266.015 60.6332 265.195C60.7532 264.225 60.6332 263.425 60.6332 262.485L60.5532 254.455C60.5532 254.005 60.0532 253.065 59.6232 252.985C58.3332 252.755 57.0532 253.475 56.3332 254.465C55.5332 255.565 54.5532 256.215 53.4632 256.955C50.9532 258.655 49.6232 261.365 48.2132 263.955C46.9132 266.335 46.2632 268.595 46.2032 271.335C46.1632 273.085 45.8432 275.115 46.2632 276.845C46.6432 278.355 46.9632 279.875 47.4532 281.295C48.4232 284.075 50.2832 286.535 52.0232 288.835C52.8932 289.975 54.1232 290.665 55.1132 291.575L57.4432 293.735C57.9332 294.195 59.0632 293.955 59.5932 293.595M65.2432 312.435L61.9132 311.975C59.8232 311.675 57.8732 310.935 55.8632 310.295C53.9532 309.685 51.9932 309.125 50.3532 307.995L47.1332 305.805C46.2632 305.215 45.1832 304.625 44.3232 303.945C42.4932 302.495 40.9732 300.635 39.3532 298.945C35.8132 295.265 33.8932 291.435 32.1632 286.725C31.3132 284.405 30.8032 282.055 30.3232 279.635C29.9532 277.755 29.5432 276.035 29.6332 274.085C29.7532 271.195 30.7232 264.875 31.5132 262.325C32.0332 260.675 32.5232 258.905 33.2932 257.425L35.0632 254.065C38.1532 248.165 38.0432 250.125 39.3932 248.205C40.2532 246.955 41.1932 246.045 42.2132 244.985C43.2332 243.925 44.1332 243.085 45.3432 242.295L49.0932 239.825C50.1932 239.105 51.2432 238.515 52.4632 238.045L56.3232 236.575L59.7432 235.325C61.2332 234.785 62.7632 234.585 64.3432 234.545L66.5832 234.475C69.7632 234.395 72.3132 234.595 74.6932 236.995C75.2732 237.585 76.0932 238.245 76.3432 239.085C77.1832 241.935 77.2032 244.285 76.9232 247.255C76.7732 248.895 76.8332 250.445 76.9232 252.085C77.1232 255.445 76.9232 258.815 76.9532 262.205L76.9832 264.345V287.685L76.7832 291.935C76.7132 293.245 76.8032 294.835 77.9032 295.735C79.1932 296.785 81.0432 296.745 82.6132 296.415C87.0332 295.465 89.6532 297.765 90.8632 295.515C91.3232 294.645 91.4632 293.465 91.5832 292.425C91.7932 290.615 91.2232 290.465 91.5532 287.715C91.6932 286.605 91.6332 285.655 91.5632 284.535C91.4132 282.275 91.4232 279.995 91.5932 277.755C91.9132 273.335 91.0532 272.235 92.9632 269.315C95.1132 266.025 97.6132 265.075 101.523 265.485C103.203 265.665 104.183 266.555 105.173 267.725C108.133 271.235 108.243 272.995 107.863 278.065C107.803 279.025 107.903 279.835 107.903 280.795V304.285C107.903 306.905 106.423 308.865 104.843 310.615C102.793 312.875 102.943 311.615 100.833 312.645H67.0232C66.5632 312.375 65.8932 312.515 65.2332 312.425" fill="#90BEFB"/>
</svg>
