<svg width="885" height="317" viewBox="0 0 885 317" fill="none" xmlns="http://www.w3.org/2000/svg">
<path d="M328.57 261.877C329.25 261.207 330.15 260.777 330.05 259.587C330 259.007 329.37 258.407 328.92 257.967L323.86 252.987C323.37 252.507 322.68 252.097 322.34 251.517C321.77 250.527 321.88 249.427 322.68 248.657L325.52 245.897L329.41 241.907C329.81 241.497 330.49 240.497 329.89 239.897L323.79 233.777L322.78 232.767L315.25 225.247C314.72 224.717 314.1 223.917 313.41 223.747C311.92 223.997 311.23 225.257 310.3 226.217L305.64 231.027C304.63 232.077 303.09 231.967 302.15 230.897C301.83 230.537 301.48 230.027 301.15 229.697L295.66 224.157C294.93 223.417 293.99 223.647 293.31 224.337L292.01 225.657L287.23 230.517C286.59 231.167 286.06 232.117 284.9 231.867C283.84 231.637 282.99 230.897 282.41 229.967C282.05 229.397 281.49 229.007 281.01 228.547L276.21 223.917C275.42 223.157 274.27 224.297 273.75 224.837C272.48 226.167 271.32 227.347 269.99 228.537C269.23 229.217 268.42 229.967 267.76 230.707C266.87 231.717 267.79 232.717 268.51 233.427L272.26 237.127C273.27 238.127 274.59 239.027 275.37 240.197C276.2 241.437 275.02 242.787 274.12 243.497C272.84 244.497 271.92 245.707 270.81 246.847L269.82 247.857L267.99 249.667C267.59 250.057 267.25 250.747 267.39 251.267C267.53 251.807 267.98 252.197 268.41 252.617L273.77 257.887C274.21 258.327 274.93 258.697 275.24 259.197C275.8 260.087 275.75 261.157 274.97 261.887L270.96 265.667L269.26 267.407C268.9 267.777 268.42 268.177 268.01 268.547C267.19 269.277 267.08 270.387 267.98 271.167C270.02 272.937 272.59 276.017 273.88 277.057C274.78 277.777 275.78 278.617 275.55 279.947C275.32 281.247 273.22 282.537 271.71 284.097L268.16 287.777C267.5 288.467 267.06 289.127 266.03 289.127C265.04 289.127 264.36 288.657 263.8 287.727C263.45 287.147 262.83 286.657 262.35 286.177L258.54 282.357L256.71 280.567L255.21 279.057L250.93 274.707L249.08 272.947C248.47 272.367 247.94 271.877 247.22 271.337C246.58 270.857 246.12 269.817 246.16 269.007C246.22 267.897 247.2 267.397 247.89 266.737L250.78 263.997L252.81 262.007C253.28 261.547 253.79 261.127 254.24 260.597C254.62 260.157 254.49 259.137 254.06 258.727L247.98 252.987C246.78 251.857 245.47 250.707 246.66 248.947C246.96 248.507 247.58 247.977 248.01 247.557L252.48 243.177L253.69 242.157C254.11 241.807 254.4 241.217 254.45 240.657C254.49 240.217 254.05 239.617 253.66 239.247L248.5 234.347C247.79 233.677 246.76 233.007 246.4 232.127C245.75 230.527 246.84 229.497 247.88 228.537L253.19 223.617C253.64 223.197 254.38 222.497 254.44 221.977C254.57 220.727 253.61 220.177 252.89 219.537C250.9 217.797 249.96 216.237 247.4 213.987C246.82 213.477 246.23 212.837 246.13 212.127C245.99 211.237 246.48 210.507 247.14 209.927L249.39 207.957C250 207.417 250.57 206.857 251.13 206.287L252.73 204.657C253.08 204.297 253.62 203.927 254.05 203.577C254.79 202.977 254.66 201.777 253.98 201.187L252.89 200.247L249.11 196.627L247.27 195.017C246.2 194.077 245.57 192.437 246.83 191.327C248.03 190.277 249.19 189.187 250.36 188.057L252.29 186.177C253.78 184.727 254.64 184.377 254.54 183.107C254.47 182.327 253.81 181.987 253.23 181.427L248 176.457C247.17 175.667 246.12 175.057 246.1 173.717C246.1 172.617 247.07 172.117 247.79 171.437L251.48 167.927L253.39 166.217C254.02 165.657 254.55 165.237 254.55 164.397C254.55 163.547 253.98 163.167 253.37 162.577L247.87 157.287C247.12 156.567 246.25 156.287 246.22 155.337C246.18 154.187 246.37 153.517 247.21 152.777C249.04 151.167 250.56 149.317 252.46 147.787L253.97 146.567C254.95 145.777 254.54 144.657 253.78 143.937L250.79 141.117C249.82 140.207 248.9 139.217 247.88 138.407C247.11 137.797 246.32 137.307 246.25 136.467C246.15 135.267 246.44 134.497 247.28 133.757C248.6 132.597 249.79 131.327 251.01 130.067L253.01 128.017C253.7 127.307 254.49 126.177 255.43 125.887C256.88 125.447 257.62 126.797 258.43 127.627L262.5 131.847L264.49 133.817L266.32 135.617C266.98 136.267 267.71 136.967 268.2 137.757L268.15 153.517C268.08 153.907 267.33 154.597 267.33 154.967C267.33 155.447 267.75 156.107 268.16 156.567L268.19 170.037L270.9 170.147C269.85 171.297 269.08 172.087 268.09 172.987C267.61 173.427 267 174.577 267.56 175.127L273.38 180.957L274.59 181.987C275.15 182.457 275.62 183.317 275.59 184.027C275.56 184.737 275.05 185.517 274.47 186.007C272.54 187.627 270.91 189.357 269.21 191.207C268.57 191.907 267.46 192.457 267.48 193.587C267.5 194.707 268.51 195.257 269.24 195.977L283.63 210.247C284.58 211.187 285.81 209.727 286.35 209.167L291.67 203.617C292.58 202.667 293.5 201.607 294.96 202.457C295.46 202.747 296.04 203.537 296.52 204.027L301.84 209.547C302.23 209.957 302.66 210.407 303.18 210.537C303.61 210.647 304.32 210.197 304.7 209.807L308.48 205.947C309.2 205.217 309.77 204.477 310.63 203.857C311.09 203.517 311.45 202.867 311.42 202.327C311.4 201.837 310.98 201.247 310.53 200.877C309.65 200.157 308.93 199.437 308.15 198.637L306.74 197.197C306.09 196.537 305.3 195.807 304.58 195.207C303.77 194.527 303.18 193.997 303.08 193.117C302.94 191.787 303.68 191.477 304.49 190.677L314.93 180.277L317.31 177.827L318.5 176.597L320.71 174.417L322.65 172.527L323.74 171.407L325.22 169.867L327.11 167.947C327.82 167.217 328.49 166.547 329.29 165.907C329.89 165.437 330.16 164.777 330.07 163.977C330 163.367 329.37 162.957 328.82 162.467C328.05 161.777 327.36 160.997 326.62 160.237L324.65 158.207C323.01 156.507 321.97 156.317 321.96 154.727C321.96 153.847 322.38 153.287 323.08 152.667C325.34 150.667 327.9 147.957 329.91 145.627C330.42 145.037 331.28 144.897 332.09 144.997C332.82 145.087 333.3 145.757 333.86 146.387L335.28 147.987C335.65 148.407 336.09 148.767 336.5 149.177L344.27 156.837L346.18 158.777L348.41 160.947L349.67 162.177L349.7 167.027C348.57 168.387 347.28 169.577 346.07 170.847C345.43 171.517 344.93 172.227 344.19 172.817C343.63 173.247 342.55 174.157 343.22 175.027C344.01 176.047 345.14 176.987 346.08 177.957C347.56 179.487 348.97 180.867 350.61 182.207C351.35 182.807 351.72 184.367 351.05 185.057L344.9 191.367C344.01 192.287 343.5 193.607 342 193.737C341.03 193.817 340.01 193.037 339.43 192.227C338.82 191.377 338.07 190.797 337.36 190.077L336.15 188.847L333.49 186.087C333.17 185.757 332.68 185.327 332.33 185.307C331.88 185.287 331.18 185.617 330.88 185.997C329.81 187.357 328.79 188.537 327.59 189.747L324.59 192.747C323.73 193.607 324.86 194.627 325.41 195.157L330.61 200.257C331.37 201.007 332.71 201.827 332.73 203.037C332.75 204.517 331.23 205.297 330.37 206.157L328.25 208.277L326.5 209.947L325.02 211.307C324.72 211.577 324.38 212.167 324.36 212.557C324.34 213.047 324.86 213.427 325.26 213.827L340.31 228.857L342.36 230.857L344.09 232.547L345.26 233.787C346.54 235.137 347.81 236.437 349.19 237.677L350.99 239.297C351.98 240.187 352.32 241.497 351.28 242.587C350.88 243.007 350.24 243.427 349.79 243.857L347.33 246.227C346.15 247.367 345.12 248.517 343.84 249.557C343.4 249.917 342.99 250.537 343.07 251.087C343.13 251.507 343.62 252.117 344.03 252.457C346.65 254.667 347.37 255.957 349.81 257.927C351.03 258.907 352.01 260.297 350.83 261.827C350.52 262.237 349.8 262.707 349.38 263.117L344.28 268.077C343.76 268.577 342.35 269.667 343.26 270.547L349.38 276.427L351.06 277.777C351.66 278.257 351.79 279.197 351.73 279.997C351.68 280.657 350.95 281.097 350.39 281.627L346.71 285.167L343.52 288.377C342.63 289.277 341.14 289.427 340.31 288.507L338.58 286.587L324.05 272.067C323.42 271.437 322.58 271.107 322.16 270.267C321.12 268.167 323.28 267.027 324.02 266.297L328.53 261.877H328.57Z" fill="#90BEFB"/>
<path d="M420.53 100.807C418.82 99.107 419.24 98.557 417.54 98.227C416.82 98.087 416.23 98.727 415.67 99.317L411.91 103.187C411.2 103.917 410.61 104.647 409.95 105.477C409.21 106.417 407.48 106.947 406.56 105.957L403.57 102.737C402.5 101.587 401.39 100.687 400.36 99.477C399.73 98.737 398.47 97.427 397.45 98.407L391.53 104.117C390.97 104.657 389.56 105.737 390.43 106.617L396.42 112.667C397.25 113.507 398.38 114.127 398.8 115.257C399.48 117.087 397.21 118.097 395.42 119.827L390.72 124.397C390.44 124.667 390.14 125.247 390.17 125.587C390.19 125.897 390.55 126.387 390.84 126.667L395.92 131.457C396.74 132.227 397.69 132.887 398.43 133.737C399.2 134.617 398.95 135.887 398.1 136.597L396.02 138.347L392.65 141.587L390.75 143.307C390.21 143.797 389.84 144.547 390.4 145.207C391.08 145.997 391.9 146.647 392.65 147.377L396.32 150.907L398.16 152.507C399.17 153.387 399.15 154.837 398.12 155.707L396.37 157.167L391.34 161.977C390.94 162.357 390.14 162.797 390.23 163.457C390.39 164.617 391.39 165.257 392.14 165.957L394.22 167.907L395.33 168.997C396.41 170.057 397.76 170.857 398.64 172.097C399.24 172.947 398.74 174.277 398 174.857L396.31 176.177L391.95 180.467C391.46 180.947 390.66 181.417 390.32 182.007C389.86 182.787 390.5 183.627 391.07 184.087C393.5 186.067 394.83 187.807 397.45 189.957C398.24 190.607 398.88 191.077 398.91 192.087C398.95 193.147 398.2 193.707 397.41 194.387C395.56 195.967 392.89 198.627 391.32 200.547C390.53 201.517 389.13 202.767 387.79 201.787C386.75 201.027 384.48 198.477 383.4 197.377L380.4 194.337L376 189.927L371.16 185.117C370.69 184.657 369.95 184.207 369.55 183.777C368.53 182.697 368.77 181.417 369.75 180.547L371.57 178.927L373.18 177.327L376.76 173.727C377.36 173.127 377.2 172.227 376.72 171.727L372.74 167.677C372.19 167.117 371.72 166.577 371.12 166.057C369.79 164.917 368.04 163.597 369.32 161.827C369.92 160.997 370.79 160.457 371.46 159.737L374.19 156.837C374.92 156.067 375.62 155.377 376.42 154.637C376.8 154.287 377.19 153.727 377.2 153.287C377.22 152.797 376.93 152.157 376.55 151.837L375.33 150.807L370.16 145.747C369.59 145.187 368.97 144.717 368.91 144.017C368.84 143.257 369.13 142.267 369.79 141.827C371 141.027 371.87 140.067 372.87 139.047L374.56 137.337L376.6 135.377C377.33 134.677 377.35 133.727 376.6 133.037L374.95 131.507L372.96 129.467C372.07 128.557 371.2 127.617 370.23 126.787C369.54 126.197 368.96 125.627 368.91 124.737C368.83 123.077 370.48 122.387 371.05 121.817L375.69 117.197C376.14 116.747 376.92 116.217 377.1 115.667C377.47 114.557 376.51 114.047 375.91 113.457L370.23 107.927C369.47 107.187 368.93 106.737 368.85 105.717C368.77 104.557 369.49 104.267 370.25 103.527L376.71 97.187C377.48 96.427 377.16 95.437 376.52 94.817L374.28 92.637L371.25 89.627C370.55 88.937 369.64 88.357 369.19 87.507C368.73 86.647 368.86 85.767 369.54 85.137L371.1 83.687L372.84 82.027L374.64 80.197L376.98 77.717C377.5 77.167 378.47 76.337 379.25 76.587C380.58 76.997 381.33 78.297 382.23 79.237L385.88 83.017L387.3 84.617C387.51 84.857 388.33 85.007 388.64 84.927C388.99 84.837 389.36 84.367 389.69 84.017L392.02 81.527L393.4 80.107C394.16 79.327 394.81 78.637 395.51 77.757C395.99 77.147 396.96 76.537 397.82 76.577C398.52 76.617 399.21 77.347 399.69 77.857C401.91 80.217 404.08 82.557 406.44 84.737C407.29 85.517 408.17 84.467 408.68 83.947L413.67 78.877C414.56 77.977 415.33 76.697 416.78 76.547C418.56 76.887 419.11 78.357 421.03 80.247L422.76 81.937C423.73 82.887 424.62 84.217 425.8 84.857C426.76 85.377 427.44 84.227 427.93 83.727L432.51 79.047C433.2 78.347 433.78 77.467 434.62 76.957C436.76 75.677 437.77 78.047 439.11 79.397L440.62 80.917L442.6 82.947L447.11 87.507L449.26 89.587L450.83 91.217L453.12 93.487L456.97 97.347L473.02 113.387C473.85 114.217 474.65 114.517 474.63 115.787C474.62 116.967 473.92 117.597 473.04 118.397C470.96 120.307 468.99 122.337 467.02 124.357C466.36 125.037 466.44 125.997 467.05 126.607L470.97 130.517C471.88 131.417 472.86 132.247 473.8 133.087C474.99 134.147 474.81 135.877 473.68 136.867C472.99 137.467 472.33 138.067 471.68 138.707L467.25 143.047C466.48 143.807 466.35 144.907 467.09 145.647L474.52 153.077C474.93 155.777 473.73 155.787 472.62 156.897L466.98 162.507C466.45 163.037 466.33 163.967 466.89 164.507L468.62 166.207C470.3 167.857 471.84 169.487 473.66 171.017C474.87 172.027 475.02 174.027 473.66 175.007C472.73 175.677 470.86 177.557 470.07 178.457C468.99 179.667 467.64 180.787 466.69 182.017C465.87 183.077 467.22 184.037 467.84 184.637L473.05 189.657C473.9 190.477 474.63 190.957 474.65 192.077C474.67 193.287 474.01 193.807 473.14 194.597C471.58 196.017 470.04 197.497 468.65 199.087L466.59 201.457C465.81 202.357 464.31 202.447 463.57 201.597L462.24 200.057L446.79 184.647C445.86 183.717 444.72 182.967 445.39 181.407C445.82 180.407 446.96 179.647 447.78 178.847L452.25 174.487C452.78 173.977 453.33 173.537 453.34 172.797C453.34 172.057 452.78 171.617 452.25 171.107L447.26 166.257C446.47 165.487 445.25 164.697 444.92 163.627C444.47 162.137 445.81 160.977 446.85 160.257C447.35 159.907 447.75 159.377 448.17 158.957L449.86 157.247L451.81 155.357C452.24 154.937 452.84 154.397 453.16 153.967C453.96 152.877 453.04 152.047 452.28 151.407C450.16 149.627 448.82 147.767 446.67 146.007C445.88 145.357 445.24 144.667 445.23 143.737C445.21 142.417 446.08 142.137 446.85 141.387L452.34 136.037C452.87 135.517 453.42 134.967 453.43 134.307C453.43 133.447 452.85 133.077 452.27 132.537L446.27 126.937C445.47 126.187 444.75 125.717 444.79 124.627C444.84 123.477 445.6 123.027 446.43 122.267L452.27 116.897C452.78 116.427 453.39 115.997 453.45 115.327C453.55 114.087 452.24 113.457 450.87 112.077L448.97 110.157L447.38 108.527L438.51 99.557C437.9 98.937 437.53 98.237 436.72 98.167C435.67 98.087 435.24 98.727 434.59 99.437C433.29 100.857 431.93 102.207 430.53 103.567C428.37 105.657 428.58 106.537 426.68 106.507C425.72 106.497 425.24 105.787 424.56 105.017C423.86 104.227 423.09 103.397 422.36 102.667L420.52 100.847L420.53 100.807Z" fill="#90BEFB"/>
<path d="M576.06 76.037C575.88 76.787 575 77.317 574.48 77.857L572.61 79.797L570.65 81.677C570.19 82.107 569.75 82.657 569.2 83.007C568.42 83.497 567.92 84.207 567.83 84.967C567.68 86.097 568.41 86.597 569.09 87.267L575.65 93.777C576.04 94.157 576.13 95.337 575.73 95.737L571.88 99.717C570.86 100.777 569.96 101.767 568.81 102.707C568.26 103.157 567.82 103.997 567.83 104.647C567.83 106.217 569.41 107.037 570.5 108.127L573.21 110.837L575.25 112.817C575.81 113.367 576.21 114.227 575.68 115.017C575.33 115.557 574.63 115.977 574.16 116.447L569.69 120.917C569.1 121.507 568.67 122.337 567.63 122.177C567.14 122.107 566.65 121.397 566.27 120.997L561.46 115.937C560.54 114.967 559.07 113.237 557.63 114.427C555.57 116.107 553.65 118.067 551.76 119.957C550.97 120.737 550.4 121.467 549.47 122.177C548.57 122.847 546.77 120.377 545.85 119.487C545.05 118.697 544.22 117.967 543.44 117.127L541.29 114.817C540.86 114.367 540.04 113.937 539.45 113.967C538.88 113.997 538.1 114.457 537.69 114.937C535 117.997 533.75 118.757 531.1 121.597C530.54 122.187 529.7 122.447 529.03 121.847C528.43 121.307 527.91 120.587 527.31 119.967L518.34 110.887L516.46 108.957C515.75 108.227 515.1 107.567 514.29 106.887C513.64 106.347 512.84 105.477 512.97 104.527L519.01 98.497L520.32 97.367C521.12 96.687 521.69 95.367 520.95 94.367C520.6 93.897 520.04 93.377 519.57 92.987C518.74 92.287 518.05 91.567 517.31 90.797L515.74 89.167C515.05 88.447 512.53 86.627 512.93 85.507C513.06 85.167 513.44 84.697 513.76 84.417C515.47 82.897 516.88 81.277 518.56 79.777L520.47 78.077C521.11 77.517 521.62 76.357 521.1 75.537C520.39 74.457 519.24 73.657 518.37 72.727C516.71 70.947 515.07 69.337 513.27 67.747C512.74 67.267 512.75 66.327 513.27 65.827L520.96 58.287C521.91 57.357 520.93 55.747 520.12 55.127C519.11 54.357 518.45 53.607 517.65 52.727C516.42 51.397 515.16 50.167 513.85 48.897C513.51 48.567 513.06 48.137 513 47.787C512.92 47.347 513.18 46.547 513.53 46.267L514.66 45.347L520.31 39.727H522L528.1 45.877C528.7 46.487 529.26 47.417 530.06 47.657C531.65 48.127 532.32 46.987 533.23 46.027L538.21 40.807C538.74 40.257 539.13 39.697 539.83 39.647C540.63 39.587 541.21 40.037 541.78 40.657L543.44 42.397L545.12 44.127C545.81 44.827 546.52 45.567 547.14 46.287C547.83 47.087 548.33 47.707 549.23 47.777C550.51 47.897 550.88 47.197 551.68 46.387L557.32 40.627C557.9 40.027 558.29 39.617 559.1 39.617C560.5 39.617 560.54 40.467 562.19 42.117L564.09 44.017L568.12 48.037L574.84 54.767C575.35 55.277 575.99 55.567 576.06 56.307C576.13 57.017 575.71 57.707 575.12 58.197C572.79 60.147 571.59 61.747 569.35 63.657C568.55 64.347 567.87 65.017 567.82 66.097C567.78 67.167 568.58 67.797 569.37 68.487C570.11 69.127 570.85 69.827 571.51 70.497L574.93 73.967C575.47 74.507 576.28 75.087 576.05 76.027M594.06 118.727L596.53 116.547C597.09 116.047 597.54 115.287 597.49 114.517C597.46 113.927 596.95 113.177 596.45 112.737L594.33 110.807L591.6 108.117L589.77 106.347C589.07 105.667 588.87 104.707 589.59 103.997L594.14 99.497C594.67 98.967 595.19 98.437 595.82 97.997C596.69 97.397 597.42 96.657 597.5 95.427C597.54 94.827 596.81 94.017 596.34 93.547L590.71 88.117C589.81 87.247 588.48 85.877 589.75 84.647L594.93 79.637L596.55 78.217C597.19 77.647 597.45 76.867 597.4 75.947C597.33 74.767 595.64 73.777 594.23 72.377L589.88 68.067C589.21 67.397 588.82 66.317 589.71 65.477L593.3 62.107L596.92 58.707C597.56 58.107 597.46 57.057 597.34 56.377C597.16 55.447 596.31 55.267 595.67 54.617L587.63 46.637L585.94 44.907L584.32 43.307C581.31 40.357 579.26 38.067 576.22 35.157L574.88 33.877C574.5 33.517 574.12 32.987 573.72 32.667C573.17 32.217 572.81 31.727 572.31 31.227L561.32 20.157C560.46 19.287 559.79 17.987 558.4 17.827C557.12 17.677 556.2 18.957 555.49 19.847C554.95 20.527 554.44 21.067 553.88 21.647L551.58 24.007C550.87 24.747 550.21 25.827 549.26 26.277C548.36 26.717 547.69 25.757 547.23 25.227L545.82 23.607L542.74 20.267L541.43 18.727C540.73 17.927 539.27 17.417 538.43 18.267L535.73 20.987C534.26 22.467 532.84 23.797 531.47 25.377C531.17 25.717 530.54 26.347 530.13 26.377C529.2 26.437 528.64 25.537 528.14 25.017L525.5 22.217L523.93 20.597C522.92 19.557 522.26 18.087 520.61 17.827C519.91 17.717 518.91 18.387 518.46 18.947C517.64 19.957 516.87 20.797 515.97 21.697L514.56 23.097L511.75 26.077C510.43 27.487 508.85 24.617 507.96 23.697C506.62 22.327 505.25 21.107 504.03 19.597C503.38 18.797 502.51 17.867 501.46 17.837C499.99 17.787 499.43 19.097 498.59 19.997L495.39 23.397C494.85 23.977 494.38 24.507 493.77 25.017C492.82 25.817 491.15 27.137 491.9 28.507C492.49 29.587 493.41 30.347 494.31 31.127C495.21 31.907 496 32.777 496.86 33.667C497.92 34.777 499.26 35.857 500.22 37.107C500.22 38.457 499 39.067 498.19 39.857L493.42 44.517C492.84 45.087 491.92 45.587 491.79 46.497C491.62 47.647 492.42 48.587 493.24 49.257C496.4 51.857 496.63 52.877 498.92 54.847C499.47 55.327 500.49 55.917 500.12 56.887C499.83 57.667 498.86 58.347 498.19 58.907C497.54 59.467 497 60.137 496.39 60.727L493.11 63.887C492.56 64.417 491.95 64.887 491.81 65.517C491.62 66.437 491.93 67.067 492.51 67.647L498.79 73.847C499.29 74.337 500.65 75.157 500.07 76.067C499.25 77.337 497.87 78.357 496.82 79.427L495.52 80.757C494.76 81.537 494.16 82.247 493.16 82.897C492.37 83.397 491.03 85.077 492 86.057L499.95 94.147C500.28 94.477 500.27 95.307 499.95 95.627L495.38 100.307C494.84 100.857 494.36 101.407 493.77 101.917C492.6 102.927 490.82 104.377 492.24 106.077C492.88 106.837 493.77 107.377 494.47 108.067L497.88 111.477L498.9 112.477L501.19 114.807L512.93 126.547L515.39 128.927L517.24 130.857L522.37 135.987L524.8 138.367L526.53 140.067C527.2 140.727 527.92 141.527 528.51 142.237C529.3 143.157 529.78 143.807 531.05 143.737C532.06 143.677 532.47 142.897 533.23 142.117L538.47 136.567C539.09 135.917 539.37 135.307 540.29 135.377C541.12 135.437 541.53 135.917 542.11 136.557L544.11 138.767L547.66 142.617C548.34 143.357 548.93 143.787 549.91 143.727C550.82 143.657 551.19 142.957 551.85 142.257L557.24 136.657C557.86 136.017 558.28 135.387 559.17 135.387C560.06 135.387 560.49 135.997 561.09 136.657C563.2 139.027 564.99 140.407 566.9 142.907C567.38 143.537 568.33 143.827 569.14 143.657C569.83 143.497 570.37 142.867 570.94 142.267L576.24 136.767C576.89 136.097 577.33 135.477 578.27 135.407C579.22 135.337 579.62 136.117 580.26 136.777L584.92 141.537L586.16 143.107C586.6 143.667 587.67 143.827 588.41 143.637C588.91 143.517 589.41 142.857 589.89 142.357C591.86 140.287 593.83 138.297 595.9 136.357C596.73 135.577 597.59 135.137 597.49 133.917C597.41 132.987 596.98 132.157 596.07 131.557C595.49 131.177 593.89 129.547 593.31 128.937L591.95 127.477C591.38 126.877 590.84 126.397 590.13 125.847C589.52 125.357 588.66 124.137 589.37 123.387C590.91 121.767 592.45 120.177 594.12 118.697" fill="#90BEFB"/>
<path d="M739.13 64.1571C739.59 63.6071 740.47 63.1871 741.11 63.2071C741.86 63.2371 742.44 63.9371 742.95 64.4871L744.77 66.4771C745.38 67.1471 745.94 67.8471 746.67 68.3871C747.21 68.7971 747.56 69.3571 748.05 69.8471L760.65 82.4971C761.1 82.9471 761.29 84.0571 761.02 84.5171C760.55 85.3171 759.81 85.7571 759.19 86.3471L752.96 92.3471C751.42 93.8271 753.72 95.0171 755.14 96.4771L758.8 100.237C759.45 100.907 762.35 102.707 760.68 104.467C759.13 106.107 758.8 106.157 757.17 107.817L755.21 109.817L752.67 112.327C751.89 113.097 752.97 113.797 753.43 114.257L760.59 121.357C761.33 122.097 761.42 123.207 760.61 123.917L758.81 125.497L753.54 130.677C753.16 131.047 752.59 131.397 752.52 131.797C752.41 132.427 752.59 133.127 753.05 133.487C755.69 135.547 756.95 137.407 759.63 139.787C760.28 140.367 761 141.197 761.12 142.067C761.27 143.187 760.31 143.677 759.71 144.277L753.85 150.047C753.28 150.607 752.4 150.937 752.49 151.947C752.57 152.777 753.4 153.177 753.94 153.707L758.81 158.477C759.47 159.127 760.32 159.697 760.82 160.457C761.39 161.327 761.23 162.287 760.51 162.937L759.14 164.187C758.54 164.737 757.97 165.287 757.4 165.877L755.83 167.507L752.21 171.137L741.36 182.127C739.72 183.787 738.25 185.417 736.54 186.977C735.92 187.547 735.38 188.057 734.86 188.707L733.95 189.827C733.41 190.497 732.56 191.067 731.74 191.057C730.72 191.047 730.13 190.287 729.49 189.557C728.18 188.057 726.76 186.717 725.28 185.337C724.41 184.527 723.59 183.437 722.68 182.787C721.69 182.077 720.76 183.307 720.19 183.877L714.7 189.447C714.05 190.107 713.56 190.977 712.5 191.087C710.94 191.237 709.93 189.267 708.4 187.767L706.16 185.577C704.35 183.817 703.09 181.507 701.42 183.187L696.5 188.137C695.56 189.087 694.86 190.927 693.09 190.997C692.24 191.027 691.45 190.517 690.85 189.827C689.53 188.297 688.23 186.857 686.67 185.557C685.65 184.697 684.74 183.527 683.67 182.787C682.66 182.077 681.52 183.407 681 184.037C680.37 184.797 679.7 185.307 679.05 185.957L677.18 187.857L674.88 190.407C674.01 191.367 672.51 191.287 671.67 190.287C670.53 188.937 669.33 187.747 668.08 186.477L666.17 184.547C665.6 183.967 664.99 183.037 664.25 182.727C663.23 182.307 662.58 183.187 662 183.777L656.47 189.467C655.82 190.127 655.4 191.017 654.52 191.087C652.64 191.247 651.57 189.157 649.74 187.357L648.02 185.657L646.12 183.737L644.72 182.287L615.95 153.497C615.18 152.727 614.45 152.437 614.55 151.237C614.63 150.217 615.36 149.797 616.09 149.087L621.68 143.667C622.27 143.087 623.14 142.457 623.03 141.547C622.91 140.547 621.81 140.067 621.18 139.417L616.92 135.057C616.01 134.117 614.62 133.437 614.55 132.007C614.53 131.467 615.1 130.617 615.47 130.267L618.59 127.297L620.59 125.307L622.67 123.367C623.36 122.717 623.21 121.757 622.57 121.137L615.99 114.707C614.91 113.647 613.9 112.317 614.81 110.897C615.06 110.507 615.79 110.117 616.12 109.797L620.68 105.307L622.88 103.267C623.3 102.877 623.11 101.947 622.7 101.557L621.02 99.9771L619.23 98.1771C617.97 96.9071 616.82 95.6871 615.4 94.5671C614.83 94.1071 614.51 93.1571 614.6 92.5271C614.71 91.7571 615.21 91.1271 615.8 90.5971L617.71 88.8971L622.73 83.9171C623.42 83.2371 623 82.3971 622.48 81.8971L620.44 79.9171L618.58 78.1371L615.34 75.1571C614.68 74.5471 614.34 73.8571 614.44 72.9171C614.52 72.1871 615.25 71.5871 615.9 70.9971C617.82 69.2271 619.61 67.4171 621.43 65.5071C622.24 64.6571 622.94 63.4771 624.12 63.2071C625.34 62.9271 625.81 63.9471 626.5 64.6271L643.44 81.5471C644.08 82.1871 644.78 82.4671 644.82 83.3971C644.85 84.2271 644.5 84.9171 643.86 85.5071L641.15 88.0171L637.58 91.5071C637.02 92.0571 635.89 92.7471 636.22 93.7971L643.56 101.127C644.37 101.927 645.28 102.917 644.55 104.137C643.98 105.077 642.87 105.807 642.07 106.597L636.99 111.587C636.67 111.907 636.21 112.357 636.15 112.697C636.08 113.077 636.41 113.757 636.71 114.027C639.65 116.597 641.18 118.457 644 121.007C644.96 121.867 645.05 123.347 644 124.267L641.57 126.387L636.5 131.407C636.11 131.787 636.09 132.637 636.55 133.097L643.47 139.967C644.15 140.647 644.77 141.167 644.81 142.177C644.85 143.197 644.05 143.597 643.36 144.267L638.19 149.337C637.43 150.077 636.44 150.617 636.18 151.777C636.09 152.187 636.73 152.907 637.04 153.217L641.46 157.657L647.24 163.547L649.38 165.767L652.12 168.677C652.51 169.087 652.85 169.537 653.33 169.617C653.99 169.727 654.41 169.327 654.87 168.837L659.95 163.477C660.67 162.717 661.29 161.857 662.17 161.277C664.1 159.987 665.85 163.157 665.97 163.277L670.63 168.057C671.02 168.457 671.49 169.247 671.94 169.467C673.19 170.097 673.88 168.997 674.6 168.267L680.69 162.097C681.97 160.797 679.49 159.117 678.66 158.247C677.14 156.657 675.77 155.157 674.07 153.707C673.06 152.847 671.82 151.167 673.15 149.907C674.41 148.717 675.86 147.557 677.05 146.197C677.63 145.537 678.28 144.877 678.92 144.297L680.22 143.127C680.83 142.577 681.38 141.487 680.66 140.737L678.99 139.017L673.18 133.367C672.34 132.557 672.58 131.017 673.36 130.287L675.95 127.837L679.68 123.907C680.16 123.407 680.67 122.457 681.17 122.127C682.81 121.017 683.76 122.207 684.76 123.207L701.19 139.677C701.77 140.257 702.59 140.697 702.8 141.467C703.17 142.797 702.21 143.507 701.42 144.277L695.41 150.097C694.68 150.797 693.59 151.777 694.61 152.757L696.34 154.407L697.9 156.067L704.67 162.937L706.74 165.097L708.56 166.897C709.58 167.907 710.45 169.637 711.58 169.627C712.03 169.627 712.6 169.227 712.94 168.867L714.82 166.927L716.63 165.107C717.31 164.427 717.96 163.797 718.61 163.047C719.25 162.307 720.31 160.987 721.34 161.047C722.61 161.117 723.55 162.307 724.25 163.247C725.61 165.087 727.63 166.287 729.46 168.477C729.89 168.987 730.34 169.497 730.86 169.607C731.77 169.797 732.09 169.197 732.64 168.647L738.96 162.307C740.47 160.797 738.15 159.297 737.47 158.657C735.62 156.927 733.96 155.107 731.99 153.507C731.32 152.967 730.82 152.387 730.73 151.597C730.63 150.687 731.02 150.047 731.72 149.457L733.35 148.077C734.08 147.457 734.71 146.787 735.41 146.117L737.36 144.247C738 143.637 738.96 143.037 739.31 142.257C739.78 141.207 738.9 140.557 738.27 139.967L732.45 134.597C731.6 133.807 730.78 133.467 730.7 132.327C730.62 131.027 731.32 130.457 732.17 129.627L738.14 123.767C738.61 123.307 739.47 122.677 739.49 122.027C739.52 121.087 738.67 120.437 738.08 119.907L736.28 118.267L733.58 115.737C732.24 114.477 730.74 113.867 730.72 112.267C730.69 110.487 732.39 109.877 734.08 108.247L737.66 104.787C738.15 104.307 739.1 103.727 739.32 103.157C739.81 101.857 738.73 101.227 737.97 100.497L732.33 95.1471C731.55 94.3971 730.78 94.0571 730.71 92.9571C730.64 91.8471 731.25 91.1771 732.1 90.4071L737.57 85.4471C738.3 84.7871 739.33 84.1371 739.41 83.0671C739.49 82.0271 738.48 81.5371 737.87 80.9471L734.57 77.8071C733.71 76.9871 732.83 76.2371 731.91 75.4671C730.97 74.6871 730.35 73.5671 730.95 72.3871C731.35 71.6071 732.07 71.0971 732.68 70.5171L737.93 65.5071L739.09 64.1271L739.13 64.1571Z" fill="#90BEFB"/>
<path d="M883.74 305.207C884.64 307.487 882.87 308.147 881.3 309.757L879.7 311.387C878.35 312.757 877.15 314.147 875.91 315.627L874.97 316.287H873.76C872.84 315.927 872.41 315.057 871.68 314.327L856.34 298.997C855.59 298.237 854.56 297.837 854.48 296.557C854.37 294.867 856.76 293.407 858.1 291.997C859.21 290.837 860.19 289.797 861.47 288.717C862.11 288.187 863.09 286.977 862.32 286.127C861.36 285.067 860.28 284.047 859.22 283.037L854.64 278.617C852.67 276.727 856.15 274.427 856.46 274.117L860.27 270.297C861.8 268.757 862.91 268.317 862.72 267.027C862.64 266.437 862 265.987 861.49 265.497L855.99 260.187C855.29 259.517 854.53 258.927 854.5 257.947C854.47 256.937 855.12 256.277 855.91 255.677C857.19 254.697 858.23 253.457 859.37 252.317L861.09 250.597C861.52 250.167 862.32 249.647 862.56 249.167C863.13 247.997 862.27 247.337 861.61 246.717L855.91 241.377C855.25 240.767 854.27 240.137 854.1 239.237C853.82 237.777 854.98 237.117 855.83 236.327L859.58 232.867L860.61 231.867C861.17 231.327 862.05 230.817 862.5 230.187C863.13 229.307 862.5 228.237 861.77 227.697C861.16 227.257 860.7 226.797 860.19 226.277L858.29 224.347L856.7 222.707L847.74 213.627C847.03 212.897 846.87 212.267 845.57 212.417C844.9 212.497 844.62 212.667 844.12 213.197L838.64 218.917C837.88 219.707 837.57 220.577 836.41 220.647C835.24 220.717 834.64 220.067 833.89 219.197C833.2 218.397 832.41 217.577 831.66 216.847L829.92 215.127C828.25 213.477 828.28 212.407 826.45 212.427C825.68 212.427 825.37 213.117 824.74 213.737L823.35 215.107L819.75 218.917C819.07 219.627 818.66 220.477 817.81 220.547C815.49 220.757 815.27 219.357 813.16 217.237L808.87 212.937C808.08 212.137 807.16 212.087 806.4 212.847L803.88 215.357C802.72 216.507 801.64 217.597 800.38 218.677C799.97 219.027 799.54 219.577 799.46 220.087C799.37 220.597 799.95 221.197 800.36 221.607L805.84 226.987C806.46 227.607 807.36 228.197 807.88 228.967C808.16 229.387 808.22 230.597 807.92 231.007C807.22 231.967 806.15 232.647 805.33 233.427L802.86 235.817L801.42 237.177L799.86 238.637C799.29 239.167 799.28 240.027 799.86 240.577L805.43 245.857C806.22 246.607 807.32 247.227 807.87 248.167C808.53 249.287 807.79 250.447 806.95 251.127C806.1 251.817 805.34 252.467 804.58 253.187L800.33 257.177C799.94 257.557 799.44 257.907 799.39 258.387C799.34 258.947 799.72 259.517 800.16 259.927L805.32 264.817C806.11 265.557 806.94 266.247 807.72 267.077C808.57 267.987 807.97 269.447 807.08 270.137C806.55 270.547 805.95 270.947 805.51 271.377L801.24 275.567C800.73 276.077 799.65 276.667 799.53 277.377C799.31 278.657 800.58 279.307 801.33 280.037L804.62 283.207C805.98 284.517 808.08 285.607 808.09 287.087C808.09 287.867 807.77 288.607 807.14 289.087C804.76 290.917 803.86 292.157 801.61 294.197L800.02 295.647C799.56 296.067 799.13 296.617 799.54 297.347C799.85 297.907 800.56 298.357 801.04 298.817L804.82 302.477C806.31 303.917 808.04 304.787 808.1 306.157C808.16 307.307 807.45 307.817 806.64 308.507C804.79 310.127 803.11 311.887 801.37 313.667C800.3 314.777 800.05 315.727 798.39 316.317H797.59C797 315.967 796.45 315.517 795.93 314.977L793.96 312.927L792.48 311.387L789.58 308.437L785.18 304.037C783.56 302.417 782.03 300.777 780.32 299.257C779.37 298.407 778.18 297.907 778.11 296.357C778.08 295.637 778.8 294.977 779.33 294.467L780.99 292.897L783.2 290.677L784.73 289.207C785.6 288.357 787.12 287.107 785.88 285.837L782.01 281.897C781.38 281.257 780.87 280.667 780.19 280.077C779.64 279.597 779.06 279.037 778.57 278.517C776.87 276.677 779.83 274.897 781.29 273.327L783.52 270.927C784.3 270.087 785.05 269.297 785.89 268.477C786.39 267.987 786.64 267.317 786.21 266.617C785.78 265.917 785 265.407 784.4 264.837L779.42 259.997C778.72 259.317 778.05 258.637 778.12 257.647C778.19 256.677 778.93 256.257 779.64 255.577L785.11 250.237C785.75 249.617 786.76 248.987 786.25 247.867C785.89 247.067 784.88 246.397 784.24 245.737L782.06 243.497C781.23 242.647 780.43 241.767 779.52 241.037C778.82 240.467 778.28 239.897 778.2 239.027C778.12 238.177 778.53 237.567 779.12 236.997L782.85 233.437C783.72 232.597 784.51 231.687 785.49 230.917C786.08 230.467 786.47 229.967 786.41 229.277C786.36 228.677 785.92 228.337 785.44 227.867L779.76 222.327C779.17 221.737 778.44 221.327 778.19 220.467C777.92 219.567 778.24 218.727 778.99 218.177C780.26 217.237 781.22 216.007 782.34 214.917L784.17 213.127L785.63 211.747C786.05 211.357 786.43 210.767 786.39 210.197C786.37 209.757 786 209.177 785.63 208.837L783.66 206.997L782.26 205.547C781.33 204.587 780.42 203.677 779.38 202.827C778.63 202.217 778.24 201.467 778.21 200.637C778.18 199.577 778.94 199.227 779.65 198.557L783.02 195.307C784.09 194.267 786.34 191.667 786.92 191.237C788.01 190.437 789.14 190.767 789.93 191.647L791.45 193.347L795 197.027C795.5 197.547 795.96 198.287 796.42 198.737C797.18 199.467 798.09 199.167 798.65 198.507C800.83 195.917 802.42 194.727 804.78 191.977C805.43 191.227 806.53 190.437 807.55 190.927C808.71 191.477 809.44 192.657 810.32 193.557L815.29 198.627C815.61 198.957 816.29 199.257 816.63 199.137C817.05 199.007 817.43 198.647 817.74 198.327L819.98 195.977C820.99 194.917 822.06 194.017 823.02 192.937C823.74 192.147 824.43 191.147 825.52 190.857C826.87 190.487 827.76 191.487 828.47 192.447C828.99 193.177 829.6 193.737 830.21 194.327L831.94 196.027L834.2 198.417C834.63 198.867 835.62 199.397 836.18 198.887C837.75 197.437 838.2 196.717 839.95 195.017L841.19 193.807C842.13 192.897 842.91 191.567 844.12 190.957C845.43 190.307 846.68 191.387 847.37 192.417C847.85 193.157 848.42 193.627 849.03 194.197C849.41 194.567 849.79 195.077 850.19 195.407C850.73 195.867 851.12 196.337 851.61 196.837L858.22 203.487L862.53 207.807L882.31 227.547C883.27 228.507 884.51 229.377 883.5 231.117C882.88 232.187 881.42 233.247 880.46 234.267C879.2 235.577 878.05 236.777 876.73 237.997C876.24 238.437 875.73 239.007 875.78 239.647C875.83 240.357 876.31 240.837 876.83 241.277C878.7 242.887 879.79 244.357 882.02 246.327C882.87 247.087 883.88 247.737 883.9 249.087C883.9 249.777 883.36 250.607 882.84 251.077L881.11 252.597L878.56 255.247L876.75 256.887C875.99 257.577 875.44 258.817 876.31 259.697L883.64 267.187C884.73 268.297 883.26 270.007 882.4 270.687C881.5 271.397 880.84 272.077 880.07 272.847L876.25 276.627C875.66 277.217 875.64 278.207 876.25 278.797L877.78 280.277C879.43 281.867 880.96 283.467 882.69 284.987C883.34 285.557 883.84 286.267 883.86 287.077C883.91 288.737 882.54 289.227 881.08 290.707L877.3 294.567C876.73 295.137 875.88 295.747 875.7 296.537C875.45 297.697 876.43 298.067 877.03 298.667L881.99 303.537C882.52 304.047 883.41 304.567 883.66 305.177" fill="#90BEFB"/>
<path d="M179.1 107.967C177.39 105.887 175.07 104.187 173.69 102.177C173.33 101.657 172.84 101.367 172.31 101.177C171.21 100.787 170.91 101.357 170.29 101.987L166.03 106.347C165.57 106.817 165.11 107.307 164.74 107.867C164 108.987 162.67 109.777 161.32 109.067C160.68 108.727 160.19 107.867 159.68 107.347L154.5 102.087C154.04 101.627 153.54 101.047 153.02 101.017C152.29 100.977 151.74 101.307 151.25 101.787L148.94 104.097C147.73 105.307 146.64 106.427 145.32 107.537C144.88 107.907 144.27 108.987 144.82 109.537L150.97 115.637C151.77 116.437 152.89 117.047 153.24 118.177C153.79 119.957 151.66 120.987 150.28 122.307L145.63 126.767C145.18 127.207 144.12 128.137 144.78 128.897C145.9 130.177 147.2 131.417 148.47 132.577L150.98 134.887L152.7 136.407C153.51 137.117 153.58 138.527 152.7 139.257L150.85 140.797L147.48 144.037L145.46 145.867C145.13 146.167 144.37 146.857 144.52 147.327C144.94 148.617 146.09 149.257 146.98 150.117L150.55 153.577L152.26 155.087C153.09 155.817 153.76 156.907 152.99 158.027C152.43 158.837 151.38 159.367 150.65 160.067L145.97 164.617C145.38 165.187 144.36 165.627 144.68 166.727C144.92 167.567 145.93 168.187 146.57 168.787L148.65 170.747L149.76 171.857C151.46 173.557 154.77 175.047 152.68 177.427C152.3 177.857 151.52 178.277 151.05 178.727L147.06 182.557C146.3 183.287 145.53 183.957 144.8 184.747C143.73 185.897 146.37 187.587 146.81 188.027C148.71 189.937 150.55 191.727 152.64 193.457C153.47 194.147 153.66 195.597 152.76 196.357L150.63 198.167C148.67 199.837 147.09 201.657 145.45 203.667C144.77 204.507 143.33 205.457 142.21 204.627C141.29 203.937 140.43 202.917 139.6 202.067L138.1 200.547L136.53 198.897L134.34 196.707L131.2 193.577L130.08 192.487L127.91 190.237C126.65 188.937 125.42 187.827 124.04 186.697C123.57 186.307 123.26 185.417 123.3 184.877C123.34 184.327 123.8 183.747 124.27 183.297L126.34 181.347L128.35 179.337C128.8 178.887 129.19 178.457 129.68 178.037C130.53 177.317 132.25 175.737 131.21 174.667L127.15 170.517C126.6 169.947 126.14 169.417 125.52 168.887C124.88 168.337 124.2 167.667 123.59 166.987C123.26 166.627 123.21 165.427 123.46 165.007C124.07 163.987 125.1 163.407 125.86 162.577L128.28 159.957C129.06 159.107 129.79 158.317 130.67 157.527C131.12 157.127 131.72 156.477 131.59 155.867C131.34 154.727 130.35 154.247 129.63 153.557L123.52 147.567C123.03 147.087 123.32 145.527 123.78 145.057C124.54 144.287 125.57 143.687 126.24 142.917C127.69 141.257 129.15 139.847 130.82 138.397C131.11 138.147 131.66 137.347 131.58 136.977C131.28 135.787 130.12 135.147 129.36 134.377L124.77 129.707C124.12 129.047 123.41 128.667 123.32 127.777C123.22 126.787 123.7 126.067 124.48 125.437C126.31 123.967 127.86 122.307 129.44 120.567C130.02 119.937 131.56 119.217 131.59 117.987C131.6 117.347 130.91 116.847 130.44 116.387L124.76 110.867C124.18 110.297 123.48 109.867 123.31 109.127C123.15 108.447 123.3 107.497 123.89 107.007C125.21 105.927 126.28 104.737 127.46 103.577L131.13 99.987C131.68 99.447 131.74 98.527 131.2 97.987L129.19 95.967C127.6 94.367 126.11 92.797 124.39 91.337C123.75 90.797 123.27 90.087 123.32 89.277C123.4 87.917 124.93 87.137 126.42 85.637L128.23 83.827L130.34 81.667C131.21 80.787 132.06 79.287 133.53 79.397C134.71 79.487 135.43 80.807 136.16 81.547L140.14 85.617L141.52 87.277C141.75 87.557 142.53 87.827 142.86 87.737C143.24 87.637 143.7 87.267 143.99 86.937C144.87 85.947 145.7 85.037 146.61 84.107L149.1 81.567C149.93 80.717 150.73 79.147 152.27 79.417C153.59 79.647 154.53 81.187 155.44 82.127L160.52 87.337C161.03 87.857 161.82 87.977 162.37 87.417L168.07 81.677C168.96 80.777 169.69 79.517 171.17 79.317C171.63 79.447 172.54 79.827 172.83 80.177C173.75 81.257 174.56 82.207 175.52 83.157L177.06 84.677C178.03 85.627 178.95 86.807 180.08 87.627C180.82 88.157 181.62 87.267 182.03 86.837L184.08 84.687C184.95 83.767 185.89 82.987 186.71 82.067L188.24 80.347C188.67 79.867 189.48 79.377 190.1 79.377C191.65 79.367 192.44 81.197 193.49 82.247L195.11 83.857L196.9 85.687L203.22 92.037L207.63 96.457L227.47 116.317C228.09 116.937 228.81 117.277 228.92 118.087C229.04 118.917 228.83 119.797 228.23 120.377L225.47 123.047L221.18 127.407C220.67 127.927 220.94 128.967 221.43 129.427C222.6 130.527 223.66 131.567 224.76 132.737C225.88 133.927 227.06 134.927 228.29 136.037C228.96 136.637 229.27 137.997 228.75 138.767C227.96 139.917 226.75 140.667 225.83 141.667C224.64 142.957 223.55 144.137 222.18 145.267C221.64 145.717 220.99 146.487 220.95 147.177C220.9 148.147 221.69 148.697 222.28 149.287C224.43 151.467 226.72 153.577 228.69 155.827C229.85 157.147 228.31 158.577 227.46 159.357C225.24 161.387 223.26 163.427 221.2 165.557C220.39 166.387 221.26 167.387 221.85 167.957L226.22 172.247C227.06 173.067 228.04 173.767 228.77 174.747C229.09 175.177 229.08 176.487 228.77 176.927C228.22 177.707 227.37 178.287 226.74 178.917L225.42 180.237L222.16 183.567C221.52 184.227 220.91 184.557 220.86 185.467C220.81 186.407 221.47 186.727 222.16 187.387L227.54 192.607C228.22 193.267 228.95 193.707 229.01 194.497C229.1 195.697 228.72 196.297 227.95 197.007C226.27 198.557 223.05 201.707 221.75 203.437C220.89 204.577 219.58 205.537 218.16 204.557C217.58 204.157 217.09 203.337 216.55 202.787L201.81 188.037C201.29 187.517 200.67 187.127 200.21 186.607C198.45 184.607 200.88 182.697 202.34 181.437C203.18 180.717 203.9 179.927 204.69 179.157L207.43 176.447C207.88 175.997 207.68 174.977 207.25 174.547L204.09 171.467L200.18 167.747C199.7 167.287 199.23 166.687 199.2 166.187C199.16 165.437 199.38 164.837 199.83 164.287C201.06 162.797 200.46 164.027 202.46 161.857C204.05 160.137 204.56 159.837 206.06 158.227C206.5 157.757 207.38 157.217 207.6 156.647C208.06 155.507 207.28 154.817 206.56 154.117L201.15 148.907C200.56 148.337 199.91 147.817 199.71 147.177C199.09 145.167 200.91 144.607 202.68 142.817L206.45 138.987C207.05 138.377 207.72 138.027 207.74 137.287C207.77 136.237 207.24 135.887 206.55 135.247L200.66 129.747C199.87 129.017 199.07 128.557 199.18 127.417C199.28 126.437 199.82 125.747 200.68 125.127C202.02 124.177 203.1 122.897 204.33 121.797L206.68 119.697C207.19 119.247 207.77 118.787 207.84 118.127C207.96 116.977 206.6 116.287 205.24 114.897L203.35 112.957L201.56 111.127L192.78 102.247C192.2 101.667 191.9 100.957 191.08 100.967C189.44 100.967 189.31 101.907 188.3 102.917L186.87 104.337L184.86 106.337C184.37 106.827 183.79 107.307 183.45 107.897C182.9 108.837 182.2 109.277 181.26 109.307C180.2 109.337 179.71 108.757 179.02 107.927" fill="#90BEFB"/>
<path d="M0.01 87.0871V85.8771C0.48 84.9571 1.33 84.3171 2.11 83.5471L3.83 81.8571C5.1 80.6071 6.18 79.3171 7.64 78.2171C8.17 77.8171 8.5 76.9571 8.18 76.2071C7.91 75.5671 7.04 75.0771 6.51 74.5571L1.74 69.9271C0.88 69.0971 0.17 68.6271 0.13 67.5171C0.09 66.2171 0.77 65.8471 1.64 64.9871L6.51 60.2371C7.1 59.6571 8.16 59.2171 8.43 58.2071C8.73 57.0771 7.11 56.2371 6.55 55.6671L4.96 54.0271L3.12 52.2271C2.76 51.8771 2.35 51.3371 1.95 51.0171C1.13 50.3771 0.52 49.7471 0.01 48.9271V47.7171C0.11 47.5971 0.35 47.1371 0.5 46.9871L4.02 43.3071L7.99 39.2071C8.31 38.8771 8.33 37.8771 8 37.5571L5.07 34.6271L1.74 31.3271C1.06 30.6471 0.43 30.0371 0 29.2471V28.2471C0.4 27.5371 0.9 26.9271 1.52 26.3371L5.21 22.7971L7.17 20.9571C7.7 20.4671 8.21 19.9271 8.28 19.3371C8.4 18.3771 7.67 18.0871 7.1 17.5171L0.36 10.8271L0.01 10.1771V9.17709C0.33 8.23709 1.02 7.76709 1.75 7.08709C3.47 5.50709 5.04 3.87709 6.66 2.16709C7.5 1.27709 8.41 -0.172914 9.78 0.0170859C11.31 0.227086 12.07 1.81709 13.03 2.75709L14.96 4.66709L17.12 6.73709L26.9 16.3971C27.68 17.1671 28.62 17.8471 29.23 18.6871C30.18 19.9871 29.33 21.5071 28.23 22.3371C26.26 23.8271 24.73 25.5971 22.94 27.2971C22.34 27.8571 21.51 28.4871 21.4 29.2871C21.23 30.4971 22.25 30.9871 22.93 31.6471L28.1 36.7071C28.77 37.3671 29.54 37.7771 29.57 38.6171C29.64 40.8671 28.95 40.5371 26.81 42.6171L25.08 44.3071L23.12 46.3571C22.46 47.0471 21.44 47.5471 21.32 48.5471C21.16 49.8271 22.24 50.2071 22.96 50.9071L25.3 53.1671L26.84 54.6471L28.78 56.3271C29.42 56.8771 29.85 57.5871 29.72 58.4071C29.59 59.2371 29.05 59.6971 28.42 60.2771L25.91 62.5671L22.92 65.4271C22.24 66.0771 21.22 66.6271 21.33 67.7971C21.42 68.7271 22.38 69.3171 23 69.9471L24.79 71.7671C26.07 73.0671 27.29 74.3071 28.68 75.5071C29.3 76.0371 29.73 76.9471 29.67 77.6571C29.59 78.5371 28.95 79.0671 28.33 79.6671L22.94 84.8971C22.27 85.5471 21.43 86.0471 21.41 87.1771C21.4 87.7971 22 88.3271 22.45 88.7671L27.01 93.2571L31.15 97.3471L35.74 101.787L37.81 103.947C39.18 105.387 40.86 102.577 42 101.547C43.73 99.9771 45.3 98.3071 46.83 96.6171C47.81 95.5371 49.29 95.9671 50 96.9471C50.84 98.1071 51.86 98.9571 52.83 99.9671L55.69 102.937C56.33 103.597 56.84 104.657 58.05 104.277C58.67 104.087 59.18 103.217 59.66 102.727L64.32 97.9571C65.16 97.0971 65.75 95.9671 67.13 95.9471C68.18 95.9271 68.64 96.8971 69.3 97.5571L73.65 101.907L75.9 104.177C76.13 104.417 77.08 104.467 77.33 104.277L82.55 99.3271C83.74 98.1971 85.77 97.2371 84.78 95.8971C84.12 94.9971 83.05 94.2671 82.27 93.4471C81.31 92.4371 78.2 89.3671 77.26 88.6271C76.15 87.7371 75.39 86.4871 76.49 85.1571C76.84 84.7271 77.64 84.2671 78.09 83.8271L83.25 78.7471C83.86 78.1471 84.93 77.7371 84.78 76.6171C84.67 75.8171 83.63 75.3271 83.06 74.7871L78.93 70.8671L77.2 69.3771C76.66 68.9071 76.14 68.2771 76.11 67.7171C76.07 67.0371 76.27 66.2671 76.75 65.8371L79.63 63.2671L81.48 61.4871C82.29 60.7071 83.12 59.9371 84.04 59.2271C84.43 58.9271 85.16 57.9371 84.73 57.4771C83.77 56.4371 82.78 55.5371 81.78 54.5771L78.39 51.3171C77.76 50.7171 76.82 50.0971 76.4 49.3871C75.16 47.2871 77.83 45.9271 79 44.7571L81.21 42.5371C82.17 41.5671 82.95 40.5971 84.06 39.7571C84.5 39.4171 84.88 38.8871 84.87 38.4071C84.86 37.9471 84.56 37.4671 84.19 37.1471L82.69 35.8171L78.7 31.9771C77.96 31.2671 76.95 30.5171 76.42 29.6971C75.57 28.3771 76.63 27.2271 77.56 26.4471C80.23 24.2171 81.65 22.5071 84.2 20.4071C84.48 20.1771 84.85 19.6471 84.84 19.3371C84.84 19.0271 84.53 18.4071 84.28 18.1871L81.66 15.7571L79.31 13.4471C78.33 12.4871 77.09 11.7071 76.3 10.4571C75.99 9.97709 76.13 8.57709 76.56 8.19709L80.88 4.26709C81.96 3.28709 82.91 2.34709 83.91 1.23709C84.54 0.537086 85.74 -0.252914 86.72 0.107086C87.69 0.457086 88.6 1.99709 89.62 2.97709C90.65 3.97709 91.72 4.87709 92.68 5.95709C93.29 6.63709 93.85 7.29709 94.52 7.93709L96.45 9.80709L98.73 12.1371L103.37 16.7771C104.21 17.6171 105.66 18.3971 105.84 19.6671C106.03 21.0471 104.63 21.9171 103.79 22.7371L98.51 27.8971C98.08 28.3171 97.56 28.6071 97.51 29.2371C97.48 29.6371 97.78 30.3371 98.12 30.6171C99.4 31.6571 100.4 32.7071 101.48 33.9071C102.74 35.2971 104.07 36.5071 105.46 37.7771C106.23 38.4871 105.93 39.9171 105.18 40.6171L103.02 42.6271L98.63 47.0871C98.12 47.6071 97.35 48.1771 97.59 49.0571C97.82 49.8771 98.72 50.3671 99.32 50.9471L104.4 55.8771C105.19 56.6471 105.85 57.1471 105.79 58.3071C105.74 59.2371 105.24 59.8271 104.35 60.4471C103.66 60.9271 103.08 61.5871 102.5 62.1871L100.03 64.7571C98.99 65.8371 96.34 67.2971 97.95 68.7771C98.78 69.5371 99.65 70.2971 100.4 71.1271C101.54 72.3871 102.64 73.5271 103.91 74.6771C104.79 75.4771 106.16 76.4171 105.86 77.8371C105.62 78.9671 104.39 79.7871 103.6 80.5671L97.84 86.2471C97.36 86.7171 97.37 87.6871 97.84 88.1371C98.76 89.0171 99.63 89.8171 100.49 90.7171C101.5 91.7971 102.51 92.8271 103.6 93.8171C104.32 94.4671 105.17 95.1371 105.71 95.9171C106.37 96.8771 105.65 98.0471 104.88 98.6871C103.16 100.117 101.74 101.647 100.22 103.277C99.47 104.077 98.6 104.707 97.95 105.667C97.66 106.097 98.1 106.867 98.45 107.217L106.13 114.987C106.92 115.787 105.97 117.457 105.29 117.917C104.15 118.687 103.37 119.427 102.48 120.397L98.25 124.917C97.3 125.927 95.87 125.857 95.05 124.887C93.97 123.597 92.82 122.457 91.63 121.287L87.97 117.687C87.78 117.497 87.2 117.257 86.94 117.227C86.68 117.197 86.23 117.547 86.01 117.767L83.26 120.457L81.93 121.717C81.23 122.377 80.5 122.977 79.97 123.807C79.38 124.737 78.4 125.677 77.22 125.627C75.92 125.577 75.32 124.317 74.54 123.517L70.27 119.137C69.56 118.407 68.86 117.417 67.79 117.217C66.43 117.797 65.55 119.007 64.54 119.997C63.48 121.047 62.41 122.037 61.43 123.117L59.98 124.727C59.4 125.377 58.37 126.027 57.43 125.497C56.52 124.997 55.89 123.947 55.15 123.207L49.3 117.357C48.92 116.977 48.01 117.477 47.68 117.817L43.14 122.517L41.34 124.517C40.55 125.397 39.56 126.037 38.4 125.227C37.69 124.727 37.12 123.847 36.46 123.207L29.81 116.627C28.91 115.737 28.02 114.947 27.15 114.037L25.88 112.707L24.06 110.907L18.29 105.247L15.67 102.627L11.7 98.7771L9.54 96.5171L8.04 95.0071L1.92 89.0971C1.23 88.4271 0.46 87.9371 0.09 87.0971" fill="#90BEFB"/>
</svg>
