<svg width="385" height="365" viewBox="0 0 385 365" fill="none" xmlns="http://www.w3.org/2000/svg">
<path d="M273.853 105.2C273.593 103.76 273.003 102.28 272.993 100.89L272.873 86.7004C272.863 85.5604 272.513 84.2804 272.783 83.1904C273.123 81.8404 272.803 80.9404 272.343 79.7004C271.933 78.6104 273.063 77.2704 273.073 76.1404L273.233 65.1804C273.293 61.3504 276.353 57.8904 280.263 57.7704C281.363 57.7404 282.553 58.1104 283.593 57.9704C284.793 57.8004 285.323 58.4004 285.983 59.2204L287.723 60.7004C289.643 62.3204 289.063 67.4404 289.053 69.6404L288.973 96.8104C289.303 98.0604 289.093 99.2104 289.223 100.48C289.373 101.96 290.083 103.44 290.623 104.79C291.493 106.95 292.663 108.65 294.173 110.39C295.733 112.18 296.893 114.44 299.173 115.4L301.713 116.47L305.193 118.13C306.503 118.75 307.843 118.8 309.243 118.99C313.813 119.63 318.023 118.71 322.033 116.57C323.383 115.85 324.773 115.53 325.913 114.39C326.923 113.38 327.913 112.41 328.803 111.29L330.473 109.16C331.763 107.52 332.603 105.78 333.413 103.84C334.153 102.08 334.673 100.45 334.443 98.4404C334.313 97.3704 334.653 96.2204 334.653 95.1104L334.693 63.8504C334.693 62.6204 335.463 61.6004 336.043 60.7004C336.663 59.7404 337.563 59.2304 338.423 58.6004C340.093 57.3704 341.653 57.1004 343.723 57.3904C346.013 57.7204 347.883 58.6504 349.343 60.5104C350.113 61.4904 350.723 62.4304 350.813 63.7604L351.043 66.8704C351.303 70.4904 350.673 71.2504 351.083 75.2104C351.253 76.8704 351.163 78.4404 351.083 80.1204C350.903 83.9104 350.903 87.7104 351.063 91.5504C351.333 97.6804 350.973 101.71 349.173 107.51L347.743 112.12C346.843 115.01 345.313 116.14 344.253 117.81L342.793 120.12C341.913 121.51 340.723 122.63 339.593 123.85C339.243 124.23 334.653 128.09 334.003 128.55C329.013 132.07 322.983 134.17 316.893 134.96C314.263 135.3 311.943 135.54 309.373 135.29C307.113 135.07 304.803 135.03 302.573 134.22L295.933 131.79C293.983 131.08 292.343 129.91 290.603 128.94C289.533 128.34 288.693 127.61 287.753 126.82C286.933 126.12 285.963 125.51 285.193 124.71L281.173 120.5C278.183 117.37 279.003 116.97 277.853 115.81C276.843 114.8 276.543 113.69 276.043 112.43C275.113 110.06 274.313 107.82 273.843 105.19" fill="#90BEFB"/>
<path d="M173.923 27.1105C164.853 18.0405 150.133 18.0605 141.043 27.1505C131.953 36.2405 131.933 50.9605 141.003 60.0305C150.073 69.1005 164.793 69.0805 173.883 59.9905C182.973 50.9005 182.993 36.1805 173.923 27.1105ZM132.323 14.3205C132.393 14.3205 132.853 14.1305 132.963 14.0005C134.123 12.6005 135.923 11.5705 137.473 10.6605C140.793 8.73048 142.123 7.95048 145.853 6.83048C149.303 5.79048 152.683 5.05048 156.263 5.00048C161.263 4.93048 165.923 5.63048 170.603 7.33048C174.953 8.91048 178.043 10.7905 181.653 13.7405L183.533 15.2805C184.323 15.9305 184.963 16.5605 185.603 17.3505L186.993 19.0805L188.843 21.4405C190.503 23.5505 191.803 25.7405 192.813 28.2405C195.403 34.6405 195.423 35.7705 196.073 42.5805C196.293 44.9305 195.753 47.1605 195.533 49.4905C195.233 52.5305 194.013 55.8105 192.923 58.6705C192.223 60.5205 191.273 62.0505 190.173 63.7305C185.923 70.2305 183.173 72.8205 176.533 76.8905C175.233 77.6905 174.123 78.3805 172.723 78.9405L169.553 80.2105L167.313 80.9205C165.333 81.5505 162.213 82.0705 160.103 82.0805H155.053C154.183 82.0905 153.103 81.9705 152.243 81.8405L149.053 81.3705C148.433 81.2805 147.643 80.8705 147.013 80.7305C145.763 80.4305 144.673 79.9705 143.503 79.5405C141.583 78.8305 139.923 78.0405 138.163 76.9005C136.923 76.0905 135.423 75.6605 134.283 74.6305L132.263 72.8105C129.753 70.5505 126.403 67.3005 124.853 64.3805C124.373 63.4805 123.963 62.5405 123.373 61.7405C122.393 60.4005 122.053 59.0005 121.483 57.5005C121.013 56.2705 120.463 55.0505 120.143 53.7005L119.413 50.5505C118.613 47.1005 118.623 42.1005 119.133 38.5805C119.903 33.3505 121.923 27.6905 124.773 23.2705L127.393 19.2005L132.283 14.3105L132.323 14.3205Z" fill="#90BEFB"/>
<path d="M42.7734 102.491C44.1134 102.361 45.5234 103.011 46.7434 103.391C47.9034 103.751 48.6534 104.561 49.3834 105.461C51.9034 108.561 51.1434 114.391 47.5034 116.661C45.4134 117.961 43.2034 118.041 40.7734 118.051C36.6134 118.061 29.2934 121.871 27.0734 124.601L23.4934 128.991C22.5534 130.141 21.6034 132.211 22.9334 133.361C24.0434 134.321 25.7034 133.611 27.0234 133.611L55.8934 133.641C58.0034 133.641 59.7434 133.341 61.8134 132.711C62.5634 132.481 63.7234 132.981 64.5234 133.061C65.9634 133.201 67.3534 133.081 68.7434 133.101C70.1334 133.121 71.5234 133.191 72.8934 133.071C76.2034 132.761 77.9434 133.361 79.9534 135.701C81.3034 137.271 82.2934 138.711 82.3534 140.951C82.4534 144.201 82.2334 145.631 81.6134 148.891C80.9634 152.301 78.8434 157.631 77.1434 160.721C76.0334 162.731 74.5134 164.431 73.1834 166.321C72.0034 168.001 70.7434 169.451 69.0434 170.671C68.1434 171.321 67.4134 172.131 66.4634 172.751L62.6734 175.191C61.4334 175.991 60.4334 176.751 58.9634 177.091C57.9334 177.331 56.9134 177.871 55.8834 178.201C53.1334 179.081 50.3734 179.631 47.4834 180.041C46.8034 180.141 46.0234 180.091 45.2834 180.141C43.8534 180.241 42.1334 180.761 40.7734 180.111C38.9834 179.251 37.3734 177.821 36.1734 176.321C35.1634 175.051 35.3134 173.351 35.2234 171.891C35.0034 168.361 37.0434 166.521 39.6634 164.731C41.9734 163.151 43.4634 164.761 49.0534 163.171C51.8734 162.371 54.2434 160.951 56.6434 159.421C60.8534 156.731 60.5234 155.131 63.2934 152.431C63.6634 152.071 63.8434 151.221 63.8334 150.651C63.7734 148.411 59.5734 149.371 59.5234 149.371L43.3334 149.441C42.5734 149.441 41.8434 149.811 41.1334 149.301C40.2034 148.621 39.1034 148.401 37.9234 148.491L35.4534 148.671C31.8034 148.941 27.8834 148.571 24.3134 148.671C20.1934 148.791 16.2334 148.791 12.1134 148.671C8.69337 148.571 5.46337 146.171 5.01337 142.721C4.50337 138.781 5.54337 133.101 6.63337 129.271C6.95337 128.151 7.53337 127.011 7.95337 125.931C11.0934 117.891 17.8734 110.661 25.5834 106.781C26.5834 106.281 27.4234 105.551 28.5834 105.361C29.5234 105.201 30.3934 104.861 31.2634 104.471C33.0634 103.651 38.6134 102.921 40.8334 102.701L42.8134 102.511L42.7734 102.491Z" fill="#90BEFB"/>
<path d="M327.193 209.97C325.753 209.41 324.333 209.48 322.923 209.36C320.113 209.13 317.463 209.26 314.783 210.21C311.823 211.25 309.103 212.56 306.733 214.67C305.413 215.84 304.083 217.06 302.983 218.44C301.383 220.45 299.993 222.67 299.193 225.09C298.613 226.87 297.983 228.68 297.973 230.58L297.873 264.78C297.873 266.42 296.403 268.29 295.293 269.24C294.463 269.94 293.363 270.46 292.303 270.79C287.863 272.14 282.883 268.72 282.873 263.85L282.803 230.39C282.803 229.15 283.783 223.84 284.173 222.35C286.413 213.81 290.683 208.22 297.153 202.46C299.213 200.62 303.853 198.01 306.503 197.04C313.373 194.52 316.823 193.83 324.173 194.18C329.003 194.42 334.963 196.31 339.293 198.44C341.323 199.44 345.083 202.09 346.773 203.67L349.653 206.36C352.563 209.08 354.703 212.95 356.483 216.47C357.133 217.75 357.463 219.08 357.943 220.41C358.833 222.95 359.493 225.35 359.613 228.08C359.703 230.04 359.993 234.01 359.253 235.64C357.763 238.93 354.353 240.58 350.953 240.03C348.443 239.62 346.653 238.19 345.583 235.97C345.163 235.09 344.613 234.22 344.593 233.19L344.513 228.8C344.403 222.49 337.453 214.79 330.813 211.38C329.733 210.82 328.463 210.47 327.213 209.98" fill="#90BEFB"/>
<path d="M249.413 344.27C252.873 344.28 255.733 347.17 256.433 350.42C257.323 354.5 254.133 359.25 249.633 359.26L215.373 359.34C214.133 359.34 207.863 358.18 206.483 357.72C201.623 356.08 197.033 353.92 193.233 350.48L191.233 348.67C184.423 342.5 180.533 333.77 179.523 324.66C179.243 322.17 179.443 319.68 179.543 317.23C179.683 313.72 181.143 309.39 182.413 306.03C184.543 300.41 188.773 295.27 193.243 291.25C194.283 290.31 195.503 289.49 196.673 288.69C198.163 287.67 199.753 286.97 201.323 286.18C202.413 285.63 203.403 285.08 204.593 284.8C209.823 283.54 206.053 283.62 213.093 282.83C215.673 282.54 218.203 282.4 220.703 283.01C221.763 283.27 222.493 284.06 223.203 284.74C224.423 285.9 225.133 287.13 225.413 288.84C225.893 291.75 224.653 295.1 221.983 296.4C220.913 296.92 219.843 297.63 218.653 297.72C217.163 297.83 215.673 297.62 214.213 297.81C209.933 298.38 204.943 301.33 201.823 304.3C200.063 305.98 197.933 309.08 196.793 311.26C196.103 312.59 195.673 314.03 195.153 315.45C194.573 317.04 194.433 322.38 194.793 324.48C195.813 330.31 199.123 335.56 203.733 339.26C206.563 341.53 211.833 344.13 215.313 344.15L249.373 344.27H249.413Z" fill="#90BEFB"/>
<path d="M64.5036 298.581C64.9336 298.281 65.5836 297.551 65.6236 296.831C65.7236 294.831 65.7236 292.921 65.6236 290.911C65.5836 290.121 65.3736 289.261 65.5336 288.501C65.7236 287.601 65.5936 286.821 65.5336 285.821C65.4036 282.691 65.3936 279.671 65.5336 276.661C65.6036 275.321 65.7236 274.141 65.5136 272.791C65.3936 271.991 65.4136 271 65.5136 270.18C65.6336 269.21 65.5136 268.41 65.5136 267.47L65.4436 259.44C65.4436 258.99 64.9436 258.05 64.5136 257.97C63.2236 257.74 61.9436 258.461 61.2236 259.451C60.4236 260.551 59.4436 261.2 58.3536 261.94C55.8436 263.64 54.5136 266.35 53.1036 268.94C51.8036 271.32 51.1536 273.581 51.0936 276.321C51.0536 278.071 50.7336 280.101 51.1536 281.831C51.5336 283.341 51.8536 284.861 52.3436 286.281C53.3136 289.061 55.1736 291.521 56.9136 293.821C57.7836 294.961 59.0136 295.651 60.0036 296.561L62.3336 298.721C62.8236 299.181 63.9536 298.941 64.4836 298.581M70.1236 317.431L66.7936 316.971C64.7036 316.671 62.7536 315.931 60.7436 315.291C58.8336 314.681 56.8736 314.121 55.2336 312.991L52.0136 310.801C51.1436 310.211 50.0636 309.621 49.2036 308.941C47.3736 307.491 45.8536 305.631 44.2336 303.941C40.6936 300.261 38.7736 296.431 37.0436 291.721C36.1936 289.401 35.6836 287.051 35.2036 284.631C34.8336 282.751 34.4236 281.031 34.5136 279.081C34.6336 276.191 35.6036 269.87 36.3936 267.32C36.9136 265.67 37.4036 263.901 38.1736 262.421L39.9436 259.06C43.0336 253.16 42.9236 255.121 44.2736 253.201C45.1336 251.951 46.0736 251.04 47.0936 249.98C48.1136 248.92 49.0136 248.08 50.2236 247.29L53.9736 244.821C55.0736 244.101 56.1236 243.51 57.3436 243.04L61.2036 241.571L64.6236 240.321C66.1136 239.781 67.6436 239.58 69.2236 239.54L71.4636 239.471C74.6436 239.391 77.1936 239.591 79.5736 241.991C80.1536 242.581 80.9736 243.241 81.2236 244.081C82.0636 246.931 82.0836 249.281 81.8036 252.251C81.6536 253.891 81.7136 255.44 81.8036 257.08C82.0036 260.44 81.8036 263.811 81.8336 267.201L81.8636 269.34V292.681L81.6636 296.931C81.5936 298.241 81.6836 299.831 82.7836 300.731C84.0736 301.781 85.9236 301.741 87.4936 301.411C91.9136 300.461 94.5336 302.761 95.7436 300.511C96.2036 299.641 96.3436 298.461 96.4636 297.421C96.6736 295.611 96.1036 295.461 96.4336 292.711C96.5736 291.601 96.5136 290.651 96.4436 289.531C96.2936 287.271 96.3036 284.991 96.4736 282.751C96.7936 278.331 95.9336 277.231 97.8436 274.311C99.9936 271.021 102.494 270.07 106.404 270.48C108.084 270.66 109.064 271.551 110.054 272.721C113.014 276.231 113.124 277.991 112.744 283.061C112.684 284.021 112.784 284.831 112.784 285.791V309.281C112.784 311.901 111.304 313.861 109.724 315.611C107.674 317.871 107.824 316.611 105.714 317.641H71.9036C71.4436 317.371 70.7736 317.511 70.1136 317.421" fill="#90BEFB"/>
<path d="M267.993 100.931C267.973 98.1705 270.193 95.9205 272.953 95.9005C275.713 95.8805 277.973 98.1005 277.993 100.861C278.013 103.621 275.793 105.881 273.023 105.901H272.993C270.243 105.901 268.013 103.681 267.993 100.931Z" fill="black"/>
<path d="M267.874 86.7505C267.854 83.9905 270.074 81.7305 272.834 81.7105C275.594 81.6805 277.854 83.9005 277.874 86.6605C277.894 89.4305 275.674 91.6805 272.914 91.7105H272.874C270.134 91.7105 267.894 89.4905 267.874 86.7505Z" fill="black"/>
<path d="M271.573 88.0504C268.893 87.3804 267.263 84.6704 267.933 81.9904C268.603 79.3104 271.323 77.6804 274.003 78.3504C276.673 79.0204 278.303 81.7304 277.633 84.4104C277.073 86.6804 275.033 88.2004 272.793 88.2004C272.393 88.2004 271.983 88.1504 271.573 88.0504Z" fill="black"/>
<path d="M267.664 81.4704C266.694 78.8804 268.004 76.0004 270.594 75.0304C273.174 74.0604 276.054 75.3704 277.024 77.9504C277.994 80.5404 276.684 83.4204 274.104 84.3904C273.524 84.6104 272.934 84.7104 272.344 84.7104C270.324 84.7104 268.414 83.4704 267.664 81.4704Z" fill="black"/>
<path d="M273.004 81.1504C270.244 81.1104 268.044 78.8404 268.084 76.0804C268.124 73.3204 270.394 71.1104 273.154 71.1504C275.914 71.1904 278.114 73.4604 278.084 76.2204C278.044 78.9604 275.804 81.1504 273.084 81.1504H273.004Z" fill="black"/>
<path d="M273.163 70.1905C270.403 70.1505 268.203 67.8805 268.243 65.1205C268.283 62.3605 270.553 60.1505 273.313 60.1905C276.073 60.2405 278.283 62.5105 278.243 65.2705C278.203 68.0005 275.973 70.1905 273.243 70.1905H273.163Z" fill="black"/>
<path d="M275.274 57.9305C275.194 55.1705 277.364 52.8705 280.124 52.7905C282.884 52.7105 285.184 54.8805 285.264 57.6405C285.354 60.4005 283.174 62.7005 280.414 62.7805H280.264C277.574 62.7805 275.354 60.6405 275.274 57.9305Z" fill="black"/>
<path d="M278.653 58.6805C278.273 55.9405 280.173 53.4105 282.913 53.0305C285.643 52.6505 288.173 54.5505 288.553 57.2905C288.943 60.0205 287.033 62.5505 284.303 62.9305C284.063 62.9705 283.833 62.9805 283.593 62.9805C281.143 62.9805 279.003 61.1705 278.653 58.6805Z" fill="black"/>
<path d="M282.093 62.3705C280.363 60.2105 280.713 57.0705 282.863 55.3405C285.013 53.6105 288.163 53.9505 289.893 56.1005C291.623 58.2605 291.273 61.4005 289.123 63.1305C288.203 63.8705 287.093 64.2305 285.993 64.2305C284.533 64.2305 283.083 63.5905 282.093 62.3705Z" fill="black"/>
<path d="M284.503 64.5205C282.393 62.7405 282.133 59.5805 283.923 57.4805C285.703 55.3705 288.863 55.1105 290.973 56.9005C293.073 58.6805 293.333 61.8405 291.543 63.9505C290.563 65.1105 289.153 65.7105 287.733 65.7105C286.593 65.7105 285.443 65.3205 284.503 64.5205Z" fill="black"/>
<path d="M289.053 74.6505C286.293 74.6505 284.063 72.4005 284.073 69.6405C284.073 66.8705 286.323 64.6405 289.083 64.6505C291.843 64.6505 294.073 66.9005 294.073 69.6605C294.063 72.4205 291.823 74.6505 289.073 74.6505H289.053Z" fill="black"/>
<path d="M288.973 101.82C286.213 101.82 283.983 99.5705 283.993 96.8105C284.003 94.0505 286.243 91.8105 289.003 91.8205C291.763 91.8305 294.003 94.0805 293.993 96.8405C293.993 99.5905 291.743 101.82 288.993 101.82H288.973Z" fill="black"/>
<path d="M284.263 100.991C283.993 98.2405 285.993 95.7905 288.743 95.5105C291.493 95.2405 293.943 97.2505 294.213 99.9905C294.483 102.741 292.483 105.191 289.733 105.471C289.563 105.481 289.403 105.491 289.233 105.491C286.693 105.491 284.523 103.561 284.263 100.991Z" fill="black"/>
<path d="M286.003 106.67C284.973 104.11 286.203 101.19 288.773 100.16C291.333 99.1305 294.243 100.37 295.273 102.93C296.313 105.49 295.073 108.4 292.513 109.44C291.893 109.68 291.263 109.8 290.643 109.8C288.663 109.8 286.783 108.62 286.003 106.67Z" fill="black"/>
<path d="M290.413 113.67C288.603 111.59 288.823 108.43 290.913 106.62C292.993 104.81 296.153 105.03 297.963 107.12C299.773 109.2 299.553 112.36 297.463 114.17C296.513 114.99 295.353 115.39 294.183 115.39C292.793 115.39 291.403 114.81 290.413 113.67Z" fill="black"/>
<path d="M297.253 120.011C294.703 118.951 293.503 116.021 294.573 113.471C295.643 110.921 298.573 109.731 301.123 110.801C303.663 111.861 304.863 114.801 303.793 117.341C302.993 119.251 301.133 120.411 299.183 120.411C298.543 120.411 297.883 120.281 297.253 120.011Z" fill="black"/>
<path d="M299.784 121.081C297.244 120.011 296.044 117.081 297.114 114.541C298.184 111.991 301.114 110.791 303.664 111.861C306.204 112.931 307.404 115.861 306.334 118.411C305.534 120.321 303.674 121.471 301.724 121.471C301.074 121.471 300.424 121.351 299.784 121.081Z" fill="black"/>
<path d="M303.053 122.65C300.563 121.46 299.503 118.47 300.693 115.98C301.883 113.49 304.863 112.43 307.353 113.62C309.853 114.81 310.903 117.79 309.713 120.29C308.863 122.08 307.063 123.13 305.203 123.13C304.483 123.13 303.743 122.98 303.053 122.65Z" fill="black"/>
<path d="M308.564 123.951C305.834 123.571 303.924 121.041 304.304 118.301C304.694 115.571 307.214 113.661 309.954 114.051C312.684 114.431 314.594 116.951 314.214 119.691C313.864 122.191 311.724 124.001 309.264 124.001C309.034 124.001 308.804 123.981 308.564 123.951Z" fill="black"/>
<path d="M317.633 118.93C316.333 116.49 317.253 113.46 319.693 112.16C322.133 110.87 325.163 111.79 326.453 114.23C327.753 116.66 326.833 119.69 324.393 120.99C323.643 121.39 322.843 121.58 322.053 121.58C320.263 121.58 318.533 120.62 317.633 118.93Z" fill="black"/>
<path d="M322.384 117.93C320.434 115.97 320.444 112.8 322.404 110.86C324.364 108.91 327.524 108.92 329.474 110.88C331.424 112.84 331.414 116 329.454 117.95C328.474 118.92 327.204 119.4 325.924 119.4C324.644 119.4 323.354 118.91 322.384 117.93Z" fill="black"/>
<path d="M325.733 115.24C323.563 113.53 323.173 110.39 324.883 108.22C326.583 106.04 329.723 105.66 331.893 107.36C334.073 109.07 334.453 112.21 332.753 114.38C331.763 115.64 330.293 116.3 328.813 116.3C327.733 116.3 326.643 115.95 325.733 115.24Z" fill="black"/>
<path d="M327.403 113.1C325.223 111.4 324.843 108.25 326.553 106.08C328.253 103.91 331.403 103.53 333.573 105.23C335.743 106.94 336.123 110.08 334.423 112.25C333.433 113.51 331.963 114.17 330.483 114.17C329.403 114.17 328.313 113.82 327.403 113.1Z" fill="black"/>
<path d="M331.503 108.46C328.953 107.4 327.753 104.47 328.813 101.92C329.873 99.3805 332.803 98.1705 335.353 99.2405C337.903 100.3 339.103 103.23 338.043 105.78C337.243 107.7 335.383 108.85 333.423 108.85C332.783 108.85 332.133 108.73 331.503 108.46Z" fill="black"/>
<path d="M329.483 99.0305C329.163 96.2905 331.123 93.8105 333.873 93.4805C336.613 93.1605 339.093 95.1205 339.423 97.8705C339.743 100.611 337.783 103.091 335.033 103.421C334.843 103.441 334.643 103.451 334.443 103.451C331.943 103.451 329.783 101.581 329.483 99.0305Z" fill="black"/>
<path d="M329.673 95.1205C329.673 92.3605 331.903 90.1205 334.673 90.1205C337.433 90.1205 339.673 92.3605 339.673 95.1205C339.673 97.8805 337.433 100.12 334.673 100.12C331.903 100.12 329.673 97.8805 329.673 95.1205Z" fill="black"/>
<path d="M334.694 68.8505C331.934 68.8505 329.704 66.6105 329.704 63.8505C329.704 61.0905 331.944 58.8505 334.704 58.8505C337.474 58.8505 339.704 61.1005 339.704 63.8605C339.704 66.6205 337.464 68.8505 334.704 68.8505H334.694Z" fill="black"/>
<path d="M333.343 64.9105C331.023 63.4105 330.353 60.3205 331.853 58.0005C333.343 55.6805 336.443 55.0105 338.763 56.5005C341.083 58.0005 341.753 61.0905 340.253 63.4205C339.293 64.9005 337.693 65.7105 336.043 65.7105C335.113 65.7105 334.183 65.4505 333.343 64.9105Z" fill="black"/>
<path d="M334.404 61.5705C332.764 59.3505 333.234 56.2205 335.454 54.5805C337.684 52.9405 340.814 53.4105 342.454 55.6405C344.094 57.8605 343.624 60.9905 341.394 62.6305C340.504 63.2905 339.464 63.6105 338.434 63.6105C336.904 63.6105 335.384 62.9005 334.404 61.5705Z" fill="black"/>
<path d="M343.013 62.3505C340.283 61.9605 338.383 59.4305 338.773 56.6905C339.163 53.9605 341.693 52.0605 344.433 52.4505C347.163 52.8405 349.063 55.3705 348.673 58.1005C348.313 60.6005 346.173 62.4005 343.733 62.4005C343.493 62.4005 343.253 62.3805 343.013 62.3505Z" fill="black"/>
<path d="M345.393 63.5905C343.703 61.4205 344.083 58.2705 346.263 56.5805C348.443 54.8805 351.583 55.2705 353.283 57.4405C354.983 59.6205 354.593 62.7605 352.413 64.4605C351.503 65.1705 350.423 65.5205 349.343 65.5205C347.853 65.5205 346.383 64.8605 345.393 63.5905Z" fill="black"/>
<path d="M345.823 64.1304C345.623 61.3804 347.693 58.9804 350.453 58.7804C353.203 58.5804 355.603 60.6504 355.803 63.4104C356.003 66.1604 353.933 68.5604 351.173 68.7604C351.053 68.7704 350.933 68.7704 350.803 68.7704C348.213 68.7704 346.023 66.7604 345.823 64.1304Z" fill="black"/>
<path d="M346.053 67.2504C345.853 64.4904 347.923 62.1004 350.683 61.9004C353.433 61.7004 355.823 63.7704 356.023 66.5204C356.223 69.2804 354.153 71.6704 351.403 71.8704C351.283 71.8704 351.153 71.8704 351.033 71.8704C348.443 71.8704 346.243 69.8704 346.053 67.2404V67.2504Z" fill="black"/>
<path d="M346.103 75.7405C345.823 72.9905 347.813 70.5305 350.563 70.2505C353.313 69.9705 355.763 71.9705 356.053 74.7205C356.333 77.4605 354.333 79.9205 351.583 80.2005C351.413 80.2205 351.243 80.2305 351.073 80.2305C348.543 80.2305 346.363 78.3105 346.103 75.7405Z" fill="black"/>
<path d="M350.833 85.1304C348.073 84.9904 345.943 82.6504 346.083 79.8904C346.213 77.1304 348.563 75.0004 351.323 75.1404C354.073 75.2704 356.203 77.6204 356.073 80.3804C355.933 83.0504 353.723 85.1304 351.073 85.1304H350.833Z" fill="black"/>
<path d="M346.063 91.7805C345.943 89.0205 348.083 86.6905 350.843 86.5705C353.593 86.4505 355.933 88.5905 356.053 91.3505C356.173 94.1105 354.033 96.4405 351.273 96.5605H351.053C348.393 96.5605 346.173 94.4605 346.063 91.7805Z" fill="black"/>
<path d="M347.694 112.3C345.054 111.48 343.574 108.68 344.394 106.04C345.214 103.4 348.014 101.93 350.654 102.74C353.284 103.56 354.764 106.36 353.944 109C353.284 111.14 351.304 112.52 349.174 112.52C348.684 112.52 348.184 112.45 347.694 112.3Z" fill="black"/>
<path d="M346.264 116.911C343.624 116.091 342.144 113.291 342.964 110.651C343.784 108.011 346.584 106.541 349.224 107.351C351.854 108.171 353.334 110.971 352.514 113.611C351.854 115.761 349.873 117.131 347.743 117.131C347.253 117.131 346.754 117.061 346.264 116.911Z" fill="black"/>
<path d="M341.583 122.041C339.243 120.571 338.553 117.481 340.033 115.141C341.513 112.811 344.603 112.121 346.933 113.601C349.263 115.071 349.953 118.161 348.483 120.491C347.523 122.001 345.903 122.821 344.253 122.821C343.333 122.821 342.413 122.571 341.583 122.041Z" fill="black"/>
<path d="M340.113 124.35C337.783 122.87 337.093 119.78 338.573 117.45C340.043 115.12 343.133 114.43 345.473 115.9C347.803 117.38 348.493 120.47 347.013 122.8C346.063 124.31 344.443 125.13 342.793 125.13C341.873 125.13 340.943 124.88 340.113 124.35Z" fill="black"/>
<path d="M336.183 127.51C334.163 125.63 334.053 122.47 335.933 120.45C337.813 118.43 340.983 118.32 343.003 120.2C345.023 122.08 345.133 125.25 343.253 127.27C342.263 128.32 340.933 128.86 339.593 128.86C338.373 128.86 337.143 128.41 336.183 127.51Z" fill="black"/>
<path d="M329.923 131.441C328.323 129.191 328.863 126.071 331.113 124.471C333.363 122.881 336.483 123.411 338.083 125.671C339.683 127.921 339.143 131.041 336.893 132.641C336.013 133.261 335.003 133.561 334.003 133.561C332.443 133.561 330.893 132.821 329.923 131.441Z" fill="black"/>
<path d="M311.934 135.61C311.574 132.88 313.514 130.37 316.244 130.01C318.984 129.65 321.494 131.58 321.854 134.32C322.214 137.06 320.274 139.57 317.544 139.93C317.324 139.95 317.104 139.97 316.884 139.97C314.414 139.97 312.264 138.13 311.934 135.61Z" fill="black"/>
<path d="M308.883 140.27C306.133 140 304.133 137.55 304.403 134.8C304.673 132.06 307.123 130.05 309.873 130.32C312.613 130.59 314.623 133.04 314.353 135.79C314.093 138.37 311.923 140.3 309.383 140.3C309.223 140.3 309.053 140.3 308.883 140.27Z" fill="black"/>
<path d="M300.863 138.92C298.273 137.97 296.933 135.1 297.883 132.51C298.833 129.91 301.703 128.58 304.293 129.53C306.893 130.48 308.223 133.35 307.273 135.94C306.533 137.97 304.623 139.23 302.583 139.23C302.013 139.23 301.433 139.13 300.863 138.92Z" fill="black"/>
<path d="M294.223 136.501C291.623 135.551 290.293 132.681 291.243 130.081C292.183 127.491 295.053 126.161 297.653 127.101C300.243 128.051 301.583 130.921 300.633 133.511C299.893 135.541 297.973 136.801 295.933 136.801C295.363 136.801 294.783 136.701 294.223 136.501Z" fill="black"/>
<path d="M288.163 133.31C285.753 131.96 284.893 128.92 286.243 126.5C287.583 124.09 290.633 123.23 293.043 124.58C295.453 125.93 296.313 128.97 294.963 131.38C294.053 133.02 292.353 133.95 290.603 133.95C289.773 133.95 288.933 133.74 288.163 133.31Z" fill="black"/>
<path d="M284.513 130.62C282.413 128.83 282.163 125.68 283.953 123.57C285.743 121.47 288.903 121.22 291.003 123.01C293.103 124.81 293.353 127.96 291.563 130.06C290.573 131.22 289.163 131.82 287.753 131.82C286.603 131.82 285.453 131.43 284.513 130.62Z" fill="black"/>
<path d="M281.583 128.161C279.673 126.161 279.743 123.001 281.743 121.091C283.743 119.181 286.903 119.251 288.813 121.251C290.723 123.251 290.653 126.411 288.653 128.321C287.683 129.251 286.443 129.711 285.203 129.711C283.883 129.711 282.563 129.191 281.583 128.161Z" fill="black"/>
<path d="M277.563 123.95C275.663 121.96 275.733 118.79 277.733 116.88C279.723 114.98 282.893 115.05 284.793 117.05C286.703 119.04 286.633 122.21 284.633 124.12C283.663 125.04 282.423 125.5 281.183 125.5C279.863 125.5 278.543 124.98 277.563 123.95Z" fill="black"/>
<path d="M274.313 119.34C272.373 117.38 272.383 114.21 274.343 112.27C276.303 110.32 279.463 110.33 281.413 112.29C283.363 114.25 283.343 117.42 281.393 119.36C280.413 120.33 279.143 120.81 277.863 120.81C276.583 120.81 275.293 120.32 274.313 119.34Z" fill="black"/>
<path d="M271.404 114.27C270.394 111.7 271.654 108.8 274.224 107.79C276.794 106.78 279.704 108.04 280.714 110.61C281.724 113.18 280.454 116.08 277.884 117.09C277.284 117.33 276.664 117.44 276.054 117.44C274.064 117.44 272.174 116.24 271.404 114.27Z" fill="black"/>
<path d="M268.934 106.09C268.444 103.38 270.254 100.781 272.964 100.281C275.684 99.7905 278.284 101.601 278.774 104.321C279.264 107.031 277.464 109.631 274.744 110.131C274.444 110.181 274.144 110.211 273.854 110.211C271.474 110.211 269.374 108.51 268.934 106.09Z" fill="black"/>
<path d="M273.854 110.211C271.514 110.211 269.423 108.56 268.953 106.18L268.103 101.87C267.563 99.1605 269.323 96.5305 272.033 95.9905C274.743 95.4505 277.373 97.2105 277.913 99.9205L278.763 104.23C279.303 106.94 277.543 109.57 274.833 110.11C274.503 110.17 274.184 110.211 273.854 110.211Z" fill="black"/>
<path d="M128.143 16.3605C127.023 14.0105 127.883 11.2205 130.073 9.91046C131.883 8.64046 134.383 8.68046 136.163 10.1605C138.283 11.9305 138.563 15.0805 136.793 17.2005C136.133 17.9605 135.803 18.1105 135.513 18.3205C135.233 18.4905 135.023 18.6005 134.823 18.7005C134.123 19.0405 133.383 19.2005 132.653 19.2005C130.793 19.2005 129.003 18.1505 128.143 16.3605Z" fill="black"/>
<path d="M133.153 13.1805C131.763 10.7905 132.573 7.73054 134.953 6.34054C137.343 4.95054 140.403 5.76054 141.793 8.15054C143.183 10.5405 142.373 13.6005 139.983 14.9805C139.193 15.4405 138.333 15.6605 137.473 15.6605C135.753 15.6605 134.073 14.7705 133.153 13.1805Z" fill="black"/>
<path d="M141.063 8.28044C140.263 5.63044 141.763 2.84044 144.403 2.05044C147.053 1.25044 149.843 2.75044 150.633 5.39044C151.433 8.04044 149.933 10.8304 147.293 11.6204C146.813 11.7704 146.323 11.8404 145.843 11.8404C143.703 11.8404 141.713 10.4404 141.063 8.28044Z" fill="black"/>
<path d="M151.253 5.08053C151.213 2.31053 153.423 0.0405345 156.183 0.000534533C158.943 -0.0394655 161.213 2.17053 161.253 4.93053C161.293 7.69053 159.093 9.96053 156.333 10.0005H156.253C153.523 10.0005 151.293 7.81053 151.253 5.08053Z" fill="black"/>
<path d="M168.894 12.0404C166.294 11.0904 164.954 8.22044 165.904 5.63044C166.844 3.03044 169.714 1.69044 172.304 2.64044C174.904 3.58044 176.244 6.45044 175.294 9.05044C174.564 11.0804 172.644 12.3404 170.604 12.3404C170.034 12.3404 169.454 12.2404 168.894 12.0404Z" fill="black"/>
<path d="M178.483 17.6205C176.343 15.8705 176.033 12.7205 177.783 10.5805C179.533 8.44046 182.683 8.13046 184.823 9.88046C186.953 11.6305 187.273 14.7805 185.523 16.9105C184.533 18.1205 183.093 18.7505 181.643 18.7505C180.533 18.7505 179.413 18.3805 178.483 17.6205Z" fill="black"/>
<path d="M180.373 19.1605C178.233 17.4105 177.913 14.2605 179.663 12.1205C181.413 9.99047 184.563 9.67047 186.703 11.4205C188.843 13.1705 189.153 16.3205 187.403 18.4605C186.413 19.6605 184.983 20.2905 183.533 20.2905C182.423 20.2905 181.293 19.9205 180.373 19.1605Z" fill="black"/>
<path d="M181.703 20.5005C179.973 18.3405 180.323 15.2005 182.473 13.4705C184.623 11.7405 187.773 12.0805 189.503 14.2305C191.233 16.3805 190.893 19.5305 188.733 21.2605C187.813 22.0005 186.703 22.3605 185.613 22.3605C184.143 22.3605 182.693 21.7305 181.703 20.5005Z" fill="black"/>
<path d="M183.104 22.2305C181.374 20.0705 181.714 16.9305 183.864 15.2005C186.014 13.4705 189.164 13.8105 190.894 15.9605C192.624 18.1105 192.284 21.2605 190.134 22.9905C189.204 23.7305 188.104 24.0905 187.004 24.0905C185.534 24.0905 184.084 23.4505 183.104 22.2305Z" fill="black"/>
<path d="M184.913 24.5405C183.213 22.3705 183.593 19.2305 185.763 17.5205C187.933 15.8205 191.083 16.2005 192.783 18.3705C194.483 20.5405 194.113 23.6905 191.933 25.3905C191.023 26.1105 189.933 26.4605 188.853 26.4605C187.373 26.4605 185.903 25.8005 184.913 24.5405Z" fill="black"/>
<path d="M188.183 30.1305C187.153 27.5705 188.383 24.6605 190.943 23.6205C193.503 22.5805 196.413 23.8205 197.453 26.3805C198.493 28.9405 197.253 31.8505 194.703 32.8905C194.083 33.1405 193.443 33.2605 192.823 33.2605C190.843 33.2605 188.973 32.0805 188.183 30.1305Z" fill="black"/>
<path d="M191.104 43.0704C190.844 40.3204 192.864 37.8804 195.614 37.6204C198.364 37.3604 200.804 39.3804 201.064 42.1204C201.324 44.8704 199.304 47.3104 196.564 47.5804C196.394 47.5804 196.244 47.6004 196.084 47.6004C193.534 47.6004 191.354 45.6604 191.104 43.0704Z" fill="black"/>
<path d="M195.053 54.4905C192.303 54.2205 190.293 51.7705 190.563 49.0205C190.833 46.2705 193.283 44.2705 196.033 44.5405C198.783 44.8105 200.783 47.2605 200.513 50.0105C200.263 52.5805 198.083 54.5105 195.543 54.5105C195.383 54.5105 195.213 54.5105 195.053 54.4905Z" fill="black"/>
<path d="M191.143 63.3605C188.563 62.3705 187.273 59.4805 188.253 56.9105C189.243 54.3305 192.133 53.0305 194.713 54.0205C197.293 55.0005 198.583 57.8905 197.593 60.4705C196.833 62.4705 194.943 63.6905 192.923 63.6905C192.333 63.6905 191.733 63.5805 191.143 63.3605Z" fill="black"/>
<path d="M187.444 67.9304C185.134 66.4204 184.484 63.3204 185.994 61.0104C187.504 58.7004 190.604 58.0504 192.914 59.5604C195.224 61.0704 195.874 64.1704 194.364 66.4804C193.404 67.9504 191.804 68.7504 190.174 68.7504C189.234 68.7504 188.284 68.4804 187.444 67.9304Z" fill="black"/>
<path d="M172.274 79.5105C170.834 77.1605 171.574 74.0805 173.934 72.6405C176.284 71.2005 179.364 71.9405 180.804 74.2905C182.244 76.6505 181.504 79.7205 179.154 81.1705C178.334 81.6705 177.434 81.9005 176.544 81.9005C174.864 81.9005 173.224 81.0505 172.274 79.5105Z" fill="black"/>
<path d="M168.093 80.8205C167.063 78.2505 168.303 75.3405 170.873 74.3105C173.433 73.2905 176.343 74.5305 177.373 77.1005C178.403 79.6605 177.153 82.5705 174.593 83.6005C173.983 83.8405 173.353 83.9605 172.733 83.9605C170.753 83.9605 168.873 82.7705 168.093 80.8205Z" fill="black"/>
<path d="M164.923 82.0905C163.893 79.5305 165.133 76.6105 167.703 75.5905C170.263 74.5605 173.173 75.8005 174.203 78.3605C175.233 80.9305 173.983 83.8405 171.423 84.8705C170.813 85.1105 170.183 85.2305 169.563 85.2305C167.583 85.2305 165.703 84.0405 164.923 82.0905Z" fill="black"/>
<path d="M162.554 82.4504C161.724 79.8204 163.174 77.0104 165.804 76.1704C168.444 75.3404 171.254 76.7904 172.084 79.4304C172.924 82.0604 171.464 84.8704 168.834 85.7004C168.324 85.8604 167.824 85.9404 167.314 85.9404C165.194 85.9404 163.234 84.5804 162.554 82.4504Z" fill="black"/>
<path d="M155.113 82.1005C155.113 79.3405 157.343 77.1005 160.103 77.1005C162.863 77.0905 165.113 79.3305 165.113 82.0905C165.113 84.8505 162.883 87.0905 160.123 87.1005C157.363 87.0905 155.123 84.8605 155.123 82.1005H155.113Z" fill="black"/>
<path d="M150.063 82.1105C150.063 79.3505 152.293 77.1105 155.053 77.1105C157.823 77.1105 160.063 79.3405 160.063 82.1005C160.073 84.8605 157.833 87.1005 155.073 87.1005H155.063C152.313 87.1005 150.073 84.8705 150.063 82.1105Z" fill="black"/>
<path d="M151.543 86.8105C148.813 86.4205 146.913 83.8805 147.313 81.1505C147.703 78.4105 150.243 76.5205 152.973 76.9105C155.703 77.3005 157.603 79.8405 157.213 82.5705C156.853 85.0605 154.713 86.8605 152.263 86.8605C152.033 86.8605 151.793 86.8405 151.543 86.8105Z" fill="black"/>
<path d="M148.343 86.3405C145.613 85.9405 143.723 83.4005 144.123 80.6705C144.523 77.9405 147.063 76.0505 149.793 76.4505C152.523 76.8505 154.413 79.3905 154.013 82.1205C153.653 84.6005 151.513 86.3905 149.073 86.3905C148.833 86.3905 148.593 86.3805 148.343 86.3405Z" fill="black"/>
<path d="M145.883 85.6105C143.193 84.9805 141.533 82.2905 142.173 79.6005C142.803 76.9105 145.493 75.2505 148.183 75.8805C150.873 76.5205 152.533 79.2105 151.903 81.9005C151.353 84.2005 149.303 85.7505 147.043 85.7505C146.653 85.7505 146.273 85.7105 145.883 85.6105Z" fill="black"/>
<path d="M141.794 84.2505C139.204 83.2905 137.874 80.4205 138.834 77.8305C139.784 75.2405 142.664 73.9105 145.254 74.8605C147.844 75.8205 149.174 78.6905 148.214 81.2805C147.474 83.3105 145.554 84.5605 143.524 84.5605C142.954 84.5605 142.364 84.4605 141.794 84.2505Z" fill="black"/>
<path d="M135.453 81.1105C133.143 79.6005 132.483 76.5105 133.983 74.1905C135.493 71.8805 138.583 71.2205 140.903 72.7205C143.223 74.2205 143.873 77.3205 142.373 79.6405C141.413 81.1105 139.813 81.9105 138.173 81.9105C137.243 81.9105 136.303 81.6505 135.453 81.1105Z" fill="black"/>
<path d="M130.953 78.3605C128.903 76.5105 128.743 73.3505 130.583 71.2905C132.433 69.2405 135.593 69.0805 137.643 70.9305C139.703 72.7805 139.863 75.9405 138.013 77.9905C137.023 79.0805 135.663 79.6405 134.303 79.6405C133.103 79.6405 131.913 79.2205 130.953 78.3605Z" fill="black"/>
<path d="M128.944 76.5404C126.884 74.6904 126.724 71.5304 128.574 69.4804C130.414 67.4304 133.584 67.2604 135.634 69.1104C137.684 70.9604 137.854 74.1204 136.004 76.1704C135.014 77.2704 133.654 77.8304 132.284 77.8304C131.094 77.8304 129.894 77.4004 128.944 76.5404Z" fill="black"/>
<path d="M120.453 66.7505C119.163 64.3105 120.083 61.2905 122.523 59.9905C124.953 58.6905 127.983 59.6105 129.283 62.0505C130.583 64.4805 129.663 67.5105 127.223 68.8105C126.473 69.2105 125.663 69.4005 124.873 69.4005C123.083 69.4005 121.353 68.4405 120.453 66.7505Z" fill="black"/>
<path d="M119.363 64.7105C117.723 62.4805 118.213 59.3505 120.433 57.7205C122.663 56.0905 125.793 56.5705 127.423 58.8005C129.053 61.0305 128.573 64.1605 126.353 65.7905C125.453 66.4405 124.423 66.7605 123.393 66.7605C121.853 66.7605 120.343 66.0505 119.363 64.7105Z" fill="black"/>
<path d="M116.833 59.2905C115.853 56.7005 117.153 53.8205 119.733 52.8405C122.313 51.8605 125.203 53.1605 126.183 55.7405C127.163 58.3205 125.863 61.2105 123.273 62.1905C122.693 62.4105 122.093 62.5105 121.503 62.5105C119.493 62.5105 117.593 61.2805 116.833 59.2905Z" fill="black"/>
<path d="M115.293 54.8405C114.673 52.1505 116.353 49.4605 119.043 48.8405C121.733 48.2205 124.423 49.9005 125.043 52.5905C125.663 55.2805 123.983 57.9605 121.293 58.5805C120.913 58.6705 120.533 58.7105 120.163 58.7105C117.893 58.7105 115.833 57.1505 115.293 54.8405Z" fill="black"/>
<path d="M114.563 51.6905C113.943 49.0005 115.623 46.3205 118.313 45.6905C121.003 45.0705 123.683 46.7405 124.313 49.4305C124.933 52.1205 123.253 54.8105 120.563 55.4305C120.183 55.5205 119.803 55.5605 119.433 55.5605C117.163 55.5605 115.103 54.0005 114.563 51.6905Z" fill="black"/>
<path d="M118.434 43.5404C115.704 43.1304 113.814 40.5904 114.214 37.8604C114.624 35.1304 117.164 33.2404 119.894 33.6404C122.624 34.0504 124.514 36.5904 124.114 39.3204C123.744 41.8004 121.614 43.5904 119.174 43.5904C118.934 43.5904 118.684 43.5704 118.434 43.5404Z" fill="black"/>
<path d="M122.093 27.4805C119.773 25.9905 119.103 22.8905 120.603 20.5705C122.103 18.2505 125.193 17.5805 127.513 19.0805C129.833 20.5705 130.503 23.6705 129.003 25.9905C128.053 27.4705 126.443 28.2805 124.803 28.2805C123.873 28.2805 122.933 28.0205 122.093 27.4805Z" fill="black"/>
<path d="M124.723 23.4105C122.403 21.9105 121.733 18.8205 123.223 16.5005C124.723 14.1805 127.813 13.5105 130.143 15.0105C132.463 16.5005 133.123 19.6005 131.633 21.9205C130.673 23.4005 129.063 24.2105 127.423 24.2105C126.493 24.2105 125.553 23.9505 124.723 23.4105Z" fill="black"/>
<path d="M128.783 17.8604C126.823 15.9104 126.823 12.7404 128.783 10.7904C130.733 8.83043 133.903 8.83043 135.853 10.7904C137.803 12.7404 137.803 15.9104 135.853 17.8604C134.873 18.8304 133.593 19.3204 132.313 19.3204C131.033 19.3204 129.753 18.8304 128.783 17.8604Z" fill="black"/>
<path d="M132.323 19.3204C130.483 19.3204 128.713 18.3004 127.843 16.5504C126.613 14.0804 127.623 11.0804 130.093 9.85045L130.743 9.53045C133.213 8.30045 136.213 9.31045 137.443 11.7804C138.673 14.2504 137.663 17.2504 135.193 18.4804L134.543 18.8004C133.823 19.1604 133.073 19.3204 132.323 19.3204Z" fill="black"/>
<path d="M137.504 30.6804C135.554 28.7304 135.554 25.5704 137.504 23.6104C139.454 21.6604 142.624 21.6604 144.574 23.6104C146.524 25.5604 146.524 28.7304 144.574 30.6804C143.604 31.6604 142.324 32.1505 141.044 32.1505C139.764 32.1505 138.484 31.6604 137.504 30.6804Z" fill="black"/>
<path d="M137.463 63.5605C135.513 61.6105 135.513 58.4405 137.463 56.4905C139.413 54.5405 142.583 54.5405 144.533 56.4905C146.483 58.4405 146.493 61.6105 144.533 63.5605C143.563 64.5405 142.283 65.0304 141.003 65.0304C139.723 65.0304 138.443 64.5405 137.463 63.5605Z" fill="black"/>
<path d="M170.343 63.5205C168.393 61.5705 168.393 58.4105 170.343 56.4505C172.293 54.5005 175.463 54.5005 177.413 56.4505C179.363 58.4105 179.363 61.5705 177.413 63.5205C176.433 64.5005 175.163 64.9905 173.883 64.9905C172.603 64.9905 171.323 64.5005 170.343 63.5205Z" fill="black"/>
<path d="M170.383 30.6505C168.433 28.6905 168.433 25.5305 170.383 23.5705C172.333 21.6205 175.503 21.6205 177.453 23.5705C179.403 25.5305 179.403 28.6905 177.453 30.6405C176.473 31.6205 175.193 32.1105 173.913 32.1105C172.633 32.1105 171.363 31.6205 170.383 30.6505Z" fill="black"/>
<path d="M45.2534 108.16C42.6134 107.34 41.1434 104.54 41.9634 101.9C42.7834 99.2604 45.5934 97.7904 48.2234 98.6204C50.8634 99.4404 52.3334 102.24 51.5134 104.88C50.8434 107.02 48.8734 108.39 46.7434 108.39C46.2434 108.39 45.7434 108.32 45.2534 108.16Z" fill="black"/>
<path d="M45.5034 108.621C43.7634 106.481 44.0834 103.331 46.2234 101.581C48.3634 99.8405 51.5134 100.161 53.2634 102.301C55.0034 104.441 54.6834 107.591 52.5434 109.341C51.6134 110.091 50.4934 110.461 49.3834 110.461C47.9334 110.461 46.4934 109.831 45.5034 108.621Z" fill="black"/>
<path d="M43.2636 119.3C41.7936 116.96 42.5136 113.88 44.8536 112.42C47.2036 110.96 50.2836 111.67 51.7436 114.01C53.2036 116.36 52.4936 119.44 50.1436 120.9C49.3236 121.41 48.4136 121.66 47.5036 121.66C45.8336 121.66 44.2036 120.82 43.2636 119.3Z" fill="black"/>
<path d="M35.7735 118.061C35.7635 115.301 37.9935 113.061 40.7535 113.051C43.5135 113.051 45.7635 115.271 45.7735 118.041C45.7835 120.801 43.5435 123.041 40.7835 123.051H40.7735C38.0135 123.051 35.7835 120.821 35.7735 118.061Z" fill="black"/>
<path d="M23.9034 128.47C21.7634 126.72 21.4534 123.57 23.1934 121.44C24.9434 119.3 28.0934 118.98 30.2334 120.73C32.3734 122.47 32.6934 125.62 30.9434 127.76C29.9534 128.97 28.5134 129.6 27.0634 129.6C25.9534 129.6 24.8334 129.23 23.9034 128.47Z" fill="black"/>
<path d="M20.3236 132.86C18.1836 131.12 17.8636 127.97 19.6136 125.83C21.3536 123.69 24.5036 123.37 26.6436 125.12C28.7836 126.86 29.1036 130.01 27.3636 132.15C26.3736 133.36 24.9336 133.99 23.4836 133.99C22.3736 133.99 21.2536 133.62 20.3236 132.86Z" fill="black"/>
<path d="M19.6634 137.15C17.5734 135.34 17.3434 132.19 19.1434 130.1C20.9434 128 24.1034 127.77 26.1934 129.57C28.2834 131.38 28.5234 134.53 26.7134 136.62C25.7334 137.77 24.3334 138.36 22.9334 138.36C21.7734 138.36 20.6134 137.96 19.6634 137.15Z" fill="black"/>
<path d="M22.0132 133.61C22.0132 130.85 24.2532 128.61 27.0132 128.61C29.7732 128.61 32.0132 130.85 32.0132 133.61C32.0132 136.37 29.7732 138.61 27.0132 138.61C24.2532 138.61 22.0132 136.37 22.0132 133.61Z" fill="black"/>
<path d="M55.8833 138.65C53.1233 138.65 50.8833 136.4 50.8833 133.64C50.8933 130.88 53.1333 128.64 55.8933 128.65C58.6533 128.65 60.8933 130.89 60.8833 133.65C60.8833 136.41 58.6433 138.65 55.8933 138.65H55.8833Z" fill="black"/>
<path d="M57.0233 134.18C56.2133 131.54 57.6933 128.75 60.3333 127.93C62.9733 127.12 65.7733 128.6 66.5833 131.24C67.3933 133.88 65.9133 136.68 63.2733 137.49C62.7833 137.64 62.2933 137.71 61.8033 137.71C59.6633 137.71 57.6833 136.33 57.0233 134.18Z" fill="black"/>
<path d="M64.0433 138.041C61.2933 137.781 59.2733 135.341 59.5333 132.601C59.7833 129.851 62.2233 127.821 64.9733 128.081C67.7233 128.341 69.7433 130.771 69.4933 133.521C69.2433 136.111 67.0733 138.061 64.5133 138.061C64.3633 138.061 64.2033 138.051 64.0433 138.041Z" fill="black"/>
<path d="M68.6635 138.101C65.9035 138.061 63.6934 135.791 63.7334 133.031C63.7734 130.271 66.0435 128.061 68.8035 128.101C71.5635 128.141 73.7735 130.411 73.7335 133.171C73.6935 135.911 71.4635 138.101 68.7335 138.101H68.6635Z" fill="black"/>
<path d="M67.9034 133.54C67.6434 130.79 69.6634 128.35 72.4134 128.09C75.1634 127.83 77.6034 129.84 77.8634 132.59C78.1234 135.34 76.1034 137.78 73.3534 138.04C73.1934 138.06 73.0334 138.061 72.8834 138.061C70.3334 138.061 68.1534 136.12 67.9034 133.54Z" fill="black"/>
<path d="M76.1436 138.951C74.3536 136.851 74.5936 133.691 76.6936 131.891C78.7836 130.101 81.9436 130.341 83.7436 132.441C85.5336 134.531 85.2936 137.691 83.1936 139.491C82.2536 140.301 81.0936 140.691 79.9436 140.691C78.5336 140.691 77.1336 140.101 76.1436 138.951Z" fill="black"/>
<path d="M77.3533 141.09C77.2633 138.33 79.4333 136.03 82.1933 135.95C84.9533 135.86 87.2633 138.03 87.3433 140.79C87.4233 143.55 85.2533 145.86 82.4933 145.94H82.3433C79.6533 145.94 77.4333 143.8 77.3533 141.09Z" fill="black"/>
<path d="M80.6633 153.8C77.9533 153.28 76.1733 150.66 76.6933 147.95C77.2033 145.24 79.8233 143.46 82.5333 143.97C85.2533 144.49 87.0333 147.11 86.5133 149.82C86.0533 152.22 83.9633 153.89 81.6033 153.89C81.2933 153.89 80.9833 153.86 80.6633 153.8Z" fill="black"/>
<path d="M74.7232 165.09C72.3032 163.76 71.4232 160.721 72.7532 158.301C74.0832 155.881 77.1232 155.001 79.5432 156.331C81.9632 157.661 82.8432 160.7 81.5132 163.12C80.6032 164.78 78.8932 165.711 77.1332 165.711C76.3132 165.711 75.4932 165.51 74.7232 165.09Z" fill="black"/>
<path d="M70.3032 170.41C68.0432 168.82 67.4932 165.7 69.0832 163.44C70.6732 161.18 73.7932 160.64 76.0532 162.22C78.3132 163.81 78.8532 166.93 77.2632 169.19C76.2932 170.57 74.7432 171.31 73.1732 171.31C72.1732 171.31 71.1732 171.02 70.3032 170.41Z" fill="black"/>
<path d="M64.9733 173.58C63.3633 171.34 63.8733 168.21 66.1133 166.6C68.3633 164.99 71.4833 165.51 73.0933 167.75C74.7033 169.99 74.1933 173.12 71.9433 174.73C71.0633 175.36 70.0433 175.67 69.0333 175.67C67.4833 175.67 65.9433 174.94 64.9733 173.58Z" fill="black"/>
<path d="M62.2434 175.44C60.7434 173.12 61.4234 170.03 63.7434 168.54C66.0634 167.04 69.1534 167.71 70.6534 170.03C72.1434 172.36 71.4734 175.45 69.1534 176.94C68.3134 177.48 67.3834 177.74 66.4534 177.74C64.8134 177.74 63.2034 176.93 62.2434 175.44Z" fill="black"/>
<path d="M58.4533 177.891C56.9633 175.571 57.6333 172.47 59.9533 170.98C62.2733 169.48 65.3633 170.151 66.8633 172.471C68.3533 174.791 67.6833 177.891 65.3633 179.381C64.5233 179.921 63.5933 180.18 62.6633 180.18C61.0233 180.18 59.4133 179.371 58.4533 177.891Z" fill="black"/>
<path d="M54.0735 178.2C53.4535 175.51 55.1335 172.82 57.8235 172.21C60.5235 171.59 63.2035 173.27 63.8235 175.96C64.4335 178.65 62.7535 181.34 60.0635 181.95C59.6835 182.04 59.3135 182.08 58.9435 182.08C56.6635 182.08 54.6035 180.51 54.0735 178.2Z" fill="black"/>
<path d="M51.1032 179.71C50.2632 177.08 51.7132 174.27 54.3432 173.43C56.9732 172.59 59.7832 174.04 60.6232 176.67C61.4632 179.3 60.0132 182.11 57.3832 182.95C56.8832 183.11 56.3632 183.19 55.8632 183.19C53.7432 183.19 51.7832 181.84 51.1032 179.71Z" fill="black"/>
<path d="M42.5132 180.731C42.1332 177.991 44.0332 175.461 46.7632 175.081C49.5032 174.691 52.0332 176.591 52.4132 179.331C52.8032 182.061 50.9032 184.591 48.1632 184.981C47.9232 185.011 47.6932 185.031 47.4632 185.031C45.0132 185.031 42.8732 183.221 42.5132 180.731Z" fill="black"/>
<path d="M40.2735 180.46C40.0935 177.71 42.1735 175.32 44.9335 175.14C47.6835 174.95 50.0635 177.03 50.2535 179.79C50.4435 182.54 48.3535 184.93 45.6035 185.11C45.4835 185.12 45.3735 185.13 45.2635 185.13C42.6535 185.13 40.4535 183.1 40.2735 180.46Z" fill="black"/>
<path d="M38.5932 184.61C36.1032 183.42 35.0532 180.43 36.2432 177.94C37.4332 175.45 40.4132 174.39 42.9032 175.58C45.4032 176.78 46.4532 179.76 45.2632 182.25C44.4032 184.05 42.6132 185.1 40.7532 185.1C40.0232 185.1 39.2932 184.94 38.5932 184.61Z" fill="black"/>
<path d="M32.2436 179.421C30.5236 177.261 30.8836 174.111 33.0436 172.391C35.2036 170.671 38.3436 171.031 40.0636 173.191C41.7836 175.351 41.4336 178.491 39.2736 180.211C38.3536 180.951 37.2536 181.301 36.1636 181.301C34.6936 181.301 33.2336 180.661 32.2436 179.421Z" fill="black"/>
<path d="M30.2132 172.18C30.0432 169.42 32.1433 167.05 34.9033 166.88C37.6533 166.71 40.0232 168.81 40.1932 171.57C40.3632 174.32 38.2632 176.69 35.5132 176.86C35.4032 176.87 35.3032 176.87 35.1932 176.87C32.5732 176.87 30.3732 174.83 30.2132 172.18Z" fill="black"/>
<path d="M35.5234 167.531C33.9634 165.251 34.5434 162.141 36.8234 160.581C39.1034 159.021 42.2134 159.611 43.7734 161.891C45.3334 164.171 44.7534 167.281 42.4734 168.831C41.6034 169.431 40.6235 169.711 39.6535 169.711C38.0534 169.711 36.4934 168.951 35.5234 167.531Z" fill="black"/>
<path d="M44.2336 164.521C43.4736 161.861 45.0136 159.101 47.6736 158.341C50.3236 157.581 53.0936 159.121 53.8536 161.781C54.6036 164.431 53.0636 167.201 50.4136 167.961C49.9536 168.091 49.4936 168.151 49.0436 168.151C46.8636 168.151 44.8636 166.711 44.2336 164.521Z" fill="black"/>
<path d="M52.4236 162.091C50.9336 159.761 51.6136 156.671 53.9436 155.181C56.2736 153.691 59.3636 154.381 60.8536 156.711C62.3336 159.031 61.6536 162.121 59.3236 163.611C58.4936 164.141 57.5636 164.401 56.6436 164.401C54.9936 164.401 53.3736 163.581 52.4236 162.091Z" fill="black"/>
<path d="M59.7034 155.9C57.7734 153.92 57.8134 150.75 59.7934 148.83C61.7734 146.9 64.9334 146.94 66.8634 148.92C68.7934 150.89 68.7534 154.06 66.7734 155.99C65.8034 156.93 64.5434 157.41 63.2834 157.41C61.9834 157.41 60.6834 156.9 59.7034 155.9Z" fill="black"/>
<path d="M58.8234 150.75C58.7534 147.99 60.9334 145.69 63.6934 145.62C66.4534 145.56 68.7434 147.74 68.8134 150.5C68.8834 153.26 66.7034 155.55 63.9434 155.62H63.8134C61.1134 155.62 58.8834 153.47 58.8234 150.75Z" fill="black"/>
<path d="M54.5034 149.34C54.5034 146.58 56.7434 144.34 59.5034 144.34C62.2634 144.34 64.5034 146.58 64.5034 149.34C64.5034 152.11 62.2634 154.34 59.5034 154.34C56.7434 154.34 54.5034 152.11 54.5034 149.34Z" fill="black"/>
<path d="M38.3234 149.441C38.3034 146.681 40.5334 144.431 43.2934 144.411C46.0534 144.411 48.3034 146.631 48.3234 149.391C48.3334 152.161 46.1034 154.401 43.3434 154.421H43.3134C40.5634 154.421 38.3334 152.191 38.3234 149.441Z" fill="black"/>
<path d="M38.1634 153.311C35.9334 151.681 35.4534 148.551 37.0834 146.321C38.7134 144.091 41.8434 143.611 44.0734 145.241C46.2934 146.871 46.7834 150.001 45.1534 152.221C44.1734 153.561 42.6534 154.271 41.1134 154.271C40.0934 154.271 39.0534 153.961 38.1634 153.311Z" fill="black"/>
<path d="M32.9234 148.831C32.7134 146.071 34.7834 143.681 37.5434 143.471C40.2934 143.271 42.6934 145.34 42.8934 148.09C43.0934 150.85 41.0234 153.241 38.2734 153.451C38.1434 153.461 38.0234 153.461 37.9034 153.461C35.3034 153.461 33.1134 151.461 32.9234 148.831Z" fill="black"/>
<path d="M30.4435 149.011C30.2435 146.251 32.3135 143.861 35.0635 143.661C37.8235 143.451 40.2135 145.521 40.4135 148.281C40.6235 151.031 38.5535 153.431 35.7935 153.631C35.6735 153.641 35.5535 153.641 35.4235 153.641C32.8335 153.641 30.6435 151.641 30.4435 149.011Z" fill="black"/>
<path d="M19.2936 148.78C19.2136 146.02 21.3936 143.72 24.1536 143.64C26.9136 143.56 29.2136 145.74 29.2836 148.5C29.3636 151.26 27.1936 153.56 24.4336 153.64H24.2836C21.5836 153.64 19.3636 151.49 19.2936 148.78Z" fill="black"/>
<path d="M11.9534 153.64C9.19344 153.56 7.01344 151.26 7.09344 148.5C7.17344 145.74 9.47344 143.57 12.2334 143.65C14.9934 143.72 17.1734 146.02 17.0934 148.79C17.0134 151.5 14.7934 153.64 12.0934 153.64H11.9534Z" fill="black"/>
<path d="M0.043193 143.34C-0.316807 140.6 1.61319 138.1 4.35319 137.74C7.09319 137.38 9.60319 139.31 9.95319 142.05C10.3132 144.79 8.38319 147.3 5.64319 147.66C5.42319 147.68 5.20319 147.7 4.99319 147.7C2.51319 147.7 0.363193 145.86 0.043193 143.34Z" fill="black"/>
<path d="M5.24341 134.05C2.58341 133.3 1.04341 130.53 1.80341 127.87C2.56341 125.22 5.33341 123.68 7.98341 124.44C10.6434 125.2 12.1734 127.96 11.4234 130.62C10.7934 132.81 8.79341 134.25 6.61341 134.25C6.16341 134.25 5.70341 134.18 5.24341 134.05Z" fill="black"/>
<path d="M6.12358 130.57C3.54358 129.57 2.27358 126.67 3.27358 124.1C4.26358 121.53 7.16358 120.25 9.74358 121.25C12.3136 122.25 13.5936 125.15 12.5936 127.72C11.8236 129.7 9.93358 130.91 7.93358 130.91C7.32358 130.91 6.71358 130.8 6.12358 130.57Z" fill="black"/>
<path d="M21.0933 109.01C19.8433 106.54 20.8433 103.54 23.3033 102.3C25.7733 101.05 28.7833 102.05 30.0233 104.51C31.2633 106.98 30.2733 109.99 27.8033 111.23C27.0833 111.59 26.3133 111.76 25.5533 111.76C23.7333 111.76 21.9633 110.76 21.0933 109.01Z" fill="black"/>
<path d="M23.6235 106.17C23.1635 103.45 24.9935 100.87 27.7235 100.41C30.4435 99.9505 33.0235 101.78 33.4835 104.51C33.9435 107.23 32.1035 109.81 29.3835 110.27C29.1035 110.32 28.8235 110.34 28.5435 110.34C26.1535 110.34 24.0335 108.61 23.6235 106.17Z" fill="black"/>
<path d="M26.6734 106.51C25.5334 104 26.6534 101.03 29.1634 99.8905C31.6834 98.7605 34.6434 99.8705 35.7834 102.39C36.9234 104.91 35.8034 107.87 33.2834 109.01C32.6234 109.31 31.9234 109.45 31.2334 109.45C29.3234 109.45 27.5034 108.36 26.6734 106.51Z" fill="black"/>
<path d="M35.8134 103.17C35.5434 100.42 37.5534 97.9805 40.3034 97.7105C43.0534 97.4405 45.5034 99.4505 45.7734 102.19C46.0434 104.94 44.0334 107.39 41.2834 107.66C41.1134 107.68 40.9534 107.68 40.7934 107.68C38.2434 107.68 36.0734 105.75 35.8134 103.17Z" fill="black"/>
<path d="M36.8036 103.071C36.5336 100.331 38.5436 97.8805 41.2936 97.6105L42.2836 97.5105C45.0336 97.2405 47.4836 99.2505 47.7536 102.001C48.0236 104.751 46.0136 107.201 43.2636 107.471L42.2736 107.561C42.1036 107.581 41.9436 107.591 41.7836 107.591C39.2336 107.591 37.0636 105.661 36.8036 103.071Z" fill="black"/>
<path d="M46.7534 108.391C46.3834 108.391 46.0134 108.351 45.6434 108.271L41.6734 107.371C38.9834 106.761 37.2934 104.081 37.9034 101.391C38.5134 98.7005 41.1934 97.0105 43.8834 97.6205L47.8534 98.5205C50.5434 99.1305 52.2334 101.811 51.6234 104.501C51.0934 106.821 49.0334 108.391 46.7534 108.391Z" fill="black"/>
<path d="M322.513 214.341C319.753 214.121 317.713 211.711 317.933 208.961C318.153 206.201 320.573 204.151 323.323 204.381C326.073 204.601 328.123 207.011 327.903 209.771C327.683 212.381 325.503 214.361 322.923 214.361C322.783 214.361 322.643 214.361 322.513 214.341Z" fill="black"/>
<path d="M310.063 211.87C309.143 209.26 310.513 206.41 313.113 205.49C315.723 204.57 318.573 205.94 319.493 208.55C320.413 211.15 319.043 214.01 316.433 214.92C315.883 215.12 315.323 215.21 314.773 215.21C312.713 215.21 310.783 213.92 310.063 211.87Z" fill="black"/>
<path d="M302.993 217.99C301.153 215.93 301.343 212.77 303.403 210.93C305.473 209.1 308.633 209.28 310.463 211.35C312.303 213.41 312.113 216.57 310.053 218.41C309.093 219.25 307.913 219.67 306.733 219.67C305.353 219.67 303.983 219.1 302.993 217.99Z" fill="black"/>
<path d="M299.874 222.36C297.704 220.65 297.344 217.5 299.054 215.34C300.774 213.17 303.914 212.81 306.084 214.52C308.244 216.24 308.614 219.38 306.894 221.55C305.914 222.79 304.454 223.44 302.974 223.44C301.884 223.44 300.794 223.09 299.874 222.36Z" fill="black"/>
<path d="M297.623 229.84C295.003 228.97 293.573 226.15 294.443 223.52C295.303 220.9 298.133 219.48 300.753 220.34C303.373 221.2 304.803 224.03 303.933 226.65C303.243 228.76 301.293 230.09 299.193 230.09C298.673 230.09 298.143 230.01 297.623 229.84Z" fill="black"/>
<path d="M297.953 235.57C295.193 235.57 292.963 233.32 292.973 230.56C292.983 227.8 295.223 225.56 297.983 225.57C300.743 225.58 302.973 227.83 302.973 230.59C302.963 233.35 300.723 235.57 297.973 235.57H297.953Z" fill="black"/>
<path d="M297.853 269.771C295.093 269.761 292.863 267.521 292.863 264.761C292.863 261.991 295.123 259.761 297.883 259.771C300.643 259.771 302.873 262.021 302.863 264.791C302.863 267.541 300.623 269.771 297.863 269.771H297.853Z" fill="black"/>
<path d="M291.484 272.47C289.694 270.37 289.944 267.22 292.044 265.43C294.144 263.63 297.304 263.89 299.094 265.99C300.884 268.09 300.634 271.24 298.534 273.04C297.584 273.84 296.434 274.23 295.294 274.23C293.874 274.23 292.474 273.63 291.484 272.47Z" fill="black"/>
<path d="M287.514 272.24C286.704 269.6 288.194 266.8 290.834 266C293.474 265.19 296.274 266.68 297.074 269.32C297.884 271.96 296.394 274.75 293.754 275.56C293.264 275.71 292.774 275.78 292.294 275.78C290.154 275.78 288.174 274.39 287.514 272.24Z" fill="black"/>
<path d="M277.863 263.85C277.853 261.09 280.093 258.84 282.853 258.84C285.613 258.84 287.853 261.07 287.863 263.83C287.863 266.59 285.633 268.83 282.873 268.84C280.113 268.84 277.873 266.61 277.873 263.85H277.863Z" fill="black"/>
<path d="M277.793 230.39C277.793 227.63 280.023 225.38 282.783 225.38C285.543 225.38 287.793 227.61 287.793 230.37C287.803 233.13 285.563 235.37 282.803 235.38H282.793C280.043 235.38 277.803 233.15 277.793 230.39Z" fill="black"/>
<path d="M282.894 227.17C280.224 226.47 278.634 223.74 279.334 221.07C280.034 218.4 282.764 216.8 285.434 217.5C288.114 218.2 289.704 220.94 289.004 223.61C288.414 225.85 286.384 227.34 284.174 227.34C283.754 227.34 283.324 227.29 282.894 227.17Z" fill="black"/>
<path d="M293.414 205.771C291.574 203.711 291.754 200.551 293.814 198.711C295.874 196.871 299.034 197.05 300.874 199.12C302.714 201.18 302.534 204.34 300.474 206.18C299.514 207.03 298.334 207.441 297.144 207.441C295.774 207.441 294.404 206.881 293.414 205.771Z" fill="black"/>
<path d="M301.803 198.75C300.843 196.15 302.183 193.28 304.773 192.33C307.363 191.38 310.234 192.71 311.184 195.3C312.144 197.9 310.804 200.77 308.214 201.72C307.644 201.93 307.063 202.03 306.493 202.03C304.453 202.03 302.543 200.77 301.803 198.75Z" fill="black"/>
<path d="M323.913 199.16C321.153 199.03 319.033 196.68 319.163 193.93C319.303 191.17 321.643 189.04 324.403 189.18C327.163 189.31 329.283 191.66 329.153 194.41C329.023 197.09 326.813 199.17 324.163 199.17C324.083 199.17 323.993 199.17 323.913 199.16Z" fill="black"/>
<path d="M337.073 202.911C334.593 201.701 333.573 198.701 334.793 196.221C336.003 193.741 339.003 192.721 341.483 193.941C343.963 195.161 344.983 198.161 343.763 200.631C342.893 202.401 341.123 203.43 339.273 203.43C338.533 203.43 337.783 203.261 337.073 202.911Z" fill="black"/>
<path d="M343.333 207.31C341.323 205.43 341.213 202.26 343.103 200.24C344.993 198.23 348.153 198.12 350.173 200.01C352.183 201.89 352.293 205.06 350.403 207.08C349.423 208.13 348.093 208.66 346.753 208.66C345.533 208.66 344.303 208.21 343.333 207.31Z" fill="black"/>
<path d="M346.214 210.001C344.204 208.121 344.094 204.951 345.984 202.941C347.864 200.921 351.034 200.811 353.044 202.701C355.064 204.591 355.174 207.751 353.284 209.771C352.304 210.821 350.964 211.351 349.634 211.351C348.404 211.351 347.184 210.911 346.214 210.001Z" fill="black"/>
<path d="M351.994 218.72C350.754 216.25 351.734 213.24 354.204 212C356.664 210.75 359.674 211.74 360.924 214.2C362.164 216.67 361.174 219.68 358.714 220.92C357.994 221.29 357.224 221.46 356.464 221.46C354.634 221.46 352.874 220.46 351.994 218.72Z" fill="black"/>
<path d="M353.194 222.07C352.284 219.46 353.644 216.61 356.254 215.69C358.854 214.77 361.714 216.13 362.624 218.74C363.544 221.34 362.184 224.2 359.574 225.12C359.024 225.31 358.464 225.4 357.914 225.4C355.854 225.4 353.924 224.12 353.194 222.07Z" fill="black"/>
<path d="M354.594 228.301C354.464 225.541 356.604 223.201 359.354 223.071C362.114 222.951 364.453 225.08 364.583 227.84C364.703 230.6 362.574 232.941 359.814 233.061C359.734 233.061 359.653 233.061 359.583 233.061C356.923 233.061 354.714 230.97 354.594 228.29V228.301Z" fill="black"/>
<path d="M357.164 240.18C354.644 239.05 353.534 236.08 354.674 233.57C355.814 231.05 358.774 229.94 361.294 231.08C363.804 232.22 364.924 235.18 363.784 237.7C362.944 239.54 361.124 240.63 359.224 240.63C358.534 240.63 357.834 240.49 357.164 240.18Z" fill="black"/>
<path d="M350.133 244.96C347.403 244.52 345.553 241.95 345.993 239.22C346.433 236.5 349.003 234.65 351.733 235.09C354.453 235.53 356.303 238.1 355.863 240.83C355.463 243.28 353.343 245.03 350.933 245.03C350.673 245.03 350.403 245.01 350.133 244.96Z" fill="black"/>
<path d="M341.053 238.14C339.853 235.65 340.903 232.66 343.383 231.46C345.873 230.26 348.863 231.3 350.063 233.79C351.263 236.28 350.223 239.27 347.733 240.47C347.033 240.8 346.293 240.96 345.563 240.96C343.703 240.96 341.923 239.92 341.053 238.14Z" fill="black"/>
<path d="M339.574 233.271C339.524 230.511 341.724 228.231 344.484 228.181C347.244 228.131 349.524 230.331 349.564 233.091C349.614 235.851 347.424 238.131 344.654 238.181H344.564C341.844 238.181 339.614 236.001 339.574 233.271Z" fill="black"/>
<path d="M339.483 228.881C339.433 226.121 341.633 223.841 344.393 223.791C347.153 223.731 349.433 225.931 349.483 228.691C349.533 231.451 347.343 233.731 344.583 233.781H344.483C341.763 233.781 339.543 231.611 339.483 228.881Z" fill="black"/>
<path d="M328.504 215.811C326.044 214.551 325.084 211.531 326.344 209.081C327.604 206.621 330.624 205.661 333.074 206.921C335.534 208.181 336.504 211.201 335.234 213.651C334.354 215.381 332.604 216.371 330.784 216.371C330.014 216.371 329.234 216.191 328.504 215.811Z" fill="black"/>
<path d="M325.374 214.63C322.804 213.63 321.524 210.73 322.534 208.16C323.534 205.58 326.434 204.31 329.004 205.31C331.574 206.31 332.854 209.21 331.854 211.78C331.084 213.76 329.194 214.97 327.194 214.97C326.584 214.97 325.974 214.86 325.374 214.63Z" fill="black"/>
<path d="M327.194 214.97C326.954 214.97 326.723 214.95 326.483 214.92L322.223 214.31C319.493 213.92 317.593 211.39 317.983 208.65C318.373 205.92 320.903 204.02 323.643 204.41L327.903 205.02C330.633 205.41 332.533 207.94 332.143 210.68C331.783 213.17 329.643 214.97 327.203 214.97L327.194 214.97Z" fill="black"/>
<path d="M251.553 351.48C250.963 348.78 252.673 346.12 255.373 345.53C258.073 344.94 260.733 346.65 261.323 349.35C261.913 352.05 260.203 354.71 257.503 355.3C257.143 355.38 256.783 355.41 256.433 355.41C254.133 355.41 252.063 353.82 251.553 351.48Z" fill="black"/>
<path d="M244.633 359.26C244.633 356.5 246.863 354.26 249.623 354.25C252.383 354.25 254.633 356.48 254.633 359.24C254.643 362 252.413 364.25 249.643 364.25H249.633C246.883 364.25 244.643 362.02 244.633 359.26Z" fill="black"/>
<path d="M210.374 359.34C210.374 356.58 212.604 354.33 215.364 354.33C218.134 354.32 220.374 356.56 220.384 359.32C220.384 362.08 218.154 364.32 215.394 364.33H215.374C212.624 364.33 210.384 362.1 210.374 359.34Z" fill="black"/>
<path d="M204.904 362.45C202.284 361.57 200.874 358.73 201.754 356.11C202.634 353.5 205.464 352.09 208.084 352.97C210.704 353.85 212.114 356.68 211.234 359.3C210.534 361.39 208.584 362.71 206.494 362.71C205.964 362.71 205.424 362.63 204.904 362.45Z" fill="black"/>
<path d="M189.894 354.18C187.844 352.32 187.684 349.16 189.544 347.11C191.394 345.07 194.554 344.91 196.604 346.76C198.654 348.62 198.804 351.78 196.954 353.83C195.964 354.92 194.604 355.47 193.244 355.47C192.044 355.47 190.844 355.04 189.894 354.18Z" fill="black"/>
<path d="M187.894 352.37C185.844 350.51 185.684 347.35 187.534 345.3C189.394 343.26 192.554 343.1 194.604 344.95C196.644 346.8 196.804 349.97 194.954 352.01C193.964 353.1 192.604 353.66 191.244 353.66C190.044 353.66 188.844 353.23 187.894 352.37Z" fill="black"/>
<path d="M174.563 325.21C174.263 322.46 176.233 319.99 178.983 319.68C181.723 319.38 184.193 321.35 184.503 324.1C184.813 326.84 182.833 329.32 180.093 329.62C179.903 329.64 179.713 329.65 179.523 329.65C177.013 329.65 174.853 327.76 174.563 325.21Z" fill="black"/>
<path d="M179.353 322.22C176.593 322.11 174.443 319.78 174.563 317.02C174.673 314.26 177.003 312.12 179.763 312.23C182.513 312.34 184.663 314.67 184.553 317.43C184.443 320.12 182.223 322.22 179.563 322.22H179.353Z" fill="black"/>
<path d="M180.653 310.701C178.073 309.721 176.773 306.831 177.753 304.251C178.733 301.671 181.623 300.371 184.203 301.351C186.783 302.331 188.083 305.221 187.103 307.801C186.343 309.801 184.443 311.031 182.423 311.031C181.833 311.031 181.233 310.921 180.653 310.701Z" fill="black"/>
<path d="M189.533 294.59C187.693 292.54 187.853 289.38 189.913 287.53C191.963 285.69 195.133 285.86 196.973 287.91C198.823 289.97 198.653 293.13 196.593 294.97C195.643 295.83 194.443 296.25 193.253 296.25C191.883 296.25 190.523 295.69 189.533 294.59Z" fill="black"/>
<path d="M192.553 291.511C190.993 289.231 191.583 286.121 193.863 284.571C196.143 283.011 199.253 283.591 200.813 285.871C202.373 288.161 201.783 291.271 199.503 292.821C198.643 293.411 197.663 293.701 196.693 293.701C195.093 293.701 193.523 292.931 192.553 291.511Z" fill="black"/>
<path d="M196.873 288.43C195.633 285.96 196.623 282.95 199.093 281.71C201.563 280.47 204.563 281.47 205.803 283.94C207.043 286.41 206.053 289.41 203.583 290.65C202.863 291.01 202.103 291.18 201.343 291.18C199.513 291.18 197.753 290.18 196.873 288.43Z" fill="black"/>
<path d="M199.753 285.971C199.103 283.291 200.753 280.591 203.443 279.941C206.123 279.291 208.823 280.941 209.473 283.621C210.123 286.311 208.473 289.011 205.793 289.661C205.393 289.761 205.003 289.801 204.613 289.801C202.353 289.801 200.303 288.261 199.753 285.971Z" fill="black"/>
<path d="M208.153 283.391C207.843 280.641 209.813 278.17 212.553 277.86C215.303 277.55 217.773 279.52 218.083 282.26C218.393 285.01 216.423 287.48 213.683 287.79C213.483 287.82 213.303 287.83 213.113 287.83C210.603 287.83 208.433 285.941 208.153 283.391Z" fill="black"/>
<path d="M219.543 287.861C216.863 287.211 215.213 284.511 215.863 281.821C216.523 279.141 219.223 277.491 221.903 278.151C224.593 278.801 226.233 281.501 225.583 284.191C225.023 286.471 222.983 288.011 220.723 288.011C220.333 288.011 219.943 287.961 219.543 287.861Z" fill="black"/>
<path d="M219.774 288.35C217.774 286.44 217.704 283.28 219.614 281.28C221.524 279.28 224.684 279.21 226.684 281.11C228.684 283.02 228.754 286.19 226.844 288.19C225.864 289.21 224.544 289.73 223.224 289.73C221.984 289.73 220.744 289.27 219.774 288.35Z" fill="black"/>
<path d="M220.503 289.64C220.063 286.91 221.913 284.34 224.633 283.89C227.353 283.45 229.933 285.29 230.373 288.02C230.823 290.74 228.973 293.31 226.253 293.76C225.973 293.81 225.703 293.83 225.433 293.83C223.033 293.83 220.903 292.09 220.503 289.64Z" fill="black"/>
<path d="M217.513 298.571C216.313 296.091 217.343 293.091 219.823 291.891C222.313 290.681 225.303 291.711 226.513 294.201C227.723 296.681 226.683 299.671 224.203 300.881C223.493 301.221 222.753 301.391 222.013 301.391C220.163 301.391 218.383 300.351 217.513 298.571Z" fill="black"/>
<path d="M213.703 298.081C213.493 295.331 215.553 292.931 218.313 292.721C221.063 292.511 223.463 294.571 223.673 297.331C223.883 300.081 221.823 302.481 219.063 302.691C218.933 302.691 218.813 302.691 218.683 302.691C216.093 302.691 213.903 300.701 213.703 298.071V298.081Z" fill="black"/>
<path d="M209.293 298.451C208.933 295.711 210.853 293.2 213.593 292.84C216.333 292.48 218.843 294.401 219.203 297.141C219.563 299.881 217.643 302.39 214.903 302.75C214.683 302.78 214.463 302.8 214.243 302.8C211.773 302.8 209.623 300.971 209.293 298.451Z" fill="black"/>
<path d="M198.244 307.741C196.334 305.751 196.414 302.581 198.414 300.671C200.404 298.771 203.574 298.841 205.474 300.841C207.384 302.831 207.314 306.001 205.314 307.911C204.344 308.831 203.104 309.291 201.864 309.291C200.544 309.291 199.224 308.771 198.244 307.741Z" fill="black"/>
<path d="M194.524 315.69C192.074 314.41 191.124 311.39 192.394 308.94C193.674 306.49 196.694 305.54 199.134 306.82C201.584 308.09 202.544 311.11 201.264 313.56C200.374 315.27 198.634 316.25 196.824 316.25C196.044 316.25 195.254 316.07 194.524 315.69Z" fill="black"/>
<path d="M193.483 320.15C190.893 319.21 189.553 316.34 190.493 313.74C191.433 311.15 194.293 309.81 196.893 310.75C199.493 311.69 200.833 314.55 199.893 317.15C199.153 319.18 197.233 320.45 195.193 320.45C194.623 320.45 194.053 320.35 193.483 320.15Z" fill="black"/>
<path d="M189.904 325.34C189.434 322.62 191.254 320.03 193.974 319.55C196.694 319.08 199.284 320.9 199.764 323.62C200.234 326.34 198.414 328.93 195.694 329.41C195.404 329.46 195.114 329.48 194.824 329.48C192.444 329.48 190.334 327.77 189.904 325.34Z" fill="black"/>
<path d="M200.654 343.16C198.494 341.43 198.154 338.28 199.874 336.13C201.604 333.98 204.754 333.63 206.904 335.36C209.064 337.09 209.404 340.24 207.674 342.39C206.694 343.62 205.244 344.26 203.774 344.26C202.674 344.26 201.574 343.9 200.654 343.16Z" fill="black"/>
<path d="M215.344 349.15C212.574 349.15 210.344 346.89 210.354 344.13C210.364 341.37 212.614 339.14 215.374 339.15C218.134 339.15 220.364 341.4 220.354 344.16C220.344 346.92 218.114 349.15 215.354 349.15H215.344Z" fill="black"/>
<path d="M249.394 349.271C246.634 349.261 244.404 347.011 244.414 344.251C244.424 341.491 246.674 339.261 249.434 339.271C252.194 339.271 254.424 341.521 254.414 344.281C254.404 347.041 252.164 349.271 249.414 349.271H249.394Z" fill="black"/>
<path d="M66.1033 321.921C63.3633 321.541 61.4533 319.011 61.8333 316.281C62.2233 313.541 64.7433 311.631 67.4833 312.011C70.2133 312.401 72.1233 314.921 71.7433 317.661C71.3933 320.161 69.2533 321.971 66.7933 321.971C66.5633 321.971 66.3333 321.951 66.1033 321.921Z" fill="black"/>
<path d="M59.2133 320.05C56.5833 319.2 55.1333 316.39 55.9733 313.76C56.8233 311.13 59.6333 309.68 62.2633 310.52C64.8933 311.36 66.3433 314.18 65.5033 316.81C64.8233 318.93 62.8533 320.29 60.7433 320.29C60.2333 320.29 59.7233 320.21 59.2133 320.05Z" fill="black"/>
<path d="M52.4132 317.12C50.1332 315.56 49.5432 312.45 51.1032 310.17C52.6532 307.89 55.7632 307.3 58.0432 308.86C60.3332 310.42 60.9132 313.53 59.3532 315.81C58.3932 317.23 56.8232 317.99 55.2232 317.99C54.2532 317.99 53.2732 317.71 52.4132 317.12Z" fill="black"/>
<path d="M49.1935 314.93C46.9135 313.37 46.3235 310.26 47.8835 307.98C49.4435 305.7 52.5535 305.111 54.8335 306.671C57.1135 308.221 57.7035 311.33 56.1435 313.61C55.1735 315.03 53.6035 315.8 52.0135 315.8C51.0335 315.8 50.0535 315.51 49.1935 314.93Z" fill="black"/>
<path d="M46.1034 312.86C43.9434 311.15 43.5734 308 45.2834 305.84C46.9934 303.67 50.1434 303.3 52.3034 305.02C54.4734 306.73 54.8434 309.87 53.1334 312.04C52.1434 313.29 50.6834 313.94 49.2034 313.94C48.1134 313.94 47.0234 313.59 46.1034 312.86Z" fill="black"/>
<path d="M40.6336 307.41C38.7136 305.42 38.7736 302.25 40.7636 300.34C42.7536 298.42 45.9136 298.48 47.8336 300.47C49.7536 302.46 49.6936 305.62 47.7036 307.54C46.7336 308.47 45.4836 308.94 44.2336 308.94C42.9236 308.94 41.6136 308.43 40.6336 307.41Z" fill="black"/>
<path d="M32.3536 293.451C31.3936 290.861 32.7236 287.98 35.3136 287.03C37.9036 286.07 40.7736 287.39 41.7336 289.99C42.6836 292.58 41.3636 295.45 38.7736 296.41C38.2036 296.62 37.6136 296.72 37.0436 296.72C35.0036 296.72 33.0936 295.471 32.3536 293.451Z" fill="black"/>
<path d="M30.2932 285.6C29.7532 282.9 31.5132 280.26 34.2232 279.72C36.9332 279.18 39.5632 280.94 40.1032 283.65C40.6432 286.35 38.8932 288.99 36.1832 289.53C35.8532 289.59 35.5232 289.63 35.1932 289.63C32.8632 289.63 30.7732 287.98 30.2932 285.6Z" fill="black"/>
<path d="M34.2735 284.07C31.5135 283.94 29.3835 281.6 29.5135 278.84C29.6535 276.08 31.9935 273.95 34.7535 274.08C37.5035 274.21 39.6435 276.55 39.5035 279.31C39.3835 281.99 37.1735 284.08 34.5135 284.08C34.4335 284.08 34.3535 284.07 34.2735 284.07Z" fill="black"/>
<path d="M34.9134 272.1C32.2734 271.28 30.7934 268.48 31.6134 265.84C32.4334 263.2 35.2334 261.73 37.8734 262.55C40.5134 263.36 41.9834 266.16 41.1634 268.8C40.5034 270.95 38.5234 272.32 36.3934 272.32C35.9034 272.32 35.4034 272.25 34.9134 272.1Z" fill="black"/>
<path d="M35.8635 266.851C33.4135 265.581 32.4635 262.561 33.7435 260.111C35.0235 257.661 38.0435 256.711 40.4835 257.991C42.9335 259.271 43.8835 262.291 42.6035 264.741C41.7135 266.451 39.9735 267.421 38.1735 267.421C37.3935 267.421 36.6035 267.241 35.8635 266.851Z" fill="black"/>
<path d="M37.6135 263.48C35.1735 262.2 34.2335 259.18 35.5135 256.73C36.7935 254.29 39.8235 253.35 42.2635 254.63C44.7135 255.92 45.6535 258.94 44.3635 261.38C43.4735 263.09 41.7335 264.06 39.9335 264.06C39.1535 264.06 38.3635 263.87 37.6135 263.48Z" fill="black"/>
<path d="M41.4032 257.29C39.1432 255.71 38.5932 252.59 40.1732 250.33C41.7632 248.06 44.8732 247.51 47.1432 249.1C49.4032 250.68 49.9532 253.8 48.3632 256.06C47.3932 257.45 45.8432 258.19 44.2632 258.19C43.2732 258.19 42.2732 257.9 41.4032 257.29Z" fill="black"/>
<path d="M43.6335 253.59C41.6335 251.68 41.5635 248.52 43.4735 246.52C45.3835 244.53 48.5435 244.46 50.5435 246.36C52.5435 248.27 52.6135 251.44 50.7035 253.43C49.7135 254.46 48.4035 254.98 47.0835 254.98C45.8435 254.98 44.6035 254.52 43.6335 253.59Z" fill="black"/>
<path d="M46.0332 250.02C44.5232 247.7 45.1732 244.61 47.4832 243.1C49.7932 241.59 52.8932 242.24 54.4032 244.55C55.9132 246.86 55.2632 249.96 52.9532 251.47C52.1132 252.02 51.1632 252.28 50.2232 252.28C48.5932 252.28 46.9932 251.49 46.0332 250.02Z" fill="black"/>
<path d="M49.8036 247.561C48.2836 245.261 48.9136 242.151 51.2236 240.641C53.5336 239.121 56.6336 239.751 58.1536 242.061C59.6736 244.371 59.0336 247.471 56.7236 248.991C55.8736 249.541 54.9236 249.811 53.9736 249.811C52.3536 249.811 50.7636 249.021 49.8036 247.561Z" fill="black"/>
<path d="M52.6732 244.8C51.6932 242.22 52.9932 239.34 55.5832 238.36C58.1632 237.38 61.0432 238.68 62.0232 241.26C63.0032 243.85 61.7032 246.73 59.1132 247.71C58.5332 247.93 57.9332 248.04 57.3532 248.04C55.3332 248.04 53.4332 246.8 52.6732 244.8Z" fill="black"/>
<path d="M56.5335 243.35C55.5535 240.77 56.8435 237.88 59.4235 236.9C62.0035 235.91 64.8935 237.21 65.8735 239.79C66.8635 242.37 65.5635 245.26 62.9835 246.24C62.3935 246.46 61.7935 246.57 61.2035 246.57C59.1935 246.57 57.2935 245.34 56.5335 243.35Z" fill="black"/>
<path d="M59.9234 242.03C58.9834 239.44 60.3234 236.57 62.9134 235.62C65.5134 234.68 68.3734 236.02 69.3234 238.61C70.2634 241.21 68.9334 244.08 66.3334 245.02C65.7734 245.23 65.1934 245.32 64.6234 245.32C62.5834 245.32 60.6634 244.06 59.9234 242.03Z" fill="black"/>
<path d="M64.2234 239.661C64.1634 236.901 66.3434 234.611 69.1034 234.541C71.8634 234.481 74.1534 236.661 74.2234 239.421C74.2934 242.181 72.1034 244.481 69.3434 244.541H69.2234C66.5134 244.541 64.2934 242.381 64.2234 239.661Z" fill="black"/>
<path d="M66.4636 239.621C66.3836 236.861 68.5636 234.561 71.3236 234.481C74.0836 234.401 76.3836 236.571 76.4636 239.331C76.5436 242.091 74.3736 244.401 71.6136 244.471C71.5636 244.481 71.5136 244.481 71.4636 244.481C68.7636 244.481 66.5436 242.331 66.4636 239.621Z" fill="black"/>
<path d="M76.0334 245.521C74.0834 243.561 74.0934 240.391 76.0534 238.451C78.0134 236.501 81.1834 236.511 83.1234 238.471C85.0734 240.431 85.0634 243.601 83.1034 245.541C82.1234 246.511 80.8534 247.001 79.5734 247.001C78.2934 246.991 77.0034 246.501 76.0334 245.521Z" fill="black"/>
<path d="M76.4432 245.511C75.6532 242.861 77.1632 240.081 79.8132 239.291C82.4632 238.511 85.2432 240.021 86.0232 242.671C86.8132 245.311 85.3032 248.101 82.6532 248.881C82.1832 249.021 81.7032 249.091 81.2332 249.091C79.0732 249.091 77.0832 247.681 76.4432 245.511Z" fill="black"/>
<path d="M81.3434 257.23C78.5934 256.97 76.5834 254.53 76.8434 251.78C77.1034 249.03 79.5434 247.02 82.2934 247.28C85.0334 247.54 87.0534 249.98 86.7934 252.73C86.5534 255.32 84.3734 257.26 81.8234 257.26C81.6634 257.26 81.5034 257.26 81.3434 257.23Z" fill="black"/>
<path d="M76.8234 257.37C76.6734 254.61 78.7834 252.25 81.5334 252.1C84.2934 251.94 86.6534 254.05 86.8134 256.81C86.9634 259.57 84.8534 261.93 82.0934 262.08C82.0034 262.08 81.9034 262.08 81.8134 262.08C79.1834 262.08 76.9734 260.02 76.8234 257.36V257.37Z" fill="black"/>
<path d="M76.8434 267.25C76.8234 264.49 79.0434 262.23 81.8034 262.21C84.5634 262.19 86.8234 264.41 86.8434 267.17C86.8734 269.93 84.6534 272.19 81.8834 272.21H81.8434C79.1034 272.21 76.8734 270 76.8434 267.25Z" fill="black"/>
<path d="M76.8734 269.411C76.8434 266.651 79.0434 264.381 81.8034 264.351C84.5734 264.311 86.8334 266.521 86.8734 269.281C86.9134 272.041 84.7034 274.311 81.9434 274.351H81.8734C79.1434 274.351 76.9134 272.151 76.8734 269.411Z" fill="black"/>
<path d="M76.8833 292.69C76.8833 289.92 79.1233 287.68 81.8833 287.68C84.6433 287.68 86.8833 289.92 86.8833 292.68C86.8833 295.44 84.6433 297.68 81.8833 297.68C79.1233 297.68 76.8833 295.45 76.8833 292.69Z" fill="black"/>
<path d="M81.4235 301.921C78.6635 301.791 76.5335 299.441 76.6735 296.681C76.8135 293.921 79.1635 291.801 81.9235 291.941C84.6735 292.071 86.8035 294.421 86.6635 297.181C86.5335 299.851 84.3235 301.931 81.6735 301.931C81.5935 301.931 81.5035 301.931 81.4235 301.931V301.921Z" fill="black"/>
<path d="M79.6332 304.61C77.4932 302.86 77.1732 299.71 78.9232 297.57C80.6632 295.43 83.8132 295.11 85.9532 296.86C88.0932 298.6 88.4132 301.75 86.6732 303.89C85.6832 305.1 84.2432 305.73 82.7932 305.73C81.6832 305.73 80.5632 305.36 79.6332 304.61Z" fill="black"/>
<path d="M82.6135 302.45C82.0335 299.76 83.7635 297.1 86.4635 296.52C89.1635 295.94 91.8135 297.66 92.3935 300.36C92.9735 303.06 91.2535 305.72 88.5535 306.3C88.2035 306.37 87.8435 306.41 87.5035 306.41C85.1935 306.41 83.1135 304.8 82.6135 302.45Z" fill="black"/>
<path d="M93.3932 304.91C90.9632 303.61 90.0432 300.57 91.3532 298.14C92.6632 295.71 95.6932 294.8 98.1232 296.1C100.553 297.41 101.473 300.44 100.163 302.88C99.2632 304.55 97.5332 305.51 95.7532 305.51C94.9532 305.51 94.1432 305.32 93.3932 304.91Z" fill="black"/>
<path d="M95.8532 302.381C93.1132 302.041 91.1732 299.541 91.5232 296.801C91.8732 294.061 94.3732 292.121 97.1132 292.461C99.8532 292.811 101.793 295.311 101.443 298.051C101.123 300.581 98.9732 302.421 96.4932 302.421C96.2832 302.421 96.0732 302.411 95.8532 302.381Z" fill="black"/>
<path d="M95.8534 297.671C93.1134 297.341 91.1634 294.85 91.4934 292.11C91.8234 289.37 94.3134 287.41 97.0534 287.75C99.7934 288.08 101.753 290.57 101.423 293.31C101.113 295.85 98.9534 297.71 96.4634 297.71C96.2634 297.71 96.0534 297.701 95.8534 297.671Z" fill="black"/>
<path d="M91.4732 289.86C91.2932 287.11 93.3832 284.73 96.1332 284.54C98.8932 284.36 101.273 286.45 101.453 289.2C101.633 291.96 99.5532 294.34 96.7932 294.52C96.6832 294.52 96.5732 294.52 96.4632 294.52C93.8432 294.52 91.6532 292.5 91.4732 289.85V289.86Z" fill="black"/>
<path d="M96.1236 287.741C93.3736 287.541 91.3036 285.141 91.5036 282.391C91.7136 279.631 94.1036 277.571 96.8636 277.771C99.6136 277.971 101.684 280.371 101.484 283.121C101.284 285.751 99.0936 287.761 96.4936 287.761C96.3736 287.761 96.2536 287.761 96.1236 287.741Z" fill="black"/>
<path d="M95.1234 278.511C92.8134 276.991 92.1633 273.901 93.6733 271.581C95.1833 269.271 98.2833 268.621 100.593 270.131C102.903 271.641 103.553 274.741 102.043 277.051C101.083 278.521 99.4833 279.321 97.8533 279.321C96.9133 279.321 95.9734 279.061 95.1234 278.511Z" fill="black"/>
<path d="M105.893 275.461C103.153 275.171 101.163 272.721 101.443 269.971C101.733 267.221 104.193 265.231 106.943 265.521C109.683 265.801 111.673 268.261 111.393 271.011C111.123 273.581 108.953 275.491 106.423 275.491C106.253 275.491 106.073 275.491 105.893 275.461Z" fill="black"/>
<path d="M106.253 275.961C104.473 273.861 104.733 270.701 106.833 268.921C108.943 267.131 112.093 267.391 113.883 269.491C115.673 271.601 115.413 274.761 113.303 276.541C112.363 277.341 111.213 277.731 110.073 277.731C108.653 277.731 107.243 277.131 106.253 275.961Z" fill="black"/>
<path d="M112.383 288.06C109.633 287.85 107.563 285.45 107.773 282.7C107.973 279.94 110.373 277.88 113.133 278.09C115.883 278.29 117.953 280.69 117.743 283.45C117.543 286.07 115.353 288.07 112.763 288.07C112.633 288.07 112.513 288.07 112.383 288.07V288.06Z" fill="black"/>
<path d="M107.793 285.811C107.793 283.041 110.033 280.811 112.793 280.811C115.553 280.811 117.793 283.041 117.793 285.811C117.793 288.571 115.553 290.811 112.793 290.811C110.033 290.811 107.793 288.571 107.793 285.811Z" fill="black"/>
<path d="M112.783 314.301C110.023 314.301 107.783 312.061 107.783 309.301C107.783 306.541 110.023 304.301 112.783 304.301C115.543 304.301 117.783 306.541 117.783 309.301C117.783 312.061 115.543 314.301 112.783 314.301Z" fill="black"/>
<path d="M106.383 319.34C104.333 317.49 104.173 314.32 106.023 312.28C107.873 310.23 111.043 310.07 113.093 311.92C115.133 313.77 115.293 316.93 113.443 318.98C112.453 320.07 111.103 320.63 109.733 320.63C108.533 320.63 107.343 320.2 106.383 319.34Z" fill="black"/>
<path d="M101.224 319.83C100.014 317.34 101.064 314.35 103.554 313.15C106.034 311.95 109.024 312.99 110.224 315.48C111.424 317.97 110.384 320.96 107.894 322.16C107.194 322.5 106.454 322.66 105.724 322.66C103.864 322.66 102.084 321.61 101.224 319.83Z" fill="black"/>
<path d="M66.9136 317.661C66.9136 314.891 69.1536 312.651 71.9136 312.651C74.6736 312.651 76.9136 314.891 76.9136 317.661C76.9136 320.421 74.6736 322.661 71.9136 322.661C69.1536 322.661 66.9136 320.421 66.9136 317.661Z" fill="black"/>
<path d="M70.9036 322.471C70.7836 322.471 70.2636 322.491 69.4136 322.381C66.6836 322.001 64.7836 319.461 65.1636 316.731C65.5536 314.031 68.0336 312.131 70.7336 312.471C70.7936 312.471 70.9236 312.471 71.1536 312.481C73.9136 312.551 76.0936 314.841 76.0236 317.601C75.9536 320.321 73.7336 322.471 71.0336 322.471H70.9036Z" fill="black"/>
<path d="M70.1236 322.431C69.8936 322.431 69.6636 322.411 69.4236 322.381L66.1033 321.921C63.3733 321.541 61.4636 319.011 61.8436 316.281C62.2236 313.541 64.7536 311.631 67.4836 312.021L70.8036 312.481C73.5336 312.861 75.4436 315.391 75.0636 318.121C74.7136 320.621 72.5736 322.431 70.1136 322.431H70.1236Z" fill="black"/>
<path d="M65.3533 301.831C62.5933 301.681 60.4833 299.331 60.6233 296.571C60.7733 293.821 63.1233 291.701 65.8833 291.841C68.6433 291.991 70.7633 294.341 70.6133 297.101C70.4733 299.771 68.2633 301.841 65.6233 301.841C65.5333 301.841 65.4433 301.841 65.3533 301.841V301.831Z" fill="black"/>
<path d="M60.6336 291.15C60.5036 288.39 62.6436 286.05 65.4036 285.92C68.1536 285.8 70.4936 287.93 70.6236 290.69C70.7536 293.45 68.6136 295.78 65.8536 295.91C65.7836 295.92 65.7036 295.92 65.6236 295.92C62.9736 295.92 60.7536 293.83 60.6336 291.15Z" fill="black"/>
<path d="M64.5133 293.41C61.8133 292.84 60.0733 290.19 60.6433 287.49C61.2033 284.79 63.8533 283.05 66.5533 283.61C69.2533 284.18 70.9933 286.82 70.4333 289.53C69.9433 291.89 67.8633 293.51 65.5433 293.51C65.2033 293.51 64.8633 293.48 64.5133 293.41Z" fill="black"/>
<path d="M60.5535 286.07C60.4235 283.31 62.5535 280.97 65.3035 280.84C68.0635 280.71 70.4035 282.84 70.5435 285.6C70.6735 288.35 68.5435 290.7 65.7835 290.83H65.5435C62.8835 290.83 60.6735 288.75 60.5535 286.07Z" fill="black"/>
<path d="M65.3037 281.66C62.5537 281.53 60.4237 279.18 60.5637 276.42C60.6937 273.67 63.0437 271.54 65.8037 271.67C68.5537 271.81 70.6837 274.16 70.5437 276.92C70.4137 279.59 68.2037 281.67 65.5637 281.67C65.4737 281.67 65.3937 281.67 65.3037 281.66Z" fill="black"/>
<path d="M60.5933 273.55C60.1733 270.82 62.0533 268.28 64.7833 267.86C67.5133 267.45 70.0633 269.32 70.4833 272.05C70.8933 274.78 69.0133 277.33 66.2833 277.75C66.0333 277.79 65.7733 277.8 65.5233 277.8C63.0933 277.8 60.9633 276.03 60.5933 273.55Z" fill="black"/>
<path d="M64.9133 275.151C62.1733 274.811 60.2333 272.311 60.5733 269.571C60.9133 266.831 63.4133 264.891 66.1533 265.231C68.8933 265.571 70.8433 268.071 70.4933 270.811C70.1833 273.341 68.0233 275.191 65.5433 275.191C65.3333 275.191 65.1233 275.181 64.9133 275.151Z" fill="black"/>
<path d="M60.5335 267.531C60.5035 264.771 62.7235 262.511 65.4835 262.481C68.2435 262.451 70.5035 264.661 70.5335 267.431C70.5635 270.191 68.3535 272.451 65.5935 272.481H65.5335C62.7935 272.481 60.5635 270.271 60.5335 267.531Z" fill="black"/>
<path d="M60.4632 259.49C60.4332 256.73 62.6532 254.471 65.4132 254.451C68.1732 254.421 70.4332 256.64 70.4632 259.4C70.4832 262.16 68.2732 264.421 65.5032 264.451H65.4632C62.7232 264.451 60.4832 262.24 60.4632 259.49Z" fill="black"/>
<path d="M61.3734 261.86C60.0234 260.76 59.2834 258.98 59.6034 257.13C60.0734 254.41 62.6534 252.59 65.3734 253.05C67.1534 253.41 67.8834 254.18 68.4234 254.67C68.9434 255.21 69.2434 255.66 69.5034 256.11C70.8734 258.5 70.0534 261.56 67.6534 262.93C66.8734 263.38 66.0134 263.6 65.1734 263.6C63.7434 263.6 62.3434 262.98 61.3734 261.86Z" fill="black"/>
<path d="M58.3036 263.501C56.0736 261.881 55.5736 258.751 57.1936 256.521C58.8236 254.291 61.9436 253.791 64.1836 255.411C66.4136 257.031 66.9136 260.161 65.2836 262.401C64.3136 263.741 62.7836 264.461 61.2336 264.461C60.2236 264.461 59.1936 264.151 58.3036 263.501Z" fill="black"/>
<path d="M54.2434 264.771C52.6834 262.491 53.2734 259.371 55.5534 257.821C57.8334 256.261 60.9434 256.851 62.5034 259.131C64.0534 261.411 63.4734 264.521 61.1834 266.081C60.3234 266.671 59.3434 266.951 58.3734 266.951C56.7734 266.951 55.2034 266.181 54.2434 264.771Z" fill="black"/>
<path d="M50.7235 273.331C48.2935 272.011 47.4035 268.971 48.7335 266.551C50.0535 264.131 53.0935 263.241 55.5135 264.561C57.9435 265.891 58.8335 268.921 57.5035 271.351C56.5935 273.011 54.8835 273.951 53.1135 273.951C52.3035 273.951 51.4835 273.751 50.7235 273.331Z" fill="black"/>
<path d="M51.0135 281.331C48.2535 281.271 46.0535 278.991 46.1135 276.231C46.1635 273.471 48.4535 271.271 51.2135 271.331C53.9735 271.381 56.1635 273.661 56.1135 276.431C56.0535 279.151 53.8335 281.331 51.1135 281.331H51.0135Z" fill="black"/>
<path d="M46.3234 283.04C45.6634 280.36 47.2934 277.65 49.9734 276.98C52.6534 276.32 55.3634 277.95 56.0334 280.63C56.6934 283.31 55.0634 286.03 52.3834 286.69C51.9734 286.79 51.5734 286.84 51.1734 286.84C48.9234 286.84 46.8834 285.32 46.3234 283.04Z" fill="black"/>
<path d="M47.6434 287.93C46.7334 285.32 48.1134 282.47 50.7234 281.57C53.3334 280.66 56.1834 282.04 57.0934 284.65C57.9934 287.26 56.6134 290.11 54.0034 291.01C53.4634 291.2 52.9134 291.29 52.3634 291.29C50.2934 291.29 48.3634 289.99 47.6434 287.93Z" fill="black"/>
<path d="M52.9633 296.85C51.2833 294.66 51.7133 291.52 53.9133 289.85C56.1133 288.17 59.2433 288.6 60.9133 290.8C62.5933 293 62.1633 296.13 59.9633 297.81C59.0633 298.49 57.9933 298.83 56.9433 298.83C55.4333 298.83 53.9433 298.15 52.9633 296.85Z" fill="black"/>
<path d="M56.6332 300.24C54.6032 298.36 54.4732 295.2 56.3532 293.17C58.2232 291.14 61.3932 291.02 63.4232 292.9C65.4432 294.77 65.5732 297.94 63.6932 299.96C62.7132 301.03 61.3732 301.57 60.0232 301.57C58.8132 301.57 57.5932 301.13 56.6332 300.24Z" fill="black"/>
<path d="M58.9633 302.4C56.9333 300.52 56.8133 297.36 58.6833 295.33C60.5533 293.3 63.7233 293.18 65.7533 295.05C67.7733 296.92 67.9033 300.09 66.0333 302.12C65.0433 303.18 63.7033 303.72 62.3533 303.72C61.1433 303.72 59.9233 303.28 58.9633 302.4Z" fill="black"/>
<path d="M60.3733 301.41C58.8133 299.13 59.4033 296.02 61.6833 294.46C63.9633 292.9 67.0733 293.48 68.6333 295.76C70.1933 298.04 69.6033 301.15 67.3233 302.71C66.4633 303.3 65.4833 303.58 64.5033 303.58C62.9133 303.58 61.3433 302.82 60.3733 301.41Z" fill="black"/>
<path d="M64.5033 303.58C63.5733 303.58 62.6333 303.321 61.8033 302.781C59.4833 301.281 58.8133 298.191 60.3133 295.871L61.4433 294.121C62.9433 291.801 66.0333 291.131 68.3533 292.631C70.6733 294.131 71.3433 297.221 69.8433 299.541L68.7133 301.291C67.7533 302.771 66.1533 303.58 64.5033 303.58Z" fill="black"/>
</svg>
