<svg width="335" height="381" viewBox="0 0 335 381" fill="none" xmlns="http://www.w3.org/2000/svg">
<g clip-path="url(#clip0_2553_3213)">
<mask id="mask0_2553_3213" style="mask-type:luminance" maskUnits="userSpaceOnUse" x="0" y="0" width="335" height="381">
<path d="M334.69 0H0V380.5H334.69V0Z" fill="white"/>
</mask>
<g mask="url(#mask0_2553_3213)">
<path d="M138.27 83.18C138.06 83.58 137.05 84.11 136.6 84.04L133.07 83.54C132.73 83.49 132.27 83.34 132.1 83.5C131.92 83.66 132.09 84.34 132.28 84.49L134.07 85.82C135.6 86.96 139.31 89.59 138.68 91.63C138.37 92.63 135.75 91.46 135.04 91.16L132.97 90.27C132.31 89.99 131.76 89.4 131.02 89.83L133.26 92.81C131.14 92.77 126.01 89.11 124.48 87.84C123.53 87.07 122.7 86.23 121.32 86.52C121.58 87.62 122.07 88.53 122.73 89.45C123.83 90.98 124.73 96.35 122.99 98.22C122.35 98.92 121.23 98.42 120.75 97.79C120.27 97.15 119.7 96.46 119.16 95.92C118.95 95.71 118.21 96.29 118.21 96.59C118.2 98.74 118.86 99.62 118.18 100.53C117.47 101.47 115.23 100.49 114.68 100.02C112.8 98.42 112.71 98.35 111.24 95.85C111.02 95.47 110.24 92.99 109.04 92.77C108.83 92.73 108.47 93.3 108.47 93.54L108.39 96.29V98.28C108.4 100.19 108.16 102.75 107.43 104.47C107.37 104.62 106.93 104.75 106.89 104.64L106.71 104.18C106.45 103.5 106.2 102.97 105.83 102.19C104.62 102.58 104.57 109.97 102.68 109.01C100.77 108.03 100.84 102.96 100.97 100.88C101.02 100.07 100.95 99.44 100.56 98.62C100.05 99.28 99.7204 99.78 99.3504 100.45L98.1105 102.71C97.8205 103.24 96.6504 103.81 96.0204 103.65C95.0804 103.42 94.1905 102.51 93.7605 101.61C92.4005 98.82 92.6705 95.78 93.8705 92.93C95.4105 89.28 97.4005 86 99.4005 82.55C99.5605 82.27 99.5904 81.66 99.4904 81.42C99.0304 80.25 98.0905 81.72 95.6105 80.32C93.5205 79.15 92.0304 77.24 91.0204 75.11C90.4304 73.89 90.6905 73.06 91.4705 72.09C91.9905 71.4 90.7704 70.73 90.5204 70.24C89.5804 68.36 91.1205 65.55 92.3605 64.08C96.1405 59.6 96.4705 62.27 97.4405 61.07C98.2105 60.14 95.8304 58.24 95.3204 57.68L92.5304 54.57L89.9105 51.36C89.1605 50.44 88.6505 49.33 88.1205 48.29C87.2005 46.51 86.7005 44.69 87.0105 42.69C87.1105 42.11 87.4705 41.11 88.0105 40.88C90.3305 39.86 90.9804 43.94 93.3504 43.84C93.8504 41.53 92.1005 40.61 93.1505 38.56C94.2005 36.51 97.7204 39.37 98.3504 40.46C99.2104 41.94 99.9204 43.44 100.56 44.98C101.08 46.24 101.26 47.53 101.52 48.85L102.31 52.97L103 56.68C103.05 56.98 103.31 57.44 103.5 57.61C104.3 58.36 105.29 56.81 105.82 56.46C106.94 55.71 108.29 55.8 109.52 55.78C111.27 55.75 112.31 55.88 113.91 56.48C116.89 57.58 114.93 59.85 116.71 59.95C118.04 60.02 119.16 60.72 119.57 62.06C120.46 64.88 120.71 65.97 120.34 68.7C120.05 70.83 117.55 71.18 118.97 72.27C119.49 72.68 119.98 72.75 120.59 72.79C123.91 73.01 124.84 73.52 127.35 73.82C130.12 74.14 132.87 74.8 135.14 76.53C137.06 77.99 139.55 80.58 138.25 83.16M217.17 114.33L214.34 113.05C212.53 112.23 215.03 111.22 213.51 110.36C212.61 109.84 211.77 109.37 210.86 108.98L208.03 107.73L202.31 105.36L194.95 102.7C193.72 102.26 192.6 101.8 191.36 101.44L188 100.46L184.85 99.46L184.83 98.97C185.73 98.68 186.74 98.43 187.6 98.08C190.09 97.07 191.19 94.72 190.8 92.2C190.41 89.75 188.96 87.87 187.39 85.99C185.34 83.55 182.75 81.89 179.94 80.44C177.69 79.28 175.56 78.21 173.01 77.74L170.77 77.33C170.5 77.28 170.02 77.07 169.99 76.84C169.9 75.99 172.16 76.21 172.59 74.3C173.39 70.81 168.76 69.08 166.15 67.99C161.83 66.19 155.79 65.17 151.15 65.41L147.12 65.63C145.86 65.69 147.33 64.84 148.03 62.95C148.85 60.7 149.46 58.05 149.03 55.64C148.6 53.24 148.08 50.91 146.8 48.9C144.06 44.62 140.92 41.85 135.51 43.24L134.22 44.16C134.15 44.21 133.82 44.33 133.79 44.25C133.51 43.57 134.51 41.36 133.45 37.95C132.27 34.13 129.49 31.15 125.98 29.35C124.91 28.79 123.86 28.32 122.71 28.02C120 27.31 118.09 27.08 115.47 28.33C114.3 28.88 113.41 29.62 112.75 30.68L111.41 32.82L111.1 31.08C110.97 30.37 110.75 29.67 110.67 28.94C110.5 27.34 109.49 23.07 108.98 21.54L107.05 15.71L106.17 13.74C105.48 12.19 104.9 10.71 104.03 9.26C103.09 7.69 101.43 4.56 99.2605 5.04C98.3505 5.23 98.3304 6.68 97.6304 7.21C96.4504 4.71 96.2905 1.81 93.7505 0.190005C92.9305 -0.339995 91.7105 0.370005 91.4105 1.3C90.7305 3.38 90.7904 4.94 90.9204 7.16L91.0805 10.02L91.2004 11.84C91.2004 11.99 91.0904 12.26 91.0204 12.36C90.5304 13.06 89.1204 9.31001 89.1004 9.27001C88.4404 7.80001 87.4504 6.53 86.5604 5.17C85.9504 4.26 85.0504 3.13 83.8504 3.17C82.6704 3.21 82.2805 4.59 82.3605 5.58L82.5704 8.24C82.5804 8.34 82.4505 8.69 82.4305 8.79C82.4205 8.84 82.1004 8.57001 82.0704 8.52001L80.8305 6.42C80.3505 5.61 79.4105 5.43 78.7305 5.71C78.0805 5.97 77.6304 6.75 77.7804 7.57C78.1204 9.37 78.4405 11.13 78.9105 12.96C79.0705 13.6 80.5905 16.58 80.0505 17.04C79.4505 16.5 79.1104 16.05 78.7104 15.46L76.6505 12.42C75.6805 11 74.4904 9.70001 73.0204 8.85001C72.6804 8.65001 71.7505 8.88001 71.5405 9.18001C71.3505 9.45001 71.1304 10.13 71.2104 10.45L72.0204 13.76L71.6105 13.93C70.5805 12.73 69.6805 11.43 68.2905 11.05C67.4005 10.81 66.2104 11.95 66.2804 12.75C66.5504 15.52 68.4405 20.11 69.8305 22.42L70.6205 23.72C70.6705 23.8 70.4005 24.17 70.3305 24.1L70.0704 23.83L68.2104 21.9C66.3204 19.96 62.5305 16.41 59.7705 16.23C58.6205 16.15 57.8905 17.59 58.2905 18.62C58.5505 19.31 58.7905 20.2 59.1305 20.79L60.6105 23.37C60.9605 23.98 61.3105 24.41 61.2905 25.09L59.0304 24.57C57.7804 25.48 57.7104 27.13 58.2804 28.57L59.1904 30.91C59.9604 32.87 60.9805 34.67 61.9505 36.52C63.2805 39.02 64.7704 41.24 66.4604 43.54C67.9304 45.54 70.2505 48.64 72.0505 50.29C72.4405 50.64 72.8005 50.99 72.7605 51.57C69.0705 50.5 65.4904 51.93 63.6204 55.2C61.9404 58.15 61.0005 60.42 61.2405 63.96C61.5305 68.23 61.8305 68.11 63.7205 71.94C64.2105 72.93 66.5704 74.95 67.7404 75.69C67.9104 75.8 68.1805 76.05 68.1205 76.19C67.7105 77.12 67.5704 75.86 65.6304 77.76C64.5704 78.8 63.6004 79.82 63.2804 81.28C62.5904 84.42 63.1905 86.55 64.4105 89.43C65.1405 91.15 66.8204 94.05 68.1004 95.25L69.3605 96.42C71.3205 98.24 74.0205 99.07 76.6205 99.31C76.7405 99.31 77.0104 99.41 77.1004 99.44C77.2004 99.47 77.0004 99.89 76.9204 99.97L74.8104 102.42L73.4705 104.06C72.1505 105.66 71.0704 107.44 70.1004 109.25C69.4404 110.46 68.9705 111.73 68.4305 113C67.4305 115.34 66.4604 117.67 66.3904 120.28L66.3404 122.08C66.3104 123.03 67.0204 124.43 67.7704 125.02C68.8904 125.91 70.2405 125.36 71.4705 124.88C72.3205 124.95 70.6704 127.51 70.3904 128.18C68.9304 131.62 67.8404 136.45 68.0304 140.25C68.1904 143.51 68.3904 145.37 69.8104 148.57C70.3904 149.87 72.1905 151.55 73.8705 152.08C75.3205 152.54 77.0505 152.01 78.1905 151.18C78.9505 150.62 79.4805 150.26 80.3705 149.75C80.3605 150.86 80.0904 151.54 79.6704 152.43C78.4204 155.12 77.6004 157.89 76.6304 160.7C75.8004 163.08 74.9305 165.34 74.3005 167.76C73.0805 172.46 71.6504 175.53 71.5304 180.48C72.0704 180.71 72.4505 180.74 73.2205 180.78C73.2405 181.57 72.9005 182.58 72.6505 183.48L71.6905 187.16C71.4905 187.89 72.0405 188.98 72.9305 188.83C73.7105 188.69 74.0704 187.71 74.3904 187.08L75.1704 185.56L77.5704 180.6L78.4204 178.53C78.8704 177.43 79.1404 176.47 79.8104 175.28C80.2604 176.09 79.6004 178.63 79.4604 180.53L79.3204 182.42C79.2004 184.07 79.0204 187.13 80.5304 187.91C82.1804 188.78 83.1104 187.49 83.8804 186.35C85.2604 184.27 86.6205 186.7 87.2605 183.51C87.5205 182.25 87.7404 181.29 88.2004 179.94C89.2204 180.32 88.2505 182.82 90.4705 183.47C92.2605 183.99 93.3204 181.52 94.0704 180.27L95.4504 180.52C95.9104 180.32 96.2504 179.25 96.3504 178.62L97.2605 172.97C97.3005 172.72 97.8404 172.22 97.9504 172.43L98.8904 175.48C99.1004 176.16 99.9905 177.24 100.65 177.59C101.75 178.16 103.04 177.17 103.65 176.18C104.1 175.47 104.15 174.48 104.28 173.64L102.81 174.25C100.87 175.08 100.52 170.38 100.39 169C100.35 168.62 100.93 168.16 101.26 167.98C102.24 167.44 102.54 166.4 102.98 165.46L103.95 163.41C105.64 159.82 106.23 155.7 106.37 151.69L106.44 149.61C106.44 149.44 106.39 149.12 106.29 149.02C106.21 148.95 105.85 148.91 105.83 149.02C105.81 149.12 105.77 149.4 105.73 149.52L104.05 155.65C103.8 156.57 102.38 159.93 101.24 160.28C100.95 160.38 100.17 160.06 100.13 159.73C100 158.62 99.7805 157.06 99.9705 156.01L101.38 153.53C101.56 153.21 101.8 152.79 101.9 152.51L103.29 148.83C104.85 144.65 104.21 146.2 105.03 142.17C105.32 140.73 105.45 139.42 105.63 137.83L105 137.64L103.36 142.18L102.34 144.68C101.87 145.84 101.14 147.25 99.7104 147.45C98.9704 147.55 98.7005 146.32 98.6505 145.8C98.5505 144.61 98.9005 143.95 99.4805 143.03C99.7705 142.58 100.01 141.95 100.31 141.4C101.03 140.12 101.68 138.4 101.99 137.05C102.04 136.86 102.43 136.42 102.55 136.51L103.13 136.93C103.48 137.18 104.42 137.04 104.73 136.69C105.58 135.75 106.22 132.15 106.5 130.81L107.46 126.26C107.63 125.48 107.61 124.59 108.3 124.12L109.12 126.25C110.15 128.89 112.26 130.74 115.16 131.28C116.63 131.56 118.52 130.51 119.27 129.14C119.52 128.68 119.77 128.04 119.93 127.57L120.73 125.13C121.63 126.03 122.14 126.79 123.05 127.17C124.81 127.91 126.15 126.46 126.7 124.8C127.72 121.7 128.15 118.58 127.34 115.45C127.2 114.95 127.17 114.46 127.41 113.89C128.07 114.26 128.34 114.79 128.81 115.27C131.34 117.88 133.7 119.67 137.22 120.42C138.19 120.63 139.08 120.47 139.84 119.71C141.01 118.55 140.08 117.01 140.32 115.73L143.81 116.86C145.97 117.56 148.43 116 149 113.92C149.37 112.55 149.33 111.48 149.08 110.16C148.35 106.44 148.31 108.12 147.06 105.2C147.63 105.17 148.13 105.28 148.46 105.48C150.09 106.47 151.71 107.12 153.38 107.98L155.92 109.28C156.84 109.75 157.93 110.07 158.95 110.45C159.43 110.19 160.11 109.5 160.2 109.04L160.33 108.35C160.35 108.21 160.87 108.26 161.04 108.32L164.45 109.44C165.71 109.85 167.07 109.95 168.4 110.03C168.69 110.05 169.36 109.83 169.55 110.07L170.61 111.44C170.92 111.85 171.15 112.3 170.95 112.75C170.56 113.7 168.14 113.6 167.27 113.38L164.91 112.79C164.42 112.66 163.76 112.38 163.2 112.19L160.85 111.4C160.73 111.36 160.37 111.42 160.26 111.44C160.14 111.46 160.39 111.96 160.51 112.06C161.4 112.82 162.83 113.68 163.98 114.21L167.83 116C170.47 117.23 174.29 117.88 177.15 118.3C177.77 118.4 178.32 119.33 178.85 119.72C179.45 120.16 180.53 120.86 179.99 121.7C179.45 122.55 178.06 122.3 177.16 122.05C174.23 121.22 171.49 120.2 168.78 118.84C168.21 118.55 167.75 118.29 167.07 118.57C167.97 119.47 168.76 119.93 169.68 120.53C174.05 123.4 178.45 125.42 183.53 126.78C186.07 127.46 186.51 125.64 187.63 126.91C188.63 128.04 189.69 129.13 190.33 130.45C190.76 131.32 189.64 132.26 188.7 132.13C188.49 132.92 190.75 133.89 191.96 133.59C192.87 133.38 193.8 132.76 193.96 131.85C194.26 130.27 193.33 128.99 192.36 127.87L191.6 127C190.42 125.63 194.36 127.65 194.56 127.77L196.08 128.62C197 129.14 197.74 129.54 198.9 129.89L200 128.64L202.69 128.81C203.48 128.86 204.14 128.59 204.6 127.99C206.23 125.83 201.94 123.33 203.81 124.01L206.14 124.86C207 125.17 208.36 126.05 209.2 125.35C210.41 124.33 208.7 124.31 212.42 124.28C213.34 124.27 214.31 123.5 214.33 122.55C214.34 121.22 213.31 120.36 212.41 119.57C211.59 118.84 210.93 118.19 209.93 117.59L205.14 114.75C205.03 114.69 204.83 114.35 204.9 114.35C204.96 114.36 205.23 114.37 205.31 114.4L211.93 116.19L219 117.57C219.32 117.64 219.97 117.18 220.11 116.91C220.74 115.62 218.07 114.75 217.18 114.34" fill="#90BEFB"/>
<path d="M142.73 355.5C143.04 356.41 143.04 357.32 142.49 358.09C142.14 358.59 141.15 359.31 140.43 359.02L137.4 357.87L141.21 362.83C141.85 363.66 142.75 364.73 142.21 365.85C142.08 366.14 141.22 366.32 140.95 366.16C140.72 366.02 140.3 365.76 140.05 365.5L133.1 358.61C132.4 357.92 131.76 357.27 131.03 356.68C131.41 358.2 132.27 359.07 132.82 360.27L134.26 363.37C134.54 363.98 134.72 364.77 134.94 365.48C135.2 366.32 134.96 367.45 134.38 368.11C133.78 368.79 132.67 368.7 131.98 368.26L130.49 367.32C129.92 366.96 129.46 367.39 128.95 367.68C128.12 367.94 127.37 366.83 126.93 366.18L124.9 363.25C124.84 363.18 124.54 362.99 124.5 363.08C124.48 363.14 124.33 363.41 124.33 363.47L124.79 365.54C125.02 366.59 124.84 367.96 123.81 368.43C122.59 368.98 121.6 368.07 120.76 367.39L119.08 366.07C118.88 365.91 118.34 365.96 118.11 365.91C117.2 365.74 116.94 364.4 116.49 363.75L115.32 362.09L114.02 360.22C113.88 360 113.36 359.51 113.15 359.66C112.97 359.79 112.74 360.11 112.44 360.51C111.98 359.94 111.16 359.02 110.98 358.21C110.69 356.95 110.29 355.9 109.86 354.72C109.51 353.77 109.23 352.97 108.72 352.08C108.4 351.53 106.86 348.1 106.82 347.91C106.66 347.04 106.73 346.21 106.28 345.42L104.98 343.11C104.1 341.55 103.38 339.88 102.31 338.44C101.64 337.53 98.21 332.59 99.09 331.55C100.27 332.75 101.2 333.66 102.2 334.79C103.71 336.48 107.74 340.67 110.2 339.23C113.24 337.46 110.27 330.33 108.83 328.18C106.89 325.26 106.59 324.34 104.42 321.49C103.35 320.08 102.4 318.7 101.07 317.49C99.88 316.41 98.95 315.15 98.54 313.66C99.28 313.97 99.9 314.17 100.37 314.46C103.13 316.23 105.16 318.04 109.03 317.36C110.14 317.17 111.5 315.84 111.56 314.7C111.67 312.49 110.57 310.58 109.13 309C108.01 307.78 106.55 306.98 105.77 305.4C107.02 305.24 107.9 305.61 109.2 306.04C109.17 305.38 108.56 305.11 108.04 304.77C106.87 303.97 105.76 303.25 104.5 302.57C103.45 302.01 102.58 301.17 101.76 300.38L100.82 299.88L101.43 299.42C102.16 298.86 98.31 296.72 97.8 296.45L95.68 295.35C95.53 295.28 95.05 295.23 94.94 295.35C94.33 295.95 95.48 296.05 93.97 298.26C92.86 299.87 91.76 300.56 89.8 301.44C88.19 302.16 85.97 302.5 84.28 302.01C83.21 301.7 82.78 301.65 81.73 302.13C80.5 302.52 76.54 299.44 75.53 298.47L71.76 294.84C71.37 294.63 70.8 295.43 70.56 295.72C68.47 298.1 65.31 300.83 62.27 302.07L59.93 301.79C55.19 303.33 48.92 300.5 48.22 295.25C47.54 295.28 47.1 295.6 46.57 295.84C44.83 296.63 43.25 297.53 41.97 299.01C41.85 299.15 41.57 299.39 41.65 299.5L41.96 299.9L40.93 300.99C39.98 302 35.6 303.83 34.24 305.82L36.84 305.19C37.01 305.15 37.55 305.48 37.45 305.64C36.99 306.37 36.03 307.37 35.29 307.97C33.03 309.79 30.47 313.47 32.28 316.13C32.69 316.74 33.72 317.36 34.46 317.43C37.35 317.69 38.81 317.03 41.29 315.54C42.46 314.84 43.34 313.86 44.86 313.65C44.16 315.86 41.29 318.13 39.67 320.26L38.2 322.2C36.84 324 35.76 325.95 34.65 327.93L33.43 330.07C32.23 332.18 30.62 337.16 32.72 339.04C33.55 339.79 34.77 339.49 35.68 339.09C39.04 337.62 41.51 333.79 43.42 332.21L44.78 331.09C44.11 333.3 42.99 335.22 41.75 337.22L38.19 342.96C37.85 343.52 37.23 344.42 37.14 344.96C37.07 346 36.84 346.53 36.49 347.39L34.7 351.76C33.8 353.95 32.93 356.08 32.17 358.33C31.92 359.08 31.69 359.83 31.33 360.54L30.25 358.79C29.35 359.82 27.41 363.3 26.8 363.6C26.15 363.93 26.04 364.81 25.65 365.09L22.43 367.43C21.92 367.8 21.31 368.25 20.73 368.5C19.63 368.99 18.35 367.88 18.3 366.72C18.24 365.53 18.65 364.52 18.85 363.11C18.02 363.61 17.57 364.31 17.06 365.04L16.23 366.23C15.84 366.78 15.23 367.35 14.66 367.79L13.46 367.22C12.12 367.48 10.36 369.37 9.12 368.4C6.27 366.15 11.62 359.39 12.12 356.71L5.66 363.14L2.79 365.82C2.31 366.27 1.33 366.36 1.01 365.85C0.4 364.88 1.12 364.07 1.68 363.36C3.04 361.63 4.34 360.03 5.51 358.06C4.19 358.43 3.39 359.13 2.17 359.07C1.02 359.01 0.02 357.71 0.23 356.48C0.62 354.26 1.55 352.18 2.6 350.19C4.47 346.66 6.49 343.44 8.94 340.28C11.27 337.27 13.53 334.41 16.33 331.77L15.95 331.23C12.86 332.91 8.5 333.28 5.66 332.04C3.63 331.15 2.02 329.42 1.06 327.54C-2.15 321.22 3.77 312.14 9.47 308.94C9.62 308.86 9.87 308.31 9.72 308.24C9.09 307.92 5.88 309.29 2.46 306.84C0.53 305.46 -0.2 302.85 0.35 300.61C0.76 298.93 1.42 297.47 2.41 296.09C4.04 293.78 5.65 291.66 8.17 290.15L12.25 287.69C13.8 286.76 15.43 286.57 16.88 285.87C16.98 285.82 16.67 285.44 16.48 285.38C9.74 283.44 3.98 279.46 0.94 272.75C0.47 271.72 0.37 270.5 0 269.52V269.12L0.47 267.62C1.3 264.99 3.42 263.79 6.07 263.43C7.17 263.29 8.1 262.93 9.27 263.49C9.46 263.58 9.88 263.53 10.26 263.39L7.14 260.99C5.07 259.4 3.76 257.39 2.37 255.23C-0.37 250.97 -0.84 245.73 2.63 241.64C4.3 239.67 6.64 238.8 9.27 238.7C11.28 238.63 13.39 239.21 15.26 239.95C15.46 240.03 15.9 239.95 16.19 239.83L14.64 238.03C13.04 236.18 13.26 236.79 11.46 234.47L7.58 229.47C5.6 226.92 4.15 224.14 2.6 221.35C1.45 219.3 0.94 217.88 0.32 215.63C0.05 214.65 0.41 213.27 1.39 212.66C2.9 211.71 4.64 213.69 5.48 213.17L4.21 211.4L1.22 207.66C0.8 207.13 0.51 205.85 1.11 205.49C2.99 204.4 10.26 213.36 11.37 214.14L11.82 214.45C11.88 214.48 11.97 213.98 11.92 213.88L9.98 210.08C9.21 208.56 7.15 204.37 8.96 203.23C9.4 202.95 10.17 202.92 10.68 203.14L13.41 204.29C13.8 203.98 14.37 203.64 14.72 203.74C15.03 203.83 15.46 204.2 15.67 204.51L18.33 208.2C18.5 208.09 18.65 208.01 18.73 207.98C18.53 206.72 18.4 205.99 18.29 204.91C18.17 203.68 19.68 202.84 20.83 203.16C21.78 203.42 22.44 204.11 23.19 204.76L24.54 205.54C24.54 206.37 25.6 206.11 25.83 206.42L27.31 208.49L30.16 212.65L31.46 211.29C31.75 211.98 31.96 212.55 32.2 213.21L33.35 216.45C33.6 217.17 33.98 217.93 34.29 218.65C35.03 220.37 35.98 222.86 36.25 224.59C37.83 226.6 35.9 225.31 37.2 227.4C38.45 229.42 39.61 231.37 41 233.31C41.93 234.59 42.6 235.94 43.33 237.36L44.52 239.71C44.59 239.87 44.69 240.42 44.52 240.41C43.85 240.38 42.49 238.81 41.93 238.17L40.71 236.75C40.34 236.32 39.97 235.95 39.53 235.57C37.94 234.2 34.9 231.26 32.66 232.85C31.25 233.85 31.69 237.27 32.16 238.82C33.2 242.33 35.59 245.29 37.24 248.56C37.64 249.37 38.3 249.99 38.83 250.7C40.31 252.68 39.9 252.38 41.86 254.25C42.43 254.79 42.93 255.59 43.46 256.18C44.11 256.89 44.72 257.39 44.83 258.47C44.21 258.4 43.62 258.23 43.14 257.89C40.21 255.85 37.99 254.47 34.3 254.94C33.68 255.01 32.66 255.71 32.31 256.2C31.41 257.42 31.68 258.87 32.12 260.24C32.64 261.88 33.87 263.16 35.16 264.32C36.08 265.15 36.99 265.71 37.58 267.14C35.93 266.88 34.52 266.43 32.89 265.92L34.77 267.47C35.51 268.09 36.3 268.78 37.15 269.24L40.67 271.11C41.16 271.37 41.65 272.06 42.03 272.42L41.11 273.11C41.98 273.99 42.7 274.69 43.67 275.23L45.96 276.52C46.73 276.95 47.45 277.4 48.32 277.28C48.53 274.83 50.08 273.31 51.83 272.06C54.43 270.19 57.3 270.28 60.28 270.59C61.7 270.74 62.63 270.43 63.97 271.42C66.28 273.12 68.76 274.7 70.72 277.12C71.03 277.5 71.6 277.9 71.97 277.52C74.12 275.28 76.4 273.28 78.97 271.59C82.11 269.52 81.42 271.27 84.07 270.56C87.96 269.51 94.39 272.39 94.99 277.3C95.61 277.3 96.25 277.08 96.81 276.77L98.79 275.71C99.55 275.3 101.57 273.84 102.09 273.21C102.16 273.11 100.95 272.52 101.28 272.25L101.81 271.84C104.22 269.93 104.51 270.24 106.93 268.64C108.24 267.77 109.4 266.98 110.57 265.79C108.97 265.84 108.12 267.33 105.99 266.95C106.14 266.34 106.43 265.83 106.87 265.43L108.98 263.52C110.47 262.17 111.56 259.82 111.55 257.86C111.55 256.64 110.15 255.26 109.01 254.99C107.06 254.53 104.9 255.13 103.15 255.96C101.12 256.92 100.74 257.79 98.69 258.35C98.29 257.09 101.8 254.13 102.98 252.62C104.05 251.27 105.12 249.96 105.99 248.5L107.99 245.13L109.49 242.83C109.74 242.44 110.09 241.57 110.27 241.07C111.23 238.4 112.72 234.35 109.96 232.56C107.39 231.76 103.51 235.46 101.96 237.29C100.96 238.47 99.99 239.57 98.71 240.56C99.04 238.11 100.27 236.34 101.53 234.49L102.56 232.98C103.7 231.31 104.67 229.06 105.75 227.24L106.79 225.49L106.91 223.8C106.96 223.01 107.5 222.08 107.83 221.36L108.84 219.17C109.56 217.61 110.43 215.4 110.91 213.73C111.1 213.06 111.38 212.33 112.08 212.17L113.69 211.78C114.99 209.92 116.15 208.18 117.33 206.29C117.77 205.58 118.3 205.48 119.01 205.16C120.65 204.42 122.65 202.26 123.91 203.21C124.47 203.63 125.06 204.77 124.91 205.51L124.36 208.24C124.48 208.36 124.66 208.52 124.71 208.46C124.76 208.42 124.97 208.21 125.02 208.14L126.67 205.74C127.29 204.84 127.92 203.76 129.01 203.57L129.66 204.35C129.99 204.74 131.02 203.66 132.81 203.06C133.7 202.76 135.11 203.64 135.01 204.76C134.86 206.5 134.37 208.31 133.55 209.79L131.06 214.36L131.26 214.66L132.55 213.34L135.79 210.1L138.1 207.84L140.66 205.47C140.92 205.22 141.83 205.31 142.09 205.54C142.87 206.19 141.76 208.1 141.4 208.54L139.23 211.18C138.66 211.87 138.07 212.67 137.64 213.51C139.15 213.16 140.1 212.06 141.49 212.59C142.81 213.1 143.16 214.76 142.73 216.05L141.75 219.07C141.27 220.55 140.47 221.99 139.65 223.28L138.27 225.46L136.31 228.48L133.89 231.77C133.28 232.61 132.67 233.46 131.97 234.22L129.97 236.4C129.41 237.02 128.91 237.7 128.37 238.38C128.01 238.85 127.08 239.04 127.42 240.06C130.28 239.48 130.96 238.5 134.43 238.76C136.52 238.92 138.03 239.38 139.65 240.73C142.35 242.98 143.48 246.83 142.7 250.33C142.27 252.25 141.55 254.57 140.41 256.14C138.88 258.26 137.23 260.2 135.12 261.74C134.52 262.18 134.05 262.61 133.57 263.17C136.06 263.25 136.55 263.13 138.93 263.86C142.36 264.91 143.71 268.68 142.53 271.88C141.96 273.43 141.44 274.86 140.44 276.15C139.18 277.78 137.86 279.22 136.29 280.55C133.98 282.51 129.64 284.6 126.84 285.43C126.68 285.47 126.36 285.84 126.46 285.89C126.56 285.93 126.84 286.09 126.96 286.12C131.31 287.54 136.79 290.54 139.5 294.21L140.67 295.79C142.38 298.11 143.78 302.25 142.38 304.81C141.9 305.69 141.33 306.59 140.45 307.05C138.72 307.96 136.81 308.51 134.86 308.32C134.37 308.27 133.83 307.99 133.54 308.62L136.23 310.73C138.02 312.14 139.58 314.18 140.82 316.04C141.64 317.28 142.01 318.63 142.43 320.02C143.22 322.67 143.19 325.24 141.94 327.87C141.01 329.8 139.15 331.66 137.01 332.28C134.36 333.05 131.55 332.91 129.07 331.99C128.29 331.7 127.89 331.25 126.82 331.47C127.22 332.02 127.56 332.39 127.98 332.84L129.19 334.2L132.61 338.08C133.58 339.18 134.41 340.41 135.24 341.61L138.14 345.84C139.31 347.54 141.17 350.76 141.79 352.67L142.72 355.52L142.73 355.5Z" fill="#90BEFB"/>
<path d="M334.31 330.62C334.83 332.19 334.54 333.61 333.55 335.02C331.51 337.91 324.99 337.31 322.33 336.42L318.9 335.27L318.55 335.15C318.38 335.1 318.51 335.77 318.55 335.83L319.04 336.37C321.9 339.54 324.58 342.89 326.48 346.71C327.45 348.68 328.55 353.1 326.27 354.08C324.46 354.86 322.48 354.06 320.83 352.97L317.8 350.98C317.67 350.89 317.44 351.27 317.52 351.38C318.99 353.3 321.01 357.26 320.76 359.77C320.57 361.7 319.25 363.01 317.44 363.24C314.56 363.6 310.5 361.33 308.28 359.58L305.06 357.04C304.31 356.44 301.76 353.48 301.81 354.24C301.81 354.31 301.78 354.75 301.81 354.84L302.83 357.62L303.92 361.15C304.25 362.23 304.25 363.48 304.47 364.61C304.68 365.68 304.51 366.76 304.47 367.82C304.41 369.33 304.25 370.54 303.4 371.79C302.8 372.68 302.12 373.48 301.19 373.7C297.01 374.67 292.58 366.5 292.29 367.09C292.26 367.15 292.1 367.4 292.12 367.45L292.39 368.92C292.78 370.98 292.89 372.22 292.41 374.27C292.14 375.49 291.4 376.91 290.08 377.26C289.58 377.39 288.43 377.45 287.97 377.26C286.8 376.81 285.49 376.16 284.65 375.25C282.14 372.52 279.96 369.56 278.49 366.18L277.23 363.27C277.16 363.13 276.8 362.71 276.74 362.84C276.68 362.96 276.48 363.4 276.48 363.58L276.36 367.14L275.71 370.79C275.04 374.49 273.96 378.62 270.1 380.31C269.12 380.74 267.94 380.06 267.18 379.41C265.25 377.75 264.25 375.36 263.87 372.84C263.75 372.07 263.59 371.35 263.04 370.84C262.41 371.97 262.59 373.05 262.27 374.1C261.96 375.11 261.57 376.12 261.15 377.12C260.77 378.04 259.94 378.82 259.26 379.55C258.32 380.57 256.88 380.77 255.66 380.01C253.45 378.61 252.28 376.29 251.59 373.79C251.11 372.04 250.59 370.34 250.56 368.5L250.43 362.65C249.77 362.82 249.52 363.34 249.37 363.93C249.15 364.81 248.67 365.6 248.36 366.44C247.1 369.88 245.05 372.72 242.66 375.42C241.09 377.19 238.83 378.7 236.65 377.4C235.87 376.93 235.64 376.14 235.37 375.14C234.48 371.92 235.47 370.49 235.69 367.18C234.63 367.22 234.87 368.13 234.48 368.67C232.94 370.78 230.37 374.26 227.67 374.69C226.04 374.95 224.71 373.71 224.09 372.39C223.11 370.33 223.26 367.84 223.45 365.63C223.71 362.39 224.31 359.94 225.51 356.92C225.61 356.67 225.68 356.27 225.74 355.88C225.7 355.73 225.59 355.51 225.52 355.57C225.47 355.61 225.17 355.77 225.08 355.85L220.28 360.54C218.89 361.89 217.3 362.59 215.72 363.58C214.98 364.03 214.13 364.22 213.3 364.58C211.5 365.36 209.26 365.08 208.1 363.41C207.71 362.85 207.34 361.54 207.48 360.93C208.15 358.03 208.49 357.24 209.83 354.73C210.13 354.16 210.72 353.67 210.28 353C208.95 354.09 207.84 354.98 206.48 355.74C204.74 356.72 201.21 357.63 200.46 354.95C199.29 350.78 205.42 342.04 208.39 339.02C208.57 338.84 210.65 336.63 209.4 337.14L207.06 338.08C206.59 338.27 206.09 338.53 205.65 338.63L201.63 339.59C199 340.21 194.17 338.98 192.93 335.99C192.67 335.34 192.62 334.4 192.45 333.7C191.01 332.95 190.89 331.45 191.57 330.14C192.16 329.01 192.88 328.08 193.87 327.27C195.79 325.71 201.04 321.54 203.56 321.85C203.39 322.88 201.26 323.99 200.33 324.81L197.89 326.94C196.8 327.89 195.99 328.98 195.18 330.18C194.78 330.77 194.11 331.52 194.46 332.28C194.7 332.81 195.67 332.57 196.13 332.59C197.34 332.63 198.17 332.19 198.82 331.23C199.87 329.65 203.78 326.32 205.35 325.31C207.01 324.24 208.46 322.96 210.23 322.07C211.28 321.54 212.83 320.97 213.73 320.31C213.84 320.23 214.45 320.24 214.43 320.35C214.4 320.47 214.29 320.8 214.19 320.88L212.05 322.64C210.41 323.99 206.13 327.22 205.82 329.16C205.68 330.04 207.99 328.15 208.89 328.6C208.71 329.12 208.27 329.44 207.78 329.72L206.11 330.64C205.77 330.82 205.43 331.13 205.42 331.44C205.42 331.71 206.07 332.18 206.36 332.12L209.03 331.62C210.48 328.63 212.66 326.47 215.41 324.84C215.7 324.67 217.94 322.82 218.74 322.23C220.95 320.6 220.45 321.27 222.7 320.15C222.76 320.12 223.17 320.11 223.11 320.15L222.82 320.4C222.32 320.83 221.88 321.41 221.39 321.9L218.91 324.41C218.12 325.21 216.12 327.17 216.18 328.1C216.23 328.63 218.54 328.12 217.19 329.06L215.81 330.02C215.48 330.25 215.26 331.1 215.47 331.39C215.93 332.02 219.53 332.16 221.32 330.32L224.92 326.63L228.89 322.86C229.89 321.91 230.91 321.08 232.19 320.55C232.41 321.49 231.88 321.88 231.41 322.43C229.42 324.8 229.61 325.14 228.67 326.38C226.2 329.64 226.98 327.87 224.59 332.03C224.19 332.72 222.73 335.75 224.09 335.81C225.35 335.42 226.5 334.43 227.51 333.57L231.26 330.4C231.69 331.11 231.37 331.57 231.02 332.09L230 333.64L228.02 336.84C227.66 337.43 227.43 338.25 227.12 338.92C226.85 339.47 226.85 340.03 227.19 340.49C228.45 342.21 234.28 337.45 235.41 336.11L238.43 332.56C244.75 325.1 238.11 337.53 237.39 339.8L236.47 342.68C236.15 343.7 235.51 347.19 236.56 347.59C236.78 347.67 237.42 347.56 237.58 347.36C238.34 346.38 239.24 345.22 239.89 344.18C240.53 343.15 242.37 339.96 243.27 339.67C243.04 341.31 242.76 342.52 242.32 343.81C241.47 346.34 241.92 345.8 241.13 347.98C240.96 348.45 240.86 349.43 241.62 349.53C242.39 349.63 243.95 347.43 244.47 346.71C247.39 342.69 247.51 341.33 249.33 337.67L250.37 335.56C250.48 335.35 250.97 334.99 251.18 335.09C251.81 335.41 251.34 337.9 251.18 338.62C250.53 341.64 250.32 342.22 250.43 345.4C250.46 346.56 250.52 351.71 252.18 351.77C253.47 351.82 254.21 348.9 254.48 348.16C255.03 346.59 255.55 345.16 255.93 343.49C255.97 343.3 256.19 342.97 256.34 342.98C256.77 343 257.01 344.95 257.01 345.2L257.06 351.49C257.06 351.75 257.68 352.19 257.94 352.15C259.35 351.92 260.84 346.65 261.28 345.26C262.5 341.36 261.59 340.73 262.65 336.6C262.7 336.4 263.32 336.14 263.44 336.29C264.54 337.77 264.48 340.16 264.62 341.84C264.81 344.17 265.66 346.34 266.33 348.55C266.69 349.74 267.48 351.63 268.47 352.15C268.67 352.26 269.34 352.03 269.4 351.8C270.21 348.93 269.15 345.95 270.25 343.13C270.74 341.86 272.64 348.86 272.67 348.96C272.96 350.03 273.51 351.56 274.57 351.59C275.6 351.62 276.26 349.24 276.26 348.59L276.22 341.25C276.22 339.6 275.79 338.33 275.45 336.87C274.91 334.6 275.84 333.89 275.97 334.08C276.03 334.17 276.21 334.41 276.26 334.52L277.58 337.31L278.59 339.49C279.83 342.18 282.7 347.84 285.42 349.13C285.68 349.05 286.25 348.48 286.18 348.19C285.83 346.78 285.46 345.14 285 343.82C284.6 342.7 284.28 341.85 284.36 340.62C284.38 340.42 284.5 339.94 284.65 340.02C285.41 340.39 286.85 342.79 287.36 343.62C287.98 344.61 288.66 345.44 289.39 346.4C289.61 346.68 290.26 346.89 290.57 346.8C290.88 346.71 291.29 346.06 291.26 345.67C290.89 340.98 289.31 336.63 286.99 332.54C286.53 331.74 286.18 330.61 286.04 329.84C286 329.64 286.71 329.57 286.84 329.71L289.64 332.84C291.43 334.85 293.24 336.6 295.5 338.11C296.36 338.68 297.45 339.08 298.47 339.48C299.09 339.73 299.78 339.64 300.18 339.3C301.37 338.31 299.98 336.3 299.17 334.99C298.41 333.77 297.67 332.49 297 331.25C296.83 330.94 296.16 330.35 296.34 330.1L296.93 329.46C297.05 329.32 296.55 328.95 296.43 328.79C295.67 327.75 294.81 326.59 293.89 325.66L292.58 324.32C291.84 323.58 290.35 321.07 291.38 321.41C291.55 321.46 291.92 321.61 292.07 321.71L294.66 323.47C296.18 324.49 297.44 325.12 299.26 325.3C300.47 325.42 301.86 325.41 302.52 324.12C302.96 323.24 302.78 321.92 302.18 321.13C301.51 320.87 300.49 321.3 299.86 321.23C296.79 320.89 294.19 319.47 291.53 318.11C290.75 317.71 290.14 317.11 289.58 316.37L290 315.88L291.6 316.25C291.89 316.32 292.55 316.07 292.68 315.8C293.48 314.02 289.98 309.37 289.7 310.05L289.51 310.52C289.09 311.54 288.5 312.22 287.75 312.93C287.16 313.48 286.68 313.88 285.76 313.95L283.79 314.09C282.89 314.15 281.96 313.71 281.03 313.51C279.97 313.28 278.62 312.39 278.67 311.21C278.73 310.08 278.39 309.47 277.84 308.62C277.1 307.49 276.68 306.4 275.45 305.41C275.1 306.18 274.95 306.65 274.73 307.33C274.03 309.44 271.45 311.76 269.05 311.49C265.51 311.09 267.12 307.83 266.07 307L264.88 309.76C264.54 310.56 263.26 310.99 262.48 310.58C262.21 310.43 261.97 309.93 261.86 309.49L261.17 306.75C261.17 306.68 260.89 306.42 260.89 306.4C260.89 306.4 260.57 306.69 260.55 306.76C260.25 307.59 259.71 309.1 258.94 309.95C258.61 310.31 257.57 310.29 257.15 310.02C256.17 309.4 256.32 307.66 255.75 305.85C255.59 305.35 254.76 306.11 254.94 307.34C255.04 308.03 254.87 308.98 254.32 309.36C253.68 309.8 252.96 309.71 252.24 309.67C250.87 309.58 249.67 309.6 248.49 308.79C246 307.08 246.8 307.96 244.42 305.37C241.9 302.62 244.21 299.84 242.25 300.56C239.37 301.62 237.72 301.87 235.04 302.92L231.61 304.24C230.38 304.71 229.53 304.31 228.39 304.02C226.3 303.52 224.47 303.3 222.5 301.9C220.57 300.54 218.87 298.61 218.76 296.12C218.64 293.11 222.71 292.24 221.82 291.91C221.49 291.79 220.68 291.59 220.31 291.6C217.7 291.68 215.02 291.18 212.42 290.86L209.16 290.45C208.56 290.38 207.24 290.29 207.01 289.74L206.14 287.75C204.09 286.65 202.33 285.39 201.11 283.45C200.17 281.96 199.8 280.06 200.76 278.58C202.34 276.15 204.99 274.94 207.85 275.12C208.42 275.16 208.87 274.97 209.31 274.54L206.05 272.72L203.64 271.38C202.03 270.49 200.5 269.54 199.01 268.51C197.59 267.53 196.44 266.27 195.51 264.86C195.1 264.25 195.48 263.25 196.23 263.09C198.63 262.62 198.78 264.06 200.88 263.49L199.5 262.22C198.2 261.03 196.95 259.53 196.19 257.88C195.81 257.06 195.61 255.99 195.43 255.05C195.06 253.2 197.08 251.2 198.67 250.71C200.93 250.02 203.19 250.3 205.49 250.78C206.53 250.99 207.53 251.47 208.58 251.86L210.89 252.74C211.09 252.81 210.94 252.13 210.8 251.97L208.98 250.03C207.31 248.24 205.99 246.29 204.62 244.28C203.68 242.91 203.03 241.46 202.41 239.92C201.87 238.59 201.21 237.29 201.65 235.77C201.81 235.18 202.31 234.42 202.76 234.2C204.82 233.2 208.04 235.67 209.74 237.02C209.94 237.18 210.35 237.26 210.64 237.24C209.3 234.77 207.95 232.41 207.52 229.51C207.2 227.3 209.41 225.06 211.63 225.39C215.32 225.94 218.71 228.33 221.41 230.71C222.74 231.88 223.95 233.59 225.41 234.18L223.62 228.54C223.33 227.62 223.22 226.71 222.95 225.78C222.45 224.12 222.59 222.38 222.55 220.62C222.51 219.23 222.66 218.04 223.34 216.82C223.88 215.86 224.87 214.83 226.17 214.9C227.03 214.94 228.2 215.5 228.83 216.11C229.88 217.11 230.95 217.99 231.77 219.12L233.28 221.19L233.63 220.2C233.28 218.29 233.16 216.49 233.34 214.53C233.49 212.89 234.83 211.1 236.64 211.33C238.4 211.55 239.92 212.76 241.08 213.98C241.83 214.77 242.36 215.61 242.98 216.46C245.02 219.23 246.7 222.03 247.79 225.32C247.93 225.76 248.22 226.25 248.43 226.6C249.08 225.47 248.58 224.43 248.63 223.36L248.8 219.8L249.01 217.04C249.08 216.16 249.56 215.18 249.74 214.3C250.21 211.99 251.8 209.06 254.1 208.33H255.49C255.93 208.69 256.71 209 257.12 209.47C258.08 210.58 259.04 211.84 259.48 213.21L260.75 217.13C262.3 214.57 261.43 213.37 263.06 210.76C263.7 209.73 264.42 208.9 265.41 208.33H267.2C268.77 209.24 270.01 211.02 270.9 212.76C271.87 214.67 272.9 218.66 273.11 220.81L273.3 222.81C273.42 224.02 273.13 225.65 273.68 225.83C274.14 224.92 274.5 224.11 274.88 223.14L276 220.31C276.28 219.61 276.79 218.94 277.12 218.29C278.69 215.14 279.97 213.44 282.98 211.59C284.01 210.96 285.43 210.79 286.48 211.64C287.54 212.49 287.99 213.67 288.12 215.02C288.29 216.95 288.25 219.09 288.02 220.95C288 221.12 288.2 221.54 288.28 221.45C288.34 221.38 288.49 221.2 288.54 221.14L290.66 217.92C291.75 216.27 294.75 213.45 296.74 214.86C299.5 216.82 299.6 221.37 299.14 224.39C298.91 225.88 298.78 227.38 298.36 228.81L297.52 231.71C297.3 232.48 296.53 233.17 297.12 234.02C299.45 231.21 304.01 226.66 307.12 225.52L309.92 224.49C310.93 224.12 312.04 224.59 312.92 225.04C314.13 225.67 314.47 226.66 314.42 227.98C314.38 229.35 314.44 230.76 313.9 232.01L312.63 234.92C312.56 235.09 312.44 235.46 312.4 235.61C312.37 235.72 312.9 235.67 313 235.61L315.93 233.5C317.12 232.64 318.95 232.36 320.19 233.05C321.67 233.86 321.63 235.61 321.29 236.99C320.22 241.34 319.08 243.17 316.55 246.74C315.72 247.91 314.89 249.05 314 250.14C313.57 250.66 313.18 251 312.95 251.75C313.88 251.75 314.49 251.54 315.16 251.11C316.91 250.03 318.85 249.68 320.85 249.43C323.52 249.11 325.68 249.62 327.59 251.44C329.49 253.25 328.41 254.29 329.6 255.33C330.66 256.25 330.96 257.49 330.26 258.67C328.46 261.68 325.85 263.82 322.84 265.55L320.7 266.77C320.15 267.08 319.68 267.26 318.98 267.08C319.46 266.41 319.83 265.92 320.29 265.56C323.22 263.21 326.31 260.42 327.74 256.96C327.81 256.8 327.66 256.18 327.49 256.16C327.32 256.13 326.91 256.1 326.74 256.13L324.33 256.49C323.54 256.61 323.3 256.9 322.89 257.47C320.61 260.74 316.71 263.62 313.42 265.83L312.12 266.7C311.05 267.42 310.01 267.95 308.8 268.41C308.2 267.94 310.38 266.23 310.52 266.1L314.39 262.4C314.91 261.91 315.61 261.03 315.98 260.42C316.09 260.23 315.67 259.75 315.48 259.82C315.21 259.9 314.93 260.02 314.67 260.14L313.61 260.64C313.54 260.67 313.19 260.66 313.21 260.59C313.23 260.51 313.28 260.09 313.34 260.04L316.32 257.87C316.74 257.56 316.15 256.75 315.79 256.7C314.25 256.5 312.98 257.16 312.1 258.38C311.52 259.18 310.74 259.92 310.1 260.72C309.22 261.79 308.32 262.73 307.26 263.6L303.58 266.65C302.92 267.19 302.11 267.82 301.4 268.19L299.6 269.11C299.5 269 299.36 268.86 299.43 268.8C299.48 268.76 299.67 268.58 299.71 268.54L300.99 267.05L302.73 265C306.55 260.48 303.85 261.05 305.51 259.47C306 259 306.08 258.07 305.63 257.62C304.7 256.67 303.54 256.83 302.46 257.19C299.37 258.23 299.71 259.33 297.09 262.14L294.13 265.32L293.12 266.35C292.65 266.84 291.94 267.27 291.18 267.7C290.97 267.35 291.1 266.85 291.32 266.49L295.68 259.37C296.4 258.2 297.19 257.47 297.63 256.07L298.33 253.83C298.38 253.68 297.87 253.19 297.73 253.23C297.35 253.34 296.7 253.77 296.4 254.07L295.3 255.19L293.99 256.51C293.15 257.37 292.49 258.03 291.71 258.09C291.14 258.14 292.64 255.3 292.78 255.06L294.18 252.67C294.82 251.58 295.36 250.52 295.17 249.14C294.89 247.13 291.8 248.93 290.86 249.56C289.46 250.5 288.23 251.52 287.21 252.86L284.11 256.9L282.88 258.45C282.76 258.61 282.34 258.94 282.28 258.76C281.77 257.52 282.33 256.97 282.66 256.07L284.05 252.27C284.67 250.58 287.03 242.85 285.95 241.81C285.41 241.28 284.27 243.33 283.99 243.83L282.39 246.64C281.94 247.43 281.68 248.3 280.58 248.67C280.38 246.83 281.09 245.26 281.63 243.54C281.91 242.63 282.23 239.01 281.41 239.18C279.81 239.51 276.67 244.86 275.96 246.52C274.9 248.99 274.61 251.16 272.99 253.47C272.9 253.59 272.38 253.26 272.35 253.09C271.99 251.4 272.41 249.66 272.53 247.93L272.67 245.81C272.71 245.22 272.72 244.72 272.67 244.12C272.55 242.13 272.47 238.62 271.29 237.25C270.5 236.32 269.34 239.61 269.3 240.04C269.13 241.78 269.08 243.63 267.79 244.92L267.53 245.18C267.32 245.39 266.87 242.3 266.85 241.64C266.8 239.99 266.9 238.51 266.31 237.01C266.2 236.75 265.63 236.37 265.42 236.52C264.43 237.2 263.73 239.12 263.31 240.32C262.77 241.85 262.55 243.33 262.36 244.93L261.95 248.61C261.81 249.81 261.77 251.52 261.5 252.6C261.45 252.77 260.87 253.06 260.79 252.93C260.15 251.95 259.83 248.65 259.53 247.1C259.32 245.97 257.17 235.6 255.33 236.78C255.27 236.82 255.12 237.21 255.12 237.3L255.15 245.6C255.08 246.15 254.95 245.95 254.79 245.57L253.67 243.69C253.27 242.76 251.84 235.87 250.05 237.38C249.71 237.67 249.37 238.55 249.38 239.04L249.42 246.33C249.42 247.44 250.02 248.59 250.21 249.64L250.8 252.87C250.89 253.34 250.97 253.7 250.73 254.13C250.22 253.64 249.49 253.1 249.22 252.53L248.2 250.35C246.88 247.53 245.51 244.89 243.74 242.3L242.45 240.42C242.01 239.78 241.49 239.36 240.62 239.44C240.62 240.55 240.77 241.55 241.08 242.61L242.04 245.83C242.02 245.77 243.26 249.51 242.32 248.94L241.97 248.73C241.71 248.57 241.53 248.02 241.32 247.65C241.08 247.19 240.63 246.72 240.35 246.3L238.54 243.46C238.07 242.72 237.42 241.68 236.76 241.46C236.21 241.28 236.02 243.06 236.72 244.72C237.06 245.54 237.17 246.39 237.43 247.19C238.19 249.54 239.32 251.6 240.26 253.84L242.09 258.24C242.69 260.31 239.31 256.38 239.16 256.2C236.71 253.13 233.38 249.08 229.29 248.34C228.94 248.28 228.32 248.96 228.31 249.32C228.2 252.43 232.76 258.01 234.65 260.45L235.52 261.58L238.03 264.84C238.25 265.14 238.28 265.68 238.03 266.01L236.26 264.8L234.41 263.48C232.86 262.39 229.74 260.44 227.81 261.16C226.92 261.49 226.35 262.85 226.39 263.71C226.48 265.41 228.45 263.97 231.54 265.03C232.94 265.51 234.26 266.17 235.63 266.84C236.03 267.04 238.02 268.96 238.19 269.55C237.15 269.74 235.61 268.88 235.22 269.79C234.49 271.52 237.34 275.83 237.58 274.69L237.7 274.12C237.85 273.39 238.29 272.78 238.77 272.24C239.53 271.41 240.27 271.06 241.44 271.07C243.07 271.1 244.56 271.26 246.21 271.77C247.23 272.08 248.33 273.43 248.19 274.51C248.12 275.03 247.88 275.62 248.12 276.09L249.42 278.59C249.53 278.8 250.12 279.23 250.25 279.05C250.8 278.31 250.28 276.52 252.46 274.42C253.23 273.68 254 273.18 255.14 273.26C256.18 273.34 257.36 273.45 258.07 274.36C258.74 275.21 258.27 277.81 259.06 276.47L260.12 274.69C260.36 274.29 261.11 274 261.55 274.05C263.18 274.22 263.45 277.15 263.73 278.27L264.23 278.24L265.18 275.56C265.35 275.06 266.06 274.75 266.55 274.68C269.48 274.29 268.48 280.09 269.27 279.08C270.15 277.96 269.78 277.71 270.54 276.62C274.04 273.13 280.51 277.84 282.13 281.18C282.73 282.41 282.65 283.89 282.73 285.25L285.42 284.31L287.96 283.29C290.54 282.26 293.17 281.12 295.92 280.66C301.04 282.21 301.81 280.57 306.68 284.55C308.58 286.1 309.34 288.57 308.42 290.95C308.06 291.46 307.35 292.22 306.87 292.64L306.45 293.01C305.81 293.58 309.1 293.4 308.65 293.37L311.44 293.52L314.41 293.73L316.59 293.89L321.76 294.42C322.14 294.46 322.77 294.86 322.76 295.16C322.76 295.48 322.56 295.94 322.31 296.25C321.29 297.57 324.23 297.51 326.43 299.46C328.07 300.9 329.31 302.71 329.44 304.97C329.47 305.54 328.9 306.41 328.69 306.93C328.2 308.15 327.32 308.87 326.2 309.45C322.59 311.32 322.28 309.93 319.2 310.82C319.92 311.64 320.61 311.71 321.38 312.07C325.02 313.75 326.73 314.59 330.02 316.9C331.51 317.94 335.58 320.46 334.62 322.49C334.04 323.71 332.15 323.71 330.87 323.37L329.32 322.94C329.25 322.92 328.83 323 328.76 323.01C328.69 323.01 328.72 323.11 328.73 323.25C328.87 323.44 329.09 323.75 329.23 323.88C331.75 325.99 333.32 327.37 334.39 330.57" fill="#90BEFB"/>
</g>
</g>
<defs>
<clipPath id="clip0_2553_3213">
<rect width="334.69" height="380.5" fill="white"/>
</clipPath>
</defs>
</svg>
