<svg width="395" height="222" viewBox="0 0 395 222" fill="none" xmlns="http://www.w3.org/2000/svg">
<mask id="mask0_2553_11810" style="mask-type:luminance" maskUnits="userSpaceOnUse" x="0" y="0" width="395" height="222">
<path d="M394.88 0H0V221.98H394.88V0Z" fill="white"/>
</mask>
<g mask="url(#mask0_2553_11810)">
<path d="M378.07 10.47L381.02 19.82L376.7 26.42C363.24 31.96 363.42 12.82 356.8 15.83C355.6 16.33 353.67 18.6 353.26 19.84L346 42.51L371.51 89.26C375.21 96.1 377.97 104.46 384.98 108.35C386.71 109.34 389.57 111.4 389.86 112.91C390.15 114.42 386.25 115.71 384.56 115.81L355.63 117.79C354.66 117.85 351.03 117.45 351.29 116.51C354.91 102.01 371.78 121.56 339.25 62.5L327.51 101.42C324.47 111.31 335.18 111.5 336.64 116.7C336.92 117.78 334.25 119.67 332.99 119.76L305.97 122.31C304.76 122.38 302.12 121.43 301.95 120.31C301.07 115.36 310.93 114.22 314.53 103.6L338.22 33.28C341.58 23.42 343.76 12.39 354.1 6.91005C362.08 2.73005 371.18 6.21005 378.07 10.5" fill="#90BEFB"/>
<path d="M208.88 99.6401L193.85 91.2101L180.81 83.8101C184.88 76.9901 191.83 74.2401 199.71 75.8201C204.63 76.7901 209.18 80.1001 211.17 84.8301C212.94 88.8901 211.87 95.2601 208.88 99.6501M203.45 65.8401C178.77 56.8801 150.27 82.8501 149.93 111.83C149.78 125.61 158.42 135.63 169.9 141.18C183.79 147.95 191.16 144.57 205.06 137.3C206.91 136.35 209.02 133.65 209.1 131.96C209.24 130.25 205.82 126.04 204.26 127.15C192.88 134.99 173.52 132.35 168.86 117.57C165.91 108.22 170.8 97.7501 175.74 92.1301L199.86 105.58L213.03 114.17C214.19 114.91 218.21 116.35 218.9 115.21C223.96 106.84 228.02 97.8701 225.13 87.1401C222.41 77.1601 213.81 69.5901 203.45 65.8401Z" fill="#90BEFB"/>
<path d="M289.53 119.77C291.03 124.34 289.11 129.57 284.94 133.34C283.08 135.04 278.36 135.11 275.89 134.1C268.18 130.93 271.91 119.72 264.31 119.84C261.6 119.84 258.29 122.42 256.74 124.94L237.8 155.47C228.74 170.09 247.64 173.79 240.16 180.52C225.48 174 224.46 169.77 208.98 162.46C207.17 161.61 203.67 156.56 205.52 155.98L216.96 153.79C224.04 149.9 227.24 142.67 230.71 136.09C234.64 128.45 243.56 121.58 241.8 112.1L239.31 98.54L258.21 102.25C260.17 102.62 265.3 102.29 265.07 103.9L264.03 111.92C273.21 108.23 286.59 110.66 289.53 119.76" fill="#90BEFB"/>
<path d="M180.22 52.47C177.18 60.02 171.63 55.67 167.6 57.74C154.92 64.2 144.11 73.46 132.87 81.93L109.82 99.23C108.18 100.49 105.64 101.78 104.09 101.96C102.84 102.11 99.99 99.5 100.09 98.05L102.09 68.48C103.19 52.44 105.92 37.66 104.71 21.73C104.51 19.15 99.9 15.06 101.89 12.4L105.86 11.15L113.47 15.95C119.79 19.99 125.7 23.3 132.88 26.15C134.41 26.71 137.09 29.56 135.97 30.47L131.49 34.04C126.76 32.33 122.59 35.31 121.76 39.51C119.19 53.43 117.59 66.5 117.2 81.08L148.18 55.55C151.6 52.74 151.88 46.2 149.42 43.09L150.43 38.09C151.26 33.89 163.36 44.54 165.87 45.66L180.21 52.47H180.22Z" fill="#90BEFB"/>
<path d="M145.41 147.48L137.57 167.13L121.91 210.42L120.45 215.93C120.11 217.21 115.15 217.48 114.77 215.88C110.74 196.84 97.9498 197.29 77.5398 189.76L55.8898 181.81L42.7698 176.9C37.0698 174.82 31.4698 173.08 25.4298 171.29C12.4398 167.38 12.7798 183.1 5.00977 175.27C5.70977 171.23 7.44977 165.82 9.08977 162.04C15.0398 148.28 23.1398 126.15 27.0998 112.16C27.5198 110.55 31.2998 109.66 32.8098 110.17C40.1798 112.46 47.0398 114.3 54.5898 116.17C56.1298 116.55 58.3798 118.05 59.3098 119.05C60.2598 120.11 58.9798 124.45 57.6098 124.39C48.5798 123.67 35.1298 126.49 31.2098 136.53L25.0998 152.31L70.0098 168.81C77.7698 150.85 69.3398 152.83 65.6698 141.37C70.7198 139.04 74.2598 140.69 78.7998 142.4L101.16 151.04C103.11 164.83 85.4398 147.44 81.4498 172.89C92.1498 176.97 102.16 180.77 113.57 183.39C117.07 184.14 122.08 177.38 123.19 174.26C133.21 147.27 108.28 133.4 116.06 129.6C117.35 129.01 120.07 129.81 121.57 130.88L145.4 147.5L145.41 147.48Z" fill="#90BEFB"/>
<path d="M376.25 21.3201C375.42 18.6901 376.88 15.8801 379.51 15.0501C382.15 14.2201 384.96 15.6801 385.79 18.3201C386.62 20.9501 385.15 23.7601 382.52 24.5901C382.02 24.7501 381.51 24.8201 381.02 24.8201C378.89 24.8201 376.92 23.4601 376.25 21.3201Z" fill="black"/>
<path d="M373.95 30.6C371.65 29.09 371 25.99 372.51 23.68C374.03 21.37 377.13 20.72 379.44 22.23C381.75 23.75 382.39 26.85 380.88 29.16C379.92 30.62 378.32 31.42 376.69 31.42C375.75 31.42 374.8 31.15 373.95 30.6Z" fill="black"/>
<path d="M352.24 17.8901C351.1 15.3801 352.22 12.4201 354.73 11.2701C357.24 10.1301 360.21 11.2401 361.35 13.7601C362.49 16.2701 361.38 19.2401 358.86 20.3801C358.19 20.6801 357.49 20.8301 356.8 20.8301C354.9 20.8301 353.08 19.7401 352.24 17.8901Z" fill="black"/>
<path d="M351.69 24.58C349.06 23.71 347.64 20.88 348.51 18.26C349.38 15.64 352.21 14.22 354.83 15.09C357.45 15.95 358.87 18.78 358 21.4C357.31 23.5 355.35 24.83 353.26 24.83C352.74 24.83 352.21 24.75 351.69 24.58Z" fill="black"/>
<path d="M344.47 47.26C341.84 46.42 340.39 43.6 341.24 40.97C342.08 38.34 344.89 36.89 347.52 37.74C350.15 38.58 351.6 41.39 350.76 44.02C350.08 46.15 348.11 47.5 346 47.5C345.49 47.5 344.98 47.42 344.47 47.26Z" fill="black"/>
<path d="M354.37 68.27C353.04 65.84 353.94 62.81 356.36 61.48C358.78 60.16 361.82 61.05 363.14 63.48C364.47 65.9 363.57 68.94 361.15 70.26C360.39 70.68 359.57 70.87 358.76 70.87C356.99 70.87 355.27 69.93 354.37 68.27Z" fill="black"/>
<path d="M382.55 112.7C380.14 111.37 379.26 108.32 380.6 105.91C381.94 103.49 384.98 102.62 387.4 103.96C389.81 105.3 390.69 108.34 389.35 110.75C388.44 112.4 386.73 113.33 384.97 113.33C384.15 113.33 383.32 113.13 382.55 112.7Z" fill="black"/>
<path d="M384.95 113.84C384.43 111.13 386.2 108.5 388.91 107.98C391.62 107.45 394.25 109.23 394.77 111.94C395.29 114.65 393.52 117.27 390.81 117.8C390.49 117.86 390.17 117.89 389.86 117.89C387.51 117.89 385.41 116.23 384.95 113.84Z" fill="black"/>
<path d="M379.57 116.08C379.41 113.33 381.51 110.96 384.27 110.8C387.02 110.64 389.39 112.74 389.55 115.49C389.71 118.25 387.61 120.62 384.85 120.78C384.75 120.78 384.65 120.78 384.55 120.78C381.93 120.78 379.72 118.73 379.57 116.07V116.08Z" fill="black"/>
<path d="M350.64 118.11C350.46 115.36 352.54 112.97 355.29 112.78C358.05 112.59 360.43 114.67 360.62 117.43C360.81 120.18 358.73 122.57 355.98 122.76C355.86 122.76 355.74 122.76 355.63 122.76C353.02 122.76 350.82 120.74 350.64 118.1V118.11Z" fill="black"/>
<path d="M349.97 121.31C347.31 120.59 345.74 117.84 346.47 115.18C347.19 112.51 349.94 110.94 352.61 111.67C355.27 112.39 356.84 115.14 356.11 117.81C355.51 120.03 353.49 121.49 351.29 121.49C350.86 121.49 350.41 121.43 349.97 121.31Z" fill="black"/>
<path d="M348.96 91.8101C347.78 89.3201 348.84 86.3401 351.33 85.1501C353.83 83.9701 356.81 85.0401 357.99 87.5301C359.18 90.0201 358.11 93.0101 355.62 94.1901C354.92 94.5201 354.2 94.6701 353.48 94.6701C351.61 94.6701 349.81 93.6101 348.96 91.8101Z" fill="black"/>
<path d="M326.06 106.18C323.42 105.39 321.92 102.6 322.72 99.95C323.52 97.31 326.31 95.81 328.95 96.61C331.6 97.41 333.09 100.2 332.3 102.84C331.64 105 329.66 106.4 327.51 106.4C327.03 106.4 326.55 106.33 326.06 106.18Z" fill="black"/>
<path d="M331.82 118.03C331.08 115.37 332.63 112.61 335.29 111.87C337.95 111.12 340.71 112.67 341.45 115.33C342.2 117.99 340.64 120.75 337.98 121.5C337.53 121.62 337.08 121.68 336.63 121.68C334.45 121.68 332.44 120.24 331.82 118.03Z" fill="black"/>
<path d="M328 120.09C327.8 117.33 329.88 114.94 332.63 114.75C335.39 114.56 337.78 116.63 337.97 119.39C338.16 122.14 336.09 124.53 333.33 124.73C333.21 124.73 333.1 124.74 332.98 124.74C330.38 124.74 328.18 122.72 328 120.09Z" fill="black"/>
<path d="M300.98 122.76C300.72 120.01 302.74 117.57 305.49 117.31C308.24 117.05 310.68 119.07 310.94 121.82C311.2 124.57 309.18 127.01 306.43 127.27C306.27 127.28 306.11 127.29 305.95 127.29C303.4 127.29 301.23 125.35 300.98 122.76Z" fill="black"/>
<path d="M297 121.04C296.59 118.31 298.47 115.76 301.2 115.35C303.93 114.93 306.48 116.81 306.89 119.54C307.3 122.28 305.42 124.82 302.69 125.23C302.44 125.27 302.19 125.29 301.94 125.29C299.51 125.29 297.38 123.52 297 121.04Z" fill="black"/>
<path d="M312.92 108.31C310.31 107.43 308.91 104.59 309.8 101.97C310.68 99.3601 313.52 97.9601 316.14 98.8501C318.75 99.7301 320.15 102.57 319.26 105.19C318.56 107.27 316.61 108.58 314.53 108.58C314 108.58 313.45 108.5 312.92 108.31Z" fill="black"/>
<path d="M324.78 73.15C322.16 72.27 320.75 69.44 321.64 66.82C322.52 64.21 325.35 62.8 327.97 63.68C330.59 64.56 331.99 67.4 331.11 70.01C330.41 72.1 328.46 73.42 326.38 73.42C325.85 73.42 325.31 73.33 324.78 73.15Z" fill="black"/>
<path d="M349.68 9.23005C348.39 6.79005 349.32 3.76005 351.76 2.47005C354.2 1.17005 357.22 2.10005 358.52 4.54005C359.81 6.98005 358.88 10.0101 356.44 11.3001C355.69 11.7001 354.89 11.8901 354.1 11.8901C352.31 11.8901 350.58 10.9201 349.68 9.23005Z" fill="black"/>
<path d="M375.43 14.7201C373.08 13.2601 372.36 10.1801 373.82 7.83011C375.28 5.48011 378.36 4.77011 380.71 6.22011C383.06 7.68011 383.77 10.7701 382.31 13.1101C381.37 14.6301 379.74 15.4701 378.06 15.4701C377.16 15.4701 376.25 15.2301 375.43 14.7201Z" fill="black"/>
<path d="M155.03 90.5C152.69 89.03 151.98 85.94 153.45 83.6C154.91 81.26 158 80.55 160.34 82.02C162.68 83.48 163.39 86.57 161.92 88.91C160.97 90.43 159.35 91.26 157.68 91.26C156.77 91.26 155.86 91.01 155.03 90.5ZM172.77 70.27C171.53 67.81 172.53 64.8 174.99 63.56C177.46 62.32 180.47 63.31 181.71 65.78C182.95 68.25 181.95 71.25 179.49 72.49C178.77 72.86 178 73.03 177.25 73.03C175.42 73.03 173.65 72.02 172.77 70.27Z" fill="black"/>
<path d="M167.72 145.68C165.23 144.48 164.19 141.49 165.39 139C166.59 136.52 169.58 135.48 172.07 136.68C174.55 137.88 175.6 140.87 174.39 143.36C173.53 145.14 171.75 146.18 169.89 146.18C169.16 146.18 168.42 146.02 167.72 145.68Z" fill="black"/>
<path d="M200.62 139.62C199.34 137.17 200.29 134.15 202.73 132.87C205.18 131.59 208.2 132.53 209.48 134.98C210.76 137.43 209.82 140.44 207.37 141.73C206.63 142.11 205.84 142.3 205.06 142.3C203.26 142.3 201.52 141.32 200.62 139.62Z" fill="black"/>
<path d="M208.85 136.95C206.09 136.82 203.97 134.47 204.1 131.72C204.24 128.96 206.58 126.83 209.34 126.96C212.1 127.1 214.22 129.44 214.09 132.2C213.96 134.88 211.75 136.96 209.1 136.96C209.02 136.96 208.93 136.96 208.85 136.96V136.95Z" fill="black"/>
<path d="M200.18 130.04C198.58 127.8 199.11 124.67 201.35 123.07C203.6 121.47 206.73 122 208.33 124.25C209.93 126.5 209.4 129.62 207.15 131.22C206.27 131.85 205.26 132.15 204.26 132.15C202.69 132.15 201.15 131.42 200.18 130.04Z" fill="black"/>
<path d="M164.08 119.07C163.25 116.43 164.71 113.62 167.35 112.79C169.98 111.96 172.79 113.43 173.62 116.06C174.45 118.69 172.99 121.5 170.35 122.33C169.85 122.49 169.35 122.56 168.85 122.56C166.72 122.56 164.75 121.2 164.08 119.07Z" fill="black"/>
<path d="M172.43 95.88C170.35 94.05 170.15 90.9 171.97 88.82C173.79 86.75 176.95 86.54 179.03 88.37C181.1 90.19 181.3 93.35 179.48 95.42C178.49 96.55 177.11 97.12 175.72 97.12C174.55 97.12 173.37 96.71 172.43 95.88Z" fill="black"/>
<path d="M197.42 109.94C195 108.59 194.14 105.55 195.48 103.14C196.83 100.72 199.87 99.86 202.29 101.2C204.7 102.55 205.56 105.59 204.22 108C203.3 109.64 201.6 110.57 199.85 110.57C199.02 110.57 198.19 110.37 197.42 109.94Z" fill="black"/>
<path d="M210.29 118.35C207.98 116.84 207.33 113.74 208.84 111.43C210.34 109.12 213.44 108.47 215.76 109.97C218.07 111.48 218.72 114.58 217.21 116.89C216.25 118.36 214.65 119.16 213.02 119.16C212.08 119.16 211.14 118.9 210.29 118.35Z" fill="black"/>
<path d="M216.32 119.49C213.95 118.07 213.19 114.99 214.61 112.63C216.03 110.26 219.1 109.49 221.47 110.92C223.84 112.34 224.6 115.41 223.18 117.78C222.24 119.34 220.59 120.2 218.89 120.2C218.01 120.2 217.12 119.97 216.32 119.49Z" fill="black"/>
<path d="M220.3 88.43C219.58 85.77 221.16 83.02 223.83 82.31C226.49 81.59 229.24 83.17 229.96 85.83C230.67 88.5 229.09 91.24 226.43 91.96C225.99 92.08 225.56 92.14 225.13 92.14C222.92 92.14 220.9 90.67 220.3 88.43Z" fill="black"/>
<path d="M201.75 70.5401C199.15 69.6001 197.81 66.7301 198.75 64.1301C199.69 61.5401 202.56 60.1901 205.15 61.1401C207.75 62.0801 209.09 64.9401 208.15 67.5401C207.42 69.5701 205.5 70.8401 203.45 70.8401C202.89 70.8401 202.31 70.7401 201.75 70.5401Z" fill="black"/>
<path d="M191.4 95.57C188.99 94.22 188.13 91.17 189.49 88.77C190.84 86.36 193.88 85.5 196.29 86.85C198.7 88.2 199.56 91.25 198.21 93.66C197.29 95.29 195.59 96.21 193.84 96.21C193.01 96.21 192.17 96.01 191.4 95.57Z" fill="black"/>
<path d="M178.33 88.1601C175.93 86.8001 175.09 83.7501 176.45 81.3501C177.81 78.9401 180.87 78.1001 183.27 79.4601C185.67 80.8201 186.51 83.8801 185.15 86.2801C184.23 87.9001 182.54 88.8101 180.8 88.8101C179.96 88.8101 179.11 88.6001 178.33 88.1601Z" fill="black"/>
<path d="M198.72 80.7201C196.02 80.1801 194.26 77.5501 194.8 74.8401C195.34 72.1301 197.98 70.3801 200.69 70.9201C203.39 71.4601 205.15 74.0901 204.61 76.8001C204.13 79.1801 202.04 80.8201 199.71 80.8201C199.38 80.8201 199.05 80.7901 198.72 80.7201Z" fill="black"/>
<path d="M206.55 86.76C205.48 84.22 206.68 81.28 209.23 80.22C211.78 79.15 214.71 80.35 215.77 82.89C216.84 85.44 215.64 88.37 213.1 89.44C212.46 89.7 211.81 89.83 211.16 89.83C209.21 89.83 207.35 88.68 206.55 86.76Z" fill="black"/>
<path d="M206.07 103.78C203.78 102.22 203.19 99.1201 204.75 96.8301C206.3 94.5501 209.41 93.9601 211.69 95.5101C213.98 97.0701 214.57 100.18 213.01 102.46C212.05 103.88 210.47 104.65 208.87 104.65C207.91 104.65 206.93 104.36 206.07 103.78Z" fill="black"/>
<path d="M281.24 136.7C279.39 134.66 279.54 131.49 281.59 129.64C283.64 127.79 286.8 127.94 288.65 129.99C290.5 132.03 290.35 135.2 288.3 137.05C287.35 137.92 286.14 138.35 284.95 138.35C283.59 138.35 282.23 137.79 281.24 136.7Z" fill="black"/>
<path d="M274 138.74C271.45 137.7 270.22 134.78 271.26 132.22C272.3 129.66 275.22 128.43 277.78 129.48C280.33 130.52 281.56 133.44 280.52 135.99C279.73 137.93 277.86 139.11 275.89 139.11C275.26 139.11 274.62 138.99 274 138.74Z" fill="black"/>
<path d="M259.31 119.97C259.25 117.21 261.43 114.91 264.19 114.85C266.95 114.78 269.24 116.96 269.31 119.72C269.38 122.48 267.2 124.77 264.44 124.84H264.31C261.61 124.84 259.38 122.68 259.31 119.97Z" fill="black"/>
<path d="M254.13 129.2C251.78 127.76 251.04 124.68 252.48 122.33C253.93 119.97 257.01 119.23 259.36 120.68C261.71 122.12 262.45 125.2 261.01 127.55C260.07 129.09 258.42 129.94 256.74 129.94C255.85 129.94 254.95 129.7 254.13 129.2Z" fill="black"/>
<path d="M235.17 159.72C232.83 158.26 232.1 155.18 233.56 152.84C235.01 150.49 238.1 149.77 240.44 151.22C242.79 152.68 243.51 155.76 242.06 158.11C241.11 159.63 239.48 160.47 237.8 160.47C236.9 160.47 235.99 160.23 235.17 159.72Z" fill="black"/>
<path d="M236.45 183.87C234.6 181.81 234.77 178.65 236.82 176.81C238.88 174.96 242.04 175.13 243.88 177.18C245.73 179.23 245.56 182.4 243.51 184.24C242.55 185.1 241.36 185.52 240.17 185.52C238.8 185.52 237.44 184.96 236.45 183.87Z" fill="black"/>
<path d="M206.85 166.99C204.35 165.81 203.29 162.83 204.47 160.33C205.64 157.84 208.62 156.77 211.12 157.95C213.62 159.13 214.69 162.11 213.51 164.6C212.65 166.41 210.86 167.47 208.98 167.47C208.27 167.47 207.54 167.31 206.85 166.99Z" fill="black"/>
<path d="M200.76 157.49C199.93 154.86 201.39 152.05 204.02 151.22C206.65 150.39 209.46 151.85 210.29 154.48C211.13 157.11 209.67 159.92 207.04 160.75C206.53 160.91 206.02 160.99 205.52 160.99C203.4 160.99 201.43 159.63 200.76 157.49Z" fill="black"/>
<path d="M212.05 154.74C211.53 152.02 213.31 149.41 216.02 148.89C218.74 148.36 221.36 150.14 221.88 152.86C222.4 155.57 220.62 158.19 217.91 158.71C217.59 158.77 217.27 158.8 216.96 158.8C214.61 158.8 212.51 157.13 212.05 154.74Z" fill="black"/>
<path d="M228.38 140.52C225.94 139.23 225.01 136.21 226.29 133.77C227.58 131.32 230.6 130.39 233.05 131.68C235.49 132.97 236.43 135.99 235.14 138.43C234.24 140.13 232.51 141.1 230.71 141.1C229.92 141.1 229.13 140.91 228.38 140.52Z" fill="black"/>
<path d="M236.89 113.02C236.38 110.3 238.18 107.69 240.89 107.19C243.61 106.69 246.22 108.48 246.72 111.19C247.22 113.91 245.43 116.52 242.72 117.02C242.41 117.08 242.1 117.1 241.8 117.1C239.44 117.1 237.33 115.42 236.89 113.02Z" fill="black"/>
<path d="M234.4 99.45C233.9 96.73 235.69 94.13 238.41 93.63C241.13 93.13 243.73 94.93 244.23 97.64C244.73 100.36 242.93 102.97 240.22 103.46C239.91 103.52 239.61 103.55 239.31 103.55C236.94 103.55 234.84 101.86 234.4 99.45Z" fill="black"/>
<path d="M257.25 107.16C254.54 106.63 252.77 104 253.3 101.29C253.84 98.58 256.46 96.81 259.17 97.35C261.88 97.88 263.65 100.5 263.12 103.21C262.65 105.6 260.56 107.25 258.22 107.25C257.9 107.25 257.57 107.22 257.25 107.16Z" fill="black"/>
<path d="M264.36 108.86C261.63 108.46 259.73 105.93 260.13 103.19C260.52 100.46 263.05 98.56 265.79 98.96C268.52 99.35 270.42 101.89 270.02 104.62C269.66 107.11 267.53 108.91 265.08 108.91C264.84 108.91 264.6 108.89 264.36 108.86Z" fill="black"/>
<path d="M263.39 116.89C260.65 116.53 258.72 114.02 259.08 111.29C259.43 108.55 261.94 106.62 264.68 106.97C267.42 107.33 269.35 109.84 268.99 112.57C268.66 115.09 266.52 116.93 264.04 116.93C263.83 116.93 263.61 116.93 263.39 116.89Z" fill="black"/>
<path d="M284.77 121.31C283.93 118.68 285.37 115.86 288 115.01C290.63 114.17 293.44 115.61 294.29 118.24C295.14 120.87 293.69 123.68 291.06 124.53C290.55 124.7 290.04 124.77 289.53 124.77C287.42 124.77 285.45 123.42 284.77 121.31Z" fill="black"/>
<path d="M163.15 60.03C161.89 57.58 162.86 54.56 165.31 53.3C167.77 52.04 170.78 53.01 172.04 55.46C173.31 57.92 172.34 60.93 169.88 62.19C169.15 62.57 168.37 62.75 167.6 62.75C165.79 62.75 164.04 61.76 163.15 60.03Z" fill="black"/>
<path d="M128.87 84.9401C127.21 82.7401 127.65 79.6001 129.86 77.9401C132.07 76.2801 135.2 76.7201 136.86 78.9301C138.52 81.1301 138.08 84.2701 135.88 85.9301C134.98 86.6101 133.92 86.9301 132.87 86.9301C131.35 86.9301 129.86 86.2501 128.87 84.9401Z" fill="black"/>
<path d="M105.82 102.24C104.16 100.03 104.61 96.9 106.82 95.24C109.03 93.58 112.16 94.03 113.82 96.23C115.48 98.44 115.03 101.58 112.82 103.24C111.92 103.91 110.87 104.24 109.82 104.24C108.3 104.24 106.8 103.55 105.82 102.24Z" fill="black"/>
<path d="M99.12 102.54C98.81 99.79 100.78 97.31 103.52 97C106.27 96.68 108.75 98.65 109.06 101.39C109.37 104.14 107.41 106.62 104.66 106.93C104.47 106.96 104.28 106.97 104.09 106.97C101.58 106.97 99.42 105.09 99.12 102.54Z" fill="black"/>
<path d="M99.7499 103.05C96.9999 102.86 94.9099 100.47 95.0999 97.7201C95.2899 94.9701 97.6699 92.8801 100.43 93.0701C103.18 93.2601 105.26 95.6401 105.08 98.3901C104.9 101.03 102.7 103.06 100.1 103.06C99.9799 103.06 99.8699 103.06 99.7499 103.06V103.05Z" fill="black"/>
<path d="M101.76 73.48C99.0002 73.29 96.9202 70.91 97.1102 68.15C97.2902 65.4 99.6802 63.31 102.43 63.5C105.19 63.69 107.27 66.07 107.08 68.83C106.9 71.47 104.71 73.49 102.1 73.49C101.99 73.49 101.87 73.49 101.76 73.48Z" fill="black"/>
<path d="M103.83 50.13C101.08 49.89 99.0399 47.47 99.2799 44.71C99.5199 41.96 101.95 39.93 104.7 40.17C107.45 40.41 109.48 42.83 109.24 45.58C109.02 48.19 106.83 50.15 104.27 50.15C104.12 50.15 103.98 50.14 103.83 50.13Z" fill="black"/>
<path d="M98.8998 16.41C96.6898 14.75 96.2398 11.62 97.8998 9.40999C99.5498 7.19999 102.69 6.74999 104.89 8.39999C107.1 10.06 107.55 13.2 105.9 15.41C104.91 16.72 103.41 17.41 101.89 17.41C100.85 17.41 99.7998 17.08 98.8998 16.41Z" fill="black"/>
<path d="M101.1 12.6501C100.27 10.0201 101.74 7.21008 104.37 6.38008C107 5.56008 109.81 7.02008 110.64 9.65008C111.47 12.2801 110.01 15.0901 107.37 15.9201C106.87 16.0801 106.37 16.1501 105.87 16.1501C103.74 16.1501 101.77 14.7901 101.1 12.6501Z" fill="black"/>
<path d="M110.81 20.1901C108.48 18.7101 107.78 15.6201 109.25 13.2901C110.73 10.9501 113.82 10.2601 116.15 11.7301C118.49 13.2001 119.18 16.2901 117.71 18.6301C116.76 20.1301 115.14 20.9601 113.48 20.9601C112.56 20.9601 111.64 20.7101 110.81 20.1901Z" fill="black"/>
<path d="M131.04 30.8C128.47 29.78 127.22 26.88 128.24 24.31C129.26 21.74 132.17 20.49 134.73 21.51C137.3 22.53 138.55 25.43 137.53 28C136.76 29.96 134.88 31.16 132.89 31.16C132.27 31.16 131.65 31.04 131.04 30.8Z" fill="black"/>
<path d="M132.08 33.61C130.35 31.47 130.68 28.32 132.83 26.58C134.98 24.85 138.13 25.18 139.86 27.33C141.6 29.48 141.26 32.63 139.11 34.36C138.19 35.11 137.08 35.47 135.98 35.47C134.52 35.47 133.07 34.84 132.08 33.61Z" fill="black"/>
<path d="M127.58 37.16C125.86 35 126.22 31.85 128.38 30.13C130.54 28.41 133.69 28.77 135.41 30.93C137.13 33.09 136.77 36.23 134.61 37.95C133.69 38.69 132.59 39.04 131.5 39.04C130.03 39.04 128.57 38.4 127.58 37.16Z" fill="black"/>
<path d="M120.8 44.41C118.09 43.88 116.33 41.25 116.86 38.54C117.4 35.83 120.03 34.07 122.74 34.6C125.45 35.14 127.21 37.77 126.67 40.48C126.2 42.86 124.11 44.51 121.77 44.51C121.45 44.51 121.13 44.48 120.8 44.41Z" fill="black"/>
<path d="M117.08 86.08C114.32 86.01 112.14 83.71 112.21 80.95C112.28 78.19 114.58 76.01 117.34 76.09C120.1 76.16 122.28 78.46 122.21 81.22C122.13 83.93 119.91 86.08 117.21 86.08H117.08Z" fill="black"/>
<path d="M144.33 58.74C142.58 56.6 142.88 53.45 145.01 51.7C147.14 49.94 150.29 50.25 152.05 52.38C153.81 54.51 153.5 57.66 151.37 59.42C150.44 60.18 149.31 60.56 148.19 60.56C146.75 60.56 145.32 59.94 144.33 58.74Z" fill="black"/>
<path d="M145.51 46.2C143.8 44.03 144.17 40.89 146.33 39.18C148.5 37.46 151.64 37.83 153.36 40C155.07 42.16 154.7 45.31 152.54 47.02C151.62 47.75 150.52 48.1 149.44 48.1C147.96 48.1 146.5 47.45 145.51 46.2Z" fill="black"/>
<path d="M149.46 43C146.75 42.46 145 39.82 145.54 37.11C146.09 34.41 148.72 32.65 151.43 33.2C154.14 33.74 155.89 36.38 155.35 39.09C154.87 41.46 152.78 43.1 150.45 43.1C150.12 43.1 149.79 43.07 149.46 43Z" fill="black"/>
<path d="M163.85 50.2401C161.33 49.1201 160.19 46.1601 161.31 43.6401C162.44 41.1101 165.39 39.9801 167.91 41.1001C170.44 42.2201 171.57 45.1801 170.45 47.7001C169.62 49.5601 167.8 50.6701 165.88 50.6701C165.2 50.6701 164.51 50.5301 163.85 50.2401Z" fill="black"/>
<path d="M178.07 56.99C175.58 55.81 174.52 52.82 175.7 50.33C176.88 47.84 179.87 46.77 182.36 47.96C184.85 49.14 185.92 52.12 184.73 54.62C183.88 56.42 182.08 57.48 180.21 57.48C179.49 57.48 178.76 57.32 178.07 56.99Z" fill="black"/>
<path d="M131.91 183.64C129.33 182.67 128.01 179.79 128.98 177.2C129.94 174.62 132.82 173.3 135.41 174.27C138 175.23 139.31 178.11 138.35 180.7C137.59 182.71 135.69 183.95 133.66 183.95C133.08 183.95 132.49 183.85 131.91 183.64Z" fill="black"/>
<path d="M119.17 220.76C116.5 220.06 114.91 217.32 115.62 214.65C116.33 211.98 119.06 210.39 121.73 211.1C124.4 211.81 125.99 214.55 125.28 217.21C124.69 219.45 122.66 220.93 120.45 220.93C120.03 220.93 119.6 220.88 119.17 220.76Z" fill="black"/>
<path d="M109.9 217.03C109.27 214.35 110.92 211.65 113.61 211.01C116.3 210.37 118.99 212.03 119.63 214.72C120.27 217.41 118.61 220.1 115.93 220.74C115.54 220.83 115.15 220.88 114.76 220.88C112.5 220.88 110.45 219.33 109.9 217.03Z" fill="black"/>
<path d="M98.4301 202.19C95.9101 201.06 94.7801 198.11 95.9101 195.59C97.0401 193.07 99.9901 191.94 102.51 193.06C105.03 194.19 106.16 197.15 105.04 199.67C104.21 201.53 102.38 202.63 100.47 202.63C99.7901 202.63 99.0901 202.49 98.4301 202.19Z" fill="black"/>
<path d="M54.1601 186.5C51.5701 185.55 50.2401 182.68 51.1901 180.08C52.1401 177.49 55.0201 176.16 57.6101 177.11C60.2001 178.06 61.5301 180.94 60.5801 183.53C59.8401 185.55 57.9201 186.81 55.8801 186.81C55.3101 186.81 54.7301 186.71 54.1601 186.5Z" fill="black"/>
<path d="M41.0101 181.57C38.4201 180.61 37.1101 177.73 38.0801 175.14C39.0501 172.55 41.9301 171.24 44.5101 172.21C47.1001 173.18 48.4101 176.06 47.4401 178.64C46.6901 180.65 44.7901 181.89 42.7601 181.89C42.1801 181.89 41.5901 181.79 41.0101 181.57Z" fill="black"/>
<path d="M23.9999 176.07C21.3499 175.29 19.8399 172.51 20.6199 169.86C21.4099 167.21 24.1899 165.7 26.8399 166.49C29.4899 167.27 30.9999 170.05 30.2099 172.7C29.5699 174.87 27.5799 176.28 25.4199 176.28C24.9499 176.28 24.4699 176.21 23.9999 176.07Z" fill="black"/>
<path d="M1.44998 178.78C-0.49002 176.82 -0.48002 173.65 1.47998 171.71C3.43998 169.76 6.60998 169.77 8.54998 171.74C10.5 173.7 10.48 176.86 8.51998 178.81C7.54998 179.77 6.26998 180.26 4.99998 180.26C3.70998 180.26 2.42998 179.76 1.44998 178.78Z" fill="black"/>
<path d="M7.08994 166.62C4.54994 165.52 3.38994 162.57 4.48994 160.04C5.58994 157.5 8.53994 156.34 11.0699 157.44C13.5999 158.54 14.7599 161.49 13.6699 164.02C12.8499 165.9 11.0099 167.03 9.06994 167.03C8.40994 167.03 7.72994 166.9 7.08994 166.62Z" fill="black"/>
<path d="M17.0599 142.04C14.4699 141.09 13.1299 138.22 14.0699 135.63C15.0099 133.03 17.8799 131.69 20.4799 132.63C23.0699 133.58 24.4099 136.45 23.4699 139.04C22.7299 141.07 20.8099 142.34 18.7699 142.34C18.1999 142.34 17.6299 142.24 17.0599 142.04Z" fill="black"/>
<path d="M31.2201 114.9C28.6001 114.03 27.1801 111.2 28.0601 108.58C28.9301 105.96 31.7701 104.54 34.3801 105.42C37.0001 106.29 38.4201 109.13 37.5401 111.75C36.8401 113.84 34.8901 115.16 32.8001 115.16C32.2801 115.16 31.7401 115.08 31.2201 114.9Z" fill="black"/>
<path d="M53.3802 121.01C50.7002 120.35 49.0602 117.64 49.7202 114.96C50.3902 112.28 53.1002 110.64 55.7802 111.31C58.4602 111.97 60.1002 114.68 59.4302 117.37C58.8702 119.64 56.8302 121.16 54.5802 121.16C54.1802 121.16 53.7802 121.11 53.3802 121.01Z" fill="black"/>
<path d="M55.6402 122.44C53.7602 120.42 53.8802 117.26 55.9002 115.38C57.9202 113.5 61.0902 113.62 62.9702 115.64C64.8502 117.66 64.7302 120.83 62.7102 122.71C61.7402 123.6 60.5202 124.04 59.3102 124.04C57.9602 124.04 56.6202 123.51 55.6402 122.44Z" fill="black"/>
<path d="M52.6001 124.38C52.6001 121.62 54.8401 119.38 57.6001 119.38C60.3601 119.38 62.6001 121.62 62.6001 124.38C62.6001 127.14 60.3601 129.38 57.6001 129.38C54.8401 129.38 52.6001 127.14 52.6001 124.38Z" fill="black"/>
<path d="M29.3902 141.18C26.8102 140.18 25.5402 137.28 26.5402 134.7C27.5502 132.13 30.4502 130.86 33.0202 131.86C35.5902 132.86 36.8602 135.76 35.8602 138.34C35.0902 140.31 33.2002 141.52 31.2002 141.52C30.6002 141.52 29.9802 141.41 29.3902 141.18Z" fill="black"/>
<path d="M23.2899 156.96C20.7099 155.96 19.4299 153.07 20.4299 150.49C21.4299 147.92 24.3199 146.64 26.8999 147.64C29.4799 148.63 30.7499 151.53 29.7599 154.1C28.9899 156.08 27.0999 157.3 25.0899 157.3C24.4899 157.3 23.8799 157.19 23.2899 156.96Z" fill="black"/>
<path d="M45.8199 165.24C43.2299 164.29 41.8999 161.41 42.8599 158.82C43.8099 156.23 46.6799 154.9 49.2699 155.85C51.8699 156.81 53.1899 159.68 52.2399 162.27C51.4999 164.29 49.5899 165.55 47.5499 165.55C46.9799 165.55 46.3899 165.45 45.8199 165.24Z" fill="black"/>
<path d="M60.9001 142.88C60.0601 140.25 61.5101 137.44 64.1401 136.59C66.7601 135.75 69.5801 137.2 70.4201 139.83C71.2701 142.46 69.8201 145.27 67.1901 146.12C66.6801 146.28 66.1701 146.36 65.6601 146.36C63.5501 146.36 61.5801 145 60.9001 142.88Z" fill="black"/>
<path d="M77.03 147.06C74.45 146.09 73.14 143.21 74.11 140.62C75.08 138.04 77.97 136.73 80.55 137.71C83.14 138.68 84.44 141.56 83.47 144.15C82.72 146.15 80.81 147.39 78.79 147.39C78.21 147.39 77.61 147.28 77.03 147.06Z" fill="black"/>
<path d="M99.3501 155.7C96.7801 154.7 95.5001 151.81 96.4901 149.23C97.4901 146.65 100.38 145.37 102.96 146.37C105.53 147.36 106.81 150.26 105.82 152.84C105.05 154.82 103.16 156.03 101.15 156.03C100.55 156.03 99.9401 155.93 99.3501 155.7Z" fill="black"/>
<path d="M80.6798 177.82C77.9498 177.39 76.0798 174.84 76.5098 172.11C76.9398 169.38 79.4998 167.51 82.2198 167.94C84.9498 168.37 86.8198 170.93 86.3898 173.65C85.9998 176.12 83.8798 177.88 81.4598 177.88C81.1998 177.88 80.9398 177.86 80.6798 177.82Z" fill="black"/>
<path d="M112.45 188.25C109.76 187.64 108.08 184.95 108.7 182.26C109.32 179.57 112 177.89 114.69 178.5C117.38 179.12 119.06 181.8 118.45 184.5C117.91 186.81 115.85 188.38 113.58 188.38C113.21 188.38 112.83 188.34 112.45 188.25Z" fill="black"/>
<path d="M121.51 178.96C118.91 178.04 117.55 175.18 118.48 172.57C119.41 169.97 122.27 168.61 124.87 169.54C127.47 170.47 128.83 173.33 127.9 175.93C127.17 177.97 125.25 179.25 123.19 179.25C122.63 179.25 122.07 179.16 121.51 178.96Z" fill="black"/>
<path d="M119.06 152.3C118.19 149.68 119.6 146.85 122.22 145.97C124.84 145.1 127.67 146.51 128.55 149.13C129.42 151.74 128.01 154.58 125.39 155.45C124.87 155.63 124.33 155.72 123.8 155.72C121.71 155.72 119.76 154.39 119.06 152.3Z" fill="black"/>
<path d="M118.69 134.94C116.43 133.35 115.9 130.23 117.5 127.98C119.09 125.72 122.21 125.19 124.47 126.78C126.72 128.38 127.25 131.5 125.66 133.75C124.68 135.13 123.14 135.86 121.57 135.86C120.57 135.86 119.57 135.57 118.69 134.94Z" fill="black"/>
<path d="M142.55 151.59C140.29 150.01 139.73 146.89 141.31 144.63C142.89 142.36 146.01 141.8 148.27 143.38C150.53 144.96 151.09 148.08 149.51 150.34C148.54 151.74 146.98 152.48 145.4 152.48C144.42 152.48 143.42 152.19 142.55 151.59Z" fill="black"/>
</g>
</svg>
