<svg width="106" height="30" viewBox="0 0 106 30" fill="none" xmlns="http://www.w3.org/2000/svg">
<path d="M82.4601 15.27L82.3001 16.07C82.2601 16.27 82.1801 16.46 82.1201 16.66C82.0501 16.87 81.9701 17.06 81.8801 17.26L81.7301 17.58C81.6301 17.81 81.4701 18.01 81.3201 18.2L81.0101 18.6C80.8501 18.8 80.7101 18.98 80.5101 19.15C80.4201 19.22 80.3301 19.34 80.2301 19.4C80.0201 19.53 79.8401 19.68 79.6201 19.8L78.9801 20.13C78.8101 20.22 78.6001 20.24 78.4101 20.32C78.0201 20.47 77.6301 20.5 77.2301 20.54C76.9901 20.56 76.7601 20.55 76.5201 20.53L76.1801 20.5C75.9901 20.48 75.8001 20.46 75.6101 20.39C75.3001 20.27 74.9801 20.21 74.6901 20.06L74.0701 19.74C73.9601 19.68 73.8501 19.57 73.7501 19.5C72.8601 18.87 72.4101 18.19 71.9201 17.25C71.6101 16.66 71.4101 16.01 71.3101 15.34C71.2601 15.04 71.2001 14.74 71.1901 14.43L71.1701 14.09C71.1601 13.81 71.1401 13.65 71.1701 13.35L71.2301 12.71C71.3101 11.94 71.4601 11.23 71.7901 10.53L72.0701 9.93999C72.1901 9.67999 72.3801 9.44999 72.5401 9.20999C72.9201 8.61999 73.2101 8.37999 73.7801 7.96999C74.2501 7.61999 75.1701 7.15999 75.7401 7.07999C76.3201 6.98999 76.5701 6.98999 77.1401 7.01999L77.6001 7.03999C78.0001 7.05999 78.6401 7.30999 78.9801 7.48999C79.6301 7.83999 79.4301 7.64999 80.0601 8.11999C80.5701 8.49999 80.4501 8.42999 80.8501 8.86999C80.9801 9.00999 81.0801 9.14999 81.1901 9.29999C81.4101 9.58999 81.6201 9.85999 81.7701 10.2C81.8701 10.43 81.9901 10.66 82.0701 10.9C82.1401 11.13 82.2301 11.35 82.2901 11.58C82.4201 12.1 82.4901 12.6 82.5701 13.13C82.5701 13.85 82.6101 14.56 82.4701 15.26M82.2901 22.17C82.2601 22.37 82.0101 23.38 81.8301 23.54C81.6801 23.93 81.4301 24.25 81.1601 24.57L80.9601 24.81C80.6601 25.17 80.3901 25.32 80.0401 25.57C79.7501 25.77 79.4901 25.96 79.1501 26.07C78.8601 26.17 78.5901 26.29 78.2701 26.32L77.6901 26.39C76.8001 26.5 76.7901 26.45 75.9201 26.36C75.2201 26.28 74.3301 25.93 73.7701 25.52L73.3201 25.2C73.0601 25.01 72.8301 24.81 72.6201 24.55C72.0801 23.89 72.2101 23.98 71.7901 23.31C71.7401 23.24 71.4601 22.49 71.4301 22.36C71.3601 22.04 71.3201 21.75 71.2801 21.42C71.2801 21.35 71.3801 21.26 71.4401 21.25C71.6501 21.22 71.7701 21.35 71.9201 21.46C72.1601 21.66 72.5101 21.93 72.7901 22.06L73.3801 22.34C73.6301 22.46 73.9101 22.53 74.1601 22.67L74.6801 22.79L75.1101 22.9C75.3501 22.96 75.5601 22.99 75.8001 23.01L76.1901 23.05C76.5701 23.09 76.9601 23.09 77.3401 23.05L77.7301 23.01C78.0201 22.98 78.3001 22.97 78.5801 22.88C78.8601 22.78 79.1301 22.72 79.4301 22.65C79.5501 22.62 79.6901 22.53 79.8101 22.48C80.5101 22.23 81.3501 21.71 81.8501 21.16C81.9001 21.1 82.1401 21.02 82.2601 21.08C82.3101 21.11 82.3901 21.22 82.3801 21.29L82.2701 22.17H82.2901ZM85.0301 17.5C85.0901 17.23 84.9601 17.09 85.0301 16.51C85.0501 16.35 85.0201 16.17 85.0101 16.01C84.9901 15.72 85.0101 15.44 85.0101 15.16C85.0401 14.7 85.0401 14.24 85.0101 13.77C85.0101 13.6 84.9801 13.46 85.0101 13.29C85.0601 13.01 84.9701 13.1 85.0101 12.59C85.0301 12.36 85.0301 12.12 85.0101 11.9C84.9901 11.72 85.0101 11.55 85.0101 11.36V10.69C85.0101 10.49 85.0001 10.31 85.0101 10.12C85.0301 9.86999 85.0101 9.61999 85.0101 9.36999C84.9801 8.87999 85.0101 8.38999 85.0101 7.89999V5.90999C85.0201 5.56999 85.0001 5.26999 84.7001 5.04999C84.3701 4.79999 84.3001 4.80999 83.8101 4.82999L83.0301 4.85999C82.6401 4.86999 82.3501 5.45999 82.3401 5.71999V6.42999C82.3401 6.49999 82.2701 6.60999 82.2101 6.61999C82.0201 6.65999 81.7501 6.42999 81.6701 6.32999C81.4101 5.98999 80.6601 5.58999 80.3901 5.41999L80.1701 5.27999C80.0601 5.20999 79.1501 4.87999 78.9801 4.81999C78.3301 4.58999 77.7701 4.53999 77.0901 4.49999C76.3801 4.45999 75.2901 4.52999 74.6201 4.73999L74.1601 4.87999C73.8101 4.98999 73.3801 5.17999 73.0601 5.35999L72.7901 5.50999C71.7601 6.06999 70.7201 7.09999 70.0801 8.07999C69.8601 8.41999 69.5601 8.91999 69.4301 9.27999C69.3701 9.43999 69.2701 9.56999 69.2101 9.72999L68.9601 10.39C68.8601 10.65 68.8101 10.91 68.7501 11.19L68.5801 12.03C68.5001 12.42 68.5401 12.82 68.4801 13.2L68.4501 13.37C68.3901 13.73 68.4501 14.1 68.4601 14.46L68.4901 15.06C68.5101 15.39 68.5901 15.7 68.6501 16.03L68.7601 16.63C68.8201 16.97 68.9401 17.28 69.0701 17.6L69.3801 18.33C69.4901 18.6 69.7401 19.09 69.9001 19.32C70.0001 19.47 70.1501 19.58 70.1801 19.77C70.2001 19.87 70.1801 20.05 70.0601 20.08C69.8601 20.13 69.6701 20.08 69.4701 20.08C69.2501 20.08 68.9801 20.19 68.8301 20.37C68.7401 20.48 68.5901 20.68 68.5801 20.81C68.5101 21.66 68.6301 22.26 68.7701 23.09C68.8201 23.35 68.9301 23.59 69.0101 23.84C69.2301 24.54 69.6701 25.32 70.1101 25.92C70.3801 26.29 70.5601 26.52 70.9101 26.83L71.3601 27.22C71.5001 27.34 71.6501 27.44 71.8001 27.55C72.3101 27.91 72.7701 28.16 73.3401 28.43C74.0101 28.74 73.8201 28.6 74.3901 28.78C74.9001 28.95 75.4201 28.99 75.9501 29.06L76.5301 29.14C76.7801 29.17 77.4901 29.14 77.7601 29.1L78.8501 28.96C79.0401 28.93 79.3901 28.8 79.5001 28.77C80.0801 28.66 80.5901 28.42 81.0901 28.12L81.6701 27.77L82.0701 27.5C82.2001 27.41 82.3101 27.32 82.4201 27.21L82.8001 26.85C82.9201 26.74 83.0401 26.62 83.1401 26.49L83.5401 25.95C83.6901 25.75 84.1201 25.05 84.2001 24.85L84.5201 24.06L84.6901 23.39C84.7901 23.02 84.8401 22.69 84.8901 22.31L84.9701 21.69V18.16C84.9701 17.96 84.9201 17.78 84.9701 17.58" fill="#90BEFB"/>
<path d="M105.57 23.0699C105.44 23.2099 105.28 23.3999 105.07 23.3999H103.99C103.86 23.3999 103.65 23.3699 103.56 23.2799L103.24 22.9699C103.12 22.6499 103.13 22.3599 103.13 22.0199V11.6399C103.09 11.5099 103.05 11.3799 103.03 11.2599C102.88 10.3399 102.86 10.1399 102.47 9.27995C102.31 8.92995 102.11 8.63995 101.84 8.35995C101.35 7.83995 101.06 7.59995 100.42 7.29995C100.07 7.13995 99.6999 7.03995 99.3099 6.99995L98.6199 6.92995C98.4799 6.90995 98.3399 6.90995 98.2099 6.92995L97.8199 6.98995L97.3099 7.05995C96.8399 7.12995 96.5799 7.24995 96.1499 7.47995L95.5999 7.76995C95.3899 7.87995 95.1799 8.05995 94.9899 8.21995C94.7899 8.37995 94.6199 8.56995 94.4599 8.74995L94.1099 9.13995C94.0199 9.23995 93.6699 9.77995 93.5899 9.91995C93.4799 10.1299 93.3699 10.3299 93.2799 10.5499L93.0199 11.1999C92.7999 11.7599 92.4999 13.2299 92.4899 13.8499L92.4699 15.1099C92.4699 15.2099 92.4299 15.3399 92.4499 15.4399C92.4999 15.5999 92.4499 15.7299 92.4499 15.8899V18.1599V18.6399L92.4299 22.6399C92.4299 22.8899 91.9899 23.4099 91.6699 23.4099H90.7299C90.4499 23.4199 90.1899 23.3099 90.0299 23.0799C89.9499 22.9599 89.7999 22.8199 89.7999 22.6399V6.40995C89.7999 6.29995 89.7799 6.21995 89.7999 6.12995C89.8499 5.58995 89.6699 5.52995 90.0999 5.03995C90.2399 4.86995 90.4699 4.82995 90.6799 4.77995C90.7899 4.74995 90.8999 4.77995 91.0199 4.77995L91.6899 4.79995C91.8499 4.79995 92.0199 4.93995 92.1499 5.03995C92.4099 5.22995 92.4799 5.54995 92.4699 5.85995C92.4699 6.02995 92.4799 6.19995 92.4899 6.35995C92.4899 6.62995 92.2799 7.19995 92.6699 7.16995C92.9399 7.14995 93.0599 6.93995 93.1999 6.74995C93.3499 6.53995 93.5699 6.37995 93.7499 6.19995C93.9899 5.97995 94.2599 5.81995 94.5299 5.63995C95.1699 5.20995 95.8699 4.92995 96.6099 4.69995C96.8199 4.63995 96.9999 4.59995 97.2199 4.56995L97.8599 4.48995L98.3299 4.45995C98.5799 4.43995 98.8399 4.43995 99.0999 4.45995L99.4699 4.48995C99.8099 4.51995 100.15 4.51995 100.47 4.62995L101.19 4.86995C101.36 4.92995 101.51 4.95995 101.66 5.03995C102.55 5.47995 102.84 5.63995 103.57 6.30995C104.31 6.98995 105.01 8.13995 105.3 9.09995L105.53 9.85995L105.79 11.1699V21.6199C105.79 21.7199 105.83 21.7999 105.81 21.8799C105.73 22.2999 106.01 22.5999 105.59 23.0699" fill="#90BEFB"/>
<path d="M36.3401 12.5301H27.6001C27.4601 12.5901 27.3701 12.5301 27.2601 12.5301H25.4901C25.4001 12.5301 25.2701 12.5001 25.2001 12.4601C25.0701 12.1801 25.1201 11.9101 25.2401 11.6401C25.3001 11.5201 25.3301 11.3601 25.3601 11.2201C25.4101 11.0201 25.5201 10.8401 25.5801 10.6401C25.7501 10.1301 26.0301 9.69005 26.3301 9.25005C26.4901 9.01005 26.6801 8.80005 26.8801 8.59005C27.4501 7.99005 28.1001 7.62005 28.8401 7.27005C29.1801 7.11005 29.5501 7.04005 29.9201 6.97005C30.3401 6.89005 30.9301 6.81005 31.3501 6.85005L31.6901 6.88005C31.8601 6.90005 32.0301 6.95005 32.2001 6.98005C32.6901 7.07005 33.1501 7.19005 33.5801 7.45005C33.8201 7.60005 34.0501 7.73005 34.2801 7.89005C34.7901 8.26005 35.2501 8.69005 35.5701 9.23005C35.8501 9.70005 36.1001 10.1001 36.2901 10.6201C36.3401 10.7701 36.3801 10.9001 36.4401 11.0401C36.5801 11.3601 36.6901 11.8501 36.7301 12.2101C36.7601 12.4001 36.5101 12.5101 36.3401 12.5101M39.5001 13.4301L39.4801 12.8001L39.4501 12.4201C39.4501 12.3101 39.4101 12.1801 39.3801 12.0601L39.1601 10.9401C39.1001 10.6301 38.9801 10.3501 38.8701 10.0601C38.7901 9.85005 38.7101 9.65005 38.6101 9.44005L38.3101 8.83005C38.2201 8.65005 38.1301 8.48005 38.0201 8.31005L37.8001 7.96005C37.7101 7.81005 37.6101 7.68005 37.5101 7.55005C36.7701 6.63005 35.8001 5.75005 34.7301 5.28005L34.0501 4.98005C33.8501 4.89005 33.6301 4.84005 33.4101 4.78005C32.9301 4.63005 32.4801 4.53005 31.9801 4.51005L31.4101 4.48005C31.1701 4.47005 30.9301 4.46005 30.6901 4.48005L30.2201 4.52005L29.8501 4.55005C29.6001 4.57005 29.3401 4.60005 29.1101 4.67005L28.0501 4.98005C27.9201 5.02005 27.7801 5.10005 27.6401 5.13005C27.4301 5.18005 27.2701 5.28005 27.0801 5.38005C26.7801 5.53005 26.5001 5.69005 26.2201 5.89005C25.9701 6.07005 25.7101 6.22005 25.4901 6.43005C25.2001 6.70005 24.9101 6.96005 24.6501 7.26005C24.4901 7.44005 24.3701 7.65005 24.2001 7.82005C24.0601 7.96005 23.9701 8.10005 23.8701 8.26005L23.5401 8.80005C23.4501 8.94005 23.4001 9.08005 23.3301 9.23005L23.0601 9.82005C23.0601 9.82005 22.7701 10.6301 22.7701 10.6401L22.6201 11.1701C22.5501 11.4301 22.4901 11.6701 22.4501 11.9401L22.2901 13.0101L22.2601 13.4801C22.2301 13.9301 22.2401 14.3701 22.2601 14.8201L22.2901 15.3201C22.3101 15.5801 22.3801 15.8301 22.4101 16.0901L22.4901 16.6601L22.7001 17.4401C22.8601 18.0401 23.0101 18.4001 23.2601 18.9601C23.3601 19.1801 23.4601 19.3901 23.5901 19.6001L23.7801 19.9101C24.3501 20.8201 25.3301 21.8701 26.2601 22.4201C26.5901 22.6201 26.9001 22.8501 27.2601 22.9901L27.6201 23.1301C27.8401 23.2201 28.0401 23.3101 28.2601 23.3601L29.3801 23.6301C29.5701 23.6801 29.8001 23.7001 30.0101 23.7101H31.7601L32.9001 23.4901C33.3401 23.4001 33.7201 23.2901 34.1201 23.1001C34.7101 22.8101 35.3101 22.5401 35.8301 22.1201L36.2101 21.8001L36.6601 21.4101C36.7501 21.3301 36.8401 21.2001 36.9301 21.1101C37.1201 20.9001 37.3001 20.7101 37.4601 20.4701L37.7101 20.0801C37.8801 19.8201 38.0201 19.5701 38.1701 19.3001L38.4401 18.7801L38.7701 17.9701C38.8201 17.8401 38.8501 17.6701 38.9001 17.5301C39.0201 17.2001 39.0901 16.8901 39.1501 16.5301C39.2101 16.1601 39.0301 15.7601 38.6701 15.6001C38.1101 15.3501 38.0501 15.5601 37.6001 15.4701C37.3301 15.4201 36.8701 15.6101 36.7101 15.8101C36.5501 16.0001 36.4901 16.1901 36.4501 16.4301C36.4401 16.5001 36.1801 17.2801 36.1401 17.3601L35.8801 17.9401C35.7401 18.2501 35.5501 18.5401 35.3701 18.8301C35.0001 19.3901 34.1101 20.2401 33.5501 20.5901C32.9401 20.9701 32.2901 21.1801 31.5801 21.2701C31.2601 21.3101 30.9701 21.3901 30.6501 21.3501L29.5701 21.1901C29.2501 21.1401 28.9801 21.0401 28.6801 20.9001C28.0701 20.6301 27.7101 20.4001 27.2101 19.9501C26.9001 19.6701 26.4301 19.2101 26.2201 18.8601L25.6501 17.9001C25.6001 17.6401 25.4901 17.4301 25.3801 17.2001C25.2801 16.9801 25.2501 16.7301 25.1701 16.5001C25.1401 16.3901 25.1001 16.3001 25.0801 16.1901L24.9801 15.7801C24.9401 15.6101 24.9101 15.4001 24.9601 15.2201C24.9801 15.1501 25.1201 15.0301 25.2101 15.0301H35.8101C35.9501 15.0301 36.0601 14.9901 36.2001 15.0101C36.4401 15.0501 36.6801 15.0201 36.9201 15.0101L37.3301 14.9801C38.1701 14.9201 38.8601 15.2201 39.2801 14.6501C39.4201 14.4701 39.4901 14.2701 39.4701 14.0301L39.4401 13.4601L39.5001 13.4301Z" fill="#90BEFB"/>
<path d="M58.2204 18.18L58.1903 18.55C58.1703 18.75 58.1604 18.96 58.0904 19.16L57.8604 19.81C57.7504 20.13 57.5504 20.43 57.3704 20.72C57.0804 21.18 56.4404 21.86 55.9904 22.16C55.7404 22.33 55.5004 22.49 55.2204 22.63C54.6904 22.9 54.1404 23.14 53.5604 23.3C53.1604 23.41 52.7604 23.47 52.3504 23.53L51.6404 23.63C51.3204 23.68 50.6404 23.67 50.3004 23.65L49.9203 23.63C49.7603 23.62 49.6104 23.59 49.4504 23.56L48.5504 23.42L47.9104 23.3C47.5504 23.23 46.4604 22.77 46.0904 22.57L45.7704 22.39C45.5404 22.26 45.3104 22.14 45.1004 21.99C44.5504 21.58 44.1104 21.18 43.6804 20.64C43.6804 20.64 43.1104 19.83 43.0804 19.8L42.7603 19.2L42.5604 18.7C42.4404 18.4 42.3804 18.09 42.2704 17.78C42.1604 17.44 42.1104 17.13 42.0704 16.77L42.0204 16.34L42.0004 15.96C41.9804 15.68 41.9804 15.41 42.0004 15.13C42.0004 14.92 42.1704 14.76 42.3004 14.63C42.5104 14.42 42.7704 14.32 43.0704 14.36L43.4304 14.4C43.8604 14.27 44.2204 14.43 44.4804 14.76C44.7604 15.12 44.6504 15.28 44.6904 15.88C44.7104 16.32 44.7704 16.75 44.9004 17.18C45.0404 17.65 45.1704 18.09 45.4304 18.53C45.6304 18.87 45.8504 19.16 46.1204 19.44C46.2404 19.57 46.3504 19.72 46.5004 19.82C46.8004 20.01 46.7504 20.03 47.0804 20.26C47.4404 20.51 48.0604 20.8 48.5004 20.92C49.3904 21.17 49.0804 21.04 49.9004 21.19C50.1604 21.24 50.4104 21.21 50.6504 21.21C50.9404 21.21 51.2204 21.23 51.5004 21.19L52.2404 21.09C52.4604 21.06 52.6604 21.01 52.8604 20.93C53.0304 20.86 53.2004 20.82 53.3904 20.78C53.5604 20.74 53.7004 20.6 53.8604 20.52C54.0804 20.41 54.2604 20.29 54.4404 20.13C54.5904 19.99 54.7804 19.86 54.9004 19.69L55.2304 19.25C55.3204 19.14 55.3404 18.95 55.4004 18.83C55.5904 18.45 55.6204 18.08 55.5604 17.67C55.5404 17.53 55.5404 17.4 55.4804 17.28L55.3704 17.05C55.2904 16.89 55.1804 16.78 55.0704 16.65C54.9004 16.47 54.7504 16.35 54.5404 16.23C54.3004 16.1 54.0804 15.99 53.8204 15.9C53.5804 15.82 53.3504 15.72 53.0904 15.66L52.3404 15.48L51.0604 15.24C50.7504 15.18 50.4804 15.1 50.1704 15.08C49.9704 15.07 49.7704 15.02 49.5704 14.98L48.4104 14.76L47.8004 14.64L47.3204 14.49C46.7204 14.31 46.1104 14.17 45.5103 13.86C44.9103 13.67 44.0304 13.03 43.6204 12.56C43.2104 12.1 43.1004 11.89 42.8504 11.32C42.7004 10.98 42.6704 10.6 42.6204 10.23C42.6004 10.03 42.6104 9.85002 42.6204 9.66002L42.6404 9.30002C42.6704 8.78002 42.8404 8.31002 43.0604 7.84002C43.3104 7.29002 43.7904 6.72002 44.2304 6.30002C44.4704 6.06002 44.7404 5.87002 45.0204 5.68002C45.2004 5.56002 45.3804 5.48002 45.5804 5.39002C45.7304 5.32002 45.8804 5.22002 46.0404 5.16002L46.6104 4.93002C46.7304 4.88002 46.8804 4.86002 47.0004 4.82002L47.5904 4.64002C47.7204 4.60002 47.8904 4.59002 48.0304 4.57002C48.3404 4.52002 48.6304 4.49002 48.9304 4.47002L49.3404 4.44002C49.5604 4.43002 49.7804 4.39002 49.9904 4.44002C50.1404 4.47002 50.2904 4.44002 50.4404 4.44002C50.5704 4.44002 50.7104 4.46002 50.8404 4.47002L51.2104 4.50002C51.9104 4.56002 52.0704 4.63002 52.6704 4.80002L53.2004 4.95002L53.6504 5.14002C54.5404 5.51002 55.3304 6.00002 55.9804 6.72002L56.2504 7.02002C56.3504 7.13002 56.4704 7.26002 56.5504 7.39002L56.8904 7.93002C57.3304 8.64002 57.1404 8.46002 57.3604 8.94002C57.4604 9.18002 57.5104 9.42002 57.5704 9.67002L57.6704 10.1C57.7204 10.31 57.7504 10.51 57.7604 10.72L57.7804 11.09L57.8004 11.47C57.8104 11.7 57.7404 11.96 57.5904 12.15C57.4404 12.33 57.1904 12.51 56.9404 12.53C56.6204 12.55 56.3204 12.55 56.0004 12.53C55.7804 12.52 55.5104 12.37 55.3704 12.21C55.1504 11.97 55.0804 11.67 55.1004 11.36C55.1104 11.09 55.0704 10.83 55.0304 10.56C54.9804 10.19 54.8904 9.86002 54.7304 9.51002C54.5504 9.13002 54.3804 8.74002 54.0904 8.44002C53.8704 8.20002 53.6404 7.96002 53.3704 7.79002L52.9004 7.48002C52.7304 7.37002 52.5204 7.22002 52.3204 7.17002L51.4804 6.95002C51.3004 6.90002 51.0904 6.85002 50.9004 6.84002L50.3904 6.81002C49.8204 6.78002 48.9304 6.79002 48.4004 6.95002C48.1104 7.04002 47.7703 7.06002 47.5103 7.20002L46.9404 7.50002C46.3804 7.79002 46.2804 7.91002 45.8804 8.34002C45.6904 8.54002 45.5804 8.76002 45.4604 9.00002C45.2204 9.46002 45.1504 9.98002 45.3704 10.46C45.6504 11.06 46.2204 11.37 46.8104 11.61C47.2204 11.77 47.6204 11.9 48.0404 12.02C48.2104 12.07 48.3904 12.12 48.5604 12.16L49.5404 12.36C49.8804 12.43 50.2104 12.47 50.5504 12.52L51.1904 12.62L52.1804 12.8C52.4504 12.85 52.7204 12.89 52.9804 12.97C53.1504 13.02 53.3004 13.07 53.4704 13.11C53.6904 13.16 53.9304 13.17 54.1404 13.25L54.7304 13.47C55.3604 13.7 56.0704 13.96 56.5904 14.42L57.1004 14.88C57.5604 15.29 57.8003 15.85 58.0103 16.41C58.1703 16.84 58.2303 17.72 58.1903 18.18" fill="#90BEFB"/>
<path d="M64.5104 0.82V3.51C64.5104 3.46 64.3704 3.94 64.1804 4.05C64.0004 4.15 63.8104 4.28 63.6104 4.28H62.6404C62.4004 4.28 61.7304 3.83 61.8504 3.15C61.9004 2.85 61.8104 2.5 61.8504 1.95C61.8704 1.64 61.8004 1.22 61.8504 0.85C61.9204 0.33 62.4004 0.07 62.8704 0H63.0404C63.4404 0.12 63.5204 -0.1 64.0004 0.17C64.3104 0.35 64.3504 0.47 64.5104 0.81" fill="#90BEFB"/>
<path d="M63.7005 23.43C63.3605 23.44 63.0505 23.45 62.6905 23.43C62.2905 23.41 61.8805 23.05 61.8405 22.64C61.8005 22.3 61.8205 21.97 61.8405 21.64C61.8405 21.5 61.8305 21.38 61.8305 21.23V5.64C61.8305 5.38 62.0505 5.14 62.2305 5C62.3705 4.88 62.6005 4.85 62.7905 4.85C63.0505 4.85 63.2805 4.85 63.5505 4.85C63.7705 4.84 64.0605 4.93 64.2305 5.09C64.3505 5.2 64.5105 5.45 64.5105 5.64V22.28C64.6605 22.72 64.1305 23.42 63.7005 23.43Z" fill="#90BEFB"/>
<path d="M16.54 12.36L16.52 12.83C16.5 13.26 16.4 13.68 16.33 14.1C16.29 14.37 16.21 14.61 16.13 14.89L15.91 15.63C15.86 15.78 15.77 15.92 15.73 16.08C15.68 16.26 15.58 16.4 15.5 16.56L15.33 16.89C15.29 16.97 14.77 17.78 14.68 17.88C14.23 18.46 13.71 18.94 13.15 19.39C13.02 19.49 12.58 19.75 12.42 19.83L11.8 20.15C11.25 20.44 10.99 20.5 10.41 20.67L10.07 20.77C9.84 20.84 9.59 20.86 9.35 20.89L8.58 20.99C8.49 21 8.37 21.03 8.27 21.03H3.39C3.26 21.03 3.01 21.09 2.85 20.95C2.79 20.9 2.72 20.77 2.72 20.64V4.11001V3.85001C2.73 3.47001 2.71 3.11001 2.72 2.72001C2.72 2.59001 2.89 2.48001 3.02 2.48001H8.27C8.43 2.48001 8.59 2.51001 8.74 2.52001L9.1 2.55001C9.51 2.59001 9.89 2.68001 10.29 2.79001C10.4 2.82001 10.55 2.82001 10.66 2.86001L11.34 3.09001C11.83 3.26001 11.63 3.22001 12.11 3.43001C12.41 3.57001 12.68 3.77001 12.96 3.94001C13.09 4.02001 13.2 4.10001 13.31 4.19001L13.85 4.66001C14.19 4.95001 14.5 5.27001 14.75 5.63001L15.05 6.07001L15.26 6.40001L15.51 6.86001C16.34 8.39001 16.64 10.6 16.54 12.34M19.24 11.32L19.21 10.72C19.18 10.13 19.18 9.69001 19.05 9.08001C19 8.85001 18.95 8.63001 18.91 8.39001C18.89 8.25001 18.86 8.10001 18.82 7.97001L18.62 7.33001C18.44 6.77001 18.25 6.20001 17.95 5.69001L17.59 5.08001L17.27 4.56001C17.18 4.41001 16.49 3.52001 16.36 3.40001L16.06 3.13001C15.82 2.92001 15.62 2.71001 15.37 2.51001L14.71 2.00001C14.55 1.87001 14.01 1.58001 13.8 1.47001L13.39 1.25001C13.09 1.09001 12.79 0.960015 12.47 0.850015L11.89 0.650015C11.52 0.530015 11.15 0.450015 10.78 0.350015C10.6 0.300015 10.43 0.260015 10.25 0.240015L9.39 0.140015L8.94 0.0900146L8.6 0.0600147L8.07 0.0400146C7.89 0.0400146 7.72 1.46478e-05 7.55 0.0400146C7.47 0.0500146 7.38 0.0300146 7.29 0.0300146H3.09C2.94 0.0300146 2.82 0.0800146 2.67 0.0300146C2.6 0.0100146 2.5 0.0200146 2.42 0.0300146C2.28 0.0600146 2.15 0.0300146 2.01 0.0300146C1.62 0.0100146 1.24 0.0100146 0.85 0.0300146C0.69 0.0300146 0.55 0.120015 0.42 0.210015C0.16 0.410015 0.02 0.700015 0 1.01001V1.51001L0.03 1.56001V21.88L0 21.93V22.53C0 22.53 0.02 22.7 0.04 22.76C0.2 23.15 0.47 23.43 0.94 23.43H7.85L8.83 23.38L9.26 23.35C9.53 23.33 9.79 23.27 10.06 23.22L10.6 23.12C11.01 23.05 11.39 22.93 11.78 22.8C11.96 22.74 12.16 22.7 12.32 22.63C12.52 22.54 12.7 22.47 12.91 22.41C13.03 22.38 13.14 22.31 13.25 22.25L13.87 21.93C14.47 21.62 14.86 21.35 15.37 20.92C15.87 20.5 16.36 20.07 16.75 19.56L17.15 19.04C17.24 18.92 17.32 18.77 17.4 18.64L17.79 18.02C17.86 17.9 17.93 17.78 17.99 17.66L18.18 17.25L18.32 16.92C18.47 16.58 18.55 16.24 18.67 15.89L18.83 15.45L18.99 14.57C19.05 14.27 19.13 13.98 19.15 13.67L19.18 13.17L19.21 12.6L19.23 12C19.23 11.76 19.24 11.54 19.23 11.3" fill="#90BEFB"/>
</svg>
