<svg width="122" height="156" viewBox="0 0 122 156" fill="none" xmlns="http://www.w3.org/2000/svg">
<g clip-path="url(#clip0_2553_3354)">
<mask id="mask0_2553_3354" style="mask-type:luminance" maskUnits="userSpaceOnUse" x="0" y="0" width="122" height="156">
<path d="M121.03 0H0V155.88H121.03V0Z" fill="white"/>
</mask>
<g mask="url(#mask0_2553_3354)">
<path d="M92.0404 90.88C91.1204 92.62 90.4504 94.45 89.8904 96.38C89.4704 97.82 88.2904 99.05 87.8104 100.4C87.0204 102.54 86.0504 104.26 84.9404 106.18C83.9504 107.89 83.6104 109.8 82.1304 111.33C81.4904 111.99 81.1404 113.29 80.5904 114.02C79.6904 115.19 78.9904 116.22 78.2404 117.47C77.6504 118.43 76.6504 119.23 75.8904 120.1C74.8204 121.33 73.6604 122.34 72.3404 123.27L69.5404 125.23L66.4404 127.42C65.4304 128.14 59.5804 129.01 57.9804 129.14C56.6204 129.25 55.0704 128.59 53.7104 128.54C51.8504 128.47 50.1304 128.16 48.6804 127.05L44.2204 123.64C41.9004 121.86 38.3004 118.51 37.7204 115.54C36.0804 114.23 35.6904 112.26 34.9004 110.46C33.5904 107.51 32.7604 104.69 32.2704 101.47C31.6404 97.31 30.3904 91.56 30.8304 87.26C31.1904 83.69 31.3404 80.05 32.7004 76.65C33.5104 74.62 34.7704 72.52 36.4404 71.15C37.5004 70.27 39.0304 69.75 40.2204 69.23C42.0304 68.44 43.7504 68.78 45.4104 69.58C46.6404 70.17 48.0904 70.6 49.1904 71.31C50.3904 72.09 51.3804 72.96 52.6504 73.61C53.8704 74.22 54.7404 75.37 55.8304 76.12L59.6604 78.76L63.7804 81.59C64.8404 82.33 66.0304 82.72 67.1904 83.21C70.0504 84.45 72.7604 85.24 75.9504 85C77.3404 84.89 79.0004 85.12 80.3004 84.56C81.3004 84.12 84.8504 82.3 85.3904 81.79L89.5404 77.78C89.8004 77.53 90.5204 77.29 90.8504 77.29C91.2204 77.29 91.8404 78.03 91.8504 78.46L92.0104 84.06C92.1204 87.67 93.3804 88.39 92.0704 90.86M120.55 141.67L119.92 135.7L119.67 132.8L118.5 122.31L118.32 120.12L117.84 115.57L117.58 112.98L117.32 109.63L117.11 107.45L116.96 103.68L116.77 101.25L116.23 96.13C115.84 92.52 115.4 89.06 114.7 85.46C114.39 83.88 114.33 82.3 114.15 80.7L113.22 72.37C113.11 71.39 113.13 70.44 112.99 69.47C112.61 66.66 112.02 63.96 111.8 61.13L111.56 58.02L111.36 55.36L111.18 51.81L111.12 50.15L110.63 45.15C110.1 39.7 108.84 37.03 108.53 32.81C108.36 30.64 107.68 28.72 107.07 26.63L106.04 23.11C104.74 18.67 105.6 19.34 103.44 14.23C102.6 12.24 101.7 10.35 100.58 8.48998C99.7204 7.06998 98.6204 6.03998 97.3904 4.93998C91.7904 -0.100018 92.2104 0.679982 85.7504 0.0499822C84.6404 -0.0600178 83.6904 0.0299822 82.5804 0.0499822L75.2004 0.199982C74.5204 0.219982 73.7304 0.289982 73.0404 0.409982L63.2504 2.02998L60.1004 2.28998L52.4704 3.23998C49.1304 3.64998 45.8904 3.87998 42.6304 4.41998C40.3804 4.79998 38.2404 5.18998 35.9504 5.39998C32.1604 5.74998 28.6304 6.65998 24.9404 7.49998C20.4304 8.53998 18.9204 8.05998 14.5704 10.05L10.7604 11.81C9.58037 12.35 8.68037 13.57 7.65037 14.38C6.07037 15.65 3.34037 18.65 2.41037 20.42C0.92037 23.25 -0.46963 27.54 0.15037 30.72C0.64037 33.18 1.46037 35.57 2.68037 37.74C3.71037 39.56 5.43037 40.92 6.90037 42.36C8.39037 43.8 9.98037 44.58 11.8804 45.31C14.6204 46.36 17.1904 46.9 20.1804 46.84C20.8304 46.82 21.7104 47 22.3704 46.9C23.7304 46.7 24.8704 46.41 26.1604 46.07C29.0904 45.3 32.0104 44.65 35.0004 44.18C37.6404 43.76 40.0004 43.11 42.5804 42.45C46.1604 41.52 49.7004 41.07 53.1904 39.84C55.7104 38.94 58.3304 38.85 60.9504 38.23L67.5304 36.67C69.7504 36.14 72.2904 36.63 73.2404 38.92C73.4704 39.48 73.7204 40.63 73.7704 41.23L72.0204 51.03C71.2304 52.92 71.0204 55.05 71.9404 56.95C72.3404 57.79 73.8004 60.24 72.5804 60.77C71.4204 61.27 69.8404 59.44 69.1104 58.59C66.6504 55.66 62.5704 53.45 59.2804 51.63C57.3704 50.57 55.6204 49.31 53.4904 48.6C50.6804 46.31 44.5304 46.36 41.0304 46.6L38.6004 46.77C35.9404 46.95 33.5904 47.91 31.1504 48.84C27.2704 50.33 24.0504 52.42 20.9904 55.22C19.0004 57.04 17.5804 59.29 16.0904 61.55C13.8204 65 14.4404 65.91 13.5904 69.96L11.9804 77.7C10.8904 82.9 10.7204 88.49 10.9604 93.85C11.0304 95.2 11.0304 96.59 11.2104 97.91L11.9904 103.58C12.8004 109.53 16.0304 122.22 18.9404 127.33C20.4804 130.02 22.1704 132.67 24.2804 134.93L25.9104 136.66L31.1504 141.94C31.3404 142.14 35.2904 144.81 36.3304 145.59C37.5704 146.51 39.2704 146.83 40.6004 147.55C45.2504 150.11 44.5804 149.18 49.9004 150.68C53.8104 151.79 58.1104 152.17 62.0804 151.28L66.8204 150.21C70.3704 149.41 74.0504 148.42 77.1404 146.44L82.3804 143.09C83.3504 142.47 87.0204 139.24 88.0404 138.25L89.8504 136.51C90.6104 135.77 91.2404 134.98 91.8604 134.16L96.0404 128.57C96.2904 128.24 97.1404 127.92 97.4904 128.03C97.8304 128.15 98.3604 128.85 98.3604 129.23L98.4604 137.08L99.1004 142.83C99.3004 144.55 98.9304 146.38 99.8004 147.88C100.84 149.69 101.73 151.64 103.15 153.11C104.78 154.81 107.1 155.7 109.42 155.85C110.23 155.91 111.29 155.49 112.11 155.36L115.43 154.85C116.12 154.74 116.47 154.47 117.04 154.03C119.25 152.3 121.28 149.96 121.01 146.91L120.56 141.64L120.55 141.67Z" fill="#90BEFB"/>
</g>
</g>
<defs>
<clipPath id="clip0_2553_3354">
<rect width="121.03" height="155.88" fill="white"/>
</clipPath>
</defs>
</svg>
