<svg width="385" height="212" viewBox="0 0 385 212" fill="none" xmlns="http://www.w3.org/2000/svg">
<path d="M373.07 5.44417L376.02 14.7942L371.7 21.3942C358.24 26.9342 358.42 7.79417 351.8 10.8042C350.6 11.3042 348.67 13.5742 348.26 14.8142L341 37.4842L366.51 84.2342C370.21 91.0742 372.97 99.4342 379.98 103.324C381.71 104.314 384.57 106.374 384.86 107.884C385.15 109.394 381.25 110.684 379.56 110.784L350.63 112.764C349.66 112.824 346.03 112.424 346.29 111.484C349.91 96.9842 366.78 116.534 334.25 57.4742L322.51 96.3942C319.47 106.284 330.18 106.474 331.64 111.674C331.92 112.754 329.25 114.644 327.99 114.734L300.97 117.284C299.76 117.354 297.12 116.404 296.95 115.284C296.07 110.334 305.93 109.194 309.53 98.5742L333.22 28.2542C336.58 18.3942 338.76 7.36417 349.1 1.88417C357.08 -2.29583 366.18 1.18417 373.07 5.47417" fill="#90BEFB"/>
<path d="M203.88 94.6142L188.85 86.1842L175.81 78.7842C179.88 71.9642 186.83 69.2142 194.71 70.7942C199.63 71.7642 204.18 75.0742 206.17 79.8042C207.94 83.8642 206.87 90.2342 203.88 94.6242M198.45 60.8142C173.77 51.8542 145.27 77.8242 144.93 106.804C144.78 120.584 153.42 130.604 164.9 136.154C178.79 142.924 186.16 139.544 200.06 132.274C201.91 131.324 204.02 128.624 204.1 126.934C204.24 125.224 200.82 121.014 199.26 122.124C187.88 129.964 168.52 127.324 163.86 112.544C160.91 103.194 165.8 92.7242 170.74 87.1042L194.86 100.554L208.03 109.144C209.19 109.884 213.21 111.324 213.9 110.184C218.96 101.814 223.02 92.8442 220.13 82.1142C217.41 72.1342 208.81 64.5642 198.45 60.8142Z" fill="#90BEFB"/>
<path d="M284.53 114.744C286.03 119.314 284.11 124.544 279.94 128.314C278.08 130.014 273.36 130.084 270.89 129.074C263.18 125.904 266.91 114.694 259.31 114.814C256.6 114.814 253.29 117.394 251.74 119.914L232.8 150.444C223.74 165.054 242.64 168.764 235.16 175.494C220.48 168.974 219.46 164.744 203.98 157.434C202.17 156.584 198.67 151.534 200.52 150.954L211.96 148.764C219.04 144.864 222.24 137.644 225.71 131.064C229.64 123.424 238.56 116.554 236.8 107.074L234.31 93.5142L253.21 97.2242C255.17 97.5942 260.3 97.2642 260.07 98.8742L259.03 106.894C268.21 103.204 281.59 105.634 284.53 114.734" fill="#90BEFB"/>
<path d="M175.22 47.4441C172.18 54.9941 166.63 50.6441 162.6 52.7141C149.92 59.1741 139.11 68.4341 127.87 76.9041L104.82 94.2041C103.18 95.4641 100.64 96.7541 99.09 96.9341C97.84 97.0841 94.99 94.4741 95.09 93.0241L97.09 63.4541C98.19 47.4141 100.92 32.6341 99.71 16.7041C99.51 14.1241 94.9 10.0341 96.89 7.37415L100.86 6.12415L108.47 10.9241C114.79 14.9641 120.7 18.2741 127.88 21.1241C129.41 21.6841 132.09 24.5341 130.97 25.4441L126.49 29.0141C121.76 27.3041 117.59 30.2841 116.76 34.4841C114.19 48.4041 112.59 61.4741 112.2 76.0541L143.18 50.5241C146.6 47.7141 146.88 41.1741 144.42 38.0641L145.43 33.0641C146.26 28.8641 158.36 39.5141 160.87 40.6341L175.21 47.4441H175.22Z" fill="#90BEFB"/>
<path d="M140.41 142.454L132.57 162.104L116.91 205.394L115.45 210.904C115.11 212.184 110.15 212.454 109.77 210.854C105.74 191.814 92.95 192.264 72.54 184.734L50.89 176.784L37.77 171.874C32.07 169.794 26.47 168.054 20.43 166.264C7.43 162.344 7.76 178.064 0 170.234C0.7 166.194 2.44 160.784 4.08 157.004C10.03 143.244 18.13 121.114 22.09 107.124C22.51 105.514 26.29 104.624 27.8 105.134C35.17 107.424 42.03 109.264 49.58 111.134C51.12 111.514 53.37 113.014 54.3 114.014C55.25 115.074 53.97 119.414 52.6 119.354C43.57 118.634 30.12 121.454 26.2 131.494L20.09 147.274L65 163.774C72.76 145.814 64.33 147.794 60.66 136.334C65.71 134.004 69.25 135.654 73.79 137.364L96.15 146.004C98.1 159.794 80.43 142.404 76.44 167.854C87.14 171.934 97.15 175.734 108.56 178.354C112.06 179.104 117.07 172.344 118.18 169.224C128.2 142.234 103.27 128.364 111.05 124.564C112.34 123.974 115.06 124.774 116.56 125.844L140.39 142.464L140.41 142.454Z" fill="#90BEFB"/>
</svg>
