<svg width="241" height="234" viewBox="0 0 241 234" fill="none" xmlns="http://www.w3.org/2000/svg">
<g clip-path="url(#clip0_2553_3898)">
<mask id="mask0_2553_3898" style="mask-type:luminance" maskUnits="userSpaceOnUse" x="0" y="0" width="241" height="234">
<path d="M240.17 0H0V233.13H240.17V0Z" fill="white"/>
</mask>
<g mask="url(#mask0_2553_3898)">
<path d="M102.849 134.25H94.4591C94.3291 134.02 94.3991 133.8 94.4691 133.57C94.5791 133.24 94.6391 132.9 94.6991 132.55C94.7691 132.18 95.1791 130.71 95.2991 130.27L95.6191 129.13L96.1691 126.98L96.4691 125.77L96.8691 124.15C96.9891 123.65 97.0791 123.17 97.2591 122.67C97.3491 122.42 97.3891 122.13 97.4591 121.87L97.7091 120.95L98.3191 118.65C98.4591 118.13 98.6091 117.63 98.6891 117.09C98.7491 116.73 98.8291 116.43 99.0391 116.03C99.1891 116.49 99.2891 116.86 99.3691 117.27C99.4891 117.92 99.6591 118.53 99.7991 119.19L99.9791 120.06L100.469 122.01L100.799 123.34C100.899 123.74 101.069 124.12 101.099 124.54C101.129 124.96 101.299 125.35 101.389 125.75L101.679 127.13L102.049 128.73L102.469 130.46L102.759 131.63L103.179 133.28C103.229 133.49 103.359 133.8 103.359 133.99C103.359 134.27 103.089 134.22 102.859 134.22M115.129 151.72L113.779 151.18C113.129 150.92 112.589 150.31 112.269 149.68L111.819 148.8C111.699 148.57 111.599 148.24 111.529 147.99L111.139 146.58L110.709 144.95L110.389 143.76L109.949 142.11L109.769 141.18L109.199 138.92L108.809 137.45L108.479 136.18L108.029 134.61L107.829 133.69L107.559 132.57L107.239 131.24L106.249 127.45L105.829 125.87C105.729 125.51 105.649 125.18 105.569 124.82L105.239 123.43L104.999 122.44L104.409 120.11L104.239 119.43L103.929 118.36C103.779 117.86 103.659 117.43 103.549 116.92L103.269 115.71L102.709 113.37L102.479 112.44L102.159 111.25L101.769 109.84C101.629 109.34 101.489 108.86 101.379 108.36C101.209 107.6 101.119 106.31 100.369 106.31H99.3091C99.1491 106.31 98.8491 106.52 98.7991 106.71L97.3191 112.13L97.0991 113.1L96.7691 114.45L96.3991 115.79L95.9891 117.25L95.0591 120.81L94.7091 122.33L94.3291 123.76L94.0691 124.67L93.6291 126.23L93.1191 128.26L92.5591 130.52C92.4991 130.74 92.4991 131 92.4091 131.21C92.2291 131.61 92.1891 132.01 92.0691 132.41L91.8191 133.24L91.2991 135.21L90.9991 136.34C90.8991 136.71 90.8691 137.11 90.7291 137.47C90.6091 137.79 90.5791 138.11 90.4991 138.43L90.0291 140.23L89.1591 143.42L88.6991 145.17L88.3391 146.69C88.2191 147.2 88.0991 147.68 87.9091 148.18C87.5891 149.03 86.6191 150.77 85.7991 151.13L84.4991 151.71C84.2591 151.82 84.3391 152.25 84.2891 152.47C84.2391 152.73 84.2291 153.01 84.3491 153.22C84.4391 153.38 84.6891 153.59 84.9491 153.59H93.0891C93.3091 153.59 93.4991 153.55 93.7191 153.59C94.0291 153.64 94.3391 153.56 94.5191 153.33C94.6791 153.12 94.6591 152.85 94.6391 152.57C94.6191 152.21 94.6291 151.94 94.3891 151.72C94.1591 151.49 93.9091 151.55 93.5691 151.52C93.2391 151.49 92.8991 151.39 92.5491 151.31C91.8191 151.15 90.9691 150.74 90.7591 149.94C90.5591 149.18 90.6891 148.34 90.8891 147.59L92.0391 143.35L92.2391 142.52L92.6291 140.91L92.9791 139.53L93.3991 138.08C93.5191 137.66 93.5791 137.23 93.7491 136.81C93.8191 136.62 94.2791 136.55 94.4791 136.6C94.9091 136.7 95.3091 136.61 95.7391 136.61H101.359C101.979 136.62 102.569 136.69 103.189 136.64C103.429 136.62 103.999 136.5 104.099 136.86L104.649 139.08L104.879 139.99L105.289 141.54L105.699 143.27C105.819 143.78 105.869 144.3 106.059 144.81C106.129 145 106.139 145.24 106.189 145.45L106.609 147.25C106.879 148.41 107.469 150.12 106.209 150.9C105.479 151.35 104.479 151.51 103.669 151.59C102.999 151.65 103.169 152.26 103.079 152.93C103.029 153.29 103.309 153.61 103.709 153.61H114.819C115.289 153.61 115.489 153.2 115.459 152.77C115.439 152.44 115.519 151.86 115.139 151.71" fill="#90BEFB"/>
<path d="M206.01 45.81C205.85 46.01 205.59 46.01 205.3 46.01H195.3H194.79H184.84H184.34H180.35C180.02 46.01 179.63 46.01 179.59 45.56C179.56 45.25 179.56 44.82 179.59 44.51C179.65 44.04 180.11 43.96 180.46 43.92C181.04 43.85 181.57 43.77 182.12 43.64C183.55 43.29 183.65 42.49 183.8 41.52L183.93 40.67V5.50001C183.61 4.04001 183.99 4.48001 183.32 3.21001C183.04 2.67001 182.25 2.34001 181.68 2.26001L180.57 2.11001C180.18 2.05001 179.67 1.93001 179.58 1.43001C179.54 1.19001 179.56 0.83001 179.58 0.57001C179.61 0.0800098 180.17 -0.0799902 180.55 0.0600098C180.64 0.0900098 180.86 0.0100098 180.96 0.0100098H191.86C192.08 0.0100098 192.25 0.0900098 192.47 0.0300098C192.7 -0.0299902 193.1 0.13001 193.16 0.36001C193.27 0.79001 193.36 1.25001 193.16 1.64001C193.03 1.88001 192.63 2.05001 192.38 2.07001L191.44 2.18001C191.03 2.23001 190.65 2.30001 190.25 2.45001C188.88 2.97001 188.65 3.48001 188.49 4.77001L188.42 5.35001V40.3L188.49 40.94C188.52 41.24 188.53 41.51 188.59 41.8C188.78 42.79 189.59 43.52 190.62 43.44C191.17 43.63 191.71 43.66 192.29 43.65C192.64 43.64 192.98 43.69 193.33 43.7C194.12 43.73 194.89 43.74 195.68 43.7L196.38 43.66C196.8 43.63 197.22 43.54 197.64 43.49C199.74 43.2 201.44 41.52 202.36 39.68C202.47 39.46 202.63 39.22 202.71 38.99C203.17 37.65 203.55 36.29 203.7 34.89L203.9 33.06C203.92 32.89 204.02 32.52 204.17 32.46C204.72 32.25 205.84 32.26 206.07 32.66C206.16 32.81 206.1 33.06 206.09 33.24C206.06 34 206.07 34.74 206.09 35.5L206.11 36.26L206.09 37.38V43.66C206.08 43.88 206.11 44.08 206.09 44.3C205.99 45.29 206.31 45.42 205.99 45.83" fill="#90BEFB"/>
<path d="M67.9192 170.22L67.8892 171.1C67.8792 171.5 67.5292 171.74 67.1492 171.68C66.7892 171.62 66.4992 171.78 66.1792 171.87C65.5692 172.05 65.1092 172.4 64.8892 173.04C64.7992 173.31 64.6692 173.67 64.6692 174.01V191.18C64.6692 191.47 64.5492 191.83 64.2292 191.86C63.7692 191.9 63.2192 191.91 62.7592 191.85C62.3792 191.58 62.1792 191.07 61.9992 190.67L61.5992 189.81C61.3792 189.34 61.2492 188.76 61.0892 188.71C61.0392 188.69 60.8992 188.76 60.8692 188.8C59.9192 190.05 59.7292 190.4 58.3392 191.38C57.4092 192.04 55.8092 192.8 54.6692 192.89C53.8392 192.95 53.0392 192.93 52.1992 192.9C51.8892 192.9 51.5392 192.76 51.2292 192.72C50.4892 192.6 49.8592 192.32 49.1892 192C47.1492 191.02 46.0892 189.94 44.7892 188.15C44.1792 187.31 43.5992 186.26 43.1892 185.31L42.8992 184.62C42.1692 182.92 41.7792 181.81 41.3992 179.99L41.0492 178.32C40.9892 178.03 41.0192 177.72 40.9692 177.42L40.7292 175.97L40.6592 175.14L40.5892 174.38L40.5192 173.62L40.4492 172.79L40.3892 171.72L40.3292 170.52C40.3192 170.32 40.3292 170.14 40.3292 169.93C40.3592 169.08 40.3592 168.25 40.3292 167.4C40.3292 167.16 40.3092 166.94 40.3292 166.71L40.4092 165.46L40.4792 164.56L40.5592 163.66L40.6992 162.13L40.9392 160.52C41.0292 159.91 41.0992 159.33 41.2392 158.73C41.4092 158.01 41.5192 157.3 41.7392 156.59C41.9192 156.02 42.0392 155.44 42.2692 154.9L42.7592 153.73L43.1592 152.81C43.7592 151.43 44.5292 150.2 45.4192 149C46.5792 147.42 47.8392 146.36 49.5892 145.53L50.2392 145.22C50.6292 145.04 51.0292 144.95 51.4392 144.84L52.5392 144.56H54.7492C55.4792 144.56 57.9892 145.56 58.7192 145.98C59.7292 146.55 59.8192 146.58 60.7092 147.32C61.0092 147.57 61.4292 147.97 61.8092 147.86C61.9592 147.81 62.0792 147.62 62.1292 147.45L62.3792 146.65C62.4592 146.41 62.5092 145.75 62.7892 145.74H64.0292C64.1892 145.72 64.4992 145.96 64.4992 146.19V158.57C64.4992 158.86 64.0892 159.07 63.8992 159.07C63.4992 159.08 63.1792 159.07 62.7892 159.05C62.6092 159.04 62.5192 158.69 62.4792 158.55L62.2492 157.55C62.1292 157 62.0292 156.5 61.8892 155.97C61.6992 155.26 61.5292 154.58 61.2692 153.88L60.9592 153.03C60.3492 151.37 58.9692 149.53 57.6092 148.41C57.3692 148.22 57.0692 148.05 56.8092 147.89C55.5092 147.08 54.2192 147.05 52.7392 147.13L52.0892 147.37C51.0192 147.76 50.1392 148.45 49.5192 149.38C49.2492 149.79 48.9092 150.17 48.6692 150.6C47.9692 151.87 47.7692 152.18 47.2792 153.59C46.9492 154.54 46.6992 155.48 46.4692 156.46C46.3792 156.83 46.2392 157.18 46.2092 157.57C46.1792 158.01 46.0592 158.41 45.9592 158.84C45.8692 159.21 45.8592 159.61 45.7992 160L45.5392 161.58L45.4692 162.69L45.3992 163.8L45.3292 164.84L45.2692 166.12V171.27L45.3292 172.45L45.3892 173.7L45.4692 175.15C45.4792 175.42 45.4892 175.71 45.5292 175.97L45.7792 177.56C45.8392 177.96 45.8592 178.35 45.9392 178.73L46.2792 180.33L46.6092 181.72L47.0492 183.34C47.5192 185.08 48.7692 187.43 49.9492 188.81C50.3792 189.32 50.9792 189.65 51.5692 189.97C52.4992 190.47 53.5892 190.5 54.6492 190.34C54.9992 190.29 55.3392 190.17 55.6792 190.05C57.9492 189.25 59.0992 187.06 59.8592 184.9C60.0192 184.45 60.2492 183.99 60.2492 183.49V174.62C60.2492 173.96 60.0692 173.39 59.7892 172.85C59.3592 172.03 57.7192 171.62 56.8592 171.68C56.6892 171.69 56.3492 171.6 56.2992 171.45C56.0992 170.9 56.0792 169.68 56.6092 169.68H67.3792C67.6792 169.68 67.8892 169.96 67.8792 170.22" fill="#90BEFB"/>
<path d="M239.92 65.48C240.16 65.73 240.13 66.1 240.16 66.43C240.19 66.87 239.93 67.3 239.44 67.32C239.04 67.33 238.62 67.33 238.23 67.3C237.47 67.24 237.62 67.39 236.69 67.3C236.5 67.29 236.36 67.26 236.15 67.32H231.36C231.07 67.24 230.8 67.23 230.52 67.32H226.32C226.01 67.32 225.68 67.07 225.68 66.77V65.95C225.68 65.36 226.18 65.23 226.65 65.22C227.65 65.2 228.12 65.05 229.08 64.74C229.82 64.5 230.24 63.89 230.42 63.15C230.47 62.95 230.59 62.66 230.59 62.45V26.26C230.4 25.33 230.24 24.44 229.4 23.97C229 23.74 227.99 23.41 227.48 23.38L226.51 23.32C226.2 23.3 225.77 23.18 225.71 22.81C225.66 22.51 225.67 22 225.7 21.69C225.71 21.54 226.02 21.26 226.18 21.26H239.45C239.65 21.26 239.9 21.35 239.99 21.46C240.23 21.77 240.24 22.72 239.96 23.07C239.77 23.31 239.36 23.35 239.06 23.33C238.45 23.28 237.96 23.45 237.4 23.61C235.76 24.1 235.51 24.79 235.24 26.48V62.05C235.53 63.02 235.33 63.14 235.8 63.92C236.16 64.53 236.75 64.86 237.44 65C237.99 65.11 238.53 65.24 239.11 65.25C239.39 65.25 239.72 65.27 239.92 65.48Z" fill="#90BEFB"/>
<path d="M27.4995 221.63V223.6C27.4995 223.6 27.5595 223.75 27.5695 223.75V226.44C27.5695 226.44 27.4995 226.56 27.4995 226.59V229.13C27.4995 229.13 27.5595 229.28 27.5695 229.28V232.53L27.5295 232.63C27.4695 232.76 27.3495 233.09 27.1395 233.09H0.939547C0.729547 233.09 0.459547 233.2 0.299547 233.07C0.199547 232.98 0.0295471 232.75 0.0195471 232.61L-0.0104529 231.64C-0.0204529 231.22 0.229547 231.01 0.629547 231.01C1.13955 231.01 1.59955 230.89 2.12955 230.78C2.85955 230.63 3.77955 230.27 4.03955 229.46C4.19955 228.95 4.42955 228.27 4.42955 227.68V192.86C4.42955 192.65 4.37955 192.4 4.34955 192.23L4.12955 190.99C4.09955 190.83 3.95955 190.64 3.88955 190.5C3.55955 189.91 3.06955 189.58 2.40955 189.46C1.94955 189.38 1.47955 189.1 0.989547 189.19C0.709547 189.24 0.499547 189.26 0.259547 189.1C0.0995471 189 -0.000452939 188.73 0.00954706 188.49L0.0395471 187.62C0.0395471 187.47 0.209547 187.11 0.399547 187.11H26.2495C26.3795 187.11 26.6095 187.35 26.6095 187.49V198.36C26.6095 199.08 25.3095 199.04 24.8695 198.75C24.5195 198.51 24.5395 198.07 24.5195 197.7L24.4595 196.8C24.4195 196.09 24.2695 195.41 24.1495 194.71C23.9595 193.58 23.5095 192.19 22.6895 191.38C21.8095 190.51 21.2895 190.22 20.0895 189.88C19.6095 189.74 19.1395 189.56 18.5995 189.56H11.4695C11.0295 189.56 10.5995 189.76 10.2095 189.89C9.59955 190.08 9.06955 190.66 8.94955 191.35C8.91955 191.55 8.74955 191.81 8.74955 192.05V207.37C8.74955 207.46 8.87955 207.67 8.95955 207.67L13.4795 207.64L14.7795 207.58C15.9795 207.52 17.5195 207.2 18.4195 206.33C18.7995 205.96 18.9695 205.43 19.1695 204.94C19.4095 204.35 19.4395 203.7 19.5195 203.07L19.6495 202.09C19.6795 201.9 19.7995 201.48 20.0295 201.47C20.4795 201.44 20.9095 201.44 21.3295 201.47C21.6495 201.5 21.7595 201.87 21.7595 202.15V216.04C21.7595 216.39 21.5795 216.77 21.1995 216.8C20.7995 216.82 20.3895 216.82 19.9795 216.79C19.7995 216.62 19.6295 216.24 19.6195 216C19.5995 215.65 19.5595 215.39 19.5095 215.07L19.3695 214.07C19.3295 213.74 19.1995 213.44 19.0895 213.12C18.7595 212.17 18.2195 211.08 17.1795 210.72C16.4895 210.48 15.4695 210.21 14.7395 210.2L10.8795 210.16C10.7295 210.16 10.5995 210.16 10.4595 210.16L8.72955 210.2V228.15L8.90955 228.79C9.03955 229.24 9.16955 229.58 9.44955 229.93C9.65955 230.18 9.85955 230.37 10.1995 230.44C10.5695 230.52 10.9895 230.69 11.3595 230.7L13.0595 230.76C14.5795 230.82 16.0995 230.82 17.6195 230.76C19.3895 230.69 18.6495 230.82 20.3095 230.43C21.6395 230.12 22.8895 229.3 23.7195 228.23C24.1595 227.67 24.7295 226.02 24.8495 225.39L25.2695 223.25C25.2995 223.07 25.2995 222.81 25.3195 222.63L25.4495 221.43C25.4795 221.1 25.6395 220.71 26.0395 220.7C26.3695 220.69 26.7295 220.69 27.0595 220.71C27.3495 220.73 27.4495 221.11 27.5495 221.31V221.52C27.5495 221.52 27.4795 221.63 27.4795 221.68" fill="#90BEFB"/>
<path d="M222.06 94C220.65 94.74 220.81 95.53 220.51 97.06V138.43C220.51 138.55 220.3 138.84 220.18 138.85C218.81 138.93 218.55 138.96 218.19 138.07L217.85 137.22L217.41 136.14L217.05 135.32L216.27 133.53L215.96 132.8L215.54 131.7L215.1 130.62L214.72 129.82L214.38 129.06L213.5 126.9L213.14 125.99L212.72 125.05L212.44 124.43L212.03 123.46L211.51 122.18L211.21 121.44L210.79 120.41L210.19 119.09L209.47 117.38L208.87 115.83L208.46 114.85L208.09 114.04C207.81 113.42 207.53 112.84 207.29 112.2L206.9 111.14L206.51 110.21L206.18 109.44L205.12 106.98L204.56 105.59L204.19 104.71L203.72 103.66L203.39 102.89L202.7 101.24L202.08 99.64C201.98 99.37 201.85 99.15 201.66 98.9C201.46 99.18 201.58 99.33 201.58 99.6V132.83C201.58 133.16 201.72 133.46 201.79 133.74C202 134.69 202.77 135.23 203.68 135.41C204.03 135.48 204.34 135.56 204.71 135.56C205.13 135.56 205.48 135.89 205.47 136.3L205.45 137.3C205.11 137.66 204.65 137.63 204.21 137.56C203.99 137.52 203.75 137.56 203.51 137.61C203.37 137.63 203.13 137.55 202.96 137.55H197.09C196.74 137.56 196.45 137.62 196.1 137.57C195.73 137.51 194.81 137.67 194.81 137.2V136.25C194.81 135.73 195.2 135.59 195.63 135.53C196.27 135.44 197.21 135.2 197.77 134.9C198.17 134.68 198.4 134.13 198.48 133.71C198.54 133.38 198.67 133.04 198.67 132.69V96.24C198.41 95.18 198.22 94.43 197.24 93.95C196.59 93.64 196.98 93.86 195.94 93.67C195.53 93.59 195.04 93.55 194.81 93.11V92.19C194.79 91.65 195.48 91.53 195.81 91.58C196.14 91.62 196.36 91.61 196.67 91.58C197.17 91.54 197.68 91.55 198.18 91.57C198.34 91.57 198.57 91.64 198.72 91.61C199.12 91.54 199.46 91.61 199.86 91.59L200.81 91.5501L202 91.6C202.44 91.62 203.02 91.42 203.39 91.83C203.56 92.02 203.66 92.42 203.77 92.68L204.13 93.51L204.53 94.5L204.91 95.42L205.43 96.57C205.76 97.29 205.74 97.41 206.11 98.17C206.27 98.5 206.38 98.83 206.49 99.19C206.55 99.36 206.68 99.57 206.72 99.76C206.76 100.02 206.92 100.21 207.01 100.43L207.91 102.49L208.2 103.18L208.67 104.37L209.24 105.75L209.69 106.76L210.38 108.35L211.23 110.47L211.91 112.01L212.73 113.95L213.11 114.96C213.25 115.31 213.39 115.69 213.54 116.02L214.28 117.64C214.53 118.19 214.74 118.74 214.96 119.3L215.24 119.98L215.63 120.98L216 121.79L216.49 122.9C216.78 123.55 217.03 124.2 217.28 124.87C217.41 125.21 217.54 125.51 217.72 125.81L217.82 125.2C217.87 124.88 217.77 124.59 217.77 124.24V96.75C217.76 96.29 217.58 95.82 217.48 95.4C217.3 94.65 216.63 94.08 215.91 93.81C215.21 93.56 214.15 93.76 213.84 93.15C213.83 92.71 213.63 91.55 214.4 91.56H215.54C215.95 91.58 216.33 91.56 216.73 91.57C217.05 91.57 217.39 91.51 217.72 91.57C217.97 91.62 218.28 91.59 218.53 91.54C218.51 91.54 219.59 91.64 220.3 91.56C220.85 91.5 221.37 91.56 221.92 91.56C222.33 91.57 222.74 91.45 223.16 91.59C223.49 91.49 223.96 91.48 224.24 91.68C224.55 91.9 224.38 92.33 224.43 92.62C224.67 93.98 223.07 93.41 222.01 93.96" fill="#90BEFB"/>
<path d="M168.48 156.15V167.38C168.48 167.67 168.2 167.96 167.9 167.96H141.37C140.69 167.66 141.04 166.83 141.02 166.14C141.17 165.72 141.87 165.87 142.56 165.72L143.66 165.49C143.88 165.44 144.2 165.23 144.4 165.09C144.9 164.72 145.06 164.13 145.18 163.56L145.36 162.73V127.52C145.36 127.11 145.12 125.9 144.92 125.52C144.3 124.35 143.91 124.39 142.5 124.06C142.08 123.96 140.94 124.27 140.96 123.45L140.99 122.51C140.99 122.23 141.12 121.9 141.51 121.9H167.07C167.86 121.9 167.64 123.31 167.61 123.72C167.56 124.35 167.58 124.99 167.6 125.63C167.6 125.82 167.68 126.06 167.64 126.23C167.56 126.54 167.64 126.79 167.64 127.09V130.73C167.64 130.96 167.58 131.17 167.62 131.4C167.68 131.72 167.63 132.03 167.61 132.35C167.59 132.62 167.59 132.9 167.58 133.17C167.57 133.51 167.29 133.73 166.97 133.73H166.27C165.91 133.73 165.61 133.47 165.6 133.1C165.58 132.66 165.53 132.23 165.48 131.78C165.28 130 165.06 128.82 164.32 127.18C164.07 126.62 163.77 126.14 163.23 125.75C162.27 125.03 161.1 124.6 159.87 124.44C159.27 124.36 158.68 124.4 158.07 124.37C156.68 124.3 155.3 124.33 153.89 124.35C153.62 124.35 153.32 124.42 153.05 124.41C152.37 124.37 151.77 124.47 151.15 124.73C150.05 125.2 150.04 125.77 149.79 126.93V142.1C149.79 142.3 149.96 142.53 150.14 142.53L151.45 142.49C151.78 142.49 152.11 142.58 152.43 142.47C153.44 142.63 154.1 142.47 155.13 142.42C156.38 142.37 157.62 142.24 158.76 141.66C159.49 141.29 159.82 140.61 160.05 139.85C160.18 139.41 160.31 138.97 160.37 138.52L160.59 136.93C160.64 136.58 160.74 136.3 161.19 136.26C161.49 136.23 162.74 136.1 162.74 136.74V151.09C162.74 151.3 162.42 151.57 162.26 151.58C161.85 151.6 161.41 151.61 161.03 151.57C160.67 151.53 160.6 151.06 160.57 150.81L160.41 149.65C160.27 148.61 159.81 146.68 158.97 146.02C158.33 145.52 157.54 145.26 156.73 145.15C156.31 145.09 155.87 144.98 155.44 144.98L149.96 144.96C149.88 145.05 149.79 145.21 149.79 145.32V162.98C149.89 163.63 150.28 165.02 150.92 165.18L152.16 165.48C152.3 165.52 152.54 165.57 152.69 165.57H159.41C160.33 165.55 161.24 165.3 162.07 164.99C163.24 164.56 164.24 163.79 164.87 162.74C165.42 161.84 165.57 161.26 165.83 160.29C166.18 159.01 165.97 159.61 166.14 158.53L166.28 157.7C166.35 157.27 166.4 156.88 166.39 156.43C166.39 156.18 166.44 155.82 166.64 155.66C167 155.38 167.88 155.39 168.2 155.61C168.33 155.7 168.45 155.97 168.45 156.18" fill="#90BEFB"/>
</g>
</g>
<defs>
<clipPath id="clip0_2553_3898">
<rect width="240.17" height="233.13" fill="white"/>
</clipPath>
</defs>
</svg>
