<svg width="132" height="166" viewBox="0 0 132 166" fill="none" xmlns="http://www.w3.org/2000/svg">
<g clip-path="url(#clip0_2553_3222)">
<mask id="mask0_2553_3222" style="mask-type:luminance" maskUnits="userSpaceOnUse" x="0" y="0" width="132" height="166">
<path d="M131.02 0H0V165.88H131.02V0Z" fill="white"/>
</mask>
<g mask="url(#mask0_2553_3222)">
<path d="M97.0398 95.88C96.1198 97.62 95.4498 99.45 94.8898 101.38C94.4698 102.83 93.2898 104.05 92.8098 105.4C92.0198 107.54 91.0498 109.26 89.9398 111.18C88.9498 112.89 88.6098 114.8 87.1298 116.33C86.4898 116.99 86.1398 118.29 85.5898 119.02C84.6898 120.19 83.9898 121.22 83.2398 122.47C82.6498 123.43 81.6498 124.23 80.8898 125.1C79.8198 126.33 78.6598 127.34 77.3398 128.27L74.5398 130.23L71.4398 132.42C70.4298 133.14 64.5798 134.02 62.9798 134.14C61.6198 134.25 60.0698 133.59 58.7098 133.54C56.8498 133.47 55.1298 133.16 53.6798 132.05L49.2198 128.64C46.8998 126.86 43.2998 123.51 42.7198 120.54C41.0798 119.23 40.6898 117.26 39.8998 115.46C38.5898 112.51 37.7598 109.69 37.2698 106.47C36.6398 102.31 35.3898 96.56 35.8298 92.27C36.1898 88.7 36.3398 85.06 37.6998 81.66C38.5098 79.63 39.7698 77.53 41.4398 76.16C42.4998 75.28 44.0298 74.76 45.2198 74.24C47.0298 73.45 48.7498 73.79 50.4098 74.59C51.6398 75.18 53.0898 75.61 54.1898 76.32C55.3898 77.1 56.3798 77.97 57.6498 78.62C58.8698 79.23 59.7398 80.38 60.8298 81.13L64.6598 83.77L68.7798 86.6C69.8398 87.34 71.0298 87.73 72.1898 88.22C75.0498 89.46 77.7598 90.25 80.9498 90.01C82.3398 89.9 83.9998 90.13 85.2998 89.57C86.2998 89.13 89.8498 87.31 90.3898 86.8L94.5398 82.79C94.7998 82.54 95.5198 82.3 95.8498 82.3C96.2198 82.3 96.8398 83.04 96.8498 83.47L97.0098 89.07C97.1198 92.68 98.3798 93.4 97.0698 95.87M125.55 146.67L124.92 140.7L124.67 137.8L123.5 127.31L123.32 125.12L122.84 120.57L122.58 117.98L122.32 114.63L122.11 112.45L121.96 108.68L121.77 106.25L121.23 101.13C120.84 97.52 120.4 94.06 119.7 90.46C119.39 88.88 119.33 87.3 119.15 85.7L118.22 77.37C118.11 76.39 118.13 75.44 117.99 74.47C117.61 71.66 117.02 68.96 116.8 66.13L116.56 63.02L116.36 60.36L116.18 56.81L116.12 55.15L115.63 50.15C115.1 44.7 113.84 42.03 113.53 37.81C113.36 35.64 112.68 33.72 112.07 31.63L111.04 28.11C109.74 23.67 110.6 24.34 108.44 19.23C107.6 17.24 106.7 15.35 105.58 13.49C104.72 12.07 103.62 11.04 102.39 9.94001C96.7598 4.93001 97.1798 5.70001 90.7198 5.08001C89.6098 4.97001 88.6598 5.06001 87.5498 5.08001L80.1698 5.23001C79.4898 5.25001 78.6998 5.32001 78.0098 5.44001L68.2198 7.06001L65.0698 7.32001L57.4398 8.27001C54.0998 8.68001 50.8598 8.91001 47.5998 9.45001C45.3498 9.83001 43.2098 10.22 40.9198 10.43C37.1298 10.78 33.5998 11.69 29.9098 12.53C25.3998 13.57 23.8898 13.09 19.5398 15.08L15.7298 16.84C14.5498 17.38 13.6498 18.6 12.6198 19.41C11.0398 20.68 8.30982 23.68 7.37982 25.45C5.87982 28.28 4.49982 32.57 5.11982 35.75C5.60982 38.21 6.42982 40.6 7.64982 42.77C8.67982 44.59 10.3998 45.95 11.8698 47.39C13.3598 48.83 14.9498 49.61 16.8498 50.34C19.5898 51.39 22.1598 51.93 25.1498 51.87C25.7998 51.85 26.6798 52.03 27.3398 51.93C28.6998 51.73 29.8398 51.44 31.1298 51.1C34.0598 50.33 36.9798 49.68 39.9698 49.21C42.6098 48.79 44.9698 48.14 47.5498 47.48C51.1298 46.55 54.6698 46.1 58.1598 44.87C60.6798 43.97 63.2998 43.88 65.9198 43.26L72.4998 41.7C74.7198 41.17 77.2598 41.66 78.2098 43.95C78.4398 44.51 78.6898 45.66 78.7398 46.26L76.9898 56.06C76.1998 57.95 75.9898 60.08 76.9098 61.98C77.3098 62.82 78.7698 65.27 77.5498 65.8C76.3898 66.3 74.8098 64.47 74.0798 63.62C71.6198 60.69 67.5398 58.48 64.2498 56.66C62.3398 55.6 60.5898 54.34 58.4598 53.63C55.6498 51.34 49.4998 51.39 45.9998 51.63L43.5698 51.8C40.9098 51.98 38.5598 52.94 36.1198 53.87C32.2398 55.36 29.0198 57.45 25.9598 60.25C23.9698 62.07 22.5498 64.32 21.0598 66.58C18.7898 70.03 19.4098 70.94 18.5598 74.99L16.9498 82.73C15.8598 87.93 15.6898 93.52 15.9298 98.88C15.9998 100.23 15.9998 101.62 16.1798 102.94L16.9598 108.61C17.7698 114.56 20.9998 127.25 23.9098 132.37C25.4498 135.06 27.1398 137.71 29.2498 139.97L30.8798 141.71L36.1198 146.99C36.3098 147.19 40.2598 149.86 41.2998 150.64C42.5398 151.56 44.2398 151.88 45.5698 152.6C50.2198 155.16 49.5498 154.23 54.8698 155.73C58.7798 156.84 63.0798 157.22 67.0498 156.33L71.7998 155.26C75.3498 154.46 79.0298 153.47 82.1198 151.49L87.3598 148.14C88.3298 147.52 91.9998 144.29 93.0198 143.29L94.8298 141.55C95.5898 140.81 96.2198 140.02 96.8398 139.2L101.02 133.61C101.27 133.28 102.12 132.96 102.47 133.07C102.81 133.19 103.34 133.89 103.34 134.27L103.44 142.12L104.08 147.87C104.28 149.59 103.91 151.42 104.78 152.92C105.82 154.73 106.71 156.68 108.13 158.15C109.76 159.85 112.08 160.74 114.4 160.89C115.21 160.95 116.27 160.53 117.09 160.4L120.41 159.89C121.1 159.78 121.45 159.51 122.02 159.07C124.23 157.34 126.26 155 125.99 151.95L125.54 146.68L125.55 146.67Z" fill="#90BEFB"/>
<path d="M117.15 112.95C116.88 110.2 118.88 107.75 121.63 107.47C124.38 107.2 126.83 109.2 127.1 111.95C127.38 114.7 125.37 117.15 122.63 117.42C122.46 117.44 122.29 117.45 122.12 117.45C119.58 117.45 117.41 115.52 117.15 112.95Z" fill="black"/>
<path d="M116.8 106.52C116.64 103.76 118.76 101.41 121.52 101.26C124.27 101.11 126.63 103.22 126.78 105.98C126.93 108.74 124.82 111.09 122.06 111.24C121.97 111.24 121.88 111.24 121.78 111.24C119.15 111.24 116.94 109.18 116.8 106.51V106.52Z" fill="black"/>
<path d="M116.28 101.65C115.99 98.9001 117.98 96.4401 120.73 96.1501C123.47 95.8701 125.93 97.86 126.22 100.6C126.51 103.35 124.52 105.81 121.77 106.1C121.59 106.12 121.42 106.13 121.24 106.13C118.72 106.13 116.55 104.21 116.28 101.65Z" fill="black"/>
<path d="M114.82 91.4101C114.29 88.7001 116.06 86.0801 118.77 85.5501C121.48 85.0201 124.11 86.8001 124.63 89.5101C125.16 92.2201 123.39 94.8401 120.68 95.3701C120.35 95.4301 120.03 95.4601 119.72 95.4601C117.37 95.4601 115.28 93.8001 114.82 91.4101Z" fill="black"/>
<path d="M114.21 86.25C113.9 83.51 115.88 81.03 118.62 80.73C121.37 80.42 123.84 82.39 124.15 85.14C124.45 87.88 122.47 90.36 119.73 90.66C119.54 90.68 119.35 90.69 119.17 90.69C116.65 90.69 114.49 88.8 114.21 86.25Z" fill="black"/>
<path d="M113.28 77.91C112.97 75.17 114.95 72.69 117.7 72.39C120.44 72.09 122.91 74.06 123.22 76.81C123.52 79.55 121.55 82.02 118.8 82.33C118.61 82.35 118.43 82.36 118.24 82.36C115.73 82.36 113.56 80.47 113.28 77.91Z" fill="black"/>
<path d="M113.07 75.1699C112.68 72.4399 114.57 69.9099 117.31 69.5099C120.04 69.1199 122.57 71.0099 122.97 73.7499C123.36 76.4799 121.471 79.01 118.731 79.41C118.491 79.44 118.25 79.4599 118.01 79.4599C115.57 79.4599 113.43 77.6599 113.07 75.1699Z" fill="black"/>
<path d="M111.85 66.5C111.63 63.75 113.69 61.34 116.45 61.13C119.2 60.92 121.6 62.98 121.82 65.73C122.03 68.48 119.97 70.89 117.22 71.1C117.09 71.1 116.96 71.12 116.83 71.12C114.24 71.12 112.05 69.12 111.85 66.5Z" fill="black"/>
<path d="M111.61 63.39C111.4 60.64 113.46 58.23 116.21 58.02C118.96 57.81 121.37 59.87 121.58 62.62C121.79 65.37 119.73 67.78 116.98 67.99C116.85 67.99 116.72 68.01 116.59 68.01C114 68.01 111.81 66.01 111.61 63.39Z" fill="black"/>
<path d="M111.16 55.42C111.01 52.66 113.12 50.3 115.88 50.15C118.64 49.99 120.99 52.11 121.15 54.86C121.3 57.62 119.19 59.98 116.43 60.13C116.34 60.14 116.24 60.14 116.15 60.14C113.52 60.14 111.31 58.08 111.16 55.42Z" fill="black"/>
<path d="M110.69 50.6201C110.42 47.8701 112.43 45.4301 115.18 45.1601C117.93 44.8901 120.37 46.9001 120.64 49.6501C120.91 52.4001 118.9 54.8401 116.15 55.1101C115.99 55.1301 115.82 55.1401 115.66 55.1401C113.12 55.1401 110.94 53.2101 110.69 50.6201Z" fill="black"/>
<path d="M108.58 38.16C108.37 35.41 110.45 33.01 113.2 32.81C115.95 32.61 118.35 34.67 118.55 37.43C118.75 40.18 116.68 42.58 113.93 42.78C113.8 42.78 113.68 42.78 113.56 42.78C110.96 42.78 108.77 40.78 108.58 38.15V38.16Z" fill="black"/>
<path d="M107.31 33.01C106.54 30.36 108.06 27.58 110.71 26.81C113.37 26.04 116.14 27.57 116.91 30.22C117.68 32.87 116.15 35.64 113.5 36.42C113.04 36.55 112.57 36.62 112.1 36.62C109.94 36.62 107.94 35.2 107.31 33.01Z" fill="black"/>
<path d="M106.28 29.49C105.51 26.84 107.03 24.07 109.68 23.3C112.33 22.52 115.11 24.04 115.88 26.7C116.66 29.35 115.13 32.12 112.48 32.89C112.01 33.03 111.54 33.1 111.08 33.1C108.91 33.1 106.92 31.68 106.28 29.49Z" fill="black"/>
<path d="M103.871 21.16C102.801 18.62 103.991 15.68 106.531 14.61C109.081 13.53 112.011 14.72 113.091 17.27C114.161 19.81 112.971 22.74 110.431 23.82C109.791 24.09 109.131 24.21 108.481 24.21C106.531 24.21 104.681 23.07 103.871 21.16Z" fill="black"/>
<path d="M101.34 16.0499C99.9101 13.6899 100.67 10.6199 103.04 9.18994C105.4 7.75994 108.47 8.51995 109.9 10.8899C111.33 13.2499 110.57 16.3299 108.2 17.7499C107.39 18.2399 106.5 18.4699 105.62 18.4699C103.93 18.4699 102.28 17.6099 101.34 16.0499Z" fill="black"/>
<path d="M99.1003 13.65C97.0403 11.81 96.8603 8.65001 98.7003 6.59001C100.54 4.53001 103.7 4.35001 105.76 6.19001C107.82 8.03001 108 11.19 106.16 13.25C105.17 14.36 103.8 14.92 102.43 14.92C101.24 14.92 100.05 14.5 99.1003 13.65Z" fill="black"/>
<path d="M90.2702 10.03C87.5202 9.77 85.5102 7.32 85.7802 4.58C86.0502 1.83 88.4902 -0.179996 91.2402 0.0800039C93.9902 0.350004 96.0002 2.79 95.7302 5.54C95.4802 8.13 93.3002 10.06 90.7602 10.06C90.6002 10.06 90.4402 10.05 90.2702 10.03Z" fill="black"/>
<path d="M82.5901 5.16004C82.5301 2.39004 84.7301 0.110043 87.4901 0.0600435C90.2501 0.0100435 92.5301 2.20004 92.5901 4.96004C92.6401 7.72004 90.4401 10 87.6801 10.06H87.5801C84.8701 10.06 82.6401 7.88004 82.5901 5.16004Z" fill="black"/>
<path d="M75.2102 5.31006C75.1502 2.55006 77.3502 0.270061 80.1102 0.210061C82.8702 0.150061 85.1502 2.35006 85.2102 5.11006C85.2602 7.87006 83.0702 10.1501 80.3102 10.2101H80.2002C77.4902 10.2101 75.2702 8.03006 75.2102 5.31006Z" fill="black"/>
<path d="M73.1204 6.27006C72.6404 3.55006 74.4704 0.960062 77.1904 0.490062C79.9104 0.0200619 82.5004 1.84006 82.9704 4.56006C83.4404 7.28006 81.6204 9.87006 78.9004 10.3401C78.6104 10.3901 78.3204 10.4201 78.0404 10.4201C75.6504 10.4201 73.5404 8.70006 73.1204 6.27006Z" fill="black"/>
<path d="M63.3197 7.85996C62.8697 5.13996 64.7097 2.55996 67.4397 2.10996C70.1597 1.65996 72.7397 3.49996 73.1897 6.21996C73.6397 8.94996 71.7997 11.52 69.0697 11.97C68.7997 12.02 68.5197 12.04 68.2497 12.04C65.8497 12.04 63.7297 10.31 63.3197 7.85996Z" fill="black"/>
<path d="M60.1197 7.70998C59.8997 4.94998 61.9497 2.53998 64.6997 2.31998C67.4497 2.08998 69.8597 4.13998 70.0897 6.88998C70.3097 9.63998 68.2697 12.06 65.5197 12.28C65.3797 12.3 65.2397 12.3 65.0997 12.3C62.5197 12.3 60.3397 10.32 60.1197 7.70998Z" fill="black"/>
<path d="M52.5201 8.86003C52.1801 6.12003 54.1201 3.63003 56.8601 3.29003C59.6001 2.94003 62.1001 4.89003 62.4401 7.63003C62.7801 10.37 60.8401 12.87 58.1001 13.21C57.8901 13.23 57.6801 13.25 57.4701 13.25C54.9901 13.25 52.8301 11.39 52.5201 8.86003Z" fill="black"/>
<path d="M42.7103 10.24C42.2603 7.51995 44.1003 4.93995 46.8203 4.48995C49.5503 4.03995 52.1203 5.87995 52.5703 8.60995C53.0303 11.33 51.1803 13.91 48.4603 14.36C48.1803 14.4 47.9103 14.42 47.6403 14.42C45.2303 14.42 43.1103 12.69 42.7103 10.24Z" fill="black"/>
<path d="M35.9798 10.85C35.7298 8.09999 37.7598 5.66999 40.5098 5.41999C43.2598 5.16999 45.6898 7.19999 45.9398 9.94999C46.1898 12.7 44.1698 15.13 41.4198 15.38C41.2598 15.39 41.1098 15.4 40.9598 15.4C38.3998 15.4 36.2198 13.45 35.9798 10.85Z" fill="black"/>
<path d="M25.0704 13.62C24.4604 10.93 26.1404 8.25 28.8304 7.63C31.5204 7.01 34.2004 8.7 34.8204 11.39C35.4404 14.08 33.7604 16.76 31.0604 17.38C30.6904 17.46 30.3104 17.51 29.9404 17.51C27.6604 17.51 25.6004 15.94 25.0704 13.62Z" fill="black"/>
<path d="M15.0402 17.14C13.8802 14.63 14.9802 11.66 17.4902 10.51C20.0002 9.36004 22.9702 10.46 24.1202 12.97C25.2802 15.48 24.1802 18.45 21.6702 19.6C20.9902 19.91 20.2802 20.06 19.5802 20.06C17.6902 20.06 15.8802 18.97 15.0402 17.14Z" fill="black"/>
<path d="M11.2296 18.9001C10.0696 16.3901 11.1696 13.4301 13.6796 12.2701C16.1896 11.1101 19.1596 12.2101 20.3096 14.7201C21.4696 17.2301 20.3696 20.2001 17.8596 21.3501C17.1896 21.6601 16.4796 21.8101 15.7796 21.8101C13.8796 21.8101 12.0696 20.7301 11.2296 18.9001Z" fill="black"/>
<path d="M8.75048 22.5C7.03048 20.34 7.39048 17.19 9.55048 15.47C11.7105 13.75 14.8505 14.11 16.5705 16.27C18.2905 18.43 17.9405 21.57 15.7805 23.29C14.8605 24.03 13.7605 24.38 12.6705 24.38C11.1905 24.38 9.74048 23.74 8.75048 22.5Z" fill="black"/>
<path d="M5.07989 29.84C2.63989 28.55 1.70989 25.53 2.99989 23.09C4.28989 20.65 7.30989 19.71 9.74989 21C12.1999 22.29 13.1299 25.32 11.8399 27.76C10.9399 29.46 9.20989 30.42 7.40989 30.42C6.62989 30.42 5.82989 30.24 5.07989 29.84Z" fill="black"/>
<path d="M0.250042 36.67C-0.279958 33.96 1.49004 31.34 4.20004 30.81C6.91004 30.29 9.54004 32.06 10.06 34.77C10.59 37.48 8.82004 40.1 6.11004 40.63C5.79004 40.69 5.47004 40.72 5.15004 40.72C2.80004 40.72 0.710042 39.06 0.250042 36.67Z" fill="black"/>
<path d="M3.32996 45.19C1.97996 42.79 2.82996 39.74 5.22996 38.38C7.63996 37.03 10.69 37.88 12.04 40.28C13.4 42.69 12.55 45.74 10.14 47.09C9.36996 47.53 8.51996 47.74 7.68996 47.74C5.94996 47.74 4.24996 46.82 3.32996 45.19Z" fill="black"/>
<path d="M8.40008 50.9301C6.43008 48.9901 6.40008 45.8301 8.33008 43.8601C10.2601 41.8801 13.4301 41.8501 15.4001 43.7801C17.3801 45.7101 17.4101 48.8801 15.4801 50.8501C14.5001 51.8501 13.2001 52.3501 11.9001 52.3501C10.6401 52.3501 9.38008 51.8801 8.40008 50.9301Z" fill="black"/>
<path d="M15.1 54.9801C12.52 53.9901 11.23 51.1001 12.22 48.5201C13.2 45.9401 16.09 44.6501 18.67 45.6301C21.25 46.6201 22.54 49.5101 21.56 52.0901C20.8 54.0801 18.9 55.3101 16.89 55.3101C16.29 55.3101 15.69 55.2001 15.1 54.9801Z" fill="black"/>
<path d="M20.1903 51.9399C20.1403 49.1799 22.3303 46.9 25.0903 46.84C27.8503 46.79 30.1403 48.98 30.1903 51.74C30.2503 54.5 28.0503 56.78 25.2903 56.84H25.1903C22.4703 56.84 20.2503 54.6599 20.1903 51.9399Z" fill="black"/>
<path d="M22.4405 52.66C22.0205 49.93 23.9005 47.38 26.6305 46.96C29.3605 46.54 31.9105 48.41 32.3305 51.14C32.7505 53.87 30.8705 56.42 28.1405 56.84C27.8905 56.88 27.6305 56.9001 27.3805 56.9001C24.9505 56.9001 22.8205 55.13 22.4405 52.66Z" fill="black"/>
<path d="M26.3403 52.35C25.6303 49.68 27.2303 46.94 29.9003 46.24C32.5703 45.53 35.3003 47.13 36.0103 49.8C36.7103 52.47 35.1203 55.2 32.4503 55.91C32.0203 56.02 31.5903 56.07 31.1703 56.07C28.9503 56.07 26.9303 54.59 26.3403 52.35Z" fill="black"/>
<path d="M35.0801 49.96C34.6401 47.24 36.5001 44.68 39.2301 44.24C41.9601 43.81 44.5201 45.66 44.9501 48.39C45.3901 51.12 43.5301 53.68 40.8001 54.12C40.5401 54.16 40.2701 54.18 40.0101 54.18C37.6001 54.18 35.4701 52.43 35.0801 49.96Z" fill="black"/>
<path d="M42.7502 48.7C42.0602 46.03 43.6602 43.3 46.3402 42.6C49.0102 41.91 51.7402 43.52 52.4302 46.19C53.1202 48.86 51.5202 51.59 48.8502 52.29C48.4302 52.39 48.0002 52.45 47.5902 52.45C45.3702 52.45 43.3402 50.95 42.7502 48.7Z" fill="black"/>
<path d="M53.4799 46.5C52.5599 43.9 53.9199 41.04 56.5299 40.12C59.1299 39.2 61.9899 40.56 62.9099 43.16C63.8299 45.76 62.4699 48.62 59.8699 49.54C59.3199 49.74 58.7499 49.83 58.1999 49.83C56.1399 49.83 54.2099 48.55 53.4799 46.5Z" fill="black"/>
<path d="M61.0898 44.38C60.4498 41.69 62.1198 39 64.8098 38.36C67.4898 37.73 70.1898 39.39 70.8198 42.08C71.4498 44.77 69.7898 47.46 67.0998 48.09C66.7198 48.18 66.3298 48.23 65.9498 48.23C63.6798 48.23 61.6298 46.68 61.0898 44.38Z" fill="black"/>
<path d="M67.6699 42.8201C67.0299 40.1301 68.6999 37.4401 71.3799 36.8001C74.0699 36.1701 76.7699 37.8401 77.3999 40.5201C78.0399 43.2101 76.3699 45.9001 73.6799 46.5401C73.2999 46.6301 72.9099 46.6701 72.5299 46.6701C70.2599 46.6701 68.2099 45.1201 67.6699 42.8201Z" fill="black"/>
<path d="M73.62 45.83C72.57 43.28 73.79 40.36 76.34 39.3C78.89 38.25 81.81 39.46 82.87 42.02C83.92 44.57 82.71 47.49 80.15 48.55C79.53 48.8 78.88 48.93 78.25 48.93C76.28 48.93 74.42 47.76 73.62 45.83Z" fill="black"/>
<path d="M73.7901 46.65C73.5601 43.9 75.6101 41.48 78.3601 41.26C81.1101 41.03 83.5301 43.07 83.7601 45.82C83.9801 48.58 81.9401 50.99 79.1901 51.22C79.0501 51.23 78.9101 51.24 78.7701 51.24C76.1901 51.24 74.0101 49.26 73.7901 46.65Z" fill="black"/>
<path d="M76.1396 60.96C73.4196 60.47 71.6096 57.87 72.0996 55.15C72.5796 52.44 75.1796 50.63 77.8996 51.12C80.6196 51.6 82.4296 54.2 81.9396 56.92C81.5096 59.34 79.3996 61.04 77.0196 61.04C76.7296 61.04 76.4296 61.01 76.1396 60.96Z" fill="black"/>
<path d="M72.4297 64.13C71.2397 61.64 72.2797 58.65 74.7697 57.45C77.2597 56.25 80.2497 57.3 81.4397 59.79C82.6397 62.28 81.5897 65.26 79.1097 66.46C78.4097 66.8 77.6697 66.96 76.9397 66.96C75.0797 66.96 73.2997 65.92 72.4297 64.13Z" fill="black"/>
<path d="M72.9899 67.76C71.8899 65.23 73.0599 62.28 75.5899 61.19C78.1299 60.09 81.0699 61.26 82.1699 63.79C83.2599 66.33 82.0899 69.27 79.5599 70.37C78.9099 70.64 78.2399 70.78 77.5799 70.78C75.6399 70.78 73.7999 69.65 72.9899 67.76Z" fill="black"/>
<path d="M70.2997 66.83C68.5097 64.72 68.7697 61.56 70.8697 59.78C72.9797 57.99 76.1397 58.25 77.9197 60.36C79.7097 62.47 79.4497 65.62 77.3397 67.41C76.3997 68.2 75.2497 68.59 74.1097 68.59C72.6897 68.59 71.2797 67.99 70.2997 66.83Z" fill="black"/>
<path d="M61.8597 61.01C59.4397 59.68 58.5697 56.64 59.8997 54.22C61.2397 51.8 64.2797 50.92 66.6897 52.26C69.1097 53.59 69.9897 56.63 68.6597 59.05C67.7497 60.7 66.0396 61.64 64.2696 61.64C63.4596 61.64 62.6297 61.43 61.8597 61.01Z" fill="black"/>
<path d="M56.9103 58.35C54.2903 57.48 52.8703 54.65 53.7403 52.03C54.6103 49.41 57.4403 47.99 60.0603 48.86C62.6803 49.73 64.1003 52.56 63.2303 55.18C62.5403 57.28 60.5803 58.61 58.4903 58.61C57.9703 58.61 57.4403 58.52 56.9103 58.35Z" fill="black"/>
<path d="M41.0404 51.9399C40.8504 49.1899 42.9304 46.7999 45.6804 46.6099C48.4404 46.4199 50.8304 48.4999 51.0204 51.2599C51.2004 54.0099 49.1204 56.3999 46.3704 56.5899C46.2504 56.5999 46.1304 56.5999 46.0204 56.5999C43.4204 56.5999 41.2204 54.5799 41.0404 51.9399Z" fill="black"/>
<path d="M38.5999 52.12C38.4099 49.36 40.4999 46.97 43.2499 46.78C45.9999 46.59 48.3899 48.67 48.5799 51.43C48.7699 54.18 46.6899 56.57 43.9399 56.76C43.8199 56.77 43.7099 56.77 43.5899 56.77C40.9899 56.77 38.7899 54.75 38.5999 52.12Z" fill="black"/>
<path d="M31.4802 55.64C30.4902 53.07 31.7702 50.17 34.3502 49.18C36.9302 48.19 39.8202 49.47 40.8102 52.05C41.8102 54.62 40.5202 57.52 37.9502 58.51C37.3502 58.74 36.7502 58.84 36.1502 58.84C34.1402 58.84 32.2502 57.63 31.4802 55.64Z" fill="black"/>
<path d="M22.2998 63.6C20.4398 61.56 20.5798 58.4 22.6098 56.54C24.6498 54.67 27.8098 54.81 29.6798 56.85C31.5398 58.88 31.3998 62.05 29.3598 63.91C28.4098 64.79 27.1998 65.22 25.9898 65.22C24.6398 65.22 23.2898 64.68 22.2998 63.6Z" fill="black"/>
<path d="M18.33 70.73C16.0201 69.2 15.39 66.1 16.91 63.8C18.43 61.49 21.5401 60.86 23.8401 62.38C26.1401 63.9 26.7801 67.01 25.2601 69.31C24.2901 70.76 22.7 71.55 21.08 71.55C20.1301 71.55 19.1801 71.29 18.33 70.73Z" fill="black"/>
<path d="M17.5602 79.86C14.8602 79.3 13.1202 76.65 13.6902 73.94C14.2502 71.24 16.9002 69.51 19.6102 70.07C22.3102 70.64 24.0402 73.29 23.4802 75.99C22.9802 78.35 20.9102 79.97 18.5902 79.97C18.2502 79.97 17.9002 79.93 17.5602 79.86Z" fill="black"/>
<path d="M15.9604 87.5999C13.2604 87.0399 11.5204 84.39 12.0804 81.69C12.6404 78.98 15.2904 77.2499 17.9904 77.8099C20.7004 78.3699 22.4304 81.01 21.8704 83.72C21.3804 86.08 19.3004 87.6999 16.9804 87.6999C16.6504 87.6999 16.3104 87.6699 15.9604 87.5999Z" fill="black"/>
<path d="M10.9599 99.07C10.8399 96.32 12.9799 93.98 15.7399 93.86C18.4999 93.73 20.8299 95.87 20.9599 98.63C21.0799 101.39 18.9399 103.72 16.1799 103.85H15.9599C13.2999 103.85 11.0799 101.76 10.9599 99.07Z" fill="black"/>
<path d="M11.2497 103.58C10.8797 100.85 12.7997 98.3299 15.5397 97.9499C18.2697 97.5799 20.7897 99.4999 21.1697 102.24C21.5397 104.97 19.6197 107.49 16.8797 107.86C16.6497 107.9 16.4297 107.91 16.1997 107.91C13.7397 107.91 11.5997 106.09 11.2497 103.58Z" fill="black"/>
<path d="M12.0302 109.26C11.6602 106.53 13.5702 104 16.3102 103.63C19.0402 103.25 21.5702 105.17 21.9402 107.9C22.3102 110.64 20.4002 113.16 17.6702 113.54C17.4302 113.57 17.2102 113.58 16.9802 113.58C14.5202 113.58 12.3802 111.77 12.0302 109.26Z" fill="black"/>
<path d="M19.5904 134.81C18.2204 132.41 19.0604 129.36 21.4604 127.99C23.8604 126.63 26.9204 127.46 28.2804 129.86C29.6504 132.26 28.8104 135.32 26.4104 136.68C25.6304 137.13 24.7804 137.34 23.9404 137.34C22.2004 137.34 20.5104 136.43 19.5904 134.81Z" fill="black"/>
<path d="M25.6304 143.35C23.7404 141.34 23.8404 138.18 25.8504 136.29C27.8704 134.4 31.0304 134.5 32.9204 136.51C34.8104 138.52 34.7204 141.69 32.7004 143.58C31.7404 144.48 30.5104 144.93 29.2804 144.93C27.9504 144.93 26.6204 144.4 25.6304 143.35Z" fill="black"/>
<path d="M27.2697 145.1C25.3797 143.09 25.4697 139.92 27.4897 138.03C29.4897 136.13 32.6597 136.23 34.5497 138.24C36.4497 140.25 36.3497 143.42 34.3397 145.31C33.3797 146.22 32.1397 146.67 30.9197 146.67C29.5897 146.67 28.2597 146.14 27.2697 145.1Z" fill="black"/>
<path d="M32.6105 150.47C30.6605 148.51 30.6805 145.35 32.6405 143.4C34.6005 141.46 37.7605 141.47 39.7105 143.43C41.6505 145.39 41.6405 148.56 39.6805 150.5C38.7005 151.47 37.4305 151.95 36.1605 151.95C34.8705 151.95 33.5805 151.46 32.6105 150.47Z" fill="black"/>
<path d="M38.3596 154.61C36.1396 152.97 35.6796 149.84 37.3296 147.62C38.9696 145.4 42.0996 144.94 44.3196 146.58C46.5396 148.23 46.9996 151.36 45.3596 153.58C44.3696 154.9 42.8696 155.6 41.3396 155.6C40.2996 155.6 39.2596 155.28 38.3596 154.61Z" fill="black"/>
<path d="M43.2003 156.94C40.7803 155.62 39.9003 152.58 41.2303 150.16C42.5603 147.74 45.6003 146.85 48.0203 148.18C50.4403 149.51 51.3203 152.55 49.9903 154.97C49.0803 156.63 47.3703 157.56 45.6003 157.56C44.7903 157.56 43.9603 157.36 43.2003 156.94Z" fill="black"/>
<path d="M53.5505 160.51C50.8905 159.75 49.3405 156.99 50.1005 154.33C50.8505 151.67 53.6105 150.13 56.2705 150.88C58.9305 151.63 60.4705 154.4 59.7205 157.05C59.1005 159.26 57.0905 160.7 54.9105 160.7C54.4605 160.7 54.0005 160.63 53.5505 160.51Z" fill="black"/>
<path d="M62.2098 157.38C61.6098 154.69 63.2998 152.01 65.9998 151.41C68.6898 150.81 71.3698 152.51 71.9698 155.2C72.5698 157.9 70.8798 160.57 68.1798 161.17C67.8098 161.26 67.4498 161.29 67.0898 161.29C64.7998 161.29 62.7298 159.71 62.2098 157.38Z" fill="black"/>
<path d="M66.9605 156.32C66.3505 153.63 68.0405 150.95 70.7405 150.35C73.4305 149.74 76.1105 151.44 76.7105 154.13C77.3205 156.82 75.6205 159.5 72.9305 160.1C72.5605 160.19 72.1905 160.23 71.8305 160.23C69.5405 160.23 67.4805 158.65 66.9605 156.32Z" fill="black"/>
<path d="M77.9402 154.15C76.4502 151.82 77.1302 148.73 79.4602 147.24C81.7902 145.76 84.8802 146.44 86.3702 148.77C87.8502 151.09 87.1702 154.19 84.8402 155.67C84.0102 156.2 83.0802 156.46 82.1602 156.46C80.5102 156.46 78.8902 155.64 77.9402 154.15Z" fill="black"/>
<path d="M83.1803 150.8C81.7003 148.47 82.3803 145.38 84.7003 143.89C87.0303 142.41 90.1203 143.09 91.6103 145.42C93.1003 147.74 92.4203 150.84 90.0903 152.32C89.2503 152.85 88.3203 153.11 87.4003 153.11C85.7503 153.11 84.1403 152.29 83.1803 150.8Z" fill="black"/>
<path d="M89.4803 146.75C87.5503 144.77 87.5902 141.6 89.5702 139.68C91.5502 137.75 94.7202 137.8 96.6402 139.78C98.5702 141.76 98.5202 144.92 96.5402 146.85C95.5702 147.79 94.3202 148.26 93.0602 148.26C91.7602 148.26 90.4603 147.76 89.4803 146.75Z" fill="black"/>
<path d="M91.2596 145C89.3496 143.01 89.3996 139.84 91.3896 137.93C93.3896 136.01 96.5496 136.07 98.4696 138.06C100.38 140.05 100.32 143.22 98.3296 145.13C97.3596 146.06 96.1096 146.53 94.8596 146.53C93.5496 146.53 92.2396 146.02 91.2596 145Z" fill="black"/>
<path d="M93.8705 143.17C91.6605 141.51 91.2205 138.37 92.8805 136.17C94.5405 133.96 97.6805 133.52 99.8905 135.18C102.091 136.84 102.531 139.98 100.871 142.18C99.8905 143.49 98.3905 144.18 96.8705 144.18C95.8205 144.18 94.7705 143.85 93.8705 143.17Z" fill="black"/>
<path d="M98.0596 137.59C95.8496 135.94 95.3997 132.8 97.0497 130.59C98.6997 128.38 101.83 127.92 104.04 129.58C106.26 131.23 106.71 134.36 105.06 136.57C104.08 137.89 102.57 138.58 101.05 138.58C100.01 138.58 98.9596 138.26 98.0596 137.59Z" fill="black"/>
<path d="M101.04 137.83C98.3896 137.02 96.9096 134.22 97.7196 131.58C98.5296 128.94 101.32 127.45 103.96 128.26C106.6 129.07 108.09 131.87 107.28 134.51C106.62 136.66 104.64 138.05 102.5 138.05C102.02 138.05 101.52 137.98 101.04 137.83Z" fill="black"/>
<path d="M98.6503 135.89C97.5003 133.74 98.0702 131.01 100.1 129.52C102.33 127.89 105.46 128.37 107.09 130.59C107.35 130.95 107.59 131.33 107.83 131.85C108.05 132.38 108.34 133 108.37 134.24C108.37 137 106.13 139.24 103.37 139.24C101.19 139.24 99.3303 137.84 98.6503 135.89Z" fill="black"/>
<path d="M98.4703 142.16C98.4303 139.4 100.64 137.13 103.4 137.1C106.16 137.06 108.43 139.27 108.46 142.03C108.5 144.79 106.29 147.06 103.53 147.1H103.47C100.73 147.1 98.5003 144.9 98.4703 142.16Z" fill="black"/>
<path d="M99.1297 148.4C98.8297 145.66 100.81 143.18 103.55 142.88C106.3 142.58 108.77 144.55 109.07 147.3C109.38 150.04 107.4 152.51 104.66 152.82C104.47 152.84 104.28 152.85 104.1 152.85C101.58 152.85 99.4197 150.96 99.1297 148.4Z" fill="black"/>
<path d="M100.471 155.4C99.0905 153.01 99.9105 149.95 102.311 148.57C104.701 147.19 107.751 148.01 109.131 150.41C110.511 152.8 109.691 155.86 107.301 157.24C106.511 157.69 105.651 157.9 104.811 157.9C103.081 157.9 101.391 157 100.471 155.4Z" fill="black"/>
<path d="M104.54 161.6C102.63 159.6 102.7 156.44 104.69 154.53C106.68 152.62 109.85 152.68 111.76 154.68C113.67 156.67 113.6 159.83 111.61 161.74C110.64 162.67 109.4 163.14 108.15 163.14C106.84 163.14 105.52 162.62 104.54 161.6Z" fill="black"/>
<path d="M114.1 165.87C111.34 165.69 109.25 163.31 109.43 160.55C109.61 157.8 111.99 155.71 114.74 155.89C117.5 156.07 119.59 158.45 119.41 161.2C119.24 163.85 117.04 165.88 114.43 165.88C114.32 165.88 114.21 165.88 114.1 165.88V165.87Z" fill="black"/>
<path d="M112.18 161.17C111.74 158.45 113.6 155.88 116.33 155.45C119.05 155.02 121.62 156.88 122.05 159.6C122.48 162.33 120.63 164.89 117.9 165.33C117.63 165.37 117.37 165.39 117.11 165.39C114.69 165.39 112.57 163.63 112.18 161.17Z" fill="black"/>
<path d="M115.49 160.64C115.07 157.91 116.95 155.36 119.68 154.94C122.41 154.52 124.96 156.4 125.38 159.13C125.79 161.86 123.92 164.41 121.19 164.82C120.93 164.86 120.68 164.88 120.43 164.88C118 164.88 115.87 163.11 115.49 160.64Z" fill="black"/>
<path d="M116.93 162.03C115.6 159.66 116.42 156.66 118.75 155.28C118.75 155.28 118.87 155.19 118.98 155.11C121.16 153.42 124.3 153.82 125.99 156C127.68 158.19 127.28 161.33 125.1 163.02C124.82 163.22 124.43 163.55 123.74 163.95C122.96 164.38 122.12 164.59 121.3 164.59C119.55 164.59 117.85 163.67 116.93 162.03Z" fill="black"/>
<path d="M121.02 152.38C120.78 149.63 122.82 147.21 125.57 146.96C128.32 146.72 130.74 148.76 130.99 151.51C131.23 154.26 129.19 156.69 126.44 156.93C126.29 156.94 126.14 156.95 126 156.95C123.44 156.95 121.25 154.98 121.02 152.38Z" fill="black"/>
<path d="M120.57 147.1C120.34 144.34 122.38 141.92 125.13 141.69C127.88 141.46 130.31 143.5 130.54 146.25C130.77 149 128.73 151.42 125.98 151.65C125.84 151.67 125.69 151.67 125.55 151.67C122.98 151.67 120.79 149.7 120.57 147.1Z" fill="black"/>
<path d="M93.5098 106.19C90.8498 105.42 89.3198 102.65 90.0898 100C90.8498 97.35 93.6198 95.82 96.2798 96.58C98.9298 97.35 100.46 100.12 99.6998 102.77C99.0598 104.96 97.0698 106.39 94.8898 106.39C94.4398 106.39 93.9698 106.32 93.5098 106.19Z" fill="black"/>
<path d="M91.1001 110.1C88.5001 109.15 87.1701 106.29 88.1101 103.69C89.0601 101.1 91.9201 99.76 94.5201 100.7C97.1101 101.65 98.4501 104.52 97.5101 107.11C96.7701 109.14 94.8501 110.4 92.8101 110.4C92.2401 110.4 91.6601 110.3 91.1001 110.1Z" fill="black"/>
<path d="M87.4397 115.52C85.0497 114.14 84.2297 111.09 85.5997 108.69C86.9797 106.3 90.0397 105.47 92.4297 106.85C94.8297 108.23 95.6497 111.28 94.2697 113.68C93.3497 115.29 91.6597 116.18 89.9297 116.18C89.0897 116.18 88.2297 115.97 87.4397 115.52Z" fill="black"/>
<path d="M83.6496 119.93C81.6596 118.01 81.6096 114.84 83.5396 112.86C85.4596 110.87 88.6196 110.82 90.6096 112.75C92.5896 114.67 92.6396 117.83 90.7196 119.82C89.7396 120.83 88.4296 121.34 87.1296 121.34C85.8696 121.34 84.6196 120.87 83.6496 119.93Z" fill="black"/>
<path d="M82.5299 122.99C80.3499 121.31 79.9299 118.17 81.6199 115.98C83.2999 113.79 86.4399 113.38 88.6299 115.06C90.8199 116.75 91.2299 119.89 89.5499 122.08C88.5599 123.36 87.0799 124.03 85.5799 124.03C84.5099 124.03 83.4399 123.69 82.5299 122.99Z" fill="black"/>
<path d="M80.6298 126.75C78.2698 125.32 77.5198 122.24 78.9598 119.88C80.3898 117.52 83.4698 116.77 85.8298 118.21C88.1898 119.64 88.9398 122.72 87.4998 125.08C86.5598 126.62 84.9098 127.48 83.2298 127.48C82.3398 127.48 81.4398 127.25 80.6298 126.75Z" fill="black"/>
<path d="M77.5602 128.85C75.4902 127.02 75.3002 123.86 77.1402 121.79C78.9702 119.73 82.1302 119.54 84.1902 121.37C86.2602 123.2 86.4502 126.36 84.6202 128.43C83.6302 129.54 82.2502 130.11 80.8702 130.11C79.6902 130.11 78.5102 129.69 77.5602 128.85Z" fill="black"/>
<path d="M73.2399 131.16C71.6499 128.9 72.1899 125.78 74.4499 124.19C76.7099 122.6 79.8299 123.14 81.4199 125.4C83.0099 127.66 82.4599 130.78 80.2099 132.37C79.3299 132.98 78.3299 133.28 77.3299 133.28C75.7599 133.28 74.2099 132.54 73.2399 131.16Z" fill="black"/>
<path d="M70.43 133.11C68.85 130.85 69.4 127.73 71.66 126.15C73.92 124.56 77.04 125.11 78.62 127.38C80.21 129.64 79.66 132.76 77.39 134.34C76.52 134.95 75.52 135.24 74.53 135.24C72.96 135.24 71.4 134.5 70.43 133.11Z" fill="black"/>
<path d="M67.3399 135.32C65.7499 133.07 66.2799 129.95 68.5399 128.35C70.7899 126.76 73.9099 127.3 75.5099 129.55C77.0999 131.8 76.5699 134.92 74.3099 136.52C73.4399 137.14 72.4299 137.44 71.4299 137.44C69.8599 137.44 68.3199 136.7 67.3399 135.32Z" fill="black"/>
<path d="M57.98 134.56C57.76 131.81 59.81 129.4 62.56 129.18C65.31 128.96 67.73 131.01 67.95 133.76C68.17 136.51 66.12 138.92 63.36 139.15C63.23 139.15 63.09 139.15 62.96 139.15C60.38 139.15 58.19 137.17 57.98 134.55V134.56Z" fill="black"/>
<path d="M58.5196 138.56C55.7596 138.46 53.5996 136.14 53.6996 133.38C53.7996 130.62 56.1196 128.47 58.8796 128.57C61.6396 128.67 63.7896 130.98 63.6896 133.74C63.5996 136.44 61.3796 138.56 58.6996 138.56H58.5196Z" fill="black"/>
<path d="M50.6203 136.04C48.4303 134.36 48.0103 131.22 49.7003 129.03C51.3703 126.83 54.5103 126.42 56.7003 128.1C58.9003 129.78 59.3103 132.92 57.6303 135.11C56.6503 136.39 55.1603 137.07 53.6603 137.07C52.6003 137.07 51.5303 136.73 50.6203 136.04Z" fill="black"/>
<path d="M46.1703 132.63C43.9703 130.95 43.5603 127.81 45.2303 125.62C46.9103 123.43 50.0503 123.01 52.2403 124.69C54.4403 126.37 54.8603 129.51 53.1803 131.7C52.1903 132.98 50.7103 133.66 49.2003 133.66C48.1403 133.66 47.0703 133.32 46.1703 132.63Z" fill="black"/>
<path d="M37.7998 121.51C37.2698 118.8 39.0398 116.17 41.7498 115.65C44.4598 115.12 47.0898 116.89 47.6098 119.6C48.1398 122.31 46.3698 124.93 43.6598 125.46C43.3398 125.52 43.0198 125.55 42.6998 125.55C40.3498 125.55 38.2598 123.9 37.7998 121.51Z" fill="black"/>
<path d="M35.3002 117.47C34.2002 114.94 35.3602 111.99 37.8902 110.88C40.4202 109.78 43.3702 110.94 44.4702 113.47C45.5702 116 44.4102 118.95 41.8802 120.05C41.2302 120.34 40.5602 120.47 39.8902 120.47C37.9602 120.47 36.1202 119.35 35.3002 117.47Z" fill="black"/>
<path d="M32.3103 107.23C31.9003 104.5 33.7703 101.95 36.5003 101.54C39.2303 101.12 41.7803 103 42.2003 105.73C42.6103 108.46 40.7303 111.01 38.0003 111.42C37.7503 111.46 37.5003 111.48 37.2503 111.48C34.8203 111.48 32.6903 109.7 32.3103 107.23Z" fill="black"/>
<path d="M35.3102 97.25C32.5602 96.97 30.5602 94.51 30.8502 91.76C31.1202 89.02 33.5802 87.02 36.3302 87.3C39.0702 87.58 41.0702 90.04 40.7902 92.78C40.5302 95.36 38.3602 97.27 35.8202 97.27C35.6502 97.27 35.4802 97.27 35.3102 97.25Z" fill="black"/>
<path d="M35.8299 86.31C33.2599 85.27 32.0198 82.36 33.0498 79.8C34.0798 77.24 36.9999 76 39.5599 77.03C42.1199 78.06 43.3599 80.97 42.3299 83.53C41.5499 85.48 39.6698 86.67 37.6898 86.67C37.0698 86.67 36.4399 86.55 35.8299 86.31Z" fill="black"/>
<path d="M37.5798 79.3499C35.8198 77.2199 36.1198 74.0699 38.2398 72.3099C40.3698 70.5499 43.5198 70.8499 45.2798 72.9799C47.0398 75.0999 46.7498 78.2599 44.6198 80.0199C43.6798 80.7899 42.5598 81.1599 41.4298 81.1599C39.9998 81.1599 38.5698 80.5499 37.5798 79.3499Z" fill="black"/>
<path d="M40.6303 76.2401C39.5203 73.7101 40.6803 70.7601 43.2103 69.6601C45.7403 68.5501 48.6903 69.7101 49.7903 72.2401C50.9003 74.7701 49.7403 77.7201 47.2103 78.8201C46.5603 79.1101 45.8803 79.2401 45.2103 79.2401C43.2803 79.2401 41.4503 78.1201 40.6303 76.2401Z" fill="black"/>
<path d="M48.2397 79.1C45.7497 77.9 44.6997 74.92 45.8897 72.43C47.0897 69.94 50.0697 68.89 52.5597 70.08C55.0497 71.27 56.0997 74.26 54.9097 76.75C54.0497 78.54 52.2597 79.59 50.3997 79.59C49.6697 79.59 48.9397 79.43 48.2397 79.1Z" fill="black"/>
<path d="M51.4401 80.51C49.1301 78.99 48.4901 75.89 50.0001 73.58C51.5101 71.27 54.6101 70.63 56.9201 72.14C59.2301 73.66 59.8801 76.76 58.3601 79.06C57.4001 80.53 55.8001 81.32 54.1701 81.32C53.2301 81.32 52.2801 81.06 51.4401 80.51Z" fill="black"/>
<path d="M55.3596 83.08C52.8996 81.81 51.9296 78.8 53.1896 76.34C54.4496 73.89 57.4696 72.92 59.9196 74.18C62.3796 75.44 63.3496 78.45 62.0896 80.91C61.1996 82.63 59.4496 83.63 57.6296 83.63C56.8696 83.63 56.0896 83.45 55.3596 83.08Z" fill="black"/>
<path d="M57.9905 85.26C55.7105 83.69 55.1305 80.58 56.7005 78.3C58.2705 76.03 61.3805 75.45 63.6505 77.02C65.9305 78.59 66.5005 81.7 64.9405 83.97C63.9705 85.38 62.4005 86.14 60.8105 86.14C59.8405 86.14 58.8505 85.85 57.9905 85.26Z" fill="black"/>
<path d="M61.8101 87.89C59.5401 86.33 58.9601 83.21 60.5301 80.94C62.1001 78.67 65.2101 78.1 67.4901 79.66C69.7601 81.23 70.3302 84.35 68.7601 86.62C67.7901 88.02 66.2301 88.78 64.6401 88.78C63.6701 88.78 62.6801 88.49 61.8101 87.89Z" fill="black"/>
<path d="M65.9303 90.7301C63.6603 89.1701 63.0803 86.0501 64.6503 83.7801C66.2103 81.5001 69.3203 80.9301 71.6003 82.4901C73.8703 84.0601 74.4503 87.1701 72.8803 89.4501C71.9103 90.8601 70.3503 91.6101 68.7603 91.6101C67.7803 91.6101 66.8003 91.3301 65.9303 90.7301Z" fill="black"/>
<path d="M70.1996 92.83C67.6596 91.74 66.4896 88.79 67.5796 86.26C68.6796 83.72 71.6196 82.55 74.1496 83.64C76.6896 84.74 77.8596 87.68 76.7696 90.21C75.9496 92.11 74.1096 93.24 72.1696 93.24C71.5096 93.24 70.8396 93.11 70.1996 92.83Z" fill="black"/>
<path d="M75.9503 90.4C75.7403 87.65 77.8003 85.25 80.5503 85.04C83.3103 84.82 85.7103 86.88 85.9203 89.64C86.1303 92.39 84.0803 94.8 81.3203 95.01C81.1903 95.02 81.0603 95.02 80.9303 95.02C78.3403 95.02 76.1503 93.03 75.9503 90.4Z" fill="black"/>
<path d="M80.69 91.55C79.6 89.02 80.77 86.08 83.31 84.99C85.85 83.9 88.79 85.07 89.88 87.61C90.97 90.15 89.79 93.09 87.25 94.18C86.61 94.45 85.94 94.58 85.29 94.58C83.35 94.58 81.5 93.45 80.69 91.55Z" fill="black"/>
<path d="M86.7397 90.24C84.8497 88.23 84.9397 85.07 86.9397 83.17C88.9497 81.28 92.1197 81.37 94.0097 83.38C95.9097 85.39 95.8197 88.55 93.8097 90.45C92.8397 91.36 91.6097 91.81 90.3797 91.81C89.0497 91.81 87.7197 91.29 86.7397 90.24Z" fill="black"/>
<path d="M90.9304 86.28C89.0104 84.29 89.0604 81.13 91.0504 79.21C93.0304 77.29 96.2004 77.34 98.1204 79.33C100.04 81.31 99.9804 84.48 98.0004 86.4C97.0304 87.34 95.7704 87.8 94.5204 87.8C93.2204 87.8 91.9104 87.29 90.9304 86.28Z" fill="black"/>
<path d="M90.4397 84.1601C89.4997 81.5701 90.8497 78.7001 93.4497 77.7601C94.1297 77.5501 94.5397 77.3601 95.8297 77.3101C98.5897 77.3101 100.83 79.5501 100.83 82.3101C100.83 84.8301 98.9797 86.9001 96.5697 87.2601C96.0897 87.4001 95.6197 87.4701 95.1397 87.4701C93.0897 87.4701 91.1697 86.2001 90.4397 84.1601Z" fill="black"/>
<path d="M92.15 85.26C90.94 83.18 91.39 80.47 93.32 78.89C95.45 77.14 98.6 77.46 100.35 79.59C100.66 79.98 100.94 80.38 101.21 80.92C101.46 81.47 101.77 82.13 101.83 83.35C101.9 86.11 99.72 88.41 96.96 88.48H96.82C94.7 88.48 92.87 87.15 92.15 85.26Z" fill="black"/>
<path d="M91.9904 89.22C91.9104 86.46 94.0804 84.17 96.8404 84.08C99.6004 84.01 101.91 86.18 101.98 88.94C102.06 91.7 99.8904 94 97.1304 94.08H96.9804C94.2904 94.08 92.0704 91.94 91.9904 89.22Z" fill="black"/>
<path d="M94.7102 100.3C92.2702 99.02 91.3402 95.99 92.6202 93.55C93.9102 91.11 96.9402 90.17 99.3802 91.46C101.82 92.75 102.76 95.77 101.47 98.21C100.57 99.91 98.8402 100.88 97.0402 100.88C96.2602 100.88 95.4602 100.7 94.7102 100.3Z" fill="black"/>
<path d="M94.8996 106.38C94.2996 106.38 93.6796 106.27 93.0896 106.04C90.5196 105.04 89.2396 102.14 90.2396 99.57L92.3796 94.07C93.3796 91.5 96.2796 90.22 98.8496 91.23C101.42 92.23 102.7 95.1299 101.69 97.6999L99.5496 103.2C98.7796 105.18 96.8896 106.39 94.8896 106.39L94.8996 106.38Z" fill="black"/>
</g>
</g>
<defs>
<clipPath id="clip0_2553_3222">
<rect width="131.02" height="165.88" fill="white"/>
</clipPath>
</defs>
</svg>
