<svg width="675" height="446" viewBox="0 0 675 446" fill="none" xmlns="http://www.w3.org/2000/svg">
<g clip-path="url(#clip0_2553_4413)">
<mask id="mask0_2553_4413" style="mask-type:luminance" maskUnits="userSpaceOnUse" x="0" y="0" width="675" height="446">
<path d="M674.07 0H0V445.57H674.07V0Z" fill="white"/>
</mask>
<g mask="url(#mask0_2553_4413)">
<path d="M297.67 438.51L287.77 440.48C287.12 440.66 286.62 445.49 285.89 445.49C284.66 445.31 282.45 445.13 281.8 444.15C281.15 443.16 282.37 439.94 283.27 438.86L293.99 425.25L297.67 438.5V438.51Z" fill="#90BEFB"/>
<path d="M76.9402 430.31C76.9402 442.02 69.1202 448.29 62.3702 444.42C62.3702 441.39 62.3002 437.73 62.9802 437.84C70.8002 438.36 68.7102 435.23 76.9402 430.31Z" fill="#90BEFB"/>
<path d="M230.38 409.38C201.25 419.16 223.55 418.11 198.9 410.73C208.85 403.42 212.29 418.49 225.73 403.64C226.88 402.37 229.28 402 230.43 402.45C232.07 403.12 231.85 408.87 230.38 409.39" fill="#90BEFB"/>
<path d="M149.42 4.85996L147.15 6.30996C145.04 7.67996 142.9 10.02 140.93 12.28C137.04 16.8 127.07 11.15 130.62 9.37996C137.44 5.98996 131.71 12.37 138.16 7.59996L148.37 0.0199565C148.83 -0.300044 149.89 4.61996 149.42 4.86996" fill="#90BEFB"/>
<path d="M14.2704 316.04C5.07043 315.44 8.95042 310.61 6.65042 307.35C3.56042 303.06 -4.12958 298.33 2.84042 292.52L10.0204 303.98C12.6804 308.33 14.8304 312.18 14.2604 316.04" fill="#90BEFB"/>
<path d="M334.881 341.48C335.681 349.3 328.341 356.43 320.081 358.2L318.601 353.41C334.701 347.19 325.571 340.69 334.881 341.49" fill="#90BEFB"/>
<path d="M258.341 398.88C244.551 407.67 231.881 414.05 216.641 416.63L229.711 408.32C239.251 406.38 256.011 391.78 258.341 398.88Z" fill="#90BEFB"/>
<path d="M21.5308 330.34C20.6608 330.18 17.8808 329.45 17.3308 328.82L9.35075 319.8C8.36075 318.7 7.12075 316.97 7.12075 316.07C7.06075 314.92 11.2608 314.23 11.6308 314.97L21.5308 326.19C22.0308 326.77 22.3308 330.54 21.5308 330.33" fill="#90BEFB"/>
<path d="M324.81 356.4C317.8 359.19 314.72 367.11 313.67 364.96L311.93 361.35C309.89 357.1 321.73 359.14 324.46 350.23C324.71 349.82 327 351.34 327.54 352.21C328.24 353.32 326 355.93 324.81 356.4Z" fill="#90BEFB"/>
<path d="M78.7101 386.17C78.3601 386.67 75.7101 389.64 74.5201 389.06L68.6501 386.32C62.7101 383.5 59.3501 381.41 53.8301 376.78L60.9601 373.1C66.6201 380.03 71.0201 383.14 78.7101 386.17Z" fill="#90BEFB"/>
<path d="M475.871 401.01C469.721 401.24 465.871 405.43 463.891 411.8C463.141 412.2 460.041 409.73 460.311 408.41C461.431 401.98 469.291 407.09 469.991 395.32L474.531 396.18C475.551 396.35 475.921 399.17 475.871 401.01Z" fill="#90BEFB"/>
<path d="M379.351 217.03L374.471 234.45C360.701 229.35 370.211 225.67 370.841 221.18L373.221 203.62C380.861 206.96 380.861 211.72 379.351 217.03Z" fill="#90BEFB"/>
<path d="M127.94 403.1L122.32 404.83C119.79 413.57 105.99 412.79 113.22 406.99L124.8 397.64C125.85 396.86 128.46 401.97 127.94 403.1Z" fill="#90BEFB"/>
<path d="M378.68 199.85L370.03 204.2C364.96 194.09 365.19 186.38 373.72 181.24L378.68 190.63C379.72 192.58 380.76 198.79 378.68 199.85Z" fill="#90BEFB"/>
<path d="M337.29 346C336.35 356.64 326.9 358.77 319.4 360.9C321.51 351.42 330.1 342.62 337.29 346Z" fill="#90BEFB"/>
<path d="M30.3802 337.41C30.4702 338.59 25.5602 337.93 24.9402 336.89C23.1602 333.49 19.3202 328.3 14.9502 323.05L19.7702 319.35L29.4902 331.72C30.1102 332.53 30.3802 336.6 30.3802 337.42" fill="#90BEFB"/>
<path d="M17.6003 136.05C13.3003 132.54 11.7903 129.58 8.77033 125.19C5.17033 123.55 -1.10967 119.05 0.170334 116.2C1.80033 112.36 4.82033 107.86 7.84033 105.24C12.4903 117.63 14.1203 122.01 17.6003 136.05Z" fill="#90BEFB"/>
<path d="M260.45 21.2899C256.3 25.8499 246.56 23.8799 245.9 10.6599L257.49 11.1099C258.48 11.1099 260.65 12.0199 261.44 12.6299C262.29 13.2399 261.31 20.3699 260.45 21.2799" fill="#90BEFB"/>
<path d="M306.58 45.08L302.06 42.73C297.47 40.29 292.29 38.73 293.68 29.85L307.31 36.78C308.26 37.26 307.53 45.56 306.58 45.08Z" fill="#90BEFB"/>
<path d="M84.2001 27.9099L80.5801 10.7999C87.4101 13.4399 91.6601 17.0599 96.0101 22.1499C98.1901 24.7899 85.3501 30.9499 84.2101 27.9199" fill="#90BEFB"/>
<path d="M476.99 135.55L474.84 151.09C474.84 151.36 467.33 152.83 467.11 152.56C466.9 152.29 464.97 151.06 465.18 150.75L467.11 141.21L466.9 134.43L467.11 122.33C467.32 120.93 464.11 119.71 473.34 118.51L477.2 128.8C478.06 131.08 477.41 132.92 476.99 135.55Z" fill="#90BEFB"/>
<path d="M627.94 58.21C627.32 75.25 622.54 66.44 619.22 66.44L607.35 67.01C599.7 67.21 592.391 73.33 585.521 61.65C590.641 58.97 595.81 55.72 600.32 56.29L613.82 57.43L627.94 58.2V58.21Z" fill="#90BEFB"/>
<path d="M477.651 265.9C478.581 267.19 469.081 269.16 468.151 268.24C459.211 260.62 473.551 264.68 467.781 248.63C464.611 240.45 463.311 232.71 470.581 224.1C484.181 239.84 469.831 253.24 477.661 265.91" fill="#90BEFB"/>
<path d="M643.07 68.7299L623.04 68.0399C620.79 52.8199 631.26 60.6099 637.03 58.6999C639.77 57.8399 642.43 49.3699 643.07 68.7299Z" fill="#90BEFB"/>
<path d="M477.571 350.58L474.381 380.59C456.211 377.96 470.591 372.41 469.591 368.44C466.391 355.38 460.001 342.03 472.781 328.9C474.981 335.8 478.171 344.13 477.571 350.58Z" fill="#90BEFB"/>
<path d="M475.401 316.58C464.481 313.12 466.641 308.35 466.521 306.14C466.411 297.14 462.311 288.55 468.801 279.18C476.541 292.9 462.661 301.07 478.131 313.29C479.161 314.01 476.771 317.05 475.401 316.57" fill="#90BEFB"/>
<path d="M477.661 83.3599L477.461 98.5899C477.261 103.2 474.921 108.97 472.571 114.43C456.911 108.82 471.001 103.36 470.031 97.9699C467.681 86.4399 460.241 75.6699 470.621 63.4399C474.931 70.6699 477.861 77.5099 477.671 83.3599" fill="#90BEFB"/>
<path d="M538.77 203.03C518.14 208.05 500.5 206.69 479.48 206.46L483.96 194.57C503.09 199.15 519.04 188.17 538.77 203.03Z" fill="#90BEFB"/>
<path d="M477.51 153.47L474.27 170.84L473.66 174.66C473.46 175.17 465.15 172.31 465.15 171.8L466.77 139.34C476.09 143.22 478.31 149.2 477.5 153.47" fill="#90BEFB"/>
<path d="M471.771 177.89C471.561 192.62 476.311 206.86 467.231 221.38L462.891 186.27C462.061 178.28 465.571 167.74 466.401 158.18C482.301 162.28 471.981 170.76 471.771 177.88" fill="#90BEFB"/>
<path d="M568.95 194.47C566.88 203.85 565.81 207.49 565.28 207.15C542.55 192.39 548.6 218.61 534.75 199.34C540.64 195.17 544.47 195 549.52 194.82L568.96 194.47H568.95Z" fill="#90BEFB"/>
<path d="M465.241 205.14L466.911 192.77C463.991 179.42 460.231 167.04 472.341 154.96L477.351 186.58C478.401 193.85 478.191 200.42 465.241 205.14Z" fill="#90BEFB"/>
<path d="M659.781 196.54C652.791 218.69 644.361 204.45 635.461 205.8C628.471 206.94 622.431 211.68 617.101 198.35L659.781 196.54Z" fill="#90BEFB"/>
<path d="M558.861 52.84C551.871 74.99 543.441 60.75 534.541 62.1C527.551 63.24 521.511 67.98 516.181 54.65L558.861 52.84Z" fill="#90BEFB"/>
<path d="M541.641 206.02C535.611 207.85 523.551 208.18 516.261 201.19C522.141 194.36 529.261 194.2 537.021 194.54L541.801 194.7C543.051 194.7 542.901 205.69 541.641 206.02Z" fill="#90BEFB"/>
<path d="M477.721 345.76L469.791 382.95C463.091 364.83 465.211 351.92 466.621 333.68C471.551 334.51 478.601 341.97 477.721 345.76Z" fill="#90BEFB"/>
</g>
<path d="M528.54 194.47H511.4V206.79H528.54V194.47Z" fill="#90BEFB"/>
<path d="M635.43 194.47H618.29V206.79H635.43V194.47Z" fill="#90BEFB"/>
<path d="M500.23 55.27H483.09V67.59H500.23V55.27Z" fill="#90BEFB"/>
<mask id="mask1_2553_4413" style="mask-type:luminance" maskUnits="userSpaceOnUse" x="0" y="0" width="675" height="446">
<path d="M674.07 0H0V445.57H674.07V0Z" fill="white"/>
</mask>
<g mask="url(#mask1_2553_4413)">
<path d="M465.1 407.71C468.5 403.92 470.26 400.28 468.62 396.87L467.19 393.62C466.86 392.86 472.02 393.19 473.67 393.35C484.33 394.27 464.88 392.86 477.96 406.58C480.16 408.86 465.87 409.29 465.1 407.72" fill="#90BEFB"/>
<path d="M477.82 331.27L469.9 355.64C464.51 351.62 461.03 330.3 474.33 326.36C475.6 325.96 476.87 326.04 476.87 326.68L477.82 331.26V331.27Z" fill="#90BEFB"/>
<path d="M478.54 360.12L473.29 414.93C470.55 410.54 466.05 400.94 466.29 396.38L467.29 363.2C467.54 351.49 470.04 337.99 472.29 324.81C474.79 334.9 479.28 350.68 478.54 360.12Z" fill="#90BEFB"/>
<path d="M578.99 206.83C568.41 205.69 563.759 205.31 555.659 207.02L543.02 201.33C552.31 196.2 561.489 194.12 571.859 194.5L578.56 194.68C580.29 194.68 579.32 206.45 578.99 206.83Z" fill="#90BEFB"/>
<path d="M674.07 61.36C664.38 70.26 653.83 69.64 642.28 67.15L623.18 65.29C641.28 54.72 656.25 53.48 674.07 61.36Z" fill="#90BEFB"/>
<path d="M296.42 385.25C294.4 387.33 287.92 388.02 285.99 385.36C284.67 383.4 286.78 377.39 288.09 375.55C289.41 373.59 295.1 373.47 298.61 374.62C300.63 375.31 298.08 383.39 296.42 385.24" fill="#90BEFB"/>
<path d="M299.3 34.2201C293.93 36.0901 291.63 37.7701 289.02 45.4001C288.64 45.1301 284.34 41.0501 285.34 39.2801C287.79 35.1101 290.55 29.6001 296.69 28.8901C298.07 28.8001 299.6 34.0401 299.3 34.2201Z" fill="#90BEFB"/>
<path d="M373.69 160.79C372.35 161.92 369.01 164.65 368.53 165.02L366.62 151.94L360.99 147.79C359.56 146.66 361.47 142.05 363.66 138.94L371.2 153.44C372.16 155.42 375.12 159.65 373.68 160.79" fill="#90BEFB"/>
<path d="M323.05 365.46C320.39 369.31 317.27 373.27 315.07 374.48C312.5 375.8 306.45 367.55 308.28 364.69C310.94 360.4 320.75 359.74 323.04 365.46" fill="#90BEFB"/>
<path d="M281.45 28.2901C280.74 28.6101 277.62 30.0201 276.55 30.5801C274.68 31.4501 271.47 27.5901 269.69 26.3201L259.9 18.9101C260.25 18.4401 261.5 16.2301 262.39 16.7001L266.75 19.3801L281.44 28.2901H281.45Z" fill="#90BEFB"/>
<path d="M121.84 402.25L107.08 410.14C102.48 401.48 123.52 391.66 121.84 402.25Z" fill="#90BEFB"/>
<path d="M23.5603 333.27L12.8403 319.07C10.0703 315.49 8.79027 311.05 11.6303 305.57L20.3303 321.81C22.2203 325.39 26.6003 327.22 23.5703 333.27" fill="#90BEFB"/>
<path d="M84.2703 32.7901L73.6003 42.1401C71.3603 44.0901 67.0303 46.1401 62.7803 48.3401L61.7403 42.7301C60.8403 37.8001 75.0203 40.8601 76.9603 29.8201L84.2703 32.7901Z" fill="#90BEFB"/>
<path d="M16.18 312.42C16.28 313 7.68001 312.1 7.07001 310.36L3.93001 302.46C2.31001 298.35 1.40001 294.69 7.37001 292.19L16.18 312.41V312.42Z" fill="#90BEFB"/>
<path d="M235.41 15.8L220.68 7.13001C211.68 -6.39999 244.98 13.94 235.41 15.8Z" fill="#90BEFB"/>
<path d="M77.8804 384.44C70.2704 386.02 60.1704 383.13 60.8704 377.54C61.0704 375.67 62.7704 371.95 64.0704 371.39C65.7704 370.64 70.4704 372.79 71.4704 374.38L77.8804 384.45V384.44Z" fill="#90BEFB"/>
<path d="M49.9903 365.52C46.0903 364.83 41.8703 363.38 40.2403 361.83C38.1803 360.03 38.4003 351.45 41.3203 351.71C44.8903 351.96 49.8803 354.03 51.0703 355.74C52.5903 357.88 52.9103 366.03 49.9903 365.52Z" fill="#90BEFB"/>
<path d="M84.3195 385.53C83.3395 386.74 80.3995 389.81 79.5795 389L75.6595 384.96C73.0495 382.29 67.5695 379.95 61.7695 376.88C66.4295 373.09 70.4295 376.23 74.5995 378.98L84.3195 385.53Z" fill="#90BEFB"/>
<path d="M372.99 160.32C356 153.27 354.6 140.15 368.47 131.69L372.99 160.32Z" fill="#90BEFB"/>
<path d="M108.82 15.0901L98.4997 26.4401C97.6897 27.4001 93.4697 27.9801 92.1297 28.0801C90.7797 28.0801 89.9797 23.1701 91.0497 22.3101L95.7197 18.5601C99.1297 15.8701 105.95 13.3601 108.83 15.1001" fill="#90BEFB"/>
<path d="M80.0898 324.31L72.0198 311.28C71.1498 309.86 68.8298 309.15 66.5598 308.5C66.0398 307.93 68.4798 302.88 69.8098 301.24C75.1498 315.33 85.6598 312.27 80.0798 324.3" fill="#90BEFB"/>
<path d="M278.2 96.84L273.83 91.38C270.77 87.49 267.4 82.16 271.84 78.26C272.38 78.94 272.45 82.09 272.3 84.07L283.71 93.7C284.78 94.86 279.19 98.07 278.19 96.84" fill="#90BEFB"/>
<path d="M91.1696 334.51C83.6096 331.4 81.0696 326.89 78.1596 321.17L76.4896 317.83C76.1196 317.11 77.8496 315.55 78.7196 315.72C79.5896 315.83 82.2496 316.78 82.6796 317.5L88.5696 326.95C90.6096 330.23 91.7896 332.29 91.1696 334.51Z" fill="#90BEFB"/>
<path d="M289.71 321.07L288.97 326.3C288.77 327.79 283.15 327.79 282.68 326.11C281.94 323.68 281.07 318.89 279.27 318.27L275.86 317.09C274.93 316.78 275.19 314.29 275.19 313.35C275.19 312.41 279.61 312.23 280.21 312.98C288.04 323.19 290.11 318.33 289.71 321.07Z" fill="#90BEFB"/>
<path d="M311.52 123.86C312.03 125.39 307.86 127.64 307.35 129.09L300.91 146.76C293.66 143.12 299.3 140.07 300.62 136.8L308.82 116.22L311.53 123.86H311.52Z" fill="#90BEFB"/>
<path d="M55.2 279.63L46.46 274.88C50.94 263.18 53.29 256.81 59.68 246.54C62.71 259.48 58.78 266.32 55.2 279.63Z" fill="#90BEFB"/>
<path d="M67.4102 112.67C69.8902 106.29 74.5102 101.39 80.6102 95.8C87.4202 96.69 69.6102 114.45 67.4102 112.67Z" fill="#90BEFB"/>
<path d="M76.7399 317.64C76.2699 315.75 79.2799 311.86 80.1699 312.08C91.0299 326.53 90.0899 307.19 92.3799 320.31C93.3699 326.31 79.5999 328.64 76.7499 317.64" fill="#90BEFB"/>
<path d="M148.69 54.19L136.68 63.36C133.01 66.21 126.23 67.19 122.47 66.12C130.17 58.55 135.49 49.21 148.7 54.2" fill="#90BEFB"/>
<path d="M66.6998 133.22L58.7098 147.03C52.9198 131.05 61.9298 136.08 67.6198 118.45C71.4798 120.88 71.7598 129.48 66.6998 133.22Z" fill="#90BEFB"/>
<path d="M183.25 59.7401C170.14 64.0301 160.36 63.3101 149.33 58.3101C160.67 42.0101 173.88 52.4501 183.25 59.7401Z" fill="#90BEFB"/>
<path d="M95.7198 339.69L85.6198 332.31C84.1798 331.2 82.3098 326.39 82.5598 324.5C82.8198 322.62 87.8198 321.32 89.4398 322.44C93.0898 324.93 98.2698 333.33 95.7198 339.68" fill="#90BEFB"/>
<path d="M281.8 88.9001C272.52 91.8901 262.44 89.2101 259.35 75.3101C267.92 76.7501 276.41 81.7001 281.8 88.9001Z" fill="#90BEFB"/>
<path d="M48.2096 221.35L44.2196 197.4C41.6496 190.88 36.6296 182.66 41.8996 176.71C46.2796 186.04 47.9496 190.09 52.4596 197.51C53.0996 203.13 51.8196 211.79 48.2096 221.35Z" fill="#90BEFB"/>
<path d="M73.3101 117.85L66.8701 120.95L73.9201 102.78C74.4301 101.48 77.3901 98.04 78.5201 98.56L83.6301 100.71C89.9601 103.55 72.8001 110.1 73.3101 117.85Z" fill="#90BEFB"/>
<path d="M287.25 100.12C285.87 105.49 281.4 86.88 273.96 92.25C273.62 92.93 272.72 88.16 273.68 87.41C274.58 86.73 276.71 84.99 277.19 84.61L277.26 84.53L287.38 94.21C288.14 94.89 287.52 99.13 287.24 100.11" fill="#90BEFB"/>
<path d="M305.77 182.41C305.63 166.66 305.63 156.16 314.8 144.61C324.52 159.89 313.83 171.79 305.77 182.41Z" fill="#90BEFB"/>
<path d="M70.32 123.94L62.04 106.31C68.05 105.99 74.73 108.55 76.21 111.6C78.25 116.17 75.64 122.02 70.32 123.95" fill="#90BEFB"/>
<path d="M320.951 171.03C310.681 172.13 313.99 165.67 311.03 161.35L307.15 155.55C306.12 154.09 308.97 151.52 313.31 149.09L320.951 171.03Z" fill="#90BEFB"/>
<path d="M99.7204 333.26C100 334.87 91.8804 334.95 90.9504 333.58L83.9404 323.17C86.5204 321.8 90.2104 319.78 91.2304 320.83L96.9504 326.8C98.1504 327.93 99.5304 331.72 99.7204 333.26Z" fill="#90BEFB"/>
<path d="M246.05 69.05L230.82 69.72C229.89 69.89 226.1 65.52 226.75 64.18C227.46 63 229.75 58.63 230.61 58.46L243.62 57.11C243.84 57.46 244.91 62.83 246.05 69.04" fill="#90BEFB"/>
<path d="M43.7204 233.93L41.4004 218.11C61.8704 214.37 52.4104 235.61 43.7204 233.93Z" fill="#90BEFB"/>
<path d="M255.25 70.36L248.95 72.04C247.21 72.46 245.66 68.08 244.01 67.4L229.77 61.92C233.74 59.72 236.94 57.7 238.88 58.29C241.2 59.05 245.27 61.92 247.4 63.69L255.25 70.36Z" fill="#90BEFB"/>
<path d="M46.5004 242.82L42.0004 205.32C41.4104 199.99 44.9304 189.47 46.8904 182.8C52.3704 201.61 60.9804 220.44 46.5004 242.82Z" fill="#90BEFB"/>
<path d="M78.2903 293.88L68.8103 306.55H60.0303C61.1303 302.16 62.4303 297.78 64.6203 295.24C66.9203 292.61 76.0003 292.51 78.3003 293.88" fill="#90BEFB"/>
<path d="M167.39 55.41C154.16 59.97 141.82 62.9 125 60.99C133.61 56.73 149.15 51.44 156.99 48.79C158.53 48.2 163.28 51.88 167.39 55.4" fill="#90BEFB"/>
<path d="M184.32 369.75L163.29 370.35C162.51 370.56 162.28 358.63 163.6 358.63L169.81 359.44C175.09 360.05 179.98 351.16 184.32 369.75Z" fill="#90BEFB"/>
<path d="M60.9 274.53L41.04 258.63C47.83 255.56 53.69 255.67 57.35 259.18C60.59 262.13 61.74 270.47 60.9 274.53Z" fill="#90BEFB"/>
<path d="M55.1004 184.54C55.8604 186.28 48.1504 190.68 47.2604 189.29C41.0604 180.5 41.1904 170.43 43.7204 158.05L55.1004 184.55V184.54Z" fill="#90BEFB"/>
<path d="M312.57 185.99L304.33 157.29C303.84 155.41 316.03 155.07 316.36 157.18C317.35 164.05 318.01 178.79 312.57 185.99Z" fill="#90BEFB"/>
<path d="M120.85 73.19C120.6 80.84 105.48 76.55 107.07 68.67C108.49 60.9 121.19 63.11 120.85 73.19Z" fill="#90BEFB"/>
<path d="M102.93 82L80.6104 80.95L110.03 67.54C113.71 70.22 108.51 82.34 102.93 82Z" fill="#90BEFB"/>
<path d="M54.4203 240.25C54.8303 241.59 45.5603 241.02 42.7903 240.95C40.1603 240.88 42.3703 237.07 42.5103 235.31L43.3403 226.78C49.9903 226.15 51.6503 230.66 52.7603 234.32L54.4203 240.25Z" fill="#90BEFB"/>
<path d="M317.34 149.57L311.99 163.52C298.81 156.72 305.77 148.41 309.38 144.56C310.62 143.22 317.96 148.14 317.34 149.57Z" fill="#90BEFB"/>
<path d="M143.36 69.14C143.45 72.12 131.24 67.28 129.92 64.31C128.79 62.17 134.09 57.8 136.26 56.59C138.44 55.48 143.08 60.59 143.17 63.1L143.36 69.14Z" fill="#90BEFB"/>
<path d="M246.87 360.77C241.58 363.73 235.46 359.45 228.8 356.06L217.07 350.04C229.01 345.55 234.51 351.13 246.88 360.78" fill="#90BEFB"/>
<path d="M66.1701 308.16L52.8301 284.18C61.6401 284.73 66.0401 286.38 67.5901 290.12C70.1801 296.06 70.5701 300.46 66.1701 308.16Z" fill="#90BEFB"/>
</g>
</g>
<defs>
<clipPath id="clip0_2553_4413">
<rect width="674.07" height="445.57" fill="white"/>
</clipPath>
</defs>
</svg>
