<svg width="886" height="268" viewBox="0 0 886 268" fill="none" xmlns="http://www.w3.org/2000/svg">
<g clip-path="url(#clip0_2553_6180)">
<mask id="mask0_2553_6180" style="mask-type:luminance" maskUnits="userSpaceOnUse" x="0" y="0" width="886" height="268">
<path d="M885.03 0H0V267.02H885.03V0Z" fill="white"/>
</mask>
<g mask="url(#mask0_2553_6180)">
<path d="M477.11 31.31L457.49 45.77L436.7 61.14L425.54 69.2C424.81 69.74 423.43 68.76 422.97 68.24C422.54 67.78 422.25 66.25 422.75 65.85L429.78 60.77L471.92 30.27C479.23 24.97 481.5 19.46 478.43 10.93C477.68 8.82 475.15 8.1 473.29 7.93L468.11 7.43C466.89 7.3 465.58 7.22 464.37 7.18L456.88 6.92L450.4 6.65L446.93 6.38L443.51 6.08L437.11 5.96L433.63 5.78C432.56 5.72 431.58 5.47 430.5 5.29C428.72 5 426.66 5.25 424.78 5.11C420.18 4.77 419.49 5.07 414.9 4.73L411.14 4.45L406.36 4.16L399.2 4.08C397.1 4.05 391.66 3.85 389.64 3.69L386.24 3.41L380.76 3.14C366.74 2.44 369.23 5.34 366.8 6.9C363.18 9.24 359.9 12.85 357.46 16.32C355.49 19.12 354.49 22.02 354.84 25.56C354.92 26.55 354.59 27.91 354.59 28.95L354.64 50.91L354.61 74.69L354.64 103.31L354.55 120.34L354.28 129.85L354.17 145.5C354.13 151.06 354.11 156.42 354.26 162.09C354.32 164.8 355.13 167.75 356.52 170.08C357.8 172.2 360.49 173.92 362.89 174.42C368.78 175.66 372.41 172.02 375.04 167.49C375.78 166.22 376.02 165 376.22 163.54C376.43 162.14 376.86 160.66 376.89 159.21L376.98 147.84C377 146.25 377.28 144.72 377 143.16C376.77 141.85 376.82 140.59 376.95 139.24L377.55 132.11L377.88 127.69C378.06 125.2 379 120.84 381.1 119.29C382.13 118.54 383.15 117.47 384.46 117.2C385.48 116.97 387.69 116.73 388.61 117.17C394.03 119.8 396.38 121.4 400.26 125.84L405.54 131.87L408.37 135.2L420.6 149.91C422.13 151.77 423.98 154.07 425.03 155.95C425.26 156.37 424.54 157.35 424.13 157.4C423.8 157.43 422.84 157.36 422.52 156.98L402.9 132.96L396.75 125.69C393.99 122.43 387.19 117.3 383.16 120.95C383.49 122.45 383.28 123.76 382.69 125.18C382.15 126.45 382.12 128.14 381.91 129.54C380.97 135.76 381.34 139.1 381.04 145.34L380.77 151.14L380.68 159.61L380.47 163.45C380.35 165.48 379.67 167.61 378.76 169.43C378.21 170.52 377.11 170.79 376 171.26C374.19 172 373.09 175.55 367.79 177.31C365.65 178.03 363.36 177.31 361.15 176.69C358.04 175.82 355.7 173.72 353.73 171.13C352.65 169.71 352.25 167.85 351.6 166.06C351.22 165 350.2 163.6 350.16 162.5C350.05 159.43 350.14 156.67 350.19 153.72L350.37 140.54L350.54 130.89C350.57 129.68 350.65 128.46 350.51 127.31C350.46 126.94 350.64 126.06 350.65 125.67C350.67 122.69 350.65 119.84 350.44 116.92C350.37 115.8 350.38 114.8 350.4 113.68L350.55 101L350.47 79.75C350.47 79.32 350.64 78.47 350.59 78.06C350.49 77.14 350.59 75.99 350.59 74.86V62.78L350.62 54.74L350.53 23C350.51 16.11 357.24 9.2 362.08 5.07C364.09 3.37 366.48 1.77 368.92 1.04C370.24 0.65 371.51 0.55 372.57 0.11L380.03 0L385.64 0.47L391.94 0.63L396.08 0.9C397.57 1.01 399 1.03 400.52 1.08L405.95 1.26L412.09 1.51L418.92 1.79L423.37 2.03L429.84 2.32L435.97 2.59L440.75 2.84L447.23 3.12L451.7 3.35L458.16 3.68L461.92 3.9C468.92 4.33 476.37 3.51 481.05 9.01C486.56 15.48 483.29 26.77 477.13 31.3" fill="#90BEFB"/>
<path d="M882.66 161.25C882.45 161.55 883.67 162.28 883.69 162.67C883.8 165.4 878.25 168.6 875.91 169.2C874.68 169.52 873.12 169.96 871.88 169.99L853.54 170.44C849.86 170.53 848.17 170.51 844.77 170.63L841.83 170.74L823.99 171.21L805.93 171.76L795.73 172.28C790.97 172.51 779.89 173.23 775.92 171.49C771.42 169.52 769.38 164.63 769.84 159.76C770.11 156.86 771.66 153.65 773.92 151.85C776.07 150.13 778.67 149.02 781.36 148.91L792.37 148.51L800.49 148.02L810.06 147.55L829.14 146.97C832.39 146.89 835.53 146.6 838.76 146.8C839.91 146.87 839.94 149.85 838.8 149.93L831.93 150.36L821.33 150.81L811.16 151.31L799.71 151.72L794.24 152.12L787.77 152.53L780.58 152.96C778.18 153.11 775.76 155.04 774.69 157.13C772.25 161.89 771.92 163.42 774.81 167.53C775.24 168.15 776.96 168.18 777.72 168.29C781.44 168.77 784.83 168.75 788.51 168.62L806.2 168.03L823.62 167.48L832.8 166.98C836.81 166.77 840.7 166.78 844.77 166.85C853.34 167.01 861.75 166.94 870.29 166.52C878.33 166.13 884.03 158.78 882.31 151.08C881.31 146.64 876.35 143.04 872.81 140.5L856.77 129.03L849.24 123.66L843.13 119.19L835.05 113.37L831.25 110.63L800.98 90.64C796.41 87.62 792.2 84.7 787.37 82.16C785.61 81.23 783.92 80.13 782.09 79.32C778.24 77.62 774.37 76.25 770.83 73.94C766.5 71.1 763.04 67.55 762.53 62.19C762.47 61.62 762.64 60.51 762.68 59.84L762.98 56.48C763.24 53.48 764.96 51.68 766.99 49.89C770.26 46.99 773.82 45.76 778.22 45.51L782.3 45.27L786.43 44.99L797.27 44.62L801.05 44.34L805.14 44.06L810.76 43.67L820.65 43.24L826.43 42.79L837.01 42.35L844.12 41.87L851.09 41.49L855.26 41.19C856.74 41.09 858.52 40.52 859.93 40.59C861.67 40.68 863.03 40.68 864.75 40.44C866.67 40.19 874.24 39.46 875.66 39.69C876.71 39.86 877.79 41.61 877.79 42.62C877.79 43.9 876.36 43.39 875.67 43.49C872.12 43.92 868.76 44.09 865.15 44.29L860.73 44.55C859.2 44.63 857.79 44.72 856.3 44.88L853.21 45.23L846.55 45.59L837.05 46.05L828.95 46.88L815.92 47.32L807.1 47.82L798.86 48.24L791.42 48.72L781.69 49.1L776.17 49.5C775.19 49.57 773.55 50.39 772.59 50.88C769.64 52.38 767.25 54.8 766.52 58.04C765.83 61.05 766.07 64.17 767.18 66.86C767.78 68.32 768.92 68.31 769.94 68.97C771.72 70.1 773.29 71.68 775.2 72.52C782.72 75.79 793.92 81 800.09 86C801.11 86.81 801.72 87.97 802.93 88.69C816.52 96.74 829.29 105.76 842.17 114.98L874.64 138.22C879.09 141.42 882.82 145.01 884.97 149.77L885.05 156.24L883.58 159.91L882.69 161.22L882.66 161.25Z" fill="#90BEFB"/>
<path d="M621.83 157.69C622.24 161.73 615.48 169.22 609.12 168.63C605.53 168.3 602.48 165.99 600.16 163.34L591.95 153.97L581.97 142.85L565.95 124.61C565.62 124.23 565.6 123.3 565.74 122.94C566.46 121.08 570.45 125.82 571.12 126.58L581.65 138.25L602.2 161.56C603.69 163.25 605.74 164.71 608.08 164.82C611.38 165 615.47 163.33 617.21 160.41C618.82 157.68 618.02 154.08 617.68 151.16L616.97 145.15L616.53 140.6L615.73 133.25L615.32 126.93L614.93 121.66L614.5 108.13L613.98 99.73L613.41 80.79C613.29 76.91 612.91 70.64 613.3 66.91C613.69 63.01 612.94 59.37 611.94 55.67C611.51 54.08 611.16 52.76 609.97 51.53C608.59 50.1 606.64 48.26 604.47 48.61L600.29 49.28C597.57 49.73 595.29 51.56 593.34 53.26L583.7 61.58L575.89 68.22L559.22 81.77L546.55 91.94L543.53 94.28C535.7 100.33 528.12 106.61 519.61 111.77C518.24 112.59 516.68 112.97 515.42 113.98L505.98 121.52C502.25 124.5 503.11 124.86 502.58 126.18C502.13 127.34 500.84 128.71 500.55 130C500.22 131.44 500.15 133.93 500.5 135.36C501.66 139.97 506.33 142.05 510.62 141.7C512.9 141.49 514.91 141.54 516.8 140.29L528.61 132.41L536.6 126.94L562.73 109.45L569.6 104.64C572.85 102.36 576.31 100.3 579.67 98.28C581.12 97.41 582.21 98.79 582.47 99.74C582.95 101.55 581.45 101.28 580.36 101.99L558.89 116.04L547.49 123.74L528.04 136.68C524.65 138.92 521.4 140.86 517.77 142.65C514.09 144.47 511.46 145.3 507.33 144.38C502.2 143.23 501.88 141.48 497.92 138.26C497.37 137.81 496.36 136.52 496.29 135.82C496.15 134.43 495.91 132.51 496.23 131.29C497.2 127.39 499.48 124.1 502.44 121.44C508.58 115.92 515.07 111.16 521.69 106.24L524.35 104.27L534.85 96.16L540.06 92.19L551.16 83.62L554.68 80.82L558.84 77.5L591 50.67C593.87 48.26 596.71 46.14 600.29 45.14C603.3 44.29 606.04 45.42 608.62 46.89C619.26 52.93 616.9 64.97 617.23 74.6L617.35 78.14L617.9 103.12L618.37 111.25L618.85 118.56L619.31 128.78L619.74 136.2L620.73 146.09L621.05 150.01L621.84 157.66L621.83 157.69Z" fill="#90BEFB"/>
<path d="M335.52 199.48C335.57 200.46 334.94 201.49 333.75 201.29C332.46 201.09 331.22 201.03 329.91 201.33C327.91 201.8 325.88 201.71 323.92 202.03C320.91 202.51 318.05 202.86 315.05 203.18L309.2 203.83L304.87 204.34C302.95 204.56 300.99 204.49 299.15 204.77L296.26 205.21L292.22 205.82L287.58 206.63L284.04 207.22L277.76 208.35C269.25 209.87 264.74 212.53 255.83 210.61C251.87 209.75 248.72 208.03 245.81 205.23C241.29 200.9 241.19 197.49 240.74 191.07C240.65 189.95 240.5 188.77 240.5 187.63C240.54 184.01 240.08 180.67 239.75 177.09L239.4 173.3L238.62 166.19L238.18 161.78C238.03 160.37 238.06 158.97 237.76 157.64C237.52 156.62 237.58 155.61 237.48 154.67L236.74 148.21L235.96 142.83L235.22 137.35L234.52 131.89C234.36 130.71 234.33 129.31 234.13 128.17L233.33 123.76L232.6 119.32L231.89 114.95L231.18 110.82L229.06 99.99L227.32 90.75C226.22 84.91 226.59 82.03 229.95 77.61C230.68 76.65 231.58 76.03 232.59 75.44C237.78 72.47 243.25 73.54 248.14 76.63L264.36 86.86L276.77 94.54L307.41 113.07L313.63 116.74L317.84 119.31C323.04 122.51 327.39 125.4 326.1 132.76C325.33 137.15 321.92 141.38 317.22 141.56L309.12 141.85L305.33 142.24C303.84 142.39 302.43 142.46 300.9 142.57L297.12 142.82L289.79 143.2L282.5 143.58L277.05 143.99L272.6 144.35C271.53 144.44 270.26 144.74 269.28 144.59C267.2 144.28 265.45 144.45 263.4 144.64L259.81 144.97L253.31 145.96C252.81 146.04 251.9 145.48 251.59 145.22C251.25 144.91 251.56 143.6 252.05 143.41C253.76 142.72 255.72 142.88 257.58 142.68L261 142.32L265.76 141.89L270.2 141.49L273.61 141.12C275.09 140.96 276.51 140.9 278.03 140.81L283.46 140.5L289.94 140.08L296.07 139.63L299.87 139.28L307.28 138.96L311.07 138.67L314.55 138.45C317.63 138.25 320.77 136.95 321.88 133.69C323 130.38 323.01 129.2 321.8 125.84C321.21 124.2 319.15 123.16 317.66 122.27L303.84 114.04L300.19 111.84L286.39 103.28C283.34 101.37 280.39 99.51 277.22 97.89L271.82 95.12L266.88 92.56C265.88 92.05 265.07 91.18 264.07 90.59L259.76 88.12L256.19 85.88L252.43 83.53L243.93 78.13C241.56 76.63 240.5 76.48 237.21 76.9C231.89 77.58 233.88 78.91 231.6 82.57C230.19 84.82 230.41 87.45 230.92 90.06L233.88 105.33L236.12 117.91C237.02 123 237.59 128.02 238.4 133.17L239.52 140.32L240.03 144.35L241.2 153.13L242.46 163.23L242.86 167.5L243.25 171.23L243.58 174.66L243.99 181.93L244.36 190.94C244.48 193.92 245.06 196.35 245.66 199.17C246.3 202.1 248 204.19 250.42 205.7C253.83 207.84 254.99 208.11 258.58 208.78C261.13 209.24 263.09 209.28 265.55 208.33C266.6 207.93 273.76 206.66 275.39 206.37L283.85 204.87L290.08 203.86L295.43 203.07L300.31 202.34C302.37 202.03 304.49 201.43 306.62 201.23C309.5 200.98 312.09 200.26 315.02 200.02L318.27 199.76L327.89 198.37L333.54 197.73C334.53 197.62 335.47 198.79 335.51 199.47" fill="#90BEFB"/>
<path d="M740.19 138.1C739.01 142.46 737.06 144.22 733.58 146.86L716.1 160.08L694.06 176.96C693.41 177.47 692.34 177.14 691.83 176.66C691.41 176.3 691.38 175.09 692 174.63L704.56 165.3L728.83 146.29C733.64 142.52 736.91 141.47 736.89 134.17C736.88 131.02 735.09 127.91 731.56 127.86C726.3 127.8 721.03 127.93 715.76 128.15L704.85 128.63L696.04 129.1L686.76 129.56L643.47 130.44C639.28 130.54 632.57 133.45 630.12 137.34C631.59 143.47 628.4 139.14 631.03 148.1L632.53 153.17C632.99 154.76 633.3 156.29 633.66 157.92L635.19 164.92C635.93 168.36 636.6 171.78 637.12 175.31L638.6 185.18L641.03 203.4L643.81 225.07L644.12 227.94L645.86 243.64L647.01 253.18C647.35 255.97 648.09 258.85 649.6 261.16C650.53 262.57 652.1 264.23 653.71 264.47C657.23 264.99 661.06 264.86 663.33 262.03C667.73 256.56 664.03 255.88 666.46 253.69L665.91 248.32C665.5 244.36 664.83 240.56 664.36 236.57L663.55 229.75C663.41 228.56 663.26 227.28 663.12 226.06L662.48 220.24L661.67 213.44L660.86 207.31L660.21 203.21L659.33 195.46L658.61 190.31L658.13 185.41L657.04 178.12C656.81 176.54 656.69 175.21 656.28 173.6C656.13 172.96 656.24 171.72 656.72 171.36C657.19 171.01 658.32 170.85 659.03 171C659.66 171.13 659.87 172.5 659.97 173.3L661.08 182.5L662.17 190.63L662.5 194.08L663.2 198.9C663.37 200.08 663.53 201.33 663.65 202.53L664.12 206.94L665.22 215.79L665.79 220.07L666.46 225.66L667.64 235.52L668.11 240.25L669.33 249.63C669.44 250.58 669.49 251.83 669.66 252.7C670.08 254.78 669.85 256.53 667.78 257.61C666.77 264.02 660.66 268.31 654.35 266.65C652.25 266.09 649.73 265.23 648.31 263.57C645.74 260.55 644.11 256.73 643.64 252.9L643.01 247.96L642.27 242.24L641.72 235.87L640.99 229.71C640.83 228.39 640.46 227.23 640.36 225.89L639.99 220.62L639.22 214.79L638.47 209.74L637.75 203.91L637.36 200.53L636.53 194.78L635.81 189.69L635.07 184.54L634.28 179.55L633.61 175.02C633.34 173.3 632.95 171.62 632.62 169.93L631.71 165.21L630.22 158.49L626.97 145.66C625.95 141.64 626.48 137.59 629.47 134.46C633.45 130.26 637.55 128.57 643.38 127.64C645.79 127.25 648.26 127.68 650.7 127.64L673.22 127.42L676.44 127.22L684.12 126.84L694.93 126.36L702.27 125.96L705.71 125.73L710.81 125.38L716.28 125C721.28 124.65 726.24 124.61 731.14 124.86C737.11 125.17 741.96 131.64 740.22 138.07" fill="#90BEFB"/>
<path d="M228.47 61.26C226.83 65.29 224.43 68.82 222.27 72.64L217.26 81.52L209.85 95.5L198.4 117.89L192.38 130.24L189.33 136.32C187.06 140.87 182.7 143.38 177.64 143.56C176.47 143.59 175.35 143.7 174.36 142.95C169.16 138.94 170.09 140.11 166.26 133.62L154.62 113.83L139.02 88.42L120.69 59.65L115.28 51.04L111.34 44.65C108.57 40.14 105.97 34.83 110.13 30.37C111.35 29.08 112.44 27.82 113.57 26.37C115.58 25.7 118.18 25.29 120.17 26.37C125.38 29.2 125.73 30.16 129.22 34.64L138.04 45.97L142.94 52.32L144.44 54.26L153.3 65.5L158.01 71.38L160.13 74.02L164.17 78.53C168.34 83.21 171.96 88.19 175.76 93.17C176.21 93.76 176.67 94.31 177.11 94.46C177.64 94.64 178.92 94.17 178.89 93.64C178.75 91.84 177.3 90.82 176.31 89.52L172.52 84.64L175.57 82.33L184.22 76.26L203.65 62.6L209.99 57.95C213.02 55.74 215.93 53.55 219.36 51.99C221.97 50.79 224.86 50.94 227.25 53.22C229.16 55.04 229.5 58.65 228.45 61.25M232.28 56.57C231.52 52.43 225.88 47.27 221.02 48.66C218.13 48 215.74 49.35 213.5 50.95L200.29 60.35L172.58 80.03C171.76 80.61 171.06 81.3 170.37 81.93L157.19 65.33L149.07 54.98L129.48 29.97C126.37 26.02 119.9 21.92 114.67 23.13C111.38 23.9 108.95 26.1 106.77 28.53C104.72 30.79 103.81 34.03 104.3 37.17C104.8 40.48 106.48 43.22 108.31 46.13L143.07 101.11L149.84 111.14L151.49 113.59C153.27 116.21 154.8 118.91 156.39 121.7L164.55 136.08C166.24 139.03 168.13 141.6 170.99 143.77C173.6 145.72 178.93 146.83 182.55 145.21L186.53 143.42C187.48 143 189.2 143.3 189.91 142.3C192.21 139.06 193.69 135.44 195.57 131.96C196.32 130.59 196.99 129.36 197.59 127.9C198.83 124.91 200.28 122.09 201.75 119.22L205.68 111.44L213.15 97.03C218.18 87.36 223.18 77.98 228.78 68.58C231.19 64.55 233.2 61.7 232.26 56.58" fill="#90BEFB"/>
<path d="M456.59 71.68L458.25 69.14C458.57 68.64 459.41 67.83 459.92 67.92C462.4 68.34 466.07 71.85 466.24 75.91L466.68 86.44L467.17 100.09L467.69 111.94L468.16 122.56L468.67 134.75L469.03 147.24C469.09 149.33 469.52 152.01 468.06 153.72C466.46 155.6 463.36 155.4 461.23 154.45C460.79 153.08 459.93 151.44 459.88 150.13L459.62 143.68L459.47 138.45C459.45 137.66 459.49 136.7 459.52 135.86C459.56 134.81 459.35 133.67 459.34 132.59L458.91 110.28C458.66 109.53 456.95 109.44 456.04 109.61C455.9 108.9 455.55 107.61 455.55 106.84L455.39 92.57L455.35 89.81C455.31 85.68 454.5 74.81 456.58 71.66M526.18 181.87C525.2 181.56 524.27 181.43 523.46 181.41L520.84 181.36L510.04 181.3L507.31 181.22C505.55 181.17 503.91 181.22 502.14 181.36L496.96 181.73C495.13 181.87 493.59 181.82 491.91 181.75C486.44 181.58 480.67 181.61 475.25 182.25C471.7 182.68 465.35 183.06 462.45 181.58C460.45 180.55 459.18 179.28 458 177.43C455.37 173.31 455.29 171.54 455.43 166.45L455.66 158.09L455.87 152.47L456.15 145.94L456.66 148.83C458.2 157.75 457.75 153.14 461.78 156.89C463.92 158.89 466.71 157.45 468.85 156.6C470.31 156.01 471.49 156.3 471.8 154.14C471.94 153.12 472.38 151.43 472.39 150.24C472.42 146.19 472.29 142.38 472.12 138.43L471.65 127.21L471.14 118.73L470.64 102.39L470.14 94.92L469.66 83.38L469.26 74.67C469.08 70.59 461.99 62.91 457.5 65.81C454.13 67.99 452.06 72.41 452.11 76.04L452.75 126.84L452.83 129.77L452.87 153.66L452.67 162.03L452.38 168.14C452.31 169.56 452.94 170.88 453.23 172.14C454.05 175.9 455.59 178.63 458.73 180.88C460.02 181.8 461.24 182.85 462.8 183.54C469.99 186.74 468.33 185.46 474.9 184.92L479.02 184.58L484.1 184.17L489.57 183.74L493.4 183.33C494.22 183.25 495.78 183.82 496.69 183.87L500.87 184.07L511.22 184.23L523.56 184.38C524.53 184.4 525.76 185.52 526.49 184.37C526.87 183.77 526.94 182.05 526.17 181.82" fill="#90BEFB"/>
<path d="M98.12 180.86C96.68 183.71 94.08 185.62 91.28 187.13C89.81 187.94 84.02 188.33 82.77 188.19C81.96 188.09 80.83 187.78 80.09 187.77L63.08 187.91L60.3 187.95L27.06 188.47C23.39 189.17 21.63 188.61 17.05 188.98L12.32 189.37C9.84997 189.59 8.22997 188.71 6.70997 187.11C2.75997 183 2.04997 177.71 3.85997 172.4L10.11 153.94C11.12 150.96 11.76 147.89 13.28 145.23L15.14 141.95C22.21 129.49 37.8 83.4901 45.46 77.0601C49.27 73.8401 49.32 72.5601 56.51 74.5801C58.45 75.1201 60.15 75.9001 61.3 77.7001C62.1 78.9401 63.07 80.3901 63.57 81.7801L69.73 98.6801L75.83 115.85C77.54 120.69 79.14 123.44 80.41 127.02L82.85 133.91L89.2 151.12L91.57 157.37L93.52 162.29L97.4 171.8C98.52 174.57 99.6 177.94 98.13 180.84M97.91 166.05C96.58 163.07 95.36 160.17 94.2 157.1L88.89 143.17L87.49 139.39L86.39 136.39L84.85 132.1L83.86 129.28L82.46 125.26L81.12 121.4L80.12 118.67L78.42 113.9L74.55 102.68L68.37 85.2701C67.47 82.7401 66.6 80.4301 65.29 78.0201C64.58 76.7201 63.23 75.7501 62.05 74.8101C59.47 72.7701 56.46 71.4201 53.1 71.6201C50.67 70.8701 48.32 71.4101 46.21 72.7801C44.89 73.6501 43.01 74.4801 41.97 75.6401C39.28 78.6001 37.83 82.2201 36.02 85.6801C34.74 88.1301 33.61 90.5001 32.52 93.0601L24.68 111.63L21.28 119.75L17.14 129.48L14.64 130.47L12.31 137.21L10.42 142.82L4.87997 159.31L1.08997 170.73C0.60997 172.17 0.0399696 173.93 0.0599696 175.36C0.0599696 176.43 -0.0200304 177.59 0.0599696 178.52C0.42997 182.88 2.47997 187.16 6.19997 189.31L9.71997 191.35C14.88 191.34 19.97 191.33 25.11 191.05L34.27 190.55L43.94 190.18C44.34 190.18 45.24 189.95 45.61 190.03C46.78 190.26 48.03 189.97 49.21 189.95L68.22 189.64L74.47 190.48L80.55 190.51C83.24 190.53 86.39 191.36 88.95 190.26L92.1 188.88L96.22 187.6C100.23 186.35 101.35 181.79 101.85 177.79C101.21 173.66 99.67 169.92 97.93 166.04" fill="#90BEFB"/>
</g>
</g>
<defs>
<clipPath id="clip0_2553_6180">
<rect width="885.03" height="267.02" fill="white"/>
</clipPath>
</defs>
</svg>
