<svg width="326" height="260" viewBox="0 0 326 260" fill="none" xmlns="http://www.w3.org/2000/svg">
<g clip-path="url(#clip0_2553_6797)">
<mask id="mask0_2553_6797" style="mask-type:luminance" maskUnits="userSpaceOnUse" x="0" y="0" width="326" height="260">
<path d="M325.28 0H0V259.14H325.28V0Z" fill="white"/>
</mask>
<g mask="url(#mask0_2553_6797)">
<path d="M139.739 180.88V190.8C139.739 191.26 139.709 191.77 139.639 192.24L139.219 195.08C139.129 195.67 139.219 196.37 139.069 196.98C138.659 198.63 138.389 200.19 138.339 201.9C138.309 202.97 137.399 206.27 137.029 207.29L135.819 210.56C135.459 211.54 135.259 212.63 134.789 213.55C134.079 214.95 132.389 216.92 131.619 218.91C131.339 219.64 130.809 220.01 130.319 220.55C129.779 221.13 129.269 221.76 128.749 222.36C127.039 224.42 126.919 223.67 125.919 225.02C125.509 225.58 124.889 225.86 124.329 226.23C123.489 226.79 122.709 227.38 121.769 227.73L118.549 228.93C116.759 229.59 116.159 229.68 114.359 229.63L110.849 229.53L107.849 229.43C106.459 229.38 105.129 228.99 103.789 228.68C102.949 227.96 102.029 227.64 100.979 227.49C100.399 227.41 99.9692 226.83 99.4892 226.56C98.3892 225.94 97.5392 225.17 96.6092 224.3L95.2892 223.07C95.0792 222.87 94.8092 222.68 94.6292 222.46C94.2292 221.95 93.8592 221.54 93.3992 221.1C93.0692 220.79 92.7792 220.08 91.9192 219.07C91.3892 218.45 91.1792 217.63 90.7992 216.93C90.5192 216.4 90.1392 215.9 89.8992 215.38C89.6492 214.83 89.4192 214.32 89.1092 213.8C87.8892 211.74 88.5192 211.46 87.2292 209.71C86.4992 208.71 86.5992 207.52 86.2392 206.41C85.8792 205.26 85.3892 204.23 85.1592 203.03C85.0992 202.74 84.9192 202.35 84.8792 202.06L84.4392 199.58C84.1192 197.77 83.9892 196.05 83.6192 194.24C83.3892 193.11 83.6792 191.88 83.5292 190.73C83.4892 190.43 83.4892 190.15 83.5092 189.86C83.6292 187.24 84.1492 187.26 84.4092 184.94C84.4492 184.57 84.5892 184.17 84.6592 183.83C84.9092 182.58 85.5392 181.62 86.3092 180.64C87.4992 179.14 88.1892 178.19 90.2292 178.47C93.0292 178.86 93.6692 181.3 93.7092 181.36L94.6292 182.72L95.4092 184.84C95.6892 185.6 95.5892 186.33 95.9192 187.11C96.2492 187.89 95.4292 188 96.6192 190.04C97.2092 191.06 96.8892 191.61 97.1792 192.67C97.3592 193.31 97.6292 193.93 97.7392 194.55C98.2092 197.58 98.3192 196.72 98.9692 199.09C99.1492 199.75 99.3392 200.33 99.6392 200.92C100.769 203.18 102.249 205.99 104.229 207.57C104.459 207.75 104.739 208.06 104.969 208.22C106.239 209.06 107.629 209.68 109.069 210.15C109.649 210.34 110.239 210.2 110.789 210.19C112.829 210.15 114.809 210.02 116.569 208.99L118.699 207.75C119.469 207.3 120.059 206.74 120.609 206.03C121.479 204.9 122.679 203.22 123.169 201.92C123.399 201.31 123.739 200.81 124.069 200.24C124.569 199.4 124.709 198.34 124.999 197.39C125.469 195.84 125.609 194.33 125.669 192.72C125.739 190.94 126.519 190.95 125.779 188.05C125.679 187.66 125.649 187.2 125.569 186.81C125.169 184.78 125.649 184.23 125.169 182.87L124.349 180.49C123.899 179.17 123.219 178.76 122.789 177.27C122.619 176.68 122.119 176.38 121.779 175.95C121.129 175.15 120.469 174.49 119.669 173.84C118.929 173.23 118.289 172.49 117.459 172C117.059 171.76 116.479 171.63 116.149 171.36C115.599 170.9 115.149 170.54 114.539 170.26L112.859 169.5C112.049 169.13 111.299 168.64 110.479 168.33C109.499 167.96 108.609 167.52 107.709 167C106.669 166.4 105.659 165.94 104.539 165.5C103.739 165.18 103.009 164.16 102.149 163.88C101.209 163.57 100.489 163.17 99.7692 162.5C99.4792 162.23 98.9292 162.07 98.5792 161.84C97.9792 161.44 97.5992 160.76 97.0892 160.32L94.8792 158.39C94.5192 158.07 94.2492 157.54 93.9292 157.13C93.1292 156.09 92.5692 156.46 92.1192 154.98C91.9692 154.5 91.5792 154.2 91.2492 153.85C90.6092 153.2 90.3692 152.21 89.9392 151.42C89.1592 149.99 88.1892 148.06 87.8092 146.49C87.2092 143.99 86.6192 144.11 86.2792 140.44C86.2092 139.67 85.5892 138.94 85.5692 138.15L85.4892 135.25L84.9192 131.92C84.7092 130.7 85.0692 129.8 84.9192 127.91L84.8092 126.58C84.7192 125.41 84.5992 124.3 84.9992 123.19C85.1892 122.66 85.4792 122.04 85.4992 121.49L85.5692 118.66C85.5892 117.45 86.4492 115.2 86.5992 114.33L87.0892 111.62C87.1592 111.24 87.2792 110.88 87.4192 110.53L87.8892 109.31C88.3092 108.24 88.6592 107.21 89.0292 106.09C89.2792 105.35 89.8092 104.67 90.1292 103.95L90.8392 102.33C91.1692 101.58 91.5192 100.95 91.9792 100.28C92.3192 99.7702 92.5692 99.2902 93.0292 98.8702C93.3792 98.5402 93.7792 98.1802 94.0792 97.8402L95.4092 96.3402C97.0092 94.5302 96.9192 95.7402 98.5292 93.7402C99.0892 93.0402 100.349 92.7002 101.149 92.3002C101.979 91.8802 102.759 91.4502 103.659 91.2102L105.769 90.6602C106.939 90.3502 107.999 90.1302 109.249 90.2102C109.749 90.2502 110.399 89.9802 110.839 89.9802H112.909C114.669 90.8102 114.939 89.8202 116.759 90.5202C119.129 91.4402 119.359 91.0002 121.139 92.0402L122.099 92.5902L123.579 93.5602C124.589 94.2202 125.439 95.1002 126.349 95.9002L127.039 96.5102C127.819 97.2102 128.469 97.9702 128.999 98.8702L130.049 100.64L131.269 102.46C131.749 103.18 132.239 103.85 132.629 104.62C133.139 105.61 133.519 106.65 133.959 107.64C134.399 108.64 134.589 109.5 134.839 110.58L135.509 113.53C135.689 114.32 135.859 115.08 135.949 115.88C136.059 116.78 136.229 117.59 136.409 118.48C136.569 119.27 136.429 120.16 136.409 120.97L136.309 125.7C136.279 127.35 135.829 129.21 135.119 130.66L133.729 133.49C133.419 134.13 131.539 135.24 131.249 135.31C130.809 135.43 130.089 135.46 129.669 135.27C128.779 134.87 127.969 134.27 127.329 133.53C126.909 133.04 126.679 132.33 126.399 131.76L125.959 130.89C125.759 130.49 125.689 130.15 125.629 129.68C125.539 128.99 124.869 128.43 124.749 127.77L124.359 125.59C124.509 126.78 121.839 118.6 122.349 119.59C121.949 118.71 121.699 117.91 121.349 117.02C120.699 115.34 119.709 113.81 118.709 112.33C118.239 111.63 117.379 111.28 116.799 110.76C115.339 109.44 114.979 110.29 113.669 109.46C112.329 108.61 109.899 108.9 108.299 109.41L106.009 110.13C104.289 110.68 101.699 113.32 100.989 114.56L99.8392 116.57C99.4892 117.17 99.1192 117.71 98.9392 118.4C98.7692 119.06 98.3192 121.21 98.2592 121.85L98.1692 122.81L98.0292 124.46C97.7992 127.13 98.3492 129.23 99.0792 131.71C99.3892 132.77 99.8892 133.65 100.419 134.62C100.599 134.95 100.739 135.39 100.989 135.69L102.999 138L104.779 139.73C105.369 140.3 107.239 141.09 108.549 142C109.909 142.94 110.419 142.63 111.989 143.68C112.729 144.17 113.459 144.4 114.329 144.61C115.079 144.79 117.009 146.2 117.999 146.7C119.099 147.25 120.089 147.8 121.109 148.48C121.689 148.87 122.479 149 123.029 149.46C123.469 149.83 123.879 150.19 124.329 150.5L125.579 151.36C126.099 151.72 126.719 151.99 127.179 152.43C127.849 153.06 128.409 153.77 129.099 154.35C129.479 154.66 129.849 154.91 130.119 155.33C131.119 156.89 131.679 156.11 132.279 157.75C132.599 158.63 133.029 158.47 133.839 160.02L134.799 161.88C135.179 162.62 135.409 163.5 135.879 164.18C136.229 164.69 136.409 165.08 136.499 165.73C136.819 167.89 137.409 167.88 137.829 170.02L138.239 172.09C138.389 172.84 138.239 173.8 138.519 174.52C138.909 175.55 139.119 176.44 139.159 177.54C139.189 178.26 139.759 180.85 139.759 180.93" fill="#90BEFB"/>
<path d="M204.909 195.26L204.219 196.93C203.969 197.53 204.079 198.1 203.329 198.63C202.809 199 202.419 199.45 201.969 199.9C201.559 200.31 200.709 200.67 199.959 200.81C199.289 200.94 198.649 200.74 197.959 200.92H158.419C158.019 200.92 157.599 200.82 157.249 200.85C156.529 200.91 156.039 200.75 155.519 200.5L154.139 199.86C153.649 199.63 153.209 199.34 152.889 199.01C152.389 198.49 151.889 197.98 151.499 197.41C151.249 197.04 151.259 196.55 151.149 196.14C151.049 195.76 150.789 195.38 150.729 195.02L150.609 194.24C150.559 193.89 150.549 193.48 150.629 193.14C150.709 192.78 150.609 192.49 150.609 192.13L150.539 179.96V167.04V160.62L150.509 141.38C150.509 140.55 150.669 139.79 150.549 138.97C150.349 137.59 150.549 136.45 150.509 135.07C150.449 133.29 150.439 131.54 150.509 129.78C150.529 129.27 150.629 128.78 150.539 128.27C150.349 127.21 150.749 126.5 151.089 125.5L151.309 124.86C151.689 123.73 152.679 122.36 154.359 121.72L156.209 121.02C156.629 120.86 157.319 120.91 157.819 120.88C158.439 120.84 159.059 120.72 159.679 120.7C160.669 120.66 161.649 120.68 162.649 120.7C163.899 120.73 164.419 120.62 165.839 120.7C166.529 120.74 167.209 120.77 167.889 120.7C168.979 120.61 169.649 120.82 171.489 120.7C172.069 120.66 172.559 120.7 173.129 120.7C175.799 120.73 178.419 120.75 181.069 120.69C182.409 120.66 183.679 120.63 184.999 120.69C186.389 120.76 187.739 120.73 189.139 120.69C191.649 120.63 194.109 120.64 196.639 120.68C197.249 120.68 197.999 120.87 198.539 121C200.769 121.51 199.129 120.48 201.849 122.33C202.359 122.88 202.559 123.49 202.899 124.09L203.309 124.83C203.599 125.35 203.509 125.82 203.489 126.37L203.409 128.25C203.389 128.76 203.069 129.24 202.889 129.75C202.789 130.05 202.499 130.3 202.269 130.56C201.789 131.11 201.279 131.6 200.569 132.06C199.799 132.55 198.369 132.94 197.229 132.91C196.769 132.9 196.289 132.96 195.839 132.96C193.459 132.99 191.139 133 188.789 132.95C187.809 132.93 186.879 132.85 185.889 132.97L172.249 132.95C171.359 132.95 170.519 132.88 169.659 132.92L168.379 132.98L165.919 133.15C165.169 133.2 164.729 133.58 164.679 134.03L164.559 135.08C164.509 135.48 164.399 135.88 164.399 136.29L164.419 141.51C164.419 142.35 164.539 143.17 164.429 144C164.219 145.51 164.629 145.84 164.419 147.48C164.339 148.1 164.389 148.71 164.419 149.32L164.519 151.03L164.609 151.86C164.669 152.42 165.179 152.81 166.109 152.85L167.479 152.91C167.799 152.92 168.189 153 168.529 153H193.879L194.929 153.08C195.889 153.15 196.629 153.36 197.359 153.7C199.009 154.45 198.489 154.57 199.699 155.5C200.679 156.25 199.899 156.62 200.419 157.8C200.709 158.46 200.819 159.14 200.539 159.81C199.939 161.25 201.239 161.4 198.449 163.93C198.219 164.14 197.689 164.26 197.379 164.4C197.009 164.58 196.659 164.86 196.229 164.95C193.979 165.47 194.519 164.98 191.939 165.23C191.499 165.27 191.129 165.23 190.669 165.23L172.989 165.19C171.709 165.19 170.609 165.11 169.409 165.16L167.799 165.23C167.009 165.27 166.229 165.35 165.419 165.46C164.989 165.52 164.699 165.92 164.659 166.18L164.419 168.28C164.189 170.29 164.599 174.73 164.419 175.82C164.369 176.17 164.399 176.47 164.419 176.82C164.579 179.16 164.129 182.67 164.369 184.54L164.459 185.25C164.509 185.62 164.459 187.48 165.199 187.8C165.889 188.09 166.709 188.11 167.499 188.15C167.499 188.14 169.789 188.2 169.209 188.2H190.749C190.989 188.2 191.369 188.12 191.549 188.14C192.089 188.21 192.509 188.22 193.009 188.16C193.599 188.1 194.189 188.17 194.799 188.18L197.289 188.22C198.099 188.23 198.929 188.35 199.729 188.45C200.989 188.62 201.749 189.35 202.549 189.91C203.349 190.46 204.159 191.01 204.309 191.79C204.349 192.01 204.409 192.24 204.479 192.46L204.859 193.51C205.069 194.11 205.119 194.66 204.879 195.25" fill="#90BEFB"/>
<path d="M81.3391 82.3402L81.0891 85.4302C80.9991 86.4702 80.8191 87.2402 80.5391 88.2002L79.8991 90.4502C79.5791 91.5602 78.9491 92.3902 78.4491 93.3602C77.5091 95.1802 76.3991 95.4202 74.9591 95.7002L73.6791 95.9402C72.8291 96.1002 70.3191 95.8702 69.2891 95.9302C67.9091 96.0002 66.5691 96.0002 65.1891 95.9402C64.8791 95.9302 64.5791 95.9002 64.2691 95.9402L62.5391 96.0902C61.4091 96.1902 59.1291 96.2702 58.8691 98.0302C58.6691 99.3702 58.4391 100.83 58.4391 102.29L58.4591 120.55C58.4591 123.74 58.5791 126.81 58.4591 129.97C58.3191 133.63 58.6191 134.56 58.4691 138.22C58.4391 138.95 58.3491 139.65 58.4391 140.35C58.5291 141.03 58.5091 141.62 58.4291 142.32C58.3591 142.89 58.4491 143.52 58.4791 144.13C58.5291 145.39 58.5391 146.7 58.4691 147.94C58.3091 150.57 58.6291 151.42 58.4791 154.65C58.4491 155.38 58.3591 156.05 58.4691 156.76C58.5691 157.4 58.4391 158.06 58.4291 158.72C58.3991 161.96 58.3591 165.14 58.4591 168.34C58.4991 169.67 58.5591 170.96 58.4991 172.3C58.4491 173.35 58.3491 174.41 58.4191 175.48C58.5191 176.98 58.5491 178.38 58.4591 179.89C58.2391 183.58 58.6791 185.83 58.4791 189.23C58.3891 190.71 58.4391 192.1 58.4591 193.59C58.4691 194.78 58.3891 195.9 58.4691 197.11C58.6591 199.72 58.3491 200.71 58.4691 203.17C58.5491 204.64 58.5591 206.16 58.4691 207.61C58.3791 208.92 58.4691 210.12 58.4691 211.43V225.59C58.4791 226.43 58.4391 227.16 58.4691 227.98C58.5491 229.91 58.5491 231.84 58.4691 233.74C58.2691 237.77 58.8391 238.14 58.2591 241.84C57.9891 243.52 57.8291 245.15 57.6391 246.85L57.4591 248.39L57.3291 250.09C57.2791 250.78 56.9391 251.59 56.8091 252.28C56.4791 254.05 55.7891 255.34 55.0491 256.75C54.3791 258.02 53.6491 258.96 52.3891 258.84C51.6991 258.78 51.6491 259.5 50.1991 258.93C48.6791 258.33 48.4991 258.41 47.6591 256.9C46.9491 255.61 46.5191 254.3 46.0791 252.81C45.6591 251.4 45.2691 249.95 45.0791 248.42L44.6391 244.9L44.3391 241.45L43.9691 236.67C43.8491 235.14 43.8891 233.59 44.0391 232.03V109.79C44.0391 109.56 44.0991 109.22 44.0991 109.09C44.0291 107.43 44.2891 105.68 44.1091 103.41L43.8291 99.6702C43.7591 98.6902 43.7691 97.5902 43.1291 96.9402C42.8891 96.7502 42.3491 96.4702 42.0591 96.4102L39.2091 95.8602C38.6091 95.7402 37.8891 95.7902 37.2991 95.8902C36.2291 96.0702 35.2391 95.9302 34.1391 95.8502C33.8491 95.8302 33.0391 96.0702 31.8491 96.0302L28.6591 95.9302C27.6291 95.8902 26.6391 95.3602 25.6291 95.0102C25.0891 94.8202 24.8691 93.7902 24.4991 93.3602C23.5791 92.2902 22.8091 91.2302 22.4791 89.5402C21.9891 87.0102 21.2291 83.9002 21.6091 81.3802C21.3991 78.6702 21.5091 76.7702 21.8891 74.1302C22.0591 72.9302 22.1491 71.7702 22.5491 70.6802C22.7891 70.0002 22.9091 68.9802 23.3091 68.4802C23.9091 67.7502 24.4391 67.1102 24.9291 66.2802C25.4391 65.4302 26.1591 65.1702 26.8991 64.9402C30.6791 63.7802 29.4791 65.2602 32.6891 64.3402C33.2391 64.1802 33.8291 64.4002 34.3791 64.4202L37.8091 64.5002H38.7991L67.5291 64.3902C69.1691 64.3902 70.6991 64.1202 72.3191 64.3302L73.6891 64.5002L75.8391 64.8902C77.3591 65.1702 77.7291 65.8302 78.6791 67.2502C80.8591 70.5202 79.6791 70.2602 80.5091 72.4602C81.0291 73.8302 81.1391 75.2602 81.2291 76.7902L81.3491 78.6402C81.4291 79.8402 81.4591 81.1502 81.3491 82.3502" fill="#90BEFB"/>
<path d="M14.1495 157.65C13.9895 158.38 13.9895 158.94 14.1495 159.68V212.92C14.1495 213.56 14.0595 214.19 13.9895 214.78C13.8295 216.26 13.6895 217.65 13.6295 219.11C13.5995 220.06 13.2995 220.98 12.8695 221.78C12.3595 222.73 12.0995 223.63 11.7695 224.66C11.5795 225.26 10.8995 225.79 10.4995 226.31C10.0295 226.91 9.48952 227.65 8.72952 227.84C8.05952 228.01 6.61952 228.02 5.86952 228C5.30952 227.99 4.87952 227.56 4.50952 227.19C2.65952 225.34 2.66952 225.17 1.67952 222.98C0.979517 221.44 0.489517 219.86 0.729517 218.13C-0.0604832 216.07 0.449517 215.44 0.0595168 213.44C-0.0504832 212.84 0.0695168 212.28 0.0795168 211.67L0.149517 203.1C0.149517 202.72 0.169517 202.38 0.149517 201.96L0.0595168 199.74C0.0495168 199.3 -0.0604832 198.84 0.0295168 198.41C0.189517 197.68 0.00951676 196.98 0.00951676 196.25L0.0295168 184.28C0.0295168 183.27 0.129517 182.36 0.00951676 181.36C-0.0804832 180.58 -0.000483245 179.78 0.0395168 179C0.129517 177.42 0.129517 175.84 0.0395168 174.25C-0.000483245 173.53 -0.000483245 172.88 0.0395168 172.17C0.129517 170.83 0.0695168 169.54 0.0195168 168.2C-0.0904832 165.32 -0.000483241 162.47 -0.000483241 159.57V148.87V147.23L0.0195168 135.83C0.0195168 132.23 0.119517 128.72 0.0195168 125.14C-0.0404832 123.07 -0.0104832 121.1 0.0195168 119.04L0.119517 112.93C0.119517 112.55 0.119517 112.22 0.119517 111.83C0.0695168 109.55 0.0395167 107.3 0.129517 105.04C0.159517 104.11 0.409517 103.23 0.519517 102.34C0.679517 100.95 0.649517 99.06 1.28952 97.81C1.71952 96.98 1.92952 95.98 2.55952 95.28C3.88952 93.79 3.94952 93.6 5.81952 92.63C7.14952 91.94 8.41952 92.46 9.50952 93.22C10.2095 93.71 10.7095 94.3 11.2195 95C11.6295 95.55 11.8795 96.16 12.1695 96.81C12.9195 98.45 13.4295 100.06 13.5495 101.88L13.6495 103.28L14.0995 105.15V157.68L14.1495 157.65Z" fill="#90BEFB"/>
<path d="M325.28 102.09V107.49C324.76 110.01 324.24 112.59 321.89 114.21C321.08 114.77 318.88 115.17 318.02 115.17L304.09 115.13L301.17 115.03H300.34L295.18 115.09C294.77 115.09 293.48 115.35 292.76 115.29C291.73 115.2 290.77 115.8 290.64 116.87L290.44 118.52C290.34 119.33 290.29 120.59 290.32 121.4C290.35 122.32 290.32 123.21 290.32 124.14V124.96L290.28 138.2C290.28 139.79 290.16 141.29 290.25 142.87L290.35 144.49C290.42 145.56 290.56 146.62 290.7 147.7C290.85 148.82 292.07 149.2 293.09 149.31L294.86 149.51L307.05 149.48C308.78 149.48 310.42 149.41 312.12 149.48L314.91 149.59C315.52 149.61 316.15 149.87 316.75 150.03C317.29 150.17 317.61 150.7 317.92 151.13C319.65 153.49 318.95 152.39 320.14 155.13C320.38 155.69 320.11 156.4 320.14 156.98C320.2 157.85 320.72 158.74 320.55 159.64L319.61 164.9C319.49 165.57 318.72 166 318.35 166.5L317.56 167.56C317.24 167.99 314.74 168.93 314 168.83C313.15 168.72 312.39 168.98 311.57 169.01C309.5 169.1 307.46 169.07 305.39 169.02C304.87 169.01 304.37 168.89 303.86 169.01C302.94 169.22 302.04 168.9 301.12 168.87C299.47 168.8 297.86 168.82 296.2 168.87C295.63 168.88 293.85 169.15 293.31 169.14C292.35 169.12 291.36 169.16 290.77 170.13C290.51 170.56 290.62 171.3 290.54 171.83L290.2 174.01L290.31 174.83C290.16 173.88 290.33 178.59 290.33 177.84V214.21L290.21 216.08L290.01 217.66C289.79 219.34 290 221.02 289.22 222.55L288.54 223.9C288.28 224.42 288.17 225.04 287.87 225.54C287.62 225.97 287.1 226.42 286.92 226.84C286.48 227.9 285.61 228.07 284.65 228.34C283.77 228.58 283.16 228.61 282.22 228.32C281.51 228.1 280.52 228.2 280.04 227.37C279.92 227.16 279.74 226.7 279.56 226.52C278.94 225.92 278.44 225.34 278.2 224.53C277.69 222.75 276.73 221.14 276.59 219.39L276.46 217.79C276.42 217.2 276.09 215.93 276.09 215.68V107.79L276.67 105.67C276.78 105.27 276.77 104.82 276.81 104.42L276.92 103.25C276.99 102.52 277.27 101.79 277.47 101.09C277.66 100.46 277.99 99.95 278.29 99.38C278.65 98.7 278.74 97.78 279.47 97.33C280.26 96.85 280.99 96.38 281.64 95.67C282.08 95.45 282.88 95.5 283.4 95.4L284.55 95.16H285.32C286.48 95.19 287.85 95.05 289.11 95.05L308.19 95.15C308.92 95.15 309.62 95.3 310.32 95.18C310.93 95.08 311.46 95.16 312.07 95.18C313.94 95.24 315.8 95.25 317.67 95.18C318.42 95.15 319.05 95.05 319.8 95.31C320.32 95.5 320.88 95.61 321.43 95.76C322.17 95.96 322.62 96.74 323.14 97.24C323.81 97.88 324.16 98.6 324.33 99.54C324.37 99.79 325.17 101.25 325.27 102.12" fill="#90BEFB"/>
<path d="M269.539 212.43C269.599 213.97 269.409 215.25 269.249 216.74C268.959 219.48 269.659 220.86 268.559 226.47C268.409 227.25 268.019 227.84 267.739 228.47C267.289 229.44 267.229 230.71 266.719 231.54C266.249 232.31 265.519 232.69 265.009 233.33C263.119 235.72 263.369 234.01 261.159 234.87C260.409 235.16 259.799 234.9 259.049 234.89L240.069 234.78C239.379 234.78 238.719 234.52 238.039 234.67C237.429 234.8 236.859 234.9 236.239 234.75C236.059 234.72 235.799 234.8 235.599 234.8H227.929C227.119 234.8 226.089 234.26 225.719 234.15C224.959 233.92 224.439 233.51 223.819 232.74C223.369 232.18 222.869 231.76 222.499 231.01L221.539 229.07C219.789 225.56 220.589 225.05 219.989 221.89C219.619 219.96 219.429 218.13 219.339 216.14L219.179 212.81C219.129 211.74 219.069 210.81 218.959 209.7L218.919 167.64L218.889 164.36C218.879 162.68 218.609 161.03 218.769 159.33C218.799 159 218.809 158.24 218.789 157.88C218.739 156.46 218.779 155.09 218.789 153.66L218.849 150.22C218.869 148.88 218.999 147.6 218.889 146.28C218.839 145.68 218.889 145.14 218.889 144.53C218.959 142.15 218.959 139.78 218.889 137.4C218.819 135.43 218.769 133.47 218.879 131.52C218.969 129.96 218.909 128.51 218.879 126.94C218.789 122.67 218.799 118.42 218.879 114.13C218.899 113.06 218.899 112.11 218.879 111.04C218.809 107.15 218.799 103.33 218.879 99.4701C218.919 97.8101 218.999 96.1701 218.899 94.5301C218.799 93.0001 218.869 91.6101 218.899 90.0801C218.979 86.0901 218.959 82.1801 218.909 78.1901C218.899 77.2601 218.769 76.4401 218.909 75.4901C218.999 74.8201 218.889 74.0301 218.859 73.3101C218.739 69.3401 219.029 68.3901 218.859 65.0501C218.769 63.3201 218.859 61.6301 218.879 59.8901L218.979 45.7101C218.979 44.3701 218.969 43.1801 218.969 41.8401V25.4901C218.959 24.6001 219.019 23.5401 219.089 22.6801C219.659 15.6601 219.129 13.6601 220.799 7.17011C220.869 6.89011 220.919 6.18011 221.009 5.92011C221.329 5.01011 221.809 4.20011 222.209 3.39011C222.519 2.75011 222.779 2.27011 223.229 1.89011C223.699 1.50011 224.169 0.490113 224.639 0.320113C226.489 -0.349887 226.949 -0.00988686 228.289 1.15011C229.069 1.83011 229.519 2.87011 229.919 4.21011C230.089 4.77011 230.579 5.30011 230.789 5.85011C231.569 7.93011 231.639 10.0901 232.099 11.6201C232.719 13.6501 232.919 15.7101 232.839 18.0201C232.809 18.8001 232.889 19.6701 232.919 20.4401L232.999 23.4401C233.019 24.1501 233.309 25.1301 233.169 25.8001C232.839 27.4201 232.849 28.7801 233.159 30.3901C233.299 31.1201 233.099 32.2001 232.979 32.9701C232.839 33.8201 232.879 34.5401 232.929 35.3901L233.039 37.4201C233.059 37.8701 232.979 38.6701 232.939 39.1901C232.799 40.7901 232.919 42.2701 232.939 43.8501L233.029 56.2701L233.069 77.3301C233.069 78.1401 232.909 78.9201 233.019 79.7101C233.119 80.4301 233.109 81.1501 233.019 81.9101C232.959 82.3701 233.079 82.9901 233.079 83.4801L233.039 102.7C233.039 106.08 232.929 109.32 233.039 112.67C233.079 113.93 233.089 115.07 233.039 116.33C232.969 117.98 232.999 119.63 233.039 121.3L233.089 123.61L233.169 128.03C233.189 129.56 233.229 130.95 233.169 132.48C233.089 134.41 233.099 136.39 233.169 138.31C233.289 141.39 233.029 141.51 233.169 144.98C233.189 145.58 233.229 146.23 233.149 146.81C232.919 148.55 233.109 150.16 233.079 151.85C233.039 154.06 233.079 156.14 233.079 158.35V161.37L233.189 165.72C233.229 167.27 233.289 168.87 233.219 170.44C233.029 174.3 233.269 174.55 233.129 178.51L233.049 180.76C232.969 182.97 232.999 185.14 233.049 187.35C233.059 188 233.209 188.9 233.189 189.53C233.139 191.47 233.039 193.28 233.419 195.21C234.369 196.1 235.449 196.42 236.529 196.57L238.239 196.8C238.969 196.9 239.729 196.93 240.489 196.84C241.079 196.77 241.699 196.54 242.269 196.77C242.959 197.06 243.579 196.7 244.289 196.7L261.729 196.72C262.999 196.72 265.559 198.51 266.779 199.73C267.169 200.12 267.269 201.11 267.559 201.62C268.769 203.82 269.729 206.58 269.649 209.8C269.629 210.63 269.539 211.56 269.559 212.4" fill="#90BEFB"/>
</g>
</g>
<defs>
<clipPath id="clip0_2553_6797">
<rect width="325.28" height="259.14" fill="white"/>
</clipPath>
</defs>
</svg>
