<svg width="580" height="248" viewBox="0 0 580 248" fill="none" xmlns="http://www.w3.org/2000/svg">
<g clip-path="url(#clip0_2553_5590)">
<mask id="mask0_2553_5590" style="mask-type:luminance" maskUnits="userSpaceOnUse" x="0" y="0" width="580" height="248">
<path d="M579.3 0H0V247.56H579.3V0Z" fill="white"/>
</mask>
<g mask="url(#mask0_2553_5590)">
<path d="M106.18 1.66012C106.2 2.26012 104.47 2.00012 104.49 1.48012C104.51 0.860118 104.56 0.310118 104.77 0.140118C104.98 -0.0498824 105.62 -0.0298824 105.88 0.100118C106.12 0.240118 106.16 1.13012 106.19 1.66012" fill="#90BEFB"/>
<path d="M231.98 203.21L231.95 213.02L231.11 219.08C229.92 227.82 226.28 236.51 218.49 241.25C215.33 243.17 212.12 244.52 208.5 245.3C206.78 245.67 199.1 246.81 197.64 246.81H144.58C143.67 246.81 142.73 246.64 141.85 246.56C135 245.96 127.81 244.56 122.37 240.25C119.38 237.88 116.98 235.16 115.41 231.74L114.48 229.71C113.68 227.97 112.66 223.83 112.25 221.77C111.77 219.31 111.23 217.01 111.42 214.44C111.47 213.86 111.17 213.13 111.17 212.45V71.11C111 69.74 109.05 70.26 108.27 70.26L90.87 70.31C90.41 70.31 89.9 71.25 89.9 71.81V225.74L89.62 228.5C89.51 229.56 89.07 230.67 88.83 231.71C87.17 239.09 81.32 244.97 73.96 246.36L67.66 247.56H58.71C55.01 247 51.5 246.31 48.21 244.56C42.28 240.59 39.71 235.56 38.74 228.63L38.17 224.49V70.89C37.51 69.86 36.64 70.25 35.73 70.25H19.82C18.95 70.25 18.12 69.8 17.38 70.62V245.79C17.38 246.66 16.02 246.83 15.47 246.83H0.96C0.3 246.84 0 246.31 0 245.56V65.05L0.12 62.76C0.18 61.35 0.33 59.96 0.15 58.55C0.07 57.91 0.15 57.34 0.15 56.69L0.36 44.73L1.08 41.16C1.86 37.41 3.34 34.99 5.5 31.85C7.04 29.62 10.77 26.76 13.33 25.61L15.51 24.63C16.73 24.09 17.92 23.7 19.25 23.55L23.76 23.04C25.91 22.79 28.21 22.71 30.37 23.02L34.09 23.56C35.26 23.73 36.16 23.97 37.24 24.32C41.88 25.84 45.75 28.48 48.75 32.44C50.45 34.69 52.67 38.84 53.12 41.53L53.88 46V201.08C53.88 201.42 54.59 202.14 54.9 202.14H73.86C74.19 201.83 74.42 201.17 74.42 200.62V45.47C74.42 44.12 74.9 43.05 75.22 41.87C75.47 40.93 75.58 39.8 75.95 38.96L76.76 37.07C78.59 32.8 82.56 28.57 86.66 26.26C87.47 25.8 91.45 24.02 92.2 23.9C95.88 23.27 101.79 22.5 105.35 23.03L109.49 23.65C110.39 23.79 111.23 24.08 112.09 24.4C116.91 26.16 120.44 28.47 123.41 32.71C125.3 35.42 125.82 36.41 126.84 39.7C127.22 40.91 127.75 42.18 127.84 43.44L128.04 46.45L128.22 153L128.35 209.57C128.35 210.29 129.09 216.53 129.33 217.36L130.29 220.57C130.98 222.92 133.86 225.92 136.02 226.84C138.98 228.09 142.27 229.09 145.66 229.09L195.95 229.18C197.53 229.19 201.92 228.58 203.63 228.07C209.09 226.47 212.56 223.46 213.81 217.75C214.07 216.56 214.57 215.46 214.64 214.25L214.78 211.53L214.94 203.46C214.97 202.17 216.6 202.57 217.31 202.57H228.82C229.82 202.56 231.28 202.04 231.98 203.19" fill="#90BEFB"/>
<path d="M373.42 245.79C373.42 246.53 372.21 246.84 371.69 246.84H356.75C356.42 246.84 355.96 246.22 355.96 245.8L356.1 103.76L356.17 71.1C356.02 69.75 354.13 70.26 353.33 70.26L335.93 70.31C335.18 70.31 334.96 71.57 334.96 72.28V225.74L334.68 228.5C334.57 229.56 334.13 230.67 333.88 231.71C332.23 239.09 326.37 244.97 319.02 246.36L312.72 247.56H303.77C300.07 247 296.56 246.31 293.27 244.56C287.34 240.59 284.77 235.56 283.8 228.63L283.22 224.49V70.89C282.56 69.86 281.69 70.26 280.78 70.26H264.86C264 70.26 263.17 69.81 262.43 70.63V245.98C261.95 246.53 261.41 246.84 260.72 246.84H245.8C245.56 246.84 245.03 246.31 245.03 246.02V65.05L245.14 62.76C245.2 61.35 245.35 59.96 245.17 58.55C245.08 57.92 245.17 57.34 245.18 56.69L245.39 44.73L246.11 41.16C246.89 37.41 248.37 35 250.53 31.85C252.07 29.62 255.8 26.76 258.36 25.61L260.54 24.63C261.76 24.09 262.95 23.7 264.28 23.55L268.79 23.04C270.95 22.79 273.24 22.71 275.4 23.02L279.12 23.56C280.28 23.73 281.19 23.97 282.26 24.32C286.9 25.84 290.78 28.48 293.78 32.44C295.48 34.69 297.69 38.84 298.15 41.53L298.91 46V200.37C298.91 201.46 299.25 202.13 300.39 202.13H318.7C318.99 202.12 319.45 201.43 319.45 201.05V45.47C319.45 44.12 319.93 43.05 320.25 41.87C320.5 40.93 320.61 39.8 320.96 38.96L321.78 37.07C323.61 32.8 327.58 28.57 331.67 26.26C332.48 25.8 336.47 24.02 337.22 23.9C340.9 23.27 346.81 22.5 350.37 23.03L354.51 23.65C355.41 23.79 356.25 24.08 357.11 24.4C361.93 26.16 365.45 28.47 368.43 32.71C370.31 35.4 370.85 36.43 371.86 39.7C372.23 40.91 372.75 42.18 372.85 43.44L373.09 46.44L373.22 103.73L373.38 245.78L373.42 245.79Z" fill="#90BEFB"/>
<path d="M579.31 44.9199V110.61L578.83 112.59L577.96 116.15C577.7 117.24 576.95 118.52 576.41 119.53C574.18 123.64 570.6 125.83 566.17 126.99C564.34 127.47 562.62 127.59 560.75 127.86L558.21 128.21L540.38 128.26C539.96 128.26 539.43 129.27 539.43 129.69L539.35 135.86L538.94 137.23V246.81L524.19 246.83C523.69 246.83 523.08 246.67 522.82 246.38C522.61 246.14 522.51 245.62 522.51 245.05V24.0299C523.02 22.8799 524.01 23.1599 524.95 23.1599L538.7 23.1899V97.2699L539.42 97.8299L539.47 107.18C539.47 108.56 541.1 108.23 541.85 108.23L558.53 108.2C559.47 108.2 560.62 108.01 561.25 107.29C561.98 106.46 562.51 105.16 562.56 104.05L562.8 97.3999L562.88 24.4099C568.54 25.5199 573.37 28.8299 576.04 33.9399C577.7 37.1399 577.72 37.5499 578.43 40.7899L579.32 44.9099L579.31 44.9199Z" fill="#90BEFB"/>
<path d="M232.01 146.38L232.03 178.38V181.94C232.03 182.32 231.52 182.85 231.02 182.85H191.74C191.06 183.37 190.9 184.24 190.85 185L190.65 187.94L190.3 191.82C189.97 195.51 189.69 198.14 188.15 201.76L187.05 204.32C186.17 206.37 184.91 208.02 183.46 209.68C181.26 212.19 178.53 213.83 175.35 214.91C171.2 216.32 166.89 216.36 162.5 216.08C157.64 215.76 153.18 214.35 149.34 211.34C146.83 209.39 144.19 205.54 143.44 202.46C143.27 201.75 142.83 200.89 142.71 200.21C142.37 198.13 141.37 194.31 141.37 192.91V23.7599C141.37 22.5799 142.7 22.9399 143.36 22.9399H229.51C230.48 22.9399 231.1 22.7899 231.99 23.3499L232.01 57.6999C232.01 58.4399 232.14 59.3999 231.83 59.9299C231.15 61.0399 230.06 60.3899 229 60.3899H160.04C159.39 60.3899 158.72 60.7699 158.29 61.1899V82.8299C158.29 83.4499 159.43 83.8199 160.02 83.8199L224.41 83.7999C225.14 83.7999 225.7 83.5599 226.23 83.9399C227.41 84.7799 225.98 85.6899 226.62 88.4899C226.72 88.8999 226.46 89.6699 226.46 90.1599L226.48 114.93L226.62 117.86C226.65 118.62 226.77 119.65 226.53 120.32C226.16 121.36 225.13 121.74 224.16 121.24H160.25C159.58 121.24 158.29 121.42 158.29 122.26V190.04C158.3 191.69 158.95 193.51 159.52 194.82C161.75 200 170.5 199.04 172.25 195.85C172.82 194.8 173.74 192.72 173.74 191.48V146.88C173.74 146.39 174.22 145.4 174.76 145.4H230.98C231.55 145.39 231.99 145.84 231.99 146.38" fill="#90BEFB"/>
<path d="M470.59 68.68C470.59 67.61 472.61 67.42 473.24 67.87H490.38C492.85 67.87 493.76 71.15 493.76 72.46V101.89C493.75 102.91 493.08 104.31 492.44 104.99C491.22 106.32 489.59 106.47 488.1 106.38C485.39 106.21 482.74 106.24 480 106.33L477.75 106.4L473.2 106.54C472.45 106.56 470.59 106.4 470.59 105.26V68.67V68.68ZM471.54 126.57L491.07 126.54C491.68 126.54 492.62 126.35 493.23 126.25L496.66 125.65C500.65 124.97 505.44 122.65 507.41 118.94C509.65 114.72 509.11 115.72 510.42 110.58V45.21C510.42 42.93 509.63 40.99 509.32 38.83C508.95 36.22 506.72 31.59 505.04 29.78C501.44 25.92 498.22 24.28 492.98 23.22C491.66 22.95 490.27 22.57 488.94 22.5L484.95 22.29L455.33 22.21C454.52 22.21 453.63 22.47 453.63 23.49V245.02C454.13 246.18 455.13 245.9 456.07 245.89L469.82 245.86V171.63C470.33 171.42 470.56 171.17 470.56 170.8L470.59 161.86C470.59 160.48 472.21 160.81 472.97 160.81L489.65 160.84C490.59 160.84 491.73 161.03 492.37 161.75C493.1 162.58 493.63 163.88 493.67 164.99L493.92 171.64L494.01 244.66C499.89 243.41 504.54 240.11 507.15 235.1C508.48 232.55 509.1 231.07 509.52 228.23C509.73 226.81 510.41 225.34 510.41 223.77V158.78C510.41 158.04 510.12 157.09 509.97 156.46L509.09 152.89C508.82 151.79 508.08 150.52 507.54 149.51C506.02 146.69 503.86 144.75 501.02 143.4C497.39 141.66 495.27 141.66 491.88 141.18L489.34 140.83L471.51 140.78C471.09 140.77 470.55 139.78 470.55 139.27V127.74C470.55 127.27 471.02 126.56 471.55 126.56" fill="#90BEFB"/>
<path d="M423.42 197.71L422.34 200.37L420.13 201.21H404.1C401.47 200.65 401.19 200.5 400.45 197.7V71.8499C400.3 70.2799 403.08 68.6099 403.42 68.6099L420.41 68.5899C422.18 69.4699 423.18 70.7999 423.4 72.7799V197.71H423.42ZM439.49 40.7799C439.05 38.4999 438.52 36.2999 437.45 34.2999C436.24 32.0499 434.96 29.9499 433.1 28.2599C430.61 25.9799 427.16 23.9499 423.93 23.1399L420.69 22.3199C420.02 22.1499 419.1 22.0799 418.35 22.0199L415.91 21.8099C413.01 21.5599 405.55 21.6999 402.79 22.4099L398.73 23.4599C397.75 23.7099 396.71 24.3499 395.76 24.7699C391.39 26.7499 388.19 30.2699 386.21 34.5799C385.69 35.7299 385.29 36.6999 384.97 37.9799C384.66 39.2299 384.14 40.4799 384 41.7699L383.57 45.6599C383.5 46.3199 383.3 47.1399 383.3 47.9099V222.85C383.3 222.85 384.42 230.11 384.52 230.4C384.95 231.73 385.2 233.04 385.75 234.26C387.03 237.13 388.57 239.78 391.01 241.82C392.92 243.41 395.16 244.8 397.53 245.62C399.92 246.46 404.14 247.58 406.51 247.58H417.38C422.21 247 426.9 245.96 430.98 243.09C434.95 240.31 436.99 237.04 438.6 232.52C439.02 231.33 440.32 224.98 440.32 224.22V45.3399C440.32 43.7299 439.76 42.2399 439.48 40.7899" fill="#90BEFB"/>
</g>
</g>
<defs>
<clipPath id="clip0_2553_5590">
<rect width="579.31" height="247.56" fill="white"/>
</clipPath>
</defs>
</svg>
